<?xml version="1.0" encoding="UTF-8" standalone="no"?>
<!-- Created with Inkscape (http://www.inkscape.org/) -->

<svg
   width="25.740196mm"
   height="22.933298mm"
   viewBox="0 0 25.740196 22.933299"
   version="1.1"
   id="svg5"
   sodipodi:docname="adjacent_nodes.svg"
   inkscape:version="1.1 (c4e8f9e, 2021-05-24)"
   xmlns:inkscape="http://www.inkscape.org/namespaces/inkscape"
   xmlns:sodipodi="http://sodipodi.sourceforge.net/DTD/sodipodi-0.dtd"
   xmlns="http://www.w3.org/2000/svg"
   xmlns:svg="http://www.w3.org/2000/svg">
  <sodipodi:namedview
     id="namedview7"
     pagecolor="#ffffff"
     bordercolor="#666666"
     borderopacity="1.0"
     inkscape:pageshadow="2"
     inkscape:pageopacity="0.0"
     inkscape:pagecheckerboard="0"
     inkscape:document-units="mm"
     showgrid="false"
     inkscape:zoom="2.2271324"
     inkscape:cx="74.759812"
     inkscape:cy="60.840568"
     inkscape:window-width="1312"
     inkscape:window-height="847"
     inkscape:window-x="2279"
     inkscape:window-y="25"
     inkscape:window-maximized="0"
     inkscape:current-layer="layer1"
     inkscape:snap-global="false">
    <inkscape:grid
       type="xygrid"
       id="grid824"
       originx="-61.075107"
       originy="-152.66099" />
  </sodipodi:namedview>
  <defs
     id="defs2">
    <marker
       style="overflow:visible"
       id="DotL"
       refX="0"
       refY="0"
       orient="auto"
       inkscape:stockid="DotL"
       inkscape:isstock="true">
      <path
         transform="matrix(0.8,0,0,0.8,5.92,0.8)"
         style="fill:context-stroke;fill-rule:evenodd;stroke:context-stroke;stroke-width:1pt"
         d="m -2.5,-1 c 0,2.76 -2.24,5 -5,5 -2.76,0 -5,-2.24 -5,-5 0,-2.76 2.24,-5 5,-5 2.76,0 5,2.24 5,5 z"
         id="path1002" />
    </marker>
    <defs
       id="id-db328a8d-fbff-431e-a4b4-b5d1dbb46adc">
      <g
         id="id-957f030f-84f4-4c4f-97a8-9487cef0e0cc">
        <symbol
           overflow="visible"
           id="id-b92fbf4f-ed68-4ce5-a708-0e21ed88fb49">
          <path
             style="stroke:none;stroke-width:0"
             d=""
             id="id-5624e2cf-3f2b-4335-8403-3af84676e4d5" />
        </symbol>
        <symbol
           overflow="visible"
           id="id-1f9798d6-4ffe-4766-a73b-cc8611e3ccc2">
          <path
             style="stroke:none;stroke-width:0"
             d="M 3.328125,-3.015625 C 3.390625,-3.265625 3.625,-4.1875 4.3125,-4.1875 c 0.046875,0 0.296875,0 0.5,0.125 C 4.53125,-4 4.34375,-3.765625 4.34375,-3.515625 c 0,0.15625 0.109375,0.34375 0.375,0.34375 0.21875,0 0.53125,-0.171875 0.53125,-0.578125 0,-0.515625 -0.578125,-0.65625 -0.921875,-0.65625 -0.578125,0 -0.921875,0.53125 -1.046875,0.75 -0.25,-0.65625 -0.78125,-0.75 -1.078125,-0.75 -1.03125,0 -1.609375,1.28125 -1.609375,1.53125 0,0.109375 0.109375,0.109375 0.125,0.109375 0.078125,0 0.109375,-0.03125 0.125,-0.109375 0.34375,-1.0625 1,-1.3125 1.34375,-1.3125 0.1875,0 0.53125,0.09375 0.53125,0.671875 0,0.3125 -0.171875,0.96875 -0.53125,2.375 -0.15625,0.609375 -0.515625,1.03125 -0.953125,1.03125 -0.0625,0 -0.28125,0 -0.5,-0.125 0.25,-0.0625 0.46875,-0.265625 0.46875,-0.546875 0,-0.265625 -0.21875,-0.34375 -0.359375,-0.34375 -0.3125,0 -0.546875,0.25 -0.546875,0.578125 0,0.453125 0.484375,0.65625 0.921875,0.65625 0.671875,0 1.03125,-0.703125 1.046875,-0.75 0.125,0.359375 0.484375,0.75 1.078125,0.75 1.03125,0 1.59375,-1.28125 1.59375,-1.53125 0,-0.109375 -0.078125,-0.109375 -0.109375,-0.109375 -0.09375,0 -0.109375,0.046875 -0.140625,0.109375 -0.328125,1.078125 -1,1.3125 -1.3125,1.3125 -0.390625,0 -0.546875,-0.3125 -0.546875,-0.65625 0,-0.21875 0.046875,-0.4375 0.15625,-0.875 z m 0,0"
             id="id-c145f909-cacf-453e-b121-e36f90e3f3e6" />
        </symbol>
        <symbol
           overflow="visible"
           id="id-f15ff7c9-5580-4d26-a877-86687ab3f8a9">
          <path
             style="stroke:none;stroke-width:0"
             d=""
             id="id-154484d8-7623-4c67-b89e-0de880d0dc1e" />
        </symbol>
        <symbol
           overflow="visible"
           id="id-c339be1b-0739-496c-bbf6-8eda31a87e09">
          <path
             style="stroke:none;stroke-width:0"
             d="m 2.328125,-4.4375 c 0,-0.1875 0,-0.1875 -0.203125,-0.1875 -0.453125,0.4375 -1.078125,0.4375 -1.359375,0.4375 v 0.25 c 0.15625,0 0.625,0 1,-0.1875 v 3.546875 c 0,0.234375 0,0.328125 -0.6875,0.328125 H 0.8125 V 0 c 0.125,0 0.984375,-0.03125 1.234375,-0.03125 0.21875,0 1.09375,0.03125 1.25,0.03125 V -0.25 H 3.03125 c -0.703125,0 -0.703125,-0.09375 -0.703125,-0.328125 z m 0,0"
             id="id-63243628-4627-45fa-845e-201154248734" />
        </symbol>
        <symbol
           overflow="visible"
           id="id-0db4e7b9-e68e-479a-853d-2b9235797a29">
          <path
             style="stroke:none;stroke-width:0"
             d="M 3.515625,-1.265625 H 3.28125 c -0.015625,0.15625 -0.09375,0.5625 -0.1875,0.625 C 3.046875,-0.59375 2.515625,-0.59375 2.40625,-0.59375 H 1.125 c 0.734375,-0.640625 0.984375,-0.84375 1.390625,-1.171875 0.515625,-0.40625 1,-0.84375 1,-1.5 0,-0.84375 -0.734375,-1.359375 -1.625,-1.359375 -0.859375,0 -1.453125,0.609375 -1.453125,1.25 0,0.34375 0.296875,0.390625 0.375,0.390625 0.15625,0 0.359375,-0.125 0.359375,-0.375 0,-0.125 -0.046875,-0.375 -0.40625,-0.375 C 0.984375,-4.21875 1.453125,-4.375 1.78125,-4.375 c 0.703125,0 1.0625,0.546875 1.0625,1.109375 0,0.609375 -0.4375,1.078125 -0.65625,1.328125 L 0.515625,-0.265625 C 0.4375,-0.203125 0.4375,-0.1875 0.4375,0 h 2.875 z m 0,0"
             id="id-bbb0cda7-51f6-4093-b935-1cda6a058563" />
        </symbol>
      </g>
    </defs>
    <defs
       id="id-8332f115-b33f-4fc9-af1c-aea5d9d89d16">
      <g
         id="id-6574dd89-2a1c-4929-92fd-1959af8be98a">
        <symbol
           overflow="visible"
           id="id-9f8b8af5-02b4-4304-94b2-29dc9a248755">
          <path
             style="stroke:none;stroke-width:0"
             d=""
             id="id-5c41ea03-2a87-44a9-b2cd-18986fe4f229" />
        </symbol>
        <symbol
           overflow="visible"
           id="id-bb2f557b-eda2-4c22-aa35-bd251e912236">
          <path
             style="stroke:none;stroke-width:0"
             d="M 3.328125,-3.015625 C 3.390625,-3.265625 3.625,-4.1875 4.3125,-4.1875 c 0.046875,0 0.296875,0 0.5,0.125 C 4.53125,-4 4.34375,-3.765625 4.34375,-3.515625 c 0,0.15625 0.109375,0.34375 0.375,0.34375 0.21875,0 0.53125,-0.171875 0.53125,-0.578125 0,-0.515625 -0.578125,-0.65625 -0.921875,-0.65625 -0.578125,0 -0.921875,0.53125 -1.046875,0.75 -0.25,-0.65625 -0.78125,-0.75 -1.078125,-0.75 -1.03125,0 -1.609375,1.28125 -1.609375,1.53125 0,0.109375 0.109375,0.109375 0.125,0.109375 0.078125,0 0.109375,-0.03125 0.125,-0.109375 0.34375,-1.0625 1,-1.3125 1.34375,-1.3125 0.1875,0 0.53125,0.09375 0.53125,0.671875 0,0.3125 -0.171875,0.96875 -0.53125,2.375 -0.15625,0.609375 -0.515625,1.03125 -0.953125,1.03125 -0.0625,0 -0.28125,0 -0.5,-0.125 0.25,-0.0625 0.46875,-0.265625 0.46875,-0.546875 0,-0.265625 -0.21875,-0.34375 -0.359375,-0.34375 -0.3125,0 -0.546875,0.25 -0.546875,0.578125 0,0.453125 0.484375,0.65625 0.921875,0.65625 0.671875,0 1.03125,-0.703125 1.046875,-0.75 0.125,0.359375 0.484375,0.75 1.078125,0.75 1.03125,0 1.59375,-1.28125 1.59375,-1.53125 0,-0.109375 -0.078125,-0.109375 -0.109375,-0.109375 -0.09375,0 -0.109375,0.046875 -0.140625,0.109375 -0.328125,1.078125 -1,1.3125 -1.3125,1.3125 -0.390625,0 -0.546875,-0.3125 -0.546875,-0.65625 0,-0.21875 0.046875,-0.4375 0.15625,-0.875 z m 0,0"
             id="id-680251f2-0961-4a29-b009-5b69d36b6c3c" />
        </symbol>
        <symbol
           overflow="visible"
           id="id-72eb7801-9fe2-4b84-8bcd-eb4ce0e326fe">
          <path
             style="stroke:none;stroke-width:0"
             d="m 2.03125,-0.015625 c 0,-0.65625 -0.25,-1.046875 -0.640625,-1.046875 -0.328125,0 -0.53125,0.25 -0.53125,0.53125 C 0.859375,-0.265625 1.0625,0 1.390625,0 1.5,0 1.640625,-0.046875 1.734375,-0.125 1.765625,-0.15625 1.78125,-0.15625 1.78125,-0.15625 c 0.015625,0 0.015625,0 0.015625,0.140625 0,0.75 -0.34375,1.34375 -0.671875,1.671875 -0.109375,0.109375 -0.109375,0.125 -0.109375,0.15625 0,0.078125 0.046875,0.109375 0.09375,0.109375 0.109375,0 0.921875,-0.765625 0.921875,-1.9375 z m 0,0"
             id="id-5336fb43-f0f4-4d84-bcd2-d0c058c686ac" />
        </symbol>
        <symbol
           overflow="visible"
           id="id-d3eeb37f-92a4-47b4-9b0f-9a8cd709de60">
          <path
             style="stroke:none;stroke-width:0"
             d=""
             id="id-5c10e028-7735-4acc-81d2-f242eadb1eff" />
        </symbol>
        <symbol
           overflow="visible"
           id="id-a712c242-05d4-4647-bfbb-7a6b4801a7a3">
          <path
             style="stroke:none;stroke-width:0"
             d="m 2.328125,-4.4375 c 0,-0.1875 0,-0.1875 -0.203125,-0.1875 -0.453125,0.4375 -1.078125,0.4375 -1.359375,0.4375 v 0.25 c 0.15625,0 0.625,0 1,-0.1875 v 3.546875 c 0,0.234375 0,0.328125 -0.6875,0.328125 H 0.8125 V 0 c 0.125,0 0.984375,-0.03125 1.234375,-0.03125 0.21875,0 1.09375,0.03125 1.25,0.03125 V -0.25 H 3.03125 c -0.703125,0 -0.703125,-0.09375 -0.703125,-0.328125 z m 0,0"
             id="id-56a44884-28f4-44c0-8cb6-97381b95a91e" />
        </symbol>
        <symbol
           overflow="visible"
           id="id-7766a89d-1d80-4830-b028-d4f79a4184b7">
          <path
             style="stroke:none;stroke-width:0"
             d="M 3.515625,-1.265625 H 3.28125 c -0.015625,0.15625 -0.09375,0.5625 -0.1875,0.625 C 3.046875,-0.59375 2.515625,-0.59375 2.40625,-0.59375 H 1.125 c 0.734375,-0.640625 0.984375,-0.84375 1.390625,-1.171875 0.515625,-0.40625 1,-0.84375 1,-1.5 0,-0.84375 -0.734375,-1.359375 -1.625,-1.359375 -0.859375,0 -1.453125,0.609375 -1.453125,1.25 0,0.34375 0.296875,0.390625 0.375,0.390625 0.15625,0 0.359375,-0.125 0.359375,-0.375 0,-0.125 -0.046875,-0.375 -0.40625,-0.375 C 0.984375,-4.21875 1.453125,-4.375 1.78125,-4.375 c 0.703125,0 1.0625,0.546875 1.0625,1.109375 0,0.609375 -0.4375,1.078125 -0.65625,1.328125 L 0.515625,-0.265625 C 0.4375,-0.203125 0.4375,-0.1875 0.4375,0 h 2.875 z m 0,0"
             id="id-b3114bcd-1d61-4431-bb63-79a3670a0d94" />
        </symbol>
        <symbol
           overflow="visible"
           id="id-a9ab437f-17af-46e3-b8e7-920717626d61">
          <path
             style="stroke:none;stroke-width:0"
             d="m 1.90625,-2.328125 c 0.546875,0 0.9375,0.375 0.9375,1.125 0,0.859375 -0.515625,1.125 -0.90625,1.125 -0.28125,0 -0.90625,-0.078125 -1.1875,-0.5 0.328125,0 0.40625,-0.234375 0.40625,-0.390625 0,-0.21875 -0.171875,-0.375 -0.390625,-0.375 -0.1875,0 -0.390625,0.125 -0.390625,0.40625 0,0.65625 0.71875,1.078125 1.5625,1.078125 0.96875,0 1.640625,-0.65625 1.640625,-1.34375 0,-0.546875 -0.4375,-1.09375 -1.203125,-1.25 0.71875,-0.265625 0.984375,-0.78125 0.984375,-1.21875 0,-0.546875 -0.625,-0.953125 -1.40625,-0.953125 -0.765625,0 -1.359375,0.375 -1.359375,0.9375 0,0.234375 0.15625,0.359375 0.359375,0.359375 0.21875,0 0.359375,-0.15625 0.359375,-0.34375 0,-0.203125 -0.140625,-0.359375 -0.359375,-0.375 0.25,-0.296875 0.71875,-0.375 0.984375,-0.375 0.3125,0 0.75,0.15625 0.75,0.75 0,0.296875 -0.09375,0.625 -0.28125,0.828125 -0.21875,0.265625 -0.421875,0.28125 -0.765625,0.3125 -0.171875,0.015625 -0.1875,0.015625 -0.21875,0.015625 -0.015625,0 -0.078125,0.015625 -0.078125,0.09375 0,0.09375 0.0625,0.09375 0.1875,0.09375 z m 0,0"
             id="id-36356ef8-c6a1-4f41-8745-b8e1998f5d32" />
        </symbol>
        <symbol
           overflow="visible"
           id="id-82c49bf6-96ad-47aa-ae67-cf2add208a28">
          <path
             style="stroke:none;stroke-width:0"
             d="m 3.6875,-1.140625 v -0.25 H 2.90625 V -4.5 c 0,-0.140625 0,-0.203125 -0.140625,-0.203125 -0.09375,0 -0.125,0 -0.1875,0.109375 l -2.3125,3.203125 v 0.25 h 2.0625 v 0.5625 c 0,0.25 0,0.328125 -0.578125,0.328125 H 1.5625 V 0 C 1.921875,-0.015625 2.359375,-0.03125 2.609375,-0.03125 2.875,-0.03125 3.3125,-0.015625 3.671875,0 v -0.25 h -0.1875 C 2.90625,-0.25 2.90625,-0.328125 2.90625,-0.578125 v -0.5625 z M 2.375,-3.9375 v 2.546875 H 0.53125 Z m 0,0"
             id="id-6490cb09-7caa-4d42-a05d-cd18daf4b896" />
        </symbol>
        <symbol
           overflow="visible"
           id="id-d7330338-da6b-46c7-8f17-4040af5b87e3">
          <path
             style="stroke:none;stroke-width:0"
             d="m 1.078125,-3.890625 c 0.359375,0.09375 0.5625,0.09375 0.671875,0.09375 0.921875,0 1.46875,-0.625 1.46875,-0.734375 0,-0.078125 -0.046875,-0.09375 -0.078125,-0.09375 -0.015625,0 -0.03125,0 -0.0625,0.015625 -0.171875,0.0625 -0.53125,0.203125 -1.046875,0.203125 -0.203125,0 -0.5625,-0.015625 -1.015625,-0.1875 C 0.9375,-4.625 0.921875,-4.625 0.921875,-4.625 c -0.09375,0 -0.09375,0.078125 -0.09375,0.1875 v 2.046875 c 0,0.125 0,0.203125 0.109375,0.203125 0.0625,0 0.078125,0 0.140625,-0.09375 0.296875,-0.375 0.734375,-0.4375 0.96875,-0.4375 0.421875,0 0.609375,0.328125 0.640625,0.390625 0.125,0.234375 0.171875,0.5 0.171875,0.90625 0,0.203125 0,0.609375 -0.21875,0.921875 -0.171875,0.25 -0.46875,0.421875 -0.8125,0.421875 -0.453125,0 -0.921875,-0.25 -1.09375,-0.71875 0.265625,0.015625 0.40625,-0.15625 0.40625,-0.34375 0,-0.296875 -0.265625,-0.34375 -0.359375,-0.34375 0,0 -0.34375,0 -0.34375,0.375 0,0.625 0.578125,1.25 1.40625,1.25 0.890625,0 1.671875,-0.65625 1.671875,-1.546875 0,-0.78125 -0.59375,-1.5 -1.453125,-1.5 -0.3125,0 -0.671875,0.0625 -0.984375,0.328125 z m 0,0"
             id="id-e962342b-77b8-4dd9-b6fd-e3490e528855" />
        </symbol>
        <symbol
           overflow="visible"
           id="id-09a24ac6-ce54-429f-9a1f-f3946df328cc">
          <path
             style="stroke:none;stroke-width:0"
             d="m 1.046875,-2.28125 c 0,-0.5625 0.046875,-1.078125 0.3125,-1.515625 0.234375,-0.375 0.609375,-0.625 1.0625,-0.625 0.203125,0 0.484375,0.046875 0.625,0.234375 C 2.875,-4.171875 2.71875,-4.046875 2.71875,-3.84375 c 0,0.171875 0.125,0.328125 0.328125,0.328125 0.21875,0 0.34375,-0.140625 0.34375,-0.34375 0,-0.40625 -0.296875,-0.765625 -0.984375,-0.765625 -1,0 -2.03125,0.921875 -2.03125,2.421875 0,1.796875 0.84375,2.34375 1.625,2.34375 0.84375,0 1.578125,-0.65625 1.578125,-1.5625 0,-0.890625 -0.703125,-1.546875 -1.515625,-1.546875 -0.5625,0 -0.859375,0.375 -1.015625,0.6875 z M 2,-0.078125 c -0.359375,0 -0.625,-0.203125 -0.78125,-0.515625 C 1.125,-0.796875 1.0625,-1.15625 1.0625,-1.5625 c 0,-0.6875 0.40625,-1.203125 0.96875,-1.203125 0.3125,0 0.53125,0.125 0.703125,0.375 0.171875,0.265625 0.171875,0.5625 0.171875,0.96875 0,0.390625 0,0.6875 -0.1875,0.96875 -0.15625,0.234375 -0.390625,0.375 -0.71875,0.375 z m 0,0"
             id="id-7bdadecf-c9fd-4017-9296-fc5307bef6a0" />
        </symbol>
      </g>
    </defs>
  </defs>
  <g
     inkscape:label="Layer 1"
     inkscape:groupmode="layer"
     id="layer1"
     transform="translate(-61.075108,-152.66099)">
    <g
       id="path859" />
    <g
       id="g1317">
      <g
         id="path1062">
        <path
           style="color:#000000;fill:#2d2d2d;-inkscape-stroke:none"
           d="m 74.009766,155.99414 -8.101563,5.40234 7.96875,5.31055 -5.179687,5.17774 0.1875,0.1875 5.40625,-5.40625 -7.90625,-5.26954 7.771484,-5.18164 z"
           id="path1272" />
        <g
           id="g1230"
           style="fill:#ff4141">
          <g
             id="path1262"
             style="fill:#ff4141">
            <path
               style="color:#000000;fill:#ff4141;fill-rule:evenodd;stroke-width:0.211666pt;-inkscape-stroke:none"
               d="m 68.058279,172.71256 c -0.413092,-0.41309 -0.413092,-1.08362 -10e-7,-1.49671 0.413091,-0.41309 1.083616,-0.41309 1.496708,0 0.413091,0.41309 0.413091,1.08362 0,1.49671 -0.413091,0.41309 -1.083616,0.41309 -1.496707,0 z"
               id="path1266" />
            <path
               style="color:#000000;fill:#2d2d2d;fill-rule:evenodd;-inkscape-stroke:none"
               d="m 68.806641,170.76562 c -0.307297,10e-6 -0.614118,0.11608 -0.847657,0.34961 -0.467078,0.46708 -0.467079,1.23019 0,1.69727 0.467078,0.46708 1.228235,0.46708 1.695313,0 0.467078,-0.46708 0.467078,-1.23019 0,-1.69727 -0.23354,-0.23353 -0.540359,-0.34961 -0.847656,-0.34961 z m 0,0.28125 c 0.23451,10e-6 0.468885,0.09 0.648437,0.26954 0.359103,0.3591 0.359103,0.93777 0,1.29687 -0.359103,0.3591 -0.937772,0.3591 -1.296875,0 -0.359103,-0.3591 -0.359102,-0.93777 0,-1.29687 0.179552,-0.17955 0.413927,-0.26954 0.648438,-0.26954 z"
               id="path1268" />
          </g>
          <g
             id="path1252"
             style="fill:#ff4141">
            <path
               style="color:#000000;fill:#ff4141;fill-rule:evenodd;stroke-width:0.211666pt;-inkscape-stroke:none"
               d="m 74.185532,167.71962 c -0.581356,0.0576 -1.099902,-0.36754 -1.157467,-0.9489 -0.05757,-0.58135 0.36754,-1.0999 0.948896,-1.15747 0.581356,-0.0576 1.099901,0.36754 1.157467,0.9489 0.05756,0.58136 -0.36754,1.0999 -0.948896,1.15747 z"
               id="path1256" />
            <path
               style="color:#000000;fill:#ff4141;fill-rule:evenodd;-inkscape-stroke:none"
               d="m 73.962891,165.47266 c -0.657334,0.0651 -1.141266,0.65517 -1.076172,1.3125 0.06509,0.65733 0.655157,1.13934 1.3125,1.07421 0.657332,-0.0651 1.141254,-0.65321 1.076172,-1.31054 -0.06509,-0.65734 -0.655158,-1.1413 -1.3125,-1.07617 z m 0.02734,0.28125 c 0.505369,-0.0501 0.953864,0.31688 1.003907,0.82226 0.05004,0.50539 -0.316887,0.95386 -0.822266,1.00391 -0.505368,0.0501 -0.953864,-0.31884 -1.003906,-0.82422 -0.05005,-0.50537 0.316888,-0.95191 0.822265,-1.00195 z"
               id="path1258" />
          </g>
          <g
             id="path1242"
             style="fill:#ff4141">
            <path
               style="color:#000000;fill:#ff4141;fill-rule:evenodd;stroke-width:0.211666pt;-inkscape-stroke:none"
               d="m 66.145832,162.433 c -0.584199,0 -1.058332,-0.47414 -1.058332,-1.05834 0,-0.5842 0.474133,-1.05833 1.058332,-1.05833 0.584199,0 1.058332,0.47413 1.058332,1.05833 0,0.5842 -0.474133,1.05834 -1.058332,1.05834 z"
               id="path1246" />
            <path
               style="color:#000000;fill:#2d2d2d;fill-rule:evenodd;-inkscape-stroke:none"
               d="m 66.146484,160.17578 c -0.660547,0 -1.199218,0.53867 -1.199218,1.19922 0,0.66055 0.538669,1.19922 1.199218,1.19922 0.66055,0 1.199219,-0.53867 1.199219,-1.19922 0,-0.66055 -0.538671,-1.19922 -1.199219,-1.19922 z m 0,0.28125 c 0.50785,0 0.916016,0.41012 0.916016,0.91797 0,0.50785 -0.408168,0.91602 -0.916016,0.91602 -0.507847,0 -0.917968,-0.40817 -0.917968,-0.91602 0,-0.50785 0.410119,-0.91797 0.917968,-0.91797 z"
               id="path1248" />
          </g>
          <g
             id="path1232"
             style="fill:#ff4141">
            <path
               style="color:#000000;fill:#ff4141;fill-rule:evenodd;stroke-width:0.211666pt;-inkscape-stroke:none"
               d="m 73.220358,156.67949 c -0.324055,-0.48609 -0.192554,-1.14359 0.293529,-1.46765 0.486084,-0.32405 1.143587,-0.19255 1.467642,0.29353 0.324056,0.48609 0.192554,1.14359 -0.293529,1.46764 -0.486083,0.32406 -1.143587,0.19256 -1.467642,-0.29352 z"
               id="path1236" />
            <path
               style="color:#000000;fill:#ff4141;fill-rule:evenodd;-inkscape-stroke:none"
               d="m 74.335937,154.91797 c -0.301329,-0.0603 -0.625585,-0.007 -0.90039,0.17578 -0.549608,0.36641 -0.698436,1.11445 -0.332031,1.66406 0.366406,0.54961 1.1125,0.69845 1.662109,0.33203 0.54961,-0.3664 0.70039,-1.11249 0.333984,-1.66211 -0.183203,-0.2748 -0.462342,-0.4495 -0.763672,-0.50976 z m -0.05469,0.27344 c 0.229957,0.046 0.44118,0.1813 0.582031,0.39257 0.281706,0.42257 0.168649,0.98979 -0.253906,1.27149 -0.422556,0.28171 -0.989781,0.16865 -1.271484,-0.25391 -0.281705,-0.42256 -0.168651,-0.98977 0.253906,-1.27148 0.211278,-0.14085 0.459496,-0.18467 0.689453,-0.13867 z"
               id="path1238" />
          </g>
        </g>
      </g>
      <g
         id="path1064"
         style="fill:#ff4141">
        <path
           style="color:#000000;fill:#2d2d2d;-inkscape-stroke:none"
           d="m 74.177734,166.59375 -0.1875,0.1875 5.291016,5.29102 0.1875,-0.1875 z"
           id="path1300" />
        <g
           id="g1278"
           style="fill:#ff4141">
          <g
             id="path1290"
             style="fill:#ff4141">
            <path
               style="color:#000000;fill:#ff4141;fill-rule:evenodd;stroke-width:0.211666pt;-inkscape-stroke:none"
               d="m 80.108384,172.71256 c -0.413091,0.41309 -1.083616,0.41309 -1.496707,0 -0.413091,-0.4131 -0.413091,-1.08362 10e-7,-1.49671 0.413091,-0.41309 1.083616,-0.41309 1.496707,0 0.413091,0.41309 0.413091,1.08362 -10e-7,1.49671 z"
               id="path1294" />
            <path
               style="color:#000000;fill:#2d2d2d;fill-rule:evenodd;-inkscape-stroke:none"
               d="m 79.359375,170.76562 c -0.307297,0 -0.614117,0.11608 -0.847656,0.34961 -0.467079,0.46708 -0.467076,1.23018 0,1.69727 0.467078,0.46708 1.230187,0.46708 1.697265,0 0.46708,-0.46708 0.467079,-1.23019 0,-1.69727 -0.233539,-0.23353 -0.542312,-0.34961 -0.849609,-0.34961 z m 0,0.28125 c 0.234511,10e-6 0.468886,0.09 0.648437,0.26954 0.359103,0.3591 0.359104,0.93777 0,1.29687 -0.359103,0.3591 -0.937771,0.3591 -1.296875,0 -0.359105,-0.35911 -0.359104,-0.93777 0,-1.29687 0.179552,-0.17955 0.413927,-0.26954 0.648438,-0.26954 z"
               id="path1296" />
          </g>
          <g
             id="path1280"
             style="fill:#ff4141">
            <path
               style="color:#000000;fill:#ff4141;fill-rule:evenodd;stroke-width:0.211666pt;-inkscape-stroke:none"
               d="m 74.816718,167.42089 c -0.413091,0.41309 -1.083616,0.41309 -1.496707,0 -0.413091,-0.4131 -0.413091,-1.08362 1e-6,-1.49671 0.413091,-0.41309 1.083616,-0.41309 1.496707,0 0.413091,0.41309 0.413091,1.08362 -1e-6,1.49671 z"
               id="path1284" />
            <path
               style="color:#000000;fill:#ff4141;fill-rule:evenodd;-inkscape-stroke:none"
               d="m 74.068359,165.47461 c -0.307297,0 -0.614117,0.11607 -0.847656,0.34961 -0.467079,0.46708 -0.467076,1.23018 0,1.69726 0.467078,0.46708 1.228235,0.46708 1.695313,0 0.467079,-0.46707 0.467078,-1.23018 0,-1.69726 -0.233539,-0.23354 -0.54036,-0.34961 -0.847657,-0.34961 z m 0,0.2793 c 0.234511,0 0.468886,0.09 0.648438,0.26953 0.359102,0.3591 0.359103,0.93777 0,1.29687 -0.359103,0.3591 -0.937772,0.3591 -1.296875,0 -0.359105,-0.35911 -0.359104,-0.93777 0,-1.29687 0.179551,-0.17955 0.413927,-0.26953 0.648437,-0.26953 z"
               id="path1286" />
          </g>
        </g>
      </g>
      <g
         id="path1066"
         style="fill:#ff4141">
        <path
           style="color:#000000;fill:#2d2d2d;-inkscape-stroke:none"
           d="m 74.15625,155.99414 -0.146484,0.2207 7.771484,5.18164 -7.771484,5.18164 0.146484,0.21875 8.103516,-5.40039 z"
           id="path1338" />
        <g
           id="g1306"
           style="fill:#ff4141">
          <g
             id="path1328"
             style="fill:#ff4141">
            <path
               style="color:#000000;fill:#ff4141;fill-rule:evenodd;stroke-width:0.211666pt;-inkscape-stroke:none"
               d="m 73.220358,167.26282 c -0.324055,-0.48609 -0.192555,-1.14359 0.293528,-1.46765 0.486083,-0.32405 1.143587,-0.19255 1.467643,0.29353 0.324056,0.48608 0.192555,1.14359 -0.293528,1.46764 -0.486083,0.32406 -1.143587,0.19256 -1.467643,-0.29352 z"
               id="path1332" />
            <path
               style="color:#000000;fill:#2d2d2d;fill-rule:evenodd;-inkscape-stroke:none"
               d="m 74.335937,165.5 c -0.301329,-0.0603 -0.625585,-0.005 -0.90039,0.17773 -0.549608,0.36641 -0.698436,1.11445 -0.332031,1.66407 0.366407,0.5496 1.1125,0.69844 1.662109,0.33203 0.549611,-0.3664 0.700392,-1.11446 0.333984,-1.66406 -0.183203,-0.27481 -0.462342,-0.4495 -0.763672,-0.50977 z m -0.05469,0.27539 c 0.229957,0.046 0.441179,0.17935 0.582031,0.39063 0.281704,0.42255 0.168648,0.99174 -0.253906,1.27343 -0.422556,0.28171 -0.98978,0.1667 -1.271484,-0.25586 -0.281705,-0.42256 -0.168651,-0.98977 0.253906,-1.27148 0.211278,-0.14085 0.459496,-0.18271 0.689453,-0.13672 z"
               id="path1334" />
          </g>
          <g
             id="path1318"
             style="fill:#ff4141">
            <path
               style="color:#000000;fill:#ff4141;fill-rule:evenodd;stroke-width:0.211666pt;-inkscape-stroke:none"
               d="m 82.020831,162.433 c -0.584199,0 -1.058332,-0.47414 -1.058332,-1.05834 0,-0.5842 0.474133,-1.05833 1.058332,-1.05833 0.584199,0 1.058332,0.47413 1.058332,1.05833 0,0.5842 -0.474133,1.05834 -1.058332,1.05834 z"
               id="path1322" />
            <path
               style="color:#000000;fill:#2d2d2d;fill-rule:evenodd;-inkscape-stroke:none"
               d="m 82.021484,160.17578 c -0.660547,0 -1.199218,0.53867 -1.199218,1.19922 0,0.66055 0.538669,1.19922 1.199218,1.19922 0.66055,0 1.199219,-0.53867 1.199219,-1.19922 0,-0.66055 -0.538671,-1.19922 -1.199219,-1.19922 z m 0,0.28125 c 0.50785,0 0.916016,0.41012 0.916016,0.91797 0,0.50785 -0.408168,0.91602 -0.916016,0.91602 -0.507847,0 -0.917968,-0.40817 -0.917968,-0.91602 0,-0.50785 0.410119,-0.91797 0.917968,-0.91797 z"
               id="path1324" />
          </g>
          <g
             id="path1308"
             style="fill:#ff4141">
            <path
               style="color:#000000;fill:#ff4141;fill-rule:evenodd;stroke-width:0.211666pt;-inkscape-stroke:none"
               d="m 74.946306,156.67949 c -0.324055,0.48608 -0.981559,0.61758 -1.467642,0.29352 -0.486084,-0.32405 -0.617585,-0.98155 -0.293529,-1.46764 0.324055,-0.48608 0.981558,-0.61758 1.467642,-0.29353 0.486083,0.32406 0.617584,0.98156 0.293529,1.46765 z"
               id="path1312" />
            <path
               style="color:#000000;fill:#2d2d2d;fill-rule:evenodd;-inkscape-stroke:none"
               d="m 73.830078,154.91797 c -0.301329,0.0603 -0.578516,0.23496 -0.761719,0.50976 -0.366405,0.54962 -0.217579,1.29571 0.332032,1.66211 0.549609,0.36642 1.297656,0.21758 1.664062,-0.33203 0.366405,-0.54961 0.215624,-1.29765 -0.333984,-1.66406 -0.274805,-0.1832 -0.599062,-0.23605 -0.900391,-0.17578 z m 0.05469,0.27344 c 0.229956,-0.046 0.478174,-0.002 0.689453,0.13867 0.422557,0.28171 0.535611,0.84892 0.253906,1.27148 -0.281703,0.42256 -0.848928,0.53562 -1.271484,0.25391 -0.422556,-0.2817 -0.535612,-0.84892 -0.253907,-1.27149 0.140852,-0.21127 0.352075,-0.34658 0.582032,-0.39257 z"
               id="path1314" />
          </g>
        </g>
      </g>
      <g
         id="g3041"
         transform="translate(6.5873894,-27.640607)">
        <g
           transform="matrix(0.375579,0,0,0.375579,54.376219,189.96823)"
           id="g2712"
           style="fill:#000000;fill-opacity:1">
          <path
             style="stroke:none;stroke-width:0"
             d="M 3.328125,-3.015625 C 3.390625,-3.265625 3.625,-4.1875 4.3125,-4.1875 c 0.046875,0 0.296875,0 0.5,0.125 C 4.53125,-4 4.34375,-3.765625 4.34375,-3.515625 c 0,0.15625 0.109375,0.34375 0.375,0.34375 0.21875,0 0.53125,-0.171875 0.53125,-0.578125 0,-0.515625 -0.578125,-0.65625 -0.921875,-0.65625 -0.578125,0 -0.921875,0.53125 -1.046875,0.75 -0.25,-0.65625 -0.78125,-0.75 -1.078125,-0.75 -1.03125,0 -1.609375,1.28125 -1.609375,1.53125 0,0.109375 0.109375,0.109375 0.125,0.109375 0.078125,0 0.109375,-0.03125 0.125,-0.109375 0.34375,-1.0625 1,-1.3125 1.34375,-1.3125 0.1875,0 0.53125,0.09375 0.53125,0.671875 0,0.3125 -0.171875,0.96875 -0.53125,2.375 -0.15625,0.609375 -0.515625,1.03125 -0.953125,1.03125 -0.0625,0 -0.28125,0 -0.5,-0.125 0.25,-0.0625 0.46875,-0.265625 0.46875,-0.546875 0,-0.265625 -0.21875,-0.34375 -0.359375,-0.34375 -0.3125,0 -0.546875,0.25 -0.546875,0.578125 0,0.453125 0.484375,0.65625 0.921875,0.65625 0.671875,0 1.03125,-0.703125 1.046875,-0.75 0.125,0.359375 0.484375,0.75 1.078125,0.75 1.03125,0 1.59375,-1.28125 1.59375,-1.53125 0,-0.109375 -0.078125,-0.109375 -0.109375,-0.109375 -0.09375,0 -0.109375,0.046875 -0.140625,0.109375 -0.328125,1.078125 -1,1.3125 -1.3125,1.3125 -0.390625,0 -0.546875,-0.3125 -0.546875,-0.65625 0,-0.21875 0.046875,-0.4375 0.15625,-0.875 z m 0,0"
             id="id-ccbf9f1f-4f8a-4f30-9412-fe7384fc70ea" />
        </g>
        <g
           transform="matrix(0.375579,0,0,0.375579,56.514766,190.52935)"
           id="g2716"
           style="fill:#000000;fill-opacity:1">
          <path
             style="stroke:none;stroke-width:0"
             d="m 2.328125,-4.4375 c 0,-0.1875 0,-0.1875 -0.203125,-0.1875 -0.453125,0.4375 -1.078125,0.4375 -1.359375,0.4375 v 0.25 c 0.15625,0 0.625,0 1,-0.1875 v 3.546875 c 0,0.234375 0,0.328125 -0.6875,0.328125 H 0.8125 V 0 c 0.125,0 0.984375,-0.03125 1.234375,-0.03125 0.21875,0 1.09375,0.03125 1.25,0.03125 V -0.25 H 3.03125 c -0.703125,0 -0.703125,-0.09375 -0.703125,-0.328125 z m 0,0"
             id="id-f87d61a4-9694-4d1b-a560-de04ccbe9bd0" />
        </g>
      </g>
      <g
         id="g3047"
         transform="translate(9.6141907,-35.652347)">
        <g
           transform="matrix(0.375579,0,0,0.375579,59.857795,189.96823)"
           id="g2724"
           style="fill:#000000;fill-opacity:1">
          <path
             style="stroke:none;stroke-width:0"
             d="M 3.328125,-3.015625 C 3.390625,-3.265625 3.625,-4.1875 4.3125,-4.1875 c 0.046875,0 0.296875,0 0.5,0.125 C 4.53125,-4 4.34375,-3.765625 4.34375,-3.515625 c 0,0.15625 0.109375,0.34375 0.375,0.34375 0.21875,0 0.53125,-0.171875 0.53125,-0.578125 0,-0.515625 -0.578125,-0.65625 -0.921875,-0.65625 -0.578125,0 -0.921875,0.53125 -1.046875,0.75 -0.25,-0.65625 -0.78125,-0.75 -1.078125,-0.75 -1.03125,0 -1.609375,1.28125 -1.609375,1.53125 0,0.109375 0.109375,0.109375 0.125,0.109375 0.078125,0 0.109375,-0.03125 0.125,-0.109375 0.34375,-1.0625 1,-1.3125 1.34375,-1.3125 0.1875,0 0.53125,0.09375 0.53125,0.671875 0,0.3125 -0.171875,0.96875 -0.53125,2.375 -0.15625,0.609375 -0.515625,1.03125 -0.953125,1.03125 -0.0625,0 -0.28125,0 -0.5,-0.125 0.25,-0.0625 0.46875,-0.265625 0.46875,-0.546875 0,-0.265625 -0.21875,-0.34375 -0.359375,-0.34375 -0.3125,0 -0.546875,0.25 -0.546875,0.578125 0,0.453125 0.484375,0.65625 0.921875,0.65625 0.671875,0 1.03125,-0.703125 1.046875,-0.75 0.125,0.359375 0.484375,0.75 1.078125,0.75 1.03125,0 1.59375,-1.28125 1.59375,-1.53125 0,-0.109375 -0.078125,-0.109375 -0.109375,-0.109375 -0.09375,0 -0.109375,0.046875 -0.140625,0.109375 -0.328125,1.078125 -1,1.3125 -1.3125,1.3125 -0.390625,0 -0.546875,-0.3125 -0.546875,-0.65625 0,-0.21875 0.046875,-0.4375 0.15625,-0.875 z m 0,0"
             id="id-3c2cd144-151b-43f3-9e51-91d32ea8d75c" />
        </g>
        <g
           transform="matrix(0.375579,0,0,0.375579,61.994839,190.52935)"
           id="g2728"
           style="fill:#000000;fill-opacity:1">
          <path
             style="stroke:none;stroke-width:0"
             d="M 3.515625,-1.265625 H 3.28125 c -0.015625,0.15625 -0.09375,0.5625 -0.1875,0.625 C 3.046875,-0.59375 2.515625,-0.59375 2.40625,-0.59375 H 1.125 c 0.734375,-0.640625 0.984375,-0.84375 1.390625,-1.171875 0.515625,-0.40625 1,-0.84375 1,-1.5 0,-0.84375 -0.734375,-1.359375 -1.625,-1.359375 -0.859375,0 -1.453125,0.609375 -1.453125,1.25 0,0.34375 0.296875,0.390625 0.375,0.390625 0.15625,0 0.359375,-0.125 0.359375,-0.375 0,-0.125 -0.046875,-0.375 -0.40625,-0.375 C 0.984375,-4.21875 1.453125,-4.375 1.78125,-4.375 c 0.703125,0 1.0625,0.546875 1.0625,1.109375 0,0.609375 -0.4375,1.078125 -0.65625,1.328125 L 0.515625,-0.265625 C 0.4375,-0.203125 0.4375,-0.1875 0.4375,0 h 2.875 z m 0,0"
             id="id-1d8d8f0a-fece-4198-8407-1ac802909c26" />
        </g>
      </g>
      <g
         id="g3053"
         transform="translate(17.996524,-26.08009)">
        <g
           transform="matrix(0.375579,0,0,0.375579,65.337868,189.96823)"
           id="g2736"
           style="fill:#000000;fill-opacity:1">
          <path
             style="stroke:none;stroke-width:0"
             d="M 3.328125,-3.015625 C 3.390625,-3.265625 3.625,-4.1875 4.3125,-4.1875 c 0.046875,0 0.296875,0 0.5,0.125 C 4.53125,-4 4.34375,-3.765625 4.34375,-3.515625 c 0,0.15625 0.109375,0.34375 0.375,0.34375 0.21875,0 0.53125,-0.171875 0.53125,-0.578125 0,-0.515625 -0.578125,-0.65625 -0.921875,-0.65625 -0.578125,0 -0.921875,0.53125 -1.046875,0.75 -0.25,-0.65625 -0.78125,-0.75 -1.078125,-0.75 -1.03125,0 -1.609375,1.28125 -1.609375,1.53125 0,0.109375 0.109375,0.109375 0.125,0.109375 0.078125,0 0.109375,-0.03125 0.125,-0.109375 0.34375,-1.0625 1,-1.3125 1.34375,-1.3125 0.1875,0 0.53125,0.09375 0.53125,0.671875 0,0.3125 -0.171875,0.96875 -0.53125,2.375 -0.15625,0.609375 -0.515625,1.03125 -0.953125,1.03125 -0.0625,0 -0.28125,0 -0.5,-0.125 0.25,-0.0625 0.46875,-0.265625 0.46875,-0.546875 0,-0.265625 -0.21875,-0.34375 -0.359375,-0.34375 -0.3125,0 -0.546875,0.25 -0.546875,0.578125 0,0.453125 0.484375,0.65625 0.921875,0.65625 0.671875,0 1.03125,-0.703125 1.046875,-0.75 0.125,0.359375 0.484375,0.75 1.078125,0.75 1.03125,0 1.59375,-1.28125 1.59375,-1.53125 0,-0.109375 -0.078125,-0.109375 -0.109375,-0.109375 -0.09375,0 -0.109375,0.046875 -0.140625,0.109375 -0.328125,1.078125 -1,1.3125 -1.3125,1.3125 -0.390625,0 -0.546875,-0.3125 -0.546875,-0.65625 0,-0.21875 0.046875,-0.4375 0.15625,-0.875 z m 0,0"
             id="id-635fdf39-33ee-4c2e-818a-128733ab6103" />
        </g>
        <g
           transform="matrix(0.375579,0,0,0.375579,67.474912,190.52935)"
           id="g2740"
           style="fill:#000000;fill-opacity:1">
          <path
             style="stroke:none;stroke-width:0"
             d="m 1.90625,-2.328125 c 0.546875,0 0.9375,0.375 0.9375,1.125 0,0.859375 -0.515625,1.125 -0.90625,1.125 -0.28125,0 -0.90625,-0.078125 -1.1875,-0.5 0.328125,0 0.40625,-0.234375 0.40625,-0.390625 0,-0.21875 -0.171875,-0.375 -0.390625,-0.375 -0.1875,0 -0.390625,0.125 -0.390625,0.40625 0,0.65625 0.71875,1.078125 1.5625,1.078125 0.96875,0 1.640625,-0.65625 1.640625,-1.34375 0,-0.546875 -0.4375,-1.09375 -1.203125,-1.25 0.71875,-0.265625 0.984375,-0.78125 0.984375,-1.21875 0,-0.546875 -0.625,-0.953125 -1.40625,-0.953125 -0.765625,0 -1.359375,0.375 -1.359375,0.9375 0,0.234375 0.15625,0.359375 0.359375,0.359375 0.21875,0 0.359375,-0.15625 0.359375,-0.34375 0,-0.203125 -0.140625,-0.359375 -0.359375,-0.375 0.25,-0.296875 0.71875,-0.375 0.984375,-0.375 0.3125,0 0.75,0.15625 0.75,0.75 0,0.296875 -0.09375,0.625 -0.28125,0.828125 -0.21875,0.265625 -0.421875,0.28125 -0.765625,0.3125 -0.171875,0.015625 -0.1875,0.015625 -0.21875,0.015625 -0.015625,0 -0.078125,0.015625 -0.078125,0.09375 0,0.09375 0.0625,0.09375 0.1875,0.09375 z m 0,0"
             id="id-74b15bc0-83ff-45c1-b875-bbb3f316b284" />
        </g>
      </g>
      <g
         id="g3059"
         transform="translate(1.4579174,-25.72369)">
        <g
           transform="matrix(0.375579,0,0,0.375579,70.817941,189.96823)"
           id="g2748"
           style="fill:#000000;fill-opacity:1">
          <path
             style="stroke:none;stroke-width:0"
             d="M 3.328125,-3.015625 C 3.390625,-3.265625 3.625,-4.1875 4.3125,-4.1875 c 0.046875,0 0.296875,0 0.5,0.125 C 4.53125,-4 4.34375,-3.765625 4.34375,-3.515625 c 0,0.15625 0.109375,0.34375 0.375,0.34375 0.21875,0 0.53125,-0.171875 0.53125,-0.578125 0,-0.515625 -0.578125,-0.65625 -0.921875,-0.65625 -0.578125,0 -0.921875,0.53125 -1.046875,0.75 -0.25,-0.65625 -0.78125,-0.75 -1.078125,-0.75 -1.03125,0 -1.609375,1.28125 -1.609375,1.53125 0,0.109375 0.109375,0.109375 0.125,0.109375 0.078125,0 0.109375,-0.03125 0.125,-0.109375 0.34375,-1.0625 1,-1.3125 1.34375,-1.3125 0.1875,0 0.53125,0.09375 0.53125,0.671875 0,0.3125 -0.171875,0.96875 -0.53125,2.375 -0.15625,0.609375 -0.515625,1.03125 -0.953125,1.03125 -0.0625,0 -0.28125,0 -0.5,-0.125 0.25,-0.0625 0.46875,-0.265625 0.46875,-0.546875 0,-0.265625 -0.21875,-0.34375 -0.359375,-0.34375 -0.3125,0 -0.546875,0.25 -0.546875,0.578125 0,0.453125 0.484375,0.65625 0.921875,0.65625 0.671875,0 1.03125,-0.703125 1.046875,-0.75 0.125,0.359375 0.484375,0.75 1.078125,0.75 1.03125,0 1.59375,-1.28125 1.59375,-1.53125 0,-0.109375 -0.078125,-0.109375 -0.109375,-0.109375 -0.09375,0 -0.109375,0.046875 -0.140625,0.109375 -0.328125,1.078125 -1,1.3125 -1.3125,1.3125 -0.390625,0 -0.546875,-0.3125 -0.546875,-0.65625 0,-0.21875 0.046875,-0.4375 0.15625,-0.875 z m 0,0"
             id="id-a5a81f98-d40e-4660-86a7-2408e335609b" />
        </g>
        <g
           transform="matrix(0.375579,0,0,0.375579,72.954985,190.52935)"
           id="g2752"
           style="fill:#000000;fill-opacity:1">
          <path
             style="stroke:none;stroke-width:0"
             d="m 3.6875,-1.140625 v -0.25 H 2.90625 V -4.5 c 0,-0.140625 0,-0.203125 -0.140625,-0.203125 -0.09375,0 -0.125,0 -0.1875,0.109375 l -2.3125,3.203125 v 0.25 h 2.0625 v 0.5625 c 0,0.25 0,0.328125 -0.578125,0.328125 H 1.5625 V 0 C 1.921875,-0.015625 2.359375,-0.03125 2.609375,-0.03125 2.875,-0.03125 3.3125,-0.015625 3.671875,0 v -0.25 h -0.1875 C 2.90625,-0.25 2.90625,-0.328125 2.90625,-0.578125 v -0.5625 z M 2.375,-3.9375 v 2.546875 H 0.53125 Z m 0,0"
             id="id-83dea52d-babb-468e-9df5-4e77d32a26e7" />
        </g>
      </g>
      <g
         id="g3065"
         transform="translate(-12.487472,-15.787258)">
        <g
           transform="matrix(0.375579,0,0,0.375579,76.298014,189.96823)"
           id="g2760"
           style="fill:#000000;fill-opacity:1">
          <path
             style="stroke:none;stroke-width:0"
             d="M 3.328125,-3.015625 C 3.390625,-3.265625 3.625,-4.1875 4.3125,-4.1875 c 0.046875,0 0.296875,0 0.5,0.125 C 4.53125,-4 4.34375,-3.765625 4.34375,-3.515625 c 0,0.15625 0.109375,0.34375 0.375,0.34375 0.21875,0 0.53125,-0.171875 0.53125,-0.578125 0,-0.515625 -0.578125,-0.65625 -0.921875,-0.65625 -0.578125,0 -0.921875,0.53125 -1.046875,0.75 -0.25,-0.65625 -0.78125,-0.75 -1.078125,-0.75 -1.03125,0 -1.609375,1.28125 -1.609375,1.53125 0,0.109375 0.109375,0.109375 0.125,0.109375 0.078125,0 0.109375,-0.03125 0.125,-0.109375 0.34375,-1.0625 1,-1.3125 1.34375,-1.3125 0.1875,0 0.53125,0.09375 0.53125,0.671875 0,0.3125 -0.171875,0.96875 -0.53125,2.375 -0.15625,0.609375 -0.515625,1.03125 -0.953125,1.03125 -0.0625,0 -0.28125,0 -0.5,-0.125 0.25,-0.0625 0.46875,-0.265625 0.46875,-0.546875 0,-0.265625 -0.21875,-0.34375 -0.359375,-0.34375 -0.3125,0 -0.546875,0.25 -0.546875,0.578125 0,0.453125 0.484375,0.65625 0.921875,0.65625 0.671875,0 1.03125,-0.703125 1.046875,-0.75 0.125,0.359375 0.484375,0.75 1.078125,0.75 1.03125,0 1.59375,-1.28125 1.59375,-1.53125 0,-0.109375 -0.078125,-0.109375 -0.109375,-0.109375 -0.09375,0 -0.109375,0.046875 -0.140625,0.109375 -0.328125,1.078125 -1,1.3125 -1.3125,1.3125 -0.390625,0 -0.546875,-0.3125 -0.546875,-0.65625 0,-0.21875 0.046875,-0.4375 0.15625,-0.875 z m 0,0"
             id="id-29db6367-6ca9-4cb6-b53f-964a23e29cb9" />
        </g>
        <g
           transform="matrix(0.375579,0,0,0.375579,78.435434,190.52935)"
           id="g2764"
           style="fill:#000000;fill-opacity:1">
          <path
             style="stroke:none;stroke-width:0"
             d="m 1.078125,-3.890625 c 0.359375,0.09375 0.5625,0.09375 0.671875,0.09375 0.921875,0 1.46875,-0.625 1.46875,-0.734375 0,-0.078125 -0.046875,-0.09375 -0.078125,-0.09375 -0.015625,0 -0.03125,0 -0.0625,0.015625 -0.171875,0.0625 -0.53125,0.203125 -1.046875,0.203125 -0.203125,0 -0.5625,-0.015625 -1.015625,-0.1875 C 0.9375,-4.625 0.921875,-4.625 0.921875,-4.625 c -0.09375,0 -0.09375,0.078125 -0.09375,0.1875 v 2.046875 c 0,0.125 0,0.203125 0.109375,0.203125 0.0625,0 0.078125,0 0.140625,-0.09375 0.296875,-0.375 0.734375,-0.4375 0.96875,-0.4375 0.421875,0 0.609375,0.328125 0.640625,0.390625 0.125,0.234375 0.171875,0.5 0.171875,0.90625 0,0.203125 0,0.609375 -0.21875,0.921875 -0.171875,0.25 -0.46875,0.421875 -0.8125,0.421875 -0.453125,0 -0.921875,-0.25 -1.09375,-0.71875 0.265625,0.015625 0.40625,-0.15625 0.40625,-0.34375 0,-0.296875 -0.265625,-0.34375 -0.359375,-0.34375 0,0 -0.34375,0 -0.34375,0.375 0,0.625 0.578125,1.25 1.40625,1.25 0.890625,0 1.671875,-0.65625 1.671875,-1.546875 0,-0.78125 -0.59375,-1.5 -1.453125,-1.5 -0.3125,0 -0.671875,0.0625 -0.984375,0.328125 z m 0,0"
             id="id-3e98ccd1-3cf4-4037-906c-787fededdd24" />
        </g>
      </g>
      <g
         id="g3071"
         transform="translate(-1.7489978,-14.98788)">
        <g
           transform="matrix(0.375579,0,0,0.375579,81.778087,189.96823)"
           id="g2772"
           style="fill:#000000;fill-opacity:1">
          <path
             style="stroke:none;stroke-width:0"
             d="M 3.328125,-3.015625 C 3.390625,-3.265625 3.625,-4.1875 4.3125,-4.1875 c 0.046875,0 0.296875,0 0.5,0.125 C 4.53125,-4 4.34375,-3.765625 4.34375,-3.515625 c 0,0.15625 0.109375,0.34375 0.375,0.34375 0.21875,0 0.53125,-0.171875 0.53125,-0.578125 0,-0.515625 -0.578125,-0.65625 -0.921875,-0.65625 -0.578125,0 -0.921875,0.53125 -1.046875,0.75 -0.25,-0.65625 -0.78125,-0.75 -1.078125,-0.75 -1.03125,0 -1.609375,1.28125 -1.609375,1.53125 0,0.109375 0.109375,0.109375 0.125,0.109375 0.078125,0 0.109375,-0.03125 0.125,-0.109375 0.34375,-1.0625 1,-1.3125 1.34375,-1.3125 0.1875,0 0.53125,0.09375 0.53125,0.671875 0,0.3125 -0.171875,0.96875 -0.53125,2.375 -0.15625,0.609375 -0.515625,1.03125 -0.953125,1.03125 -0.0625,0 -0.28125,0 -0.5,-0.125 0.25,-0.0625 0.46875,-0.265625 0.46875,-0.546875 0,-0.265625 -0.21875,-0.34375 -0.359375,-0.34375 -0.3125,0 -0.546875,0.25 -0.546875,0.578125 0,0.453125 0.484375,0.65625 0.921875,0.65625 0.671875,0 1.03125,-0.703125 1.046875,-0.75 0.125,0.359375 0.484375,0.75 1.078125,0.75 1.03125,0 1.59375,-1.28125 1.59375,-1.53125 0,-0.109375 -0.078125,-0.109375 -0.109375,-0.109375 -0.09375,0 -0.109375,0.046875 -0.140625,0.109375 -0.328125,1.078125 -1,1.3125 -1.3125,1.3125 -0.390625,0 -0.546875,-0.3125 -0.546875,-0.65625 0,-0.21875 0.046875,-0.4375 0.15625,-0.875 z m 0,0"
             id="id-2d3201b2-97be-4eb2-b240-0dd5668de4ad" />
        </g>
        <g
           transform="matrix(0.375579,0,0,0.375579,83.915507,190.52935)"
           id="g2776"
           style="fill:#000000;fill-opacity:1">
          <path
             style="stroke:none;stroke-width:0"
             d="m 1.046875,-2.28125 c 0,-0.5625 0.046875,-1.078125 0.3125,-1.515625 0.234375,-0.375 0.609375,-0.625 1.0625,-0.625 0.203125,0 0.484375,0.046875 0.625,0.234375 C 2.875,-4.171875 2.71875,-4.046875 2.71875,-3.84375 c 0,0.171875 0.125,0.328125 0.328125,0.328125 0.21875,0 0.34375,-0.140625 0.34375,-0.34375 0,-0.40625 -0.296875,-0.765625 -0.984375,-0.765625 -1,0 -2.03125,0.921875 -2.03125,2.421875 0,1.796875 0.84375,2.34375 1.625,2.34375 0.84375,0 1.578125,-0.65625 1.578125,-1.5625 0,-0.890625 -0.703125,-1.546875 -1.515625,-1.546875 -0.5625,0 -0.859375,0.375 -1.015625,0.6875 z M 2,-0.078125 c -0.359375,0 -0.625,-0.203125 -0.78125,-0.515625 C 1.125,-0.796875 1.0625,-1.15625 1.0625,-1.5625 c 0,-0.6875 0.40625,-1.203125 0.96875,-1.203125 0.3125,0 0.53125,0.125 0.703125,0.375 0.171875,0.265625 0.171875,0.5625 0.171875,0.96875 0,0.390625 0,0.6875 -0.1875,0.96875 -0.15625,0.234375 -0.390625,0.375 -0.71875,0.375 z m 0,0"
             id="id-e36da45b-f7c3-47d6-90e9-b2e1e2b0b59b" />
        </g>
      </g>
    </g>
  </g>
</svg>
