<?xml version="1.0" encoding="UTF-8" standalone="no"?>
<!-- Created with Inkscape (http://www.inkscape.org/) -->

<svg
   width="16.139585mm"
   height="16.139578mm"
   viewBox="0 0 16.139585 16.139578"
   version="1.1"
   id="svg5"
   sodipodi:docname="alphabet_tile.svg"
   inkscape:version="1.1 (c4e8f9e, 2021-05-24)"
   xmlns:inkscape="http://www.inkscape.org/namespaces/inkscape"
   xmlns:sodipodi="http://sodipodi.sourceforge.net/DTD/sodipodi-0.dtd"
   xmlns="http://www.w3.org/2000/svg"
   xmlns:svg="http://www.w3.org/2000/svg">
  <sodipodi:namedview
     id="namedview7"
     pagecolor="#ffffff"
     bordercolor="#666666"
     borderopacity="1.0"
     inkscape:pageshadow="2"
     inkscape:pageopacity="0.0"
     inkscape:pagecheckerboard="0"
     inkscape:document-units="mm"
     showgrid="false"
     inkscape:zoom="3.9694521"
     inkscape:cx="39.426096"
     inkscape:cy="19.524105"
     inkscape:window-width="1312"
     inkscape:window-height="847"
     inkscape:window-x="0"
     inkscape:window-y="25"
     inkscape:window-maximized="0"
     inkscape:current-layer="layer1">
    <inkscape:grid
       type="xygrid"
       id="grid846"
       originx="-52.784371"
       originy="-92.471871" />
  </sodipodi:namedview>
  <defs
     id="defs2">
    <defs
       id="id-329138dc-4b40-445d-8581-203909093a29">
      <g
         id="id-6451995a-4f77-421f-a309-2b89e3699f96">
        <symbol
           overflow="visible"
           id="id-82a25d0e-0d78-4d73-832a-7b7f46806187">
          <path
             style="stroke:none;stroke-width:0"
             d=""
             id="id-20dda315-f254-484f-82b8-fc9c6b29eeb7" />
        </symbol>
        <symbol
           overflow="visible"
           id="id-8410ca15-c109-4d5b-a30b-81bb9f905dbe">
          <path
             style="stroke:none;stroke-width:0"
             d="M 3.71875,-3.765625 C 3.53125,-4.140625 3.25,-4.40625 2.796875,-4.40625 c -1.15625,0 -2.390625,1.46875 -2.390625,2.921875 0,0.9375 0.546875,1.59375 1.3125,1.59375 0.203125,0 0.703125,-0.046875 1.296875,-0.75 0.078125,0.421875 0.4375,0.75 0.90625,0.75 0.359375,0 0.578125,-0.234375 0.75,-0.546875 0.15625,-0.359375 0.296875,-0.96875 0.296875,-0.984375 0,-0.109375 -0.09375,-0.109375 -0.125,-0.109375 -0.09375,0 -0.109375,0.046875 -0.140625,0.1875 -0.171875,0.640625 -0.34375,1.234375 -0.75,1.234375 -0.28125,0 -0.296875,-0.265625 -0.296875,-0.453125 0,-0.21875 0.015625,-0.3125 0.125,-0.75 C 3.890625,-1.71875 3.90625,-1.828125 4,-2.203125 L 4.359375,-3.59375 c 0.0625,-0.28125 0.0625,-0.296875 0.0625,-0.34375 0,-0.171875 -0.109375,-0.265625 -0.28125,-0.265625 -0.25,0 -0.390625,0.21875 -0.421875,0.4375 z M 3.078125,-1.1875 C 3.015625,-1 3.015625,-0.984375 2.875,-0.8125 2.4375,-0.265625 2.03125,-0.109375 1.75,-0.109375 c -0.5,0 -0.640625,-0.546875 -0.640625,-0.9375 0,-0.5 0.3125,-1.71875 0.546875,-2.1875 0.3125,-0.578125 0.75,-0.953125 1.15625,-0.953125 0.640625,0 0.78125,0.8125 0.78125,0.875 0,0.0625 -0.015625,0.125 -0.03125,0.171875 z m 0,0"
             id="id-02c01d50-0e5a-4202-bde4-0bafcbc4343c" />
        </symbol>
        <symbol
           overflow="visible"
           id="id-523f2f0e-cd18-472b-b1a2-53447ca9e9b0">
          <path
             style="stroke:none;stroke-width:0"
             d="m 2.375,-6.8125 c 0,0 0,-0.109375 -0.125,-0.109375 -0.21875,0 -0.953125,0.078125 -1.21875,0.109375 -0.078125,0 -0.1875,0.015625 -0.1875,0.1875 0,0.125 0.09375,0.125 0.25,0.125 0.46875,0 0.484375,0.0625 0.484375,0.171875 0,0.0625 -0.078125,0.40625 -0.125,0.609375 l -0.828125,3.25 c -0.109375,0.5 -0.15625,0.671875 -0.15625,1.015625 0,0.9375 0.53125,1.5625 1.265625,1.5625 1.171875,0 2.40625,-1.484375 2.40625,-2.921875 0,-0.90625 -0.53125,-1.59375 -1.328125,-1.59375 -0.453125,0 -0.875,0.296875 -1.171875,0.59375 z M 1.453125,-3.046875 C 1.5,-3.265625 1.5,-3.28125 1.59375,-3.390625 2.078125,-4.03125 2.53125,-4.1875 2.796875,-4.1875 c 0.359375,0 0.625,0.296875 0.625,0.9375 0,0.59375 -0.328125,1.734375 -0.515625,2.109375 -0.328125,0.671875 -0.78125,1.03125 -1.171875,1.03125 -0.34375,0 -0.671875,-0.265625 -0.671875,-1 0,-0.203125 0,-0.390625 0.15625,-1.015625 z m 0,0"
             id="id-e7ff1eb4-992e-476a-b573-8e54aec1b2d9" />
        </symbol>
        <symbol
           overflow="visible"
           id="id-3091d54c-c0d3-440f-bbeb-e22cfd19c3f2">
          <path
             style="stroke:none;stroke-width:0"
             d="m 3.953125,-3.78125 c -0.171875,0 -0.296875,0 -0.4375,0.125 -0.171875,0.15625 -0.1875,0.328125 -0.1875,0.390625 0,0.25 0.1875,0.359375 0.375,0.359375 0.28125,0 0.546875,-0.25 0.546875,-0.640625 0,-0.484375 -0.46875,-0.859375 -1.171875,-0.859375 -1.34375,0 -2.671875,1.421875 -2.671875,2.828125 0,0.90625 0.578125,1.6875 1.625,1.6875 1.421875,0 2.25,-1.0625 2.25,-1.171875 0,-0.0625 -0.046875,-0.140625 -0.109375,-0.140625 -0.0625,0 -0.078125,0.03125 -0.140625,0.109375 -0.78125,0.984375 -1.875,0.984375 -1.984375,0.984375 -0.625,0 -0.90625,-0.484375 -0.90625,-1.09375 0,-0.40625 0.203125,-1.375 0.546875,-1.984375 0.3125,-0.578125 0.859375,-1 1.40625,-1 0.328125,0 0.71875,0.125 0.859375,0.40625 z m 0,0"
             id="id-0ab8c935-eb23-4e92-8490-eeae5817d2c4" />
        </symbol>
        <symbol
           overflow="visible"
           id="id-5fe3fe74-6c72-4fef-b7a5-788313101e0d">
          <path
             style="stroke:none;stroke-width:0"
             d="m 5.140625,-6.8125 c 0,0 0,-0.109375 -0.125,-0.109375 -0.15625,0 -1.09375,0.09375 -1.265625,0.109375 -0.078125,0.015625 -0.140625,0.0625 -0.140625,0.1875 0,0.125 0.09375,0.125 0.234375,0.125 0.484375,0 0.5,0.0625 0.5,0.171875 L 4.3125,-6.125 3.71875,-3.765625 C 3.53125,-4.140625 3.25,-4.40625 2.796875,-4.40625 c -1.15625,0 -2.390625,1.46875 -2.390625,2.921875 0,0.9375 0.546875,1.59375 1.3125,1.59375 0.203125,0 0.703125,-0.046875 1.296875,-0.75 0.078125,0.421875 0.4375,0.75 0.90625,0.75 0.359375,0 0.578125,-0.234375 0.75,-0.546875 0.15625,-0.359375 0.296875,-0.96875 0.296875,-0.984375 0,-0.109375 -0.09375,-0.109375 -0.125,-0.109375 -0.09375,0 -0.109375,0.046875 -0.140625,0.1875 -0.171875,0.640625 -0.34375,1.234375 -0.75,1.234375 -0.28125,0 -0.296875,-0.265625 -0.296875,-0.453125 0,-0.25 0.015625,-0.3125 0.046875,-0.484375 z m -2.0625,5.625 C 3.015625,-1 3.015625,-0.984375 2.875,-0.8125 2.4375,-0.265625 2.03125,-0.109375 1.75,-0.109375 c -0.5,0 -0.640625,-0.546875 -0.640625,-0.9375 0,-0.5 0.3125,-1.71875 0.546875,-2.1875 0.3125,-0.578125 0.75,-0.953125 1.15625,-0.953125 0.640625,0 0.78125,0.8125 0.78125,0.875 0,0.0625 -0.015625,0.125 -0.03125,0.171875 z m 0,0"
             id="id-c0376b2b-000b-4361-a656-a1bd527a2cf9" />
        </symbol>
        <symbol
           overflow="visible"
           id="id-fb1aa795-004f-4b82-8879-0258a1bcffd7">
          <path
             style="stroke:none;stroke-width:0"
             d="m 1.859375,-2.296875 c 0.296875,0 1.03125,-0.03125 1.53125,-0.234375 0.703125,-0.296875 0.75,-0.890625 0.75,-1.03125 0,-0.4375 -0.375,-0.84375 -1.0625,-0.84375 -1.109375,0 -2.625,0.96875 -2.625,2.71875 0,1.015625 0.59375,1.796875 1.578125,1.796875 1.421875,0 2.25,-1.0625 2.25,-1.171875 0,-0.0625 -0.046875,-0.140625 -0.109375,-0.140625 -0.0625,0 -0.078125,0.03125 -0.140625,0.109375 -0.78125,0.984375 -1.875,0.984375 -1.984375,0.984375 -0.78125,0 -0.875,-0.84375 -0.875,-1.15625 0,-0.125 0.015625,-0.421875 0.15625,-1.03125 z m -0.46875,-0.21875 C 1.78125,-4.03125 2.8125,-4.1875 3.078125,-4.1875 c 0.453125,0 0.734375,0.296875 0.734375,0.625 0,1.046875 -1.59375,1.046875 -2.015625,1.046875 z m 0,0"
             id="id-a99bac6d-f285-4a48-a5bd-fc19ac68db68" />
        </symbol>
        <symbol
           overflow="visible"
           id="id-334dd4fb-3535-4868-b600-3826dc955a15">
          <path
             style="stroke:none;stroke-width:0"
             d="m 3.65625,-3.984375 h 0.859375 c 0.203125,0 0.296875,0 0.296875,-0.203125 0,-0.109375 -0.09375,-0.109375 -0.265625,-0.109375 H 3.71875 L 3.921875,-5.4375 c 0.046875,-0.203125 0.1875,-0.90625 0.25,-1.03125 0.078125,-0.1875 0.25,-0.34375 0.46875,-0.34375 0.03125,0 0.296875,0 0.484375,0.1875 -0.4375,0.03125 -0.546875,0.390625 -0.546875,0.53125 0,0.234375 0.1875,0.359375 0.375,0.359375 C 5.21875,-5.734375 5.5,-5.96875 5.5,-6.34375 c 0,-0.453125 -0.453125,-0.6875 -0.859375,-0.6875 -0.34375,0 -0.96875,0.1875 -1.265625,1.171875 -0.0625,0.203125 -0.09375,0.3125 -0.328125,1.5625 h -0.6875 c -0.203125,0 -0.3125,0 -0.3125,0.1875 0,0.125 0.09375,0.125 0.28125,0.125 h 0.65625 L 2.25,-0.046875 c -0.1875,0.96875 -0.359375,1.875 -0.875,1.875 -0.046875,0 -0.28125,0 -0.484375,-0.1875 C 1.359375,1.609375 1.453125,1.25 1.453125,1.109375 1.453125,0.875 1.265625,0.75 1.078125,0.75 0.8125,0.75 0.53125,0.984375 0.53125,1.359375 c 0,0.4375 0.4375,0.6875 0.84375,0.6875 0.546875,0 0.953125,-0.59375 1.125,-0.96875 0.328125,-0.625 0.546875,-1.828125 0.5625,-1.90625 z m 0,0"
             id="id-bd03d49e-8068-49b5-809c-45da016da0cd" />
        </symbol>
        <symbol
           overflow="visible"
           id="id-4c6970bb-cefc-4f3f-9680-7c9eed9850eb">
          <path
             style="stroke:none;stroke-width:0"
             d="M 4.6875,-3.765625 C 4.703125,-3.8125 4.71875,-3.875 4.71875,-3.9375 c 0,-0.171875 -0.109375,-0.265625 -0.28125,-0.265625 -0.09375,0 -0.375,0.0625 -0.40625,0.421875 -0.1875,-0.359375 -0.53125,-0.625 -0.9375,-0.625 -1.125,0 -2.359375,1.390625 -2.359375,2.828125 0,0.984375 0.59375,1.578125 1.3125,1.578125 0.59375,0 1.0625,-0.46875 1.15625,-0.578125 L 3.21875,-0.5625 C 3.015625,0.3125 2.890625,0.734375 2.890625,0.75 2.84375,0.84375 2.515625,1.828125 1.453125,1.828125 1.265625,1.828125 0.9375,1.8125 0.65625,1.71875 0.953125,1.640625 1.0625,1.375 1.0625,1.203125 c 0,-0.15625 -0.109375,-0.34375 -0.375,-0.34375 -0.21875,0 -0.53125,0.171875 -0.53125,0.578125 0,0.40625 0.359375,0.609375 1.3125,0.609375 1.25,0 1.96875,-0.78125 2.125,-1.375 z M 3.40625,-1.28125 C 3.34375,-1.015625 3.109375,-0.765625 2.890625,-0.578125 2.6875,-0.40625 2.375,-0.21875 2.078125,-0.21875 c -0.5,0 -0.640625,-0.515625 -0.640625,-0.921875 0,-0.46875 0.28125,-1.65625 0.5625,-2.15625 C 2.265625,-3.78125 2.6875,-4.1875 3.109375,-4.1875 c 0.65625,0 0.796875,0.8125 0.796875,0.859375 0,0.046875 -0.015625,0.109375 -0.03125,0.140625 z m 0,0"
             id="id-89f5b038-f863-4220-a84f-4d9673b7c0f0" />
        </symbol>
        <symbol
           overflow="visible"
           id="id-d75867d6-91c5-43c8-9795-038601086315">
          <path
             style="stroke:none;stroke-width:0"
             d="m 2.859375,-6.8125 c 0,0 0,-0.109375 -0.125,-0.109375 -0.234375,0 -0.953125,0.078125 -1.21875,0.109375 -0.078125,0 -0.1875,0.015625 -0.1875,0.1875 0,0.125 0.09375,0.125 0.234375,0.125 0.484375,0 0.5,0.0625 0.5,0.171875 L 2.03125,-6.125 0.59375,-0.390625 c -0.046875,0.140625 -0.046875,0.15625 -0.046875,0.21875 0,0.234375 0.203125,0.28125 0.296875,0.28125 0.15625,0 0.3125,-0.125 0.359375,-0.265625 l 0.1875,-0.75 0.21875,-0.890625 C 1.671875,-2.03125 1.734375,-2.25 1.78125,-2.46875 1.796875,-2.53125 1.890625,-2.859375 1.890625,-2.921875 1.921875,-3.015625 2.234375,-3.5625 2.578125,-3.84375 2.796875,-4 3.09375,-4.1875 3.53125,-4.1875 c 0.421875,0 0.53125,0.34375 0.53125,0.703125 0,0.53125 -0.375,1.625 -0.609375,2.234375 C 3.375,-1.03125 3.3125,-0.90625 3.3125,-0.703125 c 0,0.46875 0.359375,0.8125 0.828125,0.8125 0.9375,0 1.296875,-1.453125 1.296875,-1.53125 0,-0.109375 -0.078125,-0.109375 -0.109375,-0.109375 -0.109375,0 -0.109375,0.03125 -0.15625,0.1875 -0.140625,0.53125 -0.46875,1.234375 -1.015625,1.234375 -0.171875,0 -0.234375,-0.09375 -0.234375,-0.328125 0,-0.25 0.078125,-0.484375 0.171875,-0.703125 0.15625,-0.4375 0.609375,-1.625 0.609375,-2.203125 0,-0.640625 -0.390625,-1.0625 -1.140625,-1.0625 -0.625,0 -1.109375,0.3125 -1.484375,0.765625 z m 0,0"
             id="id-ee132380-2bca-4cd1-bcc9-42d7e7c9c7c8" />
        </symbol>
      </g>
    </defs>
  </defs>
  <g
     inkscape:label="Layer 1"
     inkscape:groupmode="layer"
     id="layer1"
     transform="translate(-52.784373,-92.471873)">
    <g
       id="g2603">
      <rect
         style="font-variation-settings:normal;opacity:1;vector-effect:none;fill:none;fill-opacity:1;fill-rule:evenodd;stroke:#000000;stroke-width:0.264583;stroke-linecap:butt;stroke-linejoin:miter;stroke-miterlimit:4;stroke-dasharray:none;stroke-dashoffset:0;stroke-opacity:1;stop-color:#000000;stop-opacity:1"
         id="rect848"
         width="5.2916665"
         height="5.2916665"
         x="52.916664"
         y="92.604164" />
      <rect
         style="font-variation-settings:normal;opacity:1;vector-effect:none;fill:none;fill-opacity:1;fill-rule:evenodd;stroke:#000000;stroke-width:0.264583;stroke-linecap:butt;stroke-linejoin:miter;stroke-miterlimit:4;stroke-dasharray:none;stroke-dashoffset:0;stroke-opacity:1;stop-color:#000000;stop-opacity:1"
         id="rect930"
         width="5.2916665"
         height="5.2916665"
         x="58.208332"
         y="92.604164" />
      <rect
         style="font-variation-settings:normal;opacity:1;vector-effect:none;fill:none;fill-opacity:1;fill-rule:evenodd;stroke:#000000;stroke-width:0.264583;stroke-linecap:butt;stroke-linejoin:miter;stroke-miterlimit:4;stroke-dasharray:none;stroke-dashoffset:0;stroke-opacity:1;stop-color:#000000;stop-opacity:1"
         id="rect932"
         width="5.2916665"
         height="5.2916665"
         x="63.5"
         y="92.604164" />
      <rect
         style="font-variation-settings:normal;opacity:1;vector-effect:none;fill:none;fill-opacity:1;fill-rule:evenodd;stroke:#000000;stroke-width:0.264583;stroke-linecap:butt;stroke-linejoin:miter;stroke-miterlimit:4;stroke-dasharray:none;stroke-dashoffset:0;stroke-opacity:1;stop-color:#000000;stop-opacity:1"
         id="rect934"
         width="5.2916665"
         height="5.2916665"
         x="63.5"
         y="97.895828" />
      <rect
         style="font-variation-settings:normal;opacity:1;vector-effect:none;fill:none;fill-opacity:1;fill-rule:evenodd;stroke:#000000;stroke-width:0.264583;stroke-linecap:butt;stroke-linejoin:miter;stroke-miterlimit:4;stroke-dasharray:none;stroke-dashoffset:0;stroke-opacity:1;stop-color:#000000;stop-opacity:1"
         id="rect936"
         width="5.2916665"
         height="5.2916665"
         x="58.208332"
         y="97.895828" />
      <rect
         style="font-variation-settings:normal;opacity:1;vector-effect:none;fill:none;fill-opacity:1;fill-rule:evenodd;stroke:#000000;stroke-width:0.264583;stroke-linecap:butt;stroke-linejoin:miter;stroke-miterlimit:4;stroke-dasharray:none;stroke-dashoffset:0;stroke-opacity:1;stop-color:#000000;stop-opacity:1"
         id="rect938"
         width="5.2916665"
         height="5.2916665"
         x="52.916664"
         y="97.895828" />
      <rect
         style="font-variation-settings:normal;opacity:1;vector-effect:none;fill:none;fill-opacity:1;fill-rule:evenodd;stroke:#000000;stroke-width:0.264583;stroke-linecap:butt;stroke-linejoin:miter;stroke-miterlimit:4;stroke-dasharray:none;stroke-dashoffset:0;stroke-opacity:1;stop-color:#000000;stop-opacity:1"
         id="rect940"
         width="5.2916665"
         height="5.2916665"
         x="52.916664"
         y="103.18749" />
      <rect
         style="font-variation-settings:normal;opacity:1;vector-effect:none;fill:none;fill-opacity:1;fill-rule:evenodd;stroke:#000000;stroke-width:0.264583;stroke-linecap:butt;stroke-linejoin:miter;stroke-miterlimit:4;stroke-dasharray:none;stroke-dashoffset:0;stroke-opacity:1;stop-color:#000000;stop-opacity:1"
         id="rect942"
         width="5.2916665"
         height="5.2916665"
         x="58.208332"
         y="103.18749" />
      <rect
         style="font-variation-settings:normal;opacity:1;vector-effect:none;fill:none;fill-opacity:1;fill-rule:evenodd;stroke:#000000;stroke-width:0.264583;stroke-linecap:butt;stroke-linejoin:miter;stroke-miterlimit:4;stroke-dasharray:none;stroke-dashoffset:0;stroke-opacity:1;stop-color:#000000;stop-opacity:1"
         id="rect1129"
         width="5.2916665"
         height="5.2916665"
         x="63.5"
         y="103.18749" />
      <path
         style="fill:#000000;fill-opacity:1;stroke:none;stroke-width:0"
         d="m 55.926299,94.679489 c -0.06615,-0.132292 -0.165364,-0.225998 -0.325217,-0.225998 -0.4079,0 -0.84336,0.518142 -0.84336,1.030773 0,0.330729 0.192926,0.56224 0.463021,0.56224 0.07166,0 0.248047,-0.01654 0.457509,-0.264584 0.02756,0.148829 0.154341,0.264584 0.319705,0.264584 0.12678,0 0.20395,-0.08268 0.264584,-0.192926 0.05512,-0.126779 0.104731,-0.341753 0.104731,-0.347265 0,-0.03858 -0.03307,-0.03858 -0.0441,-0.03858 -0.03307,0 -0.03859,0.01653 -0.04961,0.06614 -0.06063,0.225999 -0.121267,0.435461 -0.264583,0.435461 -0.09922,0 -0.104731,-0.09371 -0.104731,-0.159853 0,-0.07717 0.0055,-0.110243 0.0441,-0.264583 0.03858,-0.143316 0.0441,-0.181901 0.07717,-0.314193 l 0.12678,-0.490582 c 0.02205,-0.09922 0.02205,-0.104731 0.02205,-0.121268 0,-0.06063 -0.03858,-0.09371 -0.09922,-0.09371 -0.08819,0 -0.137803,0.07717 -0.148828,0.15434 z m -0.225998,0.909506 c -0.02205,0.06615 -0.02205,0.07166 -0.07166,0.132292 -0.154341,0.192925 -0.297657,0.248047 -0.396875,0.248047 -0.176389,0 -0.225999,-0.192926 -0.225999,-0.33073 0,-0.176389 0.110243,-0.606337 0.192926,-0.771701 0.110243,-0.20395 0.264583,-0.336242 0.407899,-0.336242 0.225999,0 0.275608,0.286632 0.275608,0.308681 0,0.02205 -0.0055,0.0441 -0.01102,0.06063 z m 0,0"
         id="id-736562d6-ff13-40fc-ad16-54966c5d7bd5" />
      <path
         style="fill:#000000;fill-opacity:1;stroke:none;stroke-width:0"
         d="m 60.878982,94.048343 c 0,0 0,-0.03858 -0.0441,-0.03858 -0.07717,0 -0.336241,0.02756 -0.429948,0.03858 -0.02756,0 -0.06615,0.0055 -0.06615,0.06615 0,0.0441 0.03307,0.0441 0.08819,0.0441 0.165364,0 0.170877,0.02205 0.170877,0.06063 0,0.02205 -0.02756,0.143316 -0.0441,0.214974 l -0.292144,1.146529 c -0.03858,0.176389 -0.05512,0.237022 -0.05512,0.35829 0,0.330729 0.187414,0.551216 0.446485,0.551216 0.413412,0 0.848872,-0.523655 0.848872,-1.030774 0,-0.319705 -0.187413,-0.56224 -0.468533,-0.56224 -0.159853,0 -0.308681,0.104731 -0.413412,0.209462 z m -0.325218,1.32843 c 0.01653,-0.07717 0.01653,-0.08268 0.04961,-0.121267 0.170877,-0.225999 0.330729,-0.28112 0.424436,-0.28112 0.126779,0 0.220486,0.104731 0.220486,0.330729 0,0.209462 -0.115755,0.611849 -0.181901,0.744141 -0.115755,0.237023 -0.275608,0.363802 -0.413412,0.363802 -0.121267,0 -0.237023,-0.09371 -0.237023,-0.352778 0,-0.07166 0,-0.137804 0.05512,-0.35829 z m 0,0"
         id="id-61359af6-ba5d-4910-8ff8-7e7ed16f8848" />
      <path
         style="fill:#000000;fill-opacity:1;stroke:none;stroke-width:0"
         d="m 66.71359,94.673974 c -0.06063,0 -0.104731,0 -0.154341,0.0441 -0.06063,0.05512 -0.06615,0.115756 -0.06615,0.137804 0,0.08819 0.06615,0.12678 0.132292,0.12678 0.09922,0 0.192926,-0.08819 0.192926,-0.225999 0,-0.170877 -0.165365,-0.303168 -0.413412,-0.303168 -0.474046,0 -0.942579,0.501606 -0.942579,0.9977 0,0.319705 0.20395,0.595313 0.573264,0.595313 0.501607,0 0.793751,-0.374827 0.793751,-0.413412 0,-0.02205 -0.01654,-0.04961 -0.03858,-0.04961 -0.02205,0 -0.02756,0.01102 -0.04961,0.03858 -0.275607,0.347266 -0.661458,0.347266 -0.700043,0.347266 -0.220487,0 -0.319705,-0.170877 -0.319705,-0.385851 0,-0.143316 0.07166,-0.48507 0.192925,-0.700044 0.110243,-0.20395 0.303169,-0.352778 0.496094,-0.352778 0.115755,0 0.253559,0.0441 0.303169,0.143316 z m 0,0"
         id="id-4ec78321-786a-44e0-b961-e1ee91c54133" />
      <path
         style="fill:#000000;fill-opacity:1;stroke:none;stroke-width:0"
         d="m 56.39759,99.34003 c 0,0 0,-0.0386 -0.0441,-0.0386 -0.05512,0 -0.385851,0.0331 -0.446485,0.0386 -0.02756,0.006 -0.04961,0.022 -0.04961,0.0661 0,0.0441 0.03307,0.0441 0.08268,0.0441 0.170877,0 0.176389,0.0221 0.176389,0.0606 l -0.01102,0.0717 -0.209462,0.83234 c -0.06615,-0.13229 -0.165365,-0.226 -0.325217,-0.226 -0.4079,0 -0.84336,0.51814 -0.84336,1.03078 0,0.33072 0.192926,0.56224 0.463021,0.56224 0.07166,0 0.248047,-0.0165 0.457509,-0.26459 0.02756,0.14883 0.154341,0.26459 0.319705,0.26459 0.12678,0 0.20395,-0.0827 0.264584,-0.19293 0.05512,-0.12678 0.104731,-0.34175 0.104731,-0.34727 0,-0.0386 -0.03307,-0.0386 -0.0441,-0.0386 -0.03307,0 -0.03858,0.0165 -0.04961,0.0661 -0.06063,0.226 -0.121267,0.43546 -0.264583,0.43546 -0.09922,0 -0.104731,-0.0937 -0.104731,-0.15985 0,-0.0882 0.0055,-0.11024 0.01654,-0.17087 z m -0.727604,1.98438 c -0.02205,0.0661 -0.02205,0.0716 -0.07166,0.13229 -0.154341,0.19292 -0.297657,0.24804 -0.396876,0.24804 -0.176389,0 -0.225998,-0.19292 -0.225998,-0.33072 0,-0.17639 0.110243,-0.60634 0.192926,-0.77171 0.110243,-0.20395 0.264583,-0.33624 0.407899,-0.33624 0.225999,0 0.275608,0.28663 0.275608,0.30868 0,0.0221 -0.0055,0.0441 -0.01102,0.0606 z m 0,0"
         id="id-2203634f-0c97-47f6-801b-95f4ffa9f529" />
      <path
         style="fill:#000000;fill-opacity:1;stroke:none;stroke-width:0"
         d="m 60.67502,100.48931 c 0.104731,0 0.363802,-0.011 0.540191,-0.0827 0.248047,-0.10473 0.264583,-0.31419 0.264583,-0.3638 0,-0.15434 -0.132291,-0.29766 -0.374826,-0.29766 -0.391363,0 -0.926042,0.34176 -0.926042,0.95912 0,0.35829 0.209461,0.6339 0.556727,0.6339 0.501607,0 0.793751,-0.37483 0.793751,-0.41342 0,-0.0221 -0.01654,-0.0496 -0.03858,-0.0496 -0.02205,0 -0.02756,0.011 -0.04961,0.0386 -0.275607,0.34726 -0.661458,0.34726 -0.700044,0.34726 -0.275607,0 -0.30868,-0.29765 -0.30868,-0.40789 0,-0.0441 0.0055,-0.14883 0.05512,-0.36381 z m -0.165365,-0.0772 c 0.137804,-0.53468 0.501606,-0.5898 0.595313,-0.5898 0.159852,0 0.259071,0.10473 0.259071,0.22049 0,0.36931 -0.56224,0.36931 -0.711068,0.36931 z m 0,0"
         id="id-efac8cb5-0355-4374-a633-d3f8b870fc93" />
      <path
         style="fill:#000000;fill-opacity:1;stroke:none;stroke-width:0"
         d="m 66.371835,100.01536 h 0.303168 c 0.07166,0 0.104731,0 0.104731,-0.0717 0,-0.0386 -0.03307,-0.0386 -0.09371,-0.0386 H 66.39388 l 0.07166,-0.40239 c 0.01654,-0.0717 0.06615,-0.319713 0.08819,-0.363803 0.02756,-0.0661 0.08819,-0.12127 0.165364,-0.12127 0.01103,0 0.104731,0 0.170877,0.0661 -0.15434,0.011 -0.192925,0.1378 -0.192925,0.18741 0,0.0827 0.06615,0.12678 0.132292,0.12678 0.09371,0 0.192925,-0.0827 0.192925,-0.21498 0,-0.15985 -0.159853,-0.24253 -0.303169,-0.24253 -0.121267,0 -0.341753,0.0662 -0.446484,0.41341 -0.02205,0.0717 -0.03307,0.11024 -0.115756,0.551223 h -0.242528 c -0.07166,0 -0.110244,0 -0.110244,0.0661 0,0.0441 0.03307,0.0441 0.09922,0.0441 h 0.231511 l -0.259072,1.38906 c -0.06614,0.34176 -0.126779,0.66146 -0.30868,0.66146 -0.01654,0 -0.09922,0 -0.170877,-0.0661 0.165365,-0.011 0.198438,-0.13781 0.198438,-0.18742 0,-0.0827 -0.06615,-0.12678 -0.132292,-0.12678 -0.09371,0 -0.192926,0.0827 -0.192926,0.21498 0,0.15434 0.154341,0.24253 0.297657,0.24253 0.192925,0 0.336241,-0.20946 0.396875,-0.34175 0.115755,-0.22049 0.192925,-0.64492 0.198438,-0.67248 z m 0,0"
         id="id-663c4576-0501-45f7-a889-11edc501cc61" />
      <path
         style="fill:#000000;fill-opacity:1;stroke:none;stroke-width:0"
         d="m 61.647926,104.92079 c 0.0055,-0.0165 0.01102,-0.0386 0.01102,-0.0606 0,-0.0606 -0.03858,-0.0937 -0.09922,-0.0937 -0.03307,0 -0.132291,0.022 -0.143316,0.14883 -0.06615,-0.12678 -0.187413,-0.22049 -0.330729,-0.22049 -0.396875,0 -0.832336,0.49058 -0.832336,0.9977 0,0.34727 0.209462,0.55673 0.463021,0.55673 0.209462,0 0.374827,-0.16536 0.4079,-0.20395 l 0.0055,0.006 c -0.07166,0.30868 -0.115755,0.45751 -0.115755,0.46302 -0.01654,0.0331 -0.132292,0.38034 -0.507118,0.38034 -0.06615,0 -0.181902,-0.006 -0.28112,-0.0386 0.104731,-0.0276 0.143316,-0.12127 0.143316,-0.1819 0,-0.0551 -0.03858,-0.12127 -0.132292,-0.12127 -0.07717,0 -0.187413,0.0606 -0.187413,0.20395 0,0.14331 0.126779,0.21497 0.463021,0.21497 0.440972,0 0.694531,-0.27561 0.749653,-0.48507 z m -0.451997,0.87643 c -0.02205,0.0937 -0.104731,0.1819 -0.181901,0.24805 -0.07166,0.0606 -0.181901,0.12678 -0.286632,0.12678 -0.176389,0 -0.225999,-0.1819 -0.225999,-0.32522 0,-0.16536 0.09922,-0.58429 0.198438,-0.76067 0.09371,-0.17088 0.242535,-0.3142 0.391363,-0.3142 0.231511,0 0.28112,0.28663 0.28112,0.30317 0,0.0165 -0.0055,0.0386 -0.01102,0.0496 z m 0,0"
         id="id-fc01a3a8-ae18-4767-9830-7a806516cc36" />
      <path
         style="fill:#000000;fill-opacity:1;stroke:none;stroke-width:0"
         d="m 55.515654,104.63169 c 0,0 0,-0.0386 -0.0441,-0.0386 -0.08268,0 -0.336241,0.0276 -0.429948,0.0386 -0.02756,0 -0.06615,0.006 -0.06615,0.0661 0,0.0441 0.03307,0.0441 0.08268,0.0441 0.170876,0 0.176389,0.0221 0.176389,0.0606 l -0.01102,0.0717 -0.507118,2.02297 c -0.01654,0.0496 -0.01654,0.0551 -0.01654,0.0772 0,0.0827 0.07166,0.0992 0.104731,0.0992 0.05512,0 0.110244,-0.0441 0.12678,-0.0937 l 0.06615,-0.26459 0.07717,-0.31419 c 0.02205,-0.0827 0.0441,-0.15985 0.06063,-0.23702 0.0055,-0.0221 0.03858,-0.1378 0.03858,-0.15985 0.01102,-0.0331 0.121267,-0.226 0.242535,-0.32522 0.07717,-0.0551 0.181901,-0.12127 0.336241,-0.12127 0.148829,0 0.187414,0.12127 0.187414,0.24805 0,0.18741 -0.132292,0.57326 -0.214974,0.78824 -0.02756,0.0772 -0.04961,0.12126 -0.04961,0.19292 0,0.16537 0.12678,0.28664 0.292144,0.28664 0.33073,0 0.457509,-0.51264 0.457509,-0.5402 0,-0.0386 -0.02756,-0.0386 -0.03858,-0.0386 -0.03858,0 -0.03858,0.011 -0.05512,0.0661 -0.04961,0.18742 -0.165365,0.43546 -0.35829,0.43546 -0.06063,0 -0.08268,-0.0331 -0.08268,-0.11575 0,-0.0882 0.02756,-0.17088 0.06063,-0.24805 0.05512,-0.15434 0.214974,-0.57326 0.214974,-0.77721 0,-0.226 -0.137804,-0.37483 -0.402387,-0.37483 -0.220487,0 -0.391363,0.11025 -0.523655,0.2701 z m 0,0"
         id="id-42b50883-c97f-43d1-b538-91dd676c0460" />
    </g>
  </g>
</svg>
