<?xml version="1.0" encoding="UTF-8" standalone="no"?>
<!-- Created with Inkscape (http://www.inkscape.org/) -->

<svg
   width="17.397076mm"
   height="22.670748mm"
   viewBox="0 0 17.397076 22.670748"
   version="1.1"
   id="svg5"
   inkscape:version="1.1 (c4e8f9e, 2021-05-24)"
   sodipodi:docname="bipartite-graph-1.svg"
   xmlns:inkscape="http://www.inkscape.org/namespaces/inkscape"
   xmlns:sodipodi="http://sodipodi.sourceforge.net/DTD/sodipodi-0.dtd"
   xmlns="http://www.w3.org/2000/svg"
   xmlns:svg="http://www.w3.org/2000/svg">
  <sodipodi:namedview
     id="namedview7"
     pagecolor="#ffffff"
     bordercolor="#666666"
     borderopacity="1.0"
     inkscape:pageshadow="2"
     inkscape:pageopacity="0.0"
     inkscape:pagecheckerboard="0"
     inkscape:document-units="mm"
     showgrid="false"
     inkscape:zoom="2.56637"
     inkscape:cx="34.09485"
     inkscape:cy="18.118977"
     inkscape:window-width="1312"
     inkscape:window-height="847"
     inkscape:window-x="0"
     inkscape:window-y="25"
     inkscape:window-maximized="0"
     inkscape:current-layer="layer1">
    <inkscape:grid
       type="xygrid"
       id="grid824"
       originx="-70.676467"
       originy="-107.71919" />
  </sodipodi:namedview>
  <defs
     id="defs2">
    <marker
       style="overflow:visible"
       id="DotL"
       refX="0"
       refY="0"
       orient="auto"
       inkscape:stockid="DotL"
       inkscape:isstock="true">
      <path
         transform="matrix(0.8,0,0,0.8,5.92,0.8)"
         style="fill:context-stroke;fill-rule:evenodd;stroke:context-stroke;stroke-width:1pt"
         d="m -2.5,-1 c 0,2.76 -2.24,5 -5,5 -2.76,0 -5,-2.24 -5,-5 0,-2.76 2.24,-5 5,-5 2.76,0 5,2.24 5,5 z"
         id="path1436" />
    </marker>
  </defs>
  <g
     inkscape:label="Layer 1"
     inkscape:groupmode="layer"
     id="layer1"
     transform="translate(-70.676462,-107.71919)">
    <g
       id="g2523">
      <g
         id="path871">
        <path
           style="color:#000000;fill:#000000;-inkscape-stroke:none"
           d="m 71.496094,108.41992 -0.125,0.10938 15.875,21.16601 0.132812,-0.0996 -15.177734,-20.23632 15.052734,15.05273 0.117188,-0.11719 -15.867188,-15.86523 z"
           id="path1715" />
        <g
           id="g1683">
          <g
             id="path1705">
            <path
               style="color:#000000;fill:#000000;fill-rule:evenodd;stroke-width:0.132pt;-inkscape-stroke:none"
               d="m 87.70058,130.16327 c -0.291456,0.21859 -0.705408,0.15946 -0.924,-0.132 -0.218592,-0.29146 -0.159456,-0.70541 0.132,-0.924 0.291456,-0.21859 0.705408,-0.15946 0.924,0.132 0.218592,0.29146 0.159456,0.70541 -0.132,0.924 z"
               id="path1709" />
            <path
               style="color:#000000;fill:#000000;fill-rule:evenodd;-inkscape-stroke:none"
               d="m 86.855469,129.03711 c -0.329547,0.24716 -0.395597,0.71732 -0.148438,1.04687 0.24716,0.32956 0.717329,0.39755 1.046875,0.15039 0.329547,-0.24715 0.395597,-0.71927 0.148438,-1.04882 -0.24716,-0.32955 -0.717329,-0.3956 -1.046875,-0.14844 z m 0.105468,0.14062 c 0.253366,-0.19002 0.610758,-0.13813 0.800782,0.11524 0.190024,0.25337 0.140083,0.61076 -0.113282,0.80078 -0.253365,0.19002 -0.610757,0.13813 -0.800781,-0.11523 -0.190024,-0.25337 -0.140083,-0.61076 0.113281,-0.80079 z"
               id="path1711" />
          </g>
          <g
             id="path1695">
            <path
               style="color:#000000;fill:#000000;fill-rule:evenodd;stroke-width:0.132pt;-inkscape-stroke:none"
               d="m 70.948871,108.90295 c -0.238703,-0.27522 -0.20906,-0.69233 0.06617,-0.93103 0.275227,-0.2387 0.692329,-0.20906 0.931033,0.0662 0.238703,0.27523 0.20906,0.69233 -0.06617,0.93103 -0.275227,0.2387 -0.692329,0.20906 -0.931033,-0.0662 z"
               id="path1699" />
            <path
               style="color:#000000;fill:#000000;fill-rule:evenodd;-inkscape-stroke:none"
               d="m 70.957031,107.90625 c -0.311201,0.2699 -0.34412,0.7435 -0.07422,1.05469 0.269898,0.31123 0.743492,0.34411 1.054688,0.0742 0.3112,-0.2699 0.344117,-0.74349 0.07422,-1.05469 -0.269898,-0.31123 -0.743491,-0.34412 -1.054688,-0.0742 z m 0.115235,0.13281 c 0.239257,-0.2075 0.599131,-0.18265 0.80664,0.0566 0.207507,0.23926 0.182619,0.59914 -0.05664,0.80664 -0.239257,0.20751 -0.599131,0.18265 -0.806641,-0.0566 -0.207504,-0.23925 -0.182618,-0.59913 0.05664,-0.80664 z"
               id="path1701" />
          </g>
          <g
             id="path1685">
            <path
               style="color:#000000;fill:#000000;fill-rule:evenodd;stroke-width:0.132pt;-inkscape-stroke:none"
               d="m 86.855142,123.89681 c 0.257613,-0.25761 0.675768,-0.25761 0.933381,0 0.257613,0.25762 0.257613,0.67577 0,0.93338 -0.257613,0.25762 -0.675768,0.25762 -0.933381,0 -0.257613,-0.25761 -0.257613,-0.67576 0,-0.93338 z"
               id="path1689" />
            <path
               style="color:#000000;fill:#000000;fill-rule:evenodd;-inkscape-stroke:none"
               d="m 86.792969,123.83398 c -0.291279,0.29129 -0.291281,0.76732 0,1.0586 0.29128,0.29129 0.767313,0.29129 1.058593,0 0.291281,-0.29128 0.291279,-0.76731 0,-1.0586 -0.29128,-0.29127 -0.767312,-0.29127 -1.058593,0 z m 0.125,0.125 c 0.223944,-0.22394 0.584649,-0.22394 0.808593,0 0.223947,0.22396 0.223945,0.58466 0,0.8086 -0.223945,0.22395 -0.584648,0.22395 -0.808593,0 -0.223945,-0.22394 -0.223947,-0.58464 0,-0.8086 z"
               id="path1691" />
          </g>
        </g>
      </g>
      <g
         id="path873">
        <path
           style="color:#000000;fill:#000000;-inkscape-stroke:none"
           d="m 87.287109,108.40039 -16.111328,5.37109 16.111328,5.36915 0.05078,-0.15625 -15.640625,-5.2129 15.640625,-5.21484 z"
           id="path1753" />
        <g
           id="g1721">
          <g
             id="path1743">
            <path
               style="color:#000000;fill:#000000;fill-rule:evenodd;stroke-width:0.132pt;-inkscape-stroke:none"
               d="m 87.926108,119.26704 c -0.115208,0.34562 -0.489217,0.53262 -0.834841,0.41742 -0.345624,-0.11521 -0.532629,-0.48922 -0.417421,-0.83484 0.115209,-0.34563 0.489218,-0.53263 0.834842,-0.41743 0.345624,0.11521 0.532629,0.48922 0.41742,0.83485 z"
               id="path1747" />
            <path
               style="color:#000000;fill:#000000;fill-rule:evenodd;-inkscape-stroke:none"
               d="m 87.537109,118.34961 c -0.390792,-0.13026 -0.817,0.0819 -0.947265,0.47266 -0.130265,0.39079 0.08186,0.81504 0.472656,0.94531 0.390793,0.13025 0.817001,-0.0819 0.947266,-0.47266 0.130265,-0.3908 -0.08186,-0.81504 -0.472657,-0.94531 z m -0.05664,0.16602 c 0.300454,0.10015 0.46148,0.42219 0.361328,0.72265 -0.100151,0.30045 -0.422202,0.46343 -0.722656,0.36328 -0.300454,-0.10015 -0.461479,-0.42416 -0.361329,-0.72461 0.100153,-0.30046 0.422202,-0.46147 0.722657,-0.36132 z"
               id="path1749" />
          </g>
          <g
             id="path1733">
            <path
               style="color:#000000;fill:#000000;fill-rule:evenodd;stroke-width:0.132pt;-inkscape-stroke:none"
               d="m 71.437499,114.41763 c -0.36432,0 -0.66,-0.29568 -0.66,-0.66 0,-0.36432 0.29568,-0.66 0.66,-0.66 0.36432,0 0.66,0.29568 0.66,0.66 0,0.36432 -0.29568,0.66 -0.66,0.66 z"
               id="path1737" />
            <path
               style="color:#000000;fill:#000000;fill-rule:evenodd;-inkscape-stroke:none"
               d="m 71.4375,113.00977 c -0.411933,0 -0.748047,0.33611 -0.748047,0.74804 0,0.41194 0.336114,0.74805 0.748047,0.74805 0.411933,0 0.748047,-0.33611 0.748047,-0.74805 0,-0.41193 -0.336114,-0.74804 -0.748047,-0.74804 z m 0,0.17578 c 0.316706,0 0.572266,0.25556 0.572266,0.57226 0,0.31671 -0.25556,0.57227 -0.572266,0.57227 -0.316706,0 -0.572266,-0.25556 -0.572266,-0.57227 0,-0.3167 0.25556,-0.57226 0.572266,-0.57226 z"
               id="path1739" />
          </g>
          <g
             id="path1723">
            <path
               style="color:#000000;fill:#000000;fill-rule:evenodd;stroke-width:0.132pt;-inkscape-stroke:none"
               d="m 86.698891,108.68371 c -0.115208,-0.34563 0.0718,-0.71964 0.417421,-0.83485 0.345624,-0.1152 0.719633,0.0718 0.834841,0.41743 0.115208,0.34562 -0.0718,0.71963 -0.417421,0.83484 -0.345625,0.1152 -0.719633,-0.0718 -0.834841,-0.41742 z"
               id="path1727" />
            <path
               style="color:#000000;fill:#000000;fill-rule:evenodd;-inkscape-stroke:none"
               d="m 87.087891,107.76563 c -0.390791,0.13026 -0.602921,0.55451 -0.472657,0.94531 0.130265,0.39079 0.556472,0.60486 0.947266,0.47461 0.390791,-0.13027 0.602921,-0.55648 0.472656,-0.94727 -0.130264,-0.3908 -0.556473,-0.60291 -0.947265,-0.47265 z m 0.05664,0.16601 c 0.300455,-0.10014 0.622505,0.0628 0.722656,0.36328 0.100151,0.30045 -0.06088,0.62251 -0.361328,0.72266 -0.300455,0.10014 -0.622505,-0.0609 -0.722656,-0.36133 -0.100151,-0.30046 0.06088,-0.62446 0.361328,-0.72461 z"
               id="path1729" />
          </g>
        </g>
      </g>
      <g
         id="path875">
        <path
           style="color:#000000;fill:#000000;-inkscape-stroke:none"
           d="m 71.482422,113.70313 -0.08984,0.13671 15.875,10.58204 0.08984,-0.13672 z"
           id="path1781" />
        <g
           id="g1759">
          <g
             id="path1771">
            <path
               style="color:#000000;fill:#000000;fill-rule:evenodd;stroke-width:0.132pt;-inkscape-stroke:none"
               d="m 87.850669,124.71295 c -0.202088,0.30313 -0.612123,0.38514 -0.915255,0.18305 -0.303133,-0.20209 -0.38514,-0.61212 -0.183051,-0.91525 0.202088,-0.30314 0.612123,-0.38514 0.915255,-0.18306 0.303133,0.20209 0.38514,0.61213 0.183051,0.91526 z"
               id="path1775" />
            <path
               style="color:#000000;fill:#000000;fill-rule:evenodd;-inkscape-stroke:none"
               d="m 87.716797,123.72461 c -0.342748,-0.22849 -0.808611,-0.13573 -1.03711,0.20703 -0.2285,0.34275 -0.135717,0.80861 0.207032,1.03711 0.342749,0.2285 0.80861,0.13572 1.037109,-0.20703 0.228501,-0.34275 0.135719,-0.80861 -0.207031,-1.03711 z m -0.09766,0.14648 c 0.263515,0.17568 0.33388,0.52946 0.158203,0.79297 -0.175677,0.26352 -0.529455,0.33388 -0.792969,0.15821 -0.263517,-0.17568 -0.33388,-0.52946 -0.158203,-0.79297 0.175677,-0.26353 0.529453,-0.33388 0.792969,-0.15821 z"
               id="path1777" />
          </g>
          <g
             id="path1761">
            <path
               style="color:#000000;fill:#000000;fill-rule:evenodd;stroke-width:0.132pt;-inkscape-stroke:none"
               d="m 71.975669,114.12961 c -0.202088,0.30313 -0.612123,0.38514 -0.915255,0.18305 -0.303133,-0.20209 -0.38514,-0.61212 -0.183051,-0.91525 0.202088,-0.30314 0.612123,-0.38514 0.915255,-0.18306 0.303133,0.20209 0.38514,0.61213 0.183051,0.91526 z"
               id="path1765" />
            <path
               style="color:#000000;fill:#000000;fill-rule:evenodd;-inkscape-stroke:none"
               d="m 71.841797,113.14063 c -0.342748,-0.22849 -0.808611,-0.13573 -1.03711,0.20703 -0.2285,0.34274 -0.135717,0.81056 0.207032,1.03906 0.342749,0.2285 0.80861,0.13376 1.037109,-0.20899 0.228501,-0.34274 0.135719,-0.8086 -0.207031,-1.0371 z m -0.09766,0.14648 c 0.263515,0.17568 0.33388,0.52946 0.158203,0.79297 -0.175677,0.26351 -0.529455,0.33583 -0.792969,0.16015 -0.263517,-0.17567 -0.33388,-0.5314 -0.158203,-0.79492 0.175677,-0.26352 0.529453,-0.33387 0.792969,-0.1582 z"
               id="path1767" />
          </g>
        </g>
      </g>
      <g
         id="path877">
        <path
           style="color:#000000;fill:#000000;-inkscape-stroke:none"
           d="m 71.496094,113.71289 -0.117188,0.11719 15.875,15.875 0.117188,-0.11719 z"
           id="path1809" />
        <g
           id="g1787">
          <g
             id="path1799">
            <path
               style="color:#000000;fill:#000000;fill-rule:evenodd;stroke-width:0.132pt;-inkscape-stroke:none"
               d="m 87.769856,130.10319 c -0.257613,0.25761 -0.675768,0.25761 -0.933381,0 -0.257613,-0.25762 -0.257613,-0.67577 0,-0.93338 0.257613,-0.25762 0.675768,-0.25762 0.933381,0 0.257613,0.25761 0.257613,0.67576 0,0.93338 z"
               id="path1803" />
            <path
               style="color:#000000;fill:#000000;fill-rule:evenodd;-inkscape-stroke:none"
               d="m 86.773437,129.10742 c -0.29128,0.29128 -0.291278,0.76731 0,1.0586 0.291281,0.29127 0.767313,0.29127 1.058594,0 0.291279,-0.29129 0.291281,-0.76732 0,-1.0586 -0.29128,-0.29129 -0.767313,-0.29129 -1.058594,0 z m 0.125,0.125 c 0.223946,-0.22395 0.584649,-0.22395 0.808594,0 0.223945,0.22394 0.223947,0.58464 0,0.8086 -0.223944,0.22394 -0.584649,0.22394 -0.808594,0 -0.223946,-0.22396 -0.223944,-0.58466 0,-0.8086 z"
               id="path1805" />
          </g>
          <g
             id="path1789">
            <path
               style="color:#000000;fill:#f66151;fill-rule:evenodd;stroke-width:0.132pt;-inkscape-stroke:none"
               d="m 71.894856,114.22819 c -0.257613,0.25761 -0.675768,0.25761 -0.933381,0 -0.257613,-0.25762 -0.257613,-0.67577 0,-0.93338 0.257613,-0.25762 0.675768,-0.25762 0.933381,0 0.257613,0.25761 0.257613,0.67576 0,0.93338 z"
               id="path1793" />
            <path
               style="color:#000000;fill:#000000;fill-rule:evenodd;-inkscape-stroke:none"
               d="m 70.898437,113.23242 c -0.29128,0.29128 -0.291278,0.76731 0,1.0586 0.291281,0.29127 0.767313,0.29127 1.058594,0 0.291279,-0.29129 0.291281,-0.76732 0,-1.0586 -0.29128,-0.29129 -0.767313,-0.29129 -1.058594,0 z m 0.125,0.125 c 0.223946,-0.22395 0.584649,-0.22395 0.808594,0 0.223945,0.22394 0.223947,0.58464 0,0.8086 -0.223944,0.22394 -0.584649,0.22394 -0.808594,0 -0.223946,-0.22396 -0.223944,-0.58466 0,-0.8086 z"
               id="path1795" />
          </g>
        </g>
      </g>
      <g
         id="path869">
        <path
           style="color:#000000;fill:#000000;-inkscape-stroke:none"
           d="m 71.462891,108.40039 -0.07031,0.14649 15.875,10.58398 0.08984,-0.13672 -15.365235,-10.24414 15.294922,5.09961 0.05078,-0.15625 z"
           id="path1677" />
        <g
           id="g1645">
          <g
             id="path1667">
            <path
               style="color:#000000;fill:#000000;fill-rule:evenodd;stroke-width:0.132pt;-inkscape-stroke:none"
               d="m 87.85067,119.42128 c -0.202088,0.30313 -0.612123,0.38514 -0.915255,0.18305 -0.303133,-0.20209 -0.38514,-0.61212 -0.183051,-0.91525 0.202088,-0.30314 0.612122,-0.38514 0.915255,-0.18306 0.303133,0.20209 0.38514,0.61213 0.183051,0.91526 z"
               id="path1671" />
            <path
               style="color:#000000;fill:#000000;fill-rule:evenodd;-inkscape-stroke:none"
               d="m 87.716797,118.43359 c -0.342749,-0.22849 -0.808611,-0.13572 -1.03711,0.20704 -0.2285,0.34274 -0.135717,0.8086 0.207032,1.0371 0.342749,0.22851 0.80861,0.13572 1.037109,-0.20703 0.228501,-0.34274 0.135719,-0.8086 -0.207031,-1.03711 z m -0.09766,0.14649 c 0.263515,0.17568 0.33388,0.52945 0.158203,0.79297 -0.175677,0.26351 -0.529455,0.33388 -0.792969,0.1582 -0.263517,-0.17568 -0.33388,-0.52946 -0.158203,-0.79297 0.175677,-0.26352 0.529452,-0.33387 0.792969,-0.1582 z"
               id="path1673" />
          </g>
          <g
             id="path1657">
            <path
               style="color:#000000;fill:#f66151;fill-rule:evenodd;stroke-width:0.132pt;-inkscape-stroke:none"
               d="m 71.153327,109.0602 c -0.327275,-0.16006 -0.462981,-0.55559 -0.302917,-0.88286 0.160065,-0.32727 0.555586,-0.46298 0.88286,-0.30292 0.327275,0.16007 0.462981,0.55559 0.302917,0.88286 -0.160065,0.32728 -0.555586,0.46298 -0.88286,0.30292 z"
               id="path1661" />
            <path
               style="color:#000000;fill:#000000;fill-rule:evenodd;-inkscape-stroke:none"
               d="m 71.771484,107.79492 c -0.370046,-0.18098 -0.819016,-0.0263 -1,0.34375 -0.180983,0.37004 -0.0263,0.81902 0.34375,1 0.370045,0.18098 0.819017,0.0283 1,-0.34179 0.180984,-0.37005 0.0263,-0.82097 -0.34375,-1.00196 z m -0.07617,0.15821 c 0.284505,0.13915 0.400864,0.48112 0.261719,0.76562 -0.139146,0.28451 -0.481122,0.40086 -0.765625,0.26172 -0.2845,-0.13914 -0.400863,-0.47918 -0.261719,-0.76367 0.139146,-0.2845 0.481124,-0.40282 0.765625,-0.26367 z"
               id="path1663" />
          </g>
          <g
             id="path1647">
            <path
               style="color:#000000;fill:#000000;fill-rule:evenodd;stroke-width:0.132pt;-inkscape-stroke:none"
               d="m 86.698891,113.56629 c 0.115208,-0.34562 0.489216,-0.53262 0.834841,-0.41742 0.345624,0.11521 0.532629,0.48922 0.417421,0.83484 -0.115208,0.34563 -0.489217,0.53263 -0.834841,0.41743 -0.345625,-0.11521 -0.532629,-0.48922 -0.417421,-0.83485 z"
               id="path1651" />
            <path
               style="color:#000000;fill:#000000;fill-rule:evenodd;-inkscape-stroke:none"
               d="m 87.5625,113.06445 c -0.390794,-0.13025 -0.817001,0.0838 -0.947266,0.47461 -0.130264,0.3908 0.08186,0.81505 0.472657,0.94532 0.390792,0.13025 0.817001,-0.0819 0.947265,-0.47266 0.130265,-0.39079 -0.08186,-0.817 -0.472656,-0.94727 z m -0.05664,0.16797 c 0.300454,0.10015 0.461479,0.42221 0.361328,0.72266 -0.100151,0.30046 -0.422201,0.46342 -0.722656,0.36328 -0.300455,-0.10015 -0.46148,-0.42415 -0.361328,-0.72461 0.100151,-0.30045 0.422201,-0.46147 0.722656,-0.36133 z"
               id="path1653" />
          </g>
        </g>
      </g>
      <g
         id="path879">
        <path
           style="color:#000000;fill:#000000;-inkscape-stroke:none"
           d="m 87.267578,108.41016 -15.875,10.58398 0.08984,0.13672 15.875,-10.58398 z"
           id="path1837" />
        <g
           id="g1815">
          <g
             id="path1827">
            <path
               style="color:#000000;fill:#000000;fill-rule:evenodd;stroke-width:0.132pt;-inkscape-stroke:none"
               d="m 87.850669,108.12039 c 0.202089,0.30313 0.120082,0.71317 -0.183051,0.91526 -0.303133,0.20208 -0.713167,0.12008 -0.915255,-0.18306 -0.202089,-0.30313 -0.120082,-0.71316 0.183051,-0.91525 0.303132,-0.20209 0.713167,-0.12008 0.915255,0.18305 z"
               id="path1831" />
            <path
               style="color:#000000;fill:#000000;fill-rule:evenodd;-inkscape-stroke:none"
               d="m 86.886719,107.86328 c -0.342749,0.2285 -0.435532,0.69632 -0.207032,1.03906 0.228499,0.34276 0.694361,0.43552 1.03711,0.20704 0.34275,-0.22851 0.435532,-0.69437 0.207031,-1.03711 -0.228499,-0.34275 -0.69436,-0.43749 -1.037109,-0.20899 z m 0.09766,0.14649 c 0.263514,-0.17568 0.617292,-0.10336 0.792969,0.16015 0.175677,0.26351 0.105312,0.61729 -0.158203,0.79297 -0.263517,0.17567 -0.617292,0.10532 -0.792969,-0.1582 -0.175677,-0.26352 -0.105314,-0.61925 0.158203,-0.79492 z"
               id="path1833" />
          </g>
          <g
             id="path1817">
            <path
               style="color:#000000;fill:#000000;fill-rule:evenodd;stroke-width:0.132pt;-inkscape-stroke:none"
               d="m 71.975669,118.70372 c 0.202089,0.30313 0.120082,0.71317 -0.183051,0.91526 -0.303133,0.20208 -0.713167,0.12008 -0.915255,-0.18306 -0.202089,-0.30313 -0.120082,-0.71316 0.183051,-0.91525 0.303132,-0.20209 0.713167,-0.12008 0.915255,0.18305 z"
               id="path1821" />
            <path
               style="color:#000000;fill:#000000;fill-rule:evenodd;-inkscape-stroke:none"
               d="m 71.011719,118.44727 c -0.342749,0.2285 -0.435532,0.69436 -0.207032,1.03711 0.228499,0.34275 0.694361,0.43552 1.03711,0.20703 0.34275,-0.22851 0.435532,-0.69437 0.207031,-1.03711 -0.228499,-0.34275 -0.69436,-0.43554 -1.037109,-0.20703 z m 0.09766,0.14648 c 0.263514,-0.17568 0.617292,-0.10531 0.792969,0.1582 0.175677,0.26352 0.105312,0.61729 -0.158203,0.79297 -0.263517,0.17567 -0.617292,0.10532 -0.792969,-0.1582 -0.175677,-0.26351 -0.105314,-0.61729 0.158203,-0.79297 z"
               id="path1823" />
          </g>
        </g>
      </g>
      <g
         id="path881">
        <path
           style="color:#000000;fill:#000000;-inkscape-stroke:none"
           d="m 87.287109,113.69336 -16.111328,5.36914 16.111328,5.36914 0.05078,-0.15625 -15.640625,-5.21289 15.640625,-5.21289 z"
           id="path1875" />
        <g
           id="g1843">
          <g
             id="path1865">
            <path
               style="color:#000000;fill:#000000;fill-rule:evenodd;stroke-width:0.132pt;-inkscape-stroke:none"
               d="m 87.926108,124.55871 c -0.115208,0.34562 -0.489217,0.53262 -0.834841,0.41742 -0.345624,-0.11521 -0.532629,-0.48922 -0.417421,-0.83484 0.115209,-0.34563 0.489218,-0.53263 0.834842,-0.41743 0.345624,0.11521 0.532629,0.48922 0.41742,0.83485 z"
               id="path1869" />
            <path
               style="color:#000000;fill:#000000;fill-rule:evenodd;-inkscape-stroke:none"
               d="m 87.537109,123.64063 c -0.390792,-0.13026 -0.817,0.0819 -0.947265,0.47265 -0.130265,0.39079 0.08186,0.817 0.472656,0.94727 0.390793,0.13025 0.817001,-0.0838 0.947266,-0.47461 0.130265,-0.3908 -0.08186,-0.81505 -0.472657,-0.94531 z m -0.05664,0.16601 c 0.300454,0.10015 0.46148,0.42415 0.361328,0.72461 -0.100151,0.30045 -0.422202,0.46147 -0.722656,0.36133 -0.300454,-0.10015 -0.461479,-0.42221 -0.361329,-0.72266 0.100153,-0.30046 0.422202,-0.46342 0.722657,-0.36328 z"
               id="path1871" />
          </g>
          <g
             id="path1855">
            <path
               style="color:#000000;fill:#000000;fill-rule:evenodd;stroke-width:0.132pt;-inkscape-stroke:none"
               d="m 71.437499,119.7093 c -0.36432,0 -0.66,-0.29568 -0.66,-0.66 0,-0.36432 0.29568,-0.66 0.66,-0.66 0.36432,0 0.66,0.29568 0.66,0.66 0,0.36432 -0.29568,0.66 -0.66,0.66 z"
               id="path1859" />
            <path
               style="color:#000000;fill:#000000;fill-rule:evenodd;-inkscape-stroke:none"
               d="m 71.4375,118.30078 c -0.411933,0 -0.748047,0.33612 -0.748047,0.74805 0,0.41193 0.336114,0.74804 0.748047,0.74805 0.411933,-1e-5 0.748047,-0.33612 0.748047,-0.74805 0,-0.41193 -0.336114,-0.74805 -0.748047,-0.74805 z m 0,0.17578 c 0.316706,0 0.572266,0.25556 0.572266,0.57227 0,0.3167 -0.25556,0.57226 -0.572266,0.57226 -0.316706,0 -0.572266,-0.25556 -0.572266,-0.57226 0,-0.31671 0.25556,-0.57227 0.572266,-0.57227 z"
               id="path1861" />
          </g>
          <g
             id="path1845">
            <path
               style="color:#000000;fill:#000000;fill-rule:evenodd;stroke-width:0.132pt;-inkscape-stroke:none"
               d="m 86.698891,113.97537 c -0.115209,-0.34563 0.0718,-0.71964 0.41742,-0.83485 0.345624,-0.1152 0.719633,0.0718 0.834842,0.41743 0.115208,0.34562 -0.0718,0.71963 -0.417421,0.83484 -0.345624,0.1152 -0.719633,-0.0718 -0.834841,-0.41742 z"
               id="path1849" />
            <path
               style="color:#000000;fill:#000000;fill-rule:evenodd;-inkscape-stroke:none"
               d="m 87.087891,113.05664 c -0.39079,0.13027 -0.602922,0.55647 -0.472657,0.94727 0.130265,0.39079 0.556473,0.60291 0.947266,0.47265 0.390791,-0.13026 0.602921,-0.55647 0.472656,-0.94726 -0.130265,-0.3908 -0.556473,-0.60291 -0.947265,-0.47266 z m 0.05664,0.16797 c 0.300455,-0.10015 0.622504,0.0609 0.722656,0.36133 0.100151,0.30045 -0.06088,0.6225 -0.361328,0.72265 -0.300454,0.10015 -0.622505,-0.0609 -0.722656,-0.36132 -0.100152,-0.30046 0.06088,-0.62251 0.361328,-0.72266 z"
               id="path1851" />
          </g>
        </g>
      </g>
      <g
         id="path883">
        <path
           style="color:#000000;fill:#000000;-inkscape-stroke:none"
           d="m 71.482422,118.99414 -0.08984,0.13672 15.875,10.58398 0.08984,-0.13672 z"
           id="path1903" />
        <g
           id="g1881">
          <g
             id="path1893">
            <path
               style="color:#000000;fill:#000000;fill-rule:evenodd;stroke-width:0.132pt;-inkscape-stroke:none"
               d="m 87.850669,130.00461 c -0.202088,0.30313 -0.612123,0.38514 -0.915255,0.18305 -0.303133,-0.20209 -0.38514,-0.61212 -0.183051,-0.91525 0.202088,-0.30314 0.612122,-0.38514 0.915255,-0.18306 0.303133,0.20209 0.38514,0.61213 0.183051,0.91526 z"
               id="path1897" />
            <path
               style="color:#000000;fill:#000000;fill-rule:evenodd;-inkscape-stroke:none"
               d="m 87.716797,129.01562 c -0.342749,-0.22848 -0.808611,-0.13572 -1.03711,0.20704 -0.2285,0.34274 -0.135717,0.81056 0.207032,1.03906 0.342749,0.2285 0.80861,0.13376 1.037109,-0.20899 0.228501,-0.34274 0.135719,-0.8086 -0.207031,-1.03711 z m -0.09766,0.14649 c 0.263515,0.17568 0.33388,0.52946 0.158203,0.79297 -0.175677,0.26351 -0.529455,0.33583 -0.792969,0.16015 -0.263517,-0.17567 -0.33388,-0.5314 -0.158203,-0.79492 0.175677,-0.26352 0.529452,-0.33387 0.792969,-0.1582 z"
               id="path1899" />
          </g>
          <g
             id="path1883">
            <path
               style="color:#000000;fill:#f66151;fill-rule:evenodd;stroke-width:0.132pt;-inkscape-stroke:none"
               d="m 71.975669,119.42128 c -0.202088,0.30313 -0.612123,0.38514 -0.915255,0.18305 -0.303133,-0.20209 -0.38514,-0.61212 -0.183051,-0.91525 0.202088,-0.30314 0.612122,-0.38514 0.915255,-0.18306 0.303133,0.20209 0.38514,0.61213 0.183051,0.91526 z"
               id="path1887" />
            <path
               style="color:#000000;fill:#000000;fill-rule:evenodd;-inkscape-stroke:none"
               d="m 71.841797,118.43359 c -0.342749,-0.22849 -0.808611,-0.13572 -1.03711,0.20704 -0.2285,0.34274 -0.135717,0.8086 0.207032,1.0371 0.342749,0.22851 0.80861,0.13572 1.037109,-0.20703 0.228501,-0.34274 0.135719,-0.8086 -0.207031,-1.03711 z m -0.09766,0.14649 c 0.263515,0.17568 0.33388,0.52945 0.158203,0.79297 -0.175677,0.26351 -0.529455,0.33388 -0.792969,0.1582 -0.263517,-0.17568 -0.33388,-0.52946 -0.158203,-0.79297 0.175677,-0.26352 0.529452,-0.33387 0.792969,-0.1582 z"
               id="path1889" />
          </g>
        </g>
      </g>
      <g
         id="path885">
        <path
           style="color:#000000;fill:#000000;-inkscape-stroke:none"
           d="m 87.253906,108.41992 -15.875,15.875 0.117188,0.11719 15.875,-15.875 z"
           id="path1931" />
        <g
           id="g1909">
          <g
             id="path1921">
            <path
               style="color:#000000;fill:#000000;fill-rule:evenodd;stroke-width:0.132pt;-inkscape-stroke:none"
               d="m 87.769856,108.02181 c 0.257613,0.25762 0.257613,0.67577 0,0.93338 -0.257613,0.25762 -0.675768,0.25762 -0.933381,0 -0.257613,-0.25761 -0.257613,-0.67576 0,-0.93338 0.257613,-0.25761 0.675768,-0.25761 0.933381,0 z"
               id="path1925" />
            <path
               style="color:#000000;fill:#000000;fill-rule:evenodd;-inkscape-stroke:none"
               d="m 86.773437,107.95898 c -0.291278,0.29129 -0.29128,0.76732 0,1.0586 0.291281,0.29129 0.767314,0.29129 1.058594,0 0.291281,-0.29128 0.291279,-0.76731 0,-1.0586 -0.291281,-0.29127 -0.767313,-0.29127 -1.058594,0 z m 0.125,0.125 c 0.223945,-0.22394 0.58465,-0.22394 0.808594,0 0.223947,0.22396 0.223945,0.58466 0,0.8086 -0.223945,0.22395 -0.584648,0.22395 -0.808594,0 -0.223944,-0.22394 -0.223946,-0.58464 0,-0.8086 z"
               id="path1927" />
          </g>
          <g
             id="path1911">
            <path
               style="color:#000000;fill:#000000;fill-rule:evenodd;stroke-width:0.132pt;-inkscape-stroke:none"
               d="m 71.894856,123.89681 c 0.257613,0.25762 0.257613,0.67577 0,0.93338 -0.257613,0.25762 -0.675768,0.25762 -0.933381,0 -0.257613,-0.25761 -0.257613,-0.67576 0,-0.93338 0.257613,-0.25761 0.675768,-0.25761 0.933381,0 z"
               id="path1915" />
            <path
               style="color:#000000;fill:#000000;fill-rule:evenodd;-inkscape-stroke:none"
               d="m 70.898437,123.83398 c -0.291278,0.29129 -0.29128,0.76732 0,1.0586 0.291281,0.29129 0.767314,0.29129 1.058594,0 0.291281,-0.29128 0.291279,-0.76731 0,-1.0586 -0.291281,-0.29127 -0.767313,-0.29127 -1.058594,0 z m 0.125,0.125 c 0.223945,-0.22394 0.58465,-0.22394 0.808594,0 0.223947,0.22396 0.223945,0.58466 0,0.8086 -0.223945,0.22395 -0.584648,0.22395 -0.808594,0 -0.223944,-0.22394 -0.223946,-0.58464 0,-0.8086 z"
               id="path1917" />
          </g>
        </g>
      </g>
      <g
         id="path887">
        <path
           style="color:#000000;fill:#000000;-inkscape-stroke:none"
           d="m 87.267578,113.70313 -15.875,10.58203 0.07031,0.14648 15.875,-5.29101 -0.05078,-0.15625 -15.294922,5.09765 15.365235,-10.24219 z"
           id="path1969" />
        <g
           id="g1937">
          <g
             id="path1959">
            <path
               style="color:#000000;fill:#000000;fill-rule:evenodd;stroke-width:0.132pt;-inkscape-stroke:none"
               d="m 87.926108,118.85796 c 0.115209,0.34563 -0.0718,0.71964 -0.41742,0.83485 -0.345624,0.1152 -0.719633,-0.0718 -0.834842,-0.41743 -0.115208,-0.34562 0.0718,-0.71963 0.417421,-0.83484 0.345624,-0.1152 0.719633,0.0718 0.834841,0.41742 z"
               id="path1963" />
            <path
               style="color:#000000;fill:#000000;fill-rule:evenodd;-inkscape-stroke:none"
               d="m 87.0625,118.35742 c -0.390791,0.13027 -0.602921,0.55452 -0.472656,0.94531 0.130265,0.3908 0.556473,0.60292 0.947265,0.47266 0.39079,-0.13027 0.602922,-0.55451 0.472657,-0.94531 -0.130265,-0.39079 -0.556473,-0.60291 -0.947266,-0.47266 z m 0.05664,0.16602 c 0.300454,-0.10015 0.622505,0.0628 0.722656,0.36328 0.100152,0.30046 -0.06088,0.6225 -0.361328,0.72266 -0.300455,0.10014 -0.622504,-0.0609 -0.722657,-0.36133 -0.10015,-0.30045 0.06088,-0.62446 0.361329,-0.72461 z"
               id="path1965" />
          </g>
          <g
             id="path1949">
            <path
               style="color:#000000;fill:#000000;fill-rule:evenodd;stroke-width:0.132pt;-inkscape-stroke:none"
               d="m 71.721672,124.9352 c -0.327275,0.16006 -0.722796,0.0244 -0.88286,-0.30292 -0.160065,-0.32727 -0.02436,-0.72279 0.302915,-0.88286 0.327275,-0.16006 0.722796,-0.0243 0.882861,0.30292 0.160064,0.32727 0.02436,0.7228 -0.302916,0.88286 z"
               id="path1953" />
            <path
               style="color:#000000;fill:#000000;fill-rule:evenodd;-inkscape-stroke:none"
               d="m 71.103516,123.66992 c -0.370046,0.18099 -0.524735,0.63191 -0.34375,1.00196 0.18098,0.37009 0.629959,0.52277 1,0.34179 0.370049,-0.18098 0.524733,-0.62996 0.34375,-1 -0.180987,-0.36999 -0.629947,-0.52473 -1,-0.34375 z m 0.07617,0.15821 c 0.284496,-0.13914 0.626482,-0.0208 0.765625,0.26367 0.139145,0.28449 0.02278,0.62453 -0.261718,0.76367 -0.284509,0.13914 -0.626478,0.0228 -0.765625,-0.26172 -0.139146,-0.2845 -0.02279,-0.62647 0.261718,-0.76562 z"
               id="path1955" />
          </g>
          <g
             id="path1939">
            <path
               style="color:#000000;fill:#000000;fill-rule:evenodd;stroke-width:0.132pt;-inkscape-stroke:none"
               d="m 86.774329,114.12961 c -0.202089,-0.30313 -0.120082,-0.71317 0.183051,-0.91526 0.303132,-0.20208 0.713167,-0.12008 0.915255,0.18306 0.202089,0.30313 0.120082,0.71316 -0.183051,0.91525 -0.303132,0.20209 -0.713167,0.12008 -0.915255,-0.18305 z"
               id="path1943" />
            <path
               style="color:#000000;fill:#000000;fill-rule:evenodd;-inkscape-stroke:none"
               d="m 86.908203,113.14063 c -0.34275,0.2285 -0.435532,0.69436 -0.207031,1.0371 0.228499,0.34275 0.69436,0.43749 1.037109,0.20899 0.342749,-0.2285 0.435532,-0.69632 0.207031,-1.03906 -0.228498,-0.34276 -0.694361,-0.43552 -1.037109,-0.20703 z m 0.09766,0.14648 c 0.263516,-0.17567 0.617292,-0.10532 0.792969,0.1582 0.175677,0.26352 0.105314,0.61925 -0.158203,0.79492 -0.263514,0.17568 -0.617292,0.10336 -0.792969,-0.16015 -0.175677,-0.26351 -0.105312,-0.61729 0.158203,-0.79297 z"
               id="path1945" />
          </g>
        </g>
      </g>
      <g
         id="path889">
        <path
           style="color:#000000;fill:#000000;-inkscape-stroke:none"
           d="m 71.462891,124.27539 -0.05078,0.15625 15.875,5.29297 0.05078,-0.15625 z"
           id="path1997" />
        <g
           id="g1975">
          <g
             id="path1987">
            <path
               style="color:#000000;fill:#f5c211;fill-rule:evenodd;stroke-width:0.132pt;-inkscape-stroke:none"
               d="m 87.926107,129.85037 c -0.115208,0.34562 -0.489216,0.53262 -0.834841,0.41742 -0.345624,-0.11521 -0.532629,-0.48922 -0.417421,-0.83484 0.115208,-0.34563 0.489217,-0.53263 0.834841,-0.41743 0.345625,0.11521 0.532629,0.48922 0.417421,0.83485 z"
               id="path1991" />
            <path
               style="color:#000000;fill:#000000;fill-rule:evenodd;-inkscape-stroke:none"
               d="m 87.537109,128.93164 c -0.390792,-0.13025 -0.817001,0.0819 -0.947265,0.47266 -0.130265,0.39079 0.08186,0.817 0.472656,0.94726 0.390794,0.13026 0.817001,-0.0819 0.947266,-0.47265 0.130264,-0.3908 -0.08186,-0.817 -0.472657,-0.94727 z m -0.05664,0.16797 c 0.300455,0.10015 0.46148,0.4222 0.361328,0.72266 -0.100151,0.30044 -0.422201,0.46147 -0.722656,0.36132 -0.300454,-0.10015 -0.461479,-0.4222 -0.361329,-0.72265 0.100152,-0.30046 0.422202,-0.46148 0.722657,-0.36133 z"
               id="path1993" />
          </g>
          <g
             id="path1977">
            <path
               style="color:#000000;fill:#f66151;fill-rule:evenodd;stroke-width:0.132pt;-inkscape-stroke:none"
               d="m 72.051107,124.55871 c -0.115208,0.34562 -0.489216,0.53262 -0.834841,0.41742 -0.345624,-0.11521 -0.532629,-0.48922 -0.417421,-0.83484 0.115208,-0.34563 0.489217,-0.53263 0.834841,-0.41743 0.345625,0.11521 0.532629,0.48922 0.417421,0.83485 z"
               id="path1981" />
            <path
               style="color:#000000;fill:#000000;fill-rule:evenodd;-inkscape-stroke:none"
               d="m 71.662109,123.64063 c -0.390792,-0.13026 -0.817001,0.0819 -0.947265,0.47265 -0.130265,0.39079 0.08186,0.817 0.472656,0.94727 0.390794,0.13025 0.817001,-0.0838 0.947266,-0.47461 0.130264,-0.3908 -0.08186,-0.81505 -0.472657,-0.94531 z m -0.05664,0.16601 c 0.300455,0.10015 0.46148,0.42415 0.361328,0.72461 -0.100151,0.30045 -0.422201,0.46147 -0.722656,0.36133 -0.300454,-0.10015 -0.461479,-0.42221 -0.361329,-0.72266 0.100152,-0.30046 0.422202,-0.46342 0.722657,-0.36328 z"
               id="path1983" />
          </g>
        </g>
      </g>
      <g
         id="path891">
        <path
           style="color:#000000;fill:#000000;-inkscape-stroke:none"
           d="m 87.246094,108.42969 -15.875,21.16601 0.125,0.10938 0.0078,-0.01 15.867188,-15.86523 -0.117188,-0.11719 -15.052734,15.05273 15.177734,-20.23632 z"
           id="path2035" />
        <g
           id="g2003">
          <g
             id="path2025">
            <path
               style="color:#000000;fill:#f5c211;fill-rule:evenodd;stroke-width:0.132pt;-inkscape-stroke:none"
               d="m 87.769857,113.31347 c 0.257613,0.25762 0.257613,0.67577 0,0.93338 -0.257613,0.25762 -0.675768,0.25762 -0.933381,0 -0.257613,-0.25761 -0.257613,-0.67576 0,-0.93338 0.257613,-0.25761 0.675768,-0.25761 0.933381,0 z"
               id="path2029" />
            <path
               style="color:#000000;fill:#000000;fill-rule:evenodd;-inkscape-stroke:none"
               d="m 86.773437,113.25195 c -0.291278,0.29129 -0.29128,0.76537 0,1.05664 0.291281,0.29129 0.767314,0.29129 1.058594,0 0.291281,-0.29127 0.291279,-0.76535 0,-1.05664 -0.291281,-0.29127 -0.767313,-0.29127 -1.058594,0 z m 0.125,0.12305 c 0.223945,-0.22394 0.58465,-0.22394 0.808594,0 0.223947,0.22395 0.223945,0.5866 0,0.81055 -0.223945,0.22395 -0.584648,0.22395 -0.808594,0 -0.223944,-0.22395 -0.223946,-0.5866 0,-0.81055 z"
               id="path2031" />
          </g>
          <g
             id="path2015">
            <path
               style="color:#000000;fill:#000000;fill-rule:evenodd;stroke-width:0.132pt;-inkscape-stroke:none"
               d="m 71.926127,130.06961 c -0.238704,0.27523 -0.655806,0.30487 -0.931033,0.0662 -0.275227,-0.2387 -0.30487,-0.6558 -0.06617,-0.93103 0.238704,-0.27523 0.655806,-0.30487 0.931033,-0.0662 0.275227,0.2387 0.30487,0.65581 0.06617,0.93103 z"
               id="path2019" />
            <path
               style="color:#000000;fill:#000000;fill-rule:evenodd;-inkscape-stroke:none"
               d="m 71.917969,129.07227 c -0.311198,-0.26987 -0.784788,-0.23699 -1.054688,0.0742 -0.269895,0.3112 -0.236978,0.78675 0.07422,1.05664 0.311198,0.26987 0.784787,0.23503 1.054687,-0.0762 0.269898,-0.31119 0.23698,-0.78479 -0.07422,-1.05468 z m -0.115235,0.13281 c 0.239256,0.2075 0.264143,0.56739 0.05664,0.80664 -0.207507,0.23926 -0.567385,0.26412 -0.806641,0.0566 -0.239256,-0.2075 -0.264145,-0.56738 -0.05664,-0.80664 0.207507,-0.23926 0.567385,-0.26412 0.806641,-0.0566 z"
               id="path2021" />
          </g>
          <g
             id="path2005">
            <path
               style="color:#000000;fill:#f5c211;fill-rule:evenodd;stroke-width:0.132pt;-inkscape-stroke:none"
               d="m 86.924419,108.99661 c -0.291456,-0.21859 -0.350592,-0.63254 -0.132,-0.924 0.218592,-0.29146 0.632544,-0.35059 0.924,-0.132 0.291456,0.21859 0.350592,0.63254 0.132,0.924 -0.218592,0.29146 -0.632544,0.35059 -0.924,0.132 z"
               id="path2009" />
            <path
               style="color:#000000;fill:#000000;fill-rule:evenodd;-inkscape-stroke:none"
               d="m 87.769531,107.87109 c -0.329546,-0.24715 -0.799715,-0.18111 -1.046875,0.14844 -0.247159,0.32955 -0.181109,0.79972 0.148438,1.04688 0.329546,0.24715 0.799715,0.18111 1.046875,-0.14844 0.247159,-0.32955 0.181109,-0.79972 -0.148438,-1.04688 z m -0.105469,0.14063 c 0.253365,0.19002 0.303306,0.54741 0.113282,0.80078 -0.190024,0.25337 -0.547416,0.3033 -0.800782,0.11328 -0.253364,-0.19002 -0.303305,-0.54741 -0.113281,-0.80078 0.190024,-0.25337 0.547416,-0.3033 0.800781,-0.11328 z"
               id="path2011" />
          </g>
        </g>
      </g>
      <g
         id="path893">
        <path
           style="color:#000000;fill:#000000;-inkscape-stroke:none"
           d="m 87.267578,118.99414 -15.875,10.58398 0.07031,0.14649 15.875,-5.29297 -0.05078,-0.15625 -15.294922,5.09961 15.365235,-10.24414 z"
           id="path2073" />
        <g
           id="g2041">
          <g
             id="path2063">
            <path
               style="color:#000000;fill:#f5c211;fill-rule:evenodd;stroke-width:0.132pt;-inkscape-stroke:none"
               d="m 87.926108,124.14963 c 0.115208,0.34563 -0.0718,0.71964 -0.417421,0.83485 -0.345624,0.1152 -0.719633,-0.0718 -0.834841,-0.41743 -0.115208,-0.34562 0.0718,-0.71963 0.417421,-0.83484 0.345625,-0.1152 0.719633,0.0718 0.834841,0.41742 z"
               id="path2067" />
            <path
               style="color:#000000;fill:#000000;fill-rule:evenodd;-inkscape-stroke:none"
               d="m 87.0625,123.64844 c -0.390791,0.13026 -0.602921,0.55647 -0.472656,0.94726 0.130264,0.3908 0.556473,0.60291 0.947265,0.47266 0.390791,-0.13027 0.602921,-0.55647 0.472657,-0.94727 -0.130265,-0.39079 -0.556472,-0.60291 -0.947266,-0.47265 z m 0.05664,0.16797 c 0.300455,-0.10015 0.622505,0.0609 0.722656,0.36132 0.100151,0.30046 -0.06088,0.62251 -0.361328,0.72266 -0.300455,0.10015 -0.622505,-0.0609 -0.722657,-0.36133 -0.10015,-0.30045 0.06088,-0.6225 0.361329,-0.72265 z"
               id="path2069" />
          </g>
          <g
             id="path2053">
            <path
               style="color:#000000;fill:#f66151;fill-rule:evenodd;stroke-width:0.132pt;-inkscape-stroke:none"
               d="m 71.721671,130.22686 c -0.327274,0.16006 -0.722795,0.0244 -0.88286,-0.30292 -0.160064,-0.32727 -0.02436,-0.72279 0.302917,-0.88286 0.327274,-0.16006 0.722795,-0.0243 0.88286,0.30292 0.160064,0.32727 0.02436,0.7228 -0.302917,0.88286 z"
               id="path2057" />
            <path
               style="color:#000000;fill:#000000;fill-rule:evenodd;-inkscape-stroke:none"
               d="m 71.103516,128.96289 c -0.370048,0.18099 -0.524734,0.62996 -0.34375,1 0.180981,0.37009 0.62996,0.52473 1,0.34375 0.37005,-0.18098 0.524733,-0.63191 0.34375,-1.00195 -0.180987,-0.36999 -0.629948,-0.52278 -1,-0.3418 z m 0.07617,0.1582 c 0.284495,-0.13913 0.626482,-0.0227 0.765625,0.26172 0.139145,0.2845 0.02278,0.62649 -0.261718,0.76563 -0.284508,0.13914 -0.626477,0.0209 -0.765625,-0.26367 -0.139145,-0.2845 -0.02279,-0.62453 0.261718,-0.76368 z"
               id="path2059" />
          </g>
          <g
             id="path2043">
            <path
               style="color:#000000;fill:#f5c211;fill-rule:evenodd;stroke-width:0.132pt;-inkscape-stroke:none"
               d="m 86.774329,119.42128 c -0.202089,-0.30313 -0.120082,-0.71317 0.183051,-0.91526 0.303133,-0.20208 0.713167,-0.12008 0.915255,0.18306 0.202089,0.30313 0.120082,0.71316 -0.183051,0.91525 -0.303132,0.20209 -0.713167,0.12008 -0.915255,-0.18305 z"
               id="path2047" />
            <path
               style="color:#000000;fill:#000000;fill-rule:evenodd;-inkscape-stroke:none"
               d="m 86.908203,118.43359 c -0.34275,0.22851 -0.435532,0.69437 -0.207031,1.03711 0.228499,0.34275 0.69436,0.43554 1.037109,0.20703 0.342749,-0.2285 0.435532,-0.69436 0.207031,-1.0371 -0.228498,-0.34276 -0.69436,-0.43553 -1.037109,-0.20704 z m 0.09766,0.14649 c 0.263517,-0.17567 0.617292,-0.10532 0.792969,0.1582 0.175677,0.26351 0.105314,0.61729 -0.158203,0.79297 -0.263514,0.17568 -0.617292,0.10531 -0.792969,-0.1582 -0.175677,-0.26352 -0.105312,-0.61729 0.158203,-0.79297 z"
               id="path2049" />
          </g>
        </g>
      </g>
    </g>
  </g>
</svg>
