<?xml version="1.0" encoding="UTF-8" standalone="no"?>
<!-- Created with Inkscape (http://www.inkscape.org/) -->

<svg
   width="26.405981mm"
   height="24.110952mm"
   viewBox="0 0 26.405982 24.110952"
   version="1.1"
   id="svg5"
   inkscape:version="1.1 (c4e8f9e, 2021-05-24)"
   sodipodi:docname="bipartite-graph-3.svg"
   xmlns:inkscape="http://www.inkscape.org/namespaces/inkscape"
   xmlns:sodipodi="http://sodipodi.sourceforge.net/DTD/sodipodi-0.dtd"
   xmlns="http://www.w3.org/2000/svg"
   xmlns:svg="http://www.w3.org/2000/svg">
  <sodipodi:namedview
     id="namedview7"
     pagecolor="#ffffff"
     bordercolor="#666666"
     borderopacity="1.0"
     inkscape:pageshadow="2"
     inkscape:pageopacity="0.0"
     inkscape:pagecheckerboard="0"
     inkscape:document-units="mm"
     showgrid="false"
     inkscape:zoom="2.4648473"
     inkscape:cx="60.652843"
     inkscape:cy="106.90317"
     inkscape:window-width="1312"
     inkscape:window-height="847"
     inkscape:window-x="0"
     inkscape:window-y="25"
     inkscape:window-maximized="0"
     inkscape:current-layer="layer1"
     inkscape:snap-global="false">
    <inkscape:grid
       type="xygrid"
       id="grid824"
       originx="-64.69058"
       originy="-106.27898" />
  </sodipodi:namedview>
  <defs
     id="defs2">
    <marker
       style="overflow:visible"
       id="DotL"
       refX="0"
       refY="0"
       orient="auto"
       inkscape:stockid="DotL"
       inkscape:isstock="true">
      <path
         transform="matrix(0.8,0,0,0.8,5.92,0.8)"
         style="fill:context-stroke;fill-rule:evenodd;stroke:context-stroke;stroke-width:1pt"
         d="m -2.5,-1 c 0,2.76 -2.24,5 -5,5 -2.76,0 -5,-2.24 -5,-5 0,-2.76 2.24,-5 5,-5 2.76,0 5,2.24 5,5 z"
         id="path1436" />
    </marker>
    <defs
       id="id-69e24c25-26f5-48db-a04b-8ea8a22d1b91">
      <g
         id="id-aedd4a3b-0703-4319-8d2a-fcc8f1abbe4f">
        <symbol
           overflow="visible"
           id="id-076597bd-2138-42f3-bec5-3691549097a0">
          <path
             style="stroke:none;stroke-width:0"
             d=""
             id="id-f485ae18-341f-4a3e-ac29-5834cea96983" />
        </symbol>
        <symbol
           overflow="visible"
           id="id-041d6173-6118-4d35-94a4-b7277530e104">
          <path
             style="stroke:none;stroke-width:0"
             d="m 4.671875,-3.703125 c 0,-0.546875 -0.265625,-0.703125 -0.4375,-0.703125 -0.25,0 -0.5,0.265625 -0.5,0.484375 0,0.125 0.046875,0.1875 0.15625,0.296875 0.21875,0.203125 0.34375,0.453125 0.34375,0.8125 0,0.421875 -0.609375,2.703125 -1.765625,2.703125 -0.515625,0 -0.75,-0.34375 -0.75,-0.875 0,-0.546875 0.28125,-1.28125 0.578125,-2.109375 0.078125,-0.171875 0.125,-0.3125 0.125,-0.5 0,-0.4375 -0.3125,-0.8125 -0.8125,-0.8125 -0.9375,0 -1.3125,1.453125 -1.3125,1.53125 0,0.109375 0.09375,0.109375 0.109375,0.109375 0.109375,0 0.109375,-0.03125 0.15625,-0.1875 0.296875,-1 0.71875,-1.234375 1.015625,-1.234375 0.078125,0 0.25,0 0.25,0.3125 0,0.25 -0.109375,0.53125 -0.171875,0.703125 -0.4375,1.15625 -0.5625,1.609375 -0.5625,2.046875 0,1.078125 0.875,1.234375 1.328125,1.234375 1.671875,0 2.25,-3.296875 2.25,-3.8125 z m 0,0"
             id="id-2525d80a-1784-4a30-9b17-d667c22da233" />
        </symbol>
        <symbol
           overflow="visible"
           id="id-d81214a9-7885-416b-a734-a976d5fd2bd6">
          <path
             style="stroke:none;stroke-width:0"
             d=""
             id="id-11275ec4-f181-4762-a11c-274ad18559c2" />
        </symbol>
        <symbol
           overflow="visible"
           id="id-469405f0-e61e-4f5f-99e6-769601de8c8e">
          <path
             style="stroke:none;stroke-width:0"
             d="m 2.328125,-4.4375 c 0,-0.1875 0,-0.1875 -0.203125,-0.1875 -0.453125,0.4375 -1.078125,0.4375 -1.359375,0.4375 v 0.25 c 0.15625,0 0.625,0 1,-0.1875 v 3.546875 c 0,0.234375 0,0.328125 -0.6875,0.328125 H 0.8125 V 0 c 0.125,0 0.984375,-0.03125 1.234375,-0.03125 0.21875,0 1.09375,0.03125 1.25,0.03125 V -0.25 H 3.03125 c -0.703125,0 -0.703125,-0.09375 -0.703125,-0.328125 z m 0,0"
             id="id-a97b0e9f-9a92-43c4-8d46-f0400416fa17" />
        </symbol>
        <symbol
           overflow="visible"
           id="id-f084b63c-95ef-4c6e-bf3b-91f1701a2ba3">
          <path
             style="stroke:none;stroke-width:0"
             d="M 3.515625,-1.265625 H 3.28125 c -0.015625,0.15625 -0.09375,0.5625 -0.1875,0.625 C 3.046875,-0.59375 2.515625,-0.59375 2.40625,-0.59375 H 1.125 c 0.734375,-0.640625 0.984375,-0.84375 1.390625,-1.171875 0.515625,-0.40625 1,-0.84375 1,-1.5 0,-0.84375 -0.734375,-1.359375 -1.625,-1.359375 -0.859375,0 -1.453125,0.609375 -1.453125,1.25 0,0.34375 0.296875,0.390625 0.375,0.390625 0.15625,0 0.359375,-0.125 0.359375,-0.375 0,-0.125 -0.046875,-0.375 -0.40625,-0.375 C 0.984375,-4.21875 1.453125,-4.375 1.78125,-4.375 c 0.703125,0 1.0625,0.546875 1.0625,1.109375 0,0.609375 -0.4375,1.078125 -0.65625,1.328125 L 0.515625,-0.265625 C 0.4375,-0.203125 0.4375,-0.1875 0.4375,0 h 2.875 z m 0,0"
             id="id-f2c0829c-b50f-4017-b755-da35855c3a51" />
        </symbol>
        <symbol
           overflow="visible"
           id="id-59265c33-4654-466e-8c4b-29a93bc52b2b">
          <path
             style="stroke:none;stroke-width:0"
             d="m 1.90625,-2.328125 c 0.546875,0 0.9375,0.375 0.9375,1.125 0,0.859375 -0.515625,1.125 -0.90625,1.125 -0.28125,0 -0.90625,-0.078125 -1.1875,-0.5 0.328125,0 0.40625,-0.234375 0.40625,-0.390625 0,-0.21875 -0.171875,-0.375 -0.390625,-0.375 -0.1875,0 -0.390625,0.125 -0.390625,0.40625 0,0.65625 0.71875,1.078125 1.5625,1.078125 0.96875,0 1.640625,-0.65625 1.640625,-1.34375 0,-0.546875 -0.4375,-1.09375 -1.203125,-1.25 0.71875,-0.265625 0.984375,-0.78125 0.984375,-1.21875 0,-0.546875 -0.625,-0.953125 -1.40625,-0.953125 -0.765625,0 -1.359375,0.375 -1.359375,0.9375 0,0.234375 0.15625,0.359375 0.359375,0.359375 0.21875,0 0.359375,-0.15625 0.359375,-0.34375 0,-0.203125 -0.140625,-0.359375 -0.359375,-0.375 0.25,-0.296875 0.71875,-0.375 0.984375,-0.375 0.3125,0 0.75,0.15625 0.75,0.75 0,0.296875 -0.09375,0.625 -0.28125,0.828125 -0.21875,0.265625 -0.421875,0.28125 -0.765625,0.3125 -0.171875,0.015625 -0.1875,0.015625 -0.21875,0.015625 -0.015625,0 -0.078125,0.015625 -0.078125,0.09375 0,0.09375 0.0625,0.09375 0.1875,0.09375 z m 0,0"
             id="id-c519599f-efaa-4c1f-8b00-8e1299dec31e" />
        </symbol>
        <symbol
           overflow="visible"
           id="id-04c9f7f8-4edd-4bfb-8b3d-bdae79c3063b">
          <path
             style="stroke:none;stroke-width:0"
             d="m 3.6875,-1.140625 v -0.25 H 2.90625 V -4.5 c 0,-0.140625 0,-0.203125 -0.140625,-0.203125 -0.09375,0 -0.125,0 -0.1875,0.109375 l -2.3125,3.203125 v 0.25 h 2.0625 v 0.5625 c 0,0.25 0,0.328125 -0.578125,0.328125 H 1.5625 V 0 C 1.921875,-0.015625 2.359375,-0.03125 2.609375,-0.03125 2.875,-0.03125 3.3125,-0.015625 3.671875,0 v -0.25 h -0.1875 C 2.90625,-0.25 2.90625,-0.328125 2.90625,-0.578125 v -0.5625 z M 2.375,-3.9375 v 2.546875 H 0.53125 Z m 0,0"
             id="id-0500ec89-41a8-4898-9a8c-cc64208c7e44" />
        </symbol>
        <symbol
           overflow="visible"
           id="id-7627918a-f45a-400b-8314-a1f35f10a302">
          <path
             style="stroke:none;stroke-width:0"
             d="m 3.21875,-1.578125 h 2.140625 c 0.09375,0 0.25,0 0.25,-0.15625 0,-0.1875 -0.15625,-0.1875 -0.25,-0.1875 H 3.21875 V -4.0625 c 0,-0.078125 0,-0.25 -0.15625,-0.25 -0.171875,0 -0.171875,0.15625 -0.171875,0.25 v 2.140625 H 0.75 c -0.09375,0 -0.265625,0 -0.265625,0.171875 0,0.171875 0.15625,0.171875 0.265625,0.171875 H 2.890625 V 0.5625 c 0,0.09375 0,0.265625 0.15625,0.265625 0.171875,0 0.171875,-0.171875 0.171875,-0.265625 z m 0,0"
             id="id-1d4b264b-d2d6-416c-873c-a428ead4a947" />
        </symbol>
        <symbol
           overflow="visible"
           id="id-0fc0df1c-ea60-417e-b8c1-c8c1041d6dfb">
          <path
             style="stroke:none;stroke-width:0"
             d=""
             id="id-4a83b8da-e15f-4c3c-9fe7-3157c2e038c3" />
        </symbol>
        <symbol
           overflow="visible"
           id="id-7f7da9e6-5793-4f47-8c58-0d1c50739367">
          <path
             style="stroke:none;stroke-width:0"
             d="m 0.84375,-0.4375 c -0.015625,0.09375 -0.0625,0.265625 -0.0625,0.28125 0,0.15625 0.125,0.21875 0.234375,0.21875 0.125,0 0.234375,-0.078125 0.28125,-0.140625 0.03125,-0.0625 0.078125,-0.296875 0.125,-0.4375 0.03125,-0.125 0.109375,-0.453125 0.140625,-0.625 0.046875,-0.15625 0.09375,-0.3125 0.125,-0.46875 0.078125,-0.28125 0.09375,-0.34375 0.296875,-0.625 C 2.171875,-2.515625 2.5,-2.875 3.03125,-2.875 c 0.390625,0 0.40625,0.359375 0.40625,0.484375 0,0.421875 -0.296875,1.1875 -0.40625,1.484375 -0.078125,0.203125 -0.109375,0.265625 -0.109375,0.375 0,0.375 0.296875,0.59375 0.65625,0.59375 0.703125,0 1,-0.953125 1,-1.0625 0,-0.09375 -0.078125,-0.09375 -0.109375,-0.09375 -0.09375,0 -0.09375,0.046875 -0.125,0.125 C 4.1875,-0.40625 3.875,-0.125 3.609375,-0.125 c -0.15625,0 -0.1875,-0.09375 -0.1875,-0.25 0,-0.15625 0.046875,-0.25 0.171875,-0.5625 0.078125,-0.21875 0.359375,-0.953125 0.359375,-1.34375 0,-0.671875 -0.53125,-0.796875 -0.90625,-0.796875 -0.578125,0 -0.96875,0.359375 -1.171875,0.640625 -0.046875,-0.484375 -0.453125,-0.640625 -0.75,-0.640625 -0.296875,0 -0.453125,0.21875 -0.546875,0.375 -0.15625,0.265625 -0.25,0.65625 -0.25,0.703125 0,0.078125 0.09375,0.078125 0.125,0.078125 0.09375,0 0.09375,-0.015625 0.140625,-0.203125 0.109375,-0.40625 0.25,-0.75 0.515625,-0.75 0.1875,0 0.234375,0.15625 0.234375,0.34375 0,0.125 -0.0625,0.390625 -0.125,0.578125 -0.046875,0.1875 -0.109375,0.46875 -0.140625,0.625 z m 0,0"
             id="id-57da887b-5010-4e17-8ed6-a084d7f88738" />
        </symbol>
        <symbol
           overflow="visible"
           id="id-8aad5109-9143-4191-b4d6-0f72c7e74854">
          <path
             style="stroke:none;stroke-width:0"
             d="m 3.484375,-4.921875 c 0.046875,-0.09375 0.046875,-0.109375 0.046875,-0.125 0,-0.109375 -0.09375,-0.171875 -0.171875,-0.171875 -0.109375,0 -0.140625,0.078125 -0.1875,0.171875 L 0.578125,1.4375 C 0.53125,1.53125 0.53125,1.546875 0.53125,1.5625 c 0,0.109375 0.09375,0.171875 0.171875,0.171875 0.125,0 0.15625,-0.078125 0.1875,-0.171875 z m 0,0"
             id="id-8d32a5b2-8354-4adf-85b0-399feb141459" />
        </symbol>
        <symbol
           overflow="visible"
           id="id-47735db2-7406-4f98-963e-da1c2dd502a3">
          <path
             style="stroke:none;stroke-width:0"
             d="m 2.1875,-4.625 c 0,-0.015625 0.015625,-0.109375 0.015625,-0.109375 0,-0.046875 -0.015625,-0.109375 -0.109375,-0.109375 -0.140625,0 -0.71875,0.0625 -0.890625,0.078125 -0.046875,0 -0.15625,0.015625 -0.15625,0.15625 0,0.09375 0.109375,0.09375 0.1875,0.09375 0.328125,0 0.328125,0.0625 0.328125,0.109375 0,0.046875 -0.015625,0.09375 -0.015625,0.15625 L 0.5625,-0.3125 c -0.046875,0.125 -0.046875,0.140625 -0.046875,0.15625 0,0.109375 0.09375,0.21875 0.25,0.21875 0.1875,0 0.265625,-0.125 0.3125,-0.28125 0.015625,-0.03125 0.3125,-1.265625 0.34375,-1.359375 0.5,0.046875 0.890625,0.21875 0.890625,0.578125 0,0.03125 0,0.0625 -0.015625,0.140625 -0.03125,0.09375 -0.03125,0.140625 -0.03125,0.21875 0,0.484375 0.40625,0.703125 0.75,0.703125 0.671875,0 0.875,-1.046875 0.875,-1.0625 0,-0.09375 -0.078125,-0.09375 -0.109375,-0.09375 -0.09375,0 -0.109375,0.046875 -0.140625,0.171875 C 3.5625,-0.625 3.375,-0.125 3.03125,-0.125 c -0.1875,0 -0.25,-0.171875 -0.25,-0.359375 0,-0.125 0,-0.140625 0.046875,-0.3125 0.015625,-0.03125 0.03125,-0.140625 0.03125,-0.21875 0,-0.625 -0.828125,-0.71875 -1.125,-0.734375 C 1.9375,-1.875 2.1875,-2.109375 2.3125,-2.21875 2.671875,-2.546875 3.015625,-2.875 3.40625,-2.875 c 0.078125,0 0.171875,0.015625 0.234375,0.09375 C 3.34375,-2.734375 3.28125,-2.5 3.28125,-2.390625 c 0,0.140625 0.109375,0.25 0.265625,0.25 0.203125,0 0.40625,-0.15625 0.40625,-0.4375 0,-0.234375 -0.171875,-0.5 -0.53125,-0.5 -0.40625,0 -0.765625,0.296875 -1.125,0.625 C 2,-2.1875 1.78125,-1.96875 1.484375,-1.84375 Z m 0,0"
             id="id-d132ef7c-7db1-40c0-9074-ec129e7ee155" />
        </symbol>
        <symbol
           overflow="visible"
           id="id-4437ab85-0e6b-4348-a1c3-4249ec006322">
          <path
             style="stroke:none;stroke-width:0"
             d=""
             id="id-e48db165-dc3c-4c87-87ee-881e65151d5c" />
        </symbol>
        <symbol
           overflow="visible"
           id="id-e41d1593-cc64-471c-8903-9872abc75fda">
          <path
             style="stroke:none;stroke-width:0"
             d="m 0.96875,-0.484375 c -0.03125,0.125 -0.078125,0.34375 -0.078125,0.359375 0,0.109375 0.09375,0.1875 0.1875,0.1875 0.0625,0 0.171875,-0.046875 0.234375,-0.171875 0,-0.03125 0.0625,-0.265625 0.09375,-0.390625 0.171875,-0.671875 0.171875,-0.6875 0.171875,-0.703125 0.078125,-0.125 0.4375,-0.828125 1.03125,-0.828125 0.25,0 0.359375,0.125 0.359375,0.359375 0,0.28125 -0.21875,0.796875 -0.328125,1.078125 -0.03125,0.0625 -0.046875,0.125 -0.046875,0.203125 0,0.265625 0.25,0.453125 0.546875,0.453125 0.53125,0 0.796875,-0.65625 0.796875,-0.78125 0,-0.0625 -0.078125,-0.0625 -0.09375,-0.0625 -0.09375,0 -0.09375,0.015625 -0.125,0.109375 C 3.625,-0.375 3.390625,-0.109375 3.15625,-0.109375 3.046875,-0.109375 3,-0.1875 3,-0.296875 3,-0.40625 3.03125,-0.453125 3.078125,-0.5625 c 0.078125,-0.203125 0.3125,-0.765625 0.3125,-1.046875 0,-0.375 -0.265625,-0.59375 -0.75,-0.59375 -0.453125,0 -0.765625,0.28125 -0.9375,0.5 -0.015625,-0.421875 -0.421875,-0.5 -0.609375,-0.5 -0.5,0 -0.640625,0.765625 -0.640625,0.765625 0,0.078125 0.078125,0.078125 0.109375,0.078125 0.078125,0 0.09375,-0.03125 0.109375,-0.09375 C 0.75,-1.75 0.859375,-2.03125 1.078125,-2.03125 c 0.15625,0 0.203125,0.15625 0.203125,0.265625 0,0.0625 -0.0625,0.25 -0.078125,0.390625 -0.046875,0.125 -0.09375,0.328125 -0.109375,0.4375 z m 0,0"
             id="id-6cafb792-885d-4d68-8733-c28ea34f0f20" />
        </symbol>
        <symbol
           overflow="visible"
           id="id-eaffc860-f174-4b01-91eb-0e0ef7ba1e8b">
          <path
             style="stroke:none;stroke-width:0"
             d=""
             id="id-59abe596-4ba4-4c68-9e99-0b2a2b1a6c93" />
        </symbol>
        <symbol
           overflow="visible"
           id="id-9e6c9ede-6ccd-4459-96bc-648353149af7">
          <path
             style="stroke:none;stroke-width:0"
             d="M 2.9375,-0.96875 H 2.71875 c 0,0.09375 -0.0625,0.40625 -0.140625,0.453125 -0.03125,0.03125 -0.453125,0.03125 -0.53125,0.03125 H 1.078125 C 1.40625,-0.71875 1.765625,-1 2.0625,-1.203125 c 0.453125,-0.3125 0.875,-0.59375 0.875,-1.125 0,-0.640625 -0.609375,-0.984375 -1.3125,-0.984375 -0.671875,0 -1.171875,0.375 -1.171875,0.875 0,0.25 0.21875,0.296875 0.296875,0.296875 0.125,0 0.28125,-0.09375 0.28125,-0.296875 0,-0.171875 -0.125,-0.28125 -0.28125,-0.28125 0.140625,-0.234375 0.4375,-0.375 0.765625,-0.375 0.484375,0 0.890625,0.28125 0.890625,0.765625 0,0.421875 -0.296875,0.75 -0.671875,1.0625 l -1.21875,1.03125 C 0.46875,-0.1875 0.453125,-0.1875 0.453125,-0.15625 V 0 h 2.3125 z m 0,0"
             id="id-586bd55f-118c-4ae0-95af-c4f254414943" />
        </symbol>
      </g>
    </defs>
    <defs
       id="id-07bb8b73-f625-4644-b329-daf51e23b05e">
      <g
         id="id-a01f826a-162d-4c67-a034-ce4742872d5a">
        <symbol
           overflow="visible"
           id="id-a6a65e93-6885-4d9f-aeb3-1e2ddc178c7f">
          <path
             style="stroke:none;stroke-width:0"
             d=""
             id="id-09225981-b6eb-44e9-b7f7-daa5ccb48acf" />
        </symbol>
        <symbol
           overflow="visible"
           id="id-043b3fd7-02bf-42eb-843f-b8c3f2d8d862">
          <path
             style="stroke:none;stroke-width:0"
             d="m 4.671875,-3.703125 c 0,-0.546875 -0.265625,-0.703125 -0.4375,-0.703125 -0.25,0 -0.5,0.265625 -0.5,0.484375 0,0.125 0.046875,0.1875 0.15625,0.296875 0.21875,0.203125 0.34375,0.453125 0.34375,0.8125 0,0.421875 -0.609375,2.703125 -1.765625,2.703125 -0.515625,0 -0.75,-0.34375 -0.75,-0.875 0,-0.546875 0.28125,-1.28125 0.578125,-2.109375 0.078125,-0.171875 0.125,-0.3125 0.125,-0.5 0,-0.4375 -0.3125,-0.8125 -0.8125,-0.8125 -0.9375,0 -1.3125,1.453125 -1.3125,1.53125 0,0.109375 0.09375,0.109375 0.109375,0.109375 0.109375,0 0.109375,-0.03125 0.15625,-0.1875 0.296875,-1 0.71875,-1.234375 1.015625,-1.234375 0.078125,0 0.25,0 0.25,0.3125 0,0.25 -0.109375,0.53125 -0.171875,0.703125 -0.4375,1.15625 -0.5625,1.609375 -0.5625,2.046875 0,1.078125 0.875,1.234375 1.328125,1.234375 1.671875,0 2.25,-3.296875 2.25,-3.8125 z m 0,0"
             id="id-c48f17a0-0f7c-4d77-b461-0bdb768ec96e" />
        </symbol>
        <symbol
           overflow="visible"
           id="id-49982865-8b9f-433e-bc09-68feb4487100">
          <path
             style="stroke:none;stroke-width:0"
             d=""
             id="id-02ebeb82-83d8-4cd5-b6b7-f98a32e89521" />
        </symbol>
        <symbol
           overflow="visible"
           id="id-e1eff8f4-3edd-4908-a286-5128b249d894">
          <path
             style="stroke:none;stroke-width:0"
             d="m 2.328125,-4.4375 c 0,-0.1875 0,-0.1875 -0.203125,-0.1875 -0.453125,0.4375 -1.078125,0.4375 -1.359375,0.4375 v 0.25 c 0.15625,0 0.625,0 1,-0.1875 v 3.546875 c 0,0.234375 0,0.328125 -0.6875,0.328125 H 0.8125 V 0 c 0.125,0 0.984375,-0.03125 1.234375,-0.03125 0.21875,0 1.09375,0.03125 1.25,0.03125 V -0.25 H 3.03125 c -0.703125,0 -0.703125,-0.09375 -0.703125,-0.328125 z m 0,0"
             id="id-da2cf3f3-26bc-4a33-a7f5-59d90741ccb2" />
        </symbol>
        <symbol
           overflow="visible"
           id="id-20b6ed08-94de-4f84-8331-719032402768">
          <path
             style="stroke:none;stroke-width:0"
             d="M 3.515625,-1.265625 H 3.28125 c -0.015625,0.15625 -0.09375,0.5625 -0.1875,0.625 C 3.046875,-0.59375 2.515625,-0.59375 2.40625,-0.59375 H 1.125 c 0.734375,-0.640625 0.984375,-0.84375 1.390625,-1.171875 0.515625,-0.40625 1,-0.84375 1,-1.5 0,-0.84375 -0.734375,-1.359375 -1.625,-1.359375 -0.859375,0 -1.453125,0.609375 -1.453125,1.25 0,0.34375 0.296875,0.390625 0.375,0.390625 0.15625,0 0.359375,-0.125 0.359375,-0.375 0,-0.125 -0.046875,-0.375 -0.40625,-0.375 C 0.984375,-4.21875 1.453125,-4.375 1.78125,-4.375 c 0.703125,0 1.0625,0.546875 1.0625,1.109375 0,0.609375 -0.4375,1.078125 -0.65625,1.328125 L 0.515625,-0.265625 C 0.4375,-0.203125 0.4375,-0.1875 0.4375,0 h 2.875 z m 0,0"
             id="id-fb005086-f60c-40bb-9227-b92a94cf35ce" />
        </symbol>
        <symbol
           overflow="visible"
           id="id-3aa6e792-2b5e-4352-9e9e-0d90dd6e9661">
          <path
             style="stroke:none;stroke-width:0"
             d="m 1.90625,-2.328125 c 0.546875,0 0.9375,0.375 0.9375,1.125 0,0.859375 -0.515625,1.125 -0.90625,1.125 -0.28125,0 -0.90625,-0.078125 -1.1875,-0.5 0.328125,0 0.40625,-0.234375 0.40625,-0.390625 0,-0.21875 -0.171875,-0.375 -0.390625,-0.375 -0.1875,0 -0.390625,0.125 -0.390625,0.40625 0,0.65625 0.71875,1.078125 1.5625,1.078125 0.96875,0 1.640625,-0.65625 1.640625,-1.34375 0,-0.546875 -0.4375,-1.09375 -1.203125,-1.25 0.71875,-0.265625 0.984375,-0.78125 0.984375,-1.21875 0,-0.546875 -0.625,-0.953125 -1.40625,-0.953125 -0.765625,0 -1.359375,0.375 -1.359375,0.9375 0,0.234375 0.15625,0.359375 0.359375,0.359375 0.21875,0 0.359375,-0.15625 0.359375,-0.34375 0,-0.203125 -0.140625,-0.359375 -0.359375,-0.375 0.25,-0.296875 0.71875,-0.375 0.984375,-0.375 0.3125,0 0.75,0.15625 0.75,0.75 0,0.296875 -0.09375,0.625 -0.28125,0.828125 -0.21875,0.265625 -0.421875,0.28125 -0.765625,0.3125 -0.171875,0.015625 -0.1875,0.015625 -0.21875,0.015625 -0.015625,0 -0.078125,0.015625 -0.078125,0.09375 0,0.09375 0.0625,0.09375 0.1875,0.09375 z m 0,0"
             id="id-09d328d4-08e6-455a-888c-f180b0f07aca" />
        </symbol>
        <symbol
           overflow="visible"
           id="id-72f1e290-9f2d-4b92-8dc2-53823c8703bd">
          <path
             style="stroke:none;stroke-width:0"
             d="m 3.6875,-1.140625 v -0.25 H 2.90625 V -4.5 c 0,-0.140625 0,-0.203125 -0.140625,-0.203125 -0.09375,0 -0.125,0 -0.1875,0.109375 l -2.3125,3.203125 v 0.25 h 2.0625 v 0.5625 c 0,0.25 0,0.328125 -0.578125,0.328125 H 1.5625 V 0 C 1.921875,-0.015625 2.359375,-0.03125 2.609375,-0.03125 2.875,-0.03125 3.3125,-0.015625 3.671875,0 v -0.25 h -0.1875 C 2.90625,-0.25 2.90625,-0.328125 2.90625,-0.578125 v -0.5625 z M 2.375,-3.9375 v 2.546875 H 0.53125 Z m 0,0"
             id="id-a42796b4-3716-42cc-a072-2e8ac34fbdbf" />
        </symbol>
        <symbol
           overflow="visible"
           id="id-47725973-45f5-41c8-8c94-379cf0a97e88">
          <path
             style="stroke:none;stroke-width:0"
             d="m 1.078125,-3.890625 c 0.359375,0.09375 0.5625,0.09375 0.671875,0.09375 0.921875,0 1.46875,-0.625 1.46875,-0.734375 0,-0.078125 -0.046875,-0.09375 -0.078125,-0.09375 -0.015625,0 -0.03125,0 -0.0625,0.015625 -0.171875,0.0625 -0.53125,0.203125 -1.046875,0.203125 -0.203125,0 -0.5625,-0.015625 -1.015625,-0.1875 C 0.9375,-4.625 0.921875,-4.625 0.921875,-4.625 c -0.09375,0 -0.09375,0.078125 -0.09375,0.1875 v 2.046875 c 0,0.125 0,0.203125 0.109375,0.203125 0.0625,0 0.078125,0 0.140625,-0.09375 0.296875,-0.375 0.734375,-0.4375 0.96875,-0.4375 0.421875,0 0.609375,0.328125 0.640625,0.390625 0.125,0.234375 0.171875,0.5 0.171875,0.90625 0,0.203125 0,0.609375 -0.21875,0.921875 -0.171875,0.25 -0.46875,0.421875 -0.8125,0.421875 -0.453125,0 -0.921875,-0.25 -1.09375,-0.71875 0.265625,0.015625 0.40625,-0.15625 0.40625,-0.34375 0,-0.296875 -0.265625,-0.34375 -0.359375,-0.34375 0,0 -0.34375,0 -0.34375,0.375 0,0.625 0.578125,1.25 1.40625,1.25 0.890625,0 1.671875,-0.65625 1.671875,-1.546875 0,-0.78125 -0.59375,-1.5 -1.453125,-1.5 -0.3125,0 -0.671875,0.0625 -0.984375,0.328125 z m 0,0"
             id="id-577736bf-8402-486e-97f0-ef325a229ea6" />
        </symbol>
        <symbol
           overflow="visible"
           id="id-1cdd304f-a608-470a-a3d2-da8a6d24c569">
          <path
             style="stroke:none;stroke-width:0"
             d="m 1.046875,-2.28125 c 0,-0.5625 0.046875,-1.078125 0.3125,-1.515625 0.234375,-0.375 0.609375,-0.625 1.0625,-0.625 0.203125,0 0.484375,0.046875 0.625,0.234375 C 2.875,-4.171875 2.71875,-4.046875 2.71875,-3.84375 c 0,0.171875 0.125,0.328125 0.328125,0.328125 0.21875,0 0.34375,-0.140625 0.34375,-0.34375 0,-0.40625 -0.296875,-0.765625 -0.984375,-0.765625 -1,0 -2.03125,0.921875 -2.03125,2.421875 0,1.796875 0.84375,2.34375 1.625,2.34375 0.84375,0 1.578125,-0.65625 1.578125,-1.5625 0,-0.890625 -0.703125,-1.546875 -1.515625,-1.546875 -0.5625,0 -0.859375,0.375 -1.015625,0.6875 z M 2,-0.078125 c -0.359375,0 -0.625,-0.203125 -0.78125,-0.515625 C 1.125,-0.796875 1.0625,-1.15625 1.0625,-1.5625 c 0,-0.6875 0.40625,-1.203125 0.96875,-1.203125 0.3125,0 0.53125,0.125 0.703125,0.375 0.171875,0.265625 0.171875,0.5625 0.171875,0.96875 0,0.390625 0,0.6875 -0.1875,0.96875 -0.15625,0.234375 -0.390625,0.375 -0.71875,0.375 z m 0,0"
             id="id-aa993d97-e627-40df-b15f-fdaaeb47a344" />
        </symbol>
        <symbol
           overflow="visible"
           id="id-fdc6fdf3-f797-49ac-85da-3051132d4015">
          <path
             style="stroke:none;stroke-width:0"
             d="m 3.734375,-4.203125 c 0.0625,-0.09375 0.0625,-0.109375 0.0625,-0.28125 H 1.96875 C 1.6875,-4.484375 1.609375,-4.5 1.359375,-4.515625 1,-4.546875 0.984375,-4.59375 0.96875,-4.703125 H 0.734375 l -0.25,1.484375 H 0.71875 c 0.015625,-0.109375 0.09375,-0.5625 0.203125,-0.640625 0.046875,-0.03125 0.625,-0.03125 0.71875,-0.03125 H 3.15625 c -0.21875,0.28125 -0.578125,0.71875 -0.71875,0.921875 -0.90625,1.1875 -1,2.296875 -1,2.703125 0,0.078125 0,0.40625 0.328125,0.40625 0.34375,0 0.34375,-0.3125 0.34375,-0.40625 v -0.28125 c 0,-1.34375 0.28125,-1.96875 0.578125,-2.34375 z m 0,0"
             id="id-04b82f1a-3f0f-4700-9220-c763676b862d" />
        </symbol>
        <symbol
           overflow="visible"
           id="id-8bc81a24-e609-4c55-8b5d-6c83de78dc74">
          <path
             style="stroke:none;stroke-width:0"
             d="m 2.46875,-2.515625 c 0.546875,-0.265625 0.890625,-0.59375 0.890625,-1.078125 0,-0.671875 -0.703125,-1.03125 -1.375,-1.03125 -0.765625,0 -1.390625,0.5 -1.390625,1.15625 0,0.328125 0.15625,0.5625 0.28125,0.703125 0.125,0.15625 0.171875,0.1875 0.578125,0.421875 C 1.0625,-2.171875 0.375,-1.796875 0.375,-1.0625 c 0,0.765625 0.796875,1.203125 1.59375,1.203125 0.890625,0 1.609375,-0.5625 1.609375,-1.3125 0,-0.46875 -0.265625,-0.859375 -0.671875,-1.09375 -0.09375,-0.0625 -0.328125,-0.1875 -0.4375,-0.25 z m -1.125,-0.65625 c -0.1875,-0.109375 -0.375,-0.296875 -0.375,-0.5625 0,-0.4375 0.5,-0.6875 1,-0.6875 0.546875,0 1.03125,0.34375 1.03125,0.828125 0,0.625 -0.734375,0.9375 -0.734375,0.9375 -0.015625,0 -0.03125,0 -0.078125,-0.03125 z m 0.328125,0.96875 0.96875,0.546875 c 0.171875,0.109375 0.515625,0.3125 0.515625,0.71875 0,0.53125 -0.578125,0.859375 -1.171875,0.859375 -0.640625,0 -1.1875,-0.421875 -1.1875,-0.984375 0,-0.515625 0.375,-0.921875 0.875,-1.140625 z m 0,0"
             id="id-3188221f-4b85-4b1d-9be0-e6ad80b0f342" />
        </symbol>
        <symbol
           overflow="visible"
           id="id-be1f0249-2457-4c31-8fdc-adcc3b1b44e4">
          <path
             style="stroke:none;stroke-width:0"
             d="m 2.90625,-2.078125 c 0,1.734375 -0.84375,2 -1.265625,2 -0.15625,0 -0.53125,-0.015625 -0.71875,-0.234375 0.296875,-0.03125 0.3125,-0.265625 0.3125,-0.328125 0,-0.171875 -0.125,-0.328125 -0.328125,-0.328125 -0.203125,0 -0.328125,0.140625 -0.328125,0.34375 0,0.46875 0.390625,0.765625 1.0625,0.765625 1,0 1.9375,-0.9375 1.9375,-2.4375 C 3.578125,-4.015625 2.8125,-4.625 2,-4.625 c -0.234375,0 -0.703125,0.03125 -1.109375,0.421875 -0.234375,0.234375 -0.515625,0.5 -0.515625,1.125 0,0.890625 0.703125,1.546875 1.515625,1.546875 0.5625,0 0.859375,-0.375 1.015625,-0.6875 z m -0.96875,0.34375 c -0.28125,0 -0.53125,-0.078125 -0.734375,-0.40625 -0.15625,-0.25 -0.15625,-0.546875 -0.15625,-0.9375 0,-0.40625 0,-0.671875 0.203125,-0.953125 0.171875,-0.25 0.390625,-0.390625 0.75,-0.390625 0.359375,0 0.578125,0.21875 0.6875,0.40625 0.1875,0.28125 0.203125,0.78125 0.203125,1.015625 0,0.90625 -0.515625,1.265625 -0.953125,1.265625 z m 0,0"
             id="id-b311e06c-7d0e-47fc-95d6-7ec1daee33ce" />
        </symbol>
        <symbol
           overflow="visible"
           id="id-821ac06a-9409-4028-8662-39a6110835a2">
          <path
             style="stroke:none;stroke-width:0"
             d="M 3.59375,-2.21875 C 3.59375,-2.984375 3.5,-3.546875 3.1875,-4.03125 2.96875,-4.34375 2.53125,-4.625 1.984375,-4.625 c -1.625,0 -1.625,1.90625 -1.625,2.40625 0,0.5 0,2.359375 1.625,2.359375 1.609375,0 1.609375,-1.859375 1.609375,-2.359375 z M 1.984375,-0.0625 c -0.328125,0 -0.75,-0.1875 -0.890625,-0.75 C 1,-1.21875 1,-1.796875 1,-2.3125 1,-2.828125 1,-3.359375 1.09375,-3.734375 1.25,-4.28125 1.6875,-4.4375 1.984375,-4.4375 c 0.375,0 0.734375,0.234375 0.859375,0.640625 0.109375,0.375 0.125,0.875 0.125,1.484375 0,0.515625 0,1.03125 -0.09375,1.46875 -0.140625,0.640625 -0.609375,0.78125 -0.890625,0.78125 z m 0,0"
             id="id-a5e0c927-ab5d-463b-a08d-746f25cd0b14" />
        </symbol>
        <symbol
           overflow="visible"
           id="id-69e988d9-9259-4937-b125-b6906b498dc4">
          <path
             style="stroke:none;stroke-width:0"
             d=""
             id="id-17afba3d-69b1-439f-beb1-7f4aaa6b46eb" />
        </symbol>
        <symbol
           overflow="visible"
           id="id-0ff044be-96c1-402e-bd5e-01d8dc8538f4">
          <path
             style="stroke:none;stroke-width:0"
             d="m 0.84375,-0.4375 c -0.015625,0.09375 -0.0625,0.265625 -0.0625,0.28125 0,0.15625 0.125,0.21875 0.234375,0.21875 0.125,0 0.234375,-0.078125 0.28125,-0.140625 0.03125,-0.0625 0.078125,-0.296875 0.125,-0.4375 0.03125,-0.125 0.109375,-0.453125 0.140625,-0.625 0.046875,-0.15625 0.09375,-0.3125 0.125,-0.46875 0.078125,-0.28125 0.09375,-0.34375 0.296875,-0.625 C 2.171875,-2.515625 2.5,-2.875 3.03125,-2.875 c 0.390625,0 0.40625,0.359375 0.40625,0.484375 0,0.421875 -0.296875,1.1875 -0.40625,1.484375 -0.078125,0.203125 -0.109375,0.265625 -0.109375,0.375 0,0.375 0.296875,0.59375 0.65625,0.59375 0.703125,0 1,-0.953125 1,-1.0625 0,-0.09375 -0.078125,-0.09375 -0.109375,-0.09375 -0.09375,0 -0.09375,0.046875 -0.125,0.125 C 4.1875,-0.40625 3.875,-0.125 3.609375,-0.125 c -0.15625,0 -0.1875,-0.09375 -0.1875,-0.25 0,-0.15625 0.046875,-0.25 0.171875,-0.5625 0.078125,-0.21875 0.359375,-0.953125 0.359375,-1.34375 0,-0.671875 -0.53125,-0.796875 -0.90625,-0.796875 -0.578125,0 -0.96875,0.359375 -1.171875,0.640625 -0.046875,-0.484375 -0.453125,-0.640625 -0.75,-0.640625 -0.296875,0 -0.453125,0.21875 -0.546875,0.375 -0.15625,0.265625 -0.25,0.65625 -0.25,0.703125 0,0.078125 0.09375,0.078125 0.125,0.078125 0.09375,0 0.09375,-0.015625 0.140625,-0.203125 0.109375,-0.40625 0.25,-0.75 0.515625,-0.75 0.1875,0 0.234375,0.15625 0.234375,0.34375 0,0.125 -0.0625,0.390625 -0.125,0.578125 -0.046875,0.1875 -0.109375,0.46875 -0.140625,0.625 z m 0,0"
             id="id-7a415105-46b5-41cc-8cfa-0cb314db79eb" />
        </symbol>
        <symbol
           overflow="visible"
           id="id-ad30a4d1-5592-4094-97e1-59859b62266e">
          <path
             style="stroke:none;stroke-width:0"
             d=""
             id="id-42263d57-3ae1-464b-9c8f-1d00b283cda5" />
        </symbol>
        <symbol
           overflow="visible"
           id="id-ec3abed6-7e8a-4f79-b325-ebaeaa9d0211">
          <path
             style="stroke:none;stroke-width:0"
             d="m 5.1875,-1.578125 c 0.109375,0 0.28125,0 0.28125,-0.15625 0,-0.1875 -0.171875,-0.1875 -0.28125,-0.1875 H 1.03125 c -0.109375,0 -0.28125,0 -0.28125,0.171875 0,0.171875 0.15625,0.171875 0.28125,0.171875 z m 0,0"
             id="id-dc4f0901-a636-4395-8ad1-7121ca8bf2e7" />
        </symbol>
      </g>
    </defs>
  </defs>
  <g
     inkscape:label="Layer 1"
     inkscape:groupmode="layer"
     id="layer1"
     transform="translate(-64.690572,-106.27898)">
    <g
       id="g3399">
      <g
         id="g2523">
        <g
           id="path871">
          <path
             style="color:#000000;fill:#000000;-inkscape-stroke:none"
             d="m 71.496094,108.41992 -0.125,0.10938 15.875,21.16601 0.132812,-0.0996 -15.177734,-20.23632 15.052734,15.05273 0.117188,-0.11719 -15.867188,-15.86523 z"
             id="path1715" />
          <g
             id="g1683">
            <g
               id="path1705">
              <path
                 style="color:#000000;fill:#000000;fill-rule:evenodd;stroke-width:0.132pt;-inkscape-stroke:none"
                 d="m 87.70058,130.16327 c -0.291456,0.21859 -0.705408,0.15946 -0.924,-0.132 -0.218592,-0.29146 -0.159456,-0.70541 0.132,-0.924 0.291456,-0.21859 0.705408,-0.15946 0.924,0.132 0.218592,0.29146 0.159456,0.70541 -0.132,0.924 z"
                 id="path1709" />
              <path
                 style="color:#000000;fill:#000000;fill-rule:evenodd;-inkscape-stroke:none"
                 d="m 86.855469,129.03711 c -0.329547,0.24716 -0.395597,0.71732 -0.148438,1.04687 0.24716,0.32956 0.717329,0.39755 1.046875,0.15039 0.329547,-0.24715 0.395597,-0.71927 0.148438,-1.04882 -0.24716,-0.32955 -0.717329,-0.3956 -1.046875,-0.14844 z m 0.105468,0.14062 c 0.253366,-0.19002 0.610758,-0.13813 0.800782,0.11524 0.190024,0.25337 0.140083,0.61076 -0.113282,0.80078 -0.253365,0.19002 -0.610757,0.13813 -0.800781,-0.11523 -0.190024,-0.25337 -0.140083,-0.61076 0.113281,-0.80079 z"
                 id="path1711" />
            </g>
            <g
               id="path1695">
              <path
                 style="color:#000000;fill:#000000;fill-rule:evenodd;stroke-width:0.132pt;-inkscape-stroke:none"
                 d="m 70.948871,108.90295 c -0.238703,-0.27522 -0.20906,-0.69233 0.06617,-0.93103 0.275227,-0.2387 0.692329,-0.20906 0.931033,0.0662 0.238703,0.27523 0.20906,0.69233 -0.06617,0.93103 -0.275227,0.2387 -0.692329,0.20906 -0.931033,-0.0662 z"
                 id="path1699" />
              <path
                 style="color:#000000;fill:#000000;fill-rule:evenodd;-inkscape-stroke:none"
                 d="m 70.957031,107.90625 c -0.311201,0.2699 -0.34412,0.7435 -0.07422,1.05469 0.269898,0.31123 0.743492,0.34411 1.054688,0.0742 0.3112,-0.2699 0.344117,-0.74349 0.07422,-1.05469 -0.269898,-0.31123 -0.743491,-0.34412 -1.054688,-0.0742 z m 0.115235,0.13281 c 0.239257,-0.2075 0.599131,-0.18265 0.80664,0.0566 0.207507,0.23926 0.182619,0.59914 -0.05664,0.80664 -0.239257,0.20751 -0.599131,0.18265 -0.806641,-0.0566 -0.207504,-0.23925 -0.182618,-0.59913 0.05664,-0.80664 z"
                 id="path1701" />
            </g>
            <g
               id="path1685">
              <path
                 style="color:#000000;fill:#000000;fill-rule:evenodd;stroke-width:0.132pt;-inkscape-stroke:none"
                 d="m 86.855142,123.89681 c 0.257613,-0.25761 0.675768,-0.25761 0.933381,0 0.257613,0.25762 0.257613,0.67577 0,0.93338 -0.257613,0.25762 -0.675768,0.25762 -0.933381,0 -0.257613,-0.25761 -0.257613,-0.67576 0,-0.93338 z"
                 id="path1689" />
              <path
                 style="color:#000000;fill:#000000;fill-rule:evenodd;-inkscape-stroke:none"
                 d="m 86.792969,123.83398 c -0.291279,0.29129 -0.291281,0.76732 0,1.0586 0.29128,0.29129 0.767313,0.29129 1.058593,0 0.291281,-0.29128 0.291279,-0.76731 0,-1.0586 -0.29128,-0.29127 -0.767312,-0.29127 -1.058593,0 z m 0.125,0.125 c 0.223944,-0.22394 0.584649,-0.22394 0.808593,0 0.223947,0.22396 0.223945,0.58466 0,0.8086 -0.223945,0.22395 -0.584648,0.22395 -0.808593,0 -0.223945,-0.22394 -0.223947,-0.58464 0,-0.8086 z"
                 id="path1691" />
            </g>
          </g>
        </g>
        <g
           id="path873">
          <path
             style="color:#000000;fill:#000000;-inkscape-stroke:none"
             d="m 87.287109,108.40039 -16.111328,5.37109 16.111328,5.36915 0.05078,-0.15625 -15.640625,-5.2129 15.640625,-5.21484 z"
             id="path1753" />
          <g
             id="g1721">
            <g
               id="path1743">
              <path
                 style="color:#000000;fill:#000000;fill-rule:evenodd;stroke-width:0.132pt;-inkscape-stroke:none"
                 d="m 87.926108,119.26704 c -0.115208,0.34562 -0.489217,0.53262 -0.834841,0.41742 -0.345624,-0.11521 -0.532629,-0.48922 -0.417421,-0.83484 0.115209,-0.34563 0.489218,-0.53263 0.834842,-0.41743 0.345624,0.11521 0.532629,0.48922 0.41742,0.83485 z"
                 id="path1747" />
              <path
                 style="color:#000000;fill:#000000;fill-rule:evenodd;-inkscape-stroke:none"
                 d="m 87.537109,118.34961 c -0.390792,-0.13026 -0.817,0.0819 -0.947265,0.47266 -0.130265,0.39079 0.08186,0.81504 0.472656,0.94531 0.390793,0.13025 0.817001,-0.0819 0.947266,-0.47266 0.130265,-0.3908 -0.08186,-0.81504 -0.472657,-0.94531 z m -0.05664,0.16602 c 0.300454,0.10015 0.46148,0.42219 0.361328,0.72265 -0.100151,0.30045 -0.422202,0.46343 -0.722656,0.36328 -0.300454,-0.10015 -0.461479,-0.42416 -0.361329,-0.72461 0.100153,-0.30046 0.422202,-0.46147 0.722657,-0.36132 z"
                 id="path1749" />
            </g>
            <g
               id="path1733">
              <path
                 style="color:#000000;fill:#000000;fill-rule:evenodd;stroke-width:0.132pt;-inkscape-stroke:none"
                 d="m 71.437499,114.41763 c -0.36432,0 -0.66,-0.29568 -0.66,-0.66 0,-0.36432 0.29568,-0.66 0.66,-0.66 0.36432,0 0.66,0.29568 0.66,0.66 0,0.36432 -0.29568,0.66 -0.66,0.66 z"
                 id="path1737" />
              <path
                 style="color:#000000;fill:#000000;fill-rule:evenodd;-inkscape-stroke:none"
                 d="m 71.4375,113.00977 c -0.411933,0 -0.748047,0.33611 -0.748047,0.74804 0,0.41194 0.336114,0.74805 0.748047,0.74805 0.411933,0 0.748047,-0.33611 0.748047,-0.74805 0,-0.41193 -0.336114,-0.74804 -0.748047,-0.74804 z m 0,0.17578 c 0.316706,0 0.572266,0.25556 0.572266,0.57226 0,0.31671 -0.25556,0.57227 -0.572266,0.57227 -0.316706,0 -0.572266,-0.25556 -0.572266,-0.57227 0,-0.3167 0.25556,-0.57226 0.572266,-0.57226 z"
                 id="path1739" />
            </g>
            <g
               id="path1723">
              <path
                 style="color:#000000;fill:#000000;fill-rule:evenodd;stroke-width:0.132pt;-inkscape-stroke:none"
                 d="m 86.698891,108.68371 c -0.115208,-0.34563 0.0718,-0.71964 0.417421,-0.83485 0.345624,-0.1152 0.719633,0.0718 0.834841,0.41743 0.115208,0.34562 -0.0718,0.71963 -0.417421,0.83484 -0.345625,0.1152 -0.719633,-0.0718 -0.834841,-0.41742 z"
                 id="path1727" />
              <path
                 style="color:#000000;fill:#000000;fill-rule:evenodd;-inkscape-stroke:none"
                 d="m 87.087891,107.76563 c -0.390791,0.13026 -0.602921,0.55451 -0.472657,0.94531 0.130265,0.39079 0.556472,0.60486 0.947266,0.47461 0.390791,-0.13027 0.602921,-0.55648 0.472656,-0.94727 -0.130264,-0.3908 -0.556473,-0.60291 -0.947265,-0.47265 z m 0.05664,0.16601 c 0.300455,-0.10014 0.622505,0.0628 0.722656,0.36328 0.100151,0.30045 -0.06088,0.62251 -0.361328,0.72266 -0.300455,0.10014 -0.622505,-0.0609 -0.722656,-0.36133 -0.100151,-0.30046 0.06088,-0.62446 0.361328,-0.72461 z"
                 id="path1729" />
            </g>
          </g>
        </g>
        <g
           id="path875">
          <path
             style="color:#000000;fill:#000000;-inkscape-stroke:none"
             d="m 71.482422,113.70313 -0.08984,0.13671 15.875,10.58204 0.08984,-0.13672 z"
             id="path1781" />
          <g
             id="g1759">
            <g
               id="path1771">
              <path
                 style="color:#000000;fill:#000000;fill-rule:evenodd;stroke-width:0.132pt;-inkscape-stroke:none"
                 d="m 87.850669,124.71295 c -0.202088,0.30313 -0.612123,0.38514 -0.915255,0.18305 -0.303133,-0.20209 -0.38514,-0.61212 -0.183051,-0.91525 0.202088,-0.30314 0.612123,-0.38514 0.915255,-0.18306 0.303133,0.20209 0.38514,0.61213 0.183051,0.91526 z"
                 id="path1775" />
              <path
                 style="color:#000000;fill:#000000;fill-rule:evenodd;-inkscape-stroke:none"
                 d="m 87.716797,123.72461 c -0.342748,-0.22849 -0.808611,-0.13573 -1.03711,0.20703 -0.2285,0.34275 -0.135717,0.80861 0.207032,1.03711 0.342749,0.2285 0.80861,0.13572 1.037109,-0.20703 0.228501,-0.34275 0.135719,-0.80861 -0.207031,-1.03711 z m -0.09766,0.14648 c 0.263515,0.17568 0.33388,0.52946 0.158203,0.79297 -0.175677,0.26352 -0.529455,0.33388 -0.792969,0.15821 -0.263517,-0.17568 -0.33388,-0.52946 -0.158203,-0.79297 0.175677,-0.26353 0.529453,-0.33388 0.792969,-0.15821 z"
                 id="path1777" />
            </g>
            <g
               id="path1761">
              <path
                 style="color:#000000;fill:#000000;fill-rule:evenodd;stroke-width:0.132pt;-inkscape-stroke:none"
                 d="m 71.975669,114.12961 c -0.202088,0.30313 -0.612123,0.38514 -0.915255,0.18305 -0.303133,-0.20209 -0.38514,-0.61212 -0.183051,-0.91525 0.202088,-0.30314 0.612123,-0.38514 0.915255,-0.18306 0.303133,0.20209 0.38514,0.61213 0.183051,0.91526 z"
                 id="path1765" />
              <path
                 style="color:#000000;fill:#000000;fill-rule:evenodd;-inkscape-stroke:none"
                 d="m 71.841797,113.14063 c -0.342748,-0.22849 -0.808611,-0.13573 -1.03711,0.20703 -0.2285,0.34274 -0.135717,0.81056 0.207032,1.03906 0.342749,0.2285 0.80861,0.13376 1.037109,-0.20899 0.228501,-0.34274 0.135719,-0.8086 -0.207031,-1.0371 z m -0.09766,0.14648 c 0.263515,0.17568 0.33388,0.52946 0.158203,0.79297 -0.175677,0.26351 -0.529455,0.33583 -0.792969,0.16015 -0.263517,-0.17567 -0.33388,-0.5314 -0.158203,-0.79492 0.175677,-0.26352 0.529453,-0.33387 0.792969,-0.1582 z"
                 id="path1767" />
            </g>
          </g>
        </g>
        <g
           id="path877">
          <path
             style="color:#000000;fill:#000000;-inkscape-stroke:none"
             d="m 71.496094,113.71289 -0.117188,0.11719 15.875,15.875 0.117188,-0.11719 z"
             id="path1809" />
          <g
             id="g1787">
            <g
               id="path1799">
              <path
                 style="color:#000000;fill:#000000;fill-rule:evenodd;stroke-width:0.132pt;-inkscape-stroke:none"
                 d="m 87.769856,130.10319 c -0.257613,0.25761 -0.675768,0.25761 -0.933381,0 -0.257613,-0.25762 -0.257613,-0.67577 0,-0.93338 0.257613,-0.25762 0.675768,-0.25762 0.933381,0 0.257613,0.25761 0.257613,0.67576 0,0.93338 z"
                 id="path1803" />
              <path
                 style="color:#000000;fill:#000000;fill-rule:evenodd;-inkscape-stroke:none"
                 d="m 86.773437,129.10742 c -0.29128,0.29128 -0.291278,0.76731 0,1.0586 0.291281,0.29127 0.767313,0.29127 1.058594,0 0.291279,-0.29129 0.291281,-0.76732 0,-1.0586 -0.29128,-0.29129 -0.767313,-0.29129 -1.058594,0 z m 0.125,0.125 c 0.223946,-0.22395 0.584649,-0.22395 0.808594,0 0.223945,0.22394 0.223947,0.58464 0,0.8086 -0.223944,0.22394 -0.584649,0.22394 -0.808594,0 -0.223946,-0.22396 -0.223944,-0.58466 0,-0.8086 z"
                 id="path1805" />
            </g>
            <g
               id="path1789">
              <path
                 style="color:#000000;fill:#77767b;fill-rule:evenodd;stroke-width:0.132pt;-inkscape-stroke:none"
                 d="m 71.894856,114.22819 c -0.257613,0.25761 -0.675768,0.25761 -0.933381,0 -0.257613,-0.25762 -0.257613,-0.67577 0,-0.93338 0.257613,-0.25762 0.675768,-0.25762 0.933381,0 0.257613,0.25761 0.257613,0.67576 0,0.93338 z"
                 id="path1793" />
              <path
                 style="color:#000000;fill:#000000;fill-rule:evenodd;-inkscape-stroke:none"
                 d="m 70.898437,113.23242 c -0.29128,0.29128 -0.291278,0.76731 0,1.0586 0.291281,0.29127 0.767313,0.29127 1.058594,0 0.291279,-0.29129 0.291281,-0.76732 0,-1.0586 -0.29128,-0.29129 -0.767313,-0.29129 -1.058594,0 z m 0.125,0.125 c 0.223946,-0.22395 0.584649,-0.22395 0.808594,0 0.223945,0.22394 0.223947,0.58464 0,0.8086 -0.223944,0.22394 -0.584649,0.22394 -0.808594,0 -0.223946,-0.22396 -0.223944,-0.58466 0,-0.8086 z"
                 id="path1795" />
            </g>
          </g>
        </g>
        <g
           id="path869">
          <path
             style="color:#000000;fill:#000000;-inkscape-stroke:none"
             d="m 71.462891,108.40039 -0.07031,0.14649 15.875,10.58398 0.08984,-0.13672 -15.365235,-10.24414 15.294922,5.09961 0.05078,-0.15625 z"
             id="path1677" />
          <g
             id="g1645">
            <g
               id="path1667">
              <path
                 style="color:#000000;fill:#000000;fill-rule:evenodd;stroke-width:0.132pt;-inkscape-stroke:none"
                 d="m 87.85067,119.42128 c -0.202088,0.30313 -0.612123,0.38514 -0.915255,0.18305 -0.303133,-0.20209 -0.38514,-0.61212 -0.183051,-0.91525 0.202088,-0.30314 0.612122,-0.38514 0.915255,-0.18306 0.303133,0.20209 0.38514,0.61213 0.183051,0.91526 z"
                 id="path1671" />
              <path
                 style="color:#000000;fill:#000000;fill-rule:evenodd;-inkscape-stroke:none"
                 d="m 87.716797,118.43359 c -0.342749,-0.22849 -0.808611,-0.13572 -1.03711,0.20704 -0.2285,0.34274 -0.135717,0.8086 0.207032,1.0371 0.342749,0.22851 0.80861,0.13572 1.037109,-0.20703 0.228501,-0.34274 0.135719,-0.8086 -0.207031,-1.03711 z m -0.09766,0.14649 c 0.263515,0.17568 0.33388,0.52945 0.158203,0.79297 -0.175677,0.26351 -0.529455,0.33388 -0.792969,0.1582 -0.263517,-0.17568 -0.33388,-0.52946 -0.158203,-0.79297 0.175677,-0.26352 0.529452,-0.33387 0.792969,-0.1582 z"
                 id="path1673" />
            </g>
            <g
               id="path1657">
              <path
                 style="color:#000000;fill:#77767b;fill-rule:evenodd;stroke-width:0.132pt;-inkscape-stroke:none"
                 d="m 71.153327,109.0602 c -0.327275,-0.16006 -0.462981,-0.55559 -0.302917,-0.88286 0.160065,-0.32727 0.555586,-0.46298 0.88286,-0.30292 0.327275,0.16007 0.462981,0.55559 0.302917,0.88286 -0.160065,0.32728 -0.555586,0.46298 -0.88286,0.30292 z"
                 id="path1661" />
              <path
                 style="color:#000000;fill:#000000;fill-rule:evenodd;-inkscape-stroke:none"
                 d="m 71.771484,107.79492 c -0.370046,-0.18098 -0.819016,-0.0263 -1,0.34375 -0.180983,0.37004 -0.0263,0.81902 0.34375,1 0.370045,0.18098 0.819017,0.0283 1,-0.34179 0.180984,-0.37005 0.0263,-0.82097 -0.34375,-1.00196 z m -0.07617,0.15821 c 0.284505,0.13915 0.400864,0.48112 0.261719,0.76562 -0.139146,0.28451 -0.481122,0.40086 -0.765625,0.26172 -0.2845,-0.13914 -0.400863,-0.47918 -0.261719,-0.76367 0.139146,-0.2845 0.481124,-0.40282 0.765625,-0.26367 z"
                 id="path1663" />
            </g>
            <g
               id="path1647">
              <path
                 style="color:#000000;fill:#000000;fill-rule:evenodd;stroke-width:0.132pt;-inkscape-stroke:none"
                 d="m 86.698891,113.56629 c 0.115208,-0.34562 0.489216,-0.53262 0.834841,-0.41742 0.345624,0.11521 0.532629,0.48922 0.417421,0.83484 -0.115208,0.34563 -0.489217,0.53263 -0.834841,0.41743 -0.345625,-0.11521 -0.532629,-0.48922 -0.417421,-0.83485 z"
                 id="path1651" />
              <path
                 style="color:#000000;fill:#000000;fill-rule:evenodd;-inkscape-stroke:none"
                 d="m 87.5625,113.06445 c -0.390794,-0.13025 -0.817001,0.0838 -0.947266,0.47461 -0.130264,0.3908 0.08186,0.81505 0.472657,0.94532 0.390792,0.13025 0.817001,-0.0819 0.947265,-0.47266 0.130265,-0.39079 -0.08186,-0.817 -0.472656,-0.94727 z m -0.05664,0.16797 c 0.300454,0.10015 0.461479,0.42221 0.361328,0.72266 -0.100151,0.30046 -0.422201,0.46342 -0.722656,0.36328 -0.300455,-0.10015 -0.46148,-0.42415 -0.361328,-0.72461 0.100151,-0.30045 0.422201,-0.46147 0.722656,-0.36133 z"
                 id="path1653" />
            </g>
          </g>
        </g>
        <g
           id="path879">
          <path
             style="color:#000000;fill:#000000;-inkscape-stroke:none"
             d="m 87.267578,108.41016 -15.875,10.58398 0.08984,0.13672 15.875,-10.58398 z"
             id="path1837" />
          <g
             id="g1815">
            <g
               id="path1827">
              <path
                 style="color:#000000;fill:#000000;fill-rule:evenodd;stroke-width:0.132pt;-inkscape-stroke:none"
                 d="m 87.850669,108.12039 c 0.202089,0.30313 0.120082,0.71317 -0.183051,0.91526 -0.303133,0.20208 -0.713167,0.12008 -0.915255,-0.18306 -0.202089,-0.30313 -0.120082,-0.71316 0.183051,-0.91525 0.303132,-0.20209 0.713167,-0.12008 0.915255,0.18305 z"
                 id="path1831" />
              <path
                 style="color:#000000;fill:#000000;fill-rule:evenodd;-inkscape-stroke:none"
                 d="m 86.886719,107.86328 c -0.342749,0.2285 -0.435532,0.69632 -0.207032,1.03906 0.228499,0.34276 0.694361,0.43552 1.03711,0.20704 0.34275,-0.22851 0.435532,-0.69437 0.207031,-1.03711 -0.228499,-0.34275 -0.69436,-0.43749 -1.037109,-0.20899 z m 0.09766,0.14649 c 0.263514,-0.17568 0.617292,-0.10336 0.792969,0.16015 0.175677,0.26351 0.105312,0.61729 -0.158203,0.79297 -0.263517,0.17567 -0.617292,0.10532 -0.792969,-0.1582 -0.175677,-0.26352 -0.105314,-0.61925 0.158203,-0.79492 z"
                 id="path1833" />
            </g>
            <g
               id="path1817">
              <path
                 style="color:#000000;fill:#000000;fill-rule:evenodd;stroke-width:0.132pt;-inkscape-stroke:none"
                 d="m 71.975669,118.70372 c 0.202089,0.30313 0.120082,0.71317 -0.183051,0.91526 -0.303133,0.20208 -0.713167,0.12008 -0.915255,-0.18306 -0.202089,-0.30313 -0.120082,-0.71316 0.183051,-0.91525 0.303132,-0.20209 0.713167,-0.12008 0.915255,0.18305 z"
                 id="path1821" />
              <path
                 style="color:#000000;fill:#000000;fill-rule:evenodd;-inkscape-stroke:none"
                 d="m 71.011719,118.44727 c -0.342749,0.2285 -0.435532,0.69436 -0.207032,1.03711 0.228499,0.34275 0.694361,0.43552 1.03711,0.20703 0.34275,-0.22851 0.435532,-0.69437 0.207031,-1.03711 -0.228499,-0.34275 -0.69436,-0.43554 -1.037109,-0.20703 z m 0.09766,0.14648 c 0.263514,-0.17568 0.617292,-0.10531 0.792969,0.1582 0.175677,0.26352 0.105312,0.61729 -0.158203,0.79297 -0.263517,0.17567 -0.617292,0.10532 -0.792969,-0.1582 -0.175677,-0.26351 -0.105314,-0.61729 0.158203,-0.79297 z"
                 id="path1823" />
            </g>
          </g>
        </g>
        <g
           id="path881">
          <path
             style="color:#000000;fill:#000000;-inkscape-stroke:none"
             d="m 87.287109,113.69336 -16.111328,5.36914 16.111328,5.36914 0.05078,-0.15625 -15.640625,-5.21289 15.640625,-5.21289 z"
             id="path1875" />
          <g
             id="g1843">
            <g
               id="path1865">
              <path
                 style="color:#000000;fill:#000000;fill-rule:evenodd;stroke-width:0.132pt;-inkscape-stroke:none"
                 d="m 87.926108,124.55871 c -0.115208,0.34562 -0.489217,0.53262 -0.834841,0.41742 -0.345624,-0.11521 -0.532629,-0.48922 -0.417421,-0.83484 0.115209,-0.34563 0.489218,-0.53263 0.834842,-0.41743 0.345624,0.11521 0.532629,0.48922 0.41742,0.83485 z"
                 id="path1869" />
              <path
                 style="color:#000000;fill:#000000;fill-rule:evenodd;-inkscape-stroke:none"
                 d="m 87.537109,123.64063 c -0.390792,-0.13026 -0.817,0.0819 -0.947265,0.47265 -0.130265,0.39079 0.08186,0.817 0.472656,0.94727 0.390793,0.13025 0.817001,-0.0838 0.947266,-0.47461 0.130265,-0.3908 -0.08186,-0.81505 -0.472657,-0.94531 z m -0.05664,0.16601 c 0.300454,0.10015 0.46148,0.42415 0.361328,0.72461 -0.100151,0.30045 -0.422202,0.46147 -0.722656,0.36133 -0.300454,-0.10015 -0.461479,-0.42221 -0.361329,-0.72266 0.100153,-0.30046 0.422202,-0.46342 0.722657,-0.36328 z"
                 id="path1871" />
            </g>
            <g
               id="path1855">
              <path
                 style="color:#000000;fill:#000000;fill-rule:evenodd;stroke-width:0.132pt;-inkscape-stroke:none"
                 d="m 71.437499,119.7093 c -0.36432,0 -0.66,-0.29568 -0.66,-0.66 0,-0.36432 0.29568,-0.66 0.66,-0.66 0.36432,0 0.66,0.29568 0.66,0.66 0,0.36432 -0.29568,0.66 -0.66,0.66 z"
                 id="path1859" />
              <path
                 style="color:#000000;fill:#000000;fill-rule:evenodd;-inkscape-stroke:none"
                 d="m 71.4375,118.30078 c -0.411933,0 -0.748047,0.33612 -0.748047,0.74805 0,0.41193 0.336114,0.74804 0.748047,0.74805 0.411933,-1e-5 0.748047,-0.33612 0.748047,-0.74805 0,-0.41193 -0.336114,-0.74805 -0.748047,-0.74805 z m 0,0.17578 c 0.316706,0 0.572266,0.25556 0.572266,0.57227 0,0.3167 -0.25556,0.57226 -0.572266,0.57226 -0.316706,0 -0.572266,-0.25556 -0.572266,-0.57226 0,-0.31671 0.25556,-0.57227 0.572266,-0.57227 z"
                 id="path1861" />
            </g>
            <g
               id="path1845">
              <path
                 style="color:#000000;fill:#000000;fill-rule:evenodd;stroke-width:0.132pt;-inkscape-stroke:none"
                 d="m 86.698891,113.97537 c -0.115209,-0.34563 0.0718,-0.71964 0.41742,-0.83485 0.345624,-0.1152 0.719633,0.0718 0.834842,0.41743 0.115208,0.34562 -0.0718,0.71963 -0.417421,0.83484 -0.345624,0.1152 -0.719633,-0.0718 -0.834841,-0.41742 z"
                 id="path1849" />
              <path
                 style="color:#000000;fill:#000000;fill-rule:evenodd;-inkscape-stroke:none"
                 d="m 87.087891,113.05664 c -0.39079,0.13027 -0.602922,0.55647 -0.472657,0.94727 0.130265,0.39079 0.556473,0.60291 0.947266,0.47265 0.390791,-0.13026 0.602921,-0.55647 0.472656,-0.94726 -0.130265,-0.3908 -0.556473,-0.60291 -0.947265,-0.47266 z m 0.05664,0.16797 c 0.300455,-0.10015 0.622504,0.0609 0.722656,0.36133 0.100151,0.30045 -0.06088,0.6225 -0.361328,0.72265 -0.300454,0.10015 -0.622505,-0.0609 -0.722656,-0.36132 -0.100152,-0.30046 0.06088,-0.62251 0.361328,-0.72266 z"
                 id="path1851" />
            </g>
          </g>
        </g>
        <g
           id="path883">
          <path
             style="color:#000000;fill:#000000;-inkscape-stroke:none"
             d="m 71.482422,118.99414 -0.08984,0.13672 15.875,10.58398 0.08984,-0.13672 z"
             id="path1903" />
          <g
             id="g1881">
            <g
               id="path1893">
              <path
                 style="color:#000000;fill:#000000;fill-rule:evenodd;stroke-width:0.132pt;-inkscape-stroke:none"
                 d="m 87.850669,130.00461 c -0.202088,0.30313 -0.612123,0.38514 -0.915255,0.18305 -0.303133,-0.20209 -0.38514,-0.61212 -0.183051,-0.91525 0.202088,-0.30314 0.612122,-0.38514 0.915255,-0.18306 0.303133,0.20209 0.38514,0.61213 0.183051,0.91526 z"
                 id="path1897" />
              <path
                 style="color:#000000;fill:#000000;fill-rule:evenodd;-inkscape-stroke:none"
                 d="m 87.716797,129.01562 c -0.342749,-0.22848 -0.808611,-0.13572 -1.03711,0.20704 -0.2285,0.34274 -0.135717,0.81056 0.207032,1.03906 0.342749,0.2285 0.80861,0.13376 1.037109,-0.20899 0.228501,-0.34274 0.135719,-0.8086 -0.207031,-1.03711 z m -0.09766,0.14649 c 0.263515,0.17568 0.33388,0.52946 0.158203,0.79297 -0.175677,0.26351 -0.529455,0.33583 -0.792969,0.16015 -0.263517,-0.17567 -0.33388,-0.5314 -0.158203,-0.79492 0.175677,-0.26352 0.529452,-0.33387 0.792969,-0.1582 z"
                 id="path1899" />
            </g>
            <g
               id="path1883">
              <path
                 style="color:#000000;fill:#77767b;fill-rule:evenodd;stroke-width:0.132pt;-inkscape-stroke:none"
                 d="m 71.975669,119.42128 c -0.202088,0.30313 -0.612123,0.38514 -0.915255,0.18305 -0.303133,-0.20209 -0.38514,-0.61212 -0.183051,-0.91525 0.202088,-0.30314 0.612122,-0.38514 0.915255,-0.18306 0.303133,0.20209 0.38514,0.61213 0.183051,0.91526 z"
                 id="path1887" />
              <path
                 style="color:#000000;fill:#000000;fill-rule:evenodd;-inkscape-stroke:none"
                 d="m 71.841797,118.43359 c -0.342749,-0.22849 -0.808611,-0.13572 -1.03711,0.20704 -0.2285,0.34274 -0.135717,0.8086 0.207032,1.0371 0.342749,0.22851 0.80861,0.13572 1.037109,-0.20703 0.228501,-0.34274 0.135719,-0.8086 -0.207031,-1.03711 z m -0.09766,0.14649 c 0.263515,0.17568 0.33388,0.52945 0.158203,0.79297 -0.175677,0.26351 -0.529455,0.33388 -0.792969,0.1582 -0.263517,-0.17568 -0.33388,-0.52946 -0.158203,-0.79297 0.175677,-0.26352 0.529452,-0.33387 0.792969,-0.1582 z"
                 id="path1889" />
            </g>
          </g>
        </g>
        <g
           id="path885">
          <path
             style="color:#000000;fill:#000000;-inkscape-stroke:none"
             d="m 87.253906,108.41992 -15.875,15.875 0.117188,0.11719 15.875,-15.875 z"
             id="path1931" />
          <g
             id="g1909">
            <g
               id="path1921">
              <path
                 style="color:#000000;fill:#000000;fill-rule:evenodd;stroke-width:0.132pt;-inkscape-stroke:none"
                 d="m 87.769856,108.02181 c 0.257613,0.25762 0.257613,0.67577 0,0.93338 -0.257613,0.25762 -0.675768,0.25762 -0.933381,0 -0.257613,-0.25761 -0.257613,-0.67576 0,-0.93338 0.257613,-0.25761 0.675768,-0.25761 0.933381,0 z"
                 id="path1925" />
              <path
                 style="color:#000000;fill:#000000;fill-rule:evenodd;-inkscape-stroke:none"
                 d="m 86.773437,107.95898 c -0.291278,0.29129 -0.29128,0.76732 0,1.0586 0.291281,0.29129 0.767314,0.29129 1.058594,0 0.291281,-0.29128 0.291279,-0.76731 0,-1.0586 -0.291281,-0.29127 -0.767313,-0.29127 -1.058594,0 z m 0.125,0.125 c 0.223945,-0.22394 0.58465,-0.22394 0.808594,0 0.223947,0.22396 0.223945,0.58466 0,0.8086 -0.223945,0.22395 -0.584648,0.22395 -0.808594,0 -0.223944,-0.22394 -0.223946,-0.58464 0,-0.8086 z"
                 id="path1927" />
            </g>
            <g
               id="path1911">
              <path
                 style="color:#000000;fill:#000000;fill-rule:evenodd;stroke-width:0.132pt;-inkscape-stroke:none"
                 d="m 71.894856,123.89681 c 0.257613,0.25762 0.257613,0.67577 0,0.93338 -0.257613,0.25762 -0.675768,0.25762 -0.933381,0 -0.257613,-0.25761 -0.257613,-0.67576 0,-0.93338 0.257613,-0.25761 0.675768,-0.25761 0.933381,0 z"
                 id="path1915" />
              <path
                 style="color:#000000;fill:#000000;fill-rule:evenodd;-inkscape-stroke:none"
                 d="m 70.898437,123.83398 c -0.291278,0.29129 -0.29128,0.76732 0,1.0586 0.291281,0.29129 0.767314,0.29129 1.058594,0 0.291281,-0.29128 0.291279,-0.76731 0,-1.0586 -0.291281,-0.29127 -0.767313,-0.29127 -1.058594,0 z m 0.125,0.125 c 0.223945,-0.22394 0.58465,-0.22394 0.808594,0 0.223947,0.22396 0.223945,0.58466 0,0.8086 -0.223945,0.22395 -0.584648,0.22395 -0.808594,0 -0.223944,-0.22394 -0.223946,-0.58464 0,-0.8086 z"
                 id="path1917" />
            </g>
          </g>
        </g>
        <g
           id="path887">
          <path
             style="color:#000000;fill:#000000;-inkscape-stroke:none"
             d="m 87.267578,113.70313 -15.875,10.58203 0.07031,0.14648 15.875,-5.29101 -0.05078,-0.15625 -15.294922,5.09765 15.365235,-10.24219 z"
             id="path1969" />
          <g
             id="g1937">
            <g
               id="path1959">
              <path
                 style="color:#000000;fill:#000000;fill-rule:evenodd;stroke-width:0.132pt;-inkscape-stroke:none"
                 d="m 87.926108,118.85796 c 0.115209,0.34563 -0.0718,0.71964 -0.41742,0.83485 -0.345624,0.1152 -0.719633,-0.0718 -0.834842,-0.41743 -0.115208,-0.34562 0.0718,-0.71963 0.417421,-0.83484 0.345624,-0.1152 0.719633,0.0718 0.834841,0.41742 z"
                 id="path1963" />
              <path
                 style="color:#000000;fill:#000000;fill-rule:evenodd;-inkscape-stroke:none"
                 d="m 87.0625,118.35742 c -0.390791,0.13027 -0.602921,0.55452 -0.472656,0.94531 0.130265,0.3908 0.556473,0.60292 0.947265,0.47266 0.39079,-0.13027 0.602922,-0.55451 0.472657,-0.94531 -0.130265,-0.39079 -0.556473,-0.60291 -0.947266,-0.47266 z m 0.05664,0.16602 c 0.300454,-0.10015 0.622505,0.0628 0.722656,0.36328 0.100152,0.30046 -0.06088,0.6225 -0.361328,0.72266 -0.300455,0.10014 -0.622504,-0.0609 -0.722657,-0.36133 -0.10015,-0.30045 0.06088,-0.62446 0.361329,-0.72461 z"
                 id="path1965" />
            </g>
            <g
               id="path1949">
              <path
                 style="color:#000000;fill:#000000;fill-rule:evenodd;stroke-width:0.132pt;-inkscape-stroke:none"
                 d="m 71.721672,124.9352 c -0.327275,0.16006 -0.722796,0.0244 -0.88286,-0.30292 -0.160065,-0.32727 -0.02436,-0.72279 0.302915,-0.88286 0.327275,-0.16006 0.722796,-0.0243 0.882861,0.30292 0.160064,0.32727 0.02436,0.7228 -0.302916,0.88286 z"
                 id="path1953" />
              <path
                 style="color:#000000;fill:#000000;fill-rule:evenodd;-inkscape-stroke:none"
                 d="m 71.103516,123.66992 c -0.370046,0.18099 -0.524735,0.63191 -0.34375,1.00196 0.18098,0.37009 0.629959,0.52277 1,0.34179 0.370049,-0.18098 0.524733,-0.62996 0.34375,-1 -0.180987,-0.36999 -0.629947,-0.52473 -1,-0.34375 z m 0.07617,0.15821 c 0.284496,-0.13914 0.626482,-0.0208 0.765625,0.26367 0.139145,0.28449 0.02278,0.62453 -0.261718,0.76367 -0.284509,0.13914 -0.626478,0.0228 -0.765625,-0.26172 -0.139146,-0.2845 -0.02279,-0.62647 0.261718,-0.76562 z"
                 id="path1955" />
            </g>
            <g
               id="path1939">
              <path
                 style="color:#000000;fill:#000000;fill-rule:evenodd;stroke-width:0.132pt;-inkscape-stroke:none"
                 d="m 86.774329,114.12961 c -0.202089,-0.30313 -0.120082,-0.71317 0.183051,-0.91526 0.303132,-0.20208 0.713167,-0.12008 0.915255,0.18306 0.202089,0.30313 0.120082,0.71316 -0.183051,0.91525 -0.303132,0.20209 -0.713167,0.12008 -0.915255,-0.18305 z"
                 id="path1943" />
              <path
                 style="color:#000000;fill:#000000;fill-rule:evenodd;-inkscape-stroke:none"
                 d="m 86.908203,113.14063 c -0.34275,0.2285 -0.435532,0.69436 -0.207031,1.0371 0.228499,0.34275 0.69436,0.43749 1.037109,0.20899 0.342749,-0.2285 0.435532,-0.69632 0.207031,-1.03906 -0.228498,-0.34276 -0.694361,-0.43552 -1.037109,-0.20703 z m 0.09766,0.14648 c 0.263516,-0.17567 0.617292,-0.10532 0.792969,0.1582 0.175677,0.26352 0.105314,0.61925 -0.158203,0.79492 -0.263514,0.17568 -0.617292,0.10336 -0.792969,-0.16015 -0.175677,-0.26351 -0.105312,-0.61729 0.158203,-0.79297 z"
                 id="path1945" />
            </g>
          </g>
        </g>
        <g
           id="path889">
          <path
             style="color:#000000;fill:#000000;-inkscape-stroke:none"
             d="m 71.462891,124.27539 -0.05078,0.15625 15.875,5.29297 0.05078,-0.15625 z"
             id="path1997" />
          <g
             id="g1975">
            <g
               id="path1987">
              <path
                 style="color:#000000;fill:#77767b;fill-rule:evenodd;stroke-width:0.132pt;-inkscape-stroke:none"
                 d="m 87.926107,129.85037 c -0.115208,0.34562 -0.489216,0.53262 -0.834841,0.41742 -0.345624,-0.11521 -0.532629,-0.48922 -0.417421,-0.83484 0.115208,-0.34563 0.489217,-0.53263 0.834841,-0.41743 0.345625,0.11521 0.532629,0.48922 0.417421,0.83485 z"
                 id="path1991" />
              <path
                 style="color:#000000;fill:#000000;fill-rule:evenodd;-inkscape-stroke:none"
                 d="m 87.537109,128.93164 c -0.390792,-0.13025 -0.817001,0.0819 -0.947265,0.47266 -0.130265,0.39079 0.08186,0.817 0.472656,0.94726 0.390794,0.13026 0.817001,-0.0819 0.947266,-0.47265 0.130264,-0.3908 -0.08186,-0.817 -0.472657,-0.94727 z m -0.05664,0.16797 c 0.300455,0.10015 0.46148,0.4222 0.361328,0.72266 -0.100151,0.30044 -0.422201,0.46147 -0.722656,0.36132 -0.300454,-0.10015 -0.461479,-0.4222 -0.361329,-0.72265 0.100152,-0.30046 0.422202,-0.46148 0.722657,-0.36133 z"
                 id="path1993" />
            </g>
            <g
               id="path1977">
              <path
                 style="color:#000000;fill:#77767b;fill-rule:evenodd;stroke-width:0.132pt;-inkscape-stroke:none"
                 d="m 72.051107,124.55871 c -0.115208,0.34562 -0.489216,0.53262 -0.834841,0.41742 -0.345624,-0.11521 -0.532629,-0.48922 -0.417421,-0.83484 0.115208,-0.34563 0.489217,-0.53263 0.834841,-0.41743 0.345625,0.11521 0.532629,0.48922 0.417421,0.83485 z"
                 id="path1981" />
              <path
                 style="color:#000000;fill:#000000;fill-rule:evenodd;-inkscape-stroke:none"
                 d="m 71.662109,123.64063 c -0.390792,-0.13026 -0.817001,0.0819 -0.947265,0.47265 -0.130265,0.39079 0.08186,0.817 0.472656,0.94727 0.390794,0.13025 0.817001,-0.0838 0.947266,-0.47461 0.130264,-0.3908 -0.08186,-0.81505 -0.472657,-0.94531 z m -0.05664,0.16601 c 0.300455,0.10015 0.46148,0.42415 0.361328,0.72461 -0.100151,0.30045 -0.422201,0.46147 -0.722656,0.36133 -0.300454,-0.10015 -0.461479,-0.42221 -0.361329,-0.72266 0.100152,-0.30046 0.422202,-0.46342 0.722657,-0.36328 z"
                 id="path1983" />
            </g>
          </g>
        </g>
        <g
           id="path891">
          <path
             style="color:#000000;fill:#000000;-inkscape-stroke:none"
             d="m 87.246094,108.42969 -15.875,21.16601 0.125,0.10938 0.0078,-0.01 15.867188,-15.86523 -0.117188,-0.11719 -15.052734,15.05273 15.177734,-20.23632 z"
             id="path2035" />
          <g
             id="g2003">
            <g
               id="path2025">
              <path
                 style="color:#000000;fill:#77767b;fill-rule:evenodd;stroke-width:0.132pt;-inkscape-stroke:none"
                 d="m 87.769857,113.31347 c 0.257613,0.25762 0.257613,0.67577 0,0.93338 -0.257613,0.25762 -0.675768,0.25762 -0.933381,0 -0.257613,-0.25761 -0.257613,-0.67576 0,-0.93338 0.257613,-0.25761 0.675768,-0.25761 0.933381,0 z"
                 id="path2029" />
              <path
                 style="color:#000000;fill:#000000;fill-rule:evenodd;-inkscape-stroke:none"
                 d="m 86.773437,113.25195 c -0.291278,0.29129 -0.29128,0.76537 0,1.05664 0.291281,0.29129 0.767314,0.29129 1.058594,0 0.291281,-0.29127 0.291279,-0.76535 0,-1.05664 -0.291281,-0.29127 -0.767313,-0.29127 -1.058594,0 z m 0.125,0.12305 c 0.223945,-0.22394 0.58465,-0.22394 0.808594,0 0.223947,0.22395 0.223945,0.5866 0,0.81055 -0.223945,0.22395 -0.584648,0.22395 -0.808594,0 -0.223944,-0.22395 -0.223946,-0.5866 0,-0.81055 z"
                 id="path2031" />
            </g>
            <g
               id="path2015">
              <path
                 style="color:#000000;fill:#000000;fill-rule:evenodd;stroke-width:0.132pt;-inkscape-stroke:none"
                 d="m 71.926127,130.06961 c -0.238704,0.27523 -0.655806,0.30487 -0.931033,0.0662 -0.275227,-0.2387 -0.30487,-0.6558 -0.06617,-0.93103 0.238704,-0.27523 0.655806,-0.30487 0.931033,-0.0662 0.275227,0.2387 0.30487,0.65581 0.06617,0.93103 z"
                 id="path2019" />
              <path
                 style="color:#000000;fill:#000000;fill-rule:evenodd;-inkscape-stroke:none"
                 d="m 71.917969,129.07227 c -0.311198,-0.26987 -0.784788,-0.23699 -1.054688,0.0742 -0.269895,0.3112 -0.236978,0.78675 0.07422,1.05664 0.311198,0.26987 0.784787,0.23503 1.054687,-0.0762 0.269898,-0.31119 0.23698,-0.78479 -0.07422,-1.05468 z m -0.115235,0.13281 c 0.239256,0.2075 0.264143,0.56739 0.05664,0.80664 -0.207507,0.23926 -0.567385,0.26412 -0.806641,0.0566 -0.239256,-0.2075 -0.264145,-0.56738 -0.05664,-0.80664 0.207507,-0.23926 0.567385,-0.26412 0.806641,-0.0566 z"
                 id="path2021" />
            </g>
            <g
               id="path2005">
              <path
                 style="color:#000000;fill:#77767b;fill-rule:evenodd;stroke-width:0.132pt;-inkscape-stroke:none"
                 d="m 86.924419,108.99661 c -0.291456,-0.21859 -0.350592,-0.63254 -0.132,-0.924 0.218592,-0.29146 0.632544,-0.35059 0.924,-0.132 0.291456,0.21859 0.350592,0.63254 0.132,0.924 -0.218592,0.29146 -0.632544,0.35059 -0.924,0.132 z"
                 id="path2009" />
              <path
                 style="color:#000000;fill:#000000;fill-rule:evenodd;-inkscape-stroke:none"
                 d="m 87.769531,107.87109 c -0.329546,-0.24715 -0.799715,-0.18111 -1.046875,0.14844 -0.247159,0.32955 -0.181109,0.79972 0.148438,1.04688 0.329546,0.24715 0.799715,0.18111 1.046875,-0.14844 0.247159,-0.32955 0.181109,-0.79972 -0.148438,-1.04688 z m -0.105469,0.14063 c 0.253365,0.19002 0.303306,0.54741 0.113282,0.80078 -0.190024,0.25337 -0.547416,0.3033 -0.800782,0.11328 -0.253364,-0.19002 -0.303305,-0.54741 -0.113281,-0.80078 0.190024,-0.25337 0.547416,-0.3033 0.800781,-0.11328 z"
                 id="path2011" />
            </g>
          </g>
        </g>
        <g
           id="path893">
          <path
             style="color:#000000;fill:#000000;-inkscape-stroke:none"
             d="m 87.267578,118.99414 -15.875,10.58398 0.07031,0.14649 15.875,-5.29297 -0.05078,-0.15625 -15.294922,5.09961 15.365235,-10.24414 z"
             id="path2073" />
          <g
             id="g2041">
            <g
               id="path2063">
              <path
                 style="color:#000000;fill:#77767b;fill-rule:evenodd;stroke-width:0.132pt;-inkscape-stroke:none"
                 d="m 87.926108,124.14963 c 0.115208,0.34563 -0.0718,0.71964 -0.417421,0.83485 -0.345624,0.1152 -0.719633,-0.0718 -0.834841,-0.41743 -0.115208,-0.34562 0.0718,-0.71963 0.417421,-0.83484 0.345625,-0.1152 0.719633,0.0718 0.834841,0.41742 z"
                 id="path2067" />
              <path
                 style="color:#000000;fill:#000000;fill-rule:evenodd;-inkscape-stroke:none"
                 d="m 87.0625,123.64844 c -0.390791,0.13026 -0.602921,0.55647 -0.472656,0.94726 0.130264,0.3908 0.556473,0.60291 0.947265,0.47266 0.390791,-0.13027 0.602921,-0.55647 0.472657,-0.94727 -0.130265,-0.39079 -0.556472,-0.60291 -0.947266,-0.47265 z m 0.05664,0.16797 c 0.300455,-0.10015 0.622505,0.0609 0.722656,0.36132 0.100151,0.30046 -0.06088,0.62251 -0.361328,0.72266 -0.300455,0.10015 -0.622505,-0.0609 -0.722657,-0.36133 -0.10015,-0.30045 0.06088,-0.6225 0.361329,-0.72265 z"
                 id="path2069" />
            </g>
            <g
               id="path2053">
              <path
                 style="color:#000000;fill:#77767b;fill-rule:evenodd;stroke-width:0.132pt;-inkscape-stroke:none"
                 d="m 71.721671,130.22686 c -0.327274,0.16006 -0.722795,0.0244 -0.88286,-0.30292 -0.160064,-0.32727 -0.02436,-0.72279 0.302917,-0.88286 0.327274,-0.16006 0.722795,-0.0243 0.88286,0.30292 0.160064,0.32727 0.02436,0.7228 -0.302917,0.88286 z"
                 id="path2057" />
              <path
                 style="color:#000000;fill:#000000;fill-rule:evenodd;-inkscape-stroke:none"
                 d="m 71.103516,128.96289 c -0.370048,0.18099 -0.524734,0.62996 -0.34375,1 0.180981,0.37009 0.62996,0.52473 1,0.34375 0.37005,-0.18098 0.524733,-0.63191 0.34375,-1.00195 -0.180987,-0.36999 -0.629948,-0.52278 -1,-0.3418 z m 0.07617,0.1582 c 0.284495,-0.13913 0.626482,-0.0227 0.765625,0.26172 0.139145,0.2845 0.02278,0.62649 -0.261718,0.76563 -0.284508,0.13914 -0.626477,0.0209 -0.765625,-0.26367 -0.139145,-0.2845 -0.02279,-0.62453 0.261718,-0.76368 z"
                 id="path2059" />
            </g>
            <g
               id="path2043">
              <path
                 style="color:#000000;fill:#77767b;fill-rule:evenodd;stroke-width:0.132pt;-inkscape-stroke:none"
                 d="m 86.774329,119.42128 c -0.202089,-0.30313 -0.120082,-0.71317 0.183051,-0.91526 0.303133,-0.20208 0.713167,-0.12008 0.915255,0.18306 0.202089,0.30313 0.120082,0.71316 -0.183051,0.91525 -0.303132,0.20209 -0.713167,0.12008 -0.915255,-0.18305 z"
                 id="path2047" />
              <path
                 style="color:#000000;fill:#000000;fill-rule:evenodd;-inkscape-stroke:none"
                 d="m 86.908203,118.43359 c -0.34275,0.22851 -0.435532,0.69437 -0.207031,1.03711 0.228499,0.34275 0.69436,0.43554 1.037109,0.20703 0.342749,-0.2285 0.435532,-0.69436 0.207031,-1.0371 -0.228498,-0.34276 -0.69436,-0.43553 -1.037109,-0.20704 z m 0.09766,0.14649 c 0.263517,-0.17567 0.617292,-0.10532 0.792969,0.1582 0.175677,0.26351 0.105314,0.61729 -0.158203,0.79297 -0.263514,0.17568 -0.617292,0.10531 -0.792969,-0.1582 -0.175677,-0.26352 -0.105312,-0.61729 0.158203,-0.79297 z"
                 id="path2049" />
            </g>
          </g>
        </g>
      </g>
      <g
         id="g2976"
         transform="matrix(0.76344,0,0,0.76344,23.034314,2.3027828)">
        <g
           style="fill:#000000;fill-opacity:1"
           id="id-289cdf40-4843-4943-9506-4fe6753bc715"
           transform="matrix(0.375579,0,0,0.375579,2.8373318,87.374927)">
          <g
             transform="translate(148.712,134.765)"
             id="g2525">
            <path
               style="stroke:none;stroke-width:0"
               d="m 4.671875,-3.703125 c 0,-0.546875 -0.265625,-0.703125 -0.4375,-0.703125 -0.25,0 -0.5,0.265625 -0.5,0.484375 0,0.125 0.046875,0.1875 0.15625,0.296875 0.21875,0.203125 0.34375,0.453125 0.34375,0.8125 0,0.421875 -0.609375,2.703125 -1.765625,2.703125 -0.515625,0 -0.75,-0.34375 -0.75,-0.875 0,-0.546875 0.28125,-1.28125 0.578125,-2.109375 0.078125,-0.171875 0.125,-0.3125 0.125,-0.5 0,-0.4375 -0.3125,-0.8125 -0.8125,-0.8125 -0.9375,0 -1.3125,1.453125 -1.3125,1.53125 0,0.109375 0.09375,0.109375 0.109375,0.109375 0.109375,0 0.109375,-0.03125 0.15625,-0.1875 0.296875,-1 0.71875,-1.234375 1.015625,-1.234375 0.078125,0 0.25,0 0.25,0.3125 0,0.25 -0.109375,0.53125 -0.171875,0.703125 -0.4375,1.15625 -0.5625,1.609375 -0.5625,2.046875 0,1.078125 0.875,1.234375 1.328125,1.234375 1.671875,0 2.25,-3.296875 2.25,-3.8125 z m 0,0"
               id="id-1723c556-62c8-44ac-b578-8bf60866bfcb" />
          </g>
        </g>
        <g
           style="fill:#000000;fill-opacity:1"
           id="id-48c2e6e1-bef9-4308-a8dc-65432b723aa5"
           transform="matrix(0.375579,0,0,0.375579,2.8373318,87.374927)">
          <g
             transform="translate(153.541,136.259)"
             id="g2529">
            <path
               style="stroke:none;stroke-width:0"
               d="m 2.328125,-4.4375 c 0,-0.1875 0,-0.1875 -0.203125,-0.1875 -0.453125,0.4375 -1.078125,0.4375 -1.359375,0.4375 v 0.25 c 0.15625,0 0.625,0 1,-0.1875 v 3.546875 c 0,0.234375 0,0.328125 -0.6875,0.328125 H 0.8125 V 0 c 0.125,0 0.984375,-0.03125 1.234375,-0.03125 0.21875,0 1.09375,0.03125 1.25,0.03125 V -0.25 H 3.03125 c -0.703125,0 -0.703125,-0.09375 -0.703125,-0.328125 z m 0,0"
               id="id-cbb85cb9-cd43-4d59-a7a0-356165ca38c8" />
          </g>
        </g>
      </g>
      <g
         id="g3032"
         transform="translate(-0.21468537,-1.1807695)">
        <g
           style="fill:#000000;fill-opacity:1"
           id="id-04ef30cd-df9a-411f-a16a-472b523373c5"
           transform="matrix(0.28673203,0,0,0.28673203,43.341361,70.081725)">
          <g
             transform="translate(158.011,134.765)"
             id="g2533">
            <path
               style="stroke:none;stroke-width:0"
               d="m 4.671875,-3.703125 c 0,-0.546875 -0.265625,-0.703125 -0.4375,-0.703125 -0.25,0 -0.5,0.265625 -0.5,0.484375 0,0.125 0.046875,0.1875 0.15625,0.296875 0.21875,0.203125 0.34375,0.453125 0.34375,0.8125 0,0.421875 -0.609375,2.703125 -1.765625,2.703125 -0.515625,0 -0.75,-0.34375 -0.75,-0.875 0,-0.546875 0.28125,-1.28125 0.578125,-2.109375 0.078125,-0.171875 0.125,-0.3125 0.125,-0.5 0,-0.4375 -0.3125,-0.8125 -0.8125,-0.8125 -0.9375,0 -1.3125,1.453125 -1.3125,1.53125 0,0.109375 0.09375,0.109375 0.109375,0.109375 0.109375,0 0.109375,-0.03125 0.15625,-0.1875 0.296875,-1 0.71875,-1.234375 1.015625,-1.234375 0.078125,0 0.25,0 0.25,0.3125 0,0.25 -0.109375,0.53125 -0.171875,0.703125 -0.4375,1.15625 -0.5625,1.609375 -0.5625,2.046875 0,1.078125 0.875,1.234375 1.328125,1.234375 1.671875,0 2.25,-3.296875 2.25,-3.8125 z m 0,0"
               id="id-a0d09674-6501-464a-b709-24c06eb17a05" />
          </g>
        </g>
        <g
           style="fill:#000000;fill-opacity:1"
           id="id-17dbece2-0bcf-4bdf-982e-90d594da184a"
           transform="matrix(0.28673203,0,0,0.28673203,43.341361,70.081725)">
          <g
             transform="translate(162.84,136.259)"
             id="g2537">
            <path
               style="stroke:none;stroke-width:0"
               d="M 3.515625,-1.265625 H 3.28125 c -0.015625,0.15625 -0.09375,0.5625 -0.1875,0.625 C 3.046875,-0.59375 2.515625,-0.59375 2.40625,-0.59375 H 1.125 c 0.734375,-0.640625 0.984375,-0.84375 1.390625,-1.171875 0.515625,-0.40625 1,-0.84375 1,-1.5 0,-0.84375 -0.734375,-1.359375 -1.625,-1.359375 -0.859375,0 -1.453125,0.609375 -1.453125,1.25 0,0.34375 0.296875,0.390625 0.375,0.390625 0.15625,0 0.359375,-0.125 0.359375,-0.375 0,-0.125 -0.046875,-0.375 -0.40625,-0.375 C 0.984375,-4.21875 1.453125,-4.375 1.78125,-4.375 c 0.703125,0 1.0625,0.546875 1.0625,1.109375 0,0.609375 -0.4375,1.078125 -0.65625,1.328125 L 0.515625,-0.265625 C 0.4375,-0.203125 0.4375,-0.1875 0.4375,0 h 2.875 z m 0,0"
               id="id-0b6a766f-fafe-427e-9997-ecc82c1634a6" />
          </g>
        </g>
      </g>
      <g
         id="g3040"
         transform="translate(3.4349659,-24.36679)">
        <g
           style="fill:#000000;fill-opacity:1"
           id="id-62e0f2ab-cb6d-47ba-bf3f-18294f719e3b"
           transform="matrix(0.28673203,0,0,0.28673203,16.076319,98.956907)">
          <g
             transform="translate(167.309,134.765)"
             id="g2541">
            <path
               style="stroke:none;stroke-width:0"
               d="m 4.671875,-3.703125 c 0,-0.546875 -0.265625,-0.703125 -0.4375,-0.703125 -0.25,0 -0.5,0.265625 -0.5,0.484375 0,0.125 0.046875,0.1875 0.15625,0.296875 0.21875,0.203125 0.34375,0.453125 0.34375,0.8125 0,0.421875 -0.609375,2.703125 -1.765625,2.703125 -0.515625,0 -0.75,-0.34375 -0.75,-0.875 0,-0.546875 0.28125,-1.28125 0.578125,-2.109375 0.078125,-0.171875 0.125,-0.3125 0.125,-0.5 0,-0.4375 -0.3125,-0.8125 -0.8125,-0.8125 -0.9375,0 -1.3125,1.453125 -1.3125,1.53125 0,0.109375 0.09375,0.109375 0.109375,0.109375 0.109375,0 0.109375,-0.03125 0.15625,-0.1875 0.296875,-1 0.71875,-1.234375 1.015625,-1.234375 0.078125,0 0.25,0 0.25,0.3125 0,0.25 -0.109375,0.53125 -0.171875,0.703125 -0.4375,1.15625 -0.5625,1.609375 -0.5625,2.046875 0,1.078125 0.875,1.234375 1.328125,1.234375 1.671875,0 2.25,-3.296875 2.25,-3.8125 z m 0,0"
               id="id-d73cc604-0357-4802-8d39-471557cf0660" />
          </g>
        </g>
        <g
           style="fill:#000000;fill-opacity:1"
           id="id-ff631859-d493-4c33-b995-199cf5ae6336"
           transform="matrix(0.28673203,0,0,0.28673203,16.076319,98.956907)">
          <g
             transform="translate(172.138,136.259)"
             id="g2545">
            <path
               style="stroke:none;stroke-width:0"
               d="m 1.90625,-2.328125 c 0.546875,0 0.9375,0.375 0.9375,1.125 0,0.859375 -0.515625,1.125 -0.90625,1.125 -0.28125,0 -0.90625,-0.078125 -1.1875,-0.5 0.328125,0 0.40625,-0.234375 0.40625,-0.390625 0,-0.21875 -0.171875,-0.375 -0.390625,-0.375 -0.1875,0 -0.390625,0.125 -0.390625,0.40625 0,0.65625 0.71875,1.078125 1.5625,1.078125 0.96875,0 1.640625,-0.65625 1.640625,-1.34375 0,-0.546875 -0.4375,-1.09375 -1.203125,-1.25 0.71875,-0.265625 0.984375,-0.78125 0.984375,-1.21875 0,-0.546875 -0.625,-0.953125 -1.40625,-0.953125 -0.765625,0 -1.359375,0.375 -1.359375,0.9375 0,0.234375 0.15625,0.359375 0.359375,0.359375 0.21875,0 0.359375,-0.15625 0.359375,-0.34375 0,-0.203125 -0.140625,-0.359375 -0.359375,-0.375 0.25,-0.296875 0.71875,-0.375 0.984375,-0.375 0.3125,0 0.75,0.15625 0.75,0.75 0,0.296875 -0.09375,0.625 -0.28125,0.828125 -0.21875,0.265625 -0.421875,0.28125 -0.765625,0.3125 -0.171875,0.015625 -0.1875,0.015625 -0.21875,0.015625 -0.015625,0 -0.078125,0.015625 -0.078125,0.09375 0,0.09375 0.0625,0.09375 0.1875,0.09375 z m 0,0"
               id="id-e2982d00-ad73-455f-b023-f26c0a7c8a3b" />
          </g>
        </g>
      </g>
      <g
         id="g3048"
         transform="translate(21.57588,-24.259447)">
        <g
           style="fill:#000000;fill-opacity:1"
           id="id-b7c9d8de-d005-4b01-b7dc-33476d0e9e15"
           transform="matrix(0.28673203,0,0,0.28673203,16.076319,98.956907)">
          <g
             transform="translate(176.608,134.765)"
             id="g2549">
            <path
               style="stroke:none;stroke-width:0"
               d="m 4.671875,-3.703125 c 0,-0.546875 -0.265625,-0.703125 -0.4375,-0.703125 -0.25,0 -0.5,0.265625 -0.5,0.484375 0,0.125 0.046875,0.1875 0.15625,0.296875 0.21875,0.203125 0.34375,0.453125 0.34375,0.8125 0,0.421875 -0.609375,2.703125 -1.765625,2.703125 -0.515625,0 -0.75,-0.34375 -0.75,-0.875 0,-0.546875 0.28125,-1.28125 0.578125,-2.109375 0.078125,-0.171875 0.125,-0.3125 0.125,-0.5 0,-0.4375 -0.3125,-0.8125 -0.8125,-0.8125 -0.9375,0 -1.3125,1.453125 -1.3125,1.53125 0,0.109375 0.09375,0.109375 0.109375,0.109375 0.109375,0 0.109375,-0.03125 0.15625,-0.1875 0.296875,-1 0.71875,-1.234375 1.015625,-1.234375 0.078125,0 0.25,0 0.25,0.3125 0,0.25 -0.109375,0.53125 -0.171875,0.703125 -0.4375,1.15625 -0.5625,1.609375 -0.5625,2.046875 0,1.078125 0.875,1.234375 1.328125,1.234375 1.671875,0 2.25,-3.296875 2.25,-3.8125 z m 0,0"
               id="id-1098c605-ef93-48ee-a5f2-82a7a82f18aa" />
          </g>
        </g>
        <g
           style="fill:#000000;fill-opacity:1"
           id="id-2c1767f1-ae22-4a87-89d1-9e59e9811cc7"
           transform="matrix(0.28673203,0,0,0.28673203,16.076319,98.956907)">
          <g
             transform="translate(181.437,136.259)"
             id="g2553">
            <path
               style="stroke:none;stroke-width:0"
               d="m 3.6875,-1.140625 v -0.25 H 2.90625 V -4.5 c 0,-0.140625 0,-0.203125 -0.140625,-0.203125 -0.09375,0 -0.125,0 -0.1875,0.109375 l -2.3125,3.203125 v 0.25 h 2.0625 v 0.5625 c 0,0.25 0,0.328125 -0.578125,0.328125 H 1.5625 V 0 C 1.921875,-0.015625 2.359375,-0.03125 2.609375,-0.03125 2.875,-0.03125 3.3125,-0.015625 3.671875,0 v -0.25 h -0.1875 C 2.90625,-0.25 2.90625,-0.328125 2.90625,-0.578125 v -0.5625 z M 2.375,-3.9375 v 2.546875 H 0.53125 Z m 0,0"
               id="id-e844c523-f23b-42d5-86ee-8ad28a5ffefd" />
          </g>
        </g>
      </g>
      <g
         id="g3056"
         transform="translate(-1.8248257,-19.321683)">
        <g
           style="fill:#000000;fill-opacity:1"
           id="id-6268ae6b-4440-4cda-a60a-d40a1115e855"
           transform="matrix(0.28673203,0,0,0.28673203,16.076319,98.956907)">
          <g
             transform="translate(185.906,134.765)"
             id="g2557">
            <path
               style="stroke:none;stroke-width:0"
               d="m 4.671875,-3.703125 c 0,-0.546875 -0.265625,-0.703125 -0.4375,-0.703125 -0.25,0 -0.5,0.265625 -0.5,0.484375 0,0.125 0.046875,0.1875 0.15625,0.296875 0.21875,0.203125 0.34375,0.453125 0.34375,0.8125 0,0.421875 -0.609375,2.703125 -1.765625,2.703125 -0.515625,0 -0.75,-0.34375 -0.75,-0.875 0,-0.546875 0.28125,-1.28125 0.578125,-2.109375 0.078125,-0.171875 0.125,-0.3125 0.125,-0.5 0,-0.4375 -0.3125,-0.8125 -0.8125,-0.8125 -0.9375,0 -1.3125,1.453125 -1.3125,1.53125 0,0.109375 0.09375,0.109375 0.109375,0.109375 0.109375,0 0.109375,-0.03125 0.15625,-0.1875 0.296875,-1 0.71875,-1.234375 1.015625,-1.234375 0.078125,0 0.25,0 0.25,0.3125 0,0.25 -0.109375,0.53125 -0.171875,0.703125 -0.4375,1.15625 -0.5625,1.609375 -0.5625,2.046875 0,1.078125 0.875,1.234375 1.328125,1.234375 1.671875,0 2.25,-3.296875 2.25,-3.8125 z m 0,0"
               id="id-4e954b70-a3e9-47d3-a45b-51aa3b805f9c" />
          </g>
        </g>
        <g
           style="fill:#000000;fill-opacity:1"
           id="id-27913b16-c33b-4869-a2b1-fd5c0aaab0c1"
           transform="matrix(0.28673203,0,0,0.28673203,16.076319,98.956907)">
          <g
             transform="translate(190.735,136.259)"
             id="g2561">
            <path
               style="stroke:none;stroke-width:0"
               d="m 1.078125,-3.890625 c 0.359375,0.09375 0.5625,0.09375 0.671875,0.09375 0.921875,0 1.46875,-0.625 1.46875,-0.734375 0,-0.078125 -0.046875,-0.09375 -0.078125,-0.09375 -0.015625,0 -0.03125,0 -0.0625,0.015625 -0.171875,0.0625 -0.53125,0.203125 -1.046875,0.203125 -0.203125,0 -0.5625,-0.015625 -1.015625,-0.1875 C 0.9375,-4.625 0.921875,-4.625 0.921875,-4.625 c -0.09375,0 -0.09375,0.078125 -0.09375,0.1875 v 2.046875 c 0,0.125 0,0.203125 0.109375,0.203125 0.0625,0 0.078125,0 0.140625,-0.09375 0.296875,-0.375 0.734375,-0.4375 0.96875,-0.4375 0.421875,0 0.609375,0.328125 0.640625,0.390625 0.125,0.234375 0.171875,0.5 0.171875,0.90625 0,0.203125 0,0.609375 -0.21875,0.921875 -0.171875,0.25 -0.46875,0.421875 -0.8125,0.421875 -0.453125,0 -0.921875,-0.25 -1.09375,-0.71875 0.265625,0.015625 0.40625,-0.15625 0.40625,-0.34375 0,-0.296875 -0.265625,-0.34375 -0.359375,-0.34375 0,0 -0.34375,0 -0.34375,0.375 0,0.625 0.578125,1.25 1.40625,1.25 0.890625,0 1.671875,-0.65625 1.671875,-1.546875 0,-0.78125 -0.59375,-1.5 -1.453125,-1.5 -0.3125,0 -0.671875,0.0625 -0.984375,0.328125 z m 0,0"
               id="id-7af7d9a9-f309-47f8-9550-f18d1dda46c0" />
          </g>
        </g>
      </g>
      <g
         id="g3064"
         transform="translate(16.638116,-19.429026)">
        <g
           style="fill:#000000;fill-opacity:1"
           id="id-0dea456c-d807-4089-860f-0b384862989c"
           transform="matrix(0.28673203,0,0,0.28673203,16.076319,98.956907)">
          <g
             transform="translate(195.205,134.765)"
             id="g2565">
            <path
               style="stroke:none;stroke-width:0"
               d="m 4.671875,-3.703125 c 0,-0.546875 -0.265625,-0.703125 -0.4375,-0.703125 -0.25,0 -0.5,0.265625 -0.5,0.484375 0,0.125 0.046875,0.1875 0.15625,0.296875 0.21875,0.203125 0.34375,0.453125 0.34375,0.8125 0,0.421875 -0.609375,2.703125 -1.765625,2.703125 -0.515625,0 -0.75,-0.34375 -0.75,-0.875 0,-0.546875 0.28125,-1.28125 0.578125,-2.109375 0.078125,-0.171875 0.125,-0.3125 0.125,-0.5 0,-0.4375 -0.3125,-0.8125 -0.8125,-0.8125 -0.9375,0 -1.3125,1.453125 -1.3125,1.53125 0,0.109375 0.09375,0.109375 0.109375,0.109375 0.109375,0 0.109375,-0.03125 0.15625,-0.1875 0.296875,-1 0.71875,-1.234375 1.015625,-1.234375 0.078125,0 0.25,0 0.25,0.3125 0,0.25 -0.109375,0.53125 -0.171875,0.703125 -0.4375,1.15625 -0.5625,1.609375 -0.5625,2.046875 0,1.078125 0.875,1.234375 1.328125,1.234375 1.671875,0 2.25,-3.296875 2.25,-3.8125 z m 0,0"
               id="id-21941f28-3e11-432c-9cf8-a8b9e2105cb1" />
          </g>
        </g>
        <g
           style="fill:#000000;fill-opacity:1"
           id="id-710500e4-57c5-407f-9adf-6b88afcca404"
           transform="matrix(0.28673203,0,0,0.28673203,16.076319,98.956907)">
          <g
             transform="translate(200.034,136.259)"
             id="g2569">
            <path
               style="stroke:none;stroke-width:0"
               d="m 1.046875,-2.28125 c 0,-0.5625 0.046875,-1.078125 0.3125,-1.515625 0.234375,-0.375 0.609375,-0.625 1.0625,-0.625 0.203125,0 0.484375,0.046875 0.625,0.234375 C 2.875,-4.171875 2.71875,-4.046875 2.71875,-3.84375 c 0,0.171875 0.125,0.328125 0.328125,0.328125 0.21875,0 0.34375,-0.140625 0.34375,-0.34375 0,-0.40625 -0.296875,-0.765625 -0.984375,-0.765625 -1,0 -2.03125,0.921875 -2.03125,2.421875 0,1.796875 0.84375,2.34375 1.625,2.34375 0.84375,0 1.578125,-0.65625 1.578125,-1.5625 0,-0.890625 -0.703125,-1.546875 -1.515625,-1.546875 -0.5625,0 -0.859375,0.375 -1.015625,0.6875 z M 2,-0.078125 c -0.359375,0 -0.625,-0.203125 -0.78125,-0.515625 C 1.125,-0.796875 1.0625,-1.15625 1.0625,-1.5625 c 0,-0.6875 0.40625,-1.203125 0.96875,-1.203125 0.3125,0 0.53125,0.125 0.703125,0.375 0.171875,0.265625 0.171875,0.5625 0.171875,0.96875 0,0.390625 0,0.6875 -0.1875,0.96875 -0.15625,0.234375 -0.390625,0.375 -0.71875,0.375 z m 0,0"
               id="id-367d4d60-c1e9-4c26-97b9-fab6d97bc57f" />
          </g>
        </g>
      </g>
      <g
         id="g3072"
         transform="translate(-7.0846172,-14.491263)">
        <g
           style="fill:#000000;fill-opacity:1"
           id="id-6b4c29ce-eee3-4328-9579-7bf222f0ba9a"
           transform="matrix(0.28673203,0,0,0.28673203,16.076319,98.956907)">
          <g
             transform="translate(204.503,134.765)"
             id="g2573">
            <path
               style="stroke:none;stroke-width:0"
               d="m 4.671875,-3.703125 c 0,-0.546875 -0.265625,-0.703125 -0.4375,-0.703125 -0.25,0 -0.5,0.265625 -0.5,0.484375 0,0.125 0.046875,0.1875 0.15625,0.296875 0.21875,0.203125 0.34375,0.453125 0.34375,0.8125 0,0.421875 -0.609375,2.703125 -1.765625,2.703125 -0.515625,0 -0.75,-0.34375 -0.75,-0.875 0,-0.546875 0.28125,-1.28125 0.578125,-2.109375 0.078125,-0.171875 0.125,-0.3125 0.125,-0.5 0,-0.4375 -0.3125,-0.8125 -0.8125,-0.8125 -0.9375,0 -1.3125,1.453125 -1.3125,1.53125 0,0.109375 0.09375,0.109375 0.109375,0.109375 0.109375,0 0.109375,-0.03125 0.15625,-0.1875 0.296875,-1 0.71875,-1.234375 1.015625,-1.234375 0.078125,0 0.25,0 0.25,0.3125 0,0.25 -0.109375,0.53125 -0.171875,0.703125 -0.4375,1.15625 -0.5625,1.609375 -0.5625,2.046875 0,1.078125 0.875,1.234375 1.328125,1.234375 1.671875,0 2.25,-3.296875 2.25,-3.8125 z m 0,0"
               id="id-2f0aae06-d306-4661-bdcf-0e280e605fb4" />
          </g>
        </g>
        <g
           style="fill:#000000;fill-opacity:1"
           id="id-cf42d456-8141-4aa4-9a35-eac9bc13fce2"
           transform="matrix(0.28673203,0,0,0.28673203,16.076319,98.956907)">
          <g
             transform="translate(209.332,136.259)"
             id="g2577">
            <path
               style="stroke:none;stroke-width:0"
               d="m 3.734375,-4.203125 c 0.0625,-0.09375 0.0625,-0.109375 0.0625,-0.28125 H 1.96875 C 1.6875,-4.484375 1.609375,-4.5 1.359375,-4.515625 1,-4.546875 0.984375,-4.59375 0.96875,-4.703125 H 0.734375 l -0.25,1.484375 H 0.71875 c 0.015625,-0.109375 0.09375,-0.5625 0.203125,-0.640625 0.046875,-0.03125 0.625,-0.03125 0.71875,-0.03125 H 3.15625 c -0.21875,0.28125 -0.578125,0.71875 -0.71875,0.921875 -0.90625,1.1875 -1,2.296875 -1,2.703125 0,0.078125 0,0.40625 0.328125,0.40625 0.34375,0 0.34375,-0.3125 0.34375,-0.40625 v -0.28125 c 0,-1.34375 0.28125,-1.96875 0.578125,-2.34375 z m 0,0"
               id="id-2d5d9ed8-2272-44b8-935c-c1b445ad26eb" />
          </g>
        </g>
      </g>
      <g
         id="g3080"
         transform="translate(10.841611,-14.061892)">
        <g
           style="fill:#000000;fill-opacity:1"
           id="id-3d17f00b-0540-4de5-8baa-13265200585d"
           transform="matrix(0.28673203,0,0,0.28673203,16.076319,98.956907)">
          <g
             transform="translate(213.802,134.765)"
             id="g2581">
            <path
               style="stroke:none;stroke-width:0"
               d="m 4.671875,-3.703125 c 0,-0.546875 -0.265625,-0.703125 -0.4375,-0.703125 -0.25,0 -0.5,0.265625 -0.5,0.484375 0,0.125 0.046875,0.1875 0.15625,0.296875 0.21875,0.203125 0.34375,0.453125 0.34375,0.8125 0,0.421875 -0.609375,2.703125 -1.765625,2.703125 -0.515625,0 -0.75,-0.34375 -0.75,-0.875 0,-0.546875 0.28125,-1.28125 0.578125,-2.109375 0.078125,-0.171875 0.125,-0.3125 0.125,-0.5 0,-0.4375 -0.3125,-0.8125 -0.8125,-0.8125 -0.9375,0 -1.3125,1.453125 -1.3125,1.53125 0,0.109375 0.09375,0.109375 0.109375,0.109375 0.109375,0 0.109375,-0.03125 0.15625,-0.1875 0.296875,-1 0.71875,-1.234375 1.015625,-1.234375 0.078125,0 0.25,0 0.25,0.3125 0,0.25 -0.109375,0.53125 -0.171875,0.703125 -0.4375,1.15625 -0.5625,1.609375 -0.5625,2.046875 0,1.078125 0.875,1.234375 1.328125,1.234375 1.671875,0 2.25,-3.296875 2.25,-3.8125 z m 0,0"
               id="id-69c5d781-4468-4baf-a8f7-8cf9857abf21" />
          </g>
        </g>
        <g
           style="fill:#000000;fill-opacity:1"
           id="id-7e6258c6-50e1-4a6f-a4ae-2714adb71550"
           transform="matrix(0.28673203,0,0,0.28673203,16.076319,98.956907)">
          <g
             transform="translate(218.631,136.259)"
             id="g2585">
            <path
               style="stroke:none;stroke-width:0"
               d="m 2.46875,-2.515625 c 0.546875,-0.265625 0.890625,-0.59375 0.890625,-1.078125 0,-0.671875 -0.703125,-1.03125 -1.375,-1.03125 -0.765625,0 -1.390625,0.5 -1.390625,1.15625 0,0.328125 0.15625,0.5625 0.28125,0.703125 0.125,0.15625 0.171875,0.1875 0.578125,0.421875 C 1.0625,-2.171875 0.375,-1.796875 0.375,-1.0625 c 0,0.765625 0.796875,1.203125 1.59375,1.203125 0.890625,0 1.609375,-0.5625 1.609375,-1.3125 0,-0.46875 -0.265625,-0.859375 -0.671875,-1.09375 -0.09375,-0.0625 -0.328125,-0.1875 -0.4375,-0.25 z m -1.125,-0.65625 c -0.1875,-0.109375 -0.375,-0.296875 -0.375,-0.5625 0,-0.4375 0.5,-0.6875 1,-0.6875 0.546875,0 1.03125,0.34375 1.03125,0.828125 0,0.625 -0.734375,0.9375 -0.734375,0.9375 -0.015625,0 -0.03125,0 -0.078125,-0.03125 z m 0.328125,0.96875 0.96875,0.546875 c 0.171875,0.109375 0.515625,0.3125 0.515625,0.71875 0,0.53125 -0.578125,0.859375 -1.171875,0.859375 -0.640625,0 -1.1875,-0.421875 -1.1875,-0.984375 0,-0.515625 0.375,-0.921875 0.875,-1.140625 z m 0,0"
               id="id-028f2c90-65d8-439a-a6c6-7374b295aede" />
          </g>
        </g>
      </g>
      <g
         id="g3174"
         transform="translate(-22.863992,-8.9094429)">
        <g
           style="fill:#000000;fill-opacity:1"
           id="id-0888471b-16b5-4016-ae7a-0a6ac737a0a8"
           transform="matrix(0.28673203,0,0,0.28673203,16.076319,98.956907)">
          <g
             transform="translate(248.989,134.765)"
             id="g2608">
            <path
               style="stroke:none;stroke-width:0"
               d="m 4.671875,-3.703125 c 0,-0.546875 -0.265625,-0.703125 -0.4375,-0.703125 -0.25,0 -0.5,0.265625 -0.5,0.484375 0,0.125 0.046875,0.1875 0.15625,0.296875 0.21875,0.203125 0.34375,0.453125 0.34375,0.8125 0,0.421875 -0.609375,2.703125 -1.765625,2.703125 -0.515625,0 -0.75,-0.34375 -0.75,-0.875 0,-0.546875 0.28125,-1.28125 0.578125,-2.109375 0.078125,-0.171875 0.125,-0.3125 0.125,-0.5 0,-0.4375 -0.3125,-0.8125 -0.8125,-0.8125 -0.9375,0 -1.3125,1.453125 -1.3125,1.53125 0,0.109375 0.09375,0.109375 0.109375,0.109375 0.109375,0 0.109375,-0.03125 0.15625,-0.1875 0.296875,-1 0.71875,-1.234375 1.015625,-1.234375 0.078125,0 0.25,0 0.25,0.3125 0,0.25 -0.109375,0.53125 -0.171875,0.703125 -0.4375,1.15625 -0.5625,1.609375 -0.5625,2.046875 0,1.078125 0.875,1.234375 1.328125,1.234375 1.671875,0 2.25,-3.296875 2.25,-3.8125 z m 0,0"
               id="id-43976492-c594-479d-ac7d-25dc2a809966" />
          </g>
        </g>
        <g
           style="fill:#000000;fill-opacity:1"
           id="id-51414526-36ba-4850-a3d0-475b8cec298f"
           transform="matrix(0.28673203,0,0,0.28673203,16.076319,98.956907)">
          <g
             transform="translate(253.818,136.259)"
             id="g2612">
            <path
               style="stroke:none;stroke-width:0"
               d="m 0.84375,-0.4375 c -0.015625,0.09375 -0.0625,0.265625 -0.0625,0.28125 0,0.15625 0.125,0.21875 0.234375,0.21875 0.125,0 0.234375,-0.078125 0.28125,-0.140625 0.03125,-0.0625 0.078125,-0.296875 0.125,-0.4375 0.03125,-0.125 0.109375,-0.453125 0.140625,-0.625 0.046875,-0.15625 0.09375,-0.3125 0.125,-0.46875 0.078125,-0.28125 0.09375,-0.34375 0.296875,-0.625 C 2.171875,-2.515625 2.5,-2.875 3.03125,-2.875 c 0.390625,0 0.40625,0.359375 0.40625,0.484375 0,0.421875 -0.296875,1.1875 -0.40625,1.484375 -0.078125,0.203125 -0.109375,0.265625 -0.109375,0.375 0,0.375 0.296875,0.59375 0.65625,0.59375 0.703125,0 1,-0.953125 1,-1.0625 0,-0.09375 -0.078125,-0.09375 -0.109375,-0.09375 -0.09375,0 -0.09375,0.046875 -0.125,0.125 C 4.1875,-0.40625 3.875,-0.125 3.609375,-0.125 c -0.15625,0 -0.1875,-0.09375 -0.1875,-0.25 0,-0.15625 0.046875,-0.25 0.171875,-0.5625 0.078125,-0.21875 0.359375,-0.953125 0.359375,-1.34375 0,-0.671875 -0.53125,-0.796875 -0.90625,-0.796875 -0.578125,0 -0.96875,0.359375 -1.171875,0.640625 -0.046875,-0.484375 -0.453125,-0.640625 -0.75,-0.640625 -0.296875,0 -0.453125,0.21875 -0.546875,0.375 -0.15625,0.265625 -0.25,0.65625 -0.25,0.703125 0,0.078125 0.09375,0.078125 0.125,0.078125 0.09375,0 0.09375,-0.015625 0.140625,-0.203125 0.109375,-0.40625 0.25,-0.75 0.515625,-0.75 0.1875,0 0.234375,0.15625 0.234375,0.34375 0,0.125 -0.0625,0.390625 -0.125,0.578125 -0.046875,0.1875 -0.109375,0.46875 -0.140625,0.625 z m 0,0"
               id="id-1d3ecd3d-528f-4d40-a1c7-2a6d5162ed71" />
          </g>
        </g>
        <g
           style="fill:#000000;fill-opacity:1"
           id="id-7b288ef2-8083-4519-bff2-d9546dca623f"
           transform="matrix(0.28673203,0,0,0.28673203,16.076319,98.956907)">
          <g
             transform="translate(258.743,136.259)"
             id="g2616">
            <path
               style="stroke:none;stroke-width:0"
               d="m 5.1875,-1.578125 c 0.109375,0 0.28125,0 0.28125,-0.15625 0,-0.1875 -0.171875,-0.1875 -0.28125,-0.1875 H 1.03125 c -0.109375,0 -0.28125,0 -0.28125,0.171875 0,0.171875 0.15625,0.171875 0.28125,0.171875 z m 0,0"
               id="id-de18bc06-4b5e-4641-930a-e32980f26f5b" />
          </g>
        </g>
        <g
           style="fill:#000000;fill-opacity:1"
           id="id-0f175863-fffb-489e-bdd7-3dbd09186219"
           transform="matrix(0.28673203,0,0,0.28673203,16.076319,98.956907)">
          <g
             transform="translate(264.97,136.259)"
             id="g2620">
            <path
               style="stroke:none;stroke-width:0"
               d="m 2.328125,-4.4375 c 0,-0.1875 0,-0.1875 -0.203125,-0.1875 -0.453125,0.4375 -1.078125,0.4375 -1.359375,0.4375 v 0.25 c 0.15625,0 0.625,0 1,-0.1875 v 3.546875 c 0,0.234375 0,0.328125 -0.6875,0.328125 H 0.8125 V 0 c 0.125,0 0.984375,-0.03125 1.234375,-0.03125 0.21875,0 1.09375,0.03125 1.25,0.03125 V -0.25 H 3.03125 c -0.703125,0 -0.703125,-0.09375 -0.703125,-0.328125 z m 0,0"
               id="id-f3d05995-10fb-4534-8d29-6a05cf28a0e2" />
          </g>
        </g>
      </g>
      <g
         id="g3182"
         transform="translate(-5.1524489,-8.3727295)">
        <g
           style="fill:#000000;fill-opacity:1"
           id="id-8f311dbd-bc90-471e-a07f-777a8ab84988"
           transform="matrix(0.28673203,0,0,0.28673203,16.076319,98.956907)">
          <g
             transform="translate(269.439,134.765)"
             id="g2624">
            <path
               style="stroke:none;stroke-width:0"
               d="m 4.671875,-3.703125 c 0,-0.546875 -0.265625,-0.703125 -0.4375,-0.703125 -0.25,0 -0.5,0.265625 -0.5,0.484375 0,0.125 0.046875,0.1875 0.15625,0.296875 0.21875,0.203125 0.34375,0.453125 0.34375,0.8125 0,0.421875 -0.609375,2.703125 -1.765625,2.703125 -0.515625,0 -0.75,-0.34375 -0.75,-0.875 0,-0.546875 0.28125,-1.28125 0.578125,-2.109375 0.078125,-0.171875 0.125,-0.3125 0.125,-0.5 0,-0.4375 -0.3125,-0.8125 -0.8125,-0.8125 -0.9375,0 -1.3125,1.453125 -1.3125,1.53125 0,0.109375 0.09375,0.109375 0.109375,0.109375 0.109375,0 0.109375,-0.03125 0.15625,-0.1875 0.296875,-1 0.71875,-1.234375 1.015625,-1.234375 0.078125,0 0.25,0 0.25,0.3125 0,0.25 -0.109375,0.53125 -0.171875,0.703125 -0.4375,1.15625 -0.5625,1.609375 -0.5625,2.046875 0,1.078125 0.875,1.234375 1.328125,1.234375 1.671875,0 2.25,-3.296875 2.25,-3.8125 z m 0,0"
               id="id-8f9c5bbd-0db8-4620-a461-715caf3f182d" />
          </g>
        </g>
        <g
           style="fill:#000000;fill-opacity:1"
           id="id-4cd7303a-048d-4e54-82f6-3f4304ff5a70"
           transform="matrix(0.28673203,0,0,0.28673203,16.076319,98.956907)">
          <g
             transform="translate(274.268,136.259)"
             id="g2628">
            <path
               style="stroke:none;stroke-width:0"
               d="m 0.84375,-0.4375 c -0.015625,0.09375 -0.0625,0.265625 -0.0625,0.28125 0,0.15625 0.125,0.21875 0.234375,0.21875 0.125,0 0.234375,-0.078125 0.28125,-0.140625 0.03125,-0.0625 0.078125,-0.296875 0.125,-0.4375 0.03125,-0.125 0.109375,-0.453125 0.140625,-0.625 0.046875,-0.15625 0.09375,-0.3125 0.125,-0.46875 0.078125,-0.28125 0.09375,-0.34375 0.296875,-0.625 C 2.171875,-2.515625 2.5,-2.875 3.03125,-2.875 c 0.390625,0 0.40625,0.359375 0.40625,0.484375 0,0.421875 -0.296875,1.1875 -0.40625,1.484375 -0.078125,0.203125 -0.109375,0.265625 -0.109375,0.375 0,0.375 0.296875,0.59375 0.65625,0.59375 0.703125,0 1,-0.953125 1,-1.0625 0,-0.09375 -0.078125,-0.09375 -0.109375,-0.09375 -0.09375,0 -0.09375,0.046875 -0.125,0.125 C 4.1875,-0.40625 3.875,-0.125 3.609375,-0.125 c -0.15625,0 -0.1875,-0.09375 -0.1875,-0.25 0,-0.15625 0.046875,-0.25 0.171875,-0.5625 0.078125,-0.21875 0.359375,-0.953125 0.359375,-1.34375 0,-0.671875 -0.53125,-0.796875 -0.90625,-0.796875 -0.578125,0 -0.96875,0.359375 -1.171875,0.640625 -0.046875,-0.484375 -0.453125,-0.640625 -0.75,-0.640625 -0.296875,0 -0.453125,0.21875 -0.546875,0.375 -0.15625,0.265625 -0.25,0.65625 -0.25,0.703125 0,0.078125 0.09375,0.078125 0.125,0.078125 0.09375,0 0.09375,-0.015625 0.140625,-0.203125 0.109375,-0.40625 0.25,-0.75 0.515625,-0.75 0.1875,0 0.234375,0.15625 0.234375,0.34375 0,0.125 -0.0625,0.390625 -0.125,0.578125 -0.046875,0.1875 -0.109375,0.46875 -0.140625,0.625 z m 0,0"
               id="id-53106e0f-3138-4838-b4a1-606e4d0fb9e8" />
          </g>
        </g>
      </g>
    </g>
  </g>
</svg>
