<?xml version="1.0" encoding="UTF-8" standalone="no"?>
<!-- Created with Inkscape (http://www.inkscape.org/) -->

<svg
   width="23.566406mm"
   height="23.566402mm"
   viewBox="0 0 23.566406 23.566402"
   version="1.1"
   id="svg5"
   xmlns="http://www.w3.org/2000/svg"
   xmlns:svg="http://www.w3.org/2000/svg">
  <defs
     id="defs2">
    <marker
       style="overflow:visible"
       id="DotM"
       refX="0"
       refY="0"
       orient="auto">
      <path
         transform="matrix(0.4,0,0,0.4,2.96,0.4)"
         style="fill:context-stroke;fill-rule:evenodd;stroke:context-stroke;stroke-width:1pt"
         d="m -2.5,-1 c 0,2.76 -2.24,5 -5,5 -2.76,0 -5,-2.24 -5,-5 0,-2.76 2.24,-5 5,-5 2.76,0 5,2.24 5,5 z"
         id="path1206" />
    </marker>
  </defs>
  <g
     id="layer1"
     transform="translate(-62.279297,-83.466797)">
    <g
       id="g4366">
      <g
         id="g3965">
        <path
           style="color:#000000;fill:#009100;-inkscape-stroke:none"
           d="M 84.480469,84.480469 63.3125,105.64648 l 0.375,0.37305 21.166016,-21.166014 z"
           id="path2774" />
        <path
           style="color:#000000;fill:#009100;-inkscape-stroke:none"
           d="M 84.548828,95.013672 63.380859,105.5957 63.619141,106.07031 84.785156,95.486328 Z"
           id="path2772" />
        <path
           style="color:#000000;fill:#ff4141;-inkscape-stroke:none"
           d="m 63.619141,95.013672 -0.238282,0.472656 21.167969,10.583982 0.236328,-0.47461 z"
           id="path2770" />
        <path
           style="color:#000000;fill:#dc0000;-inkscape-stroke:none"
           d="M 84.548828,84.429687 63.380859,95.013672 63.619141,95.486328 84.785156,84.902344 Z"
           id="path2768" />
        <path
           style="color:#000000;fill:#0084c8;-inkscape-stroke:none"
           d="m 63.619141,84.429687 -0.238282,0.472657 21.167969,10.583984 0.236328,-0.472656 z"
           id="path2764" />
        <path
           style="color:#000000;fill:#0084c8;-inkscape-stroke:none"
           d="m 63.6875,84.480469 -0.375,0.373047 21.167969,21.166014 0.373047,-0.37305 z"
           id="path2766" />
        <g
           id="path2627">
          <path
             style="color:#000000;fill:#0084c8;-inkscape-stroke:none"
             d="m 63.5,84.402344 v 0.529297 h 21.166016 v -0.529297 z"
             id="path3060" />
          <g
             id="g3038">
            <g
               id="path3050">
              <path
                 style="color:#000000;fill:#d76cff;fill-rule:evenodd;stroke-width:0.211667pt;-inkscape-stroke:none"
                 d="m 85.703833,84.666666 c 0,0.5842 -0.474134,1.058333 -1.058334,1.058333 -0.5842,0 -1.058333,-0.474133 -1.058333,-1.058333 0,-0.5842 0.474133,-1.058333 1.058333,-1.058333 0.5842,0 1.058334,0.474133 1.058334,1.058333 z"
                 id="path3054" />
              <path
                 style="color:#000000;fill:#0e232e;fill-rule:evenodd;-inkscape-stroke:none"
                 d="m 84.644531,83.466797 c -0.660549,0 -1.199219,0.538669 -1.199219,1.199219 0,0.660549 0.53867,1.199218 1.199219,1.199218 0.66055,0 1.201172,-0.538669 1.201172,-1.199218 0,-0.66055 -0.540622,-1.199219 -1.201172,-1.199219 z m 0,0.283203 c 0.50785,0 0.917969,0.408166 0.917969,0.916016 0,0.507849 -0.410119,0.917968 -0.917969,0.917968 -0.507849,0 -0.916015,-0.410119 -0.916015,-0.917968 0,-0.50785 0.408166,-0.916016 0.916015,-0.916016 z"
                 id="path3056" />
            </g>
            <g
               id="path3040">
              <path
                 style="color:#000000;fill:#61c3ff;fill-opacity:1;fill-rule:evenodd;stroke-width:0.211667pt;-inkscape-stroke:none"
                 d="m 64.537166,84.666666 c 0,0.5842 -0.474134,1.058333 -1.058334,1.058333 -0.5842,0 -1.058333,-0.474133 -1.058333,-1.058333 0,-0.5842 0.474133,-1.058333 1.058333,-1.058333 0.5842,0 1.058334,0.474133 1.058334,1.058333 z"
                 id="path3044" />
              <path
                 style="color:#000000;fill:#0084c8;fill-rule:evenodd;-inkscape-stroke:none"
                 d="m 63.478516,83.466797 c -0.66055,0 -1.199219,0.538669 -1.199219,1.199219 0,0.660549 0.538669,1.199218 1.199219,1.199218 0.660549,0 1.199218,-0.538669 1.199218,-1.199218 0,-0.66055 -0.538669,-1.199219 -1.199218,-1.199219 z m 0,0.283203 c 0.507849,0 0.917968,0.408166 0.917968,0.916016 0,0.507849 -0.410119,0.917968 -0.917968,0.917968 -0.50785,0 -0.916016,-0.410119 -0.916016,-0.917968 0,-0.50785 0.408166,-0.916016 0.916016,-0.916016 z"
                 id="path3046" />
            </g>
          </g>
        </g>
        <g
           id="path2629">
          <path
             style="color:#000000;fill:#ff4141;-inkscape-stroke:none"
             d="m 63.5,94.986328 v 0.527344 h 21.166016 v -0.527344 z"
             id="path3088" />
          <g
             id="g3066">
            <g
               id="path3078">
              <path
                 style="color:#000000;fill:#ff6600;fill-rule:evenodd;stroke-width:0.211667pt;-inkscape-stroke:none"
                 d="m 85.703833,95.249999 c 0,0.5842 -0.474134,1.058333 -1.058334,1.058333 -0.5842,0 -1.058333,-0.474133 -1.058333,-1.058333 0,-0.5842 0.474133,-1.058333 1.058333,-1.058333 0.5842,0 1.058334,0.474133 1.058334,1.058333 z"
                 id="path3082" />
              <path
                 style="color:#000000;fill:#0e232e;fill-rule:evenodd;-inkscape-stroke:none"
                 d="m 84.644531,94.050781 c -0.660549,0 -1.199219,0.53867 -1.199219,1.199219 0,0.660549 0.53867,1.199219 1.199219,1.199219 0.66055,0 1.201172,-0.538669 1.201172,-1.199219 0,-0.66055 -0.540622,-1.199219 -1.201172,-1.199219 z m 0,0.28125 c 0.50785,0 0.917969,0.41012 0.917969,0.917969 0,0.507849 -0.410119,0.917969 -0.917969,0.917969 -0.507849,0 -0.916015,-0.41012 -0.916015,-0.917969 0,-0.507849 0.408166,-0.917969 0.916015,-0.917969 z"
                 id="path3084" />
            </g>
            <g
               id="path3068">
              <path
                 style="color:#000000;fill:#ffb5b5;fill-opacity:1;fill-rule:evenodd;stroke-width:0.211667pt;-inkscape-stroke:none"
                 d="m 64.537166,95.249999 c 0,0.5842 -0.474134,1.058333 -1.058334,1.058333 -0.5842,0 -1.058333,-0.474133 -1.058333,-1.058333 0,-0.5842 0.474133,-1.058333 1.058333,-1.058333 0.5842,0 1.058334,0.474133 1.058334,1.058333 z"
                 id="path3072" />
              <path
                 style="color:#000000;fill:#ff4141;fill-rule:evenodd;-inkscape-stroke:none"
                 d="m 63.478516,94.050781 c -0.66055,0 -1.199219,0.53867 -1.199219,1.199219 0,0.660549 0.538669,1.199219 1.199219,1.199219 0.660549,0 1.199218,-0.538669 1.199218,-1.199219 0,-0.66055 -0.538669,-1.199219 -1.199218,-1.199219 z m 0,0.28125 c 0.507849,0 0.917968,0.41012 0.917968,0.917969 0,0.507849 -0.410119,0.917969 -0.917968,0.917969 -0.50785,0 -0.916016,-0.41012 -0.916016,-0.917969 0,-0.507849 0.408166,-0.917969 0.916016,-0.917969 z"
                 id="path3074" />
            </g>
          </g>
        </g>
        <g
           id="path2631">
          <path
             style="color:#000000;fill:#009100;-inkscape-stroke:none"
             d="m 63.5,105.56836 v 0.5293 h 21.166016 v -0.5293 z"
             id="path3116" />
          <g
             id="g3094">
            <g
               id="path3106">
              <path
                 style="color:#000000;fill:#ff9900;fill-opacity:1;fill-rule:evenodd;stroke-width:0.211667pt;-inkscape-stroke:none"
                 d="m 85.703833,105.83333 c 0,0.5842 -0.474134,1.05833 -1.058334,1.05833 -0.5842,0 -1.058333,-0.47413 -1.058333,-1.05833 0,-0.5842 0.474133,-1.05833 1.058333,-1.05833 0.5842,0 1.058334,0.47413 1.058334,1.05833 z"
                 id="path3110" />
              <path
                 style="color:#000000;fill:#0e232e;fill-rule:evenodd;-inkscape-stroke:none"
                 d="m 84.644531,104.63477 c -0.660549,0 -1.199219,0.53866 -1.199219,1.19921 0,0.66055 0.53867,1.19922 1.199219,1.19922 0.660549,0 1.201172,-0.53867 1.201172,-1.19922 0,-0.66055 -0.540623,-1.19921 -1.201172,-1.19921 z m 0,0.28125 c 0.50785,0 0.917969,0.41012 0.917969,0.91796 0,0.50785 -0.410119,0.91602 -0.917969,0.91602 -0.50785,0 -0.916015,-0.40817 -0.916015,-0.91602 0,-0.50785 0.408165,-0.91796 0.916015,-0.91796 z"
                 id="path3112" />
            </g>
            <g
               id="path3096">
              <path
                 style="color:#000000;fill:#b9ffb9;fill-opacity:1;fill-rule:evenodd;stroke-width:0.211667pt;-inkscape-stroke:none"
                 d="m 64.537166,105.83333 c 0,0.5842 -0.474134,1.05833 -1.058334,1.05833 -0.5842,0 -1.058333,-0.47413 -1.058333,-1.05833 0,-0.5842 0.474133,-1.05833 1.058333,-1.05833 0.5842,0 1.058334,0.47413 1.058334,1.05833 z"
                 id="path3100" />
              <path
                 style="color:#000000;fill:#009100;fill-rule:evenodd;-inkscape-stroke:none"
                 d="m 63.478516,104.63477 c -0.660549,0 -1.199219,0.53866 -1.199219,1.19921 0,0.66055 0.53867,1.19922 1.199219,1.19922 0.660549,0 1.199218,-0.53867 1.199218,-1.19922 0,-0.66055 -0.538669,-1.19921 -1.199218,-1.19921 z m 0,0.28125 c 0.50785,0 0.917968,0.41012 0.917968,0.91796 0,0.50785 -0.410118,0.91602 -0.917968,0.91602 -0.50785,0 -0.916016,-0.40817 -0.916016,-0.91602 0,-0.50785 0.408166,-0.91796 0.916016,-0.91796 z"
                 id="path3102" />
            </g>
          </g>
        </g>
      </g>
    </g>
  </g>
</svg>
