<?xml version="1.0" encoding="UTF-8" standalone="no"?>
<!-- Created with Inkscape (http://www.inkscape.org/) -->

<svg
   width="53.181248mm"
   height="37.306252mm"
   viewBox="0 0 53.181248 37.306252"
   version="1.1"
   id="svg5"
   xmlns="http://www.w3.org/2000/svg"
   xmlns:svg="http://www.w3.org/2000/svg">
  <defs
     id="defs2">
    <defs
       id="id-8250f0df-3e0b-4c72-900a-51ac3c45edfa">
      <g
         id="id-7f1b27a3-382b-433c-bc36-9aa2276a7fb9">
        <symbol
           overflow="visible"
           id="id-7aeb1ef4-9ebd-4b64-9e8f-5936452c2823">
          <path
             style="stroke:none;stroke-width:0"
             d=""
             id="id-7ca95e80-e226-44bc-a804-b3dc15c16dec" />
        </symbol>
        <symbol
           overflow="visible"
           id="id-23d38515-873a-4389-bc9c-fa12238a6212">
          <path
             style="stroke:none;stroke-width:0"
             d="m 2.9375,-1.640625 v 0.859375 c 0,0.359375 -0.03125,0.46875 -0.765625,0.46875 H 1.96875 V 0 C 2.375,-0.03125 2.890625,-0.03125 3.3125,-0.03125 c 0.421875,0 0.9375,0 1.359375,0.03125 v -0.3125 h -0.21875 c -0.734375,0 -0.75,-0.109375 -0.75,-0.46875 V -1.640625 H 4.6875 v -0.3125 H 3.703125 v -4.53125 c 0,-0.203125 0,-0.265625 -0.171875,-0.265625 -0.078125,0 -0.109375,0 -0.1875,0.125 l -3.0625,4.671875 v 0.3125 z m 0.046875,-0.3125 H 0.5625 l 2.421875,-3.71875 z m 0,0"
             id="id-a79a6ce2-1161-4969-aabd-a84fa9d4a149" />
        </symbol>
        <symbol
           overflow="visible"
           id="id-d3c3dd1d-39a0-4972-8b02-f3bc5eb89e27">
          <path
             style="stroke:none;stroke-width:0"
             d="m 1.3125,-3.265625 v -0.25 c 0,-2.515625 1.234375,-2.875 1.75,-2.875 0.234375,0 0.65625,0.0625 0.875,0.40625 -0.15625,0 -0.546875,0 -0.546875,0.4375 0,0.3125 0.234375,0.46875 0.453125,0.46875 0.15625,0 0.46875,-0.09375 0.46875,-0.484375 0,-0.59375 -0.4375,-1.078125 -1.265625,-1.078125 -1.28125,0 -2.625,1.28125 -2.625,3.484375 0,2.671875 1.15625,3.375 2.078125,3.375 1.109375,0 2.0625,-0.9375 2.0625,-2.25 0,-1.265625 -0.890625,-2.21875 -2,-2.21875 -0.671875,0 -1.046875,0.5 -1.25,0.984375 z M 2.5,-0.0625 c -0.625,0 -0.921875,-0.59375 -0.984375,-0.75 -0.1875,-0.46875 -0.1875,-1.265625 -0.1875,-1.4375 0,-0.78125 0.328125,-1.78125 1.21875,-1.78125 0.171875,0 0.625,0 0.9375,0.625 0.171875,0.359375 0.171875,0.875 0.171875,1.359375 0,0.484375 0,0.984375 -0.171875,1.34375 C 3.1875,-0.109375 2.734375,-0.0625 2.5,-0.0625 Z m 0,0"
             id="id-c1cc4c17-4220-4de2-a79a-4794b1c1d665" />
        </symbol>
        <symbol
           overflow="visible"
           id="id-55b1f353-0ed4-4afd-98ac-2c718fecc6db">
          <path
             style="stroke:none;stroke-width:0"
             d="m 2.9375,-6.375 c 0,-0.25 0,-0.265625 -0.234375,-0.265625 C 2.078125,-6 1.203125,-6 0.890625,-6 v 0.3125 c 0.203125,0 0.78125,0 1.296875,-0.265625 v 5.171875 c 0,0.359375 -0.03125,0.46875 -0.921875,0.46875 h -0.3125 V 0 c 0.34375,-0.03125 1.203125,-0.03125 1.609375,-0.03125 0.390625,0 1.265625,0 1.609375,0.03125 v -0.3125 h -0.3125 c -0.90625,0 -0.921875,-0.109375 -0.921875,-0.46875 z m 0,0"
             id="id-29731d32-ee6c-4475-bc40-402874feaeca" />
        </symbol>
        <symbol
           overflow="visible"
           id="id-1324ab52-b180-4dbb-bbfc-5ccae5cf56ce">
          <path
             style="stroke:none;stroke-width:0"
             d="m 4.578125,-3.1875 c 0,-0.796875 -0.046875,-1.59375 -0.390625,-2.328125 -0.453125,-0.96875 -1.28125,-1.125 -1.6875,-1.125 -0.609375,0 -1.328125,0.265625 -1.75,1.1875 -0.3125,0.6875 -0.359375,1.46875 -0.359375,2.265625 0,0.75 0.03125,1.640625 0.453125,2.40625 0.421875,0.796875 1.15625,1 1.640625,1 0.53125,0 1.296875,-0.203125 1.734375,-1.15625 0.3125,-0.6875 0.359375,-1.46875 0.359375,-2.25 z M 2.484375,0 C 2.09375,0 1.5,-0.25 1.328125,-1.203125 1.21875,-1.796875 1.21875,-2.71875 1.21875,-3.3125 c 0,-0.640625 0,-1.296875 0.078125,-1.828125 0.1875,-1.1875 0.9375,-1.28125 1.1875,-1.28125 0.328125,0 0.984375,0.1875 1.171875,1.171875 0.109375,0.5625 0.109375,1.3125 0.109375,1.9375 0,0.75 0,1.421875 -0.109375,2.0625 C 3.5,-0.296875 2.9375,0 2.484375,0 Z m 0,0"
             id="id-19b65382-8811-48f2-bcd8-50fac5203529" />
        </symbol>
        <symbol
           overflow="visible"
           id="id-eddaef04-03fe-430e-93c3-a28caa05f863">
          <path
             style="stroke:none;stroke-width:0"
             d="m 1.265625,-0.765625 1.0625,-1.03125 c 1.546875,-1.375 2.140625,-1.90625 2.140625,-2.90625 0,-1.140625 -0.890625,-1.9375 -2.109375,-1.9375 -1.125,0 -1.859375,0.921875 -1.859375,1.8125 0,0.546875 0.5,0.546875 0.53125,0.546875 0.171875,0 0.515625,-0.109375 0.515625,-0.53125 0,-0.25 -0.1875,-0.515625 -0.53125,-0.515625 -0.078125,0 -0.09375,0 -0.125,0.015625 0.21875,-0.65625 0.765625,-1.015625 1.34375,-1.015625 0.90625,0 1.328125,0.8125 1.328125,1.625 C 3.5625,-3.90625 3.078125,-3.125 2.515625,-2.5 l -1.90625,2.125 C 0.5,-0.265625 0.5,-0.234375 0.5,0 H 4.203125 L 4.46875,-1.734375 H 4.234375 C 4.171875,-1.4375 4.109375,-1 4,-0.84375 3.9375,-0.765625 3.28125,-0.765625 3.0625,-0.765625 Z m 0,0"
             id="id-cd99fe2a-2809-4b3b-b4bf-0482680f53f5" />
        </symbol>
        <symbol
           overflow="visible"
           id="id-4a805b3a-4125-44c7-9d4e-5e1b8227b0f3">
          <path
             style="stroke:none;stroke-width:0"
             d="m 2.890625,-3.515625 c 0.8125,-0.265625 1.390625,-0.953125 1.390625,-1.75 0,-0.8125 -0.875,-1.375 -1.828125,-1.375 -1,0 -1.765625,0.59375 -1.765625,1.359375 0,0.328125 0.21875,0.515625 0.515625,0.515625 0.296875,0 0.5,-0.21875 0.5,-0.515625 0,-0.484375 -0.46875,-0.484375 -0.609375,-0.484375 0.296875,-0.5 0.953125,-0.625 1.3125,-0.625 0.421875,0 0.96875,0.21875 0.96875,1.109375 0,0.125 -0.03125,0.703125 -0.28125,1.140625 C 2.796875,-3.65625 2.453125,-3.625 2.203125,-3.625 2.125,-3.609375 1.890625,-3.59375 1.8125,-3.59375 c -0.078125,0.015625 -0.140625,0.03125 -0.140625,0.125 0,0.109375 0.0625,0.109375 0.234375,0.109375 h 0.4375 c 0.8125,0 1.1875,0.671875 1.1875,1.65625 0,1.359375 -0.6875,1.640625 -1.125,1.640625 -0.4375,0 -1.1875,-0.171875 -1.53125,-0.75 0.34375,0.046875 0.65625,-0.171875 0.65625,-0.546875 0,-0.359375 -0.265625,-0.5625 -0.546875,-0.5625 -0.25,0 -0.5625,0.140625 -0.5625,0.578125 0,0.90625 0.921875,1.5625 2.015625,1.5625 1.21875,0 2.125,-0.90625 2.125,-1.921875 0,-0.8125 -0.640625,-1.59375 -1.671875,-1.8125 z m 0,0"
             id="id-d4ed7dd7-9064-41bb-a65b-98a9ef1123b1" />
        </symbol>
        <symbol
           overflow="visible"
           id="id-749bdb3c-7d80-4ce5-94bc-4a6d013f6d46">
          <path
             style="stroke:none;stroke-width:0"
             d="m 4.75,-6.078125 c 0.078125,-0.109375 0.078125,-0.125 0.078125,-0.34375 H 2.40625 c -1.203125,0 -1.234375,-0.125 -1.265625,-0.3125 h -0.25 L 0.5625,-4.6875 h 0.25 c 0.03125,-0.15625 0.109375,-0.78125 0.25,-0.90625 0.0625,-0.0625 0.84375,-0.0625 0.96875,-0.0625 h 2.0625 C 3.984375,-5.5 3.203125,-4.40625 2.984375,-4.078125 2.078125,-2.734375 1.75,-1.34375 1.75,-0.328125 c 0,0.09375 0,0.546875 0.46875,0.546875 0.453125,0 0.453125,-0.453125 0.453125,-0.546875 V -0.84375 c 0,-0.546875 0.03125,-1.09375 0.109375,-1.625 0.046875,-0.234375 0.171875,-1.09375 0.625,-1.703125 z m 0,0"
             id="id-069d1bc0-f58d-4110-9be2-86d2825c75bf" />
        </symbol>
        <symbol
           overflow="visible"
           id="id-e49cd6ad-3737-4a94-9cda-c94ea9855f9f">
          <path
             style="stroke:none;stroke-width:0"
             d="m 1.625,-4.5625 c -0.453125,-0.296875 -0.5,-0.625 -0.5,-0.796875 0,-0.609375 0.65625,-1.03125 1.359375,-1.03125 0.71875,0 1.359375,0.515625 1.359375,1.234375 0,0.578125 -0.390625,1.046875 -0.984375,1.390625 z m 1.453125,0.953125 C 3.796875,-3.984375 4.28125,-4.5 4.28125,-5.15625 c 0,-0.921875 -0.875,-1.484375 -1.78125,-1.484375 -1,0 -1.8125,0.734375 -1.8125,1.671875 0,0.171875 0.015625,0.625 0.4375,1.09375 0.109375,0.109375 0.484375,0.359375 0.734375,0.53125 C 1.28125,-3.046875 0.421875,-2.5 0.421875,-1.5 c 0,1.046875 1.015625,1.71875 2.0625,1.71875 1.125,0 2.078125,-0.828125 2.078125,-1.890625 0,-0.359375 -0.109375,-0.8125 -0.5,-1.234375 C 3.875,-3.109375 3.71875,-3.203125 3.078125,-3.609375 Z m -1,0.421875 1.234375,0.78125 c 0.28125,0.1875 0.75,0.484375 0.75,1.09375 0,0.734375 -0.75,1.25 -1.5625,1.25 -0.859375,0 -1.578125,-0.609375 -1.578125,-1.4375 0,-0.578125 0.3125,-1.21875 1.15625,-1.6875 z m 0,0"
             id="id-11f03911-a1a4-4ea7-a30a-a93b9eb4c5d0" />
        </symbol>
        <symbol
           overflow="visible"
           id="id-344154ce-0aed-425c-a662-deef30bdf34f">
          <path
             style="stroke:none;stroke-width:0"
             d="m 4.46875,-2 c 0,-1.1875 -0.8125,-2.1875 -1.890625,-2.1875 -0.46875,0 -0.90625,0.15625 -1.265625,0.515625 V -5.625 c 0.203125,0.0625 0.53125,0.125 0.84375,0.125 1.234375,0 1.9375,-0.90625 1.9375,-1.03125 0,-0.0625 -0.03125,-0.109375 -0.109375,-0.109375 0,0 -0.03125,0 -0.078125,0.03125 C 3.703125,-6.515625 3.21875,-6.3125 2.546875,-6.3125 2.15625,-6.3125 1.6875,-6.390625 1.21875,-6.59375 1.140625,-6.625 1.125,-6.625 1.109375,-6.625 1,-6.625 1,-6.546875 1,-6.390625 V -3.4375 c 0,0.171875 0,0.25 0.140625,0.25 0.078125,0 0.09375,-0.015625 0.140625,-0.078125 C 1.390625,-3.421875 1.75,-3.96875 2.5625,-3.96875 c 0.515625,0 0.765625,0.453125 0.84375,0.640625 0.15625,0.375 0.1875,0.75 0.1875,1.25 0,0.359375 0,0.953125 -0.25,1.375 C 3.109375,-0.3125 2.734375,-0.0625 2.28125,-0.0625 c -0.71875,0 -1.296875,-0.53125 -1.46875,-1.109375 0.03125,0 0.0625,0.015625 0.171875,0.015625 0.328125,0 0.5,-0.25 0.5,-0.484375 0,-0.25 -0.171875,-0.5 -0.5,-0.5 C 0.84375,-2.140625 0.5,-2.0625 0.5,-1.609375 0.5,-0.75 1.1875,0.21875 2.296875,0.21875 3.453125,0.21875 4.46875,-0.734375 4.46875,-2 Z m 0,0"
             id="id-0887993d-4e24-4f44-880f-4c9c90440574" />
        </symbol>
        <symbol
           overflow="visible"
           id="id-155ff090-b995-427f-87ea-5340d2a12e53">
          <path
             style="stroke:none;stroke-width:0"
             d=""
             id="id-06520fb2-fbfe-4c8d-b3d5-a16a5b090d0d" />
        </symbol>
        <symbol
           overflow="visible"
           id="id-a885cd5d-9ea0-4d53-97a4-ae5d429492d6">
          <path
             style="stroke:none;stroke-width:0"
             d="m 2.03125,-0.015625 c 0,-0.65625 -0.25,-1.046875 -0.640625,-1.046875 -0.328125,0 -0.53125,0.25 -0.53125,0.53125 C 0.859375,-0.265625 1.0625,0 1.390625,0 1.5,0 1.640625,-0.046875 1.734375,-0.125 1.765625,-0.15625 1.78125,-0.15625 1.78125,-0.15625 c 0.015625,0 0.015625,0 0.015625,0.140625 0,0.75 -0.34375,1.34375 -0.671875,1.671875 -0.109375,0.109375 -0.109375,0.125 -0.109375,0.15625 0,0.078125 0.046875,0.109375 0.09375,0.109375 0.109375,0 0.921875,-0.765625 0.921875,-1.9375 z m 0,0"
             id="id-705a5633-e6ed-420e-9eca-446cc6652765" />
        </symbol>
      </g>
    </defs>
    <defs
       id="id-bf55e41d-32ce-4fa1-86d1-1f726882299a">
      <g
         id="id-348793c6-7eef-440d-8910-38264bf0dca7">
        <symbol
           overflow="visible"
           id="id-202de87e-74a6-4708-99c4-44b7a7e981d3">
          <path
             style="stroke:none;stroke-width:0"
             d=""
             id="id-2b89d4b7-38f4-4c27-8bcb-25af79b8c613" />
        </symbol>
        <symbol
           overflow="visible"
           id="id-a0c95dd7-0f61-4cf8-b00c-6a6aa1b2c25b">
          <path
             style="stroke:none;stroke-width:0"
             d="M 1.78125,-1.140625 C 1.390625,-0.484375 1,-0.34375 0.5625,-0.3125 0.4375,-0.296875 0.34375,-0.296875 0.34375,-0.109375 0.34375,-0.046875 0.40625,0 0.484375,0 0.75,0 1.0625,-0.03125 1.328125,-0.03125 c 0.34375,0 0.6875,0.03125 1,0.03125 0.0625,0 0.1875,0 0.1875,-0.1875 0,-0.109375 -0.078125,-0.125 -0.15625,-0.125 -0.21875,-0.015625 -0.46875,-0.09375 -0.46875,-0.34375 0,-0.125 0.0625,-0.234375 0.140625,-0.375 l 0.765625,-1.265625 h 2.5 c 0.015625,0.203125 0.15625,1.5625 0.15625,1.65625 0,0.296875 -0.515625,0.328125 -0.71875,0.328125 C 4.59375,-0.3125 4.5,-0.3125 4.5,-0.109375 4.5,0 4.609375,0 4.640625,0 5.046875,0 5.46875,-0.03125 5.875,-0.03125 6.125,-0.03125 6.765625,0 7.015625,0 7.0625,0 7.1875,0 7.1875,-0.203125 7.1875,-0.3125 7.09375,-0.3125 6.953125,-0.3125 6.34375,-0.3125 6.34375,-0.375 6.3125,-0.671875 l -0.609375,-6.21875 c -0.015625,-0.203125 -0.015625,-0.25 -0.1875,-0.25 -0.15625,0 -0.203125,0.078125 -0.265625,0.171875 z M 2.984375,-2.609375 4.9375,-5.90625 5.265625,-2.609375 Z m 0,0"
             id="id-251ba7b8-5d25-448a-b36b-d8526bf23d6b" />
        </symbol>
        <symbol
           overflow="visible"
           id="id-e7d6dd40-70cc-459d-bcc3-97acc039d7ec">
          <path
             style="stroke:none;stroke-width:0"
             d="M 1.59375,-0.78125 C 1.5,-0.390625 1.46875,-0.3125 0.6875,-0.3125 c -0.171875,0 -0.265625,0 -0.265625,0.203125 C 0.421875,0 0.515625,0 0.6875,0 H 4.25 C 5.828125,0 7,-1.171875 7,-2.15625 7,-2.875 6.421875,-3.453125 5.453125,-3.5625 6.484375,-3.75 7.53125,-4.484375 7.53125,-5.4375 c 0,-0.734375 -0.65625,-1.375 -1.84375,-1.375 H 2.328125 c -0.1875,0 -0.28125,0 -0.28125,0.203125 0,0.109375 0.09375,0.109375 0.28125,0.109375 0.015625,0 0.203125,0 0.375,0.015625 0.171875,0.03125 0.265625,0.03125 0.265625,0.171875 0,0.03125 -0.015625,0.0625 -0.03125,0.1875 z m 1.5,-2.875 0.625,-2.46875 C 3.8125,-6.46875 3.828125,-6.5 4.25,-6.5 h 1.296875 c 0.875,0 1.078125,0.59375 1.078125,1.03125 0,0.875 -0.859375,1.8125 -2.0625,1.8125 z m -0.4375,3.34375 c -0.140625,0 -0.15625,0 -0.21875,0 -0.109375,-0.015625 -0.140625,-0.03125 -0.140625,-0.109375 0,-0.03125 0,-0.046875 0.0625,-0.21875 l 0.6875,-2.78125 h 1.875 c 0.953125,0 1.15625,0.734375 1.15625,1.15625 C 6.078125,-1.28125 5.1875,-0.3125 4,-0.3125 Z m 0,0"
             id="id-d3dc99ff-714d-4050-b504-86a029050237" />
        </symbol>
      </g>
    </defs>
  </defs>
  <g
     id="layer1"
     transform="translate(-47.492709,-95.117709)">
    <g
       id="g2249">
      <circle
         style="font-variation-settings:normal;opacity:1;vector-effect:none;fill:#19aeff;fill-opacity:0.423387;fill-rule:evenodd;stroke:#000000;stroke-width:0.264583;stroke-linecap:butt;stroke-linejoin:miter;stroke-miterlimit:4;stroke-dasharray:none;stroke-dashoffset:0;stroke-opacity:1;stop-color:#000000;stop-opacity:1"
         id="path848"
         cx="66.145836"
         cy="113.77083"
         r="13.229166" />
      <circle
         style="font-variation-settings:normal;opacity:1;vector-effect:none;fill:#decc00;fill-opacity:0.278226;fill-rule:evenodd;stroke:#000000;stroke-width:0.264583;stroke-linecap:butt;stroke-linejoin:miter;stroke-miterlimit:4;stroke-dasharray:none;stroke-dashoffset:0;stroke-opacity:1;stop-color:#000000;stop-opacity:1"
         id="circle930"
         cx="82.020828"
         cy="113.77083"
         r="13.229166" />
      <rect
         style="font-variation-settings:normal;opacity:1;vector-effect:none;fill:none;fill-opacity:1;fill-rule:evenodd;stroke:#000000;stroke-width:0.264583;stroke-linecap:butt;stroke-linejoin:miter;stroke-miterlimit:4;stroke-dasharray:none;stroke-dashoffset:0;stroke-opacity:1;stop-color:#000000;stop-opacity:1"
         id="rect954"
         width="52.916664"
         height="37.041668"
         x="47.625"
         y="95.25" />
      <path
         style="fill:#000000;fill-opacity:1;stroke:none;stroke-width:0"
         d="m 63.48239,106.02448 v 0.32276 c 0,0.13497 -0.01174,0.17605 -0.287552,0.17605 h -0.07629 v 0.11737 c 0.152579,-0.0117 0.346237,-0.0117 0.504684,-0.0117 0.158448,0 0.352106,0 0.510553,0.0117 v -0.11737 h -0.08216 c -0.275816,0 -0.281684,-0.0411 -0.281684,-0.17605 v -0.32276 h 0.369711 v -0.11737 h -0.369711 v -1.70185 c 0,-0.0763 0,-0.0998 -0.06455,-0.0998 -0.02934,0 -0.04108,0 -0.07042,0.047 l -1.15021,1.75466 v 0.11737 z M 63.5,105.90711 H 62.590394 L 63.5,104.51042 Z m 0,0"
         id="id-cd6c8dd9-c441-4281-823b-74e83611b192" />
      <path
         style="fill:#000000;fill-opacity:1;stroke:none;stroke-width:0"
         d="m 57.222438,110.8232 v -0.0939 c 0,-0.94482 0.463606,-1.07979 0.657264,-1.07979 0.08803,0 0.246473,0.0235 0.328631,0.15257 -0.05868,0 -0.205394,0 -0.205394,0.16432 0,0.11737 0.08803,0.17605 0.170184,0.17605 0.05868,0 0.176052,-0.0352 0.176052,-0.18192 0,-0.223 -0.164315,-0.40492 -0.475342,-0.40492 -0.48121,0 -0.985895,0.48121 -0.985895,1.30866 0,1.0035 0.434264,1.26758 0.7805,1.26758 0.416658,0 0.774632,-0.35211 0.774632,-0.84505 0,-0.47535 -0.3345,-0.83332 -0.751158,-0.83332 -0.252342,0 -0.393184,0.18779 -0.469474,0.36971 z m 0.446,1.20303 c -0.234736,0 -0.346236,-0.223 -0.36971,-0.28169 -0.07042,-0.17605 -0.07042,-0.47534 -0.07042,-0.53989 0,-0.29342 0.123237,-0.669 0.457737,-0.669 0.06455,0 0.234737,0 0.352105,0.23473 0.06455,0.13498 0.06455,0.32864 0.06455,0.51056 0,0.18192 0,0.36971 -0.06455,0.50468 -0.1115,0.223 -0.281684,0.24061 -0.369712,0.24061 z m 0,0"
         id="id-4102314f-d0b0-442c-8354-54f2b3db7298" />
      <g
         id="g1629"
         transform="translate(-19.210101,-26.709853)">
        <path
           style="fill:#000000;fill-opacity:1;stroke:none;stroke-width:0"
           d="m 77.418434,143.12652 c 0,-0.0939 0,-0.0998 -0.08803,-0.0998 -0.234737,0.24061 -0.563369,0.24061 -0.680737,0.24061 v 0.11736 c 0.07629,0 0.293421,0 0.487079,-0.0998 v 1.94245 c 0,0.13497 -0.01174,0.17605 -0.346237,0.17605 h -0.117368 v 0.11737 c 0.129105,-0.0117 0.451868,-0.0117 0.604447,-0.0117 0.146711,0 0.475342,0 0.604448,0.0117 v -0.11737 h -0.117369 c -0.340368,0 -0.346237,-0.0411 -0.346237,-0.17605 z m 0,0"
           id="id-9be711bd-5879-4a77-8dc5-edb3cb8da1d1" />
        <path
           style="fill:#000000;fill-opacity:1;stroke:none;stroke-width:0"
           d="m 79.905378,144.32368 c 0,-0.29929 -0.01761,-0.59858 -0.146711,-0.87439 -0.170184,-0.36385 -0.481211,-0.42253 -0.63379,-0.42253 -0.228868,0 -0.498815,0.0998 -0.657263,0.446 -0.117368,0.25821 -0.134973,0.55163 -0.134973,0.85092 0,0.28169 0.01174,0.61619 0.170184,0.90374 0.158447,0.29929 0.434263,0.37558 0.616184,0.37558 0.199526,0 0.487079,-0.0763 0.651395,-0.43427 0.117368,-0.25821 0.134974,-0.55163 0.134974,-0.84505 z m -0.786369,1.19716 c -0.14671,0 -0.369711,-0.0939 -0.434263,-0.45187 -0.04108,-0.223 -0.04108,-0.56924 -0.04108,-0.79224 0,-0.2406 0,-0.48707 0.02934,-0.6866 0.07042,-0.446 0.352105,-0.48121 0.446,-0.48121 0.123237,0 0.369711,0.0704 0.440132,0.44013 0.04108,0.21126 0.04108,0.49295 0.04108,0.72768 0,0.28169 0,0.53403 -0.04108,0.77464 -0.05868,0.35797 -0.269948,0.46947 -0.440132,0.46947 z m 0,0"
           id="id-75c21642-f0ec-4b80-b0f6-2a243dd9a4ed" />
      </g>
      <g
         id="g1633"
         transform="translate(-19.041328,-29.514057)">
        <path
           style="fill:#000000;fill-opacity:1;stroke:none;stroke-width:0"
           d="m 82.823016,143.12652 c 0,-0.0939 0,-0.0998 -0.08803,-0.0998 -0.234737,0.24061 -0.563369,0.24061 -0.680737,0.24061 v 0.11736 c 0.07629,0 0.293421,0 0.487079,-0.0998 v 1.94245 c 0,0.13497 -0.01174,0.17605 -0.346237,0.17605 h -0.117368 v 0.11737 c 0.129105,-0.0117 0.451868,-0.0117 0.604447,-0.0117 0.146711,0 0.475342,0 0.604448,0.0117 v -0.11737 h -0.117369 c -0.340368,0 -0.346237,-0.0411 -0.346237,-0.17605 z m 0,0"
           id="id-d982ea6c-3c7b-494c-9f0f-7b899abd2755" />
        <path
           style="fill:#000000;fill-opacity:1;stroke:none;stroke-width:0"
           d="m 84.693775,144.90466 v 0.32276 c 0,0.13497 -0.01174,0.17605 -0.287552,0.17605 h -0.07629 v 0.11737 c 0.152579,-0.0117 0.346237,-0.0117 0.504684,-0.0117 0.158448,0 0.352106,0 0.510553,0.0117 v -0.11737 h -0.08216 c -0.275816,0 -0.281684,-0.0411 -0.281684,-0.17605 v -0.32276 h 0.369711 v -0.11737 h -0.369711 v -1.70185 c 0,-0.0763 0,-0.0998 -0.06455,-0.0998 -0.02934,0 -0.04108,0 -0.07042,0.047 l -1.15021,1.75466 v 0.11737 z m 0.01761,-0.11737 h -0.909606 l 0.909606,-1.39669 z m 0,0"
           id="id-ba767cc6-55e8-4788-89aa-a0519623060e" />
      </g>
      <g
         id="g1637"
         transform="translate(-24.50705,-23.140293)">
        <path
           style="fill:#000000;fill-opacity:1;stroke:none;stroke-width:0"
           d="m 87.600053,145.23329 0.399053,-0.38732 c 0.580974,-0.51642 0.803974,-0.71595 0.803974,-1.09152 0,-0.4284 -0.3345,-0.72769 -0.792237,-0.72769 -0.422527,0 -0.698343,0.34624 -0.698343,0.68074 0,0.20539 0.18779,0.20539 0.199527,0.20539 0.06455,0 0.193658,-0.0411 0.193658,-0.19952 0,-0.0939 -0.07042,-0.19366 -0.199527,-0.19366 -0.02934,0 -0.03521,0 -0.04695,0.006 0.08216,-0.24648 0.287553,-0.38145 0.504684,-0.38145 0.340369,0 0.498816,0.30516 0.498816,0.61032 0,0.29928 -0.181921,0.59271 -0.393184,0.82744 L 87.353579,145.38 c -0.04108,0.0411 -0.04108,0.0528 -0.04108,0.14084 h 1.390816 l 0.09976,-0.65139 h -0.08803 c -0.02347,0.1115 -0.04695,0.27581 -0.08803,0.3345 -0.02347,0.0293 -0.269947,0.0293 -0.352105,0.0293 z m 0,0"
           id="id-f4e57f72-a48e-4dd8-b9c6-d5725243471a" />
        <path
           style="fill:#000000;fill-opacity:1;stroke:none;stroke-width:0"
           d="m 89.470812,145.23329 0.399053,-0.38732 c 0.580974,-0.51642 0.803974,-0.71595 0.803974,-1.09152 0,-0.4284 -0.3345,-0.72769 -0.792237,-0.72769 -0.422527,0 -0.698343,0.34624 -0.698343,0.68074 0,0.20539 0.18779,0.20539 0.199527,0.20539 0.06455,0 0.193658,-0.0411 0.193658,-0.19952 0,-0.0939 -0.07042,-0.19366 -0.199527,-0.19366 -0.02934,0 -0.03521,0 -0.04695,0.006 0.08216,-0.24648 0.287553,-0.38145 0.504684,-0.38145 0.340369,0 0.498816,0.30516 0.498816,0.61032 0,0.29928 -0.181921,0.59271 -0.393184,0.82744 L 89.224338,145.38 c -0.04108,0.0411 -0.04108,0.0528 -0.04108,0.14084 h 1.390816 l 0.09976,-0.65139 h -0.08803 c -0.02347,0.1115 -0.04695,0.27581 -0.08803,0.3345 -0.02347,0.0293 -0.269947,0.0293 -0.352105,0.0293 z m 0,0"
           id="id-e01954c4-1200-4e8d-94d8-a08fe6c1f740" />
      </g>
      <path
         style="fill:#000000;fill-opacity:1;stroke:none;stroke-width:0"
         d="m 83.43178,103.2873 c 0,-0.0939 0,-0.0998 -0.08803,-0.0998 -0.234737,0.24061 -0.563369,0.24061 -0.680737,0.24061 v 0.11736 c 0.07629,0 0.293421,0 0.487079,-0.0998 v 1.94245 c 0,0.13497 -0.01174,0.17605 -0.346237,0.17605 h -0.117368 v 0.11737 c 0.129105,-0.0117 0.451868,-0.0117 0.604447,-0.0117 0.146711,0 0.475342,0 0.604448,0.0117 v -0.11737 h -0.117365 c -0.340368,0 -0.346237,-0.0411 -0.346237,-0.17605 z m 0,0"
         id="id-ab587fe2-aa9d-443d-b5ce-da4f097afefd" />
      <path
         style="fill:#000000;fill-opacity:1;stroke:none;stroke-width:0"
         d="m 89.958333,113.77083 c 0.305158,-0.0998 0.52229,-0.35798 0.52229,-0.65727 0,-0.30516 -0.328632,-0.51642 -0.686606,-0.51642 -0.375579,0 -0.663131,0.223 -0.663131,0.51055 0,0.12324 0.08216,0.19366 0.193657,0.19366 0.1115,0 0.18779,-0.0822 0.18779,-0.19366 0,-0.18192 -0.176053,-0.18192 -0.228868,-0.18192 0.1115,-0.18779 0.357973,-0.23473 0.492947,-0.23473 0.158447,0 0.363842,0.0822 0.363842,0.41665 0,0.047 -0.01174,0.26408 -0.105631,0.4284 -0.1115,0.18192 -0.240606,0.19366 -0.334501,0.19366 -0.02934,0.006 -0.117368,0.0117 -0.14671,0.0117 -0.02934,0.006 -0.05282,0.0117 -0.05282,0.047 0,0.0411 0.02347,0.0411 0.08803,0.0411 h 0.164316 c 0.305158,0 0.446,0.25234 0.446,0.62205 0,0.51055 -0.25821,0.61619 -0.422526,0.61619 -0.164316,0 -0.446,-0.0646 -0.575105,-0.28169 0.129105,0.0176 0.246473,-0.0645 0.246473,-0.20539 0,-0.13498 -0.09976,-0.21127 -0.205394,-0.21127 -0.0939,0 -0.211264,0.0528 -0.211264,0.21714 0,0.34036 0.346237,0.58684 0.757027,0.58684 0.457737,0 0.798105,-0.34037 0.798105,-0.72182 0,-0.30516 -0.240605,-0.59858 -0.627921,-0.68073 z m 0,0"
         id="id-cf86e978-8072-4fc4-b518-7aaf35cc00f2" />
      <path
         style="fill:#000000;fill-opacity:1;stroke:none;stroke-width:0"
         d="m 84.637367,112.57702 c 0.0293,-0.0411 0.0293,-0.0469 0.0293,-0.1291 h -0.9096 c -0.45187,0 -0.463606,-0.047 -0.475343,-0.11737 h -0.0939 l -0.123237,0.76876 h 0.09389 c 0.01174,-0.0587 0.04108,-0.29342 0.0939,-0.34037 0.02347,-0.0235 0.316894,-0.0235 0.363842,-0.0235 h 0.774638 c -0.0411,0.0587 -0.3345,0.46948 -0.41666,0.59271 -0.340373,0.50469 -0.46361,1.02698 -0.46361,1.40842 0,0.0352 0,0.2054 0.17606,0.2054 0.17018,0 0.17018,-0.17019 0.17018,-0.2054 v -0.19365 c 0,-0.2054 0.0117,-0.41079 0.0411,-0.61032 0.0176,-0.088 0.0645,-0.41079 0.23474,-0.63966 z m 0,0"
         id="id-9d921a34-38af-4e7f-87f2-8647a3d99020" />
      <path
         style="fill:#000000;fill-opacity:1;stroke:none;stroke-width:0"
         d="m 88.635417,107.15625 c -0.17019,-0.1115 -0.18779,-0.23474 -0.18779,-0.29929 0,-0.22887 0.24647,-0.38731 0.51055,-0.38731 0.26995,0 0.51055,0.19365 0.51055,0.4636 0,0.21713 -0.14671,0.39319 -0.36971,0.52229 z m 0.54576,0.35797 c 0.26995,-0.14084 0.45187,-0.3345 0.45187,-0.58097 0,-0.34624 -0.32863,-0.5575 -0.669,-0.5575 -0.37558,0 -0.68074,0.27582 -0.68074,0.62792 0,0.0645 0.006,0.23474 0.16432,0.41079 0.0411,0.0411 0.18192,0.13498 0.27581,0.19953 -0.21713,0.1115 -0.53989,0.31689 -0.53989,0.69247 0,0.39319 0.38144,0.64553 0.77463,0.64553 0.42253,0 0.7805,-0.31103 0.7805,-0.71008 0,-0.13497 -0.0411,-0.30516 -0.18779,-0.46361 -0.0704,-0.0763 -0.12911,-0.1115 -0.36971,-0.26408 z m -0.37558,0.15845 0.46361,0.29342 c 0.10563,0.0704 0.28168,0.18192 0.28168,0.41079 0,0.27582 -0.28168,0.46948 -0.58684,0.46948 -0.32277,0 -0.59271,-0.22887 -0.59271,-0.5399 0,-0.21713 0.11737,-0.45774 0.43426,-0.63379 z m 0,0"
         id="id-dccd5122-c94c-4bab-9a98-d349b90ce925" />
      <g
         id="g1649"
         transform="translate(-19.818983,-24.46321)">
        <path
           style="fill:#000000;fill-opacity:1;stroke:none;stroke-width:0"
           d="m 107.35245,143.12652 c 0,-0.0939 0,-0.0998 -0.088,-0.0998 -0.23474,0.24061 -0.56337,0.24061 -0.68074,0.24061 v 0.11736 c 0.0763,0 0.29342,0 0.48708,-0.0998 v 1.94245 c 0,0.13497 -0.0117,0.17605 -0.34624,0.17605 h -0.11737 v 0.11737 c 0.12911,-0.0117 0.45187,-0.0117 0.60445,-0.0117 0.14671,0 0.47534,0 0.60445,0.0117 v -0.11737 h -0.11737 c -0.34037,0 -0.34624,-0.0411 -0.34624,-0.17605 z m 0,0"
           id="id-54a17368-0bc4-48d6-83f8-2d9ea8dc630e" />
        <path
           style="fill:#000000;fill-opacity:1;stroke:none;stroke-width:0"
           d="m 108.59529,145.23329 0.39905,-0.38732 c 0.58098,-0.51642 0.80398,-0.71595 0.80398,-1.09152 0,-0.4284 -0.3345,-0.72769 -0.79224,-0.72769 -0.42252,0 -0.69834,0.34624 -0.69834,0.68074 0,0.20539 0.18779,0.20539 0.19953,0.20539 0.0645,0 0.19365,-0.0411 0.19365,-0.19952 0,-0.0939 -0.0704,-0.19366 -0.19952,-0.19366 -0.0293,0 -0.0352,0 -0.047,0.006 0.0822,-0.24648 0.28755,-0.38145 0.50468,-0.38145 0.34037,0 0.49882,0.30516 0.49882,0.61032 0,0.29928 -0.18192,0.59271 -0.39318,0.82744 l -0.71595,0.79811 c -0.0411,0.0411 -0.0411,0.0528 -0.0411,0.14084 h 1.39082 l 0.0998,-0.65139 h -0.088 c -0.0235,0.1115 -0.0469,0.27581 -0.088,0.3345 -0.0235,0.0293 -0.26995,0.0293 -0.35211,0.0293 z m 0,0"
           id="id-022da5df-4dfc-4a0a-b6b0-cb7a651a7bc7" />
      </g>
      <g
         id="g1645"
         transform="translate(-33.237403,-21.647057)">
        <path
           style="fill:#000000;fill-opacity:1;stroke:none;stroke-width:0"
           d="m 112.75704,143.12652 c 0,-0.0939 0,-0.0998 -0.088,-0.0998 -0.23474,0.24061 -0.56337,0.24061 -0.68074,0.24061 v 0.11736 c 0.0763,0 0.29342,0 0.48708,-0.0998 v 1.94245 c 0,0.13497 -0.0117,0.17605 -0.34624,0.17605 h -0.11737 v 0.11737 c 0.12911,-0.0117 0.45187,-0.0117 0.60445,-0.0117 0.14671,0 0.47534,0 0.60445,0.0117 v -0.11737 h -0.11737 c -0.34037,0 -0.34624,-0.0411 -0.34624,-0.17605 z m 0,0"
           id="id-7fcdaf38-8c56-4422-8830-72c6dd4871d0" />
        <path
           style="fill:#000000;fill-opacity:1;stroke:none;stroke-width:0"
           d="m 114.61019,144.20045 c 0.30516,-0.0998 0.52229,-0.35798 0.52229,-0.65727 0,-0.30516 -0.32863,-0.51642 -0.68661,-0.51642 -0.37558,0 -0.66313,0.223 -0.66313,0.51055 0,0.12324 0.0822,0.19366 0.19366,0.19366 0.1115,0 0.18779,-0.0822 0.18779,-0.19366 0,-0.18192 -0.17605,-0.18192 -0.22887,-0.18192 0.1115,-0.18779 0.35797,-0.23473 0.49295,-0.23473 0.15844,0 0.36384,0.0822 0.36384,0.41665 0,0.047 -0.0117,0.26408 -0.10563,0.4284 -0.1115,0.18192 -0.24061,0.19366 -0.3345,0.19366 -0.0293,0.006 -0.11737,0.0117 -0.14671,0.0117 -0.0293,0.006 -0.0528,0.0117 -0.0528,0.047 0,0.0411 0.0235,0.0411 0.088,0.0411 h 0.16431 c 0.30516,0 0.446,0.25234 0.446,0.62205 0,0.51055 -0.25821,0.61619 -0.42252,0.61619 -0.16432,0 -0.446,-0.0646 -0.57511,-0.28169 0.12911,0.0176 0.24648,-0.0645 0.24648,-0.20539 0,-0.13498 -0.0998,-0.21127 -0.2054,-0.21127 -0.0939,0 -0.21126,0.0528 -0.21126,0.21714 0,0.34036 0.34623,0.58684 0.75702,0.58684 0.45774,0 0.79811,-0.34037 0.79811,-0.72182 0,-0.30516 -0.24061,-0.59858 -0.62792,-0.68073 z m 0,0"
           id="id-fe3ae21e-386f-418c-a3d5-2c2b95c3488e" />
      </g>
      <path
         style="fill:#000000;fill-opacity:1;stroke:none;stroke-width:0"
         d="m 73.945837,108.51772 c 0,-0.446 -0.30516,-0.82158 -0.71008,-0.82158 -0.17605,0 -0.34037,0.0587 -0.47534,0.19366 v -0.73355 c 0.0763,0.0235 0.19952,0.047 0.31689,0.047 0.46361,0 0.72769,-0.34037 0.72769,-0.38732 0,-0.0235 -0.0117,-0.0411 -0.0411,-0.0411 0,0 -0.0117,0 -0.0293,0.0117 -0.0763,0.0352 -0.25822,0.1115 -0.51056,0.1115 -0.14671,0 -0.32276,-0.0293 -0.49881,-0.10563 -0.0293,-0.0117 -0.0352,-0.0117 -0.0411,-0.0117 -0.0411,0 -0.0411,0.0293 -0.0411,0.088 v 1.10913 c 0,0.0645 0,0.0939 0.0528,0.0939 0.0293,0 0.0352,-0.006 0.0528,-0.0293 0.0411,-0.0587 0.17605,-0.26408 0.48121,-0.26408 0.19366,0 0.28755,0.17019 0.3169,0.24061 0.0587,0.14084 0.0704,0.28168 0.0704,0.46947 0,0.13497 0,0.35797 -0.0939,0.51642 -0.088,0.14671 -0.22887,0.24061 -0.39905,0.24061 -0.26995,0 -0.48708,-0.19953 -0.55163,-0.41666 0.0117,0 0.0235,0.006 0.0646,0.006 0.12324,0 0.18779,-0.0939 0.18779,-0.18192 0,-0.0939 -0.0645,-0.18779 -0.18779,-0.18779 -0.0528,0 -0.18192,0.0293 -0.18192,0.19952 0,0.32277 0.25821,0.68661 0.67487,0.68661 0.43426,0 0.81571,-0.35798 0.81571,-0.83332 z m 0,0"
         id="id-0dad5d03-70e6-4dbd-9b60-61af6d2b0617" />
      <path
         style="fill:#000000;fill-opacity:1;stroke:none;stroke-width:0"
         d="m 71.57829,114.1555 0.39905,-0.38732 c 0.58098,-0.51642 0.80398,-0.71595 0.80398,-1.09152 0,-0.4284 -0.3345,-0.72769 -0.79224,-0.72769 -0.42252,0 -0.69834,0.34624 -0.69834,0.68074 0,0.20539 0.18779,0.20539 0.19953,0.20539 0.0645,0 0.19365,-0.0411 0.19365,-0.19952 0,-0.0939 -0.0704,-0.19366 -0.19952,-0.19366 -0.0293,0 -0.0352,0 -0.0469,0.006 0.0822,-0.24648 0.28755,-0.38145 0.50468,-0.38145 0.34037,0 0.49882,0.30516 0.49882,0.61032 0,0.29928 -0.18192,0.59271 -0.39318,0.82744 l -0.71595,0.79811 c -0.0411,0.0411 -0.0411,0.0528 -0.0411,0.14084 h 1.39082 l 0.0998,-0.65139 h -0.088 c -0.0235,0.1115 -0.0469,0.27581 -0.088,0.3345 -0.0235,0.0293 -0.26995,0.0293 -0.35211,0.0293 z m 0,0"
         id="id-fffec40a-0823-4efc-908f-e6d6f7af70a3" />
      <g
         id="g1641"
         transform="translate(-50.642537,-25.287137)">
        <path
           style="fill:#000000;fill-opacity:1;stroke:none;stroke-width:0"
           d="m 124.81387,143.12652 c 0,-0.0939 0,-0.0998 -0.088,-0.0998 -0.23474,0.24061 -0.56337,0.24061 -0.68074,0.24061 v 0.11736 c 0.0763,0 0.29342,0 0.48708,-0.0998 v 1.94245 c 0,0.13497 -0.0117,0.17605 -0.34624,0.17605 h -0.11737 v 0.11737 c 0.12911,-0.0117 0.45187,-0.0117 0.60445,-0.0117 0.14671,0 0.47534,0 0.60445,0.0117 v -0.11737 h -0.11737 c -0.34037,0 -0.34624,-0.0411 -0.34624,-0.17605 z m 0,0"
           id="id-631dc03d-1f7f-4c83-a271-f27203cc6819" />
        <path
           style="fill:#000000;fill-opacity:1;stroke:none;stroke-width:0"
           d="m 126.68463,143.12652 c 0,-0.0939 0,-0.0998 -0.088,-0.0998 -0.23474,0.24061 -0.56337,0.24061 -0.68074,0.24061 v 0.11736 c 0.0763,0 0.29342,0 0.48708,-0.0998 v 1.94245 c 0,0.13497 -0.0117,0.17605 -0.34624,0.17605 h -0.11737 v 0.11737 c 0.12911,-0.0117 0.45187,-0.0117 0.60445,-0.0117 0.14671,0 0.47534,0 0.60445,0.0117 v -0.11737 h -0.11737 c -0.34037,0 -0.34624,-0.0411 -0.34624,-0.17605 z m 0,0"
           id="id-ddd35719-253a-428c-9732-af43dbfc2b67" />
      </g>
      <g
         style="fill:#000000;fill-opacity:1"
         id="id-44f789a6-5b93-44c1-b2ab-be584168ef5c"
         transform="matrix(0.375579,0,0,0.375579,-3.4679422,52.383958)">
        <g
           transform="translate(148.712,134.765)"
           id="g2146">
          <path
             style="stroke:none;stroke-width:0"
             d="M 1.78125,-1.140625 C 1.390625,-0.484375 1,-0.34375 0.5625,-0.3125 0.4375,-0.296875 0.34375,-0.296875 0.34375,-0.109375 0.34375,-0.046875 0.40625,0 0.484375,0 0.75,0 1.0625,-0.03125 1.328125,-0.03125 c 0.34375,0 0.6875,0.03125 1,0.03125 0.0625,0 0.1875,0 0.1875,-0.1875 0,-0.109375 -0.078125,-0.125 -0.15625,-0.125 -0.21875,-0.015625 -0.46875,-0.09375 -0.46875,-0.34375 0,-0.125 0.0625,-0.234375 0.140625,-0.375 l 0.765625,-1.265625 h 2.5 c 0.015625,0.203125 0.15625,1.5625 0.15625,1.65625 0,0.296875 -0.515625,0.328125 -0.71875,0.328125 C 4.59375,-0.3125 4.5,-0.3125 4.5,-0.109375 4.5,0 4.609375,0 4.640625,0 5.046875,0 5.46875,-0.03125 5.875,-0.03125 6.125,-0.03125 6.765625,0 7.015625,0 7.0625,0 7.1875,0 7.1875,-0.203125 7.1875,-0.3125 7.09375,-0.3125 6.953125,-0.3125 6.34375,-0.3125 6.34375,-0.375 6.3125,-0.671875 l -0.609375,-6.21875 c -0.015625,-0.203125 -0.015625,-0.25 -0.1875,-0.25 -0.15625,0 -0.203125,0.078125 -0.265625,0.171875 z M 2.984375,-2.609375 4.9375,-5.90625 5.265625,-2.609375 Z m 0,0"
             id="id-b004bbe3-3625-4b03-a382-a98a6cdb8e44" />
        </g>
      </g>
      <g
         style="fill:#000000;fill-opacity:1"
         id="id-d91f7597-6cb5-4e91-a05c-7a3b9b4c72ae"
         transform="matrix(0.375579,0,0,0.375579,32.595325,52.32234)">
        <g
           transform="translate(159.501,134.765)"
           id="g2150">
          <path
             style="stroke:none;stroke-width:0"
             d="M 1.59375,-0.78125 C 1.5,-0.390625 1.46875,-0.3125 0.6875,-0.3125 c -0.171875,0 -0.265625,0 -0.265625,0.203125 C 0.421875,0 0.515625,0 0.6875,0 H 4.25 C 5.828125,0 7,-1.171875 7,-2.15625 7,-2.875 6.421875,-3.453125 5.453125,-3.5625 6.484375,-3.75 7.53125,-4.484375 7.53125,-5.4375 c 0,-0.734375 -0.65625,-1.375 -1.84375,-1.375 H 2.328125 c -0.1875,0 -0.28125,0 -0.28125,0.203125 0,0.109375 0.09375,0.109375 0.28125,0.109375 0.015625,0 0.203125,0 0.375,0.015625 0.171875,0.03125 0.265625,0.03125 0.265625,0.171875 0,0.03125 -0.015625,0.0625 -0.03125,0.1875 z m 1.5,-2.875 0.625,-2.46875 C 3.8125,-6.46875 3.828125,-6.5 4.25,-6.5 h 1.296875 c 0.875,0 1.078125,0.59375 1.078125,1.03125 0,0.875 -0.859375,1.8125 -2.0625,1.8125 z m -0.4375,3.34375 c -0.140625,0 -0.15625,0 -0.21875,0 -0.109375,-0.015625 -0.140625,-0.03125 -0.140625,-0.109375 0,-0.03125 0,-0.046875 0.0625,-0.21875 l 0.6875,-2.78125 h 1.875 c 0.953125,0 1.15625,0.734375 1.15625,1.15625 C 6.078125,-1.28125 5.1875,-0.3125 4,-0.3125 Z m 0,0"
             id="id-0252e95f-def4-455d-b5e9-a71d2beddcf4" />
        </g>
      </g>
    </g>
  </g>
</svg>
