<?xml version="1.0" encoding="UTF-8" standalone="no"?>
<!-- Created with Inkscape (http://www.inkscape.org/) -->

<svg
   width="148.19865mm"
   height="46.000397mm"
   viewBox="0 0 148.19865 46.000398"
   version="1.1"
   id="svg5"
   sodipodi:docname="concaveUp.svg"
   inkscape:version="1.1 (c4e8f9e, 2021-05-24)"
   xmlns:inkscape="http://www.inkscape.org/namespaces/inkscape"
   xmlns:sodipodi="http://sodipodi.sourceforge.net/DTD/sodipodi-0.dtd"
   xmlns="http://www.w3.org/2000/svg"
   xmlns:svg="http://www.w3.org/2000/svg">
  <sodipodi:namedview
     id="namedview867"
     pagecolor="#ffffff"
     bordercolor="#666666"
     borderopacity="1.0"
     inkscape:pageshadow="2"
     inkscape:pageopacity="0.0"
     inkscape:pagecheckerboard="0"
     inkscape:document-units="mm"
     showgrid="false"
     inkscape:zoom="1.0134455"
     inkscape:cx="273.81838"
     inkscape:cy="189.94609"
     inkscape:window-width="1440"
     inkscape:window-height="847"
     inkscape:window-x="53"
     inkscape:window-y="50"
     inkscape:window-maximized="0"
     inkscape:current-layer="svg5"
     inkscape:snap-global="false">
    <inkscape:grid
       type="xygrid"
       id="grid1303"
       originx="-0.3731404"
       originy="-0.085981359" />
  </sodipodi:namedview>
  <defs
     id="defs2">
    <marker
       style="overflow:visible"
       id="Arrow2Lend"
       refX="0"
       refY="0"
       orient="auto">
      <path
         transform="matrix(-1.1,0,0,-1.1,-1.1,0)"
         d="M 8.7185878,4.0337352 -2.2072895,0.01601326 8.7185884,-4.0017078 c -1.7454984,2.3720609 -1.7354408,5.6174519 -6e-7,8.035443 z"
         style="fill:context-stroke;fill-rule:evenodd;stroke-width:0.625;stroke-linejoin:round"
         id="path1367" />
    </marker>
    <marker
       style="overflow:visible"
       id="Arrow2Lstart"
       refX="0"
       refY="0"
       orient="auto">
      <path
         transform="matrix(1.1,0,0,1.1,1.1,0)"
         d="M 8.7185878,4.0337352 -2.2072895,0.01601326 8.7185884,-4.0017078 c -1.7454984,2.3720609 -1.7354408,5.6174519 -6e-7,8.035443 z"
         style="fill:context-stroke;fill-rule:evenodd;stroke-width:0.625;stroke-linejoin:round"
         id="path1364" />
    </marker>
    <marker
       style="overflow:visible"
       id="TriangleInM"
       refX="0"
       refY="0"
       orient="auto">
      <path
         transform="scale(-0.4)"
         style="fill:context-stroke;fill-rule:evenodd;stroke:context-stroke;stroke-width:1pt"
         d="M 5.77,0 -2.88,5 V -5 Z"
         id="path1482" />
    </marker>
    <defs
       id="id-ec376ebf-8b72-4e40-9a60-a7c15da79b8a">
      <g
         id="id-3cb2e797-2300-49d4-b3e7-44aef3f8f591">
        <symbol
           overflow="visible"
           id="id-2b2b13ce-058b-4758-87b2-909c713c6061">
          <path
             style="stroke:none;stroke-width:0"
             d=""
             id="id-6e153159-5e48-4406-a893-2a361b379875" />
        </symbol>
        <symbol
           overflow="visible"
           id="id-3ded7c49-a995-4ba2-a895-614b2c4d6593">
          <path
             style="stroke:none;stroke-width:0"
             d="m 3.65625,-3.984375 h 0.859375 c 0.203125,0 0.296875,0 0.296875,-0.203125 0,-0.109375 -0.09375,-0.109375 -0.265625,-0.109375 H 3.71875 L 3.921875,-5.4375 c 0.046875,-0.203125 0.1875,-0.90625 0.25,-1.03125 0.078125,-0.1875 0.25,-0.34375 0.46875,-0.34375 0.03125,0 0.296875,0 0.484375,0.1875 -0.4375,0.03125 -0.546875,0.390625 -0.546875,0.53125 0,0.234375 0.1875,0.359375 0.375,0.359375 C 5.21875,-5.734375 5.5,-5.96875 5.5,-6.34375 c 0,-0.453125 -0.453125,-0.6875 -0.859375,-0.6875 -0.34375,0 -0.96875,0.1875 -1.265625,1.171875 -0.0625,0.203125 -0.09375,0.3125 -0.328125,1.5625 h -0.6875 c -0.203125,0 -0.3125,0 -0.3125,0.1875 0,0.125 0.09375,0.125 0.28125,0.125 h 0.65625 L 2.25,-0.046875 c -0.1875,0.96875 -0.359375,1.875 -0.875,1.875 -0.046875,0 -0.28125,0 -0.484375,-0.1875 C 1.359375,1.609375 1.453125,1.25 1.453125,1.109375 1.453125,0.875 1.265625,0.75 1.078125,0.75 0.8125,0.75 0.53125,0.984375 0.53125,1.359375 c 0,0.4375 0.4375,0.6875 0.84375,0.6875 0.546875,0 0.953125,-0.59375 1.125,-0.96875 0.328125,-0.625 0.546875,-1.828125 0.5625,-1.90625 z m 0,0"
             id="id-fbccfe3c-b84a-48c2-b540-b76e57304794" />
        </symbol>
        <symbol
           overflow="visible"
           id="id-82c1b4fa-00f3-41a8-b5a8-9a372af204c6">
          <path
             style="stroke:none;stroke-width:0"
             d="m 2.046875,-3.984375 h 0.9375 c 0.203125,0 0.3125,0 0.3125,-0.203125 0,-0.109375 -0.109375,-0.109375 -0.28125,-0.109375 h -0.875 C 2.5,-5.71875 2.546875,-5.90625 2.546875,-5.96875 c 0,-0.171875 -0.125,-0.265625 -0.296875,-0.265625 -0.03125,0 -0.3125,0 -0.390625,0.359375 L 1.46875,-4.296875 h -0.9375 c -0.203125,0 -0.296875,0 -0.296875,0.1875 0,0.125 0.078125,0.125 0.28125,0.125 h 0.875 C 0.671875,-1.15625 0.625,-0.984375 0.625,-0.8125 0.625,-0.265625 1,0.109375 1.546875,0.109375 2.5625,0.109375 3.125,-1.34375 3.125,-1.421875 3.125,-1.53125 3.046875,-1.53125 3.015625,-1.53125 2.921875,-1.53125 2.90625,-1.5 2.859375,-1.390625 2.4375,-0.34375 1.90625,-0.109375 1.5625,-0.109375 c -0.203125,0 -0.3125,-0.125 -0.3125,-0.453125 0,-0.25 0.03125,-0.3125 0.0625,-0.484375 z m 0,0"
             id="id-a8226c80-29f1-4534-be19-5d4f41db4453" />
        </symbol>
      </g>
    </defs>
    <defs
       id="id-6e996099-a62d-4e7d-a5d0-9a44fc2304af">
      <g
         id="id-c23af874-794a-49e0-97db-c60fcd662280">
        <symbol
           overflow="visible"
           id="id-f52f942d-3028-4b21-871c-0264bb6e4ce3">
          <path
             style="stroke:none;stroke-width:0"
             d=""
             id="id-2a633a79-33e5-4e54-818b-2224e75eebf8" />
        </symbol>
        <symbol
           overflow="visible"
           id="id-75d4c8e3-7906-44de-97fb-e560b4d08c58">
          <path
             style="stroke:none;stroke-width:0"
             d="M 3.890625,-3.734375 C 3.625,-3.71875 3.421875,-3.5 3.421875,-3.28125 c 0,0.140625 0.09375,0.296875 0.3125,0.296875 0.21875,0 0.453125,-0.171875 0.453125,-0.5625 C 4.1875,-4 3.765625,-4.40625 3,-4.40625 c -1.3125,0 -1.6875,1.015625 -1.6875,1.453125 0,0.78125 0.734375,0.921875 1.03125,0.984375 0.515625,0.109375 1.03125,0.21875 1.03125,0.765625 0,0.25 -0.21875,1.09375 -1.421875,1.09375 -0.140625,0 -0.90625,0 -1.140625,-0.53125 0.390625,0.046875 0.640625,-0.25 0.640625,-0.53125 0,-0.21875 -0.171875,-0.34375 -0.375,-0.34375 -0.265625,0 -0.5625,0.203125 -0.5625,0.65625 0,0.5625 0.578125,0.96875 1.421875,0.96875 1.625,0 2.015625,-1.203125 2.015625,-1.65625 0,-0.359375 -0.1875,-0.609375 -0.3125,-0.71875 -0.265625,-0.28125 -0.5625,-0.34375 -1,-0.421875 -0.359375,-0.078125 -0.75,-0.15625 -0.75,-0.609375 C 1.890625,-3.578125 2.125,-4.1875 3,-4.1875 c 0.25,0 0.75,0.078125 0.890625,0.453125 z m 0,0"
             id="id-2a5079c0-1d02-4384-a939-3597b70c6b75" />
        </symbol>
      </g>
    </defs>
    <defs
       id="id-6ea84a07-9ab7-4e5b-999e-73c2b5376848">
      <g
         id="id-3c440502-eef2-4e58-b2d6-c6e905874e31">
        <symbol
           overflow="visible"
           id="id-b9f3e3b2-d140-4986-bd89-c0c386e16d25">
          <path
             style="stroke:none;stroke-width:0"
             d=""
             id="id-ad21703c-5984-4ef1-92d4-5eb261b3ec8d" />
        </symbol>
        <symbol
           overflow="visible"
           id="id-2f4c3de4-2e6f-4d8b-8c51-71192984a645">
          <path
             style="stroke:none;stroke-width:0"
             d="m 3.65625,-3.984375 h 0.859375 c 0.203125,0 0.296875,0 0.296875,-0.203125 0,-0.109375 -0.09375,-0.109375 -0.265625,-0.109375 H 3.71875 L 3.921875,-5.4375 c 0.046875,-0.203125 0.1875,-0.90625 0.25,-1.03125 0.078125,-0.1875 0.25,-0.34375 0.46875,-0.34375 0.03125,0 0.296875,0 0.484375,0.1875 -0.4375,0.03125 -0.546875,0.390625 -0.546875,0.53125 0,0.234375 0.1875,0.359375 0.375,0.359375 C 5.21875,-5.734375 5.5,-5.96875 5.5,-6.34375 c 0,-0.453125 -0.453125,-0.6875 -0.859375,-0.6875 -0.34375,0 -0.96875,0.1875 -1.265625,1.171875 -0.0625,0.203125 -0.09375,0.3125 -0.328125,1.5625 h -0.6875 c -0.203125,0 -0.3125,0 -0.3125,0.1875 0,0.125 0.09375,0.125 0.28125,0.125 h 0.65625 L 2.25,-0.046875 c -0.1875,0.96875 -0.359375,1.875 -0.875,1.875 -0.046875,0 -0.28125,0 -0.484375,-0.1875 C 1.359375,1.609375 1.453125,1.25 1.453125,1.109375 1.453125,0.875 1.265625,0.75 1.078125,0.75 0.8125,0.75 0.53125,0.984375 0.53125,1.359375 c 0,0.4375 0.4375,0.6875 0.84375,0.6875 0.546875,0 0.953125,-0.59375 1.125,-0.96875 0.328125,-0.625 0.546875,-1.828125 0.5625,-1.90625 z m 0,0"
             id="id-fbe7dc9a-b0da-42fb-89bb-e8d916e1b2ce" />
        </symbol>
        <symbol
           overflow="visible"
           id="id-cf433f19-95d0-4ffe-a6a3-44f71209a504">
          <path
             style="stroke:none;stroke-width:0"
             d=""
             id="id-69295762-60a2-483a-9edb-0dae2707e1da" />
        </symbol>
        <symbol
           overflow="visible"
           id="id-b5bf50a2-6f2b-4219-8c3a-97fbf8735d65">
          <path
             style="stroke:none;stroke-width:0"
             d="m 2.015625,-3.296875 c 0.0625,-0.109375 0.0625,-0.171875 0.0625,-0.21875 0,-0.21875 -0.1875,-0.375 -0.40625,-0.375 -0.265625,0 -0.34375,0.21875 -0.375,0.328125 L 0.375,-0.546875 c -0.015625,0.015625 -0.046875,0.09375 -0.046875,0.109375 0,0.078125 0.21875,0.15625 0.28125,0.15625 0.046875,0 0.046875,-0.015625 0.09375,-0.125 z m 0,0"
             id="id-94ca5156-a1fd-491e-8ef5-7fa719c8e48a" />
        </symbol>
      </g>
    </defs>
  </defs>
  <g
     id="g1987"
     transform="translate(0,-0.04241412)">
    <g
       id="g1863">
      <g
         id="g1084">
        <path
           style="fill:none;stroke:#000000;stroke-width:0.264583px;stroke-linecap:butt;stroke-linejoin:miter;stroke-opacity:1;marker-start:url(#Arrow2Lstart);marker-end:url(#Arrow2Lend)"
           d="M 1.1739835,6.7128214 V 43.754481 H 38.215654"
           id="path859" />
        <path
           style="fill:#000000;fill-opacity:1;stroke:none;stroke-width:0"
           d="m 41.620367,43.560664 h 0.558718 c 0.121056,0 0.186239,0 0.186239,-0.121055 0,-0.06518 -0.06518,-0.06518 -0.167616,-0.06518 h -0.521469 c 0.214175,-0.847388 0.242112,-0.959131 0.242112,-0.996379 0,-0.102431 -0.0745,-0.158303 -0.176927,-0.158303 -0.01862,0 -0.18624,0 -0.232799,0.214175 l -0.232799,0.940507 h -0.558718 c -0.121055,0 -0.176927,0 -0.176927,0.111744 0,0.07449 0.04656,0.07449 0.167616,0.07449 h 0.521469 c -0.42835,1.685464 -0.456286,1.787896 -0.456286,1.890327 0,0.325919 0.223487,0.549406 0.549406,0.549406 0.605277,0 0.940507,-0.866012 0.940507,-0.912572 0,-0.06518 -0.04656,-0.06518 -0.06518,-0.06518 -0.05587,0 -0.06518,0.01862 -0.09312,0.08381 -0.251423,0.623901 -0.568029,0.76358 -0.772892,0.76358 -0.121056,0 -0.18624,-0.07449 -0.18624,-0.270046 0,-0.148992 0.01862,-0.186239 0.03725,-0.288671 z m 0,0"
           id="id-75e5260f-f557-4aa9-8b54-9ccbaf4ea2b3" />
        <path
           style="fill:#000000;fill-opacity:1;stroke:none;stroke-width:0"
           d="m 1.9564308,1.9536477 h 0.5271028 c 0.124588,0 0.1820901,0 0.1820901,-0.1245879 0,-0.067086 -0.057502,-0.067086 -0.1629227,-0.067086 H 1.9947656 l 0.1245879,-0.699609 c 0.028751,-0.12458793 0.1150043,-0.55585386 0.153339,-0.63252336 0.047918,-0.11500425 0.153339,-0.21084112 0.2875106,-0.21084112 0.019167,0 0.1820901,0 0.2970943,0.11500425 -0.2683432,0.0191674 -0.335429,0.23959218 -0.335429,0.32584537 0,0.14375531 0.1150042,0.2204248 0.2300085,0.2204248 0.1629227,0 0.335429,-0.14375531 0.335429,-0.3737638 0,-0.27792693 -0.2779269,-0.42168224 -0.5271028,-0.42168224 -0.2108411,0 -0.5941886,0.11500424 -0.7762787,0.71877655 C 1.7455897,0.92819318 1.7264223,0.99527899 1.582667,1.761974 H 1.1609848 c -0.124588,0 -0.19167378,0 -0.19167378,0.1150042 0,0.07667 0.0575021,0.07667 0.17250638,0.07667 H 1.5443323 L 1.093899,4.3687369 C 0.97889471,4.9629256 0.87347415,5.5187794 0.55721247,5.5187794 c -0.0287511,0 -0.17250638,0 -0.29709431,-0.1150042 C 0.54762878,5.3846078 0.6051309,5.164183 0.6051309,5.0779298 c 0,-0.1437553 -0.11500425,-0.2204248 -0.23000849,-0.2204248 -0.16292269,0 -0.33542906,0.1437553 -0.33542906,0.3737638 0,0.2683432 0.26834325,0.4216822 0.51751912,0.4216822 0.33542905,0 0.58460493,-0.3641801 0.69002553,-0.5941886 C 1.4484954,4.6754149 1.582667,3.937471 1.5922507,3.8895526 Z m 0,0"
           id="id-0194efd1-995b-4ae7-b6d0-64af22f888fe" />
        <path
           style="fill:none;stroke:#f66151;stroke-width:0.465;stroke-linecap:butt;stroke-linejoin:miter;stroke-miterlimit:4;stroke-dasharray:none;stroke-opacity:1"
           d="m 1.430993,43.582181 c 0,0 2e-6,-31.74999 31.750002,-31.74999"
           id="path974" />
        <path
           style="fill:none;stroke:#3584e4;stroke-width:0.264583px;stroke-linecap:butt;stroke-linejoin:miter;stroke-opacity:1"
           d="M 23.176933,8.714476 1.16865,28.5122"
           id="path1752"
           sodipodi:nodetypes="cc" />
        <path
           style="fill:none;stroke:#3584e4;stroke-width:0.264583px;stroke-linecap:butt;stroke-linejoin:miter;stroke-opacity:1"
           d="M 30.324103,8.731572 0.93589,23.554551"
           id="path1867"
           sodipodi:nodetypes="cc" />
      </g>
    </g>
    <path
       style="fill:none;stroke:#000000;stroke-width:0.264583px;stroke-linecap:butt;stroke-linejoin:miter;stroke-opacity:1;marker-start:url(#Arrow2Lstart);marker-end:url(#Arrow2Lend)"
       d="m 53.693722,6.755236 v 37.04166 h 37.04167"
       id="path1741" />
    <path
       style="fill:#000000;fill-opacity:1;stroke:none;stroke-width:0"
       d="m 94.140104,43.603079 h 0.558717 c 0.121055,0 0.186239,0 0.186239,-0.121055 0,-0.06518 -0.06518,-0.06518 -0.167615,-0.06518 h -0.521469 c 0.214175,-0.847388 0.242111,-0.959131 0.242111,-0.996379 0,-0.102431 -0.0745,-0.158303 -0.176928,-0.158303 -0.01862,0 -0.18624,0 -0.232799,0.214175 l -0.232799,0.940507 h -0.558718 c -0.121055,0 -0.176927,0 -0.176927,0.111744 0,0.07449 0.04656,0.07449 0.167616,0.07449 h 0.521469 c -0.42835,1.685464 -0.456286,1.787896 -0.456286,1.890327 0,0.325919 0.223487,0.549406 0.549406,0.549406 0.605277,0 0.940507,-0.866012 0.940507,-0.912572 0,-0.06518 -0.04656,-0.06518 -0.06518,-0.06518 -0.05587,0 -0.06518,0.01862 -0.09312,0.08381 -0.251423,0.623901 -0.568029,0.76358 -0.772892,0.76358 -0.121056,0 -0.18624,-0.07449 -0.18624,-0.270046 0,-0.148992 0.01862,-0.186239 0.03725,-0.288671 z m 0,0"
       id="path1751" />
    <path
       style="fill:#000000;fill-opacity:1;stroke:none;stroke-width:0"
       d="m 54.459575,2.2028073 h 0.527103 c 0.124588,0 0.18209,0 0.18209,-0.1245879 0,-0.067086 -0.0575,-0.067086 -0.162923,-0.067086 H 54.49791 l 0.124588,-0.699609 c 0.02875,-0.1245879 0.115004,-0.55585389 0.153339,-0.63252339 0.04792,-0.11500425 0.153339,-0.21084112 0.28751,-0.21084112 0.01917,0 0.18209,0 0.297094,0.11500425 -0.268343,0.0191674 -0.335429,0.23959218 -0.335429,0.32584537 0,0.14375529 0.115005,0.22042479 0.230009,0.22042479 0.162923,0 0.335429,-0.1437553 0.335429,-0.37376379 0,-0.27792693 -0.277927,-0.42168224 -0.527103,-0.42168224 -0.210841,0 -0.594188,0.11500424 -0.776279,0.71877653 -0.03833,0.124588 -0.0575,0.1916738 -0.201257,0.9583688 h -0.421682 c -0.124588,0 -0.191674,0 -0.191674,0.1150042 0,0.076669 0.0575,0.076669 0.172506,0.076669 h 0.402515 L 53.597043,4.617896 c -0.115004,0.5941887 -0.220425,1.1500425 -0.536687,1.1500425 -0.02875,0 -0.172506,0 -0.297094,-0.1150042 0.287511,-0.019167 0.345013,-0.2395922 0.345013,-0.3258454 0,-0.1437553 -0.115004,-0.2204248 -0.230009,-0.2204248 -0.162922,0 -0.335429,0.1437553 -0.335429,0.3737638 0,0.2683432 0.268344,0.4216822 0.517519,0.4216822 0.33543,0 0.584605,-0.3641801 0.690026,-0.5941886 0.201257,-0.3833475 0.335429,-1.1212914 0.345013,-1.1692098 z m 0,0"
       id="id-800566de-cb8e-46d1-837d-e65333d6f335" />
    <path
       style="fill:#000000;fill-opacity:1;stroke:none;stroke-width:0"
       d="m 57.100302,0.40659424 c 0.03833,-0.0670858 0.03833,-0.10542056 0.03833,-0.13417162 4e-6,-0.13417163 -0.115,-0.2300085 -0.249171,-0.2300085 -0.162923,0 -0.210842,0.13417162 -0.230009,0.20125744 L 56.094014,2.0933232 c -0.0096,0.00958 -0.02875,0.057502 -0.02875,0.067086 0,0.047918 0.134172,0.095837 0.172507,0.095837 0.02875,0 0.02875,-0.00958 0.0575,-0.076669 z m 0,0"
       id="id-6554a089-566d-4cdd-b0ce-d30c15e61517" />
    <path
       style="fill:none;stroke:#ff7800;stroke-width:0.465;stroke-linecap:butt;stroke-linejoin:miter;stroke-miterlimit:4;stroke-dasharray:none;stroke-opacity:1"
       d="m 86.416852,43.385143 c 0,0 -31.74999,-3e-6 -31.74999,-31.750003"
       id="path1535" />
    <path
       style="fill:none;stroke:#3584e4;stroke-width:0.264583px;stroke-linecap:butt;stroke-linejoin:miter;stroke-opacity:1"
       d="M 51.549147,21.639203 71.346871,43.647486"
       id="path1537"
       sodipodi:nodetypes="cc" />
    <path
       style="fill:none;stroke:#3584e4;stroke-width:0.264583px;stroke-linecap:butt;stroke-linejoin:miter;stroke-opacity:1"
       d="M 51.566243,14.492033 66.389222,43.880246"
       id="path1539"
       sodipodi:nodetypes="cc" />
    <path
       style="fill:none;stroke:#000000;stroke-width:0.264583px;stroke-linecap:butt;stroke-linejoin:miter;stroke-opacity:1;marker-start:url(#Arrow2Lstart);marker-end:url(#Arrow2Lend)"
       d="M 107.00732,6.7128214 V 43.754481 h 37.04167"
       id="path1086" />
    <path
       style="fill:#000000;fill-opacity:1;stroke:none;stroke-width:0"
       d="m 147.45371,43.560664 h 0.55871 c 0.12106,0 0.18624,0 0.18624,-0.121055 0,-0.06518 -0.0652,-0.06518 -0.16761,-0.06518 h -0.52147 c 0.21417,-0.847388 0.24211,-0.959131 0.24211,-0.996379 0,-0.102431 -0.0745,-0.158303 -0.17693,-0.158303 -0.0186,0 -0.18624,0 -0.23279,0.214175 l -0.2328,0.940507 h -0.55872 c -0.12106,0 -0.17693,0 -0.17693,0.111744 0,0.07449 0.0466,0.07449 0.16762,0.07449 h 0.52147 c -0.42835,1.685464 -0.45629,1.787896 -0.45629,1.890327 0,0.325919 0.22349,0.549406 0.54941,0.549406 0.60527,0 0.9405,-0.866012 0.9405,-0.912572 0,-0.06518 -0.0466,-0.06518 -0.0652,-0.06518 -0.0559,0 -0.0652,0.01862 -0.0931,0.08381 -0.25142,0.623901 -0.56803,0.76358 -0.77289,0.76358 -0.12105,0 -0.18624,-0.07449 -0.18624,-0.270046 0,-0.148992 0.0186,-0.186239 0.0373,-0.288671 z m 0,0"
       id="path1088" />
    <path
       style="fill:none;stroke:#f5c211;stroke-width:0.465;stroke-linecap:butt;stroke-linejoin:miter;stroke-miterlimit:4;stroke-dasharray:none;stroke-opacity:1"
       d="m 107.26433,43.582181 c 0,0 3.87638,-10.291491 35.62638,-10.291491"
       id="path1092"
       sodipodi:nodetypes="cc" />
    <path
       style="fill:none;stroke:#3584e4;stroke-width:0.264583px;stroke-linecap:butt;stroke-linejoin:miter;stroke-opacity:1"
       d="m 128.73686,28.855919 -26.56517,16.33449"
       id="path1094"
       sodipodi:nodetypes="cc" />
    <path
       style="fill:none;stroke:#3584e4;stroke-width:0.264583px;stroke-linecap:butt;stroke-linejoin:miter;stroke-opacity:1"
       d="m 134.79037,30.69577 -30.39072,9.901541"
       id="path1096"
       sodipodi:nodetypes="cc" />
    <path
       style="fill:#000000;fill-opacity:1;stroke:none;stroke-width:0"
       d="m 107.37625,2.2028073 h 0.5271 c 0.12459,0 0.18209,0 0.18209,-0.1245879 0,-0.067086 -0.0575,-0.067086 -0.16292,-0.067086 h -0.50794 l 0.12459,-0.699609 c 0.0288,-0.1245879 0.115,-0.55585389 0.15334,-0.63252339 0.0479,-0.11500425 0.15334,-0.21084112 0.28751,-0.21084112 0.0192,0 0.18209,0 0.29709,0.11500425 -0.26834,0.0191674 -0.33543,0.23959218 -0.33543,0.32584537 0,0.14375529 0.11501,0.22042479 0.23001,0.22042479 0.16293,0 0.33543,-0.1437553 0.33543,-0.37376379 0,-0.27792693 -0.27792,-0.42168224 -0.5271,-0.42168224 -0.21084,0 -0.59419,0.11500424 -0.77628,0.71877653 -0.0383,0.124588 -0.0575,0.1916738 -0.20126,0.9583688 h -0.42168 c -0.12459,0 -0.19167,0 -0.19167,0.1150042 0,0.076669 0.0575,0.076669 0.1725,0.076669 h 0.40252 l -0.45043,2.4150892 c -0.11501,0.5941887 -0.22043,1.1500425 -0.53669,1.1500425 -0.0288,0 -0.17251,0 -0.2971,-0.1150042 0.28752,-0.019167 0.34502,-0.2395922 0.34502,-0.3258454 0,-0.1437553 -0.11501,-0.2204248 -0.23001,-0.2204248 -0.16292,0 -0.33543,0.1437553 -0.33543,0.3737638 0,0.2683432 0.26834,0.4216822 0.51752,0.4216822 0.33543,0 0.5846,-0.3641801 0.69002,-0.5941886 0.20126,-0.3833475 0.33543,-1.1212914 0.34502,-1.1692098 z m 0,0"
       id="path1958" />
    <path
       style="fill:#000000;fill-opacity:1;stroke:none;stroke-width:0"
       d="m 110.01697,0.40659424 c 0.0383,-0.0670858 0.0383,-0.10542056 0.0383,-0.13417162 1e-5,-0.13417163 -0.115,-0.2300085 -0.24917,-0.2300085 -0.16292,0 -0.21084,0.13417162 -0.23001,0.20125744 l -0.56543,1.84965164 c -0.01,0.00958 -0.0288,0.057502 -0.0288,0.067086 0,0.047918 0.13417,0.095837 0.1725,0.095837 0.0288,0 0.0288,-0.00958 0.0575,-0.076669 z m 0,0"
       id="path1960" />
    <path
       style="fill:#000000;fill-opacity:1;stroke:none;stroke-width:0"
       d="m 111.07528,0.40659424 c 0.0383,-0.0670858 0.0383,-0.10542056 0.0383,-0.13417162 1e-5,-0.13417163 -0.115,-0.2300085 -0.24917,-0.2300085 -0.16292,0 -0.21084,0.13417162 -0.23001,0.20125744 l -0.56543,1.84965164 c -0.01,0.00958 -0.0288,0.057502 -0.0288,0.067086 0,0.047918 0.13417,0.095837 0.1725,0.095837 0.0288,0 0.0288,-0.00958 0.0575,-0.076669 z m 0,0"
       id="path1962" />
  </g>
</svg>
