<?xml version="1.0" encoding="UTF-8" standalone="no"?>
<!-- Created with Inkscape (http://www.inkscape.org/) -->

<svg
   width="18.378031mm"
   height="15.75269mm"
   viewBox="0 0 18.378031 15.752691"
   version="1.1"
   id="svg5"
   sodipodi:docname="connected_component.svg"
   inkscape:version="1.1 (c4e8f9e, 2021-05-24)"
   xmlns:inkscape="http://www.inkscape.org/namespaces/inkscape"
   xmlns:sodipodi="http://sodipodi.sourceforge.net/DTD/sodipodi-0.dtd"
   xmlns="http://www.w3.org/2000/svg"
   xmlns:svg="http://www.w3.org/2000/svg">
  <sodipodi:namedview
     id="namedview940"
     pagecolor="#ffffff"
     bordercolor="#666666"
     borderopacity="1.0"
     inkscape:pageshadow="2"
     inkscape:pageopacity="0.0"
     inkscape:pagecheckerboard="0"
     inkscape:document-units="mm"
     showgrid="true"
     inkscape:zoom="5.9587027"
     inkscape:cx="25.257175"
     inkscape:cy="23.578958"
     inkscape:window-width="1440"
     inkscape:window-height="847"
     inkscape:window-x="0"
     inkscape:window-y="25"
     inkscape:window-maximized="1"
     inkscape:current-layer="svg5"
     inkscape:snap-global="true">
    <inkscape:grid
       type="xygrid"
       id="grid1028"
       originx="-7.3471102"
       originy="-91.993871" />
  </sodipodi:namedview>
  <defs
     id="defs2">
    <marker
       style="overflow:visible"
       id="DotM"
       refX="0"
       refY="0"
       orient="auto"
       inkscape:stockid="DotM"
       inkscape:isstock="true">
      <path
         transform="matrix(0.4,0,0,0.4,2.96,0.4)"
         style="fill:context-stroke;fill-rule:evenodd;stroke:context-stroke;stroke-width:1pt"
         d="m -2.5,-1 c 0,2.76 -2.24,5 -5,5 -2.76,0 -5,-2.24 -5,-5 0,-2.76 2.24,-5 5,-5 2.76,0 5,2.24 5,5 z"
         id="path1298" />
    </marker>
    <marker
       style="overflow:visible"
       id="DotL"
       refX="0"
       refY="0"
       orient="auto">
      <path
         transform="matrix(0.8,0,0,0.8,5.92,0.8)"
         style="fill:context-stroke;fill-rule:evenodd;stroke:context-stroke;stroke-width:1pt"
         d="m -2.5,-1 c 0,2.76 -2.24,5 -5,5 -2.76,0 -5,-2.24 -5,-5 0,-2.76 2.24,-5 5,-5 2.76,0 5,2.24 5,5 z"
         id="path2375" />
    </marker>
    <defs
       id="id-5cca9bf7-6ab4-4533-92be-b33361ead314">
      <g
         id="id-42ce8389-74b1-4f10-8900-8ca69c18c01b">
        <symbol
           overflow="visible"
           id="id-daf97d15-f659-431a-8c8f-70f3ae1c6c8c">
          <path
             style="stroke:none"
             d=""
             id="id-eb0d8655-bfff-4582-9798-5664e05ce5a2" />
        </symbol>
        <symbol
           overflow="visible"
           id="id-3c9d9897-99b2-4bfc-a108-a0df22127224">
          <path
             style="stroke:none"
             d="m 3.65625,-3.984375 h 0.859375 c 0.203125,0 0.296875,0 0.296875,-0.203125 0,-0.109375 -0.09375,-0.109375 -0.265625,-0.109375 H 3.71875 L 3.921875,-5.4375 c 0.046875,-0.203125 0.1875,-0.90625 0.25,-1.03125 0.078125,-0.1875 0.25,-0.34375 0.46875,-0.34375 0.03125,0 0.296875,0 0.484375,0.1875 -0.4375,0.03125 -0.546875,0.390625 -0.546875,0.53125 0,0.234375 0.1875,0.359375 0.375,0.359375 C 5.21875,-5.734375 5.5,-5.96875 5.5,-6.34375 c 0,-0.453125 -0.453125,-0.6875 -0.859375,-0.6875 -0.34375,0 -0.96875,0.1875 -1.265625,1.171875 -0.0625,0.203125 -0.09375,0.3125 -0.328125,1.5625 h -0.6875 c -0.203125,0 -0.3125,0 -0.3125,0.1875 0,0.125 0.09375,0.125 0.28125,0.125 h 0.65625 L 2.25,-0.046875 c -0.1875,0.96875 -0.359375,1.875 -0.875,1.875 -0.046875,0 -0.28125,0 -0.484375,-0.1875 C 1.359375,1.609375 1.453125,1.25 1.453125,1.109375 1.453125,0.875 1.265625,0.75 1.078125,0.75 0.8125,0.75 0.53125,0.984375 0.53125,1.359375 c 0,0.4375 0.4375,0.6875 0.84375,0.6875 0.546875,0 0.953125,-0.59375 1.125,-0.96875 0.328125,-0.625 0.546875,-1.828125 0.5625,-1.90625 z m 0,0"
             id="id-1d4e5929-d1cf-4612-8ceb-c2e362a2fd38" />
        </symbol>
        <symbol
           overflow="visible"
           id="id-3285e101-c1bc-41c7-b9e7-b2334fb01d26">
          <path
             style="stroke:none"
             d="M 4.6875,-3.765625 C 4.703125,-3.8125 4.71875,-3.875 4.71875,-3.9375 c 0,-0.171875 -0.109375,-0.265625 -0.28125,-0.265625 -0.09375,0 -0.375,0.0625 -0.40625,0.421875 -0.1875,-0.359375 -0.53125,-0.625 -0.9375,-0.625 -1.125,0 -2.359375,1.390625 -2.359375,2.828125 0,0.984375 0.59375,1.578125 1.3125,1.578125 0.59375,0 1.0625,-0.46875 1.15625,-0.578125 L 3.21875,-0.5625 C 3.015625,0.3125 2.890625,0.734375 2.890625,0.75 2.84375,0.84375 2.515625,1.828125 1.453125,1.828125 1.265625,1.828125 0.9375,1.8125 0.65625,1.71875 0.953125,1.640625 1.0625,1.375 1.0625,1.203125 c 0,-0.15625 -0.109375,-0.34375 -0.375,-0.34375 -0.21875,0 -0.53125,0.171875 -0.53125,0.578125 0,0.40625 0.359375,0.609375 1.3125,0.609375 1.25,0 1.96875,-0.78125 2.125,-1.375 z M 3.40625,-1.28125 C 3.34375,-1.015625 3.109375,-0.765625 2.890625,-0.578125 2.6875,-0.40625 2.375,-0.21875 2.078125,-0.21875 c -0.5,0 -0.640625,-0.515625 -0.640625,-0.921875 0,-0.46875 0.28125,-1.65625 0.5625,-2.15625 C 2.265625,-3.78125 2.6875,-4.1875 3.109375,-4.1875 c 0.65625,0 0.796875,0.8125 0.796875,0.859375 0,0.046875 -0.015625,0.109375 -0.03125,0.140625 z m 0,0"
             id="id-e9aa846e-d3d7-44e9-8a6d-7216ba141b09" />
        </symbol>
        <symbol
           overflow="visible"
           id="id-3ba18641-c7a3-458a-8140-adc61682825d">
          <path
             style="stroke:none"
             d="m 2.859375,-6.8125 c 0,0 0,-0.109375 -0.125,-0.109375 -0.234375,0 -0.953125,0.078125 -1.21875,0.109375 -0.078125,0 -0.1875,0.015625 -0.1875,0.1875 0,0.125 0.09375,0.125 0.234375,0.125 0.484375,0 0.5,0.0625 0.5,0.171875 L 2.03125,-6.125 0.59375,-0.390625 c -0.046875,0.140625 -0.046875,0.15625 -0.046875,0.21875 0,0.234375 0.203125,0.28125 0.296875,0.28125 0.15625,0 0.3125,-0.125 0.359375,-0.265625 l 0.1875,-0.75 0.21875,-0.890625 C 1.671875,-2.03125 1.734375,-2.25 1.78125,-2.46875 1.796875,-2.53125 1.890625,-2.859375 1.890625,-2.921875 1.921875,-3.015625 2.234375,-3.5625 2.578125,-3.84375 2.796875,-4 3.09375,-4.1875 3.53125,-4.1875 c 0.421875,0 0.53125,0.34375 0.53125,0.703125 0,0.53125 -0.375,1.625 -0.609375,2.234375 C 3.375,-1.03125 3.3125,-0.90625 3.3125,-0.703125 c 0,0.46875 0.359375,0.8125 0.828125,0.8125 0.9375,0 1.296875,-1.453125 1.296875,-1.53125 0,-0.109375 -0.078125,-0.109375 -0.109375,-0.109375 -0.109375,0 -0.109375,0.03125 -0.15625,0.1875 -0.140625,0.53125 -0.46875,1.234375 -1.015625,1.234375 -0.171875,0 -0.234375,-0.09375 -0.234375,-0.328125 0,-0.25 0.078125,-0.484375 0.171875,-0.703125 0.15625,-0.4375 0.609375,-1.625 0.609375,-2.203125 0,-0.640625 -0.390625,-1.0625 -1.140625,-1.0625 -0.625,0 -1.109375,0.3125 -1.484375,0.765625 z m 0,0"
             id="id-b8b7d6ae-0362-449d-b1a6-32c02caf56ea" />
        </symbol>
        <symbol
           overflow="visible"
           id="id-cdfcb8ce-b73e-4845-9e44-f6069b98cbca">
          <path
             style="stroke:none"
             d="m 2.828125,-6.234375 c 0,-0.203125 -0.140625,-0.359375 -0.359375,-0.359375 -0.28125,0 -0.546875,0.265625 -0.546875,0.53125 0,0.1875 0.140625,0.359375 0.375,0.359375 0.234375,0 0.53125,-0.234375 0.53125,-0.53125 z m -0.75,3.75 c 0.109375,-0.28125 0.109375,-0.3125 0.21875,-0.578125 0.078125,-0.203125 0.125,-0.34375 0.125,-0.53125 0,-0.4375 -0.3125,-0.8125 -0.8125,-0.8125 -0.9375,0 -1.3125,1.453125 -1.3125,1.53125 0,0.109375 0.09375,0.109375 0.109375,0.109375 0.109375,0 0.109375,-0.03125 0.15625,-0.1875 0.28125,-0.9375 0.671875,-1.234375 1.015625,-1.234375 0.078125,0 0.25,0 0.25,0.3125 0,0.21875 -0.078125,0.421875 -0.109375,0.53125 -0.078125,0.25 -0.53125,1.40625 -0.6875,1.84375 -0.109375,0.25 -0.234375,0.578125 -0.234375,0.796875 0,0.46875 0.34375,0.8125 0.8125,0.8125 0.9375,0 1.3125,-1.4375 1.3125,-1.53125 0,-0.109375 -0.09375,-0.109375 -0.125,-0.109375 -0.09375,0 -0.09375,0.03125 -0.140625,0.1875 -0.1875,0.625 -0.515625,1.234375 -1.015625,1.234375 -0.171875,0 -0.25,-0.09375 -0.25,-0.328125 0,-0.25 0.0625,-0.390625 0.296875,-1 z m 0,0"
             id="id-fa73e000-7205-4a86-8370-984686f14c22" />
        </symbol>
        <symbol
           overflow="visible"
           id="id-f135f10e-e9bd-4a0e-8845-3e1ea2421849">
          <path
             style="stroke:none"
             d="m 3.953125,-6.234375 c 0,-0.1875 -0.140625,-0.359375 -0.375,-0.359375 -0.234375,0 -0.53125,0.234375 -0.53125,0.53125 0,0.203125 0.140625,0.359375 0.375,0.359375 0.265625,0 0.53125,-0.265625 0.53125,-0.53125 z m -2,6.734375 c -0.1875,0.75 -0.671875,1.328125 -1.21875,1.328125 -0.0625,0 -0.21875,0 -0.390625,-0.09375 0.296875,-0.0625 0.4375,-0.328125 0.4375,-0.53125 0,-0.15625 -0.109375,-0.34375 -0.375,-0.34375 -0.25,0 -0.53125,0.203125 -0.53125,0.5625 0,0.40625 0.390625,0.625 0.875,0.625 0.703125,0 1.625,-0.53125 1.875,-1.515625 L 3.53125,-3.125 c 0.0625,-0.1875 0.0625,-0.328125 0.0625,-0.359375 0,-0.578125 -0.421875,-0.921875 -0.921875,-0.921875 -1.015625,0 -1.578125,1.453125 -1.578125,1.53125 0,0.109375 0.09375,0.109375 0.109375,0.109375 0.09375,0 0.109375,-0.015625 0.1875,-0.203125 0.25,-0.609375 0.703125,-1.21875 1.25,-1.21875 0.140625,0 0.3125,0.046875 0.3125,0.453125 0,0.234375 -0.015625,0.34375 -0.0625,0.515625 z m 0,0"
             id="id-51546076-464d-489f-8314-3733b1d369b6" />
        </symbol>
        <symbol
           overflow="visible"
           id="id-6fb1728d-df96-4d5e-b99f-19539b794df2">
          <path
             style="stroke:none"
             d="m 2.859375,-6.8125 c 0,0 0,-0.109375 -0.125,-0.109375 -0.234375,0 -0.953125,0.078125 -1.21875,0.109375 -0.078125,0 -0.1875,0.015625 -0.1875,0.1875 0,0.125 0.09375,0.125 0.234375,0.125 0.484375,0 0.5,0.0625 0.5,0.171875 L 2.03125,-6.125 0.59375,-0.390625 c -0.046875,0.140625 -0.046875,0.15625 -0.046875,0.21875 0,0.234375 0.203125,0.28125 0.296875,0.28125 0.125,0 0.265625,-0.09375 0.328125,-0.203125 0.046875,-0.09375 0.5,-1.9375 0.5625,-2.1875 0.34375,0.03125 1.15625,0.1875 1.15625,0.84375 0,0.078125 0,0.109375 -0.03125,0.21875 -0.015625,0.109375 -0.03125,0.234375 -0.03125,0.34375 0,0.578125 0.390625,0.984375 0.90625,0.984375 0.296875,0 0.578125,-0.15625 0.796875,-0.53125 0.25,-0.4375 0.359375,-0.984375 0.359375,-1 0,-0.109375 -0.09375,-0.109375 -0.125,-0.109375 -0.09375,0 -0.109375,0.046875 -0.140625,0.1875 -0.203125,0.71875 -0.421875,1.234375 -0.859375,1.234375 -0.203125,0 -0.328125,-0.109375 -0.328125,-0.46875 0,-0.171875 0.046875,-0.40625 0.078125,-0.5625 C 3.5625,-1.3125 3.5625,-1.34375 3.5625,-1.453125 3.5625,-2.09375 2.9375,-2.375 2.078125,-2.5 2.390625,-2.671875 2.71875,-2.984375 2.9375,-3.234375 3.421875,-3.765625 3.875,-4.1875 4.359375,-4.1875 c 0.0625,0 0.078125,0 0.09375,0.015625 0.125,0.015625 0.125,0.015625 0.21875,0.078125 0.015625,0 0.015625,0.015625 0.03125,0.03125 -0.46875,0.03125 -0.5625,0.421875 -0.5625,0.546875 0,0.15625 0.109375,0.34375 0.375,0.34375 0.265625,0 0.546875,-0.21875 0.546875,-0.609375 0,-0.296875 -0.234375,-0.625 -0.671875,-0.625 -0.28125,0 -0.734375,0.078125 -1.453125,0.875 -0.34375,0.375 -0.734375,0.78125 -1.109375,0.921875 z m 0,0"
             id="id-6a11d582-5114-4825-93e5-6ccdc64866ac" />
        </symbol>
        <symbol
           overflow="visible"
           id="id-b8e4be2f-d4a7-4b04-8f97-1d88900febcb">
          <path
             style="stroke:none"
             d="m 1.859375,-2.296875 c 0.296875,0 1.03125,-0.03125 1.53125,-0.234375 0.703125,-0.296875 0.75,-0.890625 0.75,-1.03125 0,-0.4375 -0.375,-0.84375 -1.0625,-0.84375 -1.109375,0 -2.625,0.96875 -2.625,2.71875 0,1.015625 0.59375,1.796875 1.578125,1.796875 1.421875,0 2.25,-1.0625 2.25,-1.171875 0,-0.0625 -0.046875,-0.140625 -0.109375,-0.140625 -0.0625,0 -0.078125,0.03125 -0.140625,0.109375 -0.78125,0.984375 -1.875,0.984375 -1.984375,0.984375 -0.78125,0 -0.875,-0.84375 -0.875,-1.15625 0,-0.125 0.015625,-0.421875 0.15625,-1.03125 z m -0.46875,-0.21875 C 1.78125,-4.03125 2.8125,-4.1875 3.078125,-4.1875 c 0.453125,0 0.734375,0.296875 0.734375,0.625 0,1.046875 -1.59375,1.046875 -2.015625,1.046875 z m 0,0"
             id="id-d5498455-a994-4026-8231-b0a9089f79bb" />
        </symbol>
        <symbol
           overflow="visible"
           id="id-4e59a539-ffa6-44dd-b45a-fb1258b95c14">
          <path
             style="stroke:none"
             d=""
             id="id-1a1de153-43cf-4036-970d-be34b3640c09" />
        </symbol>
        <symbol
           overflow="visible"
           id="id-cd3be575-86b4-4c90-b6d6-0252cdf01b64">
          <path
             style="stroke:none"
             d="m 2.328125,-4.4375 c 0,-0.1875 0,-0.1875 -0.203125,-0.1875 -0.453125,0.4375 -1.078125,0.4375 -1.359375,0.4375 v 0.25 c 0.15625,0 0.625,0 1,-0.1875 v 3.546875 c 0,0.234375 0,0.328125 -0.6875,0.328125 H 0.8125 V 0 c 0.125,0 0.984375,-0.03125 1.234375,-0.03125 0.21875,0 1.09375,0.03125 1.25,0.03125 V -0.25 H 3.03125 c -0.703125,0 -0.703125,-0.09375 -0.703125,-0.328125 z m 0,0"
             id="id-1b404da2-cff4-4a27-9f8e-44ce68d79929" />
        </symbol>
        <symbol
           overflow="visible"
           id="id-48071caa-1f6f-4838-8e93-f7b0577e079c">
          <path
             style="stroke:none"
             d="M 3.515625,-1.265625 H 3.28125 c -0.015625,0.15625 -0.09375,0.5625 -0.1875,0.625 C 3.046875,-0.59375 2.515625,-0.59375 2.40625,-0.59375 H 1.125 c 0.734375,-0.640625 0.984375,-0.84375 1.390625,-1.171875 0.515625,-0.40625 1,-0.84375 1,-1.5 0,-0.84375 -0.734375,-1.359375 -1.625,-1.359375 -0.859375,0 -1.453125,0.609375 -1.453125,1.25 0,0.34375 0.296875,0.390625 0.375,0.390625 0.15625,0 0.359375,-0.125 0.359375,-0.375 0,-0.125 -0.046875,-0.375 -0.40625,-0.375 C 0.984375,-4.21875 1.453125,-4.375 1.78125,-4.375 c 0.703125,0 1.0625,0.546875 1.0625,1.109375 0,0.609375 -0.4375,1.078125 -0.65625,1.328125 L 0.515625,-0.265625 C 0.4375,-0.203125 0.4375,-0.1875 0.4375,0 h 2.875 z m 0,0"
             id="id-1395c378-1f1f-41f2-aa12-e323051712a0" />
        </symbol>
        <symbol
           overflow="visible"
           id="id-687da952-eb1e-4b5e-83d1-7a810b301f89">
          <path
             style="stroke:none"
             d="m 1.90625,-2.328125 c 0.546875,0 0.9375,0.375 0.9375,1.125 0,0.859375 -0.515625,1.125 -0.90625,1.125 -0.28125,0 -0.90625,-0.078125 -1.1875,-0.5 0.328125,0 0.40625,-0.234375 0.40625,-0.390625 0,-0.21875 -0.171875,-0.375 -0.390625,-0.375 -0.1875,0 -0.390625,0.125 -0.390625,0.40625 0,0.65625 0.71875,1.078125 1.5625,1.078125 0.96875,0 1.640625,-0.65625 1.640625,-1.34375 0,-0.546875 -0.4375,-1.09375 -1.203125,-1.25 0.71875,-0.265625 0.984375,-0.78125 0.984375,-1.21875 0,-0.546875 -0.625,-0.953125 -1.40625,-0.953125 -0.765625,0 -1.359375,0.375 -1.359375,0.9375 0,0.234375 0.15625,0.359375 0.359375,0.359375 0.21875,0 0.359375,-0.15625 0.359375,-0.34375 0,-0.203125 -0.140625,-0.359375 -0.359375,-0.375 0.25,-0.296875 0.71875,-0.375 0.984375,-0.375 0.3125,0 0.75,0.15625 0.75,0.75 0,0.296875 -0.09375,0.625 -0.28125,0.828125 -0.21875,0.265625 -0.421875,0.28125 -0.765625,0.3125 -0.171875,0.015625 -0.1875,0.015625 -0.21875,0.015625 -0.015625,0 -0.078125,0.015625 -0.078125,0.09375 0,0.09375 0.0625,0.09375 0.1875,0.09375 z m 0,0"
             id="id-1ac57852-66fb-4ab5-b4dc-c1032bdcc9a2" />
        </symbol>
        <symbol
           overflow="visible"
           id="id-9401120b-d300-4fe3-8454-c667430822cb">
          <path
             style="stroke:none"
             d="m 3.6875,-1.140625 v -0.25 H 2.90625 V -4.5 c 0,-0.140625 0,-0.203125 -0.140625,-0.203125 -0.09375,0 -0.125,0 -0.1875,0.109375 l -2.3125,3.203125 v 0.25 h 2.0625 v 0.5625 c 0,0.25 0,0.328125 -0.578125,0.328125 H 1.5625 V 0 C 1.921875,-0.015625 2.359375,-0.03125 2.609375,-0.03125 2.875,-0.03125 3.3125,-0.015625 3.671875,0 v -0.25 h -0.1875 C 2.90625,-0.25 2.90625,-0.328125 2.90625,-0.578125 v -0.5625 z M 2.375,-3.9375 v 2.546875 H 0.53125 Z m 0,0"
             id="id-540bb140-1f8b-4c4f-b7d1-7acb98300e8c" />
        </symbol>
        <symbol
           overflow="visible"
           id="id-5ec56bc0-3680-4d88-949a-ef5c240e61af">
          <path
             style="stroke:none"
             d="m 1.078125,-3.890625 c 0.359375,0.09375 0.5625,0.09375 0.671875,0.09375 0.921875,0 1.46875,-0.625 1.46875,-0.734375 0,-0.078125 -0.046875,-0.09375 -0.078125,-0.09375 -0.015625,0 -0.03125,0 -0.0625,0.015625 -0.171875,0.0625 -0.53125,0.203125 -1.046875,0.203125 -0.203125,0 -0.5625,-0.015625 -1.015625,-0.1875 C 0.9375,-4.625 0.921875,-4.625 0.921875,-4.625 c -0.09375,0 -0.09375,0.078125 -0.09375,0.1875 v 2.046875 c 0,0.125 0,0.203125 0.109375,0.203125 0.0625,0 0.078125,0 0.140625,-0.09375 0.296875,-0.375 0.734375,-0.4375 0.96875,-0.4375 0.421875,0 0.609375,0.328125 0.640625,0.390625 0.125,0.234375 0.171875,0.5 0.171875,0.90625 0,0.203125 0,0.609375 -0.21875,0.921875 -0.171875,0.25 -0.46875,0.421875 -0.8125,0.421875 -0.453125,0 -0.921875,-0.25 -1.09375,-0.71875 0.265625,0.015625 0.40625,-0.15625 0.40625,-0.34375 0,-0.296875 -0.265625,-0.34375 -0.359375,-0.34375 0,0 -0.34375,0 -0.34375,0.375 0,0.625 0.578125,1.25 1.40625,1.25 0.890625,0 1.671875,-0.65625 1.671875,-1.546875 0,-0.78125 -0.59375,-1.5 -1.453125,-1.5 -0.3125,0 -0.671875,0.0625 -0.984375,0.328125 z m 0,0"
             id="id-24c2d6db-b791-4e6b-a23c-281f2707a80f" />
        </symbol>
        <symbol
           overflow="visible"
           id="id-e0d3cb4f-69a5-4bfa-86c1-a40e06da2f85">
          <path
             style="stroke:none"
             d="m 1.046875,-2.28125 c 0,-0.5625 0.046875,-1.078125 0.3125,-1.515625 0.234375,-0.375 0.609375,-0.625 1.0625,-0.625 0.203125,0 0.484375,0.046875 0.625,0.234375 C 2.875,-4.171875 2.71875,-4.046875 2.71875,-3.84375 c 0,0.171875 0.125,0.328125 0.328125,0.328125 0.21875,0 0.34375,-0.140625 0.34375,-0.34375 0,-0.40625 -0.296875,-0.765625 -0.984375,-0.765625 -1,0 -2.03125,0.921875 -2.03125,2.421875 0,1.796875 0.84375,2.34375 1.625,2.34375 0.84375,0 1.578125,-0.65625 1.578125,-1.5625 0,-0.890625 -0.703125,-1.546875 -1.515625,-1.546875 -0.5625,0 -0.859375,0.375 -1.015625,0.6875 z M 2,-0.078125 c -0.359375,0 -0.625,-0.203125 -0.78125,-0.515625 C 1.125,-0.796875 1.0625,-1.15625 1.0625,-1.5625 c 0,-0.6875 0.40625,-1.203125 0.96875,-1.203125 0.3125,0 0.53125,0.125 0.703125,0.375 0.171875,0.265625 0.171875,0.5625 0.171875,0.96875 0,0.390625 0,0.6875 -0.1875,0.96875 -0.15625,0.234375 -0.390625,0.375 -0.71875,0.375 z m 0,0"
             id="id-21f3d4a2-f246-45e9-b1e2-314f9d3c0621" />
        </symbol>
      </g>
    </defs>
    <defs
       id="id-629db5c2-2adc-4273-854b-0f1cc6dad1d6">
      <g
         id="id-6869a35f-fee5-4f43-b1f2-3b6ad58e18fd">
        <symbol
           overflow="visible"
           id="id-923878e3-d038-4f2b-9daf-2601d8765c6e">
          <path
             style="stroke:none;stroke-width:0"
             d=""
             id="id-33f3ee74-6eef-4128-a469-44d91aee008a" />
        </symbol>
        <symbol
           overflow="visible"
           id="id-1dbca71d-88f5-484a-9c5f-2927a6143c10">
          <path
             style="stroke:none;stroke-width:0"
             d="M 3.71875,-3.765625 C 3.53125,-4.140625 3.25,-4.40625 2.796875,-4.40625 c -1.15625,0 -2.390625,1.46875 -2.390625,2.921875 0,0.9375 0.546875,1.59375 1.3125,1.59375 0.203125,0 0.703125,-0.046875 1.296875,-0.75 0.078125,0.421875 0.4375,0.75 0.90625,0.75 0.359375,0 0.578125,-0.234375 0.75,-0.546875 0.15625,-0.359375 0.296875,-0.96875 0.296875,-0.984375 0,-0.109375 -0.09375,-0.109375 -0.125,-0.109375 -0.09375,0 -0.109375,0.046875 -0.140625,0.1875 -0.171875,0.640625 -0.34375,1.234375 -0.75,1.234375 -0.28125,0 -0.296875,-0.265625 -0.296875,-0.453125 0,-0.21875 0.015625,-0.3125 0.125,-0.75 C 3.890625,-1.71875 3.90625,-1.828125 4,-2.203125 L 4.359375,-3.59375 c 0.0625,-0.28125 0.0625,-0.296875 0.0625,-0.34375 0,-0.171875 -0.109375,-0.265625 -0.28125,-0.265625 -0.25,0 -0.390625,0.21875 -0.421875,0.4375 z M 3.078125,-1.1875 C 3.015625,-1 3.015625,-0.984375 2.875,-0.8125 2.4375,-0.265625 2.03125,-0.109375 1.75,-0.109375 c -0.5,0 -0.640625,-0.546875 -0.640625,-0.9375 0,-0.5 0.3125,-1.71875 0.546875,-2.1875 0.3125,-0.578125 0.75,-0.953125 1.15625,-0.953125 0.640625,0 0.78125,0.8125 0.78125,0.875 0,0.0625 -0.015625,0.125 -0.03125,0.171875 z m 0,0"
             id="id-cf5fc040-f38c-4d41-8f91-835c2a05a6a3" />
        </symbol>
        <symbol
           overflow="visible"
           id="id-f9a2e261-4b91-4da1-ac5e-4ba1d6bf1886">
          <path
             style="stroke:none;stroke-width:0"
             d="m 2.375,-6.8125 c 0,0 0,-0.109375 -0.125,-0.109375 -0.21875,0 -0.953125,0.078125 -1.21875,0.109375 -0.078125,0 -0.1875,0.015625 -0.1875,0.1875 0,0.125 0.09375,0.125 0.25,0.125 0.46875,0 0.484375,0.0625 0.484375,0.171875 0,0.0625 -0.078125,0.40625 -0.125,0.609375 l -0.828125,3.25 c -0.109375,0.5 -0.15625,0.671875 -0.15625,1.015625 0,0.9375 0.53125,1.5625 1.265625,1.5625 1.171875,0 2.40625,-1.484375 2.40625,-2.921875 0,-0.90625 -0.53125,-1.59375 -1.328125,-1.59375 -0.453125,0 -0.875,0.296875 -1.171875,0.59375 z M 1.453125,-3.046875 C 1.5,-3.265625 1.5,-3.28125 1.59375,-3.390625 2.078125,-4.03125 2.53125,-4.1875 2.796875,-4.1875 c 0.359375,0 0.625,0.296875 0.625,0.9375 0,0.59375 -0.328125,1.734375 -0.515625,2.109375 -0.328125,0.671875 -0.78125,1.03125 -1.171875,1.03125 -0.34375,0 -0.671875,-0.265625 -0.671875,-1 0,-0.203125 0,-0.390625 0.15625,-1.015625 z m 0,0"
             id="id-ea0f1b7e-7f09-497f-b5b2-a0d3afa19a0c" />
        </symbol>
        <symbol
           overflow="visible"
           id="id-45d144e8-62cc-4134-b79f-09b1b7453a6e">
          <path
             style="stroke:none;stroke-width:0"
             d="m 3.953125,-3.78125 c -0.171875,0 -0.296875,0 -0.4375,0.125 -0.171875,0.15625 -0.1875,0.328125 -0.1875,0.390625 0,0.25 0.1875,0.359375 0.375,0.359375 0.28125,0 0.546875,-0.25 0.546875,-0.640625 0,-0.484375 -0.46875,-0.859375 -1.171875,-0.859375 -1.34375,0 -2.671875,1.421875 -2.671875,2.828125 0,0.90625 0.578125,1.6875 1.625,1.6875 1.421875,0 2.25,-1.0625 2.25,-1.171875 0,-0.0625 -0.046875,-0.140625 -0.109375,-0.140625 -0.0625,0 -0.078125,0.03125 -0.140625,0.109375 -0.78125,0.984375 -1.875,0.984375 -1.984375,0.984375 -0.625,0 -0.90625,-0.484375 -0.90625,-1.09375 0,-0.40625 0.203125,-1.375 0.546875,-1.984375 0.3125,-0.578125 0.859375,-1 1.40625,-1 0.328125,0 0.71875,0.125 0.859375,0.40625 z m 0,0"
             id="id-7910f9a3-c2fa-4519-be97-1c2c24ca0c63" />
        </symbol>
        <symbol
           overflow="visible"
           id="id-8a675214-8489-4979-b65d-1553700b976a">
          <path
             style="stroke:none;stroke-width:0"
             d="m 5.140625,-6.8125 c 0,0 0,-0.109375 -0.125,-0.109375 -0.15625,0 -1.09375,0.09375 -1.265625,0.109375 -0.078125,0.015625 -0.140625,0.0625 -0.140625,0.1875 0,0.125 0.09375,0.125 0.234375,0.125 0.484375,0 0.5,0.0625 0.5,0.171875 L 4.3125,-6.125 3.71875,-3.765625 C 3.53125,-4.140625 3.25,-4.40625 2.796875,-4.40625 c -1.15625,0 -2.390625,1.46875 -2.390625,2.921875 0,0.9375 0.546875,1.59375 1.3125,1.59375 0.203125,0 0.703125,-0.046875 1.296875,-0.75 0.078125,0.421875 0.4375,0.75 0.90625,0.75 0.359375,0 0.578125,-0.234375 0.75,-0.546875 0.15625,-0.359375 0.296875,-0.96875 0.296875,-0.984375 0,-0.109375 -0.09375,-0.109375 -0.125,-0.109375 -0.09375,0 -0.109375,0.046875 -0.140625,0.1875 -0.171875,0.640625 -0.34375,1.234375 -0.75,1.234375 -0.28125,0 -0.296875,-0.265625 -0.296875,-0.453125 0,-0.25 0.015625,-0.3125 0.046875,-0.484375 z m -2.0625,5.625 C 3.015625,-1 3.015625,-0.984375 2.875,-0.8125 2.4375,-0.265625 2.03125,-0.109375 1.75,-0.109375 c -0.5,0 -0.640625,-0.546875 -0.640625,-0.9375 0,-0.5 0.3125,-1.71875 0.546875,-2.1875 0.3125,-0.578125 0.75,-0.953125 1.15625,-0.953125 0.640625,0 0.78125,0.8125 0.78125,0.875 0,0.0625 -0.015625,0.125 -0.03125,0.171875 z m 0,0"
             id="id-e932d5f5-da72-4f78-a396-219798c7f143" />
        </symbol>
        <symbol
           overflow="visible"
           id="id-57e59788-7c47-454f-ad5e-1585b0f9e808">
          <path
             style="stroke:none;stroke-width:0"
             d="m 2.859375,-6.8125 c 0,0 0,-0.109375 -0.125,-0.109375 -0.234375,0 -0.953125,0.078125 -1.21875,0.109375 -0.078125,0 -0.1875,0.015625 -0.1875,0.1875 0,0.125 0.09375,0.125 0.234375,0.125 0.484375,0 0.5,0.0625 0.5,0.171875 L 2.03125,-6.125 0.59375,-0.390625 c -0.046875,0.140625 -0.046875,0.15625 -0.046875,0.21875 0,0.234375 0.203125,0.28125 0.296875,0.28125 0.15625,0 0.3125,-0.125 0.359375,-0.265625 l 0.1875,-0.75 0.21875,-0.890625 C 1.671875,-2.03125 1.734375,-2.25 1.78125,-2.46875 1.796875,-2.53125 1.890625,-2.859375 1.890625,-2.921875 1.921875,-3.015625 2.234375,-3.5625 2.578125,-3.84375 2.796875,-4 3.09375,-4.1875 3.53125,-4.1875 c 0.421875,0 0.53125,0.34375 0.53125,0.703125 0,0.53125 -0.375,1.625 -0.609375,2.234375 C 3.375,-1.03125 3.3125,-0.90625 3.3125,-0.703125 c 0,0.46875 0.359375,0.8125 0.828125,0.8125 0.9375,0 1.296875,-1.453125 1.296875,-1.53125 0,-0.109375 -0.078125,-0.109375 -0.109375,-0.109375 -0.109375,0 -0.109375,0.03125 -0.15625,0.1875 -0.140625,0.53125 -0.46875,1.234375 -1.015625,1.234375 -0.171875,0 -0.234375,-0.09375 -0.234375,-0.328125 0,-0.25 0.078125,-0.484375 0.171875,-0.703125 0.15625,-0.4375 0.609375,-1.625 0.609375,-2.203125 0,-0.640625 -0.390625,-1.0625 -1.140625,-1.0625 -0.625,0 -1.109375,0.3125 -1.484375,0.765625 z m 0,0"
             id="id-a10de070-d2a0-4cb5-ac4e-6266f388ce1d" />
        </symbol>
        <symbol
           overflow="visible"
           id="id-32505386-90da-435f-b12e-c5a691bc0abe">
          <path
             style="stroke:none;stroke-width:0"
             d="m 2.828125,-6.234375 c 0,-0.203125 -0.140625,-0.359375 -0.359375,-0.359375 -0.28125,0 -0.546875,0.265625 -0.546875,0.53125 0,0.1875 0.140625,0.359375 0.375,0.359375 0.234375,0 0.53125,-0.234375 0.53125,-0.53125 z m -0.75,3.75 c 0.109375,-0.28125 0.109375,-0.3125 0.21875,-0.578125 0.078125,-0.203125 0.125,-0.34375 0.125,-0.53125 0,-0.4375 -0.3125,-0.8125 -0.8125,-0.8125 -0.9375,0 -1.3125,1.453125 -1.3125,1.53125 0,0.109375 0.09375,0.109375 0.109375,0.109375 0.109375,0 0.109375,-0.03125 0.15625,-0.1875 0.28125,-0.9375 0.671875,-1.234375 1.015625,-1.234375 0.078125,0 0.25,0 0.25,0.3125 0,0.21875 -0.078125,0.421875 -0.109375,0.53125 -0.078125,0.25 -0.53125,1.40625 -0.6875,1.84375 -0.109375,0.25 -0.234375,0.578125 -0.234375,0.796875 0,0.46875 0.34375,0.8125 0.8125,0.8125 0.9375,0 1.3125,-1.4375 1.3125,-1.53125 0,-0.109375 -0.09375,-0.109375 -0.125,-0.109375 -0.09375,0 -0.09375,0.03125 -0.140625,0.1875 -0.1875,0.625 -0.515625,1.234375 -1.015625,1.234375 -0.171875,0 -0.25,-0.09375 -0.25,-0.328125 0,-0.25 0.0625,-0.390625 0.296875,-1 z m 0,0"
             id="id-60ea93b5-d48c-4380-8c20-02ab82d5e585" />
        </symbol>
        <symbol
           overflow="visible"
           id="id-d6cf6f14-b139-4273-af02-25720367f2c0">
          <path
             style="stroke:none;stroke-width:0"
             d="m 3.953125,-6.234375 c 0,-0.1875 -0.140625,-0.359375 -0.375,-0.359375 -0.234375,0 -0.53125,0.234375 -0.53125,0.53125 0,0.203125 0.140625,0.359375 0.375,0.359375 0.265625,0 0.53125,-0.265625 0.53125,-0.53125 z m -2,6.734375 c -0.1875,0.75 -0.671875,1.328125 -1.21875,1.328125 -0.0625,0 -0.21875,0 -0.390625,-0.09375 0.296875,-0.0625 0.4375,-0.328125 0.4375,-0.53125 0,-0.15625 -0.109375,-0.34375 -0.375,-0.34375 -0.25,0 -0.53125,0.203125 -0.53125,0.5625 0,0.40625 0.390625,0.625 0.875,0.625 0.703125,0 1.625,-0.53125 1.875,-1.515625 L 3.53125,-3.125 c 0.0625,-0.1875 0.0625,-0.328125 0.0625,-0.359375 0,-0.578125 -0.421875,-0.921875 -0.921875,-0.921875 -1.015625,0 -1.578125,1.453125 -1.578125,1.53125 0,0.109375 0.09375,0.109375 0.109375,0.109375 0.09375,0 0.109375,-0.015625 0.1875,-0.203125 0.25,-0.609375 0.703125,-1.21875 1.25,-1.21875 0.140625,0 0.3125,0.046875 0.3125,0.453125 0,0.234375 -0.015625,0.34375 -0.0625,0.515625 z m 0,0"
             id="id-19a8d8b6-5f0e-464d-a027-ccaab9263ca6" />
        </symbol>
        <symbol
           overflow="visible"
           id="id-eaca6f87-6f43-4355-b2d6-ba5f4a5b32cb">
          <path
             style="stroke:none;stroke-width:0"
             d="m 2.859375,-6.8125 c 0,0 0,-0.109375 -0.125,-0.109375 -0.234375,0 -0.953125,0.078125 -1.21875,0.109375 -0.078125,0 -0.1875,0.015625 -0.1875,0.1875 0,0.125 0.09375,0.125 0.234375,0.125 0.484375,0 0.5,0.0625 0.5,0.171875 L 2.03125,-6.125 0.59375,-0.390625 c -0.046875,0.140625 -0.046875,0.15625 -0.046875,0.21875 0,0.234375 0.203125,0.28125 0.296875,0.28125 0.125,0 0.265625,-0.09375 0.328125,-0.203125 0.046875,-0.09375 0.5,-1.9375 0.5625,-2.1875 0.34375,0.03125 1.15625,0.1875 1.15625,0.84375 0,0.078125 0,0.109375 -0.03125,0.21875 -0.015625,0.109375 -0.03125,0.234375 -0.03125,0.34375 0,0.578125 0.390625,0.984375 0.90625,0.984375 0.296875,0 0.578125,-0.15625 0.796875,-0.53125 0.25,-0.4375 0.359375,-0.984375 0.359375,-1 0,-0.109375 -0.09375,-0.109375 -0.125,-0.109375 -0.09375,0 -0.109375,0.046875 -0.140625,0.1875 -0.203125,0.71875 -0.421875,1.234375 -0.859375,1.234375 -0.203125,0 -0.328125,-0.109375 -0.328125,-0.46875 0,-0.171875 0.046875,-0.40625 0.078125,-0.5625 C 3.5625,-1.3125 3.5625,-1.34375 3.5625,-1.453125 3.5625,-2.09375 2.9375,-2.375 2.078125,-2.5 2.390625,-2.671875 2.71875,-2.984375 2.9375,-3.234375 3.421875,-3.765625 3.875,-4.1875 4.359375,-4.1875 c 0.0625,0 0.078125,0 0.09375,0.015625 0.125,0.015625 0.125,0.015625 0.21875,0.078125 0.015625,0 0.015625,0.015625 0.03125,0.03125 -0.46875,0.03125 -0.5625,0.421875 -0.5625,0.546875 0,0.15625 0.109375,0.34375 0.375,0.34375 0.265625,0 0.546875,-0.21875 0.546875,-0.609375 0,-0.296875 -0.234375,-0.625 -0.671875,-0.625 -0.28125,0 -0.734375,0.078125 -1.453125,0.875 -0.34375,0.375 -0.734375,0.78125 -1.109375,0.921875 z m 0,0"
             id="id-0672bd9b-4136-470d-b34b-6b5cd255ac0d" />
        </symbol>
      </g>
    </defs>
  </defs>
  <g
     id="g1500"
     transform="translate(3.4010814e-4)">
    <path
       style="color:#000000;fill:#364e59;-inkscape-stroke:none"
       d="M 8.6464844,4.5195312 8.4101563,4.6386719 9.7324219,7.2832031 9.96875,7.1660156 Z"
       id="path1256" />
    <g
       id="path1084">
      <path
         style="color:#000000;fill:#0084c8;-inkscape-stroke:none"
         d="M 5.75,0.609375 V 3.3378906 L 8.46875,4.6972656 8.5859375,4.4609375 6.0136719,3.1738281 V 0.609375 Z"
         id="path1307" />
      <g
         id="g1275">
        <g
           id="path1297">
          <path
             style="color:#000000;fill:#0084c8;fill-rule:evenodd;stroke-width:0.105833pt;-inkscape-stroke:none"
             d="m 8.991385,4.8109744 c -0.130631,0.2612618 -0.448689,0.367281 -0.7099508,0.23665 -0.2612618,-0.130631 -0.367281,-0.448689 -0.23665,-0.7099508 0.130631,-0.2612618 0.448689,-0.367281 0.7099508,-0.23665 0.2612618,0.130631 0.367281,0.448689 0.23665,0.7099508 z"
             id="path1301" />
          <path
             style="color:#000000;fill:#0084c8;fill-rule:evenodd;-inkscape-stroke:none"
             d="M 8.7871094,4.0371094 C 8.4917032,3.8894062 8.1301251,4.0112345 7.9824219,4.3066406 7.8347187,4.6020468 7.9545939,4.9636249 8.25,5.1113281 8.5454061,5.2590313 8.9069843,5.137203 9.0546875,4.8417969 9.2023907,4.5463907 9.0825155,4.1848126 8.7871094,4.0371094 Z M 8.7226563,4.1640625 C 8.9497732,4.2776211 9.0412929,4.5521799 8.9277344,4.7792969 8.8141758,5.0064138 8.5396169,5.0979336 8.3125,4.984375 8.0853831,4.8708164 7.9938633,4.5962576 8.1074219,4.3691406 8.2209804,4.1420237 8.4955393,4.0505039 8.7226563,4.1640625 Z"
             id="path1303" />
        </g>
        <g
           id="path1287">
          <path
             style="color:#000000;fill:#0084c8;fill-rule:evenodd;stroke-width:0.105833pt;-inkscape-stroke:none"
             d="M 6.1543516,3.6972718 C 5.9058768,3.8508376 5.5795829,3.77381 5.4260171,3.5253352 5.2724513,3.2768604 5.3494789,2.9505666 5.5979537,2.7970008 5.8464285,2.643435 6.1727223,2.7204625 6.3262881,2.9689373 6.479854,3.2174121 6.4028264,3.543706 6.1543516,3.6972718 Z"
             id="path1291" />
          <path
             style="color:#000000;fill:#0084c8;fill-rule:evenodd;-inkscape-stroke:none"
             d="M 5.5605469,2.7363281 C 5.2795989,2.9099635 5.191599,3.281552 5.3652344,3.5625 5.5388697,3.843448 5.9104582,3.9314478 6.1914062,3.7578125 6.4723543,3.5841772 6.5603542,3.2125886 6.3867187,2.9316406 6.2130834,2.6506926 5.8414949,2.5626928 5.5605469,2.7363281 Z m 0.074219,0.1210938 C 5.8507667,2.7239259 6.132129,2.7898583 6.265625,3.0058594 6.399121,3.2218605 6.3331886,3.5032228 6.1171875,3.6367188 5.9011864,3.7702147 5.6198241,3.7042823 5.4863281,3.4882813 5.3528322,3.2722802 5.4187645,2.9909178 5.6347659,2.8574219 Z"
             id="path1293" />
        </g>
        <g
           id="path1277">
          <path
             style="color:#000000;fill:#0084c8;fill-rule:evenodd;stroke-width:0.105833pt;-inkscape-stroke:none"
             d="m 5.8817166,1.1288877 c -0.2920996,0 -0.529166,-0.2370664 -0.529166,-0.52916602 0,-0.29209962 0.2370664,-0.52916598 0.529166,-0.52916598 0.2920996,0 0.529166,0.23706636 0.529166,0.52916598 0,0.29209962 -0.2370664,0.52916602 -0.529166,0.52916602 z"
             id="path1281" />
          <path
             style="color:#000000;fill:#0084c8;fill-rule:evenodd;-inkscape-stroke:none"
             d="M 5.8808594,0 C 5.5505852,0 5.28125,0.26933521 5.28125,0.59960937 c 0,0.33027417 0.2693352,0.59960933 0.5996094,0.59960933 0.3302741,0 0.5996093,-0.26933516 0.5996093,-0.59960933 C 6.4804687,0.26933521 6.2111335,0 5.8808594,0 Z m 0,0.140625 c 0.2539244,0 0.4589843,0.20505988 0.4589843,0.45898437 0,0.2539245 -0.2050599,0.45898433 -0.4589843,0.45898433 -0.2539245,0 -0.4570313,-0.20505983 -0.4570313,-0.45898433 0,-0.25392449 0.2031068,-0.45898437 0.4570313,-0.45898437 z"
             id="path1283" />
        </g>
      </g>
    </g>
    <g
       id="path1086">
      <path
         style="color:#000000;fill:#0084c8;-inkscape-stroke:none"
         d="M 5.8222656,3.1386719 3.1757813,4.4609375 3.2949219,4.6972656 5.9414062,3.375 Z"
         id="path1269" />
      <g
         id="g1247">
        <g
           id="path1259">
          <path
             style="color:#000000;fill:#0084c8;fill-rule:evenodd;stroke-width:0.105833pt;-inkscape-stroke:none"
             d="M 2.772049,4.8109721 C 2.6414181,4.5497103 2.7474375,4.2316524 3.0086994,4.1010215 3.2699612,3.9703906 3.5880191,4.07641 3.71865,4.3376719 3.8492809,4.5989337 3.7432615,4.9169916 3.4819997,5.0476225 3.2207378,5.1782534 2.9026799,5.072234 2.772049,4.8109721 Z"
             id="path1263" />
          <path
             style="color:#000000;fill:#0084c8;fill-rule:evenodd;-inkscape-stroke:none"
             d="M 2.9765625,4.0371094 C 2.6811563,4.1848124 2.5612813,4.5463907 2.7089844,4.8417969 2.8566874,5.1372031 3.2182656,5.2590312 3.5136719,5.1113281 3.809078,4.9636251 3.9289531,4.6020468 3.78125,4.3066406 3.6335469,4.0112344 3.2719687,3.8894063 2.9765625,4.0371094 Z m 0.064453,0.1269531 C 3.2681325,4.050504 3.5426915,4.1420236 3.65625,4.3691406 3.7698085,4.5962575 3.6782888,4.8708165 3.4511719,4.984375 3.2240548,5.0979335 2.949496,5.0064139 2.8359375,4.7792969 2.722379,4.55218 2.8138986,4.277621 3.0410155,4.1640625 Z"
             id="path1265" />
        </g>
        <g
           id="path1249">
          <path
             style="color:#000000;fill:#0084c8;fill-rule:evenodd;stroke-width:0.105833pt;-inkscape-stroke:none"
             d="M 5.4178821,3.4880561 C 5.2872512,3.2267943 5.3932706,2.9087364 5.6545325,2.7781055 5.9157943,2.6474746 6.2338522,2.753494 6.3644831,3.0147559 6.495114,3.2760177 6.3890946,3.5940756 6.1278328,3.7247065 5.8665709,3.8553374 5.548513,3.749318 5.4178821,3.4880561 Z"
             id="path1253" />
          <path
             style="color:#000000;fill:#0084c8;fill-rule:evenodd;-inkscape-stroke:none"
             d="M 5.6230469,2.7148438 C 5.3276406,2.8625468 5.2077657,3.2241251 5.3554687,3.5195313 5.5031718,3.8149375 5.86475,3.9348124 6.1601562,3.7871094 6.4555624,3.6394063 6.5754375,3.277828 6.4277344,2.9824219 6.2800313,2.6870156 5.918453,2.5671407 5.6230469,2.7148438 Z m 0.0625,0.1269531 C 5.9126638,2.7282384 6.1872228,2.819758 6.3007812,3.046875 6.4143397,3.2739919 6.3228201,3.5485509 6.0957031,3.6621094 5.8685861,3.7756678 5.5940272,3.6841483 5.4804687,3.4570313 5.3669103,3.2299143 5.4584298,2.9553553 5.6855469,2.8417969 Z"
             id="path1255" />
        </g>
      </g>
    </g>
    <g
       id="path1250">
      <path
         style="color:#000000;fill:#0084c8;-inkscape-stroke:none"
         d="m 3.1035156,4.578125 v 2.7285156 l 2.71875,1.359375 L 5.9414062,8.4296875 3.3691406,7.1425781 V 4.578125 Z"
         id="path1241" />
      <g
         id="g1209">
        <g
           id="path1231">
          <path
             style="color:#000000;fill:#0084c8;fill-rule:evenodd;stroke-width:0.105833pt;-inkscape-stroke:none"
             d="m 6.345552,8.7797254 c -0.130631,0.2612618 -0.448689,0.367281 -0.7099508,0.23665 -0.2612618,-0.130631 -0.367281,-0.448689 -0.23665,-0.7099508 0.130631,-0.2612618 0.448689,-0.367281 0.7099508,-0.23665 0.2612618,0.130631 0.367281,0.448689 0.23665,0.7099508 z"
             id="path1235" />
          <path
             style="color:#000000;fill:#0084c8;fill-rule:evenodd;-inkscape-stroke:none"
             d="M 6.140625,8.0058594 C 5.8452189,7.8581562 5.4836407,7.9799845 5.3359375,8.2753906 5.1882343,8.5707968 5.3081095,8.9323749 5.6035156,9.0800781 5.8989218,9.2277813 6.2604999,9.105953 6.4082031,8.8105469 6.5559063,8.5151407 6.4360311,8.1535626 6.140625,8.0058594 Z m -0.0625,0.1269531 C 6.3052419,8.2463711 6.3967617,8.5209299 6.2832031,8.7480469 6.1696446,8.9751638 5.8950857,9.0666836 5.6679687,8.953125 5.4408518,8.8395664 5.3493321,8.5650076 5.4628906,8.3378906 5.5764492,8.1107737 5.8510081,8.0192539 6.078125,8.1328125 Z"
             id="path1237" />
        </g>
        <g
           id="path1221">
          <path
             style="color:#000000;fill:#0084c8;fill-rule:evenodd;stroke-width:0.105833pt;-inkscape-stroke:none"
             d="M 3.5085187,7.6660228 C 3.2600439,7.8195886 2.93375,7.742561 2.7801842,7.4940862 2.6266184,7.2456114 2.703646,6.9193176 2.9521208,6.7657518 3.2005956,6.612186 3.5268894,6.6892135 3.6804552,6.9376883 3.8340211,7.1861631 3.7569935,7.512457 3.5085187,7.6660228 Z"
             id="path1225" />
          <path
             style="color:#000000;fill:#0084c8;fill-rule:evenodd;-inkscape-stroke:none"
             d="M 2.9140625,6.7050781 C 2.6331145,6.8787135 2.5470678,7.250302 2.7207031,7.53125 2.8943385,7.812198 3.2639739,7.9001978 3.5449219,7.7265625 3.8258699,7.5529272 3.9138698,7.1813386 3.7402344,6.9003906 3.566599,6.6194426 3.1950105,6.5314428 2.9140625,6.7050781 Z m 0.074219,0.1210938 C 3.2042824,6.6926759 3.4875978,6.7586083 3.6210938,6.9746094 3.7545898,7.1906105 3.6867042,7.4719728 3.4707031,7.6054687 3.254702,7.7389647 2.9733397,7.6730323 2.8398438,7.4570312 2.7063478,7.2410302 2.7722801,6.9596678 2.9882815,6.8261719 Z"
             id="path1227" />
        </g>
        <g
           id="path1211">
          <path
             style="color:#000000;fill:#0084c8;fill-rule:evenodd;stroke-width:0.105833pt;-inkscape-stroke:none"
             d="m 3.2358837,5.0976387 c -0.2920996,0 -0.529166,-0.2370664 -0.529166,-0.529166 0,-0.2920996 0.2370664,-0.529166 0.529166,-0.529166 0.2920996,0 0.529166,0.2370664 0.529166,0.529166 0,0.2920996 -0.2370664,0.529166 -0.529166,0.529166 z"
             id="path1215" />
          <path
             style="color:#000000;fill:#0084c8;fill-rule:evenodd;-inkscape-stroke:none"
             d="m 3.2363281,3.96875 c -0.3302741,0 -0.5996093,0.2693352 -0.5996093,0.5996094 0,0.3302741 0.2693352,0.5996093 0.5996093,0.5996093 0.3302742,0 0.5996094,-0.2693352 0.5996094,-0.5996093 0,-0.3302742 -0.2693352,-0.5996094 -0.5996094,-0.5996094 z m 0,0.140625 c 0.2539245,0 0.4589844,0.2050599 0.4589844,0.4589844 0,0.2539244 -0.2050599,0.4589843 -0.4589844,0.4589843 -0.2539244,0 -0.4589844,-0.2050599 -0.4589843,-0.4589843 0,-0.2539245 0.2050599,-0.4589844 0.4589843,-0.4589844 z"
             id="path1217" />
        </g>
      </g>
    </g>
    <g
       id="path1252">
      <path
         style="color:#000000;fill:#0084c8;-inkscape-stroke:none"
         d="M 3.1757813,7.1074219 0.53125,8.4296875 0.6484375,8.6660156 3.2949219,7.34375 Z"
         id="path1203" />
      <g
         id="g1181">
        <g
           id="path1193">
          <path
             style="color:#000000;fill:#0084c8;fill-rule:evenodd;stroke-width:0.105833pt;-inkscape-stroke:none"
             d="M 0.12621613,8.7797231 C -0.00441475,8.5184613 0.1016046,8.2004034 0.36286647,8.0697725 0.62412833,7.9391416 0.94218621,8.045161 1.0728171,8.3064229 1.203448,8.5676847 1.0974286,8.8857426 0.83616675,9.0163735 0.57490489,9.1470044 0.25684701,9.040985 0.12621613,8.7797231 Z"
             id="path1197" />
          <path
             style="color:#000000;fill:#0084c8;fill-rule:evenodd;-inkscape-stroke:none"
             d="M 0.33203125,8.0058594 C 0.03662503,8.1535624 -0.08520306,8.5151407 0.0625,8.8105469 0.21020304,9.1059531 0.57178129,9.2277812 0.8671875,9.0800781 1.1625937,8.9323751 1.2844218,8.5707968 1.1367187,8.2753906 0.9890157,7.9799844 0.62743746,7.8581563 0.33203125,8.0058594 Z m 0.0625,0.1269531 C 0.62164823,8.019254 0.89620716,8.1107736 1.0097656,8.3378906 1.1233241,8.5650075 1.0318045,8.8395665 0.8046875,8.953125 0.57757052,9.0666835 0.30301158,8.9751639 0.18945312,8.7480469 0.07589468,8.52093 0.16741425,8.246371 0.39453125,8.1328125 Z"
             id="path1199" />
        </g>
        <g
           id="path1183">
          <path
             style="color:#000000;fill:#0084c8;fill-rule:evenodd;stroke-width:0.105833pt;-inkscape-stroke:none"
             d="M 2.7720492,7.4568071 C 2.6414183,7.1955453 2.7474377,6.8774874 3.0086996,6.7468565 3.2699614,6.6162256 3.5880193,6.722245 3.7186502,6.9835069 3.8492811,7.2447687 3.7432617,7.5628266 3.4819999,7.6934575 3.220738,7.8240884 2.9026801,7.718069 2.7720492,7.4568071 Z"
             id="path1187" />
          <path
             style="color:#000000;fill:#0084c8;fill-rule:evenodd;-inkscape-stroke:none"
             d="M 2.9765625,6.6835937 C 2.6811563,6.8312968 2.5612813,7.1928751 2.7089844,7.4882812 2.8566874,7.7836875 3.2182656,7.9035624 3.5136719,7.7558594 3.809078,7.6081563 3.9289531,7.246578 3.78125,6.9511719 3.6335469,6.6557656 3.2719687,6.5358907 2.9765625,6.6835937 Z m 0.064453,0.1269532 C 3.2681325,6.6969884 3.5426915,6.788508 3.65625,7.015625 3.7698085,7.2427419 3.6782888,7.5173009 3.4511719,7.6308594 3.2240548,7.7444178 2.949496,7.6528983 2.8359375,7.4257812 2.722379,7.1986643 2.8138986,6.9241053 3.0410155,6.8105469 Z"
             id="path1189" />
        </g>
      </g>
    </g>
    <g
       id="path1254">
      <path
         style="color:#000000;fill:#ff4141;-inkscape-stroke:none"
         d="M 9.7695313,7.0917969 8.4101563,9.8125 8.6464844,9.9296875 9.9316406,7.3574219 h 2.5644534 v -0.265625 z"
         id="path1175" />
      <g
         id="g1143">
        <g
           id="path1165">
          <path
             style="color:#000000;fill:#ff4141;fill-rule:evenodd;stroke-width:0.105833pt;-inkscape-stroke:none"
             d="m 8.2956312,10.334558 c -0.2612618,-0.130631 -0.367281,-0.4486886 -0.23665,-0.7099504 0.130631,-0.2612618 0.448689,-0.367281 0.7099508,-0.23665 0.2612618,0.130631 0.367281,0.448689 0.23665,0.7099504 -0.130631,0.261262 -0.448689,0.367281 -0.7099508,0.23665 z"
             id="path1169" />
          <path
             style="color:#000000;fill:#ff4141;fill-rule:evenodd;-inkscape-stroke:none"
             d="M 8.8007813,9.3242188 C 8.5053751,9.1765156 8.1437969,9.2983439 7.9960937,9.59375 7.8483906,9.8891561 7.9682658,10.250734 8.2636719,10.398438 8.559078,10.546141 8.9206562,10.424313 9.0683594,10.128906 9.2160626,9.8335005 9.0961874,9.4719219 8.8007813,9.3242188 Z m -0.0625,0.1269531 C 8.9653982,9.5647304 9.0569179,9.8392898 8.9433594,10.066406 8.8298008,10.293523 8.555242,10.385043 8.328125,10.271484 8.101008,10.157926 8.0094883,9.883367 8.1230469,9.65625 8.2366054,9.4291331 8.5111643,9.3376133 8.7382813,9.4511719 Z"
             id="path1171" />
        </g>
        <g
           id="path1155">
          <path
             style="color:#000000;fill:#ff4141;fill-rule:evenodd;stroke-width:0.105833pt;-inkscape-stroke:none"
             d="M 9.4093338,7.497525 C 9.255768,7.2490502 9.3327956,6.9227563 9.5812704,6.7691905 9.8297452,6.6156247 10.156039,6.6926523 10.309605,6.9411271 10.463171,7.1896019 10.386143,7.5158957 10.137668,7.6694615 9.8891935,7.8230274 9.5628996,7.7459998 9.4093338,7.497525 Z"
             id="path1159" />
          <path
             style="color:#000000;fill:#ff4141;fill-rule:evenodd;-inkscape-stroke:none"
             d="M 9.5449219,6.7089844 C 9.2639739,6.8826197 9.175974,7.2542082 9.3496094,7.5351562 9.5232447,7.8161043 9.8928804,7.9021511 10.173828,7.7285156 10.454776,7.5548803 10.542776,7.1852449 10.369141,6.9042969 10.195505,6.6233489 9.8258699,6.535349 9.5449219,6.7089844 Z m 0.074219,0.1210937 C 9.8351417,6.6965822 10.116504,6.7625145 10.25,6.9785156 10.383496,7.1945167 10.315611,7.475879 10.099609,7.609375 9.8836086,7.742871 9.602246,7.6769386 9.46875,7.4609375 9.335254,7.2449364 9.4031395,6.9635741 9.6191409,6.8300781 Z"
             id="path1161" />
        </g>
        <g
           id="path1145">
          <path
             style="color:#000000;fill:#ff4141;fill-rule:evenodd;stroke-width:0.105833pt;-inkscape-stroke:none"
             d="m 11.977718,7.22489 c 0,-0.2920996 0.237067,-0.529166 0.529166,-0.529166 0.2921,0 0.529166,0.2370664 0.529166,0.529166 0,0.2920996 -0.237066,0.529166 -0.529166,0.529166 -0.292099,0 -0.529166,-0.2370664 -0.529166,-0.529166 z"
             id="path1149" />
          <path
             style="color:#000000;fill:#ff4141;fill-rule:evenodd;-inkscape-stroke:none"
             d="m 12.507813,6.625 c -0.330274,0 -0.601563,0.2693351 -0.601563,0.5996094 0,0.3302742 0.271289,0.5996093 0.601563,0.5996093 0.330274,0 0.599609,-0.2693352 0.599609,-0.5996093 C 13.107422,6.8943353 12.838087,6.625 12.507813,6.625 Z m 0,0.140625 c 0.253924,0 0.457031,0.2050598 0.457031,0.4589844 0,0.2539245 -0.203107,0.4589843 -0.457031,0.4589843 -0.253924,0 -0.458985,-0.20506 -0.458985,-0.4589843 0,-0.2539244 0.205061,-0.4589844 0.458985,-0.4589844 z"
             id="path1151" />
        </g>
      </g>
    </g>
    <g
       id="path1262">
      <path
         style="color:#000000;fill:#364e59;-inkscape-stroke:none"
         d="m 9.7695313,12.384766 -1.359375,2.71875 0.2363281,0.117187 1.2851562,-2.572265 h 2.5644534 v -0.263672 z"
         id="path1137" />
      <g
         id="g1105">
        <g
           id="path1127">
          <path
             style="color:#000000;fill:#364e59;fill-rule:evenodd;stroke-width:0.105833pt;-inkscape-stroke:none"
             d="m 8.2956322,15.626225 c -0.2612618,-0.130631 -0.367281,-0.448689 -0.23665,-0.70995 0.130631,-0.261262 0.448689,-0.367281 0.7099508,-0.23665 0.2612618,0.130631 0.367281,0.448689 0.23665,0.70995 -0.130631,0.261262 -0.448689,0.367281 -0.7099508,0.23665 z"
             id="path1131" />
          <path
             style="color:#000000;fill:#364e59;fill-rule:evenodd;-inkscape-stroke:none"
             d="m 8.8007813,14.617188 c -0.2954062,-0.147704 -0.6569844,-0.02783 -0.8046876,0.267578 -0.1477032,0.295405 -0.027828,0.656984 0.2675782,0.804687 0.2954061,0.147703 0.6569843,0.02783 0.8046875,-0.267578 0.1477033,-0.295405 0.027828,-0.656984 -0.2675781,-0.804687 z m -0.0625,0.125 c 0.2271169,0.113558 0.3186365,0.388118 0.2050781,0.615234 C 8.8298008,15.584539 8.555242,15.676059 8.328125,15.5625 8.1010081,15.448941 8.0094884,15.174382 8.1230469,14.947266 8.2366054,14.720149 8.5111643,14.628629 8.7382813,14.742188 Z"
             id="path1133" />
        </g>
        <g
           id="path1117">
          <path
             style="color:#000000;fill:#ff4141;fill-rule:evenodd;stroke-width:0.105833pt;-inkscape-stroke:none"
             d="m 9.4093348,12.789192 c -0.1535658,-0.248475 -0.076538,-0.574769 0.1719366,-0.728334 0.2484748,-0.153566 0.5747686,-0.07654 0.7283346,0.171936 0.153566,0.248475 0.07654,0.574769 -0.171937,0.728335 -0.2484745,0.153565 -0.5747684,0.07654 -0.7283342,-0.171937 z"
             id="path1121" />
          <path
             style="color:#000000;fill:#ff4141;fill-rule:evenodd;-inkscape-stroke:none"
             d="m 9.5449219,12 c -0.280948,0.173635 -0.3689479,0.545224 -0.1953125,0.826172 0.1736353,0.28095 0.5432713,0.368947 0.8242186,0.195312 0.28095,-0.173635 0.368948,-0.545223 0.195313,-0.826171 C 10.195505,11.914363 9.8258697,11.826365 9.5449219,12 Z m 0.074219,0.121094 c 0.2160013,-0.133496 0.4973631,-0.06757 0.6308591,0.148437 0.133496,0.216002 0.06561,0.497363 -0.150391,0.63086 -0.2160004,0.133495 -0.4973627,0.06756 -0.6308587,-0.148438 -0.133496,-0.216001 -0.06561,-0.497364 0.1503906,-0.630859 z"
             id="path1123" />
        </g>
        <g
           id="path1107">
          <path
             style="color:#000000;fill:#ff4141;fill-rule:evenodd;stroke-width:0.105833pt;-inkscape-stroke:none"
             d="m 11.977719,12.516557 c 0,-0.2921 0.237067,-0.529166 0.529166,-0.529166 0.2921,0 0.529166,0.237066 0.529166,0.529166 0,0.2921 -0.237066,0.529166 -0.529166,0.529166 -0.292099,0 -0.529166,-0.237066 -0.529166,-0.529166 z"
             id="path1111" />
          <path
             style="color:#000000;fill:#ff4141;fill-rule:evenodd;-inkscape-stroke:none"
             d="m 12.507813,11.916016 c -0.330274,0 -0.601563,0.269334 -0.601563,0.599609 0,0.330275 0.271289,0.601563 0.601563,0.601563 0.330274,0 0.599609,-0.271289 0.599609,-0.601563 0,-0.330274 -0.269335,-0.599609 -0.599609,-0.599609 z m 0,0.142578 c 0.253924,0 0.457031,0.203106 0.457031,0.457031 0,0.253925 -0.203107,0.458984 -0.457031,0.458984 -0.253924,0 -0.458985,-0.205059 -0.458985,-0.458984 0,-0.253925 0.205061,-0.457031 0.458985,-0.457031 z"
             id="path1113" />
        </g>
      </g>
    </g>
    <g
       id="path1264">
      <path
         style="color:#000000;fill:#ff4141;-inkscape-stroke:none"
         d="M 8.6464844,9.8125 8.4101563,9.9296875 9.7324219,12.576172 9.96875,12.457031 Z"
         id="path1099" />
      <g
         id="g1077">
        <g
           id="path1089">
          <path
             style="color:#000000;fill:#ff4141;fill-rule:evenodd;stroke-width:0.105833pt;-inkscape-stroke:none"
             d="M 8.2956345,9.4068895 C 8.5568963,9.2762586 8.8749542,9.382278 9.0055851,9.6435399 9.136216,9.9048017 9.0301966,10.22286 8.7689348,10.35349 8.5076729,10.484121 8.189615,10.378102 8.0589841,10.11684 7.9283532,9.8555783 8.0343726,9.5375204 8.2956345,9.4068895 Z"
             id="path1093" />
          <path
             style="color:#000000;fill:#ff4141;fill-rule:evenodd;-inkscape-stroke:none"
             d="M 8.2636719,9.34375 C 7.9682656,9.4914531 7.8483907,9.8530314 7.9960937,10.148438 8.1437968,10.443844 8.5053751,10.563719 8.8007813,10.416016 9.0961876,10.268313 9.2160625,9.9067343 9.0683594,9.6113281 8.9206563,9.3159219 8.559078,9.1960469 8.2636719,9.34375 Z M 8.328125,9.4707031 C 8.5552419,9.3571447 8.8298009,9.4486642 8.9433594,9.6757813 9.0569178,9.9028981 8.9653979,10.177458 8.7382813,10.291016 8.5111642,10.404574 8.2366053,10.313055 8.1230469,10.085938 8.0094884,9.8588207 8.101008,9.5842616 8.328125,9.4707031 Z"
             id="path1095" />
        </g>
        <g
           id="path1079">
          <path
             style="color:#000000;fill:#ff4141;fill-rule:evenodd;stroke-width:0.105833pt;-inkscape-stroke:none"
             d="m 9.6185505,12.052723 c 0.2612618,-0.130631 0.5793195,-0.02461 0.7099505,0.23665 0.130631,0.261262 0.02461,0.57932 -0.23665,0.70995 -0.2612621,0.130631 -0.57932,0.02461 -0.7099509,-0.23665 -0.1306309,-0.261262 -0.024611,-0.57932 0.2366504,-0.70995 z"
             id="path1083" />
          <path
             style="color:#000000;fill:#ff4141;fill-rule:evenodd;-inkscape-stroke:none"
             d="m 9.5878906,11.990234 c -0.2954059,0.147703 -0.4172343,0.509281 -0.2695312,0.804688 0.1477031,0.295404 0.5092808,0.415281 0.8046876,0.267578 0.295404,-0.147702 0.417234,-0.509281 0.269531,-0.804687 -0.147703,-0.295405 -0.509281,-0.415282 -0.8046874,-0.267579 z m 0.0625,0.125 c 0.2271167,-0.113558 0.5016764,-0.02204 0.6152344,0.205079 0.113558,0.227116 0.02204,0.501676 -0.205078,0.615234 -0.2271172,0.113558 -0.5016761,0.02204 -0.6152345,-0.205078 -0.1135584,-0.227117 -0.022038,-0.501677 0.2050781,-0.615235 z"
             id="path1085" />
        </g>
      </g>
    </g>
    <g
       id="path1268">
      <path
         style="color:#000000;fill:#009100;-inkscape-stroke:none"
         d="m 15.009766,8.546875 v 2.728516 l 2.71875,1.359375 0.11914,-0.236328 -2.572265,-1.28711 V 8.546875 Z"
         id="path1071" />
      <g
         id="g1039">
        <g
           id="path1061">
          <path
             style="color:#000000;fill:#009100;fill-rule:evenodd;stroke-width:0.105833pt;-inkscape-stroke:none"
             d="m 18.251802,12.748475 c -0.130631,0.261262 -0.448689,0.367281 -0.70995,0.23665 -0.261262,-0.130631 -0.367281,-0.448689 -0.23665,-0.70995 0.130631,-0.261262 0.448689,-0.367281 0.70995,-0.23665 0.261262,0.130631 0.367281,0.448689 0.23665,0.70995 z"
             id="path1065" />
          <path
             style="color:#000000;fill:#009100;fill-rule:evenodd;-inkscape-stroke:none"
             d="m 18.046875,11.974609 c -0.295405,-0.147703 -0.656984,-0.02587 -0.804688,0.269532 -0.147703,0.295405 -0.02783,0.656984 0.267579,0.804687 0.295405,0.147703 0.656984,0.02587 0.804687,-0.269531 0.147703,-0.295406 0.02783,-0.656984 -0.267578,-0.804688 z m -0.0625,0.126954 c 0.227117,0.113558 0.318637,0.388118 0.205078,0.615234 -0.113558,0.227117 -0.388118,0.318636 -0.615234,0.205078 -0.227117,-0.113559 -0.318637,-0.388118 -0.205078,-0.615234 0.113558,-0.227117 0.388118,-0.318637 0.615234,-0.205078 z"
             id="path1067" />
        </g>
        <g
           id="path1051">
          <path
             style="color:#000000;fill:#009100;fill-rule:evenodd;stroke-width:0.105833pt;-inkscape-stroke:none"
             d="m 15.414769,11.634773 c -0.248475,0.153566 -0.574769,0.07654 -0.728334,-0.171937 -0.153566,-0.248475 -0.07654,-0.574768 0.171936,-0.728334 0.248475,-0.153566 0.574769,-0.07654 0.728335,0.171936 0.153565,0.248475 0.07654,0.574769 -0.171937,0.728335 z"
             id="path1055" />
          <path
             style="color:#000000;fill:#009100;fill-rule:evenodd;-inkscape-stroke:none"
             d="m 14.820313,10.673828 c -0.28095,0.173636 -0.366995,0.545224 -0.19336,0.826172 0.173635,0.280951 0.543271,0.368948 0.824219,0.195313 0.28095,-0.173636 0.368947,-0.545224 0.195312,-0.826172 -0.173635,-0.28095 -0.545223,-0.368948 -0.826171,-0.195313 z m 0.07422,0.121094 c 0.216002,-0.133496 0.499317,-0.06757 0.632813,0.148437 0.133495,0.216002 0.06561,0.497364 -0.150391,0.63086 -0.216001,0.133496 -0.497364,0.06757 -0.630859,-0.148438 -0.133497,-0.216001 -0.06757,-0.497363 0.148437,-0.630859 z"
             id="path1057" />
        </g>
        <g
           id="path1041">
          <path
             style="color:#000000;fill:#009100;fill-rule:evenodd;stroke-width:0.105833pt;-inkscape-stroke:none"
             d="m 15.142134,9.0663887 c -0.2921,0 -0.529166,-0.2370664 -0.529166,-0.529166 0,-0.2920996 0.237066,-0.529166 0.529166,-0.529166 0.2921,0 0.529166,0.2370664 0.529166,0.529166 0,0.2920996 -0.237066,0.529166 -0.529166,0.529166 z"
             id="path1045" />
          <path
             style="color:#000000;fill:#009100;fill-rule:evenodd;-inkscape-stroke:none"
             d="m 15.142578,7.9375 c -0.330274,0 -0.599609,0.2693353 -0.599609,0.5996094 0,0.3302741 0.269335,0.5996094 0.599609,0.5996094 0.330275,0 0.59961,-0.2693353 0.59961,-0.5996094 0,-0.3302741 -0.269335,-0.5996094 -0.59961,-0.5996094 z m 0,0.140625 c 0.253925,0 0.458985,0.2050598 0.458985,0.4589844 0,0.2539245 -0.20506,0.4589844 -0.458985,0.4589844 -0.253925,0 -0.458984,-0.2050599 -0.458984,-0.4589844 0,-0.2539246 0.205059,-0.4589844 0.458984,-0.4589844 z"
             id="path1047" />
        </g>
      </g>
    </g>
    <g
       id="path1270">
      <path
         style="color:#000000;fill:#009100;-inkscape-stroke:none"
         d="M 15.082031,11.076172 12.4375,12.398438 12.554688,12.634766 15.201172,11.3125 Z"
         id="path1033" />
      <g
         id="g1011">
        <g
           id="path1023">
          <path
             style="color:#000000;fill:#009100;fill-rule:evenodd;stroke-width:0.105833pt;-inkscape-stroke:none"
             d="m 12.032467,12.748473 c -0.130631,-0.261262 -0.02461,-0.57932 0.23665,-0.70995 0.261262,-0.130631 0.57932,-0.02461 0.70995,0.23665 0.130631,0.261262 0.02461,0.57932 -0.23665,0.70995 -0.261262,0.130631 -0.57932,0.02461 -0.70995,-0.23665 z"
             id="path1027" />
          <path
             style="color:#000000;fill:#009100;fill-rule:evenodd;-inkscape-stroke:none"
             d="m 12.238281,11.974609 c -0.295404,0.147703 -0.417234,0.509281 -0.269531,0.804688 0.147702,0.295404 0.509281,0.417234 0.804688,0.269531 0.295404,-0.147702 0.417234,-0.509281 0.269531,-0.804687 -0.147702,-0.295405 -0.509281,-0.417235 -0.804688,-0.269532 z m 0.0625,0.126954 c 0.227117,-0.113559 0.501677,-0.02204 0.615235,0.205078 0.113558,0.227117 0.02204,0.501677 -0.205078,0.615234 -0.227117,0.113558 -0.501677,0.02204 -0.615235,-0.205078 -0.113558,-0.227117 -0.02204,-0.501677 0.205078,-0.615234 z"
             id="path1029" />
        </g>
        <g
           id="path1013">
          <path
             style="color:#000000;fill:#009100;fill-rule:evenodd;stroke-width:0.105833pt;-inkscape-stroke:none"
             d="m 14.6783,11.425557 c -0.130631,-0.261262 -0.02461,-0.57932 0.23665,-0.70995 0.261262,-0.130631 0.57932,-0.02461 0.70995,0.23665 0.130631,0.261262 0.02461,0.57932 -0.23665,0.70995 -0.261262,0.130631 -0.57932,0.02461 -0.70995,-0.23665 z"
             id="path1017" />
          <path
             style="color:#000000;fill:#009100;fill-rule:evenodd;-inkscape-stroke:none"
             d="m 14.882813,10.652344 c -0.295405,0.147702 -0.415282,0.509281 -0.267579,0.804687 0.147703,0.295405 0.509281,0.415282 0.804688,0.267578 0.295404,-0.147702 0.415281,-0.509281 0.267578,-0.804687 -0.147702,-0.295405 -0.509281,-0.415282 -0.804687,-0.267578 z m 0.06445,0.126953 c 0.227117,-0.113559 0.501677,-0.02204 0.615234,0.205078 0.113558,0.227117 0.02204,0.501677 -0.205078,0.615234 -0.227117,0.113559 -0.501677,0.02204 -0.615234,-0.205078 -0.113559,-0.227117 -0.02204,-0.501677 0.205078,-0.615234 z"
             id="path1019" />
        </g>
      </g>
    </g>
  </g>
  <path
     style="fill:none;stroke:#000000;stroke-width:0.264583px;stroke-linecap:butt;stroke-linejoin:miter;stroke-opacity:1"
     d="m 3.2362232,29.714462 v 2.645833 l -2.6458334,2.645834"
     id="path1108" />
  <path
     style="fill:none;stroke:#000000;stroke-width:0.264583px;stroke-linecap:butt;stroke-linejoin:miter;stroke-opacity:1"
     d="m 3.2362232,32.360295 2.6458333,2.645834"
     id="path1110" />
  <path
     style="fill:none;stroke:#000000;stroke-width:0.264583px;stroke-linecap:butt;stroke-linejoin:miter;stroke-opacity:1"
     d="m 11.173723,27.068629 2.645833,2.645833"
     id="path1112" />
  <path
     style="fill:none;stroke:#000000;stroke-width:0.264583px;stroke-linecap:butt;stroke-linejoin:miter;stroke-opacity:1"
     d="m 16.46539,27.068629 -2.645834,2.645833 v 5.291667 l -2.645833,2.645833"
     id="path1114" />
  <path
     style="fill:none;stroke:#000000;stroke-width:0.264583px;stroke-linecap:butt;stroke-linejoin:miter;stroke-opacity:1"
     d="m 13.819556,35.006129 2.645834,2.645833"
     id="path1116" />
</svg>
