<?xml version="1.0" encoding="UTF-8" standalone="no"?>
<!-- Created with Inkscape (http://www.inkscape.org/) -->

<svg
   width="68.722816mm"
   height="71.788872mm"
   viewBox="0 0 68.722817 71.788871"
   version="1.1"
   id="svg5"
   sodipodi:docname="curve_sketch_1.svg"
   inkscape:version="1.1 (c4e8f9e, 2021-05-24)"
   xmlns:inkscape="http://www.inkscape.org/namespaces/inkscape"
   xmlns:sodipodi="http://sodipodi.sourceforge.net/DTD/sodipodi-0.dtd"
   xmlns="http://www.w3.org/2000/svg"
   xmlns:svg="http://www.w3.org/2000/svg">
  <sodipodi:namedview
     id="namedview871"
     pagecolor="#ffffff"
     bordercolor="#666666"
     borderopacity="1.0"
     inkscape:pageshadow="2"
     inkscape:pageopacity="0.0"
     inkscape:pagecheckerboard="0"
     inkscape:document-units="mm"
     showgrid="false"
     inkscape:zoom="1.6372126"
     inkscape:cx="116.96709"
     inkscape:cy="142.00966"
     inkscape:window-width="1440"
     inkscape:window-height="847"
     inkscape:window-x="2158"
     inkscape:window-y="71"
     inkscape:window-maximized="0"
     inkscape:current-layer="svg5">
    <inkscape:grid
       type="xygrid"
       id="grid971"
       originx="0.3513681"
       originy="4.6281247e-07" />
  </sodipodi:namedview>
  <defs
     id="defs2">
    <marker
       style="overflow:visible"
       id="DotM"
       refX="0"
       refY="0"
       orient="auto"
       inkscape:stockid="DotM"
       inkscape:isstock="true">
      <path
         transform="matrix(0.4,0,0,0.4,2.96,0.4)"
         style="fill:context-stroke;fill-rule:evenodd;stroke:context-stroke;stroke-width:1pt"
         d="m -2.5,-1 c 0,2.76 -2.24,5 -5,5 -2.76,0 -5,-2.24 -5,-5 0,-2.76 2.24,-5 5,-5 2.76,0 5,2.24 5,5 z"
         id="path1280" />
    </marker>
    <marker
       style="overflow:visible"
       id="DotL"
       refX="0"
       refY="0"
       orient="auto"
       inkscape:stockid="DotL"
       inkscape:isstock="true">
      <path
         transform="matrix(0.8,0,0,0.8,5.92,0.8)"
         style="fill:context-stroke;fill-rule:evenodd;stroke:context-stroke;stroke-width:1pt"
         d="m -2.5,-1 c 0,2.76 -2.24,5 -5,5 -2.76,0 -5,-2.24 -5,-5 0,-2.76 2.24,-5 5,-5 2.76,0 5,2.24 5,5 z"
         id="path1277" />
    </marker>
    <marker
       style="overflow:visible"
       id="Arrow2Lstart"
       refX="0"
       refY="0"
       orient="auto">
      <path
         transform="matrix(1.1,0,0,1.1,1.1,0)"
         d="M 8.7185878,4.0337352 -2.2072895,0.01601326 8.7185884,-4.0017078 c -1.7454984,2.3720609 -1.7354408,5.6174519 -6e-7,8.035443 z"
         style="fill:context-stroke;fill-rule:evenodd;stroke-width:0.625;stroke-linejoin:round"
         id="path2010" />
    </marker>
    <marker
       style="overflow:visible"
       id="Arrow2Lend"
       refX="0"
       refY="0"
       orient="auto">
      <path
         transform="matrix(-1.1,0,0,-1.1,-1.1,0)"
         d="M 8.7185878,4.0337352 -2.2072895,0.01601326 8.7185884,-4.0017078 c -1.7454984,2.3720609 -1.7354408,5.6174519 -6e-7,8.035443 z"
         style="fill:context-stroke;fill-rule:evenodd;stroke-width:0.625;stroke-linejoin:round"
         id="path2013" />
    </marker>
    <marker
       style="overflow:visible"
       id="StopL"
       refX="0"
       refY="0"
       orient="auto">
      <path
         transform="scale(0.8)"
         style="fill:none;fill-opacity:0.75;fill-rule:evenodd;stroke:context-stroke;stroke-width:1pt"
         d="M 0,5.65 V -5.65"
         id="path2161" />
    </marker>
    <defs
       id="id-4c86c8b5-d7e0-478a-b702-1f02b686bdb2">
      <g
         id="id-4c078419-7955-4582-b4ef-f775f1a4fbce">
        <symbol
           overflow="visible"
           id="id-5ea727ea-bc63-41e3-9e81-67e8b29fd0fd">
          <path
             style="stroke:none;stroke-width:0"
             d=""
             id="id-400cfb6c-6f5c-4d46-9c62-35a19c8da4c3" />
        </symbol>
        <symbol
           overflow="visible"
           id="id-e6b92246-95e7-42d9-a104-c8c4136711b4">
          <path
             style="stroke:none;stroke-width:0"
             d="m 2.9375,-6.375 c 0,-0.25 0,-0.265625 -0.234375,-0.265625 C 2.078125,-6 1.203125,-6 0.890625,-6 v 0.3125 c 0.203125,0 0.78125,0 1.296875,-0.265625 v 5.171875 c 0,0.359375 -0.03125,0.46875 -0.921875,0.46875 h -0.3125 V 0 c 0.34375,-0.03125 1.203125,-0.03125 1.609375,-0.03125 0.390625,0 1.265625,0 1.609375,0.03125 v -0.3125 h -0.3125 c -0.90625,0 -0.921875,-0.109375 -0.921875,-0.46875 z m 0,0"
             id="id-2beabfe7-8999-4d31-849e-2d634d695b02" />
        </symbol>
        <symbol
           overflow="visible"
           id="id-c66e7eeb-5b60-497a-ac9b-9d3c63055a52">
          <path
             style="stroke:none;stroke-width:0"
             d="m 1.265625,-0.765625 1.0625,-1.03125 c 1.546875,-1.375 2.140625,-1.90625 2.140625,-2.90625 0,-1.140625 -0.890625,-1.9375 -2.109375,-1.9375 -1.125,0 -1.859375,0.921875 -1.859375,1.8125 0,0.546875 0.5,0.546875 0.53125,0.546875 0.171875,0 0.515625,-0.109375 0.515625,-0.53125 0,-0.25 -0.1875,-0.515625 -0.53125,-0.515625 -0.078125,0 -0.09375,0 -0.125,0.015625 0.21875,-0.65625 0.765625,-1.015625 1.34375,-1.015625 0.90625,0 1.328125,0.8125 1.328125,1.625 C 3.5625,-3.90625 3.078125,-3.125 2.515625,-2.5 l -1.90625,2.125 C 0.5,-0.265625 0.5,-0.234375 0.5,0 H 4.203125 L 4.46875,-1.734375 H 4.234375 C 4.171875,-1.4375 4.109375,-1 4,-0.84375 3.9375,-0.765625 3.28125,-0.765625 3.0625,-0.765625 Z m 0,0"
             id="id-906ec060-d28b-4d54-84c9-20cadf95ecde" />
        </symbol>
        <symbol
           overflow="visible"
           id="id-c8891e63-1fa6-40bc-b411-44e1f5407875">
          <path
             style="stroke:none;stroke-width:0"
             d="m 2.890625,-3.515625 c 0.8125,-0.265625 1.390625,-0.953125 1.390625,-1.75 0,-0.8125 -0.875,-1.375 -1.828125,-1.375 -1,0 -1.765625,0.59375 -1.765625,1.359375 0,0.328125 0.21875,0.515625 0.515625,0.515625 0.296875,0 0.5,-0.21875 0.5,-0.515625 0,-0.484375 -0.46875,-0.484375 -0.609375,-0.484375 0.296875,-0.5 0.953125,-0.625 1.3125,-0.625 0.421875,0 0.96875,0.21875 0.96875,1.109375 0,0.125 -0.03125,0.703125 -0.28125,1.140625 C 2.796875,-3.65625 2.453125,-3.625 2.203125,-3.625 2.125,-3.609375 1.890625,-3.59375 1.8125,-3.59375 c -0.078125,0.015625 -0.140625,0.03125 -0.140625,0.125 0,0.109375 0.0625,0.109375 0.234375,0.109375 h 0.4375 c 0.8125,0 1.1875,0.671875 1.1875,1.65625 0,1.359375 -0.6875,1.640625 -1.125,1.640625 -0.4375,0 -1.1875,-0.171875 -1.53125,-0.75 0.34375,0.046875 0.65625,-0.171875 0.65625,-0.546875 0,-0.359375 -0.265625,-0.5625 -0.546875,-0.5625 -0.25,0 -0.5625,0.140625 -0.5625,0.578125 0,0.90625 0.921875,1.5625 2.015625,1.5625 1.21875,0 2.125,-0.90625 2.125,-1.921875 0,-0.8125 -0.640625,-1.59375 -1.671875,-1.8125 z m 0,0"
             id="id-748a641d-f743-4770-b396-fb5a9943779a" />
        </symbol>
        <symbol
           overflow="visible"
           id="id-401cb648-6f96-4f35-b00b-1ef34a11bdbf">
          <path
             style="stroke:none;stroke-width:0"
             d=""
             id="id-52244517-b796-4cdb-8625-8a607f6d7346" />
        </symbol>
        <symbol
           overflow="visible"
           id="id-1f30a40a-502f-4777-b993-f4943921f33a">
          <path
             style="stroke:none;stroke-width:0"
             d="m 6.5625,-2.296875 c 0.171875,0 0.359375,0 0.359375,-0.203125 0,-0.1875 -0.1875,-0.1875 -0.359375,-0.1875 H 1.171875 c -0.171875,0 -0.34375,0 -0.34375,0.1875 0,0.203125 0.171875,0.203125 0.34375,0.203125 z m 0,0"
             id="id-d03a6383-06d6-41be-9fd5-866e85888baf" />
        </symbol>
      </g>
    </defs>
    <defs
       id="id-b4851324-35b8-4ca6-b562-7066b1c2ca20">
      <g
         id="id-1b32383a-320a-45b6-aa1e-d76c849ed3c9">
        <symbol
           overflow="visible"
           id="id-0e54c7fe-8320-463b-a65f-a899788ec3f8">
          <path
             style="stroke:none;stroke-width:0"
             d=""
             id="id-dc868e93-0fe5-4eb4-9252-c55320c607f5" />
        </symbol>
        <symbol
           overflow="visible"
           id="id-37f0ad48-78c4-4784-9702-f29cbc5bdc4e">
          <path
             style="stroke:none;stroke-width:0"
             d="M 3.328125,-3.015625 C 3.390625,-3.265625 3.625,-4.1875 4.3125,-4.1875 c 0.046875,0 0.296875,0 0.5,0.125 C 4.53125,-4 4.34375,-3.765625 4.34375,-3.515625 c 0,0.15625 0.109375,0.34375 0.375,0.34375 0.21875,0 0.53125,-0.171875 0.53125,-0.578125 0,-0.515625 -0.578125,-0.65625 -0.921875,-0.65625 -0.578125,0 -0.921875,0.53125 -1.046875,0.75 -0.25,-0.65625 -0.78125,-0.75 -1.078125,-0.75 -1.03125,0 -1.609375,1.28125 -1.609375,1.53125 0,0.109375 0.109375,0.109375 0.125,0.109375 0.078125,0 0.109375,-0.03125 0.125,-0.109375 0.34375,-1.0625 1,-1.3125 1.34375,-1.3125 0.1875,0 0.53125,0.09375 0.53125,0.671875 0,0.3125 -0.171875,0.96875 -0.53125,2.375 -0.15625,0.609375 -0.515625,1.03125 -0.953125,1.03125 -0.0625,0 -0.28125,0 -0.5,-0.125 0.25,-0.0625 0.46875,-0.265625 0.46875,-0.546875 0,-0.265625 -0.21875,-0.34375 -0.359375,-0.34375 -0.3125,0 -0.546875,0.25 -0.546875,0.578125 0,0.453125 0.484375,0.65625 0.921875,0.65625 0.671875,0 1.03125,-0.703125 1.046875,-0.75 0.125,0.359375 0.484375,0.75 1.078125,0.75 1.03125,0 1.59375,-1.28125 1.59375,-1.53125 0,-0.109375 -0.078125,-0.109375 -0.109375,-0.109375 -0.09375,0 -0.109375,0.046875 -0.140625,0.109375 -0.328125,1.078125 -1,1.3125 -1.3125,1.3125 -0.390625,0 -0.546875,-0.3125 -0.546875,-0.65625 0,-0.21875 0.046875,-0.4375 0.15625,-0.875 z m 0,0"
             id="id-dfcf6a2b-c901-4af9-9680-2c6cdd1a5db8" />
        </symbol>
        <symbol
           overflow="visible"
           id="id-4b60b094-3483-4597-bc96-8f528be9ab7b">
          <path
             style="stroke:none;stroke-width:0"
             d="m 4.84375,-3.796875 c 0.046875,-0.140625 0.046875,-0.15625 0.046875,-0.234375 0,-0.171875 -0.140625,-0.265625 -0.296875,-0.265625 -0.09375,0 -0.25,0.0625 -0.34375,0.203125 -0.015625,0.0625 -0.109375,0.359375 -0.140625,0.546875 -0.078125,0.25 -0.140625,0.53125 -0.203125,0.796875 l -0.453125,1.796875 c -0.03125,0.140625 -0.46875,0.84375 -1.125,0.84375 -0.5,0 -0.609375,-0.4375 -0.609375,-0.8125 C 1.71875,-1.375 1.890625,-2 2.21875,-2.875 2.375,-3.28125 2.421875,-3.390625 2.421875,-3.59375 c 0,-0.4375 -0.3125,-0.8125 -0.8125,-0.8125 -0.953125,0 -1.3125,1.453125 -1.3125,1.53125 0,0.109375 0.09375,0.109375 0.109375,0.109375 0.109375,0 0.109375,-0.03125 0.15625,-0.1875 0.28125,-0.9375 0.671875,-1.234375 1.015625,-1.234375 0.078125,0 0.25,0 0.25,0.3125 0,0.25 -0.109375,0.515625 -0.171875,0.703125 -0.40625,1.0625 -0.578125,1.625 -0.578125,2.09375 0,0.890625 0.625,1.1875 1.21875,1.1875 0.390625,0 0.71875,-0.171875 1,-0.453125 -0.125,0.515625 -0.25,1.015625 -0.640625,1.546875 -0.265625,0.328125 -0.640625,0.625 -1.09375,0.625 -0.140625,0 -0.59375,-0.03125 -0.765625,-0.421875 0.15625,0 0.296875,0 0.421875,-0.125 C 1.328125,1.203125 1.421875,1.0625 1.421875,0.875 1.421875,0.5625 1.15625,0.53125 1.0625,0.53125 0.828125,0.53125 0.5,0.6875 0.5,1.171875 c 0,0.5 0.4375,0.875 1.0625,0.875 1.015625,0 2.046875,-0.90625 2.328125,-2.03125 z m 0,0"
             id="id-95967ca5-a881-4b0a-b83e-00b2af3c1111" />
        </symbol>
      </g>
    </defs>
  </defs>
  <g
     id="g1766"
     transform="translate(0.35136809)">
    <path
       style="fill:none;stroke:#8fcef0;stroke-width:0.265;stroke-linecap:butt;stroke-linejoin:miter;stroke-miterlimit:4;stroke-dasharray:0.795, 0.795;stroke-dashoffset:0;stroke-opacity:1"
       d="M 23.8125,3.96875 V 70.114582"
       id="path1215"
       sodipodi:nodetypes="cc" />
    <path
       style="fill:none;stroke:#8fcef0;stroke-width:0.265;stroke-linecap:butt;stroke-linejoin:miter;stroke-miterlimit:4;stroke-dasharray:0.795, 0.795;stroke-dashoffset:0;stroke-opacity:1"
       d="M 39.687501,3.96875 V 70.114582"
       id="path1436"
       sodipodi:nodetypes="cc" />
    <path
       style="fill:#666666;stroke:#666666;stroke-width:0.264583px;stroke-linecap:butt;stroke-linejoin:miter;stroke-opacity:1;marker-start:url(#Arrow2Lstart);marker-mid:url(#StopL);marker-end:url(#Arrow2Lend)"
       d="m 63.5,39.6875 c -7.99178,0 -16.74387,0 -23.812497,0 h -15.875 c -8.644732,0 -15.319799,0 -23.8125,0"
       id="path941" />
    <g
       transform="matrix(0.34671967,0,0,0.34671967,39.200907,43.513426)"
       id="g2479"
       style="fill:#000000;fill-opacity:1">
      <path
         style="stroke:none;stroke-width:0"
         d="m 2.9375,-6.375 c 0,-0.25 0,-0.265625 -0.234375,-0.265625 C 2.078125,-6 1.203125,-6 0.890625,-6 v 0.3125 c 0.203125,0 0.78125,0 1.296875,-0.265625 v 5.171875 c 0,0.359375 -0.03125,0.46875 -0.921875,0.46875 h -0.3125 V 0 c 0.34375,-0.03125 1.203125,-0.03125 1.609375,-0.03125 0.390625,0 1.265625,0 1.609375,0.03125 v -0.3125 h -0.3125 c -0.90625,0 -0.921875,-0.109375 -0.921875,-0.46875 z m 0,0"
         id="id-540def05-052b-4efa-bc03-a56c3af56ced" />
    </g>
    <g
       id="g2791"
       transform="matrix(0.79575632,0,0,0.79575632,-27.317415,-103.39987)">
      <g
         transform="matrix(0.43571086,0,0,0.43571086,62.832914,184.62096)"
         id="g2489"
         style="fill:#000000;fill-opacity:1">
        <path
           style="stroke:none;stroke-width:0"
           d="m 6.5625,-2.296875 c 0.171875,0 0.359375,0 0.359375,-0.203125 0,-0.1875 -0.1875,-0.1875 -0.359375,-0.1875 H 1.171875 c -0.171875,0 -0.34375,0 -0.34375,0.1875 0,0.203125 0.171875,0.203125 0.34375,0.203125 z m 0,0"
           id="id-268a4ada-c345-4fcc-b72a-99d8b59ae2a7" />
      </g>
      <g
         transform="matrix(0.43571086,0,0,0.43571086,67.173901,184.62096)"
         id="g2493"
         style="fill:#000000;fill-opacity:1">
        <path
           style="stroke:none;stroke-width:0"
           d="m 2.9375,-6.375 c 0,-0.25 0,-0.265625 -0.234375,-0.265625 C 2.078125,-6 1.203125,-6 0.890625,-6 v 0.3125 c 0.203125,0 0.78125,0 1.296875,-0.265625 v 5.171875 c 0,0.359375 -0.03125,0.46875 -0.921875,0.46875 h -0.3125 V 0 c 0.34375,-0.03125 1.203125,-0.03125 1.609375,-0.03125 0.390625,0 1.265625,0 1.609375,0.03125 v -0.3125 h -0.3125 c -0.90625,0 -0.921875,-0.109375 -0.921875,-0.46875 z m 0,0"
           id="id-86c1c4f9-b0b5-4e0e-bbf6-c9f448594031" />
      </g>
    </g>
    <path
       style="fill:#2d2d2d;stroke:#666666;stroke-width:0.264583px;stroke-linecap:butt;stroke-linejoin:miter;stroke-opacity:1;marker-start:url(#Arrow2Lstart);marker-end:url(#Arrow2Lend)"
       d="M 33.072917,5.29167 V 71.4375"
       id="path2998" />
    <g
       id="path3234"
       transform="translate(-0.339844,-0.726562)">
      <path
         style="color:#000000;fill:#dc0000;stroke-linecap:round;-inkscape-stroke:none"
         d="M 40.039062,23.207031 24.152344,36.445312 4.421875,23.292969 A 0.1825,0.1825 0 0 0 4.1679687,23.34375 0.1825,0.1825 0 0 0 4.21875,23.595703 L 24.175781,36.900391 40.039062,23.681641 55.796875,36.8125 a 0.1825,0.1825 0 0 0 0.257812,-0.02148 0.1825,0.1825 0 0 0 -0.02344,-0.257813 z"
         id="path1770" />
      <g
         id="g1748">
        <g
           id="path1760">
          <path
             style="color:#000000;fill:#ffc022;fill-rule:evenodd;stroke-width:0.146pt;-inkscape-stroke:none"
             d="m 40.75427,23.444056 c 0,0.40296 -0.32704,0.73 -0.73,0.73 -0.40296,0 -0.73,-0.32704 -0.73,-0.73 0,-0.40296 0.32704,-0.73 0.73,-0.73 0.40296,0 0.73,0.32704 0.73,0.73 z"
             id="path1764" />
          <path
             style="color:#000000;fill:#dc0000;fill-rule:evenodd;-inkscape-stroke:none"
             d="m 40.023437,22.617187 c -0.455622,0 -0.826171,0.370549 -0.826171,0.826172 0,0.455623 0.370549,0.828125 0.826171,0.828125 0.455623,0 0.828125,-0.372502 0.828125,-0.828125 0,-0.455623 -0.372502,-0.826172 -0.828125,-0.826172 z m 0,0.19336 c 0.350297,0 0.632813,0.282516 0.632813,0.632812 0,0.350297 -0.282516,0.632813 -0.632813,0.632813 -0.350296,0 -0.630859,-0.282516 -0.630859,-0.632813 0,-0.350296 0.280563,-0.632812 0.630859,-0.632812 z"
             id="path1766" />
        </g>
        <g
           id="path1750">
          <path
             style="color:#000000;fill:#ffc022;fill-rule:evenodd;stroke-width:0.146pt;-inkscape-stroke:none"
             d="m 24.878251,36.635065 c 0.0215,0.402386 -0.287634,0.746406 -0.69002,0.767901 -0.402386,0.02149 -0.746406,-0.287635 -0.767901,-0.690021 -0.0215,-0.402386 0.287634,-0.746406 0.690021,-0.767901 0.402386,-0.0215 0.746406,0.287634 0.7679,0.690021 z"
             id="path1754" />
          <path
             style="color:#000000;fill:#dc0000;fill-rule:evenodd;-inkscape-stroke:none"
             d="m 24.105469,35.847656 c -0.454975,0.0243 -0.807513,0.416119 -0.783203,0.871094 0.0243,0.454974 0.416121,0.805548 0.871093,0.78125 0.454974,-0.0243 0.80556,-0.416118 0.78125,-0.871094 -0.0243,-0.454975 -0.414165,-0.80556 -0.86914,-0.78125 z m 0.0098,0.195313 c 0.349796,-0.01869 0.647331,0.247858 0.666016,0.597656 0.01869,0.349796 -0.247859,0.64733 -0.597656,0.666016 -0.349799,0.01868 -0.64733,-0.249813 -0.666016,-0.59961 -0.01869,-0.349796 0.247858,-0.645376 0.597656,-0.664062 z"
             id="path1756" />
        </g>
      </g>
    </g>
    <g
       transform="matrix(0.52720941,0,0,0.52720941,65.603598,40.292956)"
       id="g4142"
       style="fill:#000000;fill-opacity:1">
      <path
         style="stroke:none;stroke-width:0"
         d="M 3.328125,-3.015625 C 3.390625,-3.265625 3.625,-4.1875 4.3125,-4.1875 c 0.046875,0 0.296875,0 0.5,0.125 C 4.53125,-4 4.34375,-3.765625 4.34375,-3.515625 c 0,0.15625 0.109375,0.34375 0.375,0.34375 0.21875,0 0.53125,-0.171875 0.53125,-0.578125 0,-0.515625 -0.578125,-0.65625 -0.921875,-0.65625 -0.578125,0 -0.921875,0.53125 -1.046875,0.75 -0.25,-0.65625 -0.78125,-0.75 -1.078125,-0.75 -1.03125,0 -1.609375,1.28125 -1.609375,1.53125 0,0.109375 0.109375,0.109375 0.125,0.109375 0.078125,0 0.109375,-0.03125 0.125,-0.109375 0.34375,-1.0625 1,-1.3125 1.34375,-1.3125 0.1875,0 0.53125,0.09375 0.53125,0.671875 0,0.3125 -0.171875,0.96875 -0.53125,2.375 -0.15625,0.609375 -0.515625,1.03125 -0.953125,1.03125 -0.0625,0 -0.28125,0 -0.5,-0.125 0.25,-0.0625 0.46875,-0.265625 0.46875,-0.546875 0,-0.265625 -0.21875,-0.34375 -0.359375,-0.34375 -0.3125,0 -0.546875,0.25 -0.546875,0.578125 0,0.453125 0.484375,0.65625 0.921875,0.65625 0.671875,0 1.03125,-0.703125 1.046875,-0.75 0.125,0.359375 0.484375,0.75 1.078125,0.75 1.03125,0 1.59375,-1.28125 1.59375,-1.53125 0,-0.109375 -0.078125,-0.109375 -0.109375,-0.109375 -0.09375,0 -0.109375,0.046875 -0.140625,0.109375 -0.328125,1.078125 -1,1.3125 -1.3125,1.3125 -0.390625,0 -0.546875,-0.3125 -0.546875,-0.65625 0,-0.21875 0.046875,-0.4375 0.15625,-0.875 z m 0,0"
         id="id-6fc33978-9af7-4d73-8ec0-a8c6100d8b29" />
    </g>
    <g
       transform="matrix(0.52720941,0,0,0.52720941,32.315676,2.323016)"
       id="g4145"
       style="fill:#000000;fill-opacity:1">
      <path
         style="stroke:none;stroke-width:0"
         d="m 4.84375,-3.796875 c 0.046875,-0.140625 0.046875,-0.15625 0.046875,-0.234375 0,-0.171875 -0.140625,-0.265625 -0.296875,-0.265625 -0.09375,0 -0.25,0.0625 -0.34375,0.203125 -0.015625,0.0625 -0.109375,0.359375 -0.140625,0.546875 -0.078125,0.25 -0.140625,0.53125 -0.203125,0.796875 l -0.453125,1.796875 c -0.03125,0.140625 -0.46875,0.84375 -1.125,0.84375 -0.5,0 -0.609375,-0.4375 -0.609375,-0.8125 C 1.71875,-1.375 1.890625,-2 2.21875,-2.875 2.375,-3.28125 2.421875,-3.390625 2.421875,-3.59375 c 0,-0.4375 -0.3125,-0.8125 -0.8125,-0.8125 -0.953125,0 -1.3125,1.453125 -1.3125,1.53125 0,0.109375 0.09375,0.109375 0.109375,0.109375 0.109375,0 0.109375,-0.03125 0.15625,-0.1875 0.28125,-0.9375 0.671875,-1.234375 1.015625,-1.234375 0.078125,0 0.25,0 0.25,0.3125 0,0.25 -0.109375,0.515625 -0.171875,0.703125 -0.40625,1.0625 -0.578125,1.625 -0.578125,2.09375 0,0.890625 0.625,1.1875 1.21875,1.1875 0.390625,0 0.71875,-0.171875 1,-0.453125 -0.125,0.515625 -0.25,1.015625 -0.640625,1.546875 -0.265625,0.328125 -0.640625,0.625 -1.09375,0.625 -0.140625,0 -0.59375,-0.03125 -0.765625,-0.421875 0.15625,0 0.296875,0 0.421875,-0.125 C 1.328125,1.203125 1.421875,1.0625 1.421875,0.875 1.421875,0.5625 1.15625,0.53125 1.0625,0.53125 0.828125,0.53125 0.5,0.6875 0.5,1.171875 c 0,0.5 0.4375,0.875 1.0625,0.875 1.015625,0 2.046875,-0.90625 2.328125,-2.03125 z m 0,0"
         id="id-4f1c9b01-c778-4e28-b7be-ac4891bdc8fb" />
    </g>
  </g>
</svg>
