<?xml version="1.0" encoding="UTF-8" standalone="no"?>
<!-- Created with Inkscape (http://www.inkscape.org/) -->

<svg
   width="26.317778mm"
   height="20.780262mm"
   viewBox="0 0 26.317778 20.780262"
   version="1.1"
   id="svg5"
   xmlns="http://www.w3.org/2000/svg"
   xmlns:svg="http://www.w3.org/2000/svg">
  <defs
     id="defs2">
    <marker
       style="overflow:visible"
       id="DotL"
       refX="0"
       refY="0"
       orient="auto">
      <path
         transform="matrix(0.8,0,0,0.8,5.92,0.8)"
         style="fill:context-stroke;fill-rule:evenodd;stroke:context-stroke;stroke-width:1pt"
         d="m -2.5,-1 c 0,2.76 -2.24,5 -5,5 -2.76,0 -5,-2.24 -5,-5 0,-2.76 2.24,-5 5,-5 2.76,0 5,2.24 5,5 z"
         id="path1597" />
    </marker>
    <defs
       id="id-02e401f0-4462-4dbc-80c8-8989536029d5">
      <g
         id="id-a35af1c5-b2b6-4626-bb6a-5c133d711bbd">
        <symbol
           overflow="visible"
           id="id-0c3a554f-b999-4003-b6d9-5da39e2e810e">
          <path
             style="stroke:none;stroke-width:0"
             d=""
             id="id-e0380a64-9d64-4b55-93cb-dd1ab7cf7991" />
        </symbol>
        <symbol
           overflow="visible"
           id="id-b888857a-897e-4e1e-aa92-711af1a5b6da">
          <path
             style="stroke:none;stroke-width:0"
             d="M 0.453125,1.21875 C 0.375,1.5625 0.34375,1.625 -0.09375,1.625 c -0.109375,0 -0.21875,0 -0.21875,0.1875 0,0.078125 0.046875,0.125 0.125,0.125 0.265625,0 0.5625,-0.03125 0.828125,-0.03125 0.34375,0 0.671875,0.03125 1,0.03125 0.046875,0 0.171875,0 0.171875,-0.203125 C 1.8125,1.625 1.71875,1.625 1.578125,1.625 c -0.5,0 -0.5,-0.0625 -0.5,-0.15625 0,-0.125 0.421875,-1.75 0.484375,-2 0.125,0.296875 0.40625,0.640625 0.921875,0.640625 1.15625,0 2.40625,-1.453125 2.40625,-2.921875 0,-0.9375 -0.578125,-1.59375 -1.328125,-1.59375 -0.5,0 -0.984375,0.359375 -1.3125,0.75 -0.09375,-0.546875 -0.53125,-0.75 -0.890625,-0.75 -0.46875,0 -0.65625,0.390625 -0.734375,0.5625 C 0.4375,-3.5 0.3125,-2.90625 0.3125,-2.875 c 0,0.109375 0.09375,0.109375 0.109375,0.109375 0.109375,0 0.109375,-0.015625 0.171875,-0.234375 0.171875,-0.703125 0.375,-1.1875 0.734375,-1.1875 0.171875,0 0.3125,0.078125 0.3125,0.453125 0,0.234375 -0.03125,0.34375 -0.078125,0.515625 z m 1.75,-4.328125 C 2.265625,-3.375 2.546875,-3.65625 2.71875,-3.8125 c 0.359375,-0.296875 0.640625,-0.375 0.8125,-0.375 0.390625,0 0.640625,0.34375 0.640625,0.9375 0,0.59375 -0.328125,1.734375 -0.515625,2.109375 -0.34375,0.703125 -0.8125,1.03125 -1.1875,1.03125 C 1.8125,-0.109375 1.6875,-0.9375 1.6875,-1 c 0,-0.015625 0,-0.03125 0.03125,-0.15625 z m 0,0"
             id="id-d139662b-613d-41b9-a8e9-2d9687247b1b" />
        </symbol>
        <symbol
           overflow="visible"
           id="id-31742cd5-7f5b-49e6-99a8-32e0a5588df4">
          <path
             style="stroke:none;stroke-width:0"
             d=""
             id="id-79ffc689-7ce3-403f-a278-5c65d881ae6f" />
        </symbol>
        <symbol
           overflow="visible"
           id="id-6c38ea9a-72fa-4273-9a93-f602d3520383">
          <path
             style="stroke:none;stroke-width:0"
             d="m 2.328125,-4.4375 c 0,-0.1875 0,-0.1875 -0.203125,-0.1875 -0.453125,0.4375 -1.078125,0.4375 -1.359375,0.4375 v 0.25 c 0.15625,0 0.625,0 1,-0.1875 v 3.546875 c 0,0.234375 0,0.328125 -0.6875,0.328125 H 0.8125 V 0 c 0.125,0 0.984375,-0.03125 1.234375,-0.03125 0.21875,0 1.09375,0.03125 1.25,0.03125 V -0.25 H 3.03125 c -0.703125,0 -0.703125,-0.09375 -0.703125,-0.328125 z m 0,0"
             id="id-571ebf78-f9a3-4894-a897-61bf67d7ed7a" />
        </symbol>
        <symbol
           overflow="visible"
           id="id-51680301-d3be-471b-9d7d-8127df44e801">
          <path
             style="stroke:none;stroke-width:0"
             d="M 3.515625,-1.265625 H 3.28125 c -0.015625,0.15625 -0.09375,0.5625 -0.1875,0.625 C 3.046875,-0.59375 2.515625,-0.59375 2.40625,-0.59375 H 1.125 c 0.734375,-0.640625 0.984375,-0.84375 1.390625,-1.171875 0.515625,-0.40625 1,-0.84375 1,-1.5 0,-0.84375 -0.734375,-1.359375 -1.625,-1.359375 -0.859375,0 -1.453125,0.609375 -1.453125,1.25 0,0.34375 0.296875,0.390625 0.375,0.390625 0.15625,0 0.359375,-0.125 0.359375,-0.375 0,-0.125 -0.046875,-0.375 -0.40625,-0.375 C 0.984375,-4.21875 1.453125,-4.375 1.78125,-4.375 c 0.703125,0 1.0625,0.546875 1.0625,1.109375 0,0.609375 -0.4375,1.078125 -0.65625,1.328125 L 0.515625,-0.265625 C 0.4375,-0.203125 0.4375,-0.1875 0.4375,0 h 2.875 z m 0,0"
             id="id-9859f6c8-b515-44a1-87f2-790f7d5c9708" />
        </symbol>
        <symbol
           overflow="visible"
           id="id-cb25e5ee-96cb-4ed2-9209-1c9b621ff43d">
          <path
             style="stroke:none;stroke-width:0"
             d="m 1.90625,-2.328125 c 0.546875,0 0.9375,0.375 0.9375,1.125 0,0.859375 -0.515625,1.125 -0.90625,1.125 -0.28125,0 -0.90625,-0.078125 -1.1875,-0.5 0.328125,0 0.40625,-0.234375 0.40625,-0.390625 0,-0.21875 -0.171875,-0.375 -0.390625,-0.375 -0.1875,0 -0.390625,0.125 -0.390625,0.40625 0,0.65625 0.71875,1.078125 1.5625,1.078125 0.96875,0 1.640625,-0.65625 1.640625,-1.34375 0,-0.546875 -0.4375,-1.09375 -1.203125,-1.25 0.71875,-0.265625 0.984375,-0.78125 0.984375,-1.21875 0,-0.546875 -0.625,-0.953125 -1.40625,-0.953125 -0.765625,0 -1.359375,0.375 -1.359375,0.9375 0,0.234375 0.15625,0.359375 0.359375,0.359375 0.21875,0 0.359375,-0.15625 0.359375,-0.34375 0,-0.203125 -0.140625,-0.359375 -0.359375,-0.375 0.25,-0.296875 0.71875,-0.375 0.984375,-0.375 0.3125,0 0.75,0.15625 0.75,0.75 0,0.296875 -0.09375,0.625 -0.28125,0.828125 -0.21875,0.265625 -0.421875,0.28125 -0.765625,0.3125 -0.171875,0.015625 -0.1875,0.015625 -0.21875,0.015625 -0.015625,0 -0.078125,0.015625 -0.078125,0.09375 0,0.09375 0.0625,0.09375 0.1875,0.09375 z m 0,0"
             id="id-7845b479-aa5a-41aa-b454-c95aa4c92a64" />
        </symbol>
        <symbol
           overflow="visible"
           id="id-53274e0e-627d-4c87-b5ae-66cfca6d7e66">
          <path
             style="stroke:none;stroke-width:0"
             d="m 3.6875,-1.140625 v -0.25 H 2.90625 V -4.5 c 0,-0.140625 0,-0.203125 -0.140625,-0.203125 -0.09375,0 -0.125,0 -0.1875,0.109375 l -2.3125,3.203125 v 0.25 h 2.0625 v 0.5625 c 0,0.25 0,0.328125 -0.578125,0.328125 H 1.5625 V 0 C 1.921875,-0.015625 2.359375,-0.03125 2.609375,-0.03125 2.875,-0.03125 3.3125,-0.015625 3.671875,0 v -0.25 h -0.1875 C 2.90625,-0.25 2.90625,-0.328125 2.90625,-0.578125 v -0.5625 z M 2.375,-3.9375 v 2.546875 H 0.53125 Z m 0,0"
             id="id-6ceba291-dc9d-452b-a37d-cab0651b1229" />
        </symbol>
        <symbol
           overflow="visible"
           id="id-2784f02c-22f4-482c-8da0-1ae3a2b4e5b2">
          <path
             style="stroke:none;stroke-width:0"
             d="m 1.078125,-3.890625 c 0.359375,0.09375 0.5625,0.09375 0.671875,0.09375 0.921875,0 1.46875,-0.625 1.46875,-0.734375 0,-0.078125 -0.046875,-0.09375 -0.078125,-0.09375 -0.015625,0 -0.03125,0 -0.0625,0.015625 -0.171875,0.0625 -0.53125,0.203125 -1.046875,0.203125 -0.203125,0 -0.5625,-0.015625 -1.015625,-0.1875 C 0.9375,-4.625 0.921875,-4.625 0.921875,-4.625 c -0.09375,0 -0.09375,0.078125 -0.09375,0.1875 v 2.046875 c 0,0.125 0,0.203125 0.109375,0.203125 0.0625,0 0.078125,0 0.140625,-0.09375 0.296875,-0.375 0.734375,-0.4375 0.96875,-0.4375 0.421875,0 0.609375,0.328125 0.640625,0.390625 0.125,0.234375 0.171875,0.5 0.171875,0.90625 0,0.203125 0,0.609375 -0.21875,0.921875 -0.171875,0.25 -0.46875,0.421875 -0.8125,0.421875 -0.453125,0 -0.921875,-0.25 -1.09375,-0.71875 0.265625,0.015625 0.40625,-0.15625 0.40625,-0.34375 0,-0.296875 -0.265625,-0.34375 -0.359375,-0.34375 0,0 -0.34375,0 -0.34375,0.375 0,0.625 0.578125,1.25 1.40625,1.25 0.890625,0 1.671875,-0.65625 1.671875,-1.546875 0,-0.78125 -0.59375,-1.5 -1.453125,-1.5 -0.3125,0 -0.671875,0.0625 -0.984375,0.328125 z m 0,0"
             id="id-3cf043bf-a5f0-4f71-9b19-f66e46af9b68" />
        </symbol>
        <symbol
           overflow="visible"
           id="id-a87534a8-99ce-45c2-a7db-07c60109e108">
          <path
             style="stroke:none;stroke-width:0"
             d="m 1.046875,-2.28125 c 0,-0.5625 0.046875,-1.078125 0.3125,-1.515625 0.234375,-0.375 0.609375,-0.625 1.0625,-0.625 0.203125,0 0.484375,0.046875 0.625,0.234375 C 2.875,-4.171875 2.71875,-4.046875 2.71875,-3.84375 c 0,0.171875 0.125,0.328125 0.328125,0.328125 0.21875,0 0.34375,-0.140625 0.34375,-0.34375 0,-0.40625 -0.296875,-0.765625 -0.984375,-0.765625 -1,0 -2.03125,0.921875 -2.03125,2.421875 0,1.796875 0.84375,2.34375 1.625,2.34375 0.84375,0 1.578125,-0.65625 1.578125,-1.5625 0,-0.890625 -0.703125,-1.546875 -1.515625,-1.546875 -0.5625,0 -0.859375,0.375 -1.015625,0.6875 z M 2,-0.078125 c -0.359375,0 -0.625,-0.203125 -0.78125,-0.515625 C 1.125,-0.796875 1.0625,-1.15625 1.0625,-1.5625 c 0,-0.6875 0.40625,-1.203125 0.96875,-1.203125 0.3125,0 0.53125,0.125 0.703125,0.375 0.171875,0.265625 0.171875,0.5625 0.171875,0.96875 0,0.390625 0,0.6875 -0.1875,0.96875 -0.15625,0.234375 -0.390625,0.375 -0.71875,0.375 z m 0,0"
             id="id-b0cce579-910a-4795-a761-33546bda566c" />
        </symbol>
      </g>
    </defs>
  </defs>
  <g
     id="layer1"
     transform="translate(-79.022895,-125.78711)">
    <g
       id="g3068">
      <g
         id="path1337"
         style="fill:#9ade00">
        <path
           style="color:#000000;fill:#364e59;-inkscape-stroke:none"
           d="m 84.759766,126.90625 -0.1875,0.1875 8.03125,8.03125 8.031254,-8.03125 -0.1875,-0.1875 -7.843754,7.84375 z"
           id="path1838" />
        <g
           id="g1806"
           style="fill:#9ade00">
          <g
             id="path1828"
             style="fill:#9ade00">
            <path
               style="color:#000000;fill:#9ade00;fill-rule:evenodd;stroke-width:0.211666pt;-inkscape-stroke:none"
               d="m 101.27506,126.26661 c 0.41309,0.41309 0.41309,1.08362 0,1.49671 -0.41309,0.41309 -1.08362,0.41309 -1.496711,0 -0.413091,-0.41309 -0.413091,-1.08362 0,-1.49671 0.413091,-0.41309 1.083621,-0.41309 1.496711,0 z"
               id="path1832" />
            <path
               style="color:#000000;fill:#364e59;fill-rule:evenodd;-inkscape-stroke:none"
               d="m 100.52734,125.81641 c -0.30729,0 -0.616066,0.11607 -0.849606,0.34961 -0.467078,0.46707 -0.467078,1.23018 0,1.69726 0.467076,0.46708 1.230186,0.46708 1.697266,0 0.46708,-0.46708 0.46708,-1.23019 0,-1.69726 -0.23354,-0.23354 -0.54036,-0.34961 -0.84766,-0.34961 z m 0,0.28125 c 0.23452,0 0.46889,0.09 0.64844,0.26953 0.3591,0.3591 0.3591,0.93777 0,1.29687 -0.3591,0.3591 -0.93777,0.3591 -1.296874,0 -0.359102,-0.3591 -0.359102,-0.93777 0,-1.29687 0.179554,-0.17955 0.413924,-0.26953 0.648434,-0.26953 z"
               id="path1834" />
          </g>
          <g
             id="path1818"
             style="fill:#9ade00">
            <path
               style="color:#000000;fill:#9ade00;fill-rule:evenodd;stroke-width:0.211666pt;-inkscape-stroke:none"
               d="m 93.641331,134.9375 c 0,0.5842 -0.474132,1.05833 -1.058332,1.05833 -0.584199,0 -1.058332,-0.47413 -1.058332,-1.05833 0,-0.5842 0.474133,-1.05833 1.058332,-1.05833 0.5842,0 1.058332,0.47413 1.058332,1.05833 z"
               id="path1822" />
            <path
               style="color:#000000;fill:#9ade00;fill-rule:evenodd;-inkscape-stroke:none"
               d="m 92.582031,133.73828 c -0.660547,0 -1.199219,0.53867 -1.199219,1.19922 0,0.66055 0.538672,1.19922 1.199219,1.19922 0.660549,0 1.201172,-0.53867 1.201172,-1.19922 0,-0.66055 -0.540623,-1.19922 -1.201172,-1.19922 z m 0,0.28125 c 0.507851,0 0.917969,0.41012 0.917969,0.91797 0,0.50785 -0.410118,0.91797 -0.917969,0.91797 -0.507849,0 -0.916015,-0.41012 -0.916015,-0.91797 0,-0.50785 0.408166,-0.91797 0.916015,-0.91797 z"
               id="path1824" />
          </g>
          <g
             id="path1808"
             style="fill:#9ade00">
            <path
               style="color:#000000;fill:#9ade00;fill-rule:evenodd;stroke-width:0.211666pt;-inkscape-stroke:none"
               d="m 85.400053,127.73339 c -0.413092,0.41309 -1.083617,0.41309 -1.496708,0 -0.413091,-0.41309 -0.413091,-1.08362 0,-1.49671 0.413091,-0.41309 1.083616,-0.41309 1.496708,0 0.413091,0.41309 0.413091,1.08362 0,1.49671 z"
               id="path1812" />
            <path
               style="color:#000000;fill:#364e59;fill-rule:evenodd;-inkscape-stroke:none"
               d="m 84.652344,125.78711 c -0.307297,0 -0.616071,0.11607 -0.84961,0.34961 -0.467078,0.46708 -0.467078,1.23019 0,1.69726 0.467078,0.46708 1.230187,0.46708 1.697266,0 0.467079,-0.46707 0.467079,-1.23018 0,-1.69726 -0.233539,-0.23354 -0.540359,-0.34961 -0.847656,-0.34961 z m 0,0.2793 c 0.23451,0 0.468885,0.09 0.648437,0.26953 0.359103,0.3591 0.359103,0.93777 0,1.29687 -0.359104,0.3591 -0.937772,0.3591 -1.296875,0 -0.359102,-0.3591 -0.359102,-0.93777 0,-1.29687 0.179552,-0.17955 0.413927,-0.26953 0.648438,-0.26953 z"
               id="path1814" />
          </g>
        </g>
      </g>
      <g
         id="path1452"
         style="fill:#9ade00">
        <path
           style="color:#000000;fill:#364e59;-inkscape-stroke:none"
           d="m 92.603516,134.75 -8.03125,8.03125 0.1875,0.1875 7.84375,-7.84375 7.843754,7.84375 0.1875,-0.1875 z"
           id="path1876" />
        <g
           id="g1844"
           style="fill:#9ade00">
          <g
             id="path1866"
             style="fill:#9ade00">
            <path
               style="color:#000000;fill:#9ade00;fill-rule:evenodd;stroke-width:0.211666pt;-inkscape-stroke:none"
               d="m 83.93328,143.60839 c -0.413091,-0.41309 -0.413091,-1.08362 0,-1.49671 0.413092,-0.41309 1.083616,-0.41309 1.496708,0 0.413091,0.41309 0.413091,1.08362 0,1.49671 -0.413091,0.41309 -1.083616,0.41309 -1.496708,0 z"
               id="path1870" />
            <path
               style="color:#000000;fill:#364e59;fill-rule:evenodd;-inkscape-stroke:none"
               d="m 84.681641,141.66211 c -0.307297,0 -0.614117,0.11607 -0.847657,0.34961 -0.467078,0.46708 -0.467078,1.23019 0,1.69726 0.467079,0.46708 1.228235,0.46708 1.695313,0 0.467078,-0.46707 0.467078,-1.23018 0,-1.69726 -0.23354,-0.23354 -0.540359,-0.34961 -0.847656,-0.34961 z m 0,0.2793 c 0.23451,0 0.468885,0.09 0.648437,0.26953 0.359103,0.3591 0.359103,0.93777 0,1.29687 -0.359103,0.3591 -0.937771,0.3591 -1.296875,0 -0.359102,-0.3591 -0.359102,-0.93777 0,-1.29687 0.179552,-0.17955 0.413927,-0.26953 0.648438,-0.26953 z"
               id="path1872" />
          </g>
          <g
             id="path1856"
             style="fill:#9ade00">
            <path
               style="color:#000000;fill:#9ade00;fill-rule:evenodd;stroke-width:0.211666pt;-inkscape-stroke:none"
               d="m 91.567001,134.9375 c 0,-0.5842 0.474132,-1.05833 1.058332,-1.05833 0.584199,0 1.058332,0.47413 1.058332,1.05833 0,0.5842 -0.474133,1.05833 -1.058332,1.05833 -0.5842,0 -1.058332,-0.47413 -1.058332,-1.05833 z"
               id="path1860" />
            <path
               style="color:#000000;fill:#9ade00;fill-rule:evenodd;-inkscape-stroke:none"
               d="m 92.625,133.73828 c -0.660549,0 -1.199219,0.53867 -1.199219,1.19922 0,0.66055 0.53867,1.19922 1.199219,1.19922 0.660548,0 1.199219,-0.53867 1.199219,-1.19922 0,-0.66055 -0.538671,-1.19922 -1.199219,-1.19922 z m 0,0.28125 c 0.507849,0 0.917969,0.41012 0.917969,0.91797 0,0.50785 -0.41012,0.91797 -0.917969,0.91797 -0.50785,0 -0.916016,-0.41012 -0.916016,-0.91797 0,-0.50785 0.408166,-0.91797 0.916016,-0.91797 z"
               id="path1862" />
          </g>
          <g
             id="path1846"
             style="fill:#9ade00">
            <path
               style="color:#000000;fill:#9ade00;fill-rule:evenodd;stroke-width:0.211666pt;-inkscape-stroke:none"
               d="m 99.808283,142.14161 c 0.413087,-0.41309 1.083617,-0.41309 1.496707,0 0.41309,0.41309 0.41309,1.08362 0,1.49671 -0.41309,0.41309 -1.08362,0.41309 -1.496706,0 -0.413092,-0.41309 -0.413092,-1.08362 -10e-7,-1.49671 z"
               id="path1850" />
            <path
               style="color:#000000;fill:#364e59;fill-rule:evenodd;-inkscape-stroke:none"
               d="m 100.55664,141.69141 c -0.3073,0 -0.614118,0.11607 -0.847656,0.34961 -0.467078,0.46707 -0.467079,1.23018 0,1.69726 0.467076,0.46708 1.228236,0.46708 1.695316,0 0.46707,-0.46708 0.46707,-1.23019 0,-1.69726 -0.23354,-0.23354 -0.54036,-0.34961 -0.84766,-0.34961 z m 0,0.28125 c 0.23451,0 0.46889,0.09 0.64844,0.26953 0.3591,0.3591 0.3591,0.93777 0,1.29687 -0.3591,0.3591 -0.93778,0.3591 -1.296877,0 -0.359103,-0.3591 -0.359102,-0.93777 0,-1.29687 0.179547,-0.17955 0.413927,-0.26953 0.648437,-0.26953 z"
               id="path1852" />
          </g>
        </g>
      </g>
      <g
         id="path1454"
         style="fill:#9ade00">
        <path
           style="color:#000000;fill:#364e59;-inkscape-stroke:none"
           d="m 92.472656,134.9375 v 7.9375 h 0.263672 v -7.9375 z"
           id="path1904" />
        <g
           id="g1882"
           style="fill:#9ade00">
          <g
             id="path1894"
             style="fill:#9ade00">
            <path
               style="color:#000000;fill:#9ade00;fill-rule:evenodd;stroke-width:0.211666pt;-inkscape-stroke:none"
               d="m 92.604166,143.91217 c -0.584199,0 -1.058332,-0.47414 -1.058332,-1.05834 0,-0.5842 0.474133,-1.05833 1.058332,-1.05833 0.584199,0 1.058332,0.47413 1.058332,1.05833 0,0.5842 -0.474133,1.05834 -1.058332,1.05834 z"
               id="path1898" />
            <path
               style="color:#000000;fill:#364e59;fill-rule:evenodd;-inkscape-stroke:none"
               d="m 92.603516,141.6543 c -0.660548,0 -1.199219,0.53867 -1.199219,1.19922 0,0.66054 0.538669,1.19921 1.199219,1.19921 0.660549,0 1.199218,-0.53867 1.199218,-1.19921 0,-0.66055 -0.538671,-1.19922 -1.199218,-1.19922 z m 0,0.2832 c 0.507849,0 0.917968,0.40817 0.917968,0.91602 0,0.50785 -0.410121,0.91796 -0.917968,0.91796 -0.507848,0 -0.916016,-0.41011 -0.916016,-0.91796 0,-0.50785 0.408166,-0.91602 0.916016,-0.91602 z"
               id="path1900" />
          </g>
          <g
             id="path1884"
             style="fill:#9ade00">
            <path
               style="color:#000000;fill:#9ade00;fill-rule:evenodd;stroke-width:0.211666pt;-inkscape-stroke:none"
               d="m 92.604166,135.97467 c -0.584199,0 -1.058332,-0.47414 -1.058332,-1.05834 0,-0.5842 0.474133,-1.05833 1.058332,-1.05833 0.584199,0 1.058332,0.47413 1.058332,1.05833 0,0.5842 -0.474133,1.05834 -1.058332,1.05834 z"
               id="path1888" />
            <path
               style="color:#000000;fill:#364e59;fill-rule:evenodd;-inkscape-stroke:none"
               d="m 92.603516,133.7168 c -0.660548,0 -1.199219,0.53867 -1.199219,1.19922 0,0.66054 0.538669,1.19921 1.199219,1.19921 0.660549,0 1.199218,-0.53867 1.199218,-1.19921 0,-0.66055 -0.538671,-1.19922 -1.199218,-1.19922 z m 0,0.2832 c 0.507849,0 0.917968,0.40817 0.917968,0.91602 0,0.50785 -0.410121,0.91796 -0.917968,0.91796 -0.507848,0 -0.916016,-0.41011 -0.916016,-0.91796 0,-0.50785 0.408166,-0.91602 0.916016,-0.91602 z"
               id="path1890" />
          </g>
        </g>
      </g>
      <g
         id="g2967"
         transform="translate(-3.2226753,-21.114128)">
        <g
           transform="matrix(0.375579,0,0,0.375579,83.073178,149.03185)"
           id="g2717"
           style="fill:#000000;fill-opacity:1">
          <path
             style="stroke:none;stroke-width:0"
             d="M 0.453125,1.21875 C 0.375,1.5625 0.34375,1.625 -0.09375,1.625 c -0.109375,0 -0.21875,0 -0.21875,0.1875 0,0.078125 0.046875,0.125 0.125,0.125 0.265625,0 0.5625,-0.03125 0.828125,-0.03125 0.34375,0 0.671875,0.03125 1,0.03125 0.046875,0 0.171875,0 0.171875,-0.203125 C 1.8125,1.625 1.71875,1.625 1.578125,1.625 c -0.5,0 -0.5,-0.0625 -0.5,-0.15625 0,-0.125 0.421875,-1.75 0.484375,-2 0.125,0.296875 0.40625,0.640625 0.921875,0.640625 1.15625,0 2.40625,-1.453125 2.40625,-2.921875 0,-0.9375 -0.578125,-1.59375 -1.328125,-1.59375 -0.5,0 -0.984375,0.359375 -1.3125,0.75 -0.09375,-0.546875 -0.53125,-0.75 -0.890625,-0.75 -0.46875,0 -0.65625,0.390625 -0.734375,0.5625 C 0.4375,-3.5 0.3125,-2.90625 0.3125,-2.875 c 0,0.109375 0.09375,0.109375 0.109375,0.109375 0.109375,0 0.109375,-0.015625 0.171875,-0.234375 0.171875,-0.703125 0.375,-1.1875 0.734375,-1.1875 0.171875,0 0.3125,0.078125 0.3125,0.453125 0,0.234375 -0.03125,0.34375 -0.078125,0.515625 z m 1.75,-4.328125 C 2.265625,-3.375 2.546875,-3.65625 2.71875,-3.8125 c 0.359375,-0.296875 0.640625,-0.375 0.8125,-0.375 0.390625,0 0.640625,0.34375 0.640625,0.9375 0,0.59375 -0.328125,1.734375 -0.515625,2.109375 -0.34375,0.703125 -0.8125,1.03125 -1.1875,1.03125 C 1.8125,-0.109375 1.6875,-0.9375 1.6875,-1 c 0,-0.015625 0,-0.03125 0.03125,-0.15625 z m 0,0"
             id="id-64b06e84-0f57-4c0e-a8ff-2325d52efea4" />
        </g>
        <g
           transform="matrix(0.375579,0,0,0.375579,84.955956,149.59297)"
           id="g2721"
           style="fill:#000000;fill-opacity:1">
          <path
             style="stroke:none;stroke-width:0"
             d="m 2.328125,-4.4375 c 0,-0.1875 0,-0.1875 -0.203125,-0.1875 -0.453125,0.4375 -1.078125,0.4375 -1.359375,0.4375 v 0.25 c 0.15625,0 0.625,0 1,-0.1875 v 3.546875 c 0,0.234375 0,0.328125 -0.6875,0.328125 H 0.8125 V 0 c 0.125,0 0.984375,-0.03125 1.234375,-0.03125 0.21875,0 1.09375,0.03125 1.25,0.03125 V -0.25 H 3.03125 c -0.703125,0 -0.703125,-0.09375 -0.703125,-0.328125 z m 0,0"
             id="id-5ccb15f2-734f-4373-9dd1-80abb4385a70" />
        </g>
      </g>
      <g
         id="g2973"
         transform="translate(-7.4941549,-6.0361349)">
        <g
           transform="matrix(0.375579,0,0,0.375579,86.634418,149.03185)"
           id="g2725"
           style="fill:#000000;fill-opacity:1">
          <path
             style="stroke:none;stroke-width:0"
             d="M 0.453125,1.21875 C 0.375,1.5625 0.34375,1.625 -0.09375,1.625 c -0.109375,0 -0.21875,0 -0.21875,0.1875 0,0.078125 0.046875,0.125 0.125,0.125 0.265625,0 0.5625,-0.03125 0.828125,-0.03125 0.34375,0 0.671875,0.03125 1,0.03125 0.046875,0 0.171875,0 0.171875,-0.203125 C 1.8125,1.625 1.71875,1.625 1.578125,1.625 c -0.5,0 -0.5,-0.0625 -0.5,-0.15625 0,-0.125 0.421875,-1.75 0.484375,-2 0.125,0.296875 0.40625,0.640625 0.921875,0.640625 1.15625,0 2.40625,-1.453125 2.40625,-2.921875 0,-0.9375 -0.578125,-1.59375 -1.328125,-1.59375 -0.5,0 -0.984375,0.359375 -1.3125,0.75 -0.09375,-0.546875 -0.53125,-0.75 -0.890625,-0.75 -0.46875,0 -0.65625,0.390625 -0.734375,0.5625 C 0.4375,-3.5 0.3125,-2.90625 0.3125,-2.875 c 0,0.109375 0.09375,0.109375 0.109375,0.109375 0.109375,0 0.109375,-0.015625 0.171875,-0.234375 0.171875,-0.703125 0.375,-1.1875 0.734375,-1.1875 0.171875,0 0.3125,0.078125 0.3125,0.453125 0,0.234375 -0.03125,0.34375 -0.078125,0.515625 z m 1.75,-4.328125 C 2.265625,-3.375 2.546875,-3.65625 2.71875,-3.8125 c 0.359375,-0.296875 0.640625,-0.375 0.8125,-0.375 0.390625,0 0.640625,0.34375 0.640625,0.9375 0,0.59375 -0.328125,1.734375 -0.515625,2.109375 -0.34375,0.703125 -0.8125,1.03125 -1.1875,1.03125 C 1.8125,-0.109375 1.6875,-0.9375 1.6875,-1 c 0,-0.015625 0,-0.03125 0.03125,-0.15625 z m 0,0"
             id="id-21ee7296-ee49-4bd7-9bcc-eee508bddd5d" />
        </g>
        <g
           transform="matrix(0.375579,0,0,0.375579,88.517196,149.59297)"
           id="g2729"
           style="fill:#000000;fill-opacity:1">
          <path
             style="stroke:none;stroke-width:0"
             d="M 3.515625,-1.265625 H 3.28125 c -0.015625,0.15625 -0.09375,0.5625 -0.1875,0.625 C 3.046875,-0.59375 2.515625,-0.59375 2.40625,-0.59375 H 1.125 c 0.734375,-0.640625 0.984375,-0.84375 1.390625,-1.171875 0.515625,-0.40625 1,-0.84375 1,-1.5 0,-0.84375 -0.734375,-1.359375 -1.625,-1.359375 -0.859375,0 -1.453125,0.609375 -1.453125,1.25 0,0.34375 0.296875,0.390625 0.375,0.390625 0.15625,0 0.359375,-0.125 0.359375,-0.375 0,-0.125 -0.046875,-0.375 -0.40625,-0.375 C 0.984375,-4.21875 1.453125,-4.375 1.78125,-4.375 c 0.703125,0 1.0625,0.546875 1.0625,1.109375 0,0.609375 -0.4375,1.078125 -0.65625,1.328125 L 0.515625,-0.265625 C 0.4375,-0.203125 0.4375,-0.1875 0.4375,0 h 2.875 z m 0,0"
             id="id-219e29b8-a190-4375-bd31-c8d0f2cb9eb5" />
        </g>
      </g>
      <g
         id="g2979"
         transform="translate(-1.6800857,-3.1921629)">
        <g
           transform="matrix(0.375579,0,0,0.375579,90.195658,149.03185)"
           id="g2733"
           style="fill:#000000;fill-opacity:1">
          <path
             style="stroke:none;stroke-width:0"
             d="M 0.453125,1.21875 C 0.375,1.5625 0.34375,1.625 -0.09375,1.625 c -0.109375,0 -0.21875,0 -0.21875,0.1875 0,0.078125 0.046875,0.125 0.125,0.125 0.265625,0 0.5625,-0.03125 0.828125,-0.03125 0.34375,0 0.671875,0.03125 1,0.03125 0.046875,0 0.171875,0 0.171875,-0.203125 C 1.8125,1.625 1.71875,1.625 1.578125,1.625 c -0.5,0 -0.5,-0.0625 -0.5,-0.15625 0,-0.125 0.421875,-1.75 0.484375,-2 0.125,0.296875 0.40625,0.640625 0.921875,0.640625 1.15625,0 2.40625,-1.453125 2.40625,-2.921875 0,-0.9375 -0.578125,-1.59375 -1.328125,-1.59375 -0.5,0 -0.984375,0.359375 -1.3125,0.75 -0.09375,-0.546875 -0.53125,-0.75 -0.890625,-0.75 -0.46875,0 -0.65625,0.390625 -0.734375,0.5625 C 0.4375,-3.5 0.3125,-2.90625 0.3125,-2.875 c 0,0.109375 0.09375,0.109375 0.109375,0.109375 0.109375,0 0.109375,-0.015625 0.171875,-0.234375 0.171875,-0.703125 0.375,-1.1875 0.734375,-1.1875 0.171875,0 0.3125,0.078125 0.3125,0.453125 0,0.234375 -0.03125,0.34375 -0.078125,0.515625 z m 1.75,-4.328125 C 2.265625,-3.375 2.546875,-3.65625 2.71875,-3.8125 c 0.359375,-0.296875 0.640625,-0.375 0.8125,-0.375 0.390625,0 0.640625,0.34375 0.640625,0.9375 0,0.59375 -0.328125,1.734375 -0.515625,2.109375 -0.34375,0.703125 -0.8125,1.03125 -1.1875,1.03125 C 1.8125,-0.109375 1.6875,-0.9375 1.6875,-1 c 0,-0.015625 0,-0.03125 0.03125,-0.15625 z m 0,0"
             id="id-2ee904ad-a13e-4871-bc4b-2073942c48d8" />
        </g>
        <g
           transform="matrix(0.375579,0,0,0.375579,92.07806,149.59297)"
           id="g2737"
           style="fill:#000000;fill-opacity:1">
          <path
             style="stroke:none;stroke-width:0"
             d="m 1.90625,-2.328125 c 0.546875,0 0.9375,0.375 0.9375,1.125 0,0.859375 -0.515625,1.125 -0.90625,1.125 -0.28125,0 -0.90625,-0.078125 -1.1875,-0.5 0.328125,0 0.40625,-0.234375 0.40625,-0.390625 0,-0.21875 -0.171875,-0.375 -0.390625,-0.375 -0.1875,0 -0.390625,0.125 -0.390625,0.40625 0,0.65625 0.71875,1.078125 1.5625,1.078125 0.96875,0 1.640625,-0.65625 1.640625,-1.34375 0,-0.546875 -0.4375,-1.09375 -1.203125,-1.25 0.71875,-0.265625 0.984375,-0.78125 0.984375,-1.21875 0,-0.546875 -0.625,-0.953125 -1.40625,-0.953125 -0.765625,0 -1.359375,0.375 -1.359375,0.9375 0,0.234375 0.15625,0.359375 0.359375,0.359375 0.21875,0 0.359375,-0.15625 0.359375,-0.34375 0,-0.203125 -0.140625,-0.359375 -0.359375,-0.375 0.25,-0.296875 0.71875,-0.375 0.984375,-0.375 0.3125,0 0.75,0.15625 0.75,0.75 0,0.296875 -0.09375,0.625 -0.28125,0.828125 -0.21875,0.265625 -0.421875,0.28125 -0.765625,0.3125 -0.171875,0.015625 -0.1875,0.015625 -0.21875,0.015625 -0.015625,0 -0.078125,0.015625 -0.078125,0.09375 0,0.09375 0.0625,0.09375 0.1875,0.09375 z m 0,0"
             id="id-2b264ccc-7440-4e16-93a4-232469e515ee" />
        </g>
      </g>
      <g
         id="g2985"
         transform="translate(8.3164243,-4.2842186)">
        <g
           transform="matrix(0.375579,0,0,0.375579,93.756898,149.03185)"
           id="g2741"
           style="fill:#000000;fill-opacity:1">
          <path
             style="stroke:none;stroke-width:0"
             d="M 0.453125,1.21875 C 0.375,1.5625 0.34375,1.625 -0.09375,1.625 c -0.109375,0 -0.21875,0 -0.21875,0.1875 0,0.078125 0.046875,0.125 0.125,0.125 0.265625,0 0.5625,-0.03125 0.828125,-0.03125 0.34375,0 0.671875,0.03125 1,0.03125 0.046875,0 0.171875,0 0.171875,-0.203125 C 1.8125,1.625 1.71875,1.625 1.578125,1.625 c -0.5,0 -0.5,-0.0625 -0.5,-0.15625 0,-0.125 0.421875,-1.75 0.484375,-2 0.125,0.296875 0.40625,0.640625 0.921875,0.640625 1.15625,0 2.40625,-1.453125 2.40625,-2.921875 0,-0.9375 -0.578125,-1.59375 -1.328125,-1.59375 -0.5,0 -0.984375,0.359375 -1.3125,0.75 -0.09375,-0.546875 -0.53125,-0.75 -0.890625,-0.75 -0.46875,0 -0.65625,0.390625 -0.734375,0.5625 C 0.4375,-3.5 0.3125,-2.90625 0.3125,-2.875 c 0,0.109375 0.09375,0.109375 0.109375,0.109375 0.109375,0 0.109375,-0.015625 0.171875,-0.234375 0.171875,-0.703125 0.375,-1.1875 0.734375,-1.1875 0.171875,0 0.3125,0.078125 0.3125,0.453125 0,0.234375 -0.03125,0.34375 -0.078125,0.515625 z m 1.75,-4.328125 C 2.265625,-3.375 2.546875,-3.65625 2.71875,-3.8125 c 0.359375,-0.296875 0.640625,-0.375 0.8125,-0.375 0.390625,0 0.640625,0.34375 0.640625,0.9375 0,0.59375 -0.328125,1.734375 -0.515625,2.109375 -0.34375,0.703125 -0.8125,1.03125 -1.1875,1.03125 C 1.8125,-0.109375 1.6875,-0.9375 1.6875,-1 c 0,-0.015625 0,-0.03125 0.03125,-0.15625 z m 0,0"
             id="id-e449e70a-a1c3-4009-84e4-24520a6481c8" />
        </g>
        <g
           transform="matrix(0.375579,0,0,0.375579,95.6393,149.59297)"
           id="g2745"
           style="fill:#000000;fill-opacity:1">
          <path
             style="stroke:none;stroke-width:0"
             d="m 3.6875,-1.140625 v -0.25 H 2.90625 V -4.5 c 0,-0.140625 0,-0.203125 -0.140625,-0.203125 -0.09375,0 -0.125,0 -0.1875,0.109375 l -2.3125,3.203125 v 0.25 h 2.0625 v 0.5625 c 0,0.25 0,0.328125 -0.578125,0.328125 H 1.5625 V 0 C 1.921875,-0.015625 2.359375,-0.03125 2.609375,-0.03125 2.875,-0.03125 3.3125,-0.015625 3.671875,0 v -0.25 h -0.1875 C 2.90625,-0.25 2.90625,-0.328125 2.90625,-0.578125 v -0.5625 z M 2.375,-3.9375 v 2.546875 H 0.53125 Z m 0,0"
             id="id-01484587-cc9d-47ff-b429-df6c835af9b8" />
        </g>
      </g>
      <g
         id="g2996"
         transform="translate(4.7882443,-20.497046)">
        <g
           transform="matrix(0.375579,0,0,0.375579,97.318139,149.03185)"
           id="g2749"
           style="fill:#000000;fill-opacity:1">
          <path
             style="stroke:none;stroke-width:0"
             d="M 0.453125,1.21875 C 0.375,1.5625 0.34375,1.625 -0.09375,1.625 c -0.109375,0 -0.21875,0 -0.21875,0.1875 0,0.078125 0.046875,0.125 0.125,0.125 0.265625,0 0.5625,-0.03125 0.828125,-0.03125 0.34375,0 0.671875,0.03125 1,0.03125 0.046875,0 0.171875,0 0.171875,-0.203125 C 1.8125,1.625 1.71875,1.625 1.578125,1.625 c -0.5,0 -0.5,-0.0625 -0.5,-0.15625 0,-0.125 0.421875,-1.75 0.484375,-2 0.125,0.296875 0.40625,0.640625 0.921875,0.640625 1.15625,0 2.40625,-1.453125 2.40625,-2.921875 0,-0.9375 -0.578125,-1.59375 -1.328125,-1.59375 -0.5,0 -0.984375,0.359375 -1.3125,0.75 -0.09375,-0.546875 -0.53125,-0.75 -0.890625,-0.75 -0.46875,0 -0.65625,0.390625 -0.734375,0.5625 C 0.4375,-3.5 0.3125,-2.90625 0.3125,-2.875 c 0,0.109375 0.09375,0.109375 0.109375,0.109375 0.109375,0 0.109375,-0.015625 0.171875,-0.234375 0.171875,-0.703125 0.375,-1.1875 0.734375,-1.1875 0.171875,0 0.3125,0.078125 0.3125,0.453125 0,0.234375 -0.03125,0.34375 -0.078125,0.515625 z m 1.75,-4.328125 C 2.265625,-3.375 2.546875,-3.65625 2.71875,-3.8125 c 0.359375,-0.296875 0.640625,-0.375 0.8125,-0.375 0.390625,0 0.640625,0.34375 0.640625,0.9375 0,0.59375 -0.328125,1.734375 -0.515625,2.109375 -0.34375,0.703125 -0.8125,1.03125 -1.1875,1.03125 C 1.8125,-0.109375 1.6875,-0.9375 1.6875,-1 c 0,-0.015625 0,-0.03125 0.03125,-0.15625 z m 0,0"
             id="id-73103eee-0e74-4085-8c5e-565bab938203" />
        </g>
        <g
           id="g2989">
          <g
             transform="matrix(0.375579,0,0,0.375579,99.200541,149.59297)"
             id="g2753"
             style="fill:#000000;fill-opacity:1">
            <path
               style="stroke:none;stroke-width:0"
               d="m 1.078125,-3.890625 c 0.359375,0.09375 0.5625,0.09375 0.671875,0.09375 0.921875,0 1.46875,-0.625 1.46875,-0.734375 0,-0.078125 -0.046875,-0.09375 -0.078125,-0.09375 -0.015625,0 -0.03125,0 -0.0625,0.015625 -0.171875,0.0625 -0.53125,0.203125 -1.046875,0.203125 -0.203125,0 -0.5625,-0.015625 -1.015625,-0.1875 C 0.9375,-4.625 0.921875,-4.625 0.921875,-4.625 c -0.09375,0 -0.09375,0.078125 -0.09375,0.1875 v 2.046875 c 0,0.125 0,0.203125 0.109375,0.203125 0.0625,0 0.078125,0 0.140625,-0.09375 0.296875,-0.375 0.734375,-0.4375 0.96875,-0.4375 0.421875,0 0.609375,0.328125 0.640625,0.390625 0.125,0.234375 0.171875,0.5 0.171875,0.90625 0,0.203125 0,0.609375 -0.21875,0.921875 -0.171875,0.25 -0.46875,0.421875 -0.8125,0.421875 -0.453125,0 -0.921875,-0.25 -1.09375,-0.71875 0.265625,0.015625 0.40625,-0.15625 0.40625,-0.34375 0,-0.296875 -0.265625,-0.34375 -0.359375,-0.34375 0,0 -0.34375,0 -0.34375,0.375 0,0.625 0.578125,1.25 1.40625,1.25 0.890625,0 1.671875,-0.65625 1.671875,-1.546875 0,-0.78125 -0.59375,-1.5 -1.453125,-1.5 -0.3125,0 -0.671875,0.0625 -0.984375,0.328125 z m 0,0"
               id="id-82734f1b-f6a6-4201-8dd5-98a7201f816e" />
          </g>
        </g>
      </g>
      <g
         id="g3002"
         transform="translate(-9.8285014,-17.808909)">
        <g
           transform="matrix(0.375579,0,0,0.375579,100.879,149.03185)"
           id="g2757"
           style="fill:#000000;fill-opacity:1">
          <path
             style="stroke:none;stroke-width:0"
             d="M 0.453125,1.21875 C 0.375,1.5625 0.34375,1.625 -0.09375,1.625 c -0.109375,0 -0.21875,0 -0.21875,0.1875 0,0.078125 0.046875,0.125 0.125,0.125 0.265625,0 0.5625,-0.03125 0.828125,-0.03125 0.34375,0 0.671875,0.03125 1,0.03125 0.046875,0 0.171875,0 0.171875,-0.203125 C 1.8125,1.625 1.71875,1.625 1.578125,1.625 c -0.5,0 -0.5,-0.0625 -0.5,-0.15625 0,-0.125 0.421875,-1.75 0.484375,-2 0.125,0.296875 0.40625,0.640625 0.921875,0.640625 1.15625,0 2.40625,-1.453125 2.40625,-2.921875 0,-0.9375 -0.578125,-1.59375 -1.328125,-1.59375 -0.5,0 -0.984375,0.359375 -1.3125,0.75 -0.09375,-0.546875 -0.53125,-0.75 -0.890625,-0.75 -0.46875,0 -0.65625,0.390625 -0.734375,0.5625 C 0.4375,-3.5 0.3125,-2.90625 0.3125,-2.875 c 0,0.109375 0.09375,0.109375 0.109375,0.109375 0.109375,0 0.109375,-0.015625 0.171875,-0.234375 0.171875,-0.703125 0.375,-1.1875 0.734375,-1.1875 0.171875,0 0.3125,0.078125 0.3125,0.453125 0,0.234375 -0.03125,0.34375 -0.078125,0.515625 z m 1.75,-4.328125 C 2.265625,-3.375 2.546875,-3.65625 2.71875,-3.8125 c 0.359375,-0.296875 0.640625,-0.375 0.8125,-0.375 0.390625,0 0.640625,0.34375 0.640625,0.9375 0,0.59375 -0.328125,1.734375 -0.515625,2.109375 -0.34375,0.703125 -0.8125,1.03125 -1.1875,1.03125 C 1.8125,-0.109375 1.6875,-0.9375 1.6875,-1 c 0,-0.015625 0,-0.03125 0.03125,-0.15625 z m 0,0"
             id="id-2714a15a-2fff-404e-8c96-3c6da969ab9a" />
        </g>
        <g
           transform="matrix(0.375579,0,0,0.375579,102.76178,149.59297)"
           id="g2761"
           style="fill:#000000;fill-opacity:1">
          <path
             style="stroke:none;stroke-width:0"
             d="m 1.046875,-2.28125 c 0,-0.5625 0.046875,-1.078125 0.3125,-1.515625 0.234375,-0.375 0.609375,-0.625 1.0625,-0.625 0.203125,0 0.484375,0.046875 0.625,0.234375 C 2.875,-4.171875 2.71875,-4.046875 2.71875,-3.84375 c 0,0.171875 0.125,0.328125 0.328125,0.328125 0.21875,0 0.34375,-0.140625 0.34375,-0.34375 0,-0.40625 -0.296875,-0.765625 -0.984375,-0.765625 -1,0 -2.03125,0.921875 -2.03125,2.421875 0,1.796875 0.84375,2.34375 1.625,2.34375 0.84375,0 1.578125,-0.65625 1.578125,-1.5625 0,-0.890625 -0.703125,-1.546875 -1.515625,-1.546875 -0.5625,0 -0.859375,0.375 -1.015625,0.6875 z M 2,-0.078125 c -0.359375,0 -0.625,-0.203125 -0.78125,-0.515625 C 1.125,-0.796875 1.0625,-1.15625 1.0625,-1.5625 c 0,-0.6875 0.40625,-1.203125 0.96875,-1.203125 0.3125,0 0.53125,0.125 0.703125,0.375 0.171875,0.265625 0.171875,0.5625 0.171875,0.96875 0,0.390625 0,0.6875 -0.1875,0.96875 -0.15625,0.234375 -0.390625,0.375 -0.71875,0.375 z m 0,0"
             id="id-1f7e3f47-58a9-4ed0-b4af-2d63673ab486" />
        </g>
      </g>
    </g>
  </g>
</svg>
