<?xml version="1.0" encoding="UTF-8" standalone="no"?>
<!-- Created with Inkscape (http://www.inkscape.org/) -->

<svg
   width="38.001179mm"
   height="26.926378mm"
   viewBox="0 0 38.001179 26.926378"
   version="1.1"
   id="svg5"
   sodipodi:docname="incidence.svg"
   inkscape:version="1.1 (c4e8f9e, 2021-05-24)"
   xmlns:inkscape="http://www.inkscape.org/namespaces/inkscape"
   xmlns:sodipodi="http://sodipodi.sourceforge.net/DTD/sodipodi-0.dtd"
   xmlns="http://www.w3.org/2000/svg"
   xmlns:svg="http://www.w3.org/2000/svg">
  <sodipodi:namedview
     id="namedview7"
     pagecolor="#ffffff"
     bordercolor="#666666"
     borderopacity="1.0"
     inkscape:pageshadow="2"
     inkscape:pageopacity="0.0"
     inkscape:pagecheckerboard="0"
     inkscape:document-units="mm"
     showgrid="false"
     inkscape:zoom="1.5748204"
     inkscape:cx="133.66603"
     inkscape:cy="130.49107"
     inkscape:window-width="1312"
     inkscape:window-height="847"
     inkscape:window-x="2175"
     inkscape:window-y="136"
     inkscape:window-maximized="0"
     inkscape:current-layer="layer1"
     inkscape:snap-global="false">
    <inkscape:grid
       type="xygrid"
       id="grid824"
       originx="-67.271749"
       originy="-101.961" />
  </sodipodi:namedview>
  <defs
     id="defs2">
    <marker
       style="overflow:visible"
       id="DotL"
       refX="0"
       refY="0"
       orient="auto"
       inkscape:stockid="DotL"
       inkscape:isstock="true">
      <path
         transform="matrix(0.8,0,0,0.8,5.92,0.8)"
         style="fill:context-stroke;fill-rule:evenodd;stroke:context-stroke;stroke-width:1pt"
         d="m -2.5,-1 c 0,2.76 -2.24,5 -5,5 -2.76,0 -5,-2.24 -5,-5 0,-2.76 2.24,-5 5,-5 2.76,0 5,2.24 5,5 z"
         id="path1004" />
    </marker>
    <defs
       id="id-1aa4388f-91ff-4a94-a89f-d23856497009">
      <g
         id="id-1199f76c-95e4-42c8-995f-90c3abc10e4b">
        <symbol
           overflow="visible"
           id="id-d2b0c790-5bb3-418f-92a8-23425adf1a49">
          <path
             style="stroke:none;stroke-width:0"
             d=""
             id="id-77d57aaa-4785-4cbb-985f-85d5c5000ab4" />
        </symbol>
        <symbol
           overflow="visible"
           id="id-7760cb50-7862-4f15-93ae-eba01e2ce2e4">
          <path
             style="stroke:none;stroke-width:0"
             d="m 0.875,-0.59375 c -0.03125,0.15625 -0.09375,0.390625 -0.09375,0.4375 0,0.171875 0.140625,0.265625 0.296875,0.265625 0.125,0 0.296875,-0.078125 0.375,-0.28125 0,-0.015625 0.125,-0.484375 0.1875,-0.734375 l 0.21875,-0.890625 C 1.90625,-2.03125 1.96875,-2.25 2.03125,-2.46875 c 0.03125,-0.171875 0.109375,-0.46875 0.125,-0.5 0.140625,-0.3125 0.671875,-1.21875 1.625,-1.21875 0.453125,0 0.53125,0.375 0.53125,0.703125 0,0.609375 -0.484375,1.890625 -0.640625,2.3125 C 3.578125,-0.9375 3.5625,-0.8125 3.5625,-0.703125 c 0,0.46875 0.359375,0.8125 0.828125,0.8125 0.9375,0 1.296875,-1.453125 1.296875,-1.53125 0,-0.109375 -0.078125,-0.109375 -0.109375,-0.109375 -0.109375,0 -0.109375,0.03125 -0.15625,0.1875 -0.203125,0.671875 -0.53125,1.234375 -1.015625,1.234375 -0.171875,0 -0.234375,-0.09375 -0.234375,-0.328125 0,-0.25 0.078125,-0.484375 0.171875,-0.703125 0.1875,-0.53125 0.609375,-1.625 0.609375,-2.203125 0,-0.65625 -0.421875,-1.0625 -1.140625,-1.0625 -0.90625,0 -1.390625,0.640625 -1.5625,0.875 -0.046875,-0.5625 -0.453125,-0.875 -0.921875,-0.875 -0.453125,0 -0.640625,0.390625 -0.734375,0.5625 C 0.421875,-3.5 0.296875,-2.90625 0.296875,-2.875 c 0,0.109375 0.09375,0.109375 0.109375,0.109375 0.109375,0 0.109375,-0.015625 0.171875,-0.234375 0.171875,-0.703125 0.375,-1.1875 0.734375,-1.1875 0.1875,0 0.296875,0.125 0.296875,0.453125 0,0.21875 -0.03125,0.328125 -0.15625,0.84375 z m 0,0"
             id="id-a8a65e0f-5929-43f1-ac43-18043fad96d0" />
        </symbol>
        <symbol
           overflow="visible"
           id="id-60b3ba4e-f6bf-4027-8763-57ba98b0dbc0">
          <path
             style="stroke:none;stroke-width:0"
             d="m 1.859375,-2.296875 c 0.296875,0 1.03125,-0.03125 1.53125,-0.234375 0.703125,-0.296875 0.75,-0.890625 0.75,-1.03125 0,-0.4375 -0.375,-0.84375 -1.0625,-0.84375 -1.109375,0 -2.625,0.96875 -2.625,2.71875 0,1.015625 0.59375,1.796875 1.578125,1.796875 1.421875,0 2.25,-1.0625 2.25,-1.171875 0,-0.0625 -0.046875,-0.140625 -0.109375,-0.140625 -0.0625,0 -0.078125,0.03125 -0.140625,0.109375 -0.78125,0.984375 -1.875,0.984375 -1.984375,0.984375 -0.78125,0 -0.875,-0.84375 -0.875,-1.15625 0,-0.125 0.015625,-0.421875 0.15625,-1.03125 z m -0.46875,-0.21875 C 1.78125,-4.03125 2.8125,-4.1875 3.078125,-4.1875 c 0.453125,0 0.734375,0.296875 0.734375,0.625 0,1.046875 -1.59375,1.046875 -2.015625,1.046875 z m 0,0"
             id="id-0961c184-8b91-40c2-8fc7-808577c336e7" />
        </symbol>
        <symbol
           overflow="visible"
           id="id-981b134b-4ce1-4803-aa2f-6187c4720c0a">
          <path
             style="stroke:none;stroke-width:0"
             d=""
             id="id-9a61d492-8c6d-4b5e-8577-6d745d92f618" />
        </symbol>
        <symbol
           overflow="visible"
           id="id-2e25bbde-9d12-4486-ad00-ca7fdebe8de3">
          <path
             style="stroke:none;stroke-width:0"
             d="m 2.328125,-4.4375 c 0,-0.1875 0,-0.1875 -0.203125,-0.1875 -0.453125,0.4375 -1.078125,0.4375 -1.359375,0.4375 v 0.25 c 0.15625,0 0.625,0 1,-0.1875 v 3.546875 c 0,0.234375 0,0.328125 -0.6875,0.328125 H 0.8125 V 0 c 0.125,0 0.984375,-0.03125 1.234375,-0.03125 0.21875,0 1.09375,0.03125 1.25,0.03125 V -0.25 H 3.03125 c -0.703125,0 -0.703125,-0.09375 -0.703125,-0.328125 z m 0,0"
             id="id-d75e1851-0f80-4d8e-85b7-5cc6bbb83f6e" />
        </symbol>
        <symbol
           overflow="visible"
           id="id-c9fa6d14-9daf-4bc6-9b85-65c7e5647d55">
          <path
             style="stroke:none;stroke-width:0"
             d="M 3.515625,-1.265625 H 3.28125 c -0.015625,0.15625 -0.09375,0.5625 -0.1875,0.625 C 3.046875,-0.59375 2.515625,-0.59375 2.40625,-0.59375 H 1.125 c 0.734375,-0.640625 0.984375,-0.84375 1.390625,-1.171875 0.515625,-0.40625 1,-0.84375 1,-1.5 0,-0.84375 -0.734375,-1.359375 -1.625,-1.359375 -0.859375,0 -1.453125,0.609375 -1.453125,1.25 0,0.34375 0.296875,0.390625 0.375,0.390625 0.15625,0 0.359375,-0.125 0.359375,-0.375 0,-0.125 -0.046875,-0.375 -0.40625,-0.375 C 0.984375,-4.21875 1.453125,-4.375 1.78125,-4.375 c 0.703125,0 1.0625,0.546875 1.0625,1.109375 0,0.609375 -0.4375,1.078125 -0.65625,1.328125 L 0.515625,-0.265625 C 0.4375,-0.203125 0.4375,-0.1875 0.4375,0 h 2.875 z m 0,0"
             id="id-b6b8c7ff-0505-4b39-a83a-142179303f0b" />
        </symbol>
        <symbol
           overflow="visible"
           id="id-7a2d7a63-29c4-439b-b91d-991e7f705f99">
          <path
             style="stroke:none;stroke-width:0"
             d="m 1.90625,-2.328125 c 0.546875,0 0.9375,0.375 0.9375,1.125 0,0.859375 -0.515625,1.125 -0.90625,1.125 -0.28125,0 -0.90625,-0.078125 -1.1875,-0.5 0.328125,0 0.40625,-0.234375 0.40625,-0.390625 0,-0.21875 -0.171875,-0.375 -0.390625,-0.375 -0.1875,0 -0.390625,0.125 -0.390625,0.40625 0,0.65625 0.71875,1.078125 1.5625,1.078125 0.96875,0 1.640625,-0.65625 1.640625,-1.34375 0,-0.546875 -0.4375,-1.09375 -1.203125,-1.25 0.71875,-0.265625 0.984375,-0.78125 0.984375,-1.21875 0,-0.546875 -0.625,-0.953125 -1.40625,-0.953125 -0.765625,0 -1.359375,0.375 -1.359375,0.9375 0,0.234375 0.15625,0.359375 0.359375,0.359375 0.21875,0 0.359375,-0.15625 0.359375,-0.34375 0,-0.203125 -0.140625,-0.359375 -0.359375,-0.375 0.25,-0.296875 0.71875,-0.375 0.984375,-0.375 0.3125,0 0.75,0.15625 0.75,0.75 0,0.296875 -0.09375,0.625 -0.28125,0.828125 -0.21875,0.265625 -0.421875,0.28125 -0.765625,0.3125 -0.171875,0.015625 -0.1875,0.015625 -0.21875,0.015625 -0.015625,0 -0.078125,0.015625 -0.078125,0.09375 0,0.09375 0.0625,0.09375 0.1875,0.09375 z m 0,0"
             id="id-590ae46f-bf06-4aec-8bbf-e1d3400c1c26" />
        </symbol>
        <symbol
           overflow="visible"
           id="id-6f58639d-9a3e-449d-8fd9-08a896d19455">
          <path
             style="stroke:none;stroke-width:0"
             d="m 3.6875,-1.140625 v -0.25 H 2.90625 V -4.5 c 0,-0.140625 0,-0.203125 -0.140625,-0.203125 -0.09375,0 -0.125,0 -0.1875,0.109375 l -2.3125,3.203125 v 0.25 h 2.0625 v 0.5625 c 0,0.25 0,0.328125 -0.578125,0.328125 H 1.5625 V 0 C 1.921875,-0.015625 2.359375,-0.03125 2.609375,-0.03125 2.875,-0.03125 3.3125,-0.015625 3.671875,0 v -0.25 h -0.1875 C 2.90625,-0.25 2.90625,-0.328125 2.90625,-0.578125 v -0.5625 z M 2.375,-3.9375 v 2.546875 H 0.53125 Z m 0,0"
             id="id-6a6bdae0-3ef3-4526-9e31-364fddf19c4e" />
        </symbol>
      </g>
    </defs>
  </defs>
  <g
     inkscape:label="Layer 1"
     inkscape:groupmode="layer"
     id="layer1"
     transform="translate(-67.271745,-101.961)">
    <g
       id="g2466">
      <g
         id="path861"
         style="fill:#0084c8">
        <path
           style="color:#000000;fill:#2d2d2d;-inkscape-stroke:none"
           d="m 84.666016,116.23438 v 0.36523 h 15.875004 v -0.36523 z"
           id="path1263" />
        <g
           id="g1251"
           style="fill:#0084c8">
          <g
             id="path1253"
             style="fill:#0084c8">
            <path
               style="color:#000000;fill:#0084c8;fill-rule:evenodd;stroke-width:0.292pt;-inkscape-stroke:none"
               d="m 101.97247,116.41667 c 0,0.80592 -0.65408,1.46 -1.46,1.46 -0.80592,0 -1.46,-0.65408 -1.46,-1.46 0,-0.80592 0.65408,-1.46 1.46,-1.46 0.80592,0 1.46,0.65408 1.46,1.46 z"
               id="path1257" />
            <path
               style="color:#000000;fill:#2d2d2d;fill-rule:evenodd;-inkscape-stroke:none"
               d="m 100.51172,114.76172 c -0.911247,0 -1.654298,0.74305 -1.654298,1.6543 0,0.91124 0.743051,1.65625 1.654298,1.65625 0.91124,0 1.65625,-0.74501 1.65625,-1.65625 0,-0.91125 -0.74501,-1.6543 -1.65625,-1.6543 z m 0,0.38867 c 0.70059,0 1.26562,0.56503 1.26562,1.26563 0,0.70059 -0.56503,1.26562 -1.26562,1.26562 -0.700594,0 -1.263673,-0.56503 -1.263673,-1.26562 0,-0.7006 0.563079,-1.26563 1.263673,-1.26563 z"
               id="path1259" />
          </g>
        </g>
      </g>
      <g
         id="path859"
         style="fill:#0084c8">
        <path
           style="color:#000000;fill:#2d2d2d;-inkscape-stroke:none"
           d="m 74.212891,105.70508 -0.257813,0.25781 10.453125,10.45313 -10.453125,10.45507 0.257813,0.25782 10.710937,-10.71289 z"
           id="path1245" />
        <g
           id="g1213"
           style="fill:#0084c8">
          <g
             id="path1235"
             style="fill:#0084c8">
            <path
               style="color:#000000;fill:#0084c8;fill-rule:evenodd;stroke-width:0.292pt;-inkscape-stroke:none"
               d="m 73.071603,128.01173 c -0.569871,-0.56987 -0.569871,-1.49488 10e-7,-2.06475 0.569871,-0.56988 1.49488,-0.56987 2.064752,0 0.569871,0.56987 0.569871,1.49488 -1e-6,2.06475 -0.569871,0.56987 -1.49488,0.56987 -2.064752,0 z"
               id="path1239" />
            <path
               style="color:#000000;fill:#2d2d2d;fill-rule:evenodd;-inkscape-stroke:none"
               d="m 74.103516,125.32617 c -0.423926,0 -0.847748,0.16024 -1.169922,0.48242 -0.644349,0.64435 -0.644348,1.6955 0,2.33985 0.644349,0.64434 1.695496,0.64434 2.339843,0 0.64435,-0.64435 0.644349,-1.6955 0,-2.33985 -0.322173,-0.32217 -0.745996,-0.48242 -1.169921,-0.48242 z m 0,0.38672 c 0.323513,0 0.646833,0.1234 0.894531,0.37109 0.495393,0.4954 0.495394,1.29563 0,1.79102 -0.495393,0.49539 -1.293669,0.49539 -1.789063,0 -0.495392,-0.49539 -0.495393,-1.29562 0,-1.79102 0.247697,-0.2477 0.571018,-0.37109 0.894532,-0.37109 z"
               id="path1241" />
          </g>
          <g
             id="path1225"
             style="fill:#0084c8">
            <path
               style="color:#000000;fill:#0084c8;fill-rule:evenodd;stroke-width:0.292pt;-inkscape-stroke:none"
               d="m 84.666666,117.84747 c -0.80592,0 -1.46,-0.65408 -1.46,-1.46 0,-0.80592 0.65408,-1.46 1.46,-1.46 0.80592,0 1.46,0.65408 1.46,1.46 0,0.80592 -0.65408,1.46 -1.46,1.46 z"
               id="path1229" />
            <path
               style="color:#000000;fill:#2d2d2d;fill-rule:evenodd;-inkscape-stroke:none"
               d="m 84.666016,114.73242 c -0.911246,0 -1.654297,0.74305 -1.654297,1.6543 0,0.91124 0.743051,1.65625 1.654297,1.65625 0.911246,0 1.65625,-0.74501 1.65625,-1.65625 0,-0.91125 -0.745004,-1.6543 -1.65625,-1.6543 z m 0,0.39063 c 0.700592,0 1.265625,0.56308 1.265625,1.26367 0,0.70059 -0.565033,1.26562 -1.265625,1.26562 -0.700593,0 -1.265625,-0.56503 -1.265625,-1.26562 0,-0.70059 0.565032,-1.26367 1.265625,-1.26367 z"
               id="path1231" />
          </g>
          <g
             id="path1215"
             style="fill:#0084c8">
            <path
               style="color:#000000;fill:#0084c8;fill-rule:evenodd;stroke-width:0.292pt;-inkscape-stroke:none"
               d="m 75.09506,106.84506 c -0.569872,0.56987 -1.49488,0.56987 -2.064752,0 -0.569871,-0.56987 -0.569871,-1.49488 10e-7,-2.06475 0.569872,-0.56988 1.49488,-0.56987 2.064752,0 0.569871,0.56987 0.569871,1.49488 -10e-7,2.06475 z"
               id="path1219" />
            <path
               style="color:#000000;fill:#2d2d2d;fill-rule:evenodd;-inkscape-stroke:none"
               d="m 74.0625,104.16016 c -0.423926,0 -0.847747,0.16024 -1.169922,0.48242 -0.644349,0.64435 -0.644348,1.69549 0,2.33984 0.644349,0.64435 1.695495,0.64435 2.339844,0 0.644349,-0.64435 0.644348,-1.69549 0,-2.33984 -0.322174,-0.32217 -0.745996,-0.48242 -1.169922,-0.48242 z m 0,0.38672 c 0.323514,0 0.646834,0.12339 0.894531,0.37109 0.495393,0.49539 0.495394,1.29367 0,1.78906 -0.495394,0.49539 -1.293668,0.49539 -1.789062,0 -0.495393,-0.49539 -0.495394,-1.29367 0,-1.78906 0.247697,-0.2477 0.571017,-0.3711 0.894531,-0.37109 z"
               id="path1221" />
          </g>
        </g>
      </g>
      <g
         id="g2012"
         transform="translate(-22.540108,-33.411906)">
        <g
           style="fill:#000000;fill-opacity:1"
           id="id-b17d9ea0-c0af-4b98-b76e-b54876e0fa51"
           transform="matrix(0.375579,0,0,0.375579,33.847249,86.412897)">
          <g
             transform="translate(148.712,134.765)"
             id="g1762">
            <path
               style="stroke:none;stroke-width:0"
               d="m 0.875,-0.59375 c -0.03125,0.15625 -0.09375,0.390625 -0.09375,0.4375 0,0.171875 0.140625,0.265625 0.296875,0.265625 0.125,0 0.296875,-0.078125 0.375,-0.28125 0,-0.015625 0.125,-0.484375 0.1875,-0.734375 l 0.21875,-0.890625 C 1.90625,-2.03125 1.96875,-2.25 2.03125,-2.46875 c 0.03125,-0.171875 0.109375,-0.46875 0.125,-0.5 0.140625,-0.3125 0.671875,-1.21875 1.625,-1.21875 0.453125,0 0.53125,0.375 0.53125,0.703125 0,0.609375 -0.484375,1.890625 -0.640625,2.3125 C 3.578125,-0.9375 3.5625,-0.8125 3.5625,-0.703125 c 0,0.46875 0.359375,0.8125 0.828125,0.8125 0.9375,0 1.296875,-1.453125 1.296875,-1.53125 0,-0.109375 -0.078125,-0.109375 -0.109375,-0.109375 -0.109375,0 -0.109375,0.03125 -0.15625,0.1875 -0.203125,0.671875 -0.53125,1.234375 -1.015625,1.234375 -0.171875,0 -0.234375,-0.09375 -0.234375,-0.328125 0,-0.25 0.078125,-0.484375 0.171875,-0.703125 0.1875,-0.53125 0.609375,-1.625 0.609375,-2.203125 0,-0.65625 -0.421875,-1.0625 -1.140625,-1.0625 -0.90625,0 -1.390625,0.640625 -1.5625,0.875 -0.046875,-0.5625 -0.453125,-0.875 -0.921875,-0.875 -0.453125,0 -0.640625,0.390625 -0.734375,0.5625 C 0.421875,-3.5 0.296875,-2.90625 0.296875,-2.875 c 0,0.109375 0.09375,0.109375 0.109375,0.109375 0.109375,0 0.109375,-0.015625 0.171875,-0.234375 0.171875,-0.703125 0.375,-1.1875 0.734375,-1.1875 0.1875,0 0.296875,0.125 0.296875,0.453125 0,0.21875 -0.03125,0.328125 -0.15625,0.84375 z m 0,0"
               id="id-2ba057a1-48b7-4a8d-add6-42697d590699" />
          </g>
        </g>
        <g
           style="fill:#000000;fill-opacity:1"
           id="id-f008e02b-7f58-44cd-a043-5508cee32e9c"
           transform="matrix(0.375579,0,0,0.375579,33.847249,86.412897)">
          <g
             transform="translate(154.692,136.259)"
             id="g1766">
            <path
               style="stroke:none;stroke-width:0"
               d="m 2.328125,-4.4375 c 0,-0.1875 0,-0.1875 -0.203125,-0.1875 -0.453125,0.4375 -1.078125,0.4375 -1.359375,0.4375 v 0.25 c 0.15625,0 0.625,0 1,-0.1875 v 3.546875 c 0,0.234375 0,0.328125 -0.6875,0.328125 H 0.8125 V 0 c 0.125,0 0.984375,-0.03125 1.234375,-0.03125 0.21875,0 1.09375,0.03125 1.25,0.03125 V -0.25 H 3.03125 c -0.703125,0 -0.703125,-0.09375 -0.703125,-0.328125 z m 0,0"
               id="id-85f6d4ab-bd95-4254-95ef-21cac639ddfa" />
          </g>
        </g>
      </g>
      <g
         id="g2020"
         transform="translate(-25.67854,-8.7015376)">
        <g
           style="fill:#000000;fill-opacity:1"
           id="id-d5a7868a-2abe-4b19-b3d8-b37e847152d1"
           transform="matrix(0.375579,0,0,0.375579,33.847249,86.412897)">
          <g
             transform="translate(159.162,134.765)"
             id="g1770">
            <path
               style="stroke:none;stroke-width:0"
               d="m 0.875,-0.59375 c -0.03125,0.15625 -0.09375,0.390625 -0.09375,0.4375 0,0.171875 0.140625,0.265625 0.296875,0.265625 0.125,0 0.296875,-0.078125 0.375,-0.28125 0,-0.015625 0.125,-0.484375 0.1875,-0.734375 l 0.21875,-0.890625 C 1.90625,-2.03125 1.96875,-2.25 2.03125,-2.46875 c 0.03125,-0.171875 0.109375,-0.46875 0.125,-0.5 0.140625,-0.3125 0.671875,-1.21875 1.625,-1.21875 0.453125,0 0.53125,0.375 0.53125,0.703125 0,0.609375 -0.484375,1.890625 -0.640625,2.3125 C 3.578125,-0.9375 3.5625,-0.8125 3.5625,-0.703125 c 0,0.46875 0.359375,0.8125 0.828125,0.8125 0.9375,0 1.296875,-1.453125 1.296875,-1.53125 0,-0.109375 -0.078125,-0.109375 -0.109375,-0.109375 -0.109375,0 -0.109375,0.03125 -0.15625,0.1875 -0.203125,0.671875 -0.53125,1.234375 -1.015625,1.234375 -0.171875,0 -0.234375,-0.09375 -0.234375,-0.328125 0,-0.25 0.078125,-0.484375 0.171875,-0.703125 0.1875,-0.53125 0.609375,-1.625 0.609375,-2.203125 0,-0.65625 -0.421875,-1.0625 -1.140625,-1.0625 -0.90625,0 -1.390625,0.640625 -1.5625,0.875 -0.046875,-0.5625 -0.453125,-0.875 -0.921875,-0.875 -0.453125,0 -0.640625,0.390625 -0.734375,0.5625 C 0.421875,-3.5 0.296875,-2.90625 0.296875,-2.875 c 0,0.109375 0.09375,0.109375 0.109375,0.109375 0.109375,0 0.109375,-0.015625 0.171875,-0.234375 0.171875,-0.703125 0.375,-1.1875 0.734375,-1.1875 0.1875,0 0.296875,0.125 0.296875,0.453125 0,0.21875 -0.03125,0.328125 -0.15625,0.84375 z m 0,0"
               id="id-4ef5c58a-ef81-4d85-bbf5-04fc7ca97d7d" />
          </g>
        </g>
        <g
           style="fill:#000000;fill-opacity:1"
           id="id-8880321b-6e8e-4dc5-93a3-bc37fd90df6c"
           transform="matrix(0.375579,0,0,0.375579,33.847249,86.412897)">
          <g
             transform="translate(165.142,136.259)"
             id="g1774">
            <path
               style="stroke:none;stroke-width:0"
               d="M 3.515625,-1.265625 H 3.28125 c -0.015625,0.15625 -0.09375,0.5625 -0.1875,0.625 C 3.046875,-0.59375 2.515625,-0.59375 2.40625,-0.59375 H 1.125 c 0.734375,-0.640625 0.984375,-0.84375 1.390625,-1.171875 0.515625,-0.40625 1,-0.84375 1,-1.5 0,-0.84375 -0.734375,-1.359375 -1.625,-1.359375 -0.859375,0 -1.453125,0.609375 -1.453125,1.25 0,0.34375 0.296875,0.390625 0.375,0.390625 0.15625,0 0.359375,-0.125 0.359375,-0.375 0,-0.125 -0.046875,-0.375 -0.40625,-0.375 C 0.984375,-4.21875 1.453125,-4.375 1.78125,-4.375 c 0.703125,0 1.0625,0.546875 1.0625,1.109375 0,0.609375 -0.4375,1.078125 -0.65625,1.328125 L 0.515625,-0.265625 C 0.4375,-0.203125 0.4375,-0.1875 0.4375,0 h 2.875 z m 0,0"
               id="id-0ed1500a-741a-4cd9-ac84-b4c0106480e7" />
          </g>
        </g>
      </g>
      <g
         id="g2028"
         transform="translate(-13.104669,-16.46484)">
        <g
           style="fill:#000000;fill-opacity:1"
           id="id-03aab860-d106-44b6-bd20-32aa535796bc"
           transform="matrix(0.375579,0,0,0.375579,33.847249,86.412897)">
          <g
             transform="translate(169.611,134.765)"
             id="g1778">
            <path
               style="stroke:none;stroke-width:0"
               d="m 0.875,-0.59375 c -0.03125,0.15625 -0.09375,0.390625 -0.09375,0.4375 0,0.171875 0.140625,0.265625 0.296875,0.265625 0.125,0 0.296875,-0.078125 0.375,-0.28125 0,-0.015625 0.125,-0.484375 0.1875,-0.734375 l 0.21875,-0.890625 C 1.90625,-2.03125 1.96875,-2.25 2.03125,-2.46875 c 0.03125,-0.171875 0.109375,-0.46875 0.125,-0.5 0.140625,-0.3125 0.671875,-1.21875 1.625,-1.21875 0.453125,0 0.53125,0.375 0.53125,0.703125 0,0.609375 -0.484375,1.890625 -0.640625,2.3125 C 3.578125,-0.9375 3.5625,-0.8125 3.5625,-0.703125 c 0,0.46875 0.359375,0.8125 0.828125,0.8125 0.9375,0 1.296875,-1.453125 1.296875,-1.53125 0,-0.109375 -0.078125,-0.109375 -0.109375,-0.109375 -0.109375,0 -0.109375,0.03125 -0.15625,0.1875 -0.203125,0.671875 -0.53125,1.234375 -1.015625,1.234375 -0.171875,0 -0.234375,-0.09375 -0.234375,-0.328125 0,-0.25 0.078125,-0.484375 0.171875,-0.703125 0.1875,-0.53125 0.609375,-1.625 0.609375,-2.203125 0,-0.65625 -0.421875,-1.0625 -1.140625,-1.0625 -0.90625,0 -1.390625,0.640625 -1.5625,0.875 -0.046875,-0.5625 -0.453125,-0.875 -0.921875,-0.875 -0.453125,0 -0.640625,0.390625 -0.734375,0.5625 C 0.421875,-3.5 0.296875,-2.90625 0.296875,-2.875 c 0,0.109375 0.09375,0.109375 0.109375,0.109375 0.109375,0 0.109375,-0.015625 0.171875,-0.234375 0.171875,-0.703125 0.375,-1.1875 0.734375,-1.1875 0.1875,0 0.296875,0.125 0.296875,0.453125 0,0.21875 -0.03125,0.328125 -0.15625,0.84375 z m 0,0"
               id="id-fd1a2be6-2305-449a-8b57-96a237a49b25" />
          </g>
        </g>
        <g
           style="fill:#000000;fill-opacity:1"
           id="id-9694f629-6587-4b5a-b0b3-a5c89b42308f"
           transform="matrix(0.375579,0,0,0.375579,33.847249,86.412897)">
          <g
             transform="translate(175.591,136.259)"
             id="g1782">
            <path
               style="stroke:none;stroke-width:0"
               d="m 1.90625,-2.328125 c 0.546875,0 0.9375,0.375 0.9375,1.125 0,0.859375 -0.515625,1.125 -0.90625,1.125 -0.28125,0 -0.90625,-0.078125 -1.1875,-0.5 0.328125,0 0.40625,-0.234375 0.40625,-0.390625 0,-0.21875 -0.171875,-0.375 -0.390625,-0.375 -0.1875,0 -0.390625,0.125 -0.390625,0.40625 0,0.65625 0.71875,1.078125 1.5625,1.078125 0.96875,0 1.640625,-0.65625 1.640625,-1.34375 0,-0.546875 -0.4375,-1.09375 -1.203125,-1.25 0.71875,-0.265625 0.984375,-0.78125 0.984375,-1.21875 0,-0.546875 -0.625,-0.953125 -1.40625,-0.953125 -0.765625,0 -1.359375,0.375 -1.359375,0.9375 0,0.234375 0.15625,0.359375 0.359375,0.359375 0.21875,0 0.359375,-0.15625 0.359375,-0.34375 0,-0.203125 -0.140625,-0.359375 -0.359375,-0.375 0.25,-0.296875 0.71875,-0.375 0.984375,-0.375 0.3125,0 0.75,0.15625 0.75,0.75 0,0.296875 -0.09375,0.625 -0.28125,0.828125 -0.21875,0.265625 -0.421875,0.28125 -0.765625,0.3125 -0.171875,0.015625 -0.1875,0.015625 -0.21875,0.015625 -0.015625,0 -0.078125,0.015625 -0.078125,0.09375 0,0.09375 0.0625,0.09375 0.1875,0.09375 z m 0,0"
               id="id-b9e623c3-13cd-4b37-b898-a3c23c9226b5" />
          </g>
        </g>
      </g>
      <g
         id="g2036"
         transform="translate(0.16800857,-16.800857)">
        <g
           style="fill:#000000;fill-opacity:1"
           id="id-c908404d-17ac-4b6a-ba46-083e4cafa24e"
           transform="matrix(0.375579,0,0,0.375579,33.847249,86.412897)">
          <g
             transform="translate(180.06,134.765)"
             id="g1786">
            <path
               style="stroke:none;stroke-width:0"
               d="m 0.875,-0.59375 c -0.03125,0.15625 -0.09375,0.390625 -0.09375,0.4375 0,0.171875 0.140625,0.265625 0.296875,0.265625 0.125,0 0.296875,-0.078125 0.375,-0.28125 0,-0.015625 0.125,-0.484375 0.1875,-0.734375 l 0.21875,-0.890625 C 1.90625,-2.03125 1.96875,-2.25 2.03125,-2.46875 c 0.03125,-0.171875 0.109375,-0.46875 0.125,-0.5 0.140625,-0.3125 0.671875,-1.21875 1.625,-1.21875 0.453125,0 0.53125,0.375 0.53125,0.703125 0,0.609375 -0.484375,1.890625 -0.640625,2.3125 C 3.578125,-0.9375 3.5625,-0.8125 3.5625,-0.703125 c 0,0.46875 0.359375,0.8125 0.828125,0.8125 0.9375,0 1.296875,-1.453125 1.296875,-1.53125 0,-0.109375 -0.078125,-0.109375 -0.109375,-0.109375 -0.109375,0 -0.109375,0.03125 -0.15625,0.1875 -0.203125,0.671875 -0.53125,1.234375 -1.015625,1.234375 -0.171875,0 -0.234375,-0.09375 -0.234375,-0.328125 0,-0.25 0.078125,-0.484375 0.171875,-0.703125 0.1875,-0.53125 0.609375,-1.625 0.609375,-2.203125 0,-0.65625 -0.421875,-1.0625 -1.140625,-1.0625 -0.90625,0 -1.390625,0.640625 -1.5625,0.875 -0.046875,-0.5625 -0.453125,-0.875 -0.921875,-0.875 -0.453125,0 -0.640625,0.390625 -0.734375,0.5625 C 0.421875,-3.5 0.296875,-2.90625 0.296875,-2.875 c 0,0.109375 0.09375,0.109375 0.109375,0.109375 0.109375,0 0.109375,-0.015625 0.171875,-0.234375 0.171875,-0.703125 0.375,-1.1875 0.734375,-1.1875 0.1875,0 0.296875,0.125 0.296875,0.453125 0,0.21875 -0.03125,0.328125 -0.15625,0.84375 z m 0,0"
               id="id-d254ec18-55bd-48aa-a2a8-64c438e2fa85" />
          </g>
        </g>
        <g
           style="fill:#000000;fill-opacity:1"
           id="id-31e29a95-8b59-480c-95fe-9946ade1a198"
           transform="matrix(0.375579,0,0,0.375579,33.847249,86.412897)">
          <g
             transform="translate(186.04,136.259)"
             id="g1790">
            <path
               style="stroke:none;stroke-width:0"
               d="m 3.6875,-1.140625 v -0.25 H 2.90625 V -4.5 c 0,-0.140625 0,-0.203125 -0.140625,-0.203125 -0.09375,0 -0.125,0 -0.1875,0.109375 l -2.3125,3.203125 v 0.25 h 2.0625 v 0.5625 c 0,0.25 0,0.328125 -0.578125,0.328125 H 1.5625 V 0 C 1.921875,-0.015625 2.359375,-0.03125 2.609375,-0.03125 2.875,-0.03125 3.3125,-0.015625 3.671875,0 v -0.25 h -0.1875 C 2.90625,-0.25 2.90625,-0.328125 2.90625,-0.578125 v -0.5625 z M 2.375,-3.9375 v 2.546875 H 0.53125 Z m 0,0"
               id="id-5a768433-0a60-477b-8df5-6ea196dd17e6" />
          </g>
        </g>
      </g>
      <g
         id="g2050"
         transform="translate(-25.537303,-27.04938)">
        <g
           id="g2041">
          <g
             style="fill:#000000;fill-opacity:1"
             id="id-3d8c902c-5fa6-4ff5-a866-4ef83d34f1a7"
             transform="matrix(0.375579,0,0,0.375579,33.847249,86.412897)">
            <g
               transform="translate(190.51,134.765)"
               id="g1794">
              <path
                 style="stroke:none;stroke-width:0"
                 d="m 1.859375,-2.296875 c 0.296875,0 1.03125,-0.03125 1.53125,-0.234375 0.703125,-0.296875 0.75,-0.890625 0.75,-1.03125 0,-0.4375 -0.375,-0.84375 -1.0625,-0.84375 -1.109375,0 -2.625,0.96875 -2.625,2.71875 0,1.015625 0.59375,1.796875 1.578125,1.796875 1.421875,0 2.25,-1.0625 2.25,-1.171875 0,-0.0625 -0.046875,-0.140625 -0.109375,-0.140625 -0.0625,0 -0.078125,0.03125 -0.140625,0.109375 -0.78125,0.984375 -1.875,0.984375 -1.984375,0.984375 -0.78125,0 -0.875,-0.84375 -0.875,-1.15625 0,-0.125 0.015625,-0.421875 0.15625,-1.03125 z m -0.46875,-0.21875 C 1.78125,-4.03125 2.8125,-4.1875 3.078125,-4.1875 c 0.453125,0 0.734375,0.296875 0.734375,0.625 0,1.046875 -1.59375,1.046875 -2.015625,1.046875 z m 0,0"
                 id="id-d73c8651-74f7-4735-a8a3-bab1c0323e9f" />
            </g>
          </g>
        </g>
        <g
           style="fill:#000000;fill-opacity:1"
           id="id-4728b104-ac65-47c1-aebc-97be60a95f49"
           transform="matrix(0.375579,0,0,0.375579,33.847249,86.412897)">
          <g
             transform="translate(195.148,136.259)"
             id="g1798">
            <path
               style="stroke:none;stroke-width:0"
               d="m 2.328125,-4.4375 c 0,-0.1875 0,-0.1875 -0.203125,-0.1875 -0.453125,0.4375 -1.078125,0.4375 -1.359375,0.4375 v 0.25 c 0.15625,0 0.625,0 1,-0.1875 v 3.546875 c 0,0.234375 0,0.328125 -0.6875,0.328125 H 0.8125 V 0 c 0.125,0 0.984375,-0.03125 1.234375,-0.03125 0.21875,0 1.09375,0.03125 1.25,0.03125 V -0.25 H 3.03125 c -0.703125,0 -0.703125,-0.09375 -0.703125,-0.328125 z m 0,0"
               id="id-243926eb-f9a8-4f97-9751-8f5fd0cfa8bd" />
          </g>
        </g>
      </g>
      <g
         id="g2058"
         transform="translate(-32.761671,-16.968866)">
        <g
           style="fill:#000000;fill-opacity:1"
           id="id-dfb5077f-e88f-45c4-8ea2-97b7c1dfe3d9"
           transform="matrix(0.375579,0,0,0.375579,33.847249,86.412897)">
          <g
             transform="translate(199.618,134.765)"
             id="g1802">
            <path
               style="stroke:none;stroke-width:0"
               d="m 1.859375,-2.296875 c 0.296875,0 1.03125,-0.03125 1.53125,-0.234375 0.703125,-0.296875 0.75,-0.890625 0.75,-1.03125 0,-0.4375 -0.375,-0.84375 -1.0625,-0.84375 -1.109375,0 -2.625,0.96875 -2.625,2.71875 0,1.015625 0.59375,1.796875 1.578125,1.796875 1.421875,0 2.25,-1.0625 2.25,-1.171875 0,-0.0625 -0.046875,-0.140625 -0.109375,-0.140625 -0.0625,0 -0.078125,0.03125 -0.140625,0.109375 -0.78125,0.984375 -1.875,0.984375 -1.984375,0.984375 -0.78125,0 -0.875,-0.84375 -0.875,-1.15625 0,-0.125 0.015625,-0.421875 0.15625,-1.03125 z m -0.46875,-0.21875 C 1.78125,-4.03125 2.8125,-4.1875 3.078125,-4.1875 c 0.453125,0 0.734375,0.296875 0.734375,0.625 0,1.046875 -1.59375,1.046875 -2.015625,1.046875 z m 0,0"
               id="id-31ec266d-c216-4dc6-934d-7d099c7b90d4" />
          </g>
        </g>
        <g
           style="fill:#000000;fill-opacity:1"
           id="id-3f199f94-dca5-4713-8468-0da83d78db8e"
           transform="matrix(0.375579,0,0,0.375579,33.847249,86.412897)">
          <g
             transform="translate(204.257,136.259)"
             id="g1806">
            <path
               style="stroke:none;stroke-width:0"
               d="M 3.515625,-1.265625 H 3.28125 c -0.015625,0.15625 -0.09375,0.5625 -0.1875,0.625 C 3.046875,-0.59375 2.515625,-0.59375 2.40625,-0.59375 H 1.125 c 0.734375,-0.640625 0.984375,-0.84375 1.390625,-1.171875 0.515625,-0.40625 1,-0.84375 1,-1.5 0,-0.84375 -0.734375,-1.359375 -1.625,-1.359375 -0.859375,0 -1.453125,0.609375 -1.453125,1.25 0,0.34375 0.296875,0.390625 0.375,0.390625 0.15625,0 0.359375,-0.125 0.359375,-0.375 0,-0.125 -0.046875,-0.375 -0.40625,-0.375 C 0.984375,-4.21875 1.453125,-4.375 1.78125,-4.375 c 0.703125,0 1.0625,0.546875 1.0625,1.109375 0,0.609375 -0.4375,1.078125 -0.65625,1.328125 L 0.515625,-0.265625 C 0.4375,-0.203125 0.4375,-0.1875 0.4375,0 h 2.875 z m 0,0"
               id="id-f857d345-8ec8-4a5d-99b2-49f5965897ea" />
          </g>
        </g>
      </g>
      <g
         id="g2066"
         transform="translate(-21.505097,-22.34514)">
        <g
           style="fill:#000000;fill-opacity:1"
           id="id-02d3c534-6f0e-4e97-adb4-b5b11398e6a9"
           transform="matrix(0.375579,0,0,0.375579,33.847249,86.412897)">
          <g
             transform="translate(208.726,134.765)"
             id="g1810">
            <path
               style="stroke:none;stroke-width:0"
               d="m 1.859375,-2.296875 c 0.296875,0 1.03125,-0.03125 1.53125,-0.234375 0.703125,-0.296875 0.75,-0.890625 0.75,-1.03125 0,-0.4375 -0.375,-0.84375 -1.0625,-0.84375 -1.109375,0 -2.625,0.96875 -2.625,2.71875 0,1.015625 0.59375,1.796875 1.578125,1.796875 1.421875,0 2.25,-1.0625 2.25,-1.171875 0,-0.0625 -0.046875,-0.140625 -0.109375,-0.140625 -0.0625,0 -0.078125,0.03125 -0.140625,0.109375 -0.78125,0.984375 -1.875,0.984375 -1.984375,0.984375 -0.78125,0 -0.875,-0.84375 -0.875,-1.15625 0,-0.125 0.015625,-0.421875 0.15625,-1.03125 z m -0.46875,-0.21875 C 1.78125,-4.03125 2.8125,-4.1875 3.078125,-4.1875 c 0.453125,0 0.734375,0.296875 0.734375,0.625 0,1.046875 -1.59375,1.046875 -2.015625,1.046875 z m 0,0"
               id="id-7d8ec2fc-c40c-4970-8c5a-2abbf4c0c54e" />
          </g>
        </g>
        <g
           style="fill:#000000;fill-opacity:1"
           id="id-de6ef1d7-86ae-466a-877e-40d7701d3e5b"
           transform="matrix(0.375579,0,0,0.375579,33.847249,86.412897)">
          <g
             transform="translate(213.365,136.259)"
             id="g1814">
            <path
               style="stroke:none;stroke-width:0"
               d="m 1.90625,-2.328125 c 0.546875,0 0.9375,0.375 0.9375,1.125 0,0.859375 -0.515625,1.125 -0.90625,1.125 -0.28125,0 -0.90625,-0.078125 -1.1875,-0.5 0.328125,0 0.40625,-0.234375 0.40625,-0.390625 0,-0.21875 -0.171875,-0.375 -0.390625,-0.375 -0.1875,0 -0.390625,0.125 -0.390625,0.40625 0,0.65625 0.71875,1.078125 1.5625,1.078125 0.96875,0 1.640625,-0.65625 1.640625,-1.34375 0,-0.546875 -0.4375,-1.09375 -1.203125,-1.25 0.71875,-0.265625 0.984375,-0.78125 0.984375,-1.21875 0,-0.546875 -0.625,-0.953125 -1.40625,-0.953125 -0.765625,0 -1.359375,0.375 -1.359375,0.9375 0,0.234375 0.15625,0.359375 0.359375,0.359375 0.21875,0 0.359375,-0.15625 0.359375,-0.34375 0,-0.203125 -0.140625,-0.359375 -0.359375,-0.375 0.25,-0.296875 0.71875,-0.375 0.984375,-0.375 0.3125,0 0.75,0.15625 0.75,0.75 0,0.296875 -0.09375,0.625 -0.28125,0.828125 -0.21875,0.265625 -0.421875,0.28125 -0.765625,0.3125 -0.171875,0.015625 -0.1875,0.015625 -0.21875,0.015625 -0.015625,0 -0.078125,0.015625 -0.078125,0.09375 0,0.09375 0.0625,0.09375 0.1875,0.09375 z m 0,0"
               id="id-6bab0e9c-f819-4793-9fde-8e72542ca457" />
          </g>
        </g>
      </g>
    </g>
  </g>
</svg>
