<?xml version="1.0" encoding="UTF-8" standalone="no"?>
<!-- Created with Inkscape (http://www.inkscape.org/) -->

<svg
   width="32.014584mm"
   height="32.014587mm"
   viewBox="0 0 32.014584 32.014587"
   version="1.1"
   id="svg5"
   sodipodi:docname="inverted_pair.svg"
   inkscape:version="1.1 (c4e8f9e, 2021-05-24)"
   xmlns:inkscape="http://www.inkscape.org/namespaces/inkscape"
   xmlns:sodipodi="http://sodipodi.sourceforge.net/DTD/sodipodi-0.dtd"
   xmlns="http://www.w3.org/2000/svg"
   xmlns:svg="http://www.w3.org/2000/svg"
   xmlns:ns8="http://www.iki.fi/pav/software/textext/">
  <sodipodi:namedview
     id="namedview7"
     pagecolor="#ffffff"
     bordercolor="#666666"
     borderopacity="1.0"
     inkscape:pageshadow="2"
     inkscape:pageopacity="0.0"
     inkscape:pagecheckerboard="0"
     inkscape:document-units="mm"
     showgrid="false"
     inkscape:zoom="1.1389857"
     inkscape:cx="221.68848"
     inkscape:cy="230.46822"
     inkscape:window-width="1312"
     inkscape:window-height="847"
     inkscape:window-x="228"
     inkscape:window-y="29"
     inkscape:window-maximized="0"
     inkscape:current-layer="layer1">
    <inkscape:grid
       type="xygrid"
       id="grid824"
       originx="-52.784368"
       originy="-116.28435" />
  </sodipodi:namedview>
  <defs
     id="defs2">
    <marker
       style="overflow:visible"
       id="TriangleOutL"
       refX="0"
       refY="0"
       orient="auto"
       inkscape:stockid="TriangleOutL"
       inkscape:isstock="true">
      <path
         transform="scale(0.8)"
         style="fill:context-stroke;fill-rule:evenodd;stroke:context-stroke;stroke-width:1pt"
         d="M 5.77,0 -2.88,5 V -5 Z"
         id="path8117" />
    </marker>
  </defs>
  <g
     inkscape:label="Layer 1"
     inkscape:groupmode="layer"
     id="layer1"
     transform="translate(-52.784369,-116.28435)">
    <g
       id="g1836">
      <rect
         style="font-variation-settings:normal;vector-effect:none;fill:none;fill-opacity:1;fill-rule:evenodd;stroke:#000000;stroke-width:0.264583;stroke-linecap:butt;stroke-linejoin:miter;stroke-miterlimit:4;stroke-dasharray:none;stroke-dashoffset:0;stroke-opacity:1;stop-color:#000000"
         id="rect1067"
         width="10.583333"
         height="10.583333"
         x="52.916664"
         y="116.41664" />
      <rect
         style="font-variation-settings:normal;vector-effect:none;fill:none;fill-opacity:1;fill-rule:evenodd;stroke:#000000;stroke-width:0.264583;stroke-linecap:butt;stroke-linejoin:miter;stroke-miterlimit:4;stroke-dasharray:none;stroke-dashoffset:0;stroke-opacity:1;stop-color:#000000"
         id="rect1069"
         width="10.583333"
         height="10.583333"
         x="63.5"
         y="116.41664" />
      <rect
         style="font-variation-settings:normal;vector-effect:none;fill:none;fill-opacity:1;fill-rule:evenodd;stroke:#000000;stroke-width:0.264583;stroke-linecap:butt;stroke-linejoin:miter;stroke-miterlimit:4;stroke-dasharray:none;stroke-dashoffset:0;stroke-opacity:1;stop-color:#000000"
         id="rect1071"
         width="10.583333"
         height="10.583333"
         x="74.083328"
         y="116.41664" />
      <rect
         style="font-variation-settings:normal;vector-effect:none;fill:none;fill-opacity:1;fill-rule:evenodd;stroke:#000000;stroke-width:0.264583;stroke-linecap:butt;stroke-linejoin:miter;stroke-miterlimit:4;stroke-dasharray:none;stroke-dashoffset:0;stroke-opacity:1;stop-color:#000000"
         id="rect1073"
         width="10.583333"
         height="10.583333"
         x="74.083328"
         y="126.99998" />
      <rect
         style="font-variation-settings:normal;vector-effect:none;fill:none;fill-opacity:1;fill-rule:evenodd;stroke:#000000;stroke-width:0.264583;stroke-linecap:butt;stroke-linejoin:miter;stroke-miterlimit:4;stroke-dasharray:none;stroke-dashoffset:0;stroke-opacity:1;stop-color:#000000"
         id="rect1075"
         width="10.583333"
         height="10.583333"
         x="63.499996"
         y="126.99998" />
      <rect
         style="font-variation-settings:normal;vector-effect:none;fill:none;fill-opacity:1;fill-rule:evenodd;stroke:#000000;stroke-width:0.264583;stroke-linecap:butt;stroke-linejoin:miter;stroke-miterlimit:4;stroke-dasharray:none;stroke-dashoffset:0;stroke-opacity:1;stop-color:#000000"
         id="rect1077"
         width="10.583333"
         height="10.583333"
         x="52.91666"
         y="126.99998" />
      <rect
         style="font-variation-settings:normal;vector-effect:none;fill:none;fill-opacity:1;fill-rule:evenodd;stroke:#000000;stroke-width:0.264583;stroke-linecap:butt;stroke-linejoin:miter;stroke-miterlimit:4;stroke-dasharray:none;stroke-dashoffset:0;stroke-opacity:1;stop-color:#000000"
         id="rect1079"
         width="10.583333"
         height="10.583333"
         x="52.91666"
         y="137.58331" />
      <rect
         style="font-variation-settings:normal;vector-effect:none;fill:none;fill-opacity:1;fill-rule:evenodd;stroke:#000000;stroke-width:0.264583;stroke-linecap:butt;stroke-linejoin:miter;stroke-miterlimit:4;stroke-dasharray:none;stroke-dashoffset:0;stroke-opacity:1;stop-color:#000000"
         id="rect1081"
         width="10.583333"
         height="10.583333"
         x="63.499996"
         y="137.58331" />
      <rect
         style="font-variation-settings:normal;vector-effect:none;fill:none;fill-opacity:1;fill-rule:evenodd;stroke:#000000;stroke-width:0.264583;stroke-linecap:butt;stroke-linejoin:miter;stroke-miterlimit:4;stroke-dasharray:none;stroke-dashoffset:0;stroke-opacity:1;stop-color:#000000"
         id="rect1083"
         width="10.583333"
         height="10.583333"
         x="74.083328"
         y="137.58331" />
      <g
         transform="matrix(0.61137487,0,0,0.61137487,33.055916,142.73882)"
         ns8:version="1.3.1"
         ns8:texconverter="pdflatex"
         ns8:pdfconverter="inkscape"
         ns8:text="$a$ $b$ $c$ $d$ $e$ $f$ $g$ $h$\n"
         ns8:preamble="/Users/ketiboldiais/Library/Application Support/org.inkscape.Inkscape/config/inkscape/extensions/circuitSymbols/circuitSymbolsPreamble.tex"
         ns8:scale="1.0"
         ns8:alignment="middle center"
         ns8:jacobian_sqrt="0.352778"
         id="g1236">
        <defs
           id="id-e4bc06ff-63a1-431a-ae0d-14ec1db3c15a">
          <g
             id="id-8ecca844-c29a-48c9-a57f-715b0b1e5aa2">
            <symbol
               overflow="visible"
               id="id-21efcd65-b059-4aab-82a0-b362bd7fc146">
              <path
                 style="stroke:none;stroke-width:0"
                 d=""
                 id="id-0336940e-a928-45cc-a9c8-3e14cf3f4a16" />
            </symbol>
            <symbol
               overflow="visible"
               id="id-63298725-aacf-4e4c-b1f4-0c83976d3c0d">
              <path
                 style="stroke:none;stroke-width:0"
                 d="M 3.71875,-3.765625 C 3.53125,-4.140625 3.25,-4.40625 2.796875,-4.40625 c -1.15625,0 -2.390625,1.46875 -2.390625,2.921875 0,0.9375 0.546875,1.59375 1.3125,1.59375 0.203125,0 0.703125,-0.046875 1.296875,-0.75 0.078125,0.421875 0.4375,0.75 0.90625,0.75 0.359375,0 0.578125,-0.234375 0.75,-0.546875 0.15625,-0.359375 0.296875,-0.96875 0.296875,-0.984375 0,-0.109375 -0.09375,-0.109375 -0.125,-0.109375 -0.09375,0 -0.109375,0.046875 -0.140625,0.1875 -0.171875,0.640625 -0.34375,1.234375 -0.75,1.234375 -0.28125,0 -0.296875,-0.265625 -0.296875,-0.453125 0,-0.21875 0.015625,-0.3125 0.125,-0.75 C 3.890625,-1.71875 3.90625,-1.828125 4,-2.203125 L 4.359375,-3.59375 c 0.0625,-0.28125 0.0625,-0.296875 0.0625,-0.34375 0,-0.171875 -0.109375,-0.265625 -0.28125,-0.265625 -0.25,0 -0.390625,0.21875 -0.421875,0.4375 z M 3.078125,-1.1875 C 3.015625,-1 3.015625,-0.984375 2.875,-0.8125 2.4375,-0.265625 2.03125,-0.109375 1.75,-0.109375 c -0.5,0 -0.640625,-0.546875 -0.640625,-0.9375 0,-0.5 0.3125,-1.71875 0.546875,-2.1875 0.3125,-0.578125 0.75,-0.953125 1.15625,-0.953125 0.640625,0 0.78125,0.8125 0.78125,0.875 0,0.0625 -0.015625,0.125 -0.03125,0.171875 z m 0,0"
                 id="id-5499f8ab-5a9a-4229-8971-5967c4b1cdd6" />
            </symbol>
            <symbol
               overflow="visible"
               id="id-93f871b7-46d4-4866-a534-b7b03d26f262">
              <path
                 style="stroke:none;stroke-width:0"
                 d="m 2.375,-6.8125 c 0,0 0,-0.109375 -0.125,-0.109375 -0.21875,0 -0.953125,0.078125 -1.21875,0.109375 -0.078125,0 -0.1875,0.015625 -0.1875,0.1875 0,0.125 0.09375,0.125 0.25,0.125 0.46875,0 0.484375,0.0625 0.484375,0.171875 0,0.0625 -0.078125,0.40625 -0.125,0.609375 l -0.828125,3.25 c -0.109375,0.5 -0.15625,0.671875 -0.15625,1.015625 0,0.9375 0.53125,1.5625 1.265625,1.5625 1.171875,0 2.40625,-1.484375 2.40625,-2.921875 0,-0.90625 -0.53125,-1.59375 -1.328125,-1.59375 -0.453125,0 -0.875,0.296875 -1.171875,0.59375 z M 1.453125,-3.046875 C 1.5,-3.265625 1.5,-3.28125 1.59375,-3.390625 2.078125,-4.03125 2.53125,-4.1875 2.796875,-4.1875 c 0.359375,0 0.625,0.296875 0.625,0.9375 0,0.59375 -0.328125,1.734375 -0.515625,2.109375 -0.328125,0.671875 -0.78125,1.03125 -1.171875,1.03125 -0.34375,0 -0.671875,-0.265625 -0.671875,-1 0,-0.203125 0,-0.390625 0.15625,-1.015625 z m 0,0"
                 id="id-6677f9d5-62d2-45d6-b726-93468dcdc6ad" />
            </symbol>
            <symbol
               overflow="visible"
               id="id-435bc8f4-1551-43e9-872c-2fb378d3cf3a">
              <path
                 style="stroke:none;stroke-width:0"
                 d="m 3.953125,-3.78125 c -0.171875,0 -0.296875,0 -0.4375,0.125 -0.171875,0.15625 -0.1875,0.328125 -0.1875,0.390625 0,0.25 0.1875,0.359375 0.375,0.359375 0.28125,0 0.546875,-0.25 0.546875,-0.640625 0,-0.484375 -0.46875,-0.859375 -1.171875,-0.859375 -1.34375,0 -2.671875,1.421875 -2.671875,2.828125 0,0.90625 0.578125,1.6875 1.625,1.6875 1.421875,0 2.25,-1.0625 2.25,-1.171875 0,-0.0625 -0.046875,-0.140625 -0.109375,-0.140625 -0.0625,0 -0.078125,0.03125 -0.140625,0.109375 -0.78125,0.984375 -1.875,0.984375 -1.984375,0.984375 -0.625,0 -0.90625,-0.484375 -0.90625,-1.09375 0,-0.40625 0.203125,-1.375 0.546875,-1.984375 0.3125,-0.578125 0.859375,-1 1.40625,-1 0.328125,0 0.71875,0.125 0.859375,0.40625 z m 0,0"
                 id="id-a8721e98-53b8-442b-9a6a-a3bcf0f80830" />
            </symbol>
            <symbol
               overflow="visible"
               id="id-d12de006-371f-4abe-8600-9223ef44c413">
              <path
                 style="stroke:none;stroke-width:0"
                 d="m 5.140625,-6.8125 c 0,0 0,-0.109375 -0.125,-0.109375 -0.15625,0 -1.09375,0.09375 -1.265625,0.109375 -0.078125,0.015625 -0.140625,0.0625 -0.140625,0.1875 0,0.125 0.09375,0.125 0.234375,0.125 0.484375,0 0.5,0.0625 0.5,0.171875 L 4.3125,-6.125 3.71875,-3.765625 C 3.53125,-4.140625 3.25,-4.40625 2.796875,-4.40625 c -1.15625,0 -2.390625,1.46875 -2.390625,2.921875 0,0.9375 0.546875,1.59375 1.3125,1.59375 0.203125,0 0.703125,-0.046875 1.296875,-0.75 0.078125,0.421875 0.4375,0.75 0.90625,0.75 0.359375,0 0.578125,-0.234375 0.75,-0.546875 0.15625,-0.359375 0.296875,-0.96875 0.296875,-0.984375 0,-0.109375 -0.09375,-0.109375 -0.125,-0.109375 -0.09375,0 -0.109375,0.046875 -0.140625,0.1875 -0.171875,0.640625 -0.34375,1.234375 -0.75,1.234375 -0.28125,0 -0.296875,-0.265625 -0.296875,-0.453125 0,-0.25 0.015625,-0.3125 0.046875,-0.484375 z m -2.0625,5.625 C 3.015625,-1 3.015625,-0.984375 2.875,-0.8125 2.4375,-0.265625 2.03125,-0.109375 1.75,-0.109375 c -0.5,0 -0.640625,-0.546875 -0.640625,-0.9375 0,-0.5 0.3125,-1.71875 0.546875,-2.1875 0.3125,-0.578125 0.75,-0.953125 1.15625,-0.953125 0.640625,0 0.78125,0.8125 0.78125,0.875 0,0.0625 -0.015625,0.125 -0.03125,0.171875 z m 0,0"
                 id="id-1e148dc7-499c-45fb-9681-32030909fb0b" />
            </symbol>
            <symbol
               overflow="visible"
               id="id-ebf2477e-52a9-410f-a5f7-c3679901b2ba">
              <path
                 style="stroke:none;stroke-width:0"
                 d="m 1.859375,-2.296875 c 0.296875,0 1.03125,-0.03125 1.53125,-0.234375 0.703125,-0.296875 0.75,-0.890625 0.75,-1.03125 0,-0.4375 -0.375,-0.84375 -1.0625,-0.84375 -1.109375,0 -2.625,0.96875 -2.625,2.71875 0,1.015625 0.59375,1.796875 1.578125,1.796875 1.421875,0 2.25,-1.0625 2.25,-1.171875 0,-0.0625 -0.046875,-0.140625 -0.109375,-0.140625 -0.0625,0 -0.078125,0.03125 -0.140625,0.109375 -0.78125,0.984375 -1.875,0.984375 -1.984375,0.984375 -0.78125,0 -0.875,-0.84375 -0.875,-1.15625 0,-0.125 0.015625,-0.421875 0.15625,-1.03125 z m -0.46875,-0.21875 C 1.78125,-4.03125 2.8125,-4.1875 3.078125,-4.1875 c 0.453125,0 0.734375,0.296875 0.734375,0.625 0,1.046875 -1.59375,1.046875 -2.015625,1.046875 z m 0,0"
                 id="id-a65e3261-b8ee-4b43-9b4c-14d926d1bc4f" />
            </symbol>
            <symbol
               overflow="visible"
               id="id-d7c74a35-ca4c-49c0-91a1-1d1dac325db7">
              <path
                 style="stroke:none;stroke-width:0"
                 d="m 3.65625,-3.984375 h 0.859375 c 0.203125,0 0.296875,0 0.296875,-0.203125 0,-0.109375 -0.09375,-0.109375 -0.265625,-0.109375 H 3.71875 L 3.921875,-5.4375 c 0.046875,-0.203125 0.1875,-0.90625 0.25,-1.03125 0.078125,-0.1875 0.25,-0.34375 0.46875,-0.34375 0.03125,0 0.296875,0 0.484375,0.1875 -0.4375,0.03125 -0.546875,0.390625 -0.546875,0.53125 0,0.234375 0.1875,0.359375 0.375,0.359375 C 5.21875,-5.734375 5.5,-5.96875 5.5,-6.34375 c 0,-0.453125 -0.453125,-0.6875 -0.859375,-0.6875 -0.34375,0 -0.96875,0.1875 -1.265625,1.171875 -0.0625,0.203125 -0.09375,0.3125 -0.328125,1.5625 h -0.6875 c -0.203125,0 -0.3125,0 -0.3125,0.1875 0,0.125 0.09375,0.125 0.28125,0.125 h 0.65625 L 2.25,-0.046875 c -0.1875,0.96875 -0.359375,1.875 -0.875,1.875 -0.046875,0 -0.28125,0 -0.484375,-0.1875 C 1.359375,1.609375 1.453125,1.25 1.453125,1.109375 1.453125,0.875 1.265625,0.75 1.078125,0.75 0.8125,0.75 0.53125,0.984375 0.53125,1.359375 c 0,0.4375 0.4375,0.6875 0.84375,0.6875 0.546875,0 0.953125,-0.59375 1.125,-0.96875 0.328125,-0.625 0.546875,-1.828125 0.5625,-1.90625 z m 0,0"
                 id="id-2d81a417-69e6-4bcc-ae76-f347fd6459db" />
            </symbol>
            <symbol
               overflow="visible"
               id="id-bec0c2d5-7047-4676-b4e5-91a30d8550ac">
              <path
                 style="stroke:none;stroke-width:0"
                 d="M 4.6875,-3.765625 C 4.703125,-3.8125 4.71875,-3.875 4.71875,-3.9375 c 0,-0.171875 -0.109375,-0.265625 -0.28125,-0.265625 -0.09375,0 -0.375,0.0625 -0.40625,0.421875 -0.1875,-0.359375 -0.53125,-0.625 -0.9375,-0.625 -1.125,0 -2.359375,1.390625 -2.359375,2.828125 0,0.984375 0.59375,1.578125 1.3125,1.578125 0.59375,0 1.0625,-0.46875 1.15625,-0.578125 L 3.21875,-0.5625 C 3.015625,0.3125 2.890625,0.734375 2.890625,0.75 2.84375,0.84375 2.515625,1.828125 1.453125,1.828125 1.265625,1.828125 0.9375,1.8125 0.65625,1.71875 0.953125,1.640625 1.0625,1.375 1.0625,1.203125 c 0,-0.15625 -0.109375,-0.34375 -0.375,-0.34375 -0.21875,0 -0.53125,0.171875 -0.53125,0.578125 0,0.40625 0.359375,0.609375 1.3125,0.609375 1.25,0 1.96875,-0.78125 2.125,-1.375 z M 3.40625,-1.28125 C 3.34375,-1.015625 3.109375,-0.765625 2.890625,-0.578125 2.6875,-0.40625 2.375,-0.21875 2.078125,-0.21875 c -0.5,0 -0.640625,-0.515625 -0.640625,-0.921875 0,-0.46875 0.28125,-1.65625 0.5625,-2.15625 C 2.265625,-3.78125 2.6875,-4.1875 3.109375,-4.1875 c 0.65625,0 0.796875,0.8125 0.796875,0.859375 0,0.046875 -0.015625,0.109375 -0.03125,0.140625 z m 0,0"
                 id="id-0a9d454a-cf09-4da4-b099-43e6a79aaf74" />
            </symbol>
            <symbol
               overflow="visible"
               id="id-4bd78792-3793-45ef-ba10-79ff6bdf2917">
              <path
                 style="stroke:none;stroke-width:0"
                 d="m 2.859375,-6.8125 c 0,0 0,-0.109375 -0.125,-0.109375 -0.234375,0 -0.953125,0.078125 -1.21875,0.109375 -0.078125,0 -0.1875,0.015625 -0.1875,0.1875 0,0.125 0.09375,0.125 0.234375,0.125 0.484375,0 0.5,0.0625 0.5,0.171875 L 2.03125,-6.125 0.59375,-0.390625 c -0.046875,0.140625 -0.046875,0.15625 -0.046875,0.21875 0,0.234375 0.203125,0.28125 0.296875,0.28125 0.15625,0 0.3125,-0.125 0.359375,-0.265625 l 0.1875,-0.75 0.21875,-0.890625 C 1.671875,-2.03125 1.734375,-2.25 1.78125,-2.46875 1.796875,-2.53125 1.890625,-2.859375 1.890625,-2.921875 1.921875,-3.015625 2.234375,-3.5625 2.578125,-3.84375 2.796875,-4 3.09375,-4.1875 3.53125,-4.1875 c 0.421875,0 0.53125,0.34375 0.53125,0.703125 0,0.53125 -0.375,1.625 -0.609375,2.234375 C 3.375,-1.03125 3.3125,-0.90625 3.3125,-0.703125 c 0,0.46875 0.359375,0.8125 0.828125,0.8125 0.9375,0 1.296875,-1.453125 1.296875,-1.53125 0,-0.109375 -0.078125,-0.109375 -0.109375,-0.109375 -0.109375,0 -0.109375,0.03125 -0.15625,0.1875 -0.140625,0.53125 -0.46875,1.234375 -1.015625,1.234375 -0.171875,0 -0.234375,-0.09375 -0.234375,-0.328125 0,-0.25 0.078125,-0.484375 0.171875,-0.703125 0.15625,-0.4375 0.609375,-1.625 0.609375,-2.203125 0,-0.640625 -0.390625,-1.0625 -1.140625,-1.0625 -0.625,0 -1.109375,0.3125 -1.484375,0.765625 z m 0,0"
                 id="id-d06d784d-ae1f-470f-91fb-c1735c17a897" />
            </symbol>
          </g>
        </defs>
        <g
           id="id-7c13d2c4-e5b7-4b6c-a3ef-668bc86ccd1d"
           transform="translate(-149.118,-127.734)">
          <g
             style="fill:#000000;fill-opacity:1"
             id="id-0d8713a0-8af9-418d-a884-d9a3f0dc2099">
            <g
               transform="translate(148.712,134.765)"
               id="g1204">
              <path
                 style="stroke:none;stroke-width:0"
                 d="m 42.57799,-43.046909 c -0.1875,-0.375 -0.46875,-0.64062 -0.921875,-0.64062 -1.15625,0 -2.390625,1.46875 -2.390625,2.92187 0,0.9375 0.546875,1.59375 1.3125,1.59375 0.203125,0 0.703125,-0.0469 1.296875,-0.75 0.07813,0.42188 0.4375,0.75 0.90625,0.75 0.359375,0 0.578125,-0.23437 0.75,-0.54687 0.15625,-0.35938 0.296875,-0.96875 0.296875,-0.98438 0,-0.10937 -0.09375,-0.10937 -0.125,-0.10937 -0.09375,0 -0.109375,0.0469 -0.140625,0.1875 -0.171875,0.64062 -0.34375,1.23437 -0.75,1.23437 -0.28125,0 -0.296875,-0.26562 -0.296875,-0.45312 0,-0.21875 0.01563,-0.3125 0.125,-0.75 0.109375,-0.40625 0.125,-0.51563 0.21875,-0.89063 l 0.359375,-1.39062 c 0.0625,-0.28125 0.0625,-0.29688 0.0625,-0.34375 0,-0.17188 -0.109375,-0.26563 -0.28125,-0.26563 -0.25,0 -0.390625,0.21875 -0.421875,0.4375 z m -0.640625,2.57813 c -0.0625,0.1875 -0.0625,0.20312 -0.203125,0.375 -0.4375,0.54687 -0.84375,0.70312 -1.125,0.70312 -0.5,0 -0.640625,-0.54687 -0.640625,-0.9375 0,-0.5 0.3125,-1.71875 0.546875,-2.1875 0.3125,-0.57812 0.75,-0.95312 1.15625,-0.95312 0.640625,0 0.78125,0.8125 0.78125,0.875 0,0.0625 -0.01563,0.125 -0.03125,0.17187 z m 0,0"
                 id="id-acc1d668-760b-41c7-8904-5be41be8ca39" />
            </g>
          </g>
          <g
             style="fill:#000000;fill-opacity:1"
             id="id-8b369eb0-5fae-49d0-81ea-552f792c1793">
            <g
               transform="translate(157.296,134.765)"
               id="g1208">
              <path
                 style="stroke:none;stroke-width:0"
                 d="m 50.343767,-44.835974 c 0,0 0,-0.10937 -0.125,-0.10937 -0.21875,0 -0.953125,0.0781 -1.21875,0.10937 -0.07813,0 -0.1875,0.0156 -0.1875,0.1875 0,0.125 0.09375,0.125 0.25,0.125 0.46875,0 0.484375,0.0625 0.484375,0.17188 0,0.0625 -0.07813,0.40625 -0.125,0.60937 l -0.828125,3.25 c -0.109375,0.5 -0.15625,0.67188 -0.15625,1.01563 0,0.9375 0.53125,1.5625 1.265625,1.5625 1.171875,0 2.40625,-1.48438 2.40625,-2.92188 0,-0.90625 -0.53125,-1.59375 -1.328125,-1.59375 -0.453125,0 -0.875,0.29688 -1.171875,0.59375 z m -0.921875,3.76563 c 0.04687,-0.21875 0.04687,-0.23438 0.140625,-0.34375 0.484375,-0.64063 0.9375,-0.79688 1.203125,-0.79688 0.359375,0 0.625,0.29688 0.625,0.9375 0,0.59375 -0.328125,1.73438 -0.515625,2.10938 -0.328125,0.67187 -0.78125,1.03125 -1.171875,1.03125 -0.34375,0 -0.671875,-0.26563 -0.671875,-1 0,-0.20313 0,-0.39063 0.15625,-1.01563 z m 0,0"
                 id="id-b226ee60-7a74-4975-811f-1b30e77f2892" />
            </g>
          </g>
          <g
             style="fill:#000000;fill-opacity:1"
             id="id-5f0d6781-d478-45e1-a9fb-9c1b59ca6c13">
            <g
               transform="translate(164.899,134.765)"
               id="g1212">
              <path
                 style="stroke:none;stroke-width:0"
                 d="m 61.590532,-43.062534 c -0.171875,0 -0.296875,0 -0.4375,0.125 -0.171875,0.15625 -0.1875,0.32813 -0.1875,0.39063 0,0.25 0.1875,0.35937 0.375,0.35937 0.28125,0 0.546875,-0.25 0.546875,-0.64062 0,-0.48438 -0.46875,-0.85938 -1.171875,-0.85938 -1.34375,0 -2.671875,1.42188 -2.671875,2.82813 0,0.90625 0.578125,1.6875 1.625,1.6875 1.421875,0 2.25,-1.0625 2.25,-1.17188 0,-0.0625 -0.04687,-0.14062 -0.109375,-0.14062 -0.0625,0 -0.07813,0.0312 -0.140625,0.10937 -0.78125,0.98438 -1.875,0.98438 -1.984375,0.98438 -0.625,0 -0.90625,-0.48438 -0.90625,-1.09375 0,-0.40625 0.203125,-1.375 0.546875,-1.98438 0.3125,-0.57812 0.859375,-1 1.40625,-1 0.328125,0 0.71875,0.125 0.859375,0.40625 z m 0,0"
                 id="id-a49b431a-553f-4433-ac5e-b46fee808fb9" />
            </g>
          </g>
          <g
             style="fill:#000000;fill-opacity:1"
             id="id-f731f6ea-54e6-4c3e-b6a9-6bacdfe504f2">
            <g
               transform="translate(172.529,134.765)"
               id="g1216">
              <path
                 style="stroke:none;stroke-width:0"
                 d="m 37.407636,-27.525254 c 0,0 0,-0.109375 -0.125,-0.109375 -0.15625,0 -1.09375,0.09375 -1.265625,0.109375 -0.07813,0.01563 -0.140625,0.0625 -0.140625,0.1875 0,0.125 0.09375,0.125 0.234375,0.125 0.484375,0 0.5,0.0625 0.5,0.171875 l -0.03125,0.203125 -0.59375,2.359375 c -0.1875,-0.375 -0.46875,-0.640625 -0.921875,-0.640625 -1.15625,0 -2.390625,1.46875 -2.390625,2.921875 0,0.9375 0.546875,1.59375 1.3125,1.59375 0.203125,0 0.703125,-0.04687 1.296875,-0.75 0.07813,0.421875 0.4375,0.75 0.90625,0.75 0.359375,0 0.578125,-0.234375 0.75,-0.546875 0.15625,-0.359375 0.296875,-0.96875 0.296875,-0.984375 0,-0.109375 -0.09375,-0.109375 -0.125,-0.109375 -0.09375,0 -0.109375,0.04687 -0.140625,0.1875 -0.171875,0.640625 -0.34375,1.234375 -0.75,1.234375 -0.28125,0 -0.296875,-0.265625 -0.296875,-0.453125 0,-0.25 0.01563,-0.3125 0.04687,-0.484375 z m -2.0625,5.625 c -0.0625,0.1875 -0.0625,0.203125 -0.203125,0.375 -0.4375,0.546875 -0.84375,0.703125 -1.125,0.703125 -0.5,0 -0.640625,-0.546875 -0.640625,-0.9375 0,-0.5 0.3125,-1.71875 0.546875,-2.1875 0.3125,-0.578125 0.75,-0.953125 1.15625,-0.953125 0.640625,0 0.78125,0.8125 0.78125,0.875 0,0.0625 -0.01563,0.125 -0.03125,0.171875 z m 0,0"
                 id="id-8a66dbbc-bb75-4103-a40e-b14a6a3ca368" />
            </g>
          </g>
          <g
             style="fill:#000000;fill-opacity:1"
             id="id-351faaf2-b4a8-4977-90e5-523a50db70a7">
            <g
               transform="translate(181.032,134.765)"
               id="g1220">
              <path
                 style="stroke:none;stroke-width:0"
                 d="m 8.7189214,-6.9567272 c 0.296875,0 1.03125,-0.03125 1.5312496,-0.234375 0.703125,-0.296875 0.75,-0.890625 0.75,-1.03125 0,-0.4375 -0.375,-0.84375 -1.0624996,-0.84375 -1.109375,0 -2.625,0.96875 -2.625,2.71875 0,1.015625 0.59375,1.796875 1.578125,1.796875 1.4218746,0 2.2499996,-1.0625 2.2499996,-1.171875 0,-0.0625 -0.04687,-0.140625 -0.109375,-0.140625 -0.0625,0 -0.07813,0.03125 -0.140625,0.109375 -0.78125,0.984375 -1.8749996,0.984375 -1.9843746,0.984375 -0.78125,0 -0.875,-0.84375 -0.875,-1.15625 0,-0.125 0.01563,-0.421875 0.15625,-1.03125 z m -0.46875,-0.21875 c 0.390625,-1.515625 1.421875,-1.671875 1.6875,-1.671875 0.4531246,0 0.7343746,0.296875 0.7343746,0.625 0,1.046875 -1.5937496,1.046875 -2.0156246,1.046875 z m 0,0"
                 id="id-b90f3b8d-8125-4bb3-b923-ebdec044bb09" />
            </g>
          </g>
          <g
             style="fill:#000000;fill-opacity:1"
             id="id-61c91b51-e93e-439f-a886-a514d14c7e73">
            <g
               transform="translate(188.998,134.765)"
               id="g1224">
              <path
                 style="stroke:none;stroke-width:0"
                 d="m 1.9013584,-25.611192 h 0.859375 c 0.203125,0 0.296875,0 0.296875,-0.203125 0,-0.109375 -0.09375,-0.109375 -0.265625,-0.109375 h -0.828125 l 0.203125,-1.140625 c 0.04687,-0.203125 0.1875,-0.90625 0.25,-1.03125 0.07813,-0.1875 0.25,-0.34375 0.46875,-0.34375 0.03125,0 0.296875,0 0.484376,0.1875 -0.437501,0.03125 -0.546876,0.390625 -0.546876,0.53125 0,0.234375 0.1875,0.359375 0.375,0.359375 0.265626,0 0.546876,-0.234375 0.546876,-0.609375 0,-0.453125 -0.453125,-0.6875 -0.859376,-0.6875 -0.34375,0 -0.96875,0.1875 -1.265625,1.171875 -0.0625,0.203125 -0.09375,0.3125 -0.328125,1.5625 H 0.60448336 c -0.203125,0 -0.3125,0 -0.3125,0.1875 0,0.125 0.09375,0.125 0.28125,0.125 H 1.2294834 l -0.73437504,3.9375 c -0.1875,0.96875 -0.359375,1.875 -0.875,1.875 -0.04687,0 -0.28125,0 -0.484375,-0.1875 0.46875,-0.03125 0.5625,-0.390625 0.5625,-0.53125 0,-0.234375 -0.1875,-0.359375 -0.375,-0.359375 -0.265625,0 -0.54687496,0.234375 -0.54687496,0.609375 0,0.4375 0.43749996,0.6875 0.84374996,0.6875 0.546875,0 0.953125,-0.59375 1.125,-0.96875 0.32812504,-0.625 0.54687504,-1.828125 0.56250004,-1.90625 z m 0,0"
                 id="id-03f1fb42-545b-49b5-97b7-885067fa78a7" />
            </g>
          </g>
          <g
             style="fill:#000000;fill-opacity:1"
             id="id-d1e249dd-ea22-4c06-8646-0874924c1210">
            <g
               transform="translate(198.269,134.765)"
               id="g1228">
              <path
                 style="stroke:none;stroke-width:0"
                 d="m 28.861154,-26.704944 c 0.01563,-0.04687 0.03125,-0.109375 0.03125,-0.171875 0,-0.171875 -0.109375,-0.265625 -0.28125,-0.265625 -0.09375,0 -0.375,0.0625 -0.40625,0.421875 -0.1875,-0.359375 -0.53125,-0.625 -0.9375,-0.625 -1.125,0 -2.359375,1.390625 -2.359375,2.828125 0,0.984375 0.59375,1.578125 1.3125,1.578125 0.59375,0 1.0625,-0.46875 1.15625,-0.578125 l 0.01563,0.01563 c -0.203125,0.875 -0.328125,1.296875 -0.328125,1.3125 -0.04687,0.09375 -0.375,1.078125 -1.4375,1.078125 -0.1875,0 -0.515625,-0.01563 -0.796875,-0.109375 0.296875,-0.07813 0.40625,-0.34375 0.40625,-0.515625 0,-0.15625 -0.109375,-0.34375 -0.375,-0.34375 -0.21875,0 -0.53125,0.171875 -0.53125,0.578125 0,0.40625 0.359375,0.609375 1.3125,0.609375 1.25,0 1.96875,-0.78125 2.125,-1.375 z m -1.28125,2.484375 c -0.0625,0.265625 -0.296875,0.515625 -0.515625,0.703125 -0.203125,0.171875 -0.515625,0.359375 -0.8125,0.359375 -0.5,0 -0.640625,-0.515625 -0.640625,-0.921875 0,-0.46875 0.28125,-1.65625 0.5625,-2.15625 0.265625,-0.484375 0.6875,-0.890625 1.109375,-0.890625 0.65625,0 0.796875,0.8125 0.796875,0.859375 0,0.04687 -0.01563,0.109375 -0.03125,0.140625 z m 0,0"
                 id="id-0779d62b-cb07-40d7-9f20-1c1322d6bac4" />
            </g>
          </g>
          <g
             style="fill:#000000;fill-opacity:1"
             id="id-ba1a4669-5ae4-4997-83e1-8fcb0353c30c">
            <g
               transform="translate(206.697,134.765)"
               id="g1232">
              <path
                 style="stroke:none;stroke-width:0"
                 d="m 0.73960644,-10.21454 c 0,0 0,-0.109375 -0.125,-0.109375 -0.23437,0 -0.95312,0.07813 -1.21875,0.109375 -0.0781,0 -0.1875,0.01563 -0.1875,0.1875 0,0.1250006 0.0937,0.1250006 0.23438,0.1250006 0.48437,0 0.5,0.0625 0.5,0.171875 l -0.0312,0.203125 -1.43750004,5.734375 c -0.0469,0.140625 -0.0469,0.15625 -0.0469,0.21875 0,0.234375 0.20312,0.28125 0.29687,0.28125 0.15625,0 0.31250004,-0.125 0.35938004,-0.265625 l 0.1875,-0.75 0.21875,-0.890625 c 0.0625,-0.234375 0.125,-0.453125 0.17187,-0.671875 0.0156,-0.0625 0.10938,-0.390625 0.10938,-0.453125 0.0312,-0.09375 0.34375,-0.640625 0.6875,-0.921875 0.21875,-0.15625 0.515623,-0.34375 0.95312296,-0.34375 0.421875,0 0.53125,0.34375 0.53125,0.703125 0,0.53125 -0.375,1.625 -0.609375,2.234375 -0.07813,0.21875 -0.140625,0.34375 -0.140625,0.546875 0,0.46875 0.359375,0.8125 0.828125,0.8125 0.937501,0 1.296876,-1.453125 1.296876,-1.53125 0,-0.109375 -0.07813,-0.109375 -0.109375,-0.109375 -0.109375,0 -0.109375,0.03125 -0.15625,0.1875 -0.140625,0.53125 -0.468751,1.234375 -1.015626,1.234375 -0.171875,0 -0.234375,-0.09375 -0.234375,-0.328125 0,-0.25 0.07813,-0.484375 0.171875,-0.703125 0.15625,-0.4375 0.609375,-1.625 0.609375,-2.203125 0,-0.640625 -0.390625,-1.0625 -1.140625,-1.0625 -0.62500296,0 -1.10937296,0.3125 -1.48437296,0.765625 z m 0,0"
                 id="id-a4ae0575-d73f-4803-ba02-a09dce61438b" />
            </g>
          </g>
        </g>
      </g>
    </g>
  </g>
</svg>
