<?xml version="1.0" encoding="UTF-8" standalone="no"?>
<!-- Created with Inkscape (http://www.inkscape.org/) -->

<svg
   width="24.879049mm"
   height="27.015181mm"
   viewBox="0 0 24.879049 27.01518"
   version="1.1"
   id="svg5"
   sodipodi:docname="konigsbergBridges.svg"
   inkscape:version="1.1 (c4e8f9e, 2021-05-24)"
   xmlns:inkscape="http://www.inkscape.org/namespaces/inkscape"
   xmlns:sodipodi="http://sodipodi.sourceforge.net/DTD/sodipodi-0.dtd"
   xmlns="http://www.w3.org/2000/svg"
   xmlns:svg="http://www.w3.org/2000/svg"
   xmlns:ns2="http://www.iki.fi/pav/software/textext/">
  <sodipodi:namedview
     id="namedview913"
     pagecolor="#ffffff"
     bordercolor="#666666"
     borderopacity="1.0"
     inkscape:pageshadow="2"
     inkscape:pageopacity="0.0"
     inkscape:pagecheckerboard="0"
     inkscape:document-units="mm"
     showgrid="false"
     inkscape:snap-global="false"
     inkscape:zoom="1.8665765"
     inkscape:cx="30.269319"
     inkscape:cy="16.875815"
     inkscape:window-width="1440"
     inkscape:window-height="847"
     inkscape:window-x="1993"
     inkscape:window-y="74"
     inkscape:window-maximized="0"
     inkscape:current-layer="svg5">
    <inkscape:grid
       type="xygrid"
       id="grid1001"
       originx="-20.417319"
       originy="-35.785962" />
  </sodipodi:namedview>
  <defs
     id="defs2">
    <marker
       style="overflow:visible"
       id="DotM"
       refX="0"
       refY="0"
       orient="auto">
      <path
         transform="matrix(0.4,0,0,0.4,2.96,0.4)"
         style="fill:context-stroke;fill-rule:evenodd;stroke:context-stroke;stroke-width:1pt"
         d="m -2.5,-1 c 0,2.76 -2.24,5 -5,5 -2.76,0 -5,-2.24 -5,-5 0,-2.76 2.24,-5 5,-5 2.76,0 5,2.24 5,5 z"
         id="path1034" />
    </marker>
    <defs
       id="id-aa8057c7-4330-4661-9127-b607e5d2298f">
      <g
         id="id-7ad33e4f-3d59-4752-a313-a0c9fea89591">
        <symbol
           overflow="visible"
           id="id-4b79ed13-3e8d-4421-98a9-4bda0d7c1780">
          <path
             style="stroke:none;stroke-width:0"
             d=""
             id="id-7615b545-24dc-49f3-bfce-8024ce077c24" />
        </symbol>
        <symbol
           overflow="visible"
           id="id-534cdf55-4080-4842-bb84-ad5d126ca5c1">
          <path
             style="stroke:none;stroke-width:0"
             d="M 3.71875,-3.765625 C 3.53125,-4.140625 3.25,-4.40625 2.796875,-4.40625 c -1.15625,0 -2.390625,1.46875 -2.390625,2.921875 0,0.9375 0.546875,1.59375 1.3125,1.59375 0.203125,0 0.703125,-0.046875 1.296875,-0.75 0.078125,0.421875 0.4375,0.75 0.90625,0.75 0.359375,0 0.578125,-0.234375 0.75,-0.546875 0.15625,-0.359375 0.296875,-0.96875 0.296875,-0.984375 0,-0.109375 -0.09375,-0.109375 -0.125,-0.109375 -0.09375,0 -0.109375,0.046875 -0.140625,0.1875 -0.171875,0.640625 -0.34375,1.234375 -0.75,1.234375 -0.28125,0 -0.296875,-0.265625 -0.296875,-0.453125 0,-0.21875 0.015625,-0.3125 0.125,-0.75 C 3.890625,-1.71875 3.90625,-1.828125 4,-2.203125 L 4.359375,-3.59375 c 0.0625,-0.28125 0.0625,-0.296875 0.0625,-0.34375 0,-0.171875 -0.109375,-0.265625 -0.28125,-0.265625 -0.25,0 -0.390625,0.21875 -0.421875,0.4375 z M 3.078125,-1.1875 C 3.015625,-1 3.015625,-0.984375 2.875,-0.8125 2.4375,-0.265625 2.03125,-0.109375 1.75,-0.109375 c -0.5,0 -0.640625,-0.546875 -0.640625,-0.9375 0,-0.5 0.3125,-1.71875 0.546875,-2.1875 0.3125,-0.578125 0.75,-0.953125 1.15625,-0.953125 0.640625,0 0.78125,0.8125 0.78125,0.875 0,0.0625 -0.015625,0.125 -0.03125,0.171875 z m 0,0"
             id="id-a9529ef9-3b14-4e77-9bfd-dae81c8358b8" />
        </symbol>
        <symbol
           overflow="visible"
           id="id-c7731be3-6a83-4fc8-82d7-5a70519f5f1c">
          <path
             style="stroke:none;stroke-width:0"
             d="m 2.375,-6.8125 c 0,0 0,-0.109375 -0.125,-0.109375 -0.21875,0 -0.953125,0.078125 -1.21875,0.109375 -0.078125,0 -0.1875,0.015625 -0.1875,0.1875 0,0.125 0.09375,0.125 0.25,0.125 0.46875,0 0.484375,0.0625 0.484375,0.171875 0,0.0625 -0.078125,0.40625 -0.125,0.609375 l -0.828125,3.25 c -0.109375,0.5 -0.15625,0.671875 -0.15625,1.015625 0,0.9375 0.53125,1.5625 1.265625,1.5625 1.171875,0 2.40625,-1.484375 2.40625,-2.921875 0,-0.90625 -0.53125,-1.59375 -1.328125,-1.59375 -0.453125,0 -0.875,0.296875 -1.171875,0.59375 z M 1.453125,-3.046875 C 1.5,-3.265625 1.5,-3.28125 1.59375,-3.390625 2.078125,-4.03125 2.53125,-4.1875 2.796875,-4.1875 c 0.359375,0 0.625,0.296875 0.625,0.9375 0,0.59375 -0.328125,1.734375 -0.515625,2.109375 -0.328125,0.671875 -0.78125,1.03125 -1.171875,1.03125 -0.34375,0 -0.671875,-0.265625 -0.671875,-1 0,-0.203125 0,-0.390625 0.15625,-1.015625 z m 0,0"
             id="id-167cef94-7042-4ede-8087-22b79e4fb2e5" />
        </symbol>
        <symbol
           overflow="visible"
           id="id-03b32b4d-169f-4a06-90ad-adebe8f97307">
          <path
             style="stroke:none;stroke-width:0"
             d="m 3.953125,-3.78125 c -0.171875,0 -0.296875,0 -0.4375,0.125 -0.171875,0.15625 -0.1875,0.328125 -0.1875,0.390625 0,0.25 0.1875,0.359375 0.375,0.359375 0.28125,0 0.546875,-0.25 0.546875,-0.640625 0,-0.484375 -0.46875,-0.859375 -1.171875,-0.859375 -1.34375,0 -2.671875,1.421875 -2.671875,2.828125 0,0.90625 0.578125,1.6875 1.625,1.6875 1.421875,0 2.25,-1.0625 2.25,-1.171875 0,-0.0625 -0.046875,-0.140625 -0.109375,-0.140625 -0.0625,0 -0.078125,0.03125 -0.140625,0.109375 -0.78125,0.984375 -1.875,0.984375 -1.984375,0.984375 -0.625,0 -0.90625,-0.484375 -0.90625,-1.09375 0,-0.40625 0.203125,-1.375 0.546875,-1.984375 0.3125,-0.578125 0.859375,-1 1.40625,-1 0.328125,0 0.71875,0.125 0.859375,0.40625 z m 0,0"
             id="id-7285c863-1e46-4bd4-8879-75bc9cc1f41a" />
        </symbol>
        <symbol
           overflow="visible"
           id="id-64597635-00b5-4da7-9c9b-272b1ce6976f">
          <path
             style="stroke:none;stroke-width:0"
             d="m 5.140625,-6.8125 c 0,0 0,-0.109375 -0.125,-0.109375 -0.15625,0 -1.09375,0.09375 -1.265625,0.109375 -0.078125,0.015625 -0.140625,0.0625 -0.140625,0.1875 0,0.125 0.09375,0.125 0.234375,0.125 0.484375,0 0.5,0.0625 0.5,0.171875 L 4.3125,-6.125 3.71875,-3.765625 C 3.53125,-4.140625 3.25,-4.40625 2.796875,-4.40625 c -1.15625,0 -2.390625,1.46875 -2.390625,2.921875 0,0.9375 0.546875,1.59375 1.3125,1.59375 0.203125,0 0.703125,-0.046875 1.296875,-0.75 0.078125,0.421875 0.4375,0.75 0.90625,0.75 0.359375,0 0.578125,-0.234375 0.75,-0.546875 0.15625,-0.359375 0.296875,-0.96875 0.296875,-0.984375 0,-0.109375 -0.09375,-0.109375 -0.125,-0.109375 -0.09375,0 -0.109375,0.046875 -0.140625,0.1875 -0.171875,0.640625 -0.34375,1.234375 -0.75,1.234375 -0.28125,0 -0.296875,-0.265625 -0.296875,-0.453125 0,-0.25 0.015625,-0.3125 0.046875,-0.484375 z m -2.0625,5.625 C 3.015625,-1 3.015625,-0.984375 2.875,-0.8125 2.4375,-0.265625 2.03125,-0.109375 1.75,-0.109375 c -0.5,0 -0.640625,-0.546875 -0.640625,-0.9375 0,-0.5 0.3125,-1.71875 0.546875,-2.1875 0.3125,-0.578125 0.75,-0.953125 1.15625,-0.953125 0.640625,0 0.78125,0.8125 0.78125,0.875 0,0.0625 -0.015625,0.125 -0.03125,0.171875 z m 0,0"
             id="id-c053eb80-690e-4c0d-ab97-5b1a6d18e138" />
        </symbol>
        <symbol
           overflow="visible"
           id="id-43c46dcb-4017-415a-bc52-fe09eec64dce">
          <path
             style="stroke:none;stroke-width:0"
             d="m 1.859375,-2.296875 c 0.296875,0 1.03125,-0.03125 1.53125,-0.234375 0.703125,-0.296875 0.75,-0.890625 0.75,-1.03125 0,-0.4375 -0.375,-0.84375 -1.0625,-0.84375 -1.109375,0 -2.625,0.96875 -2.625,2.71875 0,1.015625 0.59375,1.796875 1.578125,1.796875 1.421875,0 2.25,-1.0625 2.25,-1.171875 0,-0.0625 -0.046875,-0.140625 -0.109375,-0.140625 -0.0625,0 -0.078125,0.03125 -0.140625,0.109375 -0.78125,0.984375 -1.875,0.984375 -1.984375,0.984375 -0.78125,0 -0.875,-0.84375 -0.875,-1.15625 0,-0.125 0.015625,-0.421875 0.15625,-1.03125 z m -0.46875,-0.21875 C 1.78125,-4.03125 2.8125,-4.1875 3.078125,-4.1875 c 0.453125,0 0.734375,0.296875 0.734375,0.625 0,1.046875 -1.59375,1.046875 -2.015625,1.046875 z m 0,0"
             id="id-b2574f58-7aa3-47f4-8683-3cf5faf41b28" />
        </symbol>
        <symbol
           overflow="visible"
           id="id-e7e100ce-7381-4814-a516-64d05bcd9bc2">
          <path
             style="stroke:none;stroke-width:0"
             d="m 3.65625,-3.984375 h 0.859375 c 0.203125,0 0.296875,0 0.296875,-0.203125 0,-0.109375 -0.09375,-0.109375 -0.265625,-0.109375 H 3.71875 L 3.921875,-5.4375 c 0.046875,-0.203125 0.1875,-0.90625 0.25,-1.03125 0.078125,-0.1875 0.25,-0.34375 0.46875,-0.34375 0.03125,0 0.296875,0 0.484375,0.1875 -0.4375,0.03125 -0.546875,0.390625 -0.546875,0.53125 0,0.234375 0.1875,0.359375 0.375,0.359375 C 5.21875,-5.734375 5.5,-5.96875 5.5,-6.34375 c 0,-0.453125 -0.453125,-0.6875 -0.859375,-0.6875 -0.34375,0 -0.96875,0.1875 -1.265625,1.171875 -0.0625,0.203125 -0.09375,0.3125 -0.328125,1.5625 h -0.6875 c -0.203125,0 -0.3125,0 -0.3125,0.1875 0,0.125 0.09375,0.125 0.28125,0.125 h 0.65625 L 2.25,-0.046875 c -0.1875,0.96875 -0.359375,1.875 -0.875,1.875 -0.046875,0 -0.28125,0 -0.484375,-0.1875 C 1.359375,1.609375 1.453125,1.25 1.453125,1.109375 1.453125,0.875 1.265625,0.75 1.078125,0.75 0.8125,0.75 0.53125,0.984375 0.53125,1.359375 c 0,0.4375 0.4375,0.6875 0.84375,0.6875 0.546875,0 0.953125,-0.59375 1.125,-0.96875 0.328125,-0.625 0.546875,-1.828125 0.5625,-1.90625 z m 0,0"
             id="id-03f91f8b-82cd-4eb2-b30d-4e69cc9e1f3a" />
        </symbol>
        <symbol
           overflow="visible"
           id="id-0d3f012b-f5eb-41dd-a0d2-b0615901fe53">
          <path
             style="stroke:none;stroke-width:0"
             d="M 4.6875,-3.765625 C 4.703125,-3.8125 4.71875,-3.875 4.71875,-3.9375 c 0,-0.171875 -0.109375,-0.265625 -0.28125,-0.265625 -0.09375,0 -0.375,0.0625 -0.40625,0.421875 -0.1875,-0.359375 -0.53125,-0.625 -0.9375,-0.625 -1.125,0 -2.359375,1.390625 -2.359375,2.828125 0,0.984375 0.59375,1.578125 1.3125,1.578125 0.59375,0 1.0625,-0.46875 1.15625,-0.578125 L 3.21875,-0.5625 C 3.015625,0.3125 2.890625,0.734375 2.890625,0.75 2.84375,0.84375 2.515625,1.828125 1.453125,1.828125 1.265625,1.828125 0.9375,1.8125 0.65625,1.71875 0.953125,1.640625 1.0625,1.375 1.0625,1.203125 c 0,-0.15625 -0.109375,-0.34375 -0.375,-0.34375 -0.21875,0 -0.53125,0.171875 -0.53125,0.578125 0,0.40625 0.359375,0.609375 1.3125,0.609375 1.25,0 1.96875,-0.78125 2.125,-1.375 z M 3.40625,-1.28125 C 3.34375,-1.015625 3.109375,-0.765625 2.890625,-0.578125 2.6875,-0.40625 2.375,-0.21875 2.078125,-0.21875 c -0.5,0 -0.640625,-0.515625 -0.640625,-0.921875 0,-0.46875 0.28125,-1.65625 0.5625,-2.15625 C 2.265625,-3.78125 2.6875,-4.1875 3.109375,-4.1875 c 0.65625,0 0.796875,0.8125 0.796875,0.859375 0,0.046875 -0.015625,0.109375 -0.03125,0.140625 z m 0,0"
             id="id-150ac0d7-7b7c-4a6d-a9c3-a6c0bd338653" />
        </symbol>
        <symbol
           overflow="visible"
           id="id-d52fbd20-a415-4967-87d0-59068dbc0a48">
          <path
             style="stroke:none;stroke-width:0"
             d=""
             id="id-c9b5c38b-c48c-4929-8aa9-3fcb33e0c47c" />
        </symbol>
        <symbol
           overflow="visible"
           id="id-05a38553-9aa7-46b1-9e56-59cd1ed75550">
          <path
             style="stroke:none;stroke-width:0"
             d="m 2.328125,-4.4375 c 0,-0.1875 0,-0.1875 -0.203125,-0.1875 -0.453125,0.4375 -1.078125,0.4375 -1.359375,0.4375 v 0.25 c 0.15625,0 0.625,0 1,-0.1875 v 3.546875 c 0,0.234375 0,0.328125 -0.6875,0.328125 H 0.8125 V 0 c 0.125,0 0.984375,-0.03125 1.234375,-0.03125 0.21875,0 1.09375,0.03125 1.25,0.03125 V -0.25 H 3.03125 c -0.703125,0 -0.703125,-0.09375 -0.703125,-0.328125 z m 0,0"
             id="id-6f87a8e1-fd4f-4e23-a610-bbdb81452874" />
        </symbol>
        <symbol
           overflow="visible"
           id="id-9b2f42f5-ae10-446e-bf0b-3290ffcdff9d">
          <path
             style="stroke:none;stroke-width:0"
             d="M 3.515625,-1.265625 H 3.28125 c -0.015625,0.15625 -0.09375,0.5625 -0.1875,0.625 C 3.046875,-0.59375 2.515625,-0.59375 2.40625,-0.59375 H 1.125 c 0.734375,-0.640625 0.984375,-0.84375 1.390625,-1.171875 0.515625,-0.40625 1,-0.84375 1,-1.5 0,-0.84375 -0.734375,-1.359375 -1.625,-1.359375 -0.859375,0 -1.453125,0.609375 -1.453125,1.25 0,0.34375 0.296875,0.390625 0.375,0.390625 0.15625,0 0.359375,-0.125 0.359375,-0.375 0,-0.125 -0.046875,-0.375 -0.40625,-0.375 C 0.984375,-4.21875 1.453125,-4.375 1.78125,-4.375 c 0.703125,0 1.0625,0.546875 1.0625,1.109375 0,0.609375 -0.4375,1.078125 -0.65625,1.328125 L 0.515625,-0.265625 C 0.4375,-0.203125 0.4375,-0.1875 0.4375,0 h 2.875 z m 0,0"
             id="id-0d54217d-13b8-4af3-bf1a-22ee45eefbc3" />
        </symbol>
        <symbol
           overflow="visible"
           id="id-e3afd300-dde6-48bd-810a-ed9128340dc1">
          <path
             style="stroke:none;stroke-width:0"
             d="m 1.90625,-2.328125 c 0.546875,0 0.9375,0.375 0.9375,1.125 0,0.859375 -0.515625,1.125 -0.90625,1.125 -0.28125,0 -0.90625,-0.078125 -1.1875,-0.5 0.328125,0 0.40625,-0.234375 0.40625,-0.390625 0,-0.21875 -0.171875,-0.375 -0.390625,-0.375 -0.1875,0 -0.390625,0.125 -0.390625,0.40625 0,0.65625 0.71875,1.078125 1.5625,1.078125 0.96875,0 1.640625,-0.65625 1.640625,-1.34375 0,-0.546875 -0.4375,-1.09375 -1.203125,-1.25 0.71875,-0.265625 0.984375,-0.78125 0.984375,-1.21875 0,-0.546875 -0.625,-0.953125 -1.40625,-0.953125 -0.765625,0 -1.359375,0.375 -1.359375,0.9375 0,0.234375 0.15625,0.359375 0.359375,0.359375 0.21875,0 0.359375,-0.15625 0.359375,-0.34375 0,-0.203125 -0.140625,-0.359375 -0.359375,-0.375 0.25,-0.296875 0.71875,-0.375 0.984375,-0.375 0.3125,0 0.75,0.15625 0.75,0.75 0,0.296875 -0.09375,0.625 -0.28125,0.828125 -0.21875,0.265625 -0.421875,0.28125 -0.765625,0.3125 -0.171875,0.015625 -0.1875,0.015625 -0.21875,0.015625 -0.015625,0 -0.078125,0.015625 -0.078125,0.09375 0,0.09375 0.0625,0.09375 0.1875,0.09375 z m 0,0"
             id="id-8d95c53f-3cb0-4f90-a172-ecae22ef7e83" />
        </symbol>
        <symbol
           overflow="visible"
           id="id-e8dbc0fe-0021-4dca-ae00-9372d4e4a41e">
          <path
             style="stroke:none;stroke-width:0"
             d="m 3.6875,-1.140625 v -0.25 H 2.90625 V -4.5 c 0,-0.140625 0,-0.203125 -0.140625,-0.203125 -0.09375,0 -0.125,0 -0.1875,0.109375 l -2.3125,3.203125 v 0.25 h 2.0625 v 0.5625 c 0,0.25 0,0.328125 -0.578125,0.328125 H 1.5625 V 0 C 1.921875,-0.015625 2.359375,-0.03125 2.609375,-0.03125 2.875,-0.03125 3.3125,-0.015625 3.671875,0 v -0.25 h -0.1875 C 2.90625,-0.25 2.90625,-0.328125 2.90625,-0.578125 v -0.5625 z M 2.375,-3.9375 v 2.546875 H 0.53125 Z m 0,0"
             id="id-12817fd7-09f5-4c36-b894-da659ba32a49" />
        </symbol>
        <symbol
           overflow="visible"
           id="id-1bf07b91-87e5-45f1-8e21-fc22a7c08f9a">
          <path
             style="stroke:none;stroke-width:0"
             d="m 1.078125,-3.890625 c 0.359375,0.09375 0.5625,0.09375 0.671875,0.09375 0.921875,0 1.46875,-0.625 1.46875,-0.734375 0,-0.078125 -0.046875,-0.09375 -0.078125,-0.09375 -0.015625,0 -0.03125,0 -0.0625,0.015625 -0.171875,0.0625 -0.53125,0.203125 -1.046875,0.203125 -0.203125,0 -0.5625,-0.015625 -1.015625,-0.1875 C 0.9375,-4.625 0.921875,-4.625 0.921875,-4.625 c -0.09375,0 -0.09375,0.078125 -0.09375,0.1875 v 2.046875 c 0,0.125 0,0.203125 0.109375,0.203125 0.0625,0 0.078125,0 0.140625,-0.09375 0.296875,-0.375 0.734375,-0.4375 0.96875,-0.4375 0.421875,0 0.609375,0.328125 0.640625,0.390625 0.125,0.234375 0.171875,0.5 0.171875,0.90625 0,0.203125 0,0.609375 -0.21875,0.921875 -0.171875,0.25 -0.46875,0.421875 -0.8125,0.421875 -0.453125,0 -0.921875,-0.25 -1.09375,-0.71875 0.265625,0.015625 0.40625,-0.15625 0.40625,-0.34375 0,-0.296875 -0.265625,-0.34375 -0.359375,-0.34375 0,0 -0.34375,0 -0.34375,0.375 0,0.625 0.578125,1.25 1.40625,1.25 0.890625,0 1.671875,-0.65625 1.671875,-1.546875 0,-0.78125 -0.59375,-1.5 -1.453125,-1.5 -0.3125,0 -0.671875,0.0625 -0.984375,0.328125 z m 0,0"
             id="id-8ab39d0e-2b5d-4a84-9fcb-f7633a6d1bce" />
        </symbol>
        <symbol
           overflow="visible"
           id="id-d4c876b1-7b8f-4ed8-836d-63b604bfd7dc">
          <path
             style="stroke:none;stroke-width:0"
             d="m 1.046875,-2.28125 c 0,-0.5625 0.046875,-1.078125 0.3125,-1.515625 0.234375,-0.375 0.609375,-0.625 1.0625,-0.625 0.203125,0 0.484375,0.046875 0.625,0.234375 C 2.875,-4.171875 2.71875,-4.046875 2.71875,-3.84375 c 0,0.171875 0.125,0.328125 0.328125,0.328125 0.21875,0 0.34375,-0.140625 0.34375,-0.34375 0,-0.40625 -0.296875,-0.765625 -0.984375,-0.765625 -1,0 -2.03125,0.921875 -2.03125,2.421875 0,1.796875 0.84375,2.34375 1.625,2.34375 0.84375,0 1.578125,-0.65625 1.578125,-1.5625 0,-0.890625 -0.703125,-1.546875 -1.515625,-1.546875 -0.5625,0 -0.859375,0.375 -1.015625,0.6875 z M 2,-0.078125 c -0.359375,0 -0.625,-0.203125 -0.78125,-0.515625 C 1.125,-0.796875 1.0625,-1.15625 1.0625,-1.5625 c 0,-0.6875 0.40625,-1.203125 0.96875,-1.203125 0.3125,0 0.53125,0.125 0.703125,0.375 0.171875,0.265625 0.171875,0.5625 0.171875,0.96875 0,0.390625 0,0.6875 -0.1875,0.96875 -0.15625,0.234375 -0.390625,0.375 -0.71875,0.375 z m 0,0"
             id="id-731b552c-5ea9-4652-871c-27a3f990fd80" />
        </symbol>
        <symbol
           overflow="visible"
           id="id-d5f3efa9-22e6-4964-939f-989df0ad99c4">
          <path
             style="stroke:none;stroke-width:0"
             d="m 3.734375,-4.203125 c 0.0625,-0.09375 0.0625,-0.109375 0.0625,-0.28125 H 1.96875 C 1.6875,-4.484375 1.609375,-4.5 1.359375,-4.515625 1,-4.546875 0.984375,-4.59375 0.96875,-4.703125 H 0.734375 l -0.25,1.484375 H 0.71875 c 0.015625,-0.109375 0.09375,-0.5625 0.203125,-0.640625 0.046875,-0.03125 0.625,-0.03125 0.71875,-0.03125 H 3.15625 c -0.21875,0.28125 -0.578125,0.71875 -0.71875,0.921875 -0.90625,1.1875 -1,2.296875 -1,2.703125 0,0.078125 0,0.40625 0.328125,0.40625 0.34375,0 0.34375,-0.3125 0.34375,-0.40625 v -0.28125 c 0,-1.34375 0.28125,-1.96875 0.578125,-2.34375 z m 0,0"
             id="id-417e756c-f4f4-437b-bd93-8ce8425c67a3" />
        </symbol>
        <symbol
           overflow="visible"
           id="id-fcfdf05c-39c0-4dd8-99f9-a8ba5c4cc11e">
          <path
             style="stroke:none;stroke-width:0"
             d="m 2.46875,-2.515625 c 0.546875,-0.265625 0.890625,-0.59375 0.890625,-1.078125 0,-0.671875 -0.703125,-1.03125 -1.375,-1.03125 -0.765625,0 -1.390625,0.5 -1.390625,1.15625 0,0.328125 0.15625,0.5625 0.28125,0.703125 0.125,0.15625 0.171875,0.1875 0.578125,0.421875 C 1.0625,-2.171875 0.375,-1.796875 0.375,-1.0625 c 0,0.765625 0.796875,1.203125 1.59375,1.203125 0.890625,0 1.609375,-0.5625 1.609375,-1.3125 0,-0.46875 -0.265625,-0.859375 -0.671875,-1.09375 -0.09375,-0.0625 -0.328125,-0.1875 -0.4375,-0.25 z m -1.125,-0.65625 c -0.1875,-0.109375 -0.375,-0.296875 -0.375,-0.5625 0,-0.4375 0.5,-0.6875 1,-0.6875 0.546875,0 1.03125,0.34375 1.03125,0.828125 0,0.625 -0.734375,0.9375 -0.734375,0.9375 -0.015625,0 -0.03125,0 -0.078125,-0.03125 z m 0.328125,0.96875 0.96875,0.546875 c 0.171875,0.109375 0.515625,0.3125 0.515625,0.71875 0,0.53125 -0.578125,0.859375 -1.171875,0.859375 -0.640625,0 -1.1875,-0.421875 -1.1875,-0.984375 0,-0.515625 0.375,-0.921875 0.875,-1.140625 z m 0,0"
             id="id-cb6319ba-d959-43e3-a1ee-bcfaf6d61354" />
        </symbol>
        <symbol
           overflow="visible"
           id="id-fd868687-2d79-4e62-af4f-3615b6c6503c">
          <path
             style="stroke:none;stroke-width:0"
             d="m 2.90625,-2.078125 c 0,1.734375 -0.84375,2 -1.265625,2 -0.15625,0 -0.53125,-0.015625 -0.71875,-0.234375 0.296875,-0.03125 0.3125,-0.265625 0.3125,-0.328125 0,-0.171875 -0.125,-0.328125 -0.328125,-0.328125 -0.203125,0 -0.328125,0.140625 -0.328125,0.34375 0,0.46875 0.390625,0.765625 1.0625,0.765625 1,0 1.9375,-0.9375 1.9375,-2.4375 C 3.578125,-4.015625 2.8125,-4.625 2,-4.625 c -0.234375,0 -0.703125,0.03125 -1.109375,0.421875 -0.234375,0.234375 -0.515625,0.5 -0.515625,1.125 0,0.890625 0.703125,1.546875 1.515625,1.546875 0.5625,0 0.859375,-0.375 1.015625,-0.6875 z m -0.96875,0.34375 c -0.28125,0 -0.53125,-0.078125 -0.734375,-0.40625 -0.15625,-0.25 -0.15625,-0.546875 -0.15625,-0.9375 0,-0.40625 0,-0.671875 0.203125,-0.953125 0.171875,-0.25 0.390625,-0.390625 0.75,-0.390625 0.359375,0 0.578125,0.21875 0.6875,0.40625 0.1875,0.28125 0.203125,0.78125 0.203125,1.015625 0,0.90625 -0.515625,1.265625 -0.953125,1.265625 z m 0,0"
             id="id-267fe023-4cb2-416b-a5ca-806989a262b5" />
        </symbol>
        <symbol
           overflow="visible"
           id="id-acab8868-ba9e-4f69-8a3e-b22a89795f89">
          <path
             style="stroke:none;stroke-width:0"
             d="M 3.59375,-2.21875 C 3.59375,-2.984375 3.5,-3.546875 3.1875,-4.03125 2.96875,-4.34375 2.53125,-4.625 1.984375,-4.625 c -1.625,0 -1.625,1.90625 -1.625,2.40625 0,0.5 0,2.359375 1.625,2.359375 1.609375,0 1.609375,-1.859375 1.609375,-2.359375 z M 1.984375,-0.0625 c -0.328125,0 -0.75,-0.1875 -0.890625,-0.75 C 1,-1.21875 1,-1.796875 1,-2.3125 1,-2.828125 1,-3.359375 1.09375,-3.734375 1.25,-4.28125 1.6875,-4.4375 1.984375,-4.4375 c 0.375,0 0.734375,0.234375 0.859375,0.640625 0.109375,0.375 0.125,0.875 0.125,1.484375 0,0.515625 0,1.03125 -0.09375,1.46875 -0.140625,0.640625 -0.609375,0.78125 -0.890625,0.78125 z m 0,0"
             id="id-bb47fd4b-d0e2-43d6-b610-d41e9e4ea794" />
        </symbol>
      </g>
    </defs>
  </defs>
  <g
     id="g1240">
    <g
       id="g2305"
       transform="translate(-20.417319,-35.785964)">
      <g
         id="g2195">
        <path
           style="fill:#000000;fill-opacity:1;stroke:none;stroke-width:0"
           d="m 21.85582,48.876999 c -0.08143,-0.16285 -0.203562,-0.2782 -0.400338,-0.2782 -0.502118,0 -1.038163,0.63783 -1.038163,1.26887 0,0.40712 0.237488,0.69211 0.569972,0.69211 0.08821,0 0.305342,-0.0204 0.563186,-0.3257 0.03393,0.1832 0.189991,0.3257 0.393553,0.3257 0.156063,0 0.251059,-0.10178 0.325698,-0.23749 0.06785,-0.15606 0.128922,-0.42069 0.128922,-0.42748 0,-0.0475 -0.04071,-0.0475 -0.05428,-0.0475 -0.04071,0 -0.0475,0.0204 -0.06107,0.0814 -0.07464,0.2782 -0.149279,0.53604 -0.325699,0.53604 -0.122137,0 -0.128922,-0.11535 -0.128922,-0.19677 0,-0.095 0.0068,-0.13571 0.05428,-0.3257 0.0475,-0.17642 0.05428,-0.22392 0.09499,-0.38677 l 0.156064,-0.6039 c 0.02714,-0.12213 0.02714,-0.12892 0.02714,-0.14928 0,-0.0746 -0.0475,-0.11535 -0.122137,-0.11535 -0.108566,0 -0.169635,0.095 -0.183205,0.18999 z m -0.278201,1.11959 c -0.02714,0.0814 -0.02714,0.0882 -0.08821,0.16285 -0.189991,0.23749 -0.36641,0.30534 -0.488547,0.30534 -0.217133,0 -0.278201,-0.23749 -0.278201,-0.40712 0,-0.21713 0.135708,-0.74639 0.237488,-0.94995 0.135708,-0.25106 0.325699,-0.41391 0.502119,-0.41391 0.2782,0 0.339269,0.35284 0.339269,0.37998 0,0.0271 -0.0068,0.0543 -0.01357,0.0746 z m 0,0"
           id="id-e9095110-459a-43eb-89a7-3239be2d8443" />
        <path
           style="fill:#000000;fill-opacity:1;stroke:none;stroke-width:0"
           d="m 33.204758,35.833464 c 0,0 0,-0.0475 -0.0543,-0.0475 -0.095,0 -0.41391,0.0339 -0.52926,0.0475 -0.0339,0 -0.0814,0.007 -0.0814,0.0814 0,0.0543 0.0407,0.0543 0.10857,0.0543 0.20356,0 0.21034,0.0271 0.21034,0.0746 0,0.0271 -0.0339,0.17642 -0.0543,0.26463 l -0.35962,1.41136 c -0.0475,0.21713 -0.0679,0.29177 -0.0679,0.44105 0,0.40712 0.2307,0.67854 0.54961,0.67854 0.50891,0 1.04495,-0.64461 1.04495,-1.26887 0,-0.39355 -0.2307,-0.69211 -0.57675,-0.69211 -0.19678,0 -0.37999,0.12892 -0.50891,0.25785 z m -0.40034,1.63528 c 0.0204,-0.095 0.0204,-0.10178 0.0611,-0.14928 0.21035,-0.2782 0.40713,-0.34605 0.52248,-0.34605 0.15606,0 0.27141,0.12892 0.27141,0.40712 0,0.25785 -0.14249,0.75318 -0.22391,0.91603 -0.1425,0.29177 -0.33927,0.44783 -0.50891,0.44783 -0.14928,0 -0.29177,-0.11535 -0.29177,-0.43426 0,-0.0882 0,-0.16964 0.0678,-0.44105 z m 0,0"
           id="id-4c83d445-e02f-4786-82e1-cd5d9bf7efd3" />
        <path
           style="fill:#000000;fill-opacity:1;stroke:none;stroke-width:0"
           d="m 33.45688,61.111564 c -0.0746,0 -0.12892,0 -0.18999,0.0543 -0.0746,0.0679 -0.0814,0.14249 -0.0814,0.16964 0,0.10856 0.0814,0.15606 0.16285,0.15606 0.12213,0 0.23749,-0.10857 0.23749,-0.2782 0,-0.21035 -0.20357,-0.3732 -0.50891,-0.3732 -0.58354,0 -1.1603,0.61747 -1.1603,1.22816 0,0.39355 0.25106,0.73282 0.70568,0.73282 0.61747,0 0.9771,-0.46141 0.9771,-0.50891 0,-0.0271 -0.0204,-0.0611 -0.0475,-0.0611 -0.0271,0 -0.0339,0.0136 -0.0611,0.0475 -0.33927,0.42748 -0.81425,0.42748 -0.86175,0.42748 -0.27141,0 -0.39355,-0.21034 -0.39355,-0.47497 0,-0.17642 0.0882,-0.59712 0.23749,-0.86175 0.13571,-0.25106 0.3732,-0.43426 0.61068,-0.43426 0.1425,0 0.31213,0.0543 0.3732,0.17642 z m 0,0"
           id="id-a8011cf7-dbe8-4647-8ab4-1b5096a677c9" />
        <path
           style="fill:#000000;fill-opacity:1;stroke:none;stroke-width:0"
           d="m 45.296368,47.802722 c 0,0 0,-0.0475 -0.0543,-0.0475 -0.0678,0 -0.47498,0.0407 -0.54962,0.0475 -0.0339,0.007 -0.0611,0.0272 -0.0611,0.0814 0,0.0543 0.0407,0.0543 0.10178,0.0543 0.21035,0 0.21713,0.0271 0.21713,0.0746 l -0.0136,0.0882 -0.25784,1.02459 c -0.0814,-0.16285 -0.20356,-0.2782 -0.40034,-0.2782 -0.50212,0 -1.03816,0.63783 -1.03816,1.26887 0,0.40712 0.23749,0.69211 0.56997,0.69211 0.0882,0 0.30534,-0.0204 0.56319,-0.3257 0.0339,0.1832 0.18999,0.3257 0.39355,0.3257 0.15606,0 0.25106,-0.10178 0.3257,-0.23749 0.0678,-0.15606 0.12892,-0.42069 0.12892,-0.42748 0,-0.0475 -0.0407,-0.0475 -0.0543,-0.0475 -0.0407,0 -0.0475,0.0204 -0.0611,0.0814 -0.0746,0.2782 -0.14928,0.53604 -0.3257,0.53604 -0.12214,0 -0.12892,-0.11535 -0.12892,-0.19677 0,-0.10857 0.007,-0.13571 0.0204,-0.21035 z m -0.89567,2.44274 c -0.0271,0.0814 -0.0271,0.0882 -0.0882,0.16285 -0.19,0.23749 -0.36641,0.30534 -0.48855,0.30534 -0.21713,0 -0.2782,-0.23749 -0.2782,-0.40712 0,-0.21713 0.13571,-0.74639 0.23749,-0.94995 0.1357,-0.25106 0.32569,-0.41391 0.50211,-0.41391 0.2782,0 0.33927,0.35284 0.33927,0.37998 0,0.0271 -0.007,0.0543 -0.0136,0.0746 z m 0,0"
           id="id-f159977b-2147-4a6d-8e02-9c0ec8dec057" />
        <g
           id="g2522"
           transform="translate(-54.307866,-116.37808)">
          <path
             style="fill:#000000;fill-opacity:1;stroke:none;stroke-width:0"
             d="m 78.602586,157.56638 c 0.105571,0 0.366718,-0.0111 0.544522,-0.0833 0.250036,-0.10556 0.266704,-0.31671 0.266704,-0.36672 0,-0.15557 -0.133352,-0.30004 -0.377831,-0.30004 -0.394501,0 -0.933466,0.3445 -0.933466,0.96681 0,0.36116 0.211142,0.63898 0.561191,0.63898 0.505627,0 0.800113,-0.37784 0.800113,-0.41673 0,-0.0222 -0.01667,-0.05 -0.0389,-0.05 -0.02222,0 -0.02778,0.0111 -0.05001,0.0389 -0.277818,0.35005 -0.666761,0.35005 -0.705656,0.35005 -0.277817,0 -0.311155,-0.30004 -0.311155,-0.41117 0,-0.0445 0.0056,-0.15002 0.05556,-0.36672 z m -0.16669,-0.0778 c 0.138908,-0.53897 0.505627,-0.59453 0.600085,-0.59453 0.161134,0 0.261148,0.10557 0.261148,0.22225 0,0.37228 -0.566747,0.37228 -0.716768,0.37228 z m 0,0"
             id="id-bf70d35e-ec01-4840-b5e5-ed4d57e94788" />
          <path
             style="fill:#000000;fill-opacity:1;stroke:none;stroke-width:0"
             d="m 80.418221,157.33643 c 0,-0.0667 0,-0.0667 -0.07223,-0.0667 -0.161134,0.15557 -0.383388,0.15557 -0.483402,0.15557 v 0.0889 c 0.05556,0 0.222253,0 0.355606,-0.0667 v 1.26129 c 0,0.0833 0,0.11668 -0.24448,0.11668 h -0.09446 v 0.0889 c 0.04445,0 0.350049,-0.0111 0.438951,-0.0111 0.07778,0 0.388944,0.0111 0.444507,0.0111 v -0.0889 h -0.09446 c -0.250036,0 -0.250036,-0.0333 -0.250036,-0.11668 z m 0,0"
             id="id-f9dfa65d-7f58-4b3b-b15f-970befb15fa2" />
        </g>
        <g
           id="g2526"
           transform="translate(-51.769175,-112.05633)">
          <path
             style="fill:#000000;fill-opacity:1;stroke:none;stroke-width:0"
             d="m 81.840734,157.56638 c 0.105571,0 0.366719,-0.0111 0.544523,-0.0833 0.250035,-0.10556 0.266704,-0.31671 0.266704,-0.36672 0,-0.15557 -0.133352,-0.30004 -0.377832,-0.30004 -0.3945,0 -0.933465,0.3445 -0.933465,0.96681 0,0.36116 0.211141,0.63898 0.561191,0.63898 0.505627,0 0.800113,-0.37784 0.800113,-0.41673 0,-0.0222 -0.01667,-0.05 -0.0389,-0.05 -0.02222,0 -0.02778,0.0111 -0.05001,0.0389 -0.277817,0.35005 -0.666761,0.35005 -0.705655,0.35005 -0.277818,0 -0.311156,-0.30004 -0.311156,-0.41117 0,-0.0445 0.0056,-0.15002 0.05556,-0.36672 z m -0.16669,-0.0778 c 0.138909,-0.53897 0.505628,-0.59453 0.600085,-0.59453 0.161134,0 0.261149,0.10557 0.261149,0.22225 0,0.37228 -0.566748,0.37228 -0.716769,0.37228 z m 0,0"
             id="id-5534caad-be46-440c-b963-aa6962edf97d" />
          <path
             style="fill:#000000;fill-opacity:1;stroke:none;stroke-width:0"
             d="m 84.079364,158.46437 h -0.08335 c -0.0056,0.0556 -0.03334,0.20003 -0.06667,0.22226 -0.01667,0.0167 -0.205585,0.0167 -0.244479,0.0167 h -0.455621 c 0.261149,-0.22782 0.35005,-0.30005 0.494515,-0.41673 0.18336,-0.14446 0.355607,-0.30004 0.355607,-0.5334 0,-0.30005 -0.261149,-0.48341 -0.577861,-0.48341 -0.305599,0 -0.516739,0.2167 -0.516739,0.44451 0,0.12224 0.10557,0.13891 0.133352,0.13891 0.05556,0 0.127796,-0.0445 0.127796,-0.13336 0,-0.0445 -0.01667,-0.13335 -0.144465,-0.13335 0.07779,-0.17224 0.244479,-0.22781 0.361162,-0.22781 0.250036,0 0.377831,0.19447 0.377831,0.39451 0,0.21669 -0.155577,0.38338 -0.233366,0.47228 l -0.594528,0.59453 c -0.02779,0.0222 -0.02779,0.0278 -0.02779,0.0945 h 1.022368 z m 0,0"
             id="id-52d37392-3728-417a-9601-692e73cf2ce9" />
        </g>
        <g
           id="g2534"
           transform="translate(-49.99435,-113.73493)">
          <path
             style="fill:#000000;fill-opacity:1;stroke:none;stroke-width:0"
             d="m 88.31881,157.56638 c 0.105571,0 0.366719,-0.0111 0.544522,-0.0833 0.250036,-0.10556 0.266705,-0.31671 0.266705,-0.36672 0,-0.15557 -0.133353,-0.30004 -0.377832,-0.30004 -0.3945,0 -0.933466,0.3445 -0.933466,0.96681 0,0.36116 0.211142,0.63898 0.561191,0.63898 0.505627,0 0.800113,-0.37784 0.800113,-0.41673 0,-0.0222 -0.01667,-0.05 -0.0389,-0.05 -0.02222,0 -0.02778,0.0111 -0.05001,0.0389 -0.277818,0.35005 -0.666761,0.35005 -0.705656,0.35005 -0.277817,0 -0.311155,-0.30004 -0.311155,-0.41117 0,-0.0445 0.0056,-0.15002 0.05556,-0.36672 z m -0.16669,-0.0778 c 0.138908,-0.53897 0.505628,-0.59453 0.600085,-0.59453 0.161134,0 0.261148,0.10557 0.261148,0.22225 0,0.37228 -0.566747,0.37228 -0.716768,0.37228 z m 0,0"
             id="id-e8362383-e3ac-48f8-bf6a-5776e454c597" />
          <path
             style="fill:#000000;fill-opacity:1;stroke:none;stroke-width:0"
             d="m 90.618203,158.50883 v -0.0889 h -0.277817 v -1.10571 c 0,-0.05 0,-0.0722 -0.05001,-0.0722 -0.03334,0 -0.04445,0 -0.06667,0.0389 l -0.822339,1.13905 v 0.0889 h 0.733438 v 0.20003 c 0,0.0889 0,0.11668 -0.205585,0.11668 h -0.06668 v 0.0889 c 0.127797,-0.006 0.283374,-0.0111 0.372276,-0.0111 0.09446,0 0.250035,0.006 0.377831,0.0111 v -0.0889 h -0.06667 c -0.205584,0 -0.205584,-0.0278 -0.205584,-0.11668 v -0.20003 z m -0.466733,-0.9946 v 0.90569 h -0.655648 z m 0,0"
             id="id-b29d34e4-0332-4828-bb06-77101583833c" />
        </g>
        <g
           id="g2538"
           transform="translate(-53.057195,-102.54199)">
          <path
             style="fill:#000000;fill-opacity:1;stroke:none;stroke-width:0"
             d="m 91.55767,157.56638 c 0.105571,0 0.366719,-0.0111 0.544522,-0.0833 0.250036,-0.10556 0.266705,-0.31671 0.266705,-0.36672 0,-0.15557 -0.133352,-0.30004 -0.377832,-0.30004 -0.3945,0 -0.933466,0.3445 -0.933466,0.96681 0,0.36116 0.211142,0.63898 0.561192,0.63898 0.505626,0 0.800112,-0.37784 0.800112,-0.41673 0,-0.0222 -0.01667,-0.05 -0.0389,-0.05 -0.02222,0 -0.02778,0.0111 -0.05001,0.0389 -0.277817,0.35005 -0.666761,0.35005 -0.705656,0.35005 -0.277817,0 -0.311155,-0.30004 -0.311155,-0.41117 0,-0.0445 0.0056,-0.15002 0.05556,-0.36672 z m -0.16669,-0.0778 c 0.138908,-0.53897 0.505628,-0.59453 0.600085,-0.59453 0.161134,0 0.261148,0.10557 0.261148,0.22225 0,0.37228 -0.566747,0.37228 -0.716768,0.37228 z m 0,0"
             id="id-5e8a3582-079d-4010-adda-fe8349dbb494" />
          <path
             style="fill:#000000;fill-opacity:1;stroke:none;stroke-width:0"
             d="m 92.929509,157.53091 c 0.127796,0.0333 0.200029,0.0333 0.238923,0.0333 0.327824,0 0.522296,-0.22225 0.522296,-0.26114 0,-0.0278 -0.01667,-0.0333 -0.02778,-0.0333 -0.0056,0 -0.01111,0 -0.02222,0.006 -0.06112,0.0222 -0.188916,0.0722 -0.372275,0.0722 -0.07223,0 -0.200029,-0.006 -0.361163,-0.0667 -0.02778,-0.0111 -0.03334,-0.0111 -0.03334,-0.0111 -0.03334,0 -0.03334,0.0278 -0.03334,0.0667 v 0.72789 c 0,0.0445 0,0.0722 0.0389,0.0722 0.02222,0 0.02778,0 0.05001,-0.0333 0.105571,-0.13334 0.261148,-0.15558 0.344493,-0.15558 0.150022,0 0.216698,0.11669 0.22781,0.13892 0.04445,0.0833 0.06112,0.1778 0.06112,0.32226 0,0.0722 0,0.2167 -0.07779,0.32783 -0.06112,0.0889 -0.16669,0.15002 -0.288929,0.15002 -0.161134,0 -0.327825,-0.0889 -0.388945,-0.25559 0.09446,0.006 0.144465,-0.0556 0.144465,-0.12224 0,-0.10558 -0.09446,-0.12224 -0.127796,-0.12224 0,0 -0.122239,0 -0.122239,0.13335 0,0.22225 0.205585,0.44451 0.500071,0.44451 0.316712,0 0.594529,-0.23337 0.594529,-0.55008 0,-0.27781 -0.211142,-0.53341 -0.516741,-0.53341 -0.111126,0 -0.238922,0.0222 -0.35005,0.11668 z m 0,0"
             id="id-336ed9cf-b1f5-4519-a206-4707d23fc9d3" />
        </g>
        <g
           id="g2542"
           transform="translate(-70.370978,-100.69352)">
          <path
             style="fill:#000000;fill-opacity:1;stroke:none;stroke-width:0"
             d="m 94.79653,157.56638 c 0.105571,0 0.366719,-0.0111 0.544523,-0.0833 0.250035,-0.10556 0.266704,-0.31671 0.266704,-0.36672 0,-0.15557 -0.133352,-0.30004 -0.377832,-0.30004 -0.3945,0 -0.933466,0.3445 -0.933466,0.96681 0,0.36116 0.211142,0.63898 0.561192,0.63898 0.505626,0 0.800113,-0.37784 0.800113,-0.41673 0,-0.0222 -0.01667,-0.05 -0.0389,-0.05 -0.02222,0 -0.02778,0.0111 -0.05001,0.0389 -0.277817,0.35005 -0.666761,0.35005 -0.705656,0.35005 -0.277817,0 -0.311155,-0.30004 -0.311155,-0.41117 0,-0.0445 0.0056,-0.15002 0.05556,-0.36672 z m -0.16669,-0.0778 c 0.138908,-0.53897 0.505628,-0.59453 0.600085,-0.59453 0.161134,0 0.261149,0.10557 0.261149,0.22225 0,0.37228 -0.566748,0.37228 -0.716769,0.37228 z m 0,0"
             id="id-e70b270e-4970-4617-bd29-3542a7af0d12" />
          <path
             style="fill:#000000;fill-opacity:1;stroke:none;stroke-width:0"
             d="m 96.15726,158.10321 c 0,-0.20003 0.01662,-0.38339 0.11112,-0.53897 0.08335,-0.13335 0.216698,-0.22225 0.377835,-0.22225 0.07222,0 0.172249,0.0167 0.222258,0.0833 -0.06109,0.006 -0.116689,0.05 -0.116689,0.12224 0,0.0611 0.04446,0.11668 0.116689,0.11668 0.07779,0 0.122232,-0.05 0.122232,-0.12224 0,-0.14447 -0.105568,-0.27226 -0.35005,-0.27226 -0.355603,0 -0.722321,0.32782 -0.722321,0.86123 0,0.63898 0.300046,0.83345 0.577856,0.83345 0.30005,0 0.561196,-0.23337 0.561196,-0.55563 0,-0.31672 -0.250034,-0.55008 -0.538964,-0.55008 -0.200033,0 -0.305602,0.13336 -0.361162,0.24448 z m 0.33893,0.78344 c -0.127793,0 -0.22225,-0.0722 -0.27781,-0.18335 -0.03333,-0.0722 -0.0556,-0.20003 -0.0556,-0.3445 0,-0.24447 0.144465,-0.42784 0.344498,-0.42784 0.111121,0 0.188914,0.0445 0.250034,0.13336 0.06109,0.0944 0.06109,0.20002 0.06109,0.34449 0,0.1389 0,0.24448 -0.06666,0.34449 -0.05552,0.0833 -0.138905,0.13335 -0.255594,0.13335 z m 0,0"
             id="id-05d463d3-91c7-4e92-85a0-1c807deaa089" />
        </g>
        <g
           id="g2546"
           transform="translate(-68.503307,-105.01041)">
          <path
             style="fill:#000000;fill-opacity:1;stroke:none;stroke-width:0"
             d="m 98.035387,157.56638 c 0.105569,0 0.366723,-0.0111 0.544524,-0.0833 0.250034,-0.10556 0.266706,-0.31671 0.266706,-0.36672 0,-0.15557 -0.133353,-0.30004 -0.377835,-0.30004 -0.394499,0 -0.933463,0.3445 -0.933463,0.96681 0,0.36116 0.211138,0.63898 0.561188,0.63898 0.505628,0 0.80011,-0.37784 0.80011,-0.41673 0,-0.0222 -0.01671,-0.05 -0.0389,-0.05 -0.02219,0 -0.02776,0.0111 -0.05003,0.0389 -0.277818,0.35005 -0.666765,0.35005 -0.705661,0.35005 -0.27781,0 -0.311155,-0.30004 -0.311155,-0.41117 0,-0.0445 0.0057,-0.15002 0.0556,-0.36672 z m -0.166689,-0.0778 c 0.138905,-0.53897 0.505627,-0.59453 0.600084,-0.59453 0.161137,0 0.261146,0.10557 0.261146,0.22225 0,0.37228 -0.566748,0.37228 -0.716765,0.37228 z m 0,0"
             id="id-030b6fbc-fac4-4324-a3a2-c11129153075" />
          <path
             style="fill:#000000;fill-opacity:1;stroke:none;stroke-width:0"
             d="m 100.35181,157.41978 c 0.0222,-0.0333 0.0222,-0.0389 0.0222,-0.10001 h -0.650097 c -0.100016,0 -0.127801,-0.006 -0.216697,-0.0111 -0.127801,-0.0111 -0.133353,-0.0278 -0.138913,-0.0666 h -0.08334 l -0.0889,0.52785 h 0.08334 c 0.0057,-0.0389 0.03333,-0.20003 0.07222,-0.22781 0.01671,-0.0111 0.22225,-0.0111 0.255586,-0.0111 h 0.538971 c -0.0778,0.10002 -0.205584,0.2556 -0.255593,0.32783 -0.322266,0.42228 -0.355602,0.81678 -0.355602,0.96124 0,0.0278 0,0.14447 0.116681,0.14447 0.122241,0 0.122241,-0.11113 0.122241,-0.14447 v -0.10001 c 0,-0.47785 0.100008,-0.7001 0.205585,-0.83346 z m 0,0"
             id="id-1eb3020f-c8a6-42e0-b48d-54c32a6af497" />
        </g>
        <g
           id="g2166"
           transform="matrix(1.5656855,0,0,1.5656855,-14.566326,-27.341541)">
          <path
             style="fill:none;stroke:#000000;stroke-width:0.264583px;stroke-linecap:butt;stroke-linejoin:miter;stroke-opacity:1;marker-start:url(#DotM);marker-mid:url(#DotM)"
             d="m 30.370673,54.82516 5.61266,-5.61266 -5.61266,-5.61266 -5.61266,5.61266 z"
             id="path1257" />
          <path
             style="fill:none;stroke:#000000;stroke-width:0.264583px;stroke-linecap:butt;stroke-linejoin:miter;stroke-opacity:1"
             d="m 24.870833,49.2125 h 11.1125"
             id="path1372"
             sodipodi:nodetypes="cc" />
          <path
             style="fill:none;stroke:#000000;stroke-width:0.264583px;stroke-linecap:butt;stroke-linejoin:miter;stroke-opacity:1;marker-start:url(#DotM)"
             d="m 30.427083,43.65625 c 0,0 -5.55625,0.264583 -5.55625,5.55625"
             id="path1374"
             sodipodi:nodetypes="cc" />
          <path
             style="fill:none;stroke:#000000;stroke-width:0.264583px;stroke-linecap:butt;stroke-linejoin:miter;stroke-opacity:1"
             d="m 24.870833,49.2125 c 0,0 -0.529166,4.497917 5.55625,5.55625"
             id="path1886"
             sodipodi:nodetypes="cc" />
        </g>
      </g>
    </g>
    <g
       transform="matrix(0.35748401,0,0,0.35748401,14.184813,11.252221)"
       ns2:version="1.3.1"
       ns2:texconverter="pdflatex"
       ns2:pdfconverter="inkscape"
       ns2:text="$e_3$\n"
       ns2:preamble="/Users/ketiboldiais/Library/Application Support/org.inkscape.Inkscape/config/inkscape/extensions/circuitSymbols/circuitSymbolsPreamble.tex"
       ns2:scale="2.0110554948965156"
       ns2:alignment="middle center"
       ns2:inkscapeversion="1.1"
       ns2:jacobian_sqrt="0.709456"
       id="g1153">
      <defs
         id="id-0bd4c55c-3a99-4894-9ced-97c73aafce2c">
        <g
           id="id-4664544c-a7e6-47e9-ac99-a889fadb334f">
          <symbol
             overflow="visible"
             id="id-c906f88a-87da-48df-b657-c5dd4f67ca1e">
            <path
               style="stroke:none;stroke-width:0"
               d=""
               id="id-04598f58-9bfd-40e1-8c6d-006c57bd9761" />
          </symbol>
          <symbol
             overflow="visible"
             id="id-4271e0da-47c9-46d4-949d-4846a8f2a03d">
            <path
               style="stroke:none;stroke-width:0"
               d="m 1.859375,-2.296875 c 0.296875,0 1.03125,-0.03125 1.53125,-0.234375 0.703125,-0.296875 0.75,-0.890625 0.75,-1.03125 0,-0.4375 -0.375,-0.84375 -1.0625,-0.84375 -1.109375,0 -2.625,0.96875 -2.625,2.71875 0,1.015625 0.59375,1.796875 1.578125,1.796875 1.421875,0 2.25,-1.0625 2.25,-1.171875 0,-0.0625 -0.046875,-0.140625 -0.109375,-0.140625 -0.0625,0 -0.078125,0.03125 -0.140625,0.109375 -0.78125,0.984375 -1.875,0.984375 -1.984375,0.984375 -0.78125,0 -0.875,-0.84375 -0.875,-1.15625 0,-0.125 0.015625,-0.421875 0.15625,-1.03125 z m -0.46875,-0.21875 C 1.78125,-4.03125 2.8125,-4.1875 3.078125,-4.1875 c 0.453125,0 0.734375,0.296875 0.734375,0.625 0,1.046875 -1.59375,1.046875 -2.015625,1.046875 z m 0,0"
               id="id-ad23f5e8-fd3c-4b21-9cc2-1dd3b44f7603" />
          </symbol>
          <symbol
             overflow="visible"
             id="id-ab06ac1c-f29d-4382-ba57-ec890c9df586">
            <path
               style="stroke:none;stroke-width:0"
               d=""
               id="id-987d6ef2-8d51-45eb-8739-7012df40686a" />
          </symbol>
          <symbol
             overflow="visible"
             id="id-5374831d-9c01-4fc7-8019-9fb1bef6a340">
            <path
               style="stroke:none;stroke-width:0"
               d="m 1.90625,-2.328125 c 0.546875,0 0.9375,0.375 0.9375,1.125 0,0.859375 -0.515625,1.125 -0.90625,1.125 -0.28125,0 -0.90625,-0.078125 -1.1875,-0.5 0.328125,0 0.40625,-0.234375 0.40625,-0.390625 0,-0.21875 -0.171875,-0.375 -0.390625,-0.375 -0.1875,0 -0.390625,0.125 -0.390625,0.40625 0,0.65625 0.71875,1.078125 1.5625,1.078125 0.96875,0 1.640625,-0.65625 1.640625,-1.34375 0,-0.546875 -0.4375,-1.09375 -1.203125,-1.25 0.71875,-0.265625 0.984375,-0.78125 0.984375,-1.21875 0,-0.546875 -0.625,-0.953125 -1.40625,-0.953125 -0.765625,0 -1.359375,0.375 -1.359375,0.9375 0,0.234375 0.15625,0.359375 0.359375,0.359375 0.21875,0 0.359375,-0.15625 0.359375,-0.34375 0,-0.203125 -0.140625,-0.359375 -0.359375,-0.375 0.25,-0.296875 0.71875,-0.375 0.984375,-0.375 0.3125,0 0.75,0.15625 0.75,0.75 0,0.296875 -0.09375,0.625 -0.28125,0.828125 -0.21875,0.265625 -0.421875,0.28125 -0.765625,0.3125 -0.171875,0.015625 -0.1875,0.015625 -0.21875,0.015625 -0.015625,0 -0.078125,0.015625 -0.078125,0.09375 0,0.09375 0.0625,0.09375 0.1875,0.09375 z m 0,0"
               id="id-daa03262-2095-4ffb-9584-2fcda431729d" />
          </symbol>
        </g>
      </defs>
      <g
         id="id-8eb1868d-a36a-49cb-a29e-ba857ff1bf28"
         transform="translate(-149.165,-130.359)">
        <g
           style="fill:#000000;fill-opacity:1"
           id="id-cf2ffc93-8ef2-4d2f-a8f9-16f570088fc9">
          <g
             transform="translate(148.712,134.765)"
             id="g1145">
            <path
               style="stroke:none;stroke-width:0"
               d="m 1.859375,-2.296875 c 0.296875,0 1.03125,-0.03125 1.53125,-0.234375 0.703125,-0.296875 0.75,-0.890625 0.75,-1.03125 0,-0.4375 -0.375,-0.84375 -1.0625,-0.84375 -1.109375,0 -2.625,0.96875 -2.625,2.71875 0,1.015625 0.59375,1.796875 1.578125,1.796875 1.421875,0 2.25,-1.0625 2.25,-1.171875 0,-0.0625 -0.046875,-0.140625 -0.109375,-0.140625 -0.0625,0 -0.078125,0.03125 -0.140625,0.109375 -0.78125,0.984375 -1.875,0.984375 -1.984375,0.984375 -0.78125,0 -0.875,-0.84375 -0.875,-1.15625 0,-0.125 0.015625,-0.421875 0.15625,-1.03125 z m -0.46875,-0.21875 C 1.78125,-4.03125 2.8125,-4.1875 3.078125,-4.1875 c 0.453125,0 0.734375,0.296875 0.734375,0.625 0,1.046875 -1.59375,1.046875 -2.015625,1.046875 z m 0,0"
               id="id-9b8ba13a-4302-4164-af37-8f91bd564c2d" />
          </g>
        </g>
        <g
           style="fill:#000000;fill-opacity:1"
           id="id-fad483b5-e3a3-4bfc-b2e9-55f3b6515716">
          <g
             transform="translate(153.351,136.259)"
             id="g1149">
            <path
               style="stroke:none;stroke-width:0"
               d="m 1.90625,-2.328125 c 0.546875,0 0.9375,0.375 0.9375,1.125 0,0.859375 -0.515625,1.125 -0.90625,1.125 -0.28125,0 -0.90625,-0.078125 -1.1875,-0.5 0.328125,0 0.40625,-0.234375 0.40625,-0.390625 0,-0.21875 -0.171875,-0.375 -0.390625,-0.375 -0.1875,0 -0.390625,0.125 -0.390625,0.40625 0,0.65625 0.71875,1.078125 1.5625,1.078125 0.96875,0 1.640625,-0.65625 1.640625,-1.34375 0,-0.546875 -0.4375,-1.09375 -1.203125,-1.25 0.71875,-0.265625 0.984375,-0.78125 0.984375,-1.21875 0,-0.546875 -0.625,-0.953125 -1.40625,-0.953125 -0.765625,0 -1.359375,0.375 -1.359375,0.9375 0,0.234375 0.15625,0.359375 0.359375,0.359375 0.21875,0 0.359375,-0.15625 0.359375,-0.34375 0,-0.203125 -0.140625,-0.359375 -0.359375,-0.375 0.25,-0.296875 0.71875,-0.375 0.984375,-0.375 0.3125,0 0.75,0.15625 0.75,0.75 0,0.296875 -0.09375,0.625 -0.28125,0.828125 -0.21875,0.265625 -0.421875,0.28125 -0.765625,0.3125 -0.171875,0.015625 -0.1875,0.015625 -0.21875,0.015625 -0.015625,0 -0.078125,0.015625 -0.078125,0.09375 0,0.09375 0.0625,0.09375 0.1875,0.09375 z m 0,0"
               id="id-0a118d37-4fbf-40c2-83d2-b3a4c7694426" />
          </g>
        </g>
      </g>
    </g>
  </g>
</svg>
