<?xml version="1.0" encoding="UTF-8" standalone="no"?>
<!-- Created with Inkscape (http://www.inkscape.org/) -->

<svg
   width="33.730228mm"
   height="30.523853mm"
   viewBox="0 0 33.730228 30.523854"
   version="1.1"
   id="svg5"
   sodipodi:docname="leaf.svg"
   inkscape:version="1.1 (c4e8f9e, 2021-05-24)"
   xmlns:inkscape="http://www.inkscape.org/namespaces/inkscape"
   xmlns:sodipodi="http://sodipodi.sourceforge.net/DTD/sodipodi-0.dtd"
   xmlns="http://www.w3.org/2000/svg"
   xmlns:svg="http://www.w3.org/2000/svg">
  <sodipodi:namedview
     id="namedview881"
     pagecolor="#ffffff"
     bordercolor="#666666"
     borderopacity="1.0"
     inkscape:pageshadow="2"
     inkscape:pageopacity="0.0"
     inkscape:pagecheckerboard="0"
     inkscape:document-units="mm"
     showgrid="false"
     inkscape:zoom="2.1919541"
     inkscape:cx="92.383321"
     inkscape:cy="39.462505"
     inkscape:window-width="1440"
     inkscape:window-height="847"
     inkscape:window-x="1650"
     inkscape:window-y="45"
     inkscape:window-maximized="0"
     inkscape:current-layer="svg5">
    <inkscape:grid
       type="xygrid"
       id="grid1258"
       originx="-17.530722"
       originy="-2.9739509" />
  </sodipodi:namedview>
  <defs
     id="defs2">
    <marker
       style="overflow:visible"
       id="DotS"
       refX="0"
       refY="0"
       orient="auto">
      <path
         transform="matrix(0.2,0,0,0.2,1.48,0.2)"
         style="fill:context-stroke;fill-rule:evenodd;stroke:context-stroke;stroke-width:1pt"
         d="m -2.5,-1 c 0,2.76 -2.24,5 -5,5 -2.76,0 -5,-2.24 -5,-5 0,-2.76 2.24,-5 5,-5 2.76,0 5,2.24 5,5 z"
         id="path1900" />
    </marker>
    <marker
       style="overflow:visible"
       id="DotM"
       refX="0"
       refY="0"
       orient="auto">
      <path
         transform="matrix(0.4,0,0,0.4,2.96,0.4)"
         style="fill:context-stroke;fill-rule:evenodd;stroke:context-stroke;stroke-width:1pt"
         d="m -2.5,-1 c 0,2.76 -2.24,5 -5,5 -2.76,0 -5,-2.24 -5,-5 0,-2.76 2.24,-5 5,-5 2.76,0 5,2.24 5,5 z"
         id="path1897" />
    </marker>
  </defs>
  <g
     id="path2142"
     style="fill:#b88100">
    <path
       style="color:#000000;fill:#b88100;-inkscape-stroke:none"
       d="m 23.175781,10.316406 -6.482422,6.482422 v 12.933594 h 0.34375 V 16.941406 l 6.38086,-6.380859 z"
       id="path1943" />
    <g
       id="g1911"
       style="fill:#b88100">
      <g
         id="path1933"
         style="fill:#b88100">
        <path
           style="color:#000000;fill:#b88100;fill-rule:evenodd;stroke-width:0.1372pt;-inkscape-stroke:none"
           d="m 23.771919,9.9629735 c 0.267762,0.2677615 0.267763,0.7023885 2e-6,0.9701505 -0.267762,0.267762 -0.702389,0.267763 -0.970151,2e-6 -0.267762,-0.267762 -0.267763,-0.702389 -1e-6,-0.970151 0.267761,-0.2677619 0.702388,-0.2677626 0.97015,-1.5e-6 z"
           id="path1937" />
        <path
           style="color:#000000;fill:#b88100;fill-rule:evenodd;-inkscape-stroke:none"
           d="m 22.736328,9.8984375 c -0.302756,0.3027555 -0.302756,0.7968535 0,1.0996095 0.302756,0.302755 0.796854,0.302756 1.099609,0 0.302755,-0.302756 0.302756,-0.796854 0,-1.0996095 -0.302755,-0.3027549 -0.796854,-0.3027558 -1.099609,0 z m 0.130859,0.1289065 c 0.232767,-0.2327677 0.607077,-0.2327671 0.839844,0 0.232768,0.232767 0.232767,0.609029 0,0.841797 -0.232768,0.232767 -0.607076,0.232766 -0.839844,0 -0.232767,-0.232768 -0.232767,-0.60903 0,-0.841797 z"
           id="path1939" />
      </g>
      <g
         id="path1923"
         style="fill:#b88100">
        <path
           style="color:#000000;fill:#b88100;fill-rule:evenodd;stroke-width:0.1372pt;-inkscape-stroke:none"
           d="m 17.122384,16.248694 c 0.349847,0.144911 0.516172,0.546455 0.371261,0.896302 -0.144911,0.349847 -0.546454,0.516172 -0.896302,0.371261 -0.349847,-0.144911 -0.516172,-0.546454 -0.371261,-0.896302 0.144911,-0.349847 0.546455,-0.516172 0.896302,-0.371261 z"
           id="path1927" />
        <path
           style="color:#000000;fill:#b88100;fill-rule:evenodd;-inkscape-stroke:none"
           d="m 17.158203,16.164062 c -0.395569,-0.163849 -0.853728,0.02435 -1.017578,0.419922 -0.163849,0.39557 0.02631,0.853729 0.421875,1.017578 0.39557,0.16385 0.851775,-0.02631 1.015625,-0.421875 0.16385,-0.395568 -0.02435,-0.851775 -0.419922,-1.015625 z m -0.07031,0.169922 c 0.304124,0.125973 0.446284,0.471266 0.320312,0.775391 -0.125972,0.304125 -0.471265,0.448238 -0.775391,0.322266 -0.304124,-0.125973 -0.448237,-0.473218 -0.322265,-0.777344 0.125972,-0.304125 0.473219,-0.446285 0.777344,-0.320313 z"
           id="path1929" />
      </g>
      <g
         id="path1913"
         style="fill:#b88100">
        <path
           style="color:#000000;fill:#b9e397;fill-rule:evenodd;stroke-width:0.1372pt;-inkscape-stroke:none;fill-opacity:1"
           d="m 16.865114,29.060386 c 0.378672,0 0.686,0.307328 0.686,0.686 0,0.378672 -0.307328,0.686 -0.686,0.686 -0.378672,0 -0.686,-0.307328 -0.686,-0.686 0,-0.378672 0.307328,-0.686 0.686,-0.686 z"
           id="path1917" />
        <path
           style="color:#000000;fill:#b88100;fill-rule:evenodd;-inkscape-stroke:none"
           d="m 16.865234,28.96875 c -0.42816,0 -0.777343,0.349183 -0.777343,0.777344 0,0.428161 0.349183,0.777344 0.777343,0.777343 0.428161,0 0.777344,-0.349182 0.777344,-0.777343 0,-0.428161 -0.349183,-0.777344 -0.777344,-0.777344 z m 0,0.183594 c 0.329183,0 0.59375,0.264567 0.59375,0.59375 0,0.329182 -0.264567,0.595703 -0.59375,0.595703 -0.329182,0 -0.59375,-0.266521 -0.59375,-0.595703 0,-0.329183 0.264568,-0.59375 0.59375,-0.59375 z"
           id="path1919" />
      </g>
    </g>
  </g>
  <g
     id="path2144"
     style="fill:#b88100">
    <path
       style="color:#000000;fill:#b88100;-inkscape-stroke:none"
       d="m 10.554688,10.316406 -0.242188,0.244141 6.431641,6.429687 0.242187,-0.242187 z"
       id="path1905" />
    <g
       id="g1883"
       style="fill:#b88100">
      <g
         id="path1895"
         style="fill:#b88100">
        <path
           style="color:#000000;fill:#b88100;fill-rule:evenodd;stroke-width:0.1372pt;-inkscape-stroke:none"
           d="m 9.958308,9.9629736 c 0.267762,-0.2677612 0.702389,-0.2677605 0.97015,1.4e-6 0.267762,0.267762 0.267761,0.702389 -10e-7,0.97015 -0.267762,0.267762 -0.702389,0.267761 -0.9701505,-1e-6 -0.2677611,-0.267762 -0.2677605,-0.702389 1.5e-6,-0.9701504 z"
           id="path1899" />
        <path
           style="color:#000000;fill:#b88100;fill-rule:evenodd;-inkscape-stroke:none"
           d="m 9.8945313,9.8984375 c -0.3027559,0.3027555 -0.3027549,0.7968535 0,1.0996095 0.3027547,0.302756 0.7949007,0.302756 1.0976567,0 0.302755,-0.302755 0.302755,-0.796854 0,-1.0996095 -0.302755,-0.3027558 -0.794901,-0.302755 -1.0976567,0 z m 0.1289067,0.1289065 c 0.232767,-0.2327672 0.607077,-0.2327677 0.839843,0 0.232768,0.232767 0.232768,0.60903 0,0.841797 -0.232767,0.232767 -0.607076,0.232767 -0.839843,0 -0.2327673,-0.232768 -0.2327681,-0.60903 0,-0.841797 z"
           id="path1901" />
      </g>
      <g
         id="path1885"
         style="fill:#b88100">
        <path
           style="color:#000000;fill:#b88100;fill-rule:evenodd;stroke-width:0.1372pt;-inkscape-stroke:none"
           d="m 16.389741,16.394426 c 0.267762,-0.267762 0.702389,-0.267761 0.97015,1e-6 0.267762,0.267762 0.267761,0.702389 -1e-6,0.97015 -0.267762,0.267762 -0.702389,0.267761 -0.97015,-1e-6 -0.267762,-0.267762 -0.267761,-0.702389 1e-6,-0.97015 z"
           id="path1889" />
        <path
           style="color:#000000;fill:#b88100;fill-rule:evenodd;-inkscape-stroke:none"
           d="m 16.324219,16.330078 c -0.302756,0.302755 -0.302756,0.796854 0,1.099609 0.302754,0.302756 0.796853,0.302756 1.099609,0 0.302756,-0.302754 0.302756,-0.796853 0,-1.099609 -0.302755,-0.302756 -0.796853,-0.302756 -1.099609,0 z m 0.130859,0.128906 c 0.232768,-0.232767 0.607077,-0.232767 0.839844,0 0.232768,0.232768 0.232767,0.609031 0,0.841797 -0.232768,0.232768 -0.607077,0.232768 -0.839844,0 -0.232768,-0.232767 -0.232767,-0.60903 0,-0.841797 z"
           id="path1891" />
      </g>
    </g>
  </g>
  <g
     id="path2146"
     style="fill:#b88100">
    <path
       style="color:#000000;fill:#b88100;-inkscape-stroke:none"
       d="M 29.607422,3.8847656 23.46875,10.023438 V 4.0078125 H 23.125 v 6.8437505 l 6.724609,-6.7226568 z"
       id="path1877" />
    <g
       id="g1845"
       style="fill:#b88100">
      <g
         id="path1867"
         style="fill:#b88100">
        <path
           style="color:#000000;fill:#b88100;fill-rule:evenodd;stroke-width:0.1372pt;-inkscape-stroke:none"
           d="m 30.203377,3.5315374 c 0.267762,0.2677619 0.267761,0.7023893 -1e-6,0.9701505 -0.267762,0.2677611 -0.702389,0.2677604 -0.97015,-1.5e-6 -0.267762,-0.2677619 -0.267761,-0.7023894 1e-6,-0.9701505 0.267762,-0.2677611 0.702389,-0.2677605 0.97015,1.5e-6 z"
           id="path1871" />
        <path
           style="color:#000000;fill:#b88100;fill-rule:evenodd;-inkscape-stroke:none"
           d="m 29.167969,3.4667969 c -0.302756,0.3027549 -0.302756,0.7968536 0,1.0996093 0.302755,0.3027558 0.796853,0.3027549 1.099609,0 0.302756,-0.3027549 0.302756,-0.7968535 0,-1.0996093 -0.302755,-0.3027559 -0.796853,-0.3027549 -1.099609,0 z m 0.130859,0.1289062 c 0.232768,-0.2327668 0.607077,-0.2327675 0.839844,0 0.232767,0.2327675 0.232767,0.60903 0,0.8417969 -0.232768,0.2327668 -0.607077,0.2327675 -0.839844,0 -0.232767,-0.2327675 -0.232767,-0.6090301 0,-0.8417969 z"
           id="path1873" />
      </g>
      <g
         id="path1857"
         style="fill:#b88100">
        <path
           style="color:#000000;fill:#b88100;fill-rule:evenodd;stroke-width:0.1372pt;-inkscape-stroke:none"
           d="m 23.917652,10.695619 c -0.144912,0.349847 -0.546456,0.516171 -0.896303,0.37126 -0.349847,-0.144912 -0.516172,-0.546456 -0.37126,-0.896303 0.144912,-0.3498469 0.546455,-0.5161713 0.896303,-0.3712596 0.349847,0.1449118 0.516171,0.5464556 0.37126,0.8963026 z"
           id="path1861" />
        <path
           style="color:#000000;fill:#b88100;fill-rule:evenodd;-inkscape-stroke:none"
           d="m 23.582031,9.7148438 c -0.395569,-0.1638502 -0.851774,0.024353 -1.015625,0.4199222 -0.16385,0.395568 0.02435,0.853727 0.419922,1.017578 0.395569,0.163849 0.851774,-0.02631 1.015625,-0.421875 C 24.165803,10.3349 23.9776,9.8786942 23.582031,9.7148438 Z m -0.07031,0.1699218 c 0.304124,0.1259734 0.448238,0.4712664 0.322265,0.7753904 -0.125973,0.304125 -0.473219,0.448238 -0.777343,0.322266 -0.304125,-0.125973 -0.448239,-0.473219 -0.322266,-0.777344 0.125973,-0.3041245 0.473218,-0.4462853 0.777344,-0.3203124 z"
           id="path1863" />
      </g>
      <g
         id="path1847"
         style="fill:#b88100">
        <path
           style="color:#000000;fill:#b88100;fill-rule:evenodd;stroke-width:0.1372pt;-inkscape-stroke:none"
           d="m 23.296546,4.679188 c -0.378672,0 -0.686,-0.307328 -0.686,-0.686 0,-0.378672 0.307328,-0.686 0.686,-0.686 0.378672,0 0.686,0.307328 0.686,0.686 0,0.378672 -0.307328,0.686 -0.686,0.686 z"
           id="path1851" />
        <path
           style="color:#000000;fill:#b88100;fill-rule:evenodd;-inkscape-stroke:none"
           d="m 23.296875,3.2148438 c -0.428161,0 -0.777344,0.351136 -0.777344,0.7792968 0,0.4281608 0.349183,0.7773438 0.777344,0.7773438 0.428161,0 0.777344,-0.349183 0.777344,-0.7773438 0,-0.4281608 -0.349183,-0.7792969 -0.777344,-0.7792968 z m 0,0.1835937 c 0.329182,0 0.59375,0.2665207 0.59375,0.5957031 0,0.3291825 -0.264568,0.59375 -0.59375,0.59375 -0.329182,0 -0.595703,-0.2645675 -0.595703,-0.59375 0,-0.3291824 0.266521,-0.5957031 0.595703,-0.5957031 z"
           id="path1853" />
      </g>
    </g>
  </g>
  <g
     id="path2148"
     style="fill:#b88100">
    <path
       style="color:#000000;fill:#b88100;-inkscape-stroke:none"
       d="m 23.296875,10.267578 v 0.341797 h 6.431641 v -0.341797 z"
       id="path1839" />
    <g
       id="g1817"
       style="fill:#b88100">
      <g
         id="path1829"
         style="fill:#b88100">
        <path
           style="color:#000000;fill:#b88100;fill-rule:evenodd;stroke-width:0.1372pt;-inkscape-stroke:none"
           d="m 30.400283,10.43835 c 0,0.378672 -0.307328,0.686 -0.686,0.686 -0.378672,0 -0.686,-0.307328 -0.686,-0.686 0,-0.378672 0.307328,-0.686 0.686,-0.686 0.378672,0 0.686,0.307328 0.686,0.686 z"
           id="path1833" />
        <path
           style="color:#000000;fill:#b88100;fill-rule:evenodd;-inkscape-stroke:none"
           d="m 29.714844,9.6601563 c -0.428161,0 -0.777344,0.3491827 -0.777344,0.7773437 0,0.428161 0.349183,0.777344 0.777344,0.777344 0.428161,0 0.777344,-0.349183 0.777343,-0.777344 0,-0.428161 -0.349182,-0.7773437 -0.777343,-0.7773437 z m 0,0.1835937 c 0.329182,0 0.59375,0.264568 0.59375,0.59375 0,0.329182 -0.264568,0.595703 -0.59375,0.595703 -0.329183,0 -0.595703,-0.266521 -0.595703,-0.595703 0,-0.329182 0.26652,-0.59375 0.595703,-0.59375 z"
           id="path1835" />
      </g>
      <g
         id="path1819"
         style="fill:#b88100">
        <path
           style="color:#000000;fill:#b88100;fill-rule:evenodd;stroke-width:0.1372pt;-inkscape-stroke:none"
           d="m 23.968826,10.438348 c 0,0.378672 -0.307328,0.686 -0.686,0.686 -0.378672,0 -0.686,-0.307328 -0.686,-0.686 0,-0.378672 0.307328,-0.686 0.686,-0.686 0.378672,0 0.686,0.307328 0.686,0.686 z"
           id="path1823" />
        <path
           style="color:#000000;fill:#b88100;fill-rule:evenodd;-inkscape-stroke:none"
           d="m 23.283203,9.6601563 c -0.428161,0 -0.777344,0.3491827 -0.777344,0.7773437 0,0.428161 0.349183,0.777344 0.777344,0.777344 0.428161,0 0.777344,-0.349183 0.777344,-0.777344 0,-0.428161 -0.349183,-0.7773437 -0.777344,-0.7773437 z m 0,0.1835937 c 0.329183,0 0.59375,0.264568 0.59375,0.59375 0,0.329182 -0.264567,0.595703 -0.59375,0.595703 -0.329182,0 -0.595703,-0.266521 -0.595703,-0.595703 0,-0.329182 0.266521,-0.59375 0.595703,-0.59375 z"
           id="path1825" />
      </g>
    </g>
  </g>
  <g
     id="path2249"
     style="fill:#b88100">
    <path
       style="color:#000000;fill:#b88100;-inkscape-stroke:none"
       d="M 4.1230469,3.8847656 3.8808594,4.1289062 10.019531,10.267578 H 4.0019531 v 0.341797 h 6.8457029 z"
       id="path1811" />
    <g
       id="g1779"
       style="fill:#b88100">
      <g
         id="path1801"
         style="fill:#b88100">
        <path
           style="color:#000000;fill:#b88100;fill-rule:evenodd;stroke-width:0.1372pt;-inkscape-stroke:none"
           d="m 3.5268503,3.5315124 c 0.2677615,-0.2677616 0.7023889,-0.2677616 0.9701504,0 0.2677616,0.2677615 0.2677616,0.7023889 1e-7,0.9701504 -0.2677616,0.2677616 -0.702389,0.2677616 -0.9701505,1e-7 -0.2677616,-0.2677616 -0.2677616,-0.702389 0,-0.9701505 z"
           id="path1805" />
        <path
           style="color:#000000;fill:#b88100;fill-rule:evenodd;-inkscape-stroke:none"
           d="m 3.4628906,3.4667969 c -0.3027554,0.3027553 -0.3027554,0.7968539 0,1.0996093 0.3027554,0.3027554 0.796854,0.3027555 1.0996094,0 0.3027554,-0.3027553 0.3027555,-0.796854 0,-1.0996093 -0.3027553,-0.3027555 -0.796854,-0.3027555 -1.0996094,0 z m 0.1289063,0.1289062 c 0.2327671,-0.2327672 0.6070766,-0.2327672 0.8398437,0 0.2327672,0.2327671 0.2327671,0.6090298 0,0.8417969 -0.2327672,0.2327672 -0.6070766,0.2327671 -0.8398437,0 -0.2327672,-0.2327672 -0.2327672,-0.6090298 0,-0.8417969 z"
           id="path1807" />
      </g>
      <g
         id="path1791"
         style="fill:#b88100">
        <path
           style="color:#000000;fill:#b88100;fill-rule:evenodd;stroke-width:0.1372pt;-inkscape-stroke:none"
           d="m 10.690951,9.8172373 c 0.349848,0.1449115 0.516172,0.5464547 0.371261,0.8963017 C 10.9173,11.063387 10.515757,11.229711 10.16591,11.0848 9.8160624,10.939888 9.6497377,10.538345 9.7946492,10.188498 9.9395607,9.8386505 10.341104,9.6723258 10.690951,9.8172373 Z"
           id="path1795" />
        <path
           style="color:#000000;fill:#b88100;fill-rule:evenodd;-inkscape-stroke:none"
           d="m 10.726563,9.7324219 c -0.395569,-0.1638501 -0.8517755,0.026306 -1.0156255,0.4218751 -0.1638501,0.395569 0.024353,0.851774 0.4199215,1.015625 0.395569,0.163849 0.851775,-0.02631 1.015625,-0.421875 0.16385,-0.395569 -0.02435,-0.8517751 -0.419921,-1.0156251 z M 10.65625,9.9023438 C 10.960376,10.028316 11.104488,10.37361 10.978516,10.677734 10.852542,10.98186 10.505297,11.125972 10.201172,11 9.8970465,10.874027 9.7529336,10.526781 9.8789063,10.222656 10.004879,9.9185311 10.352125,9.7763711 10.65625,9.9023438 Z"
           id="path1797" />
      </g>
      <g
         id="path1781"
         style="fill:#b88100">
        <path
           style="color:#000000;fill:#b88100;fill-rule:evenodd;stroke-width:0.1372pt;-inkscape-stroke:none"
           d="m 4.674504,10.438343 c 0,0.378672 -0.307328,0.686 -0.686,0.686 -0.378672,0 -0.686,-0.307328 -0.686,-0.686 0,-0.378672 0.307328,-0.686 0.686,-0.686 0.378672,0 0.686,0.307328 0.686,0.686 z"
           id="path1785" />
        <path
           style="color:#000000;fill:#b88100;fill-rule:evenodd;-inkscape-stroke:none"
           d="m 3.9882813,9.6601563 c -0.4281608,0 -0.7773438,0.3491827 -0.7773438,0.7773437 0,0.428161 0.349183,0.777344 0.7773438,0.777344 0.4281607,0 0.7773437,-0.349183 0.7773437,-0.777344 0,-0.428161 -0.349183,-0.7773438 -0.7773437,-0.7773437 z m 0,0.1835937 c 0.3291824,0 0.5957031,0.264568 0.5957031,0.59375 0,0.329182 -0.2665207,0.595703 -0.5957031,0.595703 -0.3291825,0 -0.59375,-0.266521 -0.59375,-0.595703 0,-0.329182 0.2645675,-0.59375 0.59375,-0.59375 z"
           id="path1787" />
      </g>
    </g>
  </g>
  <g
     id="path2251"
     style="fill:#b88100">
    <path
       style="color:#000000;fill:#b88100;-inkscape-stroke:none"
       d="M 10.261719,4.0078125 V 10.4375 h 0.34375 V 4.0078125 Z"
       id="path1773" />
    <g
       id="g1751"
       style="fill:#b88100">
      <g
         id="path1763"
         style="fill:#b88100">
        <path
           style="color:#000000;fill:#b88100;fill-rule:evenodd;stroke-width:0.1372pt;-inkscape-stroke:none"
           d="m 10.433681,3.3346061 c 0.378672,0 0.686,0.307328 0.686,0.686 0,0.378672 -0.307328,0.686 -0.686,0.686 -0.378672,0 -0.686,-0.307328 -0.686,-0.686 0,-0.378672 0.307328,-0.686 0.686,-0.686 z"
           id="path1767" />
        <path
           style="color:#000000;fill:#b88100;fill-rule:evenodd;-inkscape-stroke:none"
           d="m 10.433594,3.2421875 c -0.428161,0 -0.777344,0.3511361 -0.777344,0.7792969 0,0.4281608 0.349183,0.7773437 0.777344,0.7773437 0.428161,0 0.777343,-0.3491829 0.777344,-0.7773437 0,-0.4281608 -0.349183,-0.7792969 -0.777344,-0.7792969 z m 0,0.1835938 c 0.329182,0 0.59375,0.2665206 0.59375,0.5957031 0,0.3291824 -0.264568,0.59375 -0.59375,0.59375 -0.329183,0 -0.5937502,-0.2645676 -0.5937502,-0.59375 0,-0.3291825 0.2645672,-0.5957031 0.5937502,-0.5957031 z"
           id="path1769" />
      </g>
      <g
         id="path1753"
         style="fill:#b88100">
        <path
           style="color:#000000;fill:#b88100;fill-rule:evenodd;stroke-width:0.1372pt;-inkscape-stroke:none"
           d="m 10.433681,9.766063 c 0.378672,0 0.686,0.307328 0.686,0.686 0,0.378672 -0.307328,0.686 -0.686,0.686 -0.378672,0 -0.686,-0.307328 -0.686,-0.686 0,-0.378672 0.307328,-0.686 0.686,-0.686 z"
           id="path1757" />
        <path
           style="color:#000000;fill:#b88100;fill-rule:evenodd;-inkscape-stroke:none"
           d="m 10.433594,9.6738281 c -0.428161,0 -0.777344,0.3491829 -0.777344,0.7773439 0,0.428161 0.349183,0.779297 0.777344,0.779297 0.428161,0 0.777344,-0.351136 0.777344,-0.779297 0,-0.428161 -0.349183,-0.7773439 -0.777344,-0.7773439 z m 0,0.1835938 c 0.329182,0 0.59375,0.2645671 0.59375,0.5937501 0,0.329182 -0.264568,0.595703 -0.59375,0.595703 -0.329183,0 -0.5937502,-0.266521 -0.5937502,-0.595703 0,-0.329183 0.2645672,-0.5937501 0.5937502,-0.5937501 z"
           id="path1759" />
      </g>
    </g>
  </g>
  <g
     id="path2292"
     style="fill:#b88100">
    <path
       style="color:#000000;fill:#b88100;-inkscape-stroke:none"
       d="M 20.201172,0.66992187 19.958984,0.91210938 23.296875,4.25 26.632812,0.91210938 26.390625,0.66992187 23.296875,3.7636719 Z"
       id="path1745" />
    <g
       id="g1713"
       style="fill:#b88100">
      <g
         id="path1735"
         style="fill:#b88100">
        <path
           style="color:#000000;fill:#b9e397;fill-rule:evenodd;stroke-width:0.1372pt;-inkscape-stroke:none;fill-opacity:1"
           d="m 26.987649,0.31581621 c 0.267762,0.26776196 0.267761,0.70238939 -1e-6,0.97015049 -0.267762,0.2677611 -0.702389,0.2677604 -0.970151,-1.5e-6 -0.267761,-0.267762 -0.26776,-0.70238941 2e-6,-0.97015052 0.267762,-0.26776111 0.702389,-0.26776043 0.97015,1.53e-6 z"
           id="path1739" />
        <path
           style="color:#000000;fill:#b88100;fill-rule:evenodd;-inkscape-stroke:none"
           d="m 25.953125,0.25195313 c -0.302756,0.30275487 -0.302755,0.79685347 0,1.09960937 0.302756,0.3027556 0.796854,0.3027549 1.099609,0 0.302756,-0.3027549 0.302756,-0.79685354 0,-1.09960937 -0.302754,-0.30275586 -0.796853,-0.30275487 -1.099609,0 z m 0.128906,0.12890625 c 0.232768,-0.23276682 0.60903,-0.23276753 0.841797,0 0.232768,0.23276754 0.232768,0.60707695 0,0.83984372 -0.232767,0.2327668 -0.609029,0.2327677 -0.841797,0 -0.232766,-0.2327675 -0.232767,-0.60707692 0,-0.83984372 z"
           id="path1741" />
      </g>
      <g
         id="path1725"
         style="fill:#b88100">
        <path
           style="color:#000000;fill:#b88100;fill-rule:evenodd;stroke-width:0.1372pt;-inkscape-stroke:none"
           d="m 23.968826,4.0069094 c -1e-6,0.378672 -0.307329,0.6859994 -0.686001,0.6859986 -0.378672,-8e-7 -0.686,-0.3073295 -0.685999,-0.6860015 1e-6,-0.378672 0.307329,-0.6859993 0.686001,-0.6859985 0.378672,8e-7 0.686,0.3073294 0.685999,0.6860014 z"
           id="path1729" />
        <path
           style="color:#000000;fill:#b88100;fill-rule:evenodd;-inkscape-stroke:none"
           d="m 23.283203,3.2285156 c -0.428161,-9e-7 -0.777342,0.3511362 -0.777344,0.7792969 -1e-6,0.4281609 0.349183,0.7773428 0.777344,0.7773437 0.428161,1e-6 0.777343,-0.349183 0.777344,-0.7773437 1e-6,-0.4281609 -0.349183,-0.779296 -0.777344,-0.7792969 z m 0,0.1835938 c 0.329183,7e-7 0.593751,0.2665208 0.59375,0.5957031 -1e-6,0.3291826 -0.264567,0.5937507 -0.59375,0.59375 -0.329182,-7e-7 -0.595704,-0.2645677 -0.595703,-0.59375 1e-6,-0.3291826 0.266521,-0.5957038 0.595703,-0.5957031 z"
           id="path1731" />
      </g>
      <g
         id="path1715"
         style="fill:#b88100">
        <path
           style="color:#000000;fill:#b9e397;fill-rule:evenodd;stroke-width:0.1372pt;-inkscape-stroke:none;fill-opacity:1"
           d="m 20.556214,1.2665617 c -0.267762,0.2677608 -0.702389,0.2677597 -0.97015,-2.6e-6 -0.267761,-0.26776225 -0.26776,-0.70238967 3e-6,-0.97015048 0.267762,-0.26776081 0.702389,-0.26775965 0.97015,2.61e-6 0.267761,0.26776225 0.26776,0.70238967 -3e-6,0.97015047 z"
           id="path1719" />
        <path
           style="color:#000000;fill:#b88100;fill-rule:evenodd;-inkscape-stroke:none"
           d="m 19.521484,0.23242188 c -0.302757,0.30275453 -0.302754,0.79685322 0,1.09960932 0.302755,0.3027562 0.796854,0.3027546 1.09961,0 0.302757,-0.3027545 0.302755,-0.79685315 0,-1.09960932 -0.302755,-0.30275614 -0.796854,-0.30275459 -1.09961,0 z m 0.128907,0.12890625 c 0.232767,-0.2327665 0.60903,-0.23276785 0.841796,0 0.232767,0.23276779 0.232769,0.60707721 0,0.83984377 -0.232767,0.2327665 -0.60903,0.2327679 -0.841796,0 -0.232767,-0.23276782 -0.232769,-0.60707723 0,-0.83984377 z"
           id="path1721" />
      </g>
    </g>
  </g>
  <g
     id="path2294"
     style="fill:#b88100">
    <path
       style="color:#000000;fill:#b88100;-inkscape-stroke:none"
       d="M 23.125,0.79101562 V 4.0078125 h 0.34375 V 0.79101562 Z"
       id="path1707" />
    <g
       id="g1685"
       style="fill:#b88100">
      <g
         id="path1697"
         style="fill:#b88100">
        <path
           style="color:#000000;fill:#b9e397;fill-rule:evenodd;stroke-width:0.1372pt;-inkscape-stroke:none;fill-opacity:1"
           d="m 23.296546,0.11890671 c 0.378672,0 0.686,0.307328 0.686,0.68599999 0,0.378672 -0.307328,0.686 -0.686,0.686 -0.378672,0 -0.686,-0.307328 -0.686,-0.686 0,-0.37867199 0.307328,-0.68599999 0.686,-0.68599999 z"
           id="path1701" />
        <path
           style="color:#000000;fill:#b88100;fill-rule:evenodd;-inkscape-stroke:none"
           d="m 23.296875,0.02734375 c -0.428161,0 -0.777344,0.34918298 -0.777344,0.77734375 0,0.4281608 0.349183,0.7773437 0.777344,0.7773437 0.428161,0 0.777344,-0.3491829 0.777344,-0.7773437 0,-0.42816077 -0.349183,-0.77734375 -0.777344,-0.77734375 z m 0,0.18359375 c 0.329182,0 0.59375,0.26456755 0.59375,0.59375 0,0.3291825 -0.264568,0.5957031 -0.59375,0.5957031 -0.329182,0 -0.595703,-0.2665206 -0.595703,-0.5957031 0,-0.32918245 0.266521,-0.59375 0.595703,-0.59375 z"
           id="path1703" />
      </g>
      <g
         id="path1687"
         style="fill:#b88100">
        <path
           style="color:#000000;fill:#b88100;fill-rule:evenodd;stroke-width:0.1372pt;-inkscape-stroke:none"
           d="m 23.296546,3.334628 c 0.378672,0 0.686,0.307328 0.686,0.686 0,0.378672 -0.307328,0.686 -0.686,0.686 -0.378672,0 -0.686,-0.307328 -0.686,-0.686 0,-0.378672 0.307328,-0.686 0.686,-0.686 z"
           id="path1691" />
        <path
           style="color:#000000;fill:#b88100;fill-rule:evenodd;-inkscape-stroke:none"
           d="m 23.296875,3.2421875 c -0.428161,0 -0.777344,0.3511361 -0.777344,0.7792969 0,0.4281608 0.349183,0.7773437 0.777344,0.7773437 0.428161,0 0.777344,-0.3491829 0.777344,-0.7773437 0,-0.4281608 -0.349183,-0.7792969 -0.777344,-0.7792969 z m 0,0.1835938 c 0.329182,0 0.59375,0.2665206 0.59375,0.5957031 0,0.3291824 -0.264568,0.59375 -0.59375,0.59375 -0.329182,0 -0.595703,-0.2645676 -0.595703,-0.59375 0,-0.3291825 0.266521,-0.5957032 0.595703,-0.5957031 z"
           id="path1693" />
      </g>
    </g>
  </g>
  <g
     id="path2296"
     style="fill:#b88100">
    <path
       style="color:#000000;fill:#b88100;-inkscape-stroke:none"
       d="M 32.822266,0.66992187 29.900391,3.5917969 V 0.79101562 h -0.34375 V 4.421875 l 3.507812,-3.50976562 z"
       id="path1679" />
    <g
       id="g1647"
       style="fill:#b88100">
      <g
         id="path1669"
         style="fill:#b88100">
        <path
           style="color:#000000;fill:#b9e397;fill-rule:evenodd;stroke-width:0.1372pt;-inkscape-stroke:none;fill-opacity:1"
           d="m 33.419106,0.31581621 c 0.267762,0.26776196 0.267761,0.70238939 -10e-7,0.97015049 -0.267762,0.2677611 -0.702389,0.2677604 -0.970151,-1.5e-6 -0.267761,-0.267762 -0.26776,-0.70238941 2e-6,-0.97015052 0.267762,-0.26776111 0.702389,-0.26776043 0.97015,1.53e-6 z"
           id="path1673" />
        <path
           style="color:#000000;fill:#b88100;fill-rule:evenodd;-inkscape-stroke:none"
           d="m 32.384766,0.25195313 c -0.302756,0.30275487 -0.302755,0.79685347 0,1.09960937 0.302755,0.3027556 0.796853,0.3027549 1.099609,0 0.302756,-0.3027549 0.302756,-0.79685354 0,-1.09960937 -0.302755,-0.30275586 -0.796854,-0.30275487 -1.099609,0 z m 0.128906,0.12890625 c 0.232767,-0.23276682 0.607077,-0.23276753 0.839844,0 0.232767,0.23276754 0.232767,0.60707695 0,0.83984372 -0.232768,0.2327668 -0.607076,0.2327677 -0.839844,0 -0.232767,-0.2327675 -0.232768,-0.60707692 0,-0.83984372 z"
           id="path1675" />
      </g>
      <g
         id="path1659"
         style="fill:#b88100">
        <path
           style="color:#000000;fill:#b88100;fill-rule:evenodd;stroke-width:0.1372pt;-inkscape-stroke:none"
           d="m 30.349109,4.2641789 c -0.144912,0.3498472 -0.546456,0.5161716 -0.896303,0.3712598 -0.349847,-0.1449118 -0.516172,-0.5464553 -0.37126,-0.8963025 0.144912,-0.3498471 0.546456,-0.5161715 0.896303,-0.3712598 0.349847,0.1449118 0.516171,0.5464553 0.37126,0.8963025 z"
           id="path1663" />
        <path
           style="color:#000000;fill:#b88100;fill-rule:evenodd;-inkscape-stroke:none"
           d="m 30.013672,3.2832031 c -0.395569,-0.1638503 -0.853728,0.026306 -1.017578,0.421875 -0.163851,0.395569 0.02631,0.8517747 0.421875,1.015625 0.395568,0.1638504 0.851774,-0.026306 1.015625,-0.421875 0.163849,-0.3955688 -0.02435,-0.8517746 -0.419922,-1.015625 z m -0.07031,0.1699219 c 0.304125,0.1259729 0.446285,0.4712657 0.320313,0.7753906 C 30.137699,4.5326404 29.792406,4.6767542 29.488281,4.5507812 29.184157,4.4248083 29.040043,4.0775623 29.166016,3.7734375 29.291989,3.4693128 29.639235,3.3271522 29.943359,3.453125 Z"
           id="path1665" />
      </g>
      <g
         id="path1649"
         style="fill:#b88100">
        <path
           style="color:#000000;fill:#b9e397;fill-rule:evenodd;stroke-width:0.1372pt;-inkscape-stroke:none;fill-opacity:1"
           d="m 29.728003,1.4634667 c -0.378672,0 -0.686,-0.307328 -0.686,-0.686 0,-0.37867199 0.307328,-0.68599999 0.686,-0.68599999 0.378672,0 0.686,0.307328 0.686,0.68599999 0,0.378672 -0.307328,0.686 -0.686,0.686 z"
           id="path1653" />
        <path
           style="color:#000000;fill:#b88100;fill-rule:evenodd;-inkscape-stroke:none"
           d="m 29.728516,0 c -0.428161,0 -0.777344,0.34918298 -0.777344,0.77734375 0,0.42816075 0.349183,0.77734375 0.777344,0.77734375 0.42816,0 0.777343,-0.349183 0.777343,-0.77734375 C 30.505859,0.34918298 30.156676,0 29.728516,0 Z m 0,0.18359375 c 0.329182,0 0.59375,0.26456755 0.59375,0.59375 0,0.32918245 -0.264568,0.59374995 -0.59375,0.59374995 -0.329183,0 -0.595704,-0.2645675 -0.595704,-0.59374995 0,-0.32918245 0.266521,-0.59375 0.595704,-0.59375 z"
           id="path1655" />
      </g>
    </g>
  </g>
  <g
     id="path2298"
     style="fill:#b88100">
    <path
       style="color:#000000;fill:#b88100;-inkscape-stroke:none"
       d="m 29.728516,3.8359375 v 0.3417969 h 3.214843 V 3.8359375 Z"
       id="path1641" />
    <g
       id="g1619"
       style="fill:#b88100">
      <g
         id="path1631"
         style="fill:#b88100">
        <path
           style="color:#000000;fill:#b9e397;fill-rule:evenodd;stroke-width:0.1372pt;-inkscape-stroke:none;fill-opacity:1"
           d="m 33.615988,4.006908 c 0,0.378672 -0.307328,0.686 -0.686,0.686 -0.378672,0 -0.686,-0.307328 -0.686,-0.686 0,-0.378672 0.307328,-0.686 0.686,-0.686 0.378672,0 0.686,0.307328 0.686,0.686 z"
           id="path1635" />
        <path
           style="color:#000000;fill:#b88100;fill-rule:evenodd;-inkscape-stroke:none"
           d="m 32.929687,3.2285156 c -0.42816,0 -0.777343,0.3511361 -0.777343,0.7792969 0,0.4281608 0.349183,0.7773437 0.777343,0.7773437 0.428161,0 0.777344,-0.3491829 0.777344,-0.7773437 0,-0.4281608 -0.349183,-0.7792969 -0.777344,-0.7792969 z m 0,0.1835938 c 0.329183,0 0.595704,0.2665206 0.595704,0.5957031 0,0.3291825 -0.266521,0.59375 -0.595704,0.59375 -0.329182,0 -0.59375,-0.2645675 -0.59375,-0.59375 0,-0.3291825 0.264568,-0.5957031 0.59375,-0.5957031 z"
           id="path1637" />
      </g>
      <g
         id="path1621"
         style="fill:#b88100">
        <path
           style="color:#000000;fill:#b88100;fill-rule:evenodd;stroke-width:0.1372pt;-inkscape-stroke:none"
           d="m 30.400283,4.006908 c 0,0.378672 -0.307328,0.686 -0.686,0.686 -0.378672,0 -0.686,-0.307328 -0.686,-0.686 0,-0.378672 0.307328,-0.686 0.686,-0.686 0.378672,0 0.686,0.307328 0.686,0.686 z"
           id="path1625" />
        <path
           style="color:#000000;fill:#b88100;fill-rule:evenodd;-inkscape-stroke:none"
           d="m 29.714844,3.2285156 c -0.428161,0 -0.777344,0.3511361 -0.777344,0.7792969 0,0.4281608 0.349183,0.7773438 0.777344,0.7773437 0.428161,0 0.777344,-0.3491829 0.777343,-0.7773437 0,-0.4281608 -0.349182,-0.7792969 -0.777343,-0.7792969 z m 0,0.1835938 c 0.329182,0 0.59375,0.2665206 0.59375,0.5957031 0,0.3291825 -0.264568,0.59375 -0.59375,0.59375 -0.329183,0 -0.595703,-0.2645675 -0.595703,-0.59375 0,-0.3291825 0.26652,-0.5957031 0.595703,-0.5957031 z"
           id="path1627" />
      </g>
    </g>
  </g>
  <g
     id="path2300"
     style="fill:#b88100">
    <path
       style="color:#000000;fill:#b88100;-inkscape-stroke:none"
       d="m 32.822266,7.1015625 -3.507813,3.5078125 h 3.628906 V 10.267578 H 30.142578 L 33.064453,7.34375 Z"
       id="path1613" />
    <g
       id="g1581"
       style="fill:#b88100">
      <g
         id="path1603"
         style="fill:#b88100">
        <path
           style="color:#000000;fill:#b9e397;fill-rule:evenodd;stroke-width:0.1372pt;-inkscape-stroke:none;fill-opacity:1"
           d="m 33.616012,10.43835 c 0,0.378672 -0.307328,0.686 -0.686,0.686 -0.378672,0 -0.686,-0.307328 -0.686,-0.686 0,-0.378672 0.307328,-0.686 0.686,-0.686 0.378672,0 0.686,0.307328 0.686,0.686 z"
           id="path1607" />
        <path
           style="color:#000000;fill:#b88100;fill-rule:evenodd;-inkscape-stroke:none"
           d="m 32.929687,9.6601563 c -0.42816,0 -0.777343,0.3491827 -0.777343,0.7773437 0,0.428161 0.349183,0.777344 0.777343,0.777344 0.428161,0 0.777344,-0.349183 0.777344,-0.777344 0,-0.428161 -0.349183,-0.7773437 -0.777344,-0.7773437 z m 0,0.1835937 c 0.329183,0 0.595704,0.264568 0.595704,0.59375 0,0.329182 -0.266521,0.595703 -0.595704,0.595703 -0.329182,0 -0.59375,-0.266521 -0.59375,-0.595703 0,-0.329182 0.264568,-0.59375 0.59375,-0.59375 z"
           id="path1609" />
      </g>
      <g
         id="path1593"
         style="fill:#b88100">
        <path
           style="color:#000000;fill:#b88100;fill-rule:evenodd;stroke-width:0.1372pt;-inkscape-stroke:none"
           d="m 29.985274,11.059453 c -0.349847,0.144912 -0.751391,-0.02141 -0.896303,-0.371259 -0.144911,-0.349847 0.02141,-0.7513909 0.37126,-0.8963027 0.349847,-0.1449119 0.751391,0.021413 0.896303,0.3712597 0.144911,0.349847 -0.02141,0.751391 -0.37126,0.896302 z"
           id="path1597" />
        <path
           style="color:#000000;fill:#b88100;fill-rule:evenodd;-inkscape-stroke:none"
           d="m 29.425781,9.7070313 c -0.395572,0.1638502 -0.585724,0.6200567 -0.421875,1.0156247 0.163851,0.395571 0.620057,0.585726 1.015625,0.421875 0.395572,-0.163849 0.585725,-0.620057 0.421875,-1.015625 C 30.277556,9.7333379 29.82135,9.5431807 29.425781,9.7070313 Z m 0.07031,0.1699218 c 0.304124,-0.1259729 0.649417,0.016188 0.77539,0.3203129 0.125973,0.304125 -0.01619,0.651371 -0.320312,0.777343 -0.304125,0.125974 -0.651371,-0.01814 -0.777344,-0.322265 -0.125972,-0.304125 0.01814,-0.649418 0.322266,-0.7753909 z"
           id="path1599" />
      </g>
      <g
         id="path1583"
         style="fill:#b88100">
        <path
           style="color:#000000;fill:#b9e397;fill-rule:evenodd;stroke-width:0.1372pt;-inkscape-stroke:none;fill-opacity:1"
           d="m 32.468335,7.6980021 c -0.267762,-0.2677609 -0.267763,-0.7023883 -2e-6,-0.9701505 0.267761,-0.2677622 0.702388,-0.2677632 0.970151,-2.4e-6 0.267762,0.2677609 0.267763,0.7023883 2e-6,0.9701505 -0.267761,0.2677622 -0.702388,0.2677633 -0.970151,2.4e-6 z"
           id="path1587" />
        <path
           style="color:#000000;fill:#b88100;fill-rule:evenodd;-inkscape-stroke:none"
           d="m 32.404297,6.6640625 c -0.302755,0.3027561 -0.302756,0.7949016 0,1.0976562 0.302757,0.3027545 0.796855,0.3027561 1.099609,0 0.302755,-0.3027561 0.302756,-0.7949015 0,-1.0976562 -0.302757,-0.3027544 -0.796854,-0.3027561 -1.099609,0 z m 0.128906,0.1289062 c 0.232767,-0.2327677 0.607075,-0.2327666 0.839844,0 0.232767,0.2327666 0.232767,0.6070761 0,0.8398438 -0.232767,0.2327678 -0.607075,0.2327668 -0.839844,0 -0.232767,-0.2327666 -0.232767,-0.607076 0,-0.8398438 z"
           id="path1589" />
      </g>
    </g>
  </g>
  <g
     id="path2302"
     style="fill:#b88100">
    <path
       style="color:#000000;fill:#b88100;-inkscape-stroke:none"
       d="m 29.849609,10.316406 -0.242187,0.244141 3.214844,3.214844 0.242187,-0.242188 z"
       id="path1575" />
    <g
       id="g1553"
       style="fill:#b88100">
      <g
         id="path1565"
         style="fill:#b88100">
        <path
           style="color:#000000;fill:#b9e397;fill-rule:evenodd;stroke-width:0.1372pt;-inkscape-stroke:none;fill-opacity:1"
           d="m 33.419081,14.129444 c -0.267763,0.267761 -0.70239,0.26776 -0.970151,-2e-6 -0.267761,-0.267763 -0.26776,-0.70239 2e-6,-0.970151 0.267763,-0.267761 0.70239,-0.26776 0.970151,2e-6 0.267761,0.267763 0.26776,0.70239 -2e-6,0.970151 z"
           id="path1569" />
        <path
           style="color:#000000;fill:#b88100;fill-rule:evenodd;-inkscape-stroke:none"
           d="m 32.384766,13.09375 c -0.302756,0.302755 -0.302755,0.796853 0,1.099609 0.302754,0.302756 0.796852,0.302755 1.099609,0 0.302756,-0.302754 0.302755,-0.796852 0,-1.099609 -0.302755,-0.302756 -0.796853,-0.302755 -1.099609,0 z m 0.128906,0.130859 c 0.232769,-0.232767 0.607077,-0.232767 0.839844,0 0.232767,0.232769 0.232767,0.607077 0,0.839844 -0.232769,0.232767 -0.607077,0.232768 -0.839844,0 -0.232767,-0.232769 -0.232768,-0.607077 0,-0.839844 z"
           id="path1571" />
      </g>
      <g
         id="path1555"
         style="fill:#b88100">
        <path
           style="color:#000000;fill:#b88100;fill-rule:evenodd;stroke-width:0.1372pt;-inkscape-stroke:none"
           d="m 30.203376,10.913723 c -0.267763,0.267761 -0.70239,0.26776 -0.970151,-2e-6 -0.267761,-0.267763 -0.26776,-0.70239 2e-6,-0.970151 0.267763,-0.2677608 0.70239,-0.2677598 0.970151,2.4e-6 0.267761,0.2677626 0.26776,0.7023896 -2e-6,0.9701506 z"
           id="path1559" />
        <path
           style="color:#000000;fill:#b88100;fill-rule:evenodd;-inkscape-stroke:none"
           d="m 29.167969,9.8789063 c -0.302756,0.3027547 -0.302755,0.7968527 0,1.0996097 0.302754,0.302755 0.796852,0.302754 1.099609,0 0.302756,-0.302755 0.302755,-0.796853 0,-1.0996097 -0.302755,-0.3027561 -0.796852,-0.3027544 -1.099609,0 z m 0.130859,0.1289067 c 0.232769,-0.2327672 0.607077,-0.2327683 0.839844,0 0.232767,0.232768 0.232767,0.60903 0,0.841796 -0.232769,0.232767 -0.607077,0.232768 -0.839844,0 -0.232767,-0.232768 -0.232767,-0.60903 0,-0.841796 z"
           id="path1561" />
      </g>
    </g>
  </g>
  <g
     id="path2304"
     style="fill:#b88100">
    <path
       style="color:#000000;fill:#b88100;-inkscape-stroke:none"
       d="M 13.527344,0.66992187 10.605469,3.5917969 V 0.79101562 h -0.34375 V 4.421875 l 3.509765,-3.50976562 z"
       id="path1547" />
    <g
       id="g1515"
       style="fill:#b88100">
      <g
         id="path1537"
         style="fill:#b88100">
        <path
           style="color:#000000;fill:#b9e397;fill-rule:evenodd;stroke-width:0.1372pt;-inkscape-stroke:none;fill-opacity:1"
           d="m 10.433681,0.11890921 c 0.378672,0 0.686,0.307328 0.686,0.68599999 0,0.378672 -0.307328,0.686 -0.686,0.686 -0.378672,0 -0.686,-0.307328 -0.686,-0.686 0,-0.37867199 0.307328,-0.68599999 0.686,-0.68599999 z"
           id="path1541" />
        <path
           style="color:#000000;fill:#b88100;fill-rule:evenodd;-inkscape-stroke:none"
           d="m 10.433594,0.02734375 c -0.428161,0 -0.777344,0.34918298 -0.777344,0.77734375 0,0.4281608 0.349183,0.7773437 0.777344,0.7773437 0.428161,0 0.777343,-0.3491829 0.777344,-0.7773437 0,-0.42816077 -0.349183,-0.77734375 -0.777344,-0.77734375 z m 0,0.18359375 c 0.329182,0 0.59375,0.26456755 0.59375,0.59375 0,0.3291825 -0.264568,0.5957031 -0.59375,0.5957031 -0.329183,0 -0.5937502,-0.2665206 -0.5937502,-0.5957031 0,-0.32918245 0.2645672,-0.59375 0.5937502,-0.59375 z"
           id="path1543" />
      </g>
      <g
         id="path1527"
         style="fill:#b88100">
        <path
           style="color:#000000;fill:#b88100;fill-rule:evenodd;stroke-width:0.1372pt;-inkscape-stroke:none"
           d="M 9.8125749,3.7496384 C 9.957486,3.3997909 10.359029,3.2334657 10.708877,3.3783767 11.058724,3.5232877 11.225049,3.9248309 11.080138,4.2746784 10.935227,4.6245259 10.533684,4.7908511 10.183837,4.6459401 9.8339892,4.5010291 9.6676639,4.0994859 9.8125749,3.7496384 Z"
           id="path1531" />
        <path
           style="color:#000000;fill:#b88100;fill-rule:evenodd;-inkscape-stroke:none"
           d="M 10.744141,3.2929688 C 10.348571,3.1291193 9.8923652,3.3192746 9.7285156,3.7148438 9.5646661,4.110413 9.752868,4.5666193 10.148438,4.7304687 10.544006,4.8943183 11.000213,4.7061161 11.164063,4.3105469 11.327912,3.9149777 11.139709,3.4568183 10.744141,3.2929688 Z m -0.07031,0.1699218 c 0.304125,0.1259722 0.448238,0.4732186 0.322266,0.7773438 C 10.870122,4.5443595 10.522875,4.6865191 10.21875,4.5605469 9.9146246,4.4345746 9.7705121,4.0892813 9.8964844,3.7851563 10.022457,3.4810311 10.369702,3.3369183 10.673828,3.4628906 Z"
           id="path1533" />
      </g>
      <g
         id="path1517"
         style="fill:#b88100">
        <path
           style="color:#000000;fill:#b9e397;fill-rule:evenodd;stroke-width:0.1372pt;-inkscape-stroke:none;fill-opacity:1"
           d="m 13.174013,1.2665617 c -0.267763,-0.2677608 -0.267764,-0.70238822 -3e-6,-0.97015047 0.267761,-0.26776226 0.702388,-0.26776342 0.97015,-2.61e-6 0.267763,0.26776081 0.267764,0.70238823 3e-6,0.97015048 -0.267761,0.2677623 -0.702388,0.2677634 -0.97015,2.6e-6 z"
           id="path1521" />
        <path
           style="color:#000000;fill:#b88100;fill-rule:evenodd;-inkscape-stroke:none"
           d="m 13.109375,0.23242188 c -0.302755,0.30275617 -0.302757,0.79685482 0,1.09960932 0.302756,0.3027546 0.796855,0.3027562 1.099609,0 0.302755,-0.3027561 0.302757,-0.79685479 0,-1.09960932 -0.302756,-0.30275459 -0.796854,-0.30275614 -1.099609,0 z m 0.128906,0.12890625 c 0.232767,-0.23276785 0.60903,-0.2327665 0.841797,0 0.232769,0.23276654 0.232767,0.60707595 0,0.83984377 -0.232767,0.2327679 -0.609029,0.2327665 -0.841797,0 -0.232768,-0.23276656 -0.232766,-0.60707598 0,-0.83984377 z"
           id="path1523" />
      </g>
    </g>
  </g>
  <g
     id="path2306"
     style="fill:#b88100">
    <path
       style="color:#000000;fill:#b88100;-inkscape-stroke:none"
       d="M 7.3398437,0.66992187 7.0976562,0.91210938 10.3125,4.1289062 10.554688,3.8847656 Z"
       id="path1509" />
    <g
       id="g1487"
       style="fill:#b88100">
      <g
         id="path1499"
         style="fill:#b88100">
        <path
           style="color:#000000;fill:#b9e397;fill-rule:evenodd;stroke-width:0.1372pt;-inkscape-stroke:none;fill-opacity:1"
           d="M 6.7425777,0.31581353 C 7.0103389,0.04805167 7.4449663,0.04805115 7.7127282,0.31581237 7.98049,0.58357358 7.9804906,1.018201 7.7127293,1.2859629 7.4449681,1.5537247 7.0103407,1.5537252 6.7425789,1.285964 6.474817,1.0182028 6.4748165,0.58357539 6.7425777,0.31581353 Z"
           id="path1503" />
        <path
           style="color:#000000;fill:#b88100;fill-rule:evenodd;-inkscape-stroke:none"
           d="m 6.6777344,0.25195313 c -0.302755,0.30275575 -0.3027558,0.79685437 0,1.09960937 0.3027557,0.302755 0.7968543,0.3027557 1.0996093,0 0.3027552,-0.3027558 0.3027557,-0.79685436 0,-1.09960937 -0.3027557,-0.30275503 -0.7968543,-0.30275576 -1.0996093,0 z m 0.1289062,0.12890625 c 0.2327669,-0.23276743 0.6090294,-0.23276689 0.8417969,0 0.2327674,0.23276686 0.2327669,0.60707627 0,0.83984372 -0.2327668,0.2327674 -0.6090295,0.2327669 -0.8417969,0 -0.2327674,-0.23276683 -0.2327668,-0.60707629 0,-0.83984372 z"
           id="path1505" />
      </g>
      <g
         id="path1489"
         style="fill:#b88100">
        <path
           style="color:#000000;fill:#b88100;fill-rule:evenodd;stroke-width:0.1372pt;-inkscape-stroke:none"
           d="m 9.9583067,3.5315348 c 0.2677613,-0.2677618 0.7023883,-0.2677623 0.9701503,-1.1e-6 0.267762,0.2677612 0.267763,0.7023886 10e-7,0.9701505 C 10.660697,4.769446 10.22607,4.7694465 9.9583079,4.5016853 9.690546,4.2339241 9.6905455,3.7992967 9.9583067,3.5315348 Z"
           id="path1493" />
        <path
           style="color:#000000;fill:#b88100;fill-rule:evenodd;-inkscape-stroke:none"
           d="m 9.8945313,3.4667969 c -0.302755,0.3027558 -0.3027559,0.7968543 0,1.0996093 0.3027557,0.302755 0.7949017,0.3027558 1.0976567,0 0.302755,-0.3027557 0.302755,-0.7968544 0,-1.0996093 -0.302756,-0.302755 -0.794902,-0.3027557 -1.0976567,0 z m 0.1289067,0.1289062 c 0.232766,-0.2327674 0.607076,-0.2327669 0.839843,0 0.232768,0.2327669 0.232768,0.6090294 0,0.8417969 -0.232766,0.2327674 -0.607076,0.2327669 -0.839843,0 -0.232768,-0.2327669 -0.2327674,-0.6090294 0,-0.8417969 z"
           id="path1495" />
      </g>
    </g>
  </g>
  <g
     id="path2308"
     style="fill:#b88100">
    <path
       style="color:#000000;fill:#b88100;-inkscape-stroke:none"
       d="M 0.90820313,0.66992187 0.66601562,0.91210938 4.1738281,4.421875 V 0.79101562 h -0.34375 V 3.5917969 Z"
       id="path1481" />
    <g
       id="g1449"
       style="fill:#b88100">
      <g
         id="path1471"
         style="fill:#b88100">
        <path
           style="color:#000000;fill:#b9e397;fill-rule:evenodd;stroke-width:0.1372pt;-inkscape-stroke:none;fill-opacity:1"
           d="M 0.31114558,0.31581614 C 0.57890673,0.04805422 1.0135342,0.0480536 1.2812961,0.31581475 1.549058,0.5835759 1.5490586,1.0182033 1.2812975,1.2859652 1.0135363,1.5537272 0.57890889,1.5537278 0.31114697,1.2859666 0.04338505,1.0182055 0.04338443,0.58357806 0.31114558,0.31581614 Z"
           id="path1475" />
        <path
           style="color:#000000;fill:#b88100;fill-rule:evenodd;-inkscape-stroke:none"
           d="m 0.24609375,0.25195313 c -0.30275495,0.30275582 -0.30275584,0.79685447 0,1.09960937 0.30275582,0.302755 0.79685435,0.3027559 1.09960935,0 0.3027549,-0.3027558 0.3027558,-0.79685442 0,-1.09960937 -0.3027558,-0.30275497 -0.79685439,-0.30275583 -1.09960935,0 z M 0.375,0.38085938 c 0.23276681,-0.23276748 0.60902942,-0.23276681 0.8417969,0 0.2327674,0.2327668 0.2327667,0.60707629 0,0.83984372 -0.23276689,0.2327676 -0.60902941,0.2327669 -0.8417969,0 -0.23276747,-0.23276673 -0.23276681,-0.60707625 0,-0.83984372 z"
           id="path1477" />
      </g>
      <g
         id="path1461"
         style="fill:#b88100">
        <path
           style="color:#000000;fill:#b88100;fill-rule:evenodd;stroke-width:0.1372pt;-inkscape-stroke:none"
           d="M 3.3811425,4.2641789 C 3.2362307,3.9143317 3.4025551,3.5127882 3.7524023,3.3678764 4.1022495,3.2229647 4.503793,3.3892891 4.6487048,3.7391363 4.7936165,4.0889835 4.6272921,4.490527 4.2774449,4.6354387 3.9275977,4.7803505 3.5260542,4.6140261 3.3811425,4.2641789 Z"
           id="path1465" />
        <path
           style="color:#000000;fill:#b88100;fill-rule:evenodd;-inkscape-stroke:none"
           d="M 3.7167969,3.2832031 C 3.321228,3.4470535 3.1330246,3.9032593 3.296875,4.2988281 3.4607253,4.694397 3.9169311,4.8845535 4.3125,4.7207031 4.7080689,4.5568529 4.8962721,4.100647 4.7324219,3.7050781 4.5685715,3.3095093 4.1123657,3.1193529 3.7167969,3.2832031 Z M 3.7871094,3.453125 C 4.0912342,3.3271522 4.4384802,3.4693127 4.5644531,3.7734375 4.690426,4.0775623 4.5463123,4.4248084 4.2421875,4.5507812 3.9380627,4.6767542 3.5908166,4.5326405 3.4648438,4.2285156 3.3388708,3.9243908 3.4829845,3.5790979 3.7871094,3.453125 Z"
           id="path1467" />
      </g>
      <g
         id="path1451"
         style="fill:#b88100">
        <path
           style="color:#000000;fill:#b9e397;fill-rule:evenodd;stroke-width:0.1372pt;-inkscape-stroke:none;fill-opacity:1"
           d="m 4.002248,1.4634667 c -0.378672,0 -0.686,-0.307328 -0.686,-0.686 0,-0.37867199 0.307328,-0.68599999 0.686,-0.68599999 0.378672,0 0.686,0.307328 0.686,0.68599999 0,0.378672 -0.307328,0.686 -0.686,0.686 z"
           id="path1455" />
        <path
           style="color:#000000;fill:#b88100;fill-rule:evenodd;-inkscape-stroke:none"
           d="M 4.0019531,0 C 3.5737923,0 3.2246094,0.34918298 3.2246094,0.77734375 c 0,0.42816075 0.3491829,0.77734375 0.7773437,0.77734375 0.4281608,0 0.7773438,-0.349183 0.7773438,-0.77734375 C 4.7792969,0.34918298 4.4301139,0 4.0019531,0 Z m 0,0.18359375 c 0.3291825,0 0.5957031,0.26456755 0.5957031,0.59375 0,0.32918245 -0.2665206,0.59375005 -0.5957031,0.59374995 -0.3291824,0 -0.59375,-0.2645675 -0.59375,-0.59374995 0,-0.32918245 0.2645676,-0.59375 0.59375,-0.59375 z"
           id="path1457" />
      </g>
    </g>
  </g>
  <g
     id="path2310"
     style="fill:#b88100">
    <path
       style="color:#000000;fill:#b88100;-inkscape-stroke:none"
       d="M 0.78710937,3.8359375 V 4.1777344 H 4.0019531 V 3.8359375 Z"
       id="path1443" />
    <g
       id="g1421"
       style="fill:#b88100">
      <g
         id="path1433"
         style="fill:#b88100">
        <path
           style="color:#000000;fill:#b9e397;fill-rule:evenodd;stroke-width:0.1372pt;-inkscape-stroke:none;fill-opacity:1"
           d="m 0.11424001,4.006908 c 0,-0.378672 0.307328,-0.686 0.68599999,-0.686 0.378672,0 0.686,0.307328 0.686,0.686 0,0.378672 -0.307328,0.686 -0.686,0.686 -0.37867199,0 -0.68599999,-0.307328 -0.68599999,-0.686 z"
           id="path1437" />
        <path
           style="color:#000000;fill:#b88100;fill-rule:evenodd;-inkscape-stroke:none"
           d="m 0.80078125,3.2285156 c -0.42816077,0 -0.77734375,0.3511361 -0.77734375,0.7792969 0,0.4281608 0.34918298,0.7773437 0.77734375,0.7773437 0.42816075,0 0.77734375,-0.3491829 0.77734375,-0.7773437 0,-0.4281608 -0.349183,-0.7792969 -0.77734375,-0.7792969 z m 0,0.1835938 c 0.32918245,0 0.59375005,0.2665206 0.59374995,0.5957031 0,0.3291825 -0.2645675,0.59375 -0.59374995,0.59375 -0.32918245,0 -0.59570312,-0.2645675 -0.59570312,-0.59375 -10e-9,-0.3291825 0.26652067,-0.5957031 0.59570312,-0.5957031 z"
           id="path1439" />
      </g>
      <g
         id="path1423"
         style="fill:#b88100">
        <path
           style="color:#000000;fill:#b88100;fill-rule:evenodd;stroke-width:0.1372pt;-inkscape-stroke:none"
           d="m 3.329968,4.006908 c 0,-0.378672 0.307328,-0.686 0.686,-0.686 0.378672,0 0.686,0.307328 0.686,0.686 0,0.378672 -0.307328,0.686 -0.686,0.686 -0.378672,0 -0.686,-0.307328 -0.686,-0.686 z"
           id="path1427" />
        <path
           style="color:#000000;fill:#b88100;fill-rule:evenodd;-inkscape-stroke:none"
           d="m 4.015625,3.2285156 c -0.4281608,0 -0.7773437,0.3511361 -0.7773437,0.7792969 0,0.4281608 0.3491829,0.7773437 0.7773437,0.7773437 0.4281608,0 0.7773437,-0.3491829 0.7773437,-0.7773437 0,-0.4281608 -0.3491829,-0.7792969 -0.7773437,-0.7792969 z m 0,0.1835938 c 0.3291825,0 0.5957031,0.2665206 0.5957031,0.5957031 0,0.3291825 -0.2665206,0.59375 -0.5957031,0.59375 -0.3291825,0 -0.59375,-0.2645675 -0.59375,-0.59375 0,-0.3291825 0.2645675,-0.5957031 0.59375,-0.5957031 z"
           id="path1429" />
      </g>
    </g>
  </g>
  <g
     id="path2312"
     style="fill:#b88100">
    <path
       style="color:#000000;fill:#b88100;-inkscape-stroke:none"
       d="M 0.90820313,7.1015625 0.66601562,7.34375 3.5878906,10.267578 H 0.78710937 v 0.341797 H 4.4160156 Z"
       id="path1415" />
    <g
       id="g1383"
       style="fill:#b88100">
      <g
         id="path1405"
         style="fill:#b88100">
        <path
           style="color:#000000;fill:#b9e397;fill-rule:evenodd;stroke-width:0.1372pt;-inkscape-stroke:none;fill-opacity:1"
           d="m 0.11424001,10.43835 c 0,-0.378672 0.307328,-0.686 0.68599999,-0.686 0.378672,0 0.686,0.307328 0.686,0.686 0,0.378672 -0.307328,0.686 -0.686,0.686 -0.37867199,0 -0.68599999,-0.307328 -0.68599999,-0.686 z"
           id="path1409" />
        <path
           style="color:#000000;fill:#b88100;fill-rule:evenodd;-inkscape-stroke:none"
           d="m 0.80078125,9.6601563 c -0.42816077,0 -0.77734375,0.3491827 -0.77734375,0.7773437 0,0.428161 0.34918298,0.777344 0.77734375,0.777344 0.42816075,0 0.77734375,-0.349183 0.77734375,-0.777344 0,-0.428161 -0.349183,-0.7773437 -0.77734375,-0.7773437 z m 0,0.1835937 c 0.32918245,0 0.59375005,0.264568 0.59374995,0.59375 0,0.329182 -0.2645675,0.595703 -0.59374995,0.595703 -0.32918245,0 -0.59570313,-0.266521 -0.59570312,-0.595703 -10e-9,-0.329182 0.26652067,-0.59375 0.59570312,-0.59375 z"
           id="path1411" />
      </g>
      <g
         id="path1395"
         style="fill:#b88100">
        <path
           style="color:#000000;fill:#b88100;fill-rule:evenodd;stroke-width:0.1372pt;-inkscape-stroke:none"
           d="M 3.7449781,11.059454 C 3.3951307,10.914543 3.2288056,10.513 3.3737168,10.163152 3.518628,9.8133047 3.9201713,9.6469796 4.2700187,9.7918908 4.6198661,9.936802 4.7861912,10.338345 4.64128,10.688193 4.4963688,11.03804 4.0948256,11.204365 3.7449781,11.059454 Z"
           id="path1399" />
        <path
           style="color:#000000;fill:#b88100;fill-rule:evenodd;-inkscape-stroke:none"
           d="m 4.3046875,9.7070313 c -0.3955691,-0.1638498 -0.8517753,0.026306 -1.015625,0.4218747 -0.1638496,0.39557 0.026306,0.851776 0.421875,1.015625 0.3955692,0.16385 0.8517753,-0.02631 1.015625,-0.421875 C 4.8904121,10.327087 4.7002566,9.8708809 4.3046875,9.7070313 Z M 4.234375,9.8769531 C 4.5385,10.002926 4.6826131,10.348218 4.5566406,10.652344 4.4306682,10.956468 4.083422,11.100582 3.7792969,10.974609 3.4751719,10.848637 3.3330119,10.501391 3.4589844,10.197266 3.5849568,9.8931407 3.93025,9.7509807 4.234375,9.8769531 Z"
           id="path1401" />
      </g>
      <g
         id="path1385"
         style="fill:#b88100">
        <path
           style="color:#000000;fill:#b9e397;fill-rule:evenodd;stroke-width:0.1372pt;-inkscape-stroke:none;fill-opacity:1"
           d="M 1.2618943,7.6980004 C 0.99413304,7.9657622 0.55950562,7.9657627 0.29174378,7.6980015 0.02398195,7.4302403 0.02398146,6.9956128 0.2917427,6.727851 c 0.26776123,-0.2677618 0.70238865,-0.2677623 0.9701505,-1.1e-6 0.2677618,0.2677613 0.2677623,0.7023887 1.1e-6,0.9701505 z"
           id="path1389" />
        <path
           style="color:#000000;fill:#b88100;fill-rule:evenodd;-inkscape-stroke:none"
           d="m 0.2265625,6.6640625 c -0.30275507,0.3027557 -0.30275574,0.7949012 0,1.0976562 0.30275574,0.3027551 0.7968543,0.3027557 1.0996094,0 0.302755,-0.3027556 0.3027556,-0.7949011 0,-1.0976562 -0.3027558,-0.302755 -0.79685435,-0.3027557 -1.0996094,0 z m 0.12890625,0.1289062 c 0.23276688,-0.2327673 0.60902946,-0.2327668 0.84179685,0 0.2327674,0.232767 0.2327669,0.6070764 0,0.8398438 -0.23276689,0.2327674 -0.60902944,0.2327669 -0.84179685,0 -0.23276739,-0.2327668 -0.23276688,-0.6070764 0,-0.8398438 z"
           id="path1391" />
      </g>
    </g>
  </g>
  <g
     id="path2314"
     style="fill:#b88100">
    <path
       style="color:#000000;fill:#b88100;-inkscape-stroke:none"
       d="M 3.8808594,10.316406 0.66601562,13.533203 0.90820313,13.775391 4.1230469,10.560547 Z"
       id="path1377" />
    <g
       id="g1355"
       style="fill:#b88100">
      <g
         id="path1367"
         style="fill:#b88100">
        <path
           style="color:#000000;fill:#b9e397;fill-rule:evenodd;stroke-width:0.1372pt;-inkscape-stroke:none;fill-opacity:1"
           d="m 0.31114574,14.129442 c -0.26776124,-0.267762 -0.26776077,-0.702389 1.06e-6,-0.97015 0.26776183,-0.267762 0.7023892,-0.267761 0.9701505,10e-7 0.2677612,0.267762 0.2677608,0.702389 -1.1e-6,0.97015 -0.2677618,0.267762 -0.70238921,0.267761 -0.97015046,-1e-6 z"
           id="path1371" />
        <path
           style="color:#000000;fill:#b88100;fill-rule:evenodd;-inkscape-stroke:none"
           d="m 0.24609375,13.09375 c -0.30275574,0.302755 -0.30275499,0.796854 0,1.099609 0.30275501,0.302756 0.79685365,0.302756 1.09960935,0 0.3027558,-0.302754 0.302755,-0.796853 0,-1.099609 -0.302755,-0.302756 -0.79685364,-0.302756 -1.09960935,0 z M 0.375,13.224609 c 0.23276741,-0.232767 0.60902986,-0.232767 0.8417969,0 0.2327669,0.232768 0.2327674,0.607077 0,0.839844 -0.2327674,0.232768 -0.60902995,0.232768 -0.8417969,0 -0.23276696,-0.232767 -0.23276739,-0.607077 0,-0.839844 z"
           id="path1373" />
      </g>
      <g
         id="path1357"
         style="fill:#b88100">
        <path
           style="color:#000000;fill:#b88100;fill-rule:evenodd;stroke-width:0.1372pt;-inkscape-stroke:none"
           d="M 3.5268737,10.913721 C 3.2591125,10.645959 3.259113,10.211332 3.5268748,9.9435707 3.7946366,9.6758095 4.229264,9.67581 4.4970253,9.9435718 c 0.2677612,0.2677622 0.2677608,0.7023892 -1.1e-6,0.9701502 -0.2677618,0.267762 -0.7023892,0.267761 -0.9701505,-10e-7 z"
           id="path1361" />
        <path
           style="color:#000000;fill:#b88100;fill-rule:evenodd;-inkscape-stroke:none"
           d="m 3.4628906,9.8789063 c -0.3027556,0.3027547 -0.3027549,0.7968537 0,1.0996097 0.3027551,0.302755 0.7968537,0.302756 1.0996094,0 0.3027558,-0.302755 0.3027549,-0.796854 0,-1.0996097 -0.3027551,-0.3027557 -0.7968537,-0.3027551 -1.0996094,0 z m 0.1289063,0.1289067 c 0.2327673,-0.2327673 0.6070768,-0.2327679 0.8398437,0 0.232767,0.232767 0.2327675,0.60903 0,0.841796 -0.2327674,0.232768 -0.6070767,0.232768 -0.8398437,0 -0.2327669,-0.232767 -0.2327674,-0.60903 0,-0.841796 z"
           id="path1363" />
      </g>
    </g>
  </g>
</svg>
