<?xml version="1.0" encoding="UTF-8" standalone="no"?>
<!-- Created with Inkscape (http://www.inkscape.org/) -->

<svg
   width="72.898338mm"
   height="68.533348mm"
   viewBox="0 0 72.898338 68.533348"
   version="1.1"
   id="svg5"
   sodipodi:docname="limit1.svg"
   inkscape:version="1.1 (c4e8f9e, 2021-05-24)"
   xmlns:inkscape="http://www.inkscape.org/namespaces/inkscape"
   xmlns:sodipodi="http://sodipodi.sourceforge.net/DTD/sodipodi-0.dtd"
   xmlns="http://www.w3.org/2000/svg"
   xmlns:svg="http://www.w3.org/2000/svg">
  <sodipodi:namedview
     id="namedview933"
     pagecolor="#ffffff"
     bordercolor="#666666"
     borderopacity="1.0"
     inkscape:pageshadow="2"
     inkscape:pageopacity="0.0"
     inkscape:pagecheckerboard="0"
     inkscape:document-units="mm"
     showgrid="false"
     inkscape:zoom="1.4262114"
     inkscape:cx="69.765252"
     inkscape:cy="171.43321"
     inkscape:window-width="1440"
     inkscape:window-height="847"
     inkscape:window-x="0"
     inkscape:window-y="25"
     inkscape:window-maximized="1"
     inkscape:current-layer="svg5" />
  <defs
     id="defs2">
    <marker
       style="overflow:visible"
       id="Arrow1Mend"
       refX="0"
       refY="0"
       orient="auto">
      <path
         transform="matrix(-0.4,0,0,-0.4,-4,0)"
         style="fill:context-stroke;fill-rule:evenodd;stroke:context-stroke;stroke-width:1pt"
         d="M 0,0 5,-5 -12.5,0 5,5 Z"
         id="path1378" />
    </marker>
    <marker
       style="overflow:visible"
       id="DotM"
       refX="0"
       refY="0"
       orient="auto">
      <path
         transform="matrix(0.4,0,0,0.4,2.96,0.4)"
         style="fill:context-stroke;fill-rule:evenodd;stroke:context-stroke;stroke-width:1pt"
         d="m -2.5,-1 c 0,2.76 -2.24,5 -5,5 -2.76,0 -5,-2.24 -5,-5 0,-2.76 2.24,-5 5,-5 2.76,0 5,2.24 5,5 z"
         id="path1433" />
    </marker>
    <defs
       id="id-e5966746-33c7-48b4-a294-4e00ee353b86">
      <g
         id="id-a976ecd7-0bc1-49f1-b051-565d2a89fe89">
        <symbol
           overflow="visible"
           id="id-397fc263-acf0-4bef-8fe9-e0d7bdb5de7b">
          <path
             style="stroke:none"
             d=""
             id="id-a8af7990-8dfa-465e-8757-7b8130a97343" />
        </symbol>
        <symbol
           overflow="visible"
           id="id-a29665d3-b7f2-4a9e-8f0f-2f8172a6b318">
          <path
             style="stroke:none"
             d="M 0.453125,1.21875 C 0.375,1.5625 0.34375,1.625 -0.09375,1.625 c -0.109375,0 -0.21875,0 -0.21875,0.1875 0,0.078125 0.046875,0.125 0.125,0.125 0.265625,0 0.5625,-0.03125 0.828125,-0.03125 0.34375,0 0.671875,0.03125 1,0.03125 0.046875,0 0.171875,0 0.171875,-0.203125 C 1.8125,1.625 1.71875,1.625 1.578125,1.625 c -0.5,0 -0.5,-0.0625 -0.5,-0.15625 0,-0.125 0.421875,-1.75 0.484375,-2 0.125,0.296875 0.40625,0.640625 0.921875,0.640625 1.15625,0 2.40625,-1.453125 2.40625,-2.921875 0,-0.9375 -0.578125,-1.59375 -1.328125,-1.59375 -0.5,0 -0.984375,0.359375 -1.3125,0.75 -0.09375,-0.546875 -0.53125,-0.75 -0.890625,-0.75 -0.46875,0 -0.65625,0.390625 -0.734375,0.5625 C 0.4375,-3.5 0.3125,-2.90625 0.3125,-2.875 c 0,0.109375 0.09375,0.109375 0.109375,0.109375 0.109375,0 0.109375,-0.015625 0.171875,-0.234375 0.171875,-0.703125 0.375,-1.1875 0.734375,-1.1875 0.171875,0 0.3125,0.078125 0.3125,0.453125 0,0.234375 -0.03125,0.34375 -0.078125,0.515625 z m 1.75,-4.328125 C 2.265625,-3.375 2.546875,-3.65625 2.71875,-3.8125 c 0.359375,-0.296875 0.640625,-0.375 0.8125,-0.375 0.390625,0 0.640625,0.34375 0.640625,0.9375 0,0.59375 -0.328125,1.734375 -0.515625,2.109375 -0.34375,0.703125 -0.8125,1.03125 -1.1875,1.03125 C 1.8125,-0.109375 1.6875,-0.9375 1.6875,-1 c 0,-0.015625 0,-0.03125 0.03125,-0.15625 z m 0,0"
             id="id-35e59f1f-10a3-4bc1-a4ac-6e93dbb22c26" />
        </symbol>
        <symbol
           overflow="visible"
           id="id-aa68e796-c763-45b9-9d22-988145b33c03">
          <path
             style="stroke:none"
             d="m 4.5,-4.296875 c 0,-0.046875 -0.03125,-0.09375 -0.09375,-0.09375 -0.109375,0 -0.515625,0.390625 -0.671875,0.6875 C 3.515625,-4.25 3.125,-4.40625 2.796875,-4.40625 c -1.171875,0 -2.390625,1.46875 -2.390625,2.921875 0,0.96875 0.578125,1.59375 1.3125,1.59375 0.421875,0 0.8125,-0.234375 1.171875,-0.59375 -0.09375,0.34375 -0.421875,1.6875 -0.453125,1.78125 -0.078125,0.28125 -0.15625,0.3125 -0.71875,0.328125 -0.125,0 -0.21875,0 -0.21875,0.203125 0,0 0,0.109375 0.125,0.109375 0.3125,0 0.671875,-0.03125 1,-0.03125 0.328125,0 0.6875,0.03125 1.03125,0.03125 0.046875,0 0.171875,0 0.171875,-0.203125 C 3.828125,1.625 3.734375,1.625 3.5625,1.625 3.09375,1.625 3.09375,1.5625 3.09375,1.46875 3.09375,1.390625 3.109375,1.328125 3.125,1.25 Z m -2.75,4.1875 c -0.609375,0 -0.640625,-0.765625 -0.640625,-0.9375 0,-0.484375 0.28125,-1.5625 0.453125,-1.984375 0.3125,-0.734375 0.828125,-1.15625 1.234375,-1.15625 0.65625,0 0.796875,0.8125 0.796875,0.875 0,0.0625 -0.546875,2.25 -0.578125,2.28125 C 2.859375,-0.75 2.296875,-0.109375 1.75,-0.109375 Z m 0,0"
             id="id-53a596d5-4f72-45f8-8cdd-7137afa5df72" />
        </symbol>
        <symbol
           overflow="visible"
           id="id-d4912c82-55b9-46aa-8455-09d529793cf8">
          <path
             style="stroke:none"
             d=""
             id="id-cf47a5b4-2b35-4770-905f-3bd0d369293a" />
        </symbol>
        <symbol
           overflow="visible"
           id="id-c2c00579-2972-4f2b-b29c-77af214bbf80">
          <path
             style="stroke:none"
             d="m 2.328125,-4.4375 c 0,-0.1875 0,-0.1875 -0.203125,-0.1875 -0.453125,0.4375 -1.078125,0.4375 -1.359375,0.4375 v 0.25 c 0.15625,0 0.625,0 1,-0.1875 v 3.546875 c 0,0.234375 0,0.328125 -0.6875,0.328125 H 0.8125 V 0 c 0.125,0 0.984375,-0.03125 1.234375,-0.03125 0.21875,0 1.09375,0.03125 1.25,0.03125 V -0.25 H 3.03125 c -0.703125,0 -0.703125,-0.09375 -0.703125,-0.328125 z m 0,0"
             id="id-7ffee61b-7ee4-47a4-98b5-5c8f26a2a129" />
        </symbol>
        <symbol
           overflow="visible"
           id="id-4d34f02c-0320-4461-8e14-1088252651d6">
          <path
             style="stroke:none"
             d="M 3.515625,-1.265625 H 3.28125 c -0.015625,0.15625 -0.09375,0.5625 -0.1875,0.625 C 3.046875,-0.59375 2.515625,-0.59375 2.40625,-0.59375 H 1.125 c 0.734375,-0.640625 0.984375,-0.84375 1.390625,-1.171875 0.515625,-0.40625 1,-0.84375 1,-1.5 0,-0.84375 -0.734375,-1.359375 -1.625,-1.359375 -0.859375,0 -1.453125,0.609375 -1.453125,1.25 0,0.34375 0.296875,0.390625 0.375,0.390625 0.15625,0 0.359375,-0.125 0.359375,-0.375 0,-0.125 -0.046875,-0.375 -0.40625,-0.375 C 0.984375,-4.21875 1.453125,-4.375 1.78125,-4.375 c 0.703125,0 1.0625,0.546875 1.0625,1.109375 0,0.609375 -0.4375,1.078125 -0.65625,1.328125 L 0.515625,-0.265625 C 0.4375,-0.203125 0.4375,-0.1875 0.4375,0 h 2.875 z m 0,0"
             id="id-08475de9-1d9c-4521-aceb-2c6421bcfdbd" />
        </symbol>
        <symbol
           overflow="visible"
           id="id-40438346-c8c0-489f-b4bb-887a54e4d970">
          <path
             style="stroke:none"
             d="m 1.90625,-2.328125 c 0.546875,0 0.9375,0.375 0.9375,1.125 0,0.859375 -0.515625,1.125 -0.90625,1.125 -0.28125,0 -0.90625,-0.078125 -1.1875,-0.5 0.328125,0 0.40625,-0.234375 0.40625,-0.390625 0,-0.21875 -0.171875,-0.375 -0.390625,-0.375 -0.1875,0 -0.390625,0.125 -0.390625,0.40625 0,0.65625 0.71875,1.078125 1.5625,1.078125 0.96875,0 1.640625,-0.65625 1.640625,-1.34375 0,-0.546875 -0.4375,-1.09375 -1.203125,-1.25 0.71875,-0.265625 0.984375,-0.78125 0.984375,-1.21875 0,-0.546875 -0.625,-0.953125 -1.40625,-0.953125 -0.765625,0 -1.359375,0.375 -1.359375,0.9375 0,0.234375 0.15625,0.359375 0.359375,0.359375 0.21875,0 0.359375,-0.15625 0.359375,-0.34375 0,-0.203125 -0.140625,-0.359375 -0.359375,-0.375 0.25,-0.296875 0.71875,-0.375 0.984375,-0.375 0.3125,0 0.75,0.15625 0.75,0.75 0,0.296875 -0.09375,0.625 -0.28125,0.828125 -0.21875,0.265625 -0.421875,0.28125 -0.765625,0.3125 -0.171875,0.015625 -0.1875,0.015625 -0.21875,0.015625 -0.015625,0 -0.078125,0.015625 -0.078125,0.09375 0,0.09375 0.0625,0.09375 0.1875,0.09375 z m 0,0"
             id="id-795b442f-f52c-4bb2-9883-28276cf9da78" />
        </symbol>
        <symbol
           overflow="visible"
           id="id-7294460d-4ae5-4d12-a2ef-08c70f0e58f9">
          <path
             style="stroke:none"
             d="m 3.6875,-1.140625 v -0.25 H 2.90625 V -4.5 c 0,-0.140625 0,-0.203125 -0.140625,-0.203125 -0.09375,0 -0.125,0 -0.1875,0.109375 l -2.3125,3.203125 v 0.25 h 2.0625 v 0.5625 c 0,0.25 0,0.328125 -0.578125,0.328125 H 1.5625 V 0 C 1.921875,-0.015625 2.359375,-0.03125 2.609375,-0.03125 2.875,-0.03125 3.3125,-0.015625 3.671875,0 v -0.25 h -0.1875 C 2.90625,-0.25 2.90625,-0.328125 2.90625,-0.578125 v -0.5625 z M 2.375,-3.9375 v 2.546875 H 0.53125 Z m 0,0"
             id="id-7019aa3c-3e99-4a65-9bc3-982b5ff4de26" />
        </symbol>
        <symbol
           overflow="visible"
           id="id-2429b954-8269-4b6b-8d3c-86e8a4cbf7fd">
          <path
             style="stroke:none"
             d="m 1.078125,-3.890625 c 0.359375,0.09375 0.5625,0.09375 0.671875,0.09375 0.921875,0 1.46875,-0.625 1.46875,-0.734375 0,-0.078125 -0.046875,-0.09375 -0.078125,-0.09375 -0.015625,0 -0.03125,0 -0.0625,0.015625 -0.171875,0.0625 -0.53125,0.203125 -1.046875,0.203125 -0.203125,0 -0.5625,-0.015625 -1.015625,-0.1875 C 0.9375,-4.625 0.921875,-4.625 0.921875,-4.625 c -0.09375,0 -0.09375,0.078125 -0.09375,0.1875 v 2.046875 c 0,0.125 0,0.203125 0.109375,0.203125 0.0625,0 0.078125,0 0.140625,-0.09375 0.296875,-0.375 0.734375,-0.4375 0.96875,-0.4375 0.421875,0 0.609375,0.328125 0.640625,0.390625 0.125,0.234375 0.171875,0.5 0.171875,0.90625 0,0.203125 0,0.609375 -0.21875,0.921875 -0.171875,0.25 -0.46875,0.421875 -0.8125,0.421875 -0.453125,0 -0.921875,-0.25 -1.09375,-0.71875 0.265625,0.015625 0.40625,-0.15625 0.40625,-0.34375 0,-0.296875 -0.265625,-0.34375 -0.359375,-0.34375 0,0 -0.34375,0 -0.34375,0.375 0,0.625 0.578125,1.25 1.40625,1.25 0.890625,0 1.671875,-0.65625 1.671875,-1.546875 0,-0.78125 -0.59375,-1.5 -1.453125,-1.5 -0.3125,0 -0.671875,0.0625 -0.984375,0.328125 z m 0,0"
             id="id-4467c113-bede-46e8-bcd7-670795cedae8" />
        </symbol>
        <symbol
           overflow="visible"
           id="id-725ebfe4-1314-45fa-856c-9537fdb0276d">
          <path
             style="stroke:none"
             d="m 1.046875,-2.28125 c 0,-0.5625 0.046875,-1.078125 0.3125,-1.515625 0.234375,-0.375 0.609375,-0.625 1.0625,-0.625 0.203125,0 0.484375,0.046875 0.625,0.234375 C 2.875,-4.171875 2.71875,-4.046875 2.71875,-3.84375 c 0,0.171875 0.125,0.328125 0.328125,0.328125 0.21875,0 0.34375,-0.140625 0.34375,-0.34375 0,-0.40625 -0.296875,-0.765625 -0.984375,-0.765625 -1,0 -2.03125,0.921875 -2.03125,2.421875 0,1.796875 0.84375,2.34375 1.625,2.34375 0.84375,0 1.578125,-0.65625 1.578125,-1.5625 0,-0.890625 -0.703125,-1.546875 -1.515625,-1.546875 -0.5625,0 -0.859375,0.375 -1.015625,0.6875 z M 2,-0.078125 c -0.359375,0 -0.625,-0.203125 -0.78125,-0.515625 C 1.125,-0.796875 1.0625,-1.15625 1.0625,-1.5625 c 0,-0.6875 0.40625,-1.203125 0.96875,-1.203125 0.3125,0 0.53125,0.125 0.703125,0.375 0.171875,0.265625 0.171875,0.5625 0.171875,0.96875 0,0.390625 0,0.6875 -0.1875,0.96875 -0.15625,0.234375 -0.390625,0.375 -0.71875,0.375 z m 0,0"
             id="id-0cedb262-3272-459d-bd9e-4e1b4171424b" />
        </symbol>
        <symbol
           overflow="visible"
           id="id-4baa73dc-58ea-47dc-9881-3660cd3d7198">
          <path
             style="stroke:none"
             d="m 3.734375,-4.203125 c 0.0625,-0.09375 0.0625,-0.109375 0.0625,-0.28125 H 1.96875 C 1.6875,-4.484375 1.609375,-4.5 1.359375,-4.515625 1,-4.546875 0.984375,-4.59375 0.96875,-4.703125 H 0.734375 l -0.25,1.484375 H 0.71875 c 0.015625,-0.109375 0.09375,-0.5625 0.203125,-0.640625 0.046875,-0.03125 0.625,-0.03125 0.71875,-0.03125 H 3.15625 c -0.21875,0.28125 -0.578125,0.71875 -0.71875,0.921875 -0.90625,1.1875 -1,2.296875 -1,2.703125 0,0.078125 0,0.40625 0.328125,0.40625 0.34375,0 0.34375,-0.3125 0.34375,-0.40625 v -0.28125 c 0,-1.34375 0.28125,-1.96875 0.578125,-2.34375 z m 0,0"
             id="id-7373f073-996c-4a70-9c12-66fcf18fc1ff" />
        </symbol>
      </g>
    </defs>
    <defs
       id="id-ec974092-6b7a-438c-914b-0124bb6abf5a">
      <g
         id="id-09da957c-c078-4991-8e81-75cdf369b733">
        <symbol
           overflow="visible"
           id="id-a02d434b-3bf5-4ffc-8fbc-b5b4a66982ae">
          <path
             style="stroke:none;stroke-width:0"
             d=""
             id="id-b26ad6c4-3300-4f47-b38a-be4f153d0a58" />
        </symbol>
        <symbol
           overflow="visible"
           id="id-72c3971c-e474-4200-8e9d-769bcd4a1ea0">
          <path
             style="stroke:none;stroke-width:0"
             d="M 3.328125,-3.015625 C 3.390625,-3.265625 3.625,-4.1875 4.3125,-4.1875 c 0.046875,0 0.296875,0 0.5,0.125 C 4.53125,-4 4.34375,-3.765625 4.34375,-3.515625 c 0,0.15625 0.109375,0.34375 0.375,0.34375 0.21875,0 0.53125,-0.171875 0.53125,-0.578125 0,-0.515625 -0.578125,-0.65625 -0.921875,-0.65625 -0.578125,0 -0.921875,0.53125 -1.046875,0.75 -0.25,-0.65625 -0.78125,-0.75 -1.078125,-0.75 -1.03125,0 -1.609375,1.28125 -1.609375,1.53125 0,0.109375 0.109375,0.109375 0.125,0.109375 0.078125,0 0.109375,-0.03125 0.125,-0.109375 0.34375,-1.0625 1,-1.3125 1.34375,-1.3125 0.1875,0 0.53125,0.09375 0.53125,0.671875 0,0.3125 -0.171875,0.96875 -0.53125,2.375 -0.15625,0.609375 -0.515625,1.03125 -0.953125,1.03125 -0.0625,0 -0.28125,0 -0.5,-0.125 0.25,-0.0625 0.46875,-0.265625 0.46875,-0.546875 0,-0.265625 -0.21875,-0.34375 -0.359375,-0.34375 -0.3125,0 -0.546875,0.25 -0.546875,0.578125 0,0.453125 0.484375,0.65625 0.921875,0.65625 0.671875,0 1.03125,-0.703125 1.046875,-0.75 0.125,0.359375 0.484375,0.75 1.078125,0.75 1.03125,0 1.59375,-1.28125 1.59375,-1.53125 0,-0.109375 -0.078125,-0.109375 -0.109375,-0.109375 -0.09375,0 -0.109375,0.046875 -0.140625,0.109375 -0.328125,1.078125 -1,1.3125 -1.3125,1.3125 -0.390625,0 -0.546875,-0.3125 -0.546875,-0.65625 0,-0.21875 0.046875,-0.4375 0.15625,-0.875 z m 0,0"
             id="id-277b9c9e-cd04-4af7-bab8-4ccf48c9457a" />
        </symbol>
        <symbol
           overflow="visible"
           id="id-429f08d5-cd49-433d-a01f-41c5ce7a44ab">
          <path
             style="stroke:none;stroke-width:0"
             d="m 4.84375,-3.796875 c 0.046875,-0.140625 0.046875,-0.15625 0.046875,-0.234375 0,-0.171875 -0.140625,-0.265625 -0.296875,-0.265625 -0.09375,0 -0.25,0.0625 -0.34375,0.203125 -0.015625,0.0625 -0.109375,0.359375 -0.140625,0.546875 -0.078125,0.25 -0.140625,0.53125 -0.203125,0.796875 l -0.453125,1.796875 c -0.03125,0.140625 -0.46875,0.84375 -1.125,0.84375 -0.5,0 -0.609375,-0.4375 -0.609375,-0.8125 C 1.71875,-1.375 1.890625,-2 2.21875,-2.875 2.375,-3.28125 2.421875,-3.390625 2.421875,-3.59375 c 0,-0.4375 -0.3125,-0.8125 -0.8125,-0.8125 -0.953125,0 -1.3125,1.453125 -1.3125,1.53125 0,0.109375 0.09375,0.109375 0.109375,0.109375 0.109375,0 0.109375,-0.03125 0.15625,-0.1875 0.28125,-0.9375 0.671875,-1.234375 1.015625,-1.234375 0.078125,0 0.25,0 0.25,0.3125 0,0.25 -0.109375,0.515625 -0.171875,0.703125 -0.40625,1.0625 -0.578125,1.625 -0.578125,2.09375 0,0.890625 0.625,1.1875 1.21875,1.1875 0.390625,0 0.71875,-0.171875 1,-0.453125 -0.125,0.515625 -0.25,1.015625 -0.640625,1.546875 -0.265625,0.328125 -0.640625,0.625 -1.09375,0.625 -0.140625,0 -0.59375,-0.03125 -0.765625,-0.421875 0.15625,0 0.296875,0 0.421875,-0.125 C 1.328125,1.203125 1.421875,1.0625 1.421875,0.875 1.421875,0.5625 1.15625,0.53125 1.0625,0.53125 0.828125,0.53125 0.5,0.6875 0.5,1.171875 c 0,0.5 0.4375,0.875 1.0625,0.875 1.015625,0 2.046875,-0.90625 2.328125,-2.03125 z m 0,0"
             id="id-0d601011-d1d5-4957-a5e3-642e21122768" />
        </symbol>
      </g>
    </defs>
  </defs>
  <g
     id="g1997"
     transform="translate(0.16266505)">
    <path
       style="color:#000000;fill:#9a9996;stroke:#9a9996;stroke-width:0.3;stroke-miterlimit:4;stroke-dasharray:none;stroke-opacity:1"
       d="m 63.380861,8.989727 c -0.19616,2.255766 -0.4667,4.421107 -0.80273,6.498047 -0.65565,4.052435 -1.5654,7.770616 -2.68946,11.183593 -1.21723,3.695847 -2.68438,7.033876 -4.34765,10.046875 -2.14847,3.891938 -4.624106,7.243028 -7.312503,10.128908 -2.24087,2.40549 -4.629828,4.48739 -7.09961,6.28906 -2.275209,1.65973 -4.619463,3.08148 -6.980468,4.29883 -0.993537,0.51228 -1.990714,0.98929 -2.986328,1.43164 -0.897777,0.39889 -1.79405,0.76934 -2.6875,1.11523 C 13.757722,65.67942 0.02344,64.43309 0.02344,64.43309 L 0,64.69676 c 0,0 13.789616,1.25541 28.570313,-4.4668 0.897324,-0.34739 1.797381,-0.7204 2.699218,-1.12109 1.00012,-0.44435 2.001759,-0.9228 3,-1.4375 2.372186,-1.22311 4.728633,-2.65199 7.015625,-4.32031 2.482572,-1.81101 4.883834,-3.90584 7.136719,-6.32422 2.702813,-2.90136 5.190636,-6.27067 7.349616,-10.181644 1.6714,-3.027735 3.145,-6.378948 4.36718,-10.089844 1.12864,-3.426876 2.04344,-7.159221 2.70118,-11.22461 0.3371,-2.083578 0.60603,-4.255571 0.80273,-6.517578 z"
       id="path2639" />
    <path
       style="fill:none;fill-rule:evenodd;stroke:#1c71d8;stroke-width:0.2;stroke-linecap:butt;stroke-linejoin:miter;stroke-miterlimit:4;stroke-dasharray:none;stroke-opacity:1"
       d="M 24.793693,64.960559 67.549043,9.2060439"
       id="path2731" />
    <path
       style="fill:none;fill-rule:evenodd;stroke:#e5a50a;stroke-width:0.2;stroke-linecap:butt;stroke-linejoin:miter;stroke-miterlimit:4;stroke-dasharray:none;stroke-opacity:1"
       d="M 24.025464,64.867645 71.859267,14.165877"
       id="path2859" />
    <path
       style="fill:none;fill-rule:evenodd;stroke:#26a269;stroke-width:0.2;stroke-linecap:butt;stroke-linejoin:miter;stroke-miterlimit:4;stroke-dasharray:none;stroke-opacity:1"
       d="M 22.954551,64.878845 71.809835,22.901116"
       id="path2963" />
    <path
       style="fill:none;stroke:#000000;stroke-width:0.238139px;stroke-linecap:butt;stroke-linejoin:miter;stroke-opacity:1;marker-end:url(#Arrow1Mend)"
       d="M 10.595054,68.53335 V 4.231838"
       id="path859" />
    <path
       style="fill:none;stroke:#000000;stroke-width:0.264583px;stroke-linecap:butt;stroke-linejoin:miter;stroke-opacity:1;marker-end:url(#Arrow1Mend)"
       d="M 0.01172,65.09378 H 68.803391"
       id="path861" />
    <path
       style="color:#000000;fill:#000000;fill-rule:evenodd;stroke-width:0.105833pt;-inkscape-stroke:none"
       d="m 62.792211,14.99707 c 0.28835,0.04665 0.48452,0.318539 0.43786,0.606889 -0.0466,0.28835 -0.31854,0.48451 -0.60689,0.437858 -0.28835,-0.04665 -0.48451,-0.318539 -0.43785,-0.606889 0.0466,-0.28835 0.31853,-0.48451 0.60688,-0.437858 z"
       id="path2633" />
    <path
       style="color:#000000;fill:#000000;fill-rule:evenodd;-inkscape-stroke:none"
       d="m 62.802741,14.927227 c -0.32604,-0.05275 -0.63481,0.170043 -0.6875,0.496094 -0.0528,0.326035 0.17005,0.634753 0.49609,0.6875 0.32604,0.05275 0.63481,-0.170042 0.6875,-0.496094 0.0528,-0.326037 -0.17006,-0.634753 -0.49609,-0.6875 z m -0.0215,0.138672 c 0.25067,0.04055 0.41947,0.276681 0.37891,0.527343 -0.0405,0.250648 -0.27473,0.419461 -0.52539,0.378907 -0.25067,-0.04055 -0.41947,-0.274727 -0.37891,-0.525391 0.0405,-0.250649 0.27473,-0.421414 0.52539,-0.380859 z"
       id="path2635" />
    <path
       style="color:#000000;fill:#000000;fill-rule:evenodd;stroke-width:0.105833pt;-inkscape-stroke:none"
       d="m 60.175931,26.221139 c 0.27744,0.09137 0.42845,0.390702 0.33708,0.668142 -0.0914,0.27744 -0.3907,0.428449 -0.66814,0.337074 -0.27744,-0.09137 -0.42845,-0.390702 -0.33708,-0.668142 0.0914,-0.27744 0.3907,-0.428449 0.66814,-0.337074 z"
       id="path2623" />
    <path
       style="color:#000000;fill:#000000;fill-rule:evenodd;-inkscape-stroke:none"
       d="m 60.197271,26.153789 c -0.3137,-0.103316 -0.65252,0.06912 -0.75586,0.382813 -0.10331,0.313699 0.0672,0.652548 0.38086,0.755859 0.31369,0.103317 0.65447,-0.06717 0.75781,-0.380859 0.10331,-0.313699 -0.0691,-0.654501 -0.38281,-0.757813 z m -0.043,0.134766 c 0.24118,0.07943 0.37044,0.336944 0.29101,0.578125 -0.0794,0.24119 -0.33694,0.372402 -0.57812,0.292969 -0.24118,-0.07943 -0.3724,-0.338898 -0.29297,-0.580078 0.0795,-0.24119 0.3389,-0.370449 0.58008,-0.291016 z"
       id="path2625" />
    <path
       style="fill:none;fill-rule:evenodd;stroke:#b5835a;stroke-width:0.2;stroke-linecap:butt;stroke-linejoin:miter;stroke-miterlimit:4;stroke-dasharray:none;stroke-opacity:1"
       d="M 21.405134,64.800051 71.820426,31.294777"
       id="path3067" />
    <path
       style="fill:none;fill-rule:evenodd;stroke:#33d17a;stroke-width:0.2;stroke-linecap:butt;stroke-linejoin:miter;stroke-miterlimit:4;stroke-dasharray:none;stroke-opacity:1"
       d="M 18.470012,64.676008 72.694735,40.346953"
       id="path4695" />
    <path
       style="fill:none;fill-rule:evenodd;stroke:#c061cb;stroke-width:0.2;stroke-linecap:butt;stroke-linejoin:miter;stroke-miterlimit:4;stroke-dasharray:none;stroke-opacity:1"
       d="M 20.010835,64.742138 72.221602,36.504688"
       id="path3171" />
    <path
       style="fill:#9141ac;fill-rule:evenodd;stroke:#e66100;stroke-width:0.2;stroke-linecap:butt;stroke-linejoin:miter;stroke-miterlimit:4;stroke-dasharray:none;stroke-opacity:1"
       d="M 17.234659,64.764826 72.439708,41.839238"
       id="path3277" />
    <path
       style="color:#000000;fill:#000000;fill-rule:evenodd;stroke-width:0.105833pt;-inkscape-stroke:none"
       d="m 55.906951,36.328079 c 0.25572,0.141167 0.3487,0.46328 0.20753,0.719003 -0.14117,0.255723 -0.46328,0.348696 -0.719,0.207529 -0.25572,-0.141167 -0.3487,-0.46328 -0.20753,-0.719003 0.14117,-0.255722 0.46328,-0.348695 0.719,-0.207529 z"
       id="path2613" />
    <path
       style="color:#000000;fill:#000000;fill-rule:evenodd;-inkscape-stroke:none"
       d="m 55.941411,36.267071 c -0.28914,-0.159616 -0.65484,-0.05477 -0.81446,0.234375 -0.15962,0.289144 -0.0548,0.654837 0.23438,0.814453 0.28914,0.159616 0.65483,0.05477 0.81445,-0.234375 0.15962,-0.289144 0.0548,-0.654837 -0.23437,-0.814453 z m -0.0684,0.123046 c 0.2223,0.122718 0.30241,0.400746 0.17969,0.623047 -0.12273,0.222304 -0.40075,0.302405 -0.62305,0.179688 -0.2223,-0.122718 -0.30241,-0.400746 -0.17969,-0.623047 0.12272,-0.222302 0.40075,-0.302404 0.62305,-0.179688 z"
       id="path2615" />
    <path
       style="color:#000000;fill:#000000;fill-rule:evenodd;stroke-width:0.105833pt;-inkscape-stroke:none"
       d="m 48.678045,46.55812 c 0.213729,0.19911 0.2256,0.53416 0.0265,0.74789 -0.199104,0.21373 -0.534156,0.2256 -0.747885,0.0265 -0.213729,-0.1991 -0.225599,-0.53415 -0.0265,-0.74788 0.199103,-0.21373 0.534155,-0.2256 0.747884,-0.0265 z"
       id="path2603" />
    <path
       style="color:#000000;fill:#000000;fill-rule:evenodd;stroke-width:0.105833pt;-inkscape-stroke:none"
       d="m 41.625475,52.93786 c 0.172146,0.23598 0.120337,0.56722 -0.115646,0.73936 -0.235983,0.17215 -0.567218,0.12034 -0.739364,-0.11564 -0.172146,-0.23599 -0.120337,-0.56722 0.115646,-0.73937 0.235983,-0.17214 0.567218,-0.12033 0.739364,0.11565 z"
       id="path2593" />
    <path
       style="color:#000000;fill:#000000;fill-rule:evenodd;-inkscape-stroke:none"
       d="m 40.843752,52.76512 c -0.266822,0.19464 -0.325501,0.57106 -0.130859,0.83789 0.194644,0.26682 0.571067,0.32551 0.83789,0.13086 0.266826,-0.19464 0.325504,-0.57107 0.13086,-0.83789 -0.194644,-0.26682 -0.571067,-0.3255 -0.837891,-0.13086 z m 0.08398,0.11328 c 0.205141,-0.14964 0.490977,-0.10358 0.640625,0.10156 0.149647,0.20514 0.10553,0.49098 -0.09961,0.64063 -0.205142,0.14965 -0.490977,0.10357 -0.640625,-0.10157 -0.149649,-0.20515 -0.105534,-0.49097 0.09961,-0.64062 z"
       id="path2595" />
    <path
       style="color:#000000;fill:#000000;fill-rule:evenodd;stroke-width:0.105833pt;-inkscape-stroke:none"
       d="m 34.669733,57.3154 c 0.133863,0.25962 0.0318,0.57897 -0.227823,0.71283 -0.259621,0.13386 -0.57897,0.0318 -0.712832,-0.22783 -0.133863,-0.25962 -0.0318,-0.57897 0.227823,-0.71283 0.259621,-0.13386 0.57897,-0.0318 0.712832,0.22783 z"
       id="path2583" />
    <path
       style="color:#000000;fill:#000000;fill-rule:evenodd;-inkscape-stroke:none"
       d="m 33.92383,57.02488 c -0.293553,0.15136 -0.40917,0.51505 -0.257812,0.8086 0.151356,0.29356 0.515043,0.40916 0.808594,0.25781 0.293553,-0.15136 0.40917,-0.51504 0.257812,-0.80859 -0.151356,-0.29356 -0.515043,-0.40917 -0.808594,-0.25782 z m 0.06445,0.125 c 0.225692,-0.11636 0.502773,-0.0284 0.619141,0.19727 0.116368,0.22569 0.02843,0.50277 -0.197266,0.61914 -0.225691,0.11637 -0.502772,0.0284 -0.61914,-0.19727 -0.116368,-0.22569 -0.02843,-0.50277 0.197265,-0.61914 z"
       id="path2585" />
    <path
       style="color:#000000;fill:#000000;fill-rule:evenodd;stroke-width:0.105833pt;-inkscape-stroke:none"
       d="m 31.690138,58.7765 c 0.118601,0.26694 -0.0018,0.57984 -0.268727,0.69844 -0.266938,0.1186 -0.579839,-0.002 -0.69844,-0.26873 -0.118601,-0.26693 0.0018,-0.57984 0.268726,-0.69844 0.266939,-0.1186 0.57984,0.002 0.698441,0.26873 z"
       id="path2573" />
    <path
       style="color:#000000;fill:#000000;fill-rule:evenodd;-inkscape-stroke:none"
       d="m 30.962893,58.44285 c -0.301813,0.1341 -0.43879,0.49115 -0.304688,0.79297 0.134111,0.30161 0.489164,0.43685 0.791016,0.30274 0.301813,-0.13411 0.438789,-0.48919 0.304687,-0.79102 -0.134111,-0.30161 -0.489162,-0.4388 -0.791015,-0.30469 z m 0.05664,0.12891 c 0.232025,-0.10309 0.502379,0.003 0.605469,0.23437 0.10165,0.23161 -10e-4,0.50071 -0.232422,0.60352 -0.232023,0.10309 -0.502378,-5.8e-4 -0.605468,-0.23242 -0.103099,-0.23204 3.83e-4,-0.50237 0.232421,-0.60547 z"
       id="path2575" />
    <path
       style="color:#000000;fill:#000000;fill-rule:evenodd;stroke-width:0.105833pt;-inkscape-stroke:none"
       d="m 29.005609,59.91857 c 0.105456,0.2724 -0.03003,0.57906 -0.302432,0.68452 -0.272399,0.10545 -0.579064,-0.03 -0.684521,-0.30243 -0.105456,-0.2724 0.03003,-0.57907 0.302432,-0.68453 0.272399,-0.10545 0.579064,0.03 0.684521,0.30244 z"
       id="path2563" />
    <path
       style="color:#000000;fill:#000000;fill-rule:evenodd;-inkscape-stroke:none"
       d="m 28.294924,59.55027 c -0.308002,0.11925 -0.461035,0.46739 -0.341797,0.77539 0.119238,0.30803 0.467398,0.46298 0.775391,0.34375 0.308,-0.11924 0.462988,-0.46739 0.34375,-0.77539 -0.119237,-0.30804 -0.469351,-0.46298 -0.777344,-0.34375 z m 0.05078,0.13086 c 0.236805,-0.0917 0.502074,0.0268 0.59375,0.26368 0.09167,0.2368 -0.02492,0.50011 -0.261718,0.59179 -0.236805,0.0917 -0.502074,-0.0249 -0.59375,-0.26172 -0.09167,-0.2368 0.02492,-0.50207 0.261718,-0.59375 z"
       id="path2565" />
    <g
       transform="matrix(0.375579,0,0,0.375579,26.947918,63.29197)"
       id="g4019"
       style="fill:#000000;fill-opacity:1">
      <path
         style="stroke:none"
         d="M 0.453125,1.21875 C 0.375,1.5625 0.34375,1.625 -0.09375,1.625 c -0.109375,0 -0.21875,0 -0.21875,0.1875 0,0.078125 0.046875,0.125 0.125,0.125 0.265625,0 0.5625,-0.03125 0.828125,-0.03125 0.34375,0 0.671875,0.03125 1,0.03125 0.046875,0 0.171875,0 0.171875,-0.203125 C 1.8125,1.625 1.71875,1.625 1.578125,1.625 c -0.5,0 -0.5,-0.0625 -0.5,-0.15625 0,-0.125 0.421875,-1.75 0.484375,-2 0.125,0.296875 0.40625,0.640625 0.921875,0.640625 1.15625,0 2.40625,-1.453125 2.40625,-2.921875 0,-0.9375 -0.578125,-1.59375 -1.328125,-1.59375 -0.5,0 -0.984375,0.359375 -1.3125,0.75 -0.09375,-0.546875 -0.53125,-0.75 -0.890625,-0.75 -0.46875,0 -0.65625,0.390625 -0.734375,0.5625 C 0.4375,-3.5 0.3125,-2.90625 0.3125,-2.875 c 0,0.109375 0.09375,0.109375 0.109375,0.109375 0.109375,0 0.109375,-0.015625 0.171875,-0.234375 0.171875,-0.703125 0.375,-1.1875 0.734375,-1.1875 0.171875,0 0.3125,0.078125 0.3125,0.453125 0,0.234375 -0.03125,0.34375 -0.078125,0.515625 z m 1.75,-4.328125 C 2.265625,-3.375 2.546875,-3.65625 2.71875,-3.8125 c 0.359375,-0.296875 0.640625,-0.375 0.8125,-0.375 0.390625,0 0.640625,0.34375 0.640625,0.9375 0,0.59375 -0.328125,1.734375 -0.515625,2.109375 -0.34375,0.703125 -0.8125,1.03125 -1.1875,1.03125 C 1.8125,-0.109375 1.6875,-0.9375 1.6875,-1 c 0,-0.015625 0,-0.03125 0.03125,-0.15625 z m 0,0"
         id="id-bfaae497-3777-43ba-9f05-fb62c2ab8e0e" />
    </g>
    <g
       id="g4321"
       transform="translate(-44.042883,-72.43886)"
       style="fill:#e01b24">
      <g
         transform="matrix(0.375579,0,0,0.375579,75.150661,135.11942)"
         id="g4023"
         style="fill:#e01b24;fill-opacity:1">
        <path
           style="fill:#e01b24;stroke:none"
           d="m 4.5,-4.296875 c 0,-0.046875 -0.03125,-0.09375 -0.09375,-0.09375 -0.109375,0 -0.515625,0.390625 -0.671875,0.6875 C 3.515625,-4.25 3.125,-4.40625 2.796875,-4.40625 c -1.171875,0 -2.390625,1.46875 -2.390625,2.921875 0,0.96875 0.578125,1.59375 1.3125,1.59375 0.421875,0 0.8125,-0.234375 1.171875,-0.59375 -0.09375,0.34375 -0.421875,1.6875 -0.453125,1.78125 -0.078125,0.28125 -0.15625,0.3125 -0.71875,0.328125 -0.125,0 -0.21875,0 -0.21875,0.203125 0,0 0,0.109375 0.125,0.109375 0.3125,0 0.671875,-0.03125 1,-0.03125 0.328125,0 0.6875,0.03125 1.03125,0.03125 0.046875,0 0.171875,0 0.171875,-0.203125 C 3.828125,1.625 3.734375,1.625 3.5625,1.625 3.09375,1.625 3.09375,1.5625 3.09375,1.46875 3.09375,1.390625 3.109375,1.328125 3.125,1.25 Z m -2.75,4.1875 c -0.609375,0 -0.640625,-0.765625 -0.640625,-0.9375 0,-0.484375 0.28125,-1.5625 0.453125,-1.984375 0.3125,-0.734375 0.828125,-1.15625 1.234375,-1.15625 0.65625,0 0.796875,0.8125 0.796875,0.875 0,0.0625 -0.546875,2.25 -0.578125,2.28125 C 2.859375,-0.75 2.296875,-0.109375 1.75,-0.109375 Z m 0,0"
           id="id-f72a1654-84e9-484f-afa0-3ec50d731097" />
      </g>
      <g
         transform="matrix(0.375579,0,0,0.375579,76.822363,135.68054)"
         id="g4027"
         style="fill:#e01b24;fill-opacity:1">
        <path
           style="fill:#e01b24;stroke:none"
           d="m 2.328125,-4.4375 c 0,-0.1875 0,-0.1875 -0.203125,-0.1875 -0.453125,0.4375 -1.078125,0.4375 -1.359375,0.4375 v 0.25 c 0.15625,0 0.625,0 1,-0.1875 v 3.546875 c 0,0.234375 0,0.328125 -0.6875,0.328125 H 0.8125 V 0 c 0.125,0 0.984375,-0.03125 1.234375,-0.03125 0.21875,0 1.09375,0.03125 1.25,0.03125 V -0.25 H 3.03125 c -0.703125,0 -0.703125,-0.09375 -0.703125,-0.328125 z m 0,0"
           id="id-a4e291d9-bb5c-4e3b-a29a-5ed26df64dc6" />
      </g>
    </g>
    <g
       id="g4327"
       transform="translate(-44.674916,-75.805411)"
       style="fill:#2ec27e">
      <g
         transform="matrix(0.375579,0,0,0.375579,79.748124,135.11942)"
         id="g4031"
         style="fill:#2ec27e;fill-opacity:1">
        <path
           style="fill:#2ec27e;stroke:none"
           d="m 4.5,-4.296875 c 0,-0.046875 -0.03125,-0.09375 -0.09375,-0.09375 -0.109375,0 -0.515625,0.390625 -0.671875,0.6875 C 3.515625,-4.25 3.125,-4.40625 2.796875,-4.40625 c -1.171875,0 -2.390625,1.46875 -2.390625,2.921875 0,0.96875 0.578125,1.59375 1.3125,1.59375 0.421875,0 0.8125,-0.234375 1.171875,-0.59375 -0.09375,0.34375 -0.421875,1.6875 -0.453125,1.78125 -0.078125,0.28125 -0.15625,0.3125 -0.71875,0.328125 -0.125,0 -0.21875,0 -0.21875,0.203125 0,0 0,0.109375 0.125,0.109375 0.3125,0 0.671875,-0.03125 1,-0.03125 0.328125,0 0.6875,0.03125 1.03125,0.03125 0.046875,0 0.171875,0 0.171875,-0.203125 C 3.828125,1.625 3.734375,1.625 3.5625,1.625 3.09375,1.625 3.09375,1.5625 3.09375,1.46875 3.09375,1.390625 3.109375,1.328125 3.125,1.25 Z m -2.75,4.1875 c -0.609375,0 -0.640625,-0.765625 -0.640625,-0.9375 0,-0.484375 0.28125,-1.5625 0.453125,-1.984375 0.3125,-0.734375 0.828125,-1.15625 1.234375,-1.15625 0.65625,0 0.796875,0.8125 0.796875,0.875 0,0.0625 -0.546875,2.25 -0.578125,2.28125 C 2.859375,-0.75 2.296875,-0.109375 1.75,-0.109375 Z m 0,0"
           id="id-6b37a1d0-9b38-466d-8eff-6cc3779cc159" />
      </g>
      <g
         transform="matrix(0.375579,0,0,0.375579,81.418699,135.68054)"
         id="g4035"
         style="fill:#2ec27e;fill-opacity:1">
        <path
           style="fill:#2ec27e;stroke:none"
           d="M 3.515625,-1.265625 H 3.28125 c -0.015625,0.15625 -0.09375,0.5625 -0.1875,0.625 C 3.046875,-0.59375 2.515625,-0.59375 2.40625,-0.59375 H 1.125 c 0.734375,-0.640625 0.984375,-0.84375 1.390625,-1.171875 0.515625,-0.40625 1,-0.84375 1,-1.5 0,-0.84375 -0.734375,-1.359375 -1.625,-1.359375 -0.859375,0 -1.453125,0.609375 -1.453125,1.25 0,0.34375 0.296875,0.390625 0.375,0.390625 0.15625,0 0.359375,-0.125 0.359375,-0.375 0,-0.125 -0.046875,-0.375 -0.40625,-0.375 C 0.984375,-4.21875 1.453125,-4.375 1.78125,-4.375 c 0.703125,0 1.0625,0.546875 1.0625,1.109375 0,0.609375 -0.4375,1.078125 -0.65625,1.328125 L 0.515625,-0.265625 C 0.4375,-0.203125 0.4375,-0.1875 0.4375,0 h 2.875 z m 0,0"
           id="id-8864aa95-39b6-49ee-8230-185aad7ec12f" />
      </g>
    </g>
    <g
       id="g4333"
       transform="translate(-42.656669,-79.774161)"
       style="fill:#613583">
      <g
         transform="matrix(0.375579,0,0,0.375579,84.34446,135.11942)"
         id="g4039"
         style="fill:#613583;fill-opacity:1">
        <path
           style="fill:#613583;stroke:none"
           d="m 4.5,-4.296875 c 0,-0.046875 -0.03125,-0.09375 -0.09375,-0.09375 -0.109375,0 -0.515625,0.390625 -0.671875,0.6875 C 3.515625,-4.25 3.125,-4.40625 2.796875,-4.40625 c -1.171875,0 -2.390625,1.46875 -2.390625,2.921875 0,0.96875 0.578125,1.59375 1.3125,1.59375 0.421875,0 0.8125,-0.234375 1.171875,-0.59375 -0.09375,0.34375 -0.421875,1.6875 -0.453125,1.78125 -0.078125,0.28125 -0.15625,0.3125 -0.71875,0.328125 -0.125,0 -0.21875,0 -0.21875,0.203125 0,0 0,0.109375 0.125,0.109375 0.3125,0 0.671875,-0.03125 1,-0.03125 0.328125,0 0.6875,0.03125 1.03125,0.03125 0.046875,0 0.171875,0 0.171875,-0.203125 C 3.828125,1.625 3.734375,1.625 3.5625,1.625 3.09375,1.625 3.09375,1.5625 3.09375,1.46875 3.09375,1.390625 3.109375,1.328125 3.125,1.25 Z m -2.75,4.1875 c -0.609375,0 -0.640625,-0.765625 -0.640625,-0.9375 0,-0.484375 0.28125,-1.5625 0.453125,-1.984375 0.3125,-0.734375 0.828125,-1.15625 1.234375,-1.15625 0.65625,0 0.796875,0.8125 0.796875,0.875 0,0.0625 -0.546875,2.25 -0.578125,2.28125 C 2.859375,-0.75 2.296875,-0.109375 1.75,-0.109375 Z m 0,0"
           id="id-03445bcc-8f58-402c-9352-9b20b18d0ee9" />
      </g>
      <g
         transform="matrix(0.375579,0,0,0.375579,86.014659,135.68054)"
         id="g4043"
         style="fill:#613583;fill-opacity:1">
        <path
           style="fill:#613583;stroke:none"
           d="m 1.90625,-2.328125 c 0.546875,0 0.9375,0.375 0.9375,1.125 0,0.859375 -0.515625,1.125 -0.90625,1.125 -0.28125,0 -0.90625,-0.078125 -1.1875,-0.5 0.328125,0 0.40625,-0.234375 0.40625,-0.390625 0,-0.21875 -0.171875,-0.375 -0.390625,-0.375 -0.1875,0 -0.390625,0.125 -0.390625,0.40625 0,0.65625 0.71875,1.078125 1.5625,1.078125 0.96875,0 1.640625,-0.65625 1.640625,-1.34375 0,-0.546875 -0.4375,-1.09375 -1.203125,-1.25 0.71875,-0.265625 0.984375,-0.78125 0.984375,-1.21875 0,-0.546875 -0.625,-0.953125 -1.40625,-0.953125 -0.765625,0 -1.359375,0.375 -1.359375,0.9375 0,0.234375 0.15625,0.359375 0.359375,0.359375 0.21875,0 0.359375,-0.15625 0.359375,-0.34375 0,-0.203125 -0.140625,-0.359375 -0.359375,-0.375 0.25,-0.296875 0.71875,-0.375 0.984375,-0.375 0.3125,0 0.75,0.15625 0.75,0.75 0,0.296875 -0.09375,0.625 -0.28125,0.828125 -0.21875,0.265625 -0.421875,0.28125 -0.765625,0.3125 -0.171875,0.015625 -0.1875,0.015625 -0.21875,0.015625 -0.015625,0 -0.078125,0.015625 -0.078125,0.09375 0,0.09375 0.0625,0.09375 0.1875,0.09375 z m 0,0"
           id="id-19bf861a-d140-4d0d-b889-37b6ebbc8c14" />
      </g>
    </g>
    <g
       id="g4339"
       transform="translate(-39.790846,-86.042507)"
       style="fill:#63452c">
      <g
         transform="matrix(0.375579,0,0,0.375579,88.940795,135.11942)"
         id="g4047"
         style="fill:#63452c;fill-opacity:1">
        <path
           style="fill:#63452c;stroke:none"
           d="m 4.5,-4.296875 c 0,-0.046875 -0.03125,-0.09375 -0.09375,-0.09375 -0.109375,0 -0.515625,0.390625 -0.671875,0.6875 C 3.515625,-4.25 3.125,-4.40625 2.796875,-4.40625 c -1.171875,0 -2.390625,1.46875 -2.390625,2.921875 0,0.96875 0.578125,1.59375 1.3125,1.59375 0.421875,0 0.8125,-0.234375 1.171875,-0.59375 -0.09375,0.34375 -0.421875,1.6875 -0.453125,1.78125 -0.078125,0.28125 -0.15625,0.3125 -0.71875,0.328125 -0.125,0 -0.21875,0 -0.21875,0.203125 0,0 0,0.109375 0.125,0.109375 0.3125,0 0.671875,-0.03125 1,-0.03125 0.328125,0 0.6875,0.03125 1.03125,0.03125 0.046875,0 0.171875,0 0.171875,-0.203125 C 3.828125,1.625 3.734375,1.625 3.5625,1.625 3.09375,1.625 3.09375,1.5625 3.09375,1.46875 3.09375,1.390625 3.109375,1.328125 3.125,1.25 Z m -2.75,4.1875 c -0.609375,0 -0.640625,-0.765625 -0.640625,-0.9375 0,-0.484375 0.28125,-1.5625 0.453125,-1.984375 0.3125,-0.734375 0.828125,-1.15625 1.234375,-1.15625 0.65625,0 0.796875,0.8125 0.796875,0.875 0,0.0625 -0.546875,2.25 -0.578125,2.28125 C 2.859375,-0.75 2.296875,-0.109375 1.75,-0.109375 Z m 0,0"
           id="id-11288be8-bf05-4029-943a-7c7745807686" />
      </g>
      <g
         transform="matrix(0.375579,0,0,0.375579,90.610995,135.68054)"
         id="g4051"
         style="fill:#63452c;fill-opacity:1">
        <path
           style="fill:#63452c;stroke:none"
           d="m 3.6875,-1.140625 v -0.25 H 2.90625 V -4.5 c 0,-0.140625 0,-0.203125 -0.140625,-0.203125 -0.09375,0 -0.125,0 -0.1875,0.109375 l -2.3125,3.203125 v 0.25 h 2.0625 v 0.5625 c 0,0.25 0,0.328125 -0.578125,0.328125 H 1.5625 V 0 C 1.921875,-0.015625 2.359375,-0.03125 2.609375,-0.03125 2.875,-0.03125 3.3125,-0.015625 3.671875,0 v -0.25 h -0.1875 C 2.90625,-0.25 2.90625,-0.328125 2.90625,-0.578125 v -0.5625 z M 2.375,-3.9375 v 2.546875 H 0.53125 Z m 0,0"
           id="id-9c0c29ab-ec6f-46d6-b995-c15ebfab86bf" />
      </g>
    </g>
    <g
       id="g4345"
       transform="translate(-37.006807,-95.399341)"
       style="fill:#26a269">
      <g
         transform="matrix(0.375579,0,0,0.375579,93.536756,135.11942)"
         id="g4055"
         style="fill:#26a269;fill-opacity:1">
        <path
           style="fill:#26a269;stroke:none"
           d="m 4.5,-4.296875 c 0,-0.046875 -0.03125,-0.09375 -0.09375,-0.09375 -0.109375,0 -0.515625,0.390625 -0.671875,0.6875 C 3.515625,-4.25 3.125,-4.40625 2.796875,-4.40625 c -1.171875,0 -2.390625,1.46875 -2.390625,2.921875 0,0.96875 0.578125,1.59375 1.3125,1.59375 0.421875,0 0.8125,-0.234375 1.171875,-0.59375 -0.09375,0.34375 -0.421875,1.6875 -0.453125,1.78125 -0.078125,0.28125 -0.15625,0.3125 -0.71875,0.328125 -0.125,0 -0.21875,0 -0.21875,0.203125 0,0 0,0.109375 0.125,0.109375 0.3125,0 0.671875,-0.03125 1,-0.03125 0.328125,0 0.6875,0.03125 1.03125,0.03125 0.046875,0 0.171875,0 0.171875,-0.203125 C 3.828125,1.625 3.734375,1.625 3.5625,1.625 3.09375,1.625 3.09375,1.5625 3.09375,1.46875 3.09375,1.390625 3.109375,1.328125 3.125,1.25 Z m -2.75,4.1875 c -0.609375,0 -0.640625,-0.765625 -0.640625,-0.9375 0,-0.484375 0.28125,-1.5625 0.453125,-1.984375 0.3125,-0.734375 0.828125,-1.15625 1.234375,-1.15625 0.65625,0 0.796875,0.8125 0.796875,0.875 0,0.0625 -0.546875,2.25 -0.578125,2.28125 C 2.859375,-0.75 2.296875,-0.109375 1.75,-0.109375 Z m 0,0"
           id="id-55742668-7612-425d-bef4-7b37f6fc59c7" />
      </g>
      <g
         transform="matrix(0.375579,0,0,0.375579,95.207331,135.68054)"
         id="g4059"
         style="fill:#26a269;fill-opacity:1">
        <path
           style="fill:#26a269;stroke:none"
           d="m 1.078125,-3.890625 c 0.359375,0.09375 0.5625,0.09375 0.671875,0.09375 0.921875,0 1.46875,-0.625 1.46875,-0.734375 0,-0.078125 -0.046875,-0.09375 -0.078125,-0.09375 -0.015625,0 -0.03125,0 -0.0625,0.015625 -0.171875,0.0625 -0.53125,0.203125 -1.046875,0.203125 -0.203125,0 -0.5625,-0.015625 -1.015625,-0.1875 C 0.9375,-4.625 0.921875,-4.625 0.921875,-4.625 c -0.09375,0 -0.09375,0.078125 -0.09375,0.1875 v 2.046875 c 0,0.125 0,0.203125 0.109375,0.203125 0.0625,0 0.078125,0 0.140625,-0.09375 0.296875,-0.375 0.734375,-0.4375 0.96875,-0.4375 0.421875,0 0.609375,0.328125 0.640625,0.390625 0.125,0.234375 0.171875,0.5 0.171875,0.90625 0,0.203125 0,0.609375 -0.21875,0.921875 -0.171875,0.25 -0.46875,0.421875 -0.8125,0.421875 -0.453125,0 -0.921875,-0.25 -1.09375,-0.71875 0.265625,0.015625 0.40625,-0.15625 0.40625,-0.34375 0,-0.296875 -0.265625,-0.34375 -0.359375,-0.34375 0,0 -0.34375,0 -0.34375,0.375 0,0.625 0.578125,1.25 1.40625,1.25 0.890625,0 1.671875,-0.65625 1.671875,-1.546875 0,-0.78125 -0.59375,-1.5 -1.453125,-1.5 -0.3125,0 -0.671875,0.0625 -0.984375,0.328125 z m 0,0"
           id="id-56b6ffcd-9847-40ee-86a6-a7afd546126a" />
      </g>
    </g>
    <g
       id="g4351"
       transform="translate(-37.634392,-105.98267)"
       style="fill:#ffa348">
      <g
         transform="matrix(0.375579,0,0,0.375579,98.133091,135.11942)"
         id="g4063"
         style="fill:#ffa348;fill-opacity:1">
        <path
           style="fill:#ffa348;stroke:none"
           d="m 4.5,-4.296875 c 0,-0.046875 -0.03125,-0.09375 -0.09375,-0.09375 -0.109375,0 -0.515625,0.390625 -0.671875,0.6875 C 3.515625,-4.25 3.125,-4.40625 2.796875,-4.40625 c -1.171875,0 -2.390625,1.46875 -2.390625,2.921875 0,0.96875 0.578125,1.59375 1.3125,1.59375 0.421875,0 0.8125,-0.234375 1.171875,-0.59375 -0.09375,0.34375 -0.421875,1.6875 -0.453125,1.78125 -0.078125,0.28125 -0.15625,0.3125 -0.71875,0.328125 -0.125,0 -0.21875,0 -0.21875,0.203125 0,0 0,0.109375 0.125,0.109375 0.3125,0 0.671875,-0.03125 1,-0.03125 0.328125,0 0.6875,0.03125 1.03125,0.03125 0.046875,0 0.171875,0 0.171875,-0.203125 C 3.828125,1.625 3.734375,1.625 3.5625,1.625 3.09375,1.625 3.09375,1.5625 3.09375,1.46875 3.09375,1.390625 3.109375,1.328125 3.125,1.25 Z m -2.75,4.1875 c -0.609375,0 -0.640625,-0.765625 -0.640625,-0.9375 0,-0.484375 0.28125,-1.5625 0.453125,-1.984375 0.3125,-0.734375 0.828125,-1.15625 1.234375,-1.15625 0.65625,0 0.796875,0.8125 0.796875,0.875 0,0.0625 -0.546875,2.25 -0.578125,2.28125 C 2.859375,-0.75 2.296875,-0.109375 1.75,-0.109375 Z m 0,0"
           id="id-00a6b6e0-7964-4cd9-9013-a4d7d5dc8085" />
      </g>
      <g
         transform="matrix(0.375579,0,0,0.375579,99.803667,135.68054)"
         id="g4067"
         style="fill:#ffa348;fill-opacity:1">
        <path
           style="fill:#ffa348;stroke:none"
           d="m 1.046875,-2.28125 c 0,-0.5625 0.046875,-1.078125 0.3125,-1.515625 0.234375,-0.375 0.609375,-0.625 1.0625,-0.625 0.203125,0 0.484375,0.046875 0.625,0.234375 C 2.875,-4.171875 2.71875,-4.046875 2.71875,-3.84375 c 0,0.171875 0.125,0.328125 0.328125,0.328125 0.21875,0 0.34375,-0.140625 0.34375,-0.34375 0,-0.40625 -0.296875,-0.765625 -0.984375,-0.765625 -1,0 -2.03125,0.921875 -2.03125,2.421875 0,1.796875 0.84375,2.34375 1.625,2.34375 0.84375,0 1.578125,-0.65625 1.578125,-1.5625 0,-0.890625 -0.703125,-1.546875 -1.515625,-1.546875 -0.5625,0 -0.859375,0.375 -1.015625,0.6875 z M 2,-0.078125 c -0.359375,0 -0.625,-0.203125 -0.78125,-0.515625 C 1.125,-0.796875 1.0625,-1.15625 1.0625,-1.5625 c 0,-0.6875 0.40625,-1.203125 0.96875,-1.203125 0.3125,0 0.53125,0.125 0.703125,0.375 0.171875,0.265625 0.171875,0.5625 0.171875,0.96875 0,0.390625 0,0.6875 -0.1875,0.96875 -0.15625,0.234375 -0.390625,0.375 -0.71875,0.375 z m 0,0"
           id="id-736e5af7-e855-4a8b-a31b-12a887e0ab22" />
      </g>
    </g>
    <g
       id="g4357"
       transform="translate(-39.297345,-116.78901)"
       style="fill:#1a5fb4">
      <g
         transform="matrix(0.375579,0,0,0.375579,102.72943,135.11942)"
         id="g4071"
         style="fill:#1a5fb4;fill-opacity:1">
        <path
           style="fill:#1a5fb4;stroke:none"
           d="m 4.5,-4.296875 c 0,-0.046875 -0.03125,-0.09375 -0.09375,-0.09375 -0.109375,0 -0.515625,0.390625 -0.671875,0.6875 C 3.515625,-4.25 3.125,-4.40625 2.796875,-4.40625 c -1.171875,0 -2.390625,1.46875 -2.390625,2.921875 0,0.96875 0.578125,1.59375 1.3125,1.59375 0.421875,0 0.8125,-0.234375 1.171875,-0.59375 -0.09375,0.34375 -0.421875,1.6875 -0.453125,1.78125 -0.078125,0.28125 -0.15625,0.3125 -0.71875,0.328125 -0.125,0 -0.21875,0 -0.21875,0.203125 0,0 0,0.109375 0.125,0.109375 0.3125,0 0.671875,-0.03125 1,-0.03125 0.328125,0 0.6875,0.03125 1.03125,0.03125 0.046875,0 0.171875,0 0.171875,-0.203125 C 3.828125,1.625 3.734375,1.625 3.5625,1.625 3.09375,1.625 3.09375,1.5625 3.09375,1.46875 3.09375,1.390625 3.109375,1.328125 3.125,1.25 Z m -2.75,4.1875 c -0.609375,0 -0.640625,-0.765625 -0.640625,-0.9375 0,-0.484375 0.28125,-1.5625 0.453125,-1.984375 0.3125,-0.734375 0.828125,-1.15625 1.234375,-1.15625 0.65625,0 0.796875,0.8125 0.796875,0.875 0,0.0625 -0.546875,2.25 -0.578125,2.28125 C 2.859375,-0.75 2.296875,-0.109375 1.75,-0.109375 Z m 0,0"
           id="id-127da69d-3c79-4641-9328-ef9df20c4f51" />
      </g>
      <g
         transform="matrix(0.375579,0,0,0.375579,104.39963,135.68054)"
         id="g4075"
         style="fill:#1a5fb4;fill-opacity:1">
        <path
           style="fill:#1a5fb4;stroke:none"
           d="m 3.734375,-4.203125 c 0.0625,-0.09375 0.0625,-0.109375 0.0625,-0.28125 H 1.96875 C 1.6875,-4.484375 1.609375,-4.5 1.359375,-4.515625 1,-4.546875 0.984375,-4.59375 0.96875,-4.703125 H 0.734375 l -0.25,1.484375 H 0.71875 c 0.015625,-0.109375 0.09375,-0.5625 0.203125,-0.640625 0.046875,-0.03125 0.625,-0.03125 0.71875,-0.03125 H 3.15625 c -0.21875,0.28125 -0.578125,0.71875 -0.71875,0.921875 -0.90625,1.1875 -1,2.296875 -1,2.703125 0,0.078125 0,0.40625 0.328125,0.40625 0.34375,0 0.34375,-0.3125 0.34375,-0.40625 v -0.28125 c 0,-1.34375 0.28125,-1.96875 0.578125,-2.34375 z m 0,0"
           id="id-8ce23ebe-3d8e-4c13-9827-e519f337fa6b" />
      </g>
    </g>
    <g
       style="fill:#000000;fill-opacity:1"
       id="id-6f2eb744-9c02-4f5b-ad60-17764bc6a2e1"
       transform="matrix(0.375579,0,0,0.375579,14.174139,15.285784)">
      <g
         transform="translate(148.712,134.765)"
         id="g5407">
        <path
           style="stroke:none;stroke-width:0"
           d="M 3.328125,-3.015625 C 3.390625,-3.265625 3.625,-4.1875 4.3125,-4.1875 c 0.046875,0 0.296875,0 0.5,0.125 C 4.53125,-4 4.34375,-3.765625 4.34375,-3.515625 c 0,0.15625 0.109375,0.34375 0.375,0.34375 0.21875,0 0.53125,-0.171875 0.53125,-0.578125 0,-0.515625 -0.578125,-0.65625 -0.921875,-0.65625 -0.578125,0 -0.921875,0.53125 -1.046875,0.75 -0.25,-0.65625 -0.78125,-0.75 -1.078125,-0.75 -1.03125,0 -1.609375,1.28125 -1.609375,1.53125 0,0.109375 0.109375,0.109375 0.125,0.109375 0.078125,0 0.109375,-0.03125 0.125,-0.109375 0.34375,-1.0625 1,-1.3125 1.34375,-1.3125 0.1875,0 0.53125,0.09375 0.53125,0.671875 0,0.3125 -0.171875,0.96875 -0.53125,2.375 -0.15625,0.609375 -0.515625,1.03125 -0.953125,1.03125 -0.0625,0 -0.28125,0 -0.5,-0.125 0.25,-0.0625 0.46875,-0.265625 0.46875,-0.546875 0,-0.265625 -0.21875,-0.34375 -0.359375,-0.34375 -0.3125,0 -0.546875,0.25 -0.546875,0.578125 0,0.453125 0.484375,0.65625 0.921875,0.65625 0.671875,0 1.03125,-0.703125 1.046875,-0.75 0.125,0.359375 0.484375,0.75 1.078125,0.75 1.03125,0 1.59375,-1.28125 1.59375,-1.53125 0,-0.109375 -0.078125,-0.109375 -0.109375,-0.109375 -0.09375,0 -0.109375,0.046875 -0.140625,0.109375 -0.328125,1.078125 -1,1.3125 -1.3125,1.3125 -0.390625,0 -0.546875,-0.3125 -0.546875,-0.65625 0,-0.21875 0.046875,-0.4375 0.15625,-0.875 z m 0,0"
           id="id-460e1ced-1aba-409f-a422-1dcb4f3ab19b" />
      </g>
    </g>
    <g
       style="fill:#000000;fill-opacity:1"
       id="id-f538ee35-a709-4632-b8ec-dfa77bccd2e6"
       transform="matrix(0.375579,0,0,0.375579,-49.616551,-48.960009)">
      <g
         transform="translate(157.723,134.765)"
         id="g5411">
        <path
           style="stroke:none;stroke-width:0"
           d="m 4.84375,-3.796875 c 0.046875,-0.140625 0.046875,-0.15625 0.046875,-0.234375 0,-0.171875 -0.140625,-0.265625 -0.296875,-0.265625 -0.09375,0 -0.25,0.0625 -0.34375,0.203125 -0.015625,0.0625 -0.109375,0.359375 -0.140625,0.546875 -0.078125,0.25 -0.140625,0.53125 -0.203125,0.796875 l -0.453125,1.796875 c -0.03125,0.140625 -0.46875,0.84375 -1.125,0.84375 -0.5,0 -0.609375,-0.4375 -0.609375,-0.8125 C 1.71875,-1.375 1.890625,-2 2.21875,-2.875 2.375,-3.28125 2.421875,-3.390625 2.421875,-3.59375 c 0,-0.4375 -0.3125,-0.8125 -0.8125,-0.8125 -0.953125,0 -1.3125,1.453125 -1.3125,1.53125 0,0.109375 0.09375,0.109375 0.109375,0.109375 0.109375,0 0.109375,-0.03125 0.15625,-0.1875 0.28125,-0.9375 0.671875,-1.234375 1.015625,-1.234375 0.078125,0 0.25,0 0.25,0.3125 0,0.25 -0.109375,0.515625 -0.171875,0.703125 -0.40625,1.0625 -0.578125,1.625 -0.578125,2.09375 0,0.890625 0.625,1.1875 1.21875,1.1875 0.390625,0 0.71875,-0.171875 1,-0.453125 -0.125,0.515625 -0.25,1.015625 -0.640625,1.546875 -0.265625,0.328125 -0.640625,0.625 -1.09375,0.625 -0.140625,0 -0.59375,-0.03125 -0.765625,-0.421875 0.15625,0 0.296875,0 0.421875,-0.125 C 1.328125,1.203125 1.421875,1.0625 1.421875,0.875 1.421875,0.5625 1.15625,0.53125 1.0625,0.53125 0.828125,0.53125 0.5,0.6875 0.5,1.171875 c 0,0.5 0.4375,0.875 1.0625,0.875 1.015625,0 2.046875,-0.90625 2.328125,-2.03125 z m 0,0"
           id="id-64a28c45-ea20-4496-a9be-bdad75acc9a9" />
      </g>
    </g>
  </g>
</svg>
