<?xml version="1.0" encoding="UTF-8" standalone="no"?>
<!-- Created with Inkscape (http://www.inkscape.org/) -->

<svg
   width="71.798836mm"
   height="24.390238mm"
   viewBox="0 0 71.798836 24.390238"
   version="1.1"
   id="svg5"
   xmlns="http://www.w3.org/2000/svg"
   xmlns:svg="http://www.w3.org/2000/svg">
  <defs
     id="defs2">
    <marker
       style="overflow:visible"
       id="TriangleInL"
       refX="0"
       refY="0"
       orient="auto">
      <path
         transform="scale(-0.8)"
         style="fill:context-stroke;fill-rule:evenodd;stroke:context-stroke;stroke-width:1pt"
         d="M 5.77,0 -2.88,5 V -5 Z"
         id="path1245" />
    </marker>
    <marker
       style="overflow:visible"
       id="TriangleOutL"
       refX="0"
       refY="0"
       orient="auto">
      <path
         transform="scale(0.8)"
         style="fill:context-stroke;fill-rule:evenodd;stroke:context-stroke;stroke-width:1pt"
         d="M 5.77,0 -2.88,5 V -5 Z"
         id="path1254" />
    </marker>
    <marker
       style="overflow:visible"
       id="TriangleOutM"
       refX="0"
       refY="0"
       orient="auto">
      <path
         transform="scale(0.4)"
         style="fill:context-stroke;fill-rule:evenodd;stroke:context-stroke;stroke-width:1pt"
         d="M 5.77,0 -2.88,5 V -5 Z"
         id="path1257" />
    </marker>
    <marker
       style="overflow:visible"
       id="Arrow2Mend"
       refX="0"
       refY="0"
       orient="auto">
      <path
         transform="scale(-0.6)"
         d="M 8.7185878,4.0337352 -2.2072895,0.01601326 8.7185884,-4.0017078 c -1.7454984,2.3720609 -1.7354408,5.6174519 -6e-7,8.035443 z"
         style="fill:context-stroke;fill-rule:evenodd;stroke-width:0.625;stroke-linejoin:round"
         id="path1139" />
    </marker>
    <marker
       style="overflow:visible"
       id="StopL"
       refX="0"
       refY="0"
       orient="auto">
      <path
         transform="scale(0.8)"
         style="fill:none;fill-opacity:0.75;fill-rule:evenodd;stroke:context-stroke;stroke-width:1pt"
         d="M 0,5.65 V -5.65"
         id="path1281" />
    </marker>
    <marker
       style="overflow:visible"
       id="DotL"
       refX="0"
       refY="0"
       orient="auto">
      <path
         transform="matrix(0.8,0,0,0.8,5.92,0.8)"
         style="fill:context-stroke;fill-rule:evenodd;stroke:context-stroke;stroke-width:1pt"
         d="m -2.5,-1 c 0,2.76 -2.24,5 -5,5 -2.76,0 -5,-2.24 -5,-5 0,-2.76 2.24,-5 5,-5 2.76,0 5,2.24 5,5 z"
         id="path1173" />
    </marker>
    <defs
       id="id-91e95068-ce9d-4b15-addf-262b980fbe84">
      <g
         id="id-eb7edd03-0c66-4899-8c76-5253f471fb4f">
        <symbol
           overflow="visible"
           id="id-fb4fc1ec-ddf8-479f-ae63-847a88a33cbe">
          <path
             style="stroke:none;stroke-width:0"
             d=""
             id="id-10fc6cd1-9c3f-40bf-8eed-eb5224169164" />
        </symbol>
        <symbol
           overflow="visible"
           id="id-0a0951c8-9539-45cd-b161-185e9a90c955">
          <path
             style="stroke:none;stroke-width:0"
             d="m 6.5625,-2.296875 c 0.171875,0 0.359375,0 0.359375,-0.203125 0,-0.1875 -0.1875,-0.1875 -0.359375,-0.1875 H 1.171875 c -0.171875,0 -0.34375,0 -0.34375,0.1875 0,0.203125 0.171875,0.203125 0.34375,0.203125 z m 0,0"
             id="id-e425974f-4908-47c1-884b-528985eaf36a" />
        </symbol>
        <symbol
           overflow="visible"
           id="id-6a4718c6-69ff-4318-828e-741fc8968a74">
          <path
             style="stroke:none;stroke-width:0"
             d=""
             id="id-77197f00-5e00-44c9-bfb3-a3eb3e537922" />
        </symbol>
        <symbol
           overflow="visible"
           id="id-32a2bdde-0f26-4757-a0a7-3ab958b4c1ff">
          <path
             style="stroke:none;stroke-width:0"
             d="m 2.9375,-6.375 c 0,-0.25 0,-0.265625 -0.234375,-0.265625 C 2.078125,-6 1.203125,-6 0.890625,-6 v 0.3125 c 0.203125,0 0.78125,0 1.296875,-0.265625 v 5.171875 c 0,0.359375 -0.03125,0.46875 -0.921875,0.46875 h -0.3125 V 0 c 0.34375,-0.03125 1.203125,-0.03125 1.609375,-0.03125 0.390625,0 1.265625,0 1.609375,0.03125 v -0.3125 h -0.3125 c -0.90625,0 -0.921875,-0.109375 -0.921875,-0.46875 z m 0,0"
             id="id-ba9ed959-5d9e-4064-b85f-d0c20bbdc460" />
        </symbol>
        <symbol
           overflow="visible"
           id="id-b942af4b-e441-429f-a14f-27e4b611a231">
          <path
             style="stroke:none;stroke-width:0"
             d="m 1.265625,-0.765625 1.0625,-1.03125 c 1.546875,-1.375 2.140625,-1.90625 2.140625,-2.90625 0,-1.140625 -0.890625,-1.9375 -2.109375,-1.9375 -1.125,0 -1.859375,0.921875 -1.859375,1.8125 0,0.546875 0.5,0.546875 0.53125,0.546875 0.171875,0 0.515625,-0.109375 0.515625,-0.53125 0,-0.25 -0.1875,-0.515625 -0.53125,-0.515625 -0.078125,0 -0.09375,0 -0.125,0.015625 0.21875,-0.65625 0.765625,-1.015625 1.34375,-1.015625 0.90625,0 1.328125,0.8125 1.328125,1.625 C 3.5625,-3.90625 3.078125,-3.125 2.515625,-2.5 l -1.90625,2.125 C 0.5,-0.265625 0.5,-0.234375 0.5,0 H 4.203125 L 4.46875,-1.734375 H 4.234375 C 4.171875,-1.4375 4.109375,-1 4,-0.84375 3.9375,-0.765625 3.28125,-0.765625 3.0625,-0.765625 Z m 0,0"
             id="id-463cac57-18af-45b5-9f69-c6b141d78bcc" />
        </symbol>
        <symbol
           overflow="visible"
           id="id-bb7c22e9-63d0-4f37-baae-054f682497ba">
          <path
             style="stroke:none;stroke-width:0"
             d="m 4.578125,-3.1875 c 0,-0.796875 -0.046875,-1.59375 -0.390625,-2.328125 -0.453125,-0.96875 -1.28125,-1.125 -1.6875,-1.125 -0.609375,0 -1.328125,0.265625 -1.75,1.1875 -0.3125,0.6875 -0.359375,1.46875 -0.359375,2.265625 0,0.75 0.03125,1.640625 0.453125,2.40625 0.421875,0.796875 1.15625,1 1.640625,1 0.53125,0 1.296875,-0.203125 1.734375,-1.15625 0.3125,-0.6875 0.359375,-1.46875 0.359375,-2.25 z M 2.484375,0 C 2.09375,0 1.5,-0.25 1.328125,-1.203125 1.21875,-1.796875 1.21875,-2.71875 1.21875,-3.3125 c 0,-0.640625 0,-1.296875 0.078125,-1.828125 0.1875,-1.1875 0.9375,-1.28125 1.1875,-1.28125 0.328125,0 0.984375,0.1875 1.171875,1.171875 0.109375,0.5625 0.109375,1.3125 0.109375,1.9375 0,0.75 0,1.421875 -0.109375,2.0625 C 3.5,-0.296875 2.9375,0 2.484375,0 Z m 0,0"
             id="id-e85d955a-9692-4b70-a461-80563084f56d" />
        </symbol>
        <symbol
           overflow="visible"
           id="id-0ede40cd-d5e7-4f5d-aa63-cd9590dafdd7">
          <path
             style="stroke:none;stroke-width:0"
             d="m 2.890625,-3.515625 c 0.8125,-0.265625 1.390625,-0.953125 1.390625,-1.75 0,-0.8125 -0.875,-1.375 -1.828125,-1.375 -1,0 -1.765625,0.59375 -1.765625,1.359375 0,0.328125 0.21875,0.515625 0.515625,0.515625 0.296875,0 0.5,-0.21875 0.5,-0.515625 0,-0.484375 -0.46875,-0.484375 -0.609375,-0.484375 0.296875,-0.5 0.953125,-0.625 1.3125,-0.625 0.421875,0 0.96875,0.21875 0.96875,1.109375 0,0.125 -0.03125,0.703125 -0.28125,1.140625 C 2.796875,-3.65625 2.453125,-3.625 2.203125,-3.625 2.125,-3.609375 1.890625,-3.59375 1.8125,-3.59375 c -0.078125,0.015625 -0.140625,0.03125 -0.140625,0.125 0,0.109375 0.0625,0.109375 0.234375,0.109375 h 0.4375 c 0.8125,0 1.1875,0.671875 1.1875,1.65625 0,1.359375 -0.6875,1.640625 -1.125,1.640625 -0.4375,0 -1.1875,-0.171875 -1.53125,-0.75 0.34375,0.046875 0.65625,-0.171875 0.65625,-0.546875 0,-0.359375 -0.265625,-0.5625 -0.546875,-0.5625 -0.25,0 -0.5625,0.140625 -0.5625,0.578125 0,0.90625 0.921875,1.5625 2.015625,1.5625 1.21875,0 2.125,-0.90625 2.125,-1.921875 0,-0.8125 -0.640625,-1.59375 -1.671875,-1.8125 z m 0,0"
             id="id-36daf784-7483-46a1-af83-aeeff0f92845" />
        </symbol>
        <symbol
           overflow="visible"
           id="id-c3f3ff89-d3ce-491e-9409-f112ac80207d">
          <path
             style="stroke:none;stroke-width:0"
             d="m 2.9375,-1.640625 v 0.859375 c 0,0.359375 -0.03125,0.46875 -0.765625,0.46875 H 1.96875 V 0 C 2.375,-0.03125 2.890625,-0.03125 3.3125,-0.03125 c 0.421875,0 0.9375,0 1.359375,0.03125 v -0.3125 h -0.21875 c -0.734375,0 -0.75,-0.109375 -0.75,-0.46875 V -1.640625 H 4.6875 v -0.3125 H 3.703125 v -4.53125 c 0,-0.203125 0,-0.265625 -0.171875,-0.265625 -0.078125,0 -0.109375,0 -0.1875,0.125 l -3.0625,4.671875 v 0.3125 z m 0.046875,-0.3125 H 0.5625 l 2.421875,-3.71875 z m 0,0"
             id="id-b65b3218-d387-42e2-b95e-ea014ee8e614" />
        </symbol>
        <symbol
           overflow="visible"
           id="id-3fdb27d3-0b82-4fe7-8c8e-3586edb1fb7e">
          <path
             style="stroke:none;stroke-width:0"
             d="m 4.46875,-2 c 0,-1.1875 -0.8125,-2.1875 -1.890625,-2.1875 -0.46875,0 -0.90625,0.15625 -1.265625,0.515625 V -5.625 c 0.203125,0.0625 0.53125,0.125 0.84375,0.125 1.234375,0 1.9375,-0.90625 1.9375,-1.03125 0,-0.0625 -0.03125,-0.109375 -0.109375,-0.109375 0,0 -0.03125,0 -0.078125,0.03125 C 3.703125,-6.515625 3.21875,-6.3125 2.546875,-6.3125 2.15625,-6.3125 1.6875,-6.390625 1.21875,-6.59375 1.140625,-6.625 1.125,-6.625 1.109375,-6.625 1,-6.625 1,-6.546875 1,-6.390625 V -3.4375 c 0,0.171875 0,0.25 0.140625,0.25 0.078125,0 0.09375,-0.015625 0.140625,-0.078125 C 1.390625,-3.421875 1.75,-3.96875 2.5625,-3.96875 c 0.515625,0 0.765625,0.453125 0.84375,0.640625 0.15625,0.375 0.1875,0.75 0.1875,1.25 0,0.359375 0,0.953125 -0.25,1.375 C 3.109375,-0.3125 2.734375,-0.0625 2.28125,-0.0625 c -0.71875,0 -1.296875,-0.53125 -1.46875,-1.109375 0.03125,0 0.0625,0.015625 0.171875,0.015625 0.328125,0 0.5,-0.25 0.5,-0.484375 0,-0.25 -0.171875,-0.5 -0.5,-0.5 C 0.84375,-2.140625 0.5,-2.0625 0.5,-1.609375 0.5,-0.75 1.1875,0.21875 2.296875,0.21875 3.453125,0.21875 4.46875,-0.734375 4.46875,-2 Z m 0,0"
             id="id-7f67e110-0f73-4923-b76b-9a6c94a29c2f" />
        </symbol>
        <symbol
           overflow="visible"
           id="id-749ff88f-9c5d-4bc0-a0d7-66c492a4e083">
          <path
             style="stroke:none;stroke-width:0"
             d="m 1.3125,-3.265625 v -0.25 c 0,-2.515625 1.234375,-2.875 1.75,-2.875 0.234375,0 0.65625,0.0625 0.875,0.40625 -0.15625,0 -0.546875,0 -0.546875,0.4375 0,0.3125 0.234375,0.46875 0.453125,0.46875 0.15625,0 0.46875,-0.09375 0.46875,-0.484375 0,-0.59375 -0.4375,-1.078125 -1.265625,-1.078125 -1.28125,0 -2.625,1.28125 -2.625,3.484375 0,2.671875 1.15625,3.375 2.078125,3.375 1.109375,0 2.0625,-0.9375 2.0625,-2.25 0,-1.265625 -0.890625,-2.21875 -2,-2.21875 -0.671875,0 -1.046875,0.5 -1.25,0.984375 z M 2.5,-0.0625 c -0.625,0 -0.921875,-0.59375 -0.984375,-0.75 -0.1875,-0.46875 -0.1875,-1.265625 -0.1875,-1.4375 0,-0.78125 0.328125,-1.78125 1.21875,-1.78125 0.171875,0 0.625,0 0.9375,0.625 0.171875,0.359375 0.171875,0.875 0.171875,1.359375 0,0.484375 0,0.984375 -0.171875,1.34375 C 3.1875,-0.109375 2.734375,-0.0625 2.5,-0.0625 Z m 0,0"
             id="id-26b133e0-34e2-4a3a-a406-3fb2549b1f8b" />
        </symbol>
        <symbol
           overflow="visible"
           id="id-68bbc930-1a25-4a31-96f0-e4a8bf9113e9">
          <path
             style="stroke:none;stroke-width:0"
             d="m 4.75,-6.078125 c 0.078125,-0.109375 0.078125,-0.125 0.078125,-0.34375 H 2.40625 c -1.203125,0 -1.234375,-0.125 -1.265625,-0.3125 h -0.25 L 0.5625,-4.6875 h 0.25 c 0.03125,-0.15625 0.109375,-0.78125 0.25,-0.90625 0.0625,-0.0625 0.84375,-0.0625 0.96875,-0.0625 h 2.0625 C 3.984375,-5.5 3.203125,-4.40625 2.984375,-4.078125 2.078125,-2.734375 1.75,-1.34375 1.75,-0.328125 c 0,0.09375 0,0.546875 0.46875,0.546875 0.453125,0 0.453125,-0.453125 0.453125,-0.546875 V -0.84375 c 0,-0.546875 0.03125,-1.09375 0.109375,-1.625 0.046875,-0.234375 0.171875,-1.09375 0.625,-1.703125 z m 0,0"
             id="id-597f520b-8f51-46d3-a3dc-7cf88a01a6a0" />
        </symbol>
        <symbol
           overflow="visible"
           id="id-0ba0d3da-560d-4ac2-8744-f615d27e5c05">
          <path
             style="stroke:none;stroke-width:0"
             d="m 1.625,-4.5625 c -0.453125,-0.296875 -0.5,-0.625 -0.5,-0.796875 0,-0.609375 0.65625,-1.03125 1.359375,-1.03125 0.71875,0 1.359375,0.515625 1.359375,1.234375 0,0.578125 -0.390625,1.046875 -0.984375,1.390625 z m 1.453125,0.953125 C 3.796875,-3.984375 4.28125,-4.5 4.28125,-5.15625 c 0,-0.921875 -0.875,-1.484375 -1.78125,-1.484375 -1,0 -1.8125,0.734375 -1.8125,1.671875 0,0.171875 0.015625,0.625 0.4375,1.09375 0.109375,0.109375 0.484375,0.359375 0.734375,0.53125 C 1.28125,-3.046875 0.421875,-2.5 0.421875,-1.5 c 0,1.046875 1.015625,1.71875 2.0625,1.71875 1.125,0 2.078125,-0.828125 2.078125,-1.890625 0,-0.359375 -0.109375,-0.8125 -0.5,-1.234375 C 3.875,-3.109375 3.71875,-3.203125 3.078125,-3.609375 Z m -1,0.421875 1.234375,0.78125 c 0.28125,0.1875 0.75,0.484375 0.75,1.09375 0,0.734375 -0.75,1.25 -1.5625,1.25 -0.859375,0 -1.578125,-0.609375 -1.578125,-1.4375 0,-0.578125 0.3125,-1.21875 1.15625,-1.6875 z m 0,0"
             id="id-82a0a729-2516-453b-8522-d6b8e34e5e4d" />
        </symbol>
        <symbol
           overflow="visible"
           id="id-8f229eb8-4c3b-42b5-bd5e-a797572e5eb5">
          <path
             style="stroke:none;stroke-width:0"
             d="m 3.65625,-3.171875 v 0.328125 c 0,2.328125 -1.03125,2.78125 -1.609375,2.78125 -0.171875,0 -0.71875,-0.015625 -0.984375,-0.359375 0.4375,0 0.515625,-0.28125 0.515625,-0.453125 0,-0.3125 -0.234375,-0.453125 -0.453125,-0.453125 -0.15625,0 -0.453125,0.078125 -0.453125,0.46875 0,0.671875 0.53125,1.078125 1.375,1.078125 1.296875,0 2.515625,-1.359375 2.515625,-3.5 0,-2.6875 -1.15625,-3.359375 -2.046875,-3.359375 -0.546875,0 -1.03125,0.1875 -1.453125,0.625 -0.421875,0.453125 -0.640625,0.875 -0.640625,1.625 0,1.234375 0.875,2.21875 1.984375,2.21875 0.609375,0 1.015625,-0.421875 1.25,-1 z M 2.421875,-2.40625 c -0.15625,0 -0.625,0 -0.921875,-0.625 -0.1875,-0.375 -0.1875,-0.859375 -0.1875,-1.359375 0,-0.53125 0,-1 0.21875,-1.375 0.265625,-0.5 0.640625,-0.625 0.984375,-0.625 0.46875,0 0.796875,0.34375 0.96875,0.78125 0.109375,0.328125 0.15625,0.953125 0.15625,1.40625 0,0.828125 -0.34375,1.796875 -1.21875,1.796875 z m 0,0"
             id="id-4a54e279-2eed-4624-a370-d47918cb55ec" />
        </symbol>
        <symbol
           overflow="visible"
           id="id-07655893-510e-44c1-ab87-baea615926c9">
          <path
             style="stroke:none;stroke-width:0"
             d=""
             id="id-15d4a7e7-3076-40f8-93d5-f40d8aab0876" />
        </symbol>
        <symbol
           overflow="visible"
           id="id-7f753895-cae4-4603-9ce7-5f5e47bd1438">
          <path
             style="stroke:none;stroke-width:0"
             d="m 2.03125,-0.015625 c 0,-0.65625 -0.25,-1.046875 -0.640625,-1.046875 -0.328125,0 -0.53125,0.25 -0.53125,0.53125 C 0.859375,-0.265625 1.0625,0 1.390625,0 1.5,0 1.640625,-0.046875 1.734375,-0.125 1.765625,-0.15625 1.78125,-0.15625 1.78125,-0.15625 c 0.015625,0 0.015625,0 0.015625,0.140625 0,0.75 -0.34375,1.34375 -0.671875,1.671875 -0.109375,0.109375 -0.109375,0.125 -0.109375,0.15625 0,0.078125 0.046875,0.109375 0.09375,0.109375 0.109375,0 0.921875,-0.765625 0.921875,-1.9375 z m 0,0"
             id="id-2aa745ac-8f1b-484c-a865-fd542b639d89" />
        </symbol>
      </g>
    </defs>
    <defs
       id="id-194e9480-4bac-472a-8b5d-835a551fe7d3">
      <g
         id="id-76ef4f47-f5a9-4477-9eba-9011524b5ee2">
        <symbol
           overflow="visible"
           id="id-769e1291-39e2-4313-8e78-47f5dd72faff">
          <path
             style="stroke:none;stroke-width:0"
             d=""
             id="id-6d44e34b-7e4e-44e3-bb1a-90c8952ab089" />
        </symbol>
        <symbol
           overflow="visible"
           id="id-0e9f0f6d-73f7-4117-b523-9702c8d899b3">
          <path
             style="stroke:none;stroke-width:0"
             d="M 1.78125,-1.140625 C 1.390625,-0.484375 1,-0.34375 0.5625,-0.3125 0.4375,-0.296875 0.34375,-0.296875 0.34375,-0.109375 0.34375,-0.046875 0.40625,0 0.484375,0 0.75,0 1.0625,-0.03125 1.328125,-0.03125 c 0.34375,0 0.6875,0.03125 1,0.03125 0.0625,0 0.1875,0 0.1875,-0.1875 0,-0.109375 -0.078125,-0.125 -0.15625,-0.125 -0.21875,-0.015625 -0.46875,-0.09375 -0.46875,-0.34375 0,-0.125 0.0625,-0.234375 0.140625,-0.375 l 0.765625,-1.265625 h 2.5 c 0.015625,0.203125 0.15625,1.5625 0.15625,1.65625 0,0.296875 -0.515625,0.328125 -0.71875,0.328125 C 4.59375,-0.3125 4.5,-0.3125 4.5,-0.109375 4.5,0 4.609375,0 4.640625,0 5.046875,0 5.46875,-0.03125 5.875,-0.03125 6.125,-0.03125 6.765625,0 7.015625,0 7.0625,0 7.1875,0 7.1875,-0.203125 7.1875,-0.3125 7.09375,-0.3125 6.953125,-0.3125 6.34375,-0.3125 6.34375,-0.375 6.3125,-0.671875 l -0.609375,-6.21875 c -0.015625,-0.203125 -0.015625,-0.25 -0.1875,-0.25 -0.15625,0 -0.203125,0.078125 -0.265625,0.171875 z M 2.984375,-2.609375 4.9375,-5.90625 5.265625,-2.609375 Z m 0,0"
             id="id-2cc48d73-63a7-4d9a-ad48-6b2d7bd371a0" />
        </symbol>
        <symbol
           overflow="visible"
           id="id-1ebd172d-7255-4b86-84a9-a93090e6fec8">
          <path
             style="stroke:none;stroke-width:0"
             d="M 1.59375,-0.78125 C 1.5,-0.390625 1.46875,-0.3125 0.6875,-0.3125 c -0.171875,0 -0.265625,0 -0.265625,0.203125 C 0.421875,0 0.515625,0 0.6875,0 H 4.25 C 5.828125,0 7,-1.171875 7,-2.15625 7,-2.875 6.421875,-3.453125 5.453125,-3.5625 6.484375,-3.75 7.53125,-4.484375 7.53125,-5.4375 c 0,-0.734375 -0.65625,-1.375 -1.84375,-1.375 H 2.328125 c -0.1875,0 -0.28125,0 -0.28125,0.203125 0,0.109375 0.09375,0.109375 0.28125,0.109375 0.015625,0 0.203125,0 0.375,0.015625 0.171875,0.03125 0.265625,0.03125 0.265625,0.171875 0,0.03125 -0.015625,0.0625 -0.03125,0.1875 z m 1.5,-2.875 0.625,-2.46875 C 3.8125,-6.46875 3.828125,-6.5 4.25,-6.5 h 1.296875 c 0.875,0 1.078125,0.59375 1.078125,1.03125 0,0.875 -0.859375,1.8125 -2.0625,1.8125 z m -0.4375,3.34375 c -0.140625,0 -0.15625,0 -0.21875,0 -0.109375,-0.015625 -0.140625,-0.03125 -0.140625,-0.109375 0,-0.03125 0,-0.046875 0.0625,-0.21875 l 0.6875,-2.78125 h 1.875 c 0.953125,0 1.15625,0.734375 1.15625,1.15625 C 6.078125,-1.28125 5.1875,-0.3125 4,-0.3125 Z m 0,0"
             id="id-4d721495-71f6-4d40-ad17-94ad0e635950" />
        </symbol>
        <symbol
           overflow="visible"
           id="id-93738d78-95b4-4a4c-8b37-f0ba6e0c6f51">
          <path
             style="stroke:none;stroke-width:0"
             d="M 9.234375,-6.046875 C 9.328125,-6.40625 9.34375,-6.5 10.09375,-6.5 c 0.21875,0 0.3125,0 0.3125,-0.203125 0,-0.109375 -0.09375,-0.109375 -0.265625,-0.109375 h -1.3125 c -0.265625,0 -0.28125,0 -0.390625,0.1875 L 4.796875,-0.9375 4.015625,-6.578125 C 3.984375,-6.8125 3.96875,-6.8125 3.703125,-6.8125 H 2.34375 c -0.1875,0 -0.296875,0 -0.296875,0.1875 0,0.125 0.09375,0.125 0.28125,0.125 0.140625,0 0.3125,0.015625 0.4375,0.015625 0.15625,0.03125 0.21875,0.046875 0.21875,0.171875 0,0.03125 -0.015625,0.0625 -0.046875,0.1875 l -1.265625,5.0625 c -0.09375,0.40625 -0.265625,0.71875 -1.078125,0.75 -0.046875,0 -0.171875,0.015625 -0.171875,0.1875 0,0.09375 0.0625,0.125 0.140625,0.125 0.3125,0 0.65625,-0.03125 1,-0.03125 C 1.890625,-0.03125 2.25,0 2.578125,0 c 0.046875,0 0.1875,0 0.1875,-0.203125 0,-0.109375 -0.109375,-0.109375 -0.1875,-0.109375 -0.5625,0 -0.671875,-0.203125 -0.671875,-0.4375 0,-0.0625 0,-0.125 0.03125,-0.234375 L 3.296875,-6.40625 H 3.3125 l 0.859375,6.171875 C 4.1875,-0.109375 4.203125,0 4.3125,0 4.421875,0 4.484375,-0.109375 4.53125,-0.171875 l 4.03125,-6.3125 h 0.015625 l -1.4375,5.703125 c -0.09375,0.390625 -0.109375,0.46875 -0.90625,0.46875 -0.15625,0 -0.265625,0 -0.265625,0.1875 C 5.96875,0 6.078125,0 6.109375,0 6.390625,0 7.0625,-0.03125 7.34375,-0.03125 7.75,-0.03125 8.1875,0 8.59375,0 8.65625,0 8.78125,0 8.78125,-0.203125 8.78125,-0.3125 8.6875,-0.3125 8.5,-0.3125 c -0.359375,0 -0.640625,0 -0.640625,-0.171875 0,-0.046875 0,-0.0625 0.046875,-0.25 z m 0,0"
             id="id-5d482013-4e71-430a-9610-fb0e4b1c93b9" />
        </symbol>
        <symbol
           overflow="visible"
           id="id-f25c6269-3e7e-4291-a813-3574b299958f">
          <path
             style="stroke:none;stroke-width:0"
             d=""
             id="id-4d5806cc-93cf-4a6e-98b1-5701098c03ba" />
        </symbol>
        <symbol
           overflow="visible"
           id="id-6cf75995-a429-4c92-9a5b-f6cc372993d6">
          <path
             style="stroke:none;stroke-width:0"
             d="m 2.9375,-1.640625 v 0.859375 c 0,0.359375 -0.03125,0.46875 -0.765625,0.46875 H 1.96875 V 0 C 2.375,-0.03125 2.890625,-0.03125 3.3125,-0.03125 c 0.421875,0 0.9375,0 1.359375,0.03125 v -0.3125 h -0.21875 c -0.734375,0 -0.75,-0.109375 -0.75,-0.46875 V -1.640625 H 4.6875 v -0.3125 H 3.703125 v -4.53125 c 0,-0.203125 0,-0.265625 -0.171875,-0.265625 -0.078125,0 -0.109375,0 -0.1875,0.125 l -3.0625,4.671875 v 0.3125 z m 0.046875,-0.3125 H 0.5625 l 2.421875,-3.71875 z m 0,0"
             id="id-10f90686-46d3-4d23-81f0-d63760f05ffe" />
        </symbol>
      </g>
    </defs>
  </defs>
  <g
     id="layer1"
     transform="translate(-40.830078,-102.70881)">
    <g
       id="g7619">
      <g
         id="g7538">
        <g
           id="path859"
           style="fill:#dc0000">
          <path
             style="color:#000000;fill:#2d2d2d;-inkscape-stroke:none"
             d="m 58.208984,116.28516 v 0.26367 H 79.375 100.54102 v -0.26367 H 79.375 Z"
             id="path4769" />
          <g
             id="g4737"
             style="fill:#dc0000">
            <g
               id="path4759"
               style="fill:#dc0000">
              <path
                 style="color:#000000;fill:#dc0000;fill-rule:evenodd;stroke-width:0.211666pt;-inkscape-stroke:none"
                 d="m 101.57884,116.41667 c 0,0.5842 -0.47414,1.05833 -1.05834,1.05833 -0.584196,0 -1.058329,-0.47413 -1.058329,-1.05833 0,-0.5842 0.474133,-1.05833 1.058329,-1.05833 0.5842,0 1.05834,0.47413 1.05834,1.05833 z"
                 id="path4763" />
              <path
                 style="color:#000000;fill:#2d2d2d;fill-rule:evenodd;-inkscape-stroke:none"
                 d="m 100.51953,115.2168 c -0.660544,0 -1.199218,0.53867 -1.199218,1.19922 0,0.66054 0.538674,1.19921 1.199218,1.19921 0.66055,0 1.20117,-0.53866 1.20117,-1.19921 0,-0.66055 -0.54062,-1.19922 -1.20117,-1.19922 z m 0,0.2832 c 0.50785,0 0.91797,0.40817 0.91797,0.91602 0,0.50784 -0.41012,0.91796 -0.91797,0.91796 -0.50784,0 -0.916014,-0.41011 -0.916014,-0.91796 0,-0.50785 0.408174,-0.91602 0.916014,-0.91602 z"
                 id="path4765" />
            </g>
            <g
               id="path4749"
               style="fill:#dc0000">
              <path
                 style="color:#000000;fill:#ffc022;fill-rule:evenodd;stroke-width:0.211666pt;-inkscape-stroke:none"
                 d="m 80.412165,116.41667 c 0,0.5842 -0.474132,1.05833 -1.058332,1.05833 -0.584199,0 -1.058332,-0.47413 -1.058332,-1.05833 0,-0.5842 0.474133,-1.05834 1.058332,-1.05834 0.5842,0 1.058332,0.47414 1.058332,1.05834 z"
                 id="path4753" />
              <path
                 style="color:#000000;fill:#2d2d2d;fill-rule:evenodd;-inkscape-stroke:none"
                 d="m 79.353516,115.2168 c -0.66055,0 -1.199219,0.53867 -1.199219,1.19922 0,0.66054 0.538671,1.19921 1.199219,1.19921 0.660548,0 1.199218,-0.53867 1.199218,-1.19921 0,-0.66055 -0.538668,-1.19922 -1.199218,-1.19922 z m 0,0.2832 c 0.507848,0 0.917968,0.40817 0.917968,0.91602 0,0.50785 -0.410118,0.91796 -0.917968,0.91796 -0.50785,0 -0.916016,-0.41011 -0.916016,-0.91796 0,-0.50785 0.408168,-0.91602 0.916016,-0.91602 z"
                 id="path4755" />
            </g>
            <g
               id="path4739"
               style="fill:#dc0000">
              <path
                 style="color:#000000;fill:#dc0000;fill-rule:evenodd;stroke-width:0.211666pt;-inkscape-stroke:none"
                 d="m 59.245498,116.41667 c 0,0.5842 -0.474132,1.05833 -1.058332,1.05833 -0.584199,0 -1.058332,-0.47413 -1.058332,-1.05833 0,-0.5842 0.474133,-1.05833 1.058332,-1.05833 0.5842,0 1.058332,0.47413 1.058332,1.05833 z"
                 id="path4743" />
              <path
                 style="color:#000000;fill:#2d2d2d;fill-rule:evenodd;-inkscape-stroke:none"
                 d="m 58.1875,115.2168 c -0.660548,0 -1.199219,0.53867 -1.199219,1.19922 0,0.66054 0.538671,1.19921 1.199219,1.19921 0.660549,0 1.199219,-0.53867 1.199219,-1.19921 0,-0.66055 -0.53867,-1.19922 -1.199219,-1.19922 z m 0,0.2832 c 0.50785,0 0.916016,0.40817 0.916016,0.91602 0,0.50785 -0.408166,0.91796 -0.916016,0.91796 -0.507849,0 -0.917969,-0.41011 -0.917969,-0.91796 0,-0.50785 0.41012,-0.91602 0.917969,-0.91602 z"
                 id="path4745" />
            </g>
          </g>
        </g>
        <g
           id="path1413">
          <path
             style="color:#000000;fill:#000000;-inkscape-stroke:none"
             d="m 42.333984,121.57617 v 0.26367 H 47.625 52.916016 58.208984 63.5 68.791016 74.083984 79.375 84.666016 89.958984 95.25 h 5.29102 5.29296 5.29102 v -0.26367 H 105.83398 100.54102 95.25 89.958984 84.666016 79.375 74.083984 68.791016 63.5 58.208984 52.916016 47.625 Z"
             id="path3208" />
          <g
             id="g3090">
            <g
               id="path3198">
              <path
                 style="color:#000000;fill:#000000;fill-rule:evenodd;stroke-width:0.211666pt;-inkscape-stroke:none"
                 d="m 112.34632,121.70833 -1.83092,1.05834 V 120.65 Z"
                 id="path3202" />
              <path
                 style="color:#000000;fill:#000000;fill-rule:evenodd;-inkscape-stroke:none"
                 d="m 110.375,120.40625 v 2.60547 l 2.25391,-1.30274 -0.21289,-0.12304 z m 0.28125,0.48633 1.4082,0.81445 -1.4082,0.81641 z"
                 id="path3204" />
            </g>
            <path
               style="color:#000000;fill:#000000;fill-rule:evenodd;-inkscape-stroke:none"
               d="m 105.69141,120.51172 v 2.39258 h 0.2832 v -2.39258 z"
               id="path3190" />
            <path
               style="color:#000000;fill:#000000;fill-rule:evenodd;-inkscape-stroke:none"
               d="m 100.40039,120.51172 v 2.39258 h 0.2832 v -2.39258 z"
               id="path3182" />
            <path
               style="color:#000000;fill:#000000;fill-rule:evenodd;-inkscape-stroke:none"
               d="m 95.109375,120.51172 v 2.39258 h 0.28125 v -2.39258 z"
               id="path3174" />
            <path
               style="color:#000000;fill:#000000;fill-rule:evenodd;-inkscape-stroke:none"
               d="m 89.816406,120.51172 v 2.39258 h 0.283203 v -2.39258 z"
               id="path3166" />
            <path
               style="color:#000000;fill:#000000;fill-rule:evenodd;-inkscape-stroke:none"
               d="m 84.525391,120.51172 v 2.39258 h 0.283203 v -2.39258 z"
               id="path3158" />
            <path
               style="color:#000000;fill:#000000;fill-rule:evenodd;-inkscape-stroke:none"
               d="m 79.234375,120.51172 v 2.39258 h 0.28125 v -2.39258 z"
               id="path3150" />
            <path
               style="color:#000000;fill:#000000;fill-rule:evenodd;-inkscape-stroke:none"
               d="m 73.941406,120.51172 v 2.39258 h 0.283203 v -2.39258 z"
               id="path3142" />
            <path
               style="color:#000000;fill:#000000;fill-rule:evenodd;-inkscape-stroke:none"
               d="m 68.650391,120.51172 v 2.39258 h 0.283203 v -2.39258 z"
               id="path3134" />
            <path
               style="color:#000000;fill:#000000;fill-rule:evenodd;-inkscape-stroke:none"
               d="m 63.359375,120.51172 v 2.39258 h 0.28125 v -2.39258 z"
               id="path3126" />
            <path
               style="color:#000000;fill:#000000;fill-rule:evenodd;-inkscape-stroke:none"
               d="m 58.066406,120.51172 v 2.39258 h 0.283203 v -2.39258 z"
               id="path3118" />
            <path
               style="color:#000000;fill:#000000;fill-rule:evenodd;-inkscape-stroke:none"
               d="m 52.775391,120.51172 v 2.39258 h 0.283203 v -2.39258 z"
               id="path3110" />
            <path
               style="color:#000000;fill:#000000;fill-rule:evenodd;-inkscape-stroke:none"
               d="m 47.484375,120.51172 v 2.39258 h 0.28125 v -2.39258 z"
               id="path3102" />
            <g
               id="path3092">
              <path
                 style="color:#000000;fill:#000000;fill-rule:evenodd;stroke-width:0.211666pt;-inkscape-stroke:none"
                 d="M 41.112018,121.70833 42.942933,120.65 v 2.11667 z"
                 id="path3096" />
              <path
                 style="color:#000000;fill:#000000;fill-rule:evenodd;-inkscape-stroke:none"
                 d="m 43.083984,120.40625 -2.253906,1.30273 0.210938,0.1211 2.042968,1.18164 z m -0.28125,0.48633 v 1.63086 l -1.408203,-0.81641 z"
                 id="path3098" />
            </g>
          </g>
        </g>
        <g
           id="g2982"
           transform="translate(26.654652,-10.517801)">
          <g
             transform="matrix(0.375579,0,0,0.375579,18.57622,137.55816)"
             id="g2349"
             style="fill:#000000;fill-opacity:1">
            <path
               style="stroke:none;stroke-width:0"
               d="m 6.5625,-2.296875 c 0.171875,0 0.359375,0 0.359375,-0.203125 0,-0.1875 -0.1875,-0.1875 -0.359375,-0.1875 H 1.171875 c -0.171875,0 -0.34375,0 -0.34375,0.1875 0,0.203125 0.171875,0.203125 0.34375,0.203125 z m 0,0"
               id="id-cb126185-3ea2-498b-b96e-93f8254e6c6d" />
          </g>
          <g
             transform="matrix(0.375579,0,0,0.375579,21.486582,137.55816)"
             id="g2353"
             style="fill:#000000;fill-opacity:1">
            <path
               style="stroke:none;stroke-width:0"
               d="m 2.9375,-6.375 c 0,-0.25 0,-0.265625 -0.234375,-0.265625 C 2.078125,-6 1.203125,-6 0.890625,-6 v 0.3125 c 0.203125,0 0.78125,0 1.296875,-0.265625 v 5.171875 c 0,0.359375 -0.03125,0.46875 -0.921875,0.46875 h -0.3125 V 0 c 0.34375,-0.03125 1.203125,-0.03125 1.609375,-0.03125 0.390625,0 1.265625,0 1.609375,0.03125 v -0.3125 h -0.3125 c -0.90625,0 -0.921875,-0.109375 -0.921875,-0.46875 z m 0,0"
               id="id-34f139a6-0c34-4265-a730-a1eee66ba156" />
          </g>
        </g>
        <g
           id="g2988"
           transform="translate(25.446709,-10.517801)">
          <g
             transform="matrix(0.375579,0,0,0.375579,25.020405,137.55816)"
             id="g2361"
             style="fill:#000000;fill-opacity:1">
            <path
               style="stroke:none;stroke-width:0"
               d="m 6.5625,-2.296875 c 0.171875,0 0.359375,0 0.359375,-0.203125 0,-0.1875 -0.1875,-0.1875 -0.359375,-0.1875 H 1.171875 c -0.171875,0 -0.34375,0 -0.34375,0.1875 0,0.203125 0.171875,0.203125 0.34375,0.203125 z m 0,0"
               id="id-1aef2e45-8339-4356-8187-0281dc3bab52" />
          </g>
          <g
             transform="matrix(0.375579,0,0,0.375579,27.930766,137.55816)"
             id="g2365"
             style="fill:#000000;fill-opacity:1">
            <path
               style="stroke:none;stroke-width:0"
               d="m 1.265625,-0.765625 1.0625,-1.03125 c 1.546875,-1.375 2.140625,-1.90625 2.140625,-2.90625 0,-1.140625 -0.890625,-1.9375 -2.109375,-1.9375 -1.125,0 -1.859375,0.921875 -1.859375,1.8125 0,0.546875 0.5,0.546875 0.53125,0.546875 0.171875,0 0.515625,-0.109375 0.515625,-0.53125 0,-0.25 -0.1875,-0.515625 -0.53125,-0.515625 -0.078125,0 -0.09375,0 -0.125,0.015625 0.21875,-0.65625 0.765625,-1.015625 1.34375,-1.015625 0.90625,0 1.328125,0.8125 1.328125,1.625 C 3.5625,-3.90625 3.078125,-3.125 2.515625,-2.5 l -1.90625,2.125 C 0.5,-0.265625 0.5,-0.234375 0.5,0 H 4.203125 L 4.46875,-1.734375 H 4.234375 C 4.171875,-1.4375 4.109375,-1 4,-0.84375 3.9375,-0.765625 3.28125,-0.765625 3.0625,-0.765625 Z m 0,0"
               id="id-08eaa76c-fd54-4f25-8954-48811d0eb1fe" />
          </g>
        </g>
        <g
           transform="matrix(0.375579,0,0,0.375579,57.274928,126.99928)"
           id="g2373"
           style="fill:#000000;fill-opacity:1">
          <path
             style="stroke:none;stroke-width:0"
             d="m 4.578125,-3.1875 c 0,-0.796875 -0.046875,-1.59375 -0.390625,-2.328125 -0.453125,-0.96875 -1.28125,-1.125 -1.6875,-1.125 -0.609375,0 -1.328125,0.265625 -1.75,1.1875 -0.3125,0.6875 -0.359375,1.46875 -0.359375,2.265625 0,0.75 0.03125,1.640625 0.453125,2.40625 0.421875,0.796875 1.15625,1 1.640625,1 0.53125,0 1.296875,-0.203125 1.734375,-1.15625 0.3125,-0.6875 0.359375,-1.46875 0.359375,-2.25 z M 2.484375,0 C 2.09375,0 1.5,-0.25 1.328125,-1.203125 1.21875,-1.796875 1.21875,-2.71875 1.21875,-3.3125 c 0,-0.640625 0,-1.296875 0.078125,-1.828125 0.1875,-1.1875 0.9375,-1.28125 1.1875,-1.28125 0.328125,0 0.984375,0.1875 1.171875,1.171875 0.109375,0.5625 0.109375,1.3125 0.109375,1.9375 0,0.75 0,1.421875 -0.109375,2.0625 C 3.5,-0.296875 2.9375,0 2.484375,0 Z m 0,0"
             id="id-70822558-0b8b-4dbf-8917-3c8483baac1a" />
        </g>
        <g
           transform="matrix(0.375579,0,0,0.375579,62.396737,127.04036)"
           id="g2381"
           style="fill:#000000;fill-opacity:1">
          <path
             style="stroke:none;stroke-width:0"
             d="m 3.3437492,-6.375 c 0,-0.25 0,-0.265625 -0.234375,-0.265625 C 2.4843742,-6 1.6093742,-6 1.2968742,-6 v 0.3125 c 0.203125,0 0.78125,0 1.296875,-0.265625 v 5.171875 c 0,0.359375 -0.03125,0.46875 -0.921875,0.46875 h -0.3125 V 0 c 0.34375,-0.03125 1.203125,-0.03125 1.609375,-0.03125 0.390625,0 1.265625,0 1.609375,0.03125 v -0.3125 h -0.3125 c -0.90625,0 -0.921875,-0.109375 -0.921875,-0.46875 z m 0,0"
             id="id-0a5e72c2-dd69-43f1-a1fd-d37514edea0e" />
        </g>
        <g
           transform="matrix(0.375579,0,0,0.375579,67.113298,127.04036)"
           id="g2389"
           style="fill:#000000;fill-opacity:1">
          <path
             style="stroke:none;stroke-width:0"
             d="m 3.2508676,-0.765625 1.0625,-1.03125 c 1.546875,-1.375 2.140625,-1.90625 2.140625,-2.90625 0,-1.140625 -0.890625,-1.9375 -2.109375,-1.9375 -1.125,0 -1.859375,0.921875 -1.859375,1.8125 0,0.546875 0.5,0.546875 0.53125,0.546875 0.171875,0 0.515625,-0.109375 0.515625,-0.53125 0,-0.25 -0.1875,-0.515625 -0.53125,-0.515625 -0.078125,0 -0.09375,0 -0.125,0.015625 0.21875,-0.65625 0.765625,-1.015625 1.34375,-1.015625 0.90625,0 1.328125,0.8125 1.328125,1.625 0,0.796875 -0.484375,1.578125 -1.046875,2.203125 l -1.90625,2.125 C 2.4852426,-0.265625 2.4852426,-0.234375 2.4852426,0 h 3.703125 l 0.265625,-1.734375 h -0.234375 c -0.0625,0.296875 -0.125,0.734375 -0.234375,0.890625 -0.0625,0.078125 -0.71875,0.078125 -0.9375,0.078125 z m 0,0"
             id="id-1f766b57-d4c5-454d-ba4e-126e93e26745" />
        </g>
        <g
           transform="matrix(0.375579,0,0,0.375579,73.174845,126.99928)"
           id="g2397"
           style="fill:#000000;fill-opacity:1">
          <path
             style="stroke:none;stroke-width:0"
             d="m 2.8164707,-3.515625 c 0.8125,-0.265625 1.390625,-0.953125 1.390625,-1.75 0,-0.8125 -0.875,-1.375 -1.828125,-1.375 -1,0 -1.76562498,0.59375 -1.76562498,1.359375 0,0.328125 0.21875,0.515625 0.51562498,0.515625 0.296875,0 0.5,-0.21875 0.5,-0.515625 0,-0.484375 -0.46875,-0.484375 -0.609375,-0.484375 0.296875,-0.5 0.953125,-0.625 1.3125,-0.625 0.421875,0 0.96875,0.21875 0.96875,1.109375 0,0.125 -0.03125,0.703125 -0.28125,1.140625 -0.296875,0.484375 -0.640625,0.515625 -0.890625,0.515625 -0.078125,0.015625 -0.3125,0.03125 -0.390625,0.03125 -0.078125,0.015625 -0.140625,0.03125 -0.140625,0.125 0,0.109375 0.0625,0.109375 0.234375,0.109375 h 0.4375 c 0.8125,0 1.1875,0.671875 1.1875,1.65625 0,1.359375 -0.6875,1.640625 -1.125,1.640625 -0.4375,0 -1.1875,-0.171875 -1.53124998,-0.75 0.34374998,0.046875 0.65624998,-0.171875 0.65624998,-0.546875 0,-0.359375 -0.265625,-0.5625 -0.54687498,-0.5625 -0.25,0 -0.5625,0.140625 -0.5625,0.578125 0,0.90625 0.92187498,1.5625 2.01562498,1.5625 1.21875,0 2.125,-0.90625 2.125,-1.921875 0,-0.8125 -0.640625,-1.59375 -1.671875,-1.8125 z m 0,0"
             id="id-584cb14f-4646-4fcc-b259-947b988da8c3" />
        </g>
        <g
           transform="matrix(0.375579,0,0,0.375579,78.211321,127.0609)"
           id="g2405"
           style="fill:#000000;fill-opacity:1">
          <path
             style="stroke:none;stroke-width:0"
             d="m 3.5514851,-1.640625 v 0.859375 c 0,0.359375 -0.03125,0.46875 -0.765625,0.46875 H 2.5827351 V 0 c 0.40625,-0.03125 0.921875,-0.03125 1.34375,-0.03125 0.421875,0 0.9375,0 1.359375,0.03125 v -0.3125 h -0.21875 c -0.734375,0 -0.75,-0.109375 -0.75,-0.46875 v -0.859375 h 0.984375 v -0.3125 h -0.984375 v -4.53125 c 0,-0.203125 0,-0.265625 -0.171875,-0.265625 -0.078125,0 -0.109375,0 -0.1875,0.125 l -3.06249997,4.671875 v 0.3125 z m 0.046875,-0.3125 h -2.421875 l 2.421875,-3.71875 z m 0,0"
             id="id-77afa69a-9d9c-4049-98aa-7876e32957ad" />
        </g>
        <g
           transform="matrix(0.375579,0,0,0.375579,83.707415,126.99928)"
           id="g2413"
           style="fill:#000000;fill-opacity:1">
          <path
             style="stroke:none;stroke-width:0"
             d="m 4.5393035,-2 c 0,-1.1875 -0.8125,-2.1875 -1.890625,-2.1875 -0.46875,0 -0.90625,0.15625 -1.265625,0.515625 V -5.625 c 0.203125,0.0625 0.53125,0.125 0.84375,0.125 1.234375,0 1.9375,-0.90625 1.9375,-1.03125 0,-0.0625 -0.03125,-0.109375 -0.109375,-0.109375 0,0 -0.03125,0 -0.078125,0.03125 -0.203125,0.09375 -0.6875,0.296875 -1.359375,0.296875 -0.390625,0 -0.859375,-0.078125 -1.328125,-0.28125 C 1.2111785,-6.625 1.1955535,-6.625 1.1799285,-6.625 c -0.109375,0 -0.109375,0.078125 -0.109375,0.234375 V -3.4375 c 0,0.171875 0,0.25 0.140625,0.25 0.078125,0 0.09375,-0.015625 0.140625,-0.078125 0.109375,-0.15625 0.46875,-0.703125 1.28125,-0.703125 0.515625,0 0.765625,0.453125 0.84375,0.640625 0.15625,0.375 0.1875,0.75 0.1875,1.25 0,0.359375 0,0.953125 -0.25,1.375 -0.234375,0.390625 -0.609375,0.640625 -1.0625,0.640625 -0.71875,0 -1.296875,-0.53125 -1.46874998,-1.109375 0.03125,0 0.0625,0.015625 0.17187498,0.015625 0.328125,0 0.5,-0.25 0.5,-0.484375 0,-0.25 -0.171875,-0.5 -0.5,-0.5 -0.14062498,0 -0.48437498,0.078125 -0.48437498,0.53125 0,0.859375 0.68749998,1.828125 1.79687498,1.828125 1.15625,0 2.171875,-0.953125 2.171875,-2.21875 z m 0,0"
             id="id-44599643-d34e-46d7-88d0-41d9926db641" />
        </g>
        <g
           transform="matrix(0.375579,0,0,0.375579,89.021994,126.99928)"
           id="g2421"
           style="fill:#000000;fill-opacity:1">
          <path
             style="stroke:none;stroke-width:0"
             d="m 1.3125,-3.265625 v -0.25 c 0,-2.515625 1.234375,-2.875 1.75,-2.875 0.234375,0 0.65625,0.0625 0.875,0.40625 -0.15625,0 -0.546875,0 -0.546875,0.4375 0,0.3125 0.234375,0.46875 0.453125,0.46875 0.15625,0 0.46875,-0.09375 0.46875,-0.484375 0,-0.59375 -0.4375,-1.078125 -1.265625,-1.078125 -1.28125,0 -2.625,1.28125 -2.625,3.484375 0,2.671875 1.15625,3.375 2.078125,3.375 1.109375,0 2.0625,-0.9375 2.0625,-2.25 0,-1.265625 -0.890625,-2.21875 -2,-2.21875 -0.671875,0 -1.046875,0.5 -1.25,0.984375 z M 2.5,-0.0625 c -0.625,0 -0.921875,-0.59375 -0.984375,-0.75 -0.1875,-0.46875 -0.1875,-1.265625 -0.1875,-1.4375 0,-0.78125 0.328125,-1.78125 1.21875,-1.78125 0.171875,0 0.625,0 0.9375,0.625 0.171875,0.359375 0.171875,0.875 0.171875,1.359375 0,0.484375 0,0.984375 -0.171875,1.34375 C 3.1875,-0.109375 2.734375,-0.0625 2.5,-0.0625 Z m 0,0"
             id="id-da127461-6c3d-456f-9798-4256ae6c2272" />
        </g>
        <g
           transform="matrix(0.375579,0,0,0.375579,93.952069,127.01689)"
           id="g2429"
           style="fill:#000000;fill-opacity:1">
          <path
             style="stroke:none;stroke-width:0"
             d="m 5.5105011,-6.078125 c 0.078125,-0.109375 0.078125,-0.125 0.078125,-0.34375 h -2.421875 c -1.203125,0 -1.234375,-0.125 -1.265625,-0.3125 h -0.25 L 1.3230011,-4.6875 h 0.25 c 0.03125,-0.15625 0.109375,-0.78125 0.25,-0.90625 0.0625,-0.0625 0.84375,-0.0625 0.96875,-0.0625 h 2.0625 c -0.109375,0.15625 -0.890625,1.25 -1.109375,1.578125 -0.90625,1.34375 -1.234375,2.734375 -1.234375,3.75 0,0.09375 0,0.546875 0.46875,0.546875 0.453125,0 0.453125,-0.453125 0.453125,-0.546875 V -0.84375 c 0,-0.546875 0.03125,-1.09375 0.109375,-1.625 0.046875,-0.234375 0.171875,-1.09375 0.625,-1.703125 z m 0,0"
             id="id-9a5b4781-f518-4453-bfbc-2517d01f32fb" />
        </g>
        <g
           transform="matrix(0.375579,0,0,0.375579,99.448163,126.99928)"
           id="g2437"
           style="fill:#000000;fill-opacity:1">
          <path
             style="stroke:none;stroke-width:0"
             d="m 2.0451878,-4.5625 c -0.453125,-0.296875 -0.5,-0.625 -0.5,-0.796875 0,-0.609375 0.65625,-1.03125 1.359375,-1.03125 0.71875,0 1.359375,0.515625 1.359375,1.234375 0,0.578125 -0.390625,1.046875 -0.984375,1.390625 z m 1.453125,0.953125 c 0.71875,-0.375 1.203125,-0.890625 1.203125,-1.546875 0,-0.921875 -0.875,-1.484375 -1.78125,-1.484375 -1,0 -1.8125,0.734375 -1.8125,1.671875 0,0.171875 0.015625,0.625 0.4375,1.09375 0.109375,0.109375 0.484375,0.359375 0.734375,0.53125 C 1.7014378,-3.046875 0.84206279,-2.5 0.84206279,-1.5 c 0,1.046875 1.01562501,1.71875 2.06250001,1.71875 1.125,0 2.078125,-0.828125 2.078125,-1.890625 0,-0.359375 -0.109375,-0.8125 -0.5,-1.234375 -0.1875,-0.203125 -0.34375,-0.296875 -0.984375,-0.703125 z m -1,0.421875 1.234375,0.78125 c 0.28125,0.1875 0.75,0.484375 0.75,1.09375 0,0.734375 -0.75,1.25 -1.5625,1.25 -0.859375,0 -1.578125,-0.609375 -1.578125,-1.4375 0,-0.578125 0.3125,-1.21875 1.15625,-1.6875 z m 0,0"
             id="id-259ff3aa-17a9-4c68-86dc-a74b856fe531" />
        </g>
        <g
           transform="matrix(0.375579,0,0,0.375579,104.66393,126.99928)"
           id="g2445"
           style="fill:#000000;fill-opacity:1">
          <path
             style="stroke:none;stroke-width:0"
             d="m 4.2768031,-3.171875 v 0.328125 c 0,2.328125 -1.03125,2.78125 -1.609375,2.78125 -0.171875,0 -0.71875,-0.015625 -0.984375,-0.359375 0.4375,0 0.515625,-0.28125 0.515625,-0.453125 0,-0.3125 -0.234375,-0.453125 -0.453125,-0.453125 -0.15625,0 -0.453125,0.078125 -0.453125,0.46875 0,0.671875 0.53125,1.078125 1.375,1.078125 1.296875,0 2.515625,-1.359375 2.515625,-3.5 0,-2.6875 -1.15625,-3.359375 -2.046875,-3.359375 -0.546875,0 -1.03125,0.1875 -1.453125,0.625 -0.421875,0.453125 -0.640625,0.875 -0.640625,1.625 0,1.234375 0.875,2.21875 1.984375,2.21875 0.609375,0 1.015625,-0.421875 1.25,-1 z m -1.234375,0.765625 c -0.15625,0 -0.625,0 -0.921875,-0.625 -0.1875,-0.375 -0.1875,-0.859375 -0.1875,-1.359375 0,-0.53125 0,-1 0.21875,-1.375 0.265625,-0.5 0.640625,-0.625 0.984375,-0.625 0.46875,0 0.796875,0.34375 0.96875,0.78125 0.109375,0.328125 0.15625,0.953125 0.15625,1.40625 0,0.828125 -0.34375,1.796875 -1.21875,1.796875 z m 0,0"
             id="id-99fb3a5a-18ee-40a3-9a09-304884ab4f62" />
        </g>
        <g
           transform="matrix(0.375579,0,0,0.375579,56.802666,113.74658)"
           id="g5165"
           style="fill:#000000;fill-opacity:1">
          <path
             style="stroke:none;stroke-width:0"
             d="M 1.78125,-1.140625 C 1.390625,-0.484375 1,-0.34375 0.5625,-0.3125 0.4375,-0.296875 0.34375,-0.296875 0.34375,-0.109375 0.34375,-0.046875 0.40625,0 0.484375,0 0.75,0 1.0625,-0.03125 1.328125,-0.03125 c 0.34375,0 0.6875,0.03125 1,0.03125 0.0625,0 0.1875,0 0.1875,-0.1875 0,-0.109375 -0.078125,-0.125 -0.15625,-0.125 -0.21875,-0.015625 -0.46875,-0.09375 -0.46875,-0.34375 0,-0.125 0.0625,-0.234375 0.140625,-0.375 l 0.765625,-1.265625 h 2.5 c 0.015625,0.203125 0.15625,1.5625 0.15625,1.65625 0,0.296875 -0.515625,0.328125 -0.71875,0.328125 C 4.59375,-0.3125 4.5,-0.3125 4.5,-0.109375 4.5,0 4.609375,0 4.640625,0 5.046875,0 5.46875,-0.03125 5.875,-0.03125 6.125,-0.03125 6.765625,0 7.015625,0 7.0625,0 7.1875,0 7.1875,-0.203125 7.1875,-0.3125 7.09375,-0.3125 6.953125,-0.3125 6.34375,-0.3125 6.34375,-0.375 6.3125,-0.671875 l -0.609375,-6.21875 c -0.015625,-0.203125 -0.015625,-0.25 -0.1875,-0.25 -0.15625,0 -0.203125,0.078125 -0.265625,0.171875 z M 2.984375,-2.609375 4.9375,-5.90625 5.265625,-2.609375 Z m 0,0"
             id="id-50d63186-f24e-4c90-87aa-0041e45d0e64" />
        </g>
        <g
           transform="matrix(0.375579,0,0,0.375579,99.245832,113.9483)"
           id="g5168"
           style="fill:#000000;fill-opacity:1">
          <path
             style="stroke:none;stroke-width:0"
             d="M 1.59375,-0.78125 C 1.5,-0.390625 1.46875,-0.3125 0.6875,-0.3125 c -0.171875,0 -0.265625,0 -0.265625,0.203125 C 0.421875,0 0.515625,0 0.6875,0 H 4.25 C 5.828125,0 7,-1.171875 7,-2.15625 7,-2.875 6.421875,-3.453125 5.453125,-3.5625 6.484375,-3.75 7.53125,-4.484375 7.53125,-5.4375 c 0,-0.734375 -0.65625,-1.375 -1.84375,-1.375 H 2.328125 c -0.1875,0 -0.28125,0 -0.28125,0.203125 0,0.109375 0.09375,0.109375 0.28125,0.109375 0.015625,0 0.203125,0 0.375,0.015625 0.171875,0.03125 0.265625,0.03125 0.265625,0.171875 0,0.03125 -0.015625,0.0625 -0.03125,0.1875 z m 1.5,-2.875 0.625,-2.46875 C 3.8125,-6.46875 3.828125,-6.5 4.25,-6.5 h 1.296875 c 0.875,0 1.078125,0.59375 1.078125,1.03125 0,0.875 -0.859375,1.8125 -2.0625,1.8125 z m -0.4375,3.34375 c -0.140625,0 -0.15625,0 -0.21875,0 -0.109375,-0.015625 -0.140625,-0.03125 -0.140625,-0.109375 0,-0.03125 0,-0.046875 0.0625,-0.21875 l 0.6875,-2.78125 h 1.875 c 0.953125,0 1.15625,0.734375 1.15625,1.15625 C 6.078125,-1.28125 5.1875,-0.3125 4,-0.3125 Z m 0,0"
             id="id-85c338ad-983f-456b-85fb-d39d822321cb" />
        </g>
        <g
           style="fill:#000000;fill-opacity:1"
           id="id-b50f20bf-80f1-4396-8a7c-c6f7afc513d3"
           transform="matrix(0.375579,0,0,0.375579,16.078127,63.13168)">
          <g
             transform="translate(164.239,134.765)"
             id="g5172">
            <path
               style="stroke:none;stroke-width:0"
               d="M 9.234375,-6.046875 C 9.328125,-6.40625 9.34375,-6.5 10.09375,-6.5 c 0.21875,0 0.3125,0 0.3125,-0.203125 0,-0.109375 -0.09375,-0.109375 -0.265625,-0.109375 h -1.3125 c -0.265625,0 -0.28125,0 -0.390625,0.1875 L 4.796875,-0.9375 4.015625,-6.578125 C 3.984375,-6.8125 3.96875,-6.8125 3.703125,-6.8125 H 2.34375 c -0.1875,0 -0.296875,0 -0.296875,0.1875 0,0.125 0.09375,0.125 0.28125,0.125 0.140625,0 0.3125,0.015625 0.4375,0.015625 0.15625,0.03125 0.21875,0.046875 0.21875,0.171875 0,0.03125 -0.015625,0.0625 -0.046875,0.1875 l -1.265625,5.0625 c -0.09375,0.40625 -0.265625,0.71875 -1.078125,0.75 -0.046875,0 -0.171875,0.015625 -0.171875,0.1875 0,0.09375 0.0625,0.125 0.140625,0.125 0.3125,0 0.65625,-0.03125 1,-0.03125 C 1.890625,-0.03125 2.25,0 2.578125,0 c 0.046875,0 0.1875,0 0.1875,-0.203125 0,-0.109375 -0.109375,-0.109375 -0.1875,-0.109375 -0.5625,0 -0.671875,-0.203125 -0.671875,-0.4375 0,-0.0625 0,-0.125 0.03125,-0.234375 L 3.296875,-6.40625 H 3.3125 l 0.859375,6.171875 C 4.1875,-0.109375 4.203125,0 4.3125,0 4.421875,0 4.484375,-0.109375 4.53125,-0.171875 l 4.03125,-6.3125 h 0.015625 l -1.4375,5.703125 c -0.09375,0.390625 -0.109375,0.46875 -0.90625,0.46875 -0.15625,0 -0.265625,0 -0.265625,0.1875 C 5.96875,0 6.078125,0 6.109375,0 6.390625,0 7.0625,-0.03125 7.34375,-0.03125 7.75,-0.03125 8.1875,0 8.59375,0 8.65625,0 8.78125,0 8.78125,-0.203125 8.78125,-0.3125 8.6875,-0.3125 8.5,-0.3125 c -0.359375,0 -0.640625,0 -0.640625,-0.171875 0,-0.046875 0,-0.0625 0.046875,-0.25 z m 0,0"
               id="id-f7e98e37-78a6-46bb-8116-89cedf76eb00" />
          </g>
        </g>
        <g
           style="fill:#000000;fill-opacity:1"
           id="id-bba9e2d2-b46e-46fa-ad05-3abc184587a9"
           transform="matrix(0.375579,0,0,0.375579,23.114144,54.702833)">
          <g
             transform="translate(174.992,134.765)"
             id="g5176">
            <path
               style="stroke:none;stroke-width:0"
               d="m 2.9375,-1.640625 v 0.859375 c 0,0.359375 -0.03125,0.46875 -0.765625,0.46875 H 1.96875 V 0 C 2.375,-0.03125 2.890625,-0.03125 3.3125,-0.03125 c 0.421875,0 0.9375,0 1.359375,0.03125 v -0.3125 h -0.21875 c -0.734375,0 -0.75,-0.109375 -0.75,-0.46875 V -1.640625 H 4.6875 v -0.3125 H 3.703125 v -4.53125 c 0,-0.203125 0,-0.265625 -0.171875,-0.265625 -0.078125,0 -0.109375,0 -0.1875,0.125 l -3.0625,4.671875 v 0.3125 z m 0.046875,-0.3125 H 0.5625 l 2.421875,-3.71875 z m 0,0"
               id="id-e1382fca-b87c-4de3-a034-b014f85dd4b7" />
          </g>
        </g>
        <g
           style="fill:#000000;fill-opacity:1"
           id="g5275"
           transform="matrix(0.375579,0,0,0.375579,1.5341664,54.629065)">
          <g
             transform="translate(174.992,134.765)"
             id="g5273">
            <path
               style="stroke:none;stroke-width:0"
               d="m 2.9375,-1.640625 v 0.859375 c 0,0.359375 -0.03125,0.46875 -0.765625,0.46875 H 1.96875 V 0 C 2.375,-0.03125 2.890625,-0.03125 3.3125,-0.03125 c 0.421875,0 0.9375,0 1.359375,0.03125 v -0.3125 h -0.21875 c -0.734375,0 -0.75,-0.109375 -0.75,-0.46875 V -1.640625 H 4.6875 v -0.3125 H 3.703125 v -4.53125 c 0,-0.203125 0,-0.265625 -0.171875,-0.265625 -0.078125,0 -0.109375,0 -0.1875,0.125 l -3.0625,4.671875 v 0.3125 z m 0.046875,-0.3125 H 0.5625 l 2.421875,-3.71875 z m 0,0"
               id="path5271" />
          </g>
        </g>
        <path
           style="fill:none;stroke:#000000;stroke-width:0.165;stroke-linecap:butt;stroke-linejoin:miter;stroke-miterlimit:4;stroke-dasharray:none;stroke-opacity:1"
           d="m 58.208333,108.47917 c 0,-1.5875 9.260418,0 10.583334,-1.32292 1.322917,1.32292 10.583334,-0.26458 10.583333,1.32292"
           id="path6665" />
        <path
           style="fill:none;stroke:#000000;stroke-width:0.165;stroke-linecap:butt;stroke-linejoin:miter;stroke-miterlimit:4;stroke-dasharray:none;stroke-opacity:1"
           d="m 79.375001,108.47917 c 0,-1.5875 9.260418,0 10.583334,-1.32292 1.322917,1.32292 10.583335,-0.26458 10.583335,1.32292"
           id="path7321" />
      </g>
    </g>
  </g>
</svg>
