<?xml version="1.0" encoding="UTF-8" standalone="no"?>
<!-- Created with Inkscape (http://www.inkscape.org/) -->

<svg
   width="29.468597mm"
   height="26.841166mm"
   viewBox="0 0 29.468597 26.841166"
   version="1.1"
   id="svg5"
   sodipodi:docname="node_neighbors.svg"
   inkscape:version="1.1 (c4e8f9e, 2021-05-24)"
   xmlns:inkscape="http://www.inkscape.org/namespaces/inkscape"
   xmlns:sodipodi="http://sodipodi.sourceforge.net/DTD/sodipodi-0.dtd"
   xmlns="http://www.w3.org/2000/svg"
   xmlns:svg="http://www.w3.org/2000/svg"
   xmlns:ns10="http://www.iki.fi/pav/software/textext/">
  <sodipodi:namedview
     id="namedview7"
     pagecolor="#ffffff"
     bordercolor="#666666"
     borderopacity="1.0"
     inkscape:pageshadow="2"
     inkscape:pageopacity="0.0"
     inkscape:pagecheckerboard="0"
     inkscape:document-units="mm"
     showgrid="false"
     inkscape:zoom="3.1772934"
     inkscape:cx="40.128494"
     inkscape:cy="56.494625"
     inkscape:window-width="1312"
     inkscape:window-height="847"
     inkscape:window-x="0"
     inkscape:window-y="25"
     inkscape:window-maximized="0"
     inkscape:current-layer="layer1"
     inkscape:snap-global="true">
    <inkscape:grid
       type="xygrid"
       id="grid824"
       originx="-77.383279"
       originy="-77.288906" />
  </sodipodi:namedview>
  <defs
     id="defs2">
    <marker
       style="overflow:visible"
       id="DotL"
       refX="0"
       refY="0"
       orient="auto"
       inkscape:stockid="DotL"
       inkscape:isstock="true">
      <path
         transform="matrix(0.8,0,0,0.8,5.92,0.8)"
         style="fill:context-stroke;fill-rule:evenodd;stroke:context-stroke;stroke-width:1pt"
         d="m -2.5,-1 c 0,2.76 -2.24,5 -5,5 -2.76,0 -5,-2.24 -5,-5 0,-2.76 2.24,-5 5,-5 2.76,0 5,2.24 5,5 z"
         id="path1008" />
    </marker>
    <marker
       style="overflow:visible"
       id="DotM"
       refX="0"
       refY="0"
       orient="auto"
       inkscape:stockid="DotM"
       inkscape:isstock="true">
      <path
         transform="matrix(0.4,0,0,0.4,2.96,0.4)"
         style="fill:context-stroke;fill-rule:evenodd;stroke:context-stroke;stroke-width:1pt"
         d="m -2.5,-1 c 0,2.76 -2.24,5 -5,5 -2.76,0 -5,-2.24 -5,-5 0,-2.76 2.24,-5 5,-5 2.76,0 5,2.24 5,5 z"
         id="path1011" />
    </marker>
    <defs
       id="id-079498bb-9603-4699-bf6d-477991171dd2">
      <g
         id="id-b7e18e86-88e0-4b1c-83bb-9ca9da5382ef">
        <symbol
           overflow="visible"
           id="id-603d7bb0-e66a-40f0-940a-4d1874710141">
          <path
             style="stroke:none;stroke-width:0"
             d=""
             id="id-f7050dae-2617-46ef-9ebf-fe5faa0f78ba" />
        </symbol>
        <symbol
           overflow="visible"
           id="id-cbff9fa8-5147-4e60-9790-35cb53ad5db5">
          <path
             style="stroke:none;stroke-width:0"
             d="m 4.671875,-3.703125 c 0,-0.546875 -0.265625,-0.703125 -0.4375,-0.703125 -0.25,0 -0.5,0.265625 -0.5,0.484375 0,0.125 0.046875,0.1875 0.15625,0.296875 0.21875,0.203125 0.34375,0.453125 0.34375,0.8125 0,0.421875 -0.609375,2.703125 -1.765625,2.703125 -0.515625,0 -0.75,-0.34375 -0.75,-0.875 0,-0.546875 0.28125,-1.28125 0.578125,-2.109375 0.078125,-0.171875 0.125,-0.3125 0.125,-0.5 0,-0.4375 -0.3125,-0.8125 -0.8125,-0.8125 -0.9375,0 -1.3125,1.453125 -1.3125,1.53125 0,0.109375 0.09375,0.109375 0.109375,0.109375 0.109375,0 0.109375,-0.03125 0.15625,-0.1875 0.296875,-1 0.71875,-1.234375 1.015625,-1.234375 0.078125,0 0.25,0 0.25,0.3125 0,0.25 -0.109375,0.53125 -0.171875,0.703125 -0.4375,1.15625 -0.5625,1.609375 -0.5625,2.046875 0,1.078125 0.875,1.234375 1.328125,1.234375 1.671875,0 2.25,-3.296875 2.25,-3.8125 z m 0,0"
             id="id-3661c6dc-08cc-425e-95e8-3d64b11bc611" />
        </symbol>
        <symbol
           overflow="visible"
           id="id-12031102-3c9b-420f-9875-4ce8aa435836">
          <path
             style="stroke:none;stroke-width:0"
             d="M 3.484375,-0.5625 C 3.59375,-0.15625 3.953125,0.109375 4.375,0.109375 4.71875,0.109375 4.953125,-0.125 5.109375,-0.4375 5.28125,-0.796875 5.40625,-1.40625 5.40625,-1.421875 c 0,-0.109375 -0.078125,-0.109375 -0.109375,-0.109375 -0.109375,0 -0.109375,0.046875 -0.140625,0.1875 -0.140625,0.5625 -0.328125,1.234375 -0.75,1.234375 -0.203125,0 -0.3125,-0.125 -0.3125,-0.453125 0,-0.21875 0.125,-0.6875 0.203125,-1.046875 L 4.578125,-2.6875 C 4.609375,-2.828125 4.703125,-3.203125 4.75,-3.359375 4.796875,-3.59375 4.890625,-3.96875 4.890625,-4.03125 c 0,-0.171875 -0.140625,-0.265625 -0.28125,-0.265625 -0.046875,0 -0.3125,0.015625 -0.390625,0.34375 -0.1875,0.734375 -0.625,2.484375 -0.75,3 -0.015625,0.046875 -0.40625,0.84375 -1.140625,0.84375 -0.515625,0 -0.609375,-0.453125 -0.609375,-0.8125 0,-0.5625 0.28125,-1.34375 0.53125,-2.03125 0.125,-0.3125 0.171875,-0.453125 0.171875,-0.640625 0,-0.4375 -0.3125,-0.8125 -0.8125,-0.8125 -0.953125,0 -1.3125,1.453125 -1.3125,1.53125 0,0.109375 0.09375,0.109375 0.109375,0.109375 0.109375,0 0.109375,-0.03125 0.15625,-0.1875 0.25,-0.859375 0.640625,-1.234375 1.015625,-1.234375 0.09375,0 0.25,0.015625 0.25,0.328125 0,0.234375 -0.109375,0.53125 -0.171875,0.671875 -0.375,1 -0.578125,1.609375 -0.578125,2.09375 0,0.953125 0.6875,1.203125 1.21875,1.203125 0.65625,0 1.015625,-0.453125 1.1875,-0.671875 z m 0,0"
             id="id-36d4b98d-d2b7-47f0-bf12-53597b16e640" />
        </symbol>
        <symbol
           overflow="visible"
           id="id-5b7036b2-d1cc-4dfa-a3b8-b1b4e2174481">
          <path
             style="stroke:none;stroke-width:0"
             d=""
             id="id-8feb603b-ca21-4dea-b4c6-c4702f1e3162" />
        </symbol>
        <symbol
           overflow="visible"
           id="id-1a4947f7-1372-4566-b44d-3d2c51ea58cf">
          <path
             style="stroke:none;stroke-width:0"
             d="m 0.84375,-0.4375 c -0.015625,0.09375 -0.0625,0.265625 -0.0625,0.28125 0,0.15625 0.125,0.21875 0.234375,0.21875 0.125,0 0.234375,-0.078125 0.28125,-0.140625 0.03125,-0.0625 0.078125,-0.296875 0.125,-0.4375 0.03125,-0.125 0.109375,-0.453125 0.140625,-0.625 0.046875,-0.15625 0.09375,-0.3125 0.125,-0.46875 0.078125,-0.28125 0.09375,-0.34375 0.296875,-0.625 C 2.171875,-2.515625 2.5,-2.875 3.03125,-2.875 c 0.390625,0 0.40625,0.359375 0.40625,0.484375 0,0.421875 -0.296875,1.1875 -0.40625,1.484375 -0.078125,0.203125 -0.109375,0.265625 -0.109375,0.375 0,0.375 0.296875,0.59375 0.65625,0.59375 0.703125,0 1,-0.953125 1,-1.0625 0,-0.09375 -0.078125,-0.09375 -0.109375,-0.09375 -0.09375,0 -0.09375,0.046875 -0.125,0.125 C 4.1875,-0.40625 3.875,-0.125 3.609375,-0.125 c -0.15625,0 -0.1875,-0.09375 -0.1875,-0.25 0,-0.15625 0.046875,-0.25 0.171875,-0.5625 0.078125,-0.21875 0.359375,-0.953125 0.359375,-1.34375 0,-0.671875 -0.53125,-0.796875 -0.90625,-0.796875 -0.578125,0 -0.96875,0.359375 -1.171875,0.640625 -0.046875,-0.484375 -0.453125,-0.640625 -0.75,-0.640625 -0.296875,0 -0.453125,0.21875 -0.546875,0.375 -0.15625,0.265625 -0.25,0.65625 -0.25,0.703125 0,0.078125 0.09375,0.078125 0.125,0.078125 0.09375,0 0.09375,-0.015625 0.140625,-0.203125 0.109375,-0.40625 0.25,-0.75 0.515625,-0.75 0.1875,0 0.234375,0.15625 0.234375,0.34375 0,0.125 -0.0625,0.390625 -0.125,0.578125 -0.046875,0.1875 -0.109375,0.46875 -0.140625,0.625 z m 0,0"
             id="id-586a3137-babd-446c-9066-4fae7b23496b" />
        </symbol>
        <symbol
           overflow="visible"
           id="id-6380c1a8-71a2-46c0-a8d3-31ef6ba15232">
          <path
             style="stroke:none;stroke-width:0"
             d="M 3.984375,-4.625 C 3.984375,-4.640625 4,-4.734375 4,-4.734375 4,-4.78125 3.984375,-4.84375 3.890625,-4.84375 3.75,-4.84375 3.171875,-4.78125 3,-4.765625 c -0.046875,0 -0.15625,0.015625 -0.15625,0.15625 0,0.09375 0.109375,0.09375 0.1875,0.09375 0.328125,0 0.328125,0.0625 0.328125,0.109375 0,0.046875 0,0.09375 -0.015625,0.15625 L 2.9375,-2.65625 c -0.140625,-0.234375 -0.375,-0.421875 -0.71875,-0.421875 -0.890625,0 -1.796875,0.984375 -1.796875,1.984375 0,0.6875 0.453125,1.15625 1.0625,1.15625 0.375,0 0.703125,-0.203125 0.984375,-0.484375 C 2.59375,0 3,0.0625 3.1875,0.0625 c 0.25,0 0.421875,-0.140625 0.546875,-0.359375 0.15625,-0.28125 0.25,-0.671875 0.25,-0.703125 0,-0.09375 -0.09375,-0.09375 -0.109375,-0.09375 -0.109375,0 -0.109375,0.03125 -0.15625,0.21875 C 3.625,-0.53125 3.5,-0.125 3.203125,-0.125 3.03125,-0.125 2.96875,-0.28125 2.96875,-0.46875 c 0,-0.125 0.015625,-0.1875 0.046875,-0.28125 z M 2.5,-0.875 C 2.453125,-0.671875 2.296875,-0.53125 2.140625,-0.40625 2.078125,-0.34375 1.796875,-0.125 1.5,-0.125 c -0.265625,0 -0.515625,-0.1875 -0.515625,-0.671875 0,-0.375 0.203125,-1.140625 0.375,-1.421875 0.3125,-0.5625 0.671875,-0.65625 0.859375,-0.65625 0.484375,0 0.625,0.53125 0.625,0.609375 0,0.015625 -0.015625,0.078125 -0.015625,0.09375 z m 0,0"
             id="id-0048220b-7647-4ff0-ac8e-f4beec46a6ef" />
        </symbol>
        <symbol
           overflow="visible"
           id="id-5e738901-6242-43e1-bf5c-008db1054a5b">
          <path
             style="stroke:none;stroke-width:0"
             d=""
             id="id-0c630346-9b98-4d8f-8c38-158ac723286a" />
        </symbol>
        <symbol
           overflow="visible"
           id="id-1201a718-ac2e-4af5-ba1b-0c14d318d34c">
          <path
             style="stroke:none;stroke-width:0"
             d="m 3.21875,-1.578125 h 2.140625 c 0.09375,0 0.25,0 0.25,-0.15625 0,-0.1875 -0.15625,-0.1875 -0.25,-0.1875 H 3.21875 V -4.0625 c 0,-0.078125 0,-0.25 -0.15625,-0.25 -0.171875,0 -0.171875,0.15625 -0.171875,0.25 v 2.140625 H 0.75 c -0.09375,0 -0.265625,0 -0.265625,0.171875 0,0.171875 0.15625,0.171875 0.265625,0.171875 H 2.890625 V 0.5625 c 0,0.09375 0,0.265625 0.15625,0.265625 0.171875,0 0.171875,-0.171875 0.171875,-0.265625 z m 0,0"
             id="id-152a3abf-6546-429d-8609-46f887160780" />
        </symbol>
        <symbol
           overflow="visible"
           id="id-736515d7-0670-4ac3-8872-dfefd59d40a7">
          <path
             style="stroke:none;stroke-width:0"
             d="m 2.328125,-4.4375 c 0,-0.1875 0,-0.1875 -0.203125,-0.1875 -0.453125,0.4375 -1.078125,0.4375 -1.359375,0.4375 v 0.25 c 0.15625,0 0.625,0 1,-0.1875 v 3.546875 c 0,0.234375 0,0.328125 -0.6875,0.328125 H 0.8125 V 0 c 0.125,0 0.984375,-0.03125 1.234375,-0.03125 0.21875,0 1.09375,0.03125 1.25,0.03125 V -0.25 H 3.03125 c -0.703125,0 -0.703125,-0.09375 -0.703125,-0.328125 z m 0,0"
             id="id-de4b2c39-ffd5-4e8e-b1cf-e02eb1288705" />
        </symbol>
        <symbol
           overflow="visible"
           id="id-776158d4-8d88-477f-a00c-b64dab2fc61e">
          <path
             style="stroke:none;stroke-width:0"
             d="M 3.515625,-1.265625 H 3.28125 c -0.015625,0.15625 -0.09375,0.5625 -0.1875,0.625 C 3.046875,-0.59375 2.515625,-0.59375 2.40625,-0.59375 H 1.125 c 0.734375,-0.640625 0.984375,-0.84375 1.390625,-1.171875 0.515625,-0.40625 1,-0.84375 1,-1.5 0,-0.84375 -0.734375,-1.359375 -1.625,-1.359375 -0.859375,0 -1.453125,0.609375 -1.453125,1.25 0,0.34375 0.296875,0.390625 0.375,0.390625 0.15625,0 0.359375,-0.125 0.359375,-0.375 0,-0.125 -0.046875,-0.375 -0.40625,-0.375 C 0.984375,-4.21875 1.453125,-4.375 1.78125,-4.375 c 0.703125,0 1.0625,0.546875 1.0625,1.109375 0,0.609375 -0.4375,1.078125 -0.65625,1.328125 L 0.515625,-0.265625 C 0.4375,-0.203125 0.4375,-0.1875 0.4375,0 h 2.875 z m 0,0"
             id="id-2bbdf523-5bf1-4eab-b394-b3d09dca4c34" />
        </symbol>
      </g>
    </defs>
  </defs>
  <g
     inkscape:label="Layer 1"
     inkscape:groupmode="layer"
     id="layer1"
     transform="translate(-77.383277,-77.288902)">
    <g
       id="g2356">
      <g
         id="path861"
         style="fill:#dc0000">
        <path
           style="color:#000000;fill:#2d2d2d;-inkscape-stroke:none"
           d="M 100.41211,79.181641 84.537109,89.765625 84.794922,90.152344 100.66992,79.568359 Z"
           id="path1247" />
        <g
           id="g1225"
           style="fill:#dc0000">
          <g
             id="path1237"
             style="fill:#dc0000">
            <path
               style="color:#000000;fill:#ffc022;fill-rule:evenodd;stroke-width:0.372pt;-inkscape-stroke:none"
               d="m 102.05833,78.363892 c 0.56952,0.854282 0.33841,2.009834 -0.51587,2.579356 -0.85428,0.569521 -2.009834,0.338411 -2.579356,-0.515872 -0.569522,-0.854283 -0.338411,-2.009834 0.515872,-2.579356 0.854284,-0.569522 2.009834,-0.338411 2.579354,0.515872 z"
               id="path1241" />
            <path
               style="color:#000000;fill:#2d2d2d;fill-rule:evenodd;-inkscape-stroke:none"
               d="m 100.92383,77.330078 c -0.52958,-0.105916 -1.099068,-0.0095 -1.582033,0.3125 -0.96593,0.643953 -1.229891,1.955946 -0.585938,2.921875 0.643954,0.96593 1.957901,1.22989 2.923831,0.585938 0.96592,-0.643954 1.22989,-1.9579 0.58594,-2.923829 -0.32198,-0.482964 -0.81222,-0.790567 -1.3418,-0.896484 z m -0.0977,0.484375 c 0.40415,0.08083 0.77785,0.316183 1.02539,0.6875 0.49509,0.742634 0.29537,1.739286 -0.44726,2.234375 -0.74263,0.495089 -1.739288,0.295369 -2.234378,-0.447266 -0.49509,-0.742634 -0.295369,-1.739285 0.447265,-2.234375 0.371318,-0.247545 0.804843,-0.321063 1.208983,-0.240234 z"
               id="path1243" />
          </g>
          <g
             id="path1227"
             style="fill:#dc0000">
            <path
               style="color:#000000;fill:#dc0000;fill-rule:evenodd;stroke-width:0.372pt;-inkscape-stroke:none"
               d="m 86.183327,88.947225 c 0.569522,0.854282 0.338412,2.009834 -0.515871,2.579356 -0.854283,0.569521 -2.009834,0.338411 -2.579356,-0.515872 -0.569522,-0.854283 -0.338411,-2.009834 0.515872,-2.579356 0.854282,-0.569522 2.009834,-0.338411 2.579355,0.515872 z"
               id="path1231" />
            <path
               style="color:#000000;fill:#dc0000;fill-rule:evenodd;-inkscape-stroke:none"
               d="m 85.048828,87.914062 c -0.529581,-0.105916 -1.099067,-0.01143 -1.582031,0.310547 -0.96593,0.643953 -1.229891,1.957899 -0.585938,2.923828 0.643953,0.96593 1.957899,1.227937 2.923828,0.583985 0.96593,-0.643953 1.229891,-1.955947 0.585938,-2.921875 -0.321976,-0.482965 -0.812215,-0.790568 -1.341797,-0.896485 z m -0.09766,0.482422 c 0.404144,0.08083 0.777846,0.316183 1.02539,0.6875 0.49509,0.742634 0.29537,1.741239 -0.447265,2.236328 -0.742635,0.49509 -1.739285,0.29537 -2.234375,-0.447265 -0.49509,-0.742635 -0.295369,-1.739285 0.447265,-2.234375 0.371317,-0.247545 0.804841,-0.323017 1.208985,-0.242188 z"
               id="path1233" />
          </g>
        </g>
      </g>
      <g
         id="path863"
         style="fill:#dc0000">
        <path
           style="color:#000000;fill:#2d2d2d;-inkscape-stroke:none"
           d="m 84.666016,89.726562 v 0.464844 h 15.875004 v -0.464844 z"
           id="path1275" />
        <g
           id="g1253"
           style="fill:#dc0000">
          <g
             id="path1265"
             style="fill:#dc0000">
            <path
               style="color:#000000;fill:#ffc022;fill-rule:evenodd;stroke-width:0.372pt;-inkscape-stroke:none"
               d="m 102.36447,89.958332 c 0,1.02672 -0.83328,1.86 -1.86,1.86 -1.02672,0 -1.86,-0.83328 -1.86,-1.86 0,-1.02672 0.83328,-1.86 1.86,-1.86 1.02672,0 1.86,0.83328 1.86,1.86 z"
               id="path1269" />
            <path
               style="color:#000000;fill:#2d2d2d;fill-rule:evenodd;-inkscape-stroke:none"
               d="m 100.50391,87.849609 c -1.160906,0 -2.107426,0.948473 -2.107426,2.109375 0,1.160903 0.94652,2.107422 2.107426,2.107422 1.1609,0 2.10937,-0.946519 2.10937,-2.107422 0,-1.160902 -0.94847,-2.109375 -2.10937,-2.109375 z m 0,0.496094 c 0.89253,0 1.61328,0.720746 1.61328,1.613281 0,0.892536 -0.72075,1.611329 -1.61328,1.611328 -0.892539,0 -1.611332,-0.718792 -1.611332,-1.611328 0,-0.892535 0.718793,-1.613281 1.611332,-1.613281 z"
               id="path1271" />
          </g>
          <g
             id="path1255"
             style="fill:#dc0000">
            <path
               style="color:#000000;fill:#dc0000;fill-rule:evenodd;stroke-width:0.372pt;-inkscape-stroke:none"
               d="m 86.489466,89.958332 c 0,1.02672 -0.83328,1.86 -1.86,1.86 -1.02672,0 -1.86,-0.83328 -1.86,-1.86 0,-1.02672 0.83328,-1.86 1.86,-1.86 1.02672,0 1.86,0.83328 1.86,1.86 z"
               id="path1259" />
            <path
               style="color:#000000;fill:#dc0000;fill-rule:evenodd;-inkscape-stroke:none"
               d="m 84.628906,87.849609 c -1.160902,0 -2.107422,0.948473 -2.107422,2.109375 0,1.160903 0.94652,2.107422 2.107422,2.107422 1.160903,0 2.109375,-0.946519 2.109375,-2.107422 0,-1.160902 -0.948472,-2.109375 -2.109375,-2.109375 z m 0,0.496094 c 0.892536,0 1.613282,0.720746 1.613281,1.613281 0,0.892536 -0.720745,1.611329 -1.613281,1.611328 -0.892535,0 -1.611328,-0.718792 -1.611328,-1.611328 0,-0.892535 0.718793,-1.613281 1.611328,-1.613281 z"
               id="path1261" />
          </g>
        </g>
      </g>
      <g
         id="path865"
         style="fill:#dc0000">
        <path
           style="color:#000000;fill:#2d2d2d;-inkscape-stroke:none"
           d="m 84.794922,89.765625 -0.257813,0.386719 15.875001,10.582036 0.25781,-0.38672 z"
           id="path1303" />
        <g
           id="g1281"
           style="fill:#dc0000">
          <g
             id="path1293"
             style="fill:#dc0000">
            <path
               style="color:#000000;fill:#ffc022;fill-rule:evenodd;stroke-width:0.372pt;-inkscape-stroke:none"
               d="m 102.05833,101.55278 c -0.56952,0.85428 -1.72507,1.08539 -2.579355,0.51587 -0.854282,-0.56952 -1.085393,-1.72507 -0.515871,-2.579357 0.569522,-0.854283 1.725076,-1.085393 2.579356,-0.515871 0.85428,0.569522 1.08539,1.725078 0.51587,2.579358 z"
               id="path1297" />
            <path
               style="color:#000000;fill:#2d2d2d;fill-rule:evenodd;-inkscape-stroke:none"
               d="m 100.09766,98.455078 c -0.529586,0.105916 -1.019824,0.41352 -1.341801,0.896484 -0.643952,0.965938 -0.379991,2.279878 0.585938,2.923828 0.965933,0.64395 2.279873,0.37999 2.923833,-0.58594 0.64395,-0.96592 0.37998,-2.277918 -0.58594,-2.921872 -0.48297,-0.321977 -1.05245,-0.418416 -1.58203,-0.3125 z m 0.0977,0.484375 c 0.40415,-0.08083 0.83767,-0.0073 1.20899,0.240234 0.74263,0.49509 0.94235,1.493693 0.44726,2.236333 -0.49509,0.74263 -1.49174,0.9404 -2.234373,0.44531 -0.742633,-0.49509 -0.942356,-1.49174 -0.447265,-2.234377 0.247545,-0.371317 0.621246,-0.606671 1.025388,-0.6875 z"
               id="path1299" />
          </g>
          <g
             id="path1283"
             style="fill:#dc0000">
            <path
               style="color:#000000;fill:#ffc022;fill-rule:evenodd;stroke-width:0.372pt;-inkscape-stroke:none"
               d="m 86.183327,90.96944 c -0.569522,0.854282 -1.725073,1.085392 -2.579356,0.515871 -0.854282,-0.569522 -1.085393,-1.725074 -0.515871,-2.579356 0.569522,-0.854283 1.725074,-1.085393 2.579356,-0.515871 0.854283,0.569522 1.085393,1.725073 0.515871,2.579356 z"
               id="path1287" />
            <path
               style="color:#000000;fill:#2d2d2d;fill-rule:evenodd;-inkscape-stroke:none"
               d="m 84.222656,87.873047 c -0.529581,0.105916 -1.01982,0.411566 -1.341797,0.894531 -0.643953,0.965929 -0.379991,2.279875 0.585938,2.923828 0.965929,0.643952 2.279875,0.381944 2.923828,-0.583984 0.643953,-0.96593 0.379992,-2.279875 -0.585938,-2.923828 -0.482964,-0.321977 -1.052449,-0.416463 -1.582031,-0.310547 z m 0.09766,0.482422 c 0.404145,-0.08083 0.837668,-0.0073 1.208985,0.240234 0.742635,0.49509 0.942355,1.493693 0.447265,2.236328 -0.495089,0.742634 -1.49174,0.942355 -2.234375,0.447266 -0.742633,-0.49509 -0.942355,-1.493695 -0.447265,-2.236328 0.247545,-0.371318 0.621246,-0.606671 1.02539,-0.6875 z"
               id="path1289" />
          </g>
        </g>
      </g>
      <g
         id="g2268"
         transform="translate(-6.4209597,-16.476101)">
        <g
           transform="matrix(0.375579,0,0,0.375579,83.692737,110.56388)"
           id="g1530"
           style="fill:#000000;fill-opacity:1">
          <path
             style="stroke:none;stroke-width:0"
             d="m 4.671875,-3.703125 c 0,-0.546875 -0.265625,-0.703125 -0.4375,-0.703125 -0.25,0 -0.5,0.265625 -0.5,0.484375 0,0.125 0.046875,0.1875 0.15625,0.296875 0.21875,0.203125 0.34375,0.453125 0.34375,0.8125 0,0.421875 -0.609375,2.703125 -1.765625,2.703125 -0.515625,0 -0.75,-0.34375 -0.75,-0.875 0,-0.546875 0.28125,-1.28125 0.578125,-2.109375 0.078125,-0.171875 0.125,-0.3125 0.125,-0.5 0,-0.4375 -0.3125,-0.8125 -0.8125,-0.8125 -0.9375,0 -1.3125,1.453125 -1.3125,1.53125 0,0.109375 0.09375,0.109375 0.109375,0.109375 0.109375,0 0.109375,-0.03125 0.15625,-0.1875 0.296875,-1 0.71875,-1.234375 1.015625,-1.234375 0.078125,0 0.25,0 0.25,0.3125 0,0.25 -0.109375,0.53125 -0.171875,0.703125 -0.4375,1.15625 -0.5625,1.609375 -0.5625,2.046875 0,1.078125 0.875,1.234375 1.328125,1.234375 1.671875,0 2.25,-3.296875 2.25,-3.8125 z m 0,0"
             id="id-e34548cd-e4ee-4e17-b26b-cc3e8d505473" />
        </g>
        <g
           transform="matrix(0.375579,0,0,0.375579,85.506408,111.125)"
           id="g1534"
           style="fill:#000000;fill-opacity:1">
          <path
             style="stroke:none;stroke-width:0"
             d="m 0.84375,-0.4375 c -0.015625,0.09375 -0.0625,0.265625 -0.0625,0.28125 0,0.15625 0.125,0.21875 0.234375,0.21875 0.125,0 0.234375,-0.078125 0.28125,-0.140625 0.03125,-0.0625 0.078125,-0.296875 0.125,-0.4375 0.03125,-0.125 0.109375,-0.453125 0.140625,-0.625 0.046875,-0.15625 0.09375,-0.3125 0.125,-0.46875 0.078125,-0.28125 0.09375,-0.34375 0.296875,-0.625 C 2.171875,-2.515625 2.5,-2.875 3.03125,-2.875 c 0.390625,0 0.40625,0.359375 0.40625,0.484375 0,0.421875 -0.296875,1.1875 -0.40625,1.484375 -0.078125,0.203125 -0.109375,0.265625 -0.109375,0.375 0,0.375 0.296875,0.59375 0.65625,0.59375 0.703125,0 1,-0.953125 1,-1.0625 0,-0.09375 -0.078125,-0.09375 -0.109375,-0.09375 -0.09375,0 -0.09375,0.046875 -0.125,0.125 C 4.1875,-0.40625 3.875,-0.125 3.609375,-0.125 c -0.15625,0 -0.1875,-0.09375 -0.1875,-0.25 0,-0.15625 0.046875,-0.25 0.171875,-0.5625 0.078125,-0.21875 0.359375,-0.953125 0.359375,-1.34375 0,-0.671875 -0.53125,-0.796875 -0.90625,-0.796875 -0.578125,0 -0.96875,0.359375 -1.171875,0.640625 -0.046875,-0.484375 -0.453125,-0.640625 -0.75,-0.640625 -0.296875,0 -0.453125,0.21875 -0.546875,0.375 -0.15625,0.265625 -0.25,0.65625 -0.25,0.703125 0,0.078125 0.09375,0.078125 0.125,0.078125 0.09375,0 0.09375,-0.015625 0.140625,-0.203125 0.109375,-0.40625 0.25,-0.75 0.515625,-0.75 0.1875,0 0.234375,0.15625 0.234375,0.34375 0,0.125 -0.0625,0.390625 -0.125,0.578125 -0.046875,0.1875 -0.109375,0.46875 -0.140625,0.625 z m 0,0"
             id="id-671a6500-1a2c-4943-b3f6-84620996b355" />
        </g>
        <g
           transform="matrix(0.375579,0,0,0.375579,87.356135,111.125)"
           id="g1538"
           style="fill:#000000;fill-opacity:1">
          <path
             style="stroke:none;stroke-width:0"
             d="m 3.21875,-1.578125 h 2.140625 c 0.09375,0 0.25,0 0.25,-0.15625 0,-0.1875 -0.15625,-0.1875 -0.25,-0.1875 H 3.21875 V -4.0625 c 0,-0.078125 0,-0.25 -0.15625,-0.25 -0.171875,0 -0.171875,0.15625 -0.171875,0.25 v 2.140625 H 0.75 c -0.09375,0 -0.265625,0 -0.265625,0.171875 0,0.171875 0.15625,0.171875 0.265625,0.171875 H 2.890625 V 0.5625 c 0,0.09375 0,0.265625 0.15625,0.265625 0.171875,0 0.171875,-0.171875 0.171875,-0.265625 z m 0,0"
             id="id-ff0a50ac-8161-4ba7-976d-a10850492ead" />
        </g>
        <g
           transform="matrix(0.375579,0,0,0.375579,89.653176,111.125)"
           id="g1541"
           style="fill:#000000;fill-opacity:1">
          <path
             style="stroke:none;stroke-width:0"
             d="m 2.328125,-4.4375 c 0,-0.1875 0,-0.1875 -0.203125,-0.1875 -0.453125,0.4375 -1.078125,0.4375 -1.359375,0.4375 v 0.25 c 0.15625,0 0.625,0 1,-0.1875 v 3.546875 c 0,0.234375 0,0.328125 -0.6875,0.328125 H 0.8125 V 0 c 0.125,0 0.984375,-0.03125 1.234375,-0.03125 0.21875,0 1.09375,0.03125 1.25,0.03125 V -0.25 H 3.03125 c -0.703125,0 -0.703125,-0.09375 -0.703125,-0.328125 z m 0,0"
             id="id-5a224a3f-b317-4c66-9205-94a2f22e5193" />
        </g>
      </g>
      <g
         id="g2274"
         transform="translate(11.484997,-28.760452)">
        <g
           transform="matrix(0.375579,0,0,0.375579,91.332014,110.56388)"
           id="g1545"
           style="fill:#000000;fill-opacity:1">
          <path
             style="stroke:none;stroke-width:0"
             d="M 3.484375,-0.5625 C 3.59375,-0.15625 3.953125,0.109375 4.375,0.109375 4.71875,0.109375 4.953125,-0.125 5.109375,-0.4375 5.28125,-0.796875 5.40625,-1.40625 5.40625,-1.421875 c 0,-0.109375 -0.078125,-0.109375 -0.109375,-0.109375 -0.109375,0 -0.109375,0.046875 -0.140625,0.1875 -0.140625,0.5625 -0.328125,1.234375 -0.75,1.234375 -0.203125,0 -0.3125,-0.125 -0.3125,-0.453125 0,-0.21875 0.125,-0.6875 0.203125,-1.046875 L 4.578125,-2.6875 C 4.609375,-2.828125 4.703125,-3.203125 4.75,-3.359375 4.796875,-3.59375 4.890625,-3.96875 4.890625,-4.03125 c 0,-0.171875 -0.140625,-0.265625 -0.28125,-0.265625 -0.046875,0 -0.3125,0.015625 -0.390625,0.34375 -0.1875,0.734375 -0.625,2.484375 -0.75,3 -0.015625,0.046875 -0.40625,0.84375 -1.140625,0.84375 -0.515625,0 -0.609375,-0.453125 -0.609375,-0.8125 0,-0.5625 0.28125,-1.34375 0.53125,-2.03125 0.125,-0.3125 0.171875,-0.453125 0.171875,-0.640625 0,-0.4375 -0.3125,-0.8125 -0.8125,-0.8125 -0.953125,0 -1.3125,1.453125 -1.3125,1.53125 0,0.109375 0.09375,0.109375 0.109375,0.109375 0.109375,0 0.109375,-0.03125 0.15625,-0.1875 0.25,-0.859375 0.640625,-1.234375 1.015625,-1.234375 0.09375,0 0.25,0.015625 0.25,0.328125 0,0.234375 -0.109375,0.53125 -0.171875,0.671875 -0.375,1 -0.578125,1.609375 -0.578125,2.09375 0,0.953125 0.6875,1.203125 1.21875,1.203125 0.65625,0 1.015625,-0.453125 1.1875,-0.671875 z m 0,0"
             id="id-6648c733-eff6-4ee8-b978-9f3a719689de" />
        </g>
        <g
           transform="matrix(0.375579,0,0,0.375579,93.473941,111.125)"
           id="g1549"
           style="fill:#000000;fill-opacity:1">
          <path
             style="stroke:none;stroke-width:0"
             d="m 2.328125,-4.4375 c 0,-0.1875 0,-0.1875 -0.203125,-0.1875 -0.453125,0.4375 -1.078125,0.4375 -1.359375,0.4375 v 0.25 c 0.15625,0 0.625,0 1,-0.1875 v 3.546875 c 0,0.234375 0,0.328125 -0.6875,0.328125 H 0.8125 V 0 c 0.125,0 0.984375,-0.03125 1.234375,-0.03125 0.21875,0 1.09375,0.03125 1.25,0.03125 V -0.25 H 3.03125 c -0.703125,0 -0.703125,-0.09375 -0.703125,-0.328125 z m 0,0"
             id="id-6557c234-ae9b-4994-960f-84eeb4222a7b" />
        </g>
      </g>
      <g
         id="g2280"
         transform="translate(8.1031791,-18.020919)">
        <g
           transform="matrix(0.375579,0,0,0.375579,95.152404,110.56388)"
           id="g1553"
           style="fill:#000000;fill-opacity:1">
          <path
             style="stroke:none;stroke-width:0"
             d="M 3.484375,-0.5625 C 3.59375,-0.15625 3.953125,0.109375 4.375,0.109375 4.71875,0.109375 4.953125,-0.125 5.109375,-0.4375 5.28125,-0.796875 5.40625,-1.40625 5.40625,-1.421875 c 0,-0.109375 -0.078125,-0.109375 -0.109375,-0.109375 -0.109375,0 -0.109375,0.046875 -0.140625,0.1875 -0.140625,0.5625 -0.328125,1.234375 -0.75,1.234375 -0.203125,0 -0.3125,-0.125 -0.3125,-0.453125 0,-0.21875 0.125,-0.6875 0.203125,-1.046875 L 4.578125,-2.6875 C 4.609375,-2.828125 4.703125,-3.203125 4.75,-3.359375 4.796875,-3.59375 4.890625,-3.96875 4.890625,-4.03125 c 0,-0.171875 -0.140625,-0.265625 -0.28125,-0.265625 -0.046875,0 -0.3125,0.015625 -0.390625,0.34375 -0.1875,0.734375 -0.625,2.484375 -0.75,3 -0.015625,0.046875 -0.40625,0.84375 -1.140625,0.84375 -0.515625,0 -0.609375,-0.453125 -0.609375,-0.8125 0,-0.5625 0.28125,-1.34375 0.53125,-2.03125 0.125,-0.3125 0.171875,-0.453125 0.171875,-0.640625 0,-0.4375 -0.3125,-0.8125 -0.8125,-0.8125 -0.953125,0 -1.3125,1.453125 -1.3125,1.53125 0,0.109375 0.09375,0.109375 0.109375,0.109375 0.109375,0 0.109375,-0.03125 0.15625,-0.1875 0.25,-0.859375 0.640625,-1.234375 1.015625,-1.234375 0.09375,0 0.25,0.015625 0.25,0.328125 0,0.234375 -0.109375,0.53125 -0.171875,0.671875 -0.375,1 -0.578125,1.609375 -0.578125,2.09375 0,0.953125 0.6875,1.203125 1.21875,1.203125 0.65625,0 1.015625,-0.453125 1.1875,-0.671875 z m 0,0"
             id="id-b980b724-2965-4b5a-8ddf-8d58769eed70" />
        </g>
        <g
           transform="matrix(0.375579,0,0,0.375579,97.294331,111.125)"
           id="g1557"
           style="fill:#000000;fill-opacity:1">
          <path
             style="stroke:none;stroke-width:0"
             d="M 3.515625,-1.265625 H 3.28125 c -0.015625,0.15625 -0.09375,0.5625 -0.1875,0.625 C 3.046875,-0.59375 2.515625,-0.59375 2.40625,-0.59375 H 1.125 c 0.734375,-0.640625 0.984375,-0.84375 1.390625,-1.171875 0.515625,-0.40625 1,-0.84375 1,-1.5 0,-0.84375 -0.734375,-1.359375 -1.625,-1.359375 -0.859375,0 -1.453125,0.609375 -1.453125,1.25 0,0.34375 0.296875,0.390625 0.375,0.390625 0.15625,0 0.359375,-0.125 0.359375,-0.375 0,-0.125 -0.046875,-0.375 -0.40625,-0.375 C 0.984375,-4.21875 1.453125,-4.375 1.78125,-4.375 c 0.703125,0 1.0625,0.546875 1.0625,1.109375 0,0.609375 -0.4375,1.078125 -0.65625,1.328125 L 0.515625,-0.265625 C 0.4375,-0.203125 0.4375,-0.1875 0.4375,0 h 2.875 z m 0,0"
             id="id-1eab372b-f789-424c-97e2-c4713a08c496" />
        </g>
      </g>
      <g
         id="g2286"
         transform="translate(4.234458,-7.0184063)">
        <g
           transform="matrix(0.375579,0,0,0.375579,98.973169,110.56388)"
           id="g1561"
           style="fill:#000000;fill-opacity:1">
          <path
             style="stroke:none;stroke-width:0"
             d="M 3.484375,-0.5625 C 3.59375,-0.15625 3.953125,0.109375 4.375,0.109375 4.71875,0.109375 4.953125,-0.125 5.109375,-0.4375 5.28125,-0.796875 5.40625,-1.40625 5.40625,-1.421875 c 0,-0.109375 -0.078125,-0.109375 -0.109375,-0.109375 -0.109375,0 -0.109375,0.046875 -0.140625,0.1875 -0.140625,0.5625 -0.328125,1.234375 -0.75,1.234375 -0.203125,0 -0.3125,-0.125 -0.3125,-0.453125 0,-0.21875 0.125,-0.6875 0.203125,-1.046875 L 4.578125,-2.6875 C 4.609375,-2.828125 4.703125,-3.203125 4.75,-3.359375 4.796875,-3.59375 4.890625,-3.96875 4.890625,-4.03125 c 0,-0.171875 -0.140625,-0.265625 -0.28125,-0.265625 -0.046875,0 -0.3125,0.015625 -0.390625,0.34375 -0.1875,0.734375 -0.625,2.484375 -0.75,3 -0.015625,0.046875 -0.40625,0.84375 -1.140625,0.84375 -0.515625,0 -0.609375,-0.453125 -0.609375,-0.8125 0,-0.5625 0.28125,-1.34375 0.53125,-2.03125 0.125,-0.3125 0.171875,-0.453125 0.171875,-0.640625 0,-0.4375 -0.3125,-0.8125 -0.8125,-0.8125 -0.953125,0 -1.3125,1.453125 -1.3125,1.53125 0,0.109375 0.09375,0.109375 0.109375,0.109375 0.109375,0 0.109375,-0.03125 0.15625,-0.1875 0.25,-0.859375 0.640625,-1.234375 1.015625,-1.234375 0.09375,0 0.25,0.015625 0.25,0.328125 0,0.234375 -0.109375,0.53125 -0.171875,0.671875 -0.375,1 -0.578125,1.609375 -0.578125,2.09375 0,0.953125 0.6875,1.203125 1.21875,1.203125 0.65625,0 1.015625,-0.453125 1.1875,-0.671875 z m 0,0"
             id="id-752a126d-bc82-4032-b4cd-a19dcdb151cb" />
        </g>
        <g
           transform="matrix(0.375579,0,0,0.375579,101.1151,111.125)"
           id="g1565"
           style="fill:#000000;fill-opacity:1">
          <path
             style="stroke:none;stroke-width:0"
             d="M 3.984375,-4.625 C 3.984375,-4.640625 4,-4.734375 4,-4.734375 4,-4.78125 3.984375,-4.84375 3.890625,-4.84375 3.75,-4.84375 3.171875,-4.78125 3,-4.765625 c -0.046875,0 -0.15625,0.015625 -0.15625,0.15625 0,0.09375 0.109375,0.09375 0.1875,0.09375 0.328125,0 0.328125,0.0625 0.328125,0.109375 0,0.046875 0,0.09375 -0.015625,0.15625 L 2.9375,-2.65625 c -0.140625,-0.234375 -0.375,-0.421875 -0.71875,-0.421875 -0.890625,0 -1.796875,0.984375 -1.796875,1.984375 0,0.6875 0.453125,1.15625 1.0625,1.15625 0.375,0 0.703125,-0.203125 0.984375,-0.484375 C 2.59375,0 3,0.0625 3.1875,0.0625 c 0.25,0 0.421875,-0.140625 0.546875,-0.359375 0.15625,-0.28125 0.25,-0.671875 0.25,-0.703125 0,-0.09375 -0.09375,-0.09375 -0.109375,-0.09375 -0.109375,0 -0.109375,0.03125 -0.15625,0.21875 C 3.625,-0.53125 3.5,-0.125 3.203125,-0.125 3.03125,-0.125 2.96875,-0.28125 2.96875,-0.46875 c 0,-0.125 0.015625,-0.1875 0.046875,-0.28125 z M 2.5,-0.875 C 2.453125,-0.671875 2.296875,-0.53125 2.140625,-0.40625 2.078125,-0.34375 1.796875,-0.125 1.5,-0.125 c -0.265625,0 -0.515625,-0.1875 -0.515625,-0.671875 0,-0.375 0.203125,-1.140625 0.375,-1.421875 0.3125,-0.5625 0.671875,-0.65625 0.859375,-0.65625 0.484375,0 0.625,0.53125 0.625,0.609375 0,0.015625 -0.015625,0.078125 -0.015625,0.09375 z m 0,0"
             id="id-7f2f20f1-8827-47b9-9957-0b9ae01ac6bc" />
        </g>
      </g>
      <g
         transform="matrix(0.375579,0,0,0.375579,100.30774,93.727369)"
         ns10:version="1.3.1"
         ns10:texconverter="pdflatex"
         ns10:pdfconverter="inkscape"
         ns10:text="${\\vdots}$\n"
         ns10:preamble="/Users/ketiboldiais/Library/Application Support/org.inkscape.Inkscape/config/inkscape/extensions/circuitSymbols/circuitSymbolsPreamble.tex"
         ns10:scale="1.0646332334784927"
         ns10:alignment="middle center"
         ns10:jacobian_sqrt="0.375579"
         id="g1921">
        <defs
           id="id-247204f3-c4ad-4b45-8024-b3f98ff1312e">
          <g
             id="id-e7d78ce8-d34a-4ab2-b46c-093af39b043f">
            <symbol
               overflow="visible"
               id="id-17d0876c-40ab-4212-aeab-0268ec46f067">
              <path
                 style="stroke:none;stroke-width:0"
                 d=""
                 id="id-cf2d8c22-7c57-4c9f-9625-5bc219ec3ccb" />
            </symbol>
            <symbol
               overflow="visible"
               id="id-7b4aa742-bbe3-4088-a246-a8fa4b7962b3">
              <path
                 style="stroke:none;stroke-width:0"
                 d="m 1.90625,-0.53125 c 0,-0.28125 -0.234375,-0.53125 -0.515625,-0.53125 -0.296875,0 -0.53125,0.25 -0.53125,0.53125 C 0.859375,-0.234375 1.09375,0 1.390625,0 1.671875,0 1.90625,-0.234375 1.90625,-0.53125 Z m 0,0"
                 id="id-ff6d9a8f-d76b-49a1-b03c-2edff99a9572" />
            </symbol>
          </g>
        </defs>
        <g
           id="id-35d74736-edfb-4535-964a-084c569741ce"
           transform="translate(-149.571,-130.768)">
          <g
             style="fill:#000000;fill-opacity:1"
             id="id-a811b1fd-18c0-43ba-a209-38c07ba89a25">
            <g
               transform="translate(148.712,131.831)"
               id="g1909">
              <path
                 style="stroke:none;stroke-width:0"
                 d="m 1.90625,-0.53125 c 0,-0.28125 -0.234375,-0.53125 -0.515625,-0.53125 -0.296875,0 -0.53125,0.25 -0.53125,0.53125 C 0.859375,-0.234375 1.09375,0 1.390625,0 1.671875,0 1.90625,-0.234375 1.90625,-0.53125 Z m 0,0"
                 id="id-f2c643b6-bedd-4d85-a22b-432ba7a57943" />
            </g>
          </g>
          <g
             style="fill:#000000;fill-opacity:1"
             id="id-35027fc8-f8d3-47e6-932a-1b8688671eee">
            <g
               transform="translate(148.712,135.816)"
               id="g1913">
              <path
                 style="stroke:none;stroke-width:0"
                 d="m 1.90625,-0.53125 c 0,-0.28125 -0.234375,-0.53125 -0.515625,-0.53125 -0.296875,0 -0.53125,0.25 -0.53125,0.53125 C 0.859375,-0.234375 1.09375,0 1.390625,0 1.671875,0 1.90625,-0.234375 1.90625,-0.53125 Z m 0,0"
                 id="id-b5c16ab8-2fed-48c0-abd7-eb274bf8e012" />
            </g>
          </g>
          <g
             style="fill:#000000;fill-opacity:1"
             id="id-3d3e825c-2195-4167-9ed2-9ddb80036c09">
            <g
               transform="translate(148.712,139.801)"
               id="g1917">
              <path
                 style="stroke:none;stroke-width:0"
                 d="m 1.90625,-0.53125 c 0,-0.28125 -0.234375,-0.53125 -0.515625,-0.53125 -0.296875,0 -0.53125,0.25 -0.53125,0.53125 C 0.859375,-0.234375 1.09375,0 1.390625,0 1.671875,0 1.90625,-0.234375 1.90625,-0.53125 Z m 0,0"
                 id="id-79ad5072-b78a-46f3-b7af-848bf01361aa" />
            </g>
          </g>
        </g>
      </g>
    </g>
  </g>
</svg>
