<?xml version="1.0" encoding="UTF-8" standalone="no"?>
<!-- Created with Inkscape (http://www.inkscape.org/) -->

<svg
   width="64.244659mm"
   height="30.1444mm"
   viewBox="0 0 64.244659 30.1444"
   version="1.1"
   id="svg5"
   sodipodi:docname="non_simple_graph.svg"
   inkscape:version="1.1 (c4e8f9e, 2021-05-24)"
   xmlns:inkscape="http://www.inkscape.org/namespaces/inkscape"
   xmlns:sodipodi="http://sodipodi.sourceforge.net/DTD/sodipodi-0.dtd"
   xmlns="http://www.w3.org/2000/svg"
   xmlns:svg="http://www.w3.org/2000/svg">
  <sodipodi:namedview
     id="namedview7"
     pagecolor="#ffffff"
     bordercolor="#666666"
     borderopacity="1.0"
     inkscape:pageshadow="2"
     inkscape:pageopacity="0.0"
     inkscape:pagecheckerboard="0"
     inkscape:document-units="mm"
     showgrid="false"
     inkscape:snap-global="true"
     inkscape:zoom="2.2271324"
     inkscape:cx="137.62092"
     inkscape:cy="37.492159"
     inkscape:window-width="1312"
     inkscape:window-height="847"
     inkscape:window-x="2101"
     inkscape:window-y="72"
     inkscape:window-maximized="0"
     inkscape:current-layer="layer1">
    <inkscape:grid
       type="xygrid"
       id="grid824"
       originx="-64.429996"
       originy="-104.16016" />
  </sodipodi:namedview>
  <defs
     id="defs2">
    <marker
       style="overflow:visible"
       id="DotL"
       refX="0"
       refY="0"
       orient="auto"
       inkscape:stockid="DotL"
       inkscape:isstock="true">
      <path
         transform="matrix(0.8,0,0,0.8,5.92,0.8)"
         style="fill:context-stroke;fill-rule:evenodd;stroke:context-stroke;stroke-width:1pt"
         d="m -2.5,-1 c 0,2.76 -2.24,5 -5,5 -2.76,0 -5,-2.24 -5,-5 0,-2.76 2.24,-5 5,-5 2.76,0 5,2.24 5,5 z"
         id="path1197" />
    </marker>
    <defs
       id="id-e172b60b-740f-43d4-a5e0-80f59bb17f9f">
      <g
         id="id-366d4165-c2f4-4dc4-a642-273c6f17e701">
        <symbol
           overflow="visible"
           id="id-b4725b97-e562-44d2-8e1c-7f0827eab34b">
          <path
             style="stroke:none;stroke-width:0"
             d=""
             id="id-39dd95fb-597c-4da0-9e92-91950e02b036" />
        </symbol>
        <symbol
           overflow="visible"
           id="id-f65879a5-3f08-44d4-adef-a23b746a36aa">
          <path
             style="stroke:none;stroke-width:0"
             d="m 5.90625,-0.625 c 0.140625,0.21875 0.53125,0.609375 0.640625,0.609375 0.09375,0 0.09375,-0.078125 0.09375,-0.21875 V -1.96875 c 0,-0.390625 0.03125,-0.4375 0.6875,-0.4375 v -0.3125 c -0.375,0 -0.921875,0.03125 -1.21875,0.03125 -0.390625,0 -1.25,0 -1.609375,-0.03125 v 0.3125 H 4.828125 C 5.71875,-2.40625 5.75,-2.296875 5.75,-1.9375 v 0.640625 c 0,1.125 -1.265625,1.203125 -1.546875,1.203125 -0.640625,0 -2.625,-0.34375 -2.625,-3.3125 0,-2.984375 1.96875,-3.3125 2.5625,-3.3125 1.078125,0 1.984375,0.890625 2.171875,2.359375 0.03125,0.140625 0.03125,0.171875 0.171875,0.171875 0.15625,0 0.15625,-0.03125 0.15625,-0.234375 V -6.78125 c 0,-0.171875 0,-0.25 -0.109375,-0.25 -0.046875,0 -0.078125,0 -0.15625,0.125 l -0.5,0.734375 C 5.546875,-6.484375 5.015625,-7.03125 4.03125,-7.03125 c -1.859375,0 -3.46875,1.578125 -3.46875,3.625 0,2.046875 1.59375,3.625 3.484375,3.625 0.734375,0 1.53125,-0.265625 1.859375,-0.84375 z m 0,0"
             id="id-a436920f-8c5d-4106-8738-2adaba60fa43" />
        </symbol>
        <symbol
           overflow="visible"
           id="id-da7108dc-4039-4db7-93b8-12f75bd4ee01">
          <path
             style="stroke:none;stroke-width:0"
             d="M 1.671875,-3.3125 V -4.40625 L 0.28125,-4.296875 v 0.3125 c 0.703125,0 0.78125,0.0625 0.78125,0.5625 V -0.75 c 0,0.4375 -0.109375,0.4375 -0.78125,0.4375 V 0 c 0.390625,-0.015625 0.859375,-0.03125 1.140625,-0.03125 0.390625,0 0.859375,0 1.265625,0.03125 V -0.3125 H 2.46875 c -0.734375,0 -0.75,-0.109375 -0.75,-0.46875 V -2.3125 c 0,-0.984375 0.421875,-1.875 1.171875,-1.875 0.0625,0 0.09375,0 0.109375,0.015625 -0.03125,0 -0.234375,0.125 -0.234375,0.390625 0,0.265625 0.21875,0.421875 0.4375,0.421875 0.171875,0 0.421875,-0.125 0.421875,-0.4375 0,-0.3125 -0.3125,-0.609375 -0.734375,-0.609375 -0.734375,0 -1.09375,0.671875 -1.21875,1.09375 z m 0,0"
             id="id-511495c8-e0ae-4625-9784-781597ebe57a" />
        </symbol>
        <symbol
           overflow="visible"
           id="id-1d5497b7-2c06-43c6-9cca-a09ab752e8a0">
          <path
             style="stroke:none;stroke-width:0"
             d="m 3.3125,-0.75 c 0.046875,0.390625 0.3125,0.8125 0.78125,0.8125 0.21875,0 0.828125,-0.140625 0.828125,-0.953125 v -0.5625 h -0.25 v 0.5625 c 0,0.578125 -0.25,0.640625 -0.359375,0.640625 -0.328125,0 -0.375,-0.453125 -0.375,-0.5 v -1.984375 c 0,-0.421875 0,-0.8125 -0.359375,-1.1875 C 3.1875,-4.3125 2.6875,-4.46875 2.21875,-4.46875 c -0.828125,0 -1.515625,0.46875 -1.515625,1.125 0,0.296875 0.203125,0.46875 0.46875,0.46875 0.28125,0 0.453125,-0.203125 0.453125,-0.453125 0,-0.125 -0.046875,-0.453125 -0.515625,-0.453125 C 1.390625,-4.140625 1.875,-4.25 2.1875,-4.25 c 0.5,0 1.0625,0.390625 1.0625,1.28125 v 0.359375 c -0.515625,0.03125 -1.203125,0.0625 -1.828125,0.359375 -0.75,0.34375 -1,0.859375 -1,1.296875 0,0.8125 0.96875,1.0625 1.59375,1.0625 0.65625,0 1.109375,-0.40625 1.296875,-0.859375 z M 3.25,-2.390625 v 1 c 0,0.9375 -0.71875,1.28125 -1.171875,1.28125 -0.484375,0 -0.890625,-0.34375 -0.890625,-0.84375 0,-0.546875 0.421875,-1.375 2.0625,-1.4375 z m 0,0"
             id="id-12ce37b7-a300-4ef0-bf8c-a9c15dc90dc8" />
        </symbol>
        <symbol
           overflow="visible"
           id="id-4e102a40-b1ea-46b8-ac7b-e2998182a351">
          <path
             style="stroke:none;stroke-width:0"
             d="m 1.71875,-3.75 v -0.65625 l -1.4375,0.109375 v 0.3125 c 0.703125,0 0.78125,0.0625 0.78125,0.5 v 4.65625 C 1.0625,1.625 0.953125,1.625 0.28125,1.625 V 1.9375 C 0.625,1.921875 1.140625,1.90625 1.390625,1.90625 c 0.28125,0 0.78125,0.015625 1.125,0.03125 V 1.625 C 1.859375,1.625 1.75,1.625 1.75,1.171875 V -0.59375 c 0.046875,0.171875 0.46875,0.703125 1.21875,0.703125 1.1875,0 2.21875,-0.984375 2.21875,-2.265625 0,-1.265625 -0.953125,-2.25 -2.078125,-2.25 -0.78125,0 -1.203125,0.4375 -1.390625,0.65625 z M 1.75,-1.140625 v -2.21875 C 2.03125,-3.875 2.515625,-4.15625 3.03125,-4.15625 c 0.734375,0 1.328125,0.875 1.328125,2 0,1.203125 -0.6875,2.046875 -1.421875,2.046875 -0.40625,0 -0.78125,-0.203125 -1.046875,-0.609375 C 1.75,-0.921875 1.75,-0.9375 1.75,-1.140625 Z m 0,0"
             id="id-d19348bd-0f55-4b23-835b-f98ff18e4bf6" />
        </symbol>
        <symbol
           overflow="visible"
           id="id-00b51dbc-db32-45cf-bf67-7ad10ac78789">
          <path
             style="stroke:none;stroke-width:0"
             d="m 1.09375,-0.75 c 0,0.4375 -0.109375,0.4375 -0.78125,0.4375 V 0 c 0.359375,-0.015625 0.859375,-0.03125 1.140625,-0.03125 0.25,0 0.765625,0.015625 1.109375,0.03125 v -0.3125 c -0.671875,0 -0.78125,0 -0.78125,-0.4375 V -2.59375 C 1.78125,-3.625 2.5,-4.1875 3.125,-4.1875 c 0.640625,0 0.75,0.53125 0.75,1.109375 V -0.75 c 0,0.4375 -0.109375,0.4375 -0.78125,0.4375 V 0 c 0.34375,-0.015625 0.859375,-0.03125 1.125,-0.03125 0.25,0 0.78125,0.015625 1.109375,0.03125 v -0.3125 c -0.515625,0 -0.765625,0 -0.765625,-0.296875 v -1.90625 c 0,-0.859375 0,-1.15625 -0.3125,-1.515625 -0.140625,-0.171875 -0.46875,-0.375 -1.046875,-0.375 -0.84375,0 -1.28125,0.59375 -1.453125,0.984375 v -3.5 L 0.3125,-6.8125 V -6.5 c 0.703125,0 0.78125,0.0625 0.78125,0.5625 z m 0,0"
             id="id-6f4e4a54-722c-4ff3-9f6e-038243fcd520" />
        </symbol>
        <symbol
           overflow="visible"
           id="id-9eb43b4c-fd08-4658-9d3b-be4d1c873a19">
          <path
             style="stroke:none;stroke-width:0"
             d=""
             id="id-9d13731f-75d6-4e2c-b0d5-f1b4aa6005cb" />
        </symbol>
        <symbol
           overflow="visible"
           id="id-a5965e48-981e-4236-914e-99999d4d119b">
          <path
             style="stroke:none;stroke-width:0"
             d="M 1.78125,-1.140625 C 1.390625,-0.484375 1,-0.34375 0.5625,-0.3125 0.4375,-0.296875 0.34375,-0.296875 0.34375,-0.109375 0.34375,-0.046875 0.40625,0 0.484375,0 0.75,0 1.0625,-0.03125 1.328125,-0.03125 c 0.34375,0 0.6875,0.03125 1,0.03125 0.0625,0 0.1875,0 0.1875,-0.1875 0,-0.109375 -0.078125,-0.125 -0.15625,-0.125 -0.21875,-0.015625 -0.46875,-0.09375 -0.46875,-0.34375 0,-0.125 0.0625,-0.234375 0.140625,-0.375 l 0.765625,-1.265625 h 2.5 c 0.015625,0.203125 0.15625,1.5625 0.15625,1.65625 0,0.296875 -0.515625,0.328125 -0.71875,0.328125 C 4.59375,-0.3125 4.5,-0.3125 4.5,-0.109375 4.5,0 4.609375,0 4.640625,0 5.046875,0 5.46875,-0.03125 5.875,-0.03125 6.125,-0.03125 6.765625,0 7.015625,0 7.0625,0 7.1875,0 7.1875,-0.203125 7.1875,-0.3125 7.09375,-0.3125 6.953125,-0.3125 6.34375,-0.3125 6.34375,-0.375 6.3125,-0.671875 l -0.609375,-6.21875 c -0.015625,-0.203125 -0.015625,-0.25 -0.1875,-0.25 -0.15625,0 -0.203125,0.078125 -0.265625,0.171875 z M 2.984375,-2.609375 4.9375,-5.90625 5.265625,-2.609375 Z m 0,0"
             id="id-d474c956-44bf-41e1-9ca2-57fc80d36a81" />
        </symbol>
        <symbol
           overflow="visible"
           id="id-9588bd1d-4fa7-4823-8c42-4739737bd6a9">
          <path
             style="stroke:none;stroke-width:0"
             d="M 1.59375,-0.78125 C 1.5,-0.390625 1.46875,-0.3125 0.6875,-0.3125 c -0.171875,0 -0.265625,0 -0.265625,0.203125 C 0.421875,0 0.515625,0 0.6875,0 H 4.25 C 5.828125,0 7,-1.171875 7,-2.15625 7,-2.875 6.421875,-3.453125 5.453125,-3.5625 6.484375,-3.75 7.53125,-4.484375 7.53125,-5.4375 c 0,-0.734375 -0.65625,-1.375 -1.84375,-1.375 H 2.328125 c -0.1875,0 -0.28125,0 -0.28125,0.203125 0,0.109375 0.09375,0.109375 0.28125,0.109375 0.015625,0 0.203125,0 0.375,0.015625 0.171875,0.03125 0.265625,0.03125 0.265625,0.171875 0,0.03125 -0.015625,0.0625 -0.03125,0.1875 z m 1.5,-2.875 0.625,-2.46875 C 3.8125,-6.46875 3.828125,-6.5 4.25,-6.5 h 1.296875 c 0.875,0 1.078125,0.59375 1.078125,1.03125 0,0.875 -0.859375,1.8125 -2.0625,1.8125 z m -0.4375,3.34375 c -0.140625,0 -0.15625,0 -0.21875,0 -0.109375,-0.015625 -0.140625,-0.03125 -0.140625,-0.109375 0,-0.03125 0,-0.046875 0.0625,-0.21875 l 0.6875,-2.78125 h 1.875 c 0.953125,0 1.15625,0.734375 1.15625,1.15625 C 6.078125,-1.28125 5.1875,-0.3125 4,-0.3125 Z m 0,0"
             id="id-ff46ed97-76b9-421c-b3ef-897b00b696b5" />
        </symbol>
      </g>
    </defs>
  </defs>
  <g
     inkscape:label="Layer 1"
     inkscape:groupmode="layer"
     id="layer1"
     transform="translate(-64.430002,-104.16016)">
    <g
       id="g2243">
      <path
         style="font-variation-settings:normal;opacity:1;fill:none;fill-opacity:1;fill-rule:evenodd;stroke:#364e59;stroke-width:0.365;stroke-linecap:butt;stroke-linejoin:miter;stroke-miterlimit:4;stroke-dasharray:none;stroke-dashoffset:0;stroke-opacity:1;stop-color:#000000;stop-opacity:1"
         id="path1989"
         sodipodi:type="arc"
         sodipodi:cx="67.258316"
         sodipodi:cy="123.68465"
         sodipodi:rx="2.6458333"
         sodipodi:ry="2.6458333"
         sodipodi:start="6.0350282"
         sodipodi:end="4.7269931"
         sodipodi:arc-type="arc"
         sodipodi:open="true"
         d="m 69.823099,123.03478 a 2.6458333,2.6458333 0 0 1 -1.125518,2.86999 2.6458333,2.6458333 0 0 1 -3.07943,-0.144 2.6458333,2.6458333 0 0 1 -0.85278,-2.9625 2.6458333,2.6458333 0 0 1 2.531584,-1.75917" />
      <g
         id="g2207">
        <path
           style="color:#000000;fill:#364e59;-inkscape-stroke:none"
           d="m 110.94336,105.65039 v 0.18359 16.05665 h 16.23828 v -16.24024 z m 0.36328,0.36524 h 15.51172 v 15.50976 h -15.51172 z"
           id="path1458" />
        <path
           style="color:#000000;fill:#d76cff;fill-rule:evenodd;stroke-width:0.292pt;-inkscape-stroke:none"
           d="m 111.125,104.40253 c 0.80592,0 1.46,0.65408 1.46,1.46 0,0.80592 -0.65408,1.46 -1.46,1.46 -0.80592,0 -1.46,-0.65408 -1.46,-1.46 0,-0.80592 0.65408,-1.46 1.46,-1.46 z"
           id="path1452" />
        <path
           style="color:#000000;fill:#d76cff;fill-rule:evenodd;-inkscape-stroke:none"
           d="m 111.125,104.20703 c -0.91125,0 -1.6543,0.74501 -1.6543,1.65625 0,0.91125 0.74305,1.6543 1.6543,1.6543 0.91125,0 1.6543,-0.74305 1.6543,-1.6543 0,-0.91124 -0.74305,-1.65625 -1.6543,-1.65625 z m 0,0.39063 c 0.70059,0 1.26562,0.56503 1.26563,1.26562 0,0.70059 -0.56504,1.26367 -1.26563,1.26367 -0.70059,0 -1.26562,-0.56308 -1.26562,-1.26367 0,-0.70059 0.56503,-1.26562 1.26562,-1.26562 z"
           id="path1454" />
        <path
           style="color:#000000;fill:#d76cff;fill-rule:evenodd;stroke-width:0.292pt;-inkscape-stroke:none"
           d="m 110.11327,120.6966 c 0.56987,-0.56987 1.49488,-0.56987 2.06475,0 0.56987,0.56987 0.56987,1.49488 0,2.06475 -0.56987,0.56987 -1.49488,0.56987 -2.06475,0 -0.56987,-0.56987 -0.56987,-1.49488 0,-2.06475 z"
           id="path1442" />
        <path
           style="color:#000000;fill:#364e59;fill-rule:evenodd;-inkscape-stroke:none"
           d="m 111.14648,120.07617 c -0.42392,0 -0.84774,0.16025 -1.16992,0.48242 -0.64434,0.64435 -0.64434,1.6955 0,2.33985 0.64435,0.64434 1.6955,0.64434 2.33985,0 0.64434,-0.64435 0.64434,-1.6955 0,-2.33985 -0.32218,-0.32217 -0.746,-0.48242 -1.16993,-0.48242 z m 0,0.38672 c 0.32352,0 0.64684,0.1234 0.89454,0.37109 0.49539,0.4954 0.49539,1.29368 0,1.78907 -0.4954,0.49539 -1.29563,0.49539 -1.79102,0 -0.49539,-0.49539 -0.49539,-1.29367 0,-1.78907 0.2477,-0.24769 0.57297,-0.37109 0.89648,-0.37109 z"
           id="path1444" />
        <path
           style="color:#000000;fill:#d76cff;fill-rule:evenodd;stroke-width:0.292pt;-inkscape-stroke:none"
           d="m 125.98827,122.72006 c -0.56987,-0.56987 -0.56987,-1.49488 0,-2.06475 0.56987,-0.56987 1.49488,-0.56987 2.06475,0 0.56987,0.56987 0.56987,1.49488 0,2.06475 -0.56987,0.56987 -1.49488,0.56987 -2.06475,0 z"
           id="path1432" />
        <path
           style="color:#000000;fill:#364e59;fill-rule:evenodd;-inkscape-stroke:none"
           d="m 127.02148,120.03516 c -0.42392,0 -0.84774,0.16024 -1.16992,0.48242 -0.64434,0.64435 -0.64434,1.69549 0,2.33984 0.64435,0.64435 1.6955,0.64435 2.33985,0 0.64434,-0.64435 0.64434,-1.69549 0,-2.33984 -0.32218,-0.32218 -0.746,-0.48242 -1.16993,-0.48242 z m 0,0.38672 c 0.32352,0 0.64684,0.12339 0.89454,0.37109 0.49539,0.49539 0.49539,1.29367 0,1.78906 -0.4954,0.49539 -1.29563,0.49539 -1.79102,0 -0.49539,-0.49539 -0.49539,-1.29367 0,-1.78906 0.2477,-0.2477 0.57297,-0.37109 0.89648,-0.37109 z"
           id="path1434" />
        <path
           style="color:#000000;fill:#d76cff;fill-rule:evenodd;stroke-width:0.292pt;-inkscape-stroke:none"
           d="m 128.01173,106.84506 c -0.56987,0.56987 -1.49488,0.56987 -2.06475,0 -0.56987,-0.56987 -0.56987,-1.49488 0,-2.06475 0.56987,-0.56987 1.49488,-0.56987 2.06475,0 0.56987,0.56987 0.56987,1.49488 0,2.06475 z"
           id="path1422" />
        <path
           style="color:#000000;fill:#364e59;fill-rule:evenodd;-inkscape-stroke:none"
           d="m 126.97852,104.16016 c -0.42393,0 -0.84775,0.16024 -1.16993,0.48242 -0.64434,0.64435 -0.64434,1.69549 0,2.33984 0.64435,0.64435 1.6955,0.64435 2.33985,0 0.64434,-0.64435 0.64434,-1.69549 0,-2.33984 -0.32218,-0.32218 -0.746,-0.48242 -1.16992,-0.48242 z m 0,0.38672 c 0.32351,0 0.64878,0.12339 0.89648,0.37109 0.49539,0.49539 0.49539,1.29367 0,1.78906 -0.49539,0.49539 -1.29562,0.49539 -1.79102,0 -0.49539,-0.49539 -0.49539,-1.29367 0,-1.78906 0.2477,-0.2477 0.57102,-0.37109 0.89454,-0.37109 z"
           id="path1424" />
        <path
           style="color:#000000;fill:#d76cff;fill-rule:evenodd;stroke-width:0.292pt;-inkscape-stroke:none"
           d="m 112.5558,105.83333 c 0,0.80592 -0.65408,1.46 -1.46,1.46 -0.80592,0 -1.46,-0.65408 -1.46,-1.46 0,-0.80592 0.65408,-1.46 1.46,-1.46 0.80592,0 1.46,0.65408 1.46,1.46 z"
           id="path1412" />
        <path
           style="color:#000000;fill:#364e59;fill-rule:evenodd;-inkscape-stroke:none"
           d="m 111.0957,104.17773 c -0.91124,0 -1.65429,0.74501 -1.65429,1.65625 0,0.91125 0.74305,1.6543 1.65429,1.6543 0.91125,0 1.6543,-0.74305 1.6543,-1.6543 0,-0.91124 -0.74305,-1.65625 -1.6543,-1.65625 z m 0,0.39063 c 0.7006,0 1.26563,0.56503 1.26563,1.26562 0,0.7006 -0.56503,1.26563 -1.26563,1.26563 -0.70059,0 -1.26562,-0.56503 -1.26562,-1.26563 0,-0.70059 0.56503,-1.26562 1.26562,-1.26562 z"
           id="path1414" />
        <path
           style="color:#000000;fill:#364e59;-inkscape-stroke:none"
           d="m 79.375,105.50391 -10.734375,16.10351 0.302734,0.20117 10.431641,-15.64648 10.431641,15.64648 0.302734,-0.20117 z"
           id="path1496" />
        <path
           style="color:#000000;fill:#d76cff;fill-rule:evenodd;stroke-width:0.292pt;-inkscape-stroke:none"
           d="m 90.751998,122.89883 c -0.670566,0.44704 -1.577612,0.26563 -2.024656,-0.40493 -0.447044,-0.67057 -0.265635,-1.57762 0.404931,-2.02466 0.670566,-0.44704 1.577612,-0.26563 2.024656,0.40493 0.447044,0.67057 0.265635,1.57761 -0.404931,2.02466 z"
           id="path1490" />
        <path
           style="color:#000000;fill:#364e59;fill-rule:evenodd;-inkscape-stroke:none"
           d="m 90.265625,120.0625 c -0.415693,-0.0831 -0.863086,-0.009 -1.242188,0.24414 -0.758203,0.50547 -0.964452,1.53672 -0.458984,2.29492 0.505469,0.7582 1.536719,0.96445 2.294922,0.45899 0.758201,-0.50548 0.964452,-1.53672 0.458984,-2.29492 -0.252734,-0.3791 -0.637041,-0.61999 -1.052734,-0.70313 z m -0.07422,0.37891 c 0.317232,0.0634 0.608425,0.24955 0.802735,0.54101 0.388619,0.58293 0.23332,1.36528 -0.34961,1.75391 -0.582928,0.38861 -1.367241,0.23331 -1.755859,-0.34961 -0.388619,-0.58293 -0.231364,-1.36725 0.351562,-1.75586 0.291464,-0.19431 0.63394,-0.2529 0.951172,-0.18945 z"
           id="path1492" />
        <path
           style="color:#000000;fill:#d76cff;fill-rule:evenodd;stroke-width:0.292pt;-inkscape-stroke:none"
           d="m 80.805799,105.83333 c 0,0.80592 -0.65408,1.46 -1.46,1.46 -0.80592,0 -1.46,-0.65408 -1.46,-1.46 0,-0.80592 0.65408,-1.46 1.46,-1.46 0.80592,0 1.46,0.65408 1.46,1.46 z"
           id="path1480" />
        <path
           style="color:#000000;fill:#364e59;fill-rule:evenodd;-inkscape-stroke:none"
           d="m 79.345703,104.17773 c -0.911246,0 -1.654297,0.74501 -1.654297,1.65625 0,0.91125 0.743051,1.6543 1.654297,1.6543 0.911246,0 1.654297,-0.74305 1.654297,-1.6543 0,-0.91124 -0.743051,-1.65625 -1.654297,-1.65625 z m 0,0.39063 c 0.700593,0 1.265625,0.56503 1.265625,1.26562 0,0.7006 -0.565032,1.26563 -1.265625,1.26563 -0.700592,0 -1.265625,-0.56503 -1.265625,-1.26563 0,-0.70059 0.565033,-1.26562 1.265625,-1.26562 z"
           id="path1482" />
        <path
           style="color:#000000;fill:#d76cff;fill-rule:evenodd;stroke-width:0.292pt;-inkscape-stroke:none"
           d="m 69.585331,120.51783 c 0.670566,0.44705 0.851975,1.35409 0.404931,2.02466 -0.447044,0.67056 -1.35409,0.85197 -2.024656,0.40493 -0.670566,-0.44704 -0.851975,-1.35409 -0.404931,-2.02466 0.447044,-0.67056 1.35409,-0.85197 2.024656,-0.40493 z"
           id="path1470" />
        <path
           style="color:#000000;fill:#364e59;fill-rule:evenodd;-inkscape-stroke:none"
           d="m 68.451172,120.11133 c -0.415693,0.0831 -0.8,0.32402 -1.052735,0.70312 -0.505467,0.75821 -0.299219,1.78946 0.458985,2.29493 0.758203,0.50546 1.789453,0.29921 2.294922,-0.45899 0.505467,-0.7582 0.299216,-1.78945 -0.458985,-2.29492 -0.379101,-0.25273 -0.826494,-0.32728 -1.242187,-0.24414 z m 0.07617,0.3789 c 0.317232,-0.0634 0.657755,-0.005 0.949218,0.18946 0.582931,0.38862 0.740183,1.17097 0.351563,1.7539 -0.388618,0.58293 -1.170978,0.74018 -1.753906,0.35157 -0.582927,-0.38862 -0.740182,-1.17098 -0.351563,-1.75391 0.194309,-0.29146 0.487456,-0.47757 0.804688,-0.54102 z"
           id="path1472" />
        <path
           style="fill:#000000;fill-opacity:1;stroke:none;stroke-width:0"
           d="m 72.936753,133.34211 c 0.05282,0.0822 0.199527,0.22887 0.240606,0.22887 0.03521,0 0.03521,-0.0293 0.03521,-0.0822 v -0.65139 c 0,-0.14671 0.01174,-0.16432 0.258211,-0.16432 v -0.11737 c -0.140842,0 -0.346237,0.0117 -0.457737,0.0117 -0.146711,0 -0.469474,0 -0.604447,-0.0117 v 0.11737 h 0.123236 c 0.3345,0 0.346237,0.0411 0.346237,0.17606 v 0.2406 c 0,0.42253 -0.475342,0.45187 -0.580974,0.45187 -0.240605,0 -0.985894,-0.12911 -0.985894,-1.24411 0,-1.12086 0.739421,-1.2441 0.962421,-1.2441 0.404921,0 0.745289,0.3345 0.81571,0.88613 0.01174,0.0528 0.01174,0.0645 0.06455,0.0645 0.05868,0 0.05868,-0.0117 0.05868,-0.088 v -0.88614 c 0,-0.0646 0,-0.0939 -0.04108,-0.0939 -0.01761,0 -0.02934,0 -0.05868,0.047 l -0.187789,0.27581 c -0.123237,-0.11737 -0.322764,-0.32276 -0.692474,-0.32276 -0.698342,0 -1.30279,0.59271 -1.30279,1.36147 0,0.76877 0.598579,1.36148 1.308658,1.36148 0.275816,0 0.575106,-0.0998 0.698342,-0.3169 z m 0,0"
           id="id-e597f0c3-844e-4307-8392-49e5bb698c30" />
        <path
           style="fill:#000000;fill-opacity:1;stroke:none;stroke-width:0"
           d="m 74.282688,132.33274 v -0.41078 l -0.522289,0.0411 v 0.11737 c 0.264079,0 0.293421,0.0235 0.293421,0.21127 v 1.0035 c 0,0.16431 -0.04108,0.16431 -0.293421,0.16431 v 0.11737 c 0.14671,-0.006 0.322763,-0.0117 0.428394,-0.0117 0.146711,0 0.322764,0 0.475343,0.0117 v -0.11737 h -0.08216 c -0.275816,0 -0.281685,-0.0411 -0.281685,-0.17605 v -0.57511 c 0,-0.36971 0.158448,-0.70421 0.440132,-0.70421 0.02347,0 0.03521,0 0.04108,0.006 -0.01174,0 -0.08803,0.0469 -0.08803,0.14671 0,0.0998 0.08216,0.15845 0.164315,0.15845 0.06455,0 0.158448,-0.047 0.158448,-0.16432 0,-0.11736 -0.117369,-0.22886 -0.275816,-0.22886 -0.275816,0 -0.410789,0.25234 -0.457737,0.41078 z m 0,0"
           id="id-d8808f66-04a0-48e8-8526-c62c05e3e250" />
        <path
           style="fill:#000000;fill-opacity:1;stroke:none;stroke-width:0"
           d="m 76.364381,133.29517 c 0.01761,0.14671 0.117369,0.30515 0.293422,0.30515 0.08216,0 0.311026,-0.0528 0.311026,-0.35797 v -0.21126 h -0.0939 v 0.21126 c 0,0.21713 -0.09389,0.24061 -0.134974,0.24061 -0.123236,0 -0.140842,-0.17019 -0.140842,-0.18779 v -0.74529 c 0,-0.15845 0,-0.30516 -0.134973,-0.446 -0.146711,-0.14671 -0.3345,-0.2054 -0.510553,-0.2054 -0.311026,0 -0.569237,0.17605 -0.569237,0.42253 0,0.1115 0.07629,0.17605 0.176053,0.17605 0.105631,0 0.170184,-0.0763 0.170184,-0.17018 0,-0.0469 -0.01761,-0.17019 -0.193658,-0.17019 0.105632,-0.13497 0.287553,-0.17605 0.404921,-0.17605 0.18779,0 0.399053,0.14671 0.399053,0.48121 v 0.13497 c -0.193658,0.0117 -0.451869,0.0235 -0.686606,0.13498 -0.281684,0.1291 -0.375579,0.32276 -0.375579,0.48708 0,0.30515 0.363843,0.39905 0.598579,0.39905 0.246474,0 0.416658,-0.15258 0.487079,-0.32276 z m -0.02347,-0.61619 v 0.37558 c 0,0.35211 -0.269948,0.48121 -0.440132,0.48121 -0.181921,0 -0.3345,-0.1291 -0.3345,-0.31689 0,-0.2054 0.158447,-0.51642 0.774632,-0.5399 z m 0,0"
           id="id-e3451770-65c9-4d54-be28-659cecb1934b" />
        <path
           style="fill:#000000;fill-opacity:1;stroke:none;stroke-width:0"
           d="m 77.636561,132.16843 v -0.24647 l -0.539894,0.0411 v 0.11737 c 0.264079,0 0.293421,0.0235 0.293421,0.18779 v 1.74879 c 0,0.17019 -0.04108,0.17019 -0.293421,0.17019 v 0.11736 c 0.129105,-0.006 0.322763,-0.0117 0.416658,-0.0117 0.105631,0 0.293421,0.006 0.422526,0.0117 v -0.11736 c -0.246474,0 -0.287553,0 -0.287553,-0.17019 v -0.66313 c 0.01761,0.0645 0.176053,0.26408 0.457737,0.26408 0.446,0 0.833316,-0.36971 0.833316,-0.85092 0,-0.47534 -0.357974,-0.84505 -0.7805,-0.84505 -0.293421,0 -0.451869,0.16431 -0.52229,0.24647 z m 0.01174,0.98003 v -0.83332 c 0.105632,-0.19366 0.287553,-0.29929 0.481211,-0.29929 0.275816,0 0.498816,0.32863 0.498816,0.75116 0,0.45187 -0.258211,0.76876 -0.534027,0.76876 -0.152579,0 -0.293421,-0.0763 -0.393184,-0.22887 -0.05282,-0.0763 -0.05282,-0.0822 -0.05282,-0.15844 z m 0,0"
           id="id-b694578e-1fe5-485f-bf1e-90e985835e94" />
        <path
           style="fill:#000000;fill-opacity:1;stroke:none;stroke-width:0"
           d="m 79.48103,133.29517 c 0,0.16431 -0.04108,0.16431 -0.293422,0.16431 v 0.11737 c 0.134974,-0.006 0.322764,-0.0117 0.428395,-0.0117 0.09389,0 0.287553,0.006 0.416658,0.0117 v -0.11737 c -0.252342,0 -0.293421,0 -0.293421,-0.16431 v -0.69248 c 0,-0.38731 0.269947,-0.59858 0.504684,-0.59858 0.240606,0 0.281685,0.19953 0.281685,0.41666 v 0.8744 c 0,0.16431 -0.04108,0.16431 -0.293421,0.16431 v 0.11737 c 0.129105,-0.006 0.322763,-0.0117 0.422526,-0.0117 0.0939,0 0.293421,0.006 0.416658,0.0117 v -0.11737 c -0.193658,0 -0.287553,0 -0.287553,-0.1115 v -0.71595 c 0,-0.32276 0,-0.43426 -0.117368,-0.56923 -0.05282,-0.0646 -0.176053,-0.14084 -0.393185,-0.14084 -0.316894,0 -0.48121,0.223 -0.545763,0.36971 v -1.31453 l -0.539895,0.0411 v 0.11737 c 0.264079,0 0.293422,0.0235 0.293422,0.21126 z m 0,0"
           id="id-a10378ee-e93e-43ed-a473-39024a97b6e5" />
        <path
           style="fill:#000000;fill-opacity:1;stroke:none;stroke-width:0"
           d="m 83.064993,133.14846 c -0.14671,0.24647 -0.293421,0.29928 -0.457737,0.31102 -0.04695,0.006 -0.08216,0.006 -0.08216,0.0763 0,0.0235 0.02347,0.0411 0.05282,0.0411 0.09976,0 0.217132,-0.0117 0.316895,-0.0117 0.129105,0 0.25821,0.0117 0.375579,0.0117 0.02347,0 0.07042,0 0.07042,-0.0704 0,-0.0411 -0.02934,-0.0469 -0.05868,-0.0469 -0.08216,-0.006 -0.176053,-0.0352 -0.176053,-0.1291 0,-0.0469 0.02347,-0.088 0.05282,-0.14085 l 0.287553,-0.47534 h 0.938947 c 0.0059,0.0763 0.05868,0.58684 0.05868,0.62205 0,0.1115 -0.193658,0.12324 -0.269947,0.12324 -0.05282,0 -0.08803,0 -0.08803,0.0763 0,0.0411 0.04108,0.0411 0.05281,0.0411 0.152579,0 0.311027,-0.0117 0.463606,-0.0117 0.09389,0 0.3345,0.0117 0.428394,0.0117 0.01761,0 0.06455,0 0.06455,-0.0763 0,-0.0411 -0.03521,-0.0411 -0.08803,-0.0411 -0.228869,0 -0.228869,-0.0235 -0.240606,-0.13497 l -0.228868,-2.33563 c -0.0059,-0.0763 -0.0059,-0.0939 -0.07042,-0.0939 -0.05868,0 -0.07629,0.0293 -0.09976,0.0645 z m 0.451869,-0.55164 0.733552,-1.23823 0.123237,1.23823 z m 0,0"
           id="id-e5be036e-b6a0-4ade-a885-250ad92c9b79" />
        <path
           style="fill:#000000;fill-opacity:1;stroke:none;stroke-width:0"
           d="m 113.91762,133.32157 c 0.0528,0.0822 0.19953,0.22887 0.24061,0.22887 0.0352,0 0.0352,-0.0293 0.0352,-0.0822 v -0.65139 c 0,-0.14671 0.0117,-0.16432 0.25821,-0.16432 v -0.11737 c -0.14084,0 -0.34624,0.0117 -0.45774,0.0117 -0.14671,0 -0.46947,0 -0.60444,-0.0117 v 0.11737 h 0.12323 c 0.3345,0 0.34624,0.0411 0.34624,0.17606 v 0.2406 c 0,0.42253 -0.47534,0.45187 -0.58097,0.45187 -0.24061,0 -0.9859,-0.12911 -0.9859,-1.24411 0,-1.12086 0.73942,-1.2441 0.96242,-1.2441 0.40492,0 0.74529,0.3345 0.81571,0.88613 0.0117,0.0528 0.0117,0.0645 0.0646,0.0645 0.0587,0 0.0587,-0.0117 0.0587,-0.088 v -0.88614 c 0,-0.0645 0,-0.0939 -0.0411,-0.0939 -0.0176,0 -0.0293,0 -0.0587,0.047 l -0.18779,0.27581 c -0.12324,-0.11737 -0.32277,-0.32276 -0.69248,-0.32276 -0.69834,0 -1.30279,0.59271 -1.30279,1.36147 0,0.76877 0.59858,1.36148 1.30866,1.36148 0.27582,0 0.57511,-0.0998 0.69834,-0.3169 z m 0,0"
           id="id-fc43b100-88cd-4614-9235-7e64180173c2" />
        <path
           style="fill:#000000;fill-opacity:1;stroke:none;stroke-width:0"
           d="m 115.26356,132.3122 v -0.41078 l -0.52229,0.0411 v 0.11737 c 0.26408,0 0.29342,0.0235 0.29342,0.21127 v 1.0035 c 0,0.16431 -0.0411,0.16431 -0.29342,0.16431 v 0.11737 c 0.14671,-0.006 0.32276,-0.0117 0.4284,-0.0117 0.14671,0 0.32276,0 0.47534,0.0117 v -0.11737 h -0.0822 c -0.27582,0 -0.28168,-0.0411 -0.28168,-0.17605 v -0.57511 c 0,-0.36971 0.15844,-0.70421 0.44013,-0.70421 0.0235,0 0.0352,0 0.0411,0.006 -0.0117,0 -0.088,0.047 -0.088,0.14671 0,0.0998 0.0822,0.15845 0.16432,0.15845 0.0646,0 0.15844,-0.047 0.15844,-0.16432 0,-0.11736 -0.11736,-0.22886 -0.27581,-0.22886 -0.27582,0 -0.41079,0.25234 -0.45774,0.41078 z m 0,0"
           id="id-91b00466-ec0e-4db7-bc1f-9619ee8c16d2" />
        <path
           style="fill:#000000;fill-opacity:1;stroke:none;stroke-width:0"
           d="m 117.34526,133.27463 c 0.0176,0.14671 0.11736,0.30515 0.29342,0.30515 0.0822,0 0.31102,-0.0528 0.31102,-0.35797 v -0.21126 h -0.0939 v 0.21126 c 0,0.21713 -0.0939,0.24061 -0.13498,0.24061 -0.12323,0 -0.14084,-0.17019 -0.14084,-0.18779 v -0.74529 c 0,-0.15845 0,-0.30516 -0.13497,-0.446 -0.14671,-0.14671 -0.3345,-0.2054 -0.51055,-0.2054 -0.31103,0 -0.56924,0.17605 -0.56924,0.42253 0,0.1115 0.0763,0.17605 0.17605,0.17605 0.10563,0 0.17019,-0.0763 0.17019,-0.17018 0,-0.047 -0.0176,-0.17019 -0.19366,-0.17019 0.10563,-0.13497 0.28755,-0.17605 0.40492,-0.17605 0.18779,0 0.39905,0.14671 0.39905,0.48121 v 0.13497 c -0.19366,0.0117 -0.45187,0.0235 -0.6866,0.13498 -0.28169,0.1291 -0.37558,0.32276 -0.37558,0.48708 0,0.30515 0.36384,0.39905 0.59858,0.39905 0.24647,0 0.41665,-0.15258 0.48708,-0.32276 z m -0.0235,-0.61619 v 0.37558 c 0,0.35211 -0.26995,0.48121 -0.44013,0.48121 -0.18192,0 -0.3345,-0.1291 -0.3345,-0.31689 0,-0.2054 0.15845,-0.51642 0.77463,-0.5399 z m 0,0"
           id="id-024fe763-f3a9-4906-a05f-ee9dd2477157" />
        <path
           style="fill:#000000;fill-opacity:1;stroke:none;stroke-width:0"
           d="m 118.61744,132.14789 v -0.24647 l -0.5399,0.0411 v 0.11737 c 0.26408,0 0.29342,0.0235 0.29342,0.18779 v 1.74879 c 0,0.17019 -0.0411,0.17019 -0.29342,0.17019 v 0.11736 c 0.12911,-0.006 0.32276,-0.0117 0.41666,-0.0117 0.10563,0 0.29342,0.006 0.42253,0.0117 v -0.11736 c -0.24648,0 -0.28756,0 -0.28756,-0.17019 v -0.66313 c 0.0176,0.0645 0.17606,0.26408 0.45774,0.26408 0.446,0 0.83332,-0.36971 0.83332,-0.85092 0,-0.47534 -0.35798,-0.84505 -0.7805,-0.84505 -0.29343,0 -0.45187,0.16431 -0.52229,0.24647 z m 0.0117,0.98003 v -0.83332 c 0.10563,-0.19366 0.28756,-0.29929 0.48121,-0.29929 0.27582,0 0.49882,0.32863 0.49882,0.75116 0,0.45187 -0.25821,0.76876 -0.53403,0.76876 -0.15258,0 -0.29342,-0.0763 -0.39318,-0.22887 -0.0528,-0.0763 -0.0528,-0.0822 -0.0528,-0.15844 z m 0,0"
           id="id-ee7ba790-f269-4c13-90df-ee4c4da10e52" />
        <path
           style="fill:#000000;fill-opacity:1;stroke:none;stroke-width:0"
           d="m 120.4619,133.27463 c 0,0.16431 -0.0411,0.16431 -0.29342,0.16431 v 0.11737 c 0.13497,-0.006 0.32276,-0.0117 0.42839,-0.0117 0.0939,0 0.28756,0.006 0.41666,0.0117 v -0.11737 c -0.25234,0 -0.29342,0 -0.29342,-0.16431 v -0.69248 c 0,-0.38731 0.26995,-0.59858 0.50468,-0.59858 0.24061,0 0.28169,0.19953 0.28169,0.41666 v 0.8744 c 0,0.16431 -0.0411,0.16431 -0.29342,0.16431 v 0.11737 c 0.1291,-0.006 0.32276,-0.0117 0.42252,-0.0117 0.0939,0 0.29342,0.006 0.41666,0.0117 v -0.11737 c -0.19366,0 -0.28755,0 -0.28755,-0.1115 v -0.71595 c 0,-0.32276 0,-0.43426 -0.11737,-0.56923 -0.0528,-0.0646 -0.17605,-0.14084 -0.39318,-0.14084 -0.3169,0 -0.48121,0.223 -0.54577,0.36971 v -1.31453 l -0.53989,0.0411 v 0.11737 c 0.26408,0 0.29342,0.0235 0.29342,0.21126 z m 0,0"
           id="id-781f7494-2d33-47b0-b968-afc6bd207219" />
        <path
           style="fill:#000000;fill-opacity:1;stroke:none;stroke-width:0"
           d="m 123.97545,133.26289 c -0.0352,0.14671 -0.0469,0.17605 -0.34037,0.17605 -0.0645,0 -0.0998,0 -0.0998,0.0763 0,0.0411 0.0352,0.0411 0.0998,0.0411 h 1.338 c 0.59271,0 1.03284,-0.44013 1.03284,-0.80984 0,-0.26995 -0.21713,-0.48708 -0.58097,-0.52816 0.38732,-0.0704 0.7805,-0.34624 0.7805,-0.70421 0,-0.27582 -0.24647,-0.51642 -0.69247,-0.51642 h -1.26172 c -0.0704,0 -0.10563,0 -0.10563,0.0763 0,0.0411 0.0352,0.0411 0.10563,0.0411 0.006,0 0.0763,0 0.14085,0.006 0.0645,0.0117 0.0998,0.0117 0.0998,0.0646 0,0.0117 -0.006,0.0235 -0.0117,0.0704 z m 0.56337,-1.07979 0.23473,-0.92721 c 0.0352,-0.12911 0.0411,-0.14084 0.19953,-0.14084 h 0.48708 c 0.32863,0 0.40492,0.223 0.40492,0.38731 0,0.32863 -0.32276,0.68074 -0.77463,0.68074 z m -0.16432,1.25584 c -0.0528,0 -0.0587,0 -0.0822,0 -0.0411,-0.006 -0.0528,-0.0117 -0.0528,-0.0411 0,-0.0117 0,-0.0176 0.0235,-0.0822 l 0.25821,-1.04457 h 0.70421 c 0.35798,0 0.43427,0.27581 0.43427,0.43426 0,0.36971 -0.3345,0.73355 -0.7805,0.73355 z m 0,0"
           id="id-7122f94d-10b7-49af-847b-bff1ee721e63" />
        <path
           style="fill:none;stroke:#364e59;stroke-width:0.365;stroke-linecap:butt;stroke-linejoin:miter;stroke-miterlimit:4;stroke-dasharray:none;stroke-opacity:1"
           d="m 111.125,107.15625 c -5.29166,6.61458 0,13.22917 0,13.22917"
           id="path2054"
           sodipodi:nodetypes="cc" />
        <path
           style="fill:none;stroke:#364e59;stroke-width:0.365;stroke-linecap:butt;stroke-linejoin:miter;stroke-miterlimit:4;stroke-dasharray:none;stroke-opacity:1"
           d="m 111.125,107.15625 c 5.29166,6.61458 0,13.22917 0,13.22917"
           id="path2155"
           sodipodi:nodetypes="cc" />
      </g>
    </g>
  </g>
</svg>
