<?xml version="1.0" encoding="UTF-8" standalone="no"?>
<!-- Created with Inkscape (http://www.inkscape.org/) -->

<svg
   width="43.223034mm"
   height="23.898354mm"
   viewBox="0 0 43.223034 23.898354"
   version="1.1"
   id="svg5"
   sodipodi:docname="drawing.svg"
   inkscape:version="1.1 (c4e8f9e, 2021-05-24)"
   xmlns:inkscape="http://www.inkscape.org/namespaces/inkscape"
   xmlns:sodipodi="http://sodipodi.sourceforge.net/DTD/sodipodi-0.dtd"
   xmlns="http://www.w3.org/2000/svg"
   xmlns:svg="http://www.w3.org/2000/svg">
  <sodipodi:namedview
     id="namedview7"
     pagecolor="#ffffff"
     bordercolor="#666666"
     borderopacity="1.0"
     inkscape:pageshadow="2"
     inkscape:pageopacity="0.0"
     inkscape:pagecheckerboard="0"
     inkscape:document-units="mm"
     showgrid="false"
     inkscape:zoom="0.78741022"
     inkscape:cx="159.38325"
     inkscape:cy="116.20372"
     inkscape:window-width="1312"
     inkscape:window-height="847"
     inkscape:window-x="2003"
     inkscape:window-y="103"
     inkscape:window-maximized="0"
     inkscape:current-layer="layer1"
     inkscape:snap-global="false">
    <inkscape:grid
       type="xygrid"
       id="grid824"
       originx="-62.942797"
       originy="-100.20916" />
  </sodipodi:namedview>
  <defs
     id="defs2">
    <defs
       id="id-d91bc456-7118-41a1-b194-e0180e50b64c">
      <g
         id="id-5481ed01-5f83-4007-a6cd-151d4b07896f">
        <symbol
           overflow="visible"
           id="id-b7396d03-cec1-4e3e-a719-ed6ec5b413c8">
          <path
             style="stroke:none;stroke-width:0"
             d=""
             id="id-83642f08-edb1-4bdd-95a4-e39566fdebea" />
        </symbol>
        <symbol
           overflow="visible"
           id="id-569fcf75-823a-40f7-8f53-fe3c7551bf49">
          <path
             style="stroke:none;stroke-width:0"
             d="M 3.328125,-3.015625 C 3.390625,-3.265625 3.625,-4.1875 4.3125,-4.1875 c 0.046875,0 0.296875,0 0.5,0.125 C 4.53125,-4 4.34375,-3.765625 4.34375,-3.515625 c 0,0.15625 0.109375,0.34375 0.375,0.34375 0.21875,0 0.53125,-0.171875 0.53125,-0.578125 0,-0.515625 -0.578125,-0.65625 -0.921875,-0.65625 -0.578125,0 -0.921875,0.53125 -1.046875,0.75 -0.25,-0.65625 -0.78125,-0.75 -1.078125,-0.75 -1.03125,0 -1.609375,1.28125 -1.609375,1.53125 0,0.109375 0.109375,0.109375 0.125,0.109375 0.078125,0 0.109375,-0.03125 0.125,-0.109375 0.34375,-1.0625 1,-1.3125 1.34375,-1.3125 0.1875,0 0.53125,0.09375 0.53125,0.671875 0,0.3125 -0.171875,0.96875 -0.53125,2.375 -0.15625,0.609375 -0.515625,1.03125 -0.953125,1.03125 -0.0625,0 -0.28125,0 -0.5,-0.125 0.25,-0.0625 0.46875,-0.265625 0.46875,-0.546875 0,-0.265625 -0.21875,-0.34375 -0.359375,-0.34375 -0.3125,0 -0.546875,0.25 -0.546875,0.578125 0,0.453125 0.484375,0.65625 0.921875,0.65625 0.671875,0 1.03125,-0.703125 1.046875,-0.75 0.125,0.359375 0.484375,0.75 1.078125,0.75 1.03125,0 1.59375,-1.28125 1.59375,-1.53125 0,-0.109375 -0.078125,-0.109375 -0.109375,-0.109375 -0.09375,0 -0.109375,0.046875 -0.140625,0.109375 -0.328125,1.078125 -1,1.3125 -1.3125,1.3125 -0.390625,0 -0.546875,-0.3125 -0.546875,-0.65625 0,-0.21875 0.046875,-0.4375 0.15625,-0.875 z m 0,0"
             id="id-098900c4-326b-47a2-ada4-b027304d9cc4" />
        </symbol>
        <symbol
           overflow="visible"
           id="id-cd249bfa-4aae-4a33-890f-6364c6c0f515">
          <path
             style="stroke:none;stroke-width:0"
             d="m 4.84375,-3.796875 c 0.046875,-0.140625 0.046875,-0.15625 0.046875,-0.234375 0,-0.171875 -0.140625,-0.265625 -0.296875,-0.265625 -0.09375,0 -0.25,0.0625 -0.34375,0.203125 -0.015625,0.0625 -0.109375,0.359375 -0.140625,0.546875 -0.078125,0.25 -0.140625,0.53125 -0.203125,0.796875 l -0.453125,1.796875 c -0.03125,0.140625 -0.46875,0.84375 -1.125,0.84375 -0.5,0 -0.609375,-0.4375 -0.609375,-0.8125 C 1.71875,-1.375 1.890625,-2 2.21875,-2.875 2.375,-3.28125 2.421875,-3.390625 2.421875,-3.59375 c 0,-0.4375 -0.3125,-0.8125 -0.8125,-0.8125 -0.953125,0 -1.3125,1.453125 -1.3125,1.53125 0,0.109375 0.09375,0.109375 0.109375,0.109375 0.109375,0 0.109375,-0.03125 0.15625,-0.1875 0.28125,-0.9375 0.671875,-1.234375 1.015625,-1.234375 0.078125,0 0.25,0 0.25,0.3125 0,0.25 -0.109375,0.515625 -0.171875,0.703125 -0.40625,1.0625 -0.578125,1.625 -0.578125,2.09375 0,0.890625 0.625,1.1875 1.21875,1.1875 0.390625,0 0.71875,-0.171875 1,-0.453125 -0.125,0.515625 -0.25,1.015625 -0.640625,1.546875 -0.265625,0.328125 -0.640625,0.625 -1.09375,0.625 -0.140625,0 -0.59375,-0.03125 -0.765625,-0.421875 0.15625,0 0.296875,0 0.421875,-0.125 C 1.328125,1.203125 1.421875,1.0625 1.421875,0.875 1.421875,0.5625 1.15625,0.53125 1.0625,0.53125 0.828125,0.53125 0.5,0.6875 0.5,1.171875 c 0,0.5 0.4375,0.875 1.0625,0.875 1.015625,0 2.046875,-0.90625 2.328125,-2.03125 z m 0,0"
             id="id-5342491b-0c1e-47d0-af6a-609ad7262674" />
        </symbol>
      </g>
    </defs>
  </defs>
  <g
     inkscape:label="Layer 1"
     inkscape:groupmode="layer"
     id="layer1"
     transform="translate(-62.942797,-100.20916)">
    <g
       id="g1138">
      <rect
         style="font-variation-settings:normal;fill:#ffcece;fill-opacity:1;fill-rule:evenodd;stroke:#dc0000;stroke-width:0.665;stroke-linecap:butt;stroke-linejoin:miter;stroke-miterlimit:4;stroke-dasharray:none;stroke-dashoffset:0;stroke-opacity:1;stop-color:#000000"
         id="rect848"
         width="37.041668"
         height="15.875"
         x="68.791664"
         y="100.54166"
         ry="0.13229166" />
      <path
         style="fill:#000000;fill-opacity:1;stroke:none;stroke-width:0"
         d="m 65.093339,107.86393 c 0.04434,-0.17737 0.21062,-0.8314 0.698371,-0.8314 0.03326,0 0.21062,0 0.354728,0.0887 -0.199535,0.0443 -0.332558,0.21061 -0.332558,0.38798 0,0.11085 0.0776,0.24387 0.266046,0.24387 0.155194,0 0.376899,-0.12193 0.376899,-0.41015 0,-0.36581 -0.410154,-0.46558 -0.65403,-0.46558 -0.410154,0 -0.65403,0.3769 -0.742712,0.53209 -0.177364,-0.46558 -0.554262,-0.53209 -0.764882,-0.53209 -0.731626,0 -1.141781,0.90899 -1.141781,1.08635 0,0.0776 0.0776,0.0776 0.08868,0.0776 0.05543,0 0.0776,-0.0222 0.08868,-0.0776 0.243876,-0.75379 0.709456,-0.93116 0.953332,-0.93116 0.133023,0 0.376898,0.0665 0.376898,0.47667 0,0.2217 -0.121937,0.68728 -0.376898,1.68496 -0.110853,0.43232 -0.365813,0.73162 -0.6762,0.73162 -0.04434,0 -0.199535,0 -0.354728,-0.0887 0.177364,-0.0443 0.332557,-0.18845 0.332557,-0.38798 0,-0.18845 -0.155193,-0.24388 -0.254961,-0.24388 -0.221705,0 -0.387983,0.17737 -0.387983,0.41016 0,0.32147 0.343642,0.46558 0.654029,0.46558 0.476666,0 0.731627,-0.49884 0.742712,-0.5321 0.08868,0.25497 0.343643,0.5321 0.764882,0.5321 0.731627,0 1.130696,-0.90899 1.130696,-1.08636 0,-0.0776 -0.05543,-0.0776 -0.0776,-0.0776 -0.06651,0 -0.0776,0.0333 -0.09977,0.0776 -0.23279,0.76488 -0.709456,0.93116 -0.931161,0.93116 -0.277131,0 -0.387984,-0.2217 -0.387984,-0.46558 0,-0.15519 0.03326,-0.31038 0.110853,-0.62077 z m 0,0"
         id="id-a471b1ca-29f2-45f0-83ae-f8b5a2dcdbeb" />
      <path
         style="fill:#000000;fill-opacity:1;stroke:none;stroke-width:0"
         d="m 88.908771,119.96164 c 0.03326,-0.0998 0.03326,-0.11085 0.03326,-0.16627 0,-0.12194 -0.09977,-0.18845 -0.21062,-0.18845 -0.06651,0 -0.177364,0.0443 -0.243875,0.1441 -0.01108,0.0443 -0.0776,0.25497 -0.09977,0.38799 -0.05543,0.17736 -0.09977,0.3769 -0.144109,0.56535 l -0.321472,1.2748 c -0.02217,0.0998 -0.332557,0.5986 -0.798138,0.5986 -0.354728,0 -0.432325,-0.31038 -0.432325,-0.57643 0,-0.32147 0.121938,-0.76488 0.354729,-1.38566 0.110852,-0.28821 0.144108,-0.36581 0.144108,-0.50992 0,-0.31038 -0.221705,-0.57643 -0.576433,-0.57643 -0.676201,0 -0.931161,1.03093 -0.931161,1.08635 0,0.0776 0.06651,0.0776 0.0776,0.0776 0.0776,0 0.0776,-0.0222 0.110852,-0.13302 0.199534,-0.66512 0.476666,-0.87574 0.720541,-0.87574 0.05543,0 0.177364,0 0.177364,0.22171 0,0.17736 -0.0776,0.36581 -0.121937,0.49883 -0.288217,0.7538 -0.410155,1.15287 -0.410155,1.48543 0,0.63186 0.44341,0.84248 0.86465,0.84248 0.277131,0 0.509921,-0.12194 0.709456,-0.32148 -0.08868,0.36582 -0.177364,0.72055 -0.454496,1.09744 -0.188449,0.23279 -0.454495,0.44341 -0.775967,0.44341 -0.09977,0 -0.42124,-0.0222 -0.543177,-0.2993 0.110852,0 0.210619,0 0.299301,-0.0887 0.0776,-0.0554 0.144109,-0.15519 0.144109,-0.28822 0,-0.2217 -0.18845,-0.24387 -0.254961,-0.24387 -0.166279,0 -0.399069,0.11085 -0.399069,0.45449 0,0.35473 0.310387,0.62078 0.753797,0.62078 0.720541,0 1.452168,-0.64295 1.651702,-1.44108 z m 0,0"
         id="id-87abe379-29f4-4e95-a111-9eb6d0c253fb" />
    </g>
  </g>
</svg>
