<?xml version="1.0" encoding="UTF-8" standalone="no"?>
<!-- Created with Inkscape (http://www.inkscape.org/) -->

<svg
   id="svg5"
   version="1.1"
   viewBox="0 0 59.684406 22.743404"
   height="22.743404mm"
   width="59.684406mm"
   xmlns="http://www.w3.org/2000/svg"
   xmlns:svg="http://www.w3.org/2000/svg">
  <defs
     id="defs2" />
  <g
     id="layer1"
     transform="translate(-23.297709,-86.474176)">
    <g
       id="g5468">
      <g
         id="g5004"
         style="fill:#dc0000;stroke:#dc0000">
        <path
           style="vector-effect:none;fill:#dc0000;fill-rule:evenodd;stroke:#dc0000;stroke-width:0.264583;stop-color:#000000"
           d="M 23.694583,86.923367 A 0.13229166,0.13229166 0 0 1 23.562291,87.055658 0.13229166,0.13229166 0 0 1 23.43,86.923367 a 0.13229166,0.13229166 0 0 1 0.132291,-0.132292 0.13229166,0.13229166 0 0 1 0.132292,0.132292 z"
           id="path3860" />
        <path
           style="vector-effect:none;fill:#dc0000;fill-rule:evenodd;stroke:#dc0000;stroke-width:0.264583;stop-color:#000000"
           d="m 24.425863,87.155867 a 0.13229166,0.13229166 0 0 1 -0.132292,0.132291 0.13229166,0.13229166 0 0 1 -0.132291,-0.132291 0.13229166,0.13229166 0 0 1 0.132291,-0.132292 0.13229166,0.13229166 0 0 1 0.132292,0.132292 z"
           id="path3862" />
        <path
           style="vector-effect:none;fill:#dc0000;fill-rule:evenodd;stroke:#dc0000;stroke-width:0.264583;stop-color:#000000"
           d="m 25.147663,87.413867 a 0.13229166,0.13229166 0 0 1 -0.132292,0.132291 0.13229166,0.13229166 0 0 1 -0.132291,-0.132291 0.13229166,0.13229166 0 0 1 0.132291,-0.132292 0.13229166,0.13229166 0 0 1 0.132292,0.132292 z"
           id="path3864" />
        <path
           style="vector-effect:none;fill:#dc0000;fill-rule:evenodd;stroke:#dc0000;stroke-width:0.264583;stop-color:#000000"
           d="m 25.853553,87.714767 a 0.13229166,0.13229166 0 0 1 -0.132292,0.132291 0.13229166,0.13229166 0 0 1 -0.132291,-0.132291 0.13229166,0.13229166 0 0 1 0.132291,-0.132292 0.13229166,0.13229166 0 0 1 0.132292,0.132292 z"
           id="path3866" />
        <path
           style="vector-effect:none;fill:#dc0000;fill-rule:evenodd;stroke:#dc0000;stroke-width:0.264583;stop-color:#000000"
           d="m 26.531563,88.072767 a 0.13229166,0.13229166 0 0 1 -0.132292,0.132291 0.13229166,0.13229166 0 0 1 -0.132291,-0.132291 0.13229166,0.13229166 0 0 1 0.132291,-0.132292 0.13229166,0.13229166 0 0 1 0.132292,0.132292 z"
           id="path3868" />
        <path
           style="vector-effect:none;fill:#dc0000;fill-rule:evenodd;stroke:#dc0000;stroke-width:0.264583;stop-color:#000000"
           d="m 27.192623,88.461467 a 0.13229166,0.13229166 0 0 1 -0.132292,0.132291 0.13229166,0.13229166 0 0 1 -0.132291,-0.132291 0.13229166,0.13229166 0 0 1 0.132291,-0.132292 0.13229166,0.13229166 0 0 1 0.132292,0.132292 z"
           id="path3870" />
        <path
           style="vector-effect:none;fill:#dc0000;fill-rule:evenodd;stroke:#dc0000;stroke-width:0.264583;stop-color:#000000"
           d="m 27.818083,88.905867 a 0.13229166,0.13229166 0 0 1 -0.132292,0.132291 0.13229166,0.13229166 0 0 1 -0.132291,-0.132291 0.13229166,0.13229166 0 0 1 0.132291,-0.132292 0.13229166,0.13229166 0 0 1 0.132292,0.132292 z"
           id="path3872" />
        <path
           style="vector-effect:none;fill:#dc0000;fill-rule:evenodd;stroke:#dc0000;stroke-width:0.264583;stop-color:#000000"
           d="m 28.400983,89.404667 a 0.13229166,0.13229166 0 0 1 -0.132292,0.132291 0.13229166,0.13229166 0 0 1 -0.132291,-0.132291 0.13229166,0.13229166 0 0 1 0.132291,-0.132292 0.13229166,0.13229166 0 0 1 0.132292,0.132292 z"
           id="path3874" />
        <path
           style="vector-effect:none;fill:#dc0000;fill-rule:evenodd;stroke:#dc0000;stroke-width:0.264583;stop-color:#000000"
           d="m 28.941183,89.949367 a 0.13229166,0.13229166 0 0 1 -0.132292,0.132291 0.13229166,0.13229166 0 0 1 -0.132291,-0.132291 0.13229166,0.13229166 0 0 1 0.132291,-0.132292 0.13229166,0.13229166 0 0 1 0.132292,0.132292 z"
           id="path3876" />
        <path
           style="vector-effect:none;fill:#dc0000;fill-rule:evenodd;stroke:#dc0000;stroke-width:0.264583;stop-color:#000000"
           d="m 29.420683,90.548067 a 0.13229166,0.13229166 0 0 1 -0.132292,0.132291 0.13229166,0.13229166 0 0 1 -0.132291,-0.132291 0.13229166,0.13229166 0 0 1 0.132291,-0.132292 0.13229166,0.13229166 0 0 1 0.132292,0.132292 z"
           id="path3878" />
        <path
           style="vector-effect:none;fill:#dc0000;fill-rule:evenodd;stroke:#dc0000;stroke-width:0.264583;stop-color:#000000"
           d="m 29.837883,91.191567 a 0.13229166,0.13229166 0 0 1 -0.132292,0.132291 0.13229166,0.13229166 0 0 1 -0.132291,-0.132291 0.13229166,0.13229166 0 0 1 0.132291,-0.132292 0.13229166,0.13229166 0 0 1 0.132292,0.132292 z"
           id="path3880" />
        <path
           style="vector-effect:none;fill:#dc0000;fill-rule:evenodd;stroke:#dc0000;stroke-width:0.264583;stop-color:#000000"
           d="m 30.177583,91.879167 a 0.13229166,0.13229166 0 0 1 -0.132292,0.132291 0.13229166,0.13229166 0 0 1 -0.132291,-0.132291 0.13229166,0.13229166 0 0 1 0.132291,-0.132292 0.13229166,0.13229166 0 0 1 0.132292,0.132292 z"
           id="path3882" />
        <path
           style="vector-effect:none;fill:#dc0000;fill-rule:evenodd;stroke:#dc0000;stroke-width:0.264583;stop-color:#000000"
           d="m 30.427083,92.604167 a 0.13229166,0.13229166 0 0 1 -0.132292,0.132291 0.13229166,0.13229166 0 0 1 -0.132291,-0.132291 0.13229166,0.13229166 0 0 1 0.132291,-0.132292 0.13229166,0.13229166 0 0 1 0.132292,0.132292 z"
           id="path3884" />
        <path
           style="vector-effect:none;fill:#dc0000;fill-rule:evenodd;stroke:#dc0000;stroke-width:0.264583;stop-color:#000000"
           d="m 30.582183,93.354767 a 0.13229166,0.13229166 0 0 1 -0.132292,0.132291 0.13229166,0.13229166 0 0 1 -0.132291,-0.132291 0.13229166,0.13229166 0 0 1 0.132291,-0.132292 0.13229166,0.13229166 0 0 1 0.132292,0.132292 z"
           id="path3886" />
        <path
           style="vector-effect:none;fill:#dc0000;fill-rule:evenodd;stroke:#dc0000;stroke-width:0.264583;stop-color:#000000"
           d="m 30.636683,94.119567 a 0.13229166,0.13229166 0 0 1 -0.132292,0.132291 0.13229166,0.13229166 0 0 1 -0.132291,-0.132291 0.13229166,0.13229166 0 0 1 0.132291,-0.132292 0.13229166,0.13229166 0 0 1 0.132292,0.132292 z"
           id="path3888" />
        <path
           style="vector-effect:none;fill:#dc0000;fill-rule:evenodd;stroke:#dc0000;stroke-width:0.264583;stop-color:#000000"
           d="m 30.580483,94.884367 a 0.13229166,0.13229166 0 0 1 -0.132292,0.132291 0.13229166,0.13229166 0 0 1 -0.132291,-0.132291 0.13229166,0.13229166 0 0 1 0.132291,-0.132292 0.13229166,0.13229166 0 0 1 0.132292,0.132292 z"
           id="path3890" />
        <path
           style="vector-effect:none;fill:#dc0000;fill-rule:evenodd;stroke:#dc0000;stroke-width:0.264583;stop-color:#000000"
           d="m 30.423783,95.634667 a 0.13229166,0.13229166 0 0 1 -0.132292,0.132291 0.13229166,0.13229166 0 0 1 -0.132291,-0.132291 0.13229166,0.13229166 0 0 1 0.132291,-0.132292 0.13229166,0.13229166 0 0 1 0.132292,0.132292 z"
           id="path3892" />
        <path
           style="vector-effect:none;fill:#dc0000;fill-rule:evenodd;stroke:#dc0000;stroke-width:0.264583;stop-color:#000000"
           d="m 30.176683,96.360567 a 0.13229166,0.13229166 0 0 1 -0.132292,0.132291 0.13229166,0.13229166 0 0 1 -0.132291,-0.132291 0.13229166,0.13229166 0 0 1 0.132291,-0.132292 0.13229166,0.13229166 0 0 1 0.132292,0.132292 z"
           id="path3894" />
        <path
           style="vector-effect:none;fill:#dc0000;fill-rule:evenodd;stroke:#dc0000;stroke-width:0.264583;stop-color:#000000"
           d="m 29.838883,97.049167 a 0.13229166,0.13229166 0 0 1 -0.132292,0.132291 0.13229166,0.13229166 0 0 1 -0.132291,-0.132291 0.13229166,0.13229166 0 0 1 0.132291,-0.132292 0.13229166,0.13229166 0 0 1 0.132292,0.132292 z"
           id="path3896" />
        <path
           style="vector-effect:none;fill:#dc0000;fill-rule:evenodd;stroke:#dc0000;stroke-width:0.264583;stop-color:#000000"
           d="m 29.433683,97.700367 a 0.13229166,0.13229166 0 0 1 -0.132292,0.132291 0.13229166,0.13229166 0 0 1 -0.132291,-0.132291 0.13229166,0.13229166 0 0 1 0.132291,-0.132292 0.13229166,0.13229166 0 0 1 0.132292,0.132292 z"
           id="path3898" />
        <path
           style="vector-effect:none;fill:#dc0000;fill-rule:evenodd;stroke:#dc0000;stroke-width:0.264583;stop-color:#000000"
           d="m 28.962383,98.305567 a 0.13229166,0.13229166 0 0 1 -0.132292,0.132291 0.13229166,0.13229166 0 0 1 -0.132291,-0.132291 0.13229166,0.13229166 0 0 1 0.132291,-0.132292 0.13229166,0.13229166 0 0 1 0.132292,0.132292 z"
           id="path3900" />
        <path
           style="vector-effect:none;fill:#dc0000;fill-rule:evenodd;stroke:#dc0000;stroke-width:0.264583;stop-color:#000000"
           d="m 28.443683,98.870867 a 0.13229166,0.13229166 0 0 1 -0.132292,0.132291 0.13229166,0.13229166 0 0 1 -0.132291,-0.132291 0.13229166,0.13229166 0 0 1 0.132291,-0.132292 0.13229166,0.13229166 0 0 1 0.132292,0.132292 z"
           id="path3902" />
        <path
           style="vector-effect:none;fill:#dc0000;fill-rule:evenodd;stroke:#dc0000;stroke-width:0.264583;stop-color:#000000"
           d="m 27.917583,99.429467 a 0.13229166,0.13229166 0 0 1 -0.132292,0.132291 0.13229166,0.13229166 0 0 1 -0.132291,-0.132291 0.13229166,0.13229166 0 0 1 0.132291,-0.132292 0.13229166,0.13229166 0 0 1 0.132292,0.132292 z"
           id="path3904" />
        <path
           style="vector-effect:none;fill:#dc0000;fill-rule:evenodd;stroke:#dc0000;stroke-width:0.264583;stop-color:#000000"
           d="m 27.447703,100.03557 a 0.13229166,0.13229166 0 0 1 -0.132292,0.13229 0.13229166,0.13229166 0 0 1 -0.132291,-0.13229 0.13229166,0.13229166 0 0 1 0.132291,-0.132295 0.13229166,0.13229166 0 0 1 0.132292,0.132295 z"
           id="path3906" />
        <path
           style="vector-effect:none;fill:#dc0000;fill-rule:evenodd;stroke:#dc0000;stroke-width:0.264583;stop-color:#000000"
           d="m 27.046333,100.68867 a 0.13229166,0.13229166 0 0 1 -0.132292,0.13229 0.13229166,0.13229166 0 0 1 -0.132291,-0.13229 0.13229166,0.13229166 0 0 1 0.132291,-0.1323 0.13229166,0.13229166 0 0 1 0.132292,0.1323 z"
           id="path3908" />
        <path
           style="vector-effect:none;fill:#dc0000;fill-rule:evenodd;stroke:#dc0000;stroke-width:0.264583;stop-color:#000000"
           d="m 26.740723,101.39117 a 0.13229166,0.13229166 0 0 1 -0.132292,0.13229 0.13229166,0.13229166 0 0 1 -0.132291,-0.13229 0.13229166,0.13229166 0 0 1 0.132291,-0.1323 0.13229166,0.13229166 0 0 1 0.132292,0.1323 z"
           id="path3910" />
        <path
           style="vector-effect:none;fill:#dc0000;fill-rule:evenodd;stroke:#dc0000;stroke-width:0.264583;stop-color:#000000"
           d="m 26.547313,102.13257 a 0.13229166,0.13229166 0 0 1 -0.132292,0.13229 0.13229166,0.13229166 0 0 1 -0.132291,-0.13229 0.13229166,0.13229166 0 0 1 0.132291,-0.1323 0.13229166,0.13229166 0 0 1 0.132292,0.1323 z"
           id="path3912" />
        <path
           style="vector-effect:none;fill:#dc0000;fill-rule:evenodd;stroke:#dc0000;stroke-width:0.264583;stop-color:#000000"
           d="m 26.497703,102.89677 a 0.13229166,0.13229166 0 0 1 -0.132292,0.13229 0.13229166,0.13229166 0 0 1 -0.132291,-0.13229 0.13229166,0.13229166 0 0 1 0.132291,-0.1323 0.13229166,0.13229166 0 0 1 0.132292,0.1323 z"
           id="path3914" />
        <path
           style="vector-effect:none;fill:#dc0000;fill-rule:evenodd;stroke:#dc0000;stroke-width:0.264583;stop-color:#000000"
           d="m 26.590783,103.65627 a 0.13229166,0.13229166 0 0 1 -0.132292,0.13229 0.13229166,0.13229166 0 0 1 -0.132291,-0.13229 0.13229166,0.13229166 0 0 1 0.132291,-0.1323 0.13229166,0.13229166 0 0 1 0.132292,0.1323 z"
           id="path3916" />
        <path
           style="vector-effect:none;fill:#dc0000;fill-rule:evenodd;stroke:#dc0000;stroke-width:0.264583;stop-color:#000000"
           d="m 26.823603,104.38577 a 0.13229166,0.13229166 0 0 1 -0.132292,0.13229 0.13229166,0.13229166 0 0 1 -0.132291,-0.13229 0.13229166,0.13229166 0 0 1 0.132291,-0.1323 0.13229166,0.13229166 0 0 1 0.132292,0.1323 z"
           id="path3918" />
        <path
           style="vector-effect:none;fill:#dc0000;fill-rule:evenodd;stroke:#dc0000;stroke-width:0.264583;stop-color:#000000"
           d="m 27.185043,105.06157 a 0.13229166,0.13229166 0 0 1 -0.132292,0.13229 0.13229166,0.13229166 0 0 1 -0.132291,-0.13229 0.13229166,0.13229166 0 0 1 0.132291,-0.1323 0.13229166,0.13229166 0 0 1 0.132292,0.1323 z"
           id="path3920" />
        <path
           style="vector-effect:none;fill:#dc0000;fill-rule:evenodd;stroke:#dc0000;stroke-width:0.264583;stop-color:#000000"
           d="m 27.650683,105.67017 a 0.13229166,0.13229166 0 0 1 -0.132292,0.13229 0.13229166,0.13229166 0 0 1 -0.132291,-0.13229 0.13229166,0.13229166 0 0 1 0.132291,-0.1323 0.13229166,0.13229166 0 0 1 0.132292,0.1323 z"
           id="path3922" />
        <path
           style="vector-effect:none;fill:#dc0000;fill-rule:evenodd;stroke:#dc0000;stroke-width:0.264583;stop-color:#000000"
           d="m 28.192883,106.21217 a 0.13229166,0.13229166 0 0 1 -0.132292,0.13229 0.13229166,0.13229166 0 0 1 -0.132291,-0.13229 0.13229166,0.13229166 0 0 1 0.132291,-0.1323 0.13229166,0.13229166 0 0 1 0.132292,0.1323 z"
           id="path3924" />
        <path
           style="vector-effect:none;fill:#dc0000;fill-rule:evenodd;stroke:#dc0000;stroke-width:0.264583;stop-color:#000000"
           d="m 28.800883,106.67957 a 0.13229166,0.13229166 0 0 1 -0.132292,0.13229 0.13229166,0.13229166 0 0 1 -0.132291,-0.13229 0.13229166,0.13229166 0 0 1 0.132291,-0.1323 0.13229166,0.13229166 0 0 1 0.132292,0.1323 z"
           id="path3926" />
        <path
           style="vector-effect:none;fill:#dc0000;fill-rule:evenodd;stroke:#dc0000;stroke-width:0.264583;stop-color:#000000"
           d="m 29.452583,107.08407 a 0.13229166,0.13229166 0 0 1 -0.132292,0.13229 0.13229166,0.13229166 0 0 1 -0.132291,-0.13229 0.13229166,0.13229166 0 0 1 0.132291,-0.1323 0.13229166,0.13229166 0 0 1 0.132292,0.1323 z"
           id="path3928" />
        <path
           style="vector-effect:none;fill:#dc0000;fill-rule:evenodd;stroke:#dc0000;stroke-width:0.264583;stop-color:#000000"
           d="m 30.142783,107.41887 a 0.13229166,0.13229166 0 0 1 -0.132292,0.13229 0.13229166,0.13229166 0 0 1 -0.132291,-0.13229 0.13229166,0.13229166 0 0 1 0.132291,-0.1323 0.13229166,0.13229166 0 0 1 0.132292,0.1323 z"
           id="path3930" />
        <path
           style="vector-effect:none;fill:#dc0000;fill-rule:evenodd;stroke:#dc0000;stroke-width:0.264583;stop-color:#000000"
           d="m 30.857483,107.69747 a 0.13229166,0.13229166 0 0 1 -0.132292,0.13229 0.13229166,0.13229166 0 0 1 -0.132291,-0.13229 0.13229166,0.13229166 0 0 1 0.132291,-0.1323 0.13229166,0.13229166 0 0 1 0.132292,0.1323 z"
           id="path3932" />
        <path
           style="vector-effect:none;fill:#dc0000;fill-rule:evenodd;stroke:#dc0000;stroke-width:0.264583;stop-color:#000000"
           d="m 31.592183,107.91887 a 0.13229166,0.13229166 0 0 1 -0.132292,0.13229 0.13229166,0.13229166 0 0 1 -0.132291,-0.13229 0.13229166,0.13229166 0 0 1 0.132291,-0.1323 0.13229166,0.13229166 0 0 1 0.132292,0.1323 z"
           id="path3934" />
        <path
           style="vector-effect:none;fill:#dc0000;fill-rule:evenodd;stroke:#dc0000;stroke-width:0.264583;stop-color:#000000"
           d="m 32.341783,108.08247 a 0.13229166,0.13229166 0 0 1 -0.132292,0.13229 0.13229166,0.13229166 0 0 1 -0.132291,-0.13229 0.13229166,0.13229166 0 0 1 0.132291,-0.1323 0.13229166,0.13229166 0 0 1 0.132292,0.1323 z"
           id="path3936" />
        <path
           style="vector-effect:none;fill:#dc0000;fill-rule:evenodd;stroke:#dc0000;stroke-width:0.264583;stop-color:#000000"
           d="m 33.100483,108.19677 a 0.13229166,0.13229166 0 0 1 -0.132292,0.13229 0.13229166,0.13229166 0 0 1 -0.132291,-0.13229 0.13229166,0.13229166 0 0 1 0.132291,-0.1323 0.13229166,0.13229166 0 0 1 0.132292,0.1323 z"
           id="path3938" />
        <path
           style="vector-effect:none;fill:#dc0000;fill-rule:evenodd;stroke:#dc0000;stroke-width:0.264583;stop-color:#000000"
           d="m 33.864783,108.26367 a 0.13229166,0.13229166 0 0 1 -0.132292,0.13229 0.13229166,0.13229166 0 0 1 -0.132291,-0.13229 0.13229166,0.13229166 0 0 1 0.132291,-0.1323 0.13229166,0.13229166 0 0 1 0.132292,0.1323 z"
           id="path3940" />
        <path
           style="vector-effect:none;fill:#dc0000;fill-rule:evenodd;stroke:#dc0000;stroke-width:0.264583;stop-color:#000000"
           d="m 34.631883,108.28467 a 0.13229166,0.13229166 0 0 1 -0.132292,0.13229 0.13229166,0.13229166 0 0 1 -0.132291,-0.13229 0.13229166,0.13229166 0 0 1 0.132291,-0.1323 0.13229166,0.13229166 0 0 1 0.132292,0.1323 z"
           id="path3942" />
        <path
           style="vector-effect:none;fill:#dc0000;fill-rule:evenodd;stroke:#dc0000;stroke-width:0.264583;stop-color:#000000"
           d="m 35.398883,108.26157 a 0.13229166,0.13229166 0 0 1 -0.132292,0.13229 0.13229166,0.13229166 0 0 1 -0.132291,-0.13229 0.13229166,0.13229166 0 0 1 0.132291,-0.1323 0.13229166,0.13229166 0 0 1 0.132292,0.1323 z"
           id="path3944" />
        <path
           style="vector-effect:none;fill:#dc0000;fill-rule:evenodd;stroke:#dc0000;stroke-width:0.264583;stop-color:#000000"
           d="m 36.163583,108.19617 a 0.13229166,0.13229166 0 0 1 -0.132292,0.13229 0.13229166,0.13229166 0 0 1 -0.132291,-0.13229 0.13229166,0.13229166 0 0 1 0.132291,-0.1323 0.13229166,0.13229166 0 0 1 0.132292,0.1323 z"
           id="path3946" />
        <path
           style="vector-effect:none;fill:#dc0000;fill-rule:evenodd;stroke:#dc0000;stroke-width:0.264583;stop-color:#000000"
           d="m 36.923783,108.09007 a 0.13229166,0.13229166 0 0 1 -0.132292,0.13229 0.13229166,0.13229166 0 0 1 -0.132291,-0.13229 0.13229166,0.13229166 0 0 1 0.132291,-0.1323 0.13229166,0.13229166 0 0 1 0.132292,0.1323 z"
           id="path3948" />
      </g>
      <g
         id="g4345"
         transform="translate(-4.0762697,-2.1333333e-5)"
         style="fill:#0084c8;stroke:#0084c8">
        <path
           style="opacity:1;vector-effect:none;fill:#0084c8;fill-rule:evenodd;stroke:#0084c8;stroke-width:0.264583;stop-color:#000000;stop-opacity:1"
           d="m 37.570833,73.157288 a 0.13229166,0.13229166 0 0 1 -0.132292,0.132291 0.13229166,0.13229166 0 0 1 -0.132291,-0.132291 0.13229166,0.13229166 0 0 1 0.132291,-0.132292 0.13229166,0.13229166 0 0 1 0.132292,0.132292 z"
           transform="translate(18.124,14.1552)"
           id="path4287" />
        <path
           style="opacity:1;vector-effect:none;fill:#0084c8;fill-rule:evenodd;stroke:#0084c8;stroke-width:0.264583;stop-color:#000000;stop-opacity:1"
           d="m 37.570833,73.157288 a 0.13229166,0.13229166 0 0 1 -0.132292,0.132291 0.13229166,0.13229166 0 0 1 -0.132291,-0.132291 0.13229166,0.13229166 0 0 1 0.132291,-0.132292 0.13229166,0.13229166 0 0 1 0.132292,0.132292 z"
           transform="translate(18.124,14.9112)"
           id="path4289" />
        <path
           style="opacity:1;vector-effect:none;fill:#0084c8;fill-rule:evenodd;stroke:#0084c8;stroke-width:0.264583;stop-color:#000000;stop-opacity:1"
           d="m 37.570833,73.157288 a 0.13229166,0.13229166 0 0 1 -0.132292,0.132291 0.13229166,0.13229166 0 0 1 -0.132291,-0.132291 0.13229166,0.13229166 0 0 1 0.132291,-0.132292 0.13229166,0.13229166 0 0 1 0.132292,0.132292 z"
           transform="translate(18.124,15.6671)"
           id="path4291" />
        <path
           style="opacity:1;vector-effect:none;fill:#0084c8;fill-rule:evenodd;stroke:#0084c8;stroke-width:0.264583;stop-color:#000000;stop-opacity:1"
           d="m 37.570833,73.157288 a 0.13229166,0.13229166 0 0 1 -0.132292,0.132291 0.13229166,0.13229166 0 0 1 -0.132291,-0.132291 0.13229166,0.13229166 0 0 1 0.132291,-0.132292 0.13229166,0.13229166 0 0 1 0.132292,0.132292 z"
           transform="translate(18.124,16.4231)"
           id="path4293" />
        <path
           style="opacity:1;vector-effect:none;fill:#0084c8;fill-rule:evenodd;stroke:#0084c8;stroke-width:0.264583;stop-color:#000000;stop-opacity:1"
           d="m 37.570833,73.157288 a 0.13229166,0.13229166 0 0 1 -0.132292,0.132291 0.13229166,0.13229166 0 0 1 -0.132291,-0.132291 0.13229166,0.13229166 0 0 1 0.132291,-0.132292 0.13229166,0.13229166 0 0 1 0.132292,0.132292 z"
           transform="translate(18.124,17.179)"
           id="path4295" />
        <path
           style="opacity:1;vector-effect:none;fill:#0084c8;fill-rule:evenodd;stroke:#0084c8;stroke-width:0.264583;stop-color:#000000;stop-opacity:1"
           d="m 37.570833,73.157288 a 0.13229166,0.13229166 0 0 1 -0.132292,0.132291 0.13229166,0.13229166 0 0 1 -0.132291,-0.132291 0.13229166,0.13229166 0 0 1 0.132291,-0.132292 0.13229166,0.13229166 0 0 1 0.132292,0.132292 z"
           transform="translate(18.124,17.935)"
           id="path4297" />
        <path
           style="opacity:1;vector-effect:none;fill:#0084c8;fill-rule:evenodd;stroke:#0084c8;stroke-width:0.264583;stop-color:#000000;stop-opacity:1"
           d="m 37.570833,73.157288 a 0.13229166,0.13229166 0 0 1 -0.132292,0.132291 0.13229166,0.13229166 0 0 1 -0.132291,-0.132291 0.13229166,0.13229166 0 0 1 0.132291,-0.132292 0.13229166,0.13229166 0 0 1 0.132292,0.132292 z"
           transform="translate(18.124,18.6909)"
           id="path4299" />
        <path
           style="opacity:1;vector-effect:none;fill:#0084c8;fill-rule:evenodd;stroke:#0084c8;stroke-width:0.264583;stop-color:#000000;stop-opacity:1"
           d="m 37.570833,73.157288 a 0.13229166,0.13229166 0 0 1 -0.132292,0.132291 0.13229166,0.13229166 0 0 1 -0.132291,-0.132291 0.13229166,0.13229166 0 0 1 0.132291,-0.132292 0.13229166,0.13229166 0 0 1 0.132292,0.132292 z"
           transform="translate(18.124,19.4469)"
           id="path4301" />
        <path
           style="opacity:1;vector-effect:none;fill:#0084c8;fill-rule:evenodd;stroke:#0084c8;stroke-width:0.264583;stop-color:#000000;stop-opacity:1"
           d="m 37.570833,73.157288 a 0.13229166,0.13229166 0 0 1 -0.132292,0.132291 0.13229166,0.13229166 0 0 1 -0.132291,-0.132291 0.13229166,0.13229166 0 0 1 0.132291,-0.132292 0.13229166,0.13229166 0 0 1 0.132292,0.132292 z"
           transform="translate(18.124,20.2028)"
           id="path4303" />
        <path
           style="opacity:1;vector-effect:none;fill:#0084c8;fill-rule:evenodd;stroke:#0084c8;stroke-width:0.264583;stop-color:#000000;stop-opacity:1"
           d="m 37.570833,73.157288 a 0.13229166,0.13229166 0 0 1 -0.132292,0.132291 0.13229166,0.13229166 0 0 1 -0.132291,-0.132291 0.13229166,0.13229166 0 0 1 0.132291,-0.132292 0.13229166,0.13229166 0 0 1 0.132292,0.132292 z"
           transform="translate(18.124,20.9588)"
           id="path4305" />
        <path
           style="opacity:1;vector-effect:none;fill:#0084c8;fill-rule:evenodd;stroke:#0084c8;stroke-width:0.264583;stop-color:#000000;stop-opacity:1"
           d="m 37.570833,73.157288 a 0.13229166,0.13229166 0 0 1 -0.132292,0.132291 0.13229166,0.13229166 0 0 1 -0.132291,-0.132291 0.13229166,0.13229166 0 0 1 0.132291,-0.132292 0.13229166,0.13229166 0 0 1 0.132292,0.132292 z"
           transform="translate(18.124,21.7147)"
           id="path4307" />
        <path
           style="opacity:1;vector-effect:none;fill:#0084c8;fill-rule:evenodd;stroke:#0084c8;stroke-width:0.264583;stop-color:#000000;stop-opacity:1"
           d="m 37.570833,73.157288 a 0.13229166,0.13229166 0 0 1 -0.132292,0.132291 0.13229166,0.13229166 0 0 1 -0.132291,-0.132291 0.13229166,0.13229166 0 0 1 0.132291,-0.132292 0.13229166,0.13229166 0 0 1 0.132292,0.132292 z"
           transform="translate(18.124,22.4707)"
           id="path4309" />
        <path
           style="opacity:1;vector-effect:none;fill:#0084c8;fill-rule:evenodd;stroke:#0084c8;stroke-width:0.264583;stop-color:#000000;stop-opacity:1"
           d="m 37.570833,73.157288 a 0.13229166,0.13229166 0 0 1 -0.132292,0.132291 0.13229166,0.13229166 0 0 1 -0.132291,-0.132291 0.13229166,0.13229166 0 0 1 0.132291,-0.132292 0.13229166,0.13229166 0 0 1 0.132292,0.132292 z"
           transform="translate(18.124,23.2266)"
           id="path4311" />
        <path
           style="opacity:1;vector-effect:none;fill:#0084c8;fill-rule:evenodd;stroke:#0084c8;stroke-width:0.264583;stop-color:#000000;stop-opacity:1"
           d="m 37.570833,73.157288 a 0.13229166,0.13229166 0 0 1 -0.132292,0.132291 0.13229166,0.13229166 0 0 1 -0.132291,-0.132291 0.13229166,0.13229166 0 0 1 0.132291,-0.132292 0.13229166,0.13229166 0 0 1 0.132292,0.132292 z"
           transform="translate(18.124,23.9826)"
           id="path4313" />
        <path
           style="opacity:1;vector-effect:none;fill:#0084c8;fill-rule:evenodd;stroke:#0084c8;stroke-width:0.264583;stop-color:#000000;stop-opacity:1"
           d="m 37.570833,73.157288 a 0.13229166,0.13229166 0 0 1 -0.132292,0.132291 0.13229166,0.13229166 0 0 1 -0.132291,-0.132291 0.13229166,0.13229166 0 0 1 0.132291,-0.132292 0.13229166,0.13229166 0 0 1 0.132292,0.132292 z"
           transform="translate(18.124,24.7385)"
           id="path4315" />
        <path
           style="opacity:1;vector-effect:none;fill:#0084c8;fill-rule:evenodd;stroke:#0084c8;stroke-width:0.264583;stop-color:#000000;stop-opacity:1"
           d="m 37.570833,73.157288 a 0.13229166,0.13229166 0 0 1 -0.132292,0.132291 0.13229166,0.13229166 0 0 1 -0.132291,-0.132291 0.13229166,0.13229166 0 0 1 0.132291,-0.132292 0.13229166,0.13229166 0 0 1 0.132292,0.132292 z"
           transform="translate(18.124,25.4945)"
           id="path4317" />
        <path
           style="opacity:1;vector-effect:none;fill:#0084c8;fill-rule:evenodd;stroke:#0084c8;stroke-width:0.264583;stop-color:#000000;stop-opacity:1"
           d="m 37.570833,73.157288 a 0.13229166,0.13229166 0 0 1 -0.132292,0.132291 0.13229166,0.13229166 0 0 1 -0.132291,-0.132291 0.13229166,0.13229166 0 0 1 0.132291,-0.132292 0.13229166,0.13229166 0 0 1 0.132292,0.132292 z"
           transform="translate(18.124,26.2505)"
           id="path4319" />
        <path
           style="opacity:1;vector-effect:none;fill:#0084c8;fill-rule:evenodd;stroke:#0084c8;stroke-width:0.264583;stop-color:#000000;stop-opacity:1"
           d="m 37.570833,73.157288 a 0.13229166,0.13229166 0 0 1 -0.132292,0.132291 0.13229166,0.13229166 0 0 1 -0.132291,-0.132291 0.13229166,0.13229166 0 0 1 0.132291,-0.132292 0.13229166,0.13229166 0 0 1 0.132292,0.132292 z"
           transform="translate(18.124,27.0064)"
           id="path4321" />
        <path
           style="opacity:1;vector-effect:none;fill:#0084c8;fill-rule:evenodd;stroke:#0084c8;stroke-width:0.264583;stop-color:#000000;stop-opacity:1"
           d="m 37.570833,73.157288 a 0.13229166,0.13229166 0 0 1 -0.132292,0.132291 0.13229166,0.13229166 0 0 1 -0.132291,-0.132291 0.13229166,0.13229166 0 0 1 0.132291,-0.132292 0.13229166,0.13229166 0 0 1 0.132292,0.132292 z"
           transform="translate(18.124,27.7624)"
           id="path4323" />
        <path
           style="opacity:1;vector-effect:none;fill:#0084c8;fill-rule:evenodd;stroke:#0084c8;stroke-width:0.264583;stop-color:#000000;stop-opacity:1"
           d="m 37.570833,73.157288 a 0.13229166,0.13229166 0 0 1 -0.132292,0.132291 0.13229166,0.13229166 0 0 1 -0.132291,-0.132291 0.13229166,0.13229166 0 0 1 0.132291,-0.132292 0.13229166,0.13229166 0 0 1 0.132292,0.132292 z"
           transform="translate(18.124,28.5183)"
           id="path4325" />
        <path
           style="opacity:1;vector-effect:none;fill:#0084c8;fill-rule:evenodd;stroke:#0084c8;stroke-width:0.264583;stop-color:#000000;stop-opacity:1"
           d="m 37.570833,73.157288 a 0.13229166,0.13229166 0 0 1 -0.132292,0.132291 0.13229166,0.13229166 0 0 1 -0.132291,-0.132291 0.13229166,0.13229166 0 0 1 0.132291,-0.132292 0.13229166,0.13229166 0 0 1 0.132292,0.132292 z"
           transform="translate(18.124,29.2743)"
           id="path4327" />
        <path
           style="opacity:1;vector-effect:none;fill:#0084c8;fill-rule:evenodd;stroke:#0084c8;stroke-width:0.264583;stop-color:#000000;stop-opacity:1"
           d="m 37.570833,73.157288 a 0.13229166,0.13229166 0 0 1 -0.132292,0.132291 0.13229166,0.13229166 0 0 1 -0.132291,-0.132291 0.13229166,0.13229166 0 0 1 0.132291,-0.132292 0.13229166,0.13229166 0 0 1 0.132292,0.132292 z"
           transform="translate(18.124,30.0302)"
           id="path4329" />
        <path
           style="opacity:1;vector-effect:none;fill:#0084c8;fill-rule:evenodd;stroke:#0084c8;stroke-width:0.264583;stop-color:#000000;stop-opacity:1"
           d="m 37.570833,73.157288 a 0.13229166,0.13229166 0 0 1 -0.132292,0.132291 0.13229166,0.13229166 0 0 1 -0.132291,-0.132291 0.13229166,0.13229166 0 0 1 0.132291,-0.132292 0.13229166,0.13229166 0 0 1 0.132292,0.132292 z"
           transform="translate(18.124,30.7862)"
           id="path4331" />
        <path
           style="opacity:1;vector-effect:none;fill:#0084c8;fill-rule:evenodd;stroke:#0084c8;stroke-width:0.264583;stop-color:#000000;stop-opacity:1"
           d="m 37.570833,73.157288 a 0.13229166,0.13229166 0 0 1 -0.132292,0.132291 0.13229166,0.13229166 0 0 1 -0.132291,-0.132291 0.13229166,0.13229166 0 0 1 0.132291,-0.132292 0.13229166,0.13229166 0 0 1 0.132292,0.132292 z"
           transform="translate(18.124,31.5421)"
           id="path4333" />
        <path
           style="opacity:1;vector-effect:none;fill:#0084c8;fill-rule:evenodd;stroke:#0084c8;stroke-width:0.264583;stop-color:#000000;stop-opacity:1"
           d="m 37.570833,73.157288 a 0.13229166,0.13229166 0 0 1 -0.132292,0.132291 0.13229166,0.13229166 0 0 1 -0.132291,-0.132291 0.13229166,0.13229166 0 0 1 0.132291,-0.132292 0.13229166,0.13229166 0 0 1 0.132292,0.132292 z"
           transform="translate(18.124,32.2981)"
           id="path4335" />
        <path
           style="opacity:1;vector-effect:none;fill:#0084c8;fill-rule:evenodd;stroke:#0084c8;stroke-width:0.264583;stop-color:#000000;stop-opacity:1"
           d="m 37.570833,73.157288 a 0.13229166,0.13229166 0 0 1 -0.132292,0.132291 0.13229166,0.13229166 0 0 1 -0.132291,-0.132291 0.13229166,0.13229166 0 0 1 0.132291,-0.132292 0.13229166,0.13229166 0 0 1 0.132292,0.132292 z"
           transform="translate(18.124,33.054)"
           id="path4337" />
        <path
           style="opacity:1;vector-effect:none;fill:#0084c8;fill-rule:evenodd;stroke:#0084c8;stroke-width:0.264583;stop-color:#000000;stop-opacity:1"
           d="m 37.570833,73.157288 a 0.13229166,0.13229166 0 0 1 -0.132292,0.132291 0.13229166,0.13229166 0 0 1 -0.132291,-0.132291 0.13229166,0.13229166 0 0 1 0.132291,-0.132292 0.13229166,0.13229166 0 0 1 0.132292,0.132292 z"
           transform="translate(18.124,33.81)"
           id="path4339" />
        <path
           style="opacity:1;vector-effect:none;fill:#0084c8;fill-rule:evenodd;stroke:#0084c8;stroke-width:0.264583;stop-color:#000000;stop-opacity:1"
           d="m 37.570833,73.157288 a 0.13229166,0.13229166 0 0 1 -0.132292,0.132291 0.13229166,0.13229166 0 0 1 -0.132291,-0.132291 0.13229166,0.13229166 0 0 1 0.132291,-0.132292 0.13229166,0.13229166 0 0 1 0.132292,0.132292 z"
           transform="translate(18.124,34.5659)"
           id="path4341" />
        <path
           style="opacity:1;vector-effect:none;fill:#0084c8;fill-rule:evenodd;stroke:#0084c8;stroke-width:0.264583;stop-color:#000000;stop-opacity:1"
           d="m 37.570833,73.157288 a 0.13229166,0.13229166 0 0 1 -0.132292,0.132291 0.13229166,0.13229166 0 0 1 -0.132291,-0.132291 0.13229166,0.13229166 0 0 1 0.132291,-0.132292 0.13229166,0.13229166 0 0 1 0.132292,0.132292 z"
           transform="translate(18.124,35.3219)"
           id="path4343" />
      </g>
      <g
         id="g5115"
         transform="translate(-1.8168453,-0.57374062)"
         style="fill:#ff9900;stroke:#ff9900">
        <path
           style="vector-effect:none;fill:#ff9900;fill-rule:evenodd;stroke:#ff9900;stroke-width:0.264583;stop-color:#000000"
           d="m 67.933517,87.93835 a 0.13229166,0.13229166 0 0 1 -0.132292,0.132291 0.13229166,0.13229166 0 0 1 -0.132291,-0.132291 0.13229166,0.13229166 0 0 1 0.132291,-0.132292 0.13229166,0.13229166 0 0 1 0.132292,0.132292 z"
           id="path4642" />
        <path
           style="vector-effect:none;fill:#ff9900;fill-rule:evenodd;stroke:#ff9900;stroke-width:0.264583;stop-color:#000000"
           d="m 68.954711,89.033514 a 0.13229166,0.13229166 0 0 1 -0.132292,0.132291 0.13229166,0.13229166 0 0 1 -0.132291,-0.132291 0.13229166,0.13229166 0 0 1 0.132291,-0.132292 0.13229166,0.13229166 0 0 1 0.132292,0.132292 z"
           id="path4644" />
        <path
           style="vector-effect:none;fill:#ff9900;fill-rule:evenodd;stroke:#ff9900;stroke-width:0.264583;stop-color:#000000"
           d="M 67.629892,89.892858 A 0.13229166,0.13229166 0 0 1 67.4976,90.025149 0.13229166,0.13229166 0 0 1 67.365309,89.892858 0.13229166,0.13229166 0 0 1 67.4976,89.760566 0.13229166,0.13229166 0 0 1 67.629892,89.892858 Z"
           id="path4646" />
        <path
           style="vector-effect:none;fill:#ff9900;fill-rule:evenodd;stroke:#ff9900;stroke-width:0.264583;stop-color:#000000"
           d="m 72.760417,92.604167 a 0.13229166,0.13229166 0 0 1 -0.132292,0.132291 0.13229166,0.13229166 0 0 1 -0.132291,-0.132291 0.13229166,0.13229166 0 0 1 0.132291,-0.132292 0.13229166,0.13229166 0 0 1 0.132292,0.132292 z"
           id="path4648" />
        <path
           style="vector-effect:none;fill:#ff9900;fill-rule:evenodd;stroke:#ff9900;stroke-width:0.264583;stop-color:#000000"
           d="m 70.488317,89.64155 a 0.13229166,0.13229166 0 0 1 -0.132292,0.132291 0.13229166,0.13229166 0 0 1 -0.132291,-0.132291 0.13229166,0.13229166 0 0 1 0.132291,-0.132292 0.13229166,0.13229166 0 0 1 0.132292,0.132292 z"
           id="path4650" />
        <path
           style="vector-effect:none;fill:#ff9900;fill-rule:evenodd;stroke:#ff9900;stroke-width:0.264583;stop-color:#000000"
           d="M 74.083333,87.3125 A 0.13229166,0.13229166 0 0 1 73.951041,87.444791 0.13229166,0.13229166 0 0 1 73.81875,87.3125 0.13229166,0.13229166 0 0 1 73.951041,87.180208 0.13229166,0.13229166 0 0 1 74.083333,87.3125 Z"
           id="path4652" />
        <path
           style="vector-effect:none;fill:#ff9900;fill-rule:evenodd;stroke:#ff9900;stroke-width:0.264583;stop-color:#000000"
           d="m 71.765717,90.49315 a 0.13229166,0.13229166 0 0 1 -0.132292,0.132291 0.13229166,0.13229166 0 0 1 -0.132291,-0.132291 0.13229166,0.13229166 0 0 1 0.132291,-0.132292 0.13229166,0.13229166 0 0 1 0.132292,0.132292 z"
           id="path4654" />
        <path
           style="vector-effect:none;fill:#ff9900;fill-rule:evenodd;stroke:#ff9900;stroke-width:0.264583;stop-color:#000000"
           d="m 75.40625,91.28125 a 0.13229166,0.13229166 0 0 1 -0.132292,0.132291 0.13229166,0.13229166 0 0 1 -0.132291,-0.132291 0.13229166,0.13229166 0 0 1 0.132291,-0.132292 0.13229166,0.13229166 0 0 1 0.132292,0.132292 z"
           id="path4656" />
        <path
           style="vector-effect:none;fill:#ff9900;fill-rule:evenodd;stroke:#ff9900;stroke-width:0.264583;stop-color:#000000"
           d="M 72.760417,95.25 A 0.13229166,0.13229166 0 0 1 72.628125,95.382291 0.13229166,0.13229166 0 0 1 72.495834,95.25 0.13229166,0.13229166 0 0 1 72.628125,95.117708 0.13229166,0.13229166 0 0 1 72.760417,95.25 Z"
           id="path4658" />
        <path
           style="vector-effect:none;fill:#ff9900;fill-rule:evenodd;stroke:#ff9900;stroke-width:0.264583;stop-color:#000000"
           d="m 69.827417,91.10285 a 0.13229166,0.13229166 0 0 1 -0.132292,0.132291 0.13229166,0.13229166 0 0 1 -0.132291,-0.132291 0.13229166,0.13229166 0 0 1 0.132291,-0.132292 0.13229166,0.13229166 0 0 1 0.132292,0.132292 z"
           id="path4660" />
        <path
           style="vector-effect:none;fill:#ff9900;fill-rule:evenodd;stroke:#ff9900;stroke-width:0.264583;stop-color:#000000"
           d="M 70.114583,93.927083 A 0.13229166,0.13229166 0 0 1 69.982291,94.059374 0.13229166,0.13229166 0 0 1 69.85,93.927083 a 0.13229166,0.13229166 0 0 1 0.132291,-0.132292 0.13229166,0.13229166 0 0 1 0.132292,0.132292 z"
           id="path4662" />
        <path
           style="vector-effect:none;fill:#ff9900;fill-rule:evenodd;stroke:#ff9900;stroke-width:0.264583;stop-color:#000000"
           d="m 68.338017,91.47525 a 0.13229166,0.13229166 0 0 1 -0.132292,0.132291 0.13229166,0.13229166 0 0 1 -0.132291,-0.132291 0.13229166,0.13229166 0 0 1 0.132291,-0.132292 0.13229166,0.13229166 0 0 1 0.132292,0.132292 z"
           id="path4664" />
        <path
           style="vector-effect:none;fill:#ff9900;fill-rule:evenodd;stroke:#ff9900;stroke-width:0.264583;stop-color:#000000"
           d="m 67.593317,91.66145 a 0.13229166,0.13229166 0 0 1 -0.132292,0.132291 0.13229166,0.13229166 0 0 1 -0.132291,-0.132291 0.13229166,0.13229166 0 0 1 0.132291,-0.132292 0.13229166,0.13229166 0 0 1 0.132292,0.132292 z"
           id="path4666" />
        <path
           style="vector-effect:none;fill:#ff9900;fill-rule:evenodd;stroke:#ff9900;stroke-width:0.264583;stop-color:#000000"
           d="m 66.145833,89.958333 a 0.13229166,0.13229166 0 0 1 -0.132292,0.132291 0.13229166,0.13229166 0 0 1 -0.132291,-0.132291 0.13229166,0.13229166 0 0 1 0.132291,-0.132292 0.13229166,0.13229166 0 0 1 0.132292,0.132292 z"
           id="path4668" />
        <path
           style="vector-effect:none;fill:#ff9900;fill-rule:evenodd;stroke:#ff9900;stroke-width:0.264583;stop-color:#000000"
           d="m 68.322015,93.282861 a 0.13229166,0.13229166 0 0 1 -0.132292,0.132291 0.13229166,0.13229166 0 0 1 -0.132291,-0.132291 0.13229166,0.13229166 0 0 1 0.132291,-0.132292 0.13229166,0.13229166 0 0 1 0.132292,0.132292 z"
           id="path4670" />
        <path
           style="vector-effect:none;fill:#ff9900;fill-rule:evenodd;stroke:#ff9900;stroke-width:0.264583;stop-color:#000000"
           d="m 64.822917,93.927083 a 0.13229166,0.13229166 0 0 1 -0.132292,0.132291 0.13229166,0.13229166 0 0 1 -0.132291,-0.132291 0.13229166,0.13229166 0 0 1 0.132291,-0.132292 0.13229166,0.13229166 0 0 1 0.132292,0.132292 z"
           id="path4672" />
        <path
           style="vector-effect:none;fill:#ff9900;fill-rule:evenodd;stroke:#ff9900;stroke-width:0.264583;stop-color:#000000"
           d="m 66.948817,93.93655 a 0.13229166,0.13229166 0 0 1 -0.132292,0.132291 0.13229166,0.13229166 0 0 1 -0.132291,-0.132291 0.13229166,0.13229166 0 0 1 0.132291,-0.132292 0.13229166,0.13229166 0 0 1 0.132292,0.132292 z"
           id="path4674" />
        <path
           style="vector-effect:none;fill:#ff9900;fill-rule:evenodd;stroke:#ff9900;stroke-width:0.264583;stop-color:#000000"
           d="m 65.449419,95.267491 a 0.13229166,0.13229166 0 0 1 -0.132292,0.132291 0.13229166,0.13229166 0 0 1 -0.132291,-0.132291 0.13229166,0.13229166 0 0 1 0.132291,-0.132292 0.13229166,0.13229166 0 0 1 0.132292,0.132292 z"
           id="path4676" />
        <path
           style="vector-effect:none;fill:#ff9900;fill-rule:evenodd;stroke:#ff9900;stroke-width:0.264583;stop-color:#000000"
           d="m 71.4375,96.572917 a 0.13229166,0.13229166 0 0 1 -0.132292,0.132291 0.13229166,0.13229166 0 0 1 -0.132291,-0.132291 0.13229166,0.13229166 0 0 1 0.132291,-0.132292 0.13229166,0.13229166 0 0 1 0.132292,0.132292 z"
           id="path4678" />
        <path
           style="vector-effect:none;fill:#ff9900;fill-rule:evenodd;stroke:#ff9900;stroke-width:0.264583;stop-color:#000000"
           d="m 67.327417,96.20805 a 0.13229166,0.13229166 0 0 1 -0.132292,0.132291 0.13229166,0.13229166 0 0 1 -0.132291,-0.132291 0.13229166,0.13229166 0 0 1 0.132291,-0.132292 0.13229166,0.13229166 0 0 1 0.132292,0.132292 z"
           id="path4680" />
        <path
           style="vector-effect:none;fill:#ff9900;fill-rule:evenodd;stroke:#ff9900;stroke-width:0.264583;stop-color:#000000"
           d="m 68.791667,96.572917 a 0.13229166,0.13229166 0 0 1 -0.132292,0.132291 0.13229166,0.13229166 0 0 1 -0.132291,-0.132291 0.13229166,0.13229166 0 0 1 0.132291,-0.132292 0.13229166,0.13229166 0 0 1 0.132292,0.132292 z"
           id="path4682" />
        <path
           style="vector-effect:none;fill:#ff9900;fill-rule:evenodd;stroke:#ff9900;stroke-width:0.264583;stop-color:#000000"
           d="m 67.579817,97.72245 a 0.13229166,0.13229166 0 0 1 -0.132292,0.132291 0.13229166,0.13229166 0 0 1 -0.132291,-0.132291 0.13229166,0.13229166 0 0 1 0.132291,-0.132292 0.13229166,0.13229166 0 0 1 0.132292,0.132292 z"
           id="path4684" />
        <path
           style="vector-effect:none;fill:#ff9900;fill-rule:evenodd;stroke:#ff9900;stroke-width:0.264583;stop-color:#000000"
           d="m 66.145833,100.54167 a 0.13229166,0.13229166 0 0 1 -0.132292,0.13229 0.13229166,0.13229166 0 0 1 -0.132291,-0.13229 0.13229166,0.13229166 0 0 1 0.132291,-0.1323 0.13229166,0.13229166 0 0 1 0.132292,0.1323 z"
           id="path4686" />
        <path
           style="vector-effect:none;fill:#ff9900;fill-rule:evenodd;stroke:#ff9900;stroke-width:0.264583;stop-color:#000000"
           d="m 65.441631,98.280516 a 0.13229166,0.13229166 0 0 1 -0.132292,0.132291 0.13229166,0.13229166 0 0 1 -0.132291,-0.132291 0.13229166,0.13229166 0 0 1 0.132291,-0.132292 0.13229166,0.13229166 0 0 1 0.132292,0.132292 z"
           id="path4688" />
        <path
           style="vector-effect:none;fill:#ff9900;fill-rule:evenodd;stroke:#ff9900;stroke-width:0.264583;stop-color:#000000"
           d="m 68.080417,99.80785 a 0.13229166,0.13229166 0 0 1 -0.132292,0.132291 0.13229166,0.13229166 0 0 1 -0.132291,-0.132291 0.13229166,0.13229166 0 0 1 0.132291,-0.132292 0.13229166,0.13229166 0 0 1 0.132292,0.132292 z"
           id="path4690" />
        <path
           style="vector-effect:none;fill:#ff9900;fill-rule:evenodd;stroke:#ff9900;stroke-width:0.264583;stop-color:#000000"
           d="m 69.303234,98.474269 a 0.13229166,0.13229166 0 0 1 -0.132292,0.132291 0.13229166,0.13229166 0 0 1 -0.132291,-0.132291 0.13229166,0.13229166 0 0 1 0.132291,-0.132292 0.13229166,0.13229166 0 0 1 0.132292,0.132292 z"
           id="path4692" />
        <path
           style="vector-effect:none;fill:#ff9900;fill-rule:evenodd;stroke:#ff9900;stroke-width:0.264583;stop-color:#000000"
           d="m 70.114583,100.54167 a 0.13229166,0.13229166 0 0 1 -0.132292,0.13229 0.13229166,0.13229166 0 0 1 -0.132291,-0.13229 0.13229166,0.13229166 0 0 1 0.132291,-0.1323 0.13229166,0.13229166 0 0 1 0.132292,0.1323 z"
           id="path4694" />
        <path
           style="vector-effect:none;fill:#ff9900;fill-rule:evenodd;stroke:#ff9900;stroke-width:0.264583;stop-color:#000000"
           d="m 68.791667,101.86458 a 0.13229166,0.13229166 0 0 1 -0.132292,0.13229 0.13229166,0.13229166 0 0 1 -0.132291,-0.13229 0.13229166,0.13229166 0 0 1 0.132291,-0.13229 0.13229166,0.13229166 0 0 1 0.132292,0.13229 z"
           id="path4696" />
        <path
           style="vector-effect:none;fill:#ff9900;fill-rule:evenodd;stroke:#ff9900;stroke-width:0.264583;stop-color:#000000"
           d="m 71.059217,99.06315 a 0.13229166,0.13229166 0 0 1 -0.132292,0.132291 0.13229166,0.13229166 0 0 1 -0.132291,-0.132291 0.13229166,0.13229166 0 0 1 0.132291,-0.132292 0.13229166,0.13229166 0 0 1 0.132292,0.132292 z"
           id="path4698" />
        <path
           style="vector-effect:none;fill:#ff9900;fill-rule:evenodd;stroke:#ff9900;stroke-width:0.264583;stop-color:#000000"
           d="m 75.341984,97.825192 a 0.13229166,0.13229166 0 0 1 -0.132292,0.132291 0.13229166,0.13229166 0 0 1 -0.132291,-0.132291 0.13229166,0.13229166 0 0 1 0.132291,-0.132292 0.13229166,0.13229166 0 0 1 0.132292,0.132292 z"
           id="path4700" />
        <path
           style="vector-effect:none;fill:#ff9900;fill-rule:evenodd;stroke:#ff9900;stroke-width:0.264583;stop-color:#000000"
           d="m 75.226073,94.196548 a 0.13229166,0.13229166 0 0 1 -0.132292,0.132291 0.13229166,0.13229166 0 0 1 -0.132291,-0.132291 0.13229166,0.13229166 0 0 1 0.132291,-0.132292 0.13229166,0.13229166 0 0 1 0.132292,0.132292 z"
           id="path4702" />
        <path
           style="vector-effect:none;fill:#ff9900;fill-rule:evenodd;stroke:#ff9900;stroke-width:0.264583;stop-color:#000000"
           d="m 78.636753,107.7599 a 0.13229166,0.13229166 0 0 1 -0.132292,0.13229 0.13229166,0.13229166 0 0 1 -0.132291,-0.13229 0.13229166,0.13229166 0 0 1 0.132291,-0.13229 0.13229166,0.13229166 0 0 1 0.132292,0.13229 z"
           id="path4704" />
        <path
           style="vector-effect:none;fill:#ff9900;fill-rule:evenodd;stroke:#ff9900;stroke-width:0.264583;stop-color:#000000"
           d="m 76.729167,100.54167 a 0.13229166,0.13229166 0 0 1 -0.132292,0.13229 0.13229166,0.13229166 0 0 1 -0.132291,-0.13229 0.13229166,0.13229166 0 0 1 0.132291,-0.1323 0.13229166,0.13229166 0 0 1 0.132292,0.1323 z"
           id="path4706" />
        <path
           style="vector-effect:none;fill:#ff9900;fill-rule:evenodd;stroke:#ff9900;stroke-width:0.264583;stop-color:#000000"
           d="m 74.534056,100.52681 a 0.13229166,0.13229166 0 0 1 -0.132292,0.1323 0.13229166,0.13229166 0 0 1 -0.132291,-0.1323 0.13229166,0.13229166 0 0 1 0.132291,-0.13229 0.13229166,0.13229166 0 0 1 0.132292,0.13229 z"
           id="path4708" />
        <path
           style="vector-effect:none;fill:#ff9900;fill-rule:evenodd;stroke:#ff9900;stroke-width:0.264583;stop-color:#000000"
           d="m 71.908917,100.49615 a 0.13229166,0.13229166 0 0 1 -0.132292,0.13229 0.13229166,0.13229166 0 0 1 -0.132291,-0.13229 0.13229166,0.13229166 0 0 1 0.132291,-0.13229 0.13229166,0.13229166 0 0 1 0.132292,0.13229 z"
           id="path4710" />
        <path
           style="vector-effect:none;fill:#ff9900;fill-rule:evenodd;stroke:#ff9900;stroke-width:0.264583;stop-color:#000000"
           d="m 72.760417,103.1875 a 0.13229166,0.13229166 0 0 1 -0.132292,0.13229 0.13229166,0.13229166 0 0 1 -0.132291,-0.13229 0.13229166,0.13229166 0 0 1 0.132291,-0.13229 0.13229166,0.13229166 0 0 1 0.132292,0.13229 z"
           id="path4712" />
        <path
           style="vector-effect:none;fill:#ff9900;fill-rule:evenodd;stroke:#ff9900;stroke-width:0.264583;stop-color:#000000"
           d="m 74.21289,102.34729 a 0.13229166,0.13229166 0 0 1 -0.132292,0.13229 0.13229166,0.13229166 0 0 1 -0.132291,-0.13229 0.13229166,0.13229166 0 0 1 0.132291,-0.13229 0.13229166,0.13229166 0 0 1 0.132292,0.13229 z"
           id="path4714" />
        <path
           style="vector-effect:none;fill:#ff9900;fill-rule:evenodd;stroke:#ff9900;stroke-width:0.264583;stop-color:#000000"
           d="m 70.631517,102.41225 a 0.13229166,0.13229166 0 0 1 -0.132292,0.13229 0.13229166,0.13229166 0 0 1 -0.132291,-0.13229 0.13229166,0.13229166 0 0 1 0.132291,-0.13229 0.13229166,0.13229166 0 0 1 0.132292,0.13229 z"
           id="path4716" />
        <path
           style="vector-effect:none;fill:#ff9900;fill-rule:evenodd;stroke:#ff9900;stroke-width:0.264583;stop-color:#000000"
           d="m 68.379978,103.16405 a 0.13229166,0.13229166 0 0 1 -0.132292,0.13229 0.13229166,0.13229166 0 0 1 -0.132291,-0.13229 0.13229166,0.13229166 0 0 1 0.132291,-0.13229 0.13229166,0.13229166 0 0 1 0.132292,0.13229 z"
           id="path4718" />
        <path
           style="vector-effect:none;fill:#ff9900;fill-rule:evenodd;stroke:#ff9900;stroke-width:0.264583;stop-color:#000000"
           d="m 70.579317,103.93165 a 0.13229166,0.13229166 0 0 1 -0.132292,0.13229 0.13229166,0.13229166 0 0 1 -0.132291,-0.13229 0.13229166,0.13229166 0 0 1 0.132291,-0.13229 0.13229166,0.13229166 0 0 1 0.132292,0.13229 z"
           id="path4720" />
        <path
           style="vector-effect:none;fill:#ff9900;fill-rule:evenodd;stroke:#ff9900;stroke-width:0.264583;stop-color:#000000"
           d="m 71.4375,107.79399 a 0.13229166,0.13229166 0 0 1 -0.132292,0.13229 0.13229166,0.13229166 0 0 1 -0.132291,-0.13229 0.13229166,0.13229166 0 0 1 0.132291,-0.13229 0.13229166,0.13229166 0 0 1 0.132292,0.13229 z"
           id="path4722" />
        <path
           style="vector-effect:none;fill:#ff9900;fill-rule:evenodd;stroke:#ff9900;stroke-width:0.264583;stop-color:#000000"
           d="m 70.579317,105.46695 a 0.13229166,0.13229166 0 0 1 -0.132292,0.13229 0.13229166,0.13229166 0 0 1 -0.132291,-0.13229 0.13229166,0.13229166 0 0 1 0.132291,-0.13229 0.13229166,0.13229166 0 0 1 0.132292,0.13229 z"
           id="path4724" />
        <path
           style="vector-effect:none;fill:#ff9900;fill-rule:evenodd;stroke:#ff9900;stroke-width:0.264583;stop-color:#000000"
           d="m 74.083333,105.83333 a 0.13229166,0.13229166 0 0 1 -0.132292,0.13229 0.13229166,0.13229166 0 0 1 -0.132291,-0.13229 0.13229166,0.13229166 0 0 1 0.132291,-0.13229 0.13229166,0.13229166 0 0 1 0.132292,0.13229 z"
           id="path4726" />
        <path
           style="vector-effect:none;fill:#ff9900;fill-rule:evenodd;stroke:#ff9900;stroke-width:0.264583;stop-color:#000000"
           d="m 70.093717,106.70205 a 0.13229166,0.13229166 0 0 1 -0.132292,0.13229 0.13229166,0.13229166 0 0 1 -0.132291,-0.13229 0.13229166,0.13229166 0 0 1 0.132291,-0.13229 0.13229166,0.13229166 0 0 1 0.132292,0.13229 z"
           id="path4728" />
        <path
           style="vector-effect:none;fill:#ff9900;fill-rule:evenodd;stroke:#ff9900;stroke-width:0.264583;stop-color:#000000"
           d="m 66.15592,104.08093 a 0.13229166,0.13229166 0 0 1 -0.132292,0.13229 0.13229166,0.13229166 0 0 1 -0.132291,-0.13229 0.13229166,0.13229166 0 0 1 0.132291,-0.13229 0.13229166,0.13229166 0 0 1 0.132292,0.13229 z"
           id="path4730" />
        <path
           style="vector-effect:none;fill:#ff9900;fill-rule:evenodd;stroke:#ff9900;stroke-width:0.264583;stop-color:#000000"
           d="m 68.720517,107.38855 a 0.13229166,0.13229166 0 0 1 -0.132292,0.13229 0.13229166,0.13229166 0 0 1 -0.132291,-0.13229 0.13229166,0.13229166 0 0 1 0.132291,-0.13229 0.13229166,0.13229166 0 0 1 0.132292,0.13229 z"
           id="path4732" />
        <path
           style="vector-effect:none;fill:#ff9900;fill-rule:evenodd;stroke:#ff9900;stroke-width:0.264583;stop-color:#000000"
           d="m 67.173406,106.77562 a 0.13229166,0.13229166 0 0 1 -0.132292,0.13229 0.13229166,0.13229166 0 0 1 -0.132291,-0.13229 0.13229166,0.13229166 0 0 1 0.132291,-0.13229 0.13229166,0.13229166 0 0 1 0.132292,0.13229 z"
           id="path4734" />
        <path
           style="vector-effect:none;fill:#ff9900;fill-rule:evenodd;stroke:#ff9900;stroke-width:0.264583;stop-color:#000000"
           d="m 67.347417,108.07515 a 0.13229166,0.13229166 0 0 1 -0.132292,0.13229 0.13229166,0.13229166 0 0 1 -0.132291,-0.13229 0.13229166,0.13229166 0 0 1 0.132291,-0.13229 0.13229166,0.13229166 0 0 1 0.132292,0.13229 z"
           id="path4736" />
        <path
           style="vector-effect:none;fill:#ff9900;fill-rule:evenodd;stroke:#ff9900;stroke-width:0.264583;stop-color:#000000"
           d="m 66.660817,108.41845 a 0.13229166,0.13229166 0 0 1 -0.132292,0.13229 0.13229166,0.13229166 0 0 1 -0.132291,-0.13229 0.13229166,0.13229166 0 0 1 0.132291,-0.13229 0.13229166,0.13229166 0 0 1 0.132292,0.13229 z"
           id="path4738" />
        <path
           style="vector-effect:none;fill:#ff9900;fill-rule:evenodd;stroke:#ff9900;stroke-width:0.264583;stop-color:#000000"
           d="m 68.651673,109.52674 a 0.13229166,0.13229166 0 0 1 -0.132292,0.13229 0.13229166,0.13229166 0 0 1 -0.132291,-0.13229 0.13229166,0.13229166 0 0 1 0.132291,-0.13229 0.13229166,0.13229166 0 0 1 0.132292,0.13229 z"
           id="path4740" />
        <path
           style="vector-effect:none;fill:#ff9900;fill-rule:evenodd;stroke:#ff9900;stroke-width:0.264583;stop-color:#000000"
           d="m 65.287717,109.10505 a 0.13229166,0.13229166 0 0 1 -0.132292,0.13229 0.13229166,0.13229166 0 0 1 -0.132291,-0.13229 0.13229166,0.13229166 0 0 1 0.132291,-0.13229 0.13229166,0.13229166 0 0 1 0.132292,0.13229 z"
           id="path4742" />
        <path
           style="vector-effect:none;fill:#ff9900;fill-rule:evenodd;stroke:#ff9900;stroke-width:0.264583;stop-color:#000000"
           d="m 82.020833,99.21875 a 0.13229166,0.13229166 0 0 1 -0.132292,0.13229 0.13229166,0.13229166 0 0 1 -0.132291,-0.13229 0.13229166,0.13229166 0 0 1 0.132291,-0.1323 0.13229166,0.13229166 0 0 1 0.132292,0.1323 z"
           id="path4945" />
        <path
           style="vector-effect:none;fill:#ff9900;fill-rule:evenodd;stroke:#ff9900;stroke-width:0.264583;stop-color:#000000"
           d="m 77.940648,96.206234 a 0.13229166,0.13229166 0 0 1 -0.132292,0.13229 0.13229166,0.13229166 0 0 1 -0.132291,-0.13229 0.13229166,0.13229166 0 0 1 0.132291,-0.1323 0.13229166,0.13229166 0 0 1 0.132292,0.1323 z"
           id="path4947" />
        <path
           style="vector-effect:none;fill:#ff9900;fill-rule:evenodd;stroke:#ff9900;stroke-width:0.264583;stop-color:#000000"
           d="m 82.020833,93.927083 a 0.13229166,0.13229166 0 0 1 -0.132292,0.13229 0.13229166,0.13229166 0 0 1 -0.132291,-0.13229 0.13229166,0.13229166 0 0 1 0.132291,-0.1323 0.13229166,0.13229166 0 0 1 0.132292,0.1323 z"
           id="path4949" />
        <path
           style="vector-effect:none;fill:#ff9900;fill-rule:evenodd;stroke:#ff9900;stroke-width:0.264583;stop-color:#000000"
           d="m 78.052083,92.604167 a 0.13229166,0.13229166 0 0 1 -0.132292,0.13229 0.13229166,0.13229166 0 0 1 -0.132291,-0.13229 0.13229166,0.13229166 0 0 1 0.132291,-0.1323 0.13229166,0.13229166 0 0 1 0.132292,0.1323 z"
           id="path4951" />
        <path
           style="vector-effect:none;fill:#ff9900;fill-rule:evenodd;stroke:#ff9900;stroke-width:0.264583;stop-color:#000000"
           d="m 83.34375,91.28125 a 0.13229166,0.13229166 0 0 1 -0.132292,0.13229 0.13229166,0.13229166 0 0 1 -0.132291,-0.13229 0.13229166,0.13229166 0 0 1 0.132291,-0.1323 0.13229166,0.13229166 0 0 1 0.132292,0.1323 z"
           id="path4953" />
        <path
           style="vector-effect:none;fill:#ff9900;fill-rule:evenodd;stroke:#ff9900;stroke-width:0.264583;stop-color:#000000"
           d="m 84.666667,96.572917 a 0.13229166,0.13229166 0 0 1 -0.132292,0.13229 0.13229166,0.13229166 0 0 1 -0.132291,-0.13229 0.13229166,0.13229166 0 0 1 0.132291,-0.1323 0.13229166,0.13229166 0 0 1 0.132292,0.1323 z"
           id="path4955" />
        <path
           style="vector-effect:none;fill:#ff9900;fill-rule:evenodd;stroke:#ff9900;stroke-width:0.264583;stop-color:#000000"
           d="m 79.375,97.895833 a 0.13229166,0.13229166 0 0 1 -0.132292,0.13229 0.13229166,0.13229166 0 0 1 -0.132291,-0.13229 0.13229166,0.13229166 0 0 1 0.132291,-0.1323 0.13229166,0.13229166 0 0 1 0.132292,0.1323 z"
           id="path4957" />
      </g>
    </g>
  </g>
</svg>
