<?xml version="1.0" encoding="UTF-8" standalone="no"?>
<!-- Created with Inkscape (http://www.inkscape.org/) -->

<svg
   width="50.186813mm"
   height="47.802574mm"
   viewBox="0 0 50.186813 47.802574"
   version="1.1"
   id="svg5"
   sodipodi:docname="poq_circle2.svg"
   inkscape:version="1.1 (c4e8f9e, 2021-05-24)"
   xmlns:inkscape="http://www.inkscape.org/namespaces/inkscape"
   xmlns:sodipodi="http://sodipodi.sourceforge.net/DTD/sodipodi-0.dtd"
   xmlns="http://www.w3.org/2000/svg"
   xmlns:svg="http://www.w3.org/2000/svg"
   xmlns:ns26="http://www.iki.fi/pav/software/textext/">
  <sodipodi:namedview
     id="namedview7"
     pagecolor="#ffffff"
     bordercolor="#666666"
     borderopacity="1.0"
     inkscape:pageshadow="2"
     inkscape:pageopacity="0.0"
     inkscape:pagecheckerboard="0"
     inkscape:document-units="mm"
     showgrid="false"
     inkscape:snap-center="true"
     inkscape:zoom="2.2528974"
     inkscape:cx="117.40437"
     inkscape:cy="109.85853"
     inkscape:window-width="1440"
     inkscape:window-height="847"
     inkscape:window-x="0"
     inkscape:window-y="25"
     inkscape:window-maximized="0"
     inkscape:current-layer="layer1"
     inkscape:snap-global="true">
    <inkscape:grid
       type="xygrid"
       id="grid824"
       originx="-76.729169"
       originy="-76.551599" />
  </sodipodi:namedview>
  <defs
     id="defs2">
    <defs
       id="id-ee963410-1317-44ad-bebc-fc20c7c3db8b">
      <g
         id="id-82679072-68d2-4bb3-8900-3374c3ffadf6">
        <symbol
           overflow="visible"
           id="id-7d52602c-3502-46f9-a1ea-8895cd4c21f8">
          <path
             style="stroke:none;stroke-width:0"
             d=""
             id="id-afaf2da7-dc9b-496c-a0f4-0d537ae3c215" />
        </symbol>
        <symbol
           overflow="visible"
           id="id-43b2d493-a633-4d72-9096-3ed377bfb17d">
          <path
             style="stroke:none;stroke-width:0"
             d="M 3.015625,-3.15625 H 4.71875 c 1.40625,0 2.796875,-1.03125 2.796875,-2.140625 0,-0.78125 -0.65625,-1.515625 -1.96875,-1.515625 h -3.21875 c -0.1875,0 -0.296875,0 -0.296875,0.1875 0,0.125 0.078125,0.125 0.28125,0.125 0.125,0 0.3125,0.015625 0.421875,0.015625 0.171875,0.03125 0.21875,0.046875 0.21875,0.171875 0,0.03125 0,0.0625 -0.03125,0.1875 l -1.34375,5.34375 c -0.09375,0.390625 -0.109375,0.46875 -0.90625,0.46875 -0.15625,0 -0.265625,0 -0.265625,0.1875 C 0.40625,0 0.515625,0 0.546875,0 0.828125,0 1.53125,-0.03125 1.8125,-0.03125 c 0.21875,0 0.4375,0.015625 0.640625,0.015625 0.21875,0 0.4375,0.015625 0.640625,0.015625 0.078125,0 0.203125,0 0.203125,-0.203125 0,-0.109375 -0.09375,-0.109375 -0.28125,-0.109375 -0.359375,0 -0.640625,0 -0.640625,-0.171875 0,-0.0625 0.015625,-0.109375 0.03125,-0.171875 z M 3.734375,-6.125 C 3.828125,-6.46875 3.84375,-6.5 4.28125,-6.5 h 0.953125 c 0.828125,0 1.359375,0.265625 1.359375,0.953125 0,0.390625 -0.203125,1.25 -0.59375,1.609375 -0.5,0.453125 -1.09375,0.53125 -1.53125,0.53125 H 3.0625 Z m 0,0"
             id="id-4802a75d-a934-4892-88df-12ced6feef92" />
        </symbol>
        <symbol
           overflow="visible"
           id="id-c58fd0a2-5c44-41c8-8e1f-197b354ef51e">
          <path
             style="stroke:none;stroke-width:0"
             d="M 4.359375,-0.0625 C 5.90625,-0.640625 7.375,-2.421875 7.375,-4.34375 c 0,-1.609375 -1.0625,-2.6875 -2.546875,-2.6875 -2.140625,0 -4.34375,2.265625 -4.34375,4.59375 0,1.65625 1.125,2.65625 2.5625,2.65625 0.25,0 0.578125,-0.046875 0.96875,-0.15625 -0.03125,0.625 -0.03125,0.640625 -0.03125,0.78125 0,0.3125 0,1.09375 0.828125,1.09375 1.171875,0 1.65625,-1.828125 1.65625,-1.9375 0,-0.0625 -0.0625,-0.09375 -0.109375,-0.09375 -0.078125,0 -0.09375,0.046875 -0.125,0.109375 C 6,0.71875 5.421875,0.96875 5.078125,0.96875 c -0.46875,0 -0.609375,-0.265625 -0.71875,-1.03125 z m -1.875,-0.078125 c -0.78125,-0.3125 -1.125,-1.078125 -1.125,-1.984375 0,-0.6875 0.265625,-2.109375 1.015625,-3.171875 C 3.109375,-6.3125 4.046875,-6.78125 4.78125,-6.78125 5.765625,-6.78125 6.5,-6 6.5,-4.671875 c 0,1 -0.515625,3.34375 -2.1875,4.265625 -0.046875,-0.34375 -0.140625,-1.0625 -0.875,-1.0625 -0.53125,0 -1.015625,0.484375 -1.015625,1.015625 0,0.1875 0.0625,0.296875 0.0625,0.3125 z M 3.09375,-0.03125 c -0.140625,0 -0.453125,0 -0.453125,-0.421875 0,-0.40625 0.375,-0.796875 0.796875,-0.796875 0.421875,0 0.609375,0.234375 0.609375,0.84375 0,0.140625 -0.015625,0.15625 -0.109375,0.203125 C 3.671875,-0.09375 3.375,-0.03125 3.09375,-0.03125 Z m 0,0"
             id="id-1efa4e55-131e-475f-aa0c-10e87afa10b0" />
        </symbol>
        <symbol
           overflow="visible"
           id="id-eb4af8d0-db0d-40ba-a3fa-c0cd084c1961">
          <path
             style="stroke:none;stroke-width:0"
             d="m 4.53125,-4.984375 c 0,-0.65625 -0.171875,-2.046875 -1.1875,-2.046875 -1.390625,0 -2.921875,2.8125 -2.921875,5.09375 0,0.9375 0.28125,2.046875 1.1875,2.046875 1.40625,0 2.921875,-2.859375 2.921875,-5.09375 z M 1.46875,-3.625 C 1.640625,-4.25 1.84375,-5.046875 2.25,-5.765625 2.515625,-6.25 2.875,-6.8125 3.328125,-6.8125 c 0.484375,0 0.546875,0.640625 0.546875,1.203125 0,0.5 -0.078125,1 -0.3125,1.984375 z m 2,0.328125 C 3.359375,-2.84375 3.15625,-2 2.765625,-1.28125 c -0.34375,0.6875 -0.71875,1.171875 -1.15625,1.171875 -0.328125,0 -0.53125,-0.296875 -0.53125,-1.21875 0,-0.421875 0.0625,-1 0.3125,-1.96875 z m 0,0"
             id="id-5edcbb80-c194-41e5-9676-526e870d7b07" />
        </symbol>
        <symbol
           overflow="visible"
           id="id-5de30301-1d92-42ad-82e4-ee6789d7a0be">
          <path
             style="stroke:none;stroke-width:0"
             d="M 3.328125,-3.015625 C 3.390625,-3.265625 3.625,-4.1875 4.3125,-4.1875 c 0.046875,0 0.296875,0 0.5,0.125 C 4.53125,-4 4.34375,-3.765625 4.34375,-3.515625 c 0,0.15625 0.109375,0.34375 0.375,0.34375 0.21875,0 0.53125,-0.171875 0.53125,-0.578125 0,-0.515625 -0.578125,-0.65625 -0.921875,-0.65625 -0.578125,0 -0.921875,0.53125 -1.046875,0.75 -0.25,-0.65625 -0.78125,-0.75 -1.078125,-0.75 -1.03125,0 -1.609375,1.28125 -1.609375,1.53125 0,0.109375 0.109375,0.109375 0.125,0.109375 0.078125,0 0.109375,-0.03125 0.125,-0.109375 0.34375,-1.0625 1,-1.3125 1.34375,-1.3125 0.1875,0 0.53125,0.09375 0.53125,0.671875 0,0.3125 -0.171875,0.96875 -0.53125,2.375 -0.15625,0.609375 -0.515625,1.03125 -0.953125,1.03125 -0.0625,0 -0.28125,0 -0.5,-0.125 0.25,-0.0625 0.46875,-0.265625 0.46875,-0.546875 0,-0.265625 -0.21875,-0.34375 -0.359375,-0.34375 -0.3125,0 -0.546875,0.25 -0.546875,0.578125 0,0.453125 0.484375,0.65625 0.921875,0.65625 0.671875,0 1.03125,-0.703125 1.046875,-0.75 0.125,0.359375 0.484375,0.75 1.078125,0.75 1.03125,0 1.59375,-1.28125 1.59375,-1.53125 0,-0.109375 -0.078125,-0.109375 -0.109375,-0.109375 -0.09375,0 -0.109375,0.046875 -0.140625,0.109375 -0.328125,1.078125 -1,1.3125 -1.3125,1.3125 -0.390625,0 -0.546875,-0.3125 -0.546875,-0.65625 0,-0.21875 0.046875,-0.4375 0.15625,-0.875 z m 0,0"
             id="id-eab98def-fe5b-4d5e-8b43-daa16bb35f7b" />
        </symbol>
        <symbol
           overflow="visible"
           id="id-fdf480f2-a5ec-416e-855c-72eea043f7af">
          <path
             style="stroke:none;stroke-width:0"
             d="m 4.84375,-3.796875 c 0.046875,-0.140625 0.046875,-0.15625 0.046875,-0.234375 0,-0.171875 -0.140625,-0.265625 -0.296875,-0.265625 -0.09375,0 -0.25,0.0625 -0.34375,0.203125 -0.015625,0.0625 -0.109375,0.359375 -0.140625,0.546875 -0.078125,0.25 -0.140625,0.53125 -0.203125,0.796875 l -0.453125,1.796875 c -0.03125,0.140625 -0.46875,0.84375 -1.125,0.84375 -0.5,0 -0.609375,-0.4375 -0.609375,-0.8125 C 1.71875,-1.375 1.890625,-2 2.21875,-2.875 2.375,-3.28125 2.421875,-3.390625 2.421875,-3.59375 c 0,-0.4375 -0.3125,-0.8125 -0.8125,-0.8125 -0.953125,0 -1.3125,1.453125 -1.3125,1.53125 0,0.109375 0.09375,0.109375 0.109375,0.109375 0.109375,0 0.109375,-0.03125 0.15625,-0.1875 0.28125,-0.9375 0.671875,-1.234375 1.015625,-1.234375 0.078125,0 0.25,0 0.25,0.3125 0,0.25 -0.109375,0.515625 -0.171875,0.703125 -0.40625,1.0625 -0.578125,1.625 -0.578125,2.09375 0,0.890625 0.625,1.1875 1.21875,1.1875 0.390625,0 0.71875,-0.171875 1,-0.453125 -0.125,0.515625 -0.25,1.015625 -0.640625,1.546875 -0.265625,0.328125 -0.640625,0.625 -1.09375,0.625 -0.140625,0 -0.59375,-0.03125 -0.765625,-0.421875 0.15625,0 0.296875,0 0.421875,-0.125 C 1.328125,1.203125 1.421875,1.0625 1.421875,0.875 1.421875,0.5625 1.15625,0.53125 1.0625,0.53125 0.828125,0.53125 0.5,0.6875 0.5,1.171875 c 0,0.5 0.4375,0.875 1.0625,0.875 1.015625,0 2.046875,-0.90625 2.328125,-2.03125 z m 0,0"
             id="id-54005aa0-a4ee-443c-a567-5e1ac824c3c5" />
        </symbol>
        <symbol
           overflow="visible"
           id="id-0542f172-85d3-439c-ade1-48ba655e1a72">
          <path
             style="stroke:none;stroke-width:0"
             d="m 2.03125,-0.015625 c 0,-0.65625 -0.25,-1.046875 -0.640625,-1.046875 -0.328125,0 -0.53125,0.25 -0.53125,0.53125 C 0.859375,-0.265625 1.0625,0 1.390625,0 1.5,0 1.640625,-0.046875 1.734375,-0.125 1.765625,-0.15625 1.78125,-0.15625 1.78125,-0.15625 c 0.015625,0 0.015625,0 0.015625,0.140625 0,0.75 -0.34375,1.34375 -0.671875,1.671875 -0.109375,0.109375 -0.109375,0.125 -0.109375,0.15625 0,0.078125 0.046875,0.109375 0.09375,0.109375 0.109375,0 0.921875,-0.765625 0.921875,-1.9375 z m 0,0"
             id="id-362d5f76-9bc8-489f-821c-006a4bf7cdc0" />
        </symbol>
        <symbol
           overflow="visible"
           id="id-6a255be5-4822-4658-8e2b-5ba8003ba26b">
          <path
             style="stroke:none;stroke-width:0"
             d=""
             id="id-41933009-e3af-4329-8ac0-30d4649afd63" />
        </symbol>
        <symbol
           overflow="visible"
           id="id-028f5149-ff37-41f9-9f57-8419d4d47adb">
          <path
             style="stroke:none;stroke-width:0"
             d="m 2.9375,-6.375 c 0,-0.25 0,-0.265625 -0.234375,-0.265625 C 2.078125,-6 1.203125,-6 0.890625,-6 v 0.3125 c 0.203125,0 0.78125,0 1.296875,-0.265625 v 5.171875 c 0,0.359375 -0.03125,0.46875 -0.921875,0.46875 h -0.3125 V 0 c 0.34375,-0.03125 1.203125,-0.03125 1.609375,-0.03125 0.390625,0 1.265625,0 1.609375,0.03125 v -0.3125 h -0.3125 c -0.90625,0 -0.921875,-0.109375 -0.921875,-0.46875 z m 0,0"
             id="id-04c750a1-02c3-45fe-8275-d6314054c816" />
        </symbol>
        <symbol
           overflow="visible"
           id="id-953c3166-4d4b-4c50-862d-18accd8bdb8c">
          <path
             style="stroke:none;stroke-width:0"
             d="m 2.078125,-1.9375 c 0.21875,0.046875 1.03125,0.203125 1.03125,0.921875 0,0.5 -0.34375,0.90625 -1.125,0.90625 -0.84375,0 -1.203125,-0.5625 -1.390625,-1.421875 C 0.5625,-1.65625 0.5625,-1.6875 0.453125,-1.6875 c -0.125,0 -0.125,0.0625 -0.125,0.234375 V -0.125 c 0,0.171875 0,0.234375 0.109375,0.234375 0.046875,0 0.0625,-0.015625 0.25,-0.203125 0.015625,-0.015625 0.015625,-0.03125 0.203125,-0.21875 0.4375,0.40625 0.890625,0.421875 1.09375,0.421875 1.140625,0 1.609375,-0.671875 1.609375,-1.390625 0,-0.515625 -0.296875,-0.828125 -0.421875,-0.9375 C 2.84375,-2.546875 2.453125,-2.625 2.03125,-2.703125 1.46875,-2.8125 0.8125,-2.9375 0.8125,-3.515625 c 0,-0.359375 0.25,-0.765625 1.109375,-0.765625 1.09375,0 1.15625,0.90625 1.171875,1.203125 0,0.09375 0.09375,0.09375 0.109375,0.09375 0.140625,0 0.140625,-0.046875 0.140625,-0.234375 v -1.015625 c 0,-0.15625 0,-0.234375 -0.109375,-0.234375 -0.046875,0 -0.078125,0 -0.203125,0.125 -0.03125,0.03125 -0.125,0.125 -0.171875,0.15625 -0.375,-0.28125 -0.78125,-0.28125 -0.9375,-0.28125 -1.21875,0 -1.59375,0.671875 -1.59375,1.234375 0,0.34375 0.15625,0.625 0.421875,0.84375 0.328125,0.25 0.609375,0.3125 1.328125,0.453125 z m 0,0"
             id="id-a5157ad6-c09a-4774-8bcf-5638610a7f4e" />
        </symbol>
        <symbol
           overflow="visible"
           id="id-0f38f07e-e9b7-4f64-9570-ae898e83b09e">
          <path
             style="stroke:none;stroke-width:0"
             d="M 1.765625,-4.40625 0.375,-4.296875 v 0.3125 c 0.640625,0 0.734375,0.0625 0.734375,0.546875 V -0.75 c 0,0.4375 -0.109375,0.4375 -0.78125,0.4375 V 0 C 0.640625,-0.015625 1.1875,-0.03125 1.421875,-0.03125 1.78125,-0.03125 2.125,-0.015625 2.46875,0 v -0.3125 c -0.671875,0 -0.703125,-0.046875 -0.703125,-0.4375 z m 0.03125,-1.734375 c 0,-0.3125 -0.234375,-0.53125 -0.515625,-0.53125 -0.3125,0 -0.53125,0.265625 -0.53125,0.53125 0,0.265625 0.21875,0.53125 0.53125,0.53125 0.28125,0 0.515625,-0.21875 0.515625,-0.53125 z m 0,0"
             id="id-4f07dad7-e044-4973-92af-e29b8df0843c" />
        </symbol>
        <symbol
           overflow="visible"
           id="id-0205f185-3fab-461b-9e25-c7f4fcb6cd53">
          <path
             style="stroke:none;stroke-width:0"
             d="M 1.09375,-3.421875 V -0.75 c 0,0.4375 -0.109375,0.4375 -0.78125,0.4375 V 0 c 0.359375,-0.015625 0.859375,-0.03125 1.140625,-0.03125 0.25,0 0.765625,0.015625 1.109375,0.03125 v -0.3125 c -0.671875,0 -0.78125,0 -0.78125,-0.4375 V -2.59375 C 1.78125,-3.625 2.5,-4.1875 3.125,-4.1875 c 0.640625,0 0.75,0.53125 0.75,1.109375 V -0.75 c 0,0.4375 -0.109375,0.4375 -0.78125,0.4375 V 0 c 0.34375,-0.015625 0.859375,-0.03125 1.125,-0.03125 0.25,0 0.78125,0.015625 1.109375,0.03125 v -0.3125 c -0.515625,0 -0.765625,0 -0.765625,-0.296875 v -1.90625 c 0,-0.859375 0,-1.15625 -0.3125,-1.515625 -0.140625,-0.171875 -0.46875,-0.375 -1.046875,-0.375 C 2.46875,-4.40625 2,-3.984375 1.71875,-3.359375 V -4.40625 L 0.3125,-4.296875 v 0.3125 c 0.703125,0 0.78125,0.0625 0.78125,0.5625 z m 0,0"
             id="id-2aa13697-316e-4f98-bc97-60c3206c84a1" />
        </symbol>
        <symbol
           overflow="visible"
           id="id-aadbf124-0398-433b-b119-95a616ee91d8">
          <path
             style="stroke:none;stroke-width:0"
             d="m 3.296875,2.390625 c 0,-0.03125 0,-0.046875 -0.171875,-0.21875 C 1.890625,0.921875 1.5625,-0.96875 1.5625,-2.5 c 0,-1.734375 0.375,-3.46875 1.609375,-4.703125 0.125,-0.125 0.125,-0.140625 0.125,-0.171875 0,-0.078125 -0.03125,-0.109375 -0.09375,-0.109375 -0.109375,0 -1,0.6875 -1.59375,1.953125 -0.5,1.09375 -0.625,2.203125 -0.625,3.03125 0,0.78125 0.109375,1.984375 0.65625,3.125 C 2.25,1.84375 3.09375,2.5 3.203125,2.5 c 0.0625,0 0.09375,-0.03125 0.09375,-0.109375 z m 0,0"
             id="id-6924721f-d6c8-4565-8fb4-e456de37fbdb" />
        </symbol>
        <symbol
           overflow="visible"
           id="id-b38e81b8-93fd-41f4-b4d3-df8b87146e89">
          <path
             style="stroke:none;stroke-width:0"
             d="m 4.078125,-2.296875 h 2.78125 C 7,-2.296875 7.1875,-2.296875 7.1875,-2.5 7.1875,-2.6875 7,-2.6875 6.859375,-2.6875 h -2.78125 v -2.796875 c 0,-0.140625 0,-0.328125 -0.203125,-0.328125 -0.203125,0 -0.203125,0.1875 -0.203125,0.328125 V -2.6875 h -2.78125 c -0.140625,0 -0.328125,0 -0.328125,0.1875 0,0.203125 0.1875,0.203125 0.328125,0.203125 h 2.78125 V 0.5 c 0,0.140625 0,0.328125 0.203125,0.328125 0.203125,0 0.203125,-0.1875 0.203125,-0.328125 z m 0,0"
             id="id-f16a3ed5-8fb4-4ace-a371-73295a69eee3" />
        </symbol>
        <symbol
           overflow="visible"
           id="id-6b964a89-056f-48eb-9f70-269e717dc5c1">
          <path
             style="stroke:none;stroke-width:0"
             d="m 4.40625,-6.953125 c -0.0625,-0.140625 -0.09375,-0.1875 -0.265625,-0.1875 -0.15625,0 -0.1875,0.046875 -0.25,0.1875 l -3.375,6.75 C 0.46875,-0.109375 0.46875,-0.09375 0.46875,-0.078125 0.46875,0 0.53125,0 0.6875,0 h 6.921875 c 0.15625,0 0.21875,0 0.21875,-0.078125 0,-0.015625 0,-0.03125 -0.046875,-0.125 z m -0.578125,0.8125 2.6875,5.390625 h -5.375 z m 0,0"
             id="id-67b5e1a0-d727-4b8e-a7cb-f2026d46a564" />
        </symbol>
        <symbol
           overflow="visible"
           id="id-bc9d0a20-8ce2-4b67-827e-e97943faa276">
          <path
             style="stroke:none;stroke-width:0"
             d="m 2.875,-2.5 c 0,-0.765625 -0.109375,-1.96875 -0.65625,-3.109375 -0.59375,-1.21875 -1.453125,-1.875 -1.546875,-1.875 -0.0625,0 -0.109375,0.046875 -0.109375,0.109375 0,0.03125 0,0.046875 0.1875,0.234375 0.984375,0.984375 1.546875,2.5625 1.546875,4.640625 0,1.71875 -0.359375,3.46875 -1.59375,4.71875 C 0.5625,2.34375 0.5625,2.359375 0.5625,2.390625 0.5625,2.453125 0.609375,2.5 0.671875,2.5 0.765625,2.5 1.671875,1.8125 2.25,0.546875 2.765625,-0.546875 2.875,-1.65625 2.875,-2.5 Z m 0,0"
             id="id-ea84ba2b-4097-4a8f-a4ea-cacdb5a4e609" />
        </symbol>
      </g>
    </defs>
    <defs
       id="id-923eb814-4e37-4bfb-9e9f-89ba7c055bde">
      <g
         id="id-793f6fbc-d410-4a06-a181-61a8fe0b2d6a">
        <symbol
           overflow="visible"
           id="id-ca06093a-cc94-483a-b00b-fb1875911a54">
          <path
             style="stroke:none;stroke-width:0"
             d=""
             id="id-91cd31cf-7ba5-4d2b-85ec-07d7df7ad47d" />
        </symbol>
        <symbol
           overflow="visible"
           id="id-a466c2b3-137e-4a8e-9470-320d761871b8">
          <path
             style="stroke:none;stroke-width:0"
             d="m 7.375,-4.34375 c 0,-1.609375 -1.0625,-2.6875 -2.546875,-2.6875 -2.140625,0 -4.34375,2.265625 -4.34375,4.59375 0,1.65625 1.125,2.65625 2.5625,2.65625 2.109375,0 4.328125,-2.1875 4.328125,-4.5625 z m -4.28125,4.296875 c -0.984375,0 -1.671875,-0.796875 -1.671875,-2.109375 0,-0.453125 0.140625,-1.90625 0.90625,-3.0625 0.6875,-1.046875 1.65625,-1.5625 2.453125,-1.5625 0.8125,0 1.703125,0.5625 1.703125,2.046875 0,0.71875 -0.265625,2.265625 -1.25,3.5 C 4.75,-0.625 3.9375,-0.046875 3.09375,-0.046875 Z m 0,0"
             id="id-2dc4cf16-fa97-4f95-aee4-cf35d3661fd5" />
        </symbol>
      </g>
    </defs>
  </defs>
  <g
     inkscape:label="Layer 1"
     inkscape:groupmode="layer"
     id="layer1"
     transform="translate(-76.729168,-76.551597)">
    <g
       id="g1369">
      <path
         style="fill:none;stroke:#dc0000;stroke-width:0.165;stroke-linecap:square;stroke-linejoin:round;stroke-miterlimit:4;stroke-dasharray:none;stroke-opacity:1"
         d="m 109.27292,81.227082 h 6.08542"
         id="path1021"
         sodipodi:nodetypes="cc" />
      <path
         style="fill:none;stroke:#dc0000;stroke-width:0.165;stroke-linecap:square;stroke-linejoin:round;stroke-miterlimit:4;stroke-dasharray:none;stroke-opacity:1"
         d="M 115.35834,85.460416 V 81.227082"
         id="path1023" />
      <path
         style="fill:none;stroke:#19aeff;stroke-width:0.165;stroke-linecap:butt;stroke-linejoin:miter;stroke-miterlimit:4;stroke-dasharray:none;stroke-opacity:1"
         d="M 115.35833,85.460416 V 100.54167"
         id="path1053" />
      <path
         style="fill:none;stroke:#19aeff;stroke-width:0.165;stroke-linecap:butt;stroke-linejoin:miter;stroke-miterlimit:4;stroke-dasharray:none;stroke-opacity:1"
         d="M 109.27292,81.227082 V 100.54167"
         id="path1986" />
      <path
         style="fill:none;stroke:#19aeff;stroke-width:0.165;stroke-linecap:butt;stroke-linejoin:miter;stroke-miterlimit:4;stroke-dasharray:none;stroke-opacity:1"
         d="m 115.35833,85.460416 -14.81666,15.081254 8.73125,-19.314587"
         id="path1375" />
      <circle
         style="font-variation-settings:normal;vector-effect:none;fill:none;fill-opacity:1;fill-rule:evenodd;stroke:#999999;stroke-width:0.264583;stroke-linecap:butt;stroke-linejoin:miter;stroke-miterlimit:4;stroke-dasharray:none;stroke-dashoffset:0;stroke-opacity:1;stop-color:#000000"
         id="path1043"
         cx="100.54166"
         cy="100.54166"
         r="21.166666" />
      <circle
         style="font-variation-settings:normal;vector-effect:none;fill:none;fill-opacity:1;fill-rule:evenodd;stroke:#000000;stroke-width:0.264583;stroke-linecap:butt;stroke-linejoin:miter;stroke-miterlimit:4;stroke-dasharray:none;stroke-dashoffset:0;stroke-opacity:1;stop-color:#000000"
         id="path1045"
         cx="100.54166"
         cy="100.54166"
         r="0.13229166" />
      <path
         style="fill:none;stroke:#000000;stroke-width:0.264583px;stroke-linecap:butt;stroke-linejoin:miter;stroke-opacity:1"
         d="M 100.54167,76.729166 V 124.35417"
         id="path1160" />
      <path
         style="fill:none;stroke:#000000;stroke-width:0.264583px;stroke-linecap:butt;stroke-linejoin:miter;stroke-opacity:1"
         d="M 124.35417,100.54167 H 76.729168"
         id="path1242" />
      <circle
         style="font-variation-settings:normal;vector-effect:none;fill:none;fill-opacity:1;fill-rule:evenodd;stroke:#000000;stroke-width:0.264583;stroke-linecap:butt;stroke-linejoin:miter;stroke-miterlimit:4;stroke-dasharray:none;stroke-dashoffset:0;stroke-opacity:1;stop-color:#000000"
         id="path936"
         cx="109.27292"
         cy="81.227081"
         r="0.13229166" />
      <circle
         style="font-variation-settings:normal;vector-effect:none;fill:none;fill-opacity:1;fill-rule:evenodd;stroke:#000000;stroke-width:0.264583;stroke-linecap:butt;stroke-linejoin:miter;stroke-miterlimit:4;stroke-dasharray:none;stroke-dashoffset:0;stroke-opacity:1;stop-color:#000000"
         id="circle1018"
         cx="115.35833"
         cy="85.460419"
         r="0.13229166" />
      <path
         style="fill:#999999;fill-opacity:1;stroke:none;stroke-width:0"
         d="m 116.70924,84.993851 h 0.42645 c 0.35211,0 0.70031,-0.258216 0.70031,-0.535993 0,-0.195618 -0.16432,-0.379499 -0.49296,-0.379499 h -0.80594 c -0.047,0 -0.0743,0 -0.0743,0.04695 0,0.0313 0.0195,0.0313 0.0704,0.0313 0.0313,0 0.0782,0.0039 0.10564,0.0039 0.043,0.0078 0.0547,0.01174 0.0547,0.04303 0,0.0078 0,0.01565 -0.008,0.04695 l -0.33646,1.338026 c -0.0235,0.09781 -0.0274,0.117372 -0.22692,0.117372 -0.0392,0 -0.0665,0 -0.0665,0.04695 0,0.0313 0.0274,0.0313 0.0352,0.0313 0.0704,0 0.24648,-0.0078 0.3169,-0.0078 0.0547,0 0.10954,0.0039 0.1604,0.0039 0.0548,0 0.10955,0.0039 0.16041,0.0039 0.0195,0 0.0509,0 0.0509,-0.05086 0,-0.02739 -0.0235,-0.02739 -0.0704,-0.02739 -0.09,0 -0.16041,0 -0.16041,-0.04303 0,-0.01565 0.004,-0.02739 0.008,-0.04303 z m 0.17997,-0.743348 c 0.0235,-0.08607 0.0274,-0.0939 0.13694,-0.0939 h 0.23865 c 0.20735,0 0.34037,0.06651 0.34037,0.238654 0,0.09781 -0.0508,0.312988 -0.14866,0.402973 -0.1252,0.113458 -0.27387,0.13302 -0.38341,0.13302 h -0.35212 z m 0,0"
         id="id-d846ec47-bb2b-44cf-b0d4-e331ee0564e6" />
      <path
         style="fill:#999999;fill-opacity:1;stroke:none;stroke-width:0"
         d="m 110.17426,80.26165 c 0.38732,-0.144757 0.75508,-0.590766 0.75508,-1.071987 0,-0.402972 -0.26604,-0.672925 -0.63771,-0.672925 -0.53599,0 -1.08764,0.567292 -1.08764,1.150233 0,0.41471 0.28169,0.665101 0.64163,0.665101 0.0626,0 0.14476,-0.01174 0.24256,-0.03913 -0.008,0.156494 -0.008,0.160407 -0.008,0.195618 0,0.07824 0,0.273865 0.20735,0.273865 0.29343,0 0.41472,-0.457746 0.41472,-0.485132 0,-0.01565 -0.0157,-0.02347 -0.0274,-0.02347 -0.0195,0 -0.0235,0.01174 -0.0313,0.02739 -0.0587,0.176056 -0.20345,0.238653 -0.28951,0.238653 -0.11737,0 -0.15259,-0.06651 -0.17998,-0.258215 z m -0.46949,-0.01956 c -0.19561,-0.07825 -0.28169,-0.269954 -0.28169,-0.49687 0,-0.172144 0.0665,-0.528169 0.2543,-0.794209 0.18389,-0.254304 0.41863,-0.371674 0.60251,-0.371674 0.24648,0 0.43036,0.195618 0.43036,0.528168 0,0.250391 -0.12911,0.837245 -0.54773,1.068074 -0.0117,-0.08607 -0.0352,-0.26604 -0.21909,-0.26604 -0.13302,0 -0.25431,0.121283 -0.25431,0.254303 0,0.04695 0.0157,0.07434 0.0157,0.07825 z m 0.15258,0.02739 c -0.0352,0 -0.11345,0 -0.11345,-0.105634 0,-0.101721 0.0939,-0.19953 0.19953,-0.19953 0.10563,0 0.15258,0.05869 0.15258,0.211267 0,0.03521 -0.004,0.03913 -0.0274,0.05086 -0.0665,0.02739 -0.14085,0.04303 -0.21127,0.04303 z m 0,0"
         id="id-22348a19-e905-4db1-ab53-4b522664b306" />
      <path
         style="fill:#000000;fill-opacity:1;stroke:none;stroke-width:0"
         d="m 105.30454,98.298748 c 0,-0.19176 -0.0502,-0.598108 -0.347,-0.598108 -0.40634,0 -0.85378,0.821828 -0.85378,1.488422 0,0.273942 0.0822,0.598108 0.34699,0.598108 0.41091,0 0.85379,-0.835525 0.85379,-1.488422 z m -0.89488,0.397217 c 0.0502,-0.182629 0.10958,-0.41548 0.22829,-0.625503 0.0776,-0.141537 0.18262,-0.305902 0.31503,-0.305902 0.14154,0 0.1598,0.187194 0.1598,0.351559 0,0.146103 -0.0228,0.292206 -0.0913,0.579846 z m 0.58441,0.09588 c -0.032,0.132405 -0.0913,0.378954 -0.20546,0.588977 -0.10044,0.200891 -0.21002,0.342428 -0.33786,0.342428 -0.0959,0 -0.15523,-0.08675 -0.15523,-0.356126 0,-0.123274 0.0183,-0.292205 0.0913,-0.575279 z m 0,0"
         id="id-56aa248d-dcb6-4fbc-841d-8cf5954b7f6e" />
      <path
         style="fill:#000000;fill-opacity:1;stroke:none;stroke-width:0"
         d="m 126.3544,100.60774 c 0.0183,-0.0731 0.0867,-0.34243 0.28764,-0.34243 0.0137,0 0.0868,0 0.1461,0.0365 -0.0822,0.0183 -0.13697,0.0867 -0.13697,0.1598 0,0.0457 0.032,0.10045 0.10958,0.10045 0.0639,0 0.15523,-0.0502 0.15523,-0.16894 0,-0.15066 -0.16893,-0.19176 -0.26937,-0.19176 -0.16893,0 -0.26938,0.15524 -0.30591,0.21916 -0.073,-0.19176 -0.22828,-0.21916 -0.31503,-0.21916 -0.30134,0 -0.47027,0.37439 -0.47027,0.44744 0,0.032 0.032,0.032 0.0365,0.032 0.0228,0 0.032,-0.009 0.0365,-0.032 0.10045,-0.31046 0.29221,-0.38352 0.39265,-0.38352 0.0548,0 0.15524,0.0274 0.15524,0.19633 0,0.0913 -0.0502,0.28307 -0.15524,0.69399 -0.0457,0.17806 -0.15066,0.30134 -0.2785,0.30134 -0.0183,0 -0.0822,0 -0.14611,-0.0365 0.073,-0.0183 0.13697,-0.0776 0.13697,-0.1598 0,-0.0776 -0.0639,-0.10045 -0.10501,-0.10045 -0.0913,0 -0.1598,0.073 -0.1598,0.16893 0,0.13241 0.14154,0.19176 0.26938,0.19176 0.19633,0 0.30134,-0.20546 0.3059,-0.21915 0.0365,0.10501 0.14154,0.21915 0.31504,0.21915 0.30133,0 0.4657,-0.37439 0.4657,-0.44744 0,-0.032 -0.0228,-0.032 -0.032,-0.032 -0.0274,0 -0.032,0.0137 -0.0411,0.032 -0.0959,0.31504 -0.29221,0.38352 -0.38352,0.38352 -0.11414,0 -0.1598,-0.0913 -0.1598,-0.19176 0,-0.0639 0.0137,-0.12784 0.0457,-0.25568 z m 0,0"
         id="id-ca15cc4d-c392-4adc-a813-8ecc8d64ce16" />
      <path
         style="fill:#000000;fill-opacity:1;stroke:none;stroke-width:0"
         d="m 99.586569,76.729671 c 0.0137,-0.04109 0.0137,-0.04566 0.0137,-0.06849 0,-0.05022 -0.04109,-0.07762 -0.08675,-0.07762 -0.02739,0 -0.07305,0.01826 -0.100445,0.05935 -0.0046,0.01826 -0.03196,0.105012 -0.04109,0.1598 -0.02283,0.07305 -0.04109,0.155235 -0.05935,0.232852 l -0.132406,0.525057 c -0.0091,0.04109 -0.136971,0.246548 -0.328731,0.246548 -0.146103,0 -0.178063,-0.12784 -0.178063,-0.237417 0,-0.132406 0.05022,-0.315034 0.146103,-0.570714 0.04566,-0.118708 0.05935,-0.150668 0.05935,-0.210023 0,-0.12784 -0.09131,-0.237417 -0.237417,-0.237417 -0.278508,0 -0.383519,0.424611 -0.383519,0.44744 0,0.03196 0.02739,0.03196 0.03196,0.03196 0.03196,0 0.03196,-0.0091 0.04566,-0.05479 0.08218,-0.273942 0.196325,-0.360691 0.296771,-0.360691 0.02283,0 0.07305,0 0.07305,0.09131 0,0.07305 -0.03196,0.150669 -0.05022,0.205457 -0.118708,0.310469 -0.168931,0.474835 -0.168931,0.611806 0,0.260245 0.182629,0.346994 0.356126,0.346994 0.114142,0 0.210022,-0.05022 0.292205,-0.132406 -0.03652,0.150669 -0.07305,0.296772 -0.187194,0.452006 -0.07762,0.09588 -0.187194,0.182628 -0.3196,0.182628 -0.04109,0 -0.173497,-0.0091 -0.22372,-0.123274 0.04566,0 0.08675,0 0.123275,-0.03653 0.03196,-0.02283 0.05935,-0.06392 0.05935,-0.118708 0,-0.09131 -0.07762,-0.100446 -0.105012,-0.100446 -0.06848,0 -0.164365,0.04566 -0.164365,0.187194 0,0.146103 0.12784,0.25568 0.310468,0.25568 0.296771,0 0.598108,-0.264811 0.680291,-0.593542 z m 0,0"
         id="id-70c4440c-d1b8-42e5-93d8-177691d75ab8" />
      <path
         style="fill:#000000;fill-opacity:1;stroke:none;stroke-width:0"
         d="m 110.64382,102.85108 c 0,-0.073 0,-0.0776 -0.0685,-0.0776 -0.18263,0.1872 -0.43831,0.1872 -0.52962,0.1872 v 0.0913 c 0.0593,0 0.22828,0 0.37895,-0.0776 v 1.51125 c 0,0.10501 -0.009,0.13697 -0.26938,0.13697 h -0.0913 v 0.0913 c 0.10045,-0.009 0.35156,-0.009 0.47027,-0.009 0.11415,0 0.36983,0 0.47027,0.009 v -0.0913 h -0.0913 c -0.26481,0 -0.26938,-0.032 -0.26938,-0.13697 z m 0,0"
         id="id-34e55ced-a317-4d40-aaf9-179c73997413" />
      <path
         style="fill:#005c94;fill-opacity:1;stroke:none;stroke-width:0"
         d="m 116.17519,88.810404 c -0.0106,0.04959 -0.046,0.233794 -0.209,0.233794 -0.11335,0 -0.20545,-0.07793 -0.20545,-0.255049 0,-0.191286 0.12752,-0.272759 0.32235,-0.315267 0.0283,-0.0071 0.0354,-0.0071 0.0354,-0.03188 0,-0.02834 -0.0142,-0.02834 -0.0531,-0.02834 h -0.3011 c -0.039,0 -0.0531,0 -0.0531,0.0248 0,0.01063 0.004,0.01417 0.046,0.05668 0.004,0.0036 0.007,0.0036 0.0496,0.04605 -0.0921,0.09919 -0.0956,0.201913 -0.0956,0.247963 0,0.258591 0.15232,0.364861 0.31526,0.364861 0.1169,0 0.18775,-0.06731 0.21254,-0.09564 0.0744,-0.07439 0.0921,-0.162947 0.10982,-0.25859 0.0248,-0.127524 0.0531,-0.276303 0.1842,-0.276303 0.0815,0 0.17357,0.05668 0.17357,0.251506 0,0.247963 -0.20545,0.262133 -0.27276,0.265675 -0.0212,0 -0.0212,0.02125 -0.0212,0.0248 0,0.03188 0.0106,0.03188 0.0531,0.03188 h 0.23025 c 0.0354,0 0.0531,0 0.0531,-0.0248 0,-0.01063 0,-0.01771 -0.0283,-0.04605 -0.007,-0.0071 -0.0283,-0.02834 -0.0354,-0.03896 0.0638,-0.08502 0.0638,-0.177117 0.0638,-0.21254 0,-0.276302 -0.15232,-0.361318 -0.27984,-0.361318 -0.0779,0 -0.1417,0.03543 -0.19129,0.09564 -0.0567,0.07439 -0.0708,0.138151 -0.10273,0.301098 z m 0,0"
         id="id-92c9976b-25df-4823-aa53-712cc174f402" />
      <path
         style="fill:#005c94;fill-opacity:1;stroke:none;stroke-width:0"
         d="m 116.73488,89.630298 -0.0248,-0.315268 h -0.0708 c 0,0.145236 -0.0142,0.166491 -0.12398,0.166491 h -0.60928 c -0.0992,0 -0.0992,-0.0248 -0.0992,-0.177117 h -0.0708 c 0.004,0.07084 0.007,0.194828 0.007,0.247963 0,0.08147 -0.004,0.159405 -0.007,0.237336 h 0.0708 c 0,-0.15232 0.0106,-0.159405 0.0992,-0.159405 z m 0.3932,0.0071 c 0.0708,0 0.12044,-0.05314 0.12044,-0.116897 0,-0.07084 -0.0602,-0.120439 -0.12044,-0.120439 -0.0602,0 -0.12044,0.04959 -0.12044,0.120439 0,0.06376 0.0496,0.116897 0.12044,0.116897 z m 0,0"
         id="id-4504e9bc-378f-4cdd-a511-69590bcbaa22" />
      <path
         style="fill:#005c94;fill-opacity:1;stroke:none;stroke-width:0"
         d="m 116.51171,90.10551 h -0.60574 c -0.0992,0 -0.0992,-0.0248 -0.0992,-0.177117 h -0.0709 c 0.004,0.08147 0.007,0.194828 0.007,0.25859 0,0.05668 -0.004,0.173575 -0.007,0.251506 h 0.0709 c 0,-0.15232 0,-0.177117 0.0992,-0.177117 h 0.418 c 0.23379,0 0.36132,0.162948 0.36132,0.304641 0,0.145236 -0.12044,0.170032 -0.25151,0.170032 h -0.52781 c -0.0992,0 -0.0992,-0.0248 -0.0992,-0.177117 h -0.0709 c 0.004,0.07793 0.007,0.194829 0.007,0.255048 0,0.05668 -0.004,0.177117 -0.007,0.251506 h 0.0709 c 0,-0.116897 0,-0.173574 0.0673,-0.173574 h 0.43217 c 0.19483,0 0.26213,0 0.3436,-0.07084 0.039,-0.03188 0.085,-0.106271 0.085,-0.237337 0,-0.16649 -0.0956,-0.27276 -0.23734,-0.336522 h 0.23734 l -0.0248,-0.31881 h -0.0708 c 0,0.159405 -0.0142,0.177117 -0.12752,0.177117 z m 0,0"
         id="id-4f0a8f63-977e-4a29-941f-6dba71bdb1b7" />
      <path
         style="fill:#005c94;fill-opacity:1;stroke:none;stroke-width:0"
         d="m 116.86594,92.516903 c 0.14878,0 0.46405,-0.03896 0.46405,-0.269217 0,-0.315268 -0.63762,-0.662417 -1.1548,-0.662417 -0.21254,0 -0.46405,0.06376 -0.46405,0.269218 0,0.31881 0.64825,0.662416 1.1548,0.662416 z m -0.30818,-0.694297 c 0.1417,0.03896 0.32235,0.08502 0.4853,0.177117 0.10981,0.06022 0.23734,0.141693 0.23734,0.244421 0,0.109812 -0.14524,0.123982 -0.27276,0.123982 -0.11336,0 -0.22671,-0.01771 -0.44988,-0.07084 z m -0.0744,0.453419 c -0.10272,-0.0248 -0.29401,-0.07084 -0.45696,-0.159405 -0.15586,-0.07793 -0.26567,-0.162948 -0.26567,-0.262133 0,-0.07439 0.0673,-0.120439 0.2763,-0.120439 0.0956,0 0.22671,0.01417 0.44633,0.07084 z m 0,0"
         id="id-3f68415e-f476-48a5-96bc-f20bdc4d7ef4" />
      <path
         style="fill:#000000;fill-opacity:1;stroke:none;stroke-width:0"
         d="m 105.36065,91.616049 c -0.0132,-0.0296 -0.0197,-0.03947 -0.0559,-0.03947 -0.0329,0 -0.0395,0.0099 -0.0527,0.03947 l -0.71038,1.42076 c -0.01,0.01973 -0.01,0.02302 -0.01,0.02631 0,0.01645 0.0132,0.01645 0.046,0.01645 h 1.45694 c 0.0329,0 0.046,0 0.046,-0.01645 0,-0.0033 0,-0.0066 -0.01,-0.02631 z m -0.12168,0.171018 0.56567,1.134634 h -1.13134 z m 0,0"
         id="path1941" />
      <path
         style="fill:#000000;fill-opacity:1;stroke:none;stroke-width:0"
         d="m 107.13481,92.030438 c 0,-0.13813 -0.0362,-0.430832 -0.24995,-0.430832 -0.2927,0 -0.61501,0.591983 -0.61501,1.072147 0,0.197327 0.0592,0.430832 0.24996,0.430832 0.29599,0 0.615,-0.601849 0.615,-1.072147 z m -0.6446,0.286125 c 0.0362,-0.131552 0.0789,-0.299281 0.16443,-0.450565 0.0559,-0.101953 0.13156,-0.220349 0.22694,-0.220349 0.10194,0 0.1151,0.13484 0.1151,0.253236 0,0.105242 -0.0164,0.210484 -0.0658,0.417678 z m 0.42096,0.06906 c -0.023,0.09537 -0.0658,0.27297 -0.14799,0.424254 -0.0724,0.144707 -0.15129,0.24666 -0.24337,0.24666 -0.0691,0 -0.11183,-0.06249 -0.11183,-0.256527 0,-0.0888 0.0132,-0.210482 0.0658,-0.414387 z m 0,0"
         id="path1943" />
      <path
         style="fill:#005c94;fill-opacity:1;stroke:none;stroke-width:0"
         d="m 110.22192,82.384813 c -0.007,0.03483 -0.0323,0.164231 -0.14681,0.164231 -0.0796,0 -0.14432,-0.05474 -0.14432,-0.179158 0,-0.134371 0.0896,-0.191601 0.22644,-0.221462 0.0199,-0.0049 0.0249,-0.0049 0.0249,-0.0224 0,-0.01989 -0.01,-0.01989 -0.0373,-0.01989 h -0.2115 c -0.0274,0 -0.0373,0 -0.0373,0.01744 0,0.0075 0.003,0.01 0.0323,0.03984 0.003,0.0027 0.005,0.0027 0.0348,0.03237 -0.0647,0.06967 -0.0672,0.141831 -0.0672,0.174182 0,0.181644 0.10699,0.256293 0.22146,0.256293 0.0821,0 0.13188,-0.04725 0.1493,-0.06718 0.0523,-0.05227 0.0647,-0.114461 0.0771,-0.181649 0.0174,-0.08958 0.0373,-0.194086 0.1294,-0.194086 0.0572,0 0.12192,0.03979 0.12192,0.176668 0,0.174183 -0.14432,0.18414 -0.1916,0.186625 -0.0149,0 -0.0149,0.01493 -0.0149,0.01744 0,0.0224 0.007,0.0224 0.0373,0.0224 h 0.16174 c 0.0249,0 0.0373,0 0.0373,-0.01744 0,-0.0075 0,-0.01243 -0.0199,-0.03232 -0.005,-0.0049 -0.0199,-0.01989 -0.0249,-0.02736 0.0448,-0.05972 0.0448,-0.124418 0.0448,-0.149303 0,-0.194086 -0.107,-0.253808 -0.19658,-0.253808 -0.0547,0 -0.0995,0.02491 -0.13437,0.06718 -0.0398,0.05227 -0.0498,0.09705 -0.0722,0.21151 z m 0,0"
         id="path2079" />
      <path
         style="fill:#005c94;fill-opacity:1;stroke:none;stroke-width:0"
         d="m 110.61508,82.960755 -0.0174,-0.221462 h -0.0498 c 0,0.102019 -0.01,0.116952 -0.0871,0.116952 h -0.42799 c -0.0697,0 -0.0697,-0.01744 -0.0697,-0.124418 h -0.0498 c 0.003,0.04976 0.005,0.136855 0.005,0.174182 0,0.05723 -0.002,0.111976 -0.005,0.166716 h 0.0498 c 0,-0.106994 0.007,-0.11197 0.0697,-0.11197 z m 0.2762,0.0049 c 0.0498,0 0.0846,-0.03733 0.0846,-0.08212 0,-0.04976 -0.0423,-0.08461 -0.0846,-0.08461 -0.0423,0 -0.0846,0.03483 -0.0846,0.08461 0,0.0448 0.0348,0.08212 0.0846,0.08212 z m 0,0"
         id="path2081" />
      <path
         style="fill:#005c94;fill-opacity:1;stroke:none;stroke-width:0"
         d="m 110.45831,83.294568 h -0.4255 c -0.0697,0 -0.0697,-0.01744 -0.0697,-0.124418 h -0.0498 c 0.003,0.05724 0.005,0.136861 0.005,0.181649 0,0.03978 -0.003,0.121928 -0.005,0.176673 h 0.0498 c 0,-0.107 0,-0.124418 0.0697,-0.124418 h 0.29362 c 0.16423,0 0.25381,0.114461 0.25381,0.213995 0,0.102024 -0.0846,0.119442 -0.17667,0.119442 h -0.37076 c -0.0697,0 -0.0697,-0.01744 -0.0697,-0.124418 h -0.0498 c 0.003,0.05474 0.005,0.136861 0.005,0.179158 0,0.03978 -0.003,0.124419 -0.005,0.176673 h 0.0498 c 0,-0.08212 0,-0.121927 0.0473,-0.121927 h 0.30358 c 0.13686,0 0.18414,0 0.24137,-0.04976 0.0274,-0.0224 0.0597,-0.07465 0.0597,-0.166716 0,-0.116952 -0.0672,-0.191601 -0.16672,-0.236389 h 0.16672 l -0.0174,-0.223952 h -0.0498 c 0,0.111976 -0.01,0.124418 -0.0896,0.124418 z m 0,0"
         id="path2083" />
      <path
         style="fill:#005c94;fill-opacity:1;stroke:none;stroke-width:0"
         d="m 109.53266,84.526883 c 0.005,0 0.007,0 0.0348,-0.02736 0.19907,-0.196577 0.50016,-0.248832 0.74401,-0.248832 0.2762,0 0.55241,0.05972 0.74899,0.256298 0.0199,0.01989 0.0224,0.01989 0.0274,0.01989 0.0124,0 0.0174,-0.0049 0.0174,-0.01493 0,-0.01744 -0.10948,-0.15925 -0.31104,-0.253808 -0.17418,-0.07962 -0.35085,-0.09953 -0.48273,-0.09953 -0.12442,0 -0.31602,0.01744 -0.49766,0.104509 -0.19409,0.09704 -0.2986,0.231413 -0.2986,0.248832 0,0.01 0.005,0.01493 0.0174,0.01493 z m 0,0"
         id="path2085" />
      <path
         style="fill:#005c94;fill-opacity:1;stroke:none;stroke-width:0"
         d="m 110.70714,85.340565 c 0.10451,0 0.32597,-0.02736 0.32597,-0.189116 0,-0.221461 -0.44789,-0.465317 -0.81119,-0.465317 -0.1493,0 -0.32597,0.0448 -0.32597,0.189116 0,0.223946 0.45536,0.465317 0.81119,0.465317 z m -0.21648,-0.487711 c 0.0995,0.02736 0.22644,0.05972 0.3409,0.124413 0.0771,0.04229 0.16672,0.09953 0.16672,0.171697 0,0.07713 -0.10202,0.08709 -0.1916,0.08709 -0.0796,0 -0.15926,-0.01243 -0.31602,-0.04976 z m -0.0523,0.318504 c -0.0722,-0.01744 -0.20654,-0.04976 -0.321,-0.111976 -0.10948,-0.05474 -0.18662,-0.114461 -0.18662,-0.184134 0,-0.05227 0.0473,-0.08461 0.19409,-0.08461 0.0672,0 0.15925,0.01 0.31353,0.04976 z m 0,0"
         id="path2087" />
      <path
         style="fill:#005c94;fill-opacity:1;stroke:none;stroke-width:0"
         d="m 110.27915,86.409766 v 0.442923 c 0,0.0224 0,0.05227 0.0323,0.05227 0.0299,0 0.0299,-0.02987 0.0299,-0.05227 v -0.442923 h 0.44541 c 0.0224,0 0.0523,0 0.0523,-0.03232 0,-0.03237 -0.0299,-0.03237 -0.0523,-0.03237 h -0.44541 v -0.442918 c 0,-0.0224 0,-0.05227 -0.0299,-0.05227 -0.0323,0 -0.0323,0.02987 -0.0323,0.05227 v 0.442918 h -0.44541 c -0.0224,0 -0.0523,0 -0.0523,0.03237 0,0.03232 0.0299,0.03232 0.0523,0.03232 z m 0,0"
         id="path2089" />
      <path
         style="fill:#005c94;fill-opacity:1;stroke:none;stroke-width:0"
         d="m 111.02067,88.048335 c 0.0224,-0.01 0.0299,-0.01493 0.0299,-0.04229 0,-0.02485 -0.007,-0.02987 -0.0299,-0.03979 l -1.07495,-0.537475 c -0.0149,-0.0075 -0.0174,-0.0075 -0.0199,-0.0075 -0.0124,0 -0.0124,0.01 -0.0124,0.03483 v 1.102326 c 0,0.02491 0,0.03482 0.0124,0.03482 0.003,0 0.005,0 0.0199,-0.0075 z m -0.12939,-0.09207 -0.85847,0.42799 v -0.85598 z m 0,0"
         id="path2091" />
      <path
         style="fill:#005c94;fill-opacity:1;stroke:none;stroke-width:0"
         d="m 110.70714,89.390675 c 0.10451,0 0.32597,-0.02736 0.32597,-0.189116 0,-0.221461 -0.44789,-0.465317 -0.81119,-0.465317 -0.1493,0 -0.32597,0.0448 -0.32597,0.189116 0,0.223946 0.45536,0.465317 0.81119,0.465317 z m -0.21648,-0.487712 c 0.0995,0.02736 0.22644,0.05972 0.3409,0.124413 0.0771,0.04229 0.16672,0.09953 0.16672,0.171698 0,0.07713 -0.10202,0.08709 -0.1916,0.08709 -0.0796,0 -0.15926,-0.01243 -0.31602,-0.04976 z m -0.0523,0.318505 c -0.0722,-0.01744 -0.20654,-0.04976 -0.321,-0.111976 -0.10948,-0.05474 -0.18662,-0.114461 -0.18662,-0.184134 0,-0.05227 0.0473,-0.08461 0.19409,-0.08461 0.0672,0 0.15925,0.01 0.31353,0.04976 z m 0,0"
         id="path2093" />
      <path
         style="fill:#005c94;fill-opacity:1;stroke:none;stroke-width:0"
         d="m 110.3115,89.915849 c 0.12193,0 0.31353,-0.01744 0.49518,-0.104509 0.19409,-0.09456 0.2986,-0.231413 0.2986,-0.246341 0,-0.01 -0.007,-0.01744 -0.0174,-0.01744 -0.005,0 -0.007,0 -0.0373,0.02987 -0.15676,0.156764 -0.40808,0.246346 -0.73903,0.246346 -0.27372,0 -0.55241,-0.05723 -0.75147,-0.253807 -0.0199,-0.0224 -0.0224,-0.0224 -0.0274,-0.0224 -0.01,0 -0.0174,0.0075 -0.0174,0.01744 0,0.01493 0.10948,0.15925 0.31104,0.251317 0.17418,0.08212 0.35085,0.09953 0.48522,0.09953 z m 0,0"
         id="path2095" />
      <g
         id="id-c7a035d2-6f0d-4527-832f-79ce1950aabf"
         transform="matrix(0.27075874,0,0,0.27075874,57.363912,66.708793)">
        <g
           style="fill:#000000;fill-opacity:1"
           id="id-9ae147b4-c418-4ae6-a0cb-bd6ffd9746e3">
          <g
             transform="translate(148.712,134.765)"
             id="g2474">
            <path
               style="stroke:none;stroke-width:0"
               d="m 7.375,-4.34375 c 0,-1.609375 -1.0625,-2.6875 -2.546875,-2.6875 -2.140625,0 -4.34375,2.265625 -4.34375,4.59375 0,1.65625 1.125,2.65625 2.5625,2.65625 2.109375,0 4.328125,-2.1875 4.328125,-4.5625 z m -4.28125,4.296875 c -0.984375,0 -1.671875,-0.796875 -1.671875,-2.109375 0,-0.453125 0.140625,-1.90625 0.90625,-3.0625 0.6875,-1.046875 1.65625,-1.5625 2.453125,-1.5625 0.8125,0 1.703125,0.5625 1.703125,2.046875 0,0.71875 -0.265625,2.265625 -1.25,3.5 C 4.75,-0.625 3.9375,-0.046875 3.09375,-0.046875 Z m 0,0"
               id="id-946de395-6f33-41f5-82ad-a9a450a56fc9" />
          </g>
        </g>
      </g>
      <g
         transform="matrix(0.2561524,0,0,0.2561524,115.92615,81.706679)"
         ns26:version="1.3.1"
         ns26:texconverter="pdflatex"
         ns26:pdfconverter="inkscape"
         ns26:text="$\\Delta y$\n"
         ns26:preamble="/Users/ketiboldiais/Library/Application Support/org.inkscape.Inkscape/config/inkscape/extensions/circuitSymbols/circuitSymbolsPreamble.tex"
         ns26:scale="1.0743323752859513"
         ns26:alignment="middle center"
         ns26:inkscapeversion="1.1"
         ns26:jacobian_sqrt="0.379001"
         id="g1583"
         style="fill:#b50000">
        <defs
           id="id-095c40c4-9904-42cd-a878-52df5561dd6c">
          <g
             id="id-745b024f-c4fc-494e-931e-7f9836ac110a">
            <symbol
               overflow="visible"
               id="id-401c606e-9679-42b5-ae79-9576bdc92c50">
              <path
                 style="stroke:none;stroke-width:0"
                 d=""
                 id="id-acc4b228-593d-4891-80f6-161a61d7c88b" />
            </symbol>
            <symbol
               overflow="visible"
               id="id-0bd5119d-af24-413f-852d-3227cd67f2cb">
              <path
                 style="stroke:none;stroke-width:0"
                 d="m 4.40625,-6.953125 c -0.0625,-0.140625 -0.09375,-0.1875 -0.265625,-0.1875 -0.15625,0 -0.1875,0.046875 -0.25,0.1875 l -3.375,6.75 C 0.46875,-0.109375 0.46875,-0.09375 0.46875,-0.078125 0.46875,0 0.53125,0 0.6875,0 h 6.921875 c 0.15625,0 0.21875,0 0.21875,-0.078125 0,-0.015625 0,-0.03125 -0.046875,-0.125 z m -0.578125,0.8125 2.6875,5.390625 h -5.375 z m 0,0"
                 id="id-e1ace4c0-2929-483c-a6ba-0a5ad370d718" />
            </symbol>
            <symbol
               overflow="visible"
               id="id-f5e39f0d-6d3c-4a72-93c3-36ab09c66eff">
              <path
                 style="stroke:none;stroke-width:0"
                 d=""
                 id="id-08b8cd54-6f4f-455c-91ae-f848ecae131e" />
            </symbol>
            <symbol
               overflow="visible"
               id="id-692f4093-096a-40f2-85c5-5bb3d59b5d4c">
              <path
                 style="stroke:none;stroke-width:0"
                 d="m 4.84375,-3.796875 c 0.046875,-0.140625 0.046875,-0.15625 0.046875,-0.234375 0,-0.171875 -0.140625,-0.265625 -0.296875,-0.265625 -0.09375,0 -0.25,0.0625 -0.34375,0.203125 -0.015625,0.0625 -0.109375,0.359375 -0.140625,0.546875 -0.078125,0.25 -0.140625,0.53125 -0.203125,0.796875 l -0.453125,1.796875 c -0.03125,0.140625 -0.46875,0.84375 -1.125,0.84375 -0.5,0 -0.609375,-0.4375 -0.609375,-0.8125 C 1.71875,-1.375 1.890625,-2 2.21875,-2.875 2.375,-3.28125 2.421875,-3.390625 2.421875,-3.59375 c 0,-0.4375 -0.3125,-0.8125 -0.8125,-0.8125 -0.953125,0 -1.3125,1.453125 -1.3125,1.53125 0,0.109375 0.09375,0.109375 0.109375,0.109375 0.109375,0 0.109375,-0.03125 0.15625,-0.1875 0.28125,-0.9375 0.671875,-1.234375 1.015625,-1.234375 0.078125,0 0.25,0 0.25,0.3125 0,0.25 -0.109375,0.515625 -0.171875,0.703125 -0.40625,1.0625 -0.578125,1.625 -0.578125,2.09375 0,0.890625 0.625,1.1875 1.21875,1.1875 0.390625,0 0.71875,-0.171875 1,-0.453125 -0.125,0.515625 -0.25,1.015625 -0.640625,1.546875 -0.265625,0.328125 -0.640625,0.625 -1.09375,0.625 -0.140625,0 -0.59375,-0.03125 -0.765625,-0.421875 0.15625,0 0.296875,0 0.421875,-0.125 C 1.328125,1.203125 1.421875,1.0625 1.421875,0.875 1.421875,0.5625 1.15625,0.53125 1.0625,0.53125 0.828125,0.53125 0.5,0.6875 0.5,1.171875 c 0,0.5 0.4375,0.875 1.0625,0.875 1.015625,0 2.046875,-0.90625 2.328125,-2.03125 z m 0,0"
                 id="id-fcc26a12-da88-4bab-be3b-846f2d556870" />
            </symbol>
          </g>
        </defs>
        <g
           id="id-4ccefc0d-c52b-4899-a42b-06f44eba331c"
           transform="translate(-149.181,-127.624)"
           style="fill:#b50000">
          <g
             style="fill:#b50000;fill-opacity:1"
             id="id-c2c55269-7f22-46f4-bf14-8392773b8794">
            <g
               transform="translate(148.712,134.765)"
               id="g1575"
               style="fill:#b50000">
              <path
                 style="fill:#b50000;stroke:none;stroke-width:0"
                 d="m 4.40625,-6.953125 c -0.0625,-0.140625 -0.09375,-0.1875 -0.265625,-0.1875 -0.15625,0 -0.1875,0.046875 -0.25,0.1875 l -3.375,6.75 C 0.46875,-0.109375 0.46875,-0.09375 0.46875,-0.078125 0.46875,0 0.53125,0 0.6875,0 h 6.921875 c 0.15625,0 0.21875,0 0.21875,-0.078125 0,-0.015625 0,-0.03125 -0.046875,-0.125 z m -0.578125,0.8125 2.6875,5.390625 h -5.375 z m 0,0"
                 id="id-60880798-a66f-4c25-85d6-ff275a0a2ab3" />
            </g>
          </g>
          <g
             style="fill:#b50000;fill-opacity:1"
             id="id-d02dce53-2700-4488-b8d8-f23024fd9de9">
            <g
               transform="translate(157.015,134.765)"
               id="g1579"
               style="fill:#b50000">
              <path
                 style="fill:#b50000;stroke:none;stroke-width:0"
                 d="m 4.84375,-3.796875 c 0.046875,-0.140625 0.046875,-0.15625 0.046875,-0.234375 0,-0.171875 -0.140625,-0.265625 -0.296875,-0.265625 -0.09375,0 -0.25,0.0625 -0.34375,0.203125 -0.015625,0.0625 -0.109375,0.359375 -0.140625,0.546875 -0.078125,0.25 -0.140625,0.53125 -0.203125,0.796875 l -0.453125,1.796875 c -0.03125,0.140625 -0.46875,0.84375 -1.125,0.84375 -0.5,0 -0.609375,-0.4375 -0.609375,-0.8125 C 1.71875,-1.375 1.890625,-2 2.21875,-2.875 2.375,-3.28125 2.421875,-3.390625 2.421875,-3.59375 c 0,-0.4375 -0.3125,-0.8125 -0.8125,-0.8125 -0.953125,0 -1.3125,1.453125 -1.3125,1.53125 0,0.109375 0.09375,0.109375 0.109375,0.109375 0.109375,0 0.109375,-0.03125 0.15625,-0.1875 0.28125,-0.9375 0.671875,-1.234375 1.015625,-1.234375 0.078125,0 0.25,0 0.25,0.3125 0,0.25 -0.109375,0.515625 -0.171875,0.703125 -0.40625,1.0625 -0.578125,1.625 -0.578125,2.09375 0,0.890625 0.625,1.1875 1.21875,1.1875 0.390625,0 0.71875,-0.171875 1,-0.453125 -0.125,0.515625 -0.25,1.015625 -0.640625,1.546875 -0.265625,0.328125 -0.640625,0.625 -1.09375,0.625 -0.140625,0 -0.59375,-0.03125 -0.765625,-0.421875 0.15625,0 0.296875,0 0.421875,-0.125 C 1.328125,1.203125 1.421875,1.0625 1.421875,0.875 1.421875,0.5625 1.15625,0.53125 1.0625,0.53125 0.828125,0.53125 0.5,0.6875 0.5,1.171875 c 0,0.5 0.4375,0.875 1.0625,0.875 1.015625,0 2.046875,-0.90625 2.328125,-2.03125 z m 0,0"
                 id="id-26234fec-600e-4acf-9e8b-ee6dc1b6d609" />
            </g>
          </g>
        </g>
      </g>
      <circle
         style="font-variation-settings:normal;vector-effect:none;fill:none;fill-opacity:1;fill-rule:evenodd;stroke:#000000;stroke-width:0.264583;stroke-linecap:butt;stroke-linejoin:miter;stroke-miterlimit:4;stroke-dasharray:none;stroke-dashoffset:0;stroke-opacity:1;stop-color:#000000"
         id="circle1058"
         cx="115.35833"
         cy="81.227089"
         r="0.13229166" />
      <g
         transform="matrix(0.22948427,0,0,0.22948427,115.58756,79.119013)"
         ns26:version="1.3.1"
         ns26:texconverter="pdflatex"
         ns26:pdfconverter="inkscape"
         ns26:text="$R$\n"
         ns26:preamble="/Users/ketiboldiais/Library/Application Support/org.inkscape.Inkscape/config/inkscape/extensions/circuitSymbols/circuitSymbolsPreamble.tex"
         ns26:scale="1.0743323752859513"
         ns26:alignment="middle center"
         ns26:inkscapeversion="1.1"
         ns26:jacobian_sqrt="0.379001"
         id="g1269">
        <defs
           id="id-7abc626b-882d-4050-ab42-2c8002b3d1f8">
          <g
             id="id-8e7f35e3-5332-47d7-bf9a-b3557f749b1d">
            <symbol
               overflow="visible"
               id="id-37984bf8-5948-4fa5-8ccc-c5f683730e20">
              <path
                 style="stroke:none;stroke-width:0"
                 d=""
                 id="id-d40243bd-10d3-4bb4-a988-481ffbaf84dd" />
            </symbol>
            <symbol
               overflow="visible"
               id="id-d1879ed7-a241-454e-b021-0de8f1410fc3">
              <path
                 style="stroke:none;stroke-width:0"
                 d="m 3.734375,-6.125 c 0.0625,-0.234375 0.09375,-0.328125 0.28125,-0.359375 C 4.109375,-6.5 4.421875,-6.5 4.625,-6.5 c 0.703125,0 1.8125,0 1.8125,0.984375 0,0.34375 -0.15625,1.03125 -0.546875,1.421875 -0.265625,0.25 -0.78125,0.578125 -1.6875,0.578125 H 3.09375 Z m 1.4375,2.734375 c 1.015625,-0.21875 2.1875,-0.921875 2.1875,-1.921875 0,-0.859375 -0.890625,-1.5 -2.203125,-1.5 H 2.328125 c -0.203125,0 -0.296875,0 -0.296875,0.203125 C 2.03125,-6.5 2.125,-6.5 2.3125,-6.5 c 0.015625,0 0.203125,0 0.375,0.015625 0.1875,0.03125 0.265625,0.03125 0.265625,0.171875 0,0.03125 0,0.0625 -0.03125,0.1875 l -1.34375,5.34375 C 1.484375,-0.390625 1.46875,-0.3125 0.671875,-0.3125 0.5,-0.3125 0.40625,-0.3125 0.40625,-0.109375 0.40625,0 0.53125,0 0.546875,0 c 0.28125,0 0.984375,-0.03125 1.25,-0.03125 0.28125,0 1,0.03125 1.28125,0.03125 0.078125,0 0.1875,0 0.1875,-0.203125 0,-0.109375 -0.078125,-0.109375 -0.28125,-0.109375 -0.359375,0 -0.640625,0 -0.640625,-0.171875 0,-0.0625 0.015625,-0.109375 0.03125,-0.171875 l 0.65625,-2.640625 h 1.1875 c 0.90625,0 1.078125,0.5625 1.078125,0.90625 0,0.140625 -0.078125,0.453125 -0.140625,0.6875 C 5.09375,-1.421875 5,-1.0625 5,-0.859375 5,0.21875 6.203125,0.21875 6.328125,0.21875 c 0.84375,0 1.203125,-1 1.203125,-1.140625 0,-0.125 -0.109375,-0.125 -0.125,-0.125 -0.09375,0 -0.109375,0.0625 -0.125,0.140625 C 7.03125,-0.171875 6.59375,0 6.375,0 6.046875,0 5.96875,-0.21875 5.96875,-0.609375 c 0,-0.3125 0.0625,-0.8125 0.109375,-1.140625 0.015625,-0.140625 0.03125,-0.328125 0.03125,-0.46875 0,-0.765625 -0.671875,-1.078125 -0.9375,-1.171875 z m 0,0"
                 id="id-23f5d718-e300-4f7e-bc25-47820f3e493d" />
            </symbol>
          </g>
        </defs>
        <g
           id="id-e11d2c10-3023-402e-b0d1-74b1ed245835"
           transform="translate(-149.118,-127.953)">
          <g
             style="fill:#000000;fill-opacity:1"
             id="id-8aca8c86-8107-485b-8dfd-01c03d1bbd97">
            <g
               transform="translate(148.712,134.765)"
               id="g1265">
              <path
                 style="stroke:none;stroke-width:0"
                 d="m 3.734375,-6.125 c 0.0625,-0.234375 0.09375,-0.328125 0.28125,-0.359375 C 4.109375,-6.5 4.421875,-6.5 4.625,-6.5 c 0.703125,0 1.8125,0 1.8125,0.984375 0,0.34375 -0.15625,1.03125 -0.546875,1.421875 -0.265625,0.25 -0.78125,0.578125 -1.6875,0.578125 H 3.09375 Z m 1.4375,2.734375 c 1.015625,-0.21875 2.1875,-0.921875 2.1875,-1.921875 0,-0.859375 -0.890625,-1.5 -2.203125,-1.5 H 2.328125 c -0.203125,0 -0.296875,0 -0.296875,0.203125 C 2.03125,-6.5 2.125,-6.5 2.3125,-6.5 c 0.015625,0 0.203125,0 0.375,0.015625 0.1875,0.03125 0.265625,0.03125 0.265625,0.171875 0,0.03125 0,0.0625 -0.03125,0.1875 l -1.34375,5.34375 C 1.484375,-0.390625 1.46875,-0.3125 0.671875,-0.3125 0.5,-0.3125 0.40625,-0.3125 0.40625,-0.109375 0.40625,0 0.53125,0 0.546875,0 c 0.28125,0 0.984375,-0.03125 1.25,-0.03125 0.28125,0 1,0.03125 1.28125,0.03125 0.078125,0 0.1875,0 0.1875,-0.203125 0,-0.109375 -0.078125,-0.109375 -0.28125,-0.109375 -0.359375,0 -0.640625,0 -0.640625,-0.171875 0,-0.0625 0.015625,-0.109375 0.03125,-0.171875 l 0.65625,-2.640625 h 1.1875 c 0.90625,0 1.078125,0.5625 1.078125,0.90625 0,0.140625 -0.078125,0.453125 -0.140625,0.6875 C 5.09375,-1.421875 5,-1.0625 5,-0.859375 5,0.21875 6.203125,0.21875 6.328125,0.21875 c 0.84375,0 1.203125,-1 1.203125,-1.140625 0,-0.125 -0.109375,-0.125 -0.125,-0.125 -0.09375,0 -0.109375,0.0625 -0.125,0.140625 C 7.03125,-0.171875 6.59375,0 6.375,0 6.046875,0 5.96875,-0.21875 5.96875,-0.609375 c 0,-0.3125 0.0625,-0.8125 0.109375,-1.140625 0.015625,-0.140625 0.03125,-0.328125 0.03125,-0.46875 0,-0.765625 -0.671875,-1.078125 -0.9375,-1.171875 z m 0,0"
                 id="id-a07a50e0-6f3f-4154-9900-5e585ce69ca2" />
            </g>
          </g>
        </g>
      </g>
    </g>
  </g>
</svg>
