<?xml version="1.0" encoding="UTF-8" standalone="no"?>
<!-- Created with Inkscape (http://www.inkscape.org/) -->

<svg
   width="50.186813mm"
   height="47.802574mm"
   viewBox="0 0 50.186813 47.802574"
   version="1.1"
   id="svg5"
   sodipodi:docname="poq_circle.svg"
   inkscape:version="1.1 (c4e8f9e, 2021-05-24)"
   xmlns:inkscape="http://www.inkscape.org/namespaces/inkscape"
   xmlns:sodipodi="http://sodipodi.sourceforge.net/DTD/sodipodi-0.dtd"
   xmlns="http://www.w3.org/2000/svg"
   xmlns:svg="http://www.w3.org/2000/svg"
   xmlns:ns26="http://www.iki.fi/pav/software/textext/">
  <sodipodi:namedview
     id="namedview7"
     pagecolor="#ffffff"
     bordercolor="#666666"
     borderopacity="1.0"
     inkscape:pageshadow="2"
     inkscape:pageopacity="0.0"
     inkscape:pagecheckerboard="0"
     inkscape:document-units="mm"
     showgrid="false"
     inkscape:snap-center="true"
     inkscape:zoom="2.3057655"
     inkscape:cx="94.328761"
     inkscape:cy="90.859197"
     inkscape:window-width="1440"
     inkscape:window-height="847"
     inkscape:window-x="0"
     inkscape:window-y="25"
     inkscape:window-maximized="0"
     inkscape:current-layer="layer1"
     inkscape:snap-global="false">
    <inkscape:grid
       type="xygrid"
       id="grid824"
       originx="-76.729165"
       originy="-76.551598" />
  </sodipodi:namedview>
  <defs
     id="defs2">
    <defs
       id="id-ee963410-1317-44ad-bebc-fc20c7c3db8b">
      <g
         id="id-82679072-68d2-4bb3-8900-3374c3ffadf6">
        <symbol
           overflow="visible"
           id="id-7d52602c-3502-46f9-a1ea-8895cd4c21f8">
          <path
             style="stroke:none;stroke-width:0"
             d=""
             id="id-afaf2da7-dc9b-496c-a0f4-0d537ae3c215" />
        </symbol>
        <symbol
           overflow="visible"
           id="id-43b2d493-a633-4d72-9096-3ed377bfb17d">
          <path
             style="stroke:none;stroke-width:0"
             d="M 3.015625,-3.15625 H 4.71875 c 1.40625,0 2.796875,-1.03125 2.796875,-2.140625 0,-0.78125 -0.65625,-1.515625 -1.96875,-1.515625 h -3.21875 c -0.1875,0 -0.296875,0 -0.296875,0.1875 0,0.125 0.078125,0.125 0.28125,0.125 0.125,0 0.3125,0.015625 0.421875,0.015625 0.171875,0.03125 0.21875,0.046875 0.21875,0.171875 0,0.03125 0,0.0625 -0.03125,0.1875 l -1.34375,5.34375 c -0.09375,0.390625 -0.109375,0.46875 -0.90625,0.46875 -0.15625,0 -0.265625,0 -0.265625,0.1875 C 0.40625,0 0.515625,0 0.546875,0 0.828125,0 1.53125,-0.03125 1.8125,-0.03125 c 0.21875,0 0.4375,0.015625 0.640625,0.015625 0.21875,0 0.4375,0.015625 0.640625,0.015625 0.078125,0 0.203125,0 0.203125,-0.203125 0,-0.109375 -0.09375,-0.109375 -0.28125,-0.109375 -0.359375,0 -0.640625,0 -0.640625,-0.171875 0,-0.0625 0.015625,-0.109375 0.03125,-0.171875 z M 3.734375,-6.125 C 3.828125,-6.46875 3.84375,-6.5 4.28125,-6.5 h 0.953125 c 0.828125,0 1.359375,0.265625 1.359375,0.953125 0,0.390625 -0.203125,1.25 -0.59375,1.609375 -0.5,0.453125 -1.09375,0.53125 -1.53125,0.53125 H 3.0625 Z m 0,0"
             id="id-4802a75d-a934-4892-88df-12ced6feef92" />
        </symbol>
        <symbol
           overflow="visible"
           id="id-c58fd0a2-5c44-41c8-8e1f-197b354ef51e">
          <path
             style="stroke:none;stroke-width:0"
             d="M 4.359375,-0.0625 C 5.90625,-0.640625 7.375,-2.421875 7.375,-4.34375 c 0,-1.609375 -1.0625,-2.6875 -2.546875,-2.6875 -2.140625,0 -4.34375,2.265625 -4.34375,4.59375 0,1.65625 1.125,2.65625 2.5625,2.65625 0.25,0 0.578125,-0.046875 0.96875,-0.15625 -0.03125,0.625 -0.03125,0.640625 -0.03125,0.78125 0,0.3125 0,1.09375 0.828125,1.09375 1.171875,0 1.65625,-1.828125 1.65625,-1.9375 0,-0.0625 -0.0625,-0.09375 -0.109375,-0.09375 -0.078125,0 -0.09375,0.046875 -0.125,0.109375 C 6,0.71875 5.421875,0.96875 5.078125,0.96875 c -0.46875,0 -0.609375,-0.265625 -0.71875,-1.03125 z m -1.875,-0.078125 c -0.78125,-0.3125 -1.125,-1.078125 -1.125,-1.984375 0,-0.6875 0.265625,-2.109375 1.015625,-3.171875 C 3.109375,-6.3125 4.046875,-6.78125 4.78125,-6.78125 5.765625,-6.78125 6.5,-6 6.5,-4.671875 c 0,1 -0.515625,3.34375 -2.1875,4.265625 -0.046875,-0.34375 -0.140625,-1.0625 -0.875,-1.0625 -0.53125,0 -1.015625,0.484375 -1.015625,1.015625 0,0.1875 0.0625,0.296875 0.0625,0.3125 z M 3.09375,-0.03125 c -0.140625,0 -0.453125,0 -0.453125,-0.421875 0,-0.40625 0.375,-0.796875 0.796875,-0.796875 0.421875,0 0.609375,0.234375 0.609375,0.84375 0,0.140625 -0.015625,0.15625 -0.109375,0.203125 C 3.671875,-0.09375 3.375,-0.03125 3.09375,-0.03125 Z m 0,0"
             id="id-1efa4e55-131e-475f-aa0c-10e87afa10b0" />
        </symbol>
        <symbol
           overflow="visible"
           id="id-eb4af8d0-db0d-40ba-a3fa-c0cd084c1961">
          <path
             style="stroke:none;stroke-width:0"
             d="m 4.53125,-4.984375 c 0,-0.65625 -0.171875,-2.046875 -1.1875,-2.046875 -1.390625,0 -2.921875,2.8125 -2.921875,5.09375 0,0.9375 0.28125,2.046875 1.1875,2.046875 1.40625,0 2.921875,-2.859375 2.921875,-5.09375 z M 1.46875,-3.625 C 1.640625,-4.25 1.84375,-5.046875 2.25,-5.765625 2.515625,-6.25 2.875,-6.8125 3.328125,-6.8125 c 0.484375,0 0.546875,0.640625 0.546875,1.203125 0,0.5 -0.078125,1 -0.3125,1.984375 z m 2,0.328125 C 3.359375,-2.84375 3.15625,-2 2.765625,-1.28125 c -0.34375,0.6875 -0.71875,1.171875 -1.15625,1.171875 -0.328125,0 -0.53125,-0.296875 -0.53125,-1.21875 0,-0.421875 0.0625,-1 0.3125,-1.96875 z m 0,0"
             id="id-5edcbb80-c194-41e5-9676-526e870d7b07" />
        </symbol>
        <symbol
           overflow="visible"
           id="id-5de30301-1d92-42ad-82e4-ee6789d7a0be">
          <path
             style="stroke:none;stroke-width:0"
             d="M 3.328125,-3.015625 C 3.390625,-3.265625 3.625,-4.1875 4.3125,-4.1875 c 0.046875,0 0.296875,0 0.5,0.125 C 4.53125,-4 4.34375,-3.765625 4.34375,-3.515625 c 0,0.15625 0.109375,0.34375 0.375,0.34375 0.21875,0 0.53125,-0.171875 0.53125,-0.578125 0,-0.515625 -0.578125,-0.65625 -0.921875,-0.65625 -0.578125,0 -0.921875,0.53125 -1.046875,0.75 -0.25,-0.65625 -0.78125,-0.75 -1.078125,-0.75 -1.03125,0 -1.609375,1.28125 -1.609375,1.53125 0,0.109375 0.109375,0.109375 0.125,0.109375 0.078125,0 0.109375,-0.03125 0.125,-0.109375 0.34375,-1.0625 1,-1.3125 1.34375,-1.3125 0.1875,0 0.53125,0.09375 0.53125,0.671875 0,0.3125 -0.171875,0.96875 -0.53125,2.375 -0.15625,0.609375 -0.515625,1.03125 -0.953125,1.03125 -0.0625,0 -0.28125,0 -0.5,-0.125 0.25,-0.0625 0.46875,-0.265625 0.46875,-0.546875 0,-0.265625 -0.21875,-0.34375 -0.359375,-0.34375 -0.3125,0 -0.546875,0.25 -0.546875,0.578125 0,0.453125 0.484375,0.65625 0.921875,0.65625 0.671875,0 1.03125,-0.703125 1.046875,-0.75 0.125,0.359375 0.484375,0.75 1.078125,0.75 1.03125,0 1.59375,-1.28125 1.59375,-1.53125 0,-0.109375 -0.078125,-0.109375 -0.109375,-0.109375 -0.09375,0 -0.109375,0.046875 -0.140625,0.109375 -0.328125,1.078125 -1,1.3125 -1.3125,1.3125 -0.390625,0 -0.546875,-0.3125 -0.546875,-0.65625 0,-0.21875 0.046875,-0.4375 0.15625,-0.875 z m 0,0"
             id="id-eab98def-fe5b-4d5e-8b43-daa16bb35f7b" />
        </symbol>
        <symbol
           overflow="visible"
           id="id-fdf480f2-a5ec-416e-855c-72eea043f7af">
          <path
             style="stroke:none;stroke-width:0"
             d="m 4.84375,-3.796875 c 0.046875,-0.140625 0.046875,-0.15625 0.046875,-0.234375 0,-0.171875 -0.140625,-0.265625 -0.296875,-0.265625 -0.09375,0 -0.25,0.0625 -0.34375,0.203125 -0.015625,0.0625 -0.109375,0.359375 -0.140625,0.546875 -0.078125,0.25 -0.140625,0.53125 -0.203125,0.796875 l -0.453125,1.796875 c -0.03125,0.140625 -0.46875,0.84375 -1.125,0.84375 -0.5,0 -0.609375,-0.4375 -0.609375,-0.8125 C 1.71875,-1.375 1.890625,-2 2.21875,-2.875 2.375,-3.28125 2.421875,-3.390625 2.421875,-3.59375 c 0,-0.4375 -0.3125,-0.8125 -0.8125,-0.8125 -0.953125,0 -1.3125,1.453125 -1.3125,1.53125 0,0.109375 0.09375,0.109375 0.109375,0.109375 0.109375,0 0.109375,-0.03125 0.15625,-0.1875 0.28125,-0.9375 0.671875,-1.234375 1.015625,-1.234375 0.078125,0 0.25,0 0.25,0.3125 0,0.25 -0.109375,0.515625 -0.171875,0.703125 -0.40625,1.0625 -0.578125,1.625 -0.578125,2.09375 0,0.890625 0.625,1.1875 1.21875,1.1875 0.390625,0 0.71875,-0.171875 1,-0.453125 -0.125,0.515625 -0.25,1.015625 -0.640625,1.546875 -0.265625,0.328125 -0.640625,0.625 -1.09375,0.625 -0.140625,0 -0.59375,-0.03125 -0.765625,-0.421875 0.15625,0 0.296875,0 0.421875,-0.125 C 1.328125,1.203125 1.421875,1.0625 1.421875,0.875 1.421875,0.5625 1.15625,0.53125 1.0625,0.53125 0.828125,0.53125 0.5,0.6875 0.5,1.171875 c 0,0.5 0.4375,0.875 1.0625,0.875 1.015625,0 2.046875,-0.90625 2.328125,-2.03125 z m 0,0"
             id="id-54005aa0-a4ee-443c-a567-5e1ac824c3c5" />
        </symbol>
        <symbol
           overflow="visible"
           id="id-0542f172-85d3-439c-ade1-48ba655e1a72">
          <path
             style="stroke:none;stroke-width:0"
             d="m 2.03125,-0.015625 c 0,-0.65625 -0.25,-1.046875 -0.640625,-1.046875 -0.328125,0 -0.53125,0.25 -0.53125,0.53125 C 0.859375,-0.265625 1.0625,0 1.390625,0 1.5,0 1.640625,-0.046875 1.734375,-0.125 1.765625,-0.15625 1.78125,-0.15625 1.78125,-0.15625 c 0.015625,0 0.015625,0 0.015625,0.140625 0,0.75 -0.34375,1.34375 -0.671875,1.671875 -0.109375,0.109375 -0.109375,0.125 -0.109375,0.15625 0,0.078125 0.046875,0.109375 0.09375,0.109375 0.109375,0 0.921875,-0.765625 0.921875,-1.9375 z m 0,0"
             id="id-362d5f76-9bc8-489f-821c-006a4bf7cdc0" />
        </symbol>
        <symbol
           overflow="visible"
           id="id-6a255be5-4822-4658-8e2b-5ba8003ba26b">
          <path
             style="stroke:none;stroke-width:0"
             d=""
             id="id-41933009-e3af-4329-8ac0-30d4649afd63" />
        </symbol>
        <symbol
           overflow="visible"
           id="id-028f5149-ff37-41f9-9f57-8419d4d47adb">
          <path
             style="stroke:none;stroke-width:0"
             d="m 2.9375,-6.375 c 0,-0.25 0,-0.265625 -0.234375,-0.265625 C 2.078125,-6 1.203125,-6 0.890625,-6 v 0.3125 c 0.203125,0 0.78125,0 1.296875,-0.265625 v 5.171875 c 0,0.359375 -0.03125,0.46875 -0.921875,0.46875 h -0.3125 V 0 c 0.34375,-0.03125 1.203125,-0.03125 1.609375,-0.03125 0.390625,0 1.265625,0 1.609375,0.03125 v -0.3125 h -0.3125 c -0.90625,0 -0.921875,-0.109375 -0.921875,-0.46875 z m 0,0"
             id="id-04c750a1-02c3-45fe-8275-d6314054c816" />
        </symbol>
        <symbol
           overflow="visible"
           id="id-953c3166-4d4b-4c50-862d-18accd8bdb8c">
          <path
             style="stroke:none;stroke-width:0"
             d="m 2.078125,-1.9375 c 0.21875,0.046875 1.03125,0.203125 1.03125,0.921875 0,0.5 -0.34375,0.90625 -1.125,0.90625 -0.84375,0 -1.203125,-0.5625 -1.390625,-1.421875 C 0.5625,-1.65625 0.5625,-1.6875 0.453125,-1.6875 c -0.125,0 -0.125,0.0625 -0.125,0.234375 V -0.125 c 0,0.171875 0,0.234375 0.109375,0.234375 0.046875,0 0.0625,-0.015625 0.25,-0.203125 0.015625,-0.015625 0.015625,-0.03125 0.203125,-0.21875 0.4375,0.40625 0.890625,0.421875 1.09375,0.421875 1.140625,0 1.609375,-0.671875 1.609375,-1.390625 0,-0.515625 -0.296875,-0.828125 -0.421875,-0.9375 C 2.84375,-2.546875 2.453125,-2.625 2.03125,-2.703125 1.46875,-2.8125 0.8125,-2.9375 0.8125,-3.515625 c 0,-0.359375 0.25,-0.765625 1.109375,-0.765625 1.09375,0 1.15625,0.90625 1.171875,1.203125 0,0.09375 0.09375,0.09375 0.109375,0.09375 0.140625,0 0.140625,-0.046875 0.140625,-0.234375 v -1.015625 c 0,-0.15625 0,-0.234375 -0.109375,-0.234375 -0.046875,0 -0.078125,0 -0.203125,0.125 -0.03125,0.03125 -0.125,0.125 -0.171875,0.15625 -0.375,-0.28125 -0.78125,-0.28125 -0.9375,-0.28125 -1.21875,0 -1.59375,0.671875 -1.59375,1.234375 0,0.34375 0.15625,0.625 0.421875,0.84375 0.328125,0.25 0.609375,0.3125 1.328125,0.453125 z m 0,0"
             id="id-a5157ad6-c09a-4774-8bcf-5638610a7f4e" />
        </symbol>
        <symbol
           overflow="visible"
           id="id-0f38f07e-e9b7-4f64-9570-ae898e83b09e">
          <path
             style="stroke:none;stroke-width:0"
             d="M 1.765625,-4.40625 0.375,-4.296875 v 0.3125 c 0.640625,0 0.734375,0.0625 0.734375,0.546875 V -0.75 c 0,0.4375 -0.109375,0.4375 -0.78125,0.4375 V 0 C 0.640625,-0.015625 1.1875,-0.03125 1.421875,-0.03125 1.78125,-0.03125 2.125,-0.015625 2.46875,0 v -0.3125 c -0.671875,0 -0.703125,-0.046875 -0.703125,-0.4375 z m 0.03125,-1.734375 c 0,-0.3125 -0.234375,-0.53125 -0.515625,-0.53125 -0.3125,0 -0.53125,0.265625 -0.53125,0.53125 0,0.265625 0.21875,0.53125 0.53125,0.53125 0.28125,0 0.515625,-0.21875 0.515625,-0.53125 z m 0,0"
             id="id-4f07dad7-e044-4973-92af-e29b8df0843c" />
        </symbol>
        <symbol
           overflow="visible"
           id="id-0205f185-3fab-461b-9e25-c7f4fcb6cd53">
          <path
             style="stroke:none;stroke-width:0"
             d="M 1.09375,-3.421875 V -0.75 c 0,0.4375 -0.109375,0.4375 -0.78125,0.4375 V 0 c 0.359375,-0.015625 0.859375,-0.03125 1.140625,-0.03125 0.25,0 0.765625,0.015625 1.109375,0.03125 v -0.3125 c -0.671875,0 -0.78125,0 -0.78125,-0.4375 V -2.59375 C 1.78125,-3.625 2.5,-4.1875 3.125,-4.1875 c 0.640625,0 0.75,0.53125 0.75,1.109375 V -0.75 c 0,0.4375 -0.109375,0.4375 -0.78125,0.4375 V 0 c 0.34375,-0.015625 0.859375,-0.03125 1.125,-0.03125 0.25,0 0.78125,0.015625 1.109375,0.03125 v -0.3125 c -0.515625,0 -0.765625,0 -0.765625,-0.296875 v -1.90625 c 0,-0.859375 0,-1.15625 -0.3125,-1.515625 -0.140625,-0.171875 -0.46875,-0.375 -1.046875,-0.375 C 2.46875,-4.40625 2,-3.984375 1.71875,-3.359375 V -4.40625 L 0.3125,-4.296875 v 0.3125 c 0.703125,0 0.78125,0.0625 0.78125,0.5625 z m 0,0"
             id="id-2aa13697-316e-4f98-bc97-60c3206c84a1" />
        </symbol>
        <symbol
           overflow="visible"
           id="id-aadbf124-0398-433b-b119-95a616ee91d8">
          <path
             style="stroke:none;stroke-width:0"
             d="m 3.296875,2.390625 c 0,-0.03125 0,-0.046875 -0.171875,-0.21875 C 1.890625,0.921875 1.5625,-0.96875 1.5625,-2.5 c 0,-1.734375 0.375,-3.46875 1.609375,-4.703125 0.125,-0.125 0.125,-0.140625 0.125,-0.171875 0,-0.078125 -0.03125,-0.109375 -0.09375,-0.109375 -0.109375,0 -1,0.6875 -1.59375,1.953125 -0.5,1.09375 -0.625,2.203125 -0.625,3.03125 0,0.78125 0.109375,1.984375 0.65625,3.125 C 2.25,1.84375 3.09375,2.5 3.203125,2.5 c 0.0625,0 0.09375,-0.03125 0.09375,-0.109375 z m 0,0"
             id="id-6924721f-d6c8-4565-8fb4-e456de37fbdb" />
        </symbol>
        <symbol
           overflow="visible"
           id="id-b38e81b8-93fd-41f4-b4d3-df8b87146e89">
          <path
             style="stroke:none;stroke-width:0"
             d="m 4.078125,-2.296875 h 2.78125 C 7,-2.296875 7.1875,-2.296875 7.1875,-2.5 7.1875,-2.6875 7,-2.6875 6.859375,-2.6875 h -2.78125 v -2.796875 c 0,-0.140625 0,-0.328125 -0.203125,-0.328125 -0.203125,0 -0.203125,0.1875 -0.203125,0.328125 V -2.6875 h -2.78125 c -0.140625,0 -0.328125,0 -0.328125,0.1875 0,0.203125 0.1875,0.203125 0.328125,0.203125 h 2.78125 V 0.5 c 0,0.140625 0,0.328125 0.203125,0.328125 0.203125,0 0.203125,-0.1875 0.203125,-0.328125 z m 0,0"
             id="id-f16a3ed5-8fb4-4ace-a371-73295a69eee3" />
        </symbol>
        <symbol
           overflow="visible"
           id="id-6b964a89-056f-48eb-9f70-269e717dc5c1">
          <path
             style="stroke:none;stroke-width:0"
             d="m 4.40625,-6.953125 c -0.0625,-0.140625 -0.09375,-0.1875 -0.265625,-0.1875 -0.15625,0 -0.1875,0.046875 -0.25,0.1875 l -3.375,6.75 C 0.46875,-0.109375 0.46875,-0.09375 0.46875,-0.078125 0.46875,0 0.53125,0 0.6875,0 h 6.921875 c 0.15625,0 0.21875,0 0.21875,-0.078125 0,-0.015625 0,-0.03125 -0.046875,-0.125 z m -0.578125,0.8125 2.6875,5.390625 h -5.375 z m 0,0"
             id="id-67b5e1a0-d727-4b8e-a7cb-f2026d46a564" />
        </symbol>
        <symbol
           overflow="visible"
           id="id-bc9d0a20-8ce2-4b67-827e-e97943faa276">
          <path
             style="stroke:none;stroke-width:0"
             d="m 2.875,-2.5 c 0,-0.765625 -0.109375,-1.96875 -0.65625,-3.109375 -0.59375,-1.21875 -1.453125,-1.875 -1.546875,-1.875 -0.0625,0 -0.109375,0.046875 -0.109375,0.109375 0,0.03125 0,0.046875 0.1875,0.234375 0.984375,0.984375 1.546875,2.5625 1.546875,4.640625 0,1.71875 -0.359375,3.46875 -1.59375,4.71875 C 0.5625,2.34375 0.5625,2.359375 0.5625,2.390625 0.5625,2.453125 0.609375,2.5 0.671875,2.5 0.765625,2.5 1.671875,1.8125 2.25,0.546875 2.765625,-0.546875 2.875,-1.65625 2.875,-2.5 Z m 0,0"
             id="id-ea84ba2b-4097-4a8f-a4ea-cacdb5a4e609" />
        </symbol>
      </g>
    </defs>
  </defs>
  <g
     inkscape:label="Layer 1"
     inkscape:groupmode="layer"
     id="layer1"
     transform="translate(-76.729168,-76.551597)">
    <g
       id="g2556">
      <path
         style="fill:none;stroke:#19aeff;stroke-width:0.165;stroke-linecap:butt;stroke-linejoin:miter;stroke-miterlimit:4;stroke-dasharray:none;stroke-opacity:1"
         d="M 115.35833,85.460416 V 100.54167"
         id="path1053" />
      <path
         style="fill:none;stroke:#19aeff;stroke-width:0.165;stroke-linecap:butt;stroke-linejoin:miter;stroke-miterlimit:4;stroke-dasharray:none;stroke-opacity:1"
         d="M 109.27292,81.227082 V 100.54167"
         id="path1986" />
      <path
         style="fill:none;stroke:#19aeff;stroke-width:0.165;stroke-linecap:butt;stroke-linejoin:miter;stroke-miterlimit:4;stroke-dasharray:none;stroke-opacity:1"
         d="m 115.35833,85.460416 -14.81666,15.081254 8.73125,-19.314587"
         id="path1375" />
      <circle
         style="font-variation-settings:normal;opacity:1;vector-effect:none;fill:none;fill-opacity:1;fill-rule:evenodd;stroke:#999999;stroke-width:0.264583;stroke-linecap:butt;stroke-linejoin:miter;stroke-miterlimit:4;stroke-dasharray:none;stroke-dashoffset:0;stroke-opacity:1;stop-color:#000000;stop-opacity:1"
         id="path1043"
         cx="100.54166"
         cy="100.54166"
         r="21.166666" />
      <circle
         style="font-variation-settings:normal;opacity:1;vector-effect:none;fill:none;fill-opacity:1;fill-rule:evenodd;stroke:#000000;stroke-width:0.264583;stroke-linecap:butt;stroke-linejoin:miter;stroke-miterlimit:4;stroke-dasharray:none;stroke-dashoffset:0;stroke-opacity:1;stop-color:#000000;stop-opacity:1"
         id="path1045"
         cx="100.54166"
         cy="100.54166"
         r="0.13229166" />
      <path
         style="fill:none;stroke:#000000;stroke-width:0.264583px;stroke-linecap:butt;stroke-linejoin:miter;stroke-opacity:1"
         d="M 100.54167,76.729166 V 124.35417"
         id="path1160" />
      <path
         style="fill:none;stroke:#000000;stroke-width:0.264583px;stroke-linecap:butt;stroke-linejoin:miter;stroke-opacity:1"
         d="M 124.35417,100.54167 H 76.729168"
         id="path1242" />
      <circle
         style="font-variation-settings:normal;opacity:1;vector-effect:none;fill:none;fill-opacity:1;fill-rule:evenodd;stroke:#000000;stroke-width:0.264583;stroke-linecap:butt;stroke-linejoin:miter;stroke-miterlimit:4;stroke-dasharray:none;stroke-dashoffset:0;stroke-opacity:1;stop-color:#000000;stop-opacity:1"
         id="path936"
         cx="109.27292"
         cy="81.227081"
         r="0.13229166" />
      <circle
         style="font-variation-settings:normal;opacity:1;vector-effect:none;fill:none;fill-opacity:1;fill-rule:evenodd;stroke:#000000;stroke-width:0.264583;stroke-linecap:butt;stroke-linejoin:miter;stroke-miterlimit:4;stroke-dasharray:none;stroke-dashoffset:0;stroke-opacity:1;stop-color:#000000;stop-opacity:1"
         id="circle1018"
         cx="115.35833"
         cy="85.460419"
         r="0.13229166" />
      <path
         style="fill:#000000;fill-opacity:1;stroke:none;stroke-width:0"
         d="m 117.46334,84.739645 h 0.49767 c 0.41091,0 0.81726,-0.301337 0.81726,-0.625502 0,-0.228286 -0.19176,-0.442874 -0.57528,-0.442874 h -0.94054 c -0.0548,0 -0.0867,0 -0.0867,0.05479 0,0.03653 0.0228,0.03653 0.0822,0.03653 0.0365,0 0.0913,0.0046 0.12328,0.0046 0.0502,0.0091 0.0639,0.0137 0.0639,0.05022 0,0.0091 0,0.01826 -0.009,0.05479 l -0.39265,1.561473 c -0.0274,0.114143 -0.032,0.136972 -0.26481,0.136972 -0.0457,0 -0.0776,0 -0.0776,0.05479 0,0.03653 0.032,0.03653 0.0411,0.03653 0.0822,0 0.28764,-0.0091 0.36982,-0.0091 0.0639,0 0.12784,0.0046 0.18719,0.0046 0.0639,0 0.12784,0.0046 0.1872,0.0046 0.0228,0 0.0594,0 0.0594,-0.05935 0,-0.03196 -0.0274,-0.03196 -0.0822,-0.03196 -0.10501,0 -0.1872,0 -0.1872,-0.05022 0,-0.01826 0.005,-0.03196 0.009,-0.05022 z m 0.21003,-0.867485 c 0.0274,-0.100446 0.032,-0.109577 0.1598,-0.109577 h 0.27851 c 0.24198,0 0.39721,0.07762 0.39721,0.278508 0,0.114143 -0.0593,0.365257 -0.17349,0.470269 -0.14611,0.132405 -0.3196,0.155234 -0.44744,0.155234 h -0.41092 z m 0,0"
         id="id-d846ec47-bb2b-44cf-b0d4-e331ee0564e6" />
      <path
         style="fill:#000000;fill-opacity:1;stroke:none;stroke-width:0"
         d="m 111.25056,80.100949 c 0.452,-0.168931 0.88118,-0.689422 0.88118,-1.251005 0,-0.470268 -0.31047,-0.785302 -0.74421,-0.785302 -0.6255,0 -1.26927,0.662028 -1.26927,1.342319 0,0.483965 0.32873,0.776171 0.74878,0.776171 0.073,0 0.16893,-0.0137 0.28307,-0.04566 -0.009,0.182628 -0.009,0.187194 -0.009,0.228285 0,0.09131 0,0.3196 0.24198,0.3196 0.34243,0 0.48397,-0.534188 0.48397,-0.566148 0,-0.01826 -0.0183,-0.02739 -0.032,-0.02739 -0.0228,0 -0.0274,0.0137 -0.0365,0.03196 -0.0685,0.205457 -0.23742,0.278508 -0.33786,0.278508 -0.13697,0 -0.17807,-0.07762 -0.21003,-0.301337 z m -0.54789,-0.02283 c -0.22828,-0.09132 -0.32873,-0.315035 -0.32873,-0.579846 0,-0.200891 0.0776,-0.616371 0.29677,-0.926839 0.21459,-0.296772 0.48853,-0.433743 0.70312,-0.433743 0.28764,0 0.50223,0.228286 0.50223,0.616371 0,0.292206 -0.15067,0.977062 -0.6392,1.246439 -0.0137,-0.100445 -0.0411,-0.310468 -0.25568,-0.310468 -0.15523,0 -0.29677,0.141537 -0.29677,0.296771 0,0.05479 0.0183,0.08675 0.0183,0.09132 z m 0.17806,0.03196 c -0.0411,0 -0.1324,0 -0.1324,-0.123275 0,-0.118708 0.10958,-0.232851 0.23285,-0.232851 0.12327,0 0.17806,0.06849 0.17806,0.246548 0,0.04109 -0.005,0.04566 -0.032,0.05935 -0.0776,0.03196 -0.16436,0.05022 -0.24655,0.05022 z m 0,0"
         id="id-22348a19-e905-4db1-ab53-4b522664b306" />
      <path
         style="fill:#000000;fill-opacity:1;stroke:none;stroke-width:0"
         d="m 105.30454,98.298748 c 0,-0.19176 -0.0502,-0.598108 -0.347,-0.598108 -0.40634,0 -0.85378,0.821828 -0.85378,1.488422 0,0.273942 0.0822,0.598108 0.34699,0.598108 0.41091,0 0.85379,-0.835525 0.85379,-1.488422 z m -0.89488,0.397217 c 0.0502,-0.182629 0.10958,-0.41548 0.22829,-0.625503 0.0776,-0.141537 0.18262,-0.305902 0.31503,-0.305902 0.14154,0 0.1598,0.187194 0.1598,0.351559 0,0.146103 -0.0228,0.292206 -0.0913,0.579846 z m 0.58441,0.09588 c -0.032,0.132405 -0.0913,0.378954 -0.20546,0.588977 -0.10044,0.200891 -0.21002,0.342428 -0.33786,0.342428 -0.0959,0 -0.15523,-0.08675 -0.15523,-0.356126 0,-0.123274 0.0183,-0.292205 0.0913,-0.575279 z m 0,0"
         id="id-56aa248d-dcb6-4fbc-841d-8cf5954b7f6e" />
      <path
         style="fill:#000000;fill-opacity:1;stroke:none;stroke-width:0"
         d="m 126.3544,100.60774 c 0.0183,-0.0731 0.0867,-0.34243 0.28764,-0.34243 0.0137,0 0.0868,0 0.1461,0.0365 -0.0822,0.0183 -0.13697,0.0867 -0.13697,0.1598 0,0.0457 0.032,0.10045 0.10958,0.10045 0.0639,0 0.15523,-0.0502 0.15523,-0.16894 0,-0.15066 -0.16893,-0.19176 -0.26937,-0.19176 -0.16893,0 -0.26938,0.15524 -0.30591,0.21916 -0.073,-0.19176 -0.22828,-0.21916 -0.31503,-0.21916 -0.30134,0 -0.47027,0.37439 -0.47027,0.44744 0,0.032 0.032,0.032 0.0365,0.032 0.0228,0 0.032,-0.009 0.0365,-0.032 0.10045,-0.31046 0.29221,-0.38352 0.39265,-0.38352 0.0548,0 0.15524,0.0274 0.15524,0.19633 0,0.0913 -0.0502,0.28307 -0.15524,0.69399 -0.0457,0.17806 -0.15066,0.30134 -0.2785,0.30134 -0.0183,0 -0.0822,0 -0.14611,-0.0365 0.073,-0.0183 0.13697,-0.0776 0.13697,-0.1598 0,-0.0776 -0.0639,-0.10045 -0.10501,-0.10045 -0.0913,0 -0.1598,0.073 -0.1598,0.16893 0,0.13241 0.14154,0.19176 0.26938,0.19176 0.19633,0 0.30134,-0.20546 0.3059,-0.21915 0.0365,0.10501 0.14154,0.21915 0.31504,0.21915 0.30133,0 0.4657,-0.37439 0.4657,-0.44744 0,-0.032 -0.0228,-0.032 -0.032,-0.032 -0.0274,0 -0.032,0.0137 -0.0411,0.032 -0.0959,0.31504 -0.29221,0.38352 -0.38352,0.38352 -0.11414,0 -0.1598,-0.0913 -0.1598,-0.19176 0,-0.0639 0.0137,-0.12784 0.0457,-0.25568 z m 0,0"
         id="id-ca15cc4d-c392-4adc-a813-8ecc8d64ce16" />
      <path
         style="fill:#000000;fill-opacity:1;stroke:none;stroke-width:0"
         d="m 99.586569,76.729671 c 0.0137,-0.04109 0.0137,-0.04566 0.0137,-0.06849 0,-0.05022 -0.04109,-0.07762 -0.08675,-0.07762 -0.02739,0 -0.07305,0.01826 -0.100445,0.05935 -0.0046,0.01826 -0.03196,0.105012 -0.04109,0.1598 -0.02283,0.07305 -0.04109,0.155235 -0.05935,0.232852 l -0.132406,0.525057 c -0.0091,0.04109 -0.136971,0.246548 -0.328731,0.246548 -0.146103,0 -0.178063,-0.12784 -0.178063,-0.237417 0,-0.132406 0.05022,-0.315034 0.146103,-0.570714 0.04566,-0.118708 0.05935,-0.150668 0.05935,-0.210023 0,-0.12784 -0.09131,-0.237417 -0.237417,-0.237417 -0.278508,0 -0.383519,0.424611 -0.383519,0.44744 0,0.03196 0.02739,0.03196 0.03196,0.03196 0.03196,0 0.03196,-0.0091 0.04566,-0.05479 0.08218,-0.273942 0.196325,-0.360691 0.296771,-0.360691 0.02283,0 0.07305,0 0.07305,0.09131 0,0.07305 -0.03196,0.150669 -0.05022,0.205457 -0.118708,0.310469 -0.168931,0.474835 -0.168931,0.611806 0,0.260245 0.182629,0.346994 0.356126,0.346994 0.114142,0 0.210022,-0.05022 0.292205,-0.132406 -0.03652,0.150669 -0.07305,0.296772 -0.187194,0.452006 -0.07762,0.09588 -0.187194,0.182628 -0.3196,0.182628 -0.04109,0 -0.173497,-0.0091 -0.22372,-0.123274 0.04566,0 0.08675,0 0.123275,-0.03653 0.03196,-0.02283 0.05935,-0.06392 0.05935,-0.118708 0,-0.09131 -0.07762,-0.100446 -0.105012,-0.100446 -0.06848,0 -0.164365,0.04566 -0.164365,0.187194 0,0.146103 0.12784,0.25568 0.310468,0.25568 0.296771,0 0.598108,-0.264811 0.680291,-0.593542 z m 0,0"
         id="id-70c4440c-d1b8-42e5-93d8-177691d75ab8" />
      <path
         style="fill:#000000;fill-opacity:1;stroke:none;stroke-width:0"
         d="m 110.64382,102.85108 c 0,-0.073 0,-0.0776 -0.0685,-0.0776 -0.18263,0.1872 -0.43831,0.1872 -0.52962,0.1872 v 0.0913 c 0.0593,0 0.22828,0 0.37895,-0.0776 v 1.51125 c 0,0.10501 -0.009,0.13697 -0.26938,0.13697 h -0.0913 v 0.0913 c 0.10045,-0.009 0.35156,-0.009 0.47027,-0.009 0.11415,0 0.36983,0 0.47027,0.009 v -0.0913 h -0.0913 c -0.26481,0 -0.26938,-0.032 -0.26938,-0.13697 z m 0,0"
         id="id-34e55ced-a317-4d40-aaf9-179c73997413" />
      <g
         id="g1951"
         transform="matrix(0,0.77585589,-0.77585589,0,173.14919,15.180734)"
         style="fill:#005c94">
        <path
           style="fill:#005c94;fill-opacity:1;stroke:none;stroke-width:0"
           d="m 94.901219,73.433741 c 0.06392,0.0137 0.301337,0.05935 0.301337,0.269377 0,0.146103 -0.100446,0.264811 -0.328732,0.264811 -0.246548,0 -0.351559,-0.164366 -0.406348,-0.41548 -0.0091,-0.03652 -0.0091,-0.04566 -0.04109,-0.04566 -0.03653,0 -0.03653,0.01826 -0.03653,0.06849 v 0.388085 c 0,0.05022 0,0.06849 0.03196,0.06849 0.0137,0 0.01826,-0.0046 0.07305,-0.05935 0.0046,-0.0046 0.0046,-0.0091 0.05935,-0.06392 0.12784,0.118708 0.260245,0.123274 0.319599,0.123274 0.333297,0 0.470269,-0.196326 0.470269,-0.406348 0,-0.150669 -0.08675,-0.241983 -0.123274,-0.273943 -0.09588,-0.09588 -0.210023,-0.118709 -0.333297,-0.141537 -0.164366,-0.03196 -0.356126,-0.06849 -0.356126,-0.237417 0,-0.105012 0.07305,-0.22372 0.324166,-0.22372 0.319599,0 0.337862,0.264811 0.342428,0.35156 0,0.02739 0.02739,0.02739 0.03196,0.02739 0.04109,0 0.04109,-0.0137 0.04109,-0.06849 v -0.296771 c 0,-0.04566 0,-0.06849 -0.03196,-0.06849 -0.0137,0 -0.02283,0 -0.05935,0.03653 -0.0091,0.0091 -0.03653,0.03653 -0.05022,0.04566 -0.109577,-0.08218 -0.228285,-0.08218 -0.273942,-0.08218 -0.356126,0 -0.465703,0.196326 -0.465703,0.360692 0,0.100445 0.04566,0.182628 0.123274,0.246548 0.09588,0.07305 0.178063,0.09131 0.388086,0.132406 z m 0,0"
           id="id-92c9976b-25df-4823-aa53-712cc174f402" />
        <path
           style="fill:#005c94;fill-opacity:1;stroke:none;stroke-width:0"
           d="m 95.95798,72.712358 -0.406348,0.03196 v 0.09131 c 0.187194,0 0.214589,0.01826 0.214589,0.1598 v 0.785303 c 0,0.12784 -0.03196,0.12784 -0.228286,0.12784 v 0.09131 c 0.09131,-0.0046 0.251114,-0.0091 0.3196,-0.0091 0.105011,0 0.205457,0.0046 0.305902,0.0091 v -0.09131 c -0.196325,0 -0.205457,-0.0137 -0.205457,-0.12784 z m 0.0091,-0.506794 c 0,-0.09131 -0.06849,-0.155234 -0.150669,-0.155234 -0.09131,0 -0.155234,0.07762 -0.155234,0.155234 0,0.07762 0.06392,0.155234 0.155234,0.155234 0.08218,0 0.150669,-0.06392 0.150669,-0.155234 z m 0,0"
           id="id-4504e9bc-378f-4cdd-a511-69590bcbaa22" />
        <path
           style="fill:#005c94;fill-opacity:1;stroke:none;stroke-width:0"
           d="m 96.57048,72.999998 v 0.780737 c 0,0.12784 -0.03196,0.12784 -0.228286,0.12784 v 0.09131 c 0.105012,-0.0046 0.251114,-0.0091 0.333297,-0.0091 0.07305,0 0.22372,0.0046 0.324166,0.0091 v -0.09131 c -0.196326,0 -0.228286,0 -0.228286,-0.12784 v -0.538754 c 0,-0.301337 0.210023,-0.465703 0.392651,-0.465703 0.187195,0 0.219155,0.155234 0.219155,0.324166 v 0.680291 c 0,0.12784 -0.03196,0.12784 -0.228286,0.12784 v 0.09131 c 0.100446,-0.0046 0.251114,-0.0091 0.328731,-0.0091 0.07305,0 0.228286,0.0046 0.324166,0.0091 v -0.09131 c -0.150669,0 -0.22372,0 -0.22372,-0.08675 v -0.557017 c 0,-0.251114 0,-0.337862 -0.09131,-0.442874 -0.04109,-0.05022 -0.136972,-0.109577 -0.305903,-0.109577 -0.214589,0 -0.35156,0.123274 -0.433743,0.305903 v -0.305903 l -0.410914,0.03196 v 0.09131 c 0.205457,0 0.228286,0.01826 0.228286,0.164366 z m 0,0"
           id="id-4f0a8f63-977e-4a29-941f-6dba71bdb1b7" />
        <path
           style="fill:#005c94;fill-opacity:1;stroke:none;stroke-width:0"
           d="m 99.678523,72.543427 c 0,-0.19176 -0.05022,-0.598108 -0.346994,-0.598108 -0.406348,0 -0.853788,0.821828 -0.853788,1.488422 0,0.273942 0.08218,0.598108 0.346994,0.598108 0.410914,0 0.853788,-0.835525 0.853788,-1.488422 z m -0.894879,0.397217 c 0.05022,-0.182629 0.109577,-0.41548 0.228286,-0.625503 0.07762,-0.141537 0.182628,-0.305902 0.315034,-0.305902 0.141537,0 0.1598,0.187194 0.1598,0.351559 0,0.146103 -0.02283,0.292206 -0.09131,0.579846 z m 0.584411,0.09588 c -0.03196,0.132405 -0.09131,0.378954 -0.205457,0.588977 -0.100446,0.200891 -0.210023,0.342428 -0.337863,0.342428 -0.09588,0 -0.155234,-0.08675 -0.155234,-0.356126 0,-0.123274 0.01826,-0.292205 0.09131,-0.575279 z m 0,0"
           id="id-3f68415e-f476-48a5-96bc-f20bdc4d7ef4" />
      </g>
      <g
         id="g1945"
         transform="matrix(0.72032476,0,0,0.72032476,27.423747,39.775611)">
        <path
           style="fill:#000000;fill-opacity:1;stroke:none;stroke-width:0"
           d="m 108.1969,71.968147 c -0.0183,-0.04109 -0.0274,-0.05479 -0.0776,-0.05479 -0.0457,0 -0.0548,0.0137 -0.0731,0.05479 l -0.98619,1.972388 c -0.0137,0.02739 -0.0137,0.03196 -0.0137,0.03652 0,0.02283 0.0183,0.02283 0.0639,0.02283 h 2.02261 c 0.0457,0 0.0639,0 0.0639,-0.02283 0,-0.0046 0,-0.0091 -0.0137,-0.03652 z m -0.16893,0.237417 0.7853,1.575171 h -1.5706 z m 0,0"
           id="path1941" />
        <path
           style="fill:#000000;fill-opacity:1;stroke:none;stroke-width:0"
           d="m 110.6599,72.543427 c 0,-0.19176 -0.0502,-0.598108 -0.347,-0.598108 -0.40635,0 -0.85379,0.821828 -0.85379,1.488422 0,0.273942 0.0822,0.598108 0.347,0.598108 0.41091,0 0.85379,-0.835525 0.85379,-1.488422 z m -0.89488,0.397217 c 0.0502,-0.182629 0.10957,-0.41548 0.22828,-0.625503 0.0776,-0.141537 0.18263,-0.305902 0.31504,-0.305902 0.14153,0 0.1598,0.187194 0.1598,0.351559 0,0.146103 -0.0228,0.292206 -0.0913,0.579846 z m 0.58441,0.09588 c -0.032,0.132405 -0.0913,0.378954 -0.20546,0.588977 -0.10044,0.200891 -0.21002,0.342428 -0.33786,0.342428 -0.0959,0 -0.15524,-0.08675 -0.15524,-0.356126 0,-0.123274 0.0183,-0.292205 0.0913,-0.575279 z m 0,0"
           id="path1943" />
      </g>
      <g
         id="g2097"
         transform="matrix(0,0.54500177,-0.54500177,0,150.24344,20.971692)"
         style="fill:#005c94">
        <path
           style="fill:#005c94;fill-opacity:1;stroke:none;stroke-width:0"
           d="m 112.68426,73.433741 c 0.0639,0.0137 0.30134,0.05935 0.30134,0.269377 0,0.146103 -0.10045,0.264811 -0.32873,0.264811 -0.24655,0 -0.35156,-0.164366 -0.40635,-0.41548 -0.009,-0.03652 -0.009,-0.04566 -0.0411,-0.04566 -0.0365,0 -0.0365,0.01826 -0.0365,0.06849 v 0.388085 c 0,0.05022 0,0.06849 0.032,0.06849 0.0137,0 0.0183,-0.0046 0.0731,-0.05935 0.005,-0.0046 0.005,-0.0091 0.0594,-0.06392 0.12784,0.118708 0.26024,0.123274 0.3196,0.123274 0.33329,0 0.47026,-0.196326 0.47026,-0.406348 0,-0.150669 -0.0867,-0.241983 -0.12327,-0.273943 -0.0959,-0.09588 -0.21002,-0.118709 -0.3333,-0.141537 -0.16436,-0.03196 -0.35612,-0.06849 -0.35612,-0.237417 0,-0.105012 0.073,-0.22372 0.32416,-0.22372 0.3196,0 0.33787,0.264811 0.34243,0.35156 0,0.02739 0.0274,0.02739 0.032,0.02739 0.0411,0 0.0411,-0.0137 0.0411,-0.06849 v -0.296771 c 0,-0.04566 0,-0.06849 -0.032,-0.06849 -0.0137,0 -0.0228,0 -0.0593,0.03653 -0.009,0.0091 -0.0365,0.03653 -0.0502,0.04566 -0.10958,-0.08218 -0.22829,-0.08218 -0.27395,-0.08218 -0.35612,0 -0.4657,0.196326 -0.4657,0.360692 0,0.100445 0.0457,0.182628 0.12327,0.246548 0.0959,0.07305 0.17807,0.09131 0.38809,0.132406 z m 0,0"
           id="path2079" />
        <path
           style="fill:#005c94;fill-opacity:1;stroke:none;stroke-width:0"
           d="m 113.74103,72.712358 -0.40635,0.03196 v 0.09131 c 0.18719,0 0.21459,0.01826 0.21459,0.1598 v 0.785303 c 0,0.12784 -0.032,0.12784 -0.22829,0.12784 v 0.09131 c 0.0913,-0.0046 0.25111,-0.0091 0.3196,-0.0091 0.10501,0 0.20546,0.0046 0.3059,0.0091 v -0.09131 c -0.19632,0 -0.20545,-0.0137 -0.20545,-0.12784 z m 0.009,-0.506794 c 0,-0.09131 -0.0685,-0.155234 -0.15067,-0.155234 -0.0913,0 -0.15524,0.07762 -0.15524,0.155234 0,0.07762 0.0639,0.155234 0.15524,0.155234 0.0822,0 0.15067,-0.06392 0.15067,-0.155234 z m 0,0"
           id="path2081" />
        <path
           style="fill:#005c94;fill-opacity:1;stroke:none;stroke-width:0"
           d="m 114.35353,72.999998 v 0.780737 c 0,0.12784 -0.032,0.12784 -0.22829,0.12784 v 0.09131 c 0.10502,-0.0046 0.25112,-0.0091 0.3333,-0.0091 0.073,0 0.22372,0.0046 0.32417,0.0091 v -0.09131 c -0.19633,0 -0.22829,0 -0.22829,-0.12784 v -0.538754 c 0,-0.301337 0.21002,-0.465703 0.39265,-0.465703 0.1872,0 0.21916,0.155234 0.21916,0.324166 v 0.680291 c 0,0.12784 -0.032,0.12784 -0.22829,0.12784 v 0.09131 c 0.10045,-0.0046 0.25112,-0.0091 0.32873,-0.0091 0.073,0 0.22829,0.0046 0.32417,0.0091 v -0.09131 c -0.15067,0 -0.22372,0 -0.22372,-0.08675 v -0.557017 c 0,-0.251114 0,-0.337862 -0.0913,-0.442874 -0.0411,-0.05022 -0.13697,-0.109577 -0.3059,-0.109577 -0.21459,0 -0.35156,0.123274 -0.43374,0.305903 v -0.305903 l -0.41092,0.03196 v 0.09131 c 0.20546,0 0.22829,0.01826 0.22829,0.164366 z m 0,0"
           id="path2083" />
        <path
           style="fill:#005c94;fill-opacity:1;stroke:none;stroke-width:0"
           d="m 116.61465,74.698443 c 0,-0.0091 0,-0.0137 -0.0502,-0.06392 -0.36069,-0.365257 -0.45657,-0.917708 -0.45657,-1.365148 0,-0.506794 0.10958,-1.013588 0.47027,-1.374279 0.0365,-0.03653 0.0365,-0.04109 0.0365,-0.05022 0,-0.02283 -0.009,-0.03196 -0.0274,-0.03196 -0.032,0 -0.2922,0.200891 -0.4657,0.570714 -0.1461,0.3196 -0.18263,0.643765 -0.18263,0.885748 0,0.228286 0.032,0.579846 0.19176,0.913142 0.17806,0.356126 0.42461,0.547886 0.45657,0.547886 0.0183,0 0.0274,-0.0091 0.0274,-0.03196 z m 0,0"
           id="path2085" />
        <path
           style="fill:#005c94;fill-opacity:1;stroke:none;stroke-width:0"
           d="m 118.10764,72.543427 c 0,-0.19176 -0.0502,-0.598108 -0.347,-0.598108 -0.40635,0 -0.85379,0.821828 -0.85379,1.488422 0,0.273942 0.0822,0.598108 0.347,0.598108 0.41091,0 0.85379,-0.835525 0.85379,-1.488422 z m -0.89488,0.397217 c 0.0502,-0.182629 0.10957,-0.41548 0.22828,-0.625503 0.0776,-0.141537 0.18263,-0.305902 0.31504,-0.305902 0.14153,0 0.1598,0.187194 0.1598,0.351559 0,0.146103 -0.0228,0.292206 -0.0913,0.579846 z m 0.58441,0.09588 c -0.032,0.132405 -0.0913,0.378954 -0.20546,0.588977 -0.10044,0.200891 -0.21002,0.342428 -0.33786,0.342428 -0.0959,0 -0.15524,-0.08675 -0.15524,-0.356126 0,-0.123274 0.0183,-0.292205 0.0913,-0.575279 z m 0,0"
           id="path2087" />
        <path
           style="fill:#005c94;fill-opacity:1;stroke:none;stroke-width:0"
           d="m 120.06947,73.328729 h 0.8127 c 0.0411,0 0.0959,0 0.0959,-0.05935 0,-0.05479 -0.0548,-0.05479 -0.0959,-0.05479 h -0.8127 v -0.817263 c 0,-0.04109 0,-0.09588 -0.0593,-0.09588 -0.0594,0 -0.0594,0.05479 -0.0594,0.09588 v 0.817263 h -0.81269 c -0.0411,0 -0.0959,0 -0.0959,0.05479 0,0.05935 0.0548,0.05935 0.0959,0.05935 h 0.81269 v 0.817263 c 0,0.04109 0,0.09588 0.0594,0.09588 0.0593,0 0.0593,-0.05479 0.0593,-0.09588 z m 0,0"
           id="path2089" />
        <path
           style="fill:#005c94;fill-opacity:1;stroke:none;stroke-width:0"
           d="m 123.07601,71.968147 c -0.0183,-0.04109 -0.0274,-0.05479 -0.0776,-0.05479 -0.0456,0 -0.0548,0.0137 -0.073,0.05479 l -0.98619,1.972388 c -0.0137,0.02739 -0.0137,0.03196 -0.0137,0.03652 0,0.02283 0.0183,0.02283 0.0639,0.02283 h 2.02261 c 0.0457,0 0.0639,0 0.0639,-0.02283 0,-0.0046 0,-0.0091 -0.0137,-0.03652 z m -0.16893,0.237417 0.7853,1.575171 h -1.5706 z m 0,0"
           id="path2091" />
        <path
           style="fill:#005c94;fill-opacity:1;stroke:none;stroke-width:0"
           d="m 125.53901,72.543427 c 0,-0.19176 -0.0502,-0.598108 -0.347,-0.598108 -0.40635,0 -0.85379,0.821828 -0.85379,1.488422 0,0.273942 0.0822,0.598108 0.347,0.598108 0.41091,0 0.85379,-0.835525 0.85379,-1.488422 z m -0.89488,0.397217 c 0.0502,-0.182629 0.10957,-0.41548 0.22828,-0.625503 0.0776,-0.141537 0.18263,-0.305902 0.31504,-0.305902 0.14153,0 0.1598,0.187194 0.1598,0.351559 0,0.146103 -0.0228,0.292206 -0.0913,0.579846 z m 0.58441,0.09588 c -0.032,0.132405 -0.0913,0.378954 -0.20546,0.588977 -0.10044,0.200891 -0.21002,0.342428 -0.33786,0.342428 -0.0959,0 -0.15524,-0.08675 -0.15524,-0.356126 0,-0.123274 0.0183,-0.292205 0.0913,-0.575279 z m 0,0"
           id="path2093" />
        <path
           style="fill:#005c94;fill-opacity:1;stroke:none;stroke-width:0"
           d="m 126.50263,73.269375 c 0,-0.22372 -0.032,-0.57528 -0.19176,-0.908577 -0.1735,-0.356125 -0.42461,-0.547885 -0.452,-0.547885 -0.0183,0 -0.032,0.0137 -0.032,0.03196 0,0.0091 0,0.0137 0.0548,0.06849 0.28764,0.28764 0.45201,0.748776 0.45201,1.356016 0,0.502228 -0.10501,1.013588 -0.4657,1.378845 -0.0411,0.03653 -0.0411,0.04109 -0.0411,0.05022 0,0.01826 0.0137,0.03196 0.032,0.03196 0.0274,0 0.2922,-0.200891 0.46113,-0.570714 0.15067,-0.3196 0.18263,-0.643765 0.18263,-0.890314 z m 0,0"
           id="path2095" />
      </g>
      <g
         transform="matrix(0.27075874,0,0,0.27075874,97.760033,101.29389)"
         ns26:version="1.3.1"
         ns26:texconverter="pdflatex"
         ns26:pdfconverter="inkscape"
         ns26:text="$O$\n"
         ns26:preamble="/Users/ketiboldiais/Library/Application Support/org.inkscape.Inkscape/config/inkscape/extensions/circuitSymbols/circuitSymbolsPreamble.tex"
         ns26:scale="1.0743323752859513"
         ns26:alignment="middle center"
         ns26:jacobian_sqrt="0.379001"
         id="g2478">
        <defs
           id="id-923eb814-4e37-4bfb-9e9f-89ba7c055bde">
          <g
             id="id-793f6fbc-d410-4a06-a181-61a8fe0b2d6a">
            <symbol
               overflow="visible"
               id="id-ca06093a-cc94-483a-b00b-fb1875911a54">
              <path
                 style="stroke:none;stroke-width:0"
                 d=""
                 id="id-91cd31cf-7ba5-4d2b-85ec-07d7df7ad47d" />
            </symbol>
            <symbol
               overflow="visible"
               id="id-a466c2b3-137e-4a8e-9470-320d761871b8">
              <path
                 style="stroke:none;stroke-width:0"
                 d="m 7.375,-4.34375 c 0,-1.609375 -1.0625,-2.6875 -2.546875,-2.6875 -2.140625,0 -4.34375,2.265625 -4.34375,4.59375 0,1.65625 1.125,2.65625 2.5625,2.65625 2.109375,0 4.328125,-2.1875 4.328125,-4.5625 z m -4.28125,4.296875 c -0.984375,0 -1.671875,-0.796875 -1.671875,-2.109375 0,-0.453125 0.140625,-1.90625 0.90625,-3.0625 0.6875,-1.046875 1.65625,-1.5625 2.453125,-1.5625 0.8125,0 1.703125,0.5625 1.703125,2.046875 0,0.71875 -0.265625,2.265625 -1.25,3.5 C 4.75,-0.625 3.9375,-0.046875 3.09375,-0.046875 Z m 0,0"
                 id="id-2dc4cf16-fa97-4f95-aee4-cf35d3661fd5" />
            </symbol>
          </g>
        </defs>
        <g
           id="id-c7a035d2-6f0d-4527-832f-79ce1950aabf"
           transform="translate(-149.196,-127.734)">
          <g
             style="fill:#000000;fill-opacity:1"
             id="id-9ae147b4-c418-4ae6-a0cb-bd6ffd9746e3">
            <g
               transform="translate(148.712,134.765)"
               id="g2474">
              <path
                 style="stroke:none;stroke-width:0"
                 d="m 7.375,-4.34375 c 0,-1.609375 -1.0625,-2.6875 -2.546875,-2.6875 -2.140625,0 -4.34375,2.265625 -4.34375,4.59375 0,1.65625 1.125,2.65625 2.5625,2.65625 2.109375,0 4.328125,-2.1875 4.328125,-4.5625 z m -4.28125,4.296875 c -0.984375,0 -1.671875,-0.796875 -1.671875,-2.109375 0,-0.453125 0.140625,-1.90625 0.90625,-3.0625 0.6875,-1.046875 1.65625,-1.5625 2.453125,-1.5625 0.8125,0 1.703125,0.5625 1.703125,2.046875 0,0.71875 -0.265625,2.265625 -1.25,3.5 C 4.75,-0.625 3.9375,-0.046875 3.09375,-0.046875 Z m 0,0"
                 id="id-946de395-6f33-41f5-82ad-a9a450a56fc9" />
            </g>
          </g>
        </g>
      </g>
    </g>
  </g>
</svg>
