<?xml version="1.0" encoding="UTF-8" standalone="no"?>
<!-- Created with Inkscape (http://www.inkscape.org/) -->

<svg
   width="140.27678mm"
   height="65.536552mm"
   viewBox="0 0 140.27678 65.536552"
   version="1.1"
   id="svg5"
   sodipodi:docname="pyramid_riemann_sum.svg"
   inkscape:version="1.1 (c4e8f9e, 2021-05-24)"
   xmlns:inkscape="http://www.inkscape.org/namespaces/inkscape"
   xmlns:sodipodi="http://sodipodi.sourceforge.net/DTD/sodipodi-0.dtd"
   xmlns="http://www.w3.org/2000/svg"
   xmlns:svg="http://www.w3.org/2000/svg">
  <sodipodi:namedview
     id="namedview7"
     pagecolor="#ffffff"
     bordercolor="#666666"
     borderopacity="1.0"
     inkscape:pageshadow="2"
     inkscape:pageopacity="0.0"
     inkscape:pagecheckerboard="0"
     inkscape:document-units="mm"
     showgrid="false"
     inkscape:zoom="0.94531627"
     inkscape:cx="256.5279"
     inkscape:cy="200.46201"
     inkscape:window-width="1312"
     inkscape:window-height="847"
     inkscape:window-x="0"
     inkscape:window-y="25"
     inkscape:window-maximized="0"
     inkscape:current-layer="layer1">
    <inkscape:grid
       type="xygrid"
       id="grid824"
       originx="-35.865277"
       originy="-111.47451" />
  </sodipodi:namedview>
  <defs
     id="defs2">
    <defs
       id="id-7a871a3b-095f-41ea-93a5-93045b36c167">
      <g
         id="id-67570ec1-ca1f-4ef0-9048-c0e3cdf7ecab">
        <symbol
           overflow="visible"
           id="id-efa033e7-47f0-49ae-a249-567222160377">
          <path
             style="stroke:none;stroke-width:0"
             d=""
             id="id-b61a5162-0a66-441f-9faf-a1414bd9c989" />
        </symbol>
        <symbol
           overflow="visible"
           id="id-68256c68-d130-4cd4-9e79-2d1eff8d1704">
          <path
             style="stroke:none;stroke-width:0"
             d="m 0.875,-0.59375 c -0.03125,0.15625 -0.09375,0.390625 -0.09375,0.4375 0,0.171875 0.140625,0.265625 0.296875,0.265625 0.125,0 0.296875,-0.078125 0.375,-0.28125 0,-0.015625 0.125,-0.484375 0.1875,-0.734375 l 0.21875,-0.890625 C 1.90625,-2.03125 1.96875,-2.25 2.03125,-2.46875 c 0.03125,-0.171875 0.109375,-0.46875 0.125,-0.5 0.140625,-0.3125 0.671875,-1.21875 1.625,-1.21875 0.453125,0 0.53125,0.375 0.53125,0.703125 0,0.609375 -0.484375,1.890625 -0.640625,2.3125 C 3.578125,-0.9375 3.5625,-0.8125 3.5625,-0.703125 c 0,0.46875 0.359375,0.8125 0.828125,0.8125 0.9375,0 1.296875,-1.453125 1.296875,-1.53125 0,-0.109375 -0.078125,-0.109375 -0.109375,-0.109375 -0.109375,0 -0.109375,0.03125 -0.15625,0.1875 -0.203125,0.671875 -0.53125,1.234375 -1.015625,1.234375 -0.171875,0 -0.234375,-0.09375 -0.234375,-0.328125 0,-0.25 0.078125,-0.484375 0.171875,-0.703125 0.1875,-0.53125 0.609375,-1.625 0.609375,-2.203125 0,-0.65625 -0.421875,-1.0625 -1.140625,-1.0625 -0.90625,0 -1.390625,0.640625 -1.5625,0.875 -0.046875,-0.5625 -0.453125,-0.875 -0.921875,-0.875 -0.453125,0 -0.640625,0.390625 -0.734375,0.5625 C 0.421875,-3.5 0.296875,-2.90625 0.296875,-2.875 c 0,0.109375 0.09375,0.109375 0.109375,0.109375 0.109375,0 0.109375,-0.015625 0.171875,-0.234375 0.171875,-0.703125 0.375,-1.1875 0.734375,-1.1875 0.1875,0 0.296875,0.125 0.296875,0.453125 0,0.21875 -0.03125,0.328125 -0.15625,0.84375 z m 0,0"
             id="id-640cd81e-485a-45dc-acd9-c3d73c5d5214" />
        </symbol>
        <symbol
           overflow="visible"
           id="id-caf07056-ff2a-42ae-bf61-995c4db11f44">
          <path
             style="stroke:none;stroke-width:0"
             d=""
             id="id-0e070fc9-0ba0-40e9-abb2-cdade13281ba" />
        </symbol>
        <symbol
           overflow="visible"
           id="id-c62315fe-6606-4694-a4cb-3954373227d3">
          <path
             style="stroke:none;stroke-width:0"
             d="m 6.5625,-2.296875 c 0.171875,0 0.359375,0 0.359375,-0.203125 0,-0.1875 -0.1875,-0.1875 -0.359375,-0.1875 H 1.171875 c -0.171875,0 -0.34375,0 -0.34375,0.1875 0,0.203125 0.171875,0.203125 0.34375,0.203125 z m 0,0"
             id="id-d23f0fe9-0c39-4a3f-b77f-d49565f6bf26" />
        </symbol>
        <symbol
           overflow="visible"
           id="id-f9210a63-1296-4622-b477-1998e04ede4d">
          <path
             style="stroke:none;stroke-width:0"
             d=""
             id="id-857c949d-b122-41e4-b821-f582be60a3b8" />
        </symbol>
        <symbol
           overflow="visible"
           id="id-c4121821-44d9-4a74-8d9a-e283363f22a6">
          <path
             style="stroke:none;stroke-width:0"
             d="m 2.9375,-6.375 c 0,-0.25 0,-0.265625 -0.234375,-0.265625 C 2.078125,-6 1.203125,-6 0.890625,-6 v 0.3125 c 0.203125,0 0.78125,0 1.296875,-0.265625 v 5.171875 c 0,0.359375 -0.03125,0.46875 -0.921875,0.46875 h -0.3125 V 0 c 0.34375,-0.03125 1.203125,-0.03125 1.609375,-0.03125 0.390625,0 1.265625,0 1.609375,0.03125 v -0.3125 h -0.3125 c -0.90625,0 -0.921875,-0.109375 -0.921875,-0.46875 z m 0,0"
             id="id-a93cec48-3457-4305-82da-806a92064411" />
        </symbol>
      </g>
    </defs>
    <defs
       id="id-8a531807-3514-4130-a6f1-82c6a31981dc">
      <g
         id="id-37979aa5-64e6-43e4-93e2-f09e504a0be3">
        <symbol
           overflow="visible"
           id="id-5ef6a224-4d25-4063-bd61-7c7f7715170d">
          <path
             style="stroke:none;stroke-width:0"
             d=""
             id="id-7252e983-40b0-4fbc-812e-d149cdeaef08" />
        </symbol>
        <symbol
           overflow="visible"
           id="id-e27b161a-0359-45a2-ad65-6fb8c06e6004">
          <path
             style="stroke:none;stroke-width:0"
             d="m 1.71875,-3.984375 h 1.4375 v -0.3125 H 1.71875 V -6.125 h -0.25 c 0,0.8125 -0.296875,1.875 -1.28125,1.921875 v 0.21875 h 0.84375 v 2.75 c 0,1.21875 0.9375,1.34375 1.296875,1.34375 0.703125,0 0.984375,-0.703125 0.984375,-1.34375 v -0.5625 h -0.25 V -1.25 c 0,0.734375 -0.296875,1.109375 -0.671875,1.109375 -0.671875,0 -0.671875,-0.90625 -0.671875,-1.078125 z m 0,0"
             id="id-188df763-8170-4ea4-9c00-2df76b23c378" />
        </symbol>
        <symbol
           overflow="visible"
           id="id-44bbba83-1f62-4bff-a5d6-223071e77819">
          <path
             style="stroke:none;stroke-width:0"
             d="M 4.6875,-2.140625 C 4.6875,-3.40625 3.703125,-4.46875 2.5,-4.46875 c -1.25,0 -2.21875,1.09375 -2.21875,2.328125 0,1.296875 1.03125,2.25 2.203125,2.25 1.203125,0 2.203125,-0.984375 2.203125,-2.25 z m -2.1875,2 c -0.4375,0 -0.875,-0.203125 -1.140625,-0.671875 -0.25,-0.4375 -0.25,-1.046875 -0.25,-1.40625 0,-0.390625 0,-0.921875 0.234375,-1.359375 C 1.609375,-4.03125 2.078125,-4.25 2.484375,-4.25 c 0.4375,0 0.859375,0.21875 1.125,0.65625 0.265625,0.421875 0.265625,1 0.265625,1.375 0,0.359375 0,0.90625 -0.21875,1.34375 C 3.421875,-0.421875 2.984375,-0.140625 2.5,-0.140625 Z m 0,0"
             id="id-87bf5c50-be92-44ac-b9d6-fea306141932" />
        </symbol>
        <symbol
           overflow="visible"
           id="id-02fa645d-0132-4710-9ebf-f8ef05455aa6">
          <path
             style="stroke:none;stroke-width:0"
             d="m 1.71875,-3.75 v -0.65625 l -1.4375,0.109375 v 0.3125 c 0.703125,0 0.78125,0.0625 0.78125,0.5 v 4.65625 C 1.0625,1.625 0.953125,1.625 0.28125,1.625 V 1.9375 C 0.625,1.921875 1.140625,1.90625 1.390625,1.90625 c 0.28125,0 0.78125,0.015625 1.125,0.03125 V 1.625 C 1.859375,1.625 1.75,1.625 1.75,1.171875 V -0.59375 c 0.046875,0.171875 0.46875,0.703125 1.21875,0.703125 1.1875,0 2.21875,-0.984375 2.21875,-2.265625 0,-1.265625 -0.953125,-2.25 -2.078125,-2.25 -0.78125,0 -1.203125,0.4375 -1.390625,0.65625 z M 1.75,-1.140625 v -2.21875 C 2.03125,-3.875 2.515625,-4.15625 3.03125,-4.15625 c 0.734375,0 1.328125,0.875 1.328125,2 0,1.203125 -0.6875,2.046875 -1.421875,2.046875 -0.40625,0 -0.78125,-0.203125 -1.046875,-0.609375 C 1.75,-0.921875 1.75,-0.9375 1.75,-1.140625 Z m 0,0"
             id="id-a6209ec0-1646-4e9a-81d6-15ffc28b3e4d" />
        </symbol>
        <symbol
           overflow="visible"
           id="id-80b74534-6276-454d-add5-b69dc9daf2ee">
          <path
             style="stroke:none;stroke-width:0"
             d="M 1.671875,-3.3125 V -4.40625 L 0.28125,-4.296875 v 0.3125 c 0.703125,0 0.78125,0.0625 0.78125,0.5625 V -0.75 c 0,0.4375 -0.109375,0.4375 -0.78125,0.4375 V 0 c 0.390625,-0.015625 0.859375,-0.03125 1.140625,-0.03125 0.390625,0 0.859375,0 1.265625,0.03125 V -0.3125 H 2.46875 c -0.734375,0 -0.75,-0.109375 -0.75,-0.46875 V -2.3125 c 0,-0.984375 0.421875,-1.875 1.171875,-1.875 0.0625,0 0.09375,0 0.109375,0.015625 -0.03125,0 -0.234375,0.125 -0.234375,0.390625 0,0.265625 0.21875,0.421875 0.4375,0.421875 0.171875,0 0.421875,-0.125 0.421875,-0.4375 0,-0.3125 -0.3125,-0.609375 -0.734375,-0.609375 -0.734375,0 -1.09375,0.671875 -1.21875,1.09375 z m 0,0"
             id="id-7a709096-e755-40fe-8733-d335dbf41aee" />
        </symbol>
        <symbol
           overflow="visible"
           id="id-ceb55c90-70e2-4b8d-833f-7663312329b3">
          <path
             style="stroke:none;stroke-width:0"
             d="m 3.296875,-3.984375 c 0.453125,0 0.515625,0.125 0.515625,0.53125 V -0.75 c 0,0.4375 -0.109375,0.4375 -0.765625,0.4375 V 0 c 0.328125,-0.015625 0.84375,-0.03125 1.09375,-0.03125 0.25,0 0.75,0.015625 1.109375,0.03125 v -0.3125 c -0.671875,0 -0.78125,0 -0.78125,-0.4375 v -3.671875 l -1.25,0.09375 C 3.0625,-4.3125 3.046875,-4.3125 3.046875,-4.3125 3.015625,-4.296875 3,-4.296875 2.859375,-4.296875 H 1.6875 v -1.125 c 0,-0.984375 0.859375,-1.390625 1.46875,-1.390625 0.296875,0 0.65625,0.109375 0.859375,0.328125 -0.40625,0.03125 -0.46875,0.296875 -0.46875,0.46875 C 3.546875,-5.6875 3.8125,-5.5625 4,-5.5625 c 0.234375,0 0.453125,-0.15625 0.453125,-0.453125 0,-0.59375 -0.546875,-1.015625 -1.28125,-1.015625 C 2.25,-7.03125 1.0625,-6.515625 1.0625,-5.4375 v 1.140625 H 0.265625 v 0.3125 H 1.0625 V -0.75 c 0,0.4375 -0.109375,0.4375 -0.78125,0.4375 V 0 C 0.609375,-0.015625 1.140625,-0.03125 1.390625,-0.03125 1.640625,-0.03125 2.125,-0.015625 2.5,0 v -0.3125 c -0.671875,0 -0.78125,0 -0.78125,-0.4375 v -3.234375 z m 0,0"
             id="id-b8dce8cf-795c-4f0d-a70b-84247568df83" />
        </symbol>
        <symbol
           overflow="visible"
           id="id-0d7ea06b-aac6-4443-aebc-fb6e5277d1f4">
          <path
             style="stroke:none;stroke-width:0"
             d="M 1.765625,-6.921875 0.328125,-6.8125 V -6.5 c 0.703125,0 0.78125,0.0625 0.78125,0.5625 V -0.75 c 0,0.4375 -0.109375,0.4375 -0.78125,0.4375 V 0 C 0.65625,-0.015625 1.1875,-0.03125 1.4375,-0.03125 c 0.25,0 0.734375,0.015625 1.109375,0.03125 v -0.3125 c -0.671875,0 -0.78125,0 -0.78125,-0.4375 z m 0,0"
             id="id-449e14a2-a1aa-42f5-a829-40dd2e90b9e0" />
        </symbol>
        <symbol
           overflow="visible"
           id="id-91a74a41-56c8-486a-9288-28664d5a9e62">
          <path
             style="stroke:none;stroke-width:0"
             d="M 1.109375,-2.515625 C 1.171875,-4 2.015625,-4.25 2.359375,-4.25 c 1.015625,0 1.125,1.34375 1.125,1.734375 z m 0,0.21875 h 2.78125 c 0.21875,0 0.25,0 0.25,-0.21875 0,-0.984375 -0.546875,-1.953125 -1.78125,-1.953125 -1.15625,0 -2.078125,1.03125 -2.078125,2.28125 0,1.328125 1.046875,2.296875 2.1875,2.296875 C 3.6875,0.109375 4.140625,-1 4.140625,-1.1875 4.140625,-1.28125 4.0625,-1.3125 4,-1.3125 c -0.078125,0 -0.109375,0.0625 -0.125,0.140625 -0.34375,1.03125 -1.25,1.03125 -1.34375,1.03125 -0.5,0 -0.890625,-0.296875 -1.125,-0.671875 -0.296875,-0.46875 -0.296875,-1.125 -0.296875,-1.484375 z m 0,0"
             id="id-9475cbf8-c91b-4124-99f7-ab1a941c3ea4" />
        </symbol>
      </g>
    </defs>
  </defs>
  <g
     inkscape:label="Layer 1"
     inkscape:groupmode="layer"
     id="layer1"
     transform="translate(-35.865279,-111.4745)">
    <g
       id="g5345">
      <rect
         style="font-variation-settings:normal;fill:#c5eaff;fill-opacity:1;fill-rule:evenodd;stroke:#0e232e;stroke-width:0.529167;stroke-linecap:butt;stroke-linejoin:miter;stroke-miterlimit:4;stroke-dasharray:none;stroke-dashoffset:0;stroke-opacity:1;stop-color:#000000"
         id="rect1032"
         width="52.916664"
         height="52.916664"
         x="42.333332"
         y="116.41666"
         ry="0.13229166" />
      <rect
         style="font-variation-settings:normal;fill:#89d3ff;fill-opacity:1;fill-rule:evenodd;stroke:#0e232e;stroke-width:0.529167;stroke-linecap:butt;stroke-linejoin:miter;stroke-miterlimit:4;stroke-dasharray:none;stroke-dashoffset:0;stroke-opacity:1;stop-color:#000000"
         id="rect1034"
         width="31.75"
         height="31.75"
         x="52.916664"
         y="127"
         ry="0.13229166" />
      <rect
         style="font-variation-settings:normal;fill:#5ac6fe;fill-opacity:1;fill-rule:evenodd;stroke:#0e232e;stroke-width:0.529167;stroke-linecap:butt;stroke-linejoin:miter;stroke-miterlimit:4;stroke-dasharray:none;stroke-dashoffset:0;stroke-opacity:1;stop-color:#000000"
         id="rect1520"
         width="10.583333"
         height="10.583333"
         x="63.5"
         y="137.58333"
         ry="0.13229166" />
      <path
         style="fill:none;stroke:#0e232e;stroke-width:0.264583;stroke-linecap:butt;stroke-linejoin:miter;stroke-miterlimit:4;stroke-dasharray:0.793749, 0.793749;stroke-dashoffset:0;stroke-opacity:1"
         d="M 63.499999,148.16666 52.916666,158.75"
         id="path1635" />
      <path
         style="fill:none;stroke:#0e232e;stroke-width:0.264583;stroke-linecap:butt;stroke-linejoin:miter;stroke-miterlimit:4;stroke-dasharray:0.793749, 0.793749;stroke-dashoffset:0;stroke-opacity:1"
         d="m 52.916666,127 10.583333,10.58333"
         id="path1637" />
      <path
         style="fill:none;stroke:#0e232e;stroke-width:0.264583;stroke-linecap:butt;stroke-linejoin:miter;stroke-miterlimit:4;stroke-dasharray:0.793749, 0.793749;stroke-dashoffset:0;stroke-opacity:1"
         d="M 84.666666,127 74.083332,137.58333"
         id="path1639" />
      <path
         style="fill:none;stroke:#0e232e;stroke-width:0.264583;stroke-linecap:butt;stroke-linejoin:miter;stroke-miterlimit:4;stroke-dasharray:0.793749, 0.793749;stroke-dashoffset:0;stroke-opacity:1"
         d="M 74.083332,148.16666 84.666666,158.75"
         id="path1641" />
      <path
         style="fill:#000000;fill-opacity:1;stroke:none;stroke-width:0"
         d="m 36.213496,143.8114 c -0.01882,0.0941 -0.05647,0.23528 -0.05647,0.26351 0,0.10352 0.0847,0.15999 0.178811,0.15999 0.07529,0 0.178811,-0.0471 0.225867,-0.1694 0,-0.009 0.07529,-0.29175 0.112933,-0.44232 l 0.131756,-0.53644 c 0.02823,-0.14116 0.06588,-0.27292 0.103522,-0.40467 0.01882,-0.10353 0.06588,-0.28234 0.07529,-0.30116 0.0847,-0.18822 0.404677,-0.73407 0.978755,-0.73407 0.272922,0 0.319977,0.22587 0.319977,0.4235 0,0.36704 -0.291744,1.13875 -0.385855,1.39285 -0.05647,0.14116 -0.06588,0.21645 -0.06588,0.28233 0,0.28233 0.216455,0.48938 0.498789,0.48938 0.564666,0 0.781121,-0.87524 0.781121,-0.92229 0,-0.0659 -0.04706,-0.0659 -0.06588,-0.0659 -0.06588,0 -0.06588,0.0188 -0.09411,0.11293 -0.122345,0.40468 -0.319978,0.74348 -0.611722,0.74348 -0.103522,0 -0.141167,-0.0565 -0.141167,-0.19763 0,-0.15058 0.04706,-0.29175 0.103522,-0.4235 0.112934,-0.31998 0.367033,-0.97876 0.367033,-1.32697 0,-0.39526 -0.254099,-0.63995 -0.68701,-0.63995 -0.545844,0 -0.837589,0.38585 -0.941111,0.52702 -0.02823,-0.3388 -0.272922,-0.52702 -0.555255,-0.52702 -0.272922,0 -0.385855,0.23528 -0.442322,0.3388 -0.103522,0.20704 -0.178811,0.56466 -0.178811,0.58349 0,0.0659 0.05647,0.0659 0.06588,0.0659 0.06588,0 0.06588,-0.009 0.103522,-0.14116 0.103522,-0.4235 0.225866,-0.71525 0.442322,-0.71525 0.112933,0 0.178811,0.0753 0.178811,0.27293 0,0.13175 -0.01882,0.19763 -0.09411,0.5082 z m 0,0"
         id="id-bdb8b9f4-3087-4041-b59e-daca748dd5cb" />
      <path
         style="fill:#000000;fill-opacity:1;stroke:none;stroke-width:0"
         d="m 62.504823,124.80056 c -0.01882,0.0941 -0.05647,0.23528 -0.05647,0.26351 0,0.10352 0.0847,0.15999 0.178811,0.15999 0.07529,0 0.178811,-0.0471 0.225867,-0.1694 0,-0.009 0.07529,-0.29175 0.112933,-0.44232 l 0.131756,-0.53644 c 0.02823,-0.14116 0.06588,-0.27292 0.103522,-0.40467 0.01882,-0.10353 0.06588,-0.28234 0.07529,-0.30116 0.0847,-0.18822 0.404677,-0.73407 0.978755,-0.73407 0.272922,0 0.319977,0.22587 0.319977,0.4235 0,0.36704 -0.291744,1.13875 -0.385855,1.39285 -0.05647,0.14116 -0.06588,0.21645 -0.06588,0.28233 0,0.28233 0.216455,0.48938 0.498789,0.48938 0.564666,0 0.781121,-0.87524 0.781121,-0.92229 0,-0.0659 -0.04706,-0.0659 -0.06588,-0.0659 -0.06588,0 -0.06588,0.0188 -0.09411,0.11293 -0.122345,0.40468 -0.319978,0.74348 -0.611722,0.74348 -0.103522,0 -0.141167,-0.0565 -0.141167,-0.19763 0,-0.15058 0.04706,-0.29175 0.103522,-0.4235 0.112934,-0.31998 0.367033,-0.97876 0.367033,-1.32697 0,-0.39526 -0.254099,-0.63995 -0.68701,-0.63995 -0.545844,0 -0.837589,0.38585 -0.941111,0.52702 -0.02823,-0.3388 -0.272922,-0.52702 -0.555255,-0.52702 -0.272922,0 -0.385855,0.23528 -0.442322,0.3388 -0.103522,0.20704 -0.178811,0.56466 -0.178811,0.58349 0,0.0659 0.05647,0.0659 0.06588,0.0659 0.06588,0 0.06588,-0.009 0.103522,-0.14116 0.103522,-0.4235 0.225866,-0.71525 0.442322,-0.71525 0.112933,0 0.178811,0.0753 0.178811,0.27293 0,0.13175 -0.01882,0.19763 -0.09411,0.5082 z m 0,0"
         id="id-91eafa7f-7a27-47c8-9e02-72fb6b6d3c5a" />
      <path
         style="fill:#000000;fill-opacity:1;stroke:none;stroke-width:0"
         d="m 70.865799,123.77475 c 0.103522,0 0.216456,0 0.216456,-0.12235 0,-0.11293 -0.112934,-0.11293 -0.216456,-0.11293 h -3.246831 c -0.103522,0 -0.207044,0 -0.207044,0.11293 0,0.12235 0.103522,0.12235 0.207044,0.12235 z m 0,0"
         id="id-a0393352-2c41-4c90-aa9c-00b49e77d74c" />
      <path
         style="fill:#000000;fill-opacity:1;stroke:none;stroke-width:0"
         d="m 74.683245,121.31845 c 0,-0.15058 0,-0.15999 -0.141167,-0.15999 -0.376444,0.38586 -0.903466,0.38586 -1.091688,0.38586 v 0.18822 c 0.122344,0 0.470555,0 0.781122,-0.15999 v 3.11507 c 0,0.21646 -0.01882,0.28234 -0.555255,0.28234 h -0.188223 v 0.18822 c 0.207045,-0.0188 0.724656,-0.0188 0.969344,-0.0188 0.235278,0 0.7623,0 0.969344,0.0188 v -0.18822 H 75.2385 c -0.545844,0 -0.555255,-0.0659 -0.555255,-0.28234 z m 0,0"
         id="id-0e1ae0c3-95d6-454f-a781-548da1f1b1d9" />
      <path
         style="fill:#000000;fill-opacity:1;stroke:none;stroke-width:0"
         d="m 67.516465,113.77083 c -0.01882,0.0941 -0.05647,0.23528 -0.05647,0.26351 0,0.10352 0.0847,0.15999 0.178811,0.15999 0.07529,0 0.178811,-0.0471 0.225867,-0.1694 0,-0.009 0.07529,-0.29175 0.112933,-0.44232 l 0.131756,-0.53644 c 0.02823,-0.14116 0.06588,-0.27292 0.103522,-0.40467 0.01882,-0.10353 0.06588,-0.28234 0.07529,-0.30116 0.0847,-0.18822 0.404677,-0.73407 0.978755,-0.73407 0.272922,0 0.319977,0.22587 0.319977,0.4235 0,0.36704 -0.291744,1.13875 -0.385855,1.39285 -0.05647,0.14116 -0.06588,0.21645 -0.06588,0.28233 0,0.28233 0.216455,0.48938 0.498789,0.48938 0.564666,0 0.781121,-0.87524 0.781121,-0.92229 0,-0.0659 -0.04706,-0.0659 -0.06588,-0.0659 -0.06588,0 -0.06588,0.0188 -0.09411,0.11293 -0.122345,0.40468 -0.319978,0.74348 -0.611722,0.74348 -0.103522,0 -0.141167,-0.0565 -0.141167,-0.19763 0,-0.15058 0.04706,-0.29175 0.103522,-0.4235 0.112934,-0.31998 0.367033,-0.97876 0.367033,-1.32697 0,-0.39526 -0.254099,-0.63995 -0.68701,-0.63995 -0.545844,0 -0.837589,0.38585 -0.941111,0.52702 -0.02823,-0.3388 -0.272922,-0.52702 -0.555255,-0.52702 -0.272922,0 -0.385855,0.23528 -0.442322,0.3388 -0.103522,0.20704 -0.178811,0.56466 -0.178811,0.58349 0,0.0659 0.05647,0.0659 0.06588,0.0659 0.06588,0 0.06588,-0.009 0.103522,-0.14116 0.103522,-0.4235 0.225866,-0.71525 0.442322,-0.71525 0.112933,0 0.178811,0.0753 0.178811,0.27293 0,0.13175 -0.01882,0.19763 -0.09411,0.5082 z m 0,0"
         id="path2609" />
      <path
         style="fill:#000000;fill-opacity:1;stroke:none;stroke-width:0"
         d="m 50.270826,149.16185 c 0.0941,0.0188 0.23528,0.0565 0.26351,0.0565 0.10352,0 0.15999,-0.0847 0.15999,-0.17882 0,-0.0753 -0.0471,-0.17881 -0.1694,-0.22586 -0.009,0 -0.29175,-0.0753 -0.44232,-0.11294 l -0.53644,-0.13175 c -0.14116,-0.0282 -0.27292,-0.0659 -0.40467,-0.10352 -0.10353,-0.0188 -0.28234,-0.0659 -0.30116,-0.0753 -0.18822,-0.0847 -0.73407,-0.40468 -0.73407,-0.97876 0,-0.27292 0.22587,-0.31998 0.4235,-0.31998 0.36704,0 1.13875,0.29175 1.39285,0.38586 0.14116,0.0565 0.21645,0.0659 0.28233,0.0659 0.28233,0 0.48938,-0.21646 0.48938,-0.49879 0,-0.56467 -0.87524,-0.78112 -0.92229,-0.78112 -0.0659,0 -0.0659,0.0471 -0.0659,0.0659 0,0.0659 0.0188,0.0659 0.11293,0.0941 0.40468,0.12234 0.74348,0.31998 0.74348,0.61172 0,0.10352 -0.0565,0.14117 -0.19763,0.14117 -0.15058,0 -0.29175,-0.0471 -0.4235,-0.10352 -0.31998,-0.11294 -0.97876,-0.36704 -1.32697,-0.36704 -0.39526,0 -0.63995,0.2541 -0.63995,0.68701 0,0.54585 0.38585,0.83759 0.52702,0.94111 -0.3388,0.0282 -0.52702,0.27293 -0.52702,0.55526 0,0.27292 0.23528,0.38585 0.3388,0.44232 0.20704,0.10352 0.56466,0.17881 0.58349,0.17881 0.0659,0 0.0659,-0.0565 0.0659,-0.0659 0,-0.0659 -0.009,-0.0659 -0.14116,-0.10352 -0.4235,-0.10352 -0.71525,-0.22587 -0.71525,-0.44232 0,-0.11293 0.0753,-0.17881 0.27293,-0.17881 0.13175,0 0.19763,0.0188 0.5082,0.0941 z m 0,0"
         id="path2616" />
      <path
         style="fill:#000000;fill-opacity:1;stroke:none;stroke-width:0"
         d="m 49.245016,140.80087 c 0,-0.10352 0,-0.21646 -0.12235,-0.21646 -0.11293,0 -0.11293,0.11294 -0.11293,0.21646 v 3.24683 c 0,0.10352 0,0.20704 0.11293,0.20704 0.12235,0 0.12235,-0.10352 0.12235,-0.20704 z m 0,0"
         id="path2618" />
      <path
         style="fill:#000000;fill-opacity:1;stroke:none;stroke-width:0"
         d="m 46.788716,136.98342 c -0.15058,0 -0.15999,0 -0.15999,0.14117 0.38586,0.37644 0.38586,0.90347 0.38586,1.09169 h 0.18822 c 0,-0.12235 0,-0.47056 -0.15999,-0.78112 h 3.11507 c 0.21646,0 0.28234,0.0188 0.28234,0.55525 v 0.18822 h 0.18822 c -0.0188,-0.20704 -0.0188,-0.72465 -0.0188,-0.96934 0,-0.23528 0,-0.7623 0.0188,-0.96934 h -0.18822 v 0.18822 c 0,0.54584 -0.0659,0.55525 -0.28234,0.55525 z m 0,0"
         id="path2620" />
      <rect
         style="font-variation-settings:normal;fill:#b0e1ff;fill-opacity:1;fill-rule:evenodd;stroke:#0e232e;stroke-width:0.529167;stroke-linecap:butt;stroke-linejoin:miter;stroke-miterlimit:4;stroke-dasharray:none;stroke-dashoffset:0;stroke-opacity:1;stop-color:#000000"
         id="rect1271"
         width="42.333324"
         height="5.2916617"
         x="121.70834"
         y="148.16667"
         ry="0.13229166" />
      <path
         style="fill:#000000;fill-opacity:1;stroke:none;stroke-width:0"
         d="m 141.59984,163.16514 c -0.0188,0.0941 -0.0565,0.23528 -0.0565,0.26351 0,0.10352 0.0847,0.15999 0.17881,0.15999 0.0753,0 0.17881,-0.0471 0.22587,-0.1694 0,-0.009 0.0753,-0.29175 0.11293,-0.44232 l 0.13176,-0.53644 c 0.0282,-0.14116 0.0659,-0.27292 0.10352,-0.40467 0.0188,-0.10353 0.0659,-0.28234 0.0753,-0.30116 0.0847,-0.18822 0.40467,-0.73407 0.97875,-0.73407 0.27292,0 0.31998,0.22587 0.31998,0.4235 0,0.36704 -0.29174,1.13875 -0.38586,1.39285 -0.0565,0.14116 -0.0659,0.21645 -0.0659,0.28233 0,0.28233 0.21646,0.48938 0.49879,0.48938 0.56467,0 0.78112,-0.87524 0.78112,-0.92229 0,-0.0659 -0.0471,-0.0659 -0.0659,-0.0659 -0.0659,0 -0.0659,0.0188 -0.0941,0.11293 -0.12234,0.40468 -0.31997,0.74348 -0.61172,0.74348 -0.10352,0 -0.14116,-0.0565 -0.14116,-0.19763 0,-0.15058 0.0471,-0.29175 0.10352,-0.4235 0.11293,-0.31998 0.36703,-0.97876 0.36703,-1.32697 0,-0.39526 -0.2541,-0.63995 -0.68701,-0.63995 -0.54584,0 -0.83759,0.38585 -0.94111,0.52702 -0.0282,-0.3388 -0.27292,-0.52702 -0.55526,-0.52702 -0.27292,0 -0.38585,0.23528 -0.44232,0.3388 -0.10352,0.20704 -0.17881,0.56466 -0.17881,0.58349 0,0.0659 0.0565,0.0659 0.0659,0.0659 0.0659,0 0.0659,-0.009 0.10352,-0.14116 0.10353,-0.4235 0.22587,-0.71525 0.44233,-0.71525 0.11293,0 0.17881,0.0753 0.17881,0.27293 0,0.13175 -0.0188,0.19763 -0.0941,0.5082 z m 0,0"
         id="path2624" />
      <path
         style="fill:#000000;fill-opacity:1;stroke:none;stroke-width:0"
         d="m 62.386558,173.10894 h 0.8799 v -0.19128 h -0.8799 v -1.11901 h -0.153026 c 0,0.49734 -0.181718,1.1477 -0.784258,1.17639 v 0.1339 h 0.516463 v 1.68328 c 0,0.74601 0.573847,0.82252 0.793822,0.82252 0.430386,0 0.60254,-0.43039 0.60254,-0.82252 v -0.3443 h -0.153026 v 0.33474 c 0,0.44951 -0.181718,0.67905 -0.411257,0.67905 -0.411258,0 -0.411258,-0.55472 -0.411258,-0.65992 z m 0,0"
         id="id-f11dc076-b0d6-413e-a124-e7964134ab06" />
      <path
         style="fill:#000000;fill-opacity:1;stroke:none;stroke-width:0"
         d="m 66.575032,174.23751 c 0,-0.7747 -0.60254,-1.42506 -1.338978,-1.42506 -0.765129,0 -1.358105,0.66949 -1.358105,1.42506 0,0.79382 0.631232,1.37723 1.348541,1.37723 0.736438,0 1.348542,-0.60254 1.348542,-1.37723 z m -1.338978,1.2242 c -0.267795,0 -0.53559,-0.12433 -0.69818,-0.41125 -0.153026,-0.2678 -0.153026,-0.6408 -0.153026,-0.86078 0,-0.2391 0,-0.56428 0.143461,-0.83207 0.162591,-0.27736 0.449514,-0.41126 0.698181,-0.41126 0.267796,0 0.526027,0.1339 0.688617,0.40169 0.16259,0.25823 0.16259,0.61211 0.16259,0.84164 0,0.21998 0,0.55472 -0.133898,0.82252 -0.143461,0.27736 -0.411257,0.44951 -0.707745,0.44951 z m 0,0"
         id="id-5d844ba6-07ca-4f47-a710-5d290bf04078" />
      <path
         style="fill:#000000;fill-opacity:1;stroke:none;stroke-width:0"
         d="m 67.807349,173.2524 v -0.40169 l -0.879899,0.067 v 0.19128 c 0.430386,0 0.478206,0.0383 0.478206,0.30605 v 2.85011 c 0,0.27736 -0.06695,0.27736 -0.478206,0.27736 v 0.19128 c 0.210411,-0.01 0.526027,-0.0191 0.679053,-0.0191 0.172154,0 0.478206,0.01 0.688617,0.0191 v -0.19128 c -0.401694,0 -0.468642,0 -0.468642,-0.27736 v -1.08075 c 0.02869,0.10521 0.286923,0.43039 0.746001,0.43039 0.726873,0 1.358105,-0.60254 1.358105,-1.3868 0,-0.77469 -0.583411,-1.37723 -1.272028,-1.37723 -0.478206,0 -0.736437,0.26779 -0.851207,0.40169 z m 0.01913,1.59721 v -1.35811 c 0.172154,-0.31561 0.468642,-0.48777 0.784258,-0.48777 0.449513,0 0.81295,0.53559 0.81295,1.22421 0,0.73644 -0.420821,1.2529 -0.870335,1.2529 -0.248667,0 -0.478206,-0.12433 -0.640796,-0.373 -0.08608,-0.12433 -0.08608,-0.1339 -0.08608,-0.25823 z m 0,0"
         id="id-b5a6655d-7db1-4555-844f-620c4b86977c" />
      <path
         style="fill:#000000;fill-opacity:1;stroke:none;stroke-width:0"
         d="m 135.61991,173.52976 v -0.40169 l -0.8799,0.0669 v 0.19128 c 0.43039,0 0.47821,0.0383 0.47821,0.30605 v 2.85011 c 0,0.27736 -0.0669,0.27736 -0.47821,0.27736 v 0.19128 c 0.21041,-0.01 0.52603,-0.0191 0.67906,-0.0191 0.17215,0 0.4782,0.01 0.68861,0.0191 v -0.19128 c -0.40169,0 -0.46864,0 -0.46864,-0.27736 v -1.08075 c 0.0287,0.10521 0.28693,0.43039 0.746,0.43039 0.72688,0 1.35811,-0.60254 1.35811,-1.3868 0,-0.77469 -0.58341,-1.37723 -1.27203,-1.37723 -0.47821,0 -0.73644,0.26779 -0.85121,0.40169 z m 0.0191,1.59721 v -1.35811 c 0.17216,-0.31561 0.46864,-0.48777 0.78426,-0.48777 0.44951,0 0.81295,0.53559 0.81295,1.22421 0,0.73644 -0.42082,1.2529 -0.87034,1.2529 -0.24866,0 -0.4782,-0.12433 -0.64079,-0.373 -0.0861,-0.12433 -0.0861,-0.1339 -0.0861,-0.25823 z m 0,0"
         id="id-9ef24c47-b691-4817-a0fc-b72c0752dcd5" />
      <path
         style="fill:#000000;fill-opacity:1;stroke:none;stroke-width:0"
         d="m 138.97922,173.79756 v -0.66949 l -0.85121,0.0669 v 0.19128 c 0.43039,0 0.47821,0.0383 0.47821,0.34431 v 1.63546 c 0,0.2678 -0.067,0.2678 -0.47821,0.2678 v 0.19128 c 0.23911,-0.01 0.52603,-0.0191 0.69819,-0.0191 0.2391,0 0.52602,0 0.77469,0.0191 v -0.19128 h -0.1339 c -0.44951,0 -0.45908,-0.0669 -0.45908,-0.28693 v -0.93728 c 0,-0.60254 0.25823,-1.14769 0.71731,-1.14769 0.0383,0 0.0574,0 0.0669,0.01 -0.0191,0 -0.14346,0.0765 -0.14346,0.2391 0,0.16259 0.1339,0.25823 0.26779,0.25823 0.10521,0 0.25824,-0.0765 0.25824,-0.26779 0,-0.19128 -0.19129,-0.373 -0.44952,-0.373 -0.44951,0 -0.66949,0.41125 -0.746,0.66949 z m 0,0"
         id="id-50fb2a78-0223-4c5a-bf3e-68c92e95ace1" />
      <path
         style="fill:#000000;fill-opacity:1;stroke:none;stroke-width:0"
         d="m 143.21353,174.51487 c 0,-0.7747 -0.60254,-1.42506 -1.33898,-1.42506 -0.76513,0 -1.35811,0.66949 -1.35811,1.42506 0,0.79382 0.63124,1.37723 1.34855,1.37723 0.73643,0 1.34854,-0.60254 1.34854,-1.37723 z m -1.33898,1.2242 c -0.2678,0 -0.53559,-0.12433 -0.69818,-0.41125 -0.15303,-0.2678 -0.15303,-0.6408 -0.15303,-0.86078 0,-0.2391 0,-0.56428 0.14346,-0.83207 0.16259,-0.27736 0.44952,-0.41126 0.69819,-0.41126 0.26779,0 0.52602,0.1339 0.68861,0.40169 0.16259,0.25823 0.16259,0.61211 0.16259,0.84164 0,0.21998 0,0.55472 -0.1339,0.82252 -0.14346,0.27736 -0.41125,0.44951 -0.70774,0.44951 z m 0,0"
         id="id-5a19f479-642f-43cd-bbec-41c09c2eab05" />
      <path
         style="fill:#000000;fill-opacity:1;stroke:none;stroke-width:0"
         d="m 145.4112,173.3863 c 0.27736,0 0.31562,0.0765 0.31562,0.32518 v 1.65459 c 0,0.2678 -0.0669,0.2678 -0.46865,0.2678 v 0.19128 c 0.20085,-0.01 0.51647,-0.0191 0.66949,-0.0191 0.15303,0 0.45908,0.01 0.67905,0.0191 v -0.19128 c -0.41125,0 -0.4782,0 -0.4782,-0.2678 v -2.24757 l -0.76513,0.0574 c -0.0956,0.01 -0.10521,0.01 -0.10521,0.01 -0.0191,0.01 -0.0287,0.01 -0.11477,0.01 h -0.7173 v -0.68862 c 0,-0.60254 0.52602,-0.85121 0.89902,-0.85121 0.18172,0 0.4017,0.0669 0.52603,0.20085 -0.24867,0.0191 -0.28692,0.18172 -0.28692,0.28692 0,0.20085 0.16259,0.27736 0.27736,0.27736 0.14346,0 0.27735,-0.0956 0.27735,-0.27736 0,-0.36343 -0.33474,-0.62166 -0.78425,-0.62166 -0.56429,0 -1.29116,0.31561 -1.29116,0.97554 v 0.69818 h -0.48777 v 0.19128 h 0.48777 v 1.97977 c 0,0.2678 -0.0669,0.2678 -0.47821,0.2678 v 0.19128 c 0.20085,-0.01 0.52603,-0.0191 0.67906,-0.0191 0.15302,0 0.44951,0.01 0.67905,0.0191 v -0.19128 c -0.41126,0 -0.47821,0 -0.47821,-0.2678 v -1.97977 z m 0,0"
         id="id-a6a95252-7a8a-4300-bf9b-037f93cd0112" />
      <path
         style="fill:#000000;fill-opacity:1;stroke:none;stroke-width:0"
         d="m 147.86253,171.58824 -0.8799,0.0669 v 0.19129 c 0.43038,0 0.4782,0.0382 0.4782,0.3443 v 3.17529 c 0,0.2678 -0.0669,0.2678 -0.4782,0.2678 v 0.19128 c 0.20084,-0.01 0.52602,-0.0191 0.67905,-0.0191 0.15303,0 0.44951,0.01 0.67905,0.0191 v -0.19128 c -0.41126,0 -0.4782,0 -0.4782,-0.2678 z m 0,0"
         id="id-3a5d3332-e058-453d-b4e4-f03c5bdac723" />
      <path
         style="fill:#000000;fill-opacity:1;stroke:none;stroke-width:0"
         d="m 149.15452,174.28533 c 0.0383,-0.9086 0.55472,-1.06162 0.76513,-1.06162 0.62167,0 0.68862,0.82251 0.68862,1.06162 z m 0,0.13389 h 1.70242 c 0.13389,0 0.15302,0 0.15302,-0.13389 0,-0.60254 -0.33474,-1.19552 -1.09031,-1.19552 -0.70774,0 -1.27203,0.63123 -1.27203,1.39636 0,0.81295 0.6408,1.40593 1.33898,1.40593 0.746,0 1.02336,-0.67905 1.02336,-0.79382 0,-0.0574 -0.0478,-0.0765 -0.0861,-0.0765 -0.0478,0 -0.0669,0.0383 -0.0765,0.0861 -0.21041,0.63123 -0.76513,0.63123 -0.82251,0.63123 -0.30605,0 -0.54516,-0.18172 -0.68862,-0.41125 -0.18172,-0.28693 -0.18172,-0.68862 -0.18172,-0.9086 z m 0,0"
         id="id-40a75bd0-e073-405c-b11b-ed081c6e3774" />
      <rect
         style="font-variation-settings:normal;fill:#b0e1ff;fill-opacity:1;fill-rule:evenodd;stroke:#0e232e;stroke-width:0.529167;stroke-linecap:butt;stroke-linejoin:miter;stroke-miterlimit:4;stroke-dasharray:none;stroke-dashoffset:0;stroke-opacity:1;stop-color:#000000"
         id="rect1189"
         width="52.916664"
         height="5.2916665"
         x="116.41666"
         y="153.45833"
         ry="0.13229166" />
      <rect
         style="font-variation-settings:normal;fill:#b0e1ff;fill-opacity:1;fill-rule:evenodd;stroke:#0e232e;stroke-width:0.529167;stroke-linecap:butt;stroke-linejoin:miter;stroke-miterlimit:4;stroke-dasharray:none;stroke-dashoffset:0;stroke-opacity:1;stop-color:#000000"
         id="rect1273"
         width="31.75"
         height="5.2916718"
         x="127"
         y="142.875"
         ry="0.13229166" />
      <rect
         style="font-variation-settings:normal;fill:#b0e1ff;fill-opacity:1;fill-rule:evenodd;stroke:#0e232e;stroke-width:0.529167;stroke-linecap:butt;stroke-linejoin:miter;stroke-miterlimit:4;stroke-dasharray:none;stroke-dashoffset:0;stroke-opacity:1;stop-color:#000000"
         id="rect1477"
         width="5.2916617"
         height="5.2916665"
         x="140.22917"
         y="127"
         ry="0.13229166" />
      <g
         id="g1244"
         transform="translate(1.8520887)">
        <path
           style="fill:#000000;fill-opacity:1;stroke:none;stroke-width:0"
           d="m 108.47917,154.78125 c 0,-0.15058 0,-0.15999 -0.14117,-0.15999 -0.37644,0.38586 -0.90347,0.38586 -1.09169,0.38586 v 0.18822 c 0.12235,0 0.47056,0 0.78112,-0.15999 v 3.11507 c 0,0.21646 -0.0188,0.28234 -0.55525,0.28234 h -0.18822 v 0.18822 c 0.20704,-0.0188 0.72465,-0.0188 0.96934,-0.0188 0.23528,0 0.7623,0 0.96934,0.0188 v -0.18822 h -0.18822 c -0.54584,0 -0.55525,-0.0659 -0.55525,-0.28234 z m 0,0"
           id="id-278d2003-1d6c-4ae7-b7e5-b4b0f43f9253" />
        <path
           style="fill:none;stroke:#000000;stroke-width:0.264583px;stroke-linecap:butt;stroke-linejoin:miter;stroke-opacity:1"
           d="M 113.77083,153.45833 H 111.125"
           id="path2702" />
        <path
           style="fill:none;stroke:#2d2d2d;stroke-width:0.264583px;stroke-linecap:butt;stroke-linejoin:miter;stroke-opacity:1"
           d="M 112.44792,153.45833 V 158.75"
           id="path2704" />
        <path
           style="fill:none;stroke:#000000;stroke-width:0.264583px;stroke-linecap:butt;stroke-linejoin:miter;stroke-opacity:1"
           d="M 113.77083,158.75 H 111.125"
           id="path2706" />
        <path
           style="fill:#2d2d2d;stroke:#2d2d2d;stroke-width:0.264583px;stroke-linecap:butt;stroke-linejoin:miter;stroke-opacity:1"
           d="m 112.44792,153.72291 -0.52917,0.79375 h 1.05833 l -0.52916,-0.79375"
           id="path2867" />
        <path
           style="fill:#2d2d2d;stroke:#2d2d2d;stroke-width:0.264583px;stroke-linecap:butt;stroke-linejoin:miter;stroke-opacity:1"
           d="m 112.44792,158.48542 -0.52917,-0.79375 h 1.05833 l -0.52916,0.79375"
           id="path3013" />
      </g>
      <path
         style="fill:none;stroke:#ff8484;stroke-width:0.529167;stroke-linecap:butt;stroke-linejoin:miter;stroke-miterlimit:4;stroke-dasharray:1.05833, 1.05833;stroke-dashoffset:0;stroke-opacity:1"
         d="M 116.41667,158.75 142.875,129.64583 169.33333,158.75"
         id="path2104" />
      <path
         style="fill:none;stroke:#6ebf4b;stroke-width:0.529167;stroke-linecap:butt;stroke-linejoin:miter;stroke-miterlimit:4;stroke-dasharray:1.05833, 1.05833;stroke-dashoffset:0;stroke-opacity:1"
         d="m 111.125,158.75 31.75,-34.39583 33.07292,35.71875"
         id="path1561"
         sodipodi:nodetypes="ccc" />
    </g>
  </g>
</svg>
