<?xml version="1.0" encoding="UTF-8" standalone="no"?>
<!-- Created with Inkscape (http://www.inkscape.org/) -->

<svg
   width="76.484055mm"
   height="71.788872mm"
   viewBox="0 0 76.484055 71.788871"
   version="1.1"
   id="svg5"
   sodipodi:docname="rationalSketch4.svg"
   inkscape:version="1.1 (c4e8f9e, 2021-05-24)"
   xmlns:inkscape="http://www.inkscape.org/namespaces/inkscape"
   xmlns:sodipodi="http://sodipodi.sourceforge.net/DTD/sodipodi-0.dtd"
   xmlns="http://www.w3.org/2000/svg"
   xmlns:svg="http://www.w3.org/2000/svg">
  <sodipodi:namedview
     id="namedview871"
     pagecolor="#ffffff"
     bordercolor="#666666"
     borderopacity="1.0"
     inkscape:pageshadow="2"
     inkscape:pageopacity="0.0"
     inkscape:pagecheckerboard="0"
     inkscape:document-units="mm"
     showgrid="false"
     inkscape:zoom="1.1576842"
     inkscape:cx="169.73542"
     inkscape:cy="123.09057"
     inkscape:window-width="1440"
     inkscape:window-height="847"
     inkscape:window-x="2158"
     inkscape:window-y="25"
     inkscape:window-maximized="0"
     inkscape:current-layer="svg5"
     inkscape:snap-global="true"
     inkscape:snap-center="true">
    <inkscape:grid
       type="xygrid"
       id="grid971"
       originx="8.1126076"
       originy="2.3140621e-06" />
  </sodipodi:namedview>
  <defs
     id="defs2">
    <marker
       style="overflow:visible"
       id="Arrow2Mend"
       refX="0"
       refY="0"
       orient="auto"
       inkscape:stockid="Arrow2Mend"
       inkscape:isstock="true">
      <path
         transform="scale(-0.6)"
         d="M 8.7185878,4.0337352 -2.2072895,0.01601326 8.7185884,-4.0017078 c -1.7454984,2.3720609 -1.7354408,5.6174519 -6e-7,8.035443 z"
         style="fill:context-stroke;fill-rule:evenodd;stroke-width:0.625;stroke-linejoin:round"
         id="path1351" />
    </marker>
    <marker
       style="overflow:visible"
       id="Arrow1Send"
       refX="0"
       refY="0"
       orient="auto"
       inkscape:stockid="Arrow1Send"
       inkscape:isstock="true">
      <path
         transform="matrix(-0.2,0,0,-0.2,-1.2,0)"
         style="fill:context-stroke;fill-rule:evenodd;stroke:context-stroke;stroke-width:1pt"
         d="M 0,0 5,-5 -12.5,0 5,5 Z"
         id="path1339" />
    </marker>
    <marker
       style="overflow:visible"
       id="Arrow2Mstart"
       refX="0"
       refY="0"
       orient="auto"
       inkscape:stockid="Arrow2Mstart"
       inkscape:isstock="true">
      <path
         transform="scale(0.6)"
         d="M 8.7185878,4.0337352 -2.2072895,0.01601326 8.7185884,-4.0017078 c -1.7454984,2.3720609 -1.7354408,5.6174519 -6e-7,8.035443 z"
         style="fill:context-stroke;fill-rule:evenodd;stroke-width:0.625;stroke-linejoin:round"
         id="path1211" />
    </marker>
    <marker
       style="overflow:visible"
       id="DotM"
       refX="0"
       refY="0"
       orient="auto"
       inkscape:stockid="DotM"
       inkscape:isstock="true">
      <path
         transform="matrix(0.4,0,0,0.4,2.96,0.4)"
         style="fill:context-stroke;fill-rule:evenodd;stroke:context-stroke;stroke-width:1pt"
         d="m -2.5,-1 c 0,2.76 -2.24,5 -5,5 -2.76,0 -5,-2.24 -5,-5 0,-2.76 2.24,-5 5,-5 2.76,0 5,2.24 5,5 z"
         id="path1280" />
    </marker>
    <marker
       style="overflow:visible"
       id="DotL"
       refX="0"
       refY="0"
       orient="auto"
       inkscape:stockid="DotL"
       inkscape:isstock="true">
      <path
         transform="matrix(0.8,0,0,0.8,5.92,0.8)"
         style="fill:context-stroke;fill-rule:evenodd;stroke:context-stroke;stroke-width:1pt"
         d="m -2.5,-1 c 0,2.76 -2.24,5 -5,5 -2.76,0 -5,-2.24 -5,-5 0,-2.76 2.24,-5 5,-5 2.76,0 5,2.24 5,5 z"
         id="path1277" />
    </marker>
    <marker
       style="overflow:visible"
       id="Arrow2Lstart"
       refX="0"
       refY="0"
       orient="auto">
      <path
         transform="matrix(1.1,0,0,1.1,1.1,0)"
         d="M 8.7185878,4.0337352 -2.2072895,0.01601326 8.7185884,-4.0017078 c -1.7454984,2.3720609 -1.7354408,5.6174519 -6e-7,8.035443 z"
         style="fill:context-stroke;fill-rule:evenodd;stroke-width:0.625;stroke-linejoin:round"
         id="path2010" />
    </marker>
    <marker
       style="overflow:visible"
       id="Arrow2Lend"
       refX="0"
       refY="0"
       orient="auto">
      <path
         transform="matrix(-1.1,0,0,-1.1,-1.1,0)"
         d="M 8.7185878,4.0337352 -2.2072895,0.01601326 8.7185884,-4.0017078 c -1.7454984,2.3720609 -1.7354408,5.6174519 -6e-7,8.035443 z"
         style="fill:context-stroke;fill-rule:evenodd;stroke-width:0.625;stroke-linejoin:round"
         id="path2013" />
    </marker>
    <marker
       style="overflow:visible"
       id="StopL"
       refX="0"
       refY="0"
       orient="auto">
      <path
         transform="scale(0.8)"
         style="fill:none;fill-opacity:0.75;fill-rule:evenodd;stroke:context-stroke;stroke-width:1pt"
         d="M 0,5.65 V -5.65"
         id="path2161" />
    </marker>
    <defs
       id="id-4c86c8b5-d7e0-478a-b702-1f02b686bdb2">
      <g
         id="id-4c078419-7955-4582-b4ef-f775f1a4fbce">
        <symbol
           overflow="visible"
           id="id-5ea727ea-bc63-41e3-9e81-67e8b29fd0fd">
          <path
             style="stroke:none;stroke-width:0"
             d=""
             id="id-400cfb6c-6f5c-4d46-9c62-35a19c8da4c3" />
        </symbol>
        <symbol
           overflow="visible"
           id="id-e6b92246-95e7-42d9-a104-c8c4136711b4">
          <path
             style="stroke:none;stroke-width:0"
             d="m 2.9375,-6.375 c 0,-0.25 0,-0.265625 -0.234375,-0.265625 C 2.078125,-6 1.203125,-6 0.890625,-6 v 0.3125 c 0.203125,0 0.78125,0 1.296875,-0.265625 v 5.171875 c 0,0.359375 -0.03125,0.46875 -0.921875,0.46875 h -0.3125 V 0 c 0.34375,-0.03125 1.203125,-0.03125 1.609375,-0.03125 0.390625,0 1.265625,0 1.609375,0.03125 v -0.3125 h -0.3125 c -0.90625,0 -0.921875,-0.109375 -0.921875,-0.46875 z m 0,0"
             id="id-2beabfe7-8999-4d31-849e-2d634d695b02" />
        </symbol>
        <symbol
           overflow="visible"
           id="id-c66e7eeb-5b60-497a-ac9b-9d3c63055a52">
          <path
             style="stroke:none;stroke-width:0"
             d="m 1.265625,-0.765625 1.0625,-1.03125 c 1.546875,-1.375 2.140625,-1.90625 2.140625,-2.90625 0,-1.140625 -0.890625,-1.9375 -2.109375,-1.9375 -1.125,0 -1.859375,0.921875 -1.859375,1.8125 0,0.546875 0.5,0.546875 0.53125,0.546875 0.171875,0 0.515625,-0.109375 0.515625,-0.53125 0,-0.25 -0.1875,-0.515625 -0.53125,-0.515625 -0.078125,0 -0.09375,0 -0.125,0.015625 0.21875,-0.65625 0.765625,-1.015625 1.34375,-1.015625 0.90625,0 1.328125,0.8125 1.328125,1.625 C 3.5625,-3.90625 3.078125,-3.125 2.515625,-2.5 l -1.90625,2.125 C 0.5,-0.265625 0.5,-0.234375 0.5,0 H 4.203125 L 4.46875,-1.734375 H 4.234375 C 4.171875,-1.4375 4.109375,-1 4,-0.84375 3.9375,-0.765625 3.28125,-0.765625 3.0625,-0.765625 Z m 0,0"
             id="id-906ec060-d28b-4d54-84c9-20cadf95ecde" />
        </symbol>
        <symbol
           overflow="visible"
           id="id-c8891e63-1fa6-40bc-b411-44e1f5407875">
          <path
             style="stroke:none;stroke-width:0"
             d="m 2.890625,-3.515625 c 0.8125,-0.265625 1.390625,-0.953125 1.390625,-1.75 0,-0.8125 -0.875,-1.375 -1.828125,-1.375 -1,0 -1.765625,0.59375 -1.765625,1.359375 0,0.328125 0.21875,0.515625 0.515625,0.515625 0.296875,0 0.5,-0.21875 0.5,-0.515625 0,-0.484375 -0.46875,-0.484375 -0.609375,-0.484375 0.296875,-0.5 0.953125,-0.625 1.3125,-0.625 0.421875,0 0.96875,0.21875 0.96875,1.109375 0,0.125 -0.03125,0.703125 -0.28125,1.140625 C 2.796875,-3.65625 2.453125,-3.625 2.203125,-3.625 2.125,-3.609375 1.890625,-3.59375 1.8125,-3.59375 c -0.078125,0.015625 -0.140625,0.03125 -0.140625,0.125 0,0.109375 0.0625,0.109375 0.234375,0.109375 h 0.4375 c 0.8125,0 1.1875,0.671875 1.1875,1.65625 0,1.359375 -0.6875,1.640625 -1.125,1.640625 -0.4375,0 -1.1875,-0.171875 -1.53125,-0.75 0.34375,0.046875 0.65625,-0.171875 0.65625,-0.546875 0,-0.359375 -0.265625,-0.5625 -0.546875,-0.5625 -0.25,0 -0.5625,0.140625 -0.5625,0.578125 0,0.90625 0.921875,1.5625 2.015625,1.5625 1.21875,0 2.125,-0.90625 2.125,-1.921875 0,-0.8125 -0.640625,-1.59375 -1.671875,-1.8125 z m 0,0"
             id="id-748a641d-f743-4770-b396-fb5a9943779a" />
        </symbol>
        <symbol
           overflow="visible"
           id="id-401cb648-6f96-4f35-b00b-1ef34a11bdbf">
          <path
             style="stroke:none;stroke-width:0"
             d=""
             id="id-52244517-b796-4cdb-8625-8a607f6d7346" />
        </symbol>
        <symbol
           overflow="visible"
           id="id-1f30a40a-502f-4777-b993-f4943921f33a">
          <path
             style="stroke:none;stroke-width:0"
             d="m 6.5625,-2.296875 c 0.171875,0 0.359375,0 0.359375,-0.203125 0,-0.1875 -0.1875,-0.1875 -0.359375,-0.1875 H 1.171875 c -0.171875,0 -0.34375,0 -0.34375,0.1875 0,0.203125 0.171875,0.203125 0.34375,0.203125 z m 0,0"
             id="id-d03a6383-06d6-41be-9fd5-866e85888baf" />
        </symbol>
      </g>
    </defs>
    <defs
       id="id-b4851324-35b8-4ca6-b562-7066b1c2ca20">
      <g
         id="id-1b32383a-320a-45b6-aa1e-d76c849ed3c9">
        <symbol
           overflow="visible"
           id="id-0e54c7fe-8320-463b-a65f-a899788ec3f8">
          <path
             style="stroke:none;stroke-width:0"
             d=""
             id="id-dc868e93-0fe5-4eb4-9252-c55320c607f5" />
        </symbol>
        <symbol
           overflow="visible"
           id="id-37f0ad48-78c4-4784-9702-f29cbc5bdc4e">
          <path
             style="stroke:none;stroke-width:0"
             d="M 3.328125,-3.015625 C 3.390625,-3.265625 3.625,-4.1875 4.3125,-4.1875 c 0.046875,0 0.296875,0 0.5,0.125 C 4.53125,-4 4.34375,-3.765625 4.34375,-3.515625 c 0,0.15625 0.109375,0.34375 0.375,0.34375 0.21875,0 0.53125,-0.171875 0.53125,-0.578125 0,-0.515625 -0.578125,-0.65625 -0.921875,-0.65625 -0.578125,0 -0.921875,0.53125 -1.046875,0.75 -0.25,-0.65625 -0.78125,-0.75 -1.078125,-0.75 -1.03125,0 -1.609375,1.28125 -1.609375,1.53125 0,0.109375 0.109375,0.109375 0.125,0.109375 0.078125,0 0.109375,-0.03125 0.125,-0.109375 0.34375,-1.0625 1,-1.3125 1.34375,-1.3125 0.1875,0 0.53125,0.09375 0.53125,0.671875 0,0.3125 -0.171875,0.96875 -0.53125,2.375 -0.15625,0.609375 -0.515625,1.03125 -0.953125,1.03125 -0.0625,0 -0.28125,0 -0.5,-0.125 0.25,-0.0625 0.46875,-0.265625 0.46875,-0.546875 0,-0.265625 -0.21875,-0.34375 -0.359375,-0.34375 -0.3125,0 -0.546875,0.25 -0.546875,0.578125 0,0.453125 0.484375,0.65625 0.921875,0.65625 0.671875,0 1.03125,-0.703125 1.046875,-0.75 0.125,0.359375 0.484375,0.75 1.078125,0.75 1.03125,0 1.59375,-1.28125 1.59375,-1.53125 0,-0.109375 -0.078125,-0.109375 -0.109375,-0.109375 -0.09375,0 -0.109375,0.046875 -0.140625,0.109375 -0.328125,1.078125 -1,1.3125 -1.3125,1.3125 -0.390625,0 -0.546875,-0.3125 -0.546875,-0.65625 0,-0.21875 0.046875,-0.4375 0.15625,-0.875 z m 0,0"
             id="id-dfcf6a2b-c901-4af9-9680-2c6cdd1a5db8" />
        </symbol>
        <symbol
           overflow="visible"
           id="id-4b60b094-3483-4597-bc96-8f528be9ab7b">
          <path
             style="stroke:none;stroke-width:0"
             d="m 4.84375,-3.796875 c 0.046875,-0.140625 0.046875,-0.15625 0.046875,-0.234375 0,-0.171875 -0.140625,-0.265625 -0.296875,-0.265625 -0.09375,0 -0.25,0.0625 -0.34375,0.203125 -0.015625,0.0625 -0.109375,0.359375 -0.140625,0.546875 -0.078125,0.25 -0.140625,0.53125 -0.203125,0.796875 l -0.453125,1.796875 c -0.03125,0.140625 -0.46875,0.84375 -1.125,0.84375 -0.5,0 -0.609375,-0.4375 -0.609375,-0.8125 C 1.71875,-1.375 1.890625,-2 2.21875,-2.875 2.375,-3.28125 2.421875,-3.390625 2.421875,-3.59375 c 0,-0.4375 -0.3125,-0.8125 -0.8125,-0.8125 -0.953125,0 -1.3125,1.453125 -1.3125,1.53125 0,0.109375 0.09375,0.109375 0.109375,0.109375 0.109375,0 0.109375,-0.03125 0.15625,-0.1875 0.28125,-0.9375 0.671875,-1.234375 1.015625,-1.234375 0.078125,0 0.25,0 0.25,0.3125 0,0.25 -0.109375,0.515625 -0.171875,0.703125 -0.40625,1.0625 -0.578125,1.625 -0.578125,2.09375 0,0.890625 0.625,1.1875 1.21875,1.1875 0.390625,0 0.71875,-0.171875 1,-0.453125 -0.125,0.515625 -0.25,1.015625 -0.640625,1.546875 -0.265625,0.328125 -0.640625,0.625 -1.09375,0.625 -0.140625,0 -0.59375,-0.03125 -0.765625,-0.421875 0.15625,0 0.296875,0 0.421875,-0.125 C 1.328125,1.203125 1.421875,1.0625 1.421875,0.875 1.421875,0.5625 1.15625,0.53125 1.0625,0.53125 0.828125,0.53125 0.5,0.6875 0.5,1.171875 c 0,0.5 0.4375,0.875 1.0625,0.875 1.015625,0 2.046875,-0.90625 2.328125,-2.03125 z m 0,0"
             id="id-95967ca5-a881-4b0a-b83e-00b2af3c1111" />
        </symbol>
      </g>
    </defs>
    <defs
       id="id-a85880f6-b464-4f78-9426-7479da9e239d">
      <g
         id="id-f3181055-1ca3-47c5-bff8-ef56d790b172">
        <symbol
           overflow="visible"
           id="id-e3a6bc89-d9e5-4d64-b9cc-9ff8a9736ccb">
          <path
             style="stroke:none;stroke-width:0"
             d=""
             id="id-cd9d4918-a15d-4be6-b365-fcb6969dc6e4" />
        </symbol>
        <symbol
           overflow="visible"
           id="id-74441049-42ac-4e3f-88b1-c7c891c992e3">
          <path
             style="stroke:none;stroke-width:0"
             d="m 6.5625,-2.296875 c 0.171875,0 0.359375,0 0.359375,-0.203125 0,-0.1875 -0.1875,-0.1875 -0.359375,-0.1875 H 1.171875 c -0.171875,0 -0.34375,0 -0.34375,0.1875 0,0.203125 0.171875,0.203125 0.34375,0.203125 z m 0,0"
             id="id-000852e4-92e2-4900-afd0-f58158a94b11" />
        </symbol>
        <symbol
           overflow="visible"
           id="id-d01ead89-5043-4346-9a13-b0c029b43ebe">
          <path
             style="stroke:none;stroke-width:0"
             d=""
             id="id-258b108f-fc5b-40fb-b722-6ca293d792f3" />
        </symbol>
        <symbol
           overflow="visible"
           id="id-025bc79b-fae4-4045-8623-9be81cab1fe0">
          <path
             style="stroke:none;stroke-width:0"
             d="m 2.9375,-6.375 c 0,-0.25 0,-0.265625 -0.234375,-0.265625 C 2.078125,-6 1.203125,-6 0.890625,-6 v 0.3125 c 0.203125,0 0.78125,0 1.296875,-0.265625 v 5.171875 c 0,0.359375 -0.03125,0.46875 -0.921875,0.46875 h -0.3125 V 0 c 0.34375,-0.03125 1.203125,-0.03125 1.609375,-0.03125 0.390625,0 1.265625,0 1.609375,0.03125 v -0.3125 h -0.3125 c -0.90625,0 -0.921875,-0.109375 -0.921875,-0.46875 z m 0,0"
             id="id-453e4fbd-6839-4f99-97eb-887b3dc91c94" />
        </symbol>
        <symbol
           overflow="visible"
           id="id-0b81730a-0cfa-4601-9ded-ecb9235b5b55">
          <path
             style="stroke:none;stroke-width:0"
             d="m 1.265625,-0.765625 1.0625,-1.03125 c 1.546875,-1.375 2.140625,-1.90625 2.140625,-2.90625 0,-1.140625 -0.890625,-1.9375 -2.109375,-1.9375 -1.125,0 -1.859375,0.921875 -1.859375,1.8125 0,0.546875 0.5,0.546875 0.53125,0.546875 0.171875,0 0.515625,-0.109375 0.515625,-0.53125 0,-0.25 -0.1875,-0.515625 -0.53125,-0.515625 -0.078125,0 -0.09375,0 -0.125,0.015625 0.21875,-0.65625 0.765625,-1.015625 1.34375,-1.015625 0.90625,0 1.328125,0.8125 1.328125,1.625 C 3.5625,-3.90625 3.078125,-3.125 2.515625,-2.5 l -1.90625,2.125 C 0.5,-0.265625 0.5,-0.234375 0.5,0 H 4.203125 L 4.46875,-1.734375 H 4.234375 C 4.171875,-1.4375 4.109375,-1 4,-0.84375 3.9375,-0.765625 3.28125,-0.765625 3.0625,-0.765625 Z m 0,0"
             id="id-95ff71de-c4f1-4ef9-99d7-dab2f36cef44" />
        </symbol>
      </g>
    </defs>
    <marker
       style="overflow:visible"
       refX="0"
       refY="0"
       orient="auto"
       inkscape:stockid="Arrow2Mstart4734"
       inkscape:isstock="true"
       id="Arrow2Mstart4734">
      <path
         transform="scale(0.6)"
         d="M 8.7185878,4.0337352 -2.2072895,0.01601326 8.7185884,-4.0017078 c -1.7454984,2.3720609 -1.7354408,5.6174519 -6e-7,8.035443 z"
         style="fill:#ffffff;fill-rule:evenodd;stroke:#000000;stroke-width:0.625;stroke-linejoin:round"
         id="path1732" />
    </marker>
    <marker
       style="overflow:visible"
       refX="0"
       refY="0"
       orient="auto"
       inkscape:stockid="Arrow2Mstart47343707"
       inkscape:isstock="true"
       id="Arrow2Mstart47343707">
      <path
         transform="scale(0.6)"
         d="M 8.7185878,4.0337352 -2.2072895,0.01601326 8.7185884,-4.0017078 c -1.7454984,2.3720609 -1.7354408,5.6174519 -6e-7,8.035443 z"
         style="fill:#ffffff;fill-rule:evenodd;stroke:#000000;stroke-width:0.625;stroke-linejoin:round"
         id="path1935" />
    </marker>
    <marker
       style="overflow:visible"
       refX="0"
       refY="0"
       orient="auto"
       inkscape:stockid="Arrow2Mstart473437071710"
       inkscape:isstock="true"
       id="Arrow2Mstart473437071710">
      <path
         transform="scale(0.6)"
         d="M 8.7185878,4.0337352 -2.2072895,0.01601326 8.7185884,-4.0017078 c -1.7454984,2.3720609 -1.7354408,5.6174519 -6e-7,8.035443 z"
         style="fill:#c061cb;fill-opacity:1;fill-rule:evenodd;stroke:#c061cb;stroke-width:0.625;stroke-linejoin:round;stroke-opacity:1"
         id="path2860" />
    </marker>
  </defs>
  <g
     id="g1676"
     transform="translate(7.761239)">
    <path
       style="fill:none;stroke:#99c1f1;stroke-width:0.264583;stroke-linecap:butt;stroke-linejoin:miter;stroke-miterlimit:4;stroke-dasharray:1.05833, 1.05833;stroke-dashoffset:0;stroke-opacity:1"
       d="M 67.489389,34.395835 H -0.64081914"
       id="path1043"
       sodipodi:nodetypes="cc" />
    <path
       style="fill:none;stroke:#99c1f1;stroke-width:0.264583;stroke-linecap:butt;stroke-linejoin:miter;stroke-miterlimit:4;stroke-dasharray:1.05833, 1.05833;stroke-dashoffset:0;stroke-opacity:1"
       d="m 20.195118,4.6302101 10e-7,64.8229149"
       id="path3191"
       sodipodi:nodetypes="cc" />
    <path
       style="fill:#666666;stroke:#666666;stroke-width:0.264583px;stroke-linecap:butt;stroke-linejoin:miter;stroke-opacity:1;marker-start:url(#Arrow2Lstart);marker-mid:url(#StopL);marker-end:url(#Arrow2Lend)"
       d="m 63.851368,39.6875 c -21.214507,0 -42.317965,10e-7 -63.49999691,0"
       id="path941"
       sodipodi:nodetypes="cc" />
    <path
       style="fill:#000000;fill-opacity:1;stroke:none;stroke-width:0"
       d="m 40.742173,42.102996 c 0,-0.08668 0,-0.0921 -0.08126,-0.0921 -0.2167,0.222117 -0.52008,0.222117 -0.62843,0.222117 v 0.10835 c 0.07043,0 0.270875,0 0.449652,-0.0921 v 1.793191 c 0,0.124603 -0.01084,0.162525 -0.319632,0.162525 h -0.10835 v 0.10835 c 0.119185,-0.01084 0.417147,-0.01084 0.558002,-0.01084 0.135438,0 0.438817,0 0.558002,0.01084 v -0.10835 h -0.10835 c -0.314214,0 -0.319632,-0.03792 -0.319632,-0.162525 z m 0,0"
       id="id-540def05-052b-4efa-bc03-a56c3af56ced" />
    <path
       style="fill:#2d2d2d;stroke:#666666;stroke-width:0.264583px;stroke-linecap:butt;stroke-linejoin:miter;stroke-opacity:1;marker-start:url(#Arrow2Lstart);marker-mid:url(#StopL);marker-end:url(#Arrow2Lend)"
       d="m 33.424285,5.29167 c 0,24.245538 0,42.74081 0,66.14583"
       id="path2998"
       sodipodi:nodetypes="cc" />
    <path
       style="fill:#000000;fill-opacity:1;stroke:none;stroke-width:0"
       d="m 67.709585,38.70309 c 0.03295,-0.131802 0.156515,-0.617823 0.518972,-0.617823 0.02471,0 0.156515,0 0.263604,0.0659 -0.148277,0.03295 -0.247129,0.156515 -0.247129,0.288317 0,0.08238 0.05766,0.181229 0.197703,0.181229 0.115327,0 0.28008,-0.09061 0.28008,-0.304793 0,-0.271843 -0.304793,-0.345981 -0.486021,-0.345981 -0.304793,0 -0.486021,0.28008 -0.551922,0.395407 -0.131802,-0.345982 -0.411882,-0.395407 -0.568398,-0.395407 -0.543684,0 -0.848477,0.675487 -0.848477,0.807289 0,0.05766 0.05766,0.05766 0.0659,0.05766 0.04119,0 0.05766,-0.01648 0.0659,-0.05766 0.181228,-0.56016 0.527209,-0.691962 0.708438,-0.691962 0.09885,0 0.28008,0.04942 0.28008,0.354218 0,0.164753 -0.09061,0.510735 -0.28008,1.252123 -0.08238,0.321268 -0.271843,0.543684 -0.502497,0.543684 -0.03295,0 -0.148278,0 -0.263605,-0.0659 0.131803,-0.03295 0.24713,-0.14004 0.24713,-0.288317 0,-0.14004 -0.115327,-0.181229 -0.189466,-0.181229 -0.164753,0 -0.288318,0.131803 -0.288318,0.304793 0,0.238892 0.255367,0.345982 0.486021,0.345982 0.354219,0 0.543685,-0.370695 0.551923,-0.395408 0.0659,0.189466 0.255367,0.395408 0.568397,0.395408 0.543685,0 0.84024,-0.675488 0.84024,-0.80729 0,-0.05766 -0.04119,-0.05766 -0.05766,-0.05766 -0.04943,0 -0.05766,0.02471 -0.07414,0.05766 -0.17299,0.568398 -0.527209,0.691962 -0.691962,0.691962 -0.205941,0 -0.288318,-0.164752 -0.288318,-0.345981 0,-0.115327 0.02471,-0.230654 0.08238,-0.461308 z m 0,0"
       id="id-6fc33978-9af7-4d73-8ec0-a8c6100d8b29" />
    <path
       style="fill:#000000;fill-opacity:1;stroke:none;stroke-width:0"
       d="m 35.220715,0.32126777 c 0.02471,-0.0741388 0.02471,-0.0823765 0.02471,-0.1235647 0,-0.0906141 -0.07414,-0.14004 -0.156516,-0.14004 -0.04943,0 -0.131802,0.03295058 -0.181228,0.10708941 -0.0082,0.0329506 -0.05766,0.18946588 -0.07414,0.28831764 -0.04119,0.13180236 -0.07414,0.28008 -0.107089,0.42012 L 34.487564,1.8205195 c -0.01647,0.074139 -0.247129,0.444833 -0.593111,0.444833 -0.263604,0 -0.321268,-0.2306541 -0.321268,-0.4283577 0,-0.2388917 0.09061,-0.5683976 0.263605,-1.02970585 0.08238,-0.21417883 0.107089,-0.27184236 0.107089,-0.37893177 0,-0.23065411 -0.164753,-0.4283576428125 -0.428357,-0.4283576428125 -0.502497,0 -0.691963,0.7661011728125 -0.691963,0.8072894128125 0,0.0576635 0.04943,0.0576635 0.05766,0.0576635 0.05766,0 0.05766,-0.0164753 0.08238,-0.0988518 0.148278,-0.49425882 0.354219,-0.65077411 0.535447,-0.65077411 0.04119,0 0.131803,0 0.131803,0.16475294 0,0.13180235 -0.05766,0.27184235 -0.09061,0.37069411 -0.214179,0.56016001 -0.304793,0.85671521 -0.304793,1.10384471 0,0.4695458 0.329506,0.6260611 0.642536,0.6260611 0.205941,0 0.378932,-0.090614 0.52721,-0.2388917 -0.0659,0.2718423 -0.131803,0.535447 -0.337744,0.815527 -0.14004,0.1729906 -0.337744,0.3295059 -0.576635,0.3295059 -0.07414,0 -0.313031,-0.016475 -0.403645,-0.2224165 0.08238,0 0.156515,0 0.222416,-0.065901 0.05766,-0.041188 0.10709,-0.1153271 0.10709,-0.2141789 0,-0.1647529 -0.14004,-0.1812282 -0.189466,-0.1812282 -0.123565,0 -0.296555,0.082377 -0.296555,0.3377435 0,0.2636047 0.230654,0.4613083 0.56016,0.4613083 0.535447,0 1.079131,-0.4777836 1.227409,-1.0708942 z m 0,0"
       id="id-4f1c9b01-c778-4e28-b7be-ac4891bdc8fb" />
    <g
       transform="matrix(0.39335236,0,0,0.39335236,34.437676,54.810994)"
       id="g2016"
       style="fill:#000000;fill-opacity:1">
      <path
         style="stroke:none;stroke-width:0"
         d="m 6.5625,-2.296875 c 0.171875,0 0.359375,0 0.359375,-0.203125 0,-0.1875 -0.1875,-0.1875 -0.359375,-0.1875 H 1.171875 c -0.171875,0 -0.34375,0 -0.34375,0.1875 0,0.203125 0.171875,0.203125 0.34375,0.203125 z m 0,0"
         id="id-bc802eb3-b993-4d12-93ae-857d6fc57dfc" />
    </g>
    <path
       style="fill:#000000;fill-opacity:1;stroke:none;stroke-width:0"
       d="m 38.854482,54.509834 0.417936,-0.405645 c 0.608467,-0.54086 0.84202,-0.749828 0.84202,-1.14318 0,-0.448668 -0.350329,-0.762121 -0.829727,-0.762121 -0.442522,0 -0.73139,0.362622 -0.73139,0.712952 0,0.215114 0.196676,0.215114 0.208969,0.215114 0.06761,0 0.202822,-0.04302 0.202822,-0.208968 0,-0.09834 -0.07375,-0.202823 -0.208969,-0.202823 -0.03073,0 -0.03688,0 -0.04917,0.0061 0.08605,-0.258138 0.301161,-0.399499 0.528568,-0.399499 0.356475,0 0.522421,0.319599 0.522421,0.639198 0,0.313452 -0.19053,0.620759 -0.411791,0.866604 l -0.749828,0.835874 c -0.04302,0.04302 -0.04302,0.05532 -0.04302,0.147507 h 1.456633 l 0.104484,-0.68222 h -0.09219 c -0.02458,0.116776 -0.04917,0.288868 -0.09219,0.350329 -0.02458,0.03073 -0.282722,0.03073 -0.368767,0.03073 z m 0,0"
       id="id-ed1e2927-7d23-4d1d-a3b3-3b47c78581dc" />
    <path
       style="fill:#000000;fill-opacity:1;stroke:none;stroke-width:0"
       d="m 36.959532,28.066932 0.417936,-0.405645 c 0.608467,-0.54086 0.84202,-0.749828 0.84202,-1.14318 0,-0.448668 -0.350329,-0.762121 -0.829727,-0.762121 -0.442522,0 -0.73139,0.362622 -0.73139,0.712952 0,0.215114 0.196676,0.215114 0.208969,0.215114 0.06761,0 0.202822,-0.04302 0.202822,-0.208968 0,-0.09834 -0.07375,-0.202823 -0.208969,-0.202823 -0.03073,0 -0.03688,0 -0.04917,0.0061 0.08605,-0.258138 0.301161,-0.399499 0.528568,-0.399499 0.356475,0 0.522421,0.319599 0.522421,0.639198 0,0.313452 -0.19053,0.620759 -0.411791,0.866604 l -0.749828,0.835874 c -0.04302,0.04302 -0.04302,0.05532 -0.04302,0.147507 h 1.456633 l 0.104484,-0.68222 H 38.1273 c -0.02458,0.116776 -0.04917,0.288868 -0.09219,0.350329 -0.02458,0.03073 -0.282722,0.03073 -0.368767,0.03073 z m 0,0"
       id="id-a8211031-8b28-4a70-91af-63f0308dfcad" />
    <path
       style="fill:#000000;fill-opacity:1;stroke:none;stroke-width:0"
       d="m 37.579785,32.778454 c 0,-0.08668 0,-0.0921 -0.08126,-0.0921 -0.2167,0.222117 -0.52008,0.222117 -0.62843,0.222117 v 0.10835 c 0.07043,0 0.270875,0 0.449652,-0.0921 v 1.793191 c 0,0.124603 -0.01084,0.162525 -0.319632,0.162525 h -0.10835 v 0.10835 c 0.119185,-0.01083 0.417147,-0.01083 0.558002,-0.01083 0.135438,0 0.438817,0 0.558002,0.01083 v -0.10835 h -0.10835 c -0.314214,0 -0.319632,-0.03792 -0.319632,-0.162525 z m 0,0"
       id="path2219" />
    <g
       transform="matrix(0.34671967,0,0,0.34671967,35.330606,48.190441)"
       id="g2225"
       style="fill:#000000;fill-opacity:1">
      <path
         style="stroke:none;stroke-width:0"
         d="m 6.5625,-2.296875 c 0.171875,0 0.359375,0 0.359375,-0.203125 0,-0.1875 -0.1875,-0.1875 -0.359375,-0.1875 H 1.171875 c -0.171875,0 -0.34375,0 -0.34375,0.1875 0,0.203125 0.171875,0.203125 0.34375,0.203125 z m 0,0"
         id="path2223" />
    </g>
    <g
       transform="matrix(0.34671967,0,0,0.34671967,37.813656,48.36185)"
       id="g2229"
       style="fill:#000000;fill-opacity:1">
      <path
         style="stroke:none;stroke-width:0"
         d="m 2.9375,-6.375 c 0,-0.25 0,-0.265625 -0.234375,-0.265625 C 2.078125,-6 1.203125,-6 0.890625,-6 v 0.3125 c 0.203125,0 0.78125,0 1.296875,-0.265625 v 5.171875 c 0,0.359375 -0.03125,0.46875 -0.921875,0.46875 h -0.3125 V 0 c 0.34375,-0.03125 1.203125,-0.03125 1.609375,-0.03125 0.390625,0 1.265625,0 1.609375,0.03125 v -0.3125 h -0.3125 c -0.90625,0 -0.921875,-0.109375 -0.921875,-0.46875 z m 0,0"
         id="path2227" />
    </g>
    <g
       transform="matrix(0.34671967,0,0,0.34671967,23.912584,44.141925)"
       id="g2319"
       style="fill:#000000;fill-opacity:1">
      <path
         style="stroke:none;stroke-width:0"
         d="m 6.5625,-2.296875 c 0.171875,0 0.359375,0 0.359375,-0.203125 0,-0.1875 -0.1875,-0.1875 -0.359375,-0.1875 H 1.171875 c -0.171875,0 -0.34375,0 -0.34375,0.1875 0,0.203125 0.171875,0.203125 0.34375,0.203125 z m 0,0"
         id="path2317" />
    </g>
    <g
       transform="matrix(0.34671967,0,0,0.34671967,26.395634,44.313334)"
       id="g2323"
       style="fill:#000000;fill-opacity:1">
      <path
         style="stroke:none;stroke-width:0"
         d="m 2.9375,-6.375 c 0,-0.25 0,-0.265625 -0.234375,-0.265625 C 2.078125,-6 1.203125,-6 0.890625,-6 v 0.3125 c 0.203125,0 0.78125,0 1.296875,-0.265625 v 5.171875 c 0,0.359375 -0.03125,0.46875 -0.921875,0.46875 h -0.3125 V 0 c 0.34375,-0.03125 1.203125,-0.03125 1.609375,-0.03125 0.390625,0 1.265625,0 1.609375,0.03125 v -0.3125 h -0.3125 c -0.90625,0 -0.921875,-0.109375 -0.921875,-0.46875 z m 0,0"
         id="path2321" />
    </g>
    <g
       transform="matrix(0.39335236,0,0,0.39335236,16.290827,44.468193)"
       id="g1403"
       style="fill:#000000;fill-opacity:1">
      <path
         style="stroke:none;stroke-width:0"
         d="m 6.5625,-2.296875 c 0.171875,0 0.359375,0 0.359375,-0.203125 0,-0.1875 -0.1875,-0.1875 -0.359375,-0.1875 H 1.171875 c -0.171875,0 -0.34375,0 -0.34375,0.1875 0,0.203125 0.171875,0.203125 0.34375,0.203125 z m 0,0"
         id="path1401" />
    </g>
    <path
       style="fill:#000000;fill-opacity:1;stroke:none;stroke-width:0"
       d="m 20.707633,44.167033 0.417936,-0.405645 c 0.608467,-0.54086 0.84202,-0.749828 0.84202,-1.14318 0,-0.448668 -0.350329,-0.762121 -0.829727,-0.762121 -0.442522,0 -0.73139,0.362622 -0.73139,0.712952 0,0.215114 0.196676,0.215114 0.208969,0.215114 0.06761,0 0.202822,-0.04302 0.202822,-0.208968 0,-0.09834 -0.07375,-0.202823 -0.208969,-0.202823 -0.03073,0 -0.03688,0 -0.04917,0.0061 0.08605,-0.258138 0.301161,-0.399499 0.528568,-0.399499 0.356475,0 0.522421,0.319599 0.522421,0.639198 0,0.313452 -0.19053,0.620759 -0.411791,0.866604 l -0.749828,0.835874 c -0.04302,0.04302 -0.04302,0.05532 -0.04302,0.147507 h 1.456633 l 0.104484,-0.68222 h -0.09219 c -0.02458,0.116776 -0.04917,0.288868 -0.09219,0.350329 -0.02458,0.03073 -0.282722,0.03073 -0.368767,0.03073 z m 0,0"
       id="path1405" />
    <path
       style="fill:none;stroke:#000000;stroke-width:0.264583px;stroke-linecap:butt;stroke-linejoin:miter;stroke-opacity:1"
       d="m 26.809701,38.364584 v 2.645833"
       id="path1096" />
    <path
       style="fill:none;stroke:#000000;stroke-width:0.264583px;stroke-linecap:butt;stroke-linejoin:miter;stroke-opacity:1"
       d="m 40.038868,38.364584 v 2.645833"
       id="path1353" />
    <path
       style="fill:none;stroke:#000000;stroke-width:0.264583px;stroke-linecap:butt;stroke-linejoin:miter;stroke-opacity:1"
       d="m 20.195118,38.364584 v 2.645833"
       id="path1355" />
    <path
       style="fill:none;stroke:#000000;stroke-width:0.264583px;stroke-linecap:butt;stroke-linejoin:miter;stroke-opacity:1"
       d="M 34.747201,34.395834 H 32.101368"
       id="path1798" />
    <path
       style="fill:none;stroke:#000000;stroke-width:0.264583px;stroke-linecap:butt;stroke-linejoin:miter;stroke-opacity:1"
       d="M 34.747201,27.781251 H 32.101368"
       id="path1800" />
    <path
       style="fill:none;stroke:#000000;stroke-width:0.264583px;stroke-linecap:butt;stroke-linejoin:miter;stroke-opacity:1"
       d="M 34.747201,47.625001 H 32.101368"
       id="path1802" />
    <path
       style="fill:none;stroke:#000000;stroke-width:0.264583px;stroke-linecap:butt;stroke-linejoin:miter;stroke-opacity:1"
       d="M 34.747201,54.239584 H 32.101368"
       id="path1804" />
    <circle
       style="font-variation-settings:normal;vector-effect:none;fill:#f6d32d;fill-opacity:1;fill-rule:evenodd;stroke:#e01b24;stroke-width:0.264583;stroke-linecap:butt;stroke-linejoin:miter;stroke-miterlimit:4;stroke-dasharray:none;stroke-dashoffset:0;stroke-opacity:1;stop-color:#000000"
       id="path2829"
       cx="20.195118"
       cy="39.6875"
       r="0.66145831" />
    <circle
       style="font-variation-settings:normal;vector-effect:none;fill:#f6d32d;fill-opacity:1;fill-rule:evenodd;stroke:#e01b24;stroke-width:0.264583;stroke-linecap:butt;stroke-linejoin:miter;stroke-miterlimit:4;stroke-dasharray:none;stroke-dashoffset:0;stroke-opacity:1;stop-color:#000000"
       id="circle1182"
       cx="33.424286"
       cy="34.395836"
       r="0.66145831" />
    <g
       id="path1048">
      <path
         style="color:#000000;fill:#c061cb;-inkscape-stroke:none"
         d="m 24.054687,55.488281 c 0,0 -2.667968,3.998227 -2.667968,9.333985 h 0.263672 c 0,-5.247564 2.623046,-9.185547 2.623046,-9.185547 z"
         id="path3031" />
      <g
         id="g3019">
        <g
           id="path3021">
          <path
             style="color:#000000;fill:#c061cb;fill-rule:evenodd;stroke-width:0.0992186;stroke-linejoin:round;-inkscape-stroke:none"
             d="m 22.15839,63.438844 -0.637813,1.734481 -0.637812,-1.734481 c 0.376564,0.277097 0.891769,0.275501 1.275625,0 z"
             id="path3025" />
          <path
             style="color:#000000;fill:#c061cb;fill-rule:evenodd;stroke-linejoin:round;-inkscape-stroke:none"
             d="m 22.169922,63.390625 a 0.04961426,0.04961426 0 0 0 -0.04102,0.0078 c -0.366846,0.263293 -0.857704,0.264241 -1.216797,0 a 0.04961426,0.04961426 0 0 0 -0.07617,0.05664 l 0.638672,1.736328 a 0.04961426,0.04961426 0 0 0 0.0918,0 l 0.638672,-1.736328 a 0.04961426,0.04961426 0 0 0 -0.03516,-0.06445 z m -1.21875,0.08789 c 0.353171,0.211053 0.780524,0.209837 1.138672,0 l -0.570313,1.552734 z"
             id="path3027" />
        </g>
      </g>
    </g>
    <g
       id="g1063"
       transform="rotate(180,20.05126,35.469281)">
      <path
         style="color:#000000;fill:#c061cb;-inkscape-stroke:none"
         d="m 24.054687,55.488281 c 0,0 -2.667968,3.998227 -2.667968,9.333985 h 0.263672 c 0,-5.247564 2.623046,-9.185547 2.623046,-9.185547 z"
         id="path1053" />
      <g
         id="g1061">
        <g
           id="g1059">
          <path
             style="color:#000000;fill:#c061cb;fill-rule:evenodd;stroke-width:0.0992186;stroke-linejoin:round;-inkscape-stroke:none"
             d="m 22.15839,63.438844 -0.637813,1.734481 -0.637812,-1.734481 c 0.376564,0.277097 0.891769,0.275501 1.275625,0 z"
             id="path1055" />
          <path
             style="color:#000000;fill:#c061cb;fill-rule:evenodd;stroke-linejoin:round;-inkscape-stroke:none"
             d="m 22.169922,63.390625 a 0.04961426,0.04961426 0 0 0 -0.04102,0.0078 c -0.366846,0.263293 -0.857704,0.264241 -1.216797,0 a 0.04961426,0.04961426 0 0 0 -0.07617,0.05664 l 0.638672,1.736328 a 0.04961426,0.04961426 0 0 0 0.0918,0 l 0.638672,-1.736328 a 0.04961426,0.04961426 0 0 0 -0.03516,-0.06445 z m -1.21875,0.08789 c 0.353171,0.211053 0.780524,0.209837 1.138672,0 l -0.570313,1.552734 z"
             id="path1057" />
        </g>
      </g>
    </g>
    <g
       id="path1124">
      <path
         style="color:#000000;fill:#c061cb;-inkscape-stroke:none"
         d="m 55.914062,35.585937 v 0.265625 h 10.583985 v -0.265625 z"
         id="path1612" />
      <g
         id="g1602">
        <path
           style="color:#000000;fill:#c061cb;fill-rule:evenodd;stroke-width:0.0992186;stroke-linejoin:round;-inkscape-stroke:none"
           d="m 65.113128,35.078397 1.734481,0.637813 -1.734481,0.637812 c 0.277097,-0.376564 0.275501,-0.891769 0,-1.275625 z"
           id="path1604" />
      </g>
    </g>
    <g
       id="g1622"
       transform="rotate(180,29.543185,34.394564)">
      <path
         style="color:#000000;fill:#c061cb;-inkscape-stroke:none"
         d="m 55.914062,35.585937 v 0.265625 h 10.583985 v -0.265625 z"
         id="path1616" />
      <g
         id="g1620">
        <path
           style="color:#000000;fill:#c061cb;fill-rule:evenodd;stroke-width:0.0992186;stroke-linejoin:round;-inkscape-stroke:none"
           d="m 65.113128,35.078397 1.734481,0.637813 -1.734481,0.637812 c 0.277097,-0.376564 0.275501,-0.891769 0,-1.275625 z"
           id="path1618" />
      </g>
    </g>
  </g>
</svg>
