<?xml version="1.0" encoding="UTF-8" standalone="no"?>
<!-- Created with Inkscape (http://www.inkscape.org/) -->

<svg
   width="80.870224mm"
   height="65.954651mm"
   viewBox="0 0 80.870224 65.954651"
   version="1.1"
   id="svg5"
   sodipodi:docname="rectify_3.svg"
   inkscape:version="1.1 (c4e8f9e, 2021-05-24)"
   xmlns:inkscape="http://www.inkscape.org/namespaces/inkscape"
   xmlns:sodipodi="http://sodipodi.sourceforge.net/DTD/sodipodi-0.dtd"
   xmlns="http://www.w3.org/2000/svg"
   xmlns:svg="http://www.w3.org/2000/svg">
  <sodipodi:namedview
     id="namedview7"
     pagecolor="#ffffff"
     bordercolor="#666666"
     borderopacity="1.0"
     inkscape:pageshadow="2"
     inkscape:pageopacity="0.0"
     inkscape:pagecheckerboard="0"
     inkscape:document-units="mm"
     showgrid="false"
     inkscape:zoom="1.1135663"
     inkscape:cx="129.76327"
     inkscape:cy="183.64421"
     inkscape:window-width="1312"
     inkscape:window-height="847"
     inkscape:window-x="1970"
     inkscape:window-y="50"
     inkscape:window-maximized="0"
     inkscape:current-layer="layer1"
     inkscape:snap-global="true">
    <inkscape:grid
       type="xygrid"
       id="grid824"
       originx="-111.0986"
       originy="-248.70833" />
  </sodipodi:namedview>
  <defs
     id="defs2">
    <defs
       id="id-e4f956ca-4534-4969-a69a-ab3b4a7a2984">
      <g
         id="id-b126dd07-a7f5-472d-a96d-02e8d031f3a0">
        <symbol
           overflow="visible"
           id="id-a5d862e5-656b-447c-9517-c5daec8b038d">
          <path
             style="stroke:none"
             d=""
             id="id-e95719a2-5084-479d-b934-0be07bac8e53" />
        </symbol>
        <symbol
           overflow="visible"
           id="id-bbe95856-babb-4c31-8756-1aac751b05ca">
          <path
             style="stroke:none"
             d="m 4.84375,-3.796875 c 0.046875,-0.140625 0.046875,-0.15625 0.046875,-0.234375 0,-0.171875 -0.140625,-0.265625 -0.296875,-0.265625 -0.09375,0 -0.25,0.0625 -0.34375,0.203125 -0.015625,0.0625 -0.109375,0.359375 -0.140625,0.546875 -0.078125,0.25 -0.140625,0.53125 -0.203125,0.796875 l -0.453125,1.796875 c -0.03125,0.140625 -0.46875,0.84375 -1.125,0.84375 -0.5,0 -0.609375,-0.4375 -0.609375,-0.8125 C 1.71875,-1.375 1.890625,-2 2.21875,-2.875 2.375,-3.28125 2.421875,-3.390625 2.421875,-3.59375 c 0,-0.4375 -0.3125,-0.8125 -0.8125,-0.8125 -0.953125,0 -1.3125,1.453125 -1.3125,1.53125 0,0.109375 0.09375,0.109375 0.109375,0.109375 0.109375,0 0.109375,-0.03125 0.15625,-0.1875 0.28125,-0.9375 0.671875,-1.234375 1.015625,-1.234375 0.078125,0 0.25,0 0.25,0.3125 0,0.25 -0.109375,0.515625 -0.171875,0.703125 -0.40625,1.0625 -0.578125,1.625 -0.578125,2.09375 0,0.890625 0.625,1.1875 1.21875,1.1875 0.390625,0 0.71875,-0.171875 1,-0.453125 -0.125,0.515625 -0.25,1.015625 -0.640625,1.546875 -0.265625,0.328125 -0.640625,0.625 -1.09375,0.625 -0.140625,0 -0.59375,-0.03125 -0.765625,-0.421875 0.15625,0 0.296875,0 0.421875,-0.125 C 1.328125,1.203125 1.421875,1.0625 1.421875,0.875 1.421875,0.5625 1.15625,0.53125 1.0625,0.53125 0.828125,0.53125 0.5,0.6875 0.5,1.171875 c 0,0.5 0.4375,0.875 1.0625,0.875 1.015625,0 2.046875,-0.90625 2.328125,-2.03125 z m 0,0"
             id="id-7a0772a7-4263-424e-ac33-8f08e9ebe0ae" />
        </symbol>
        <symbol
           overflow="visible"
           id="id-0fca9fee-6f70-4681-93f4-1712f49aa4f6">
          <path
             style="stroke:none"
             d="m 3.65625,-3.984375 h 0.859375 c 0.203125,0 0.296875,0 0.296875,-0.203125 0,-0.109375 -0.09375,-0.109375 -0.265625,-0.109375 H 3.71875 L 3.921875,-5.4375 c 0.046875,-0.203125 0.1875,-0.90625 0.25,-1.03125 0.078125,-0.1875 0.25,-0.34375 0.46875,-0.34375 0.03125,0 0.296875,0 0.484375,0.1875 -0.4375,0.03125 -0.546875,0.390625 -0.546875,0.53125 0,0.234375 0.1875,0.359375 0.375,0.359375 C 5.21875,-5.734375 5.5,-5.96875 5.5,-6.34375 c 0,-0.453125 -0.453125,-0.6875 -0.859375,-0.6875 -0.34375,0 -0.96875,0.1875 -1.265625,1.171875 -0.0625,0.203125 -0.09375,0.3125 -0.328125,1.5625 h -0.6875 c -0.203125,0 -0.3125,0 -0.3125,0.1875 0,0.125 0.09375,0.125 0.28125,0.125 h 0.65625 L 2.25,-0.046875 c -0.1875,0.96875 -0.359375,1.875 -0.875,1.875 -0.046875,0 -0.28125,0 -0.484375,-0.1875 C 1.359375,1.609375 1.453125,1.25 1.453125,1.109375 1.453125,0.875 1.265625,0.75 1.078125,0.75 0.8125,0.75 0.53125,0.984375 0.53125,1.359375 c 0,0.4375 0.4375,0.6875 0.84375,0.6875 0.546875,0 0.953125,-0.59375 1.125,-0.96875 0.328125,-0.625 0.546875,-1.828125 0.5625,-1.90625 z m 0,0"
             id="id-f8918443-14b6-4d02-a8c7-8e6a6df97a48" />
        </symbol>
        <symbol
           overflow="visible"
           id="id-17800c9e-a4f8-43d8-be0c-325621fd411d">
          <path
             style="stroke:none"
             d="M 3.328125,-3.015625 C 3.390625,-3.265625 3.625,-4.1875 4.3125,-4.1875 c 0.046875,0 0.296875,0 0.5,0.125 C 4.53125,-4 4.34375,-3.765625 4.34375,-3.515625 c 0,0.15625 0.109375,0.34375 0.375,0.34375 0.21875,0 0.53125,-0.171875 0.53125,-0.578125 0,-0.515625 -0.578125,-0.65625 -0.921875,-0.65625 -0.578125,0 -0.921875,0.53125 -1.046875,0.75 -0.25,-0.65625 -0.78125,-0.75 -1.078125,-0.75 -1.03125,0 -1.609375,1.28125 -1.609375,1.53125 0,0.109375 0.109375,0.109375 0.125,0.109375 0.078125,0 0.109375,-0.03125 0.125,-0.109375 0.34375,-1.0625 1,-1.3125 1.34375,-1.3125 0.1875,0 0.53125,0.09375 0.53125,0.671875 0,0.3125 -0.171875,0.96875 -0.53125,2.375 -0.15625,0.609375 -0.515625,1.03125 -0.953125,1.03125 -0.0625,0 -0.28125,0 -0.5,-0.125 0.25,-0.0625 0.46875,-0.265625 0.46875,-0.546875 0,-0.265625 -0.21875,-0.34375 -0.359375,-0.34375 -0.3125,0 -0.546875,0.25 -0.546875,0.578125 0,0.453125 0.484375,0.65625 0.921875,0.65625 0.671875,0 1.03125,-0.703125 1.046875,-0.75 0.125,0.359375 0.484375,0.75 1.078125,0.75 1.03125,0 1.59375,-1.28125 1.59375,-1.53125 0,-0.109375 -0.078125,-0.109375 -0.109375,-0.109375 -0.09375,0 -0.109375,0.046875 -0.140625,0.109375 -0.328125,1.078125 -1,1.3125 -1.3125,1.3125 -0.390625,0 -0.546875,-0.3125 -0.546875,-0.65625 0,-0.21875 0.046875,-0.4375 0.15625,-0.875 z m 0,0"
             id="id-0d7e6e0b-59f2-4ece-96bb-b135d7b46af5" />
        </symbol>
        <symbol
           overflow="visible"
           id="id-68bc56a1-d19a-4e4b-a716-ed6d89a2a7c7">
          <path
             style="stroke:none"
             d="M 3.71875,-3.765625 C 3.53125,-4.140625 3.25,-4.40625 2.796875,-4.40625 c -1.15625,0 -2.390625,1.46875 -2.390625,2.921875 0,0.9375 0.546875,1.59375 1.3125,1.59375 0.203125,0 0.703125,-0.046875 1.296875,-0.75 0.078125,0.421875 0.4375,0.75 0.90625,0.75 0.359375,0 0.578125,-0.234375 0.75,-0.546875 0.15625,-0.359375 0.296875,-0.96875 0.296875,-0.984375 0,-0.109375 -0.09375,-0.109375 -0.125,-0.109375 -0.09375,0 -0.109375,0.046875 -0.140625,0.1875 -0.171875,0.640625 -0.34375,1.234375 -0.75,1.234375 -0.28125,0 -0.296875,-0.265625 -0.296875,-0.453125 0,-0.21875 0.015625,-0.3125 0.125,-0.75 C 3.890625,-1.71875 3.90625,-1.828125 4,-2.203125 L 4.359375,-3.59375 c 0.0625,-0.28125 0.0625,-0.296875 0.0625,-0.34375 0,-0.171875 -0.109375,-0.265625 -0.28125,-0.265625 -0.25,0 -0.390625,0.21875 -0.421875,0.4375 z M 3.078125,-1.1875 C 3.015625,-1 3.015625,-0.984375 2.875,-0.8125 2.4375,-0.265625 2.03125,-0.109375 1.75,-0.109375 c -0.5,0 -0.640625,-0.546875 -0.640625,-0.9375 0,-0.5 0.3125,-1.71875 0.546875,-2.1875 0.3125,-0.578125 0.75,-0.953125 1.15625,-0.953125 0.640625,0 0.78125,0.8125 0.78125,0.875 0,0.0625 -0.015625,0.125 -0.03125,0.171875 z m 0,0"
             id="id-2e22a626-1bdc-4d35-ae65-37038d4bf1ba" />
        </symbol>
        <symbol
           overflow="visible"
           id="id-d7f3434b-88b7-4498-bb4e-6fa3a643b3f1">
          <path
             style="stroke:none"
             d="m 2.375,-6.8125 c 0,0 0,-0.109375 -0.125,-0.109375 -0.21875,0 -0.953125,0.078125 -1.21875,0.109375 -0.078125,0 -0.1875,0.015625 -0.1875,0.1875 0,0.125 0.09375,0.125 0.25,0.125 0.46875,0 0.484375,0.0625 0.484375,0.171875 0,0.0625 -0.078125,0.40625 -0.125,0.609375 l -0.828125,3.25 c -0.109375,0.5 -0.15625,0.671875 -0.15625,1.015625 0,0.9375 0.53125,1.5625 1.265625,1.5625 1.171875,0 2.40625,-1.484375 2.40625,-2.921875 0,-0.90625 -0.53125,-1.59375 -1.328125,-1.59375 -0.453125,0 -0.875,0.296875 -1.171875,0.59375 z M 1.453125,-3.046875 C 1.5,-3.265625 1.5,-3.28125 1.59375,-3.390625 2.078125,-4.03125 2.53125,-4.1875 2.796875,-4.1875 c 0.359375,0 0.625,0.296875 0.625,0.9375 0,0.59375 -0.328125,1.734375 -0.515625,2.109375 -0.328125,0.671875 -0.78125,1.03125 -1.171875,1.03125 -0.34375,0 -0.671875,-0.265625 -0.671875,-1 0,-0.203125 0,-0.390625 0.15625,-1.015625 z m 0,0"
             id="id-5e8d0238-b48f-4784-8d34-9f36734461bd" />
        </symbol>
        <symbol
           overflow="visible"
           id="id-4df0be5d-81e1-4ac9-9185-a6daaf740461">
          <path
             style="stroke:none"
             d="m 5.140625,-6.8125 c 0,0 0,-0.109375 -0.125,-0.109375 -0.15625,0 -1.09375,0.09375 -1.265625,0.109375 -0.078125,0.015625 -0.140625,0.0625 -0.140625,0.1875 0,0.125 0.09375,0.125 0.234375,0.125 0.484375,0 0.5,0.0625 0.5,0.171875 L 4.3125,-6.125 3.71875,-3.765625 C 3.53125,-4.140625 3.25,-4.40625 2.796875,-4.40625 c -1.15625,0 -2.390625,1.46875 -2.390625,2.921875 0,0.9375 0.546875,1.59375 1.3125,1.59375 0.203125,0 0.703125,-0.046875 1.296875,-0.75 0.078125,0.421875 0.4375,0.75 0.90625,0.75 0.359375,0 0.578125,-0.234375 0.75,-0.546875 0.15625,-0.359375 0.296875,-0.96875 0.296875,-0.984375 0,-0.109375 -0.09375,-0.109375 -0.125,-0.109375 -0.09375,0 -0.109375,0.046875 -0.140625,0.1875 -0.171875,0.640625 -0.34375,1.234375 -0.75,1.234375 -0.28125,0 -0.296875,-0.265625 -0.296875,-0.453125 0,-0.25 0.015625,-0.3125 0.046875,-0.484375 z m -2.0625,5.625 C 3.015625,-1 3.015625,-0.984375 2.875,-0.8125 2.4375,-0.265625 2.03125,-0.109375 1.75,-0.109375 c -0.5,0 -0.640625,-0.546875 -0.640625,-0.9375 0,-0.5 0.3125,-1.71875 0.546875,-2.1875 0.3125,-0.578125 0.75,-0.953125 1.15625,-0.953125 0.640625,0 0.78125,0.8125 0.78125,0.875 0,0.0625 -0.015625,0.125 -0.03125,0.171875 z m 0,0"
             id="id-62445efa-1069-49ca-ad35-29341f0901e7" />
        </symbol>
        <symbol
           overflow="visible"
           id="id-ba76695f-0b6e-422c-a944-859bbe83f162">
          <path
             style="stroke:none"
             d=""
             id="id-37da7103-48f4-465a-a3ee-521641e77d7f" />
        </symbol>
        <symbol
           overflow="visible"
           id="id-f608782b-6ad9-44e7-94a4-6f1b1351225a">
          <path
             style="stroke:none"
             d="m 6.84375,-3.265625 c 0.15625,0 0.34375,0 0.34375,-0.1875 C 7.1875,-3.65625 7,-3.65625 6.859375,-3.65625 h -5.96875 c -0.140625,0 -0.328125,0 -0.328125,0.203125 0,0.1875 0.1875,0.1875 0.328125,0.1875 z m 0.015625,1.9375 c 0.140625,0 0.328125,0 0.328125,-0.203125 0,-0.1875 -0.1875,-0.1875 -0.34375,-0.1875 H 0.890625 c -0.140625,0 -0.328125,0 -0.328125,0.1875 0,0.203125 0.1875,0.203125 0.328125,0.203125 z m 0,0"
             id="id-cd947641-f075-4ab0-8250-4c94272f310c" />
        </symbol>
        <symbol
           overflow="visible"
           id="id-8dac46d8-95e8-46cd-b6a3-abba7c98e28b">
          <path
             style="stroke:none"
             d="m 3.296875,2.390625 c 0,-0.03125 0,-0.046875 -0.171875,-0.21875 C 1.890625,0.921875 1.5625,-0.96875 1.5625,-2.5 c 0,-1.734375 0.375,-3.46875 1.609375,-4.703125 0.125,-0.125 0.125,-0.140625 0.125,-0.171875 0,-0.078125 -0.03125,-0.109375 -0.09375,-0.109375 -0.109375,0 -1,0.6875 -1.59375,1.953125 -0.5,1.09375 -0.625,2.203125 -0.625,3.03125 0,0.78125 0.109375,1.984375 0.65625,3.125 C 2.25,1.84375 3.09375,2.5 3.203125,2.5 c 0.0625,0 0.09375,-0.03125 0.09375,-0.109375 z m 0,0"
             id="id-ec556353-1109-4071-ab34-bdde9433ea90" />
        </symbol>
        <symbol
           overflow="visible"
           id="id-38f012a1-01d3-4f80-af13-fe5c3f0786a9">
          <path
             style="stroke:none"
             d="m 2.875,-2.5 c 0,-0.765625 -0.109375,-1.96875 -0.65625,-3.109375 -0.59375,-1.21875 -1.453125,-1.875 -1.546875,-1.875 -0.0625,0 -0.109375,0.046875 -0.109375,0.109375 0,0.03125 0,0.046875 0.1875,0.234375 0.984375,0.984375 1.546875,2.5625 1.546875,4.640625 0,1.71875 -0.359375,3.46875 -1.59375,4.71875 C 0.5625,2.34375 0.5625,2.359375 0.5625,2.390625 0.5625,2.453125 0.609375,2.5 0.671875,2.5 0.765625,2.5 1.671875,1.8125 2.25,0.546875 2.765625,-0.546875 2.875,-1.65625 2.875,-2.5 Z m 0,0"
             id="id-07b6b984-330e-4f5a-9561-66a3a411aa5f" />
        </symbol>
        <symbol
           overflow="visible"
           id="id-04530b68-fcb3-4178-8c19-fc6ef1cda02c">
          <path
             style="stroke:none"
             d=""
             id="id-5369f406-c083-4f09-a527-5f4e4cb9da32" />
        </symbol>
        <symbol
           overflow="visible"
           id="id-ca4a60a6-7f50-443f-bec3-9290dbdb92a7">
          <path
             style="stroke:none"
             d="m 2.71875,8.765625 c -0.140625,1.640625 -0.5,2.09375 -1.0625,2.09375 -0.125,0 -0.4375,-0.03125 -0.640625,-0.21875 0.296875,-0.03125 0.375,-0.265625 0.375,-0.40625 0,-0.28125 -0.21875,-0.421875 -0.40625,-0.421875 -0.203125,0 -0.421875,0.140625 -0.421875,0.4375 0,0.46875 0.5,0.828125 1.09375,0.828125 0.953125,0 1.421875,-0.875 1.640625,-1.765625 C 3.421875,8.796875 3.78125,5.890625 3.875,4.78125 L 4.0625,2.296875 C 4.203125,0.46875 4.53125,0.21875 4.984375,0.21875 c 0.09375,0 0.40625,0.015625 0.625,0.203125 C 5.328125,0.46875 5.25,0.703125 5.25,0.84375 5.25,1.125 5.46875,1.25 5.65625,1.25 5.859375,1.25 6.078125,1.125 6.078125,0.828125 6.078125,0.34375 5.578125,0 4.96875,0 c -0.9375,0 -1.328125,0.96875 -1.5,1.71875 -0.125,0.546875 -0.484375,3.359375 -0.5625,4.578125 z m 0,0"
             id="id-0e37b0d6-755d-40c4-8012-cbf3530241c1" />
        </symbol>
        <symbol
           overflow="visible"
           id="id-d47414d0-da0e-4d26-b9ea-dc6624b74d56">
          <path
             style="stroke:none"
             d=""
             id="id-92d0eb9f-451b-4671-b83c-6c98015bb791" />
        </symbol>
        <symbol
           overflow="visible"
           id="id-4473f5c7-5958-4bc3-8eb1-4c7f3caf461d">
          <path
             style="stroke:none"
             d="m 1.84375,-4.625 c 0,-0.015625 0.03125,-0.109375 0.03125,-0.109375 0,-0.046875 -0.03125,-0.109375 -0.125,-0.109375 -0.140625,0 -0.71875,0.0625 -0.890625,0.078125 -0.046875,0 -0.15625,0.015625 -0.15625,0.15625 0,0.09375 0.109375,0.09375 0.1875,0.09375 0.328125,0 0.328125,0.0625 0.328125,0.109375 0,0.046875 -0.0625,0.328125 -0.109375,0.484375 l -0.15625,0.640625 c -0.0625,0.25 -0.4375,1.765625 -0.453125,1.859375 -0.046875,0.171875 -0.046875,0.265625 -0.046875,0.34375 0,0.703125 0.453125,1.140625 1.03125,1.140625 0.875,0 1.796875,-0.9375 1.796875,-1.96875 0,-0.8125 -0.5625,-1.171875 -1.046875,-1.171875 -0.359375,0 -0.671875,0.203125 -0.875,0.390625 z m -0.359375,4.5 c -0.328125,0 -0.53125,-0.296875 -0.53125,-0.71875 0,-0.25 0.0625,-0.484375 0.265625,-1.28125 C 1.25,-2.25 1.25,-2.265625 1.390625,-2.421875 1.65625,-2.71875 1.96875,-2.875 2.21875,-2.875 c 0.265625,0 0.5,0.203125 0.5,0.671875 0,0.28125 -0.140625,1 -0.359375,1.40625 C 2.1875,-0.453125 1.84375,-0.125 1.484375,-0.125 Z m 0,0"
             id="id-e3b960d4-c585-4930-8b7e-1a5e9bb1f0f3" />
        </symbol>
        <symbol
           overflow="visible"
           id="id-33c462fa-4cbe-4814-9e3a-fbbba253a76f">
          <path
             style="stroke:none"
             d="m 2.9375,-2.65625 c -0.140625,-0.234375 -0.375,-0.421875 -0.71875,-0.421875 -0.890625,0 -1.796875,0.984375 -1.796875,1.984375 0,0.6875 0.453125,1.15625 1.0625,1.15625 0.375,0 0.703125,-0.203125 0.984375,-0.484375 C 2.59375,0 3,0.0625 3.1875,0.0625 c 0.25,0 0.421875,-0.140625 0.546875,-0.359375 0.15625,-0.28125 0.25,-0.671875 0.25,-0.703125 0,-0.09375 -0.09375,-0.09375 -0.109375,-0.09375 -0.109375,0 -0.109375,0.03125 -0.15625,0.21875 C 3.625,-0.53125 3.5,-0.125 3.203125,-0.125 3.03125,-0.125 2.96875,-0.28125 2.96875,-0.46875 c 0,-0.109375 0.0625,-0.375 0.109375,-0.546875 0.046875,-0.1875 0.125,-0.46875 0.15625,-0.625 L 3.375,-2.171875 C 3.421875,-2.359375 3.5,-2.6875 3.5,-2.71875 3.5,-2.875 3.375,-2.9375 3.265625,-2.9375 c -0.125,0 -0.28125,0.078125 -0.328125,0.28125 z M 2.5,-0.875 C 2.453125,-0.671875 2.296875,-0.53125 2.140625,-0.40625 2.078125,-0.34375 1.796875,-0.125 1.5,-0.125 c -0.265625,0 -0.515625,-0.1875 -0.515625,-0.671875 0,-0.375 0.203125,-1.140625 0.375,-1.421875 0.3125,-0.5625 0.671875,-0.65625 0.859375,-0.65625 0.484375,0 0.625,0.53125 0.625,0.609375 0,0.015625 -0.015625,0.078125 -0.015625,0.09375 z m 0,0"
             id="id-c103fc09-b196-4057-bc51-46c4fcd371a2" />
        </symbol>
      </g>
    </defs>
  </defs>
  <g
     inkscape:label="Layer 1"
     inkscape:groupmode="layer"
     id="layer1"
     transform="translate(-56.859013,-164.39678)">
    <g
       id="g8888">
      <path
         style="fill:#000000;fill-opacity:1;stroke:none;stroke-width:0.546596"
         d="m 73.110565,227.54591 c -0.102511,-0.20497 -0.256212,-0.35017 -0.503892,-0.35017 -0.631999,0 -1.306696,0.80282 -1.306696,1.59709 0,0.51244 0.29891,0.87113 0.717407,0.87113 0.110977,0 0.384319,-0.0257 0.708863,-0.40994 0.04272,0.23059 0.239136,0.40994 0.495348,0.40994 0.196438,0 0.316,-0.12804 0.409953,-0.29892 0.08545,-0.19642 0.162272,-0.52951 0.162272,-0.53805 0,-0.0598 -0.05119,-0.0598 -0.06839,-0.0598 -0.05119,0 -0.05979,0.0257 -0.07685,0.10251 -0.09391,0.35016 -0.187894,0.6747 -0.40994,0.6747 -0.15374,0 -0.162272,-0.14519 -0.162272,-0.24767 0,-0.11958 0.0079,-0.17082 0.06825,-0.40995 0.05979,-0.22206 0.06839,-0.28184 0.119574,-0.48682 l 0.196425,-0.76011 c 0.03413,-0.15372 0.03413,-0.16227 0.03413,-0.18789 0,-0.0939 -0.05979,-0.14518 -0.153727,-0.14518 -0.136651,0 -0.213514,0.11957 -0.230604,0.23913 z m -0.350152,1.40919 c -0.03413,0.10251 -0.03413,0.11098 -0.110977,0.20497 -0.239135,0.29892 -0.461195,0.38433 -0.614922,0.38433 -0.273302,0 -0.350166,-0.29892 -0.350166,-0.51244 0,-0.2733 0.170817,-0.93946 0.298923,-1.19567 0.170804,-0.316 0.40994,-0.52097 0.631999,-0.52097 0.350166,0 0.427029,0.4441 0.427029,0.47827 0,0.0341 -0.0079,0.0684 -0.01706,0.0939 z m 0,0"
         id="id-a2cd1b28-99a9-4873-9029-1f992f80daa5" />
      <path
         style="fill:#000000;fill-opacity:1;stroke:none;stroke-width:0.546596"
         d="m 136.76434,226.56809 c 0,0 0,-0.0598 -0.0683,-0.0598 -0.11958,0 -0.52099,0.0427 -0.66617,0.0598 -0.0427,0 -0.10251,0.009 -0.10251,0.10251 0,0.0682 0.0512,0.0682 0.13664,0.0682 0.25622,0 0.26475,0.0341 0.26475,0.0939 0,0.0341 -0.0427,0.22206 -0.0684,0.3331 l -0.45265,1.77644 c -0.0598,0.2733 -0.0855,0.36724 -0.0855,0.55513 0,0.51243 0.29038,0.85406 0.69179,0.85406 0.64054,0 1.31525,-0.81137 1.31525,-1.59708 0,-0.49536 -0.29038,-0.87115 -0.72595,-0.87115 -0.24768,0 -0.47827,0.16228 -0.64054,0.32455 z m -0.50389,2.05828 c 0.0257,-0.11957 0.0257,-0.12804 0.0769,-0.18789 0.26475,-0.35017 0.51243,-0.43558 0.65762,-0.43558 0.19644,0 0.34163,0.16227 0.34163,0.51244 0,0.32454 -0.17936,0.948 -0.28185,1.15298 -0.17934,0.36724 -0.42702,0.56367 -0.64054,0.56367 -0.18789,0 -0.36724,-0.14518 -0.36724,-0.54659 0,-0.11098 0,-0.21352 0.0854,-0.55514 z m 0,0"
         id="id-89c36fad-fabb-4595-b4ba-2ad843dab29f" />
      <path
         style="fill:none;stroke:#bdcdd4;stroke-width:0.529167;stroke-linecap:butt;stroke-linejoin:miter;stroke-miterlimit:4;stroke-dasharray:none;stroke-opacity:1"
         d="m 62.177079,164.39678 v 63.5"
         id="path1002" />
      <path
         style="fill:none;stroke:#bdcdd4;stroke-width:0.529167;stroke-linecap:butt;stroke-linejoin:miter;stroke-miterlimit:4;stroke-dasharray:none;stroke-opacity:1"
         d="M 56.885413,222.60511 H 136.26041"
         id="path1004" />
      <path
         style="fill:none;stroke:#364e59;stroke-width:0.79375;stroke-linecap:butt;stroke-linejoin:miter;stroke-miterlimit:4;stroke-dasharray:none;stroke-opacity:1"
         d="m 56.885413,217.31345 c 0,0 79.374997,5.29166 79.374997,-52.91667"
         id="path1006"
         sodipodi:nodetypes="cc" />
      <path
         style="fill:none;stroke:#999999;stroke-width:0.264583;stroke-linecap:butt;stroke-linejoin:miter;stroke-miterlimit:4;stroke-dasharray:0.264583, 0.529167;stroke-dashoffset:0;stroke-opacity:1"
         d="m 136.26041,171.01137 v 54.23958"
         id="path1330"
         sodipodi:nodetypes="cc" />
      <path
         style="fill:none;stroke:#999999;stroke-width:0.264583;stroke-linecap:butt;stroke-linejoin:miter;stroke-miterlimit:4;stroke-dasharray:0.264583, 0.529167;stroke-dashoffset:0;stroke-opacity:1"
         d="m 72.760413,217.31345 v 5.29166 2.64584"
         id="path1332" />
      <path
         style="fill:none;stroke:#000000;stroke-width:0.264583px;stroke-linecap:butt;stroke-linejoin:miter;stroke-opacity:1"
         d="m 72.760413,222.60512 h 3.96875 v -5.82084 h -3.96875 v 5.82084"
         id="path1784"
         sodipodi:nodetypes="ccccc" />
      <path
         style="fill:none;stroke:#000000;stroke-width:0.264583px;stroke-linecap:butt;stroke-linejoin:miter;stroke-opacity:1"
         d="m 76.729163,222.60512 h 3.96875 v -6.61459 h -3.96875 v 6.61459"
         id="path2256"
         sodipodi:nodetypes="ccccc" />
      <path
         style="fill:none;stroke:#000000;stroke-width:0.264583px;stroke-linecap:butt;stroke-linejoin:miter;stroke-opacity:1"
         d="m 80.697913,222.60512 h 3.96875 v -7.14375 h -3.96875 v 7.14375"
         id="path2433"
         sodipodi:nodetypes="ccccc" />
      <path
         style="fill:none;stroke:#000000;stroke-width:0.264583px;stroke-linecap:butt;stroke-linejoin:miter;stroke-opacity:1"
         d="m 84.666663,222.60512 h 3.96875 v -7.9375 h -3.96875 v 7.9375"
         id="path2610"
         sodipodi:nodetypes="ccccc" />
      <path
         style="fill:none;stroke:#000000;stroke-width:0.264583px;stroke-linecap:butt;stroke-linejoin:miter;stroke-opacity:1"
         d="m 88.635413,222.60512 h 3.96875 v -8.99584 h -3.96875 v 8.99584"
         id="path2865"
         sodipodi:nodetypes="ccccc" />
      <path
         style="fill:none;stroke:#000000;stroke-width:0.264583px;stroke-linecap:butt;stroke-linejoin:miter;stroke-opacity:1"
         d="m 92.604163,222.60512 h 3.96875 v -10.05417 h -3.96875 v 10.05417"
         id="path3042"
         sodipodi:nodetypes="ccccc" />
      <path
         style="fill:none;stroke:#000000;stroke-width:0.264583px;stroke-linecap:butt;stroke-linejoin:miter;stroke-opacity:1"
         d="m 96.572913,222.60512 h 3.968757 v -11.37709 h -3.968757 v 11.37709"
         id="path3333"
         sodipodi:nodetypes="ccccc" />
      <path
         style="fill:none;stroke:#000000;stroke-width:0.264583px;stroke-linecap:butt;stroke-linejoin:miter;stroke-opacity:1"
         d="m 100.54166,222.60512 h 3.96876 v -12.96459 h -3.96876 v 12.96459"
         id="path3586"
         sodipodi:nodetypes="ccccc" />
      <path
         style="fill:none;stroke:#000000;stroke-width:0.264583px;stroke-linecap:butt;stroke-linejoin:miter;stroke-opacity:1"
         d="m 104.51041,222.60512 h 3.96876 v -14.55209 h -3.96876 v 14.55209"
         id="path3763"
         sodipodi:nodetypes="ccccc" />
      <path
         style="fill:none;stroke:#000000;stroke-width:0.264583px;stroke-linecap:butt;stroke-linejoin:miter;stroke-opacity:1"
         d="m 108.47916,222.60512 h 3.96876 v -16.66875 h -3.96876 v 16.66875"
         id="path3978"
         sodipodi:nodetypes="ccccc" />
      <path
         style="fill:none;stroke:#000000;stroke-width:0.264583px;stroke-linecap:butt;stroke-linejoin:miter;stroke-opacity:1"
         d="m 112.44791,222.60512 h 3.96876 v -19.31459 h -3.96876 v 19.31459"
         id="path4231"
         sodipodi:nodetypes="ccccc" />
      <path
         style="fill:none;stroke:#000000;stroke-width:0.264583px;stroke-linecap:butt;stroke-linejoin:miter;stroke-opacity:1"
         d="m 116.41666,222.60512 h 3.96876 v -22.225 h -3.96876 v 22.225"
         id="path4446"
         sodipodi:nodetypes="ccccc" />
      <path
         style="fill:none;stroke:#000000;stroke-width:0.264583px;stroke-linecap:butt;stroke-linejoin:miter;stroke-opacity:1"
         d="m 120.38541,222.60512 h 3.96876 v -26.19375 h -3.96876 v 26.19375"
         id="path4661"
         sodipodi:nodetypes="ccccc" />
      <path
         style="fill:none;stroke:#000000;stroke-width:0.264583px;stroke-linecap:butt;stroke-linejoin:miter;stroke-opacity:1"
         d="m 124.35416,222.60512 h 3.96876 v -31.22084 h -3.96876 v 31.22084"
         id="path4838"
         sodipodi:nodetypes="ccccc" />
      <path
         style="fill:none;stroke:#000000;stroke-width:0.264583px;stroke-linecap:butt;stroke-linejoin:miter;stroke-opacity:1"
         d="m 128.32291,222.60512 h 3.96876 v -38.36459 h -3.96876 v 38.36459"
         id="path5053"
         sodipodi:nodetypes="ccccc" />
      <path
         style="fill:none;stroke:#000000;stroke-width:0.264583px;stroke-linecap:butt;stroke-linejoin:miter;stroke-opacity:1"
         d="m 132.29166,222.60512 h 3.70416 v -51.85834 h -3.70416 v 51.85834"
         id="path6118"
         sodipodi:nodetypes="ccccc" />
      <path
         id="path6525"
         style="opacity:0.95;fill:#ffb1b1;fill-opacity:1;stroke:#ffb0b0;stroke-width:0.827717;stroke-linecap:round;stroke-linejoin:round;stroke-miterlimit:4;stroke-dasharray:none;stroke-opacity:1"
         d="m 74.199219,199.14453 c -0.185216,0.005 -3.064555,0.30344 -6.398438,0.66406 -3.333884,0.36061 -6.314354,0.65907 -6.623047,0.66407 -0.430465,0.007 -0.5625,2.15521 -0.5625,9.21484 v 9.20312 h 6.960938 6.958984 v -9.87695 c 0,-5.433 -0.150722,-9.87414 -0.335937,-9.86914 z"
         transform="matrix(0.26458333,0,0,0.26458333,56.859013,164.39678)" />
      <path
         style="opacity:0.95;fill:#ffb1b1;fill-opacity:1;stroke:#ffb0b0;stroke-width:0.827717;stroke-linecap:round;stroke-linejoin:round;stroke-miterlimit:4;stroke-dasharray:none;stroke-opacity:1"
         d="m 75.882328,209.02171 v -9.86962 l 1.010268,-0.21391 c 0.555647,-0.11766 2.828749,-0.42716 5.051338,-0.68779 2.222589,-0.26062 4.798772,-0.59008 5.724851,-0.73212 l 1.683779,-0.25825 v 10.81566 10.81565 h -6.735118 -6.735118 z"
         id="path6871"
         transform="matrix(0.26458333,0,0,0.26458333,56.859013,164.39678)" />
      <path
         style="opacity:0.95;fill:#ffb1b1;fill-opacity:1;stroke:#ffb0b0;stroke-width:0.827717;stroke-linecap:round;stroke-linejoin:round;stroke-miterlimit:4;stroke-dasharray:none;stroke-opacity:1"
         d="m 90.699588,207.9917 v -10.89963 l 5.500346,-0.82289 c 3.02519,-0.45259 6.055996,-0.92743 6.735116,-1.0552 l 1.23477,-0.23232 v 11.95484 11.95483 h -6.735115 -6.735117 z"
         id="path6910"
         transform="matrix(0.26458333,0,0,0.26458333,56.859013,164.39678)" />
      <path
         style="opacity:0.95;fill:#ffb1b1;fill-opacity:1;stroke:#ffb0b0;stroke-width:0.827717;stroke-linecap:round;stroke-linejoin:round;stroke-miterlimit:4;stroke-dasharray:none;stroke-opacity:1"
         d="m 105.96585,206.79995 v -12.09138 l 2.3573,-0.45896 c 1.29651,-0.25244 4.32731,-0.84564 6.73511,-1.31823 l 4.37783,-0.85926 v 13.4096 13.40961 h -6.73512 -6.73512 z"
         id="path6949"
         transform="matrix(0.26458333,0,0,0.26458333,56.859013,164.39678)" />
      <path
         style="opacity:0.95;fill:#ffb1b1;fill-opacity:1;stroke:#ffb0b0;stroke-width:0.827717;stroke-linecap:round;stroke-linejoin:round;stroke-miterlimit:4;stroke-dasharray:none;stroke-opacity:1"
         d="m 120.78419,205.30884 0.001,-13.58248 5.72377,-1.29936 c 3.14808,-0.71464 6.1784,-1.39487 6.73404,-1.51161 l 1.01027,-0.21227 v 15.0941 15.09411 h -6.73512 -6.73512 l 0.001,-13.58249 z"
         id="path6988"
         transform="matrix(0.26458333,0,0,0.26458333,56.859013,164.39678)" />
      <path
         style="opacity:0.95;fill:#ffb1b1;fill-opacity:1;stroke:#ffb0b0;stroke-width:0.827717;stroke-linecap:round;stroke-linejoin:round;stroke-miterlimit:4;stroke-dasharray:none;stroke-opacity:1"
         d="m 135.60037,203.63761 v -15.25373 l 2.35729,-0.65345 c 1.29651,-0.35941 4.2138,-1.17326 6.48286,-1.80858 2.26906,-0.63531 4.34011,-1.15512 4.60233,-1.15512 0.32799,0 0.47677,5.32445 0.47677,17.0623 v 17.0623 H 142.56 135.60037 Z"
         id="path7027"
         transform="matrix(0.26458333,0,0,0.26458333,56.859013,164.39678)" />
      <path
         style="opacity:0.95;fill:#ffb1b1;fill-opacity:1;stroke:#ffb0b0;stroke-width:0.827717;stroke-linecap:round;stroke-linejoin:round;stroke-miterlimit:4;stroke-dasharray:none;stroke-opacity:1"
         d="m 150.86664,201.48175 v -17.40959 l 6.17386,-1.95241 c 3.39562,-1.07382 6.42642,-2.04568 6.73512,-2.15967 0.44359,-0.16381 0.56126,3.89538 0.56126,19.36199 v 19.56926 h -6.73512 -6.73512 z"
         id="path7066"
         transform="matrix(0.26458333,0,0,0.26458333,56.859013,164.39678)" />
      <path
         style="opacity:0.95;fill:#ffb1b1;fill-opacity:1;stroke:#ffb0b0;stroke-width:0.449008;stroke-linecap:round;stroke-linejoin:round;stroke-dasharray:0.449008, 0.898016;stroke-opacity:1"
         d="m 165.79148,199.05365 0.11692,-19.83768 6.28611,-2.37615 c 3.45736,-1.30689 6.43765,-2.38158 6.62287,-2.38821 0.18522,-0.007 0.33676,9.98959 0.33676,22.21383 v 22.22589 h -6.73979 -6.73979 z"
         id="path7105"
         transform="matrix(0.26458333,0,0,0.26458333,56.859013,164.39678)" />
      <path
         id="path7144"
         style="opacity:0.95;fill:#ffb1b1;fill-opacity:1;stroke:#ffb0b0;stroke-width:0.827717;stroke-linecap:round;stroke-linejoin:round;stroke-miterlimit:4;stroke-dasharray:none;stroke-opacity:1"
         d="m 194.125,167.70508 c -0.16256,0 -2.03253,0.79322 -4.1543,1.76367 -2.12177,0.97046 -5.01946,2.27338 -6.43945,2.89453 l -2.58203,1.12891 v 0.20117 22.49805 0.10156 22.59765 h 6.73633 0.0644 6.66992 0.13086 l -0.13086,-11.64648 v -13.94531 c 0,-14.07639 -0.13236,-25.59375 -0.29492,-25.59375 z m -15.62891,7.31836 c -0.89927,0.003 -11.53424,3.81462 -12.08007,4.34961 -0.21518,0.2109 -0.42259,9.18923 -0.45899,19.95117 l -0.0644,19.5664 h 6.68359 6.68555 l -0.2461,-21.81835 c -0.13536,-12.00075 -0.3438,-21.91802 -0.46289,-22.03711 -0.008,-0.008 -0.0276,-0.0118 -0.0566,-0.0117 z"
         transform="matrix(0.26458333,0,0,0.26458333,56.859013,164.39678)" />
      <path
         style="opacity:0.95;fill:#ffb1b1;fill-opacity:1;stroke:#ffb0b0;stroke-width:0.827717;stroke-linecap:round;stroke-linejoin:round;stroke-miterlimit:4;stroke-dasharray:none;stroke-opacity:1"
         d="m 165.85616,199.32862 c 0.0993,-12.23198 0.32723,-19.73106 0.60814,-20.01197 0.24709,-0.24709 0.72823,-0.50523 1.0692,-0.57365 0.34097,-0.0684 1.12508,-0.32824 1.74246,-0.57738 4.58486,-1.85022 9.04595,-3.36094 9.26826,-3.13863 0.1463,0.1463 0.36889,10.07562 0.49466,22.06517 l 0.22866,21.79917 h -6.78513 -6.78514 z"
         id="path7263"
         transform="matrix(0.26458333,0,0,0.26458333,56.859013,164.39678)" />
      <path
         style="opacity:0.95;fill:#ffb1b1;fill-opacity:1;stroke:#ffb0b0;stroke-width:0.827717;stroke-linecap:round;stroke-linejoin:round;stroke-miterlimit:4;stroke-dasharray:none;stroke-opacity:1"
         d="m 195.76743,192.85452 v -26.03681 l 3.1883,-1.6056 c 1.75357,-0.88309 4.78437,-2.48845 6.73512,-3.56749 l 3.54681,-1.96188 v 29.6043 29.60429 h -6.73512 -6.73511 z"
         id="path7302"
         transform="matrix(0.26458333,0,0,0.26458333,56.859013,164.39678)" />
      <path
         style="opacity:0.95;fill:#ffb1b1;fill-opacity:1;stroke:#ffb0b0;stroke-width:0.827717;stroke-linecap:round;stroke-linejoin:round;stroke-miterlimit:4;stroke-dasharray:none;stroke-opacity:1"
         d="m 211.03369,188.79675 v -30.09458 l 2.06208,-1.22372 c 1.13414,-0.67304 3.91238,-2.41103 6.17386,-3.86219 2.26148,-1.45117 4.36435,-2.73562 4.67304,-2.85434 0.44598,-0.17153 0.56126,6.80288 0.56126,33.95678 v 34.17263 h -6.73512 -6.73512 z"
         id="path7341"
         transform="matrix(0.26458333,0,0,0.26458333,56.859013,164.39678)" />
      <path
         style="opacity:0.95;fill:#ffb1b1;fill-opacity:1;stroke:#ffb0b0;stroke-width:0.827717;stroke-linecap:round;stroke-linejoin:round;stroke-miterlimit:4;stroke-dasharray:none;stroke-opacity:1"
         d="m 225.85095,184.13264 v -34.7587 l 3.03081,-2.13283 c 1.66694,-1.17305 4.44517,-3.24485 6.17385,-4.60399 1.72868,-1.35914 3.39563,-2.66444 3.70432,-2.90065 0.44802,-0.34283 0.56126,7.59923 0.56126,39.36269 v 39.79217 h -6.73512 -6.73512 z"
         id="path7380"
         transform="matrix(0.26458333,0,0,0.26458333,56.859013,164.39678)" />
      <path
         style="opacity:0.95;fill:#ffb1b1;fill-opacity:1;stroke:#ffb0b0;stroke-width:0.827717;stroke-linecap:round;stroke-linejoin:round;stroke-miterlimit:4;stroke-dasharray:none;stroke-opacity:1"
         d="m 240.66821,178.55635 v -40.33498 l 3.47981,-3.09142 c 1.9139,-1.70028 5.04573,-4.59815 6.95963,-6.4397 l 3.47981,-3.34828 v 46.77468 46.77468 h -6.95963 -6.95962 z"
         id="path7419"
         transform="matrix(0.26458333,0,0,0.26458333,56.859013,164.39678)" />
      <path
         style="opacity:0.95;fill:#ffb1b1;fill-opacity:1;stroke:#ffb0b0;stroke-width:0.827717;stroke-linecap:round;stroke-linejoin:round;stroke-miterlimit:4;stroke-dasharray:none;stroke-opacity:1"
         d="m 255.93448,171.40034 v -47.49099 l 2.96979,-3.35915 c 1.63338,-1.84753 4.31059,-5.05242 5.94935,-7.12198 1.63876,-2.06955 3.32644,-4.19111 3.75039,-4.71458 0.72943,-0.90063 0.77163,2.0328 0.78577,54.61297 l 0.0149,55.56472 h -6.73512 -6.73512 z"
         id="path7458"
         transform="matrix(0.26458333,0,0,0.26458333,56.859013,164.39678)" />
      <path
         style="opacity:0.95;fill:#ffb1b1;fill-opacity:1;stroke:#ffb0b0;stroke-width:0.827717;stroke-linecap:round;stroke-linejoin:round;stroke-miterlimit:4;stroke-dasharray:none;stroke-opacity:1"
         d="M 270.75174,162.29912 V 105.7069 l 2.61121,-3.91159 c 3.49197,-5.230985 5.59003,-8.753853 8.45162,-14.191166 l 2.38813,-4.53769 0.01,67.912436 0.01,67.91244 h -6.73511 -6.73512 z"
         id="path7497"
         transform="matrix(0.26458333,0,0,0.26458333,56.859013,164.39678)" />
      <path
         style="opacity:0.95;fill:#ffb1b1;fill-opacity:1;stroke:#ffb0b0;stroke-width:0.827717;stroke-linecap:round;stroke-linejoin:round;stroke-miterlimit:4;stroke-dasharray:none;stroke-opacity:1"
         d="M 286.01801,148.88796 V 78.88459 l 1.36693,-3.046632 c 3.44453,-7.677209 7.13029,-19.228307 9.65661,-30.26366 l 1.49048,-6.510614 0.0291,89.913826 0.0291,89.91382 h -6.28611 -6.28611 z"
         id="path7536"
         transform="matrix(0.26458333,0,0,0.26458333,56.859013,164.39678)" />
      <path
         style="opacity:0.95;fill:#bdcdd4;fill-opacity:1;stroke:#bdcdd4;stroke-width:0.158748;stroke-linecap:round;stroke-linejoin:round;stroke-dasharray:0.158748, 0.317496;stroke-opacity:1"
         d="m 120.64867,187.48168 v -0.87311 l 3.84965,0.0125 c 2.1173,0.007 3.7782,0.0406 3.69089,0.075 -0.22559,0.0888 -7.22906,1.6587 -7.39947,1.6587 -0.0776,0 -0.14107,-0.3929 -0.14107,-0.87312 z"
         id="path7826"
         transform="matrix(0.26458333,0,0,0.26458333,56.859013,164.39678)" />
      <path
         style="opacity:0.95;fill:#bdcdd4;fill-opacity:1;stroke:#bdcdd4;stroke-width:0.158748;stroke-linecap:round;stroke-linejoin:round;stroke-dasharray:0.158748, 0.317496;stroke-opacity:1"
         d="m 135.72975,183.76809 v -1.12823 l 4.0084,0.0137 c 2.71015,0.009 3.85414,0.0612 3.53215,0.16036 -0.26194,0.0807 -1.97642,0.54847 -3.80996,1.0395 -1.83354,0.49102 -3.42301,0.92656 -3.53215,0.96785 -0.14718,0.0557 -0.19844,-0.21635 -0.19844,-1.05313 z"
         id="path8168"
         transform="matrix(0.26458333,0,0,0.26458333,56.859013,164.39678)" />
      <path
         style="opacity:0.95;fill:#bdcdd4;fill-opacity:1;stroke:#bdcdd4;stroke-width:0.056126;stroke-linecap:round;stroke-linejoin:round;stroke-dasharray:0.056126, 0.112252;stroke-opacity:1"
         d="m 105.6291,190.97311 v -0.45346 l 2.37132,0.007 c 2.71397,0.008 2.73653,-0.0456 -0.21047,0.4951 -1.01869,0.18689 -1.92161,0.35454 -2.0065,0.37255 l -0.15435,0.0327 z"
         id="path8246"
         transform="matrix(0.26458333,0,0,0.26458333,56.859013,164.39678)" />
      <path
         style="opacity:0.95;fill:#bdcdd4;fill-opacity:1;stroke:#bdcdd4;stroke-width:0.0140315;stroke-linecap:round;stroke-linejoin:round;stroke-dasharray:0.0140315, 0.028063;stroke-opacity:1"
         d="m 90.601367,193.67867 v -0.17733 l 1.203201,0.001 1.203201,0.001 -0.357803,0.0543 c -0.525969,0.0798 -1.874407,0.27717 -1.967918,0.28811 l -0.08068,0.009 z"
         id="path8285"
         transform="matrix(0.26458333,0,0,0.26458333,56.859013,164.39678)" />
      <path
         style="opacity:0.95;fill:#bdcdd4;fill-opacity:1;stroke:#bdcdd4;stroke-width:0.0140315;stroke-linecap:round;stroke-linejoin:round;stroke-dasharray:0.0140315, 0.028063;stroke-opacity:1"
         d="m 75.601698,195.64114 v -0.1333 l 1.161107,0.002 1.161106,0.002 -0.210472,0.0262 c -0.331954,0.0413 -2.052904,0.23722 -2.083855,0.23722 -0.02587,0 -0.02789,-0.01 -0.02789,-0.1333 z"
         id="path8324"
         transform="matrix(0.26458333,0,0,0.26458333,56.859013,164.39678)" />
      <path
         style="opacity:0.95;fill:#bdcdd4;fill-opacity:1;stroke:#bdcdd4;stroke-width:0.112252;stroke-linecap:round;stroke-linejoin:round;stroke-dasharray:0.112252, 0.224504;stroke-opacity:1"
         d="m 150.64214,179.09801 v -1.57153 l 4.91102,0.008 4.91102,0.008 -0.95414,0.33306 c -1.1498,0.40135 -8.67514,2.7931 -8.78815,2.7931 -0.0439,0 -0.0797,-0.70719 -0.0797,-1.57153 z"
         id="path8363"
         transform="matrix(0.26458333,0,0,0.26458333,56.859013,164.39678)" />
      <path
         style="opacity:0.95;fill:#bdcdd4;fill-opacity:1;stroke:#bdcdd4;stroke-width:0.112252;stroke-linecap:round;stroke-linejoin:round;stroke-dasharray:0.112252, 0.224504;stroke-opacity:1"
         d="m 165.6839,173.65379 v -2.07666 l 5.47228,0.004 c 4.64606,0.004 5.42067,0.0269 5.13041,0.15331 -1.13107,0.49269 -10.39012,3.99562 -10.56134,3.99562 -0.0227,0 -0.0413,-0.9345 -0.0413,-2.07666 z"
         id="path8402"
         transform="matrix(0.26458333,0,0,0.26458333,56.859013,164.39678)" />
      <path
         style="opacity:0.95;fill:#bdcdd4;fill-opacity:1;stroke:#bdcdd4;stroke-width:0.112252;stroke-linecap:round;stroke-linejoin:round;stroke-dasharray:0.112252, 0.224504;stroke-opacity:1"
         d="m 180.61341,167.70444 v -2.18892 h 5.01392 c 2.75766,0 4.99288,0.0189 4.96715,0.042 -0.19596,0.17612 -9.66922,4.33579 -9.87436,4.33579 -0.0638,0 -0.10671,-0.88021 -0.10671,-2.18891 z"
         id="path8441"
         transform="matrix(0.26458333,0,0,0.26458333,56.859013,164.39678)" />
      <path
         style="opacity:0.95;fill:#bdcdd4;fill-opacity:1;stroke:#bdcdd4;stroke-width:0.112252;stroke-linecap:round;stroke-linejoin:round;stroke-dasharray:0.112252, 0.224504;stroke-opacity:1"
         d="m 195.65517,160.30337 v -2.75774 l 5.30391,4.2e-4 c 5.23999,4.2e-4 5.29973,0.003 4.95766,0.21156 -1.16688,0.71156 -9.54572,5.08747 -10.009,5.22728 l -0.25257,0.0762 z"
         id="path8480"
         transform="matrix(0.26458333,0,0,0.26458333,56.859013,164.39678)" />
      <path
         style="opacity:0.95;fill:#bdcdd4;fill-opacity:1;stroke:#bdcdd4;stroke-width:0.112252;stroke-linecap:round;stroke-linejoin:round;stroke-dasharray:0.112252, 0.224504;stroke-opacity:1"
         d="m 210.69694,151.25952 v -3.70431 h 5.91568 c 3.54515,0 5.87294,0.0408 5.80904,0.10186 -0.54771,0.52318 -11.37563,7.30677 -11.66303,7.30677 -0.0339,0 -0.0617,-1.66694 -0.0617,-3.70432 z"
         id="path8519"
         transform="matrix(0.26458333,0,0,0.26458333,56.859013,164.39678)" />
      <path
         style="opacity:0.95;fill:#bdcdd4;fill-opacity:1;stroke:#bdcdd4;stroke-width:0.112252;stroke-linecap:round;stroke-linejoin:round;stroke-dasharray:0.112252, 0.224504;stroke-opacity:1"
         d="m 225.62645,140.99509 v -4.44057 h 5.85955 c 3.22276,0 5.81157,0.0422 5.75292,0.0937 -0.88832,0.78051 -5.59859,4.44865 -7.68365,5.98367 -1.43172,1.05403 -3.57095,2.58987 -3.78851,2.71992 -0.1113,0.0665 -0.14031,-0.83435 -0.14031,-4.35671 z"
         id="path8558"
         transform="matrix(0.26458333,0,0,0.26458333,56.859013,164.39678)" />
      <path
         style="opacity:0.95;fill:#bdcdd4;fill-opacity:1;stroke:#bdcdd4;stroke-width:0.112252;stroke-linecap:round;stroke-linejoin:round;stroke-dasharray:0.112252, 0.224504;stroke-opacity:1"
         d="m 240.66821,127.64355 v -6.1308 h 6.40869 6.40869 l -1.58798,1.65572 c -2.6168,2.72842 -6.55729,6.45895 -10.80366,10.22799 l -0.42574,0.37788 z"
         id="path8597"
         transform="matrix(0.26458333,0,0,0.26458333,56.859013,164.39678)" />
      <path
         style="opacity:0.95;fill:#bdcdd4;fill-opacity:1;stroke:#bdcdd4;stroke-width:0.112252;stroke-linecap:round;stroke-linejoin:round;stroke-dasharray:0.112252, 0.224504;stroke-opacity:1"
         d="m 255.70998,110.79269 v -8.25052 h 6.56674 c 3.6117,0 6.56674,0.0269 6.56674,0.0599 0,0.19786 -4.1942,5.84643 -6.29464,8.47737 -2.13973,2.68013 -6.64982,7.9638 -6.79784,7.9638 -0.0225,0 -0.041,-3.71273 -0.041,-8.25052 z"
         id="path8636"
         transform="matrix(0.26458333,0,0,0.26458333,56.859013,164.39678)" />
      <path
         style="opacity:0.95;fill:#bdcdd4;fill-opacity:1;stroke:#bdcdd4;stroke-width:0.112252;stroke-linecap:round;stroke-linejoin:round;stroke-dasharray:0.112252, 0.224504;stroke-opacity:1"
         d="m 270.63949,87.805858 v -12.20416 h 6.62286 c 3.64258,0 6.62287,0.01907 6.62287,0.04237 0,0.151839 -2.06682,4.57037 -3.36689,7.197879 -2.75675,5.571544 -5.69824,10.727007 -9.1888,16.104915 l -0.69004,1.063158 z"
         id="path8675"
         transform="matrix(0.26458333,0,0,0.26458333,56.859013,164.39678)" />
      <path
         style="opacity:0.95;fill:#bdcdd4;fill-opacity:1;stroke:#bdcdd4;stroke-width:0.112252;stroke-linecap:round;stroke-linejoin:round;stroke-dasharray:0.112252, 0.224504;stroke-opacity:1"
         d="M 285.68125,47.894172 V 24.527054 h 5.77392 5.77392 l -0.0501,0.364819 c -0.0276,0.200651 -0.17728,1.375087 -0.33272,2.609858 -1.61831,12.85558 -4.57208,25.567258 -8.6076,37.043149 -0.78045,2.219367 -2.422,6.579127 -2.51127,6.669638 -0.0254,0.02572 -0.0461,-10.468432 -0.0461,-23.320346 z"
         id="path8714"
         transform="matrix(0.26458333,0,0,0.26458333,56.859013,164.39678)" />
    </g>
  </g>
</svg>
