<?xml version="1.0" encoding="UTF-8" standalone="no"?>
<!-- Created with Inkscape (http://www.inkscape.org/) -->

<svg
   width="80.870224mm"
   height="65.954651mm"
   viewBox="0 0 80.870224 65.954651"
   version="1.1"
   id="svg5"
   sodipodi:docname="rectify_2.svg"
   inkscape:version="1.1 (c4e8f9e, 2021-05-24)"
   xmlns:inkscape="http://www.inkscape.org/namespaces/inkscape"
   xmlns:sodipodi="http://sodipodi.sourceforge.net/DTD/sodipodi-0.dtd"
   xmlns="http://www.w3.org/2000/svg"
   xmlns:svg="http://www.w3.org/2000/svg">
  <sodipodi:namedview
     id="namedview7"
     pagecolor="#ffffff"
     bordercolor="#666666"
     borderopacity="1.0"
     inkscape:pageshadow="2"
     inkscape:pageopacity="0.0"
     inkscape:pagecheckerboard="0"
     inkscape:document-units="mm"
     showgrid="false"
     inkscape:zoom="1.5748205"
     inkscape:cx="152.08083"
     inkscape:cy="90.486505"
     inkscape:window-width="1312"
     inkscape:window-height="847"
     inkscape:window-x="1970"
     inkscape:window-y="78"
     inkscape:window-maximized="0"
     inkscape:current-layer="layer1">
    <inkscape:grid
       type="xygrid"
       id="grid824"
       originx="-111.0986"
       originy="-248.70833" />
  </sodipodi:namedview>
  <defs
     id="defs2">
    <defs
       id="id-e4f956ca-4534-4969-a69a-ab3b4a7a2984">
      <g
         id="id-b126dd07-a7f5-472d-a96d-02e8d031f3a0">
        <symbol
           overflow="visible"
           id="id-a5d862e5-656b-447c-9517-c5daec8b038d">
          <path
             style="stroke:none"
             d=""
             id="id-e95719a2-5084-479d-b934-0be07bac8e53" />
        </symbol>
        <symbol
           overflow="visible"
           id="id-bbe95856-babb-4c31-8756-1aac751b05ca">
          <path
             style="stroke:none"
             d="m 4.84375,-3.796875 c 0.046875,-0.140625 0.046875,-0.15625 0.046875,-0.234375 0,-0.171875 -0.140625,-0.265625 -0.296875,-0.265625 -0.09375,0 -0.25,0.0625 -0.34375,0.203125 -0.015625,0.0625 -0.109375,0.359375 -0.140625,0.546875 -0.078125,0.25 -0.140625,0.53125 -0.203125,0.796875 l -0.453125,1.796875 c -0.03125,0.140625 -0.46875,0.84375 -1.125,0.84375 -0.5,0 -0.609375,-0.4375 -0.609375,-0.8125 C 1.71875,-1.375 1.890625,-2 2.21875,-2.875 2.375,-3.28125 2.421875,-3.390625 2.421875,-3.59375 c 0,-0.4375 -0.3125,-0.8125 -0.8125,-0.8125 -0.953125,0 -1.3125,1.453125 -1.3125,1.53125 0,0.109375 0.09375,0.109375 0.109375,0.109375 0.109375,0 0.109375,-0.03125 0.15625,-0.1875 0.28125,-0.9375 0.671875,-1.234375 1.015625,-1.234375 0.078125,0 0.25,0 0.25,0.3125 0,0.25 -0.109375,0.515625 -0.171875,0.703125 -0.40625,1.0625 -0.578125,1.625 -0.578125,2.09375 0,0.890625 0.625,1.1875 1.21875,1.1875 0.390625,0 0.71875,-0.171875 1,-0.453125 -0.125,0.515625 -0.25,1.015625 -0.640625,1.546875 -0.265625,0.328125 -0.640625,0.625 -1.09375,0.625 -0.140625,0 -0.59375,-0.03125 -0.765625,-0.421875 0.15625,0 0.296875,0 0.421875,-0.125 C 1.328125,1.203125 1.421875,1.0625 1.421875,0.875 1.421875,0.5625 1.15625,0.53125 1.0625,0.53125 0.828125,0.53125 0.5,0.6875 0.5,1.171875 c 0,0.5 0.4375,0.875 1.0625,0.875 1.015625,0 2.046875,-0.90625 2.328125,-2.03125 z m 0,0"
             id="id-7a0772a7-4263-424e-ac33-8f08e9ebe0ae" />
        </symbol>
        <symbol
           overflow="visible"
           id="id-0fca9fee-6f70-4681-93f4-1712f49aa4f6">
          <path
             style="stroke:none"
             d="m 3.65625,-3.984375 h 0.859375 c 0.203125,0 0.296875,0 0.296875,-0.203125 0,-0.109375 -0.09375,-0.109375 -0.265625,-0.109375 H 3.71875 L 3.921875,-5.4375 c 0.046875,-0.203125 0.1875,-0.90625 0.25,-1.03125 0.078125,-0.1875 0.25,-0.34375 0.46875,-0.34375 0.03125,0 0.296875,0 0.484375,0.1875 -0.4375,0.03125 -0.546875,0.390625 -0.546875,0.53125 0,0.234375 0.1875,0.359375 0.375,0.359375 C 5.21875,-5.734375 5.5,-5.96875 5.5,-6.34375 c 0,-0.453125 -0.453125,-0.6875 -0.859375,-0.6875 -0.34375,0 -0.96875,0.1875 -1.265625,1.171875 -0.0625,0.203125 -0.09375,0.3125 -0.328125,1.5625 h -0.6875 c -0.203125,0 -0.3125,0 -0.3125,0.1875 0,0.125 0.09375,0.125 0.28125,0.125 h 0.65625 L 2.25,-0.046875 c -0.1875,0.96875 -0.359375,1.875 -0.875,1.875 -0.046875,0 -0.28125,0 -0.484375,-0.1875 C 1.359375,1.609375 1.453125,1.25 1.453125,1.109375 1.453125,0.875 1.265625,0.75 1.078125,0.75 0.8125,0.75 0.53125,0.984375 0.53125,1.359375 c 0,0.4375 0.4375,0.6875 0.84375,0.6875 0.546875,0 0.953125,-0.59375 1.125,-0.96875 0.328125,-0.625 0.546875,-1.828125 0.5625,-1.90625 z m 0,0"
             id="id-f8918443-14b6-4d02-a8c7-8e6a6df97a48" />
        </symbol>
        <symbol
           overflow="visible"
           id="id-17800c9e-a4f8-43d8-be0c-325621fd411d">
          <path
             style="stroke:none"
             d="M 3.328125,-3.015625 C 3.390625,-3.265625 3.625,-4.1875 4.3125,-4.1875 c 0.046875,0 0.296875,0 0.5,0.125 C 4.53125,-4 4.34375,-3.765625 4.34375,-3.515625 c 0,0.15625 0.109375,0.34375 0.375,0.34375 0.21875,0 0.53125,-0.171875 0.53125,-0.578125 0,-0.515625 -0.578125,-0.65625 -0.921875,-0.65625 -0.578125,0 -0.921875,0.53125 -1.046875,0.75 -0.25,-0.65625 -0.78125,-0.75 -1.078125,-0.75 -1.03125,0 -1.609375,1.28125 -1.609375,1.53125 0,0.109375 0.109375,0.109375 0.125,0.109375 0.078125,0 0.109375,-0.03125 0.125,-0.109375 0.34375,-1.0625 1,-1.3125 1.34375,-1.3125 0.1875,0 0.53125,0.09375 0.53125,0.671875 0,0.3125 -0.171875,0.96875 -0.53125,2.375 -0.15625,0.609375 -0.515625,1.03125 -0.953125,1.03125 -0.0625,0 -0.28125,0 -0.5,-0.125 0.25,-0.0625 0.46875,-0.265625 0.46875,-0.546875 0,-0.265625 -0.21875,-0.34375 -0.359375,-0.34375 -0.3125,0 -0.546875,0.25 -0.546875,0.578125 0,0.453125 0.484375,0.65625 0.921875,0.65625 0.671875,0 1.03125,-0.703125 1.046875,-0.75 0.125,0.359375 0.484375,0.75 1.078125,0.75 1.03125,0 1.59375,-1.28125 1.59375,-1.53125 0,-0.109375 -0.078125,-0.109375 -0.109375,-0.109375 -0.09375,0 -0.109375,0.046875 -0.140625,0.109375 -0.328125,1.078125 -1,1.3125 -1.3125,1.3125 -0.390625,0 -0.546875,-0.3125 -0.546875,-0.65625 0,-0.21875 0.046875,-0.4375 0.15625,-0.875 z m 0,0"
             id="id-0d7e6e0b-59f2-4ece-96bb-b135d7b46af5" />
        </symbol>
        <symbol
           overflow="visible"
           id="id-68bc56a1-d19a-4e4b-a716-ed6d89a2a7c7">
          <path
             style="stroke:none"
             d="M 3.71875,-3.765625 C 3.53125,-4.140625 3.25,-4.40625 2.796875,-4.40625 c -1.15625,0 -2.390625,1.46875 -2.390625,2.921875 0,0.9375 0.546875,1.59375 1.3125,1.59375 0.203125,0 0.703125,-0.046875 1.296875,-0.75 0.078125,0.421875 0.4375,0.75 0.90625,0.75 0.359375,0 0.578125,-0.234375 0.75,-0.546875 0.15625,-0.359375 0.296875,-0.96875 0.296875,-0.984375 0,-0.109375 -0.09375,-0.109375 -0.125,-0.109375 -0.09375,0 -0.109375,0.046875 -0.140625,0.1875 -0.171875,0.640625 -0.34375,1.234375 -0.75,1.234375 -0.28125,0 -0.296875,-0.265625 -0.296875,-0.453125 0,-0.21875 0.015625,-0.3125 0.125,-0.75 C 3.890625,-1.71875 3.90625,-1.828125 4,-2.203125 L 4.359375,-3.59375 c 0.0625,-0.28125 0.0625,-0.296875 0.0625,-0.34375 0,-0.171875 -0.109375,-0.265625 -0.28125,-0.265625 -0.25,0 -0.390625,0.21875 -0.421875,0.4375 z M 3.078125,-1.1875 C 3.015625,-1 3.015625,-0.984375 2.875,-0.8125 2.4375,-0.265625 2.03125,-0.109375 1.75,-0.109375 c -0.5,0 -0.640625,-0.546875 -0.640625,-0.9375 0,-0.5 0.3125,-1.71875 0.546875,-2.1875 0.3125,-0.578125 0.75,-0.953125 1.15625,-0.953125 0.640625,0 0.78125,0.8125 0.78125,0.875 0,0.0625 -0.015625,0.125 -0.03125,0.171875 z m 0,0"
             id="id-2e22a626-1bdc-4d35-ae65-37038d4bf1ba" />
        </symbol>
        <symbol
           overflow="visible"
           id="id-d7f3434b-88b7-4498-bb4e-6fa3a643b3f1">
          <path
             style="stroke:none"
             d="m 2.375,-6.8125 c 0,0 0,-0.109375 -0.125,-0.109375 -0.21875,0 -0.953125,0.078125 -1.21875,0.109375 -0.078125,0 -0.1875,0.015625 -0.1875,0.1875 0,0.125 0.09375,0.125 0.25,0.125 0.46875,0 0.484375,0.0625 0.484375,0.171875 0,0.0625 -0.078125,0.40625 -0.125,0.609375 l -0.828125,3.25 c -0.109375,0.5 -0.15625,0.671875 -0.15625,1.015625 0,0.9375 0.53125,1.5625 1.265625,1.5625 1.171875,0 2.40625,-1.484375 2.40625,-2.921875 0,-0.90625 -0.53125,-1.59375 -1.328125,-1.59375 -0.453125,0 -0.875,0.296875 -1.171875,0.59375 z M 1.453125,-3.046875 C 1.5,-3.265625 1.5,-3.28125 1.59375,-3.390625 2.078125,-4.03125 2.53125,-4.1875 2.796875,-4.1875 c 0.359375,0 0.625,0.296875 0.625,0.9375 0,0.59375 -0.328125,1.734375 -0.515625,2.109375 -0.328125,0.671875 -0.78125,1.03125 -1.171875,1.03125 -0.34375,0 -0.671875,-0.265625 -0.671875,-1 0,-0.203125 0,-0.390625 0.15625,-1.015625 z m 0,0"
             id="id-5e8d0238-b48f-4784-8d34-9f36734461bd" />
        </symbol>
        <symbol
           overflow="visible"
           id="id-4df0be5d-81e1-4ac9-9185-a6daaf740461">
          <path
             style="stroke:none"
             d="m 5.140625,-6.8125 c 0,0 0,-0.109375 -0.125,-0.109375 -0.15625,0 -1.09375,0.09375 -1.265625,0.109375 -0.078125,0.015625 -0.140625,0.0625 -0.140625,0.1875 0,0.125 0.09375,0.125 0.234375,0.125 0.484375,0 0.5,0.0625 0.5,0.171875 L 4.3125,-6.125 3.71875,-3.765625 C 3.53125,-4.140625 3.25,-4.40625 2.796875,-4.40625 c -1.15625,0 -2.390625,1.46875 -2.390625,2.921875 0,0.9375 0.546875,1.59375 1.3125,1.59375 0.203125,0 0.703125,-0.046875 1.296875,-0.75 0.078125,0.421875 0.4375,0.75 0.90625,0.75 0.359375,0 0.578125,-0.234375 0.75,-0.546875 0.15625,-0.359375 0.296875,-0.96875 0.296875,-0.984375 0,-0.109375 -0.09375,-0.109375 -0.125,-0.109375 -0.09375,0 -0.109375,0.046875 -0.140625,0.1875 -0.171875,0.640625 -0.34375,1.234375 -0.75,1.234375 -0.28125,0 -0.296875,-0.265625 -0.296875,-0.453125 0,-0.25 0.015625,-0.3125 0.046875,-0.484375 z m -2.0625,5.625 C 3.015625,-1 3.015625,-0.984375 2.875,-0.8125 2.4375,-0.265625 2.03125,-0.109375 1.75,-0.109375 c -0.5,0 -0.640625,-0.546875 -0.640625,-0.9375 0,-0.5 0.3125,-1.71875 0.546875,-2.1875 0.3125,-0.578125 0.75,-0.953125 1.15625,-0.953125 0.640625,0 0.78125,0.8125 0.78125,0.875 0,0.0625 -0.015625,0.125 -0.03125,0.171875 z m 0,0"
             id="id-62445efa-1069-49ca-ad35-29341f0901e7" />
        </symbol>
        <symbol
           overflow="visible"
           id="id-ba76695f-0b6e-422c-a944-859bbe83f162">
          <path
             style="stroke:none"
             d=""
             id="id-37da7103-48f4-465a-a3ee-521641e77d7f" />
        </symbol>
        <symbol
           overflow="visible"
           id="id-f608782b-6ad9-44e7-94a4-6f1b1351225a">
          <path
             style="stroke:none"
             d="m 6.84375,-3.265625 c 0.15625,0 0.34375,0 0.34375,-0.1875 C 7.1875,-3.65625 7,-3.65625 6.859375,-3.65625 h -5.96875 c -0.140625,0 -0.328125,0 -0.328125,0.203125 0,0.1875 0.1875,0.1875 0.328125,0.1875 z m 0.015625,1.9375 c 0.140625,0 0.328125,0 0.328125,-0.203125 0,-0.1875 -0.1875,-0.1875 -0.34375,-0.1875 H 0.890625 c -0.140625,0 -0.328125,0 -0.328125,0.1875 0,0.203125 0.1875,0.203125 0.328125,0.203125 z m 0,0"
             id="id-cd947641-f075-4ab0-8250-4c94272f310c" />
        </symbol>
        <symbol
           overflow="visible"
           id="id-8dac46d8-95e8-46cd-b6a3-abba7c98e28b">
          <path
             style="stroke:none"
             d="m 3.296875,2.390625 c 0,-0.03125 0,-0.046875 -0.171875,-0.21875 C 1.890625,0.921875 1.5625,-0.96875 1.5625,-2.5 c 0,-1.734375 0.375,-3.46875 1.609375,-4.703125 0.125,-0.125 0.125,-0.140625 0.125,-0.171875 0,-0.078125 -0.03125,-0.109375 -0.09375,-0.109375 -0.109375,0 -1,0.6875 -1.59375,1.953125 -0.5,1.09375 -0.625,2.203125 -0.625,3.03125 0,0.78125 0.109375,1.984375 0.65625,3.125 C 2.25,1.84375 3.09375,2.5 3.203125,2.5 c 0.0625,0 0.09375,-0.03125 0.09375,-0.109375 z m 0,0"
             id="id-ec556353-1109-4071-ab34-bdde9433ea90" />
        </symbol>
        <symbol
           overflow="visible"
           id="id-38f012a1-01d3-4f80-af13-fe5c3f0786a9">
          <path
             style="stroke:none"
             d="m 2.875,-2.5 c 0,-0.765625 -0.109375,-1.96875 -0.65625,-3.109375 -0.59375,-1.21875 -1.453125,-1.875 -1.546875,-1.875 -0.0625,0 -0.109375,0.046875 -0.109375,0.109375 0,0.03125 0,0.046875 0.1875,0.234375 0.984375,0.984375 1.546875,2.5625 1.546875,4.640625 0,1.71875 -0.359375,3.46875 -1.59375,4.71875 C 0.5625,2.34375 0.5625,2.359375 0.5625,2.390625 0.5625,2.453125 0.609375,2.5 0.671875,2.5 0.765625,2.5 1.671875,1.8125 2.25,0.546875 2.765625,-0.546875 2.875,-1.65625 2.875,-2.5 Z m 0,0"
             id="id-07b6b984-330e-4f5a-9561-66a3a411aa5f" />
        </symbol>
        <symbol
           overflow="visible"
           id="id-04530b68-fcb3-4178-8c19-fc6ef1cda02c">
          <path
             style="stroke:none"
             d=""
             id="id-5369f406-c083-4f09-a527-5f4e4cb9da32" />
        </symbol>
        <symbol
           overflow="visible"
           id="id-ca4a60a6-7f50-443f-bec3-9290dbdb92a7">
          <path
             style="stroke:none"
             d="m 2.71875,8.765625 c -0.140625,1.640625 -0.5,2.09375 -1.0625,2.09375 -0.125,0 -0.4375,-0.03125 -0.640625,-0.21875 0.296875,-0.03125 0.375,-0.265625 0.375,-0.40625 0,-0.28125 -0.21875,-0.421875 -0.40625,-0.421875 -0.203125,0 -0.421875,0.140625 -0.421875,0.4375 0,0.46875 0.5,0.828125 1.09375,0.828125 0.953125,0 1.421875,-0.875 1.640625,-1.765625 C 3.421875,8.796875 3.78125,5.890625 3.875,4.78125 L 4.0625,2.296875 C 4.203125,0.46875 4.53125,0.21875 4.984375,0.21875 c 0.09375,0 0.40625,0.015625 0.625,0.203125 C 5.328125,0.46875 5.25,0.703125 5.25,0.84375 5.25,1.125 5.46875,1.25 5.65625,1.25 5.859375,1.25 6.078125,1.125 6.078125,0.828125 6.078125,0.34375 5.578125,0 4.96875,0 c -0.9375,0 -1.328125,0.96875 -1.5,1.71875 -0.125,0.546875 -0.484375,3.359375 -0.5625,4.578125 z m 0,0"
             id="id-0e37b0d6-755d-40c4-8012-cbf3530241c1" />
        </symbol>
        <symbol
           overflow="visible"
           id="id-d47414d0-da0e-4d26-b9ea-dc6624b74d56">
          <path
             style="stroke:none"
             d=""
             id="id-92d0eb9f-451b-4671-b83c-6c98015bb791" />
        </symbol>
        <symbol
           overflow="visible"
           id="id-4473f5c7-5958-4bc3-8eb1-4c7f3caf461d">
          <path
             style="stroke:none"
             d="m 1.84375,-4.625 c 0,-0.015625 0.03125,-0.109375 0.03125,-0.109375 0,-0.046875 -0.03125,-0.109375 -0.125,-0.109375 -0.140625,0 -0.71875,0.0625 -0.890625,0.078125 -0.046875,0 -0.15625,0.015625 -0.15625,0.15625 0,0.09375 0.109375,0.09375 0.1875,0.09375 0.328125,0 0.328125,0.0625 0.328125,0.109375 0,0.046875 -0.0625,0.328125 -0.109375,0.484375 l -0.15625,0.640625 c -0.0625,0.25 -0.4375,1.765625 -0.453125,1.859375 -0.046875,0.171875 -0.046875,0.265625 -0.046875,0.34375 0,0.703125 0.453125,1.140625 1.03125,1.140625 0.875,0 1.796875,-0.9375 1.796875,-1.96875 0,-0.8125 -0.5625,-1.171875 -1.046875,-1.171875 -0.359375,0 -0.671875,0.203125 -0.875,0.390625 z m -0.359375,4.5 c -0.328125,0 -0.53125,-0.296875 -0.53125,-0.71875 0,-0.25 0.0625,-0.484375 0.265625,-1.28125 C 1.25,-2.25 1.25,-2.265625 1.390625,-2.421875 1.65625,-2.71875 1.96875,-2.875 2.21875,-2.875 c 0.265625,0 0.5,0.203125 0.5,0.671875 0,0.28125 -0.140625,1 -0.359375,1.40625 C 2.1875,-0.453125 1.84375,-0.125 1.484375,-0.125 Z m 0,0"
             id="id-e3b960d4-c585-4930-8b7e-1a5e9bb1f0f3" />
        </symbol>
        <symbol
           overflow="visible"
           id="id-33c462fa-4cbe-4814-9e3a-fbbba253a76f">
          <path
             style="stroke:none"
             d="m 2.9375,-2.65625 c -0.140625,-0.234375 -0.375,-0.421875 -0.71875,-0.421875 -0.890625,0 -1.796875,0.984375 -1.796875,1.984375 0,0.6875 0.453125,1.15625 1.0625,1.15625 0.375,0 0.703125,-0.203125 0.984375,-0.484375 C 2.59375,0 3,0.0625 3.1875,0.0625 c 0.25,0 0.421875,-0.140625 0.546875,-0.359375 0.15625,-0.28125 0.25,-0.671875 0.25,-0.703125 0,-0.09375 -0.09375,-0.09375 -0.109375,-0.09375 -0.109375,0 -0.109375,0.03125 -0.15625,0.21875 C 3.625,-0.53125 3.5,-0.125 3.203125,-0.125 3.03125,-0.125 2.96875,-0.28125 2.96875,-0.46875 c 0,-0.109375 0.0625,-0.375 0.109375,-0.546875 0.046875,-0.1875 0.125,-0.46875 0.15625,-0.625 L 3.375,-2.171875 C 3.421875,-2.359375 3.5,-2.6875 3.5,-2.71875 3.5,-2.875 3.375,-2.9375 3.265625,-2.9375 c -0.125,0 -0.28125,0.078125 -0.328125,0.28125 z M 2.5,-0.875 C 2.453125,-0.671875 2.296875,-0.53125 2.140625,-0.40625 2.078125,-0.34375 1.796875,-0.125 1.5,-0.125 c -0.265625,0 -0.515625,-0.1875 -0.515625,-0.671875 0,-0.375 0.203125,-1.140625 0.375,-1.421875 0.3125,-0.5625 0.671875,-0.65625 0.859375,-0.65625 0.484375,0 0.625,0.53125 0.625,0.609375 0,0.015625 -0.015625,0.078125 -0.015625,0.09375 z m 0,0"
             id="id-c103fc09-b196-4057-bc51-46c4fcd371a2" />
        </symbol>
      </g>
    </defs>
  </defs>
  <g
     inkscape:label="Layer 1"
     inkscape:groupmode="layer"
     id="layer1"
     transform="translate(-56.859013,-164.39678)">
    <g
       id="g5803">
      <path
         style="fill:#000000;fill-opacity:1;stroke:none;stroke-width:0.546596"
         d="m 73.110565,227.54591 c -0.102511,-0.20497 -0.256212,-0.35017 -0.503892,-0.35017 -0.631999,0 -1.306696,0.80282 -1.306696,1.59709 0,0.51244 0.29891,0.87113 0.717407,0.87113 0.110977,0 0.384319,-0.0257 0.708863,-0.40994 0.04272,0.23059 0.239136,0.40994 0.495348,0.40994 0.196438,0 0.316,-0.12804 0.409953,-0.29892 0.08545,-0.19642 0.162272,-0.52951 0.162272,-0.53805 0,-0.0598 -0.05119,-0.0598 -0.06839,-0.0598 -0.05119,0 -0.05979,0.0257 -0.07685,0.10251 -0.09391,0.35016 -0.187894,0.6747 -0.40994,0.6747 -0.15374,0 -0.162272,-0.14519 -0.162272,-0.24767 0,-0.11958 0.0079,-0.17082 0.06825,-0.40995 0.05979,-0.22206 0.06839,-0.28184 0.119574,-0.48682 l 0.196425,-0.76011 c 0.03413,-0.15372 0.03413,-0.16227 0.03413,-0.18789 0,-0.0939 -0.05979,-0.14518 -0.153727,-0.14518 -0.136651,0 -0.213514,0.11957 -0.230604,0.23913 z m -0.350152,1.40919 c -0.03413,0.10251 -0.03413,0.11098 -0.110977,0.20497 -0.239135,0.29892 -0.461195,0.38433 -0.614922,0.38433 -0.273302,0 -0.350166,-0.29892 -0.350166,-0.51244 0,-0.2733 0.170817,-0.93946 0.298923,-1.19567 0.170804,-0.316 0.40994,-0.52097 0.631999,-0.52097 0.350166,0 0.427029,0.4441 0.427029,0.47827 0,0.0341 -0.0079,0.0684 -0.01706,0.0939 z m 0,0"
         id="id-a2cd1b28-99a9-4873-9029-1f992f80daa5" />
      <path
         style="fill:#000000;fill-opacity:1;stroke:none;stroke-width:0.546596"
         d="m 136.76434,226.56809 c 0,0 0,-0.0598 -0.0683,-0.0598 -0.11958,0 -0.52099,0.0427 -0.66617,0.0598 -0.0427,0 -0.10251,0.009 -0.10251,0.10251 0,0.0682 0.0512,0.0682 0.13664,0.0682 0.25622,0 0.26475,0.0341 0.26475,0.0939 0,0.0341 -0.0427,0.22206 -0.0684,0.3331 l -0.45265,1.77644 c -0.0598,0.2733 -0.0855,0.36724 -0.0855,0.55513 0,0.51243 0.29038,0.85406 0.69179,0.85406 0.64054,0 1.31525,-0.81137 1.31525,-1.59708 0,-0.49536 -0.29038,-0.87115 -0.72595,-0.87115 -0.24768,0 -0.47827,0.16228 -0.64054,0.32455 z m -0.50389,2.05828 c 0.0257,-0.11957 0.0257,-0.12804 0.0769,-0.18789 0.26475,-0.35017 0.51243,-0.43558 0.65762,-0.43558 0.19644,0 0.34163,0.16227 0.34163,0.51244 0,0.32454 -0.17936,0.948 -0.28185,1.15298 -0.17934,0.36724 -0.42702,0.56367 -0.64054,0.56367 -0.18789,0 -0.36724,-0.14518 -0.36724,-0.54659 0,-0.11098 0,-0.21352 0.0854,-0.55514 z m 0,0"
         id="id-89c36fad-fabb-4595-b4ba-2ad843dab29f" />
      <path
         style="fill:none;stroke:#bdcdd4;stroke-width:0.529167;stroke-linecap:butt;stroke-linejoin:miter;stroke-miterlimit:4;stroke-dasharray:none;stroke-opacity:1"
         d="m 62.177079,164.39678 v 63.5"
         id="path1002" />
      <path
         style="fill:none;stroke:#bdcdd4;stroke-width:0.529167;stroke-linecap:butt;stroke-linejoin:miter;stroke-miterlimit:4;stroke-dasharray:none;stroke-opacity:1"
         d="M 56.885413,222.60511 H 136.26041"
         id="path1004" />
      <path
         style="fill:none;stroke:#364e59;stroke-width:0.79375;stroke-linecap:butt;stroke-linejoin:miter;stroke-miterlimit:4;stroke-dasharray:none;stroke-opacity:1"
         d="m 56.885413,217.31345 c 0,0 79.374997,5.29166 79.374997,-52.91667"
         id="path1006"
         sodipodi:nodetypes="cc" />
      <path
         style="fill:none;stroke:#999999;stroke-width:0.264583;stroke-linecap:butt;stroke-linejoin:miter;stroke-miterlimit:4;stroke-dasharray:0.264583, 0.529167;stroke-dashoffset:0;stroke-opacity:1"
         d="m 136.26041,171.01137 v 54.23958"
         id="path1330"
         sodipodi:nodetypes="cc" />
      <path
         style="fill:none;stroke:#999999;stroke-width:0.264583;stroke-linecap:butt;stroke-linejoin:miter;stroke-miterlimit:4;stroke-dasharray:0.264583, 0.529167;stroke-dashoffset:0;stroke-opacity:1"
         d="m 72.760413,217.31345 v 5.29166 2.64584"
         id="path1332" />
      <path
         style="fill:none;stroke:#000000;stroke-width:0.264583px;stroke-linecap:butt;stroke-linejoin:miter;stroke-opacity:1"
         d="m 72.760413,222.60512 h 10.583333 v -6.87917 H 72.760413 v 6.87917"
         id="path1784"
         sodipodi:nodetypes="ccccc" />
      <path
         style="fill:none;stroke:#000000;stroke-width:0.264583px;stroke-linecap:butt;stroke-linejoin:miter;stroke-opacity:1"
         d="M 83.343747,222.60512 H 93.92708 V 213.3447 H 83.343746 l 10e-7,9.26042"
         id="path1866"
         sodipodi:nodetypes="ccccc" />
      <path
         style="fill:none;stroke:#000000;stroke-width:0.264583px;stroke-linecap:butt;stroke-linejoin:miter;stroke-opacity:1"
         d="m 93.92708,222.60512 h 10.58333 V 210.1697 H 93.92708 v 12.43542"
         id="path2119"
         sodipodi:nodetypes="ccccc" />
      <path
         style="fill:none;stroke:#000000;stroke-width:0.264583px;stroke-linecap:butt;stroke-linejoin:miter;stroke-opacity:1"
         d="m 104.51041,222.60512 h 10.58333 v -18.25625 h -10.58333 v 18.25625"
         id="path2752"
         sodipodi:nodetypes="ccccc" />
      <path
         style="fill:none;stroke:#000000;stroke-width:0.264583px;stroke-linecap:butt;stroke-linejoin:miter;stroke-opacity:1"
         d="m 115.09375,222.60512 h 10.58333 v -27.25209 h -10.58333 v 27.25209"
         id="path3043"
         sodipodi:nodetypes="ccccc" />
      <path
         style="fill:none;stroke:#000000;stroke-width:0.264583px;stroke-linecap:butt;stroke-linejoin:miter;stroke-opacity:1"
         d="m 125.67709,222.60512 h 10.58333 v -54.23959 h -10.58333 v 54.23959"
         id="path3434"
         sodipodi:nodetypes="ccccc" />
      <path
         style="opacity:0.95;fill:#ffcccc;fill-opacity:1;stroke:#ffcccc;stroke-width:0.634993;stroke-linecap:round;stroke-linejoin:round;stroke-dasharray:0.634993, 1.26999;stroke-opacity:1"
         d="m 60.95933,209.62969 v -9.1254 l 5.238692,-0.43903 c 6.184592,-0.5183 29.366128,-3.43046 31.429264,-3.94827 l 1.431625,-0.35932 v 11.49871 11.49872 H 80.009121 60.95933 Z"
         id="path4467"
         transform="matrix(0.26458333,0,0,0.26458333,56.859013,164.39678)" />
      <path
         style="opacity:0.95;fill:#ffcccc;fill-opacity:1;stroke:#ffcccc;stroke-width:0.634993;stroke-linecap:round;stroke-linejoin:round;stroke-dasharray:0.634993, 1.26999;stroke-opacity:1"
         d="m 100.96443,207.16647 5.5e-4,-11.58862 8.24106,-1.46765 c 6.82585,-1.21561 20.44754,-4.20095 28.1112,-6.16086 l 1.74623,-0.44658 v 15.62617 15.62617 h -19.04979 -19.04979 z"
         id="path4543"
         transform="matrix(0.26458333,0,0,0.26458333,56.859013,164.39678)" />
      <path
         style="opacity:0.95;fill:#ffcccc;fill-opacity:1;stroke:#ffcccc;stroke-width:0.634993;stroke-linecap:round;stroke-linejoin:round;stroke-dasharray:0.634993, 1.26999;stroke-opacity:1"
         d="m 140.96845,202.90716 v -15.84794 l 4.6037,-1.33441 c 6.15436,-1.78387 26.69931,-8.64248 30.47966,-10.17514 l 3.01622,-1.22287 v 22.21415 22.21415 h -19.04979 -19.04979 z"
         id="path4582"
         transform="matrix(0.26458333,0,0,0.26458333,56.859013,164.39678)" />
      <path
         style="opacity:0.95;fill:#ffcccc;fill-opacity:1;stroke:#ffcccc;stroke-width:0.634993;stroke-linecap:round;stroke-linejoin:round;stroke-dasharray:0.634993, 1.26999;stroke-opacity:1"
         d="m 180.97301,196.17714 v -22.57796 l 3.01622,-1.3041 c 10.79783,-4.66856 26.46838,-12.8054 33.33713,-17.31011 l 1.74623,-1.14522 v 32.45767 32.45768 H 200.0228 180.97301 Z"
         id="path4621"
         transform="matrix(0.26458333,0,0,0.26458333,56.859013,164.39678)" />
      <path
         style="opacity:0.95;fill:#ffcccc;fill-opacity:1;stroke:#ffcccc;stroke-width:0.634993;stroke-linecap:round;stroke-linejoin:round;stroke-dasharray:0.634993, 1.26999;stroke-opacity:1"
         d="m 220.97757,185.80271 v -32.95238 l 7.17832,-5.07257 c 9.49832,-6.71201 14.48815,-10.91401 23.46009,-19.75608 l 7.46117,-7.35315 v 49.04328 49.04329 h -19.04979 -19.04979 z"
         id="path4660"
         transform="matrix(0.26458333,0,0,0.26458333,56.859013,164.39678)" />
      <path
         style="opacity:0.95;fill:#ffcccc;fill-opacity:1;stroke:#ffcccc;stroke-width:0.634993;stroke-linecap:round;stroke-linejoin:round;stroke-dasharray:0.634993, 1.26999;stroke-opacity:1"
         d="m 260.98213,168.60394 v -50.15115 l 4.21081,-5.25199 c 15.63902,-19.505991 26.84414,-43.495832 32.26189,-69.071806 l 1.54623,-7.299399 0.0403,90.962755 0.0403,90.96275 h -19.04979 -19.04979 z"
         id="path4699"
         transform="matrix(0.26458333,0,0,0.26458333,56.859013,164.39678)" />
      <path
         style="opacity:0.95;fill:#cae8e7;fill-opacity:1;stroke:#9cfffd;stroke-width:0.317496;stroke-linecap:round;stroke-linejoin:round;stroke-dasharray:0.317496, 0.634993;stroke-opacity:1"
         d="m 60.641833,195.89535 v -1.11124 l 10.398011,0.0407 c 10.245414,0.0401 10.349087,0.0469 7.064298,0.46822 -3.991727,0.51196 -15.739229,1.71406 -16.747941,1.71379 -0.604718,-1.7e-4 -0.714368,-0.17076 -0.714368,-1.11143 z"
         id="path5048"
         transform="matrix(0.26458333,0,0,0.26458333,56.859013,164.39678)" />
      <path
         style="opacity:0.95;fill:#cae8e7;fill-opacity:1;stroke:#9cfffd;stroke-width:0.317496;stroke-linecap:round;stroke-linejoin:round;stroke-dasharray:0.317496, 0.634993;stroke-opacity:1"
         d="m 100.64639,188.86307 v -3.28636 l 15.63671,0.0352 15.6367,0.0352 -3.65121,0.91254 c -4.28926,1.07201 -17.40702,3.78781 -23.41537,4.84774 l -4.20683,0.74212 z"
         id="path5161"
         transform="matrix(0.26458333,0,0,0.26458333,56.859013,164.39678)" />
      <path
         style="opacity:0.95;fill:#cae8e7;fill-opacity:1;stroke:#9cfffd;stroke-width:0.317496;stroke-linecap:round;stroke-linejoin:round;stroke-dasharray:0.317496, 0.634993;stroke-opacity:1"
         d="m 140.65095,178.43304 v -4.9212 l 15.31921,0.0146 15.31921,0.0146 -4.28621,1.58122 c -6.62435,2.44379 -24.96105,8.2319 -26.0786,8.2319 -0.15048,0 -0.27361,-2.21453 -0.27361,-4.92119 z"
         id="path5200"
         transform="matrix(0.26458333,0,0,0.26458333,56.859013,164.39678)" />
      <path
         style="opacity:0.95;fill:#cae8e7;fill-opacity:1;stroke:#9cfffd;stroke-width:0.317496;stroke-linecap:round;stroke-linejoin:round;stroke-dasharray:0.317496, 0.634993;stroke-opacity:1"
         d="m 180.65551,160.67463 v -9.07005 l 17.70043,0.006 17.70044,0.006 -1.58749,0.99926 c -3.48317,2.19254 -11.70114,6.78206 -16.43932,9.18093 -4.88418,2.47278 -15.23033,7.26791 -16.65969,7.72126 l -0.71437,0.22658 z"
         id="path5239"
         transform="matrix(0.26458333,0,0,0.26458333,56.859013,164.39678)" />
      <path
         style="opacity:0.95;fill:#cae8e7;fill-opacity:1;stroke:#9cfffd;stroke-width:0.317496;stroke-linecap:round;stroke-linejoin:round;stroke-dasharray:0.317496, 0.634993;stroke-opacity:1"
         d="m 220.66007,133.19693 v -15.56447 h 18.13269 18.13268 l -3.28972,3.54337 c -7.86244,8.46869 -18.88658,17.8278 -30.3563,25.77147 l -2.61935,1.8141 z"
         id="path5278"
         transform="matrix(0.26458333,0,0,0.26458333,56.859013,164.39678)" />
      <path
         style="opacity:0.95;fill:#cae8e7;fill-opacity:1;stroke:#9cfffd;stroke-width:0.317496;stroke-linecap:round;stroke-linejoin:round;stroke-dasharray:0.317496, 0.634993;stroke-opacity:1"
         d="M 260.66464,64.311782 V 15.716077 h 18.57354 18.57355 v 0.96152 c 0,0.528835 -0.21898,3.064839 -0.48662,5.635562 -2.94763,28.31266 -11.14084,52.850936 -24.96482,74.768489 -3.23287,5.125632 -10.47958,15.074262 -11.39024,15.637082 -0.19505,0.12054 -0.30541,-17.372515 -0.30541,-48.406948 z"
         id="path5317"
         transform="matrix(0.26458333,0,0,0.26458333,56.859013,164.39678)" />
    </g>
  </g>
</svg>
