<?xml version="1.0" encoding="UTF-8" standalone="no"?>
<!-- Created with Inkscape (http://www.inkscape.org/) -->

<svg
   width="36.88232mm"
   height="33.920296mm"
   viewBox="0 0 36.88232 33.920296"
   version="1.1"
   id="svg5"
   sodipodi:docname="relation1.svg"
   inkscape:version="1.1 (c4e8f9e, 2021-05-24)"
   xmlns:inkscape="http://www.inkscape.org/namespaces/inkscape"
   xmlns:sodipodi="http://sodipodi.sourceforge.net/DTD/sodipodi-0.dtd"
   xmlns="http://www.w3.org/2000/svg"
   xmlns:svg="http://www.w3.org/2000/svg">
  <sodipodi:namedview
     id="namedview858"
     pagecolor="#ffffff"
     bordercolor="#666666"
     borderopacity="1.0"
     inkscape:pageshadow="2"
     inkscape:pageopacity="0.0"
     inkscape:pagecheckerboard="0"
     inkscape:document-units="mm"
     showgrid="false"
     inkscape:zoom="2.4204081"
     inkscape:cx="58.048061"
     inkscape:cy="96.05818"
     inkscape:window-width="1440"
     inkscape:window-height="847"
     inkscape:window-x="0"
     inkscape:window-y="25"
     inkscape:window-maximized="1"
     inkscape:current-layer="svg5" />
  <defs
     id="defs2">
    <marker
       style="overflow:visible"
       id="TriangleOutM"
       refX="0"
       refY="0"
       orient="auto">
      <path
         transform="scale(0.4)"
         style="fill:context-stroke;fill-rule:evenodd;stroke:context-stroke;stroke-width:1pt"
         d="M 5.77,0 -2.88,5 V -5 Z"
         id="path2758" />
    </marker>
    <marker
       style="overflow:visible"
       id="Arrow1Mend"
       refX="0"
       refY="0"
       orient="auto">
      <path
         transform="matrix(-0.4,0,0,-0.4,-4,0)"
         style="fill:context-stroke;fill-rule:evenodd;stroke:context-stroke;stroke-width:1pt"
         d="M 0,0 5,-5 -12.5,0 5,5 Z"
         id="path2622" />
    </marker>
    <marker
       style="overflow:visible"
       id="Arrow2Mend"
       refX="0"
       refY="0"
       orient="auto">
      <path
         transform="scale(-0.6)"
         d="M 8.7185878,4.0337352 -2.2072895,0.01601326 8.7185884,-4.0017078 c -1.7454984,2.3720609 -1.7354408,5.6174519 -6e-7,8.035443 z"
         style="fill:context-stroke;fill-rule:evenodd;stroke-width:0.625;stroke-linejoin:round"
         id="path2640" />
    </marker>
    <marker
       style="overflow:visible"
       id="Arrow1Send"
       refX="0"
       refY="0"
       orient="auto">
      <path
         transform="matrix(-0.2,0,0,-0.2,-1.2,0)"
         style="fill:context-stroke;fill-rule:evenodd;stroke:context-stroke;stroke-width:1pt"
         d="M 0,0 5,-5 -12.5,0 5,5 Z"
         id="path2628" />
    </marker>
    <defs
       id="id-13e429d0-d9aa-4621-aeb0-6be5e8a6cbe0">
      <g
         id="id-b43f6a6b-c22a-4ae3-90b5-05bfa489a6d4">
        <symbol
           overflow="visible"
           id="id-443a20fb-2d51-4f58-8313-e33442909888">
          <path
             style="stroke:none;stroke-width:0"
             d=""
             id="id-140e1404-206c-41aa-8df5-02fe4d7358aa" />
        </symbol>
        <symbol
           overflow="visible"
           id="id-57240189-5212-4ed0-97af-c9758361f9aa">
          <path
             style="stroke:none;stroke-width:0"
             d="m 2.9375,-6.375 c 0,-0.25 0,-0.265625 -0.234375,-0.265625 C 2.078125,-6 1.203125,-6 0.890625,-6 v 0.3125 c 0.203125,0 0.78125,0 1.296875,-0.265625 v 5.171875 c 0,0.359375 -0.03125,0.46875 -0.921875,0.46875 h -0.3125 V 0 c 0.34375,-0.03125 1.203125,-0.03125 1.609375,-0.03125 0.390625,0 1.265625,0 1.609375,0.03125 v -0.3125 h -0.3125 c -0.90625,0 -0.921875,-0.109375 -0.921875,-0.46875 z m 0,0"
             id="id-b5b16001-4818-4951-b5ed-cf0dc1fa3863" />
        </symbol>
        <symbol
           overflow="visible"
           id="id-1bf8b016-401f-431d-b999-6490fe6d762a">
          <path
             style="stroke:none;stroke-width:0"
             d="m 1.265625,-0.765625 1.0625,-1.03125 c 1.546875,-1.375 2.140625,-1.90625 2.140625,-2.90625 0,-1.140625 -0.890625,-1.9375 -2.109375,-1.9375 -1.125,0 -1.859375,0.921875 -1.859375,1.8125 0,0.546875 0.5,0.546875 0.53125,0.546875 0.171875,0 0.515625,-0.109375 0.515625,-0.53125 0,-0.25 -0.1875,-0.515625 -0.53125,-0.515625 -0.078125,0 -0.09375,0 -0.125,0.015625 0.21875,-0.65625 0.765625,-1.015625 1.34375,-1.015625 0.90625,0 1.328125,0.8125 1.328125,1.625 C 3.5625,-3.90625 3.078125,-3.125 2.515625,-2.5 l -1.90625,2.125 C 0.5,-0.265625 0.5,-0.234375 0.5,0 H 4.203125 L 4.46875,-1.734375 H 4.234375 C 4.171875,-1.4375 4.109375,-1 4,-0.84375 3.9375,-0.765625 3.28125,-0.765625 3.0625,-0.765625 Z m 0,0"
             id="id-19817b8d-7f7f-4b44-9c46-9daacee21853" />
        </symbol>
        <symbol
           overflow="visible"
           id="id-f4075c2f-9f31-4a51-a96f-e0fb0bbe5c19">
          <path
             style="stroke:none;stroke-width:0"
             d="m 2.890625,-3.515625 c 0.8125,-0.265625 1.390625,-0.953125 1.390625,-1.75 0,-0.8125 -0.875,-1.375 -1.828125,-1.375 -1,0 -1.765625,0.59375 -1.765625,1.359375 0,0.328125 0.21875,0.515625 0.515625,0.515625 0.296875,0 0.5,-0.21875 0.5,-0.515625 0,-0.484375 -0.46875,-0.484375 -0.609375,-0.484375 0.296875,-0.5 0.953125,-0.625 1.3125,-0.625 0.421875,0 0.96875,0.21875 0.96875,1.109375 0,0.125 -0.03125,0.703125 -0.28125,1.140625 C 2.796875,-3.65625 2.453125,-3.625 2.203125,-3.625 2.125,-3.609375 1.890625,-3.59375 1.8125,-3.59375 c -0.078125,0.015625 -0.140625,0.03125 -0.140625,0.125 0,0.109375 0.0625,0.109375 0.234375,0.109375 h 0.4375 c 0.8125,0 1.1875,0.671875 1.1875,1.65625 0,1.359375 -0.6875,1.640625 -1.125,1.640625 -0.4375,0 -1.1875,-0.171875 -1.53125,-0.75 0.34375,0.046875 0.65625,-0.171875 0.65625,-0.546875 0,-0.359375 -0.265625,-0.5625 -0.546875,-0.5625 -0.25,0 -0.5625,0.140625 -0.5625,0.578125 0,0.90625 0.921875,1.5625 2.015625,1.5625 1.21875,0 2.125,-0.90625 2.125,-1.921875 0,-0.8125 -0.640625,-1.59375 -1.671875,-1.8125 z m 0,0"
             id="id-1d426d01-e85a-458c-897e-03c65a49a2a4" />
        </symbol>
        <symbol
           overflow="visible"
           id="id-eed32038-0300-4066-ac15-082e6aa257fc">
          <path
             style="stroke:none;stroke-width:0"
             d="m 2.9375,-1.640625 v 0.859375 c 0,0.359375 -0.03125,0.46875 -0.765625,0.46875 H 1.96875 V 0 C 2.375,-0.03125 2.890625,-0.03125 3.3125,-0.03125 c 0.421875,0 0.9375,0 1.359375,0.03125 v -0.3125 h -0.21875 c -0.734375,0 -0.75,-0.109375 -0.75,-0.46875 V -1.640625 H 4.6875 v -0.3125 H 3.703125 v -4.53125 c 0,-0.203125 0,-0.265625 -0.171875,-0.265625 -0.078125,0 -0.109375,0 -0.1875,0.125 l -3.0625,4.671875 v 0.3125 z m 0.046875,-0.3125 H 0.5625 l 2.421875,-3.71875 z m 0,0"
             id="id-8e1bc4b1-0863-4de6-9714-fc98a03a7612" />
        </symbol>
      </g>
    </defs>
  </defs>
  <circle
     style="font-variation-settings:normal;vector-effect:none;fill:none;fill-opacity:1;fill-rule:evenodd;stroke:#000000;stroke-width:0.396875;stroke-linecap:butt;stroke-linejoin:miter;stroke-miterlimit:4;stroke-dasharray:none;stroke-dashoffset:0;stroke-opacity:1;marker-end:url(#TriangleOutM);stop-color:#000000"
     id="path2331"
     transform="scale(-1,1)"
     cx="68.999969"
     cy="-85.338135"
     r="0" />
  <g
     id="g997"
     transform="translate(0.41233737)">
    <path
       style="fill:#000000;fill-opacity:1;stroke:none;stroke-width:0"
       d="m 7.963578,0.303935 c 0,-0.23254 0,-0.24715 -0.218,-0.24715 -0.581307,0.59585 -1.395138,0.59585 -1.685791,0.59585 v 0.29064 c 0.188926,0 0.726634,0 1.206213,-0.24715 v 4.81032 c 0,0.33425 -0.02907,0.43598 -0.857429,0.43598 H 6.117919 v 0.29065 c 0.319718,-0.029 1.119015,-0.029 1.496865,-0.029 0.363318,0 1.177147,0 1.496868,0.029 V 5.942425 H 8.820997 c -0.842895,0 -0.857429,-0.10178 -0.857429,-0.43598 z m 0,0"
       id="id-caaebdd4-f88a-4b15-8f22-7a9f3b742172" />
    <path
       style="fill:#000000;fill-opacity:1;stroke:none;stroke-width:0"
       d="m 26.884938,5.520855 0.98822,-0.95917 c 1.43874,-1.27887 1.99098,-1.77299 1.99098,-2.70306 0,-1.0609 -0.82836,-1.80207 -1.96191,-1.80207 -1.04636,0 -1.729394,0.85744 -1.729394,1.6858 0,0.50863 0.465044,0.50863 0.494114,0.50863 0.15985,0 0.47958,-0.10178 0.47958,-0.49409 0,-0.23254 -0.17439,-0.47959 -0.49412,-0.47959 -0.0727,0 -0.0872,0 -0.11626,0.0149 0.20346,-0.61039 0.7121,-0.94463 1.24981,-0.94463 0.84289,0 1.23527,0.7557 1.23527,1.51141 0,0.74114 -0.45051,1.4678 -0.97368,2.04909 l -1.772993,1.97646 c -0.101731,0.10178 -0.101731,0.13075 -0.101731,0.34877 h 3.444244 l 0.24705,-1.61311 h -0.218 c -0.0581,0.27612 -0.11627,0.68302 -0.218,0.82836 -0.0581,0.0726 -0.6685,0.0726 -0.87196,0.0726 z m 0,0"
       id="id-ef8ace02-dab0-47dd-98b1-7c04c652b5e2" />
    <path
       style="fill:#000000;fill-opacity:1;stroke:none;stroke-width:0"
       d="m 7.9563,24.993972 c 0.7557,-0.24715 1.29341,-0.88651 1.29341,-1.62768 0,-0.7557 -0.81383,-1.27887 -1.70032,-1.27887 -0.93009,0 -1.64219,0.55224 -1.64219,1.26434 0,0.30519 0.20346,0.47958 0.47957,0.47958 0.27612,0 0.46505,-0.20356 0.46505,-0.47958 0,-0.45051 -0.43598,-0.45051 -0.56677,-0.45051 0.27612,-0.46505 0.88649,-0.58129 1.22074,-0.58129 0.39238,0 0.90103,0.20331 0.90103,1.0318 0,0.11639 -0.0291,0.65397 -0.26159,1.0609 -0.27612,0.45051 -0.59584,0.47958 -0.82837,0.47958 -0.0727,0.0149 -0.29065,0.029 -0.36331,0.029 -0.0727,0.0149 -0.13081,0.029 -0.13081,0.11615 0,0.10178 0.0581,0.10178 0.218,0.10178 h 0.40692 c 0.7557,0 1.10448,0.6249 1.10448,1.54046 0,1.26433 -0.63943,1.52594 -1.04635,1.52594 -0.40691,0 -1.10448,-0.15997 -1.4242,-0.69758 0.31972,0.0436 0.61037,-0.15973 0.61037,-0.50863 0,-0.33427 -0.24705,-0.5232 -0.50864,-0.5232 -0.23254,0 -0.523181,0.13076 -0.523181,0.53773 0,0.84288 0.857431,1.45327 1.874721,1.45327 1.13355,0 1.97644,-0.8429 1.97644,-1.78753 0,-0.75571 -0.59584,-1.48234 -1.555,-1.68578 z m 0,0"
       id="id-8ea6e643-5cfd-42ad-9cf2-216d65e619fb" />
    <path
       style="fill:#000000;fill-opacity:1;stroke:none;stroke-width:0"
       d="m 28.439926,26.890482 v 0.79929 c 0,0.33424 -0.0291,0.43598 -0.7121,0.43598 h -0.18893 v 0.29065 c 0.37785,-0.029 0.85743,-0.029 1.24981,-0.029 0.39239,0 0.87197,0 1.26435,0.029 v -0.29065 h -0.20347 c -0.68303,0 -0.69756,-0.10179 -0.69756,-0.43598 v -0.79929 h 0.91556 v -0.29066 h -0.91556 v -4.21449 c 0,-0.18895 0,-0.24715 -0.15986,-0.24715 -0.0727,0 -0.10173,0 -0.17439,0.11639 l -2.8484,4.34528 v 0.29066 z m 0.0436,-0.29066 h -2.25257 l 2.25257,-3.45879 z m 0,0"
       id="id-810c8536-4182-4154-946a-be0c2694c4cc" />
    <path
       style="fill:none;stroke:#000000;stroke-width:0.264583px;stroke-linecap:butt;stroke-linejoin:miter;stroke-opacity:1;marker-end:url(#TriangleOutM)"
       d="M 24.987146,0.651444 H 10.435063"
       id="path982" />
    <path
       style="fill:none;stroke:#000000;stroke-width:0.264583px;stroke-linecap:butt;stroke-linejoin:miter;stroke-opacity:1;marker-end:url(#TriangleOutM)"
       d="M 9.962693,4.620195 H 24.514776"
       id="path1228" />
    <path
       style="fill:none;stroke:#000000;stroke-width:0.264583px;stroke-linecap:butt;stroke-linejoin:miter;stroke-opacity:1;marker-end:url(#TriangleOutM)"
       d="m 7.316859,20.495192 1e-6,-11.906247"
       id="path1263" />
    <path
       style="fill:none;stroke:#000000;stroke-width:0.270399px;stroke-linecap:butt;stroke-linejoin:miter;stroke-opacity:1;marker-end:url(#TriangleOutM)"
       d="M 11.285609,25.786862 H 23.721026"
       id="path1265" />
    <path
       style="font-variation-settings:normal;vector-effect:none;fill:none;fill-opacity:1;fill-rule:evenodd;stroke:#000000;stroke-width:0.396875;stroke-linecap:butt;stroke-linejoin:miter;stroke-miterlimit:4;stroke-dasharray:none;stroke-dashoffset:0;stroke-opacity:1;marker-end:url(#TriangleOutM);stop-color:#000000"
       id="circle2413"
       d="m 32.452263,25.786852 a 3.9687524,3.9687524 0 0 1 3.81319,3.74742 3.9687524,3.9687524 0 0 1 -3.37804,4.14396 3.9687524,3.9687524 0 0 1 -4.439089,-2.9796" />
    <path
       style="font-variation-settings:normal;vector-effect:none;fill:none;fill-opacity:1;fill-rule:evenodd;stroke:#000000;stroke-width:0.396875;stroke-linecap:butt;stroke-linejoin:miter;stroke-miterlimit:4;stroke-dasharray:none;stroke-dashoffset:0;stroke-opacity:1;marker-end:url(#TriangleOutM);stop-color:#000000"
       id="path985"
       d="m 3.6053824,25.786852 a 3.9687524,3.9687524 0 0 0 -3.81319026,3.74742 3.9687524,3.9687524 0 0 0 3.37804026,4.14396 3.9687524,3.9687524 0 0 0 4.4390881,-2.9796" />
  </g>
</svg>
