<?xml version="1.0" encoding="UTF-8" standalone="no"?>
<!-- Created with Inkscape (http://www.inkscape.org/) -->

<svg
   width="22.73345mm"
   height="21.216532mm"
   viewBox="0 0 22.73345 21.216532"
   version="1.1"
   id="svg5"
   sodipodi:docname="scheduling.svg"
   inkscape:version="1.1 (c4e8f9e, 2021-05-24)"
   xmlns:inkscape="http://www.inkscape.org/namespaces/inkscape"
   xmlns:sodipodi="http://sodipodi.sourceforge.net/DTD/sodipodi-0.dtd"
   xmlns="http://www.w3.org/2000/svg"
   xmlns:svg="http://www.w3.org/2000/svg">
  <sodipodi:namedview
     id="namedview7"
     pagecolor="#ffffff"
     bordercolor="#666666"
     borderopacity="1.0"
     inkscape:pageshadow="2"
     inkscape:pageopacity="0.0"
     inkscape:pagecheckerboard="0"
     inkscape:document-units="mm"
     showgrid="false"
     inkscape:zoom="2.2271324"
     inkscape:cx="103.04731"
     inkscape:cy="34.79811"
     inkscape:window-width="1312"
     inkscape:window-height="847"
     inkscape:window-x="2156"
     inkscape:window-y="68"
     inkscape:window-maximized="0"
     inkscape:current-layer="layer1"
     inkscape:snap-global="false">
    <inkscape:grid
       type="xygrid"
       id="grid824"
       originx="-55.01522"
       originy="-91.093312" />
  </sodipodi:namedview>
  <defs
     id="defs2">
    <marker
       style="overflow:visible"
       id="DotL"
       refX="0"
       refY="0"
       orient="auto"
       inkscape:stockid="DotL"
       inkscape:isstock="true">
      <path
         transform="matrix(0.8,0,0,0.8,5.92,0.8)"
         style="fill:context-stroke;fill-rule:evenodd;stroke:context-stroke;stroke-width:1pt"
         d="m -2.5,-1 c 0,2.76 -2.24,5 -5,5 -2.76,0 -5,-2.24 -5,-5 0,-2.76 2.24,-5 5,-5 2.76,0 5,2.24 5,5 z"
         id="path1004" />
    </marker>
    <defs
       id="id-b1da0e7a-2eff-47a6-a29b-cf32755319ed">
      <g
         id="id-95f1942e-02be-435b-8549-de6694a4a43f">
        <symbol
           overflow="visible"
           id="id-c49abb7c-78f6-4fdc-911b-a1cbb7f4b749">
          <path
             style="stroke:none;stroke-width:0"
             d=""
             id="id-8e17ef35-08ed-4d3e-b2be-241fefeaeeb3" />
        </symbol>
        <symbol
           overflow="visible"
           id="id-2680500d-3764-4bbb-a96a-dbffe8b72d9c">
          <path
             style="stroke:none;stroke-width:0"
             d="m 2.375,-6.8125 c 0,0 0,-0.109375 -0.125,-0.109375 -0.21875,0 -0.953125,0.078125 -1.21875,0.109375 -0.078125,0 -0.1875,0.015625 -0.1875,0.1875 0,0.125 0.09375,0.125 0.25,0.125 0.46875,0 0.484375,0.0625 0.484375,0.171875 0,0.0625 -0.078125,0.40625 -0.125,0.609375 l -0.828125,3.25 c -0.109375,0.5 -0.15625,0.671875 -0.15625,1.015625 0,0.9375 0.53125,1.5625 1.265625,1.5625 1.171875,0 2.40625,-1.484375 2.40625,-2.921875 0,-0.90625 -0.53125,-1.59375 -1.328125,-1.59375 -0.453125,0 -0.875,0.296875 -1.171875,0.59375 z M 1.453125,-3.046875 C 1.5,-3.265625 1.5,-3.28125 1.59375,-3.390625 2.078125,-4.03125 2.53125,-4.1875 2.796875,-4.1875 c 0.359375,0 0.625,0.296875 0.625,0.9375 0,0.59375 -0.328125,1.734375 -0.515625,2.109375 -0.328125,0.671875 -0.78125,1.03125 -1.171875,1.03125 -0.34375,0 -0.671875,-0.265625 -0.671875,-1 0,-0.203125 0,-0.390625 0.15625,-1.015625 z m 0,0"
             id="id-371e3e3b-fe95-49bf-b2c4-8020e3e0710d" />
        </symbol>
        <symbol
           overflow="visible"
           id="id-7a2c09dc-ba00-40fc-9eb5-ae03f4e2c988">
          <path
             style="stroke:none;stroke-width:0"
             d="m 3.953125,-3.78125 c -0.171875,0 -0.296875,0 -0.4375,0.125 -0.171875,0.15625 -0.1875,0.328125 -0.1875,0.390625 0,0.25 0.1875,0.359375 0.375,0.359375 0.28125,0 0.546875,-0.25 0.546875,-0.640625 0,-0.484375 -0.46875,-0.859375 -1.171875,-0.859375 -1.34375,0 -2.671875,1.421875 -2.671875,2.828125 0,0.90625 0.578125,1.6875 1.625,1.6875 1.421875,0 2.25,-1.0625 2.25,-1.171875 0,-0.0625 -0.046875,-0.140625 -0.109375,-0.140625 -0.0625,0 -0.078125,0.03125 -0.140625,0.109375 -0.78125,0.984375 -1.875,0.984375 -1.984375,0.984375 -0.625,0 -0.90625,-0.484375 -0.90625,-1.09375 0,-0.40625 0.203125,-1.375 0.546875,-1.984375 0.3125,-0.578125 0.859375,-1 1.40625,-1 0.328125,0 0.71875,0.125 0.859375,0.40625 z m 0,0"
             id="id-c5d1b66a-f4ff-4c1f-beac-ebeeec862a4a" />
        </symbol>
        <symbol
           overflow="visible"
           id="id-4eb1f649-1235-46d5-9113-4136d4dfcd96">
          <path
             style="stroke:none;stroke-width:0"
             d="m 2.859375,-6.8125 c 0,0 0,-0.109375 -0.125,-0.109375 -0.234375,0 -0.953125,0.078125 -1.21875,0.109375 -0.078125,0 -0.1875,0.015625 -0.1875,0.1875 0,0.125 0.09375,0.125 0.234375,0.125 0.484375,0 0.5,0.0625 0.5,0.171875 L 2.03125,-6.125 0.59375,-0.390625 c -0.046875,0.140625 -0.046875,0.15625 -0.046875,0.21875 0,0.234375 0.203125,0.28125 0.296875,0.28125 0.15625,0 0.3125,-0.125 0.359375,-0.265625 l 0.1875,-0.75 0.21875,-0.890625 C 1.671875,-2.03125 1.734375,-2.25 1.78125,-2.46875 1.796875,-2.53125 1.890625,-2.859375 1.890625,-2.921875 1.921875,-3.015625 2.234375,-3.5625 2.578125,-3.84375 2.796875,-4 3.09375,-4.1875 3.53125,-4.1875 c 0.421875,0 0.53125,0.34375 0.53125,0.703125 0,0.53125 -0.375,1.625 -0.609375,2.234375 C 3.375,-1.03125 3.3125,-0.90625 3.3125,-0.703125 c 0,0.46875 0.359375,0.8125 0.828125,0.8125 0.9375,0 1.296875,-1.453125 1.296875,-1.53125 0,-0.109375 -0.078125,-0.109375 -0.109375,-0.109375 -0.109375,0 -0.109375,0.03125 -0.15625,0.1875 -0.140625,0.53125 -0.46875,1.234375 -1.015625,1.234375 -0.171875,0 -0.234375,-0.09375 -0.234375,-0.328125 0,-0.25 0.078125,-0.484375 0.171875,-0.703125 0.15625,-0.4375 0.609375,-1.625 0.609375,-2.203125 0,-0.640625 -0.390625,-1.0625 -1.140625,-1.0625 -0.625,0 -1.109375,0.3125 -1.484375,0.765625 z m 0,0"
             id="id-a361795a-e08d-421c-bc1b-0e2d29e403a4" />
        </symbol>
        <symbol
           overflow="visible"
           id="id-d7cde9db-8f46-403f-8388-3d96aba180ac">
          <path
             style="stroke:none;stroke-width:0"
             d="m 0.875,-0.59375 c -0.03125,0.15625 -0.09375,0.390625 -0.09375,0.4375 0,0.171875 0.140625,0.265625 0.296875,0.265625 0.125,0 0.296875,-0.078125 0.375,-0.28125 0,-0.015625 0.125,-0.484375 0.1875,-0.734375 l 0.21875,-0.890625 C 1.90625,-2.03125 1.96875,-2.25 2.03125,-2.46875 c 0.03125,-0.171875 0.109375,-0.46875 0.125,-0.5 0.140625,-0.3125 0.671875,-1.21875 1.625,-1.21875 0.453125,0 0.53125,0.375 0.53125,0.703125 0,0.25 -0.0625,0.53125 -0.140625,0.828125 L 3.890625,-1.5 3.6875,-0.75 c -0.03125,0.203125 -0.125,0.546875 -0.125,0.59375 0,0.171875 0.140625,0.265625 0.28125,0.265625 0.3125,0 0.375,-0.25 0.453125,-0.5625 0.140625,-0.5625 0.515625,-2.015625 0.59375,-2.40625 0.03125,-0.125 0.5625,-1.328125 1.65625,-1.328125 0.421875,0 0.53125,0.34375 0.53125,0.703125 0,0.5625 -0.421875,1.703125 -0.625,2.234375 -0.078125,0.234375 -0.125,0.34375 -0.125,0.546875 0,0.46875 0.34375,0.8125 0.8125,0.8125 0.9375,0 1.3125,-1.453125 1.3125,-1.53125 0,-0.109375 -0.09375,-0.109375 -0.125,-0.109375 -0.09375,0 -0.09375,0.03125 -0.140625,0.1875 -0.15625,0.53125 -0.46875,1.234375 -1.015625,1.234375 -0.171875,0 -0.25,-0.09375 -0.25,-0.328125 0,-0.25 0.09375,-0.484375 0.1875,-0.703125 0.1875,-0.53125 0.609375,-1.625 0.609375,-2.203125 0,-0.640625 -0.40625,-1.0625 -1.15625,-1.0625 -0.734375,0 -1.25,0.4375 -1.625,0.96875 0,-0.125 -0.03125,-0.46875 -0.3125,-0.703125 -0.25,-0.21875 -0.5625,-0.265625 -0.8125,-0.265625 -0.90625,0 -1.390625,0.640625 -1.5625,0.875 -0.046875,-0.578125 -0.46875,-0.875 -0.921875,-0.875 -0.453125,0 -0.640625,0.390625 -0.734375,0.5625 -0.171875,0.359375 -0.296875,0.9375 -0.296875,0.96875 0,0.109375 0.09375,0.109375 0.109375,0.109375 0.109375,0 0.109375,-0.015625 0.171875,-0.234375 0.171875,-0.703125 0.375,-1.1875 0.734375,-1.1875 0.15625,0 0.296875,0.078125 0.296875,0.453125 0,0.21875 -0.03125,0.328125 -0.15625,0.84375 z m 0,0"
             id="id-8b023261-bb30-4961-8ee7-789227c032c4" />
        </symbol>
        <symbol
           overflow="visible"
           id="id-c76b7283-efbb-4550-ae06-4cf84863a6e1">
          <path
             style="stroke:none;stroke-width:0"
             d="M 0.453125,1.21875 C 0.375,1.5625 0.34375,1.625 -0.09375,1.625 c -0.109375,0 -0.21875,0 -0.21875,0.1875 0,0.078125 0.046875,0.125 0.125,0.125 0.265625,0 0.5625,-0.03125 0.828125,-0.03125 0.34375,0 0.671875,0.03125 1,0.03125 0.046875,0 0.171875,0 0.171875,-0.203125 C 1.8125,1.625 1.71875,1.625 1.578125,1.625 c -0.5,0 -0.5,-0.0625 -0.5,-0.15625 0,-0.125 0.421875,-1.75 0.484375,-2 0.125,0.296875 0.40625,0.640625 0.921875,0.640625 1.15625,0 2.40625,-1.453125 2.40625,-2.921875 0,-0.9375 -0.578125,-1.59375 -1.328125,-1.59375 -0.5,0 -0.984375,0.359375 -1.3125,0.75 -0.09375,-0.546875 -0.53125,-0.75 -0.890625,-0.75 -0.46875,0 -0.65625,0.390625 -0.734375,0.5625 C 0.4375,-3.5 0.3125,-2.90625 0.3125,-2.875 c 0,0.109375 0.09375,0.109375 0.109375,0.109375 0.109375,0 0.109375,-0.015625 0.171875,-0.234375 0.171875,-0.703125 0.375,-1.1875 0.734375,-1.1875 0.171875,0 0.3125,0.078125 0.3125,0.453125 0,0.234375 -0.03125,0.34375 -0.078125,0.515625 z m 1.75,-4.328125 C 2.265625,-3.375 2.546875,-3.65625 2.71875,-3.8125 c 0.359375,-0.296875 0.640625,-0.375 0.8125,-0.375 0.390625,0 0.640625,0.34375 0.640625,0.9375 0,0.59375 -0.328125,1.734375 -0.515625,2.109375 -0.34375,0.703125 -0.8125,1.03125 -1.1875,1.03125 C 1.8125,-0.109375 1.6875,-0.9375 1.6875,-1 c 0,-0.015625 0,-0.03125 0.03125,-0.15625 z m 0,0"
             id="id-5c1a8643-0334-479f-8425-947fb6afbc2f" />
        </symbol>
      </g>
    </defs>
  </defs>
  <g
     inkscape:label="Layer 1"
     inkscape:groupmode="layer"
     id="layer1"
     transform="translate(-55.01522,-91.093314)">
    <g
       id="g2509">
      <path
         style="color:#000000;fill:#2d2d2d;-inkscape-stroke:none"
         d="m 68.697266,95.15625 -10.582032,10.58398 0.1875,0.1875 10.582032,-10.58398 z"
         id="path1341" />
      <g
         id="path859">
        <path
           style="color:#000000;fill:#2d2d2d;-inkscape-stroke:none"
           d="M 58.076172,95.117187 V 95.25 105.9668 H 68.923828 V 95.117187 Z m 0.265625,0.265625 H 68.658203 V 105.70117 H 58.341797 Z"
           id="path2078" />
        <g
           id="g2026">
          <g
             id="path2068">
            <path
               style="color:#000000;fill:#dc0000;fill-rule:evenodd;stroke-width:0.212pt;-inkscape-stroke:none"
               d="m 57.169533,95.249999 c 0,-0.58512 0.47488,-1.06 1.06,-1.06 0.58512,0 1.06,0.47488 1.06,1.06 0,0.58512 -0.47488,1.06 -1.06,1.06 -0.58512,0 -1.06,-0.47488 -1.06,-1.06 z"
               id="path2072" />
            <path
               style="color:#000000;fill:#dc0000;fill-rule:evenodd;-inkscape-stroke:none"
               d="m 58.230469,94.048828 c -0.66159,0 -1.203125,0.539582 -1.203125,1.201172 0,0.66159 0.541535,1.201172 1.203125,1.201172 0.661589,0 1.201172,-0.539582 1.201172,-1.201172 0,-0.66159 -0.539583,-1.201172 -1.201172,-1.201172 z m 0,0.283203 c 0.508649,0 0.917968,0.40932 0.917968,0.917969 0,0.508649 -0.409319,0.917969 -0.917968,0.917969 -0.50865,0 -0.919922,-0.40932 -0.919922,-0.917969 0,-0.508649 0.411272,-0.917969 0.919922,-0.917969 z"
               id="path2074" />
          </g>
          <g
             id="path2058">
            <path
               style="color:#000000;fill:#dc0000;fill-rule:evenodd;stroke-width:0.212pt;-inkscape-stroke:none"
               d="m 68.057124,94.515457 c 0.413742,-0.413743 1.085324,-0.413743 1.499066,0 0.413742,0.413742 0.413742,1.085324 0,1.499066 -0.413742,0.413742 -1.085324,0.413742 -1.499066,0 -0.413743,-0.413742 -0.413743,-1.085324 0,-1.499066 z"
               id="path2062" />
            <path
               style="color:#000000;fill:#2d2d2d;fill-rule:evenodd;-inkscape-stroke:none"
               d="m 68.806641,94.064453 c -0.307782,0 -0.615703,0.117655 -0.84961,0.351563 -0.467815,0.467814 -0.467815,1.231404 0,1.699218 0.467814,0.467815 1.231405,0.467815 1.699219,0 0.467814,-0.467814 0.467814,-1.231404 0,-1.699218 -0.233907,-0.233908 -0.541828,-0.351563 -0.849609,-0.351563 z m 0,0.28125 c 0.23488,0 0.470556,0.0897 0.65039,0.269531 0.359669,0.359669 0.359669,0.93916 0,1.298828 -0.359669,0.359669 -0.941112,0.359669 -1.300781,0 -0.35967,-0.359669 -0.35967,-0.939159 0,-1.298828 0.179835,-0.179835 0.415511,-0.269531 0.650391,-0.269531 z"
               id="path2064" />
          </g>
          <g
             id="path2048">
            <path
               style="color:#000000;fill:#dc0000;fill-rule:evenodd;stroke-width:0.212pt;-inkscape-stroke:none"
               d="m 69.526208,105.09879 c 0.413743,0.41374 0.413743,1.08532 0,1.49906 -0.413742,0.41375 -1.085324,0.41375 -1.499066,0 -0.413742,-0.41374 -0.413742,-1.08532 0,-1.49906 0.413742,-0.41374 1.085324,-0.41374 1.499066,0 z"
               id="path2052" />
            <path
               style="color:#000000;fill:#dc0000;fill-rule:evenodd;-inkscape-stroke:none"
               d="m 68.777344,104.64844 c -0.307781,0 -0.615702,0.1157 -0.84961,0.34961 -0.467814,0.46781 -0.467814,1.2314 0,1.69922 0.467814,0.46782 1.231405,0.46782 1.699219,0 0.467816,-0.46782 0.467816,-1.23141 0,-1.69922 -0.233907,-0.23391 -0.541828,-0.34961 -0.849609,-0.34961 z m 0,0.28125 c 0.23488,0 0.468603,0.0897 0.648437,0.26953 0.35967,0.35967 0.35967,0.93916 0,1.29883 -0.359669,0.35967 -0.939158,0.35967 -1.298828,0 -0.359669,-0.35967 -0.359669,-0.93916 0,-1.29883 0.179835,-0.17983 0.415511,-0.26953 0.650391,-0.26953 z"
               id="path2054" />
          </g>
          <g
             id="path2038">
            <path
               style="color:#000000;fill:#dc0000;fill-rule:evenodd;stroke-width:0.212pt;-inkscape-stroke:none"
               d="m 58.942875,106.56787 c -0.413742,0.41374 -1.085324,0.41374 -1.499066,0 -0.413742,-0.41374 -0.413742,-1.08532 0,-1.49906 0.413742,-0.41375 1.085324,-0.41375 1.499066,0 0.413743,0.41374 0.413743,1.08532 0,1.49906 z"
               id="path2042" />
            <path
               style="color:#000000;fill:#2d2d2d;fill-rule:evenodd;-inkscape-stroke:none"
               d="m 58.193359,104.61719 c -0.307782,0 -0.615702,0.11765 -0.849609,0.35156 -0.467814,0.46781 -0.467814,1.23141 0,1.69922 0.467814,0.46781 1.231404,0.46781 1.699219,0 0.467815,-0.46781 0.467815,-1.23141 0,-1.69922 -0.233907,-0.23391 -0.541828,-0.35156 -0.84961,-0.35156 z m 0,0.28125 c 0.23488,0 0.470556,0.0897 0.650391,0.26953 0.35967,0.35967 0.35967,0.94111 0,1.30078 -0.359669,0.35967 -0.941112,0.35967 -1.300781,0 -0.359669,-0.35967 -0.359669,-0.94111 0,-1.30078 0.179834,-0.17984 0.415511,-0.26953 0.65039,-0.26953 z"
               id="path2044" />
          </g>
          <g
             id="path2028">
            <path
               style="color:#000000;fill:#dc0000;fill-rule:evenodd;stroke-width:0.212pt;-inkscape-stroke:none"
               d="m 58.208333,96.288799 c -0.58512,0 -1.06,-0.47488 -1.06,-1.06 0,-0.58512 0.47488,-1.06 1.06,-1.06 0.58512,0 1.06,0.47488 1.06,1.06 0,0.58512 -0.47488,1.06 -1.06,1.06 z"
               id="path2032" />
            <path
               style="color:#000000;fill:#2d2d2d;fill-rule:evenodd;-inkscape-stroke:none"
               d="m 58.208984,94.027344 c -0.661589,0 -1.201172,0.539582 -1.201172,1.201172 0,0.661589 0.539583,1.201171 1.201172,1.201171 0.66159,0 1.201172,-0.539582 1.201172,-1.201171 0,-0.66159 -0.539582,-1.201172 -1.201172,-1.201172 z m 0,0.283203 c 0.50865,0 0.917969,0.409319 0.917969,0.917969 0,0.508649 -0.409319,0.919921 -0.917969,0.919921 -0.508649,0 -0.919922,-0.411272 -0.919922,-0.919921 0,-0.50865 0.411273,-0.917969 0.919922,-0.917969 z"
               id="path2034" />
          </g>
        </g>
      </g>
      <g
         id="path861"
         style="fill:#dc0000">
        <path
           style="color:#000000;fill:#2d2d2d;-inkscape-stroke:none"
           d="m 68.884766,105.74023 -0.1875,0.1875 5.292968,5.29102 0.1875,-0.1875 z"
           id="path1811" />
        <g
           id="g1789"
           style="fill:#dc0000">
          <g
             id="path1801"
             style="fill:#dc0000">
            <path
               style="color:#000000;fill:#dc0000;fill-rule:evenodd;stroke-width:0.212pt;-inkscape-stroke:none"
               d="m 74.817874,111.85954 c -0.413742,0.41374 -1.085324,0.41374 -1.499066,0 -0.413742,-0.41374 -0.413742,-1.08532 0,-1.49906 0.413743,-0.41375 1.085325,-0.41375 1.499067,0 0.413742,0.41374 0.413742,1.08532 -10e-7,1.49906 z"
               id="path1805" />
            <path
               style="color:#000000;fill:#2d2d2d;fill-rule:evenodd;-inkscape-stroke:none"
               d="m 74.068359,109.91016 c -0.307782,0 -0.615702,0.11569 -0.849609,0.34961 -0.467814,0.46781 -0.467814,1.2314 0,1.69921 0.467814,0.46782 1.231404,0.46782 1.699219,0 0.467815,-0.46781 0.467814,-1.2314 0,-1.69921 -0.233907,-0.23392 -0.541828,-0.34961 -0.84961,-0.34961 z m 0,0.28125 c 0.23488,0 0.470556,0.0897 0.650391,0.26953 0.359669,0.35966 0.35967,0.93916 0,1.29883 -0.359669,0.35966 -0.941112,0.35966 -1.300781,0 -0.359669,-0.35967 -0.359669,-0.93917 0,-1.29883 0.179835,-0.17984 0.415511,-0.26953 0.65039,-0.26953 z"
               id="path1807" />
          </g>
          <g
             id="path1791"
             style="fill:#dc0000">
            <path
               style="color:#000000;fill:#dc0000;fill-rule:evenodd;stroke-width:0.212pt;-inkscape-stroke:none"
               d="m 69.526208,106.56787 c -0.413742,0.41374 -1.085324,0.41374 -1.499066,0 -0.413742,-0.41374 -0.413742,-1.08532 0,-1.49906 0.413743,-0.41375 1.085325,-0.41375 1.499067,0 0.413742,0.41374 0.413742,1.08532 -10e-7,1.49906 z"
               id="path1795" />
            <path
               style="color:#000000;fill:#2d2d2d;fill-rule:evenodd;-inkscape-stroke:none"
               d="m 68.777344,104.61719 c -0.307782,0 -0.615702,0.11765 -0.84961,0.35156 -0.467814,0.46781 -0.467814,1.23141 0,1.69922 0.467815,0.46781 1.231405,0.46781 1.699219,0 0.467816,-0.46781 0.467815,-1.23141 0,-1.69922 -0.233907,-0.23391 -0.541827,-0.35156 -0.849609,-0.35156 z m 0,0.28125 c 0.234879,0 0.468603,0.0897 0.648437,0.26953 0.359669,0.35967 0.35967,0.94111 0,1.30078 -0.359669,0.35967 -0.939159,0.35967 -1.298828,0 -0.359669,-0.35967 -0.359669,-0.94111 0,-1.30078 0.179835,-0.17984 0.415511,-0.26953 0.650391,-0.26953 z"
               id="path1797" />
          </g>
        </g>
      </g>
      <g
         transform="matrix(0.375579,0,0,0.375579,54.839167,93.693025)"
         id="g1242"
         style="fill:#000000;fill-opacity:1">
        <path
           style="stroke:none;stroke-width:0"
           d="m 2.375,-6.8125 c 0,0 0,-0.109375 -0.125,-0.109375 -0.21875,0 -0.953125,0.078125 -1.21875,0.109375 -0.078125,0 -0.1875,0.015625 -0.1875,0.1875 0,0.125 0.09375,0.125 0.25,0.125 0.46875,0 0.484375,0.0625 0.484375,0.171875 0,0.0625 -0.078125,0.40625 -0.125,0.609375 l -0.828125,3.25 c -0.109375,0.5 -0.15625,0.671875 -0.15625,1.015625 0,0.9375 0.53125,1.5625 1.265625,1.5625 1.171875,0 2.40625,-1.484375 2.40625,-2.921875 0,-0.90625 -0.53125,-1.59375 -1.328125,-1.59375 -0.453125,0 -0.875,0.296875 -1.171875,0.59375 z M 1.453125,-3.046875 C 1.5,-3.265625 1.5,-3.28125 1.59375,-3.390625 2.078125,-4.03125 2.53125,-4.1875 2.796875,-4.1875 c 0.359375,0 0.625,0.296875 0.625,0.9375 0,0.59375 -0.328125,1.734375 -0.515625,2.109375 -0.328125,0.671875 -0.78125,1.03125 -1.171875,1.03125 -0.34375,0 -0.671875,-0.265625 -0.671875,-1 0,-0.203125 0,-0.390625 0.15625,-1.015625 z m 0,0"
           id="id-6da80010-81d4-46bb-9e6c-ee7131a3a2dd" />
      </g>
      <g
         transform="matrix(0.375579,0,0,0.375579,54.933985,108.91962)"
         id="g1245"
         style="fill:#000000;fill-opacity:1">
        <path
           style="stroke:none;stroke-width:0"
           d="m 3.953125,-3.78125 c -0.171875,0 -0.296875,0 -0.4375,0.125 -0.171875,0.15625 -0.1875,0.328125 -0.1875,0.390625 0,0.25 0.1875,0.359375 0.375,0.359375 0.28125,0 0.546875,-0.25 0.546875,-0.640625 0,-0.484375 -0.46875,-0.859375 -1.171875,-0.859375 -1.34375,0 -2.671875,1.421875 -2.671875,2.828125 0,0.90625 0.578125,1.6875 1.625,1.6875 1.421875,0 2.25,-1.0625 2.25,-1.171875 0,-0.0625 -0.046875,-0.140625 -0.109375,-0.140625 -0.0625,0 -0.078125,0.03125 -0.140625,0.109375 -0.78125,0.984375 -1.875,0.984375 -1.984375,0.984375 -0.625,0 -0.90625,-0.484375 -0.90625,-1.09375 0,-0.40625 0.203125,-1.375 0.546875,-1.984375 0.3125,-0.578125 0.859375,-1 1.40625,-1 0.328125,0 0.71875,0.125 0.859375,0.40625 z m 0,0"
           id="id-5aeba6aa-8c6a-4bc3-83b9-8ba075c516e0" />
      </g>
      <g
         transform="matrix(0.375579,0,0,0.375579,75.706459,109.75967)"
         id="g1248"
         style="fill:#000000;fill-opacity:1">
        <path
           style="stroke:none;stroke-width:0"
           d="m 2.859375,-6.8125 c 0,0 0,-0.109375 -0.125,-0.109375 -0.234375,0 -0.953125,0.078125 -1.21875,0.109375 -0.078125,0 -0.1875,0.015625 -0.1875,0.1875 0,0.125 0.09375,0.125 0.234375,0.125 0.484375,0 0.5,0.0625 0.5,0.171875 L 2.03125,-6.125 0.59375,-0.390625 c -0.046875,0.140625 -0.046875,0.15625 -0.046875,0.21875 0,0.234375 0.203125,0.28125 0.296875,0.28125 0.15625,0 0.3125,-0.125 0.359375,-0.265625 l 0.1875,-0.75 0.21875,-0.890625 C 1.671875,-2.03125 1.734375,-2.25 1.78125,-2.46875 1.796875,-2.53125 1.890625,-2.859375 1.890625,-2.921875 1.921875,-3.015625 2.234375,-3.5625 2.578125,-3.84375 2.796875,-4 3.09375,-4.1875 3.53125,-4.1875 c 0.421875,0 0.53125,0.34375 0.53125,0.703125 0,0.53125 -0.375,1.625 -0.609375,2.234375 C 3.375,-1.03125 3.3125,-0.90625 3.3125,-0.703125 c 0,0.46875 0.359375,0.8125 0.828125,0.8125 0.9375,0 1.296875,-1.453125 1.296875,-1.53125 0,-0.109375 -0.078125,-0.109375 -0.109375,-0.109375 -0.109375,0 -0.109375,0.03125 -0.15625,0.1875 -0.140625,0.53125 -0.46875,1.234375 -1.015625,1.234375 -0.171875,0 -0.234375,-0.09375 -0.234375,-0.328125 0,-0.25 0.078125,-0.484375 0.171875,-0.703125 0.15625,-0.4375 0.609375,-1.625 0.609375,-2.203125 0,-0.640625 -0.390625,-1.0625 -1.140625,-1.0625 -0.625,0 -1.109375,0.3125 -1.484375,0.765625 z m 0,0"
           id="id-0a4a62ef-6c7d-47ec-9145-8fc7b975c148" />
      </g>
      <g
         transform="matrix(0.375579,0,0,0.375579,70.805922,94.302879)"
         id="g1251"
         style="fill:#000000;fill-opacity:1">
        <path
           style="stroke:none;stroke-width:0"
           d="m 0.875,-0.59375 c -0.03125,0.15625 -0.09375,0.390625 -0.09375,0.4375 0,0.171875 0.140625,0.265625 0.296875,0.265625 0.125,0 0.296875,-0.078125 0.375,-0.28125 0,-0.015625 0.125,-0.484375 0.1875,-0.734375 l 0.21875,-0.890625 C 1.90625,-2.03125 1.96875,-2.25 2.03125,-2.46875 c 0.03125,-0.171875 0.109375,-0.46875 0.125,-0.5 0.140625,-0.3125 0.671875,-1.21875 1.625,-1.21875 0.453125,0 0.53125,0.375 0.53125,0.703125 0,0.25 -0.0625,0.53125 -0.140625,0.828125 L 3.890625,-1.5 3.6875,-0.75 c -0.03125,0.203125 -0.125,0.546875 -0.125,0.59375 0,0.171875 0.140625,0.265625 0.28125,0.265625 0.3125,0 0.375,-0.25 0.453125,-0.5625 0.140625,-0.5625 0.515625,-2.015625 0.59375,-2.40625 0.03125,-0.125 0.5625,-1.328125 1.65625,-1.328125 0.421875,0 0.53125,0.34375 0.53125,0.703125 0,0.5625 -0.421875,1.703125 -0.625,2.234375 -0.078125,0.234375 -0.125,0.34375 -0.125,0.546875 0,0.46875 0.34375,0.8125 0.8125,0.8125 0.9375,0 1.3125,-1.453125 1.3125,-1.53125 0,-0.109375 -0.09375,-0.109375 -0.125,-0.109375 -0.09375,0 -0.09375,0.03125 -0.140625,0.1875 -0.15625,0.53125 -0.46875,1.234375 -1.015625,1.234375 -0.171875,0 -0.25,-0.09375 -0.25,-0.328125 0,-0.25 0.09375,-0.484375 0.1875,-0.703125 0.1875,-0.53125 0.609375,-1.625 0.609375,-2.203125 0,-0.640625 -0.40625,-1.0625 -1.15625,-1.0625 -0.734375,0 -1.25,0.4375 -1.625,0.96875 0,-0.125 -0.03125,-0.46875 -0.3125,-0.703125 -0.25,-0.21875 -0.5625,-0.265625 -0.8125,-0.265625 -0.90625,0 -1.390625,0.640625 -1.5625,0.875 -0.046875,-0.578125 -0.46875,-0.875 -0.921875,-0.875 -0.453125,0 -0.640625,0.390625 -0.734375,0.5625 -0.171875,0.359375 -0.296875,0.9375 -0.296875,0.96875 0,0.109375 0.09375,0.109375 0.109375,0.109375 0.109375,0 0.109375,-0.015625 0.171875,-0.234375 0.171875,-0.703125 0.375,-1.1875 0.734375,-1.1875 0.15625,0 0.296875,0.078125 0.296875,0.453125 0,0.21875 -0.03125,0.328125 -0.15625,0.84375 z m 0,0"
           id="id-6731eaf3-1d32-4e99-8d6a-f2b79b424f18" />
      </g>
      <g
         transform="matrix(0.375579,0,0,0.375579,70.226914,103.87937)"
         id="g1254"
         style="fill:#000000;fill-opacity:1">
        <path
           style="stroke:none;stroke-width:0"
           d="M 0.453125,1.21875 C 0.375,1.5625 0.34375,1.625 -0.09375,1.625 c -0.109375,0 -0.21875,0 -0.21875,0.1875 0,0.078125 0.046875,0.125 0.125,0.125 0.265625,0 0.5625,-0.03125 0.828125,-0.03125 0.34375,0 0.671875,0.03125 1,0.03125 0.046875,0 0.171875,0 0.171875,-0.203125 C 1.8125,1.625 1.71875,1.625 1.578125,1.625 c -0.5,0 -0.5,-0.0625 -0.5,-0.15625 0,-0.125 0.421875,-1.75 0.484375,-2 0.125,0.296875 0.40625,0.640625 0.921875,0.640625 1.15625,0 2.40625,-1.453125 2.40625,-2.921875 0,-0.9375 -0.578125,-1.59375 -1.328125,-1.59375 -0.5,0 -0.984375,0.359375 -1.3125,0.75 -0.09375,-0.546875 -0.53125,-0.75 -0.890625,-0.75 -0.46875,0 -0.65625,0.390625 -0.734375,0.5625 C 0.4375,-3.5 0.3125,-2.90625 0.3125,-2.875 c 0,0.109375 0.09375,0.109375 0.109375,0.109375 0.109375,0 0.109375,-0.015625 0.171875,-0.234375 0.171875,-0.703125 0.375,-1.1875 0.734375,-1.1875 0.171875,0 0.3125,0.078125 0.3125,0.453125 0,0.234375 -0.03125,0.34375 -0.078125,0.515625 z m 1.75,-4.328125 C 2.265625,-3.375 2.546875,-3.65625 2.71875,-3.8125 c 0.359375,-0.296875 0.640625,-0.375 0.8125,-0.375 0.390625,0 0.640625,0.34375 0.640625,0.9375 0,0.59375 -0.328125,1.734375 -0.515625,2.109375 -0.34375,0.703125 -0.8125,1.03125 -1.1875,1.03125 C 1.8125,-0.109375 1.6875,-0.9375 1.6875,-1 c 0,-0.015625 0,-0.03125 0.03125,-0.15625 z m 0,0"
           id="id-349e3350-e791-45ee-b936-5d6c92f83172" />
      </g>
    </g>
  </g>
</svg>
