<?xml version="1.0" encoding="UTF-8" standalone="no"?>
<!-- Created with Inkscape (http://www.inkscape.org/) -->

<svg
   width="45.956192mm"
   height="40.564934mm"
   viewBox="0 0 45.956192 40.564934"
   version="1.1"
   id="svg5"
   inkscape:version="1.1 (c4e8f9e, 2021-05-24)"
   sodipodi:docname="sqs_pyrmaid.svg"
   xmlns:inkscape="http://www.inkscape.org/namespaces/inkscape"
   xmlns:sodipodi="http://sodipodi.sourceforge.net/DTD/sodipodi-0.dtd"
   xmlns="http://www.w3.org/2000/svg"
   xmlns:svg="http://www.w3.org/2000/svg"
   xmlns:ns18="http://www.iki.fi/pav/software/textext/">
  <sodipodi:namedview
     id="namedview7"
     pagecolor="#ffffff"
     bordercolor="#666666"
     borderopacity="1.0"
     inkscape:pageshadow="2"
     inkscape:pageopacity="0.0"
     inkscape:pagecheckerboard="0"
     inkscape:document-units="mm"
     showgrid="false"
     inkscape:zoom="2.1818063"
     inkscape:cx="111.14644"
     inkscape:cy="93.729679"
     inkscape:window-width="1312"
     inkscape:window-height="847"
     inkscape:window-x="0"
     inkscape:window-y="25"
     inkscape:window-maximized="0"
     inkscape:current-layer="layer1">
    <inkscape:grid
       type="xygrid"
       id="grid824"
       originx="-62.655249"
       originy="-84.534374" />
  </sodipodi:namedview>
  <defs
     id="defs2">
    <defs
       id="id-b08078d4-a7d9-4df8-86ed-f55cc2509518">
      <g
         id="id-72bd4563-8cb4-4f2c-99c9-8ef93a65450b">
        <symbol
           overflow="visible"
           id="id-76f01137-4c70-4fa2-8f94-52bc3d79bd49">
          <path
             style="stroke:none;stroke-width:0"
             d=""
             id="id-8825d22e-da32-4b76-82df-24bf821ac4fc" />
        </symbol>
        <symbol
           overflow="visible"
           id="id-67a36a08-611d-4ff5-933b-ff062693629a">
          <path
             style="stroke:none;stroke-width:0"
             d="m 2.828125,-6.234375 c 0,-0.203125 -0.140625,-0.359375 -0.359375,-0.359375 -0.28125,0 -0.546875,0.265625 -0.546875,0.53125 0,0.1875 0.140625,0.359375 0.375,0.359375 0.234375,0 0.53125,-0.234375 0.53125,-0.53125 z m -0.75,3.75 c 0.109375,-0.28125 0.109375,-0.3125 0.21875,-0.578125 0.078125,-0.203125 0.125,-0.34375 0.125,-0.53125 0,-0.4375 -0.3125,-0.8125 -0.8125,-0.8125 -0.9375,0 -1.3125,1.453125 -1.3125,1.53125 0,0.109375 0.09375,0.109375 0.109375,0.109375 0.109375,0 0.109375,-0.03125 0.15625,-0.1875 0.28125,-0.9375 0.671875,-1.234375 1.015625,-1.234375 0.078125,0 0.25,0 0.25,0.3125 0,0.21875 -0.078125,0.421875 -0.109375,0.53125 -0.078125,0.25 -0.53125,1.40625 -0.6875,1.84375 -0.109375,0.25 -0.234375,0.578125 -0.234375,0.796875 0,0.46875 0.34375,0.8125 0.8125,0.8125 0.9375,0 1.3125,-1.4375 1.3125,-1.53125 0,-0.109375 -0.09375,-0.109375 -0.125,-0.109375 -0.09375,0 -0.09375,0.03125 -0.140625,0.1875 -0.1875,0.625 -0.515625,1.234375 -1.015625,1.234375 -0.171875,0 -0.25,-0.09375 -0.25,-0.328125 0,-0.25 0.0625,-0.390625 0.296875,-1 z m 0,0"
             id="id-44d6f249-750d-4bb1-b36b-3fb6f56fee97" />
        </symbol>
        <symbol
           overflow="visible"
           id="id-7d1d16b6-4b36-4406-bd69-0d1a7be57a93">
          <path
             style="stroke:none;stroke-width:0"
             d=""
             id="id-6e0d6a15-cdad-4675-869d-fe65ea73107a" />
        </symbol>
        <symbol
           overflow="visible"
           id="id-347746c6-2045-405f-8bc1-d3df35cb5e10">
          <path
             style="stroke:none;stroke-width:0"
             d="m 6.84375,-3.265625 c 0.15625,0 0.34375,0 0.34375,-0.1875 C 7.1875,-3.65625 7,-3.65625 6.859375,-3.65625 h -5.96875 c -0.140625,0 -0.328125,0 -0.328125,0.203125 0,0.1875 0.1875,0.1875 0.328125,0.1875 z m 0.015625,1.9375 c 0.140625,0 0.328125,0 0.328125,-0.203125 0,-0.1875 -0.1875,-0.1875 -0.34375,-0.1875 H 0.890625 c -0.140625,0 -0.328125,0 -0.328125,0.1875 0,0.203125 0.1875,0.203125 0.328125,0.203125 z m 0,0"
             id="id-a6b07344-86e4-4fb9-b5cb-7059c6d5fc18" />
        </symbol>
        <symbol
           overflow="visible"
           id="id-7e586c83-0534-47fa-941f-0dbe0f260be9">
          <path
             style="stroke:none;stroke-width:0"
             d="m 2.9375,-6.375 c 0,-0.25 0,-0.265625 -0.234375,-0.265625 C 2.078125,-6 1.203125,-6 0.890625,-6 v 0.3125 c 0.203125,0 0.78125,0 1.296875,-0.265625 v 5.171875 c 0,0.359375 -0.03125,0.46875 -0.921875,0.46875 h -0.3125 V 0 c 0.34375,-0.03125 1.203125,-0.03125 1.609375,-0.03125 0.390625,0 1.265625,0 1.609375,0.03125 v -0.3125 h -0.3125 c -0.90625,0 -0.921875,-0.109375 -0.921875,-0.46875 z m 0,0"
             id="id-4998674b-8f09-4bc1-948b-f34cf009bd89" />
        </symbol>
        <symbol
           overflow="visible"
           id="id-24ce587f-f10e-478b-9785-a7663392654f">
          <path
             style="stroke:none;stroke-width:0"
             d="m 1.265625,-0.765625 1.0625,-1.03125 c 1.546875,-1.375 2.140625,-1.90625 2.140625,-2.90625 0,-1.140625 -0.890625,-1.9375 -2.109375,-1.9375 -1.125,0 -1.859375,0.921875 -1.859375,1.8125 0,0.546875 0.5,0.546875 0.53125,0.546875 0.171875,0 0.515625,-0.109375 0.515625,-0.53125 0,-0.25 -0.1875,-0.515625 -0.53125,-0.515625 -0.078125,0 -0.09375,0 -0.125,0.015625 0.21875,-0.65625 0.765625,-1.015625 1.34375,-1.015625 0.90625,0 1.328125,0.8125 1.328125,1.625 C 3.5625,-3.90625 3.078125,-3.125 2.515625,-2.5 l -1.90625,2.125 C 0.5,-0.265625 0.5,-0.234375 0.5,0 H 4.203125 L 4.46875,-1.734375 H 4.234375 C 4.171875,-1.4375 4.109375,-1 4,-0.84375 3.9375,-0.765625 3.28125,-0.765625 3.0625,-0.765625 Z m 0,0"
             id="id-5ecfc050-46cc-48a9-90f3-8e3548d66f9f" />
        </symbol>
        <symbol
           overflow="visible"
           id="id-a52c8263-a71e-431f-983f-fcd3acc9e257">
          <path
             style="stroke:none;stroke-width:0"
             d="m 2.890625,-3.515625 c 0.8125,-0.265625 1.390625,-0.953125 1.390625,-1.75 0,-0.8125 -0.875,-1.375 -1.828125,-1.375 -1,0 -1.765625,0.59375 -1.765625,1.359375 0,0.328125 0.21875,0.515625 0.515625,0.515625 0.296875,0 0.5,-0.21875 0.5,-0.515625 0,-0.484375 -0.46875,-0.484375 -0.609375,-0.484375 0.296875,-0.5 0.953125,-0.625 1.3125,-0.625 0.421875,0 0.96875,0.21875 0.96875,1.109375 0,0.125 -0.03125,0.703125 -0.28125,1.140625 C 2.796875,-3.65625 2.453125,-3.625 2.203125,-3.625 2.125,-3.609375 1.890625,-3.59375 1.8125,-3.59375 c -0.078125,0.015625 -0.140625,0.03125 -0.140625,0.125 0,0.109375 0.0625,0.109375 0.234375,0.109375 h 0.4375 c 0.8125,0 1.1875,0.671875 1.1875,1.65625 0,1.359375 -0.6875,1.640625 -1.125,1.640625 -0.4375,0 -1.1875,-0.171875 -1.53125,-0.75 0.34375,0.046875 0.65625,-0.171875 0.65625,-0.546875 0,-0.359375 -0.265625,-0.5625 -0.546875,-0.5625 -0.25,0 -0.5625,0.140625 -0.5625,0.578125 0,0.90625 0.921875,1.5625 2.015625,1.5625 1.21875,0 2.125,-0.90625 2.125,-1.921875 0,-0.8125 -0.640625,-1.59375 -1.671875,-1.8125 z m 0,0"
             id="id-aa578990-be71-4ddc-9f8b-7bfab9d0571d" />
        </symbol>
        <symbol
           overflow="visible"
           id="id-39d10525-8fb4-4ac7-aac7-7cb17a29da67">
          <path
             style="stroke:none;stroke-width:0"
             d="m 2.9375,-1.640625 v 0.859375 c 0,0.359375 -0.03125,0.46875 -0.765625,0.46875 H 1.96875 V 0 C 2.375,-0.03125 2.890625,-0.03125 3.3125,-0.03125 c 0.421875,0 0.9375,0 1.359375,0.03125 v -0.3125 h -0.21875 c -0.734375,0 -0.75,-0.109375 -0.75,-0.46875 V -1.640625 H 4.6875 v -0.3125 H 3.703125 v -4.53125 c 0,-0.203125 0,-0.265625 -0.171875,-0.265625 -0.078125,0 -0.109375,0 -0.1875,0.125 l -3.0625,4.671875 v 0.3125 z m 0.046875,-0.3125 H 0.5625 l 2.421875,-3.71875 z m 0,0"
             id="id-0019bb65-e152-42ce-b375-64d36320e13f" />
        </symbol>
        <symbol
           overflow="visible"
           id="id-32d71cf7-a859-4d74-a9f2-8b598a13fac9">
          <path
             style="stroke:none;stroke-width:0"
             d="m 4.46875,-2 c 0,-1.1875 -0.8125,-2.1875 -1.890625,-2.1875 -0.46875,0 -0.90625,0.15625 -1.265625,0.515625 V -5.625 c 0.203125,0.0625 0.53125,0.125 0.84375,0.125 1.234375,0 1.9375,-0.90625 1.9375,-1.03125 0,-0.0625 -0.03125,-0.109375 -0.109375,-0.109375 0,0 -0.03125,0 -0.078125,0.03125 C 3.703125,-6.515625 3.21875,-6.3125 2.546875,-6.3125 2.15625,-6.3125 1.6875,-6.390625 1.21875,-6.59375 1.140625,-6.625 1.125,-6.625 1.109375,-6.625 1,-6.625 1,-6.546875 1,-6.390625 V -3.4375 c 0,0.171875 0,0.25 0.140625,0.25 0.078125,0 0.09375,-0.015625 0.140625,-0.078125 C 1.390625,-3.421875 1.75,-3.96875 2.5625,-3.96875 c 0.515625,0 0.765625,0.453125 0.84375,0.640625 0.15625,0.375 0.1875,0.75 0.1875,1.25 0,0.359375 0,0.953125 -0.25,1.375 C 3.109375,-0.3125 2.734375,-0.0625 2.28125,-0.0625 c -0.71875,0 -1.296875,-0.53125 -1.46875,-1.109375 0.03125,0 0.0625,0.015625 0.171875,0.015625 0.328125,0 0.5,-0.25 0.5,-0.484375 0,-0.25 -0.171875,-0.5 -0.5,-0.5 C 0.84375,-2.140625 0.5,-2.0625 0.5,-1.609375 0.5,-0.75 1.1875,0.21875 2.296875,0.21875 3.453125,0.21875 4.46875,-0.734375 4.46875,-2 Z m 0,0"
             id="id-f70e3b22-cbeb-4a03-a85a-9c6cf54456ec" />
        </symbol>
        <symbol
           overflow="visible"
           id="id-116628a7-8687-497e-b017-967c01f6da63">
          <path
             style="stroke:none;stroke-width:0"
             d="m 1.3125,-3.265625 v -0.25 c 0,-2.515625 1.234375,-2.875 1.75,-2.875 0.234375,0 0.65625,0.0625 0.875,0.40625 -0.15625,0 -0.546875,0 -0.546875,0.4375 0,0.3125 0.234375,0.46875 0.453125,0.46875 0.15625,0 0.46875,-0.09375 0.46875,-0.484375 0,-0.59375 -0.4375,-1.078125 -1.265625,-1.078125 -1.28125,0 -2.625,1.28125 -2.625,3.484375 0,2.671875 1.15625,3.375 2.078125,3.375 1.109375,0 2.0625,-0.9375 2.0625,-2.25 0,-1.265625 -0.890625,-2.21875 -2,-2.21875 -0.671875,0 -1.046875,0.5 -1.25,0.984375 z M 2.5,-0.0625 c -0.625,0 -0.921875,-0.59375 -0.984375,-0.75 -0.1875,-0.46875 -0.1875,-1.265625 -0.1875,-1.4375 0,-0.78125 0.328125,-1.78125 1.21875,-1.78125 0.171875,0 0.625,0 0.9375,0.625 0.171875,0.359375 0.171875,0.875 0.171875,1.359375 0,0.484375 0,0.984375 -0.171875,1.34375 C 3.1875,-0.109375 2.734375,-0.0625 2.5,-0.0625 Z m 0,0"
             id="id-cb420cdd-b734-4d69-b0fc-1c9840bcf9d3" />
        </symbol>
      </g>
    </defs>
  </defs>
  <g
     inkscape:label="Layer 1"
     inkscape:groupmode="layer"
     id="layer1"
     transform="translate(-62.655247,-84.534373)">
    <g
       id="g2260">
      <rect
         style="font-variation-settings:normal;opacity:1;vector-effect:none;fill:#007fff;fill-opacity:1;fill-rule:evenodd;stroke:#000000;stroke-width:0.264583;stroke-linecap:butt;stroke-linejoin:miter;stroke-miterlimit:4;stroke-dasharray:none;stroke-dashoffset:0;stroke-opacity:1;stop-color:#000000;stop-opacity:1"
         id="rect848"
         width="5.2916665"
         height="5.2916665"
         x="89.958336"
         y="84.666664" />
      <rect
         style="font-variation-settings:normal;opacity:1;vector-effect:none;fill:#00ffff;fill-opacity:1;fill-rule:evenodd;stroke:#000000;stroke-width:0.264583;stroke-linecap:butt;stroke-linejoin:miter;stroke-miterlimit:4;stroke-dasharray:none;stroke-dashoffset:0;stroke-opacity:1;stop-color:#000000;stop-opacity:1"
         id="rect930"
         width="5.2916665"
         height="5.2916665"
         x="87.312508"
         y="89.944679" />
      <rect
         style="font-variation-settings:normal;opacity:1;vector-effect:none;fill:#00ffff;fill-opacity:1;fill-rule:evenodd;stroke:#000000;stroke-width:0.264583;stroke-linecap:butt;stroke-linejoin:miter;stroke-miterlimit:4;stroke-dasharray:none;stroke-dashoffset:0;stroke-opacity:1;stop-color:#000000;stop-opacity:1"
         id="rect932"
         width="5.2916665"
         height="5.2916665"
         x="92.604164"
         y="89.958328" />
      <rect
         style="font-variation-settings:normal;opacity:1;vector-effect:none;fill:#7fff7f;fill-opacity:1;fill-rule:evenodd;stroke:#000000;stroke-width:0.264583;stroke-linecap:butt;stroke-linejoin:miter;stroke-miterlimit:4;stroke-dasharray:none;stroke-dashoffset:0;stroke-opacity:1;stop-color:#000000;stop-opacity:1"
         id="rect934"
         width="5.2916665"
         height="5.2916665"
         x="84.666679"
         y="95.249992" />
      <rect
         style="font-variation-settings:normal;opacity:1;vector-effect:none;fill:#7fff7f;fill-opacity:1;fill-rule:evenodd;stroke:#000000;stroke-width:0.264583;stroke-linecap:butt;stroke-linejoin:miter;stroke-miterlimit:4;stroke-dasharray:none;stroke-dashoffset:0;stroke-opacity:1;stop-color:#000000;stop-opacity:1"
         id="rect936"
         width="5.2916665"
         height="5.2916665"
         x="89.958336"
         y="95.249992" />
      <rect
         style="font-variation-settings:normal;opacity:1;vector-effect:none;fill:#7fff7f;fill-opacity:1;fill-rule:evenodd;stroke:#000000;stroke-width:0.264583;stroke-linecap:butt;stroke-linejoin:miter;stroke-miterlimit:4;stroke-dasharray:none;stroke-dashoffset:0;stroke-opacity:1;stop-color:#000000;stop-opacity:1"
         id="rect938"
         width="5.2916665"
         height="5.2916665"
         x="95.249985"
         y="95.249992" />
      <rect
         style="font-variation-settings:normal;opacity:1;vector-effect:none;fill:#fff000;fill-opacity:1;fill-rule:evenodd;stroke:#000000;stroke-width:0.264583;stroke-linecap:butt;stroke-linejoin:miter;stroke-miterlimit:4;stroke-dasharray:none;stroke-dashoffset:0;stroke-opacity:1;stop-color:#000000;stop-opacity:1"
         id="rect940"
         width="5.2916665"
         height="5.2916665"
         x="97.895821"
         y="100.54166" />
      <rect
         style="font-variation-settings:normal;opacity:1;vector-effect:none;fill:#fff000;fill-opacity:1;fill-rule:evenodd;stroke:#000000;stroke-width:0.264583;stroke-linecap:butt;stroke-linejoin:miter;stroke-miterlimit:4;stroke-dasharray:none;stroke-dashoffset:0;stroke-opacity:1;stop-color:#000000;stop-opacity:1"
         id="rect942"
         width="5.2916665"
         height="5.2916665"
         x="92.604149"
         y="100.54166" />
      <rect
         style="font-variation-settings:normal;opacity:1;vector-effect:none;fill:#fff000;fill-opacity:1;fill-rule:evenodd;stroke:#000000;stroke-width:0.264583;stroke-linecap:butt;stroke-linejoin:miter;stroke-miterlimit:4;stroke-dasharray:none;stroke-dashoffset:0;stroke-opacity:1;stop-color:#000000;stop-opacity:1"
         id="rect944"
         width="5.2916665"
         height="5.2916665"
         x="87.312492"
         y="100.54166" />
      <rect
         style="font-variation-settings:normal;opacity:1;vector-effect:none;fill:#fff000;fill-opacity:1;fill-rule:evenodd;stroke:#000000;stroke-width:0.264583;stroke-linecap:butt;stroke-linejoin:miter;stroke-miterlimit:4;stroke-dasharray:none;stroke-dashoffset:0;stroke-opacity:1;stop-color:#000000;stop-opacity:1"
         id="rect946"
         width="5.2916665"
         height="5.2916665"
         x="82.020836"
         y="100.54166" />
      <g
         id="g963"
         transform="translate(2.6458334)"
         style="fill:#ff8d00">
        <rect
           style="font-variation-settings:normal;opacity:1;vector-effect:none;fill:#ff8d00;fill-opacity:1;fill-rule:evenodd;stroke:#000000;stroke-width:0.264583;stroke-linecap:butt;stroke-linejoin:miter;stroke-miterlimit:4;stroke-dasharray:none;stroke-dashoffset:0;stroke-opacity:1;stop-color:#000000;stop-opacity:1"
           id="rect948"
           width="5.2916665"
           height="5.2916665"
           x="76.729172"
           y="105.83332" />
        <rect
           style="font-variation-settings:normal;opacity:1;vector-effect:none;fill:#ff8d00;fill-opacity:1;fill-rule:evenodd;stroke:#000000;stroke-width:0.264583;stroke-linecap:butt;stroke-linejoin:miter;stroke-miterlimit:4;stroke-dasharray:none;stroke-dashoffset:0;stroke-opacity:1;stop-color:#000000;stop-opacity:1"
           id="rect950"
           width="5.2916665"
           height="5.2916665"
           x="82.020828"
           y="105.83332" />
        <rect
           style="font-variation-settings:normal;opacity:1;vector-effect:none;fill:#ff8d00;fill-opacity:1;fill-rule:evenodd;stroke:#000000;stroke-width:0.264583;stroke-linecap:butt;stroke-linejoin:miter;stroke-miterlimit:4;stroke-dasharray:none;stroke-dashoffset:0;stroke-opacity:1;stop-color:#000000;stop-opacity:1"
           id="rect952"
           width="5.2916665"
           height="5.2916665"
           x="87.312485"
           y="105.83332" />
        <rect
           style="font-variation-settings:normal;opacity:1;vector-effect:none;fill:#ff8d00;fill-opacity:1;fill-rule:evenodd;stroke:#000000;stroke-width:0.264583;stroke-linecap:butt;stroke-linejoin:miter;stroke-miterlimit:4;stroke-dasharray:none;stroke-dashoffset:0;stroke-opacity:1;stop-color:#000000;stop-opacity:1"
           id="rect954"
           width="5.2916665"
           height="5.2916665"
           x="92.604141"
           y="105.83332" />
        <rect
           style="font-variation-settings:normal;opacity:1;vector-effect:none;fill:#ff8d00;fill-opacity:1;fill-rule:evenodd;stroke:#000000;stroke-width:0.264583;stroke-linecap:butt;stroke-linejoin:miter;stroke-miterlimit:4;stroke-dasharray:none;stroke-dashoffset:0;stroke-opacity:1;stop-color:#000000;stop-opacity:1"
           id="rect956"
           width="5.2916665"
           height="5.2916665"
           x="97.895813"
           y="105.83332" />
      </g>
      <g
         id="g1068"
         transform="translate(2.6458334)"
         style="fill:#ff3800">
        <g
           id="g975"
           transform="translate(2.6458334,5.2916667)"
           style="fill:#ff3800">
          <rect
             style="font-variation-settings:normal;opacity:1;vector-effect:none;fill:#ff3800;fill-opacity:1;fill-rule:evenodd;stroke:#000000;stroke-width:0.264583;stroke-linecap:butt;stroke-linejoin:miter;stroke-miterlimit:4;stroke-dasharray:none;stroke-dashoffset:0;stroke-opacity:1;stop-color:#000000;stop-opacity:1"
             id="rect965"
             width="5.2916665"
             height="5.2916665"
             x="76.729172"
             y="105.83332" />
          <rect
             style="font-variation-settings:normal;opacity:1;vector-effect:none;fill:#ff3800;fill-opacity:1;fill-rule:evenodd;stroke:#000000;stroke-width:0.264583;stroke-linecap:butt;stroke-linejoin:miter;stroke-miterlimit:4;stroke-dasharray:none;stroke-dashoffset:0;stroke-opacity:1;stop-color:#000000;stop-opacity:1"
             id="rect967"
             width="5.2916665"
             height="5.2916665"
             x="82.020828"
             y="105.83332" />
          <rect
             style="font-variation-settings:normal;opacity:1;vector-effect:none;fill:#ff3800;fill-opacity:1;fill-rule:evenodd;stroke:#000000;stroke-width:0.264583;stroke-linecap:butt;stroke-linejoin:miter;stroke-miterlimit:4;stroke-dasharray:none;stroke-dashoffset:0;stroke-opacity:1;stop-color:#000000;stop-opacity:1"
             id="rect969"
             width="5.2916665"
             height="5.2916665"
             x="87.312485"
             y="105.83332" />
          <rect
             style="font-variation-settings:normal;opacity:1;vector-effect:none;fill:#ff3800;fill-opacity:1;fill-rule:evenodd;stroke:#000000;stroke-width:0.264583;stroke-linecap:butt;stroke-linejoin:miter;stroke-miterlimit:4;stroke-dasharray:none;stroke-dashoffset:0;stroke-opacity:1;stop-color:#000000;stop-opacity:1"
             id="rect971"
             width="5.2916665"
             height="5.2916665"
             x="92.604141"
             y="105.83332" />
          <rect
             style="font-variation-settings:normal;opacity:1;vector-effect:none;fill:#ff3800;fill-opacity:1;fill-rule:evenodd;stroke:#000000;stroke-width:0.264583;stroke-linecap:butt;stroke-linejoin:miter;stroke-miterlimit:4;stroke-dasharray:none;stroke-dashoffset:0;stroke-opacity:1;stop-color:#000000;stop-opacity:1"
             id="rect973"
             width="5.2916665"
             height="5.2916665"
             x="97.895813"
             y="105.83332" />
        </g>
        <rect
           style="font-variation-settings:normal;opacity:1;vector-effect:none;fill:#ff3800;fill-opacity:1;fill-rule:evenodd;stroke:#000000;stroke-width:0.264583;stroke-linecap:butt;stroke-linejoin:miter;stroke-miterlimit:4;stroke-dasharray:none;stroke-dashoffset:0;stroke-opacity:1;stop-color:#000000;stop-opacity:1"
           id="rect977"
           width="5.2916665"
           height="5.2916665"
           x="74.083336"
           y="111.125" />
      </g>
      <g
         id="g1735"
         transform="translate(-14.413541,9.2604089)">
        <path
           style="fill:#000000;fill-opacity:1;stroke:none;stroke-width:0"
           d="m 77.847133,77.223621 c 0,-0.05668 -0.03924,-0.100287 -0.100287,-0.100287 -0.07849,0 -0.152612,0.07412 -0.152612,0.148251 0,0.05232 0.03924,0.100287 0.104648,0.100287 0.0654,0 0.148251,-0.0654 0.148251,-0.148251 z M 77.637838,78.2701 c 0.03052,-0.07849 0.03052,-0.08721 0.06104,-0.161332 0.0218,-0.05669 0.03488,-0.09593 0.03488,-0.148251 0,-0.12209 -0.08721,-0.226738 -0.226737,-0.226738 -0.26162,0 -0.366268,0.405511 -0.366268,0.427313 0,0.03052 0.02616,0.03052 0.03052,0.03052 0.03052,0 0.03052,-0.0087 0.0436,-0.05232 0.07849,-0.26162 0.187494,-0.344466 0.283421,-0.344466 0.0218,0 0.06977,0 0.06977,0.08721 0,0.06104 -0.0218,0.117728 -0.03052,0.148251 -0.0218,0.06977 -0.148251,0.392429 -0.191854,0.514518 -0.03052,0.06977 -0.0654,0.161333 -0.0654,0.222377 0,0.13081 0.09593,0.226737 0.226737,0.226737 0.261619,0 0.366267,-0.40115 0.366267,-0.427312 0,-0.03052 -0.02616,-0.03052 -0.03488,-0.03052 -0.02616,0 -0.02616,0.0087 -0.03924,0.05232 -0.05232,0.174413 -0.143891,0.344466 -0.283422,0.344466 -0.04796,0 -0.06977,-0.02616 -0.06977,-0.09157 0,-0.06976 0.01744,-0.109008 0.08285,-0.279061 z m 0,0"
           id="id-01b0e87f-2f0a-477f-9346-48e565a636ed" />
        <path
           style="fill:#000000;fill-opacity:1;stroke:none;stroke-width:0"
           d="m 80.697917,78.052083 c 0.0436,0 0.09593,0 0.09593,-0.05232 0,-0.05668 -0.05232,-0.05668 -0.09157,-0.05668 h -1.665645 c -0.03924,0 -0.09157,0 -0.09157,0.05668 0,0.05232 0.05232,0.05232 0.09157,0.05232 z m 0.0044,0.540681 c 0.03924,0 0.09157,0 0.09157,-0.05668 0,-0.05232 -0.05232,-0.05232 -0.09593,-0.05232 h -1.661285 c -0.03924,0 -0.09157,0 -0.09157,0.05232 0,0.05668 0.05232,0.05668 0.09157,0.05668 z m 0,0"
           id="id-72533611-0274-4bff-9d00-3a4f7bf75eeb" />
        <path
           style="fill:#000000;fill-opacity:1;stroke:none;stroke-width:0"
           d="m 82.543277,77.184378 c 0,-0.06976 0,-0.07412 -0.0654,-0.07412 -0.174413,0.178773 -0.418592,0.178773 -0.505798,0.178773 v 0.08721 c 0.05668,0 0.218016,0 0.361907,-0.07413 v 1.443269 c 0,0.100287 -0.0087,0.130809 -0.257259,0.130809 h -0.08721 v 0.08721 c 0.09593,-0.0087 0.335745,-0.0087 0.449114,-0.0087 0.109008,0 0.353186,0 0.449114,0.0087 v -0.08721 h -0.08721 c -0.252899,0 -0.257259,-0.03052 -0.257259,-0.130809 z m 0,0"
           id="id-b2f5256f-2905-4508-9d1b-a34fb99e2c13" />
      </g>
      <g
         id="g1740"
         transform="translate(-21.436516,14.538427)">
        <path
           style="fill:#000000;fill-opacity:1;stroke:none;stroke-width:0"
           d="m 84.828682,77.223621 c 0,-0.05668 -0.03924,-0.100287 -0.100287,-0.100287 -0.07849,0 -0.152612,0.07412 -0.152612,0.148251 0,0.05232 0.03924,0.100287 0.104648,0.100287 0.0654,0 0.148251,-0.0654 0.148251,-0.148251 z M 84.619387,78.2701 c 0.03052,-0.07849 0.03052,-0.08721 0.06104,-0.161332 0.0218,-0.05669 0.03488,-0.09593 0.03488,-0.148251 0,-0.12209 -0.08721,-0.226738 -0.226737,-0.226738 -0.26162,0 -0.366268,0.405511 -0.366268,0.427313 0,0.03052 0.02616,0.03052 0.03052,0.03052 0.03052,0 0.03052,-0.0087 0.0436,-0.05232 0.07849,-0.26162 0.187494,-0.344466 0.283421,-0.344466 0.0218,0 0.06977,0 0.06977,0.08721 0,0.06104 -0.0218,0.117728 -0.03052,0.148251 -0.0218,0.06977 -0.148251,0.392429 -0.191854,0.514518 -0.03052,0.06977 -0.0654,0.161333 -0.0654,0.222377 0,0.13081 0.09593,0.226737 0.226737,0.226737 0.261619,0 0.366267,-0.40115 0.366267,-0.427312 0,-0.03052 -0.02616,-0.03052 -0.03488,-0.03052 -0.02616,0 -0.02616,0.0087 -0.03924,0.05232 -0.05232,0.174413 -0.143891,0.344466 -0.283422,0.344466 -0.04796,0 -0.06977,-0.02616 -0.06977,-0.09157 0,-0.06976 0.01744,-0.109008 0.08285,-0.279061 z m 0,0"
           id="id-3608fbc9-ac42-4a37-b423-f4f9c682f32a" />
        <path
           style="fill:#000000;fill-opacity:1;stroke:none;stroke-width:0"
           d="m 87.679465,78.052083 c 0.0436,0 0.09593,0 0.09593,-0.05232 0,-0.05668 -0.05232,-0.05668 -0.09157,-0.05668 H 86.01818 c -0.03924,0 -0.09157,0 -0.09157,0.05668 0,0.05232 0.05232,0.05232 0.09157,0.05232 z m 0.0044,0.540681 c 0.03924,0 0.09157,0 0.09157,-0.05668 0,-0.05232 -0.05232,-0.05232 -0.09593,-0.05232 H 86.01818 c -0.03924,0 -0.09157,0 -0.09157,0.05232 0,0.05668 0.05232,0.05668 0.09157,0.05668 z m 0,0"
           id="id-22776393-172b-4573-8dd1-652386a80268" />
        <path
           style="fill:#000000;fill-opacity:1;stroke:none;stroke-width:0"
           d="m 89.05827,78.749736 0.296502,-0.287782 c 0.431672,-0.383709 0.597365,-0.53196 0.597365,-0.811021 0,-0.318304 -0.248539,-0.54068 -0.588644,-0.54068 -0.313944,0 -0.518879,0.257259 -0.518879,0.505798 0,0.152611 0.13953,0.152611 0.148251,0.152611 0.04796,0 0.14389,-0.03052 0.14389,-0.148251 0,-0.06977 -0.05232,-0.143891 -0.148251,-0.143891 -0.0218,0 -0.02616,0 -0.03488,0.0044 0.06104,-0.183133 0.213656,-0.283421 0.374988,-0.283421 0.252899,0 0.370628,0.226737 0.370628,0.453474 0,0.222377 -0.13517,0.440393 -0.292142,0.614806 l -0.53196,0.593005 c -0.03052,0.03052 -0.03052,0.03924 -0.03052,0.104648 h 1.033397 l 0.07413,-0.483996 h -0.0654 c -0.01744,0.08285 -0.03488,0.204935 -0.0654,0.248538 -0.01744,0.0218 -0.200575,0.0218 -0.26162,0.0218 z m 0,0"
           id="id-e475ffe9-f3f8-4565-8987-53cae7602985" />
      </g>
      <g
         id="g1745"
         transform="translate(-28.431138,19.828493)">
        <path
           style="fill:#000000;fill-opacity:1;stroke:none;stroke-width:0"
           d="m 91.81023,77.223621 c 0,-0.05668 -0.03924,-0.100287 -0.100287,-0.100287 -0.07849,0 -0.152612,0.07412 -0.152612,0.148251 0,0.05232 0.03924,0.100287 0.104648,0.100287 0.0654,0 0.148251,-0.0654 0.148251,-0.148251 z M 91.600935,78.2701 c 0.03052,-0.07849 0.03052,-0.08721 0.06104,-0.161332 0.0218,-0.05669 0.03488,-0.09593 0.03488,-0.148251 0,-0.12209 -0.08721,-0.226738 -0.226737,-0.226738 -0.26162,0 -0.366268,0.405511 -0.366268,0.427313 0,0.03052 0.02616,0.03052 0.03052,0.03052 0.03052,0 0.03052,-0.0087 0.0436,-0.05232 0.07849,-0.26162 0.187494,-0.344466 0.283421,-0.344466 0.0218,0 0.06977,0 0.06977,0.08721 0,0.06104 -0.0218,0.117728 -0.03052,0.148251 -0.0218,0.06977 -0.148251,0.392429 -0.191854,0.514518 -0.03052,0.06977 -0.0654,0.161333 -0.0654,0.222377 0,0.13081 0.09593,0.226737 0.226737,0.226737 0.261619,0 0.366267,-0.40115 0.366267,-0.427312 0,-0.03052 -0.02616,-0.03052 -0.03488,-0.03052 -0.02616,0 -0.02616,0.0087 -0.03924,0.05232 -0.05232,0.174413 -0.143891,0.344466 -0.283422,0.344466 -0.04796,0 -0.06977,-0.02616 -0.06977,-0.09157 0,-0.06976 0.01744,-0.109008 0.08285,-0.279061 z m 0,0"
           id="id-5a081162-72ab-4635-8e6a-dfe51abd2c66" />
        <path
           style="fill:#000000;fill-opacity:1;stroke:none;stroke-width:0"
           d="m 94.661013,78.052083 c 0.0436,0 0.09593,0 0.09593,-0.05232 0,-0.05668 -0.05232,-0.05668 -0.09157,-0.05668 h -1.665645 c -0.03924,0 -0.09157,0 -0.09157,0.05668 0,0.05232 0.05232,0.05232 0.09157,0.05232 z m 0.0044,0.540681 c 0.03924,0 0.09157,0 0.09157,-0.05668 0,-0.05232 -0.05232,-0.05232 -0.09593,-0.05232 h -1.661285 c -0.03924,0 -0.09157,0 -0.09157,0.05232 0,0.05668 0.05232,0.05668 0.09157,0.05668 z m 0,0"
           id="id-1ea962f1-7f27-4493-928a-816db3eba287" />
        <path
           style="fill:#000000;fill-opacity:1;stroke:none;stroke-width:0"
           d="m 96.493292,77.982318 c 0.226737,-0.07413 0.388069,-0.26598 0.388069,-0.488357 0,-0.226737 -0.244178,-0.383708 -0.510158,-0.383708 -0.279061,0 -0.492718,0.165692 -0.492718,0.379348 0,0.09157 0.06105,0.143891 0.143891,0.143891 0.08285,0 0.139531,-0.06105 0.139531,-0.143891 0,-0.13517 -0.13081,-0.13517 -0.170053,-0.13517 0.08285,-0.139531 0.26598,-0.174413 0.366268,-0.174413 0.117728,0 0.27034,0.06104 0.27034,0.309583 0,0.03488 -0.0087,0.196215 -0.07849,0.318304 -0.08285,0.13517 -0.178773,0.143891 -0.248539,0.143891 -0.0218,0.0044 -0.08721,0.0087 -0.109008,0.0087 -0.0218,0.0044 -0.03924,0.0087 -0.03924,0.03488 0,0.03052 0.01744,0.03052 0.0654,0.03052 h 0.122089 c 0.226737,0 0.331385,0.187495 0.331385,0.462195 0,0.379349 -0.191854,0.457835 -0.313943,0.457835 -0.12209,0 -0.331385,-0.04796 -0.427313,-0.209296 0.09593,0.01308 0.183134,-0.04796 0.183134,-0.152612 0,-0.100287 -0.07413,-0.156971 -0.152611,-0.156971 -0.06977,0 -0.156972,0.03924 -0.156972,0.161332 0,0.252899 0.257259,0.436033 0.562482,0.436033 0.340106,0 0.593005,-0.252899 0.593005,-0.536321 0,-0.226737 -0.178774,-0.444753 -0.466555,-0.505798 z m 0,0"
           id="id-bc57cdac-8846-4f13-aac5-8fa68e1560cf" />
      </g>
      <g
         id="g1750"
         transform="translate(-35.430151,25.150669)">
        <path
           style="fill:#000000;fill-opacity:1;stroke:none;stroke-width:0"
           d="m 98.791778,77.223621 c 0,-0.05668 -0.03924,-0.100287 -0.100287,-0.100287 -0.07849,0 -0.152612,0.07412 -0.152612,0.148251 0,0.05232 0.03924,0.100287 0.104648,0.100287 0.0654,0 0.148251,-0.0654 0.148251,-0.148251 z M 98.582483,78.2701 c 0.03052,-0.07849 0.03052,-0.08721 0.06104,-0.161332 0.0218,-0.05669 0.03488,-0.09593 0.03488,-0.148251 0,-0.12209 -0.08721,-0.226738 -0.226737,-0.226738 -0.26162,0 -0.366268,0.405511 -0.366268,0.427313 0,0.03052 0.02616,0.03052 0.03052,0.03052 0.03052,0 0.03052,-0.0087 0.0436,-0.05232 0.07849,-0.26162 0.187494,-0.344466 0.283421,-0.344466 0.0218,0 0.06976,0 0.06976,0.08721 0,0.06104 -0.0218,0.117728 -0.03052,0.148251 -0.0218,0.06977 -0.148251,0.392429 -0.191854,0.514518 -0.03052,0.06977 -0.0654,0.161333 -0.0654,0.222377 0,0.13081 0.09593,0.226737 0.226737,0.226737 0.261619,0 0.366267,-0.40115 0.366267,-0.427312 0,-0.03052 -0.02616,-0.03052 -0.03488,-0.03052 -0.02616,0 -0.02616,0.0087 -0.03924,0.05232 -0.05232,0.174413 -0.143891,0.344466 -0.283422,0.344466 -0.04796,0 -0.06976,-0.02616 -0.06976,-0.09157 0,-0.06976 0.01744,-0.109008 0.08285,-0.279061 z m 0,0"
           id="id-e0f32c51-297d-4246-9a8a-45a0b1340e2f" />
        <path
           style="fill:#000000;fill-opacity:1;stroke:none;stroke-width:0"
           d="m 101.64256,78.052083 c 0.0436,0 0.0959,0 0.0959,-0.05232 0,-0.05668 -0.0523,-0.05668 -0.0916,-0.05668 h -1.665644 c -0.03924,0 -0.09157,0 -0.09157,0.05668 0,0.05232 0.05232,0.05232 0.09157,0.05232 z m 0.004,0.540681 c 0.0392,0 0.0916,0 0.0916,-0.05668 0,-0.05232 -0.0523,-0.05232 -0.0959,-0.05232 h -1.661284 c -0.03924,0 -0.09157,0 -0.09157,0.05232 0,0.05668 0.05232,0.05668 0.09157,0.05668 z m 0,0"
           id="id-72de2f5e-53d4-488d-8e04-8e960d07b7a5" />
        <path
           style="fill:#000000;fill-opacity:1;stroke:none;stroke-width:0"
           d="m 103.48792,78.505558 v 0.239818 c 0,0.100287 -0.009,0.130809 -0.21365,0.130809 h -0.0567 v 0.08721 c 0.11337,-0.0087 0.25726,-0.0087 0.37499,-0.0087 0.11773,0 0.26162,0 0.37935,0.0087 v -0.08721 h -0.061 c -0.20493,0 -0.20929,-0.03052 -0.20929,-0.130809 v -0.239818 h 0.2747 v -0.08721 h -0.2747 v -1.264495 c 0,-0.05668 0,-0.07413 -0.048,-0.07413 -0.0218,0 -0.0305,0 -0.0523,0.03488 l -0.85462,1.303738 v 0.08721 z m 0.0131,-0.08721 h -0.67585 l 0.67585,-1.037758 z m 0,0"
           id="id-b79405ce-5bf6-4a31-9ec3-458aa8715c32" />
      </g>
      <g
         id="g1755"
         transform="translate(-42.381042,30.411788)">
        <path
           style="fill:#000000;fill-opacity:1;stroke:none;stroke-width:0"
           d="m 105.77333,77.223621 c 0,-0.05668 -0.0392,-0.100287 -0.10029,-0.100287 -0.0785,0 -0.15261,0.07412 -0.15261,0.148251 0,0.05232 0.0392,0.100287 0.10465,0.100287 0.0654,0 0.14825,-0.0654 0.14825,-0.148251 z m -0.2093,1.046479 c 0.0305,-0.07849 0.0305,-0.08721 0.061,-0.161332 0.0218,-0.05669 0.0349,-0.09593 0.0349,-0.148251 0,-0.12209 -0.0872,-0.226738 -0.22674,-0.226738 -0.26162,0 -0.36626,0.405511 -0.36626,0.427313 0,0.03052 0.0262,0.03052 0.0305,0.03052 0.0305,0 0.0305,-0.0087 0.0436,-0.05232 0.0785,-0.26162 0.1875,-0.344466 0.28342,-0.344466 0.0218,0 0.0698,0 0.0698,0.08721 0,0.06104 -0.0218,0.117728 -0.0305,0.148251 -0.0218,0.06977 -0.14826,0.392429 -0.19186,0.514518 -0.0305,0.06977 -0.0654,0.161333 -0.0654,0.222377 0,0.13081 0.0959,0.226737 0.22673,0.226737 0.26162,0 0.36627,-0.40115 0.36627,-0.427312 0,-0.03052 -0.0262,-0.03052 -0.0349,-0.03052 -0.0262,0 -0.0262,0.0087 -0.0392,0.05232 -0.0523,0.174413 -0.1439,0.344466 -0.28343,0.344466 -0.048,0 -0.0698,-0.02616 -0.0698,-0.09157 0,-0.06976 0.0174,-0.109008 0.0828,-0.279061 z m 0,0"
           id="id-f1368747-3537-498e-b472-4d90cb27285c" />
        <path
           style="fill:#000000;fill-opacity:1;stroke:none;stroke-width:0"
           d="m 108.62383,78.052083 c 0.0436,0 0.0959,0 0.0959,-0.05232 0,-0.05668 -0.0523,-0.05668 -0.0916,-0.05668 h -1.66564 c -0.0392,0 -0.0916,0 -0.0916,0.05668 0,0.05232 0.0523,0.05232 0.0916,0.05232 z m 0.004,0.540681 c 0.0392,0 0.0916,0 0.0916,-0.05668 0,-0.05232 -0.0523,-0.05232 -0.0959,-0.05232 h -1.66128 c -0.0392,0 -0.0916,0 -0.0916,0.05232 0,0.05668 0.0523,0.05668 0.0916,0.05668 z m 0,0"
           id="id-253cfa6c-45e2-49cc-8175-f7e6d358210b" />
        <path
           style="fill:#000000;fill-opacity:1;stroke:none;stroke-width:0"
           d="m 110.8965,78.40527 c 0,-0.331385 -0.22673,-0.610446 -0.5276,-0.610446 -0.13081,0 -0.25289,0.0436 -0.35318,0.143891 v -0.545041 c 0.0567,0.01744 0.14825,0.03488 0.23546,0.03488 0.34446,0 0.54068,-0.252899 0.54068,-0.287781 0,-0.01744 -0.009,-0.03052 -0.0305,-0.03052 0,0 -0.009,0 -0.0218,0.0087 -0.0567,0.02616 -0.19185,0.08285 -0.37935,0.08285 -0.109,0 -0.23981,-0.0218 -0.37062,-0.07849 -0.0218,-0.0087 -0.0262,-0.0087 -0.0305,-0.0087 -0.0305,0 -0.0305,0.0218 -0.0305,0.0654 v 0.824102 c 0,0.04796 0,0.06977 0.0392,0.06977 0.0218,0 0.0262,-0.0044 0.0393,-0.0218 0.0305,-0.0436 0.13081,-0.196214 0.35754,-0.196214 0.14389,0 0.21366,0.126449 0.23546,0.178773 0.0436,0.104648 0.0523,0.209296 0.0523,0.348826 0,0.100288 0,0.26598 -0.0698,0.383709 -0.0654,0.109008 -0.17005,0.178774 -0.2965,0.178774 -0.20058,0 -0.36191,-0.148251 -0.40987,-0.309584 0.009,0 0.0174,0.0044 0.048,0.0044 0.0916,0 0.13953,-0.06977 0.13953,-0.13517 0,-0.06977 -0.048,-0.139531 -0.13953,-0.139531 -0.0392,0 -0.13517,0.0218 -0.13517,0.148251 0,0.239818 0.19185,0.510159 0.50144,0.510159 0.32266,0 0.60608,-0.26598 0.60608,-0.619167 z m 0,0"
           id="id-ecc0d383-75e9-4119-9827-4b0c7aac10e8" />
      </g>
      <g
         id="g1760"
         transform="translate(-49.375547,35.703477)">
        <path
           style="fill:#000000;fill-opacity:1;stroke:none;stroke-width:0"
           d="m 112.75487,77.223621 c 0,-0.05668 -0.0392,-0.100287 -0.10029,-0.100287 -0.0785,0 -0.15261,0.07412 -0.15261,0.148251 0,0.05232 0.0392,0.100287 0.10465,0.100287 0.0654,0 0.14825,-0.0654 0.14825,-0.148251 z m -0.2093,1.046479 c 0.0305,-0.07849 0.0305,-0.08721 0.0611,-0.161332 0.0218,-0.05669 0.0349,-0.09593 0.0349,-0.148251 0,-0.12209 -0.0872,-0.226738 -0.22674,-0.226738 -0.26162,0 -0.36626,0.405511 -0.36626,0.427313 0,0.03052 0.0262,0.03052 0.0305,0.03052 0.0305,0 0.0305,-0.0087 0.0436,-0.05232 0.0785,-0.26162 0.1875,-0.344466 0.28342,-0.344466 0.0218,0 0.0698,0 0.0698,0.08721 0,0.06104 -0.0218,0.117728 -0.0305,0.148251 -0.0218,0.06977 -0.14826,0.392429 -0.19186,0.514518 -0.0305,0.06977 -0.0654,0.161333 -0.0654,0.222377 0,0.13081 0.0959,0.226737 0.22673,0.226737 0.26162,0 0.36627,-0.40115 0.36627,-0.427312 0,-0.03052 -0.0262,-0.03052 -0.0349,-0.03052 -0.0262,0 -0.0262,0.0087 -0.0392,0.05232 -0.0523,0.174413 -0.1439,0.344466 -0.28343,0.344466 -0.048,0 -0.0698,-0.02616 -0.0698,-0.09157 0,-0.06976 0.0174,-0.109008 0.0829,-0.279061 z m 0,0"
           id="id-e5f4d838-bc24-4e37-acc6-a2b21ccc4e5f" />
        <path
           style="fill:#000000;fill-opacity:1;stroke:none;stroke-width:0"
           d="m 115.60537,78.052083 c 0.0436,0 0.0959,0 0.0959,-0.05232 0,-0.05668 -0.0523,-0.05668 -0.0916,-0.05668 h -1.66564 c -0.0392,0 -0.0916,0 -0.0916,0.05668 0,0.05232 0.0523,0.05232 0.0916,0.05232 z m 0.004,0.540681 c 0.0392,0 0.0916,0 0.0916,-0.05668 0,-0.05232 -0.0523,-0.05232 -0.0959,-0.05232 h -1.66128 c -0.0392,0 -0.0916,0 -0.0916,0.05232 0,0.05668 0.0523,0.05668 0.0916,0.05668 z m 0,0"
           id="id-4509dac6-fb12-47a0-a89e-0656e7efce2f" />
        <path
           style="fill:#000000;fill-opacity:1;stroke:none;stroke-width:0"
           d="m 116.99699,78.052083 v -0.06976 c 0,-0.702013 0.34446,-0.8023 0.48835,-0.8023 0.0654,0 0.18314,0.01744 0.24418,0.113368 -0.0436,0 -0.15261,0 -0.15261,0.12209 0,0.08721 0.0654,0.130809 0.12645,0.130809 0.0436,0 0.13081,-0.02616 0.13081,-0.13517 0,-0.165692 -0.12209,-0.300862 -0.35319,-0.300862 -0.35754,0 -0.73253,0.357546 -0.73253,0.972353 0,0.745616 0.32266,0.941831 0.57992,0.941831 0.30959,0 0.57557,-0.26162 0.57557,-0.627888 0,-0.353186 -0.24854,-0.619166 -0.55813,-0.619166 -0.18749,0 -0.29214,0.13953 -0.34882,0.2747 z m 0.33138,0.893868 c -0.17441,0 -0.25726,-0.165693 -0.2747,-0.209296 -0.0523,-0.13081 -0.0523,-0.353187 -0.0523,-0.40115 0,-0.218017 0.0916,-0.497078 0.3401,-0.497078 0.048,0 0.17442,0 0.26162,0.174413 0.048,0.100288 0.048,0.244179 0.048,0.379349 0,0.13517 0,0.274701 -0.048,0.374988 -0.0828,0.165693 -0.20929,0.178774 -0.2747,0.178774 z m 0,0"
           id="id-48342589-1afe-47be-a715-0e4c6b32277d" />
      </g>
      <g
         transform="matrix(0,0.82208397,-0.82208397,0,94.754233,117.81626)"
         ns18:version="1.3.1"
         ns18:texconverter="pdflatex"
         ns18:pdfconverter="inkscape"
         ns18:text="$\\to$\n"
         ns18:preamble="/Users/ketiboldiais/Library/Application Support/org.inkscape.Inkscape/config/inkscape/extensions/circuitSymbols/circuitSymbolsPreamble.tex"
         ns18:scale="0.7910384785605061"
         ns18:alignment="middle center"
         ns18:inkscapeversion="1.1"
         ns18:jacobian_sqrt="0.279061"
         id="g1921">
        <defs
           id="id-1a46d762-f1b7-4c11-aafb-25398e7dafad">
          <g
             id="id-1818427a-362e-4d37-bc14-e2e0c639ae2a">
            <symbol
               overflow="visible"
               id="id-85e9115b-e1b6-4712-9748-c8abfff4fc0b">
              <path
                 style="stroke:none;stroke-width:0"
                 d=""
                 id="id-1fbf1dc6-518d-4e34-b9a3-1e22f6d1d7d1" />
            </symbol>
            <symbol
               overflow="visible"
               id="id-5f1c7fba-32b0-4c46-9ed0-81f5d27cfd94">
              <path
                 style="stroke:none;stroke-width:0"
                 d="M 8.3125,-2.296875 C 7.765625,-1.875 7.5,-1.46875 7.421875,-1.328125 c -0.453125,0.6875 -0.53125,1.3125 -0.53125,1.3125 0,0.125 0.125,0.125 0.203125,0.125 C 7.25,0.109375 7.265625,0.09375 7.3125,-0.09375 7.53125,-1.0625 8.125,-1.90625 9.25,-2.359375 9.375,-2.40625 9.40625,-2.421875 9.40625,-2.5 c 0,-0.0625 -0.0625,-0.09375 -0.078125,-0.109375 C 8.875,-2.765625 7.671875,-3.265625 7.296875,-4.9375 7.265625,-5.0625 7.25,-5.09375 7.09375,-5.09375 c -0.078125,0 -0.203125,0 -0.203125,0.125 0,0.015625 0.09375,0.640625 0.5,1.3125 0.203125,0.296875 0.5,0.640625 0.921875,0.96875 H 0.90625 c -0.171875,0 -0.359375,0 -0.359375,0.1875 0,0.203125 0.1875,0.203125 0.359375,0.203125 z m 0,0"
                 id="id-4627d1e0-e2a1-48e4-9012-0eb8f42230d9" />
            </symbol>
          </g>
        </defs>
        <g
           id="id-6c128f2a-4b51-44cb-9e42-3a82757da97a"
           transform="translate(-149.259,-129.671)">
          <g
             style="fill:#000000;fill-opacity:1"
             id="id-7b294109-3835-495e-b33f-c120c29ae231">
            <g
               transform="translate(148.712,134.765)"
               id="g1917">
              <path
                 style="stroke:none;stroke-width:0"
                 d="M 8.3125,-2.296875 C 7.765625,-1.875 7.5,-1.46875 7.421875,-1.328125 c -0.453125,0.6875 -0.53125,1.3125 -0.53125,1.3125 0,0.125 0.125,0.125 0.203125,0.125 C 7.25,0.109375 7.265625,0.09375 7.3125,-0.09375 7.53125,-1.0625 8.125,-1.90625 9.25,-2.359375 9.375,-2.40625 9.40625,-2.421875 9.40625,-2.5 c 0,-0.0625 -0.0625,-0.09375 -0.078125,-0.109375 C 8.875,-2.765625 7.671875,-3.265625 7.296875,-4.9375 7.265625,-5.0625 7.25,-5.09375 7.09375,-5.09375 c -0.078125,0 -0.203125,0 -0.203125,0.125 0,0.015625 0.09375,0.640625 0.5,1.3125 0.203125,0.296875 0.5,0.640625 0.921875,0.96875 H 0.90625 c -0.171875,0 -0.359375,0 -0.359375,0.1875 0,0.203125 0.1875,0.203125 0.359375,0.203125 z m 0,0"
                 id="id-adaeb02f-f0ee-4c38-b62c-5bf22206d4b1" />
            </g>
          </g>
        </g>
      </g>
      <g
         transform="matrix(0.279061,0,0,0.279061,65.454532,120.19728)"
         ns18:version="1.3.1"
         ns18:texconverter="pdflatex"
         ns18:pdfconverter="inkscape"
         ns18:text="$\\vdots$\n"
         ns18:preamble="/Users/ketiboldiais/Library/Application Support/org.inkscape.Inkscape/config/inkscape/extensions/circuitSymbols/circuitSymbolsPreamble.tex"
         ns18:scale="0.7910384785605061"
         ns18:alignment="middle center"
         ns18:inkscapeversion="1.1"
         ns18:jacobian_sqrt="0.279061"
         id="g2144">
        <defs
           id="id-070d6b68-5fa5-4f9e-b7ca-480f983aeee4">
          <g
             id="id-0b173c3a-3910-489d-8833-db313d02a77f">
            <symbol
               overflow="visible"
               id="id-d336aa5d-dfd8-4efe-84dc-123fefb3a0cf">
              <path
                 style="stroke:none;stroke-width:0"
                 d=""
                 id="id-dfeda4ae-2feb-424d-af02-06a1caed133a" />
            </symbol>
            <symbol
               overflow="visible"
               id="id-7642df14-5a2d-4b11-9baf-784b473d2a9d">
              <path
                 style="stroke:none;stroke-width:0"
                 d="m 1.90625,-0.53125 c 0,-0.28125 -0.234375,-0.53125 -0.515625,-0.53125 -0.296875,0 -0.53125,0.25 -0.53125,0.53125 C 0.859375,-0.234375 1.09375,0 1.390625,0 1.671875,0 1.90625,-0.234375 1.90625,-0.53125 Z m 0,0"
                 id="id-cd63556a-5e92-4f7d-b2c0-98857e30a73f" />
            </symbol>
          </g>
        </defs>
        <g
           id="id-b80af01e-3a77-4eb1-8d58-5230701012be"
           transform="translate(-149.571,-130.768)">
          <g
             style="fill:#000000;fill-opacity:1"
             id="id-81af93bd-8403-4412-9a6e-724c57bdd1ae">
            <g
               transform="translate(148.712,131.831)"
               id="g2132">
              <path
                 style="stroke:none;stroke-width:0"
                 d="m 1.90625,-0.53125 c 0,-0.28125 -0.234375,-0.53125 -0.515625,-0.53125 -0.296875,0 -0.53125,0.25 -0.53125,0.53125 C 0.859375,-0.234375 1.09375,0 1.390625,0 1.671875,0 1.90625,-0.234375 1.90625,-0.53125 Z m 0,0"
                 id="id-d93d77a1-1c38-4c4b-b4c9-e06f307801e7" />
            </g>
          </g>
          <g
             style="fill:#000000;fill-opacity:1"
             id="id-adb24928-1569-4baa-b05e-e102f548e48d">
            <g
               transform="translate(148.712,135.816)"
               id="g2136">
              <path
                 style="stroke:none;stroke-width:0"
                 d="m 1.90625,-0.53125 c 0,-0.28125 -0.234375,-0.53125 -0.515625,-0.53125 -0.296875,0 -0.53125,0.25 -0.53125,0.53125 C 0.859375,-0.234375 1.09375,0 1.390625,0 1.671875,0 1.90625,-0.234375 1.90625,-0.53125 Z m 0,0"
                 id="id-eda1fc75-abcf-4cb3-80cb-98d1f449c9fe" />
            </g>
          </g>
          <g
             style="fill:#000000;fill-opacity:1"
             id="id-7412b9fc-fe30-4156-85ef-d448a7b9a26f">
            <g
               transform="translate(148.712,139.801)"
               id="g2140">
              <path
                 style="stroke:none;stroke-width:0"
                 d="m 1.90625,-0.53125 c 0,-0.28125 -0.234375,-0.53125 -0.515625,-0.53125 -0.296875,0 -0.53125,0.25 -0.53125,0.53125 C 0.859375,-0.234375 1.09375,0 1.390625,0 1.671875,0 1.90625,-0.234375 1.90625,-0.53125 Z m 0,0"
                 id="id-7bc76346-4857-45ca-9786-d5d40fe6ad5a" />
            </g>
          </g>
        </g>
      </g>
    </g>
  </g>
</svg>
