<?xml version="1.0" encoding="UTF-8" standalone="no"?>
<!-- Created with Inkscape (http://www.inkscape.org/) -->

<svg
   width="13.018279mm"
   height="13.010463mm"
   viewBox="0 0 13.018279 13.010463"
   version="1.1"
   id="svg5"
   sodipodi:docname="star_graph.svg"
   inkscape:version="1.1 (c4e8f9e, 2021-05-24)"
   xmlns:inkscape="http://www.inkscape.org/namespaces/inkscape"
   xmlns:sodipodi="http://sodipodi.sourceforge.net/DTD/sodipodi-0.dtd"
   xmlns="http://www.w3.org/2000/svg"
   xmlns:svg="http://www.w3.org/2000/svg">
  <sodipodi:namedview
     id="namedview889"
     pagecolor="#ffffff"
     bordercolor="#666666"
     borderopacity="1.0"
     inkscape:pageshadow="2"
     inkscape:pageopacity="0.0"
     inkscape:pagecheckerboard="0"
     inkscape:document-units="mm"
     showgrid="false"
     inkscape:zoom="5.0993416"
     inkscape:cx="26.17985"
     inkscape:cy="42.456461"
     inkscape:window-width="1440"
     inkscape:window-height="847"
     inkscape:window-x="0"
     inkscape:window-y="25"
     inkscape:window-maximized="1"
     inkscape:current-layer="svg5" />
  <defs
     id="defs2">
    <marker
       style="overflow:visible"
       id="DotL"
       refX="0"
       refY="0"
       orient="auto">
      <path
         transform="matrix(0.8,0,0,0.8,5.92,0.8)"
         style="fill:context-stroke;fill-rule:evenodd;stroke:context-stroke;stroke-width:1pt"
         d="m -2.5,-1 c 0,2.76 -2.24,5 -5,5 -2.76,0 -5,-2.24 -5,-5 0,-2.76 2.24,-5 5,-5 2.76,0 5,2.24 5,5 z"
         id="path1123" />
    </marker>
    <defs
       id="id-9188b107-8674-4173-abc6-3940c080ac91">
      <g
         id="id-7f0e0c14-0896-4730-acf1-a651ea0a0788">
        <symbol
           overflow="visible"
           id="id-6d74f10c-bc5a-47fc-8779-b568c486114d">
          <path
             style="stroke:none;stroke-width:0"
             d=""
             id="id-ee16a7b1-751a-4116-977c-96d58c28fd46" />
        </symbol>
        <symbol
           overflow="visible"
           id="id-26c79add-a842-4a28-8ddd-cd827b6eb55a">
          <path
             style="stroke:none;stroke-width:0"
             d="m 4.671875,-3.703125 c 0,-0.546875 -0.265625,-0.703125 -0.4375,-0.703125 -0.25,0 -0.5,0.265625 -0.5,0.484375 0,0.125 0.046875,0.1875 0.15625,0.296875 0.21875,0.203125 0.34375,0.453125 0.34375,0.8125 0,0.421875 -0.609375,2.703125 -1.765625,2.703125 -0.515625,0 -0.75,-0.34375 -0.75,-0.875 0,-0.546875 0.28125,-1.28125 0.578125,-2.109375 0.078125,-0.171875 0.125,-0.3125 0.125,-0.5 0,-0.4375 -0.3125,-0.8125 -0.8125,-0.8125 -0.9375,0 -1.3125,1.453125 -1.3125,1.53125 0,0.109375 0.09375,0.109375 0.109375,0.109375 0.109375,0 0.109375,-0.03125 0.15625,-0.1875 0.296875,-1 0.71875,-1.234375 1.015625,-1.234375 0.078125,0 0.25,0 0.25,0.3125 0,0.25 -0.109375,0.53125 -0.171875,0.703125 -0.4375,1.15625 -0.5625,1.609375 -0.5625,2.046875 0,1.078125 0.875,1.234375 1.328125,1.234375 1.671875,0 2.25,-3.296875 2.25,-3.8125 z m 0,0"
             id="id-90f25140-0d26-4a5f-9f8c-490984a5285b" />
        </symbol>
        <symbol
           overflow="visible"
           id="id-0d8053f9-d996-40a6-b8af-5154148a9609">
          <path
             style="stroke:none;stroke-width:0"
             d="m 3.953125,-3.78125 c -0.171875,0 -0.296875,0 -0.4375,0.125 -0.171875,0.15625 -0.1875,0.328125 -0.1875,0.390625 0,0.25 0.1875,0.359375 0.375,0.359375 0.28125,0 0.546875,-0.25 0.546875,-0.640625 0,-0.484375 -0.46875,-0.859375 -1.171875,-0.859375 -1.34375,0 -2.671875,1.421875 -2.671875,2.828125 0,0.90625 0.578125,1.6875 1.625,1.6875 1.421875,0 2.25,-1.0625 2.25,-1.171875 0,-0.0625 -0.046875,-0.140625 -0.109375,-0.140625 -0.0625,0 -0.078125,0.03125 -0.140625,0.109375 -0.78125,0.984375 -1.875,0.984375 -1.984375,0.984375 -0.625,0 -0.90625,-0.484375 -0.90625,-1.09375 0,-0.40625 0.203125,-1.375 0.546875,-1.984375 0.3125,-0.578125 0.859375,-1 1.40625,-1 0.328125,0 0.71875,0.125 0.859375,0.40625 z m 0,0"
             id="id-9039c9fc-74ef-43c8-9d1f-f43e89da77f0" />
        </symbol>
        <symbol
           overflow="visible"
           id="id-7d2bcfbf-75c1-486f-a721-d409b00d7589">
          <path
             style="stroke:none;stroke-width:0"
             d=""
             id="id-2a91a20f-4815-4b51-ba58-cbf15622f555" />
        </symbol>
        <symbol
           overflow="visible"
           id="id-581d0174-8534-4508-b836-4d3e83076551">
          <path
             style="stroke:none;stroke-width:0"
             d="m 2.328125,-4.4375 c 0,-0.1875 0,-0.1875 -0.203125,-0.1875 -0.453125,0.4375 -1.078125,0.4375 -1.359375,0.4375 v 0.25 c 0.15625,0 0.625,0 1,-0.1875 v 3.546875 c 0,0.234375 0,0.328125 -0.6875,0.328125 H 0.8125 V 0 c 0.125,0 0.984375,-0.03125 1.234375,-0.03125 0.21875,0 1.09375,0.03125 1.25,0.03125 V -0.25 H 3.03125 c -0.703125,0 -0.703125,-0.09375 -0.703125,-0.328125 z m 0,0"
             id="id-7d9a4faf-5a88-4a10-9c46-6a9974905b38" />
        </symbol>
        <symbol
           overflow="visible"
           id="id-05bf20ea-7cac-4886-85cf-c34af286672f">
          <path
             style="stroke:none;stroke-width:0"
             d="M 3.515625,-1.265625 H 3.28125 c -0.015625,0.15625 -0.09375,0.5625 -0.1875,0.625 C 3.046875,-0.59375 2.515625,-0.59375 2.40625,-0.59375 H 1.125 c 0.734375,-0.640625 0.984375,-0.84375 1.390625,-1.171875 0.515625,-0.40625 1,-0.84375 1,-1.5 0,-0.84375 -0.734375,-1.359375 -1.625,-1.359375 -0.859375,0 -1.453125,0.609375 -1.453125,1.25 0,0.34375 0.296875,0.390625 0.375,0.390625 0.15625,0 0.359375,-0.125 0.359375,-0.375 0,-0.125 -0.046875,-0.375 -0.40625,-0.375 C 0.984375,-4.21875 1.453125,-4.375 1.78125,-4.375 c 0.703125,0 1.0625,0.546875 1.0625,1.109375 0,0.609375 -0.4375,1.078125 -0.65625,1.328125 L 0.515625,-0.265625 C 0.4375,-0.203125 0.4375,-0.1875 0.4375,0 h 2.875 z m 0,0"
             id="id-39a1d787-7a4c-42a1-91f6-f253c4170a85" />
        </symbol>
      </g>
    </defs>
  </defs>
  <g
     id="g1599">
    <g
       id="path859"
       style="fill:#57e389"
       transform="translate(-83.445312,-125.78711)">
      <path
         style="color:#000000;fill:#000000;-inkscape-stroke:none"
         d="m 95.15625,126.90625 -5.291016,5.29102 -5.292968,5.29296 0.1875,0.1875 5.292968,-5.29296 5.291016,-5.29102 z"
         id="path1781" />
      <g
         id="g1759"
         style="fill:#57e389">
        <g
           id="path1771"
           style="fill:#57e389">
          <path
             style="color:#000000;fill:#e66100;fill-rule:evenodd;stroke-width:0.211666pt;-inkscape-stroke:none"
             d="m 83.933281,138.31672 c -0.413092,-0.41309 -0.413092,-1.08362 -10e-7,-1.49671 0.413091,-0.41309 1.083616,-0.41309 1.496707,0 0.413092,0.41309 0.413092,1.08361 10e-7,1.49671 -0.413091,0.41309 -1.083616,0.41309 -1.496707,0 z"
             id="path1775" />
          <path
             style="color:#000000;fill:#000000;fill-rule:evenodd;-inkscape-stroke:none"
             d="m 84.681641,136.36914 c -0.307297,0 -0.614118,0.11802 -0.847657,0.35156 -0.467078,0.46708 -0.467079,1.22824 0,1.69532 0.467078,0.46707 1.228235,0.46707 1.695313,0 0.467076,-0.46709 0.467079,-1.22824 0,-1.69532 -0.233539,-0.23354 -0.540359,-0.35156 -0.847656,-0.35156 z m 0,0.28125 c 0.23451,0 0.468886,0.09 0.648437,0.26953 0.359104,0.3591 0.359105,0.93776 0,1.29688 -0.359103,0.3591 -0.937772,0.3591 -1.296875,0 -0.359103,-0.3591 -0.359102,-0.93778 0,-1.29688 0.179552,-0.17955 0.413927,-0.26953 0.648438,-0.26953 z"
             id="path1777" />
        </g>
        <g
           id="path1761"
           style="fill:#57e389">
          <path
             style="color:#000000;fill:#e66100;fill-rule:evenodd;stroke-width:0.211666pt;-inkscape-stroke:none"
             d="m 94.516612,127.73339 c -0.413091,-0.4131 -0.413091,-1.08362 1e-6,-1.49671 0.413091,-0.41309 1.083616,-0.41309 1.496707,0 0.413091,0.41309 0.413091,1.08362 -10e-7,1.49671 -0.413091,0.41309 -1.083616,0.41309 -1.496707,0 z"
             id="path1765" />
          <path
             style="color:#000000;fill:#000000;fill-rule:evenodd;-inkscape-stroke:none"
             d="m 95.265625,125.78711 c -0.307297,0 -0.61607,0.11607 -0.849609,0.34961 -0.467079,0.46708 -0.467076,1.23018 0,1.69726 0.467078,0.46708 1.230187,0.46708 1.697265,0 0.46708,-0.46707 0.467079,-1.23018 0,-1.69726 -0.233539,-0.23354 -0.540359,-0.34961 -0.847656,-0.34961 z m 0,0.2793 c 0.234511,0 0.468886,0.09 0.648437,0.26953 0.359103,0.3591 0.359104,0.93777 0,1.29687 -0.359103,0.3591 -0.937771,0.3591 -1.296875,0 -0.359105,-0.35911 -0.359104,-0.93777 0,-1.29687 0.179552,-0.17955 0.413927,-0.26953 0.648438,-0.26953 z"
             id="path1767" />
        </g>
      </g>
    </g>
    <g
       id="path861"
       style="fill:#57e389"
       transform="translate(-83.445312,-125.78711)">
      <path
         style="color:#000000;fill:#000000;-inkscape-stroke:none"
         d="m 84.666016,132.16016 v 0.26367 H 89.958984 95.25 v -0.26367 h -5.291016 z"
         id="path1809" />
      <g
         id="g1787"
         style="fill:#57e389">
        <g
           id="path1799"
           style="fill:#57e389">
          <path
             style="color:#000000;fill:#e66100;fill-rule:evenodd;stroke-width:0.211666pt;-inkscape-stroke:none"
             d="m 96.287165,132.29167 c -10e-7,0.5842 -0.474134,1.05833 -1.058334,1.05833 -0.584199,0 -1.058331,-0.47413 -1.05833,-1.05833 10e-7,-0.5842 0.474135,-1.05833 1.058334,-1.05833 0.5842,0 1.058331,0.47413 1.05833,1.05833 z"
             id="path1803" />
          <path
             style="color:#000000;fill:#000000;fill-rule:evenodd;-inkscape-stroke:none"
             d="m 95.228516,131.0918 c -0.660548,0 -1.199218,0.53867 -1.199219,1.19922 -10e-7,0.66054 0.538671,1.19921 1.199219,1.19921 0.660548,0 1.199217,-0.53867 1.199218,-1.19921 2e-6,-0.66055 -0.53867,-1.19922 -1.199218,-1.19922 z m 0,0.2832 c 0.50785,0 0.917969,0.40817 0.917968,0.91602 0,0.50785 -0.410118,0.91796 -0.917968,0.91796 -0.50785,0 -0.916017,-0.41011 -0.916016,-0.91796 10e-7,-0.50785 0.408166,-0.91602 0.916016,-0.91602 z"
             id="path1805" />
        </g>
        <g
           id="path1789"
           style="fill:#57e389">
          <path
             style="color:#000000;fill:#e66100;fill-rule:evenodd;stroke-width:0.211666pt;-inkscape-stroke:none"
             d="m 85.703831,132.29166 c 0,0.5842 -0.474132,1.05833 -1.058332,1.05833 -0.584199,0 -1.058332,-0.47413 -1.058332,-1.05833 0,-0.5842 0.474133,-1.05833 1.058332,-1.05833 0.5842,0 1.058332,0.47413 1.058332,1.05833 z"
             id="path1793" />
          <path
             style="color:#000000;fill:#000000;fill-rule:evenodd;-inkscape-stroke:none"
             d="m 84.644531,131.0918 c -0.660547,0 -1.199219,0.53867 -1.199219,1.19922 0,0.66054 0.538672,1.19921 1.199219,1.19921 0.660549,0 1.201172,-0.53867 1.201172,-1.19921 0,-0.66055 -0.540623,-1.19922 -1.201172,-1.19922 z m 0,0.2832 c 0.507851,0 0.917969,0.40817 0.917969,0.91602 0,0.50785 -0.410118,0.91796 -0.917969,0.91796 -0.507849,0 -0.916015,-0.41011 -0.916015,-0.91796 0,-0.50785 0.408166,-0.91602 0.916015,-0.91602 z"
             id="path1795" />
        </g>
      </g>
    </g>
    <g
       id="path863"
       style="fill:#57e389"
       transform="translate(-83.445312,-125.78711)">
      <path
         style="color:#000000;fill:#000000;-inkscape-stroke:none"
         d="m 89.826172,127 v 5.29102 h 0.263672 V 127 Z"
         id="path1837" />
      <g
         id="g1815"
         style="fill:#57e389">
        <g
           id="path1827"
           style="fill:#57e389">
          <path
             style="color:#000000;fill:#e66100;fill-rule:evenodd;stroke-width:0.211666pt;-inkscape-stroke:none"
             d="m 89.958332,125.96283 c 0.584199,0 1.058332,0.47414 1.058332,1.05834 0,0.5842 -0.474133,1.05833 -1.058332,1.05833 -0.584199,0 -1.058332,-0.47413 -1.058332,-1.05833 0,-0.5842 0.474133,-1.05834 1.058332,-1.05834 z"
             id="path1831" />
          <path
             style="color:#000000;fill:#000000;fill-rule:evenodd;-inkscape-stroke:none"
             d="m 89.958984,125.82227 c -0.660549,0 -1.199218,0.53867 -1.199218,1.19921 0,0.66055 0.538671,1.19922 1.199218,1.19922 0.660548,0 1.199219,-0.53867 1.199219,-1.19922 0,-0.66054 -0.538669,-1.19921 -1.199219,-1.19921 z m 0,0.28125 c 0.507848,0 0.916016,0.41011 0.916016,0.91796 0,0.50785 -0.408166,0.91602 -0.916016,0.91602 -0.507849,0 -0.917968,-0.40817 -0.917968,-0.91602 0,-0.50785 0.410121,-0.91796 0.917968,-0.91796 z"
             id="path1833" />
        </g>
        <g
           id="path1817"
           style="fill:#57e389">
          <path
             style="color:#000000;fill:#57e389;fill-rule:evenodd;stroke-width:0.211666pt;-inkscape-stroke:none"
             d="m 89.958332,131.25449 c 0.584199,0 1.058332,0.47414 1.058332,1.05834 0,0.5842 -0.474133,1.05833 -1.058332,1.05833 -0.584199,0 -1.058332,-0.47413 -1.058332,-1.05833 0,-0.5842 0.474133,-1.05834 1.058332,-1.05834 z"
             id="path1821" />
        </g>
      </g>
    </g>
    <g
       id="path865"
       style="fill:#57e389"
       transform="translate(-83.445312,-125.78711)">
      <path
         style="color:#000000;fill:#000000;-inkscape-stroke:none"
         d="m 84.759766,126.90625 -0.1875,0.1875 5.292968,5.29102 5.291016,5.29296 0.1875,-0.1875 -5.291016,-5.29296 z"
         id="path1865" />
      <g
         id="g1843"
         style="fill:#57e389">
        <g
           id="path1855"
           style="fill:#57e389">
          <path
             style="color:#000000;fill:#e66100;fill-rule:evenodd;stroke-width:0.211666pt;-inkscape-stroke:none"
             d="m 83.93328,126.26661 c 0.413091,-0.41309 1.083616,-0.41309 1.496707,0 0.413092,0.41309 0.413092,1.08362 10e-7,1.49671 -0.413091,0.41309 -1.083616,0.41309 -1.496707,0 -0.413092,-0.41309 -0.413092,-1.08361 -10e-7,-1.49671 z"
             id="path1859" />
          <path
             style="color:#000000;fill:#000000;fill-rule:evenodd;-inkscape-stroke:none"
             d="m 84.681641,125.81641 c -0.307297,0 -0.614118,0.11607 -0.847657,0.34961 -0.467075,0.46708 -0.467078,1.23018 0,1.69726 0.467078,0.46708 1.228235,0.46708 1.695313,0 0.467078,-0.46708 0.46708,-1.23019 0,-1.69726 -0.233539,-0.23354 -0.540359,-0.34961 -0.847656,-0.34961 z m 0,0.28125 c 0.23451,0 0.468886,0.09 0.648437,0.26953 0.359104,0.3591 0.359103,0.93777 0,1.29687 -0.359103,0.3591 -0.937772,0.3591 -1.296875,0 -0.359104,-0.3591 -0.359105,-0.93776 0,-1.29687 0.179552,-0.17955 0.413927,-0.26953 0.648438,-0.26953 z"
             id="path1861" />
        </g>
        <g
           id="path1845"
           style="fill:#57e389">
          <path
             style="color:#000000;fill:#e66100;fill-rule:evenodd;stroke-width:0.211666pt;-inkscape-stroke:none"
             d="m 94.516613,136.84994 c 0.413091,-0.41309 1.083616,-0.41309 1.496707,0 0.413091,0.41309 0.413091,1.08362 0,1.49671 -0.413092,0.41309 -1.083617,0.41309 -1.496708,0 -0.413091,-0.41309 -0.413091,-1.08362 1e-6,-1.49671 z"
             id="path1849" />
          <path
             style="color:#000000;fill:#000000;fill-rule:evenodd;-inkscape-stroke:none"
             d="m 95.265625,136.40039 c -0.307297,0 -0.61607,0.11607 -0.849609,0.34961 -0.46708,0.46708 -0.467079,1.23019 0,1.69727 0.467078,0.46707 1.230186,0.46707 1.697265,0 0.467079,-0.46708 0.467079,-1.23019 0,-1.69727 -0.233539,-0.23354 -0.540359,-0.34961 -0.847656,-0.34961 z m 0,0.2793 c 0.234511,0 0.468886,0.09 0.648437,0.26953 0.359103,0.3591 0.359103,0.93777 0,1.29687 -0.359104,0.35911 -0.937771,0.35911 -1.296875,0 -0.359102,-0.3591 -0.359103,-0.93777 0,-1.29687 0.179552,-0.17955 0.413927,-0.26953 0.648438,-0.26953 z"
             id="path1851" />
        </g>
      </g>
    </g>
    <g
       id="path980"
       style="fill:#57e389"
       transform="translate(-83.445312,-125.78711)">
      <path
         style="color:#000000;fill:#000000;-inkscape-stroke:none"
         d="m 89.826172,132.29102 v 5.29296 h 0.263672 v -5.29296 z"
         id="path1893" />
      <g
         id="g1871"
         style="fill:#57e389">
        <g
           id="path1883"
           style="fill:#57e389">
          <path
             style="color:#000000;fill:#e66100;fill-rule:evenodd;stroke-width:0.211666pt;-inkscape-stroke:none"
             d="m 89.958332,138.6205 c -0.584199,0 -1.058332,-0.47414 -1.058332,-1.05834 0,-0.5842 0.474133,-1.05833 1.058332,-1.05833 0.584199,0 1.058332,0.47413 1.058332,1.05833 0,0.5842 -0.474133,1.05834 -1.058332,1.05834 z"
             id="path1887" />
          <path
             style="color:#000000;fill:#000000;fill-rule:evenodd;-inkscape-stroke:none"
             d="m 89.958984,136.36328 c -0.660547,0 -1.199218,0.53867 -1.199218,1.19922 0,0.66055 0.538669,1.19922 1.199218,1.19922 0.66055,0 1.199219,-0.53867 1.199219,-1.19922 0,-0.66055 -0.538671,-1.19922 -1.199219,-1.19922 z m 0,0.28125 c 0.50785,0 0.916016,0.41012 0.916016,0.91797 0,0.50785 -0.408168,0.91602 -0.916016,0.91602 -0.507847,0 -0.917968,-0.40817 -0.917968,-0.91602 0,-0.50785 0.410119,-0.91797 0.917968,-0.91797 z"
             id="path1889" />
        </g>
        <g
           id="path1873"
           style="fill:#57e389">
          <path
             style="color:#000000;fill:#1c71d8;fill-rule:evenodd;stroke-width:0.211666pt;-inkscape-stroke:none"
             d="m 89.958332,133.32883 c -0.584199,0 -1.058332,-0.47414 -1.058332,-1.05834 0,-0.5842 0.474133,-1.05833 1.058332,-1.05833 0.584199,0 1.058332,0.47413 1.058332,1.05833 0,0.5842 -0.474133,1.05834 -1.058332,1.05834 z"
             id="path1877" />
          <path
             style="color:#000000;fill:#000000;fill-rule:evenodd;-inkscape-stroke:none"
             d="m 89.958984,131.07031 c -0.660547,0 -1.199218,0.53867 -1.199218,1.19922 0,0.66055 0.538669,1.20117 1.199218,1.20117 0.66055,0 1.199219,-0.54062 1.199219,-1.20117 0,-0.66055 -0.538671,-1.19922 -1.199219,-1.19922 z m 0,0.28321 c 0.50785,0 0.916016,0.40816 0.916016,0.91601 0,0.50785 -0.408168,0.91797 -0.916016,0.91797 -0.507847,0 -0.917968,-0.41012 -0.917968,-0.91797 0,-0.50785 0.410119,-0.91601 0.917968,-0.91601 z"
             id="path1879" />
        </g>
      </g>
    </g>
  </g>
</svg>
