<?xml version="1.0" encoding="UTF-8" standalone="no"?>
<!-- Created with Inkscape (http://www.inkscape.org/) -->

<svg
   width="28.31385mm"
   height="29.472538mm"
   viewBox="0 0 28.313851 29.472538"
   version="1.1"
   id="svg5"
   sodipodi:docname="subgraph.svg"
   inkscape:version="1.1 (c4e8f9e, 2021-05-24)"
   xmlns:inkscape="http://www.inkscape.org/namespaces/inkscape"
   xmlns:sodipodi="http://sodipodi.sourceforge.net/DTD/sodipodi-0.dtd"
   xmlns="http://www.w3.org/2000/svg"
   xmlns:svg="http://www.w3.org/2000/svg">
  <sodipodi:namedview
     id="namedview940"
     pagecolor="#ffffff"
     bordercolor="#666666"
     borderopacity="1.0"
     inkscape:pageshadow="2"
     inkscape:pageopacity="0.0"
     inkscape:pagecheckerboard="0"
     inkscape:document-units="mm"
     showgrid="true"
     inkscape:zoom="2.3702273"
     inkscape:cx="42.400997"
     inkscape:cy="31.009684"
     inkscape:window-width="1440"
     inkscape:window-height="847"
     inkscape:window-x="0"
     inkscape:window-y="25"
     inkscape:window-maximized="1"
     inkscape:current-layer="svg5"
     inkscape:snap-global="true">
    <inkscape:grid
       type="xygrid"
       id="grid1028"
       originx="-1.3609962"
       originy="-54.106304" />
  </sodipodi:namedview>
  <defs
     id="defs2">
    <marker
       style="overflow:visible"
       id="DotM"
       refX="0"
       refY="0"
       orient="auto"
       inkscape:stockid="DotM"
       inkscape:isstock="true">
      <path
         transform="matrix(0.4,0,0,0.4,2.96,0.4)"
         style="fill:context-stroke;fill-rule:evenodd;stroke:context-stroke;stroke-width:1pt"
         d="m -2.5,-1 c 0,2.76 -2.24,5 -5,5 -2.76,0 -5,-2.24 -5,-5 0,-2.76 2.24,-5 5,-5 2.76,0 5,2.24 5,5 z"
         id="path1298" />
    </marker>
    <marker
       style="overflow:visible"
       id="DotL"
       refX="0"
       refY="0"
       orient="auto">
      <path
         transform="matrix(0.8,0,0,0.8,5.92,0.8)"
         style="fill:context-stroke;fill-rule:evenodd;stroke:context-stroke;stroke-width:1pt"
         d="m -2.5,-1 c 0,2.76 -2.24,5 -5,5 -2.76,0 -5,-2.24 -5,-5 0,-2.76 2.24,-5 5,-5 2.76,0 5,2.24 5,5 z"
         id="path2375" />
    </marker>
    <defs
       id="id-5cca9bf7-6ab4-4533-92be-b33361ead314">
      <g
         id="id-42ce8389-74b1-4f10-8900-8ca69c18c01b">
        <symbol
           overflow="visible"
           id="id-daf97d15-f659-431a-8c8f-70f3ae1c6c8c">
          <path
             style="stroke:none"
             d=""
             id="id-eb0d8655-bfff-4582-9798-5664e05ce5a2" />
        </symbol>
        <symbol
           overflow="visible"
           id="id-3c9d9897-99b2-4bfc-a108-a0df22127224">
          <path
             style="stroke:none"
             d="m 3.65625,-3.984375 h 0.859375 c 0.203125,0 0.296875,0 0.296875,-0.203125 0,-0.109375 -0.09375,-0.109375 -0.265625,-0.109375 H 3.71875 L 3.921875,-5.4375 c 0.046875,-0.203125 0.1875,-0.90625 0.25,-1.03125 0.078125,-0.1875 0.25,-0.34375 0.46875,-0.34375 0.03125,0 0.296875,0 0.484375,0.1875 -0.4375,0.03125 -0.546875,0.390625 -0.546875,0.53125 0,0.234375 0.1875,0.359375 0.375,0.359375 C 5.21875,-5.734375 5.5,-5.96875 5.5,-6.34375 c 0,-0.453125 -0.453125,-0.6875 -0.859375,-0.6875 -0.34375,0 -0.96875,0.1875 -1.265625,1.171875 -0.0625,0.203125 -0.09375,0.3125 -0.328125,1.5625 h -0.6875 c -0.203125,0 -0.3125,0 -0.3125,0.1875 0,0.125 0.09375,0.125 0.28125,0.125 h 0.65625 L 2.25,-0.046875 c -0.1875,0.96875 -0.359375,1.875 -0.875,1.875 -0.046875,0 -0.28125,0 -0.484375,-0.1875 C 1.359375,1.609375 1.453125,1.25 1.453125,1.109375 1.453125,0.875 1.265625,0.75 1.078125,0.75 0.8125,0.75 0.53125,0.984375 0.53125,1.359375 c 0,0.4375 0.4375,0.6875 0.84375,0.6875 0.546875,0 0.953125,-0.59375 1.125,-0.96875 0.328125,-0.625 0.546875,-1.828125 0.5625,-1.90625 z m 0,0"
             id="id-1d4e5929-d1cf-4612-8ceb-c2e362a2fd38" />
        </symbol>
        <symbol
           overflow="visible"
           id="id-3285e101-c1bc-41c7-b9e7-b2334fb01d26">
          <path
             style="stroke:none"
             d="M 4.6875,-3.765625 C 4.703125,-3.8125 4.71875,-3.875 4.71875,-3.9375 c 0,-0.171875 -0.109375,-0.265625 -0.28125,-0.265625 -0.09375,0 -0.375,0.0625 -0.40625,0.421875 -0.1875,-0.359375 -0.53125,-0.625 -0.9375,-0.625 -1.125,0 -2.359375,1.390625 -2.359375,2.828125 0,0.984375 0.59375,1.578125 1.3125,1.578125 0.59375,0 1.0625,-0.46875 1.15625,-0.578125 L 3.21875,-0.5625 C 3.015625,0.3125 2.890625,0.734375 2.890625,0.75 2.84375,0.84375 2.515625,1.828125 1.453125,1.828125 1.265625,1.828125 0.9375,1.8125 0.65625,1.71875 0.953125,1.640625 1.0625,1.375 1.0625,1.203125 c 0,-0.15625 -0.109375,-0.34375 -0.375,-0.34375 -0.21875,0 -0.53125,0.171875 -0.53125,0.578125 0,0.40625 0.359375,0.609375 1.3125,0.609375 1.25,0 1.96875,-0.78125 2.125,-1.375 z M 3.40625,-1.28125 C 3.34375,-1.015625 3.109375,-0.765625 2.890625,-0.578125 2.6875,-0.40625 2.375,-0.21875 2.078125,-0.21875 c -0.5,0 -0.640625,-0.515625 -0.640625,-0.921875 0,-0.46875 0.28125,-1.65625 0.5625,-2.15625 C 2.265625,-3.78125 2.6875,-4.1875 3.109375,-4.1875 c 0.65625,0 0.796875,0.8125 0.796875,0.859375 0,0.046875 -0.015625,0.109375 -0.03125,0.140625 z m 0,0"
             id="id-e9aa846e-d3d7-44e9-8a6d-7216ba141b09" />
        </symbol>
        <symbol
           overflow="visible"
           id="id-3ba18641-c7a3-458a-8140-adc61682825d">
          <path
             style="stroke:none"
             d="m 2.859375,-6.8125 c 0,0 0,-0.109375 -0.125,-0.109375 -0.234375,0 -0.953125,0.078125 -1.21875,0.109375 -0.078125,0 -0.1875,0.015625 -0.1875,0.1875 0,0.125 0.09375,0.125 0.234375,0.125 0.484375,0 0.5,0.0625 0.5,0.171875 L 2.03125,-6.125 0.59375,-0.390625 c -0.046875,0.140625 -0.046875,0.15625 -0.046875,0.21875 0,0.234375 0.203125,0.28125 0.296875,0.28125 0.15625,0 0.3125,-0.125 0.359375,-0.265625 l 0.1875,-0.75 0.21875,-0.890625 C 1.671875,-2.03125 1.734375,-2.25 1.78125,-2.46875 1.796875,-2.53125 1.890625,-2.859375 1.890625,-2.921875 1.921875,-3.015625 2.234375,-3.5625 2.578125,-3.84375 2.796875,-4 3.09375,-4.1875 3.53125,-4.1875 c 0.421875,0 0.53125,0.34375 0.53125,0.703125 0,0.53125 -0.375,1.625 -0.609375,2.234375 C 3.375,-1.03125 3.3125,-0.90625 3.3125,-0.703125 c 0,0.46875 0.359375,0.8125 0.828125,0.8125 0.9375,0 1.296875,-1.453125 1.296875,-1.53125 0,-0.109375 -0.078125,-0.109375 -0.109375,-0.109375 -0.109375,0 -0.109375,0.03125 -0.15625,0.1875 -0.140625,0.53125 -0.46875,1.234375 -1.015625,1.234375 -0.171875,0 -0.234375,-0.09375 -0.234375,-0.328125 0,-0.25 0.078125,-0.484375 0.171875,-0.703125 0.15625,-0.4375 0.609375,-1.625 0.609375,-2.203125 0,-0.640625 -0.390625,-1.0625 -1.140625,-1.0625 -0.625,0 -1.109375,0.3125 -1.484375,0.765625 z m 0,0"
             id="id-b8b7d6ae-0362-449d-b1a6-32c02caf56ea" />
        </symbol>
        <symbol
           overflow="visible"
           id="id-cdfcb8ce-b73e-4845-9e44-f6069b98cbca">
          <path
             style="stroke:none"
             d="m 2.828125,-6.234375 c 0,-0.203125 -0.140625,-0.359375 -0.359375,-0.359375 -0.28125,0 -0.546875,0.265625 -0.546875,0.53125 0,0.1875 0.140625,0.359375 0.375,0.359375 0.234375,0 0.53125,-0.234375 0.53125,-0.53125 z m -0.75,3.75 c 0.109375,-0.28125 0.109375,-0.3125 0.21875,-0.578125 0.078125,-0.203125 0.125,-0.34375 0.125,-0.53125 0,-0.4375 -0.3125,-0.8125 -0.8125,-0.8125 -0.9375,0 -1.3125,1.453125 -1.3125,1.53125 0,0.109375 0.09375,0.109375 0.109375,0.109375 0.109375,0 0.109375,-0.03125 0.15625,-0.1875 0.28125,-0.9375 0.671875,-1.234375 1.015625,-1.234375 0.078125,0 0.25,0 0.25,0.3125 0,0.21875 -0.078125,0.421875 -0.109375,0.53125 -0.078125,0.25 -0.53125,1.40625 -0.6875,1.84375 -0.109375,0.25 -0.234375,0.578125 -0.234375,0.796875 0,0.46875 0.34375,0.8125 0.8125,0.8125 0.9375,0 1.3125,-1.4375 1.3125,-1.53125 0,-0.109375 -0.09375,-0.109375 -0.125,-0.109375 -0.09375,0 -0.09375,0.03125 -0.140625,0.1875 -0.1875,0.625 -0.515625,1.234375 -1.015625,1.234375 -0.171875,0 -0.25,-0.09375 -0.25,-0.328125 0,-0.25 0.0625,-0.390625 0.296875,-1 z m 0,0"
             id="id-fa73e000-7205-4a86-8370-984686f14c22" />
        </symbol>
        <symbol
           overflow="visible"
           id="id-f135f10e-e9bd-4a0e-8845-3e1ea2421849">
          <path
             style="stroke:none"
             d="m 3.953125,-6.234375 c 0,-0.1875 -0.140625,-0.359375 -0.375,-0.359375 -0.234375,0 -0.53125,0.234375 -0.53125,0.53125 0,0.203125 0.140625,0.359375 0.375,0.359375 0.265625,0 0.53125,-0.265625 0.53125,-0.53125 z m -2,6.734375 c -0.1875,0.75 -0.671875,1.328125 -1.21875,1.328125 -0.0625,0 -0.21875,0 -0.390625,-0.09375 0.296875,-0.0625 0.4375,-0.328125 0.4375,-0.53125 0,-0.15625 -0.109375,-0.34375 -0.375,-0.34375 -0.25,0 -0.53125,0.203125 -0.53125,0.5625 0,0.40625 0.390625,0.625 0.875,0.625 0.703125,0 1.625,-0.53125 1.875,-1.515625 L 3.53125,-3.125 c 0.0625,-0.1875 0.0625,-0.328125 0.0625,-0.359375 0,-0.578125 -0.421875,-0.921875 -0.921875,-0.921875 -1.015625,0 -1.578125,1.453125 -1.578125,1.53125 0,0.109375 0.09375,0.109375 0.109375,0.109375 0.09375,0 0.109375,-0.015625 0.1875,-0.203125 0.25,-0.609375 0.703125,-1.21875 1.25,-1.21875 0.140625,0 0.3125,0.046875 0.3125,0.453125 0,0.234375 -0.015625,0.34375 -0.0625,0.515625 z m 0,0"
             id="id-51546076-464d-489f-8314-3733b1d369b6" />
        </symbol>
        <symbol
           overflow="visible"
           id="id-6fb1728d-df96-4d5e-b99f-19539b794df2">
          <path
             style="stroke:none"
             d="m 2.859375,-6.8125 c 0,0 0,-0.109375 -0.125,-0.109375 -0.234375,0 -0.953125,0.078125 -1.21875,0.109375 -0.078125,0 -0.1875,0.015625 -0.1875,0.1875 0,0.125 0.09375,0.125 0.234375,0.125 0.484375,0 0.5,0.0625 0.5,0.171875 L 2.03125,-6.125 0.59375,-0.390625 c -0.046875,0.140625 -0.046875,0.15625 -0.046875,0.21875 0,0.234375 0.203125,0.28125 0.296875,0.28125 0.125,0 0.265625,-0.09375 0.328125,-0.203125 0.046875,-0.09375 0.5,-1.9375 0.5625,-2.1875 0.34375,0.03125 1.15625,0.1875 1.15625,0.84375 0,0.078125 0,0.109375 -0.03125,0.21875 -0.015625,0.109375 -0.03125,0.234375 -0.03125,0.34375 0,0.578125 0.390625,0.984375 0.90625,0.984375 0.296875,0 0.578125,-0.15625 0.796875,-0.53125 0.25,-0.4375 0.359375,-0.984375 0.359375,-1 0,-0.109375 -0.09375,-0.109375 -0.125,-0.109375 -0.09375,0 -0.109375,0.046875 -0.140625,0.1875 -0.203125,0.71875 -0.421875,1.234375 -0.859375,1.234375 -0.203125,0 -0.328125,-0.109375 -0.328125,-0.46875 0,-0.171875 0.046875,-0.40625 0.078125,-0.5625 C 3.5625,-1.3125 3.5625,-1.34375 3.5625,-1.453125 3.5625,-2.09375 2.9375,-2.375 2.078125,-2.5 2.390625,-2.671875 2.71875,-2.984375 2.9375,-3.234375 3.421875,-3.765625 3.875,-4.1875 4.359375,-4.1875 c 0.0625,0 0.078125,0 0.09375,0.015625 0.125,0.015625 0.125,0.015625 0.21875,0.078125 0.015625,0 0.015625,0.015625 0.03125,0.03125 -0.46875,0.03125 -0.5625,0.421875 -0.5625,0.546875 0,0.15625 0.109375,0.34375 0.375,0.34375 0.265625,0 0.546875,-0.21875 0.546875,-0.609375 0,-0.296875 -0.234375,-0.625 -0.671875,-0.625 -0.28125,0 -0.734375,0.078125 -1.453125,0.875 -0.34375,0.375 -0.734375,0.78125 -1.109375,0.921875 z m 0,0"
             id="id-6a11d582-5114-4825-93e5-6ccdc64866ac" />
        </symbol>
        <symbol
           overflow="visible"
           id="id-b8e4be2f-d4a7-4b04-8f97-1d88900febcb">
          <path
             style="stroke:none"
             d="m 1.859375,-2.296875 c 0.296875,0 1.03125,-0.03125 1.53125,-0.234375 0.703125,-0.296875 0.75,-0.890625 0.75,-1.03125 0,-0.4375 -0.375,-0.84375 -1.0625,-0.84375 -1.109375,0 -2.625,0.96875 -2.625,2.71875 0,1.015625 0.59375,1.796875 1.578125,1.796875 1.421875,0 2.25,-1.0625 2.25,-1.171875 0,-0.0625 -0.046875,-0.140625 -0.109375,-0.140625 -0.0625,0 -0.078125,0.03125 -0.140625,0.109375 -0.78125,0.984375 -1.875,0.984375 -1.984375,0.984375 -0.78125,0 -0.875,-0.84375 -0.875,-1.15625 0,-0.125 0.015625,-0.421875 0.15625,-1.03125 z m -0.46875,-0.21875 C 1.78125,-4.03125 2.8125,-4.1875 3.078125,-4.1875 c 0.453125,0 0.734375,0.296875 0.734375,0.625 0,1.046875 -1.59375,1.046875 -2.015625,1.046875 z m 0,0"
             id="id-d5498455-a994-4026-8231-b0a9089f79bb" />
        </symbol>
        <symbol
           overflow="visible"
           id="id-4e59a539-ffa6-44dd-b45a-fb1258b95c14">
          <path
             style="stroke:none"
             d=""
             id="id-1a1de153-43cf-4036-970d-be34b3640c09" />
        </symbol>
        <symbol
           overflow="visible"
           id="id-cd3be575-86b4-4c90-b6d6-0252cdf01b64">
          <path
             style="stroke:none"
             d="m 2.328125,-4.4375 c 0,-0.1875 0,-0.1875 -0.203125,-0.1875 -0.453125,0.4375 -1.078125,0.4375 -1.359375,0.4375 v 0.25 c 0.15625,0 0.625,0 1,-0.1875 v 3.546875 c 0,0.234375 0,0.328125 -0.6875,0.328125 H 0.8125 V 0 c 0.125,0 0.984375,-0.03125 1.234375,-0.03125 0.21875,0 1.09375,0.03125 1.25,0.03125 V -0.25 H 3.03125 c -0.703125,0 -0.703125,-0.09375 -0.703125,-0.328125 z m 0,0"
             id="id-1b404da2-cff4-4a27-9f8e-44ce68d79929" />
        </symbol>
        <symbol
           overflow="visible"
           id="id-48071caa-1f6f-4838-8e93-f7b0577e079c">
          <path
             style="stroke:none"
             d="M 3.515625,-1.265625 H 3.28125 c -0.015625,0.15625 -0.09375,0.5625 -0.1875,0.625 C 3.046875,-0.59375 2.515625,-0.59375 2.40625,-0.59375 H 1.125 c 0.734375,-0.640625 0.984375,-0.84375 1.390625,-1.171875 0.515625,-0.40625 1,-0.84375 1,-1.5 0,-0.84375 -0.734375,-1.359375 -1.625,-1.359375 -0.859375,0 -1.453125,0.609375 -1.453125,1.25 0,0.34375 0.296875,0.390625 0.375,0.390625 0.15625,0 0.359375,-0.125 0.359375,-0.375 0,-0.125 -0.046875,-0.375 -0.40625,-0.375 C 0.984375,-4.21875 1.453125,-4.375 1.78125,-4.375 c 0.703125,0 1.0625,0.546875 1.0625,1.109375 0,0.609375 -0.4375,1.078125 -0.65625,1.328125 L 0.515625,-0.265625 C 0.4375,-0.203125 0.4375,-0.1875 0.4375,0 h 2.875 z m 0,0"
             id="id-1395c378-1f1f-41f2-aa12-e323051712a0" />
        </symbol>
        <symbol
           overflow="visible"
           id="id-687da952-eb1e-4b5e-83d1-7a810b301f89">
          <path
             style="stroke:none"
             d="m 1.90625,-2.328125 c 0.546875,0 0.9375,0.375 0.9375,1.125 0,0.859375 -0.515625,1.125 -0.90625,1.125 -0.28125,0 -0.90625,-0.078125 -1.1875,-0.5 0.328125,0 0.40625,-0.234375 0.40625,-0.390625 0,-0.21875 -0.171875,-0.375 -0.390625,-0.375 -0.1875,0 -0.390625,0.125 -0.390625,0.40625 0,0.65625 0.71875,1.078125 1.5625,1.078125 0.96875,0 1.640625,-0.65625 1.640625,-1.34375 0,-0.546875 -0.4375,-1.09375 -1.203125,-1.25 0.71875,-0.265625 0.984375,-0.78125 0.984375,-1.21875 0,-0.546875 -0.625,-0.953125 -1.40625,-0.953125 -0.765625,0 -1.359375,0.375 -1.359375,0.9375 0,0.234375 0.15625,0.359375 0.359375,0.359375 0.21875,0 0.359375,-0.15625 0.359375,-0.34375 0,-0.203125 -0.140625,-0.359375 -0.359375,-0.375 0.25,-0.296875 0.71875,-0.375 0.984375,-0.375 0.3125,0 0.75,0.15625 0.75,0.75 0,0.296875 -0.09375,0.625 -0.28125,0.828125 -0.21875,0.265625 -0.421875,0.28125 -0.765625,0.3125 -0.171875,0.015625 -0.1875,0.015625 -0.21875,0.015625 -0.015625,0 -0.078125,0.015625 -0.078125,0.09375 0,0.09375 0.0625,0.09375 0.1875,0.09375 z m 0,0"
             id="id-1ac57852-66fb-4ab5-b4dc-c1032bdcc9a2" />
        </symbol>
        <symbol
           overflow="visible"
           id="id-9401120b-d300-4fe3-8454-c667430822cb">
          <path
             style="stroke:none"
             d="m 3.6875,-1.140625 v -0.25 H 2.90625 V -4.5 c 0,-0.140625 0,-0.203125 -0.140625,-0.203125 -0.09375,0 -0.125,0 -0.1875,0.109375 l -2.3125,3.203125 v 0.25 h 2.0625 v 0.5625 c 0,0.25 0,0.328125 -0.578125,0.328125 H 1.5625 V 0 C 1.921875,-0.015625 2.359375,-0.03125 2.609375,-0.03125 2.875,-0.03125 3.3125,-0.015625 3.671875,0 v -0.25 h -0.1875 C 2.90625,-0.25 2.90625,-0.328125 2.90625,-0.578125 v -0.5625 z M 2.375,-3.9375 v 2.546875 H 0.53125 Z m 0,0"
             id="id-540bb140-1f8b-4c4f-b7d1-7acb98300e8c" />
        </symbol>
        <symbol
           overflow="visible"
           id="id-5ec56bc0-3680-4d88-949a-ef5c240e61af">
          <path
             style="stroke:none"
             d="m 1.078125,-3.890625 c 0.359375,0.09375 0.5625,0.09375 0.671875,0.09375 0.921875,0 1.46875,-0.625 1.46875,-0.734375 0,-0.078125 -0.046875,-0.09375 -0.078125,-0.09375 -0.015625,0 -0.03125,0 -0.0625,0.015625 -0.171875,0.0625 -0.53125,0.203125 -1.046875,0.203125 -0.203125,0 -0.5625,-0.015625 -1.015625,-0.1875 C 0.9375,-4.625 0.921875,-4.625 0.921875,-4.625 c -0.09375,0 -0.09375,0.078125 -0.09375,0.1875 v 2.046875 c 0,0.125 0,0.203125 0.109375,0.203125 0.0625,0 0.078125,0 0.140625,-0.09375 0.296875,-0.375 0.734375,-0.4375 0.96875,-0.4375 0.421875,0 0.609375,0.328125 0.640625,0.390625 0.125,0.234375 0.171875,0.5 0.171875,0.90625 0,0.203125 0,0.609375 -0.21875,0.921875 -0.171875,0.25 -0.46875,0.421875 -0.8125,0.421875 -0.453125,0 -0.921875,-0.25 -1.09375,-0.71875 0.265625,0.015625 0.40625,-0.15625 0.40625,-0.34375 0,-0.296875 -0.265625,-0.34375 -0.359375,-0.34375 0,0 -0.34375,0 -0.34375,0.375 0,0.625 0.578125,1.25 1.40625,1.25 0.890625,0 1.671875,-0.65625 1.671875,-1.546875 0,-0.78125 -0.59375,-1.5 -1.453125,-1.5 -0.3125,0 -0.671875,0.0625 -0.984375,0.328125 z m 0,0"
             id="id-24c2d6db-b791-4e6b-a23c-281f2707a80f" />
        </symbol>
        <symbol
           overflow="visible"
           id="id-e0d3cb4f-69a5-4bfa-86c1-a40e06da2f85">
          <path
             style="stroke:none"
             d="m 1.046875,-2.28125 c 0,-0.5625 0.046875,-1.078125 0.3125,-1.515625 0.234375,-0.375 0.609375,-0.625 1.0625,-0.625 0.203125,0 0.484375,0.046875 0.625,0.234375 C 2.875,-4.171875 2.71875,-4.046875 2.71875,-3.84375 c 0,0.171875 0.125,0.328125 0.328125,0.328125 0.21875,0 0.34375,-0.140625 0.34375,-0.34375 0,-0.40625 -0.296875,-0.765625 -0.984375,-0.765625 -1,0 -2.03125,0.921875 -2.03125,2.421875 0,1.796875 0.84375,2.34375 1.625,2.34375 0.84375,0 1.578125,-0.65625 1.578125,-1.5625 0,-0.890625 -0.703125,-1.546875 -1.515625,-1.546875 -0.5625,0 -0.859375,0.375 -1.015625,0.6875 z M 2,-0.078125 c -0.359375,0 -0.625,-0.203125 -0.78125,-0.515625 C 1.125,-0.796875 1.0625,-1.15625 1.0625,-1.5625 c 0,-0.6875 0.40625,-1.203125 0.96875,-1.203125 0.3125,0 0.53125,0.125 0.703125,0.375 0.171875,0.265625 0.171875,0.5625 0.171875,0.96875 0,0.390625 0,0.6875 -0.1875,0.96875 -0.15625,0.234375 -0.390625,0.375 -0.71875,0.375 z m 0,0"
             id="id-21f3d4a2-f246-45e9-b1e2-314f9d3c0621" />
        </symbol>
      </g>
    </defs>
    <defs
       id="id-629db5c2-2adc-4273-854b-0f1cc6dad1d6">
      <g
         id="id-6869a35f-fee5-4f43-b1f2-3b6ad58e18fd">
        <symbol
           overflow="visible"
           id="id-923878e3-d038-4f2b-9daf-2601d8765c6e">
          <path
             style="stroke:none;stroke-width:0"
             d=""
             id="id-33f3ee74-6eef-4128-a469-44d91aee008a" />
        </symbol>
        <symbol
           overflow="visible"
           id="id-1dbca71d-88f5-484a-9c5f-2927a6143c10">
          <path
             style="stroke:none;stroke-width:0"
             d="M 3.71875,-3.765625 C 3.53125,-4.140625 3.25,-4.40625 2.796875,-4.40625 c -1.15625,0 -2.390625,1.46875 -2.390625,2.921875 0,0.9375 0.546875,1.59375 1.3125,1.59375 0.203125,0 0.703125,-0.046875 1.296875,-0.75 0.078125,0.421875 0.4375,0.75 0.90625,0.75 0.359375,0 0.578125,-0.234375 0.75,-0.546875 0.15625,-0.359375 0.296875,-0.96875 0.296875,-0.984375 0,-0.109375 -0.09375,-0.109375 -0.125,-0.109375 -0.09375,0 -0.109375,0.046875 -0.140625,0.1875 -0.171875,0.640625 -0.34375,1.234375 -0.75,1.234375 -0.28125,0 -0.296875,-0.265625 -0.296875,-0.453125 0,-0.21875 0.015625,-0.3125 0.125,-0.75 C 3.890625,-1.71875 3.90625,-1.828125 4,-2.203125 L 4.359375,-3.59375 c 0.0625,-0.28125 0.0625,-0.296875 0.0625,-0.34375 0,-0.171875 -0.109375,-0.265625 -0.28125,-0.265625 -0.25,0 -0.390625,0.21875 -0.421875,0.4375 z M 3.078125,-1.1875 C 3.015625,-1 3.015625,-0.984375 2.875,-0.8125 2.4375,-0.265625 2.03125,-0.109375 1.75,-0.109375 c -0.5,0 -0.640625,-0.546875 -0.640625,-0.9375 0,-0.5 0.3125,-1.71875 0.546875,-2.1875 0.3125,-0.578125 0.75,-0.953125 1.15625,-0.953125 0.640625,0 0.78125,0.8125 0.78125,0.875 0,0.0625 -0.015625,0.125 -0.03125,0.171875 z m 0,0"
             id="id-cf5fc040-f38c-4d41-8f91-835c2a05a6a3" />
        </symbol>
        <symbol
           overflow="visible"
           id="id-f9a2e261-4b91-4da1-ac5e-4ba1d6bf1886">
          <path
             style="stroke:none;stroke-width:0"
             d="m 2.375,-6.8125 c 0,0 0,-0.109375 -0.125,-0.109375 -0.21875,0 -0.953125,0.078125 -1.21875,0.109375 -0.078125,0 -0.1875,0.015625 -0.1875,0.1875 0,0.125 0.09375,0.125 0.25,0.125 0.46875,0 0.484375,0.0625 0.484375,0.171875 0,0.0625 -0.078125,0.40625 -0.125,0.609375 l -0.828125,3.25 c -0.109375,0.5 -0.15625,0.671875 -0.15625,1.015625 0,0.9375 0.53125,1.5625 1.265625,1.5625 1.171875,0 2.40625,-1.484375 2.40625,-2.921875 0,-0.90625 -0.53125,-1.59375 -1.328125,-1.59375 -0.453125,0 -0.875,0.296875 -1.171875,0.59375 z M 1.453125,-3.046875 C 1.5,-3.265625 1.5,-3.28125 1.59375,-3.390625 2.078125,-4.03125 2.53125,-4.1875 2.796875,-4.1875 c 0.359375,0 0.625,0.296875 0.625,0.9375 0,0.59375 -0.328125,1.734375 -0.515625,2.109375 -0.328125,0.671875 -0.78125,1.03125 -1.171875,1.03125 -0.34375,0 -0.671875,-0.265625 -0.671875,-1 0,-0.203125 0,-0.390625 0.15625,-1.015625 z m 0,0"
             id="id-ea0f1b7e-7f09-497f-b5b2-a0d3afa19a0c" />
        </symbol>
        <symbol
           overflow="visible"
           id="id-45d144e8-62cc-4134-b79f-09b1b7453a6e">
          <path
             style="stroke:none;stroke-width:0"
             d="m 3.953125,-3.78125 c -0.171875,0 -0.296875,0 -0.4375,0.125 -0.171875,0.15625 -0.1875,0.328125 -0.1875,0.390625 0,0.25 0.1875,0.359375 0.375,0.359375 0.28125,0 0.546875,-0.25 0.546875,-0.640625 0,-0.484375 -0.46875,-0.859375 -1.171875,-0.859375 -1.34375,0 -2.671875,1.421875 -2.671875,2.828125 0,0.90625 0.578125,1.6875 1.625,1.6875 1.421875,0 2.25,-1.0625 2.25,-1.171875 0,-0.0625 -0.046875,-0.140625 -0.109375,-0.140625 -0.0625,0 -0.078125,0.03125 -0.140625,0.109375 -0.78125,0.984375 -1.875,0.984375 -1.984375,0.984375 -0.625,0 -0.90625,-0.484375 -0.90625,-1.09375 0,-0.40625 0.203125,-1.375 0.546875,-1.984375 0.3125,-0.578125 0.859375,-1 1.40625,-1 0.328125,0 0.71875,0.125 0.859375,0.40625 z m 0,0"
             id="id-7910f9a3-c2fa-4519-be97-1c2c24ca0c63" />
        </symbol>
        <symbol
           overflow="visible"
           id="id-8a675214-8489-4979-b65d-1553700b976a">
          <path
             style="stroke:none;stroke-width:0"
             d="m 5.140625,-6.8125 c 0,0 0,-0.109375 -0.125,-0.109375 -0.15625,0 -1.09375,0.09375 -1.265625,0.109375 -0.078125,0.015625 -0.140625,0.0625 -0.140625,0.1875 0,0.125 0.09375,0.125 0.234375,0.125 0.484375,0 0.5,0.0625 0.5,0.171875 L 4.3125,-6.125 3.71875,-3.765625 C 3.53125,-4.140625 3.25,-4.40625 2.796875,-4.40625 c -1.15625,0 -2.390625,1.46875 -2.390625,2.921875 0,0.9375 0.546875,1.59375 1.3125,1.59375 0.203125,0 0.703125,-0.046875 1.296875,-0.75 0.078125,0.421875 0.4375,0.75 0.90625,0.75 0.359375,0 0.578125,-0.234375 0.75,-0.546875 0.15625,-0.359375 0.296875,-0.96875 0.296875,-0.984375 0,-0.109375 -0.09375,-0.109375 -0.125,-0.109375 -0.09375,0 -0.109375,0.046875 -0.140625,0.1875 -0.171875,0.640625 -0.34375,1.234375 -0.75,1.234375 -0.28125,0 -0.296875,-0.265625 -0.296875,-0.453125 0,-0.25 0.015625,-0.3125 0.046875,-0.484375 z m -2.0625,5.625 C 3.015625,-1 3.015625,-0.984375 2.875,-0.8125 2.4375,-0.265625 2.03125,-0.109375 1.75,-0.109375 c -0.5,0 -0.640625,-0.546875 -0.640625,-0.9375 0,-0.5 0.3125,-1.71875 0.546875,-2.1875 0.3125,-0.578125 0.75,-0.953125 1.15625,-0.953125 0.640625,0 0.78125,0.8125 0.78125,0.875 0,0.0625 -0.015625,0.125 -0.03125,0.171875 z m 0,0"
             id="id-e932d5f5-da72-4f78-a396-219798c7f143" />
        </symbol>
        <symbol
           overflow="visible"
           id="id-57e59788-7c47-454f-ad5e-1585b0f9e808">
          <path
             style="stroke:none;stroke-width:0"
             d="m 2.859375,-6.8125 c 0,0 0,-0.109375 -0.125,-0.109375 -0.234375,0 -0.953125,0.078125 -1.21875,0.109375 -0.078125,0 -0.1875,0.015625 -0.1875,0.1875 0,0.125 0.09375,0.125 0.234375,0.125 0.484375,0 0.5,0.0625 0.5,0.171875 L 2.03125,-6.125 0.59375,-0.390625 c -0.046875,0.140625 -0.046875,0.15625 -0.046875,0.21875 0,0.234375 0.203125,0.28125 0.296875,0.28125 0.15625,0 0.3125,-0.125 0.359375,-0.265625 l 0.1875,-0.75 0.21875,-0.890625 C 1.671875,-2.03125 1.734375,-2.25 1.78125,-2.46875 1.796875,-2.53125 1.890625,-2.859375 1.890625,-2.921875 1.921875,-3.015625 2.234375,-3.5625 2.578125,-3.84375 2.796875,-4 3.09375,-4.1875 3.53125,-4.1875 c 0.421875,0 0.53125,0.34375 0.53125,0.703125 0,0.53125 -0.375,1.625 -0.609375,2.234375 C 3.375,-1.03125 3.3125,-0.90625 3.3125,-0.703125 c 0,0.46875 0.359375,0.8125 0.828125,0.8125 0.9375,0 1.296875,-1.453125 1.296875,-1.53125 0,-0.109375 -0.078125,-0.109375 -0.109375,-0.109375 -0.109375,0 -0.109375,0.03125 -0.15625,0.1875 -0.140625,0.53125 -0.46875,1.234375 -1.015625,1.234375 -0.171875,0 -0.234375,-0.09375 -0.234375,-0.328125 0,-0.25 0.078125,-0.484375 0.171875,-0.703125 0.15625,-0.4375 0.609375,-1.625 0.609375,-2.203125 0,-0.640625 -0.390625,-1.0625 -1.140625,-1.0625 -0.625,0 -1.109375,0.3125 -1.484375,0.765625 z m 0,0"
             id="id-a10de070-d2a0-4cb5-ac4e-6266f388ce1d" />
        </symbol>
        <symbol
           overflow="visible"
           id="id-32505386-90da-435f-b12e-c5a691bc0abe">
          <path
             style="stroke:none;stroke-width:0"
             d="m 2.828125,-6.234375 c 0,-0.203125 -0.140625,-0.359375 -0.359375,-0.359375 -0.28125,0 -0.546875,0.265625 -0.546875,0.53125 0,0.1875 0.140625,0.359375 0.375,0.359375 0.234375,0 0.53125,-0.234375 0.53125,-0.53125 z m -0.75,3.75 c 0.109375,-0.28125 0.109375,-0.3125 0.21875,-0.578125 0.078125,-0.203125 0.125,-0.34375 0.125,-0.53125 0,-0.4375 -0.3125,-0.8125 -0.8125,-0.8125 -0.9375,0 -1.3125,1.453125 -1.3125,1.53125 0,0.109375 0.09375,0.109375 0.109375,0.109375 0.109375,0 0.109375,-0.03125 0.15625,-0.1875 0.28125,-0.9375 0.671875,-1.234375 1.015625,-1.234375 0.078125,0 0.25,0 0.25,0.3125 0,0.21875 -0.078125,0.421875 -0.109375,0.53125 -0.078125,0.25 -0.53125,1.40625 -0.6875,1.84375 -0.109375,0.25 -0.234375,0.578125 -0.234375,0.796875 0,0.46875 0.34375,0.8125 0.8125,0.8125 0.9375,0 1.3125,-1.4375 1.3125,-1.53125 0,-0.109375 -0.09375,-0.109375 -0.125,-0.109375 -0.09375,0 -0.09375,0.03125 -0.140625,0.1875 -0.1875,0.625 -0.515625,1.234375 -1.015625,1.234375 -0.171875,0 -0.25,-0.09375 -0.25,-0.328125 0,-0.25 0.0625,-0.390625 0.296875,-1 z m 0,0"
             id="id-60ea93b5-d48c-4380-8c20-02ab82d5e585" />
        </symbol>
        <symbol
           overflow="visible"
           id="id-d6cf6f14-b139-4273-af02-25720367f2c0">
          <path
             style="stroke:none;stroke-width:0"
             d="m 3.953125,-6.234375 c 0,-0.1875 -0.140625,-0.359375 -0.375,-0.359375 -0.234375,0 -0.53125,0.234375 -0.53125,0.53125 0,0.203125 0.140625,0.359375 0.375,0.359375 0.265625,0 0.53125,-0.265625 0.53125,-0.53125 z m -2,6.734375 c -0.1875,0.75 -0.671875,1.328125 -1.21875,1.328125 -0.0625,0 -0.21875,0 -0.390625,-0.09375 0.296875,-0.0625 0.4375,-0.328125 0.4375,-0.53125 0,-0.15625 -0.109375,-0.34375 -0.375,-0.34375 -0.25,0 -0.53125,0.203125 -0.53125,0.5625 0,0.40625 0.390625,0.625 0.875,0.625 0.703125,0 1.625,-0.53125 1.875,-1.515625 L 3.53125,-3.125 c 0.0625,-0.1875 0.0625,-0.328125 0.0625,-0.359375 0,-0.578125 -0.421875,-0.921875 -0.921875,-0.921875 -1.015625,0 -1.578125,1.453125 -1.578125,1.53125 0,0.109375 0.09375,0.109375 0.109375,0.109375 0.09375,0 0.109375,-0.015625 0.1875,-0.203125 0.25,-0.609375 0.703125,-1.21875 1.25,-1.21875 0.140625,0 0.3125,0.046875 0.3125,0.453125 0,0.234375 -0.015625,0.34375 -0.0625,0.515625 z m 0,0"
             id="id-19a8d8b6-5f0e-464d-a027-ccaab9263ca6" />
        </symbol>
        <symbol
           overflow="visible"
           id="id-eaca6f87-6f43-4355-b2d6-ba5f4a5b32cb">
          <path
             style="stroke:none;stroke-width:0"
             d="m 2.859375,-6.8125 c 0,0 0,-0.109375 -0.125,-0.109375 -0.234375,0 -0.953125,0.078125 -1.21875,0.109375 -0.078125,0 -0.1875,0.015625 -0.1875,0.1875 0,0.125 0.09375,0.125 0.234375,0.125 0.484375,0 0.5,0.0625 0.5,0.171875 L 2.03125,-6.125 0.59375,-0.390625 c -0.046875,0.140625 -0.046875,0.15625 -0.046875,0.21875 0,0.234375 0.203125,0.28125 0.296875,0.28125 0.125,0 0.265625,-0.09375 0.328125,-0.203125 0.046875,-0.09375 0.5,-1.9375 0.5625,-2.1875 0.34375,0.03125 1.15625,0.1875 1.15625,0.84375 0,0.078125 0,0.109375 -0.03125,0.21875 -0.015625,0.109375 -0.03125,0.234375 -0.03125,0.34375 0,0.578125 0.390625,0.984375 0.90625,0.984375 0.296875,0 0.578125,-0.15625 0.796875,-0.53125 0.25,-0.4375 0.359375,-0.984375 0.359375,-1 0,-0.109375 -0.09375,-0.109375 -0.125,-0.109375 -0.09375,0 -0.109375,0.046875 -0.140625,0.1875 -0.203125,0.71875 -0.421875,1.234375 -0.859375,1.234375 -0.203125,0 -0.328125,-0.109375 -0.328125,-0.46875 0,-0.171875 0.046875,-0.40625 0.078125,-0.5625 C 3.5625,-1.3125 3.5625,-1.34375 3.5625,-1.453125 3.5625,-2.09375 2.9375,-2.375 2.078125,-2.5 2.390625,-2.671875 2.71875,-2.984375 2.9375,-3.234375 3.421875,-3.765625 3.875,-4.1875 4.359375,-4.1875 c 0.0625,0 0.078125,0 0.09375,0.015625 0.125,0.015625 0.125,0.015625 0.21875,0.078125 0.015625,0 0.015625,0.015625 0.03125,0.03125 -0.46875,0.03125 -0.5625,0.421875 -0.5625,0.546875 0,0.15625 0.109375,0.34375 0.375,0.34375 0.265625,0 0.546875,-0.21875 0.546875,-0.609375 0,-0.296875 -0.234375,-0.625 -0.671875,-0.625 -0.28125,0 -0.734375,0.078125 -1.453125,0.875 -0.34375,0.375 -0.734375,0.78125 -1.109375,0.921875 z m 0,0"
             id="id-0672bd9b-4136-470d-b34b-6b5cd255ac0d" />
        </symbol>
      </g>
    </defs>
  </defs>
  <g
     id="rect1052">
    <path
       style="color:#000000;fill:#0084c8;fill-rule:evenodd;-inkscape-stroke:none"
       d="m 9.3554688,9.1289063 c -0.2152921,0 -0.3984375,0.1811923 -0.3984375,0.3964843 V 19.845703 c 0,0.215292 0.1831454,0.396484 0.3984375,0.396484 H 19.673828 c 0.215292,0 0.396484,-0.181192 0.396484,-0.396484 V 9.5253906 c 0,-0.215292 -0.181192,-0.3964843 -0.396484,-0.3964843 z M 9.4863281,9.6582031 H 19.541016 V 19.712891 H 9.4863281 Z"
       id="path1129" />
    <g
       id="g1047">
      <g
         id="path1119">
        <path
           style="color:#000000;fill:#0084c8;fill-rule:evenodd;stroke-width:0.211667pt;-inkscape-stroke:none"
           d="m 9.2223368,8.4888183 c 0.5842003,0 1.0583342,0.4741336 1.0583342,1.058334 0,0.5842007 -0.4741339,1.0583337 -1.0583342,1.0583337 -0.5842004,0 -1.058334,-0.474133 -1.058334,-1.0583337 0,-0.5842004 0.4741336,-1.058334 1.058334,-1.058334 z"
           id="path1123" />
        <path
           style="color:#000000;fill:#0084c8;fill-rule:evenodd;-inkscape-stroke:none"
           d="m 9.2226563,8.3476563 c -0.6605499,0 -1.1992188,0.5386689 -1.1992188,1.1992187 0,0.66055 0.538669,1.199219 1.1992188,1.199219 0.6605496,0 1.1992187,-0.538669 1.1992187,-1.199219 0,-0.6605499 -0.538669,-1.1992188 -1.1992187,-1.1992187 z m 0,0.2832031 c 0.5078496,0 0.9160157,0.4081658 0.9160157,0.9160156 0,0.50785 -0.408166,0.917969 -0.9160157,0.917969 -0.50785,0 -0.9179688,-0.410119 -0.9179688,-0.917969 0,-0.5078498 0.4101189,-0.9160156 0.9179688,-0.9160156 z"
           id="path1125" />
      </g>
      <g
         id="path1109">
        <path
           style="color:#000000;fill:#0084c8;fill-rule:evenodd;stroke-width:0.211667pt;-inkscape-stroke:none"
           d="m 9.2223368,18.807568 c 0.5842003,0 1.0583342,0.474134 1.0583342,1.058334 0,0.5842 -0.4741339,1.058334 -1.0583342,1.058334 -0.5842004,0 -1.058334,-0.474134 -1.058334,-1.058334 0,-0.5842 0.4741336,-1.058334 1.058334,-1.058334 z"
           id="path1113" />
        <path
           style="color:#000000;fill:#0084c8;fill-rule:evenodd;-inkscape-stroke:none"
           d="m 9.2226563,18.666016 c -0.6605499,0 -1.1992188,0.538669 -1.1992188,1.199218 0,0.66055 0.5386689,1.199219 1.1992188,1.199219 0.6605497,0 1.1992187,-0.538669 1.1992187,-1.199219 0,-0.660549 -0.538669,-1.199218 -1.1992187,-1.199218 z m 0,0.283203 c 0.5078496,0 0.9160157,0.408166 0.9160157,0.916015 0,0.50785 -0.4081661,0.917969 -0.9160157,0.917969 -0.5078498,0 -0.9179688,-0.410119 -0.9179688,-0.917969 0,-0.507849 0.410119,-0.916015 0.9179688,-0.916015 z"
           id="path1115" />
      </g>
      <g
         id="path1099">
        <path
           style="color:#000000;fill:#0084c8;fill-rule:evenodd;stroke-width:0.211667pt;-inkscape-stroke:none"
           d="m 8.3174611,19.977027 c 0,-0.5842 0.4741336,-1.058334 1.058334,-1.058334 0.5842004,0 1.0583339,0.474134 1.0583339,1.058334 0,0.5842 -0.4741335,1.058334 -1.0583339,1.058334 -0.5842004,0 -1.058334,-0.474134 -1.058334,-1.058334 z"
           id="path1103" />
        <path
           style="color:#000000;fill:#0084c8;fill-rule:evenodd;-inkscape-stroke:none"
           d="m 9.375,18.777344 c -0.6605499,0 -1.1992187,0.538669 -1.1992187,1.199218 -1e-7,0.66055 0.5386688,1.199219 1.1992187,1.199219 0.66055,0 1.201172,-0.538669 1.201172,-1.199219 0,-0.660549 -0.540622,-1.199218 -1.201172,-1.199218 z m 0,0.283203 c 0.5078497,0 0.917969,0.408166 0.917969,0.916015 0,0.50785 -0.4101193,0.917969 -0.917969,0.917969 -0.5078497,0 -0.9160156,-0.410119 -0.9160156,-0.917969 0,-0.507849 0.4081659,-0.916015 0.9160156,-0.916015 z"
           id="path1105" />
      </g>
      <g
         id="path1089">
        <path
           style="color:#000000;fill:#0084c8;fill-rule:evenodd;stroke-width:0.211667pt;-inkscape-stroke:none"
           d="m 18.636211,19.977027 c 0,-0.5842 0.474133,-1.058334 1.058334,-1.058334 0.5842,0 1.058334,0.474134 1.058334,1.058334 0,0.5842 -0.474134,1.058334 -1.058334,1.058334 -0.584201,0 -1.058334,-0.474134 -1.058334,-1.058334 z"
           id="path1093" />
        <path
           style="color:#000000;fill:#0084c8;fill-rule:evenodd;-inkscape-stroke:none"
           d="m 19.695312,18.777344 c -0.66055,0 -1.201171,0.538669 -1.201171,1.199218 0,0.66055 0.540621,1.199219 1.201171,1.199219 0.66055,0 1.199219,-0.538669 1.199219,-1.199219 0,-0.660549 -0.538669,-1.199218 -1.199219,-1.199218 z m 0,0.283203 c 0.50785,0 0.916016,0.408166 0.916016,0.916015 0,0.50785 -0.408166,0.917969 -0.916016,0.917969 -0.50785,0 -0.917968,-0.410119 -0.917968,-0.917969 0,-0.507849 0.410118,-0.916015 0.917968,-0.916015 z"
           id="path1095" />
      </g>
      <g
         id="path1079">
        <path
           style="color:#000000;fill:#0084c8;fill-rule:evenodd;stroke-width:0.211667pt;-inkscape-stroke:none"
           d="m 19.80567,20.881903 c -0.584201,0 -1.058334,-0.474134 -1.058334,-1.058334 0,-0.584201 0.474133,-1.058334 1.058334,-1.058334 0.5842,0 1.058334,0.474133 1.058334,1.058334 0,0.5842 -0.474134,1.058334 -1.058334,1.058334 z"
           id="path1083" />
        <path
           style="color:#000000;fill:#0084c8;fill-rule:evenodd;-inkscape-stroke:none"
           d="m 19.806641,18.625 c -0.660551,0 -1.201172,0.538669 -1.201172,1.199219 0,0.660549 0.540621,1.199218 1.201172,1.199218 0.660549,0 1.199218,-0.538669 1.199218,-1.199218 0,-0.660551 -0.538669,-1.199219 -1.199218,-1.199219 z m 0,0.28125 c 0.507849,0 0.916015,0.410118 0.916015,0.917969 0,0.507849 -0.408166,0.916015 -0.916015,0.916015 -0.507851,0 -0.917969,-0.408166 -0.917969,-0.916015 0,-0.507851 0.410118,-0.917969 0.917969,-0.917969 z"
           id="path1085" />
      </g>
      <g
         id="path1069">
        <path
           style="color:#000000;fill:#0084c8;fill-rule:evenodd;stroke-width:0.211667pt;-inkscape-stroke:none"
           d="m 19.80567,10.563153 c -0.584201,0 -1.058334,-0.474134 -1.058334,-1.0583341 0,-0.5842004 0.474133,-1.058334 1.058334,-1.058334 0.5842,0 1.058334,0.4741336 1.058334,1.058334 0,0.5842001 -0.474134,1.0583341 -1.058334,1.0583341 z"
           id="path1073" />
        <path
           style="color:#000000;fill:#0084c8;fill-rule:evenodd;-inkscape-stroke:none"
           d="m 19.806641,8.3046875 c -0.660551,0 -1.201172,0.538669 -1.201172,1.1992188 0,0.6605497 0.540621,1.2011717 1.201172,1.2011717 0.660549,0 1.199218,-0.540622 1.199218,-1.2011717 0,-0.6605499 -0.538669,-1.1992188 -1.199218,-1.1992188 z m 0,0.2832031 c 0.507849,0 0.916015,0.4081659 0.916015,0.9160157 0,0.5078497 -0.408166,0.9179687 -0.916015,0.9179687 -0.507851,0 -0.917969,-0.410119 -0.917969,-0.9179687 0,-0.50785 0.410118,-0.9160157 0.917969,-0.9160157 z"
           id="path1075" />
      </g>
      <g
         id="path1059">
        <path
           style="color:#000000;fill:#0084c8;fill-rule:evenodd;stroke-width:0.211667pt;-inkscape-stroke:none"
           d="m 20.710545,9.3936939 c 0,0.5842004 -0.474133,1.0583341 -1.058334,1.0583341 -0.5842,0 -1.058334,-0.4741337 -1.058334,-1.0583341 0,-0.5842003 0.474134,-1.058334 1.058334,-1.058334 0.584201,0 1.058334,0.4741337 1.058334,1.058334 z"
           id="path1063" />
        <path
           style="color:#000000;fill:#0084c8;fill-rule:evenodd;-inkscape-stroke:none"
           d="m 19.652344,8.1933594 c -0.66055,0 -1.199219,0.5406221 -1.199219,1.2011719 0,0.6605497 0.538669,1.1992187 1.199219,1.1992187 0.66055,0 1.199218,-0.538669 1.199218,-1.1992187 0,-0.6605497 -0.538668,-1.2011719 -1.199218,-1.2011719 z m 0,0.2832031 c 0.50785,0 0.917968,0.410119 0.917968,0.9179688 0,0.5078499 -0.410118,0.9160157 -0.917968,0.9160157 -0.50785,0 -0.917969,-0.408166 -0.917969,-0.9160157 0,-0.5078497 0.410119,-0.9179688 0.917969,-0.9179688 z"
           id="path1065" />
      </g>
      <g
         id="path1049">
        <path
           style="color:#000000;fill:#0084c8;fill-rule:evenodd;stroke-width:0.211667pt;-inkscape-stroke:none"
           d="m 10.391796,9.3936939 c 0,0.5842004 -0.4741339,1.0583341 -1.0583343,1.0583341 -0.5842003,0 -1.0583339,-0.4741337 -1.0583339,-1.0583341 0,-0.5842003 0.4741336,-1.058334 1.0583339,-1.058334 0.5842004,0 1.0583343,0.4741337 1.0583343,1.058334 z"
           id="path1053" />
        <path
           style="color:#000000;fill:#0084c8;fill-rule:evenodd;-inkscape-stroke:none"
           d="m 9.3339844,8.1933594 c -0.6605498,0 -1.1992188,0.5406221 -1.1992188,1.2011719 0,0.6605497 0.538669,1.1992187 1.1992188,1.1992187 0.6605498,0 1.1992186,-0.538669 1.1992186,-1.1992187 0,-0.6605498 -0.5386688,-1.2011719 -1.1992186,-1.2011719 z m 0,0.2832031 c 0.5078498,0 0.9160156,0.4101191 0.9160156,0.9179688 0,0.5078497 -0.4081658,0.9160157 -0.9160156,0.9160157 -0.5078497,0 -0.9179688,-0.4081659 -0.9179688,-0.9160157 0,-0.5078497 0.4101191,-0.9179688 0.9179688,-0.9179688 z"
           id="path1055" />
      </g>
    </g>
  </g>
  <g
     id="rect1054">
    <path
       style="color:#000000;fill:#0084c8;fill-rule:evenodd;-inkscape-stroke:none"
       d="m 4.0625,3.8378906 c -0.2152921,0 -0.3964844,0.1811923 -0.3964844,0.3964844 v 20.902344 c 0,0.215292 0.1811923,0.396484 0.3964844,0.396484 h 20.902344 c 0.215292,0 0.396484,-0.181192 0.396484,-0.396484 V 4.234375 c 0,-0.2152921 -0.181192,-0.3964844 -0.396484,-0.3964844 z M 4.1953125,4.3671875 H 24.832031 V 25.003906 H 4.1953125 Z"
       id="path1217" />
    <g
       id="g1135">
      <g
         id="path1207">
        <path
           style="color:#000000;fill:#0084c8;fill-rule:evenodd;stroke-width:0.211667pt;-inkscape-stroke:none"
           d="m 3.93067,3.1971503 c 0.5842004,0 1.058334,0.4741337 1.058334,1.058334 0,0.5842004 -0.4741336,1.058334 -1.058334,1.058334 -0.5842003,0 -1.058334,-0.4741336 -1.058334,-1.058334 0,-0.5842003 0.4741337,-1.058334 1.058334,-1.058334 z"
           id="path1211" />
        <path
           style="color:#000000;fill:#0084c8;fill-rule:evenodd;-inkscape-stroke:none"
           d="m 3.9316406,3.0566406 c -0.6605497,0 -1.2011718,0.538669 -1.2011718,1.1992188 0,0.6605498 0.5406221,1.1992187 1.2011718,1.1992187 0.6605498,0 1.1992188,-0.5386689 1.1992188,-1.1992187 0,-0.6605498 -0.5386689,-1.1992188 -1.1992188,-1.1992188 z m 0,0.28125 c 0.5078498,0 0.9160156,0.4101191 0.9160156,0.9179688 0,0.5078498 -0.4081658,0.9160156 -0.9160156,0.9160156 -0.5078497,0 -0.9179687,-0.4081658 -0.9179687,-0.9160156 0,-0.5078497 0.410119,-0.9179688 0.9179687,-0.9179688 z"
           id="path1213" />
      </g>
      <g
         id="path1197">
        <path
           style="color:#000000;fill:#0084c8;fill-rule:evenodd;stroke-width:0.211667pt;-inkscape-stroke:none"
           d="m 3.93067,24.099233 c 0.5842004,0 1.058334,0.474134 1.058334,1.058334 0,0.5842 -0.4741336,1.058334 -1.058334,1.058334 -0.5842003,0 -1.058334,-0.474134 -1.058334,-1.058334 0,-0.5842 0.4741337,-1.058334 1.058334,-1.058334 z"
           id="path1201" />
        <path
           style="color:#000000;fill:#0084c8;fill-rule:evenodd;-inkscape-stroke:none"
           d="m 3.9316406,23.958984 c -0.6605498,0 -1.2011718,0.53867 -1.2011718,1.199219 0,0.66055 0.540622,1.199219 1.2011718,1.199219 0.6605499,0 1.1992188,-0.538669 1.1992188,-1.199219 0,-0.660549 -0.5386689,-1.199219 -1.1992188,-1.199219 z m 0,0.28125 c 0.5078498,0 0.9160157,0.41012 0.9160156,0.917969 0,0.507849 -0.4081658,0.916016 -0.9160156,0.916016 -0.5078496,0 -0.9179687,-0.408167 -0.9179687,-0.916016 0,-0.507849 0.4101191,-0.917969 0.9179687,-0.917969 z"
           id="path1203" />
      </g>
      <g
         id="path1187">
        <path
           style="color:#000000;fill:#0084c8;fill-rule:evenodd;stroke-width:0.211667pt;-inkscape-stroke:none"
           d="m 3.0257944,25.268692 c 0,-0.5842 0.4741336,-1.058334 1.058334,-1.058334 0.5842003,0 1.058334,0.474134 1.058334,1.058334 0,0.5842 -0.4741337,1.058334 -1.058334,1.058334 -0.5842004,0 -1.058334,-0.474134 -1.058334,-1.058334 z"
           id="path1191" />
        <path
           style="color:#000000;fill:#0084c8;fill-rule:evenodd;-inkscape-stroke:none"
           d="m 4.0839844,24.068359 c -0.6605499,0 -1.1992188,0.540623 -1.1992188,1.201172 0,0.66055 0.5386689,1.199219 1.1992188,1.199219 0.6605498,0 1.1992187,-0.538669 1.1992187,-1.199219 0,-0.660549 -0.5386689,-1.201172 -1.1992187,-1.201172 z m 0,0.283203 c 0.5078496,0 0.9179687,0.41012 0.9179687,0.917969 0,0.50785 -0.4101191,0.916016 -0.9179687,0.916016 -0.5078498,0 -0.9179688,-0.408166 -0.9179688,-0.916016 0,-0.507849 0.410119,-0.917969 0.9179688,-0.917969 z"
           id="path1193" />
      </g>
      <g
         id="path1177">
        <path
           style="color:#000000;fill:#0084c8;fill-rule:evenodd;stroke-width:0.211667pt;-inkscape-stroke:none"
           d="m 23.927877,25.268692 c 0,-0.5842 0.474134,-1.058334 1.058334,-1.058334 0.5842,0 1.058334,0.474134 1.058334,1.058334 0,0.5842 -0.474134,1.058334 -1.058334,1.058334 -0.5842,0 -1.058334,-0.474134 -1.058334,-1.058334 z"
           id="path1181" />
        <path
           style="color:#000000;fill:#0084c8;fill-rule:evenodd;-inkscape-stroke:none"
           d="m 24.986328,24.068359 c -0.660549,0 -1.199219,0.540623 -1.199219,1.201172 0,0.66055 0.53867,1.199219 1.199219,1.199219 0.66055,0 1.199219,-0.538669 1.199219,-1.199219 0,-0.660549 -0.538669,-1.201172 -1.199219,-1.201172 z m 0,0.283203 c 0.507849,0 0.917969,0.41012 0.917969,0.917969 0,0.50785 -0.41012,0.916016 -0.917969,0.916016 -0.507849,0 -0.917969,-0.408166 -0.917969,-0.916016 0,-0.507849 0.41012,-0.917969 0.917969,-0.917969 z"
           id="path1183" />
      </g>
      <g
         id="path1167">
        <path
           style="color:#000000;fill:#0084c8;fill-rule:evenodd;stroke-width:0.211667pt;-inkscape-stroke:none"
           d="m 25.097336,26.173568 c -0.5842,0 -1.058334,-0.474134 -1.058334,-1.058334 0,-0.584201 0.474134,-1.058334 1.058334,-1.058334 0.5842,0 1.058334,0.474133 1.058334,1.058334 0,0.5842 -0.474134,1.058334 -1.058334,1.058334 z"
           id="path1171" />
        <path
           style="color:#000000;fill:#0084c8;fill-rule:evenodd;-inkscape-stroke:none"
           d="m 25.097656,23.916016 c -0.660549,0 -1.199219,0.538668 -1.199219,1.199218 0,0.66055 0.53867,1.199219 1.199219,1.199219 0.66055,0 1.199219,-0.538669 1.199219,-1.199219 0,-0.66055 -0.538669,-1.199218 -1.199219,-1.199218 z m 0,0.28125 c 0.50785,0 0.916016,0.410118 0.916016,0.917968 0,0.50785 -0.408166,0.917969 -0.916016,0.917969 -0.507849,0 -0.917969,-0.410119 -0.917969,-0.917969 0,-0.50785 0.41012,-0.917968 0.917969,-0.917968 z"
           id="path1173" />
      </g>
      <g
         id="path1157">
        <path
           style="color:#000000;fill:#0084c8;fill-rule:evenodd;stroke-width:0.211667pt;-inkscape-stroke:none"
           d="m 25.097336,5.271485 c -0.5842,0 -1.058334,-0.4741337 -1.058334,-1.058334 0,-0.5842004 0.474134,-1.058334 1.058334,-1.058334 0.5842,0 1.058334,0.4741336 1.058334,1.058334 0,0.5842003 -0.474134,1.058334 -1.058334,1.058334 z"
           id="path1161" />
        <path
           style="color:#000000;fill:#0084c8;fill-rule:evenodd;-inkscape-stroke:none"
           d="m 25.097656,3.0136719 c -0.660549,0 -1.199219,0.5386688 -1.199219,1.1992187 0,0.6605498 0.53867,1.1992188 1.199219,1.1992188 0.66055,0 1.199219,-0.538669 1.199219,-1.1992188 0,-0.6605499 -0.538669,-1.1992187 -1.199219,-1.1992187 z m 0,0.2832031 c 0.50785,0 0.916016,0.4081659 0.916016,0.9160156 0,0.5078497 -0.408166,0.9179688 -0.916016,0.9179688 -0.507849,0 -0.917969,-0.4101191 -0.917969,-0.9179688 0,-0.5078497 0.41012,-0.9160156 0.917969,-0.9160156 z"
           id="path1163" />
      </g>
      <g
         id="path1147">
        <path
           style="color:#000000;fill:#0084c8;fill-rule:evenodd;stroke-width:0.211667pt;-inkscape-stroke:none"
           d="m 26.002212,4.102026 c 0,0.5842003 -0.474134,1.058334 -1.058334,1.058334 -0.584201,0 -1.058334,-0.4741337 -1.058334,-1.058334 0,-0.5842004 0.474133,-1.058334 1.058334,-1.058334 0.5842,0 1.058334,0.4741336 1.058334,1.058334 z"
           id="path1151" />
        <path
           style="color:#000000;fill:#0084c8;fill-rule:evenodd;-inkscape-stroke:none"
           d="m 24.943359,2.9023438 c -0.66055,0 -1.199218,0.538669 -1.199218,1.1992187 0,0.6605496 0.538668,1.1992187 1.199218,1.1992187 0.66055,0 1.199219,-0.5386689 1.199219,-1.1992187 0,-0.6605499 -0.538669,-1.1992187 -1.199219,-1.1992187 z m 0,0.2832031 c 0.50785,0 0.917969,0.4081659 0.917969,0.9160156 0,0.5078496 -0.410119,0.9179687 -0.917969,0.9179687 -0.50785,0 -0.916015,-0.4101189 -0.916015,-0.9179687 0,-0.5078499 0.408165,-0.9160156 0.916015,-0.9160156 z"
           id="path1153" />
      </g>
      <g
         id="path1137">
        <path
           style="color:#000000;fill:#0084c8;fill-rule:evenodd;stroke-width:0.211667pt;-inkscape-stroke:none"
           d="m 5.100129,4.102026 c 0,0.5842003 -0.4741336,1.058334 -1.058334,1.058334 -0.5842004,0 -1.058334,-0.4741337 -1.058334,-1.058334 0,-0.5842004 0.4741336,-1.058334 1.058334,-1.058334 0.5842004,0 1.058334,0.4741336 1.058334,1.058334 z"
           id="path1141" />
        <path
           style="color:#000000;fill:#0084c8;fill-rule:evenodd;-inkscape-stroke:none"
           d="m 4.0410156,2.9023438 c -0.6605498,0 -1.1992187,0.5386689 -1.1992187,1.1992187 0,0.6605497 0.5386689,1.1992187 1.1992187,1.1992187 0.6605499,0 1.2011719,-0.538669 1.2011719,-1.1992187 0,-0.6605498 -0.5406221,-1.1992187 -1.2011719,-1.1992187 z m 0,0.2832031 c 0.5078498,0 0.9179688,0.4081658 0.9179688,0.9160156 0,0.5078497 -0.410119,0.9179687 -0.9179688,0.9179687 C 3.5331658,5.0195312 3.125,4.6094122 3.125,4.1015625 3.125,3.5937127 3.5331658,3.1855469 4.0410156,3.1855469 Z"
           id="path1143" />
      </g>
    </g>
  </g>
  <path
     style="color:#000000;fill:#0084c8;-inkscape-stroke:none"
     d="m 24.910156,3.9140625 -5.291015,5.2929688 0.373046,0.3730468 5.292969,-5.2910156 z"
     id="path1590" />
  <path
     style="color:#000000;fill:#0084c8;-inkscape-stroke:none"
     d="m 4.1171875,3.9140625 -0.3730469,0.375 5.2910157,5.2910156 0.375,-0.3730468 z"
     id="path1592" />
  <path
     style="color:#000000;fill:#0084c8;-inkscape-stroke:none"
     d="m 9.0351563,19.789062 -5.2910157,5.292969 0.3730469,0.373047 5.2929688,-5.291016 z"
     id="path1594" />
  <path
     style="color:#000000;fill:#0084c8;-inkscape-stroke:none"
     d="m 19.992187,19.789062 -0.373046,0.375 5.291015,5.291016 0.375,-0.373047 z"
     id="path1596" />
  <g
     transform="matrix(0.41847865,0,0,0.41847865,0.8856914,2.179627)"
     id="g2040"
     style="fill:#000000;fill-opacity:1">
    <path
       style="stroke:none;stroke-width:0"
       d="M 3.71875,-3.765625 C 3.53125,-4.140625 3.25,-4.40625 2.796875,-4.40625 c -1.15625,0 -2.390625,1.46875 -2.390625,2.921875 0,0.9375 0.546875,1.59375 1.3125,1.59375 0.203125,0 0.703125,-0.046875 1.296875,-0.75 0.078125,0.421875 0.4375,0.75 0.90625,0.75 0.359375,0 0.578125,-0.234375 0.75,-0.546875 0.15625,-0.359375 0.296875,-0.96875 0.296875,-0.984375 0,-0.109375 -0.09375,-0.109375 -0.125,-0.109375 -0.09375,0 -0.109375,0.046875 -0.140625,0.1875 -0.171875,0.640625 -0.34375,1.234375 -0.75,1.234375 -0.28125,0 -0.296875,-0.265625 -0.296875,-0.453125 0,-0.21875 0.015625,-0.3125 0.125,-0.75 C 3.890625,-1.71875 3.90625,-1.828125 4,-2.203125 L 4.359375,-3.59375 c 0.0625,-0.28125 0.0625,-0.296875 0.0625,-0.34375 0,-0.171875 -0.109375,-0.265625 -0.28125,-0.265625 -0.25,0 -0.390625,0.21875 -0.421875,0.4375 z M 3.078125,-1.1875 C 3.015625,-1 3.015625,-0.984375 2.875,-0.8125 2.4375,-0.265625 2.03125,-0.109375 1.75,-0.109375 c -0.5,0 -0.640625,-0.546875 -0.640625,-0.9375 0,-0.5 0.3125,-1.71875 0.546875,-2.1875 0.3125,-0.578125 0.75,-0.953125 1.15625,-0.953125 0.640625,0 0.78125,0.8125 0.78125,0.875 0,0.0625 -0.015625,0.125 -0.03125,0.171875 z m 0,0"
       id="id-0d4c43a7-2d97-4cc5-a074-9676c832b156" />
  </g>
  <g
     transform="matrix(0.41847865,0,0,0.41847865,10.2597,8.274382)"
     id="g2043"
     style="fill:#000000">
    <path
       style="color:#000000;stroke-width:0;-inkscape-stroke:none"
       d="m 2.375,-6.8125 c 0,0 0,-0.109375 -0.125,-0.109375 -0.21875,0 -0.953125,0.078125 -1.21875,0.109375 -0.078125,0 -0.1875,0.015625 -0.1875,0.1875 0,0.125 0.09375,0.125 0.25,0.125 0.46875,0 0.484375,0.0625 0.484375,0.171875 0,0.0625 -0.078125,0.40625 -0.125,0.609375 l -0.828125,3.25 c -0.109375,0.5 -0.15625,0.671875 -0.15625,1.015625 0,0.9375 0.53125,1.5625 1.265625,1.5625 1.171875,0 2.40625,-1.484375 2.40625,-2.921875 0,-0.90625 -0.53125,-1.59375 -1.328125,-1.59375 -0.453125,0 -0.875,0.296875 -1.171875,0.59375 z M 1.453125,-3.046875 C 1.5,-3.265625 1.5,-3.28125 1.59375,-3.390625 2.078125,-4.03125 2.53125,-4.1875 2.796875,-4.1875 c 0.359375,0 0.625,0.296875 0.625,0.9375 0,0.59375 -0.328125,1.734375 -0.515625,2.109375 -0.328125,0.671875 -0.78125,1.03125 -1.171875,1.03125 -0.34375,0 -0.671875,-0.265625 -0.671875,-1 0,-0.203125 0,-0.390625 0.15625,-1.015625 z m 0,0"
       id="id-eb9bdbdd-c75c-4ecf-9283-8749ccd30c5d" />
  </g>
  <g
     transform="matrix(0.41847865,0,0,0.41847865,17.068324,7.915867)"
     id="g2046"
     style="fill:#000000">
    <path
       style="color:#000000;stroke-width:0;-inkscape-stroke:none"
       d="m 3.953125,-3.78125 c -0.171875,0 -0.296875,0 -0.4375,0.125 -0.171875,0.15625 -0.1875,0.328125 -0.1875,0.390625 0,0.25 0.1875,0.359375 0.375,0.359375 0.28125,0 0.546875,-0.25 0.546875,-0.640625 0,-0.484375 -0.46875,-0.859375 -1.171875,-0.859375 -1.34375,0 -2.671875,1.421875 -2.671875,2.828125 0,0.90625 0.578125,1.6875 1.625,1.6875 1.421875,0 2.25,-1.0625 2.25,-1.171875 0,-0.0625 -0.046875,-0.140625 -0.109375,-0.140625 -0.0625,0 -0.078125,0.03125 -0.140625,0.109375 -0.78125,0.984375 -1.875,0.984375 -1.984375,0.984375 -0.625,0 -0.90625,-0.484375 -0.90625,-1.09375 0,-0.40625 0.203125,-1.375 0.546875,-1.984375 0.3125,-0.578125 0.859375,-1 1.40625,-1 0.328125,0 0.71875,0.125 0.859375,0.40625 z m 0,0"
       id="id-7e6a2ff5-022c-44bf-90af-9212dbe2837c" />
  </g>
  <g
     transform="matrix(0.41847865,0,0,0.41847865,26.162609,2.896657)"
     id="g2049"
     style="fill:#000000;fill-opacity:1">
    <path
       style="stroke:none;stroke-width:0"
       d="m 5.140625,-6.8125 c 0,0 0,-0.109375 -0.125,-0.109375 -0.15625,0 -1.09375,0.09375 -1.265625,0.109375 -0.078125,0.015625 -0.140625,0.0625 -0.140625,0.1875 0,0.125 0.09375,0.125 0.234375,0.125 0.484375,0 0.5,0.0625 0.5,0.171875 L 4.3125,-6.125 3.71875,-3.765625 C 3.53125,-4.140625 3.25,-4.40625 2.796875,-4.40625 c -1.15625,0 -2.390625,1.46875 -2.390625,2.921875 0,0.9375 0.546875,1.59375 1.3125,1.59375 0.203125,0 0.703125,-0.046875 1.296875,-0.75 0.078125,0.421875 0.4375,0.75 0.90625,0.75 0.359375,0 0.578125,-0.234375 0.75,-0.546875 0.15625,-0.359375 0.296875,-0.96875 0.296875,-0.984375 0,-0.109375 -0.09375,-0.109375 -0.125,-0.109375 -0.09375,0 -0.109375,0.046875 -0.140625,0.1875 -0.171875,0.640625 -0.34375,1.234375 -0.75,1.234375 -0.28125,0 -0.296875,-0.265625 -0.296875,-0.453125 0,-0.25 0.015625,-0.3125 0.046875,-0.484375 z m -2.0625,5.625 C 3.015625,-1 3.015625,-0.984375 2.875,-0.8125 2.4375,-0.265625 2.03125,-0.109375 1.75,-0.109375 c -0.5,0 -0.640625,-0.546875 -0.640625,-0.9375 0,-0.5 0.3125,-1.71875 0.546875,-2.1875 0.3125,-0.578125 0.75,-0.953125 1.15625,-0.953125 0.640625,0 0.78125,0.8125 0.78125,0.875 0,0.0625 -0.015625,0.125 -0.03125,0.171875 z m 0,0"
       id="id-1a77d4e5-2dba-44ef-99d7-51243e2d327e" />
  </g>
  <g
     transform="matrix(0.41847865,0,0,0.41847865,-0.2288555,28.112212)"
     id="g2052"
     style="fill:#000000;fill-opacity:1">
    <path
       style="stroke:none;stroke-width:0"
       d="m 2.859375,-6.8125 c 0,0 0,-0.109375 -0.125,-0.109375 -0.234375,0 -0.953125,0.078125 -1.21875,0.109375 -0.078125,0 -0.1875,0.015625 -0.1875,0.1875 0,0.125 0.09375,0.125 0.234375,0.125 0.484375,0 0.5,0.0625 0.5,0.171875 L 2.03125,-6.125 0.59375,-0.390625 c -0.046875,0.140625 -0.046875,0.15625 -0.046875,0.21875 0,0.234375 0.203125,0.28125 0.296875,0.28125 0.15625,0 0.3125,-0.125 0.359375,-0.265625 l 0.1875,-0.75 0.21875,-0.890625 C 1.671875,-2.03125 1.734375,-2.25 1.78125,-2.46875 1.796875,-2.53125 1.890625,-2.859375 1.890625,-2.921875 1.921875,-3.015625 2.234375,-3.5625 2.578125,-3.84375 2.796875,-4 3.09375,-4.1875 3.53125,-4.1875 c 0.421875,0 0.53125,0.34375 0.53125,0.703125 0,0.53125 -0.375,1.625 -0.609375,2.234375 C 3.375,-1.03125 3.3125,-0.90625 3.3125,-0.703125 c 0,0.46875 0.359375,0.8125 0.828125,0.8125 0.9375,0 1.296875,-1.453125 1.296875,-1.53125 0,-0.109375 -0.078125,-0.109375 -0.109375,-0.109375 -0.109375,0 -0.109375,0.03125 -0.15625,0.1875 -0.140625,0.53125 -0.46875,1.234375 -1.015625,1.234375 -0.171875,0 -0.234375,-0.09375 -0.234375,-0.328125 0,-0.25 0.078125,-0.484375 0.171875,-0.703125 0.15625,-0.4375 0.609375,-1.625 0.609375,-2.203125 0,-0.640625 -0.390625,-1.0625 -1.140625,-1.0625 -0.625,0 -1.109375,0.3125 -1.484375,0.765625 z m 0,0"
       id="id-59bcf64e-39f8-4675-9b40-78a9ae84eec6" />
  </g>
  <g
     transform="matrix(0.41847865,0,0,0.41847865,10.538562,18.551812)"
     id="g2055"
     style="fill:#000000">
    <path
       style="color:#000000;stroke-width:0;-inkscape-stroke:none"
       d="m 2.828125,-6.234375 c 0,-0.203125 -0.140625,-0.359375 -0.359375,-0.359375 -0.28125,0 -0.546875,0.265625 -0.546875,0.53125 0,0.1875 0.140625,0.359375 0.375,0.359375 0.234375,0 0.53125,-0.234375 0.53125,-0.53125 z m -0.75,3.75 c 0.109375,-0.28125 0.109375,-0.3125 0.21875,-0.578125 0.078125,-0.203125 0.125,-0.34375 0.125,-0.53125 0,-0.4375 -0.3125,-0.8125 -0.8125,-0.8125 -0.9375,0 -1.3125,1.453125 -1.3125,1.53125 0,0.109375 0.09375,0.109375 0.109375,0.109375 0.109375,0 0.109375,-0.03125 0.15625,-0.1875 0.28125,-0.9375 0.671875,-1.234375 1.015625,-1.234375 0.078125,0 0.25,0 0.25,0.3125 0,0.21875 -0.078125,0.421875 -0.109375,0.53125 -0.078125,0.25 -0.53125,1.40625 -0.6875,1.84375 -0.109375,0.25 -0.234375,0.578125 -0.234375,0.796875 0,0.46875 0.34375,0.8125 0.8125,0.8125 0.9375,0 1.3125,-1.4375 1.3125,-1.53125 0,-0.109375 -0.09375,-0.109375 -0.125,-0.109375 -0.09375,0 -0.09375,0.03125 -0.140625,0.1875 -0.1875,0.625 -0.515625,1.234375 -1.015625,1.234375 -0.171875,0 -0.25,-0.09375 -0.25,-0.328125 0,-0.25 0.0625,-0.390625 0.296875,-1 z m 0,0"
       id="id-89926b5e-8fcf-48e5-a961-e5bc206164ed" />
  </g>
  <g
     transform="matrix(0.41847865,0,0,0.41847865,17.113496,17.954287)"
     id="g2058"
     style="fill:#000000">
    <path
       style="color:#000000;stroke-width:0;-inkscape-stroke:none"
       d="m 3.953125,-6.234375 c 0,-0.1875 -0.140625,-0.359375 -0.375,-0.359375 -0.234375,0 -0.53125,0.234375 -0.53125,0.53125 0,0.203125 0.140625,0.359375 0.375,0.359375 0.265625,0 0.53125,-0.265625 0.53125,-0.53125 z m -2,6.734375 c -0.1875,0.75 -0.671875,1.328125 -1.21875,1.328125 -0.0625,0 -0.21875,0 -0.390625,-0.09375 0.296875,-0.0625 0.4375,-0.328125 0.4375,-0.53125 0,-0.15625 -0.109375,-0.34375 -0.375,-0.34375 -0.25,0 -0.53125,0.203125 -0.53125,0.5625 0,0.40625 0.390625,0.625 0.875,0.625 0.703125,0 1.625,-0.53125 1.875,-1.515625 L 3.53125,-3.125 c 0.0625,-0.1875 0.0625,-0.328125 0.0625,-0.359375 0,-0.578125 -0.421875,-0.921875 -0.921875,-0.921875 -1.015625,0 -1.578125,1.453125 -1.578125,1.53125 0,0.109375 0.09375,0.109375 0.109375,0.109375 0.09375,0 0.109375,-0.015625 0.1875,-0.203125 0.25,-0.609375 0.703125,-1.21875 1.25,-1.21875 0.140625,0 0.3125,0.046875 0.3125,0.453125 0,0.234375 -0.015625,0.34375 -0.0625,0.515625 z m 0,0"
       id="id-796e38de-172c-4a76-8d10-dde9c1965631" />
  </g>
  <g
     transform="matrix(0.41847865,0,0,0.41847865,25.999499,29.426767)"
     id="g2062"
     style="fill:#000000;fill-opacity:1">
    <path
       style="stroke:none;stroke-width:0"
       d="m 2.859375,-6.8125 c 0,0 0,-0.109375 -0.125,-0.109375 -0.234375,0 -0.953125,0.078125 -1.21875,0.109375 -0.078125,0 -0.1875,0.015625 -0.1875,0.1875 0,0.125 0.09375,0.125 0.234375,0.125 0.484375,0 0.5,0.0625 0.5,0.171875 L 2.03125,-6.125 0.59375,-0.390625 c -0.046875,0.140625 -0.046875,0.15625 -0.046875,0.21875 0,0.234375 0.203125,0.28125 0.296875,0.28125 0.125,0 0.265625,-0.09375 0.328125,-0.203125 0.046875,-0.09375 0.5,-1.9375 0.5625,-2.1875 0.34375,0.03125 1.15625,0.1875 1.15625,0.84375 0,0.078125 0,0.109375 -0.03125,0.21875 -0.015625,0.109375 -0.03125,0.234375 -0.03125,0.34375 0,0.578125 0.390625,0.984375 0.90625,0.984375 0.296875,0 0.578125,-0.15625 0.796875,-0.53125 0.25,-0.4375 0.359375,-0.984375 0.359375,-1 0,-0.109375 -0.09375,-0.109375 -0.125,-0.109375 -0.09375,0 -0.109375,0.046875 -0.140625,0.1875 -0.203125,0.71875 -0.421875,1.234375 -0.859375,1.234375 -0.203125,0 -0.328125,-0.109375 -0.328125,-0.46875 0,-0.171875 0.046875,-0.40625 0.078125,-0.5625 C 3.5625,-1.3125 3.5625,-1.34375 3.5625,-1.453125 3.5625,-2.09375 2.9375,-2.375 2.078125,-2.5 2.390625,-2.671875 2.71875,-2.984375 2.9375,-3.234375 3.421875,-3.765625 3.875,-4.1875 4.359375,-4.1875 c 0.0625,0 0.078125,0 0.09375,0.015625 0.125,0.015625 0.125,0.015625 0.21875,0.078125 0.015625,0 0.015625,0.015625 0.03125,0.03125 -0.46875,0.03125 -0.5625,0.421875 -0.5625,0.546875 0,0.15625 0.109375,0.34375 0.375,0.34375 0.265625,0 0.546875,-0.21875 0.546875,-0.609375 0,-0.296875 -0.234375,-0.625 -0.671875,-0.625 -0.28125,0 -0.734375,0.078125 -1.453125,0.875 -0.34375,0.375 -0.734375,0.78125 -1.109375,0.921875 z m 0,0"
       id="id-3895bafa-cdd9-4a1b-ac2a-03d92dc0adfc" />
  </g>
  <path
     style="fill:none;stroke:#000000;stroke-width:0.264583px;stroke-linecap:butt;stroke-linejoin:miter;stroke-opacity:1"
     d="m 7.8994203,38.497861 2.6458337,2.645834 0,-2.645832"
     id="path1084" />
</svg>
