<?xml version="1.0" encoding="UTF-8" standalone="no"?>
<!-- Created with Inkscape (http://www.inkscape.org/) -->

<svg
   width="108.6842mm"
   height="46.443146mm"
   viewBox="0 0 108.6842 46.443146"
   version="1.1"
   id="svg5"
   sodipodi:docname="symmetricRelations2.svg"
   inkscape:version="1.1 (c4e8f9e, 2021-05-24)"
   xmlns:inkscape="http://www.inkscape.org/namespaces/inkscape"
   xmlns:sodipodi="http://sodipodi.sourceforge.net/DTD/sodipodi-0.dtd"
   xmlns="http://www.w3.org/2000/svg"
   xmlns:svg="http://www.w3.org/2000/svg">
  <sodipodi:namedview
     id="namedview884"
     pagecolor="#ffffff"
     bordercolor="#666666"
     borderopacity="1.0"
     inkscape:pageshadow="2"
     inkscape:pageopacity="0.0"
     inkscape:pagecheckerboard="0"
     inkscape:document-units="mm"
     showgrid="false"
     inkscape:zoom="1.6468304"
     inkscape:cx="205.54636"
     inkscape:cy="87.744312"
     inkscape:window-width="1440"
     inkscape:window-height="847"
     inkscape:window-x="2019"
     inkscape:window-y="81"
     inkscape:window-maximized="0"
     inkscape:current-layer="svg5">
    <inkscape:grid
       type="xygrid"
       id="grid2263"
       originx="-10.583333"
       originy="-1.1249999e-07" />
  </sodipodi:namedview>
  <defs
     id="defs2">
    <marker
       style="overflow:visible"
       id="TriangleInM"
       refX="0"
       refY="0"
       orient="auto">
      <path
         transform="scale(-0.4)"
         style="fill:context-stroke;fill-rule:evenodd;stroke:context-stroke;stroke-width:1pt"
         d="M 5.77,0 -2.88,5 V -5 Z"
         id="path1200" />
    </marker>
    <marker
       style="overflow:visible"
       id="TriangleOutM"
       refX="0"
       refY="0"
       orient="auto">
      <path
         transform="scale(0.4)"
         style="fill:context-stroke;fill-rule:evenodd;stroke:context-stroke;stroke-width:1pt"
         d="M 5.77,0 -2.88,5 V -5 Z"
         id="path1209" />
    </marker>
    <marker
       style="overflow:visible"
       id="Arrow2Mend"
       refX="0"
       refY="0"
       orient="auto">
      <path
         transform="scale(-0.6)"
         d="M 8.7185878,4.0337352 -2.2072895,0.01601326 8.7185884,-4.0017078 c -1.7454984,2.3720609 -1.7354408,5.6174519 -6e-7,8.035443 z"
         style="fill:context-stroke;fill-rule:evenodd;stroke-width:0.625;stroke-linejoin:round"
         id="path1091" />
    </marker>
    <defs
       id="id-db9eb942-d0c6-4d51-b4f1-f3235891a7a7">
      <g
         id="id-bb8ef028-a884-41c3-b011-f47e18cc2d1f">
        <symbol
           overflow="visible"
           id="id-e3dc179e-d736-4666-8863-234415ffc688">
          <path
             style="stroke:none;stroke-width:0"
             d=""
             id="id-7cfeed3f-7be7-46b2-bbaa-d51d528d7a16" />
        </symbol>
        <symbol
           overflow="visible"
           id="id-1d92d2bf-3997-41f5-9b06-bb62283ab0c9">
          <path
             style="stroke:none;stroke-width:0"
             d="M 1.78125,-1.140625 C 1.390625,-0.484375 1,-0.34375 0.5625,-0.3125 0.4375,-0.296875 0.34375,-0.296875 0.34375,-0.109375 0.34375,-0.046875 0.40625,0 0.484375,0 0.75,0 1.0625,-0.03125 1.328125,-0.03125 c 0.34375,0 0.6875,0.03125 1,0.03125 0.0625,0 0.1875,0 0.1875,-0.1875 0,-0.109375 -0.078125,-0.125 -0.15625,-0.125 -0.21875,-0.015625 -0.46875,-0.09375 -0.46875,-0.34375 0,-0.125 0.0625,-0.234375 0.140625,-0.375 l 0.765625,-1.265625 h 2.5 c 0.015625,0.203125 0.15625,1.5625 0.15625,1.65625 0,0.296875 -0.515625,0.328125 -0.71875,0.328125 C 4.59375,-0.3125 4.5,-0.3125 4.5,-0.109375 4.5,0 4.609375,0 4.640625,0 5.046875,0 5.46875,-0.03125 5.875,-0.03125 6.125,-0.03125 6.765625,0 7.015625,0 7.0625,0 7.1875,0 7.1875,-0.203125 7.1875,-0.3125 7.09375,-0.3125 6.953125,-0.3125 6.34375,-0.3125 6.34375,-0.375 6.3125,-0.671875 l -0.609375,-6.21875 c -0.015625,-0.203125 -0.015625,-0.25 -0.1875,-0.25 -0.15625,0 -0.203125,0.078125 -0.265625,0.171875 z M 2.984375,-2.609375 4.9375,-5.90625 5.265625,-2.609375 Z m 0,0"
             id="id-7b91483f-45e4-46fd-b43d-18d52a565d1c" />
        </symbol>
        <symbol
           overflow="visible"
           id="id-ba22c55a-d21d-4ca0-8001-176aa1fb122d">
          <path
             style="stroke:none;stroke-width:0"
             d="M 1.59375,-0.78125 C 1.5,-0.390625 1.46875,-0.3125 0.6875,-0.3125 c -0.171875,0 -0.265625,0 -0.265625,0.203125 C 0.421875,0 0.515625,0 0.6875,0 H 4.25 C 5.828125,0 7,-1.171875 7,-2.15625 7,-2.875 6.421875,-3.453125 5.453125,-3.5625 6.484375,-3.75 7.53125,-4.484375 7.53125,-5.4375 c 0,-0.734375 -0.65625,-1.375 -1.84375,-1.375 H 2.328125 c -0.1875,0 -0.28125,0 -0.28125,0.203125 0,0.109375 0.09375,0.109375 0.28125,0.109375 0.015625,0 0.203125,0 0.375,0.015625 0.171875,0.03125 0.265625,0.03125 0.265625,0.171875 0,0.03125 -0.015625,0.0625 -0.03125,0.1875 z m 1.5,-2.875 0.625,-2.46875 C 3.8125,-6.46875 3.828125,-6.5 4.25,-6.5 h 1.296875 c 0.875,0 1.078125,0.59375 1.078125,1.03125 0,0.875 -0.859375,1.8125 -2.0625,1.8125 z m -0.4375,3.34375 c -0.140625,0 -0.15625,0 -0.21875,0 -0.109375,-0.015625 -0.140625,-0.03125 -0.140625,-0.109375 0,-0.03125 0,-0.046875 0.0625,-0.21875 l 0.6875,-2.78125 h 1.875 c 0.953125,0 1.15625,0.734375 1.15625,1.15625 C 6.078125,-1.28125 5.1875,-0.3125 4,-0.3125 Z m 0,0"
             id="id-ebb7865c-0ba2-4a8d-91aa-dc2cd4d352c3" />
        </symbol>
        <symbol
           overflow="visible"
           id="id-c26f64e8-7c04-4a16-b3ae-b31b09693eb3">
          <path
             style="stroke:none;stroke-width:0"
             d="m 7.578125,-6.921875 c 0,-0.03125 -0.015625,-0.109375 -0.109375,-0.109375 -0.03125,0 -0.046875,0.015625 -0.15625,0.125 L 6.625,-6.140625 C 6.53125,-6.28125 6.078125,-7.03125 4.96875,-7.03125 2.734375,-7.03125 0.5,-4.828125 0.5,-2.515625 0.5,-0.875 1.671875,0.21875 3.203125,0.21875 c 0.859375,0 1.625,-0.390625 2.15625,-0.859375 0.921875,-0.8125 1.09375,-1.71875 1.09375,-1.75 C 6.453125,-2.5 6.34375,-2.5 6.328125,-2.5 c -0.0625,0 -0.109375,0.03125 -0.125,0.109375 -0.09375,0.28125 -0.328125,1 -1.015625,1.578125 -0.6875,0.546875 -1.3125,0.71875 -1.828125,0.71875 -0.890625,0 -1.953125,-0.515625 -1.953125,-2.0625 0,-0.578125 0.203125,-2.1875 1.203125,-3.359375 0.609375,-0.703125 1.546875,-1.203125 2.4375,-1.203125 1.015625,0 1.609375,0.765625 1.609375,1.921875 0,0.40625 -0.03125,0.40625 -0.03125,0.515625 0,0.09375 0.109375,0.09375 0.140625,0.09375 0.125,0 0.125,-0.015625 0.1875,-0.203125 z m 0,0"
             id="id-bfa66260-72cd-4e5a-a034-43038db5e554" />
        </symbol>
      </g>
    </defs>
  </defs>
  <g
     id="g1027"
     transform="translate(-10.583332)">
    <circle
       style="font-variation-settings:normal;vector-effect:none;fill:#9a9996;fill-opacity:1;fill-rule:evenodd;stroke:#000000;stroke-width:0.264583;stroke-linecap:butt;stroke-linejoin:miter;stroke-miterlimit:4;stroke-dasharray:none;stroke-dashoffset:0;stroke-opacity:1;stop-color:#000000"
       id="path848"
       cx="18.623333"
       cy="9.2989635"
       r="2.6458333" />
    <path
       id="circle944"
       style="vector-effect:none;fill:none;fill-rule:evenodd;stroke:#000000;stroke-width:0.264583;marker-end:url(#TriangleOutM);stop-color:#000000"
       d="m 18.623306,11.882897 c -0.005,1.12024 -1.19428,2.19301 -2.65413,2.18842 -1.459846,-0.005 -2.640116,-1.19071 -2.637501,-2.65056 0.0026,-1.45985 1.187135,-2.64173 2.646991,-2.64109" />
    <rect
       style="font-variation-settings:normal;fill:none;fill-opacity:1;fill-rule:evenodd;stroke:#000000;stroke-width:0.205;stroke-linecap:butt;stroke-linejoin:miter;stroke-miterlimit:4;stroke-dasharray:0.82, 0.41;stroke-dashoffset:0;stroke-opacity:1;stop-color:#000000"
       id="rect4823"
       width="13.229166"
       height="13.229166"
       x="10.685834"
       y="4.0073071" />
    <path
       style="fill:#000000;fill-opacity:1;stroke:none;stroke-width:0"
       d="m 11.123228,2.2740122 c -0.14671,0.2464737 -0.293421,0.2992895 -0.457736,0.3110264 -0.04695,0.00587 -0.08216,0.00587 -0.08216,0.076289 0,0.023474 0.02347,0.041079 0.05282,0.041079 0.09976,0 0.217131,-0.011737 0.316894,-0.011737 0.129106,0 0.258211,0.011737 0.375579,0.011737 0.02347,0 0.07042,0 0.07042,-0.070421 0,-0.041079 -0.02934,-0.046947 -0.05868,-0.046947 -0.08216,-0.00587 -0.176052,-0.035211 -0.176052,-0.1291053 0,-0.046947 0.02347,-0.088026 0.05282,-0.1408421 L 11.504676,1.839749 h 0.938947 c 0.0059,0.076289 0.05868,0.5868422 0.05868,0.6220527 0,0.1115 -0.193658,0.1232369 -0.269947,0.1232369 -0.05282,0 -0.08803,0 -0.08803,0.076289 0,0.041079 0.04108,0.041079 0.05282,0.041079 0.152579,0 0.311026,-0.011737 0.463605,-0.011737 0.09389,0 0.3345,0.011737 0.428395,0.011737 0.0176,0 0.06455,0 0.06455,-0.07629 0,-0.041079 -0.03521,-0.041079 -0.08803,-0.041079 -0.228868,0 -0.228868,-0.023474 -0.240605,-0.1349737 l -0.22887,-2.33563095 c -0.0059,-0.07628948 -0.0059,-0.09389475 -0.07042,-0.09389475 -0.05868,0 -0.07629,0.02934211 -0.09976,0.06455264 z M 11.575097,1.7223805 12.30865,0.48414353 12.431887,1.7223805 Z m 0,0"
       id="id-d9a0b068-83c0-49d3-a9fa-b49cb8e9d916" />
    <circle
       style="font-variation-settings:normal;vector-effect:none;fill:#c0bfbc;fill-opacity:1;fill-rule:evenodd;stroke:#000000;stroke-width:0.264583;stroke-linecap:butt;stroke-linejoin:miter;stroke-miterlimit:4;stroke-dasharray:none;stroke-dashoffset:0;stroke-opacity:1;stop-color:#000000"
       id="path850"
       cx="42.435837"
       cy="9.2989635"
       r="2.6458333" />
    <circle
       style="font-variation-settings:normal;vector-effect:none;fill:#c0bfbc;fill-opacity:1;fill-rule:evenodd;stroke:#000000;stroke-width:0.264583;stroke-linecap:butt;stroke-linejoin:miter;stroke-miterlimit:4;stroke-dasharray:none;stroke-dashoffset:0;stroke-opacity:1;stop-color:#000000"
       id="path852"
       cx="58.310837"
       cy="35.75729"
       r="2.6458333" />
    <circle
       style="font-variation-settings:normal;vector-effect:none;fill:#c0bfbc;fill-opacity:1;fill-rule:evenodd;stroke:#000000;stroke-width:0.264583;stroke-linecap:butt;stroke-linejoin:miter;stroke-miterlimit:4;stroke-dasharray:none;stroke-dashoffset:0;stroke-opacity:1;stop-color:#000000"
       id="path854"
       cx="74.185837"
       cy="9.2989635"
       r="2.6458333" />
    <rect
       style="font-variation-settings:normal;fill:none;fill-opacity:1;fill-rule:evenodd;stroke:#000000;stroke-width:0.205;stroke-linecap:butt;stroke-linejoin:miter;stroke-miterlimit:4;stroke-dasharray:0.82, 0.41;stroke-dashoffset:0;stroke-opacity:1;stop-color:#000000"
       id="rect4825"
       width="42.333332"
       height="37.041645"
       x="37.144173"
       y="4.0073147" />
    <path
       style="fill:#000000;fill-opacity:1;stroke:none;stroke-width:0"
       d="m 37.481804,2.3473659 c -0.03521,0.1467106 -0.04695,0.1760527 -0.340368,0.1760527 -0.06455,0 -0.09976,0 -0.09976,0.076289 0,0.041079 0.03521,0.041079 0.09976,0.041079 h 1.338 c 0.59271,0 1.032842,-0.4401316 1.032842,-0.8098422 0,-0.2699474 -0.217132,-0.487079 -0.580974,-0.528158 0.387316,-0.070421 0.7805,-0.34623688 0.7805,-0.70421061 0,-0.27581583 -0.246473,-0.51642113 -0.692473,-0.51642113 H 37.75762 c -0.07042,0 -0.105632,0 -0.105632,0.07628949 0,0.041079 0.03521,0.041079 0.105632,0.041079 0.0059,0 0.07629,0 0.140842,0.005868 0.06455,0.0117368 0.09976,0.0117368 0.09976,0.0645526 0,0.0117369 -0.0059,0.0234737 -0.01174,0.0704211 z M 38.045173,1.2675763 38.279909,0.34036563 C 38.31512,0.21126034 38.320988,0.1995235 38.479436,0.1995235 h 0.487079 c 0.328631,0 0.404921,0.22300003 0.404921,0.38731584 0,0.32863163 -0.322763,0.68073696 -0.774632,0.68073696 z m -0.164316,1.2558423 c -0.05282,0 -0.05868,0 -0.08216,0 -0.04108,-0.00587 -0.05282,-0.011737 -0.05282,-0.041079 0,-0.011737 0,-0.017605 0.02347,-0.082158 l 0.25821,-1.0445791 h 0.704211 c 0.357974,0 0.434263,0.2758158 0.434263,0.4342632 0,0.3697106 -0.3345,0.7335528 -0.7805,0.7335528 z m 0,0"
       id="id-cfb6c948-1cd1-4180-8e8b-5846e42162a7" />
    <circle
       style="font-variation-settings:normal;vector-effect:none;fill:#deddda;fill-opacity:1;fill-rule:evenodd;stroke:#000000;stroke-width:0.264583;stroke-linecap:butt;stroke-linejoin:miter;stroke-miterlimit:4;stroke-dasharray:none;stroke-dashoffset:0;stroke-opacity:1;stop-color:#000000"
       id="path856"
       cx="113.87336"
       cy="9.2989788"
       r="2.6458333" />
    <circle
       style="font-variation-settings:normal;vector-effect:none;fill:#deddda;fill-opacity:1;fill-rule:evenodd;stroke:#000000;stroke-width:0.264583;stroke-linecap:butt;stroke-linejoin:miter;stroke-miterlimit:4;stroke-dasharray:none;stroke-dashoffset:0;stroke-opacity:1;stop-color:#000000"
       id="path858"
       cx="113.87336"
       cy="25.173979"
       r="2.6458333" />
    <circle
       style="font-variation-settings:normal;vector-effect:none;fill:#deddda;fill-opacity:1;fill-rule:evenodd;stroke:#000000;stroke-width:0.264583;stroke-linecap:butt;stroke-linejoin:miter;stroke-miterlimit:4;stroke-dasharray:none;stroke-dashoffset:0;stroke-opacity:1;stop-color:#000000"
       id="path860"
       cx="97.99836"
       cy="25.173979"
       r="2.6458333" />
    <circle
       style="font-variation-settings:normal;vector-effect:none;fill:#deddda;fill-opacity:1;fill-rule:evenodd;stroke:#000000;stroke-width:0.264583;stroke-linecap:butt;stroke-linejoin:miter;stroke-miterlimit:4;stroke-dasharray:none;stroke-dashoffset:0;stroke-opacity:1;stop-color:#000000"
       id="path862"
       cx="113.87336"
       cy="41.048981"
       r="2.6458333" />
    <rect
       style="font-variation-settings:normal;fill:none;fill-opacity:1;fill-rule:evenodd;stroke:#000000;stroke-width:0.205;stroke-linecap:butt;stroke-linejoin:miter;stroke-miterlimit:4;stroke-dasharray:0.82, 0.41;stroke-dashoffset:0;stroke-opacity:1;stop-color:#000000"
       id="rect4929"
       width="26.458332"
       height="42.333332"
       x="92.706696"
       y="4.0073147" />
    <path
       style="fill:#000000;fill-opacity:1;stroke:none;stroke-width:0"
       d="m 95.262573,0.04107901 c 0,-0.01173684 -0.006,-0.04107895375 -0.0411,-0.04107895375 -0.0117,0 -0.0176,0.00586842375 -0.0587,0.04694737375 L 94.904603,0.3345001 C 94.869393,0.28168431 94.699216,5.625e-8 94.282556,5.625e-8 c -0.83919,0 -1.67837,0.82744748375 -1.67837,1.69597394375 0,0.6161843 0.44013,1.0269738 1.01524,1.0269738 0.32276,0 0.61031,-0.1467105 0.80984,-0.3227632 0.346237,-0.3051579 0.410787,-0.6455264 0.410787,-0.6572632 0,-0.041079 -0.0411,-0.041079 -0.0469,-0.041079 -0.0235,0 -0.0411,0.011737 -0.0469,0.041079 -0.0352,0.1056315 -0.123227,0.375579 -0.381437,0.5927106 -0.25821,0.2053947 -0.49295,0.2699474 -0.68661,0.2699474 -0.3345,0 -0.73355,-0.193658 -0.73355,-0.7746317 0,-0.2171316 0.0763,-0.8215791 0.45187,-1.26171072 0.22886,-0.26407899 0.58097,-0.45186849 0.91547,-0.45186849 0.38145,0 0.604447,0.28755268 0.604447,0.72181589 0,0.15257897 -0.0117,0.15257897 -0.0117,0.19365792 0,0.035211 0.0411,0.035211 0.0528,0.035211 0.0469,0 0.0469,-0.00587 0.0704,-0.0762894 z m 0,0"
       id="id-94d25bd3-e55f-457e-afca-c208b2b47e5a" />
    <path
       style="fill:none;fill-rule:evenodd;stroke:#000000;stroke-width:0.264583px;stroke-linecap:butt;stroke-linejoin:miter;stroke-opacity:1;marker-start:url(#TriangleInM);marker-end:url(#TriangleOutM)"
       d="M 45.08167,9.2989635 H 71.540004"
       id="path2265"
       inkscape:connector-type="polyline"
       inkscape:connector-curvature="0"
       inkscape:connection-start="#path850"
       inkscape:connection-end="#path854" />
    <path
       style="fill:none;fill-rule:evenodd;stroke:#000000;stroke-width:0.264583px;stroke-linecap:butt;stroke-linejoin:miter;stroke-opacity:1;marker-start:url(#TriangleInM);marker-end:url(#TriangleOutM)"
       d="M 72.82457,11.567741 59.672103,33.488513"
       id="path2267"
       inkscape:connector-type="polyline"
       inkscape:connector-curvature="0"
       inkscape:connection-start="#path854"
       inkscape:connection-end="#path852" />
    <path
       style="fill:none;fill-rule:evenodd;stroke:#000000;stroke-width:0.264583px;stroke-linecap:butt;stroke-linejoin:miter;stroke-opacity:1;marker-start:url(#TriangleInM);marker-end:url(#TriangleOutM)"
       d="M 43.797103,11.567741 56.94957,33.488513"
       id="path2269"
       inkscape:connector-type="polyline"
       inkscape:connector-curvature="0"
       inkscape:connection-start="#path850"
       inkscape:connection-end="#path852" />
    <path
       style="fill:none;fill-rule:evenodd;stroke:#000000;stroke-width:0.264583px;stroke-linecap:butt;stroke-linejoin:miter;stroke-opacity:1;marker-start:url(#TriangleInM);marker-end:url(#TriangleOutM)"
       d="M 113.87336,11.944812 V 22.528146"
       id="path2271"
       inkscape:connector-type="polyline"
       inkscape:connector-curvature="0"
       inkscape:connection-start="#path856"
       inkscape:connection-end="#path858" />
    <path
       style="fill:none;fill-rule:evenodd;stroke:#000000;stroke-width:0.264583px;stroke-linecap:butt;stroke-linejoin:miter;stroke-opacity:1;marker-start:url(#TriangleInM);marker-end:url(#TriangleOutM)"
       d="M 113.87336,27.819812 V 38.403147"
       id="path2273"
       inkscape:connector-type="polyline"
       inkscape:connector-curvature="0"
       inkscape:connection-start="#path858"
       inkscape:connection-end="#path862" />
    <path
       style="fill:none;fill-rule:evenodd;stroke:#000000;stroke-width:0.264583px;stroke-linecap:butt;stroke-linejoin:miter;stroke-opacity:1;marker-start:url(#TriangleInM);marker-end:url(#TriangleOutM)"
       d="M 111.22753,25.173979 H 100.64419"
       id="path2275"
       inkscape:connector-type="polyline"
       inkscape:connector-curvature="0"
       inkscape:connection-start="#path858"
       inkscape:connection-end="#path860" />
  </g>
</svg>
