<?xml version="1.0" encoding="UTF-8" standalone="no"?>
<!-- Created with Inkscape (http://www.inkscape.org/) -->

<svg
   width="21.937168mm"
   height="19.583031mm"
   viewBox="0 0 21.937169 19.583031"
   version="1.1"
   id="svg5"
   sodipodi:docname="triangle_sides.svg"
   inkscape:version="1.1 (c4e8f9e, 2021-05-24)"
   xmlns:inkscape="http://www.inkscape.org/namespaces/inkscape"
   xmlns:sodipodi="http://sodipodi.sourceforge.net/DTD/sodipodi-0.dtd"
   xmlns="http://www.w3.org/2000/svg"
   xmlns:svg="http://www.w3.org/2000/svg"
   xmlns:ns5="http://www.iki.fi/pav/software/textext/">
  <sodipodi:namedview
     id="namedview7"
     pagecolor="#ffffff"
     bordercolor="#666666"
     borderopacity="1.0"
     inkscape:pageshadow="2"
     inkscape:pageopacity="0.0"
     inkscape:pagecheckerboard="0"
     inkscape:document-units="mm"
     showgrid="false"
     inkscape:snap-center="false"
     inkscape:snap-smooth-nodes="true"
     inkscape:object-nodes="false"
     inkscape:object-paths="false"
     inkscape:snap-others="false"
     inkscape:snap-intersection-paths="false"
     inkscape:zoom="4.4542649"
     inkscape:cx="41.64548"
     inkscape:cy="42.318992"
     inkscape:window-width="1440"
     inkscape:window-height="847"
     inkscape:window-x="1820"
     inkscape:window-y="40"
     inkscape:window-maximized="0"
     inkscape:current-layer="layer1">
    <inkscape:grid
       type="xygrid"
       id="grid824"
       originx="-59.798432"
       originy="-86.202202" />
  </sodipodi:namedview>
  <defs
     id="defs2">
    <marker
       style="overflow:visible"
       id="TriangleOutS"
       refX="0"
       refY="0"
       orient="auto"
       inkscape:stockid="TriangleOutS"
       inkscape:isstock="true">
      <path
         transform="scale(0.2)"
         style="fill:context-stroke;fill-rule:evenodd;stroke:context-stroke;stroke-width:1pt"
         d="M 5.77,0 -2.88,5 V -5 Z"
         id="path1859" />
    </marker>
  </defs>
  <g
     inkscape:label="Layer 1"
     inkscape:groupmode="layer"
     id="layer1"
     transform="translate(-59.798432,-86.202198)">
    <g
       id="g2712">
      <path
         style="font-variation-settings:normal;opacity:1;fill:none;fill-opacity:1;fill-rule:evenodd;stroke:#19aeff;stroke-width:0.2;stroke-linecap:butt;stroke-linejoin:miter;stroke-miterlimit:4;stroke-dasharray:none;stroke-dashoffset:0;stroke-opacity:0.30117;stop-color:#000000;stop-opacity:1"
         id="path1474"
         sodipodi:type="arc"
         sodipodi:cx="66.145836"
         sodipodi:cy="103.1875"
         sodipodi:rx="2.6458333"
         sodipodi:ry="2.6458333"
         sodipodi:start="5.1806404"
         sodipodi:end="6.2791536"
         sodipodi:open="true"
         sodipodi:arc-type="arc"
         d="m 67.339971,100.82647 a 2.6458333,2.6458333 0 0 1 1.451677,2.35036" />
      <path
         style="fill:none;stroke:#d40000;stroke-width:0.165;stroke-linecap:butt;stroke-linejoin:miter;stroke-miterlimit:4;stroke-dasharray:none;stroke-opacity:1"
         d="m 66.145832,103.1875 h 7.9375 V 86.518749 L 66.145833,103.1875"
         id="path955" />
      <circle
         style="font-variation-settings:normal;vector-effect:none;fill:none;fill-opacity:1;fill-rule:evenodd;stroke:#000000;stroke-width:0.264583;stroke-linecap:butt;stroke-linejoin:miter;stroke-miterlimit:4;stroke-dasharray:none;stroke-dashoffset:0;stroke-opacity:1;stop-color:#000000"
         id="path1119"
         cx="74.093109"
         cy="86.466782"
         r="0.13229166" />
      <circle
         style="font-variation-settings:normal;vector-effect:none;fill:none;fill-opacity:1;fill-rule:evenodd;stroke:#000000;stroke-width:0.264583;stroke-linecap:butt;stroke-linejoin:miter;stroke-miterlimit:4;stroke-dasharray:none;stroke-dashoffset:0;stroke-opacity:1;stop-color:#000000"
         id="path1559"
         cx="66.145836"
         cy="103.1875"
         r="0.13229166" />
      <g
         transform="matrix(0.19724834,0,0,0.19724834,68.921681,100.38852)"
         ns5:version="1.3.1"
         ns5:texconverter="pdflatex"
         ns5:pdfconverter="inkscape"
         ns5:text="$\\theta$\n"
         ns5:preamble="/Users/ketiboldiais/Library/Application Support/org.inkscape.Inkscape/config/inkscape/extensions/circuitSymbols/circuitSymbolsPreamble.tex"
         ns5:scale="1.0"
         ns5:alignment="middle center"
         ns5:jacobian_sqrt="0.352778"
         id="g2929">
        <defs
           id="id-c076f73b-da1f-4f29-bc3d-eb9d14f246e1">
          <g
             id="id-4f17f50f-e39e-4f51-b719-d282a4e64490">
            <symbol
               overflow="visible"
               id="id-f562d933-3b89-44f1-b175-5d36cec35413">
              <path
                 style="stroke:none;stroke-width:0"
                 d=""
                 id="id-895b2057-4c25-4974-bbd1-74e6bca55434" />
            </symbol>
            <symbol
               overflow="visible"
               id="id-88523629-706b-4876-82a5-0f265da81a72">
              <path
                 style="stroke:none;stroke-width:0"
                 d="m 4.53125,-4.984375 c 0,-0.65625 -0.171875,-2.046875 -1.1875,-2.046875 -1.390625,0 -2.921875,2.8125 -2.921875,5.09375 0,0.9375 0.28125,2.046875 1.1875,2.046875 1.40625,0 2.921875,-2.859375 2.921875,-5.09375 z M 1.46875,-3.625 C 1.640625,-4.25 1.84375,-5.046875 2.25,-5.765625 2.515625,-6.25 2.875,-6.8125 3.328125,-6.8125 c 0.484375,0 0.546875,0.640625 0.546875,1.203125 0,0.5 -0.078125,1 -0.3125,1.984375 z m 2,0.328125 C 3.359375,-2.84375 3.15625,-2 2.765625,-1.28125 c -0.34375,0.6875 -0.71875,1.171875 -1.15625,1.171875 -0.328125,0 -0.53125,-0.296875 -0.53125,-1.21875 0,-0.421875 0.0625,-1 0.3125,-1.96875 z m 0,0"
                 id="id-72e5196a-c905-404f-844d-99afea75b6af" />
            </symbol>
          </g>
        </defs>
        <g
           id="id-b448d38c-842a-45cd-9868-f6f4afdd6381"
           transform="translate(-149.134,-127.734)">
          <g
             style="fill:#000000;fill-opacity:1"
             id="id-e0a02133-8f2b-4752-8451-6d7c4f7eec59">
            <g
               transform="translate(148.712,134.765)"
               id="g2925">
              <path
                 style="stroke:none;stroke-width:0"
                 d="m 4.53125,-4.984375 c 0,-0.65625 -0.171875,-2.046875 -1.1875,-2.046875 -1.390625,0 -2.921875,2.8125 -2.921875,5.09375 0,0.9375 0.28125,2.046875 1.1875,2.046875 1.40625,0 2.921875,-2.859375 2.921875,-5.09375 z M 1.46875,-3.625 C 1.640625,-4.25 1.84375,-5.046875 2.25,-5.765625 2.515625,-6.25 2.875,-6.8125 3.328125,-6.8125 c 0.484375,0 0.546875,0.640625 0.546875,1.203125 0,0.5 -0.078125,1 -0.3125,1.984375 z m 2,0.328125 C 3.359375,-2.84375 3.15625,-2 2.765625,-1.28125 c -0.34375,0.6875 -0.71875,1.171875 -1.15625,1.171875 -0.328125,0 -0.53125,-0.296875 -0.53125,-1.21875 0,-0.421875 0.0625,-1 0.3125,-1.96875 z m 0,0"
                 id="id-83892b7f-bf69-46af-8e90-f9e749a7742f" />
            </g>
          </g>
        </g>
      </g>
      <g
         transform="matrix(0.20839049,0,0,0.20839049,66.55588,103.9162)"
         ns5:version="1.3.1"
         ns5:texconverter="pdflatex"
         ns5:pdfconverter="inkscape"
         ns5:text="$\\textit{adjacent}$\n"
         ns5:preamble="/Users/ketiboldiais/Library/Application Support/org.inkscape.Inkscape/config/inkscape/extensions/circuitSymbols/circuitSymbolsPreamble.tex"
         ns5:scale="1.0"
         ns5:alignment="middle center"
         ns5:inkscapeversion="1.1"
         ns5:jacobian_sqrt="0.352778"
         id="g1947">
        <defs
           id="id-bf54ee86-5d6f-4425-8f3d-4204a5f0e9db">
          <g
             id="id-c0d58862-5f0c-47cc-861c-f2507bf62808">
            <symbol
               overflow="visible"
               id="id-5353a37e-79d6-41d1-991b-d4f9fa861508">
              <path
                 style="stroke:none;stroke-width:0"
                 d=""
                 id="id-dbe51fe7-d1e0-4a35-8848-8da34fa2f958" />
            </symbol>
            <symbol
               overflow="visible"
               id="id-b7c74635-070e-4611-890b-141abf1e40b2">
              <path
                 style="stroke:none;stroke-width:0"
                 d="m 3.484375,-0.59375 c 0.109375,0.5 0.46875,0.703125 0.828125,0.703125 0.359375,0 0.578125,-0.25 0.71875,-0.5625 0.1875,-0.375 0.296875,-0.953125 0.296875,-0.96875 0,-0.109375 -0.078125,-0.109375 -0.140625,-0.109375 -0.125,0 -0.140625,0.015625 -0.1875,0.234375 -0.140625,0.5625 -0.328125,1.1875 -0.671875,1.1875 -0.265625,0 -0.265625,-0.265625 -0.265625,-0.40625 0,-0.078125 0,-0.234375 0.078125,-0.515625 L 4.8125,-3.734375 c 0.046875,-0.140625 0.046875,-0.15625 0.046875,-0.21875 0,-0.203125 -0.171875,-0.25 -0.28125,-0.25 -0.3125,0 -0.375,0.328125 -0.390625,0.390625 C 4,-4.25 3.671875,-4.40625 3.359375,-4.40625 c -1.109375,0 -2.28125,1.515625 -2.28125,2.96875 0,0.84375 0.453125,1.546875 1.203125,1.546875 0.359375,0 0.796875,-0.203125 1.203125,-0.703125 z m 0.53125,-2.53125 -0.46875,1.890625 c -0.078125,0.3125 -0.703125,1.125 -1.25,1.125 C 1.828125,-0.109375 1.75,-0.703125 1.75,-1 1.75,-1.5 2.0625,-2.65625 2.25,-3.078125 2.5,-3.6875 2.953125,-4.1875 3.359375,-4.1875 c 0.4375,0 0.6875,0.515625 0.6875,0.9375 0,0.015625 -0.015625,0.0625 -0.03125,0.125 z m 0,0"
                 id="id-808c21bf-584f-4b51-ad67-9aec0d2e2a5a" />
            </symbol>
            <symbol
               overflow="visible"
               id="id-ed68b876-6acc-490e-84f7-f8c7eb1989b6">
              <path
                 style="stroke:none;stroke-width:0"
                 d="m 5.546875,-6.671875 c 0.015625,-0.03125 0.03125,-0.109375 0.03125,-0.125 0,-0.09375 -0.0625,-0.125 -0.140625,-0.125 -0.03125,0 -0.125,0.015625 -0.15625,0.03125 L 4.296875,-6.8125 c -0.125,0 -0.234375,0.015625 -0.234375,0.203125 C 4.0625,-6.5 4.171875,-6.5 4.3125,-6.5 c 0.46875,0 0.5,0.0625 0.5,0.171875 0,0.03125 -0.03125,0.15625 -0.03125,0.171875 l -0.578125,2.328125 c -0.15625,-0.3125 -0.421875,-0.578125 -0.84375,-0.578125 -1.109375,0 -2.28125,1.515625 -2.28125,2.96875 0,0.84375 0.453125,1.546875 1.203125,1.546875 0.359375,0 0.796875,-0.203125 1.203125,-0.703125 0.109375,0.5 0.46875,0.703125 0.828125,0.703125 0.359375,0 0.578125,-0.25 0.71875,-0.5625 0.1875,-0.375 0.296875,-0.953125 0.296875,-0.96875 0,-0.109375 -0.078125,-0.109375 -0.140625,-0.109375 -0.125,0 -0.140625,0.015625 -0.1875,0.234375 -0.140625,0.5625 -0.328125,1.1875 -0.671875,1.1875 -0.265625,0 -0.265625,-0.265625 -0.265625,-0.40625 0,-0.078125 0,-0.21875 0.0625,-0.46875 z M 3.53125,-1.21875 C 3.453125,-0.90625 2.84375,-0.109375 2.296875,-0.109375 1.828125,-0.109375 1.75,-0.703125 1.75,-1 1.75,-1.5 2.0625,-2.65625 2.25,-3.078125 2.5,-3.6875 2.953125,-4.1875 3.359375,-4.1875 c 0.078125,0 0.3125,0.015625 0.484375,0.296875 0.109375,0.15625 0.203125,0.4375 0.203125,0.625 0,0.03125 -0.015625,0.078125 -0.03125,0.140625 z m 0,0"
                 id="id-ffe1acf4-e0dc-4130-851b-eeecbeb474ee" />
            </symbol>
            <symbol
               overflow="visible"
               id="id-6e98fb90-2233-4d9c-83c5-30d0b5cb6fcf">
              <path
                 style="stroke:none;stroke-width:0"
                 d="m 3.15625,-3.1875 c 0,-0.015625 0.046875,-0.1875 0.046875,-0.328125 0,-0.46875 -0.296875,-0.890625 -0.859375,-0.890625 -0.984375,0 -1.515625,1.46875 -1.515625,1.53125 0,0.109375 0.09375,0.109375 0.15625,0.109375 0.125,0 0.125,-0.015625 0.1875,-0.171875 0.25,-0.625 0.640625,-1.25 1.15625,-1.25 0.25,0 0.28125,0.21875 0.28125,0.40625 0,0.15625 -0.03125,0.34375 -0.078125,0.5 L 1.578125,0.515625 c -0.125,0.53125 -0.515625,1.3125 -1.125,1.3125 C 0.265625,1.828125 0.125,1.75 0.109375,1.734375 0.453125,1.625 0.484375,1.3125 0.484375,1.25 c 0,-0.125 -0.078125,-0.3125 -0.34375,-0.3125 -0.1875,0 -0.484375,0.140625 -0.484375,0.53125 0,0.359375 0.359375,0.578125 0.796875,0.578125 0.765625,0 1.5625,-0.65625 1.765625,-1.5 z M 3.5625,-6.203125 c 0,-0.28125 -0.21875,-0.34375 -0.34375,-0.34375 -0.25,0 -0.484375,0.25 -0.484375,0.484375 0,0.125 0.09375,0.328125 0.34375,0.328125 0.234375,0 0.484375,-0.21875 0.484375,-0.46875 z m 0,0"
                 id="id-71b58943-7fb4-4122-8a9d-fac5919a9ebe" />
            </symbol>
            <symbol
               overflow="visible"
               id="id-add3d1c1-a8fc-41ea-b0e6-33a6dad01a97">
              <path
                 style="stroke:none;stroke-width:0"
                 d="m 4.34375,-3.765625 c -0.5,0.0625 -0.5,0.46875 -0.5,0.5 0,0.15625 0.109375,0.3125 0.328125,0.3125 0.28125,0 0.515625,-0.21875 0.515625,-0.59375 0,-0.484375 -0.4375,-0.859375 -1.0625,-0.859375 -1.25,0 -2.53125,1.421875 -2.53125,2.875 0,0.984375 0.59375,1.640625 1.46875,1.640625 1.28125,0 2.109375,-1 2.109375,-1.140625 0,-0.0625 -0.09375,-0.171875 -0.171875,-0.171875 -0.03125,0 -0.046875,0.015625 -0.125,0.109375 -0.734375,0.9375 -1.625,0.984375 -1.796875,0.984375 -0.53125,0 -0.78125,-0.453125 -0.78125,-1.03125 0,-0.53125 0.265625,-1.578125 0.53125,-2.046875 0.359375,-0.65625 0.859375,-1 1.296875,-1 0.109375,0 0.5625,0.015625 0.71875,0.421875 z m 0,0"
                 id="id-7a1bfa29-c7f1-43d2-9cea-18703bb9625e" />
            </symbol>
            <symbol
               overflow="visible"
               id="id-87ab977a-02f0-4a2d-becb-dd95ef2f0e35">
              <path
                 style="stroke:none;stroke-width:0"
                 d="m 2.375,-2.296875 c 0.3125,0 0.96875,-0.03125 1.453125,-0.21875 0.78125,-0.328125 0.78125,-0.96875 0.78125,-1.046875 0,-0.453125 -0.359375,-0.84375 -1,-0.84375 -1.046875,0 -2.46875,1 -2.46875,2.765625 0,0.90625 0.46875,1.75 1.421875,1.75 1.28125,0 2.109375,-1 2.109375,-1.140625 0,-0.0625 -0.09375,-0.171875 -0.171875,-0.171875 -0.03125,0 -0.046875,0.015625 -0.125,0.109375 -0.734375,0.9375 -1.625,0.984375 -1.796875,0.984375 -0.640625,0 -0.75,-0.703125 -0.75,-1.09375 0,-0.375 0.09375,-0.828125 0.171875,-1.09375 z m -0.328125,-0.21875 c 0.4375,-1.640625 1.46875,-1.671875 1.5625,-1.671875 0.390625,0 0.625,0.265625 0.625,0.609375 0,1.0625 -1.640625,1.0625 -1.96875,1.0625 z m 0,0"
                 id="id-c5ec65cf-0754-4053-a80f-2a2977527d51" />
            </symbol>
            <symbol
               overflow="visible"
               id="id-bcbfbba2-6d67-4bb3-8ae4-66b29eb6b503">
              <path
                 style="stroke:none;stroke-width:0"
                 d="M 2.296875,-1.75 C 2.34375,-1.96875 2.40625,-2.171875 2.453125,-2.390625 2.578125,-2.90625 2.578125,-2.90625 2.75,-3.203125 2.890625,-3.4375 3.34375,-4.1875 4.09375,-4.1875 c 0.4375,0 0.46875,0.453125 0.46875,0.65625 0,0.625 -0.453125,1.8125 -0.578125,2.203125 -0.140625,0.34375 -0.171875,0.4375 -0.171875,0.640625 0,0.4375 0.28125,0.796875 0.765625,0.796875 0.921875,0 1.265625,-1.484375 1.265625,-1.53125 0,-0.109375 -0.078125,-0.109375 -0.15625,-0.109375 -0.125,0 -0.125,0.03125 -0.171875,0.171875 -0.078125,0.265625 -0.34375,1.25 -0.921875,1.25 -0.203125,0 -0.21875,-0.15625 -0.21875,-0.296875 0,-0.234375 0.09375,-0.5 0.1875,-0.734375 0.1875,-0.53125 0.59375,-1.65625 0.59375,-2.234375 0,-0.8125 -0.546875,-1.03125 -1.03125,-1.03125 -0.8125,0 -1.296875,0.59375 -1.421875,0.78125 C 2.625,-4.109375 2.296875,-4.40625 1.859375,-4.40625 1.5,-4.40625 1.3125,-4.171875 1.140625,-3.875 c -0.1875,0.390625 -0.3125,0.984375 -0.3125,1 0,0.109375 0.09375,0.109375 0.15625,0.109375 0.125,0 0.125,-0.015625 0.1875,-0.234375 0.171875,-0.703125 0.359375,-1.1875 0.671875,-1.1875 0.265625,0 0.265625,0.296875 0.265625,0.40625 0,0.15625 -0.03125,0.34375 -0.078125,0.5 l -0.75,2.984375 c -0.015625,0.0625 -0.03125,0.125 -0.03125,0.140625 0,0.109375 0.078125,0.265625 0.28125,0.265625 0.125,0 0.296875,-0.0625 0.359375,-0.265625 z m 0,0"
                 id="id-2397464f-2ab6-466b-8a3c-47ac7939aa91" />
            </symbol>
            <symbol
               overflow="visible"
               id="id-1433ebf9-6cf4-4a31-9bb0-aae8ef654c74">
              <path
                 style="stroke:none;stroke-width:0"
                 d="M 2.59375,-3.984375 H 3.4375 c 0.171875,0 0.28125,0 0.28125,-0.1875 0,-0.125 -0.09375,-0.125 -0.25,-0.125 H 2.671875 l 0.375,-1.46875 c 0.03125,-0.140625 0.03125,-0.171875 0.03125,-0.21875 0,-0.203125 -0.171875,-0.25 -0.265625,-0.25 -0.25,0 -0.34375,0.203125 -0.390625,0.359375 L 2.03125,-4.296875 H 1.1875 c -0.171875,0 -0.28125,0 -0.28125,0.1875 0,0.125 0.09375,0.125 0.25,0.125 H 1.953125 L 1.234375,-1.125 C 1.21875,-1.09375 1.1875,-0.921875 1.1875,-0.78125 c 0,0.484375 0.328125,0.890625 0.84375,0.890625 1.015625,0 1.515625,-1.484375 1.515625,-1.53125 0,-0.109375 -0.078125,-0.109375 -0.140625,-0.109375 -0.125,0 -0.125,0.015625 -0.203125,0.203125 -0.1875,0.46875 -0.578125,1.21875 -1.15625,1.21875 -0.265625,0 -0.265625,-0.25 -0.265625,-0.40625 0,-0.078125 0,-0.234375 0.078125,-0.515625 z m 0,0"
                 id="id-1bb8eefe-6266-4bcd-a592-d66ddfbaf860" />
            </symbol>
          </g>
        </defs>
        <g
           id="id-6eb2ff89-9934-48bd-9c54-864f7912474e"
           transform="translate(-149.79,-127.843)">
          <g
             style="fill:#000000;fill-opacity:1"
             id="id-953f3f99-ddc0-442e-99ee-5b76ab246aa2">
            <g
               transform="translate(148.712,134.765)"
               id="g1921">
              <path
                 style="stroke:none;stroke-width:0"
                 d="m 3.484375,-0.59375 c 0.109375,0.5 0.46875,0.703125 0.828125,0.703125 0.359375,0 0.578125,-0.25 0.71875,-0.5625 0.1875,-0.375 0.296875,-0.953125 0.296875,-0.96875 0,-0.109375 -0.078125,-0.109375 -0.140625,-0.109375 -0.125,0 -0.140625,0.015625 -0.1875,0.234375 -0.140625,0.5625 -0.328125,1.1875 -0.671875,1.1875 -0.265625,0 -0.265625,-0.265625 -0.265625,-0.40625 0,-0.078125 0,-0.234375 0.078125,-0.515625 L 4.8125,-3.734375 c 0.046875,-0.140625 0.046875,-0.15625 0.046875,-0.21875 0,-0.203125 -0.171875,-0.25 -0.28125,-0.25 -0.3125,0 -0.375,0.328125 -0.390625,0.390625 C 4,-4.25 3.671875,-4.40625 3.359375,-4.40625 c -1.109375,0 -2.28125,1.515625 -2.28125,2.96875 0,0.84375 0.453125,1.546875 1.203125,1.546875 0.359375,0 0.796875,-0.203125 1.203125,-0.703125 z m 0.53125,-2.53125 -0.46875,1.890625 c -0.078125,0.3125 -0.703125,1.125 -1.25,1.125 C 1.828125,-0.109375 1.75,-0.703125 1.75,-1 1.75,-1.5 2.0625,-2.65625 2.25,-3.078125 2.5,-3.6875 2.953125,-4.1875 3.359375,-4.1875 c 0.4375,0 0.6875,0.515625 0.6875,0.9375 0,0.015625 -0.015625,0.0625 -0.03125,0.125 z m 0,0"
                 id="id-81979e8b-e1f9-4f3c-8884-781699c3a573" />
            </g>
            <g
               transform="translate(153.804,134.765)"
               id="g1924">
              <path
                 style="stroke:none;stroke-width:0"
                 d="m 5.546875,-6.671875 c 0.015625,-0.03125 0.03125,-0.109375 0.03125,-0.125 0,-0.09375 -0.0625,-0.125 -0.140625,-0.125 -0.03125,0 -0.125,0.015625 -0.15625,0.03125 L 4.296875,-6.8125 c -0.125,0 -0.234375,0.015625 -0.234375,0.203125 C 4.0625,-6.5 4.171875,-6.5 4.3125,-6.5 c 0.46875,0 0.5,0.0625 0.5,0.171875 0,0.03125 -0.03125,0.15625 -0.03125,0.171875 l -0.578125,2.328125 c -0.15625,-0.3125 -0.421875,-0.578125 -0.84375,-0.578125 -1.109375,0 -2.28125,1.515625 -2.28125,2.96875 0,0.84375 0.453125,1.546875 1.203125,1.546875 0.359375,0 0.796875,-0.203125 1.203125,-0.703125 0.109375,0.5 0.46875,0.703125 0.828125,0.703125 0.359375,0 0.578125,-0.25 0.71875,-0.5625 0.1875,-0.375 0.296875,-0.953125 0.296875,-0.96875 0,-0.109375 -0.078125,-0.109375 -0.140625,-0.109375 -0.125,0 -0.140625,0.015625 -0.1875,0.234375 -0.140625,0.5625 -0.328125,1.1875 -0.671875,1.1875 -0.265625,0 -0.265625,-0.265625 -0.265625,-0.40625 0,-0.078125 0,-0.21875 0.0625,-0.46875 z M 3.53125,-1.21875 C 3.453125,-0.90625 2.84375,-0.109375 2.296875,-0.109375 1.828125,-0.109375 1.75,-0.703125 1.75,-1 1.75,-1.5 2.0625,-2.65625 2.25,-3.078125 2.5,-3.6875 2.953125,-4.1875 3.359375,-4.1875 c 0.078125,0 0.3125,0.015625 0.484375,0.296875 0.109375,0.15625 0.203125,0.4375 0.203125,0.625 0,0.03125 -0.015625,0.078125 -0.03125,0.140625 z m 0,0"
                 id="id-d4a4ac78-7da6-4fbe-9ef2-3259d0c68097" />
            </g>
            <g
               transform="translate(158.896,134.765)"
               id="g1927">
              <path
                 style="stroke:none;stroke-width:0"
                 d="m 3.15625,-3.1875 c 0,-0.015625 0.046875,-0.1875 0.046875,-0.328125 0,-0.46875 -0.296875,-0.890625 -0.859375,-0.890625 -0.984375,0 -1.515625,1.46875 -1.515625,1.53125 0,0.109375 0.09375,0.109375 0.15625,0.109375 0.125,0 0.125,-0.015625 0.1875,-0.171875 0.25,-0.625 0.640625,-1.25 1.15625,-1.25 0.25,0 0.28125,0.21875 0.28125,0.40625 0,0.15625 -0.03125,0.34375 -0.078125,0.5 L 1.578125,0.515625 c -0.125,0.53125 -0.515625,1.3125 -1.125,1.3125 C 0.265625,1.828125 0.125,1.75 0.109375,1.734375 0.453125,1.625 0.484375,1.3125 0.484375,1.25 c 0,-0.125 -0.078125,-0.3125 -0.34375,-0.3125 -0.1875,0 -0.484375,0.140625 -0.484375,0.53125 0,0.359375 0.359375,0.578125 0.796875,0.578125 0.765625,0 1.5625,-0.65625 1.765625,-1.5 z M 3.5625,-6.203125 c 0,-0.28125 -0.21875,-0.34375 -0.34375,-0.34375 -0.25,0 -0.484375,0.25 -0.484375,0.484375 0,0.125 0.09375,0.328125 0.34375,0.328125 0.234375,0 0.484375,-0.21875 0.484375,-0.46875 z m 0,0"
                 id="id-bfb81950-9d82-4af0-9e17-e751b3d0f70f" />
            </g>
            <g
               transform="translate(161.951,134.765)"
               id="g1930">
              <path
                 style="stroke:none;stroke-width:0"
                 d="m 3.484375,-0.59375 c 0.109375,0.5 0.46875,0.703125 0.828125,0.703125 0.359375,0 0.578125,-0.25 0.71875,-0.5625 0.1875,-0.375 0.296875,-0.953125 0.296875,-0.96875 0,-0.109375 -0.078125,-0.109375 -0.140625,-0.109375 -0.125,0 -0.140625,0.015625 -0.1875,0.234375 -0.140625,0.5625 -0.328125,1.1875 -0.671875,1.1875 -0.265625,0 -0.265625,-0.265625 -0.265625,-0.40625 0,-0.078125 0,-0.234375 0.078125,-0.515625 L 4.8125,-3.734375 c 0.046875,-0.140625 0.046875,-0.15625 0.046875,-0.21875 0,-0.203125 -0.171875,-0.25 -0.28125,-0.25 -0.3125,0 -0.375,0.328125 -0.390625,0.390625 C 4,-4.25 3.671875,-4.40625 3.359375,-4.40625 c -1.109375,0 -2.28125,1.515625 -2.28125,2.96875 0,0.84375 0.453125,1.546875 1.203125,1.546875 0.359375,0 0.796875,-0.203125 1.203125,-0.703125 z m 0.53125,-2.53125 -0.46875,1.890625 c -0.078125,0.3125 -0.703125,1.125 -1.25,1.125 C 1.828125,-0.109375 1.75,-0.703125 1.75,-1 1.75,-1.5 2.0625,-2.65625 2.25,-3.078125 2.5,-3.6875 2.953125,-4.1875 3.359375,-4.1875 c 0.4375,0 0.6875,0.515625 0.6875,0.9375 0,0.015625 -0.015625,0.0625 -0.03125,0.125 z m 0,0"
                 id="id-87ff1f95-281a-436e-80ed-4e2ba451240d" />
            </g>
            <g
               transform="translate(167.043,134.765)"
               id="g1933">
              <path
                 style="stroke:none;stroke-width:0"
                 d="m 4.34375,-3.765625 c -0.5,0.0625 -0.5,0.46875 -0.5,0.5 0,0.15625 0.109375,0.3125 0.328125,0.3125 0.28125,0 0.515625,-0.21875 0.515625,-0.59375 0,-0.484375 -0.4375,-0.859375 -1.0625,-0.859375 -1.25,0 -2.53125,1.421875 -2.53125,2.875 0,0.984375 0.59375,1.640625 1.46875,1.640625 1.28125,0 2.109375,-1 2.109375,-1.140625 0,-0.0625 -0.09375,-0.171875 -0.171875,-0.171875 -0.03125,0 -0.046875,0.015625 -0.125,0.109375 -0.734375,0.9375 -1.625,0.984375 -1.796875,0.984375 -0.53125,0 -0.78125,-0.453125 -0.78125,-1.03125 0,-0.53125 0.265625,-1.578125 0.53125,-2.046875 0.359375,-0.65625 0.859375,-1 1.296875,-1 0.109375,0 0.5625,0.015625 0.71875,0.421875 z m 0,0"
                 id="id-ada88040-abeb-4a0f-ab34-9f2a251fb6ab" />
            </g>
          </g>
          <g
             style="fill:#000000;fill-opacity:1"
             id="id-dd3384d9-dc41-4e63-95bb-6f75b9b667e9">
            <g
               transform="translate(171.118,134.765)"
               id="g1937">
              <path
                 style="stroke:none;stroke-width:0"
                 d="m 2.375,-2.296875 c 0.3125,0 0.96875,-0.03125 1.453125,-0.21875 0.78125,-0.328125 0.78125,-0.96875 0.78125,-1.046875 0,-0.453125 -0.359375,-0.84375 -1,-0.84375 -1.046875,0 -2.46875,1 -2.46875,2.765625 0,0.90625 0.46875,1.75 1.421875,1.75 1.28125,0 2.109375,-1 2.109375,-1.140625 0,-0.0625 -0.09375,-0.171875 -0.171875,-0.171875 -0.03125,0 -0.046875,0.015625 -0.125,0.109375 -0.734375,0.9375 -1.625,0.984375 -1.796875,0.984375 -0.640625,0 -0.75,-0.703125 -0.75,-1.09375 0,-0.375 0.09375,-0.828125 0.171875,-1.09375 z m -0.328125,-0.21875 c 0.4375,-1.640625 1.46875,-1.671875 1.5625,-1.671875 0.390625,0 0.625,0.265625 0.625,0.609375 0,1.0625 -1.640625,1.0625 -1.96875,1.0625 z m 0,0"
                 id="id-6ca823fd-f060-4f71-885f-55ad34b2f407" />
            </g>
            <g
               transform="translate(175.701,134.765)"
               id="g1940">
              <path
                 style="stroke:none;stroke-width:0"
                 d="M 2.296875,-1.75 C 2.34375,-1.96875 2.40625,-2.171875 2.453125,-2.390625 2.578125,-2.90625 2.578125,-2.90625 2.75,-3.203125 2.890625,-3.4375 3.34375,-4.1875 4.09375,-4.1875 c 0.4375,0 0.46875,0.453125 0.46875,0.65625 0,0.625 -0.453125,1.8125 -0.578125,2.203125 -0.140625,0.34375 -0.171875,0.4375 -0.171875,0.640625 0,0.4375 0.28125,0.796875 0.765625,0.796875 0.921875,0 1.265625,-1.484375 1.265625,-1.53125 0,-0.109375 -0.078125,-0.109375 -0.15625,-0.109375 -0.125,0 -0.125,0.03125 -0.171875,0.171875 -0.078125,0.265625 -0.34375,1.25 -0.921875,1.25 -0.203125,0 -0.21875,-0.15625 -0.21875,-0.296875 0,-0.234375 0.09375,-0.5 0.1875,-0.734375 0.1875,-0.53125 0.59375,-1.65625 0.59375,-2.234375 0,-0.8125 -0.546875,-1.03125 -1.03125,-1.03125 -0.8125,0 -1.296875,0.59375 -1.421875,0.78125 C 2.625,-4.109375 2.296875,-4.40625 1.859375,-4.40625 1.5,-4.40625 1.3125,-4.171875 1.140625,-3.875 c -0.1875,0.390625 -0.3125,0.984375 -0.3125,1 0,0.109375 0.09375,0.109375 0.15625,0.109375 0.125,0 0.125,-0.015625 0.1875,-0.234375 0.171875,-0.703125 0.359375,-1.1875 0.671875,-1.1875 0.265625,0 0.265625,0.296875 0.265625,0.40625 0,0.15625 -0.03125,0.34375 -0.078125,0.5 l -0.75,2.984375 c -0.015625,0.0625 -0.03125,0.125 -0.03125,0.140625 0,0.109375 0.078125,0.265625 0.28125,0.265625 0.125,0 0.296875,-0.0625 0.359375,-0.265625 z m 0,0"
                 id="id-072280c8-45b5-4d3f-baff-cccb2d22ee09" />
            </g>
            <g
               transform="translate(181.302,134.765)"
               id="g1943">
              <path
                 style="stroke:none;stroke-width:0"
                 d="M 2.59375,-3.984375 H 3.4375 c 0.171875,0 0.28125,0 0.28125,-0.1875 0,-0.125 -0.09375,-0.125 -0.25,-0.125 H 2.671875 l 0.375,-1.46875 c 0.03125,-0.140625 0.03125,-0.171875 0.03125,-0.21875 0,-0.203125 -0.171875,-0.25 -0.265625,-0.25 -0.25,0 -0.34375,0.203125 -0.390625,0.359375 L 2.03125,-4.296875 H 1.1875 c -0.171875,0 -0.28125,0 -0.28125,0.1875 0,0.125 0.09375,0.125 0.25,0.125 H 1.953125 L 1.234375,-1.125 C 1.21875,-1.09375 1.1875,-0.921875 1.1875,-0.78125 c 0,0.484375 0.328125,0.890625 0.84375,0.890625 1.015625,0 1.515625,-1.484375 1.515625,-1.53125 0,-0.109375 -0.078125,-0.109375 -0.140625,-0.109375 -0.125,0 -0.125,0.015625 -0.203125,0.203125 -0.1875,0.46875 -0.578125,1.21875 -1.15625,1.21875 -0.265625,0 -0.265625,-0.25 -0.265625,-0.40625 0,-0.078125 0,-0.234375 0.078125,-0.515625 z m 0,0"
                 id="id-91326ff7-dc39-4d0b-9ccf-f0774311d255" />
            </g>
          </g>
        </g>
      </g>
      <g
         transform="matrix(0.20839049,0,0,0.20839049,74.676189,95.631038)"
         ns5:version="1.3.1"
         ns5:texconverter="pdflatex"
         ns5:pdfconverter="inkscape"
         ns5:text="$\\textit{opposite}$\n\n"
         ns5:preamble="/Users/ketiboldiais/Library/Application Support/org.inkscape.Inkscape/config/inkscape/extensions/circuitSymbols/circuitSymbolsPreamble.tex"
         ns5:scale="1.0"
         ns5:alignment="middle center"
         ns5:inkscapeversion="1.1"
         ns5:jacobian_sqrt="0.352778"
         id="g1729">
        <defs
           id="id-76456c6b-072c-4106-a8fb-1e418bcb388c">
          <g
             id="id-1e54fa6e-8ee9-4b48-9416-b2868a7f6e6f">
            <symbol
               overflow="visible"
               id="id-66ee2b3c-cfa8-44ce-b09a-78b7bfb0aad0">
              <path
                 style="stroke:none"
                 d=""
                 id="id-16ac595b-a71e-4031-bf99-c96aa68efb25" />
            </symbol>
            <symbol
               overflow="visible"
               id="id-814ff73c-99b6-4c9d-a29a-fb64d8b92769">
              <path
                 style="stroke:none"
                 d="m 5.078125,-2.765625 c 0,-0.953125 -0.59375,-1.640625 -1.453125,-1.640625 -1.25,0 -2.53125,1.421875 -2.53125,2.875 0,1.015625 0.625,1.640625 1.453125,1.640625 1.234375,0 2.53125,-1.421875 2.53125,-2.875 z m -2.53125,2.65625 c -0.390625,0 -0.75,-0.3125 -0.75,-1.03125 0,-0.5 0.25,-1.59375 0.578125,-2.140625 0.359375,-0.609375 0.84375,-0.90625 1.234375,-0.90625 0.484375,0 0.765625,0.4375 0.765625,1.03125 0,0.421875 -0.21875,1.453125 -0.53125,2.046875 -0.296875,0.546875 -0.796875,1 -1.296875,1 z m 0,0"
                 id="id-faac6ee7-d478-46f4-9eaf-04d72399dd3f" />
            </symbol>
            <symbol
               overflow="visible"
               id="id-100c6cd6-8573-42f8-8e9a-be9603b57230">
              <path
                 style="stroke:none"
                 d="M 0.890625,1.28125 C 0.8125,1.578125 0.734375,1.609375 0.34375,1.625 c -0.078125,0 -0.203125,0 -0.203125,0.1875 0,0.078125 0.046875,0.125 0.125,0.125 0.265625,0 0.546875,-0.03125 0.828125,-0.03125 0.328125,0 0.65625,0.03125 0.96875,0.03125 0.0625,0 0.1875,0 0.1875,-0.1875 C 2.25,1.625 2.15625,1.625 2.015625,1.625 1.5,1.625 1.5,1.5625 1.5,1.46875 1.5,1.40625 1.578125,1.140625 1.609375,0.984375 L 1.96875,-0.46875 c 0.078125,0.171875 0.328125,0.578125 0.84375,0.578125 1.078125,0 2.265625,-1.46875 2.265625,-2.953125 0,-1.078125 -0.59375,-1.5625 -1.1875,-1.5625 -0.484375,0 -0.921875,0.359375 -1.203125,0.703125 C 2.5625,-4.28125 2.109375,-4.40625 1.859375,-4.40625 1.5,-4.40625 1.3125,-4.171875 1.140625,-3.875 c -0.1875,0.390625 -0.3125,0.984375 -0.3125,1 0,0.109375 0.09375,0.109375 0.15625,0.109375 0.125,0 0.125,-0.015625 0.1875,-0.234375 0.171875,-0.703125 0.359375,-1.1875 0.671875,-1.1875 0.265625,0 0.265625,0.296875 0.265625,0.40625 0,0.046875 0,0.21875 -0.078125,0.484375 z M 2.625,-3.0625 c 0.078125,-0.34375 0.6875,-1.125 1.25,-1.125 0.4375,0 0.546875,0.5625 0.546875,0.890625 0,0.421875 -0.28125,1.609375 -0.5625,2.234375 -0.125,0.25 -0.546875,0.953125 -1.0625,0.953125 -0.578125,0 -0.671875,-0.84375 -0.671875,-0.921875 0,-0.03125 0.015625,-0.0625 0.03125,-0.140625 z m 0,0"
                 id="id-c2cda902-bb57-43dd-bc1d-41caff0c0a78" />
            </symbol>
            <symbol
               overflow="visible"
               id="id-e2bd1708-6b26-43a5-a8bd-2a0a6232d844">
              <path
                 style="stroke:none"
                 d="m 2.46875,-1.96875 c 0.4375,0.109375 0.875,0.203125 0.875,0.75 0,0.3125 -0.265625,1.109375 -1.296875,1.109375 -0.21875,0 -0.796875,-0.046875 -0.953125,-0.5625 0.515625,-0.046875 0.515625,-0.46875 0.515625,-0.484375 0,-0.1875 -0.140625,-0.3125 -0.34375,-0.3125 -0.234375,0 -0.515625,0.15625 -0.515625,0.609375 0,0.609375 0.578125,0.96875 1.296875,0.96875 1.484375,0 1.875,-1.21875 1.875,-1.671875 0,-0.875 -0.78125,-1.046875 -1.1875,-1.140625 -0.28125,-0.0625 -0.640625,-0.140625 -0.640625,-0.5625 0,-0.25 0.203125,-0.921875 1,-0.921875 0.28125,0 0.640625,0.09375 0.75,0.484375 -0.3125,0.046875 -0.390625,0.3125 -0.390625,0.40625 0,0.109375 0.0625,0.28125 0.296875,0.28125 0.171875,0 0.421875,-0.109375 0.421875,-0.546875 0,-0.453125 -0.40625,-0.84375 -1.0625,-0.84375 -1.171875,0 -1.578125,0.953125 -1.578125,1.46875 0,0.78125 0.65625,0.90625 0.9375,0.96875 z m 0,0"
                 id="id-192733b1-2bb3-43c6-b329-db32a4786947" />
            </symbol>
            <symbol
               overflow="visible"
               id="id-3d52bdb4-67c3-4b46-9d9e-69b48f31e48a">
              <path
                 style="stroke:none"
                 d="m 3.296875,-1.421875 c 0,-0.109375 -0.078125,-0.109375 -0.140625,-0.109375 -0.140625,0 -0.140625,0.03125 -0.171875,0.171875 -0.078125,0.296875 -0.359375,1.25 -0.9375,1.25 -0.078125,0 -0.21875,-0.015625 -0.21875,-0.28125 0,-0.25 0.140625,-0.59375 0.265625,-0.953125 l 0.640625,-1.703125 c 0.09375,-0.296875 0.109375,-0.375 0.109375,-0.5625 0,-0.546875 -0.375,-0.796875 -0.734375,-0.796875 -0.9375,0 -1.28125,1.484375 -1.28125,1.53125 0,0.109375 0.09375,0.109375 0.15625,0.109375 0.125,0 0.125,-0.03125 0.171875,-0.171875 0.09375,-0.328125 0.34375,-1.25 0.921875,-1.25 0.109375,0 0.21875,0.046875 0.21875,0.28125 0,0.234375 -0.109375,0.53125 -0.171875,0.71875 L 1.828125,-2.359375 C 1.6875,-2.03125 1.578125,-1.703125 1.453125,-1.375 1.3125,-1 1.28125,-0.890625 1.28125,-0.6875 c 0,0.390625 0.234375,0.796875 0.75,0.796875 0.9375,0 1.265625,-1.5 1.265625,-1.53125 z M 3.25,-6.203125 c 0,-0.25 -0.203125,-0.34375 -0.34375,-0.34375 -0.203125,0 -0.46875,0.203125 -0.46875,0.484375 0,0.25 0.1875,0.328125 0.328125,0.328125 0.203125,0 0.484375,-0.1875 0.484375,-0.46875 z m 0,0"
                 id="id-0c43e43b-b501-4721-8a05-ad1b8ebf8813" />
            </symbol>
            <symbol
               overflow="visible"
               id="id-f31cc755-c7fd-4cbe-b091-30ca0e49e749">
              <path
                 style="stroke:none"
                 d="M 2.59375,-3.984375 H 3.4375 c 0.171875,0 0.28125,0 0.28125,-0.1875 0,-0.125 -0.09375,-0.125 -0.25,-0.125 H 2.671875 l 0.375,-1.46875 c 0.03125,-0.140625 0.03125,-0.171875 0.03125,-0.21875 0,-0.203125 -0.171875,-0.25 -0.265625,-0.25 -0.25,0 -0.34375,0.203125 -0.390625,0.359375 L 2.03125,-4.296875 H 1.1875 c -0.171875,0 -0.28125,0 -0.28125,0.1875 0,0.125 0.09375,0.125 0.25,0.125 H 1.953125 L 1.234375,-1.125 C 1.21875,-1.09375 1.1875,-0.921875 1.1875,-0.78125 c 0,0.484375 0.328125,0.890625 0.84375,0.890625 1.015625,0 1.515625,-1.484375 1.515625,-1.53125 0,-0.109375 -0.078125,-0.109375 -0.140625,-0.109375 -0.125,0 -0.125,0.015625 -0.203125,0.203125 -0.1875,0.46875 -0.578125,1.21875 -1.15625,1.21875 -0.265625,0 -0.265625,-0.25 -0.265625,-0.40625 0,-0.078125 0,-0.234375 0.078125,-0.515625 z m 0,0"
                 id="id-6947e9ba-8c15-46e9-b3d9-d11bed8cb37e" />
            </symbol>
            <symbol
               overflow="visible"
               id="id-e4dcf553-0ddc-40e6-a25d-3dffe4b2e62f">
              <path
                 style="stroke:none"
                 d="m 2.375,-2.296875 c 0.3125,0 0.96875,-0.03125 1.453125,-0.21875 0.78125,-0.328125 0.78125,-0.96875 0.78125,-1.046875 0,-0.453125 -0.359375,-0.84375 -1,-0.84375 -1.046875,0 -2.46875,1 -2.46875,2.765625 0,0.90625 0.46875,1.75 1.421875,1.75 1.28125,0 2.109375,-1 2.109375,-1.140625 0,-0.0625 -0.09375,-0.171875 -0.171875,-0.171875 -0.03125,0 -0.046875,0.015625 -0.125,0.109375 -0.734375,0.9375 -1.625,0.984375 -1.796875,0.984375 -0.640625,0 -0.75,-0.703125 -0.75,-1.09375 0,-0.375 0.09375,-0.828125 0.171875,-1.09375 z m -0.328125,-0.21875 c 0.4375,-1.640625 1.46875,-1.671875 1.5625,-1.671875 0.390625,0 0.625,0.265625 0.625,0.609375 0,1.0625 -1.640625,1.0625 -1.96875,1.0625 z m 0,0"
                 id="id-28f3e80e-3420-48dc-aac7-1d7330c863f2" />
            </symbol>
          </g>
        </defs>
        <g
           id="id-48dc6cef-a4e5-450a-950f-38bdb1595ecd"
           transform="translate(-149.806,-128.218)">
          <g
             style="fill:#000000;fill-opacity:1"
             id="id-5ea11643-eae9-430e-aec0-3a73670d4632">
            <g
               transform="translate(148.712,134.765)"
               id="g2179">
              <path
                 style="stroke:none"
                 d="m 5.078125,-2.765625 c 0,-0.953125 -0.59375,-1.640625 -1.453125,-1.640625 -1.25,0 -2.53125,1.421875 -2.53125,2.875 0,1.015625 0.625,1.640625 1.453125,1.640625 1.234375,0 2.53125,-1.421875 2.53125,-2.875 z m -2.53125,2.65625 c -0.390625,0 -0.75,-0.3125 -0.75,-1.03125 0,-0.5 0.25,-1.59375 0.578125,-2.140625 0.359375,-0.609375 0.84375,-0.90625 1.234375,-0.90625 0.484375,0 0.765625,0.4375 0.765625,1.03125 0,0.421875 -0.21875,1.453125 -0.53125,2.046875 -0.296875,0.546875 -0.796875,1 -1.296875,1 z m 0,0"
                 id="id-5313aa50-c486-4630-ac36-2f914738f9c2" />
            </g>
            <g
               transform="translate(153.804,134.765)"
               id="g2182">
              <path
                 style="stroke:none"
                 d="M 0.890625,1.28125 C 0.8125,1.578125 0.734375,1.609375 0.34375,1.625 c -0.078125,0 -0.203125,0 -0.203125,0.1875 0,0.078125 0.046875,0.125 0.125,0.125 0.265625,0 0.546875,-0.03125 0.828125,-0.03125 0.328125,0 0.65625,0.03125 0.96875,0.03125 0.0625,0 0.1875,0 0.1875,-0.1875 C 2.25,1.625 2.15625,1.625 2.015625,1.625 1.5,1.625 1.5,1.5625 1.5,1.46875 1.5,1.40625 1.578125,1.140625 1.609375,0.984375 L 1.96875,-0.46875 c 0.078125,0.171875 0.328125,0.578125 0.84375,0.578125 1.078125,0 2.265625,-1.46875 2.265625,-2.953125 0,-1.078125 -0.59375,-1.5625 -1.1875,-1.5625 -0.484375,0 -0.921875,0.359375 -1.203125,0.703125 C 2.5625,-4.28125 2.109375,-4.40625 1.859375,-4.40625 1.5,-4.40625 1.3125,-4.171875 1.140625,-3.875 c -0.1875,0.390625 -0.3125,0.984375 -0.3125,1 0,0.109375 0.09375,0.109375 0.15625,0.109375 0.125,0 0.125,-0.015625 0.1875,-0.234375 0.171875,-0.703125 0.359375,-1.1875 0.671875,-1.1875 0.265625,0 0.265625,0.296875 0.265625,0.40625 0,0.046875 0,0.21875 -0.078125,0.484375 z M 2.625,-3.0625 c 0.078125,-0.34375 0.6875,-1.125 1.25,-1.125 0.4375,0 0.546875,0.5625 0.546875,0.890625 0,0.421875 -0.28125,1.609375 -0.5625,2.234375 -0.125,0.25 -0.546875,0.953125 -1.0625,0.953125 -0.578125,0 -0.671875,-0.84375 -0.671875,-0.921875 0,-0.03125 0.015625,-0.0625 0.03125,-0.140625 z m 0,0"
                 id="id-5f05e5ff-a9fd-4ad7-b5f9-a106bae9686d" />
            </g>
            <g
               transform="translate(158.896,134.765)"
               id="g2185">
              <path
                 style="stroke:none"
                 d="M 0.890625,1.28125 C 0.8125,1.578125 0.734375,1.609375 0.34375,1.625 c -0.078125,0 -0.203125,0 -0.203125,0.1875 0,0.078125 0.046875,0.125 0.125,0.125 0.265625,0 0.546875,-0.03125 0.828125,-0.03125 0.328125,0 0.65625,0.03125 0.96875,0.03125 0.0625,0 0.1875,0 0.1875,-0.1875 C 2.25,1.625 2.15625,1.625 2.015625,1.625 1.5,1.625 1.5,1.5625 1.5,1.46875 1.5,1.40625 1.578125,1.140625 1.609375,0.984375 L 1.96875,-0.46875 c 0.078125,0.171875 0.328125,0.578125 0.84375,0.578125 1.078125,0 2.265625,-1.46875 2.265625,-2.953125 0,-1.078125 -0.59375,-1.5625 -1.1875,-1.5625 -0.484375,0 -0.921875,0.359375 -1.203125,0.703125 C 2.5625,-4.28125 2.109375,-4.40625 1.859375,-4.40625 1.5,-4.40625 1.3125,-4.171875 1.140625,-3.875 c -0.1875,0.390625 -0.3125,0.984375 -0.3125,1 0,0.109375 0.09375,0.109375 0.15625,0.109375 0.125,0 0.125,-0.015625 0.1875,-0.234375 0.171875,-0.703125 0.359375,-1.1875 0.671875,-1.1875 0.265625,0 0.265625,0.296875 0.265625,0.40625 0,0.046875 0,0.21875 -0.078125,0.484375 z M 2.625,-3.0625 c 0.078125,-0.34375 0.6875,-1.125 1.25,-1.125 0.4375,0 0.546875,0.5625 0.546875,0.890625 0,0.421875 -0.28125,1.609375 -0.5625,2.234375 -0.125,0.25 -0.546875,0.953125 -1.0625,0.953125 -0.578125,0 -0.671875,-0.84375 -0.671875,-0.921875 0,-0.03125 0.015625,-0.0625 0.03125,-0.140625 z m 0,0"
                 id="id-3c7b432f-4255-4c66-9775-9f0155cad74b" />
            </g>
          </g>
          <g
             style="fill:#000000;fill-opacity:1"
             id="id-99c8c3f5-14b6-4260-8983-e5d683219ae4">
            <g
               transform="translate(163.48,134.765)"
               id="g2189">
              <path
                 style="stroke:none"
                 d="m 5.078125,-2.765625 c 0,-0.953125 -0.59375,-1.640625 -1.453125,-1.640625 -1.25,0 -2.53125,1.421875 -2.53125,2.875 0,1.015625 0.625,1.640625 1.453125,1.640625 1.234375,0 2.53125,-1.421875 2.53125,-2.875 z m -2.53125,2.65625 c -0.390625,0 -0.75,-0.3125 -0.75,-1.03125 0,-0.5 0.25,-1.59375 0.578125,-2.140625 0.359375,-0.609375 0.84375,-0.90625 1.234375,-0.90625 0.484375,0 0.765625,0.4375 0.765625,1.03125 0,0.421875 -0.21875,1.453125 -0.53125,2.046875 -0.296875,0.546875 -0.796875,1 -1.296875,1 z m 0,0"
                 id="id-b9efa3a5-37d9-4e68-8c2b-2e28b04ab8e2" />
            </g>
            <g
               transform="translate(168.571,134.765)"
               id="g2192">
              <path
                 style="stroke:none"
                 d="m 2.46875,-1.96875 c 0.4375,0.109375 0.875,0.203125 0.875,0.75 0,0.3125 -0.265625,1.109375 -1.296875,1.109375 -0.21875,0 -0.796875,-0.046875 -0.953125,-0.5625 0.515625,-0.046875 0.515625,-0.46875 0.515625,-0.484375 0,-0.1875 -0.140625,-0.3125 -0.34375,-0.3125 -0.234375,0 -0.515625,0.15625 -0.515625,0.609375 0,0.609375 0.578125,0.96875 1.296875,0.96875 1.484375,0 1.875,-1.21875 1.875,-1.671875 0,-0.875 -0.78125,-1.046875 -1.1875,-1.140625 -0.28125,-0.0625 -0.640625,-0.140625 -0.640625,-0.5625 0,-0.25 0.203125,-0.921875 1,-0.921875 0.28125,0 0.640625,0.09375 0.75,0.484375 -0.3125,0.046875 -0.390625,0.3125 -0.390625,0.40625 0,0.109375 0.0625,0.28125 0.296875,0.28125 0.171875,0 0.421875,-0.109375 0.421875,-0.546875 0,-0.453125 -0.40625,-0.84375 -1.0625,-0.84375 -1.171875,0 -1.578125,0.953125 -1.578125,1.46875 0,0.78125 0.65625,0.90625 0.9375,0.96875 z m 0,0"
                 id="id-e8ce7d01-ee60-4f7b-9156-fc8718ba2dd0" />
            </g>
            <g
               transform="translate(172.645,134.765)"
               id="g2195">
              <path
                 style="stroke:none"
                 d="m 3.296875,-1.421875 c 0,-0.109375 -0.078125,-0.109375 -0.140625,-0.109375 -0.140625,0 -0.140625,0.03125 -0.171875,0.171875 -0.078125,0.296875 -0.359375,1.25 -0.9375,1.25 -0.078125,0 -0.21875,-0.015625 -0.21875,-0.28125 0,-0.25 0.140625,-0.59375 0.265625,-0.953125 l 0.640625,-1.703125 c 0.09375,-0.296875 0.109375,-0.375 0.109375,-0.5625 0,-0.546875 -0.375,-0.796875 -0.734375,-0.796875 -0.9375,0 -1.28125,1.484375 -1.28125,1.53125 0,0.109375 0.09375,0.109375 0.15625,0.109375 0.125,0 0.125,-0.03125 0.171875,-0.171875 0.09375,-0.328125 0.34375,-1.25 0.921875,-1.25 0.109375,0 0.21875,0.046875 0.21875,0.28125 0,0.234375 -0.109375,0.53125 -0.171875,0.71875 L 1.828125,-2.359375 C 1.6875,-2.03125 1.578125,-1.703125 1.453125,-1.375 1.3125,-1 1.28125,-0.890625 1.28125,-0.6875 c 0,0.390625 0.234375,0.796875 0.75,0.796875 0.9375,0 1.265625,-1.5 1.265625,-1.53125 z M 3.25,-6.203125 c 0,-0.25 -0.203125,-0.34375 -0.34375,-0.34375 -0.203125,0 -0.46875,0.203125 -0.46875,0.484375 0,0.25 0.1875,0.328125 0.328125,0.328125 0.203125,0 0.484375,-0.1875 0.484375,-0.46875 z m 0,0"
                 id="id-1b3b8afb-b698-49b6-8834-3126678516ab" />
            </g>
            <g
               transform="translate(175.701,134.765)"
               id="g2198">
              <path
                 style="stroke:none"
                 d="M 2.59375,-3.984375 H 3.4375 c 0.171875,0 0.28125,0 0.28125,-0.1875 0,-0.125 -0.09375,-0.125 -0.25,-0.125 H 2.671875 l 0.375,-1.46875 c 0.03125,-0.140625 0.03125,-0.171875 0.03125,-0.21875 0,-0.203125 -0.171875,-0.25 -0.265625,-0.25 -0.25,0 -0.34375,0.203125 -0.390625,0.359375 L 2.03125,-4.296875 H 1.1875 c -0.171875,0 -0.28125,0 -0.28125,0.1875 0,0.125 0.09375,0.125 0.25,0.125 H 1.953125 L 1.234375,-1.125 C 1.21875,-1.09375 1.1875,-0.921875 1.1875,-0.78125 c 0,0.484375 0.328125,0.890625 0.84375,0.890625 1.015625,0 1.515625,-1.484375 1.515625,-1.53125 0,-0.109375 -0.078125,-0.109375 -0.140625,-0.109375 -0.125,0 -0.125,0.015625 -0.203125,0.203125 -0.1875,0.46875 -0.578125,1.21875 -1.15625,1.21875 -0.265625,0 -0.265625,-0.25 -0.265625,-0.40625 0,-0.078125 0,-0.234375 0.078125,-0.515625 z m 0,0"
                 id="id-a3bb0deb-984c-4943-8f81-3c0ea8a2d06f" />
            </g>
            <g
               transform="translate(179.01,134.765)"
               id="g2201">
              <path
                 style="stroke:none"
                 d="m 2.375,-2.296875 c 0.3125,0 0.96875,-0.03125 1.453125,-0.21875 0.78125,-0.328125 0.78125,-0.96875 0.78125,-1.046875 0,-0.453125 -0.359375,-0.84375 -1,-0.84375 -1.046875,0 -2.46875,1 -2.46875,2.765625 0,0.90625 0.46875,1.75 1.421875,1.75 1.28125,0 2.109375,-1 2.109375,-1.140625 0,-0.0625 -0.09375,-0.171875 -0.171875,-0.171875 -0.03125,0 -0.046875,0.015625 -0.125,0.109375 -0.734375,0.9375 -1.625,0.984375 -1.796875,0.984375 -0.640625,0 -0.75,-0.703125 -0.75,-1.09375 0,-0.375 0.09375,-0.828125 0.171875,-1.09375 z m -0.328125,-0.21875 c 0.4375,-1.640625 1.46875,-1.671875 1.5625,-1.671875 0.390625,0 0.625,0.265625 0.625,0.609375 0,1.0625 -1.640625,1.0625 -1.96875,1.0625 z m 0,0"
                 id="id-391ee694-91db-42fa-9234-49e32f453a62" />
            </g>
          </g>
        </g>
      </g>
      <g
         transform="matrix(0.20839049,0,0,0.20839049,59.798432,93.638942)"
         ns5:version="1.3.1"
         ns5:texconverter="pdflatex"
         ns5:pdfconverter="inkscape"
         ns5:text="$\\textit{hypotenuse}$\n"
         ns5:preamble="/Users/ketiboldiais/Library/Application Support/org.inkscape.Inkscape/config/inkscape/extensions/circuitSymbols/circuitSymbolsPreamble.tex"
         ns5:scale="1.0"
         ns5:alignment="middle center"
         ns5:inkscapeversion="1.1"
         ns5:jacobian_sqrt="0.352778"
         id="g2508">
        <defs
           id="id-39d45a23-ae04-474f-b2a8-38ed5c9da74f">
          <g
             id="id-95b68352-02cc-4d3c-8cce-1e51e8c9b064">
            <symbol
               overflow="visible"
               id="id-c41e7d98-b477-4af6-8965-d4797340eb99">
              <path
                 style="stroke:none;stroke-width:0"
                 d=""
                 id="id-6a9d6091-6ab4-47c1-8cf1-eb5694e12b59" />
            </symbol>
            <symbol
               overflow="visible"
               id="id-35a1e3c1-5bae-4f68-82c7-8660d4ecef3e">
              <path
                 style="stroke:none;stroke-width:0"
                 d="m 3.015625,-6.671875 c 0.015625,-0.03125 0.03125,-0.109375 0.03125,-0.125 0,-0.09375 -0.0625,-0.125 -0.140625,-0.125 -0.03125,0 -0.125,0.015625 -0.15625,0.03125 L 1.765625,-6.8125 c -0.125,0 -0.234375,0.015625 -0.234375,0.203125 0,0.109375 0.109375,0.109375 0.25,0.109375 0.46875,0 0.484375,0.0625 0.484375,0.171875 0,0.03125 -0.015625,0.15625 -0.015625,0.171875 l -1.484375,5.875 C 0.75,-0.265625 0.75,-0.171875 0.75,-0.15625 c 0,0.109375 0.09375,0.265625 0.28125,0.265625 0.203125,0 0.328125,-0.171875 0.359375,-0.28125 0.046875,-0.140625 0.359375,-1.4375 0.4375,-1.71875 0.046875,-0.21875 0.109375,-0.4375 0.15625,-0.65625 0.09375,-0.359375 0.09375,-0.375 0.28125,-0.6875 C 2.46875,-3.5625 2.890625,-4.1875 3.59375,-4.1875 c 0.4375,0 0.453125,0.453125 0.453125,0.65625 0,0.625 -0.4375,1.8125 -0.578125,2.203125 -0.125,0.34375 -0.15625,0.4375 -0.15625,0.640625 0,0.4375 0.28125,0.796875 0.75,0.796875 0.9375,0 1.265625,-1.484375 1.265625,-1.53125 0,-0.109375 -0.078125,-0.109375 -0.140625,-0.109375 -0.140625,0 -0.140625,0.03125 -0.171875,0.171875 -0.078125,0.265625 -0.34375,1.25 -0.921875,1.25 -0.21875,0 -0.21875,-0.15625 -0.21875,-0.296875 0,-0.234375 0.09375,-0.5 0.171875,-0.734375 C 4.25,-1.671875 4.65625,-2.796875 4.65625,-3.375 c 0,-0.8125 -0.546875,-1.03125 -1.03125,-1.03125 -0.671875,0 -1.015625,0.34375 -1.328125,0.640625 z m 0,0"
                 id="id-03ad7d27-7219-4672-b560-43e7e7006955" />
            </symbol>
            <symbol
               overflow="visible"
               id="id-39e1b7b8-3168-4b17-82d3-200e1f8730d3">
              <path
                 style="stroke:none;stroke-width:0"
                 d="m 3.5625,-0.265625 c -0.375,1.65625 -1.125,2.09375 -1.625,2.09375 -0.46875,0 -0.609375,-0.375 -0.609375,-0.4375 0,0 0,-0.015625 0.078125,-0.03125 C 1.71875,1.3125 1.828125,1.046875 1.828125,0.890625 1.828125,0.671875 1.671875,0.5625 1.5,0.5625 c -0.125,0 -0.515625,0.0625 -0.515625,0.625 0,0.515625 0.40625,0.859375 0.953125,0.859375 1.046875,0 1.953125,-1.03125 2.203125,-2.015625 l 0.96875,-3.921875 C 5.125,-3.953125 5.140625,-4 5.140625,-4.03125 5.140625,-4.140625 5.0625,-4.296875 4.859375,-4.296875 4.5625,-4.296875 4.5,-4 4.46875,-3.921875 L 3.75,-1 c -0.078125,0.296875 -0.46875,0.890625 -1.0625,0.890625 -0.4375,0 -0.53125,-0.4375 -0.53125,-0.765625 0,-0.609375 0.328125,-1.5 0.578125,-2.1875 0.078125,-0.203125 0.125,-0.34375 0.125,-0.53125 0,-0.5 -0.328125,-0.8125 -0.75,-0.8125 -0.9375,0 -1.28125,1.46875 -1.28125,1.53125 0,0.109375 0.09375,0.109375 0.15625,0.109375 0.125,0 0.125,-0.03125 0.171875,-0.171875 0.078125,-0.296875 0.34375,-1.25 0.921875,-1.25 0.109375,0 0.21875,0.03125 0.21875,0.296875 0,0.234375 -0.09375,0.5 -0.234375,0.890625 -0.265625,0.703125 -0.515625,1.4375 -0.515625,1.953125 0,0.875 0.578125,1.15625 1.109375,1.15625 0.46875,0 0.765625,-0.234375 0.90625,-0.375 z m 0,0"
                 id="id-0eaadf40-7334-4d2f-a1bb-586523644729" />
            </symbol>
            <symbol
               overflow="visible"
               id="id-b14e2c72-e7ea-4842-a0d9-a6eb09758e21">
              <path
                 style="stroke:none;stroke-width:0"
                 d="M 0.890625,1.28125 C 0.8125,1.578125 0.734375,1.609375 0.34375,1.625 c -0.078125,0 -0.203125,0 -0.203125,0.1875 0,0.078125 0.046875,0.125 0.125,0.125 0.265625,0 0.546875,-0.03125 0.828125,-0.03125 0.328125,0 0.65625,0.03125 0.96875,0.03125 0.0625,0 0.1875,0 0.1875,-0.1875 C 2.25,1.625 2.15625,1.625 2.015625,1.625 1.5,1.625 1.5,1.5625 1.5,1.46875 1.5,1.40625 1.578125,1.140625 1.609375,0.984375 L 1.96875,-0.46875 c 0.078125,0.171875 0.328125,0.578125 0.84375,0.578125 1.078125,0 2.265625,-1.46875 2.265625,-2.953125 0,-1.078125 -0.59375,-1.5625 -1.1875,-1.5625 -0.484375,0 -0.921875,0.359375 -1.203125,0.703125 C 2.5625,-4.28125 2.109375,-4.40625 1.859375,-4.40625 1.5,-4.40625 1.3125,-4.171875 1.140625,-3.875 c -0.1875,0.390625 -0.3125,0.984375 -0.3125,1 0,0.109375 0.09375,0.109375 0.15625,0.109375 0.125,0 0.125,-0.015625 0.1875,-0.234375 0.171875,-0.703125 0.359375,-1.1875 0.671875,-1.1875 0.265625,0 0.265625,0.296875 0.265625,0.40625 0,0.046875 0,0.21875 -0.078125,0.484375 z M 2.625,-3.0625 c 0.078125,-0.34375 0.6875,-1.125 1.25,-1.125 0.4375,0 0.546875,0.5625 0.546875,0.890625 0,0.421875 -0.28125,1.609375 -0.5625,2.234375 -0.125,0.25 -0.546875,0.953125 -1.0625,0.953125 -0.578125,0 -0.671875,-0.84375 -0.671875,-0.921875 0,-0.03125 0.015625,-0.0625 0.03125,-0.140625 z m 0,0"
                 id="id-2a25fef3-d192-4625-adc9-3490b93f6d8d" />
            </symbol>
            <symbol
               overflow="visible"
               id="id-e7ee17d3-8bba-471a-98d4-03c0b54e3dc6">
              <path
                 style="stroke:none;stroke-width:0"
                 d="m 5.078125,-2.765625 c 0,-0.953125 -0.59375,-1.640625 -1.453125,-1.640625 -1.25,0 -2.53125,1.421875 -2.53125,2.875 0,1.015625 0.625,1.640625 1.453125,1.640625 1.234375,0 2.53125,-1.421875 2.53125,-2.875 z m -2.53125,2.65625 c -0.390625,0 -0.75,-0.3125 -0.75,-1.03125 0,-0.5 0.25,-1.59375 0.578125,-2.140625 0.359375,-0.609375 0.84375,-0.90625 1.234375,-0.90625 0.484375,0 0.765625,0.4375 0.765625,1.03125 0,0.421875 -0.21875,1.453125 -0.53125,2.046875 -0.296875,0.546875 -0.796875,1 -1.296875,1 z m 0,0"
                 id="id-a05978b3-67fa-47f9-afae-0320d3433900" />
            </symbol>
            <symbol
               overflow="visible"
               id="id-3bf1beb6-2efe-4948-b8e6-2d6835bbed71">
              <path
                 style="stroke:none;stroke-width:0"
                 d="M 2.59375,-3.984375 H 3.4375 c 0.171875,0 0.28125,0 0.28125,-0.1875 0,-0.125 -0.09375,-0.125 -0.25,-0.125 H 2.671875 l 0.375,-1.46875 c 0.03125,-0.140625 0.03125,-0.171875 0.03125,-0.21875 0,-0.203125 -0.171875,-0.25 -0.265625,-0.25 -0.25,0 -0.34375,0.203125 -0.390625,0.359375 L 2.03125,-4.296875 H 1.1875 c -0.171875,0 -0.28125,0 -0.28125,0.1875 0,0.125 0.09375,0.125 0.25,0.125 H 1.953125 L 1.234375,-1.125 C 1.21875,-1.09375 1.1875,-0.921875 1.1875,-0.78125 c 0,0.484375 0.328125,0.890625 0.84375,0.890625 1.015625,0 1.515625,-1.484375 1.515625,-1.53125 0,-0.109375 -0.078125,-0.109375 -0.140625,-0.109375 -0.125,0 -0.125,0.015625 -0.203125,0.203125 -0.1875,0.46875 -0.578125,1.21875 -1.15625,1.21875 -0.265625,0 -0.265625,-0.25 -0.265625,-0.40625 0,-0.078125 0,-0.234375 0.078125,-0.515625 z m 0,0"
                 id="id-8cef3e21-7a55-4e45-9276-626b6b4b325e" />
            </symbol>
            <symbol
               overflow="visible"
               id="id-c5e046b5-5296-4d34-a4e6-57cbe94fd4da">
              <path
                 style="stroke:none;stroke-width:0"
                 d="m 2.375,-2.296875 c 0.3125,0 0.96875,-0.03125 1.453125,-0.21875 0.78125,-0.328125 0.78125,-0.96875 0.78125,-1.046875 0,-0.453125 -0.359375,-0.84375 -1,-0.84375 -1.046875,0 -2.46875,1 -2.46875,2.765625 0,0.90625 0.46875,1.75 1.421875,1.75 1.28125,0 2.109375,-1 2.109375,-1.140625 0,-0.0625 -0.09375,-0.171875 -0.171875,-0.171875 -0.03125,0 -0.046875,0.015625 -0.125,0.109375 -0.734375,0.9375 -1.625,0.984375 -1.796875,0.984375 -0.640625,0 -0.75,-0.703125 -0.75,-1.09375 0,-0.375 0.09375,-0.828125 0.171875,-1.09375 z m -0.328125,-0.21875 c 0.4375,-1.640625 1.46875,-1.671875 1.5625,-1.671875 0.390625,0 0.625,0.265625 0.625,0.609375 0,1.0625 -1.640625,1.0625 -1.96875,1.0625 z m 0,0"
                 id="id-1c7a5741-0aac-4df9-84df-7757bc6504bd" />
            </symbol>
            <symbol
               overflow="visible"
               id="id-3c94f0d9-5c67-4a8f-b990-276a015583df">
              <path
                 style="stroke:none;stroke-width:0"
                 d="M 2.296875,-1.75 C 2.34375,-1.96875 2.40625,-2.171875 2.453125,-2.390625 2.578125,-2.90625 2.578125,-2.90625 2.75,-3.203125 2.890625,-3.4375 3.34375,-4.1875 4.09375,-4.1875 c 0.4375,0 0.46875,0.453125 0.46875,0.65625 0,0.625 -0.453125,1.8125 -0.578125,2.203125 -0.140625,0.34375 -0.171875,0.4375 -0.171875,0.640625 0,0.4375 0.28125,0.796875 0.765625,0.796875 0.921875,0 1.265625,-1.484375 1.265625,-1.53125 0,-0.109375 -0.078125,-0.109375 -0.15625,-0.109375 -0.125,0 -0.125,0.03125 -0.171875,0.171875 -0.078125,0.265625 -0.34375,1.25 -0.921875,1.25 -0.203125,0 -0.21875,-0.15625 -0.21875,-0.296875 0,-0.234375 0.09375,-0.5 0.1875,-0.734375 0.1875,-0.53125 0.59375,-1.65625 0.59375,-2.234375 0,-0.8125 -0.546875,-1.03125 -1.03125,-1.03125 -0.8125,0 -1.296875,0.59375 -1.421875,0.78125 C 2.625,-4.109375 2.296875,-4.40625 1.859375,-4.40625 1.5,-4.40625 1.3125,-4.171875 1.140625,-3.875 c -0.1875,0.390625 -0.3125,0.984375 -0.3125,1 0,0.109375 0.09375,0.109375 0.15625,0.109375 0.125,0 0.125,-0.015625 0.1875,-0.234375 0.171875,-0.703125 0.359375,-1.1875 0.671875,-1.1875 0.265625,0 0.265625,0.296875 0.265625,0.40625 0,0.15625 -0.03125,0.34375 -0.078125,0.5 l -0.75,2.984375 c -0.015625,0.0625 -0.03125,0.125 -0.03125,0.140625 0,0.109375 0.078125,0.265625 0.28125,0.265625 0.125,0 0.296875,-0.0625 0.359375,-0.265625 z m 0,0"
                 id="id-6b1d572b-ce8f-4afb-9871-3bbb45448f10" />
            </symbol>
            <symbol
               overflow="visible"
               id="id-2228f685-a2a4-4ffb-b75b-2f1000da4519">
              <path
                 style="stroke:none;stroke-width:0"
                 d="M 5.109375,-3.890625 C 5.140625,-3.953125 5.140625,-4 5.140625,-4.03125 5.140625,-4.140625 5.0625,-4.296875 4.859375,-4.296875 4.5625,-4.296875 4.5,-4 4.46875,-3.921875 L 3.75,-1.015625 C 3.703125,-0.84375 3.703125,-0.8125 3.609375,-0.6875 3.421875,-0.40625 3.125,-0.109375 2.6875,-0.109375 c -0.4375,0 -0.53125,-0.4375 -0.53125,-0.765625 0,-0.609375 0.328125,-1.5 0.578125,-2.1875 0.078125,-0.203125 0.125,-0.34375 0.125,-0.53125 0,-0.5 -0.328125,-0.8125 -0.75,-0.8125 -0.9375,0 -1.28125,1.46875 -1.28125,1.53125 0,0.109375 0.09375,0.109375 0.15625,0.109375 0.125,0 0.125,-0.03125 0.171875,-0.171875 0.078125,-0.296875 0.34375,-1.25 0.921875,-1.25 0.109375,0 0.21875,0.03125 0.21875,0.296875 0,0.234375 -0.09375,0.5 -0.234375,0.890625 -0.265625,0.703125 -0.515625,1.4375 -0.515625,1.953125 0,0.875 0.578125,1.15625 1.109375,1.15625 0.53125,0 0.875,-0.296875 1.109375,-0.59375 0.1875,0.53125 0.609375,0.59375 0.796875,0.59375 0.375,0 0.578125,-0.25 0.734375,-0.5625 0.171875,-0.375 0.296875,-0.953125 0.296875,-0.96875 0,-0.109375 -0.078125,-0.109375 -0.15625,-0.109375 -0.109375,0 -0.125,0.015625 -0.1875,0.234375 -0.140625,0.5625 -0.328125,1.1875 -0.671875,1.1875 -0.25,0 -0.25,-0.265625 -0.25,-0.40625 0,-0.078125 0,-0.234375 0.0625,-0.515625 z m 0,0"
                 id="id-b66507b6-e384-4dcf-9f7c-0763a395affb" />
            </symbol>
            <symbol
               overflow="visible"
               id="id-45312f7c-28a2-43de-95b6-c9dc9f99c762">
              <path
                 style="stroke:none;stroke-width:0"
                 d="m 2.46875,-1.96875 c 0.4375,0.109375 0.875,0.203125 0.875,0.75 0,0.3125 -0.265625,1.109375 -1.296875,1.109375 -0.21875,0 -0.796875,-0.046875 -0.953125,-0.5625 0.515625,-0.046875 0.515625,-0.46875 0.515625,-0.484375 0,-0.1875 -0.140625,-0.3125 -0.34375,-0.3125 -0.234375,0 -0.515625,0.15625 -0.515625,0.609375 0,0.609375 0.578125,0.96875 1.296875,0.96875 1.484375,0 1.875,-1.21875 1.875,-1.671875 0,-0.875 -0.78125,-1.046875 -1.1875,-1.140625 -0.28125,-0.0625 -0.640625,-0.140625 -0.640625,-0.5625 0,-0.25 0.203125,-0.921875 1,-0.921875 0.28125,0 0.640625,0.09375 0.75,0.484375 -0.3125,0.046875 -0.390625,0.3125 -0.390625,0.40625 0,0.109375 0.0625,0.28125 0.296875,0.28125 0.171875,0 0.421875,-0.109375 0.421875,-0.546875 0,-0.453125 -0.40625,-0.84375 -1.0625,-0.84375 -1.171875,0 -1.578125,0.953125 -1.578125,1.46875 0,0.78125 0.65625,0.90625 0.9375,0.96875 z m 0,0"
                 id="id-ce70b8cb-0d44-432a-8cf1-fc709e15475e" />
            </symbol>
          </g>
        </defs>
        <g
           id="id-7c50c345-95ea-4de9-8fb4-8939b6cc47f9"
           transform="translate(-149.462,-127.843)">
          <g
             style="fill:#000000;fill-opacity:1"
             id="id-72683411-82c8-49dd-acb9-e1ac3cc3ca3c">
            <g
               transform="translate(148.712,134.765)"
               id="g2476">
              <path
                 style="stroke:none;stroke-width:0"
                 d="m 3.015625,-6.671875 c 0.015625,-0.03125 0.03125,-0.109375 0.03125,-0.125 0,-0.09375 -0.0625,-0.125 -0.140625,-0.125 -0.03125,0 -0.125,0.015625 -0.15625,0.03125 L 1.765625,-6.8125 c -0.125,0 -0.234375,0.015625 -0.234375,0.203125 0,0.109375 0.109375,0.109375 0.25,0.109375 0.46875,0 0.484375,0.0625 0.484375,0.171875 0,0.03125 -0.015625,0.15625 -0.015625,0.171875 l -1.484375,5.875 C 0.75,-0.265625 0.75,-0.171875 0.75,-0.15625 c 0,0.109375 0.09375,0.265625 0.28125,0.265625 0.203125,0 0.328125,-0.171875 0.359375,-0.28125 0.046875,-0.140625 0.359375,-1.4375 0.4375,-1.71875 0.046875,-0.21875 0.109375,-0.4375 0.15625,-0.65625 0.09375,-0.359375 0.09375,-0.375 0.28125,-0.6875 C 2.46875,-3.5625 2.890625,-4.1875 3.59375,-4.1875 c 0.4375,0 0.453125,0.453125 0.453125,0.65625 0,0.625 -0.4375,1.8125 -0.578125,2.203125 -0.125,0.34375 -0.15625,0.4375 -0.15625,0.640625 0,0.4375 0.28125,0.796875 0.75,0.796875 0.9375,0 1.265625,-1.484375 1.265625,-1.53125 0,-0.109375 -0.078125,-0.109375 -0.140625,-0.109375 -0.140625,0 -0.140625,0.03125 -0.171875,0.171875 -0.078125,0.265625 -0.34375,1.25 -0.921875,1.25 -0.21875,0 -0.21875,-0.15625 -0.21875,-0.296875 0,-0.234375 0.09375,-0.5 0.171875,-0.734375 C 4.25,-1.671875 4.65625,-2.796875 4.65625,-3.375 c 0,-0.8125 -0.546875,-1.03125 -1.03125,-1.03125 -0.671875,0 -1.015625,0.34375 -1.328125,0.640625 z m 0,0"
                 id="id-bf7c7fa7-1b7e-4bf5-991a-8f8e6c85300e" />
            </g>
            <g
               transform="translate(153.804,134.765)"
               id="g2479">
              <path
                 style="stroke:none;stroke-width:0"
                 d="m 3.5625,-0.265625 c -0.375,1.65625 -1.125,2.09375 -1.625,2.09375 -0.46875,0 -0.609375,-0.375 -0.609375,-0.4375 0,0 0,-0.015625 0.078125,-0.03125 C 1.71875,1.3125 1.828125,1.046875 1.828125,0.890625 1.828125,0.671875 1.671875,0.5625 1.5,0.5625 c -0.125,0 -0.515625,0.0625 -0.515625,0.625 0,0.515625 0.40625,0.859375 0.953125,0.859375 1.046875,0 1.953125,-1.03125 2.203125,-2.015625 l 0.96875,-3.921875 C 5.125,-3.953125 5.140625,-4 5.140625,-4.03125 5.140625,-4.140625 5.0625,-4.296875 4.859375,-4.296875 4.5625,-4.296875 4.5,-4 4.46875,-3.921875 L 3.75,-1 c -0.078125,0.296875 -0.46875,0.890625 -1.0625,0.890625 -0.4375,0 -0.53125,-0.4375 -0.53125,-0.765625 0,-0.609375 0.328125,-1.5 0.578125,-2.1875 0.078125,-0.203125 0.125,-0.34375 0.125,-0.53125 0,-0.5 -0.328125,-0.8125 -0.75,-0.8125 -0.9375,0 -1.28125,1.46875 -1.28125,1.53125 0,0.109375 0.09375,0.109375 0.15625,0.109375 0.125,0 0.125,-0.03125 0.171875,-0.171875 0.078125,-0.296875 0.34375,-1.25 0.921875,-1.25 0.109375,0 0.21875,0.03125 0.21875,0.296875 0,0.234375 -0.09375,0.5 -0.234375,0.890625 -0.265625,0.703125 -0.515625,1.4375 -0.515625,1.953125 0,0.875 0.578125,1.15625 1.109375,1.15625 0.46875,0 0.765625,-0.234375 0.90625,-0.375 z m 0,0"
                 id="id-98962b5c-b0b1-4462-9002-5facf2f2b518" />
            </g>
            <g
               transform="translate(158.642,134.765)"
               id="g2482">
              <path
                 style="stroke:none;stroke-width:0"
                 d="M 0.890625,1.28125 C 0.8125,1.578125 0.734375,1.609375 0.34375,1.625 c -0.078125,0 -0.203125,0 -0.203125,0.1875 0,0.078125 0.046875,0.125 0.125,0.125 0.265625,0 0.546875,-0.03125 0.828125,-0.03125 0.328125,0 0.65625,0.03125 0.96875,0.03125 0.0625,0 0.1875,0 0.1875,-0.1875 C 2.25,1.625 2.15625,1.625 2.015625,1.625 1.5,1.625 1.5,1.5625 1.5,1.46875 1.5,1.40625 1.578125,1.140625 1.609375,0.984375 L 1.96875,-0.46875 c 0.078125,0.171875 0.328125,0.578125 0.84375,0.578125 1.078125,0 2.265625,-1.46875 2.265625,-2.953125 0,-1.078125 -0.59375,-1.5625 -1.1875,-1.5625 -0.484375,0 -0.921875,0.359375 -1.203125,0.703125 C 2.5625,-4.28125 2.109375,-4.40625 1.859375,-4.40625 1.5,-4.40625 1.3125,-4.171875 1.140625,-3.875 c -0.1875,0.390625 -0.3125,0.984375 -0.3125,1 0,0.109375 0.09375,0.109375 0.15625,0.109375 0.125,0 0.125,-0.015625 0.1875,-0.234375 0.171875,-0.703125 0.359375,-1.1875 0.671875,-1.1875 0.265625,0 0.265625,0.296875 0.265625,0.40625 0,0.046875 0,0.21875 -0.078125,0.484375 z M 2.625,-3.0625 c 0.078125,-0.34375 0.6875,-1.125 1.25,-1.125 0.4375,0 0.546875,0.5625 0.546875,0.890625 0,0.421875 -0.28125,1.609375 -0.5625,2.234375 -0.125,0.25 -0.546875,0.953125 -1.0625,0.953125 -0.578125,0 -0.671875,-0.84375 -0.671875,-0.921875 0,-0.03125 0.015625,-0.0625 0.03125,-0.140625 z m 0,0"
                 id="id-d6be0590-9f8d-46d3-8168-665cab12f943" />
            </g>
          </g>
          <g
             style="fill:#000000;fill-opacity:1"
             id="id-7826d069-cacf-475c-a5db-90c254502baa">
            <g
               transform="translate(163.226,134.765)"
               id="g2486">
              <path
                 style="stroke:none;stroke-width:0"
                 d="m 5.078125,-2.765625 c 0,-0.953125 -0.59375,-1.640625 -1.453125,-1.640625 -1.25,0 -2.53125,1.421875 -2.53125,2.875 0,1.015625 0.625,1.640625 1.453125,1.640625 1.234375,0 2.53125,-1.421875 2.53125,-2.875 z m -2.53125,2.65625 c -0.390625,0 -0.75,-0.3125 -0.75,-1.03125 0,-0.5 0.25,-1.59375 0.578125,-2.140625 0.359375,-0.609375 0.84375,-0.90625 1.234375,-0.90625 0.484375,0 0.765625,0.4375 0.765625,1.03125 0,0.421875 -0.21875,1.453125 -0.53125,2.046875 -0.296875,0.546875 -0.796875,1 -1.296875,1 z m 0,0"
                 id="id-56155956-f355-44df-97b6-acd456b89144" />
            </g>
            <g
               transform="translate(168.317,134.765)"
               id="g2489">
              <path
                 style="stroke:none;stroke-width:0"
                 d="M 2.59375,-3.984375 H 3.4375 c 0.171875,0 0.28125,0 0.28125,-0.1875 0,-0.125 -0.09375,-0.125 -0.25,-0.125 H 2.671875 l 0.375,-1.46875 c 0.03125,-0.140625 0.03125,-0.171875 0.03125,-0.21875 0,-0.203125 -0.171875,-0.25 -0.265625,-0.25 -0.25,0 -0.34375,0.203125 -0.390625,0.359375 L 2.03125,-4.296875 H 1.1875 c -0.171875,0 -0.28125,0 -0.28125,0.1875 0,0.125 0.09375,0.125 0.25,0.125 H 1.953125 L 1.234375,-1.125 C 1.21875,-1.09375 1.1875,-0.921875 1.1875,-0.78125 c 0,0.484375 0.328125,0.890625 0.84375,0.890625 1.015625,0 1.515625,-1.484375 1.515625,-1.53125 0,-0.109375 -0.078125,-0.109375 -0.140625,-0.109375 -0.125,0 -0.125,0.015625 -0.203125,0.203125 -0.1875,0.46875 -0.578125,1.21875 -1.15625,1.21875 -0.265625,0 -0.265625,-0.25 -0.265625,-0.40625 0,-0.078125 0,-0.234375 0.078125,-0.515625 z m 0,0"
                 id="id-80b50658-9f4f-4cbc-92b6-2312bae09b96" />
            </g>
            <g
               transform="translate(171.627,134.765)"
               id="g2492">
              <path
                 style="stroke:none;stroke-width:0"
                 d="m 2.375,-2.296875 c 0.3125,0 0.96875,-0.03125 1.453125,-0.21875 0.78125,-0.328125 0.78125,-0.96875 0.78125,-1.046875 0,-0.453125 -0.359375,-0.84375 -1,-0.84375 -1.046875,0 -2.46875,1 -2.46875,2.765625 0,0.90625 0.46875,1.75 1.421875,1.75 1.28125,0 2.109375,-1 2.109375,-1.140625 0,-0.0625 -0.09375,-0.171875 -0.171875,-0.171875 -0.03125,0 -0.046875,0.015625 -0.125,0.109375 -0.734375,0.9375 -1.625,0.984375 -1.796875,0.984375 -0.640625,0 -0.75,-0.703125 -0.75,-1.09375 0,-0.375 0.09375,-0.828125 0.171875,-1.09375 z m -0.328125,-0.21875 c 0.4375,-1.640625 1.46875,-1.671875 1.5625,-1.671875 0.390625,0 0.625,0.265625 0.625,0.609375 0,1.0625 -1.640625,1.0625 -1.96875,1.0625 z m 0,0"
                 id="id-f641eebc-5b53-413b-8881-81275540a192" />
            </g>
            <g
               transform="translate(176.21,134.765)"
               id="g2495">
              <path
                 style="stroke:none;stroke-width:0"
                 d="M 2.296875,-1.75 C 2.34375,-1.96875 2.40625,-2.171875 2.453125,-2.390625 2.578125,-2.90625 2.578125,-2.90625 2.75,-3.203125 2.890625,-3.4375 3.34375,-4.1875 4.09375,-4.1875 c 0.4375,0 0.46875,0.453125 0.46875,0.65625 0,0.625 -0.453125,1.8125 -0.578125,2.203125 -0.140625,0.34375 -0.171875,0.4375 -0.171875,0.640625 0,0.4375 0.28125,0.796875 0.765625,0.796875 0.921875,0 1.265625,-1.484375 1.265625,-1.53125 0,-0.109375 -0.078125,-0.109375 -0.15625,-0.109375 -0.125,0 -0.125,0.03125 -0.171875,0.171875 -0.078125,0.265625 -0.34375,1.25 -0.921875,1.25 -0.203125,0 -0.21875,-0.15625 -0.21875,-0.296875 0,-0.234375 0.09375,-0.5 0.1875,-0.734375 0.1875,-0.53125 0.59375,-1.65625 0.59375,-2.234375 0,-0.8125 -0.546875,-1.03125 -1.03125,-1.03125 -0.8125,0 -1.296875,0.59375 -1.421875,0.78125 C 2.625,-4.109375 2.296875,-4.40625 1.859375,-4.40625 1.5,-4.40625 1.3125,-4.171875 1.140625,-3.875 c -0.1875,0.390625 -0.3125,0.984375 -0.3125,1 0,0.109375 0.09375,0.109375 0.15625,0.109375 0.125,0 0.125,-0.015625 0.1875,-0.234375 0.171875,-0.703125 0.359375,-1.1875 0.671875,-1.1875 0.265625,0 0.265625,0.296875 0.265625,0.40625 0,0.15625 -0.03125,0.34375 -0.078125,0.5 l -0.75,2.984375 c -0.015625,0.0625 -0.03125,0.125 -0.03125,0.140625 0,0.109375 0.078125,0.265625 0.28125,0.265625 0.125,0 0.296875,-0.0625 0.359375,-0.265625 z m 0,0"
                 id="id-aea664f9-d8b5-4b74-be86-1e4024d4ed03" />
            </g>
            <g
               transform="translate(181.811,134.765)"
               id="g2498">
              <path
                 style="stroke:none;stroke-width:0"
                 d="M 5.109375,-3.890625 C 5.140625,-3.953125 5.140625,-4 5.140625,-4.03125 5.140625,-4.140625 5.0625,-4.296875 4.859375,-4.296875 4.5625,-4.296875 4.5,-4 4.46875,-3.921875 L 3.75,-1.015625 C 3.703125,-0.84375 3.703125,-0.8125 3.609375,-0.6875 3.421875,-0.40625 3.125,-0.109375 2.6875,-0.109375 c -0.4375,0 -0.53125,-0.4375 -0.53125,-0.765625 0,-0.609375 0.328125,-1.5 0.578125,-2.1875 0.078125,-0.203125 0.125,-0.34375 0.125,-0.53125 0,-0.5 -0.328125,-0.8125 -0.75,-0.8125 -0.9375,0 -1.28125,1.46875 -1.28125,1.53125 0,0.109375 0.09375,0.109375 0.15625,0.109375 0.125,0 0.125,-0.03125 0.171875,-0.171875 0.078125,-0.296875 0.34375,-1.25 0.921875,-1.25 0.109375,0 0.21875,0.03125 0.21875,0.296875 0,0.234375 -0.09375,0.5 -0.234375,0.890625 -0.265625,0.703125 -0.515625,1.4375 -0.515625,1.953125 0,0.875 0.578125,1.15625 1.109375,1.15625 0.53125,0 0.875,-0.296875 1.109375,-0.59375 0.1875,0.53125 0.609375,0.59375 0.796875,0.59375 0.375,0 0.578125,-0.25 0.734375,-0.5625 0.171875,-0.375 0.296875,-0.953125 0.296875,-0.96875 0,-0.109375 -0.078125,-0.109375 -0.15625,-0.109375 -0.109375,0 -0.125,0.015625 -0.1875,0.234375 -0.140625,0.5625 -0.328125,1.1875 -0.671875,1.1875 -0.25,0 -0.25,-0.265625 -0.25,-0.40625 0,-0.078125 0,-0.234375 0.0625,-0.515625 z m 0,0"
                 id="id-b45f254e-55ac-46a5-b86e-ab383c8b55bb" />
            </g>
            <g
               transform="translate(187.158,134.765)"
               id="g2501">
              <path
                 style="stroke:none;stroke-width:0"
                 d="m 2.46875,-1.96875 c 0.4375,0.109375 0.875,0.203125 0.875,0.75 0,0.3125 -0.265625,1.109375 -1.296875,1.109375 -0.21875,0 -0.796875,-0.046875 -0.953125,-0.5625 0.515625,-0.046875 0.515625,-0.46875 0.515625,-0.484375 0,-0.1875 -0.140625,-0.3125 -0.34375,-0.3125 -0.234375,0 -0.515625,0.15625 -0.515625,0.609375 0,0.609375 0.578125,0.96875 1.296875,0.96875 1.484375,0 1.875,-1.21875 1.875,-1.671875 0,-0.875 -0.78125,-1.046875 -1.1875,-1.140625 -0.28125,-0.0625 -0.640625,-0.140625 -0.640625,-0.5625 0,-0.25 0.203125,-0.921875 1,-0.921875 0.28125,0 0.640625,0.09375 0.75,0.484375 -0.3125,0.046875 -0.390625,0.3125 -0.390625,0.40625 0,0.109375 0.0625,0.28125 0.296875,0.28125 0.171875,0 0.421875,-0.109375 0.421875,-0.546875 0,-0.453125 -0.40625,-0.84375 -1.0625,-0.84375 -1.171875,0 -1.578125,0.953125 -1.578125,1.46875 0,0.78125 0.65625,0.90625 0.9375,0.96875 z m 0,0"
                 id="id-c62eb2f4-d57f-48c2-b055-740e1a4fc771" />
            </g>
            <g
               transform="translate(191.231,134.765)"
               id="g2504">
              <path
                 style="stroke:none;stroke-width:0"
                 d="m 2.375,-2.296875 c 0.3125,0 0.96875,-0.03125 1.453125,-0.21875 0.78125,-0.328125 0.78125,-0.96875 0.78125,-1.046875 0,-0.453125 -0.359375,-0.84375 -1,-0.84375 -1.046875,0 -2.46875,1 -2.46875,2.765625 0,0.90625 0.46875,1.75 1.421875,1.75 1.28125,0 2.109375,-1 2.109375,-1.140625 0,-0.0625 -0.09375,-0.171875 -0.171875,-0.171875 -0.03125,0 -0.046875,0.015625 -0.125,0.109375 -0.734375,0.9375 -1.625,0.984375 -1.796875,0.984375 -0.640625,0 -0.75,-0.703125 -0.75,-1.09375 0,-0.375 0.09375,-0.828125 0.171875,-1.09375 z m -0.328125,-0.21875 c 0.4375,-1.640625 1.46875,-1.671875 1.5625,-1.671875 0.390625,0 0.625,0.265625 0.625,0.609375 0,1.0625 -1.640625,1.0625 -1.96875,1.0625 z m 0,0"
                 id="id-ca34cb5d-8632-4c46-aecb-aefc85220d4d" />
            </g>
          </g>
        </g>
      </g>
    </g>
  </g>
</svg>
