<?xml version="1.0" encoding="UTF-8" standalone="no"?>
<!-- Created with Inkscape (http://www.inkscape.org/) -->

<svg
   width="34.35078mm"
   height="16.404167mm"
   viewBox="0 0 34.350781 16.404167"
   version="1.1"
   id="svg5"
   sodipodi:docname="16_bit_adder.svg"
   inkscape:version="1.1 (c4e8f9e, 2021-05-24)"
   xmlns:inkscape="http://www.inkscape.org/namespaces/inkscape"
   xmlns:sodipodi="http://sodipodi.sourceforge.net/DTD/sodipodi-0.dtd"
   xmlns="http://www.w3.org/2000/svg"
   xmlns:svg="http://www.w3.org/2000/svg">
  <sodipodi:namedview
     id="namedview914"
     pagecolor="#ffffff"
     bordercolor="#666666"
     borderopacity="1.0"
     inkscape:pageshadow="2"
     inkscape:pageopacity="0.0"
     inkscape:pagecheckerboard="0"
     inkscape:document-units="mm"
     showgrid="false"
     inkscape:zoom="3.5047389"
     inkscape:cx="62.34416"
     inkscape:cy="30.958084"
     inkscape:window-width="1440"
     inkscape:window-height="847"
     inkscape:window-x="2329"
     inkscape:window-y="148"
     inkscape:window-maximized="0"
     inkscape:current-layer="svg5">
    <inkscape:grid
       type="xygrid"
       id="grid1093"
       originx="-1.027512"
       originy="-4.7385694e-06" />
  </sodipodi:namedview>
  <defs
     id="defs2">
    <marker
       style="overflow:visible"
       id="TriangleOutL"
       refX="0"
       refY="0"
       orient="auto">
      <path
         transform="scale(0.8)"
         style="fill:context-stroke;fill-rule:evenodd;stroke:context-stroke;stroke-width:1pt"
         d="M 5.77,0 -2.88,5 V -5 Z"
         id="path1499" />
    </marker>
    <marker
       style="overflow:visible"
       id="TriangleOutM"
       refX="0"
       refY="0"
       orient="auto">
      <path
         transform="scale(0.4)"
         style="fill:context-stroke;fill-rule:evenodd;stroke:context-stroke;stroke-width:1pt"
         d="M 5.77,0 -2.88,5 V -5 Z"
         id="path1502" />
    </marker>
    <defs
       id="id-903af7a4-37cd-4145-ae81-88297ee0ae04">
      <g
         id="id-364b0697-73a5-4bf1-9a28-d11baa3e1a61">
        <symbol
           overflow="visible"
           id="id-b639dff2-0379-4692-851b-7b871449bb0a">
          <path
             style="stroke:none;stroke-width:0"
             d=""
             id="id-1fc046fc-2840-4a36-932c-b8f235868d75" />
        </symbol>
        <symbol
           overflow="visible"
           id="id-25a44c46-54f6-446e-a55f-7440ea444925">
          <path
             style="stroke:none;stroke-width:0"
             d="m 3.09375,-5.796875 c 0,-0.15625 0,-0.40625 -0.296875,-0.40625 -0.1875,0 -0.25,0.125 -0.296875,0.234375 C 2.125,-5.109375 1.609375,-5 1.421875,-4.984375 c -0.171875,0.015625 -0.375,0.03125 -0.375,0.3125 0,0.25 0.171875,0.296875 0.328125,0.296875 0.1875,0 0.59375,-0.0625 1.03125,-0.4375 v 4.203125 H 1.5 c -0.15625,0 -0.390625,0 -0.390625,0.3125 C 1.109375,0 1.359375,0 1.5,0 H 4 c 0.15625,0 0.40625,0 0.40625,-0.296875 0,-0.3125 -0.234375,-0.3125 -0.40625,-0.3125 H 3.09375 Z m 0,0"
             id="id-bb7b871f-634a-4c86-87b1-90563da23976" />
        </symbol>
        <symbol
           overflow="visible"
           id="id-bc7d25e8-56ac-4392-880b-f89a09be8ec8">
          <path
             style="stroke:none;stroke-width:0"
             d="M 1.234375,-3.375 C 1.375,-4.78125 2.3125,-5.59375 3.1875,-5.59375 c 0.34375,0 0.5,0.109375 0.546875,0.15625 -0.046875,0.046875 -0.09375,0.109375 -0.09375,0.296875 0,0.234375 0.171875,0.4375 0.4375,0.4375 0.25,0 0.453125,-0.171875 0.453125,-0.46875 0,-0.484375 -0.359375,-1.03125 -1.328125,-1.03125 -1.34375,0 -2.671875,1.203125 -2.671875,3.21875 0,2.359375 1.109375,3.09375 2.09375,3.09375 1.09375,0 2.0625,-0.84375 2.0625,-2.03125 0,-1.140625 -0.875,-2.03125 -1.96875,-2.03125 -0.515625,0 -1.03125,0.171875 -1.484375,0.578125 z M 2.625,-0.5 c -0.640625,0 -1.03125,-0.484375 -1.234375,-1.09375 -0.015625,-0.0625 -0.03125,-0.125 -0.046875,-0.1875 0,0 -0.015625,-0.03125 -0.015625,-0.03125 0,0 0.015625,-0.09375 0.015625,-0.09375 -0.015625,-0.0625 -0.03125,-0.234375 -0.03125,-0.3125 0,-0.609375 0.59375,-1.109375 1.359375,-1.109375 C 3.484375,-3.328125 4,-2.65625 4,-1.921875 4,-1.0625 3.34375,-0.5 2.625,-0.5 Z m 0,0"
             id="id-5ed2874d-eaae-4d41-8826-0dde7f2b439f" />
        </symbol>
        <symbol
           overflow="visible"
           id="id-a9b02bee-d22e-4980-b906-3ec7d9193ba4">
          <path
             style="stroke:none;stroke-width:0"
             d="m 4.203125,-2.703125 c 0.109375,0 0.46875,0 0.46875,-0.34375 0,-0.359375 -0.359375,-0.359375 -0.46875,-0.359375 H 1.03125 c -0.125,0 -0.46875,0 -0.46875,0.359375 0,0.34375 0.34375,0.34375 0.46875,0.34375 z m 0,0"
             id="id-eb9f91c8-9ec9-432a-a160-79fbf533fd9b" />
        </symbol>
        <symbol
           overflow="visible"
           id="id-298870fe-5371-4d12-b132-8bf0622ea469">
          <path
             style="stroke:none;stroke-width:0"
             d="m 1.65625,-3.875 v -1.8125 c 0,-0.296875 -0.0625,-0.40625 -0.40625,-0.40625 H 0.53125 c -0.15625,0 -0.40625,0 -0.40625,0.3125 0,0.296875 0.25,0.296875 0.390625,0.296875 H 0.96875 V -0.40625 C 0.96875,-0.203125 0.96875,0 1.3125,0 1.65625,0 1.65625,-0.203125 1.65625,-0.453125 2.0625,-0.03125 2.5,0.0625 2.8125,0.0625 c 1.078125,0 2.046875,-0.953125 2.046875,-2.21875 0,-1.21875 -0.875,-2.203125 -1.9375,-2.203125 C 2.4375,-4.359375 2,-4.171875 1.65625,-3.875 Z m 0,1.96875 V -2.625 c 0,-0.59375 0.578125,-1.125 1.203125,-1.125 0.734375,0 1.3125,0.734375 1.3125,1.59375 0,0.953125 -0.6875,1.609375 -1.390625,1.609375 -0.78125,0 -1.125,-0.875 -1.125,-1.359375 z m 0,0"
             id="id-c3199596-3375-479f-810f-38f2a95941da" />
        </symbol>
        <symbol
           overflow="visible"
           id="id-f0431bf9-140d-49de-9fd1-24710844a9fd">
          <path
             style="stroke:none;stroke-width:0"
             d="m 3.078125,-3.890625 c 0,-0.3125 -0.0625,-0.40625 -0.390625,-0.40625 H 1.265625 c -0.15625,0 -0.40625,0 -0.40625,0.296875 0,0.3125 0.25,0.3125 0.40625,0.3125 h 1.125 v 3.078125 H 1.1875 c -0.15625,0 -0.40625,0 -0.40625,0.3125 C 0.78125,0 1.03125,0 1.1875,0 H 4.125 c 0.15625,0 0.40625,0 0.40625,-0.296875 0,-0.3125 -0.25,-0.3125 -0.40625,-0.3125 H 3.078125 Z m 0,-1.71875 c 0,-0.265625 -0.21875,-0.484375 -0.5,-0.484375 -0.28125,0 -0.5,0.21875 -0.5,0.484375 0,0.28125 0.21875,0.5 0.5,0.5 0.28125,0 0.5,-0.21875 0.5,-0.5 z m 0,0"
             id="id-24eb3a98-2a18-4821-9d0d-7b05d709cf78" />
        </symbol>
        <symbol
           overflow="visible"
           id="id-d70c5e17-99d0-4531-889b-9c298bc9b40b">
          <path
             style="stroke:none;stroke-width:0"
             d="m 2.21875,-3.6875 h 1.625 c 0.15625,0 0.40625,0 0.40625,-0.296875 0,-0.3125 -0.25,-0.3125 -0.40625,-0.3125 h -1.625 v -0.8125 c 0,-0.1875 0,-0.40625 -0.34375,-0.40625 -0.34375,0 -0.34375,0.203125 -0.34375,0.40625 v 0.8125 h -0.875 c -0.15625,0 -0.40625,0 -0.40625,0.3125 0,0.296875 0.25,0.296875 0.390625,0.296875 H 1.53125 V -1.25 c 0,0.953125 0.671875,1.3125 1.40625,1.3125 0.734375,0 1.53125,-0.4375 1.53125,-1.3125 0,-0.1875 0,-0.390625 -0.34375,-0.390625 -0.328125,0 -0.34375,0.203125 -0.34375,0.375 0,0.625 -0.578125,0.71875 -0.796875,0.71875 -0.765625,0 -0.765625,-0.515625 -0.765625,-0.765625 z m 0,0"
             id="id-3e20e3ca-4737-462e-aa38-f7a08d317dc6" />
        </symbol>
        <symbol
           overflow="visible"
           id="id-b9eeb125-1072-4cf7-90ae-6207ac5dee88">
          <path
             style="stroke:none;stroke-width:0"
             d="M 3.65625,-0.3125 C 3.875,-0.015625 4.34375,0 4.71875,0 c 0.28125,0 0.5,0 0.5,-0.3125 0,-0.296875 -0.25,-0.296875 -0.390625,-0.296875 -0.421875,0 -0.515625,-0.046875 -0.59375,-0.078125 v -2.15625 c 0,-0.703125 -0.546875,-1.546875 -1.984375,-1.546875 -0.421875,0 -1.4375,0 -1.4375,0.734375 0,0.296875 0.203125,0.453125 0.4375,0.453125 0.15625,0 0.4375,-0.09375 0.4375,-0.453125 0,-0.078125 0.015625,-0.09375 0.21875,-0.109375 0.140625,-0.015625 0.265625,-0.015625 0.359375,-0.015625 0.75,0 1.265625,0.3125 1.265625,1.015625 -1.75,0.03125 -2.984375,0.53125 -2.984375,1.484375 0,0.6875 0.625,1.34375 1.640625,1.34375 0.375,0 1,-0.078125 1.46875,-0.375 z m -0.125,-1.859375 v 0.84375 c 0,0.21875 0,0.4375 -0.375,0.609375 -0.359375,0.171875 -0.8125,0.171875 -0.890625,0.171875 -0.625,0 -1.03125,-0.34375 -1.03125,-0.734375 0,-0.484375 0.859375,-0.859375 2.296875,-0.890625 z m 0,0"
             id="id-7cefc698-0d43-4560-ad35-af902056c004" />
        </symbol>
        <symbol
           overflow="visible"
           id="id-3a2afb31-d2a5-434c-aafa-813d24fea1a2">
          <path
             style="stroke:none;stroke-width:0"
             d="m 3.5625,-0.5 c 0,0.359375 0,0.5 0.40625,0.5 H 4.6875 c 0.171875,0 0.421875,0 0.421875,-0.3125 0,-0.296875 -0.265625,-0.296875 -0.40625,-0.296875 H 4.25 V -5.6875 c 0,-0.296875 -0.046875,-0.40625 -0.390625,-0.40625 H 3.125 c -0.15625,0 -0.40625,0 -0.40625,0.3125 0,0.296875 0.265625,0.296875 0.40625,0.296875 H 3.5625 V -3.90625 C 3.234375,-4.203125 2.828125,-4.359375 2.40625,-4.359375 c -1.09375,0 -2.046875,0.953125 -2.046875,2.21875 0,1.234375 0.890625,2.203125 1.953125,2.203125 0.5625,0 0.984375,-0.265625 1.25,-0.5625 z m 0,-2.140625 V -1.9375 c 0,0.5625 -0.4375,1.390625 -1.203125,1.390625 -0.71875,0 -1.3125,-0.703125 -1.3125,-1.59375 C 1.046875,-3.09375 1.75,-3.75 2.4375,-3.75 c 0.640625,0 1.125,0.5625 1.125,1.109375 z m 0,0"
             id="id-79b25ba2-53b1-4a9b-b509-1613c0043d69" />
        </symbol>
        <symbol
           overflow="visible"
           id="id-2ff00016-0e70-4c55-8c6d-7788e246b375">
          <path
             style="stroke:none;stroke-width:0"
             d="m 4.234375,-1.90625 c 0.203125,0 0.390625,0 0.390625,-0.359375 0,-1.140625 -0.640625,-2.125 -1.9375,-2.125 -1.1875,0 -2.140625,1 -2.140625,2.234375 0,1.203125 1.015625,2.21875 2.296875,2.21875 1.3125,0 1.78125,-0.90625 1.78125,-1.15625 0,-0.265625 -0.28125,-0.265625 -0.34375,-0.265625 -0.1875,0 -0.265625,0.03125 -0.328125,0.21875 -0.21875,0.5 -0.765625,0.59375 -1.046875,0.59375 -0.75,0 -1.484375,-0.5 -1.65625,-1.359375 z M 1.265625,-2.5 C 1.40625,-3.234375 2,-3.78125 2.6875,-3.78125 c 0.515625,0 1.140625,0.25 1.234375,1.28125 z m 0,0"
             id="id-06a614c3-3324-4ca2-ac61-6a0df954a588" />
        </symbol>
        <symbol
           overflow="visible"
           id="id-1135d547-b51b-4ff4-aedf-d04d32dea03e">
          <path
             style="stroke:none;stroke-width:0"
             d="M 2.21875,-1.859375 C 2.21875,-2.796875 2.796875,-3.75 4,-3.75 c 0.015625,0.234375 0.1875,0.4375 0.4375,0.4375 0.21875,0 0.421875,-0.15625 0.421875,-0.421875 0,-0.203125 -0.125,-0.625 -0.953125,-0.625 -0.5,0 -1.140625,0.1875 -1.6875,0.8125 v -0.34375 c 0,-0.3125 -0.0625,-0.40625 -0.40625,-0.40625 H 0.71875 c -0.15625,0 -0.40625,0 -0.40625,0.296875 0,0.3125 0.25,0.3125 0.40625,0.3125 h 0.8125 v 3.078125 h -0.8125 c -0.15625,0 -0.40625,0 -0.40625,0.296875 C 0.3125,0 0.5625,0 0.71875,0 H 3.3125 c 0.15625,0 0.421875,0 0.421875,-0.296875 0,-0.3125 -0.265625,-0.3125 -0.421875,-0.3125 H 2.21875 Z m 0,0"
             id="id-71d197f9-f874-4adf-8ea4-95d5445960ee" />
        </symbol>
      </g>
    </defs>
    <defs
       id="id-e77e5e75-5632-4712-b2ba-cbb696266365">
      <g
         id="id-2d9e585c-202a-4827-aaa1-7f6f07149737">
        <symbol
           overflow="visible"
           id="id-5f1295fe-ee63-4645-baff-937c60ac4b97">
          <path
             style="stroke:none;stroke-width:0"
             d=""
             id="id-3d071374-a924-4917-b1e0-e1afe51cc109" />
        </symbol>
        <symbol
           overflow="visible"
           id="id-95590d33-254b-4085-bdc9-fec04fe3be54">
          <path
             style="stroke:none;stroke-width:0"
             d="M 3.71875,-3.765625 C 3.53125,-4.140625 3.25,-4.40625 2.796875,-4.40625 c -1.15625,0 -2.390625,1.46875 -2.390625,2.921875 0,0.9375 0.546875,1.59375 1.3125,1.59375 0.203125,0 0.703125,-0.046875 1.296875,-0.75 0.078125,0.421875 0.4375,0.75 0.90625,0.75 0.359375,0 0.578125,-0.234375 0.75,-0.546875 0.15625,-0.359375 0.296875,-0.96875 0.296875,-0.984375 0,-0.109375 -0.09375,-0.109375 -0.125,-0.109375 -0.09375,0 -0.109375,0.046875 -0.140625,0.1875 -0.171875,0.640625 -0.34375,1.234375 -0.75,1.234375 -0.28125,0 -0.296875,-0.265625 -0.296875,-0.453125 0,-0.21875 0.015625,-0.3125 0.125,-0.75 C 3.890625,-1.71875 3.90625,-1.828125 4,-2.203125 L 4.359375,-3.59375 c 0.0625,-0.28125 0.0625,-0.296875 0.0625,-0.34375 0,-0.171875 -0.109375,-0.265625 -0.28125,-0.265625 -0.25,0 -0.390625,0.21875 -0.421875,0.4375 z M 3.078125,-1.1875 C 3.015625,-1 3.015625,-0.984375 2.875,-0.8125 2.4375,-0.265625 2.03125,-0.109375 1.75,-0.109375 c -0.5,0 -0.640625,-0.546875 -0.640625,-0.9375 0,-0.5 0.3125,-1.71875 0.546875,-2.1875 0.3125,-0.578125 0.75,-0.953125 1.15625,-0.953125 0.640625,0 0.78125,0.8125 0.78125,0.875 0,0.0625 -0.015625,0.125 -0.03125,0.171875 z m 0,0"
             id="id-1e92ae0e-8436-40ca-9fe9-4e1232580296" />
        </symbol>
        <symbol
           overflow="visible"
           id="id-0f658e53-da88-4b43-89a2-905da2f5c22f">
          <path
             style="stroke:none;stroke-width:0"
             d="m 2.375,-6.8125 c 0,0 0,-0.109375 -0.125,-0.109375 -0.21875,0 -0.953125,0.078125 -1.21875,0.109375 -0.078125,0 -0.1875,0.015625 -0.1875,0.1875 0,0.125 0.09375,0.125 0.25,0.125 0.46875,0 0.484375,0.0625 0.484375,0.171875 0,0.0625 -0.078125,0.40625 -0.125,0.609375 l -0.828125,3.25 c -0.109375,0.5 -0.15625,0.671875 -0.15625,1.015625 0,0.9375 0.53125,1.5625 1.265625,1.5625 1.171875,0 2.40625,-1.484375 2.40625,-2.921875 0,-0.90625 -0.53125,-1.59375 -1.328125,-1.59375 -0.453125,0 -0.875,0.296875 -1.171875,0.59375 z M 1.453125,-3.046875 C 1.5,-3.265625 1.5,-3.28125 1.59375,-3.390625 2.078125,-4.03125 2.53125,-4.1875 2.796875,-4.1875 c 0.359375,0 0.625,0.296875 0.625,0.9375 0,0.59375 -0.328125,1.734375 -0.515625,2.109375 -0.328125,0.671875 -0.78125,1.03125 -1.171875,1.03125 -0.34375,0 -0.671875,-0.265625 -0.671875,-1 0,-0.203125 0,-0.390625 0.15625,-1.015625 z m 0,0"
             id="id-7ec593d0-d8d0-43bf-b305-04f4796517d2" />
        </symbol>
      </g>
    </defs>
    <defs
       id="id-4596a2b8-a03f-4650-9712-c44c9c9523e3">
      <g
         id="id-2491a676-0de8-4836-b7ef-720c075c94d7">
        <symbol
           overflow="visible"
           id="id-bdc6297e-7a6d-4275-9bb7-754412ac7eba">
          <path
             style="stroke:none;stroke-width:0"
             d=""
             id="id-35132f20-eb77-4fba-838c-57c849457ef7" />
        </symbol>
        <symbol
           overflow="visible"
           id="id-24a4ec27-cb93-4a31-8151-dd0cee6bf4b8">
          <path
             style="stroke:none;stroke-width:0"
             d="m 3.09375,-5.796875 c 0,-0.15625 0,-0.40625 -0.296875,-0.40625 -0.1875,0 -0.25,0.125 -0.296875,0.234375 C 2.125,-5.109375 1.609375,-5 1.421875,-4.984375 c -0.171875,0.015625 -0.375,0.03125 -0.375,0.3125 0,0.25 0.171875,0.296875 0.328125,0.296875 0.1875,0 0.59375,-0.0625 1.03125,-0.4375 v 4.203125 H 1.5 c -0.15625,0 -0.390625,0 -0.390625,0.3125 C 1.109375,0 1.359375,0 1.5,0 H 4 c 0.15625,0 0.40625,0 0.40625,-0.296875 0,-0.3125 -0.234375,-0.3125 -0.40625,-0.3125 H 3.09375 Z m 0,0"
             id="id-03f8ab54-bd31-424f-832b-1e25f54c5e79" />
        </symbol>
        <symbol
           overflow="visible"
           id="id-b25282b2-048e-4cfe-bbcc-d16e6f2260f8">
          <path
             style="stroke:none;stroke-width:0"
             d="M 1.234375,-3.375 C 1.375,-4.78125 2.3125,-5.59375 3.1875,-5.59375 c 0.34375,0 0.5,0.109375 0.546875,0.15625 -0.046875,0.046875 -0.09375,0.109375 -0.09375,0.296875 0,0.234375 0.171875,0.4375 0.4375,0.4375 0.25,0 0.453125,-0.171875 0.453125,-0.46875 0,-0.484375 -0.359375,-1.03125 -1.328125,-1.03125 -1.34375,0 -2.671875,1.203125 -2.671875,3.21875 0,2.359375 1.109375,3.09375 2.09375,3.09375 1.09375,0 2.0625,-0.84375 2.0625,-2.03125 0,-1.140625 -0.875,-2.03125 -1.96875,-2.03125 -0.515625,0 -1.03125,0.171875 -1.484375,0.578125 z M 2.625,-0.5 c -0.640625,0 -1.03125,-0.484375 -1.234375,-1.09375 -0.015625,-0.0625 -0.03125,-0.125 -0.046875,-0.1875 0,0 -0.015625,-0.03125 -0.015625,-0.03125 0,0 0.015625,-0.09375 0.015625,-0.09375 -0.015625,-0.0625 -0.03125,-0.234375 -0.03125,-0.3125 0,-0.609375 0.59375,-1.109375 1.359375,-1.109375 C 3.484375,-3.328125 4,-2.65625 4,-1.921875 4,-1.0625 3.34375,-0.5 2.625,-0.5 Z m 0,0"
             id="id-8d3b226b-f583-4f5b-8539-aea3f70b7aed" />
        </symbol>
      </g>
    </defs>
    <defs
       id="id-39ba68bf-4a6d-4c3b-9f5b-d33cc566b101">
      <g
         id="id-76a989f7-d469-45b6-9f00-b1d3bda65b40">
        <symbol
           overflow="visible"
           id="id-f7602f3c-58f6-4ff4-9f73-30362f4cb4e4">
          <path
             style="stroke:none;stroke-width:0"
             d=""
             id="id-31686c18-89cf-4816-b992-65e58fe629b6" />
        </symbol>
        <symbol
           overflow="visible"
           id="id-43bd38ed-8de5-4d54-8fb2-b1c6fab66cff">
          <path
             style="stroke:none;stroke-width:0"
             d="M 3.65625,-0.3125 C 3.875,-0.015625 4.34375,0 4.71875,0 c 0.28125,0 0.5,0 0.5,-0.3125 0,-0.296875 -0.25,-0.296875 -0.390625,-0.296875 -0.421875,0 -0.515625,-0.046875 -0.59375,-0.078125 v -2.15625 c 0,-0.703125 -0.546875,-1.546875 -1.984375,-1.546875 -0.421875,0 -1.4375,0 -1.4375,0.734375 0,0.296875 0.203125,0.453125 0.4375,0.453125 0.15625,0 0.4375,-0.09375 0.4375,-0.453125 0,-0.078125 0.015625,-0.09375 0.21875,-0.109375 0.140625,-0.015625 0.265625,-0.015625 0.359375,-0.015625 0.75,0 1.265625,0.3125 1.265625,1.015625 -1.75,0.03125 -2.984375,0.53125 -2.984375,1.484375 0,0.6875 0.625,1.34375 1.640625,1.34375 0.375,0 1,-0.078125 1.46875,-0.375 z m -0.125,-1.859375 v 0.84375 c 0,0.21875 0,0.4375 -0.375,0.609375 -0.359375,0.171875 -0.8125,0.171875 -0.890625,0.171875 -0.625,0 -1.03125,-0.34375 -1.03125,-0.734375 0,-0.484375 0.859375,-0.859375 2.296875,-0.890625 z m 0,0"
             id="id-441a8a25-2d2a-409f-9145-7e21ed539f22" />
        </symbol>
        <symbol
           overflow="visible"
           id="id-bf82b2de-81e0-420c-a564-1737331bf67b">
          <path
             style="stroke:none;stroke-width:0"
             d="m 1.65625,-3.875 v -1.8125 c 0,-0.296875 -0.0625,-0.40625 -0.40625,-0.40625 H 0.53125 c -0.15625,0 -0.40625,0 -0.40625,0.3125 0,0.296875 0.25,0.296875 0.390625,0.296875 H 0.96875 V -0.40625 C 0.96875,-0.203125 0.96875,0 1.3125,0 1.65625,0 1.65625,-0.203125 1.65625,-0.453125 2.0625,-0.03125 2.5,0.0625 2.8125,0.0625 c 1.078125,0 2.046875,-0.953125 2.046875,-2.21875 0,-1.21875 -0.875,-2.203125 -1.9375,-2.203125 C 2.4375,-4.359375 2,-4.171875 1.65625,-3.875 Z m 0,1.96875 V -2.625 c 0,-0.59375 0.578125,-1.125 1.203125,-1.125 0.734375,0 1.3125,0.734375 1.3125,1.59375 0,0.953125 -0.6875,1.609375 -1.390625,1.609375 -0.78125,0 -1.125,-0.875 -1.125,-1.359375 z m 0,0"
             id="id-25253681-057d-491c-81e8-e124a3bd9ab1" />
        </symbol>
        <symbol
           overflow="visible"
           id="id-506f9dbb-e85e-4ac8-8b0a-4a62073ce17b">
          <path
             style="stroke:none;stroke-width:0"
             d="m 4.65625,-2.15625 c 0,-1.25 -0.921875,-2.234375 -2.046875,-2.234375 -1.109375,0 -2.046875,0.984375 -2.046875,2.234375 0,1.265625 0.953125,2.21875 2.046875,2.21875 1.09375,0 2.046875,-0.953125 2.046875,-2.21875 z M 2.609375,-0.546875 C 1.875,-0.546875 1.25,-1.296875 1.25,-2.21875 c 0,-0.90625 0.65625,-1.5625 1.359375,-1.5625 0.71875,0 1.359375,0.65625 1.359375,1.5625 0,0.921875 -0.625,1.671875 -1.359375,1.671875 z m 0,0"
             id="id-d961d014-9c44-4cdd-b545-f26522237219" />
        </symbol>
        <symbol
           overflow="visible"
           id="id-397c0216-dc43-4615-8833-dad8087e177a">
          <path
             style="stroke:none;stroke-width:0"
             d="M 3.5625,-0.3125 C 3.578125,0 3.78125,0 3.96875,0 H 4.6875 c 0.171875,0 0.421875,0 0.421875,-0.3125 0,-0.296875 -0.265625,-0.296875 -0.40625,-0.296875 H 4.25 v -3.28125 c 0,-0.3125 -0.046875,-0.40625 -0.390625,-0.40625 H 3.125 c -0.15625,0 -0.40625,0 -0.40625,0.3125 0,0.296875 0.265625,0.296875 0.40625,0.296875 h 0.4375 v 2.125 c 0,0.890625 -0.796875,1.015625 -1.125,1.015625 -0.78125,0 -0.78125,-0.328125 -0.78125,-0.65625 v -2.6875 c 0,-0.3125 -0.0625,-0.40625 -0.40625,-0.40625 H 0.53125 c -0.15625,0 -0.40625,0 -0.40625,0.3125 0,0.296875 0.25,0.296875 0.390625,0.296875 H 0.96875 v 2.546875 c 0,0.96875 0.6875,1.203125 1.40625,1.203125 0.421875,0 0.828125,-0.109375 1.1875,-0.375 z m 0,0"
             id="id-0d6d4197-ab58-4b1f-8bf5-958d66f95fd9" />
        </symbol>
        <symbol
           overflow="visible"
           id="id-18ef87ec-e3e1-4251-8a87-802dcdceb809">
          <path
             style="stroke:none;stroke-width:0"
             d="m 2.21875,-3.6875 h 1.625 c 0.15625,0 0.40625,0 0.40625,-0.296875 0,-0.3125 -0.25,-0.3125 -0.40625,-0.3125 h -1.625 v -0.8125 c 0,-0.1875 0,-0.40625 -0.34375,-0.40625 -0.34375,0 -0.34375,0.203125 -0.34375,0.40625 v 0.8125 h -0.875 c -0.15625,0 -0.40625,0 -0.40625,0.3125 0,0.296875 0.25,0.296875 0.390625,0.296875 H 1.53125 V -1.25 c 0,0.953125 0.671875,1.3125 1.40625,1.3125 0.734375,0 1.53125,-0.4375 1.53125,-1.3125 0,-0.1875 0,-0.390625 -0.34375,-0.390625 -0.328125,0 -0.34375,0.203125 -0.34375,0.375 0,0.625 -0.578125,0.71875 -0.796875,0.71875 -0.765625,0 -0.765625,-0.515625 -0.765625,-0.765625 z m 0,0"
             id="id-4571c8ae-8604-44b6-a7fe-39bb797c715a" />
        </symbol>
      </g>
    </defs>
  </defs>
  <g
     id="g1871"
     transform="translate(-1.027512)">
    <path
       style="fill:none;stroke:#000000;stroke-width:0.264583px;stroke-linecap:butt;stroke-linejoin:miter;stroke-opacity:1"
       d="M 3.297627,5.55626 H 8.589293"
       id="path1252" />
    <path
       style="fill:none;stroke:#000000;stroke-width:0.264583px;stroke-linecap:butt;stroke-linejoin:miter;stroke-opacity:1"
       d="m 3.297627,10.84793 5.291666,-10e-6"
       id="path1254" />
    <path
       style="fill:none;stroke:#000000;stroke-width:0.264583;stroke-linecap:butt;stroke-linejoin:miter;stroke-miterlimit:4;stroke-dasharray:none;stroke-opacity:1;marker-end:url(#TriangleOutM)"
       d="m 24.464297,8.20209 h 5.29166"
       id="path1256" />
    <rect
       style="font-variation-settings:normal;fill:#c1f8ba;fill-opacity:1;fill-rule:evenodd;stroke:#00b300;stroke-width:0.529167;stroke-linecap:butt;stroke-linejoin:miter;stroke-miterlimit:4;stroke-dasharray:none;stroke-dashoffset:0;stroke-opacity:1;stop-color:#000000"
       id="rect848"
       width="15.875"
       height="15.875"
       x="8.5892916"
       y="0.26458824"
       ry="2.6458385" />
    <g
       id="g1189"
       transform="translate(-72.661724,-141.05164)"
       style="fill:#0e232e">
      <g
         style="fill:#0e232e;fill-opacity:1"
         id="id-be124b82-7e39-46b8-ad75-416e72efd4a1"
         transform="matrix(0.40911133,0,0,0.40911133,21.870959,93.545792)">
        <g
           transform="translate(148.712,134.765)"
           id="g984"
           style="fill:#0e232e">
          <path
             style="fill:#0e232e;stroke:none;stroke-width:0"
             d="m 3.09375,-5.796875 c 0,-0.15625 0,-0.40625 -0.296875,-0.40625 -0.1875,0 -0.25,0.125 -0.296875,0.234375 C 2.125,-5.109375 1.609375,-5 1.421875,-4.984375 c -0.171875,0.015625 -0.375,0.03125 -0.375,0.3125 0,0.25 0.171875,0.296875 0.328125,0.296875 0.1875,0 0.59375,-0.0625 1.03125,-0.4375 v 4.203125 H 1.5 c -0.15625,0 -0.390625,0 -0.390625,0.3125 C 1.109375,0 1.359375,0 1.5,0 H 4 c 0.15625,0 0.40625,0 0.40625,-0.296875 0,-0.3125 -0.234375,-0.3125 -0.40625,-0.3125 H 3.09375 Z m 0,0"
             id="id-94499183-a538-48fe-830b-908e6a1d8e3c" />
        </g>
        <g
           transform="translate(153.942,134.765)"
           id="g987"
           style="fill:#0e232e">
          <path
             style="fill:#0e232e;stroke:none;stroke-width:0"
             d="M 1.234375,-3.375 C 1.375,-4.78125 2.3125,-5.59375 3.1875,-5.59375 c 0.34375,0 0.5,0.109375 0.546875,0.15625 -0.046875,0.046875 -0.09375,0.109375 -0.09375,0.296875 0,0.234375 0.171875,0.4375 0.4375,0.4375 0.25,0 0.453125,-0.171875 0.453125,-0.46875 0,-0.484375 -0.359375,-1.03125 -1.328125,-1.03125 -1.34375,0 -2.671875,1.203125 -2.671875,3.21875 0,2.359375 1.109375,3.09375 2.09375,3.09375 1.09375,0 2.0625,-0.84375 2.0625,-2.03125 0,-1.140625 -0.875,-2.03125 -1.96875,-2.03125 -0.515625,0 -1.03125,0.171875 -1.484375,0.578125 z M 2.625,-0.5 c -0.640625,0 -1.03125,-0.484375 -1.234375,-1.09375 -0.015625,-0.0625 -0.03125,-0.125 -0.046875,-0.1875 0,0 -0.015625,-0.03125 -0.015625,-0.03125 0,0 0.015625,-0.09375 0.015625,-0.09375 -0.015625,-0.0625 -0.03125,-0.234375 -0.03125,-0.3125 0,-0.609375 0.59375,-1.109375 1.359375,-1.109375 C 3.484375,-3.328125 4,-2.65625 4,-1.921875 4,-1.0625 3.34375,-0.5 2.625,-0.5 Z m 0,0"
             id="id-6bfc2e69-35a8-4640-8565-33c3bc6a40ab" />
        </g>
        <g
           transform="translate(159.173,134.765)"
           id="g990"
           style="fill:#0e232e">
          <path
             style="fill:#0e232e;stroke:none;stroke-width:0"
             d="m 4.203125,-2.703125 c 0.109375,0 0.46875,0 0.46875,-0.34375 0,-0.359375 -0.359375,-0.359375 -0.46875,-0.359375 H 1.03125 c -0.125,0 -0.46875,0 -0.46875,0.359375 0,0.34375 0.34375,0.34375 0.46875,0.34375 z m 0,0"
             id="id-e49b7ea6-38a7-4cad-ad4e-dc1d02a4de49" />
        </g>
        <g
           transform="translate(164.403,134.765)"
           id="g993"
           style="fill:#0e232e">
          <path
             style="fill:#0e232e;stroke:none;stroke-width:0"
             d="m 1.65625,-3.875 v -1.8125 c 0,-0.296875 -0.0625,-0.40625 -0.40625,-0.40625 H 0.53125 c -0.15625,0 -0.40625,0 -0.40625,0.3125 0,0.296875 0.25,0.296875 0.390625,0.296875 H 0.96875 V -0.40625 C 0.96875,-0.203125 0.96875,0 1.3125,0 1.65625,0 1.65625,-0.203125 1.65625,-0.453125 2.0625,-0.03125 2.5,0.0625 2.8125,0.0625 c 1.078125,0 2.046875,-0.953125 2.046875,-2.21875 0,-1.21875 -0.875,-2.203125 -1.9375,-2.203125 C 2.4375,-4.359375 2,-4.171875 1.65625,-3.875 Z m 0,1.96875 V -2.625 c 0,-0.59375 0.578125,-1.125 1.203125,-1.125 0.734375,0 1.3125,0.734375 1.3125,1.59375 0,0.953125 -0.6875,1.609375 -1.390625,1.609375 -0.78125,0 -1.125,-0.875 -1.125,-1.359375 z m 0,0"
             id="id-cbd5e41d-8008-41b7-add1-7f9cdd206bc2" />
        </g>
        <g
           transform="translate(169.633,134.765)"
           id="g996"
           style="fill:#0e232e">
          <path
             style="fill:#0e232e;stroke:none;stroke-width:0"
             d="m 3.078125,-3.890625 c 0,-0.3125 -0.0625,-0.40625 -0.390625,-0.40625 H 1.265625 c -0.15625,0 -0.40625,0 -0.40625,0.296875 0,0.3125 0.25,0.3125 0.40625,0.3125 h 1.125 v 3.078125 H 1.1875 c -0.15625,0 -0.40625,0 -0.40625,0.3125 C 0.78125,0 1.03125,0 1.1875,0 H 4.125 c 0.15625,0 0.40625,0 0.40625,-0.296875 0,-0.3125 -0.25,-0.3125 -0.40625,-0.3125 H 3.078125 Z m 0,-1.71875 c 0,-0.265625 -0.21875,-0.484375 -0.5,-0.484375 -0.28125,0 -0.5,0.21875 -0.5,0.484375 0,0.28125 0.21875,0.5 0.5,0.5 0.28125,0 0.5,-0.21875 0.5,-0.5 z m 0,0"
             id="id-c55b2c84-dd62-4bea-89dc-694658e84907" />
        </g>
        <g
           transform="translate(174.864,134.765)"
           id="g999"
           style="fill:#0e232e">
          <path
             style="fill:#0e232e;stroke:none;stroke-width:0"
             d="m 2.21875,-3.6875 h 1.625 c 0.15625,0 0.40625,0 0.40625,-0.296875 0,-0.3125 -0.25,-0.3125 -0.40625,-0.3125 h -1.625 v -0.8125 c 0,-0.1875 0,-0.40625 -0.34375,-0.40625 -0.34375,0 -0.34375,0.203125 -0.34375,0.40625 v 0.8125 h -0.875 c -0.15625,0 -0.40625,0 -0.40625,0.3125 0,0.296875 0.25,0.296875 0.390625,0.296875 H 1.53125 V -1.25 c 0,0.953125 0.671875,1.3125 1.40625,1.3125 0.734375,0 1.53125,-0.4375 1.53125,-1.3125 0,-0.1875 0,-0.390625 -0.34375,-0.390625 -0.328125,0 -0.34375,0.203125 -0.34375,0.375 0,0.625 -0.578125,0.71875 -0.796875,0.71875 -0.765625,0 -0.765625,-0.515625 -0.765625,-0.765625 z m 0,0"
             id="id-389d7460-9e08-4c48-aee0-e906d2fd50f8" />
        </g>
      </g>
      <g
         style="fill:#0e232e;fill-opacity:1"
         id="id-f87d3a60-b817-4e85-8a3d-092b3f595177"
         transform="matrix(0.40911133,0,0,0.40911133,7.9845698,97.206084)">
        <g
           transform="translate(185.325,134.765)"
           id="g1003"
           style="fill:#0e232e">
          <path
             style="fill:#0e232e;stroke:none;stroke-width:0"
             d="M 3.65625,-0.3125 C 3.875,-0.015625 4.34375,0 4.71875,0 c 0.28125,0 0.5,0 0.5,-0.3125 0,-0.296875 -0.25,-0.296875 -0.390625,-0.296875 -0.421875,0 -0.515625,-0.046875 -0.59375,-0.078125 v -2.15625 c 0,-0.703125 -0.546875,-1.546875 -1.984375,-1.546875 -0.421875,0 -1.4375,0 -1.4375,0.734375 0,0.296875 0.203125,0.453125 0.4375,0.453125 0.15625,0 0.4375,-0.09375 0.4375,-0.453125 0,-0.078125 0.015625,-0.09375 0.21875,-0.109375 0.140625,-0.015625 0.265625,-0.015625 0.359375,-0.015625 0.75,0 1.265625,0.3125 1.265625,1.015625 -1.75,0.03125 -2.984375,0.53125 -2.984375,1.484375 0,0.6875 0.625,1.34375 1.640625,1.34375 0.375,0 1,-0.078125 1.46875,-0.375 z m -0.125,-1.859375 v 0.84375 c 0,0.21875 0,0.4375 -0.375,0.609375 -0.359375,0.171875 -0.8125,0.171875 -0.890625,0.171875 -0.625,0 -1.03125,-0.34375 -1.03125,-0.734375 0,-0.484375 0.859375,-0.859375 2.296875,-0.890625 z m 0,0"
             id="id-cb2037eb-54ac-44c6-a6de-f1657f8bb05c" />
        </g>
        <g
           transform="translate(190.555,134.765)"
           id="g1006"
           style="fill:#0e232e">
          <path
             style="fill:#0e232e;stroke:none;stroke-width:0"
             d="m 3.5625,-0.5 c 0,0.359375 0,0.5 0.40625,0.5 H 4.6875 c 0.171875,0 0.421875,0 0.421875,-0.3125 0,-0.296875 -0.265625,-0.296875 -0.40625,-0.296875 H 4.25 V -5.6875 c 0,-0.296875 -0.046875,-0.40625 -0.390625,-0.40625 H 3.125 c -0.15625,0 -0.40625,0 -0.40625,0.3125 0,0.296875 0.265625,0.296875 0.40625,0.296875 H 3.5625 V -3.90625 C 3.234375,-4.203125 2.828125,-4.359375 2.40625,-4.359375 c -1.09375,0 -2.046875,0.953125 -2.046875,2.21875 0,1.234375 0.890625,2.203125 1.953125,2.203125 0.5625,0 0.984375,-0.265625 1.25,-0.5625 z m 0,-2.140625 V -1.9375 c 0,0.5625 -0.4375,1.390625 -1.203125,1.390625 -0.71875,0 -1.3125,-0.703125 -1.3125,-1.59375 C 1.046875,-3.09375 1.75,-3.75 2.4375,-3.75 c 0.640625,0 1.125,0.5625 1.125,1.109375 z m 0,0"
             id="id-42db8d92-d821-448d-b4fc-f37135f29369" />
        </g>
        <g
           transform="translate(195.785,134.765)"
           id="g1009"
           style="fill:#0e232e">
          <path
             style="fill:#0e232e;stroke:none;stroke-width:0"
             d="m 3.5625,-0.5 c 0,0.359375 0,0.5 0.40625,0.5 H 4.6875 c 0.171875,0 0.421875,0 0.421875,-0.3125 0,-0.296875 -0.265625,-0.296875 -0.40625,-0.296875 H 4.25 V -5.6875 c 0,-0.296875 -0.046875,-0.40625 -0.390625,-0.40625 H 3.125 c -0.15625,0 -0.40625,0 -0.40625,0.3125 0,0.296875 0.265625,0.296875 0.40625,0.296875 H 3.5625 V -3.90625 C 3.234375,-4.203125 2.828125,-4.359375 2.40625,-4.359375 c -1.09375,0 -2.046875,0.953125 -2.046875,2.21875 0,1.234375 0.890625,2.203125 1.953125,2.203125 0.5625,0 0.984375,-0.265625 1.25,-0.5625 z m 0,-2.140625 V -1.9375 c 0,0.5625 -0.4375,1.390625 -1.203125,1.390625 -0.71875,0 -1.3125,-0.703125 -1.3125,-1.59375 C 1.046875,-3.09375 1.75,-3.75 2.4375,-3.75 c 0.640625,0 1.125,0.5625 1.125,1.109375 z m 0,0"
             id="id-cadae393-f954-452f-b01a-9ce4f32f89ae" />
        </g>
        <g
           transform="translate(201.016,134.765)"
           id="g1012"
           style="fill:#0e232e">
          <path
             style="fill:#0e232e;stroke:none;stroke-width:0"
             d="m 4.234375,-1.90625 c 0.203125,0 0.390625,0 0.390625,-0.359375 0,-1.140625 -0.640625,-2.125 -1.9375,-2.125 -1.1875,0 -2.140625,1 -2.140625,2.234375 0,1.203125 1.015625,2.21875 2.296875,2.21875 1.3125,0 1.78125,-0.90625 1.78125,-1.15625 0,-0.265625 -0.28125,-0.265625 -0.34375,-0.265625 -0.1875,0 -0.265625,0.03125 -0.328125,0.21875 -0.21875,0.5 -0.765625,0.59375 -1.046875,0.59375 -0.75,0 -1.484375,-0.5 -1.65625,-1.359375 z M 1.265625,-2.5 C 1.40625,-3.234375 2,-3.78125 2.6875,-3.78125 c 0.515625,0 1.140625,0.25 1.234375,1.28125 z m 0,0"
             id="id-9661eabc-c6d2-4119-b908-536c8f38b85b" />
        </g>
        <g
           transform="translate(206.246,134.765)"
           id="g1015"
           style="fill:#0e232e">
          <path
             style="fill:#0e232e;stroke:none;stroke-width:0"
             d="M 2.21875,-1.859375 C 2.21875,-2.796875 2.796875,-3.75 4,-3.75 c 0.015625,0.234375 0.1875,0.4375 0.4375,0.4375 0.21875,0 0.421875,-0.15625 0.421875,-0.421875 0,-0.203125 -0.125,-0.625 -0.953125,-0.625 -0.5,0 -1.140625,0.1875 -1.6875,0.8125 v -0.34375 c 0,-0.3125 -0.0625,-0.40625 -0.40625,-0.40625 H 0.71875 c -0.15625,0 -0.40625,0 -0.40625,0.296875 0,0.3125 0.25,0.3125 0.40625,0.3125 h 0.8125 v 3.078125 h -0.8125 c -0.15625,0 -0.40625,0 -0.40625,0.296875 C 0.3125,0 0.5625,0 0.71875,0 H 3.3125 c 0.15625,0 0.421875,0 0.421875,-0.296875 0,-0.3125 -0.265625,-0.3125 -0.421875,-0.3125 H 2.21875 Z m 0,0"
             id="id-10f74eac-4987-418a-9639-ddd41831175e" />
        </g>
      </g>
    </g>
    <g
       id="g2585"
       transform="matrix(0.78320406,0,0,0.78320406,-56.985971,-111.87673)">
      <path
         style="fill:#000000;fill-opacity:1;stroke:none;stroke-width:0"
         d="m 79.481554,146.91388 c 0,-0.0567 0,-0.14749 -0.107784,-0.14749 -0.06807,0 -0.09077,0.0454 -0.107784,0.0851 -0.136149,0.31201 -0.323353,0.35172 -0.391427,0.35739 -0.0624,0.006 -0.136148,0.0114 -0.136148,0.11346 0,0.0908 0.0624,0.10778 0.11913,0.10778 0.06807,0 0.215568,-0.0227 0.374408,-0.15884 v 1.526 h -0.329026 c -0.05673,0 -0.141821,0 -0.141821,0.11346 0,0.10778 0.09077,0.10778 0.141821,0.10778 h 0.907656 c 0.05673,0 0.147494,0 0.147494,-0.10778 0,-0.11346 -0.08509,-0.11346 -0.147494,-0.11346 h -0.329025 z m 0,0"
         id="id-6ab49eac-d4cd-4809-872c-90d5d4ed1b98" />
      <path
         style="fill:#000000;fill-opacity:1;stroke:none;stroke-width:0"
         d="m 80.705301,147.79317 c 0.05106,-0.51055 0.391426,-0.80554 0.709106,-0.80554 0.124803,0 0.181531,0.0397 0.19855,0.0567 -0.01702,0.017 -0.03404,0.0397 -0.03404,0.10778 0,0.0851 0.0624,0.15884 0.158839,0.15884 0.09077,0 0.164513,-0.0624 0.164513,-0.17018 0,-0.17586 -0.130476,-0.37441 -0.482192,-0.37441 -0.487865,0 -0.970057,0.43681 -0.970057,1.16861 0,0.8566 0.402772,1.12322 0.760161,1.12322 0.3971,0 0.748816,-0.30633 0.748816,-0.73747 0,-0.41412 -0.317679,-0.73747 -0.714778,-0.73747 -0.187204,0 -0.374408,0.0624 -0.538921,0.20989 z m 0.504883,1.04381 c -0.232586,0 -0.374408,-0.17586 -0.448155,-0.3971 -0.0057,-0.0227 -0.01134,-0.0454 -0.01702,-0.0681 0,0 -0.0057,-0.0114 -0.0057,-0.0114 0,0 0.0057,-0.034 0.0057,-0.034 -0.0057,-0.0227 -0.01135,-0.0851 -0.01135,-0.11345 0,-0.22125 0.215568,-0.40278 0.493538,-0.40278 0.294988,0 0.482192,0.24394 0.482192,0.51056 0,0.31201 -0.23826,0.51623 -0.499211,0.51623 z m 0,0"
         id="id-914e120d-0e59-468b-8dfd-0611cd81c375" />
    </g>
    <g
       id="g2589"
       transform="matrix(0.78320406,0,0,0.78320406,-61.447736,-106.58507)">
      <path
         style="fill:#000000;fill-opacity:1;stroke:none;stroke-width:0"
         d="m 85.178364,146.91388 c 0,-0.0567 0,-0.14749 -0.107784,-0.14749 -0.06807,0 -0.09077,0.0454 -0.107784,0.0851 -0.136149,0.31201 -0.323353,0.35172 -0.391427,0.35739 -0.0624,0.006 -0.136148,0.0114 -0.136148,0.11346 0,0.0908 0.0624,0.10778 0.11913,0.10778 0.06807,0 0.215568,-0.0227 0.374408,-0.15884 v 1.526 h -0.329026 c -0.05673,0 -0.141821,0 -0.141821,0.11346 0,0.10778 0.09077,0.10778 0.141821,0.10778 h 0.907656 c 0.05673,0 0.147494,0 0.147494,-0.10778 0,-0.11346 -0.08509,-0.11346 -0.147494,-0.11346 h -0.329025 z m 0,0"
         id="id-c0999ee1-440b-45bc-aa09-3150a0b977cf" />
      <path
         style="fill:#000000;fill-opacity:1;stroke:none;stroke-width:0"
         d="m 86.402111,147.79317 c 0.05106,-0.51055 0.391426,-0.80554 0.709106,-0.80554 0.124803,0 0.181531,0.0397 0.19855,0.0567 -0.01702,0.017 -0.03404,0.0397 -0.03404,0.10778 0,0.0851 0.0624,0.15884 0.158839,0.15884 0.09077,0 0.164513,-0.0624 0.164513,-0.17018 0,-0.17586 -0.130476,-0.37441 -0.482192,-0.37441 -0.487865,0 -0.970057,0.43681 -0.970057,1.16861 0,0.8566 0.402772,1.12322 0.760161,1.12322 0.3971,0 0.748816,-0.30633 0.748816,-0.73747 0,-0.41412 -0.317679,-0.73747 -0.714778,-0.73747 -0.187204,0 -0.374408,0.0624 -0.538921,0.20989 z m 0.504883,1.04381 c -0.232586,0 -0.374408,-0.17586 -0.448155,-0.3971 -0.0057,-0.0227 -0.01134,-0.0454 -0.01702,-0.0681 0,0 -0.0057,-0.0114 -0.0057,-0.0114 0,0 0.0057,-0.034 0.0057,-0.034 -0.0057,-0.0227 -0.01135,-0.0851 -0.01135,-0.11345 0,-0.22125 0.215568,-0.40278 0.493538,-0.40278 0.294988,0 0.482192,0.24394 0.482192,0.51056 0,0.31201 -0.23826,0.51623 -0.499211,0.51623 z m 0,0"
         id="id-eea0ce52-5518-4502-aa02-ec6234ef0aa7" />
    </g>
    <g
       id="g2593"
       transform="matrix(0.78320406,0,0,0.78320406,-44.367154,-109.2309)">
      <path
         style="fill:#000000;fill-opacity:1;stroke:none;stroke-width:0"
         d="m 90.875174,146.91388 c 0,-0.0567 0,-0.14749 -0.107784,-0.14749 -0.06807,0 -0.09077,0.0454 -0.107784,0.0851 -0.136149,0.31201 -0.323353,0.35172 -0.391427,0.35739 -0.0624,0.006 -0.136148,0.0114 -0.136148,0.11346 0,0.0908 0.0624,0.10778 0.11913,0.10778 0.06807,0 0.215568,-0.0227 0.374408,-0.15884 v 1.526 h -0.329026 c -0.05673,0 -0.141821,0 -0.141821,0.11346 0,0.10778 0.09077,0.10778 0.141821,0.10778 h 0.907656 c 0.05673,0 0.147494,0 0.147494,-0.10778 0,-0.11346 -0.08509,-0.11346 -0.147494,-0.11346 h -0.329025 z m 0,0"
         id="id-2f44b80e-09f2-47c9-adfd-2cfd1353fed1" />
      <path
         style="fill:#000000;fill-opacity:1;stroke:none;stroke-width:0"
         d="m 92.099284,147.79317 c 0.05106,-0.51055 0.391426,-0.80554 0.709106,-0.80554 0.124803,0 0.181531,0.0397 0.19855,0.0567 -0.01702,0.017 -0.03404,0.0397 -0.03404,0.10778 0,0.0851 0.0624,0.15884 0.158839,0.15884 0.09077,0 0.164513,-0.0624 0.164513,-0.17018 0,-0.17586 -0.130476,-0.37441 -0.482192,-0.37441 -0.487865,0 -0.970057,0.43681 -0.970057,1.16861 0,0.8566 0.402772,1.12322 0.760161,1.12322 0.3971,0 0.748816,-0.30633 0.748816,-0.73747 0,-0.41412 -0.317679,-0.73747 -0.714778,-0.73747 -0.187204,0 -0.374408,0.0624 -0.538921,0.20989 z m 0.504883,1.04381 c -0.232586,0 -0.374408,-0.17586 -0.448155,-0.3971 -0.0057,-0.0227 -0.01135,-0.0454 -0.01702,-0.0681 0,0 -0.0057,-0.0114 -0.0057,-0.0114 0,0 0.0057,-0.034 0.0057,-0.034 -0.0057,-0.0227 -0.01135,-0.0851 -0.01135,-0.11345 0,-0.22125 0.215568,-0.40278 0.493538,-0.40278 0.294988,0 0.482192,0.24394 0.482192,0.51056 0,0.31201 -0.23826,0.51623 -0.499211,0.51623 z m 0,0"
         id="id-2fe86042-99bc-47f7-8323-e6c7b9ad0f0e" />
    </g>
    <g
       style="fill:#000000;fill-opacity:1"
       id="id-c02352de-1256-46d8-a02d-5fac783aaeb7"
       transform="matrix(0.28836524,0,0,0.28836524,-42.004547,-32.681241)">
      <g
         transform="translate(148.712,134.765)"
         id="g1441">
        <path
           style="stroke:none;stroke-width:0"
           d="M 3.65625,-0.3125 C 3.875,-0.015625 4.34375,0 4.71875,0 c 0.28125,0 0.5,0 0.5,-0.3125 0,-0.296875 -0.25,-0.296875 -0.390625,-0.296875 -0.421875,0 -0.515625,-0.046875 -0.59375,-0.078125 v -2.15625 c 0,-0.703125 -0.546875,-1.546875 -1.984375,-1.546875 -0.421875,0 -1.4375,0 -1.4375,0.734375 0,0.296875 0.203125,0.453125 0.4375,0.453125 0.15625,0 0.4375,-0.09375 0.4375,-0.453125 0,-0.078125 0.015625,-0.09375 0.21875,-0.109375 0.140625,-0.015625 0.265625,-0.015625 0.359375,-0.015625 0.75,0 1.265625,0.3125 1.265625,1.015625 -1.75,0.03125 -2.984375,0.53125 -2.984375,1.484375 0,0.6875 0.625,1.34375 1.640625,1.34375 0.375,0 1,-0.078125 1.46875,-0.375 z m -0.125,-1.859375 v 0.84375 c 0,0.21875 0,0.4375 -0.375,0.609375 -0.359375,0.171875 -0.8125,0.171875 -0.890625,0.171875 -0.625,0 -1.03125,-0.34375 -1.03125,-0.734375 0,-0.484375 0.859375,-0.859375 2.296875,-0.890625 z m 0,0"
           id="id-1e4961dc-4490-45e7-b4a4-aa8ffc9d3425" />
      </g>
    </g>
    <g
       style="fill:#000000;fill-opacity:1"
       id="id-1c758986-6bbd-4077-8392-a8c397013395"
       transform="matrix(0.28836524,0,0,0.28836524,-44.908494,-27.144015)">
      <g
         transform="translate(159.173,134.765)"
         id="g1445">
        <path
           style="stroke:none;stroke-width:0"
           d="m 1.65625,-3.875 v -1.8125 c 0,-0.296875 -0.0625,-0.40625 -0.40625,-0.40625 H 0.53125 c -0.15625,0 -0.40625,0 -0.40625,0.3125 0,0.296875 0.25,0.296875 0.390625,0.296875 H 0.96875 V -0.40625 C 0.96875,-0.203125 0.96875,0 1.3125,0 1.65625,0 1.65625,-0.203125 1.65625,-0.453125 2.0625,-0.03125 2.5,0.0625 2.8125,0.0625 c 1.078125,0 2.046875,-0.953125 2.046875,-2.21875 0,-1.21875 -0.875,-2.203125 -1.9375,-2.203125 C 2.4375,-4.359375 2,-4.171875 1.65625,-3.875 Z m 0,1.96875 V -2.625 c 0,-0.59375 0.578125,-1.125 1.203125,-1.125 0.734375,0 1.3125,0.734375 1.3125,1.59375 0,0.953125 -0.6875,1.609375 -1.390625,1.609375 -0.78125,0 -1.125,-0.875 -1.125,-1.359375 z m 0,0"
           id="id-f58b8552-09dd-4ba0-91bd-31ef20e52096" />
      </g>
    </g>
    <g
       style="fill:#000000;fill-opacity:1"
       id="id-024ed810-1dba-49ef-850c-311ca6ccc02b"
       transform="matrix(0.28836524,0,0,0.28836524,-17.843191,-29.873206)">
      <g
         transform="translate(169.633,134.765)"
         id="g1449">
        <path
           style="stroke:none;stroke-width:0"
           d="m 4.65625,-2.15625 c 0,-1.25 -0.921875,-2.234375 -2.046875,-2.234375 -1.109375,0 -2.046875,0.984375 -2.046875,2.234375 0,1.265625 0.953125,2.21875 2.046875,2.21875 1.09375,0 2.046875,-0.953125 2.046875,-2.21875 z M 2.609375,-0.546875 C 1.875,-0.546875 1.25,-1.296875 1.25,-2.21875 c 0,-0.90625 0.65625,-1.5625 1.359375,-1.5625 0.71875,0 1.359375,0.65625 1.359375,1.5625 0,0.921875 -0.625,1.671875 -1.359375,1.671875 z m 0,0"
           id="id-e1378931-0d95-44c2-9508-827847a3758b" />
      </g>
      <g
         transform="translate(174.864,134.765)"
         id="g1452">
        <path
           style="stroke:none;stroke-width:0"
           d="M 3.5625,-0.3125 C 3.578125,0 3.78125,0 3.96875,0 H 4.6875 c 0.171875,0 0.421875,0 0.421875,-0.3125 0,-0.296875 -0.265625,-0.296875 -0.40625,-0.296875 H 4.25 v -3.28125 c 0,-0.3125 -0.046875,-0.40625 -0.390625,-0.40625 H 3.125 c -0.15625,0 -0.40625,0 -0.40625,0.3125 0,0.296875 0.265625,0.296875 0.40625,0.296875 h 0.4375 v 2.125 c 0,0.890625 -0.796875,1.015625 -1.125,1.015625 -0.78125,0 -0.78125,-0.328125 -0.78125,-0.65625 v -2.6875 c 0,-0.3125 -0.0625,-0.40625 -0.40625,-0.40625 H 0.53125 c -0.15625,0 -0.40625,0 -0.40625,0.3125 0,0.296875 0.25,0.296875 0.390625,0.296875 H 0.96875 v 2.546875 c 0,0.96875 0.6875,1.203125 1.40625,1.203125 0.421875,0 0.828125,-0.109375 1.1875,-0.375 z m 0,0"
           id="id-8cb01e2b-49b3-4240-a15b-be3671eac77d" />
      </g>
      <g
         transform="translate(180.094,134.765)"
         id="g1455">
        <path
           style="stroke:none;stroke-width:0"
           d="m 2.21875,-3.6875 h 1.625 c 0.15625,0 0.40625,0 0.40625,-0.296875 0,-0.3125 -0.25,-0.3125 -0.40625,-0.3125 h -1.625 v -0.8125 c 0,-0.1875 0,-0.40625 -0.34375,-0.40625 -0.34375,0 -0.34375,0.203125 -0.34375,0.40625 v 0.8125 h -0.875 c -0.15625,0 -0.40625,0 -0.40625,0.3125 0,0.296875 0.25,0.296875 0.390625,0.296875 H 1.53125 V -1.25 c 0,0.953125 0.671875,1.3125 1.40625,1.3125 0.734375,0 1.53125,-0.4375 1.53125,-1.3125 0,-0.1875 0,-0.390625 -0.34375,-0.390625 -0.328125,0 -0.34375,0.203125 -0.34375,0.375 0,0.625 -0.578125,0.71875 -0.796875,0.71875 -0.765625,0 -0.765625,-0.515625 -0.765625,-0.765625 z m 0,0"
           id="id-b70d3db7-c2c2-473a-b8e1-e0042e38a021" />
      </g>
    </g>
  </g>
</svg>
