<?xml version="1.0" encoding="UTF-8" standalone="no"?>
<!-- Created with Inkscape (http://www.inkscape.org/) -->

<svg
   width="80.168739mm"
   height="51.064583mm"
   viewBox="0 0 80.168739 51.064583"
   version="1.1"
   id="svg5"
   xmlns="http://www.w3.org/2000/svg"
   xmlns:svg="http://www.w3.org/2000/svg">
  <defs
     id="defs2">
    <defs
       id="id-b9074e6b-7602-4458-ad21-04f3029af509">
      <g
         id="id-ae3d129f-dab7-40de-803f-8be8e0e7ad0b">
        <symbol
           overflow="visible"
           id="id-5f437d2d-0551-4f32-b359-1c667f37cde1">
          <path
             style="stroke:none;stroke-width:0"
             d=""
             id="id-5081d688-cbc0-4db2-a2dc-434d03e7203c" />
        </symbol>
        <symbol
           overflow="visible"
           id="id-2b9bf6a6-6f77-4e6d-bebd-da3acda9c84f">
          <path
             style="stroke:none;stroke-width:0"
             d="M 1.78125,-1.140625 C 1.390625,-0.484375 1,-0.34375 0.5625,-0.3125 0.4375,-0.296875 0.34375,-0.296875 0.34375,-0.109375 0.34375,-0.046875 0.40625,0 0.484375,0 0.75,0 1.0625,-0.03125 1.328125,-0.03125 c 0.34375,0 0.6875,0.03125 1,0.03125 0.0625,0 0.1875,0 0.1875,-0.1875 0,-0.109375 -0.078125,-0.125 -0.15625,-0.125 -0.21875,-0.015625 -0.46875,-0.09375 -0.46875,-0.34375 0,-0.125 0.0625,-0.234375 0.140625,-0.375 l 0.765625,-1.265625 h 2.5 c 0.015625,0.203125 0.15625,1.5625 0.15625,1.65625 0,0.296875 -0.515625,0.328125 -0.71875,0.328125 C 4.59375,-0.3125 4.5,-0.3125 4.5,-0.109375 4.5,0 4.609375,0 4.640625,0 5.046875,0 5.46875,-0.03125 5.875,-0.03125 6.125,-0.03125 6.765625,0 7.015625,0 7.0625,0 7.1875,0 7.1875,-0.203125 7.1875,-0.3125 7.09375,-0.3125 6.953125,-0.3125 6.34375,-0.3125 6.34375,-0.375 6.3125,-0.671875 l -0.609375,-6.21875 c -0.015625,-0.203125 -0.015625,-0.25 -0.1875,-0.25 -0.15625,0 -0.203125,0.078125 -0.265625,0.171875 z M 2.984375,-2.609375 4.9375,-5.90625 5.265625,-2.609375 Z m 0,0"
             id="id-e79e7b2e-e7c2-45d1-94e6-03764cb9e0c8" />
        </symbol>
        <symbol
           overflow="visible"
           id="id-b1823825-a084-4eae-97c8-d3086125c734">
          <path
             style="stroke:none;stroke-width:0"
             d="M 1.59375,-0.78125 C 1.5,-0.390625 1.46875,-0.3125 0.6875,-0.3125 c -0.171875,0 -0.265625,0 -0.265625,0.203125 C 0.421875,0 0.515625,0 0.6875,0 H 4.25 C 5.828125,0 7,-1.171875 7,-2.15625 7,-2.875 6.421875,-3.453125 5.453125,-3.5625 6.484375,-3.75 7.53125,-4.484375 7.53125,-5.4375 c 0,-0.734375 -0.65625,-1.375 -1.84375,-1.375 H 2.328125 c -0.1875,0 -0.28125,0 -0.28125,0.203125 0,0.109375 0.09375,0.109375 0.28125,0.109375 0.015625,0 0.203125,0 0.375,0.015625 0.171875,0.03125 0.265625,0.03125 0.265625,0.171875 0,0.03125 -0.015625,0.0625 -0.03125,0.1875 z m 1.5,-2.875 0.625,-2.46875 C 3.8125,-6.46875 3.828125,-6.5 4.25,-6.5 h 1.296875 c 0.875,0 1.078125,0.59375 1.078125,1.03125 0,0.875 -0.859375,1.8125 -2.0625,1.8125 z m -0.4375,3.34375 c -0.140625,0 -0.15625,0 -0.21875,0 -0.109375,-0.015625 -0.140625,-0.03125 -0.140625,-0.109375 0,-0.03125 0,-0.046875 0.0625,-0.21875 l 0.6875,-2.78125 h 1.875 c 0.953125,0 1.15625,0.734375 1.15625,1.15625 C 6.078125,-1.28125 5.1875,-0.3125 4,-0.3125 Z m 0,0"
             id="id-c6a8300b-07e2-4019-96b0-737f4b40117b" />
        </symbol>
        <symbol
           overflow="visible"
           id="id-32929c03-46eb-46d3-b1df-adcb02193252">
          <path
             style="stroke:none;stroke-width:0"
             d=""
             id="id-b4e204f0-b72e-4034-8e06-da9e92d1b19c" />
        </symbol>
        <symbol
           overflow="visible"
           id="id-620596c2-d0f8-4fd7-af60-25e02b27f4b9">
          <path
             style="stroke:none;stroke-width:0"
             d="m 6.09375,-5.609375 c 0,-0.171875 0,-0.359375 -0.203125,-0.359375 -0.203125,0 -0.203125,0.1875 -0.203125,0.359375 V -2 c 0,1.5 -1.625,1.828125 -2.375,1.828125 -0.4375,0 -1.0625,-0.09375 -1.59375,-0.4375 C 0.953125,-1.09375 0.953125,-1.734375 0.953125,-2 v -3.609375 c 0,-0.171875 0,-0.359375 -0.203125,-0.359375 -0.203125,0 -0.203125,0.1875 -0.203125,0.359375 v 3.65625 c 0,1.515625 1.53125,2.171875 2.765625,2.171875 1.296875,0 2.78125,-0.703125 2.78125,-2.15625 z m 0,0"
             id="id-a39a6219-ce2f-4dc4-81af-26d6c6dd26e2" />
        </symbol>
      </g>
    </defs>
  </defs>
  <g
     id="layer1"
     transform="translate(-47.228129,-92.207289)">
    <g
       id="g1752">
      <circle
         style="font-variation-settings:normal;fill:#ffa1a1;fill-opacity:0.491936;fill-rule:evenodd;stroke:#9eabb0;stroke-width:0.79375;stroke-linecap:butt;stroke-linejoin:miter;stroke-miterlimit:4;stroke-dasharray:none;stroke-dashoffset:0;stroke-opacity:1;stop-color:#000000"
         id="path848"
         cx="76.729164"
         cy="119.0625"
         r="18.520834" />
      <circle
         style="font-variation-settings:normal;fill:#ffa1a1;fill-opacity:0.491936;fill-rule:evenodd;stroke:#9eabb0;stroke-width:0.79375;stroke-linecap:butt;stroke-linejoin:miter;stroke-miterlimit:4;stroke-dasharray:none;stroke-dashoffset:0;stroke-opacity:1;stop-color:#000000"
         id="circle930"
         cx="97.895821"
         cy="119.0625"
         r="18.520834" />
    </g>
    <rect
       style="font-variation-settings:normal;fill:none;fill-opacity:1;fill-rule:evenodd;stroke:#9eabb0;stroke-width:0.79375;stroke-linecap:butt;stroke-linejoin:miter;stroke-miterlimit:4;stroke-dasharray:none;stroke-dashoffset:0;stroke-opacity:1;stop-color:#000000"
       id="rect1054"
       width="79.374992"
       height="50.270832"
       x="47.625004"
       y="92.604164"
       ry="0.13229166" />
    <circle
       style="font-variation-settings:normal;fill:#dc0000;fill-opacity:1;fill-rule:evenodd;stroke:#b50000;stroke-width:0.264583;stroke-linecap:butt;stroke-linejoin:miter;stroke-miterlimit:4;stroke-dasharray:none;stroke-dashoffset:0;stroke-opacity:1;stop-color:#000000"
       id="path1158"
       cx="68.791664"
       cy="113.77084"
       r="1.3229166" />
    <circle
       style="font-variation-settings:normal;fill:#dc0000;fill-opacity:1;fill-rule:evenodd;stroke:#b50000;stroke-width:0.264583;stroke-linecap:butt;stroke-linejoin:miter;stroke-miterlimit:4;stroke-dasharray:none;stroke-dashoffset:0;stroke-opacity:1;stop-color:#000000"
       id="circle1240"
       cx="89.958336"
       cy="124.35416"
       r="1.3229166" />
    <circle
       style="font-variation-settings:normal;fill:#dc0000;fill-opacity:1;fill-rule:evenodd;stroke:#b50000;stroke-width:0.264583;stroke-linecap:butt;stroke-linejoin:miter;stroke-miterlimit:4;stroke-dasharray:none;stroke-dashoffset:0;stroke-opacity:1;stop-color:#000000"
       id="circle1242"
       cx="68.791664"
       cy="124.35416"
       r="1.3229166" />
    <circle
       style="font-variation-settings:normal;fill:#dc0000;fill-opacity:1;fill-rule:evenodd;stroke:#b50000;stroke-width:0.264583;stroke-linecap:butt;stroke-linejoin:miter;stroke-miterlimit:4;stroke-dasharray:none;stroke-dashoffset:0;stroke-opacity:1;stop-color:#000000"
       id="circle1244"
       cx="76.729164"
       cy="129.64583"
       r="1.3229166" />
    <circle
       style="font-variation-settings:normal;fill:#dc0000;fill-opacity:1;fill-rule:evenodd;stroke:#b50000;stroke-width:0.264583;stroke-linecap:butt;stroke-linejoin:miter;stroke-miterlimit:4;stroke-dasharray:none;stroke-dashoffset:0;stroke-opacity:1;stop-color:#000000"
       id="circle1246"
       cx="76.729164"
       cy="111.125"
       r="1.3229166" />
    <circle
       style="font-variation-settings:normal;fill:#dc0000;fill-opacity:1;fill-rule:evenodd;stroke:#b50000;stroke-width:0.264583;stroke-linecap:butt;stroke-linejoin:miter;stroke-miterlimit:4;stroke-dasharray:none;stroke-dashoffset:0;stroke-opacity:1;stop-color:#000000"
       id="circle1248"
       cx="87.3125"
       cy="113.77084"
       r="1.3229166" />
    <circle
       style="font-variation-settings:normal;fill:#dc0000;fill-opacity:1;fill-rule:evenodd;stroke:#b50000;stroke-width:0.264583;stroke-linecap:butt;stroke-linejoin:miter;stroke-miterlimit:4;stroke-dasharray:none;stroke-dashoffset:0;stroke-opacity:1;stop-color:#000000"
       id="circle1250"
       cx="103.1875"
       cy="111.125"
       r="1.3229166" />
    <circle
       style="font-variation-settings:normal;fill:#dc0000;fill-opacity:1;fill-rule:evenodd;stroke:#b50000;stroke-width:0.264583;stroke-linecap:butt;stroke-linejoin:miter;stroke-miterlimit:4;stroke-dasharray:none;stroke-dashoffset:0;stroke-opacity:1;stop-color:#000000"
       id="circle1252"
       cx="100.54166"
       cy="127"
       r="1.3229166" />
    <circle
       style="font-variation-settings:normal;fill:#dc0000;fill-opacity:1;fill-rule:evenodd;stroke:#b50000;stroke-width:0.264583;stroke-linecap:butt;stroke-linejoin:miter;stroke-miterlimit:4;stroke-dasharray:none;stroke-dashoffset:0;stroke-opacity:1;stop-color:#000000"
       id="circle1254"
       cx="105.83334"
       cy="119.0625"
       r="1.3229166" />
    <g
       id="g1748"
       transform="translate(-0.48050388)">
      <g
         style="fill:#000000;fill-opacity:1"
         id="id-4db118a8-e0ca-4d0b-860f-318375ca0fd8"
         transform="matrix(0.709456,0,0,0.709456,-27.082474,3.1925875)">
        <g
           transform="translate(148.712,134.765)"
           id="g1569">
          <path
             style="stroke:none;stroke-width:0"
             d="M 1.78125,-1.140625 C 1.390625,-0.484375 1,-0.34375 0.5625,-0.3125 0.4375,-0.296875 0.34375,-0.296875 0.34375,-0.109375 0.34375,-0.046875 0.40625,0 0.484375,0 0.75,0 1.0625,-0.03125 1.328125,-0.03125 c 0.34375,0 0.6875,0.03125 1,0.03125 0.0625,0 0.1875,0 0.1875,-0.1875 0,-0.109375 -0.078125,-0.125 -0.15625,-0.125 -0.21875,-0.015625 -0.46875,-0.09375 -0.46875,-0.34375 0,-0.125 0.0625,-0.234375 0.140625,-0.375 l 0.765625,-1.265625 h 2.5 c 0.015625,0.203125 0.15625,1.5625 0.15625,1.65625 0,0.296875 -0.515625,0.328125 -0.71875,0.328125 C 4.59375,-0.3125 4.5,-0.3125 4.5,-0.109375 4.5,0 4.609375,0 4.640625,0 5.046875,0 5.46875,-0.03125 5.875,-0.03125 6.125,-0.03125 6.765625,0 7.015625,0 7.0625,0 7.1875,0 7.1875,-0.203125 7.1875,-0.3125 7.09375,-0.3125 6.953125,-0.3125 6.34375,-0.3125 6.34375,-0.375 6.3125,-0.671875 l -0.609375,-6.21875 c -0.015625,-0.203125 -0.015625,-0.25 -0.1875,-0.25 -0.15625,0 -0.203125,0.078125 -0.265625,0.171875 z M 2.984375,-2.609375 4.9375,-5.90625 5.265625,-2.609375 Z m 0,0"
             id="id-75ed5c56-53ce-499f-9ba5-5ff645ea462e" />
        </g>
      </g>
      <g
         style="fill:#000000;fill-opacity:1"
         id="id-2e90431d-74a1-46d7-ba14-2d39ce9b7f08"
         transform="matrix(0.709456,0,0,0.709456,-27.082474,3.1925875)">
        <g
           transform="translate(158.398,134.765)"
           id="g1573">
          <path
             style="stroke:none;stroke-width:0"
             d="m 6.09375,-5.609375 c 0,-0.171875 0,-0.359375 -0.203125,-0.359375 -0.203125,0 -0.203125,0.1875 -0.203125,0.359375 V -2 c 0,1.5 -1.625,1.828125 -2.375,1.828125 -0.4375,0 -1.0625,-0.09375 -1.59375,-0.4375 C 0.953125,-1.09375 0.953125,-1.734375 0.953125,-2 v -3.609375 c 0,-0.171875 0,-0.359375 -0.203125,-0.359375 -0.203125,0 -0.203125,0.1875 -0.203125,0.359375 v 3.65625 c 0,1.515625 1.53125,2.171875 2.765625,2.171875 1.296875,0 2.78125,-0.703125 2.78125,-2.15625 z m 0,0"
             id="id-89e98bf9-ab17-4060-bac5-0838dcbab32e" />
        </g>
      </g>
      <g
         style="fill:#000000;fill-opacity:1"
         id="id-b946fcda-e566-4669-b8b6-a1545be0c6d9"
         transform="matrix(0.709456,0,0,0.709456,-27.082474,3.1925875)">
        <g
           transform="translate(167.254,134.765)"
           id="g1577">
          <path
             style="stroke:none;stroke-width:0"
             d="M 1.59375,-0.78125 C 1.5,-0.390625 1.46875,-0.3125 0.6875,-0.3125 c -0.171875,0 -0.265625,0 -0.265625,0.203125 C 0.421875,0 0.515625,0 0.6875,0 H 4.25 C 5.828125,0 7,-1.171875 7,-2.15625 7,-2.875 6.421875,-3.453125 5.453125,-3.5625 6.484375,-3.75 7.53125,-4.484375 7.53125,-5.4375 c 0,-0.734375 -0.65625,-1.375 -1.84375,-1.375 H 2.328125 c -0.1875,0 -0.28125,0 -0.28125,0.203125 0,0.109375 0.09375,0.109375 0.28125,0.109375 0.015625,0 0.203125,0 0.375,0.015625 0.171875,0.03125 0.265625,0.03125 0.265625,0.171875 0,0.03125 -0.015625,0.0625 -0.03125,0.1875 z m 1.5,-2.875 0.625,-2.46875 C 3.8125,-6.46875 3.828125,-6.5 4.25,-6.5 h 1.296875 c 0.875,0 1.078125,0.59375 1.078125,1.03125 0,0.875 -0.859375,1.8125 -2.0625,1.8125 z m -0.4375,3.34375 c -0.140625,0 -0.15625,0 -0.21875,0 -0.109375,-0.015625 -0.140625,-0.03125 -0.140625,-0.109375 0,-0.03125 0,-0.046875 0.0625,-0.21875 l 0.6875,-2.78125 h 1.875 c 0.953125,0 1.15625,0.734375 1.15625,1.15625 C 6.078125,-1.28125 5.1875,-0.3125 4,-0.3125 Z m 0,0"
             id="id-c012e272-8a59-4065-b945-1ee211e1633d" />
        </g>
      </g>
    </g>
    <g
       style="fill:#000000;fill-opacity:1"
       id="g1731"
       transform="matrix(0.709456,0,0,0.709456,-52.268074,9.6077875)">
      <g
         transform="translate(148.712,134.765)"
         id="g1729">
        <path
           style="stroke:none;stroke-width:0"
           d="M 1.78125,-1.140625 C 1.390625,-0.484375 1,-0.34375 0.5625,-0.3125 0.4375,-0.296875 0.34375,-0.296875 0.34375,-0.109375 0.34375,-0.046875 0.40625,0 0.484375,0 0.75,0 1.0625,-0.03125 1.328125,-0.03125 c 0.34375,0 0.6875,0.03125 1,0.03125 0.0625,0 0.1875,0 0.1875,-0.1875 0,-0.109375 -0.078125,-0.125 -0.15625,-0.125 -0.21875,-0.015625 -0.46875,-0.09375 -0.46875,-0.34375 0,-0.125 0.0625,-0.234375 0.140625,-0.375 l 0.765625,-1.265625 h 2.5 c 0.015625,0.203125 0.15625,1.5625 0.15625,1.65625 0,0.296875 -0.515625,0.328125 -0.71875,0.328125 C 4.59375,-0.3125 4.5,-0.3125 4.5,-0.109375 4.5,0 4.609375,0 4.640625,0 5.046875,0 5.46875,-0.03125 5.875,-0.03125 6.125,-0.03125 6.765625,0 7.015625,0 7.0625,0 7.1875,0 7.1875,-0.203125 7.1875,-0.3125 7.09375,-0.3125 6.953125,-0.3125 6.34375,-0.3125 6.34375,-0.375 6.3125,-0.671875 l -0.609375,-6.21875 c -0.015625,-0.203125 -0.015625,-0.25 -0.1875,-0.25 -0.15625,0 -0.203125,0.078125 -0.265625,0.171875 z M 2.984375,-2.609375 4.9375,-5.90625 5.265625,-2.609375 Z m 0,0"
           id="path1727" />
      </g>
    </g>
    <g
       style="fill:#000000;fill-opacity:1"
       id="g1737"
       transform="matrix(0.709456,0,0,0.709456,-4.272874,9.4913924)">
      <g
         transform="translate(167.254,134.765)"
         id="g1735">
        <path
           style="stroke:none;stroke-width:0"
           d="M 1.59375,-0.78125 C 1.5,-0.390625 1.46875,-0.3125 0.6875,-0.3125 c -0.171875,0 -0.265625,0 -0.265625,0.203125 C 0.421875,0 0.515625,0 0.6875,0 H 4.25 C 5.828125,0 7,-1.171875 7,-2.15625 7,-2.875 6.421875,-3.453125 5.453125,-3.5625 6.484375,-3.75 7.53125,-4.484375 7.53125,-5.4375 c 0,-0.734375 -0.65625,-1.375 -1.84375,-1.375 H 2.328125 c -0.1875,0 -0.28125,0 -0.28125,0.203125 0,0.109375 0.09375,0.109375 0.28125,0.109375 0.015625,0 0.203125,0 0.375,0.015625 0.171875,0.03125 0.265625,0.03125 0.265625,0.171875 0,0.03125 -0.015625,0.0625 -0.03125,0.1875 z m 1.5,-2.875 0.625,-2.46875 C 3.8125,-6.46875 3.828125,-6.5 4.25,-6.5 h 1.296875 c 0.875,0 1.078125,0.59375 1.078125,1.03125 0,0.875 -0.859375,1.8125 -2.0625,1.8125 z m -0.4375,3.34375 c -0.140625,0 -0.15625,0 -0.21875,0 -0.109375,-0.015625 -0.140625,-0.03125 -0.140625,-0.109375 0,-0.03125 0,-0.046875 0.0625,-0.21875 l 0.6875,-2.78125 h 1.875 c 0.953125,0 1.15625,0.734375 1.15625,1.15625 C 6.078125,-1.28125 5.1875,-0.3125 4,-0.3125 Z m 0,0"
           id="path1733" />
      </g>
    </g>
  </g>
</svg>
