<?xml version="1.0" encoding="UTF-8" standalone="no"?>
<!-- Created with Inkscape (http://www.inkscape.org/) -->

<svg
   width="80.721611mm"
   height="43.294952mm"
   viewBox="0 0 80.721611 43.294951"
   version="1.1"
   id="svg5"
   sodipodi:docname="array_specialPositions.svg"
   inkscape:version="1.1 (c4e8f9e, 2021-05-24)"
   xmlns:inkscape="http://www.inkscape.org/namespaces/inkscape"
   xmlns:sodipodi="http://sodipodi.sourceforge.net/DTD/sodipodi-0.dtd"
   xmlns="http://www.w3.org/2000/svg"
   xmlns:svg="http://www.w3.org/2000/svg"
   xmlns:ns22="http://www.iki.fi/pav/software/textext/">
  <sodipodi:namedview
     id="namedview7"
     pagecolor="#ffffff"
     bordercolor="#666666"
     borderopacity="1.0"
     inkscape:pageshadow="2"
     inkscape:pageopacity="0.0"
     inkscape:pagecheckerboard="0"
     inkscape:document-units="mm"
     showgrid="false"
     inkscape:zoom="2.4767086"
     inkscape:cx="164.53288"
     inkscape:cy="85.799354"
     inkscape:window-width="1312"
     inkscape:window-height="847"
     inkscape:window-x="0"
     inkscape:window-y="25"
     inkscape:window-maximized="0"
     inkscape:current-layer="layer1"
     inkscape:snap-global="true">
    <inkscape:grid
       type="xygrid"
       id="grid824"
       originx="-44.958588"
       originy="-88.852794" />
  </sodipodi:namedview>
  <defs
     id="defs2">
    <defs
       id="id-b887e698-392d-44eb-bb86-c8ae5528feef">
      <g
         id="id-901ae714-0276-4133-aed5-c9131226fe13">
        <symbol
           overflow="visible"
           id="id-a0bc336f-0f0f-4fdb-bc1d-b4bab02e27d1">
          <path
             style="stroke:none;stroke-width:0"
             d=""
             id="id-d6a991f2-b7ef-4861-83d9-67bab9d4745e" />
        </symbol>
        <symbol
           overflow="visible"
           id="id-b8c56aa8-37af-4089-ae80-5c6ab9cdbc73">
          <path
             style="stroke:none;stroke-width:0"
             d="m 2.828125,-6.234375 c 0,-0.203125 -0.140625,-0.359375 -0.359375,-0.359375 -0.28125,0 -0.546875,0.265625 -0.546875,0.53125 0,0.1875 0.140625,0.359375 0.375,0.359375 0.234375,0 0.53125,-0.234375 0.53125,-0.53125 z m -0.75,3.75 c 0.109375,-0.28125 0.109375,-0.3125 0.21875,-0.578125 0.078125,-0.203125 0.125,-0.34375 0.125,-0.53125 0,-0.4375 -0.3125,-0.8125 -0.8125,-0.8125 -0.9375,0 -1.3125,1.453125 -1.3125,1.53125 0,0.109375 0.09375,0.109375 0.109375,0.109375 0.109375,0 0.109375,-0.03125 0.15625,-0.1875 0.28125,-0.9375 0.671875,-1.234375 1.015625,-1.234375 0.078125,0 0.25,0 0.25,0.3125 0,0.21875 -0.078125,0.421875 -0.109375,0.53125 -0.078125,0.25 -0.53125,1.40625 -0.6875,1.84375 -0.109375,0.25 -0.234375,0.578125 -0.234375,0.796875 0,0.46875 0.34375,0.8125 0.8125,0.8125 0.9375,0 1.3125,-1.4375 1.3125,-1.53125 0,-0.109375 -0.09375,-0.109375 -0.125,-0.109375 -0.09375,0 -0.09375,0.03125 -0.140625,0.1875 -0.1875,0.625 -0.515625,1.234375 -1.015625,1.234375 -0.171875,0 -0.25,-0.09375 -0.25,-0.328125 0,-0.25 0.0625,-0.390625 0.296875,-1 z m 0,0"
             id="id-b182a695-3dce-4f77-9ca3-012cb9af8d6f" />
        </symbol>
        <symbol
           overflow="visible"
           id="id-bdc7cbeb-a65d-4a9d-9a3d-41ef380476aa">
          <path
             style="stroke:none;stroke-width:0"
             d="m 0.875,-0.59375 c -0.03125,0.15625 -0.09375,0.390625 -0.09375,0.4375 0,0.171875 0.140625,0.265625 0.296875,0.265625 0.125,0 0.296875,-0.078125 0.375,-0.28125 0,-0.015625 0.125,-0.484375 0.1875,-0.734375 l 0.21875,-0.890625 C 1.90625,-2.03125 1.96875,-2.25 2.03125,-2.46875 c 0.03125,-0.171875 0.109375,-0.46875 0.125,-0.5 0.140625,-0.3125 0.671875,-1.21875 1.625,-1.21875 0.453125,0 0.53125,0.375 0.53125,0.703125 0,0.609375 -0.484375,1.890625 -0.640625,2.3125 C 3.578125,-0.9375 3.5625,-0.8125 3.5625,-0.703125 c 0,0.46875 0.359375,0.8125 0.828125,0.8125 0.9375,0 1.296875,-1.453125 1.296875,-1.53125 0,-0.109375 -0.078125,-0.109375 -0.109375,-0.109375 -0.109375,0 -0.109375,0.03125 -0.15625,0.1875 -0.203125,0.671875 -0.53125,1.234375 -1.015625,1.234375 -0.171875,0 -0.234375,-0.09375 -0.234375,-0.328125 0,-0.25 0.078125,-0.484375 0.171875,-0.703125 0.1875,-0.53125 0.609375,-1.625 0.609375,-2.203125 0,-0.65625 -0.421875,-1.0625 -1.140625,-1.0625 -0.90625,0 -1.390625,0.640625 -1.5625,0.875 -0.046875,-0.5625 -0.453125,-0.875 -0.921875,-0.875 -0.453125,0 -0.640625,0.390625 -0.734375,0.5625 C 0.421875,-3.5 0.296875,-2.90625 0.296875,-2.875 c 0,0.109375 0.09375,0.109375 0.109375,0.109375 0.109375,0 0.109375,-0.015625 0.171875,-0.234375 0.171875,-0.703125 0.375,-1.1875 0.734375,-1.1875 0.1875,0 0.296875,0.125 0.296875,0.453125 0,0.21875 -0.03125,0.328125 -0.15625,0.84375 z m 0,0"
             id="id-b18929e5-cef2-44eb-a738-864bbb8581da" />
        </symbol>
        <symbol
           overflow="visible"
           id="id-5b388098-6279-4904-b166-bbf7f9bb6cc8">
          <path
             style="stroke:none;stroke-width:0"
             d=""
             id="id-0aeecbab-6639-4ffe-b7be-8c21e39df548" />
        </symbol>
        <symbol
           overflow="visible"
           id="id-75634443-c973-4878-a200-f1cd1f07bbb3">
          <path
             style="stroke:none;stroke-width:0"
             d="m 6.84375,-3.265625 c 0.15625,0 0.34375,0 0.34375,-0.1875 C 7.1875,-3.65625 7,-3.65625 6.859375,-3.65625 h -5.96875 c -0.140625,0 -0.328125,0 -0.328125,0.203125 0,0.1875 0.1875,0.1875 0.328125,0.1875 z m 0.015625,1.9375 c 0.140625,0 0.328125,0 0.328125,-0.203125 0,-0.1875 -0.1875,-0.1875 -0.34375,-0.1875 H 0.890625 c -0.140625,0 -0.328125,0 -0.328125,0.1875 0,0.203125 0.1875,0.203125 0.328125,0.203125 z m 0,0"
             id="id-592d506c-0e30-4e5e-bb87-e96433ff97ea" />
        </symbol>
        <symbol
           overflow="visible"
           id="id-4d6f4d75-8466-4bc7-91ca-5ac2d77ceae6">
          <path
             style="stroke:none;stroke-width:0"
             d="m 2.9375,-6.375 c 0,-0.25 0,-0.265625 -0.234375,-0.265625 C 2.078125,-6 1.203125,-6 0.890625,-6 v 0.3125 c 0.203125,0 0.78125,0 1.296875,-0.265625 v 5.171875 c 0,0.359375 -0.03125,0.46875 -0.921875,0.46875 h -0.3125 V 0 c 0.34375,-0.03125 1.203125,-0.03125 1.609375,-0.03125 0.390625,0 1.265625,0 1.609375,0.03125 v -0.3125 h -0.3125 c -0.90625,0 -0.921875,-0.109375 -0.921875,-0.46875 z m 0,0"
             id="id-5360450a-6425-4432-9dd2-05066a116142" />
        </symbol>
        <symbol
           overflow="visible"
           id="id-3e6799ca-6c58-4b43-a534-3acab80836d5">
          <path
             style="stroke:none;stroke-width:0"
             d="m 1.265625,-0.765625 1.0625,-1.03125 c 1.546875,-1.375 2.140625,-1.90625 2.140625,-2.90625 0,-1.140625 -0.890625,-1.9375 -2.109375,-1.9375 -1.125,0 -1.859375,0.921875 -1.859375,1.8125 0,0.546875 0.5,0.546875 0.53125,0.546875 0.171875,0 0.515625,-0.109375 0.515625,-0.53125 0,-0.25 -0.1875,-0.515625 -0.53125,-0.515625 -0.078125,0 -0.09375,0 -0.125,0.015625 0.21875,-0.65625 0.765625,-1.015625 1.34375,-1.015625 0.90625,0 1.328125,0.8125 1.328125,1.625 C 3.5625,-3.90625 3.078125,-3.125 2.515625,-2.5 l -1.90625,2.125 C 0.5,-0.265625 0.5,-0.234375 0.5,0 H 4.203125 L 4.46875,-1.734375 H 4.234375 C 4.171875,-1.4375 4.109375,-1 4,-0.84375 3.9375,-0.765625 3.28125,-0.765625 3.0625,-0.765625 Z m 0,0"
             id="id-f7c47f17-ac4c-45a2-9c22-8af4dab49daa" />
        </symbol>
        <symbol
           overflow="visible"
           id="id-f250c6be-55c9-418c-81ba-f6bd32218816">
          <path
             style="stroke:none;stroke-width:0"
             d=""
             id="id-0b164747-da1f-41b7-bcce-0f52508405fe" />
        </symbol>
        <symbol
           overflow="visible"
           id="id-6e4df5a2-8261-4e6f-83b9-6bb38d19b3ac">
          <path
             style="stroke:none;stroke-width:0"
             d="m 6.5625,-2.296875 c 0.171875,0 0.359375,0 0.359375,-0.203125 0,-0.1875 -0.1875,-0.1875 -0.359375,-0.1875 H 1.171875 c -0.171875,0 -0.34375,0 -0.34375,0.1875 0,0.203125 0.171875,0.203125 0.34375,0.203125 z m 0,0"
             id="id-d8872cec-32d4-4742-a935-1ae1ed47e1e8" />
        </symbol>
      </g>
    </defs>
    <defs
       id="id-89d57ec0-4d81-42f8-ba25-5e96eb462d00">
      <g
         id="id-94c6f524-fccd-4e6b-b9eb-928339e030ce">
        <symbol
           overflow="visible"
           id="id-cbd62b1a-92b8-4097-b3d4-e231eb32b693">
          <path
             style="stroke:none;stroke-width:0"
             d=""
             id="id-03b43985-6d37-4b4a-a707-65b743dced5d" />
        </symbol>
        <symbol
           overflow="visible"
           id="id-88a26f47-2d91-454c-8528-edb54a356bfe">
          <path
             style="stroke:none;stroke-width:0"
             d="m 2.828125,-6.234375 c 0,-0.203125 -0.140625,-0.359375 -0.359375,-0.359375 -0.28125,0 -0.546875,0.265625 -0.546875,0.53125 0,0.1875 0.140625,0.359375 0.375,0.359375 0.234375,0 0.53125,-0.234375 0.53125,-0.53125 z m -0.75,3.75 c 0.109375,-0.28125 0.109375,-0.3125 0.21875,-0.578125 0.078125,-0.203125 0.125,-0.34375 0.125,-0.53125 0,-0.4375 -0.3125,-0.8125 -0.8125,-0.8125 -0.9375,0 -1.3125,1.453125 -1.3125,1.53125 0,0.109375 0.09375,0.109375 0.109375,0.109375 0.109375,0 0.109375,-0.03125 0.15625,-0.1875 0.28125,-0.9375 0.671875,-1.234375 1.015625,-1.234375 0.078125,0 0.25,0 0.25,0.3125 0,0.21875 -0.078125,0.421875 -0.109375,0.53125 -0.078125,0.25 -0.53125,1.40625 -0.6875,1.84375 -0.109375,0.25 -0.234375,0.578125 -0.234375,0.796875 0,0.46875 0.34375,0.8125 0.8125,0.8125 0.9375,0 1.3125,-1.4375 1.3125,-1.53125 0,-0.109375 -0.09375,-0.109375 -0.125,-0.109375 -0.09375,0 -0.09375,0.03125 -0.140625,0.1875 -0.1875,0.625 -0.515625,1.234375 -1.015625,1.234375 -0.171875,0 -0.25,-0.09375 -0.25,-0.328125 0,-0.25 0.0625,-0.390625 0.296875,-1 z m 0,0"
             id="id-f7b3fd86-5ac0-4322-be40-b9e7b1b96165" />
        </symbol>
        <symbol
           overflow="visible"
           id="id-557435b5-9b50-45b3-ba06-6968b27ab041">
          <path
             style="stroke:none;stroke-width:0"
             d="m 0.875,-0.59375 c -0.03125,0.15625 -0.09375,0.390625 -0.09375,0.4375 0,0.171875 0.140625,0.265625 0.296875,0.265625 0.125,0 0.296875,-0.078125 0.375,-0.28125 0,-0.015625 0.125,-0.484375 0.1875,-0.734375 l 0.21875,-0.890625 C 1.90625,-2.03125 1.96875,-2.25 2.03125,-2.46875 c 0.03125,-0.171875 0.109375,-0.46875 0.125,-0.5 0.140625,-0.3125 0.671875,-1.21875 1.625,-1.21875 0.453125,0 0.53125,0.375 0.53125,0.703125 0,0.609375 -0.484375,1.890625 -0.640625,2.3125 C 3.578125,-0.9375 3.5625,-0.8125 3.5625,-0.703125 c 0,0.46875 0.359375,0.8125 0.828125,0.8125 0.9375,0 1.296875,-1.453125 1.296875,-1.53125 0,-0.109375 -0.078125,-0.109375 -0.109375,-0.109375 -0.109375,0 -0.109375,0.03125 -0.15625,0.1875 -0.203125,0.671875 -0.53125,1.234375 -1.015625,1.234375 -0.171875,0 -0.234375,-0.09375 -0.234375,-0.328125 0,-0.25 0.078125,-0.484375 0.171875,-0.703125 0.1875,-0.53125 0.609375,-1.625 0.609375,-2.203125 0,-0.65625 -0.421875,-1.0625 -1.140625,-1.0625 -0.90625,0 -1.390625,0.640625 -1.5625,0.875 -0.046875,-0.5625 -0.453125,-0.875 -0.921875,-0.875 -0.453125,0 -0.640625,0.390625 -0.734375,0.5625 C 0.421875,-3.5 0.296875,-2.90625 0.296875,-2.875 c 0,0.109375 0.09375,0.109375 0.109375,0.109375 0.109375,0 0.109375,-0.015625 0.171875,-0.234375 0.171875,-0.703125 0.375,-1.1875 0.734375,-1.1875 0.1875,0 0.296875,0.125 0.296875,0.453125 0,0.21875 -0.03125,0.328125 -0.15625,0.84375 z m 0,0"
             id="id-a723a3e6-03da-416d-bf38-e0e6f90d5e06" />
        </symbol>
        <symbol
           overflow="visible"
           id="id-7dc4cf89-efdb-421d-bf4a-858970d63804">
          <path
             style="stroke:none;stroke-width:0"
             d=""
             id="id-cdf15c4a-27cc-4bc5-bd41-398b5ba6c402" />
        </symbol>
        <symbol
           overflow="visible"
           id="id-457f92ed-cdb9-4cc3-a95c-67f1a5252c65">
          <path
             style="stroke:none;stroke-width:0"
             d="m 6.84375,-3.265625 c 0.15625,0 0.34375,0 0.34375,-0.1875 C 7.1875,-3.65625 7,-3.65625 6.859375,-3.65625 h -5.96875 c -0.140625,0 -0.328125,0 -0.328125,0.203125 0,0.1875 0.1875,0.1875 0.328125,0.1875 z m 0.015625,1.9375 c 0.140625,0 0.328125,0 0.328125,-0.203125 0,-0.1875 -0.1875,-0.1875 -0.34375,-0.1875 H 0.890625 c -0.140625,0 -0.328125,0 -0.328125,0.1875 0,0.203125 0.1875,0.203125 0.328125,0.203125 z m 0,0"
             id="id-bdc77360-8a20-469c-a9f7-38095f25f67d" />
        </symbol>
        <symbol
           overflow="visible"
           id="id-9959adca-8329-49c4-a7a1-2643e4e0131a">
          <path
             style="stroke:none;stroke-width:0"
             d="m 1.265625,-0.765625 1.0625,-1.03125 c 1.546875,-1.375 2.140625,-1.90625 2.140625,-2.90625 0,-1.140625 -0.890625,-1.9375 -2.109375,-1.9375 -1.125,0 -1.859375,0.921875 -1.859375,1.8125 0,0.546875 0.5,0.546875 0.53125,0.546875 0.171875,0 0.515625,-0.109375 0.515625,-0.53125 0,-0.25 -0.1875,-0.515625 -0.53125,-0.515625 -0.078125,0 -0.09375,0 -0.125,0.015625 0.21875,-0.65625 0.765625,-1.015625 1.34375,-1.015625 0.90625,0 1.328125,0.8125 1.328125,1.625 C 3.5625,-3.90625 3.078125,-3.125 2.515625,-2.5 l -1.90625,2.125 C 0.5,-0.265625 0.5,-0.234375 0.5,0 H 4.203125 L 4.46875,-1.734375 H 4.234375 C 4.171875,-1.4375 4.109375,-1 4,-0.84375 3.9375,-0.765625 3.28125,-0.765625 3.0625,-0.765625 Z m 0,0"
             id="id-d7f01597-ab38-4a3b-82c8-3f25a4b6d091" />
        </symbol>
        <symbol
           overflow="visible"
           id="id-4d3a8fbc-820b-4d24-8390-d27b4632dcb9">
          <path
             style="stroke:none;stroke-width:0"
             d="m 2.9375,-6.375 c 0,-0.25 0,-0.265625 -0.234375,-0.265625 C 2.078125,-6 1.203125,-6 0.890625,-6 v 0.3125 c 0.203125,0 0.78125,0 1.296875,-0.265625 v 5.171875 c 0,0.359375 -0.03125,0.46875 -0.921875,0.46875 h -0.3125 V 0 c 0.34375,-0.03125 1.203125,-0.03125 1.609375,-0.03125 0.390625,0 1.265625,0 1.609375,0.03125 v -0.3125 h -0.3125 c -0.90625,0 -0.921875,-0.109375 -0.921875,-0.46875 z m 0,0"
             id="id-6b801851-0ba6-43fd-bb62-59227ee57898" />
        </symbol>
        <symbol
           overflow="visible"
           id="id-db986ced-2c55-4c43-b3ad-2b63c85e22c0">
          <path
             style="stroke:none;stroke-width:0"
             d=""
             id="id-23d40193-d7a8-4961-8bc9-baa27e4da8f9" />
        </symbol>
        <symbol
           overflow="visible"
           id="id-966555c4-b3de-4b67-9382-e6bceca4bf5b">
          <path
             style="stroke:none;stroke-width:0"
             d="m 6.5625,-2.296875 c 0.171875,0 0.359375,0 0.359375,-0.203125 0,-0.1875 -0.1875,-0.1875 -0.359375,-0.1875 H 1.171875 c -0.171875,0 -0.34375,0 -0.34375,0.1875 0,0.203125 0.171875,0.203125 0.34375,0.203125 z m 0,0"
             id="id-bd30d608-6ee7-42c0-884a-2af485c2ba17" />
        </symbol>
      </g>
    </defs>
    <defs
       id="id-7f5b3c3c-7106-436b-a636-02a26a7ed06b">
      <g
         id="id-6541d6c6-94eb-4b1a-8cb7-ce805ccf519e">
        <symbol
           overflow="visible"
           id="id-1584ec25-939f-45ae-93a0-9e4a9d3d7fad">
          <path
             style="stroke:none"
             d=""
             id="id-defc5bac-c51f-4fc9-a9f3-1104c27057c8" />
        </symbol>
        <symbol
           overflow="visible"
           id="id-fbd263bd-4298-4d04-a7be-49e066a162ce">
          <path
             style="stroke:none"
             d="m 2.828125,-6.234375 c 0,-0.203125 -0.140625,-0.359375 -0.359375,-0.359375 -0.28125,0 -0.546875,0.265625 -0.546875,0.53125 0,0.1875 0.140625,0.359375 0.375,0.359375 0.234375,0 0.53125,-0.234375 0.53125,-0.53125 z m -0.75,3.75 c 0.109375,-0.28125 0.109375,-0.3125 0.21875,-0.578125 0.078125,-0.203125 0.125,-0.34375 0.125,-0.53125 0,-0.4375 -0.3125,-0.8125 -0.8125,-0.8125 -0.9375,0 -1.3125,1.453125 -1.3125,1.53125 0,0.109375 0.09375,0.109375 0.109375,0.109375 0.109375,0 0.109375,-0.03125 0.15625,-0.1875 0.28125,-0.9375 0.671875,-1.234375 1.015625,-1.234375 0.078125,0 0.25,0 0.25,0.3125 0,0.21875 -0.078125,0.421875 -0.109375,0.53125 -0.078125,0.25 -0.53125,1.40625 -0.6875,1.84375 -0.109375,0.25 -0.234375,0.578125 -0.234375,0.796875 0,0.46875 0.34375,0.8125 0.8125,0.8125 0.9375,0 1.3125,-1.4375 1.3125,-1.53125 0,-0.109375 -0.09375,-0.109375 -0.125,-0.109375 -0.09375,0 -0.09375,0.03125 -0.140625,0.1875 -0.1875,0.625 -0.515625,1.234375 -1.015625,1.234375 -0.171875,0 -0.25,-0.09375 -0.25,-0.328125 0,-0.25 0.0625,-0.390625 0.296875,-1 z m 0,0"
             id="id-257d982e-977c-4834-aa78-a44e5333a540" />
        </symbol>
        <symbol
           overflow="visible"
           id="id-ec299bfa-2f0d-4b17-93e3-9b0418e2c53c">
          <path
             style="stroke:none"
             d="m 0.875,-0.59375 c -0.03125,0.15625 -0.09375,0.390625 -0.09375,0.4375 0,0.171875 0.140625,0.265625 0.296875,0.265625 0.125,0 0.296875,-0.078125 0.375,-0.28125 0,-0.015625 0.125,-0.484375 0.1875,-0.734375 l 0.21875,-0.890625 C 1.90625,-2.03125 1.96875,-2.25 2.03125,-2.46875 c 0.03125,-0.171875 0.109375,-0.46875 0.125,-0.5 0.140625,-0.3125 0.671875,-1.21875 1.625,-1.21875 0.453125,0 0.53125,0.375 0.53125,0.703125 0,0.609375 -0.484375,1.890625 -0.640625,2.3125 C 3.578125,-0.9375 3.5625,-0.8125 3.5625,-0.703125 c 0,0.46875 0.359375,0.8125 0.828125,0.8125 0.9375,0 1.296875,-1.453125 1.296875,-1.53125 0,-0.109375 -0.078125,-0.109375 -0.109375,-0.109375 -0.109375,0 -0.109375,0.03125 -0.15625,0.1875 -0.203125,0.671875 -0.53125,1.234375 -1.015625,1.234375 -0.171875,0 -0.234375,-0.09375 -0.234375,-0.328125 0,-0.25 0.078125,-0.484375 0.171875,-0.703125 0.1875,-0.53125 0.609375,-1.625 0.609375,-2.203125 0,-0.65625 -0.421875,-1.0625 -1.140625,-1.0625 -0.90625,0 -1.390625,0.640625 -1.5625,0.875 -0.046875,-0.5625 -0.453125,-0.875 -0.921875,-0.875 -0.453125,0 -0.640625,0.390625 -0.734375,0.5625 C 0.421875,-3.5 0.296875,-2.90625 0.296875,-2.875 c 0,0.109375 0.09375,0.109375 0.109375,0.109375 0.109375,0 0.109375,-0.015625 0.171875,-0.234375 0.171875,-0.703125 0.375,-1.1875 0.734375,-1.1875 0.1875,0 0.296875,0.125 0.296875,0.453125 0,0.21875 -0.03125,0.328125 -0.15625,0.84375 z m 0,0"
             id="id-5bbcc31e-e2ba-494e-a031-2e7337ebfdd1" />
        </symbol>
        <symbol
           overflow="visible"
           id="id-1f62c7f6-523f-436f-8744-7f1353e92402">
          <path
             style="stroke:none"
             d=""
             id="id-6dc79961-2390-45b4-9cb1-b636835dfee1" />
        </symbol>
        <symbol
           overflow="visible"
           id="id-4e4045ba-36d9-4b39-bf43-0c28ae13b9b5">
          <path
             style="stroke:none"
             d="m 6.84375,-3.265625 c 0.15625,0 0.34375,0 0.34375,-0.1875 C 7.1875,-3.65625 7,-3.65625 6.859375,-3.65625 h -5.96875 c -0.140625,0 -0.328125,0 -0.328125,0.203125 0,0.1875 0.1875,0.1875 0.328125,0.1875 z m 0.015625,1.9375 c 0.140625,0 0.328125,0 0.328125,-0.203125 0,-0.1875 -0.1875,-0.1875 -0.34375,-0.1875 H 0.890625 c -0.140625,0 -0.328125,0 -0.328125,0.1875 0,0.203125 0.1875,0.203125 0.328125,0.203125 z m 0,0"
             id="id-71f675b6-5887-40cb-b6f3-c1d63d36fd05" />
        </symbol>
        <symbol
           overflow="visible"
           id="id-5cd06508-5882-4cc0-b72c-624ad7abaa8e">
          <path
             style="stroke:none"
             d="m 1.265625,-0.765625 1.0625,-1.03125 c 1.546875,-1.375 2.140625,-1.90625 2.140625,-2.90625 0,-1.140625 -0.890625,-1.9375 -2.109375,-1.9375 -1.125,0 -1.859375,0.921875 -1.859375,1.8125 0,0.546875 0.5,0.546875 0.53125,0.546875 0.171875,0 0.515625,-0.109375 0.515625,-0.53125 0,-0.25 -0.1875,-0.515625 -0.53125,-0.515625 -0.078125,0 -0.09375,0 -0.125,0.015625 0.21875,-0.65625 0.765625,-1.015625 1.34375,-1.015625 0.90625,0 1.328125,0.8125 1.328125,1.625 C 3.5625,-3.90625 3.078125,-3.125 2.515625,-2.5 l -1.90625,2.125 C 0.5,-0.265625 0.5,-0.234375 0.5,0 H 4.203125 L 4.46875,-1.734375 H 4.234375 C 4.171875,-1.4375 4.109375,-1 4,-0.84375 3.9375,-0.765625 3.28125,-0.765625 3.0625,-0.765625 Z m 0,0"
             id="id-47c13568-a672-464f-9f7a-edae15fb01e1" />
        </symbol>
        <symbol
           overflow="visible"
           id="id-36ee7c38-6b8a-4b54-9030-c62d71096750">
          <path
             style="stroke:none"
             d="m 2.9375,-6.375 c 0,-0.25 0,-0.265625 -0.234375,-0.265625 C 2.078125,-6 1.203125,-6 0.890625,-6 v 0.3125 c 0.203125,0 0.78125,0 1.296875,-0.265625 v 5.171875 c 0,0.359375 -0.03125,0.46875 -0.921875,0.46875 h -0.3125 V 0 c 0.34375,-0.03125 1.203125,-0.03125 1.609375,-0.03125 0.390625,0 1.265625,0 1.609375,0.03125 v -0.3125 h -0.3125 c -0.90625,0 -0.921875,-0.109375 -0.921875,-0.46875 z m 0,0"
             id="id-b5fd476b-64b0-4d15-966b-98161146affc" />
        </symbol>
        <symbol
           overflow="visible"
           id="id-0cdb3a3c-b00e-4bf6-8b47-5dbec4f914fb">
          <path
             style="stroke:none"
             d=""
             id="id-a06dbeee-547d-4abc-8a77-48e7015b3e89" />
        </symbol>
        <symbol
           overflow="visible"
           id="id-580bdb50-ef6f-4aa6-914e-2973bb0b330b">
          <path
             style="stroke:none"
             d="m 6.5625,-2.296875 c 0.171875,0 0.359375,0 0.359375,-0.203125 0,-0.1875 -0.1875,-0.1875 -0.359375,-0.1875 H 1.171875 c -0.171875,0 -0.34375,0 -0.34375,0.1875 0,0.203125 0.171875,0.203125 0.34375,0.203125 z m 0,0"
             id="id-ba54f4c6-d5f4-42b8-a423-f74cbc60d22d" />
        </symbol>
      </g>
    </defs>
  </defs>
  <g
     inkscape:label="Layer 1"
     inkscape:groupmode="layer"
     id="layer1"
     transform="translate(-44.958586,-88.852794)">
    <g
       id="g3278">
      <g
         id="g1218"
         transform="translate(-14.401593,-23.723479)"
         style="fill:#dc0000">
        <path
           style="fill:#dc0000;fill-opacity:1;stroke:none;stroke-width:0"
           d="m 66.430084,126.90166 c 0,-0.077 -0.0533,-0.13621 -0.136203,-0.13621 -0.106594,0 -0.207266,0.10067 -0.207266,0.20135 0,0.0711 0.0533,0.1362 0.142125,0.1362 0.08883,0 0.201344,-0.0888 0.201344,-0.20134 z m -0.284251,1.42125 c 0.04145,-0.10659 0.04145,-0.11844 0.08291,-0.21911 0.02961,-0.077 0.04738,-0.13028 0.04738,-0.20134 0,-0.16582 -0.118438,-0.30794 -0.307938,-0.30794 -0.355314,0 -0.497439,0.55073 -0.497439,0.58034 0,0.0415 0.03553,0.0415 0.04145,0.0415 0.04145,0 0.04145,-0.0119 0.05922,-0.0711 0.106594,-0.35531 0.254641,-0.46783 0.384923,-0.46783 0.02961,0 0.09475,0 0.09475,0.11844 0,0.0829 -0.02961,0.15989 -0.04145,0.20135 -0.02961,0.0948 -0.201344,0.53297 -0.260563,0.69878 -0.04145,0.0948 -0.08883,0.21911 -0.08883,0.30201 0,0.17766 0.130282,0.30794 0.307939,0.30794 0.355313,0 0.497439,-0.54481 0.497439,-0.58034 0,-0.0415 -0.03553,-0.0415 -0.04738,-0.0415 -0.03553,0 -0.03553,0.0118 -0.0533,0.0711 -0.07106,0.23687 -0.195422,0.46783 -0.384922,0.46783 -0.06514,0 -0.09475,-0.0355 -0.09475,-0.12436 0,-0.0948 0.02369,-0.14805 0.112516,-0.379 z m 0,0"
           id="id-5ca42c06-8e74-46c4-be78-3e695d4b659f" />
        <path
           style="fill:#dc0000;fill-opacity:1;stroke:none;stroke-width:0"
           d="m 70.301816,128.02681 c 0.05922,0 0.130282,0 0.130282,-0.0711 0,-0.077 -0.07106,-0.077 -0.12436,-0.077 h -2.262162 c -0.0533,0 -0.12436,0 -0.12436,0.077 0,0.0711 0.07106,0.0711 0.12436,0.0711 z m 0.0059,0.73432 c 0.0533,0 0.12436,0 0.12436,-0.077 0,-0.0711 -0.07106,-0.0711 -0.130282,-0.0711 h -2.25624 c -0.0533,0 -0.12436,0 -0.12436,0.0711 0,0.077 0.07106,0.077 0.12436,0.077 z m 0,0"
           id="id-f993b356-43c3-4ec5-a17b-c01cf5fa6ad7" />
        <path
           style="fill:#dc0000;fill-opacity:1;stroke:none;stroke-width:0"
           d="m 72.808054,126.84836 c 0,-0.0948 0,-0.10067 -0.08883,-0.10067 -0.236876,0.24279 -0.568501,0.24279 -0.686939,0.24279 v 0.11844 c 0.07698,0 0.296094,0 0.491517,-0.10067 v 1.96015 c 0,0.1362 -0.01184,0.17765 -0.349392,0.17765 h -0.118438 v 0.11844 c 0.130282,-0.0118 0.455986,-0.0118 0.609955,-0.0118 0.148047,0 0.479673,0 0.609955,0.0118 v -0.11844 h -0.118438 c -0.34347,0 -0.349392,-0.0414 -0.349392,-0.17765 z m 0,0"
           id="id-dd059b02-6875-4f60-a93d-481ac2e46b30" />
      </g>
      <rect
         style="font-variation-settings:normal;vector-effect:none;fill:none;fill-opacity:1;fill-rule:evenodd;stroke:#000000;stroke-width:0.264583;stroke-linecap:butt;stroke-linejoin:miter;stroke-miterlimit:4;stroke-dasharray:none;stroke-dashoffset:0;stroke-opacity:1;stop-color:#000000"
         id="rect848"
         width="5.2916665"
         height="5.2916665"
         x="60.854164"
         y="111.125" />
      <rect
         style="font-variation-settings:normal;vector-effect:none;fill:none;fill-opacity:1;fill-rule:evenodd;stroke:#000000;stroke-width:0.264583;stroke-linecap:butt;stroke-linejoin:miter;stroke-miterlimit:4;stroke-dasharray:none;stroke-dashoffset:0;stroke-opacity:1;stop-color:#000000"
         id="rect930"
         width="5.2916665"
         height="5.2916665"
         x="66.145828"
         y="111.125" />
      <rect
         style="font-variation-settings:normal;vector-effect:none;fill:none;fill-opacity:1;fill-rule:evenodd;stroke:#000000;stroke-width:0.264583;stroke-linecap:butt;stroke-linejoin:miter;stroke-miterlimit:4;stroke-dasharray:none;stroke-dashoffset:0;stroke-opacity:1;stop-color:#000000"
         id="rect932"
         width="5.2916665"
         height="5.2916665"
         x="71.437492"
         y="111.125" />
      <rect
         style="font-variation-settings:normal;vector-effect:none;fill:none;fill-opacity:1;fill-rule:evenodd;stroke:#000000;stroke-width:0.264583;stroke-linecap:butt;stroke-linejoin:miter;stroke-miterlimit:4;stroke-dasharray:none;stroke-dashoffset:0;stroke-opacity:1;stop-color:#000000"
         id="rect934"
         width="5.2916665"
         height="5.2916665"
         x="76.729156"
         y="111.125" />
      <rect
         style="font-variation-settings:normal;vector-effect:none;fill:#9ade00;fill-opacity:1;fill-rule:evenodd;stroke:#000000;stroke-width:0.264583;stroke-linecap:butt;stroke-linejoin:miter;stroke-miterlimit:4;stroke-dasharray:none;stroke-dashoffset:0;stroke-opacity:1;stop-color:#000000"
         id="rect936"
         width="5.2916665"
         height="5.2916665"
         x="82.020821"
         y="111.125" />
      <rect
         style="font-variation-settings:normal;vector-effect:none;fill:none;fill-opacity:1;fill-rule:evenodd;stroke:#000000;stroke-width:0.264583;stroke-linecap:butt;stroke-linejoin:miter;stroke-miterlimit:4;stroke-dasharray:none;stroke-dashoffset:0;stroke-opacity:1;stop-color:#000000"
         id="rect938"
         width="5.2916665"
         height="5.2916665"
         x="87.312485"
         y="111.125" />
      <rect
         style="font-variation-settings:normal;vector-effect:none;fill:none;fill-opacity:1;fill-rule:evenodd;stroke:#000000;stroke-width:0.264583;stroke-linecap:butt;stroke-linejoin:miter;stroke-miterlimit:4;stroke-dasharray:none;stroke-dashoffset:0;stroke-opacity:1;stop-color:#000000"
         id="rect940"
         width="5.2916665"
         height="5.2916665"
         x="92.604149"
         y="111.125" />
      <rect
         style="font-variation-settings:normal;vector-effect:none;fill:none;fill-opacity:1;fill-rule:evenodd;stroke:#000000;stroke-width:0.264583;stroke-linecap:butt;stroke-linejoin:miter;stroke-miterlimit:4;stroke-dasharray:none;stroke-dashoffset:0;stroke-opacity:1;stop-color:#000000"
         id="rect942"
         width="5.2916665"
         height="5.2916665"
         x="97.895813"
         y="111.125" />
      <rect
         style="font-variation-settings:normal;vector-effect:none;fill:#ff9900;fill-opacity:1;fill-rule:evenodd;stroke:#000000;stroke-width:0.264583;stroke-linecap:butt;stroke-linejoin:miter;stroke-miterlimit:4;stroke-dasharray:none;stroke-dashoffset:0;stroke-opacity:1;stop-color:#000000"
         id="rect944"
         width="5.2916665"
         height="5.2916665"
         x="103.18748"
         y="111.125" />
      <rect
         style="font-variation-settings:normal;vector-effect:none;fill:none;fill-opacity:1;fill-rule:evenodd;stroke:#000000;stroke-width:0.264583;stroke-linecap:butt;stroke-linejoin:miter;stroke-miterlimit:4;stroke-dasharray:none;stroke-dashoffset:0;stroke-opacity:1;stop-color:#000000"
         id="rect946"
         width="5.2916665"
         height="5.2916665"
         x="108.47914"
         y="111.125" />
      <rect
         style="font-variation-settings:normal;vector-effect:none;fill:#19aeff;fill-opacity:1;fill-rule:evenodd;stroke:#000000;stroke-width:0.264583;stroke-linecap:butt;stroke-linejoin:miter;stroke-miterlimit:4;stroke-dasharray:none;stroke-dashoffset:0;stroke-opacity:1;stop-color:#000000"
         id="rect948"
         width="5.2916665"
         height="5.2916665"
         x="108.47914"
         y="111.125" />
      <rect
         style="font-variation-settings:normal;vector-effect:none;fill:#ff4141;fill-opacity:1;fill-rule:evenodd;stroke:#000000;stroke-width:0.264583;stroke-linecap:butt;stroke-linejoin:miter;stroke-miterlimit:4;stroke-dasharray:none;stroke-dashoffset:0;stroke-opacity:1;stop-color:#000000"
         id="rect1230"
         width="5.2916665"
         height="5.2916665"
         x="55.562496"
         y="111.125" />
      <g
         id="g2264"
         transform="translate(12.881377,-17.144979)"
         style="fill:#009100">
        <path
           style="fill:#009100;fill-opacity:1;stroke:none;stroke-width:0"
           d="m 67.788199,119.90262 c 0,-0.077 -0.0533,-0.13621 -0.136203,-0.13621 -0.106594,0 -0.207266,0.10067 -0.207266,0.20135 0,0.0711 0.0533,0.1362 0.142125,0.1362 0.08883,0 0.201344,-0.0888 0.201344,-0.20134 z m -0.284251,1.42125 c 0.04145,-0.10659 0.04145,-0.11844 0.08291,-0.21911 0.02961,-0.077 0.04738,-0.13028 0.04738,-0.20134 0,-0.16582 -0.118438,-0.30794 -0.307938,-0.30794 -0.355314,0 -0.497439,0.55073 -0.497439,0.58034 0,0.0415 0.03553,0.0415 0.04145,0.0415 0.04145,0 0.04145,-0.0118 0.05922,-0.0711 0.106594,-0.35531 0.254641,-0.46783 0.384923,-0.46783 0.02961,0 0.09475,0 0.09475,0.11844 0,0.0829 -0.02961,0.15989 -0.04145,0.20135 -0.02961,0.0948 -0.201344,0.53297 -0.260563,0.69878 -0.04145,0.0948 -0.08883,0.21911 -0.08883,0.30201 0,0.17766 0.130282,0.30794 0.307939,0.30794 0.355313,0 0.497439,-0.54481 0.497439,-0.58034 0,-0.0415 -0.03553,-0.0415 -0.04738,-0.0415 -0.03553,0 -0.03553,0.0118 -0.0533,0.0711 -0.07106,0.23687 -0.195422,0.46783 -0.384922,0.46783 -0.06514,0 -0.09475,-0.0355 -0.09475,-0.12436 0,-0.0947 0.02369,-0.14805 0.112516,-0.379 z m 0,0"
           id="id-5843b2ff-10cb-4a6f-bdeb-3e493669545f" />
        <path
           style="fill:#009100;fill-opacity:1;stroke:none;stroke-width:0"
           d="m 71.659931,121.02777 c 0.05922,0 0.130282,0 0.130282,-0.0711 0,-0.077 -0.07106,-0.077 -0.12436,-0.077 h -2.262162 c -0.0533,0 -0.12436,0 -0.12436,0.077 0,0.0711 0.07106,0.0711 0.12436,0.0711 z m 0.0059,0.73432 c 0.0533,0 0.12436,0 0.12436,-0.077 0,-0.0711 -0.07106,-0.0711 -0.130282,-0.0711 h -2.25624 c -0.0533,0 -0.12436,0 -0.12436,0.0711 0,0.077 0.07106,0.077 0.12436,0.077 z m 0,0"
           id="id-4bdbe31e-4ab6-4419-8d06-21ebc7bc73b9" />
        <path
           style="fill:#009100;fill-opacity:1;stroke:none;stroke-width:0"
           d="m 73.83625,119.48596 c -0.01184,0.0592 -0.03553,0.14805 -0.03553,0.16581 0,0.0651 0.0533,0.10067 0.112515,0.10067 0.04738,0 0.112516,-0.0296 0.142126,-0.10659 0,-0.006 0.04738,-0.18358 0.07106,-0.27833 l 0.08291,-0.33755 c 0.01777,-0.0888 0.04145,-0.17173 0.06514,-0.25464 0.01184,-0.0651 0.04145,-0.17766 0.04738,-0.1895 0.0533,-0.11844 0.254641,-0.46191 0.615877,-0.46191 0.171734,0 0.201344,0.14213 0.201344,0.26649 0,0.23095 -0.183579,0.71655 -0.242798,0.87644 -0.03553,0.0888 -0.04145,0.1362 -0.04145,0.17765 0,0.17766 0.136204,0.30794 0.31386,0.30794 0.355314,0 0.491517,-0.55073 0.491517,-0.58034 0,-0.0415 -0.02961,-0.0415 -0.04145,-0.0415 -0.04145,0 -0.04145,0.0118 -0.05922,0.0711 -0.07699,0.25464 -0.201344,0.46783 -0.384923,0.46783 -0.06514,0 -0.08883,-0.0355 -0.08883,-0.12436 0,-0.0948 0.02961,-0.18358 0.06514,-0.26649 0.07106,-0.20134 0.230953,-0.61587 0.230953,-0.83498 0,-0.24872 -0.159891,-0.40269 -0.432298,-0.40269 -0.343469,0 -0.527048,0.24279 -0.592189,0.33162 -0.01776,-0.21319 -0.171735,-0.33162 -0.349391,-0.33162 -0.171735,0 -0.242798,0.14804 -0.278329,0.21318 -0.06514,0.13029 -0.112516,0.35532 -0.112516,0.36716 0,0.0415 0.03553,0.0415 0.04145,0.0415 0.04145,0 0.04145,-0.006 0.06514,-0.0888 0.06514,-0.26649 0.142125,-0.45007 0.278329,-0.45007 0.07106,0 0.112516,0.0474 0.112516,0.17174 0,0.0829 -0.01184,0.12436 -0.05922,0.31978 z m 0,0"
           id="id-fdbd0fa5-f902-4cec-b6d1-435c2da95fa0" />
        <path
           style="fill:#009100;stroke:#009100;stroke-width:0.150842;stroke-linecap:butt;stroke-linejoin:miter;stroke-miterlimit:10;stroke-opacity:1"
           d="m 73.503902,121.3213 h 2.266603"
           id="id-6969a164-07b6-4396-bcf8-385d7c9967d1" />
        <path
           style="fill:#009100;fill-opacity:1;stroke:none;stroke-width:0"
           d="m 74.173797,124.56538 0.402689,-0.39085 c 0.586267,-0.52112 0.811299,-0.72247 0.811299,-1.10147 0,-0.4323 -0.337548,-0.73431 -0.799456,-0.73431 -0.426376,0 -0.704705,0.34939 -0.704705,0.68694 0,0.20726 0.189501,0.20726 0.201345,0.20726 0.06514,0 0.195422,-0.0414 0.195422,-0.20134 0,-0.0948 -0.07106,-0.19542 -0.201344,-0.19542 -0.02961,0 -0.03553,0 -0.04738,0.006 0.08291,-0.24872 0.290172,-0.38493 0.509282,-0.38493 0.34347,0 0.503361,0.30794 0.503361,0.61588 0,0.30202 -0.183579,0.59811 -0.396767,0.83499 l -0.72247,0.80537 c -0.04145,0.0415 -0.04145,0.0533 -0.04145,0.14213 h 1.403489 l 0.100672,-0.65733 h -0.08883 c -0.02369,0.11252 -0.04738,0.27833 -0.08883,0.33755 -0.02369,0.0296 -0.272407,0.0296 -0.355313,0.0296 z m 0,0"
           id="id-9f79dc0f-6bde-4477-88e0-9e183ec01f1f" />
      </g>
      <g
         id="g2271"
         transform="translate(20.781005,-16.724439)"
         style="fill:#ff6600">
        <path
           style="fill:#ff6600;fill-opacity:1;stroke:none;stroke-width:0"
           d="m 78.554859,119.90262 c 0,-0.077 -0.0533,-0.13621 -0.136203,-0.13621 -0.106594,0 -0.207266,0.10067 -0.207266,0.20135 0,0.0711 0.0533,0.1362 0.142125,0.1362 0.08883,0 0.201344,-0.0888 0.201344,-0.20134 z m -0.284251,1.42125 c 0.04145,-0.10659 0.04145,-0.11844 0.08291,-0.21911 0.02961,-0.077 0.04738,-0.13028 0.04738,-0.20134 0,-0.16582 -0.118438,-0.30794 -0.307938,-0.30794 -0.355314,0 -0.497439,0.55073 -0.497439,0.58034 0,0.0415 0.03553,0.0415 0.04145,0.0415 0.04145,0 0.04145,-0.0118 0.05922,-0.0711 0.106594,-0.35531 0.254641,-0.46783 0.384923,-0.46783 0.02961,0 0.09475,0 0.09475,0.11844 0,0.0829 -0.02961,0.15989 -0.04145,0.20135 -0.02961,0.0948 -0.201344,0.53297 -0.260563,0.69878 -0.04145,0.0948 -0.08883,0.21911 -0.08883,0.30201 0,0.17766 0.130282,0.30794 0.307939,0.30794 0.355313,0 0.497439,-0.54481 0.497439,-0.58034 0,-0.0415 -0.03553,-0.0415 -0.04738,-0.0415 -0.03553,0 -0.03553,0.0118 -0.0533,0.0711 -0.07106,0.23687 -0.195422,0.46783 -0.384922,0.46783 -0.06514,0 -0.09475,-0.0355 -0.09475,-0.12436 0,-0.0947 0.02369,-0.14805 0.112516,-0.379 z m 0,0"
           id="id-07537c49-19fa-4015-adba-43da9a9986cf" />
        <path
           style="fill:#ff6600;fill-opacity:1;stroke:none;stroke-width:0"
           d="m 82.426212,121.02777 c 0.05922,0 0.130282,0 0.130282,-0.0711 0,-0.077 -0.07106,-0.077 -0.12436,-0.077 h -2.262162 c -0.0533,0 -0.12436,0 -0.12436,0.077 0,0.0711 0.07106,0.0711 0.12436,0.0711 z m 0.0059,0.73432 c 0.0533,0 0.12436,0 0.12436,-0.077 0,-0.0711 -0.07106,-0.0711 -0.130282,-0.0711 h -2.25624 c -0.0533,0 -0.12436,0 -0.12436,0.0711 0,0.077 0.07106,0.077 0.12436,0.077 z m 0,0"
           id="id-699506b8-d742-4b21-ace9-c2cbe9437e22" />
        <path
           style="fill:#ff6600;fill-opacity:1;stroke:none;stroke-width:0"
           d="m 84.149625,122.04042 c -0.01184,0.0592 -0.03553,0.14805 -0.03553,0.16581 0,0.0651 0.0533,0.10067 0.112515,0.10067 0.04738,0 0.112516,-0.0296 0.142126,-0.10659 0,-0.006 0.04738,-0.18358 0.07106,-0.27833 l 0.08291,-0.33755 c 0.01777,-0.0888 0.04145,-0.17173 0.06514,-0.25464 0.01184,-0.0651 0.04145,-0.17766 0.04738,-0.1895 0.0533,-0.11844 0.254641,-0.46191 0.615877,-0.46191 0.171734,0 0.201344,0.14213 0.201344,0.26649 0,0.23095 -0.183579,0.71655 -0.242798,0.87644 -0.03553,0.0888 -0.04145,0.1362 -0.04145,0.17765 0,0.17766 0.136204,0.30794 0.31386,0.30794 0.355314,0 0.491517,-0.55073 0.491517,-0.58034 0,-0.0415 -0.02961,-0.0415 -0.04145,-0.0415 -0.04145,0 -0.04145,0.0118 -0.05922,0.0711 -0.07698,0.25464 -0.201344,0.46783 -0.384923,0.46783 -0.06514,0 -0.08883,-0.0355 -0.08883,-0.12436 0,-0.0947 0.02961,-0.18358 0.06514,-0.26649 0.07106,-0.20134 0.230953,-0.61587 0.230953,-0.83498 0,-0.24872 -0.159891,-0.40269 -0.432298,-0.40269 -0.343469,0 -0.527048,0.24279 -0.592189,0.33162 -0.01776,-0.21319 -0.171735,-0.33162 -0.349391,-0.33162 -0.171735,0 -0.242798,0.14804 -0.278329,0.21318 -0.06514,0.13029 -0.112516,0.35532 -0.112516,0.36716 0,0.0415 0.03553,0.0415 0.04145,0.0415 0.04145,0 0.04145,-0.006 0.06514,-0.0888 0.06514,-0.26649 0.142125,-0.45007 0.278329,-0.45007 0.07106,0 0.112516,0.0474 0.112516,0.17174 0,0.0829 -0.01184,0.12436 -0.05922,0.31978 z m 0,0"
           id="id-f7114839-7d7d-4c57-a892-b397bc6d8977" />
        <path
           style="fill:#ff6600;fill-opacity:1;stroke:none;stroke-width:0"
           d="m 89.410727,121.39493 c 0.06514,0 0.136204,0 0.136204,-0.077 0,-0.0711 -0.07106,-0.0711 -0.136204,-0.0711 h -2.043052 c -0.06514,0 -0.130282,0 -0.130282,0.0711 0,0.077 0.06514,0.077 0.130282,0.077 z m 0,0"
           id="id-41b1cef5-fee3-4d39-b539-bdf12d9defeb" />
        <path
           style="fill:#ff6600;fill-opacity:1;stroke:none;stroke-width:0"
           d="m 91.812835,119.84932 c 0,-0.0948 0,-0.10067 -0.08883,-0.10067 -0.236876,0.24279 -0.568501,0.24279 -0.686939,0.24279 v 0.11844 c 0.07698,0 0.296094,0 0.491517,-0.10067 v 1.96015 c 0,0.1362 -0.01184,0.17765 -0.349392,0.17765 h -0.118438 v 0.11844 c 0.130282,-0.0118 0.455986,-0.0118 0.609955,-0.0118 0.148047,0 0.479673,0 0.609955,0.0118 v -0.11844 h -0.118438 c -0.34347,0 -0.349392,-0.0414 -0.349392,-0.17765 z m 0,0"
           id="id-3d56d74a-d811-4888-823d-6d39cca87709" />
      </g>
      <g
         id="g2276"
         transform="translate(23.343047,-16.733319)"
         style="fill:#0084c8">
        <path
           style="fill:#0084c8;fill-opacity:1;stroke:none;stroke-width:0"
           d="m 94.917848,119.90262 c 0,-0.077 -0.0533,-0.13621 -0.136203,-0.13621 -0.106594,0 -0.207266,0.10067 -0.207266,0.20135 0,0.0711 0.0533,0.1362 0.142125,0.1362 0.08883,0 0.201344,-0.0888 0.201344,-0.20134 z m -0.284251,1.42125 c 0.04145,-0.10659 0.04145,-0.11844 0.08291,-0.21911 0.02961,-0.077 0.04738,-0.13028 0.04738,-0.20134 0,-0.16582 -0.118438,-0.30794 -0.307938,-0.30794 -0.355314,0 -0.497439,0.55073 -0.497439,0.58034 0,0.0415 0.03553,0.0415 0.04145,0.0415 0.04145,0 0.04145,-0.0118 0.05922,-0.0711 0.106594,-0.35531 0.254641,-0.46783 0.384923,-0.46783 0.02961,0 0.09475,0 0.09475,0.11844 0,0.0829 -0.02961,0.15989 -0.04145,0.20135 -0.02961,0.0948 -0.201344,0.53297 -0.260563,0.69878 -0.04145,0.0948 -0.08883,0.21911 -0.08883,0.30201 0,0.17766 0.130282,0.30794 0.307939,0.30794 0.355313,0 0.497439,-0.54481 0.497439,-0.58034 0,-0.0415 -0.03553,-0.0415 -0.04738,-0.0415 -0.03553,0 -0.03553,0.0118 -0.0533,0.0711 -0.07106,0.23687 -0.195422,0.46783 -0.384922,0.46783 -0.06514,0 -0.09475,-0.0355 -0.09475,-0.12436 0,-0.0947 0.02369,-0.14805 0.112516,-0.379 z m 0,0"
           id="id-2322d74a-3447-4897-8237-aaf35e5d3db2" />
        <path
           style="fill:#0084c8;fill-opacity:1;stroke:none;stroke-width:0"
           d="m 98.78958,121.02777 c 0.05922,0 0.130282,0 0.130282,-0.0711 0,-0.077 -0.07106,-0.077 -0.12436,-0.077 H 96.53334 c -0.0533,0 -0.12436,0 -0.12436,0.077 0,0.0711 0.07106,0.0711 0.12436,0.0711 z m 0.0059,0.73432 c 0.0533,0 0.12436,0 0.12436,-0.077 0,-0.0711 -0.07106,-0.0711 -0.130282,-0.0711 h -2.25624 c -0.0533,0 -0.12436,0 -0.12436,0.0711 0,0.077 0.07106,0.077 0.12436,0.077 z m 0,0"
           id="id-e2532c10-bc43-40d8-8624-77b9f9768148" />
        <path
           style="fill:#0084c8;fill-opacity:1;stroke:none;stroke-width:0"
           d="m 100.513,122.04042 c -0.0119,0.0592 -0.0355,0.14805 -0.0355,0.16581 0,0.0651 0.0533,0.10067 0.11252,0.10067 0.0474,0 0.11252,-0.0296 0.14213,-0.10659 0,-0.006 0.0474,-0.18358 0.0711,-0.27833 l 0.0829,-0.33755 c 0.0178,-0.0888 0.0415,-0.17173 0.0652,-0.25464 0.0118,-0.0651 0.0414,-0.17766 0.0474,-0.1895 0.0533,-0.11844 0.25464,-0.46191 0.61588,-0.46191 0.17173,0 0.20134,0.14213 0.20134,0.26649 0,0.23095 -0.18358,0.71655 -0.2428,0.87644 -0.0355,0.0888 -0.0414,0.1362 -0.0414,0.17765 0,0.17766 0.1362,0.30794 0.31386,0.30794 0.35531,0 0.49152,-0.55073 0.49152,-0.58034 0,-0.0415 -0.0296,-0.0415 -0.0415,-0.0415 -0.0414,0 -0.0414,0.0118 -0.0592,0.0711 -0.077,0.25464 -0.20135,0.46783 -0.38493,0.46783 -0.0651,0 -0.0888,-0.0355 -0.0888,-0.12436 0,-0.0947 0.0296,-0.18358 0.0651,-0.26649 0.0711,-0.20134 0.23095,-0.61587 0.23095,-0.83498 0,-0.24872 -0.15989,-0.40269 -0.4323,-0.40269 -0.34347,0 -0.52705,0.24279 -0.59219,0.33162 -0.0178,-0.21319 -0.17173,-0.33162 -0.34939,-0.33162 -0.17173,0 -0.2428,0.14804 -0.27833,0.21318 -0.0651,0.13029 -0.11251,0.35532 -0.11251,0.36716 0,0.0415 0.0355,0.0415 0.0414,0.0415 0.0414,0 0.0414,-0.006 0.0651,-0.0888 0.0651,-0.26649 0.14213,-0.45007 0.27833,-0.45007 0.0711,0 0.11251,0.0474 0.11251,0.17174 0,0.0829 -0.0118,0.12436 -0.0592,0.31978 z m 0,0"
           id="id-862a08f1-09de-41e9-9dd3-6881073ca69e" />
      </g>
      <path
         style="fill:none;stroke:#000000;stroke-width:0.165;stroke-linecap:butt;stroke-linejoin:miter;stroke-miterlimit:4;stroke-dasharray:none;stroke-opacity:1"
         d="m 55.562499,105.83333 2.645834,7.9375"
         id="path2448" />
      <path
         style="fill:none;stroke:#000000;stroke-width:0.264583px;stroke-linecap:butt;stroke-linejoin:miter;stroke-opacity:1"
         d="m 84.666666,107.15625 v 6.61458"
         id="path2450" />
      <path
         style="fill:none;stroke:#000000;stroke-width:0.165;stroke-linecap:butt;stroke-linejoin:miter;stroke-miterlimit:4;stroke-dasharray:none;stroke-opacity:1"
         d="m 105.83333,107.15625 v 6.61458"
         id="path2452" />
      <path
         style="fill:none;stroke:#000000;stroke-width:0.165;stroke-linecap:butt;stroke-linejoin:miter;stroke-miterlimit:4;stroke-dasharray:none;stroke-opacity:1"
         d="m 120.38542,107.15625 -9.26042,6.61458"
         id="path2454" />
      <g
         id="g2039"
         transform="matrix(0.80834199,0,0,0.80834199,35.852666,77.328177)">
        <path
           style="fill:#000000;fill-opacity:1;stroke:none;stroke-width:0.379001"
           d="m 33.596499,16.118711 c 0,-0.07699 -0.0533,-0.136204 -0.136203,-0.136204 -0.106594,0 -0.207266,0.100672 -0.207266,0.201344 0,0.07106 0.0533,0.136204 0.142125,0.136204 0.08883,0 0.201344,-0.08883 0.201344,-0.201344 z m -0.284251,1.421253 c 0.04145,-0.106594 0.04145,-0.118437 0.08291,-0.21911 0.02961,-0.07698 0.04737,-0.130281 0.04737,-0.201344 0,-0.165813 -0.118438,-0.307938 -0.307938,-0.307938 -0.355314,0 -0.497439,0.550736 -0.497439,0.580345 0,0.04145 0.03553,0.04145 0.04145,0.04145 0.04145,0 0.04145,-0.01184 0.05922,-0.07106 0.106594,-0.355314 0.254641,-0.46783 0.384923,-0.46783 0.02961,0 0.09475,0 0.09475,0.118438 0,0.08291 -0.02961,0.159891 -0.04145,0.201344 -0.02961,0.09475 -0.201344,0.532971 -0.260563,0.698783 -0.04145,0.09475 -0.08883,0.21911 -0.08883,0.302017 0,0.177657 0.130282,0.307938 0.307939,0.307938 0.355313,0 0.497439,-0.544814 0.497439,-0.580345 0,-0.04145 -0.03553,-0.04145 -0.04738,-0.04145 -0.03553,0 -0.03553,0.01184 -0.0533,0.07106 -0.07106,0.236876 -0.195422,0.46783 -0.384922,0.46783 -0.06514,0 -0.09475,-0.03553 -0.09475,-0.12436 0,-0.09475 0.02369,-0.148047 0.112516,-0.379001 z m 0,0"
           id="id-4119d5bf-d51d-4230-8a78-92c86fae47ec" />
        <path
           style="fill:#000000;fill-opacity:1;stroke:none;stroke-width:0.379001"
           d="m 37.468231,17.24387 c 0.05922,0 0.130282,0 0.130282,-0.07106 0,-0.07698 -0.07106,-0.07698 -0.12436,-0.07698 h -2.262162 c -0.0533,0 -0.12436,0 -0.12436,0.07698 0,0.07106 0.07106,0.07106 0.12436,0.07106 z m 0.0059,0.734314 c 0.0533,0 0.12436,0 0.12436,-0.07698 0,-0.07106 -0.07106,-0.07106 -0.130282,-0.07106 h -2.25624 c -0.0533,0 -0.12436,0 -0.12436,0.07106 0,0.07698 0.07106,0.07698 0.12436,0.07698 z m 0,0"
           id="id-4a0be623-7aed-44f4-b36d-b83a15b5dd5b" />
        <path
           style="fill:#000000;fill-opacity:1;stroke:none;stroke-width:0.379001"
           d="m 39.64455,15.702046 c -0.01184,0.05922 -0.03553,0.148047 -0.03553,0.165813 0,0.06514 0.0533,0.100672 0.112515,0.100672 0.04738,0 0.112516,-0.02961 0.142126,-0.106594 0,-0.0059 0.04737,-0.183578 0.07106,-0.278329 l 0.08291,-0.337547 c 0.01777,-0.08883 0.04145,-0.171735 0.06514,-0.254642 0.01184,-0.06514 0.04145,-0.177656 0.04738,-0.1895 0.0533,-0.118438 0.254641,-0.461908 0.615877,-0.461908 0.171734,0 0.201344,0.142126 0.201344,0.266485 0,0.230954 -0.183579,0.716549 -0.242798,0.87644 -0.03553,0.08883 -0.04145,0.136204 -0.04145,0.177657 0,0.177657 0.136204,0.307938 0.31386,0.307938 0.355314,0 0.491517,-0.550736 0.491517,-0.580345 0,-0.04145 -0.02961,-0.04145 -0.04145,-0.04145 -0.04145,0 -0.04145,0.01184 -0.05922,0.07106 -0.07699,0.254642 -0.201344,0.46783 -0.384923,0.46783 -0.06514,0 -0.08883,-0.03553 -0.08883,-0.12436 0,-0.09475 0.02961,-0.183579 0.06514,-0.266485 0.07106,-0.201344 0.230953,-0.615877 0.230953,-0.834987 0,-0.248719 -0.159891,-0.402688 -0.432298,-0.402688 -0.343469,0 -0.527048,0.242797 -0.592189,0.331626 -0.01776,-0.213188 -0.171735,-0.331626 -0.349391,-0.331626 -0.171735,0 -0.242798,0.148047 -0.278329,0.213188 -0.06514,0.130282 -0.112516,0.355313 -0.112516,0.367157 0,0.04145 0.03553,0.04145 0.04145,0.04145 0.04145,0 0.04145,-0.0059 0.06514,-0.08883 0.06514,-0.266485 0.142125,-0.450064 0.278329,-0.450064 0.07106,0 0.112516,0.04737 0.112516,0.171735 0,0.08291 -0.01184,0.12436 -0.05922,0.319782 z m 0,0"
           id="id-76158e69-908c-41d5-bf68-339a6b19fdb6" />
        <path
           style="fill:none;stroke:#000000;stroke-width:0.150842;stroke-linecap:butt;stroke-linejoin:miter;stroke-miterlimit:10;stroke-opacity:1"
           d="m 39.312202,17.537394 h 2.266603"
           id="id-4974e1b2-7651-48d3-8de5-b3d366791895" />
        <path
           style="fill:#000000;fill-opacity:1;stroke:none;stroke-width:0.379001"
           d="m 39.982097,20.781465 0.402689,-0.390844 c 0.586267,-0.521127 0.811299,-0.722471 0.811299,-1.101472 0,-0.432298 -0.337548,-0.734315 -0.799456,-0.734315 -0.426376,0 -0.704705,0.349392 -0.704705,0.68694 0,0.207266 0.189501,0.207266 0.201345,0.207266 0.06514,0 0.195422,-0.04145 0.195422,-0.201344 0,-0.09475 -0.07106,-0.195423 -0.201344,-0.195423 -0.02961,0 -0.03553,0 -0.04737,0.0059 0.08291,-0.248719 0.290172,-0.384923 0.509282,-0.384923 0.34347,0 0.503361,0.307939 0.503361,0.615877 0,0.302016 -0.183579,0.598111 -0.396767,0.834987 l -0.72247,0.805377 c -0.04145,0.04145 -0.04145,0.0533 -0.04145,0.142125 h 1.403489 l 0.100672,-0.65733 h -0.08883 c -0.02369,0.112516 -0.04738,0.278329 -0.08883,0.337548 -0.02369,0.02961 -0.272407,0.02961 -0.355313,0.02961 z m 0,0"
           id="id-119e3884-04b3-4085-a012-726cb2cf8262" />
        <path
           style="fill:#000000;fill-opacity:1;stroke:none;stroke-width:0.379001"
           d="m 45.358937,17.611027 c 0.06514,0 0.136204,0 0.136204,-0.07698 0,-0.07106 -0.07106,-0.07106 -0.136204,-0.07106 h -2.043052 c -0.06514,0 -0.130282,0 -0.130282,0.07106 0,0.07698 0.06514,0.07698 0.130282,0.07698 z m 0,0"
           id="id-68d1d3f1-4cf1-408f-94b4-921fdaa4a516" />
        <path
           style="fill:#000000;fill-opacity:1;stroke:none;stroke-width:0.379001"
           d="m 47.760666,16.065414 c 0,-0.09475 0,-0.100673 -0.08883,-0.100673 -0.236876,0.242798 -0.568501,0.242798 -0.686939,0.242798 v 0.118438 c 0.07698,0 0.296094,0 0.491517,-0.100672 v 1.960145 c 0,0.136204 -0.01184,0.177657 -0.349392,0.177657 h -0.118438 v 0.118438 c 0.130282,-0.01184 0.455986,-0.01184 0.609955,-0.01184 0.148047,0 0.479673,0 0.609955,0.01184 v -0.118438 h -0.118438 c -0.34347,0 -0.349392,-0.04145 -0.349392,-0.177657 z m 0,0"
           id="id-e5173f51-a4d3-4560-a5d5-9de023a518f1" />
      </g>
      <g
         id="g2048"
         transform="matrix(0.80834199,0,0,0.80834199,4.6168886,77.373922)">
        <path
           style="fill:#000000;fill-opacity:1;stroke:none;stroke-width:0.379001"
           d="m 50.866058,16.118711 c 0,-0.07699 -0.0533,-0.136204 -0.136203,-0.136204 -0.106594,0 -0.207266,0.100672 -0.207266,0.201344 0,0.07106 0.0533,0.136204 0.142125,0.136204 0.08883,0 0.201344,-0.08883 0.201344,-0.201344 z m -0.284251,1.421253 c 0.04145,-0.106594 0.04145,-0.118437 0.08291,-0.21911 0.02961,-0.07698 0.04738,-0.130281 0.04738,-0.201344 0,-0.165813 -0.118438,-0.307938 -0.307938,-0.307938 -0.355314,0 -0.497439,0.550736 -0.497439,0.580345 0,0.04145 0.03553,0.04145 0.04145,0.04145 0.04145,0 0.04145,-0.01184 0.05922,-0.07106 0.106594,-0.355314 0.254641,-0.46783 0.384923,-0.46783 0.02961,0 0.09475,0 0.09475,0.118438 0,0.08291 -0.02961,0.159891 -0.04145,0.201344 -0.02961,0.09475 -0.201344,0.532971 -0.260563,0.698783 -0.04145,0.09475 -0.08883,0.21911 -0.08883,0.302017 0,0.177657 0.130282,0.307938 0.307939,0.307938 0.355313,0 0.497439,-0.544814 0.497439,-0.580345 0,-0.04145 -0.03553,-0.04145 -0.04738,-0.04145 -0.03553,0 -0.03553,0.01184 -0.0533,0.07106 -0.07106,0.236876 -0.195422,0.46783 -0.384922,0.46783 -0.06514,0 -0.09475,-0.03553 -0.09475,-0.12436 0,-0.09475 0.02369,-0.148047 0.112516,-0.379001 z m 0,0"
           id="id-9972b0a6-7fb3-4415-9200-d8add67c4e28" />
        <path
           style="fill:#000000;fill-opacity:1;stroke:none;stroke-width:0.379001"
           d="m 54.737411,17.24387 c 0.05922,0 0.130282,0 0.130282,-0.07106 0,-0.07698 -0.07106,-0.07698 -0.12436,-0.07698 h -2.262162 c -0.0533,0 -0.12436,0 -0.12436,0.07698 0,0.07106 0.07106,0.07106 0.12436,0.07106 z m 0.0059,0.734314 c 0.0533,0 0.12436,0 0.12436,-0.07698 0,-0.07106 -0.07106,-0.07106 -0.130282,-0.07106 h -2.25624 c -0.0533,0 -0.12436,0 -0.12436,0.07106 0,0.07698 0.07106,0.07698 0.12436,0.07698 z m 0,0"
           id="id-07def584-ffd4-444b-9fe1-d8d00b246981" />
        <path
           style="fill:#000000;fill-opacity:1;stroke:none;stroke-width:0.379001"
           d="m 56.914109,15.702046 c -0.01184,0.05922 -0.03553,0.148047 -0.03553,0.165813 0,0.06514 0.0533,0.100672 0.112515,0.100672 0.04738,0 0.112516,-0.02961 0.142126,-0.106594 0,-0.0059 0.04738,-0.183578 0.07106,-0.278329 l 0.08291,-0.337547 c 0.01777,-0.08883 0.04145,-0.171735 0.06514,-0.254642 0.01184,-0.06514 0.04145,-0.177656 0.04738,-0.1895 0.0533,-0.118438 0.254641,-0.461908 0.615877,-0.461908 0.171734,0 0.201344,0.142126 0.201344,0.266485 0,0.230954 -0.183579,0.716549 -0.242798,0.87644 -0.03553,0.08883 -0.04145,0.136204 -0.04145,0.177657 0,0.177657 0.136204,0.307938 0.31386,0.307938 0.355314,0 0.491517,-0.550736 0.491517,-0.580345 0,-0.04145 -0.02961,-0.04145 -0.04145,-0.04145 -0.04145,0 -0.04145,0.01184 -0.05922,0.07106 -0.07699,0.254642 -0.201344,0.46783 -0.384923,0.46783 -0.06514,0 -0.08883,-0.03553 -0.08883,-0.12436 0,-0.09475 0.02961,-0.183579 0.06514,-0.266485 0.07106,-0.201344 0.230953,-0.615877 0.230953,-0.834987 0,-0.248719 -0.159891,-0.402688 -0.432298,-0.402688 -0.343469,0 -0.527048,0.242797 -0.592189,0.331626 -0.01776,-0.213188 -0.171735,-0.331626 -0.349391,-0.331626 -0.171735,0 -0.242798,0.148047 -0.278329,0.213188 -0.06514,0.130282 -0.112516,0.355313 -0.112516,0.367157 0,0.04145 0.03553,0.04145 0.04145,0.04145 0.04145,0 0.04145,-0.0059 0.06514,-0.08883 0.06514,-0.266485 0.142125,-0.450064 0.278329,-0.450064 0.07106,0 0.112516,0.04737 0.112516,0.171735 0,0.08291 -0.01184,0.12436 -0.05922,0.319782 z m 0,0"
           id="id-80f33164-f417-48fb-8c69-ad80dbcee78c" />
        <path
           style="fill:none;stroke:#000000;stroke-width:0.150842;stroke-linecap:butt;stroke-linejoin:miter;stroke-miterlimit:10;stroke-opacity:1"
           d="m 56.581914,17.537394 h 2.266604"
           id="id-1c58cf8e-a1c0-409d-93be-cdfbc286f1a3" />
        <path
           style="fill:#000000;fill-opacity:1;stroke:none;stroke-width:0.379001"
           d="m 57.251278,20.781465 0.402689,-0.390844 c 0.586267,-0.521127 0.811299,-0.722471 0.811299,-1.101472 0,-0.432298 -0.337548,-0.734315 -0.799456,-0.734315 -0.426376,0 -0.704704,0.349392 -0.704704,0.68694 0,0.207266 0.1895,0.207266 0.201344,0.207266 0.06514,0 0.195422,-0.04145 0.195422,-0.201344 0,-0.09475 -0.07106,-0.195423 -0.201344,-0.195423 -0.02961,0 -0.03553,0 -0.04738,0.0059 0.08291,-0.248719 0.290172,-0.384923 0.509282,-0.384923 0.34347,0 0.503361,0.307939 0.503361,0.615877 0,0.302016 -0.183579,0.598111 -0.396767,0.834987 l -0.72247,0.805377 c -0.04145,0.04145 -0.04145,0.0533 -0.04145,0.142125 h 1.403488 l 0.100672,-0.65733 h -0.08883 c -0.02369,0.112516 -0.04738,0.278329 -0.08883,0.337548 -0.02369,0.02961 -0.272407,0.02961 -0.355313,0.02961 z m 0,0"
           id="id-83a2bb44-ac68-4c27-835b-35856a165742" />
        <path
           style="fill:#000000;fill-opacity:1;stroke:none;stroke-width:0.379001"
           d="m 62.628118,17.611027 c 0.06514,0 0.136204,0 0.136204,-0.07698 0,-0.07106 -0.07106,-0.07106 -0.136204,-0.07106 h -2.043052 c -0.06514,0 -0.130282,0 -0.130282,0.07106 0,0.07698 0.06514,0.07698 0.130282,0.07698 z m 0,0"
           id="id-4d9d4715-9998-482c-95e4-f06dcbad7816" />
        <path
           style="fill:#000000;fill-opacity:1;stroke:none;stroke-width:0.379001"
           d="m 64.396584,18.191372 0.402689,-0.390844 c 0.586267,-0.521127 0.811299,-0.722471 0.811299,-1.101472 0,-0.432298 -0.337548,-0.734315 -0.799456,-0.734315 -0.426376,0 -0.704705,0.349392 -0.704705,0.68694 0,0.207266 0.189501,0.207266 0.201345,0.207266 0.06514,0 0.195422,-0.04145 0.195422,-0.201344 0,-0.09475 -0.07106,-0.195423 -0.201344,-0.195423 -0.02961,0 -0.03553,0 -0.04738,0.0059 0.08291,-0.248719 0.290172,-0.384923 0.509282,-0.384923 0.34347,0 0.503361,0.307939 0.503361,0.615877 0,0.302016 -0.183579,0.598111 -0.396767,0.834987 l -0.72247,0.805377 c -0.04145,0.04145 -0.04145,0.0533 -0.04145,0.142125 h 1.40349 l 0.100672,-0.65733 h -0.08883 c -0.02369,0.112516 -0.04738,0.278329 -0.08883,0.337548 -0.02369,0.02961 -0.272407,0.02961 -0.355313,0.02961 z m 0,0"
           id="id-6e3de7a6-07bf-4609-b30b-24df30918b57" />
      </g>
      <g
         id="g2053"
         transform="matrix(0.80834199,0,0,0.80834199,6.1490819,93.824554)">
        <path
           style="fill:#000000;fill-opacity:1;stroke:none;stroke-width:0.379001"
           d="m 68.135239,16.118711 c 0,-0.07699 -0.0533,-0.136204 -0.136203,-0.136204 -0.106594,0 -0.207266,0.100672 -0.207266,0.201344 0,0.07106 0.0533,0.136204 0.142125,0.136204 0.08883,0 0.201344,-0.08883 0.201344,-0.201344 z m -0.284251,1.421253 c 0.04145,-0.106594 0.04145,-0.118437 0.08291,-0.21911 0.02961,-0.07698 0.04737,-0.130281 0.04737,-0.201344 0,-0.165813 -0.118438,-0.307938 -0.307938,-0.307938 -0.355314,0 -0.497439,0.550736 -0.497439,0.580345 0,0.04145 0.03553,0.04145 0.04145,0.04145 0.04145,0 0.04145,-0.01184 0.05922,-0.07106 0.106594,-0.355314 0.254641,-0.46783 0.384923,-0.46783 0.02961,0 0.09475,0 0.09475,0.118438 0,0.08291 -0.02961,0.159891 -0.04145,0.201344 -0.02961,0.09475 -0.201344,0.532971 -0.260563,0.698783 -0.04145,0.09475 -0.08883,0.21911 -0.08883,0.302017 0,0.177657 0.130282,0.307938 0.307939,0.307938 0.355313,0 0.497439,-0.544814 0.497439,-0.580345 0,-0.04145 -0.03553,-0.04145 -0.04738,-0.04145 -0.03553,0 -0.03553,0.01184 -0.0533,0.07106 -0.07106,0.236876 -0.195422,0.46783 -0.384922,0.46783 -0.06514,0 -0.09475,-0.03553 -0.09475,-0.12436 0,-0.09475 0.02369,-0.148047 0.112516,-0.379001 z m 0,0"
           id="id-9d2f05fa-91cb-4419-89bf-dab802ea6ef5" />
        <path
           style="fill:#000000;fill-opacity:1;stroke:none;stroke-width:0.379001"
           d="m 72.006971,17.24387 c 0.05922,0 0.130282,0 0.130282,-0.07106 0,-0.07698 -0.07106,-0.07698 -0.12436,-0.07698 h -2.262162 c -0.0533,0 -0.12436,0 -0.12436,0.07698 0,0.07106 0.07106,0.07106 0.12436,0.07106 z m 0.0059,0.734314 c 0.0533,0 0.12436,0 0.12436,-0.07698 0,-0.07106 -0.07106,-0.07106 -0.130282,-0.07106 h -2.25624 c -0.0533,0 -0.12436,0 -0.12436,0.07106 0,0.07698 0.07106,0.07698 0.12436,0.07698 z m 0,0"
           id="id-4bb10785-3c5b-4b61-b5fd-4d284fe8306c" />
        <path
           style="fill:#000000;fill-opacity:1;stroke:none;stroke-width:0.379001"
           d="m 73.879568,18.191372 0.402689,-0.390844 c 0.586267,-0.521127 0.811299,-0.722471 0.811299,-1.101472 0,-0.432298 -0.337548,-0.734315 -0.799456,-0.734315 -0.426376,0 -0.704705,0.349392 -0.704705,0.68694 0,0.207266 0.189501,0.207266 0.201345,0.207266 0.06514,0 0.195422,-0.04145 0.195422,-0.201344 0,-0.09475 -0.07106,-0.195423 -0.201344,-0.195423 -0.02961,0 -0.03553,0 -0.04738,0.0059 0.08291,-0.248719 0.290172,-0.384923 0.509282,-0.384923 0.34347,0 0.503361,0.307939 0.503361,0.615877 0,0.302016 -0.183579,0.598111 -0.396767,0.834987 l -0.72247,0.805377 c -0.04145,0.04145 -0.04145,0.0533 -0.04145,0.142125 h 1.403489 l 0.100672,-0.65733 h -0.08883 c -0.02369,0.112516 -0.04738,0.278329 -0.08883,0.337548 -0.02369,0.02961 -0.272407,0.02961 -0.355313,0.02961 z m 0,0"
           id="id-277f9fa0-b6f2-4bb2-9b06-dc6fedc416c8" />
      </g>
      <g
         id="g2060"
         transform="matrix(0.80834199,0,0,0.80834199,38.026404,106.70608)">
        <path
           style="fill:#000000;fill-opacity:1;stroke:none;stroke-width:0.379001"
           d="m 77.617086,16.118711 c 0,-0.07699 -0.0533,-0.136204 -0.136203,-0.136204 -0.106594,0 -0.207266,0.100672 -0.207266,0.201344 0,0.07106 0.0533,0.136204 0.142125,0.136204 0.08883,0 0.201344,-0.08883 0.201344,-0.201344 z m -0.284251,1.421253 c 0.04145,-0.106594 0.04145,-0.118437 0.08291,-0.21911 0.02961,-0.07698 0.04738,-0.130281 0.04738,-0.201344 0,-0.165813 -0.118438,-0.307938 -0.307938,-0.307938 -0.355314,0 -0.497439,0.550736 -0.497439,0.580345 0,0.04145 0.03553,0.04145 0.04145,0.04145 0.04145,0 0.04145,-0.01184 0.05922,-0.07106 0.106594,-0.355314 0.254641,-0.46783 0.384923,-0.46783 0.02961,0 0.09475,0 0.09475,0.118438 0,0.08291 -0.02961,0.159891 -0.04145,0.201344 -0.02961,0.09475 -0.201344,0.532971 -0.260563,0.698783 -0.04145,0.09475 -0.08883,0.21911 -0.08883,0.302017 0,0.177657 0.130282,0.307938 0.307939,0.307938 0.355313,0 0.497439,-0.544814 0.497439,-0.580345 0,-0.04145 -0.03553,-0.04145 -0.04738,-0.04145 -0.03553,0 -0.03553,0.01184 -0.0533,0.07106 -0.07106,0.236876 -0.195422,0.46783 -0.384922,0.46783 -0.06514,0 -0.09475,-0.03553 -0.09475,-0.12436 0,-0.09475 0.02369,-0.148047 0.112516,-0.379001 z m 0,0"
           id="id-05e168c1-12d1-4150-8470-324c80d0925a" />
        <path
           style="fill:#000000;fill-opacity:1;stroke:none;stroke-width:0.379001"
           d="m 81.488439,17.24387 c 0.05922,0 0.130282,0 0.130282,-0.07106 0,-0.07698 -0.07106,-0.07698 -0.12436,-0.07698 h -2.262162 c -0.0533,0 -0.12436,0 -0.12436,0.07698 0,0.07106 0.07106,0.07106 0.12436,0.07106 z m 0.0059,0.734314 c 0.0533,0 0.12436,0 0.12436,-0.07698 0,-0.07106 -0.07106,-0.07106 -0.130282,-0.07106 h -2.25624 c -0.0533,0 -0.12436,0 -0.12436,0.07106 0,0.07698 0.07106,0.07698 0.12436,0.07698 z m 0,0"
           id="id-3118200b-49b5-4db5-9b89-51d9597e81bc" />
        <path
           style="fill:#000000;fill-opacity:1;stroke:none;stroke-width:0.379001"
           d="m 83.211852,18.256513 c -0.01184,0.05922 -0.03553,0.148047 -0.03553,0.165813 0,0.06514 0.0533,0.100672 0.112515,0.100672 0.04738,0 0.112516,-0.02961 0.142126,-0.106594 0,-0.0059 0.04738,-0.183578 0.07106,-0.278329 l 0.08291,-0.337547 c 0.01777,-0.08883 0.04145,-0.171735 0.06514,-0.254642 0.01184,-0.06514 0.04145,-0.177656 0.04738,-0.1895 0.0533,-0.118438 0.254641,-0.461908 0.615877,-0.461908 0.171734,0 0.201344,0.142126 0.201344,0.266485 0,0.230954 -0.183579,0.716549 -0.242798,0.87644 -0.03553,0.08883 -0.04145,0.136204 -0.04145,0.177657 0,0.177657 0.136204,0.307938 0.31386,0.307938 0.355314,0 0.491517,-0.550736 0.491517,-0.580345 0,-0.04145 -0.02961,-0.04145 -0.04145,-0.04145 -0.04145,0 -0.04145,0.01184 -0.05922,0.07106 -0.07699,0.254642 -0.201344,0.46783 -0.384923,0.46783 -0.06514,0 -0.08883,-0.03553 -0.08883,-0.12436 0,-0.09475 0.02961,-0.183579 0.06514,-0.266485 0.07106,-0.201344 0.230953,-0.615877 0.230953,-0.834987 0,-0.248719 -0.159891,-0.402688 -0.432298,-0.402688 -0.343469,0 -0.527048,0.242797 -0.592189,0.331626 -0.01776,-0.213188 -0.171735,-0.331626 -0.349391,-0.331626 -0.171735,0 -0.242798,0.148047 -0.278329,0.213188 -0.06514,0.130281 -0.112516,0.355313 -0.112516,0.367157 0,0.04145 0.03553,0.04145 0.04145,0.04145 0.04145,0 0.04145,-0.0059 0.06514,-0.08883 0.06514,-0.266485 0.142125,-0.450064 0.278329,-0.450064 0.07106,0 0.112516,0.04737 0.112516,0.171735 0,0.08291 -0.01184,0.12436 -0.05922,0.319782 z m 0,0"
           id="id-91ad328e-2f36-450b-994e-f67dd342ec09" />
        <path
           style="fill:#000000;fill-opacity:1;stroke:none;stroke-width:0.379001"
           d="m 88.472954,17.611027 c 0.06514,0 0.136204,0 0.136204,-0.07698 0,-0.07106 -0.07106,-0.07106 -0.136204,-0.07106 h -2.043052 c -0.06514,0 -0.130282,0 -0.130282,0.07106 0,0.07698 0.06514,0.07698 0.130282,0.07698 z m 0,0"
           id="id-38285682-375d-4778-b02f-6b60d3458d67" />
        <path
           style="fill:#000000;fill-opacity:1;stroke:none;stroke-width:0.379001"
           d="m 90.24142,18.191372 0.402689,-0.390844 c 0.586267,-0.521127 0.811299,-0.722471 0.811299,-1.101472 0,-0.432298 -0.337548,-0.734315 -0.799456,-0.734315 -0.426376,0 -0.704705,0.349392 -0.704705,0.68694 0,0.207266 0.189501,0.207266 0.201345,0.207266 0.06514,0 0.195422,-0.04145 0.195422,-0.201344 0,-0.09475 -0.07106,-0.195423 -0.201344,-0.195423 -0.02961,0 -0.03553,0 -0.04738,0.0059 0.08291,-0.248719 0.290172,-0.384923 0.509282,-0.384923 0.34347,0 0.503361,0.307939 0.503361,0.615877 0,0.302016 -0.183579,0.598111 -0.396767,0.834987 l -0.72247,0.805377 c -0.04145,0.04145 -0.04145,0.0533 -0.04145,0.142125 h 1.403489 l 0.100672,-0.65733 h -0.08883 c -0.02369,0.112516 -0.04738,0.278329 -0.08883,0.337548 -0.02369,0.02961 -0.272407,0.02961 -0.355313,0.02961 z m 0,0"
           id="id-1d4674b6-744b-4b82-a798-f5f9848cd505" />
      </g>
      <g
         transform="matrix(0.30636242,0,0,0.30636242,77.389325,126.63935)"
         ns22:version="1.3.1"
         ns22:texconverter="pdflatex"
         ns22:pdfconverter="inkscape"
         ns22:text="$i = \\dfrac{n}{2} + 1$\n"
         ns22:preamble="/Users/ketiboldiais/Library/Application Support/org.inkscape.Inkscape/config/inkscape/extensions/circuitSymbols/circuitSymbolsPreamble.tex"
         ns22:scale="1.0743323752859513"
         ns22:alignment="middle center"
         ns22:inkscapeversion="1.1"
         ns22:jacobian_sqrt="0.379001"
         id="g2360">
        <defs
           id="id-1b66c8c6-63a4-4a66-907b-1998a56b795d">
          <g
             id="id-54680fbe-bfeb-4b46-bfb2-46bc59236e6d">
            <symbol
               overflow="visible"
               id="id-4d065048-07ac-4504-b1b1-f9200c2d6c05">
              <path
                 style="stroke:none;stroke-width:0"
                 d=""
                 id="id-c0a2ca98-7b97-43fe-b385-058ac778ce8f" />
            </symbol>
            <symbol
               overflow="visible"
               id="id-443ca597-a714-473e-811e-5b81bbb4c8d6">
              <path
                 style="stroke:none;stroke-width:0"
                 d="m 2.828125,-6.234375 c 0,-0.203125 -0.140625,-0.359375 -0.359375,-0.359375 -0.28125,0 -0.546875,0.265625 -0.546875,0.53125 0,0.1875 0.140625,0.359375 0.375,0.359375 0.234375,0 0.53125,-0.234375 0.53125,-0.53125 z m -0.75,3.75 c 0.109375,-0.28125 0.109375,-0.3125 0.21875,-0.578125 0.078125,-0.203125 0.125,-0.34375 0.125,-0.53125 0,-0.4375 -0.3125,-0.8125 -0.8125,-0.8125 -0.9375,0 -1.3125,1.453125 -1.3125,1.53125 0,0.109375 0.09375,0.109375 0.109375,0.109375 0.109375,0 0.109375,-0.03125 0.15625,-0.1875 0.28125,-0.9375 0.671875,-1.234375 1.015625,-1.234375 0.078125,0 0.25,0 0.25,0.3125 0,0.21875 -0.078125,0.421875 -0.109375,0.53125 -0.078125,0.25 -0.53125,1.40625 -0.6875,1.84375 -0.109375,0.25 -0.234375,0.578125 -0.234375,0.796875 0,0.46875 0.34375,0.8125 0.8125,0.8125 0.9375,0 1.3125,-1.4375 1.3125,-1.53125 0,-0.109375 -0.09375,-0.109375 -0.125,-0.109375 -0.09375,0 -0.09375,0.03125 -0.140625,0.1875 -0.1875,0.625 -0.515625,1.234375 -1.015625,1.234375 -0.171875,0 -0.25,-0.09375 -0.25,-0.328125 0,-0.25 0.0625,-0.390625 0.296875,-1 z m 0,0"
                 id="id-b0dea5a4-934d-4f09-b6ad-57590b19ffff" />
            </symbol>
            <symbol
               overflow="visible"
               id="id-79a4a050-e303-4025-9eaa-957b47c60117">
              <path
                 style="stroke:none;stroke-width:0"
                 d="m 0.875,-0.59375 c -0.03125,0.15625 -0.09375,0.390625 -0.09375,0.4375 0,0.171875 0.140625,0.265625 0.296875,0.265625 0.125,0 0.296875,-0.078125 0.375,-0.28125 0,-0.015625 0.125,-0.484375 0.1875,-0.734375 l 0.21875,-0.890625 C 1.90625,-2.03125 1.96875,-2.25 2.03125,-2.46875 c 0.03125,-0.171875 0.109375,-0.46875 0.125,-0.5 0.140625,-0.3125 0.671875,-1.21875 1.625,-1.21875 0.453125,0 0.53125,0.375 0.53125,0.703125 0,0.609375 -0.484375,1.890625 -0.640625,2.3125 C 3.578125,-0.9375 3.5625,-0.8125 3.5625,-0.703125 c 0,0.46875 0.359375,0.8125 0.828125,0.8125 0.9375,0 1.296875,-1.453125 1.296875,-1.53125 0,-0.109375 -0.078125,-0.109375 -0.109375,-0.109375 -0.109375,0 -0.109375,0.03125 -0.15625,0.1875 -0.203125,0.671875 -0.53125,1.234375 -1.015625,1.234375 -0.171875,0 -0.234375,-0.09375 -0.234375,-0.328125 0,-0.25 0.078125,-0.484375 0.171875,-0.703125 0.1875,-0.53125 0.609375,-1.625 0.609375,-2.203125 0,-0.65625 -0.421875,-1.0625 -1.140625,-1.0625 -0.90625,0 -1.390625,0.640625 -1.5625,0.875 -0.046875,-0.5625 -0.453125,-0.875 -0.921875,-0.875 -0.453125,0 -0.640625,0.390625 -0.734375,0.5625 C 0.421875,-3.5 0.296875,-2.90625 0.296875,-2.875 c 0,0.109375 0.09375,0.109375 0.109375,0.109375 0.109375,0 0.109375,-0.015625 0.171875,-0.234375 0.171875,-0.703125 0.375,-1.1875 0.734375,-1.1875 0.1875,0 0.296875,0.125 0.296875,0.453125 0,0.21875 -0.03125,0.328125 -0.15625,0.84375 z m 0,0"
                 id="id-3d4e95e6-6e24-4fed-af5c-fab40e7ea48e" />
            </symbol>
            <symbol
               overflow="visible"
               id="id-ac8e7e67-fe03-46f3-9244-a735e4d4f298">
              <path
                 style="stroke:none;stroke-width:0"
                 d=""
                 id="id-81949b7f-bb2b-4232-8a18-1ea4d9e926e9" />
            </symbol>
            <symbol
               overflow="visible"
               id="id-c802986f-5c15-486b-b6ef-59fb057d91fa">
              <path
                 style="stroke:none;stroke-width:0"
                 d="m 6.84375,-3.265625 c 0.15625,0 0.34375,0 0.34375,-0.1875 C 7.1875,-3.65625 7,-3.65625 6.859375,-3.65625 h -5.96875 c -0.140625,0 -0.328125,0 -0.328125,0.203125 0,0.1875 0.1875,0.1875 0.328125,0.1875 z m 0.015625,1.9375 c 0.140625,0 0.328125,0 0.328125,-0.203125 0,-0.1875 -0.1875,-0.1875 -0.34375,-0.1875 H 0.890625 c -0.140625,0 -0.328125,0 -0.328125,0.1875 0,0.203125 0.1875,0.203125 0.328125,0.203125 z m 0,0"
                 id="id-d6640b13-5ac7-4fed-8233-b51798584d1e" />
            </symbol>
            <symbol
               overflow="visible"
               id="id-2445ccee-82d6-446c-9fe3-4b5a37e89019">
              <path
                 style="stroke:none;stroke-width:0"
                 d="m 1.265625,-0.765625 1.0625,-1.03125 c 1.546875,-1.375 2.140625,-1.90625 2.140625,-2.90625 0,-1.140625 -0.890625,-1.9375 -2.109375,-1.9375 -1.125,0 -1.859375,0.921875 -1.859375,1.8125 0,0.546875 0.5,0.546875 0.53125,0.546875 0.171875,0 0.515625,-0.109375 0.515625,-0.53125 0,-0.25 -0.1875,-0.515625 -0.53125,-0.515625 -0.078125,0 -0.09375,0 -0.125,0.015625 0.21875,-0.65625 0.765625,-1.015625 1.34375,-1.015625 0.90625,0 1.328125,0.8125 1.328125,1.625 C 3.5625,-3.90625 3.078125,-3.125 2.515625,-2.5 l -1.90625,2.125 C 0.5,-0.265625 0.5,-0.234375 0.5,0 H 4.203125 L 4.46875,-1.734375 H 4.234375 C 4.171875,-1.4375 4.109375,-1 4,-0.84375 3.9375,-0.765625 3.28125,-0.765625 3.0625,-0.765625 Z m 0,0"
                 id="id-be2d8881-1898-45fd-966c-5924987d03d2" />
            </symbol>
            <symbol
               overflow="visible"
               id="id-2809b667-c11c-4737-b64b-711bdaedca08">
              <path
                 style="stroke:none;stroke-width:0"
                 d="m 4.078125,-2.296875 h 2.78125 C 7,-2.296875 7.1875,-2.296875 7.1875,-2.5 7.1875,-2.6875 7,-2.6875 6.859375,-2.6875 h -2.78125 v -2.796875 c 0,-0.140625 0,-0.328125 -0.203125,-0.328125 -0.203125,0 -0.203125,0.1875 -0.203125,0.328125 V -2.6875 h -2.78125 c -0.140625,0 -0.328125,0 -0.328125,0.1875 0,0.203125 0.1875,0.203125 0.328125,0.203125 h 2.78125 V 0.5 c 0,0.140625 0,0.328125 0.203125,0.328125 0.203125,0 0.203125,-0.1875 0.203125,-0.328125 z m 0,0"
                 id="id-685531b1-d190-4644-a5c6-12c92d727cab" />
            </symbol>
            <symbol
               overflow="visible"
               id="id-a020cc40-f102-4aa0-b2b2-e39fbe7a8c99">
              <path
                 style="stroke:none;stroke-width:0"
                 d="m 2.9375,-6.375 c 0,-0.25 0,-0.265625 -0.234375,-0.265625 C 2.078125,-6 1.203125,-6 0.890625,-6 v 0.3125 c 0.203125,0 0.78125,0 1.296875,-0.265625 v 5.171875 c 0,0.359375 -0.03125,0.46875 -0.921875,0.46875 h -0.3125 V 0 c 0.34375,-0.03125 1.203125,-0.03125 1.609375,-0.03125 0.390625,0 1.265625,0 1.609375,0.03125 v -0.3125 h -0.3125 c -0.90625,0 -0.921875,-0.109375 -0.921875,-0.46875 z m 0,0"
                 id="id-c093b922-b1a1-45bd-92e7-8d15c473f22e" />
            </symbol>
          </g>
        </defs>
        <g
           id="id-47ac9c44-b323-4671-9165-55b98769cca0"
           transform="translate(-149.009,-124.685)">
          <g
             style="fill:#000000;fill-opacity:1"
             id="id-ada91a16-c55c-4389-bb3a-fc84e42d8420">
            <g
               transform="translate(148.712,135.831)"
               id="g2335">
              <path
                 style="stroke:none;stroke-width:0"
                 d="m 2.828125,-6.234375 c 0,-0.203125 -0.140625,-0.359375 -0.359375,-0.359375 -0.28125,0 -0.546875,0.265625 -0.546875,0.53125 0,0.1875 0.140625,0.359375 0.375,0.359375 0.234375,0 0.53125,-0.234375 0.53125,-0.53125 z m -0.75,3.75 c 0.109375,-0.28125 0.109375,-0.3125 0.21875,-0.578125 0.078125,-0.203125 0.125,-0.34375 0.125,-0.53125 0,-0.4375 -0.3125,-0.8125 -0.8125,-0.8125 -0.9375,0 -1.3125,1.453125 -1.3125,1.53125 0,0.109375 0.09375,0.109375 0.109375,0.109375 0.109375,0 0.109375,-0.03125 0.15625,-0.1875 0.28125,-0.9375 0.671875,-1.234375 1.015625,-1.234375 0.078125,0 0.25,0 0.25,0.3125 0,0.21875 -0.078125,0.421875 -0.109375,0.53125 -0.078125,0.25 -0.53125,1.40625 -0.6875,1.84375 -0.109375,0.25 -0.234375,0.578125 -0.234375,0.796875 0,0.46875 0.34375,0.8125 0.8125,0.8125 0.9375,0 1.3125,-1.4375 1.3125,-1.53125 0,-0.109375 -0.09375,-0.109375 -0.125,-0.109375 -0.09375,0 -0.09375,0.03125 -0.140625,0.1875 -0.1875,0.625 -0.515625,1.234375 -1.015625,1.234375 -0.171875,0 -0.25,-0.09375 -0.25,-0.328125 0,-0.25 0.0625,-0.390625 0.296875,-1 z m 0,0"
                 id="id-ac6222e4-69e1-4063-97f9-1dd1d5e0b9b5" />
            </g>
          </g>
          <g
             style="fill:#000000;fill-opacity:1"
             id="id-356f7727-3e1b-46e8-877e-10aa7e1272c8">
            <g
               transform="translate(154.912,135.831)"
               id="g2339">
              <path
                 style="stroke:none;stroke-width:0"
                 d="m 6.84375,-3.265625 c 0.15625,0 0.34375,0 0.34375,-0.1875 C 7.1875,-3.65625 7,-3.65625 6.859375,-3.65625 h -5.96875 c -0.140625,0 -0.328125,0 -0.328125,0.203125 0,0.1875 0.1875,0.1875 0.328125,0.1875 z m 0.015625,1.9375 c 0.140625,0 0.328125,0 0.328125,-0.203125 0,-0.1875 -0.1875,-0.1875 -0.34375,-0.1875 H 0.890625 c -0.140625,0 -0.328125,0 -0.328125,0.1875 0,0.203125 0.1875,0.203125 0.328125,0.203125 z m 0,0"
                 id="id-44fc6383-4346-42fa-8af8-1e79a782b4cb" />
            </g>
          </g>
          <g
             style="fill:#000000;fill-opacity:1"
             id="id-3bef6c2f-8687-4fe6-9cfc-26886cfbf2e8">
            <g
               transform="translate(166.623,129.091)"
               id="g2343">
              <path
                 style="stroke:none;stroke-width:0"
                 d="m 0.875,-0.59375 c -0.03125,0.15625 -0.09375,0.390625 -0.09375,0.4375 0,0.171875 0.140625,0.265625 0.296875,0.265625 0.125,0 0.296875,-0.078125 0.375,-0.28125 0,-0.015625 0.125,-0.484375 0.1875,-0.734375 l 0.21875,-0.890625 C 1.90625,-2.03125 1.96875,-2.25 2.03125,-2.46875 c 0.03125,-0.171875 0.109375,-0.46875 0.125,-0.5 0.140625,-0.3125 0.671875,-1.21875 1.625,-1.21875 0.453125,0 0.53125,0.375 0.53125,0.703125 0,0.609375 -0.484375,1.890625 -0.640625,2.3125 C 3.578125,-0.9375 3.5625,-0.8125 3.5625,-0.703125 c 0,0.46875 0.359375,0.8125 0.828125,0.8125 0.9375,0 1.296875,-1.453125 1.296875,-1.53125 0,-0.109375 -0.078125,-0.109375 -0.109375,-0.109375 -0.109375,0 -0.109375,0.03125 -0.15625,0.1875 -0.203125,0.671875 -0.53125,1.234375 -1.015625,1.234375 -0.171875,0 -0.234375,-0.09375 -0.234375,-0.328125 0,-0.25 0.078125,-0.484375 0.171875,-0.703125 0.1875,-0.53125 0.609375,-1.625 0.609375,-2.203125 0,-0.65625 -0.421875,-1.0625 -1.140625,-1.0625 -0.90625,0 -1.390625,0.640625 -1.5625,0.875 -0.046875,-0.5625 -0.453125,-0.875 -0.921875,-0.875 -0.453125,0 -0.640625,0.390625 -0.734375,0.5625 C 0.421875,-3.5 0.296875,-2.90625 0.296875,-2.875 c 0,0.109375 0.09375,0.109375 0.109375,0.109375 0.109375,0 0.109375,-0.015625 0.171875,-0.234375 0.171875,-0.703125 0.375,-1.1875 0.734375,-1.1875 0.1875,0 0.296875,0.125 0.296875,0.453125 0,0.21875 -0.03125,0.328125 -0.15625,0.84375 z m 0,0"
                 id="id-c37a761f-6c69-401f-a9e1-ebf141bc8398" />
            </g>
          </g>
          <path
             style="fill:none;stroke:#000000;stroke-width:0.398;stroke-linecap:butt;stroke-linejoin:miter;stroke-miterlimit:10;stroke-opacity:1"
             d="M -0.00190625,0.00115625 H 5.978563"
             transform="matrix(1,0,0,-1,166.623,133.341)"
             id="id-9c599b50-94c9-4aac-b0dd-1e0d412cdb92" />
          <g
             style="fill:#000000;fill-opacity:1"
             id="id-e10ddef3-15d6-47be-a876-e6b3e2c98af7">
            <g
               transform="translate(167.123,142.665)"
               id="g2348">
              <path
                 style="stroke:none;stroke-width:0"
                 d="m 1.265625,-0.765625 1.0625,-1.03125 c 1.546875,-1.375 2.140625,-1.90625 2.140625,-2.90625 0,-1.140625 -0.890625,-1.9375 -2.109375,-1.9375 -1.125,0 -1.859375,0.921875 -1.859375,1.8125 0,0.546875 0.5,0.546875 0.53125,0.546875 0.171875,0 0.515625,-0.109375 0.515625,-0.53125 0,-0.25 -0.1875,-0.515625 -0.53125,-0.515625 -0.078125,0 -0.09375,0 -0.125,0.015625 0.21875,-0.65625 0.765625,-1.015625 1.34375,-1.015625 0.90625,0 1.328125,0.8125 1.328125,1.625 C 3.5625,-3.90625 3.078125,-3.125 2.515625,-2.5 l -1.90625,2.125 C 0.5,-0.265625 0.5,-0.234375 0.5,0 H 4.203125 L 4.46875,-1.734375 H 4.234375 C 4.171875,-1.4375 4.109375,-1 4,-0.84375 3.9375,-0.765625 3.28125,-0.765625 3.0625,-0.765625 Z m 0,0"
                 id="id-88c6ee85-4c95-433b-af84-ee92053a37c8" />
            </g>
          </g>
          <g
             style="fill:#000000;fill-opacity:1"
             id="id-23368c2d-d26a-4792-89de-c87642d0e705">
            <g
               transform="translate(176.013,135.831)"
               id="g2352">
              <path
                 style="stroke:none;stroke-width:0"
                 d="m 4.078125,-2.296875 h 2.78125 C 7,-2.296875 7.1875,-2.296875 7.1875,-2.5 7.1875,-2.6875 7,-2.6875 6.859375,-2.6875 h -2.78125 v -2.796875 c 0,-0.140625 0,-0.328125 -0.203125,-0.328125 -0.203125,0 -0.203125,0.1875 -0.203125,0.328125 V -2.6875 h -2.78125 c -0.140625,0 -0.328125,0 -0.328125,0.1875 0,0.203125 0.1875,0.203125 0.328125,0.203125 h 2.78125 V 0.5 c 0,0.140625 0,0.328125 0.203125,0.328125 0.203125,0 0.203125,-0.1875 0.203125,-0.328125 z m 0,0"
                 id="id-a9ca999f-8ff0-4dde-8a8f-d84c8b14d379" />
            </g>
          </g>
          <g
             style="fill:#000000;fill-opacity:1"
             id="id-6babd283-24ac-4e3c-b16d-fc53105336ff">
            <g
               transform="translate(185.974,135.831)"
               id="g2356">
              <path
                 style="stroke:none;stroke-width:0"
                 d="m 2.9375,-6.375 c 0,-0.25 0,-0.265625 -0.234375,-0.265625 C 2.078125,-6 1.203125,-6 0.890625,-6 v 0.3125 c 0.203125,0 0.78125,0 1.296875,-0.265625 v 5.171875 c 0,0.359375 -0.03125,0.46875 -0.921875,0.46875 h -0.3125 V 0 c 0.34375,-0.03125 1.203125,-0.03125 1.609375,-0.03125 0.390625,0 1.265625,0 1.609375,0.03125 v -0.3125 h -0.3125 c -0.90625,0 -0.921875,-0.109375 -0.921875,-0.46875 z m 0,0"
                 id="id-5b841c5c-2740-400a-a3c7-bdcb3754e96a" />
            </g>
          </g>
        </g>
      </g>
      <g
         transform="matrix(0.30636242,0,0,0.30636242,94.291579,125.69531)"
         ns22:version="1.3.1"
         ns22:texconverter="pdflatex"
         ns22:pdfconverter="inkscape"
         ns22:text="$i = \\dfrac{n}{2} + 2$\n\n"
         ns22:preamble="/Users/ketiboldiais/Library/Application Support/org.inkscape.Inkscape/config/inkscape/extensions/circuitSymbols/circuitSymbolsPreamble.tex"
         ns22:scale="1.0743323752859513"
         ns22:alignment="middle center"
         ns22:inkscapeversion="1.1"
         ns22:jacobian_sqrt="0.379001"
         id="g2499">
        <defs
           id="id-1c263f72-999c-4d3a-bdfd-e5fe9118829a">
          <g
             id="id-070cf159-14bd-43df-9786-6c58973082d3">
            <symbol
               overflow="visible"
               id="id-425e282a-5b8a-4072-8f90-d8ddb47b2e50">
              <path
                 style="stroke:none"
                 d=""
                 id="id-5601d136-08ba-4a75-8efe-1a11309a1853" />
            </symbol>
            <symbol
               overflow="visible"
               id="id-2b5e8ec7-9944-4ec4-a6d7-0bfce811660b">
              <path
                 style="stroke:none"
                 d="m 2.828125,-6.234375 c 0,-0.203125 -0.140625,-0.359375 -0.359375,-0.359375 -0.28125,0 -0.546875,0.265625 -0.546875,0.53125 0,0.1875 0.140625,0.359375 0.375,0.359375 0.234375,0 0.53125,-0.234375 0.53125,-0.53125 z m -0.75,3.75 c 0.109375,-0.28125 0.109375,-0.3125 0.21875,-0.578125 0.078125,-0.203125 0.125,-0.34375 0.125,-0.53125 0,-0.4375 -0.3125,-0.8125 -0.8125,-0.8125 -0.9375,0 -1.3125,1.453125 -1.3125,1.53125 0,0.109375 0.09375,0.109375 0.109375,0.109375 0.109375,0 0.109375,-0.03125 0.15625,-0.1875 0.28125,-0.9375 0.671875,-1.234375 1.015625,-1.234375 0.078125,0 0.25,0 0.25,0.3125 0,0.21875 -0.078125,0.421875 -0.109375,0.53125 -0.078125,0.25 -0.53125,1.40625 -0.6875,1.84375 -0.109375,0.25 -0.234375,0.578125 -0.234375,0.796875 0,0.46875 0.34375,0.8125 0.8125,0.8125 0.9375,0 1.3125,-1.4375 1.3125,-1.53125 0,-0.109375 -0.09375,-0.109375 -0.125,-0.109375 -0.09375,0 -0.09375,0.03125 -0.140625,0.1875 -0.1875,0.625 -0.515625,1.234375 -1.015625,1.234375 -0.171875,0 -0.25,-0.09375 -0.25,-0.328125 0,-0.25 0.0625,-0.390625 0.296875,-1 z m 0,0"
                 id="id-1a5b1a73-fdde-44cd-a703-7e94608d2d56" />
            </symbol>
            <symbol
               overflow="visible"
               id="id-846129fe-984c-4082-aeed-f51554087eee">
              <path
                 style="stroke:none"
                 d="m 0.875,-0.59375 c -0.03125,0.15625 -0.09375,0.390625 -0.09375,0.4375 0,0.171875 0.140625,0.265625 0.296875,0.265625 0.125,0 0.296875,-0.078125 0.375,-0.28125 0,-0.015625 0.125,-0.484375 0.1875,-0.734375 l 0.21875,-0.890625 C 1.90625,-2.03125 1.96875,-2.25 2.03125,-2.46875 c 0.03125,-0.171875 0.109375,-0.46875 0.125,-0.5 0.140625,-0.3125 0.671875,-1.21875 1.625,-1.21875 0.453125,0 0.53125,0.375 0.53125,0.703125 0,0.609375 -0.484375,1.890625 -0.640625,2.3125 C 3.578125,-0.9375 3.5625,-0.8125 3.5625,-0.703125 c 0,0.46875 0.359375,0.8125 0.828125,0.8125 0.9375,0 1.296875,-1.453125 1.296875,-1.53125 0,-0.109375 -0.078125,-0.109375 -0.109375,-0.109375 -0.109375,0 -0.109375,0.03125 -0.15625,0.1875 -0.203125,0.671875 -0.53125,1.234375 -1.015625,1.234375 -0.171875,0 -0.234375,-0.09375 -0.234375,-0.328125 0,-0.25 0.078125,-0.484375 0.171875,-0.703125 0.1875,-0.53125 0.609375,-1.625 0.609375,-2.203125 0,-0.65625 -0.421875,-1.0625 -1.140625,-1.0625 -0.90625,0 -1.390625,0.640625 -1.5625,0.875 -0.046875,-0.5625 -0.453125,-0.875 -0.921875,-0.875 -0.453125,0 -0.640625,0.390625 -0.734375,0.5625 C 0.421875,-3.5 0.296875,-2.90625 0.296875,-2.875 c 0,0.109375 0.09375,0.109375 0.109375,0.109375 0.109375,0 0.109375,-0.015625 0.171875,-0.234375 0.171875,-0.703125 0.375,-1.1875 0.734375,-1.1875 0.1875,0 0.296875,0.125 0.296875,0.453125 0,0.21875 -0.03125,0.328125 -0.15625,0.84375 z m 0,0"
                 id="id-95f4b07e-48a6-4d3f-8bd8-046c8b9824d5" />
            </symbol>
            <symbol
               overflow="visible"
               id="id-8b45a417-ae75-4e2a-9ad3-cfdb759a1d71">
              <path
                 style="stroke:none"
                 d=""
                 id="id-91b9a60f-11b0-4fc1-a8ac-5766c97baf3d" />
            </symbol>
            <symbol
               overflow="visible"
               id="id-233b68fa-1027-42db-84fd-6feb55c37901">
              <path
                 style="stroke:none"
                 d="m 6.84375,-3.265625 c 0.15625,0 0.34375,0 0.34375,-0.1875 C 7.1875,-3.65625 7,-3.65625 6.859375,-3.65625 h -5.96875 c -0.140625,0 -0.328125,0 -0.328125,0.203125 0,0.1875 0.1875,0.1875 0.328125,0.1875 z m 0.015625,1.9375 c 0.140625,0 0.328125,0 0.328125,-0.203125 0,-0.1875 -0.1875,-0.1875 -0.34375,-0.1875 H 0.890625 c -0.140625,0 -0.328125,0 -0.328125,0.1875 0,0.203125 0.1875,0.203125 0.328125,0.203125 z m 0,0"
                 id="id-c79bc244-f60e-40b5-97f8-740903ac88b3" />
            </symbol>
            <symbol
               overflow="visible"
               id="id-97cea0e0-3741-4372-8c12-e54e5478d904">
              <path
                 style="stroke:none"
                 d="m 1.265625,-0.765625 1.0625,-1.03125 c 1.546875,-1.375 2.140625,-1.90625 2.140625,-2.90625 0,-1.140625 -0.890625,-1.9375 -2.109375,-1.9375 -1.125,0 -1.859375,0.921875 -1.859375,1.8125 0,0.546875 0.5,0.546875 0.53125,0.546875 0.171875,0 0.515625,-0.109375 0.515625,-0.53125 0,-0.25 -0.1875,-0.515625 -0.53125,-0.515625 -0.078125,0 -0.09375,0 -0.125,0.015625 0.21875,-0.65625 0.765625,-1.015625 1.34375,-1.015625 0.90625,0 1.328125,0.8125 1.328125,1.625 C 3.5625,-3.90625 3.078125,-3.125 2.515625,-2.5 l -1.90625,2.125 C 0.5,-0.265625 0.5,-0.234375 0.5,0 H 4.203125 L 4.46875,-1.734375 H 4.234375 C 4.171875,-1.4375 4.109375,-1 4,-0.84375 3.9375,-0.765625 3.28125,-0.765625 3.0625,-0.765625 Z m 0,0"
                 id="id-fe3d726d-b590-411c-82c3-d6b9f5643224" />
            </symbol>
            <symbol
               overflow="visible"
               id="id-e053ad9c-1509-4ea2-9fe6-a34090f9041c">
              <path
                 style="stroke:none"
                 d="m 4.078125,-2.296875 h 2.78125 C 7,-2.296875 7.1875,-2.296875 7.1875,-2.5 7.1875,-2.6875 7,-2.6875 6.859375,-2.6875 h -2.78125 v -2.796875 c 0,-0.140625 0,-0.328125 -0.203125,-0.328125 -0.203125,0 -0.203125,0.1875 -0.203125,0.328125 V -2.6875 h -2.78125 c -0.140625,0 -0.328125,0 -0.328125,0.1875 0,0.203125 0.1875,0.203125 0.328125,0.203125 h 2.78125 V 0.5 c 0,0.140625 0,0.328125 0.203125,0.328125 0.203125,0 0.203125,-0.1875 0.203125,-0.328125 z m 0,0"
                 id="id-956967f3-ef08-42ec-8a71-f96a886b6b85" />
            </symbol>
          </g>
        </defs>
        <g
           id="id-e437f7aa-1cc3-48ce-b1b3-f53eac1e44d2"
           transform="translate(-149.009,-124.685)">
          <g
             style="fill:#000000;fill-opacity:1"
             id="id-7fa736c5-8b2b-4dca-bf74-2fdbee93c529">
            <g
               transform="translate(148.712,135.831)"
               id="g2889">
              <path
                 style="stroke:none"
                 d="m 2.828125,-6.234375 c 0,-0.203125 -0.140625,-0.359375 -0.359375,-0.359375 -0.28125,0 -0.546875,0.265625 -0.546875,0.53125 0,0.1875 0.140625,0.359375 0.375,0.359375 0.234375,0 0.53125,-0.234375 0.53125,-0.53125 z m -0.75,3.75 c 0.109375,-0.28125 0.109375,-0.3125 0.21875,-0.578125 0.078125,-0.203125 0.125,-0.34375 0.125,-0.53125 0,-0.4375 -0.3125,-0.8125 -0.8125,-0.8125 -0.9375,0 -1.3125,1.453125 -1.3125,1.53125 0,0.109375 0.09375,0.109375 0.109375,0.109375 0.109375,0 0.109375,-0.03125 0.15625,-0.1875 0.28125,-0.9375 0.671875,-1.234375 1.015625,-1.234375 0.078125,0 0.25,0 0.25,0.3125 0,0.21875 -0.078125,0.421875 -0.109375,0.53125 -0.078125,0.25 -0.53125,1.40625 -0.6875,1.84375 -0.109375,0.25 -0.234375,0.578125 -0.234375,0.796875 0,0.46875 0.34375,0.8125 0.8125,0.8125 0.9375,0 1.3125,-1.4375 1.3125,-1.53125 0,-0.109375 -0.09375,-0.109375 -0.125,-0.109375 -0.09375,0 -0.09375,0.03125 -0.140625,0.1875 -0.1875,0.625 -0.515625,1.234375 -1.015625,1.234375 -0.171875,0 -0.25,-0.09375 -0.25,-0.328125 0,-0.25 0.0625,-0.390625 0.296875,-1 z m 0,0"
                 id="id-65b089a0-8064-4fa4-8a4d-997a245552d4" />
            </g>
          </g>
          <g
             style="fill:#000000;fill-opacity:1"
             id="id-2308e38e-1d77-4124-8997-eb8a58bf684d">
            <g
               transform="translate(154.912,135.831)"
               id="g2893">
              <path
                 style="stroke:none"
                 d="m 6.84375,-3.265625 c 0.15625,0 0.34375,0 0.34375,-0.1875 C 7.1875,-3.65625 7,-3.65625 6.859375,-3.65625 h -5.96875 c -0.140625,0 -0.328125,0 -0.328125,0.203125 0,0.1875 0.1875,0.1875 0.328125,0.1875 z m 0.015625,1.9375 c 0.140625,0 0.328125,0 0.328125,-0.203125 0,-0.1875 -0.1875,-0.1875 -0.34375,-0.1875 H 0.890625 c -0.140625,0 -0.328125,0 -0.328125,0.1875 0,0.203125 0.1875,0.203125 0.328125,0.203125 z m 0,0"
                 id="id-b0f6c1f0-1d77-487c-baf0-b017d4cc0907" />
            </g>
          </g>
          <g
             style="fill:#000000;fill-opacity:1"
             id="id-54de0dbb-51a2-4b3a-8bd3-c71e0d7f6b44">
            <g
               transform="translate(166.623,129.091)"
               id="g2897">
              <path
                 style="stroke:none"
                 d="m 0.875,-0.59375 c -0.03125,0.15625 -0.09375,0.390625 -0.09375,0.4375 0,0.171875 0.140625,0.265625 0.296875,0.265625 0.125,0 0.296875,-0.078125 0.375,-0.28125 0,-0.015625 0.125,-0.484375 0.1875,-0.734375 l 0.21875,-0.890625 C 1.90625,-2.03125 1.96875,-2.25 2.03125,-2.46875 c 0.03125,-0.171875 0.109375,-0.46875 0.125,-0.5 0.140625,-0.3125 0.671875,-1.21875 1.625,-1.21875 0.453125,0 0.53125,0.375 0.53125,0.703125 0,0.609375 -0.484375,1.890625 -0.640625,2.3125 C 3.578125,-0.9375 3.5625,-0.8125 3.5625,-0.703125 c 0,0.46875 0.359375,0.8125 0.828125,0.8125 0.9375,0 1.296875,-1.453125 1.296875,-1.53125 0,-0.109375 -0.078125,-0.109375 -0.109375,-0.109375 -0.109375,0 -0.109375,0.03125 -0.15625,0.1875 -0.203125,0.671875 -0.53125,1.234375 -1.015625,1.234375 -0.171875,0 -0.234375,-0.09375 -0.234375,-0.328125 0,-0.25 0.078125,-0.484375 0.171875,-0.703125 0.1875,-0.53125 0.609375,-1.625 0.609375,-2.203125 0,-0.65625 -0.421875,-1.0625 -1.140625,-1.0625 -0.90625,0 -1.390625,0.640625 -1.5625,0.875 -0.046875,-0.5625 -0.453125,-0.875 -0.921875,-0.875 -0.453125,0 -0.640625,0.390625 -0.734375,0.5625 C 0.421875,-3.5 0.296875,-2.90625 0.296875,-2.875 c 0,0.109375 0.09375,0.109375 0.109375,0.109375 0.109375,0 0.109375,-0.015625 0.171875,-0.234375 0.171875,-0.703125 0.375,-1.1875 0.734375,-1.1875 0.1875,0 0.296875,0.125 0.296875,0.453125 0,0.21875 -0.03125,0.328125 -0.15625,0.84375 z m 0,0"
                 id="id-83734704-32ff-4f99-8658-59f277852a60" />
            </g>
          </g>
          <path
             style="fill:none;stroke:#000000;stroke-width:0.398;stroke-linecap:butt;stroke-linejoin:miter;stroke-miterlimit:10;stroke-opacity:1"
             d="M -0.00190625,0.00115625 H 5.978563"
             transform="matrix(1,0,0,-1,166.623,133.341)"
             id="id-21a204a6-4a18-41dc-8bc6-f862316b3072" />
          <g
             style="fill:#000000;fill-opacity:1"
             id="id-e01765e0-e209-4042-922b-e8ac5da82e49">
            <g
               transform="translate(167.123,142.665)"
               id="g2902">
              <path
                 style="stroke:none"
                 d="m 1.265625,-0.765625 1.0625,-1.03125 c 1.546875,-1.375 2.140625,-1.90625 2.140625,-2.90625 0,-1.140625 -0.890625,-1.9375 -2.109375,-1.9375 -1.125,0 -1.859375,0.921875 -1.859375,1.8125 0,0.546875 0.5,0.546875 0.53125,0.546875 0.171875,0 0.515625,-0.109375 0.515625,-0.53125 0,-0.25 -0.1875,-0.515625 -0.53125,-0.515625 -0.078125,0 -0.09375,0 -0.125,0.015625 0.21875,-0.65625 0.765625,-1.015625 1.34375,-1.015625 0.90625,0 1.328125,0.8125 1.328125,1.625 C 3.5625,-3.90625 3.078125,-3.125 2.515625,-2.5 l -1.90625,2.125 C 0.5,-0.265625 0.5,-0.234375 0.5,0 H 4.203125 L 4.46875,-1.734375 H 4.234375 C 4.171875,-1.4375 4.109375,-1 4,-0.84375 3.9375,-0.765625 3.28125,-0.765625 3.0625,-0.765625 Z m 0,0"
                 id="id-df0a5507-4567-4630-9cb2-16d356f079a4" />
            </g>
          </g>
          <g
             style="fill:#000000;fill-opacity:1"
             id="id-0d01cf93-7103-4ece-882a-af59f39d93fc">
            <g
               transform="translate(176.013,135.831)"
               id="g2906">
              <path
                 style="stroke:none"
                 d="m 4.078125,-2.296875 h 2.78125 C 7,-2.296875 7.1875,-2.296875 7.1875,-2.5 7.1875,-2.6875 7,-2.6875 6.859375,-2.6875 h -2.78125 v -2.796875 c 0,-0.140625 0,-0.328125 -0.203125,-0.328125 -0.203125,0 -0.203125,0.1875 -0.203125,0.328125 V -2.6875 h -2.78125 c -0.140625,0 -0.328125,0 -0.328125,0.1875 0,0.203125 0.1875,0.203125 0.328125,0.203125 h 2.78125 V 0.5 c 0,0.140625 0,0.328125 0.203125,0.328125 0.203125,0 0.203125,-0.1875 0.203125,-0.328125 z m 0,0"
                 id="id-104b0309-1217-434e-990c-1fda8df69723" />
            </g>
          </g>
          <g
             style="fill:#000000;fill-opacity:1"
             id="id-89588059-4b4a-4bb0-84e5-1f1163264529">
            <g
               transform="translate(185.974,135.831)"
               id="g2910">
              <path
                 style="stroke:none"
                 d="m 1.265625,-0.765625 1.0625,-1.03125 c 1.546875,-1.375 2.140625,-1.90625 2.140625,-2.90625 0,-1.140625 -0.890625,-1.9375 -2.109375,-1.9375 -1.125,0 -1.859375,0.921875 -1.859375,1.8125 0,0.546875 0.5,0.546875 0.53125,0.546875 0.171875,0 0.515625,-0.109375 0.515625,-0.53125 0,-0.25 -0.1875,-0.515625 -0.53125,-0.515625 -0.078125,0 -0.09375,0 -0.125,0.015625 0.21875,-0.65625 0.765625,-1.015625 1.34375,-1.015625 0.90625,0 1.328125,0.8125 1.328125,1.625 C 3.5625,-3.90625 3.078125,-3.125 2.515625,-2.5 l -1.90625,2.125 C 0.5,-0.265625 0.5,-0.234375 0.5,0 H 4.203125 L 4.46875,-1.734375 H 4.234375 C 4.171875,-1.4375 4.109375,-1 4,-0.84375 3.9375,-0.765625 3.28125,-0.765625 3.0625,-0.765625 Z m 0,0"
                 id="id-74a5b3a4-a7e9-40b3-8236-c8d773190a41" />
            </g>
          </g>
        </g>
      </g>
      <path
         style="fill:none;stroke:#000000;stroke-width:0.165;stroke-linecap:butt;stroke-linejoin:miter;stroke-miterlimit:4;stroke-dasharray:none;stroke-opacity:1"
         d="M 68.791666,95.25 79.375,113.77083"
         id="path3006" />
      <path
         style="fill:none;stroke:#000000;stroke-width:0.165;stroke-linecap:butt;stroke-linejoin:miter;stroke-miterlimit:4;stroke-dasharray:none;stroke-opacity:1"
         d="m 54.239583,93.927083 19.84375,19.843747"
         id="path3008" />
      <path
         style="fill:none;stroke:#000000;stroke-width:0.165;stroke-linecap:butt;stroke-linejoin:miter;stroke-miterlimit:4;stroke-dasharray:none;stroke-opacity:1"
         d="m 63.5,109.80208 v 3.96875"
         id="path3010" />
      <path
         style="fill:none;stroke:#000000;stroke-width:0.165;stroke-linecap:butt;stroke-linejoin:miter;stroke-miterlimit:4;stroke-dasharray:none;stroke-opacity:1"
         d="m 83.34375,125.67708 6.614583,-11.90625"
         id="path3012" />
      <path
         style="fill:none;stroke:#000000;stroke-width:0.165;stroke-linecap:butt;stroke-linejoin:miter;stroke-miterlimit:4;stroke-dasharray:none;stroke-opacity:1"
         d="M 97.895833,125.67708 95.25,113.77083"
         id="path3014" />
      <path
         style="fill:none;stroke:#000000;stroke-width:0.165;stroke-linecap:butt;stroke-linejoin:miter;stroke-miterlimit:4;stroke-dasharray:none;stroke-opacity:1"
         d="m 104.51042,119.0625 -3.96875,-5.29167"
         id="path3016" />
    </g>
  </g>
</svg>
