<?xml version="1.0" encoding="UTF-8" standalone="no"?>
<!-- Created with Inkscape (http://www.inkscape.org/) -->

<svg
   width="114.57245mm"
   height="26.210337mm"
   viewBox="0 0 114.57245 26.210337"
   version="1.1"
   id="svg5"
   inkscape:version="1.1 (c4e8f9e, 2021-05-24)"
   sodipodi:docname="binaryTreeIterations.svg"
   xmlns:inkscape="http://www.inkscape.org/namespaces/inkscape"
   xmlns:sodipodi="http://sodipodi.sourceforge.net/DTD/sodipodi-0.dtd"
   xmlns="http://www.w3.org/2000/svg"
   xmlns:svg="http://www.w3.org/2000/svg">
  <sodipodi:namedview
     id="namedview7"
     pagecolor="#ffffff"
     bordercolor="#666666"
     borderopacity="1.0"
     inkscape:pageshadow="2"
     inkscape:pageopacity="0.0"
     inkscape:pagecheckerboard="0"
     inkscape:document-units="mm"
     showgrid="false"
     inkscape:zoom="1.2179317"
     inkscape:cx="282.03552"
     inkscape:cy="45.569058"
     inkscape:window-width="1220"
     inkscape:window-height="847"
     inkscape:window-x="2621"
     inkscape:window-y="137"
     inkscape:window-maximized="0"
     inkscape:current-layer="layer1">
    <inkscape:grid
       type="xygrid"
       id="grid824"
       originx="-18.917821"
       originy="-96.681641" />
  </sodipodi:namedview>
  <defs
     id="defs2">
    <marker
       style="overflow:visible"
       id="DotL"
       refX="0"
       refY="0"
       orient="auto"
       inkscape:stockid="DotL"
       inkscape:isstock="true">
      <path
         transform="matrix(0.8,0,0,0.8,5.92,0.8)"
         style="fill:context-stroke;fill-rule:evenodd;stroke:context-stroke;stroke-width:1pt"
         d="m -2.5,-1 c 0,2.76 -2.24,5 -5,5 -2.76,0 -5,-2.24 -5,-5 0,-2.76 2.24,-5 5,-5 2.76,0 5,2.24 5,5 z"
         id="path1010" />
    </marker>
    <marker
       style="overflow:visible"
       id="DotM"
       refX="0"
       refY="0"
       orient="auto"
       inkscape:stockid="DotM"
       inkscape:isstock="true">
      <path
         transform="matrix(0.4,0,0,0.4,2.96,0.4)"
         style="fill:context-stroke;fill-rule:evenodd;stroke:context-stroke;stroke-width:1pt"
         d="m -2.5,-1 c 0,2.76 -2.24,5 -5,5 -2.76,0 -5,-2.24 -5,-5 0,-2.76 2.24,-5 5,-5 2.76,0 5,2.24 5,5 z"
         id="path1013" />
    </marker>
    <defs
       id="id-ab6903e2-cc13-4d09-9a10-3335942da7b3">
      <g
         id="id-309334ed-3683-4b92-b0b6-3a0922dd28e1">
        <symbol
           overflow="visible"
           id="id-2150e467-3132-4416-ac4d-9a036146c330">
          <path
             style="stroke:none;stroke-width:0"
             d=""
             id="id-f5974db3-1874-4878-b918-3bbb4910754b" />
        </symbol>
        <symbol
           overflow="visible"
           id="id-4aa529b2-5cee-4de0-990d-b942e35513d0">
          <path
             style="stroke:none;stroke-width:0"
             d="m 0.875,-0.59375 c -0.03125,0.15625 -0.09375,0.390625 -0.09375,0.4375 0,0.171875 0.140625,0.265625 0.296875,0.265625 0.125,0 0.296875,-0.078125 0.375,-0.28125 0,-0.015625 0.125,-0.484375 0.1875,-0.734375 l 0.21875,-0.890625 C 1.90625,-2.03125 1.96875,-2.25 2.03125,-2.46875 c 0.03125,-0.171875 0.109375,-0.46875 0.125,-0.5 0.140625,-0.3125 0.671875,-1.21875 1.625,-1.21875 0.453125,0 0.53125,0.375 0.53125,0.703125 0,0.609375 -0.484375,1.890625 -0.640625,2.3125 C 3.578125,-0.9375 3.5625,-0.8125 3.5625,-0.703125 c 0,0.46875 0.359375,0.8125 0.828125,0.8125 0.9375,0 1.296875,-1.453125 1.296875,-1.53125 0,-0.109375 -0.078125,-0.109375 -0.109375,-0.109375 -0.109375,0 -0.109375,0.03125 -0.15625,0.1875 -0.203125,0.671875 -0.53125,1.234375 -1.015625,1.234375 -0.171875,0 -0.234375,-0.09375 -0.234375,-0.328125 0,-0.25 0.078125,-0.484375 0.171875,-0.703125 0.1875,-0.53125 0.609375,-1.625 0.609375,-2.203125 0,-0.65625 -0.421875,-1.0625 -1.140625,-1.0625 -0.90625,0 -1.390625,0.640625 -1.5625,0.875 -0.046875,-0.5625 -0.453125,-0.875 -0.921875,-0.875 -0.453125,0 -0.640625,0.390625 -0.734375,0.5625 C 0.421875,-3.5 0.296875,-2.90625 0.296875,-2.875 c 0,0.109375 0.09375,0.109375 0.109375,0.109375 0.109375,0 0.109375,-0.015625 0.171875,-0.234375 0.171875,-0.703125 0.375,-1.1875 0.734375,-1.1875 0.1875,0 0.296875,0.125 0.296875,0.453125 0,0.21875 -0.03125,0.328125 -0.15625,0.84375 z m 0,0"
             id="id-383168b0-a486-4694-9558-57182f492565" />
        </symbol>
        <symbol
           overflow="visible"
           id="id-fd46f1ef-39f4-45d5-9697-50a31bb754f0">
          <path
             style="stroke:none;stroke-width:0"
             d="M 6.265625,-5.671875 C 6.75,-6.453125 7.171875,-6.484375 7.53125,-6.5 c 0.125,-0.015625 0.140625,-0.171875 0.140625,-0.1875 0,-0.078125 -0.0625,-0.125 -0.140625,-0.125 -0.25,0 -0.546875,0.03125 -0.8125,0.03125 -0.328125,0 -0.671875,-0.03125 -0.984375,-0.03125 -0.0625,0 -0.1875,0 -0.1875,0.1875 0,0.109375 0.078125,0.125 0.15625,0.125 0.265625,0.015625 0.453125,0.125 0.453125,0.328125 0,0.15625 -0.140625,0.375 -0.140625,0.375 l -3.0625,4.875 -0.6875,-5.28125 C 2.265625,-6.375 2.5,-6.5 2.953125,-6.5 c 0.140625,0 0.25,0 0.25,-0.203125 0,-0.078125 -0.078125,-0.109375 -0.125,-0.109375 -0.40625,0 -0.828125,0.03125 -1.25,0.03125 -0.171875,0 -0.359375,0 -0.546875,0 -0.171875,0 -0.359375,-0.03125 -0.53125,-0.03125 -0.078125,0 -0.1875,0 -0.1875,0.1875 0,0.125 0.078125,0.125 0.25,0.125 0.546875,0 0.5625,0.09375 0.59375,0.34375 L 2.1875,-0.015625 C 2.21875,0.1875 2.265625,0.21875 2.390625,0.21875 c 0.15625,0 0.203125,-0.046875 0.28125,-0.171875 z m 0,0"
             id="id-32bc644d-7e95-4533-9759-ebc9bfaa8d38" />
        </symbol>
        <symbol
           overflow="visible"
           id="id-8517edf1-402e-40e8-8e6f-51ff42261f72">
          <path
             style="stroke:none;stroke-width:0"
             d=""
             id="id-c2691259-e159-4271-9e5e-e4590fdb0ab6" />
        </symbol>
        <symbol
           overflow="visible"
           id="id-99456ff4-32a6-43eb-b78a-200bbe0011c5">
          <path
             style="stroke:none;stroke-width:0"
             d="m 3.296875,2.390625 c 0,-0.03125 0,-0.046875 -0.171875,-0.21875 C 1.890625,0.921875 1.5625,-0.96875 1.5625,-2.5 c 0,-1.734375 0.375,-3.46875 1.609375,-4.703125 0.125,-0.125 0.125,-0.140625 0.125,-0.171875 0,-0.078125 -0.03125,-0.109375 -0.09375,-0.109375 -0.109375,0 -1,0.6875 -1.59375,1.953125 -0.5,1.09375 -0.625,2.203125 -0.625,3.03125 0,0.78125 0.109375,1.984375 0.65625,3.125 C 2.25,1.84375 3.09375,2.5 3.203125,2.5 c 0.0625,0 0.09375,-0.03125 0.09375,-0.109375 z m 0,0"
             id="id-956fd4a9-8cd8-4212-88b4-5c9cfe85c25d" />
        </symbol>
        <symbol
           overflow="visible"
           id="id-74ee8aca-0a6c-4835-b7b9-6ed6aeab43d7">
          <path
             style="stroke:none;stroke-width:0"
             d="m 2.875,-2.5 c 0,-0.765625 -0.109375,-1.96875 -0.65625,-3.109375 -0.59375,-1.21875 -1.453125,-1.875 -1.546875,-1.875 -0.0625,0 -0.109375,0.046875 -0.109375,0.109375 0,0.03125 0,0.046875 0.1875,0.234375 0.984375,0.984375 1.546875,2.5625 1.546875,4.640625 0,1.71875 -0.359375,3.46875 -1.59375,4.71875 C 0.5625,2.34375 0.5625,2.359375 0.5625,2.390625 0.5625,2.453125 0.609375,2.5 0.671875,2.5 0.765625,2.5 1.671875,1.8125 2.25,0.546875 2.765625,-0.546875 2.875,-1.65625 2.875,-2.5 Z m 0,0"
             id="id-84fdc9f8-bb22-48fb-b174-77c4d66c65af" />
        </symbol>
        <symbol
           overflow="visible"
           id="id-74e432d4-b058-4cc6-8a68-6abd7f7447b9">
          <path
             style="stroke:none;stroke-width:0"
             d="m 6.84375,-3.265625 c 0.15625,0 0.34375,0 0.34375,-0.1875 C 7.1875,-3.65625 7,-3.65625 6.859375,-3.65625 h -5.96875 c -0.140625,0 -0.328125,0 -0.328125,0.203125 0,0.1875 0.1875,0.1875 0.328125,0.1875 z m 0.015625,1.9375 c 0.140625,0 0.328125,0 0.328125,-0.203125 0,-0.1875 -0.1875,-0.1875 -0.34375,-0.1875 H 0.890625 c -0.140625,0 -0.328125,0 -0.328125,0.1875 0,0.203125 0.1875,0.203125 0.328125,0.203125 z m 0,0"
             id="id-c62e39e2-af98-470d-aa9a-35fdde2757a7" />
        </symbol>
        <symbol
           overflow="visible"
           id="id-f84fe74f-b459-4a04-b59a-360b82fd437f">
          <path
             style="stroke:none;stroke-width:0"
             d="m 2.890625,-3.515625 c 0.8125,-0.265625 1.390625,-0.953125 1.390625,-1.75 0,-0.8125 -0.875,-1.375 -1.828125,-1.375 -1,0 -1.765625,0.59375 -1.765625,1.359375 0,0.328125 0.21875,0.515625 0.515625,0.515625 0.296875,0 0.5,-0.21875 0.5,-0.515625 0,-0.484375 -0.46875,-0.484375 -0.609375,-0.484375 0.296875,-0.5 0.953125,-0.625 1.3125,-0.625 0.421875,0 0.96875,0.21875 0.96875,1.109375 0,0.125 -0.03125,0.703125 -0.28125,1.140625 C 2.796875,-3.65625 2.453125,-3.625 2.203125,-3.625 2.125,-3.609375 1.890625,-3.59375 1.8125,-3.59375 c -0.078125,0.015625 -0.140625,0.03125 -0.140625,0.125 0,0.109375 0.0625,0.109375 0.234375,0.109375 h 0.4375 c 0.8125,0 1.1875,0.671875 1.1875,1.65625 0,1.359375 -0.6875,1.640625 -1.125,1.640625 -0.4375,0 -1.1875,-0.171875 -1.53125,-0.75 0.34375,0.046875 0.65625,-0.171875 0.65625,-0.546875 0,-0.359375 -0.265625,-0.5625 -0.546875,-0.5625 -0.25,0 -0.5625,0.140625 -0.5625,0.578125 0,0.90625 0.921875,1.5625 2.015625,1.5625 1.21875,0 2.125,-0.90625 2.125,-1.921875 0,-0.8125 -0.640625,-1.59375 -1.671875,-1.8125 z m 0,0"
             id="id-ffa61a85-75c5-41ff-b11a-fceceb671963" />
        </symbol>
        <symbol
           overflow="visible"
           id="id-d62e0183-7b63-4c60-9584-56330062ccde">
          <path
             style="stroke:none;stroke-width:0"
             d="m 2.9375,-1.640625 v 0.859375 c 0,0.359375 -0.03125,0.46875 -0.765625,0.46875 H 1.96875 V 0 C 2.375,-0.03125 2.890625,-0.03125 3.3125,-0.03125 c 0.421875,0 0.9375,0 1.359375,0.03125 v -0.3125 h -0.21875 c -0.734375,0 -0.75,-0.109375 -0.75,-0.46875 V -1.640625 H 4.6875 v -0.3125 H 3.703125 v -4.53125 c 0,-0.203125 0,-0.265625 -0.171875,-0.265625 -0.078125,0 -0.109375,0 -0.1875,0.125 l -3.0625,4.671875 v 0.3125 z m 0.046875,-0.3125 H 0.5625 l 2.421875,-3.71875 z m 0,0"
             id="id-5ee59a3c-67ac-40ea-8a3b-45491bd4f7b3" />
        </symbol>
      </g>
    </defs>
  </defs>
  <g
     inkscape:label="Layer 1"
     inkscape:groupmode="layer"
     id="layer1"
     transform="translate(-18.917824,-96.681641)">
    <g
       id="g2361">
      <g
         id="path1437"
         style="fill:#ed333b">
        <path
           style="color:#000000;fill:#ed333b;-inkscape-stroke:none"
           d="m 58.099609,97.802734 -2.646484,2.644536 -2.644531,2.64648 -2.646485,2.64648 0.1875,0.1875 2.646485,-2.64648 2.644531,-2.64648 2.646484,-2.644536 z"
           id="path1345" />
        <g
           id="g1303"
           style="fill:#ed333b">
          <g
             id="path1335"
             style="fill:#ed333b">
            <path
               style="color:#000000;fill:#ed333b;fill-rule:evenodd;stroke-width:0.211666pt;-inkscape-stroke:none"
               d="m 49.522485,106.56673 c -0.413092,-0.41309 -0.413092,-1.08362 -2e-6,-1.49671 0.413091,-0.41309 1.083616,-0.41309 1.496708,0 0.413092,0.41309 0.413092,1.08361 2e-6,1.49671 -0.413091,0.41309 -1.083616,0.41309 -1.496708,0 z"
               id="path1339" />
            <path
               style="color:#000000;fill:#ed333b;fill-rule:evenodd;-inkscape-stroke:none"
               d="m 50.271484,104.61914 c -0.307297,0 -0.61607,0.11802 -0.849609,0.35156 -0.467078,0.46708 -0.46708,1.22824 0,1.69532 0.467079,0.46707 1.230188,0.46707 1.697266,0 0.467074,-0.46709 0.467078,-1.22824 0,-1.69532 -0.23354,-0.23354 -0.54036,-0.35156 -0.847657,-0.35156 z m 0,0.28125 c 0.234511,0 0.468886,0.09 0.648438,0.26953 0.359104,0.3591 0.359104,0.93776 0,1.29688 -0.359103,0.3591 -0.937771,0.3591 -1.296875,0 -0.359104,-0.3591 -0.359102,-0.93778 0,-1.29688 0.179551,-0.17955 0.413927,-0.26953 0.648437,-0.26953 z"
               id="path1341" />
          </g>
          <g
             id="path1325"
             style="fill:#ed333b">
            <path
               style="color:#000000;fill:#ed333b;fill-rule:evenodd;stroke-width:0.211666pt;-inkscape-stroke:none"
               d="m 52.168319,103.92089 c -0.413092,-0.41309 -0.413092,-1.08362 -10e-7,-1.49671 0.413091,-0.41309 1.083616,-0.41309 1.496707,0 0.413092,0.41309 0.413092,1.08361 10e-7,1.49671 -0.413091,0.41309 -1.083616,0.41309 -1.496707,0 z"
               id="path1329" />
            <path
               style="color:#000000;fill:#ed333b;fill-rule:evenodd;-inkscape-stroke:none"
               d="m 52.916016,101.97461 c -0.307297,0 -0.614118,0.11607 -0.847657,0.34961 -0.467078,0.46708 -0.467079,1.23019 0,1.69726 0.467078,0.46708 1.230188,0.46708 1.697266,0 0.467076,-0.46708 0.467079,-1.23018 0,-1.69726 -0.233539,-0.23354 -0.542312,-0.34961 -0.849609,-0.34961 z m 0,0.2793 c 0.23451,0 0.468886,0.09 0.648437,0.26953 0.359104,0.3591 0.359105,0.93776 0,1.29687 -0.359103,0.3591 -0.937772,0.3591 -1.296875,0 -0.359103,-0.3591 -0.359102,-0.93777 0,-1.29687 0.179552,-0.17955 0.413927,-0.26953 0.648438,-0.26953 z"
               id="path1331" />
          </g>
          <g
             id="path1315"
             style="fill:#ed333b">
            <path
               style="color:#000000;fill:#ed333b;fill-rule:evenodd;stroke-width:0.211666pt;-inkscape-stroke:none"
               d="m 54.81415,101.27506 c -0.413091,-0.41309 -0.413091,-1.08362 0,-1.496711 0.413092,-0.413091 1.083616,-0.413091 1.496708,0 0.413091,0.413091 0.413091,1.083621 0,1.496711 -0.413091,0.41309 -1.083616,0.41309 -1.496708,0 z"
               id="path1319" />
            <path
               style="color:#000000;fill:#ed333b;fill-rule:evenodd;-inkscape-stroke:none"
               d="m 55.5625,99.328125 c -0.307297,0 -0.614117,0.116071 -0.847656,0.349609 -0.467079,0.467076 -0.467079,1.230186 0,1.697266 0.467079,0.46708 1.228234,0.46708 1.695312,0 0.467079,-0.46708 0.467079,-1.23019 0,-1.697266 -0.233539,-0.233538 -0.540359,-0.349609 -0.847656,-0.349609 z m 0,0.28125 c 0.23451,0 0.468885,0.08998 0.648437,0.269531 0.359103,0.359104 0.359103,0.937774 0,1.296874 -0.359103,0.3591 -0.93777,0.3591 -1.296875,0 -0.359102,-0.3591 -0.359102,-0.93777 0,-1.296874 0.179553,-0.179551 0.413928,-0.269531 0.648438,-0.269531 z"
               id="path1321" />
          </g>
          <g
             id="path1305"
             style="fill:#ed333b">
            <path
               style="color:#000000;fill:#ed333b;fill-rule:evenodd;stroke-width:0.211666pt;-inkscape-stroke:none"
               d="m 57.459985,98.62922 c -0.413092,-0.413091 -0.413092,-1.083616 -1e-6,-1.496707 0.413091,-0.413092 1.083616,-0.413092 1.496707,-10e-7 0.413092,0.413091 0.413092,1.083616 10e-7,1.496707 -0.413091,0.413092 -1.083616,0.413092 -1.496707,10e-7 z"
               id="path1309" />
            <path
               style="color:#000000;fill:#ed333b;fill-rule:evenodd;-inkscape-stroke:none"
               d="m 58.208984,96.681641 c -0.307297,0 -0.61607,0.118023 -0.849609,0.351562 -0.467078,0.467078 -0.467079,1.228235 0,1.695313 0.467078,0.467078 1.230188,0.467079 1.697266,0 0.467078,-0.467078 0.467079,-1.228235 0,-1.695313 -0.233539,-0.233539 -0.54036,-0.351563 -0.847657,-0.351562 z m 0,0.28125 c 0.234511,0 0.468886,0.08998 0.648438,0.269531 0.359104,0.359103 0.359103,0.937772 0,1.296875 -0.359103,0.359104 -0.937772,0.359103 -1.296875,0 -0.359104,-0.359103 -0.359103,-0.937772 0,-1.296875 0.179552,-0.179552 0.413927,-0.269531 0.648437,-0.269531 z"
               id="path1311" />
          </g>
        </g>
      </g>
      <g
         id="path1647"
         style="fill:#ed333b">
        <path
           style="color:#000000;fill:#ed333b;-inkscape-stroke:none"
           d="m 69.132812,97.802734 -2.646484,2.644536 -2.740234,2.74023 2.740234,2.74023 0.1875,-0.1875 -2.552734,-2.55273 2.552734,-2.55273 2.644531,-2.644536 z"
           id="path1393" />
        <g
           id="g1351"
           style="fill:#ed333b">
          <g
             id="path1383"
             style="fill:#ed333b">
            <path
               style="color:#000000;fill:#ed333b;fill-rule:evenodd;stroke-width:0.211666pt;-inkscape-stroke:none"
               d="m 67.313214,106.56673 c -0.413092,0.41309 -1.083617,0.41309 -1.496708,0 -0.41309,-0.4131 -0.41309,-1.08362 2e-6,-1.49671 0.413092,-0.41309 1.083617,-0.41309 1.496708,0 0.41309,0.41309 0.41309,1.08362 -2e-6,1.49671 z"
               id="path1387" />
            <path
               style="color:#000000;fill:#ed333b;fill-rule:evenodd;-inkscape-stroke:none"
               d="m 66.564453,104.61914 c -0.307297,0 -0.614117,0.11802 -0.847656,0.35156 -0.467079,0.46708 -0.467075,1.22823 0,1.69532 0.467078,0.46707 1.228233,0.46707 1.695312,0 0.46708,-0.46708 0.467078,-1.22824 0,-1.69532 -0.233539,-0.23354 -0.540359,-0.35156 -0.847656,-0.35156 z m 0,0.28125 c 0.234511,0 0.468886,0.09 0.648438,0.26953 0.359101,0.3591 0.359103,0.93778 0,1.29688 -0.359105,0.3591 -0.937772,0.3591 -1.296875,0 -0.359105,-0.35912 -0.359105,-0.93778 0,-1.29688 0.179552,-0.17955 0.413926,-0.26953 0.648437,-0.26953 z"
               id="path1389" />
          </g>
          <g
             id="path1373"
             style="fill:#ed333b">
            <path
               style="color:#000000;fill:#ed333b;fill-rule:evenodd;stroke-width:0.211666pt;-inkscape-stroke:none"
               d="m 63.933994,104.22467 c -0.584199,0 -1.058332,-0.47414 -1.058332,-1.05834 0,-0.5842 0.474133,-1.05833 1.058332,-1.05833 0.584199,0 1.058332,0.47413 1.058332,1.05833 0,0.5842 -0.474133,1.05834 -1.058332,1.05834 z"
               id="path1377" />
            <path
               style="color:#000000;fill:#ed333b;fill-rule:evenodd;-inkscape-stroke:none"
               d="m 63.933594,101.9668 c -0.660548,0 -1.199219,0.53867 -1.199219,1.19922 0,0.66054 0.538669,1.19921 1.199219,1.19921 0.660549,0 1.199219,-0.53867 1.199218,-1.19921 0,-0.66055 -0.538671,-1.19922 -1.199218,-1.19922 z m 0,0.2832 c 0.507849,0 0.917969,0.40817 0.917968,0.91602 0,0.50785 -0.410121,0.91796 -0.917968,0.91796 -0.507848,0 -0.916016,-0.41011 -0.916016,-0.91796 0,-0.50785 0.408167,-0.91602 0.916016,-0.91602 z"
               id="path1379" />
          </g>
          <g
             id="path1363"
             style="fill:#ed333b">
            <path
               style="color:#000000;fill:#ed333b;fill-rule:evenodd;stroke-width:0.211666pt;-inkscape-stroke:none"
               d="m 65.84644,101.27506 c -0.413091,-0.41309 -0.413091,-1.08362 0,-1.496711 0.413092,-0.413091 1.083617,-0.413091 1.496708,0 0.413091,0.413091 0.413091,1.083621 0,1.496711 -0.413091,0.41309 -1.083616,0.41309 -1.496708,0 z"
               id="path1367" />
            <path
               style="color:#000000;fill:#ed333b;fill-rule:evenodd;-inkscape-stroke:none"
               d="m 66.595703,99.328125 c -0.307297,0 -0.61607,0.11607 -0.849609,0.349609 -0.467079,0.467076 -0.467079,1.230186 0,1.697266 0.467079,0.46708 1.230187,0.46708 1.697265,0 0.467079,-0.46708 0.467079,-1.23019 0,-1.697266 C 67.20982,99.444195 66.903,99.328125 66.595703,99.328125 Z m 0,0.28125 c 0.234511,0 0.468886,0.08998 0.648438,0.269531 0.359102,0.359104 0.359102,0.937774 0,1.296874 -0.359103,0.3591 -0.939724,0.3591 -1.298829,0 -0.359102,-0.3591 -0.359102,-0.93777 0,-1.296874 0.179553,-0.179551 0.415881,-0.269531 0.650391,-0.269531 z"
               id="path1369" />
          </g>
          <g
             id="path1353"
             style="fill:#ed333b">
            <path
               style="color:#000000;fill:#ed333b;fill-rule:evenodd;stroke-width:0.211666pt;-inkscape-stroke:none"
               d="m 68.492275,98.62922 c -0.413092,-0.413091 -0.413092,-1.083616 -1e-6,-1.496707 0.413091,-0.413092 1.083616,-0.413092 1.496707,-10e-7 0.413092,0.413091 0.413092,1.083616 10e-7,1.496707 -0.413091,0.413092 -1.083616,0.413092 -1.496707,10e-7 z"
               id="path1357" />
            <path
               style="color:#000000;fill:#ed333b;fill-rule:evenodd;-inkscape-stroke:none"
               d="m 69.240234,96.681641 c -0.307297,0 -0.614117,0.118023 -0.847656,0.351562 -0.467078,0.467078 -0.467079,1.228235 0,1.695313 0.467078,0.467078 1.228235,0.467079 1.695313,0 0.467078,-0.467078 0.467079,-1.228235 0,-1.695313 -0.233539,-0.233539 -0.54036,-0.351563 -0.847657,-0.351562 z m 0,0.28125 c 0.234511,0 0.468886,0.08998 0.648438,0.269531 0.359104,0.359103 0.359103,0.937772 0,1.296875 -0.359103,0.359104 -0.937772,0.359103 -1.296875,0 -0.359104,-0.359103 -0.359103,-0.937772 0,-1.296875 0.179552,-0.179552 0.413927,-0.269531 0.648437,-0.269531 z"
               id="path1359" />
          </g>
        </g>
      </g>
      <g
         id="path1762"
         style="fill:#ed333b">
        <path
           style="color:#000000;fill:#ed333b;-inkscape-stroke:none"
           d="m 80.15625,97.802734 -2.738281,2.738286 2.644531,2.64648 -2.552734,2.55273 0.1875,0.1875 2.740234,-2.74023 -2.646484,-2.64648 2.552734,-2.550786 z"
           id="path1442" />
        <g
           id="g1399"
           style="fill:#ed333b">
          <g
             id="path1431"
             style="fill:#ed333b">
            <path
               style="color:#000000;fill:#ed333b;fill-rule:evenodd;stroke-width:0.211666pt;-inkscape-stroke:none"
               d="m 76.870745,106.56673 c -0.413091,-0.41309 -0.413092,-1.08362 -2e-6,-1.49671 0.413091,-0.41309 1.083616,-0.41309 1.496708,0 0.413092,0.41309 0.413092,1.08361 2e-6,1.49671 -0.413091,0.41309 -1.083616,0.41309 -1.496708,0 z"
               id="path1435" />
            <path
               style="color:#000000;fill:#ed333b;fill-rule:evenodd;-inkscape-stroke:none"
               d="m 77.619141,104.61914 c -0.307297,0 -0.614118,0.11802 -0.847657,0.35156 -0.467077,0.46708 -0.467078,1.22824 0,1.69532 0.467079,0.46707 1.228235,0.46707 1.695313,0 0.467075,-0.46709 0.467079,-1.22824 0,-1.69532 -0.23354,-0.23354 -0.540359,-0.35156 -0.847656,-0.35156 z m 0,0.28125 c 0.23451,0 0.468885,0.09 0.648437,0.26953 0.359104,0.3591 0.359105,0.93776 0,1.29688 -0.359103,0.3591 -0.937771,0.3591 -1.296875,0 -0.359103,-0.3591 -0.359101,-0.93778 0,-1.29688 0.179552,-0.17955 0.413927,-0.26953 0.648438,-0.26953 z"
               id="path1438" />
          </g>
          <g
             id="path1421"
             style="fill:#ed333b">
            <path
               style="color:#000000;fill:#ed333b;fill-rule:evenodd;stroke-width:0.211666pt;-inkscape-stroke:none"
               d="m 80.249964,104.22467 c -0.584199,0 -1.058332,-0.47414 -1.058332,-1.05834 0,-0.5842 0.474133,-1.05833 1.058332,-1.05833 0.584199,0 1.058332,0.47413 1.058332,1.05833 0,0.5842 -0.474133,1.05834 -1.058332,1.05834 z"
               id="path1425" />
            <path
               style="color:#000000;fill:#ed333b;fill-rule:evenodd;-inkscape-stroke:none"
               d="m 80.25,101.9668 c -0.660548,0 -1.199219,0.53867 -1.199219,1.19922 0,0.66054 0.53867,1.19921 1.199219,1.19921 0.660549,0 1.199219,-0.53867 1.199219,-1.19921 0,-0.66055 -0.538671,-1.19922 -1.199219,-1.19922 z m 0,0.2832 c 0.507849,0 0.917969,0.40817 0.917969,0.91602 0,0.50785 -0.410121,0.91796 -0.917969,0.91796 -0.507848,0 -0.917969,-0.41011 -0.917969,-0.91796 0,-0.50785 0.41012,-0.91602 0.917969,-0.91602 z"
               id="path1427" />
          </g>
          <g
             id="path1411"
             style="fill:#ed333b">
            <path
               style="color:#000000;fill:#ed333b;fill-rule:evenodd;stroke-width:0.211666pt;-inkscape-stroke:none"
               d="m 77.604131,101.57884 c -0.584199,0 -1.058332,-0.47414 -1.058332,-1.05834 0,-0.584196 0.474133,-1.058329 1.058332,-1.058329 0.584199,0 1.058332,0.474133 1.058332,1.058329 0,0.5842 -0.474133,1.05834 -1.058332,1.05834 z"
               id="path1415" />
            <path
               style="color:#000000;fill:#ed333b;fill-rule:evenodd;-inkscape-stroke:none"
               d="m 77.603516,99.320312 c -0.660549,0 -1.199219,0.538674 -1.199219,1.199218 0,0.66055 0.538669,1.20117 1.199219,1.20117 0.660549,0 1.199218,-0.54062 1.199218,-1.20117 0,-0.660544 -0.53867,-1.199218 -1.199218,-1.199218 z m 0,0.283204 c 0.507848,0 0.917968,0.408174 0.917968,0.916014 0,0.50785 -0.410121,0.91797 -0.917968,0.91797 -0.507848,0 -0.916016,-0.41012 -0.916016,-0.91797 0,-0.50784 0.408167,-0.916014 0.916016,-0.916014 z"
               id="path1417" />
          </g>
          <g
             id="path1401"
             style="fill:#ed333b">
            <path
               style="color:#000000;fill:#ed333b;fill-rule:evenodd;stroke-width:0.211666pt;-inkscape-stroke:none"
               d="m 79.516578,98.62922 c -0.413092,-0.413091 -0.413092,-1.083616 -10e-7,-1.496707 0.413091,-0.413092 1.083616,-0.413092 1.496707,-10e-7 0.413092,0.413091 0.413092,1.083615 10e-7,1.496707 -0.413091,0.413092 -1.083616,0.413092 -1.496707,10e-7 z"
               id="path1405" />
            <path
               style="color:#000000;fill:#ed333b;fill-rule:evenodd;-inkscape-stroke:none"
               d="m 80.265625,96.681641 c -0.307297,0 -0.61607,0.118023 -0.849609,0.351562 -0.467078,0.467078 -0.467079,1.228235 0,1.695313 0.467078,0.467078 1.230187,0.467079 1.697265,0 0.467078,-0.467079 0.467079,-1.228235 0,-1.695313 -0.233539,-0.233539 -0.540359,-0.351563 -0.847656,-0.351562 z m 0,0.28125 c 0.23451,0 0.468886,0.08998 0.648437,0.269531 0.359105,0.359103 0.359104,0.937771 0,1.296875 -0.359103,0.359104 -0.937771,0.359103 -1.296875,0 -0.359104,-0.359103 -0.359103,-0.937772 0,-1.296875 0.179552,-0.179552 0.413928,-0.269531 0.648438,-0.269531 z"
               id="path1407" />
          </g>
        </g>
      </g>
      <g
         id="path1896"
         style="fill:#ed333b">
        <path
           style="color:#000000;fill:#ed333b;-inkscape-stroke:none"
           d="m 91.195312,97.802734 -2.738281,2.738286 2.738281,2.74023 2.646485,2.64648 0.1875,-0.1875 -2.646485,-2.64648 -2.552734,-2.55273 2.552734,-2.550786 z"
           id="path1490" />
        <g
           id="g1448"
           style="fill:#ed333b">
          <g
             id="path1480"
             style="fill:#ed333b">
            <path
               style="color:#000000;fill:#ed333b;fill-rule:evenodd;stroke-width:0.211666pt;-inkscape-stroke:none"
               d="m 94.668454,106.56673 c -0.413092,0.41309 -1.083617,0.41309 -1.496708,0 -0.41309,-0.4131 -0.41309,-1.08362 2e-6,-1.49671 0.413092,-0.41309 1.083617,-0.41309 1.496708,0 0.41309,0.41309 0.41309,1.08362 -2e-6,1.49671 z"
               id="path1484" />
            <path
               style="color:#000000;fill:#ed333b;fill-rule:evenodd;-inkscape-stroke:none"
               d="m 93.919922,104.61914 c -0.307297,0 -0.614117,0.11802 -0.847656,0.35156 -0.467079,0.46708 -0.467075,1.22823 0,1.69532 0.467078,0.46707 1.228233,0.46707 1.695312,0 0.46708,-0.46708 0.467078,-1.22824 0,-1.69532 -0.233539,-0.23354 -0.540359,-0.35156 -0.847656,-0.35156 z m 0,0.28125 c 0.234511,0 0.468886,0.09 0.648437,0.26953 0.359102,0.3591 0.359104,0.93778 0,1.29688 -0.359104,0.3591 -0.937772,0.3591 -1.296875,0 -0.359104,-0.35912 -0.359104,-0.93778 0,-1.29688 0.179552,-0.17955 0.413927,-0.26953 0.648438,-0.26953 z"
               id="path1486" />
          </g>
          <g
             id="path1470"
             style="fill:#ed333b">
            <path
               style="color:#000000;fill:#ed333b;fill-rule:evenodd;stroke-width:0.211666pt;-inkscape-stroke:none"
               d="m 92.02262,103.92089 c -0.413091,0.41309 -1.083616,0.41309 -1.496707,0 -0.413091,-0.41309 -0.413091,-1.08362 0,-1.49671 0.413092,-0.41309 1.083617,-0.41309 1.496708,0 0.413091,0.41309 0.413091,1.08362 -10e-7,1.49671 z"
               id="path1474" />
            <path
               style="color:#000000;fill:#ed333b;fill-rule:evenodd;-inkscape-stroke:none"
               d="m 91.273437,101.97461 c -0.307297,0 -0.614116,0.11607 -0.847656,0.34961 -0.467078,0.46708 -0.467078,1.23019 0,1.69726 0.467078,0.46708 1.230188,0.46708 1.697266,0 0.46708,-0.46707 0.467078,-1.23018 0,-1.69726 -0.233539,-0.23354 -0.542312,-0.34961 -0.84961,-0.34961 z m 0,0.2793 c 0.234511,0 0.468886,0.09 0.648438,0.26953 0.359103,0.3591 0.359104,0.93777 0,1.29687 -0.359103,0.3591 -0.937772,0.3591 -1.296875,0 -0.359103,-0.3591 -0.359103,-0.93777 0,-1.29687 0.179552,-0.17955 0.413927,-0.26953 0.648437,-0.26953 z"
               id="path1476" />
          </g>
          <g
             id="path1460"
             style="fill:#ed333b">
            <path
               style="color:#000000;fill:#ed333b;fill-rule:evenodd;stroke-width:0.211666pt;-inkscape-stroke:none"
               d="m 88.643401,101.57884 c -0.584199,0 -1.058332,-0.47414 -1.058332,-1.05834 0,-0.584196 0.474133,-1.058329 1.058332,-1.058329 0.584199,0 1.058332,0.474133 1.058332,1.058329 0,0.5842 -0.474133,1.05834 -1.058332,1.05834 z"
               id="path1464" />
            <path
               style="color:#000000;fill:#ed333b;fill-rule:evenodd;-inkscape-stroke:none"
               d="m 88.642578,99.320312 c -0.660548,0 -1.199219,0.538674 -1.199219,1.199218 0,0.66055 0.53867,1.20117 1.199219,1.20117 0.660549,0 1.201172,-0.54062 1.201172,-1.20117 0,-0.660544 -0.540624,-1.199218 -1.201172,-1.199218 z m 0,0.283204 c 0.507849,0 0.917969,0.408174 0.917969,0.916014 0,0.50785 -0.410121,0.91797 -0.917969,0.91797 -0.507847,0 -0.916016,-0.41012 -0.916016,-0.91797 0,-0.50784 0.408167,-0.916014 0.916016,-0.916014 z"
               id="path1466" />
          </g>
          <g
             id="path1450"
             style="fill:#ed333b">
            <path
               style="color:#000000;fill:#ed333b;fill-rule:evenodd;stroke-width:0.211666pt;-inkscape-stroke:none"
               d="m 90.555848,98.62922 c -0.413092,-0.413091 -0.413092,-1.083616 -10e-7,-1.496707 0.413091,-0.413092 1.083616,-0.413092 1.496707,-10e-7 0.413092,0.413091 0.413092,1.083615 10e-7,1.496707 -0.413091,0.413092 -1.083616,0.413092 -1.496707,10e-7 z"
               id="path1454" />
            <path
               style="color:#000000;fill:#ed333b;fill-rule:evenodd;-inkscape-stroke:none"
               d="m 91.304687,96.681641 c -0.307297,0 -0.614117,0.118023 -0.847656,0.351562 -0.467078,0.467078 -0.467079,1.228235 0,1.695313 0.467078,0.467078 1.228235,0.467079 1.695313,0 0.467077,-0.467079 0.467079,-1.228235 0,-1.695313 -0.233539,-0.233539 -0.540359,-0.351563 -0.847657,-0.351562 z m 0,0.28125 c 0.234511,0 0.468886,0.08998 0.648438,0.269531 0.359104,0.359103 0.359103,0.937771 0,1.296875 -0.359103,0.359104 -0.937772,0.359103 -1.296875,0 -0.359104,-0.359103 -0.359103,-0.937772 0,-1.296875 0.179552,-0.179552 0.413927,-0.269531 0.648437,-0.269531 z"
               id="path1456" />
          </g>
        </g>
      </g>
      <g
         id="path2011"
         style="fill:#ed333b">
        <path
           style="color:#000000;fill:#ed333b;-inkscape-stroke:none"
           d="m 104.9668,97.708984 -2.74024,2.738286 -2.644529,2.64648 0.185547,0.1875 2.646482,-2.64648 2.55274,-2.550786 2.55273,2.550786 0.18555,-0.1875 z"
           id="path1538" />
        <g
           id="g1496"
           style="fill:#ed333b">
          <g
             id="path1528"
             style="fill:#ed333b">
            <path
               style="color:#000000;fill:#ed333b;fill-rule:evenodd;stroke-width:0.211666pt;-inkscape-stroke:none"
               d="m 108.34558,101.27506 c -0.4131,0.41309 -1.08362,0.41309 -1.49671,0 -0.41309,-0.4131 -0.41309,-1.08362 0,-1.496712 0.41309,-0.41309 1.08362,-0.41309 1.49671,2e-6 0.41309,0.41309 0.41309,1.08362 0,1.49671 z"
               id="path1532" />
            <path
               style="color:#000000;fill:#ed333b;fill-rule:evenodd;-inkscape-stroke:none"
               d="m 107.59766,99.328125 c -0.3073,0 -0.61412,0.116071 -0.84766,0.349609 -0.46708,0.467076 -0.46707,1.230176 0,1.697266 0.46708,0.46708 1.22823,0.46707 1.69531,0 0.46708,-0.46708 0.46708,-1.23019 0,-1.697266 -0.23354,-0.233539 -0.54036,-0.349609 -0.84765,-0.349609 z m 0,0.28125 c 0.23451,0 0.46888,0.08998 0.64843,0.269531 0.35911,0.359104 0.35911,0.937774 0,1.296874 -0.35911,0.35911 -0.93777,0.3591 -1.29687,0 -0.35911,-0.35911 -0.3591,-0.93777 0,-1.296874 0.17955,-0.179551 0.41392,-0.269531 0.64844,-0.269531 z"
               id="path1534" />
          </g>
          <g
             id="path1518"
             style="fill:#ed333b">
            <path
               style="color:#000000;fill:#ed333b;fill-rule:evenodd;stroke-width:0.211666pt;-inkscape-stroke:none"
               d="m 106.00353,97.895833 c 0,0.584199 -0.47414,1.058332 -1.05834,1.058332 -0.5842,0 -1.05833,-0.474133 -1.05833,-1.058332 0,-0.584199 0.47413,-1.058332 1.05833,-1.058332 0.5842,0 1.05834,0.474133 1.05834,1.058332 z"
               id="path1522" />
            <path
               style="color:#000000;fill:#ed333b;fill-rule:evenodd;-inkscape-stroke:none"
               d="m 104.94531,96.697266 c -0.66055,0 -1.19922,0.538671 -1.19922,1.199218 0,0.660548 0.53867,1.199219 1.19922,1.199219 0.66055,0 1.19922,-0.538669 1.19922,-1.199219 0,-0.660549 -0.53867,-1.199218 -1.19922,-1.199218 z m 0,0.28125 c 0.50785,0 0.91797,0.410121 0.91797,0.917968 0,0.507848 -0.41012,0.916016 -0.91797,0.916016 -0.50785,0 -0.91797,-0.408166 -0.91797,-0.916016 0,-0.507849 0.41012,-0.917968 0.91797,-0.917968 z"
               id="path1524" />
          </g>
          <g
             id="path1508"
             style="fill:#ed333b">
            <path
               style="color:#000000;fill:#ed333b;fill-rule:evenodd;stroke-width:0.211666pt;-inkscape-stroke:none"
               d="m 103.05392,99.808283 c 0.41309,0.413087 0.41309,1.083617 0,1.496707 -0.41309,0.41309 -1.08362,0.41309 -1.49671,0 -0.41309,-0.41309 -0.41309,-1.08362 0,-1.496707 0.41309,-0.413091 1.08362,-0.413091 1.49671,0 z"
               id="path1512" />
            <path
               style="color:#000000;fill:#ed333b;fill-rule:evenodd;-inkscape-stroke:none"
               d="m 102.30469,99.357422 c -0.3073,0 -0.61412,0.118023 -0.84766,0.351562 -0.46708,0.467076 -0.46708,1.228236 0,1.695316 0.46708,0.46707 1.23019,0.46707 1.69727,0 0.46707,-0.46708 0.46707,-1.22824 0,-1.695316 -0.23354,-0.233539 -0.54231,-0.351562 -0.84961,-0.351562 z m 0,0.28125 c 0.23451,0 0.47084,0.08998 0.65039,0.269531 0.3591,0.359097 0.3591,0.937777 0,1.296877 -0.3591,0.3591 -0.93973,0.3591 -1.29883,0 -0.3591,-0.3591 -0.3591,-0.93778 0,-1.296877 0.17955,-0.179551 0.41393,-0.269531 0.64844,-0.269531 z"
               id="path1514" />
          </g>
          <g
             id="path1498"
             style="fill:#ed333b">
            <path
               style="color:#000000;fill:#ed333b;fill-rule:evenodd;stroke-width:0.211666pt;-inkscape-stroke:none"
               d="m 100.40808,102.45411 c 0.41309,0.4131 0.41309,1.08362 0,1.49671 -0.413094,0.41309 -1.083619,0.41309 -1.49671,0 -0.413091,-0.41309 -0.41309,-1.08362 2e-6,-1.49671 0.413092,-0.41309 1.083617,-0.41309 1.496708,0 z"
               id="path1502" />
            <path
               style="color:#000000;fill:#ed333b;fill-rule:evenodd;-inkscape-stroke:none"
               d="m 99.660156,102.00391 c -0.307297,0 -0.614117,0.11607 -0.847656,0.34961 -0.46708,0.46707 -0.467079,1.23018 0,1.69726 0.467078,0.46708 1.22823,0.46708 1.69531,0 0.46708,-0.46708 0.46708,-1.23018 0,-1.69726 -0.23354,-0.23354 -0.540357,-0.34961 -0.847654,-0.34961 z m 0,0.28125 c 0.234511,0 0.468884,0.09 0.648434,0.26953 0.35911,0.35911 0.35911,0.93777 0,1.29687 -0.359103,0.35911 -0.937768,0.3591 -1.296871,0 -0.359103,-0.3591 -0.359104,-0.93777 0,-1.29687 0.179552,-0.17955 0.413927,-0.26953 0.648437,-0.26953 z"
               id="path1504" />
          </g>
        </g>
      </g>
      <g
         id="path2013"
         style="fill:#ed333b">
        <path
           style="color:#000000;fill:#ed333b;-inkscape-stroke:none"
           d="m 115.98828,97.708984 -2.83398,2.832036 2.74023,2.74023 0.1875,-0.1875 -2.55273,-2.55273 2.45898,-2.457036 2.55078,2.550786 0.1875,-0.1875 z"
           id="path1596" />
        <g
           id="g1544"
           style="fill:#ed333b">
          <g
             id="path1586"
             style="fill:#ed333b">
            <path
               style="color:#000000;fill:#ed333b;fill-rule:evenodd;stroke-width:0.211666pt;-inkscape-stroke:none"
               d="m 119.36684,101.27506 c -0.4131,0.41309 -1.08362,0.41309 -1.49671,0 -0.41309,-0.4131 -0.41309,-1.08362 0,-1.496712 0.41309,-0.41309 1.08362,-0.41309 1.49671,2e-6 0.41309,0.41309 0.41309,1.08362 0,1.49671 z"
               id="path1590" />
            <path
               style="color:#000000;fill:#ed333b;fill-rule:evenodd;-inkscape-stroke:none"
               d="m 118.61914,99.328125 c -0.3073,0 -0.61607,0.116071 -0.84961,0.349609 -0.46708,0.467076 -0.46707,1.230176 0,1.697266 0.46708,0.46708 1.23018,0.46707 1.69727,0 0.46707,-0.46708 0.46707,-1.23019 0,-1.697266 -0.23354,-0.233539 -0.54036,-0.349609 -0.84766,-0.349609 z m 0,0.28125 c 0.23451,0 0.46889,0.08998 0.64844,0.269531 0.3591,0.359104 0.3591,0.937774 0,1.296874 -0.35911,0.35911 -0.93777,0.3591 -1.29688,0 -0.3591,-0.35911 -0.3591,-0.93777 0,-1.296874 0.17955,-0.179551 0.41393,-0.269531 0.64844,-0.269531 z"
               id="path1592" />
          </g>
          <g
             id="path1576"
             style="fill:#ed333b">
            <path
               style="color:#000000;fill:#ed333b;fill-rule:evenodd;stroke-width:0.211666pt;-inkscape-stroke:none"
               d="m 117.02479,97.895833 c 0,0.584199 -0.47414,1.058332 -1.05834,1.058332 -0.5842,0 -1.05833,-0.474133 -1.05833,-1.058332 0,-0.584199 0.47413,-1.058332 1.05833,-1.058332 0.5842,0 1.05834,0.474133 1.05834,1.058332 z"
               id="path1580" />
            <path
               style="color:#000000;fill:#ed333b;fill-rule:evenodd;-inkscape-stroke:none"
               d="m 115.9668,96.697266 c -0.66055,0 -1.19922,0.538671 -1.19922,1.199218 0,0.660548 0.53867,1.199219 1.19922,1.199219 0.66055,0 1.19922,-0.538669 1.19922,-1.199219 0,-0.660549 -0.53867,-1.199218 -1.19922,-1.199218 z m 0,0.28125 c 0.50785,0 0.91601,0.410121 0.91601,0.917968 0,0.507848 -0.40816,0.916016 -0.91601,0.916016 -0.50785,0 -0.91797,-0.408166 -0.91797,-0.916016 0,-0.507849 0.41012,-0.917968 0.91797,-0.917968 z"
               id="path1582" />
          </g>
          <g
             id="path1566"
             style="fill:#ed333b">
            <path
               style="color:#000000;fill:#ed333b;fill-rule:evenodd;stroke-width:0.211666pt;-inkscape-stroke:none"
               d="m 112.94488,99.583454 c 0.53973,-0.223563 1.15922,0.03303 1.38278,0.572766 0.22356,0.53973 -0.033,1.15921 -0.57276,1.38278 -0.53973,0.22356 -1.15922,-0.033 -1.38278,-0.57277 -0.22356,-0.53973 0.033,-1.159212 0.57276,-1.382776 z"
               id="path1570" />
            <path
               style="color:#000000;fill:#ed333b;fill-rule:evenodd;-inkscape-stroke:none"
               d="m 112.89063,99.453125 c -0.6103,0.25278 -0.90122,0.956145 -0.64844,1.566405 0.25277,0.61031 0.95614,0.90317 1.5664,0.65039 0.6103,-0.25278 0.90317,-0.9581 0.65039,-1.56836 -0.25277,-0.610272 -0.95809,-0.901215 -1.56835,-0.648435 z m 0.10742,0.259766 c 0.46919,-0.194346 1.00487,0.02885 1.19922,0.498049 0.19434,0.46919 -0.0269,1.00291 -0.4961,1.19726 -0.46919,0.19435 -1.00487,-0.0269 -1.19922,-0.49609 -0.19434,-0.4692 0.0269,-1.004872 0.4961,-1.199219 z"
               id="path1572" />
          </g>
          <g
             id="path1556"
             style="fill:#ed333b">
            <path
               style="color:#000000;fill:#ed333b;fill-rule:evenodd;stroke-width:0.211666pt;-inkscape-stroke:none"
               d="m 113.7387,99.583454 c 0.53973,0.223564 0.79632,0.843046 0.57276,1.382776 -0.22356,0.53973 -0.84305,0.79633 -1.38278,0.57277 -0.53973,-0.22357 -0.79632,-0.84305 -0.57276,-1.38278 0.22356,-0.53973 0.84305,-0.796329 1.38278,-0.572766 z"
               id="path1560" />
            <path
               style="color:#000000;fill:#ed333b;fill-rule:evenodd;-inkscape-stroke:none"
               d="m 112.875,99.453125 c -0.28391,0.117598 -0.524,0.343303 -0.65039,0.648435 -0.25278,0.61027 0.0401,1.31557 0.65039,1.56836 0.61027,0.25278 1.31363,-0.0401 1.56641,-0.65039 0.25277,-0.61026 -0.0382,-1.313623 -0.64844,-1.566405 -0.30514,-0.12639 -0.63406,-0.117598 -0.91797,0 z m 0.10742,0.259766 c 0.21666,-0.08974 0.46853,-0.09717 0.70313,0 0.46919,0.194346 0.69043,0.730029 0.49609,1.199219 -0.19434,0.46919 -0.73003,0.69044 -1.19922,0.49609 -0.46919,-0.19435 -0.69043,-0.72807 -0.49609,-1.19726 0.0972,-0.234598 0.27943,-0.408306 0.49609,-0.498049 z"
               id="path1562" />
          </g>
          <g
             id="path1546"
             style="fill:#ed333b">
            <path
               style="color:#000000;fill:#ed333b;fill-rule:evenodd;stroke-width:0.211666pt;-inkscape-stroke:none"
               d="m 115.25423,102.45411 c 0.41309,-0.41309 1.08362,-0.41309 1.49671,0 0.41309,0.41309 0.41309,1.08362 0,1.49671 -0.41309,0.41309 -1.08362,0.41309 -1.49671,0 -0.41309,-0.41309 -0.41309,-1.08362 0,-1.49671 z"
               id="path1550" />
            <path
               style="color:#000000;fill:#ed333b;fill-rule:evenodd;-inkscape-stroke:none"
               d="m 116.00195,102.00391 c -0.30729,0 -0.61411,0.11607 -0.84765,0.34961 -0.46708,0.46707 -0.46708,1.23018 0,1.69726 0.46707,0.46708 1.23018,0.46708 1.69726,0 0.46708,-0.46708 0.46708,-1.23019 0,-1.69726 -0.23354,-0.23354 -0.54231,-0.34961 -0.84961,-0.34961 z m 0,0.28125 c 0.23451,0 0.46889,0.09 0.64844,0.26953 0.3591,0.3591 0.3591,0.93777 0,1.29687 -0.3591,0.3591 -0.93777,0.3591 -1.29687,0 -0.35911,-0.3591 -0.35911,-0.93777 0,-1.29687 0.17955,-0.17955 0.41392,-0.26953 0.64843,-0.26953 z"
               id="path1552" />
          </g>
        </g>
      </g>
      <g
         id="g2524"
         transform="translate(-1.3378824,5.2916667)"
         style="fill:#ed333b">
        <g
           id="path2128"
           style="fill:#ed333b">
          <path
             style="color:#000000;fill:#ed333b;-inkscape-stroke:none"
             d="m 132.19727,92.509766 -2.64454,2.646484 -2.64648,2.646484 0.1875,0.1875 2.64648,-2.646484 2.64454,-2.646484 z"
             id="path1624" />
          <g
             id="g1602"
             style="fill:#ed333b">
            <g
               id="path1614"
               style="fill:#ed333b">
              <path
                 style="color:#000000;fill:#ed333b;fill-rule:evenodd;stroke-width:0.211666pt;-inkscape-stroke:none"
                 d="m 126.26661,98.629219 c -0.41309,-0.413091 -0.41309,-1.083616 0,-1.496707 0.41309,-0.413092 1.08362,-0.413092 1.49671,-1e-6 0.41309,0.413091 0.41309,1.083616 0,1.496707 -0.41309,0.413092 -1.08361,0.413092 -1.49671,1e-6 z"
                 id="path1618" />
              <path
                 style="color:#000000;fill:#ed333b;fill-rule:evenodd;-inkscape-stroke:none"
                 d="m 127.01563,96.681641 c -0.3073,0 -0.61608,0.118022 -0.84961,0.351562 -0.46708,0.467078 -0.46708,1.228235 0,1.695313 0.46708,0.467075 1.23018,0.467078 1.69726,0 0.46708,-0.467078 0.46708,-1.228235 0,-1.695313 -0.23354,-0.233539 -0.54036,-0.351563 -0.84765,-0.351562 z m 0,0.28125 c 0.23451,0 0.46888,0.08998 0.64843,0.269531 0.3591,0.359103 0.3591,0.937772 0,1.296875 -0.3591,0.359104 -0.93776,0.359105 -1.29687,0 -0.3591,-0.359103 -0.3591,-0.937772 0,-1.296875 0.17955,-0.179552 0.41392,-0.269531 0.64844,-0.269531 z"
                 id="path1620" />
            </g>
            <g
               id="path1604"
               style="fill:#ed333b">
              <path
                 style="color:#000000;fill:#ed333b;fill-rule:evenodd;stroke-width:0.211666pt;-inkscape-stroke:none"
                 d="m 131.55827,93.337553 c -0.41309,-0.413091 -0.41309,-1.083616 0,-1.496707 0.41309,-0.413092 1.08362,-0.413092 1.49671,-10e-7 0.41309,0.413091 0.41309,1.083616 0,1.496707 -0.41309,0.413092 -1.08361,0.413092 -1.49671,10e-7 z"
                 id="path1608" />
              <path
                 style="color:#000000;fill:#ed333b;fill-rule:evenodd;-inkscape-stroke:none"
                 d="m 132.30664,91.390625 c -0.3073,0 -0.61412,0.11607 -0.84766,0.349609 -0.46707,0.467078 -0.46707,1.230188 0,1.697266 0.46709,0.467076 1.22824,0.467079 1.69532,0 0.46707,-0.467078 0.46707,-1.230188 0,-1.697266 -0.23354,-0.233539 -0.54036,-0.349609 -0.84766,-0.349609 z m 0,0.28125 c 0.23451,0 0.46889,0.08998 0.64844,0.269531 0.3591,0.359103 0.3591,0.937772 0,1.296875 -0.3591,0.359105 -0.93776,0.359106 -1.29688,0 -0.3591,-0.359103 -0.3591,-0.937772 0,-1.296875 0.17955,-0.179552 0.41393,-0.269531 0.64844,-0.269531 z"
                 id="path1610" />
            </g>
          </g>
        </g>
        <g
           id="path2130"
           style="fill:#ed333b">
          <path
             style="color:#000000;fill:#ed333b;-inkscape-stroke:none"
             d="m 129.74023,95.15625 -0.1875,0.1875 2.64454,2.646484 0.1875,-0.1875 z"
             id="path1652" />
          <g
             id="g1630"
             style="fill:#ed333b">
            <g
               id="path1642"
               style="fill:#ed333b">
              <path
                 style="color:#000000;fill:#ed333b;fill-rule:evenodd;stroke-width:0.211666pt;-inkscape-stroke:none"
                 d="m 133.02505,98.629219 c -0.4131,0.413091 -1.08362,0.413091 -1.49671,-1e-6 -0.41309,-0.413091 -0.41309,-1.083616 0,-1.496707 0.41309,-0.413091 1.08362,-0.413091 1.49671,1e-6 0.41309,0.413091 0.41309,1.083616 0,1.496707 z"
                 id="path1646" />
              <path
                 style="color:#000000;fill:#ed333b;fill-rule:evenodd;-inkscape-stroke:none"
                 d="m 132.27734,96.681641 c -0.30729,-10e-7 -0.61607,0.118023 -0.84961,0.351562 -0.46707,0.467078 -0.46707,1.228235 0,1.695313 0.46708,0.467078 1.23018,0.467075 1.69727,0 0.46708,-0.467078 0.46708,-1.228235 0,-1.695313 -0.23354,-0.23354 -0.54036,-0.351562 -0.84766,-0.351562 z m 0,0.28125 c 0.23452,0 0.46889,0.08998 0.64844,0.269531 0.3591,0.359103 0.3591,0.937772 0,1.296875 -0.35911,0.359105 -0.93777,0.359104 -1.29687,0 -0.35911,-0.359103 -0.35911,-0.937772 0,-1.296875 0.17955,-0.179551 0.41392,-0.269531 0.64843,-0.269531 z"
                 id="path1648" />
            </g>
            <g
               id="path1632"
               style="fill:#ed333b">
              <path
                 style="color:#000000;fill:#ed333b;fill-rule:evenodd;stroke-width:0.211666pt;-inkscape-stroke:none"
                 d="m 130.37922,95.983386 c -0.4131,0.413091 -1.08362,0.413091 -1.49671,-10e-7 -0.41309,-0.413091 -0.41309,-1.083616 0,-1.496707 0.41309,-0.413091 1.08362,-0.413091 1.49671,10e-7 0.41309,0.413091 0.41309,1.083616 0,1.496707 z"
                 id="path1636" />
              <path
                 style="color:#000000;fill:#ed333b;fill-rule:evenodd;-inkscape-stroke:none"
                 d="m 129.63086,94.037109 c -0.3073,0 -0.61412,0.11607 -0.84766,0.34961 -0.46707,0.467078 -0.46707,1.230187 0,1.697265 0.46708,0.467079 1.22823,0.467076 1.69532,0 0.46707,-0.467078 0.46707,-1.230187 0,-1.697265 -0.23354,-0.23354 -0.54036,-0.349609 -0.84766,-0.34961 z m 0,0.279297 c 0.23451,0 0.46889,0.08998 0.64844,0.269531 0.3591,0.359104 0.3591,0.937772 0,1.296875 -0.35912,0.359106 -0.93778,0.359105 -1.29688,0 -0.3591,-0.359103 -0.3591,-0.937771 0,-1.296875 0.17955,-0.179551 0.41393,-0.269531 0.64844,-0.269531 z"
                 id="path1638" />
            </g>
          </g>
        </g>
      </g>
      <g
         id="g2383"
         transform="translate(0.01496058,-10.583333)"
         style="fill:#ed333b">
        <g
           id="path2347"
           style="fill:#ed333b">
          <path
             style="color:#000000;fill:#ed333b;-inkscape-stroke:none"
             d="m 124.44727,124.25977 -0.1875,0.1875 2.64648,2.64648 2.64648,2.64648 2.64454,2.64454 0.1875,-0.1875 -2.64454,-2.64454 -2.64648,-2.64648 z"
             id="path1700" />
          <g
             id="g1658"
             style="fill:#ed333b">
            <g
               id="path1690"
               style="fill:#ed333b">
              <path
                 style="color:#000000;fill:#ed333b;fill-rule:evenodd;stroke-width:0.211666pt;-inkscape-stroke:none"
                 d="m 133.02506,133.02506 c -0.4131,0.41309 -1.08362,0.41309 -1.49671,0 -0.41309,-0.4131 -0.41309,-1.08362 0,-1.49671 0.41309,-0.41309 1.08362,-0.41309 1.49671,0 0.41309,0.41309 0.41309,1.08362 0,1.49671 z"
                 id="path1694" />
              <path
                 style="color:#000000;fill:#ed333b;fill-rule:evenodd;-inkscape-stroke:none"
                 d="m 132.27734,131.07812 c -0.30729,0 -0.61607,0.11608 -0.84961,0.34961 -0.46707,0.46708 -0.46707,1.23018 0,1.69727 0.46708,0.46708 1.23018,0.46707 1.69727,0 0.46708,-0.46708 0.46708,-1.23019 0,-1.69727 -0.23354,-0.23353 -0.54036,-0.34961 -0.84766,-0.34961 z m 0,0.28125 c 0.23452,0 0.46889,0.09 0.64844,0.26954 0.3591,0.3591 0.3591,0.93777 0,1.29687 -0.35911,0.35911 -0.93777,0.3591 -1.29687,0 -0.35911,-0.35911 -0.35911,-0.93777 0,-1.29687 0.17955,-0.17955 0.41392,-0.26954 0.64843,-0.26954 z"
                 id="path1696" />
            </g>
            <g
               id="path1680"
               style="fill:#ed333b">
              <path
                 style="color:#000000;fill:#ed333b;fill-rule:evenodd;stroke-width:0.211666pt;-inkscape-stroke:none"
                 d="m 130.37923,130.37922 c -0.4131,0.41309 -1.08362,0.41309 -1.49671,0 -0.41309,-0.4131 -0.41309,-1.08362 0,-1.49671 0.41309,-0.41309 1.08362,-0.41309 1.49671,0 0.41309,0.41309 0.41309,1.08362 0,1.49671 z"
                 id="path1684" />
              <path
                 style="color:#000000;fill:#ed333b;fill-rule:evenodd;-inkscape-stroke:none"
                 d="m 129.63086,128.43164 c -0.3073,0 -0.61412,0.11802 -0.84766,0.35156 -0.46707,0.46708 -0.46707,1.22823 0,1.69532 0.46708,0.46707 1.22823,0.46707 1.69532,0 0.46707,-0.46708 0.46707,-1.22824 0,-1.69532 -0.23354,-0.23354 -0.54036,-0.35156 -0.84766,-0.35156 z m 0,0.28125 c 0.23451,0 0.46889,0.09 0.64844,0.26953 0.3591,0.3591 0.3591,0.93778 0,1.29688 -0.35912,0.3591 -0.93778,0.3591 -1.29688,0 -0.3591,-0.35912 -0.3591,-0.93778 0,-1.29688 0.17955,-0.17955 0.41393,-0.26953 0.64844,-0.26953 z"
                 id="path1686" />
            </g>
            <g
               id="path1670"
               style="fill:#ed333b">
              <path
                 style="color:#000000;fill:#ed333b;fill-rule:evenodd;stroke-width:0.211666pt;-inkscape-stroke:none"
                 d="m 127.7334,127.73339 c -0.41309,0.41309 -1.08362,0.41309 -1.49671,0 -0.41309,-0.41309 -0.41309,-1.08362 0,-1.49671 0.41309,-0.41309 1.08362,-0.41309 1.49671,0 0.41309,0.41309 0.41309,1.08362 0,1.49671 z"
                 id="path1674" />
              <path
                 style="color:#000000;fill:#ed333b;fill-rule:evenodd;-inkscape-stroke:none"
                 d="m 126.98438,125.78711 c -0.3073,0 -0.61412,0.11607 -0.84766,0.34961 -0.46708,0.46708 -0.46708,1.23019 0,1.69726 0.46708,0.46708 1.23019,0.46708 1.69726,0 0.46708,-0.46707 0.46708,-1.23018 0,-1.69726 -0.23353,-0.23354 -0.54231,-0.34961 -0.8496,-0.34961 z m 0,0.2793 c 0.23451,0 0.46888,0.09 0.64843,0.26953 0.3591,0.3591 0.3591,0.93777 0,1.29687 -0.3591,0.3591 -0.93777,0.3591 -1.29687,0 -0.3591,-0.3591 -0.3591,-0.93777 0,-1.29687 0.17955,-0.17955 0.41392,-0.26953 0.64844,-0.26953 z"
                 id="path1676" />
            </g>
            <g
               id="path1660"
               style="fill:#ed333b">
              <path
                 style="color:#000000;fill:#ed333b;fill-rule:evenodd;stroke-width:0.211666pt;-inkscape-stroke:none"
                 d="m 125.08756,125.08755 c -0.41309,0.41309 -1.08362,0.41309 -1.49671,0 -0.41309,-0.41309 -0.41309,-1.08362 0,-1.49671 0.41309,-0.41309 1.08362,-0.41309 1.49671,0 0.41309,0.41309 0.41309,1.08362 0,1.49671 z"
                 id="path1664" />
              <path
                 style="color:#000000;fill:#ed333b;fill-rule:evenodd;-inkscape-stroke:none"
                 d="m 124.33984,123.14063 c -0.30729,0 -0.61607,0.11607 -0.84961,0.3496 -0.46707,0.46708 -0.46707,1.23019 0,1.69727 0.46708,0.46708 1.23019,0.46708 1.69727,0 0.46708,-0.46708 0.46708,-1.23019 0,-1.69727 -0.23354,-0.23353 -0.54036,-0.3496 -0.84766,-0.3496 z m 0,0.28125 c 0.23452,0 0.46889,0.09 0.64844,0.26953 0.3591,0.3591 0.3591,0.93777 0,1.29687 -0.3591,0.3591 -0.93777,0.3591 -1.29687,0 -0.35911,-0.3591 -0.35911,-0.93777 0,-1.29687 0.17955,-0.17955 0.41392,-0.26953 0.64843,-0.26953 z"
                 id="path1666" />
            </g>
          </g>
        </g>
      </g>
      <g
         id="g2380"
         transform="translate(-0.43398968,-10.583333)"
         style="fill:#ed333b">
        <g
           id="path2349"
           style="fill:#ed333b">
          <path
             style="color:#000000;fill:#ed333b;-inkscape-stroke:none"
             d="m 113.86523,124.25977 -0.1875,0.1875 2.64454,2.64648 2.55273,2.55273 -2.55273,2.55079 0.1875,0.1875 2.74023,-2.73829 -2.74023,-2.74023 z"
             id="path1748" />
          <g
             id="g1706"
             style="fill:#ed333b">
            <g
               id="path1738"
               style="fill:#ed333b">
              <path
                 style="color:#000000;fill:#ed333b;fill-rule:evenodd;stroke-width:0.211666pt;-inkscape-stroke:none"
                 d="m 115.68328,133.02506 c -0.41309,-0.41309 -0.41309,-1.08362 0,-1.49671 0.41309,-0.41309 1.08362,-0.41309 1.49671,0 0.41309,0.41309 0.41309,1.08362 0,1.49671 -0.41309,0.41309 -1.08362,0.41309 -1.49671,0 z"
                 id="path1742" />
              <path
                 style="color:#000000;fill:#ed333b;fill-rule:evenodd;-inkscape-stroke:none"
                 d="m 116.43164,131.07812 c -0.3073,0 -0.61412,0.11608 -0.84766,0.34961 -0.46707,0.46708 -0.46707,1.23019 0,1.69727 0.46708,0.46708 1.22824,0.46708 1.69532,0 0.46707,-0.46708 0.46707,-1.23019 0,-1.69727 -0.23354,-0.23353 -0.54036,-0.34961 -0.84766,-0.34961 z m 0,0.28125 c 0.23451,0 0.46889,0.09 0.64844,0.26954 0.3591,0.3591 0.3591,0.93777 0,1.29687 -0.3591,0.3591 -0.93778,0.3591 -1.29688,0 -0.3591,-0.3591 -0.3591,-0.93777 0,-1.29687 0.17955,-0.17955 0.41393,-0.26954 0.64844,-0.26954 z"
                 id="path1744" />
            </g>
            <g
               id="path1728"
               style="fill:#ed333b">
              <path
                 style="color:#000000;fill:#ed333b;fill-rule:evenodd;stroke-width:0.211666pt;-inkscape-stroke:none"
                 d="m 119.06251,130.683 c -0.5842,0 -1.05833,-0.47414 -1.05833,-1.05834 0,-0.5842 0.47413,-1.05833 1.05833,-1.05833 0.5842,0 1.05833,0.47413 1.05833,1.05833 0,0.5842 -0.47413,1.05834 -1.05833,1.05834 z"
                 id="path1732" />
              <path
                 style="color:#000000;fill:#ed333b;fill-rule:evenodd;-inkscape-stroke:none"
                 d="m 119.0625,128.42578 c -0.66055,0 -1.19922,0.53867 -1.19922,1.19922 0,0.66055 0.53867,1.19922 1.19922,1.19922 0.66055,0 1.19922,-0.53867 1.19922,-1.19922 0,-0.66055 -0.53867,-1.19922 -1.19922,-1.19922 z m 0,0.28125 c 0.50785,0 0.91797,0.41012 0.91797,0.91797 0,0.50785 -0.41012,0.91602 -0.91797,0.91602 -0.50785,0 -0.91797,-0.40817 -0.91797,-0.91602 0,-0.50785 0.41012,-0.91797 0.91797,-0.91797 z"
                 id="path1734" />
            </g>
            <g
               id="path1718"
               style="fill:#ed333b">
              <path
                 style="color:#000000;fill:#ed333b;fill-rule:evenodd;stroke-width:0.211666pt;-inkscape-stroke:none"
                 d="m 117.15006,127.73339 c -0.41309,0.41309 -1.08362,0.41309 -1.49671,0 -0.41309,-0.41309 -0.41309,-1.08362 0,-1.49671 0.41309,-0.41309 1.08362,-0.41309 1.49671,0 0.41309,0.41309 0.41309,1.08362 0,1.49671 z"
                 id="path1722" />
              <path
                 style="color:#000000;fill:#ed333b;fill-rule:evenodd;-inkscape-stroke:none"
                 d="m 116.40234,125.78711 c -0.30729,0 -0.61607,0.11607 -0.84961,0.34961 -0.46707,0.46708 -0.46707,1.23019 0,1.69726 0.46708,0.46708 1.23019,0.46708 1.69727,0 0.46708,-0.46707 0.46708,-1.23018 0,-1.69726 -0.23354,-0.23354 -0.54036,-0.34961 -0.84766,-0.34961 z m 0,0.2793 c 0.23452,0 0.46889,0.09 0.64844,0.26953 0.3591,0.3591 0.3591,0.93777 0,1.29687 -0.3591,0.3591 -0.93777,0.3591 -1.29687,0 -0.35911,-0.3591 -0.35911,-0.93777 0,-1.29687 0.17955,-0.17955 0.41392,-0.26953 0.64843,-0.26953 z"
                 id="path1724" />
            </g>
            <g
               id="path1708"
               style="fill:#ed333b">
              <path
                 style="color:#000000;fill:#ed333b;fill-rule:evenodd;stroke-width:0.211666pt;-inkscape-stroke:none"
                 d="m 114.50423,125.08755 c -0.4131,0.41309 -1.08362,0.41309 -1.49671,0 -0.41309,-0.4131 -0.41309,-1.08362 0,-1.49671 0.41309,-0.41309 1.08362,-0.41309 1.49671,0 0.41309,0.41309 0.41309,1.08362 0,1.49671 z"
                 id="path1712" />
              <path
                 style="color:#000000;fill:#ed333b;fill-rule:evenodd;-inkscape-stroke:none"
                 d="m 113.75586,123.14063 c -0.3073,0 -0.61412,0.11607 -0.84766,0.3496 -0.46707,0.46708 -0.46707,1.23018 0,1.69727 0.46708,0.46708 1.22823,0.46707 1.69532,0 0.46707,-0.46708 0.46707,-1.23019 0,-1.69727 -0.23354,-0.23353 -0.54036,-0.3496 -0.84766,-0.3496 z m 0,0.28125 c 0.23451,0 0.46889,0.09 0.64844,0.26953 0.3591,0.3591 0.3591,0.93777 0,1.29687 -0.35912,0.35911 -0.93778,0.3591 -1.29688,0 -0.3591,-0.35911 -0.3591,-0.93777 0,-1.29687 0.17955,-0.17955 0.41393,-0.26953 0.64844,-0.26953 z"
                 id="path1714" />
            </g>
          </g>
        </g>
      </g>
      <g
         id="g2377"
         transform="translate(-0.87496034,-10.583333)"
         style="fill:#ed333b">
        <g
           id="path2351"
           style="fill:#ed333b">
          <path
             style="color:#000000;fill:#ed333b;-inkscape-stroke:none"
             d="m 103.28125,124.25977 -0.1875,0.1875 L 105.64648,127 103,129.64648 l 2.74023,2.73829 0.1875,-0.1875 L 103.375,129.64648 106.01953,127 Z"
             id="path1797" />
          <g
             id="g1754"
             style="fill:#ed333b">
            <g
               id="path1787"
               style="fill:#ed333b">
              <path
                 style="color:#000000;fill:#ed333b;fill-rule:evenodd;stroke-width:0.211666pt;-inkscape-stroke:none"
                 d="m 106.56673,133.02506 c -0.4131,0.41309 -1.08362,0.41309 -1.49671,0 -0.41309,-0.4131 -0.41309,-1.08362 0,-1.49671 0.41309,-0.41309 1.08362,-0.41309 1.49671,0 0.41309,0.41309 0.41309,1.08362 0,1.49671 z"
                 id="path1791" />
              <path
                 style="color:#000000;fill:#ed333b;fill-rule:evenodd;-inkscape-stroke:none"
                 d="m 105.81836,131.07812 c -0.3073,0 -0.61412,0.11608 -0.84766,0.34961 -0.46707,0.46708 -0.46707,1.23018 0,1.69727 0.46708,0.46708 1.22823,0.46707 1.69532,0 0.46707,-0.46708 0.46707,-1.23019 0,-1.69727 -0.23354,-0.23353 -0.54036,-0.34961 -0.84766,-0.34961 z m 0,0.28125 c 0.23451,0 0.46889,0.09 0.64844,0.26954 0.3591,0.3591 0.3591,0.93777 0,1.29687 -0.35912,0.35911 -0.93778,0.3591 -1.29688,0 -0.3591,-0.35911 -0.3591,-0.93777 0,-1.29687 0.17955,-0.17955 0.41393,-0.26954 0.64844,-0.26954 z"
                 id="path1793" />
            </g>
            <g
               id="path1777"
               style="fill:#ed333b">
              <path
                 style="color:#000000;fill:#ed333b;fill-rule:evenodd;stroke-width:0.211666pt;-inkscape-stroke:none"
                 d="m 103.18751,130.683 c -0.5842,0 -1.05833,-0.47414 -1.05833,-1.05834 0,-0.5842 0.47413,-1.05833 1.05833,-1.05833 0.5842,0 1.05833,0.47413 1.05833,1.05833 0,0.5842 -0.47413,1.05834 -1.05833,1.05834 z"
                 id="path1781" />
              <path
                 style="color:#000000;fill:#ed333b;fill-rule:evenodd;-inkscape-stroke:none"
                 d="m 103.1875,128.42578 c -0.66055,0 -1.19922,0.53867 -1.19922,1.19922 0,0.66055 0.53867,1.19922 1.19922,1.19922 0.66055,0 1.19922,-0.53867 1.19922,-1.19922 0,-0.66055 -0.53867,-1.19922 -1.19922,-1.19922 z m 0,0.28125 c 0.50785,0 0.91797,0.41012 0.91797,0.91797 0,0.50785 -0.41012,0.91602 -0.91797,0.91602 -0.50785,0 -0.91797,-0.40817 -0.91797,-0.91602 0,-0.50785 0.41012,-0.91797 0.91797,-0.91797 z"
                 id="path1783" />
            </g>
            <g
               id="path1767"
               style="fill:#ed333b">
              <path
                 style="color:#000000;fill:#ed333b;fill-rule:evenodd;stroke-width:0.211666pt;-inkscape-stroke:none"
                 d="m 105.83334,128.03717 c -0.5842,0 -1.05833,-0.47414 -1.05833,-1.05834 0,-0.5842 0.47413,-1.05833 1.05833,-1.05833 0.5842,0 1.05833,0.47413 1.05833,1.05833 0,0.5842 -0.47413,1.05834 -1.05833,1.05834 z"
                 id="path1771" />
              <path
                 style="color:#000000;fill:#ed333b;fill-rule:evenodd;-inkscape-stroke:none"
                 d="m 105.83398,125.7793 c -0.66054,0 -1.19921,0.53867 -1.19921,1.19922 0,0.66054 0.53866,1.19921 1.19921,1.19921 0.66055,0 1.19922,-0.53867 1.19922,-1.19921 0,-0.66055 -0.53867,-1.19922 -1.19922,-1.19922 z m 0,0.2832 c 0.50785,0 0.91602,0.40817 0.91602,0.91602 0,0.50785 -0.40817,0.91796 -0.91602,0.91796 -0.50784,0 -0.91796,-0.41011 -0.91796,-0.91796 0,-0.50785 0.41011,-0.91602 0.91796,-0.91602 z"
                 id="path1773" />
            </g>
            <g
               id="path1756"
               style="fill:#ed333b">
              <path
                 style="color:#000000;fill:#ed333b;fill-rule:evenodd;stroke-width:0.211666pt;-inkscape-stroke:none"
                 d="m 103.9209,125.08755 c -0.4131,0.41309 -1.08362,0.41309 -1.49671,0 -0.41309,-0.4131 -0.41309,-1.08362 0,-1.49671 0.41309,-0.41309 1.08362,-0.41309 1.49671,0 0.41309,0.41309 0.41309,1.08362 0,1.49671 z"
                 id="path1760" />
              <path
                 style="color:#000000;fill:#ed333b;fill-rule:evenodd;-inkscape-stroke:none"
                 d="m 103.17188,123.14063 c -0.3073,0 -0.61412,0.11607 -0.84766,0.3496 -0.46708,0.46708 -0.46708,1.23018 0,1.69727 0.46708,0.46708 1.23018,0.46707 1.69726,0 0.46708,-0.46708 0.46708,-1.23019 0,-1.69727 -0.23353,-0.23353 -0.54231,-0.3496 -0.8496,-0.3496 z m 0,0.28125 c 0.23451,0 0.46888,0.09 0.64843,0.26953 0.3591,0.3591 0.3591,0.93777 0,1.29687 -0.35911,0.35911 -0.93777,0.3591 -1.29687,0 -0.35911,-0.35911 -0.3591,-0.93777 0,-1.29687 0.17955,-0.17955 0.41392,-0.26953 0.64844,-0.26953 z"
                 id="path1763" />
            </g>
          </g>
        </g>
      </g>
      <g
         id="g2374"
         transform="translate(-1.330902,-10.583333)"
         style="fill:#ed333b">
        <g
           id="path2353"
           style="fill:#ed333b">
          <path
             style="color:#000000;fill:#ed333b;-inkscape-stroke:none"
             d="m 92.697266,124.25977 -0.1875,0.1875 L 95.0625,127 l -2.552734,2.55273 -2.644532,2.64454 0.1875,0.1875 2.644532,-2.64454 L 95.4375,127 Z"
             id="path1845" />
          <g
             id="g1803"
             style="fill:#ed333b">
            <g
               id="path1835"
               style="fill:#ed333b">
              <path
                 style="color:#000000;fill:#ed333b;fill-rule:evenodd;stroke-width:0.211666pt;-inkscape-stroke:none"
                 d="m 89.224951,133.02506 c -0.413092,-0.41309 -0.413092,-1.08362 -2e-6,-1.49671 0.413091,-0.41309 1.083616,-0.41309 1.496708,0 0.413092,0.41309 0.413092,1.08361 2e-6,1.49671 -0.413091,0.41309 -1.083616,0.41309 -1.496708,0 z"
                 id="path1839" />
              <path
                 style="color:#000000;fill:#ed333b;fill-rule:evenodd;-inkscape-stroke:none"
                 d="m 89.972656,131.07812 c -0.307297,10e-6 -0.614117,0.11608 -0.847656,0.34961 -0.467078,0.46708 -0.46708,1.23019 0,1.69727 0.467079,0.46708 1.230188,0.46708 1.697266,0 0.467074,-0.46709 0.467078,-1.23019 0,-1.69727 -0.23354,-0.23353 -0.542313,-0.34961 -0.84961,-0.34961 z m 0,0.28125 c 0.234511,10e-6 0.468886,0.09 0.648438,0.26954 0.359104,0.3591 0.359104,0.93776 0,1.29687 -0.359103,0.3591 -0.937771,0.3591 -1.296875,0 -0.359104,-0.3591 -0.359102,-0.93777 0,-1.29687 0.179551,-0.17955 0.413927,-0.26954 0.648437,-0.26954 z"
                 id="path1841" />
            </g>
            <g
               id="path1825"
               style="fill:#ed333b">
              <path
                 style="color:#000000;fill:#ed333b;fill-rule:evenodd;stroke-width:0.211666pt;-inkscape-stroke:none"
                 d="m 91.870785,130.37922 c -0.413092,-0.41309 -0.413092,-1.08362 -10e-7,-1.49671 0.413091,-0.41309 1.083616,-0.41309 1.496708,0 0.413091,0.41309 0.413091,1.08362 0,1.49671 -0.413091,0.41309 -1.083616,0.41309 -1.496707,0 z"
                 id="path1829" />
              <path
                 style="color:#000000;fill:#ed333b;fill-rule:evenodd;-inkscape-stroke:none"
                 d="m 92.619141,128.43164 c -0.307297,0 -0.614118,0.11802 -0.847657,0.35156 -0.467078,0.46708 -0.467079,1.22824 0,1.69532 0.467078,0.46707 1.228235,0.46707 1.695313,0 0.467078,-0.46708 0.467078,-1.22824 0,-1.69532 -0.23354,-0.23354 -0.540359,-0.35156 -0.847656,-0.35156 z m 0,0.28125 c 0.23451,0 0.468885,0.09 0.648437,0.26953 0.359103,0.3591 0.359103,0.93778 0,1.29688 -0.359103,0.3591 -0.937772,0.3591 -1.296875,0 -0.359103,-0.3591 -0.359102,-0.93778 0,-1.29688 0.179552,-0.17955 0.413927,-0.26953 0.648438,-0.26953 z"
                 id="path1831" />
            </g>
            <g
               id="path1815"
               style="fill:#ed333b">
              <path
                 style="color:#000000;fill:#ed333b;fill-rule:evenodd;stroke-width:0.211666pt;-inkscape-stroke:none"
                 d="m 95.250004,128.03717 c -0.584199,0 -1.058332,-0.47414 -1.058332,-1.05834 0,-0.5842 0.474133,-1.05833 1.058332,-1.05833 0.584199,0 1.058332,0.47413 1.058332,1.05833 0,0.5842 -0.474133,1.05834 -1.058332,1.05834 z"
                 id="path1819" />
              <path
                 style="color:#000000;fill:#ed333b;fill-rule:evenodd;-inkscape-stroke:none"
                 d="m 95.25,125.7793 c -0.660548,0 -1.199219,0.53867 -1.199219,1.19922 0,0.66054 0.53867,1.19921 1.199219,1.19921 0.660549,0 1.199219,-0.53867 1.199219,-1.19921 0,-0.66055 -0.538671,-1.19922 -1.199219,-1.19922 z m 0,0.2832 c 0.507849,0 0.917969,0.40817 0.917969,0.91602 0,0.50785 -0.410121,0.91796 -0.917969,0.91796 -0.507848,0 -0.917969,-0.41011 -0.917969,-0.91796 0,-0.50785 0.41012,-0.91602 0.917969,-0.91602 z"
                 id="path1821" />
            </g>
            <g
               id="path1805"
               style="fill:#ed333b">
              <path
                 style="color:#000000;fill:#ed333b;fill-rule:evenodd;stroke-width:0.211666pt;-inkscape-stroke:none"
                 d="m 93.337557,125.08755 c -0.413092,0.41309 -1.083617,0.41309 -1.496708,0 -0.41309,-0.4131 -0.41309,-1.08362 2e-6,-1.49671 0.413092,-0.41309 1.083617,-0.41309 1.496708,0 0.41309,0.41309 0.413089,1.08362 -2e-6,1.49671 z"
                 id="path1809" />
              <path
                 style="color:#000000;fill:#ed333b;fill-rule:evenodd;-inkscape-stroke:none"
                 d="m 92.589844,123.14063 c -0.307297,-1e-5 -0.61607,0.11607 -0.84961,0.3496 -0.467078,0.46708 -0.467074,1.23018 0,1.69727 0.467078,0.46708 1.230187,0.46708 1.697266,0 0.467079,-0.46708 0.467078,-1.23019 0,-1.69727 -0.233539,-0.23353 -0.540359,-0.3496 -0.847656,-0.3496 z m 0,0.28125 c 0.23451,-1e-5 0.468886,0.09 0.648437,0.26953 0.359102,0.3591 0.359103,0.93777 0,1.29687 -0.359104,0.3591 -0.937772,0.3591 -1.296875,0 -0.359104,-0.35911 -0.359104,-0.93777 0,-1.29687 0.179552,-0.17955 0.413927,-0.26953 0.648438,-0.26953 z"
                 id="path1811" />
            </g>
          </g>
        </g>
      </g>
      <g
         id="g2371"
         transform="translate(-1.7788576,-10.583333)"
         style="fill:#ed333b">
        <g
           id="path2355"
           style="fill:#ed333b">
          <path
             style="color:#000000;fill:#ed333b;-inkscape-stroke:none"
             d="m 79.375,124.16797 -2.740234,2.73828 0.1875,0.1875 2.552734,-2.55273 2.552734,2.55273 2.644532,2.64648 0.1875,-0.1875 -2.644532,-2.64648 z"
             id="path1893" />
          <g
             id="g1851"
             style="fill:#ed333b">
            <g
               id="path1883"
               style="fill:#ed333b">
              <path
                 style="color:#000000;fill:#ed333b;fill-rule:evenodd;stroke-width:0.211666pt;-inkscape-stroke:none"
                 d="m 75.995788,127.73339 c -0.413092,-0.41309 -0.413094,-1.08362 -3e-6,-1.49671 0.41309,-0.41309 1.083615,-0.41309 1.496707,0 0.413092,0.41309 0.413094,1.08361 3e-6,1.49671 -0.41309,0.41309 -1.083615,0.41309 -1.496707,0 z"
                 id="path1887" />
              <path
                 style="color:#000000;fill:#ed333b;fill-rule:evenodd;-inkscape-stroke:none"
                 d="m 76.744141,125.78711 c -0.307297,0 -0.614118,0.11607 -0.847657,0.34961 -0.467078,0.46708 -0.467079,1.23019 0,1.69726 0.467079,0.46708 1.228236,0.46708 1.695313,0 0.467076,-0.46708 0.467079,-1.23018 0,-1.69726 -0.23354,-0.23354 -0.540359,-0.34961 -0.847656,-0.34961 z m 0,0.2793 c 0.23451,0 0.468885,0.09 0.648437,0.26953 0.359105,0.3591 0.359105,0.93776 0,1.29687 -0.359102,0.3591 -0.937771,0.3591 -1.296875,0 -0.359104,-0.3591 -0.359102,-0.93777 0,-1.29687 0.179551,-0.17955 0.413927,-0.26953 0.648438,-0.26953 z"
                 id="path1889" />
            </g>
            <g
               id="path1873"
               style="fill:#ed333b">
              <path
                 style="color:#000000;fill:#ed333b;fill-rule:evenodd;stroke-width:0.211666pt;-inkscape-stroke:none"
                 d="m 78.337838,124.35416 c 0,-0.5842 0.474132,-1.05833 1.058332,-1.05833 0.584199,0 1.058332,0.47413 1.058332,1.05833 0,0.5842 -0.474133,1.05833 -1.058332,1.05833 -0.5842,0 -1.058332,-0.47413 -1.058332,-1.05833 z"
                 id="path1877" />
              <path
                 style="color:#000000;fill:#ed333b;fill-rule:evenodd;-inkscape-stroke:none"
                 d="m 79.396484,123.1543 c -0.660548,0 -1.199218,0.53867 -1.199218,1.19922 0,0.66054 0.53867,1.19921 1.199218,1.19921 0.660548,0 1.199219,-0.53867 1.199219,-1.19921 0,-0.66055 -0.538671,-1.19922 -1.199219,-1.19922 z m 0,0.2832 c 0.50785,0 0.916016,0.40817 0.916016,0.91602 0,0.50785 -0.408166,0.91796 -0.916016,0.91796 -0.50785,0 -0.917968,-0.41011 -0.917968,-0.91796 0,-0.50785 0.410118,-0.91602 0.917968,-0.91602 z"
                 id="path1879" />
            </g>
            <g
               id="path1863"
               style="fill:#ed333b">
              <path
                 style="color:#000000;fill:#ed333b;fill-rule:evenodd;stroke-width:0.211666pt;-inkscape-stroke:none"
                 d="m 81.287447,126.26661 c 0.413091,-0.41309 1.083616,-0.41309 1.496707,0 0.413091,0.41309 0.413091,1.08362 0,1.49671 -0.413092,0.41309 -1.083617,0.41309 -1.496708,0 -0.413091,-0.41309 -0.413091,-1.08362 10e-7,-1.49671 z"
                 id="path1867" />
              <path
                 style="color:#000000;fill:#ed333b;fill-rule:evenodd;-inkscape-stroke:none"
                 d="m 82.035156,125.81641 c -0.307297,0 -0.614117,0.11607 -0.847656,0.34961 -0.46708,0.46707 -0.467079,1.23018 0,1.69726 0.467078,0.46708 1.230187,0.46708 1.697266,0 0.467078,-0.46708 0.467078,-1.23019 0,-1.69726 -0.233539,-0.23354 -0.542313,-0.34961 -0.84961,-0.34961 z m 0,0.28125 c 0.234511,0 0.468886,0.09 0.648438,0.26953 0.359102,0.3591 0.359102,0.93777 0,1.29687 -0.359104,0.3591 -0.937772,0.3591 -1.296875,0 -0.359103,-0.3591 -0.359104,-0.93777 0,-1.29687 0.179551,-0.17955 0.413927,-0.26953 0.648437,-0.26953 z"
                 id="path1869" />
            </g>
            <g
               id="path1853"
               style="fill:#ed333b">
              <path
                 style="color:#000000;fill:#ed333b;fill-rule:evenodd;stroke-width:0.211666pt;-inkscape-stroke:none"
                 d="m 83.933283,128.91244 c 0.413091,-0.41309 1.083616,-0.41309 1.496708,0 0.413092,0.41309 0.413093,1.08362 2e-6,1.49671 -0.413091,0.41309 -1.083616,0.41309 -1.496707,0 -0.413092,-0.41309 -0.413093,-1.08361 -3e-6,-1.49671 z"
                 id="path1857" />
              <path
                 style="color:#000000;fill:#ed333b;fill-rule:evenodd;-inkscape-stroke:none"
                 d="m 84.681641,128.46289 c -0.307297,0 -0.614118,0.11607 -0.847657,0.34961 -0.467074,0.46709 -0.467078,1.23019 0,1.69727 0.467078,0.46707 1.228235,0.46707 1.695313,0 0.467079,-0.46708 0.467079,-1.23019 0,-1.69727 -0.23354,-0.23354 -0.540359,-0.34961 -0.847656,-0.34961 z m 0,0.2793 c 0.23451,0 0.468885,0.09 0.648437,0.26953 0.359104,0.3591 0.359103,0.93777 0,1.29687 -0.359103,0.35911 -0.937772,0.35911 -1.296875,0 -0.359104,-0.3591 -0.359104,-0.93776 0,-1.29687 0.179552,-0.17955 0.413927,-0.26953 0.648438,-0.26953 z"
                 id="path1859" />
            </g>
          </g>
        </g>
      </g>
      <g
         id="g2368"
         transform="translate(3.0691593,-10.583333)"
         style="fill:#ed333b">
        <g
           id="path2357"
           style="fill:#ed333b">
          <path
             style="color:#000000;fill:#ed333b;-inkscape-stroke:none"
             d="m 63.5,124.16797 -2.740234,2.73828 0.1875,0.1875 L 63.5,124.54102 65.958984,127 l -2.552734,2.55273 0.1875,0.1875 L 66.332031,127 Z"
             id="path1951" />
          <g
             id="g1899"
             style="fill:#ed333b">
            <g
               id="path1941"
               style="fill:#ed333b">
              <path
                 style="color:#000000;fill:#ed333b;fill-rule:evenodd;stroke-width:0.211666pt;-inkscape-stroke:none"
                 d="m 60.120788,127.73339 c -0.413092,-0.41309 -0.413094,-1.08362 -3e-6,-1.49671 0.41309,-0.41309 1.083615,-0.41309 1.496707,0 0.413092,0.41309 0.413094,1.08361 3e-6,1.49671 -0.41309,0.41309 -1.083615,0.41309 -1.496707,0 z"
                 id="path1945" />
              <path
                 style="color:#000000;fill:#ed333b;fill-rule:evenodd;-inkscape-stroke:none"
                 d="m 60.869141,125.78711 c -0.307297,0 -0.614118,0.11607 -0.847657,0.34961 -0.467078,0.46708 -0.467079,1.23019 0,1.69726 0.467079,0.46708 1.228236,0.46708 1.695313,0 0.467076,-0.46708 0.467079,-1.23018 0,-1.69726 -0.23354,-0.23354 -0.540359,-0.34961 -0.847656,-0.34961 z m 0,0.2793 c 0.23451,0 0.468885,0.09 0.648437,0.26953 0.359105,0.3591 0.359105,0.93776 0,1.29687 -0.359102,0.3591 -0.937771,0.3591 -1.296875,0 -0.359104,-0.3591 -0.359102,-0.93777 0,-1.29687 0.179551,-0.17955 0.413927,-0.26953 0.648438,-0.26953 z"
                 id="path1947" />
            </g>
            <g
               id="path1931"
               style="fill:#ed333b">
              <path
                 style="color:#000000;fill:#ed333b;fill-rule:evenodd;stroke-width:0.211666pt;-inkscape-stroke:none"
                 d="m 62.462838,124.35416 c 0,-0.5842 0.474132,-1.05833 1.058332,-1.05833 0.584199,0 1.058332,0.47413 1.058332,1.05833 0,0.5842 -0.474133,1.05833 -1.058332,1.05833 -0.5842,0 -1.058332,-0.47413 -1.058332,-1.05833 z"
                 id="path1935" />
              <path
                 style="color:#000000;fill:#ed333b;fill-rule:evenodd;-inkscape-stroke:none"
                 d="m 63.521484,123.1543 c -0.660548,0 -1.199218,0.53867 -1.199218,1.19922 0,0.66054 0.53867,1.19921 1.199218,1.19921 0.660548,0 1.199219,-0.53867 1.199219,-1.19921 0,-0.66055 -0.538671,-1.19922 -1.199219,-1.19922 z m 0,0.2832 c 0.50785,0 0.916016,0.40817 0.916016,0.91602 0,0.50785 -0.408166,0.91796 -0.916016,0.91796 -0.50785,0 -0.917968,-0.41011 -0.917968,-0.91796 0,-0.50785 0.410118,-0.91602 0.917968,-0.91602 z"
                 id="path1937" />
            </g>
            <g
               id="path1921"
               style="fill:#ed333b">
              <path
                 style="color:#000000;fill:#ed333b;fill-rule:evenodd;stroke-width:0.211666pt;-inkscape-stroke:none"
                 d="m 65.187618,126.60309 c 0.223563,-0.53973 0.843048,-0.79632 1.382777,-0.57276 0.53973,0.22356 0.796328,0.84305 0.572764,1.38278 -0.223564,0.53973 -0.843048,0.79632 -1.382778,0.57276 -0.539729,-0.22356 -0.796327,-0.84305 -0.572763,-1.38278 z"
                 id="path1925" />
              <path
                 style="color:#000000;fill:#ed333b;fill-rule:evenodd;-inkscape-stroke:none"
                 d="m 65.707031,125.90039 c -0.283905,0.1176 -0.524,0.3433 -0.65039,0.64844 -0.252782,0.61027 0.04012,1.31558 0.65039,1.56836 0.610266,0.25277 1.313625,-0.0401 1.566406,-0.65039 0.252782,-0.61027 -0.03817,-1.31363 -0.648437,-1.56641 -0.305133,-0.12639 -0.634063,-0.1176 -0.917969,0 z m 0.107422,0.25977 c 0.21666,-0.0898 0.466576,-0.0972 0.701172,0 0.46919,0.19434 0.692393,0.73002 0.498047,1.19922 -0.194346,0.46919 -0.730026,0.69043 -1.199219,0.49609 -0.469189,-0.19434 -0.69044,-0.73003 -0.496094,-1.19922 0.09717,-0.2346 0.279435,-0.40635 0.496094,-0.49609 z"
                 id="path1927" />
            </g>
            <g
               id="path1911"
               style="fill:#ed333b">
              <path
                 style="color:#000000;fill:#ed333b;fill-rule:evenodd;stroke-width:0.211666pt;-inkscape-stroke:none"
                 d="m 67.104049,126.60309 c 0.223563,0.53973 -0.03304,1.15922 -0.572765,1.38278 -0.53973,0.22356 -1.159214,-0.033 -1.382778,-0.57276 -0.223563,-0.53973 0.03304,-1.15922 0.572765,-1.38278 0.53973,-0.22356 1.159214,0.033 1.382778,0.57276 z"
                 id="path1915" />
              <path
                 style="color:#000000;fill:#ed333b;fill-rule:evenodd;-inkscape-stroke:none"
                 d="m 65.667969,125.90039 c -0.610264,0.25278 -0.903172,0.95614 -0.650391,1.56641 0.25278,0.61029 0.958098,0.90316 1.568359,0.65039 0.610264,-0.25278 0.901219,-0.95809 0.648438,-1.56836 -0.25278,-0.6103 -0.956144,-0.90121 -1.566406,-0.64844 z m 0.107422,0.25977 c 0.469197,-0.19435 1.004871,0.0269 1.199218,0.49609 0.194345,0.46919 -0.02886,1.00488 -0.498047,1.19922 -0.469197,0.19434 -1.002918,-0.0269 -1.197265,-0.49609 -0.194345,-0.4692 0.02691,-1.00488 0.496094,-1.19922 z"
                 id="path1917" />
            </g>
            <g
               id="path1901"
               style="fill:#ed333b">
              <path
                 style="color:#000000;fill:#ed333b;fill-rule:evenodd;stroke-width:0.211666pt;-inkscape-stroke:none"
                 d="m 64.23339,128.91244 c 0.413091,0.41309 0.413091,1.08362 0,1.49671 -0.413092,0.41309 -1.083617,0.41309 -1.496708,0 -0.413091,-0.41309 -0.413091,-1.08362 0,-1.49671 0.413091,-0.41309 1.083616,-0.41309 1.496708,0 z"
                 id="path1905" />
              <path
                 style="color:#000000;fill:#ed333b;fill-rule:evenodd;-inkscape-stroke:none"
                 d="m 63.484375,128.46289 c -0.307297,0 -0.614117,0.11607 -0.847656,0.34961 -0.467079,0.46708 -0.467079,1.23019 0,1.69727 0.467078,0.46707 1.230186,0.46707 1.697265,0 0.467079,-0.46708 0.467079,-1.23019 0,-1.69727 -0.233539,-0.23354 -0.542312,-0.34961 -0.849609,-0.34961 z m 0,0.2793 c 0.234511,0 0.468885,0.09 0.648437,0.26953 0.359103,0.3591 0.359103,0.93777 0,1.29687 -0.359104,0.35911 -0.937771,0.35911 -1.296875,0 -0.359102,-0.3591 -0.359102,-0.93777 0,-1.29687 0.179552,-0.17955 0.413927,-0.26953 0.648438,-0.26953 z"
                 id="path1907" />
            </g>
          </g>
        </g>
      </g>
      <g
         id="g2365"
         transform="translate(1.3378821,-10.583333)"
         style="fill:#ed333b">
        <g
           id="path2359"
           style="fill:#ed333b">
          <path
             style="color:#000000;fill:#ed333b;-inkscape-stroke:none"
             d="m 50.365234,124.25977 -0.1875,0.1875 2.644532,2.64648 2.646484,2.64648 0.1875,-0.1875 -2.646484,-2.64648 z"
             id="path1979" />
          <g
             id="g1957"
             style="fill:#ed333b">
            <g
               id="path1969"
               style="fill:#ed333b">
              <path
                 style="color:#000000;fill:#ed333b;fill-rule:evenodd;stroke-width:0.211666pt;-inkscape-stroke:none"
                 d="m 56.29589,130.37922 c -0.413092,0.41309 -1.083617,0.41309 -1.496708,0 -0.413091,-0.41309 -0.413091,-1.08362 0,-1.49671 0.413091,-0.41309 1.083616,-0.41309 1.496708,0 0.413091,0.41309 0.413091,1.08362 0,1.49671 z"
                 id="path1973" />
              <path
                 style="color:#000000;fill:#ed333b;fill-rule:evenodd;-inkscape-stroke:none"
                 d="m 55.546875,128.43164 c -0.307297,0 -0.614117,0.11802 -0.847656,0.35156 -0.467079,0.46708 -0.467079,1.22824 0,1.69532 0.467078,0.46707 1.230186,0.46707 1.697265,0 0.467079,-0.46708 0.467079,-1.22824 0,-1.69532 -0.233539,-0.23354 -0.542312,-0.35156 -0.849609,-0.35156 z m 0,0.28125 c 0.234511,0 0.468885,0.09 0.648437,0.26953 0.359103,0.3591 0.359103,0.93778 0,1.29688 -0.359104,0.3591 -0.937771,0.3591 -1.296875,0 -0.359102,-0.3591 -0.359102,-0.93778 0,-1.29688 0.179552,-0.17955 0.413927,-0.26953 0.648438,-0.26953 z"
                 id="path1975" />
            </g>
            <g
               id="path1959"
               style="fill:#ed333b">
              <path
                 style="color:#000000;fill:#ed333b;fill-rule:evenodd;stroke-width:0.211666pt;-inkscape-stroke:none"
                 d="m 51.004228,125.08755 c -0.413092,0.41309 -1.083617,0.41309 -1.496707,0 -0.413091,-0.4131 -0.413089,-1.08362 3e-6,-1.49671 0.413092,-0.41309 1.083617,-0.41309 1.496707,0 0.413091,0.41309 0.413089,1.08362 -3e-6,1.49671 z"
                 id="path1963" />
              <path
                 style="color:#000000;fill:#ed333b;fill-rule:evenodd;-inkscape-stroke:none"
                 d="m 50.255859,123.14063 c -0.307297,-1e-5 -0.614116,0.11607 -0.847656,0.3496 -0.467079,0.46708 -0.467076,1.23018 0,1.69727 0.467077,0.46708 1.228234,0.46708 1.695313,0 0.467079,-0.46708 0.467078,-1.23019 0,-1.69727 -0.233539,-0.23353 -0.54036,-0.3496 -0.847657,-0.3496 z m 0,0.28125 c 0.234511,-1e-5 0.468887,0.09 0.648438,0.26953 0.359102,0.3591 0.359104,0.93777 0,1.29687 -0.359104,0.3591 -0.937773,0.3591 -1.296875,0 -0.359105,-0.35911 -0.359105,-0.93777 0,-1.29687 0.179552,-0.17955 0.413927,-0.26953 0.648437,-0.26953 z"
                 id="path1965" />
            </g>
          </g>
        </g>
        <g
           id="path2361"
           style="fill:#ed333b">
          <path
             style="color:#000000;fill:#ed333b;-inkscape-stroke:none"
             d="m 52.822266,126.90625 -2.644532,2.64648 0.1875,0.1875 2.644532,-2.64648 z"
             id="path2007" />
          <g
             id="g1985"
             style="fill:#ed333b">
            <g
               id="path1997"
               style="fill:#ed333b">
              <path
                 style="color:#000000;fill:#ed333b;fill-rule:evenodd;stroke-width:0.211666pt;-inkscape-stroke:none"
                 d="m 49.537456,130.37922 c -0.413091,-0.41309 -0.413091,-1.08362 0,-1.49671 0.413092,-0.41309 1.083617,-0.41309 1.496708,0 0.413091,0.41309 0.413091,1.08362 0,1.49671 -0.413091,0.41309 -1.083616,0.41309 -1.496708,0 z"
                 id="path2001" />
              <path
                 style="color:#000000;fill:#ed333b;fill-rule:evenodd;-inkscape-stroke:none"
                 d="m 50.285156,128.43164 c -0.307297,0 -0.614117,0.11802 -0.847656,0.35156 -0.467079,0.46708 -0.467079,1.22824 0,1.69532 0.467079,0.46707 1.230188,0.46707 1.697266,0 0.467078,-0.46708 0.467078,-1.22824 0,-1.69532 -0.233539,-0.23354 -0.542313,-0.35156 -0.84961,-0.35156 z m 0,0.28125 c 0.234511,0 0.468886,0.09 0.648438,0.26953 0.359102,0.3591 0.359102,0.93778 0,1.29688 -0.359103,0.3591 -0.937771,0.3591 -1.296875,0 -0.359103,-0.3591 -0.359103,-0.93778 0,-1.29688 0.179552,-0.17955 0.413927,-0.26953 0.648437,-0.26953 z"
                 id="path2003" />
            </g>
            <g
               id="path1987"
               style="fill:#ed333b">
              <path
                 style="color:#000000;fill:#ed333b;fill-rule:evenodd;stroke-width:0.211666pt;-inkscape-stroke:none"
                 d="m 52.183286,127.73339 c -0.413091,-0.41309 -0.413091,-1.08362 0,-1.49671 0.413092,-0.41309 1.083617,-0.41309 1.496708,0 0.413091,0.41309 0.413091,1.08362 0,1.49671 -0.413091,0.41309 -1.083616,0.41309 -1.496708,0 z"
                 id="path1991" />
              <path
                 style="color:#000000;fill:#ed333b;fill-rule:evenodd;-inkscape-stroke:none"
                 d="m 52.931641,125.78711 c -0.307297,0 -0.614117,0.11607 -0.847657,0.34961 -0.467078,0.46708 -0.467078,1.23019 0,1.69726 0.467079,0.46708 1.228235,0.46708 1.695313,0 0.467078,-0.46707 0.467078,-1.23018 0,-1.69726 -0.233539,-0.23354 -0.540359,-0.34961 -0.847656,-0.34961 z m 0,0.2793 c 0.23451,0 0.468886,0.09 0.648437,0.26953 0.359103,0.3591 0.359103,0.93777 0,1.29687 -0.359103,0.3591 -0.937771,0.3591 -1.296875,0 -0.359102,-0.3591 -0.359102,-0.93777 0,-1.29687 0.179552,-0.17955 0.413927,-0.26953 0.648438,-0.26953 z"
                 id="path1993" />
            </g>
          </g>
        </g>
      </g>
      <g
         id="g2914"
         transform="matrix(0.76704682,0,0,0.76704682,-41.793745,67.285698)">
        <g
           style="fill:#000000;fill-opacity:1"
           id="id-4b69c4dc-d4fd-4222-a389-f13fe38d5a56"
           transform="matrix(0.709456,0,0,0.709456,-54.957204,-39.238114)">
          <g
             transform="translate(188.731,134.765)"
             id="g2678">
            <path
               style="stroke:none;stroke-width:0"
               d="m 0.875,-0.59375 c -0.03125,0.15625 -0.09375,0.390625 -0.09375,0.4375 0,0.171875 0.140625,0.265625 0.296875,0.265625 0.125,0 0.296875,-0.078125 0.375,-0.28125 0,-0.015625 0.125,-0.484375 0.1875,-0.734375 l 0.21875,-0.890625 C 1.90625,-2.03125 1.96875,-2.25 2.03125,-2.46875 c 0.03125,-0.171875 0.109375,-0.46875 0.125,-0.5 0.140625,-0.3125 0.671875,-1.21875 1.625,-1.21875 0.453125,0 0.53125,0.375 0.53125,0.703125 0,0.609375 -0.484375,1.890625 -0.640625,2.3125 C 3.578125,-0.9375 3.5625,-0.8125 3.5625,-0.703125 c 0,0.46875 0.359375,0.8125 0.828125,0.8125 0.9375,0 1.296875,-1.453125 1.296875,-1.53125 0,-0.109375 -0.078125,-0.109375 -0.109375,-0.109375 -0.109375,0 -0.109375,0.03125 -0.15625,0.1875 -0.203125,0.671875 -0.53125,1.234375 -1.015625,1.234375 -0.171875,0 -0.234375,-0.09375 -0.234375,-0.328125 0,-0.25 0.078125,-0.484375 0.171875,-0.703125 0.1875,-0.53125 0.609375,-1.625 0.609375,-2.203125 0,-0.65625 -0.421875,-1.0625 -1.140625,-1.0625 -0.90625,0 -1.390625,0.640625 -1.5625,0.875 -0.046875,-0.5625 -0.453125,-0.875 -0.921875,-0.875 -0.453125,0 -0.640625,0.390625 -0.734375,0.5625 C 0.421875,-3.5 0.296875,-2.90625 0.296875,-2.875 c 0,0.109375 0.09375,0.109375 0.109375,0.109375 0.109375,0 0.109375,-0.015625 0.171875,-0.234375 0.171875,-0.703125 0.375,-1.1875 0.734375,-1.1875 0.1875,0 0.296875,0.125 0.296875,0.453125 0,0.21875 -0.03125,0.328125 -0.15625,0.84375 z m 0,0"
               id="id-02fa51ab-1cd8-4eca-b693-6406fba520b5" />
          </g>
        </g>
        <g
           style="fill:#000000;fill-opacity:1"
           id="id-5c82fb80-eec7-4fce-861b-a1adcb117953"
           transform="matrix(0.709456,0,0,0.709456,-54.957204,-39.238114)">
          <g
             transform="translate(194.711,134.765)"
             id="g2682">
            <path
               style="stroke:none;stroke-width:0"
               d="m 3.296875,2.390625 c 0,-0.03125 0,-0.046875 -0.171875,-0.21875 C 1.890625,0.921875 1.5625,-0.96875 1.5625,-2.5 c 0,-1.734375 0.375,-3.46875 1.609375,-4.703125 0.125,-0.125 0.125,-0.140625 0.125,-0.171875 0,-0.078125 -0.03125,-0.109375 -0.09375,-0.109375 -0.109375,0 -1,0.6875 -1.59375,1.953125 -0.5,1.09375 -0.625,2.203125 -0.625,3.03125 0,0.78125 0.109375,1.984375 0.65625,3.125 C 2.25,1.84375 3.09375,2.5 3.203125,2.5 c 0.0625,0 0.09375,-0.03125 0.09375,-0.109375 z m 0,0"
               id="id-8a2718b4-cdf4-4895-8353-e11354eff849" />
          </g>
        </g>
        <g
           style="fill:#000000;fill-opacity:1"
           id="id-7ce82fdc-610a-4350-b9ac-0175e59c9e59"
           transform="matrix(0.709456,0,0,0.709456,-54.957204,-39.238114)">
          <g
             transform="translate(198.585,134.765)"
             id="g2686">
            <path
               style="stroke:none;stroke-width:0"
               d="M 6.265625,-5.671875 C 6.75,-6.453125 7.171875,-6.484375 7.53125,-6.5 c 0.125,-0.015625 0.140625,-0.171875 0.140625,-0.1875 0,-0.078125 -0.0625,-0.125 -0.140625,-0.125 -0.25,0 -0.546875,0.03125 -0.8125,0.03125 -0.328125,0 -0.671875,-0.03125 -0.984375,-0.03125 -0.0625,0 -0.1875,0 -0.1875,0.1875 0,0.109375 0.078125,0.125 0.15625,0.125 0.265625,0.015625 0.453125,0.125 0.453125,0.328125 0,0.15625 -0.140625,0.375 -0.140625,0.375 l -3.0625,4.875 -0.6875,-5.28125 C 2.265625,-6.375 2.5,-6.5 2.953125,-6.5 c 0.140625,0 0.25,0 0.25,-0.203125 0,-0.078125 -0.078125,-0.109375 -0.125,-0.109375 -0.40625,0 -0.828125,0.03125 -1.25,0.03125 -0.171875,0 -0.359375,0 -0.546875,0 -0.171875,0 -0.359375,-0.03125 -0.53125,-0.03125 -0.078125,0 -0.1875,0 -0.1875,0.1875 0,0.125 0.078125,0.125 0.25,0.125 0.546875,0 0.5625,0.09375 0.59375,0.34375 L 2.1875,-0.015625 C 2.21875,0.1875 2.265625,0.21875 2.390625,0.21875 c 0.15625,0 0.203125,-0.046875 0.28125,-0.171875 z m 0,0"
               id="id-897b7db2-b8ca-474c-84f1-6891f56927da" />
          </g>
        </g>
        <g
           style="fill:#000000;fill-opacity:1"
           id="id-44d077a0-db3b-4fd0-9be0-ef260ead99ac"
           transform="matrix(0.709456,0,0,0.709456,-54.957204,-39.238114)">
          <g
             transform="translate(206.611,134.765)"
             id="g2690">
            <path
               style="stroke:none;stroke-width:0"
               d="m 2.875,-2.5 c 0,-0.765625 -0.109375,-1.96875 -0.65625,-3.109375 -0.59375,-1.21875 -1.453125,-1.875 -1.546875,-1.875 -0.0625,0 -0.109375,0.046875 -0.109375,0.109375 0,0.03125 0,0.046875 0.1875,0.234375 0.984375,0.984375 1.546875,2.5625 1.546875,4.640625 0,1.71875 -0.359375,3.46875 -1.59375,4.71875 C 0.5625,2.34375 0.5625,2.359375 0.5625,2.390625 0.5625,2.453125 0.609375,2.5 0.671875,2.5 0.765625,2.5 1.671875,1.8125 2.25,0.546875 2.765625,-0.546875 2.875,-1.65625 2.875,-2.5 Z m 0,0"
               id="id-186e7224-f311-4551-bc10-a606fa56ec3e" />
          </g>
        </g>
        <g
           style="fill:#000000;fill-opacity:1"
           id="id-fe7c08b3-98e6-41af-b0c9-55cacf93ffdf"
           transform="matrix(0.709456,0,0,0.709456,-54.957204,-39.238114)">
          <g
             transform="translate(213.255,134.765)"
             id="g2694">
            <path
               style="stroke:none;stroke-width:0"
               d="m 6.84375,-3.265625 c 0.15625,0 0.34375,0 0.34375,-0.1875 C 7.1875,-3.65625 7,-3.65625 6.859375,-3.65625 h -5.96875 c -0.140625,0 -0.328125,0 -0.328125,0.203125 0,0.1875 0.1875,0.1875 0.328125,0.1875 z m 0.015625,1.9375 c 0.140625,0 0.328125,0 0.328125,-0.203125 0,-0.1875 -0.1875,-0.1875 -0.34375,-0.1875 H 0.890625 c -0.140625,0 -0.328125,0 -0.328125,0.1875 0,0.203125 0.1875,0.203125 0.328125,0.203125 z m 0,0"
               id="id-abcde36f-102a-4a7f-a40a-519d84a6ee9d" />
          </g>
        </g>
        <g
           style="fill:#000000;fill-opacity:1"
           id="id-f43d7e89-abdf-4169-ae4c-febc151f0c3b"
           transform="matrix(0.709456,0,0,0.709456,-54.957204,-39.238114)">
          <g
             transform="translate(223.774,134.765)"
             id="g2698">
            <path
               style="stroke:none;stroke-width:0"
               d="m 2.9375,-1.640625 v 0.859375 c 0,0.359375 -0.03125,0.46875 -0.765625,0.46875 H 1.96875 V 0 C 2.375,-0.03125 2.890625,-0.03125 3.3125,-0.03125 c 0.421875,0 0.9375,0 1.359375,0.03125 v -0.3125 h -0.21875 c -0.734375,0 -0.75,-0.109375 -0.75,-0.46875 V -1.640625 H 4.6875 v -0.3125 H 3.703125 v -4.53125 c 0,-0.203125 0,-0.265625 -0.171875,-0.265625 -0.078125,0 -0.109375,0 -0.1875,0.125 l -3.0625,4.671875 v 0.3125 z m 0.046875,-0.3125 H 0.5625 l 2.421875,-3.71875 z m 0,0"
               id="id-70a371cb-4ef6-4c38-b325-26122f0bf6e7" />
          </g>
        </g>
      </g>
    </g>
  </g>
</svg>
