<?xml version="1.0" encoding="UTF-8" standalone="no"?>
<!-- Created with Inkscape (http://www.inkscape.org/) -->

<svg
   width="204.59206mm"
   height="74.877083mm"
   viewBox="0 0 204.59206 74.877082"
   version="1.1"
   id="svg5"
   inkscape:version="1.1 (c4e8f9e, 2021-05-24)"
   sodipodi:docname="builder_pattern.svg"
   xmlns:inkscape="http://www.inkscape.org/namespaces/inkscape"
   xmlns:sodipodi="http://sodipodi.sourceforge.net/DTD/sodipodi-0.dtd"
   xmlns="http://www.w3.org/2000/svg"
   xmlns:svg="http://www.w3.org/2000/svg">
  <sodipodi:namedview
     id="namedview7"
     pagecolor="#ffffff"
     bordercolor="#666666"
     borderopacity="1.0"
     inkscape:pageshadow="2"
     inkscape:pageopacity="0.0"
     inkscape:pagecheckerboard="0"
     inkscape:document-units="mm"
     showgrid="false"
     inkscape:zoom="1.0521951"
     inkscape:cx="398.69031"
     inkscape:cy="101.21697"
     inkscape:window-width="1346"
     inkscape:window-height="847"
     inkscape:window-x="0"
     inkscape:window-y="25"
     inkscape:window-maximized="0"
     inkscape:current-layer="layer1"
     inkscape:snap-nodes="true">
    <inkscape:grid
       type="xygrid"
       id="grid824"
       originx="-15.478132"
       originy="-55.165634" />
  </sodipodi:namedview>
  <defs
     id="defs2">
    <marker
       style="overflow:visible"
       id="TriangleOutM"
       refX="0"
       refY="0"
       orient="auto"
       inkscape:stockid="TriangleOutM"
       inkscape:isstock="true">
      <path
         transform="scale(0.4)"
         style="fill:context-stroke;fill-rule:evenodd;stroke:context-stroke;stroke-width:1pt"
         d="M 5.77,0 -2.88,5 V -5 Z"
         id="path5946" />
    </marker>
    <marker
       style="overflow:visible"
       id="TriangleOutL"
       refX="0"
       refY="0"
       orient="auto"
       inkscape:stockid="TriangleOutL"
       inkscape:isstock="true">
      <path
         transform="scale(0.8)"
         style="fill:context-stroke;fill-rule:evenodd;stroke:context-stroke;stroke-width:1pt"
         d="M 5.77,0 -2.88,5 V -5 Z"
         id="path5943" />
    </marker>
    <defs
       id="id-d27bc82e-423e-4c54-86c6-c6de9420966d">
      <g
         id="id-ebbd9492-0c3c-42c0-9169-3b81df4b532f">
        <symbol
           overflow="visible"
           id="id-2389577b-6ae1-4f5a-9d1f-eb61af2e16a1">
          <path
             style="stroke:none;stroke-width:0"
             d=""
             id="id-6da3cfbf-1b76-4c58-818b-ee66ae5a6e31" />
        </symbol>
        <symbol
           overflow="visible"
           id="id-d91df368-4cb1-4ad1-87c2-42bd9fb024eb">
          <path
             style="stroke:none;stroke-width:0"
             d="m 0.59375,-6.09375 c -0.15625,0 -0.40625,0 -0.40625,0.3125 0,0.296875 0.265625,0.296875 0.40625,0.296875 H 0.8125 v 4.875 H 0.59375 c -0.15625,0 -0.40625,0 -0.40625,0.3125 C 0.1875,0 0.453125,0 0.59375,0 h 2.0625 c 1.296875,0 2.171875,-1.390625 2.171875,-3 0,-1.59375 -0.84375,-3.09375 -2.171875,-3.09375 z M 1.5,-0.609375 v -4.875 h 0.96875 c 1.125,0 1.671875,1.328125 1.671875,2.484375 0,1.171875 -0.578125,2.390625 -1.671875,2.390625 z m 0,0"
             id="id-d3febfe3-a4ff-475c-992f-b81aed4b7f07" />
        </symbol>
        <symbol
           overflow="visible"
           id="id-e7408636-a4a1-4aa3-84c5-2a0a786dd213">
          <path
             style="stroke:none;stroke-width:0"
             d="m 3.078125,-3.890625 c 0,-0.3125 -0.0625,-0.40625 -0.390625,-0.40625 H 1.265625 c -0.15625,0 -0.40625,0 -0.40625,0.296875 0,0.3125 0.25,0.3125 0.40625,0.3125 h 1.125 v 3.078125 H 1.1875 c -0.15625,0 -0.40625,0 -0.40625,0.3125 C 0.78125,0 1.03125,0 1.1875,0 H 4.125 c 0.15625,0 0.40625,0 0.40625,-0.296875 0,-0.3125 -0.25,-0.3125 -0.40625,-0.3125 H 3.078125 Z m 0,-1.71875 c 0,-0.265625 -0.21875,-0.484375 -0.5,-0.484375 -0.28125,0 -0.5,0.21875 -0.5,0.484375 0,0.28125 0.21875,0.5 0.5,0.5 0.28125,0 0.5,-0.21875 0.5,-0.5 z m 0,0"
             id="id-c90d9f65-2335-4af7-852a-dfd0816cdf08" />
        </symbol>
        <symbol
           overflow="visible"
           id="id-2b8a30b4-20d3-4b35-a272-96e3758fdc2e">
          <path
             style="stroke:none;stroke-width:0"
             d="M 2.21875,-1.859375 C 2.21875,-2.796875 2.796875,-3.75 4,-3.75 c 0.015625,0.234375 0.1875,0.4375 0.4375,0.4375 0.21875,0 0.421875,-0.15625 0.421875,-0.421875 0,-0.203125 -0.125,-0.625 -0.953125,-0.625 -0.5,0 -1.140625,0.1875 -1.6875,0.8125 v -0.34375 c 0,-0.3125 -0.0625,-0.40625 -0.40625,-0.40625 H 0.71875 c -0.15625,0 -0.40625,0 -0.40625,0.296875 0,0.3125 0.25,0.3125 0.40625,0.3125 h 0.8125 v 3.078125 h -0.8125 c -0.15625,0 -0.40625,0 -0.40625,0.296875 C 0.3125,0 0.5625,0 0.71875,0 H 3.3125 c 0.15625,0 0.421875,0 0.421875,-0.296875 0,-0.3125 -0.265625,-0.3125 -0.421875,-0.3125 H 2.21875 Z m 0,0"
             id="id-af130cc0-1867-4991-bb7f-9a36bb1afa67" />
        </symbol>
        <symbol
           overflow="visible"
           id="id-437044bb-ea1f-491c-9589-022ef482d75e">
          <path
             style="stroke:none;stroke-width:0"
             d="m 4.234375,-1.90625 c 0.203125,0 0.390625,0 0.390625,-0.359375 0,-1.140625 -0.640625,-2.125 -1.9375,-2.125 -1.1875,0 -2.140625,1 -2.140625,2.234375 0,1.203125 1.015625,2.21875 2.296875,2.21875 1.3125,0 1.78125,-0.90625 1.78125,-1.15625 0,-0.265625 -0.28125,-0.265625 -0.34375,-0.265625 -0.1875,0 -0.265625,0.03125 -0.328125,0.21875 -0.21875,0.5 -0.765625,0.59375 -1.046875,0.59375 -0.75,0 -1.484375,-0.5 -1.65625,-1.359375 z M 1.265625,-2.5 C 1.40625,-3.234375 2,-3.78125 2.6875,-3.78125 c 0.515625,0 1.140625,0.25 1.234375,1.28125 z m 0,0"
             id="id-7ebba21f-8e2b-496e-9ffd-3e20f91e23ab" />
        </symbol>
        <symbol
           overflow="visible"
           id="id-688b94a5-b78a-44b2-bd4b-5824cafa6154">
          <path
             style="stroke:none;stroke-width:0"
             d="m 4.640625,-1.09375 c 0,-0.265625 -0.28125,-0.265625 -0.34375,-0.265625 -0.15625,0 -0.265625,0.015625 -0.328125,0.21875 -0.0625,0.125 -0.25,0.59375 -0.984375,0.59375 -0.84375,0 -1.5625,-0.703125 -1.5625,-1.609375 0,-0.46875 0.265625,-1.625 1.625,-1.625 0.203125,0 0.59375,0 0.59375,0.09375 0.015625,0.34375 0.203125,0.484375 0.4375,0.484375 0.234375,0 0.453125,-0.171875 0.453125,-0.453125 0,-0.734375 -1.046875,-0.734375 -1.484375,-0.734375 -1.71875,0 -2.3125,1.359375 -2.3125,2.234375 0,1.203125 0.9375,2.21875 2.1875,2.21875 1.390625,0 1.71875,-0.984375 1.71875,-1.15625 z m 0,0"
             id="id-6529fb6d-684f-4ba6-a7b7-9c01e6e0308b" />
        </symbol>
        <symbol
           overflow="visible"
           id="id-9f976bff-e7cf-4612-a12f-fdea7ed90dce">
          <path
             style="stroke:none;stroke-width:0"
             d="m 2.21875,-3.6875 h 1.625 c 0.15625,0 0.40625,0 0.40625,-0.296875 0,-0.3125 -0.25,-0.3125 -0.40625,-0.3125 h -1.625 v -0.8125 c 0,-0.1875 0,-0.40625 -0.34375,-0.40625 -0.34375,0 -0.34375,0.203125 -0.34375,0.40625 v 0.8125 h -0.875 c -0.15625,0 -0.40625,0 -0.40625,0.3125 0,0.296875 0.25,0.296875 0.390625,0.296875 H 1.53125 V -1.25 c 0,0.953125 0.671875,1.3125 1.40625,1.3125 0.734375,0 1.53125,-0.4375 1.53125,-1.3125 0,-0.1875 0,-0.390625 -0.34375,-0.390625 -0.328125,0 -0.34375,0.203125 -0.34375,0.375 0,0.625 -0.578125,0.71875 -0.796875,0.71875 -0.765625,0 -0.765625,-0.515625 -0.765625,-0.765625 z m 0,0"
             id="id-286492f3-9f94-4948-91a8-8ffc43ebd3d6" />
        </symbol>
        <symbol
           overflow="visible"
           id="id-55dd6fa0-6447-4809-be04-841fdf2dd387">
          <path
             style="stroke:none;stroke-width:0"
             d="m 4.65625,-2.15625 c 0,-1.25 -0.921875,-2.234375 -2.046875,-2.234375 -1.109375,0 -2.046875,0.984375 -2.046875,2.234375 0,1.265625 0.953125,2.21875 2.046875,2.21875 1.09375,0 2.046875,-0.953125 2.046875,-2.21875 z M 2.609375,-0.546875 C 1.875,-0.546875 1.25,-1.296875 1.25,-2.21875 c 0,-0.90625 0.65625,-1.5625 1.359375,-1.5625 0.71875,0 1.359375,0.65625 1.359375,1.5625 0,0.921875 -0.625,1.671875 -1.359375,1.671875 z m 0,0"
             id="id-00936ddd-b1f9-4041-9e13-e1799d67a309" />
        </symbol>
        <symbol
           overflow="visible"
           id="id-649e2a04-e5ab-4be4-84a3-16d268157f2d">
          <path
             style="stroke:none;stroke-width:0"
             d="m 4.828125,-5.796875 c 0,-0.15625 0,-0.40625 -0.296875,-0.40625 -0.1875,0 -0.234375,0.109375 -0.28125,0.171875 -0.015625,0.046875 -0.015625,0.0625 -0.15625,0.3125 C 3.765625,-6 3.3125,-6.203125 2.796875,-6.203125 c -1.28125,0 -2.390625,1.34375 -2.390625,3.15625 0,1.828125 1.109375,3.15625 2.40625,3.15625 1.15625,0 2.015625,-0.890625 2.015625,-1.78125 C 4.828125,-2 4.578125,-2 4.46875,-2 4.390625,-2 4.15625,-2 4.140625,-1.71875 4.0625,-0.734375 3.265625,-0.5 2.84375,-0.5 c -0.90625,0 -1.75,-1.0625 -1.75,-2.546875 0,-1.484375 0.859375,-2.546875 1.75,-2.546875 0.59375,0 1.140625,0.453125 1.28125,1.265625 C 4.15625,-4.15625 4.171875,-4 4.46875,-4 4.828125,-4 4.828125,-4.203125 4.828125,-4.40625 Z m 0,0"
             id="id-8d699e07-9d40-43d1-bca7-d9d83e7fc318" />
        </symbol>
        <symbol
           overflow="visible"
           id="id-2fed3e91-2109-49b9-988a-e3290b963cc2">
          <path
             style="stroke:none;stroke-width:0"
             d="m 1.65625,-3.828125 c 0,-0.3125 0,-0.46875 -0.40625,-0.46875 H 0.53125 c -0.15625,0 -0.40625,0 -0.40625,0.3125 0,0.296875 0.25,0.296875 0.390625,0.296875 H 0.96875 v 3.078125 h -0.4375 c -0.15625,0 -0.40625,0 -0.40625,0.3125 C 0.125,0 0.375,0 0.515625,0 h 1.59375 C 2.25,0 2.5,0 2.5,-0.296875 c 0,-0.3125 -0.25,-0.3125 -0.40625,-0.3125 H 1.65625 V -2.375 c 0,-1 0.734375,-1.375 1.25,-1.375 0.515625,0 0.65625,0.28125 0.65625,0.875 v 2.265625 h -0.375 c -0.171875,0 -0.421875,0 -0.421875,0.3125 C 2.765625,0 3.046875,0 3.1875,0 h 1.515625 c 0.140625,0 0.40625,0 0.40625,-0.296875 0,-0.3125 -0.25,-0.3125 -0.421875,-0.3125 H 4.25 v -2.3125 c 0,-1 -0.5,-1.4375 -1.296875,-1.4375 -0.65625,0 -1.109375,0.34375 -1.296875,0.53125 z m 0,0"
             id="id-574588b5-b781-4ac4-b52d-883b4022fa94" />
        </symbol>
        <symbol
           overflow="visible"
           id="id-beedbec6-8a52-4f3c-a79d-223940de4683">
          <path
             style="stroke:none;stroke-width:0"
             d="M 2.96875,-2.546875 C 2.734375,-2.578125 2.546875,-2.609375 2.296875,-2.65625 2,-2.703125 1.328125,-2.828125 1.328125,-3.203125 c 0,-0.265625 0.3125,-0.578125 1.265625,-0.578125 0.828125,0 0.96875,0.296875 1,0.5625 0,0.171875 0.03125,0.34375 0.328125,0.34375 0.359375,0 0.359375,-0.21875 0.359375,-0.421875 v -0.6875 c 0,-0.15625 0,-0.40625 -0.296875,-0.40625 -0.25,0 -0.28125,0.140625 -0.3125,0.21875 -0.4375,-0.21875 -0.875,-0.21875 -1.0625,-0.21875 -1.65625,0 -1.890625,0.828125 -1.890625,1.1875 0,0.90625 1.046875,1.078125 1.96875,1.21875 0.484375,0.078125 1.28125,0.203125 1.28125,0.734375 0,0.375 -0.375,0.703125 -1.28125,0.703125 -0.46875,0 -1.015625,-0.109375 -1.265625,-0.890625 -0.0625,-0.171875 -0.09375,-0.28125 -0.359375,-0.28125 -0.34375,0 -0.34375,0.203125 -0.34375,0.40625 v 0.96875 c 0,0.15625 0,0.40625 0.296875,0.40625 0.09375,0 0.25,-0.015625 0.375,-0.375 0.484375,0.359375 1.015625,0.375 1.296875,0.375 1.5625,0 1.890625,-0.828125 1.890625,-1.3125 0,-1.03125 -1.28125,-1.25 -1.609375,-1.296875 z m 0,0"
             id="id-5a849a19-2949-41af-8130-c5c470032357" />
        </symbol>
        <symbol
           overflow="visible"
           id="id-8b2f80ec-898c-4cbb-b9c2-3519aa44a0bf">
          <path
             style="stroke:none;stroke-width:0"
             d="M 3.5625,-0.3125 C 3.578125,0 3.78125,0 3.96875,0 H 4.6875 c 0.171875,0 0.421875,0 0.421875,-0.3125 0,-0.296875 -0.265625,-0.296875 -0.40625,-0.296875 H 4.25 v -3.28125 c 0,-0.3125 -0.046875,-0.40625 -0.390625,-0.40625 H 3.125 c -0.15625,0 -0.40625,0 -0.40625,0.3125 0,0.296875 0.265625,0.296875 0.40625,0.296875 h 0.4375 v 2.125 c 0,0.890625 -0.796875,1.015625 -1.125,1.015625 -0.78125,0 -0.78125,-0.328125 -0.78125,-0.65625 v -2.6875 c 0,-0.3125 -0.0625,-0.40625 -0.40625,-0.40625 H 0.53125 c -0.15625,0 -0.40625,0 -0.40625,0.3125 0,0.296875 0.25,0.296875 0.390625,0.296875 H 0.96875 v 2.546875 c 0,0.96875 0.6875,1.203125 1.40625,1.203125 0.421875,0 0.828125,-0.109375 1.1875,-0.375 z m 0,0"
             id="id-2f694b7d-53d0-419d-bcb0-aac24e80875a" />
        </symbol>
        <symbol
           overflow="visible"
           id="id-c4bdd664-28d4-46aa-b8fc-abe43ebd8b78">
          <path
             style="stroke:none;stroke-width:0"
             d="m 4.359375,0.53125 c 0,-0.140625 -0.078125,-0.1875 -0.25,-0.296875 C 2.875,-0.609375 2.40625,-1.9375 2.40625,-3.046875 c 0,-1 0.390625,-2.390625 1.71875,-3.296875 0.15625,-0.109375 0.234375,-0.140625 0.234375,-0.296875 0,-0.078125 -0.046875,-0.28125 -0.3125,-0.28125 -0.28125,0 -2.328125,1.3125 -2.328125,3.875 0,1.1875 0.46875,2.078125 0.8125,2.578125 0.53125,0.734375 1.28125,1.28125 1.515625,1.28125 0.265625,0 0.3125,-0.1875 0.3125,-0.28125 z m 0,0"
             id="id-9af9edfa-ce7b-4831-a996-366bc579be06" />
        </symbol>
        <symbol
           overflow="visible"
           id="id-f3e0a43c-e1f2-4919-ba5c-ded93f576638">
          <path
             style="stroke:none;stroke-width:0"
             d="m 3.515625,-3.046875 c 0,-1.1875 -0.46875,-2.09375 -0.8125,-2.578125 -0.53125,-0.734375 -1.28125,-1.296875 -1.515625,-1.296875 -0.25,0 -0.3125,0.203125 -0.3125,0.28125 0,0.15625 0.109375,0.21875 0.15625,0.25 1.640625,1.09375 1.796875,2.6875 1.796875,3.34375 0,1 -0.375,2.375 -1.71875,3.28125 C 0.953125,0.34375 0.875,0.390625 0.875,0.53125 c 0,0.09375 0.0625,0.28125 0.3125,0.28125 0.28125,0 2.328125,-1.3125 2.328125,-3.859375 z m 0,0"
             id="id-41cc1cad-10db-4d3f-8dbf-930d1a1e26d6" />
        </symbol>
        <symbol
           overflow="visible"
           id="id-876c3bfb-b21c-4f9f-8e60-93e930630128">
          <path
             style="stroke:none;stroke-width:0"
             d="m 1.65625,-3.875 v -1.8125 c 0,-0.296875 -0.0625,-0.40625 -0.40625,-0.40625 H 0.53125 c -0.15625,0 -0.40625,0 -0.40625,0.3125 0,0.296875 0.25,0.296875 0.390625,0.296875 H 0.96875 V -0.40625 C 0.96875,-0.203125 0.96875,0 1.3125,0 1.65625,0 1.65625,-0.203125 1.65625,-0.453125 2.0625,-0.03125 2.5,0.0625 2.8125,0.0625 c 1.078125,0 2.046875,-0.953125 2.046875,-2.21875 0,-1.21875 -0.875,-2.203125 -1.9375,-2.203125 C 2.4375,-4.359375 2,-4.171875 1.65625,-3.875 Z m 0,1.96875 V -2.625 c 0,-0.59375 0.578125,-1.125 1.203125,-1.125 0.734375,0 1.3125,0.734375 1.3125,1.59375 0,0.953125 -0.6875,1.609375 -1.390625,1.609375 -0.78125,0 -1.125,-0.875 -1.125,-1.359375 z m 0,0"
             id="id-8c935d09-06a1-4df1-835a-b696af731764" />
        </symbol>
        <symbol
           overflow="visible"
           id="id-cf8d43af-480f-4c4a-ac22-2e3bf10d0dc9">
          <path
             style="stroke:none;stroke-width:0"
             d="m 2.953125,-5.6875 c 0,-0.296875 -0.046875,-0.40625 -0.390625,-0.40625 H 0.984375 c -0.15625,0 -0.40625,0 -0.40625,0.3125 0,0.296875 0.265625,0.296875 0.40625,0.296875 h 1.28125 v 4.875 h -1.28125 c -0.15625,0 -0.40625,0 -0.40625,0.3125 C 0.578125,0 0.84375,0 0.984375,0 H 4.25 c 0.15625,0 0.40625,0 0.40625,-0.296875 0,-0.3125 -0.234375,-0.3125 -0.40625,-0.3125 H 2.953125 Z m 0,0"
             id="id-f0dcf9ab-076c-47c6-b0a2-2f5ab0f7dfe7" />
        </symbol>
        <symbol
           overflow="visible"
           id="id-550dbc25-df0b-406c-937a-57553c61ca04">
          <path
             style="stroke:none;stroke-width:0"
             d="m 3.5625,-0.5 c 0,0.359375 0,0.5 0.40625,0.5 H 4.6875 c 0.171875,0 0.421875,0 0.421875,-0.3125 0,-0.296875 -0.265625,-0.296875 -0.40625,-0.296875 H 4.25 V -5.6875 c 0,-0.296875 -0.046875,-0.40625 -0.390625,-0.40625 H 3.125 c -0.15625,0 -0.40625,0 -0.40625,0.3125 0,0.296875 0.265625,0.296875 0.40625,0.296875 H 3.5625 V -3.90625 C 3.234375,-4.203125 2.828125,-4.359375 2.40625,-4.359375 c -1.09375,0 -2.046875,0.953125 -2.046875,2.21875 0,1.234375 0.890625,2.203125 1.953125,2.203125 0.5625,0 0.984375,-0.265625 1.25,-0.5625 z m 0,-2.140625 V -1.9375 c 0,0.5625 -0.4375,1.390625 -1.203125,1.390625 -0.71875,0 -1.3125,-0.703125 -1.3125,-1.59375 C 1.046875,-3.09375 1.75,-3.75 2.4375,-3.75 c 0.640625,0 1.125,0.5625 1.125,1.109375 z m 0,0"
             id="id-57a84d2b-09dc-4775-8092-94712b8cf8a3" />
        </symbol>
        <symbol
           overflow="visible"
           id="id-01cdd5a8-9708-4a93-a6c1-371c335ae027">
          <path
             style="stroke:none;stroke-width:0"
             d="m 1.59375,-5.484375 h 1.25 c 0.84375,0 1.0625,0.625 1.0625,0.953125 0,0.40625 -0.3125,1.0625 -1.28125,1.0625 H 1.59375 Z M 3.515625,-3.1875 C 4.15625,-3.40625 4.59375,-3.921875 4.59375,-4.546875 4.59375,-5.28125 3.984375,-6.09375 2.875,-6.09375 h -2.25 c -0.140625,0 -0.390625,0 -0.390625,0.296875 0,0.3125 0.25,0.3125 0.40625,0.3125 H 0.90625 v 4.875 H 0.640625 c -0.15625,0 -0.40625,0 -0.40625,0.3125 C 0.234375,0 0.484375,0 0.625,0 H 3.078125 C 4.203125,0 4.8125,-0.890625 4.8125,-1.671875 4.8125,-2.359375 4.328125,-3 3.515625,-3.1875 Z m -0.65625,2.578125 H 1.59375 v -2.25 h 1.375 c 0.84375,0 1.140625,0.71875 1.140625,1.171875 0,0.484375 -0.375,1.078125 -1.25,1.078125 z m 0,0"
             id="id-93967da6-da8f-4ea8-a1e5-62945799c5a1" />
        </symbol>
        <symbol
           overflow="visible"
           id="id-cf936762-37df-43ac-9df1-f7ca8232c5de">
          <path
             style="stroke:none;stroke-width:0"
             d="m 1.65625,-2.4375 h 1.25 c 1.15625,0 1.875,-0.90625 1.875,-1.828125 0,-0.921875 -0.734375,-1.828125 -1.875,-1.828125 H 0.671875 c -0.15625,0 -0.40625,0 -0.40625,0.296875 0,0.3125 0.25,0.3125 0.40625,0.3125 H 0.96875 v 4.875 H 0.671875 c -0.15625,0 -0.40625,0 -0.40625,0.3125 C 0.265625,0 0.515625,0 0.671875,0 h 1.28125 c 0.15625,0 0.40625,0 0.40625,-0.296875 0,-0.3125 -0.25,-0.3125 -0.40625,-0.3125 H 1.65625 Z m 0,-3.046875 h 1.0625 c 0.953125,0 1.375,0.6875 1.375,1.21875 0,0.53125 -0.421875,1.21875 -1.375,1.21875 h -1.0625 z m 0,0"
             id="id-15a4afb1-5580-4fe3-957c-bd19edf531d6" />
        </symbol>
        <symbol
           overflow="visible"
           id="id-47a18cf2-80b6-4543-95fa-0a37ff6b1696">
          <path
             style="stroke:none;stroke-width:0"
             d="M 3.65625,-0.3125 C 3.875,-0.015625 4.34375,0 4.71875,0 c 0.28125,0 0.5,0 0.5,-0.3125 0,-0.296875 -0.25,-0.296875 -0.390625,-0.296875 -0.421875,0 -0.515625,-0.046875 -0.59375,-0.078125 v -2.15625 c 0,-0.703125 -0.546875,-1.546875 -1.984375,-1.546875 -0.421875,0 -1.4375,0 -1.4375,0.734375 0,0.296875 0.203125,0.453125 0.4375,0.453125 0.15625,0 0.4375,-0.09375 0.4375,-0.453125 0,-0.078125 0.015625,-0.09375 0.21875,-0.109375 0.140625,-0.015625 0.265625,-0.015625 0.359375,-0.015625 0.75,0 1.265625,0.3125 1.265625,1.015625 -1.75,0.03125 -2.984375,0.53125 -2.984375,1.484375 0,0.6875 0.625,1.34375 1.640625,1.34375 0.375,0 1,-0.078125 1.46875,-0.375 z m -0.125,-1.859375 v 0.84375 c 0,0.21875 0,0.4375 -0.375,0.609375 -0.359375,0.171875 -0.8125,0.171875 -0.890625,0.171875 -0.625,0 -1.03125,-0.34375 -1.03125,-0.734375 0,-0.484375 0.859375,-0.859375 2.296875,-0.890625 z m 0,0"
             id="id-006c6186-1b77-4d71-89b3-af92143abf06" />
        </symbol>
        <symbol
           overflow="visible"
           id="id-ec6b769b-0600-407e-834a-7187d60152dd">
          <path
             style="stroke:none;stroke-width:0"
             d="m 4.46875,-2.078125 c 0.25,0 0.46875,0 0.46875,-0.3125 0,-0.296875 -0.25,-0.296875 -0.40625,-0.296875 h -1.1875 c -0.140625,0 -0.390625,0 -0.390625,0.296875 0,0.3125 0.234375,0.3125 0.390625,0.3125 H 3.765625 C 3.65625,-0.96875 3.15625,-0.5 2.625,-0.5 c -0.796875,0 -1.5625,-1.078125 -1.5625,-2.546875 0,-1.515625 0.796875,-2.546875 1.578125,-2.546875 0.34375,0 0.984375,0.234375 1.140625,1.3125 C 3.8125,-4.109375 3.875,-4 4.125,-4 4.46875,-4 4.46875,-4.203125 4.46875,-4.40625 v -1.390625 c 0,-0.15625 0,-0.40625 -0.296875,-0.40625 -0.203125,0 -0.25,0.109375 -0.40625,0.453125 -0.34375,-0.296875 -0.75,-0.453125 -1.15625,-0.453125 -1.203125,0 -2.234375,1.34375 -2.234375,3.15625 0,1.828125 1.046875,3.15625 2.234375,3.15625 0.5625,0 0.984375,-0.296875 1.171875,-0.53125 C 3.78125,-0.203125 3.78125,0 4.140625,0 4.46875,0 4.46875,-0.21875 4.46875,-0.40625 Z m 0,0"
             id="id-dd546a37-d95d-4a70-9ab1-c4d0da6c1722" />
        </symbol>
        <symbol
           overflow="visible"
           id="id-da9c7682-2f13-483c-bfac-1da52779fa0c">
          <path
             style="stroke:none;stroke-width:0"
             d="m 1.5625,-5.484375 h 0.703125 c 0.921875,0 1.359375,0.59375 1.359375,1.0625 0,0.5 -0.4375,1.078125 -1.359375,1.078125 H 1.5625 Z M 3.46875,-3.03125 C 4.125,-3.40625 4.3125,-4 4.3125,-4.421875 4.3125,-5.28125 3.5625,-6.09375 2.375,-6.09375 h -1.75 c -0.171875,0 -0.40625,0 -0.40625,0.3125 0,0.296875 0.25,0.296875 0.40625,0.296875 h 0.25 v 4.875 h -0.25 c -0.171875,0 -0.40625,0 -0.40625,0.3125 C 0.21875,0 0.46875,0 0.625,0 h 1.171875 c 0.15625,0 0.40625,0 0.40625,-0.296875 0,-0.3125 -0.234375,-0.3125 -0.40625,-0.3125 H 1.5625 v -2.125 h 0.765625 c 0.1875,0 0.5,0 0.8125,0.265625 0.21875,0.21875 0.21875,0.4375 0.21875,0.859375 0,0.640625 0,0.9375 0.1875,1.265625 C 3.71875,-0.046875 4,0.109375 4.34375,0.109375 c 0.625,0 0.859375,-0.65625 0.859375,-1.03125 C 5.203125,-1.25 4.96875,-1.25 4.859375,-1.25 4.75,-1.25 4.53125,-1.25 4.515625,-0.953125 4.515625,-0.875 4.5,-0.5 4.328125,-0.5 c -0.28125,0 -0.28125,-0.453125 -0.28125,-0.984375 0,-0.625 0,-0.703125 -0.09375,-0.9375 -0.109375,-0.296875 -0.34375,-0.5 -0.484375,-0.609375 z m 0,0"
             id="id-3e006b73-92f2-45fe-8b5b-fb1fd086946a" />
        </symbol>
      </g>
    </defs>
  </defs>
  <g
     inkscape:label="Layer 1"
     inkscape:groupmode="layer"
     id="layer1"
     transform="translate(-15.478126,-55.165625)">
    <g
       id="g7376">
      <rect
         style="font-variation-settings:normal;opacity:1;fill:#364e59;fill-opacity:1;fill-rule:evenodd;stroke:#000000;stroke-width:0.793728;stroke-linecap:butt;stroke-linejoin:miter;stroke-miterlimit:4;stroke-dasharray:none;stroke-dashoffset:0;stroke-opacity:1;stop-color:#000000;stop-opacity:1"
         id="rect2750"
         width="52.915154"
         height="7.9372725"
         x="111.12498"
         y="97.895813"
         ry="0.13228786" />
      <rect
         style="font-variation-settings:normal;opacity:1;fill:#364e59;fill-opacity:1;fill-rule:evenodd;stroke:#000000;stroke-width:0.79375;stroke-linecap:butt;stroke-linejoin:miter;stroke-miterlimit:4;stroke-dasharray:none;stroke-dashoffset:0;stroke-opacity:1;stop-color:#000000;stop-opacity:1"
         id="rect2391"
         width="52.916672"
         height="7.9375"
         x="111.12498"
         y="55.5625"
         ry="0.13229166" />
      <rect
         style="font-variation-settings:normal;opacity:1;fill:#0e232e;fill-opacity:1;fill-rule:evenodd;stroke:#000000;stroke-width:0.79375;stroke-linecap:butt;stroke-linejoin:miter;stroke-miterlimit:4;stroke-dasharray:none;stroke-dashoffset:0;stroke-opacity:1;stop-color:#000000;stop-opacity:1"
         id="rect1235"
         width="52.916668"
         height="21.166666"
         x="15.875001"
         y="63.5"
         ry="0.13229166" />
      <rect
         style="font-variation-settings:normal;opacity:1;fill:#ff4141;fill-opacity:1;fill-rule:evenodd;stroke:#ff9900;stroke-width:0.79375;stroke-linecap:butt;stroke-linejoin:miter;stroke-miterlimit:4;stroke-dasharray:none;stroke-dashoffset:0;stroke-opacity:1;stop-color:#000000;stop-opacity:1"
         id="rect1442"
         width="47.625004"
         height="7.9374976"
         x="18.52083"
         y="66.145836"
         ry="0.13229166" />
      <rect
         style="font-variation-settings:normal;opacity:1;fill:#0e232e;fill-opacity:1;fill-rule:evenodd;stroke:#000000;stroke-width:0.79375;stroke-linecap:butt;stroke-linejoin:miter;stroke-miterlimit:4;stroke-dasharray:none;stroke-dashoffset:0;stroke-opacity:1;stop-color:#000000;stop-opacity:1"
         id="rect2393"
         width="52.916668"
         height="21.166666"
         x="111.12498"
         y="63.5"
         ry="0.13229166" />
      <rect
         style="font-variation-settings:normal;opacity:1;fill:#0e232e;fill-opacity:1;fill-rule:evenodd;stroke:#000000;stroke-width:0.79375;stroke-linecap:butt;stroke-linejoin:miter;stroke-miterlimit:4;stroke-dasharray:none;stroke-dashoffset:0;stroke-opacity:1;stop-color:#000000;stop-opacity:1"
         id="rect2752"
         width="52.916676"
         height="23.812521"
         x="111.12498"
         y="105.83331"
         ry="0.13229166" />
      <rect
         style="font-variation-settings:normal;opacity:1;fill:#364e59;fill-opacity:1;fill-rule:evenodd;stroke:#000000;stroke-width:0.79375;stroke-linecap:butt;stroke-linejoin:miter;stroke-miterlimit:4;stroke-dasharray:none;stroke-dashoffset:0;stroke-opacity:1;stop-color:#000000;stop-opacity:1"
         id="rect1233"
         width="52.916672"
         height="7.9375"
         x="15.875001"
         y="55.5625"
         ry="0.13229166" />
      <g
         id="g2230"
         transform="translate(-27.263879,99.969008)"
         style="fill:#ffffff">
        <path
           style="fill:#ffffff;fill-opacity:1;stroke:none;stroke-width:0"
           d="m 55.240528,-42.621552 c -0.110852,0 -0.288216,0 -0.288216,0.221705 0,0.210619 0.188449,0.210619 0.288216,0.210619 h 0.155194 v 3.458598 h -0.155194 c -0.110852,0 -0.288216,0 -0.288216,0.221705 0,0.21062 0.188449,0.21062 0.288216,0.21062 h 1.463253 c 0.920076,0 1.54085,-0.986587 1.54085,-2.128368 0,-1.130695 -0.598603,-2.194879 -1.54085,-2.194879 z m 0.642945,3.890922 v -3.458598 h 0.687285 c 0.798138,0 1.186122,0.942247 1.186122,1.762555 0,0.831394 -0.410154,1.696043 -1.186122,1.696043 z m 0,0"
           id="id-af40bbaa-4bdd-49dc-a6da-86fd8b3718ed" />
        <path
           style="fill:#ffffff;fill-opacity:1;stroke:none;stroke-width:0"
           d="m 60.713538,-41.058532 c 0,-0.221705 -0.04434,-0.288217 -0.277131,-0.288217 h -1.008758 c -0.110852,0 -0.288216,0 -0.288216,0.21062 0,0.221705 0.177364,0.221705 0.288216,0.221705 h 0.798138 v 2.183794 h -0.853564 c -0.110853,0 -0.288217,0 -0.288217,0.221705 0,0.21062 0.177364,0.21062 0.288217,0.21062 h 2.084027 c 0.110853,0 0.288217,0 0.288217,-0.21062 0,-0.221705 -0.177364,-0.221705 -0.288217,-0.221705 h -0.742712 z m 0,-1.219378 c 0,-0.188449 -0.155193,-0.343642 -0.354728,-0.343642 -0.199534,0 -0.354728,0.155193 -0.354728,0.343642 0,0.199535 0.155194,0.354728 0.354728,0.354728 0.199535,0 0.354728,-0.155193 0.354728,-0.354728 z m 0,0"
           id="id-2e60445b-8609-4e28-ad96-8f9b2d7bfd4e" />
        <path
           style="fill:#ffffff;fill-opacity:1;stroke:none;stroke-width:0"
           d="m 63.815013,-39.61745 c 0,-0.665115 0.410155,-1.341315 1.263719,-1.341315 0.01108,0.166279 0.133023,0.310387 0.310387,0.310387 0.155194,0 0.299302,-0.110852 0.299302,-0.299302 0,-0.144108 -0.08868,-0.44341 -0.676201,-0.44341 -0.354727,0 -0.809223,0.133023 -1.197207,0.576433 v -0.243875 c 0,-0.221705 -0.04434,-0.288217 -0.288216,-0.288217 h -0.775968 c -0.110852,0 -0.288216,0 -0.288216,0.21062 0,0.221705 0.177364,0.221705 0.288216,0.221705 h 0.576433 v 2.183794 h -0.576433 c -0.110852,0 -0.288216,0 -0.288216,0.21062 0,0.221705 0.177364,0.221705 0.288216,0.221705 h 1.840152 c 0.110852,0 0.299302,0 0.299302,-0.21062 0,-0.221705 -0.18845,-0.221705 -0.299302,-0.221705 h -0.775968 z m 0,0"
           id="id-9fb39f57-06e2-4a8b-b6e5-68d891b8fbf7" />
        <path
           style="fill:#ffffff;fill-opacity:1;stroke:none;stroke-width:0"
           d="m 68.955466,-39.650705 c 0.144108,0 0.277131,0 0.277131,-0.254961 0,-0.809223 -0.454495,-1.507594 -1.374571,-1.507594 -0.842479,0 -1.518679,0.709456 -1.518679,1.585191 0,0.853564 0.720541,1.574105 1.629532,1.574105 0.931161,0 1.263718,-0.642945 1.263718,-0.820308 0,-0.18845 -0.199535,-0.18845 -0.243876,-0.18845 -0.133022,0 -0.188449,0.02217 -0.23279,0.155194 -0.155193,0.354728 -0.543177,0.421239 -0.742711,0.421239 -0.532093,0 -1.053099,-0.354728 -1.175037,-0.964416 z m -2.106198,-0.42124 c 0.09977,-0.521007 0.521007,-0.90899 1.008758,-0.90899 0.365813,0 0.809223,0.177364 0.875735,0.90899 z m 0,0"
           id="id-82bf4901-9da9-4620-80a5-e8ef8c50690c" />
        <path
           style="fill:#ffffff;fill-opacity:1;stroke:none;stroke-width:0"
           d="m 72.954137,-39.074272 c 0,-0.18845 -0.199534,-0.18845 -0.243875,-0.18845 -0.110853,0 -0.18845,0.01109 -0.232791,0.155194 -0.04434,0.08868 -0.177364,0.421239 -0.69837,0.421239 -0.598604,0 -1.108525,-0.498836 -1.108525,-1.14178 0,-0.332558 0.188449,-1.152866 1.152866,-1.152866 0.144108,0 0.421239,0 0.421239,0.06651 0.01108,0.243876 0.144109,0.343643 0.310387,0.343643 0.166279,0 0.321472,-0.121938 0.321472,-0.321472 0,-0.521007 -0.742711,-0.521007 -1.053098,-0.521007 -1.219378,0 -1.640617,0.964416 -1.640617,1.585191 0,0.853564 0.665115,1.574105 1.551935,1.574105 0.986587,0 1.219377,-0.698371 1.219377,-0.820307 z m 0,0"
           id="id-9e13e1f3-ed84-4b13-ab9f-e57738f2fe42" />
        <path
           style="fill:#ffffff;fill-opacity:1;stroke:none;stroke-width:0"
           d="m 74.947089,-40.914424 h 1.152866 c 0.110852,0 0.288216,0 0.288216,-0.21062 0,-0.221705 -0.177364,-0.221705 -0.288216,-0.221705 h -1.152866 v -0.576433 c 0,-0.133023 0,-0.288216 -0.243876,-0.288216 -0.243875,0 -0.243875,0.144108 -0.243875,0.288216 v 0.576433 h -0.620774 c -0.110853,0 -0.288217,0 -0.288217,0.221705 0,0.21062 0.177364,0.21062 0.277131,0.21062 h 0.63186 v 1.729299 c 0,0.6762 0.476665,0.931161 0.997672,0.931161 0.521007,0 1.086355,-0.310387 1.086355,-0.931161 0,-0.133023 0,-0.277131 -0.243876,-0.277131 -0.23279,0 -0.243875,0.144108 -0.243875,0.266046 0,0.44341 -0.410155,0.509921 -0.565348,0.509921 -0.543177,0 -0.543177,-0.365813 -0.543177,-0.543177 z m 0,0"
           id="id-1f075d3d-bcaf-445e-9b63-43f87bee1396" />
        <path
           style="fill:#ffffff;fill-opacity:1;stroke:none;stroke-width:0"
           d="m 80.386842,-39.828069 c 0,-0.88682 -0.65403,-1.585191 -1.452168,-1.585191 -0.787053,0 -1.452168,0.698371 -1.452168,1.585191 0,0.897905 0.6762,1.574105 1.452168,1.574105 0.775967,0 1.452168,-0.6762 1.452168,-1.574105 z m -1.452168,1.14178 c -0.521007,0 -0.964417,-0.532092 -0.964417,-1.186121 0,-0.642945 0.465581,-1.108525 0.964417,-1.108525 0.509921,0 0.964416,0.46558 0.964416,1.108525 0,0.654029 -0.44341,1.186121 -0.964416,1.186121 z m 0,0"
           id="id-2ead0421-2e21-41a5-9ff9-75419ee6706d" />
        <path
           style="fill:#ffffff;fill-opacity:1;stroke:none;stroke-width:0"
           d="m 82.368707,-39.61745 c 0,-0.665115 0.410155,-1.341315 1.263719,-1.341315 0.01109,0.166279 0.133023,0.310387 0.310387,0.310387 0.155193,0 0.299302,-0.110852 0.299302,-0.299302 0,-0.144108 -0.08868,-0.44341 -0.676201,-0.44341 -0.354728,0 -0.809223,0.133023 -1.197207,0.576433 v -0.243875 c 0,-0.221705 -0.04434,-0.288217 -0.288216,-0.288217 h -0.775967 c -0.110853,0 -0.288217,0 -0.288217,0.21062 0,0.221705 0.177364,0.221705 0.288217,0.221705 h 0.576432 v 2.183794 h -0.576432 c -0.110853,0 -0.288217,0 -0.288217,0.21062 0,0.221705 0.177364,0.221705 0.288217,0.221705 h 1.840151 c 0.110852,0 0.299302,0 0.299302,-0.21062 0,-0.221705 -0.18845,-0.221705 -0.299302,-0.221705 h -0.775968 z m 0,0"
           id="id-b5ed7a4e-0b22-4cf7-84a7-563bff9dbc64" />
      </g>
      <g
         id="g2243"
         transform="translate(-62.116617,110.58006)"
         style="fill:#ffffff">
        <path
           style="fill:#ffffff;fill-opacity:1;stroke:none;stroke-width:0"
           d="m 87.930399,-42.410933 c 0,-0.110852 0,-0.288216 -0.21062,-0.288216 -0.133023,0 -0.166278,0.0776 -0.199534,0.121938 -0.01109,0.03325 -0.01109,0.04434 -0.110853,0.221705 -0.23279,-0.199535 -0.554262,-0.343643 -0.920075,-0.343643 -0.908991,0 -1.696044,0.953331 -1.696044,2.23922 0,1.296975 0.787053,2.239221 1.707129,2.239221 0.820308,0 1.429997,-0.631859 1.429997,-1.263719 0,-0.23279 -0.177364,-0.23279 -0.254961,-0.23279 -0.05543,0 -0.221705,0 -0.23279,0.199535 -0.05543,0.69837 -0.620774,0.864649 -0.920076,0.864649 -0.642944,0 -1.241548,-0.753797 -1.241548,-1.806896 0,-1.053098 0.609689,-1.806895 1.241548,-1.806895 0.42124,0 0.809224,0.321472 0.908991,0.897905 0.02217,0.121938 0.03326,0.23279 0.243875,0.23279 0.254961,0 0.254961,-0.144108 0.254961,-0.288216 z m 0,0"
           id="id-e80d79cf-c3a8-4fd0-aa1e-1bf68473caab" />
        <path
           style="fill:#ffffff;fill-opacity:1;stroke:none;stroke-width:0"
           d="m 91.518916,-39.828069 c 0,-0.88682 -0.65403,-1.585191 -1.452168,-1.585191 -0.787053,0 -1.452168,0.698371 -1.452168,1.585191 0,0.897905 0.6762,1.574105 1.452168,1.574105 0.775967,0 1.452168,-0.6762 1.452168,-1.574105 z m -1.452168,1.14178 c -0.521007,0 -0.964417,-0.532092 -0.964417,-1.186121 0,-0.642945 0.465581,-1.108525 0.964417,-1.108525 0.509921,0 0.964417,0.46558 0.964417,1.108525 0,0.654029 -0.44341,1.186121 -0.964417,1.186121 z m 0,0"
           id="id-2e2584a3-9871-4248-8304-bd6174913f22" />
        <path
           style="fill:#ffffff;fill-opacity:1;stroke:none;stroke-width:0"
           d="m 93.101713,-41.014191 c 0,-0.221705 0,-0.332558 -0.288217,-0.332558 h -0.509922 c -0.110852,0 -0.288216,0 -0.288216,0.221705 0,0.21062 0.177364,0.21062 0.277131,0.21062 h 0.321473 v 2.183794 h -0.310388 c -0.110852,0 -0.288216,0 -0.288216,0.221705 0,0.21062 0.177364,0.21062 0.277131,0.21062 h 1.130696 c 0.09977,0 0.277131,0 0.277131,-0.21062 0,-0.221705 -0.177364,-0.221705 -0.288217,-0.221705 h -0.310386 v -1.252633 c 0,-0.709456 0.521006,-0.975502 0.88682,-0.975502 0.365813,0 0.46558,0.199535 0.46558,0.620774 v 1.607361 h -0.266046 c -0.121938,0 -0.299302,0 -0.299302,0.221705 0,0.21062 0.199535,0.21062 0.299302,0.21062 h 1.075269 c 0.09977,0 0.288217,0 0.288217,-0.21062 0,-0.221705 -0.177364,-0.221705 -0.299302,-0.221705 h -0.310387 v -1.640617 c 0,-0.709456 -0.354728,-1.019843 -0.920076,-1.019843 -0.46558,0 -0.787053,0.243876 -0.920075,0.376899 z m 0,0"
           id="id-d373b58d-3ed8-459f-8527-6f759716af91" />
        <path
           style="fill:#ffffff;fill-opacity:1;stroke:none;stroke-width:0"
           d="m 97.743328,-40.105201 c -0.166278,-0.02217 -0.299301,-0.04434 -0.476665,-0.0776 -0.21062,-0.03326 -0.687286,-0.121938 -0.687286,-0.387984 0,-0.188449 0.221705,-0.410154 0.897905,-0.410154 0.587519,0 0.687286,0.210619 0.709456,0.399069 0,0.121937 0.02217,0.243875 0.232791,0.243875 0.25496,0 0.25496,-0.155193 0.25496,-0.299302 v -0.487751 c 0,-0.110852 0,-0.288216 -0.210619,-0.288216 -0.177364,0 -0.199535,0.09977 -0.221705,0.155193 -0.310387,-0.155193 -0.620774,-0.155193 -0.753797,-0.155193 -1.175037,0 -1.341316,0.587518 -1.341316,0.842479 0,0.642944 0.742712,0.764882 1.396742,0.864649 0.343643,0.05543 0.90899,0.144108 0.90899,0.521007 0,0.266046 -0.266046,0.498836 -0.90899,0.498836 -0.332558,0 -0.720541,-0.0776 -0.897905,-0.631859 -0.04434,-0.121938 -0.06651,-0.199534 -0.254961,-0.199534 -0.243876,0 -0.243876,0.144108 -0.243876,0.288216 v 0.687286 c 0,0.110852 0,0.288216 0.21062,0.288216 0.06651,0 0.177364,-0.01108 0.266046,-0.266046 0.343643,0.254961 0.720541,0.266046 0.920076,0.266046 1.108525,0 1.341315,-0.587518 1.341315,-0.931161 0,-0.731626 -0.90899,-0.88682 -1.141781,-0.920076 z m 0,0"
           id="id-ead02a69-089c-4ab6-beb5-caebd5b243e6" />
        <path
           style="fill:#ffffff;fill-opacity:1;stroke:none;stroke-width:0"
           d="m 100.92169,-40.914424 h 1.15287 c 0.11085,0 0.28821,0 0.28821,-0.21062 0,-0.221705 -0.17736,-0.221705 -0.28821,-0.221705 h -1.15287 v -0.576433 c 0,-0.133023 0,-0.288216 -0.24387,-0.288216 -0.24388,0 -0.24388,0.144108 -0.24388,0.288216 v 0.576433 h -0.620773 c -0.110853,0 -0.288217,0 -0.288217,0.221705 0,0.21062 0.177364,0.21062 0.277131,0.21062 h 0.631859 v 1.729299 c 0,0.6762 0.47667,0.931161 0.99767,0.931161 0.52101,0 1.08636,-0.310387 1.08636,-0.931161 0,-0.133023 0,-0.277131 -0.24388,-0.277131 -0.23279,0 -0.24387,0.144108 -0.24387,0.266046 0,0.44341 -0.41016,0.509921 -0.56535,0.509921 -0.54318,0 -0.54318,-0.365813 -0.54318,-0.543177 z m 0,0"
           id="id-542a6a1b-453c-4d01-9dfb-06ebec3fd5be" />
        <path
           style="fill:#ffffff;fill-opacity:1;stroke:none;stroke-width:0"
           d="m 104.63286,-39.61745 c 0,-0.665115 0.41015,-1.341315 1.26371,-1.341315 0.0111,0.166279 0.13303,0.310387 0.31039,0.310387 0.15519,0 0.2993,-0.110852 0.2993,-0.299302 0,-0.144108 -0.0887,-0.44341 -0.6762,-0.44341 -0.35473,0 -0.80922,0.133023 -1.1972,0.576433 v -0.243875 c 0,-0.221705 -0.0443,-0.288217 -0.28822,-0.288217 h -0.77597 c -0.11085,0 -0.28821,0 -0.28821,0.21062 0,0.221705 0.17736,0.221705 0.28821,0.221705 h 0.57643 v 2.183794 h -0.57643 c -0.11085,0 -0.28821,0 -0.28821,0.21062 0,0.221705 0.17736,0.221705 0.28821,0.221705 h 1.84015 c 0.11086,0 0.2993,0 0.2993,-0.21062 0,-0.221705 -0.18844,-0.221705 -0.2993,-0.221705 h -0.77596 z m 0,0"
           id="id-f133c4c5-6f98-4611-b14c-b8954d4b2b0a" />
        <path
           style="fill:#ffffff;fill-opacity:1;stroke:none;stroke-width:0"
           d="m 109.29664,-38.52001 c 0.0111,0.221705 0.15519,0.221705 0.28821,0.221705 h 0.50993 c 0.12193,0 0.2993,0 0.2993,-0.221705 0,-0.21062 -0.18845,-0.21062 -0.28822,-0.21062 h -0.32147 v -2.327902 c 0,-0.221705 -0.0333,-0.288217 -0.27713,-0.288217 h -0.52101 c -0.11085,0 -0.28822,0 -0.28822,0.221705 0,0.21062 0.18845,0.21062 0.28822,0.21062 h 0.31039 v 1.507594 c 0,0.631859 -0.56535,0.720541 -0.79814,0.720541 -0.55426,0 -0.55426,-0.23279 -0.55426,-0.46558 v -1.906663 c 0,-0.221705 -0.0443,-0.288217 -0.28822,-0.288217 h -0.50992 c -0.11085,0 -0.28822,0 -0.28822,0.221705 0,0.21062 0.17737,0.21062 0.27713,0.21062 h 0.32148 v 1.806896 c 0,0.687285 0.48775,0.853564 0.99767,0.853564 0.2993,0 0.58752,-0.0776 0.84248,-0.266046 z m 0,0"
           id="id-9b512976-170e-41b9-bb4a-ad49a72844f3" />
        <path
           style="fill:#ffffff;fill-opacity:1;stroke:none;stroke-width:0"
           d="m 113.77198,-39.074272 c 0,-0.18845 -0.19954,-0.18845 -0.24388,-0.18845 -0.11085,0 -0.18845,0.01109 -0.23279,0.155194 -0.0443,0.08868 -0.17736,0.421239 -0.69837,0.421239 -0.5986,0 -1.10852,-0.498836 -1.10852,-1.14178 0,-0.332558 0.18845,-1.152866 1.15286,-1.152866 0.14411,0 0.42124,0 0.42124,0.06651 0.0111,0.243876 0.14411,0.343643 0.31039,0.343643 0.16628,0 0.32147,-0.121938 0.32147,-0.321472 0,-0.521007 -0.74271,-0.521007 -1.0531,-0.521007 -1.21937,0 -1.64061,0.964416 -1.64061,1.585191 0,0.853564 0.66511,1.574105 1.55193,1.574105 0.98659,0 1.21938,-0.698371 1.21938,-0.820307 z m 0,0"
           id="id-0eb72cf3-68fb-4a4f-8e61-58c83d5f9e94" />
        <path
           style="fill:#ffffff;fill-opacity:1;stroke:none;stroke-width:0"
           d="m 115.76493,-40.914424 h 1.15286 c 0.11085,0 0.28822,0 0.28822,-0.21062 0,-0.221705 -0.17737,-0.221705 -0.28822,-0.221705 h -1.15286 v -0.576433 c 0,-0.133023 0,-0.288216 -0.24388,-0.288216 -0.24388,0 -0.24388,0.144108 -0.24388,0.288216 v 0.576433 h -0.62077 c -0.11085,0 -0.28822,0 -0.28822,0.221705 0,0.21062 0.17737,0.21062 0.27714,0.21062 h 0.63185 v 1.729299 c 0,0.6762 0.47667,0.931161 0.99768,0.931161 0.521,0 1.08635,-0.310387 1.08635,-0.931161 0,-0.133023 0,-0.277131 -0.24387,-0.277131 -0.23279,0 -0.24388,0.144108 -0.24388,0.266046 0,0.44341 -0.41015,0.509921 -0.56535,0.509921 -0.54317,0 -0.54317,-0.365813 -0.54317,-0.543177 z m 0,0"
           id="id-116ff6c7-a3cf-4c21-b448-2bd91d595a42" />
        <path
           style="fill:#ffffff;fill-opacity:1;stroke:none;stroke-width:0"
           d="m 120.99406,-37.921406 c 0,-0.09977 -0.0554,-0.133023 -0.17736,-0.21062 -0.87573,-0.598604 -1.20829,-1.54085 -1.20829,-2.327903 0,-0.709456 0.27713,-1.696043 1.21938,-2.338987 0.11085,-0.0776 0.16627,-0.09977 0.16627,-0.21062 0,-0.05543 -0.0333,-0.199535 -0.2217,-0.199535 -0.19953,0 -1.6517,0.931161 -1.6517,2.749142 0,0.842479 0.33256,1.474339 0.57643,1.829067 0.3769,0.521006 0.90899,0.90899 1.07527,0.90899 0.18845,0 0.2217,-0.133023 0.2217,-0.199534 z m 0,0"
           id="id-bb7e0248-7229-404a-a46c-6c17afa5ccad" />
        <path
           style="fill:#ffffff;fill-opacity:1;stroke:none;stroke-width:0"
           d="m 124.10662,-40.459929 c 0,-0.842479 -0.33256,-1.485423 -0.57643,-1.829066 -0.3769,-0.521007 -0.90899,-0.920076 -1.07527,-0.920076 -0.17736,0 -0.22171,0.144109 -0.22171,0.199535 0,0.110852 0.0776,0.155193 0.11086,0.177364 1.16395,0.775967 1.2748,1.906663 1.2748,2.372243 0,0.709456 -0.26605,1.684958 -1.21938,2.327903 -0.11085,0.0776 -0.16628,0.110852 -0.16628,0.21062 0,0.06651 0.0443,0.199534 0.22171,0.199534 0.19953,0 1.6517,-0.931161 1.6517,-2.738057 z m 0,0"
           id="id-2e3af269-fea7-4bcb-bd53-99f37bd75b94" />
      </g>
      <g
         id="g2535"
         transform="translate(-26.653496,99.969008)"
         style="fill:#ffffff">
        <path
           style="fill:#ffffff;fill-opacity:1;stroke:none;stroke-width:0"
           d="m 152.4282,-42.189228 h 0.88682 c 0.5986,0 0.75379,0.44341 0.75379,0.676201 0,0.288216 -0.2217,0.753797 -0.90899,0.753797 h -0.73162 z m 1.36348,1.629532 c 0.4545,-0.155193 0.76488,-0.521007 0.76488,-0.964417 0,-0.521006 -0.43232,-1.097439 -1.21937,-1.097439 h -1.59628 c -0.0998,0 -0.27713,0 -0.27713,0.210619 0,0.221705 0.17736,0.221705 0.28822,0.221705 h 0.18844 v 3.458598 H 151.752 c -0.11086,0 -0.28822,0 -0.28822,0.221705 0,0.21062 0.17736,0.21062 0.27713,0.21062 h 1.74038 c 0.79814,0 1.23047,-0.631859 1.23047,-1.186122 0,-0.487751 -0.34365,-0.942246 -0.92008,-1.075269 z m -0.46558,1.829066 h -0.8979 v -1.596276 h 0.9755 c 0.5986,0 0.80922,0.509922 0.80922,0.831394 0,0.343643 -0.26605,0.764882 -0.88682,0.764882 z m 0,0"
           id="id-084eecdf-87b9-4701-8e1b-b031537e491e" />
        <path
           style="fill:#ffffff;fill-opacity:1;stroke:none;stroke-width:0"
           d="m 157.53611,-38.52001 c 0.0111,0.221705 0.15519,0.221705 0.28821,0.221705 h 0.50992 c 0.12194,0 0.29931,0 0.29931,-0.221705 0,-0.21062 -0.18845,-0.21062 -0.28822,-0.21062 h -0.32147 v -2.327902 c 0,-0.221705 -0.0333,-0.288217 -0.27713,-0.288217 h -0.52101 c -0.11085,0 -0.28822,0 -0.28822,0.221705 0,0.21062 0.18845,0.21062 0.28822,0.21062 h 0.31039 v 1.507594 c 0,0.631859 -0.56535,0.720541 -0.79814,0.720541 -0.55426,0 -0.55426,-0.23279 -0.55426,-0.46558 v -1.906663 c 0,-0.221705 -0.0443,-0.288217 -0.28822,-0.288217 h -0.50992 c -0.11085,0 -0.28822,0 -0.28822,0.221705 0,0.21062 0.17737,0.21062 0.27713,0.21062 h 0.32148 v 1.806896 c 0,0.687285 0.48775,0.853564 0.99767,0.853564 0.2993,0 0.58752,-0.0776 0.84248,-0.266046 z m 0,0"
           id="id-96688374-76ce-43ab-b1c2-27f92350b289" />
        <path
           style="fill:#ffffff;fill-opacity:1;stroke:none;stroke-width:0"
           d="m 160.90291,-41.058532 c 0,-0.221705 -0.0443,-0.288217 -0.27713,-0.288217 h -1.00875 c -0.11086,0 -0.28822,0 -0.28822,0.21062 0,0.221705 0.17736,0.221705 0.28822,0.221705 h 0.79813 v 2.183794 h -0.85356 c -0.11085,0 -0.28822,0 -0.28822,0.221705 0,0.21062 0.17737,0.21062 0.28822,0.21062 h 2.08403 c 0.11085,0 0.28821,0 0.28821,-0.21062 0,-0.221705 -0.17736,-0.221705 -0.28821,-0.221705 h -0.74272 z m 0,-1.219378 c 0,-0.188449 -0.15519,-0.343642 -0.35472,-0.343642 -0.19954,0 -0.35473,0.155193 -0.35473,0.343642 0,0.199535 0.15519,0.354728 0.35473,0.354728 0.19953,0 0.35472,-0.155193 0.35472,-0.354728 z m 0,0"
           id="id-641579dc-decd-40c2-867f-e9cc2cef997c" />
        <path
           style="fill:#ffffff;fill-opacity:1;stroke:none;stroke-width:0"
           d="m 164.52539,-42.333336 c 0,-0.21062 -0.0332,-0.288216 -0.27713,-0.288216 h -1.11961 c -0.11085,0 -0.28822,0 -0.28822,0.221705 0,0.210619 0.18845,0.210619 0.28822,0.210619 h 0.90899 v 3.458598 h -0.90899 c -0.11085,0 -0.28822,0 -0.28822,0.221705 0,0.21062 0.18845,0.21062 0.28822,0.21062 h 2.31682 c 0.11085,0 0.28821,0 0.28821,-0.21062 0,-0.221705 -0.16627,-0.221705 -0.28821,-0.221705 h -0.92008 z m 0,0"
           id="id-01b7cf23-4097-483e-a539-15bb0b24ab5d" />
        <path
           style="fill:#ffffff;fill-opacity:1;stroke:none;stroke-width:0"
           d="m 168.66818,-38.653033 c 0,0.254961 0,0.354728 0.28821,0.354728 h 0.50992 c 0.12194,0 0.29931,0 0.29931,-0.221705 0,-0.21062 -0.18845,-0.21062 -0.28822,-0.21062 h -0.32147 v -3.602706 c 0,-0.21062 -0.0333,-0.288216 -0.27713,-0.288216 h -0.52101 c -0.11085,0 -0.28822,0 -0.28822,0.221705 0,0.210619 0.18845,0.210619 0.28822,0.210619 h 0.31039 v 1.119611 c -0.23279,-0.21062 -0.52101,-0.321473 -0.82031,-0.321473 -0.77597,0 -1.45217,0.676201 -1.45217,1.574106 0,0.875735 0.63186,1.56302 1.38566,1.56302 0.39907,0 0.69837,-0.188449 0.88682,-0.399069 z m 0,-1.518679 v 0.498836 c 0,0.399069 -0.31039,0.986587 -0.85357,0.986587 -0.50992,0 -0.93116,-0.498836 -0.93116,-1.130695 0,-0.6762 0.49884,-1.141781 0.98659,-1.141781 0.45449,0 0.79814,0.399069 0.79814,0.787053 z m 0,0"
           id="id-f4f4ad34-a923-4d77-9935-582ebe36b617" />
        <path
           style="fill:#ffffff;fill-opacity:1;stroke:none;stroke-width:0"
           d="m 172.85529,-39.650705 c 0.14411,0 0.27713,0 0.27713,-0.254961 0,-0.809223 -0.45449,-1.507594 -1.37457,-1.507594 -0.84248,0 -1.51868,0.709456 -1.51868,1.585191 0,0.853564 0.72054,1.574105 1.62954,1.574105 0.93116,0 1.26371,-0.642945 1.26371,-0.820308 0,-0.18845 -0.19953,-0.18845 -0.24387,-0.18845 -0.13302,0 -0.18845,0.02217 -0.23279,0.155194 -0.1552,0.354728 -0.54318,0.421239 -0.74271,0.421239 -0.5321,0 -1.0531,-0.354728 -1.17504,-0.964416 z m -2.10619,-0.42124 c 0.0998,-0.521007 0.521,-0.90899 1.00875,-0.90899 0.36582,0 0.80923,0.177364 0.87574,0.90899 z m 0,0"
           id="id-57c38021-b1af-4113-a502-528ddec3a930" />
        <path
           style="fill:#ffffff;fill-opacity:1;stroke:none;stroke-width:0"
           d="m 175.13647,-39.61745 c 0,-0.665115 0.41015,-1.341315 1.26371,-1.341315 0.0111,0.166279 0.13303,0.310387 0.31039,0.310387 0.15519,0 0.2993,-0.110852 0.2993,-0.299302 0,-0.144108 -0.0887,-0.44341 -0.6762,-0.44341 -0.35473,0 -0.80922,0.133023 -1.1972,0.576433 v -0.243875 c 0,-0.221705 -0.0444,-0.288217 -0.28822,-0.288217 h -0.77597 c -0.11085,0 -0.28822,0 -0.28822,0.21062 0,0.221705 0.17737,0.221705 0.28822,0.221705 h 0.57643 v 2.183794 h -0.57643 c -0.11085,0 -0.28822,0 -0.28822,0.21062 0,0.221705 0.17737,0.221705 0.28822,0.221705 h 1.84015 c 0.11086,0 0.2993,0 0.2993,-0.21062 0,-0.221705 -0.18844,-0.221705 -0.2993,-0.221705 h -0.77596 z m 0,0"
           id="id-07184179-6d84-4240-8f56-ef19e8a0cf3c" />
      </g>
      <rect
         style="font-variation-settings:normal;opacity:1;fill:#ff4141;fill-opacity:1;fill-rule:evenodd;stroke:#ff9900;stroke-width:0.79375;stroke-linecap:butt;stroke-linejoin:miter;stroke-miterlimit:4;stroke-dasharray:none;stroke-dashoffset:0;stroke-opacity:1;stop-color:#000000;stop-opacity:1"
         id="rect2437"
         width="47.625004"
         height="7.9374976"
         x="113.77081"
         y="66.145836"
         ry="0.13229166" />
      <g
         id="g2548"
         transform="translate(-59.573411,110.58006)"
         style="fill:#ffffff">
        <path
           style="fill:#ffffff;fill-opacity:1;stroke:none;stroke-width:0"
           d="m 178.40351,-42.189228 h 0.88682 c 0.5986,0 0.75379,0.44341 0.75379,0.676201 0,0.288216 -0.2217,0.753797 -0.90899,0.753797 h -0.73162 z m 1.36348,1.629532 c 0.4545,-0.155193 0.76488,-0.521007 0.76488,-0.964417 0,-0.521006 -0.43232,-1.097439 -1.21937,-1.097439 h -1.59628 c -0.0998,0 -0.27713,0 -0.27713,0.210619 0,0.221705 0.17736,0.221705 0.28822,0.221705 h 0.18844 v 3.458598 h -0.18844 c -0.11086,0 -0.28822,0 -0.28822,0.221705 0,0.21062 0.17736,0.21062 0.27713,0.21062 h 1.74038 c 0.79814,0 1.23047,-0.631859 1.23047,-1.186122 0,-0.487751 -0.34365,-0.942246 -0.92008,-1.075269 z m -0.46558,1.829066 h -0.8979 v -1.596276 h 0.9755 c 0.5986,0 0.80922,0.509922 0.80922,0.831394 0,0.343643 -0.26605,0.764882 -0.88682,0.764882 z m 0,0"
           id="id-27e57b22-21e6-4bd7-8f90-44617242ee7b" />
        <path
           style="fill:#ffffff;fill-opacity:1;stroke:none;stroke-width:0"
           d="m 183.51071,-38.52001 c 0.0111,0.221705 0.15519,0.221705 0.28821,0.221705 h 0.50992 c 0.12194,0 0.29931,0 0.29931,-0.221705 0,-0.21062 -0.18845,-0.21062 -0.28822,-0.21062 h -0.32147 v -2.327902 c 0,-0.221705 -0.0333,-0.288217 -0.27713,-0.288217 h -0.52101 c -0.11085,0 -0.28822,0 -0.28822,0.221705 0,0.21062 0.18845,0.21062 0.28822,0.21062 h 0.31039 v 1.507594 c 0,0.631859 -0.56535,0.720541 -0.79814,0.720541 -0.55426,0 -0.55426,-0.23279 -0.55426,-0.46558 v -1.906663 c 0,-0.221705 -0.0443,-0.288217 -0.28822,-0.288217 h -0.50992 c -0.11085,0 -0.28822,0 -0.28822,0.221705 0,0.21062 0.17737,0.21062 0.27713,0.21062 h 0.32148 v 1.806896 c 0,0.687285 0.48775,0.853564 0.99767,0.853564 0.2993,0 0.58752,-0.0776 0.84248,-0.266046 z m 0,0"
           id="id-0e973ddd-a850-4082-92ed-ef967758ca07" />
        <path
           style="fill:#ffffff;fill-opacity:1;stroke:none;stroke-width:0"
           d="m 186.87822,-41.058532 c 0,-0.221705 -0.0443,-0.288217 -0.27713,-0.288217 h -1.00875 c -0.11086,0 -0.28822,0 -0.28822,0.21062 0,0.221705 0.17736,0.221705 0.28822,0.221705 h 0.79813 v 2.183794 h -0.85356 c -0.11085,0 -0.28822,0 -0.28822,0.221705 0,0.21062 0.17737,0.21062 0.28822,0.21062 h 2.08403 c 0.11085,0 0.28821,0 0.28821,-0.21062 0,-0.221705 -0.17736,-0.221705 -0.28821,-0.221705 h -0.74272 z m 0,-1.219378 c 0,-0.188449 -0.15519,-0.343642 -0.35472,-0.343642 -0.19954,0 -0.35473,0.155193 -0.35473,0.343642 0,0.199535 0.15519,0.354728 0.35473,0.354728 0.19953,0 0.35472,-0.155193 0.35472,-0.354728 z m 0,0"
           id="id-3a1cf25d-2c08-465c-a913-ce14e6fa0959" />
        <path
           style="fill:#ffffff;fill-opacity:1;stroke:none;stroke-width:0"
           d="m 190.5,-42.333336 c 0,-0.21062 -0.0333,-0.288216 -0.27713,-0.288216 h -1.11961 c -0.11085,0 -0.28822,0 -0.28822,0.221705 0,0.210619 0.18845,0.210619 0.28822,0.210619 h 0.90899 v 3.458598 h -0.90899 c -0.11085,0 -0.28822,0 -0.28822,0.221705 0,0.21062 0.18845,0.21062 0.28822,0.21062 h 2.31682 c 0.11085,0 0.28821,0 0.28821,-0.21062 0,-0.221705 -0.16627,-0.221705 -0.28821,-0.221705 H 190.5 Z m 0,0"
           id="id-68f90924-85d0-4662-8c27-551280c69425" />
        <path
           style="fill:#ffffff;fill-opacity:1;stroke:none;stroke-width:0"
           d="m 194.64278,-38.653033 c 0,0.254961 0,0.354728 0.28821,0.354728 h 0.50992 c 0.12194,0 0.29931,0 0.29931,-0.221705 0,-0.21062 -0.18845,-0.21062 -0.28822,-0.21062 h -0.32147 v -3.602706 c 0,-0.21062 -0.0333,-0.288216 -0.27713,-0.288216 h -0.52101 c -0.11085,0 -0.28822,0 -0.28822,0.221705 0,0.210619 0.18845,0.210619 0.28822,0.210619 h 0.31039 v 1.119611 c -0.23279,-0.21062 -0.52101,-0.321473 -0.82031,-0.321473 -0.77597,0 -1.45217,0.676201 -1.45217,1.574106 0,0.875735 0.63186,1.56302 1.38566,1.56302 0.39907,0 0.69837,-0.188449 0.88682,-0.399069 z m 0,-1.518679 v 0.498836 c 0,0.399069 -0.31039,0.986587 -0.85357,0.986587 -0.50992,0 -0.93116,-0.498836 -0.93116,-1.130695 0,-0.6762 0.49884,-1.141781 0.98659,-1.141781 0.45449,0 0.79814,0.399069 0.79814,0.787053 z m 0,0"
           id="id-44ca5c2d-ee6b-4a38-b1dc-0dea8063cb55" />
        <path
           style="fill:#ffffff;fill-opacity:1;stroke:none;stroke-width:0"
           d="m 197.00155,-40.027604 h 0.88682 c 0.8203,0 1.33023,-0.642944 1.33023,-1.296974 0,-0.65403 -0.52101,-1.296974 -1.33023,-1.296974 h -1.58519 c -0.11086,0 -0.28822,0 -0.28822,0.210619 0,0.221705 0.17736,0.221705 0.28822,0.221705 h 0.21062 v 3.458598 h -0.21062 c -0.11086,0 -0.28822,0 -0.28822,0.221705 0,0.21062 0.17736,0.21062 0.28822,0.21062 h 0.90899 c 0.11085,0 0.28821,0 0.28821,-0.21062 0,-0.221705 -0.17736,-0.221705 -0.28821,-0.221705 h -0.21062 z m 0,-2.161624 h 0.75379 c 0.6762,0 0.97551,0.487751 0.97551,0.86465 0,0.376898 -0.29931,0.864649 -0.97551,0.864649 h -0.75379 z m 0,0"
           id="id-51d1dbac-68cc-4b52-9d5f-dec4b019a1b4" />
        <path
           style="fill:#ffffff;fill-opacity:1;stroke:none;stroke-width:0"
           d="m 202.13091,-38.52001 c 0.15519,0.21062 0.48775,0.221705 0.7538,0.221705 0.19953,0 0.35472,0 0.35472,-0.221705 0,-0.21062 -0.17736,-0.21062 -0.27713,-0.21062 -0.2993,0 -0.36581,-0.03326 -0.42124,-0.05543 v -1.529764 c 0,-0.498837 -0.38798,-1.09744 -1.40782,-1.09744 -0.29931,0 -1.01985,0 -1.01985,0.521007 0,0.210619 0.14411,0.321472 0.31039,0.321472 0.11085,0 0.31039,-0.06651 0.31039,-0.321472 0,-0.05543 0.0111,-0.06651 0.15519,-0.0776 0.0998,-0.01109 0.18845,-0.01109 0.25496,-0.01109 0.53209,0 0.89791,0.221705 0.89791,0.720541 -1.24155,0.02217 -2.11729,0.376898 -2.11729,1.053099 0,0.487751 0.44341,0.953331 1.16395,0.953331 0.26605,0 0.70946,-0.05543 1.04202,-0.266046 z m -0.0887,-1.319145 v 0.598604 c 0,0.155193 0,0.310387 -0.26605,0.432325 -0.25496,0.121937 -0.57643,0.121937 -0.63186,0.121937 -0.44341,0 -0.73163,-0.243875 -0.73163,-0.521006 0,-0.343643 0.60969,-0.609689 1.62954,-0.63186 z m 0,0"
           id="id-f5b407fb-6cac-4c21-8f06-891ad1e51c56" />
        <path
           style="fill:#ffffff;fill-opacity:1;stroke:none;stroke-width:0"
           d="m 204.82224,-39.61745 c 0,-0.665115 0.41015,-1.341315 1.26371,-1.341315 0.0111,0.166279 0.13303,0.310387 0.31039,0.310387 0.15519,0 0.2993,-0.110852 0.2993,-0.299302 0,-0.144108 -0.0887,-0.44341 -0.6762,-0.44341 -0.35473,0 -0.80922,0.133023 -1.1972,0.576433 v -0.243875 c 0,-0.221705 -0.0443,-0.288217 -0.28822,-0.288217 h -0.77597 c -0.11085,0 -0.28822,0 -0.28822,0.21062 0,0.221705 0.17737,0.221705 0.28822,0.221705 h 0.57643 v 2.183794 h -0.57643 c -0.11085,0 -0.28822,0 -0.28822,0.21062 0,0.221705 0.17737,0.221705 0.28822,0.221705 h 1.84015 c 0.11086,0 0.2993,0 0.2993,-0.21062 0,-0.221705 -0.18844,-0.221705 -0.2993,-0.221705 h -0.77596 z m 0,0"
           id="id-160a7d2d-efeb-4515-ad7f-a6e625486758" />
        <path
           style="fill:#ffffff;fill-opacity:1;stroke:none;stroke-width:0"
           d="m 208.53269,-40.914424 h 1.15286 c 0.11085,0 0.28822,0 0.28822,-0.21062 0,-0.221705 -0.17737,-0.221705 -0.28822,-0.221705 h -1.15286 v -0.576433 c 0,-0.133023 0,-0.288216 -0.24388,-0.288216 -0.24388,0 -0.24388,0.144108 -0.24388,0.288216 v 0.576433 h -0.62077 c -0.11085,0 -0.28822,0 -0.28822,0.221705 0,0.21062 0.17737,0.21062 0.27714,0.21062 h 0.63185 v 1.729299 c 0,0.6762 0.47667,0.931161 0.99768,0.931161 0.521,0 1.08635,-0.310387 1.08635,-0.931161 0,-0.133023 0,-0.277131 -0.24387,-0.277131 -0.23279,0 -0.24388,0.144108 -0.24388,0.266046 0,0.44341 -0.41015,0.509921 -0.56535,0.509921 -0.54317,0 -0.54317,-0.365813 -0.54317,-0.543177 z m 0,0"
           id="id-dc352636-770c-4cc5-b270-d09b10956426" />
        <path
           style="fill:#ffffff;fill-opacity:1;stroke:none;stroke-width:0"
           d="m 213.76182,-37.921406 c 0,-0.09977 -0.0554,-0.133023 -0.17736,-0.21062 -0.87573,-0.598604 -1.20829,-1.54085 -1.20829,-2.327903 0,-0.709456 0.27713,-1.696043 1.21938,-2.338987 0.11085,-0.0776 0.16627,-0.09977 0.16627,-0.21062 0,-0.05543 -0.0333,-0.199535 -0.2217,-0.199535 -0.19953,0 -1.6517,0.931161 -1.6517,2.749142 0,0.842479 0.33255,1.474339 0.57643,1.829067 0.3769,0.521006 0.90899,0.90899 1.07527,0.90899 0.18845,0 0.2217,-0.133023 0.2217,-0.199534 z m 0,0"
           id="id-fc82f2e9-db14-4297-a992-80ab6c15e7ef" />
        <path
           style="fill:#ffffff;fill-opacity:1;stroke:none;stroke-width:0"
           d="m 216.87438,-40.459929 c 0,-0.842479 -0.33256,-1.485423 -0.57643,-1.829066 -0.3769,-0.521007 -0.90899,-0.920076 -1.07527,-0.920076 -0.17737,0 -0.22171,0.144109 -0.22171,0.199535 0,0.110852 0.0776,0.155193 0.11086,0.177364 1.16395,0.775967 1.2748,1.906663 1.2748,2.372243 0,0.709456 -0.26605,1.684958 -1.21938,2.327903 -0.11085,0.0776 -0.16628,0.110852 -0.16628,0.21062 0,0.06651 0.0443,0.199534 0.22171,0.199534 0.19953,0 1.6517,-0.931161 1.6517,-2.738057 z m 0,0"
           id="id-e8127711-155a-4ebc-8dc0-4b6cd80fa661" />
      </g>
      <g
         id="g2933"
         transform="matrix(0.90728953,0,0,0.90728953,-85.550309,138.57332)"
         style="fill:#ffffff">
        <path
           style="fill:#ffffff;fill-opacity:1;stroke:none;stroke-width:0"
           d="m 221.516,-42.410933 c 0,-0.110852 0,-0.288216 -0.21062,-0.288216 -0.13302,0 -0.16628,0.0776 -0.19953,0.121938 -0.0111,0.03325 -0.0111,0.04434 -0.11085,0.221705 -0.23279,-0.199535 -0.55427,-0.343643 -0.92008,-0.343643 -0.90899,0 -1.69604,0.953331 -1.69604,2.23922 0,1.296975 0.78705,2.239221 1.70712,2.239221 0.82031,0 1.43,-0.631859 1.43,-1.263719 0,-0.23279 -0.17736,-0.23279 -0.25496,-0.23279 -0.0554,0 -0.2217,0 -0.23279,0.199535 -0.0554,0.69837 -0.62077,0.864649 -0.92007,0.864649 -0.64295,0 -1.24155,-0.753797 -1.24155,-1.806896 0,-1.053098 0.60969,-1.806895 1.24155,-1.806895 0.42123,0 0.80922,0.321472 0.90899,0.897905 0.0222,0.121938 0.0333,0.23279 0.24387,0.23279 0.25496,0 0.25496,-0.144108 0.25496,-0.288216 z m 0,0"
           id="id-3a4a63fa-e356-4aa5-abd1-9ddee7461b0a" />
        <path
           style="fill:#ffffff;fill-opacity:1;stroke:none;stroke-width:0"
           d="m 225.10451,-39.828069 c 0,-0.88682 -0.65403,-1.585191 -1.45216,-1.585191 -0.78706,0 -1.45217,0.698371 -1.45217,1.585191 0,0.897905 0.6762,1.574105 1.45217,1.574105 0.77596,0 1.45216,-0.6762 1.45216,-1.574105 z m -1.45216,1.14178 c -0.52101,0 -0.96442,-0.532092 -0.96442,-1.186121 0,-0.642945 0.46558,-1.108525 0.96442,-1.108525 0.50992,0 0.96441,0.46558 0.96441,1.108525 0,0.654029 -0.44341,1.186121 -0.96441,1.186121 z m 0,0"
           id="id-dbacbd49-a18a-4d80-97b4-ce5d9ce347f4" />
        <path
           style="fill:#ffffff;fill-opacity:1;stroke:none;stroke-width:0"
           d="m 226.68731,-41.014191 c 0,-0.221705 0,-0.332558 -0.28822,-0.332558 h -0.50992 c -0.11085,0 -0.28822,0 -0.28822,0.221705 0,0.21062 0.17737,0.21062 0.27713,0.21062 h 0.32148 v 2.183794 h -0.31039 c -0.11085,0 -0.28822,0 -0.28822,0.221705 0,0.21062 0.17737,0.21062 0.27713,0.21062 h 1.1307 c 0.0998,0 0.27713,0 0.27713,-0.21062 0,-0.221705 -0.17736,-0.221705 -0.28822,-0.221705 h -0.31038 v -1.252633 c 0,-0.709456 0.521,-0.975502 0.88682,-0.975502 0.36581,0 0.46558,0.199535 0.46558,0.620774 v 1.607361 h -0.26605 c -0.12194,0 -0.2993,0 -0.2993,0.221705 0,0.21062 0.19953,0.21062 0.2993,0.21062 h 1.07527 c 0.0998,0 0.28822,0 0.28822,-0.21062 0,-0.221705 -0.17737,-0.221705 -0.29931,-0.221705 h -0.31038 v -1.640617 c 0,-0.709456 -0.35473,-1.019843 -0.92008,-1.019843 -0.46558,0 -0.78705,0.243876 -0.92007,0.376899 z m 0,0"
           id="id-8a74e960-2b83-4bda-97d4-313b3e52c895" />
        <path
           style="fill:#ffffff;fill-opacity:1;stroke:none;stroke-width:0"
           d="m 232.51505,-39.074272 c 0,-0.18845 -0.19954,-0.18845 -0.24388,-0.18845 -0.11085,0 -0.18845,0.01109 -0.23279,0.155194 -0.0443,0.08868 -0.17736,0.421239 -0.69837,0.421239 -0.5986,0 -1.10852,-0.498836 -1.10852,-1.14178 0,-0.332558 0.18845,-1.152866 1.15286,-1.152866 0.14411,0 0.42124,0 0.42124,0.06651 0.0111,0.243876 0.14411,0.343643 0.31039,0.343643 0.16628,0 0.32147,-0.121938 0.32147,-0.321472 0,-0.521007 -0.74271,-0.521007 -1.0531,-0.521007 -1.21937,0 -1.64061,0.964416 -1.64061,1.585191 0,0.853564 0.66511,1.574105 1.55193,1.574105 0.98659,0 1.21938,-0.698371 1.21938,-0.820307 z m 0,0"
           id="id-814efe7f-0297-454c-aa00-400adc2a6dcc" />
        <path
           style="fill:#ffffff;fill-opacity:1;stroke:none;stroke-width:0"
           d="m 234.508,-39.61745 c 0,-0.665115 0.41015,-1.341315 1.26371,-1.341315 0.0111,0.166279 0.13303,0.310387 0.31039,0.310387 0.15519,0 0.2993,-0.110852 0.2993,-0.299302 0,-0.144108 -0.0887,-0.44341 -0.6762,-0.44341 -0.35473,0 -0.80922,0.133023 -1.1972,0.576433 v -0.243875 c 0,-0.221705 -0.0444,-0.288217 -0.28822,-0.288217 h -0.77597 c -0.11085,0 -0.28822,0 -0.28822,0.21062 0,0.221705 0.17737,0.221705 0.28822,0.221705 h 0.57643 v 2.183794 h -0.57643 c -0.11085,0 -0.28822,0 -0.28822,0.21062 0,0.221705 0.17737,0.221705 0.28822,0.221705 h 1.84015 c 0.11086,0 0.2993,0 0.2993,-0.21062 0,-0.221705 -0.18844,-0.221705 -0.2993,-0.221705 H 234.508 Z m 0,0"
           id="id-b13153f0-6011-4db3-b4de-aab2be043efb" />
        <path
           style="fill:#ffffff;fill-opacity:1;stroke:none;stroke-width:0"
           d="m 239.64845,-39.650705 c 0.14411,0 0.27713,0 0.27713,-0.254961 0,-0.809223 -0.45449,-1.507594 -1.37457,-1.507594 -0.84248,0 -1.51868,0.709456 -1.51868,1.585191 0,0.853564 0.72054,1.574105 1.62954,1.574105 0.93116,0 1.26371,-0.642945 1.26371,-0.820308 0,-0.18845 -0.19953,-0.18845 -0.24387,-0.18845 -0.13302,0 -0.18845,0.02217 -0.23279,0.155194 -0.1552,0.354728 -0.54318,0.421239 -0.74271,0.421239 -0.5321,0 -1.0531,-0.354728 -1.17504,-0.964416 z m -2.10619,-0.42124 c 0.0998,-0.521007 0.521,-0.90899 1.00875,-0.90899 0.36582,0 0.80923,0.177364 0.87574,0.90899 z m 0,0"
           id="id-61545a5b-b808-4c1d-b30d-147947b5fc4b" />
        <path
           style="fill:#ffffff;fill-opacity:1;stroke:none;stroke-width:0"
           d="m 241.92891,-40.914424 h 1.15286 c 0.11085,0 0.28822,0 0.28822,-0.21062 0,-0.221705 -0.17737,-0.221705 -0.28822,-0.221705 h -1.15286 v -0.576433 c 0,-0.133023 0,-0.288216 -0.24388,-0.288216 -0.24388,0 -0.24388,0.144108 -0.24388,0.288216 v 0.576433 h -0.62077 c -0.11085,0 -0.28822,0 -0.28822,0.221705 0,0.21062 0.17737,0.21062 0.27714,0.21062 h 0.63185 v 1.729299 c 0,0.6762 0.47667,0.931161 0.99768,0.931161 0.521,0 1.08635,-0.310387 1.08635,-0.931161 0,-0.133023 0,-0.277131 -0.24387,-0.277131 -0.23279,0 -0.24388,0.144108 -0.24388,0.266046 0,0.44341 -0.41015,0.509921 -0.56535,0.509921 -0.54317,0 -0.54317,-0.365813 -0.54317,-0.543177 z m 0,0"
           id="id-314b4787-2e8a-41dd-85bf-569f6443fb91" />
        <path
           style="fill:#ffffff;fill-opacity:1;stroke:none;stroke-width:0"
           d="m 247.07007,-39.650705 c 0.14411,0 0.27713,0 0.27713,-0.254961 0,-0.809223 -0.45449,-1.507594 -1.37457,-1.507594 -0.84248,0 -1.51868,0.709456 -1.51868,1.585191 0,0.853564 0.72054,1.574105 1.62954,1.574105 0.93116,0 1.26371,-0.642945 1.26371,-0.820308 0,-0.18845 -0.19953,-0.18845 -0.24387,-0.18845 -0.13302,0 -0.18845,0.02217 -0.23279,0.155194 -0.1552,0.354728 -0.54318,0.421239 -0.74271,0.421239 -0.5321,0 -1.0531,-0.354728 -1.17504,-0.964416 z m -2.10619,-0.42124 c 0.0998,-0.521007 0.521,-0.90899 1.00875,-0.90899 0.36582,0 0.80923,0.177364 0.87574,0.90899 z m 0,0"
           id="id-45a91bd0-372b-44d7-bdd5-3106cab5c806" />
        <path
           style="fill:#ffffff;fill-opacity:1;stroke:none;stroke-width:0"
           d="m 248.90712,-42.189228 h 0.88682 c 0.5986,0 0.75379,0.44341 0.75379,0.676201 0,0.288216 -0.2217,0.753797 -0.90899,0.753797 h -0.73162 z m 1.36348,1.629532 c 0.4545,-0.155193 0.76488,-0.521007 0.76488,-0.964417 0,-0.521006 -0.43232,-1.097439 -1.21937,-1.097439 h -1.59628 c -0.0998,0 -0.27713,0 -0.27713,0.210619 0,0.221705 0.17736,0.221705 0.28822,0.221705 h 0.18844 v 3.458598 h -0.18844 c -0.11086,0 -0.28822,0 -0.28822,0.221705 0,0.21062 0.17736,0.21062 0.27713,0.21062 h 1.74038 c 0.79814,0 1.23047,-0.631859 1.23047,-1.186122 0,-0.487751 -0.34365,-0.942246 -0.92008,-1.075269 z m -0.46558,1.829066 h -0.8979 v -1.596276 h 0.9755 c 0.5986,0 0.80922,0.509922 0.80922,0.831394 0,0.343643 -0.26605,0.764882 -0.88682,0.764882 z m 0,0"
           id="id-8c6563c5-eb6c-4ba9-b2a9-d551d16c7a35" />
        <path
           style="fill:#ffffff;fill-opacity:1;stroke:none;stroke-width:0"
           d="m 254.01432,-38.52001 c 0.0111,0.221705 0.15519,0.221705 0.28821,0.221705 h 0.50992 c 0.12194,0 0.29931,0 0.29931,-0.221705 0,-0.21062 -0.18845,-0.21062 -0.28822,-0.21062 h -0.32147 v -2.327902 c 0,-0.221705 -0.0333,-0.288217 -0.27713,-0.288217 h -0.52101 c -0.11085,0 -0.28822,0 -0.28822,0.221705 0,0.21062 0.18845,0.21062 0.28822,0.21062 h 0.31039 v 1.507594 c 0,0.631859 -0.56535,0.720541 -0.79814,0.720541 -0.55426,0 -0.55426,-0.23279 -0.55426,-0.46558 v -1.906663 c 0,-0.221705 -0.0443,-0.288217 -0.28822,-0.288217 h -0.50992 c -0.11085,0 -0.28822,0 -0.28822,0.221705 0,0.21062 0.17737,0.21062 0.27713,0.21062 h 0.32148 v 1.806896 c 0,0.687285 0.48775,0.853564 0.99767,0.853564 0.2993,0 0.58752,-0.0776 0.84248,-0.266046 z m 0,0"
           id="id-f962a3b1-2abe-4442-a295-315f86152790" />
        <path
           style="fill:#ffffff;fill-opacity:1;stroke:none;stroke-width:0"
           d="m 257.38183,-41.058532 c 0,-0.221705 -0.0443,-0.288217 -0.27713,-0.288217 h -1.00875 c -0.11086,0 -0.28822,0 -0.28822,0.21062 0,0.221705 0.17736,0.221705 0.28822,0.221705 h 0.79813 v 2.183794 h -0.85356 c -0.11085,0 -0.28822,0 -0.28822,0.221705 0,0.21062 0.17737,0.21062 0.28822,0.21062 h 2.08403 c 0.11085,0 0.28821,0 0.28821,-0.21062 0,-0.221705 -0.17736,-0.221705 -0.28821,-0.221705 h -0.74272 z m 0,-1.219378 c 0,-0.188449 -0.15519,-0.343642 -0.35472,-0.343642 -0.19954,0 -0.35473,0.155193 -0.35473,0.343642 0,0.199535 0.15519,0.354728 0.35473,0.354728 0.19953,0 0.35472,-0.155193 0.35472,-0.354728 z m 0,0"
           id="id-47109664-394d-45d9-89be-fe5292400ef5" />
        <path
           style="fill:#ffffff;fill-opacity:1;stroke:none;stroke-width:0"
           d="m 261.00361,-42.333336 c 0,-0.21062 -0.0332,-0.288216 -0.27713,-0.288216 h -1.11961 c -0.11085,0 -0.28822,0 -0.28822,0.221705 0,0.210619 0.18845,0.210619 0.28822,0.210619 h 0.90899 v 3.458598 h -0.90899 c -0.11085,0 -0.28822,0 -0.28822,0.221705 0,0.21062 0.18845,0.21062 0.28822,0.21062 h 2.31682 c 0.11085,0 0.28821,0 0.28821,-0.21062 0,-0.221705 -0.16627,-0.221705 -0.28821,-0.221705 h -0.92008 z m 0,0"
           id="id-f2d1af99-0631-436a-a3ca-e67f27c8635c" />
        <path
           style="fill:#ffffff;fill-opacity:1;stroke:none;stroke-width:0"
           d="m 265.14639,-38.653033 c 0,0.254961 0,0.354728 0.28821,0.354728 h 0.50992 c 0.12194,0 0.29931,0 0.29931,-0.221705 0,-0.21062 -0.18845,-0.21062 -0.28822,-0.21062 h -0.32147 v -3.602706 c 0,-0.21062 -0.0333,-0.288216 -0.27713,-0.288216 H 264.836 c -0.11085,0 -0.28822,0 -0.28822,0.221705 0,0.210619 0.18845,0.210619 0.28822,0.210619 h 0.31039 v 1.119611 c -0.23279,-0.21062 -0.52101,-0.321473 -0.82031,-0.321473 -0.77597,0 -1.45217,0.676201 -1.45217,1.574106 0,0.875735 0.63186,1.56302 1.38566,1.56302 0.39907,0 0.69837,-0.188449 0.88682,-0.399069 z m 0,-1.518679 v 0.498836 c 0,0.399069 -0.31039,0.986587 -0.85357,0.986587 -0.50992,0 -0.93116,-0.498836 -0.93116,-1.130695 0,-0.6762 0.49884,-1.141781 0.98659,-1.141781 0.45449,0 0.79814,0.399069 0.79814,0.787053 z m 0,0"
           id="id-ecae4852-71d2-4d10-8056-b4c3626161c1" />
        <path
           style="fill:#ffffff;fill-opacity:1;stroke:none;stroke-width:0"
           d="m 269.33422,-39.650705 c 0.14411,0 0.27713,0 0.27713,-0.254961 0,-0.809223 -0.45449,-1.507594 -1.37457,-1.507594 -0.84248,0 -1.51868,0.709456 -1.51868,1.585191 0,0.853564 0.72054,1.574105 1.62954,1.574105 0.93116,0 1.26371,-0.642945 1.26371,-0.820308 0,-0.18845 -0.19953,-0.18845 -0.24387,-0.18845 -0.13302,0 -0.18845,0.02217 -0.23279,0.155194 -0.1552,0.354728 -0.54318,0.421239 -0.74271,0.421239 -0.5321,0 -1.0531,-0.354728 -1.17504,-0.964416 z m -2.10619,-0.42124 c 0.0998,-0.521007 0.521,-0.90899 1.00875,-0.90899 0.36582,0 0.80923,0.177364 0.87574,0.90899 z m 0,0"
           id="id-db486ff8-2115-4150-a392-9f78e777c1f7" />
        <path
           style="fill:#ffffff;fill-opacity:1;stroke:none;stroke-width:0"
           d="m 271.61468,-39.61745 c 0,-0.665115 0.41015,-1.341315 1.26371,-1.341315 0.0111,0.166279 0.13303,0.310387 0.31039,0.310387 0.15519,0 0.2993,-0.110852 0.2993,-0.299302 0,-0.144108 -0.0887,-0.44341 -0.6762,-0.44341 -0.35473,0 -0.80922,0.133023 -1.1972,0.576433 v -0.243875 c 0,-0.221705 -0.0444,-0.288217 -0.28822,-0.288217 h -0.77597 c -0.11085,0 -0.28822,0 -0.28822,0.21062 0,0.221705 0.17737,0.221705 0.28822,0.221705 h 0.57643 v 2.183794 h -0.57643 c -0.11085,0 -0.28822,0 -0.28822,0.21062 0,0.221705 0.17737,0.221705 0.28822,0.221705 h 1.84015 c 0.11086,0 0.2993,0 0.2993,-0.21062 0,-0.221705 -0.18844,-0.221705 -0.2993,-0.221705 h -0.77596 z m 0,0"
           id="id-740886b1-283b-4829-a131-2ba9d2c1a64a" />
      </g>
      <rect
         style="font-variation-settings:normal;opacity:1;fill:#ff4141;fill-opacity:1;fill-rule:evenodd;stroke:#ff9900;stroke-width:0.79375;stroke-linecap:butt;stroke-linejoin:miter;stroke-miterlimit:4;stroke-dasharray:none;stroke-dashoffset:0;stroke-opacity:1;stop-color:#000000;stop-opacity:1"
         id="rect2754"
         width="47.625004"
         height="7.9374976"
         x="113.77081"
         y="108.47914"
         ry="0.13229166" />
      <g
         id="g3203"
         transform="translate(-163.47323,152.91336)"
         style="fill:#ffffff">
        <path
           style="fill:#ffffff;fill-opacity:1;stroke:none;stroke-width:0"
           d="m 282.30334,-42.189228 h 0.88682 c 0.5986,0 0.75379,0.44341 0.75379,0.676201 0,0.288216 -0.2217,0.753797 -0.90899,0.753797 h -0.73162 z m 1.36348,1.629532 c 0.4545,-0.155193 0.76488,-0.521007 0.76488,-0.964417 0,-0.521006 -0.43232,-1.097439 -1.21937,-1.097439 h -1.59628 c -0.0998,0 -0.27713,0 -0.27713,0.210619 0,0.221705 0.17736,0.221705 0.28822,0.221705 h 0.18844 v 3.458598 h -0.18844 c -0.11086,0 -0.28822,0 -0.28822,0.221705 0,0.21062 0.17736,0.21062 0.27713,0.21062 h 1.74038 c 0.79814,0 1.23047,-0.631859 1.23047,-1.186122 0,-0.487751 -0.34365,-0.942246 -0.92008,-1.075269 z m -0.46558,1.829066 h -0.8979 v -1.596276 h 0.9755 c 0.5986,0 0.80922,0.509922 0.80922,0.831394 0,0.343643 -0.26605,0.764882 -0.88682,0.764882 z m 0,0"
           id="id-16197b8a-fb84-4215-9596-83d32f39e7fe" />
        <path
           style="fill:#ffffff;fill-opacity:1;stroke:none;stroke-width:0"
           d="m 287.41125,-38.52001 c 0.0111,0.221705 0.15519,0.221705 0.28821,0.221705 h 0.50992 c 0.12194,0 0.29931,0 0.29931,-0.221705 0,-0.21062 -0.18845,-0.21062 -0.28822,-0.21062 H 287.899 v -2.327902 c 0,-0.221705 -0.0333,-0.288217 -0.27713,-0.288217 h -0.52101 c -0.11085,0 -0.28822,0 -0.28822,0.221705 0,0.21062 0.18845,0.21062 0.28822,0.21062 h 0.31039 v 1.507594 c 0,0.631859 -0.56535,0.720541 -0.79814,0.720541 -0.55426,0 -0.55426,-0.23279 -0.55426,-0.46558 v -1.906663 c 0,-0.221705 -0.0443,-0.288217 -0.28822,-0.288217 h -0.50992 c -0.11085,0 -0.28822,0 -0.28822,0.221705 0,0.21062 0.17737,0.21062 0.27713,0.21062 h 0.32148 v 1.806896 c 0,0.687285 0.48775,0.853564 0.99767,0.853564 0.2993,0 0.58752,-0.0776 0.84248,-0.266046 z m 0,0"
           id="id-23213c22-6acf-483b-8121-e43c0f91f5e0" />
        <path
           style="fill:#ffffff;fill-opacity:1;stroke:none;stroke-width:0"
           d="m 290.77805,-41.058532 c 0,-0.221705 -0.0443,-0.288217 -0.27713,-0.288217 h -1.00875 c -0.11086,0 -0.28822,0 -0.28822,0.21062 0,0.221705 0.17736,0.221705 0.28822,0.221705 h 0.79813 v 2.183794 h -0.85356 c -0.11085,0 -0.28822,0 -0.28822,0.221705 0,0.21062 0.17737,0.21062 0.28822,0.21062 h 2.08403 c 0.11085,0 0.28821,0 0.28821,-0.21062 0,-0.221705 -0.17736,-0.221705 -0.28821,-0.221705 h -0.74272 z m 0,-1.219378 c 0,-0.188449 -0.15519,-0.343642 -0.35472,-0.343642 -0.19954,0 -0.35473,0.155193 -0.35473,0.343642 0,0.199535 0.15519,0.354728 0.35473,0.354728 0.19953,0 0.35472,-0.155193 0.35472,-0.354728 z m 0,0"
           id="id-43347020-0918-453d-8d84-985831df8eee" />
        <path
           style="fill:#ffffff;fill-opacity:1;stroke:none;stroke-width:0"
           d="m 294.39983,-42.333336 c 0,-0.21062 -0.0333,-0.288216 -0.27713,-0.288216 h -1.11961 c -0.11085,0 -0.28822,0 -0.28822,0.221705 0,0.210619 0.18845,0.210619 0.28822,0.210619 h 0.90899 v 3.458598 h -0.90899 c -0.11085,0 -0.28822,0 -0.28822,0.221705 0,0.21062 0.18845,0.21062 0.28822,0.21062 h 2.31682 c 0.11085,0 0.28821,0 0.28821,-0.21062 0,-0.221705 -0.16627,-0.221705 -0.28821,-0.221705 h -0.92008 z m 0,0"
           id="id-50325a84-fd99-449e-ac6d-957ea849a800" />
        <path
           style="fill:#ffffff;fill-opacity:1;stroke:none;stroke-width:0"
           d="m 298.54332,-38.653033 c 0,0.254961 0,0.354728 0.28821,0.354728 h 0.50992 c 0.12194,0 0.29931,0 0.29931,-0.221705 0,-0.21062 -0.18845,-0.21062 -0.28822,-0.21062 h -0.32147 v -3.602706 c 0,-0.21062 -0.0333,-0.288216 -0.27713,-0.288216 h -0.52101 c -0.11085,0 -0.28822,0 -0.28822,0.221705 0,0.210619 0.18845,0.210619 0.28822,0.210619 h 0.31039 v 1.119611 c -0.23279,-0.21062 -0.52101,-0.321473 -0.82031,-0.321473 -0.77597,0 -1.45217,0.676201 -1.45217,1.574106 0,0.875735 0.63186,1.56302 1.38566,1.56302 0.39907,0 0.69837,-0.188449 0.88682,-0.399069 z m 0,-1.518679 v 0.498836 c 0,0.399069 -0.31039,0.986587 -0.85357,0.986587 -0.50992,0 -0.93116,-0.498836 -0.93116,-1.130695 0,-0.6762 0.49884,-1.141781 0.98659,-1.141781 0.45449,0 0.79814,0.399069 0.79814,0.787053 z m 0,0"
           id="id-2aca5033-83aa-46f8-b613-c156d0b93c5b" />
        <path
           style="fill:#ffffff;fill-opacity:1;stroke:none;stroke-width:0"
           d="m 300.90138,-40.027604 h 0.88682 c 0.8203,0 1.33023,-0.642944 1.33023,-1.296974 0,-0.65403 -0.52101,-1.296974 -1.33023,-1.296974 h -1.58519 c -0.11086,0 -0.28822,0 -0.28822,0.210619 0,0.221705 0.17736,0.221705 0.28822,0.221705 h 0.21062 v 3.458598 h -0.21062 c -0.11086,0 -0.28822,0 -0.28822,0.221705 0,0.21062 0.17736,0.21062 0.28822,0.21062 h 0.90899 c 0.11085,0 0.28821,0 0.28821,-0.21062 0,-0.221705 -0.17736,-0.221705 -0.28821,-0.221705 h -0.21062 z m 0,-2.161624 h 0.75379 c 0.6762,0 0.97551,0.487751 0.97551,0.86465 0,0.376898 -0.29931,0.864649 -0.97551,0.864649 h -0.75379 z m 0,0"
           id="id-bc4e3cf5-b65c-4c95-b478-c9f759bd3452" />
        <path
           style="fill:#ffffff;fill-opacity:1;stroke:none;stroke-width:0"
           d="m 306.03074,-38.52001 c 0.15519,0.21062 0.48775,0.221705 0.7538,0.221705 0.19953,0 0.35472,0 0.35472,-0.221705 0,-0.21062 -0.17736,-0.21062 -0.27713,-0.21062 -0.2993,0 -0.36581,-0.03326 -0.42124,-0.05543 v -1.529764 c 0,-0.498837 -0.38798,-1.09744 -1.40782,-1.09744 -0.29931,0 -1.01985,0 -1.01985,0.521007 0,0.210619 0.14411,0.321472 0.31039,0.321472 0.11085,0 0.31039,-0.06651 0.31039,-0.321472 0,-0.05543 0.0111,-0.06651 0.15519,-0.0776 0.0998,-0.01109 0.18845,-0.01109 0.25496,-0.01109 0.53209,0 0.89791,0.221705 0.89791,0.720541 -1.24155,0.02217 -2.11729,0.376898 -2.11729,1.053099 0,0.487751 0.44341,0.953331 1.16395,0.953331 0.26605,0 0.70946,-0.05543 1.04202,-0.266046 z m -0.0887,-1.319145 v 0.598604 c 0,0.155193 0,0.310387 -0.26605,0.432325 -0.25496,0.121937 -0.57643,0.121937 -0.63186,0.121937 -0.44341,0 -0.73163,-0.243875 -0.73163,-0.521006 0,-0.343643 0.60969,-0.609689 1.62954,-0.63186 z m 0,0"
           id="id-30ddb707-9509-4cf0-b184-bff2391eb246" />
        <path
           style="fill:#ffffff;fill-opacity:1;stroke:none;stroke-width:0"
           d="m 308.72207,-39.61745 c 0,-0.665115 0.41015,-1.341315 1.26371,-1.341315 0.0111,0.166279 0.13303,0.310387 0.31039,0.310387 0.15519,0 0.2993,-0.110852 0.2993,-0.299302 0,-0.144108 -0.0887,-0.44341 -0.6762,-0.44341 -0.35473,0 -0.80922,0.133023 -1.1972,0.576433 v -0.243875 c 0,-0.221705 -0.0443,-0.288217 -0.28822,-0.288217 h -0.77597 c -0.11085,0 -0.28822,0 -0.28822,0.21062 0,0.221705 0.17737,0.221705 0.28822,0.221705 h 0.57643 v 2.183794 h -0.57643 c -0.11085,0 -0.28822,0 -0.28822,0.21062 0,0.221705 0.17737,0.221705 0.28822,0.221705 h 1.84015 c 0.11086,0 0.2993,0 0.2993,-0.21062 0,-0.221705 -0.18844,-0.221705 -0.2993,-0.221705 h -0.77596 z m 0,0"
           id="id-12903346-957e-4b17-99f0-02e9557536fa" />
        <path
           style="fill:#ffffff;fill-opacity:1;stroke:none;stroke-width:0"
           d="m 312.43252,-40.914424 h 1.15286 c 0.11085,0 0.28822,0 0.28822,-0.21062 0,-0.221705 -0.17737,-0.221705 -0.28822,-0.221705 h -1.15286 v -0.576433 c 0,-0.133023 0,-0.288216 -0.24388,-0.288216 -0.24388,0 -0.24388,0.144108 -0.24388,0.288216 v 0.576433 h -0.62077 c -0.11085,0 -0.28822,0 -0.28822,0.221705 0,0.21062 0.17737,0.21062 0.27714,0.21062 h 0.63185 v 1.729299 c 0,0.6762 0.47667,0.931161 0.99768,0.931161 0.521,0 1.08635,-0.310387 1.08635,-0.931161 0,-0.133023 0,-0.277131 -0.24387,-0.277131 -0.23279,0 -0.24388,0.144108 -0.24388,0.266046 0,0.44341 -0.41015,0.509921 -0.56535,0.509921 -0.54317,0 -0.54317,-0.365813 -0.54317,-0.543177 z m 0,0"
           id="id-285d87ad-2654-4f63-8b99-5400168f93ef" />
        <path
           style="fill:#ffffff;fill-opacity:1;stroke:none;stroke-width:0"
           d="m 317.66236,-37.921406 c 0,-0.09977 -0.0554,-0.133023 -0.17736,-0.21062 -0.87573,-0.598604 -1.20829,-1.54085 -1.20829,-2.327903 0,-0.709456 0.27713,-1.696043 1.21938,-2.338987 0.11085,-0.0776 0.16627,-0.09977 0.16627,-0.21062 0,-0.05543 -0.0332,-0.199535 -0.2217,-0.199535 -0.19953,0 -1.6517,0.931161 -1.6517,2.749142 0,0.842479 0.33255,1.474339 0.57643,1.829067 0.3769,0.521006 0.90899,0.90899 1.07527,0.90899 0.18845,0 0.2217,-0.133023 0.2217,-0.199534 z m 0,0"
           id="id-b71b3561-fe41-4524-b252-6b8c885f57c6" />
        <path
           style="fill:#ffffff;fill-opacity:1;stroke:none;stroke-width:0"
           d="m 320.77421,-40.459929 c 0,-0.842479 -0.33256,-1.485423 -0.57643,-1.829066 -0.3769,-0.521007 -0.90899,-0.920076 -1.07527,-0.920076 -0.17736,0 -0.22171,0.144109 -0.22171,0.199535 0,0.110852 0.0776,0.155193 0.11086,0.177364 1.16395,0.775967 1.2748,1.906663 1.2748,2.372243 0,0.709456 -0.26605,1.684958 -1.21938,2.327903 -0.11085,0.0776 -0.16628,0.110852 -0.16628,0.21062 0,0.06651 0.0444,0.199534 0.22171,0.199534 0.19953,0 1.6517,-0.931161 1.6517,-2.738057 z m 0,0"
           id="id-1886e1fa-ef6d-4be7-a1e5-735267691a35" />
      </g>
      <rect
         style="font-variation-settings:normal;opacity:1;fill:#ff4141;fill-opacity:1;fill-rule:evenodd;stroke:#ff9900;stroke-width:0.79375;stroke-linecap:butt;stroke-linejoin:miter;stroke-miterlimit:4;stroke-dasharray:none;stroke-dashoffset:0;stroke-opacity:1;stop-color:#000000;stop-opacity:1"
         id="rect3190"
         width="47.625004"
         height="7.9374976"
         x="113.77081"
         y="119.06248"
         ry="0.13229166" />
      <g
         id="g3216"
         transform="translate(-204.34096,163.4967)"
         style="fill:#ffffff">
        <path
           style="fill:#ffffff;fill-opacity:1;stroke:none;stroke-width:0"
           d="m 325.16087,-39.772643 c 0.17737,0 0.33256,0 0.33256,-0.221705 0,-0.21062 -0.17736,-0.21062 -0.28822,-0.21062 h -0.84248 c -0.0998,0 -0.27713,0 -0.27713,0.21062 0,0.221705 0.16628,0.221705 0.27713,0.221705 h 0.29931 c -0.0776,0.787053 -0.43233,1.11961 -0.80923,1.11961 -0.56535,0 -1.10852,-0.764882 -1.10852,-1.806896 0,-1.075269 0.56534,-1.806895 1.11961,-1.806895 0.24387,0 0.69837,0.166278 0.80922,0.931161 0.0222,0.121937 0.0665,0.199534 0.24388,0.199534 0.24387,0 0.24387,-0.144108 0.24387,-0.288216 v -0.986588 c 0,-0.110852 0,-0.288216 -0.21062,-0.288216 -0.14411,0 -0.17736,0.0776 -0.28821,0.321472 -0.24388,-0.21062 -0.5321,-0.321472 -0.82031,-0.321472 -0.85357,0 -1.58519,0.953331 -1.58519,2.23922 0,1.296975 0.74271,2.239221 1.58519,2.239221 0.39907,0 0.69837,-0.21062 0.83139,-0.376899 0,0.155194 0,0.299302 0.25496,0.299302 0.23279,0 0.23279,-0.155194 0.23279,-0.288216 z m 0,0"
           id="id-085fee04-1cfa-42e9-9195-89d7bc537ece" />
        <path
           style="fill:#ffffff;fill-opacity:1;stroke:none;stroke-width:0"
           d="m 328.70575,-39.650705 c 0.14411,0 0.27713,0 0.27713,-0.254961 0,-0.809223 -0.45449,-1.507594 -1.37457,-1.507594 -0.84248,0 -1.51868,0.709456 -1.51868,1.585191 0,0.853564 0.72054,1.574105 1.62954,1.574105 0.93116,0 1.26371,-0.642945 1.26371,-0.820308 0,-0.18845 -0.19953,-0.18845 -0.24387,-0.18845 -0.13302,0 -0.18845,0.02217 -0.23279,0.155194 -0.1552,0.354728 -0.54318,0.421239 -0.74271,0.421239 -0.5321,0 -1.0531,-0.354728 -1.17504,-0.964416 z m -2.10619,-0.42124 c 0.0998,-0.521007 0.521,-0.90899 1.00875,-0.90899 0.36582,0 0.80923,0.177364 0.87574,0.90899 z m 0,0"
           id="id-ebebe5fc-b177-4ec3-b905-41ad6e03591c" />
        <path
           style="fill:#ffffff;fill-opacity:1;stroke:none;stroke-width:0"
           d="m 330.98622,-40.914424 h 1.15286 c 0.11085,0 0.28822,0 0.28822,-0.21062 0,-0.221705 -0.17737,-0.221705 -0.28822,-0.221705 h -1.15286 v -0.576433 c 0,-0.133023 0,-0.288216 -0.24388,-0.288216 -0.24388,0 -0.24388,0.144108 -0.24388,0.288216 v 0.576433 h -0.62077 c -0.11085,0 -0.28822,0 -0.28822,0.221705 0,0.21062 0.17737,0.21062 0.27714,0.21062 h 0.63185 v 1.729299 c 0,0.6762 0.47667,0.931161 0.99768,0.931161 0.521,0 1.08635,-0.310387 1.08635,-0.931161 0,-0.133023 0,-0.277131 -0.24387,-0.277131 -0.23279,0 -0.24388,0.144108 -0.24388,0.266046 0,0.44341 -0.41015,0.509921 -0.56535,0.509921 -0.54317,0 -0.54317,-0.365813 -0.54317,-0.543177 z m 0,0"
           id="id-24474f47-340c-44da-910c-130b00b8a133" />
        <path
           style="fill:#ffffff;fill-opacity:1;stroke:none;stroke-width:0"
           d="m 334.23108,-42.189228 h 0.49884 c 0.65403,0 0.96442,0.42124 0.96442,0.753797 0,0.354728 -0.31039,0.764883 -0.96442,0.764883 h -0.49884 z m 1.35241,1.740384 c 0.46558,-0.266045 0.5986,-0.687285 0.5986,-0.986587 0,-0.609688 -0.53209,-1.186121 -1.37457,-1.186121 h -1.24155 c -0.12194,0 -0.28822,0 -0.28822,0.221705 0,0.210619 0.17737,0.210619 0.28822,0.210619 h 0.17736 v 3.458598 h -0.17736 c -0.12194,0 -0.28822,0 -0.28822,0.221705 0,0.21062 0.17737,0.21062 0.28822,0.21062 h 0.83139 c 0.11086,0 0.28822,0 0.28822,-0.21062 0,-0.221705 -0.16628,-0.221705 -0.28822,-0.221705 h -0.16628 v -1.507594 h 0.54318 c 0.13303,0 0.35473,0 0.57644,0.18845 0.15519,0.155193 0.15519,0.310387 0.15519,0.609688 0,0.454496 0,0.665115 0.13302,0.897906 0.12194,0.210619 0.32147,0.321472 0.56535,0.321472 0.44341,0 0.60969,-0.465581 0.60969,-0.731627 0,-0.23279 -0.16628,-0.23279 -0.24388,-0.23279 -0.0776,0 -0.23279,0 -0.24387,0.21062 0,0.05543 -0.0111,0.321472 -0.13303,0.321472 -0.19953,0 -0.19953,-0.321472 -0.19953,-0.698371 0,-0.44341 0,-0.498836 -0.0665,-0.665115 -0.0776,-0.21062 -0.24388,-0.354728 -0.34364,-0.432325 z m 0,0"
           id="id-4a965fe6-84cd-452b-9511-983712afbb86" />
        <path
           style="fill:#ffffff;fill-opacity:1;stroke:none;stroke-width:0"
           d="m 339.83782,-39.650705 c 0.14411,0 0.27713,0 0.27713,-0.254961 0,-0.809223 -0.45449,-1.507594 -1.37457,-1.507594 -0.84248,0 -1.51868,0.709456 -1.51868,1.585191 0,0.853564 0.72055,1.574105 1.62954,1.574105 0.93116,0 1.26371,-0.642945 1.26371,-0.820308 0,-0.18845 -0.19953,-0.18845 -0.24387,-0.18845 -0.13302,0 -0.18845,0.02217 -0.23279,0.155194 -0.1552,0.354728 -0.54318,0.421239 -0.74271,0.421239 -0.5321,0 -1.0531,-0.354728 -1.17504,-0.964416 z m -2.10619,-0.42124 c 0.0998,-0.521007 0.521,-0.90899 1.00875,-0.90899 0.36582,0 0.80923,0.177364 0.87574,0.90899 z m 0,0"
           id="id-12913410-2fbf-4a8f-87f0-3cf3a0b2e0c1" />
        <path
           style="fill:#ffffff;fill-opacity:1;stroke:none;stroke-width:0"
           d="m 342.65038,-40.105201 c -0.16628,-0.02217 -0.2993,-0.04434 -0.47667,-0.0776 -0.21062,-0.03326 -0.68728,-0.121938 -0.68728,-0.387984 0,-0.188449 0.2217,-0.410154 0.8979,-0.410154 0.58752,0 0.68729,0.210619 0.70946,0.399069 0,0.121937 0.0222,0.243875 0.23279,0.243875 0.25496,0 0.25496,-0.155193 0.25496,-0.299302 v -0.487751 c 0,-0.110852 0,-0.288216 -0.21062,-0.288216 -0.17737,0 -0.19954,0.09977 -0.22171,0.155193 -0.31038,-0.155193 -0.62077,-0.155193 -0.75379,-0.155193 -1.17504,0 -1.34132,0.587518 -1.34132,0.842479 0,0.642944 0.74271,0.764882 1.39674,0.864649 0.34365,0.05543 0.90899,0.144108 0.90899,0.521007 0,0.266046 -0.26604,0.498836 -0.90899,0.498836 -0.33255,0 -0.72054,-0.0776 -0.8979,-0.631859 -0.0443,-0.121938 -0.0665,-0.199534 -0.25496,-0.199534 -0.24388,0 -0.24388,0.144108 -0.24388,0.288216 v 0.687286 c 0,0.110852 0,0.288216 0.21062,0.288216 0.0665,0 0.17737,-0.01108 0.26605,-0.266046 0.34364,0.254961 0.72054,0.266046 0.92007,0.266046 1.10853,0 1.34132,-0.587518 1.34132,-0.931161 0,-0.731626 -0.90899,-0.88682 -1.14178,-0.920076 z m 0,0"
           id="id-eae8e11c-f17e-49f3-b782-2bb2f1d6e8d8" />
        <path
           style="fill:#ffffff;fill-opacity:1;stroke:none;stroke-width:0"
           d="m 346.78207,-38.52001 c 0.0111,0.221705 0.15519,0.221705 0.28821,0.221705 h 0.50993 c 0.12193,0 0.2993,0 0.2993,-0.221705 0,-0.21062 -0.18845,-0.21062 -0.28822,-0.21062 h -0.32147 v -2.327902 c 0,-0.221705 -0.0333,-0.288217 -0.27713,-0.288217 h -0.52101 c -0.11085,0 -0.28822,0 -0.28822,0.221705 0,0.21062 0.18845,0.21062 0.28822,0.21062 h 0.31039 v 1.507594 c 0,0.631859 -0.56535,0.720541 -0.79814,0.720541 -0.55426,0 -0.55426,-0.23279 -0.55426,-0.46558 v -1.906663 c 0,-0.221705 -0.0443,-0.288217 -0.28822,-0.288217 h -0.50992 c -0.11085,0 -0.28822,0 -0.28822,0.221705 0,0.21062 0.17737,0.21062 0.27713,0.21062 h 0.32148 v 1.806896 c 0,0.687285 0.48775,0.853564 0.99767,0.853564 0.2993,0 0.58752,-0.0776 0.84248,-0.266046 z m 0,0"
           id="id-629ebf43-3b55-4a2f-8050-8ab5694ed556" />
        <path
           style="fill:#ffffff;fill-opacity:1;stroke:none;stroke-width:0"
           d="m 350.06091,-42.333336 c 0,-0.21062 -0.0332,-0.288216 -0.27713,-0.288216 h -1.11961 c -0.11085,0 -0.28822,0 -0.28822,0.221705 0,0.210619 0.18845,0.210619 0.28822,0.210619 h 0.90899 v 3.458598 h -0.90899 c -0.11085,0 -0.28822,0 -0.28822,0.221705 0,0.21062 0.18845,0.21062 0.28822,0.21062 h 2.31682 c 0.11085,0 0.28821,0 0.28821,-0.21062 0,-0.221705 -0.16627,-0.221705 -0.28821,-0.221705 h -0.92008 z m 0,0"
           id="id-99267aa7-4b8c-441f-8014-540c73e314d5" />
        <path
           style="fill:#ffffff;fill-opacity:1;stroke:none;stroke-width:0"
           d="m 353.25036,-40.914424 h 1.15286 c 0.11085,0 0.28822,0 0.28822,-0.21062 0,-0.221705 -0.17737,-0.221705 -0.28822,-0.221705 h -1.15286 v -0.576433 c 0,-0.133023 0,-0.288216 -0.24388,-0.288216 -0.24388,0 -0.24388,0.144108 -0.24388,0.288216 v 0.576433 h -0.62077 c -0.11085,0 -0.28822,0 -0.28822,0.221705 0,0.21062 0.17737,0.21062 0.27714,0.21062 h 0.63185 v 1.729299 c 0,0.6762 0.47667,0.931161 0.99768,0.931161 0.521,0 1.08635,-0.310387 1.08635,-0.931161 0,-0.133023 0,-0.277131 -0.24387,-0.277131 -0.23279,0 -0.24388,0.144108 -0.24388,0.266046 0,0.44341 -0.41015,0.509921 -0.56535,0.509921 -0.54317,0 -0.54317,-0.365813 -0.54317,-0.543177 z m 0,0"
           id="id-729ba29a-dc31-49f4-853f-f09c7ec48ca7" />
        <path
           style="fill:#ffffff;fill-opacity:1;stroke:none;stroke-width:0"
           d="m 358.4802,-37.921406 c 0,-0.09977 -0.0554,-0.133023 -0.17736,-0.21062 -0.87573,-0.598604 -1.20829,-1.54085 -1.20829,-2.327903 0,-0.709456 0.27713,-1.696043 1.21938,-2.338987 0.11085,-0.0776 0.16627,-0.09977 0.16627,-0.21062 0,-0.05543 -0.0333,-0.199535 -0.2217,-0.199535 -0.19953,0 -1.6517,0.931161 -1.6517,2.749142 0,0.842479 0.33256,1.474339 0.57643,1.829067 0.3769,0.521006 0.90899,0.90899 1.07527,0.90899 0.18845,0 0.2217,-0.133023 0.2217,-0.199534 z m 0,0"
           id="id-940430e9-7638-4117-8ec0-a68a8403a029" />
        <path
           style="fill:#ffffff;fill-opacity:1;stroke:none;stroke-width:0"
           d="m 361.59205,-40.459929 c 0,-0.842479 -0.33256,-1.485423 -0.57643,-1.829066 -0.3769,-0.521007 -0.90899,-0.920076 -1.07527,-0.920076 -0.17736,0 -0.22171,0.144109 -0.22171,0.199535 0,0.110852 0.0776,0.155193 0.11086,0.177364 1.16395,0.775967 1.2748,1.906663 1.2748,2.372243 0,0.709456 -0.26605,1.684958 -1.21938,2.327903 -0.11085,0.0776 -0.16628,0.110852 -0.16628,0.21062 0,0.06651 0.0444,0.199534 0.22171,0.199534 0.19953,0 1.6517,-0.931161 1.6517,-2.738057 z m 0,0"
           id="id-37ae6d6e-83e5-4df3-9c7c-343fa30cf0e5" />
      </g>
      <rect
         style="font-variation-settings:normal;fill:#364e59;fill-opacity:1;fill-rule:evenodd;stroke:#0e232e;stroke-width:0.79375;stroke-linecap:butt;stroke-linejoin:miter;stroke-miterlimit:4;stroke-dasharray:none;stroke-dashoffset:0;stroke-opacity:1;stop-color:#000000"
         id="rect3218"
         width="31.750006"
         height="7.9375"
         x="187.92329"
         y="97.895836"
         ry="1.3229166" />
      <g
         id="g3227"
         transform="translate(-171.82186,142.30231)"
         style="fill:#ffffff">
        <path
           style="fill:#ffffff;fill-opacity:1;stroke:none;stroke-width:0"
           d="m 363.98337,-40.027604 h 0.88682 c 0.8203,0 1.33023,-0.642944 1.33023,-1.296974 0,-0.65403 -0.52101,-1.296974 -1.33023,-1.296974 H 363.285 c -0.11086,0 -0.28822,0 -0.28822,0.210619 0,0.221705 0.17736,0.221705 0.28822,0.221705 h 0.21062 v 3.458598 H 363.285 c -0.11086,0 -0.28822,0 -0.28822,0.221705 0,0.21062 0.17736,0.21062 0.28822,0.21062 h 0.90899 c 0.11085,0 0.28821,0 0.28821,-0.21062 0,-0.221705 -0.17736,-0.221705 -0.28821,-0.221705 h -0.21062 z m 0,-2.161624 h 0.75379 c 0.6762,0 0.97551,0.487751 0.97551,0.86465 0,0.376898 -0.29931,0.864649 -0.97551,0.864649 h -0.75379 z m 0,0"
           id="id-a5312aea-d8cb-43bc-a403-4a7a85b324d5" />
        <path
           style="fill:#ffffff;fill-opacity:1;stroke:none;stroke-width:0"
           d="m 368.0936,-39.61745 c 0,-0.665115 0.41015,-1.341315 1.26371,-1.341315 0.0111,0.166279 0.13303,0.310387 0.31039,0.310387 0.15519,0 0.2993,-0.110852 0.2993,-0.299302 0,-0.144108 -0.0887,-0.44341 -0.6762,-0.44341 -0.35473,0 -0.80922,0.133023 -1.1972,0.576433 v -0.243875 c 0,-0.221705 -0.0444,-0.288217 -0.28822,-0.288217 h -0.77597 c -0.11085,0 -0.28822,0 -0.28822,0.21062 0,0.221705 0.17737,0.221705 0.28822,0.221705 h 0.57643 v 2.183794 h -0.57643 c -0.11085,0 -0.28822,0 -0.28822,0.21062 0,0.221705 0.17737,0.221705 0.28822,0.221705 h 1.84015 c 0.11086,0 0.2993,0 0.2993,-0.21062 0,-0.221705 -0.18844,-0.221705 -0.2993,-0.221705 h -0.77596 z m 0,0"
           id="id-b6a85430-9e43-41f2-8a94-f1d373cf83b9" />
        <path
           style="fill:#ffffff;fill-opacity:1;stroke:none;stroke-width:0"
           d="m 373.53335,-39.828069 c 0,-0.88682 -0.65403,-1.585191 -1.45216,-1.585191 -0.78706,0 -1.45217,0.698371 -1.45217,1.585191 0,0.897905 0.6762,1.574105 1.45217,1.574105 0.77596,0 1.45216,-0.6762 1.45216,-1.574105 z m -1.45216,1.14178 c -0.52101,0 -0.96442,-0.532092 -0.96442,-1.186121 0,-0.642945 0.46558,-1.108525 0.96442,-1.108525 0.50992,0 0.96441,0.46558 0.96441,1.108525 0,0.654029 -0.44341,1.186121 -0.96441,1.186121 z m 0,0"
           id="id-52662f71-f3ed-4fab-aa77-a69762cfc0f0" />
        <path
           style="fill:#ffffff;fill-opacity:1;stroke:none;stroke-width:0"
           d="m 376.46784,-38.653033 c 0,0.254961 0,0.354728 0.28821,0.354728 h 0.50993 c 0.12193,0 0.2993,0 0.2993,-0.221705 0,-0.21062 -0.18845,-0.21062 -0.28822,-0.21062 h -0.32147 v -3.602706 c 0,-0.21062 -0.0333,-0.288216 -0.27713,-0.288216 h -0.52101 c -0.11085,0 -0.28822,0 -0.28822,0.221705 0,0.210619 0.18845,0.210619 0.28822,0.210619 h 0.31039 v 1.119611 c -0.23279,-0.21062 -0.52101,-0.321473 -0.82031,-0.321473 -0.77597,0 -1.45217,0.676201 -1.45217,1.574106 0,0.875735 0.63186,1.56302 1.38566,1.56302 0.39907,0 0.69837,-0.188449 0.88682,-0.399069 z m 0,-1.518679 v 0.498836 c 0,0.399069 -0.31039,0.986587 -0.85357,0.986587 -0.50992,0 -0.93116,-0.498836 -0.93116,-1.130695 0,-0.6762 0.49884,-1.141781 0.98659,-1.141781 0.45449,0 0.79814,0.399069 0.79814,0.787053 z m 0,0"
           id="id-212864d2-5487-424f-80ee-e1d07cdea11d" />
        <path
           style="fill:#ffffff;fill-opacity:1;stroke:none;stroke-width:0"
           d="m 380.17901,-38.52001 c 0.0111,0.221705 0.15519,0.221705 0.28821,0.221705 h 0.50992 c 0.12194,0 0.29931,0 0.29931,-0.221705 0,-0.21062 -0.18845,-0.21062 -0.28822,-0.21062 h -0.32147 v -2.327902 c 0,-0.221705 -0.0333,-0.288217 -0.27713,-0.288217 h -0.52101 c -0.11085,0 -0.28822,0 -0.28822,0.221705 0,0.21062 0.18845,0.21062 0.28822,0.21062 h 0.31039 v 1.507594 c 0,0.631859 -0.56535,0.720541 -0.79814,0.720541 -0.55426,0 -0.55426,-0.23279 -0.55426,-0.46558 v -1.906663 c 0,-0.221705 -0.0443,-0.288217 -0.28822,-0.288217 h -0.50992 c -0.11085,0 -0.28822,0 -0.28822,0.221705 0,0.21062 0.17737,0.21062 0.27713,0.21062 h 0.32148 v 1.806896 c 0,0.687285 0.48775,0.853564 0.99767,0.853564 0.2993,0 0.58752,-0.0776 0.84248,-0.266046 z m 0,0"
           id="id-d2c572dd-0f53-46bd-8693-fe03f0096039" />
        <path
           style="fill:#ffffff;fill-opacity:1;stroke:none;stroke-width:0"
           d="m 384.65434,-39.074272 c 0,-0.18845 -0.19954,-0.18845 -0.24388,-0.18845 -0.11085,0 -0.18845,0.01109 -0.23279,0.155194 -0.0443,0.08868 -0.17736,0.421239 -0.69837,0.421239 -0.5986,0 -1.10852,-0.498836 -1.10852,-1.14178 0,-0.332558 0.18845,-1.152866 1.15286,-1.152866 0.14411,0 0.42124,0 0.42124,0.06651 0.0111,0.243876 0.14411,0.343643 0.31039,0.343643 0.16628,0 0.32147,-0.121938 0.32147,-0.321472 0,-0.521007 -0.74271,-0.521007 -1.0531,-0.521007 -1.21937,0 -1.64061,0.964416 -1.64061,1.585191 0,0.853564 0.66511,1.574105 1.55193,1.574105 0.98659,0 1.21938,-0.698371 1.21938,-0.820307 z m 0,0"
           id="id-d278b302-4da2-4424-b54e-298dc6daa96c" />
        <path
           style="fill:#ffffff;fill-opacity:1;stroke:none;stroke-width:0"
           d="m 386.6473,-40.914424 h 1.15286 c 0.11085,0 0.28822,0 0.28822,-0.21062 0,-0.221705 -0.17737,-0.221705 -0.28822,-0.221705 h -1.15286 v -0.576433 c 0,-0.133023 0,-0.288216 -0.24388,-0.288216 -0.24388,0 -0.24388,0.144108 -0.24388,0.288216 v 0.576433 h -0.62077 c -0.11085,0 -0.28822,0 -0.28822,0.221705 0,0.21062 0.17737,0.21062 0.27714,0.21062 h 0.63185 v 1.729299 c 0,0.6762 0.47667,0.931161 0.99768,0.931161 0.521,0 1.08635,-0.310387 1.08635,-0.931161 0,-0.133023 0,-0.277131 -0.24387,-0.277131 -0.23279,0 -0.24388,0.144108 -0.24388,0.266046 0,0.44341 -0.41015,0.509921 -0.56535,0.509921 -0.54317,0 -0.54317,-0.365813 -0.54317,-0.543177 z m 0,0"
           id="id-e7ccbbf3-97d9-4224-be34-970a8b872d0f" />
      </g>
      <path
         style="fill:none;stroke:#000000;stroke-width:0.79375;stroke-linecap:butt;stroke-linejoin:miter;stroke-miterlimit:4;stroke-dasharray:none;stroke-opacity:1;marker-end:url(#TriangleOutM)"
         d="M 68.791666,59.53125 H 108.47917"
         id="path5701"
         sodipodi:nodetypes="cc" />
      <g
         id="path6214">
        <path
           style="color:#000000;fill:#000000;-inkscape-stroke:none"
           d="m 139.83203,84.666016 v 6.615234 6.615234 h 0.79492 V 91.28125 84.666016 Z"
           id="path7066" />
        <g
           id="g7054">
          <g
             id="path7056">
            <path
               style="color:#000000;fill:#ffffff;fill-rule:evenodd;stroke-width:0.3175pt;-inkscape-stroke:none"
               d="m 140.22917,89.449275 1.5875,2.746375 h -3.175 z"
               id="path7060" />
            <path
               style="color:#000000;fill:#000000;fill-rule:evenodd;-inkscape-stroke:none"
               d="m 140.22852,89.025391 -0.18165,0.318359 -1.77148,3.064453 h 3.9082 z m 0,0.845703 1.2207,2.113281 h -2.44141 z"
               id="path7062" />
          </g>
        </g>
      </g>
      <path
         style="fill:none;stroke:#000000;stroke-width:0.79375;stroke-linecap:butt;stroke-linejoin:miter;stroke-miterlimit:4;stroke-dasharray:none;stroke-opacity:1;marker-end:url(#TriangleOutM)"
         d="m 164.04167,101.86458 h 21.16666"
         id="path6315"
         sodipodi:nodetypes="cc" />
    </g>
  </g>
</svg>
