<?xml version="1.0" encoding="UTF-8" standalone="no"?>
<!-- Created with Inkscape (http://www.inkscape.org/) -->

<svg
   width="52.255203mm"
   height="39.73769mm"
   viewBox="0 0 52.255203 39.73769"
   version="1.1"
   id="svg5"
   inkscape:version="1.1 (c4e8f9e, 2021-05-24)"
   sodipodi:docname="complex-object_v_simple-object.svg"
   xmlns:inkscape="http://www.inkscape.org/namespaces/inkscape"
   xmlns:sodipodi="http://sodipodi.sourceforge.net/DTD/sodipodi-0.dtd"
   xmlns="http://www.w3.org/2000/svg"
   xmlns:svg="http://www.w3.org/2000/svg">
  <sodipodi:namedview
     id="namedview7"
     pagecolor="#ffffff"
     bordercolor="#666666"
     borderopacity="1.0"
     inkscape:pageshadow="2"
     inkscape:pageopacity="0.0"
     inkscape:pagecheckerboard="0"
     inkscape:document-units="mm"
     showgrid="false"
     inkscape:zoom="1.7124261"
     inkscape:cx="232.1268"
     inkscape:cy="103.07014"
     inkscape:window-width="1312"
     inkscape:window-height="847"
     inkscape:window-x="52"
     inkscape:window-y="25"
     inkscape:window-maximized="0"
     inkscape:current-layer="layer1">
    <inkscape:grid
       type="xygrid"
       id="grid824"
       originx="-32.808334"
       originy="-70.328969" />
  </sodipodi:namedview>
  <defs
     id="defs2">
    <defs
       id="id-49bc3a7a-4ff5-4b2b-ae3d-ac80ada778ec">
      <g
         id="id-3e5561d8-92cd-4758-9fae-dbc0d10dd600">
        <symbol
           overflow="visible"
           id="id-d14c69f1-2882-4b47-adec-d83dad393ac3">
          <path
             style="stroke:none"
             d=""
             id="id-193b0e3c-c4fa-4366-92d7-b2e536731e1d" />
        </symbol>
        <symbol
           overflow="visible"
           id="id-c9c7ef53-603d-42a7-88ef-29a1f59975d0">
          <path
             style="stroke:none"
             d="m 4.671875,-3.046875 c 0,-2.875 -0.21875,-3.15625 -2.0625,-3.15625 -1.84375,0 -2.046875,0.265625 -2.046875,3.15625 0,2.890625 0.203125,3.15625 2.046875,3.15625 1.84375,0 2.0625,-0.265625 2.0625,-3.15625 z M 2.609375,-0.5 c -0.875,0 -1.125,-0.203125 -1.25,-0.703125 C 1.25,-1.71875 1.25,-2.578125 1.25,-3.125 c 0,-0.625 0,-1.296875 0.109375,-1.765625 0.125,-0.578125 0.4375,-0.703125 1.25,-0.703125 0.75,0 1.09375,0.09375 1.25,0.640625 0.125,0.46875 0.125,1.21875 0.125,1.828125 0,0.609375 0,1.328125 -0.109375,1.859375 C 3.765625,-0.703125 3.5,-0.5 2.609375,-0.5 Z m 0,0"
             id="id-3ecea135-3259-472d-9158-86a5186fd884" />
        </symbol>
        <symbol
           overflow="visible"
           id="id-89f74029-10c2-44c5-831d-9018172c0704">
          <path
             style="stroke:none"
             d="m 1.65625,-3.875 v -1.8125 c 0,-0.296875 -0.0625,-0.40625 -0.40625,-0.40625 H 0.53125 c -0.15625,0 -0.40625,0 -0.40625,0.3125 0,0.296875 0.25,0.296875 0.390625,0.296875 H 0.96875 V -0.40625 C 0.96875,-0.203125 0.96875,0 1.3125,0 1.65625,0 1.65625,-0.203125 1.65625,-0.453125 2.0625,-0.03125 2.5,0.0625 2.8125,0.0625 c 1.078125,0 2.046875,-0.953125 2.046875,-2.21875 0,-1.21875 -0.875,-2.203125 -1.9375,-2.203125 C 2.4375,-4.359375 2,-4.171875 1.65625,-3.875 Z m 0,1.96875 V -2.625 c 0,-0.59375 0.578125,-1.125 1.203125,-1.125 0.734375,0 1.3125,0.734375 1.3125,1.59375 0,0.953125 -0.6875,1.609375 -1.390625,1.609375 -0.78125,0 -1.125,-0.875 -1.125,-1.359375 z m 0,0"
             id="id-9b0bdf46-b665-4845-8477-ca50dfc1838f" />
        </symbol>
        <symbol
           overflow="visible"
           id="id-0e9675ab-34ff-43af-b58a-cf610aa273e7">
          <path
             style="stroke:none"
             d="m 3.671875,-3.890625 c 0,-0.3125 -0.0625,-0.40625 -0.40625,-0.40625 H 1.6875 c -0.15625,0 -0.40625,0 -0.40625,0.3125 0,0.296875 0.25,0.296875 0.40625,0.296875 h 1.296875 v 4.078125 c 0,0.171875 0,0.546875 -0.265625,0.890625 C 2.453125,1.671875 2.140625,1.671875 1.90625,1.671875 1.625,1.671875 1.5,1.640625 1.359375,1.625 c 0,-0.03125 0,-0.046875 0,-0.125 0,-0.28125 -0.21875,-0.4375 -0.4375,-0.4375 -0.21875,0 -0.4375,0.15625 -0.4375,0.453125 0,0.75 0.96875,0.75 1.375,0.75 1.453125,0 1.8125,-1.1875 1.8125,-1.828125 z m 0,-1.71875 c 0,-0.265625 -0.21875,-0.484375 -0.5,-0.484375 -0.28125,0 -0.5,0.21875 -0.5,0.484375 0,0.28125 0.21875,0.5 0.5,0.5 0.28125,0 0.5,-0.21875 0.5,-0.5 z m 0,0"
             id="id-02202477-3c1e-4e8a-83a5-4bdf32cdedb9" />
        </symbol>
        <symbol
           overflow="visible"
           id="id-d611eec6-fd95-4ffb-8874-bbbeb5c92ba8">
          <path
             style="stroke:none"
             d="m 3.09375,-5.796875 c 0,-0.15625 0,-0.40625 -0.296875,-0.40625 -0.1875,0 -0.25,0.125 -0.296875,0.234375 C 2.125,-5.109375 1.609375,-5 1.421875,-4.984375 c -0.171875,0.015625 -0.375,0.03125 -0.375,0.3125 0,0.25 0.171875,0.296875 0.328125,0.296875 0.1875,0 0.59375,-0.0625 1.03125,-0.4375 v 4.203125 H 1.5 c -0.15625,0 -0.390625,0 -0.390625,0.3125 C 1.109375,0 1.359375,0 1.5,0 H 4 c 0.15625,0 0.40625,0 0.40625,-0.296875 0,-0.3125 -0.234375,-0.3125 -0.40625,-0.3125 H 3.09375 Z m 0,0"
             id="id-bbd88ecc-f238-4768-bd74-0daa0121794e" />
        </symbol>
        <symbol
           overflow="visible"
           id="id-469165ac-c9fc-404c-9995-ae1be2f8ec95">
          <path
             style="stroke:none"
             d="M 0.671875,-0.578125 C 0.578125,-0.5 0.515625,-0.453125 0.515625,-0.3125 0.515625,0 0.765625,0 0.921875,0 H 4.3125 c 0.328125,0 0.390625,-0.09375 0.390625,-0.40625 v -0.265625 c 0,-0.1875 0,-0.40625 -0.34375,-0.40625 -0.34375,0 -0.34375,0.1875 -0.34375,0.46875 h -2.375 c 0.59375,-0.5 1.546875,-1.25 1.984375,-1.65625 0.625,-0.5625 1.078125,-1.1875 1.078125,-1.984375 0,-1.203125 -1,-1.953125 -2.21875,-1.953125 -1.171875,0 -1.96875,0.8125 -1.96875,1.671875 0,0.359375 0.28125,0.46875 0.453125,0.46875 0.203125,0 0.4375,-0.171875 0.4375,-0.4375 0,-0.125 -0.046875,-0.25 -0.140625,-0.328125 0.15625,-0.453125 0.625,-0.765625 1.171875,-0.765625 0.8125,0 1.578125,0.453125 1.578125,1.34375 0,0.6875 -0.484375,1.265625 -1.140625,1.8125 z m 0,0"
             id="id-a0312815-e155-4ed1-8cff-271ad9ee11ad" />
        </symbol>
      </g>
    </defs>
  </defs>
  <g
     inkscape:label="Layer 1"
     inkscape:groupmode="layer"
     id="layer1"
     transform="translate(-32.808334,-70.328972)">
    <g
       id="g2031">
      <g
         id="g3019">
        <rect
           style="font-variation-settings:normal;opacity:1;fill:#364e59;fill-opacity:1;fill-rule:evenodd;stroke:#000000;stroke-width:0.529167;stroke-linecap:butt;stroke-linejoin:miter;stroke-miterlimit:4;stroke-dasharray:none;stroke-dashoffset:0;stroke-opacity:1;stop-color:#000000;stop-opacity:1"
           id="rect1086"
           width="34.395832"
           height="34.395828"
           x="33.072918"
           y="75.40625"
           ry="1.3229166"
           rx="1.3229166" />
        <rect
           style="font-variation-settings:normal;opacity:1;fill:#f66151;fill-opacity:1;fill-rule:evenodd;stroke:#000000;stroke-width:0.529167;stroke-linecap:butt;stroke-linejoin:miter;stroke-miterlimit:4;stroke-dasharray:none;stroke-dashoffset:0;stroke-opacity:1;stop-color:#000000;stop-opacity:1"
           id="rect1412"
           width="10.583335"
           height="11.906253"
           x="34.395832"
           y="76.729164"
           ry="0.13229166" />
        <rect
           style="font-variation-settings:normal;opacity:1;fill:#f66151;fill-opacity:1;fill-rule:evenodd;stroke:#000000;stroke-width:0.529167;stroke-linecap:butt;stroke-linejoin:miter;stroke-miterlimit:4;stroke-dasharray:none;stroke-dashoffset:0;stroke-opacity:1;stop-color:#000000;stop-opacity:1"
           id="rect1414"
           width="18.520834"
           height="18.520834"
           x="34.395832"
           y="89.958336"
           ry="0.13229166" />
        <rect
           style="font-variation-settings:normal;opacity:1;fill:#f66151;fill-opacity:1;fill-rule:evenodd;stroke:#000000;stroke-width:0.529167;stroke-linecap:butt;stroke-linejoin:miter;stroke-miterlimit:4;stroke-dasharray:none;stroke-dashoffset:0;stroke-opacity:1;stop-color:#000000;stop-opacity:1"
           id="rect1416"
           width="19.843752"
           height="11.906253"
           x="46.302082"
           y="76.729164"
           ry="0.13229166" />
        <rect
           style="font-variation-settings:normal;opacity:1;fill:#f66151;fill-opacity:1;fill-rule:evenodd;stroke:#000000;stroke-width:0.529167;stroke-linecap:butt;stroke-linejoin:miter;stroke-miterlimit:4;stroke-dasharray:none;stroke-dashoffset:0;stroke-opacity:1;stop-color:#000000;stop-opacity:1"
           id="rect1418"
           width="6.6145844"
           height="3.9687526"
           x="54.239582"
           y="89.958336"
           ry="0.13229166" />
        <rect
           style="font-variation-settings:normal;opacity:1;fill:#f66151;fill-opacity:1;fill-rule:evenodd;stroke:#000000;stroke-width:0.529167;stroke-linecap:butt;stroke-linejoin:miter;stroke-miterlimit:4;stroke-dasharray:none;stroke-dashoffset:0;stroke-opacity:1;stop-color:#000000;stop-opacity:1"
           id="rect1420"
           width="6.6145844"
           height="7.9375"
           x="54.239582"
           y="95.25"
           ry="0.13229166" />
        <rect
           style="font-variation-settings:normal;opacity:1;fill:#f66151;fill-opacity:1;fill-rule:evenodd;stroke:#000000;stroke-width:0.529167;stroke-linecap:butt;stroke-linejoin:miter;stroke-miterlimit:4;stroke-dasharray:none;stroke-dashoffset:0;stroke-opacity:1;stop-color:#000000;stop-opacity:1"
           id="rect1422"
           width="3.96875"
           height="18.520834"
           x="62.177082"
           y="89.958336"
           ry="0.13229166" />
        <rect
           style="font-variation-settings:normal;opacity:1;fill:#f66151;fill-opacity:1;fill-rule:evenodd;stroke:#000000;stroke-width:0.529167;stroke-linecap:butt;stroke-linejoin:miter;stroke-miterlimit:4;stroke-dasharray:none;stroke-dashoffset:0;stroke-opacity:1;stop-color:#000000;stop-opacity:1"
           id="rect1424"
           width="6.6145883"
           height="3.9687397"
           x="54.239582"
           y="104.51041"
           ry="0.13229166" />
        <rect
           style="font-variation-settings:normal;opacity:1;fill:#f5c211;fill-opacity:1;fill-rule:evenodd;stroke:#000000;stroke-width:0.529167;stroke-linecap:butt;stroke-linejoin:miter;stroke-miterlimit:4;stroke-dasharray:none;stroke-dashoffset:0;stroke-opacity:1;stop-color:#000000;stop-opacity:1"
           id="rect1547"
           width="2.6458333"
           height="2.6458333"
           x="35.71875"
           y="91.28125"
           ry="0.13229166" />
        <rect
           style="font-variation-settings:normal;opacity:1;fill:#f5c211;fill-opacity:1;fill-rule:evenodd;stroke:#000000;stroke-width:0.529167;stroke-linecap:butt;stroke-linejoin:miter;stroke-miterlimit:4;stroke-dasharray:none;stroke-dashoffset:0;stroke-opacity:1;stop-color:#000000;stop-opacity:1"
           id="rect1549"
           width="2.6458333"
           height="11.90625"
           x="35.71875"
           y="95.25"
           ry="0.13229166" />
        <rect
           style="font-variation-settings:normal;opacity:1;fill:#f5c211;fill-opacity:1;fill-rule:evenodd;stroke:#000000;stroke-width:0.529167;stroke-linecap:butt;stroke-linejoin:miter;stroke-miterlimit:4;stroke-dasharray:none;stroke-dashoffset:0;stroke-opacity:1;stop-color:#000000;stop-opacity:1"
           id="rect1551"
           width="5.2916665"
           height="2.6458333"
           x="39.6875"
           y="91.28125"
           ry="0.13229166" />
        <rect
           style="font-variation-settings:normal;opacity:1;fill:#f5c211;fill-opacity:1;fill-rule:evenodd;stroke:#000000;stroke-width:0.529167;stroke-linecap:butt;stroke-linejoin:miter;stroke-miterlimit:4;stroke-dasharray:none;stroke-dashoffset:0;stroke-opacity:1;stop-color:#000000;stop-opacity:1"
           id="rect1553"
           width="2.6458333"
           height="2.6458333"
           x="46.302082"
           y="91.28125"
           ry="0.13229166" />
        <rect
           style="font-variation-settings:normal;opacity:1;fill:#f5c211;fill-opacity:1;fill-rule:evenodd;stroke:#000000;stroke-width:0.529167;stroke-linecap:butt;stroke-linejoin:miter;stroke-miterlimit:4;stroke-dasharray:none;stroke-dashoffset:0;stroke-opacity:1;stop-color:#000000;stop-opacity:1"
           id="rect1555"
           width="2.6458333"
           height="11.90625"
           x="39.6875"
           y="95.25"
           ry="0.13229166" />
        <rect
           style="font-variation-settings:normal;opacity:1;fill:#f5c211;fill-opacity:1;fill-rule:evenodd;stroke:#000000;stroke-width:0.529167;stroke-linecap:butt;stroke-linejoin:miter;stroke-miterlimit:4;stroke-dasharray:none;stroke-dashoffset:0;stroke-opacity:1;stop-color:#000000;stop-opacity:1"
           id="rect1557"
           width="7.9375"
           height="2.6458333"
           x="43.65625"
           y="95.25"
           ry="0.13229166" />
        <rect
           style="font-variation-settings:normal;opacity:1;fill:#f5c211;fill-opacity:1;fill-rule:evenodd;stroke:#000000;stroke-width:0.529167;stroke-linecap:butt;stroke-linejoin:miter;stroke-miterlimit:4;stroke-dasharray:none;stroke-dashoffset:0;stroke-opacity:1;stop-color:#000000;stop-opacity:1"
           id="rect1559"
           width="1.3229166"
           height="2.6458333"
           x="50.270832"
           y="91.28125"
           ry="0.13229166" />
        <rect
           style="font-variation-settings:normal;opacity:1;fill:#f5c211;fill-opacity:1;fill-rule:evenodd;stroke:#000000;stroke-width:0.529167;stroke-linecap:butt;stroke-linejoin:miter;stroke-miterlimit:4;stroke-dasharray:none;stroke-dashoffset:0;stroke-opacity:1;stop-color:#000000;stop-opacity:1"
           id="rect1561"
           width="7.9375"
           height="7.9375"
           x="43.65625"
           y="99.21875"
           ry="0.13229166" />
        <rect
           style="font-variation-settings:normal;opacity:1;fill:#f5c211;fill-opacity:1;fill-rule:evenodd;stroke:#000000;stroke-width:0.529167;stroke-linecap:butt;stroke-linejoin:miter;stroke-miterlimit:4;stroke-dasharray:none;stroke-dashoffset:0;stroke-opacity:1;stop-color:#000000;stop-opacity:1"
           id="rect1563"
           width="2.6458333"
           height="9.260417"
           x="47.625"
           y="78.052086"
           ry="0.13229166" />
        <rect
           style="font-variation-settings:normal;opacity:1;fill:#f5c211;fill-opacity:1;fill-rule:evenodd;stroke:#000000;stroke-width:0.529167;stroke-linecap:butt;stroke-linejoin:miter;stroke-miterlimit:4;stroke-dasharray:none;stroke-dashoffset:0;stroke-opacity:1;stop-color:#000000;stop-opacity:1"
           id="rect1565"
           width="5.2916665"
           height="5.2916665"
           x="51.59375"
           y="78.052086"
           ry="0.13229166" />
        <rect
           style="font-variation-settings:normal;opacity:1;fill:#f5c211;fill-opacity:1;fill-rule:evenodd;stroke:#000000;stroke-width:0.529167;stroke-linecap:butt;stroke-linejoin:miter;stroke-miterlimit:4;stroke-dasharray:none;stroke-dashoffset:0;stroke-opacity:1;stop-color:#000000;stop-opacity:1"
           id="rect1567"
           width="5.2916665"
           height="2.6458333"
           x="51.59375"
           y="84.666664"
           ry="0.13229166" />
        <rect
           style="font-variation-settings:normal;opacity:1;fill:#f5c211;fill-opacity:1;fill-rule:evenodd;stroke:#000000;stroke-width:0.529167;stroke-linecap:butt;stroke-linejoin:miter;stroke-miterlimit:4;stroke-dasharray:none;stroke-dashoffset:0;stroke-opacity:1;stop-color:#000000;stop-opacity:1"
           id="rect1569"
           width="6.614583"
           height="9.260417"
           x="58.208332"
           y="78.052086"
           ry="0.13229166" />
        <rect
           style="font-variation-settings:normal;opacity:1;fill:#f9f06b;fill-opacity:1;fill-rule:evenodd;stroke:#000000;stroke-width:0.529167;stroke-linecap:butt;stroke-linejoin:miter;stroke-miterlimit:4;stroke-dasharray:none;stroke-dashoffset:0;stroke-opacity:1;stop-color:#000000;stop-opacity:1"
           id="rect1571"
           width="3.96875"
           height="2.6458333"
           x="59.53125"
           y="79.375"
           ry="0.13229166" />
        <rect
           style="font-variation-settings:normal;opacity:1;fill:#f9f06b;fill-opacity:1;fill-rule:evenodd;stroke:#000000;stroke-width:0.529167;stroke-linecap:butt;stroke-linejoin:miter;stroke-miterlimit:4;stroke-dasharray:none;stroke-dashoffset:0;stroke-opacity:1;stop-color:#000000;stop-opacity:1"
           id="rect1573"
           width="3.96875"
           height="2.6458333"
           x="59.53125"
           y="83.34375"
           ry="0.13229166" />
        <rect
           style="font-variation-settings:normal;opacity:1;fill:#f5c211;fill-opacity:1;fill-rule:evenodd;stroke:#000000;stroke-width:0.529167;stroke-linecap:butt;stroke-linejoin:miter;stroke-miterlimit:4;stroke-dasharray:none;stroke-dashoffset:0;stroke-opacity:1;stop-color:#000000;stop-opacity:1"
           id="rect1776"
           width="3.96875"
           height="3.96875"
           x="35.71875"
           y="78.052086"
           ry="0.13229166" />
        <rect
           style="font-variation-settings:normal;opacity:1;fill:#f5c211;fill-opacity:1;fill-rule:evenodd;stroke:#000000;stroke-width:0.529167;stroke-linecap:butt;stroke-linejoin:miter;stroke-miterlimit:4;stroke-dasharray:none;stroke-dashoffset:0;stroke-opacity:1;stop-color:#000000;stop-opacity:1"
           id="rect1778"
           width="2.6458333"
           height="3.96875"
           x="41.010418"
           y="78.052086"
           ry="0.13229166" />
        <rect
           style="font-variation-settings:normal;opacity:1;fill:#f5c211;fill-opacity:1;fill-rule:evenodd;stroke:#000000;stroke-width:0.529167;stroke-linecap:butt;stroke-linejoin:miter;stroke-miterlimit:4;stroke-dasharray:none;stroke-dashoffset:0;stroke-opacity:1;stop-color:#000000;stop-opacity:1"
           id="rect1780"
           width="7.9375"
           height="1.3229166"
           x="35.71875"
           y="83.34375"
           ry="0.13229166" />
        <rect
           style="font-variation-settings:normal;opacity:1;fill:#f5c211;fill-opacity:1;fill-rule:evenodd;stroke:#000000;stroke-width:0.529167;stroke-linecap:butt;stroke-linejoin:miter;stroke-miterlimit:4;stroke-dasharray:none;stroke-dashoffset:0;stroke-opacity:1;stop-color:#000000;stop-opacity:1"
           id="rect1782"
           width="7.9375"
           height="1.3229166"
           x="35.71875"
           y="85.989586"
           ry="0.13229166" />
        <rect
           style="font-variation-settings:normal;opacity:1;fill:#f5c211;fill-opacity:1;fill-rule:evenodd;stroke:#000000;stroke-width:0.529167;stroke-linecap:butt;stroke-linejoin:miter;stroke-miterlimit:4;stroke-dasharray:none;stroke-dashoffset:0;stroke-opacity:1;stop-color:#000000;stop-opacity:1"
           id="rect1784"
           width="3.96875"
           height="2.6458333"
           x="55.5625"
           y="96.572914"
           ry="0.13229166" />
        <rect
           style="font-variation-settings:normal;opacity:1;fill:#f5c211;fill-opacity:1;fill-rule:evenodd;stroke:#000000;stroke-width:0.529167;stroke-linecap:butt;stroke-linejoin:miter;stroke-miterlimit:4;stroke-dasharray:none;stroke-dashoffset:0;stroke-opacity:1;stop-color:#000000;stop-opacity:1"
           id="rect1786"
           width="3.96875"
           height="1.3229166"
           x="55.5625"
           y="100.54166"
           ry="0.13229166" />
        <rect
           style="font-variation-settings:normal;opacity:1;fill:#f5c211;fill-opacity:1;fill-rule:evenodd;stroke:#000000;stroke-width:0.529167;stroke-linecap:butt;stroke-linejoin:miter;stroke-miterlimit:4;stroke-dasharray:none;stroke-dashoffset:0;stroke-opacity:1;stop-color:#000000;stop-opacity:1"
           id="rect1788"
           width="1.3229166"
           height="1.3229166"
           x="63.5"
           y="91.28125"
           ry="0.13229166" />
        <rect
           style="font-variation-settings:normal;opacity:1;fill:#f5c211;fill-opacity:1;fill-rule:evenodd;stroke:#000000;stroke-width:0.529167;stroke-linecap:butt;stroke-linejoin:miter;stroke-miterlimit:4;stroke-dasharray:none;stroke-dashoffset:0;stroke-opacity:1;stop-color:#000000;stop-opacity:1"
           id="rect1790"
           width="1.3229166"
           height="1.3229166"
           x="63.5"
           y="93.927086"
           ry="0.13229166" />
        <rect
           style="font-variation-settings:normal;opacity:1;fill:#f5c211;fill-opacity:1;fill-rule:evenodd;stroke:#000000;stroke-width:0.529167;stroke-linecap:butt;stroke-linejoin:miter;stroke-miterlimit:4;stroke-dasharray:none;stroke-dashoffset:0;stroke-opacity:1;stop-color:#000000;stop-opacity:1"
           id="rect1792"
           width="1.3229166"
           height="1.3229166"
           x="63.5"
           y="96.572914"
           ry="0.13229166" />
        <rect
           style="font-variation-settings:normal;opacity:1;fill:#f5c211;fill-opacity:1;fill-rule:evenodd;stroke:#000000;stroke-width:0.529167;stroke-linecap:butt;stroke-linejoin:miter;stroke-miterlimit:4;stroke-dasharray:none;stroke-dashoffset:0;stroke-opacity:1;stop-color:#000000;stop-opacity:1"
           id="rect1794"
           width="1.3229166"
           height="1.3229166"
           x="63.5"
           y="99.21875"
           ry="0.13229166" />
        <rect
           style="font-variation-settings:normal;opacity:1;fill:#f5c211;fill-opacity:1;fill-rule:evenodd;stroke:#000000;stroke-width:0.529167;stroke-linecap:butt;stroke-linejoin:miter;stroke-miterlimit:4;stroke-dasharray:none;stroke-dashoffset:0;stroke-opacity:1;stop-color:#000000;stop-opacity:1"
           id="rect1796"
           width="1.3229166"
           height="1.3229166"
           x="63.5"
           y="101.86458"
           ry="0.13229166" />
        <rect
           style="font-variation-settings:normal;opacity:1;fill:#f5c211;fill-opacity:1;fill-rule:evenodd;stroke:#000000;stroke-width:0.529167;stroke-linecap:butt;stroke-linejoin:miter;stroke-miterlimit:4;stroke-dasharray:none;stroke-dashoffset:0;stroke-opacity:1;stop-color:#000000;stop-opacity:1"
           id="rect1798"
           width="1.3229166"
           height="1.3229166"
           x="63.5"
           y="104.51041"
           ry="0.13229166" />
      </g>
      <g
         id="g3677"
         transform="translate(-15.875,0.66145372)">
        <g
           id="g3022">
          <rect
             style="font-variation-settings:normal;opacity:1;fill:#364e59;fill-opacity:1;fill-rule:evenodd;stroke:#000000;stroke-width:0.79375;stroke-linecap:butt;stroke-linejoin:miter;stroke-miterlimit:4;stroke-dasharray:none;stroke-dashoffset:0;stroke-opacity:1;stop-color:#000000;stop-opacity:1"
             id="rect1168"
             width="11.906249"
             height="11.906249"
             x="88.635414"
             y="85.989586"
             ry="1.3229141"
             rx="1.3229141" />
        </g>
        <rect
           style="font-variation-settings:normal;vector-effect:none;fill:#f66151;fill-opacity:1;fill-rule:evenodd;stroke:#000000;stroke-width:0.264583;stroke-linecap:butt;stroke-linejoin:miter;stroke-miterlimit:4;stroke-dasharray:none;stroke-dashoffset:0;stroke-opacity:1;stop-color:#000000"
           id="rect3136"
           width="9.260417"
           height="1.3229166"
           x="89.958336"
           y="92.604164"
           ry="0.13229166" />
        <rect
           style="font-variation-settings:normal;vector-effect:none;fill:#f66151;fill-opacity:1;fill-rule:evenodd;stroke:#000000;stroke-width:0.264583;stroke-linecap:butt;stroke-linejoin:miter;stroke-miterlimit:4;stroke-dasharray:none;stroke-dashoffset:0;stroke-opacity:1;stop-color:#000000"
           id="rect3138"
           width="9.260417"
           height="1.3229166"
           x="89.958336"
           y="95.25"
           ry="0.13229166" />
        <rect
           style="font-variation-settings:normal;vector-effect:none;fill:#f66151;fill-opacity:1;fill-rule:evenodd;stroke:#000000;stroke-width:0.264583;stroke-linecap:butt;stroke-linejoin:miter;stroke-miterlimit:4;stroke-dasharray:none;stroke-dashoffset:0;stroke-opacity:1;stop-color:#000000"
           id="rect3319"
           width="9.260417"
           height="1.3229166"
           x="89.958336"
           y="89.958336"
           ry="0.13229166" />
        <rect
           style="font-variation-settings:normal;vector-effect:none;fill:#f66151;fill-opacity:1;fill-rule:evenodd;stroke:#000000;stroke-width:0.264583;stroke-linecap:butt;stroke-linejoin:miter;stroke-miterlimit:4;stroke-dasharray:none;stroke-dashoffset:0;stroke-opacity:1;stop-color:#000000"
           id="rect3423"
           width="1.3229166"
           height="1.3229166"
           x="89.958336"
           y="87.3125"
           ry="0.13229166" />
        <rect
           style="font-variation-settings:normal;vector-effect:none;fill:#f66151;fill-opacity:1;fill-rule:evenodd;stroke:#000000;stroke-width:0.264583;stroke-linecap:butt;stroke-linejoin:miter;stroke-miterlimit:4;stroke-dasharray:none;stroke-dashoffset:0;stroke-opacity:1;stop-color:#000000"
           id="rect3425"
           width="1.3229166"
           height="1.3229166"
           x="92.604164"
           y="87.3125"
           ry="0.13229166" />
        <rect
           style="font-variation-settings:normal;vector-effect:none;fill:#f66151;fill-opacity:1;fill-rule:evenodd;stroke:#000000;stroke-width:0.264583;stroke-linecap:butt;stroke-linejoin:miter;stroke-miterlimit:4;stroke-dasharray:none;stroke-dashoffset:0;stroke-opacity:1;stop-color:#000000"
           id="rect3427"
           width="1.3229166"
           height="1.3229166"
           x="95.25"
           y="87.3125"
           ry="0.13229166" />
        <rect
           style="font-variation-settings:normal;vector-effect:none;fill:#f66151;fill-opacity:1;fill-rule:evenodd;stroke:#000000;stroke-width:0.264583;stroke-linecap:butt;stroke-linejoin:miter;stroke-miterlimit:4;stroke-dasharray:none;stroke-dashoffset:0;stroke-opacity:1;stop-color:#000000"
           id="rect3429"
           width="1.3229166"
           height="1.3229166"
           x="97.895836"
           y="87.3125"
           ry="0.13229166" />
      </g>
      <g
         style="fill:#000000;fill-opacity:1"
         id="id-aa7e7dcb-2640-446d-b739-096cfbfec16c"
         transform="matrix(0.38676099,0,0,0.38676099,-11.240359,20.606254)">
        <g
           transform="translate(148.712,134.765)"
           id="g1413">
          <path
             style="stroke:none"
             d="m 4.671875,-3.046875 c 0,-2.875 -0.21875,-3.15625 -2.0625,-3.15625 -1.84375,0 -2.046875,0.265625 -2.046875,3.15625 0,2.890625 0.203125,3.15625 2.046875,3.15625 1.84375,0 2.0625,-0.265625 2.0625,-3.15625 z M 2.609375,-0.5 c -0.875,0 -1.125,-0.203125 -1.25,-0.703125 C 1.25,-1.71875 1.25,-2.578125 1.25,-3.125 c 0,-0.625 0,-1.296875 0.109375,-1.765625 0.125,-0.578125 0.4375,-0.703125 1.25,-0.703125 0.75,0 1.09375,0.09375 1.25,0.640625 0.125,0.46875 0.125,1.21875 0.125,1.828125 0,0.609375 0,1.328125 -0.109375,1.859375 C 3.765625,-0.703125 3.5,-0.5 2.609375,-0.5 Z m 0,0"
             id="id-012c13c4-9e71-4059-8c1d-a416bc7e9ee0" />
        </g>
        <g
           transform="translate(153.942,134.765)"
           id="g1416">
          <path
             style="stroke:none"
             d="m 1.65625,-3.875 v -1.8125 c 0,-0.296875 -0.0625,-0.40625 -0.40625,-0.40625 H 0.53125 c -0.15625,0 -0.40625,0 -0.40625,0.3125 0,0.296875 0.25,0.296875 0.390625,0.296875 H 0.96875 V -0.40625 C 0.96875,-0.203125 0.96875,0 1.3125,0 1.65625,0 1.65625,-0.203125 1.65625,-0.453125 2.0625,-0.03125 2.5,0.0625 2.8125,0.0625 c 1.078125,0 2.046875,-0.953125 2.046875,-2.21875 0,-1.21875 -0.875,-2.203125 -1.9375,-2.203125 C 2.4375,-4.359375 2,-4.171875 1.65625,-3.875 Z m 0,1.96875 V -2.625 c 0,-0.59375 0.578125,-1.125 1.203125,-1.125 0.734375,0 1.3125,0.734375 1.3125,1.59375 0,0.953125 -0.6875,1.609375 -1.390625,1.609375 -0.78125,0 -1.125,-0.875 -1.125,-1.359375 z m 0,0"
             id="id-10ed0b8f-6399-4586-8101-00aeba59af41" />
        </g>
        <g
           transform="translate(159.173,134.765)"
           id="g1419">
          <path
             style="stroke:none"
             d="m 3.671875,-3.890625 c 0,-0.3125 -0.0625,-0.40625 -0.40625,-0.40625 H 1.6875 c -0.15625,0 -0.40625,0 -0.40625,0.3125 0,0.296875 0.25,0.296875 0.40625,0.296875 h 1.296875 v 4.078125 c 0,0.171875 0,0.546875 -0.265625,0.890625 C 2.453125,1.671875 2.140625,1.671875 1.90625,1.671875 1.625,1.671875 1.5,1.640625 1.359375,1.625 c 0,-0.03125 0,-0.046875 0,-0.125 0,-0.28125 -0.21875,-0.4375 -0.4375,-0.4375 -0.21875,0 -0.4375,0.15625 -0.4375,0.453125 0,0.75 0.96875,0.75 1.375,0.75 1.453125,0 1.8125,-1.1875 1.8125,-1.828125 z m 0,-1.71875 c 0,-0.265625 -0.21875,-0.484375 -0.5,-0.484375 -0.28125,0 -0.5,0.21875 -0.5,0.484375 0,0.28125 0.21875,0.5 0.5,0.5 0.28125,0 0.5,-0.21875 0.5,-0.5 z m 0,0"
             id="id-7d18a9bd-64bb-4465-86f4-71a976b25443" />
        </g>
        <g
           transform="translate(164.403,134.765)"
           id="g1422">
          <path
             style="stroke:none"
             d="m 3.09375,-5.796875 c 0,-0.15625 0,-0.40625 -0.296875,-0.40625 -0.1875,0 -0.25,0.125 -0.296875,0.234375 C 2.125,-5.109375 1.609375,-5 1.421875,-4.984375 c -0.171875,0.015625 -0.375,0.03125 -0.375,0.3125 0,0.25 0.171875,0.296875 0.328125,0.296875 0.1875,0 0.59375,-0.0625 1.03125,-0.4375 v 4.203125 H 1.5 c -0.15625,0 -0.390625,0 -0.390625,0.3125 C 1.109375,0 1.359375,0 1.5,0 H 4 c 0.15625,0 0.40625,0 0.40625,-0.296875 0,-0.3125 -0.234375,-0.3125 -0.40625,-0.3125 H 3.09375 Z m 0,0"
             id="id-1bdeb248-ca07-4bd8-8337-56b90e9680b2" />
        </g>
      </g>
      <g
         style="fill:#000000;fill-opacity:1"
         id="id-cb755e0a-235c-4a10-8b82-5bfe8ea9e5ae"
         transform="matrix(0.38676099,0,0,0.38676099,7.7702361,31.718752)">
        <g
           transform="translate(172.951,134.765)"
           id="g1426">
          <path
             style="stroke:none"
             d="m 4.671875,-3.046875 c 0,-2.875 -0.21875,-3.15625 -2.0625,-3.15625 -1.84375,0 -2.046875,0.265625 -2.046875,3.15625 0,2.890625 0.203125,3.15625 2.046875,3.15625 1.84375,0 2.0625,-0.265625 2.0625,-3.15625 z M 2.609375,-0.5 c -0.875,0 -1.125,-0.203125 -1.25,-0.703125 C 1.25,-1.71875 1.25,-2.578125 1.25,-3.125 c 0,-0.625 0,-1.296875 0.109375,-1.765625 0.125,-0.578125 0.4375,-0.703125 1.25,-0.703125 0.75,0 1.09375,0.09375 1.25,0.640625 0.125,0.46875 0.125,1.21875 0.125,1.828125 0,0.609375 0,1.328125 -0.109375,1.859375 C 3.765625,-0.703125 3.5,-0.5 2.609375,-0.5 Z m 0,0"
             id="id-ccf04595-60b1-4955-85b2-85d1e162359f" />
        </g>
        <g
           transform="translate(178.181,134.765)"
           id="g1429">
          <path
             style="stroke:none"
             d="m 1.65625,-3.875 v -1.8125 c 0,-0.296875 -0.0625,-0.40625 -0.40625,-0.40625 H 0.53125 c -0.15625,0 -0.40625,0 -0.40625,0.3125 0,0.296875 0.25,0.296875 0.390625,0.296875 H 0.96875 V -0.40625 C 0.96875,-0.203125 0.96875,0 1.3125,0 1.65625,0 1.65625,-0.203125 1.65625,-0.453125 2.0625,-0.03125 2.5,0.0625 2.8125,0.0625 c 1.078125,0 2.046875,-0.953125 2.046875,-2.21875 0,-1.21875 -0.875,-2.203125 -1.9375,-2.203125 C 2.4375,-4.359375 2,-4.171875 1.65625,-3.875 Z m 0,1.96875 V -2.625 c 0,-0.59375 0.578125,-1.125 1.203125,-1.125 0.734375,0 1.3125,0.734375 1.3125,1.59375 0,0.953125 -0.6875,1.609375 -1.390625,1.609375 -0.78125,0 -1.125,-0.875 -1.125,-1.359375 z m 0,0"
             id="id-23aab393-036f-4dea-b45b-40191372820c" />
        </g>
        <g
           transform="translate(183.412,134.765)"
           id="g1432">
          <path
             style="stroke:none"
             d="m 3.671875,-3.890625 c 0,-0.3125 -0.0625,-0.40625 -0.40625,-0.40625 H 1.6875 c -0.15625,0 -0.40625,0 -0.40625,0.3125 0,0.296875 0.25,0.296875 0.40625,0.296875 h 1.296875 v 4.078125 c 0,0.171875 0,0.546875 -0.265625,0.890625 C 2.453125,1.671875 2.140625,1.671875 1.90625,1.671875 1.625,1.671875 1.5,1.640625 1.359375,1.625 c 0,-0.03125 0,-0.046875 0,-0.125 0,-0.28125 -0.21875,-0.4375 -0.4375,-0.4375 -0.21875,0 -0.4375,0.15625 -0.4375,0.453125 0,0.75 0.96875,0.75 1.375,0.75 1.453125,0 1.8125,-1.1875 1.8125,-1.828125 z m 0,-1.71875 c 0,-0.265625 -0.21875,-0.484375 -0.5,-0.484375 -0.28125,0 -0.5,0.21875 -0.5,0.484375 0,0.28125 0.21875,0.5 0.5,0.5 0.28125,0 0.5,-0.21875 0.5,-0.5 z m 0,0"
             id="id-80b3ebd7-ac7c-4e57-8ce4-dcc851855063" />
        </g>
        <g
           transform="translate(188.642,134.765)"
           id="g1435">
          <path
             style="stroke:none"
             d="M 0.671875,-0.578125 C 0.578125,-0.5 0.515625,-0.453125 0.515625,-0.3125 0.515625,0 0.765625,0 0.921875,0 H 4.3125 c 0.328125,0 0.390625,-0.09375 0.390625,-0.40625 v -0.265625 c 0,-0.1875 0,-0.40625 -0.34375,-0.40625 -0.34375,0 -0.34375,0.1875 -0.34375,0.46875 h -2.375 c 0.59375,-0.5 1.546875,-1.25 1.984375,-1.65625 0.625,-0.5625 1.078125,-1.1875 1.078125,-1.984375 0,-1.203125 -1,-1.953125 -2.21875,-1.953125 -1.171875,0 -1.96875,0.8125 -1.96875,1.671875 0,0.359375 0.28125,0.46875 0.453125,0.46875 0.203125,0 0.4375,-0.171875 0.4375,-0.4375 0,-0.125 -0.046875,-0.25 -0.140625,-0.328125 0.15625,-0.453125 0.625,-0.765625 1.171875,-0.765625 0.8125,0 1.578125,0.453125 1.578125,1.34375 0,0.6875 -0.484375,1.265625 -1.140625,1.8125 z m 0,0"
             id="id-8cca93f8-e8ab-4278-bf39-7b651e839a42" />
        </g>
      </g>
    </g>
  </g>
</svg>
