<?xml version="1.0" encoding="UTF-8" standalone="no"?>
<svg
   width="58.459473mm"
   height="38.442154mm"
   version="1.1"
   viewBox="0 0 58.459474 38.442156"
   id="svg872"
   sodipodi:docname="conic_tank_related_rates.svg"
   inkscape:version="1.1 (c4e8f9e, 2021-05-24)"
   xmlns:inkscape="http://www.inkscape.org/namespaces/inkscape"
   xmlns:sodipodi="http://sodipodi.sourceforge.net/DTD/sodipodi-0.dtd"
   xmlns="http://www.w3.org/2000/svg"
   xmlns:svg="http://www.w3.org/2000/svg"
   xmlns:ns1="http://www.iki.fi/pav/software/textext/">
  <defs
     id="defs876" />
  <sodipodi:namedview
     id="namedview874"
     pagecolor="#ffffff"
     bordercolor="#666666"
     borderopacity="1.0"
     inkscape:pageshadow="2"
     inkscape:pageopacity="0.0"
     inkscape:pagecheckerboard="0"
     inkscape:document-units="mm"
     showgrid="false"
     inkscape:zoom="2.1532409"
     inkscape:cx="149.30982"
     inkscape:cy="85.220378"
     inkscape:window-width="1440"
     inkscape:window-height="847"
     inkscape:window-x="1876"
     inkscape:window-y="133"
     inkscape:window-maximized="0"
     inkscape:current-layer="svg872">
    <inkscape:grid
       type="xygrid"
       id="grid982"
       originx="0.00028982258"
       originy="-0.0049300002" />
  </sodipodi:namedview>
  <g
     id="g1847"
     transform="translate(2.8982258e-4,-0.00493)">
    <g
       fill="none"
       id="g844"
       transform="translate(-42.201,-99.317)">
      <g
         stroke="#364e59"
         id="g830">
        <ellipse
           cx="58.208"
           cy="103.19"
           rx="15.875"
           ry="2.6458001"
           stop-color="#000000"
           stroke-width="0.26458"
           style="font-variation-settings:normal"
           id="ellipse824" />
        <path
           d="m 42.333,103.19 15.875,34.396"
           stroke-width="0.26458px"
           id="path826" />
        <path
           d="M 74.083,103.19 58.208,137.586"
           stroke-width="0.26458px"
           id="path828" />
      </g>
      <path
         d="m 58.208,103.19 v 34.396"
         stroke="#9eabb0"
         stroke-dasharray="0.793749, 0.793749"
         stroke-width="0.26458"
         id="path832" />
      <path
         d="M 58.208,103.19 H 74.083"
         stroke="#9eabb0"
         stroke-dasharray="0.793749, 0.793749"
         stroke-width="0.26458"
         id="path834" />
      <g
         stroke="#364e59"
         stroke-width="0.26458"
         id="g842">
        <path
           d="m 100.54,103.19 -6.0854,13.229 -9.7896,21.167"
           id="path836" />
        <path
           d="m 84.667,103.19 -10e-7,13.229 10e-7,21.167"
           id="path838" />
        <path
           d="m 84.667,103.19 h 15.875"
           id="path840" />
      </g>
    </g>
    <path
       d="m 24.086,2.423 v 0.3512 c 0,0.14687 -0.01277,0.19157 -0.31289,0.19157 H 23.6901 v 0.12771 c 0.16602,-0.0128 0.37675,-0.0128 0.54916,-0.0128 0.17241,0 0.38313,0 0.55554,0.0128 V 2.96577 h -0.0894 c -0.30012,0 -0.30651,-0.0447 -0.30651,-0.19157 V 2.423 h 0.40229 V 2.29529 h -0.40229 v -1.8518 c 0,-0.083 0,-0.10856 -0.07024,-0.10856 -0.03193,0 -0.0447,0 -0.07663,0.0511 l -1.2516,1.9093 V 2.42304 Z M 24.10516,2.29529 H 23.1154 l 0.98976,-1.5198 z"
       id="path846" />
    <g
       transform="translate(-40.5209,-130.567)"
       id="g851">
      <path
         d="m 52.698,146.18 c 0,-0.10217 0,-0.10856 -0.09578,-0.10856 -0.25542,0.26181 -0.61301,0.26181 -0.74072,0.26181 v 0.12771 c 0.08301,0 0.31928,0 0.53,-0.10855 v 2.1136 c 0,0.14687 -0.01277,0.19157 -0.37675,0.19157 h -0.12771 v 0.12771 c 0.14048,-0.0128 0.49169,-0.0128 0.65771,-0.0128 0.15964,0 0.51723,0 0.65771,0.0128 v -0.12771 h -0.12771 c -0.37036,0 -0.37675,-0.0447 -0.37675,-0.19157 z"
         id="path848" />
      <path
         id="id-7617668b-187e-40d9-a8d9-758ee7f1a41e"
         d="m 55.405,147.48 c 0,-0.32566 -0.01916,-0.65133 -0.15964,-0.95145 -0.18518,-0.3959 -0.52362,-0.45976 -0.68964,-0.45976 -0.24904,0 -0.54277,0.10856 -0.71518,0.4853 -0.12771,0.28097 -0.14687,0.60025 -0.14687,0.92591 0,0.3065 0.01277,0.67048 0.18518,0.98337 0.17241,0.32567 0.47253,0.40868 0.67048,0.40868 0.21711,0 0.53,-0.083 0.7088,-0.47253 0.12771,-0.28097 0.14687,-0.60024 0.14687,-0.91952 z m -0.85566,1.3026 c -0.15964,0 -0.40229,-0.10217 -0.47253,-0.49169 -0.0447,-0.24265 -0.0447,-0.6194 -0.0447,-0.86205 0,-0.2618 0,-0.53 0.03193,-0.74711 0.07663,-0.4853 0.38313,-0.52361 0.4853,-0.52361 0.1341,0 0.40229,0.0766 0.47892,0.47892 0.0447,0.22988 0.0447,0.53638 0.0447,0.7918 0,0.30651 0,0.58109 -0.0447,0.8429 -0.06386,0.38951 -0.29374,0.51084 -0.47892,0.51084 z" />
    </g>
    <g
       transform="translate(-20.74475,-133.12324)"
       id="g856">
      <path
         d="m 56.77,146.18 c 0,-0.10217 0,-0.10856 -0.09578,-0.10856 -0.25542,0.26181 -0.61301,0.26181 -0.74072,0.26181 v 0.12771 c 0.08301,0 0.31928,0 0.53,-0.10855 v 2.1136 c 0,0.14687 -0.01277,0.19157 -0.37675,0.19157 h -0.12771 v 0.12771 c 0.14048,-0.0128 0.49169,-0.0128 0.65771,-0.0128 0.15964,0 0.51723,0 0.65771,0.0128 v -0.12771 h -0.12771 c -0.37036,0 -0.37675,-0.0447 -0.37675,-0.19157 z"
         id="path853" />
      <path
         id="id-32ca376e-d001-4d55-ac13-fbb12db7213a"
         d="m 59.476,147.48 c 0,-0.32566 -0.01916,-0.65133 -0.15964,-0.95145 -0.18518,-0.3959 -0.52362,-0.45976 -0.68964,-0.45976 -0.24904,0 -0.54277,0.10856 -0.71518,0.4853 -0.12771,0.28097 -0.14687,0.60025 -0.14687,0.92591 0,0.3065 0.01277,0.67048 0.18518,0.98337 0.17241,0.32567 0.47253,0.40868 0.67048,0.40868 0.21711,0 0.53,-0.083 0.7088,-0.47253 0.12771,-0.28097 0.14687,-0.60024 0.14687,-0.91952 z m -0.85566,1.3026 c -0.15964,0 -0.40229,-0.10217 -0.47253,-0.49169 -0.0447,-0.24265 -0.0447,-0.6194 -0.0447,-0.86205 0,-0.2618 0,-0.53 0.03193,-0.74711 0.07663,-0.4853 0.38313,-0.52361 0.4853,-0.52361 0.1341,0 0.40229,0.0766 0.47892,0.47892 0.0447,0.22988 0.0447,0.53638 0.0447,0.7918 0,0.30651 0,0.58109 -0.0447,0.8429 -0.06385,0.38951 -0.29374,0.51084 -0.47892,0.51084 z" />
    </g>
    <path
       d="m 46.863,15.623 c -0.01277,0.0639 -0.03831,0.15964 -0.03831,0.17879 0,0.0703 0.05747,0.10856 0.12133,0.10856 0.05108,0 0.12132,-0.0319 0.15325,-0.11494 0.0064,-0.0128 0.14048,-0.56831 0.15964,-0.64494 0.03193,-0.1341 0.10855,-0.41506 0.12771,-0.53 0.01916,-0.0511 0.1341,-0.24265 0.22988,-0.33205 0.03193,-0.0255 0.15325,-0.1341 0.32566,-0.1341 0.10855,0 0.16602,0.0511 0.17241,0.0511 -0.12132,0.0191 -0.21072,0.11494 -0.21072,0.22349 0,0.0639 0.0447,0.14048 0.15325,0.14048 0.10855,0 0.22349,-0.0958 0.22349,-0.24265 0,-0.14048 -0.12771,-0.2618 -0.33843,-0.2618 -0.26181,0 -0.4406,0.19795 -0.51723,0.31289 -0.03831,-0.18518 -0.18518,-0.31289 -0.37675,-0.31289 -0.18518,0 -0.26181,0.15963 -0.30012,0.22988 -0.07024,0.14048 -0.12133,0.38313 -0.12133,0.3959 0,0.0447 0.03831,0.0447 0.0447,0.0447 0.0447,0 0.0447,-0.006 0.07024,-0.0958 0.07024,-0.28734 0.15325,-0.4853 0.30012,-0.4853 0.06386,0 0.12132,0.0319 0.12132,0.18518 0,0.0894 -0.01277,0.1341 -0.06386,0.34482 z"
       id="path858" />
    <path
       d="m 50.496,2.093 v 0.3512 c 0,0.14687 -0.01277,0.19157 -0.31289,0.19157 H 50.1001 v 0.12771 c 0.16602,-0.0128 0.37675,-0.0128 0.54916,-0.0128 0.17241,0 0.38313,0 0.55554,0.0128 V 2.63577 h -0.0894 c -0.30012,0 -0.30651,-0.0447 -0.30651,-0.19157 V 2.093 h 0.40229 V 1.96529 h -0.40229 v -1.8518 c 0,-0.083 0,-0.10856 -0.07024,-0.10856 -0.03193,0 -0.0447,0 -0.07663,0.0511 l -1.2516,1.9093 V 2.09304 Z M 50.51516,1.96529 H 49.5254 l 0.98976,-1.5198 z"
       id="path860" />
    <path
       d="m 42.466,17.103 h 9.7896"
       fill="none"
       stroke="#000000"
       stroke-width="0.26458px"
       id="path862" />
    <path
       d="m 42.623348,27.36655 -0.0019,-10.112777 h 4.694707 c 4.452353,0 4.691798,0.0054 4.639675,0.103948 -0.03021,0.05717 -2.118836,4.567709 -4.641262,10.023614 -2.522559,5.455904 -4.609513,9.959849 -4.637823,10.008796 -0.02915,0.05048 -0.05223,-4.294133 -0.05325,-10.023613 z"
       fill="#a7e0ff"
       opacity="0.95"
       stroke="#19aeff"
       stroke-linecap="round"
       stroke-linejoin="round"
       stroke-width="0.099998"
       id="path864" />
    <path
       d="M 31.882,3.873 H 42.465"
       fill="none"
       stroke="#bdcdd4"
       stroke-dasharray="0.265, 0.53"
       stroke-width="0.265"
       id="path866" />
    <path
       d="M 16.007,38.263 H 42.465"
       fill="none"
       stroke="#bdcdd4"
       stroke-dasharray="0.265, 0.53"
       stroke-width="0.265"
       id="path868" />
    <path
       style="fill:none;stroke:#9eabb0;stroke-width:0.165;stroke-linecap:butt;stroke-linejoin:miter;stroke-miterlimit:4;stroke-dasharray:none;stroke-opacity:1"
       d="m 37.041666,3.96875 v 7.9375"
       id="path1017" />
    <path
       style="fill:none;stroke:#9eabb0;stroke-width:0.165;stroke-linecap:butt;stroke-linejoin:miter;stroke-miterlimit:4;stroke-dasharray:none;stroke-opacity:1"
       d="M 37.041666,17.197916 V 38.364583"
       id="path1019" />
    <path
       style="fill:none;stroke:#9eabb0;stroke-width:0.165;stroke-linecap:butt;stroke-linejoin:miter;stroke-miterlimit:4;stroke-dasharray:none;stroke-opacity:1"
       d="m 35.71875,3.96875 h 2.645833"
       id="path1021" />
    <path
       style="fill:none;stroke:#9eabb0;stroke-width:0.165;stroke-linecap:butt;stroke-linejoin:miter;stroke-miterlimit:4;stroke-dasharray:none;stroke-opacity:1"
       d="m 35.71875,38.364583 h 2.645833"
       id="path1023" />
    <path
       style="fill:none;stroke:#9eabb0;stroke-width:0.165;stroke-linecap:butt;stroke-linejoin:miter;stroke-miterlimit:4;stroke-dasharray:none;stroke-opacity:1"
       d="m 39.6875,17.197916 h 1.322916"
       id="path1025" />
    <path
       style="fill:none;stroke:#9eabb0;stroke-width:0.165;stroke-linecap:butt;stroke-linejoin:miter;stroke-miterlimit:4;stroke-dasharray:none;stroke-opacity:1"
       d="m 39.6875,38.364583 h 1.322916"
       id="path1027" />
    <path
       style="fill:none;stroke:#9eabb0;stroke-width:0.165;stroke-linecap:butt;stroke-linejoin:miter;stroke-miterlimit:4;stroke-dasharray:none;stroke-opacity:1"
       d="m 40.216666,17.197916 1e-6,6.614584"
       id="path1029"
       sodipodi:nodetypes="cc" />
    <path
       style="fill:none;stroke:#9eabb0;stroke-width:0.165;stroke-linecap:butt;stroke-linejoin:miter;stroke-miterlimit:4;stroke-dasharray:none;stroke-opacity:1"
       d="m 40.216667,28.310417 -1e-6,10.054166"
       id="path1031"
       sodipodi:nodetypes="cc" />
    <g
       transform="matrix(0.709456,0,0,0.709456,37.724,28.8855)"
       ns1:version="1.3.1"
       ns1:texconverter="pdflatex"
       ns1:pdfconverter="inkscape"
       ns1:text="${h}$\n"
       ns1:preamble="/Users/ketiboldiais/Library/Application Support/org.inkscape.Inkscape/config/inkscape/extensions/circuitSymbols/circuitSymbolsPreamble.tex"
       ns1:scale="2.0110554948965156"
       ns1:alignment="middle center"
       ns1:jacobian_sqrt="0.709456"
       id="g1115">
      <defs
         id="id-118688ed-8d49-4ac5-98dc-855239100bdb">
        <g
           id="id-f728c663-5ad3-4b3a-9f9a-9fa345cac9d8">
          <symbol
             overflow="visible"
             id="id-7a239100-ece9-43b5-833c-28c3e1b15022">
            <path
               style="stroke:none;stroke-width:0"
               d=""
               id="id-bd359b5c-c711-4da6-baec-07b2414f940b" />
          </symbol>
          <symbol
             overflow="visible"
             id="id-f5d53ec1-88f4-4d3d-af48-97303919ee68">
            <path
               style="stroke:none;stroke-width:0"
               d="m 2.859375,-6.8125 c 0,0 0,-0.109375 -0.125,-0.109375 -0.234375,0 -0.953125,0.078125 -1.21875,0.109375 -0.078125,0 -0.1875,0.015625 -0.1875,0.1875 0,0.125 0.09375,0.125 0.234375,0.125 0.484375,0 0.5,0.0625 0.5,0.171875 L 2.03125,-6.125 0.59375,-0.390625 c -0.046875,0.140625 -0.046875,0.15625 -0.046875,0.21875 0,0.234375 0.203125,0.28125 0.296875,0.28125 0.15625,0 0.3125,-0.125 0.359375,-0.265625 l 0.1875,-0.75 0.21875,-0.890625 C 1.671875,-2.03125 1.734375,-2.25 1.78125,-2.46875 1.796875,-2.53125 1.890625,-2.859375 1.890625,-2.921875 1.921875,-3.015625 2.234375,-3.5625 2.578125,-3.84375 2.796875,-4 3.09375,-4.1875 3.53125,-4.1875 c 0.421875,0 0.53125,0.34375 0.53125,0.703125 0,0.53125 -0.375,1.625 -0.609375,2.234375 C 3.375,-1.03125 3.3125,-0.90625 3.3125,-0.703125 c 0,0.46875 0.359375,0.8125 0.828125,0.8125 0.9375,0 1.296875,-1.453125 1.296875,-1.53125 0,-0.109375 -0.078125,-0.109375 -0.109375,-0.109375 -0.109375,0 -0.109375,0.03125 -0.15625,0.1875 -0.140625,0.53125 -0.46875,1.234375 -1.015625,1.234375 -0.171875,0 -0.234375,-0.09375 -0.234375,-0.328125 0,-0.25 0.078125,-0.484375 0.171875,-0.703125 0.15625,-0.4375 0.609375,-1.625 0.609375,-2.203125 0,-0.640625 -0.390625,-1.0625 -1.140625,-1.0625 -0.625,0 -1.109375,0.3125 -1.484375,0.765625 z m 0,0"
               id="id-16e9d323-9b7e-4258-a77f-d28d1bf23e75" />
          </symbol>
        </g>
      </defs>
      <g
         id="id-166f2599-de92-43a2-85cd-9f5cac992c4c"
         transform="translate(-149.259,-127.843)">
        <g
           style="fill:#000000;fill-opacity:1"
           id="id-59e0164c-5d13-4f70-8bf8-4bdde00db4e8">
          <g
             transform="translate(148.712,134.765)"
             id="g1111">
            <path
               style="stroke:none;stroke-width:0"
               d="m 4.1973245,-12.533393 c 0,0 0,-0.05321 -0.060815,-0.05321 -0.1140276,0 -0.4637125,0.03801 -0.5929439,0.05321 -0.038009,0 -0.091222,0.0076 -0.091222,0.09122 0,0.06081 0.045611,0.06081 0.1140276,0.06081 0.2356572,0 0.2432591,0.03041 0.2432591,0.08362 l -0.015204,0.09882 -0.6993697,2.7898773 c -0.022806,0.068417 -0.022806,0.076018 -0.022806,0.1064258 0,0.1140277 0.098824,0.1368333 0.1444351,0.1368333 0.076018,0 0.1520369,-0.060815 0.1748424,-0.1292314 l 0.091222,-0.3648886 0.1064258,-0.4333054 c 0.030407,-0.114027 0.060815,-0.220453 0.08362,-0.326879 0.0076,-0.03041 0.053213,-0.190046 0.053213,-0.220454 0.015204,-0.04561 0.1672406,-0.311675 0.3344812,-0.448509 0.1064258,-0.07602 0.2508609,-0.16724 0.4637125,-0.16724 0.2052499,0 0.2584628,0.16724 0.2584628,0.342083 0,0.258463 -0.1824443,0.790592 -0.296472,1.0870638 -0.038009,0.1064259 -0.068417,0.1672406 -0.068417,0.2660646 0,0.2280554 0.1748424,0.395296 0.4028978,0.395296 0.4561107,0 0.6309532,-0.7069717 0.6309532,-0.7449809 0,-0.053213 -0.038009,-0.053213 -0.053213,-0.053213 -0.053213,0 -0.053213,0.015204 -0.076018,0.091222 -0.068417,0.2584628 -0.2280554,0.6005458 -0.49412,0.6005458 -0.08362,0 -0.1140276,-0.045611 -0.1140276,-0.1596387 0,-0.1216296 0.038009,-0.2356572 0.08362,-0.3420831 0.076018,-0.2128516 0.2964719,-0.7905915 0.2964719,-1.0718605 0,-0.311675 -0.1900461,-0.516925 -0.5549347,-0.516925 -0.3040738,0 -0.539731,0.152037 -0.7221753,0.37249 z m 0,0"
               id="id-f0a9bad5-5ef2-467a-ad06-8ab9ebffd5be" />
          </g>
        </g>
      </g>
    </g>
  </g>
</svg>
