<?xml version="1.0" encoding="UTF-8" standalone="no"?>
<!-- Created with Inkscape (http://www.inkscape.org/) -->

<svg
   sodipodi:docname="cpp_mainMemory1.svg"
   inkscape:version="1.1 (c4e8f9e, 2021-05-24)"
   id="svg5"
   version="1.1"
   viewBox="0 0 103.45209 28.20371"
   height="28.203711mm"
   width="103.45209mm"
   xmlns:inkscape="http://www.inkscape.org/namespaces/inkscape"
   xmlns:sodipodi="http://sodipodi.sourceforge.net/DTD/sodipodi-0.dtd"
   xmlns="http://www.w3.org/2000/svg"
   xmlns:svg="http://www.w3.org/2000/svg">
  <sodipodi:namedview
     id="namedview7"
     pagecolor="#ffffff"
     bordercolor="#666666"
     borderopacity="1.0"
     inkscape:pageshadow="2"
     inkscape:pageopacity="0.0"
     inkscape:pagecheckerboard="0"
     inkscape:document-units="mm"
     showgrid="false"
     inkscape:zoom="1.8709307"
     inkscape:cx="240.25476"
     inkscape:cy="105.02794"
     inkscape:window-width="1312"
     inkscape:window-height="847"
     inkscape:window-x="0"
     inkscape:window-y="25"
     inkscape:window-maximized="0"
     inkscape:current-layer="layer1">
    <inkscape:grid
       type="xygrid"
       id="grid824"
       originx="39.819793"
       originy="-7.6473299" />
  </sodipodi:namedview>
  <defs
     id="defs2">
    <defs
       id="id-46514acf-3ac6-4773-955d-491e66a4c614">
      <g
         id="id-5a5d261a-8a08-4f52-b227-e36b4aa2584c">
        <symbol
           overflow="visible"
           id="id-3988c31d-120e-4095-8e6d-27cbedf7bf4b">
          <path
             style="stroke:none;stroke-width:0"
             d=""
             id="id-6c859f4e-9fdf-43da-8af3-9433e940b6ea" />
        </symbol>
        <symbol
           overflow="visible"
           id="id-d47fffb6-07b6-481c-8ad6-84ce44651a8f">
          <path
             style="stroke:none;stroke-width:0"
             d="m 2.890625,-3.515625 c 0.8125,-0.265625 1.390625,-0.953125 1.390625,-1.75 0,-0.8125 -0.875,-1.375 -1.828125,-1.375 -1,0 -1.765625,0.59375 -1.765625,1.359375 0,0.328125 0.21875,0.515625 0.515625,0.515625 0.296875,0 0.5,-0.21875 0.5,-0.515625 0,-0.484375 -0.46875,-0.484375 -0.609375,-0.484375 0.296875,-0.5 0.953125,-0.625 1.3125,-0.625 0.421875,0 0.96875,0.21875 0.96875,1.109375 0,0.125 -0.03125,0.703125 -0.28125,1.140625 C 2.796875,-3.65625 2.453125,-3.625 2.203125,-3.625 2.125,-3.609375 1.890625,-3.59375 1.8125,-3.59375 c -0.078125,0.015625 -0.140625,0.03125 -0.140625,0.125 0,0.109375 0.0625,0.109375 0.234375,0.109375 h 0.4375 c 0.8125,0 1.1875,0.671875 1.1875,1.65625 0,1.359375 -0.6875,1.640625 -1.125,1.640625 -0.4375,0 -1.1875,-0.171875 -1.53125,-0.75 0.34375,0.046875 0.65625,-0.171875 0.65625,-0.546875 0,-0.359375 -0.265625,-0.5625 -0.546875,-0.5625 -0.25,0 -0.5625,0.140625 -0.5625,0.578125 0,0.90625 0.921875,1.5625 2.015625,1.5625 1.21875,0 2.125,-0.90625 2.125,-1.921875 0,-0.8125 -0.640625,-1.59375 -1.671875,-1.8125 z m 0,0"
             id="id-14e75eac-e9d5-404a-b940-cebb5f9141ed" />
        </symbol>
        <symbol
           overflow="visible"
           id="id-d212d342-51a0-4283-83f5-841955a52b19">
          <path
             style="stroke:none;stroke-width:0"
             d="m 4.75,-6.078125 c 0.078125,-0.109375 0.078125,-0.125 0.078125,-0.34375 H 2.40625 c -1.203125,0 -1.234375,-0.125 -1.265625,-0.3125 h -0.25 L 0.5625,-4.6875 h 0.25 c 0.03125,-0.15625 0.109375,-0.78125 0.25,-0.90625 0.0625,-0.0625 0.84375,-0.0625 0.96875,-0.0625 h 2.0625 C 3.984375,-5.5 3.203125,-4.40625 2.984375,-4.078125 2.078125,-2.734375 1.75,-1.34375 1.75,-0.328125 c 0,0.09375 0,0.546875 0.46875,0.546875 0.453125,0 0.453125,-0.453125 0.453125,-0.546875 V -0.84375 c 0,-0.546875 0.03125,-1.09375 0.109375,-1.625 0.046875,-0.234375 0.171875,-1.09375 0.625,-1.703125 z m 0,0"
             id="id-aa9526c1-8eb0-489a-87d5-a9e64f1e6c3b" />
        </symbol>
        <symbol
           overflow="visible"
           id="id-6d582afd-7442-4af3-b26f-0f331583dfac">
          <path
             style="stroke:none;stroke-width:0"
             d="m 4.578125,-3.1875 c 0,-0.796875 -0.046875,-1.59375 -0.390625,-2.328125 -0.453125,-0.96875 -1.28125,-1.125 -1.6875,-1.125 -0.609375,0 -1.328125,0.265625 -1.75,1.1875 -0.3125,0.6875 -0.359375,1.46875 -0.359375,2.265625 0,0.75 0.03125,1.640625 0.453125,2.40625 0.421875,0.796875 1.15625,1 1.640625,1 0.53125,0 1.296875,-0.203125 1.734375,-1.15625 0.3125,-0.6875 0.359375,-1.46875 0.359375,-2.25 z M 2.484375,0 C 2.09375,0 1.5,-0.25 1.328125,-1.203125 1.21875,-1.796875 1.21875,-2.71875 1.21875,-3.3125 c 0,-0.640625 0,-1.296875 0.078125,-1.828125 0.1875,-1.1875 0.9375,-1.28125 1.1875,-1.28125 0.328125,0 0.984375,0.1875 1.171875,1.171875 0.109375,0.5625 0.109375,1.3125 0.109375,1.9375 0,0.75 0,1.421875 -0.109375,2.0625 C 3.5,-0.296875 2.9375,0 2.484375,0 Z m 0,0"
             id="id-b468c1d7-2766-4582-b52f-6aea183d8a90" />
        </symbol>
        <symbol
           overflow="visible"
           id="id-26ad48a1-eb7d-43ff-8bca-88d8a0583ad7">
          <path
             style="stroke:none;stroke-width:0"
             d="m 2.9375,-6.375 c 0,-0.25 0,-0.265625 -0.234375,-0.265625 C 2.078125,-6 1.203125,-6 0.890625,-6 v 0.3125 c 0.203125,0 0.78125,0 1.296875,-0.265625 v 5.171875 c 0,0.359375 -0.03125,0.46875 -0.921875,0.46875 h -0.3125 V 0 c 0.34375,-0.03125 1.203125,-0.03125 1.609375,-0.03125 0.390625,0 1.265625,0 1.609375,0.03125 v -0.3125 h -0.3125 c -0.90625,0 -0.921875,-0.109375 -0.921875,-0.46875 z m 0,0"
             id="id-30cbab30-7873-4e38-868e-e6a8e0582464" />
        </symbol>
        <symbol
           overflow="visible"
           id="id-46dcf14a-9d49-4b84-80fa-e38d085432bc">
          <path
             style="stroke:none;stroke-width:0"
             d="m 1.265625,-0.765625 1.0625,-1.03125 c 1.546875,-1.375 2.140625,-1.90625 2.140625,-2.90625 0,-1.140625 -0.890625,-1.9375 -2.109375,-1.9375 -1.125,0 -1.859375,0.921875 -1.859375,1.8125 0,0.546875 0.5,0.546875 0.53125,0.546875 0.171875,0 0.515625,-0.109375 0.515625,-0.53125 0,-0.25 -0.1875,-0.515625 -0.53125,-0.515625 -0.078125,0 -0.09375,0 -0.125,0.015625 0.21875,-0.65625 0.765625,-1.015625 1.34375,-1.015625 0.90625,0 1.328125,0.8125 1.328125,1.625 C 3.5625,-3.90625 3.078125,-3.125 2.515625,-2.5 l -1.90625,2.125 C 0.5,-0.265625 0.5,-0.234375 0.5,0 H 4.203125 L 4.46875,-1.734375 H 4.234375 C 4.171875,-1.4375 4.109375,-1 4,-0.84375 3.9375,-0.765625 3.28125,-0.765625 3.0625,-0.765625 Z m 0,0"
             id="id-b5f01f4d-c0aa-45f5-86eb-ea487431d7b8" />
        </symbol>
        <symbol
           overflow="visible"
           id="id-16541495-bbb1-42f7-b6e1-601076aff7c7">
          <path
             style="stroke:none;stroke-width:0"
             d=""
             id="id-21004f64-d82a-40c3-990d-6510913a48ef" />
        </symbol>
        <symbol
           overflow="visible"
           id="id-a2cf297e-a8cd-4f03-a6d8-4355af1de3fd">
          <path
             style="stroke:none;stroke-width:0"
             d="m 3.015625,-3.234375 h 0.96875 c 0.75,0 0.828125,0.15625 0.828125,0.4375 0,0.078125 0,0.1875 -0.0625,0.5 C 4.71875,-2.25 4.71875,-2.21875 4.71875,-2.1875 c 0,0.078125 0.0625,0.109375 0.109375,0.109375 0.109375,0 0.109375,-0.03125 0.15625,-0.203125 L 5.53125,-4.453125 C 5.5625,-4.5625 5.5625,-4.578125 5.5625,-4.609375 5.5625,-4.625 5.546875,-4.71875 5.4375,-4.71875 5.34375,-4.71875 5.328125,-4.671875 5.296875,-4.5 5.078125,-3.734375 4.859375,-3.546875 4,-3.546875 H 3.09375 l 0.640625,-2.53125 C 3.828125,-6.4375 3.84375,-6.46875 4.28125,-6.46875 h 1.3125 c 1.21875,0 1.453125,0.328125 1.453125,1.09375 0,0.234375 0,0.265625 -0.03125,0.546875 C 7,-4.703125 7,-4.6875 7,-4.65625 c 0,0.046875 0.03125,0.125 0.125,0.125 0.109375,0 0.109375,-0.0625 0.125,-0.25 L 7.453125,-6.515625 C 7.484375,-6.78125 7.4375,-6.78125 7.1875,-6.78125 H 2.296875 c -0.1875,0 -0.296875,0 -0.296875,0.203125 0,0.109375 0.09375,0.109375 0.28125,0.109375 0.375,0 0.65625,0 0.65625,0.171875 0,0.046875 0,0.0625 -0.0625,0.25 L 1.5625,-0.78125 c -0.09375,0.390625 -0.109375,0.46875 -0.90625,0.46875 -0.171875,0 -0.28125,0 -0.28125,0.1875 C 0.375,0 0.5,0 0.53125,0 0.8125,0 1.5625,-0.03125 1.84375,-0.03125 2.171875,-0.03125 3,0 3.328125,0 3.421875,0 3.53125,0 3.53125,-0.1875 3.53125,-0.265625 3.484375,-0.296875 3.484375,-0.296875 3.453125,-0.3125 3.421875,-0.3125 3.203125,-0.3125 c -0.21875,0 -0.265625,0 -0.515625,-0.015625 -0.296875,-0.03125 -0.328125,-0.078125 -0.328125,-0.203125 0,-0.015625 0,-0.078125 0.046875,-0.21875 z m 0,0"
             id="id-f45cc186-1641-4cff-8c7a-8b46a6459806" />
        </symbol>
        <symbol
           overflow="visible"
           id="id-3b3abd4f-0934-4b2a-9fbf-68a721611c65">
          <path
             style="stroke:none;stroke-width:0"
             d="m 1.578125,-0.78125 c -0.09375,0.390625 -0.109375,0.46875 -0.90625,0.46875 -0.15625,0 -0.265625,0 -0.265625,0.1875 C 0.40625,0 0.484375,0 0.671875,0 h 3.3125 c 2.0625,0 4.03125,-2.109375 4.03125,-4.28125 0,-1.40625 -0.84375,-2.53125 -2.34375,-2.53125 h -3.34375 c -0.1875,0 -0.296875,0 -0.296875,0.1875 0,0.125 0.078125,0.125 0.28125,0.125 0.125,0 0.3125,0.015625 0.421875,0.015625 0.171875,0.03125 0.21875,0.046875 0.21875,0.171875 0,0.03125 0,0.0625 -0.03125,0.1875 z M 3.734375,-6.125 C 3.828125,-6.46875 3.84375,-6.5 4.28125,-6.5 h 1.0625 c 0.96875,0 1.796875,0.53125 1.796875,1.84375 0,0.484375 -0.1875,2.125 -1.046875,3.21875 -0.28125,0.375 -1.0625,1.125 -2.296875,1.125 h -1.125 c -0.140625,0 -0.15625,0 -0.21875,0 -0.09375,-0.015625 -0.125,-0.03125 -0.125,-0.109375 0,-0.03125 0,-0.046875 0.046875,-0.21875 z m 0,0"
             id="id-0d0e5b74-abeb-4ec8-9605-43acce84e617" />
        </symbol>
      </g>
    </defs>
  </defs>
  <g
     inkscape:label="Layer 1"
     inkscape:groupmode="layer"
     id="layer1"
     transform="translate(39.819795,-7.6473321)">
    <g
       id="g4385">
      <g
         id="g2884"
         transform="translate(1.0614145,-0.1183598)"
         style="fill:#dc0000">
        <g
           id="g2599"
           style="fill:#dc0000">
          <path
             style="fill:#dc0000;fill-opacity:1;stroke:none;stroke-width:0"
             d="m -20.727588,9.2484196 c 0.307938,-0.1006721 0.527048,-0.3612353 0.527048,-0.6632517 0,-0.3079384 -0.331626,-0.5211264 -0.692861,-0.5211264 -0.379001,0 -0.669174,0.2250318 -0.669174,0.5152045 0,0.1243597 0.08291,0.1954224 0.195423,0.1954224 0.112516,0 0.1895,-0.082906 0.1895,-0.1954224 0,-0.1835786 -0.177657,-0.1835786 -0.230954,-0.1835786 0.112516,-0.1895005 0.361236,-0.2368757 0.497439,-0.2368757 0.159891,0 0.367157,0.082906 0.367157,0.4204543 0,0.047375 -0.01184,0.266485 -0.106594,0.432298 -0.112516,0.1835786 -0.242797,0.1954224 -0.337547,0.1954224 -0.02961,0.00592 -0.118438,0.011844 -0.148048,0.011844 -0.02961,0.00592 -0.0533,0.011844 -0.0533,0.047375 0,0.041453 0.02369,0.041453 0.08883,0.041453 h 0.165813 c 0.307938,0 0.450063,0.2546413 0.450063,0.6277204 0,0.5152042 -0.260563,0.6217982 -0.426376,0.6217982 -0.165813,0 -0.450064,-0.06514 -0.580345,-0.28425 0.130281,0.01777 0.248719,-0.06514 0.248719,-0.207266 0,-0.1362041 -0.100672,-0.2131886 -0.207266,-0.2131886 -0.09475,0 -0.213188,0.053297 -0.213188,0.2191096 0,0.34347 0.349392,0.592189 0.763924,0.592189 0.461907,0 0.805377,-0.343469 0.805377,-0.7283922 0,-0.3079383 -0.242797,-0.6040328 -0.633642,-0.6869393 z m 0,0"
             id="id-b7a7b53e-f1ff-462c-815f-80823ac03828" />
          <path
             style="fill:#dc0000;fill-opacity:1;stroke:none;stroke-width:0"
             d="m -18.135079,8.2772295 c 0.02961,-0.041453 0.02961,-0.047375 0.02961,-0.1302815 h -0.917893 c -0.455985,0 -0.467829,-0.047375 -0.479673,-0.1184379 h -0.09475 l -0.12436,0.7757677 h 0.09475 c 0.01184,-0.059219 0.04145,-0.2960945 0.09475,-0.3434696 0.02369,-0.023688 0.319782,-0.023688 0.367157,-0.023688 h 0.781689 c -0.04145,0.059219 -0.337547,0.4737512 -0.420454,0.5981109 -0.34347,0.5092826 -0.467829,1.0363309 -0.467829,1.4212539 0,0.03553 0,0.207266 0.177656,0.207266 0.171735,0 0.171735,-0.171734 0.171735,-0.207266 v -0.195422 c 0,-0.207266 0.01184,-0.4145328 0.04145,-0.6158771 0.01776,-0.088828 0.06514,-0.4145324 0.236875,-0.6454861 z m 0,0"
             id="id-179eec4b-0d91-42aa-a2c6-27edf8a1eba9" />
          <path
             style="fill:#dc0000;fill-opacity:1;stroke:none;stroke-width:0"
             d="m -16.904226,9.3550136 h 0.367157 c 0.284251,0 0.31386,0.059219 0.31386,0.165813 0,0.029609 0,0.071063 -0.02369,0.1895005 -0.01184,0.017766 -0.01184,0.029609 -0.01184,0.041453 0,0.029609 0.02369,0.041453 0.04145,0.041453 0.04145,0 0.04145,-0.011844 0.05922,-0.076985 l 0.207266,-0.8231428 c 0.01184,-0.041453 0.01184,-0.047375 0.01184,-0.059219 0,-0.00592 -0.0059,-0.041453 -0.04738,-0.041453 -0.03553,0 -0.04145,0.017766 -0.0533,0.082906 -0.08291,0.2901726 -0.165813,0.3612353 -0.491517,0.3612353 h -0.34347 l 0.242798,-0.9593463 c 0.03553,-0.1362034 0.04145,-0.1480472 0.207266,-0.1480472 h 0.497439 c 0.461907,0 0.550736,0.1243597 0.550736,0.4145323 0,0.088828 0,0.1006722 -0.01184,0.2072662 -0.0059,0.047375 -0.0059,0.053297 -0.0059,0.065141 0,0.017766 0.01184,0.047375 0.04738,0.047375 0.04145,0 0.04145,-0.023688 0.04738,-0.09475 l 0.07698,-0.6573299 c 0.01184,-0.1006721 -0.0059,-0.1006721 -0.100672,-0.1006721 h -1.853552 c -0.07106,0 -0.112516,0 -0.112516,0.076985 0,0.041453 0.03553,0.041453 0.106594,0.041453 0.142125,0 0.248719,0 0.248719,0.065141 0,0.017766 0,0.023687 -0.02369,0.09475 l -0.497439,1.9956764 c -0.03553,0.148048 -0.04145,0.177657 -0.34347,0.177657 -0.06514,0 -0.106594,0 -0.106594,0.07106 0,0.04738 0.04738,0.04738 0.05922,0.04738 0.106594,0 0.390845,-0.01184 0.497439,-0.01184 0.12436,0 0.43822,0.01184 0.56258,0.01184 0.03553,0 0.07698,0 0.07698,-0.07106 0,-0.02961 -0.01777,-0.04145 -0.01777,-0.04145 -0.01184,-0.0059 -0.02369,-0.0059 -0.106594,-0.0059 -0.08291,0 -0.100673,0 -0.195423,-0.0059 -0.112516,-0.01184 -0.12436,-0.02961 -0.12436,-0.07698 0,-0.0059 0,-0.02961 0.01777,-0.08291 z m 0,0"
             id="id-773f99c9-a067-4cee-9a5d-6cddb946132a" />
          <path
             style="fill:#dc0000;fill-opacity:1;stroke:none;stroke-width:0"
             d="m -14.495865,10.28475 c -0.03553,0.148048 -0.04145,0.177657 -0.34347,0.177657 -0.05922,0 -0.100672,0 -0.100672,0.07106 0,0.04738 0.02961,0.04738 0.100672,0.04738 h 1.255441 c 0.78169,0 1.527848,-0.7994552 1.527848,-1.622598 0,-0.5329702 -0.319782,-0.9593463 -0.888284,-0.9593463 h -1.267284 c -0.07106,0 -0.112516,0 -0.112516,0.071063 0,0.047375 0.02961,0.047375 0.106594,0.047375 0.04738,0 0.118438,0.00592 0.159891,0.00592 0.06514,0.011844 0.08291,0.017766 0.08291,0.065141 0,0.011844 0,0.023688 -0.01184,0.071063 z m 0.817221,-2.0252861 c 0.03553,-0.1302816 0.04145,-0.1421254 0.207266,-0.1421254 h 0.402689 c 0.367157,0 0.681017,0.2013443 0.681017,0.6987831 0,0.1835786 -0.07106,0.8053771 -0.396767,1.2199094 -0.106594,0.142125 -0.402688,0.426376 -0.870518,0.426376 h -0.426376 c -0.0533,0 -0.05922,0 -0.08291,0 -0.03553,-0.0059 -0.04738,-0.01184 -0.04738,-0.04145 0,-0.01184 0,-0.01777 0.01777,-0.08291 z m 0,0"
             id="id-f76e43ca-623a-4be4-80a0-0feb55cf1cb7" />
          <path
             style="fill:#dc0000;fill-opacity:1;stroke:none;stroke-width:0"
             d="m -10.128636,9.3727793 c 0,-0.3020164 -0.01777,-0.6040328 -0.148047,-0.8823617 -0.171735,-0.3671572 -0.485595,-0.4263761 -0.639564,-0.4263761 -0.230954,0 -0.503361,0.1006721 -0.663252,0.4500637 -0.118438,0.2605632 -0.136204,0.5566577 -0.136204,0.8586741 0,0.2842508 0.01184,0.6217985 0.171735,0.9119707 0.159891,0.302017 0.43822,0.379001 0.621799,0.379001 0.201344,0 0.491517,-0.07698 0.657329,-0.438219 0.118438,-0.2605636 0.136204,-0.5566582 0.136204,-0.8527527 z m -0.793533,1.2080657 c -0.148048,0 -0.37308,-0.09475 -0.43822,-0.455986 -0.04145,-0.2250314 -0.04145,-0.574423 -0.04145,-0.7994548 0,-0.2427975 0,-0.4915169 0.02961,-0.6928612 0.07106,-0.4500637 0.355313,-0.485595 0.450064,-0.485595 0.124359,0 0.373079,0.071063 0.444141,0.4441418 0.04145,0.213188 0.04145,0.4974388 0.04145,0.7343144 0,0.2842507 0,0.538892 -0.04145,0.7816898 -0.05922,0.361235 -0.272407,0.473751 -0.444141,0.473751 z m 0,0"
             id="id-fd6227bf-f196-4ef0-978b-71898c181863" />
          <path
             style="fill:#dc0000;fill-opacity:1;stroke:none;stroke-width:0"
             d="m -8.240832,9.3727793 c 0,-0.3020164 -0.017766,-0.6040328 -0.1480473,-0.8823617 -0.1717348,-0.3671572 -0.485595,-0.4263761 -0.6395642,-0.4263761 -0.2309537,0 -0.5033607,0.1006721 -0.6632518,0.4500637 -0.1184378,0.2605632 -0.1362034,0.5566577 -0.1362034,0.8586741 0,0.2842508 0.011844,0.6217985 0.1717348,0.9119707 0.159891,0.302017 0.4382199,0.379001 0.6217985,0.379001 0.2013443,0 0.4915169,-0.07698 0.6573299,-0.438219 0.1184378,-0.2605636 0.1362035,-0.5566582 0.1362035,-0.8527527 z m -0.7935334,1.2080657 c -0.1480473,0 -0.3730791,-0.09475 -0.4382199,-0.455986 -0.041453,-0.2250314 -0.041453,-0.574423 -0.041453,-0.7994548 0,-0.2427975 0,-0.4915169 0.029609,-0.6928612 0.071063,-0.4500637 0.3553135,-0.485595 0.4500637,-0.485595 0.1243597,0 0.3730791,0.071063 0.4441418,0.4441418 0.041453,0.213188 0.041453,0.4974388 0.041453,0.7343144 0,0.2842507 0,0.538892 -0.041453,0.7816898 -0.059219,0.361235 -0.272407,0.473751 -0.4441416,0.473751 z m 0,0"
             id="id-3fabb900-08e7-4e76-9069-e5062a51e121" />
        </g>
        <g
           id="g2633"
           transform="translate(-60.652431,5.179306)"
           style="fill:#dc0000">
          <path
             style="fill:#dc0000;fill-opacity:1;stroke:none;stroke-width:0"
             d="m 39.886231,9.3727793 c 0,-0.3020164 -0.01777,-0.6040328 -0.148047,-0.8823617 -0.171735,-0.3671572 -0.485595,-0.4263761 -0.639565,-0.4263761 -0.230953,0 -0.50336,0.1006721 -0.663251,0.4500637 -0.118438,0.2605632 -0.136204,0.5566577 -0.136204,0.8586741 0,0.2842508 0.01184,0.6217985 0.171735,0.9119707 0.159891,0.302017 0.43822,0.379001 0.621799,0.379001 0.201344,0 0.491517,-0.07698 0.657329,-0.438219 0.118438,-0.2605636 0.136204,-0.5566582 0.136204,-0.8527527 z m -0.793533,1.2080657 c -0.148048,0 -0.37308,-0.09475 -0.43822,-0.455986 -0.04145,-0.2250314 -0.04145,-0.574423 -0.04145,-0.7994548 0,-0.2427975 0,-0.4915169 0.02961,-0.6928612 0.07106,-0.4500637 0.355313,-0.485595 0.450064,-0.485595 0.124359,0 0.373079,0.071063 0.444141,0.4441418 0.04145,0.213188 0.04145,0.4974388 0.04145,0.7343144 0,0.2842507 0,0.538892 -0.04145,0.7816898 -0.05922,0.361235 -0.272407,0.473751 -0.444141,0.473751 z m 0,0"
             id="id-a18906da-fd33-4f6a-a77a-40c76c37680a" />
          <path
             style="fill:#dc0000;fill-opacity:1;stroke:none;stroke-width:0"
             d="m 41.152236,8.1647136 c 0,-0.09475 0,-0.1006721 -0.08883,-0.1006721 C 40.826532,8.306839 40.494907,8.306839 40.376469,8.306839 v 0.1184378 c 0.07698,0 0.296094,0 0.491517,-0.1006721 V 10.28475 c 0,0.136204 -0.01184,0.177657 -0.349392,0.177657 h -0.118438 v 0.118438 c 0.130282,-0.01184 0.455986,-0.01184 0.609955,-0.01184 0.148047,0 0.479673,0 0.609955,0.01184 v -0.118438 h -0.118438 c -0.34347,0 -0.349392,-0.04145 -0.349392,-0.177657 z m 0,0"
             id="id-1e562258-b1a9-4a30-ab86-9120f5acbfea" />
          <path
             style="fill:#dc0000;fill-opacity:1;stroke:none;stroke-width:0"
             d="m 43.662218,9.3727793 c 0,-0.3020164 -0.01777,-0.6040328 -0.148047,-0.8823617 -0.171735,-0.3671572 -0.485595,-0.4263761 -0.639565,-0.4263761 -0.230953,0 -0.50336,0.1006721 -0.663251,0.4500637 -0.118438,0.2605632 -0.136204,0.5566577 -0.136204,0.8586741 0,0.2842508 0.01184,0.6217985 0.171735,0.9119707 0.159891,0.302017 0.43822,0.379001 0.621799,0.379001 0.201344,0 0.491517,-0.07698 0.657329,-0.438219 0.118438,-0.2605636 0.136204,-0.5566582 0.136204,-0.8527527 z m -0.793533,1.2080657 c -0.148048,0 -0.37308,-0.09475 -0.43822,-0.455986 -0.04145,-0.2250314 -0.04145,-0.574423 -0.04145,-0.7994548 0,-0.2427975 0,-0.4915169 0.02961,-0.6928612 0.07106,-0.4500637 0.355313,-0.485595 0.450064,-0.485595 0.124359,0 0.373079,0.071063 0.444141,0.4441418 0.04145,0.213188 0.04145,0.4974388 0.04145,0.7343144 0,0.2842507 0,0.538892 -0.04145,0.7816898 -0.05922,0.361235 -0.272407,0.473751 -0.444141,0.473751 z m 0,0"
             id="id-15beef0b-7890-4ce4-8fc5-f87bf1534d55" />
          <path
             style="fill:#dc0000;fill-opacity:1;stroke:none;stroke-width:0"
             d="m 45.550022,9.3727793 c 0,-0.3020164 -0.01777,-0.6040328 -0.148047,-0.8823617 C 45.23024,8.1232604 44.91638,8.0640415 44.762411,8.0640415 c -0.230954,0 -0.503361,0.1006721 -0.663252,0.4500637 -0.118438,0.2605632 -0.136204,0.5566577 -0.136204,0.8586741 0,0.2842508 0.01184,0.6217985 0.171735,0.9119707 0.159891,0.302017 0.43822,0.379001 0.621799,0.379001 0.201344,0 0.491517,-0.07698 0.657329,-0.438219 0.118438,-0.2605636 0.136204,-0.5566582 0.136204,-0.8527527 z m -0.793533,1.2080657 c -0.148048,0 -0.37308,-0.09475 -0.43822,-0.455986 -0.04145,-0.2250314 -0.04145,-0.574423 -0.04145,-0.7994548 0,-0.2427975 0,-0.4915169 0.02961,-0.6928612 0.07106,-0.4500637 0.355313,-0.485595 0.450064,-0.485595 0.124359,0 0.373079,0.071063 0.444141,0.4441418 0.04145,0.213188 0.04145,0.4974388 0.04145,0.7343144 0,0.2842507 0,0.538892 -0.04145,0.7816898 -0.05922,0.361235 -0.272407,0.473751 -0.444141,0.473751 z m 0,0"
             id="id-c5578df9-cbd9-4798-9861-b991a09e0db2" />
          <path
             style="fill:#dc0000;fill-opacity:1;stroke:none;stroke-width:0"
             d="m 46.816027,8.1647136 c 0,-0.09475 0,-0.1006721 -0.08883,-0.1006721 C 46.490323,8.306839 46.158698,8.306839 46.04026,8.306839 v 0.1184378 c 0.07698,0 0.296094,0 0.491517,-0.1006721 V 10.28475 c 0,0.136204 -0.01184,0.177657 -0.349392,0.177657 h -0.118438 v 0.118438 c 0.130282,-0.01184 0.455986,-0.01184 0.609955,-0.01184 0.148047,0 0.479673,0 0.609955,0.01184 v -0.118438 h -0.118438 c -0.34347,0 -0.349392,-0.04145 -0.349392,-0.177657 z m 0,0"
             id="id-527a2da9-2261-4b08-88bc-3d412df309d7" />
          <path
             style="fill:#dc0000;fill-opacity:1;stroke:none;stroke-width:0"
             d="m 48.70421,8.1647136 c 0,-0.09475 0,-0.1006721 -0.08883,-0.1006721 C 48.378506,8.306839 48.046881,8.306839 47.928443,8.306839 v 0.1184378 c 0.07698,0 0.296094,0 0.491517,-0.1006721 V 10.28475 c 0,0.136204 -0.01184,0.177657 -0.349392,0.177657 H 47.95213 v 0.118438 c 0.130282,-0.01184 0.455986,-0.01184 0.609955,-0.01184 0.148047,0 0.479673,0 0.609955,0.01184 v -0.118438 h -0.118438 c -0.34347,0 -0.349392,-0.04145 -0.349392,-0.177657 z m 0,0"
             id="id-b9ca678b-c18a-4155-82a8-eef3b78da0e8" />
          <path
             style="fill:#dc0000;fill-opacity:1;stroke:none;stroke-width:0"
             d="m 51.213813,9.3727793 c 0,-0.3020164 -0.01777,-0.6040328 -0.148047,-0.8823617 -0.171735,-0.3671572 -0.485595,-0.4263761 -0.639565,-0.4263761 -0.230953,0 -0.50336,0.1006721 -0.663251,0.4500637 -0.118438,0.2605632 -0.136204,0.5566577 -0.136204,0.8586741 0,0.2842508 0.01184,0.6217985 0.171735,0.9119707 0.159891,0.302017 0.43822,0.379001 0.621799,0.379001 0.201344,0 0.491517,-0.07698 0.657329,-0.438219 0.118438,-0.2605636 0.136204,-0.5566582 0.136204,-0.8527527 z M 50.42028,10.580845 c -0.148048,0 -0.373079,-0.09475 -0.43822,-0.455986 -0.04145,-0.2250314 -0.04145,-0.574423 -0.04145,-0.7994548 0,-0.2427975 0,-0.4915169 0.02961,-0.6928612 0.07106,-0.4500637 0.355313,-0.485595 0.450064,-0.485595 0.124359,0 0.373079,0.071063 0.444141,0.4441418 0.04145,0.213188 0.04145,0.4974388 0.04145,0.7343144 0,0.2842507 0,0.538892 -0.04145,0.7816898 -0.05922,0.361235 -0.272407,0.473751 -0.444141,0.473751 z m 0,0"
             id="id-9e08e51d-55e5-4aeb-bc0f-d7b7a8508e26" />
          <path
             style="fill:#dc0000;fill-opacity:1;stroke:none;stroke-width:0"
             d="m 53.101617,9.3727793 c 0,-0.3020164 -0.01777,-0.6040328 -0.148047,-0.8823617 -0.171735,-0.3671572 -0.485595,-0.4263761 -0.639565,-0.4263761 -0.230953,0 -0.50336,0.1006721 -0.663251,0.4500637 -0.118438,0.2605632 -0.136204,0.5566577 -0.136204,0.8586741 0,0.2842508 0.01184,0.6217985 0.171735,0.9119707 0.159891,0.302017 0.43822,0.379001 0.621799,0.379001 0.201344,0 0.491517,-0.07698 0.657329,-0.438219 0.118438,-0.2605636 0.136204,-0.5566582 0.136204,-0.8527527 z m -0.793533,1.2080657 c -0.148048,0 -0.373079,-0.09475 -0.43822,-0.455986 -0.04145,-0.2250314 -0.04145,-0.574423 -0.04145,-0.7994548 0,-0.2427975 0,-0.4915169 0.02961,-0.6928612 0.07106,-0.4500637 0.355313,-0.485595 0.450064,-0.485595 0.124359,0 0.373079,0.071063 0.444141,0.4441418 0.04145,0.213188 0.04145,0.4974388 0.04145,0.7343144 0,0.2842507 0,0.538892 -0.04145,0.7816898 -0.05922,0.361235 -0.272407,0.473751 -0.444141,0.473751 z m 0,0"
             id="id-f35897c6-d62f-4526-9822-0a6cdf4dd007" />
        </g>
      </g>
      <g
         id="g2714"
         transform="translate(-3.470525,0.1947965)"
         style="fill:#dc0000">
        <g
           id="g2607"
           transform="translate(6.81356,-0.3515706)"
           style="fill:#dc0000">
          <path
             style="fill:#dc0000;fill-opacity:1;stroke:none;stroke-width:0"
             d="m -5.7350669,9.2484196 c 0.3079383,-0.1006721 0.5270482,-0.3612353 0.5270482,-0.6632517 0,-0.3079384 -0.3316258,-0.5211264 -0.6928612,-0.5211264 -0.379001,0 -0.6691736,0.2250318 -0.6691736,0.5152045 0,0.1243597 0.082906,0.1954224 0.1954224,0.1954224 0.1125159,0 0.1895005,-0.082906 0.1895005,-0.1954224 0,-0.1835786 -0.1776567,-0.1835786 -0.2309538,-0.1835786 0.112516,-0.1895005 0.3612354,-0.2368757 0.4974389,-0.2368757 0.159891,0 0.3671572,0.082906 0.3671572,0.4204543 0,0.047375 -0.011844,0.266485 -0.1065941,0.432298 -0.1125159,0.1835786 -0.2427975,0.1954224 -0.3375477,0.1954224 -0.02961,0.00592 -0.1184378,0.011844 -0.1480473,0.011844 -0.029609,0.00592 -0.053297,0.011844 -0.053297,0.047375 0,0.041453 0.023688,0.041453 0.088828,0.041453 h 0.1658129 c 0.3079383,0 0.4500637,0.2546413 0.4500637,0.6277204 0,0.5152042 -0.2605632,0.6217982 -0.4263761,0.6217982 -0.165813,0 -0.4500637,-0.06514 -0.5803453,-0.28425 0.1302816,0.01777 0.2487194,-0.06514 0.2487194,-0.207266 0,-0.1362041 -0.1006722,-0.2131886 -0.2072662,-0.2131886 -0.09475,0 -0.2131881,0.053297 -0.2131881,0.2191096 0,0.34347 0.3493916,0.592189 0.7639239,0.592189 0.4619075,0 0.8053772,-0.343469 0.8053772,-0.7283922 0,-0.3079383 -0.2427976,-0.6040328 -0.6336419,-0.6869392 z m 0,0"
             id="id-d25f9793-8129-4398-9ab5-9cea61974ba1" />
          <path
             style="fill:#dc0000;fill-opacity:1;stroke:none;stroke-width:0"
             d="m -3.142558,8.2772295 c 0.02961,-0.041453 0.02961,-0.047375 0.02961,-0.1302815 h -0.917893 c -0.4559856,0 -0.4678294,-0.047375 -0.4796732,-0.1184379 h -0.09475 l -0.1243597,0.7757677 h 0.09475 c 0.011844,-0.059219 0.041453,-0.2960945 0.09475,-0.3434696 0.023688,-0.023688 0.3197821,-0.023688 0.3671572,-0.023688 h 0.7816895 c -0.041453,0.059219 -0.3375477,0.4737512 -0.4204542,0.5981109 -0.3434696,0.5092826 -0.4678294,1.0363309 -0.4678294,1.4212539 0,0.03553 0,0.207266 0.1776568,0.207266 0.1717348,0 0.1717348,-0.171734 0.1717348,-0.207266 v -0.195422 c 0,-0.207266 0.011844,-0.4145328 0.041453,-0.6158771 0.017766,-0.088828 0.065141,-0.4145324 0.2368757,-0.6454861 z m 0,0"
             id="id-a6509fa7-319e-4fed-b857-1461c6cb0d47" />
          <path
             style="fill:#dc0000;fill-opacity:1;stroke:none;stroke-width:0"
             d="m -1.9105679,9.3550136 h 0.3671572 c 0.2842508,0 0.3138602,0.059219 0.3138602,0.165813 0,0.029609 0,0.071063 -0.023688,0.1895005 -0.011844,0.017766 -0.011844,0.029609 -0.011844,0.041453 0,0.029609 0.023687,0.041453 0.041453,0.041453 0.041453,0 0.041453,-0.011844 0.059219,-0.076985 l 0.20726618,-0.8231428 c 0.0118438,-0.041453 0.0118438,-0.047375 0.0118438,-0.059219 0,-0.00592 -0.005922,-0.041453 -0.0473751,-0.041453 -0.0355313,0 -0.0414532,0.017766 -0.053297,0.082906 -0.082906,0.2901726 -0.1658129,0.3612353 -0.4915169,0.3612353 h -0.3434697 l 0.2427976,-0.9593463 c 0.035531,-0.1362034 0.041453,-0.1480472 0.2072661,-0.1480472 h 0.49743862 c 0.46190747,0 0.55073583,0.1243597 0.55073583,0.4145323 0,0.088828 0,0.1006722 -0.0118438,0.2072662 -0.005922,0.047375 -0.005922,0.053297 -0.005922,0.065141 0,0.017766 0.0118438,0.047375 0.0473751,0.047375 0.0414532,0 0.0414532,-0.023688 0.0473751,-0.09475 l 0.0769846,-0.6573299 c 0.0118438,-0.1006721 -0.005922,-0.1006721 -0.10067214,-0.1006721 H -2.1829749 c -0.071063,0 -0.1125159,0 -0.1125159,0.076985 0,0.041453 0.035531,0.041453 0.106594,0.041453 0.1421254,0 0.2487194,0 0.2487194,0.065141 0,0.017766 0,0.023687 -0.023687,0.09475 L -2.4613037,10.28475 c -0.035531,0.148048 -0.041453,0.177657 -0.3434697,0.177657 -0.065141,0 -0.106594,0 -0.106594,0.07106 0,0.04738 0.047375,0.04738 0.059219,0.04738 0.106594,0 0.3908448,-0.01184 0.4974388,-0.01184 0.1243597,0 0.4382199,0.01184 0.5625796,0.01184 0.035531,0 0.076985,0 0.076985,-0.07106 0,-0.02961 -0.017766,-0.04145 -0.017766,-0.04145 -0.011844,-0.0059 -0.023688,-0.0059 -0.106594,-0.0059 -0.082906,0 -0.1006722,0 -0.1954224,-0.0059 -0.1125159,-0.01184 -0.1243597,-0.02961 -0.1243597,-0.07698 0,-0.0059 0,-0.02961 0.017766,-0.08291 z m 0,0"
             id="id-4ef23230-5699-4eb5-a84e-92cc66838dde" />
          <path
             style="fill:#dc0000;fill-opacity:1;stroke:none;stroke-width:0"
             d="m 0.49779398,10.28475 c -0.0355313,0.148048 -0.0414532,0.177657 -0.34346965,0.177657 -0.05921891,0 -0.10067214,0 -0.10067214,0.07106 0,0.04738 0.02960945,0.04738 0.10067214,0.04738 H 1.4097651 c 0.7816896,0 1.5278478,-0.7994552 1.5278478,-1.622598 0,-0.5329702 -0.3197821,-0.9593463 -0.8882836,-0.9593463 H 0.78204473 c -0.0710627,0 -0.11251592,0 -0.11251592,0.071063 0,0.047375 0.0296095,0.047375 0.10659403,0.047375 0.0473751,0 0.11843781,0.00592 0.15989105,0.00592 0.0651408,0.011844 0.0829065,0.017766 0.0829065,0.065141 0,0.011844 0,0.023688 -0.011844,0.071063 z M 1.3150149,8.2594639 C 1.3505462,8.1291823 1.3564681,8.1173385 1.5222811,8.1173385 h 0.4026885 c 0.3671572,0 0.6810174,0.2013443 0.6810174,0.6987831 0,0.1835786 -0.071063,0.8053771 -0.3967666,1.2199094 -0.1065941,0.142125 -0.4026886,0.426376 -0.8705179,0.426376 H 0.91232633 c -0.053297,0 -0.0592189,0 -0.0829065,0 -0.0355313,-0.0059 -0.0473751,-0.01184 -0.0473751,-0.04145 0,-0.01184 0,-0.01777 0.0177657,-0.08291 z m 0,0"
             id="id-35928a61-f535-4bba-8dfd-fa555d93a438" />
          <path
             style="fill:#dc0000;fill-opacity:1;stroke:none;stroke-width:0"
             d="m 4.8654016,9.3727793 c 0,-0.3020164 -0.017766,-0.6040328 -0.1480473,-0.8823617 C 4.5456195,8.1232604 4.2317593,8.0640415 4.0777901,8.0640415 c -0.2309537,0 -0.5033607,0.1006721 -0.6632517,0.4500637 -0.1184379,0.2605632 -0.1362035,0.5566577 -0.1362035,0.8586741 0,0.2842508 0.011844,0.6217985 0.1717348,0.9119707 0.159891,0.302017 0.4382199,0.379001 0.6217985,0.379001 0.2013443,0 0.4915169,-0.07698 0.6573299,-0.438219 C 4.8476359,9.9649684 4.8654016,9.6688738 4.8654016,9.3727793 Z M 4.0718682,10.580845 c -0.1480473,0 -0.3730791,-0.09475 -0.4382199,-0.455986 -0.041453,-0.2250314 -0.041453,-0.574423 -0.041453,-0.7994548 0,-0.2427975 0,-0.4915169 0.029609,-0.6928612 0.071063,-0.4500637 0.3553135,-0.485595 0.4500637,-0.485595 0.1243597,0 0.3730791,0.071063 0.4441418,0.4441418 0.041453,0.213188 0.041453,0.4974388 0.041453,0.7343144 0,0.2842507 0,0.538892 -0.041453,0.7816898 -0.059219,0.361235 -0.272407,0.473751 -0.4441416,0.473751 z m 0,0"
             id="id-55d227da-894d-4004-a7cb-6f27cff3ef86" />
          <path
             style="fill:#dc0000;fill-opacity:1;stroke:none;stroke-width:0"
             d="m 6.1314069,8.1647136 c 0,-0.09475 0,-0.1006721 -0.088828,-0.1006721 C 5.805703,8.306839 5.4740771,8.306839 5.3556393,8.306839 v 0.1184378 c 0.076985,0 0.2960945,0 0.4915169,-0.1006721 V 10.28475 c 0,0.136204 -0.011844,0.177657 -0.3493916,0.177657 H 5.3793268 v 0.118438 c 0.1302816,-0.01184 0.4559856,-0.01184 0.6099548,-0.01184 0.1480472,0 0.4796731,0 0.6099547,0.01184 V 10.462407 H 6.4807985 c -0.3434697,0 -0.3493916,-0.04145 -0.3493916,-0.177657 z m 0,0"
             id="id-1feccb5f-8dee-4046-bda4-2ebe986b22a8" />
        </g>
        <g
           id="g2642"
           transform="translate(-54.437929,4.904564)"
           style="fill:#dc0000">
          <path
             style="fill:#dc0000;fill-opacity:1;stroke:none;stroke-width:0"
             d="m 55.628937,8.1647136 c 0,-0.09475 0,-0.1006721 -0.08883,-0.1006721 C 55.303233,8.306839 54.971608,8.306839 54.85317,8.306839 v 0.1184378 c 0.07698,0 0.296094,0 0.491517,-0.1006721 V 10.28475 c 0,0.136204 -0.01184,0.177657 -0.349392,0.177657 h -0.118438 v 0.118438 c 0.130282,-0.01184 0.455986,-0.01184 0.609955,-0.01184 0.148047,0 0.479673,0 0.609955,0.01184 v -0.118438 h -0.118438 c -0.34347,0 -0.349392,-0.04145 -0.349392,-0.177657 z m 0,0"
             id="id-f1a88f86-c757-4545-8be3-d6846c71f18f" />
          <path
             style="fill:#dc0000;fill-opacity:1;stroke:none;stroke-width:0"
             d="m 58.13854,9.3727793 c 0,-0.3020164 -0.01777,-0.6040328 -0.148047,-0.8823617 -0.171735,-0.3671572 -0.485595,-0.4263761 -0.639564,-0.4263761 -0.230954,0 -0.503361,0.1006721 -0.663252,0.4500637 -0.118438,0.2605632 -0.136204,0.5566577 -0.136204,0.8586741 0,0.2842508 0.01184,0.6217985 0.171735,0.9119707 0.159891,0.302017 0.43822,0.379001 0.621799,0.379001 0.201344,0 0.491517,-0.07698 0.657329,-0.438219 0.118438,-0.2605636 0.136204,-0.5566582 0.136204,-0.8527527 z m -0.793533,1.2080657 c -0.148048,0 -0.373079,-0.09475 -0.43822,-0.455986 -0.04145,-0.2250314 -0.04145,-0.574423 -0.04145,-0.7994548 0,-0.2427975 0,-0.4915169 0.02961,-0.6928612 0.07106,-0.4500637 0.355313,-0.485595 0.450064,-0.485595 0.124359,0 0.373079,0.071063 0.444141,0.4441418 0.04145,0.213188 0.04145,0.4974388 0.04145,0.7343144 0,0.2842507 0,0.538892 -0.04145,0.7816898 -0.05922,0.361235 -0.272407,0.473751 -0.444141,0.473751 z m 0,0"
             id="id-6cdb80cc-b3a8-4f9b-81ed-c82536d3e99f" />
          <path
             style="fill:#dc0000;fill-opacity:1;stroke:none;stroke-width:0"
             d="m 60.026723,9.3727793 c 0,-0.3020164 -0.01777,-0.6040328 -0.148047,-0.8823617 -0.171735,-0.3671572 -0.485595,-0.4263761 -0.639565,-0.4263761 -0.230953,0 -0.50336,0.1006721 -0.663251,0.4500637 -0.118438,0.2605632 -0.136204,0.5566577 -0.136204,0.8586741 0,0.2842508 0.01184,0.6217985 0.171735,0.9119707 0.159891,0.302017 0.43822,0.379001 0.621799,0.379001 0.201344,0 0.491517,-0.07698 0.657329,-0.438219 0.118438,-0.2605636 0.136204,-0.5566582 0.136204,-0.8527527 z M 59.23319,10.580845 c -0.148048,0 -0.373079,-0.09475 -0.43822,-0.455986 -0.04145,-0.2250314 -0.04145,-0.574423 -0.04145,-0.7994548 0,-0.2427975 0,-0.4915169 0.02961,-0.6928612 0.07106,-0.4500637 0.355313,-0.485595 0.450064,-0.485595 0.124359,0 0.373079,0.071063 0.444141,0.4441418 0.04145,0.213188 0.04145,0.4974388 0.04145,0.7343144 0,0.2842507 0,0.538892 -0.04145,0.7816898 -0.05922,0.361235 -0.272407,0.473751 -0.444141,0.473751 z m 0,0"
             id="id-875c38ab-341f-4559-b147-4157b7ef4f2f" />
          <path
             style="fill:#dc0000;fill-opacity:1;stroke:none;stroke-width:0"
             d="m 61.292728,8.1647136 c 0,-0.09475 0,-0.1006721 -0.08883,-0.1006721 C 60.967024,8.306839 60.635399,8.306839 60.516961,8.306839 v 0.1184378 c 0.07698,0 0.296094,0 0.491517,-0.1006721 V 10.28475 c 0,0.136204 -0.01184,0.177657 -0.349392,0.177657 h -0.118438 v 0.118438 c 0.130282,-0.01184 0.455986,-0.01184 0.609955,-0.01184 0.148047,0 0.479673,0 0.609955,0.01184 V 10.462407 H 61.64212 c -0.34347,0 -0.349392,-0.04145 -0.349392,-0.177657 z m 0,0"
             id="id-b32f6d15-cea5-4bbb-8871-d7631b9b2b13" />
          <path
             style="fill:#dc0000;fill-opacity:1;stroke:none;stroke-width:0"
             d="m 63.802331,9.3727793 c 0,-0.3020164 -0.01777,-0.6040328 -0.148047,-0.8823617 -0.171735,-0.3671572 -0.485595,-0.4263761 -0.639565,-0.4263761 -0.230953,0 -0.50336,0.1006721 -0.663251,0.4500637 -0.118438,0.2605632 -0.136204,0.5566577 -0.136204,0.8586741 0,0.2842508 0.01184,0.6217985 0.171735,0.9119707 0.159891,0.302017 0.43822,0.379001 0.621799,0.379001 0.201344,0 0.491517,-0.07698 0.657329,-0.438219 0.118438,-0.2605636 0.136204,-0.5566582 0.136204,-0.8527527 z m -0.793533,1.2080657 c -0.148048,0 -0.37308,-0.09475 -0.43822,-0.455986 -0.04145,-0.2250314 -0.04145,-0.574423 -0.04145,-0.7994548 0,-0.2427975 0,-0.4915169 0.02961,-0.6928612 0.07106,-0.4500637 0.355313,-0.485595 0.450064,-0.485595 0.124359,0 0.373079,0.071063 0.444141,0.4441418 0.04145,0.213188 0.04145,0.4974388 0.04145,0.7343144 0,0.2842507 0,0.538892 -0.04145,0.7816898 -0.05922,0.361235 -0.272407,0.473751 -0.444141,0.473751 z m 0,0"
             id="id-285a8e3d-4e06-4cc0-b7a5-76727b329af4" />
          <path
             style="fill:#dc0000;fill-opacity:1;stroke:none;stroke-width:0"
             d="m 65.068715,8.1647136 c 0,-0.09475 0,-0.1006721 -0.08883,-0.1006721 C 64.743011,8.306839 64.411386,8.306839 64.292948,8.306839 v 0.1184378 c 0.07698,0 0.296094,0 0.491517,-0.1006721 V 10.28475 c 0,0.136204 -0.01184,0.177657 -0.349392,0.177657 h -0.118438 v 0.118438 c 0.130282,-0.01184 0.455986,-0.01184 0.609955,-0.01184 0.148047,0 0.479673,0 0.609955,0.01184 v -0.118438 h -0.118438 c -0.34347,0 -0.349392,-0.04145 -0.349392,-0.177657 z m 0,0"
             id="id-e8e0d22a-f42d-4dc2-9359-2a0639854b55" />
          <path
             style="fill:#dc0000;fill-opacity:1;stroke:none;stroke-width:0"
             d="m 67.578318,9.3727793 c 0,-0.3020164 -0.01777,-0.6040328 -0.148047,-0.8823617 -0.171735,-0.3671572 -0.485595,-0.4263761 -0.639565,-0.4263761 -0.230953,0 -0.50336,0.1006721 -0.663251,0.4500637 -0.118438,0.2605632 -0.136204,0.5566577 -0.136204,0.8586741 0,0.2842508 0.01184,0.6217985 0.171735,0.9119707 0.159891,0.302017 0.43822,0.379001 0.621799,0.379001 0.201344,0 0.491517,-0.07698 0.657329,-0.438219 0.118438,-0.2605636 0.136204,-0.5566582 0.136204,-0.8527527 z m -0.793533,1.2080657 c -0.148048,0 -0.37308,-0.09475 -0.43822,-0.455986 -0.04145,-0.2250314 -0.04145,-0.574423 -0.04145,-0.7994548 0,-0.2427975 0,-0.4915169 0.02961,-0.6928612 0.07106,-0.4500637 0.355313,-0.485595 0.450064,-0.485595 0.124359,0 0.373079,0.071063 0.444141,0.4441418 0.04145,0.213188 0.04145,0.4974388 0.04145,0.7343144 0,0.2842507 0,0.538892 -0.04145,0.7816898 -0.05922,0.361235 -0.272407,0.473751 -0.444141,0.473751 z m 0,0"
             id="id-75647777-8df5-41d6-beab-67494af25417" />
        </g>
      </g>
      <g
         id="g2697"
         transform="translate(-1.3227194)"
         style="fill:#dc0000">
        <g
           id="g2615"
           transform="translate(6.81356,-0.3515706)"
           style="fill:#dc0000">
          <path
             style="fill:#dc0000;fill-opacity:1;stroke:none;stroke-width:0"
             d="M 9.2589706,9.2484196 C 9.5669089,9.1477475 9.7860188,8.8871843 9.7860188,8.5851679 c 0,-0.3079384 -0.3316258,-0.5211264 -0.6928612,-0.5211264 -0.379001,0 -0.6691736,0.2250318 -0.6691736,0.5152045 0,0.1243597 0.082906,0.1954224 0.1954224,0.1954224 0.1125159,0 0.1895005,-0.082906 0.1895005,-0.1954224 0,-0.1835786 -0.1776567,-0.1835786 -0.2309538,-0.1835786 0.112516,-0.1895005 0.3612354,-0.2368757 0.4974389,-0.2368757 0.159891,0 0.3671572,0.082906 0.3671572,0.4204543 0,0.047375 -0.011844,0.266485 -0.1065941,0.432298 -0.1125159,0.1835786 -0.2427975,0.1954224 -0.3375477,0.1954224 -0.029609,0.00592 -0.1184378,0.011844 -0.1480473,0.011844 -0.029609,0.00592 -0.053297,0.011844 -0.053297,0.047375 0,0.041453 0.023688,0.041453 0.088828,0.041453 H 9.051704 c 0.3079383,0 0.4500637,0.2546413 0.4500637,0.6277204 0,0.5152042 -0.2605632,0.6217982 -0.4263761,0.6217982 -0.165813,0 -0.4500637,-0.06514 -0.5803453,-0.28425 0.1302816,0.01777 0.2487194,-0.06514 0.2487194,-0.207266 0,-0.1362041 -0.1006722,-0.2131886 -0.2072662,-0.2131886 -0.09475,0 -0.2131881,0.053297 -0.2131881,0.2191096 0,0.34347 0.3493916,0.592189 0.7639239,0.592189 0.4619075,0 0.8053772,-0.343469 0.8053772,-0.7283922 0,-0.3079383 -0.2427976,-0.6040328 -0.6336419,-0.6869392 z m 0,0"
             id="id-5879be61-b8cf-4748-b3bb-f3d7c01c6ead" />
          <path
             style="fill:#dc0000;fill-opacity:1;stroke:none;stroke-width:0"
             d="m 11.85148,8.2772295 c 0.02961,-0.041453 0.02961,-0.047375 0.02961,-0.1302815 h -0.917893 c -0.455985,0 -0.467829,-0.047375 -0.479673,-0.1184379 h -0.09475 l -0.12436,0.7757677 h 0.09475 c 0.01184,-0.059219 0.04145,-0.2960945 0.09475,-0.3434696 0.02369,-0.023688 0.319782,-0.023688 0.367157,-0.023688 h 0.781689 c -0.04145,0.059219 -0.337547,0.4737512 -0.420454,0.5981109 -0.34347,0.5092826 -0.467829,1.0363309 -0.467829,1.4212539 0,0.03553 0,0.207266 0.177656,0.207266 0.171735,0 0.171735,-0.171734 0.171735,-0.207266 v -0.195422 c 0,-0.207266 0.01184,-0.4145328 0.04145,-0.6158771 0.01777,-0.088828 0.06514,-0.4145324 0.236875,-0.6454861 z m 0,0"
             id="id-4426108b-8e65-4a67-b904-a4cd49c46211" />
          <path
             style="fill:#dc0000;fill-opacity:1;stroke:none;stroke-width:0"
             d="m 13.08347,9.3550136 h 0.367157 c 0.284251,0 0.31386,0.059219 0.31386,0.165813 0,0.029609 0,0.071063 -0.02369,0.1895005 -0.01184,0.017766 -0.01184,0.029609 -0.01184,0.041453 0,0.029609 0.02369,0.041453 0.04145,0.041453 0.04145,0 0.04145,-0.011844 0.05922,-0.076985 l 0.207266,-0.8231428 c 0.01184,-0.041453 0.01184,-0.047375 0.01184,-0.059219 0,-0.00592 -0.0059,-0.041453 -0.04738,-0.041453 -0.03553,0 -0.04145,0.017766 -0.0533,0.082906 -0.08291,0.2901726 -0.165813,0.3612353 -0.491517,0.3612353 h -0.34347 l 0.242798,-0.9593463 c 0.03553,-0.1362034 0.04145,-0.1480472 0.207266,-0.1480472 h 0.497439 c 0.461907,0 0.550736,0.1243597 0.550736,0.4145323 0,0.088828 0,0.1006722 -0.01184,0.2072662 -0.0059,0.047375 -0.0059,0.053297 -0.0059,0.065141 0,0.017766 0.01184,0.047375 0.04737,0.047375 0.04145,0 0.04145,-0.023688 0.04738,-0.09475 l 0.07699,-0.6573299 c 0.01184,-0.1006721 -0.0059,-0.1006721 -0.100672,-0.1006721 h -1.853552 c -0.07106,0 -0.112516,0 -0.112516,0.076985 0,0.041453 0.03553,0.041453 0.106594,0.041453 0.142125,0 0.248719,0 0.248719,0.065141 0,0.017766 0,0.023687 -0.02369,0.09475 L 12.532734,10.28475 c -0.03553,0.148048 -0.04145,0.177657 -0.34347,0.177657 -0.06514,0 -0.106594,0 -0.106594,0.07106 0,0.04738 0.04738,0.04738 0.05922,0.04738 0.106594,0 0.390845,-0.01184 0.497439,-0.01184 0.12436,0 0.43822,0.01184 0.56258,0.01184 0.03553,0 0.07698,0 0.07698,-0.07106 0,-0.02961 -0.01777,-0.04145 -0.01777,-0.04145 -0.01184,-0.0059 -0.02369,-0.0059 -0.106594,-0.0059 -0.08291,0 -0.100673,0 -0.195423,-0.0059 -0.112516,-0.01184 -0.12436,-0.02961 -0.12436,-0.07698 0,-0.0059 0,-0.02961 0.01777,-0.08291 z m 0,0"
             id="id-ed9bab17-4c67-462f-bf44-97bdf0f35a35" />
          <path
             style="fill:#dc0000;fill-opacity:1;stroke:none;stroke-width:0"
             d="m 15.491832,10.28475 c -0.03553,0.148048 -0.04145,0.177657 -0.34347,0.177657 -0.05922,0 -0.100672,0 -0.100672,0.07106 0,0.04738 0.02961,0.04738 0.100672,0.04738 h 1.255441 c 0.78169,0 1.527848,-0.7994552 1.527848,-1.622598 0,-0.5329702 -0.319782,-0.9593463 -0.888284,-0.9593463 h -1.267284 c -0.07106,0 -0.112516,0 -0.112516,0.071063 0,0.047375 0.02961,0.047375 0.106594,0.047375 0.04738,0 0.118438,0.00592 0.159891,0.00592 0.06514,0.011844 0.08291,0.017766 0.08291,0.065141 0,0.011844 0,0.023688 -0.01184,0.071063 z m 0.817221,-2.0252861 c 0.03553,-0.1302816 0.04145,-0.1421254 0.207266,-0.1421254 h 0.402689 c 0.367157,0 0.681017,0.2013443 0.681017,0.6987831 0,0.1835786 -0.07106,0.8053771 -0.396767,1.2199094 -0.106594,0.142125 -0.402688,0.426376 -0.870518,0.426376 h -0.426376 c -0.0533,0 -0.05922,0 -0.08291,0 -0.03553,-0.0059 -0.04738,-0.01184 -0.04738,-0.04145 0,-0.01184 0,-0.01777 0.01777,-0.08291 z m 0,0"
             id="id-287f42ea-20a9-4df4-a95c-154b6d02f743" />
          <path
             style="fill:#dc0000;fill-opacity:1;stroke:none;stroke-width:0"
             d="m 19.85906,9.3727793 c 0,-0.3020164 -0.01777,-0.6040328 -0.148047,-0.8823617 -0.171735,-0.3671572 -0.485595,-0.4263761 -0.639565,-0.4263761 -0.230953,0 -0.50336,0.1006721 -0.663251,0.4500637 -0.118438,0.2605632 -0.136204,0.5566577 -0.136204,0.8586741 0,0.2842508 0.01184,0.6217985 0.171735,0.9119707 0.159891,0.302017 0.43822,0.379001 0.621799,0.379001 0.201344,0 0.491517,-0.07698 0.657329,-0.438219 0.118438,-0.2605636 0.136204,-0.5566582 0.136204,-0.8527527 z m -0.793533,1.2080657 c -0.148048,0 -0.37308,-0.09475 -0.43822,-0.455986 -0.04145,-0.2250314 -0.04145,-0.574423 -0.04145,-0.7994548 0,-0.2427975 0,-0.4915169 0.02961,-0.6928612 0.07106,-0.4500637 0.355313,-0.485595 0.450064,-0.485595 0.124359,0 0.373079,0.071063 0.444141,0.4441418 0.04145,0.213188 0.04145,0.4974388 0.04145,0.7343144 0,0.2842507 0,0.538892 -0.04145,0.7816898 -0.05922,0.361235 -0.272407,0.473751 -0.444141,0.473751 z m 0,0"
             id="id-3f92166f-154c-4a8d-9f4c-7cba6a301d8f" />
          <path
             style="fill:#dc0000;fill-opacity:1;stroke:none;stroke-width:0"
             d="m 20.491423,10.290672 0.402689,-0.3908444 c 0.586267,-0.5211264 0.811299,-0.7224707 0.811299,-1.1014717 0,-0.432298 -0.337548,-0.7343144 -0.799456,-0.7343144 -0.426376,0 -0.704705,0.3493915 -0.704705,0.6869393 0,0.2072662 0.189501,0.2072662 0.201345,0.2072662 0.06514,0 0.195422,-0.041453 0.195422,-0.2013443 0,-0.09475 -0.07106,-0.1954224 -0.201344,-0.1954224 -0.02961,0 -0.03553,0 -0.04737,0.00592 0.08291,-0.2487194 0.290172,-0.3849229 0.509282,-0.3849229 0.34347,0 0.503361,0.3079383 0.503361,0.6158766 0,0.3020164 -0.183579,0.598111 -0.396767,0.8349866 l -0.72247,0.8053774 c -0.04145,0.04145 -0.04145,0.0533 -0.04145,0.142125 h 1.403489 L 21.70542,9.9235132 h -0.08883 c -0.02369,0.1125158 -0.04738,0.2783288 -0.08883,0.3375478 -0.02369,0.02961 -0.272407,0.02961 -0.355313,0.02961 z m 0,0"
             id="id-bb83c281-63c8-426c-9ec0-7b40ddbf553d" />
        </g>
        <g
           id="g2652"
           transform="translate(-54.709881,5.294157)"
           style="fill:#dc0000">
          <path
             style="fill:#dc0000;fill-opacity:1;stroke:none;stroke-width:0"
             d="m 70.723647,9.3727793 c 0,-0.3020164 -0.01777,-0.6040328 -0.148047,-0.8823617 -0.171735,-0.3671572 -0.485595,-0.4263761 -0.639564,-0.4263761 -0.230954,0 -0.503361,0.1006721 -0.663252,0.4500637 -0.118438,0.2605632 -0.136204,0.5566577 -0.136204,0.8586741 0,0.2842508 0.01184,0.6217985 0.171735,0.9119707 0.159891,0.302017 0.43822,0.379001 0.621799,0.379001 0.201344,0 0.491517,-0.07698 0.657329,-0.438219 0.118438,-0.2605636 0.136204,-0.5566582 0.136204,-0.8527527 z m -0.793533,1.2080657 c -0.148048,0 -0.37308,-0.09475 -0.43822,-0.455986 -0.04145,-0.2250314 -0.04145,-0.574423 -0.04145,-0.7994548 0,-0.2427975 0,-0.4915169 0.02961,-0.6928612 0.07106,-0.4500637 0.355313,-0.485595 0.450064,-0.485595 0.124359,0 0.373079,0.071063 0.444141,0.4441418 0.04145,0.213188 0.04145,0.4974388 0.04145,0.7343144 0,0.2842507 0,0.538892 -0.04145,0.7816898 -0.05922,0.361235 -0.272407,0.473751 -0.444141,0.473751 z m 0,0"
             id="id-38524998-ab60-487f-bc85-319cdf4ce7f4" />
          <path
             style="fill:#dc0000;fill-opacity:1;stroke:none;stroke-width:0"
             d="m 72.611451,9.3727793 c 0,-0.3020164 -0.01777,-0.6040328 -0.148047,-0.8823617 -0.171735,-0.3671572 -0.485595,-0.4263761 -0.639564,-0.4263761 -0.230954,0 -0.503361,0.1006721 -0.663252,0.4500637 -0.118438,0.2605632 -0.136204,0.5566577 -0.136204,0.8586741 0,0.2842508 0.01184,0.6217985 0.171735,0.9119707 0.159891,0.302017 0.43822,0.379001 0.621799,0.379001 0.201344,0 0.491517,-0.07698 0.657329,-0.438219 0.118438,-0.2605636 0.136204,-0.5566582 0.136204,-0.8527527 z m -0.793533,1.2080657 c -0.148048,0 -0.373079,-0.09475 -0.43822,-0.455986 -0.04145,-0.2250314 -0.04145,-0.574423 -0.04145,-0.7994548 0,-0.2427975 0,-0.4915169 0.02961,-0.6928612 0.07106,-0.4500637 0.355313,-0.485595 0.450064,-0.485595 0.124359,0 0.373079,0.071063 0.444141,0.4441418 0.04145,0.213188 0.04145,0.4974388 0.04145,0.7343144 0,0.2842507 0,0.538892 -0.04145,0.7816898 -0.05922,0.361235 -0.272407,0.473751 -0.444141,0.473751 z m 0,0"
             id="id-8f12cb3d-d760-4d8b-b3fc-8e544577b331" />
          <path
             style="fill:#dc0000;fill-opacity:1;stroke:none;stroke-width:0"
             d="m 73.877456,8.1647136 c 0,-0.09475 0,-0.1006721 -0.08883,-0.1006721 C 73.551752,8.306839 73.220127,8.306839 73.101689,8.306839 v 0.1184378 c 0.07698,0 0.296094,0 0.491517,-0.1006721 V 10.28475 c 0,0.136204 -0.01184,0.177657 -0.349392,0.177657 h -0.118438 v 0.118438 c 0.130282,-0.01184 0.455986,-0.01184 0.609955,-0.01184 0.148047,0 0.479673,0 0.609955,0.01184 v -0.118438 h -0.118438 c -0.34347,0 -0.349392,-0.04145 -0.349392,-0.177657 z m 0,0"
             id="id-f651cdc3-b18c-4510-903d-a635f709729a" />
          <path
             style="fill:#dc0000;fill-opacity:1;stroke:none;stroke-width:0"
             d="m 76.387438,9.3727793 c 0,-0.3020164 -0.01777,-0.6040328 -0.148047,-0.8823617 -0.171735,-0.3671572 -0.485595,-0.4263761 -0.639565,-0.4263761 -0.230953,0 -0.50336,0.1006721 -0.663251,0.4500637 -0.118438,0.2605632 -0.136204,0.5566577 -0.136204,0.8586741 0,0.2842508 0.01184,0.6217985 0.171735,0.9119707 0.159891,0.302017 0.43822,0.379001 0.621799,0.379001 0.201344,0 0.491517,-0.07698 0.657329,-0.438219 0.118438,-0.2605636 0.136204,-0.5566582 0.136204,-0.8527527 z m -0.793533,1.2080657 c -0.148048,0 -0.37308,-0.09475 -0.43822,-0.455986 -0.04145,-0.2250314 -0.04145,-0.574423 -0.04145,-0.7994548 0,-0.2427975 0,-0.4915169 0.02961,-0.6928612 0.07106,-0.4500637 0.355313,-0.485595 0.450064,-0.485595 0.124359,0 0.373079,0.071063 0.444141,0.4441418 0.04145,0.213188 0.04145,0.4974388 0.04145,0.7343144 0,0.2842507 0,0.538892 -0.04145,0.7816898 -0.05922,0.361235 -0.272407,0.473751 -0.444141,0.473751 z m 0,0"
             id="id-05d04fef-f0f5-4d10-b4b2-4bbe7b7e9d8e" />
          <path
             style="fill:#dc0000;fill-opacity:1;stroke:none;stroke-width:0"
             d="m 78.275242,9.3727793 c 0,-0.3020164 -0.01777,-0.6040328 -0.148047,-0.8823617 C 77.95546,8.1232604 77.6416,8.0640415 77.48763,8.0640415 c -0.230953,0 -0.50336,0.1006721 -0.663251,0.4500637 -0.118438,0.2605632 -0.136204,0.5566577 -0.136204,0.8586741 0,0.2842508 0.01184,0.6217985 0.171735,0.9119707 0.159891,0.302017 0.43822,0.379001 0.621799,0.379001 0.201344,0 0.491517,-0.07698 0.657329,-0.438219 0.118438,-0.2605636 0.136204,-0.5566582 0.136204,-0.8527527 z m -0.793533,1.2080657 c -0.148048,0 -0.37308,-0.09475 -0.43822,-0.455986 -0.04145,-0.2250314 -0.04145,-0.574423 -0.04145,-0.7994548 0,-0.2427975 0,-0.4915169 0.02961,-0.6928612 0.07106,-0.4500637 0.355313,-0.485595 0.450064,-0.485595 0.124359,0 0.373079,0.071063 0.444141,0.4441418 0.04145,0.213188 0.04145,0.4974388 0.04145,0.7343144 0,0.2842507 0,0.538892 -0.04145,0.7816898 -0.05922,0.361235 -0.272407,0.473751 -0.444141,0.473751 z m 0,0"
             id="id-71bc8e38-4235-43a9-b326-0e315cbeb8eb" />
          <path
             style="fill:#dc0000;fill-opacity:1;stroke:none;stroke-width:0"
             d="m 79.541247,8.1647136 c 0,-0.09475 0,-0.1006721 -0.08883,-0.1006721 C 79.215543,8.306839 78.883918,8.306839 78.76548,8.306839 v 0.1184378 c 0.07698,0 0.296094,0 0.491517,-0.1006721 V 10.28475 c 0,0.136204 -0.01184,0.177657 -0.349392,0.177657 h -0.118438 v 0.118438 c 0.130282,-0.01184 0.455986,-0.01184 0.609955,-0.01184 0.148047,0 0.479673,0 0.609955,0.01184 v -0.118438 h -0.118438 c -0.34347,0 -0.349392,-0.04145 -0.349392,-0.177657 z m 0,0"
             id="id-ce43f66e-b7bf-4911-a41b-0fa360a4100c" />
          <path
             style="fill:#dc0000;fill-opacity:1;stroke:none;stroke-width:0"
             d="m 81.429051,8.1647136 c 0,-0.09475 0,-0.1006721 -0.08883,-0.1006721 C 81.103347,8.306839 80.771722,8.306839 80.653284,8.306839 v 0.1184378 c 0.07698,0 0.296094,0 0.491517,-0.1006721 V 10.28475 c 0,0.136204 -0.01184,0.177657 -0.349392,0.177657 h -0.118438 v 0.118438 c 0.130282,-0.01184 0.455986,-0.01184 0.609955,-0.01184 0.148047,0 0.479673,0 0.609955,0.01184 v -0.118438 h -0.118438 c -0.34347,0 -0.349392,-0.04145 -0.349392,-0.177657 z m 0,0"
             id="id-d60f2555-f036-42e5-854b-8183f385f6fd" />
          <path
             style="fill:#dc0000;fill-opacity:1;stroke:none;stroke-width:0"
             d="m 83.939033,9.3727793 c 0,-0.3020164 -0.01777,-0.6040328 -0.148047,-0.8823617 -0.171735,-0.3671572 -0.485595,-0.4263761 -0.639565,-0.4263761 -0.230953,0 -0.50336,0.1006721 -0.663251,0.4500637 -0.118438,0.2605632 -0.136204,0.5566577 -0.136204,0.8586741 0,0.2842508 0.01184,0.6217985 0.171735,0.9119707 0.159891,0.302017 0.43822,0.379001 0.621799,0.379001 0.201344,0 0.491517,-0.07698 0.657329,-0.438219 0.118438,-0.2605636 0.136204,-0.5566582 0.136204,-0.8527527 z M 83.1455,10.580845 c -0.148048,0 -0.37308,-0.09475 -0.43822,-0.455986 -0.04145,-0.2250314 -0.04145,-0.574423 -0.04145,-0.7994548 0,-0.2427975 0,-0.4915169 0.02961,-0.6928612 0.07106,-0.4500637 0.355313,-0.485595 0.450064,-0.485595 0.124359,0 0.373079,0.071063 0.444141,0.4441418 0.04145,0.213188 0.04145,0.4974388 0.04145,0.7343144 0,0.2842507 0,0.538892 -0.04145,0.7816898 -0.05922,0.361235 -0.272407,0.473751 -0.444141,0.473751 z m 0,0"
             id="id-f15c9fa0-c3a2-47b5-8141-6ec46b81b718" />
        </g>
      </g>
      <g
         id="g2732"
         transform="translate(-4.4280774,0.24513255)"
         style="fill:#dc0000">
        <g
           id="g2623"
           transform="translate(12.105227,-0.3515706)"
           style="fill:#dc0000">
          <path
             style="fill:#dc0000;fill-opacity:1;stroke:none;stroke-width:0"
             d="m 24.252629,9.2484196 c 0.307938,-0.1006721 0.527048,-0.3612353 0.527048,-0.6632517 0,-0.3079384 -0.331626,-0.5211264 -0.692861,-0.5211264 -0.379001,0 -0.669174,0.2250318 -0.669174,0.5152045 0,0.1243597 0.08291,0.1954224 0.195423,0.1954224 0.112515,0 0.1895,-0.082906 0.1895,-0.1954224 0,-0.1835786 -0.177657,-0.1835786 -0.230954,-0.1835786 0.112516,-0.1895005 0.361236,-0.2368757 0.497439,-0.2368757 0.159891,0 0.367157,0.082906 0.367157,0.4204543 0,0.047375 -0.01184,0.266485 -0.106594,0.432298 -0.112516,0.1835786 -0.242797,0.1954224 -0.337547,0.1954224 -0.02961,0.00592 -0.118438,0.011844 -0.148048,0.011844 -0.02961,0.00592 -0.0533,0.011844 -0.0533,0.047375 0,0.041453 0.02369,0.041453 0.08883,0.041453 h 0.165813 c 0.307938,0 0.450063,0.2546413 0.450063,0.6277204 0,0.5152042 -0.260563,0.6217982 -0.426376,0.6217982 -0.165813,0 -0.450064,-0.06514 -0.580345,-0.28425 0.130281,0.01777 0.248719,-0.06514 0.248719,-0.207266 0,-0.1362041 -0.100672,-0.2131886 -0.207266,-0.2131886 -0.09475,0 -0.213188,0.053297 -0.213188,0.2191096 0,0.34347 0.349392,0.592189 0.763924,0.592189 0.461907,0 0.805377,-0.343469 0.805377,-0.7283922 0,-0.3079383 -0.242797,-0.6040328 -0.633642,-0.6869393 z m 0,0"
             id="id-f844c1af-5820-41ae-8d1c-8cde2db8856f" />
          <path
             style="fill:#dc0000;fill-opacity:1;stroke:none;stroke-width:0"
             d="m 26.845138,8.2772295 c 0.02961,-0.041453 0.02961,-0.047375 0.02961,-0.1302815 h -0.917893 c -0.455985,0 -0.467829,-0.047375 -0.479673,-0.1184379 h -0.09475 l -0.12436,0.7757677 h 0.09475 c 0.01184,-0.059219 0.04145,-0.2960945 0.09475,-0.3434696 0.02369,-0.023688 0.319782,-0.023688 0.367157,-0.023688 h 0.781689 c -0.04145,0.059219 -0.337547,0.4737512 -0.420454,0.5981109 -0.34347,0.5092826 -0.467829,1.0363309 -0.467829,1.4212539 0,0.03553 0,0.207266 0.177656,0.207266 0.171735,0 0.171735,-0.171734 0.171735,-0.207266 v -0.195422 c 0,-0.207266 0.01184,-0.4145328 0.04145,-0.6158771 0.01777,-0.088828 0.06514,-0.4145324 0.236875,-0.6454861 z m 0,0"
             id="id-96905e68-9608-4747-ba9d-46216112f391" />
          <path
             style="fill:#dc0000;fill-opacity:1;stroke:none;stroke-width:0"
             d="m 28.077128,9.3550136 h 0.367157 c 0.284251,0 0.31386,0.059219 0.31386,0.165813 0,0.029609 0,0.071063 -0.02369,0.1895005 -0.01184,0.017766 -0.01184,0.029609 -0.01184,0.041453 0,0.029609 0.02369,0.041453 0.04145,0.041453 0.04145,0 0.04145,-0.011844 0.05922,-0.076985 l 0.207266,-0.8231428 c 0.01184,-0.041453 0.01184,-0.047375 0.01184,-0.059219 0,-0.00592 -0.0059,-0.041453 -0.04737,-0.041453 -0.03553,0 -0.04145,0.017766 -0.0533,0.082906 -0.08291,0.2901726 -0.165813,0.3612353 -0.491517,0.3612353 h -0.34347 l 0.242798,-0.9593463 c 0.03553,-0.1362034 0.04145,-0.1480472 0.207266,-0.1480472 h 0.497439 c 0.461907,0 0.550736,0.1243597 0.550736,0.4145323 0,0.088828 0,0.1006722 -0.01184,0.2072662 -0.0059,0.047375 -0.0059,0.053297 -0.0059,0.065141 0,0.017766 0.01184,0.047375 0.04738,0.047375 0.04145,0 0.04145,-0.023688 0.04737,-0.09475 l 0.07699,-0.6573299 c 0.01184,-0.1006721 -0.0059,-0.1006721 -0.100672,-0.1006721 h -1.853552 c -0.07106,0 -0.112516,0 -0.112516,0.076985 0,0.041453 0.03553,0.041453 0.106594,0.041453 0.142125,0 0.248719,0 0.248719,0.065141 0,0.017766 0,0.023687 -0.02369,0.09475 L 27.526392,10.28475 c -0.03553,0.148048 -0.04145,0.177657 -0.34347,0.177657 -0.06514,0 -0.106594,0 -0.106594,0.07106 0,0.04738 0.04738,0.04738 0.05922,0.04738 0.106594,0 0.390845,-0.01184 0.497439,-0.01184 0.12436,0 0.43822,0.01184 0.56258,0.01184 0.03553,0 0.07698,0 0.07698,-0.07106 0,-0.02961 -0.01777,-0.04145 -0.01777,-0.04145 -0.01184,-0.0059 -0.02369,-0.0059 -0.106594,-0.0059 -0.08291,0 -0.100673,0 -0.195423,-0.0059 -0.112516,-0.01184 -0.12436,-0.02961 -0.12436,-0.07698 0,-0.0059 0,-0.02961 0.01777,-0.08291 z m 0,0"
             id="id-bc468560-6c13-4a07-803c-ea6519234fbc" />
          <path
             style="fill:#dc0000;fill-opacity:1;stroke:none;stroke-width:0"
             d="m 30.48549,10.28475 c -0.03553,0.148048 -0.04145,0.177657 -0.34347,0.177657 -0.05922,0 -0.100672,0 -0.100672,0.07106 0,0.04738 0.02961,0.04738 0.100672,0.04738 h 1.255441 c 0.78169,0 1.527848,-0.7994552 1.527848,-1.622598 0,-0.5329702 -0.319782,-0.9593463 -0.888284,-0.9593463 h -1.267284 c -0.07106,0 -0.112516,0 -0.112516,0.071063 0,0.047375 0.02961,0.047375 0.106594,0.047375 0.04737,0 0.118438,0.00592 0.159891,0.00592 0.06514,0.011844 0.08291,0.017766 0.08291,0.065141 0,0.011844 0,0.023688 -0.01184,0.071063 z m 0.817221,-2.0252861 c 0.03553,-0.1302816 0.04145,-0.1421254 0.207266,-0.1421254 h 0.402689 c 0.367157,0 0.681017,0.2013443 0.681017,0.6987831 0,0.1835786 -0.07106,0.8053771 -0.396767,1.2199094 -0.106594,0.142125 -0.402688,0.426376 -0.870518,0.426376 h -0.426376 c -0.0533,0 -0.05922,0 -0.08291,0 -0.03553,-0.0059 -0.04737,-0.01184 -0.04737,-0.04145 0,-0.01184 0,-0.01777 0.01777,-0.08291 z m 0,0"
             id="id-e20bde60-06d5-4a3b-84bf-154400a9917c" />
          <path
             style="fill:#dc0000;fill-opacity:1;stroke:none;stroke-width:0"
             d="m 34.853098,9.3727793 c 0,-0.3020164 -0.01777,-0.6040328 -0.148047,-0.8823617 -0.171735,-0.3671572 -0.485595,-0.4263761 -0.639565,-0.4263761 -0.230953,0 -0.50336,0.1006721 -0.663251,0.4500637 -0.118438,0.2605632 -0.136204,0.5566577 -0.136204,0.8586741 0,0.2842508 0.01184,0.6217985 0.171735,0.9119707 0.159891,0.302017 0.43822,0.379001 0.621799,0.379001 0.201344,0 0.491517,-0.07698 0.657329,-0.438219 0.118438,-0.2605636 0.136204,-0.5566582 0.136204,-0.8527527 z m -0.793533,1.2080657 c -0.148048,0 -0.373079,-0.09475 -0.43822,-0.455986 -0.04145,-0.2250314 -0.04145,-0.574423 -0.04145,-0.7994548 0,-0.2427975 0,-0.4915169 0.02961,-0.6928612 0.07106,-0.4500637 0.355313,-0.485595 0.450064,-0.485595 0.124359,0 0.373079,0.071063 0.444141,0.4441418 0.04145,0.213188 0.04145,0.4974388 0.04145,0.7343144 0,0.2842507 0,0.538892 -0.04145,0.7816898 -0.05922,0.361235 -0.272407,0.473751 -0.444141,0.473751 z m 0,0"
             id="id-9d77fd0e-16e2-490b-8412-d83e4cd531b5" />
          <path
             style="fill:#dc0000;fill-opacity:1;stroke:none;stroke-width:0"
             d="m 36.101338,9.2484196 c 0.307938,-0.1006721 0.527048,-0.3612353 0.527048,-0.6632517 0,-0.3079384 -0.331626,-0.5211264 -0.692861,-0.5211264 -0.379001,0 -0.669174,0.2250318 -0.669174,0.5152045 0,0.1243597 0.08291,0.1954224 0.195423,0.1954224 0.112516,0 0.1895,-0.082906 0.1895,-0.1954224 0,-0.1835786 -0.177657,-0.1835786 -0.230954,-0.1835786 0.112516,-0.1895005 0.361236,-0.2368757 0.497439,-0.2368757 0.159891,0 0.367157,0.082906 0.367157,0.4204543 0,0.047375 -0.01184,0.266485 -0.106594,0.432298 -0.112516,0.1835786 -0.242797,0.1954224 -0.337547,0.1954224 -0.02961,0.00592 -0.118438,0.011844 -0.148048,0.011844 -0.02961,0.00592 -0.0533,0.011844 -0.0533,0.047375 0,0.041453 0.02369,0.041453 0.08883,0.041453 h 0.165813 c 0.307938,0 0.450063,0.2546413 0.450063,0.6277204 0,0.5152042 -0.260563,0.6217982 -0.426376,0.6217982 -0.165813,0 -0.450064,-0.06514 -0.580345,-0.28425 0.130281,0.01777 0.248719,-0.06514 0.248719,-0.207266 0,-0.1362041 -0.100672,-0.2131886 -0.207266,-0.2131886 -0.09475,0 -0.213188,0.053297 -0.213188,0.2191096 0,0.34347 0.349392,0.592189 0.763924,0.592189 0.461907,0 0.805377,-0.343469 0.805377,-0.7283922 0,-0.3079383 -0.242797,-0.6040328 -0.633642,-0.6869393 z m 0,0"
             id="id-08143b2a-390c-4b97-9faa-503d733c3174" />
        </g>
        <g
           id="g2662"
           transform="translate(-50.690338,4.8038919)"
           style="fill:#dc0000">
          <path
             style="fill:#dc0000;fill-opacity:1;stroke:none;stroke-width:0"
             d="m 87.084362,9.3727793 c 0,-0.3020164 -0.01777,-0.6040328 -0.148047,-0.8823617 C 86.76458,8.1232604 86.45072,8.0640415 86.296751,8.0640415 c -0.230954,0 -0.503361,0.1006721 -0.663252,0.4500637 -0.118438,0.2605632 -0.136204,0.5566577 -0.136204,0.8586741 0,0.2842508 0.01184,0.6217985 0.171735,0.9119707 0.159891,0.302017 0.43822,0.379001 0.621799,0.379001 0.201344,0 0.491517,-0.07698 0.657329,-0.438219 0.118438,-0.2605636 0.136204,-0.5566582 0.136204,-0.8527527 z m -0.793533,1.2080657 c -0.148048,0 -0.37308,-0.09475 -0.43822,-0.455986 -0.04145,-0.2250314 -0.04145,-0.574423 -0.04145,-0.7994548 0,-0.2427975 0,-0.4915169 0.02961,-0.6928612 0.07106,-0.4500637 0.355313,-0.485595 0.450064,-0.485595 0.124359,0 0.373079,0.071063 0.444141,0.4441418 0.04145,0.213188 0.04145,0.4974388 0.04145,0.7343144 0,0.2842507 0,0.538892 -0.04145,0.7816898 -0.05922,0.361235 -0.272407,0.473751 -0.444141,0.473751 z m 0,0"
             id="id-1590ee92-d0bc-424a-b417-e64268594705" />
          <path
             style="fill:#dc0000;fill-opacity:1;stroke:none;stroke-width:0"
             d="m 88.350367,8.1647136 c 0,-0.09475 0,-0.1006721 -0.08883,-0.1006721 C 88.024663,8.306839 87.693038,8.306839 87.5746,8.306839 v 0.1184378 c 0.07698,0 0.296094,0 0.491517,-0.1006721 V 10.28475 c 0,0.136204 -0.01184,0.177657 -0.349392,0.177657 h -0.118438 v 0.118438 c 0.130282,-0.01184 0.455986,-0.01184 0.609955,-0.01184 0.148047,0 0.479673,0 0.609955,0.01184 v -0.118438 h -0.118438 c -0.34347,0 -0.349392,-0.04145 -0.349392,-0.177657 z m 0,0"
             id="id-8b96b831-9a1a-46e2-a8ef-2ba1facfcbc9" />
          <path
             style="fill:#dc0000;fill-opacity:1;stroke:none;stroke-width:0"
             d="m 90.238171,8.1647136 c 0,-0.09475 0,-0.1006721 -0.08883,-0.1006721 C 89.912467,8.306839 89.580842,8.306839 89.462404,8.306839 v 0.1184378 c 0.07698,0 0.296094,0 0.491517,-0.1006721 V 10.28475 c 0,0.136204 -0.01184,0.177657 -0.349392,0.177657 h -0.118438 v 0.118438 c 0.130282,-0.01184 0.455986,-0.01184 0.609955,-0.01184 0.148047,0 0.479673,0 0.609955,0.01184 v -0.118438 h -0.118438 c -0.34347,0 -0.349392,-0.04145 -0.349392,-0.177657 z m 0,0"
             id="id-57f0bdcd-c1b9-444d-bac4-c40ccd19b5e2" />
          <path
             style="fill:#dc0000;fill-opacity:1;stroke:none;stroke-width:0"
             d="m 92.748153,9.3727793 c 0,-0.3020164 -0.01777,-0.6040328 -0.148047,-0.8823617 -0.171735,-0.3671572 -0.485595,-0.4263761 -0.639564,-0.4263761 -0.230954,0 -0.503361,0.1006721 -0.663252,0.4500637 -0.118438,0.2605632 -0.136204,0.5566577 -0.136204,0.8586741 0,0.2842508 0.01184,0.6217985 0.171735,0.9119707 0.159891,0.302017 0.43822,0.379001 0.621799,0.379001 0.201344,0 0.491517,-0.07698 0.657329,-0.438219 0.118438,-0.2605636 0.136204,-0.5566582 0.136204,-0.8527527 z M 91.95462,10.580845 c -0.148048,0 -0.373079,-0.09475 -0.43822,-0.455986 -0.04145,-0.2250314 -0.04145,-0.574423 -0.04145,-0.7994548 0,-0.2427975 0,-0.4915169 0.02961,-0.6928612 0.07106,-0.4500637 0.355313,-0.485595 0.450064,-0.485595 0.124359,0 0.373079,0.071063 0.444141,0.4441418 0.04145,0.213188 0.04145,0.4974388 0.04145,0.7343144 0,0.2842507 0,0.538892 -0.04145,0.7816898 -0.05922,0.361235 -0.272407,0.473751 -0.444141,0.473751 z m 0,0"
             id="id-7d26faae-f8dd-48d2-bc16-adbfd3335f0d" />
          <path
             style="fill:#dc0000;fill-opacity:1;stroke:none;stroke-width:0"
             d="m 94.014158,8.1647136 c 0,-0.09475 0,-0.1006721 -0.08883,-0.1006721 C 93.688454,8.306839 93.356829,8.306839 93.238391,8.306839 v 0.1184378 c 0.07698,0 0.296094,0 0.491517,-0.1006721 V 10.28475 c 0,0.136204 -0.01184,0.177657 -0.349392,0.177657 h -0.118438 v 0.118438 c 0.130282,-0.01184 0.455986,-0.01184 0.609955,-0.01184 0.148047,0 0.479673,0 0.609955,0.01184 V 10.462407 H 94.36355 c -0.34347,0 -0.349392,-0.04145 -0.349392,-0.177657 z m 0,0"
             id="id-ee140898-767a-4366-9f80-a5100e95e281" />
          <path
             style="fill:#dc0000;fill-opacity:1;stroke:none;stroke-width:0"
             d="m 95.901962,8.1647136 c 0,-0.09475 0,-0.1006721 -0.08883,-0.1006721 C 95.576258,8.306839 95.244633,8.306839 95.126195,8.306839 v 0.1184378 c 0.07698,0 0.296094,0 0.491517,-0.1006721 V 10.28475 c 0,0.136204 -0.01184,0.177657 -0.349392,0.177657 h -0.118438 v 0.118438 c 0.130282,-0.01184 0.455986,-0.01184 0.609955,-0.01184 0.148047,0 0.479673,0 0.609955,0.01184 v -0.118438 h -0.118438 c -0.34347,0 -0.349392,-0.04145 -0.349392,-0.177657 z m 0,0"
             id="id-f71fcefa-1b84-4024-a480-39cd8c4484cc" />
          <path
             style="fill:#dc0000;fill-opacity:1;stroke:none;stroke-width:0"
             d="m 98.411565,9.3727793 c 0,-0.3020164 -0.01777,-0.6040328 -0.148047,-0.8823617 -0.171735,-0.3671572 -0.485595,-0.4263761 -0.639565,-0.4263761 -0.230953,0 -0.50336,0.1006721 -0.663251,0.4500637 -0.118438,0.2605632 -0.136204,0.5566577 -0.136204,0.8586741 0,0.2842508 0.01184,0.6217985 0.171735,0.9119707 0.159891,0.302017 0.43822,0.379001 0.621799,0.379001 0.201344,0 0.491517,-0.07698 0.657329,-0.438219 0.118438,-0.2605636 0.136204,-0.5566582 0.136204,-0.8527527 z m -0.793533,1.2080657 c -0.148048,0 -0.37308,-0.09475 -0.43822,-0.455986 -0.04145,-0.2250314 -0.04145,-0.574423 -0.04145,-0.7994548 0,-0.2427975 0,-0.4915169 0.02961,-0.6928612 0.07106,-0.4500637 0.355313,-0.485595 0.450064,-0.485595 0.124359,0 0.373079,0.071063 0.444141,0.4441418 0.04145,0.213188 0.04145,0.4974388 0.04145,0.7343144 0,0.2842507 0,0.538892 -0.04145,0.7816898 -0.05922,0.361235 -0.272407,0.473751 -0.444141,0.473751 z m 0,0"
             id="id-4f720cc0-e4a2-45a6-b3cd-3ba5c28c7709" />
          <path
             style="fill:#dc0000;fill-opacity:1;stroke:none;stroke-width:0"
             d="m 99.677949,8.1647136 c 0,-0.09475 0,-0.1006721 -0.08883,-0.1006721 C 99.352245,8.306839 99.02062,8.306839 98.902182,8.306839 v 0.1184378 c 0.07698,0 0.296094,0 0.491517,-0.1006721 V 10.28475 c 0,0.136204 -0.01184,0.177657 -0.349392,0.177657 h -0.118438 v 0.118438 c 0.130282,-0.01184 0.455986,-0.01184 0.609955,-0.01184 0.148047,0 0.479676,0 0.609956,0.01184 v -0.118438 h -0.11844 c -0.343469,0 -0.349391,-0.04145 -0.349391,-0.177657 z m 0,0"
             id="id-3dba005d-ef1d-49ca-8a6d-da0c61553e14" />
        </g>
      </g>
      <rect
         style="font-variation-settings:normal;vector-effect:none;fill:none;fill-opacity:1;fill-rule:evenodd;stroke:#000000;stroke-width:0.264583;stroke-linecap:butt;stroke-linejoin:miter;stroke-miterlimit:4;stroke-dasharray:none;stroke-dashoffset:0;stroke-opacity:1;stop-color:#000000"
         id="rect3125"
         width="17.197916"
         height="17.197916"
         x="-22.489584"
         y="18.520836" />
      <rect
         style="font-variation-settings:normal;vector-effect:none;fill:none;fill-opacity:1;fill-rule:evenodd;stroke:#000000;stroke-width:0.264583;stroke-linecap:butt;stroke-linejoin:miter;stroke-miterlimit:4;stroke-dasharray:none;stroke-dashoffset:0;stroke-opacity:1;stop-color:#000000"
         id="rect3207"
         width="17.197916"
         height="17.197916"
         x="-5.2916679"
         y="18.520836" />
      <rect
         style="font-variation-settings:normal;vector-effect:none;fill:none;fill-opacity:1;fill-rule:evenodd;stroke:#000000;stroke-width:0.264583;stroke-linecap:butt;stroke-linejoin:miter;stroke-miterlimit:4;stroke-dasharray:none;stroke-dashoffset:0;stroke-opacity:1;stop-color:#000000"
         id="rect3209"
         width="17.197916"
         height="17.197916"
         x="11.906248"
         y="18.520836" />
      <rect
         style="font-variation-settings:normal;vector-effect:none;fill:none;fill-opacity:1;fill-rule:evenodd;stroke:#000000;stroke-width:0.264583;stroke-linecap:butt;stroke-linejoin:miter;stroke-miterlimit:4;stroke-dasharray:none;stroke-dashoffset:0;stroke-opacity:1;stop-color:#000000"
         id="rect3211"
         width="17.197916"
         height="17.197916"
         x="29.104164"
         y="18.520836" />
      <rect
         style="font-variation-settings:normal;vector-effect:none;fill:none;fill-opacity:1;fill-rule:evenodd;stroke:#000000;stroke-width:0.264583;stroke-linecap:butt;stroke-linejoin:miter;stroke-miterlimit:4;stroke-dasharray:none;stroke-dashoffset:0;stroke-opacity:1;stop-color:#000000"
         id="rect3213"
         width="17.197916"
         height="17.197916"
         x="46.302082"
         y="18.520836" />
      <rect
         style="font-variation-settings:normal;vector-effect:none;fill:none;fill-opacity:1;fill-rule:evenodd;stroke:#000000;stroke-width:0.264583;stroke-linecap:butt;stroke-linejoin:miter;stroke-miterlimit:4;stroke-dasharray:none;stroke-dashoffset:0;stroke-opacity:1;stop-color:#000000"
         id="rect3215"
         width="17.197916"
         height="17.197916"
         x="-39.687504"
         y="18.520836" />
      <g
         id="g3922"
         transform="matrix(3.2581423,0,0,3.2581423,-31.236867,-127.40552)">
        <text
           xml:space="preserve"
           style="font-style:italic;font-weight:500;font-size:3.72935px;line-height:1.25;font-family:'CMU Serif';-inkscape-font-specification:'CMU Serif, Medium Italic';text-align:center;letter-spacing:0px;word-spacing:0px;text-anchor:middle;stroke-width:0.264583"
           x="-1.135e-06"
           y="47.625004"
           id="text3838"><tspan
             sodipodi:role="line"
             id="tspan3836"
             style="stroke-width:0.264583"
             x="-1.221613e-06"
             y="47.625004">...</tspan></text>
      </g>
      <g
         id="g3928"
         transform="matrix(3.2581423,0,0,3.2581423,54.752719,-127.40552)">
        <text
           xml:space="preserve"
           style="font-style:italic;font-weight:500;font-size:3.72935px;line-height:1.25;font-family:'CMU Serif';-inkscape-font-specification:'CMU Serif, Medium Italic';text-align:center;letter-spacing:0px;word-spacing:0px;text-anchor:middle;stroke-width:0.264583"
           x="-1.135e-06"
           y="47.625004"
           id="text3926"><tspan
             sodipodi:role="line"
             id="tspan3924"
             style="stroke-width:0.264583"
             x="-1.221613e-06"
             y="47.625004">...</tspan></text>
      </g>
    </g>
  </g>
</svg>
