<?xml version="1.0" encoding="UTF-8" standalone="no"?>
<svg
   version="1.1"
   id="svg903"
   sodipodi:docname="dmux_gate.svg"
   inkscape:version="1.1 (c4e8f9e, 2021-05-24)"
   width="31.754665"
   height="26.359356"
   viewBox="0 0 38.747419 18.935238"
   xmlns:inkscape="http://www.inkscape.org/namespaces/inkscape"
   xmlns:sodipodi="http://sodipodi.sourceforge.net/DTD/sodipodi-0.dtd"
   xmlns="http://www.w3.org/2000/svg"
   xmlns:svg="http://www.w3.org/2000/svg">
  <sodipodi:namedview
     id="namedview905"
     pagecolor="#ffffff"
     bordercolor="#666666"
     borderopacity="1.0"
     inkscape:pageshadow="2"
     inkscape:pageopacity="0.0"
     inkscape:pagecheckerboard="0"
     showgrid="false"
     inkscape:zoom="11.404948"
     inkscape:cx="6.707615"
     inkscape:cy="13.371389"
     inkscape:window-width="1440"
     inkscape:window-height="847"
     inkscape:window-x="1686"
     inkscape:window-y="85"
     inkscape:window-maximized="0"
     inkscape:current-layer="svg903"
     inkscape:snap-global="false"
     lock-margins="true"
     fit-margin-top="0"
     fit-margin-left="0"
     fit-margin-right="0"
     fit-margin-bottom="0"
     viewbox-height="100"
     width="65.16291px"
     inkscape:snap-center="true">
    <inkscape:grid
       type="xygrid"
       id="grid1463"
       originx="-413.2479"
       originy="-218.21155" />
  </sodipodi:namedview>
  <defs
     id="defs831">
    <clipPath
       id="page">
      <rect
         x="0"
         y="0"
         width="760"
         height="620"
         id="rect824" />
    </clipPath>
    <clipPath
       id="clipPath829">
      <rect
         x="0"
         y="0"
         width="760"
         height="620"
         id="rect827" />
    </clipPath>
    <defs
       id="id-6218469a-638a-438a-8285-87af46e395b2">
      <g
         id="id-41f024df-1921-46fd-b358-2bb13516e3a0">
        <symbol
           overflow="visible"
           id="id-751024ce-17db-425f-8adf-8e5129a58830">
          <path
             style="stroke:none;stroke-width:0"
             d=""
             id="id-f6b93899-9967-45d1-bf36-847d7d2c198e" />
        </symbol>
        <symbol
           overflow="visible"
           id="id-ccd68d53-c78f-4352-a28f-35fa76bbcac7">
          <path
             style="stroke:none;stroke-width:0"
             d="M 3.65625,-0.3125 C 3.875,-0.015625 4.34375,0 4.71875,0 c 0.28125,0 0.5,0 0.5,-0.3125 0,-0.296875 -0.25,-0.296875 -0.390625,-0.296875 -0.421875,0 -0.515625,-0.046875 -0.59375,-0.078125 v -2.15625 c 0,-0.703125 -0.546875,-1.546875 -1.984375,-1.546875 -0.421875,0 -1.4375,0 -1.4375,0.734375 0,0.296875 0.203125,0.453125 0.4375,0.453125 0.15625,0 0.4375,-0.09375 0.4375,-0.453125 0,-0.078125 0.015625,-0.09375 0.21875,-0.109375 0.140625,-0.015625 0.265625,-0.015625 0.359375,-0.015625 0.75,0 1.265625,0.3125 1.265625,1.015625 -1.75,0.03125 -2.984375,0.53125 -2.984375,1.484375 0,0.6875 0.625,1.34375 1.640625,1.34375 0.375,0 1,-0.078125 1.46875,-0.375 z m -0.125,-1.859375 v 0.84375 c 0,0.21875 0,0.4375 -0.375,0.609375 -0.359375,0.171875 -0.8125,0.171875 -0.890625,0.171875 -0.625,0 -1.03125,-0.34375 -1.03125,-0.734375 0,-0.484375 0.859375,-0.859375 2.296875,-0.890625 z m 0,0"
             id="id-b9f47a47-f328-4fbb-9ab9-075c127460cc" />
        </symbol>
        <symbol
           overflow="visible"
           id="id-401b8321-aa4e-4d98-9505-d73242a42246">
          <path
             style="stroke:none;stroke-width:0"
             d="m 3.078125,-3.890625 c 0,-0.3125 -0.0625,-0.40625 -0.390625,-0.40625 H 1.265625 c -0.15625,0 -0.40625,0 -0.40625,0.296875 0,0.3125 0.25,0.3125 0.40625,0.3125 h 1.125 v 3.078125 H 1.1875 c -0.15625,0 -0.40625,0 -0.40625,0.3125 C 0.78125,0 1.03125,0 1.1875,0 H 4.125 c 0.15625,0 0.40625,0 0.40625,-0.296875 0,-0.3125 -0.25,-0.3125 -0.40625,-0.3125 H 3.078125 Z m 0,-1.71875 c 0,-0.265625 -0.21875,-0.484375 -0.5,-0.484375 -0.28125,0 -0.5,0.21875 -0.5,0.484375 0,0.28125 0.21875,0.5 0.5,0.5 0.28125,0 0.5,-0.21875 0.5,-0.5 z m 0,0"
             id="id-0fd42125-ad84-4701-a8ce-45308056cf4b" />
        </symbol>
        <symbol
           overflow="visible"
           id="id-05c21c86-3cfb-4459-8d0c-c82f21629225">
          <path
             style="stroke:none;stroke-width:0"
             d="m 1.65625,-3.828125 c 0,-0.3125 0,-0.46875 -0.40625,-0.46875 H 0.53125 c -0.15625,0 -0.40625,0 -0.40625,0.3125 0,0.296875 0.25,0.296875 0.390625,0.296875 H 0.96875 v 3.078125 h -0.4375 c -0.15625,0 -0.40625,0 -0.40625,0.3125 C 0.125,0 0.375,0 0.515625,0 h 1.59375 C 2.25,0 2.5,0 2.5,-0.296875 c 0,-0.3125 -0.25,-0.3125 -0.40625,-0.3125 H 1.65625 V -2.375 c 0,-1 0.734375,-1.375 1.25,-1.375 0.515625,0 0.65625,0.28125 0.65625,0.875 v 2.265625 h -0.375 c -0.171875,0 -0.421875,0 -0.421875,0.3125 C 2.765625,0 3.046875,0 3.1875,0 h 1.515625 c 0.140625,0 0.40625,0 0.40625,-0.296875 0,-0.3125 -0.25,-0.3125 -0.421875,-0.3125 H 4.25 v -2.3125 c 0,-1 -0.5,-1.4375 -1.296875,-1.4375 -0.65625,0 -1.109375,0.34375 -1.296875,0.53125 z m 0,0"
             id="id-cd1dcb34-b685-4e9c-bcc9-a4dde7921945" />
        </symbol>
        <symbol
           overflow="visible"
           id="id-5f56a1bd-723a-449b-a3b1-7588ebe3e409">
          <path
             style="stroke:none;stroke-width:0"
             d="m 1.65625,-3.875 v -1.8125 c 0,-0.296875 -0.0625,-0.40625 -0.40625,-0.40625 H 0.53125 c -0.15625,0 -0.40625,0 -0.40625,0.3125 0,0.296875 0.25,0.296875 0.390625,0.296875 H 0.96875 V -0.40625 C 0.96875,-0.203125 0.96875,0 1.3125,0 1.65625,0 1.65625,-0.203125 1.65625,-0.453125 2.0625,-0.03125 2.5,0.0625 2.8125,0.0625 c 1.078125,0 2.046875,-0.953125 2.046875,-2.21875 0,-1.21875 -0.875,-2.203125 -1.9375,-2.203125 C 2.4375,-4.359375 2,-4.171875 1.65625,-3.875 Z m 0,1.96875 V -2.625 c 0,-0.59375 0.578125,-1.125 1.203125,-1.125 0.734375,0 1.3125,0.734375 1.3125,1.59375 0,0.953125 -0.6875,1.609375 -1.390625,1.609375 -0.78125,0 -1.125,-0.875 -1.125,-1.359375 z m 0,0"
             id="id-b698f2b2-49e2-41f4-acf3-55dfbbc509bb" />
        </symbol>
        <symbol
           overflow="visible"
           id="id-1f3dfe3a-af28-4378-9c76-aa66616c3dcc">
          <path
             style="stroke:none;stroke-width:0"
             d="m 4.65625,-2.15625 c 0,-1.25 -0.921875,-2.234375 -2.046875,-2.234375 -1.109375,0 -2.046875,0.984375 -2.046875,2.234375 0,1.265625 0.953125,2.21875 2.046875,2.21875 1.09375,0 2.046875,-0.953125 2.046875,-2.21875 z M 2.609375,-0.546875 C 1.875,-0.546875 1.25,-1.296875 1.25,-2.21875 c 0,-0.90625 0.65625,-1.5625 1.359375,-1.5625 0.71875,0 1.359375,0.65625 1.359375,1.5625 0,0.921875 -0.625,1.671875 -1.359375,1.671875 z m 0,0"
             id="id-c1270fac-d09c-4689-bd6d-b0156142bddb" />
        </symbol>
        <symbol
           overflow="visible"
           id="id-e6207ffc-747b-45f3-992f-2730cf031a66">
          <path
             style="stroke:none;stroke-width:0"
             d="M 3.5625,-0.3125 C 3.578125,0 3.78125,0 3.96875,0 H 4.6875 c 0.171875,0 0.421875,0 0.421875,-0.3125 0,-0.296875 -0.265625,-0.296875 -0.40625,-0.296875 H 4.25 v -3.28125 c 0,-0.3125 -0.046875,-0.40625 -0.390625,-0.40625 H 3.125 c -0.15625,0 -0.40625,0 -0.40625,0.3125 0,0.296875 0.265625,0.296875 0.40625,0.296875 h 0.4375 v 2.125 c 0,0.890625 -0.796875,1.015625 -1.125,1.015625 -0.78125,0 -0.78125,-0.328125 -0.78125,-0.65625 v -2.6875 c 0,-0.3125 -0.0625,-0.40625 -0.40625,-0.40625 H 0.53125 c -0.15625,0 -0.40625,0 -0.40625,0.3125 0,0.296875 0.25,0.296875 0.390625,0.296875 H 0.96875 v 2.546875 c 0,0.96875 0.6875,1.203125 1.40625,1.203125 0.421875,0 0.828125,-0.109375 1.1875,-0.375 z m 0,0"
             id="id-9d42f572-479c-4864-bc3d-5b49699842bf" />
        </symbol>
        <symbol
           overflow="visible"
           id="id-51bfbd88-b321-441a-bddf-ba7a11db208a">
          <path
             style="stroke:none;stroke-width:0"
             d="m 2.21875,-3.6875 h 1.625 c 0.15625,0 0.40625,0 0.40625,-0.296875 0,-0.3125 -0.25,-0.3125 -0.40625,-0.3125 h -1.625 v -0.8125 c 0,-0.1875 0,-0.40625 -0.34375,-0.40625 -0.34375,0 -0.34375,0.203125 -0.34375,0.40625 v 0.8125 h -0.875 c -0.15625,0 -0.40625,0 -0.40625,0.3125 0,0.296875 0.25,0.296875 0.390625,0.296875 H 1.53125 V -1.25 c 0,0.953125 0.671875,1.3125 1.40625,1.3125 0.734375,0 1.53125,-0.4375 1.53125,-1.3125 0,-0.1875 0,-0.390625 -0.34375,-0.390625 -0.328125,0 -0.34375,0.203125 -0.34375,0.375 0,0.625 -0.578125,0.71875 -0.796875,0.71875 -0.765625,0 -0.765625,-0.515625 -0.765625,-0.765625 z m 0,0"
             id="id-f74c9a73-0850-47af-9843-d8aaf2169dcb" />
        </symbol>
        <symbol
           overflow="visible"
           id="id-200c1419-b8e5-405f-be97-acac90bf23be">
          <path
             style="stroke:none;stroke-width:0"
             d="m 3.15625,-5.828125 c -0.09375,-0.375 -0.234375,-0.375 -0.546875,-0.375 -0.28125,0 -0.453125,0 -0.53125,0.375 L 0.875,-0.609375 c -0.140625,0 -0.375,0 -0.4375,0.015625 -0.109375,0.0625 -0.171875,0.171875 -0.171875,0.296875 C 0.265625,0 0.53125,0 0.703125,0 H 1.71875 c 0.171875,0 0.421875,0 0.421875,-0.296875 0,-0.3125 -0.203125,-0.3125 -0.5625,-0.3125 l 0.21875,-1.03125 h 1.625 l 0.234375,1.03125 c -0.359375,0 -0.5625,0 -0.5625,0.3125 C 3.09375,0 3.328125,0 3.515625,0 H 4.53125 c 0.15625,0 0.421875,0 0.421875,-0.296875 0,-0.125 -0.046875,-0.234375 -0.171875,-0.28125 C 4.71875,-0.609375 4.5,-0.609375 4.359375,-0.609375 Z M 2.609375,-5.40625 H 2.625 L 3.265625,-2.25 h -1.3125 z m 0,0"
             id="id-f8319bc5-2d07-4ba8-be76-a87f43cbb9b1" />
        </symbol>
        <symbol
           overflow="visible"
           id="id-b25f727e-99ff-45b9-ba92-abffca11b1ab">
          <path
             style="stroke:none;stroke-width:0"
             d="M 1.890625,-5.734375 C 1.78125,-6.0625 1.625,-6.09375 1.359375,-6.09375 h -0.6875 c -0.140625,0 -0.390625,0 -0.390625,0.296875 0,0.3125 0.234375,0.3125 0.390625,0.3125 h 0.25 v 4.875 h -0.25 c -0.140625,0 -0.390625,0 -0.390625,0.296875 C 0.28125,0 0.515625,0 0.671875,0 h 1.0625 c 0.15625,0 0.40625,0 0.40625,-0.296875 0,-0.3125 -0.25,-0.3125 -0.40625,-0.3125 h -0.25 V -5.34375 H 1.5 l 1.828125,4.984375 C 3.453125,-0.015625 3.625,0 3.875,0 4.171875,0 4.296875,-0.03125 4.296875,-0.40625 v -5.078125 h 0.25 c 0.140625,0 0.390625,0 0.390625,-0.296875 0,-0.3125 -0.234375,-0.3125 -0.390625,-0.3125 h -1.0625 c -0.15625,0 -0.390625,0 -0.390625,0.3125 0,0.296875 0.25,0.296875 0.390625,0.296875 h 0.25 V -0.75 Z m 0,0"
             id="id-93fd820e-48ab-4e59-b856-fa13db5d1be0" />
        </symbol>
        <symbol
           overflow="visible"
           id="id-a982602c-b3a5-4545-892b-4b3eff224e27">
          <path
             style="stroke:none;stroke-width:0"
             d="m 0.59375,-6.09375 c -0.15625,0 -0.40625,0 -0.40625,0.3125 0,0.296875 0.265625,0.296875 0.40625,0.296875 H 0.8125 v 4.875 H 0.59375 c -0.15625,0 -0.40625,0 -0.40625,0.3125 C 0.1875,0 0.453125,0 0.59375,0 h 2.0625 c 1.296875,0 2.171875,-1.390625 2.171875,-3 0,-1.59375 -0.84375,-3.09375 -2.171875,-3.09375 z M 1.5,-0.609375 v -4.875 h 0.96875 c 1.125,0 1.671875,1.328125 1.671875,2.484375 0,1.171875 -0.578125,2.390625 -1.671875,2.390625 z m 0,0"
             id="id-224038d9-4e7c-47de-b24d-f48c3630ffbd" />
        </symbol>
        <symbol
           overflow="visible"
           id="id-3794078e-7ca2-48ba-bf3e-babf57e7553f">
          <path
             style="stroke:none;stroke-width:0"
             d="m 4.671875,-3.046875 c 0,-2.875 -0.21875,-3.15625 -2.0625,-3.15625 -1.84375,0 -2.046875,0.265625 -2.046875,3.15625 0,2.890625 0.203125,3.15625 2.046875,3.15625 1.84375,0 2.0625,-0.265625 2.0625,-3.15625 z M 2.609375,-0.5 c -0.875,0 -1.125,-0.203125 -1.25,-0.703125 C 1.25,-1.71875 1.25,-2.578125 1.25,-3.125 c 0,-0.625 0,-1.296875 0.109375,-1.765625 0.125,-0.578125 0.4375,-0.703125 1.25,-0.703125 0.75,0 1.09375,0.09375 1.25,0.640625 0.125,0.46875 0.125,1.21875 0.125,1.828125 0,0.609375 0,1.328125 -0.109375,1.859375 C 3.765625,-0.703125 3.5,-0.5 2.609375,-0.5 Z m 0,0"
             id="id-7b7e6dbc-b182-430a-a3ef-a5094e130594" />
        </symbol>
        <symbol
           overflow="visible"
           id="id-fa0f2f5b-0e23-4716-b0b0-67dce32f3ce1">
          <path
             style="stroke:none;stroke-width:0"
             d="m 1.5625,-5.484375 h 0.703125 c 0.921875,0 1.359375,0.59375 1.359375,1.0625 0,0.5 -0.4375,1.078125 -1.359375,1.078125 H 1.5625 Z M 3.46875,-3.03125 C 4.125,-3.40625 4.3125,-4 4.3125,-4.421875 4.3125,-5.28125 3.5625,-6.09375 2.375,-6.09375 h -1.75 c -0.171875,0 -0.40625,0 -0.40625,0.3125 0,0.296875 0.25,0.296875 0.40625,0.296875 h 0.25 v 4.875 h -0.25 c -0.171875,0 -0.40625,0 -0.40625,0.3125 C 0.21875,0 0.46875,0 0.625,0 h 1.171875 c 0.15625,0 0.40625,0 0.40625,-0.296875 0,-0.3125 -0.234375,-0.3125 -0.40625,-0.3125 H 1.5625 v -2.125 h 0.765625 c 0.1875,0 0.5,0 0.8125,0.265625 0.21875,0.21875 0.21875,0.4375 0.21875,0.859375 0,0.640625 0,0.9375 0.1875,1.265625 C 3.71875,-0.046875 4,0.109375 4.34375,0.109375 c 0.625,0 0.859375,-0.65625 0.859375,-1.03125 C 5.203125,-1.25 4.96875,-1.25 4.859375,-1.25 4.75,-1.25 4.53125,-1.25 4.515625,-0.953125 4.515625,-0.875 4.5,-0.5 4.328125,-0.5 c -0.28125,0 -0.28125,-0.453125 -0.28125,-0.984375 0,-0.625 0,-0.703125 -0.09375,-0.9375 -0.109375,-0.296875 -0.34375,-0.5 -0.484375,-0.609375 z m 0,0"
             id="id-db8e951c-11f6-411a-91d4-f855b18c2f52" />
        </symbol>
        <symbol
           overflow="visible"
           id="id-577334e6-4aef-4721-88a3-b043c304ac55">
          <path
             style="stroke:none;stroke-width:0"
             d="M 2.953125,-5.484375 H 4.28125 v 0.53125 c 0,0.1875 0,0.40625 0.328125,0.40625 0.359375,0 0.359375,-0.203125 0.359375,-0.40625 V -5.6875 c 0,-0.296875 -0.0625,-0.40625 -0.40625,-0.40625 H 0.671875 c -0.328125,0 -0.40625,0.078125 -0.40625,0.40625 v 0.734375 c 0,0.1875 0,0.40625 0.328125,0.40625 0.359375,0 0.359375,-0.203125 0.359375,-0.40625 v -0.53125 h 1.3125 v 4.875 H 1.75 c -0.140625,0 -0.390625,0 -0.390625,0.296875 C 1.359375,0 1.59375,0 1.75,0 H 3.484375 C 3.625,0 3.875,0 3.875,-0.296875 c 0,-0.3125 -0.234375,-0.3125 -0.390625,-0.3125 h -0.53125 z m 0,0"
             id="id-32bac1b0-5a52-4f06-b328-242c1b243ff5" />
        </symbol>
      </g>
    </defs>
    <defs
       id="id-ec203785-2bbc-436f-ab49-697b9375c35a">
      <g
         id="id-0a56ea66-8b53-475a-bdab-711ee7a37cb4">
        <symbol
           overflow="visible"
           id="id-7d28ac79-f4b8-4a73-9436-d34e1a59e0f1">
          <path
             style="stroke:none;stroke-width:0"
             d=""
             id="id-6266ddca-c1e0-43f8-9cc1-02fb7146f3ae" />
        </symbol>
        <symbol
           overflow="visible"
           id="id-09547277-9aa9-4b7b-bb1b-6ce8eb4ba293">
          <path
             style="stroke:none;stroke-width:0"
             d="M 2.890625,-3.671875 C 2.765625,-3.3125 2.6875,-3.03125 2.625,-2.734375 H 2.609375 c -0.09375,-0.46875 -0.96875,-3.0625 -1,-3.125 C 1.515625,-6.09375 1.265625,-6.09375 1.125,-6.09375 H 0.5625 c -0.140625,0 -0.390625,0 -0.390625,0.296875 0,0.3125 0.203125,0.3125 0.53125,0.3125 v 4.875 c -0.328125,0 -0.53125,0 -0.53125,0.3125 C 0.171875,0 0.421875,0 0.5625,0 H 1.390625 C 1.53125,0 1.78125,0 1.78125,-0.296875 c 0,-0.3125 -0.203125,-0.3125 -0.53125,-0.3125 v -4.75 h 0.015625 c 0.109375,0.453125 0.75,2.375 0.78125,2.5 C 2.140625,-2.625 2.265625,-2.25 2.3125,-2.1875 2.375,-2.109375 2.5,-2.03125 2.609375,-2.03125 c 0.125,0 0.265625,-0.078125 0.34375,-0.21875 0.03125,-0.0625 0.890625,-2.578125 1,-3.109375 H 3.96875 v 4.75 c -0.3125,0 -0.53125,0 -0.53125,0.3125 C 3.4375,0 3.6875,0 3.84375,0 h 0.8125 c 0.15625,0 0.390625,0 0.390625,-0.296875 0,-0.3125 -0.203125,-0.3125 -0.515625,-0.3125 v -4.875 c 0.3125,0 0.515625,0 0.515625,-0.3125 0,-0.296875 -0.234375,-0.296875 -0.390625,-0.296875 h -0.5625 c -0.40625,0 -0.4375,0.140625 -0.53125,0.40625 z m 0,0"
             id="id-6a9db49b-6918-4b89-9ce8-ea7cb336ac92" />
        </symbol>
        <symbol
           overflow="visible"
           id="id-d8fdee6a-80d8-4571-9f57-5c27179a6511">
          <path
             style="stroke:none;stroke-width:0"
             d="M 3.5625,-0.3125 C 3.578125,0 3.78125,0 3.96875,0 H 4.6875 c 0.171875,0 0.421875,0 0.421875,-0.3125 0,-0.296875 -0.265625,-0.296875 -0.40625,-0.296875 H 4.25 v -3.28125 c 0,-0.3125 -0.046875,-0.40625 -0.390625,-0.40625 H 3.125 c -0.15625,0 -0.40625,0 -0.40625,0.3125 0,0.296875 0.265625,0.296875 0.40625,0.296875 h 0.4375 v 2.125 c 0,0.890625 -0.796875,1.015625 -1.125,1.015625 -0.78125,0 -0.78125,-0.328125 -0.78125,-0.65625 v -2.6875 c 0,-0.3125 -0.0625,-0.40625 -0.40625,-0.40625 H 0.53125 c -0.15625,0 -0.40625,0 -0.40625,0.3125 0,0.296875 0.25,0.296875 0.390625,0.296875 H 0.96875 v 2.546875 c 0,0.96875 0.6875,1.203125 1.40625,1.203125 0.421875,0 0.828125,-0.109375 1.1875,-0.375 z m 0,0"
             id="id-721ccac4-ddaa-4d71-b924-d32166297769" />
        </symbol>
        <symbol
           overflow="visible"
           id="id-376f8408-37f1-4ab4-bec2-d812fe40da5b">
          <path
             style="stroke:none;stroke-width:0"
             d="M 2.859375,-2.21875 4,-3.6875 h 0.390625 c 0.140625,0 0.421875,0 0.421875,-0.296875 0,-0.3125 -0.265625,-0.3125 -0.421875,-0.3125 h -1.15625 c -0.15625,0 -0.40625,0 -0.40625,0.296875 0,0.3125 0.21875,0.3125 0.484375,0.3125 l -0.734375,1 -0.75,-1 c 0.25,0 0.46875,0 0.46875,-0.3125 0,-0.296875 -0.25,-0.296875 -0.390625,-0.296875 H 0.734375 c -0.140625,0 -0.40625,0 -0.40625,0.3125 0,0.296875 0.265625,0.296875 0.40625,0.296875 h 0.40625 L 2.3125,-2.21875 1.078125,-0.609375 h -0.40625 c -0.140625,0 -0.40625,0 -0.40625,0.3125 C 0.265625,0 0.53125,0 0.671875,0 H 1.84375 C 2,0 2.25,0 2.25,-0.296875 c 0,-0.3125 -0.21875,-0.3125 -0.53125,-0.3125 l 0.859375,-1.21875 0.890625,1.21875 c -0.28125,0 -0.5,0 -0.5,0.3125 C 2.96875,0 3.21875,0 3.375,0 h 1.15625 c 0.140625,0 0.40625,0 0.40625,-0.296875 0,-0.3125 -0.25,-0.3125 -0.40625,-0.3125 H 4.140625 Z m 0,0"
             id="id-304c2cee-c999-486d-a018-557eaa0b4b44" />
        </symbol>
        <symbol
           overflow="visible"
           id="id-6c1f408a-72e1-455e-95cc-9b5bf2e23285">
          <path
             style="stroke:none;stroke-width:0"
             d="M 2.96875,-2.546875 C 2.734375,-2.578125 2.546875,-2.609375 2.296875,-2.65625 2,-2.703125 1.328125,-2.828125 1.328125,-3.203125 c 0,-0.265625 0.3125,-0.578125 1.265625,-0.578125 0.828125,0 0.96875,0.296875 1,0.5625 0,0.171875 0.03125,0.34375 0.328125,0.34375 0.359375,0 0.359375,-0.21875 0.359375,-0.421875 v -0.6875 c 0,-0.15625 0,-0.40625 -0.296875,-0.40625 -0.25,0 -0.28125,0.140625 -0.3125,0.21875 -0.4375,-0.21875 -0.875,-0.21875 -1.0625,-0.21875 -1.65625,0 -1.890625,0.828125 -1.890625,1.1875 0,0.90625 1.046875,1.078125 1.96875,1.21875 0.484375,0.078125 1.28125,0.203125 1.28125,0.734375 0,0.375 -0.375,0.703125 -1.28125,0.703125 -0.46875,0 -1.015625,-0.109375 -1.265625,-0.890625 -0.0625,-0.171875 -0.09375,-0.28125 -0.359375,-0.28125 -0.34375,0 -0.34375,0.203125 -0.34375,0.40625 v 0.96875 c 0,0.15625 0,0.40625 0.296875,0.40625 0.09375,0 0.25,-0.015625 0.375,-0.375 0.484375,0.359375 1.015625,0.375 1.296875,0.375 1.5625,0 1.890625,-0.828125 1.890625,-1.3125 0,-1.03125 -1.28125,-1.25 -1.609375,-1.296875 z m 0,0"
             id="id-5296f883-5d75-4a84-8d11-71e3fdee1e70" />
        </symbol>
        <symbol
           overflow="visible"
           id="id-b458080b-926b-4abf-b1b9-1aae41e81946">
          <path
             style="stroke:none;stroke-width:0"
             d="m 4.234375,-1.90625 c 0.203125,0 0.390625,0 0.390625,-0.359375 0,-1.140625 -0.640625,-2.125 -1.9375,-2.125 -1.1875,0 -2.140625,1 -2.140625,2.234375 0,1.203125 1.015625,2.21875 2.296875,2.21875 1.3125,0 1.78125,-0.90625 1.78125,-1.15625 0,-0.265625 -0.28125,-0.265625 -0.34375,-0.265625 -0.1875,0 -0.265625,0.03125 -0.328125,0.21875 -0.21875,0.5 -0.765625,0.59375 -1.046875,0.59375 -0.75,0 -1.484375,-0.5 -1.65625,-1.359375 z M 1.265625,-2.5 C 1.40625,-3.234375 2,-3.78125 2.6875,-3.78125 c 0.515625,0 1.140625,0.25 1.234375,1.28125 z m 0,0"
             id="id-5bbac773-800c-44c6-8395-e0b614c22e7d" />
        </symbol>
        <symbol
           overflow="visible"
           id="id-e67d6124-f67c-45e4-9dbe-7c405a0c149e">
          <path
             style="stroke:none;stroke-width:0"
             d="m 2.953125,-5.6875 c 0,-0.296875 -0.046875,-0.40625 -0.390625,-0.40625 H 0.984375 c -0.15625,0 -0.40625,0 -0.40625,0.3125 0,0.296875 0.265625,0.296875 0.40625,0.296875 h 1.28125 v 4.875 h -1.28125 c -0.15625,0 -0.40625,0 -0.40625,0.3125 C 0.578125,0 0.84375,0 0.984375,0 H 4.25 c 0.15625,0 0.40625,0 0.40625,-0.296875 0,-0.3125 -0.234375,-0.3125 -0.40625,-0.3125 H 2.953125 Z m 0,0"
             id="id-2b3e2151-d5a6-43c1-87ef-1f148afcc75a" />
        </symbol>
      </g>
    </defs>
    <defs
       id="id-f38d857f-fe73-4bc9-92fc-f08859695192">
      <g
         id="id-1e849af0-c7c0-417d-9144-46370a6a6f60">
        <symbol
           overflow="visible"
           id="id-c2650955-31e8-4da7-9f2b-a9e0753a80f0">
          <path
             style="stroke:none;stroke-width:0"
             d=""
             id="id-5070e65e-246f-43f0-8e84-72632df9b4bf" />
        </symbol>
        <symbol
           overflow="visible"
           id="id-dddc8664-66ec-436c-b90f-69509e111909">
          <path
             style="stroke:none;stroke-width:0"
             d="m 3.078125,-3.890625 c 0,-0.3125 -0.0625,-0.40625 -0.390625,-0.40625 H 1.265625 c -0.15625,0 -0.40625,0 -0.40625,0.296875 0,0.3125 0.25,0.3125 0.40625,0.3125 h 1.125 v 3.078125 H 1.1875 c -0.15625,0 -0.40625,0 -0.40625,0.3125 C 0.78125,0 1.03125,0 1.1875,0 H 4.125 c 0.15625,0 0.40625,0 0.40625,-0.296875 0,-0.3125 -0.25,-0.3125 -0.40625,-0.3125 H 3.078125 Z m 0,-1.71875 c 0,-0.265625 -0.21875,-0.484375 -0.5,-0.484375 -0.28125,0 -0.5,0.21875 -0.5,0.484375 0,0.28125 0.21875,0.5 0.5,0.5 0.28125,0 0.5,-0.21875 0.5,-0.5 z m 0,0"
             id="id-0400f4ee-9f39-4941-a030-7f22f499b16d" />
        </symbol>
        <symbol
           overflow="visible"
           id="id-e02f596c-d232-4ea9-8110-363d271c7260">
          <path
             style="stroke:none;stroke-width:0"
             d="m 1.65625,-3.828125 c 0,-0.3125 0,-0.46875 -0.40625,-0.46875 H 0.53125 c -0.15625,0 -0.40625,0 -0.40625,0.3125 0,0.296875 0.25,0.296875 0.390625,0.296875 H 0.96875 v 3.078125 h -0.4375 c -0.15625,0 -0.40625,0 -0.40625,0.3125 C 0.125,0 0.375,0 0.515625,0 h 1.59375 C 2.25,0 2.5,0 2.5,-0.296875 c 0,-0.3125 -0.25,-0.3125 -0.40625,-0.3125 H 1.65625 V -2.375 c 0,-1 0.734375,-1.375 1.25,-1.375 0.515625,0 0.65625,0.28125 0.65625,0.875 v 2.265625 h -0.375 c -0.171875,0 -0.421875,0 -0.421875,0.3125 C 2.765625,0 3.046875,0 3.1875,0 h 1.515625 c 0.140625,0 0.40625,0 0.40625,-0.296875 0,-0.3125 -0.25,-0.3125 -0.421875,-0.3125 H 4.25 v -2.3125 c 0,-1 -0.5,-1.4375 -1.296875,-1.4375 -0.65625,0 -1.109375,0.34375 -1.296875,0.53125 z m 0,0"
             id="id-b987c328-0b75-4841-8a7d-73e6a8b9e053" />
        </symbol>
        <symbol
           overflow="visible"
           id="id-c5d80074-f142-4880-b706-e4d01de229b0">
          <path
             style="stroke:none;stroke-width:0"
             d="m 0.59375,-6.09375 c -0.15625,0 -0.40625,0 -0.40625,0.3125 0,0.296875 0.265625,0.296875 0.40625,0.296875 H 0.8125 v 4.875 H 0.59375 c -0.15625,0 -0.40625,0 -0.40625,0.3125 C 0.1875,0 0.453125,0 0.59375,0 h 2.0625 c 1.296875,0 2.171875,-1.390625 2.171875,-3 0,-1.59375 -0.84375,-3.09375 -2.171875,-3.09375 z M 1.5,-0.609375 v -4.875 h 0.96875 c 1.125,0 1.671875,1.328125 1.671875,2.484375 0,1.171875 -0.578125,2.390625 -1.671875,2.390625 z m 0,0"
             id="id-42f6e53a-17e2-493a-8710-7af755cfb855" />
        </symbol>
        <symbol
           overflow="visible"
           id="id-3849a366-eb4c-427b-8624-51d929996aa2">
          <path
             style="stroke:none;stroke-width:0"
             d="M 2.890625,-3.671875 C 2.765625,-3.3125 2.6875,-3.03125 2.625,-2.734375 H 2.609375 c -0.09375,-0.46875 -0.96875,-3.0625 -1,-3.125 C 1.515625,-6.09375 1.265625,-6.09375 1.125,-6.09375 H 0.5625 c -0.140625,0 -0.390625,0 -0.390625,0.296875 0,0.3125 0.203125,0.3125 0.53125,0.3125 v 4.875 c -0.328125,0 -0.53125,0 -0.53125,0.3125 C 0.171875,0 0.421875,0 0.5625,0 H 1.390625 C 1.53125,0 1.78125,0 1.78125,-0.296875 c 0,-0.3125 -0.203125,-0.3125 -0.53125,-0.3125 v -4.75 h 0.015625 c 0.109375,0.453125 0.75,2.375 0.78125,2.5 C 2.140625,-2.625 2.265625,-2.25 2.3125,-2.1875 2.375,-2.109375 2.5,-2.03125 2.609375,-2.03125 c 0.125,0 0.265625,-0.078125 0.34375,-0.21875 0.03125,-0.0625 0.890625,-2.578125 1,-3.109375 H 3.96875 v 4.75 c -0.3125,0 -0.53125,0 -0.53125,0.3125 C 3.4375,0 3.6875,0 3.84375,0 h 0.8125 c 0.15625,0 0.390625,0 0.390625,-0.296875 0,-0.3125 -0.203125,-0.3125 -0.515625,-0.3125 v -4.875 c 0.3125,0 0.515625,0 0.515625,-0.3125 0,-0.296875 -0.234375,-0.296875 -0.390625,-0.296875 h -0.5625 c -0.40625,0 -0.4375,0.140625 -0.53125,0.40625 z m 0,0"
             id="id-cdf5a30b-4069-4c36-b4c2-ac6d2b115986" />
        </symbol>
        <symbol
           overflow="visible"
           id="id-9dd870c4-78c3-44ff-9cbd-9494ae04e9c8">
          <path
             style="stroke:none;stroke-width:0"
             d="M 3.5625,-0.3125 C 3.578125,0 3.78125,0 3.96875,0 H 4.6875 c 0.171875,0 0.421875,0 0.421875,-0.3125 0,-0.296875 -0.265625,-0.296875 -0.40625,-0.296875 H 4.25 v -3.28125 c 0,-0.3125 -0.046875,-0.40625 -0.390625,-0.40625 H 3.125 c -0.15625,0 -0.40625,0 -0.40625,0.3125 0,0.296875 0.265625,0.296875 0.40625,0.296875 h 0.4375 v 2.125 c 0,0.890625 -0.796875,1.015625 -1.125,1.015625 -0.78125,0 -0.78125,-0.328125 -0.78125,-0.65625 v -2.6875 c 0,-0.3125 -0.0625,-0.40625 -0.40625,-0.40625 H 0.53125 c -0.15625,0 -0.40625,0 -0.40625,0.3125 0,0.296875 0.25,0.296875 0.390625,0.296875 H 0.96875 v 2.546875 c 0,0.96875 0.6875,1.203125 1.40625,1.203125 0.421875,0 0.828125,-0.109375 1.1875,-0.375 z m 0,0"
             id="id-6fb0f67b-648c-4617-8a3c-58429192f6d7" />
        </symbol>
        <symbol
           overflow="visible"
           id="id-c9c7743d-ff2f-4456-b52e-f823716a998d">
          <path
             style="stroke:none;stroke-width:0"
             d="M 2.859375,-2.21875 4,-3.6875 h 0.390625 c 0.140625,0 0.421875,0 0.421875,-0.296875 0,-0.3125 -0.265625,-0.3125 -0.421875,-0.3125 h -1.15625 c -0.15625,0 -0.40625,0 -0.40625,0.296875 0,0.3125 0.21875,0.3125 0.484375,0.3125 l -0.734375,1 -0.75,-1 c 0.25,0 0.46875,0 0.46875,-0.3125 0,-0.296875 -0.25,-0.296875 -0.390625,-0.296875 H 0.734375 c -0.140625,0 -0.40625,0 -0.40625,0.3125 0,0.296875 0.265625,0.296875 0.40625,0.296875 h 0.40625 L 2.3125,-2.21875 1.078125,-0.609375 h -0.40625 c -0.140625,0 -0.40625,0 -0.40625,0.3125 C 0.265625,0 0.53125,0 0.671875,0 H 1.84375 C 2,0 2.25,0 2.25,-0.296875 c 0,-0.3125 -0.21875,-0.3125 -0.53125,-0.3125 l 0.859375,-1.21875 0.890625,1.21875 c -0.28125,0 -0.5,0 -0.5,0.3125 C 2.96875,0 3.21875,0 3.375,0 h 1.15625 c 0.140625,0 0.40625,0 0.40625,-0.296875 0,-0.3125 -0.25,-0.3125 -0.40625,-0.3125 H 4.140625 Z m 0,0"
             id="id-b1df5aef-dff8-4ff0-8d18-8aea620f7895" />
        </symbol>
      </g>
    </defs>
  </defs>
  <g
     id="g1616"
     transform="translate(-0.18242418,-0.2951514)">
    <path
       style="fill:none;stroke:#000000;stroke-width:0.595463;stroke-linecap:round;stroke-linejoin:round;stroke-miterlimit:4;stroke-dasharray:none;stroke-opacity:1"
       d="m 17.599894,7.328053 12.202119,-9.15159 v 18.303178 z"
       id="path1003" />
    <path
       style="fill:none;stroke:#000000;stroke-width:0.595463;stroke-linecap:butt;stroke-linejoin:miter;stroke-miterlimit:4;stroke-dasharray:none;stroke-opacity:1"
       d="M 35.903073,1.837099 H 29.802014"
       id="path1271" />
    <path
       style="fill:none;stroke:#000000;stroke-width:0.595463;stroke-linecap:butt;stroke-linejoin:miter;stroke-miterlimit:4;stroke-dasharray:none;stroke-opacity:1"
       d="m 35.903073,12.819005 h -6.10106"
       id="path1273" />
    <path
       style="fill:none;stroke:#000000;stroke-width:0.595463;stroke-linecap:butt;stroke-linejoin:miter;stroke-miterlimit:4;stroke-dasharray:none;stroke-opacity:1"
       d="m 24.921166,12.819005 v 8.541483"
       id="path1388" />
    <path
       style="fill:none;stroke:#000000;stroke-width:0.595463;stroke-linecap:butt;stroke-linejoin:miter;stroke-miterlimit:4;stroke-dasharray:none;stroke-opacity:1"
       d="M 17.713375,7.332933 H 7.95168"
       id="path1538" />
    <g
       id="g1923"
       transform="translate(-1.799228,-19.221037)">
      <path
         style="fill:#000000;fill-opacity:1;stroke:none;stroke-width:0"
         d="m 24.512694,43.841145 c -0.104547,-0.01394 -0.188185,-0.02788 -0.299702,-0.04878 -0.132426,-0.02091 -0.432127,-0.07667 -0.432127,-0.243943 0,-0.118487 0.139395,-0.257883 0.564554,-0.257883 0.369399,0 0.432127,0.132426 0.446067,0.250913 0,0.07667 0.01394,0.153336 0.146366,0.153336 0.160305,0 0.160305,-0.09758 0.160305,-0.188185 v -0.306671 c 0,-0.0697 0,-0.181215 -0.132426,-0.181215 -0.111517,0 -0.125456,0.06273 -0.139396,0.09758 -0.195154,-0.09758 -0.390309,-0.09758 -0.473946,-0.09758 -0.7388,0 -0.843347,0.3694 -0.843347,0.529705 0,0.404248 0.466977,0.480916 0.878195,0.543645 0.216064,0.03485 0.571524,0.09061 0.571524,0.32758 0,0.167276 -0.167275,0.313642 -0.571524,0.313642 -0.209094,0 -0.453037,-0.04879 -0.564553,-0.397279 -0.02788,-0.07667 -0.04182,-0.125457 -0.160306,-0.125457 -0.153336,0 -0.153336,0.09061 -0.153336,0.181215 v 0.432128 c 0,0.0697 0,0.181215 0.132426,0.181215 0.04182,0 0.111517,-0.007 0.167275,-0.167276 0.216065,0.160306 0.453038,0.167276 0.578494,0.167276 0.696981,0 0.843346,-0.3694 0.843346,-0.585464 0,-0.460006 -0.571523,-0.557584 -0.717889,-0.578493 z m 0,0"
         id="id-86c4e5e9-d55a-4968-b4ef-1bca70d9aef9" />
      <path
         style="fill:#000000;fill-opacity:1;stroke:none;stroke-width:0"
         d="m 27.410627,44.126907 c 0.09061,0 0.174245,0 0.174245,-0.160306 0,-0.508796 -0.285762,-0.947893 -0.864256,-0.947893 -0.529705,0 -0.954863,0.446067 -0.954863,0.996682 0,0.536674 0.453037,0.989712 1.024561,0.989712 0.585464,0 0.794558,-0.404249 0.794558,-0.515765 0,-0.118487 -0.125457,-0.118487 -0.153336,-0.118487 -0.08364,0 -0.118486,0.01394 -0.146366,0.09758 -0.09758,0.223034 -0.34152,0.264853 -0.466976,0.264853 -0.334551,0 -0.662132,-0.223034 -0.738799,-0.606373 z m -1.324263,-0.264853 c 0.06273,-0.327581 0.327581,-0.571524 0.634252,-0.571524 0.230004,0 0.508796,0.111517 0.550615,0.571524 z m 0,0"
         id="id-a270df5d-1294-44e6-95bd-c550721bffcf" />
      <path
         style="fill:#000000;fill-opacity:1;stroke:none;stroke-width:0"
         d="m 29.172037,42.440214 c 0,-0.132426 -0.02091,-0.181215 -0.174246,-0.181215 h -0.70395 c -0.0697,0 -0.181215,0 -0.181215,0.139396 0,0.132427 0.118487,0.132427 0.181215,0.132427 h 0.571524 V 44.7054 h -0.571524 c -0.0697,0 -0.181215,0 -0.181215,0.139396 0,0.132427 0.118487,0.132427 0.181215,0.132427 h 1.456689 c 0.0697,0 0.181215,0 0.181215,-0.132427 0,-0.139396 -0.104547,-0.139396 -0.181215,-0.139396 h -0.578493 z m 0,0"
         id="id-29fa28c8-c4be-4ae9-a2cf-5563fd419bb3" />
    </g>
    <g
       id="g2062"
       transform="matrix(-1,0,0,1,13.729764,-3.3925838)">
      <circle
         cx="5.8221483"
         cy="10.718307"
         r="1.1902974"
         stroke="none"
         fill="#ffffff"
         id="circle2058"
         style="stroke-width:0.297574" />
      <circle
         cx="5.8221483"
         cy="10.718307"
         r="1.1902974"
         fill="none"
         stroke="#000000"
         stroke-width="0.595149"
         id="circle2060" />
    </g>
    <path
       style="fill:#000000;fill-opacity:1;stroke:none;stroke-width:0"
       d="m 38.124312,2.772933 c 0.110561,0.150049 0.347484,0.157947 0.537021,0.157947 0.142151,0 0.252715,0 0.252715,-0.157947 0,-0.150052 -0.126356,-0.150052 -0.197435,-0.150052 -0.213227,0 -0.260612,-0.02369 -0.300098,-0.03948 V 1.493562 c 0,-0.355381 -0.27641,-0.781841 -1.002968,-0.781841 -0.21323,0 -0.726558,0 -0.726558,0.371176 0,0.150052 0.102667,0.229025 0.221125,0.229025 0.07898,0 0.221128,-0.04739 0.221128,-0.229025 0,-0.03948 0.0079,-0.04738 0.110563,-0.05528 0.07108,-0.0079 0.134254,-0.0079 0.18164,-0.0079 0.379074,0 0.639686,0.157947 0.639686,0.513331 -0.884504,0.0158 -1.508398,0.268514 -1.508398,0.750254 0,0.347484 0.315896,0.679175 0.829224,0.679175 0.189537,0 0.505433,-0.03949 0.742355,-0.189537 z m -0.06318,-0.939787 v 0.426457 c 0,0.110563 0,0.221127 -0.189537,0.307998 -0.181639,0.08687 -0.410661,0.08687 -0.450149,0.08687 -0.315896,0 -0.521229,-0.173742 -0.521229,-0.371176 0,-0.244821 0.434358,-0.434358 1.160915,-0.450149 z m 0,0"
       id="path2070" />
    <g
       transform="matrix(0.50543212,0,0,0.50543212,36.473759,14.343199)"
       id="g2074"
       style="fill:#000000;fill-opacity:1">
      <path
         style="stroke:none;stroke-width:0"
         d="m 1.65625,-3.875 v -1.8125 c 0,-0.296875 -0.0625,-0.40625 -0.40625,-0.40625 H 0.53125 c -0.15625,0 -0.40625,0 -0.40625,0.3125 0,0.296875 0.25,0.296875 0.390625,0.296875 H 0.96875 V -0.40625 C 0.96875,-0.203125 0.96875,0 1.3125,0 1.65625,0 1.65625,-0.203125 1.65625,-0.453125 2.0625,-0.03125 2.5,0.0625 2.8125,0.0625 c 1.078125,0 2.046875,-0.953125 2.046875,-2.21875 0,-1.21875 -0.875,-2.203125 -1.9375,-2.203125 C 2.4375,-4.359375 2,-4.171875 1.65625,-3.875 Z m 0,1.96875 V -2.625 c 0,-0.59375 0.578125,-1.125 1.203125,-1.125 0.734375,0 1.3125,0.734375 1.3125,1.59375 0,0.953125 -0.6875,1.609375 -1.390625,1.609375 -0.78125,0 -1.125,-0.875 -1.125,-1.359375 z m 0,0"
         id="path2072" />
    </g>
    <g
       id="g1511"
       transform="matrix(0.76275107,0,0,0.76275107,26.640297,9.2178168)">
      <path
         style="fill:#000000;fill-opacity:1;stroke:none;stroke-width:0"
         d="m -33.404097,-3.7360695 c 0,-0.1746028 -0.03492,-0.2269837 -0.218253,-0.2269837 h -0.794443 c -0.0873,0 -0.226984,0 -0.226984,0.1658727 0,0.1746029 0.139682,0.1746029 0.226984,0.1746029 h 0.62857 v 1.7198383 h -0.672221 c -0.0873,0 -0.226984,0 -0.226984,0.1746029 0,0.1658727 0.139682,0.1658727 0.226984,0.1658727 h 1.641267 c 0.0873,0 0.226984,0 0.226984,-0.1658727 0,-0.1746029 -0.139683,-0.1746029 -0.226984,-0.1746029 h -0.58492 z m 0,-0.9603158 c 0,-0.1484124 -0.122222,-0.2706344 -0.279364,-0.2706344 -0.157143,0 -0.279365,0.122222 -0.279365,0.2706344 0,0.1571426 0.122222,0.2793646 0.279365,0.2793646 0.157142,0 0.279364,-0.122222 0.279364,-0.2793646 z m 0,0"
         id="id-4ac78c12-e792-4309-a262-b972d528fca6" />
      <path
         style="fill:#000000;fill-opacity:1;stroke:none;stroke-width:0"
         d="m -31.276386,-3.7011489 c 0,-0.1746029 0,-0.2619043 -0.226984,-0.2619043 h -0.401586 c -0.0873,0 -0.226984,0 -0.226984,0.1746029 0,0.1658727 0.139682,0.1658727 0.218254,0.1658727 h 0.253174 v 1.7198383 h -0.244444 c -0.0873,0 -0.226984,0 -0.226984,0.1746029 0,0.1658727 0.139682,0.1658727 0.218254,0.1658727 h 0.890474 c 0.07857,0 0.218254,0 0.218254,-0.1658727 0,-0.1746029 -0.139682,-0.1746029 -0.226984,-0.1746029 h -0.244444 v -0.9865062 c 0,-0.5587292 0.410317,-0.7682527 0.698412,-0.7682527 0.288094,0 0.366666,0.1571426 0.366666,0.4888881 v 1.2658708 h -0.209524 c -0.09603,0 -0.235714,0 -0.235714,0.1746029 0,0.1658727 0.157143,0.1658727 0.235714,0.1658727 h 0.846824 c 0.07857,0 0.226984,0 0.226984,-0.1658727 0,-0.1746029 -0.139682,-0.1746029 -0.235714,-0.1746029 h -0.244444 v -1.2920613 c 0,-0.5587291 -0.279365,-0.8031732 -0.724602,-0.8031732 -0.366666,0 -0.61984,0.1920632 -0.724602,0.2968249 z m 0,0"
         id="id-8a6c9f49-d959-431f-9248-ae62bd033d80" />
    </g>
    <g
       id="g1507"
       transform="matrix(0.8755817,0,0,0.8755817,41.686866,-2.0308935)">
      <path
         style="fill:#000000;fill-opacity:1;stroke:none;stroke-width:0"
         d="m -26.02517,-4.9670197 c -0.0873,0 -0.226983,0 -0.226983,0.1746029 0,0.1658727 0.148412,0.1658727 0.226983,0.1658727 h 0.122222 v 2.7238048 h -0.122222 c -0.0873,0 -0.226983,0 -0.226983,0.1746029 0,0.1658727 0.148412,0.1658727 0.226983,0.1658727 h 1.152379 c 0.724602,0 1.21349,-0.7769828 1.21349,-1.6761876 0,-0.8904746 -0.471427,-1.7285684 -1.21349,-1.7285684 z m 0.506349,3.0642804 v -2.7238048 h 0.541269 c 0.62857,0 0.934125,0.7420622 0.934125,1.3880928 0,0.6547608 -0.323015,1.335712 -0.934125,1.335712 z m 0,0"
         id="id-e10eddc1-9ee1-4e3e-91e9-350b6da6ccbf" />
      <path
         style="fill:#000000;fill-opacity:1;stroke:none;stroke-width:0"
         d="m -21.819684,-3.6138474 c -0.06984,0.2007933 -0.113492,0.3579358 -0.148413,0.5238086 h -0.0087 c -0.05238,-0.2619043 -0.541269,-1.7111082 -0.558729,-1.7460287 -0.05238,-0.1309522 -0.192063,-0.1309522 -0.270635,-0.1309522 h -0.314285 c -0.07857,0 -0.218253,0 -0.218253,0.1658727 0,0.1746029 0.113491,0.1746029 0.296824,0.1746029 v 2.7238048 c -0.183333,0 -0.296824,0 -0.296824,0.1746029 0,0.1658727 0.139682,0.1658727 0.218253,0.1658727 h 0.462698 c 0.07857,0 0.218253,0 0.218253,-0.1658727 0,-0.1746029 -0.113491,-0.1746029 -0.296825,-0.1746029 V -4.556703 h 0.0087 c 0.06111,0.2531742 0.419047,1.3269819 0.436507,1.396823 0.05238,0.1309522 0.122222,0.3404756 0.148412,0.3753962 0.03492,0.043651 0.104762,0.087301 0.165873,0.087301 0.06984,0 0.148412,-0.043651 0.192063,-0.122222 0.01746,-0.034921 0.497618,-1.4404737 0.558729,-1.7372986 h 0.0087 v 2.6539637 c -0.174602,0 -0.296824,0 -0.296824,0.1746029 0,0.1658727 0.139682,0.1658727 0.226983,0.1658727 h 0.453968 c 0.0873,0 0.218253,0 0.218253,-0.1658727 0,-0.1746029 -0.113491,-0.1746029 -0.288094,-0.1746029 v -2.7238048 c 0.174603,0 0.288094,0 0.288094,-0.1746029 0,-0.1658727 -0.130952,-0.1658727 -0.218253,-0.1658727 h -0.314285 c -0.226984,0 -0.244444,0.078571 -0.296825,0.2269837 z m 0,0"
         id="id-4f674fc2-0c6e-48a9-82d4-eff355e6204c" />
      <path
         style="fill:#000000;fill-opacity:1;stroke:none;stroke-width:0"
         d="m -18.521576,-1.7368666 c 0.0087,0.1746029 0.122222,0.1746029 0.226983,0.1746029 h 0.401587 c 0.09603,0 0.235714,0 0.235714,-0.1746029 0,-0.1658727 -0.148412,-0.1658727 -0.226984,-0.1658727 h -0.253174 v -1.8333302 c 0,-0.1746028 -0.02619,-0.2269837 -0.218254,-0.2269837 h -0.410316 c -0.0873,0 -0.226984,0 -0.226984,0.1746029 0,0.1658727 0.148412,0.1658727 0.226984,0.1658727 h 0.244444 v 1.1872995 c 0,0.4976182 -0.445238,0.5674594 -0.628571,0.5674594 -0.436507,0 -0.436507,-0.183333 -0.436507,-0.3666661 v -1.5015847 c 0,-0.1746028 -0.03492,-0.2269837 -0.226984,-0.2269837 h -0.401586 c -0.0873,0 -0.226984,0 -0.226984,0.1746029 0,0.1658727 0.139682,0.1658727 0.218254,0.1658727 h 0.253174 v 1.4230134 c 0,0.5412689 0.384126,0.6722211 0.785713,0.6722211 0.235714,0 0.462697,-0.061111 0.663491,-0.2095235 z m 0,0"
         id="id-8b075433-6cd8-4091-8b5f-2e80afefea82" />
      <path
         style="fill:#000000;fill-opacity:1;stroke:none;stroke-width:0"
         d="m -15.992279,-2.8019441 0.637301,-0.8206335 h 0.218253 c 0.07857,0 0.235714,0 0.235714,-0.1658727 0,-0.1746029 -0.148412,-0.1746029 -0.235714,-0.1746029 h -0.64603 c -0.0873,0 -0.226984,0 -0.226984,0.1658727 0,0.1746029 0.122222,0.1746029 0.270634,0.1746029 l -0.410316,0.5587292 -0.419047,-0.5587292 c 0.139682,0 0.261904,0 0.261904,-0.1746029 0,-0.1658727 -0.139682,-0.1658727 -0.218253,-0.1658727 h -0.654761 c -0.07857,0 -0.226984,0 -0.226984,0.1746029 0,0.1658727 0.148412,0.1658727 0.226984,0.1658727 h 0.226983 l 0.654761,0.8206335 -0.689681,0.8992048 h -0.226984 c -0.07857,0 -0.226984,0 -0.226984,0.1746029 0,0.1658727 0.148413,0.1658727 0.226984,0.1658727 h 0.654761 c 0.0873,0 0.226984,0 0.226984,-0.1658727 0,-0.1746029 -0.122222,-0.1746029 -0.296825,-0.1746029 l 0.480158,-0.6809512 0.497618,0.6809512 c -0.157143,0 -0.279365,0 -0.279365,0.1746029 0,0.1658727 0.139683,0.1658727 0.226984,0.1658727 h 0.646031 c 0.07857,0 0.226983,0 0.226983,-0.1658727 0,-0.1746029 -0.139682,-0.1746029 -0.226983,-0.1746029 h -0.218254 z m 0,0"
         id="id-f3f2fd1a-c7d2-49f0-a269-d3d8fa6eb077" />
    </g>
  </g>
</svg>
