<?xml version="1.0" encoding="UTF-8" standalone="no"?>
<!-- Created with Inkscape (http://www.inkscape.org/) -->

<svg
   width="37.616131mm"
   height="11.598933mm"
   viewBox="0 0 37.616131 11.598933"
   version="1.1"
   id="svg5"
   sodipodi:docname="dynamic_connectivity.svg"
   inkscape:version="1.1 (c4e8f9e, 2021-05-24)"
   xmlns:inkscape="http://www.inkscape.org/namespaces/inkscape"
   xmlns:sodipodi="http://sodipodi.sourceforge.net/DTD/sodipodi-0.dtd"
   xmlns="http://www.w3.org/2000/svg"
   xmlns:svg="http://www.w3.org/2000/svg"
   xmlns:ns1="http://www.iki.fi/pav/software/textext/">
  <sodipodi:namedview
     id="namedview7"
     pagecolor="#ffffff"
     bordercolor="#666666"
     borderopacity="1.0"
     inkscape:pageshadow="2"
     inkscape:pageopacity="0.0"
     inkscape:pagecheckerboard="0"
     inkscape:document-units="mm"
     showgrid="false"
     inkscape:zoom="1.5748204"
     inkscape:cx="169.86063"
     inkscape:cy="43.497022"
     inkscape:window-width="1312"
     inkscape:window-height="847"
     inkscape:window-x="2625"
     inkscape:window-y="78"
     inkscape:window-maximized="0"
     inkscape:current-layer="layer1"
     inkscape:snap-smooth-nodes="true"
     inkscape:snap-others="false"
     inkscape:object-paths="true">
    <inkscape:grid
       type="xygrid"
       id="grid824"
       originx="-54.16673"
       originy="-126.34956" />
  </sodipodi:namedview>
  <defs
     id="defs2" />
  <g
     inkscape:label="Layer 1"
     inkscape:groupmode="layer"
     id="layer1"
     transform="translate(-54.16673,-126.34956)">
    <g
       id="g3449"
       transform="translate(-22.359693,-4.6259639)">
      <g
         id="g3311">
        <g
           id="g2798">
          <g
             transform="matrix(0.352778,0,0,0.352778,77.904593,131.88214)"
             ns1:version="1.3.1"
             ns1:texconverter="pdflatex"
             ns1:pdfconverter="inkscape"
             ns1:text="$0$\n"
             ns1:preamble="/Users/ketiboldiais/Library/Application Support/org.inkscape.Inkscape/config/inkscape/extensions/circuitSymbols/circuitSymbolsPreamble.tex"
             ns1:scale="1.0"
             ns1:alignment="middle center"
             ns1:jacobian_sqrt="0.352778"
             id="g845">
            <defs
               id="id-22cf4d1a-90c7-44a0-a08c-771e224663fc">
              <g
                 id="id-40e747d2-ace8-4ec3-8fae-49b7e37e7cef">
                <symbol
                   overflow="visible"
                   id="id-07f1f389-b4b0-40d8-90d3-81904cc4e531">
                  <path
                     style="stroke:none;stroke-width:0"
                     d=""
                     id="id-2bb90a55-651a-4ec3-925a-f6427c91d3d5" />
                </symbol>
                <symbol
                   overflow="visible"
                   id="id-116188cd-45b2-414d-bb0c-0a6c2c3dbf06">
                  <path
                     style="stroke:none;stroke-width:0"
                     d="m 4.578125,-3.1875 c 0,-0.796875 -0.046875,-1.59375 -0.390625,-2.328125 -0.453125,-0.96875 -1.28125,-1.125 -1.6875,-1.125 -0.609375,0 -1.328125,0.265625 -1.75,1.1875 -0.3125,0.6875 -0.359375,1.46875 -0.359375,2.265625 0,0.75 0.03125,1.640625 0.453125,2.40625 0.421875,0.796875 1.15625,1 1.640625,1 0.53125,0 1.296875,-0.203125 1.734375,-1.15625 0.3125,-0.6875 0.359375,-1.46875 0.359375,-2.25 z M 2.484375,0 C 2.09375,0 1.5,-0.25 1.328125,-1.203125 1.21875,-1.796875 1.21875,-2.71875 1.21875,-3.3125 c 0,-0.640625 0,-1.296875 0.078125,-1.828125 0.1875,-1.1875 0.9375,-1.28125 1.1875,-1.28125 0.328125,0 0.984375,0.1875 1.171875,1.171875 0.109375,0.5625 0.109375,1.3125 0.109375,1.9375 0,0.75 0,1.421875 -0.109375,2.0625 C 3.5,-0.296875 2.9375,0 2.484375,0 Z m 0,0"
                     id="id-c63535a3-a2b9-4d7b-a391-849842c76782" />
                </symbol>
              </g>
            </defs>
            <g
               id="id-e2df6356-c685-4d98-8d71-a467fa4a08e0"
               transform="translate(-149.103,-128.124)">
              <g
                 style="fill:#000000;fill-opacity:1"
                 id="id-1bc4b879-5546-4677-853a-6ac6485ccbfd">
                <g
                   transform="translate(148.712,134.765)"
                   id="g841">
                  <path
                     style="stroke:none;stroke-width:0"
                     d="m 4.578125,-3.1875 c 0,-0.796875 -0.046875,-1.59375 -0.390625,-2.328125 -0.453125,-0.96875 -1.28125,-1.125 -1.6875,-1.125 -0.609375,0 -1.328125,0.265625 -1.75,1.1875 -0.3125,0.6875 -0.359375,1.46875 -0.359375,2.265625 0,0.75 0.03125,1.640625 0.453125,2.40625 0.421875,0.796875 1.15625,1 1.640625,1 0.53125,0 1.296875,-0.203125 1.734375,-1.15625 0.3125,-0.6875 0.359375,-1.46875 0.359375,-2.25 z M 2.484375,0 C 2.09375,0 1.5,-0.25 1.328125,-1.203125 1.21875,-1.796875 1.21875,-2.71875 1.21875,-3.3125 c 0,-0.640625 0,-1.296875 0.078125,-1.828125 0.1875,-1.1875 0.9375,-1.28125 1.1875,-1.28125 0.328125,0 0.984375,0.1875 1.171875,1.171875 0.109375,0.5625 0.109375,1.3125 0.109375,1.9375 0,0.75 0,1.421875 -0.109375,2.0625 C 3.5,-0.296875 2.9375,0 2.484375,0 Z m 0,0"
                     id="id-3414852a-1e11-485f-8dd6-7a564e4d2bb3" />
                </g>
              </g>
            </g>
          </g>
          <circle
             style="font-variation-settings:normal;opacity:1;vector-effect:none;fill:none;fill-opacity:1;fill-rule:evenodd;stroke:#000000;stroke-width:0.264583;stroke-linecap:butt;stroke-linejoin:miter;stroke-miterlimit:4;stroke-dasharray:none;stroke-dashoffset:0;stroke-opacity:1;stop-color:#000000;stop-opacity:1"
             id="path2616"
             cx="78.643089"
             cy="133.09219"
             r="1.984375" />
        </g>
        <g
           id="g2728"
           transform="translate(0.23760223,0.47520447)">
          <g
             transform="matrix(0.352778,0,0,0.352778,77.705443,138.77254)"
             ns1:version="1.3.1"
             ns1:texconverter="pdflatex"
             ns1:pdfconverter="inkscape"
             ns1:text="$5$\n"
             ns1:preamble="/Users/ketiboldiais/Library/Application Support/org.inkscape.Inkscape/config/inkscape/extensions/circuitSymbols/circuitSymbolsPreamble.tex"
             ns1:scale="1.0"
             ns1:alignment="middle center"
             ns1:jacobian_sqrt="0.352778"
             id="g1519">
            <defs
               id="id-a9ea2bf4-0839-4753-8291-ec542910cc00">
              <g
                 id="id-c92857ff-0ce7-404d-9ec1-d5b182ecfb19">
                <symbol
                   overflow="visible"
                   id="id-261489cc-6273-4ab2-be9f-7c2d04792fe3">
                  <path
                     style="stroke:none;stroke-width:0"
                     d=""
                     id="id-840701f9-f1f4-4073-a9dd-00c9065fdc2c" />
                </symbol>
                <symbol
                   overflow="visible"
                   id="id-290dc6b0-e539-4406-9d6c-b39ba6b974bf">
                  <path
                     style="stroke:none;stroke-width:0"
                     d="m 4.46875,-2 c 0,-1.1875 -0.8125,-2.1875 -1.890625,-2.1875 -0.46875,0 -0.90625,0.15625 -1.265625,0.515625 V -5.625 c 0.203125,0.0625 0.53125,0.125 0.84375,0.125 1.234375,0 1.9375,-0.90625 1.9375,-1.03125 0,-0.0625 -0.03125,-0.109375 -0.109375,-0.109375 0,0 -0.03125,0 -0.078125,0.03125 C 3.703125,-6.515625 3.21875,-6.3125 2.546875,-6.3125 2.15625,-6.3125 1.6875,-6.390625 1.21875,-6.59375 1.140625,-6.625 1.125,-6.625 1.109375,-6.625 1,-6.625 1,-6.546875 1,-6.390625 V -3.4375 c 0,0.171875 0,0.25 0.140625,0.25 0.078125,0 0.09375,-0.015625 0.140625,-0.078125 C 1.390625,-3.421875 1.75,-3.96875 2.5625,-3.96875 c 0.515625,0 0.765625,0.453125 0.84375,0.640625 0.15625,0.375 0.1875,0.75 0.1875,1.25 0,0.359375 0,0.953125 -0.25,1.375 C 3.109375,-0.3125 2.734375,-0.0625 2.28125,-0.0625 c -0.71875,0 -1.296875,-0.53125 -1.46875,-1.109375 0.03125,0 0.0625,0.015625 0.171875,0.015625 0.328125,0 0.5,-0.25 0.5,-0.484375 0,-0.25 -0.171875,-0.5 -0.5,-0.5 C 0.84375,-2.140625 0.5,-2.0625 0.5,-1.609375 0.5,-0.75 1.1875,0.21875 2.296875,0.21875 3.453125,0.21875 4.46875,-0.734375 4.46875,-2 Z m 0,0"
                     id="id-46d8dfe5-c2be-433e-a7af-b866aee486d7" />
                </symbol>
              </g>
            </defs>
            <g
               id="id-a239966b-897c-4f76-afbe-4fd866d8aced"
               transform="translate(-149.212,-128.124)">
              <g
                 style="fill:#000000;fill-opacity:1"
                 id="id-83e3b279-296b-4002-b2c6-25b3575f9e6a">
                <g
                   transform="translate(148.712,134.765)"
                   id="g1515">
                  <path
                     style="stroke:none;stroke-width:0"
                     d="m 4.46875,-2 c 0,-1.1875 -0.8125,-2.1875 -1.890625,-2.1875 -0.46875,0 -0.90625,0.15625 -1.265625,0.515625 V -5.625 c 0.203125,0.0625 0.53125,0.125 0.84375,0.125 1.234375,0 1.9375,-0.90625 1.9375,-1.03125 0,-0.0625 -0.03125,-0.109375 -0.109375,-0.109375 0,0 -0.03125,0 -0.078125,0.03125 C 3.703125,-6.515625 3.21875,-6.3125 2.546875,-6.3125 2.15625,-6.3125 1.6875,-6.390625 1.21875,-6.59375 1.140625,-6.625 1.125,-6.625 1.109375,-6.625 1,-6.625 1,-6.546875 1,-6.390625 V -3.4375 c 0,0.171875 0,0.25 0.140625,0.25 0.078125,0 0.09375,-0.015625 0.140625,-0.078125 C 1.390625,-3.421875 1.75,-3.96875 2.5625,-3.96875 c 0.515625,0 0.765625,0.453125 0.84375,0.640625 0.15625,0.375 0.1875,0.75 0.1875,1.25 0,0.359375 0,0.953125 -0.25,1.375 C 3.109375,-0.3125 2.734375,-0.0625 2.28125,-0.0625 c -0.71875,0 -1.296875,-0.53125 -1.46875,-1.109375 0.03125,0 0.0625,0.015625 0.171875,0.015625 0.328125,0 0.5,-0.25 0.5,-0.484375 0,-0.25 -0.171875,-0.5 -0.5,-0.5 C 0.84375,-2.140625 0.5,-2.0625 0.5,-1.609375 0.5,-0.75 1.1875,0.21875 2.296875,0.21875 3.453125,0.21875 4.46875,-0.734375 4.46875,-2 Z m 0,0"
                     id="id-e0af6403-a6ec-427e-be0d-7cb6c4c8d233" />
                </g>
              </g>
            </g>
          </g>
          <circle
             style="font-variation-settings:normal;opacity:1;vector-effect:none;fill:none;fill-opacity:1;fill-rule:evenodd;stroke:#000000;stroke-width:0.264583;stroke-linecap:butt;stroke-linejoin:miter;stroke-miterlimit:4;stroke-dasharray:none;stroke-dashoffset:0;stroke-opacity:1;stop-color:#000000;stop-opacity:1"
             id="circle2698"
             cx="78.405487"
             cy="139.98259"
             r="1.984375" />
        </g>
        <g
           id="g2812"
           transform="translate(-0.20789242,0.11880493)">
          <g
             transform="matrix(0.352778,0,0,0.352778,86.618042,131.80192)"
             ns1:version="1.3.1"
             ns1:texconverter="pdflatex"
             ns1:pdfconverter="inkscape"
             ns1:text="$1$\n"
             ns1:preamble="/Users/ketiboldiais/Library/Application Support/org.inkscape.Inkscape/config/inkscape/extensions/circuitSymbols/circuitSymbolsPreamble.tex"
             ns1:scale="1.0"
             ns1:alignment="middle center"
             ns1:jacobian_sqrt="0.352778"
             id="g920">
            <defs
               id="id-dfbde557-51ce-462b-937f-33f59f274e24">
              <g
                 id="id-82f45d0e-9029-4cd3-803e-27c9873854bd">
                <symbol
                   overflow="visible"
                   id="id-c8b9add3-6546-41f0-93b8-609f03b85445">
                  <path
                     style="stroke:none;stroke-width:0"
                     d=""
                     id="id-5d331dd7-d8e1-4161-802d-423fd1bb270a" />
                </symbol>
                <symbol
                   overflow="visible"
                   id="id-c5e18bdc-7896-4902-8385-53826323ea5f">
                  <path
                     style="stroke:none;stroke-width:0"
                     d="m 2.9375,-6.375 c 0,-0.25 0,-0.265625 -0.234375,-0.265625 C 2.078125,-6 1.203125,-6 0.890625,-6 v 0.3125 c 0.203125,0 0.78125,0 1.296875,-0.265625 v 5.171875 c 0,0.359375 -0.03125,0.46875 -0.921875,0.46875 h -0.3125 V 0 c 0.34375,-0.03125 1.203125,-0.03125 1.609375,-0.03125 0.390625,0 1.265625,0 1.609375,0.03125 v -0.3125 h -0.3125 c -0.90625,0 -0.921875,-0.109375 -0.921875,-0.46875 z m 0,0"
                     id="id-5a337f3c-6e87-4455-8098-8509d3f0c027" />
                </symbol>
              </g>
            </defs>
            <g
               id="id-196be110-41d1-40b4-943a-6a8aa8ac8027"
               transform="translate(-149.603,-128.124)">
              <g
                 style="fill:#000000;fill-opacity:1"
                 id="id-5fe3b3ba-c3f8-4c02-af15-2bb90b5a4989">
                <g
                   transform="translate(148.712,134.765)"
                   id="g916">
                  <path
                     style="stroke:none;stroke-width:0"
                     d="m 2.9375,-6.375 c 0,-0.25 0,-0.265625 -0.234375,-0.265625 C 2.078125,-6 1.203125,-6 0.890625,-6 v 0.3125 c 0.203125,0 0.78125,0 1.296875,-0.265625 v 5.171875 c 0,0.359375 -0.03125,0.46875 -0.921875,0.46875 h -0.3125 V 0 c 0.34375,-0.03125 1.203125,-0.03125 1.609375,-0.03125 0.390625,0 1.265625,0 1.609375,0.03125 v -0.3125 h -0.3125 c -0.90625,0 -0.921875,-0.109375 -0.921875,-0.46875 z m 0,0"
                     id="id-832d0f11-d45d-449c-8163-914bd18f73bd" />
                </g>
              </g>
            </g>
          </g>
          <circle
             style="font-variation-settings:normal;opacity:1;vector-effect:none;fill:none;fill-opacity:1;fill-rule:evenodd;stroke:#000000;stroke-width:0.264583;stroke-linecap:butt;stroke-linejoin:miter;stroke-miterlimit:4;stroke-dasharray:none;stroke-dashoffset:0;stroke-opacity:1;stop-color:#000000;stop-opacity:1"
             id="circle2700"
             cx="87.196686"
             cy="132.97339"
             r="1.984375" />
        </g>
        <g
           id="g2742"
           transform="translate(0.26730442,0.35639954)">
          <g
             transform="matrix(0.352778,0,0,0.352778,85.991172,138.89134)"
             ns1:version="1.3.1"
             ns1:texconverter="pdflatex"
             ns1:pdfconverter="inkscape"
             ns1:text="$6$\n"
             ns1:preamble="/Users/ketiboldiais/Library/Application Support/org.inkscape.Inkscape/config/inkscape/extensions/circuitSymbols/circuitSymbolsPreamble.tex"
             ns1:scale="1.0"
             ns1:alignment="middle center"
             ns1:jacobian_sqrt="0.352778"
             id="g1664">
            <defs
               id="id-8f2143ac-273b-46f8-bd09-49afd7559ee6">
              <g
                 id="id-b1b32ab3-7465-4618-826c-a3e4b7d42103">
                <symbol
                   overflow="visible"
                   id="id-f1c299c2-c847-4ba4-a2f7-cb06b1217aa6">
                  <path
                     style="stroke:none;stroke-width:0"
                     d=""
                     id="id-577d38f5-549e-4c6e-b4d2-1bb0d0e46dbb" />
                </symbol>
                <symbol
                   overflow="visible"
                   id="id-b9454b82-85ac-42bb-9656-0c69a833624a">
                  <path
                     style="stroke:none;stroke-width:0"
                     d="m 1.3125,-3.265625 v -0.25 c 0,-2.515625 1.234375,-2.875 1.75,-2.875 0.234375,0 0.65625,0.0625 0.875,0.40625 -0.15625,0 -0.546875,0 -0.546875,0.4375 0,0.3125 0.234375,0.46875 0.453125,0.46875 0.15625,0 0.46875,-0.09375 0.46875,-0.484375 0,-0.59375 -0.4375,-1.078125 -1.265625,-1.078125 -1.28125,0 -2.625,1.28125 -2.625,3.484375 0,2.671875 1.15625,3.375 2.078125,3.375 1.109375,0 2.0625,-0.9375 2.0625,-2.25 0,-1.265625 -0.890625,-2.21875 -2,-2.21875 -0.671875,0 -1.046875,0.5 -1.25,0.984375 z M 2.5,-0.0625 c -0.625,0 -0.921875,-0.59375 -0.984375,-0.75 -0.1875,-0.46875 -0.1875,-1.265625 -0.1875,-1.4375 0,-0.78125 0.328125,-1.78125 1.21875,-1.78125 0.171875,0 0.625,0 0.9375,0.625 0.171875,0.359375 0.171875,0.875 0.171875,1.359375 0,0.484375 0,0.984375 -0.171875,1.34375 C 3.1875,-0.109375 2.734375,-0.0625 2.5,-0.0625 Z m 0,0"
                     id="id-a2890a96-4e1e-4b57-aee3-52fdb9eee679" />
                </symbol>
              </g>
            </defs>
            <g
               id="id-8d86fb91-5036-41e0-9881-3b9a17ad0fd1"
               transform="translate(-149.134,-128.124)">
              <g
                 style="fill:#000000;fill-opacity:1"
                 id="id-0ef136f6-cfce-4270-b49e-77d5897a52e9">
                <g
                   transform="translate(148.712,134.765)"
                   id="g1660">
                  <path
                     style="stroke:none;stroke-width:0"
                     d="m 1.3125,-3.265625 v -0.25 c 0,-2.515625 1.234375,-2.875 1.75,-2.875 0.234375,0 0.65625,0.0625 0.875,0.40625 -0.15625,0 -0.546875,0 -0.546875,0.4375 0,0.3125 0.234375,0.46875 0.453125,0.46875 0.15625,0 0.46875,-0.09375 0.46875,-0.484375 0,-0.59375 -0.4375,-1.078125 -1.265625,-1.078125 -1.28125,0 -2.625,1.28125 -2.625,3.484375 0,2.671875 1.15625,3.375 2.078125,3.375 1.109375,0 2.0625,-0.9375 2.0625,-2.25 0,-1.265625 -0.890625,-2.21875 -2,-2.21875 -0.671875,0 -1.046875,0.5 -1.25,0.984375 z M 2.5,-0.0625 c -0.625,0 -0.921875,-0.59375 -0.984375,-0.75 -0.1875,-0.46875 -0.1875,-1.265625 -0.1875,-1.4375 0,-0.78125 0.328125,-1.78125 1.21875,-1.78125 0.171875,0 0.625,0 0.9375,0.625 0.171875,0.359375 0.171875,0.875 0.171875,1.359375 0,0.484375 0,0.984375 -0.171875,1.34375 C 3.1875,-0.109375 2.734375,-0.0625 2.5,-0.0625 Z m 0,0"
                     id="id-aa0bbb0b-6c27-420f-b107-a242c6589bfa" />
                </g>
              </g>
            </g>
          </g>
          <circle
             style="font-variation-settings:normal;opacity:1;vector-effect:none;fill:none;fill-opacity:1;fill-rule:evenodd;stroke:#000000;stroke-width:0.264583;stroke-linecap:butt;stroke-linejoin:miter;stroke-miterlimit:4;stroke-dasharray:none;stroke-dashoffset:0;stroke-opacity:1;stop-color:#000000;stop-opacity:1"
             id="circle2702"
             cx="86.721489"
             cy="140.10139"
             r="1.984375" />
        </g>
        <g
           id="g2826"
           transform="translate(-0.29700222,-0.11880493)">
          <g
             transform="matrix(0.352778,0,0,0.352778,94.931449,132.03953)"
             ns1:version="1.3.1"
             ns1:texconverter="pdflatex"
             ns1:pdfconverter="inkscape"
             ns1:text="$2$\n"
             ns1:preamble="/Users/ketiboldiais/Library/Application Support/org.inkscape.Inkscape/config/inkscape/extensions/circuitSymbols/circuitSymbolsPreamble.tex"
             ns1:scale="1.0"
             ns1:alignment="middle center"
             ns1:jacobian_sqrt="0.352778"
             id="g1017">
            <defs
               id="id-00e4423d-c26e-4e8a-8fab-2ad85dd69745">
              <g
                 id="id-22005ede-f9e8-46f0-977f-3cb4a818d777">
                <symbol
                   overflow="visible"
                   id="id-d2f3d700-6e74-4be9-a0b6-b2b2008860b0">
                  <path
                     style="stroke:none;stroke-width:0"
                     d=""
                     id="id-1d24f034-88cb-49ba-8ad5-0a5db1f394c5" />
                </symbol>
                <symbol
                   overflow="visible"
                   id="id-c98e5929-d27c-487a-a163-3f08bd8a59b9">
                  <path
                     style="stroke:none;stroke-width:0"
                     d="m 1.265625,-0.765625 1.0625,-1.03125 c 1.546875,-1.375 2.140625,-1.90625 2.140625,-2.90625 0,-1.140625 -0.890625,-1.9375 -2.109375,-1.9375 -1.125,0 -1.859375,0.921875 -1.859375,1.8125 0,0.546875 0.5,0.546875 0.53125,0.546875 0.171875,0 0.515625,-0.109375 0.515625,-0.53125 0,-0.25 -0.1875,-0.515625 -0.53125,-0.515625 -0.078125,0 -0.09375,0 -0.125,0.015625 0.21875,-0.65625 0.765625,-1.015625 1.34375,-1.015625 0.90625,0 1.328125,0.8125 1.328125,1.625 C 3.5625,-3.90625 3.078125,-3.125 2.515625,-2.5 l -1.90625,2.125 C 0.5,-0.265625 0.5,-0.234375 0.5,0 H 4.203125 L 4.46875,-1.734375 H 4.234375 C 4.171875,-1.4375 4.109375,-1 4,-0.84375 3.9375,-0.765625 3.28125,-0.765625 3.0625,-0.765625 Z m 0,0"
                     id="id-0689b476-83f9-4512-ab5c-09138d4b207b" />
                </symbol>
              </g>
            </defs>
            <g
               id="id-e4d6fd5b-7c82-4b97-a172-7c6f203e4f66"
               transform="translate(-149.212,-128.124)">
              <g
                 style="fill:#000000;fill-opacity:1"
                 id="id-b3362441-73a1-4692-bd34-edd3fbbc43d7">
                <g
                   transform="translate(148.712,134.765)"
                   id="g1013">
                  <path
                     style="stroke:none;stroke-width:0"
                     d="m 1.265625,-0.765625 1.0625,-1.03125 c 1.546875,-1.375 2.140625,-1.90625 2.140625,-2.90625 0,-1.140625 -0.890625,-1.9375 -2.109375,-1.9375 -1.125,0 -1.859375,0.921875 -1.859375,1.8125 0,0.546875 0.5,0.546875 0.53125,0.546875 0.171875,0 0.515625,-0.109375 0.515625,-0.53125 0,-0.25 -0.1875,-0.515625 -0.53125,-0.515625 -0.078125,0 -0.09375,0 -0.125,0.015625 0.21875,-0.65625 0.765625,-1.015625 1.34375,-1.015625 0.90625,0 1.328125,0.8125 1.328125,1.625 C 3.5625,-3.90625 3.078125,-3.125 2.515625,-2.5 l -1.90625,2.125 C 0.5,-0.265625 0.5,-0.234375 0.5,0 H 4.203125 L 4.46875,-1.734375 H 4.234375 C 4.171875,-1.4375 4.109375,-1 4,-0.84375 3.9375,-0.765625 3.28125,-0.765625 3.0625,-0.765625 Z m 0,0"
                     id="id-1bde0bae-6140-46cf-807f-2fc006e78b74" />
                </g>
              </g>
            </g>
          </g>
          <circle
             style="font-variation-settings:normal;opacity:1;vector-effect:none;fill:none;fill-opacity:1;fill-rule:evenodd;stroke:#000000;stroke-width:0.264583;stroke-linecap:butt;stroke-linejoin:miter;stroke-miterlimit:4;stroke-dasharray:none;stroke-dashoffset:0;stroke-opacity:1;stop-color:#000000;stop-opacity:1"
             id="circle2704"
             cx="95.631493"
             cy="133.211"
             r="1.984375" />
        </g>
        <g
           id="g2756"
           transform="translate(0.17819462,0.35639954)">
          <g
             transform="matrix(0.352778,0,0,0.352778,94.404063,138.87507)"
             ns1:version="1.3.1"
             ns1:texconverter="pdflatex"
             ns1:pdfconverter="inkscape"
             ns1:text="$7$\n"
             ns1:preamble="/Users/ketiboldiais/Library/Application Support/org.inkscape.Inkscape/config/inkscape/extensions/circuitSymbols/circuitSymbolsPreamble.tex"
             ns1:scale="1.0"
             ns1:alignment="middle center"
             ns1:jacobian_sqrt="0.352778"
             id="g2056">
            <defs
               id="id-b5e4a80e-e59a-4c63-bc6d-9db70fbc885a">
              <g
                 id="id-8ea9788a-b05d-4d42-b997-49a10326c5b3">
                <symbol
                   overflow="visible"
                   id="id-917485f2-1386-46c1-9dcf-db4e73d931ae">
                  <path
                     style="stroke:none;stroke-width:0"
                     d=""
                     id="id-55956973-467c-4025-85f4-c239cf401ff6" />
                </symbol>
                <symbol
                   overflow="visible"
                   id="id-e928330e-1a47-46de-ad3e-2ad7873a7e88">
                  <path
                     style="stroke:none;stroke-width:0"
                     d="m 4.75,-6.078125 c 0.078125,-0.109375 0.078125,-0.125 0.078125,-0.34375 H 2.40625 c -1.203125,0 -1.234375,-0.125 -1.265625,-0.3125 h -0.25 L 0.5625,-4.6875 h 0.25 c 0.03125,-0.15625 0.109375,-0.78125 0.25,-0.90625 0.0625,-0.0625 0.84375,-0.0625 0.96875,-0.0625 h 2.0625 C 3.984375,-5.5 3.203125,-4.40625 2.984375,-4.078125 2.078125,-2.734375 1.75,-1.34375 1.75,-0.328125 c 0,0.09375 0,0.546875 0.46875,0.546875 0.453125,0 0.453125,-0.453125 0.453125,-0.546875 V -0.84375 c 0,-0.546875 0.03125,-1.09375 0.109375,-1.625 0.046875,-0.234375 0.171875,-1.09375 0.625,-1.703125 z m 0,0"
                     id="id-2adceeab-4cd1-4ddd-a674-b1aad6e59baa" />
                </symbol>
              </g>
            </defs>
            <g
               id="id-1430f9dd-1a7a-4cff-9b5d-d42c57aabc6e"
               transform="translate(-149.275,-128.031)">
              <g
                 style="fill:#000000;fill-opacity:1"
                 id="id-16c1eea7-10ab-4ccf-9bb8-4f452f4849c1">
                <g
                   transform="translate(148.712,134.765)"
                   id="g2052">
                  <path
                     style="stroke:none;stroke-width:0"
                     d="m 4.75,-6.078125 c 0.078125,-0.109375 0.078125,-0.125 0.078125,-0.34375 H 2.40625 c -1.203125,0 -1.234375,-0.125 -1.265625,-0.3125 h -0.25 L 0.5625,-4.6875 h 0.25 c 0.03125,-0.15625 0.109375,-0.78125 0.25,-0.90625 0.0625,-0.0625 0.84375,-0.0625 0.96875,-0.0625 h 2.0625 C 3.984375,-5.5 3.203125,-4.40625 2.984375,-4.078125 2.078125,-2.734375 1.75,-1.34375 1.75,-0.328125 c 0,0.09375 0,0.546875 0.46875,0.546875 0.453125,0 0.453125,-0.453125 0.453125,-0.546875 V -0.84375 c 0,-0.546875 0.03125,-1.09375 0.109375,-1.625 0.046875,-0.234375 0.171875,-1.09375 0.625,-1.703125 z m 0,0"
                     id="id-bb5a2da0-ff81-4c0c-bec3-236246c9cd12" />
                </g>
              </g>
            </g>
          </g>
          <circle
             style="font-variation-settings:normal;opacity:1;vector-effect:none;fill:none;fill-opacity:1;fill-rule:evenodd;stroke:#000000;stroke-width:0.264583;stroke-linecap:butt;stroke-linejoin:miter;stroke-miterlimit:4;stroke-dasharray:none;stroke-dashoffset:0;stroke-opacity:1;stop-color:#000000;stop-opacity:1"
             id="circle2706"
             cx="95.156296"
             cy="140.10139"
             r="1.984375" />
        </g>
        <g
           id="g2840"
           transform="translate(-0.50491104,-0.11880493)">
          <g
             transform="matrix(0.352778,0,0,0.352778,103.45478,132.00095)"
             ns1:version="1.3.1"
             ns1:texconverter="pdflatex"
             ns1:pdfconverter="inkscape"
             ns1:text="$3$\n"
             ns1:preamble="/Users/ketiboldiais/Library/Application Support/org.inkscape.Inkscape/config/inkscape/extensions/circuitSymbols/circuitSymbolsPreamble.tex"
             ns1:scale="1.0"
             ns1:alignment="middle center"
             ns1:jacobian_sqrt="0.352778"
             id="g1255">
            <defs
               id="id-574d7abd-8719-4d0e-a669-c6d1df7d88e8">
              <g
                 id="id-e6658ade-e252-45b8-8802-fa054d812771">
                <symbol
                   overflow="visible"
                   id="id-f746b7bc-e65e-4d15-91f3-a62487fcb6c3">
                  <path
                     style="stroke:none;stroke-width:0"
                     d=""
                     id="id-7ba1d69a-5331-4f1f-9da7-73fa22d7ed07" />
                </symbol>
                <symbol
                   overflow="visible"
                   id="id-8e746d23-6d22-43b6-a31d-698695f9a8b3">
                  <path
                     style="stroke:none;stroke-width:0"
                     d="m 2.890625,-3.515625 c 0.8125,-0.265625 1.390625,-0.953125 1.390625,-1.75 0,-0.8125 -0.875,-1.375 -1.828125,-1.375 -1,0 -1.765625,0.59375 -1.765625,1.359375 0,0.328125 0.21875,0.515625 0.515625,0.515625 0.296875,0 0.5,-0.21875 0.5,-0.515625 0,-0.484375 -0.46875,-0.484375 -0.609375,-0.484375 0.296875,-0.5 0.953125,-0.625 1.3125,-0.625 0.421875,0 0.96875,0.21875 0.96875,1.109375 0,0.125 -0.03125,0.703125 -0.28125,1.140625 C 2.796875,-3.65625 2.453125,-3.625 2.203125,-3.625 2.125,-3.609375 1.890625,-3.59375 1.8125,-3.59375 c -0.078125,0.015625 -0.140625,0.03125 -0.140625,0.125 0,0.109375 0.0625,0.109375 0.234375,0.109375 h 0.4375 c 0.8125,0 1.1875,0.671875 1.1875,1.65625 0,1.359375 -0.6875,1.640625 -1.125,1.640625 -0.4375,0 -1.1875,-0.171875 -1.53125,-0.75 0.34375,0.046875 0.65625,-0.171875 0.65625,-0.546875 0,-0.359375 -0.265625,-0.5625 -0.546875,-0.5625 -0.25,0 -0.5625,0.140625 -0.5625,0.578125 0,0.90625 0.921875,1.5625 2.015625,1.5625 1.21875,0 2.125,-0.90625 2.125,-1.921875 0,-0.8125 -0.640625,-1.59375 -1.671875,-1.8125 z m 0,0"
                     id="id-313bd8c9-97c8-4a47-a31e-532b8a982260" />
                </symbol>
              </g>
            </defs>
            <g
               id="id-a0a9f7e5-effc-4a2c-8977-cc263cc65d93"
               transform="translate(-149.134,-128.124)">
              <g
                 style="fill:#000000;fill-opacity:1"
                 id="id-ff06e7b3-a156-4986-8db9-cdb4636f60e7">
                <g
                   transform="translate(148.712,134.765)"
                   id="g1251">
                  <path
                     style="stroke:none;stroke-width:0"
                     d="m 2.890625,-3.515625 c 0.8125,-0.265625 1.390625,-0.953125 1.390625,-1.75 0,-0.8125 -0.875,-1.375 -1.828125,-1.375 -1,0 -1.765625,0.59375 -1.765625,1.359375 0,0.328125 0.21875,0.515625 0.515625,0.515625 0.296875,0 0.5,-0.21875 0.5,-0.515625 0,-0.484375 -0.46875,-0.484375 -0.609375,-0.484375 0.296875,-0.5 0.953125,-0.625 1.3125,-0.625 0.421875,0 0.96875,0.21875 0.96875,1.109375 0,0.125 -0.03125,0.703125 -0.28125,1.140625 C 2.796875,-3.65625 2.453125,-3.625 2.203125,-3.625 2.125,-3.609375 1.890625,-3.59375 1.8125,-3.59375 c -0.078125,0.015625 -0.140625,0.03125 -0.140625,0.125 0,0.109375 0.0625,0.109375 0.234375,0.109375 h 0.4375 c 0.8125,0 1.1875,0.671875 1.1875,1.65625 0,1.359375 -0.6875,1.640625 -1.125,1.640625 -0.4375,0 -1.1875,-0.171875 -1.53125,-0.75 0.34375,0.046875 0.65625,-0.171875 0.65625,-0.546875 0,-0.359375 -0.265625,-0.5625 -0.546875,-0.5625 -0.25,0 -0.5625,0.140625 -0.5625,0.578125 0,0.90625 0.921875,1.5625 2.015625,1.5625 1.21875,0 2.125,-0.90625 2.125,-1.921875 0,-0.8125 -0.640625,-1.59375 -1.671875,-1.8125 z m 0,0"
                     id="id-da78da4c-9a42-43cf-8678-5765c73bca1b" />
                </g>
              </g>
            </g>
          </g>
          <circle
             style="font-variation-settings:normal;opacity:1;vector-effect:none;fill:none;fill-opacity:1;fill-rule:evenodd;stroke:#000000;stroke-width:0.264583;stroke-linecap:butt;stroke-linejoin:miter;stroke-miterlimit:4;stroke-dasharray:none;stroke-dashoffset:0;stroke-opacity:1;stop-color:#000000;stop-opacity:1"
             id="circle2708"
             cx="104.1851"
             cy="133.211"
             r="1.984375" />
        </g>
        <g
           id="g2770"
           transform="translate(0.32668533)">
          <g
             transform="matrix(0.352778,0,0,0.352778,102.62318,139.24774)"
             ns1:version="1.3.1"
             ns1:texconverter="pdflatex"
             ns1:pdfconverter="inkscape"
             ns1:text="$8$\n"
             ns1:preamble="/Users/ketiboldiais/Library/Application Support/org.inkscape.Inkscape/config/inkscape/extensions/circuitSymbols/circuitSymbolsPreamble.tex"
             ns1:scale="1.0"
             ns1:alignment="middle center"
             ns1:jacobian_sqrt="0.352778"
             id="g2285">
            <defs
               id="id-957eab0c-67f6-4a25-8bf5-6c2adbb5982e">
              <g
                 id="id-0272d456-201f-475c-8b63-47758febf7e0">
                <symbol
                   overflow="visible"
                   id="id-52528bf8-6646-4f8c-8848-f05d6a369c78">
                  <path
                     style="stroke:none;stroke-width:0"
                     d=""
                     id="id-11b6aa4c-9bd3-4935-bd32-b7699a74d3d7" />
                </symbol>
                <symbol
                   overflow="visible"
                   id="id-a02beb4e-5b89-4c71-ba6b-3e4fc4af5fdb">
                  <path
                     style="stroke:none;stroke-width:0"
                     d="m 1.625,-4.5625 c -0.453125,-0.296875 -0.5,-0.625 -0.5,-0.796875 0,-0.609375 0.65625,-1.03125 1.359375,-1.03125 0.71875,0 1.359375,0.515625 1.359375,1.234375 0,0.578125 -0.390625,1.046875 -0.984375,1.390625 z m 1.453125,0.953125 C 3.796875,-3.984375 4.28125,-4.5 4.28125,-5.15625 c 0,-0.921875 -0.875,-1.484375 -1.78125,-1.484375 -1,0 -1.8125,0.734375 -1.8125,1.671875 0,0.171875 0.015625,0.625 0.4375,1.09375 0.109375,0.109375 0.484375,0.359375 0.734375,0.53125 C 1.28125,-3.046875 0.421875,-2.5 0.421875,-1.5 c 0,1.046875 1.015625,1.71875 2.0625,1.71875 1.125,0 2.078125,-0.828125 2.078125,-1.890625 0,-0.359375 -0.109375,-0.8125 -0.5,-1.234375 C 3.875,-3.109375 3.71875,-3.203125 3.078125,-3.609375 Z m -1,0.421875 1.234375,0.78125 c 0.28125,0.1875 0.75,0.484375 0.75,1.09375 0,0.734375 -0.75,1.25 -1.5625,1.25 -0.859375,0 -1.578125,-0.609375 -1.578125,-1.4375 0,-0.578125 0.3125,-1.21875 1.15625,-1.6875 z m 0,0"
                     id="id-48f5da91-3dc3-447d-bb59-1c8dec7c5954" />
                </symbol>
              </g>
            </defs>
            <g
               id="id-abd3f878-161a-42bb-80a6-c06ad8c07b69"
               transform="translate(-149.134,-128.124)">
              <g
                 style="fill:#000000;fill-opacity:1"
                 id="id-15140648-5124-46dc-9fa6-c4d52d0af622">
                <g
                   transform="translate(148.712,134.765)"
                   id="g2281">
                  <path
                     style="stroke:none;stroke-width:0"
                     d="m 1.625,-4.5625 c -0.453125,-0.296875 -0.5,-0.625 -0.5,-0.796875 0,-0.609375 0.65625,-1.03125 1.359375,-1.03125 0.71875,0 1.359375,0.515625 1.359375,1.234375 0,0.578125 -0.390625,1.046875 -0.984375,1.390625 z m 1.453125,0.953125 C 3.796875,-3.984375 4.28125,-4.5 4.28125,-5.15625 c 0,-0.921875 -0.875,-1.484375 -1.78125,-1.484375 -1,0 -1.8125,0.734375 -1.8125,1.671875 0,0.171875 0.015625,0.625 0.4375,1.09375 0.109375,0.109375 0.484375,0.359375 0.734375,0.53125 C 1.28125,-3.046875 0.421875,-2.5 0.421875,-1.5 c 0,1.046875 1.015625,1.71875 2.0625,1.71875 1.125,0 2.078125,-0.828125 2.078125,-1.890625 0,-0.359375 -0.109375,-0.8125 -0.5,-1.234375 C 3.875,-3.109375 3.71875,-3.203125 3.078125,-3.609375 Z m -1,0.421875 1.234375,0.78125 c 0.28125,0.1875 0.75,0.484375 0.75,1.09375 0,0.734375 -0.75,1.25 -1.5625,1.25 -0.859375,0 -1.578125,-0.609375 -1.578125,-1.4375 0,-0.578125 0.3125,-1.21875 1.15625,-1.6875 z m 0,0"
                     id="id-2cdc169d-0cef-401c-965d-6e81746b0e41" />
                </g>
              </g>
            </g>
          </g>
          <circle
             style="font-variation-settings:normal;opacity:1;vector-effect:none;fill:none;fill-opacity:1;fill-rule:evenodd;stroke:#000000;stroke-width:0.264583;stroke-linecap:butt;stroke-linejoin:miter;stroke-miterlimit:4;stroke-dasharray:none;stroke-dashoffset:0;stroke-opacity:1;stop-color:#000000;stop-opacity:1"
             id="circle2710"
             cx="103.3535"
             cy="140.45779"
             r="1.984375" />
        </g>
        <g
           id="g2854"
           transform="translate(-0.23760986)">
          <g
             transform="matrix(0.352778,0,0,0.352778,111.48619,131.90157)"
             ns1:version="1.3.1"
             ns1:texconverter="pdflatex"
             ns1:pdfconverter="inkscape"
             ns1:text="$4$\n"
             ns1:preamble="/Users/ketiboldiais/Library/Application Support/org.inkscape.Inkscape/config/inkscape/extensions/circuitSymbols/circuitSymbolsPreamble.tex"
             ns1:scale="1.0"
             ns1:alignment="middle center"
             ns1:jacobian_sqrt="0.352778"
             id="g1849">
            <defs
               id="id-c698d884-fb8b-474a-94f8-f758fe32d276">
              <g
                 id="id-b843d4a9-db1e-4ba9-81a8-46c534fd831e">
                <symbol
                   overflow="visible"
                   id="id-82b2fb85-0a1f-4126-a93b-22bdd77553d4">
                  <path
                     style="stroke:none;stroke-width:0"
                     d=""
                     id="id-0e877dc6-cbcc-40de-8c69-6ca0fc4159da" />
                </symbol>
                <symbol
                   overflow="visible"
                   id="id-45a475bf-096f-4137-9b38-b46b5f40fb26">
                  <path
                     style="stroke:none;stroke-width:0"
                     d="m 2.9375,-1.640625 v 0.859375 c 0,0.359375 -0.03125,0.46875 -0.765625,0.46875 H 1.96875 V 0 C 2.375,-0.03125 2.890625,-0.03125 3.3125,-0.03125 c 0.421875,0 0.9375,0 1.359375,0.03125 v -0.3125 h -0.21875 c -0.734375,0 -0.75,-0.109375 -0.75,-0.46875 V -1.640625 H 4.6875 v -0.3125 H 3.703125 v -4.53125 c 0,-0.203125 0,-0.265625 -0.171875,-0.265625 -0.078125,0 -0.109375,0 -0.1875,0.125 l -3.0625,4.671875 v 0.3125 z m 0.046875,-0.3125 H 0.5625 l 2.421875,-3.71875 z m 0,0"
                     id="id-8aa21177-45e8-4d85-ae48-a42e45ec874b" />
                </symbol>
              </g>
            </defs>
            <g
               id="id-37dd1af0-03c1-4afe-838f-f45abd792d0c"
               transform="translate(-148.993,-128.015)">
              <g
                 style="fill:#000000;fill-opacity:1"
                 id="id-096a5aa8-ee4d-47d6-85d4-bde6fe805a8c">
                <g
                   transform="translate(148.712,134.765)"
                   id="g1845">
                  <path
                     style="stroke:none;stroke-width:0"
                     d="m 2.9375,-1.640625 v 0.859375 c 0,0.359375 -0.03125,0.46875 -0.765625,0.46875 H 1.96875 V 0 C 2.375,-0.03125 2.890625,-0.03125 3.3125,-0.03125 c 0.421875,0 0.9375,0 1.359375,0.03125 v -0.3125 h -0.21875 c -0.734375,0 -0.75,-0.109375 -0.75,-0.46875 V -1.640625 H 4.6875 v -0.3125 H 3.703125 v -4.53125 c 0,-0.203125 0,-0.265625 -0.171875,-0.265625 -0.078125,0 -0.109375,0 -0.1875,0.125 l -3.0625,4.671875 v 0.3125 z m 0.046875,-0.3125 H 0.5625 l 2.421875,-3.71875 z m 0,0"
                     id="id-bcd6bcc9-d8af-48d8-a0f6-c8ad6df9ddc1" />
                </g>
              </g>
            </g>
          </g>
          <circle
             style="font-variation-settings:normal;opacity:1;vector-effect:none;fill:none;fill-opacity:1;fill-rule:evenodd;stroke:#000000;stroke-width:0.264583;stroke-linecap:butt;stroke-linejoin:miter;stroke-miterlimit:4;stroke-dasharray:none;stroke-dashoffset:0;stroke-opacity:1;stop-color:#000000;stop-opacity:1"
             id="circle2712"
             cx="112.2635"
             cy="133.09219"
             r="1.984375" />
        </g>
        <g
           id="g2784"
           transform="translate(0,0.2375946)">
          <g
             transform="matrix(0.352778,0,0,0.352778,111.29557,139.01015)"
             ns1:version="1.3.1"
             ns1:texconverter="pdflatex"
             ns1:pdfconverter="inkscape"
             ns1:text="$9$\n"
             ns1:preamble="/Users/ketiboldiais/Library/Application Support/org.inkscape.Inkscape/config/inkscape/extensions/circuitSymbols/circuitSymbolsPreamble.tex"
             ns1:scale="1.0"
             ns1:alignment="middle center"
             ns1:jacobian_sqrt="0.352778"
             id="g2536">
            <defs
               id="id-89f68431-7409-4ce1-8184-d77de7b7c023">
              <g
                 id="id-92b4f25b-6e25-4c28-99a5-77d413467c87">
                <symbol
                   overflow="visible"
                   id="id-bc103738-d58f-44fc-acc9-b8df07954813">
                  <path
                     style="stroke:none;stroke-width:0"
                     d=""
                     id="id-e43c0c53-2946-4bea-8df8-aa091724a6d6" />
                </symbol>
                <symbol
                   overflow="visible"
                   id="id-75eff5d4-77ea-44fe-aa8e-b430728eb43e">
                  <path
                     style="stroke:none;stroke-width:0"
                     d="m 3.65625,-3.171875 v 0.328125 c 0,2.328125 -1.03125,2.78125 -1.609375,2.78125 -0.171875,0 -0.71875,-0.015625 -0.984375,-0.359375 0.4375,0 0.515625,-0.28125 0.515625,-0.453125 0,-0.3125 -0.234375,-0.453125 -0.453125,-0.453125 -0.15625,0 -0.453125,0.078125 -0.453125,0.46875 0,0.671875 0.53125,1.078125 1.375,1.078125 1.296875,0 2.515625,-1.359375 2.515625,-3.5 0,-2.6875 -1.15625,-3.359375 -2.046875,-3.359375 -0.546875,0 -1.03125,0.1875 -1.453125,0.625 -0.421875,0.453125 -0.640625,0.875 -0.640625,1.625 0,1.234375 0.875,2.21875 1.984375,2.21875 0.609375,0 1.015625,-0.421875 1.25,-1 z M 2.421875,-2.40625 c -0.15625,0 -0.625,0 -0.921875,-0.625 -0.1875,-0.375 -0.1875,-0.859375 -0.1875,-1.359375 0,-0.53125 0,-1 0.21875,-1.375 0.265625,-0.5 0.640625,-0.625 0.984375,-0.625 0.46875,0 0.796875,0.34375 0.96875,0.78125 0.109375,0.328125 0.15625,0.953125 0.15625,1.40625 0,0.828125 -0.34375,1.796875 -1.21875,1.796875 z m 0,0"
                     id="id-abf11f5d-6c06-4b10-bc97-2c4a30c4b220" />
                </symbol>
              </g>
            </defs>
            <g
               id="id-94406a1e-7d68-4dc8-b1f6-e2a449da0fe4"
               transform="translate(-149.134,-128.124)">
              <g
                 style="fill:#000000;fill-opacity:1"
                 id="id-fec77ac1-1008-4818-a07b-27e54d517f64">
                <g
                   transform="translate(148.712,134.765)"
                   id="g2532">
                  <path
                     style="stroke:none;stroke-width:0"
                     d="m 3.65625,-3.171875 v 0.328125 c 0,2.328125 -1.03125,2.78125 -1.609375,2.78125 -0.171875,0 -0.71875,-0.015625 -0.984375,-0.359375 0.4375,0 0.515625,-0.28125 0.515625,-0.453125 0,-0.3125 -0.234375,-0.453125 -0.453125,-0.453125 -0.15625,0 -0.453125,0.078125 -0.453125,0.46875 0,0.671875 0.53125,1.078125 1.375,1.078125 1.296875,0 2.515625,-1.359375 2.515625,-3.5 0,-2.6875 -1.15625,-3.359375 -2.046875,-3.359375 -0.546875,0 -1.03125,0.1875 -1.453125,0.625 -0.421875,0.453125 -0.640625,0.875 -0.640625,1.625 0,1.234375 0.875,2.21875 1.984375,2.21875 0.609375,0 1.015625,-0.421875 1.25,-1 z M 2.421875,-2.40625 c -0.15625,0 -0.625,0 -0.921875,-0.625 -0.1875,-0.375 -0.1875,-0.859375 -0.1875,-1.359375 0,-0.53125 0,-1 0.21875,-1.375 0.265625,-0.5 0.640625,-0.625 0.984375,-0.625 0.46875,0 0.796875,0.34375 0.96875,0.78125 0.109375,0.328125 0.15625,0.953125 0.15625,1.40625 0,0.828125 -0.34375,1.796875 -1.21875,1.796875 z m 0,0"
                     id="id-d196cbfe-b37b-4e1a-afb3-e9790a63e219" />
                </g>
              </g>
            </g>
          </g>
          <circle
             style="font-variation-settings:normal;opacity:1;vector-effect:none;fill:none;fill-opacity:1;fill-rule:evenodd;stroke:#000000;stroke-width:0.264583;stroke-linecap:butt;stroke-linejoin:miter;stroke-miterlimit:4;stroke-dasharray:none;stroke-dashoffset:0;stroke-opacity:1;stop-color:#000000;stop-opacity:1"
             id="circle2714"
             cx="112.02589"
             cy="140.2202"
             r="1.984375" />
        </g>
        <path
           style="fill:none;stroke:#000000;stroke-width:0.264583px;stroke-linecap:butt;stroke-linejoin:miter;stroke-opacity:1"
           d="m 80.627462,133.09219 h 4.376955"
           id="path3086" />
        <path
           style="fill:none;stroke:#000000;stroke-width:0.264583px;stroke-linecap:butt;stroke-linejoin:miter;stroke-opacity:1"
           d="m 88.973167,140.45779 h 4.376946"
           id="path3088" />
        <path
           style="fill:none;stroke:#000000;stroke-width:0.264583px;stroke-linecap:butt;stroke-linejoin:miter;stroke-opacity:1"
           d="m 103.68018,138.47342 v -3.39685"
           id="path3090" />
        <path
           style="fill:none;stroke:#000000;stroke-width:0.264583px;stroke-linecap:butt;stroke-linejoin:miter;stroke-opacity:1"
           d="m 105.66456,133.09219 h 4.37695"
           id="path3092" />
        <path
           style="fill:none;stroke:#000000;stroke-width:0.264583px;stroke-linecap:butt;stroke-linejoin:miter;stroke-opacity:1"
           d="m 112.02589,135.07657 v 3.39685"
           id="path3094" />
      </g>
    </g>
  </g>
</svg>
