<?xml version="1.0" encoding="UTF-8" standalone="no"?>
<!-- Created with Inkscape (http://www.inkscape.org/) -->

<svg
   width="58.472916mm"
   height="84.931252mm"
   viewBox="0 0 58.472916 84.931252"
   version="1.1"
   id="svg5"
   sodipodi:docname="encapsulationJava.svg"
   inkscape:version="1.1 (c4e8f9e, 2021-05-24)"
   xmlns:inkscape="http://www.inkscape.org/namespaces/inkscape"
   xmlns:sodipodi="http://sodipodi.sourceforge.net/DTD/sodipodi-0.dtd"
   xmlns="http://www.w3.org/2000/svg"
   xmlns:svg="http://www.w3.org/2000/svg">
  <sodipodi:namedview
     id="namedview7"
     pagecolor="#ffffff"
     bordercolor="#666666"
     borderopacity="1.0"
     inkscape:pageshadow="2"
     inkscape:pageopacity="0.0"
     inkscape:pagecheckerboard="0"
     inkscape:document-units="mm"
     showgrid="false"
     inkscape:zoom="1.092494"
     inkscape:cx="242.10659"
     inkscape:cy="139.58887"
     inkscape:window-width="1312"
     inkscape:window-height="847"
     inkscape:window-x="0"
     inkscape:window-y="25"
     inkscape:window-maximized="0"
     inkscape:current-layer="layer1">
    <inkscape:grid
       type="xygrid"
       id="grid824"
       originx="-63.367707"
       originy="-31.617709" />
  </sodipodi:namedview>
  <defs
     id="defs2">
    <defs
       id="id-d56ffd88-ffd1-4281-afda-ae52a228e536">
      <g
         id="id-0b54ef64-53a2-44a8-abe2-da00f233bdb6">
        <symbol
           overflow="visible"
           id="id-24918033-5e1e-4d88-b991-4a7ff30a1a06">
          <path
             style="stroke:none;stroke-width:0"
             d=""
             id="id-d6c9665f-3e64-46f5-aa08-e30c4351bd91" />
        </symbol>
        <symbol
           overflow="visible"
           id="id-3da55b5d-e2b8-48c4-a3c5-905af75bbd84">
          <path
             style="stroke:none;stroke-width:0"
             d="m 3.5625,-0.5 c 0,0.359375 0,0.5 0.40625,0.5 H 4.6875 c 0.171875,0 0.421875,0 0.421875,-0.3125 0,-0.296875 -0.265625,-0.296875 -0.40625,-0.296875 H 4.25 V -5.6875 c 0,-0.296875 -0.046875,-0.40625 -0.390625,-0.40625 H 3.125 c -0.15625,0 -0.40625,0 -0.40625,0.3125 0,0.296875 0.265625,0.296875 0.40625,0.296875 H 3.5625 V -3.90625 C 3.234375,-4.203125 2.828125,-4.359375 2.40625,-4.359375 c -1.09375,0 -2.046875,0.953125 -2.046875,2.21875 0,1.234375 0.890625,2.203125 1.953125,2.203125 0.5625,0 0.984375,-0.265625 1.25,-0.5625 z m 0,-2.140625 V -1.9375 c 0,0.5625 -0.4375,1.390625 -1.203125,1.390625 -0.71875,0 -1.3125,-0.703125 -1.3125,-1.59375 C 1.046875,-3.09375 1.75,-3.75 2.4375,-3.75 c 0.640625,0 1.125,0.5625 1.125,1.109375 z m 0,0"
             id="id-bcc70227-b4ff-46a5-b06b-9ddbbb2644e9" />
        </symbol>
        <symbol
           overflow="visible"
           id="id-76345974-bd09-4d96-b911-153e28caa104">
          <path
             style="stroke:none;stroke-width:0"
             d="M 3.65625,-0.3125 C 3.875,-0.015625 4.34375,0 4.71875,0 c 0.28125,0 0.5,0 0.5,-0.3125 0,-0.296875 -0.25,-0.296875 -0.390625,-0.296875 -0.421875,0 -0.515625,-0.046875 -0.59375,-0.078125 v -2.15625 c 0,-0.703125 -0.546875,-1.546875 -1.984375,-1.546875 -0.421875,0 -1.4375,0 -1.4375,0.734375 0,0.296875 0.203125,0.453125 0.4375,0.453125 0.15625,0 0.4375,-0.09375 0.4375,-0.453125 0,-0.078125 0.015625,-0.09375 0.21875,-0.109375 0.140625,-0.015625 0.265625,-0.015625 0.359375,-0.015625 0.75,0 1.265625,0.3125 1.265625,1.015625 -1.75,0.03125 -2.984375,0.53125 -2.984375,1.484375 0,0.6875 0.625,1.34375 1.640625,1.34375 0.375,0 1,-0.078125 1.46875,-0.375 z m -0.125,-1.859375 v 0.84375 c 0,0.21875 0,0.4375 -0.375,0.609375 -0.359375,0.171875 -0.8125,0.171875 -0.890625,0.171875 -0.625,0 -1.03125,-0.34375 -1.03125,-0.734375 0,-0.484375 0.859375,-0.859375 2.296875,-0.890625 z m 0,0"
             id="id-1cd3d690-ca17-4315-8e7a-10764ef54b64" />
        </symbol>
        <symbol
           overflow="visible"
           id="id-1179a5b1-a065-400c-852f-3f3695b6c5b3">
          <path
             style="stroke:none;stroke-width:0"
             d="m 2.21875,-3.6875 h 1.625 c 0.15625,0 0.40625,0 0.40625,-0.296875 0,-0.3125 -0.25,-0.3125 -0.40625,-0.3125 h -1.625 v -0.8125 c 0,-0.1875 0,-0.40625 -0.34375,-0.40625 -0.34375,0 -0.34375,0.203125 -0.34375,0.40625 v 0.8125 h -0.875 c -0.15625,0 -0.40625,0 -0.40625,0.3125 0,0.296875 0.25,0.296875 0.390625,0.296875 H 1.53125 V -1.25 c 0,0.953125 0.671875,1.3125 1.40625,1.3125 0.734375,0 1.53125,-0.4375 1.53125,-1.3125 0,-0.1875 0,-0.390625 -0.34375,-0.390625 -0.328125,0 -0.34375,0.203125 -0.34375,0.375 0,0.625 -0.578125,0.71875 -0.796875,0.71875 -0.765625,0 -0.765625,-0.515625 -0.765625,-0.765625 z m 0,0"
             id="id-a997ee55-befe-409f-a4d0-77a7531c12c9" />
        </symbol>
        <symbol
           overflow="visible"
           id="id-6f077166-b508-4d78-acaa-3b7ce3e259e9">
          <path
             style="stroke:none;stroke-width:0"
             d="m 4.65625,-2.15625 c 0,-1.25 -0.921875,-2.234375 -2.046875,-2.234375 -1.109375,0 -2.046875,0.984375 -2.046875,2.234375 0,1.265625 0.953125,2.21875 2.046875,2.21875 1.09375,0 2.046875,-0.953125 2.046875,-2.21875 z M 2.609375,-0.546875 C 1.875,-0.546875 1.25,-1.296875 1.25,-2.21875 c 0,-0.90625 0.65625,-1.5625 1.359375,-1.5625 0.71875,0 1.359375,0.65625 1.359375,1.5625 0,0.921875 -0.625,1.671875 -1.359375,1.671875 z m 0,0"
             id="id-133218ae-6b1e-4665-88f1-795c3e869f43" />
        </symbol>
        <symbol
           overflow="visible"
           id="id-8a1bfb95-8014-4138-84bf-5ac2b98edf75">
          <path
             style="stroke:none;stroke-width:0"
             d="m 1.65625,-2.625 c 0,-0.59375 0.578125,-1.125 1.203125,-1.125 0.734375,0 1.3125,0.734375 1.3125,1.59375 0,0.953125 -0.6875,1.609375 -1.390625,1.609375 -0.78125,0 -1.125,-0.875 -1.125,-1.359375 z m 0,2.171875 C 2.0625,-0.03125 2.5,0.0625 2.8125,0.0625 c 1.078125,0 2.046875,-0.953125 2.046875,-2.21875 0,-1.21875 -0.875,-2.203125 -1.9375,-2.203125 C 2.4375,-4.359375 2,-4.171875 1.65625,-3.875 1.65625,-4.15625 1.640625,-4.296875 1.25,-4.296875 H 0.53125 c -0.15625,0 -0.40625,0 -0.40625,0.3125 0,0.296875 0.25,0.296875 0.390625,0.296875 H 0.96875 v 5.296875 h -0.4375 c -0.15625,0 -0.40625,0 -0.40625,0.296875 0,0.3125 0.25,0.3125 0.390625,0.3125 h 1.59375 C 2.25,2.21875 2.5,2.21875 2.5,1.90625 2.5,1.609375 2.25,1.609375 2.09375,1.609375 h -0.4375 z m 0,0"
             id="id-41c60e23-8dce-4dc8-a776-6be3f5954d33" />
        </symbol>
        <symbol
           overflow="visible"
           id="id-e068cf16-c8da-4a7c-a62f-ffd7f7f17cca">
          <path
             style="stroke:none;stroke-width:0"
             d="m 4.234375,-1.90625 c 0.203125,0 0.390625,0 0.390625,-0.359375 0,-1.140625 -0.640625,-2.125 -1.9375,-2.125 -1.1875,0 -2.140625,1 -2.140625,2.234375 0,1.203125 1.015625,2.21875 2.296875,2.21875 1.3125,0 1.78125,-0.90625 1.78125,-1.15625 0,-0.265625 -0.28125,-0.265625 -0.34375,-0.265625 -0.1875,0 -0.265625,0.03125 -0.328125,0.21875 -0.21875,0.5 -0.765625,0.59375 -1.046875,0.59375 -0.75,0 -1.484375,-0.5 -1.65625,-1.359375 z M 1.265625,-2.5 C 1.40625,-3.234375 2,-3.78125 2.6875,-3.78125 c 0.515625,0 1.140625,0.25 1.234375,1.28125 z m 0,0"
             id="id-caf62405-78e6-4b9f-8930-14262aa52efd" />
        </symbol>
        <symbol
           overflow="visible"
           id="id-710f99ef-756d-4b02-8f3e-9ebb7e4ca911">
          <path
             style="stroke:none;stroke-width:0"
             d="M 2.21875,-1.859375 C 2.21875,-2.796875 2.796875,-3.75 4,-3.75 c 0.015625,0.234375 0.1875,0.4375 0.4375,0.4375 0.21875,0 0.421875,-0.15625 0.421875,-0.421875 0,-0.203125 -0.125,-0.625 -0.953125,-0.625 -0.5,0 -1.140625,0.1875 -1.6875,0.8125 v -0.34375 c 0,-0.3125 -0.0625,-0.40625 -0.40625,-0.40625 H 0.71875 c -0.15625,0 -0.40625,0 -0.40625,0.296875 0,0.3125 0.25,0.3125 0.40625,0.3125 h 0.8125 v 3.078125 h -0.8125 c -0.15625,0 -0.40625,0 -0.40625,0.296875 C 0.3125,0 0.5625,0 0.71875,0 H 3.3125 c 0.15625,0 0.421875,0 0.421875,-0.296875 0,-0.3125 -0.265625,-0.3125 -0.421875,-0.3125 H 2.21875 Z m 0,0"
             id="id-86b1854c-a0cd-4c88-9a7e-d7aadd6cf6f6" />
        </symbol>
        <symbol
           overflow="visible"
           id="id-2909d311-c9e2-42dc-8d95-33f4014116bf">
          <path
             style="stroke:none;stroke-width:0"
             d="m 3.078125,-3.890625 c 0,-0.3125 -0.0625,-0.40625 -0.390625,-0.40625 H 1.265625 c -0.15625,0 -0.40625,0 -0.40625,0.296875 0,0.3125 0.25,0.3125 0.40625,0.3125 h 1.125 v 3.078125 H 1.1875 c -0.15625,0 -0.40625,0 -0.40625,0.3125 C 0.78125,0 1.03125,0 1.1875,0 H 4.125 c 0.15625,0 0.40625,0 0.40625,-0.296875 0,-0.3125 -0.25,-0.3125 -0.40625,-0.3125 H 3.078125 Z m 0,-1.71875 c 0,-0.265625 -0.21875,-0.484375 -0.5,-0.484375 -0.28125,0 -0.5,0.21875 -0.5,0.484375 0,0.28125 0.21875,0.5 0.5,0.5 0.28125,0 0.5,-0.21875 0.5,-0.5 z m 0,0"
             id="id-6d2d5275-6f0f-45a3-992c-15f026ca82f8" />
        </symbol>
        <symbol
           overflow="visible"
           id="id-cd3095be-ead2-4419-9bac-11a05b70c590">
          <path
             style="stroke:none;stroke-width:0"
             d="m 1.65625,-3.828125 c 0,-0.3125 0,-0.46875 -0.40625,-0.46875 H 0.53125 c -0.15625,0 -0.40625,0 -0.40625,0.3125 0,0.296875 0.25,0.296875 0.390625,0.296875 H 0.96875 v 3.078125 h -0.4375 c -0.15625,0 -0.40625,0 -0.40625,0.3125 C 0.125,0 0.375,0 0.515625,0 h 1.59375 C 2.25,0 2.5,0 2.5,-0.296875 c 0,-0.3125 -0.25,-0.3125 -0.40625,-0.3125 H 1.65625 V -2.375 c 0,-1 0.734375,-1.375 1.25,-1.375 0.515625,0 0.65625,0.28125 0.65625,0.875 v 2.265625 h -0.375 c -0.171875,0 -0.421875,0 -0.421875,0.3125 C 2.765625,0 3.046875,0 3.1875,0 h 1.515625 c 0.140625,0 0.40625,0 0.40625,-0.296875 0,-0.3125 -0.25,-0.3125 -0.421875,-0.3125 H 4.25 v -2.3125 c 0,-1 -0.5,-1.4375 -1.296875,-1.4375 -0.65625,0 -1.109375,0.34375 -1.296875,0.53125 z m 0,0"
             id="id-0c2487de-3ebe-4cae-8bbc-e265d8289d75" />
        </symbol>
        <symbol
           overflow="visible"
           id="id-4eebdc8b-53e3-4a9a-9b58-00e4768d647b">
          <path
             style="stroke:none;stroke-width:0"
             d="M 2.96875,-2.546875 C 2.734375,-2.578125 2.546875,-2.609375 2.296875,-2.65625 2,-2.703125 1.328125,-2.828125 1.328125,-3.203125 c 0,-0.265625 0.3125,-0.578125 1.265625,-0.578125 0.828125,0 0.96875,0.296875 1,0.5625 0,0.171875 0.03125,0.34375 0.328125,0.34375 0.359375,0 0.359375,-0.21875 0.359375,-0.421875 v -0.6875 c 0,-0.15625 0,-0.40625 -0.296875,-0.40625 -0.25,0 -0.28125,0.140625 -0.3125,0.21875 -0.4375,-0.21875 -0.875,-0.21875 -1.0625,-0.21875 -1.65625,0 -1.890625,0.828125 -1.890625,1.1875 0,0.90625 1.046875,1.078125 1.96875,1.21875 0.484375,0.078125 1.28125,0.203125 1.28125,0.734375 0,0.375 -0.375,0.703125 -1.28125,0.703125 -0.46875,0 -1.015625,-0.109375 -1.265625,-0.890625 -0.0625,-0.171875 -0.09375,-0.28125 -0.359375,-0.28125 -0.34375,0 -0.34375,0.203125 -0.34375,0.40625 v 0.96875 c 0,0.15625 0,0.40625 0.296875,0.40625 0.09375,0 0.25,-0.015625 0.375,-0.375 0.484375,0.359375 1.015625,0.375 1.296875,0.375 1.5625,0 1.890625,-0.828125 1.890625,-1.3125 0,-1.03125 -1.28125,-1.25 -1.609375,-1.296875 z m 0,0"
             id="id-efe74af6-aeca-47aa-9f7e-5598c52cb48b" />
        </symbol>
        <symbol
           overflow="visible"
           id="id-fb28f1fb-cc29-4bf2-96c6-b4299abfe091">
          <path
             style="stroke:none;stroke-width:0"
             d="M 1.09375,-4 C 1.0625,-4.296875 0.875,-4.296875 0.6875,-4.296875 H 0.375 c -0.15625,0 -0.421875,0 -0.421875,0.296875 0,0.3125 0.21875,0.3125 0.578125,0.3125 v 3.078125 c -0.359375,0 -0.578125,0 -0.578125,0.3125 C -0.046875,0 0.234375,0 0.375,0 H 1.25 c 0.140625,0 0.40625,0 0.40625,-0.296875 0,-0.3125 -0.203125,-0.3125 -0.5625,-0.3125 v -1.78125 C 1.09375,-3.28125 1.5,-3.75 1.90625,-3.75 c 0.234375,0 0.359375,0.171875 0.359375,0.8125 v 2.328125 c -0.1875,0 -0.4375,0 -0.4375,0.3125 C 1.828125,0 2.109375,0 2.25,0 h 0.734375 c 0.15625,0 0.421875,0 0.421875,-0.296875 0,-0.3125 -0.21875,-0.3125 -0.578125,-0.3125 v -1.78125 c 0,-0.890625 0.40625,-1.359375 0.828125,-1.359375 0.21875,0 0.359375,0.171875 0.359375,0.8125 v 2.328125 c -0.1875,0 -0.4375,0 -0.4375,0.3125 C 3.578125,0 3.84375,0 3.984375,0 h 0.75 c 0.15625,0 0.40625,0 0.40625,-0.296875 0,-0.3125 -0.203125,-0.3125 -0.5625,-0.3125 v -2.40625 c 0,-0.203125 0,-1.34375 -0.890625,-1.34375 -0.296875,0 -0.703125,0.125 -0.984375,0.515625 C 2.546875,-4.171875 2.265625,-4.359375 1.9375,-4.359375 1.625,-4.359375 1.328125,-4.21875 1.09375,-4 Z m 0,0"
             id="id-3fce3969-04da-4848-a161-d87e92b99ddb" />
        </symbol>
        <symbol
           overflow="visible"
           id="id-13523384-4795-401f-91fc-a9af949829d6">
          <path
             style="stroke:none;stroke-width:0"
             d="m 4.25,-2.921875 c 0,-1 -0.5,-1.4375 -1.296875,-1.4375 -0.65625,0 -1.109375,0.34375 -1.296875,0.53125 V -5.6875 c 0,-0.296875 -0.0625,-0.40625 -0.40625,-0.40625 H 0.53125 c -0.15625,0 -0.40625,0 -0.40625,0.3125 0,0.296875 0.25,0.296875 0.390625,0.296875 H 0.96875 v 4.875 h -0.4375 c -0.15625,0 -0.40625,0 -0.40625,0.3125 C 0.125,0 0.375,0 0.515625,0 h 1.59375 C 2.25,0 2.5,0 2.5,-0.296875 c 0,-0.3125 -0.25,-0.3125 -0.40625,-0.3125 H 1.65625 V -2.375 c 0,-1 0.734375,-1.375 1.25,-1.375 0.515625,0 0.65625,0.28125 0.65625,0.875 v 2.265625 h -0.375 c -0.171875,0 -0.421875,0 -0.421875,0.3125 C 2.765625,0 3.046875,0 3.1875,0 h 1.515625 c 0.140625,0 0.40625,0 0.40625,-0.296875 0,-0.3125 -0.25,-0.3125 -0.421875,-0.3125 H 4.25 Z m 0,0"
             id="id-8572f7f0-0570-469a-8efb-1432833671f7" />
        </symbol>
        <symbol
           overflow="visible"
           id="id-f8845bc1-edc4-4175-ba26-04a98957b504">
          <path
             style="stroke:none;stroke-width:0"
             d="m 2.515625,-3.6875 h 1.21875 c 0.15625,0 0.40625,0 0.40625,-0.296875 0,-0.3125 -0.25,-0.3125 -0.40625,-0.3125 h -1.21875 v -0.46875 c 0,-0.78125 0.671875,-0.78125 0.96875,-0.78125 0,0.046875 0.09375,0.4375 0.4375,0.4375 0.203125,0 0.4375,-0.171875 0.4375,-0.4375 0,-0.609375 -0.796875,-0.609375 -0.953125,-0.609375 -0.796875,0 -1.578125,0.46875 -1.578125,1.328125 v 0.53125 H 0.84375 c -0.171875,0 -0.421875,0 -0.421875,0.3125 0,0.296875 0.25,0.296875 0.40625,0.296875 h 1 v 3.078125 h -1 c -0.15625,0 -0.40625,0 -0.40625,0.296875 C 0.421875,0 0.671875,0 0.828125,0 H 3.53125 c 0.140625,0 0.40625,0 0.40625,-0.296875 0,-0.3125 -0.265625,-0.3125 -0.40625,-0.3125 H 2.515625 Z m 0,0"
             id="id-982f7e95-566f-420e-9106-f52ec91ccaba" />
        </symbol>
        <symbol
           overflow="visible"
           id="id-ed6d0d55-4a5c-4205-9165-22baddede565">
          <path
             style="stroke:none;stroke-width:0"
             d="M 3.5625,-0.3125 C 3.578125,0 3.78125,0 3.96875,0 H 4.6875 c 0.171875,0 0.421875,0 0.421875,-0.3125 0,-0.296875 -0.265625,-0.296875 -0.40625,-0.296875 H 4.25 v -3.28125 c 0,-0.3125 -0.046875,-0.40625 -0.390625,-0.40625 H 3.125 c -0.15625,0 -0.40625,0 -0.40625,0.3125 0,0.296875 0.265625,0.296875 0.40625,0.296875 h 0.4375 v 2.125 c 0,0.890625 -0.796875,1.015625 -1.125,1.015625 -0.78125,0 -0.78125,-0.328125 -0.78125,-0.65625 v -2.6875 c 0,-0.3125 -0.0625,-0.40625 -0.40625,-0.40625 H 0.53125 c -0.15625,0 -0.40625,0 -0.40625,0.3125 0,0.296875 0.25,0.296875 0.390625,0.296875 H 0.96875 v 2.546875 c 0,0.96875 0.6875,1.203125 1.40625,1.203125 0.421875,0 0.828125,-0.109375 1.1875,-0.375 z m 0,0"
             id="id-9baf6431-1435-4a37-be64-4eb57044db09" />
        </symbol>
        <symbol
           overflow="visible"
           id="id-a68b779d-cf1b-4022-bfb2-01d83ce421db">
          <path
             style="stroke:none;stroke-width:0"
             d="m 4.640625,-1.09375 c 0,-0.265625 -0.28125,-0.265625 -0.34375,-0.265625 -0.15625,0 -0.265625,0.015625 -0.328125,0.21875 -0.0625,0.125 -0.25,0.59375 -0.984375,0.59375 -0.84375,0 -1.5625,-0.703125 -1.5625,-1.609375 0,-0.46875 0.265625,-1.625 1.625,-1.625 0.203125,0 0.59375,0 0.59375,0.09375 0.015625,0.34375 0.203125,0.484375 0.4375,0.484375 0.234375,0 0.453125,-0.171875 0.453125,-0.453125 0,-0.734375 -1.046875,-0.734375 -1.484375,-0.734375 -1.71875,0 -2.3125,1.359375 -2.3125,2.234375 0,1.203125 0.9375,2.21875 2.1875,2.21875 1.390625,0 1.71875,-0.984375 1.71875,-1.15625 z m 0,0"
             id="id-88b778b9-5ca0-4eb1-862e-b7abe3a22763" />
        </symbol>
        <symbol
           overflow="visible"
           id="id-9b06554a-408e-4828-ae12-35e63d6b4b58">
          <path
             style="stroke:none;stroke-width:0"
             d="m 4.28125,-3.6875 h 0.296875 c 0.15625,0 0.40625,0 0.40625,-0.296875 0,-0.3125 -0.234375,-0.3125 -0.40625,-0.3125 h -1.15625 c -0.15625,0 -0.40625,0 -0.40625,0.296875 0,0.3125 0.25,0.3125 0.40625,0.3125 h 0.28125 L 2.609375,-0.484375 1.53125,-3.6875 h 0.265625 c 0.15625,0 0.40625,0 0.40625,-0.296875 0,-0.3125 -0.234375,-0.3125 -0.40625,-0.3125 h -1.15625 c -0.15625,0 -0.40625,0 -0.40625,0.3125 0,0.296875 0.25,0.296875 0.40625,0.296875 H 0.9375 l 1.140625,3.390625 c 0.125,0.34375 0.328125,0.34375 0.53125,0.34375 0.1875,0 0.421875,0 0.53125,-0.34375 z m 0,0"
             id="id-8dcdfc99-1124-4efc-a805-a2d754fa0c94" />
        </symbol>
        <symbol
           overflow="visible"
           id="id-2699cdc7-9a45-44d0-a0f3-addc5da8f0e3">
          <path
             style="stroke:none;stroke-width:0"
             d="m 1.65625,-3.875 v -1.8125 c 0,-0.296875 -0.0625,-0.40625 -0.40625,-0.40625 H 0.53125 c -0.15625,0 -0.40625,0 -0.40625,0.3125 0,0.296875 0.25,0.296875 0.390625,0.296875 H 0.96875 V -0.40625 C 0.96875,-0.203125 0.96875,0 1.3125,0 1.65625,0 1.65625,-0.203125 1.65625,-0.453125 2.0625,-0.03125 2.5,0.0625 2.8125,0.0625 c 1.078125,0 2.046875,-0.953125 2.046875,-2.21875 0,-1.21875 -0.875,-2.203125 -1.9375,-2.203125 C 2.4375,-4.359375 2,-4.171875 1.65625,-3.875 Z m 0,1.96875 V -2.625 c 0,-0.59375 0.578125,-1.125 1.203125,-1.125 0.734375,0 1.3125,0.734375 1.3125,1.59375 0,0.953125 -0.6875,1.609375 -1.390625,1.609375 -0.78125,0 -1.125,-0.875 -1.125,-1.359375 z m 0,0"
             id="id-727ac94c-1d71-4511-8db1-ee75a4db9f75" />
        </symbol>
        <symbol
           overflow="visible"
           id="id-1337b810-c324-445d-8da7-111068a0db73">
          <path
             style="stroke:none;stroke-width:0"
             d="m 2.953125,-5.6875 c 0,-0.296875 -0.046875,-0.40625 -0.390625,-0.40625 H 0.984375 c -0.15625,0 -0.40625,0 -0.40625,0.3125 0,0.296875 0.265625,0.296875 0.40625,0.296875 h 1.28125 v 4.875 h -1.28125 c -0.15625,0 -0.40625,0 -0.40625,0.3125 C 0.578125,0 0.84375,0 0.984375,0 H 4.25 c 0.15625,0 0.40625,0 0.40625,-0.296875 0,-0.3125 -0.234375,-0.3125 -0.40625,-0.3125 H 2.953125 Z m 0,0"
             id="id-48d4eb4b-953b-4bf2-ba3f-613f6ed94563" />
        </symbol>
      </g>
    </defs>
  </defs>
  <g
     inkscape:label="Layer 1"
     inkscape:groupmode="layer"
     id="layer1"
     transform="translate(-63.367708,-31.617708)">
    <path
       id="rect1768"
       style="font-variation-settings:normal;vector-effect:none;fill:#edfcfd;fill-opacity:1;fill-rule:evenodd;stroke:#1c71d8;stroke-width:0.264583;stroke-linecap:butt;stroke-linejoin:miter;stroke-miterlimit:4;stroke-dasharray:none;stroke-dashoffset:0;stroke-opacity:1;stop-color:#000000"
       d="M 92.604166,63.499999 V 84.666666 H 111.125 c 5.86317,0 10.58333,-4.720167 10.58333,-10.583334 0,-5.863166 -4.72016,-10.583333 -10.58333,-10.583333 z" />
    <path
       id="path2198"
       style="font-variation-settings:normal;vector-effect:none;fill:#a2f1f3;fill-opacity:1;fill-rule:evenodd;stroke:#1c71d8;stroke-width:0.264583;stroke-linecap:butt;stroke-linejoin:miter;stroke-miterlimit:4;stroke-dasharray:none;stroke-dashoffset:0;stroke-opacity:1;stop-color:#000000"
       d="m 74.083332,63.499999 c -5.863166,0 -10.583333,4.720167 -10.583333,10.583333 0,5.863167 4.720167,10.583334 10.583333,10.583334 H 92.604166 V 63.499999 Z" />
    <path
       id="rect1772"
       style="font-variation-settings:normal;vector-effect:none;fill:#edfcfd;fill-opacity:1;fill-rule:evenodd;stroke:#1c71d8;stroke-width:0.264583;stroke-linecap:butt;stroke-linejoin:miter;stroke-miterlimit:4;stroke-dasharray:none;stroke-dashoffset:0;stroke-opacity:1;stop-color:#000000"
       d="M 92.604166,31.75 V 52.916666 H 111.125 c 5.86317,0 10.58333,-4.720167 10.58333,-10.583333 C 121.70833,36.470166 116.98817,31.75 111.125,31.75 Z" />
    <path
       id="path2141"
       style="font-variation-settings:normal;vector-effect:none;fill:#a2f1f3;fill-opacity:1;fill-rule:evenodd;stroke:#1c71d8;stroke-width:0.264583;stroke-linecap:butt;stroke-linejoin:miter;stroke-miterlimit:4;stroke-dasharray:none;stroke-dashoffset:0;stroke-opacity:1;stop-color:#000000"
       d="m 74.083332,31.75 c -5.863166,0 -10.583333,4.720166 -10.583333,10.583333 0,5.863166 4.720167,10.583333 10.583333,10.583333 H 92.604166 V 31.75 Z" />
    <path
       id="rect848"
       style="font-variation-settings:normal;vector-effect:none;fill:#edfcfd;fill-opacity:1;fill-rule:evenodd;stroke:#1c71d8;stroke-width:0.264583;stroke-linecap:butt;stroke-linejoin:miter;stroke-miterlimit:4;stroke-dasharray:none;stroke-dashoffset:0;stroke-opacity:1;stop-color:#000000"
       d="M 92.604166,95.249999 V 116.41667 H 111.125 c 5.86317,0 10.58333,-4.72017 10.58333,-10.58334 0,-5.863165 -4.72016,-10.583331 -10.58333,-10.583331 z" />
    <path
       id="path2273"
       style="font-variation-settings:normal;vector-effect:none;fill:#a2f1f3;fill-opacity:1;fill-rule:evenodd;stroke:#1c71d8;stroke-width:0.264583;stroke-linecap:butt;stroke-linejoin:miter;stroke-miterlimit:4;stroke-dasharray:none;stroke-dashoffset:0;stroke-opacity:1;stop-color:#000000"
       d="m 74.083332,95.249999 c -5.863166,0 -10.583333,4.720166 -10.583333,10.583331 0,5.86317 4.720167,10.58334 10.583333,10.58334 H 92.604166 V 95.249999 Z" />
    <g
       style="fill:#1a5fb4;fill-opacity:1"
       id="id-0d4cc8b2-1701-4916-9280-cca82a159752"
       transform="matrix(0.49661767,0,0,0.49661767,0.28333851,-23.517775)">
      <g
         transform="translate(148.712,134.765)"
         id="g1197"
         style="fill:#1a5fb4;fill-opacity:1">
        <path
           style="fill:#1a5fb4;fill-opacity:1;stroke:none;stroke-width:0"
           d="m 3.5625,-0.5 c 0,0.359375 0,0.5 0.40625,0.5 H 4.6875 c 0.171875,0 0.421875,0 0.421875,-0.3125 0,-0.296875 -0.265625,-0.296875 -0.40625,-0.296875 H 4.25 V -5.6875 c 0,-0.296875 -0.046875,-0.40625 -0.390625,-0.40625 H 3.125 c -0.15625,0 -0.40625,0 -0.40625,0.3125 0,0.296875 0.265625,0.296875 0.40625,0.296875 H 3.5625 V -3.90625 C 3.234375,-4.203125 2.828125,-4.359375 2.40625,-4.359375 c -1.09375,0 -2.046875,0.953125 -2.046875,2.21875 0,1.234375 0.890625,2.203125 1.953125,2.203125 0.5625,0 0.984375,-0.265625 1.25,-0.5625 z m 0,-2.140625 V -1.9375 c 0,0.5625 -0.4375,1.390625 -1.203125,1.390625 -0.71875,0 -1.3125,-0.703125 -1.3125,-1.59375 C 1.046875,-3.09375 1.75,-3.75 2.4375,-3.75 c 0.640625,0 1.125,0.5625 1.125,1.109375 z m 0,0"
           id="id-e95a73fb-e050-4bc0-a6c1-0b76f44c8f16" />
      </g>
      <g
         transform="translate(153.942,134.765)"
         id="g1200"
         style="fill:#1a5fb4;fill-opacity:1">
        <path
           style="fill:#1a5fb4;fill-opacity:1;stroke:none;stroke-width:0"
           d="M 3.65625,-0.3125 C 3.875,-0.015625 4.34375,0 4.71875,0 c 0.28125,0 0.5,0 0.5,-0.3125 0,-0.296875 -0.25,-0.296875 -0.390625,-0.296875 -0.421875,0 -0.515625,-0.046875 -0.59375,-0.078125 v -2.15625 c 0,-0.703125 -0.546875,-1.546875 -1.984375,-1.546875 -0.421875,0 -1.4375,0 -1.4375,0.734375 0,0.296875 0.203125,0.453125 0.4375,0.453125 0.15625,0 0.4375,-0.09375 0.4375,-0.453125 0,-0.078125 0.015625,-0.09375 0.21875,-0.109375 0.140625,-0.015625 0.265625,-0.015625 0.359375,-0.015625 0.75,0 1.265625,0.3125 1.265625,1.015625 -1.75,0.03125 -2.984375,0.53125 -2.984375,1.484375 0,0.6875 0.625,1.34375 1.640625,1.34375 0.375,0 1,-0.078125 1.46875,-0.375 z m -0.125,-1.859375 v 0.84375 c 0,0.21875 0,0.4375 -0.375,0.609375 -0.359375,0.171875 -0.8125,0.171875 -0.890625,0.171875 -0.625,0 -1.03125,-0.34375 -1.03125,-0.734375 0,-0.484375 0.859375,-0.859375 2.296875,-0.890625 z m 0,0"
           id="id-006815cc-9f92-4a85-8ed0-68202a01ddad" />
      </g>
      <g
         transform="translate(159.173,134.765)"
         id="g1203"
         style="fill:#1a5fb4;fill-opacity:1">
        <path
           style="fill:#1a5fb4;fill-opacity:1;stroke:none;stroke-width:0"
           d="m 2.21875,-3.6875 h 1.625 c 0.15625,0 0.40625,0 0.40625,-0.296875 0,-0.3125 -0.25,-0.3125 -0.40625,-0.3125 h -1.625 v -0.8125 c 0,-0.1875 0,-0.40625 -0.34375,-0.40625 -0.34375,0 -0.34375,0.203125 -0.34375,0.40625 v 0.8125 h -0.875 c -0.15625,0 -0.40625,0 -0.40625,0.3125 0,0.296875 0.25,0.296875 0.390625,0.296875 H 1.53125 V -1.25 c 0,0.953125 0.671875,1.3125 1.40625,1.3125 0.734375,0 1.53125,-0.4375 1.53125,-1.3125 0,-0.1875 0,-0.390625 -0.34375,-0.390625 -0.328125,0 -0.34375,0.203125 -0.34375,0.375 0,0.625 -0.578125,0.71875 -0.796875,0.71875 -0.765625,0 -0.765625,-0.515625 -0.765625,-0.765625 z m 0,0"
           id="id-0f66b853-1d76-442e-95c0-58bf0ad1ccb5" />
      </g>
      <g
         transform="translate(164.403,134.765)"
         id="g1206"
         style="fill:#1a5fb4;fill-opacity:1">
        <path
           style="fill:#1a5fb4;fill-opacity:1;stroke:none;stroke-width:0"
           d="M 3.65625,-0.3125 C 3.875,-0.015625 4.34375,0 4.71875,0 c 0.28125,0 0.5,0 0.5,-0.3125 0,-0.296875 -0.25,-0.296875 -0.390625,-0.296875 -0.421875,0 -0.515625,-0.046875 -0.59375,-0.078125 v -2.15625 c 0,-0.703125 -0.546875,-1.546875 -1.984375,-1.546875 -0.421875,0 -1.4375,0 -1.4375,0.734375 0,0.296875 0.203125,0.453125 0.4375,0.453125 0.15625,0 0.4375,-0.09375 0.4375,-0.453125 0,-0.078125 0.015625,-0.09375 0.21875,-0.109375 0.140625,-0.015625 0.265625,-0.015625 0.359375,-0.015625 0.75,0 1.265625,0.3125 1.265625,1.015625 -1.75,0.03125 -2.984375,0.53125 -2.984375,1.484375 0,0.6875 0.625,1.34375 1.640625,1.34375 0.375,0 1,-0.078125 1.46875,-0.375 z m -0.125,-1.859375 v 0.84375 c 0,0.21875 0,0.4375 -0.375,0.609375 -0.359375,0.171875 -0.8125,0.171875 -0.890625,0.171875 -0.625,0 -1.03125,-0.34375 -1.03125,-0.734375 0,-0.484375 0.859375,-0.859375 2.296875,-0.890625 z m 0,0"
           id="id-b9b2c862-423b-4ad4-8150-d2236580fc0b" />
      </g>
    </g>
    <g
       style="fill:#1a5fb4;fill-opacity:1"
       id="id-fa2d6dd7-df8d-4d3c-b4b1-28fec81ccdda"
       transform="matrix(0.49661767,0,0,0.49661767,7.3614566,-23.517775)">
      <g
         transform="translate(174.864,134.765)"
         id="g1210"
         style="fill:#1a5fb4">
        <path
           style="fill:#1a5fb4;stroke:none;stroke-width:0"
           d="m 4.65625,-2.15625 c 0,-1.25 -0.921875,-2.234375 -2.046875,-2.234375 -1.109375,0 -2.046875,0.984375 -2.046875,2.234375 0,1.265625 0.953125,2.21875 2.046875,2.21875 1.09375,0 2.046875,-0.953125 2.046875,-2.21875 z M 2.609375,-0.546875 C 1.875,-0.546875 1.25,-1.296875 1.25,-2.21875 c 0,-0.90625 0.65625,-1.5625 1.359375,-1.5625 0.71875,0 1.359375,0.65625 1.359375,1.5625 0,0.921875 -0.625,1.671875 -1.359375,1.671875 z m 0,0"
           id="id-15b50703-e2f9-466d-a6c2-fb276961a004" />
      </g>
      <g
         transform="translate(180.094,134.765)"
         id="g1213"
         style="fill:#1a5fb4">
        <path
           style="fill:#1a5fb4;stroke:none;stroke-width:0"
           d="m 1.65625,-2.625 c 0,-0.59375 0.578125,-1.125 1.203125,-1.125 0.734375,0 1.3125,0.734375 1.3125,1.59375 0,0.953125 -0.6875,1.609375 -1.390625,1.609375 -0.78125,0 -1.125,-0.875 -1.125,-1.359375 z m 0,2.171875 C 2.0625,-0.03125 2.5,0.0625 2.8125,0.0625 c 1.078125,0 2.046875,-0.953125 2.046875,-2.21875 0,-1.21875 -0.875,-2.203125 -1.9375,-2.203125 C 2.4375,-4.359375 2,-4.171875 1.65625,-3.875 1.65625,-4.15625 1.640625,-4.296875 1.25,-4.296875 H 0.53125 c -0.15625,0 -0.40625,0 -0.40625,0.3125 0,0.296875 0.25,0.296875 0.390625,0.296875 H 0.96875 v 5.296875 h -0.4375 c -0.15625,0 -0.40625,0 -0.40625,0.296875 0,0.3125 0.25,0.3125 0.390625,0.3125 h 1.59375 C 2.25,2.21875 2.5,2.21875 2.5,1.90625 2.5,1.609375 2.25,1.609375 2.09375,1.609375 h -0.4375 z m 0,0"
           id="id-7685eb09-269d-4818-96a5-c979fca278b5" />
      </g>
      <g
         transform="translate(185.325,134.765)"
         id="g1216"
         style="fill:#1a5fb4">
        <path
           style="fill:#1a5fb4;stroke:none;stroke-width:0"
           d="m 4.234375,-1.90625 c 0.203125,0 0.390625,0 0.390625,-0.359375 0,-1.140625 -0.640625,-2.125 -1.9375,-2.125 -1.1875,0 -2.140625,1 -2.140625,2.234375 0,1.203125 1.015625,2.21875 2.296875,2.21875 1.3125,0 1.78125,-0.90625 1.78125,-1.15625 0,-0.265625 -0.28125,-0.265625 -0.34375,-0.265625 -0.1875,0 -0.265625,0.03125 -0.328125,0.21875 -0.21875,0.5 -0.765625,0.59375 -1.046875,0.59375 -0.75,0 -1.484375,-0.5 -1.65625,-1.359375 z M 1.265625,-2.5 C 1.40625,-3.234375 2,-3.78125 2.6875,-3.78125 c 0.515625,0 1.140625,0.25 1.234375,1.28125 z m 0,0"
           id="id-b9bd2a83-d1d7-40b1-8e8a-d3744ab8d8b8" />
      </g>
      <g
         transform="translate(190.555,134.765)"
         id="g1219"
         style="fill:#1a5fb4">
        <path
           style="fill:#1a5fb4;stroke:none;stroke-width:0"
           d="M 2.21875,-1.859375 C 2.21875,-2.796875 2.796875,-3.75 4,-3.75 c 0.015625,0.234375 0.1875,0.4375 0.4375,0.4375 0.21875,0 0.421875,-0.15625 0.421875,-0.421875 0,-0.203125 -0.125,-0.625 -0.953125,-0.625 -0.5,0 -1.140625,0.1875 -1.6875,0.8125 v -0.34375 c 0,-0.3125 -0.0625,-0.40625 -0.40625,-0.40625 H 0.71875 c -0.15625,0 -0.40625,0 -0.40625,0.296875 0,0.3125 0.25,0.3125 0.40625,0.3125 h 0.8125 v 3.078125 h -0.8125 c -0.15625,0 -0.40625,0 -0.40625,0.296875 C 0.3125,0 0.5625,0 0.71875,0 H 3.3125 c 0.15625,0 0.421875,0 0.421875,-0.296875 0,-0.3125 -0.265625,-0.3125 -0.421875,-0.3125 H 2.21875 Z m 0,0"
           id="id-1f9971b9-ad42-4b7b-99e4-65a0abbc67d7" />
      </g>
      <g
         transform="translate(195.785,134.765)"
         id="g1222"
         style="fill:#1a5fb4">
        <path
           style="fill:#1a5fb4;stroke:none;stroke-width:0"
           d="M 3.65625,-0.3125 C 3.875,-0.015625 4.34375,0 4.71875,0 c 0.28125,0 0.5,0 0.5,-0.3125 0,-0.296875 -0.25,-0.296875 -0.390625,-0.296875 -0.421875,0 -0.515625,-0.046875 -0.59375,-0.078125 v -2.15625 c 0,-0.703125 -0.546875,-1.546875 -1.984375,-1.546875 -0.421875,0 -1.4375,0 -1.4375,0.734375 0,0.296875 0.203125,0.453125 0.4375,0.453125 0.15625,0 0.4375,-0.09375 0.4375,-0.453125 0,-0.078125 0.015625,-0.09375 0.21875,-0.109375 0.140625,-0.015625 0.265625,-0.015625 0.359375,-0.015625 0.75,0 1.265625,0.3125 1.265625,1.015625 -1.75,0.03125 -2.984375,0.53125 -2.984375,1.484375 0,0.6875 0.625,1.34375 1.640625,1.34375 0.375,0 1,-0.078125 1.46875,-0.375 z m -0.125,-1.859375 v 0.84375 c 0,0.21875 0,0.4375 -0.375,0.609375 -0.359375,0.171875 -0.8125,0.171875 -0.890625,0.171875 -0.625,0 -1.03125,-0.34375 -1.03125,-0.734375 0,-0.484375 0.859375,-0.859375 2.296875,-0.890625 z m 0,0"
           id="id-d81d4a14-ad61-4e22-a4f4-f87481777296" />
      </g>
      <g
         transform="translate(201.016,134.765)"
         id="g1225"
         style="fill:#1a5fb4">
        <path
           style="fill:#1a5fb4;stroke:none;stroke-width:0"
           d="m 2.21875,-3.6875 h 1.625 c 0.15625,0 0.40625,0 0.40625,-0.296875 0,-0.3125 -0.25,-0.3125 -0.40625,-0.3125 h -1.625 v -0.8125 c 0,-0.1875 0,-0.40625 -0.34375,-0.40625 -0.34375,0 -0.34375,0.203125 -0.34375,0.40625 v 0.8125 h -0.875 c -0.15625,0 -0.40625,0 -0.40625,0.3125 0,0.296875 0.25,0.296875 0.390625,0.296875 H 1.53125 V -1.25 c 0,0.953125 0.671875,1.3125 1.40625,1.3125 0.734375,0 1.53125,-0.4375 1.53125,-1.3125 0,-0.1875 0,-0.390625 -0.34375,-0.390625 -0.328125,0 -0.34375,0.203125 -0.34375,0.375 0,0.625 -0.578125,0.71875 -0.796875,0.71875 -0.765625,0 -0.765625,-0.515625 -0.765625,-0.765625 z m 0,0"
           id="id-f5a56ca9-97d6-4fcd-8144-7f77566d0436" />
      </g>
      <g
         transform="translate(206.246,134.765)"
         id="g1228"
         style="fill:#1a5fb4">
        <path
           style="fill:#1a5fb4;stroke:none;stroke-width:0"
           d="m 3.078125,-3.890625 c 0,-0.3125 -0.0625,-0.40625 -0.390625,-0.40625 H 1.265625 c -0.15625,0 -0.40625,0 -0.40625,0.296875 0,0.3125 0.25,0.3125 0.40625,0.3125 h 1.125 v 3.078125 H 1.1875 c -0.15625,0 -0.40625,0 -0.40625,0.3125 C 0.78125,0 1.03125,0 1.1875,0 H 4.125 c 0.15625,0 0.40625,0 0.40625,-0.296875 0,-0.3125 -0.25,-0.3125 -0.40625,-0.3125 H 3.078125 Z m 0,-1.71875 c 0,-0.265625 -0.21875,-0.484375 -0.5,-0.484375 -0.28125,0 -0.5,0.21875 -0.5,0.484375 0,0.28125 0.21875,0.5 0.5,0.5 0.28125,0 0.5,-0.21875 0.5,-0.5 z m 0,0"
           id="id-14d26d3c-e48a-45f6-8ec6-a6eef6bcb3e3" />
      </g>
      <g
         transform="translate(211.476,134.765)"
         id="g1231"
         style="fill:#1a5fb4">
        <path
           style="fill:#1a5fb4;stroke:none;stroke-width:0"
           d="m 4.65625,-2.15625 c 0,-1.25 -0.921875,-2.234375 -2.046875,-2.234375 -1.109375,0 -2.046875,0.984375 -2.046875,2.234375 0,1.265625 0.953125,2.21875 2.046875,2.21875 1.09375,0 2.046875,-0.953125 2.046875,-2.21875 z M 2.609375,-0.546875 C 1.875,-0.546875 1.25,-1.296875 1.25,-2.21875 c 0,-0.90625 0.65625,-1.5625 1.359375,-1.5625 0.71875,0 1.359375,0.65625 1.359375,1.5625 0,0.921875 -0.625,1.671875 -1.359375,1.671875 z m 0,0"
           id="id-0266ebff-7a5d-4f97-9259-5ecea13d7ab0" />
      </g>
      <g
         transform="translate(216.707,134.765)"
         id="g1234"
         style="fill:#1a5fb4">
        <path
           style="fill:#1a5fb4;stroke:none;stroke-width:0"
           d="m 1.65625,-3.828125 c 0,-0.3125 0,-0.46875 -0.40625,-0.46875 H 0.53125 c -0.15625,0 -0.40625,0 -0.40625,0.3125 0,0.296875 0.25,0.296875 0.390625,0.296875 H 0.96875 v 3.078125 h -0.4375 c -0.15625,0 -0.40625,0 -0.40625,0.3125 C 0.125,0 0.375,0 0.515625,0 h 1.59375 C 2.25,0 2.5,0 2.5,-0.296875 c 0,-0.3125 -0.25,-0.3125 -0.40625,-0.3125 H 1.65625 V -2.375 c 0,-1 0.734375,-1.375 1.25,-1.375 0.515625,0 0.65625,0.28125 0.65625,0.875 v 2.265625 h -0.375 c -0.171875,0 -0.421875,0 -0.421875,0.3125 C 2.765625,0 3.046875,0 3.1875,0 h 1.515625 c 0.140625,0 0.40625,0 0.40625,-0.296875 0,-0.3125 -0.25,-0.3125 -0.421875,-0.3125 H 4.25 v -2.3125 c 0,-1 -0.5,-1.4375 -1.296875,-1.4375 -0.65625,0 -1.109375,0.34375 -1.296875,0.53125 z m 0,0"
           id="id-da2a6b1d-8bf8-4e6f-8c13-77c1ae93b5ef" />
      </g>
      <g
         transform="translate(221.937,134.765)"
         id="g1237"
         style="fill:#1a5fb4">
        <path
           style="fill:#1a5fb4;stroke:none;stroke-width:0"
           d="M 2.96875,-2.546875 C 2.734375,-2.578125 2.546875,-2.609375 2.296875,-2.65625 2,-2.703125 1.328125,-2.828125 1.328125,-3.203125 c 0,-0.265625 0.3125,-0.578125 1.265625,-0.578125 0.828125,0 0.96875,0.296875 1,0.5625 0,0.171875 0.03125,0.34375 0.328125,0.34375 0.359375,0 0.359375,-0.21875 0.359375,-0.421875 v -0.6875 c 0,-0.15625 0,-0.40625 -0.296875,-0.40625 -0.25,0 -0.28125,0.140625 -0.3125,0.21875 -0.4375,-0.21875 -0.875,-0.21875 -1.0625,-0.21875 -1.65625,0 -1.890625,0.828125 -1.890625,1.1875 0,0.90625 1.046875,1.078125 1.96875,1.21875 0.484375,0.078125 1.28125,0.203125 1.28125,0.734375 0,0.375 -0.375,0.703125 -1.28125,0.703125 -0.46875,0 -1.015625,-0.109375 -1.265625,-0.890625 -0.0625,-0.171875 -0.09375,-0.28125 -0.359375,-0.28125 -0.34375,0 -0.34375,0.203125 -0.34375,0.40625 v 0.96875 c 0,0.15625 0,0.40625 0.296875,0.40625 0.09375,0 0.25,-0.015625 0.375,-0.375 0.484375,0.359375 1.015625,0.375 1.296875,0.375 1.5625,0 1.890625,-0.828125 1.890625,-1.3125 0,-1.03125 -1.28125,-1.25 -1.609375,-1.296875 z m 0,0"
           id="id-5889f995-2450-4c78-9e48-d15b81168954" />
      </g>
    </g>
    <g
       style="fill:#1a5fb4;fill-opacity:1"
       id="id-dcab98dc-ec2b-4575-abb8-12f31afa21a2"
       transform="matrix(0.49661767,0,0,0.49661767,-44.134598,7.8627813)">
      <g
         transform="translate(230.485,134.765)"
         id="g1241"
         style="fill:#1a5fb4;fill-opacity:1">
        <path
           style="fill:#1a5fb4;fill-opacity:1;stroke:none;stroke-width:0"
           d="M 1.09375,-4 C 1.0625,-4.296875 0.875,-4.296875 0.6875,-4.296875 H 0.375 c -0.15625,0 -0.421875,0 -0.421875,0.296875 0,0.3125 0.21875,0.3125 0.578125,0.3125 v 3.078125 c -0.359375,0 -0.578125,0 -0.578125,0.3125 C -0.046875,0 0.234375,0 0.375,0 H 1.25 c 0.140625,0 0.40625,0 0.40625,-0.296875 0,-0.3125 -0.203125,-0.3125 -0.5625,-0.3125 v -1.78125 C 1.09375,-3.28125 1.5,-3.75 1.90625,-3.75 c 0.234375,0 0.359375,0.171875 0.359375,0.8125 v 2.328125 c -0.1875,0 -0.4375,0 -0.4375,0.3125 C 1.828125,0 2.109375,0 2.25,0 h 0.734375 c 0.15625,0 0.421875,0 0.421875,-0.296875 0,-0.3125 -0.21875,-0.3125 -0.578125,-0.3125 v -1.78125 c 0,-0.890625 0.40625,-1.359375 0.828125,-1.359375 0.21875,0 0.359375,0.171875 0.359375,0.8125 v 2.328125 c -0.1875,0 -0.4375,0 -0.4375,0.3125 C 3.578125,0 3.84375,0 3.984375,0 h 0.75 c 0.15625,0 0.40625,0 0.40625,-0.296875 0,-0.3125 -0.203125,-0.3125 -0.5625,-0.3125 v -2.40625 c 0,-0.203125 0,-1.34375 -0.890625,-1.34375 -0.296875,0 -0.703125,0.125 -0.984375,0.515625 C 2.546875,-4.171875 2.265625,-4.359375 1.9375,-4.359375 1.625,-4.359375 1.328125,-4.21875 1.09375,-4 Z m 0,0"
           id="id-b57bfba9-8315-4f6c-bf3f-6187b62d38d4" />
      </g>
      <g
         transform="translate(235.715,134.765)"
         id="g1244"
         style="fill:#1a5fb4;fill-opacity:1">
        <path
           style="fill:#1a5fb4;fill-opacity:1;stroke:none;stroke-width:0"
           d="m 4.234375,-1.90625 c 0.203125,0 0.390625,0 0.390625,-0.359375 0,-1.140625 -0.640625,-2.125 -1.9375,-2.125 -1.1875,0 -2.140625,1 -2.140625,2.234375 0,1.203125 1.015625,2.21875 2.296875,2.21875 1.3125,0 1.78125,-0.90625 1.78125,-1.15625 0,-0.265625 -0.28125,-0.265625 -0.34375,-0.265625 -0.1875,0 -0.265625,0.03125 -0.328125,0.21875 -0.21875,0.5 -0.765625,0.59375 -1.046875,0.59375 -0.75,0 -1.484375,-0.5 -1.65625,-1.359375 z M 1.265625,-2.5 C 1.40625,-3.234375 2,-3.78125 2.6875,-3.78125 c 0.515625,0 1.140625,0.25 1.234375,1.28125 z m 0,0"
           id="id-fb5042cf-dd9c-4549-a34f-aa7c2fca75ac" />
      </g>
      <g
         transform="translate(240.946,134.765)"
         id="g1247"
         style="fill:#1a5fb4;fill-opacity:1">
        <path
           style="fill:#1a5fb4;fill-opacity:1;stroke:none;stroke-width:0"
           d="m 2.21875,-3.6875 h 1.625 c 0.15625,0 0.40625,0 0.40625,-0.296875 0,-0.3125 -0.25,-0.3125 -0.40625,-0.3125 h -1.625 v -0.8125 c 0,-0.1875 0,-0.40625 -0.34375,-0.40625 -0.34375,0 -0.34375,0.203125 -0.34375,0.40625 v 0.8125 h -0.875 c -0.15625,0 -0.40625,0 -0.40625,0.3125 0,0.296875 0.25,0.296875 0.390625,0.296875 H 1.53125 V -1.25 c 0,0.953125 0.671875,1.3125 1.40625,1.3125 0.734375,0 1.53125,-0.4375 1.53125,-1.3125 0,-0.1875 0,-0.390625 -0.34375,-0.390625 -0.328125,0 -0.34375,0.203125 -0.34375,0.375 0,0.625 -0.578125,0.71875 -0.796875,0.71875 -0.765625,0 -0.765625,-0.515625 -0.765625,-0.765625 z m 0,0"
           id="id-f25a513b-fc9a-4a49-8d6c-e0f05bb32c8a" />
      </g>
      <g
         transform="translate(246.176,134.765)"
         id="g1250"
         style="fill:#1a5fb4;fill-opacity:1">
        <path
           style="fill:#1a5fb4;fill-opacity:1;stroke:none;stroke-width:0"
           d="m 4.25,-2.921875 c 0,-1 -0.5,-1.4375 -1.296875,-1.4375 -0.65625,0 -1.109375,0.34375 -1.296875,0.53125 V -5.6875 c 0,-0.296875 -0.0625,-0.40625 -0.40625,-0.40625 H 0.53125 c -0.15625,0 -0.40625,0 -0.40625,0.3125 0,0.296875 0.25,0.296875 0.390625,0.296875 H 0.96875 v 4.875 h -0.4375 c -0.15625,0 -0.40625,0 -0.40625,0.3125 C 0.125,0 0.375,0 0.515625,0 h 1.59375 C 2.25,0 2.5,0 2.5,-0.296875 c 0,-0.3125 -0.25,-0.3125 -0.40625,-0.3125 H 1.65625 V -2.375 c 0,-1 0.734375,-1.375 1.25,-1.375 0.515625,0 0.65625,0.28125 0.65625,0.875 v 2.265625 h -0.375 c -0.171875,0 -0.421875,0 -0.421875,0.3125 C 2.765625,0 3.046875,0 3.1875,0 h 1.515625 c 0.140625,0 0.40625,0 0.40625,-0.296875 0,-0.3125 -0.25,-0.3125 -0.421875,-0.3125 H 4.25 Z m 0,0"
           id="id-df8b53c7-8036-46b7-ba79-159af13da858" />
      </g>
      <g
         transform="translate(251.406,134.765)"
         id="g1253"
         style="fill:#1a5fb4;fill-opacity:1">
        <path
           style="fill:#1a5fb4;fill-opacity:1;stroke:none;stroke-width:0"
           d="m 4.65625,-2.15625 c 0,-1.25 -0.921875,-2.234375 -2.046875,-2.234375 -1.109375,0 -2.046875,0.984375 -2.046875,2.234375 0,1.265625 0.953125,2.21875 2.046875,2.21875 1.09375,0 2.046875,-0.953125 2.046875,-2.21875 z M 2.609375,-0.546875 C 1.875,-0.546875 1.25,-1.296875 1.25,-2.21875 c 0,-0.90625 0.65625,-1.5625 1.359375,-1.5625 0.71875,0 1.359375,0.65625 1.359375,1.5625 0,0.921875 -0.625,1.671875 -1.359375,1.671875 z m 0,0"
           id="id-fb8b4e03-e157-4ae5-9b2e-e56d61e48a43" />
      </g>
      <g
         transform="translate(256.637,134.765)"
         id="g1256"
         style="fill:#1a5fb4;fill-opacity:1">
        <path
           style="fill:#1a5fb4;fill-opacity:1;stroke:none;stroke-width:0"
           d="m 3.5625,-0.5 c 0,0.359375 0,0.5 0.40625,0.5 H 4.6875 c 0.171875,0 0.421875,0 0.421875,-0.3125 0,-0.296875 -0.265625,-0.296875 -0.40625,-0.296875 H 4.25 V -5.6875 c 0,-0.296875 -0.046875,-0.40625 -0.390625,-0.40625 H 3.125 c -0.15625,0 -0.40625,0 -0.40625,0.3125 0,0.296875 0.265625,0.296875 0.40625,0.296875 H 3.5625 V -3.90625 C 3.234375,-4.203125 2.828125,-4.359375 2.40625,-4.359375 c -1.09375,0 -2.046875,0.953125 -2.046875,2.21875 0,1.234375 0.890625,2.203125 1.953125,2.203125 0.5625,0 0.984375,-0.265625 1.25,-0.5625 z m 0,-2.140625 V -1.9375 c 0,0.5625 -0.4375,1.390625 -1.203125,1.390625 -0.71875,0 -1.3125,-0.703125 -1.3125,-1.59375 C 1.046875,-3.09375 1.75,-3.75 2.4375,-3.75 c 0.640625,0 1.125,0.5625 1.125,1.109375 z m 0,0"
           id="id-bb4a1d91-28d9-41f9-bd37-7e21c9ca4012" />
      </g>
      <g
         transform="translate(261.867,134.765)"
         id="g1259"
         style="fill:#1a5fb4;fill-opacity:1">
        <path
           style="fill:#1a5fb4;fill-opacity:1;stroke:none;stroke-width:0"
           d="M 2.96875,-2.546875 C 2.734375,-2.578125 2.546875,-2.609375 2.296875,-2.65625 2,-2.703125 1.328125,-2.828125 1.328125,-3.203125 c 0,-0.265625 0.3125,-0.578125 1.265625,-0.578125 0.828125,0 0.96875,0.296875 1,0.5625 0,0.171875 0.03125,0.34375 0.328125,0.34375 0.359375,0 0.359375,-0.21875 0.359375,-0.421875 v -0.6875 c 0,-0.15625 0,-0.40625 -0.296875,-0.40625 -0.25,0 -0.28125,0.140625 -0.3125,0.21875 -0.4375,-0.21875 -0.875,-0.21875 -1.0625,-0.21875 -1.65625,0 -1.890625,0.828125 -1.890625,1.1875 0,0.90625 1.046875,1.078125 1.96875,1.21875 0.484375,0.078125 1.28125,0.203125 1.28125,0.734375 0,0.375 -0.375,0.703125 -1.28125,0.703125 -0.46875,0 -1.015625,-0.109375 -1.265625,-0.890625 -0.0625,-0.171875 -0.09375,-0.28125 -0.359375,-0.28125 -0.34375,0 -0.34375,0.203125 -0.34375,0.40625 v 0.96875 c 0,0.15625 0,0.40625 0.296875,0.40625 0.09375,0 0.25,-0.015625 0.375,-0.375 0.484375,0.359375 1.015625,0.375 1.296875,0.375 1.5625,0 1.890625,-0.828125 1.890625,-1.3125 0,-1.03125 -1.28125,-1.25 -1.609375,-1.296875 z m 0,0"
           id="id-2fbe376a-6936-47cf-b13a-ee49dec82655" />
      </g>
    </g>
    <g
       style="fill:#1a5fb4;fill-opacity:1"
       id="id-e1ed7db1-b8b7-4206-9a2c-9834b0cf112a"
       transform="matrix(0.49661767,0,0,0.49661767,-41.233327,7.8627813)">
      <g
         transform="translate(272.328,134.765)"
         id="g1263"
         style="fill:#1a5fb4">
        <path
           style="fill:#1a5fb4;stroke:none;stroke-width:0"
           d="m 1.65625,-2.625 c 0,-0.59375 0.578125,-1.125 1.203125,-1.125 0.734375,0 1.3125,0.734375 1.3125,1.59375 0,0.953125 -0.6875,1.609375 -1.390625,1.609375 -0.78125,0 -1.125,-0.875 -1.125,-1.359375 z m 0,2.171875 C 2.0625,-0.03125 2.5,0.0625 2.8125,0.0625 c 1.078125,0 2.046875,-0.953125 2.046875,-2.21875 0,-1.21875 -0.875,-2.203125 -1.9375,-2.203125 C 2.4375,-4.359375 2,-4.171875 1.65625,-3.875 1.65625,-4.15625 1.640625,-4.296875 1.25,-4.296875 H 0.53125 c -0.15625,0 -0.40625,0 -0.40625,0.3125 0,0.296875 0.25,0.296875 0.390625,0.296875 H 0.96875 v 5.296875 h -0.4375 c -0.15625,0 -0.40625,0 -0.40625,0.296875 0,0.3125 0.25,0.3125 0.390625,0.3125 h 1.59375 C 2.25,2.21875 2.5,2.21875 2.5,1.90625 2.5,1.609375 2.25,1.609375 2.09375,1.609375 h -0.4375 z m 0,0"
           id="id-5fc3050d-022f-402e-851b-768ef21d8f78" />
      </g>
      <g
         transform="translate(277.558,134.765)"
         id="g1266"
         style="fill:#1a5fb4">
        <path
           style="fill:#1a5fb4;stroke:none;stroke-width:0"
           d="M 2.21875,-1.859375 C 2.21875,-2.796875 2.796875,-3.75 4,-3.75 c 0.015625,0.234375 0.1875,0.4375 0.4375,0.4375 0.21875,0 0.421875,-0.15625 0.421875,-0.421875 0,-0.203125 -0.125,-0.625 -0.953125,-0.625 -0.5,0 -1.140625,0.1875 -1.6875,0.8125 v -0.34375 c 0,-0.3125 -0.0625,-0.40625 -0.40625,-0.40625 H 0.71875 c -0.15625,0 -0.40625,0 -0.40625,0.296875 0,0.3125 0.25,0.3125 0.40625,0.3125 h 0.8125 v 3.078125 h -0.8125 c -0.15625,0 -0.40625,0 -0.40625,0.296875 C 0.3125,0 0.5625,0 0.71875,0 H 3.3125 c 0.15625,0 0.421875,0 0.421875,-0.296875 0,-0.3125 -0.265625,-0.3125 -0.421875,-0.3125 H 2.21875 Z m 0,0"
           id="id-c83ec11b-a6ba-460e-854a-9933cc985802" />
      </g>
      <g
         transform="translate(282.789,134.765)"
         id="g1269"
         style="fill:#1a5fb4">
        <path
           style="fill:#1a5fb4;stroke:none;stroke-width:0"
           d="m 4.65625,-2.15625 c 0,-1.25 -0.921875,-2.234375 -2.046875,-2.234375 -1.109375,0 -2.046875,0.984375 -2.046875,2.234375 0,1.265625 0.953125,2.21875 2.046875,2.21875 1.09375,0 2.046875,-0.953125 2.046875,-2.21875 z M 2.609375,-0.546875 C 1.875,-0.546875 1.25,-1.296875 1.25,-2.21875 c 0,-0.90625 0.65625,-1.5625 1.359375,-1.5625 0.71875,0 1.359375,0.65625 1.359375,1.5625 0,0.921875 -0.625,1.671875 -1.359375,1.671875 z m 0,0"
           id="id-fbad9177-19ab-4cf7-bc05-ecd950ac5e1b" />
      </g>
      <g
         transform="translate(288.019,134.765)"
         id="g1272"
         style="fill:#1a5fb4">
        <path
           style="fill:#1a5fb4;stroke:none;stroke-width:0"
           d="m 1.65625,-2.625 c 0,-0.59375 0.578125,-1.125 1.203125,-1.125 0.734375,0 1.3125,0.734375 1.3125,1.59375 0,0.953125 -0.6875,1.609375 -1.390625,1.609375 -0.78125,0 -1.125,-0.875 -1.125,-1.359375 z m 0,2.171875 C 2.0625,-0.03125 2.5,0.0625 2.8125,0.0625 c 1.078125,0 2.046875,-0.953125 2.046875,-2.21875 0,-1.21875 -0.875,-2.203125 -1.9375,-2.203125 C 2.4375,-4.359375 2,-4.171875 1.65625,-3.875 1.65625,-4.15625 1.640625,-4.296875 1.25,-4.296875 H 0.53125 c -0.15625,0 -0.40625,0 -0.40625,0.3125 0,0.296875 0.25,0.296875 0.390625,0.296875 H 0.96875 v 5.296875 h -0.4375 c -0.15625,0 -0.40625,0 -0.40625,0.296875 0,0.3125 0.25,0.3125 0.390625,0.3125 h 1.59375 C 2.25,2.21875 2.5,2.21875 2.5,1.90625 2.5,1.609375 2.25,1.609375 2.09375,1.609375 h -0.4375 z m 0,0"
           id="id-069f542b-1ff0-4c44-8c4f-351bd4a7fa9c" />
      </g>
      <g
         transform="translate(293.249,134.765)"
         id="g1275"
         style="fill:#1a5fb4">
        <path
           style="fill:#1a5fb4;stroke:none;stroke-width:0"
           d="m 4.234375,-1.90625 c 0.203125,0 0.390625,0 0.390625,-0.359375 0,-1.140625 -0.640625,-2.125 -1.9375,-2.125 -1.1875,0 -2.140625,1 -2.140625,2.234375 0,1.203125 1.015625,2.21875 2.296875,2.21875 1.3125,0 1.78125,-0.90625 1.78125,-1.15625 0,-0.265625 -0.28125,-0.265625 -0.34375,-0.265625 -0.1875,0 -0.265625,0.03125 -0.328125,0.21875 -0.21875,0.5 -0.765625,0.59375 -1.046875,0.59375 -0.75,0 -1.484375,-0.5 -1.65625,-1.359375 z M 1.265625,-2.5 C 1.40625,-3.234375 2,-3.78125 2.6875,-3.78125 c 0.515625,0 1.140625,0.25 1.234375,1.28125 z m 0,0"
           id="id-c2cbe6bc-1052-4e7c-bfd9-45f12ee5fc9f" />
      </g>
      <g
         transform="translate(298.48,134.765)"
         id="g1278"
         style="fill:#1a5fb4">
        <path
           style="fill:#1a5fb4;stroke:none;stroke-width:0"
           d="M 2.21875,-1.859375 C 2.21875,-2.796875 2.796875,-3.75 4,-3.75 c 0.015625,0.234375 0.1875,0.4375 0.4375,0.4375 0.21875,0 0.421875,-0.15625 0.421875,-0.421875 0,-0.203125 -0.125,-0.625 -0.953125,-0.625 -0.5,0 -1.140625,0.1875 -1.6875,0.8125 v -0.34375 c 0,-0.3125 -0.0625,-0.40625 -0.40625,-0.40625 H 0.71875 c -0.15625,0 -0.40625,0 -0.40625,0.296875 0,0.3125 0.25,0.3125 0.40625,0.3125 h 0.8125 v 3.078125 h -0.8125 c -0.15625,0 -0.40625,0 -0.40625,0.296875 C 0.3125,0 0.5625,0 0.71875,0 H 3.3125 c 0.15625,0 0.421875,0 0.421875,-0.296875 0,-0.3125 -0.265625,-0.3125 -0.421875,-0.3125 H 2.21875 Z m 0,0"
           id="id-55982858-e4d0-459a-aebb-7027bf73c4c5" />
      </g>
      <g
         transform="translate(303.71,134.765)"
         id="g1281"
         style="fill:#1a5fb4">
        <path
           style="fill:#1a5fb4;stroke:none;stroke-width:0"
           d="m 2.21875,-3.6875 h 1.625 c 0.15625,0 0.40625,0 0.40625,-0.296875 0,-0.3125 -0.25,-0.3125 -0.40625,-0.3125 h -1.625 v -0.8125 c 0,-0.1875 0,-0.40625 -0.34375,-0.40625 -0.34375,0 -0.34375,0.203125 -0.34375,0.40625 v 0.8125 h -0.875 c -0.15625,0 -0.40625,0 -0.40625,0.3125 0,0.296875 0.25,0.296875 0.390625,0.296875 H 1.53125 V -1.25 c 0,0.953125 0.671875,1.3125 1.40625,1.3125 0.734375,0 1.53125,-0.4375 1.53125,-1.3125 0,-0.1875 0,-0.390625 -0.34375,-0.390625 -0.328125,0 -0.34375,0.203125 -0.34375,0.375 0,0.625 -0.578125,0.71875 -0.796875,0.71875 -0.765625,0 -0.765625,-0.515625 -0.765625,-0.765625 z m 0,0"
           id="id-056c543d-56bb-443d-8d35-e9d1c49d1344" />
      </g>
      <g
         transform="translate(308.94,134.765)"
         id="g1284"
         style="fill:#1a5fb4">
        <path
           style="fill:#1a5fb4;stroke:none;stroke-width:0"
           d="m 3.078125,-3.890625 c 0,-0.3125 -0.0625,-0.40625 -0.390625,-0.40625 H 1.265625 c -0.15625,0 -0.40625,0 -0.40625,0.296875 0,0.3125 0.25,0.3125 0.40625,0.3125 h 1.125 v 3.078125 H 1.1875 c -0.15625,0 -0.40625,0 -0.40625,0.3125 C 0.78125,0 1.03125,0 1.1875,0 H 4.125 c 0.15625,0 0.40625,0 0.40625,-0.296875 0,-0.3125 -0.25,-0.3125 -0.40625,-0.3125 H 3.078125 Z m 0,-1.71875 c 0,-0.265625 -0.21875,-0.484375 -0.5,-0.484375 -0.28125,0 -0.5,0.21875 -0.5,0.484375 0,0.28125 0.21875,0.5 0.5,0.5 0.28125,0 0.5,-0.21875 0.5,-0.5 z m 0,0"
           id="id-383ed636-8504-46fa-b96c-62dd51a1c269" />
      </g>
      <g
         transform="translate(314.171,134.765)"
         id="g1287"
         style="fill:#1a5fb4">
        <path
           style="fill:#1a5fb4;stroke:none;stroke-width:0"
           d="m 4.234375,-1.90625 c 0.203125,0 0.390625,0 0.390625,-0.359375 0,-1.140625 -0.640625,-2.125 -1.9375,-2.125 -1.1875,0 -2.140625,1 -2.140625,2.234375 0,1.203125 1.015625,2.21875 2.296875,2.21875 1.3125,0 1.78125,-0.90625 1.78125,-1.15625 0,-0.265625 -0.28125,-0.265625 -0.34375,-0.265625 -0.1875,0 -0.265625,0.03125 -0.328125,0.21875 -0.21875,0.5 -0.765625,0.59375 -1.046875,0.59375 -0.75,0 -1.484375,-0.5 -1.65625,-1.359375 z M 1.265625,-2.5 C 1.40625,-3.234375 2,-3.78125 2.6875,-3.78125 c 0.515625,0 1.140625,0.25 1.234375,1.28125 z m 0,0"
           id="id-a98b3248-310c-42c5-b642-396ec7f10b36" />
      </g>
      <g
         transform="translate(319.401,134.765)"
         id="g1290"
         style="fill:#1a5fb4">
        <path
           style="fill:#1a5fb4;stroke:none;stroke-width:0"
           d="M 2.96875,-2.546875 C 2.734375,-2.578125 2.546875,-2.609375 2.296875,-2.65625 2,-2.703125 1.328125,-2.828125 1.328125,-3.203125 c 0,-0.265625 0.3125,-0.578125 1.265625,-0.578125 0.828125,0 0.96875,0.296875 1,0.5625 0,0.171875 0.03125,0.34375 0.328125,0.34375 0.359375,0 0.359375,-0.21875 0.359375,-0.421875 v -0.6875 c 0,-0.15625 0,-0.40625 -0.296875,-0.40625 -0.25,0 -0.28125,0.140625 -0.3125,0.21875 -0.4375,-0.21875 -0.875,-0.21875 -1.0625,-0.21875 -1.65625,0 -1.890625,0.828125 -1.890625,1.1875 0,0.90625 1.046875,1.078125 1.96875,1.21875 0.484375,0.078125 1.28125,0.203125 1.28125,0.734375 0,0.375 -0.375,0.703125 -1.28125,0.703125 -0.46875,0 -1.015625,-0.109375 -1.265625,-0.890625 -0.0625,-0.171875 -0.09375,-0.28125 -0.359375,-0.28125 -0.34375,0 -0.34375,0.203125 -0.34375,0.40625 v 0.96875 c 0,0.15625 0,0.40625 0.296875,0.40625 0.09375,0 0.25,-0.015625 0.375,-0.375 0.484375,0.359375 1.015625,0.375 1.296875,0.375 1.5625,0 1.890625,-0.828125 1.890625,-1.3125 0,-1.03125 -1.28125,-1.25 -1.609375,-1.296875 z m 0,0"
           id="id-5d3968b0-fe6b-42b3-879e-6cbbae45f9e8" />
      </g>
    </g>
    <g
       style="fill:#1a5fb4;fill-opacity:1"
       id="id-96c023fc-9688-4942-8eaf-091e48b90006"
       transform="matrix(0.49661767,0,0,0.49661767,-95.80897,40.07383)">
      <g
         transform="translate(327.959,134.765)"
         id="g1294"
         style="fill:#1a5fb4;fill-opacity:1">
        <path
           style="fill:#1a5fb4;fill-opacity:1;stroke:none;stroke-width:0"
           d="m 2.515625,-3.6875 h 1.21875 c 0.15625,0 0.40625,0 0.40625,-0.296875 0,-0.3125 -0.25,-0.3125 -0.40625,-0.3125 h -1.21875 v -0.46875 c 0,-0.78125 0.671875,-0.78125 0.96875,-0.78125 0,0.046875 0.09375,0.4375 0.4375,0.4375 0.203125,0 0.4375,-0.171875 0.4375,-0.4375 0,-0.609375 -0.796875,-0.609375 -0.953125,-0.609375 -0.796875,0 -1.578125,0.46875 -1.578125,1.328125 v 0.53125 H 0.84375 c -0.171875,0 -0.421875,0 -0.421875,0.3125 0,0.296875 0.25,0.296875 0.40625,0.296875 h 1 v 3.078125 h -1 c -0.15625,0 -0.40625,0 -0.40625,0.296875 C 0.421875,0 0.671875,0 0.828125,0 H 3.53125 c 0.140625,0 0.40625,0 0.40625,-0.296875 0,-0.3125 -0.265625,-0.3125 -0.40625,-0.3125 H 2.515625 Z m 0,0"
           id="id-f4932fb4-a790-46e4-a512-579b1c72aca0" />
      </g>
      <g
         transform="translate(333.189,134.765)"
         id="g1297"
         style="fill:#1a5fb4;fill-opacity:1">
        <path
           style="fill:#1a5fb4;fill-opacity:1;stroke:none;stroke-width:0"
           d="M 3.5625,-0.3125 C 3.578125,0 3.78125,0 3.96875,0 H 4.6875 c 0.171875,0 0.421875,0 0.421875,-0.3125 0,-0.296875 -0.265625,-0.296875 -0.40625,-0.296875 H 4.25 v -3.28125 c 0,-0.3125 -0.046875,-0.40625 -0.390625,-0.40625 H 3.125 c -0.15625,0 -0.40625,0 -0.40625,0.3125 0,0.296875 0.265625,0.296875 0.40625,0.296875 h 0.4375 v 2.125 c 0,0.890625 -0.796875,1.015625 -1.125,1.015625 -0.78125,0 -0.78125,-0.328125 -0.78125,-0.65625 v -2.6875 c 0,-0.3125 -0.0625,-0.40625 -0.40625,-0.40625 H 0.53125 c -0.15625,0 -0.40625,0 -0.40625,0.3125 0,0.296875 0.25,0.296875 0.390625,0.296875 H 0.96875 v 2.546875 c 0,0.96875 0.6875,1.203125 1.40625,1.203125 0.421875,0 0.828125,-0.109375 1.1875,-0.375 z m 0,0"
           id="id-cca51ca3-80f4-46b4-846a-e1dda6ab2b04" />
      </g>
      <g
         transform="translate(338.42,134.765)"
         id="g1300"
         style="fill:#1a5fb4;fill-opacity:1">
        <path
           style="fill:#1a5fb4;fill-opacity:1;stroke:none;stroke-width:0"
           d="m 1.65625,-3.828125 c 0,-0.3125 0,-0.46875 -0.40625,-0.46875 H 0.53125 c -0.15625,0 -0.40625,0 -0.40625,0.3125 0,0.296875 0.25,0.296875 0.390625,0.296875 H 0.96875 v 3.078125 h -0.4375 c -0.15625,0 -0.40625,0 -0.40625,0.3125 C 0.125,0 0.375,0 0.515625,0 h 1.59375 C 2.25,0 2.5,0 2.5,-0.296875 c 0,-0.3125 -0.25,-0.3125 -0.40625,-0.3125 H 1.65625 V -2.375 c 0,-1 0.734375,-1.375 1.25,-1.375 0.515625,0 0.65625,0.28125 0.65625,0.875 v 2.265625 h -0.375 c -0.171875,0 -0.421875,0 -0.421875,0.3125 C 2.765625,0 3.046875,0 3.1875,0 h 1.515625 c 0.140625,0 0.40625,0 0.40625,-0.296875 0,-0.3125 -0.25,-0.3125 -0.421875,-0.3125 H 4.25 v -2.3125 c 0,-1 -0.5,-1.4375 -1.296875,-1.4375 -0.65625,0 -1.109375,0.34375 -1.296875,0.53125 z m 0,0"
           id="id-2c8aaf7d-3a99-46a9-ac0b-ffcda1f78420" />
      </g>
      <g
         transform="translate(343.65,134.765)"
         id="g1303"
         style="fill:#1a5fb4;fill-opacity:1">
        <path
           style="fill:#1a5fb4;fill-opacity:1;stroke:none;stroke-width:0"
           d="m 4.640625,-1.09375 c 0,-0.265625 -0.28125,-0.265625 -0.34375,-0.265625 -0.15625,0 -0.265625,0.015625 -0.328125,0.21875 -0.0625,0.125 -0.25,0.59375 -0.984375,0.59375 -0.84375,0 -1.5625,-0.703125 -1.5625,-1.609375 0,-0.46875 0.265625,-1.625 1.625,-1.625 0.203125,0 0.59375,0 0.59375,0.09375 0.015625,0.34375 0.203125,0.484375 0.4375,0.484375 0.234375,0 0.453125,-0.171875 0.453125,-0.453125 0,-0.734375 -1.046875,-0.734375 -1.484375,-0.734375 -1.71875,0 -2.3125,1.359375 -2.3125,2.234375 0,1.203125 0.9375,2.21875 2.1875,2.21875 1.390625,0 1.71875,-0.984375 1.71875,-1.15625 z m 0,0"
           id="id-4f365c34-932d-424a-ab11-ccab5fceba11" />
      </g>
      <g
         transform="translate(348.881,134.765)"
         id="g1306"
         style="fill:#1a5fb4;fill-opacity:1">
        <path
           style="fill:#1a5fb4;fill-opacity:1;stroke:none;stroke-width:0"
           d="m 2.21875,-3.6875 h 1.625 c 0.15625,0 0.40625,0 0.40625,-0.296875 0,-0.3125 -0.25,-0.3125 -0.40625,-0.3125 h -1.625 v -0.8125 c 0,-0.1875 0,-0.40625 -0.34375,-0.40625 -0.34375,0 -0.34375,0.203125 -0.34375,0.40625 v 0.8125 h -0.875 c -0.15625,0 -0.40625,0 -0.40625,0.3125 0,0.296875 0.25,0.296875 0.390625,0.296875 H 1.53125 V -1.25 c 0,0.953125 0.671875,1.3125 1.40625,1.3125 0.734375,0 1.53125,-0.4375 1.53125,-1.3125 0,-0.1875 0,-0.390625 -0.34375,-0.390625 -0.328125,0 -0.34375,0.203125 -0.34375,0.375 0,0.625 -0.578125,0.71875 -0.796875,0.71875 -0.765625,0 -0.765625,-0.515625 -0.765625,-0.765625 z m 0,0"
           id="id-d456ce6f-ca5c-4175-a39d-371b2d01f6fe" />
      </g>
      <g
         transform="translate(354.111,134.765)"
         id="g1309"
         style="fill:#1a5fb4;fill-opacity:1">
        <path
           style="fill:#1a5fb4;fill-opacity:1;stroke:none;stroke-width:0"
           d="m 3.078125,-3.890625 c 0,-0.3125 -0.0625,-0.40625 -0.390625,-0.40625 H 1.265625 c -0.15625,0 -0.40625,0 -0.40625,0.296875 0,0.3125 0.25,0.3125 0.40625,0.3125 h 1.125 v 3.078125 H 1.1875 c -0.15625,0 -0.40625,0 -0.40625,0.3125 C 0.78125,0 1.03125,0 1.1875,0 H 4.125 c 0.15625,0 0.40625,0 0.40625,-0.296875 0,-0.3125 -0.25,-0.3125 -0.40625,-0.3125 H 3.078125 Z m 0,-1.71875 c 0,-0.265625 -0.21875,-0.484375 -0.5,-0.484375 -0.28125,0 -0.5,0.21875 -0.5,0.484375 0,0.28125 0.21875,0.5 0.5,0.5 0.28125,0 0.5,-0.21875 0.5,-0.5 z m 0,0"
           id="id-ccb4f978-0e6f-473b-b460-d74a0e186c1a" />
      </g>
      <g
         transform="translate(359.341,134.765)"
         id="g1312"
         style="fill:#1a5fb4;fill-opacity:1">
        <path
           style="fill:#1a5fb4;fill-opacity:1;stroke:none;stroke-width:0"
           d="m 4.65625,-2.15625 c 0,-1.25 -0.921875,-2.234375 -2.046875,-2.234375 -1.109375,0 -2.046875,0.984375 -2.046875,2.234375 0,1.265625 0.953125,2.21875 2.046875,2.21875 1.09375,0 2.046875,-0.953125 2.046875,-2.21875 z M 2.609375,-0.546875 C 1.875,-0.546875 1.25,-1.296875 1.25,-2.21875 c 0,-0.90625 0.65625,-1.5625 1.359375,-1.5625 0.71875,0 1.359375,0.65625 1.359375,1.5625 0,0.921875 -0.625,1.671875 -1.359375,1.671875 z m 0,0"
           id="id-b88ff355-1300-4252-82da-4acb4759d998" />
      </g>
      <g
         transform="translate(364.572,134.765)"
         id="g1315"
         style="fill:#1a5fb4;fill-opacity:1">
        <path
           style="fill:#1a5fb4;fill-opacity:1;stroke:none;stroke-width:0"
           d="m 1.65625,-3.828125 c 0,-0.3125 0,-0.46875 -0.40625,-0.46875 H 0.53125 c -0.15625,0 -0.40625,0 -0.40625,0.3125 0,0.296875 0.25,0.296875 0.390625,0.296875 H 0.96875 v 3.078125 h -0.4375 c -0.15625,0 -0.40625,0 -0.40625,0.3125 C 0.125,0 0.375,0 0.515625,0 h 1.59375 C 2.25,0 2.5,0 2.5,-0.296875 c 0,-0.3125 -0.25,-0.3125 -0.40625,-0.3125 H 1.65625 V -2.375 c 0,-1 0.734375,-1.375 1.25,-1.375 0.515625,0 0.65625,0.28125 0.65625,0.875 v 2.265625 h -0.375 c -0.171875,0 -0.421875,0 -0.421875,0.3125 C 2.765625,0 3.046875,0 3.1875,0 h 1.515625 c 0.140625,0 0.40625,0 0.40625,-0.296875 0,-0.3125 -0.25,-0.3125 -0.421875,-0.3125 H 4.25 v -2.3125 c 0,-1 -0.5,-1.4375 -1.296875,-1.4375 -0.65625,0 -1.109375,0.34375 -1.296875,0.53125 z m 0,0"
           id="id-72dba34b-9d9a-4e14-a3d3-899d5153b8d8" />
      </g>
      <g
         transform="translate(369.802,134.765)"
         id="g1318"
         style="fill:#1a5fb4;fill-opacity:1">
        <path
           style="fill:#1a5fb4;fill-opacity:1;stroke:none;stroke-width:0"
           d="M 2.96875,-2.546875 C 2.734375,-2.578125 2.546875,-2.609375 2.296875,-2.65625 2,-2.703125 1.328125,-2.828125 1.328125,-3.203125 c 0,-0.265625 0.3125,-0.578125 1.265625,-0.578125 0.828125,0 0.96875,0.296875 1,0.5625 0,0.171875 0.03125,0.34375 0.328125,0.34375 0.359375,0 0.359375,-0.21875 0.359375,-0.421875 v -0.6875 c 0,-0.15625 0,-0.40625 -0.296875,-0.40625 -0.25,0 -0.28125,0.140625 -0.3125,0.21875 -0.4375,-0.21875 -0.875,-0.21875 -1.0625,-0.21875 -1.65625,0 -1.890625,0.828125 -1.890625,1.1875 0,0.90625 1.046875,1.078125 1.96875,1.21875 0.484375,0.078125 1.28125,0.203125 1.28125,0.734375 0,0.375 -0.375,0.703125 -1.28125,0.703125 -0.46875,0 -1.015625,-0.109375 -1.265625,-0.890625 -0.0625,-0.171875 -0.09375,-0.28125 -0.359375,-0.28125 -0.34375,0 -0.34375,0.203125 -0.34375,0.40625 v 0.96875 c 0,0.15625 0,0.40625 0.296875,0.40625 0.09375,0 0.25,-0.015625 0.375,-0.375 0.484375,0.359375 1.015625,0.375 1.296875,0.375 1.5625,0 1.890625,-0.828125 1.890625,-1.3125 0,-1.03125 -1.28125,-1.25 -1.609375,-1.296875 z m 0,0"
           id="id-9812c569-6e04-44ef-8912-13ce67dfd5c0" />
      </g>
    </g>
    <g
       style="fill:#1a5fb4;fill-opacity:1"
       id="id-9ba8b592-b953-4010-9d18-0edbfa747861"
       transform="matrix(0.49661767,0,0,0.49661767,-93.368084,40.042791)">
      <g
         transform="translate(380.263,134.765)"
         id="g1322"
         style="fill:#1a5fb4">
        <path
           style="fill:#1a5fb4;stroke:none;stroke-width:0"
           d="m 4.28125,-3.6875 h 0.296875 c 0.15625,0 0.40625,0 0.40625,-0.296875 0,-0.3125 -0.234375,-0.3125 -0.40625,-0.3125 h -1.15625 c -0.15625,0 -0.40625,0 -0.40625,0.296875 0,0.3125 0.25,0.3125 0.40625,0.3125 h 0.28125 L 2.609375,-0.484375 1.53125,-3.6875 h 0.265625 c 0.15625,0 0.40625,0 0.40625,-0.296875 0,-0.3125 -0.234375,-0.3125 -0.40625,-0.3125 h -1.15625 c -0.15625,0 -0.40625,0 -0.40625,0.3125 0,0.296875 0.25,0.296875 0.40625,0.296875 H 0.9375 l 1.140625,3.390625 c 0.125,0.34375 0.328125,0.34375 0.53125,0.34375 0.1875,0 0.421875,0 0.53125,-0.34375 z m 0,0"
           id="id-252d6693-daeb-4831-ae6a-74bf46199a1c" />
      </g>
      <g
         transform="translate(385.493,134.765)"
         id="g1325"
         style="fill:#1a5fb4">
        <path
           style="fill:#1a5fb4;stroke:none;stroke-width:0"
           d="M 3.65625,-0.3125 C 3.875,-0.015625 4.34375,0 4.71875,0 c 0.28125,0 0.5,0 0.5,-0.3125 0,-0.296875 -0.25,-0.296875 -0.390625,-0.296875 -0.421875,0 -0.515625,-0.046875 -0.59375,-0.078125 v -2.15625 c 0,-0.703125 -0.546875,-1.546875 -1.984375,-1.546875 -0.421875,0 -1.4375,0 -1.4375,0.734375 0,0.296875 0.203125,0.453125 0.4375,0.453125 0.15625,0 0.4375,-0.09375 0.4375,-0.453125 0,-0.078125 0.015625,-0.09375 0.21875,-0.109375 0.140625,-0.015625 0.265625,-0.015625 0.359375,-0.015625 0.75,0 1.265625,0.3125 1.265625,1.015625 -1.75,0.03125 -2.984375,0.53125 -2.984375,1.484375 0,0.6875 0.625,1.34375 1.640625,1.34375 0.375,0 1,-0.078125 1.46875,-0.375 z m -0.125,-1.859375 v 0.84375 c 0,0.21875 0,0.4375 -0.375,0.609375 -0.359375,0.171875 -0.8125,0.171875 -0.890625,0.171875 -0.625,0 -1.03125,-0.34375 -1.03125,-0.734375 0,-0.484375 0.859375,-0.859375 2.296875,-0.890625 z m 0,0"
           id="id-9b803a13-d04f-4938-8321-320bc6bbd0b3" />
      </g>
      <g
         transform="translate(390.723,134.765)"
         id="g1328"
         style="fill:#1a5fb4">
        <path
           style="fill:#1a5fb4;stroke:none;stroke-width:0"
           d="M 2.21875,-1.859375 C 2.21875,-2.796875 2.796875,-3.75 4,-3.75 c 0.015625,0.234375 0.1875,0.4375 0.4375,0.4375 0.21875,0 0.421875,-0.15625 0.421875,-0.421875 0,-0.203125 -0.125,-0.625 -0.953125,-0.625 -0.5,0 -1.140625,0.1875 -1.6875,0.8125 v -0.34375 c 0,-0.3125 -0.0625,-0.40625 -0.40625,-0.40625 H 0.71875 c -0.15625,0 -0.40625,0 -0.40625,0.296875 0,0.3125 0.25,0.3125 0.40625,0.3125 h 0.8125 v 3.078125 h -0.8125 c -0.15625,0 -0.40625,0 -0.40625,0.296875 C 0.3125,0 0.5625,0 0.71875,0 H 3.3125 c 0.15625,0 0.421875,0 0.421875,-0.296875 0,-0.3125 -0.265625,-0.3125 -0.421875,-0.3125 H 2.21875 Z m 0,0"
           id="id-7bd1f058-65ae-4488-a4c7-26f7c014db64" />
      </g>
      <g
         transform="translate(395.954,134.765)"
         id="g1331"
         style="fill:#1a5fb4">
        <path
           style="fill:#1a5fb4;stroke:none;stroke-width:0"
           d="m 3.078125,-3.890625 c 0,-0.3125 -0.0625,-0.40625 -0.390625,-0.40625 H 1.265625 c -0.15625,0 -0.40625,0 -0.40625,0.296875 0,0.3125 0.25,0.3125 0.40625,0.3125 h 1.125 v 3.078125 H 1.1875 c -0.15625,0 -0.40625,0 -0.40625,0.3125 C 0.78125,0 1.03125,0 1.1875,0 H 4.125 c 0.15625,0 0.40625,0 0.40625,-0.296875 0,-0.3125 -0.25,-0.3125 -0.40625,-0.3125 H 3.078125 Z m 0,-1.71875 c 0,-0.265625 -0.21875,-0.484375 -0.5,-0.484375 -0.28125,0 -0.5,0.21875 -0.5,0.484375 0,0.28125 0.21875,0.5 0.5,0.5 0.28125,0 0.5,-0.21875 0.5,-0.5 z m 0,0"
           id="id-4b148f57-c2c2-407c-af88-3e9288d2bb06" />
      </g>
      <g
         transform="translate(401.184,134.765)"
         id="g1334"
         style="fill:#1a5fb4">
        <path
           style="fill:#1a5fb4;stroke:none;stroke-width:0"
           d="M 3.65625,-0.3125 C 3.875,-0.015625 4.34375,0 4.71875,0 c 0.28125,0 0.5,0 0.5,-0.3125 0,-0.296875 -0.25,-0.296875 -0.390625,-0.296875 -0.421875,0 -0.515625,-0.046875 -0.59375,-0.078125 v -2.15625 c 0,-0.703125 -0.546875,-1.546875 -1.984375,-1.546875 -0.421875,0 -1.4375,0 -1.4375,0.734375 0,0.296875 0.203125,0.453125 0.4375,0.453125 0.15625,0 0.4375,-0.09375 0.4375,-0.453125 0,-0.078125 0.015625,-0.09375 0.21875,-0.109375 0.140625,-0.015625 0.265625,-0.015625 0.359375,-0.015625 0.75,0 1.265625,0.3125 1.265625,1.015625 -1.75,0.03125 -2.984375,0.53125 -2.984375,1.484375 0,0.6875 0.625,1.34375 1.640625,1.34375 0.375,0 1,-0.078125 1.46875,-0.375 z m -0.125,-1.859375 v 0.84375 c 0,0.21875 0,0.4375 -0.375,0.609375 -0.359375,0.171875 -0.8125,0.171875 -0.890625,0.171875 -0.625,0 -1.03125,-0.34375 -1.03125,-0.734375 0,-0.484375 0.859375,-0.859375 2.296875,-0.890625 z m 0,0"
           id="id-af40ccbc-7e6c-43fe-8082-ca1d30ed6fba" />
      </g>
      <g
         transform="translate(406.415,134.765)"
         id="g1337"
         style="fill:#1a5fb4">
        <path
           style="fill:#1a5fb4;stroke:none;stroke-width:0"
           d="m 1.65625,-3.875 v -1.8125 c 0,-0.296875 -0.0625,-0.40625 -0.40625,-0.40625 H 0.53125 c -0.15625,0 -0.40625,0 -0.40625,0.3125 0,0.296875 0.25,0.296875 0.390625,0.296875 H 0.96875 V -0.40625 C 0.96875,-0.203125 0.96875,0 1.3125,0 1.65625,0 1.65625,-0.203125 1.65625,-0.453125 2.0625,-0.03125 2.5,0.0625 2.8125,0.0625 c 1.078125,0 2.046875,-0.953125 2.046875,-2.21875 0,-1.21875 -0.875,-2.203125 -1.9375,-2.203125 C 2.4375,-4.359375 2,-4.171875 1.65625,-3.875 Z m 0,1.96875 V -2.625 c 0,-0.59375 0.578125,-1.125 1.203125,-1.125 0.734375,0 1.3125,0.734375 1.3125,1.59375 0,0.953125 -0.6875,1.609375 -1.390625,1.609375 -0.78125,0 -1.125,-0.875 -1.125,-1.359375 z m 0,0"
           id="id-6ff39256-45fb-45c7-b9a3-c9908088f13e" />
      </g>
      <g
         transform="translate(411.645,134.765)"
         id="g1340"
         style="fill:#1a5fb4">
        <path
           style="fill:#1a5fb4;stroke:none;stroke-width:0"
           d="m 2.953125,-5.6875 c 0,-0.296875 -0.046875,-0.40625 -0.390625,-0.40625 H 0.984375 c -0.15625,0 -0.40625,0 -0.40625,0.3125 0,0.296875 0.265625,0.296875 0.40625,0.296875 h 1.28125 v 4.875 h -1.28125 c -0.15625,0 -0.40625,0 -0.40625,0.3125 C 0.578125,0 0.84375,0 0.984375,0 H 4.25 c 0.15625,0 0.40625,0 0.40625,-0.296875 0,-0.3125 -0.234375,-0.3125 -0.40625,-0.3125 H 2.953125 Z m 0,0"
           id="id-a2dc624d-1011-4c79-ad99-9dc0eada0a85" />
      </g>
      <g
         transform="translate(416.875,134.765)"
         id="g1343"
         style="fill:#1a5fb4">
        <path
           style="fill:#1a5fb4;stroke:none;stroke-width:0"
           d="m 4.234375,-1.90625 c 0.203125,0 0.390625,0 0.390625,-0.359375 0,-1.140625 -0.640625,-2.125 -1.9375,-2.125 -1.1875,0 -2.140625,1 -2.140625,2.234375 0,1.203125 1.015625,2.21875 2.296875,2.21875 1.3125,0 1.78125,-0.90625 1.78125,-1.15625 0,-0.265625 -0.28125,-0.265625 -0.34375,-0.265625 -0.1875,0 -0.265625,0.03125 -0.328125,0.21875 -0.21875,0.5 -0.765625,0.59375 -1.046875,0.59375 -0.75,0 -1.484375,-0.5 -1.65625,-1.359375 z M 1.265625,-2.5 C 1.40625,-3.234375 2,-3.78125 2.6875,-3.78125 c 0.515625,0 1.140625,0.25 1.234375,1.28125 z m 0,0"
           id="id-495b721e-184d-4de2-9717-5cf8f66eed6c" />
      </g>
      <g
         transform="translate(422.106,134.765)"
         id="g1346"
         style="fill:#1a5fb4">
        <path
           style="fill:#1a5fb4;stroke:none;stroke-width:0"
           d="M 2.96875,-2.546875 C 2.734375,-2.578125 2.546875,-2.609375 2.296875,-2.65625 2,-2.703125 1.328125,-2.828125 1.328125,-3.203125 c 0,-0.265625 0.3125,-0.578125 1.265625,-0.578125 0.828125,0 0.96875,0.296875 1,0.5625 0,0.171875 0.03125,0.34375 0.328125,0.34375 0.359375,0 0.359375,-0.21875 0.359375,-0.421875 v -0.6875 c 0,-0.15625 0,-0.40625 -0.296875,-0.40625 -0.25,0 -0.28125,0.140625 -0.3125,0.21875 -0.4375,-0.21875 -0.875,-0.21875 -1.0625,-0.21875 -1.65625,0 -1.890625,0.828125 -1.890625,1.1875 0,0.90625 1.046875,1.078125 1.96875,1.21875 0.484375,0.078125 1.28125,0.203125 1.28125,0.734375 0,0.375 -0.375,0.703125 -1.28125,0.703125 -0.46875,0 -1.015625,-0.109375 -1.265625,-0.890625 -0.0625,-0.171875 -0.09375,-0.28125 -0.359375,-0.28125 -0.34375,0 -0.34375,0.203125 -0.34375,0.40625 v 0.96875 c 0,0.15625 0,0.40625 0.296875,0.40625 0.09375,0 0.25,-0.015625 0.375,-0.375 0.484375,0.359375 1.015625,0.375 1.296875,0.375 1.5625,0 1.890625,-0.828125 1.890625,-1.3125 0,-1.03125 -1.28125,-1.25 -1.609375,-1.296875 z m 0,0"
           id="id-0dd49412-fe47-480d-bd4a-01cc81f1ebae" />
      </g>
    </g>
  </g>
</svg>
