<?xml version="1.0" encoding="UTF-8" standalone="no"?>
<!-- Created with Inkscape (http://www.inkscape.org/) -->

<svg
   width="62.947212mm"
   height="70.78054mm"
   viewBox="0 0 62.947212 70.780541"
   version="1.1"
   id="svg5"
   sodipodi:docname="euler_rotation.svg"
   inkscape:version="1.1 (c4e8f9e, 2021-05-24)"
   xmlns:inkscape="http://www.inkscape.org/namespaces/inkscape"
   xmlns:sodipodi="http://sodipodi.sourceforge.net/DTD/sodipodi-0.dtd"
   xmlns="http://www.w3.org/2000/svg"
   xmlns:svg="http://www.w3.org/2000/svg">
  <sodipodi:namedview
     id="namedview898"
     pagecolor="#ffffff"
     bordercolor="#666666"
     borderopacity="1.0"
     inkscape:pageshadow="2"
     inkscape:pageopacity="0.0"
     inkscape:pagecheckerboard="0"
     inkscape:document-units="mm"
     showgrid="false"
     inkscape:zoom="1.1091152"
     inkscape:cx="123.97269"
     inkscape:cy="126.67755"
     inkscape:window-width="1440"
     inkscape:window-height="847"
     inkscape:window-x="2127"
     inkscape:window-y="72"
     inkscape:window-maximized="0"
     inkscape:current-layer="svg5" />
  <defs
     id="defs2">
    <marker
       style="overflow:visible"
       id="TriangleOutM"
       refX="0"
       refY="0"
       orient="auto">
      <path
         transform="scale(0.4)"
         style="fill:context-stroke;fill-rule:evenodd;stroke:context-stroke;stroke-width:1pt"
         d="M 5.77,0 -2.88,5 V -5 Z"
         id="path2392" />
    </marker>
    <marker
       style="overflow:visible"
       id="Arrow2Lend"
       refX="0"
       refY="0"
       orient="auto">
      <path
         transform="matrix(-1.1,0,0,-1.1,-1.1,0)"
         d="M 8.7185878,4.0337352 -2.2072895,0.01601326 8.7185884,-4.0017078 c -1.7454984,2.3720609 -1.7354408,5.6174519 -6e-7,8.035443 z"
         style="fill:context-stroke;fill-rule:evenodd;stroke-width:0.625;stroke-linejoin:round"
         id="path2267" />
    </marker>
    <marker
       style="overflow:visible"
       id="TriangleOutL"
       refX="0"
       refY="0"
       orient="auto">
      <path
         transform="scale(0.8)"
         style="fill:context-stroke;fill-rule:evenodd;stroke:context-stroke;stroke-width:1pt"
         d="M 5.77,0 -2.88,5 V -5 Z"
         id="path2389" />
    </marker>
    <defs
       id="id-6977aa7b-2cfd-4226-83e7-4734ee8797d6">
      <g
         id="id-1e98b805-9aa8-4be5-9c57-1ae4b951da2f">
        <symbol
           overflow="visible"
           id="id-f876ba22-d669-4760-91bb-1882ef5c4d1f">
          <path
             style="stroke:none;stroke-width:0"
             d=""
             id="id-b11650c1-24b0-4022-8af6-029103fb63d1" />
        </symbol>
        <symbol
           overflow="visible"
           id="id-44995d16-a949-4e26-a711-8ef9304be311">
          <path
             style="stroke:none;stroke-width:0"
             d="M 3.328125,-3.015625 C 3.390625,-3.265625 3.625,-4.1875 4.3125,-4.1875 c 0.046875,0 0.296875,0 0.5,0.125 C 4.53125,-4 4.34375,-3.765625 4.34375,-3.515625 c 0,0.15625 0.109375,0.34375 0.375,0.34375 0.21875,0 0.53125,-0.171875 0.53125,-0.578125 0,-0.515625 -0.578125,-0.65625 -0.921875,-0.65625 -0.578125,0 -0.921875,0.53125 -1.046875,0.75 -0.25,-0.65625 -0.78125,-0.75 -1.078125,-0.75 -1.03125,0 -1.609375,1.28125 -1.609375,1.53125 0,0.109375 0.109375,0.109375 0.125,0.109375 0.078125,0 0.109375,-0.03125 0.125,-0.109375 0.34375,-1.0625 1,-1.3125 1.34375,-1.3125 0.1875,0 0.53125,0.09375 0.53125,0.671875 0,0.3125 -0.171875,0.96875 -0.53125,2.375 -0.15625,0.609375 -0.515625,1.03125 -0.953125,1.03125 -0.0625,0 -0.28125,0 -0.5,-0.125 0.25,-0.0625 0.46875,-0.265625 0.46875,-0.546875 0,-0.265625 -0.21875,-0.34375 -0.359375,-0.34375 -0.3125,0 -0.546875,0.25 -0.546875,0.578125 0,0.453125 0.484375,0.65625 0.921875,0.65625 0.671875,0 1.03125,-0.703125 1.046875,-0.75 0.125,0.359375 0.484375,0.75 1.078125,0.75 1.03125,0 1.59375,-1.28125 1.59375,-1.53125 0,-0.109375 -0.078125,-0.109375 -0.109375,-0.109375 -0.09375,0 -0.109375,0.046875 -0.140625,0.109375 -0.328125,1.078125 -1,1.3125 -1.3125,1.3125 -0.390625,0 -0.546875,-0.3125 -0.546875,-0.65625 0,-0.21875 0.046875,-0.4375 0.15625,-0.875 z m 0,0"
             id="id-43b7b8d2-3318-4e0f-a241-a58a819c10ec" />
        </symbol>
        <symbol
           overflow="visible"
           id="id-fd595436-a3a6-44c1-a16b-15dc475c8c06">
          <path
             style="stroke:none;stroke-width:0"
             d="m 4.84375,-3.796875 c 0.046875,-0.140625 0.046875,-0.15625 0.046875,-0.234375 0,-0.171875 -0.140625,-0.265625 -0.296875,-0.265625 -0.09375,0 -0.25,0.0625 -0.34375,0.203125 -0.015625,0.0625 -0.109375,0.359375 -0.140625,0.546875 -0.078125,0.25 -0.140625,0.53125 -0.203125,0.796875 l -0.453125,1.796875 c -0.03125,0.140625 -0.46875,0.84375 -1.125,0.84375 -0.5,0 -0.609375,-0.4375 -0.609375,-0.8125 C 1.71875,-1.375 1.890625,-2 2.21875,-2.875 2.375,-3.28125 2.421875,-3.390625 2.421875,-3.59375 c 0,-0.4375 -0.3125,-0.8125 -0.8125,-0.8125 -0.953125,0 -1.3125,1.453125 -1.3125,1.53125 0,0.109375 0.09375,0.109375 0.109375,0.109375 0.109375,0 0.109375,-0.03125 0.15625,-0.1875 0.28125,-0.9375 0.671875,-1.234375 1.015625,-1.234375 0.078125,0 0.25,0 0.25,0.3125 0,0.25 -0.109375,0.515625 -0.171875,0.703125 -0.40625,1.0625 -0.578125,1.625 -0.578125,2.09375 0,0.890625 0.625,1.1875 1.21875,1.1875 0.390625,0 0.71875,-0.171875 1,-0.453125 -0.125,0.515625 -0.25,1.015625 -0.640625,1.546875 -0.265625,0.328125 -0.640625,0.625 -1.09375,0.625 -0.140625,0 -0.59375,-0.03125 -0.765625,-0.421875 0.15625,0 0.296875,0 0.421875,-0.125 C 1.328125,1.203125 1.421875,1.0625 1.421875,0.875 1.421875,0.5625 1.15625,0.53125 1.0625,0.53125 0.828125,0.53125 0.5,0.6875 0.5,1.171875 c 0,0.5 0.4375,0.875 1.0625,0.875 1.015625,0 2.046875,-0.90625 2.328125,-2.03125 z m 0,0"
             id="id-8fe4b397-7a37-4521-a7ca-9931f3e0872a" />
        </symbol>
        <symbol
           overflow="visible"
           id="id-a0dc17cf-db70-44dc-be9d-be4594da69a9">
          <path
             style="stroke:none;stroke-width:0"
             d="m 1.328125,-0.828125 c 0.53125,-0.578125 0.828125,-0.828125 1.1875,-1.140625 0,0 0.609375,-0.53125 0.96875,-0.890625 C 4.4375,-3.78125 4.65625,-4.265625 4.65625,-4.3125 c 0,-0.09375 -0.09375,-0.09375 -0.109375,-0.09375 -0.078125,0 -0.09375,0.015625 -0.15625,0.109375 -0.296875,0.484375 -0.5,0.640625 -0.734375,0.640625 -0.25,0 -0.359375,-0.15625 -0.515625,-0.328125 -0.1875,-0.21875 -0.359375,-0.421875 -0.6875,-0.421875 -0.75,0 -1.203125,0.921875 -1.203125,1.140625 0,0.046875 0.03125,0.109375 0.109375,0.109375 0.09375,0 0.109375,-0.046875 0.140625,-0.109375 0.1875,-0.46875 0.765625,-0.46875 0.84375,-0.46875 0.203125,0 0.390625,0.0625 0.625,0.140625 0.40625,0.15625 0.515625,0.15625 0.765625,0.15625 -0.359375,0.421875 -1.1875,1.140625 -1.375,1.296875 l -0.90625,0.84375 C 0.78125,-0.625 0.421875,-0.0625 0.421875,0.015625 c 0,0.09375 0.109375,0.09375 0.125,0.09375 0.078125,0 0.09375,-0.015625 0.15625,-0.125 0.234375,-0.359375 0.53125,-0.625 0.859375,-0.625 0.21875,0 0.328125,0.09375 0.578125,0.375 0.15625,0.21875 0.34375,0.375 0.625,0.375 1,0 1.578125,-1.265625 1.578125,-1.53125 0,-0.046875 -0.046875,-0.109375 -0.125,-0.109375 -0.09375,0 -0.109375,0.0625 -0.140625,0.140625 C 3.84375,-0.75 3.203125,-0.5625 2.875,-0.5625 c -0.1875,0 -0.375,-0.0625 -0.578125,-0.125 -0.34375,-0.125 -0.5,-0.171875 -0.703125,-0.171875 -0.015625,0 -0.171875,0 -0.265625,0.03125 z m 0,0"
             id="id-d9fdcd31-7a64-4238-93be-c34f20e6ab9a" />
        </symbol>
      </g>
    </defs>
  </defs>
  <g
     id="g1013"
     transform="translate(-1.8375e-7,-3.767437)">
    <g
       id="path1002"
       style="fill:#009100"
       transform="translate(-63.081237,-96.422863)">
      <path
         style="color:#000000;fill:#009100;-inkscape-stroke:none"
         d="m 97.763672,145.52148 v 18.51954 h 0.263672 v -18.51954 z"
         id="path3239" />
      <g
         id="g3229"
         style="fill:#009100">
        <path
           style="color:#000000;fill:#009100;fill-rule:evenodd;stroke-width:0.181901;stroke-linejoin:round;-inkscape-stroke:none"
           d="m 99.069815,161.21315 -1.169322,3.17988 -1.169323,-3.17988 c 0.690367,0.50801 1.63491,0.50508 2.338645,0 z"
           id="path3231" />
      </g>
    </g>
    <path
       style="fill:#f1caff;stroke:#000000;stroke-width:0.264583px;stroke-linecap:butt;stroke-linejoin:miter;stroke-opacity:1"
       d="m 37.460433,46.452137 h 15.875 v 5.29166 h -15.875"
       id="path883" />
    <g
       id="g1793"
       transform="translate(-63.081237,-96.422863)">
      <path
         style="fill:#f1caff;stroke:#000000;stroke-width:0.264583px;stroke-linecap:butt;stroke-linejoin:miter;stroke-opacity:1"
         d="m 79.374999,127 v 5.29166 l 21.166671,15.875 V 142.875 L 79.374999,127"
         id="path881" />
      <path
         style="fill:none;stroke:#000000;stroke-width:0.264583px;stroke-linecap:butt;stroke-linejoin:miter;stroke-opacity:1"
         d="M 116.41667,142.875 95.249999,127 h -15.875"
         id="path885" />
    </g>
    <g
       id="path1000"
       style="fill:#009100"
       transform="translate(-63.081237,-96.422863)">
      <path
         style="color:#000000;fill:#009100;-inkscape-stroke:none"
         d="m 97.763672,100.54102 v 34.39648 h 0.263672 v -34.39648 z"
         id="path3187" />
      <g
         id="g3177"
         style="fill:#009100">
        <path
           style="color:#000000;fill:#009100;fill-rule:evenodd;stroke-width:0.181901;stroke-linejoin:round;-inkscape-stroke:none"
           d="m 96.721849,103.37018 1.169322,-3.17988 1.169323,3.17988 c -0.690367,-0.50801 -1.63491,-0.50508 -2.338645,0 z"
           id="path3179" />
      </g>
    </g>
    <g
       id="path1004"
       style="fill:#dc0000"
       transform="translate(-63.081237,-96.422863)">
      <path
         style="color:#000000;fill:#dc0000;-inkscape-stroke:none"
         d="m 68.791016,137.45117 v 0.26367 h 21.167968 v -0.26367 z"
         id="path3067" />
      <g
         id="g3057"
         style="fill:#dc0000">
        <path
           style="color:#000000;fill:#dc0000;fill-rule:evenodd;stroke-width:0.181901;stroke-linejoin:round;-inkscape-stroke:none"
           d="m 71.620176,138.75731 -3.179881,-1.16932 3.179882,-1.16932 c -0.508013,0.69037 -0.505085,1.63491 -10e-7,2.33864 z"
           id="path3059" />
      </g>
    </g>
    <g
       id="path1119"
       style="fill:#dc0000"
       transform="translate(-63.081237,-96.422863)">
      <path
         style="color:#000000;fill:#dc0000;-inkscape-stroke:none"
         d="m 109.53711,137.45117 v 0.26367 h 16.14062 v -0.26367 z"
         id="path3015" />
      <g
         id="g3005"
         style="fill:#dc0000">
        <path
           style="color:#000000;fill:#dc0000;fill-rule:evenodd;stroke-width:0.181901;stroke-linejoin:round;-inkscape-stroke:none"
           d="m 122.84857,136.40935 3.17988,1.16932 -3.17988,1.16932 c 0.50801,-0.69037 0.50508,-1.63491 0,-2.33864 z"
           id="path3007" />
      </g>
    </g>
    <g
       id="path1211"
       style="fill:#0084c8"
       transform="translate(-63.081237,-96.422863)">
      <path
         style="color:#000000;fill:#0084c8;-inkscape-stroke:none"
         d="m 109.88672,145.41797 -0.16797,0.20508 14.55078,11.90625 0.16797,-0.20508 z"
         id="path3119" />
      <g
         id="g3109"
         style="fill:#0084c8">
        <path
           style="color:#000000;fill:#0084c8;fill-rule:evenodd;stroke-width:0.182187;stroke-linejoin:round;-inkscape-stroke:none"
           d="m 122.90616,154.72309 1.72334,2.92323 -3.2066,-1.11036 c 0.83166,-0.21296 1.42845,-0.94701 1.48326,-1.81287 z"
           id="path3111" />
      </g>
    </g>
    <g
       id="path1345"
       style="fill:#0084c8"
       transform="translate(-63.081237,-96.422863)">
      <path
         style="color:#000000;fill:#0084c8;-inkscape-stroke:none"
         d="m 83.4375,121.61523 -0.1875,0.1875 5.291016,5.29102 0.1875,-0.1875 z"
         id="path3153" />
      <g
         id="g3143"
         style="fill:#0084c8">
        <path
           style="color:#000000;fill:#0084c8;fill-rule:evenodd;stroke-width:0.181901;stroke-linejoin:round;-inkscape-stroke:none"
           d="m 84.513675,124.53852 -1.421678,-3.07535 3.075351,1.42168 c -0.847382,0.12894 -1.513205,0.79891 -1.653673,1.65367 z"
           id="path3145" />
      </g>
    </g>
    <path
       style="opacity:0.49;fill:#f1caff;stroke:#9eabb0;stroke-width:0.1188;stroke-linecap:round;stroke-linejoin:round;stroke-dasharray:0.1188, 0.1188"
       d="m 27.275714,38.560683 -10.326047,-7.748748 7.565231,-0.03058 7.565231,-0.03058 1.241065,0.921581 1.241065,0.921578 0.0051,2.9997 c 0.0049,2.909671 0.01212,2.999701 0.240498,2.999701 0.227132,0 0.236577,-0.09839 0.267301,-2.784414 l 0.03185,-2.784412 8.781079,6.585791 c 4.829593,3.622188 8.80791,6.612623 8.8407,6.645415 0.03279,0.03279 -3.357364,0.05829 -7.53368,0.05667 l -7.5933,-0.003 z"
       id="path1926" />
    <g
       transform="matrix(0.76573704,0,0,0.76573704,-0.227328,43.361967)"
       id="g2918"
       style="fill:#dc0000;fill-opacity:1">
      <path
         style="fill:#dc0000;stroke:none;stroke-width:0"
         d="M 3.328125,-3.015625 C 3.390625,-3.265625 3.625,-4.1875 4.3125,-4.1875 c 0.046875,0 0.296875,0 0.5,0.125 C 4.53125,-4 4.34375,-3.765625 4.34375,-3.515625 c 0,0.15625 0.109375,0.34375 0.375,0.34375 0.21875,0 0.53125,-0.171875 0.53125,-0.578125 0,-0.515625 -0.578125,-0.65625 -0.921875,-0.65625 -0.578125,0 -0.921875,0.53125 -1.046875,0.75 -0.25,-0.65625 -0.78125,-0.75 -1.078125,-0.75 -1.03125,0 -1.609375,1.28125 -1.609375,1.53125 0,0.109375 0.109375,0.109375 0.125,0.109375 0.078125,0 0.109375,-0.03125 0.125,-0.109375 0.34375,-1.0625 1,-1.3125 1.34375,-1.3125 0.1875,0 0.53125,0.09375 0.53125,0.671875 0,0.3125 -0.171875,0.96875 -0.53125,2.375 -0.15625,0.609375 -0.515625,1.03125 -0.953125,1.03125 -0.0625,0 -0.28125,0 -0.5,-0.125 0.25,-0.0625 0.46875,-0.265625 0.46875,-0.546875 0,-0.265625 -0.21875,-0.34375 -0.359375,-0.34375 -0.3125,0 -0.546875,0.25 -0.546875,0.578125 0,0.453125 0.484375,0.65625 0.921875,0.65625 0.671875,0 1.03125,-0.703125 1.046875,-0.75 0.125,0.359375 0.484375,0.75 1.078125,0.75 1.03125,0 1.59375,-1.28125 1.59375,-1.53125 0,-0.109375 -0.078125,-0.109375 -0.109375,-0.109375 -0.09375,0 -0.109375,0.046875 -0.140625,0.109375 -0.328125,1.078125 -1,1.3125 -1.3125,1.3125 -0.390625,0 -0.546875,-0.3125 -0.546875,-0.65625 0,-0.21875 0.046875,-0.4375 0.15625,-0.875 z m 0,0"
         id="id-ed878974-8b8c-468e-8f53-978f0f60a262" />
    </g>
    <g
       transform="matrix(0.76573704,0,0,0.76573704,31.667896,72.980607)"
       id="g2921"
       style="fill:#009100;fill-opacity:1">
      <path
         style="fill:#009100;stroke:none;stroke-width:0"
         d="m 4.84375,-3.796875 c 0.046875,-0.140625 0.046875,-0.15625 0.046875,-0.234375 0,-0.171875 -0.140625,-0.265625 -0.296875,-0.265625 -0.09375,0 -0.25,0.0625 -0.34375,0.203125 -0.015625,0.0625 -0.109375,0.359375 -0.140625,0.546875 -0.078125,0.25 -0.140625,0.53125 -0.203125,0.796875 l -0.453125,1.796875 c -0.03125,0.140625 -0.46875,0.84375 -1.125,0.84375 -0.5,0 -0.609375,-0.4375 -0.609375,-0.8125 C 1.71875,-1.375 1.890625,-2 2.21875,-2.875 2.375,-3.28125 2.421875,-3.390625 2.421875,-3.59375 c 0,-0.4375 -0.3125,-0.8125 -0.8125,-0.8125 -0.953125,0 -1.3125,1.453125 -1.3125,1.53125 0,0.109375 0.09375,0.109375 0.109375,0.109375 0.109375,0 0.109375,-0.03125 0.15625,-0.1875 0.28125,-0.9375 0.671875,-1.234375 1.015625,-1.234375 0.078125,0 0.25,0 0.25,0.3125 0,0.25 -0.109375,0.515625 -0.171875,0.703125 -0.40625,1.0625 -0.578125,1.625 -0.578125,2.09375 0,0.890625 0.625,1.1875 1.21875,1.1875 0.390625,0 0.71875,-0.171875 1,-0.453125 -0.125,0.515625 -0.25,1.015625 -0.640625,1.546875 -0.265625,0.328125 -0.640625,0.625 -1.09375,0.625 -0.140625,0 -0.59375,-0.03125 -0.765625,-0.421875 0.15625,0 0.296875,0 0.421875,-0.125 C 1.328125,1.203125 1.421875,1.0625 1.421875,0.875 1.421875,0.5625 1.15625,0.53125 1.0625,0.53125 0.828125,0.53125 0.5,0.6875 0.5,1.171875 c 0,0.5 0.4375,0.875 1.0625,0.875 1.015625,0 2.046875,-0.90625 2.328125,-2.03125 z m 0,0"
         id="id-a384241f-a51d-4c4d-802a-76fcfa9fa6a0" />
    </g>
    <g
       style="fill:#0084c8;fill-opacity:1"
       id="id-cc6ff984-c480-4630-b98f-3e2cc4f5096b"
       transform="matrix(0.76573704,0,0,0.76573704,-107.10399,-78.054305)">
      <g
         transform="translate(159.649,134.765)"
         id="g2925"
         style="fill:#0084c8">
        <path
           style="fill:#0084c8;stroke:none;stroke-width:0"
           d="m 1.328125,-0.828125 c 0.53125,-0.578125 0.828125,-0.828125 1.1875,-1.140625 0,0 0.609375,-0.53125 0.96875,-0.890625 C 4.4375,-3.78125 4.65625,-4.265625 4.65625,-4.3125 c 0,-0.09375 -0.09375,-0.09375 -0.109375,-0.09375 -0.078125,0 -0.09375,0.015625 -0.15625,0.109375 -0.296875,0.484375 -0.5,0.640625 -0.734375,0.640625 -0.25,0 -0.359375,-0.15625 -0.515625,-0.328125 -0.1875,-0.21875 -0.359375,-0.421875 -0.6875,-0.421875 -0.75,0 -1.203125,0.921875 -1.203125,1.140625 0,0.046875 0.03125,0.109375 0.109375,0.109375 0.09375,0 0.109375,-0.046875 0.140625,-0.109375 0.1875,-0.46875 0.765625,-0.46875 0.84375,-0.46875 0.203125,0 0.390625,0.0625 0.625,0.140625 0.40625,0.15625 0.515625,0.15625 0.765625,0.15625 -0.359375,0.421875 -1.1875,1.140625 -1.375,1.296875 l -0.90625,0.84375 C 0.78125,-0.625 0.421875,-0.0625 0.421875,0.015625 c 0,0.09375 0.109375,0.09375 0.125,0.09375 0.078125,0 0.09375,-0.015625 0.15625,-0.125 0.234375,-0.359375 0.53125,-0.625 0.859375,-0.625 0.21875,0 0.328125,0.09375 0.578125,0.375 0.15625,0.21875 0.34375,0.375 0.625,0.375 1,0 1.578125,-1.265625 1.578125,-1.53125 0,-0.046875 -0.046875,-0.109375 -0.125,-0.109375 -0.09375,0 -0.109375,0.0625 -0.140625,0.140625 C 3.84375,-0.75 3.203125,-0.5625 2.875,-0.5625 c -0.1875,0 -0.375,-0.0625 -0.578125,-0.125 -0.34375,-0.125 -0.5,-0.171875 -0.703125,-0.171875 -0.015625,0 -0.171875,0 -0.265625,0.03125 z m 0,0"
           id="id-4b00ecef-7e59-4f30-808b-4ac6af950fa3" />
      </g>
    </g>
  </g>
</svg>
