<?xml version="1.0" encoding="UTF-8" standalone="no"?>
<!-- Created with Inkscape (http://www.inkscape.org/) -->

<svg
   width="116.74072mm"
   height="10.907388mm"
   viewBox="0 0 116.74072 10.907388"
   version="1.1"
   id="svg5"
   sodipodi:docname="eventListener.svg"
   inkscape:version="1.1 (c4e8f9e, 2021-05-24)"
   xmlns:inkscape="http://www.inkscape.org/namespaces/inkscape"
   xmlns:sodipodi="http://sodipodi.sourceforge.net/DTD/sodipodi-0.dtd"
   xmlns="http://www.w3.org/2000/svg"
   xmlns:svg="http://www.w3.org/2000/svg"
   xmlns:ns6="http://www.iki.fi/pav/software/textext/">
  <sodipodi:namedview
     id="namedview937"
     pagecolor="#ffffff"
     bordercolor="#666666"
     borderopacity="1.0"
     inkscape:pageshadow="2"
     inkscape:pageopacity="0.0"
     inkscape:pagecheckerboard="0"
     inkscape:document-units="mm"
     showgrid="false"
     inkscape:zoom="1.2952582"
     inkscape:cx="174.09656"
     inkscape:cy="20.459241"
     inkscape:window-width="1440"
     inkscape:window-height="847"
     inkscape:window-x="2173"
     inkscape:window-y="89"
     inkscape:window-maximized="0"
     inkscape:current-layer="svg5" />
  <defs
     id="defs2">
    <marker
       style="overflow:visible"
       id="TriangleOutL"
       refX="0"
       refY="0"
       orient="auto">
      <path
         transform="scale(0.8)"
         style="fill:context-stroke;fill-rule:evenodd;stroke:context-stroke;stroke-width:1pt"
         d="M 5.77,0 -2.88,5 V -5 Z"
         id="path1917" />
    </marker>
    <marker
       style="overflow:visible"
       id="TriangleOutM"
       refX="0"
       refY="0"
       orient="auto">
      <path
         transform="scale(0.4)"
         style="fill:context-stroke;fill-rule:evenodd;stroke:context-stroke;stroke-width:1pt"
         d="M 5.77,0 -2.88,5 V -5 Z"
         id="path1920" />
    </marker>
    <defs
       id="id-6f97f171-d8ba-4e55-aa21-3c9a9061f81f">
      <g
         id="id-53dc37f1-bb97-4117-8b80-c061afc187a7">
        <symbol
           overflow="visible"
           id="id-a3b75ee7-d5e7-4cee-8eb5-60894c3a896f">
          <path
             style="stroke:none;stroke-width:0"
             d=""
             id="id-c199e70a-e341-4a33-987d-f452ea6b1c62" />
        </symbol>
        <symbol
           overflow="visible"
           id="id-2ee0b929-52a2-42ab-b779-463705633cac">
          <path
             style="stroke:none;stroke-width:0"
             d="M 5.109375,-3.890625 C 5.140625,-3.953125 5.140625,-4 5.140625,-4.03125 5.140625,-4.140625 5.0625,-4.296875 4.859375,-4.296875 4.5625,-4.296875 4.5,-4 4.46875,-3.921875 L 3.75,-1.015625 C 3.703125,-0.84375 3.703125,-0.8125 3.609375,-0.6875 3.421875,-0.40625 3.125,-0.109375 2.6875,-0.109375 c -0.4375,0 -0.53125,-0.4375 -0.53125,-0.765625 0,-0.609375 0.328125,-1.5 0.578125,-2.1875 0.078125,-0.203125 0.125,-0.34375 0.125,-0.53125 0,-0.5 -0.328125,-0.8125 -0.75,-0.8125 -0.9375,0 -1.28125,1.46875 -1.28125,1.53125 0,0.109375 0.09375,0.109375 0.15625,0.109375 0.125,0 0.125,-0.03125 0.171875,-0.171875 0.078125,-0.296875 0.34375,-1.25 0.921875,-1.25 0.109375,0 0.21875,0.03125 0.21875,0.296875 0,0.234375 -0.09375,0.5 -0.234375,0.890625 -0.265625,0.703125 -0.515625,1.4375 -0.515625,1.953125 0,0.875 0.578125,1.15625 1.109375,1.15625 0.53125,0 0.875,-0.296875 1.109375,-0.59375 0.1875,0.53125 0.609375,0.59375 0.796875,0.59375 0.375,0 0.578125,-0.25 0.734375,-0.5625 0.171875,-0.375 0.296875,-0.953125 0.296875,-0.96875 0,-0.109375 -0.078125,-0.109375 -0.15625,-0.109375 -0.109375,0 -0.125,0.015625 -0.1875,0.234375 -0.140625,0.5625 -0.328125,1.1875 -0.671875,1.1875 -0.25,0 -0.25,-0.265625 -0.25,-0.40625 0,-0.078125 0,-0.234375 0.0625,-0.515625 z m 0,0"
             id="id-cae616ff-a34b-427d-9a87-11fea3147059" />
        </symbol>
        <symbol
           overflow="visible"
           id="id-3ab3e338-69b5-4379-81f1-0243bfadfa23">
          <path
             style="stroke:none;stroke-width:0"
             d="m 2.46875,-1.96875 c 0.4375,0.109375 0.875,0.203125 0.875,0.75 0,0.3125 -0.265625,1.109375 -1.296875,1.109375 -0.21875,0 -0.796875,-0.046875 -0.953125,-0.5625 0.515625,-0.046875 0.515625,-0.46875 0.515625,-0.484375 0,-0.1875 -0.140625,-0.3125 -0.34375,-0.3125 -0.234375,0 -0.515625,0.15625 -0.515625,0.609375 0,0.609375 0.578125,0.96875 1.296875,0.96875 1.484375,0 1.875,-1.21875 1.875,-1.671875 0,-0.875 -0.78125,-1.046875 -1.1875,-1.140625 -0.28125,-0.0625 -0.640625,-0.140625 -0.640625,-0.5625 0,-0.25 0.203125,-0.921875 1,-0.921875 0.28125,0 0.640625,0.09375 0.75,0.484375 -0.3125,0.046875 -0.390625,0.3125 -0.390625,0.40625 0,0.109375 0.0625,0.28125 0.296875,0.28125 0.171875,0 0.421875,-0.109375 0.421875,-0.546875 0,-0.453125 -0.40625,-0.84375 -1.0625,-0.84375 -1.171875,0 -1.578125,0.953125 -1.578125,1.46875 0,0.78125 0.65625,0.90625 0.9375,0.96875 z m 0,0"
             id="id-d4021792-6854-494e-93ef-8b6d994ab826" />
        </symbol>
        <symbol
           overflow="visible"
           id="id-62bd5927-be4f-4fe5-bf23-17b5d434b007">
          <path
             style="stroke:none;stroke-width:0"
             d="m 2.375,-2.296875 c 0.3125,0 0.96875,-0.03125 1.453125,-0.21875 0.78125,-0.328125 0.78125,-0.96875 0.78125,-1.046875 0,-0.453125 -0.359375,-0.84375 -1,-0.84375 -1.046875,0 -2.46875,1 -2.46875,2.765625 0,0.90625 0.46875,1.75 1.421875,1.75 1.28125,0 2.109375,-1 2.109375,-1.140625 0,-0.0625 -0.09375,-0.171875 -0.171875,-0.171875 -0.03125,0 -0.046875,0.015625 -0.125,0.109375 -0.734375,0.9375 -1.625,0.984375 -1.796875,0.984375 -0.640625,0 -0.75,-0.703125 -0.75,-1.09375 0,-0.375 0.09375,-0.828125 0.171875,-1.09375 z m -0.328125,-0.21875 c 0.4375,-1.640625 1.46875,-1.671875 1.5625,-1.671875 0.390625,0 0.625,0.265625 0.625,0.609375 0,1.0625 -1.640625,1.0625 -1.96875,1.0625 z m 0,0"
             id="id-c0d76b51-31f7-46f2-9db2-daece5d0b5fc" />
        </symbol>
        <symbol
           overflow="visible"
           id="id-51c4934f-3937-4f3f-97cc-9be53e64adb5">
          <path
             style="stroke:none;stroke-width:0"
             d="m 2.578125,-2.875 c 0,-0.03125 0.453125,-1.3125 1.3125,-1.3125 0.046875,0 0.328125,0 0.53125,0.140625 C 4.0625,-3.9375 4.03125,-3.625 4.03125,-3.5625 c 0,0.125 0.09375,0.3125 0.359375,0.3125 0.171875,0 0.484375,-0.140625 0.484375,-0.53125 0,-0.515625 -0.640625,-0.625 -0.984375,-0.625 -0.6875,0 -1.046875,0.5 -1.203125,0.71875 -0.109375,-0.53125 -0.5,-0.71875 -0.828125,-0.71875 -0.359375,0 -0.546875,0.234375 -0.71875,0.53125 -0.1875,0.390625 -0.3125,0.984375 -0.3125,1 0,0.109375 0.09375,0.109375 0.15625,0.109375 0.125,0 0.125,-0.015625 0.1875,-0.234375 0.171875,-0.703125 0.359375,-1.1875 0.671875,-1.1875 0.265625,0 0.265625,0.296875 0.265625,0.40625 0,0.15625 -0.03125,0.34375 -0.078125,0.5 l -0.75,2.984375 c -0.015625,0.0625 -0.03125,0.125 -0.03125,0.140625 0,0.109375 0.078125,0.265625 0.28125,0.265625 0.296875,0 0.375,-0.28125 0.390625,-0.375 z m 0,0"
             id="id-cff08b35-b0c7-4587-adb2-a5da9efdba32" />
        </symbol>
        <symbol
           overflow="visible"
           id="id-15d93df0-9aad-47f2-be9c-36337d04a52f">
          <path
             style="stroke:none;stroke-width:0"
             d="m 3.296875,-1.421875 c 0,-0.109375 -0.078125,-0.109375 -0.140625,-0.109375 -0.140625,0 -0.140625,0.03125 -0.171875,0.171875 -0.078125,0.296875 -0.359375,1.25 -0.9375,1.25 -0.078125,0 -0.21875,-0.015625 -0.21875,-0.28125 0,-0.25 0.140625,-0.59375 0.265625,-0.953125 l 0.640625,-1.703125 c 0.09375,-0.296875 0.109375,-0.375 0.109375,-0.5625 0,-0.546875 -0.375,-0.796875 -0.734375,-0.796875 -0.9375,0 -1.28125,1.484375 -1.28125,1.53125 0,0.109375 0.09375,0.109375 0.15625,0.109375 0.125,0 0.125,-0.03125 0.171875,-0.171875 0.09375,-0.328125 0.34375,-1.25 0.921875,-1.25 0.109375,0 0.21875,0.046875 0.21875,0.28125 0,0.234375 -0.109375,0.53125 -0.171875,0.71875 L 1.828125,-2.359375 C 1.6875,-2.03125 1.578125,-1.703125 1.453125,-1.375 1.3125,-1 1.28125,-0.890625 1.28125,-0.6875 c 0,0.390625 0.234375,0.796875 0.75,0.796875 0.9375,0 1.265625,-1.5 1.265625,-1.53125 z M 3.25,-6.203125 c 0,-0.25 -0.203125,-0.34375 -0.34375,-0.34375 -0.203125,0 -0.46875,0.203125 -0.46875,0.484375 0,0.25 0.1875,0.328125 0.328125,0.328125 0.203125,0 0.484375,-0.1875 0.484375,-0.46875 z m 0,0"
             id="id-266fd009-373b-4626-abea-e06586956114" />
        </symbol>
        <symbol
           overflow="visible"
           id="id-67fe6b1d-9e55-41e8-b149-49e1855382ef">
          <path
             style="stroke:none;stroke-width:0"
             d="M 2.296875,-1.75 C 2.34375,-1.96875 2.40625,-2.171875 2.453125,-2.390625 2.578125,-2.90625 2.578125,-2.90625 2.75,-3.203125 2.890625,-3.4375 3.34375,-4.1875 4.09375,-4.1875 c 0.4375,0 0.46875,0.453125 0.46875,0.65625 0,0.625 -0.453125,1.8125 -0.578125,2.203125 -0.140625,0.34375 -0.171875,0.4375 -0.171875,0.640625 0,0.4375 0.28125,0.796875 0.765625,0.796875 0.921875,0 1.265625,-1.484375 1.265625,-1.53125 0,-0.109375 -0.078125,-0.109375 -0.15625,-0.109375 -0.125,0 -0.125,0.03125 -0.171875,0.171875 -0.078125,0.265625 -0.34375,1.25 -0.921875,1.25 -0.203125,0 -0.21875,-0.15625 -0.21875,-0.296875 0,-0.234375 0.09375,-0.5 0.1875,-0.734375 0.1875,-0.53125 0.59375,-1.65625 0.59375,-2.234375 0,-0.8125 -0.546875,-1.03125 -1.03125,-1.03125 -0.8125,0 -1.296875,0.59375 -1.421875,0.78125 C 2.625,-4.109375 2.296875,-4.40625 1.859375,-4.40625 1.5,-4.40625 1.3125,-4.171875 1.140625,-3.875 c -0.1875,0.390625 -0.3125,0.984375 -0.3125,1 0,0.109375 0.09375,0.109375 0.15625,0.109375 0.125,0 0.125,-0.015625 0.1875,-0.234375 0.171875,-0.703125 0.359375,-1.1875 0.671875,-1.1875 0.265625,0 0.265625,0.296875 0.265625,0.40625 0,0.15625 -0.03125,0.34375 -0.078125,0.5 l -0.75,2.984375 c -0.015625,0.0625 -0.03125,0.125 -0.03125,0.140625 0,0.109375 0.078125,0.265625 0.28125,0.265625 0.125,0 0.296875,-0.0625 0.359375,-0.265625 z m 0,0"
             id="id-16f90978-2afe-4450-99e7-54c2ed29d367" />
        </symbol>
        <symbol
           overflow="visible"
           id="id-9a69fbbd-2600-44e4-9bb9-7a28e5a3b9b6">
          <path
             style="stroke:none;stroke-width:0"
             d="M 0.890625,1.28125 C 0.8125,1.578125 0.734375,1.609375 0.34375,1.625 c -0.078125,0 -0.203125,0 -0.203125,0.1875 0,0.078125 0.046875,0.125 0.125,0.125 0.265625,0 0.546875,-0.03125 0.828125,-0.03125 0.328125,0 0.65625,0.03125 0.96875,0.03125 0.0625,0 0.1875,0 0.1875,-0.1875 C 2.25,1.625 2.15625,1.625 2.015625,1.625 1.5,1.625 1.5,1.5625 1.5,1.46875 1.5,1.40625 1.578125,1.140625 1.609375,0.984375 L 1.96875,-0.46875 c 0.078125,0.171875 0.328125,0.578125 0.84375,0.578125 1.078125,0 2.265625,-1.46875 2.265625,-2.953125 0,-1.078125 -0.59375,-1.5625 -1.1875,-1.5625 -0.484375,0 -0.921875,0.359375 -1.203125,0.703125 C 2.5625,-4.28125 2.109375,-4.40625 1.859375,-4.40625 1.5,-4.40625 1.3125,-4.171875 1.140625,-3.875 c -0.1875,0.390625 -0.3125,0.984375 -0.3125,1 0,0.109375 0.09375,0.109375 0.15625,0.109375 0.125,0 0.125,-0.015625 0.1875,-0.234375 0.171875,-0.703125 0.359375,-1.1875 0.671875,-1.1875 0.265625,0 0.265625,0.296875 0.265625,0.40625 0,0.046875 0,0.21875 -0.078125,0.484375 z M 2.625,-3.0625 c 0.078125,-0.34375 0.6875,-1.125 1.25,-1.125 0.4375,0 0.546875,0.5625 0.546875,0.890625 0,0.421875 -0.28125,1.609375 -0.5625,2.234375 -0.125,0.25 -0.546875,0.953125 -1.0625,0.953125 -0.578125,0 -0.671875,-0.84375 -0.671875,-0.921875 0,-0.03125 0.015625,-0.0625 0.03125,-0.140625 z m 0,0"
             id="id-5d3a5779-8996-4a3d-aace-ea6f5c2e7b3e" />
        </symbol>
        <symbol
           overflow="visible"
           id="id-aab209e6-5d59-4153-9e9b-34c820fa08ff">
          <path
             style="stroke:none;stroke-width:0"
             d="M 2.59375,-3.984375 H 3.4375 c 0.171875,0 0.28125,0 0.28125,-0.1875 0,-0.125 -0.09375,-0.125 -0.25,-0.125 H 2.671875 l 0.375,-1.46875 c 0.03125,-0.140625 0.03125,-0.171875 0.03125,-0.21875 0,-0.203125 -0.171875,-0.25 -0.265625,-0.25 -0.25,0 -0.34375,0.203125 -0.390625,0.359375 L 2.03125,-4.296875 H 1.1875 c -0.171875,0 -0.28125,0 -0.28125,0.1875 0,0.125 0.09375,0.125 0.25,0.125 H 1.953125 L 1.234375,-1.125 C 1.21875,-1.09375 1.1875,-0.921875 1.1875,-0.78125 c 0,0.484375 0.328125,0.890625 0.84375,0.890625 1.015625,0 1.515625,-1.484375 1.515625,-1.53125 0,-0.109375 -0.078125,-0.109375 -0.140625,-0.109375 -0.125,0 -0.125,0.015625 -0.203125,0.203125 -0.1875,0.46875 -0.578125,1.21875 -1.15625,1.21875 -0.265625,0 -0.265625,-0.25 -0.265625,-0.40625 0,-0.078125 0,-0.234375 0.078125,-0.515625 z m 0,0"
             id="id-13876601-83a3-4468-b2af-8221aa16a4d8" />
        </symbol>
        <symbol
           overflow="visible"
           id="id-2670583d-9370-4c17-b114-cd19617de504">
          <path
             style="stroke:none;stroke-width:0"
             d="m 4.921875,-3.75 c 0,-0.34375 -0.125,-0.65625 -0.421875,-0.65625 -0.21875,0 -0.46875,0.234375 -0.46875,0.453125 0,0.140625 0.0625,0.203125 0.125,0.28125 0.234375,0.25 0.265625,0.578125 0.265625,0.78125 0,0.28125 -0.46875,2.78125 -1.609375,2.78125 -0.546875,0 -0.65625,-0.5 -0.65625,-0.828125 0,-0.578125 0.328125,-1.4375 0.59375,-2.15625 0.046875,-0.171875 0.109375,-0.3125 0.109375,-0.5 0,-0.5 -0.328125,-0.8125 -0.75,-0.8125 -0.9375,0 -1.28125,1.46875 -1.28125,1.53125 0,0.109375 0.09375,0.109375 0.15625,0.109375 0.125,0 0.125,-0.03125 0.171875,-0.171875 0.078125,-0.296875 0.34375,-1.25 0.921875,-1.25 0.109375,0 0.21875,0.03125 0.21875,0.296875 0,0.234375 -0.09375,0.5 -0.234375,0.890625 -0.3125,0.84375 -0.5,1.4375 -0.5,1.90625 0,0.921875 0.625,1.203125 1.21875,1.203125 1.671875,0 2.140625,-3.59375 2.140625,-3.859375 z m 0,0"
             id="id-8176bf61-31b3-4460-a639-c08f0842c6eb" />
        </symbol>
        <symbol
           overflow="visible"
           id="id-8c96424e-ec74-465e-ab83-ee403fedb626">
          <path
             style="stroke:none;stroke-width:0"
             d="m 3.5625,-0.265625 c -0.375,1.65625 -1.125,2.09375 -1.625,2.09375 -0.46875,0 -0.609375,-0.375 -0.609375,-0.4375 0,0 0,-0.015625 0.078125,-0.03125 C 1.71875,1.3125 1.828125,1.046875 1.828125,0.890625 1.828125,0.671875 1.671875,0.5625 1.5,0.5625 c -0.125,0 -0.515625,0.0625 -0.515625,0.625 0,0.515625 0.40625,0.859375 0.953125,0.859375 1.046875,0 1.953125,-1.03125 2.203125,-2.015625 l 0.96875,-3.921875 C 5.125,-3.953125 5.140625,-4 5.140625,-4.03125 5.140625,-4.140625 5.0625,-4.296875 4.859375,-4.296875 4.5625,-4.296875 4.5,-4 4.46875,-3.921875 L 3.75,-1 c -0.078125,0.296875 -0.46875,0.890625 -1.0625,0.890625 -0.4375,0 -0.53125,-0.4375 -0.53125,-0.765625 0,-0.609375 0.328125,-1.5 0.578125,-2.1875 0.078125,-0.203125 0.125,-0.34375 0.125,-0.53125 0,-0.5 -0.328125,-0.8125 -0.75,-0.8125 -0.9375,0 -1.28125,1.46875 -1.28125,1.53125 0,0.109375 0.09375,0.109375 0.15625,0.109375 0.125,0 0.125,-0.03125 0.171875,-0.171875 0.078125,-0.296875 0.34375,-1.25 0.921875,-1.25 0.109375,0 0.21875,0.03125 0.21875,0.296875 0,0.234375 -0.09375,0.5 -0.234375,0.890625 -0.265625,0.703125 -0.515625,1.4375 -0.515625,1.953125 0,0.875 0.578125,1.15625 1.109375,1.15625 0.46875,0 0.765625,-0.234375 0.90625,-0.375 z m 0,0"
             id="id-986a2005-8eae-4b21-bbc6-b9865ab6aec8" />
        </symbol>
        <symbol
           overflow="visible"
           id="id-3721001d-5860-402f-83f7-0778cfbf6671">
          <path
             style="stroke:none;stroke-width:0"
             d="m 4.34375,-3.765625 c -0.5,0.0625 -0.5,0.46875 -0.5,0.5 0,0.15625 0.109375,0.3125 0.328125,0.3125 0.28125,0 0.515625,-0.21875 0.515625,-0.59375 0,-0.484375 -0.4375,-0.859375 -1.0625,-0.859375 -1.25,0 -2.53125,1.421875 -2.53125,2.875 0,0.984375 0.59375,1.640625 1.46875,1.640625 1.28125,0 2.109375,-1 2.109375,-1.140625 0,-0.0625 -0.09375,-0.171875 -0.171875,-0.171875 -0.03125,0 -0.046875,0.015625 -0.125,0.109375 -0.734375,0.9375 -1.625,0.984375 -1.796875,0.984375 -0.53125,0 -0.78125,-0.453125 -0.78125,-1.03125 0,-0.53125 0.265625,-1.578125 0.53125,-2.046875 0.359375,-0.65625 0.859375,-1 1.296875,-1 0.109375,0 0.5625,0.015625 0.71875,0.421875 z m 0,0"
             id="id-4499abd1-1d64-4c5a-b00d-3d50640e5169" />
        </symbol>
        <symbol
           overflow="visible"
           id="id-0592f3cb-7bdf-4aa6-838e-aaee39bf1ae5">
          <path
             style="stroke:none;stroke-width:0"
             d="m 5.078125,-2.765625 c 0,-0.953125 -0.59375,-1.640625 -1.453125,-1.640625 -1.25,0 -2.53125,1.421875 -2.53125,2.875 0,1.015625 0.625,1.640625 1.453125,1.640625 1.234375,0 2.53125,-1.421875 2.53125,-2.875 z m -2.53125,2.65625 c -0.390625,0 -0.75,-0.3125 -0.75,-1.03125 0,-0.5 0.25,-1.59375 0.578125,-2.140625 0.359375,-0.609375 0.84375,-0.90625 1.234375,-0.90625 0.484375,0 0.765625,0.4375 0.765625,1.03125 0,0.421875 -0.21875,1.453125 -0.53125,2.046875 -0.296875,0.546875 -0.796875,1 -1.296875,1 z m 0,0"
             id="id-657b7105-4b4f-431d-bd85-6522bb4cb9e5" />
        </symbol>
        <symbol
           overflow="visible"
           id="id-fc9c5199-cc53-42ae-af66-8292f77ab7e6">
          <path
             style="stroke:none;stroke-width:0"
             d="m 5.546875,-6.671875 c 0.015625,-0.03125 0.03125,-0.109375 0.03125,-0.125 0,-0.09375 -0.0625,-0.125 -0.140625,-0.125 -0.03125,0 -0.125,0.015625 -0.15625,0.03125 L 4.296875,-6.8125 c -0.125,0 -0.234375,0.015625 -0.234375,0.203125 C 4.0625,-6.5 4.171875,-6.5 4.3125,-6.5 c 0.46875,0 0.5,0.0625 0.5,0.171875 0,0.03125 -0.03125,0.15625 -0.03125,0.171875 l -0.578125,2.328125 c -0.15625,-0.3125 -0.421875,-0.578125 -0.84375,-0.578125 -1.109375,0 -2.28125,1.515625 -2.28125,2.96875 0,0.84375 0.453125,1.546875 1.203125,1.546875 0.359375,0 0.796875,-0.203125 1.203125,-0.703125 0.109375,0.5 0.46875,0.703125 0.828125,0.703125 0.359375,0 0.578125,-0.25 0.71875,-0.5625 0.1875,-0.375 0.296875,-0.953125 0.296875,-0.96875 0,-0.109375 -0.078125,-0.109375 -0.140625,-0.109375 -0.125,0 -0.140625,0.015625 -0.1875,0.234375 -0.140625,0.5625 -0.328125,1.1875 -0.671875,1.1875 -0.265625,0 -0.265625,-0.265625 -0.265625,-0.40625 0,-0.078125 0,-0.21875 0.0625,-0.46875 z M 3.53125,-1.21875 C 3.453125,-0.90625 2.84375,-0.109375 2.296875,-0.109375 1.828125,-0.109375 1.75,-0.703125 1.75,-1 1.75,-1.5 2.0625,-2.65625 2.25,-3.078125 2.5,-3.6875 2.953125,-4.1875 3.359375,-4.1875 c 0.078125,0 0.3125,0.015625 0.484375,0.296875 0.109375,0.15625 0.203125,0.4375 0.203125,0.625 0,0.03125 -0.015625,0.078125 -0.03125,0.140625 z m 0,0"
             id="id-fa694408-1415-49ec-8356-4e94aa28bb29" />
        </symbol>
      </g>
    </defs>
  </defs>
  <g
     id="g1533">
    <rect
       style="font-variation-settings:normal;vector-effect:none;fill:none;fill-opacity:1;fill-rule:evenodd;stroke:#000000;stroke-width:0.324047;stroke-linecap:butt;stroke-linejoin:miter;stroke-miterlimit:4;stroke-dasharray:none;stroke-dashoffset:0;stroke-opacity:1;stop-color:#000000"
       id="rect848"
       width="31.749998"
       height="10.583333"
       x="0.16202299"
       y="0.16202" />
    <rect
       style="font-variation-settings:normal;vector-effect:none;fill:none;fill-opacity:1;fill-rule:evenodd;stroke:#000000;stroke-width:0.324047;stroke-linecap:butt;stroke-linejoin:miter;stroke-miterlimit:4;stroke-dasharray:none;stroke-dashoffset:0;stroke-opacity:1;stop-color:#000000"
       id="rect1530"
       width="31.749998"
       height="10.583333"
       x="42.495354"
       y="0.16202763" />
    <rect
       style="font-variation-settings:normal;vector-effect:none;fill:none;fill-opacity:1;fill-rule:evenodd;stroke:#000000;stroke-width:0.324047;stroke-linecap:butt;stroke-linejoin:miter;stroke-miterlimit:4;stroke-dasharray:none;stroke-dashoffset:0;stroke-opacity:1;stop-color:#000000"
       id="rect1532"
       width="31.749998"
       height="10.583333"
       x="84.828697"
       y="0.16202" />
    <path
       style="fill:none;stroke:#000000;stroke-width:0.23151px;stroke-linecap:butt;stroke-linejoin:miter;stroke-opacity:1;marker-end:url(#TriangleOutL)"
       d="M 31.912022,5.45368 H 41.17244"
       id="path1691" />
    <path
       style="fill:none;stroke:#000000;stroke-width:0.23151px;stroke-linecap:butt;stroke-linejoin:miter;stroke-opacity:1;marker-end:url(#TriangleOutL)"
       d="m 74.245353,5.45368 h 9.26042"
       id="path1693" />
    <g
       transform="matrix(0.51339422,0,0,0.51339422,9.8575525,3.3281061)"
       ns6:version="1.3.1"
       ns6:texconverter="pdflatex"
       ns6:pdfconverter="inkscape"
       ns6:text="${\\textit{target}}$\n"
       ns6:preamble="/Users/ketiboldiais/Library/Application Support/org.inkscape.Inkscape/config/inkscape/extensions/circuitSymbols/circuitSymbolsPreamble.tex"
       ns6:scale="0.7910384785605061"
       ns6:alignment="middle center"
       ns6:jacobian_sqrt="0.279061"
       id="g1460">
      <defs
         id="id-cd397a71-dc28-412c-90fb-179ff8de018d">
        <g
           id="id-bf372165-5d44-4583-a695-add6b1def868">
          <symbol
             overflow="visible"
             id="id-ac3d7584-e4bf-41b6-85af-24652c6f82f9">
            <path
               style="stroke:none;stroke-width:0"
               d=""
               id="id-6acad1e0-4fc4-487e-80ec-a994b5393c68" />
          </symbol>
          <symbol
             overflow="visible"
             id="id-000f4251-7dd3-4a96-a156-7e46100c5244">
            <path
               style="stroke:none;stroke-width:0"
               d="M 2.59375,-3.984375 H 3.4375 c 0.171875,0 0.28125,0 0.28125,-0.1875 0,-0.125 -0.09375,-0.125 -0.25,-0.125 H 2.671875 l 0.375,-1.46875 c 0.03125,-0.140625 0.03125,-0.171875 0.03125,-0.21875 0,-0.203125 -0.171875,-0.25 -0.265625,-0.25 -0.25,0 -0.34375,0.203125 -0.390625,0.359375 L 2.03125,-4.296875 H 1.1875 c -0.171875,0 -0.28125,0 -0.28125,0.1875 0,0.125 0.09375,0.125 0.25,0.125 H 1.953125 L 1.234375,-1.125 C 1.21875,-1.09375 1.1875,-0.921875 1.1875,-0.78125 c 0,0.484375 0.328125,0.890625 0.84375,0.890625 1.015625,0 1.515625,-1.484375 1.515625,-1.53125 0,-0.109375 -0.078125,-0.109375 -0.140625,-0.109375 -0.125,0 -0.125,0.015625 -0.203125,0.203125 -0.1875,0.46875 -0.578125,1.21875 -1.15625,1.21875 -0.265625,0 -0.265625,-0.25 -0.265625,-0.40625 0,-0.078125 0,-0.234375 0.078125,-0.515625 z m 0,0"
               id="id-cce6a560-605c-4ec2-a086-4c1e54129b57" />
          </symbol>
          <symbol
             overflow="visible"
             id="id-92f9a43e-b64c-4c65-b790-6d1ff6e80ca7">
            <path
               style="stroke:none;stroke-width:0"
               d="m 3.484375,-0.59375 c 0.109375,0.5 0.46875,0.703125 0.828125,0.703125 0.359375,0 0.578125,-0.25 0.71875,-0.5625 0.1875,-0.375 0.296875,-0.953125 0.296875,-0.96875 0,-0.109375 -0.078125,-0.109375 -0.140625,-0.109375 -0.125,0 -0.140625,0.015625 -0.1875,0.234375 -0.140625,0.5625 -0.328125,1.1875 -0.671875,1.1875 -0.265625,0 -0.265625,-0.265625 -0.265625,-0.40625 0,-0.078125 0,-0.234375 0.078125,-0.515625 L 4.8125,-3.734375 c 0.046875,-0.140625 0.046875,-0.15625 0.046875,-0.21875 0,-0.203125 -0.171875,-0.25 -0.28125,-0.25 -0.3125,0 -0.375,0.328125 -0.390625,0.390625 C 4,-4.25 3.671875,-4.40625 3.359375,-4.40625 c -1.109375,0 -2.28125,1.515625 -2.28125,2.96875 0,0.84375 0.453125,1.546875 1.203125,1.546875 0.359375,0 0.796875,-0.203125 1.203125,-0.703125 z m 0.53125,-2.53125 -0.46875,1.890625 c -0.078125,0.3125 -0.703125,1.125 -1.25,1.125 C 1.828125,-0.109375 1.75,-0.703125 1.75,-1 1.75,-1.5 2.0625,-2.65625 2.25,-3.078125 2.5,-3.6875 2.953125,-4.1875 3.359375,-4.1875 c 0.4375,0 0.6875,0.515625 0.6875,0.9375 0,0.015625 -0.015625,0.0625 -0.03125,0.125 z m 0,0"
               id="id-582fcc7e-3e56-4786-8274-c17d5dbc9a64" />
          </symbol>
          <symbol
             overflow="visible"
             id="id-a3049647-6172-42c0-9a4a-c086e4b47ac9">
            <path
               style="stroke:none;stroke-width:0"
               d="m 2.578125,-2.875 c 0,-0.03125 0.453125,-1.3125 1.3125,-1.3125 0.046875,0 0.328125,0 0.53125,0.140625 C 4.0625,-3.9375 4.03125,-3.625 4.03125,-3.5625 c 0,0.125 0.09375,0.3125 0.359375,0.3125 0.171875,0 0.484375,-0.140625 0.484375,-0.53125 0,-0.515625 -0.640625,-0.625 -0.984375,-0.625 -0.6875,0 -1.046875,0.5 -1.203125,0.71875 -0.109375,-0.53125 -0.5,-0.71875 -0.828125,-0.71875 -0.359375,0 -0.546875,0.234375 -0.71875,0.53125 -0.1875,0.390625 -0.3125,0.984375 -0.3125,1 0,0.109375 0.09375,0.109375 0.15625,0.109375 0.125,0 0.125,-0.015625 0.1875,-0.234375 0.171875,-0.703125 0.359375,-1.1875 0.671875,-1.1875 0.265625,0 0.265625,0.296875 0.265625,0.40625 0,0.15625 -0.03125,0.34375 -0.078125,0.5 l -0.75,2.984375 c -0.015625,0.0625 -0.03125,0.125 -0.03125,0.140625 0,0.109375 0.078125,0.265625 0.28125,0.265625 0.296875,0 0.375,-0.28125 0.390625,-0.375 z m 0,0"
               id="id-08727686-f446-4c97-80dd-857a5c72dc03" />
          </symbol>
          <symbol
             overflow="visible"
             id="id-056c12c0-44f9-4ca2-8ce0-2e03da3367b8">
            <path
               style="stroke:none;stroke-width:0"
               d="M 3.375,-0.53125 3.15625,0.3125 C 3.046875,0.8125 2.984375,1.015625 2.703125,1.359375 2.296875,1.828125 1.90625,1.828125 1.75,1.828125 c -0.125,0 -0.4375,0 -0.703125,-0.109375 C 1.25,1.640625 1.359375,1.421875 1.359375,1.25 c 0,-0.125 -0.078125,-0.3125 -0.34375,-0.3125 -0.171875,0 -0.484375,0.140625 -0.484375,0.53125 0,0.390625 0.359375,0.578125 1.203125,0.578125 1.046875,0 1.796875,-0.65625 2,-1.421875 L 4.8125,-3.734375 c 0.046875,-0.15625 0.046875,-0.171875 0.046875,-0.21875 0,-0.203125 -0.171875,-0.25 -0.28125,-0.25 -0.109375,0 -0.34375,0.078125 -0.375,0.359375 C 4.0625,-4.125 3.78125,-4.40625 3.359375,-4.40625 2.25,-4.40625 1.09375,-2.9375 1.09375,-1.53125 1.09375,-0.671875 1.5625,0 2.3125,0 2.828125,0 3.25,-0.40625 3.375,-0.53125 Z M 4.015625,-3.125 3.5625,-1.3125 C 3.484375,-1 2.875,-0.21875 2.328125,-0.21875 c -0.53125,0 -0.546875,-0.765625 -0.546875,-0.875 0,-0.46875 0.296875,-1.640625 0.5,-2.109375 0.25,-0.53125 0.6875,-0.984375 1.078125,-0.984375 0.59375,0 0.6875,0.84375 0.6875,0.921875 z m 0,0"
               id="id-a940cf28-bf4c-4241-8bf3-7588b23130bb" />
          </symbol>
          <symbol
             overflow="visible"
             id="id-e5ea9651-cc3e-458b-8d11-252512789f40">
            <path
               style="stroke:none;stroke-width:0"
               d="m 2.375,-2.296875 c 0.3125,0 0.96875,-0.03125 1.453125,-0.21875 0.78125,-0.328125 0.78125,-0.96875 0.78125,-1.046875 0,-0.453125 -0.359375,-0.84375 -1,-0.84375 -1.046875,0 -2.46875,1 -2.46875,2.765625 0,0.90625 0.46875,1.75 1.421875,1.75 1.28125,0 2.109375,-1 2.109375,-1.140625 0,-0.0625 -0.09375,-0.171875 -0.171875,-0.171875 -0.03125,0 -0.046875,0.015625 -0.125,0.109375 -0.734375,0.9375 -1.625,0.984375 -1.796875,0.984375 -0.640625,0 -0.75,-0.703125 -0.75,-1.09375 0,-0.375 0.09375,-0.828125 0.171875,-1.09375 z m -0.328125,-0.21875 c 0.4375,-1.640625 1.46875,-1.671875 1.5625,-1.671875 0.390625,0 0.625,0.265625 0.625,0.609375 0,1.0625 -1.640625,1.0625 -1.96875,1.0625 z m 0,0"
               id="id-58b08183-d856-4a68-8fb5-25a89fd8309a" />
          </symbol>
        </g>
      </defs>
      <g
         id="id-c320ca3b-d7c0-4a9f-99ad-d47fbe4ea981"
         transform="translate(-149.618,-128.531)">
        <g
           style="fill:#000000;fill-opacity:1"
           id="id-40f60332-17bd-405c-a77e-65bd52cce90e">
          <g
             transform="translate(148.712,134.765)"
             id="g1440">
            <path
               style="stroke:none;stroke-width:0"
               d="M 2.59375,-3.984375 H 3.4375 c 0.171875,0 0.28125,0 0.28125,-0.1875 0,-0.125 -0.09375,-0.125 -0.25,-0.125 H 2.671875 l 0.375,-1.46875 c 0.03125,-0.140625 0.03125,-0.171875 0.03125,-0.21875 0,-0.203125 -0.171875,-0.25 -0.265625,-0.25 -0.25,0 -0.34375,0.203125 -0.390625,0.359375 L 2.03125,-4.296875 H 1.1875 c -0.171875,0 -0.28125,0 -0.28125,0.1875 0,0.125 0.09375,0.125 0.25,0.125 H 1.953125 L 1.234375,-1.125 C 1.21875,-1.09375 1.1875,-0.921875 1.1875,-0.78125 c 0,0.484375 0.328125,0.890625 0.84375,0.890625 1.015625,0 1.515625,-1.484375 1.515625,-1.53125 0,-0.109375 -0.078125,-0.109375 -0.140625,-0.109375 -0.125,0 -0.125,0.015625 -0.203125,0.203125 -0.1875,0.46875 -0.578125,1.21875 -1.15625,1.21875 -0.265625,0 -0.265625,-0.25 -0.265625,-0.40625 0,-0.078125 0,-0.234375 0.078125,-0.515625 z m 0,0"
               id="id-2ed10b16-d48e-433c-9ca2-fe457c7e6be6" />
          </g>
          <g
             transform="translate(152.022,134.765)"
             id="g1443">
            <path
               style="stroke:none;stroke-width:0"
               d="m 3.484375,-0.59375 c 0.109375,0.5 0.46875,0.703125 0.828125,0.703125 0.359375,0 0.578125,-0.25 0.71875,-0.5625 0.1875,-0.375 0.296875,-0.953125 0.296875,-0.96875 0,-0.109375 -0.078125,-0.109375 -0.140625,-0.109375 -0.125,0 -0.140625,0.015625 -0.1875,0.234375 -0.140625,0.5625 -0.328125,1.1875 -0.671875,1.1875 -0.265625,0 -0.265625,-0.265625 -0.265625,-0.40625 0,-0.078125 0,-0.234375 0.078125,-0.515625 L 4.8125,-3.734375 c 0.046875,-0.140625 0.046875,-0.15625 0.046875,-0.21875 0,-0.203125 -0.171875,-0.25 -0.28125,-0.25 -0.3125,0 -0.375,0.328125 -0.390625,0.390625 C 4,-4.25 3.671875,-4.40625 3.359375,-4.40625 c -1.109375,0 -2.28125,1.515625 -2.28125,2.96875 0,0.84375 0.453125,1.546875 1.203125,1.546875 0.359375,0 0.796875,-0.203125 1.203125,-0.703125 z m 0.53125,-2.53125 -0.46875,1.890625 c -0.078125,0.3125 -0.703125,1.125 -1.25,1.125 C 1.828125,-0.109375 1.75,-0.703125 1.75,-1 1.75,-1.5 2.0625,-2.65625 2.25,-3.078125 2.5,-3.6875 2.953125,-4.1875 3.359375,-4.1875 c 0.4375,0 0.6875,0.515625 0.6875,0.9375 0,0.015625 -0.015625,0.0625 -0.03125,0.125 z m 0,0"
               id="id-7207c089-5367-42b7-a541-d22b49990a5f" />
          </g>
          <g
             transform="translate(157.113,134.765)"
             id="g1446">
            <path
               style="stroke:none;stroke-width:0"
               d="m 2.578125,-2.875 c 0,-0.03125 0.453125,-1.3125 1.3125,-1.3125 0.046875,0 0.328125,0 0.53125,0.140625 C 4.0625,-3.9375 4.03125,-3.625 4.03125,-3.5625 c 0,0.125 0.09375,0.3125 0.359375,0.3125 0.171875,0 0.484375,-0.140625 0.484375,-0.53125 0,-0.515625 -0.640625,-0.625 -0.984375,-0.625 -0.6875,0 -1.046875,0.5 -1.203125,0.71875 -0.109375,-0.53125 -0.5,-0.71875 -0.828125,-0.71875 -0.359375,0 -0.546875,0.234375 -0.71875,0.53125 -0.1875,0.390625 -0.3125,0.984375 -0.3125,1 0,0.109375 0.09375,0.109375 0.15625,0.109375 0.125,0 0.125,-0.015625 0.1875,-0.234375 0.171875,-0.703125 0.359375,-1.1875 0.671875,-1.1875 0.265625,0 0.265625,0.296875 0.265625,0.40625 0,0.15625 -0.03125,0.34375 -0.078125,0.5 l -0.75,2.984375 c -0.015625,0.0625 -0.03125,0.125 -0.03125,0.140625 0,0.109375 0.078125,0.265625 0.28125,0.265625 0.296875,0 0.375,-0.28125 0.390625,-0.375 z m 0,0"
               id="id-c0c140b4-ffb3-4cdd-98e8-54d16f8f1fcd" />
          </g>
        </g>
        <g
           style="fill:#000000;fill-opacity:1"
           id="id-2cc5219c-bff9-45ea-9a47-79b0797c791f">
          <g
             transform="translate(160.807,134.765)"
             id="g1450">
            <path
               style="stroke:none;stroke-width:0"
               d="M 3.375,-0.53125 3.15625,0.3125 C 3.046875,0.8125 2.984375,1.015625 2.703125,1.359375 2.296875,1.828125 1.90625,1.828125 1.75,1.828125 c -0.125,0 -0.4375,0 -0.703125,-0.109375 C 1.25,1.640625 1.359375,1.421875 1.359375,1.25 c 0,-0.125 -0.078125,-0.3125 -0.34375,-0.3125 -0.171875,0 -0.484375,0.140625 -0.484375,0.53125 0,0.390625 0.359375,0.578125 1.203125,0.578125 1.046875,0 1.796875,-0.65625 2,-1.421875 L 4.8125,-3.734375 c 0.046875,-0.15625 0.046875,-0.171875 0.046875,-0.21875 0,-0.203125 -0.171875,-0.25 -0.28125,-0.25 -0.109375,0 -0.34375,0.078125 -0.375,0.359375 C 4.0625,-4.125 3.78125,-4.40625 3.359375,-4.40625 2.25,-4.40625 1.09375,-2.9375 1.09375,-1.53125 1.09375,-0.671875 1.5625,0 2.3125,0 2.828125,0 3.25,-0.40625 3.375,-0.53125 Z M 4.015625,-3.125 3.5625,-1.3125 C 3.484375,-1 2.875,-0.21875 2.328125,-0.21875 c -0.53125,0 -0.546875,-0.765625 -0.546875,-0.875 0,-0.46875 0.296875,-1.640625 0.5,-2.109375 0.25,-0.53125 0.6875,-0.984375 1.078125,-0.984375 0.59375,0 0.6875,0.84375 0.6875,0.921875 z m 0,0"
               id="id-c50307fb-44c8-4915-b979-56d67c7c52f1" />
          </g>
          <g
             transform="translate(165.389,134.765)"
             id="g1453">
            <path
               style="stroke:none;stroke-width:0"
               d="m 2.375,-2.296875 c 0.3125,0 0.96875,-0.03125 1.453125,-0.21875 0.78125,-0.328125 0.78125,-0.96875 0.78125,-1.046875 0,-0.453125 -0.359375,-0.84375 -1,-0.84375 -1.046875,0 -2.46875,1 -2.46875,2.765625 0,0.90625 0.46875,1.75 1.421875,1.75 1.28125,0 2.109375,-1 2.109375,-1.140625 0,-0.0625 -0.09375,-0.171875 -0.171875,-0.171875 -0.03125,0 -0.046875,0.015625 -0.125,0.109375 -0.734375,0.9375 -1.625,0.984375 -1.796875,0.984375 -0.640625,0 -0.75,-0.703125 -0.75,-1.09375 0,-0.375 0.09375,-0.828125 0.171875,-1.09375 z m -0.328125,-0.21875 c 0.4375,-1.640625 1.46875,-1.671875 1.5625,-1.671875 0.390625,0 0.625,0.265625 0.625,0.609375 0,1.0625 -1.640625,1.0625 -1.96875,1.0625 z m 0,0"
               id="id-35ee929f-f0e9-4a96-b48d-022cffe0a765" />
          </g>
          <g
             transform="translate(169.972,134.765)"
             id="g1456">
            <path
               style="stroke:none;stroke-width:0"
               d="M 2.59375,-3.984375 H 3.4375 c 0.171875,0 0.28125,0 0.28125,-0.1875 0,-0.125 -0.09375,-0.125 -0.25,-0.125 H 2.671875 l 0.375,-1.46875 c 0.03125,-0.140625 0.03125,-0.171875 0.03125,-0.21875 0,-0.203125 -0.171875,-0.25 -0.265625,-0.25 -0.25,0 -0.34375,0.203125 -0.390625,0.359375 L 2.03125,-4.296875 H 1.1875 c -0.171875,0 -0.28125,0 -0.28125,0.1875 0,0.125 0.09375,0.125 0.25,0.125 H 1.953125 L 1.234375,-1.125 C 1.21875,-1.09375 1.1875,-0.921875 1.1875,-0.78125 c 0,0.484375 0.328125,0.890625 0.84375,0.890625 1.015625,0 1.515625,-1.484375 1.515625,-1.53125 0,-0.109375 -0.078125,-0.109375 -0.140625,-0.109375 -0.125,0 -0.125,0.015625 -0.203125,0.203125 -0.1875,0.46875 -0.578125,1.21875 -1.15625,1.21875 -0.265625,0 -0.265625,-0.25 -0.265625,-0.40625 0,-0.078125 0,-0.234375 0.078125,-0.515625 z m 0,0"
               id="id-f5f0d0aa-0003-4e1a-b4d5-f130f79e7dd0" />
          </g>
        </g>
      </g>
    </g>
    <g
       transform="matrix(0.55853776,0,0,0.55853776,52.246999,3.6822916)"
       ns6:version="1.3.1"
       ns6:texconverter="pdflatex"
       ns6:pdfconverter="inkscape"
       ns6:text="${\\textit{event}}$\n"
       ns6:preamble="/Users/ketiboldiais/Library/Application Support/org.inkscape.Inkscape/config/inkscape/extensions/circuitSymbols/circuitSymbolsPreamble.tex"
       ns6:scale="0.7910384785605061"
       ns6:alignment="middle center"
       ns6:inkscapeversion="1.1"
       ns6:jacobian_sqrt="0.279061"
       id="g1361">
      <defs
         id="id-db93404a-bb1f-4951-b5bf-dd678a9bab29">
        <g
           id="id-263bcde4-0c66-4785-8f8d-ef227df950bc">
          <symbol
             overflow="visible"
             id="id-42703088-e89f-4bd9-a80c-066af5d11daf">
            <path
               style="stroke:none;stroke-width:0"
               d=""
               id="id-3d556867-40c2-413c-bb90-f6c727da1742" />
          </symbol>
          <symbol
             overflow="visible"
             id="id-fc481817-85c4-4c42-b10e-27375f8b1eea">
            <path
               style="stroke:none;stroke-width:0"
               d="m 2.375,-2.296875 c 0.3125,0 0.96875,-0.03125 1.453125,-0.21875 0.78125,-0.328125 0.78125,-0.96875 0.78125,-1.046875 0,-0.453125 -0.359375,-0.84375 -1,-0.84375 -1.046875,0 -2.46875,1 -2.46875,2.765625 0,0.90625 0.46875,1.75 1.421875,1.75 1.28125,0 2.109375,-1 2.109375,-1.140625 0,-0.0625 -0.09375,-0.171875 -0.171875,-0.171875 -0.03125,0 -0.046875,0.015625 -0.125,0.109375 -0.734375,0.9375 -1.625,0.984375 -1.796875,0.984375 -0.640625,0 -0.75,-0.703125 -0.75,-1.09375 0,-0.375 0.09375,-0.828125 0.171875,-1.09375 z m -0.328125,-0.21875 c 0.4375,-1.640625 1.46875,-1.671875 1.5625,-1.671875 0.390625,0 0.625,0.265625 0.625,0.609375 0,1.0625 -1.640625,1.0625 -1.96875,1.0625 z m 0,0"
               id="id-bcfc1b1b-b7f8-4b3b-821e-f6bd951dda91" />
          </symbol>
          <symbol
             overflow="visible"
             id="id-08e745f8-f733-4a3d-8c0d-9d54144aff7d">
            <path
               style="stroke:none;stroke-width:0"
               d="m 4.921875,-3.75 c 0,-0.34375 -0.125,-0.65625 -0.421875,-0.65625 -0.21875,0 -0.46875,0.234375 -0.46875,0.453125 0,0.140625 0.0625,0.203125 0.125,0.28125 0.234375,0.25 0.265625,0.578125 0.265625,0.78125 0,0.28125 -0.46875,2.78125 -1.609375,2.78125 -0.546875,0 -0.65625,-0.5 -0.65625,-0.828125 0,-0.578125 0.328125,-1.4375 0.59375,-2.15625 0.046875,-0.171875 0.109375,-0.3125 0.109375,-0.5 0,-0.5 -0.328125,-0.8125 -0.75,-0.8125 -0.9375,0 -1.28125,1.46875 -1.28125,1.53125 0,0.109375 0.09375,0.109375 0.15625,0.109375 0.125,0 0.125,-0.03125 0.171875,-0.171875 0.078125,-0.296875 0.34375,-1.25 0.921875,-1.25 0.109375,0 0.21875,0.03125 0.21875,0.296875 0,0.234375 -0.09375,0.5 -0.234375,0.890625 -0.3125,0.84375 -0.5,1.4375 -0.5,1.90625 0,0.921875 0.625,1.203125 1.21875,1.203125 1.671875,0 2.140625,-3.59375 2.140625,-3.859375 z m 0,0"
               id="id-8b2656dc-5f31-4e8f-a027-289e6d0979c3" />
          </symbol>
          <symbol
             overflow="visible"
             id="id-5f0aa93a-2d01-4f77-88c0-0daf51ea6082">
            <path
               style="stroke:none;stroke-width:0"
               d="M 2.296875,-1.75 C 2.34375,-1.96875 2.40625,-2.171875 2.453125,-2.390625 2.578125,-2.90625 2.578125,-2.90625 2.75,-3.203125 2.890625,-3.4375 3.34375,-4.1875 4.09375,-4.1875 c 0.4375,0 0.46875,0.453125 0.46875,0.65625 0,0.625 -0.453125,1.8125 -0.578125,2.203125 -0.140625,0.34375 -0.171875,0.4375 -0.171875,0.640625 0,0.4375 0.28125,0.796875 0.765625,0.796875 0.921875,0 1.265625,-1.484375 1.265625,-1.53125 0,-0.109375 -0.078125,-0.109375 -0.15625,-0.109375 -0.125,0 -0.125,0.03125 -0.171875,0.171875 -0.078125,0.265625 -0.34375,1.25 -0.921875,1.25 -0.203125,0 -0.21875,-0.15625 -0.21875,-0.296875 0,-0.234375 0.09375,-0.5 0.1875,-0.734375 0.1875,-0.53125 0.59375,-1.65625 0.59375,-2.234375 0,-0.8125 -0.546875,-1.03125 -1.03125,-1.03125 -0.8125,0 -1.296875,0.59375 -1.421875,0.78125 C 2.625,-4.109375 2.296875,-4.40625 1.859375,-4.40625 1.5,-4.40625 1.3125,-4.171875 1.140625,-3.875 c -0.1875,0.390625 -0.3125,0.984375 -0.3125,1 0,0.109375 0.09375,0.109375 0.15625,0.109375 0.125,0 0.125,-0.015625 0.1875,-0.234375 0.171875,-0.703125 0.359375,-1.1875 0.671875,-1.1875 0.265625,0 0.265625,0.296875 0.265625,0.40625 0,0.15625 -0.03125,0.34375 -0.078125,0.5 l -0.75,2.984375 c -0.015625,0.0625 -0.03125,0.125 -0.03125,0.140625 0,0.109375 0.078125,0.265625 0.28125,0.265625 0.125,0 0.296875,-0.0625 0.359375,-0.265625 z m 0,0"
               id="id-e2ac34d7-c5b8-4e74-8bc7-7f73f2bd8029" />
          </symbol>
          <symbol
             overflow="visible"
             id="id-b0bfc482-229b-48d9-9617-784ed5468096">
            <path
               style="stroke:none;stroke-width:0"
               d="M 2.59375,-3.984375 H 3.4375 c 0.171875,0 0.28125,0 0.28125,-0.1875 0,-0.125 -0.09375,-0.125 -0.25,-0.125 H 2.671875 l 0.375,-1.46875 c 0.03125,-0.140625 0.03125,-0.171875 0.03125,-0.21875 0,-0.203125 -0.171875,-0.25 -0.265625,-0.25 -0.25,0 -0.34375,0.203125 -0.390625,0.359375 L 2.03125,-4.296875 H 1.1875 c -0.171875,0 -0.28125,0 -0.28125,0.1875 0,0.125 0.09375,0.125 0.25,0.125 H 1.953125 L 1.234375,-1.125 C 1.21875,-1.09375 1.1875,-0.921875 1.1875,-0.78125 c 0,0.484375 0.328125,0.890625 0.84375,0.890625 1.015625,0 1.515625,-1.484375 1.515625,-1.53125 0,-0.109375 -0.078125,-0.109375 -0.140625,-0.109375 -0.125,0 -0.125,0.015625 -0.203125,0.203125 -0.1875,0.46875 -0.578125,1.21875 -1.15625,1.21875 -0.265625,0 -0.265625,-0.25 -0.265625,-0.40625 0,-0.078125 0,-0.234375 0.078125,-0.515625 z m 0,0"
               id="id-009a6505-ec59-4878-ba20-ee139a554157" />
          </symbol>
        </g>
      </defs>
      <g
         id="id-8f98c971-fd0e-41cd-823c-e5415131fcf5"
         transform="translate(-149.853,-128.531)">
        <g
           style="fill:#000000;fill-opacity:1"
           id="id-078e3131-5b5b-45d5-8743-f052574be519">
          <g
             transform="translate(148.712,134.765)"
             id="g1345">
            <path
               style="stroke:none;stroke-width:0"
               d="m 2.375,-2.296875 c 0.3125,0 0.96875,-0.03125 1.453125,-0.21875 0.78125,-0.328125 0.78125,-0.96875 0.78125,-1.046875 0,-0.453125 -0.359375,-0.84375 -1,-0.84375 -1.046875,0 -2.46875,1 -2.46875,2.765625 0,0.90625 0.46875,1.75 1.421875,1.75 1.28125,0 2.109375,-1 2.109375,-1.140625 0,-0.0625 -0.09375,-0.171875 -0.171875,-0.171875 -0.03125,0 -0.046875,0.015625 -0.125,0.109375 -0.734375,0.9375 -1.625,0.984375 -1.796875,0.984375 -0.640625,0 -0.75,-0.703125 -0.75,-1.09375 0,-0.375 0.09375,-0.828125 0.171875,-1.09375 z m -0.328125,-0.21875 c 0.4375,-1.640625 1.46875,-1.671875 1.5625,-1.671875 0.390625,0 0.625,0.265625 0.625,0.609375 0,1.0625 -1.640625,1.0625 -1.96875,1.0625 z m 0,0"
               id="id-c72cb0bf-e9b5-4ae0-a1ae-70075ae6a75e" />
          </g>
          <g
             transform="translate(153.295,134.765)"
             id="g1348">
            <path
               style="stroke:none;stroke-width:0"
               d="m 4.921875,-3.75 c 0,-0.34375 -0.125,-0.65625 -0.421875,-0.65625 -0.21875,0 -0.46875,0.234375 -0.46875,0.453125 0,0.140625 0.0625,0.203125 0.125,0.28125 0.234375,0.25 0.265625,0.578125 0.265625,0.78125 0,0.28125 -0.46875,2.78125 -1.609375,2.78125 -0.546875,0 -0.65625,-0.5 -0.65625,-0.828125 0,-0.578125 0.328125,-1.4375 0.59375,-2.15625 0.046875,-0.171875 0.109375,-0.3125 0.109375,-0.5 0,-0.5 -0.328125,-0.8125 -0.75,-0.8125 -0.9375,0 -1.28125,1.46875 -1.28125,1.53125 0,0.109375 0.09375,0.109375 0.15625,0.109375 0.125,0 0.125,-0.03125 0.171875,-0.171875 0.078125,-0.296875 0.34375,-1.25 0.921875,-1.25 0.109375,0 0.21875,0.03125 0.21875,0.296875 0,0.234375 -0.09375,0.5 -0.234375,0.890625 -0.3125,0.84375 -0.5,1.4375 -0.5,1.90625 0,0.921875 0.625,1.203125 1.21875,1.203125 1.671875,0 2.140625,-3.59375 2.140625,-3.859375 z m 0,0"
               id="id-17696ca1-af41-4d96-a303-02be1633fd7f" />
          </g>
          <g
             transform="translate(157.878,134.765)"
             id="g1351">
            <path
               style="stroke:none;stroke-width:0"
               d="m 2.375,-2.296875 c 0.3125,0 0.96875,-0.03125 1.453125,-0.21875 0.78125,-0.328125 0.78125,-0.96875 0.78125,-1.046875 0,-0.453125 -0.359375,-0.84375 -1,-0.84375 -1.046875,0 -2.46875,1 -2.46875,2.765625 0,0.90625 0.46875,1.75 1.421875,1.75 1.28125,0 2.109375,-1 2.109375,-1.140625 0,-0.0625 -0.09375,-0.171875 -0.171875,-0.171875 -0.03125,0 -0.046875,0.015625 -0.125,0.109375 -0.734375,0.9375 -1.625,0.984375 -1.796875,0.984375 -0.640625,0 -0.75,-0.703125 -0.75,-1.09375 0,-0.375 0.09375,-0.828125 0.171875,-1.09375 z m -0.328125,-0.21875 c 0.4375,-1.640625 1.46875,-1.671875 1.5625,-1.671875 0.390625,0 0.625,0.265625 0.625,0.609375 0,1.0625 -1.640625,1.0625 -1.96875,1.0625 z m 0,0"
               id="id-a55dd40f-adfc-4eaf-85b1-0525affb992a" />
          </g>
          <g
             transform="translate(162.46,134.765)"
             id="g1354">
            <path
               style="stroke:none;stroke-width:0"
               d="M 2.296875,-1.75 C 2.34375,-1.96875 2.40625,-2.171875 2.453125,-2.390625 2.578125,-2.90625 2.578125,-2.90625 2.75,-3.203125 2.890625,-3.4375 3.34375,-4.1875 4.09375,-4.1875 c 0.4375,0 0.46875,0.453125 0.46875,0.65625 0,0.625 -0.453125,1.8125 -0.578125,2.203125 -0.140625,0.34375 -0.171875,0.4375 -0.171875,0.640625 0,0.4375 0.28125,0.796875 0.765625,0.796875 0.921875,0 1.265625,-1.484375 1.265625,-1.53125 0,-0.109375 -0.078125,-0.109375 -0.15625,-0.109375 -0.125,0 -0.125,0.03125 -0.171875,0.171875 -0.078125,0.265625 -0.34375,1.25 -0.921875,1.25 -0.203125,0 -0.21875,-0.15625 -0.21875,-0.296875 0,-0.234375 0.09375,-0.5 0.1875,-0.734375 0.1875,-0.53125 0.59375,-1.65625 0.59375,-2.234375 0,-0.8125 -0.546875,-1.03125 -1.03125,-1.03125 -0.8125,0 -1.296875,0.59375 -1.421875,0.78125 C 2.625,-4.109375 2.296875,-4.40625 1.859375,-4.40625 1.5,-4.40625 1.3125,-4.171875 1.140625,-3.875 c -0.1875,0.390625 -0.3125,0.984375 -0.3125,1 0,0.109375 0.09375,0.109375 0.15625,0.109375 0.125,0 0.125,-0.015625 0.1875,-0.234375 0.171875,-0.703125 0.359375,-1.1875 0.671875,-1.1875 0.265625,0 0.265625,0.296875 0.265625,0.40625 0,0.15625 -0.03125,0.34375 -0.078125,0.5 l -0.75,2.984375 c -0.015625,0.0625 -0.03125,0.125 -0.03125,0.140625 0,0.109375 0.078125,0.265625 0.28125,0.265625 0.125,0 0.296875,-0.0625 0.359375,-0.265625 z m 0,0"
               id="id-e3324fbe-4fdd-4e28-aa7e-044137adbfaf" />
          </g>
          <g
             transform="translate(168.061,134.765)"
             id="g1357">
            <path
               style="stroke:none;stroke-width:0"
               d="M 2.59375,-3.984375 H 3.4375 c 0.171875,0 0.28125,0 0.28125,-0.1875 0,-0.125 -0.09375,-0.125 -0.25,-0.125 H 2.671875 l 0.375,-1.46875 c 0.03125,-0.140625 0.03125,-0.171875 0.03125,-0.21875 0,-0.203125 -0.171875,-0.25 -0.265625,-0.25 -0.25,0 -0.34375,0.203125 -0.390625,0.359375 L 2.03125,-4.296875 H 1.1875 c -0.171875,0 -0.28125,0 -0.28125,0.1875 0,0.125 0.09375,0.125 0.25,0.125 H 1.953125 L 1.234375,-1.125 C 1.21875,-1.09375 1.1875,-0.921875 1.1875,-0.78125 c 0,0.484375 0.328125,0.890625 0.84375,0.890625 1.015625,0 1.515625,-1.484375 1.515625,-1.53125 0,-0.109375 -0.078125,-0.109375 -0.140625,-0.109375 -0.125,0 -0.125,0.015625 -0.203125,0.203125 -0.1875,0.46875 -0.578125,1.21875 -1.15625,1.21875 -0.265625,0 -0.265625,-0.25 -0.265625,-0.40625 0,-0.078125 0,-0.234375 0.078125,-0.515625 z m 0,0"
               id="id-728f2179-d958-4c95-91a6-3334470b4fb0" />
          </g>
        </g>
      </g>
    </g>
    <g
       transform="matrix(0.54366651,0,0,0.54366651,91.890115,3.542291)"
       ns6:version="1.3.1"
       ns6:texconverter="pdflatex"
       ns6:pdfconverter="inkscape"
       ns6:text="${\\textit{callback}}$\n"
       ns6:preamble="/Users/ketiboldiais/Library/Application Support/org.inkscape.Inkscape/config/inkscape/extensions/circuitSymbols/circuitSymbolsPreamble.tex"
       ns6:scale="0.7910384785605061"
       ns6:alignment="middle center"
       ns6:inkscapeversion="1.1"
       ns6:jacobian_sqrt="0.279061"
       id="g1380">
      <defs
         id="id-e7773d7e-c19c-4a57-9d4b-3bec86dd2027">
        <g
           id="id-09909d36-dfc5-4db1-b222-ae01a9553194">
          <symbol
             overflow="visible"
             id="id-1862c54f-0b21-4af4-984d-3d5da01ec82f">
            <path
               style="stroke:none;stroke-width:0"
               d=""
               id="id-176450ef-73e1-4ba2-8f1a-55babe277c74" />
          </symbol>
          <symbol
             overflow="visible"
             id="id-a31e57ce-fea9-4994-83f7-fadd38082144">
            <path
               style="stroke:none;stroke-width:0"
               d="m 4.34375,-3.765625 c -0.5,0.0625 -0.5,0.46875 -0.5,0.5 0,0.15625 0.109375,0.3125 0.328125,0.3125 0.28125,0 0.515625,-0.21875 0.515625,-0.59375 0,-0.484375 -0.4375,-0.859375 -1.0625,-0.859375 -1.25,0 -2.53125,1.421875 -2.53125,2.875 0,0.984375 0.59375,1.640625 1.46875,1.640625 1.28125,0 2.109375,-1 2.109375,-1.140625 0,-0.0625 -0.09375,-0.171875 -0.171875,-0.171875 -0.03125,0 -0.046875,0.015625 -0.125,0.109375 -0.734375,0.9375 -1.625,0.984375 -1.796875,0.984375 -0.53125,0 -0.78125,-0.453125 -0.78125,-1.03125 0,-0.53125 0.265625,-1.578125 0.53125,-2.046875 0.359375,-0.65625 0.859375,-1 1.296875,-1 0.109375,0 0.5625,0.015625 0.71875,0.421875 z m 0,0"
               id="id-90142b5d-d9cb-4302-af01-f9652daae89f" />
          </symbol>
          <symbol
             overflow="visible"
             id="id-3c41c439-cc8b-42ff-969b-d2785011f5bd">
            <path
               style="stroke:none;stroke-width:0"
               d="m 3.484375,-0.59375 c 0.109375,0.5 0.46875,0.703125 0.828125,0.703125 0.359375,0 0.578125,-0.25 0.71875,-0.5625 0.1875,-0.375 0.296875,-0.953125 0.296875,-0.96875 0,-0.109375 -0.078125,-0.109375 -0.140625,-0.109375 -0.125,0 -0.140625,0.015625 -0.1875,0.234375 -0.140625,0.5625 -0.328125,1.1875 -0.671875,1.1875 -0.265625,0 -0.265625,-0.265625 -0.265625,-0.40625 0,-0.078125 0,-0.234375 0.078125,-0.515625 L 4.8125,-3.734375 c 0.046875,-0.140625 0.046875,-0.15625 0.046875,-0.21875 0,-0.203125 -0.171875,-0.25 -0.28125,-0.25 -0.3125,0 -0.375,0.328125 -0.390625,0.390625 C 4,-4.25 3.671875,-4.40625 3.359375,-4.40625 c -1.109375,0 -2.28125,1.515625 -2.28125,2.96875 0,0.84375 0.453125,1.546875 1.203125,1.546875 0.359375,0 0.796875,-0.203125 1.203125,-0.703125 z m 0.53125,-2.53125 -0.46875,1.890625 c -0.078125,0.3125 -0.703125,1.125 -1.25,1.125 C 1.828125,-0.109375 1.75,-0.703125 1.75,-1 1.75,-1.5 2.0625,-2.65625 2.25,-3.078125 2.5,-3.6875 2.953125,-4.1875 3.359375,-4.1875 c 0.4375,0 0.6875,0.515625 0.6875,0.9375 0,0.015625 -0.015625,0.0625 -0.03125,0.125 z m 0,0"
               id="id-fb1a98cd-cbcc-4e2f-be99-a804f767df77" />
          </symbol>
          <symbol
             overflow="visible"
             id="id-dec354af-a928-4350-9b67-3ceac039983e">
            <path
               style="stroke:none;stroke-width:0"
               d="m 3.015625,-6.671875 c 0.015625,-0.03125 0.03125,-0.109375 0.03125,-0.125 0,-0.09375 -0.0625,-0.125 -0.140625,-0.125 -0.03125,0 -0.125,0.015625 -0.15625,0.03125 L 1.765625,-6.8125 c -0.125,0 -0.234375,0.015625 -0.234375,0.203125 0,0.109375 0.109375,0.109375 0.25,0.109375 0.46875,0 0.484375,0.0625 0.484375,0.171875 0,0.03125 -0.015625,0.15625 -0.015625,0.171875 L 1,-1.171875 c -0.015625,0.03125 -0.0625,0.234375 -0.0625,0.390625 0,0.515625 0.359375,0.890625 0.84375,0.890625 0.375,0 0.578125,-0.265625 0.703125,-0.515625 0.171875,-0.34375 0.3125,-0.984375 0.3125,-1.015625 0,-0.109375 -0.078125,-0.109375 -0.15625,-0.109375 -0.046875,0 -0.109375,0 -0.140625,0.0625 l -0.0625,0.25 c -0.171875,0.6875 -0.359375,1.109375 -0.640625,1.109375 -0.265625,0 -0.265625,-0.265625 -0.265625,-0.40625 0,-0.078125 0,-0.21875 0.0625,-0.46875 z m 0,0"
               id="id-937525f2-70cd-4f18-b6a9-6a87d75cee8c" />
          </symbol>
          <symbol
             overflow="visible"
             id="id-fb849f6b-7aa1-4e83-bcf8-fda4561d295f">
            <path
               style="stroke:none;stroke-width:0"
               d="m 3.015625,-6.671875 c 0.015625,-0.03125 0.03125,-0.109375 0.03125,-0.125 0,-0.09375 -0.0625,-0.125 -0.140625,-0.125 -0.03125,0 -0.125,0.015625 -0.15625,0.03125 L 1.765625,-6.8125 c -0.125,0 -0.234375,0.015625 -0.234375,0.203125 0,0.109375 0.109375,0.109375 0.25,0.109375 0.46875,0 0.484375,0.0625 0.484375,0.171875 0,0.03125 -0.015625,0.15625 -0.015625,0.171875 l -1,3.9375 c 0,0.03125 -0.109375,0.4375 -0.109375,0.8125 0,0.84375 0.421875,1.515625 1.15625,1.515625 1.109375,0 2.28125,-1.5 2.28125,-2.953125 0,-1.078125 -0.59375,-1.5625 -1.203125,-1.5625 -0.375,0 -0.71875,0.203125 -1.046875,0.53125 z m -0.71875,6.5625 c -0.25,0 -0.578125,-0.203125 -0.578125,-0.953125 0,-0.4375 0.078125,-0.796875 0.375,-1.921875 0.0625,-0.25 0.0625,-0.265625 0.21875,-0.46875 C 2.609375,-3.84375 2.984375,-4.1875 3.359375,-4.1875 c 0.453125,0 0.546875,0.5625 0.546875,0.890625 0,0.421875 -0.265625,1.609375 -0.5625,2.234375 -0.109375,0.25 -0.546875,0.953125 -1.046875,0.953125 z m 0,0"
               id="id-f274330e-e8de-4297-ba2b-d5bc6290f3a6" />
          </symbol>
          <symbol
             overflow="visible"
             id="id-e7601bbe-fe40-49b7-b20e-337f913f7b13">
            <path
               style="stroke:none;stroke-width:0"
               d="m 3.015625,-6.671875 c 0.015625,-0.03125 0.03125,-0.109375 0.03125,-0.125 0,-0.09375 -0.0625,-0.125 -0.140625,-0.125 -0.03125,0 -0.125,0.015625 -0.15625,0.03125 L 1.765625,-6.8125 c -0.125,0 -0.234375,0.015625 -0.234375,0.203125 0,0.109375 0.109375,0.109375 0.25,0.109375 0.46875,0 0.484375,0.0625 0.484375,0.171875 0,0.03125 -0.015625,0.15625 -0.015625,0.171875 l -1.484375,5.875 C 0.75,-0.265625 0.75,-0.171875 0.75,-0.15625 c 0,0.109375 0.09375,0.265625 0.28125,0.265625 0.296875,0 0.359375,-0.28125 0.390625,-0.375 l 0.5,-2.015625 c 0.375,0.046875 1.015625,0.25 1.015625,0.828125 0,0.078125 0,0.125 -0.03125,0.25 -0.046875,0.171875 -0.046875,0.25 -0.046875,0.34375 0,0.71875 0.46875,0.96875 0.84375,0.96875 0.4375,0 0.65625,-0.328125 0.765625,-0.515625 0.21875,-0.375 0.359375,-0.984375 0.359375,-1.015625 0,-0.109375 -0.078125,-0.109375 -0.15625,-0.109375 -0.109375,0 -0.125,0.015625 -0.1875,0.234375 -0.125,0.515625 -0.3125,1.1875 -0.75,1.1875 -0.28125,0 -0.296875,-0.234375 -0.296875,-0.421875 0,-0.234375 0.078125,-0.515625 0.078125,-0.5625 C 3.5625,-1.3125 3.5625,-1.3125 3.5625,-1.453125 3.5625,-2.125 2.875,-2.390625 2.25,-2.484375 2.46875,-2.625 2.6875,-2.828125 2.953125,-3.140625 3.46875,-3.734375 3.859375,-4.1875 4.359375,-4.1875 c 0.1875,0 0.25,0.109375 0.265625,0.125 -0.421875,0.0625 -0.46875,0.40625 -0.46875,0.5 0,0.125 0.09375,0.3125 0.34375,0.3125 0.21875,0 0.5,-0.171875 0.5,-0.5625 0,-0.25 -0.171875,-0.59375 -0.625,-0.59375 -0.53125,0 -0.953125,0.421875 -1.296875,0.8125 C 2.515625,-2.9375 2.359375,-2.765625 2,-2.609375 Z m 0,0"
               id="id-9bdd0481-2ef4-46cd-aa6c-a72d5dca08c7" />
          </symbol>
        </g>
      </defs>
      <g
         id="id-65a82933-4b21-4abe-bcf5-d717e0f3813d"
         transform="translate(-149.806,-127.843)">
        <g
           style="fill:#000000;fill-opacity:1"
           id="id-d76082b3-e7bd-4a5f-91fb-2ff318905551">
          <g
             transform="translate(148.712,134.765)"
             id="g1352">
            <path
               style="stroke:none;stroke-width:0"
               d="m 4.34375,-3.765625 c -0.5,0.0625 -0.5,0.46875 -0.5,0.5 0,0.15625 0.109375,0.3125 0.328125,0.3125 0.28125,0 0.515625,-0.21875 0.515625,-0.59375 0,-0.484375 -0.4375,-0.859375 -1.0625,-0.859375 -1.25,0 -2.53125,1.421875 -2.53125,2.875 0,0.984375 0.59375,1.640625 1.46875,1.640625 1.28125,0 2.109375,-1 2.109375,-1.140625 0,-0.0625 -0.09375,-0.171875 -0.171875,-0.171875 -0.03125,0 -0.046875,0.015625 -0.125,0.109375 -0.734375,0.9375 -1.625,0.984375 -1.796875,0.984375 -0.53125,0 -0.78125,-0.453125 -0.78125,-1.03125 0,-0.53125 0.265625,-1.578125 0.53125,-2.046875 0.359375,-0.65625 0.859375,-1 1.296875,-1 0.109375,0 0.5625,0.015625 0.71875,0.421875 z m 0,0"
               id="id-cbe93d0e-8dd8-4242-8f21-d150f705e7fe" />
          </g>
        </g>
        <g
           style="fill:#000000;fill-opacity:1"
           id="id-c35d688f-eed6-44ab-997a-4ea261243563">
          <g
             transform="translate(152.787,134.765)"
             id="g1356">
            <path
               style="stroke:none;stroke-width:0"
               d="m 3.484375,-0.59375 c 0.109375,0.5 0.46875,0.703125 0.828125,0.703125 0.359375,0 0.578125,-0.25 0.71875,-0.5625 0.1875,-0.375 0.296875,-0.953125 0.296875,-0.96875 0,-0.109375 -0.078125,-0.109375 -0.140625,-0.109375 -0.125,0 -0.140625,0.015625 -0.1875,0.234375 -0.140625,0.5625 -0.328125,1.1875 -0.671875,1.1875 -0.265625,0 -0.265625,-0.265625 -0.265625,-0.40625 0,-0.078125 0,-0.234375 0.078125,-0.515625 L 4.8125,-3.734375 c 0.046875,-0.140625 0.046875,-0.15625 0.046875,-0.21875 0,-0.203125 -0.171875,-0.25 -0.28125,-0.25 -0.3125,0 -0.375,0.328125 -0.390625,0.390625 C 4,-4.25 3.671875,-4.40625 3.359375,-4.40625 c -1.109375,0 -2.28125,1.515625 -2.28125,2.96875 0,0.84375 0.453125,1.546875 1.203125,1.546875 0.359375,0 0.796875,-0.203125 1.203125,-0.703125 z m 0.53125,-2.53125 -0.46875,1.890625 c -0.078125,0.3125 -0.703125,1.125 -1.25,1.125 C 1.828125,-0.109375 1.75,-0.703125 1.75,-1 1.75,-1.5 2.0625,-2.65625 2.25,-3.078125 2.5,-3.6875 2.953125,-4.1875 3.359375,-4.1875 c 0.4375,0 0.6875,0.515625 0.6875,0.9375 0,0.015625 -0.015625,0.0625 -0.03125,0.125 z m 0,0"
               id="id-c562a580-48e8-4ac1-9994-fe9894784a76" />
          </g>
          <g
             transform="translate(157.879,134.765)"
             id="g1359">
            <path
               style="stroke:none;stroke-width:0"
               d="m 3.015625,-6.671875 c 0.015625,-0.03125 0.03125,-0.109375 0.03125,-0.125 0,-0.09375 -0.0625,-0.125 -0.140625,-0.125 -0.03125,0 -0.125,0.015625 -0.15625,0.03125 L 1.765625,-6.8125 c -0.125,0 -0.234375,0.015625 -0.234375,0.203125 0,0.109375 0.109375,0.109375 0.25,0.109375 0.46875,0 0.484375,0.0625 0.484375,0.171875 0,0.03125 -0.015625,0.15625 -0.015625,0.171875 L 1,-1.171875 c -0.015625,0.03125 -0.0625,0.234375 -0.0625,0.390625 0,0.515625 0.359375,0.890625 0.84375,0.890625 0.375,0 0.578125,-0.265625 0.703125,-0.515625 0.171875,-0.34375 0.3125,-0.984375 0.3125,-1.015625 0,-0.109375 -0.078125,-0.109375 -0.15625,-0.109375 -0.046875,0 -0.109375,0 -0.140625,0.0625 l -0.0625,0.25 c -0.171875,0.6875 -0.359375,1.109375 -0.640625,1.109375 -0.265625,0 -0.265625,-0.265625 -0.265625,-0.40625 0,-0.078125 0,-0.21875 0.0625,-0.46875 z m 0,0"
               id="id-779fdf29-47bf-4f50-9c6f-7942bff9ba45" />
          </g>
        </g>
        <g
           style="fill:#000000;fill-opacity:1"
           id="id-02a8058c-e397-4ec4-9d6b-659af8853ba2">
          <g
             transform="translate(160.933,134.765)"
             id="g1363">
            <path
               style="stroke:none;stroke-width:0"
               d="m 3.015625,-6.671875 c 0.015625,-0.03125 0.03125,-0.109375 0.03125,-0.125 0,-0.09375 -0.0625,-0.125 -0.140625,-0.125 -0.03125,0 -0.125,0.015625 -0.15625,0.03125 L 1.765625,-6.8125 c -0.125,0 -0.234375,0.015625 -0.234375,0.203125 0,0.109375 0.109375,0.109375 0.25,0.109375 0.46875,0 0.484375,0.0625 0.484375,0.171875 0,0.03125 -0.015625,0.15625 -0.015625,0.171875 L 1,-1.171875 c -0.015625,0.03125 -0.0625,0.234375 -0.0625,0.390625 0,0.515625 0.359375,0.890625 0.84375,0.890625 0.375,0 0.578125,-0.265625 0.703125,-0.515625 0.171875,-0.34375 0.3125,-0.984375 0.3125,-1.015625 0,-0.109375 -0.078125,-0.109375 -0.15625,-0.109375 -0.046875,0 -0.109375,0 -0.140625,0.0625 l -0.0625,0.25 c -0.171875,0.6875 -0.359375,1.109375 -0.640625,1.109375 -0.265625,0 -0.265625,-0.265625 -0.265625,-0.40625 0,-0.078125 0,-0.21875 0.0625,-0.46875 z m 0,0"
               id="id-24159174-7d9b-41ba-a865-18fec581e561" />
          </g>
          <g
             transform="translate(163.48,134.765)"
             id="g1366">
            <path
               style="stroke:none;stroke-width:0"
               d="m 3.015625,-6.671875 c 0.015625,-0.03125 0.03125,-0.109375 0.03125,-0.125 0,-0.09375 -0.0625,-0.125 -0.140625,-0.125 -0.03125,0 -0.125,0.015625 -0.15625,0.03125 L 1.765625,-6.8125 c -0.125,0 -0.234375,0.015625 -0.234375,0.203125 0,0.109375 0.109375,0.109375 0.25,0.109375 0.46875,0 0.484375,0.0625 0.484375,0.171875 0,0.03125 -0.015625,0.15625 -0.015625,0.171875 l -1,3.9375 c 0,0.03125 -0.109375,0.4375 -0.109375,0.8125 0,0.84375 0.421875,1.515625 1.15625,1.515625 1.109375,0 2.28125,-1.5 2.28125,-2.953125 0,-1.078125 -0.59375,-1.5625 -1.203125,-1.5625 -0.375,0 -0.71875,0.203125 -1.046875,0.53125 z m -0.71875,6.5625 c -0.25,0 -0.578125,-0.203125 -0.578125,-0.953125 0,-0.4375 0.078125,-0.796875 0.375,-1.921875 0.0625,-0.25 0.0625,-0.265625 0.21875,-0.46875 C 2.609375,-3.84375 2.984375,-4.1875 3.359375,-4.1875 c 0.453125,0 0.546875,0.5625 0.546875,0.890625 0,0.421875 -0.265625,1.609375 -0.5625,2.234375 -0.109375,0.25 -0.546875,0.953125 -1.046875,0.953125 z m 0,0"
               id="id-60aee378-cdba-4586-b87c-e8bb0a3320dc" />
          </g>
        </g>
        <g
           style="fill:#000000;fill-opacity:1"
           id="id-a6796819-7601-449c-9290-8de9ecd4f4a5">
          <g
             transform="translate(167.554,134.765)"
             id="g1370">
            <path
               style="stroke:none;stroke-width:0"
               d="m 3.484375,-0.59375 c 0.109375,0.5 0.46875,0.703125 0.828125,0.703125 0.359375,0 0.578125,-0.25 0.71875,-0.5625 0.1875,-0.375 0.296875,-0.953125 0.296875,-0.96875 0,-0.109375 -0.078125,-0.109375 -0.140625,-0.109375 -0.125,0 -0.140625,0.015625 -0.1875,0.234375 -0.140625,0.5625 -0.328125,1.1875 -0.671875,1.1875 -0.265625,0 -0.265625,-0.265625 -0.265625,-0.40625 0,-0.078125 0,-0.234375 0.078125,-0.515625 L 4.8125,-3.734375 c 0.046875,-0.140625 0.046875,-0.15625 0.046875,-0.21875 0,-0.203125 -0.171875,-0.25 -0.28125,-0.25 -0.3125,0 -0.375,0.328125 -0.390625,0.390625 C 4,-4.25 3.671875,-4.40625 3.359375,-4.40625 c -1.109375,0 -2.28125,1.515625 -2.28125,2.96875 0,0.84375 0.453125,1.546875 1.203125,1.546875 0.359375,0 0.796875,-0.203125 1.203125,-0.703125 z m 0.53125,-2.53125 -0.46875,1.890625 c -0.078125,0.3125 -0.703125,1.125 -1.25,1.125 C 1.828125,-0.109375 1.75,-0.703125 1.75,-1 1.75,-1.5 2.0625,-2.65625 2.25,-3.078125 2.5,-3.6875 2.953125,-4.1875 3.359375,-4.1875 c 0.4375,0 0.6875,0.515625 0.6875,0.9375 0,0.015625 -0.015625,0.0625 -0.03125,0.125 z m 0,0"
               id="id-5f8b03b7-7060-43b3-928e-0d3beffcfe20" />
          </g>
          <g
             transform="translate(172.646,134.765)"
             id="g1373">
            <path
               style="stroke:none;stroke-width:0"
               d="m 4.34375,-3.765625 c -0.5,0.0625 -0.5,0.46875 -0.5,0.5 0,0.15625 0.109375,0.3125 0.328125,0.3125 0.28125,0 0.515625,-0.21875 0.515625,-0.59375 0,-0.484375 -0.4375,-0.859375 -1.0625,-0.859375 -1.25,0 -2.53125,1.421875 -2.53125,2.875 0,0.984375 0.59375,1.640625 1.46875,1.640625 1.28125,0 2.109375,-1 2.109375,-1.140625 0,-0.0625 -0.09375,-0.171875 -0.171875,-0.171875 -0.03125,0 -0.046875,0.015625 -0.125,0.109375 -0.734375,0.9375 -1.625,0.984375 -1.796875,0.984375 -0.53125,0 -0.78125,-0.453125 -0.78125,-1.03125 0,-0.53125 0.265625,-1.578125 0.53125,-2.046875 0.359375,-0.65625 0.859375,-1 1.296875,-1 0.109375,0 0.5625,0.015625 0.71875,0.421875 z m 0,0"
               id="id-2f75cd25-58a8-46e4-9883-fbe62e414378" />
          </g>
          <g
             transform="translate(177.229,134.765)"
             id="g1376">
            <path
               style="stroke:none;stroke-width:0"
               d="m 3.015625,-6.671875 c 0.015625,-0.03125 0.03125,-0.109375 0.03125,-0.125 0,-0.09375 -0.0625,-0.125 -0.140625,-0.125 -0.03125,0 -0.125,0.015625 -0.15625,0.03125 L 1.765625,-6.8125 c -0.125,0 -0.234375,0.015625 -0.234375,0.203125 0,0.109375 0.109375,0.109375 0.25,0.109375 0.46875,0 0.484375,0.0625 0.484375,0.171875 0,0.03125 -0.015625,0.15625 -0.015625,0.171875 l -1.484375,5.875 C 0.75,-0.265625 0.75,-0.171875 0.75,-0.15625 c 0,0.109375 0.09375,0.265625 0.28125,0.265625 0.296875,0 0.359375,-0.28125 0.390625,-0.375 l 0.5,-2.015625 c 0.375,0.046875 1.015625,0.25 1.015625,0.828125 0,0.078125 0,0.125 -0.03125,0.25 -0.046875,0.171875 -0.046875,0.25 -0.046875,0.34375 0,0.71875 0.46875,0.96875 0.84375,0.96875 0.4375,0 0.65625,-0.328125 0.765625,-0.515625 0.21875,-0.375 0.359375,-0.984375 0.359375,-1.015625 0,-0.109375 -0.078125,-0.109375 -0.15625,-0.109375 -0.109375,0 -0.125,0.015625 -0.1875,0.234375 -0.125,0.515625 -0.3125,1.1875 -0.75,1.1875 -0.28125,0 -0.296875,-0.234375 -0.296875,-0.421875 0,-0.234375 0.078125,-0.515625 0.078125,-0.5625 C 3.5625,-1.3125 3.5625,-1.3125 3.5625,-1.453125 3.5625,-2.125 2.875,-2.390625 2.25,-2.484375 2.46875,-2.625 2.6875,-2.828125 2.953125,-3.140625 3.46875,-3.734375 3.859375,-4.1875 4.359375,-4.1875 c 0.1875,0 0.25,0.109375 0.265625,0.125 -0.421875,0.0625 -0.46875,0.40625 -0.46875,0.5 0,0.125 0.09375,0.3125 0.34375,0.3125 0.21875,0 0.5,-0.171875 0.5,-0.5625 0,-0.25 -0.171875,-0.59375 -0.625,-0.59375 -0.53125,0 -0.953125,0.421875 -1.296875,0.8125 C 2.515625,-2.9375 2.359375,-2.765625 2,-2.609375 Z m 0,0"
               id="id-1ea10bc1-0285-4fde-92e5-46f36fc128d8" />
          </g>
        </g>
      </g>
    </g>
  </g>
</svg>
