<?xml version="1.0" encoding="UTF-8" standalone="no"?>
<svg
   version="1.1"
   id="svg903"
   sodipodi:docname="flipflop.svg"
   inkscape:version="1.1 (c4e8f9e, 2021-05-24)"
   width="89.676239"
   height="39.235184"
   viewBox="0 0 109.42401 28.184585"
   xmlns:inkscape="http://www.inkscape.org/namespaces/inkscape"
   xmlns:sodipodi="http://sodipodi.sourceforge.net/DTD/sodipodi-0.dtd"
   xmlns="http://www.w3.org/2000/svg"
   xmlns:svg="http://www.w3.org/2000/svg"
   xmlns:ns6="http://www.iki.fi/pav/software/textext/">
  <sodipodi:namedview
     id="namedview905"
     pagecolor="#ffffff"
     bordercolor="#666666"
     borderopacity="1.0"
     inkscape:pageshadow="2"
     inkscape:pageopacity="0.0"
     inkscape:pagecheckerboard="0"
     showgrid="false"
     inkscape:zoom="7.3924635"
     inkscape:cx="50.253884"
     inkscape:cy="18.464751"
     inkscape:window-width="1440"
     inkscape:window-height="847"
     inkscape:window-x="0"
     inkscape:window-y="25"
     inkscape:window-maximized="0"
     inkscape:current-layer="svg903"
     inkscape:snap-global="true"
     lock-margins="true"
     fit-margin-top="0"
     fit-margin-left="0"
     fit-margin-right="0"
     fit-margin-bottom="0"
     viewbox-height="100"
     width="65.16291px"
     inkscape:snap-center="true">
    <inkscape:grid
       type="xygrid"
       id="grid1463"
       originx="-322.62683"
       originy="-301.96626" />
  </sodipodi:namedview>
  <defs
     id="defs831">
    <clipPath
       id="page">
      <rect
         x="0"
         y="0"
         width="760"
         height="620"
         id="rect824" />
    </clipPath>
    <clipPath
       id="clipPath829">
      <rect
         x="0"
         y="0"
         width="760"
         height="620"
         id="rect827" />
    </clipPath>
    <defs
       id="id-6218469a-638a-438a-8285-87af46e395b2">
      <g
         id="id-41f024df-1921-46fd-b358-2bb13516e3a0">
        <symbol
           overflow="visible"
           id="id-751024ce-17db-425f-8adf-8e5129a58830">
          <path
             style="stroke:none;stroke-width:0"
             d=""
             id="id-f6b93899-9967-45d1-bf36-847d7d2c198e" />
        </symbol>
        <symbol
           overflow="visible"
           id="id-ccd68d53-c78f-4352-a28f-35fa76bbcac7">
          <path
             style="stroke:none;stroke-width:0"
             d="M 3.65625,-0.3125 C 3.875,-0.015625 4.34375,0 4.71875,0 c 0.28125,0 0.5,0 0.5,-0.3125 0,-0.296875 -0.25,-0.296875 -0.390625,-0.296875 -0.421875,0 -0.515625,-0.046875 -0.59375,-0.078125 v -2.15625 c 0,-0.703125 -0.546875,-1.546875 -1.984375,-1.546875 -0.421875,0 -1.4375,0 -1.4375,0.734375 0,0.296875 0.203125,0.453125 0.4375,0.453125 0.15625,0 0.4375,-0.09375 0.4375,-0.453125 0,-0.078125 0.015625,-0.09375 0.21875,-0.109375 0.140625,-0.015625 0.265625,-0.015625 0.359375,-0.015625 0.75,0 1.265625,0.3125 1.265625,1.015625 -1.75,0.03125 -2.984375,0.53125 -2.984375,1.484375 0,0.6875 0.625,1.34375 1.640625,1.34375 0.375,0 1,-0.078125 1.46875,-0.375 z m -0.125,-1.859375 v 0.84375 c 0,0.21875 0,0.4375 -0.375,0.609375 -0.359375,0.171875 -0.8125,0.171875 -0.890625,0.171875 -0.625,0 -1.03125,-0.34375 -1.03125,-0.734375 0,-0.484375 0.859375,-0.859375 2.296875,-0.890625 z m 0,0"
             id="id-b9f47a47-f328-4fbb-9ab9-075c127460cc" />
        </symbol>
        <symbol
           overflow="visible"
           id="id-401b8321-aa4e-4d98-9505-d73242a42246">
          <path
             style="stroke:none;stroke-width:0"
             d="m 3.078125,-3.890625 c 0,-0.3125 -0.0625,-0.40625 -0.390625,-0.40625 H 1.265625 c -0.15625,0 -0.40625,0 -0.40625,0.296875 0,0.3125 0.25,0.3125 0.40625,0.3125 h 1.125 v 3.078125 H 1.1875 c -0.15625,0 -0.40625,0 -0.40625,0.3125 C 0.78125,0 1.03125,0 1.1875,0 H 4.125 c 0.15625,0 0.40625,0 0.40625,-0.296875 0,-0.3125 -0.25,-0.3125 -0.40625,-0.3125 H 3.078125 Z m 0,-1.71875 c 0,-0.265625 -0.21875,-0.484375 -0.5,-0.484375 -0.28125,0 -0.5,0.21875 -0.5,0.484375 0,0.28125 0.21875,0.5 0.5,0.5 0.28125,0 0.5,-0.21875 0.5,-0.5 z m 0,0"
             id="id-0fd42125-ad84-4701-a8ce-45308056cf4b" />
        </symbol>
        <symbol
           overflow="visible"
           id="id-05c21c86-3cfb-4459-8d0c-c82f21629225">
          <path
             style="stroke:none;stroke-width:0"
             d="m 1.65625,-3.828125 c 0,-0.3125 0,-0.46875 -0.40625,-0.46875 H 0.53125 c -0.15625,0 -0.40625,0 -0.40625,0.3125 0,0.296875 0.25,0.296875 0.390625,0.296875 H 0.96875 v 3.078125 h -0.4375 c -0.15625,0 -0.40625,0 -0.40625,0.3125 C 0.125,0 0.375,0 0.515625,0 h 1.59375 C 2.25,0 2.5,0 2.5,-0.296875 c 0,-0.3125 -0.25,-0.3125 -0.40625,-0.3125 H 1.65625 V -2.375 c 0,-1 0.734375,-1.375 1.25,-1.375 0.515625,0 0.65625,0.28125 0.65625,0.875 v 2.265625 h -0.375 c -0.171875,0 -0.421875,0 -0.421875,0.3125 C 2.765625,0 3.046875,0 3.1875,0 h 1.515625 c 0.140625,0 0.40625,0 0.40625,-0.296875 0,-0.3125 -0.25,-0.3125 -0.421875,-0.3125 H 4.25 v -2.3125 c 0,-1 -0.5,-1.4375 -1.296875,-1.4375 -0.65625,0 -1.109375,0.34375 -1.296875,0.53125 z m 0,0"
             id="id-cd1dcb34-b685-4e9c-bcc9-a4dde7921945" />
        </symbol>
        <symbol
           overflow="visible"
           id="id-5f56a1bd-723a-449b-a3b1-7588ebe3e409">
          <path
             style="stroke:none;stroke-width:0"
             d="m 1.65625,-3.875 v -1.8125 c 0,-0.296875 -0.0625,-0.40625 -0.40625,-0.40625 H 0.53125 c -0.15625,0 -0.40625,0 -0.40625,0.3125 0,0.296875 0.25,0.296875 0.390625,0.296875 H 0.96875 V -0.40625 C 0.96875,-0.203125 0.96875,0 1.3125,0 1.65625,0 1.65625,-0.203125 1.65625,-0.453125 2.0625,-0.03125 2.5,0.0625 2.8125,0.0625 c 1.078125,0 2.046875,-0.953125 2.046875,-2.21875 0,-1.21875 -0.875,-2.203125 -1.9375,-2.203125 C 2.4375,-4.359375 2,-4.171875 1.65625,-3.875 Z m 0,1.96875 V -2.625 c 0,-0.59375 0.578125,-1.125 1.203125,-1.125 0.734375,0 1.3125,0.734375 1.3125,1.59375 0,0.953125 -0.6875,1.609375 -1.390625,1.609375 -0.78125,0 -1.125,-0.875 -1.125,-1.359375 z m 0,0"
             id="id-b698f2b2-49e2-41f4-acf3-55dfbbc509bb" />
        </symbol>
        <symbol
           overflow="visible"
           id="id-1f3dfe3a-af28-4378-9c76-aa66616c3dcc">
          <path
             style="stroke:none;stroke-width:0"
             d="m 4.65625,-2.15625 c 0,-1.25 -0.921875,-2.234375 -2.046875,-2.234375 -1.109375,0 -2.046875,0.984375 -2.046875,2.234375 0,1.265625 0.953125,2.21875 2.046875,2.21875 1.09375,0 2.046875,-0.953125 2.046875,-2.21875 z M 2.609375,-0.546875 C 1.875,-0.546875 1.25,-1.296875 1.25,-2.21875 c 0,-0.90625 0.65625,-1.5625 1.359375,-1.5625 0.71875,0 1.359375,0.65625 1.359375,1.5625 0,0.921875 -0.625,1.671875 -1.359375,1.671875 z m 0,0"
             id="id-c1270fac-d09c-4689-bd6d-b0156142bddb" />
        </symbol>
        <symbol
           overflow="visible"
           id="id-e6207ffc-747b-45f3-992f-2730cf031a66">
          <path
             style="stroke:none;stroke-width:0"
             d="M 3.5625,-0.3125 C 3.578125,0 3.78125,0 3.96875,0 H 4.6875 c 0.171875,0 0.421875,0 0.421875,-0.3125 0,-0.296875 -0.265625,-0.296875 -0.40625,-0.296875 H 4.25 v -3.28125 c 0,-0.3125 -0.046875,-0.40625 -0.390625,-0.40625 H 3.125 c -0.15625,0 -0.40625,0 -0.40625,0.3125 0,0.296875 0.265625,0.296875 0.40625,0.296875 h 0.4375 v 2.125 c 0,0.890625 -0.796875,1.015625 -1.125,1.015625 -0.78125,0 -0.78125,-0.328125 -0.78125,-0.65625 v -2.6875 c 0,-0.3125 -0.0625,-0.40625 -0.40625,-0.40625 H 0.53125 c -0.15625,0 -0.40625,0 -0.40625,0.3125 0,0.296875 0.25,0.296875 0.390625,0.296875 H 0.96875 v 2.546875 c 0,0.96875 0.6875,1.203125 1.40625,1.203125 0.421875,0 0.828125,-0.109375 1.1875,-0.375 z m 0,0"
             id="id-9d42f572-479c-4864-bc3d-5b49699842bf" />
        </symbol>
        <symbol
           overflow="visible"
           id="id-51bfbd88-b321-441a-bddf-ba7a11db208a">
          <path
             style="stroke:none;stroke-width:0"
             d="m 2.21875,-3.6875 h 1.625 c 0.15625,0 0.40625,0 0.40625,-0.296875 0,-0.3125 -0.25,-0.3125 -0.40625,-0.3125 h -1.625 v -0.8125 c 0,-0.1875 0,-0.40625 -0.34375,-0.40625 -0.34375,0 -0.34375,0.203125 -0.34375,0.40625 v 0.8125 h -0.875 c -0.15625,0 -0.40625,0 -0.40625,0.3125 0,0.296875 0.25,0.296875 0.390625,0.296875 H 1.53125 V -1.25 c 0,0.953125 0.671875,1.3125 1.40625,1.3125 0.734375,0 1.53125,-0.4375 1.53125,-1.3125 0,-0.1875 0,-0.390625 -0.34375,-0.390625 -0.328125,0 -0.34375,0.203125 -0.34375,0.375 0,0.625 -0.578125,0.71875 -0.796875,0.71875 -0.765625,0 -0.765625,-0.515625 -0.765625,-0.765625 z m 0,0"
             id="id-f74c9a73-0850-47af-9843-d8aaf2169dcb" />
        </symbol>
        <symbol
           overflow="visible"
           id="id-200c1419-b8e5-405f-be97-acac90bf23be">
          <path
             style="stroke:none;stroke-width:0"
             d="m 3.15625,-5.828125 c -0.09375,-0.375 -0.234375,-0.375 -0.546875,-0.375 -0.28125,0 -0.453125,0 -0.53125,0.375 L 0.875,-0.609375 c -0.140625,0 -0.375,0 -0.4375,0.015625 -0.109375,0.0625 -0.171875,0.171875 -0.171875,0.296875 C 0.265625,0 0.53125,0 0.703125,0 H 1.71875 c 0.171875,0 0.421875,0 0.421875,-0.296875 0,-0.3125 -0.203125,-0.3125 -0.5625,-0.3125 l 0.21875,-1.03125 h 1.625 l 0.234375,1.03125 c -0.359375,0 -0.5625,0 -0.5625,0.3125 C 3.09375,0 3.328125,0 3.515625,0 H 4.53125 c 0.15625,0 0.421875,0 0.421875,-0.296875 0,-0.125 -0.046875,-0.234375 -0.171875,-0.28125 C 4.71875,-0.609375 4.5,-0.609375 4.359375,-0.609375 Z M 2.609375,-5.40625 H 2.625 L 3.265625,-2.25 h -1.3125 z m 0,0"
             id="id-f8319bc5-2d07-4ba8-be76-a87f43cbb9b1" />
        </symbol>
        <symbol
           overflow="visible"
           id="id-b25f727e-99ff-45b9-ba92-abffca11b1ab">
          <path
             style="stroke:none;stroke-width:0"
             d="M 1.890625,-5.734375 C 1.78125,-6.0625 1.625,-6.09375 1.359375,-6.09375 h -0.6875 c -0.140625,0 -0.390625,0 -0.390625,0.296875 0,0.3125 0.234375,0.3125 0.390625,0.3125 h 0.25 v 4.875 h -0.25 c -0.140625,0 -0.390625,0 -0.390625,0.296875 C 0.28125,0 0.515625,0 0.671875,0 h 1.0625 c 0.15625,0 0.40625,0 0.40625,-0.296875 0,-0.3125 -0.25,-0.3125 -0.40625,-0.3125 h -0.25 V -5.34375 H 1.5 l 1.828125,4.984375 C 3.453125,-0.015625 3.625,0 3.875,0 4.171875,0 4.296875,-0.03125 4.296875,-0.40625 v -5.078125 h 0.25 c 0.140625,0 0.390625,0 0.390625,-0.296875 0,-0.3125 -0.234375,-0.3125 -0.390625,-0.3125 h -1.0625 c -0.15625,0 -0.390625,0 -0.390625,0.3125 0,0.296875 0.25,0.296875 0.390625,0.296875 h 0.25 V -0.75 Z m 0,0"
             id="id-93fd820e-48ab-4e59-b856-fa13db5d1be0" />
        </symbol>
        <symbol
           overflow="visible"
           id="id-a982602c-b3a5-4545-892b-4b3eff224e27">
          <path
             style="stroke:none;stroke-width:0"
             d="m 0.59375,-6.09375 c -0.15625,0 -0.40625,0 -0.40625,0.3125 0,0.296875 0.265625,0.296875 0.40625,0.296875 H 0.8125 v 4.875 H 0.59375 c -0.15625,0 -0.40625,0 -0.40625,0.3125 C 0.1875,0 0.453125,0 0.59375,0 h 2.0625 c 1.296875,0 2.171875,-1.390625 2.171875,-3 0,-1.59375 -0.84375,-3.09375 -2.171875,-3.09375 z M 1.5,-0.609375 v -4.875 h 0.96875 c 1.125,0 1.671875,1.328125 1.671875,2.484375 0,1.171875 -0.578125,2.390625 -1.671875,2.390625 z m 0,0"
             id="id-224038d9-4e7c-47de-b24d-f48c3630ffbd" />
        </symbol>
        <symbol
           overflow="visible"
           id="id-3794078e-7ca2-48ba-bf3e-babf57e7553f">
          <path
             style="stroke:none;stroke-width:0"
             d="m 4.671875,-3.046875 c 0,-2.875 -0.21875,-3.15625 -2.0625,-3.15625 -1.84375,0 -2.046875,0.265625 -2.046875,3.15625 0,2.890625 0.203125,3.15625 2.046875,3.15625 1.84375,0 2.0625,-0.265625 2.0625,-3.15625 z M 2.609375,-0.5 c -0.875,0 -1.125,-0.203125 -1.25,-0.703125 C 1.25,-1.71875 1.25,-2.578125 1.25,-3.125 c 0,-0.625 0,-1.296875 0.109375,-1.765625 0.125,-0.578125 0.4375,-0.703125 1.25,-0.703125 0.75,0 1.09375,0.09375 1.25,0.640625 0.125,0.46875 0.125,1.21875 0.125,1.828125 0,0.609375 0,1.328125 -0.109375,1.859375 C 3.765625,-0.703125 3.5,-0.5 2.609375,-0.5 Z m 0,0"
             id="id-7b7e6dbc-b182-430a-a3ef-a5094e130594" />
        </symbol>
        <symbol
           overflow="visible"
           id="id-fa0f2f5b-0e23-4716-b0b0-67dce32f3ce1">
          <path
             style="stroke:none;stroke-width:0"
             d="m 1.5625,-5.484375 h 0.703125 c 0.921875,0 1.359375,0.59375 1.359375,1.0625 0,0.5 -0.4375,1.078125 -1.359375,1.078125 H 1.5625 Z M 3.46875,-3.03125 C 4.125,-3.40625 4.3125,-4 4.3125,-4.421875 4.3125,-5.28125 3.5625,-6.09375 2.375,-6.09375 h -1.75 c -0.171875,0 -0.40625,0 -0.40625,0.3125 0,0.296875 0.25,0.296875 0.40625,0.296875 h 0.25 v 4.875 h -0.25 c -0.171875,0 -0.40625,0 -0.40625,0.3125 C 0.21875,0 0.46875,0 0.625,0 h 1.171875 c 0.15625,0 0.40625,0 0.40625,-0.296875 0,-0.3125 -0.234375,-0.3125 -0.40625,-0.3125 H 1.5625 v -2.125 h 0.765625 c 0.1875,0 0.5,0 0.8125,0.265625 0.21875,0.21875 0.21875,0.4375 0.21875,0.859375 0,0.640625 0,0.9375 0.1875,1.265625 C 3.71875,-0.046875 4,0.109375 4.34375,0.109375 c 0.625,0 0.859375,-0.65625 0.859375,-1.03125 C 5.203125,-1.25 4.96875,-1.25 4.859375,-1.25 4.75,-1.25 4.53125,-1.25 4.515625,-0.953125 4.515625,-0.875 4.5,-0.5 4.328125,-0.5 c -0.28125,0 -0.28125,-0.453125 -0.28125,-0.984375 0,-0.625 0,-0.703125 -0.09375,-0.9375 -0.109375,-0.296875 -0.34375,-0.5 -0.484375,-0.609375 z m 0,0"
             id="id-db8e951c-11f6-411a-91d4-f855b18c2f52" />
        </symbol>
        <symbol
           overflow="visible"
           id="id-577334e6-4aef-4721-88a3-b043c304ac55">
          <path
             style="stroke:none;stroke-width:0"
             d="M 2.953125,-5.484375 H 4.28125 v 0.53125 c 0,0.1875 0,0.40625 0.328125,0.40625 0.359375,0 0.359375,-0.203125 0.359375,-0.40625 V -5.6875 c 0,-0.296875 -0.0625,-0.40625 -0.40625,-0.40625 H 0.671875 c -0.328125,0 -0.40625,0.078125 -0.40625,0.40625 v 0.734375 c 0,0.1875 0,0.40625 0.328125,0.40625 0.359375,0 0.359375,-0.203125 0.359375,-0.40625 v -0.53125 h 1.3125 v 4.875 H 1.75 c -0.140625,0 -0.390625,0 -0.390625,0.296875 C 1.359375,0 1.59375,0 1.75,0 H 3.484375 C 3.625,0 3.875,0 3.875,-0.296875 c 0,-0.3125 -0.234375,-0.3125 -0.390625,-0.3125 h -0.53125 z m 0,0"
             id="id-32bac1b0-5a52-4f06-b328-242c1b243ff5" />
        </symbol>
      </g>
    </defs>
    <defs
       id="id-ccd20762-9fd6-4169-8907-958e37e124f2">
      <g
         id="id-8830223c-efc5-40ef-bfa1-7b67fee26303">
        <symbol
           overflow="visible"
           id="id-ac362f0a-a24d-44c1-b447-b051a3191062">
          <path
             style="stroke:none;stroke-width:0"
             d=""
             id="id-d78edad5-cff1-415e-9eed-66f3631e4bb2" />
        </symbol>
        <symbol
           overflow="visible"
           id="id-e880b00e-e04b-45bd-b5bb-ba4685e85900">
          <path
             style="stroke:none;stroke-width:0"
             d="M 1.890625,-5.734375 C 1.78125,-6.0625 1.625,-6.09375 1.359375,-6.09375 h -0.6875 c -0.140625,0 -0.390625,0 -0.390625,0.296875 0,0.3125 0.234375,0.3125 0.390625,0.3125 h 0.25 v 4.875 h -0.25 c -0.140625,0 -0.390625,0 -0.390625,0.296875 C 0.28125,0 0.515625,0 0.671875,0 h 1.0625 c 0.15625,0 0.40625,0 0.40625,-0.296875 0,-0.3125 -0.25,-0.3125 -0.40625,-0.3125 h -0.25 V -5.34375 H 1.5 l 1.828125,4.984375 C 3.453125,-0.015625 3.625,0 3.875,0 4.171875,0 4.296875,-0.03125 4.296875,-0.40625 v -5.078125 h 0.25 c 0.140625,0 0.390625,0 0.390625,-0.296875 0,-0.3125 -0.234375,-0.3125 -0.390625,-0.3125 h -1.0625 c -0.15625,0 -0.390625,0 -0.390625,0.3125 0,0.296875 0.25,0.296875 0.390625,0.296875 h 0.25 V -0.75 Z m 0,0"
             id="id-8da7dc86-3a06-4269-9abb-3529ef3d4c3b" />
        </symbol>
        <symbol
           overflow="visible"
           id="id-26536d89-769d-412d-8fc1-3c923dec9b5b">
          <path
             style="stroke:none;stroke-width:0"
             d="m 3.15625,-5.828125 c -0.09375,-0.375 -0.234375,-0.375 -0.546875,-0.375 -0.28125,0 -0.453125,0 -0.53125,0.375 L 0.875,-0.609375 c -0.140625,0 -0.375,0 -0.4375,0.015625 -0.109375,0.0625 -0.171875,0.171875 -0.171875,0.296875 C 0.265625,0 0.53125,0 0.703125,0 H 1.71875 c 0.171875,0 0.421875,0 0.421875,-0.296875 0,-0.3125 -0.203125,-0.3125 -0.5625,-0.3125 l 0.21875,-1.03125 h 1.625 l 0.234375,1.03125 c -0.359375,0 -0.5625,0 -0.5625,0.3125 C 3.09375,0 3.328125,0 3.515625,0 H 4.53125 c 0.15625,0 0.421875,0 0.421875,-0.296875 0,-0.125 -0.046875,-0.234375 -0.171875,-0.28125 C 4.71875,-0.609375 4.5,-0.609375 4.359375,-0.609375 Z M 2.609375,-5.40625 H 2.625 L 3.265625,-2.25 h -1.3125 z m 0,0"
             id="id-112deef3-7cfd-47f6-ad7a-c7c772b9f383" />
        </symbol>
        <symbol
           overflow="visible"
           id="id-f355b326-2bca-4af3-a672-615147d406ba">
          <path
             style="stroke:none;stroke-width:0"
             d="m 0.59375,-6.09375 c -0.15625,0 -0.40625,0 -0.40625,0.3125 0,0.296875 0.265625,0.296875 0.40625,0.296875 H 0.8125 v 4.875 H 0.59375 c -0.15625,0 -0.40625,0 -0.40625,0.3125 C 0.1875,0 0.453125,0 0.59375,0 h 2.0625 c 1.296875,0 2.171875,-1.390625 2.171875,-3 0,-1.59375 -0.84375,-3.09375 -2.171875,-3.09375 z M 1.5,-0.609375 v -4.875 h 0.96875 c 1.125,0 1.671875,1.328125 1.671875,2.484375 0,1.171875 -0.578125,2.390625 -1.671875,2.390625 z m 0,0"
             id="id-910aa90b-ae7f-4661-aa27-ee832c233114" />
        </symbol>
      </g>
    </defs>
    <defs
       id="id-eed44bfd-ae0b-4d33-9d40-ba5f7b1a1726">
      <g
         id="id-da8ea488-762e-42e4-ac55-74aa9f3cdbf3">
        <symbol
           overflow="visible"
           id="id-0e2daf2f-e345-496b-994e-cd184c409612">
          <path
             style="stroke:none;stroke-width:0"
             d=""
             id="id-a2c38629-c56f-4e18-acaf-6a8632a94295" />
        </symbol>
        <symbol
           overflow="visible"
           id="id-c22c6bcc-cdd5-45ac-83fa-1a96deed6ee7">
          <path
             style="stroke:none;stroke-width:0"
             d="M 2.96875,-2.546875 C 2.734375,-2.578125 2.546875,-2.609375 2.296875,-2.65625 2,-2.703125 1.328125,-2.828125 1.328125,-3.203125 c 0,-0.265625 0.3125,-0.578125 1.265625,-0.578125 0.828125,0 0.96875,0.296875 1,0.5625 0,0.171875 0.03125,0.34375 0.328125,0.34375 0.359375,0 0.359375,-0.21875 0.359375,-0.421875 v -0.6875 c 0,-0.15625 0,-0.40625 -0.296875,-0.40625 -0.25,0 -0.28125,0.140625 -0.3125,0.21875 -0.4375,-0.21875 -0.875,-0.21875 -1.0625,-0.21875 -1.65625,0 -1.890625,0.828125 -1.890625,1.1875 0,0.90625 1.046875,1.078125 1.96875,1.21875 0.484375,0.078125 1.28125,0.203125 1.28125,0.734375 0,0.375 -0.375,0.703125 -1.28125,0.703125 -0.46875,0 -1.015625,-0.109375 -1.265625,-0.890625 -0.0625,-0.171875 -0.09375,-0.28125 -0.359375,-0.28125 -0.34375,0 -0.34375,0.203125 -0.34375,0.40625 v 0.96875 c 0,0.15625 0,0.40625 0.296875,0.40625 0.09375,0 0.25,-0.015625 0.375,-0.375 0.484375,0.359375 1.015625,0.375 1.296875,0.375 1.5625,0 1.890625,-0.828125 1.890625,-1.3125 0,-1.03125 -1.28125,-1.25 -1.609375,-1.296875 z m 0,0"
             id="id-4a5487c8-0137-4a88-9574-bfb20d466aec" />
        </symbol>
        <symbol
           overflow="visible"
           id="id-3fecf408-301e-498f-bf44-31ea18fdb00b">
          <path
             style="stroke:none;stroke-width:0"
             d="m 4.234375,-1.90625 c 0.203125,0 0.390625,0 0.390625,-0.359375 0,-1.140625 -0.640625,-2.125 -1.9375,-2.125 -1.1875,0 -2.140625,1 -2.140625,2.234375 0,1.203125 1.015625,2.21875 2.296875,2.21875 1.3125,0 1.78125,-0.90625 1.78125,-1.15625 0,-0.265625 -0.28125,-0.265625 -0.34375,-0.265625 -0.1875,0 -0.265625,0.03125 -0.328125,0.21875 -0.21875,0.5 -0.765625,0.59375 -1.046875,0.59375 -0.75,0 -1.484375,-0.5 -1.65625,-1.359375 z M 1.265625,-2.5 C 1.40625,-3.234375 2,-3.78125 2.6875,-3.78125 c 0.515625,0 1.140625,0.25 1.234375,1.28125 z m 0,0"
             id="id-7191e435-b382-41ff-9b05-6a2b57b9170f" />
        </symbol>
        <symbol
           overflow="visible"
           id="id-b9f41aa3-283b-4676-8401-077ea8cd4364">
          <path
             style="stroke:none;stroke-width:0"
             d="m 2.21875,-3.6875 h 1.625 c 0.15625,0 0.40625,0 0.40625,-0.296875 0,-0.3125 -0.25,-0.3125 -0.40625,-0.3125 h -1.625 v -0.8125 c 0,-0.1875 0,-0.40625 -0.34375,-0.40625 -0.34375,0 -0.34375,0.203125 -0.34375,0.40625 v 0.8125 h -0.875 c -0.15625,0 -0.40625,0 -0.40625,0.3125 0,0.296875 0.25,0.296875 0.390625,0.296875 H 1.53125 V -1.25 c 0,0.953125 0.671875,1.3125 1.40625,1.3125 0.734375,0 1.53125,-0.4375 1.53125,-1.3125 0,-0.1875 0,-0.390625 -0.34375,-0.390625 -0.328125,0 -0.34375,0.203125 -0.34375,0.375 0,0.625 -0.578125,0.71875 -0.796875,0.71875 -0.765625,0 -0.765625,-0.515625 -0.765625,-0.765625 z m 0,0"
             id="id-20a9475c-0615-4d8e-86f6-bb49169bf3d4" />
        </symbol>
        <symbol
           overflow="visible"
           id="id-c6c5a4f4-ded1-4f78-85a1-4e64a98ed484">
          <path
             style="stroke:none;stroke-width:0"
             d="M 2.21875,-1.859375 C 2.21875,-2.796875 2.796875,-3.75 4,-3.75 c 0.015625,0.234375 0.1875,0.4375 0.4375,0.4375 0.21875,0 0.421875,-0.15625 0.421875,-0.421875 0,-0.203125 -0.125,-0.625 -0.953125,-0.625 -0.5,0 -1.140625,0.1875 -1.6875,0.8125 v -0.34375 c 0,-0.3125 -0.0625,-0.40625 -0.40625,-0.40625 H 0.71875 c -0.15625,0 -0.40625,0 -0.40625,0.296875 0,0.3125 0.25,0.3125 0.40625,0.3125 h 0.8125 v 3.078125 h -0.8125 c -0.15625,0 -0.40625,0 -0.40625,0.296875 C 0.3125,0 0.5625,0 0.71875,0 H 3.3125 c 0.15625,0 0.421875,0 0.421875,-0.296875 0,-0.3125 -0.265625,-0.3125 -0.421875,-0.3125 H 2.21875 Z m 0,0"
             id="id-50d90742-bdad-4d8f-a1f2-01244a10f8c0" />
        </symbol>
        <symbol
           overflow="visible"
           id="id-146c9500-bf3c-416a-8655-05f9d8f8d3af">
          <path
             style="stroke:none;stroke-width:0"
             d="m 4.21875,1.390625 c 0.140625,0 0.3125,0 0.3125,-0.1875 0,-0.0625 -0.1875,-0.421875 -0.296875,-0.640625 C 4.140625,0.421875 3.96875,0.09375 3.890625,-0.046875 4.34375,-0.21875 4.515625,-0.5625 4.609375,-1.375 c 0.0625,-0.53125 0.0625,-1.203125 0.0625,-1.671875 0,-2.875 -0.21875,-3.15625 -2.0625,-3.15625 -1.84375,0 -2.046875,0.265625 -2.046875,3.15625 0,2.890625 0.203125,3.15625 2.046875,3.15625 0.125,0 0.453125,0 0.5625,-0.015625 0.0625,0.140625 0.59375,1.125 0.609375,1.171875 0.078125,0.125 0.1875,0.125 0.34375,0.125 z M 2.84375,-0.5 H 2.53125 C 1.640625,-0.5 1.4375,-0.78125 1.328125,-1.3125 1.25,-1.828125 1.25,-2.5 1.25,-3.046875 c 0,-0.546875 0,-1.3125 0.09375,-1.796875 0.125,-0.546875 0.34375,-0.75 1.265625,-0.75 0.890625,0 1.171875,0.171875 1.28125,0.8125 0.09375,0.515625 0.09375,1.1875 0.09375,1.734375 0,2.078125 -0.203125,2.21875 -0.421875,2.375 l -0.484375,-0.875 C 2.984375,-1.6875 2.984375,-1.703125 2.78125,-1.703125 H 2.671875 c -0.140625,0 -0.3125,0 -0.3125,0.1875 0,0.046875 0,0.078125 0.03125,0.125 z m 0,0"
             id="id-d925ff38-b053-4295-967d-904d6382f0c7" />
        </symbol>
      </g>
    </defs>
    <defs
       id="id-054b529e-cd6a-4286-8c3a-75ac7d2bb0e0">
      <g
         id="id-e4a2265a-cde6-43af-bac7-b4abf3b869ba">
        <symbol
           overflow="visible"
           id="id-87f6b73e-3124-499d-af5c-ff01367295fe">
          <path
             style="stroke:none;stroke-width:0"
             d=""
             id="id-927bdbe7-478a-454d-a4e7-52c227a20ee7" />
        </symbol>
        <symbol
           overflow="visible"
           id="id-122c1748-483d-442e-b60b-b0681f85c238">
          <path
             style="stroke:none;stroke-width:0"
             d="M 2.96875,-2.546875 C 2.734375,-2.578125 2.546875,-2.609375 2.296875,-2.65625 2,-2.703125 1.328125,-2.828125 1.328125,-3.203125 c 0,-0.265625 0.3125,-0.578125 1.265625,-0.578125 0.828125,0 0.96875,0.296875 1,0.5625 0,0.171875 0.03125,0.34375 0.328125,0.34375 0.359375,0 0.359375,-0.21875 0.359375,-0.421875 v -0.6875 c 0,-0.15625 0,-0.40625 -0.296875,-0.40625 -0.25,0 -0.28125,0.140625 -0.3125,0.21875 -0.4375,-0.21875 -0.875,-0.21875 -1.0625,-0.21875 -1.65625,0 -1.890625,0.828125 -1.890625,1.1875 0,0.90625 1.046875,1.078125 1.96875,1.21875 0.484375,0.078125 1.28125,0.203125 1.28125,0.734375 0,0.375 -0.375,0.703125 -1.28125,0.703125 -0.46875,0 -1.015625,-0.109375 -1.265625,-0.890625 -0.0625,-0.171875 -0.09375,-0.28125 -0.359375,-0.28125 -0.34375,0 -0.34375,0.203125 -0.34375,0.40625 v 0.96875 c 0,0.15625 0,0.40625 0.296875,0.40625 0.09375,0 0.25,-0.015625 0.375,-0.375 0.484375,0.359375 1.015625,0.375 1.296875,0.375 1.5625,0 1.890625,-0.828125 1.890625,-1.3125 0,-1.03125 -1.28125,-1.25 -1.609375,-1.296875 z m 0,0"
             id="id-a6dad30e-ec68-4ff0-8b8b-d4da3a6a272d" />
        </symbol>
        <symbol
           overflow="visible"
           id="id-e55ed2b2-fd96-472a-b5c3-6c7c2c5ff609">
          <path
             style="stroke:none;stroke-width:0"
             d="m 4.234375,-1.90625 c 0.203125,0 0.390625,0 0.390625,-0.359375 0,-1.140625 -0.640625,-2.125 -1.9375,-2.125 -1.1875,0 -2.140625,1 -2.140625,2.234375 0,1.203125 1.015625,2.21875 2.296875,2.21875 1.3125,0 1.78125,-0.90625 1.78125,-1.15625 0,-0.265625 -0.28125,-0.265625 -0.34375,-0.265625 -0.1875,0 -0.265625,0.03125 -0.328125,0.21875 -0.21875,0.5 -0.765625,0.59375 -1.046875,0.59375 -0.75,0 -1.484375,-0.5 -1.65625,-1.359375 z M 1.265625,-2.5 C 1.40625,-3.234375 2,-3.78125 2.6875,-3.78125 c 0.515625,0 1.140625,0.25 1.234375,1.28125 z m 0,0"
             id="id-d04b9e9f-9988-453e-afb9-4d307beac7e6" />
        </symbol>
        <symbol
           overflow="visible"
           id="id-44c88d90-b78b-4bd4-aa04-bd41448458d8">
          <path
             style="stroke:none;stroke-width:0"
             d="m 2.21875,-3.6875 h 1.625 c 0.15625,0 0.40625,0 0.40625,-0.296875 0,-0.3125 -0.25,-0.3125 -0.40625,-0.3125 h -1.625 v -0.8125 c 0,-0.1875 0,-0.40625 -0.34375,-0.40625 -0.34375,0 -0.34375,0.203125 -0.34375,0.40625 v 0.8125 h -0.875 c -0.15625,0 -0.40625,0 -0.40625,0.3125 0,0.296875 0.25,0.296875 0.390625,0.296875 H 1.53125 V -1.25 c 0,0.953125 0.671875,1.3125 1.40625,1.3125 0.734375,0 1.53125,-0.4375 1.53125,-1.3125 0,-0.1875 0,-0.390625 -0.34375,-0.390625 -0.328125,0 -0.34375,0.203125 -0.34375,0.375 0,0.625 -0.578125,0.71875 -0.796875,0.71875 -0.765625,0 -0.765625,-0.515625 -0.765625,-0.765625 z m 0,0"
             id="id-ac0270e2-3a33-44a5-b9a2-6f3dea155d84" />
        </symbol>
        <symbol
           overflow="visible"
           id="id-6c649610-4bd3-45df-bacd-1194c408ce3c">
          <path
             style="stroke:none;stroke-width:0"
             d="m 2.90625,-2.515625 c 0.609375,0.328125 0.25,0.140625 0.9375,0.546875 0.265625,0.171875 0.296875,0.171875 0.375,0.171875 0.203125,0 0.328125,-0.1875 0.328125,-0.34375 0,-0.15625 -0.125,-0.25 -0.140625,-0.265625 -0.25,-0.171875 -0.921875,-0.5 -1.1875,-0.640625 L 4.296875,-3.625 c 0.125,-0.078125 0.25,-0.140625 0.25,-0.328125 0,-0.046875 0,-0.328125 -0.40625,-0.328125 L 2.90625,-3.5625 C 2.9375,-3.828125 2.9375,-4.484375 2.9375,-4.78125 c 0,-0.078125 0,-0.40625 -0.328125,-0.40625 -0.328125,0 -0.328125,0.328125 -0.328125,0.40625 0,0.296875 0.015625,0.953125 0.03125,1.21875 L 1.234375,-4.203125 C 1.09375,-4.28125 1.078125,-4.28125 1,-4.28125 c -0.1875,0 -0.328125,0.171875 -0.328125,0.328125 0,0.1875 0.109375,0.25 0.25,0.3125 L 2,-3.046875 0.921875,-2.46875 c -0.109375,0.078125 -0.25,0.140625 -0.25,0.328125 0,0.046875 0,0.34375 0.40625,0.34375 L 2.3125,-2.515625 c -0.015625,0.25 -0.03125,0.90625 -0.03125,1.203125 0,0.09375 0,0.421875 0.328125,0.421875 0.328125,0 0.328125,-0.328125 0.328125,-0.421875 0,-0.296875 0,-0.953125 -0.03125,-1.203125 z m 0,0"
             id="id-e79e63e6-6e8d-48c7-8c45-65083b76a5c8" />
        </symbol>
        <symbol
           overflow="visible"
           id="id-98eb5f1f-a5d0-4c18-bf68-ce1337e50f7e">
          <path
             style="stroke:none;stroke-width:0"
             d="M 2.21875,-1.859375 C 2.21875,-2.796875 2.796875,-3.75 4,-3.75 c 0.015625,0.234375 0.1875,0.4375 0.4375,0.4375 0.21875,0 0.421875,-0.15625 0.421875,-0.421875 0,-0.203125 -0.125,-0.625 -0.953125,-0.625 -0.5,0 -1.140625,0.1875 -1.6875,0.8125 v -0.34375 c 0,-0.3125 -0.0625,-0.40625 -0.40625,-0.40625 H 0.71875 c -0.15625,0 -0.40625,0 -0.40625,0.296875 0,0.3125 0.25,0.3125 0.40625,0.3125 h 0.8125 v 3.078125 h -0.8125 c -0.15625,0 -0.40625,0 -0.40625,0.296875 C 0.3125,0 0.5625,0 0.71875,0 H 3.3125 c 0.15625,0 0.421875,0 0.421875,-0.296875 0,-0.3125 -0.265625,-0.3125 -0.421875,-0.3125 H 2.21875 Z m 0,0"
             id="id-0d01e6b8-5056-4c0a-88c6-16fef9fce695" />
        </symbol>
      </g>
    </defs>
  </defs>
  <g
     id="g5713"
     transform="translate(41.413991,3.3906097)">
    <path
       d="m 31.327089,-4.345456 h 5.69004"
       fill="none"
       stroke="#000000"
       stroke-width="0.569003"
       id="path1085" />
    <path
       d="m 31.327089,1.344584 h 5.69004"
       fill="none"
       stroke="#000000"
       stroke-width="0.569003"
       id="path1087" />
    <path
       d="m 51.242229,-1.500436 h 5.69004"
       fill="none"
       stroke="#000000"
       stroke-width="0.569003"
       id="path1089" />
    <path
       id="path1095"
       style="color:#000000;fill:#000000;-inkscape-stroke:none"
       d="m 48.113125,-1.501327 c 0,1.327675 -0.673136,2.688762 -1.695312,3.710938 -1.022177,1.022176 -2.383263,1.695312 -3.710938,1.695312 v 0.56836 c 1.517343,0 3.001695,-0.749742 4.113282,-1.861328 1.111586,-1.111587 1.861328,-2.595939 1.861328,-4.113282 z m -5.40625,-5.974609 v 0.570313 c 1.327675,0 2.688761,0.673136 3.710938,1.695312 1.022176,1.022177 1.695312,2.38131 1.695312,3.708984 h 0.56836 c 0,-1.517342 -0.749742,-2.999741 -1.861328,-4.111328 -1.111587,-1.111586 -2.595939,-1.863281 -4.113282,-1.863281 z m -5.974609,0 V 4.473283 h 5.974609 V 3.904923 H 37.302578 V -6.905623 h 5.404297 v -0.570313 z" />
    <circle
       cx="49.819721"
       cy="-1.5004491"
       r="1.42251"
       fill="none"
       stroke="#000000"
       stroke-width="0.569003"
       id="circle1097" />
    <circle
       cx="31.327085"
       cy="-4.345458"
       r="1.138008"
       stroke="none"
       fill="#ffffff"
       id="circle1099"
       style="stroke-width:0.284502" />
    <circle
       cx="31.327085"
       cy="-4.345458"
       r="1.138008"
       fill="none"
       stroke="#000000"
       stroke-width="0.569003"
       id="circle1101"
       style="fill:#19aeff" />
    <circle
       cx="31.327085"
       cy="1.3445827"
       r="1.138008"
       stroke="none"
       fill="#ffffff"
       id="circle1103"
       style="stroke-width:0.284502" />
    <circle
       cx="31.327085"
       cy="1.3445827"
       r="1.138008"
       fill="none"
       stroke="#000000"
       stroke-width="0.569003"
       id="circle1105" />
    <circle
       cx="56.93227"
       cy="-1.5004491"
       r="1.138008"
       stroke="none"
       fill="#ffffff"
       id="circle1107"
       style="stroke-width:0.284502" />
    <path
       d="m 31.327089,20.058781 h 5.69004"
       fill="none"
       stroke="#000000"
       stroke-width="0.569003"
       id="path1383" />
    <path
       d="m 31.327089,25.748821 h 5.69004"
       fill="none"
       stroke="#000000"
       stroke-width="0.569003"
       id="path1385" />
    <path
       d="m 51.242229,22.903801 h 5.69004"
       fill="none"
       stroke="#000000"
       stroke-width="0.569003"
       id="path1387" />
    <path
       id="path1393"
       style="color:#000000;fill:#000000;-inkscape-stroke:none"
       d="m 48.113125,22.90297 c 0,1.327675 -0.673136,2.688761 -1.695312,3.710938 -1.022177,1.022176 -2.383263,1.695312 -3.710938,1.695312 v 0.56836 c 1.517343,0 3.001695,-0.749742 4.113282,-1.861328 1.111586,-1.111587 1.861328,-2.595939 1.861328,-4.113282 z m -5.40625,-5.974609 v 0.570312 c 1.327675,1e-6 2.688761,0.673137 3.710938,1.695313 1.022176,1.022176 1.695312,2.38131 1.695312,3.708984 h 0.56836 c 0,-1.517342 -0.749742,-2.999741 -1.861328,-4.111328 -1.111587,-1.111586 -2.595939,-1.863281 -4.113282,-1.863281 z m -5.974609,0 V 28.87758 h 5.974609 V 28.30922 H 37.302578 V 17.498673 h 5.404297 v -0.570312 z" />
    <circle
       cx="49.819721"
       cy="22.903788"
       r="1.42251"
       fill="none"
       stroke="#000000"
       stroke-width="0.569003"
       id="circle1395" />
    <circle
       cx="31.327085"
       cy="20.058779"
       r="1.138008"
       stroke="none"
       fill="#ffffff"
       id="circle1397"
       style="stroke-width:0.284502" />
    <circle
       cx="31.327085"
       cy="20.058779"
       r="1.138008"
       fill="none"
       stroke="#000000"
       stroke-width="0.569003"
       id="circle1399" />
    <circle
       cx="31.327085"
       cy="25.748819"
       r="1.138008"
       stroke="none"
       fill="#ffffff"
       id="circle1401"
       style="stroke-width:0.284502" />
    <circle
       cx="31.327085"
       cy="25.748819"
       r="1.138008"
       fill="none"
       stroke="#000000"
       stroke-width="0.569003"
       id="circle1403"
       style="fill:#19aeff" />
    <circle
       cx="56.93227"
       cy="22.903788"
       r="1.138008"
       stroke="none"
       fill="#ffffff"
       id="circle1405"
       style="stroke-width:0.284502" />
    <path
       d="M 19.660228,25.74882 H 30.231115"
       fill="none"
       stroke="#000000"
       stroke-width="0.569003"
       id="path1432"
       sodipodi:nodetypes="cc" />
    <path
       d="m 61.488499,-1.500436 h -5.69004"
       fill="none"
       stroke="#000000"
       stroke-width="0.569003"
       id="path1457" />
    <circle
       cx="-62.870003"
       cy="-1.500438"
       r="1.138008"
       fill="none"
       stroke="#000000"
       stroke-width="0.569003"
       id="circle1459"
       transform="scale(-1,1)"
       style="fill:#ccff42" />
    <g
       id="g1467"
       transform="matrix(-1,0,0,1,7.576272,-2.400507)">
      <path
         d="m -53.912227,25.304308 h 5.69004"
         fill="none"
         stroke="#000000"
         stroke-width="0.569003"
         id="path1463" />
      <circle
         cx="-55.293732"
         cy="25.304306"
         r="1.138008"
         fill="none"
         stroke="#000000"
         stroke-width="0.569003"
         id="circle1465"
         style="fill:#ff4141" />
    </g>
    <path
       d="M 19.660228,-4.345454 H 30.231115"
       fill="none"
       stroke="#000000"
       stroke-width="0.569003"
       id="path1734"
       sodipodi:nodetypes="cc" />
    <path
       d="m 25.20676,14.362318 0.0015,5.640962 4.791681,0.0016"
       fill="none"
       stroke="#000000"
       stroke-width="0.499995"
       id="path3258"
       sodipodi:nodetypes="ccc"
       style="stroke-linecap:round;stroke-linejoin:round" />
    <path
       d="M 31.30782,14.362318 H 25.20676"
       fill="none"
       stroke="#000000"
       stroke-width="0.499995"
       id="path3260"
       sodipodi:nodetypes="cc"
       style="stroke-linecap:round;stroke-linejoin:round" />
    <path
       d="M 56.932269,-1.500436 31.307819,14.362318"
       fill="none"
       stroke="#000000"
       stroke-width="0.499995"
       id="path3262"
       sodipodi:nodetypes="cc"
       style="stroke-linecap:round;stroke-linejoin:round" />
    <path
       d="M 56.932269,22.903801 31.30782,7.041047"
       fill="none"
       stroke="#000000"
       stroke-width="0.499995"
       id="path3363"
       sodipodi:nodetypes="cc"
       style="stroke-linecap:round;stroke-linejoin:round" />
    <path
       d="M 31.30782,7.041047 H 25.208228 V 1.288496 l 4.791717,0.0022"
       fill="none"
       stroke="#000000"
       stroke-width="0.499995"
       id="path3466"
       sodipodi:nodetypes="cccc"
       style="stroke-linecap:round;stroke-linejoin:round" />
    <g
       style="fill:#364e59;fill-opacity:1"
       id="id-1c21c543-1a64-4087-aa61-6f3fc62ea72f"
       transform="matrix(0.58387451,0,0,0.58387451,-103.71557,-84.327841)">
      <g
         transform="translate(148.712,134.765)"
         id="g5617"
         style="fill:#364e59">
        <path
           style="fill:#364e59;stroke:none;stroke-width:0"
           d="M 2.96875,-2.546875 C 2.734375,-2.578125 2.546875,-2.609375 2.296875,-2.65625 2,-2.703125 1.328125,-2.828125 1.328125,-3.203125 c 0,-0.265625 0.3125,-0.578125 1.265625,-0.578125 0.828125,0 0.96875,0.296875 1,0.5625 0,0.171875 0.03125,0.34375 0.328125,0.34375 0.359375,0 0.359375,-0.21875 0.359375,-0.421875 v -0.6875 c 0,-0.15625 0,-0.40625 -0.296875,-0.40625 -0.25,0 -0.28125,0.140625 -0.3125,0.21875 -0.4375,-0.21875 -0.875,-0.21875 -1.0625,-0.21875 -1.65625,0 -1.890625,0.828125 -1.890625,1.1875 0,0.90625 1.046875,1.078125 1.96875,1.21875 0.484375,0.078125 1.28125,0.203125 1.28125,0.734375 0,0.375 -0.375,0.703125 -1.28125,0.703125 -0.46875,0 -1.015625,-0.109375 -1.265625,-0.890625 -0.0625,-0.171875 -0.09375,-0.28125 -0.359375,-0.28125 -0.34375,0 -0.34375,0.203125 -0.34375,0.40625 v 0.96875 c 0,0.15625 0,0.40625 0.296875,0.40625 0.09375,0 0.25,-0.015625 0.375,-0.375 0.484375,0.359375 1.015625,0.375 1.296875,0.375 1.5625,0 1.890625,-0.828125 1.890625,-1.3125 0,-1.03125 -1.28125,-1.25 -1.609375,-1.296875 z m 0,0"
           id="id-51c8eebb-343f-4aaa-be69-786b3b1ff5de" />
      </g>
      <g
         transform="translate(153.942,134.765)"
         id="g5620"
         style="fill:#364e59">
        <path
           style="fill:#364e59;stroke:none;stroke-width:0"
           d="m 4.234375,-1.90625 c 0.203125,0 0.390625,0 0.390625,-0.359375 0,-1.140625 -0.640625,-2.125 -1.9375,-2.125 -1.1875,0 -2.140625,1 -2.140625,2.234375 0,1.203125 1.015625,2.21875 2.296875,2.21875 1.3125,0 1.78125,-0.90625 1.78125,-1.15625 0,-0.265625 -0.28125,-0.265625 -0.34375,-0.265625 -0.1875,0 -0.265625,0.03125 -0.328125,0.21875 -0.21875,0.5 -0.765625,0.59375 -1.046875,0.59375 -0.75,0 -1.484375,-0.5 -1.65625,-1.359375 z M 1.265625,-2.5 C 1.40625,-3.234375 2,-3.78125 2.6875,-3.78125 c 0.515625,0 1.140625,0.25 1.234375,1.28125 z m 0,0"
           id="id-de3792e2-3d0b-4842-935f-8c62928cf052" />
      </g>
      <g
         transform="translate(159.173,134.765)"
         id="g5623"
         style="fill:#364e59">
        <path
           style="fill:#364e59;stroke:none;stroke-width:0"
           d="m 2.21875,-3.6875 h 1.625 c 0.15625,0 0.40625,0 0.40625,-0.296875 0,-0.3125 -0.25,-0.3125 -0.40625,-0.3125 h -1.625 v -0.8125 c 0,-0.1875 0,-0.40625 -0.34375,-0.40625 -0.34375,0 -0.34375,0.203125 -0.34375,0.40625 v 0.8125 h -0.875 c -0.15625,0 -0.40625,0 -0.40625,0.3125 0,0.296875 0.25,0.296875 0.390625,0.296875 H 1.53125 V -1.25 c 0,0.953125 0.671875,1.3125 1.40625,1.3125 0.734375,0 1.53125,-0.4375 1.53125,-1.3125 0,-0.1875 0,-0.390625 -0.34375,-0.390625 -0.328125,0 -0.34375,0.203125 -0.34375,0.375 0,0.625 -0.578125,0.71875 -0.796875,0.71875 -0.765625,0 -0.765625,-0.515625 -0.765625,-0.765625 z m 0,0"
           id="id-986b6e07-dcd5-4103-8748-5abed590ef7e" />
      </g>
    </g>
    <g
       style="fill:#364e59;fill-opacity:1"
       id="id-1c280d42-1171-4241-9c5e-0e41893033af"
       transform="matrix(0.59849489,0,0,0.59849489,-123.95133,-50.433201)">
      <g
         transform="translate(167.721,134.765)"
         id="g5627"
         style="fill:#364e59">
        <path
           style="fill:#364e59;stroke:none;stroke-width:0"
           d="M 2.21875,-1.859375 C 2.21875,-2.796875 2.796875,-3.75 4,-3.75 c 0.015625,0.234375 0.1875,0.4375 0.4375,0.4375 0.21875,0 0.421875,-0.15625 0.421875,-0.421875 0,-0.203125 -0.125,-0.625 -0.953125,-0.625 -0.5,0 -1.140625,0.1875 -1.6875,0.8125 v -0.34375 c 0,-0.3125 -0.0625,-0.40625 -0.40625,-0.40625 H 0.71875 c -0.15625,0 -0.40625,0 -0.40625,0.296875 0,0.3125 0.25,0.3125 0.40625,0.3125 h 0.8125 v 3.078125 h -0.8125 c -0.15625,0 -0.40625,0 -0.40625,0.296875 C 0.3125,0 0.5625,0 0.71875,0 H 3.3125 c 0.15625,0 0.421875,0 0.421875,-0.296875 0,-0.3125 -0.265625,-0.3125 -0.421875,-0.3125 H 2.21875 Z m 0,0"
           id="id-c7ae765d-6ca5-41c7-9007-0768e5994281" />
      </g>
      <g
         transform="translate(172.951,134.765)"
         id="g5630"
         style="fill:#364e59">
        <path
           style="fill:#364e59;stroke:none;stroke-width:0"
           d="m 4.234375,-1.90625 c 0.203125,0 0.390625,0 0.390625,-0.359375 0,-1.140625 -0.640625,-2.125 -1.9375,-2.125 -1.1875,0 -2.140625,1 -2.140625,2.234375 0,1.203125 1.015625,2.21875 2.296875,2.21875 1.3125,0 1.78125,-0.90625 1.78125,-1.15625 0,-0.265625 -0.28125,-0.265625 -0.34375,-0.265625 -0.1875,0 -0.265625,0.03125 -0.328125,0.21875 -0.21875,0.5 -0.765625,0.59375 -1.046875,0.59375 -0.75,0 -1.484375,-0.5 -1.65625,-1.359375 z M 1.265625,-2.5 C 1.40625,-3.234375 2,-3.78125 2.6875,-3.78125 c 0.515625,0 1.140625,0.25 1.234375,1.28125 z m 0,0"
           id="id-f3fe4934-c7be-42b1-9845-79e341b50310" />
      </g>
      <g
         transform="translate(178.181,134.765)"
         id="g5633"
         style="fill:#364e59">
        <path
           style="fill:#364e59;stroke:none;stroke-width:0"
           d="M 2.96875,-2.546875 C 2.734375,-2.578125 2.546875,-2.609375 2.296875,-2.65625 2,-2.703125 1.328125,-2.828125 1.328125,-3.203125 c 0,-0.265625 0.3125,-0.578125 1.265625,-0.578125 0.828125,0 0.96875,0.296875 1,0.5625 0,0.171875 0.03125,0.34375 0.328125,0.34375 0.359375,0 0.359375,-0.21875 0.359375,-0.421875 v -0.6875 c 0,-0.15625 0,-0.40625 -0.296875,-0.40625 -0.25,0 -0.28125,0.140625 -0.3125,0.21875 -0.4375,-0.21875 -0.875,-0.21875 -1.0625,-0.21875 -1.65625,0 -1.890625,0.828125 -1.890625,1.1875 0,0.90625 1.046875,1.078125 1.96875,1.21875 0.484375,0.078125 1.28125,0.203125 1.28125,0.734375 0,0.375 -0.375,0.703125 -1.28125,0.703125 -0.46875,0 -1.015625,-0.109375 -1.265625,-0.890625 -0.0625,-0.171875 -0.09375,-0.28125 -0.359375,-0.28125 -0.34375,0 -0.34375,0.203125 -0.34375,0.40625 v 0.96875 c 0,0.15625 0,0.40625 0.296875,0.40625 0.09375,0 0.25,-0.015625 0.375,-0.375 0.484375,0.359375 1.015625,0.375 1.296875,0.375 1.5625,0 1.890625,-0.828125 1.890625,-1.3125 0,-1.03125 -1.28125,-1.25 -1.609375,-1.296875 z m 0,0"
           id="id-734f6705-6d12-4556-a007-5503c265c32e" />
      </g>
      <g
         transform="translate(183.412,134.765)"
         id="g5636"
         style="fill:#364e59">
        <path
           style="fill:#364e59;stroke:none;stroke-width:0"
           d="m 4.234375,-1.90625 c 0.203125,0 0.390625,0 0.390625,-0.359375 0,-1.140625 -0.640625,-2.125 -1.9375,-2.125 -1.1875,0 -2.140625,1 -2.140625,2.234375 0,1.203125 1.015625,2.21875 2.296875,2.21875 1.3125,0 1.78125,-0.90625 1.78125,-1.15625 0,-0.265625 -0.28125,-0.265625 -0.34375,-0.265625 -0.1875,0 -0.265625,0.03125 -0.328125,0.21875 -0.21875,0.5 -0.765625,0.59375 -1.046875,0.59375 -0.75,0 -1.484375,-0.5 -1.65625,-1.359375 z M 1.265625,-2.5 C 1.40625,-3.234375 2,-3.78125 2.6875,-3.78125 c 0.515625,0 1.140625,0.25 1.234375,1.28125 z m 0,0"
           id="id-9a509123-ebb9-4ddf-ace5-bb8054371b40" />
      </g>
      <g
         transform="translate(188.642,134.765)"
         id="g5639"
         style="fill:#364e59">
        <path
           style="fill:#364e59;stroke:none;stroke-width:0"
           d="m 2.21875,-3.6875 h 1.625 c 0.15625,0 0.40625,0 0.40625,-0.296875 0,-0.3125 -0.25,-0.3125 -0.40625,-0.3125 h -1.625 v -0.8125 c 0,-0.1875 0,-0.40625 -0.34375,-0.40625 -0.34375,0 -0.34375,0.203125 -0.34375,0.40625 v 0.8125 h -0.875 c -0.15625,0 -0.40625,0 -0.40625,0.3125 0,0.296875 0.25,0.296875 0.390625,0.296875 H 1.53125 V -1.25 c 0,0.953125 0.671875,1.3125 1.40625,1.3125 0.734375,0 1.53125,-0.4375 1.53125,-1.3125 0,-0.1875 0,-0.390625 -0.34375,-0.390625 -0.328125,0 -0.34375,0.203125 -0.34375,0.375 0,0.625 -0.578125,0.71875 -0.796875,0.71875 -0.765625,0 -0.765625,-0.515625 -0.765625,-0.765625 z m 0,0"
           id="id-082e7e39-cbfc-4b49-abfc-a958b473cc69" />
      </g>
    </g>
    <g
       style="fill:#009100;fill-opacity:1"
       id="id-5c882626-79fc-4645-bc29-186f54177838"
       transform="matrix(0.59946556,0,0,0.59946556,-53.341248,-80.844951)">
      <g
         transform="translate(197.2,134.765)"
         id="g5643"
         style="fill:#009100">
        <path
           style="fill:#009100;stroke:none;stroke-width:0"
           d="m 4.21875,1.390625 c 0.140625,0 0.3125,0 0.3125,-0.1875 0,-0.0625 -0.1875,-0.421875 -0.296875,-0.640625 C 4.140625,0.421875 3.96875,0.09375 3.890625,-0.046875 4.34375,-0.21875 4.515625,-0.5625 4.609375,-1.375 c 0.0625,-0.53125 0.0625,-1.203125 0.0625,-1.671875 0,-2.875 -0.21875,-3.15625 -2.0625,-3.15625 -1.84375,0 -2.046875,0.265625 -2.046875,3.15625 0,2.890625 0.203125,3.15625 2.046875,3.15625 0.125,0 0.453125,0 0.5625,-0.015625 0.0625,0.140625 0.59375,1.125 0.609375,1.171875 0.078125,0.125 0.1875,0.125 0.34375,0.125 z M 2.84375,-0.5 H 2.53125 C 1.640625,-0.5 1.4375,-0.78125 1.328125,-1.3125 1.25,-1.828125 1.25,-2.5 1.25,-3.046875 c 0,-0.546875 0,-1.3125 0.09375,-1.796875 0.125,-0.546875 0.34375,-0.75 1.265625,-0.75 0.890625,0 1.171875,0.171875 1.28125,0.8125 0.09375,0.515625 0.09375,1.1875 0.09375,1.734375 0,2.078125 -0.203125,2.21875 -0.421875,2.375 l -0.484375,-0.875 C 2.984375,-1.6875 2.984375,-1.703125 2.78125,-1.703125 H 2.671875 c -0.140625,0 -0.3125,0 -0.3125,0.1875 0,0.046875 0,0.078125 0.03125,0.125 z m 0,0"
           id="id-857e3bcb-8ef1-40c1-b46f-e0af6ed62b51" />
      </g>
    </g>
    <g
       id="g6024"
       transform="translate(48.634003,-52.111848)"
       style="fill:#ff4141;stroke:#dc0000">
      <path
         style="fill:#ff4141;stroke:#dc0000;stroke-width:0.238587;stroke-linecap:butt;stroke-linejoin:miter;stroke-miterlimit:10;stroke-opacity:1"
         d="m 16.240527,72.415352 h 3.135486"
         id="id-c586138d-3651-4d5d-a6a6-3ae29bb527a4" />
      <g
         style="fill:#ff4141;fill-opacity:1;stroke:#dc0000"
         id="id-852487be-2a92-4289-91c9-2300608ceae3"
         transform="matrix(0.59946556,0,0,0.59946556,-107.09717,-3.8853733)">
        <g
           transform="translate(205.748,134.765)"
           id="g5648"
           style="fill:#ff4141;stroke:#dc0000">
          <path
             style="fill:#ff4141;stroke:#dc0000;stroke-width:0"
             d="m 4.21875,1.390625 c 0.140625,0 0.3125,0 0.3125,-0.1875 0,-0.0625 -0.1875,-0.421875 -0.296875,-0.640625 C 4.140625,0.421875 3.96875,0.09375 3.890625,-0.046875 4.34375,-0.21875 4.515625,-0.5625 4.609375,-1.375 c 0.0625,-0.53125 0.0625,-1.203125 0.0625,-1.671875 0,-2.875 -0.21875,-3.15625 -2.0625,-3.15625 -1.84375,0 -2.046875,0.265625 -2.046875,3.15625 0,2.890625 0.203125,3.15625 2.046875,3.15625 0.125,0 0.453125,0 0.5625,-0.015625 0.0625,0.140625 0.59375,1.125 0.609375,1.171875 0.078125,0.125 0.1875,0.125 0.34375,0.125 z M 2.84375,-0.5 H 2.53125 C 1.640625,-0.5 1.4375,-0.78125 1.328125,-1.3125 1.25,-1.828125 1.25,-2.5 1.25,-3.046875 c 0,-0.546875 0,-1.3125 0.09375,-1.796875 0.125,-0.546875 0.34375,-0.75 1.265625,-0.75 0.890625,0 1.171875,0.171875 1.28125,0.8125 0.09375,0.515625 0.09375,1.1875 0.09375,1.734375 0,2.078125 -0.203125,2.21875 -0.421875,2.375 l -0.484375,-0.875 C 2.984375,-1.6875 2.984375,-1.703125 2.78125,-1.703125 H 2.671875 c -0.140625,0 -0.3125,0 -0.3125,0.1875 0,0.046875 0,0.078125 0.03125,0.125 z m 0,0"
             id="id-d9a279be-a6e3-413e-8799-cd75d2529b58" />
        </g>
      </g>
    </g>
    <circle
       cx="57.140991"
       cy="-1.5004491"
       r="1.42251"
       fill="none"
       stroke="#000000"
       stroke-width="0.569003"
       id="circle9496"
       style="fill:#ffffff" />
    <circle
       cx="57.140991"
       cy="22.903776"
       r="1.42251"
       fill="none"
       stroke="#000000"
       stroke-width="0.569003"
       id="circle9516"
       style="fill:#ffffff" />
    <path
       d="m -5.862152,-7.1904759 h 5.69004"
       fill="none"
       stroke="#000000"
       stroke-width="0.569003"
       id="path1282" />
    <path
       d="m -5.862152,-1.5004359 h 5.69004"
       fill="none"
       stroke="#000000"
       stroke-width="0.569003"
       id="path1284" />
    <path
       d="m 14.052988,-4.3454559 h 5.69004"
       fill="none"
       stroke="#000000"
       stroke-width="0.569003"
       id="path1286" />
    <path
       id="path1288"
       style="color:#000000;fill:#000000;-inkscape-stroke:none"
       d="m 10.923884,-4.3463469 c 0,1.327675 -0.673136,2.688762 -1.6953122,3.710938 -1.022177,1.022176 -2.383263,1.695312 -3.710938,1.695312 v 0.56836 c 1.517343,0 3.001695,-0.749742 4.113282,-1.861328 1.1115862,-1.111587 1.8613282,-2.595939 1.8613282,-4.113282 z M 5.5176338,-10.320956 v 0.5703131 c 1.327675,0 2.688761,0.673136 3.710938,1.695312 1.0221762,1.022177 1.6953122,2.38131 1.6953122,3.708984 h 0.56836 c 0,-1.517342 -0.749742,-2.999741 -1.8613282,-4.111328 -1.111587,-1.111586 -2.595939,-1.8632811 -4.113282,-1.8632811 z m -5.9746088,0 V 1.6282631 h 5.9746088 v -0.56836 H 0.113337 v -10.810546 h 5.4042968 v -0.5703131 z" />
    <circle
       cx="12.630479"
       cy="-4.345469"
       r="1.42251"
       fill="none"
       stroke="#000000"
       stroke-width="0.569003"
       id="circle1290" />
    <circle
       cx="-5.862155"
       cy="-7.1904778"
       r="1.138008"
       fill="none"
       stroke="#000000"
       stroke-width="0.569003"
       id="circle1292"
       style="fill:#ffc022" />
    <path
       d="m -5.862152,22.903798 h 5.69004"
       fill="none"
       stroke="#000000"
       stroke-width="0.569003"
       id="path1590" />
    <path
       d="m -5.862152,28.593838 h 5.69004"
       fill="none"
       stroke="#000000"
       stroke-width="0.569003"
       id="path1592" />
    <path
       d="m 14.052988,25.748818 h 5.69004"
       fill="none"
       stroke="#000000"
       stroke-width="0.569003"
       id="path1594" />
    <path
       id="path1596"
       style="color:#000000;fill:#000000;-inkscape-stroke:none"
       d="m 10.923884,25.747927 c 0,1.327675 -0.673136,2.688762 -1.6953122,3.710938 -1.022177,1.022176 -2.383263,1.695312 -3.710938,1.695312 v 0.56836 c 1.517343,0 3.001695,-0.749742 4.113282,-1.861328 1.1115862,-1.111587 1.8613282,-2.595939 1.8613282,-4.113282 z M 5.5176338,19.773318 v 0.570313 c 1.327675,0 2.688761,0.673136 3.710938,1.695312 1.0221762,1.022177 1.6953122,2.38131 1.6953122,3.708984 h 0.56836 c 0,-1.517342 -0.749742,-2.999741 -1.8613282,-4.111328 -1.111587,-1.111586 -2.595939,-1.863281 -4.113282,-1.863281 z m -5.9746088,0 v 11.949219 h 5.9746088 v -0.56836 H 0.113337 V 20.343631 h 5.4042968 v -0.570313 z" />
    <circle
       cx="12.630479"
       cy="25.748804"
       r="1.42251"
       fill="none"
       stroke="#000000"
       stroke-width="0.569003"
       id="circle1598" />
    <circle
       cx="-5.862155"
       cy="28.593836"
       r="1.138008"
       fill="none"
       stroke="#000000"
       stroke-width="0.569003"
       id="circle1602"
       style="fill:#ffc022" />
    <path
       style="fill:none;stroke:#000000;stroke-width:0.568619;stroke-linecap:butt;stroke-linejoin:miter;stroke-miterlimit:4;stroke-dasharray:none;stroke-opacity:1"
       d="M -5.8621551,-1.5004372 -10.17938,-1.5005586 V 22.903679 l 4.317228,1.19e-4"
       id="path1946"
       sodipodi:nodetypes="cccc" />
    <path
       style="fill:none;stroke:#000000;stroke-width:0.568619;stroke-linecap:butt;stroke-linejoin:miter;stroke-miterlimit:4;stroke-dasharray:none;stroke-opacity:1"
       d="m -22.317675,10.701616 h 12.202121"
       id="path3049" />
    <circle
       cx="-5.862155"
       cy="-1.5004373"
       r="1.138008"
       fill="none"
       stroke="#000000"
       stroke-width="0.569003"
       id="circle1294"
       style="fill:#ffffff" />
    <circle
       cx="-5.862155"
       cy="22.903795"
       r="1.138008"
       fill="none"
       stroke="#000000"
       stroke-width="0.569003"
       id="circle1600"
       style="fill:#ffffff" />
    <g
       transform="matrix(0.49647846,0,0,0.49647846,-41.413929,8.5794875)"
       ns6:version="1.3.1"
       ns6:texconverter="pdflatex"
       ns6:pdfconverter="inkscape"
       ns6:text="${\\texttt{enable}}$\n"
       ns6:preamble="/Users/ketiboldiais/Library/Application Support/org.inkscape.Inkscape/config/inkscape/extensions/circuitSymbols/circuitSymbolsPreamble.tex"
       ns6:scale="2.0110554948965156"
       ns6:alignment="middle center"
       ns6:inkscapeversion="1.1"
       ns6:jacobian_sqrt="2.6814"
       id="g3613"
       style="fill:#364e59">
      <defs
         id="id-df74c648-5691-49e0-842b-1485eb377a53">
        <g
           id="id-1c45f94a-30e8-4b72-b2a3-e0036fe975a7">
          <symbol
             overflow="visible"
             id="id-031bc8a6-05d9-42e4-b066-aea45b03da3a">
            <path
               style="stroke:none;stroke-width:0"
               d=""
               id="id-64bba21e-3307-4149-bf17-7c9916538a8b" />
          </symbol>
          <symbol
             overflow="visible"
             id="id-43079d2d-9962-4285-90d9-e28ccc4f1e29">
            <path
               style="stroke:none;stroke-width:0"
               d="m 4.234375,-1.90625 c 0.203125,0 0.390625,0 0.390625,-0.359375 0,-1.140625 -0.640625,-2.125 -1.9375,-2.125 -1.1875,0 -2.140625,1 -2.140625,2.234375 0,1.203125 1.015625,2.21875 2.296875,2.21875 1.3125,0 1.78125,-0.90625 1.78125,-1.15625 0,-0.265625 -0.28125,-0.265625 -0.34375,-0.265625 -0.1875,0 -0.265625,0.03125 -0.328125,0.21875 -0.21875,0.5 -0.765625,0.59375 -1.046875,0.59375 -0.75,0 -1.484375,-0.5 -1.65625,-1.359375 z M 1.265625,-2.5 C 1.40625,-3.234375 2,-3.78125 2.6875,-3.78125 c 0.515625,0 1.140625,0.25 1.234375,1.28125 z m 0,0"
               id="id-d995e391-3d23-4fe3-afe9-1f1e8f14b38b" />
          </symbol>
          <symbol
             overflow="visible"
             id="id-c23871e3-19b8-446b-92e7-4a3d903c973e">
            <path
               style="stroke:none;stroke-width:0"
               d="m 1.65625,-3.828125 c 0,-0.3125 0,-0.46875 -0.40625,-0.46875 H 0.53125 c -0.15625,0 -0.40625,0 -0.40625,0.3125 0,0.296875 0.25,0.296875 0.390625,0.296875 H 0.96875 v 3.078125 h -0.4375 c -0.15625,0 -0.40625,0 -0.40625,0.3125 C 0.125,0 0.375,0 0.515625,0 h 1.59375 C 2.25,0 2.5,0 2.5,-0.296875 c 0,-0.3125 -0.25,-0.3125 -0.40625,-0.3125 H 1.65625 V -2.375 c 0,-1 0.734375,-1.375 1.25,-1.375 0.515625,0 0.65625,0.28125 0.65625,0.875 v 2.265625 h -0.375 c -0.171875,0 -0.421875,0 -0.421875,0.3125 C 2.765625,0 3.046875,0 3.1875,0 h 1.515625 c 0.140625,0 0.40625,0 0.40625,-0.296875 0,-0.3125 -0.25,-0.3125 -0.421875,-0.3125 H 4.25 v -2.3125 c 0,-1 -0.5,-1.4375 -1.296875,-1.4375 -0.65625,0 -1.109375,0.34375 -1.296875,0.53125 z m 0,0"
               id="id-7a763c35-8e40-4147-96bd-5af7ca69a528" />
          </symbol>
          <symbol
             overflow="visible"
             id="id-bea7337c-3b74-45a6-967a-51747f81f107">
            <path
               style="stroke:none;stroke-width:0"
               d="M 3.65625,-0.3125 C 3.875,-0.015625 4.34375,0 4.71875,0 c 0.28125,0 0.5,0 0.5,-0.3125 0,-0.296875 -0.25,-0.296875 -0.390625,-0.296875 -0.421875,0 -0.515625,-0.046875 -0.59375,-0.078125 v -2.15625 c 0,-0.703125 -0.546875,-1.546875 -1.984375,-1.546875 -0.421875,0 -1.4375,0 -1.4375,0.734375 0,0.296875 0.203125,0.453125 0.4375,0.453125 0.15625,0 0.4375,-0.09375 0.4375,-0.453125 0,-0.078125 0.015625,-0.09375 0.21875,-0.109375 0.140625,-0.015625 0.265625,-0.015625 0.359375,-0.015625 0.75,0 1.265625,0.3125 1.265625,1.015625 -1.75,0.03125 -2.984375,0.53125 -2.984375,1.484375 0,0.6875 0.625,1.34375 1.640625,1.34375 0.375,0 1,-0.078125 1.46875,-0.375 z m -0.125,-1.859375 v 0.84375 c 0,0.21875 0,0.4375 -0.375,0.609375 -0.359375,0.171875 -0.8125,0.171875 -0.890625,0.171875 -0.625,0 -1.03125,-0.34375 -1.03125,-0.734375 0,-0.484375 0.859375,-0.859375 2.296875,-0.890625 z m 0,0"
               id="id-73c8e152-0b13-47c6-a1e0-4ce1d26fb992" />
          </symbol>
          <symbol
             overflow="visible"
             id="id-5e7e6ca1-c180-4c04-b3cb-3179d7cb68dd">
            <path
               style="stroke:none;stroke-width:0"
               d="m 1.65625,-3.875 v -1.8125 c 0,-0.296875 -0.0625,-0.40625 -0.40625,-0.40625 H 0.53125 c -0.15625,0 -0.40625,0 -0.40625,0.3125 0,0.296875 0.25,0.296875 0.390625,0.296875 H 0.96875 V -0.40625 C 0.96875,-0.203125 0.96875,0 1.3125,0 1.65625,0 1.65625,-0.203125 1.65625,-0.453125 2.0625,-0.03125 2.5,0.0625 2.8125,0.0625 c 1.078125,0 2.046875,-0.953125 2.046875,-2.21875 0,-1.21875 -0.875,-2.203125 -1.9375,-2.203125 C 2.4375,-4.359375 2,-4.171875 1.65625,-3.875 Z m 0,1.96875 V -2.625 c 0,-0.59375 0.578125,-1.125 1.203125,-1.125 0.734375,0 1.3125,0.734375 1.3125,1.59375 0,0.953125 -0.6875,1.609375 -1.390625,1.609375 -0.78125,0 -1.125,-0.875 -1.125,-1.359375 z m 0,0"
               id="id-ded5862b-3ccf-42bc-9c20-4e929daa28dc" />
          </symbol>
          <symbol
             overflow="visible"
             id="id-c1003bdd-adb2-4c76-9f60-8984f4568e94">
            <path
               style="stroke:none;stroke-width:0"
               d="m 2.953125,-5.6875 c 0,-0.296875 -0.046875,-0.40625 -0.390625,-0.40625 H 0.984375 c -0.15625,0 -0.40625,0 -0.40625,0.3125 0,0.296875 0.265625,0.296875 0.40625,0.296875 h 1.28125 v 4.875 h -1.28125 c -0.15625,0 -0.40625,0 -0.40625,0.3125 C 0.578125,0 0.84375,0 0.984375,0 H 4.25 c 0.15625,0 0.40625,0 0.40625,-0.296875 0,-0.3125 -0.234375,-0.3125 -0.40625,-0.3125 H 2.953125 Z m 0,0"
               id="id-7a0ff947-df65-473c-89f7-c0368b8f8979" />
          </symbol>
        </g>
      </defs>
      <g
         id="id-69ca153c-d643-47dc-a540-edf26e0f3104"
         transform="translate(-149.259,-128.671)"
         style="fill:#364e59">
        <g
           style="fill:#364e59;fill-opacity:1"
           id="id-9941fe16-86e6-4745-a409-1e4fae1ed5f5">
          <g
             transform="translate(148.712,134.765)"
             id="g3594"
             style="fill:#364e59">
            <path
               style="fill:#364e59;stroke:none;stroke-width:0"
               d="m 4.234375,-1.90625 c 0.203125,0 0.390625,0 0.390625,-0.359375 0,-1.140625 -0.640625,-2.125 -1.9375,-2.125 -1.1875,0 -2.140625,1 -2.140625,2.234375 0,1.203125 1.015625,2.21875 2.296875,2.21875 1.3125,0 1.78125,-0.90625 1.78125,-1.15625 0,-0.265625 -0.28125,-0.265625 -0.34375,-0.265625 -0.1875,0 -0.265625,0.03125 -0.328125,0.21875 -0.21875,0.5 -0.765625,0.59375 -1.046875,0.59375 -0.75,0 -1.484375,-0.5 -1.65625,-1.359375 z M 1.265625,-2.5 C 1.40625,-3.234375 2,-3.78125 2.6875,-3.78125 c 0.515625,0 1.140625,0.25 1.234375,1.28125 z m 0,0"
               id="id-422d34a4-e703-4046-b037-3486caf4fe50" />
          </g>
          <g
             transform="translate(153.942,134.765)"
             id="g3597"
             style="fill:#364e59">
            <path
               style="fill:#364e59;stroke:none;stroke-width:0"
               d="m 1.65625,-3.828125 c 0,-0.3125 0,-0.46875 -0.40625,-0.46875 H 0.53125 c -0.15625,0 -0.40625,0 -0.40625,0.3125 0,0.296875 0.25,0.296875 0.390625,0.296875 H 0.96875 v 3.078125 h -0.4375 c -0.15625,0 -0.40625,0 -0.40625,0.3125 C 0.125,0 0.375,0 0.515625,0 h 1.59375 C 2.25,0 2.5,0 2.5,-0.296875 c 0,-0.3125 -0.25,-0.3125 -0.40625,-0.3125 H 1.65625 V -2.375 c 0,-1 0.734375,-1.375 1.25,-1.375 0.515625,0 0.65625,0.28125 0.65625,0.875 v 2.265625 h -0.375 c -0.171875,0 -0.421875,0 -0.421875,0.3125 C 2.765625,0 3.046875,0 3.1875,0 h 1.515625 c 0.140625,0 0.40625,0 0.40625,-0.296875 0,-0.3125 -0.25,-0.3125 -0.421875,-0.3125 H 4.25 v -2.3125 c 0,-1 -0.5,-1.4375 -1.296875,-1.4375 -0.65625,0 -1.109375,0.34375 -1.296875,0.53125 z m 0,0"
               id="id-6c2d4929-bb92-4339-a73a-6fdeb79162c1" />
          </g>
          <g
             transform="translate(159.173,134.765)"
             id="g3600"
             style="fill:#364e59">
            <path
               style="fill:#364e59;stroke:none;stroke-width:0"
               d="M 3.65625,-0.3125 C 3.875,-0.015625 4.34375,0 4.71875,0 c 0.28125,0 0.5,0 0.5,-0.3125 0,-0.296875 -0.25,-0.296875 -0.390625,-0.296875 -0.421875,0 -0.515625,-0.046875 -0.59375,-0.078125 v -2.15625 c 0,-0.703125 -0.546875,-1.546875 -1.984375,-1.546875 -0.421875,0 -1.4375,0 -1.4375,0.734375 0,0.296875 0.203125,0.453125 0.4375,0.453125 0.15625,0 0.4375,-0.09375 0.4375,-0.453125 0,-0.078125 0.015625,-0.09375 0.21875,-0.109375 0.140625,-0.015625 0.265625,-0.015625 0.359375,-0.015625 0.75,0 1.265625,0.3125 1.265625,1.015625 -1.75,0.03125 -2.984375,0.53125 -2.984375,1.484375 0,0.6875 0.625,1.34375 1.640625,1.34375 0.375,0 1,-0.078125 1.46875,-0.375 z m -0.125,-1.859375 v 0.84375 c 0,0.21875 0,0.4375 -0.375,0.609375 -0.359375,0.171875 -0.8125,0.171875 -0.890625,0.171875 -0.625,0 -1.03125,-0.34375 -1.03125,-0.734375 0,-0.484375 0.859375,-0.859375 2.296875,-0.890625 z m 0,0"
               id="id-87b76de8-6f77-4bc6-b8d6-2d6254f6726c" />
          </g>
          <g
             transform="translate(164.403,134.765)"
             id="g3603"
             style="fill:#364e59">
            <path
               style="fill:#364e59;stroke:none;stroke-width:0"
               d="m 1.65625,-3.875 v -1.8125 c 0,-0.296875 -0.0625,-0.40625 -0.40625,-0.40625 H 0.53125 c -0.15625,0 -0.40625,0 -0.40625,0.3125 0,0.296875 0.25,0.296875 0.390625,0.296875 H 0.96875 V -0.40625 C 0.96875,-0.203125 0.96875,0 1.3125,0 1.65625,0 1.65625,-0.203125 1.65625,-0.453125 2.0625,-0.03125 2.5,0.0625 2.8125,0.0625 c 1.078125,0 2.046875,-0.953125 2.046875,-2.21875 0,-1.21875 -0.875,-2.203125 -1.9375,-2.203125 C 2.4375,-4.359375 2,-4.171875 1.65625,-3.875 Z m 0,1.96875 V -2.625 c 0,-0.59375 0.578125,-1.125 1.203125,-1.125 0.734375,0 1.3125,0.734375 1.3125,1.59375 0,0.953125 -0.6875,1.609375 -1.390625,1.609375 -0.78125,0 -1.125,-0.875 -1.125,-1.359375 z m 0,0"
               id="id-1757e375-6822-40cb-b429-c55364a4ed24" />
          </g>
          <g
             transform="translate(169.633,134.765)"
             id="g3606"
             style="fill:#364e59">
            <path
               style="fill:#364e59;stroke:none;stroke-width:0"
               d="m 2.953125,-5.6875 c 0,-0.296875 -0.046875,-0.40625 -0.390625,-0.40625 H 0.984375 c -0.15625,0 -0.40625,0 -0.40625,0.3125 0,0.296875 0.265625,0.296875 0.40625,0.296875 h 1.28125 v 4.875 h -1.28125 c -0.15625,0 -0.40625,0 -0.40625,0.3125 C 0.578125,0 0.84375,0 0.984375,0 H 4.25 c 0.15625,0 0.40625,0 0.40625,-0.296875 0,-0.3125 -0.234375,-0.3125 -0.40625,-0.3125 H 2.953125 Z m 0,0"
               id="id-b73cf72d-f192-4346-9072-f1e70e5dd861" />
          </g>
          <g
             transform="translate(174.864,134.765)"
             id="g3609"
             style="fill:#364e59">
            <path
               style="fill:#364e59;stroke:none;stroke-width:0"
               d="m 4.234375,-1.90625 c 0.203125,0 0.390625,0 0.390625,-0.359375 0,-1.140625 -0.640625,-2.125 -1.9375,-2.125 -1.1875,0 -2.140625,1 -2.140625,2.234375 0,1.203125 1.015625,2.21875 2.296875,2.21875 1.3125,0 1.78125,-0.90625 1.78125,-1.15625 0,-0.265625 -0.28125,-0.265625 -0.34375,-0.265625 -0.1875,0 -0.265625,0.03125 -0.328125,0.21875 -0.21875,0.5 -0.765625,0.59375 -1.046875,0.59375 -0.75,0 -1.484375,-0.5 -1.65625,-1.359375 z M 1.265625,-2.5 C 1.40625,-3.234375 2,-3.78125 2.6875,-3.78125 c 0.515625,0 1.140625,0.25 1.234375,1.28125 z m 0,0"
               id="id-0a68bc6f-a2f5-4aad-8f57-36c919712434" />
          </g>
        </g>
      </g>
    </g>
    <circle
       cx="-23.537886"
       cy="10.701616"
       r="1.138008"
       fill="none"
       stroke="#000000"
       stroke-width="0.569003"
       id="circle3664"
       style="fill:#ffc022" />
    <g
       style="fill:#0084c8;fill-opacity:1"
       id="id-a3613237-3ce1-4216-919d-55bf71c890eb"
       transform="matrix(0.56262982,0,0,0.56262982,-62.179121,-41.21867)">
      <g
         transform="translate(148.712,134.765)"
         id="g4187"
         style="fill:#0084c8">
        <path
           style="fill:#0084c8;stroke:none;stroke-width:0"
           d="M 2.96875,-2.546875 C 2.734375,-2.578125 2.546875,-2.609375 2.296875,-2.65625 2,-2.703125 1.328125,-2.828125 1.328125,-3.203125 c 0,-0.265625 0.3125,-0.578125 1.265625,-0.578125 0.828125,0 0.96875,0.296875 1,0.5625 0,0.171875 0.03125,0.34375 0.328125,0.34375 0.359375,0 0.359375,-0.21875 0.359375,-0.421875 v -0.6875 c 0,-0.15625 0,-0.40625 -0.296875,-0.40625 -0.25,0 -0.28125,0.140625 -0.3125,0.21875 -0.4375,-0.21875 -0.875,-0.21875 -1.0625,-0.21875 -1.65625,0 -1.890625,0.828125 -1.890625,1.1875 0,0.90625 1.046875,1.078125 1.96875,1.21875 0.484375,0.078125 1.28125,0.203125 1.28125,0.734375 0,0.375 -0.375,0.703125 -1.28125,0.703125 -0.46875,0 -1.015625,-0.109375 -1.265625,-0.890625 -0.0625,-0.171875 -0.09375,-0.28125 -0.359375,-0.28125 -0.34375,0 -0.34375,0.203125 -0.34375,0.40625 v 0.96875 c 0,0.15625 0,0.40625 0.296875,0.40625 0.09375,0 0.25,-0.015625 0.375,-0.375 0.484375,0.359375 1.015625,0.375 1.296875,0.375 1.5625,0 1.890625,-0.828125 1.890625,-1.3125 0,-1.03125 -1.28125,-1.25 -1.609375,-1.296875 z m 0,0"
           id="id-7b1caec6-db33-4b67-a56f-8ad9c2c2ece4" />
      </g>
      <g
         transform="translate(153.942,134.765)"
         id="g4190"
         style="fill:#0084c8">
        <path
           style="fill:#0084c8;stroke:none;stroke-width:0"
           d="m 4.234375,-1.90625 c 0.203125,0 0.390625,0 0.390625,-0.359375 0,-1.140625 -0.640625,-2.125 -1.9375,-2.125 -1.1875,0 -2.140625,1 -2.140625,2.234375 0,1.203125 1.015625,2.21875 2.296875,2.21875 1.3125,0 1.78125,-0.90625 1.78125,-1.15625 0,-0.265625 -0.28125,-0.265625 -0.34375,-0.265625 -0.1875,0 -0.265625,0.03125 -0.328125,0.21875 -0.21875,0.5 -0.765625,0.59375 -1.046875,0.59375 -0.75,0 -1.484375,-0.5 -1.65625,-1.359375 z M 1.265625,-2.5 C 1.40625,-3.234375 2,-3.78125 2.6875,-3.78125 c 0.515625,0 1.140625,0.25 1.234375,1.28125 z m 0,0"
           id="id-182485c3-70a3-43af-b541-c74426573d2f" />
      </g>
      <g
         transform="translate(159.173,134.765)"
         id="g4193"
         style="fill:#0084c8">
        <path
           style="fill:#0084c8;stroke:none;stroke-width:0"
           d="m 2.21875,-3.6875 h 1.625 c 0.15625,0 0.40625,0 0.40625,-0.296875 0,-0.3125 -0.25,-0.3125 -0.40625,-0.3125 h -1.625 v -0.8125 c 0,-0.1875 0,-0.40625 -0.34375,-0.40625 -0.34375,0 -0.34375,0.203125 -0.34375,0.40625 v 0.8125 h -0.875 c -0.15625,0 -0.40625,0 -0.40625,0.3125 0,0.296875 0.25,0.296875 0.390625,0.296875 H 1.53125 V -1.25 c 0,0.953125 0.671875,1.3125 1.40625,1.3125 0.734375,0 1.53125,-0.4375 1.53125,-1.3125 0,-0.1875 0,-0.390625 -0.34375,-0.390625 -0.328125,0 -0.34375,0.203125 -0.34375,0.375 0,0.625 -0.578125,0.71875 -0.796875,0.71875 -0.765625,0 -0.765625,-0.515625 -0.765625,-0.765625 z m 0,0"
           id="id-c6ade779-fee7-4bd0-a25f-87b5bcb435c8" />
      </g>
      <g
         transform="translate(164.403,134.765)"
         id="g4196"
         style="fill:#0084c8">
        <path
           style="fill:#0084c8;stroke:none;stroke-width:0"
           d="m 2.90625,-2.515625 c 0.609375,0.328125 0.25,0.140625 0.9375,0.546875 0.265625,0.171875 0.296875,0.171875 0.375,0.171875 0.203125,0 0.328125,-0.1875 0.328125,-0.34375 0,-0.15625 -0.125,-0.25 -0.140625,-0.265625 -0.25,-0.171875 -0.921875,-0.5 -1.1875,-0.640625 L 4.296875,-3.625 c 0.125,-0.078125 0.25,-0.140625 0.25,-0.328125 0,-0.046875 0,-0.328125 -0.40625,-0.328125 L 2.90625,-3.5625 C 2.9375,-3.828125 2.9375,-4.484375 2.9375,-4.78125 c 0,-0.078125 0,-0.40625 -0.328125,-0.40625 -0.328125,0 -0.328125,0.328125 -0.328125,0.40625 0,0.296875 0.015625,0.953125 0.03125,1.21875 L 1.234375,-4.203125 C 1.09375,-4.28125 1.078125,-4.28125 1,-4.28125 c -0.1875,0 -0.328125,0.171875 -0.328125,0.328125 0,0.1875 0.109375,0.25 0.25,0.3125 L 2,-3.046875 0.921875,-2.46875 c -0.109375,0.078125 -0.25,0.140625 -0.25,0.328125 0,0.046875 0,0.34375 0.40625,0.34375 L 2.3125,-2.515625 c -0.015625,0.25 -0.03125,0.90625 -0.03125,1.203125 0,0.09375 0,0.421875 0.328125,0.421875 0.328125,0 0.328125,-0.328125 0.328125,-0.421875 0,-0.296875 0,-0.953125 -0.03125,-1.203125 z m 0,0"
           id="id-391e91a0-6a4e-43df-bc1a-c71351f04fe8" />
      </g>
    </g>
    <g
       style="fill:#0084c8;fill-opacity:1"
       id="id-5356e0cf-c45f-4950-bee8-25a7e46fc0cd"
       transform="matrix(0.56262982,0,0,0.56262982,-81.085681,-85.955488)">
      <g
         transform="translate(172.951,134.765)"
         id="g4200"
         style="fill:#0084c8">
        <path
           style="fill:#0084c8;stroke:none;stroke-width:0"
           d="M 2.21875,-1.859375 C 2.21875,-2.796875 2.796875,-3.75 4,-3.75 c 0.015625,0.234375 0.1875,0.4375 0.4375,0.4375 0.21875,0 0.421875,-0.15625 0.421875,-0.421875 0,-0.203125 -0.125,-0.625 -0.953125,-0.625 -0.5,0 -1.140625,0.1875 -1.6875,0.8125 v -0.34375 c 0,-0.3125 -0.0625,-0.40625 -0.40625,-0.40625 H 0.71875 c -0.15625,0 -0.40625,0 -0.40625,0.296875 0,0.3125 0.25,0.3125 0.40625,0.3125 h 0.8125 v 3.078125 h -0.8125 c -0.15625,0 -0.40625,0 -0.40625,0.296875 C 0.3125,0 0.5625,0 0.71875,0 H 3.3125 c 0.15625,0 0.421875,0 0.421875,-0.296875 0,-0.3125 -0.265625,-0.3125 -0.421875,-0.3125 H 2.21875 Z m 0,0"
           id="id-b1617da5-d3fe-4bd8-b0fb-76bc0d501dca" />
      </g>
      <g
         transform="translate(178.181,134.765)"
         id="g4203"
         style="fill:#0084c8">
        <path
           style="fill:#0084c8;stroke:none;stroke-width:0"
           d="m 4.234375,-1.90625 c 0.203125,0 0.390625,0 0.390625,-0.359375 0,-1.140625 -0.640625,-2.125 -1.9375,-2.125 -1.1875,0 -2.140625,1 -2.140625,2.234375 0,1.203125 1.015625,2.21875 2.296875,2.21875 1.3125,0 1.78125,-0.90625 1.78125,-1.15625 0,-0.265625 -0.28125,-0.265625 -0.34375,-0.265625 -0.1875,0 -0.265625,0.03125 -0.328125,0.21875 -0.21875,0.5 -0.765625,0.59375 -1.046875,0.59375 -0.75,0 -1.484375,-0.5 -1.65625,-1.359375 z M 1.265625,-2.5 C 1.40625,-3.234375 2,-3.78125 2.6875,-3.78125 c 0.515625,0 1.140625,0.25 1.234375,1.28125 z m 0,0"
           id="id-98134393-56e6-4214-9bdd-33c768355bd6" />
      </g>
      <g
         transform="translate(183.412,134.765)"
         id="g4206"
         style="fill:#0084c8">
        <path
           style="fill:#0084c8;stroke:none;stroke-width:0"
           d="M 2.96875,-2.546875 C 2.734375,-2.578125 2.546875,-2.609375 2.296875,-2.65625 2,-2.703125 1.328125,-2.828125 1.328125,-3.203125 c 0,-0.265625 0.3125,-0.578125 1.265625,-0.578125 0.828125,0 0.96875,0.296875 1,0.5625 0,0.171875 0.03125,0.34375 0.328125,0.34375 0.359375,0 0.359375,-0.21875 0.359375,-0.421875 v -0.6875 c 0,-0.15625 0,-0.40625 -0.296875,-0.40625 -0.25,0 -0.28125,0.140625 -0.3125,0.21875 -0.4375,-0.21875 -0.875,-0.21875 -1.0625,-0.21875 -1.65625,0 -1.890625,0.828125 -1.890625,1.1875 0,0.90625 1.046875,1.078125 1.96875,1.21875 0.484375,0.078125 1.28125,0.203125 1.28125,0.734375 0,0.375 -0.375,0.703125 -1.28125,0.703125 -0.46875,0 -1.015625,-0.109375 -1.265625,-0.890625 -0.0625,-0.171875 -0.09375,-0.28125 -0.359375,-0.28125 -0.34375,0 -0.34375,0.203125 -0.34375,0.40625 v 0.96875 c 0,0.15625 0,0.40625 0.296875,0.40625 0.09375,0 0.25,-0.015625 0.375,-0.375 0.484375,0.359375 1.015625,0.375 1.296875,0.375 1.5625,0 1.890625,-0.828125 1.890625,-1.3125 0,-1.03125 -1.28125,-1.25 -1.609375,-1.296875 z m 0,0"
           id="id-79a4d215-8302-47fc-bf93-f86e93a039f9" />
      </g>
      <g
         transform="translate(188.642,134.765)"
         id="g4209"
         style="fill:#0084c8">
        <path
           style="fill:#0084c8;stroke:none;stroke-width:0"
           d="m 4.234375,-1.90625 c 0.203125,0 0.390625,0 0.390625,-0.359375 0,-1.140625 -0.640625,-2.125 -1.9375,-2.125 -1.1875,0 -2.140625,1 -2.140625,2.234375 0,1.203125 1.015625,2.21875 2.296875,2.21875 1.3125,0 1.78125,-0.90625 1.78125,-1.15625 0,-0.265625 -0.28125,-0.265625 -0.34375,-0.265625 -0.1875,0 -0.265625,0.03125 -0.328125,0.21875 -0.21875,0.5 -0.765625,0.59375 -1.046875,0.59375 -0.75,0 -1.484375,-0.5 -1.65625,-1.359375 z M 1.265625,-2.5 C 1.40625,-3.234375 2,-3.78125 2.6875,-3.78125 c 0.515625,0 1.140625,0.25 1.234375,1.28125 z m 0,0"
           id="id-5e606abe-8787-44aa-b747-2916f4f1c3c4" />
      </g>
      <g
         transform="translate(193.872,134.765)"
         id="g4212"
         style="fill:#0084c8">
        <path
           style="fill:#0084c8;stroke:none;stroke-width:0"
           d="m 2.21875,-3.6875 h 1.625 c 0.15625,0 0.40625,0 0.40625,-0.296875 0,-0.3125 -0.25,-0.3125 -0.40625,-0.3125 h -1.625 v -0.8125 c 0,-0.1875 0,-0.40625 -0.34375,-0.40625 -0.34375,0 -0.34375,0.203125 -0.34375,0.40625 v 0.8125 h -0.875 c -0.15625,0 -0.40625,0 -0.40625,0.3125 0,0.296875 0.25,0.296875 0.390625,0.296875 H 1.53125 V -1.25 c 0,0.953125 0.671875,1.3125 1.40625,1.3125 0.734375,0 1.53125,-0.4375 1.53125,-1.3125 0,-0.1875 0,-0.390625 -0.34375,-0.390625 -0.328125,0 -0.34375,0.203125 -0.34375,0.375 0,0.625 -0.578125,0.71875 -0.796875,0.71875 -0.765625,0 -0.765625,-0.515625 -0.765625,-0.765625 z m 0,0"
           id="id-7e7ea4b0-8975-4221-9ee0-7ce385e15508" />
      </g>
      <g
         transform="translate(199.103,134.765)"
         id="g4215"
         style="fill:#0084c8">
        <path
           style="fill:#0084c8;stroke:none;stroke-width:0"
           d="m 2.90625,-2.515625 c 0.609375,0.328125 0.25,0.140625 0.9375,0.546875 0.265625,0.171875 0.296875,0.171875 0.375,0.171875 0.203125,0 0.328125,-0.1875 0.328125,-0.34375 0,-0.15625 -0.125,-0.25 -0.140625,-0.265625 -0.25,-0.171875 -0.921875,-0.5 -1.1875,-0.640625 L 4.296875,-3.625 c 0.125,-0.078125 0.25,-0.140625 0.25,-0.328125 0,-0.046875 0,-0.328125 -0.40625,-0.328125 L 2.90625,-3.5625 C 2.9375,-3.828125 2.9375,-4.484375 2.9375,-4.78125 c 0,-0.078125 0,-0.40625 -0.328125,-0.40625 -0.328125,0 -0.328125,0.328125 -0.328125,0.40625 0,0.296875 0.015625,0.953125 0.03125,1.21875 L 1.234375,-4.203125 C 1.09375,-4.28125 1.078125,-4.28125 1,-4.28125 c -0.1875,0 -0.328125,0.171875 -0.328125,0.328125 0,0.1875 0.109375,0.25 0.25,0.3125 L 2,-3.046875 0.921875,-2.46875 c -0.109375,0.078125 -0.25,0.140625 -0.25,0.328125 0,0.046875 0,0.34375 0.40625,0.34375 L 2.3125,-2.515625 c -0.015625,0.25 -0.03125,0.90625 -0.03125,1.203125 0,0.09375 0,0.421875 0.328125,0.421875 0.328125,0 0.328125,-0.328125 0.328125,-0.421875 0,-0.296875 0,-0.953125 -0.03125,-1.203125 z m 0,0"
           id="id-3fcc6fbe-dea8-4a20-85e5-fc9b8d733bfa" />
      </g>
    </g>
  </g>
</svg>
