<?xml version="1.0" encoding="UTF-8" standalone="no"?>
<!-- Created with Inkscape (http://www.inkscape.org/) -->

<svg
   width="57.309635mm"
   height="58.684273mm"
   viewBox="0 0 57.309635 58.684273"
   version="1.1"
   id="svg5"
   sodipodi:docname="free.svg"
   inkscape:version="1.1 (c4e8f9e, 2021-05-24)"
   xmlns:inkscape="http://www.inkscape.org/namespaces/inkscape"
   xmlns:sodipodi="http://sodipodi.sourceforge.net/DTD/sodipodi-0.dtd"
   xmlns="http://www.w3.org/2000/svg"
   xmlns:svg="http://www.w3.org/2000/svg"
   xmlns:ns10="http://www.iki.fi/pav/software/textext/">
  <sodipodi:namedview
     id="namedview7"
     pagecolor="#ffffff"
     bordercolor="#666666"
     borderopacity="1.0"
     inkscape:pageshadow="2"
     inkscape:pageopacity="0.0"
     inkscape:pagecheckerboard="0"
     inkscape:document-units="mm"
     showgrid="false"
     inkscape:zoom="0.975391"
     inkscape:cx="75.867011"
     inkscape:cy="201.45767"
     inkscape:window-width="1161"
     inkscape:window-height="847"
     inkscape:window-x="0"
     inkscape:window-y="25"
     inkscape:window-maximized="0"
     inkscape:current-layer="layer1">
    <inkscape:grid
       type="xygrid"
       id="grid824"
       originx="-35.440476"
       originy="-79.031357" />
  </sodipodi:namedview>
  <defs
     id="defs2">
    <marker
       style="overflow:visible"
       id="TriangleOutL"
       refX="0"
       refY="0"
       orient="auto"
       inkscape:stockid="TriangleOutL"
       inkscape:isstock="true">
      <path
         transform="scale(0.8)"
         style="fill:context-stroke;fill-rule:evenodd;stroke:context-stroke;stroke-width:1pt"
         d="M 5.77,0 -2.88,5 V -5 Z"
         id="path1644" />
    </marker>
    <defs
       id="id-aa7784ab-8b3a-47be-8388-21599039d135">
      <g
         id="id-d96efea9-e1ab-4998-b3db-4a3ed1174547">
        <symbol
           overflow="visible"
           id="id-ab281b28-6a89-4039-9ac3-48e1dbd21781">
          <path
             style="stroke:none"
             d=""
             id="id-41b96289-8c44-401c-a61d-0b700a5715de" />
        </symbol>
        <symbol
           overflow="visible"
           id="id-d9be1519-a5aa-4d28-bc99-18b974a9ecee">
          <path
             style="stroke:none"
             d="m 4.71875,-3.046875 c 0,-1.84375 -1.015625,-3.15625 -2.109375,-3.15625 C 1.5,-6.203125 0.5,-4.859375 0.5,-3.046875 c 0,1.84375 1.015625,3.15625 2.109375,3.15625 1.125,0 2.109375,-1.328125 2.109375,-3.15625 z M 2.609375,-0.5 C 1.828125,-0.5 1.1875,-1.671875 1.1875,-3.15625 c 0,-1.453125 0.6875,-2.4375 1.421875,-2.4375 0.734375,0 1.421875,0.984375 1.421875,2.4375 0,1.484375 -0.640625,2.65625 -1.421875,2.65625 z m 0,0"
             id="id-a1693d87-9553-4687-ae41-ea8856882f17" />
        </symbol>
        <symbol
           overflow="visible"
           id="id-687f06f8-3d4b-4748-bc84-68b74f77ed8a">
          <path
             style="stroke:none"
             d="M 2.859375,-2.21875 4,-3.6875 h 0.390625 c 0.140625,0 0.421875,0 0.421875,-0.296875 0,-0.3125 -0.265625,-0.3125 -0.421875,-0.3125 h -1.15625 c -0.15625,0 -0.40625,0 -0.40625,0.296875 0,0.3125 0.21875,0.3125 0.484375,0.3125 l -0.734375,1 -0.75,-1 c 0.25,0 0.46875,0 0.46875,-0.3125 0,-0.296875 -0.25,-0.296875 -0.390625,-0.296875 H 0.734375 c -0.140625,0 -0.40625,0 -0.40625,0.3125 0,0.296875 0.265625,0.296875 0.40625,0.296875 h 0.40625 L 2.3125,-2.21875 1.078125,-0.609375 h -0.40625 c -0.140625,0 -0.40625,0 -0.40625,0.3125 C 0.265625,0 0.53125,0 0.671875,0 H 1.84375 C 2,0 2.25,0 2.25,-0.296875 c 0,-0.3125 -0.21875,-0.3125 -0.53125,-0.3125 l 0.859375,-1.21875 0.890625,1.21875 c -0.28125,0 -0.5,0 -0.5,0.3125 C 2.96875,0 3.21875,0 3.375,0 h 1.15625 c 0.140625,0 0.40625,0 0.40625,-0.296875 0,-0.3125 -0.25,-0.3125 -0.40625,-0.3125 H 4.140625 Z m 0,0"
             id="id-f5d762c3-e16f-45b5-b794-8f8d235ad20f" />
        </symbol>
        <symbol
           overflow="visible"
           id="id-fa3a5be9-6026-455d-be15-beeb60a7c9b7">
          <path
             style="stroke:none"
             d="M 0.671875,-0.578125 C 0.578125,-0.5 0.515625,-0.453125 0.515625,-0.3125 0.515625,0 0.765625,0 0.921875,0 H 4.3125 c 0.328125,0 0.390625,-0.09375 0.390625,-0.40625 v -0.265625 c 0,-0.1875 0,-0.40625 -0.34375,-0.40625 -0.34375,0 -0.34375,0.1875 -0.34375,0.46875 h -2.375 c 0.59375,-0.5 1.546875,-1.25 1.984375,-1.65625 0.625,-0.5625 1.078125,-1.1875 1.078125,-1.984375 0,-1.203125 -1,-1.953125 -2.21875,-1.953125 -1.171875,0 -1.96875,0.8125 -1.96875,1.671875 0,0.359375 0.28125,0.46875 0.453125,0.46875 0.203125,0 0.4375,-0.171875 0.4375,-0.4375 0,-0.125 -0.046875,-0.25 -0.140625,-0.328125 0.15625,-0.453125 0.625,-0.765625 1.171875,-0.765625 0.8125,0 1.578125,0.453125 1.578125,1.34375 0,0.6875 -0.484375,1.265625 -1.140625,1.8125 z m 0,0"
             id="id-9b0a8476-b3c5-461d-bd85-d15122244fc0" />
        </symbol>
        <symbol
           overflow="visible"
           id="id-b386ecee-8e7d-4bde-8334-27b68479677f">
          <path
             style="stroke:none"
             d="M 3.984375,-2.71875 C 3.890625,-1.484375 3.109375,-0.5 2.15625,-0.5 2.0625,-0.5 1.703125,-0.515625 1.5,-0.671875 1.53125,-0.71875 1.578125,-0.78125 1.578125,-0.953125 c 0,-0.234375 -0.171875,-0.4375 -0.4375,-0.4375 -0.25,0 -0.4375,0.171875 -0.4375,0.46875 0,0.328125 0.171875,1.03125 1.453125,1.03125 1.3125,0 2.53125,-1.25 2.53125,-3.21875 0,-2.40625 -1.09375,-3.09375 -2.046875,-3.09375 -1.109375,0 -2.109375,0.828125 -2.109375,2.03125 0,1.140625 0.875,2.03125 1.96875,2.03125 0.515625,0 1.03125,-0.171875 1.484375,-0.578125 z m -1.4375,-0.046875 c -0.796875,0 -1.328125,-0.65625 -1.328125,-1.40625 0,-0.859375 0.703125,-1.421875 1.421875,-1.421875 0.4375,0 0.703125,0.234375 0.875,0.4375 0.25,0.328125 0.375,0.828125 0.375,0.890625 0,0.015625 -0.015625,0.03125 -0.015625,0.09375 0,0.046875 0.046875,0.203125 0.046875,0.296875 0,0.546875 -0.546875,1.109375 -1.375,1.109375 z m 0,0"
             id="id-f7c2c0c1-9000-4b61-b013-78d4c38eaa2b" />
        </symbol>
      </g>
    </defs>
  </defs>
  <g
     inkscape:label="Layer 1"
     inkscape:groupmode="layer"
     id="layer1"
     transform="translate(-35.440477,-79.031357)">
    <g
       id="g2297">
      <g
         style="fill:#000000;fill-opacity:1"
         id="id-6bd703f7-87be-4ca7-90da-2e06b2aab952"
         transform="matrix(0.59167674,0,0,0.59162175,-52.844497,57.010197)">
        <g
           transform="translate(148.712,134.765)"
           id="g1103">
          <path
             style="stroke:none"
             d="m 4.71875,-3.046875 c 0,-1.84375 -1.015625,-3.15625 -2.109375,-3.15625 C 1.5,-6.203125 0.5,-4.859375 0.5,-3.046875 c 0,1.84375 1.015625,3.15625 2.109375,3.15625 1.125,0 2.109375,-1.328125 2.109375,-3.15625 z M 2.609375,-0.5 C 1.828125,-0.5 1.1875,-1.671875 1.1875,-3.15625 c 0,-1.453125 0.6875,-2.4375 1.421875,-2.4375 0.734375,0 1.421875,0.984375 1.421875,2.4375 0,1.484375 -0.640625,2.65625 -1.421875,2.65625 z m 0,0"
             id="id-58ea5a13-52b6-46d2-8e7f-ac38c929ff8a" />
        </g>
        <g
           transform="translate(153.942,134.765)"
           id="g1106">
          <path
             style="stroke:none"
             d="M 2.859375,-2.21875 4,-3.6875 h 0.390625 c 0.140625,0 0.421875,0 0.421875,-0.296875 0,-0.3125 -0.265625,-0.3125 -0.421875,-0.3125 h -1.15625 c -0.15625,0 -0.40625,0 -0.40625,0.296875 0,0.3125 0.21875,0.3125 0.484375,0.3125 l -0.734375,1 -0.75,-1 c 0.25,0 0.46875,0 0.46875,-0.3125 0,-0.296875 -0.25,-0.296875 -0.390625,-0.296875 H 0.734375 c -0.140625,0 -0.40625,0 -0.40625,0.3125 0,0.296875 0.265625,0.296875 0.40625,0.296875 h 0.40625 L 2.3125,-2.21875 1.078125,-0.609375 h -0.40625 c -0.140625,0 -0.40625,0 -0.40625,0.3125 C 0.265625,0 0.53125,0 0.671875,0 H 1.84375 C 2,0 2.25,0 2.25,-0.296875 c 0,-0.3125 -0.21875,-0.3125 -0.53125,-0.3125 l 0.859375,-1.21875 0.890625,1.21875 c -0.28125,0 -0.5,0 -0.5,0.3125 C 2.96875,0 3.21875,0 3.375,0 h 1.15625 c 0.140625,0 0.40625,0 0.40625,-0.296875 0,-0.3125 -0.25,-0.3125 -0.40625,-0.3125 H 4.140625 Z m 0,0"
             id="id-6b1b18ab-3ac5-4914-b26d-f7051de83d3e" />
        </g>
        <g
           transform="translate(159.173,134.765)"
           id="g1109">
          <path
             style="stroke:none"
             d="M 0.671875,-0.578125 C 0.578125,-0.5 0.515625,-0.453125 0.515625,-0.3125 0.515625,0 0.765625,0 0.921875,0 H 4.3125 c 0.328125,0 0.390625,-0.09375 0.390625,-0.40625 v -0.265625 c 0,-0.1875 0,-0.40625 -0.34375,-0.40625 -0.34375,0 -0.34375,0.1875 -0.34375,0.46875 h -2.375 c 0.59375,-0.5 1.546875,-1.25 1.984375,-1.65625 0.625,-0.5625 1.078125,-1.1875 1.078125,-1.984375 0,-1.203125 -1,-1.953125 -2.21875,-1.953125 -1.171875,0 -1.96875,0.8125 -1.96875,1.671875 0,0.359375 0.28125,0.46875 0.453125,0.46875 0.203125,0 0.4375,-0.171875 0.4375,-0.4375 0,-0.125 -0.046875,-0.25 -0.140625,-0.328125 0.15625,-0.453125 0.625,-0.765625 1.171875,-0.765625 0.8125,0 1.578125,0.453125 1.578125,1.34375 0,0.6875 -0.484375,1.265625 -1.140625,1.8125 z m 0,0"
             id="id-5414c9e6-0fba-47c1-bf33-8d499a6891db" />
        </g>
        <g
           transform="translate(164.403,134.765)"
           id="g1112">
          <path
             style="stroke:none"
             d="m 4.71875,-3.046875 c 0,-1.84375 -1.015625,-3.15625 -2.109375,-3.15625 C 1.5,-6.203125 0.5,-4.859375 0.5,-3.046875 c 0,1.84375 1.015625,3.15625 2.109375,3.15625 1.125,0 2.109375,-1.328125 2.109375,-3.15625 z M 2.609375,-0.5 C 1.828125,-0.5 1.1875,-1.671875 1.1875,-3.15625 c 0,-1.453125 0.6875,-2.4375 1.421875,-2.4375 0.734375,0 1.421875,0.984375 1.421875,2.4375 0,1.484375 -0.640625,2.65625 -1.421875,2.65625 z m 0,0"
             id="id-83a1afed-5d89-412c-baca-435e934398c0" />
        </g>
        <g
           transform="translate(169.633,134.765)"
           id="g1115">
          <path
             style="stroke:none"
             d="m 4.71875,-3.046875 c 0,-1.84375 -1.015625,-3.15625 -2.109375,-3.15625 C 1.5,-6.203125 0.5,-4.859375 0.5,-3.046875 c 0,1.84375 1.015625,3.15625 2.109375,3.15625 1.125,0 2.109375,-1.328125 2.109375,-3.15625 z M 2.609375,-0.5 C 1.828125,-0.5 1.1875,-1.671875 1.1875,-3.15625 c 0,-1.453125 0.6875,-2.4375 1.421875,-2.4375 0.734375,0 1.421875,0.984375 1.421875,2.4375 0,1.484375 -0.640625,2.65625 -1.421875,2.65625 z m 0,0"
             id="id-95963253-3ed6-4edb-ad12-4dc20bbc66c5" />
        </g>
      </g>
      <g
         style="fill:#000000;fill-opacity:1"
         id="id-ecad433b-abe9-47e4-990c-6adbd4ec8730"
         transform="matrix(0.59167674,0,0,0.59162175,-70.280915,9.3851898)">
        <g
           transform="translate(178.181,134.765)"
           id="g1119">
          <path
             style="stroke:none"
             d="m 4.71875,-3.046875 c 0,-1.84375 -1.015625,-3.15625 -2.109375,-3.15625 C 1.5,-6.203125 0.5,-4.859375 0.5,-3.046875 c 0,1.84375 1.015625,3.15625 2.109375,3.15625 1.125,0 2.109375,-1.328125 2.109375,-3.15625 z M 2.609375,-0.5 C 1.828125,-0.5 1.1875,-1.671875 1.1875,-3.15625 c 0,-1.453125 0.6875,-2.4375 1.421875,-2.4375 0.734375,0 1.421875,0.984375 1.421875,2.4375 0,1.484375 -0.640625,2.65625 -1.421875,2.65625 z m 0,0"
             id="id-ba44f5ff-9c67-4e35-86a1-f9cdb9fea596" />
        </g>
        <g
           transform="translate(183.412,134.765)"
           id="g1122">
          <path
             style="stroke:none"
             d="M 2.859375,-2.21875 4,-3.6875 h 0.390625 c 0.140625,0 0.421875,0 0.421875,-0.296875 0,-0.3125 -0.265625,-0.3125 -0.421875,-0.3125 h -1.15625 c -0.15625,0 -0.40625,0 -0.40625,0.296875 0,0.3125 0.21875,0.3125 0.484375,0.3125 l -0.734375,1 -0.75,-1 c 0.25,0 0.46875,0 0.46875,-0.3125 0,-0.296875 -0.25,-0.296875 -0.390625,-0.296875 H 0.734375 c -0.140625,0 -0.40625,0 -0.40625,0.3125 0,0.296875 0.265625,0.296875 0.40625,0.296875 h 0.40625 L 2.3125,-2.21875 1.078125,-0.609375 h -0.40625 c -0.140625,0 -0.40625,0 -0.40625,0.3125 C 0.265625,0 0.53125,0 0.671875,0 H 1.84375 C 2,0 2.25,0 2.25,-0.296875 c 0,-0.3125 -0.21875,-0.3125 -0.53125,-0.3125 l 0.859375,-1.21875 0.890625,1.21875 c -0.28125,0 -0.5,0 -0.5,0.3125 C 2.96875,0 3.21875,0 3.375,0 h 1.15625 c 0.140625,0 0.40625,0 0.40625,-0.296875 0,-0.3125 -0.25,-0.3125 -0.40625,-0.3125 H 4.140625 Z m 0,0"
             id="id-c0e026b0-2a37-4b7a-87d7-9a3fde685bf2" />
        </g>
        <g
           transform="translate(188.642,134.765)"
           id="g1125">
          <path
             style="stroke:none"
             d="M 3.984375,-2.71875 C 3.890625,-1.484375 3.109375,-0.5 2.15625,-0.5 2.0625,-0.5 1.703125,-0.515625 1.5,-0.671875 1.53125,-0.71875 1.578125,-0.78125 1.578125,-0.953125 c 0,-0.234375 -0.171875,-0.4375 -0.4375,-0.4375 -0.25,0 -0.4375,0.171875 -0.4375,0.46875 0,0.328125 0.171875,1.03125 1.453125,1.03125 1.3125,0 2.53125,-1.25 2.53125,-3.21875 0,-2.40625 -1.09375,-3.09375 -2.046875,-3.09375 -1.109375,0 -2.109375,0.828125 -2.109375,2.03125 0,1.140625 0.875,2.03125 1.96875,2.03125 0.515625,0 1.03125,-0.171875 1.484375,-0.578125 z m -1.4375,-0.046875 c -0.796875,0 -1.328125,-0.65625 -1.328125,-1.40625 0,-0.859375 0.703125,-1.421875 1.421875,-1.421875 0.4375,0 0.703125,0.234375 0.875,0.4375 0.25,0.328125 0.375,0.828125 0.375,0.890625 0,0.015625 -0.015625,0.03125 -0.015625,0.09375 0,0.046875 0.046875,0.203125 0.046875,0.296875 0,0.546875 -0.546875,1.109375 -1.375,1.109375 z m 0,0"
             id="id-9dd3c2b6-4125-4ff1-b26b-9da75e1b482f" />
        </g>
        <g
           transform="translate(193.872,134.765)"
           id="g1128">
          <path
             style="stroke:none"
             d="m 4.71875,-3.046875 c 0,-1.84375 -1.015625,-3.15625 -2.109375,-3.15625 C 1.5,-6.203125 0.5,-4.859375 0.5,-3.046875 c 0,1.84375 1.015625,3.15625 2.109375,3.15625 1.125,0 2.109375,-1.328125 2.109375,-3.15625 z M 2.609375,-0.5 C 1.828125,-0.5 1.1875,-1.671875 1.1875,-3.15625 c 0,-1.453125 0.6875,-2.4375 1.421875,-2.4375 0.734375,0 1.421875,0.984375 1.421875,2.4375 0,1.484375 -0.640625,2.65625 -1.421875,2.65625 z m 0,0"
             id="id-054356dd-292c-40d6-9f73-5622ed7f3d65" />
        </g>
        <g
           transform="translate(199.103,134.765)"
           id="g1131">
          <path
             style="stroke:none"
             d="m 4.71875,-3.046875 c 0,-1.84375 -1.015625,-3.15625 -2.109375,-3.15625 C 1.5,-6.203125 0.5,-4.859375 0.5,-3.046875 c 0,1.84375 1.015625,3.15625 2.109375,3.15625 1.125,0 2.109375,-1.328125 2.109375,-3.15625 z M 2.609375,-0.5 C 1.828125,-0.5 1.1875,-1.671875 1.1875,-3.15625 c 0,-1.453125 0.6875,-2.4375 1.421875,-2.4375 0.734375,0 1.421875,0.984375 1.421875,2.4375 0,1.484375 -0.640625,2.65625 -1.421875,2.65625 z m 0,0"
             id="id-3302ec2e-df54-4e4e-92d9-7fecaa451ab6" />
        </g>
      </g>
      <rect
         style="font-variation-settings:normal;opacity:1;vector-effect:none;fill:#c0bfbc;fill-opacity:1;fill-rule:evenodd;stroke:#000000;stroke-width:0.264583;stroke-linecap:butt;stroke-linejoin:miter;stroke-miterlimit:4;stroke-dasharray:none;stroke-dashoffset:0;stroke-opacity:1;stop-color:#000000;stop-opacity:1"
         id="rect1250"
         width="21.166666"
         height="5.2916665"
         x="52.916668"
         y="132.29167" />
      <g
         id="g1286">
        <rect
           style="font-variation-settings:normal;opacity:1;vector-effect:none;fill:none;fill-opacity:1;fill-rule:evenodd;stroke:#000000;stroke-width:0.264583;stroke-linecap:butt;stroke-linejoin:miter;stroke-miterlimit:4;stroke-dasharray:none;stroke-dashoffset:0;stroke-opacity:1;stop-color:#000000;stop-opacity:1"
           id="rect848"
           width="21.166666"
           height="5.2916665"
           x="52.916664"
           y="84.666664" />
        <g
           style="fill:#000000;fill-opacity:1"
           id="g1272"
           transform="matrix(0.59167674,0,0,0.59162175,-32.222575,9.3851898)">
          <g
             transform="translate(148.712,134.765)"
             id="g1254">
            <path
               style="stroke:none"
               d="m 4.71875,-3.046875 c 0,-1.84375 -1.015625,-3.15625 -2.109375,-3.15625 C 1.5,-6.203125 0.5,-4.859375 0.5,-3.046875 c 0,1.84375 1.015625,3.15625 2.109375,3.15625 1.125,0 2.109375,-1.328125 2.109375,-3.15625 z M 2.609375,-0.5 C 1.828125,-0.5 1.1875,-1.671875 1.1875,-3.15625 c 0,-1.453125 0.6875,-2.4375 1.421875,-2.4375 0.734375,0 1.421875,0.984375 1.421875,2.4375 0,1.484375 -0.640625,2.65625 -1.421875,2.65625 z m 0,0"
               id="path1252" />
          </g>
          <g
             transform="translate(153.942,134.765)"
             id="g1258">
            <path
               style="stroke:none"
               d="M 2.859375,-2.21875 4,-3.6875 h 0.390625 c 0.140625,0 0.421875,0 0.421875,-0.296875 0,-0.3125 -0.265625,-0.3125 -0.421875,-0.3125 h -1.15625 c -0.15625,0 -0.40625,0 -0.40625,0.296875 0,0.3125 0.21875,0.3125 0.484375,0.3125 l -0.734375,1 -0.75,-1 c 0.25,0 0.46875,0 0.46875,-0.3125 0,-0.296875 -0.25,-0.296875 -0.390625,-0.296875 H 0.734375 c -0.140625,0 -0.40625,0 -0.40625,0.3125 0,0.296875 0.265625,0.296875 0.40625,0.296875 h 0.40625 L 2.3125,-2.21875 1.078125,-0.609375 h -0.40625 c -0.140625,0 -0.40625,0 -0.40625,0.3125 C 0.265625,0 0.53125,0 0.671875,0 H 1.84375 C 2,0 2.25,0 2.25,-0.296875 c 0,-0.3125 -0.21875,-0.3125 -0.53125,-0.3125 l 0.859375,-1.21875 0.890625,1.21875 c -0.28125,0 -0.5,0 -0.5,0.3125 C 2.96875,0 3.21875,0 3.375,0 h 1.15625 c 0.140625,0 0.40625,0 0.40625,-0.296875 0,-0.3125 -0.25,-0.3125 -0.40625,-0.3125 H 4.140625 Z m 0,0"
               id="path1256" />
          </g>
          <g
             transform="translate(159.173,134.765)"
             id="g1262">
            <path
               style="stroke:none"
               d="M 0.671875,-0.578125 C 0.578125,-0.5 0.515625,-0.453125 0.515625,-0.3125 0.515625,0 0.765625,0 0.921875,0 H 4.3125 c 0.328125,0 0.390625,-0.09375 0.390625,-0.40625 v -0.265625 c 0,-0.1875 0,-0.40625 -0.34375,-0.40625 -0.34375,0 -0.34375,0.1875 -0.34375,0.46875 h -2.375 c 0.59375,-0.5 1.546875,-1.25 1.984375,-1.65625 0.625,-0.5625 1.078125,-1.1875 1.078125,-1.984375 0,-1.203125 -1,-1.953125 -2.21875,-1.953125 -1.171875,0 -1.96875,0.8125 -1.96875,1.671875 0,0.359375 0.28125,0.46875 0.453125,0.46875 0.203125,0 0.4375,-0.171875 0.4375,-0.4375 0,-0.125 -0.046875,-0.25 -0.140625,-0.328125 0.15625,-0.453125 0.625,-0.765625 1.171875,-0.765625 0.8125,0 1.578125,0.453125 1.578125,1.34375 0,0.6875 -0.484375,1.265625 -1.140625,1.8125 z m 0,0"
               id="path1260" />
          </g>
          <g
             transform="translate(164.403,134.765)"
             id="g1266">
            <path
               style="stroke:none"
               d="m 4.71875,-3.046875 c 0,-1.84375 -1.015625,-3.15625 -2.109375,-3.15625 C 1.5,-6.203125 0.5,-4.859375 0.5,-3.046875 c 0,1.84375 1.015625,3.15625 2.109375,3.15625 1.125,0 2.109375,-1.328125 2.109375,-3.15625 z M 2.609375,-0.5 C 1.828125,-0.5 1.1875,-1.671875 1.1875,-3.15625 c 0,-1.453125 0.6875,-2.4375 1.421875,-2.4375 0.734375,0 1.421875,0.984375 1.421875,2.4375 0,1.484375 -0.640625,2.65625 -1.421875,2.65625 z m 0,0"
               id="path1264" />
          </g>
          <g
             transform="translate(169.633,134.765)"
             id="g1270">
            <path
               style="stroke:none"
               d="m 4.71875,-3.046875 c 0,-1.84375 -1.015625,-3.15625 -2.109375,-3.15625 C 1.5,-6.203125 0.5,-4.859375 0.5,-3.046875 c 0,1.84375 1.015625,3.15625 2.109375,3.15625 1.125,0 2.109375,-1.328125 2.109375,-3.15625 z M 2.609375,-0.5 C 1.828125,-0.5 1.1875,-1.671875 1.1875,-3.15625 c 0,-1.453125 0.6875,-2.4375 1.421875,-2.4375 0.734375,0 1.421875,0.984375 1.421875,2.4375 0,1.484375 -0.640625,2.65625 -1.421875,2.65625 z m 0,0"
               id="path1268" />
          </g>
        </g>
      </g>
      <path
         style="fill:none;stroke:#000000;stroke-width:0.264583px;stroke-linecap:butt;stroke-linejoin:miter;stroke-opacity:1;marker-end:url(#TriangleOutL)"
         d="m 74.083333,87.3125 c 23.812501,10e-7 25.135418,47.625 1.322917,47.625"
         id="path1321"
         sodipodi:nodetypes="cc" />
      <g
         transform="matrix(0.709456,0,0,0.709456,75.642812,79.031623)"
         ns10:version="1.3.1"
         ns10:texconverter="pdflatex"
         ns10:pdfconverter="inkscape"
         ns10:text="${\\texttt{p}}$\n"
         ns10:preamble="/Users/ketiboldiais/Library/Application Support/org.inkscape.Inkscape/config/inkscape/extensions/circuitSymbols/circuitSymbolsPreamble.tex"
         ns10:scale="2.0110554948965156"
         ns10:alignment="middle center"
         ns10:jacobian_sqrt="0.709456"
         id="g2215">
        <defs
           id="id-5b4e76dd-586c-4518-846a-22e5e6c2eb26">
          <g
             id="id-63a994ec-5d9a-4505-a329-69fceaeac1cd">
            <symbol
               overflow="visible"
               id="id-c5e3af50-8c69-4db2-b342-7d7e10709112">
              <path
                 style="stroke:none;stroke-width:0"
                 d=""
                 id="id-322d4ad3-2db6-422b-8d59-3315f813fb20" />
            </symbol>
            <symbol
               overflow="visible"
               id="id-29aab3c8-c07e-47ab-82d1-3fa971a9ff49">
              <path
                 style="stroke:none;stroke-width:0"
                 d="m 1.65625,-2.625 c 0,-0.59375 0.578125,-1.125 1.203125,-1.125 0.734375,0 1.3125,0.734375 1.3125,1.59375 0,0.953125 -0.6875,1.609375 -1.390625,1.609375 -0.78125,0 -1.125,-0.875 -1.125,-1.359375 z m 0,2.171875 C 2.0625,-0.03125 2.5,0.0625 2.8125,0.0625 c 1.078125,0 2.046875,-0.953125 2.046875,-2.21875 0,-1.21875 -0.875,-2.203125 -1.9375,-2.203125 C 2.4375,-4.359375 2,-4.171875 1.65625,-3.875 1.65625,-4.15625 1.640625,-4.296875 1.25,-4.296875 H 0.53125 c -0.15625,0 -0.40625,0 -0.40625,0.3125 0,0.296875 0.25,0.296875 0.390625,0.296875 H 0.96875 v 5.296875 h -0.4375 c -0.15625,0 -0.40625,0 -0.40625,0.296875 0,0.3125 0.25,0.3125 0.390625,0.3125 h 1.59375 C 2.25,2.21875 2.5,2.21875 2.5,1.90625 2.5,1.609375 2.25,1.609375 2.09375,1.609375 h -0.4375 z m 0,0"
                 id="id-373419f6-5f8c-49fd-b9e4-1bf8c53b344c" />
            </symbol>
          </g>
        </defs>
        <g
           id="id-760a6a20-5fa2-464a-8064-6773715245f8"
           transform="translate(-148.837,-130.406)">
          <g
             style="fill:#000000;fill-opacity:1"
             id="id-fa9c6170-a735-4a8e-86b7-6ab17818c76c">
            <g
               transform="translate(148.712,134.765)"
               id="g2211">
              <path
                 style="stroke:none;stroke-width:0"
                 d="m 1.65625,-2.625 c 0,-0.59375 0.578125,-1.125 1.203125,-1.125 0.734375,0 1.3125,0.734375 1.3125,1.59375 0,0.953125 -0.6875,1.609375 -1.390625,1.609375 -0.78125,0 -1.125,-0.875 -1.125,-1.359375 z m 0,2.171875 C 2.0625,-0.03125 2.5,0.0625 2.8125,0.0625 c 1.078125,0 2.046875,-0.953125 2.046875,-2.21875 0,-1.21875 -0.875,-2.203125 -1.9375,-2.203125 C 2.4375,-4.359375 2,-4.171875 1.65625,-3.875 1.65625,-4.15625 1.640625,-4.296875 1.25,-4.296875 H 0.53125 c -0.15625,0 -0.40625,0 -0.40625,0.3125 0,0.296875 0.25,0.296875 0.390625,0.296875 H 0.96875 v 5.296875 h -0.4375 c -0.15625,0 -0.40625,0 -0.40625,0.296875 0,0.3125 0.25,0.3125 0.390625,0.3125 h 1.59375 C 2.25,2.21875 2.5,2.21875 2.5,1.90625 2.5,1.609375 2.25,1.609375 2.09375,1.609375 h -0.4375 z m 0,0"
                 id="id-95df5b50-47e6-46a8-8415-e1327edfd9bc" />
            </g>
          </g>
        </g>
      </g>
    </g>
  </g>
</svg>
