<?xml version="1.0" encoding="UTF-8" standalone="no"?>
<!-- Created with Inkscape (http://www.inkscape.org/) -->

<svg
   width="21.709742mm"
   height="21.255661mm"
   viewBox="0 0 21.709742 21.255661"
   version="1.1"
   id="svg5"
   sodipodi:docname="graph1.svg"
   inkscape:version="1.1 (c4e8f9e, 2021-05-24)"
   xmlns:inkscape="http://www.inkscape.org/namespaces/inkscape"
   xmlns:sodipodi="http://sodipodi.sourceforge.net/DTD/sodipodi-0.dtd"
   xmlns="http://www.w3.org/2000/svg"
   xmlns:svg="http://www.w3.org/2000/svg">
  <sodipodi:namedview
     id="namedview7"
     pagecolor="#ffffff"
     bordercolor="#666666"
     borderopacity="1.0"
     inkscape:pageshadow="2"
     inkscape:pageopacity="0.0"
     inkscape:pagecheckerboard="0"
     inkscape:document-units="mm"
     showgrid="false"
     inkscape:snap-global="true"
     inkscape:snap-center="true"
     inkscape:zoom="1.5748204"
     inkscape:cx="102.55137"
     inkscape:cy="82.231597"
     inkscape:window-width="1312"
     inkscape:window-height="847"
     inkscape:window-x="2429"
     inkscape:window-y="85"
     inkscape:window-maximized="0"
     inkscape:current-layer="layer1">
    <inkscape:grid
       type="xygrid"
       id="grid824"
       originx="-76.953511"
       originy="-95.984272" />
  </sodipodi:namedview>
  <defs
     id="defs2">
    <defs
       id="id-c4fbb303-a675-4257-9b12-f343a3875c28">
      <g
         id="id-88ff3124-b24e-45a1-bc48-c724f04e5bf4">
        <symbol
           overflow="visible"
           id="id-145029bf-8226-47c0-ac07-5a450836472f">
          <path
             style="stroke:none;stroke-width:0"
             d=""
             id="id-2f1f096d-4dbf-4440-9ad6-9ae2ee8fa44b" />
        </symbol>
        <symbol
           overflow="visible"
           id="id-d3973cee-4812-487e-b9c0-9ba74b1e58cf">
          <path
             style="stroke:none;stroke-width:0"
             d="m 4.671875,-3.703125 c 0,-0.546875 -0.265625,-0.703125 -0.4375,-0.703125 -0.25,0 -0.5,0.265625 -0.5,0.484375 0,0.125 0.046875,0.1875 0.15625,0.296875 0.21875,0.203125 0.34375,0.453125 0.34375,0.8125 0,0.421875 -0.609375,2.703125 -1.765625,2.703125 -0.515625,0 -0.75,-0.34375 -0.75,-0.875 0,-0.546875 0.28125,-1.28125 0.578125,-2.109375 0.078125,-0.171875 0.125,-0.3125 0.125,-0.5 0,-0.4375 -0.3125,-0.8125 -0.8125,-0.8125 -0.9375,0 -1.3125,1.453125 -1.3125,1.53125 0,0.109375 0.09375,0.109375 0.109375,0.109375 0.109375,0 0.109375,-0.03125 0.15625,-0.1875 0.296875,-1 0.71875,-1.234375 1.015625,-1.234375 0.078125,0 0.25,0 0.25,0.3125 0,0.25 -0.109375,0.53125 -0.171875,0.703125 -0.4375,1.15625 -0.5625,1.609375 -0.5625,2.046875 0,1.078125 0.875,1.234375 1.328125,1.234375 1.671875,0 2.25,-3.296875 2.25,-3.8125 z m 0,0"
             id="id-f0700192-58ff-4355-8d35-5dcea5a04530" />
        </symbol>
        <symbol
           overflow="visible"
           id="id-356d2d90-125a-4f0f-bc64-113d3583b983">
          <path
             style="stroke:none;stroke-width:0"
             d="m 1.859375,-2.296875 c 0.296875,0 1.03125,-0.03125 1.53125,-0.234375 0.703125,-0.296875 0.75,-0.890625 0.75,-1.03125 0,-0.4375 -0.375,-0.84375 -1.0625,-0.84375 -1.109375,0 -2.625,0.96875 -2.625,2.71875 0,1.015625 0.59375,1.796875 1.578125,1.796875 1.421875,0 2.25,-1.0625 2.25,-1.171875 0,-0.0625 -0.046875,-0.140625 -0.109375,-0.140625 -0.0625,0 -0.078125,0.03125 -0.140625,0.109375 -0.78125,0.984375 -1.875,0.984375 -1.984375,0.984375 -0.78125,0 -0.875,-0.84375 -0.875,-1.15625 0,-0.125 0.015625,-0.421875 0.15625,-1.03125 z m -0.46875,-0.21875 C 1.78125,-4.03125 2.8125,-4.1875 3.078125,-4.1875 c 0.453125,0 0.734375,0.296875 0.734375,0.625 0,1.046875 -1.59375,1.046875 -2.015625,1.046875 z m 0,0"
             id="id-f48a54a2-366e-4152-89fe-57d95eaeb6c5" />
        </symbol>
        <symbol
           overflow="visible"
           id="id-c7692aeb-f9b1-429a-9e3e-da5128e30580">
          <path
             style="stroke:none;stroke-width:0"
             d=""
             id="id-0c622bbd-5293-4b94-8a1e-1f9ca2ece20a" />
        </symbol>
        <symbol
           overflow="visible"
           id="id-337d3602-877b-4d10-ac6a-adcacb4251e3">
          <path
             style="stroke:none;stroke-width:0"
             d="m 2.328125,-4.4375 c 0,-0.1875 0,-0.1875 -0.203125,-0.1875 -0.453125,0.4375 -1.078125,0.4375 -1.359375,0.4375 v 0.25 c 0.15625,0 0.625,0 1,-0.1875 v 3.546875 c 0,0.234375 0,0.328125 -0.6875,0.328125 H 0.8125 V 0 c 0.125,0 0.984375,-0.03125 1.234375,-0.03125 0.21875,0 1.09375,0.03125 1.25,0.03125 V -0.25 H 3.03125 c -0.703125,0 -0.703125,-0.09375 -0.703125,-0.328125 z m 0,0"
             id="id-0b143854-2852-4884-9b90-b5fd47ea6212" />
        </symbol>
        <symbol
           overflow="visible"
           id="id-564fa3d8-08cd-453d-a49f-35ef1e260afb">
          <path
             style="stroke:none;stroke-width:0"
             d="M 3.515625,-1.265625 H 3.28125 c -0.015625,0.15625 -0.09375,0.5625 -0.1875,0.625 C 3.046875,-0.59375 2.515625,-0.59375 2.40625,-0.59375 H 1.125 c 0.734375,-0.640625 0.984375,-0.84375 1.390625,-1.171875 0.515625,-0.40625 1,-0.84375 1,-1.5 0,-0.84375 -0.734375,-1.359375 -1.625,-1.359375 -0.859375,0 -1.453125,0.609375 -1.453125,1.25 0,0.34375 0.296875,0.390625 0.375,0.390625 0.15625,0 0.359375,-0.125 0.359375,-0.375 0,-0.125 -0.046875,-0.375 -0.40625,-0.375 C 0.984375,-4.21875 1.453125,-4.375 1.78125,-4.375 c 0.703125,0 1.0625,0.546875 1.0625,1.109375 0,0.609375 -0.4375,1.078125 -0.65625,1.328125 L 0.515625,-0.265625 C 0.4375,-0.203125 0.4375,-0.1875 0.4375,0 h 2.875 z m 0,0"
             id="id-9be27e99-616a-4ae5-ba5e-f1e10f9677ed" />
        </symbol>
        <symbol
           overflow="visible"
           id="id-ae068b59-574d-446e-8e6c-7fdbd17eec1e">
          <path
             style="stroke:none;stroke-width:0"
             d="m 1.90625,-2.328125 c 0.546875,0 0.9375,0.375 0.9375,1.125 0,0.859375 -0.515625,1.125 -0.90625,1.125 -0.28125,0 -0.90625,-0.078125 -1.1875,-0.5 0.328125,0 0.40625,-0.234375 0.40625,-0.390625 0,-0.21875 -0.171875,-0.375 -0.390625,-0.375 -0.1875,0 -0.390625,0.125 -0.390625,0.40625 0,0.65625 0.71875,1.078125 1.5625,1.078125 0.96875,0 1.640625,-0.65625 1.640625,-1.34375 0,-0.546875 -0.4375,-1.09375 -1.203125,-1.25 0.71875,-0.265625 0.984375,-0.78125 0.984375,-1.21875 0,-0.546875 -0.625,-0.953125 -1.40625,-0.953125 -0.765625,0 -1.359375,0.375 -1.359375,0.9375 0,0.234375 0.15625,0.359375 0.359375,0.359375 0.21875,0 0.359375,-0.15625 0.359375,-0.34375 0,-0.203125 -0.140625,-0.359375 -0.359375,-0.375 0.25,-0.296875 0.71875,-0.375 0.984375,-0.375 0.3125,0 0.75,0.15625 0.75,0.75 0,0.296875 -0.09375,0.625 -0.28125,0.828125 -0.21875,0.265625 -0.421875,0.28125 -0.765625,0.3125 -0.171875,0.015625 -0.1875,0.015625 -0.21875,0.015625 -0.015625,0 -0.078125,0.015625 -0.078125,0.09375 0,0.09375 0.0625,0.09375 0.1875,0.09375 z m 0,0"
             id="id-30f79b9e-39a7-43c1-9a92-758f37f65c84" />
        </symbol>
        <symbol
           overflow="visible"
           id="id-f4434457-3ad9-4b03-98ab-30945745f709">
          <path
             style="stroke:none;stroke-width:0"
             d="m 3.6875,-1.140625 v -0.25 H 2.90625 V -4.5 c 0,-0.140625 0,-0.203125 -0.140625,-0.203125 -0.09375,0 -0.125,0 -0.1875,0.109375 l -2.3125,3.203125 v 0.25 h 2.0625 v 0.5625 c 0,0.25 0,0.328125 -0.578125,0.328125 H 1.5625 V 0 C 1.921875,-0.015625 2.359375,-0.03125 2.609375,-0.03125 2.875,-0.03125 3.3125,-0.015625 3.671875,0 v -0.25 h -0.1875 C 2.90625,-0.25 2.90625,-0.328125 2.90625,-0.578125 v -0.5625 z M 2.375,-3.9375 v 2.546875 H 0.53125 Z m 0,0"
             id="id-3fdaa06a-d0e9-40e7-9101-b9091da5e0e0" />
        </symbol>
        <symbol
           overflow="visible"
           id="id-bbb487f7-80fe-48f8-becf-2b6c87b9e012">
          <path
             style="stroke:none;stroke-width:0"
             d="m 1.078125,-3.890625 c 0.359375,0.09375 0.5625,0.09375 0.671875,0.09375 0.921875,0 1.46875,-0.625 1.46875,-0.734375 0,-0.078125 -0.046875,-0.09375 -0.078125,-0.09375 -0.015625,0 -0.03125,0 -0.0625,0.015625 -0.171875,0.0625 -0.53125,0.203125 -1.046875,0.203125 -0.203125,0 -0.5625,-0.015625 -1.015625,-0.1875 C 0.9375,-4.625 0.921875,-4.625 0.921875,-4.625 c -0.09375,0 -0.09375,0.078125 -0.09375,0.1875 v 2.046875 c 0,0.125 0,0.203125 0.109375,0.203125 0.0625,0 0.078125,0 0.140625,-0.09375 0.296875,-0.375 0.734375,-0.4375 0.96875,-0.4375 0.421875,0 0.609375,0.328125 0.640625,0.390625 0.125,0.234375 0.171875,0.5 0.171875,0.90625 0,0.203125 0,0.609375 -0.21875,0.921875 -0.171875,0.25 -0.46875,0.421875 -0.8125,0.421875 -0.453125,0 -0.921875,-0.25 -1.09375,-0.71875 0.265625,0.015625 0.40625,-0.15625 0.40625,-0.34375 0,-0.296875 -0.265625,-0.34375 -0.359375,-0.34375 0,0 -0.34375,0 -0.34375,0.375 0,0.625 0.578125,1.25 1.40625,1.25 0.890625,0 1.671875,-0.65625 1.671875,-1.546875 0,-0.78125 -0.59375,-1.5 -1.453125,-1.5 -0.3125,0 -0.671875,0.0625 -0.984375,0.328125 z m 0,0"
             id="id-4d0dbdbe-a9e7-4a36-ad0f-3c1d16d21194" />
        </symbol>
      </g>
    </defs>
    <defs
       id="id-c9306608-ad3e-4975-854f-e480f3f819bb">
      <g
         id="id-916dc78a-08ef-4884-be8e-d87a80c0194d">
        <symbol
           overflow="visible"
           id="id-441495fa-a7f7-42b6-827d-3c1cd1bbb7bf">
          <path
             style="stroke:none;stroke-width:0"
             d=""
             id="id-2067c31a-273b-4449-a5a7-bda0fdaf02dc" />
        </symbol>
        <symbol
           overflow="visible"
           id="id-4d606136-37a7-4ac2-b89d-bb85b74f675f">
          <path
             style="stroke:none;stroke-width:0"
             d="m 1.859375,-2.296875 c 0.296875,0 1.03125,-0.03125 1.53125,-0.234375 0.703125,-0.296875 0.75,-0.890625 0.75,-1.03125 0,-0.4375 -0.375,-0.84375 -1.0625,-0.84375 -1.109375,0 -2.625,0.96875 -2.625,2.71875 0,1.015625 0.59375,1.796875 1.578125,1.796875 1.421875,0 2.25,-1.0625 2.25,-1.171875 0,-0.0625 -0.046875,-0.140625 -0.109375,-0.140625 -0.0625,0 -0.078125,0.03125 -0.140625,0.109375 -0.78125,0.984375 -1.875,0.984375 -1.984375,0.984375 -0.78125,0 -0.875,-0.84375 -0.875,-1.15625 0,-0.125 0.015625,-0.421875 0.15625,-1.03125 z m -0.46875,-0.21875 C 1.78125,-4.03125 2.8125,-4.1875 3.078125,-4.1875 c 0.453125,0 0.734375,0.296875 0.734375,0.625 0,1.046875 -1.59375,1.046875 -2.015625,1.046875 z m 0,0"
             id="id-5f0583b4-7d52-4802-901b-8d1a17666386" />
        </symbol>
        <symbol
           overflow="visible"
           id="id-1f67e37d-ab78-4945-85b7-c60f40db7855">
          <path
             style="stroke:none;stroke-width:0"
             d=""
             id="id-8094090b-bfc6-4c4c-92cd-0865a9d013ee" />
        </symbol>
        <symbol
           overflow="visible"
           id="id-ca6d5b23-3b9e-4068-a96f-5d9ccb2f19bd">
          <path
             style="stroke:none;stroke-width:0"
             d="m 1.046875,-2.28125 c 0,-0.5625 0.046875,-1.078125 0.3125,-1.515625 0.234375,-0.375 0.609375,-0.625 1.0625,-0.625 0.203125,0 0.484375,0.046875 0.625,0.234375 C 2.875,-4.171875 2.71875,-4.046875 2.71875,-3.84375 c 0,0.171875 0.125,0.328125 0.328125,0.328125 0.21875,0 0.34375,-0.140625 0.34375,-0.34375 0,-0.40625 -0.296875,-0.765625 -0.984375,-0.765625 -1,0 -2.03125,0.921875 -2.03125,2.421875 0,1.796875 0.84375,2.34375 1.625,2.34375 0.84375,0 1.578125,-0.65625 1.578125,-1.5625 0,-0.890625 -0.703125,-1.546875 -1.515625,-1.546875 -0.5625,0 -0.859375,0.375 -1.015625,0.6875 z M 2,-0.078125 c -0.359375,0 -0.625,-0.203125 -0.78125,-0.515625 C 1.125,-0.796875 1.0625,-1.15625 1.0625,-1.5625 c 0,-0.6875 0.40625,-1.203125 0.96875,-1.203125 0.3125,0 0.53125,0.125 0.703125,0.375 0.171875,0.265625 0.171875,0.5625 0.171875,0.96875 0,0.390625 0,0.6875 -0.1875,0.96875 -0.15625,0.234375 -0.390625,0.375 -0.71875,0.375 z m 0,0"
             id="id-b356cccf-4a86-4161-a74b-6efbab668752" />
        </symbol>
        <symbol
           overflow="visible"
           id="id-ea0760d0-242a-4fc3-8423-430835c1f16a">
          <path
             style="stroke:none;stroke-width:0"
             d="m 3.734375,-4.203125 c 0.0625,-0.09375 0.0625,-0.109375 0.0625,-0.28125 H 1.96875 C 1.6875,-4.484375 1.609375,-4.5 1.359375,-4.515625 1,-4.546875 0.984375,-4.59375 0.96875,-4.703125 H 0.734375 l -0.25,1.484375 H 0.71875 c 0.015625,-0.109375 0.09375,-0.5625 0.203125,-0.640625 0.046875,-0.03125 0.625,-0.03125 0.71875,-0.03125 H 3.15625 c -0.21875,0.28125 -0.578125,0.71875 -0.71875,0.921875 -0.90625,1.1875 -1,2.296875 -1,2.703125 0,0.078125 0,0.40625 0.328125,0.40625 0.34375,0 0.34375,-0.3125 0.34375,-0.40625 v -0.28125 c 0,-1.34375 0.28125,-1.96875 0.578125,-2.34375 z m 0,0"
             id="id-e6780af1-cd15-4dbc-8da7-ad55c530e53f" />
        </symbol>
        <symbol
           overflow="visible"
           id="id-213f100f-56d3-491b-8367-46f303235078">
          <path
             style="stroke:none;stroke-width:0"
             d="m 2.46875,-2.515625 c 0.546875,-0.265625 0.890625,-0.59375 0.890625,-1.078125 0,-0.671875 -0.703125,-1.03125 -1.375,-1.03125 -0.765625,0 -1.390625,0.5 -1.390625,1.15625 0,0.328125 0.15625,0.5625 0.28125,0.703125 0.125,0.15625 0.171875,0.1875 0.578125,0.421875 C 1.0625,-2.171875 0.375,-1.796875 0.375,-1.0625 c 0,0.765625 0.796875,1.203125 1.59375,1.203125 0.890625,0 1.609375,-0.5625 1.609375,-1.3125 0,-0.46875 -0.265625,-0.859375 -0.671875,-1.09375 -0.09375,-0.0625 -0.328125,-0.1875 -0.4375,-0.25 z m -1.125,-0.65625 c -0.1875,-0.109375 -0.375,-0.296875 -0.375,-0.5625 0,-0.4375 0.5,-0.6875 1,-0.6875 0.546875,0 1.03125,0.34375 1.03125,0.828125 0,0.625 -0.734375,0.9375 -0.734375,0.9375 -0.015625,0 -0.03125,0 -0.078125,-0.03125 z m 0.328125,0.96875 0.96875,0.546875 c 0.171875,0.109375 0.515625,0.3125 0.515625,0.71875 0,0.53125 -0.578125,0.859375 -1.171875,0.859375 -0.640625,0 -1.1875,-0.421875 -1.1875,-0.984375 0,-0.515625 0.375,-0.921875 0.875,-1.140625 z m 0,0"
             id="id-9b01fbe4-9bf4-4456-9036-414cf4b3e78f" />
        </symbol>
        <symbol
           overflow="visible"
           id="id-0d4eff31-a0e9-4b8f-9972-daeeebbba38d">
          <path
             style="stroke:none;stroke-width:0"
             d="m 2.90625,-2.078125 c 0,1.734375 -0.84375,2 -1.265625,2 -0.15625,0 -0.53125,-0.015625 -0.71875,-0.234375 0.296875,-0.03125 0.3125,-0.265625 0.3125,-0.328125 0,-0.171875 -0.125,-0.328125 -0.328125,-0.328125 -0.203125,0 -0.328125,0.140625 -0.328125,0.34375 0,0.46875 0.390625,0.765625 1.0625,0.765625 1,0 1.9375,-0.9375 1.9375,-2.4375 C 3.578125,-4.015625 2.8125,-4.625 2,-4.625 c -0.234375,0 -0.703125,0.03125 -1.109375,0.421875 -0.234375,0.234375 -0.515625,0.5 -0.515625,1.125 0,0.890625 0.703125,1.546875 1.515625,1.546875 0.5625,0 0.859375,-0.375 1.015625,-0.6875 z m -0.96875,0.34375 c -0.28125,0 -0.53125,-0.078125 -0.734375,-0.40625 -0.15625,-0.25 -0.15625,-0.546875 -0.15625,-0.9375 0,-0.40625 0,-0.671875 0.203125,-0.953125 0.171875,-0.25 0.390625,-0.390625 0.75,-0.390625 0.359375,0 0.578125,0.21875 0.6875,0.40625 0.1875,0.28125 0.203125,0.78125 0.203125,1.015625 0,0.90625 -0.515625,1.265625 -0.953125,1.265625 z m 0,0"
             id="id-9c150957-f477-49de-bf39-3a892d779f9a" />
        </symbol>
      </g>
    </defs>
  </defs>
  <g
     inkscape:label="Layer 1"
     inkscape:groupmode="layer"
     id="layer1"
     transform="translate(-76.95351,-95.984272)">
    <g
       id="g2642">
      <circle
         style="font-variation-settings:normal;vector-effect:none;fill:none;fill-opacity:1;fill-rule:evenodd;stroke:#000000;stroke-width:0.389433;stroke-linecap:butt;stroke-linejoin:miter;stroke-miterlimit:4;stroke-dasharray:none;stroke-dashoffset:0;stroke-opacity:1;stop-color:#000000"
         id="path1042"
         cx="95.609207"
         cy="113.77084"
         r="1.9471679" />
      <circle
         style="font-variation-settings:normal;vector-effect:none;fill:none;fill-opacity:1;fill-rule:evenodd;stroke:#000000;stroke-width:0.389433;stroke-linecap:butt;stroke-linejoin:miter;stroke-miterlimit:4;stroke-dasharray:none;stroke-dashoffset:0;stroke-opacity:1;stop-color:#000000"
         id="circle1124"
         cx="80.031853"
         cy="113.77084"
         r="1.9471679" />
      <circle
         style="font-variation-settings:normal;vector-effect:none;fill:none;fill-opacity:1;fill-rule:evenodd;stroke:#000000;stroke-width:0.389433;stroke-linecap:butt;stroke-linejoin:miter;stroke-miterlimit:4;stroke-dasharray:none;stroke-dashoffset:0;stroke-opacity:1;stop-color:#000000"
         id="circle1128"
         cx="80.031853"
         cy="98.193474"
         r="1.9471679" />
      <circle
         style="font-variation-settings:normal;vector-effect:none;fill:none;fill-opacity:1;fill-rule:evenodd;stroke:#000000;stroke-width:0.389433;stroke-linecap:butt;stroke-linejoin:miter;stroke-miterlimit:4;stroke-dasharray:none;stroke-dashoffset:0;stroke-opacity:1;stop-color:#000000"
         id="circle1130"
         cx="95.609207"
         cy="98.193474"
         r="1.9471679" />
      <circle
         style="font-variation-settings:normal;vector-effect:none;fill:none;fill-opacity:1;fill-rule:evenodd;stroke:#000000;stroke-width:0.389433;stroke-linecap:butt;stroke-linejoin:miter;stroke-miterlimit:4;stroke-dasharray:none;stroke-dashoffset:0;stroke-opacity:1;stop-color:#000000"
         id="circle1132"
         cx="87.820534"
         cy="105.98218"
         r="1.9471679" />
      <path
         style="fill:none;fill-rule:evenodd;stroke:#000000;stroke-width:0.389433px;stroke-linecap:butt;stroke-linejoin:miter;stroke-opacity:1"
         d="m 89.19739,107.35903 5.034961,5.03496"
         id="path1236"
         inkscape:connector-type="polyline"
         inkscape:connector-curvature="0"
         inkscape:connection-start="#circle1132"
         inkscape:connection-end="#path1042" />
      <path
         style="fill:none;fill-rule:evenodd;stroke:#000000;stroke-width:0.389433px;stroke-linecap:butt;stroke-linejoin:miter;stroke-opacity:1"
         d="m 89.197387,104.60532 5.034967,-5.034988"
         id="path1238"
         inkscape:connector-type="polyline"
         inkscape:connector-curvature="0"
         inkscape:connection-start="#circle1132"
         inkscape:connection-end="#circle1130" />
      <path
         style="fill:none;fill-rule:evenodd;stroke:#000000;stroke-width:0.389433px;stroke-linecap:butt;stroke-linejoin:miter;stroke-opacity:1"
         d="m 81.408706,99.570331 5.034974,5.034989"
         id="path1240"
         inkscape:connector-type="polyline"
         inkscape:connector-curvature="0"
         inkscape:connection-start="#circle1128"
         inkscape:connection-end="#circle1132" />
      <path
         style="fill:none;fill-rule:evenodd;stroke:#000000;stroke-width:0.389433px;stroke-linecap:butt;stroke-linejoin:miter;stroke-opacity:1"
         d="m 81.40871,112.39399 5.034967,-5.03496"
         id="path1242"
         inkscape:connector-type="polyline"
         inkscape:connector-curvature="0"
         inkscape:connection-start="#circle1124"
         inkscape:connection-end="#circle1132" />
      <path
         style="fill:none;fill-rule:evenodd;stroke:#000000;stroke-width:0.389433px;stroke-linecap:butt;stroke-linejoin:miter;stroke-opacity:1"
         d="m 80.031853,100.14064 v 11.68304"
         id="path1266"
         inkscape:connector-type="polyline"
         inkscape:connector-curvature="0"
         inkscape:connection-start="#circle1128"
         inkscape:connection-end="#circle1124" />
      <path
         style="fill:none;fill-rule:evenodd;stroke:#000000;stroke-width:0.389433px;stroke-linecap:butt;stroke-linejoin:miter;stroke-opacity:1"
         d="M 81.979021,113.77084 H 93.662039"
         id="path1268"
         inkscape:connector-type="polyline"
         inkscape:connector-curvature="0"
         inkscape:connection-start="#circle1124"
         inkscape:connection-end="#path1042" />
      <path
         style="fill:none;fill-rule:evenodd;stroke:#000000;stroke-width:0.389433px;stroke-linecap:butt;stroke-linejoin:miter;stroke-opacity:1"
         d="M 95.609207,111.82368 V 100.14064"
         id="path1270"
         inkscape:connector-type="polyline"
         inkscape:connector-curvature="0"
         inkscape:connection-start="#path1042"
         inkscape:connection-end="#circle1130" />
      <path
         style="fill:none;fill-rule:evenodd;stroke:#000000;stroke-width:0.389433px;stroke-linecap:butt;stroke-linejoin:miter;stroke-opacity:1"
         d="M 81.979021,98.193474 H 93.662039"
         id="path1456"
         inkscape:connector-type="polyline"
         inkscape:connector-curvature="0"
         inkscape:connection-start="#circle1128"
         inkscape:connection-end="#circle1130" />
      <g
         id="g2422"
         transform="translate(-9.183096,-22.88935)">
        <g
           transform="matrix(0.279061,0,0,0.279061,88.039718,137.06654)"
           id="g1593"
           style="fill:#000000;fill-opacity:1">
          <path
             style="stroke:none;stroke-width:0"
             d="m 4.671875,-3.703125 c 0,-0.546875 -0.265625,-0.703125 -0.4375,-0.703125 -0.25,0 -0.5,0.265625 -0.5,0.484375 0,0.125 0.046875,0.1875 0.15625,0.296875 0.21875,0.203125 0.34375,0.453125 0.34375,0.8125 0,0.421875 -0.609375,2.703125 -1.765625,2.703125 -0.515625,0 -0.75,-0.34375 -0.75,-0.875 0,-0.546875 0.28125,-1.28125 0.578125,-2.109375 0.078125,-0.171875 0.125,-0.3125 0.125,-0.5 0,-0.4375 -0.3125,-0.8125 -0.8125,-0.8125 -0.9375,0 -1.3125,1.453125 -1.3125,1.53125 0,0.109375 0.09375,0.109375 0.109375,0.109375 0.109375,0 0.109375,-0.03125 0.15625,-0.1875 0.296875,-1 0.71875,-1.234375 1.015625,-1.234375 0.078125,0 0.25,0 0.25,0.3125 0,0.25 -0.109375,0.53125 -0.171875,0.703125 -0.4375,1.15625 -0.5625,1.609375 -0.5625,2.046875 0,1.078125 0.875,1.234375 1.328125,1.234375 1.671875,0 2.25,-3.296875 2.25,-3.8125 z m 0,0"
             id="id-64f76e34-cb4f-4f8f-b9c6-3907bd5d61fa" />
        </g>
        <g
           transform="matrix(0.279061,0,0,0.279061,89.387304,137.48346)"
           id="g1597"
           style="fill:#000000;fill-opacity:1">
          <path
             style="stroke:none;stroke-width:0"
             d="m 2.328125,-4.4375 c 0,-0.1875 0,-0.1875 -0.203125,-0.1875 -0.453125,0.4375 -1.078125,0.4375 -1.359375,0.4375 v 0.25 c 0.15625,0 0.625,0 1,-0.1875 v 3.546875 c 0,0.234375 0,0.328125 -0.6875,0.328125 H 0.8125 V 0 c 0.125,0 0.984375,-0.03125 1.234375,-0.03125 0.21875,0 1.09375,0.03125 1.25,0.03125 V -0.25 H 3.03125 c -0.703125,0 -0.703125,-0.09375 -0.703125,-0.328125 z m 0,0"
             id="id-b577c765-8f44-4cc6-9e8f-6fff3f8d9add" />
        </g>
      </g>
      <g
         id="g2428"
         transform="translate(2.8419861,-22.88935)">
        <g
           transform="matrix(0.279061,0,0,0.279061,91.561468,137.06654)"
           id="g1601"
           style="fill:#000000;fill-opacity:1">
          <path
             style="stroke:none;stroke-width:0"
             d="m 4.671875,-3.703125 c 0,-0.546875 -0.265625,-0.703125 -0.4375,-0.703125 -0.25,0 -0.5,0.265625 -0.5,0.484375 0,0.125 0.046875,0.1875 0.15625,0.296875 0.21875,0.203125 0.34375,0.453125 0.34375,0.8125 0,0.421875 -0.609375,2.703125 -1.765625,2.703125 -0.515625,0 -0.75,-0.34375 -0.75,-0.875 0,-0.546875 0.28125,-1.28125 0.578125,-2.109375 0.078125,-0.171875 0.125,-0.3125 0.125,-0.5 0,-0.4375 -0.3125,-0.8125 -0.8125,-0.8125 -0.9375,0 -1.3125,1.453125 -1.3125,1.53125 0,0.109375 0.09375,0.109375 0.109375,0.109375 0.109375,0 0.109375,-0.03125 0.15625,-0.1875 0.296875,-1 0.71875,-1.234375 1.015625,-1.234375 0.078125,0 0.25,0 0.25,0.3125 0,0.25 -0.109375,0.53125 -0.171875,0.703125 -0.4375,1.15625 -0.5625,1.609375 -0.5625,2.046875 0,1.078125 0.875,1.234375 1.328125,1.234375 1.671875,0 2.25,-3.296875 2.25,-3.8125 z m 0,0"
             id="id-20412a0f-570d-45e2-b016-57d5dd997bce" />
        </g>
        <g
           transform="matrix(0.279061,0,0,0.279061,92.909054,137.48346)"
           id="g1605"
           style="fill:#000000;fill-opacity:1">
          <path
             style="stroke:none;stroke-width:0"
             d="M 3.515625,-1.265625 H 3.28125 c -0.015625,0.15625 -0.09375,0.5625 -0.1875,0.625 C 3.046875,-0.59375 2.515625,-0.59375 2.40625,-0.59375 H 1.125 c 0.734375,-0.640625 0.984375,-0.84375 1.390625,-1.171875 0.515625,-0.40625 1,-0.84375 1,-1.5 0,-0.84375 -0.734375,-1.359375 -1.625,-1.359375 -0.859375,0 -1.453125,0.609375 -1.453125,1.25 0,0.34375 0.296875,0.390625 0.375,0.390625 0.15625,0 0.359375,-0.125 0.359375,-0.375 0,-0.125 -0.046875,-0.375 -0.40625,-0.375 C 0.984375,-4.21875 1.453125,-4.375 1.78125,-4.375 c 0.703125,0 1.0625,0.546875 1.0625,1.109375 0,0.609375 -0.4375,1.078125 -0.65625,1.328125 L 0.515625,-0.265625 C 0.4375,-0.203125 0.4375,-0.1875 0.4375,0 h 2.875 z m 0,0"
             id="id-98b640de-b637-4c75-8863-ee7687885a0e" />
        </g>
      </g>
      <g
         id="g2434"
         transform="translate(-0.68820553,-38.486341)">
        <g
           transform="matrix(0.279061,0,0,0.279061,95.082939,137.06654)"
           id="g1609"
           style="fill:#000000;fill-opacity:1">
          <path
             style="stroke:none;stroke-width:0"
             d="m 4.671875,-3.703125 c 0,-0.546875 -0.265625,-0.703125 -0.4375,-0.703125 -0.25,0 -0.5,0.265625 -0.5,0.484375 0,0.125 0.046875,0.1875 0.15625,0.296875 0.21875,0.203125 0.34375,0.453125 0.34375,0.8125 0,0.421875 -0.609375,2.703125 -1.765625,2.703125 -0.515625,0 -0.75,-0.34375 -0.75,-0.875 0,-0.546875 0.28125,-1.28125 0.578125,-2.109375 0.078125,-0.171875 0.125,-0.3125 0.125,-0.5 0,-0.4375 -0.3125,-0.8125 -0.8125,-0.8125 -0.9375,0 -1.3125,1.453125 -1.3125,1.53125 0,0.109375 0.09375,0.109375 0.109375,0.109375 0.109375,0 0.109375,-0.03125 0.15625,-0.1875 0.296875,-1 0.71875,-1.234375 1.015625,-1.234375 0.078125,0 0.25,0 0.25,0.3125 0,0.25 -0.109375,0.53125 -0.171875,0.703125 -0.4375,1.15625 -0.5625,1.609375 -0.5625,2.046875 0,1.078125 0.875,1.234375 1.328125,1.234375 1.671875,0 2.25,-3.296875 2.25,-3.8125 z m 0,0"
             id="id-20470549-67b9-4d32-94c9-60d39094d826" />
        </g>
        <g
           transform="matrix(0.279061,0,0,0.279061,96.430525,137.48346)"
           id="g1613"
           style="fill:#000000;fill-opacity:1">
          <path
             style="stroke:none;stroke-width:0"
             d="m 1.90625,-2.328125 c 0.546875,0 0.9375,0.375 0.9375,1.125 0,0.859375 -0.515625,1.125 -0.90625,1.125 -0.28125,0 -0.90625,-0.078125 -1.1875,-0.5 0.328125,0 0.40625,-0.234375 0.40625,-0.390625 0,-0.21875 -0.171875,-0.375 -0.390625,-0.375 -0.1875,0 -0.390625,0.125 -0.390625,0.40625 0,0.65625 0.71875,1.078125 1.5625,1.078125 0.96875,0 1.640625,-0.65625 1.640625,-1.34375 0,-0.546875 -0.4375,-1.09375 -1.203125,-1.25 0.71875,-0.265625 0.984375,-0.78125 0.984375,-1.21875 0,-0.546875 -0.625,-0.953125 -1.40625,-0.953125 -0.765625,0 -1.359375,0.375 -1.359375,0.9375 0,0.234375 0.15625,0.359375 0.359375,0.359375 0.21875,0 0.359375,-0.15625 0.359375,-0.34375 0,-0.203125 -0.140625,-0.359375 -0.359375,-0.375 0.25,-0.296875 0.71875,-0.375 0.984375,-0.375 0.3125,0 0.75,0.15625 0.75,0.75 0,0.296875 -0.09375,0.625 -0.28125,0.828125 -0.21875,0.265625 -0.421875,0.28125 -0.765625,0.3125 -0.171875,0.015625 -0.1875,0.015625 -0.21875,0.015625 -0.015625,0 -0.078125,0.015625 -0.078125,0.09375 0,0.09375 0.0625,0.09375 0.1875,0.09375 z m 0,0"
             id="id-b36c4c5e-6b7f-4bca-ac25-eb4158e90e09" />
        </g>
      </g>
      <g
         id="g2440"
         transform="translate(-19.802292,-38.46672)">
        <g
           transform="matrix(0.279061,0,0,0.279061,98.60441,137.06654)"
           id="g1617"
           style="fill:#000000;fill-opacity:1">
          <path
             style="stroke:none;stroke-width:0"
             d="m 4.671875,-3.703125 c 0,-0.546875 -0.265625,-0.703125 -0.4375,-0.703125 -0.25,0 -0.5,0.265625 -0.5,0.484375 0,0.125 0.046875,0.1875 0.15625,0.296875 0.21875,0.203125 0.34375,0.453125 0.34375,0.8125 0,0.421875 -0.609375,2.703125 -1.765625,2.703125 -0.515625,0 -0.75,-0.34375 -0.75,-0.875 0,-0.546875 0.28125,-1.28125 0.578125,-2.109375 0.078125,-0.171875 0.125,-0.3125 0.125,-0.5 0,-0.4375 -0.3125,-0.8125 -0.8125,-0.8125 -0.9375,0 -1.3125,1.453125 -1.3125,1.53125 0,0.109375 0.09375,0.109375 0.109375,0.109375 0.109375,0 0.109375,-0.03125 0.15625,-0.1875 0.296875,-1 0.71875,-1.234375 1.015625,-1.234375 0.078125,0 0.25,0 0.25,0.3125 0,0.25 -0.109375,0.53125 -0.171875,0.703125 -0.4375,1.15625 -0.5625,1.609375 -0.5625,2.046875 0,1.078125 0.875,1.234375 1.328125,1.234375 1.671875,0 2.25,-3.296875 2.25,-3.8125 z m 0,0"
             id="id-52db13a9-d2a1-4031-be88-623ef54786f9" />
        </g>
        <g
           transform="matrix(0.279061,0,0,0.279061,99.951995,137.48346)"
           id="g1621"
           style="fill:#000000;fill-opacity:1">
          <path
             style="stroke:none;stroke-width:0"
             d="m 3.6875,-1.140625 v -0.25 H 2.90625 V -4.5 c 0,-0.140625 0,-0.203125 -0.140625,-0.203125 -0.09375,0 -0.125,0 -0.1875,0.109375 l -2.3125,3.203125 v 0.25 h 2.0625 v 0.5625 c 0,0.25 0,0.328125 -0.578125,0.328125 H 1.5625 V 0 C 1.921875,-0.015625 2.359375,-0.03125 2.609375,-0.03125 2.875,-0.03125 3.3125,-0.015625 3.671875,0 v -0.25 h -0.1875 C 2.90625,-0.25 2.90625,-0.328125 2.90625,-0.578125 v -0.5625 z M 2.375,-3.9375 v 2.546875 H 0.53125 Z m 0,0"
             id="id-cca1d92f-00d0-457a-86dd-10ff657110a6" />
        </g>
      </g>
      <g
         id="g2446"
         transform="translate(-15.511381,-30.697637)">
        <g
           transform="matrix(0.279061,0,0,0.279061,102.12616,137.06654)"
           id="g1625"
           style="fill:#000000;fill-opacity:1">
          <path
             style="stroke:none;stroke-width:0"
             d="m 4.671875,-3.703125 c 0,-0.546875 -0.265625,-0.703125 -0.4375,-0.703125 -0.25,0 -0.5,0.265625 -0.5,0.484375 0,0.125 0.046875,0.1875 0.15625,0.296875 0.21875,0.203125 0.34375,0.453125 0.34375,0.8125 0,0.421875 -0.609375,2.703125 -1.765625,2.703125 -0.515625,0 -0.75,-0.34375 -0.75,-0.875 0,-0.546875 0.28125,-1.28125 0.578125,-2.109375 0.078125,-0.171875 0.125,-0.3125 0.125,-0.5 0,-0.4375 -0.3125,-0.8125 -0.8125,-0.8125 -0.9375,0 -1.3125,1.453125 -1.3125,1.53125 0,0.109375 0.09375,0.109375 0.109375,0.109375 0.109375,0 0.109375,-0.03125 0.15625,-0.1875 0.296875,-1 0.71875,-1.234375 1.015625,-1.234375 0.078125,0 0.25,0 0.25,0.3125 0,0.25 -0.109375,0.53125 -0.171875,0.703125 -0.4375,1.15625 -0.5625,1.609375 -0.5625,2.046875 0,1.078125 0.875,1.234375 1.328125,1.234375 1.671875,0 2.25,-3.296875 2.25,-3.8125 z m 0,0"
             id="id-f3cf24c1-5bbc-471a-9064-ea24be950f03" />
        </g>
        <g
           transform="matrix(0.279061,0,0,0.279061,103.47375,137.48346)"
           id="g1629"
           style="fill:#000000;fill-opacity:1">
          <path
             style="stroke:none;stroke-width:0"
             d="m 1.078125,-3.890625 c 0.359375,0.09375 0.5625,0.09375 0.671875,0.09375 0.921875,0 1.46875,-0.625 1.46875,-0.734375 0,-0.078125 -0.046875,-0.09375 -0.078125,-0.09375 -0.015625,0 -0.03125,0 -0.0625,0.015625 -0.171875,0.0625 -0.53125,0.203125 -1.046875,0.203125 -0.203125,0 -0.5625,-0.015625 -1.015625,-0.1875 C 0.9375,-4.625 0.921875,-4.625 0.921875,-4.625 c -0.09375,0 -0.09375,0.078125 -0.09375,0.1875 v 2.046875 c 0,0.125 0,0.203125 0.109375,0.203125 0.0625,0 0.078125,0 0.140625,-0.09375 0.296875,-0.375 0.734375,-0.4375 0.96875,-0.4375 0.421875,0 0.609375,0.328125 0.640625,0.390625 0.125,0.234375 0.171875,0.5 0.171875,0.90625 0,0.203125 0,0.609375 -0.21875,0.921875 -0.171875,0.25 -0.46875,0.421875 -0.8125,0.421875 -0.453125,0 -0.921875,-0.25 -1.09375,-0.71875 0.265625,0.015625 0.40625,-0.15625 0.40625,-0.34375 0,-0.296875 -0.265625,-0.34375 -0.359375,-0.34375 0,0 -0.34375,0 -0.34375,0.375 0,0.625 0.578125,1.25 1.40625,1.25 0.890625,0 1.671875,-0.65625 1.671875,-1.546875 0,-0.78125 -0.59375,-1.5 -1.453125,-1.5 -0.3125,0 -0.671875,0.0625 -0.984375,0.328125 z m 0,0"
             id="id-9d62a958-98c3-4aef-8516-873b0227d63f" />
        </g>
      </g>
      <g
         id="g2452"
         transform="translate(-18.182733,-20.243527)">
        <g
           transform="matrix(0.279061,0,0,0.279061,105.64763,137.06654)"
           id="g1633"
           style="fill:#000000;fill-opacity:1">
          <path
             style="stroke:none;stroke-width:0"
             d="m 1.859375,-2.296875 c 0.296875,0 1.03125,-0.03125 1.53125,-0.234375 0.703125,-0.296875 0.75,-0.890625 0.75,-1.03125 0,-0.4375 -0.375,-0.84375 -1.0625,-0.84375 -1.109375,0 -2.625,0.96875 -2.625,2.71875 0,1.015625 0.59375,1.796875 1.578125,1.796875 1.421875,0 2.25,-1.0625 2.25,-1.171875 0,-0.0625 -0.046875,-0.140625 -0.109375,-0.140625 -0.0625,0 -0.078125,0.03125 -0.140625,0.109375 -0.78125,0.984375 -1.875,0.984375 -1.984375,0.984375 -0.78125,0 -0.875,-0.84375 -0.875,-1.15625 0,-0.125 0.015625,-0.421875 0.15625,-1.03125 z m -0.46875,-0.21875 C 1.78125,-4.03125 2.8125,-4.1875 3.078125,-4.1875 c 0.453125,0 0.734375,0.296875 0.734375,0.625 0,1.046875 -1.59375,1.046875 -2.015625,1.046875 z m 0,0"
             id="id-4bc8f77f-a1ce-4bb9-b14d-e3e755175d9f" />
        </g>
        <g
           transform="matrix(0.279061,0,0,0.279061,106.94219,137.48346)"
           id="g1637"
           style="fill:#000000;fill-opacity:1">
          <path
             style="stroke:none;stroke-width:0"
             d="m 2.328125,-4.4375 c 0,-0.1875 0,-0.1875 -0.203125,-0.1875 -0.453125,0.4375 -1.078125,0.4375 -1.359375,0.4375 v 0.25 c 0.15625,0 0.625,0 1,-0.1875 v 3.546875 c 0,0.234375 0,0.328125 -0.6875,0.328125 H 0.8125 V 0 c 0.125,0 0.984375,-0.03125 1.234375,-0.03125 0.21875,0 1.09375,0.03125 1.25,0.03125 V -0.25 H 3.03125 c -0.703125,0 -0.703125,-0.09375 -0.703125,-0.328125 z m 0,0"
             id="id-3c79e77c-cb7d-4a5b-a1cb-21affbc2bd38" />
        </g>
      </g>
      <g
         id="g2458"
         transform="translate(-12.728463,-30.608008)">
        <g
           transform="matrix(0.279061,0,0,0.279061,109.11608,137.06654)"
           id="g1641"
           style="fill:#000000;fill-opacity:1">
          <path
             style="stroke:none;stroke-width:0"
             d="m 1.859375,-2.296875 c 0.296875,0 1.03125,-0.03125 1.53125,-0.234375 0.703125,-0.296875 0.75,-0.890625 0.75,-1.03125 0,-0.4375 -0.375,-0.84375 -1.0625,-0.84375 -1.109375,0 -2.625,0.96875 -2.625,2.71875 0,1.015625 0.59375,1.796875 1.578125,1.796875 1.421875,0 2.25,-1.0625 2.25,-1.171875 0,-0.0625 -0.046875,-0.140625 -0.109375,-0.140625 -0.0625,0 -0.078125,0.03125 -0.140625,0.109375 -0.78125,0.984375 -1.875,0.984375 -1.984375,0.984375 -0.78125,0 -0.875,-0.84375 -0.875,-1.15625 0,-0.125 0.015625,-0.421875 0.15625,-1.03125 z m -0.46875,-0.21875 C 1.78125,-4.03125 2.8125,-4.1875 3.078125,-4.1875 c 0.453125,0 0.734375,0.296875 0.734375,0.625 0,1.046875 -1.59375,1.046875 -2.015625,1.046875 z m 0,0"
             id="id-b23cc986-f929-472c-a080-d12a3e6bbd45" />
        </g>
        <g
           transform="matrix(0.279061,0,0,0.279061,110.41064,137.48346)"
           id="g1645"
           style="fill:#000000;fill-opacity:1">
          <path
             style="stroke:none;stroke-width:0"
             d="M 3.515625,-1.265625 H 3.28125 c -0.015625,0.15625 -0.09375,0.5625 -0.1875,0.625 C 3.046875,-0.59375 2.515625,-0.59375 2.40625,-0.59375 H 1.125 c 0.734375,-0.640625 0.984375,-0.84375 1.390625,-1.171875 0.515625,-0.40625 1,-0.84375 1,-1.5 0,-0.84375 -0.734375,-1.359375 -1.625,-1.359375 -0.859375,0 -1.453125,0.609375 -1.453125,1.25 0,0.34375 0.296875,0.390625 0.375,0.390625 0.15625,0 0.359375,-0.125 0.359375,-0.375 0,-0.125 -0.046875,-0.375 -0.40625,-0.375 C 0.984375,-4.21875 1.453125,-4.375 1.78125,-4.375 c 0.703125,0 1.0625,0.546875 1.0625,1.109375 0,0.609375 -0.4375,1.078125 -0.65625,1.328125 L 0.515625,-0.265625 C 0.4375,-0.203125 0.4375,-0.1875 0.4375,0 h 2.875 z m 0,0"
             id="id-688178f7-5a8f-45be-883a-ae84500c32a8" />
        </g>
      </g>
      <g
         id="g2464"
         transform="translate(-27.113826,-39.852655)">
        <g
           transform="matrix(0.279061,0,0,0.279061,112.58453,137.06654)"
           id="g1649"
           style="fill:#000000;fill-opacity:1">
          <path
             style="stroke:none;stroke-width:0"
             d="m 1.859375,-2.296875 c 0.296875,0 1.03125,-0.03125 1.53125,-0.234375 0.703125,-0.296875 0.75,-0.890625 0.75,-1.03125 0,-0.4375 -0.375,-0.84375 -1.0625,-0.84375 -1.109375,0 -2.625,0.96875 -2.625,2.71875 0,1.015625 0.59375,1.796875 1.578125,1.796875 1.421875,0 2.25,-1.0625 2.25,-1.171875 0,-0.0625 -0.046875,-0.140625 -0.109375,-0.140625 -0.0625,0 -0.078125,0.03125 -0.140625,0.109375 -0.78125,0.984375 -1.875,0.984375 -1.984375,0.984375 -0.78125,0 -0.875,-0.84375 -0.875,-1.15625 0,-0.125 0.015625,-0.421875 0.15625,-1.03125 z m -0.46875,-0.21875 C 1.78125,-4.03125 2.8125,-4.1875 3.078125,-4.1875 c 0.453125,0 0.734375,0.296875 0.734375,0.625 0,1.046875 -1.59375,1.046875 -2.015625,1.046875 z m 0,0"
             id="id-b91451a9-cc28-4639-85ba-8f37f4a162a5" />
        </g>
        <g
           transform="matrix(0.279061,0,0,0.279061,113.87909,137.48346)"
           id="g1653"
           style="fill:#000000;fill-opacity:1">
          <path
             style="stroke:none;stroke-width:0"
             d="m 1.90625,-2.328125 c 0.546875,0 0.9375,0.375 0.9375,1.125 0,0.859375 -0.515625,1.125 -0.90625,1.125 -0.28125,0 -0.90625,-0.078125 -1.1875,-0.5 0.328125,0 0.40625,-0.234375 0.40625,-0.390625 0,-0.21875 -0.171875,-0.375 -0.390625,-0.375 -0.1875,0 -0.390625,0.125 -0.390625,0.40625 0,0.65625 0.71875,1.078125 1.5625,1.078125 0.96875,0 1.640625,-0.65625 1.640625,-1.34375 0,-0.546875 -0.4375,-1.09375 -1.203125,-1.25 0.71875,-0.265625 0.984375,-0.78125 0.984375,-1.21875 0,-0.546875 -0.625,-0.953125 -1.40625,-0.953125 -0.765625,0 -1.359375,0.375 -1.359375,0.9375 0,0.234375 0.15625,0.359375 0.359375,0.359375 0.21875,0 0.359375,-0.15625 0.359375,-0.34375 0,-0.203125 -0.140625,-0.359375 -0.359375,-0.375 0.25,-0.296875 0.71875,-0.375 0.984375,-0.375 0.3125,0 0.75,0.15625 0.75,0.75 0,0.296875 -0.09375,0.625 -0.28125,0.828125 -0.21875,0.265625 -0.421875,0.28125 -0.765625,0.3125 -0.171875,0.015625 -0.1875,0.015625 -0.21875,0.015625 -0.015625,0 -0.078125,0.015625 -0.078125,0.09375 0,0.09375 0.0625,0.09375 0.1875,0.09375 z m 0,0"
             id="id-28235217-47e6-4b0f-9fdf-c305b5e9bf69" />
        </g>
      </g>
      <g
         id="g2470"
         transform="translate(-39.22592,-30.82686)">
        <g
           transform="matrix(0.279061,0,0,0.279061,116.05298,137.06654)"
           id="g1657"
           style="fill:#000000;fill-opacity:1">
          <path
             style="stroke:none;stroke-width:0"
             d="m 1.859375,-2.296875 c 0.296875,0 1.03125,-0.03125 1.53125,-0.234375 0.703125,-0.296875 0.75,-0.890625 0.75,-1.03125 0,-0.4375 -0.375,-0.84375 -1.0625,-0.84375 -1.109375,0 -2.625,0.96875 -2.625,2.71875 0,1.015625 0.59375,1.796875 1.578125,1.796875 1.421875,0 2.25,-1.0625 2.25,-1.171875 0,-0.0625 -0.046875,-0.140625 -0.109375,-0.140625 -0.0625,0 -0.078125,0.03125 -0.140625,0.109375 -0.78125,0.984375 -1.875,0.984375 -1.984375,0.984375 -0.78125,0 -0.875,-0.84375 -0.875,-1.15625 0,-0.125 0.015625,-0.421875 0.15625,-1.03125 z m -0.46875,-0.21875 C 1.78125,-4.03125 2.8125,-4.1875 3.078125,-4.1875 c 0.453125,0 0.734375,0.296875 0.734375,0.625 0,1.046875 -1.59375,1.046875 -2.015625,1.046875 z m 0,0"
             id="id-04c5ed87-bda2-421d-afe1-1014e5bc1b19" />
        </g>
        <g
           transform="matrix(0.279061,0,0,0.279061,117.34754,137.48346)"
           id="g1661"
           style="fill:#000000;fill-opacity:1">
          <path
             style="stroke:none;stroke-width:0"
             d="m 3.6875,-1.140625 v -0.25 H 2.90625 V -4.5 c 0,-0.140625 0,-0.203125 -0.140625,-0.203125 -0.09375,0 -0.125,0 -0.1875,0.109375 l -2.3125,3.203125 v 0.25 h 2.0625 v 0.5625 c 0,0.25 0,0.328125 -0.578125,0.328125 H 1.5625 V 0 C 1.921875,-0.015625 2.359375,-0.03125 2.609375,-0.03125 2.875,-0.03125 3.3125,-0.015625 3.671875,0 v -0.25 h -0.1875 C 2.90625,-0.25 2.90625,-0.328125 2.90625,-0.578125 v -0.5625 z M 2.375,-3.9375 v 2.546875 H 0.53125 Z m 0,0"
             id="id-f9d01347-9ba1-487f-a025-d71179459582" />
        </g>
      </g>
      <g
         id="g2476"
         transform="translate(-35.243113,-35.822861)">
        <g
           transform="matrix(0.279061,0,0,0.279061,119.52171,137.06654)"
           id="g1665"
           style="fill:#000000;fill-opacity:1">
          <path
             style="stroke:none;stroke-width:0"
             d="m 1.859375,-2.296875 c 0.296875,0 1.03125,-0.03125 1.53125,-0.234375 0.703125,-0.296875 0.75,-0.890625 0.75,-1.03125 0,-0.4375 -0.375,-0.84375 -1.0625,-0.84375 -1.109375,0 -2.625,0.96875 -2.625,2.71875 0,1.015625 0.59375,1.796875 1.578125,1.796875 1.421875,0 2.25,-1.0625 2.25,-1.171875 0,-0.0625 -0.046875,-0.140625 -0.109375,-0.140625 -0.0625,0 -0.078125,0.03125 -0.140625,0.109375 -0.78125,0.984375 -1.875,0.984375 -1.984375,0.984375 -0.78125,0 -0.875,-0.84375 -0.875,-1.15625 0,-0.125 0.015625,-0.421875 0.15625,-1.03125 z m -0.46875,-0.21875 C 1.78125,-4.03125 2.8125,-4.1875 3.078125,-4.1875 c 0.453125,0 0.734375,0.296875 0.734375,0.625 0,1.046875 -1.59375,1.046875 -2.015625,1.046875 z m 0,0"
             id="id-1dba4a14-8a74-4424-957b-eafc80372e22" />
        </g>
        <g
           transform="matrix(0.279061,0,0,0.279061,120.81599,137.48346)"
           id="g1669"
           style="fill:#000000;fill-opacity:1">
          <path
             style="stroke:none;stroke-width:0"
             d="m 1.078125,-3.890625 c 0.359375,0.09375 0.5625,0.09375 0.671875,0.09375 0.921875,0 1.46875,-0.625 1.46875,-0.734375 0,-0.078125 -0.046875,-0.09375 -0.078125,-0.09375 -0.015625,0 -0.03125,0 -0.0625,0.015625 -0.171875,0.0625 -0.53125,0.203125 -1.046875,0.203125 -0.203125,0 -0.5625,-0.015625 -1.015625,-0.1875 C 0.9375,-4.625 0.921875,-4.625 0.921875,-4.625 c -0.09375,0 -0.09375,0.078125 -0.09375,0.1875 v 2.046875 c 0,0.125 0,0.203125 0.109375,0.203125 0.0625,0 0.078125,0 0.140625,-0.09375 0.296875,-0.375 0.734375,-0.4375 0.96875,-0.4375 0.421875,0 0.609375,0.328125 0.640625,0.390625 0.125,0.234375 0.171875,0.5 0.171875,0.90625 0,0.203125 0,0.609375 -0.21875,0.921875 -0.171875,0.25 -0.46875,0.421875 -0.8125,0.421875 -0.453125,0 -0.921875,-0.25 -1.09375,-0.71875 0.265625,0.015625 0.40625,-0.15625 0.40625,-0.34375 0,-0.296875 -0.265625,-0.34375 -0.359375,-0.34375 0,0 -0.34375,0 -0.34375,0.375 0,0.625 0.578125,1.25 1.40625,1.25 0.890625,0 1.671875,-0.65625 1.671875,-1.546875 0,-0.78125 -0.59375,-1.5 -1.453125,-1.5 -0.3125,0 -0.671875,0.0625 -0.984375,0.328125 z m 0,0"
             id="id-d0e894ac-1b4a-44e3-87db-c81008f3c011" />
        </g>
      </g>
      <g
         id="g2480"
         transform="translate(-13.143093,-15.43628)">
        <path
           style="fill:#000000;fill-opacity:1;stroke:none;stroke-width:0"
           d="m 105.74726,118.62378 c 0.0829,0 0.28778,-0.009 0.42731,-0.0654 0.19622,-0.0828 0.2093,-0.24854 0.2093,-0.28778 0,-0.12209 -0.10465,-0.23546 -0.29651,-0.23546 -0.30958,0 -0.73253,0.27034 -0.73253,0.75869 0,0.28343 0.16569,0.50144 0.44039,0.50144 0.39679,0 0.62789,-0.2965 0.62789,-0.32702 0,-0.0174 -0.0131,-0.0392 -0.0305,-0.0392 -0.0174,0 -0.0218,0.009 -0.0392,0.0305 -0.21801,0.2747 -0.52323,0.2747 -0.55376,0.2747 -0.21801,0 -0.24418,-0.23546 -0.24418,-0.32267 0,-0.0349 0.004,-0.11773 0.0436,-0.28778 z m -0.13081,-0.061 c 0.10901,-0.42295 0.39679,-0.46656 0.47091,-0.46656 0.12645,0 0.20494,0.0828 0.20494,0.17442 0,0.29214 -0.44475,0.29214 -0.56248,0.29214 z m 0,0"
           id="id-9e59910f-07b9-45d9-84f6-8d181d5133e9" />
        <path
           style="fill:#000000;fill-opacity:1;stroke:none;stroke-width:0"
           d="m 106.81508,119.04506 c 0,-0.15697 0.0131,-0.30086 0.0872,-0.42295 0.0654,-0.10465 0.17005,-0.17441 0.2965,-0.17441 0.0567,0 0.13517,0.0131 0.17441,0.0654 -0.048,0.004 -0.0916,0.0393 -0.0916,0.0959 0,0.048 0.0349,0.0916 0.0916,0.0916 0.0611,0 0.0959,-0.0392 0.0959,-0.0959 0,-0.11337 -0.0829,-0.21366 -0.2747,-0.21366 -0.27906,0 -0.56684,0.25726 -0.56684,0.67585 0,0.50144 0.23546,0.65405 0.45347,0.65405 0.23546,0 0.4404,-0.18313 0.4404,-0.43603 0,-0.24854 -0.19622,-0.43167 -0.42296,-0.43167 -0.15697,0 -0.23981,0.10465 -0.28342,0.19185 z m 0.26598,0.61481 c -0.10029,0 -0.17441,-0.0567 -0.21801,-0.14389 -0.0262,-0.0567 -0.0436,-0.15697 -0.0436,-0.27034 0,-0.19186 0.11337,-0.33575 0.27034,-0.33575 0.0872,0 0.14825,0.0349 0.19622,0.10465 0.048,0.0741 0.048,0.15697 0.048,0.27034 0,0.10901 0,0.19185 -0.0523,0.27034 -0.0436,0.0654 -0.10901,0.10465 -0.20058,0.10465 z m 0,0"
           id="id-b8ce4548-713a-466c-ae18-27bd786081a8" />
      </g>
      <g
         id="g2484"
         transform="translate(-19.257367,-7.49878)">
        <path
           style="fill:#000000;fill-opacity:1;stroke:none;stroke-width:0"
           d="m 109.2157,118.62378 c 0.0829,0 0.28778,-0.009 0.42731,-0.0654 0.19622,-0.0828 0.2093,-0.24854 0.2093,-0.28778 0,-0.12209 -0.10465,-0.23546 -0.29651,-0.23546 -0.30958,0 -0.73253,0.27034 -0.73253,0.75869 0,0.28343 0.16569,0.50144 0.44039,0.50144 0.39679,0 0.62789,-0.2965 0.62789,-0.32702 0,-0.0174 -0.0131,-0.0392 -0.0305,-0.0392 -0.0174,0 -0.0218,0.009 -0.0392,0.0305 -0.21801,0.2747 -0.52323,0.2747 -0.55376,0.2747 -0.21801,0 -0.24418,-0.23546 -0.24418,-0.32267 0,-0.0349 0.004,-0.11773 0.0436,-0.28778 z m -0.13081,-0.061 c 0.10901,-0.42295 0.39679,-0.46656 0.47091,-0.46656 0.12645,0 0.20494,0.0828 0.20494,0.17442 0,0.29214 -0.44475,0.29214 -0.56248,0.29214 z m 0,0"
           id="id-7b838023-9cfe-4cf0-890f-175d641e4965" />
        <path
           style="fill:#000000;fill-opacity:1;stroke:none;stroke-width:0"
           d="m 111.03351,118.50874 c 0.0174,-0.0262 0.0174,-0.0305 0.0174,-0.0785 h -0.51016 c -0.0785,0 -0.10029,-0.004 -0.17005,-0.009 -0.10029,-0.009 -0.10465,-0.0218 -0.10901,-0.0523 h -0.0654 l -0.0698,0.41423 h 0.0654 c 0.004,-0.0305 0.0262,-0.15697 0.0567,-0.17877 0.0131,-0.009 0.17441,-0.009 0.20057,-0.009 h 0.42296 c -0.061,0.0785 -0.16134,0.20057 -0.20058,0.25726 -0.2529,0.33138 -0.27906,0.64097 -0.27906,0.75433 0,0.0218 0,0.11337 0.0916,0.11337 0.0959,0 0.0959,-0.0872 0.0959,-0.11337 v -0.0785 c 0,-0.37499 0.0785,-0.5494 0.16134,-0.65405 z m 0,0"
           id="id-18da572f-518d-4091-a733-4c9b55bb7ac5" />
      </g>
      <g
         id="g2488"
         transform="translate(-29.34068,-11.46753)">
        <path
           style="fill:#000000;fill-opacity:1;stroke:none;stroke-width:0"
           d="m 112.68443,118.62378 c 0.0828,0 0.28778,-0.009 0.42731,-0.0654 0.19622,-0.0828 0.2093,-0.24854 0.2093,-0.28778 0,-0.12209 -0.10465,-0.23546 -0.29651,-0.23546 -0.30958,0 -0.73253,0.27034 -0.73253,0.75869 0,0.28343 0.16569,0.50144 0.44039,0.50144 0.39679,0 0.62789,-0.2965 0.62789,-0.32702 0,-0.0174 -0.0131,-0.0392 -0.0305,-0.0392 -0.0174,0 -0.0218,0.009 -0.0392,0.0305 -0.21801,0.2747 -0.52323,0.2747 -0.55376,0.2747 -0.21801,0 -0.24418,-0.23546 -0.24418,-0.32267 0,-0.0349 0.004,-0.11773 0.0436,-0.28778 z m -0.13081,-0.061 c 0.10901,-0.42295 0.39679,-0.46656 0.47091,-0.46656 0.12645,0 0.20494,0.0828 0.20494,0.17442 0,0.29214 -0.44475,0.29214 -0.56248,0.29214 z m 0,0"
           id="id-c31dc100-2061-4071-9be6-2f532bb2c3e0" />
        <path
           style="fill:#000000;fill-opacity:1;stroke:none;stroke-width:0"
           d="m 114.14877,118.97966 c 0.15261,-0.0741 0.24854,-0.1657 0.24854,-0.30087 0,-0.18749 -0.19621,-0.28778 -0.38371,-0.28778 -0.21365,0 -0.38807,0.13953 -0.38807,0.32267 0,0.0916 0.0436,0.15697 0.0785,0.19621 0.0349,0.0436 0.048,0.0523 0.16133,0.11773 -0.10901,0.048 -0.30086,0.15261 -0.30086,0.35755 0,0.21365 0.22237,0.33574 0.44475,0.33574 0.24854,0 0.44912,-0.15697 0.44912,-0.36626 0,-0.13081 -0.0741,-0.23982 -0.1875,-0.30523 -0.0262,-0.0174 -0.0916,-0.0523 -0.12209,-0.0698 z m -0.31394,-0.18314 c -0.0523,-0.0305 -0.10465,-0.0828 -0.10465,-0.15697 0,-0.12209 0.13953,-0.19185 0.27906,-0.19185 0.15261,0 0.28778,0.0959 0.28778,0.23109 0,0.17442 -0.20493,0.26162 -0.20493,0.26162 -0.004,0 -0.009,0 -0.0218,-0.009 z m 0.0916,0.27034 0.27034,0.15262 c 0.048,0.0305 0.14389,0.0872 0.14389,0.20057 0,0.14825 -0.16134,0.23982 -0.32703,0.23982 -0.17877,0 -0.33138,-0.11773 -0.33138,-0.2747 0,-0.14389 0.10464,-0.25726 0.24418,-0.31831 z m 0,0"
           id="id-4a931ea9-70c8-4d03-82bf-46c1b45c8507" />
      </g>
    </g>
  </g>
</svg>
