<?xml version="1.0" encoding="UTF-8" standalone="no"?>
<!-- Created with Inkscape (http://www.inkscape.org/) -->

<svg
   width="24.856184mm"
   height="16.856724mm"
   viewBox="0 0 24.856185 16.856724"
   version="1.1"
   id="svg5"
   sodipodi:docname="graph1.svg"
   inkscape:version="1.1 (c4e8f9e, 2021-05-24)"
   xmlns:inkscape="http://www.inkscape.org/namespaces/inkscape"
   xmlns:sodipodi="http://sodipodi.sourceforge.net/DTD/sodipodi-0.dtd"
   xmlns="http://www.w3.org/2000/svg"
   xmlns:svg="http://www.w3.org/2000/svg">
  <sodipodi:namedview
     id="namedview7"
     pagecolor="#ffffff"
     bordercolor="#666666"
     borderopacity="1.0"
     inkscape:pageshadow="2"
     inkscape:pageopacity="0.0"
     inkscape:pagecheckerboard="0"
     inkscape:document-units="mm"
     showgrid="false"
     inkscape:snap-global="false"
     inkscape:snap-center="true"
     inkscape:zoom="3.1496408"
     inkscape:cx="40.16331"
     inkscape:cy="53.180667"
     inkscape:window-width="1312"
     inkscape:window-height="847"
     inkscape:window-x="2211"
     inkscape:window-y="70"
     inkscape:window-maximized="0"
     inkscape:current-layer="layer1">
    <inkscape:grid
       type="xygrid"
       id="grid824"
       originx="-93.549041"
       originy="-126.5339" />
  </sodipodi:namedview>
  <defs
     id="defs2">
    <marker
       style="overflow:visible"
       id="DotM"
       refX="0"
       refY="0"
       orient="auto"
       inkscape:stockid="DotM"
       inkscape:isstock="true">
      <path
         transform="matrix(0.4,0,0,0.4,2.96,0.4)"
         style="fill:context-stroke;fill-rule:evenodd;stroke:context-stroke;stroke-width:1pt"
         d="m -2.5,-1 c 0,2.76 -2.24,5 -5,5 -2.76,0 -5,-2.24 -5,-5 0,-2.76 2.24,-5 5,-5 2.76,0 5,2.24 5,5 z"
         id="path1336" />
    </marker>
    <defs
       id="id-c4fbb303-a675-4257-9b12-f343a3875c28">
      <g
         id="id-88ff3124-b24e-45a1-bc48-c724f04e5bf4">
        <symbol
           overflow="visible"
           id="id-145029bf-8226-47c0-ac07-5a450836472f">
          <path
             style="stroke:none;stroke-width:0"
             d=""
             id="id-2f1f096d-4dbf-4440-9ad6-9ae2ee8fa44b" />
        </symbol>
        <symbol
           overflow="visible"
           id="id-d3973cee-4812-487e-b9c0-9ba74b1e58cf">
          <path
             style="stroke:none;stroke-width:0"
             d="m 4.671875,-3.703125 c 0,-0.546875 -0.265625,-0.703125 -0.4375,-0.703125 -0.25,0 -0.5,0.265625 -0.5,0.484375 0,0.125 0.046875,0.1875 0.15625,0.296875 0.21875,0.203125 0.34375,0.453125 0.34375,0.8125 0,0.421875 -0.609375,2.703125 -1.765625,2.703125 -0.515625,0 -0.75,-0.34375 -0.75,-0.875 0,-0.546875 0.28125,-1.28125 0.578125,-2.109375 0.078125,-0.171875 0.125,-0.3125 0.125,-0.5 0,-0.4375 -0.3125,-0.8125 -0.8125,-0.8125 -0.9375,0 -1.3125,1.453125 -1.3125,1.53125 0,0.109375 0.09375,0.109375 0.109375,0.109375 0.109375,0 0.109375,-0.03125 0.15625,-0.1875 0.296875,-1 0.71875,-1.234375 1.015625,-1.234375 0.078125,0 0.25,0 0.25,0.3125 0,0.25 -0.109375,0.53125 -0.171875,0.703125 -0.4375,1.15625 -0.5625,1.609375 -0.5625,2.046875 0,1.078125 0.875,1.234375 1.328125,1.234375 1.671875,0 2.25,-3.296875 2.25,-3.8125 z m 0,0"
             id="id-f0700192-58ff-4355-8d35-5dcea5a04530" />
        </symbol>
        <symbol
           overflow="visible"
           id="id-356d2d90-125a-4f0f-bc64-113d3583b983">
          <path
             style="stroke:none;stroke-width:0"
             d="m 1.859375,-2.296875 c 0.296875,0 1.03125,-0.03125 1.53125,-0.234375 0.703125,-0.296875 0.75,-0.890625 0.75,-1.03125 0,-0.4375 -0.375,-0.84375 -1.0625,-0.84375 -1.109375,0 -2.625,0.96875 -2.625,2.71875 0,1.015625 0.59375,1.796875 1.578125,1.796875 1.421875,0 2.25,-1.0625 2.25,-1.171875 0,-0.0625 -0.046875,-0.140625 -0.109375,-0.140625 -0.0625,0 -0.078125,0.03125 -0.140625,0.109375 -0.78125,0.984375 -1.875,0.984375 -1.984375,0.984375 -0.78125,0 -0.875,-0.84375 -0.875,-1.15625 0,-0.125 0.015625,-0.421875 0.15625,-1.03125 z m -0.46875,-0.21875 C 1.78125,-4.03125 2.8125,-4.1875 3.078125,-4.1875 c 0.453125,0 0.734375,0.296875 0.734375,0.625 0,1.046875 -1.59375,1.046875 -2.015625,1.046875 z m 0,0"
             id="id-f48a54a2-366e-4152-89fe-57d95eaeb6c5" />
        </symbol>
        <symbol
           overflow="visible"
           id="id-c7692aeb-f9b1-429a-9e3e-da5128e30580">
          <path
             style="stroke:none;stroke-width:0"
             d=""
             id="id-0c622bbd-5293-4b94-8a1e-1f9ca2ece20a" />
        </symbol>
        <symbol
           overflow="visible"
           id="id-337d3602-877b-4d10-ac6a-adcacb4251e3">
          <path
             style="stroke:none;stroke-width:0"
             d="m 2.328125,-4.4375 c 0,-0.1875 0,-0.1875 -0.203125,-0.1875 -0.453125,0.4375 -1.078125,0.4375 -1.359375,0.4375 v 0.25 c 0.15625,0 0.625,0 1,-0.1875 v 3.546875 c 0,0.234375 0,0.328125 -0.6875,0.328125 H 0.8125 V 0 c 0.125,0 0.984375,-0.03125 1.234375,-0.03125 0.21875,0 1.09375,0.03125 1.25,0.03125 V -0.25 H 3.03125 c -0.703125,0 -0.703125,-0.09375 -0.703125,-0.328125 z m 0,0"
             id="id-0b143854-2852-4884-9b90-b5fd47ea6212" />
        </symbol>
        <symbol
           overflow="visible"
           id="id-564fa3d8-08cd-453d-a49f-35ef1e260afb">
          <path
             style="stroke:none;stroke-width:0"
             d="M 3.515625,-1.265625 H 3.28125 c -0.015625,0.15625 -0.09375,0.5625 -0.1875,0.625 C 3.046875,-0.59375 2.515625,-0.59375 2.40625,-0.59375 H 1.125 c 0.734375,-0.640625 0.984375,-0.84375 1.390625,-1.171875 0.515625,-0.40625 1,-0.84375 1,-1.5 0,-0.84375 -0.734375,-1.359375 -1.625,-1.359375 -0.859375,0 -1.453125,0.609375 -1.453125,1.25 0,0.34375 0.296875,0.390625 0.375,0.390625 0.15625,0 0.359375,-0.125 0.359375,-0.375 0,-0.125 -0.046875,-0.375 -0.40625,-0.375 C 0.984375,-4.21875 1.453125,-4.375 1.78125,-4.375 c 0.703125,0 1.0625,0.546875 1.0625,1.109375 0,0.609375 -0.4375,1.078125 -0.65625,1.328125 L 0.515625,-0.265625 C 0.4375,-0.203125 0.4375,-0.1875 0.4375,0 h 2.875 z m 0,0"
             id="id-9be27e99-616a-4ae5-ba5e-f1e10f9677ed" />
        </symbol>
        <symbol
           overflow="visible"
           id="id-ae068b59-574d-446e-8e6c-7fdbd17eec1e">
          <path
             style="stroke:none;stroke-width:0"
             d="m 1.90625,-2.328125 c 0.546875,0 0.9375,0.375 0.9375,1.125 0,0.859375 -0.515625,1.125 -0.90625,1.125 -0.28125,0 -0.90625,-0.078125 -1.1875,-0.5 0.328125,0 0.40625,-0.234375 0.40625,-0.390625 0,-0.21875 -0.171875,-0.375 -0.390625,-0.375 -0.1875,0 -0.390625,0.125 -0.390625,0.40625 0,0.65625 0.71875,1.078125 1.5625,1.078125 0.96875,0 1.640625,-0.65625 1.640625,-1.34375 0,-0.546875 -0.4375,-1.09375 -1.203125,-1.25 0.71875,-0.265625 0.984375,-0.78125 0.984375,-1.21875 0,-0.546875 -0.625,-0.953125 -1.40625,-0.953125 -0.765625,0 -1.359375,0.375 -1.359375,0.9375 0,0.234375 0.15625,0.359375 0.359375,0.359375 0.21875,0 0.359375,-0.15625 0.359375,-0.34375 0,-0.203125 -0.140625,-0.359375 -0.359375,-0.375 0.25,-0.296875 0.71875,-0.375 0.984375,-0.375 0.3125,0 0.75,0.15625 0.75,0.75 0,0.296875 -0.09375,0.625 -0.28125,0.828125 -0.21875,0.265625 -0.421875,0.28125 -0.765625,0.3125 -0.171875,0.015625 -0.1875,0.015625 -0.21875,0.015625 -0.015625,0 -0.078125,0.015625 -0.078125,0.09375 0,0.09375 0.0625,0.09375 0.1875,0.09375 z m 0,0"
             id="id-30f79b9e-39a7-43c1-9a92-758f37f65c84" />
        </symbol>
        <symbol
           overflow="visible"
           id="id-f4434457-3ad9-4b03-98ab-30945745f709">
          <path
             style="stroke:none;stroke-width:0"
             d="m 3.6875,-1.140625 v -0.25 H 2.90625 V -4.5 c 0,-0.140625 0,-0.203125 -0.140625,-0.203125 -0.09375,0 -0.125,0 -0.1875,0.109375 l -2.3125,3.203125 v 0.25 h 2.0625 v 0.5625 c 0,0.25 0,0.328125 -0.578125,0.328125 H 1.5625 V 0 C 1.921875,-0.015625 2.359375,-0.03125 2.609375,-0.03125 2.875,-0.03125 3.3125,-0.015625 3.671875,0 v -0.25 h -0.1875 C 2.90625,-0.25 2.90625,-0.328125 2.90625,-0.578125 v -0.5625 z M 2.375,-3.9375 v 2.546875 H 0.53125 Z m 0,0"
             id="id-3fdaa06a-d0e9-40e7-9101-b9091da5e0e0" />
        </symbol>
        <symbol
           overflow="visible"
           id="id-bbb487f7-80fe-48f8-becf-2b6c87b9e012">
          <path
             style="stroke:none;stroke-width:0"
             d="m 1.078125,-3.890625 c 0.359375,0.09375 0.5625,0.09375 0.671875,0.09375 0.921875,0 1.46875,-0.625 1.46875,-0.734375 0,-0.078125 -0.046875,-0.09375 -0.078125,-0.09375 -0.015625,0 -0.03125,0 -0.0625,0.015625 -0.171875,0.0625 -0.53125,0.203125 -1.046875,0.203125 -0.203125,0 -0.5625,-0.015625 -1.015625,-0.1875 C 0.9375,-4.625 0.921875,-4.625 0.921875,-4.625 c -0.09375,0 -0.09375,0.078125 -0.09375,0.1875 v 2.046875 c 0,0.125 0,0.203125 0.109375,0.203125 0.0625,0 0.078125,0 0.140625,-0.09375 0.296875,-0.375 0.734375,-0.4375 0.96875,-0.4375 0.421875,0 0.609375,0.328125 0.640625,0.390625 0.125,0.234375 0.171875,0.5 0.171875,0.90625 0,0.203125 0,0.609375 -0.21875,0.921875 -0.171875,0.25 -0.46875,0.421875 -0.8125,0.421875 -0.453125,0 -0.921875,-0.25 -1.09375,-0.71875 0.265625,0.015625 0.40625,-0.15625 0.40625,-0.34375 0,-0.296875 -0.265625,-0.34375 -0.359375,-0.34375 0,0 -0.34375,0 -0.34375,0.375 0,0.625 0.578125,1.25 1.40625,1.25 0.890625,0 1.671875,-0.65625 1.671875,-1.546875 0,-0.78125 -0.59375,-1.5 -1.453125,-1.5 -0.3125,0 -0.671875,0.0625 -0.984375,0.328125 z m 0,0"
             id="id-4d0dbdbe-a9e7-4a36-ad0f-3c1d16d21194" />
        </symbol>
      </g>
    </defs>
    <defs
       id="id-c9306608-ad3e-4975-854f-e480f3f819bb">
      <g
         id="id-916dc78a-08ef-4884-be8e-d87a80c0194d">
        <symbol
           overflow="visible"
           id="id-441495fa-a7f7-42b6-827d-3c1cd1bbb7bf">
          <path
             style="stroke:none;stroke-width:0"
             d=""
             id="id-2067c31a-273b-4449-a5a7-bda0fdaf02dc" />
        </symbol>
        <symbol
           overflow="visible"
           id="id-4d606136-37a7-4ac2-b89d-bb85b74f675f">
          <path
             style="stroke:none;stroke-width:0"
             d="m 1.859375,-2.296875 c 0.296875,0 1.03125,-0.03125 1.53125,-0.234375 0.703125,-0.296875 0.75,-0.890625 0.75,-1.03125 0,-0.4375 -0.375,-0.84375 -1.0625,-0.84375 -1.109375,0 -2.625,0.96875 -2.625,2.71875 0,1.015625 0.59375,1.796875 1.578125,1.796875 1.421875,0 2.25,-1.0625 2.25,-1.171875 0,-0.0625 -0.046875,-0.140625 -0.109375,-0.140625 -0.0625,0 -0.078125,0.03125 -0.140625,0.109375 -0.78125,0.984375 -1.875,0.984375 -1.984375,0.984375 -0.78125,0 -0.875,-0.84375 -0.875,-1.15625 0,-0.125 0.015625,-0.421875 0.15625,-1.03125 z m -0.46875,-0.21875 C 1.78125,-4.03125 2.8125,-4.1875 3.078125,-4.1875 c 0.453125,0 0.734375,0.296875 0.734375,0.625 0,1.046875 -1.59375,1.046875 -2.015625,1.046875 z m 0,0"
             id="id-5f0583b4-7d52-4802-901b-8d1a17666386" />
        </symbol>
        <symbol
           overflow="visible"
           id="id-1f67e37d-ab78-4945-85b7-c60f40db7855">
          <path
             style="stroke:none;stroke-width:0"
             d=""
             id="id-8094090b-bfc6-4c4c-92cd-0865a9d013ee" />
        </symbol>
        <symbol
           overflow="visible"
           id="id-ca6d5b23-3b9e-4068-a96f-5d9ccb2f19bd">
          <path
             style="stroke:none;stroke-width:0"
             d="m 1.046875,-2.28125 c 0,-0.5625 0.046875,-1.078125 0.3125,-1.515625 0.234375,-0.375 0.609375,-0.625 1.0625,-0.625 0.203125,0 0.484375,0.046875 0.625,0.234375 C 2.875,-4.171875 2.71875,-4.046875 2.71875,-3.84375 c 0,0.171875 0.125,0.328125 0.328125,0.328125 0.21875,0 0.34375,-0.140625 0.34375,-0.34375 0,-0.40625 -0.296875,-0.765625 -0.984375,-0.765625 -1,0 -2.03125,0.921875 -2.03125,2.421875 0,1.796875 0.84375,2.34375 1.625,2.34375 0.84375,0 1.578125,-0.65625 1.578125,-1.5625 0,-0.890625 -0.703125,-1.546875 -1.515625,-1.546875 -0.5625,0 -0.859375,0.375 -1.015625,0.6875 z M 2,-0.078125 c -0.359375,0 -0.625,-0.203125 -0.78125,-0.515625 C 1.125,-0.796875 1.0625,-1.15625 1.0625,-1.5625 c 0,-0.6875 0.40625,-1.203125 0.96875,-1.203125 0.3125,0 0.53125,0.125 0.703125,0.375 0.171875,0.265625 0.171875,0.5625 0.171875,0.96875 0,0.390625 0,0.6875 -0.1875,0.96875 -0.15625,0.234375 -0.390625,0.375 -0.71875,0.375 z m 0,0"
             id="id-b356cccf-4a86-4161-a74b-6efbab668752" />
        </symbol>
        <symbol
           overflow="visible"
           id="id-ea0760d0-242a-4fc3-8423-430835c1f16a">
          <path
             style="stroke:none;stroke-width:0"
             d="m 3.734375,-4.203125 c 0.0625,-0.09375 0.0625,-0.109375 0.0625,-0.28125 H 1.96875 C 1.6875,-4.484375 1.609375,-4.5 1.359375,-4.515625 1,-4.546875 0.984375,-4.59375 0.96875,-4.703125 H 0.734375 l -0.25,1.484375 H 0.71875 c 0.015625,-0.109375 0.09375,-0.5625 0.203125,-0.640625 0.046875,-0.03125 0.625,-0.03125 0.71875,-0.03125 H 3.15625 c -0.21875,0.28125 -0.578125,0.71875 -0.71875,0.921875 -0.90625,1.1875 -1,2.296875 -1,2.703125 0,0.078125 0,0.40625 0.328125,0.40625 0.34375,0 0.34375,-0.3125 0.34375,-0.40625 v -0.28125 c 0,-1.34375 0.28125,-1.96875 0.578125,-2.34375 z m 0,0"
             id="id-e6780af1-cd15-4dbc-8da7-ad55c530e53f" />
        </symbol>
        <symbol
           overflow="visible"
           id="id-213f100f-56d3-491b-8367-46f303235078">
          <path
             style="stroke:none;stroke-width:0"
             d="m 2.46875,-2.515625 c 0.546875,-0.265625 0.890625,-0.59375 0.890625,-1.078125 0,-0.671875 -0.703125,-1.03125 -1.375,-1.03125 -0.765625,0 -1.390625,0.5 -1.390625,1.15625 0,0.328125 0.15625,0.5625 0.28125,0.703125 0.125,0.15625 0.171875,0.1875 0.578125,0.421875 C 1.0625,-2.171875 0.375,-1.796875 0.375,-1.0625 c 0,0.765625 0.796875,1.203125 1.59375,1.203125 0.890625,0 1.609375,-0.5625 1.609375,-1.3125 0,-0.46875 -0.265625,-0.859375 -0.671875,-1.09375 -0.09375,-0.0625 -0.328125,-0.1875 -0.4375,-0.25 z m -1.125,-0.65625 c -0.1875,-0.109375 -0.375,-0.296875 -0.375,-0.5625 0,-0.4375 0.5,-0.6875 1,-0.6875 0.546875,0 1.03125,0.34375 1.03125,0.828125 0,0.625 -0.734375,0.9375 -0.734375,0.9375 -0.015625,0 -0.03125,0 -0.078125,-0.03125 z m 0.328125,0.96875 0.96875,0.546875 c 0.171875,0.109375 0.515625,0.3125 0.515625,0.71875 0,0.53125 -0.578125,0.859375 -1.171875,0.859375 -0.640625,0 -1.1875,-0.421875 -1.1875,-0.984375 0,-0.515625 0.375,-0.921875 0.875,-1.140625 z m 0,0"
             id="id-9b01fbe4-9bf4-4456-9036-414cf4b3e78f" />
        </symbol>
        <symbol
           overflow="visible"
           id="id-0d4eff31-a0e9-4b8f-9972-daeeebbba38d">
          <path
             style="stroke:none;stroke-width:0"
             d="m 2.90625,-2.078125 c 0,1.734375 -0.84375,2 -1.265625,2 -0.15625,0 -0.53125,-0.015625 -0.71875,-0.234375 0.296875,-0.03125 0.3125,-0.265625 0.3125,-0.328125 0,-0.171875 -0.125,-0.328125 -0.328125,-0.328125 -0.203125,0 -0.328125,0.140625 -0.328125,0.34375 0,0.46875 0.390625,0.765625 1.0625,0.765625 1,0 1.9375,-0.9375 1.9375,-2.4375 C 3.578125,-4.015625 2.8125,-4.625 2,-4.625 c -0.234375,0 -0.703125,0.03125 -1.109375,0.421875 -0.234375,0.234375 -0.515625,0.5 -0.515625,1.125 0,0.890625 0.703125,1.546875 1.515625,1.546875 0.5625,0 0.859375,-0.375 1.015625,-0.6875 z m -0.96875,0.34375 c -0.28125,0 -0.53125,-0.078125 -0.734375,-0.40625 -0.15625,-0.25 -0.15625,-0.546875 -0.15625,-0.9375 0,-0.40625 0,-0.671875 0.203125,-0.953125 0.171875,-0.25 0.390625,-0.390625 0.75,-0.390625 0.359375,0 0.578125,0.21875 0.6875,0.40625 0.1875,0.28125 0.203125,0.78125 0.203125,1.015625 0,0.90625 -0.515625,1.265625 -0.953125,1.265625 z m 0,0"
             id="id-9c150957-f477-49de-bf39-3a892d779f9a" />
        </symbol>
      </g>
    </defs>
  </defs>
  <g
     inkscape:label="Layer 1"
     inkscape:groupmode="layer"
     id="layer1"
     transform="translate(-93.549036,-126.5339)">
    <g
       id="g2321">
      <g
         id="g2422"
         transform="translate(5.4264718,-9.3030242)">
        <g
           transform="matrix(0.279061,0,0,0.279061,88.039718,137.06654)"
           id="g1593"
           style="fill:#000000;fill-opacity:1">
          <path
             style="stroke:none;stroke-width:0"
             d="m 4.671875,-3.703125 c 0,-0.546875 -0.265625,-0.703125 -0.4375,-0.703125 -0.25,0 -0.5,0.265625 -0.5,0.484375 0,0.125 0.046875,0.1875 0.15625,0.296875 0.21875,0.203125 0.34375,0.453125 0.34375,0.8125 0,0.421875 -0.609375,2.703125 -1.765625,2.703125 -0.515625,0 -0.75,-0.34375 -0.75,-0.875 0,-0.546875 0.28125,-1.28125 0.578125,-2.109375 0.078125,-0.171875 0.125,-0.3125 0.125,-0.5 0,-0.4375 -0.3125,-0.8125 -0.8125,-0.8125 -0.9375,0 -1.3125,1.453125 -1.3125,1.53125 0,0.109375 0.09375,0.109375 0.109375,0.109375 0.109375,0 0.109375,-0.03125 0.15625,-0.1875 0.296875,-1 0.71875,-1.234375 1.015625,-1.234375 0.078125,0 0.25,0 0.25,0.3125 0,0.25 -0.109375,0.53125 -0.171875,0.703125 -0.4375,1.15625 -0.5625,1.609375 -0.5625,2.046875 0,1.078125 0.875,1.234375 1.328125,1.234375 1.671875,0 2.25,-3.296875 2.25,-3.8125 z m 0,0"
             id="id-64f76e34-cb4f-4f8f-b9c6-3907bd5d61fa" />
        </g>
        <g
           transform="matrix(0.279061,0,0,0.279061,89.387304,137.48346)"
           id="g1597"
           style="fill:#000000;fill-opacity:1">
          <path
             style="stroke:none;stroke-width:0"
             d="m 2.328125,-4.4375 c 0,-0.1875 0,-0.1875 -0.203125,-0.1875 -0.453125,0.4375 -1.078125,0.4375 -1.359375,0.4375 v 0.25 c 0.15625,0 0.625,0 1,-0.1875 v 3.546875 c 0,0.234375 0,0.328125 -0.6875,0.328125 H 0.8125 V 0 c 0.125,0 0.984375,-0.03125 1.234375,-0.03125 0.21875,0 1.09375,0.03125 1.25,0.03125 V -0.25 H 3.03125 c -0.703125,0 -0.703125,-0.09375 -0.703125,-0.328125 z m 0,0"
             id="id-b577c765-8f44-4cc6-9e8f-6fff3f8d9add" />
        </g>
      </g>
      <g
         id="g2428"
         transform="translate(24.515092,-8.6926253)">
        <g
           transform="matrix(0.279061,0,0,0.279061,91.561468,137.06654)"
           id="g1601"
           style="fill:#000000;fill-opacity:1">
          <path
             style="stroke:none;stroke-width:0"
             d="m 4.671875,-3.703125 c 0,-0.546875 -0.265625,-0.703125 -0.4375,-0.703125 -0.25,0 -0.5,0.265625 -0.5,0.484375 0,0.125 0.046875,0.1875 0.15625,0.296875 0.21875,0.203125 0.34375,0.453125 0.34375,0.8125 0,0.421875 -0.609375,2.703125 -1.765625,2.703125 -0.515625,0 -0.75,-0.34375 -0.75,-0.875 0,-0.546875 0.28125,-1.28125 0.578125,-2.109375 0.078125,-0.171875 0.125,-0.3125 0.125,-0.5 0,-0.4375 -0.3125,-0.8125 -0.8125,-0.8125 -0.9375,0 -1.3125,1.453125 -1.3125,1.53125 0,0.109375 0.09375,0.109375 0.109375,0.109375 0.109375,0 0.109375,-0.03125 0.15625,-0.1875 0.296875,-1 0.71875,-1.234375 1.015625,-1.234375 0.078125,0 0.25,0 0.25,0.3125 0,0.25 -0.109375,0.53125 -0.171875,0.703125 -0.4375,1.15625 -0.5625,1.609375 -0.5625,2.046875 0,1.078125 0.875,1.234375 1.328125,1.234375 1.671875,0 2.25,-3.296875 2.25,-3.8125 z m 0,0"
             id="id-20412a0f-570d-45e2-b016-57d5dd997bce" />
        </g>
        <g
           transform="matrix(0.279061,0,0,0.279061,92.909054,137.48346)"
           id="g1605"
           style="fill:#000000;fill-opacity:1">
          <path
             style="stroke:none;stroke-width:0"
             d="M 3.515625,-1.265625 H 3.28125 c -0.015625,0.15625 -0.09375,0.5625 -0.1875,0.625 C 3.046875,-0.59375 2.515625,-0.59375 2.40625,-0.59375 H 1.125 c 0.734375,-0.640625 0.984375,-0.84375 1.390625,-1.171875 0.515625,-0.40625 1,-0.84375 1,-1.5 0,-0.84375 -0.734375,-1.359375 -1.625,-1.359375 -0.859375,0 -1.453125,0.609375 -1.453125,1.25 0,0.34375 0.296875,0.390625 0.375,0.390625 0.15625,0 0.359375,-0.125 0.359375,-0.375 0,-0.125 -0.046875,-0.375 -0.40625,-0.375 C 0.984375,-4.21875 1.453125,-4.375 1.78125,-4.375 c 0.703125,0 1.0625,0.546875 1.0625,1.109375 0,0.609375 -0.4375,1.078125 -0.65625,1.328125 L 0.515625,-0.265625 C 0.4375,-0.203125 0.4375,-0.1875 0.4375,0 h 2.875 z m 0,0"
             id="id-98b640de-b637-4c75-8863-ee7687885a0e" />
        </g>
      </g>
      <g
         id="g2434"
         transform="translate(20.060854,5.8679232)">
        <g
           transform="matrix(0.279061,0,0,0.279061,95.082939,137.06654)"
           id="g1609"
           style="fill:#000000;fill-opacity:1">
          <path
             style="stroke:none;stroke-width:0"
             d="m 4.671875,-3.703125 c 0,-0.546875 -0.265625,-0.703125 -0.4375,-0.703125 -0.25,0 -0.5,0.265625 -0.5,0.484375 0,0.125 0.046875,0.1875 0.15625,0.296875 0.21875,0.203125 0.34375,0.453125 0.34375,0.8125 0,0.421875 -0.609375,2.703125 -1.765625,2.703125 -0.515625,0 -0.75,-0.34375 -0.75,-0.875 0,-0.546875 0.28125,-1.28125 0.578125,-2.109375 0.078125,-0.171875 0.125,-0.3125 0.125,-0.5 0,-0.4375 -0.3125,-0.8125 -0.8125,-0.8125 -0.9375,0 -1.3125,1.453125 -1.3125,1.53125 0,0.109375 0.09375,0.109375 0.109375,0.109375 0.109375,0 0.109375,-0.03125 0.15625,-0.1875 0.296875,-1 0.71875,-1.234375 1.015625,-1.234375 0.078125,0 0.25,0 0.25,0.3125 0,0.25 -0.109375,0.53125 -0.171875,0.703125 -0.4375,1.15625 -0.5625,1.609375 -0.5625,2.046875 0,1.078125 0.875,1.234375 1.328125,1.234375 1.671875,0 2.25,-3.296875 2.25,-3.8125 z m 0,0"
             id="id-20470549-67b9-4d32-94c9-60d39094d826" />
        </g>
        <g
           transform="matrix(0.279061,0,0,0.279061,96.430525,137.48346)"
           id="g1613"
           style="fill:#000000;fill-opacity:1">
          <path
             style="stroke:none;stroke-width:0"
             d="m 1.90625,-2.328125 c 0.546875,0 0.9375,0.375 0.9375,1.125 0,0.859375 -0.515625,1.125 -0.90625,1.125 -0.28125,0 -0.90625,-0.078125 -1.1875,-0.5 0.328125,0 0.40625,-0.234375 0.40625,-0.390625 0,-0.21875 -0.171875,-0.375 -0.390625,-0.375 -0.1875,0 -0.390625,0.125 -0.390625,0.40625 0,0.65625 0.71875,1.078125 1.5625,1.078125 0.96875,0 1.640625,-0.65625 1.640625,-1.34375 0,-0.546875 -0.4375,-1.09375 -1.203125,-1.25 0.71875,-0.265625 0.984375,-0.78125 0.984375,-1.21875 0,-0.546875 -0.625,-0.953125 -1.40625,-0.953125 -0.765625,0 -1.359375,0.375 -1.359375,0.9375 0,0.234375 0.15625,0.359375 0.359375,0.359375 0.21875,0 0.359375,-0.15625 0.359375,-0.34375 0,-0.203125 -0.140625,-0.359375 -0.359375,-0.375 0.25,-0.296875 0.71875,-0.375 0.984375,-0.375 0.3125,0 0.75,0.15625 0.75,0.75 0,0.296875 -0.09375,0.625 -0.28125,0.828125 -0.21875,0.265625 -0.421875,0.28125 -0.765625,0.3125 -0.171875,0.015625 -0.1875,0.015625 -0.21875,0.015625 -0.015625,0 -0.078125,0.015625 -0.078125,0.09375 0,0.09375 0.0625,0.09375 0.1875,0.09375 z m 0,0"
             id="id-b36c4c5e-6b7f-4bca-ac25-eb4158e90e09" />
        </g>
      </g>
      <g
         id="g2440"
         transform="translate(-5.1015415,5.551527)">
        <g
           transform="matrix(0.279061,0,0,0.279061,98.60441,137.06654)"
           id="g1617"
           style="fill:#000000;fill-opacity:1">
          <path
             style="stroke:none;stroke-width:0"
             d="m 4.671875,-3.703125 c 0,-0.546875 -0.265625,-0.703125 -0.4375,-0.703125 -0.25,0 -0.5,0.265625 -0.5,0.484375 0,0.125 0.046875,0.1875 0.15625,0.296875 0.21875,0.203125 0.34375,0.453125 0.34375,0.8125 0,0.421875 -0.609375,2.703125 -1.765625,2.703125 -0.515625,0 -0.75,-0.34375 -0.75,-0.875 0,-0.546875 0.28125,-1.28125 0.578125,-2.109375 0.078125,-0.171875 0.125,-0.3125 0.125,-0.5 0,-0.4375 -0.3125,-0.8125 -0.8125,-0.8125 -0.9375,0 -1.3125,1.453125 -1.3125,1.53125 0,0.109375 0.09375,0.109375 0.109375,0.109375 0.109375,0 0.109375,-0.03125 0.15625,-0.1875 0.296875,-1 0.71875,-1.234375 1.015625,-1.234375 0.078125,0 0.25,0 0.25,0.3125 0,0.25 -0.109375,0.53125 -0.171875,0.703125 -0.4375,1.15625 -0.5625,1.609375 -0.5625,2.046875 0,1.078125 0.875,1.234375 1.328125,1.234375 1.671875,0 2.25,-3.296875 2.25,-3.8125 z m 0,0"
             id="id-52db13a9-d2a1-4031-be88-623ef54786f9" />
        </g>
        <g
           transform="matrix(0.279061,0,0,0.279061,99.951995,137.48346)"
           id="g1621"
           style="fill:#000000;fill-opacity:1">
          <path
             style="stroke:none;stroke-width:0"
             d="m 3.6875,-1.140625 v -0.25 H 2.90625 V -4.5 c 0,-0.140625 0,-0.203125 -0.140625,-0.203125 -0.09375,0 -0.125,0 -0.1875,0.109375 l -2.3125,3.203125 v 0.25 h 2.0625 v 0.5625 c 0,0.25 0,0.328125 -0.578125,0.328125 H 1.5625 V 0 C 1.921875,-0.015625 2.359375,-0.03125 2.609375,-0.03125 2.875,-0.03125 3.3125,-0.015625 3.671875,0 v -0.25 h -0.1875 C 2.90625,-0.25 2.90625,-0.328125 2.90625,-0.578125 v -0.5625 z M 2.375,-3.9375 v 2.546875 H 0.53125 Z m 0,0"
             id="id-cca1d92f-00d0-457a-86dd-10ff657110a6" />
        </g>
      </g>
      <g
         id="g2452"
         transform="translate(-6.2541241,-5.1227551)">
        <g
           transform="matrix(0.279061,0,0,0.279061,105.64763,137.06654)"
           id="g1633"
           style="fill:#000000;fill-opacity:1">
          <path
             style="stroke:none;stroke-width:0"
             d="m 1.859375,-2.296875 c 0.296875,0 1.03125,-0.03125 1.53125,-0.234375 0.703125,-0.296875 0.75,-0.890625 0.75,-1.03125 0,-0.4375 -0.375,-0.84375 -1.0625,-0.84375 -1.109375,0 -2.625,0.96875 -2.625,2.71875 0,1.015625 0.59375,1.796875 1.578125,1.796875 1.421875,0 2.25,-1.0625 2.25,-1.171875 0,-0.0625 -0.046875,-0.140625 -0.109375,-0.140625 -0.0625,0 -0.078125,0.03125 -0.140625,0.109375 -0.78125,0.984375 -1.875,0.984375 -1.984375,0.984375 -0.78125,0 -0.875,-0.84375 -0.875,-1.15625 0,-0.125 0.015625,-0.421875 0.15625,-1.03125 z m -0.46875,-0.21875 C 1.78125,-4.03125 2.8125,-4.1875 3.078125,-4.1875 c 0.453125,0 0.734375,0.296875 0.734375,0.625 0,1.046875 -1.59375,1.046875 -2.015625,1.046875 z m 0,0"
             id="id-4bc8f77f-a1ce-4bb9-b14d-e3e755175d9f" />
        </g>
        <g
           transform="matrix(0.279061,0,0,0.279061,106.94219,137.48346)"
           id="g1637"
           style="fill:#000000;fill-opacity:1">
          <path
             style="stroke:none;stroke-width:0"
             d="m 2.328125,-4.4375 c 0,-0.1875 0,-0.1875 -0.203125,-0.1875 -0.453125,0.4375 -1.078125,0.4375 -1.359375,0.4375 v 0.25 c 0.15625,0 0.625,0 1,-0.1875 v 3.546875 c 0,0.234375 0,0.328125 -0.6875,0.328125 H 0.8125 V 0 c 0.125,0 0.984375,-0.03125 1.234375,-0.03125 0.21875,0 1.09375,0.03125 1.25,0.03125 V -0.25 H 3.03125 c -0.703125,0 -0.703125,-0.09375 -0.703125,-0.328125 z m 0,0"
             id="id-3c79e77c-cb7d-4a5b-a1cb-21affbc2bd38" />
        </g>
      </g>
      <g
         id="g2458"
         transform="translate(-4.2440299,-2.9705972)">
        <g
           transform="matrix(0.279061,0,0,0.279061,109.11608,137.06654)"
           id="g1641"
           style="fill:#000000;fill-opacity:1">
          <path
             style="stroke:none;stroke-width:0"
             d="m 1.859375,-2.296875 c 0.296875,0 1.03125,-0.03125 1.53125,-0.234375 0.703125,-0.296875 0.75,-0.890625 0.75,-1.03125 0,-0.4375 -0.375,-0.84375 -1.0625,-0.84375 -1.109375,0 -2.625,0.96875 -2.625,2.71875 0,1.015625 0.59375,1.796875 1.578125,1.796875 1.421875,0 2.25,-1.0625 2.25,-1.171875 0,-0.0625 -0.046875,-0.140625 -0.109375,-0.140625 -0.0625,0 -0.078125,0.03125 -0.140625,0.109375 -0.78125,0.984375 -1.875,0.984375 -1.984375,0.984375 -0.78125,0 -0.875,-0.84375 -0.875,-1.15625 0,-0.125 0.015625,-0.421875 0.15625,-1.03125 z m -0.46875,-0.21875 C 1.78125,-4.03125 2.8125,-4.1875 3.078125,-4.1875 c 0.453125,0 0.734375,0.296875 0.734375,0.625 0,1.046875 -1.59375,1.046875 -2.015625,1.046875 z m 0,0"
             id="id-b23cc986-f929-472c-a080-d12a3e6bbd45" />
        </g>
        <g
           transform="matrix(0.279061,0,0,0.279061,110.41064,137.48346)"
           id="g1645"
           style="fill:#000000;fill-opacity:1">
          <path
             style="stroke:none;stroke-width:0"
             d="M 3.515625,-1.265625 H 3.28125 c -0.015625,0.15625 -0.09375,0.5625 -0.1875,0.625 C 3.046875,-0.59375 2.515625,-0.59375 2.40625,-0.59375 H 1.125 c 0.734375,-0.640625 0.984375,-0.84375 1.390625,-1.171875 0.515625,-0.40625 1,-0.84375 1,-1.5 0,-0.84375 -0.734375,-1.359375 -1.625,-1.359375 -0.859375,0 -1.453125,0.609375 -1.453125,1.25 0,0.34375 0.296875,0.390625 0.375,0.390625 0.15625,0 0.359375,-0.125 0.359375,-0.375 0,-0.125 -0.046875,-0.375 -0.40625,-0.375 C 0.984375,-4.21875 1.453125,-4.375 1.78125,-4.375 c 0.703125,0 1.0625,0.546875 1.0625,1.109375 0,0.609375 -0.4375,1.078125 -0.65625,1.328125 L 0.515625,-0.265625 C 0.4375,-0.203125 0.4375,-0.1875 0.4375,0 h 2.875 z m 0,0"
             id="id-688178f7-5a8f-45be-883a-ae84500c32a8" />
        </g>
      </g>
      <g
         id="g2464"
         transform="translate(-2.920591,-5.746914)">
        <g
           transform="matrix(0.279061,0,0,0.279061,112.58453,137.06654)"
           id="g1649"
           style="fill:#000000;fill-opacity:1">
          <path
             style="stroke:none;stroke-width:0"
             d="m 1.859375,-2.296875 c 0.296875,0 1.03125,-0.03125 1.53125,-0.234375 0.703125,-0.296875 0.75,-0.890625 0.75,-1.03125 0,-0.4375 -0.375,-0.84375 -1.0625,-0.84375 -1.109375,0 -2.625,0.96875 -2.625,2.71875 0,1.015625 0.59375,1.796875 1.578125,1.796875 1.421875,0 2.25,-1.0625 2.25,-1.171875 0,-0.0625 -0.046875,-0.140625 -0.109375,-0.140625 -0.0625,0 -0.078125,0.03125 -0.140625,0.109375 -0.78125,0.984375 -1.875,0.984375 -1.984375,0.984375 -0.78125,0 -0.875,-0.84375 -0.875,-1.15625 0,-0.125 0.015625,-0.421875 0.15625,-1.03125 z m -0.46875,-0.21875 C 1.78125,-4.03125 2.8125,-4.1875 3.078125,-4.1875 c 0.453125,0 0.734375,0.296875 0.734375,0.625 0,1.046875 -1.59375,1.046875 -2.015625,1.046875 z m 0,0"
             id="id-b91451a9-cc28-4639-85ba-8f37f4a162a5" />
        </g>
        <g
           transform="matrix(0.279061,0,0,0.279061,113.87909,137.48346)"
           id="g1653"
           style="fill:#000000;fill-opacity:1">
          <path
             style="stroke:none;stroke-width:0"
             d="m 1.90625,-2.328125 c 0.546875,0 0.9375,0.375 0.9375,1.125 0,0.859375 -0.515625,1.125 -0.90625,1.125 -0.28125,0 -0.90625,-0.078125 -1.1875,-0.5 0.328125,0 0.40625,-0.234375 0.40625,-0.390625 0,-0.21875 -0.171875,-0.375 -0.390625,-0.375 -0.1875,0 -0.390625,0.125 -0.390625,0.40625 0,0.65625 0.71875,1.078125 1.5625,1.078125 0.96875,0 1.640625,-0.65625 1.640625,-1.34375 0,-0.546875 -0.4375,-1.09375 -1.203125,-1.25 0.71875,-0.265625 0.984375,-0.78125 0.984375,-1.21875 0,-0.546875 -0.625,-0.953125 -1.40625,-0.953125 -0.765625,0 -1.359375,0.375 -1.359375,0.9375 0,0.234375 0.15625,0.359375 0.359375,0.359375 0.21875,0 0.359375,-0.15625 0.359375,-0.34375 0,-0.203125 -0.140625,-0.359375 -0.359375,-0.375 0.25,-0.296875 0.71875,-0.375 0.984375,-0.375 0.3125,0 0.75,0.15625 0.75,0.75 0,0.296875 -0.09375,0.625 -0.28125,0.828125 -0.21875,0.265625 -0.421875,0.28125 -0.765625,0.3125 -0.171875,0.015625 -0.1875,0.015625 -0.21875,0.015625 -0.015625,0 -0.078125,0.015625 -0.078125,0.09375 0,0.09375 0.0625,0.09375 0.1875,0.09375 z m 0,0"
             id="id-28235217-47e6-4b0f-9fdf-c305b5e9bf69" />
        </g>
      </g>
      <g
         id="g2470"
         transform="translate(-3.2720847,0.00271377)">
        <g
           transform="matrix(0.279061,0,0,0.279061,116.05298,137.06654)"
           id="g1657"
           style="fill:#000000;fill-opacity:1">
          <path
             style="stroke:none;stroke-width:0"
             d="m 1.859375,-2.296875 c 0.296875,0 1.03125,-0.03125 1.53125,-0.234375 0.703125,-0.296875 0.75,-0.890625 0.75,-1.03125 0,-0.4375 -0.375,-0.84375 -1.0625,-0.84375 -1.109375,0 -2.625,0.96875 -2.625,2.71875 0,1.015625 0.59375,1.796875 1.578125,1.796875 1.421875,0 2.25,-1.0625 2.25,-1.171875 0,-0.0625 -0.046875,-0.140625 -0.109375,-0.140625 -0.0625,0 -0.078125,0.03125 -0.140625,0.109375 -0.78125,0.984375 -1.875,0.984375 -1.984375,0.984375 -0.78125,0 -0.875,-0.84375 -0.875,-1.15625 0,-0.125 0.015625,-0.421875 0.15625,-1.03125 z m -0.46875,-0.21875 C 1.78125,-4.03125 2.8125,-4.1875 3.078125,-4.1875 c 0.453125,0 0.734375,0.296875 0.734375,0.625 0,1.046875 -1.59375,1.046875 -2.015625,1.046875 z m 0,0"
             id="id-04c5ed87-bda2-421d-afe1-1014e5bc1b19" />
        </g>
        <g
           transform="matrix(0.279061,0,0,0.279061,117.34754,137.48346)"
           id="g1661"
           style="fill:#000000;fill-opacity:1">
          <path
             style="stroke:none;stroke-width:0"
             d="m 3.6875,-1.140625 v -0.25 H 2.90625 V -4.5 c 0,-0.140625 0,-0.203125 -0.140625,-0.203125 -0.09375,0 -0.125,0 -0.1875,0.109375 l -2.3125,3.203125 v 0.25 h 2.0625 v 0.5625 c 0,0.25 0,0.328125 -0.578125,0.328125 H 1.5625 V 0 C 1.921875,-0.015625 2.359375,-0.03125 2.609375,-0.03125 2.875,-0.03125 3.3125,-0.015625 3.671875,0 v -0.25 h -0.1875 C 2.90625,-0.25 2.90625,-0.328125 2.90625,-0.578125 v -0.5625 z M 2.375,-3.9375 v 2.546875 H 0.53125 Z m 0,0"
             id="id-f9d01347-9ba1-487f-a025-d71179459582" />
        </g>
      </g>
      <g
         id="g2476"
         transform="translate(-20.038337,1.9790683)">
        <g
           transform="matrix(0.279061,0,0,0.279061,119.52171,137.06654)"
           id="g1665"
           style="fill:#000000;fill-opacity:1">
          <path
             style="stroke:none;stroke-width:0"
             d="m 1.859375,-2.296875 c 0.296875,0 1.03125,-0.03125 1.53125,-0.234375 0.703125,-0.296875 0.75,-0.890625 0.75,-1.03125 0,-0.4375 -0.375,-0.84375 -1.0625,-0.84375 -1.109375,0 -2.625,0.96875 -2.625,2.71875 0,1.015625 0.59375,1.796875 1.578125,1.796875 1.421875,0 2.25,-1.0625 2.25,-1.171875 0,-0.0625 -0.046875,-0.140625 -0.109375,-0.140625 -0.0625,0 -0.078125,0.03125 -0.140625,0.109375 -0.78125,0.984375 -1.875,0.984375 -1.984375,0.984375 -0.78125,0 -0.875,-0.84375 -0.875,-1.15625 0,-0.125 0.015625,-0.421875 0.15625,-1.03125 z m -0.46875,-0.21875 C 1.78125,-4.03125 2.8125,-4.1875 3.078125,-4.1875 c 0.453125,0 0.734375,0.296875 0.734375,0.625 0,1.046875 -1.59375,1.046875 -2.015625,1.046875 z m 0,0"
             id="id-1dba4a14-8a74-4424-957b-eafc80372e22" />
        </g>
        <g
           transform="matrix(0.279061,0,0,0.279061,120.81599,137.48346)"
           id="g1669"
           style="fill:#000000;fill-opacity:1">
          <path
             style="stroke:none;stroke-width:0"
             d="m 1.078125,-3.890625 c 0.359375,0.09375 0.5625,0.09375 0.671875,0.09375 0.921875,0 1.46875,-0.625 1.46875,-0.734375 0,-0.078125 -0.046875,-0.09375 -0.078125,-0.09375 -0.015625,0 -0.03125,0 -0.0625,0.015625 -0.171875,0.0625 -0.53125,0.203125 -1.046875,0.203125 -0.203125,0 -0.5625,-0.015625 -1.015625,-0.1875 C 0.9375,-4.625 0.921875,-4.625 0.921875,-4.625 c -0.09375,0 -0.09375,0.078125 -0.09375,0.1875 v 2.046875 c 0,0.125 0,0.203125 0.109375,0.203125 0.0625,0 0.078125,0 0.140625,-0.09375 0.296875,-0.375 0.734375,-0.4375 0.96875,-0.4375 0.421875,0 0.609375,0.328125 0.640625,0.390625 0.125,0.234375 0.171875,0.5 0.171875,0.90625 0,0.203125 0,0.609375 -0.21875,0.921875 -0.171875,0.25 -0.46875,0.421875 -0.8125,0.421875 -0.453125,0 -0.921875,-0.25 -1.09375,-0.71875 0.265625,0.015625 0.40625,-0.15625 0.40625,-0.34375 0,-0.296875 -0.265625,-0.34375 -0.359375,-0.34375 0,0 -0.34375,0 -0.34375,0.375 0,0.625 0.578125,1.25 1.40625,1.25 0.890625,0 1.671875,-0.65625 1.671875,-1.546875 0,-0.78125 -0.59375,-1.5 -1.453125,-1.5 -0.3125,0 -0.671875,0.0625 -0.984375,0.328125 z m 0,0"
             id="id-d0e894ac-1b4a-44e3-87db-c81008f3c011" />
        </g>
      </g>
      <g
         id="g1543"
         transform="rotate(90,103.84896,127.66146)">
        <g
           id="path1186">
          <path
             style="color:#000000;fill:#000000;-inkscape-stroke:none"
             d="m 110.89258,121.70898 v 7.83985 l -5.22461,5.22461 0.33008,0.32812 5.35937,-5.35937 v -8.03321 z"
             id="path1698" />
          <g
             id="g1666">
            <g
               id="path1688">
              <path
                 style="color:#000000;fill:#f5c211;fill-rule:evenodd;stroke-width:0.186pt;-inkscape-stroke:none"
                 d="m 105.18887,135.58196 c -0.363,-0.363 -0.363,-0.95222 0,-1.31522 0.363,-0.363 0.95222,-0.363 1.31522,0 0.363,0.363 0.363,0.95222 0,1.31522 -0.363,0.363 -0.95222,0.363 -1.31522,0 z"
                 id="path1692" />
              <path
                 style="color:#000000;fill:#000000;fill-rule:evenodd;-inkscape-stroke:none"
                 d="m 105.8457,133.87109 c -0.27003,0 -0.53892,0.10338 -0.74414,0.3086 -0.41044,0.41044 -0.41044,1.07979 0,1.49023 0.41044,0.41044 1.0798,0.41044 1.49024,0 0.41044,-0.41044 0.41044,-1.07979 0,-1.49023 -0.20522,-0.20522 -0.47606,-0.3086 -0.7461,-0.3086 z m -0.56836,0.48243 c 0.31556,-0.31556 0.82312,-0.31556 1.13868,0 0.31555,0.31555 0.31555,0.82506 0,1.14062 -0.31556,0.31556 -0.82312,0.31556 -1.13868,0 -0.31555,-0.31556 -0.31555,-0.82507 0,-1.14062 z"
                 id="path1694" />
            </g>
            <g
               id="path1678">
              <path
                 style="color:#000000;fill:#000000;fill-rule:evenodd;stroke-width:0.186pt;-inkscape-stroke:none"
                 d="m 110.77622,130.48785 c -0.47428,-0.19645 -0.69976,-0.74082 -0.50331,-1.2151 0.19645,-0.47428 0.74082,-0.69977 1.2151,-0.50331 0.47429,0.19645 0.69977,0.74082 0.50332,1.2151 -0.19646,0.47428 -0.74082,0.69977 -1.21511,0.50331 z"
                 id="path1682" />
              <path
                 style="color:#000000;fill:#000000;fill-rule:evenodd;-inkscape-stroke:none"
                 d="m 111.53516,128.6543 c -0.53627,-0.22214 -1.15483,0.034 -1.37696,0.57031 -0.22212,0.53626 0.0341,1.15483 0.57032,1.37695 0.53627,0.22214 1.15481,-0.0341 1.37695,-0.57031 0.22212,-0.53626 -0.034,-1.15483 -0.57031,-1.37695 z m -0.0937,0.23047 c 0.4123,0.17077 0.60632,0.64044 0.43554,1.05273 -0.17078,0.4123 -0.64043,0.60633 -1.05273,0.43555 -0.41229,-0.17078 -0.60828,-0.64044 -0.4375,-1.05274 0.17077,-0.41229 0.64239,-0.60633 1.05469,-0.43554 z"
                 id="path1684" />
            </g>
            <g
               id="path1668">
              <path
                 style="color:#000000;fill:#000000;fill-rule:evenodd;stroke-width:0.186pt;-inkscape-stroke:none"
                 d="m 111.125,122.61973 c -0.51336,0 -0.93,-0.41664 -0.93,-0.93 0,-0.51336 0.41664,-0.93 0.93,-0.93 0.51336,0 0.93,0.41664 0.93,0.93 0,0.51336 -0.41664,0.93 -0.93,0.93 z"
                 id="path1672" />
              <path
                 style="color:#000000;fill:#000000;fill-rule:evenodd;-inkscape-stroke:none"
                 d="m 111.125,120.63477 c -0.58045,0 -1.05469,0.47423 -1.05469,1.05468 0,0.58045 0.47424,1.05469 1.05469,1.05469 0.58045,0 1.05469,-0.47424 1.05469,-1.05469 0,-0.58045 -0.47424,-1.05468 -1.05469,-1.05468 z m 0,0.24804 c 0.44627,0 0.80664,0.36038 0.80664,0.80664 0,0.44627 -0.36037,0.80664 -0.80664,0.80664 -0.44627,0 -0.80664,-0.36037 -0.80664,-0.80664 0,-0.44626 0.36037,-0.80664 0.80664,-0.80664 z"
                 id="path1674" />
            </g>
          </g>
        </g>
        <g
           id="path1188">
          <path
             style="color:#000000;fill:#000000;-inkscape-stroke:none"
             d="m 111.28906,129.48047 -0.32812,0.33008 5.29101,5.29101 0.33008,-0.32812 z"
             id="path1726" />
          <g
             id="g1704">
            <g
               id="path1716">
              <path
                 style="color:#000000;fill:#f5c211;fill-rule:evenodd;stroke-width:0.186pt;-inkscape-stroke:none"
                 d="m 117.06112,135.58196 c -0.363,0.363 -0.95222,0.363 -1.31522,0 -0.363,-0.363 -0.363,-0.95222 0,-1.31522 0.363,-0.363 0.95222,-0.363 1.31522,0 0.363,0.363 0.363,0.95222 0,1.31522 z"
                 id="path1720" />
              <path
                 style="color:#000000;fill:#000000;fill-rule:evenodd;-inkscape-stroke:none"
                 d="m 116.4043,133.87109 c -0.27004,0 -0.54088,0.10338 -0.7461,0.3086 -0.41044,0.41044 -0.41044,1.07979 0,1.49023 0.41044,0.41044 1.0798,0.41044 1.49024,0 0.41044,-0.41044 0.41044,-1.07979 0,-1.49023 -0.20522,-0.20522 -0.47411,-0.3086 -0.74414,-0.3086 z m -0.57032,0.48243 c 0.31556,-0.31556 0.82312,-0.31556 1.13868,0 0.31555,0.31555 0.31555,0.82506 0,1.14062 -0.31556,0.31556 -0.82312,0.31556 -1.13868,0 -0.31555,-0.31556 -0.31555,-0.82507 0,-1.14062 z"
                 id="path1722" />
            </g>
            <g
               id="path1706">
              <path
                 style="color:#000000;fill:#f5c211;fill-rule:evenodd;stroke-width:0.186pt;-inkscape-stroke:none"
                 d="m 111.76946,130.29029 c -0.363,0.363 -0.95222,0.363 -1.31522,0 -0.363,-0.363 -0.363,-0.95222 0,-1.31522 0.363,-0.363 0.95222,-0.363 1.31522,0 0.363,0.363 0.363,0.95222 0,1.31522 z"
                 id="path1710" />
              <path
                 style="color:#000000;fill:#000000;fill-rule:evenodd;-inkscape-stroke:none"
                 d="m 111.11133,128.58008 c -0.27004,0 -0.53892,0.10142 -0.74414,0.30664 -0.41044,0.41044 -0.41044,1.08175 0,1.49219 0.41044,0.41044 1.07979,0.41044 1.49023,0 0.41044,-0.41044 0.41044,-1.08175 0,-1.49219 -0.20522,-0.20522 -0.47606,-0.30664 -0.74609,-0.30664 z m -0.57031,0.48242 c 0.31555,-0.31556 0.82506,-0.31556 1.14062,0 0.31556,0.31556 0.31556,0.82507 0,1.14062 -0.31556,0.31556 -0.82507,0.31556 -1.14062,0 -0.31556,-0.31555 -0.31556,-0.82506 0,-1.14062 z"
                 id="path1712" />
            </g>
          </g>
        </g>
        <g
           id="path1190">
          <path
             style="color:#000000;fill:#000000;-inkscape-stroke:none"
             d="m 105.99805,116.25195 -0.33008,0.33008 5.45703,5.45508 5.45703,-5.45508 -0.33008,-0.33008 -5.12695,5.12696 z"
             id="path1764" />
          <g
             id="g1732">
            <g
               id="path1754">
              <path
                 style="color:#000000;fill:#f5c211;fill-rule:evenodd;stroke-width:0.186pt;-inkscape-stroke:none"
                 d="m 105.18887,115.77221 c 0.363,-0.363 0.95222,-0.363 1.31522,0 0.363,0.363 0.363,0.95222 0,1.31522 -0.363,0.363 -0.95222,0.363 -1.31522,0 -0.363,-0.363 -0.363,-0.95222 0,-1.31522 z"
                 id="path1758" />
              <path
                 style="color:#000000;fill:#000000;fill-rule:evenodd;-inkscape-stroke:none"
                 d="m 105.8457,115.37695 c -0.27003,0 -0.53892,0.10142 -0.74414,0.30664 -0.41044,0.41044 -0.41044,1.08175 0,1.49219 0.41044,0.41044 1.0798,0.41044 1.49024,0 0.41044,-0.41044 0.41044,-1.08175 0,-1.49219 -0.20522,-0.20522 -0.47606,-0.30664 -0.7461,-0.30664 z m -0.56836,0.48243 c 0.31556,-0.31556 0.82312,-0.31556 1.13868,0 0.31555,0.31555 0.31555,0.82506 0,1.14062 -0.31556,0.31556 -0.82312,0.31556 -1.13868,0 -0.31555,-0.31556 -0.31555,-0.82507 0,-1.14062 z"
                 id="path1760" />
            </g>
            <g
               id="path1744">
              <path
                 style="color:#000000;fill:#f5c211;fill-rule:evenodd;stroke-width:0.186pt;-inkscape-stroke:none"
                 d="m 110.2136,121.70833 c 0,-0.51336 0.41664,-0.93 0.93,-0.93 0.51336,0 0.93,0.41664 0.93,0.93 0,0.51336 -0.41664,0.93 -0.93,0.93 -0.51336,0 -0.93,-0.41664 -0.93,-0.93 z"
                 id="path1748" />
              <path
                 style="color:#000000;fill:#000000;fill-rule:evenodd;-inkscape-stroke:none"
                 d="m 111.14453,120.6543 c -0.58045,0 -1.05469,0.47423 -1.05469,1.05468 0,0.58046 0.47424,1.05274 1.05469,1.05274 0.58045,0 1.05274,-0.47228 1.05274,-1.05274 0,-0.58045 -0.47229,-1.05468 -1.05274,-1.05468 z m 0,0.24804 c 0.44627,0 0.80469,0.36038 0.80469,0.80664 0,0.44627 -0.35842,0.80469 -0.80469,0.80469 -0.44627,0 -0.80664,-0.35842 -0.80664,-0.80469 0,-0.44626 0.36037,-0.80664 0.80664,-0.80664 z"
                 id="path1750" />
            </g>
            <g
               id="path1734">
              <path
                 style="color:#000000;fill:#f5c211;fill-rule:evenodd;stroke-width:0.186pt;-inkscape-stroke:none"
                 d="m 115.7722,117.06113 c -0.363,-0.363 -0.363,-0.95222 0,-1.31522 0.363,-0.363 0.95222,-0.363 1.31522,0 0.363,0.363 0.363,0.95222 0,1.31522 -0.363,0.363 -0.95222,0.363 -1.31522,0 z"
                 id="path1738" />
              <path
                 style="color:#000000;fill:#000000;fill-rule:evenodd;-inkscape-stroke:none"
                 d="m 116.42969,115.34961 c -0.27004,0 -0.54088,0.10337 -0.7461,0.30859 -0.41044,0.41044 -0.41044,1.0798 0,1.49024 0.41044,0.41044 1.08175,0.41044 1.49219,0 0.41044,-0.41044 0.41044,-1.0798 0,-1.49024 -0.20522,-0.20522 -0.47606,-0.30859 -0.74609,-0.30859 z m -0.57031,0.48437 c 0.31555,-0.31555 0.82506,-0.31555 1.14062,0 0.31556,0.31556 0.31556,0.82312 0,1.13868 -0.31556,0.31555 -0.82507,0.31555 -1.14062,0 -0.31556,-0.31556 -0.31556,-0.82312 0,-1.13868 z"
                 id="path1740" />
            </g>
          </g>
        </g>
      </g>
    </g>
  </g>
</svg>
