<?xml version="1.0" encoding="UTF-8" standalone="no"?>
<!-- Created with Inkscape (http://www.inkscape.org/) -->

<svg
   width="63.500008mm"
   height="64.632309mm"
   viewBox="0 0 63.500008 64.632309"
   version="1.1"
   id="svg5"
   inkscape:version="1.1 (c4e8f9e, 2021-05-24)"
   sodipodi:docname="grid.svg"
   xmlns:inkscape="http://www.inkscape.org/namespaces/inkscape"
   xmlns:sodipodi="http://sodipodi.sourceforge.net/DTD/sodipodi-0.dtd"
   xmlns="http://www.w3.org/2000/svg"
   xmlns:svg="http://www.w3.org/2000/svg">
  <sodipodi:namedview
     id="namedview7"
     pagecolor="#ffffff"
     bordercolor="#666666"
     borderopacity="1.0"
     inkscape:pageshadow="2"
     inkscape:pageopacity="0.0"
     inkscape:pagecheckerboard="0"
     inkscape:document-units="mm"
     showgrid="false"
     inkscape:zoom="1.5748204"
     inkscape:cx="114.61624"
     inkscape:cy="97.471429"
     inkscape:window-width="1746"
     inkscape:window-height="847"
     inkscape:window-x="1857"
     inkscape:window-y="72"
     inkscape:window-maximized="0"
     inkscape:current-layer="layer1"
     inkscape:snap-center="true"
     inkscape:snap-global="false">
    <inkscape:grid
       type="xygrid"
       id="grid824"
       originx="-52.916663"
       originy="-78.242691" />
  </sodipodi:namedview>
  <defs
     id="defs2">
    <defs
       id="id-ce301377-c562-46a7-bf83-16f1fb5cd8f5">
      <g
         id="id-e7ca5dd4-09ab-486b-8480-be482cb7911f">
        <symbol
           overflow="visible"
           id="id-82458dfa-ed4e-4df6-8408-3aaea2c050c4">
          <path
             style="stroke:none;stroke-width:0"
             d=""
             id="id-87e0b9bf-6a52-4da7-ae30-7cfe30da941d" />
        </symbol>
        <symbol
           overflow="visible"
           id="id-ec3499aa-b696-4fe2-bc5f-1064980caa81">
          <path
             style="stroke:none;stroke-width:0"
             d="m 3.296875,2.390625 c 0,-0.03125 0,-0.046875 -0.171875,-0.21875 C 1.890625,0.921875 1.5625,-0.96875 1.5625,-2.5 c 0,-1.734375 0.375,-3.46875 1.609375,-4.703125 0.125,-0.125 0.125,-0.140625 0.125,-0.171875 0,-0.078125 -0.03125,-0.109375 -0.09375,-0.109375 -0.109375,0 -1,0.6875 -1.59375,1.953125 -0.5,1.09375 -0.625,2.203125 -0.625,3.03125 0,0.78125 0.109375,1.984375 0.65625,3.125 C 2.25,1.84375 3.09375,2.5 3.203125,2.5 c 0.0625,0 0.09375,-0.03125 0.09375,-0.109375 z m 0,0"
             id="id-e653d853-2635-4bda-8c4d-3f8a8fb6f555" />
        </symbol>
        <symbol
           overflow="visible"
           id="id-d3452ab0-c24d-4007-a2ac-a06db3720bc7">
          <path
             style="stroke:none;stroke-width:0"
             d="m 4.578125,-3.1875 c 0,-0.796875 -0.046875,-1.59375 -0.390625,-2.328125 -0.453125,-0.96875 -1.28125,-1.125 -1.6875,-1.125 -0.609375,0 -1.328125,0.265625 -1.75,1.1875 -0.3125,0.6875 -0.359375,1.46875 -0.359375,2.265625 0,0.75 0.03125,1.640625 0.453125,2.40625 0.421875,0.796875 1.15625,1 1.640625,1 0.53125,0 1.296875,-0.203125 1.734375,-1.15625 0.3125,-0.6875 0.359375,-1.46875 0.359375,-2.25 z M 2.484375,0 C 2.09375,0 1.5,-0.25 1.328125,-1.203125 1.21875,-1.796875 1.21875,-2.71875 1.21875,-3.3125 c 0,-0.640625 0,-1.296875 0.078125,-1.828125 0.1875,-1.1875 0.9375,-1.28125 1.1875,-1.28125 0.328125,0 0.984375,0.1875 1.171875,1.171875 0.109375,0.5625 0.109375,1.3125 0.109375,1.9375 0,0.75 0,1.421875 -0.109375,2.0625 C 3.5,-0.296875 2.9375,0 2.484375,0 Z m 0,0"
             id="id-712d3f10-4e33-4aaf-8d1a-b6db4e03af19" />
        </symbol>
        <symbol
           overflow="visible"
           id="id-f5dc75dc-21f8-4207-a8de-fd69a70e22d0">
          <path
             style="stroke:none;stroke-width:0"
             d="m 2.875,-2.5 c 0,-0.765625 -0.109375,-1.96875 -0.65625,-3.109375 -0.59375,-1.21875 -1.453125,-1.875 -1.546875,-1.875 -0.0625,0 -0.109375,0.046875 -0.109375,0.109375 0,0.03125 0,0.046875 0.1875,0.234375 0.984375,0.984375 1.546875,2.5625 1.546875,4.640625 0,1.71875 -0.359375,3.46875 -1.59375,4.71875 C 0.5625,2.34375 0.5625,2.359375 0.5625,2.390625 0.5625,2.453125 0.609375,2.5 0.671875,2.5 0.765625,2.5 1.671875,1.8125 2.25,0.546875 2.765625,-0.546875 2.875,-1.65625 2.875,-2.5 Z m 0,0"
             id="id-73261471-b521-4cec-92ad-7f85b6c8cbac" />
        </symbol>
        <symbol
           overflow="visible"
           id="id-4ef3ee86-70fd-46b1-8a3f-7eb4a300d703">
          <path
             style="stroke:none;stroke-width:0"
             d=""
             id="id-dd9fb4ca-fdf4-4399-a48b-12cbbcfe2712" />
        </symbol>
        <symbol
           overflow="visible"
           id="id-9d468384-4256-491f-8cc1-7f291af5f04c">
          <path
             style="stroke:none;stroke-width:0"
             d="m 2.03125,-0.015625 c 0,-0.65625 -0.25,-1.046875 -0.640625,-1.046875 -0.328125,0 -0.53125,0.25 -0.53125,0.53125 C 0.859375,-0.265625 1.0625,0 1.390625,0 1.5,0 1.640625,-0.046875 1.734375,-0.125 1.765625,-0.15625 1.78125,-0.15625 1.78125,-0.15625 c 0.015625,0 0.015625,0 0.015625,0.140625 0,0.75 -0.34375,1.34375 -0.671875,1.671875 -0.109375,0.109375 -0.109375,0.125 -0.109375,0.15625 0,0.078125 0.046875,0.109375 0.09375,0.109375 0.109375,0 0.921875,-0.765625 0.921875,-1.9375 z m 0,0"
             id="id-3705d5a6-4118-484c-99e4-ca86b885a0ad" />
        </symbol>
        <symbol
           overflow="visible"
           id="id-10292f74-54fc-4ae6-8c0a-7fa27108c311">
          <path
             style="stroke:none;stroke-width:0"
             d="m 0.875,-0.59375 c -0.03125,0.15625 -0.09375,0.390625 -0.09375,0.4375 0,0.171875 0.140625,0.265625 0.296875,0.265625 0.125,0 0.296875,-0.078125 0.375,-0.28125 0,-0.015625 0.125,-0.484375 0.1875,-0.734375 l 0.21875,-0.890625 C 1.90625,-2.03125 1.96875,-2.25 2.03125,-2.46875 c 0.03125,-0.171875 0.109375,-0.46875 0.125,-0.5 0.140625,-0.3125 0.671875,-1.21875 1.625,-1.21875 0.453125,0 0.53125,0.375 0.53125,0.703125 0,0.609375 -0.484375,1.890625 -0.640625,2.3125 C 3.578125,-0.9375 3.5625,-0.8125 3.5625,-0.703125 c 0,0.46875 0.359375,0.8125 0.828125,0.8125 0.9375,0 1.296875,-1.453125 1.296875,-1.53125 0,-0.109375 -0.078125,-0.109375 -0.109375,-0.109375 -0.109375,0 -0.109375,0.03125 -0.15625,0.1875 -0.203125,0.671875 -0.53125,1.234375 -1.015625,1.234375 -0.171875,0 -0.234375,-0.09375 -0.234375,-0.328125 0,-0.25 0.078125,-0.484375 0.171875,-0.703125 0.1875,-0.53125 0.609375,-1.625 0.609375,-2.203125 0,-0.65625 -0.421875,-1.0625 -1.140625,-1.0625 -0.90625,0 -1.390625,0.640625 -1.5625,0.875 -0.046875,-0.5625 -0.453125,-0.875 -0.921875,-0.875 -0.453125,0 -0.640625,0.390625 -0.734375,0.5625 C 0.421875,-3.5 0.296875,-2.90625 0.296875,-2.875 c 0,0.109375 0.09375,0.109375 0.109375,0.109375 0.109375,0 0.109375,-0.015625 0.171875,-0.234375 0.171875,-0.703125 0.375,-1.1875 0.734375,-1.1875 0.1875,0 0.296875,0.125 0.296875,0.453125 0,0.21875 -0.03125,0.328125 -0.15625,0.84375 z m 0,0"
             id="id-80672574-5804-4b0a-af7f-e215220baf72" />
        </symbol>
      </g>
    </defs>
  </defs>
  <g
     inkscape:label="Layer 1"
     inkscape:groupmode="layer"
     id="layer1"
     transform="translate(-52.916663,-78.242689)">
    <g
       id="g2867">
      <g
         id="g2042">
        <path
           style="fill:none;stroke:#e3f5f5;stroke-width:0.264583px;stroke-linecap:butt;stroke-linejoin:miter;stroke-opacity:1"
           d="M 89.958333,79.374999 V 142.875"
           id="path943" />
        <path
           style="fill:none;stroke:#e3f5f5;stroke-width:0.264583px;stroke-linecap:butt;stroke-linejoin:miter;stroke-opacity:1"
           d="M 95.25,79.374999 V 142.875"
           id="path945" />
        <path
           style="fill:none;stroke:#e3f5f5;stroke-width:0.264583px;stroke-linecap:butt;stroke-linejoin:miter;stroke-opacity:1"
           d="M 100.54167,79.374999 V 142.875"
           id="path947" />
        <path
           style="fill:none;stroke:#e3f5f5;stroke-width:0.264583px;stroke-linecap:butt;stroke-linejoin:miter;stroke-opacity:1"
           d="M 105.83334,79.374999 V 142.875"
           id="path949" />
        <path
           style="fill:none;stroke:#e3f5f5;stroke-width:0.264583px;stroke-linecap:butt;stroke-linejoin:miter;stroke-opacity:1"
           d="M 111.12501,79.374999 V 142.875"
           id="path951" />
        <path
           style="fill:none;stroke:#e3f5f5;stroke-width:0.264583px;stroke-linecap:butt;stroke-linejoin:miter;stroke-opacity:1"
           d="M 79.374999,79.374999 V 142.875"
           id="path953" />
        <path
           style="fill:none;stroke:#e3f5f5;stroke-width:0.264583px;stroke-linecap:butt;stroke-linejoin:miter;stroke-opacity:1"
           d="M 74.083332,79.374999 V 142.875"
           id="path955" />
        <path
           style="fill:none;stroke:#e3f5f5;stroke-width:0.264583px;stroke-linecap:butt;stroke-linejoin:miter;stroke-opacity:1"
           d="M 68.791665,79.374999 V 142.875"
           id="path957" />
        <path
           style="fill:none;stroke:#e3f5f5;stroke-width:0.264583px;stroke-linecap:butt;stroke-linejoin:miter;stroke-opacity:1"
           d="M 63.499998,79.374999 V 142.875"
           id="path959" />
        <path
           style="fill:none;stroke:#e3f5f5;stroke-width:0.264583px;stroke-linecap:butt;stroke-linejoin:miter;stroke-opacity:1"
           d="M 58.208331,79.374999 V 142.875"
           id="path961" />
        <path
           style="fill:none;stroke:#e3f5f5;stroke-width:0.264583px;stroke-linecap:butt;stroke-linejoin:miter;stroke-opacity:1"
           d="M 116.41667,105.83333 H 52.916666"
           id="path963" />
        <path
           style="fill:none;stroke:#e3f5f5;stroke-width:0.264583px;stroke-linecap:butt;stroke-linejoin:miter;stroke-opacity:1"
           d="M 116.41667,100.54166 H 52.916666"
           id="path965" />
        <path
           style="fill:none;stroke:#e3f5f5;stroke-width:0.264583px;stroke-linecap:butt;stroke-linejoin:miter;stroke-opacity:1"
           d="M 116.41667,95.249993 H 52.916666"
           id="path967" />
        <path
           style="fill:none;stroke:#e3f5f5;stroke-width:0.264583px;stroke-linecap:butt;stroke-linejoin:miter;stroke-opacity:1"
           d="M 116.41667,89.958326 H 52.916666"
           id="path969" />
        <path
           style="fill:none;stroke:#e3f5f5;stroke-width:0.264583px;stroke-linecap:butt;stroke-linejoin:miter;stroke-opacity:1"
           d="M 116.41667,84.666659 H 52.916666"
           id="path971" />
        <path
           style="fill:none;stroke:#e3f5f5;stroke-width:0.264583px;stroke-linecap:butt;stroke-linejoin:miter;stroke-opacity:1"
           d="M 116.41667,116.41667 H 52.916666"
           id="path973" />
        <path
           style="fill:none;stroke:#e3f5f5;stroke-width:0.264583px;stroke-linecap:butt;stroke-linejoin:miter;stroke-opacity:1"
           d="M 116.41667,121.70834 H 52.916666"
           id="path975" />
        <path
           style="fill:none;stroke:#e3f5f5;stroke-width:0.264583px;stroke-linecap:butt;stroke-linejoin:miter;stroke-opacity:1"
           d="M 116.41667,127.00001 H 52.916666"
           id="path977" />
        <path
           style="fill:none;stroke:#e3f5f5;stroke-width:0.264583px;stroke-linecap:butt;stroke-linejoin:miter;stroke-opacity:1"
           d="M 116.41667,132.29168 H 52.916666"
           id="path979" />
        <path
           style="fill:none;stroke:#e3f5f5;stroke-width:0.264583px;stroke-linecap:butt;stroke-linejoin:miter;stroke-opacity:1"
           d="M 116.41667,137.58335 H 52.916666"
           id="path981" />
        <path
           style="fill:none;stroke:#e3f5f5;stroke-width:0.264583px;stroke-linecap:butt;stroke-linejoin:miter;stroke-opacity:1"
           d="M 55.5625,79.374999 V 142.875"
           id="path1136" />
        <path
           style="fill:none;stroke:#e3f5f5;stroke-width:0.264583px;stroke-linecap:butt;stroke-linejoin:miter;stroke-opacity:1"
           d="M 60.854167,79.374999 V 142.875"
           id="path1138" />
        <path
           style="fill:none;stroke:#e3f5f5;stroke-width:0.264583px;stroke-linecap:butt;stroke-linejoin:miter;stroke-opacity:1"
           d="M 66.145834,79.374999 V 142.875"
           id="path1140" />
        <path
           style="fill:none;stroke:#e3f5f5;stroke-width:0.264583px;stroke-linecap:butt;stroke-linejoin:miter;stroke-opacity:1"
           d="M 71.437501,79.374999 V 142.875"
           id="path1142" />
        <path
           style="fill:none;stroke:#e3f5f5;stroke-width:0.264583px;stroke-linecap:butt;stroke-linejoin:miter;stroke-opacity:1"
           d="M 76.729168,79.374999 V 142.875"
           id="path1144" />
        <path
           style="fill:none;stroke:#e3f5f5;stroke-width:0.264583px;stroke-linecap:butt;stroke-linejoin:miter;stroke-opacity:1"
           d="M 82.020835,79.374999 V 142.875"
           id="path1146" />
        <path
           style="fill:none;stroke:#e3f5f5;stroke-width:0.264583px;stroke-linecap:butt;stroke-linejoin:miter;stroke-opacity:1"
           d="M 87.312502,79.374999 V 142.875"
           id="path1148" />
        <path
           style="fill:none;stroke:#e3f5f5;stroke-width:0.264583px;stroke-linecap:butt;stroke-linejoin:miter;stroke-opacity:1"
           d="M 92.604169,79.374999 V 142.875"
           id="path1150" />
        <path
           style="fill:none;stroke:#e3f5f5;stroke-width:0.264583px;stroke-linecap:butt;stroke-linejoin:miter;stroke-opacity:1"
           d="M 97.895836,79.374999 V 142.875"
           id="path1152" />
        <path
           style="fill:none;stroke:#e3f5f5;stroke-width:0.264583px;stroke-linecap:butt;stroke-linejoin:miter;stroke-opacity:1"
           d="M 103.1875,79.374999 V 142.875"
           id="path1154" />
        <path
           style="fill:none;stroke:#e3f5f5;stroke-width:0.264583px;stroke-linecap:butt;stroke-linejoin:miter;stroke-opacity:1"
           d="M 108.47917,79.374999 V 142.875"
           id="path1156" />
        <path
           style="fill:none;stroke:#e3f5f5;stroke-width:0.264583px;stroke-linecap:butt;stroke-linejoin:miter;stroke-opacity:1"
           d="M 113.77084,79.374999 V 142.875"
           id="path1158" />
        <path
           style="fill:none;stroke:#e3f5f5;stroke-width:0.264583px;stroke-linecap:butt;stroke-linejoin:miter;stroke-opacity:1"
           d="M 116.41667,82.020833 H 52.916663"
           id="path1160" />
        <path
           style="fill:none;stroke:#e3f5f5;stroke-width:0.264583px;stroke-linecap:butt;stroke-linejoin:miter;stroke-opacity:1"
           d="M 116.41667,87.3125 H 52.916663"
           id="path1162" />
        <path
           style="fill:none;stroke:#e3f5f5;stroke-width:0.264583px;stroke-linecap:butt;stroke-linejoin:miter;stroke-opacity:1"
           d="M 116.41667,92.604167 H 52.916663"
           id="path1164" />
        <path
           style="fill:none;stroke:#e3f5f5;stroke-width:0.264583px;stroke-linecap:butt;stroke-linejoin:miter;stroke-opacity:1"
           d="M 116.41667,97.895834 H 52.916663"
           id="path1166" />
        <path
           style="fill:none;stroke:#e3f5f5;stroke-width:0.264583px;stroke-linecap:butt;stroke-linejoin:miter;stroke-opacity:1"
           d="M 116.41667,103.1875 H 52.916663"
           id="path1168" />
        <path
           style="fill:none;stroke:#e3f5f5;stroke-width:0.264583px;stroke-linecap:butt;stroke-linejoin:miter;stroke-opacity:1"
           d="M 116.41667,108.47917 H 52.916663"
           id="path1170" />
        <path
           style="fill:none;stroke:#e3f5f5;stroke-width:0.264583px;stroke-linecap:butt;stroke-linejoin:miter;stroke-opacity:1"
           d="M 116.41667,113.77084 H 52.916663"
           id="path1172" />
        <path
           style="fill:none;stroke:#e3f5f5;stroke-width:0.264583px;stroke-linecap:butt;stroke-linejoin:miter;stroke-opacity:1"
           d="M 116.41667,119.06251 H 52.916663"
           id="path1174" />
        <path
           style="fill:none;stroke:#e3f5f5;stroke-width:0.264583px;stroke-linecap:butt;stroke-linejoin:miter;stroke-opacity:1"
           d="M 116.41667,124.35418 H 52.916663"
           id="path1176" />
        <path
           style="fill:none;stroke:#e3f5f5;stroke-width:0.264583px;stroke-linecap:butt;stroke-linejoin:miter;stroke-opacity:1"
           d="M 116.41667,129.64585 H 52.916663"
           id="path1178" />
        <path
           style="fill:none;stroke:#e3f5f5;stroke-width:0.264583px;stroke-linecap:butt;stroke-linejoin:miter;stroke-opacity:1"
           d="M 116.41667,134.93752 H 52.916663"
           id="path1180" />
        <path
           style="fill:none;stroke:#e3f5f5;stroke-width:0.264583px;stroke-linecap:butt;stroke-linejoin:miter;stroke-opacity:1"
           d="M 116.41667,140.22919 H 52.916663"
           id="path1182" />
        <path
           style="fill:none;stroke:#e3f5f5;stroke-width:0.529167;stroke-linecap:butt;stroke-linejoin:miter;stroke-miterlimit:4;stroke-dasharray:none;stroke-opacity:1"
           d="M 84.666666,79.374999 V 142.875"
           id="path859" />
        <path
           style="fill:none;stroke:#e3f5f5;stroke-width:0.529167;stroke-linecap:butt;stroke-linejoin:miter;stroke-miterlimit:4;stroke-dasharray:none;stroke-opacity:1"
           d="M 116.41667,111.125 H 52.916666"
           id="path941" />
      </g>
      <path
         style="fill:none;stroke:#364e59;stroke-width:0.264583;stroke-linecap:butt;stroke-linejoin:miter;stroke-miterlimit:4;stroke-dasharray:none;stroke-opacity:1"
         d="M 84.666666,111.125 113.81918,81.767116"
         id="path2077"
         sodipodi:nodetypes="cc" />
      <circle
         style="font-variation-settings:normal;opacity:1;vector-effect:none;fill:#9ade00;fill-opacity:1;fill-rule:evenodd;stroke:#364e59;stroke-width:0.264583;stroke-linecap:butt;stroke-linejoin:miter;stroke-miterlimit:4;stroke-dasharray:none;stroke-dashoffset:0;stroke-opacity:1;stop-color:#000000;stop-opacity:1"
         id="path2236"
         cx="84.666664"
         cy="111.125"
         r="0.66145831" />
      <circle
         style="font-variation-settings:normal;opacity:1;vector-effect:none;fill:#ff4141;fill-opacity:1;fill-rule:evenodd;stroke:#364e59;stroke-width:0.264583;stroke-linecap:butt;stroke-linejoin:miter;stroke-miterlimit:4;stroke-dasharray:none;stroke-dashoffset:0;stroke-opacity:1;stop-color:#000000;stop-opacity:1"
         id="circle2426"
         cx="113.77084"
         cy="82.020836"
         r="0.66145831" />
      <g
         id="g2796"
         transform="translate(42.821967,6.6528)">
        <path
           style="fill:#000000;fill-opacity:1;stroke:none;stroke-width:0"
           d="m 33.927176,103.94866 c 0,-0.011 0,-0.0165 -0.06059,-0.0771 -0.435115,-0.44062 -0.550778,-1.10706 -0.550778,-1.64683 0,-0.61136 0.132186,-1.22272 0.567301,-1.65784 0.04406,-0.0441 0.04406,-0.0496 0.04406,-0.0606 0,-0.0275 -0.01102,-0.0386 -0.03305,-0.0386 -0.03856,0 -0.352498,0.24234 -0.561794,0.68847 -0.176249,0.38555 -0.220312,0.7766 -0.220312,1.06851 0,0.27539 0.03856,0.69949 0.231327,1.10156 0.214804,0.42961 0.512224,0.66094 0.550779,0.66094 0.02203,0 0.03305,-0.011 0.03305,-0.0386 z m 0,0"
           id="id-e7471147-d725-4619-95ab-86ce97285343" />
        <path
           style="fill:#000000;fill-opacity:1;stroke:none;stroke-width:0"
           d="m 35.744392,101.98238 c 0,-0.2809 -0.01652,-0.56179 -0.137695,-0.82066 -0.159725,-0.34148 -0.451638,-0.39656 -0.59484,-0.39656 -0.214804,0 -0.468162,0.0936 -0.616872,0.41859 -0.110156,0.24235 -0.126679,0.51773 -0.126679,0.79863 0,0.26438 0.01102,0.57832 0.159725,0.8482 0.148711,0.2809 0.407577,0.3525 0.578318,0.3525 0.187265,0 0.457146,-0.0716 0.611364,-0.40758 0.110156,-0.24234 0.126679,-0.51773 0.126679,-0.79312 z m -0.738043,1.12359 c -0.137695,0 -0.346991,-0.0881 -0.407576,-0.4241 -0.03856,-0.2093 -0.03856,-0.53425 -0.03856,-0.74355 0,-0.22582 0,-0.45715 0.02754,-0.64441 0.06609,-0.41859 0.330467,-0.45164 0.418592,-0.45164 0.115663,0 0.34699,0.0661 0.413084,0.41308 0.03855,0.19828 0.03855,0.46266 0.03855,0.68297 0,0.26437 0,0.50121 -0.03855,0.72703 -0.05508,0.33597 -0.253358,0.44062 -0.413084,0.44062 z m 0,0"
           id="id-a57b3d77-b150-43e5-ba4b-479a0e9dcbce" />
        <path
           style="fill:#000000;fill-opacity:1;stroke:none;stroke-width:0"
           d="m 36.602769,103.10046 c 0,-0.23132 -0.08812,-0.36902 -0.225819,-0.36902 -0.115664,0 -0.187265,0.0881 -0.187265,0.18727 0,0.0936 0.0716,0.18726 0.187265,0.18726 0.03855,0 0.08812,-0.0165 0.121171,-0.0441 0.01102,-0.011 0.01652,-0.011 0.01652,-0.011 0.0055,0 0.0055,0 0.0055,0.0496 0,0.26438 -0.121171,0.47367 -0.236834,0.58934 -0.03856,0.0386 -0.03856,0.0441 -0.03856,0.0551 0,0.0275 0.01652,0.0386 0.03305,0.0386 0.03855,0 0.324959,-0.26988 0.324959,-0.68297 z m 0,0"
           id="id-4a59e0c5-6589-4fd7-a10a-716bfb3d0292" />
        <path
           style="fill:#000000;fill-opacity:1;stroke:none;stroke-width:0"
           d="m 39.061401,101.98238 c 0,-0.2809 -0.01652,-0.56179 -0.137695,-0.82066 -0.159725,-0.34148 -0.451638,-0.39656 -0.59484,-0.39656 -0.214804,0 -0.468162,0.0936 -0.616872,0.41859 -0.110156,0.24235 -0.126679,0.51773 -0.126679,0.79863 0,0.26438 0.01102,0.57832 0.159725,0.8482 0.148711,0.2809 0.407576,0.3525 0.578318,0.3525 0.187265,0 0.457146,-0.0716 0.611364,-0.40758 0.110156,-0.24234 0.126679,-0.51773 0.126679,-0.79312 z m -0.738043,1.12359 c -0.137695,0 -0.346991,-0.0881 -0.407576,-0.4241 -0.03856,-0.2093 -0.03856,-0.53425 -0.03856,-0.74355 0,-0.22582 0,-0.45715 0.02754,-0.64441 0.06609,-0.41859 0.330467,-0.45164 0.418592,-0.45164 0.115663,0 0.34699,0.0661 0.413084,0.41308 0.03855,0.19828 0.03855,0.46266 0.03855,0.68297 0,0.26437 0,0.50121 -0.03855,0.72703 -0.05508,0.33597 -0.253358,0.44062 -0.413084,0.44062 z m 0,0"
           id="id-e605da58-ba06-4874-bfac-5c230e71d406" />
        <path
           style="fill:#000000;fill-opacity:1;stroke:none;stroke-width:0"
           d="m 40.216845,102.22472 c 0,-0.26988 -0.03855,-0.69398 -0.231327,-1.09604 -0.209295,-0.42961 -0.512224,-0.66094 -0.54527,-0.66094 -0.02203,0 -0.03855,0.0165 -0.03855,0.0386 0,0.011 0,0.0165 0.06609,0.0826 0.34699,0.34699 0.54527,0.90328 0.54527,1.63581 0,0.60586 -0.126679,1.22273 -0.561794,1.66336 -0.04957,0.0441 -0.04957,0.0496 -0.04957,0.0606 0,0.022 0.01652,0.0386 0.03855,0.0386 0.03305,0 0.352498,-0.24235 0.556286,-0.68848 0.181757,-0.38554 0.220311,-0.7766 0.220311,-1.07402 z m 0,0"
           id="id-277d1606-8304-49a1-aa23-4016cdde2fdb" />
      </g>
      <g
         id="g2803"
         transform="translate(63.5,-22.225001)">
        <path
           style="fill:#000000;fill-opacity:1;stroke:none;stroke-width:0"
           d="m 41.731487,103.94866 c 0,-0.011 0,-0.0165 -0.06059,-0.0771 -0.435115,-0.44062 -0.550778,-1.10706 -0.550778,-1.64683 0,-0.61136 0.132186,-1.22272 0.567301,-1.65784 0.04406,-0.0441 0.04406,-0.0496 0.04406,-0.0606 0,-0.0275 -0.01102,-0.0386 -0.03305,-0.0386 -0.03855,0 -0.352498,0.24234 -0.561794,0.68847 -0.176249,0.38555 -0.220312,0.7766 -0.220312,1.06851 0,0.27539 0.03856,0.69949 0.231327,1.10156 0.214804,0.42961 0.512224,0.66094 0.550779,0.66094 0.02203,0 0.03305,-0.011 0.03305,-0.0386 z m 0,0"
           id="id-d118a415-9f26-43fa-b949-172b39e33d9f" />
        <path
           style="fill:#000000;fill-opacity:1;stroke:none;stroke-width:0"
           d="m 42.243358,102.89667 c -0.01102,0.0551 -0.03305,0.1377 -0.03305,0.15422 0,0.0606 0.04957,0.0936 0.104648,0.0936 0.04406,0 0.104648,-0.0275 0.132187,-0.0991 0,-0.005 0.04406,-0.17074 0.06609,-0.25886 l 0.07711,-0.31395 c 0.01652,-0.0826 0.03856,-0.15972 0.06059,-0.23683 0.01102,-0.0606 0.03856,-0.16523 0.04406,-0.17625 0.04957,-0.11015 0.236835,-0.42961 0.57281,-0.42961 0.159726,0 0.187265,0.13219 0.187265,0.24785 0,0.21481 -0.170742,0.66645 -0.225819,0.81516 -0.03305,0.0826 -0.03856,0.12668 -0.03856,0.16523 0,0.16523 0.126679,0.2864 0.291913,0.2864 0.330467,0 0.457146,-0.51222 0.457146,-0.53976 0,-0.0386 -0.02754,-0.0386 -0.03856,-0.0386 -0.03855,0 -0.03855,0.011 -0.05508,0.0661 -0.0716,0.23684 -0.187264,0.43512 -0.358006,0.43512 -0.06059,0 -0.08262,-0.0331 -0.08262,-0.11567 0,-0.0881 0.02754,-0.17074 0.06058,-0.24785 0.06609,-0.18726 0.214804,-0.57281 0.214804,-0.7766 0,-0.23132 -0.14871,-0.37453 -0.402068,-0.37453 -0.319452,0 -0.490193,0.22582 -0.550779,0.30844 -0.01652,-0.19828 -0.159726,-0.30844 -0.324959,-0.30844 -0.159726,0 -0.225819,0.1377 -0.258866,0.19828 -0.06059,0.12118 -0.104648,0.33047 -0.104648,0.34149 0,0.0386 0.03305,0.0386 0.03855,0.0386 0.03855,0 0.03855,-0.006 0.06059,-0.0826 0.06059,-0.24786 0.132187,-0.4186 0.258866,-0.4186 0.06609,0 0.104648,0.0441 0.104648,0.15973 0,0.0771 -0.01102,0.11566 -0.05508,0.29742 z m 0,0"
           id="id-a2dec824-e870-4fe2-92fe-01621dd18d01" />
        <path
           style="fill:#000000;fill-opacity:1;stroke:none;stroke-width:0"
           d="m 44.758874,103.10046 c 0,-0.23132 -0.08812,-0.36902 -0.225819,-0.36902 -0.115664,0 -0.187265,0.0881 -0.187265,0.18727 0,0.0936 0.0716,0.18726 0.187265,0.18726 0.03855,0 0.08812,-0.0165 0.121171,-0.0441 0.01102,-0.011 0.01652,-0.011 0.01652,-0.011 0.0055,0 0.0055,0 0.0055,0.0496 0,0.26438 -0.121171,0.47367 -0.236834,0.58934 -0.03855,0.0386 -0.03855,0.0441 -0.03855,0.0551 0,0.0275 0.01652,0.0386 0.03305,0.0386 0.03855,0 0.324959,-0.26988 0.324959,-0.68297 z m 0,0"
           id="id-14bc40da-aaac-488e-a481-e21a6d90af95" />
        <path
           style="fill:#000000;fill-opacity:1;stroke:none;stroke-width:0"
           d="m 45.913218,102.89667 c -0.01102,0.0551 -0.03305,0.1377 -0.03305,0.15422 0,0.0606 0.04957,0.0936 0.104648,0.0936 0.04406,0 0.104648,-0.0275 0.132187,-0.0991 0,-0.005 0.04406,-0.17074 0.06609,-0.25886 l 0.07711,-0.31395 c 0.01652,-0.0826 0.03856,-0.15972 0.06059,-0.23683 0.01102,-0.0606 0.03856,-0.16523 0.04406,-0.17625 0.04957,-0.11015 0.236835,-0.42961 0.57281,-0.42961 0.159726,0 0.187265,0.13219 0.187265,0.24785 0,0.21481 -0.170742,0.66645 -0.225819,0.81516 -0.03305,0.0826 -0.03856,0.12668 -0.03856,0.16523 0,0.16523 0.126679,0.2864 0.291913,0.2864 0.330467,0 0.457146,-0.51222 0.457146,-0.53976 0,-0.0386 -0.02754,-0.0386 -0.03856,-0.0386 -0.03855,0 -0.03855,0.011 -0.05508,0.0661 -0.0716,0.23684 -0.187264,0.43512 -0.358006,0.43512 -0.06059,0 -0.08262,-0.0331 -0.08262,-0.11567 0,-0.0881 0.02754,-0.17074 0.06058,-0.24785 0.06609,-0.18726 0.214804,-0.57281 0.214804,-0.7766 0,-0.23132 -0.14871,-0.37453 -0.402068,-0.37453 -0.319452,0 -0.490193,0.22582 -0.550779,0.30844 -0.01652,-0.19828 -0.159726,-0.30844 -0.324959,-0.30844 -0.159726,0 -0.225819,0.1377 -0.258866,0.19828 -0.06059,0.12118 -0.104648,0.33047 -0.104648,0.34149 0,0.0386 0.03305,0.0386 0.03855,0.0386 0.03855,0 0.03855,-0.006 0.06059,-0.0826 0.06059,-0.24786 0.132187,-0.4186 0.258866,-0.4186 0.06609,0 0.104648,0.0441 0.104648,0.15973 0,0.0771 -0.01102,0.11566 -0.05508,0.29742 z m 0,0"
           id="id-f221b28a-65d4-4b35-aba7-9155c5f8eb00" />
        <path
           style="fill:#000000;fill-opacity:1;stroke:none;stroke-width:0"
           d="m 48.725096,102.22472 c 0,-0.26988 -0.03855,-0.69398 -0.231327,-1.09604 -0.209295,-0.42961 -0.512224,-0.66094 -0.54527,-0.66094 -0.02203,0 -0.03855,0.0165 -0.03855,0.0386 0,0.011 0,0.0165 0.06609,0.0826 0.34699,0.34699 0.54527,0.90328 0.54527,1.63581 0,0.60586 -0.126679,1.22273 -0.561794,1.66336 -0.04957,0.0441 -0.04957,0.0496 -0.04957,0.0606 0,0.022 0.01652,0.0386 0.03855,0.0386 0.03305,0 0.352498,-0.24235 0.556286,-0.68848 0.181757,-0.38554 0.220311,-0.7766 0.220311,-1.07402 z m 0,0"
           id="id-f3969b3d-986d-4445-8239-30b5044cd8ec" />
      </g>
    </g>
  </g>
</svg>
