<?xml version="1.0" encoding="UTF-8" standalone="no"?>
<!-- Created with Inkscape (http://www.inkscape.org/) -->

<svg
   width="45.60519mm"
   height="32.259007mm"
   viewBox="0 0 45.60519 32.259007"
   version="1.1"
   id="svg5"
   xmlns="http://www.w3.org/2000/svg"
   xmlns:svg="http://www.w3.org/2000/svg">
  <defs
     id="defs2">
    <marker
       style="overflow:visible"
       id="DotM"
       refX="0"
       refY="0"
       orient="auto">
      <path
         transform="matrix(0.4,0,0,0.4,2.96,0.4)"
         style="fill:context-stroke;fill-rule:evenodd;stroke:context-stroke;stroke-width:1pt"
         d="m -2.5,-1 c 0,2.76 -2.24,5 -5,5 -2.76,0 -5,-2.24 -5,-5 0,-2.76 2.24,-5 5,-5 2.76,0 5,2.24 5,5 z"
         id="path1005" />
    </marker>
    <defs
       id="id-cefc22cc-aac8-4a61-b096-141f2773e238">
      <g
         id="id-970a7f2f-3cb1-4728-9fb8-6cb202402619">
        <symbol
           overflow="visible"
           id="id-92e1499d-f021-4b51-a89b-c8ff62f74121">
          <path
             style="stroke:none;stroke-width:0"
             d=""
             id="id-25b75eff-d78a-496e-8a9f-fa133f7ecbbd" />
        </symbol>
        <symbol
           overflow="visible"
           id="id-26e8b8d3-b0ef-4e8d-a1fa-96dc4224efa7">
          <path
             style="stroke:none;stroke-width:0"
             d="M 3.71875,-3.765625 C 3.53125,-4.140625 3.25,-4.40625 2.796875,-4.40625 c -1.15625,0 -2.390625,1.46875 -2.390625,2.921875 0,0.9375 0.546875,1.59375 1.3125,1.59375 0.203125,0 0.703125,-0.046875 1.296875,-0.75 0.078125,0.421875 0.4375,0.75 0.90625,0.75 0.359375,0 0.578125,-0.234375 0.75,-0.546875 0.15625,-0.359375 0.296875,-0.96875 0.296875,-0.984375 0,-0.109375 -0.09375,-0.109375 -0.125,-0.109375 -0.09375,0 -0.109375,0.046875 -0.140625,0.1875 -0.171875,0.640625 -0.34375,1.234375 -0.75,1.234375 -0.28125,0 -0.296875,-0.265625 -0.296875,-0.453125 0,-0.21875 0.015625,-0.3125 0.125,-0.75 C 3.890625,-1.71875 3.90625,-1.828125 4,-2.203125 L 4.359375,-3.59375 c 0.0625,-0.28125 0.0625,-0.296875 0.0625,-0.34375 0,-0.171875 -0.109375,-0.265625 -0.28125,-0.265625 -0.25,0 -0.390625,0.21875 -0.421875,0.4375 z M 3.078125,-1.1875 C 3.015625,-1 3.015625,-0.984375 2.875,-0.8125 2.4375,-0.265625 2.03125,-0.109375 1.75,-0.109375 c -0.5,0 -0.640625,-0.546875 -0.640625,-0.9375 0,-0.5 0.3125,-1.71875 0.546875,-2.1875 0.3125,-0.578125 0.75,-0.953125 1.15625,-0.953125 0.640625,0 0.78125,0.8125 0.78125,0.875 0,0.0625 -0.015625,0.125 -0.03125,0.171875 z m 0,0"
             id="id-638efaa9-896c-425b-80e0-4da39cc8ec3d" />
        </symbol>
        <symbol
           overflow="visible"
           id="id-c8ff078e-f553-4703-b335-5fc57fb95e15">
          <path
             style="stroke:none;stroke-width:0"
             d="m 2.375,-6.8125 c 0,0 0,-0.109375 -0.125,-0.109375 -0.21875,0 -0.953125,0.078125 -1.21875,0.109375 -0.078125,0 -0.1875,0.015625 -0.1875,0.1875 0,0.125 0.09375,0.125 0.25,0.125 0.46875,0 0.484375,0.0625 0.484375,0.171875 0,0.0625 -0.078125,0.40625 -0.125,0.609375 l -0.828125,3.25 c -0.109375,0.5 -0.15625,0.671875 -0.15625,1.015625 0,0.9375 0.53125,1.5625 1.265625,1.5625 1.171875,0 2.40625,-1.484375 2.40625,-2.921875 0,-0.90625 -0.53125,-1.59375 -1.328125,-1.59375 -0.453125,0 -0.875,0.296875 -1.171875,0.59375 z M 1.453125,-3.046875 C 1.5,-3.265625 1.5,-3.28125 1.59375,-3.390625 2.078125,-4.03125 2.53125,-4.1875 2.796875,-4.1875 c 0.359375,0 0.625,0.296875 0.625,0.9375 0,0.59375 -0.328125,1.734375 -0.515625,2.109375 -0.328125,0.671875 -0.78125,1.03125 -1.171875,1.03125 -0.34375,0 -0.671875,-0.265625 -0.671875,-1 0,-0.203125 0,-0.390625 0.15625,-1.015625 z m 0,0"
             id="id-149c5415-9a84-4380-ab66-14cc301ba97b" />
        </symbol>
        <symbol
           overflow="visible"
           id="id-48412ab4-dfa9-4632-9906-b5bd6169a1d7">
          <path
             style="stroke:none;stroke-width:0"
             d="m 3.953125,-3.78125 c -0.171875,0 -0.296875,0 -0.4375,0.125 -0.171875,0.15625 -0.1875,0.328125 -0.1875,0.390625 0,0.25 0.1875,0.359375 0.375,0.359375 0.28125,0 0.546875,-0.25 0.546875,-0.640625 0,-0.484375 -0.46875,-0.859375 -1.171875,-0.859375 -1.34375,0 -2.671875,1.421875 -2.671875,2.828125 0,0.90625 0.578125,1.6875 1.625,1.6875 1.421875,0 2.25,-1.0625 2.25,-1.171875 0,-0.0625 -0.046875,-0.140625 -0.109375,-0.140625 -0.0625,0 -0.078125,0.03125 -0.140625,0.109375 -0.78125,0.984375 -1.875,0.984375 -1.984375,0.984375 -0.625,0 -0.90625,-0.484375 -0.90625,-1.09375 0,-0.40625 0.203125,-1.375 0.546875,-1.984375 0.3125,-0.578125 0.859375,-1 1.40625,-1 0.328125,0 0.71875,0.125 0.859375,0.40625 z m 0,0"
             id="id-0a21f7cd-db4d-446e-88ac-09840773662d" />
        </symbol>
        <symbol
           overflow="visible"
           id="id-37886b35-bad4-41a9-bfff-3017f62960bf">
          <path
             style="stroke:none;stroke-width:0"
             d="m 5.140625,-6.8125 c 0,0 0,-0.109375 -0.125,-0.109375 -0.15625,0 -1.09375,0.09375 -1.265625,0.109375 -0.078125,0.015625 -0.140625,0.0625 -0.140625,0.1875 0,0.125 0.09375,0.125 0.234375,0.125 0.484375,0 0.5,0.0625 0.5,0.171875 L 4.3125,-6.125 3.71875,-3.765625 C 3.53125,-4.140625 3.25,-4.40625 2.796875,-4.40625 c -1.15625,0 -2.390625,1.46875 -2.390625,2.921875 0,0.9375 0.546875,1.59375 1.3125,1.59375 0.203125,0 0.703125,-0.046875 1.296875,-0.75 0.078125,0.421875 0.4375,0.75 0.90625,0.75 0.359375,0 0.578125,-0.234375 0.75,-0.546875 0.15625,-0.359375 0.296875,-0.96875 0.296875,-0.984375 0,-0.109375 -0.09375,-0.109375 -0.125,-0.109375 -0.09375,0 -0.109375,0.046875 -0.140625,0.1875 -0.171875,0.640625 -0.34375,1.234375 -0.75,1.234375 -0.28125,0 -0.296875,-0.265625 -0.296875,-0.453125 0,-0.25 0.015625,-0.3125 0.046875,-0.484375 z m -2.0625,5.625 C 3.015625,-1 3.015625,-0.984375 2.875,-0.8125 2.4375,-0.265625 2.03125,-0.109375 1.75,-0.109375 c -0.5,0 -0.640625,-0.546875 -0.640625,-0.9375 0,-0.5 0.3125,-1.71875 0.546875,-2.1875 0.3125,-0.578125 0.75,-0.953125 1.15625,-0.953125 0.640625,0 0.78125,0.8125 0.78125,0.875 0,0.0625 -0.015625,0.125 -0.03125,0.171875 z m 0,0"
             id="id-a92c97ae-7bdc-4be6-af7f-94d05f46d4b1" />
        </symbol>
        <symbol
           overflow="visible"
           id="id-97180ce7-27d3-4bce-ac32-b4fd628c0a59">
          <path
             style="stroke:none;stroke-width:0"
             d="m 1.859375,-2.296875 c 0.296875,0 1.03125,-0.03125 1.53125,-0.234375 0.703125,-0.296875 0.75,-0.890625 0.75,-1.03125 0,-0.4375 -0.375,-0.84375 -1.0625,-0.84375 -1.109375,0 -2.625,0.96875 -2.625,2.71875 0,1.015625 0.59375,1.796875 1.578125,1.796875 1.421875,0 2.25,-1.0625 2.25,-1.171875 0,-0.0625 -0.046875,-0.140625 -0.109375,-0.140625 -0.0625,0 -0.078125,0.03125 -0.140625,0.109375 -0.78125,0.984375 -1.875,0.984375 -1.984375,0.984375 -0.78125,0 -0.875,-0.84375 -0.875,-1.15625 0,-0.125 0.015625,-0.421875 0.15625,-1.03125 z m -0.46875,-0.21875 C 1.78125,-4.03125 2.8125,-4.1875 3.078125,-4.1875 c 0.453125,0 0.734375,0.296875 0.734375,0.625 0,1.046875 -1.59375,1.046875 -2.015625,1.046875 z m 0,0"
             id="id-e90a1e3c-1583-434b-9c4e-076e3a5a3af5" />
        </symbol>
        <symbol
           overflow="visible"
           id="id-f39e0c96-6a50-4546-913a-06375775bc50">
          <path
             style="stroke:none;stroke-width:0"
             d="m 3.65625,-3.984375 h 0.859375 c 0.203125,0 0.296875,0 0.296875,-0.203125 0,-0.109375 -0.09375,-0.109375 -0.265625,-0.109375 H 3.71875 L 3.921875,-5.4375 c 0.046875,-0.203125 0.1875,-0.90625 0.25,-1.03125 0.078125,-0.1875 0.25,-0.34375 0.46875,-0.34375 0.03125,0 0.296875,0 0.484375,0.1875 -0.4375,0.03125 -0.546875,0.390625 -0.546875,0.53125 0,0.234375 0.1875,0.359375 0.375,0.359375 C 5.21875,-5.734375 5.5,-5.96875 5.5,-6.34375 c 0,-0.453125 -0.453125,-0.6875 -0.859375,-0.6875 -0.34375,0 -0.96875,0.1875 -1.265625,1.171875 -0.0625,0.203125 -0.09375,0.3125 -0.328125,1.5625 h -0.6875 c -0.203125,0 -0.3125,0 -0.3125,0.1875 0,0.125 0.09375,0.125 0.28125,0.125 h 0.65625 L 2.25,-0.046875 c -0.1875,0.96875 -0.359375,1.875 -0.875,1.875 -0.046875,0 -0.28125,0 -0.484375,-0.1875 C 1.359375,1.609375 1.453125,1.25 1.453125,1.109375 1.453125,0.875 1.265625,0.75 1.078125,0.75 0.8125,0.75 0.53125,0.984375 0.53125,1.359375 c 0,0.4375 0.4375,0.6875 0.84375,0.6875 0.546875,0 0.953125,-0.59375 1.125,-0.96875 0.328125,-0.625 0.546875,-1.828125 0.5625,-1.90625 z m 0,0"
             id="id-9f75541a-9422-4863-868e-0d5c38551d06" />
        </symbol>
      </g>
    </defs>
  </defs>
  <g
     id="layer1"
     transform="translate(-64.452424,-116.18243)">
    <g
       id="g3624">
      <g
         id="g1623">
        <path
           style="color:#000000;fill:#000000;-inkscape-stroke:none"
           d="M 95.017578,121.70898 V 142.875 h 0.464844 v -21.16602 z"
           id="path1244" />
        <path
           style="color:#000000;fill:#000000;-inkscape-stroke:none"
           d="m 95.064453,121.56836 -15.875,21.16797 0.371094,0.27734 15.875,-21.16601 z"
           id="path1258" />
        <path
           style="color:#000000;fill:#000000;-inkscape-stroke:none"
           d="m 105.74609,132.07617 -26.457028,10.58203 0.171875,0.4336 26.458983,-10.58399 z"
           id="path1254" />
        <path
           style="color:#000000;fill:#000000;-inkscape-stroke:none"
           d="m 68.791016,132.05859 v 0.46485 h 37.042964 v -0.46485 z"
           id="path1248" />
        <path
           style="color:#000000;fill:#000000;-inkscape-stroke:none"
           d="m 95.164062,121.49219 -26.998046,10.79883 26.998046,10.80078 0.171875,-0.4336 -25.917968,-10.36718 25.917968,-10.36719 z"
           id="path1252" />
        <path
           style="color:#000000;fill:#000000;-inkscape-stroke:none"
           d="m 79.460937,121.49219 -0.171875,0.43164 26.457028,10.58398 0.17383,-0.43164 z"
           id="path1250" />
        <path
           style="color:#000000;fill:#000000;-inkscape-stroke:none"
           d="m 79.560547,121.56836 -0.371094,0.2793 15.875,21.16601 0.371094,-0.27734 z"
           id="path1256" />
        <path
           style="color:#000000;fill:#000000;-inkscape-stroke:none"
           d="M 79.142578,121.70898 V 142.875 h 0.464844 v -21.16602 z"
           id="path1246" />
        <g
           id="path859">
          <path
             style="color:#000000;fill:#000000;-inkscape-stroke:none"
             d="m 79.279297,121.47656 -0.06836,0.0664 -10.748046,10.74805 10.816406,10.8164 h 16.066406 l 10.816407,-10.8164 -10.816407,-10.81446 z m 0.191406,0.46485 h 15.683594 l 10.349613,10.34961 -10.349613,10.35156 H 79.470703 L 69.121094,132.29102 Z"
             id="path1689" />
          <g
             id="g1627">
            <g
               id="path1679">
              <path
                 style="color:#000000;fill:#000000;fill-rule:evenodd;-inkscape-stroke:none"
                 d="m 68.791016,131.25586 c -0.580452,0 -1.052735,0.47424 -1.052735,1.05469 0,0.58045 0.472283,1.05468 1.052735,1.05468 0.580451,0 1.054687,-0.47423 1.054687,-1.05468 0,-0.58045 -0.474236,-1.05469 -1.054687,-1.05469 z m 0,0.24805 c 0.446267,0 0.80664,0.36037 0.80664,0.80664 0,0.44626 -0.360373,0.80664 -0.80664,0.80664 -0.446268,0 -0.804688,-0.36038 -0.804688,-0.80664 0,-0.44627 0.35842,-0.80664 0.804688,-0.80664 z"
                 id="path1685" />
              <path
                 style="color:#000000;fill:#f5c211;fill-rule:evenodd;stroke-width:0.186pt;-inkscape-stroke:none"
                 d="m 68.791666,131.38026 c 0.51336,0 0.93,0.41664 0.93,0.93 0,0.51336 -0.41664,0.93 -0.93,0.93 -0.51336,0 -0.93,-0.41664 -0.93,-0.93 0,-0.51336 0.41664,-0.93 0.93,-0.93 z"
                 id="path1683" />
            </g>
            <g
               id="path1669">
              <path
                 style="color:#000000;fill:#000000;fill-rule:evenodd;-inkscape-stroke:none"
                 d="m 78.988281,141.9082 c -0.249479,0.10334 -0.459247,0.30218 -0.570312,0.57032 -0.222129,0.53626 0.03405,1.15481 0.570312,1.37695 0.536267,0.22212 1.154825,-0.034 1.376953,-0.57031 0.222131,-0.53627 -0.03404,-1.15483 -0.570312,-1.37696 -0.268133,-0.11106 -0.557161,-0.10333 -0.806641,0 z m 0.712891,0.22852 c 0.412296,0.17077 0.606326,0.64239 0.435547,1.05469 -0.17078,0.4123 -0.640436,0.60632 -1.052735,0.43554 -0.412297,-0.17078 -0.606325,-0.64044 -0.435547,-1.05273 0.17078,-0.4123 0.640436,-0.60828 1.052735,-0.4375 z"
                 id="path1675" />
              <path
                 style="color:#000000;fill:#f5c211;fill-rule:evenodd;stroke-width:0.186pt;-inkscape-stroke:none"
                 d="m 78.532975,142.52622 c 0.196455,-0.47428 0.740821,-0.69976 1.215104,-0.50331 0.474283,0.19645 0.699767,0.74082 0.503312,1.2151 -0.196454,0.47429 -0.740821,0.69977 -1.215104,0.50332 -0.474282,-0.19646 -0.699766,-0.74083 -0.503312,-1.21511 z"
                 id="path1673" />
            </g>
            <g
               id="path1659">
              <path
                 style="color:#000000;fill:#000000;fill-rule:evenodd;-inkscape-stroke:none"
                 d="m 94.863281,141.89453 c -0.536265,0.22214 -0.792441,0.84069 -0.570312,1.37695 0.222128,0.5363 0.84069,0.79244 1.376953,0.57032 0.536267,-0.22213 0.792443,-0.84069 0.570312,-1.37696 -0.222126,-0.5363 -0.84069,-0.79243 -1.376953,-0.57031 z m 0.0957,0.22852 c 0.412303,-0.17078 0.881954,0.0232 1.052735,0.43554 0.170779,0.4123 -0.02325,0.88392 -0.435547,1.05469 -0.412303,0.17078 -0.881953,-0.0252 -1.052735,-0.4375 -0.170778,-0.41229 0.02325,-0.88195 0.435547,-1.05273 z"
                 id="path1665" />
              <path
                 style="color:#000000;fill:#f5c211;fill-rule:evenodd;stroke-width:0.186pt;-inkscape-stroke:none"
                 d="m 94.407975,143.22378 c -0.196454,-0.47428 0.02903,-1.01865 0.503312,-1.21511 0.474283,-0.19645 1.01865,0.029 1.215104,0.50332 0.196455,0.47428 -0.02903,1.01865 -0.503312,1.2151 -0.474283,0.19645 -1.018649,-0.029 -1.215104,-0.50331 z"
                 id="path1663" />
            </g>
            <g
               id="path1649">
              <path
                 style="color:#000000;fill:#000000;fill-rule:evenodd;-inkscape-stroke:none"
                 d="m 105.83398,131.21875 c -0.58045,0 -1.05468,0.47424 -1.05468,1.05469 0,0.58045 0.47423,1.05273 1.05468,1.05273 0.58046,0 1.05274,-0.47228 1.05274,-1.05273 0,-0.58045 -0.47228,-1.05469 -1.05274,-1.05469 z m 0,0.24805 c 0.44627,0 0.80469,0.36037 0.80469,0.80664 0,0.44627 -0.35842,0.80468 -0.80469,0.80468 -0.44626,0 -0.80664,-0.35841 -0.80664,-0.80468 0,-0.44627 0.36038,-0.80664 0.80664,-0.80664 z"
                 id="path1655" />
              <path
                 style="color:#000000;fill:#f5c211;fill-rule:evenodd;stroke-width:0.186pt;-inkscape-stroke:none"
                 d="m 105.83333,133.20306 c -0.51336,0 -0.93,-0.41664 -0.93,-0.93 0,-0.51336 0.41664,-0.93 0.93,-0.93 0.51336,0 0.93,0.41664 0.93,0.93 0,0.51336 -0.41664,0.93 -0.93,0.93 z"
                 id="path1653" />
            </g>
            <g
               id="path1639">
              <path
                 style="color:#000000;fill:#000000;fill-rule:evenodd;-inkscape-stroke:none"
                 d="m 95.636719,120.72656 c -0.536266,-0.22212 -1.154825,0.036 -1.376953,0.57227 -0.222129,0.53626 0.03404,1.15483 0.570312,1.37695 0.536267,0.22213 1.154823,-0.0341 1.376953,-0.57031 0.222128,-0.53627 -0.03405,-1.15677 -0.570312,-1.37891 z m -0.0957,0.23047 c 0.4123,0.17079 0.606326,0.64043 0.435546,1.05274 -0.170779,0.41229 -0.640435,0.60632 -1.052734,0.43554 -0.412296,-0.17077 -0.606325,-0.64044 -0.435547,-1.05273 0.17078,-0.41231 0.640437,-0.60632 1.052735,-0.43555 z"
                 id="path1645" />
              <path
                 style="color:#000000;fill:#f5c211;fill-rule:evenodd;stroke-width:0.186pt;-inkscape-stroke:none"
                 d="m 96.092023,122.05711 c -0.196455,0.47428 -0.740821,0.69976 -1.215104,0.50331 -0.474283,-0.19645 -0.699766,-0.74082 -0.503312,-1.2151 0.196454,-0.47429 0.740821,-0.69977 1.215103,-0.50332 0.474283,0.19646 0.699767,0.74082 0.503313,1.21511 z"
                 id="path1643" />
            </g>
            <g
               id="path1629">
              <path
                 style="color:#000000;fill:#000000;fill-rule:evenodd;-inkscape-stroke:none"
                 d="m 79.355469,120.6543 c -0.580451,0 -1.052735,0.47423 -1.052735,1.05468 0,0.58046 0.472284,1.05274 1.052735,1.05274 0.580451,0 1.054687,-0.47228 1.054687,-1.05274 0,-0.58045 -0.474236,-1.05468 -1.054687,-1.05468 z m 0,0.24804 c 0.446268,0 0.80664,0.36038 0.80664,0.80664 0,0.44627 -0.360372,0.80469 -0.80664,0.80469 -0.446268,0 -0.804688,-0.35842 -0.804688,-0.80469 0,-0.44626 0.35842,-0.80664 0.804688,-0.80664 z"
                 id="path1635" />
              <path
                 style="color:#000000;fill:#f5c211;fill-rule:evenodd;stroke-width:0.186pt;-inkscape-stroke:none"
                 d="m 80.286399,121.70833 c 0,0.51336 -0.41664,0.93 -0.93,0.93 -0.51336,0 -0.93,-0.41664 -0.93,-0.93 0,-0.51336 0.41664,-0.93 0.93,-0.93 0.51336,0 0.93,0.41664 0.93,0.93 z"
                 id="path1633" />
            </g>
          </g>
        </g>
      </g>
      <g
         transform="matrix(0.47808538,0,0,0.47808538,78.175847,119.26222)"
         id="g1387"
         style="fill:#000000;fill-opacity:1">
        <path
           style="stroke:none;stroke-width:0"
           d="M 3.71875,-3.765625 C 3.53125,-4.140625 3.25,-4.40625 2.796875,-4.40625 c -1.15625,0 -2.390625,1.46875 -2.390625,2.921875 0,0.9375 0.546875,1.59375 1.3125,1.59375 0.203125,0 0.703125,-0.046875 1.296875,-0.75 0.078125,0.421875 0.4375,0.75 0.90625,0.75 0.359375,0 0.578125,-0.234375 0.75,-0.546875 0.15625,-0.359375 0.296875,-0.96875 0.296875,-0.984375 0,-0.109375 -0.09375,-0.109375 -0.125,-0.109375 -0.09375,0 -0.109375,0.046875 -0.140625,0.1875 -0.171875,0.640625 -0.34375,1.234375 -0.75,1.234375 -0.28125,0 -0.296875,-0.265625 -0.296875,-0.453125 0,-0.21875 0.015625,-0.3125 0.125,-0.75 C 3.890625,-1.71875 3.90625,-1.828125 4,-2.203125 L 4.359375,-3.59375 c 0.0625,-0.28125 0.0625,-0.296875 0.0625,-0.34375 0,-0.171875 -0.109375,-0.265625 -0.28125,-0.265625 -0.25,0 -0.390625,0.21875 -0.421875,0.4375 z M 3.078125,-1.1875 C 3.015625,-1 3.015625,-0.984375 2.875,-0.8125 2.4375,-0.265625 2.03125,-0.109375 1.75,-0.109375 c -0.5,0 -0.640625,-0.546875 -0.640625,-0.9375 0,-0.5 0.3125,-1.71875 0.546875,-2.1875 0.3125,-0.578125 0.75,-0.953125 1.15625,-0.953125 0.640625,0 0.78125,0.8125 0.78125,0.875 0,0.0625 -0.015625,0.125 -0.03125,0.171875 z m 0,0"
           id="id-60204970-86d2-4d19-b44e-5be698ec2e18" />
      </g>
      <g
         transform="matrix(0.47808538,0,0,0.47808538,94.709935,119.49168)"
         id="g1390"
         style="fill:#000000;fill-opacity:1">
        <path
           style="stroke:none;stroke-width:0"
           d="m 2.375,-6.8125 c 0,0 0,-0.109375 -0.125,-0.109375 -0.21875,0 -0.953125,0.078125 -1.21875,0.109375 -0.078125,0 -0.1875,0.015625 -0.1875,0.1875 0,0.125 0.09375,0.125 0.25,0.125 0.46875,0 0.484375,0.0625 0.484375,0.171875 0,0.0625 -0.078125,0.40625 -0.125,0.609375 l -0.828125,3.25 c -0.109375,0.5 -0.15625,0.671875 -0.15625,1.015625 0,0.9375 0.53125,1.5625 1.265625,1.5625 1.171875,0 2.40625,-1.484375 2.40625,-2.921875 0,-0.90625 -0.53125,-1.59375 -1.328125,-1.59375 -0.453125,0 -0.875,0.296875 -1.171875,0.59375 z M 1.453125,-3.046875 C 1.5,-3.265625 1.5,-3.28125 1.59375,-3.390625 2.078125,-4.03125 2.53125,-4.1875 2.796875,-4.1875 c 0.359375,0 0.625,0.296875 0.625,0.9375 0,0.59375 -0.328125,1.734375 -0.515625,2.109375 -0.328125,0.671875 -0.78125,1.03125 -1.171875,1.03125 -0.34375,0 -0.671875,-0.265625 -0.671875,-1 0,-0.203125 0,-0.390625 0.15625,-1.015625 z m 0,0"
           id="id-60746ee1-95fa-45e3-9176-b3bcaacd1d58" />
      </g>
      <g
         transform="matrix(0.47808538,0,0,0.47808538,108.01081,133.43639)"
         id="g1393"
         style="fill:#000000;fill-opacity:1">
        <path
           style="stroke:none;stroke-width:0"
           d="m 3.953125,-3.78125 c -0.171875,0 -0.296875,0 -0.4375,0.125 -0.171875,0.15625 -0.1875,0.328125 -0.1875,0.390625 0,0.25 0.1875,0.359375 0.375,0.359375 0.28125,0 0.546875,-0.25 0.546875,-0.640625 0,-0.484375 -0.46875,-0.859375 -1.171875,-0.859375 -1.34375,0 -2.671875,1.421875 -2.671875,2.828125 0,0.90625 0.578125,1.6875 1.625,1.6875 1.421875,0 2.25,-1.0625 2.25,-1.171875 0,-0.0625 -0.046875,-0.140625 -0.109375,-0.140625 -0.0625,0 -0.078125,0.03125 -0.140625,0.109375 -0.78125,0.984375 -1.875,0.984375 -1.984375,0.984375 -0.625,0 -0.90625,-0.484375 -0.90625,-1.09375 0,-0.40625 0.203125,-1.375 0.546875,-1.984375 0.3125,-0.578125 0.859375,-1 1.40625,-1 0.328125,0 0.71875,0.125 0.859375,0.40625 z m 0,0"
           id="id-0cc60e7d-d70e-4eba-b3ba-63563cc612a3" />
      </g>
      <g
         transform="matrix(0.47808538,0,0,0.47808538,94.279506,148.38915)"
         id="g1396"
         style="fill:#000000;fill-opacity:1">
        <path
           style="stroke:none;stroke-width:0"
           d="m 5.140625,-6.8125 c 0,0 0,-0.109375 -0.125,-0.109375 -0.15625,0 -1.09375,0.09375 -1.265625,0.109375 -0.078125,0.015625 -0.140625,0.0625 -0.140625,0.1875 0,0.125 0.09375,0.125 0.234375,0.125 0.484375,0 0.5,0.0625 0.5,0.171875 L 4.3125,-6.125 3.71875,-3.765625 C 3.53125,-4.140625 3.25,-4.40625 2.796875,-4.40625 c -1.15625,0 -2.390625,1.46875 -2.390625,2.921875 0,0.9375 0.546875,1.59375 1.3125,1.59375 0.203125,0 0.703125,-0.046875 1.296875,-0.75 0.078125,0.421875 0.4375,0.75 0.90625,0.75 0.359375,0 0.578125,-0.234375 0.75,-0.546875 0.15625,-0.359375 0.296875,-0.96875 0.296875,-0.984375 0,-0.109375 -0.09375,-0.109375 -0.125,-0.109375 -0.09375,0 -0.109375,0.046875 -0.140625,0.1875 -0.171875,0.640625 -0.34375,1.234375 -0.75,1.234375 -0.28125,0 -0.296875,-0.265625 -0.296875,-0.453125 0,-0.25 0.015625,-0.3125 0.046875,-0.484375 z m -2.0625,5.625 C 3.015625,-1 3.015625,-0.984375 2.875,-0.8125 2.4375,-0.265625 2.03125,-0.109375 1.75,-0.109375 c -0.5,0 -0.640625,-0.546875 -0.640625,-0.9375 0,-0.5 0.3125,-1.71875 0.546875,-2.1875 0.3125,-0.578125 0.75,-0.953125 1.15625,-0.953125 0.640625,0 0.78125,0.8125 0.78125,0.875 0,0.0625 -0.015625,0.125 -0.03125,0.171875 z m 0,0"
           id="id-1b62e1b0-4b7d-4931-bf18-f287db91f69a" />
      </g>
      <g
         transform="matrix(0.47808538,0,0,0.47808538,77.773887,147.3811)"
         id="g1399"
         style="fill:#000000;fill-opacity:1">
        <path
           style="stroke:none;stroke-width:0"
           d="m 1.859375,-2.296875 c 0.296875,0 1.03125,-0.03125 1.53125,-0.234375 0.703125,-0.296875 0.75,-0.890625 0.75,-1.03125 0,-0.4375 -0.375,-0.84375 -1.0625,-0.84375 -1.109375,0 -2.625,0.96875 -2.625,2.71875 0,1.015625 0.59375,1.796875 1.578125,1.796875 1.421875,0 2.25,-1.0625 2.25,-1.171875 0,-0.0625 -0.046875,-0.140625 -0.109375,-0.140625 -0.0625,0 -0.078125,0.03125 -0.140625,0.109375 -0.78125,0.984375 -1.875,0.984375 -1.984375,0.984375 -0.78125,0 -0.875,-0.84375 -0.875,-1.15625 0,-0.125 0.015625,-0.421875 0.15625,-1.03125 z m -0.46875,-0.21875 C 1.78125,-4.03125 2.8125,-4.1875 3.078125,-4.1875 c 0.453125,0 0.734375,0.296875 0.734375,0.625 0,1.046875 -1.59375,1.046875 -2.015625,1.046875 z m 0,0"
           id="id-141d8b38-4018-47fe-b669-24c238bdae1c" />
      </g>
      <g
         transform="matrix(0.47808538,0,0,0.47808538,64.198441,133.10038)"
         id="g1402"
         style="fill:#000000;fill-opacity:1">
        <path
           style="stroke:none;stroke-width:0"
           d="m 3.65625,-3.984375 h 0.859375 c 0.203125,0 0.296875,0 0.296875,-0.203125 0,-0.109375 -0.09375,-0.109375 -0.265625,-0.109375 H 3.71875 L 3.921875,-5.4375 c 0.046875,-0.203125 0.1875,-0.90625 0.25,-1.03125 0.078125,-0.1875 0.25,-0.34375 0.46875,-0.34375 0.03125,0 0.296875,0 0.484375,0.1875 -0.4375,0.03125 -0.546875,0.390625 -0.546875,0.53125 0,0.234375 0.1875,0.359375 0.375,0.359375 C 5.21875,-5.734375 5.5,-5.96875 5.5,-6.34375 c 0,-0.453125 -0.453125,-0.6875 -0.859375,-0.6875 -0.34375,0 -0.96875,0.1875 -1.265625,1.171875 -0.0625,0.203125 -0.09375,0.3125 -0.328125,1.5625 h -0.6875 c -0.203125,0 -0.3125,0 -0.3125,0.1875 0,0.125 0.09375,0.125 0.28125,0.125 h 0.65625 L 2.25,-0.046875 c -0.1875,0.96875 -0.359375,1.875 -0.875,1.875 -0.046875,0 -0.28125,0 -0.484375,-0.1875 C 1.359375,1.609375 1.453125,1.25 1.453125,1.109375 1.453125,0.875 1.265625,0.75 1.078125,0.75 0.8125,0.75 0.53125,0.984375 0.53125,1.359375 c 0,0.4375 0.4375,0.6875 0.84375,0.6875 0.546875,0 0.953125,-0.59375 1.125,-0.96875 0.328125,-0.625 0.546875,-1.828125 0.5625,-1.90625 z m 0,0"
           id="id-92be66aa-a5e4-4611-ac0e-e89004df3e49" />
      </g>
    </g>
  </g>
</svg>
