<?xml version="1.0" encoding="UTF-8" standalone="no"?>
<svg
   version="1.1"
   width="550.83081"
   height="341"
   id="svg1063"
   sodipodi:docname="hdl_xor.svg"
   inkscape:version="1.1 (c4e8f9e, 2021-05-24)"
   xmlns:inkscape="http://www.inkscape.org/namespaces/inkscape"
   xmlns:sodipodi="http://sodipodi.sourceforge.net/DTD/sodipodi-0.dtd"
   xmlns="http://www.w3.org/2000/svg"
   xmlns:svg="http://www.w3.org/2000/svg">
  <sodipodi:namedview
     id="namedview1065"
     pagecolor="#ffffff"
     bordercolor="#666666"
     borderopacity="1.0"
     inkscape:pageshadow="2"
     inkscape:pageopacity="0.0"
     inkscape:pagecheckerboard="0"
     showgrid="false"
     inkscape:zoom="0.71280924"
     inkscape:cx="171.85523"
     inkscape:cy="208.33063"
     inkscape:window-width="1650"
     inkscape:window-height="847"
     inkscape:window-x="1507"
     inkscape:window-y="43"
     inkscape:window-maximized="0"
     inkscape:current-layer="svg1063"
     inkscape:snap-global="true"
     inkscape:snap-center="true">
    <inkscape:grid
       type="xygrid"
       id="grid1421"
       originx="-121.35205"
       originy="-179.5" />
  </sodipodi:namedview>
  <defs
     id="defs831">
    <clipPath
       id="page">
      <rect
         x="0"
         y="0"
         width="770"
         height="620"
         id="rect824" />
    </clipPath>
    <clipPath
       id="clipPath829">
      <rect
         x="0"
         y="0"
         width="770"
         height="620"
         id="rect827" />
    </clipPath>
    <defs
       id="id-eebd71c1-f2a9-4acb-8f7c-2df45b0a64bf">
      <g
         id="id-c39c92e9-46c4-4901-92f1-259ca0f0b96c">
        <symbol
           overflow="visible"
           id="id-10fc536f-34b4-433b-b911-8812cd19cc55">
          <path
             style="stroke:none;stroke-width:0"
             d=""
             id="id-bb59fd3c-dbbb-45cb-90b7-da994355ce96" />
        </symbol>
        <symbol
           overflow="visible"
           id="id-695edfb4-ebc6-46f4-8c2c-c0e759b13fb3">
          <path
             style="stroke:none;stroke-width:0"
             d="M 3.65625,-0.3125 C 3.875,-0.015625 4.34375,0 4.71875,0 c 0.28125,0 0.5,0 0.5,-0.3125 0,-0.296875 -0.25,-0.296875 -0.390625,-0.296875 -0.421875,0 -0.515625,-0.046875 -0.59375,-0.078125 v -2.15625 c 0,-0.703125 -0.546875,-1.546875 -1.984375,-1.546875 -0.421875,0 -1.4375,0 -1.4375,0.734375 0,0.296875 0.203125,0.453125 0.4375,0.453125 0.15625,0 0.4375,-0.09375 0.4375,-0.453125 0,-0.078125 0.015625,-0.09375 0.21875,-0.109375 0.140625,-0.015625 0.265625,-0.015625 0.359375,-0.015625 0.75,0 1.265625,0.3125 1.265625,1.015625 -1.75,0.03125 -2.984375,0.53125 -2.984375,1.484375 0,0.6875 0.625,1.34375 1.640625,1.34375 0.375,0 1,-0.078125 1.46875,-0.375 z m -0.125,-1.859375 v 0.84375 c 0,0.21875 0,0.4375 -0.375,0.609375 -0.359375,0.171875 -0.8125,0.171875 -0.890625,0.171875 -0.625,0 -1.03125,-0.34375 -1.03125,-0.734375 0,-0.484375 0.859375,-0.859375 2.296875,-0.890625 z m 0,0"
             id="id-45f56448-3e85-4c64-a6ee-1c8078ef1b1b" />
        </symbol>
        <symbol
           overflow="visible"
           id="id-cbc62cd3-9ae4-4fd1-838a-8a1c36b1c78e">
          <path
             style="stroke:none;stroke-width:0"
             d="m 1.65625,-3.875 v -1.8125 c 0,-0.296875 -0.0625,-0.40625 -0.40625,-0.40625 H 0.53125 c -0.15625,0 -0.40625,0 -0.40625,0.3125 0,0.296875 0.25,0.296875 0.390625,0.296875 H 0.96875 V -0.40625 C 0.96875,-0.203125 0.96875,0 1.3125,0 1.65625,0 1.65625,-0.203125 1.65625,-0.453125 2.0625,-0.03125 2.5,0.0625 2.8125,0.0625 c 1.078125,0 2.046875,-0.953125 2.046875,-2.21875 0,-1.21875 -0.875,-2.203125 -1.9375,-2.203125 C 2.4375,-4.359375 2,-4.171875 1.65625,-3.875 Z m 0,1.96875 V -2.625 c 0,-0.59375 0.578125,-1.125 1.203125,-1.125 0.734375,0 1.3125,0.734375 1.3125,1.59375 0,0.953125 -0.6875,1.609375 -1.390625,1.609375 -0.78125,0 -1.125,-0.875 -1.125,-1.359375 z m 0,0"
             id="id-25b016af-b305-48dc-9012-5bfcf98ed7d0" />
        </symbol>
      </g>
    </defs>
    <defs
       id="id-ee63ce87-dba9-4810-880c-4b6901361b0c">
      <g
         id="id-5ff0c2f5-fbcc-4209-8521-d4385513a8db">
        <symbol
           overflow="visible"
           id="id-dbf6ae5e-bfa7-4878-90dc-155aee1bf41b">
          <path
             style="stroke:none;stroke-width:0"
             d=""
             id="id-2d4056b3-da51-40c0-8878-fa96ac8fd6bb" />
        </symbol>
        <symbol
           overflow="visible"
           id="id-3018260a-a521-4f56-b8d8-318781476278">
          <path
             style="stroke:none;stroke-width:0"
             d="M 3.65625,-0.3125 C 3.875,-0.015625 4.34375,0 4.71875,0 c 0.28125,0 0.5,0 0.5,-0.3125 0,-0.296875 -0.25,-0.296875 -0.390625,-0.296875 -0.421875,0 -0.515625,-0.046875 -0.59375,-0.078125 v -2.15625 c 0,-0.703125 -0.546875,-1.546875 -1.984375,-1.546875 -0.421875,0 -1.4375,0 -1.4375,0.734375 0,0.296875 0.203125,0.453125 0.4375,0.453125 0.15625,0 0.4375,-0.09375 0.4375,-0.453125 0,-0.078125 0.015625,-0.09375 0.21875,-0.109375 0.140625,-0.015625 0.265625,-0.015625 0.359375,-0.015625 0.75,0 1.265625,0.3125 1.265625,1.015625 -1.75,0.03125 -2.984375,0.53125 -2.984375,1.484375 0,0.6875 0.625,1.34375 1.640625,1.34375 0.375,0 1,-0.078125 1.46875,-0.375 z m -0.125,-1.859375 v 0.84375 c 0,0.21875 0,0.4375 -0.375,0.609375 -0.359375,0.171875 -0.8125,0.171875 -0.890625,0.171875 -0.625,0 -1.03125,-0.34375 -1.03125,-0.734375 0,-0.484375 0.859375,-0.859375 2.296875,-0.890625 z m 0,0"
             id="id-2629dc38-fc0b-4df9-ba2d-523d42e57619" />
        </symbol>
        <symbol
           overflow="visible"
           id="id-5de397db-56f6-4f93-b0d8-7ae9b5000e32">
          <path
             style="stroke:none;stroke-width:0"
             d="m 1.65625,-3.875 v -1.8125 c 0,-0.296875 -0.0625,-0.40625 -0.40625,-0.40625 H 0.53125 c -0.15625,0 -0.40625,0 -0.40625,0.3125 0,0.296875 0.25,0.296875 0.390625,0.296875 H 0.96875 V -0.40625 C 0.96875,-0.203125 0.96875,0 1.3125,0 1.65625,0 1.65625,-0.203125 1.65625,-0.453125 2.0625,-0.03125 2.5,0.0625 2.8125,0.0625 c 1.078125,0 2.046875,-0.953125 2.046875,-2.21875 0,-1.21875 -0.875,-2.203125 -1.9375,-2.203125 C 2.4375,-4.359375 2,-4.171875 1.65625,-3.875 Z m 0,1.96875 V -2.625 c 0,-0.59375 0.578125,-1.125 1.203125,-1.125 0.734375,0 1.3125,0.734375 1.3125,1.59375 0,0.953125 -0.6875,1.609375 -1.390625,1.609375 -0.78125,0 -1.125,-0.875 -1.125,-1.359375 z m 0,0"
             id="id-46f62207-3b18-4765-b8ac-873bd564a5b5" />
        </symbol>
        <symbol
           overflow="visible"
           id="id-5d8679a7-31ab-4b83-a506-3436139e1b55">
          <path
             style="stroke:none;stroke-width:0"
             d="m 3.078125,-3.890625 c 0,-0.3125 -0.0625,-0.40625 -0.390625,-0.40625 H 1.265625 c -0.15625,0 -0.40625,0 -0.40625,0.296875 0,0.3125 0.25,0.3125 0.40625,0.3125 h 1.125 v 3.078125 H 1.1875 c -0.15625,0 -0.40625,0 -0.40625,0.3125 C 0.78125,0 1.03125,0 1.1875,0 H 4.125 c 0.15625,0 0.40625,0 0.40625,-0.296875 0,-0.3125 -0.25,-0.3125 -0.40625,-0.3125 H 3.078125 Z m 0,-1.71875 c 0,-0.265625 -0.21875,-0.484375 -0.5,-0.484375 -0.28125,0 -0.5,0.21875 -0.5,0.484375 0,0.28125 0.21875,0.5 0.5,0.5 0.28125,0 0.5,-0.21875 0.5,-0.5 z m 0,0"
             id="id-6a6db57d-fd87-4749-b110-9aa72a1add6f" />
        </symbol>
        <symbol
           overflow="visible"
           id="id-dd98e421-aec3-4180-85e3-743c5ae3a138">
          <path
             style="stroke:none;stroke-width:0"
             d="m 1.65625,-3.828125 c 0,-0.3125 0,-0.46875 -0.40625,-0.46875 H 0.53125 c -0.15625,0 -0.40625,0 -0.40625,0.3125 0,0.296875 0.25,0.296875 0.390625,0.296875 H 0.96875 v 3.078125 h -0.4375 c -0.15625,0 -0.40625,0 -0.40625,0.3125 C 0.125,0 0.375,0 0.515625,0 h 1.59375 C 2.25,0 2.5,0 2.5,-0.296875 c 0,-0.3125 -0.25,-0.3125 -0.40625,-0.3125 H 1.65625 V -2.375 c 0,-1 0.734375,-1.375 1.25,-1.375 0.515625,0 0.65625,0.28125 0.65625,0.875 v 2.265625 h -0.375 c -0.171875,0 -0.421875,0 -0.421875,0.3125 C 2.765625,0 3.046875,0 3.1875,0 h 1.515625 c 0.140625,0 0.40625,0 0.40625,-0.296875 0,-0.3125 -0.25,-0.3125 -0.421875,-0.3125 H 4.25 v -2.3125 c 0,-1 -0.5,-1.4375 -1.296875,-1.4375 -0.65625,0 -1.109375,0.34375 -1.296875,0.53125 z m 0,0"
             id="id-7d9c4aed-7f26-42f7-b283-42789d71f1db" />
        </symbol>
        <symbol
           overflow="visible"
           id="id-e146b26a-997a-4f7e-b3ab-91cecca52ad3">
          <path
             style="stroke:none;stroke-width:0"
             d="m 4.65625,-2.15625 c 0,-1.25 -0.921875,-2.234375 -2.046875,-2.234375 -1.109375,0 -2.046875,0.984375 -2.046875,2.234375 0,1.265625 0.953125,2.21875 2.046875,2.21875 1.09375,0 2.046875,-0.953125 2.046875,-2.21875 z M 2.609375,-0.546875 C 1.875,-0.546875 1.25,-1.296875 1.25,-2.21875 c 0,-0.90625 0.65625,-1.5625 1.359375,-1.5625 0.71875,0 1.359375,0.65625 1.359375,1.5625 0,0.921875 -0.625,1.671875 -1.359375,1.671875 z m 0,0"
             id="id-837d7a17-51ce-41fd-9567-52a8fd6b2137" />
        </symbol>
        <symbol
           overflow="visible"
           id="id-45b9c198-e86c-46a3-b587-4384b04f623f">
          <path
             style="stroke:none;stroke-width:0"
             d="M 3.5625,-0.3125 C 3.578125,0 3.78125,0 3.96875,0 H 4.6875 c 0.171875,0 0.421875,0 0.421875,-0.3125 0,-0.296875 -0.265625,-0.296875 -0.40625,-0.296875 H 4.25 v -3.28125 c 0,-0.3125 -0.046875,-0.40625 -0.390625,-0.40625 H 3.125 c -0.15625,0 -0.40625,0 -0.40625,0.3125 0,0.296875 0.265625,0.296875 0.40625,0.296875 h 0.4375 v 2.125 c 0,0.890625 -0.796875,1.015625 -1.125,1.015625 -0.78125,0 -0.78125,-0.328125 -0.78125,-0.65625 v -2.6875 c 0,-0.3125 -0.0625,-0.40625 -0.40625,-0.40625 H 0.53125 c -0.15625,0 -0.40625,0 -0.40625,0.3125 0,0.296875 0.25,0.296875 0.390625,0.296875 H 0.96875 v 2.546875 c 0,0.96875 0.6875,1.203125 1.40625,1.203125 0.421875,0 0.828125,-0.109375 1.1875,-0.375 z m 0,0"
             id="id-918a01bb-aafc-4d4b-931a-26b21d63268f" />
        </symbol>
        <symbol
           overflow="visible"
           id="id-962199a2-f6e0-4401-8ffe-b411ef95af28">
          <path
             style="stroke:none;stroke-width:0"
             d="m 2.21875,-3.6875 h 1.625 c 0.15625,0 0.40625,0 0.40625,-0.296875 0,-0.3125 -0.25,-0.3125 -0.40625,-0.3125 h -1.625 v -0.8125 c 0,-0.1875 0,-0.40625 -0.34375,-0.40625 -0.34375,0 -0.34375,0.203125 -0.34375,0.40625 v 0.8125 h -0.875 c -0.15625,0 -0.40625,0 -0.40625,0.3125 0,0.296875 0.25,0.296875 0.390625,0.296875 H 1.53125 V -1.25 c 0,0.953125 0.671875,1.3125 1.40625,1.3125 0.734375,0 1.53125,-0.4375 1.53125,-1.3125 0,-0.1875 0,-0.390625 -0.34375,-0.390625 -0.328125,0 -0.34375,0.203125 -0.34375,0.375 0,0.625 -0.578125,0.71875 -0.796875,0.71875 -0.765625,0 -0.765625,-0.515625 -0.765625,-0.765625 z m 0,0"
             id="id-53b42ba7-3679-4f7c-9b5c-95eb60331c0f" />
        </symbol>
        <symbol
           overflow="visible"
           id="id-fb56f85b-895e-4be1-a254-6dde04fde54f">
          <path
             style="stroke:none;stroke-width:0"
             d="M 1.890625,-5.734375 C 1.78125,-6.0625 1.625,-6.09375 1.359375,-6.09375 h -0.6875 c -0.140625,0 -0.390625,0 -0.390625,0.296875 0,0.3125 0.234375,0.3125 0.390625,0.3125 h 0.25 v 4.875 h -0.25 c -0.140625,0 -0.390625,0 -0.390625,0.296875 C 0.28125,0 0.515625,0 0.671875,0 h 1.0625 c 0.15625,0 0.40625,0 0.40625,-0.296875 0,-0.3125 -0.25,-0.3125 -0.40625,-0.3125 h -0.25 V -5.34375 H 1.5 l 1.828125,4.984375 C 3.453125,-0.015625 3.625,0 3.875,0 4.171875,0 4.296875,-0.03125 4.296875,-0.40625 v -5.078125 h 0.25 c 0.140625,0 0.390625,0 0.390625,-0.296875 0,-0.3125 -0.234375,-0.3125 -0.390625,-0.3125 h -1.0625 c -0.15625,0 -0.390625,0 -0.390625,0.3125 0,0.296875 0.25,0.296875 0.390625,0.296875 h 0.25 V -0.75 Z m 0,0"
             id="id-f62dec55-9186-4d67-a61f-c184297b2ff0" />
        </symbol>
        <symbol
           overflow="visible"
           id="id-92156e11-779a-40eb-a8e2-99c70b7065fc">
          <path
             style="stroke:none;stroke-width:0"
             d="m 3.15625,-5.828125 c -0.09375,-0.375 -0.234375,-0.375 -0.546875,-0.375 -0.28125,0 -0.453125,0 -0.53125,0.375 L 0.875,-0.609375 c -0.140625,0 -0.375,0 -0.4375,0.015625 -0.109375,0.0625 -0.171875,0.171875 -0.171875,0.296875 C 0.265625,0 0.53125,0 0.703125,0 H 1.71875 c 0.171875,0 0.421875,0 0.421875,-0.296875 0,-0.3125 -0.203125,-0.3125 -0.5625,-0.3125 l 0.21875,-1.03125 h 1.625 l 0.234375,1.03125 c -0.359375,0 -0.5625,0 -0.5625,0.3125 C 3.09375,0 3.328125,0 3.515625,0 H 4.53125 c 0.15625,0 0.421875,0 0.421875,-0.296875 0,-0.125 -0.046875,-0.234375 -0.171875,-0.28125 C 4.71875,-0.609375 4.5,-0.609375 4.359375,-0.609375 Z M 2.609375,-5.40625 H 2.625 L 3.265625,-2.25 h -1.3125 z m 0,0"
             id="id-12154ec4-4a85-4baa-93dd-d44170354e13" />
        </symbol>
        <symbol
           overflow="visible"
           id="id-3e73be00-fe39-4384-8615-725411ec8780">
          <path
             style="stroke:none;stroke-width:0"
             d="m 3.5625,-0.5 c 0,0.359375 0,0.5 0.40625,0.5 H 4.6875 c 0.171875,0 0.421875,0 0.421875,-0.3125 0,-0.296875 -0.265625,-0.296875 -0.40625,-0.296875 H 4.25 V -5.6875 c 0,-0.296875 -0.046875,-0.40625 -0.390625,-0.40625 H 3.125 c -0.15625,0 -0.40625,0 -0.40625,0.3125 0,0.296875 0.265625,0.296875 0.40625,0.296875 H 3.5625 V -3.90625 C 3.234375,-4.203125 2.828125,-4.359375 2.40625,-4.359375 c -1.09375,0 -2.046875,0.953125 -2.046875,2.21875 0,1.234375 0.890625,2.203125 1.953125,2.203125 0.5625,0 0.984375,-0.265625 1.25,-0.5625 z m 0,-2.140625 V -1.9375 c 0,0.5625 -0.4375,1.390625 -1.203125,1.390625 -0.71875,0 -1.3125,-0.703125 -1.3125,-1.59375 C 1.046875,-3.09375 1.75,-3.75 2.4375,-3.75 c 0.640625,0 1.125,0.5625 1.125,1.109375 z m 0,0"
             id="id-749eca3a-11b4-47df-92d5-1b8023480d16" />
        </symbol>
        <symbol
           overflow="visible"
           id="id-f9ba1d3b-6413-4ac3-a213-bd7e0e5afccf">
          <path
             style="stroke:none;stroke-width:0"
             d="m 4.671875,-3.046875 c 0,-2.875 -0.21875,-3.15625 -2.0625,-3.15625 -1.84375,0 -2.046875,0.265625 -2.046875,3.15625 0,2.890625 0.203125,3.15625 2.046875,3.15625 1.84375,0 2.0625,-0.265625 2.0625,-3.15625 z M 2.609375,-0.5 c -0.875,0 -1.125,-0.203125 -1.25,-0.703125 C 1.25,-1.71875 1.25,-2.578125 1.25,-3.125 c 0,-0.625 0,-1.296875 0.109375,-1.765625 0.125,-0.578125 0.4375,-0.703125 1.25,-0.703125 0.75,0 1.09375,0.09375 1.25,0.640625 0.125,0.46875 0.125,1.21875 0.125,1.828125 0,0.609375 0,1.328125 -0.109375,1.859375 C 3.765625,-0.703125 3.5,-0.5 2.609375,-0.5 Z m 0,0"
             id="id-a9e1d1ba-bb78-4ecc-a04c-9e0394b6773b" />
        </symbol>
        <symbol
           overflow="visible"
           id="id-9647b1df-c2d7-4bdf-98c1-ed56ef3e05e9">
          <path
             style="stroke:none;stroke-width:0"
             d="M 2.21875,-1.859375 C 2.21875,-2.796875 2.796875,-3.75 4,-3.75 c 0.015625,0.234375 0.1875,0.4375 0.4375,0.4375 0.21875,0 0.421875,-0.15625 0.421875,-0.421875 0,-0.203125 -0.125,-0.625 -0.953125,-0.625 -0.5,0 -1.140625,0.1875 -1.6875,0.8125 v -0.34375 c 0,-0.3125 -0.0625,-0.40625 -0.40625,-0.40625 H 0.71875 c -0.15625,0 -0.40625,0 -0.40625,0.296875 0,0.3125 0.25,0.3125 0.40625,0.3125 h 0.8125 v 3.078125 h -0.8125 c -0.15625,0 -0.40625,0 -0.40625,0.296875 C 0.3125,0 0.5625,0 0.71875,0 H 3.3125 c 0.15625,0 0.421875,0 0.421875,-0.296875 0,-0.3125 -0.265625,-0.3125 -0.421875,-0.3125 H 2.21875 Z m 0,0"
             id="id-396ec7c1-fcf3-403a-a11a-c17b7a6cd397" />
        </symbol>
      </g>
    </defs>
  </defs>
  <g
     id="g2641">
    <g
       id="g1887"
       transform="translate(160.95039,149.74551)">
      <path
         style="fill:#000000;fill-opacity:1;stroke:none;stroke-width:0"
         d="m -48.500087,-65.760075 c 0,-0.620435 -0.124087,-0.806565 -0.775544,-0.806565 h -2.822976 c -0.310218,0 -0.806565,0 -0.806565,0.589413 0,0.620434 0.496347,0.620434 0.806565,0.620434 h 2.233564 v 6.11128 h -2.388673 c -0.310217,0 -0.806565,0 -0.806565,0.620434 0,0.589413 0.496348,0.589413 0.806565,0.589413 h 5.832084 c 0.310217,0 0.806565,0 0.806565,-0.589413 0,-0.620434 -0.496348,-0.620434 -0.806565,-0.620434 h -2.078455 z m 0,-3.41239 c 0,-0.527369 -0.434305,-0.961673 -0.992696,-0.961673 -0.558391,0 -0.992695,0.434304 -0.992695,0.961673 0,0.558391 0.434304,0.992695 0.992695,0.992695 0.558391,0 0.992696,-0.434304 0.992696,-0.992695 z m 0,0"
         id="id-6fb2ce3d-d601-4f12-8151-e215a57cb784" />
      <path
         style="fill:#000000;fill-opacity:1;stroke:none;stroke-width:0"
         d="m -40.937488,-65.635988 c 0,-0.620435 0,-0.930652 -0.806565,-0.930652 h -1.426999 c -0.310218,0 -0.806565,0 -0.806565,0.620435 0,0.589412 0.496347,0.589412 0.775543,0.589412 h 0.89963 v 6.11128 h -0.868608 c -0.310218,0 -0.806565,0 -0.806565,0.620434 0,0.589413 0.496347,0.589413 0.775543,0.589413 h 3.164216 c 0.279195,0 0.775543,0 0.775543,-0.589413 0,-0.620434 -0.496348,-0.620434 -0.806565,-0.620434 h -0.868608 v -3.505455 c 0,-1.98539 1.458021,-2.729912 2.481738,-2.729912 1.023716,0 1.302912,0.558391 1.302912,1.737217 v 4.49815 h -0.744521 c -0.341239,0 -0.837587,0 -0.837587,0.620434 0,0.589413 0.558391,0.589413 0.837587,0.589413 h 3.009107 c 0.279195,0 0.806565,0 0.806565,-0.589413 0,-0.620434 -0.496348,-0.620434 -0.837587,-0.620434 h -0.868608 v -4.591215 c 0,-1.985391 -0.992695,-2.853999 -2.574803,-2.853999 -1.302913,0 -2.202543,0.682478 -2.574803,1.054739 z m 0,0"
         id="id-fbbb4488-82dc-42b8-ac27-13eb5505b359" />
    </g>
    <g
       id="g2025"
       transform="translate(241.57334,91.745513)">
      <path
         style="fill:#000000;fill-opacity:1;stroke:none;stroke-width:0"
         d="m 65.882466,-69.606769 c -0.18613,-0.744521 -0.465326,-0.744521 -1.08576,-0.744521 -0.558391,0 -0.89963,0 -1.054739,0.744521 l -2.388672,10.361256 c -0.279196,0 -0.744522,0 -0.868609,0.03102 -0.217152,0.124086 -0.341239,0.341238 -0.341239,0.589412 0,0.589413 0.52737,0.589413 0.868609,0.589413 h 2.016412 c 0.341239,0 0.837586,0 0.837586,-0.589413 0,-0.620434 -0.403282,-0.620434 -1.116782,-0.620434 l 0.434304,-2.047434 h 3.226259 l 0.465326,2.047434 c -0.713499,0 -1.116782,0 -1.116782,0.620434 0,0.589413 0.465326,0.589413 0.837587,0.589413 h 2.016412 c 0.310217,0 0.837586,0 0.837586,-0.589413 0,-0.248174 -0.09306,-0.465326 -0.341239,-0.558391 -0.124087,-0.06204 -0.558391,-0.06204 -0.837586,-0.06204 z m -1.08576,0.837587 h 0.03102 l 1.27189,6.266388 h -2.605825 z m 0,0"
         id="id-002dba93-f565-4fe6-9baf-ba38fcd34ef3" />
      <path
         style="fill:#000000;fill-opacity:1;stroke:none;stroke-width:0"
         d="m 73.289958,-65.635988 c 0,-0.620435 0,-0.930652 -0.806565,-0.930652 h -1.426999 c -0.310218,0 -0.806565,0 -0.806565,0.620435 0,0.589412 0.496347,0.589412 0.775543,0.589412 h 0.89963 v 6.11128 h -0.868608 c -0.310218,0 -0.806565,0 -0.806565,0.620434 0,0.589413 0.496347,0.589413 0.775543,0.589413 h 3.164216 c 0.279195,0 0.775543,0 0.775543,-0.589413 0,-0.620434 -0.496348,-0.620434 -0.806565,-0.620434 h -0.868608 v -3.505455 c 0,-1.98539 1.458021,-2.729912 2.481738,-2.729912 1.023716,0 1.302912,0.558391 1.302912,1.737217 v 4.49815 h -0.744521 c -0.341239,0 -0.837587,0 -0.837587,0.620434 0,0.589413 0.558391,0.589413 0.837587,0.589413 h 3.009107 c 0.279195,0 0.806565,0 0.806565,-0.589413 0,-0.620434 -0.496348,-0.620434 -0.837587,-0.620434 h -0.868608 v -4.591215 c 0,-1.985391 -0.992695,-2.853999 -2.574803,-2.853999 -1.302913,0 -2.202543,0.682478 -2.574803,1.054739 z m 0,0"
         id="id-aa005cd7-e5c9-42e1-b4a0-b0caa0154bf1" />
      <path
         style="fill:#000000;fill-opacity:1;stroke:none;stroke-width:0"
         d="m 87.458199,-59.028361 c 0,0.713499 0,0.992695 0.806565,0.992695 h 1.426999 c 0.341239,0 0.837587,0 0.837587,-0.620434 0,-0.589413 -0.52737,-0.589413 -0.806565,-0.589413 h -0.89963 v -10.08206 c 0,-0.589413 -0.09306,-0.806565 -0.775543,-0.806565 h -1.458021 c -0.310218,0 -0.806565,0 -0.806565,0.620434 0,0.589413 0.527369,0.589413 0.806565,0.589413 h 0.868608 v 3.133194 c -0.651456,-0.589413 -1.458021,-0.89963 -2.295608,-0.89963 -2.17152,0 -4.063845,1.892325 -4.063845,4.405085 0,2.450716 1.768238,4.374063 3.877715,4.374063 1.116782,0 1.954369,-0.527369 2.481738,-1.116782 z m 0,-4.249976 v 1.395977 c 0,1.116782 -0.868608,2.760934 -2.388673,2.760934 -1.426999,0 -2.605825,-1.395978 -2.605825,-3.164216 0,-1.892325 1.395978,-3.195238 2.760934,-3.195238 1.271891,0 2.233564,1.116782 2.233564,2.202543 z m 0,0"
         id="id-ddbdddba-5d49-4bb7-af82-32444b2c33f0" />
    </g>
    <g
       id="g2020"
       transform="translate(358.70486,233.74551)">
      <path
         style="fill:#000000;fill-opacity:1;stroke:none;stroke-width:0"
         d="m 110.42991,-64.084902 c 0,-5.707997 -0.43431,-6.266388 -4.09487,-6.266388 -3.66057,0 -4.06385,0.527369 -4.06385,6.266388 0,5.739019 0.40328,6.266388 4.06385,6.266388 3.66056,0 4.09487,-0.527369 4.09487,-6.266388 z m -4.09487,5.056541 c -1.73722,0 -2.23357,-0.403283 -2.48174,-1.395978 -0.21715,-1.023717 -0.21715,-2.729911 -0.21715,-3.815672 0,-1.240869 0,-2.574803 0.21715,-3.505454 0.24817,-1.147804 0.86861,-1.395978 2.48174,-1.395978 1.48904,0 2.17152,0.18613 2.48174,1.271891 0.24817,0.930651 0.24817,2.419694 0.24817,3.629541 0,1.209848 0,2.636847 -0.21715,3.691585 -0.21715,1.116782 -0.74452,1.520065 -2.51276,1.520065 z m 0,0"
         id="id-07879fb5-8a67-4568-ae94-a61386347ef1" />
      <path
         style="fill:#000000;fill-opacity:1;stroke:none;stroke-width:0"
         d="m 115.94309,-61.727251 c 0,-1.861303 1.14781,-3.753629 3.53648,-3.753629 0.031,0.465326 0.37226,0.868609 0.86861,0.868609 0.4343,0 0.83759,-0.310218 0.83759,-0.837587 0,-0.403282 -0.24818,-1.240869 -1.89233,-1.240869 -0.99269,0 -2.26458,0.372261 -3.35035,1.61313 v -0.682478 c 0,-0.620435 -0.12408,-0.806565 -0.80656,-0.806565 h -2.17152 c -0.31022,0 -0.80657,0 -0.80657,0.589413 0,0.620434 0.49635,0.620434 0.80657,0.620434 h 1.61313 v 6.11128 h -1.61313 c -0.31022,0 -0.80657,0 -0.80657,0.589413 0,0.620434 0.49635,0.620434 0.80657,0.620434 h 5.14961 c 0.31021,0 0.83758,0 0.83758,-0.589413 0,-0.620434 -0.52737,-0.620434 -0.83758,-0.620434 h -2.17153 z m 0,0"
         id="id-a0a90ffa-e86d-4bbf-b10f-31b064e6b84c" />
    </g>
    <g
       id="g1922"
       transform="translate(56.71272,268.81666)">
      <path
         style="fill:#000000;fill-opacity:1;stroke:none;stroke-width:0"
         d="m 135.59547,-65.635988 c 0,-0.620435 0,-0.930652 -0.80656,-0.930652 h -1.427 c -0.31022,0 -0.80657,0 -0.80657,0.620435 0,0.589412 0.49635,0.589412 0.77555,0.589412 h 0.89963 v 6.11128 h -0.86861 c -0.31022,0 -0.80657,0 -0.80657,0.620434 0,0.589413 0.49635,0.589413 0.77555,0.589413 h 3.16421 c 0.2792,0 0.77555,0 0.77555,-0.589413 0,-0.620434 -0.49635,-0.620434 -0.80657,-0.620434 h -0.86861 v -3.505455 c 0,-1.98539 1.45802,-2.729912 2.48174,-2.729912 1.02372,0 1.30291,0.558391 1.30291,1.737217 v 4.49815 h -0.74452 c -0.34124,0 -0.83758,0 -0.83758,0.620434 0,0.589413 0.55839,0.589413 0.83758,0.589413 h 3.00911 c 0.27919,0 0.80656,0 0.80656,-0.589413 0,-0.620434 -0.49634,-0.620434 -0.83758,-0.620434 h -0.86861 v -4.591215 c 0,-1.985391 -0.9927,-2.853999 -2.5748,-2.853999 -1.30292,0 -2.20255,0.682478 -2.57481,1.054739 z m 0,0"
         id="id-1afe01f6-e856-4f31-8756-20bdf378a797" />
      <path
         style="fill:#000000;fill-opacity:1;stroke:none;stroke-width:0"
         d="m 151.93523,-62.316664 c 0,-2.481738 -1.83028,-4.436106 -4.06384,-4.436106 -2.20254,0 -4.06385,1.954368 -4.06385,4.436106 0,2.51276 1.89233,4.405085 4.06385,4.405085 2.17152,0 4.06384,-1.892325 4.06384,-4.405085 z m -4.06384,3.195238 c -1.45802,0 -2.69889,-1.489043 -2.69889,-3.319325 0,-1.79926 1.30291,-3.102172 2.69889,-3.102172 1.427,0 2.69889,1.302912 2.69889,3.102172 0,1.830282 -1.24087,3.319325 -2.69889,3.319325 z m 0,0"
         id="id-7501567f-05c7-4429-8aa8-8760339ee303" />
      <path
         style="fill:#000000;fill-opacity:1;stroke:none;stroke-width:0"
         d="m 157.48142,-65.356793 h 3.22626 c 0.31022,0 0.80657,0 0.80657,-0.589412 0,-0.620435 -0.49635,-0.620435 -0.80657,-0.620435 h -3.22626 v -1.61313 c 0,-0.37226 0,-0.806564 -0.68247,-0.806564 -0.68248,0 -0.68248,0.403282 -0.68248,0.806564 v 1.61313 h -1.73722 c -0.31021,0 -0.80656,0 -0.80656,0.620435 0,0.589412 0.49635,0.589412 0.77554,0.589412 h 1.76824 v 4.839389 c 0,1.892325 1.33393,2.605825 2.79195,2.605825 1.45803,0 3.04013,-0.868608 3.04013,-2.605825 0,-0.372261 0,-0.775543 -0.68248,-0.775543 -0.65145,0 -0.68247,0.403282 -0.68247,0.744521 0,1.240869 -1.14781,1.427 -1.58211,1.427 -1.52007,0 -1.52007,-1.023717 -1.52007,-1.520065 z m 0,0"
         id="id-32100d8b-d33e-4617-be03-42d45480962f" />
      <path
         style="fill:#000000;fill-opacity:1;stroke:none;stroke-width:0"
         d="m 166.74823,-65.729053 v -3.59852 c 0,-0.589413 -0.12408,-0.806565 -0.80656,-0.806565 h -1.427 c -0.31022,0 -0.80657,0 -0.80657,0.620434 0,0.589413 0.49635,0.589413 0.77555,0.589413 h 0.89963 v 10.08206 c 0,0.403283 0,0.806565 0.68247,0.806565 0.68248,0 0.68248,-0.403282 0.68248,-0.89963 0.80657,0.837587 1.67518,1.023717 2.29561,1.023717 2.1405,0 4.06385,-1.892325 4.06385,-4.405085 0,-2.419694 -1.73722,-4.374063 -3.8467,-4.374063 -0.96167,0 -1.83028,0.372261 -2.51276,0.961674 z m 0,3.908737 v -1.427 c 0,-1.178825 1.14781,-2.233564 2.38868,-2.233564 1.45802,0 2.60582,1.458021 2.60582,3.164216 0,1.892325 -1.36496,3.195238 -2.76093,3.195238 -1.55109,0 -2.23357,-1.737217 -2.23357,-2.69889 z m 0,0"
         id="id-3707f559-c658-478b-a756-a1268f911305" />
    </g>
    <g
       id="g1900"
       transform="translate(186.92395,149.62143)">
      <path
         style="fill:#000000;fill-opacity:1;stroke:none;stroke-width:0"
         d="m -14.212149,-62.316664 c 0,-2.481738 -1.830282,-4.436106 -4.063846,-4.436106 -2.202543,0 -4.063846,1.954368 -4.063846,4.436106 0,2.51276 1.892325,4.405085 4.063846,4.405085 2.17152,0 4.063846,-1.892325 4.063846,-4.405085 z m -4.063846,3.195238 c -1.458021,0 -2.69889,-1.489043 -2.69889,-3.319325 0,-1.79926 1.302912,-3.102172 2.69889,-3.102172 1.426999,0 2.69889,1.302912 2.69889,3.102172 0,1.830282 -1.240869,3.319325 -2.69889,3.319325 z m 0,0"
         id="path1894" />
      <path
         style="fill:#000000;fill-opacity:1;stroke:none;stroke-width:0"
         d="m -6.0000781,-58.6561 c 0.031022,0.620434 0.4343042,0.620434 0.8065649,0.620434 h 1.4269992 c 0.341239,0 0.8375866,0 0.8375866,-0.620434 0,-0.589413 -0.5273693,-0.589413 -0.8065648,-0.589413 h -0.89963 v -6.514562 c 0,-0.620435 -0.093065,-0.806565 -0.7755431,-0.806565 h -1.458021 c -0.3102172,0 -0.8065648,0 -0.8065648,0.620435 0,0.589412 0.5273693,0.589412 0.8065648,0.589412 h 0.8686082 v 4.218955 c 0,1.768238 -1.5821079,2.016412 -2.233564,2.016412 -1.5510862,0 -1.5510862,-0.651457 -1.5510862,-1.302913 v -5.335736 c 0,-0.620435 -0.1240869,-0.806565 -0.8065647,-0.806565 h -1.426999 c -0.310218,0 -0.806565,0 -0.806565,0.620435 0,0.589412 0.496347,0.589412 0.775543,0.589412 h 0.89963 v 5.056541 c 0,1.923347 1.3649557,2.388673 2.791955,2.388673 0.8375865,0 1.6441513,-0.217152 2.3576509,-0.744521 z m 0,0"
         id="path1896" />
      <path
         style="fill:#000000;fill-opacity:1;stroke:none;stroke-width:0"
         d="m 1.7156446,-65.356793 h 3.2262593 c 0.3102172,0 0.8065648,0 0.8065648,-0.589412 0,-0.620435 -0.4963476,-0.620435 -0.8065648,-0.620435 H 1.7156446 v -1.61313 c 0,-0.37226 0,-0.806564 -0.6824779,-0.806564 -0.6824779,0 -0.6824779,0.403282 -0.6824779,0.806564 v 1.61313 h -1.7372165 c -0.3102173,0 -0.8065648,0 -0.8065648,0.620435 0,0.589412 0.4963475,0.589412 0.7755431,0.589412 h 1.7682382 v 4.839389 c 0,1.892325 1.3339341,2.605825 2.7919551,2.605825 1.458021,0 3.0401289,-0.868608 3.0401289,-2.605825 0,-0.372261 0,-0.775543 -0.6824779,-0.775543 -0.6514562,0 -0.6824779,0.403282 -0.6824779,0.744521 0,1.240869 -1.1478038,1.427 -1.5821079,1.427 -1.5200645,0 -1.5200645,-1.023717 -1.5200645,-1.520065 z m 0,0"
         id="path1898" />
    </g>
    <g
       id="g1916"
       transform="translate(4.79079,192.81666)">
      <path
         style="fill:#000000;fill-opacity:1;stroke:none;stroke-width:0"
         d="m 187.5174,-65.635988 c 0,-0.620435 0,-0.930652 -0.80656,-0.930652 h -1.427 c -0.31022,0 -0.80657,0 -0.80657,0.620435 0,0.589412 0.49635,0.589412 0.77555,0.589412 h 0.89963 v 6.11128 h -0.86861 c -0.31022,0 -0.80657,0 -0.80657,0.620434 0,0.589413 0.49635,0.589413 0.77555,0.589413 h 3.16421 c 0.2792,0 0.77555,0 0.77555,-0.589413 0,-0.620434 -0.49635,-0.620434 -0.80657,-0.620434 h -0.86861 v -3.505455 c 0,-1.98539 1.45802,-2.729912 2.48174,-2.729912 1.02372,0 1.30291,0.558391 1.30291,1.737217 v 4.49815 h -0.74452 c -0.34124,0 -0.83758,0 -0.83758,0.620434 0,0.589413 0.55839,0.589413 0.83758,0.589413 h 3.00911 c 0.27919,0 0.80656,0 0.80656,-0.589413 0,-0.620434 -0.49634,-0.620434 -0.83758,-0.620434 h -0.86861 v -4.591215 c 0,-1.985391 -0.9927,-2.853999 -2.5748,-2.853999 -1.30292,0 -2.20255,0.682478 -2.57481,1.054739 z m 0,0"
         id="path1908" />
      <path
         style="fill:#000000;fill-opacity:1;stroke:none;stroke-width:0"
         d="m 203.85716,-62.316664 c 0,-2.481738 -1.83028,-4.436106 -4.06384,-4.436106 -2.20254,0 -4.06385,1.954368 -4.06385,4.436106 0,2.51276 1.89233,4.405085 4.06385,4.405085 2.17152,0 4.06384,-1.892325 4.06384,-4.405085 z m -4.06384,3.195238 c -1.45802,0 -2.69889,-1.489043 -2.69889,-3.319325 0,-1.79926 1.30291,-3.102172 2.69889,-3.102172 1.427,0 2.69889,1.302912 2.69889,3.102172 0,1.830282 -1.24087,3.319325 -2.69889,3.319325 z m 0,0"
         id="path1910" />
      <path
         style="fill:#000000;fill-opacity:1;stroke:none;stroke-width:0"
         d="m 209.40335,-65.356793 h 3.22626 c 0.31022,0 0.80657,0 0.80657,-0.589412 0,-0.620435 -0.49635,-0.620435 -0.80657,-0.620435 h -3.22626 v -1.61313 c 0,-0.37226 0,-0.806564 -0.68247,-0.806564 -0.68248,0 -0.68248,0.403282 -0.68248,0.806564 v 1.61313 h -1.73722 c -0.31021,0 -0.80656,0 -0.80656,0.620435 0,0.589412 0.49635,0.589412 0.77554,0.589412 h 1.76824 v 4.839389 c 0,1.892325 1.33393,2.605825 2.79195,2.605825 1.45803,0 3.04013,-0.868608 3.04013,-2.605825 0,-0.372261 0,-0.775543 -0.68248,-0.775543 -0.65145,0 -0.68247,0.403282 -0.68247,0.744521 0,1.240869 -1.14781,1.427 -1.58211,1.427 -1.52007,0 -1.52007,-1.023717 -1.52007,-1.520065 z m 0,0"
         id="path1912" />
      <path
         style="fill:#000000;fill-opacity:1;stroke:none;stroke-width:0"
         d="m 222.64094,-58.6561 c 0.43431,0.589412 1.36496,0.620434 2.10948,0.620434 0.55839,0 0.9927,0 0.9927,-0.620434 0,-0.589413 -0.49635,-0.589413 -0.77555,-0.589413 -0.83758,0 -1.02371,-0.09306 -1.17882,-0.155109 v -4.280998 c 0,-1.395977 -1.08576,-3.07115 -3.93976,-3.07115 -0.83759,0 -2.854,0 -2.854,1.458021 0,0.589412 0.40328,0.89963 0.86861,0.89963 0.31022,0 0.86861,-0.186131 0.86861,-0.89963 0,-0.155109 0.031,-0.186131 0.4343,-0.217152 0.2792,-0.03102 0.52737,-0.03102 0.7135,-0.03102 1.48904,0 2.51276,0.620434 2.51276,2.016412 -3.47443,0.06204 -5.92515,1.054739 -5.92515,2.947064 0,1.364956 1.24087,2.667868 3.25728,2.667868 0.74452,0 1.98539,-0.155109 2.91604,-0.744521 z m -0.24817,-3.691586 v 1.675174 c 0,0.434304 0,0.868608 -0.74452,1.209847 -0.7135,0.341239 -1.61313,0.341239 -1.76824,0.341239 -1.24087,0 -2.04743,-0.682478 -2.04743,-1.458021 0,-0.961674 1.70619,-1.706195 4.56019,-1.768239 z m 0,0"
         id="path1914" />
    </g>
    <g
       id="g1928"
       transform="translate(159.58544,289.74551)">
      <path
         style="fill:#000000;fill-opacity:1;stroke:none;stroke-width:0"
         d="m -48.500087,-65.760075 c 0,-0.620435 -0.124087,-0.806565 -0.775544,-0.806565 h -2.822976 c -0.310218,0 -0.806565,0 -0.806565,0.589413 0,0.620434 0.496347,0.620434 0.806565,0.620434 h 2.233564 v 6.11128 h -2.388673 c -0.310217,0 -0.806565,0 -0.806565,0.620434 0,0.589413 0.496348,0.589413 0.806565,0.589413 h 5.832084 c 0.310217,0 0.806565,0 0.806565,-0.589413 0,-0.620434 -0.496348,-0.620434 -0.806565,-0.620434 h -2.078455 z m 0,-3.41239 c 0,-0.527369 -0.434305,-0.961673 -0.992696,-0.961673 -0.558391,0 -0.992695,0.434304 -0.992695,0.961673 0,0.558391 0.434304,0.992695 0.992695,0.992695 0.558391,0 0.992696,-0.434304 0.992696,-0.992695 z m 0,0"
         id="path1924" />
      <path
         style="fill:#000000;fill-opacity:1;stroke:none;stroke-width:0"
         d="m -40.937488,-65.635988 c 0,-0.620435 0,-0.930652 -0.806565,-0.930652 h -1.426999 c -0.310218,0 -0.806565,0 -0.806565,0.620435 0,0.589412 0.496347,0.589412 0.775543,0.589412 h 0.89963 v 6.11128 h -0.868608 c -0.310218,0 -0.806565,0 -0.806565,0.620434 0,0.589413 0.496347,0.589413 0.775543,0.589413 h 3.164216 c 0.279195,0 0.775543,0 0.775543,-0.589413 0,-0.620434 -0.496348,-0.620434 -0.806565,-0.620434 h -0.868608 v -3.505455 c 0,-1.98539 1.458021,-2.729912 2.481738,-2.729912 1.023716,0 1.302912,0.558391 1.302912,1.737217 v 4.49815 h -0.744521 c -0.341239,0 -0.837587,0 -0.837587,0.620434 0,0.589413 0.558391,0.589413 0.837587,0.589413 h 3.009107 c 0.279195,0 0.806565,0 0.806565,-0.589413 0,-0.620434 -0.496348,-0.620434 -0.837587,-0.620434 h -0.868608 v -4.591215 c 0,-1.985391 -0.992695,-2.853999 -2.574803,-2.853999 -1.302913,0 -2.202543,0.682478 -2.574803,1.054739 z m 0,0"
         id="path1926" />
    </g>
    <g
       id="g1936"
       transform="translate(184.64803,289.1561)">
      <path
         style="fill:#000000;fill-opacity:1;stroke:none;stroke-width:0"
         d="m -14.212149,-62.316664 c 0,-2.481738 -1.830282,-4.436106 -4.063846,-4.436106 -2.202543,0 -4.063846,1.954368 -4.063846,4.436106 0,2.51276 1.892325,4.405085 4.063846,4.405085 2.17152,0 4.063846,-1.892325 4.063846,-4.405085 z m -4.063846,3.195238 c -1.458021,0 -2.69889,-1.489043 -2.69889,-3.319325 0,-1.79926 1.302912,-3.102172 2.69889,-3.102172 1.426999,0 2.69889,1.302912 2.69889,3.102172 0,1.830282 -1.240869,3.319325 -2.69889,3.319325 z m 0,0"
         id="path1930" />
      <path
         style="fill:#000000;fill-opacity:1;stroke:none;stroke-width:0"
         d="m -6.0000781,-58.6561 c 0.031022,0.620434 0.4343042,0.620434 0.8065649,0.620434 h 1.4269992 c 0.341239,0 0.8375866,0 0.8375866,-0.620434 0,-0.589413 -0.5273693,-0.589413 -0.8065648,-0.589413 h -0.89963 v -6.514562 c 0,-0.620435 -0.093065,-0.806565 -0.7755431,-0.806565 h -1.458021 c -0.3102172,0 -0.8065648,0 -0.8065648,0.620435 0,0.589412 0.5273693,0.589412 0.8065648,0.589412 h 0.8686082 v 4.218955 c 0,1.768238 -1.5821079,2.016412 -2.233564,2.016412 -1.5510862,0 -1.5510862,-0.651457 -1.5510862,-1.302913 v -5.335736 c 0,-0.620435 -0.1240869,-0.806565 -0.8065647,-0.806565 h -1.426999 c -0.310218,0 -0.806565,0 -0.806565,0.620435 0,0.589412 0.496347,0.589412 0.775543,0.589412 h 0.89963 v 5.056541 c 0,1.923347 1.3649557,2.388673 2.791955,2.388673 0.8375865,0 1.6441513,-0.217152 2.3576509,-0.744521 z m 0,0"
         id="path1932" />
      <path
         style="fill:#000000;fill-opacity:1;stroke:none;stroke-width:0"
         d="m 1.7156446,-65.356793 h 3.2262593 c 0.3102172,0 0.8065648,0 0.8065648,-0.589412 0,-0.620435 -0.4963476,-0.620435 -0.8065648,-0.620435 H 1.7156446 v -1.61313 c 0,-0.37226 0,-0.806564 -0.6824779,-0.806564 -0.6824779,0 -0.6824779,0.403282 -0.6824779,0.806564 v 1.61313 h -1.7372165 c -0.3102173,0 -0.8065648,0 -0.8065648,0.620435 0,0.589412 0.4963475,0.589412 0.7755431,0.589412 h 1.7682382 v 4.839389 c 0,1.892325 1.3339341,2.605825 2.7919551,2.605825 1.458021,0 3.0401289,-0.868608 3.0401289,-2.605825 0,-0.372261 0,-0.775543 -0.6824779,-0.775543 -0.6514562,0 -0.6824779,0.403282 -0.6824779,0.744521 0,1.240869 -1.1478038,1.427 -1.5821079,1.427 -1.5200645,0 -1.5200645,-1.023717 -1.5200645,-1.520065 z m 0,0"
         id="path1934" />
    </g>
    <path
       style="fill:#000000;fill-opacity:1;stroke:none;stroke-width:0"
       d="m 281.84318,10.499998 c 0.4343,0.589412 1.36496,0.620434 2.10948,0.620434 0.55839,0 0.99269,0 0.99269,-0.620434 0,-0.589413 -0.49634,-0.589413 -0.77554,-0.589413 -0.83759,0 -1.02372,-0.09306 -1.17883,-0.155109 V 5.474478 c 0,-1.395977 -1.08576,-3.07115 -3.93975,-3.07115 -0.83759,0 -2.854,0 -2.854,1.458021 0,0.589412 0.40328,0.89963 0.86861,0.89963 0.31021,0 0.8686,-0.186131 0.8686,-0.89963 0,-0.155109 0.031,-0.186131 0.43431,-0.217152 0.27919,-0.03102 0.52737,-0.03102 0.7135,-0.03102 1.48904,0 2.51276,0.620434 2.51276,2.016412 -3.47444,0.06204 -5.92515,1.054739 -5.92515,2.947064 0,1.364956 1.24087,2.667868 3.25728,2.667868 0.74452,0 1.98539,-0.155109 2.91604,-0.744521 z m -0.24817,-3.691586 v 1.675174 c 0,0.434304 0,0.868608 -0.74452,1.209847 -0.7135,0.341239 -1.61313,0.341239 -1.76824,0.341239 -1.24087,0 -2.04744,-0.682478 -2.04744,-1.458021 0,-0.961674 1.7062,-1.706195 4.5602,-1.768239 z m 0,0"
       id="path1938" />
    <path
       style="fill:#000000;fill-opacity:1;stroke:none;stroke-width:0"
       d="m 278.64795,53.706243 v -3.59852 c 0,-0.589413 -0.12409,-0.806565 -0.80656,-0.806565 h -1.427 c -0.31022,0 -0.80657,0 -0.80657,0.620434 0,0.589413 0.49635,0.589413 0.77554,0.589413 h 0.89963 v 10.08206 c 0,0.403283 0,0.806565 0.68248,0.806565 0.68248,0 0.68248,-0.403282 0.68248,-0.89963 0.80656,0.837587 1.67517,1.023717 2.29561,1.023717 2.1405,0 4.06384,-1.892325 4.06384,-4.405085 0,-2.419694 -1.73721,-4.374063 -3.84669,-4.374063 -0.96167,0 -1.83028,0.372261 -2.51276,0.961674 z m 0,3.908737 v -1.427 c 0,-1.178825 1.1478,-2.233564 2.38867,-2.233564 1.45802,0 2.60583,1.458021 2.60583,3.164216 0,1.892325 -1.36496,3.195238 -2.76094,3.195238 -1.55108,0 -2.23356,-1.737217 -2.23356,-2.69889 z m 0,0"
       id="path1940" />
    <g
       id="g1948"
       transform="translate(376.92394,79.621426)">
      <path
         style="fill:#000000;fill-opacity:1;stroke:none;stroke-width:0"
         d="m -14.212149,-62.316664 c 0,-2.481738 -1.830282,-4.436106 -4.063846,-4.436106 -2.202543,0 -4.063846,1.954368 -4.063846,4.436106 0,2.51276 1.892325,4.405085 4.063846,4.405085 2.17152,0 4.063846,-1.892325 4.063846,-4.405085 z m -4.063846,3.195238 c -1.458021,0 -2.69889,-1.489043 -2.69889,-3.319325 0,-1.79926 1.302912,-3.102172 2.69889,-3.102172 1.426999,0 2.69889,1.302912 2.69889,3.102172 0,1.830282 -1.240869,3.319325 -2.69889,3.319325 z m 0,0"
         id="path1942" />
      <path
         style="fill:#000000;fill-opacity:1;stroke:none;stroke-width:0"
         d="m -6.0000781,-58.6561 c 0.031022,0.620434 0.4343042,0.620434 0.8065649,0.620434 h 1.4269992 c 0.341239,0 0.8375866,0 0.8375866,-0.620434 0,-0.589413 -0.5273693,-0.589413 -0.8065648,-0.589413 h -0.89963 v -6.514562 c 0,-0.620435 -0.093065,-0.806565 -0.7755431,-0.806565 h -1.458021 c -0.3102172,0 -0.8065648,0 -0.8065648,0.620435 0,0.589412 0.5273693,0.589412 0.8065648,0.589412 h 0.8686082 v 4.218955 c 0,1.768238 -1.5821079,2.016412 -2.233564,2.016412 -1.5510862,0 -1.5510862,-0.651457 -1.5510862,-1.302913 v -5.335736 c 0,-0.620435 -0.1240869,-0.806565 -0.8065647,-0.806565 h -1.426999 c -0.310218,0 -0.806565,0 -0.806565,0.620435 0,0.589412 0.496347,0.589412 0.775543,0.589412 h 0.89963 v 5.056541 c 0,1.923347 1.3649557,2.388673 2.791955,2.388673 0.8375865,0 1.6441513,-0.217152 2.3576509,-0.744521 z m 0,0"
         id="path1944" />
      <path
         style="fill:#000000;fill-opacity:1;stroke:none;stroke-width:0"
         d="m 1.7156446,-65.356793 h 3.2262593 c 0.3102172,0 0.8065648,0 0.8065648,-0.589412 0,-0.620435 -0.4963476,-0.620435 -0.8065648,-0.620435 H 1.7156446 v -1.61313 c 0,-0.37226 0,-0.806564 -0.6824779,-0.806564 -0.6824779,0 -0.6824779,0.403282 -0.6824779,0.806564 v 1.61313 h -1.7372165 c -0.3102173,0 -0.8065648,0 -0.8065648,0.620435 0,0.589412 0.4963475,0.589412 0.7755431,0.589412 h 1.7682382 v 4.839389 c 0,1.892325 1.3339341,2.605825 2.7919551,2.605825 1.458021,0 3.0401289,-0.868608 3.0401289,-2.605825 0,-0.372261 0,-0.775543 -0.6824779,-0.775543 -0.6514562,0 -0.6824779,0.403282 -0.6824779,0.744521 0,1.240869 -1.1478038,1.427 -1.5821079,1.427 -1.5200645,0 -1.5200645,-1.023717 -1.5200645,-1.520065 z m 0,0"
         id="path1946" />
    </g>
    <g
       id="g1976"
       transform="translate(11.93609,149.62143)">
      <path
         style="fill:#000000;fill-opacity:1;stroke:none;stroke-width:0"
         d="m 336.86839,-58.6561 c 0.43431,0.589412 1.36496,0.620434 2.10948,0.620434 0.55839,0 0.9927,0 0.9927,-0.620434 0,-0.589413 -0.49635,-0.589413 -0.77555,-0.589413 -0.83758,0 -1.02371,-0.09306 -1.17882,-0.155109 v -4.280998 c 0,-1.395977 -1.08576,-3.07115 -3.93976,-3.07115 -0.83759,0 -2.854,0 -2.854,1.458021 0,0.589412 0.40328,0.89963 0.86861,0.89963 0.31022,0 0.86861,-0.186131 0.86861,-0.89963 0,-0.155109 0.031,-0.186131 0.4343,-0.217152 0.2792,-0.03102 0.52737,-0.03102 0.7135,-0.03102 1.48904,0 2.51276,0.620434 2.51276,2.016412 -3.47443,0.06204 -5.92515,1.054739 -5.92515,2.947064 0,1.364956 1.24087,2.667868 3.25728,2.667868 0.74452,0 1.98539,-0.155109 2.91604,-0.744521 z m -0.24817,-3.691586 v 1.675174 c 0,0.434304 0,0.868608 -0.74452,1.209847 -0.7135,0.341239 -1.61313,0.341239 -1.76824,0.341239 -1.24087,0 -2.04743,-0.682478 -2.04743,-1.458021 0,-0.961674 1.70619,-1.706195 4.56019,-1.768239 z m 0,0"
         id="path1960" />
      <path
         style="fill:#000000;fill-opacity:1;stroke:none;stroke-width:0"
         d="m 346.25929,-69.606769 c -0.18613,-0.744521 -0.46533,-0.744521 -1.08576,-0.744521 -0.55839,0 -0.89963,0 -1.05474,0.744521 l -2.38867,10.361256 c -0.2792,0 -0.74452,0 -0.86861,0.03102 -0.21715,0.124086 -0.34124,0.341238 -0.34124,0.589412 0,0.589413 0.52737,0.589413 0.86861,0.589413 h 2.01641 c 0.34124,0 0.83759,0 0.83759,-0.589413 0,-0.620434 -0.40329,-0.620434 -1.11679,-0.620434 l 0.43431,-2.047434 h 3.22626 l 0.46532,2.047434 c -0.7135,0 -1.11678,0 -1.11678,0.620434 0,0.589413 0.46533,0.589413 0.83759,0.589413 h 2.01641 c 0.31022,0 0.83759,0 0.83759,-0.589413 0,-0.248174 -0.0931,-0.465326 -0.34124,-0.558391 -0.12409,-0.06204 -0.55839,-0.06204 -0.83759,-0.06204 z m -1.08576,0.837587 h 0.031 l 1.27189,6.266388 h -2.60582 z m 0,0"
         id="path1962" />
      <path
         style="fill:#000000;fill-opacity:1;stroke:none;stroke-width:0"
         d="m 353.66677,-65.635988 c 0,-0.620435 0,-0.930652 -0.80656,-0.930652 h -1.427 c -0.31022,0 -0.80657,0 -0.80657,0.620435 0,0.589412 0.49635,0.589412 0.77555,0.589412 h 0.89963 v 6.11128 h -0.86861 c -0.31022,0 -0.80657,0 -0.80657,0.620434 0,0.589413 0.49635,0.589413 0.77555,0.589413 h 3.16421 c 0.2792,0 0.77555,0 0.77555,-0.589413 0,-0.620434 -0.49635,-0.620434 -0.80657,-0.620434 h -0.86861 v -3.505455 c 0,-1.98539 1.45802,-2.729912 2.48174,-2.729912 1.02372,0 1.30291,0.558391 1.30291,1.737217 v 4.49815 h -0.74452 c -0.34124,0 -0.83758,0 -0.83758,0.620434 0,0.589413 0.55839,0.589413 0.83758,0.589413 h 3.00911 c 0.27919,0 0.80656,0 0.80656,-0.589413 0,-0.620434 -0.49634,-0.620434 -0.83758,-0.620434 h -0.86861 v -4.591215 c 0,-1.985391 -0.9927,-2.853999 -2.5748,-2.853999 -1.30292,0 -2.20255,0.682478 -2.57481,1.054739 z m 0,0"
         id="path1964" />
      <path
         style="fill:#000000;fill-opacity:1;stroke:none;stroke-width:0"
         d="m 367.83501,-59.028361 c 0,0.713499 0,0.992695 0.80657,0.992695 h 1.427 c 0.34124,0 0.83758,0 0.83758,-0.620434 0,-0.589413 -0.52737,-0.589413 -0.80656,-0.589413 h -0.89963 v -10.08206 c 0,-0.589413 -0.0931,-0.806565 -0.77554,-0.806565 h -1.45803 c -0.31021,0 -0.80656,0 -0.80656,0.620434 0,0.589413 0.52737,0.589413 0.80656,0.589413 h 0.86861 v 3.133194 c -0.65145,-0.589413 -1.45802,-0.89963 -2.2956,-0.89963 -2.17153,0 -4.06385,1.892325 -4.06385,4.405085 0,2.450716 1.76824,4.374063 3.87772,4.374063 1.11678,0 1.95436,-0.527369 2.48173,-1.116782 z m 0,-4.249976 v 1.395977 c 0,1.116782 -0.86861,2.760934 -2.38867,2.760934 -1.427,0 -2.60582,-1.395978 -2.60582,-3.164216 0,-1.892325 1.39597,-3.195238 2.76093,-3.195238 1.27189,0 2.23356,1.116782 2.23356,2.202543 z m 0,0"
         id="path1966" />
      <path
         style="fill:#000000;fill-opacity:1;stroke:none;stroke-width:0"
         d="m 374.89929,-69.420639 c -0.21715,-0.651456 -0.52737,-0.713499 -1.05474,-0.713499 h -1.36496 c -0.27919,0 -0.77554,0 -0.77554,0.589413 0,0.620434 0.46533,0.620434 0.77554,0.620434 h 0.49635 v 9.678778 h -0.49635 c -0.27919,0 -0.77554,0 -0.77554,0.589413 0,0.620434 0.46533,0.620434 0.77554,0.620434 h 2.10948 c 0.31022,0 0.80657,0 0.80657,-0.589413 0,-0.620434 -0.49635,-0.620434 -0.80657,-0.620434 h -0.49635 v -9.399582 h 0.031 l 3.62954,9.895929 c 0.24817,0.682478 0.58941,0.7135 1.08576,0.7135 0.58941,0 0.83758,-0.06204 0.83758,-0.806565 v -10.08206 h 0.49635 c 0.2792,0 0.77554,0 0.77554,-0.589413 0,-0.620434 -0.46532,-0.620434 -0.77554,-0.620434 h -2.10948 c -0.31021,0 -0.77554,0 -0.77554,0.620434 0,0.589413 0.49635,0.589413 0.77554,0.589413 h 0.49635 v 9.399582 z m 0,0"
         id="path1968" />
      <path
         style="fill:#000000;fill-opacity:1;stroke:none;stroke-width:0"
         d="m 390.7757,-62.316664 c 0,-2.481738 -1.83028,-4.436106 -4.06384,-4.436106 -2.20254,0 -4.06385,1.954368 -4.06385,4.436106 0,2.51276 1.89233,4.405085 4.06385,4.405085 2.17152,0 4.06384,-1.892325 4.06384,-4.405085 z m -4.06384,3.195238 c -1.45802,0 -2.69889,-1.489043 -2.69889,-3.319325 0,-1.79926 1.30291,-3.102172 2.69889,-3.102172 1.427,0 2.69889,1.302912 2.69889,3.102172 0,1.830282 -1.24087,3.319325 -2.69889,3.319325 z m 0,0"
         id="path1970" />
      <path
         style="fill:#000000;fill-opacity:1;stroke:none;stroke-width:0"
         d="m 396.3199,-65.356793 h 3.22626 c 0.31022,0 0.80657,0 0.80657,-0.589412 0,-0.620435 -0.49635,-0.620435 -0.80657,-0.620435 h -3.22626 v -1.61313 c 0,-0.37226 0,-0.806564 -0.68247,-0.806564 -0.68248,0 -0.68248,0.403282 -0.68248,0.806564 v 1.61313 h -1.73722 c -0.31021,0 -0.80656,0 -0.80656,0.620435 0,0.589412 0.49635,0.589412 0.77554,0.589412 h 1.76824 v 4.839389 c 0,1.892325 1.33393,2.605825 2.79195,2.605825 1.45803,0 3.04013,-0.868608 3.04013,-2.605825 0,-0.372261 0,-0.775543 -0.68248,-0.775543 -0.65145,0 -0.68247,0.403282 -0.68247,0.744521 0,1.240869 -1.14781,1.427 -1.58211,1.427 -1.52007,0 -1.52007,-1.023717 -1.52007,-1.520065 z m 0,0"
         id="path1972" />
      <path
         style="fill:#000000;fill-opacity:1;stroke:none;stroke-width:0"
         d="m 405.5887,-65.729053 v -3.59852 c 0,-0.589413 -0.12408,-0.806565 -0.80656,-0.806565 h -1.427 c -0.31022,0 -0.80657,0 -0.80657,0.620434 0,0.589413 0.49635,0.589413 0.77555,0.589413 h 0.89963 v 10.08206 c 0,0.403283 0,0.806565 0.68247,0.806565 0.68248,0 0.68248,-0.403282 0.68248,-0.89963 0.80657,0.837587 1.67518,1.023717 2.29561,1.023717 2.1405,0 4.06385,-1.892325 4.06385,-4.405085 0,-2.419694 -1.73722,-4.374063 -3.8467,-4.374063 -0.96167,0 -1.83028,0.372261 -2.51276,0.961674 z m 0,3.908737 v -1.427 c 0,-1.178825 1.14781,-2.233564 2.38868,-2.233564 1.45802,0 2.60582,1.458021 2.60582,3.164216 0,1.892325 -1.36496,3.195238 -2.76093,3.195238 -1.55109,0 -2.23357,-1.737217 -2.23357,-2.69889 z m 0,0"
         id="path1974" />
    </g>
    <g
       id="g2004"
       transform="translate(103.50205,289.74551)">
      <path
         style="fill:#000000;fill-opacity:1;stroke:none;stroke-width:0"
         d="m 239.43933,-65.635988 c 0,-0.620435 0,-0.930652 -0.80656,-0.930652 h -1.427 c -0.31022,0 -0.80657,0 -0.80657,0.620435 0,0.589412 0.49635,0.589412 0.77555,0.589412 h 0.89963 v 6.11128 h -0.86861 c -0.31022,0 -0.80657,0 -0.80657,0.620434 0,0.589413 0.49635,0.589413 0.77555,0.589413 h 3.16421 c 0.2792,0 0.77555,0 0.77555,-0.589413 0,-0.620434 -0.49635,-0.620434 -0.80657,-0.620434 h -0.86861 v -3.505455 c 0,-1.98539 1.45802,-2.729912 2.48174,-2.729912 1.02372,0 1.30291,0.558391 1.30291,1.737217 v 4.49815 h -0.74452 c -0.34124,0 -0.83758,0 -0.83758,0.620434 0,0.589413 0.55839,0.589413 0.83758,0.589413 h 3.00911 c 0.27919,0 0.80656,0 0.80656,-0.589413 0,-0.620434 -0.49634,-0.620434 -0.83758,-0.620434 h -0.86861 v -4.591215 c 0,-1.985391 -0.9927,-2.853999 -2.5748,-2.853999 -1.30292,0 -2.20255,0.682478 -2.57481,1.054739 z m 0,0"
         id="path1988" />
      <path
         style="fill:#000000;fill-opacity:1;stroke:none;stroke-width:0"
         d="m 255.77909,-62.316664 c 0,-2.481738 -1.83028,-4.436106 -4.06384,-4.436106 -2.20254,0 -4.06385,1.954368 -4.06385,4.436106 0,2.51276 1.89233,4.405085 4.06385,4.405085 2.17152,0 4.06384,-1.892325 4.06384,-4.405085 z m -4.06384,3.195238 c -1.45802,0 -2.69889,-1.489043 -2.69889,-3.319325 0,-1.79926 1.30291,-3.102172 2.69889,-3.102172 1.427,0 2.69889,1.302912 2.69889,3.102172 0,1.830282 -1.24087,3.319325 -2.69889,3.319325 z m 0,0"
         id="path1990" />
      <path
         style="fill:#000000;fill-opacity:1;stroke:none;stroke-width:0"
         d="m 261.32329,-65.356793 h 3.22626 c 0.31022,0 0.80657,0 0.80657,-0.589412 0,-0.620435 -0.49635,-0.620435 -0.80657,-0.620435 h -3.22626 v -1.61313 c 0,-0.37226 0,-0.806564 -0.68247,-0.806564 -0.68248,0 -0.68248,0.403282 -0.68248,0.806564 v 1.61313 h -1.73722 c -0.31021,0 -0.80656,0 -0.80656,0.620435 0,0.589412 0.49635,0.589412 0.77554,0.589412 h 1.76824 v 4.839389 c 0,1.892325 1.33393,2.605825 2.79195,2.605825 1.45803,0 3.04013,-0.868608 3.04013,-2.605825 0,-0.372261 0,-0.775543 -0.68248,-0.775543 -0.65145,0 -0.68247,0.403282 -0.68247,0.744521 0,1.240869 -1.14781,1.427 -1.58211,1.427 -1.52007,0 -1.52007,-1.023717 -1.52007,-1.520065 z m 0,0"
         id="path1992" />
      <path
         style="fill:#000000;fill-opacity:1;stroke:none;stroke-width:0"
         d="m 274.56287,-58.6561 c 0.43431,0.589412 1.36496,0.620434 2.10948,0.620434 0.55839,0 0.9927,0 0.9927,-0.620434 0,-0.589413 -0.49635,-0.589413 -0.77555,-0.589413 -0.83758,0 -1.02371,-0.09306 -1.17882,-0.155109 v -4.280998 c 0,-1.395977 -1.08576,-3.07115 -3.93976,-3.07115 -0.83759,0 -2.854,0 -2.854,1.458021 0,0.589412 0.40328,0.89963 0.86861,0.89963 0.31022,0 0.86861,-0.186131 0.86861,-0.89963 0,-0.155109 0.031,-0.186131 0.4343,-0.217152 0.2792,-0.03102 0.52737,-0.03102 0.7135,-0.03102 1.48904,0 2.51276,0.620434 2.51276,2.016412 -3.47443,0.06204 -5.92515,1.054739 -5.92515,2.947064 0,1.364956 1.24087,2.667868 3.25728,2.667868 0.74452,0 1.98539,-0.155109 2.91604,-0.744521 z m -0.24817,-3.691586 v 1.675174 c 0,0.434304 0,0.868608 -0.74452,1.209847 -0.7135,0.341239 -1.61313,0.341239 -1.76824,0.341239 -1.24087,0 -2.04743,-0.682478 -2.04743,-1.458021 0,-0.961674 1.70619,-1.706195 4.56019,-1.768239 z m 0,0"
         id="path1994" />
      <path
         style="fill:#000000;fill-opacity:1;stroke:none;stroke-width:0"
         d="m 283.95377,-69.606769 c -0.18613,-0.744521 -0.46533,-0.744521 -1.08576,-0.744521 -0.55839,0 -0.89963,0 -1.05474,0.744521 l -2.38867,10.361256 c -0.2792,0 -0.74452,0 -0.86861,0.03102 -0.21715,0.124086 -0.34124,0.341238 -0.34124,0.589412 0,0.589413 0.52737,0.589413 0.86861,0.589413 h 2.01641 c 0.34124,0 0.83759,0 0.83759,-0.589413 0,-0.620434 -0.40329,-0.620434 -1.11679,-0.620434 l 0.43431,-2.047434 h 3.22626 l 0.46532,2.047434 c -0.7135,0 -1.11678,0 -1.11678,0.620434 0,0.589413 0.46533,0.589413 0.83759,0.589413 h 2.01641 c 0.31022,0 0.83759,0 0.83759,-0.589413 0,-0.248174 -0.0931,-0.465326 -0.34124,-0.558391 -0.12409,-0.06204 -0.55839,-0.06204 -0.83759,-0.06204 z m -1.08576,0.837587 h 0.031 l 1.27189,6.266388 h -2.60582 z m 0,0"
         id="path1996" />
      <path
         style="fill:#000000;fill-opacity:1;stroke:none;stroke-width:0"
         d="m 291.36125,-65.635988 c 0,-0.620435 0,-0.930652 -0.80656,-0.930652 h -1.427 c -0.31022,0 -0.80657,0 -0.80657,0.620435 0,0.589412 0.49635,0.589412 0.77555,0.589412 h 0.89963 v 6.11128 h -0.86861 c -0.31022,0 -0.80657,0 -0.80657,0.620434 0,0.589413 0.49635,0.589413 0.77555,0.589413 h 3.16421 c 0.2792,0 0.77555,0 0.77555,-0.589413 0,-0.620434 -0.49635,-0.620434 -0.80657,-0.620434 h -0.86861 v -3.505455 c 0,-1.98539 1.45802,-2.729912 2.48174,-2.729912 1.02372,0 1.30291,0.558391 1.30291,1.737217 v 4.49815 h -0.74452 c -0.34124,0 -0.83758,0 -0.83758,0.620434 0,0.589413 0.55839,0.589413 0.83758,0.589413 h 3.00911 c 0.27919,0 0.80656,0 0.80656,-0.589413 0,-0.620434 -0.49634,-0.620434 -0.83758,-0.620434 h -0.86861 v -4.591215 c 0,-1.985391 -0.9927,-2.853999 -2.5748,-2.853999 -1.30292,0 -2.20255,0.682478 -2.57481,1.054739 z m 0,0"
         id="path1998" />
      <path
         style="fill:#000000;fill-opacity:1;stroke:none;stroke-width:0"
         d="m 305.5295,-59.028361 c 0,0.713499 0,0.992695 0.80657,0.992695 h 1.427 c 0.34124,0 0.83758,0 0.83758,-0.620434 0,-0.589413 -0.52737,-0.589413 -0.80656,-0.589413 h -0.89963 v -10.08206 c 0,-0.589413 -0.0931,-0.806565 -0.77554,-0.806565 h -1.45803 c -0.31021,0 -0.80656,0 -0.80656,0.620434 0,0.589413 0.52737,0.589413 0.80656,0.589413 h 0.86861 v 3.133194 c -0.65145,-0.589413 -1.45802,-0.89963 -2.2956,-0.89963 -2.17153,0 -4.06385,1.892325 -4.06385,4.405085 0,2.450716 1.76824,4.374063 3.87772,4.374063 1.11678,0 1.95436,-0.527369 2.48173,-1.116782 z m 0,-4.249976 v 1.395977 c 0,1.116782 -0.86861,2.760934 -2.38867,2.760934 -1.427,0 -2.60582,-1.395978 -2.60582,-3.164216 0,-1.892325 1.39597,-3.195238 2.76093,-3.195238 1.27189,0 2.23356,1.116782 2.23356,2.202543 z m 0,0"
         id="path2000" />
      <path
         style="fill:#000000;fill-opacity:1;stroke:none;stroke-width:0"
         d="m 312.12844,-65.729053 v -3.59852 c 0,-0.589413 -0.12408,-0.806565 -0.80656,-0.806565 h -1.427 c -0.31022,0 -0.80657,0 -0.80657,0.620434 0,0.589413 0.49635,0.589413 0.77555,0.589413 h 0.89963 v 10.08206 c 0,0.403283 0,0.806565 0.68247,0.806565 0.68248,0 0.68248,-0.403282 0.68248,-0.89963 0.80657,0.837587 1.67518,1.023717 2.29561,1.023717 2.1405,0 4.06385,-1.892325 4.06385,-4.405085 0,-2.419694 -1.73722,-4.374063 -3.8467,-4.374063 -0.96167,0 -1.83028,0.372261 -2.51276,0.961674 z m 0,3.908737 v -1.427 c 0,-1.178825 1.14781,-2.233564 2.38868,-2.233564 1.45802,0 2.60582,1.458021 2.60582,3.164216 0,1.892325 -1.36496,3.195238 -2.76093,3.195238 -1.55109,0 -2.23357,-1.737217 -2.23357,-2.69889 z m 0,0"
         id="path2002" />
    </g>
    <path
       style="fill:#000000;fill-opacity:1;stroke:none;stroke-width:0"
       d="m 418.64795,164.17606 c 0.4343,0.58941 1.36496,0.62043 2.10948,0.62043 0.55839,0 0.99269,0 0.99269,-0.62043 0,-0.58941 -0.49635,-0.58941 -0.77554,-0.58941 -0.83759,0 -1.02372,-0.0931 -1.17883,-0.15511 v -4.281 c 0,-1.39598 -1.08576,-3.07115 -3.93976,-3.07115 -0.83758,0 -2.85399,0 -2.85399,1.45802 0,0.58941 0.40328,0.89963 0.8686,0.89963 0.31022,0 0.86861,-0.18612 0.86861,-0.89963 0,-0.15511 0.031,-0.18612 0.43431,-0.21715 0.27919,-0.031 0.52737,-0.031 0.7135,-0.031 1.48904,0 2.51276,0.62043 2.51276,2.01641 -3.47444,0.062 -5.92515,1.05475 -5.92515,2.94706 0,1.36496 1.24087,2.66787 3.25728,2.66787 0.74452,0 1.98539,-0.15511 2.91604,-0.74452 z m -0.24817,-3.69159 v 1.67519 c 0,0.4343 0,0.86859 -0.74453,1.20984 -0.7135,0.34124 -1.61312,0.34124 -1.76823,0.34124 -1.24087,0 -2.04744,-0.68248 -2.04744,-1.45802 0,-0.96167 1.7062,-1.70619 4.5602,-1.76825 z m 0,0"
       id="path2006" />
    <path
       style="fill:#000000;fill-opacity:1;stroke:none;stroke-width:0"
       d="m 415.45272,178.7938 v -3.59852 c 0,-0.58941 -0.12409,-0.80656 -0.80657,-0.80656 h -1.42699 c -0.31022,0 -0.80657,0 -0.80657,0.62043 0,0.58941 0.49635,0.58941 0.77554,0.58941 h 0.89963 v 10.08206 c 0,0.40329 0,0.80657 0.68248,0.80657 0.68247,0 0.68247,-0.40328 0.68247,-0.89963 0.80656,0.83759 1.67517,1.02372 2.29562,1.02372 2.14049,0 4.06384,-1.89233 4.06384,-4.40509 0,-2.41969 -1.73721,-4.37406 -3.84669,-4.37406 -0.96168,0 -1.83029,0.37226 -2.51276,0.96167 z m 0,3.90874 v -1.427 c 0,-1.17882 1.1478,-2.23356 2.38867,-2.23356 1.45802,0 2.60583,1.45802 2.60583,3.16421 0,1.89233 -1.36496,3.19524 -2.76094,3.19524 -1.55108,0 -2.23356,-1.73722 -2.23356,-2.69889 z m 0,0"
       id="path2008" />
    <g
       id="g2016"
       transform="translate(544.64803,235.85679)">
      <path
         style="fill:#000000;fill-opacity:1;stroke:none;stroke-width:0"
         d="m -14.212149,-62.316664 c 0,-2.481738 -1.830282,-4.436106 -4.063846,-4.436106 -2.202543,0 -4.063846,1.954368 -4.063846,4.436106 0,2.51276 1.892325,4.405085 4.063846,4.405085 2.17152,0 4.063846,-1.892325 4.063846,-4.405085 z m -4.063846,3.195238 c -1.458021,0 -2.69889,-1.489043 -2.69889,-3.319325 0,-1.79926 1.302912,-3.102172 2.69889,-3.102172 1.426999,0 2.69889,1.302912 2.69889,3.102172 0,1.830282 -1.240869,3.319325 -2.69889,3.319325 z m 0,0"
         id="path2010" />
      <path
         style="fill:#000000;fill-opacity:1;stroke:none;stroke-width:0"
         d="m -6.0000781,-58.6561 c 0.031022,0.620434 0.4343042,0.620434 0.8065649,0.620434 h 1.4269992 c 0.341239,0 0.8375866,0 0.8375866,-0.620434 0,-0.589413 -0.5273693,-0.589413 -0.8065648,-0.589413 h -0.89963 v -6.514562 c 0,-0.620435 -0.093065,-0.806565 -0.7755431,-0.806565 h -1.458021 c -0.3102172,0 -0.8065648,0 -0.8065648,0.620435 0,0.589412 0.5273693,0.589412 0.8065648,0.589412 h 0.8686082 v 4.218955 c 0,1.768238 -1.5821079,2.016412 -2.233564,2.016412 -1.5510862,0 -1.5510862,-0.651457 -1.5510862,-1.302913 v -5.335736 c 0,-0.620435 -0.1240869,-0.806565 -0.8065647,-0.806565 h -1.426999 c -0.310218,0 -0.806565,0 -0.806565,0.620435 0,0.589412 0.496347,0.589412 0.775543,0.589412 h 0.89963 v 5.056541 c 0,1.923347 1.3649557,2.388673 2.791955,2.388673 0.8375865,0 1.6441513,-0.217152 2.3576509,-0.744521 z m 0,0"
         id="path2012" />
      <path
         style="fill:#000000;fill-opacity:1;stroke:none;stroke-width:0"
         d="m 1.7156446,-65.356793 h 3.2262593 c 0.3102172,0 0.8065648,0 0.8065648,-0.589412 0,-0.620435 -0.4963476,-0.620435 -0.8065648,-0.620435 H 1.7156446 v -1.61313 c 0,-0.37226 0,-0.806564 -0.6824779,-0.806564 -0.6824779,0 -0.6824779,0.403282 -0.6824779,0.806564 v 1.61313 h -1.7372165 c -0.3102173,0 -0.8065648,0 -0.8065648,0.620435 0,0.589412 0.4963475,0.589412 0.7755431,0.589412 h 1.7682382 v 4.839389 c 0,1.892325 1.3339341,2.605825 2.7919551,2.605825 1.458021,0 3.0401289,-0.868608 3.0401289,-2.605825 0,-0.372261 0,-0.775543 -0.6824779,-0.775543 -0.6514562,0 -0.6824779,0.403282 -0.6824779,0.744521 0,1.240869 -1.1478038,1.427 -1.5821079,1.427 -1.5200645,0 -1.5200645,-1.023717 -1.5200645,-1.520065 z m 0,0"
         id="path2014" />
    </g>
    <g
       id="g2033"
       transform="translate(241.57334,371.74551)">
      <path
         style="fill:#000000;fill-opacity:1;stroke:none;stroke-width:0"
         d="m 65.882466,-69.606769 c -0.18613,-0.744521 -0.465326,-0.744521 -1.08576,-0.744521 -0.558391,0 -0.89963,0 -1.054739,0.744521 l -2.388672,10.361256 c -0.279196,0 -0.744522,0 -0.868609,0.03102 -0.217152,0.124086 -0.341239,0.341238 -0.341239,0.589412 0,0.589413 0.52737,0.589413 0.868609,0.589413 h 2.016412 c 0.341239,0 0.837586,0 0.837586,-0.589413 0,-0.620434 -0.403282,-0.620434 -1.116782,-0.620434 l 0.434304,-2.047434 h 3.226259 l 0.465326,2.047434 c -0.713499,0 -1.116782,0 -1.116782,0.620434 0,0.589413 0.465326,0.589413 0.837587,0.589413 h 2.016412 c 0.310217,0 0.837586,0 0.837586,-0.589413 0,-0.248174 -0.09306,-0.465326 -0.341239,-0.558391 -0.124087,-0.06204 -0.558391,-0.06204 -0.837586,-0.06204 z m -1.08576,0.837587 h 0.03102 l 1.27189,6.266388 h -2.605825 z m 0,0"
         id="path2027" />
      <path
         style="fill:#000000;fill-opacity:1;stroke:none;stroke-width:0"
         d="m 73.289958,-65.635988 c 0,-0.620435 0,-0.930652 -0.806565,-0.930652 h -1.426999 c -0.310218,0 -0.806565,0 -0.806565,0.620435 0,0.589412 0.496347,0.589412 0.775543,0.589412 h 0.89963 v 6.11128 h -0.868608 c -0.310218,0 -0.806565,0 -0.806565,0.620434 0,0.589413 0.496347,0.589413 0.775543,0.589413 h 3.164216 c 0.279195,0 0.775543,0 0.775543,-0.589413 0,-0.620434 -0.496348,-0.620434 -0.806565,-0.620434 h -0.868608 v -3.505455 c 0,-1.98539 1.458021,-2.729912 2.481738,-2.729912 1.023716,0 1.302912,0.558391 1.302912,1.737217 v 4.49815 h -0.744521 c -0.341239,0 -0.837587,0 -0.837587,0.620434 0,0.589413 0.558391,0.589413 0.837587,0.589413 h 3.009107 c 0.279195,0 0.806565,0 0.806565,-0.589413 0,-0.620434 -0.496348,-0.620434 -0.837587,-0.620434 h -0.868608 v -4.591215 c 0,-1.985391 -0.992695,-2.853999 -2.574803,-2.853999 -1.302913,0 -2.202543,0.682478 -2.574803,1.054739 z m 0,0"
         id="path2029" />
      <path
         style="fill:#000000;fill-opacity:1;stroke:none;stroke-width:0"
         d="m 87.458199,-59.028361 c 0,0.713499 0,0.992695 0.806565,0.992695 h 1.426999 c 0.341239,0 0.837587,0 0.837587,-0.620434 0,-0.589413 -0.52737,-0.589413 -0.806565,-0.589413 h -0.89963 v -10.08206 c 0,-0.589413 -0.09306,-0.806565 -0.775543,-0.806565 h -1.458021 c -0.310218,0 -0.806565,0 -0.806565,0.620434 0,0.589413 0.527369,0.589413 0.806565,0.589413 h 0.868608 v 3.133194 c -0.651456,-0.589413 -1.458021,-0.89963 -2.295608,-0.89963 -2.17152,0 -4.063845,1.892325 -4.063845,4.405085 0,2.450716 1.768238,4.374063 3.877715,4.374063 1.116782,0 1.954369,-0.527369 2.481738,-1.116782 z m 0,-4.249976 v 1.395977 c 0,1.116782 -0.868608,2.760934 -2.388673,2.760934 -1.426999,0 -2.605825,-1.395978 -2.605825,-3.164216 0,-1.892325 1.395978,-3.195238 2.760934,-3.195238 1.271891,0 2.233564,1.116782 2.233564,2.202543 z m 0,0"
         id="path2031" />
    </g>
    <path
       d="m 118.64795,240.5 h 20"
       fill="none"
       stroke="#000000"
       stroke-width="2"
       id="path837" />
    <path
       d="m 178.64795,240.5 h 20"
       fill="none"
       stroke="#000000"
       stroke-width="2"
       id="path839" />
    <path
       d="m 138.64795,220.5 v 40 l 30,-20 -30,-20"
       fill="none"
       stroke="#000000"
       stroke-width="2"
       id="path841" />
    <circle
       cx="173.64795"
       cy="240.5"
       r="5"
       fill="none"
       stroke="#000000"
       stroke-width="2"
       id="circle843" />
    <circle
       cx="118.64795"
       cy="240.5"
       r="4"
       stroke="none"
       fill="#ffffff"
       id="circle845" />
    <circle
       cx="118.64795"
       cy="240.5"
       r="4"
       fill="none"
       stroke="#000000"
       stroke-width="2"
       id="circle847" />
    <path
       d="m 278.64795,20.5 h 20"
       fill="none"
       stroke="#000000"
       stroke-width="2"
       id="path853" />
    <path
       d="m 278.64795,40.5 h 20"
       fill="none"
       stroke="#000000"
       stroke-width="2"
       id="path855" />
    <path
       d="m 338.64795,30.5 h 20"
       fill="none"
       stroke="#000000"
       stroke-width="2"
       id="path857" />
    <path
       d="m 318.64795,10.5 h -20 v 40 h 20"
       fill="none"
       stroke="#000000"
       stroke-width="2"
       id="path859" />
    <path
       d="m 318.64795,10.5 c 10,0 20,10 20,20"
       fill="none"
       stroke="#000000"
       stroke-width="2"
       id="path861" />
    <path
       d="m 318.64795,50.5 c 10,0 20,-10 20,-20"
       fill="none"
       stroke="#000000"
       stroke-width="2"
       id="path863" />
    <circle
       cx="278.64795"
       cy="20.5"
       r="4"
       stroke="none"
       fill="#ffffff"
       id="circle865" />
    <circle
       cx="278.64795"
       cy="20.5"
       r="4"
       fill="none"
       stroke="#000000"
       stroke-width="2"
       id="circle867" />
    <circle
       cx="278.64795"
       cy="40.5"
       r="4"
       stroke="none"
       fill="#ffffff"
       id="circle869" />
    <circle
       cx="278.64795"
       cy="40.5"
       r="4"
       fill="none"
       stroke="#000000"
       stroke-width="2"
       id="circle871" />
    <circle
       cx="358.64795"
       cy="30.5"
       r="4"
       stroke="none"
       fill="#ffffff"
       id="circle873" />
    <circle
       cx="358.64795"
       cy="30.5"
       r="4"
       fill="none"
       stroke="#000000"
       stroke-width="2"
       id="circle875" />
    <path
       d="m 278.64795,300.5 h 20"
       fill="none"
       stroke="#000000"
       stroke-width="2"
       id="path877" />
    <path
       d="m 278.64795,320.5 h 20"
       fill="none"
       stroke="#000000"
       stroke-width="2"
       id="path879" />
    <path
       d="m 338.64795,310.5 h 20"
       fill="none"
       stroke="#000000"
       stroke-width="2"
       id="path881" />
    <path
       d="m 318.64795,290.5 h -20 v 40 h 20"
       fill="none"
       stroke="#000000"
       stroke-width="2"
       id="path883" />
    <path
       d="m 318.64795,290.5 c 10,0 20,10 20,20"
       fill="none"
       stroke="#000000"
       stroke-width="2"
       id="path885" />
    <path
       d="m 318.64795,330.5 c 10,0 20,-10 20,-20"
       fill="none"
       stroke="#000000"
       stroke-width="2"
       id="path887" />
    <circle
       cx="278.64795"
       cy="300.5"
       r="4"
       stroke="none"
       fill="#ffffff"
       id="circle889" />
    <circle
       cx="278.64795"
       cy="300.5"
       r="4"
       fill="none"
       stroke="#000000"
       stroke-width="2"
       id="circle891" />
    <circle
       cx="278.64795"
       cy="320.5"
       r="4"
       stroke="none"
       fill="#ffffff"
       id="circle893" />
    <circle
       cx="278.64795"
       cy="320.5"
       r="4"
       fill="none"
       stroke="#000000"
       stroke-width="2"
       id="circle895" />
    <circle
       cx="358.64795"
       cy="310.5"
       r="4"
       stroke="none"
       fill="#ffffff"
       id="circle897" />
    <circle
       cx="358.64795"
       cy="310.5"
       r="4"
       fill="none"
       stroke="#000000"
       stroke-width="2"
       id="circle899" />
    <path
       d="m 428.64795,160.5 h 25"
       fill="none"
       stroke="#000000"
       stroke-width="2"
       id="path901" />
    <path
       d="m 428.64795,180.5 h 25"
       fill="none"
       stroke="#000000"
       stroke-width="2"
       id="path903" />
    <path
       d="m 488.64795,170.5 h 20"
       fill="none"
       stroke="#000000"
       stroke-width="2"
       id="path905" />
    <path
       d="m 448.64795,150.5 c 9,9 9,31 0,40"
       fill="none"
       stroke="#000000"
       stroke-width="2"
       id="path907" />
    <path
       d="m 448.64795,150.5 c 20,0 35,10 40,20"
       fill="none"
       stroke="#000000"
       stroke-width="2"
       id="path909" />
    <path
       d="m 448.64795,190.5 c 20,0 35,-10 40,-20"
       fill="none"
       stroke="#000000"
       stroke-width="2"
       id="path911" />
    <circle
       cx="428.64795"
       cy="160.5"
       r="4"
       stroke="none"
       fill="#ffffff"
       id="circle913" />
    <circle
       cx="428.64795"
       cy="160.5"
       r="4"
       fill="none"
       stroke="#000000"
       stroke-width="2"
       id="circle915" />
    <circle
       cx="428.64795"
       cy="180.5"
       r="4"
       stroke="none"
       fill="#ffffff"
       id="circle917" />
    <circle
       cx="428.64795"
       cy="180.5"
       r="4"
       fill="none"
       stroke="#000000"
       stroke-width="2"
       id="circle919" />
    <circle
       cx="508.64795"
       cy="170.5"
       r="4"
       stroke="none"
       fill="#ffffff"
       id="circle921" />
    <circle
       cx="508.64795"
       cy="170.5"
       r="4"
       fill="none"
       stroke="#000000"
       stroke-width="2"
       id="circle923" />
    <path
       d="m 118.64795,100.5 h 20"
       fill="none"
       stroke="#000000"
       stroke-width="2"
       id="path925" />
    <path
       d="m 178.64795,100.5 h 20"
       fill="none"
       stroke="#000000"
       stroke-width="2"
       id="path927" />
    <path
       d="m 138.64795,80.5 v 40 l 30,-20 -30,-20"
       fill="none"
       stroke="#000000"
       stroke-width="2"
       id="path929" />
    <circle
       cx="173.64795"
       cy="100.5"
       r="5"
       fill="none"
       stroke="#000000"
       stroke-width="2"
       id="circle931" />
    <circle
       cx="118.64795"
       cy="100.5"
       r="4"
       stroke="none"
       fill="#ffffff"
       id="circle933" />
    <circle
       cx="118.64795"
       cy="100.5"
       r="4"
       fill="none"
       stroke="#000000"
       stroke-width="2"
       id="circle935" />
    <path
       d="M 278.64795,320.5 H 78.647956"
       fill="none"
       stroke="#000000"
       stroke-width="2"
       id="path941" />
    <circle
       cx="278.64795"
       cy="320.5"
       r="4"
       stroke="none"
       fill="#ffffff"
       id="circle943" />
    <circle
       cx="278.64795"
       cy="320.5"
       r="4"
       fill="none"
       stroke="#000000"
       stroke-width="2"
       id="circle945" />
    <path
       d="M 278.64795,20.5 H 78.647956"
       fill="none"
       stroke="#000000"
       stroke-width="2"
       id="path951" />
    <circle
       cx="278.64795"
       cy="20.5"
       r="4"
       stroke="none"
       fill="#ffffff"
       id="circle953" />
    <circle
       cx="278.64795"
       cy="20.5"
       r="4"
       fill="none"
       stroke="#000000"
       stroke-width="2"
       id="circle955" />
    <circle
       cx="78.647949"
       cy="20.5"
       r="4"
       stroke="none"
       fill="#ffffff"
       id="circle957" />
    <circle
       cx="78.647949"
       cy="20.5"
       r="4"
       fill="none"
       stroke="#000000"
       stroke-width="2"
       id="circle959" />
    <path
       d="m 78.647956,20.5 v 80"
       fill="none"
       stroke="#000000"
       stroke-width="2"
       id="path961"
       style="stroke-linecap:round" />
    <circle
       cx="78.647949"
       cy="20.5"
       r="4"
       stroke="none"
       fill="#ffffff"
       id="circle963" />
    <circle
       cx="78.647949"
       cy="20.5"
       r="4"
       fill="none"
       stroke="#000000"
       stroke-width="2"
       id="circle965" />
    <path
       d="M 78.647956,100.5 H 118.64795"
       fill="none"
       stroke="#000000"
       stroke-width="2"
       id="path971" />
    <circle
       cx="118.64795"
       cy="100.5"
       r="4"
       stroke="none"
       fill="#ffffff"
       id="circle977" />
    <circle
       cx="118.64795"
       cy="100.5"
       r="4"
       fill="none"
       stroke="#000000"
       stroke-width="2"
       id="circle979" />
    <path
       d="m 78.647956,320.5 v -80"
       fill="none"
       stroke="#000000"
       stroke-width="2"
       id="path981"
       style="stroke-linecap:round" />
    <circle
       cx="78.647949"
       cy="240.5"
       r="4"
       stroke="none"
       fill="#ffffff"
       id="circle987" />
    <circle
       cx="78.647949"
       cy="240.5"
       r="4"
       fill="none"
       stroke="#000000"
       stroke-width="2"
       id="circle989" />
    <path
       d="M 78.647956,240.5 H 118.64795"
       fill="none"
       stroke="#000000"
       stroke-width="2"
       id="path991" />
    <circle
       cx="78.647949"
       cy="240.5"
       r="4"
       stroke="none"
       fill="#ffffff"
       id="circle993" />
    <circle
       cx="78.647949"
       cy="240.5"
       r="4"
       fill="none"
       stroke="#000000"
       stroke-width="2"
       id="circle995" />
    <circle
       cx="118.64795"
       cy="240.5"
       r="4"
       stroke="none"
       fill="#ffffff"
       id="circle997" />
    <circle
       cx="118.64795"
       cy="240.5"
       r="4"
       fill="none"
       stroke="#000000"
       stroke-width="2"
       id="circle999" />
    <path
       d="m 198.64795,240.5 80,-200"
       fill="none"
       stroke="#000000"
       stroke-width="2"
       id="path1001"
       style="stroke:#0084c8;stroke-width:2;stroke-linecap:round;stroke-miterlimit:4;stroke-dasharray:6, 6;stroke-dashoffset:0" />
    <circle
       cx="278.64795"
       cy="40.5"
       r="4"
       stroke="none"
       fill="#ffffff"
       id="circle1007" />
    <circle
       cx="278.64795"
       cy="40.5"
       r="4"
       fill="none"
       stroke="#000000"
       stroke-width="2"
       id="circle1009" />
    <path
       d="m 198.64795,100.5 80,200"
       fill="none"
       stroke="#000000"
       stroke-width="2"
       id="path1011"
       style="stroke:#dc0000;stroke-width:2;stroke-linecap:round;stroke-miterlimit:4;stroke-dasharray:6, 6;stroke-dashoffset:0" />
    <circle
       cx="278.64795"
       cy="300.5"
       r="4"
       stroke="none"
       fill="#ffffff"
       id="circle1017" />
    <circle
       cx="278.64795"
       cy="300.5"
       r="4"
       fill="none"
       stroke="#000000"
       stroke-width="2"
       id="circle1019" />
    <path
       d="m 358.64795,30.5 70,130"
       fill="none"
       stroke="#000000"
       stroke-width="2"
       id="path1021"
       style="stroke:#0084c8;stroke-width:2;stroke-linecap:round;stroke-miterlimit:4;stroke-dasharray:6, 6;stroke-dashoffset:0" />
    <circle
       cx="358.64795"
       cy="30.5"
       r="4"
       stroke="none"
       fill="#ffffff"
       id="circle1023" />
    <circle
       cx="358.64795"
       cy="30.5"
       r="4"
       fill="none"
       stroke="#000000"
       stroke-width="2"
       id="circle1025" />
    <circle
       cx="428.64795"
       cy="160.5"
       r="4"
       stroke="none"
       fill="#ffffff"
       id="circle1027" />
    <circle
       cx="428.64795"
       cy="160.5"
       r="4"
       fill="none"
       stroke="#000000"
       stroke-width="2"
       id="circle1029" />
    <path
       d="m 358.64795,310.5 70,-130"
       fill="none"
       stroke="#000000"
       stroke-width="2"
       id="path1031"
       style="stroke:#dc0000;stroke-width:2;stroke-linecap:round;stroke-miterlimit:4;stroke-dasharray:6, 6;stroke-dashoffset:0" />
    <circle
       cx="358.64795"
       cy="310.5"
       r="4"
       stroke="none"
       fill="#ffffff"
       id="circle1033" />
    <circle
       cx="358.64795"
       cy="310.5"
       r="4"
       fill="none"
       stroke="#000000"
       stroke-width="2"
       id="circle1035" />
    <circle
       cx="428.64795"
       cy="180.5"
       r="4"
       stroke="none"
       fill="#ffffff"
       id="circle1037" />
    <circle
       cx="428.64795"
       cy="180.5"
       r="4"
       fill="none"
       stroke="#000000"
       stroke-width="2"
       id="circle1039" />
    <path
       d="m 78.647956,20.5 h -50"
       fill="none"
       stroke="#000000"
       stroke-width="2"
       id="path1041" />
    <circle
       cx="78.647949"
       cy="20.5"
       r="4"
       stroke="none"
       fill="#ffffff"
       id="circle1043" />
    <circle
       cx="78.647949"
       cy="20.5"
       r="4"
       fill="none"
       stroke="#000000"
       stroke-width="2"
       id="circle1045" />
    <circle
       cx="28.647955"
       cy="20.5"
       r="4"
       stroke="none"
       fill="#ffffff"
       id="circle1047" />
    <circle
       cx="28.647955"
       cy="20.5"
       r="4"
       fill="none"
       stroke="#000000"
       stroke-width="2"
       id="circle1049" />
    <path
       d="M 78.647956,240.5 H 33.647953"
       fill="none"
       stroke="#000000"
       stroke-width="2"
       id="path1051"
       sodipodi:nodetypes="cc" />
    <circle
       cx="78.647949"
       cy="240.5"
       r="4"
       stroke="none"
       fill="#ffffff"
       id="circle1053" />
    <circle
       cx="78.647949"
       cy="240.5"
       r="4"
       fill="none"
       stroke="#000000"
       stroke-width="2"
       id="circle1055" />
    <circle
       cx="18.647955"
       cy="240.5"
       r="4"
       stroke="none"
       fill="#ffffff"
       id="circle1057" />
    <circle
       cx="28.647951"
       cy="240.5"
       r="4"
       fill="none"
       stroke="#000000"
       stroke-width="2"
       id="circle1059" />
    <g
       style="fill:#000000;fill-opacity:1"
       id="id-b355b867-8a15-44d9-adc6-e10cae1ce47c"
       transform="matrix(2.6814,0,0,2.6814,-400.22275,-335.05615)">
      <g
         transform="translate(148.712,134.765)"
         id="g3326">
        <path
           style="stroke:none;stroke-width:0"
           d="M 3.65625,-0.3125 C 3.875,-0.015625 4.34375,0 4.71875,0 c 0.28125,0 0.5,0 0.5,-0.3125 0,-0.296875 -0.25,-0.296875 -0.390625,-0.296875 -0.421875,0 -0.515625,-0.046875 -0.59375,-0.078125 v -2.15625 c 0,-0.703125 -0.546875,-1.546875 -1.984375,-1.546875 -0.421875,0 -1.4375,0 -1.4375,0.734375 0,0.296875 0.203125,0.453125 0.4375,0.453125 0.15625,0 0.4375,-0.09375 0.4375,-0.453125 0,-0.078125 0.015625,-0.09375 0.21875,-0.109375 0.140625,-0.015625 0.265625,-0.015625 0.359375,-0.015625 0.75,0 1.265625,0.3125 1.265625,1.015625 -1.75,0.03125 -2.984375,0.53125 -2.984375,1.484375 0,0.6875 0.625,1.34375 1.640625,1.34375 0.375,0 1,-0.078125 1.46875,-0.375 z m -0.125,-1.859375 v 0.84375 c 0,0.21875 0,0.4375 -0.375,0.609375 -0.359375,0.171875 -0.8125,0.171875 -0.890625,0.171875 -0.625,0 -1.03125,-0.34375 -1.03125,-0.734375 0,-0.484375 0.859375,-0.859375 2.296875,-0.890625 z m 0,0"
           id="id-04253bbc-48f3-48ea-9e95-9be138670ff4" />
      </g>
    </g>
    <g
       style="fill:#000000;fill-opacity:1"
       id="id-b5277a8b-19d4-4aee-a571-86943537582e"
       transform="matrix(2.6814,0,0,2.6814,-427.14166,-112.77277)">
      <g
         transform="translate(159.173,134.765)"
         id="g3330">
        <path
           style="stroke:none;stroke-width:0"
           d="m 1.65625,-3.875 v -1.8125 c 0,-0.296875 -0.0625,-0.40625 -0.40625,-0.40625 H 0.53125 c -0.15625,0 -0.40625,0 -0.40625,0.3125 0,0.296875 0.25,0.296875 0.390625,0.296875 H 0.96875 V -0.40625 C 0.96875,-0.203125 0.96875,0 1.3125,0 1.65625,0 1.65625,-0.203125 1.65625,-0.453125 2.0625,-0.03125 2.5,0.0625 2.8125,0.0625 c 1.078125,0 2.046875,-0.953125 2.046875,-2.21875 0,-1.21875 -0.875,-2.203125 -1.9375,-2.203125 C 2.4375,-4.359375 2,-4.171875 1.65625,-3.875 Z m 0,1.96875 V -2.625 c 0,-0.59375 0.578125,-1.125 1.203125,-1.125 0.734375,0 1.3125,0.734375 1.3125,1.59375 0,0.953125 -0.6875,1.609375 -1.390625,1.609375 -0.78125,0 -1.125,-0.875 -1.125,-1.359375 z m 0,0"
           id="id-68db057a-2d9c-4fe2-bcb8-49e03a9cbfd9" />
      </g>
    </g>
    <rect
       style="font-variation-settings:normal;fill:none;fill-opacity:1;fill-rule:evenodd;stroke:#000000;stroke-width:0.999999;stroke-linecap:butt;stroke-linejoin:miter;stroke-miterlimit:4;stroke-dasharray:2, 2;stroke-dashoffset:0;stroke-opacity:1;stop-color:#000000"
       id="rect1397"
       width="460"
       height="340"
       x="38.647953"
       y="0.49999949"
       ry="0.5" />
    <g
       id="g2260"
       transform="translate(-3.2803922,1.8772994)">
      <path
         style="fill:#000000;fill-opacity:1;stroke:none;stroke-width:0"
         d="m 145.55386,93.441696 c -0.14882,-0.446459 -0.36142,-0.488978 -0.72284,-0.488978 h -0.93544 c -0.19134,0 -0.53149,0 -0.53149,0.403939 0,0.425199 0.3189,0.425199 0.53149,0.425199 h 0.34016 v 6.633104 h -0.34016 c -0.19134,0 -0.53149,0 -0.53149,0.40394 0,0.4252 0.3189,0.4252 0.53149,0.4252 h 1.44568 c 0.2126,0 0.55276,0 0.55276,-0.40394 0,-0.4252 -0.34016,-0.4252 -0.55276,-0.4252 h -0.34016 v -6.441764 h 0.0212 l 2.48742,6.781924 c 0.17007,0.46772 0.40394,0.48898 0.7441,0.48898 0.40394,0 0.57401,-0.0426 0.57401,-0.55276 v -6.909484 h 0.34016 c 0.19134,0 0.53151,0 0.53151,-0.403939 0,-0.425199 -0.31891,-0.425199 -0.53151,-0.425199 h -1.44567 c -0.2126,0 -0.5315,0 -0.5315,0.425199 0,0.403939 0.34015,0.403939 0.5315,0.403939 h 0.34016 v 6.441764 z m 0,0"
         id="path2035" />
      <path
         style="fill:#000000;fill-opacity:1;stroke:none;stroke-width:0"
         d="m 156.43301,98.310225 c 0,-1.700796 -1.25435,-3.040172 -2.78506,-3.040172 -1.50945,0 -2.78506,1.339376 -2.78506,3.040172 0,1.722055 1.29686,3.018915 2.78506,3.018915 1.4882,0 2.78506,-1.29686 2.78506,-3.018915 z M 153.64795,100.5 c -0.99922,0 -1.84962,-1.020477 -1.84962,-2.274815 0,-1.233077 0.89292,-2.125995 1.84962,-2.125995 0.97795,0 1.84962,0.892918 1.84962,2.125995 0,1.254338 -0.8504,2.274815 -1.84962,2.274815 z m 0,0"
         id="path2037" />
      <path
         style="fill:#000000;fill-opacity:1;stroke:none;stroke-width:0"
         d="m 160.23394,96.22675 h 2.21104 c 0.21259,0 0.55276,0 0.55276,-0.403939 0,-0.425199 -0.34017,-0.425199 -0.55276,-0.425199 h -2.21104 v -1.105517 c 0,-0.255119 0,-0.552759 -0.46771,-0.552759 -0.46773,0 -0.46773,0.276379 -0.46773,0.552759 v 1.105517 h -1.19056 c -0.21259,0 -0.55275,0 -0.55275,0.425199 0,0.403939 0.34016,0.403939 0.5315,0.403939 h 1.21181 v 3.316552 c 0,1.296858 0.91418,1.785848 1.9134,1.785848 0.99921,0 2.08347,-0.59529 2.08347,-1.785848 0,-0.25512 0,-0.531499 -0.46771,-0.531499 -0.44646,0 -0.46773,0.276379 -0.46773,0.510239 0,0.850398 -0.78661,0.977958 -1.08425,0.977958 -1.04174,0 -1.04174,-0.701578 -1.04174,-1.041738 z m 0,0"
         id="path2039" />
    </g>
    <g
       id="g2371"
       transform="translate(-3.2803922,141.8773)">
      <path
         style="fill:#000000;fill-opacity:1;stroke:none;stroke-width:0"
         d="m 145.55386,93.441696 c -0.14882,-0.446459 -0.36142,-0.488978 -0.72284,-0.488978 h -0.93544 c -0.19134,0 -0.53149,0 -0.53149,0.403939 0,0.425199 0.3189,0.425199 0.53149,0.425199 h 0.34016 v 6.633104 h -0.34016 c -0.19134,0 -0.53149,0 -0.53149,0.40394 0,0.4252 0.3189,0.4252 0.53149,0.4252 h 1.44568 c 0.2126,0 0.55276,0 0.55276,-0.40394 0,-0.4252 -0.34016,-0.4252 -0.55276,-0.4252 h -0.34016 v -6.441764 h 0.0212 l 2.48742,6.781924 c 0.17007,0.46772 0.40394,0.48898 0.7441,0.48898 0.40394,0 0.57401,-0.0426 0.57401,-0.55276 v -6.909484 h 0.34016 c 0.19134,0 0.53151,0 0.53151,-0.403939 0,-0.425199 -0.31891,-0.425199 -0.53151,-0.425199 h -1.44567 c -0.2126,0 -0.5315,0 -0.5315,0.425199 0,0.403939 0.34015,0.403939 0.5315,0.403939 h 0.34016 v 6.441764 z m 0,0"
         id="path2365" />
      <path
         style="fill:#000000;fill-opacity:1;stroke:none;stroke-width:0"
         d="m 156.43301,98.310225 c 0,-1.700796 -1.25435,-3.040172 -2.78506,-3.040172 -1.50945,0 -2.78506,1.339376 -2.78506,3.040172 0,1.722055 1.29686,3.018915 2.78506,3.018915 1.4882,0 2.78506,-1.29686 2.78506,-3.018915 z M 153.64795,100.5 c -0.99922,0 -1.84962,-1.020477 -1.84962,-2.274815 0,-1.233077 0.89292,-2.125995 1.84962,-2.125995 0.97795,0 1.84962,0.892918 1.84962,2.125995 0,1.254338 -0.8504,2.274815 -1.84962,2.274815 z m 0,0"
         id="path2367" />
      <path
         style="fill:#000000;fill-opacity:1;stroke:none;stroke-width:0"
         d="m 160.23394,96.22675 h 2.21104 c 0.21259,0 0.55276,0 0.55276,-0.403939 0,-0.425199 -0.34017,-0.425199 -0.55276,-0.425199 h -2.21104 v -1.105517 c 0,-0.255119 0,-0.552759 -0.46771,-0.552759 -0.46773,0 -0.46773,0.276379 -0.46773,0.552759 v 1.105517 h -1.19056 c -0.21259,0 -0.55275,0 -0.55275,0.425199 0,0.403939 0.34016,0.403939 0.5315,0.403939 h 1.21181 v 3.316552 c 0,1.296858 0.91418,1.785848 1.9134,1.785848 0.99921,0 2.08347,-0.59529 2.08347,-1.785848 0,-0.25512 0,-0.531499 -0.46771,-0.531499 -0.44646,0 -0.46773,0.276379 -0.46773,0.510239 0,0.850398 -0.78661,0.977958 -1.08425,0.977958 -1.04174,0 -1.04174,-0.701578 -1.04174,-1.041738 z m 0,0"
         id="path2369" />
    </g>
    <g
       id="g2379"
       transform="translate(374.64803,389.1561)">
      <path
         style="fill:#000000;fill-opacity:1;stroke:none;stroke-width:0"
         d="m -14.212149,-62.316664 c 0,-2.481738 -1.830282,-4.436106 -4.063846,-4.436106 -2.202543,0 -4.063846,1.954368 -4.063846,4.436106 0,2.51276 1.892325,4.405085 4.063846,4.405085 2.17152,0 4.063846,-1.892325 4.063846,-4.405085 z m -4.063846,3.195238 c -1.458021,0 -2.69889,-1.489043 -2.69889,-3.319325 0,-1.79926 1.302912,-3.102172 2.69889,-3.102172 1.426999,0 2.69889,1.302912 2.69889,3.102172 0,1.830282 -1.240869,3.319325 -2.69889,3.319325 z m 0,0"
         id="path2373" />
      <path
         style="fill:#000000;fill-opacity:1;stroke:none;stroke-width:0"
         d="m -6.0000781,-58.6561 c 0.031022,0.620434 0.4343042,0.620434 0.8065649,0.620434 h 1.4269992 c 0.341239,0 0.8375866,0 0.8375866,-0.620434 0,-0.589413 -0.5273693,-0.589413 -0.8065648,-0.589413 h -0.89963 v -6.514562 c 0,-0.620435 -0.093065,-0.806565 -0.7755431,-0.806565 h -1.458021 c -0.3102172,0 -0.8065648,0 -0.8065648,0.620435 0,0.589412 0.5273693,0.589412 0.8065648,0.589412 h 0.8686082 v 4.218955 c 0,1.768238 -1.5821079,2.016412 -2.233564,2.016412 -1.5510862,0 -1.5510862,-0.651457 -1.5510862,-1.302913 v -5.335736 c 0,-0.620435 -0.1240869,-0.806565 -0.8065647,-0.806565 h -1.426999 c -0.310218,0 -0.806565,0 -0.806565,0.620435 0,0.589412 0.496347,0.589412 0.775543,0.589412 h 0.89963 v 5.056541 c 0,1.923347 1.3649557,2.388673 2.791955,2.388673 0.8375865,0 1.6441513,-0.217152 2.3576509,-0.744521 z m 0,0"
         id="path2375" />
      <path
         style="fill:#000000;fill-opacity:1;stroke:none;stroke-width:0"
         d="m 1.7156446,-65.356793 h 3.2262593 c 0.3102172,0 0.8065648,0 0.8065648,-0.589412 0,-0.620435 -0.4963476,-0.620435 -0.8065648,-0.620435 H 1.7156446 v -1.61313 c 0,-0.37226 0,-0.806564 -0.6824779,-0.806564 -0.6824779,0 -0.6824779,0.403282 -0.6824779,0.806564 v 1.61313 h -1.7372165 c -0.3102173,0 -0.8065648,0 -0.8065648,0.620435 0,0.589412 0.4963475,0.589412 0.7755431,0.589412 h 1.7682382 v 4.839389 c 0,1.892325 1.3339341,2.605825 2.7919551,2.605825 1.458021,0 3.0401289,-0.868608 3.0401289,-2.605825 0,-0.372261 0,-0.775543 -0.6824779,-0.775543 -0.6514562,0 -0.6824779,0.403282 -0.6824779,0.744521 0,1.240869 -1.1478038,1.427 -1.5821079,1.427 -1.5200645,0 -1.5200645,-1.023717 -1.5200645,-1.520065 z m 0,0"
         id="path2377" />
    </g>
  </g>
</svg>
