<?xml version="1.0" encoding="UTF-8" standalone="no"?>
<!-- Created with Inkscape (http://www.inkscape.org/) -->

<svg
   width="105.28352mm"
   height="100.69599mm"
   viewBox="0 0 105.28352 100.69599"
   version="1.1"
   id="svg5"
   xmlns="http://www.w3.org/2000/svg"
   xmlns:svg="http://www.w3.org/2000/svg">
  <defs
     id="defs2">
    <marker
       style="overflow:visible"
       id="Arrow2Mend"
       refX="0"
       refY="0"
       orient="auto">
      <path
         transform="scale(-0.6)"
         d="M 8.7185878,4.0337352 -2.2072895,0.01601326 8.7185884,-4.0017078 c -1.7454984,2.3720609 -1.7354408,5.6174519 -6e-7,8.035443 z"
         style="fill:context-stroke;fill-rule:evenodd;stroke-width:0.625;stroke-linejoin:round"
         id="path1559" />
    </marker>
    <defs
       id="id-785e7f5d-cd52-4e35-8bad-81a2b4bd136c">
      <g
         id="id-ce2788a4-00eb-45e8-8c29-8609b9026dfd">
        <symbol
           overflow="visible"
           id="id-8c273155-4b5c-494e-9dd1-ad9260760d7e">
          <path
             style="stroke:none;stroke-width:0"
             d=""
             id="id-52189474-5d31-4077-b90c-b673abf7a22c" />
        </symbol>
        <symbol
           overflow="visible"
           id="id-db5bab1b-167e-4ecb-b39a-179b832dec15">
          <path
             style="stroke:none;stroke-width:0"
             d="m 4.578125,-3.1875 c 0,-0.796875 -0.046875,-1.59375 -0.390625,-2.328125 -0.453125,-0.96875 -1.28125,-1.125 -1.6875,-1.125 -0.609375,0 -1.328125,0.265625 -1.75,1.1875 -0.3125,0.6875 -0.359375,1.46875 -0.359375,2.265625 0,0.75 0.03125,1.640625 0.453125,2.40625 0.421875,0.796875 1.15625,1 1.640625,1 0.53125,0 1.296875,-0.203125 1.734375,-1.15625 0.3125,-0.6875 0.359375,-1.46875 0.359375,-2.25 z M 2.484375,0 C 2.09375,0 1.5,-0.25 1.328125,-1.203125 1.21875,-1.796875 1.21875,-2.71875 1.21875,-3.3125 c 0,-0.640625 0,-1.296875 0.078125,-1.828125 0.1875,-1.1875 0.9375,-1.28125 1.1875,-1.28125 0.328125,0 0.984375,0.1875 1.171875,1.171875 0.109375,0.5625 0.109375,1.3125 0.109375,1.9375 0,0.75 0,1.421875 -0.109375,2.0625 C 3.5,-0.296875 2.9375,0 2.484375,0 Z m 0,0"
             id="id-72f33d27-2e4c-481d-a046-9f9d40dfed14" />
        </symbol>
        <symbol
           overflow="visible"
           id="id-ff5555bf-d9d0-4786-a7c7-9ef604beb182">
          <path
             style="stroke:none;stroke-width:0"
             d="m 2.9375,-6.375 c 0,-0.25 0,-0.265625 -0.234375,-0.265625 C 2.078125,-6 1.203125,-6 0.890625,-6 v 0.3125 c 0.203125,0 0.78125,0 1.296875,-0.265625 v 5.171875 c 0,0.359375 -0.03125,0.46875 -0.921875,0.46875 h -0.3125 V 0 c 0.34375,-0.03125 1.203125,-0.03125 1.609375,-0.03125 0.390625,0 1.265625,0 1.609375,0.03125 v -0.3125 h -0.3125 c -0.90625,0 -0.921875,-0.109375 -0.921875,-0.46875 z m 0,0"
             id="id-b5d84440-0512-4f16-a8cb-2e0e8135bc68" />
        </symbol>
        <symbol
           overflow="visible"
           id="id-56ca4c9f-0319-486e-8ced-71f939404e81">
          <path
             style="stroke:none;stroke-width:0"
             d="m 1.265625,-0.765625 1.0625,-1.03125 c 1.546875,-1.375 2.140625,-1.90625 2.140625,-2.90625 0,-1.140625 -0.890625,-1.9375 -2.109375,-1.9375 -1.125,0 -1.859375,0.921875 -1.859375,1.8125 0,0.546875 0.5,0.546875 0.53125,0.546875 0.171875,0 0.515625,-0.109375 0.515625,-0.53125 0,-0.25 -0.1875,-0.515625 -0.53125,-0.515625 -0.078125,0 -0.09375,0 -0.125,0.015625 0.21875,-0.65625 0.765625,-1.015625 1.34375,-1.015625 0.90625,0 1.328125,0.8125 1.328125,1.625 C 3.5625,-3.90625 3.078125,-3.125 2.515625,-2.5 l -1.90625,2.125 C 0.5,-0.265625 0.5,-0.234375 0.5,0 H 4.203125 L 4.46875,-1.734375 H 4.234375 C 4.171875,-1.4375 4.109375,-1 4,-0.84375 3.9375,-0.765625 3.28125,-0.765625 3.0625,-0.765625 Z m 0,0"
             id="id-dd02c256-e14d-4e9b-8b17-11a75fdcb5d1" />
        </symbol>
      </g>
    </defs>
    <defs
       id="id-6829addc-cf36-4a50-a9b6-62c25721679a">
      <g
         id="id-169ffce8-2139-42d2-bed6-7dde2adc15eb">
        <symbol
           overflow="visible"
           id="id-cb0ea3d5-9555-4900-9fe6-4987854b5cef">
          <path
             style="stroke:none;stroke-width:0"
             d=""
             id="id-e59e8880-9e61-480a-a385-e475725b2cfc" />
        </symbol>
        <symbol
           overflow="visible"
           id="id-f846c96d-5186-45ec-84e3-b65bb44fd190">
          <path
             style="stroke:none;stroke-width:0"
             d="m 2.46875,-1.96875 c 0.4375,0.109375 0.875,0.203125 0.875,0.75 0,0.3125 -0.265625,1.109375 -1.296875,1.109375 -0.21875,0 -0.796875,-0.046875 -0.953125,-0.5625 0.515625,-0.046875 0.515625,-0.46875 0.515625,-0.484375 0,-0.1875 -0.140625,-0.3125 -0.34375,-0.3125 -0.234375,0 -0.515625,0.15625 -0.515625,0.609375 0,0.609375 0.578125,0.96875 1.296875,0.96875 1.484375,0 1.875,-1.21875 1.875,-1.671875 0,-0.875 -0.78125,-1.046875 -1.1875,-1.140625 -0.28125,-0.0625 -0.640625,-0.140625 -0.640625,-0.5625 0,-0.25 0.203125,-0.921875 1,-0.921875 0.28125,0 0.640625,0.09375 0.75,0.484375 -0.3125,0.046875 -0.390625,0.3125 -0.390625,0.40625 0,0.109375 0.0625,0.28125 0.296875,0.28125 0.171875,0 0.421875,-0.109375 0.421875,-0.546875 0,-0.453125 -0.40625,-0.84375 -1.0625,-0.84375 -1.171875,0 -1.578125,0.953125 -1.578125,1.46875 0,0.78125 0.65625,0.90625 0.9375,0.96875 z m 0,0"
             id="id-93022467-5c3a-4e53-afbb-faf4e48375c2" />
        </symbol>
        <symbol
           overflow="visible"
           id="id-238edf2d-c334-4190-8315-efd5fefb1f71">
          <path
             style="stroke:none;stroke-width:0"
             d="M 2.59375,-3.984375 H 3.4375 c 0.171875,0 0.28125,0 0.28125,-0.1875 0,-0.125 -0.09375,-0.125 -0.25,-0.125 H 2.671875 l 0.375,-1.46875 c 0.03125,-0.140625 0.03125,-0.171875 0.03125,-0.21875 0,-0.203125 -0.171875,-0.25 -0.265625,-0.25 -0.25,0 -0.34375,0.203125 -0.390625,0.359375 L 2.03125,-4.296875 H 1.1875 c -0.171875,0 -0.28125,0 -0.28125,0.1875 0,0.125 0.09375,0.125 0.25,0.125 H 1.953125 L 1.234375,-1.125 C 1.21875,-1.09375 1.1875,-0.921875 1.1875,-0.78125 c 0,0.484375 0.328125,0.890625 0.84375,0.890625 1.015625,0 1.515625,-1.484375 1.515625,-1.53125 0,-0.109375 -0.078125,-0.109375 -0.140625,-0.109375 -0.125,0 -0.125,0.015625 -0.203125,0.203125 -0.1875,0.46875 -0.578125,1.21875 -1.15625,1.21875 -0.265625,0 -0.265625,-0.25 -0.265625,-0.40625 0,-0.078125 0,-0.234375 0.078125,-0.515625 z m 0,0"
             id="id-8b6d55cd-0cd1-4391-aa6b-26abaed62097" />
        </symbol>
        <symbol
           overflow="visible"
           id="id-4c646560-322f-4cea-b037-412a3926b849">
          <path
             style="stroke:none;stroke-width:0"
             d="m 3.484375,-0.59375 c 0.109375,0.5 0.46875,0.703125 0.828125,0.703125 0.359375,0 0.578125,-0.25 0.71875,-0.5625 0.1875,-0.375 0.296875,-0.953125 0.296875,-0.96875 0,-0.109375 -0.078125,-0.109375 -0.140625,-0.109375 -0.125,0 -0.140625,0.015625 -0.1875,0.234375 -0.140625,0.5625 -0.328125,1.1875 -0.671875,1.1875 -0.265625,0 -0.265625,-0.265625 -0.265625,-0.40625 0,-0.078125 0,-0.234375 0.078125,-0.515625 L 4.8125,-3.734375 c 0.046875,-0.140625 0.046875,-0.15625 0.046875,-0.21875 0,-0.203125 -0.171875,-0.25 -0.28125,-0.25 -0.3125,0 -0.375,0.328125 -0.390625,0.390625 C 4,-4.25 3.671875,-4.40625 3.359375,-4.40625 c -1.109375,0 -2.28125,1.515625 -2.28125,2.96875 0,0.84375 0.453125,1.546875 1.203125,1.546875 0.359375,0 0.796875,-0.203125 1.203125,-0.703125 z m 0.53125,-2.53125 -0.46875,1.890625 c -0.078125,0.3125 -0.703125,1.125 -1.25,1.125 C 1.828125,-0.109375 1.75,-0.703125 1.75,-1 1.75,-1.5 2.0625,-2.65625 2.25,-3.078125 2.5,-3.6875 2.953125,-4.1875 3.359375,-4.1875 c 0.4375,0 0.6875,0.515625 0.6875,0.9375 0,0.015625 -0.015625,0.0625 -0.03125,0.125 z m 0,0"
             id="id-8cc6ddc8-1988-4288-8d49-b702b1568860" />
        </symbol>
        <symbol
           overflow="visible"
           id="id-b40043c4-5ba0-409c-ac68-a54fb263d2cd">
          <path
             style="stroke:none;stroke-width:0"
             d="m 4.34375,-3.765625 c -0.5,0.0625 -0.5,0.46875 -0.5,0.5 0,0.15625 0.109375,0.3125 0.328125,0.3125 0.28125,0 0.515625,-0.21875 0.515625,-0.59375 0,-0.484375 -0.4375,-0.859375 -1.0625,-0.859375 -1.25,0 -2.53125,1.421875 -2.53125,2.875 0,0.984375 0.59375,1.640625 1.46875,1.640625 1.28125,0 2.109375,-1 2.109375,-1.140625 0,-0.0625 -0.09375,-0.171875 -0.171875,-0.171875 -0.03125,0 -0.046875,0.015625 -0.125,0.109375 -0.734375,0.9375 -1.625,0.984375 -1.796875,0.984375 -0.53125,0 -0.78125,-0.453125 -0.78125,-1.03125 0,-0.53125 0.265625,-1.578125 0.53125,-2.046875 0.359375,-0.65625 0.859375,-1 1.296875,-1 0.109375,0 0.5625,0.015625 0.71875,0.421875 z m 0,0"
             id="id-a804a44a-cdb7-4201-b9ad-2afc1e079506" />
        </symbol>
        <symbol
           overflow="visible"
           id="id-92c6fcb0-b642-4a96-8b91-b3b17213160b">
          <path
             style="stroke:none;stroke-width:0"
             d="m 3.015625,-6.671875 c 0.015625,-0.03125 0.03125,-0.109375 0.03125,-0.125 0,-0.09375 -0.0625,-0.125 -0.140625,-0.125 -0.03125,0 -0.125,0.015625 -0.15625,0.03125 L 1.765625,-6.8125 c -0.125,0 -0.234375,0.015625 -0.234375,0.203125 0,0.109375 0.109375,0.109375 0.25,0.109375 0.46875,0 0.484375,0.0625 0.484375,0.171875 0,0.03125 -0.015625,0.15625 -0.015625,0.171875 l -1.484375,5.875 C 0.75,-0.265625 0.75,-0.171875 0.75,-0.15625 c 0,0.109375 0.09375,0.265625 0.28125,0.265625 0.296875,0 0.359375,-0.28125 0.390625,-0.375 l 0.5,-2.015625 c 0.375,0.046875 1.015625,0.25 1.015625,0.828125 0,0.078125 0,0.125 -0.03125,0.25 -0.046875,0.171875 -0.046875,0.25 -0.046875,0.34375 0,0.71875 0.46875,0.96875 0.84375,0.96875 0.4375,0 0.65625,-0.328125 0.765625,-0.515625 0.21875,-0.375 0.359375,-0.984375 0.359375,-1.015625 0,-0.109375 -0.078125,-0.109375 -0.15625,-0.109375 -0.109375,0 -0.125,0.015625 -0.1875,0.234375 -0.125,0.515625 -0.3125,1.1875 -0.75,1.1875 -0.28125,0 -0.296875,-0.234375 -0.296875,-0.421875 0,-0.234375 0.078125,-0.515625 0.078125,-0.5625 C 3.5625,-1.3125 3.5625,-1.3125 3.5625,-1.453125 3.5625,-2.125 2.875,-2.390625 2.25,-2.484375 2.46875,-2.625 2.6875,-2.828125 2.953125,-3.140625 3.46875,-3.734375 3.859375,-4.1875 4.359375,-4.1875 c 0.1875,0 0.25,0.109375 0.265625,0.125 -0.421875,0.0625 -0.46875,0.40625 -0.46875,0.5 0,0.125 0.09375,0.3125 0.34375,0.3125 0.21875,0 0.5,-0.171875 0.5,-0.5625 0,-0.25 -0.171875,-0.59375 -0.625,-0.59375 -0.53125,0 -0.953125,0.421875 -1.296875,0.8125 C 2.515625,-2.9375 2.359375,-2.765625 2,-2.609375 Z m 0,0"
             id="id-896381a5-99d1-4039-95c0-2e860cdf3929" />
        </symbol>
        <symbol
           overflow="visible"
           id="id-ae9bd5f1-6d3f-4dbf-9de0-ca327b3bf04b">
          <path
             style="stroke:none;stroke-width:0"
             d="m 3.015625,-6.671875 c 0.015625,-0.03125 0.03125,-0.109375 0.03125,-0.125 0,-0.09375 -0.0625,-0.125 -0.140625,-0.125 -0.03125,0 -0.125,0.015625 -0.15625,0.03125 L 1.765625,-6.8125 c -0.125,0 -0.234375,0.015625 -0.234375,0.203125 0,0.109375 0.109375,0.109375 0.25,0.109375 0.46875,0 0.484375,0.0625 0.484375,0.171875 0,0.03125 -0.015625,0.15625 -0.015625,0.171875 l -1.484375,5.875 C 0.75,-0.265625 0.75,-0.171875 0.75,-0.15625 c 0,0.109375 0.09375,0.265625 0.28125,0.265625 0.203125,0 0.328125,-0.171875 0.359375,-0.28125 0.046875,-0.140625 0.359375,-1.4375 0.4375,-1.71875 0.046875,-0.21875 0.109375,-0.4375 0.15625,-0.65625 0.09375,-0.359375 0.09375,-0.375 0.28125,-0.6875 C 2.46875,-3.5625 2.890625,-4.1875 3.59375,-4.1875 c 0.4375,0 0.453125,0.453125 0.453125,0.65625 0,0.625 -0.4375,1.8125 -0.578125,2.203125 -0.125,0.34375 -0.15625,0.4375 -0.15625,0.640625 0,0.4375 0.28125,0.796875 0.75,0.796875 0.9375,0 1.265625,-1.484375 1.265625,-1.53125 0,-0.109375 -0.078125,-0.109375 -0.140625,-0.109375 -0.140625,0 -0.140625,0.03125 -0.171875,0.171875 -0.078125,0.265625 -0.34375,1.25 -0.921875,1.25 -0.21875,0 -0.21875,-0.15625 -0.21875,-0.296875 0,-0.234375 0.09375,-0.5 0.171875,-0.734375 C 4.25,-1.671875 4.65625,-2.796875 4.65625,-3.375 c 0,-0.8125 -0.546875,-1.03125 -1.03125,-1.03125 -0.671875,0 -1.015625,0.34375 -1.328125,0.640625 z m 0,0"
             id="id-ccc22c33-12a6-4814-88e7-58104491c060" />
        </symbol>
        <symbol
           overflow="visible"
           id="id-699d7b4e-66db-45b0-af53-c70f0f1314aa">
          <path
             style="stroke:none;stroke-width:0"
             d="m 2.375,-2.296875 c 0.3125,0 0.96875,-0.03125 1.453125,-0.21875 0.78125,-0.328125 0.78125,-0.96875 0.78125,-1.046875 0,-0.453125 -0.359375,-0.84375 -1,-0.84375 -1.046875,0 -2.46875,1 -2.46875,2.765625 0,0.90625 0.46875,1.75 1.421875,1.75 1.28125,0 2.109375,-1 2.109375,-1.140625 0,-0.0625 -0.09375,-0.171875 -0.171875,-0.171875 -0.03125,0 -0.046875,0.015625 -0.125,0.109375 -0.734375,0.9375 -1.625,0.984375 -1.796875,0.984375 -0.640625,0 -0.75,-0.703125 -0.75,-1.09375 0,-0.375 0.09375,-0.828125 0.171875,-1.09375 z m -0.328125,-0.21875 c 0.4375,-1.640625 1.46875,-1.671875 1.5625,-1.671875 0.390625,0 0.625,0.265625 0.625,0.609375 0,1.0625 -1.640625,1.0625 -1.96875,1.0625 z m 0,0"
             id="id-fabdde64-b1cf-428e-8c2d-cb6189be1ef9" />
        </symbol>
        <symbol
           overflow="visible"
           id="id-ffab30c5-81d3-4a8f-8237-13a5d996650a">
          <path
             style="stroke:none;stroke-width:0"
             d="M 0.890625,1.28125 C 0.8125,1.578125 0.734375,1.609375 0.34375,1.625 c -0.078125,0 -0.203125,0 -0.203125,0.1875 0,0.078125 0.046875,0.125 0.125,0.125 0.265625,0 0.546875,-0.03125 0.828125,-0.03125 0.328125,0 0.65625,0.03125 0.96875,0.03125 0.0625,0 0.1875,0 0.1875,-0.1875 C 2.25,1.625 2.15625,1.625 2.015625,1.625 1.5,1.625 1.5,1.5625 1.5,1.46875 1.5,1.40625 1.578125,1.140625 1.609375,0.984375 L 1.96875,-0.46875 c 0.078125,0.171875 0.328125,0.578125 0.84375,0.578125 1.078125,0 2.265625,-1.46875 2.265625,-2.953125 0,-1.078125 -0.59375,-1.5625 -1.1875,-1.5625 -0.484375,0 -0.921875,0.359375 -1.203125,0.703125 C 2.5625,-4.28125 2.109375,-4.40625 1.859375,-4.40625 1.5,-4.40625 1.3125,-4.171875 1.140625,-3.875 c -0.1875,0.390625 -0.3125,0.984375 -0.3125,1 0,0.109375 0.09375,0.109375 0.15625,0.109375 0.125,0 0.125,-0.015625 0.1875,-0.234375 0.171875,-0.703125 0.359375,-1.1875 0.671875,-1.1875 0.265625,0 0.265625,0.296875 0.265625,0.40625 0,0.046875 0,0.21875 -0.078125,0.484375 z M 2.625,-3.0625 c 0.078125,-0.34375 0.6875,-1.125 1.25,-1.125 0.4375,0 0.546875,0.5625 0.546875,0.890625 0,0.421875 -0.28125,1.609375 -0.5625,2.234375 -0.125,0.25 -0.546875,0.953125 -1.0625,0.953125 -0.578125,0 -0.671875,-0.84375 -0.671875,-0.921875 0,-0.03125 0.015625,-0.0625 0.03125,-0.140625 z m 0,0"
             id="id-26f4978c-f88f-41dc-a8fb-2d7bf3884700" />
        </symbol>
      </g>
    </defs>
  </defs>
  <g
     id="layer1"
     transform="translate(-31.40737,-29.082132)">
    <g
       id="g2700">
      <rect
         style="font-variation-settings:normal;vector-effect:none;fill:none;fill-opacity:1;fill-rule:evenodd;stroke:#000000;stroke-width:0.264583;stroke-linecap:butt;stroke-linejoin:miter;stroke-miterlimit:4;stroke-dasharray:none;stroke-dashoffset:0;stroke-opacity:1;stop-color:#000000"
         id="rect848"
         width="10.583333"
         height="10.583333"
         x="52.916664"
         y="89.958336" />
      <rect
         style="font-variation-settings:normal;vector-effect:none;fill:none;fill-opacity:1;fill-rule:evenodd;stroke:#000000;stroke-width:0.264583;stroke-linecap:butt;stroke-linejoin:miter;stroke-miterlimit:4;stroke-dasharray:none;stroke-dashoffset:0;stroke-opacity:1;stop-color:#000000"
         id="rect930"
         width="10.583333"
         height="10.583333"
         x="52.916664"
         y="100.54166" />
      <rect
         style="font-variation-settings:normal;vector-effect:none;fill:none;fill-opacity:1;fill-rule:evenodd;stroke:#000000;stroke-width:0.264583;stroke-linecap:butt;stroke-linejoin:miter;stroke-miterlimit:4;stroke-dasharray:none;stroke-dashoffset:0;stroke-opacity:1;stop-color:#000000"
         id="rect932"
         width="10.583333"
         height="10.583333"
         x="52.916664"
         y="111.12498" />
      <rect
         style="font-variation-settings:normal;vector-effect:none;fill:#c0bfbc;fill-opacity:1;fill-rule:evenodd;stroke:#000000;stroke-width:0.264583;stroke-linecap:butt;stroke-linejoin:miter;stroke-miterlimit:4;stroke-dasharray:none;stroke-dashoffset:0;stroke-opacity:1;stop-color:#000000"
         id="rect934"
         width="10.583333"
         height="10.583333"
         x="92.604164"
         y="47.625" />
      <rect
         style="font-variation-settings:normal;vector-effect:none;fill:#c0bfbc;fill-opacity:1;fill-rule:evenodd;stroke:#000000;stroke-width:0.264583;stroke-linecap:butt;stroke-linejoin:miter;stroke-miterlimit:4;stroke-dasharray:none;stroke-dashoffset:0;stroke-opacity:1;stop-color:#000000"
         id="rect936"
         width="10.583333"
         height="10.583333"
         x="103.1875"
         y="47.625" />
      <rect
         style="font-variation-settings:normal;vector-effect:none;fill:#c0bfbc;fill-opacity:1;fill-rule:evenodd;stroke:#000000;stroke-width:0.264583;stroke-linecap:butt;stroke-linejoin:miter;stroke-miterlimit:4;stroke-dasharray:none;stroke-dashoffset:0;stroke-opacity:1;stop-color:#000000"
         id="rect938"
         width="10.583333"
         height="10.583333"
         x="113.77083"
         y="47.625" />
      <rect
         style="font-variation-settings:normal;vector-effect:none;fill:#c0bfbc;fill-opacity:1;fill-rule:evenodd;stroke:#000000;stroke-width:0.264583;stroke-linecap:butt;stroke-linejoin:miter;stroke-miterlimit:4;stroke-dasharray:none;stroke-dashoffset:0;stroke-opacity:1;stop-color:#000000"
         id="rect940"
         width="10.583333"
         height="10.583333"
         x="92.604164"
         y="60.854168" />
      <rect
         style="font-variation-settings:normal;vector-effect:none;fill:#c0bfbc;fill-opacity:1;fill-rule:evenodd;stroke:#000000;stroke-width:0.264583;stroke-linecap:butt;stroke-linejoin:miter;stroke-miterlimit:4;stroke-dasharray:none;stroke-dashoffset:0;stroke-opacity:1;stop-color:#000000"
         id="rect942"
         width="10.583333"
         height="10.583333"
         x="103.1875"
         y="60.854168" />
      <rect
         style="font-variation-settings:normal;vector-effect:none;fill:#c0bfbc;fill-opacity:1;fill-rule:evenodd;stroke:#000000;stroke-width:0.264583;stroke-linecap:butt;stroke-linejoin:miter;stroke-miterlimit:4;stroke-dasharray:none;stroke-dashoffset:0;stroke-opacity:1;stop-color:#000000"
         id="rect944"
         width="10.583333"
         height="10.583333"
         x="113.77083"
         y="60.854168" />
      <rect
         style="font-variation-settings:normal;vector-effect:none;fill:#c0bfbc;fill-opacity:1;fill-rule:evenodd;stroke:#000000;stroke-width:0.264583;stroke-linecap:butt;stroke-linejoin:miter;stroke-miterlimit:4;stroke-dasharray:none;stroke-dashoffset:0;stroke-opacity:1;stop-color:#000000"
         id="rect946"
         width="10.583333"
         height="10.583333"
         x="92.604164"
         y="74.083336" />
      <rect
         style="font-variation-settings:normal;vector-effect:none;fill:#c0bfbc;fill-opacity:1;fill-rule:evenodd;stroke:#000000;stroke-width:0.264583;stroke-linecap:butt;stroke-linejoin:miter;stroke-miterlimit:4;stroke-dasharray:none;stroke-dashoffset:0;stroke-opacity:1;stop-color:#000000"
         id="rect948"
         width="10.583333"
         height="10.583333"
         x="103.1875"
         y="74.083336" />
      <rect
         style="font-variation-settings:normal;vector-effect:none;fill:#c0bfbc;fill-opacity:1;fill-rule:evenodd;stroke:#000000;stroke-width:0.264583;stroke-linecap:butt;stroke-linejoin:miter;stroke-miterlimit:4;stroke-dasharray:none;stroke-dashoffset:0;stroke-opacity:1;stop-color:#000000"
         id="rect950"
         width="10.583333"
         height="10.583333"
         x="113.77083"
         y="74.083336" />
      <path
         style="fill:none;stroke:#000000;stroke-width:0.264583px;stroke-linecap:butt;stroke-linejoin:miter;stroke-opacity:1;marker-end:url(#Arrow2Mend)"
         d="M 63.499999,95.249999 92.604166,52.916666"
         id="path1446" />
      <path
         style="fill:none;stroke:#000000;stroke-width:0.264583px;stroke-linecap:butt;stroke-linejoin:miter;stroke-opacity:1;marker-end:url(#Arrow2Mend)"
         d="M 63.499999,105.83333 92.604166,66.145832"
         id="path1448" />
      <path
         style="fill:none;stroke:#000000;stroke-width:0.264583px;stroke-linecap:butt;stroke-linejoin:miter;stroke-opacity:1;marker-end:url(#Arrow2Mend)"
         d="M 63.499999,116.41667 92.604166,79.374999"
         id="path1450" />
      <path
         style="fill:#000000;fill-opacity:1;stroke:none;stroke-width:0"
         d="m 50.981885,95.271337 c 0,-0.72539 -0.0427,-1.45082 -0.35561,-2.11936 -0.41249,-0.88187 -1.16636,-1.0241 -1.53619,-1.0241 -0.55472,0 -1.20903,0.24172 -1.59304,1.08103 -0.28446,0.62583 -0.32716,1.33704 -0.32716,2.06243 0,0.68276 0.0294,1.49352 0.41249,2.19047 0.38405,0.72543 1.05255,0.91032 1.49349,0.91032 0.48361,0 1.18059,-0.18496 1.57886,-1.05255 0.28446,-0.62583 0.32716,-1.33703 0.32716,-2.04824 z m -1.90602,2.90168 c -0.3556,0 -0.8961,-0.2277 -1.05255,-1.09526 -0.0995,-0.54049 -0.0995,-1.3797 -0.0995,-1.9202 0,-0.58317 0,-1.18059 0.0711,-1.6642 0.17061,-1.08099 0.85343,-1.16633 1.081,-1.16633 0.29881,0 0.8961,0.17061 1.0668,1.06677 0.0995,0.51206 0.0995,1.19482 0.0995,1.76376 0,0.68276 0,1.29437 -0.0995,1.87754 -0.14222,0.86765 -0.65431,1.13792 -1.0668,1.13792 z m 0,0"
         id="id-cee85c0b-d7da-4428-a3ac-eb0b3f068b76" />
      <path
         style="fill:#000000;fill-opacity:1;stroke:none;stroke-width:0"
         d="m 49.445675,103.05246 c 0,-0.2277 0,-0.24172 -0.21334,-0.24172 -0.56898,0.58316 -1.36549,0.58316 -1.64997,0.58316 v 0.28446 c 0.18496,0 0.7112,0 1.18058,-0.24172 v 4.70809 c 0,0.32716 -0.0294,0.42672 -0.8392,0.42672 h -0.28446 v 0.28446 c 0.31284,-0.0294 1.09525,-0.0294 1.46504,-0.0294 0.35561,0 1.15215,0 1.46508,0.0294 v -0.28446 h -0.28446 c -0.82498,0 -0.8392,-0.0995 -0.8392,-0.42672 z m 0,0"
         id="id-84a3102a-ec0c-4d96-809b-dba6144c7a6a" />
      <path
         style="fill:#000000;fill-opacity:1;stroke:none;stroke-width:0"
         d="m 47.96644,118.74279 0.96722,-0.93876 c 1.40815,-1.25171 1.94865,-1.73531 1.94865,-2.64564 0,-1.03832 -0.81073,-1.76375 -1.92021,-1.76375 -1.0241,0 -1.69264,0.83921 -1.69264,1.64997 0,0.49783 0.45516,0.49783 0.48361,0.49783 0.15658,0 0.46938,-0.0995 0.46938,-0.48361 0,-0.22769 -0.17061,-0.46938 -0.4836,-0.46938 -0.0711,0 -0.0855,0 -0.11385,0.0131 0.19899,-0.59742 0.69695,-0.92455 1.22326,-0.92455 0.82498,0 1.209,0.73962 1.209,1.47927 0,0.72543 -0.44094,1.4366 -0.953,2.00557 l -1.7353,1.93443 c -0.0995,0.0995 -0.0995,0.1282 -0.0995,0.34138 h 3.37106 l 0.24172,-1.57886 H 50.6689 c -0.0568,0.2701 -0.11385,0.66854 -0.21334,0.81077 -0.0568,0.0711 -0.65428,0.0711 -0.85343,0.0711 z m 0,0"
         id="id-9330aaf6-58f9-42b2-b92c-30af4efd9af2" />
      <path
         style="fill:#000000;fill-opacity:1;stroke:none;stroke-width:0"
         d="m 99.801832,42.866999 c 0,-0.72539 -0.0427,-1.45082 -0.35561,-2.11936 -0.412493,-0.88187 -1.166363,-1.0241 -1.536193,-1.0241 -0.55472,0 -1.20903,0.24172 -1.59304,1.08103 -0.28446,0.62583 -0.32716,1.33704 -0.32716,2.06243 0,0.68276 0.0294,1.49352 0.41249,2.19047 0.38405,0.72543 1.05255,0.91032 1.49349,0.91032 0.48361,0 1.18059,-0.18496 1.578863,-1.05255 0.28446,-0.62583 0.32716,-1.33703 0.32716,-2.04824 z m -1.906023,2.90168 c -0.3556,0 -0.8961,-0.2277 -1.05255,-1.09526 -0.0995,-0.54049 -0.0995,-1.3797 -0.0995,-1.9202 0,-0.58317 0,-1.18059 0.0711,-1.6642 0.17061,-1.08099 0.85343,-1.16633 1.081,-1.16633 0.29881,0 0.8961,0.17061 1.0668,1.06677 0.0995,0.51206 0.0995,1.19482 0.0995,1.76376 0,0.68276 0,1.29437 -0.0995,1.87754 -0.14222,0.86765 -0.65431,1.13792 -1.0668,1.13792 z m 0,0"
         id="id-ee575058-9431-4198-9f72-86b4f5bf694f" />
      <path
         style="fill:#000000;fill-opacity:1;stroke:none;stroke-width:0"
         d="m 108.84896,40.064799 c 0,-0.2277 0,-0.24172 -0.21334,-0.24172 -0.56898,0.58316 -1.36549,0.58316 -1.64997,0.58316 v 0.28446 c 0.18496,0 0.7112,0 1.18058,-0.24172 v 4.70809 c 0,0.32716 -0.0294,0.42672 -0.83921,0.42672 h -0.28445 v 0.28446 c 0.31284,-0.0294 1.09525,-0.0294 1.46504,-0.0294 0.3556,0 1.15215,0 1.46508,0.0294 v -0.28446 h -0.28446 c -0.82498,0 -0.83921,-0.0995 -0.83921,-0.42672 z m 0,0"
         id="id-33ac30df-058c-47f6-8c47-80f0f36fd1ba" />
      <path
         style="fill:#000000;fill-opacity:1;stroke:none;stroke-width:0"
         d="m 118.4382,45.171809 0.96722,-0.93876 c 1.40815,-1.25171 1.94865,-1.73531 1.94865,-2.64564 0,-1.03832 -0.81073,-1.76375 -1.92021,-1.76375 -1.0241,0 -1.69264,0.83921 -1.69264,1.64997 0,0.49783 0.45516,0.49783 0.48361,0.49783 0.15658,0 0.46938,-0.0995 0.46938,-0.48361 0,-0.22769 -0.17061,-0.46938 -0.4836,-0.46938 -0.0711,0 -0.0855,0 -0.11385,0.0131 0.19899,-0.59742 0.69695,-0.92455 1.22325,-0.92455 0.82499,0 1.20901,0.73962 1.20901,1.47927 0,0.72543 -0.44094,1.4366 -0.953,2.00557 l -1.7353,1.93443 c -0.0995,0.0995 -0.0995,0.1282 -0.0995,0.34138 h 3.37106 l 0.24172,-1.57886 h -0.21334 c -0.0568,0.2701 -0.11385,0.66854 -0.21334,0.81077 -0.0568,0.0711 -0.65428,0.0711 -0.85343,0.0711 z m 0,0"
         id="id-9d23c0d2-96ae-490b-8d4d-333956343705" />
      <rect
         style="font-variation-settings:normal;fill:none;fill-opacity:1;fill-rule:evenodd;stroke:#000000;stroke-width:0.264583;stroke-linecap:butt;stroke-linejoin:miter;stroke-miterlimit:4;stroke-dasharray:1.05833, 1.05833;stroke-dashoffset:0;stroke-opacity:1;stop-color:#000000"
         id="rect2087"
         width="34.395832"
         height="44.979168"
         x="34.395832"
         y="84.666664" />
      <g
         id="g2453"
         transform="translate(-62.004303,-30.602765)">
        <g
           transform="matrix(0.76522618,0,0,0.76522618,92.837753,112.89519)"
           id="g2266"
           style="fill:#000000;fill-opacity:1">
          <path
             style="stroke:none;stroke-width:0"
             d="m 2.46875,-1.96875 c 0.4375,0.109375 0.875,0.203125 0.875,0.75 0,0.3125 -0.265625,1.109375 -1.296875,1.109375 -0.21875,0 -0.796875,-0.046875 -0.953125,-0.5625 0.515625,-0.046875 0.515625,-0.46875 0.515625,-0.484375 0,-0.1875 -0.140625,-0.3125 -0.34375,-0.3125 -0.234375,0 -0.515625,0.15625 -0.515625,0.609375 0,0.609375 0.578125,0.96875 1.296875,0.96875 1.484375,0 1.875,-1.21875 1.875,-1.671875 0,-0.875 -0.78125,-1.046875 -1.1875,-1.140625 -0.28125,-0.0625 -0.640625,-0.140625 -0.640625,-0.5625 0,-0.25 0.203125,-0.921875 1,-0.921875 0.28125,0 0.640625,0.09375 0.75,0.484375 -0.3125,0.046875 -0.390625,0.3125 -0.390625,0.40625 0,0.109375 0.0625,0.28125 0.296875,0.28125 0.171875,0 0.421875,-0.109375 0.421875,-0.546875 0,-0.453125 -0.40625,-0.84375 -1.0625,-0.84375 -1.171875,0 -1.578125,0.953125 -1.578125,1.46875 0,0.78125 0.65625,0.90625 0.9375,0.96875 z m 0,0"
             id="id-86dcf39f-8a28-4bc6-a075-1d1fc7b17429" />
        </g>
        <g
           transform="matrix(0.76522618,0,0,0.76522618,95.955284,112.89519)"
           id="g2269"
           style="fill:#000000;fill-opacity:1">
          <path
             style="stroke:none;stroke-width:0"
             d="M 2.59375,-3.984375 H 3.4375 c 0.171875,0 0.28125,0 0.28125,-0.1875 0,-0.125 -0.09375,-0.125 -0.25,-0.125 H 2.671875 l 0.375,-1.46875 c 0.03125,-0.140625 0.03125,-0.171875 0.03125,-0.21875 0,-0.203125 -0.171875,-0.25 -0.265625,-0.25 -0.25,0 -0.34375,0.203125 -0.390625,0.359375 L 2.03125,-4.296875 H 1.1875 c -0.171875,0 -0.28125,0 -0.28125,0.1875 0,0.125 0.09375,0.125 0.25,0.125 H 1.953125 L 1.234375,-1.125 C 1.21875,-1.09375 1.1875,-0.921875 1.1875,-0.78125 c 0,0.484375 0.328125,0.890625 0.84375,0.890625 1.015625,0 1.515625,-1.484375 1.515625,-1.53125 0,-0.109375 -0.078125,-0.109375 -0.140625,-0.109375 -0.125,0 -0.125,0.015625 -0.203125,0.203125 -0.1875,0.46875 -0.578125,1.21875 -1.15625,1.21875 -0.265625,0 -0.265625,-0.25 -0.265625,-0.40625 0,-0.078125 0,-0.234375 0.078125,-0.515625 z m 0,0"
             id="id-cdca3ce9-f0b2-4902-bd96-12873e120437" />
        </g>
        <g
           transform="matrix(0.76522618,0,0,0.76522618,98.487418,112.89519)"
           id="g2272"
           style="fill:#000000;fill-opacity:1">
          <path
             style="stroke:none;stroke-width:0"
             d="m 3.484375,-0.59375 c 0.109375,0.5 0.46875,0.703125 0.828125,0.703125 0.359375,0 0.578125,-0.25 0.71875,-0.5625 0.1875,-0.375 0.296875,-0.953125 0.296875,-0.96875 0,-0.109375 -0.078125,-0.109375 -0.140625,-0.109375 -0.125,0 -0.140625,0.015625 -0.1875,0.234375 -0.140625,0.5625 -0.328125,1.1875 -0.671875,1.1875 -0.265625,0 -0.265625,-0.265625 -0.265625,-0.40625 0,-0.078125 0,-0.234375 0.078125,-0.515625 L 4.8125,-3.734375 c 0.046875,-0.140625 0.046875,-0.15625 0.046875,-0.21875 0,-0.203125 -0.171875,-0.25 -0.28125,-0.25 -0.3125,0 -0.375,0.328125 -0.390625,0.390625 C 4,-4.25 3.671875,-4.40625 3.359375,-4.40625 c -1.109375,0 -2.28125,1.515625 -2.28125,2.96875 0,0.84375 0.453125,1.546875 1.203125,1.546875 0.359375,0 0.796875,-0.203125 1.203125,-0.703125 z m 0.53125,-2.53125 -0.46875,1.890625 c -0.078125,0.3125 -0.703125,1.125 -1.25,1.125 C 1.828125,-0.109375 1.75,-0.703125 1.75,-1 1.75,-1.5 2.0625,-2.65625 2.25,-3.078125 2.5,-3.6875 2.953125,-4.1875 3.359375,-4.1875 c 0.4375,0 0.6875,0.515625 0.6875,0.9375 0,0.015625 -0.015625,0.0625 -0.03125,0.125 z m 0,0"
             id="id-6a0954f4-b8d0-4755-ad1d-de4d4d1a15bc" />
        </g>
        <g
           transform="matrix(0.76522618,0,0,0.76522618,102.38395,112.89519)"
           id="g2275"
           style="fill:#000000;fill-opacity:1">
          <path
             style="stroke:none;stroke-width:0"
             d="m 4.34375,-3.765625 c -0.5,0.0625 -0.5,0.46875 -0.5,0.5 0,0.15625 0.109375,0.3125 0.328125,0.3125 0.28125,0 0.515625,-0.21875 0.515625,-0.59375 0,-0.484375 -0.4375,-0.859375 -1.0625,-0.859375 -1.25,0 -2.53125,1.421875 -2.53125,2.875 0,0.984375 0.59375,1.640625 1.46875,1.640625 1.28125,0 2.109375,-1 2.109375,-1.140625 0,-0.0625 -0.09375,-0.171875 -0.171875,-0.171875 -0.03125,0 -0.046875,0.015625 -0.125,0.109375 -0.734375,0.9375 -1.625,0.984375 -1.796875,0.984375 -0.53125,0 -0.78125,-0.453125 -0.78125,-1.03125 0,-0.53125 0.265625,-1.578125 0.53125,-2.046875 0.359375,-0.65625 0.859375,-1 1.296875,-1 0.109375,0 0.5625,0.015625 0.71875,0.421875 z m 0,0"
             id="id-64e9d946-ed93-4213-88d1-921180fa1cee" />
        </g>
        <g
           transform="matrix(0.76522618,0,0,0.76522618,105.89098,112.89519)"
           id="g2278"
           style="fill:#000000;fill-opacity:1">
          <path
             style="stroke:none;stroke-width:0"
             d="m 3.015625,-6.671875 c 0.015625,-0.03125 0.03125,-0.109375 0.03125,-0.125 0,-0.09375 -0.0625,-0.125 -0.140625,-0.125 -0.03125,0 -0.125,0.015625 -0.15625,0.03125 L 1.765625,-6.8125 c -0.125,0 -0.234375,0.015625 -0.234375,0.203125 0,0.109375 0.109375,0.109375 0.25,0.109375 0.46875,0 0.484375,0.0625 0.484375,0.171875 0,0.03125 -0.015625,0.15625 -0.015625,0.171875 l -1.484375,5.875 C 0.75,-0.265625 0.75,-0.171875 0.75,-0.15625 c 0,0.109375 0.09375,0.265625 0.28125,0.265625 0.296875,0 0.359375,-0.28125 0.390625,-0.375 l 0.5,-2.015625 c 0.375,0.046875 1.015625,0.25 1.015625,0.828125 0,0.078125 0,0.125 -0.03125,0.25 -0.046875,0.171875 -0.046875,0.25 -0.046875,0.34375 0,0.71875 0.46875,0.96875 0.84375,0.96875 0.4375,0 0.65625,-0.328125 0.765625,-0.515625 0.21875,-0.375 0.359375,-0.984375 0.359375,-1.015625 0,-0.109375 -0.078125,-0.109375 -0.15625,-0.109375 -0.109375,0 -0.125,0.015625 -0.1875,0.234375 -0.125,0.515625 -0.3125,1.1875 -0.75,1.1875 -0.28125,0 -0.296875,-0.234375 -0.296875,-0.421875 0,-0.234375 0.078125,-0.515625 0.078125,-0.5625 C 3.5625,-1.3125 3.5625,-1.3125 3.5625,-1.453125 3.5625,-2.125 2.875,-2.390625 2.25,-2.484375 2.46875,-2.625 2.6875,-2.828125 2.953125,-3.140625 3.46875,-3.734375 3.859375,-4.1875 4.359375,-4.1875 c 0.1875,0 0.25,0.109375 0.265625,0.125 -0.421875,0.0625 -0.46875,0.40625 -0.46875,0.5 0,0.125 0.09375,0.3125 0.34375,0.3125 0.21875,0 0.5,-0.171875 0.5,-0.5625 0,-0.25 -0.171875,-0.59375 -0.625,-0.59375 -0.53125,0 -0.953125,0.421875 -1.296875,0.8125 C 2.515625,-2.9375 2.359375,-2.765625 2,-2.609375 Z m 0,0"
             id="id-1555cee2-baf9-4aa9-af92-fc7ef41658fd" />
        </g>
      </g>
      <g
         id="g2463"
         transform="translate(9.957339,-78.516258)">
        <g
           transform="matrix(0.76522618,0,0,0.76522618,111.93627,112.89519)"
           id="g2282"
           style="fill:#000000;fill-opacity:1">
          <path
             style="stroke:none;stroke-width:0"
             d="m 3.015625,-6.671875 c 0.015625,-0.03125 0.03125,-0.109375 0.03125,-0.125 0,-0.09375 -0.0625,-0.125 -0.140625,-0.125 -0.03125,0 -0.125,0.015625 -0.15625,0.03125 L 1.765625,-6.8125 c -0.125,0 -0.234375,0.015625 -0.234375,0.203125 0,0.109375 0.109375,0.109375 0.25,0.109375 0.46875,0 0.484375,0.0625 0.484375,0.171875 0,0.03125 -0.015625,0.15625 -0.015625,0.171875 l -1.484375,5.875 C 0.75,-0.265625 0.75,-0.171875 0.75,-0.15625 c 0,0.109375 0.09375,0.265625 0.28125,0.265625 0.203125,0 0.328125,-0.171875 0.359375,-0.28125 0.046875,-0.140625 0.359375,-1.4375 0.4375,-1.71875 0.046875,-0.21875 0.109375,-0.4375 0.15625,-0.65625 0.09375,-0.359375 0.09375,-0.375 0.28125,-0.6875 C 2.46875,-3.5625 2.890625,-4.1875 3.59375,-4.1875 c 0.4375,0 0.453125,0.453125 0.453125,0.65625 0,0.625 -0.4375,1.8125 -0.578125,2.203125 -0.125,0.34375 -0.15625,0.4375 -0.15625,0.640625 0,0.4375 0.28125,0.796875 0.75,0.796875 0.9375,0 1.265625,-1.484375 1.265625,-1.53125 0,-0.109375 -0.078125,-0.109375 -0.140625,-0.109375 -0.140625,0 -0.140625,0.03125 -0.171875,0.171875 -0.078125,0.265625 -0.34375,1.25 -0.921875,1.25 -0.21875,0 -0.21875,-0.15625 -0.21875,-0.296875 0,-0.234375 0.09375,-0.5 0.171875,-0.734375 C 4.25,-1.671875 4.65625,-2.796875 4.65625,-3.375 c 0,-0.8125 -0.546875,-1.03125 -1.03125,-1.03125 -0.671875,0 -1.015625,0.34375 -1.328125,0.640625 z m 0,0"
             id="id-746f11d8-25f8-4be8-907e-667cb8d377ae" />
        </g>
        <g
           transform="matrix(0.76522618,0,0,0.76522618,115.8328,112.89519)"
           id="g2285"
           style="fill:#000000;fill-opacity:1">
          <path
             style="stroke:none;stroke-width:0"
             d="m 2.375,-2.296875 c 0.3125,0 0.96875,-0.03125 1.453125,-0.21875 0.78125,-0.328125 0.78125,-0.96875 0.78125,-1.046875 0,-0.453125 -0.359375,-0.84375 -1,-0.84375 -1.046875,0 -2.46875,1 -2.46875,2.765625 0,0.90625 0.46875,1.75 1.421875,1.75 1.28125,0 2.109375,-1 2.109375,-1.140625 0,-0.0625 -0.09375,-0.171875 -0.171875,-0.171875 -0.03125,0 -0.046875,0.015625 -0.125,0.109375 -0.734375,0.9375 -1.625,0.984375 -1.796875,0.984375 -0.640625,0 -0.75,-0.703125 -0.75,-1.09375 0,-0.375 0.09375,-0.828125 0.171875,-1.09375 z m -0.328125,-0.21875 c 0.4375,-1.640625 1.46875,-1.671875 1.5625,-1.671875 0.390625,0 0.625,0.265625 0.625,0.609375 0,1.0625 -1.640625,1.0625 -1.96875,1.0625 z m 0,0"
             id="id-6c35bb14-beb2-4c52-a227-646bdf67127b" />
        </g>
        <g
           transform="matrix(0.76522618,0,0,0.76522618,118.9511,112.89519)"
           id="g2289"
           style="fill:#000000;fill-opacity:1">
          <path
             style="stroke:none;stroke-width:0"
             d="m 3.484375,-0.59375 c 0.109375,0.5 0.46875,0.703125 0.828125,0.703125 0.359375,0 0.578125,-0.25 0.71875,-0.5625 0.1875,-0.375 0.296875,-0.953125 0.296875,-0.96875 0,-0.109375 -0.078125,-0.109375 -0.140625,-0.109375 -0.125,0 -0.140625,0.015625 -0.1875,0.234375 -0.140625,0.5625 -0.328125,1.1875 -0.671875,1.1875 -0.265625,0 -0.265625,-0.265625 -0.265625,-0.40625 0,-0.078125 0,-0.234375 0.078125,-0.515625 L 4.8125,-3.734375 c 0.046875,-0.140625 0.046875,-0.15625 0.046875,-0.21875 0,-0.203125 -0.171875,-0.25 -0.28125,-0.25 -0.3125,0 -0.375,0.328125 -0.390625,0.390625 C 4,-4.25 3.671875,-4.40625 3.359375,-4.40625 c -1.109375,0 -2.28125,1.515625 -2.28125,2.96875 0,0.84375 0.453125,1.546875 1.203125,1.546875 0.359375,0 0.796875,-0.203125 1.203125,-0.703125 z m 0.53125,-2.53125 -0.46875,1.890625 c -0.078125,0.3125 -0.703125,1.125 -1.25,1.125 C 1.828125,-0.109375 1.75,-0.703125 1.75,-1 1.75,-1.5 2.0625,-2.65625 2.25,-3.078125 2.5,-3.6875 2.953125,-4.1875 3.359375,-4.1875 c 0.4375,0 0.6875,0.515625 0.6875,0.9375 0,0.015625 -0.015625,0.0625 -0.03125,0.125 z m 0,0"
             id="id-c0203403-3913-49cb-bb61-74351293e271" />
        </g>
        <g
           transform="matrix(0.76522618,0,0,0.76522618,122.84763,112.89519)"
           id="g2292"
           style="fill:#000000;fill-opacity:1">
          <path
             style="stroke:none;stroke-width:0"
             d="M 0.890625,1.28125 C 0.8125,1.578125 0.734375,1.609375 0.34375,1.625 c -0.078125,0 -0.203125,0 -0.203125,0.1875 0,0.078125 0.046875,0.125 0.125,0.125 0.265625,0 0.546875,-0.03125 0.828125,-0.03125 0.328125,0 0.65625,0.03125 0.96875,0.03125 0.0625,0 0.1875,0 0.1875,-0.1875 C 2.25,1.625 2.15625,1.625 2.015625,1.625 1.5,1.625 1.5,1.5625 1.5,1.46875 1.5,1.40625 1.578125,1.140625 1.609375,0.984375 L 1.96875,-0.46875 c 0.078125,0.171875 0.328125,0.578125 0.84375,0.578125 1.078125,0 2.265625,-1.46875 2.265625,-2.953125 0,-1.078125 -0.59375,-1.5625 -1.1875,-1.5625 -0.484375,0 -0.921875,0.359375 -1.203125,0.703125 C 2.5625,-4.28125 2.109375,-4.40625 1.859375,-4.40625 1.5,-4.40625 1.3125,-4.171875 1.140625,-3.875 c -0.1875,0.390625 -0.3125,0.984375 -0.3125,1 0,0.109375 0.09375,0.109375 0.15625,0.109375 0.125,0 0.125,-0.015625 0.1875,-0.234375 0.171875,-0.703125 0.359375,-1.1875 0.671875,-1.1875 0.265625,0 0.265625,0.296875 0.265625,0.40625 0,0.046875 0,0.21875 -0.078125,0.484375 z M 2.625,-3.0625 c 0.078125,-0.34375 0.6875,-1.125 1.25,-1.125 0.4375,0 0.546875,0.5625 0.546875,0.890625 0,0.421875 -0.28125,1.609375 -0.5625,2.234375 -0.125,0.25 -0.546875,0.953125 -1.0625,0.953125 -0.578125,0 -0.671875,-0.84375 -0.671875,-0.921875 0,-0.03125 0.015625,-0.0625 0.03125,-0.140625 z m 0,0"
             id="id-c09b0d19-0514-4f42-a5c9-803fd3ceb357" />
        </g>
      </g>
      <rect
         style="font-variation-settings:normal;fill:none;fill-opacity:1;fill-rule:evenodd;stroke:#000000;stroke-width:0.264583;stroke-linecap:butt;stroke-linejoin:miter;stroke-miterlimit:4;stroke-dasharray:1.05833, 1.05833;stroke-dashoffset:0;stroke-opacity:1;stop-color:#000000"
         id="rect2487"
         width="39.6875"
         height="55.5625"
         x="87.3125"
         y="37.041668" />
    </g>
  </g>
</svg>
