<?xml version="1.0" encoding="UTF-8" standalone="no"?>
<!-- Created with Inkscape (http://www.inkscape.org/) -->

<svg
   width="35.701969mm"
   height="57.831326mm"
   viewBox="0 0 35.701969 57.831326"
   version="1.1"
   id="svg5"
   sodipodi:docname="independent_sets.svg"
   inkscape:version="1.1 (c4e8f9e, 2021-05-24)"
   xmlns:inkscape="http://www.inkscape.org/namespaces/inkscape"
   xmlns:sodipodi="http://sodipodi.sourceforge.net/DTD/sodipodi-0.dtd"
   xmlns="http://www.w3.org/2000/svg"
   xmlns:svg="http://www.w3.org/2000/svg">
  <sodipodi:namedview
     id="namedview7"
     pagecolor="#ffffff"
     bordercolor="#666666"
     borderopacity="1.0"
     inkscape:pageshadow="2"
     inkscape:pageopacity="0.0"
     inkscape:pagecheckerboard="0"
     inkscape:document-units="mm"
     showgrid="false"
     inkscape:zoom="1.1419269"
     inkscape:cx="-0.43785638"
     inkscape:cy="113.4048"
     inkscape:window-width="1312"
     inkscape:window-height="847"
     inkscape:window-x="0"
     inkscape:window-y="25"
     inkscape:window-maximized="0"
     inkscape:current-layer="layer1">
    <inkscape:grid
       type="xygrid"
       id="grid824"
       originx="-76.408929"
       originy="-110.63205" />
  </sodipodi:namedview>
  <defs
     id="defs2">
    <marker
       style="overflow:visible"
       id="DotL"
       refX="0"
       refY="0"
       orient="auto"
       inkscape:stockid="DotL"
       inkscape:isstock="true">
      <path
         transform="matrix(0.8,0,0,0.8,5.92,0.8)"
         style="fill:context-stroke;fill-rule:evenodd;stroke:context-stroke;stroke-width:1pt"
         d="m -2.5,-1 c 0,2.76 -2.24,5 -5,5 -2.76,0 -5,-2.24 -5,-5 0,-2.76 2.24,-5 5,-5 2.76,0 5,2.24 5,5 z"
         id="path1547" />
    </marker>
    <defs
       id="id-8be2ac5f-80fb-45bc-bbea-bb84e7e50040">
      <g
         id="id-e994e6cb-c1a4-452e-af11-0937b463b02e">
        <symbol
           overflow="visible"
           id="id-291d53e7-fbd4-4a4e-9ad5-c9e6ea279354">
          <path
             style="stroke:none;stroke-width:0"
             d=""
             id="id-1219f9ef-3512-4600-8eeb-ef519d054140" />
        </symbol>
        <symbol
           overflow="visible"
           id="id-c1573dc4-abe3-4e19-bb31-5d7f14ee158a">
          <path
             style="stroke:none;stroke-width:0"
             d="m 4.671875,-3.703125 c 0,-0.546875 -0.265625,-0.703125 -0.4375,-0.703125 -0.25,0 -0.5,0.265625 -0.5,0.484375 0,0.125 0.046875,0.1875 0.15625,0.296875 0.21875,0.203125 0.34375,0.453125 0.34375,0.8125 0,0.421875 -0.609375,2.703125 -1.765625,2.703125 -0.515625,0 -0.75,-0.34375 -0.75,-0.875 0,-0.546875 0.28125,-1.28125 0.578125,-2.109375 0.078125,-0.171875 0.125,-0.3125 0.125,-0.5 0,-0.4375 -0.3125,-0.8125 -0.8125,-0.8125 -0.9375,0 -1.3125,1.453125 -1.3125,1.53125 0,0.109375 0.09375,0.109375 0.109375,0.109375 0.109375,0 0.109375,-0.03125 0.15625,-0.1875 0.296875,-1 0.71875,-1.234375 1.015625,-1.234375 0.078125,0 0.25,0 0.25,0.3125 0,0.25 -0.109375,0.53125 -0.171875,0.703125 -0.4375,1.15625 -0.5625,1.609375 -0.5625,2.046875 0,1.078125 0.875,1.234375 1.328125,1.234375 1.671875,0 2.25,-3.296875 2.25,-3.8125 z m 0,0"
             id="id-9db72607-2e88-41d5-8ad2-e427a3c0bccc" />
        </symbol>
        <symbol
           overflow="visible"
           id="id-155b2e94-4359-4cc2-9b1d-a7a5d05c700b">
          <path
             style="stroke:none;stroke-width:0"
             d=""
             id="id-586748b5-351e-41da-b690-b8d656d952e8" />
        </symbol>
        <symbol
           overflow="visible"
           id="id-05d4feef-0538-48f3-9d1d-40132941e28c">
          <path
             style="stroke:none;stroke-width:0"
             d="m 2.328125,-4.4375 c 0,-0.1875 0,-0.1875 -0.203125,-0.1875 -0.453125,0.4375 -1.078125,0.4375 -1.359375,0.4375 v 0.25 c 0.15625,0 0.625,0 1,-0.1875 v 3.546875 c 0,0.234375 0,0.328125 -0.6875,0.328125 H 0.8125 V 0 c 0.125,0 0.984375,-0.03125 1.234375,-0.03125 0.21875,0 1.09375,0.03125 1.25,0.03125 V -0.25 H 3.03125 c -0.703125,0 -0.703125,-0.09375 -0.703125,-0.328125 z m 0,0"
             id="id-78c6a18e-c0ca-4b64-ba14-2db3e3321774" />
        </symbol>
        <symbol
           overflow="visible"
           id="id-160eac03-7f80-442f-af68-3087fb904690">
          <path
             style="stroke:none;stroke-width:0"
             d="M 3.515625,-1.265625 H 3.28125 c -0.015625,0.15625 -0.09375,0.5625 -0.1875,0.625 C 3.046875,-0.59375 2.515625,-0.59375 2.40625,-0.59375 H 1.125 c 0.734375,-0.640625 0.984375,-0.84375 1.390625,-1.171875 0.515625,-0.40625 1,-0.84375 1,-1.5 0,-0.84375 -0.734375,-1.359375 -1.625,-1.359375 -0.859375,0 -1.453125,0.609375 -1.453125,1.25 0,0.34375 0.296875,0.390625 0.375,0.390625 0.15625,0 0.359375,-0.125 0.359375,-0.375 0,-0.125 -0.046875,-0.375 -0.40625,-0.375 C 0.984375,-4.21875 1.453125,-4.375 1.78125,-4.375 c 0.703125,0 1.0625,0.546875 1.0625,1.109375 0,0.609375 -0.4375,1.078125 -0.65625,1.328125 L 0.515625,-0.265625 C 0.4375,-0.203125 0.4375,-0.1875 0.4375,0 h 2.875 z m 0,0"
             id="id-942031cd-910b-4c98-8497-a2f6e1649b34" />
        </symbol>
        <symbol
           overflow="visible"
           id="id-48a7fcb3-466d-4479-a48e-78ab12cc358a">
          <path
             style="stroke:none;stroke-width:0"
             d="m 1.90625,-2.328125 c 0.546875,0 0.9375,0.375 0.9375,1.125 0,0.859375 -0.515625,1.125 -0.90625,1.125 -0.28125,0 -0.90625,-0.078125 -1.1875,-0.5 0.328125,0 0.40625,-0.234375 0.40625,-0.390625 0,-0.21875 -0.171875,-0.375 -0.390625,-0.375 -0.1875,0 -0.390625,0.125 -0.390625,0.40625 0,0.65625 0.71875,1.078125 1.5625,1.078125 0.96875,0 1.640625,-0.65625 1.640625,-1.34375 0,-0.546875 -0.4375,-1.09375 -1.203125,-1.25 0.71875,-0.265625 0.984375,-0.78125 0.984375,-1.21875 0,-0.546875 -0.625,-0.953125 -1.40625,-0.953125 -0.765625,0 -1.359375,0.375 -1.359375,0.9375 0,0.234375 0.15625,0.359375 0.359375,0.359375 0.21875,0 0.359375,-0.15625 0.359375,-0.34375 0,-0.203125 -0.140625,-0.359375 -0.359375,-0.375 0.25,-0.296875 0.71875,-0.375 0.984375,-0.375 0.3125,0 0.75,0.15625 0.75,0.75 0,0.296875 -0.09375,0.625 -0.28125,0.828125 -0.21875,0.265625 -0.421875,0.28125 -0.765625,0.3125 -0.171875,0.015625 -0.1875,0.015625 -0.21875,0.015625 -0.015625,0 -0.078125,0.015625 -0.078125,0.09375 0,0.09375 0.0625,0.09375 0.1875,0.09375 z m 0,0"
             id="id-51181369-a792-4cc1-a442-883d4753179d" />
        </symbol>
        <symbol
           overflow="visible"
           id="id-6d0b6e1f-8e01-4d2b-b510-d099b8ee8ba3">
          <path
             style="stroke:none;stroke-width:0"
             d="m 3.6875,-1.140625 v -0.25 H 2.90625 V -4.5 c 0,-0.140625 0,-0.203125 -0.140625,-0.203125 -0.09375,0 -0.125,0 -0.1875,0.109375 l -2.3125,3.203125 v 0.25 h 2.0625 v 0.5625 c 0,0.25 0,0.328125 -0.578125,0.328125 H 1.5625 V 0 C 1.921875,-0.015625 2.359375,-0.03125 2.609375,-0.03125 2.875,-0.03125 3.3125,-0.015625 3.671875,0 v -0.25 h -0.1875 C 2.90625,-0.25 2.90625,-0.328125 2.90625,-0.578125 v -0.5625 z M 2.375,-3.9375 v 2.546875 H 0.53125 Z m 0,0"
             id="id-ff87f3b6-ea92-49fb-9daf-dec78dcf8792" />
        </symbol>
        <symbol
           overflow="visible"
           id="id-b4177c9a-cb14-4f98-aa2b-c5437343cab1">
          <path
             style="stroke:none;stroke-width:0"
             d="m 1.078125,-3.890625 c 0.359375,0.09375 0.5625,0.09375 0.671875,0.09375 0.921875,0 1.46875,-0.625 1.46875,-0.734375 0,-0.078125 -0.046875,-0.09375 -0.078125,-0.09375 -0.015625,0 -0.03125,0 -0.0625,0.015625 -0.171875,0.0625 -0.53125,0.203125 -1.046875,0.203125 -0.203125,0 -0.5625,-0.015625 -1.015625,-0.1875 C 0.9375,-4.625 0.921875,-4.625 0.921875,-4.625 c -0.09375,0 -0.09375,0.078125 -0.09375,0.1875 v 2.046875 c 0,0.125 0,0.203125 0.109375,0.203125 0.0625,0 0.078125,0 0.140625,-0.09375 0.296875,-0.375 0.734375,-0.4375 0.96875,-0.4375 0.421875,0 0.609375,0.328125 0.640625,0.390625 0.125,0.234375 0.171875,0.5 0.171875,0.90625 0,0.203125 0,0.609375 -0.21875,0.921875 -0.171875,0.25 -0.46875,0.421875 -0.8125,0.421875 -0.453125,0 -0.921875,-0.25 -1.09375,-0.71875 0.265625,0.015625 0.40625,-0.15625 0.40625,-0.34375 0,-0.296875 -0.265625,-0.34375 -0.359375,-0.34375 0,0 -0.34375,0 -0.34375,0.375 0,0.625 0.578125,1.25 1.40625,1.25 0.890625,0 1.671875,-0.65625 1.671875,-1.546875 0,-0.78125 -0.59375,-1.5 -1.453125,-1.5 -0.3125,0 -0.671875,0.0625 -0.984375,0.328125 z m 0,0"
             id="id-9652274e-2c1e-40ec-8d22-ae77d97a3d0a" />
        </symbol>
        <symbol
           overflow="visible"
           id="id-2ec9e87c-80a8-4136-b2dc-7a55d7f19818">
          <path
             style="stroke:none;stroke-width:0"
             d="m 1.046875,-2.28125 c 0,-0.5625 0.046875,-1.078125 0.3125,-1.515625 0.234375,-0.375 0.609375,-0.625 1.0625,-0.625 0.203125,0 0.484375,0.046875 0.625,0.234375 C 2.875,-4.171875 2.71875,-4.046875 2.71875,-3.84375 c 0,0.171875 0.125,0.328125 0.328125,0.328125 0.21875,0 0.34375,-0.140625 0.34375,-0.34375 0,-0.40625 -0.296875,-0.765625 -0.984375,-0.765625 -1,0 -2.03125,0.921875 -2.03125,2.421875 0,1.796875 0.84375,2.34375 1.625,2.34375 0.84375,0 1.578125,-0.65625 1.578125,-1.5625 0,-0.890625 -0.703125,-1.546875 -1.515625,-1.546875 -0.5625,0 -0.859375,0.375 -1.015625,0.6875 z M 2,-0.078125 c -0.359375,0 -0.625,-0.203125 -0.78125,-0.515625 C 1.125,-0.796875 1.0625,-1.15625 1.0625,-1.5625 c 0,-0.6875 0.40625,-1.203125 0.96875,-1.203125 0.3125,0 0.53125,0.125 0.703125,0.375 0.171875,0.265625 0.171875,0.5625 0.171875,0.96875 0,0.390625 0,0.6875 -0.1875,0.96875 -0.15625,0.234375 -0.390625,0.375 -0.71875,0.375 z m 0,0"
             id="id-7c12ce80-5bab-4c00-adec-92aca9039dfb" />
        </symbol>
        <symbol
           overflow="visible"
           id="id-835f6813-0388-47ef-aee1-86e0d6297800">
          <path
             style="stroke:none;stroke-width:0"
             d="m 3.734375,-4.203125 c 0.0625,-0.09375 0.0625,-0.109375 0.0625,-0.28125 H 1.96875 C 1.6875,-4.484375 1.609375,-4.5 1.359375,-4.515625 1,-4.546875 0.984375,-4.59375 0.96875,-4.703125 H 0.734375 l -0.25,1.484375 H 0.71875 c 0.015625,-0.109375 0.09375,-0.5625 0.203125,-0.640625 0.046875,-0.03125 0.625,-0.03125 0.71875,-0.03125 H 3.15625 c -0.21875,0.28125 -0.578125,0.71875 -0.71875,0.921875 -0.90625,1.1875 -1,2.296875 -1,2.703125 0,0.078125 0,0.40625 0.328125,0.40625 0.34375,0 0.34375,-0.3125 0.34375,-0.40625 v -0.28125 c 0,-1.34375 0.28125,-1.96875 0.578125,-2.34375 z m 0,0"
             id="id-f4a251c0-20a5-459a-8fd0-1003060ee33b" />
        </symbol>
      </g>
    </defs>
  </defs>
  <g
     inkscape:label="Layer 1"
     inkscape:groupmode="layer"
     id="layer1"
     transform="translate(-76.408925,-110.63205)">
    <g
       id="g3533">
      <g
         id="g3452">
        <g
           id="path1054">
          <path
             style="color:#000000;fill:#2d2d2d;-inkscape-stroke:none"
             d="m 94.783203,115.78711 -11.353516,11.35547 11.482422,11.48242 11.484371,-11.48242 -11.353511,-11.35547 -0.128907,0.12891 z m 0.130859,0.38867 10.966798,10.9668 -10.966798,10.96679 -10.96875,-10.96874 z"
             id="path2576" />
          <g
             id="g2524">
            <g
               id="path2566">
              <path
                 style="color:#000000;fill:#dc0000;fill-rule:evenodd;stroke-width:0.292pt;-inkscape-stroke:none"
                 d="m 95.924714,114.90465 c 0.569872,0.56987 0.569872,1.49488 0,2.06475 -0.569871,0.56987 -1.49488,0.56987 -2.064751,0 -0.569872,-0.56987 -0.569872,-1.49488 0,-2.06475 0.569871,-0.56987 1.49488,-0.56987 2.064751,0 z"
                 id="path2570" />
              <path
                 style="color:#000000;fill:#dc0000;fill-rule:evenodd;-inkscape-stroke:none"
                 d="m 94.892578,114.2832 c -0.423925,0 -0.847748,0.1622 -1.169922,0.48438 -0.644349,0.64435 -0.644349,1.69549 0,2.33984 0.644348,0.64435 1.695496,0.64435 2.339844,0 0.644349,-0.64435 0.644349,-1.69549 0,-2.33984 -0.322174,-0.32218 -0.745997,-0.48438 -1.169922,-0.48438 z m 0,0.38672 c 0.323514,0 0.646835,0.12535 0.894531,0.37305 0.495394,0.49539 0.495394,1.29367 0,1.78906 -0.495393,0.49539 -1.293669,0.49539 -1.789062,0 -0.495394,-0.49539 -0.495394,-1.29367 0,-1.78906 0.247696,-0.2477 0.571017,-0.37305 0.894531,-0.37305 z"
                 id="path2572" />
            </g>
            <g
               id="path2556">
              <path
                 style="color:#000000;fill:#dc0000;fill-rule:evenodd;stroke-width:0.292pt;-inkscape-stroke:none"
                 d="m 83.687665,125.7109 c 0.80592,0 1.46,0.65408 1.46,1.46 0,0.80592 -0.65408,1.46 -1.46,1.46 -0.80592,0 -1.46,-0.65408 -1.46,-1.46 0,-0.80592 0.65408,-1.46 1.46,-1.46 z"
                 id="path2560" />
              <path
                 style="color:#000000;fill:#2d2d2d;fill-rule:evenodd;-inkscape-stroke:none"
                 d="m 83.6875,125.51563 c -0.911246,0 -1.654297,0.745 -1.654297,1.65625 0,0.91124 0.743051,1.65429 1.654297,1.65429 0.911246,0 1.654297,-0.74305 1.654297,-1.65429 0,-0.91125 -0.743051,-1.65625 -1.654297,-1.65625 z m 0,0.39062 c 0.700592,0 1.265625,0.56503 1.265625,1.26563 0,0.70059 -0.565033,1.26367 -1.265625,1.26367 -0.700592,0 -1.265625,-0.56308 -1.265625,-1.26367 0,-0.7006 0.565033,-1.26563 1.265625,-1.26563 z"
                 id="path2562" />
            </g>
            <g
               id="path2546">
              <path
                 style="color:#000000;fill:#dc0000;fill-rule:evenodd;stroke-width:0.292pt;-inkscape-stroke:none"
                 d="m 93.482186,138.36702 c 0,-0.80592 0.65408,-1.46 1.46,-1.46 0.80592,0 1.46,0.65408 1.46,1.46 0,0.80592 -0.65408,1.46 -1.46,1.46 -0.80592,0 -1.46,-0.65408 -1.46,-1.46 z"
                 id="path2550" />
              <path
                 style="color:#000000;fill:#dc0000;fill-rule:evenodd;-inkscape-stroke:none"
                 d="m 94.941406,136.71289 c -0.911246,0 -1.654297,0.74305 -1.654297,1.6543 0,0.91124 0.743051,1.65429 1.654297,1.65429 0.911246,0 1.65625,-0.74305 1.65625,-1.65429 0,-0.91125 -0.745004,-1.6543 -1.65625,-1.6543 z m 0,0.38867 c 0.700593,0 1.265625,0.56504 1.265625,1.26563 0,0.70059 -0.565032,1.26562 -1.265625,1.26562 -0.700592,0 -1.263672,-0.56503 -1.263672,-1.26562 0,-0.70059 0.56308,-1.26563 1.263672,-1.26563 z"
                 id="path2552" />
            </g>
            <g
               id="path2536">
              <path
                 style="color:#000000;fill:#dc0000;fill-rule:evenodd;stroke-width:0.292pt;-inkscape-stroke:none"
                 d="m 106.1383,128.5725 c -0.80592,0 -1.46,-0.65408 -1.46,-1.46 0,-0.80592 0.65408,-1.46 1.46,-1.46 0.80592,0 1.46,0.65408 1.46,1.46 0,0.80592 -0.65408,1.46 -1.46,1.46 z"
                 id="path2540" />
              <path
                 style="color:#000000;fill:#2d2d2d;fill-rule:evenodd;-inkscape-stroke:none"
                 d="m 106.13867,125.45703 c -0.91124,0 -1.65429,0.74501 -1.65429,1.65625 0,0.91125 0.74305,1.6543 1.65429,1.6543 0.91125,0 1.6543,-0.74305 1.6543,-1.6543 0,-0.91124 -0.74305,-1.65625 -1.6543,-1.65625 z m 0,0.39063 c 0.70059,0 1.26563,0.56503 1.26563,1.26562 0,0.70059 -0.56504,1.26367 -1.26563,1.26367 -0.70059,0 -1.26562,-0.56308 -1.26562,-1.26367 0,-0.70059 0.56503,-1.26562 1.26562,-1.26562 z"
                 id="path2542" />
            </g>
            <g
               id="path2526">
              <path
                 style="color:#000000;fill:#dc0000;fill-rule:evenodd;stroke-width:0.292pt;-inkscape-stroke:none"
                 d="m 95.924713,116.92811 c -0.569871,0.56987 -1.49488,0.56987 -2.064752,0 -0.569871,-0.56987 -0.569871,-1.49488 10e-7,-2.06475 0.569871,-0.56988 1.49488,-0.56987 2.064752,0 0.569871,0.56987 0.569871,1.49488 -10e-7,2.06475 z"
                 id="path2530" />
              <path
                 style="color:#000000;fill:#2d2d2d;fill-rule:evenodd;-inkscape-stroke:none"
                 d="m 94.892578,114.24219 c -0.423926,0 -0.847748,0.16219 -1.169922,0.48437 -0.644349,0.64435 -0.644348,1.6955 0,2.33985 0.644349,0.64434 1.695496,0.64434 2.339844,0 0.644349,-0.64435 0.644348,-1.6955 0,-2.33985 -0.322174,-0.32217 -0.745996,-0.48437 -1.169922,-0.48437 z m 0,0.38672 c 0.323514,0 0.646834,0.12535 0.894531,0.37304 0.495393,0.4954 0.495394,1.29367 0,1.78907 -0.495393,0.49539 -1.293668,0.49539 -1.789062,0 -0.495393,-0.4954 -0.495394,-1.29367 0,-1.78907 0.247696,-0.2477 0.571017,-0.37305 0.894531,-0.37304 z"
                 id="path2532" />
            </g>
          </g>
        </g>
        <g
           id="path1089">
          <path
             style="color:#000000;fill:#2d2d2d;-inkscape-stroke:none"
             d="m 95.042969,138.23828 -0.259766,0.25781 11.226567,11.22461 0.25781,-0.25781 z"
             id="path2604" />
          <g
             id="g2582">
            <g
               id="path2594">
              <path
                 style="color:#000000;fill:#dc0000;fill-rule:evenodd;stroke-width:0.292pt;-inkscape-stroke:none"
                 d="m 107.15004,150.60408 c -0.56987,0.56987 -1.49488,0.56987 -2.06475,0 -0.56988,-0.56987 -0.56987,-1.49488 0,-2.06475 0.56987,-0.56988 1.49488,-0.56987 2.06475,0 0.56987,0.56987 0.56987,1.49488 0,2.06475 z"
                 id="path2598" />
              <path
                 style="color:#000000;fill:#dc0000;fill-rule:evenodd;-inkscape-stroke:none"
                 d="m 106.11719,147.91797 c -0.42393,0 -0.84775,0.16219 -1.16992,0.48437 -0.64435,0.64435 -0.64436,1.6955 0,2.33985 0.64434,0.64434 1.69549,0.64434 2.33984,0 0.64435,-0.64435 0.64435,-1.6955 0,-2.33985 -0.32217,-0.32217 -0.746,-0.48437 -1.16992,-0.48437 z m 0,0.38672 c 0.32351,0 0.64683,0.12535 0.89453,0.37304 0.49539,0.4954 0.49539,1.29368 0,1.78907 -0.49539,0.49539 -1.29367,0.49539 -1.78906,0 -0.4954,-0.49539 -0.4954,-1.29367 0,-1.78907 0.24769,-0.2477 0.57101,-0.37304 0.89453,-0.37304 z"
                 id="path2600" />
            </g>
            <g
               id="path2584">
              <path
                 style="color:#000000;fill:#dc0000;fill-rule:evenodd;stroke-width:0.292pt;-inkscape-stroke:none"
                 d="m 95.924713,139.37875 c -0.569871,0.56987 -1.49488,0.56987 -2.064752,0 -0.569871,-0.56987 -0.569871,-1.49488 10e-7,-2.06475 0.569871,-0.56988 1.49488,-0.56987 2.064752,0 0.569871,0.56987 0.569871,1.49488 -10e-7,2.06475 z"
                 id="path2588" />
              <path
                 style="color:#000000;fill:#2d2d2d;fill-rule:evenodd;-inkscape-stroke:none"
                 d="m 94.892578,136.69336 c -0.423926,0 -0.847748,0.16024 -1.169922,0.48242 -0.644349,0.64435 -0.644348,1.6955 0,2.33984 0.644349,0.64435 1.695496,0.64435 2.339844,0 0.644349,-0.64434 0.644348,-1.69549 0,-2.33984 -0.322174,-0.32217 -0.745996,-0.48242 -1.169922,-0.48242 z m 0,0.38672 c 0.323514,0 0.646834,0.1234 0.894531,0.37109 0.495393,0.49539 0.495394,1.29367 0,1.78906 -0.495393,0.4954 -1.293668,0.4954 -1.789062,0 -0.495393,-0.49539 -0.495394,-1.29367 0,-1.78906 0.247696,-0.2477 0.571017,-0.37109 0.894531,-0.37109 z"
                 id="path2590" />
            </g>
          </g>
        </g>
        <g
           id="path1399">
          <path
             style="color:#000000;fill:#2d2d2d;-inkscape-stroke:none"
             d="m 105.95508,149.5918 v 14.96679 h 0.36523 V 149.5918 Z"
             id="path2632" />
          <g
             id="g2610">
            <g
               id="path2622">
              <path
                 style="color:#000000;fill:#dc0000;fill-rule:evenodd;stroke-width:0.292pt;-inkscape-stroke:none"
                 d="m 106.13831,165.99023 c -0.80592,0 -1.46,-0.65408 -1.46,-1.46 0,-0.80592 0.65408,-1.46 1.46,-1.46 0.80592,0 1.46,0.65408 1.46,1.46 0,0.80592 -0.65408,1.46 -1.46,1.46 z"
                 id="path2626" />
              <path
                 style="color:#000000;fill:#2d2d2d;fill-rule:evenodd;-inkscape-stroke:none"
                 d="m 106.13867,162.875 c -0.91124,0 -1.6543,0.74305 -1.65429,1.6543 0,0.91124 0.74305,1.65625 1.65429,1.65625 0.91125,0 1.6543,-0.74501 1.6543,-1.65625 0,-0.91125 -0.74305,-1.6543 -1.6543,-1.6543 z m 0,0.39062 c 0.70059,0 1.26563,0.56308 1.26563,1.26368 0,0.70059 -0.56504,1.26562 -1.26563,1.26562 -0.70059,0 -1.26562,-0.56503 -1.26562,-1.26562 0,-0.7006 0.56503,-1.26368 1.26562,-1.26368 z"
                 id="path2628" />
            </g>
            <g
               id="path2612">
              <path
                 style="color:#000000;fill:#dc0000;fill-rule:evenodd;stroke-width:0.292pt;-inkscape-stroke:none"
                 d="m 106.13831,151.02315 c -0.80592,0 -1.46,-0.65408 -1.46,-1.46 0,-0.80592 0.65408,-1.46 1.46,-1.46 0.80592,0 1.46,0.65408 1.46,1.46 0,0.80592 -0.65408,1.46 -1.46,1.46 z"
                 id="path2616" />
              <path
                 style="color:#000000;fill:#2d2d2d;fill-rule:evenodd;-inkscape-stroke:none"
                 d="m 106.13867,147.9082 c -0.91124,0 -1.6543,0.74305 -1.65429,1.6543 0,0.91125 0.74305,1.65625 1.65429,1.65625 0.91125,0 1.6543,-0.745 1.6543,-1.65625 0,-0.91125 -0.74305,-1.6543 -1.6543,-1.6543 z m 0,0.38867 c 0.70059,0 1.26563,0.56504 1.26563,1.26563 0,0.70059 -0.56504,1.26563 -1.26563,1.26562 -0.70059,0 -1.26562,-0.56503 -1.26562,-1.26562 0,-0.70059 0.56503,-1.26563 1.26562,-1.26563 z"
                 id="path2618" />
            </g>
          </g>
        </g>
        <g
           id="g3252"
           transform="translate(21.233772,-35.602853)">
          <g
             style="fill:#000000;fill-opacity:1"
             id="id-451244fa-3ef3-4315-ac2e-00949971b413"
             transform="matrix(0.375579,0,0,0.375579,15.977549,97.274897)">
            <g
               transform="translate(148.712,134.765)"
               id="g2994">
              <path
                 style="stroke:none;stroke-width:0"
                 d="m 4.671875,-3.703125 c 0,-0.546875 -0.265625,-0.703125 -0.4375,-0.703125 -0.25,0 -0.5,0.265625 -0.5,0.484375 0,0.125 0.046875,0.1875 0.15625,0.296875 0.21875,0.203125 0.34375,0.453125 0.34375,0.8125 0,0.421875 -0.609375,2.703125 -1.765625,2.703125 -0.515625,0 -0.75,-0.34375 -0.75,-0.875 0,-0.546875 0.28125,-1.28125 0.578125,-2.109375 0.078125,-0.171875 0.125,-0.3125 0.125,-0.5 0,-0.4375 -0.3125,-0.8125 -0.8125,-0.8125 -0.9375,0 -1.3125,1.453125 -1.3125,1.53125 0,0.109375 0.09375,0.109375 0.109375,0.109375 0.109375,0 0.109375,-0.03125 0.15625,-0.1875 0.296875,-1 0.71875,-1.234375 1.015625,-1.234375 0.078125,0 0.25,0 0.25,0.3125 0,0.25 -0.109375,0.53125 -0.171875,0.703125 -0.4375,1.15625 -0.5625,1.609375 -0.5625,2.046875 0,1.078125 0.875,1.234375 1.328125,1.234375 1.671875,0 2.25,-3.296875 2.25,-3.8125 z m 0,0"
                 id="id-40b896d6-42aa-45e4-9b9e-b6e67d97ee69" />
            </g>
          </g>
          <g
             style="fill:#000000;fill-opacity:1"
             id="id-07550078-d1b6-4d32-9dd4-e535925eb6e8"
             transform="matrix(0.375579,0,0,0.375579,15.977549,97.274897)">
            <g
               transform="translate(153.541,136.259)"
               id="g2998">
              <path
                 style="stroke:none;stroke-width:0"
                 d="m 2.328125,-4.4375 c 0,-0.1875 0,-0.1875 -0.203125,-0.1875 -0.453125,0.4375 -1.078125,0.4375 -1.359375,0.4375 v 0.25 c 0.15625,0 0.625,0 1,-0.1875 v 3.546875 c 0,0.234375 0,0.328125 -0.6875,0.328125 H 0.8125 V 0 c 0.125,0 0.984375,-0.03125 1.234375,-0.03125 0.21875,0 1.09375,0.03125 1.25,0.03125 V -0.25 H 3.03125 c -0.703125,0 -0.703125,-0.09375 -0.703125,-0.328125 z m 0,0"
                 id="id-87776eb4-4555-4ef2-b1f4-6160c933805c" />
            </g>
          </g>
        </g>
        <g
           id="g3260"
           transform="translate(0.97426282,-20.821902)">
          <g
             style="fill:#000000;fill-opacity:1"
             id="id-92e0f907-bb01-47a4-b65e-5c3a107e0996"
             transform="matrix(0.375579,0,0,0.375579,15.977549,97.274897)">
            <g
               transform="translate(158.011,134.765)"
               id="g3002">
              <path
                 style="stroke:none;stroke-width:0"
                 d="m 4.671875,-3.703125 c 0,-0.546875 -0.265625,-0.703125 -0.4375,-0.703125 -0.25,0 -0.5,0.265625 -0.5,0.484375 0,0.125 0.046875,0.1875 0.15625,0.296875 0.21875,0.203125 0.34375,0.453125 0.34375,0.8125 0,0.421875 -0.609375,2.703125 -1.765625,2.703125 -0.515625,0 -0.75,-0.34375 -0.75,-0.875 0,-0.546875 0.28125,-1.28125 0.578125,-2.109375 0.078125,-0.171875 0.125,-0.3125 0.125,-0.5 0,-0.4375 -0.3125,-0.8125 -0.8125,-0.8125 -0.9375,0 -1.3125,1.453125 -1.3125,1.53125 0,0.109375 0.09375,0.109375 0.109375,0.109375 0.109375,0 0.109375,-0.03125 0.15625,-0.1875 0.296875,-1 0.71875,-1.234375 1.015625,-1.234375 0.078125,0 0.25,0 0.25,0.3125 0,0.25 -0.109375,0.53125 -0.171875,0.703125 -0.4375,1.15625 -0.5625,1.609375 -0.5625,2.046875 0,1.078125 0.875,1.234375 1.328125,1.234375 1.671875,0 2.25,-3.296875 2.25,-3.8125 z m 0,0"
                 id="id-5ae7c57e-ed83-456a-b97d-b0a61cd049c1" />
            </g>
          </g>
          <g
             style="fill:#000000;fill-opacity:1"
             id="id-8bb9430b-1f44-4bb2-84c4-5531fc3793b2"
             transform="matrix(0.375579,0,0,0.375579,15.977549,97.274897)">
            <g
               transform="translate(162.84,136.259)"
               id="g3006">
              <path
                 style="stroke:none;stroke-width:0"
                 d="M 3.515625,-1.265625 H 3.28125 c -0.015625,0.15625 -0.09375,0.5625 -0.1875,0.625 C 3.046875,-0.59375 2.515625,-0.59375 2.40625,-0.59375 H 1.125 c 0.734375,-0.640625 0.984375,-0.84375 1.390625,-1.171875 0.515625,-0.40625 1,-0.84375 1,-1.5 0,-0.84375 -0.734375,-1.359375 -1.625,-1.359375 -0.859375,0 -1.453125,0.609375 -1.453125,1.25 0,0.34375 0.296875,0.390625 0.375,0.390625 0.15625,0 0.359375,-0.125 0.359375,-0.375 0,-0.125 -0.046875,-0.375 -0.40625,-0.375 C 0.984375,-4.21875 1.453125,-4.375 1.78125,-4.375 c 0.703125,0 1.0625,0.546875 1.0625,1.109375 0,0.609375 -0.4375,1.078125 -0.65625,1.328125 L 0.515625,-0.265625 C 0.4375,-0.203125 0.4375,-0.1875 0.4375,0 h 2.875 z m 0,0"
                 id="id-407b9d80-5504-460e-aa0b-db6896ae6ba4" />
            </g>
          </g>
        </g>
        <g
           id="g3268"
           transform="translate(30.138059,-21.253911)">
          <g
             style="fill:#000000;fill-opacity:1"
             id="id-6c4e0e53-9980-49b7-b2d7-c2199717b7cb"
             transform="matrix(0.375579,0,0,0.375579,15.977549,97.274897)">
            <g
               transform="translate(167.309,134.765)"
               id="g3010">
              <path
                 style="stroke:none;stroke-width:0"
                 d="m 4.671875,-3.703125 c 0,-0.546875 -0.265625,-0.703125 -0.4375,-0.703125 -0.25,0 -0.5,0.265625 -0.5,0.484375 0,0.125 0.046875,0.1875 0.15625,0.296875 0.21875,0.203125 0.34375,0.453125 0.34375,0.8125 0,0.421875 -0.609375,2.703125 -1.765625,2.703125 -0.515625,0 -0.75,-0.34375 -0.75,-0.875 0,-0.546875 0.28125,-1.28125 0.578125,-2.109375 0.078125,-0.171875 0.125,-0.3125 0.125,-0.5 0,-0.4375 -0.3125,-0.8125 -0.8125,-0.8125 -0.9375,0 -1.3125,1.453125 -1.3125,1.53125 0,0.109375 0.09375,0.109375 0.109375,0.109375 0.109375,0 0.109375,-0.03125 0.15625,-0.1875 0.296875,-1 0.71875,-1.234375 1.015625,-1.234375 0.078125,0 0.25,0 0.25,0.3125 0,0.25 -0.109375,0.53125 -0.171875,0.703125 -0.4375,1.15625 -0.5625,1.609375 -0.5625,2.046875 0,1.078125 0.875,1.234375 1.328125,1.234375 1.671875,0 2.25,-3.296875 2.25,-3.8125 z m 0,0"
                 id="id-741936f8-eea2-4b1a-a25f-0932fb42aa33" />
            </g>
          </g>
          <g
             style="fill:#000000;fill-opacity:1"
             id="id-3da162b9-5508-499f-8a1f-ac0fab7efa0f"
             transform="matrix(0.375579,0,0,0.375579,15.977549,97.274897)">
            <g
               transform="translate(172.138,136.259)"
               id="g3014">
              <path
                 style="stroke:none;stroke-width:0"
                 d="m 1.90625,-2.328125 c 0.546875,0 0.9375,0.375 0.9375,1.125 0,0.859375 -0.515625,1.125 -0.90625,1.125 -0.28125,0 -0.90625,-0.078125 -1.1875,-0.5 0.328125,0 0.40625,-0.234375 0.40625,-0.390625 0,-0.21875 -0.171875,-0.375 -0.390625,-0.375 -0.1875,0 -0.390625,0.125 -0.390625,0.40625 0,0.65625 0.71875,1.078125 1.5625,1.078125 0.96875,0 1.640625,-0.65625 1.640625,-1.34375 0,-0.546875 -0.4375,-1.09375 -1.203125,-1.25 0.71875,-0.265625 0.984375,-0.78125 0.984375,-1.21875 0,-0.546875 -0.625,-0.953125 -1.40625,-0.953125 -0.765625,0 -1.359375,0.375 -1.359375,0.9375 0,0.234375 0.15625,0.359375 0.359375,0.359375 0.21875,0 0.359375,-0.15625 0.359375,-0.34375 0,-0.203125 -0.140625,-0.359375 -0.359375,-0.375 0.25,-0.296875 0.71875,-0.375 0.984375,-0.375 0.3125,0 0.75,0.15625 0.75,0.75 0,0.296875 -0.09375,0.625 -0.28125,0.828125 -0.21875,0.265625 -0.421875,0.28125 -0.765625,0.3125 -0.171875,0.015625 -0.1875,0.015625 -0.21875,0.015625 -0.015625,0 -0.078125,0.015625 -0.078125,0.09375 0,0.09375 0.0625,0.09375 0.1875,0.09375 z m 0,0"
                 id="id-e30b3a26-4723-4e8e-89be-9384ffa56dc2" />
            </g>
          </g>
        </g>
        <g
           id="g3276"
           transform="translate(6.1914844,-7.8193499)">
          <g
             style="fill:#000000;fill-opacity:1"
             id="id-05dc0f05-d1b5-4ec0-9fbb-57c9b5efdaf9"
             transform="matrix(0.375579,0,0,0.375579,15.977549,97.274897)">
            <g
               transform="translate(176.608,134.765)"
               id="g3018">
              <path
                 style="stroke:none;stroke-width:0"
                 d="m 4.671875,-3.703125 c 0,-0.546875 -0.265625,-0.703125 -0.4375,-0.703125 -0.25,0 -0.5,0.265625 -0.5,0.484375 0,0.125 0.046875,0.1875 0.15625,0.296875 0.21875,0.203125 0.34375,0.453125 0.34375,0.8125 0,0.421875 -0.609375,2.703125 -1.765625,2.703125 -0.515625,0 -0.75,-0.34375 -0.75,-0.875 0,-0.546875 0.28125,-1.28125 0.578125,-2.109375 0.078125,-0.171875 0.125,-0.3125 0.125,-0.5 0,-0.4375 -0.3125,-0.8125 -0.8125,-0.8125 -0.9375,0 -1.3125,1.453125 -1.3125,1.53125 0,0.109375 0.09375,0.109375 0.109375,0.109375 0.109375,0 0.109375,-0.03125 0.15625,-0.1875 0.296875,-1 0.71875,-1.234375 1.015625,-1.234375 0.078125,0 0.25,0 0.25,0.3125 0,0.25 -0.109375,0.53125 -0.171875,0.703125 -0.4375,1.15625 -0.5625,1.609375 -0.5625,2.046875 0,1.078125 0.875,1.234375 1.328125,1.234375 1.671875,0 2.25,-3.296875 2.25,-3.8125 z m 0,0"
                 id="id-12b39451-c112-4bb4-9837-04c93702c6ef" />
            </g>
          </g>
          <g
             style="fill:#000000;fill-opacity:1"
             id="id-e5eda56f-8acd-48de-9561-6d01e366ef59"
             transform="matrix(0.375579,0,0,0.375579,15.977549,97.274897)">
            <g
               transform="translate(181.437,136.259)"
               id="g3022">
              <path
                 style="stroke:none;stroke-width:0"
                 d="m 3.6875,-1.140625 v -0.25 H 2.90625 V -4.5 c 0,-0.140625 0,-0.203125 -0.140625,-0.203125 -0.09375,0 -0.125,0 -0.1875,0.109375 l -2.3125,3.203125 v 0.25 h 2.0625 v 0.5625 c 0,0.25 0,0.328125 -0.578125,0.328125 H 1.5625 V 0 C 1.921875,-0.015625 2.359375,-0.03125 2.609375,-0.03125 2.875,-0.03125 3.3125,-0.015625 3.671875,0 v -0.25 h -0.1875 C 2.90625,-0.25 2.90625,-0.328125 2.90625,-0.578125 v -0.5625 z M 2.375,-3.9375 v 2.546875 H 0.53125 Z m 0,0"
                 id="id-db2e828d-fce0-41f5-a5ab-e523ab08f674" />
            </g>
          </g>
        </g>
        <g
           id="g3284"
           transform="translate(13.975158,3.9837902)">
          <g
             style="fill:#000000;fill-opacity:1"
             id="id-03081895-9294-4dca-97b1-a91be614b139"
             transform="matrix(0.375579,0,0,0.375579,15.977549,97.274897)">
            <g
               transform="translate(185.906,134.765)"
               id="g3026">
              <path
                 style="stroke:none;stroke-width:0"
                 d="m 4.671875,-3.703125 c 0,-0.546875 -0.265625,-0.703125 -0.4375,-0.703125 -0.25,0 -0.5,0.265625 -0.5,0.484375 0,0.125 0.046875,0.1875 0.15625,0.296875 0.21875,0.203125 0.34375,0.453125 0.34375,0.8125 0,0.421875 -0.609375,2.703125 -1.765625,2.703125 -0.515625,0 -0.75,-0.34375 -0.75,-0.875 0,-0.546875 0.28125,-1.28125 0.578125,-2.109375 0.078125,-0.171875 0.125,-0.3125 0.125,-0.5 0,-0.4375 -0.3125,-0.8125 -0.8125,-0.8125 -0.9375,0 -1.3125,1.453125 -1.3125,1.53125 0,0.109375 0.09375,0.109375 0.109375,0.109375 0.109375,0 0.109375,-0.03125 0.15625,-0.1875 0.296875,-1 0.71875,-1.234375 1.015625,-1.234375 0.078125,0 0.25,0 0.25,0.3125 0,0.25 -0.109375,0.53125 -0.171875,0.703125 -0.4375,1.15625 -0.5625,1.609375 -0.5625,2.046875 0,1.078125 0.875,1.234375 1.328125,1.234375 1.671875,0 2.25,-3.296875 2.25,-3.8125 z m 0,0"
                 id="id-f3204aa5-de1c-4592-8572-6b66e9df360e" />
            </g>
          </g>
          <g
             style="fill:#000000;fill-opacity:1"
             id="id-2815f018-27a2-4692-b6c0-9dc456801b6a"
             transform="matrix(0.375579,0,0,0.375579,15.977549,97.274897)">
            <g
               transform="translate(190.735,136.259)"
               id="g3030">
              <path
                 style="stroke:none;stroke-width:0"
                 d="m 1.078125,-3.890625 c 0.359375,0.09375 0.5625,0.09375 0.671875,0.09375 0.921875,0 1.46875,-0.625 1.46875,-0.734375 0,-0.078125 -0.046875,-0.09375 -0.078125,-0.09375 -0.015625,0 -0.03125,0 -0.0625,0.015625 -0.171875,0.0625 -0.53125,0.203125 -1.046875,0.203125 -0.203125,0 -0.5625,-0.015625 -1.015625,-0.1875 C 0.9375,-4.625 0.921875,-4.625 0.921875,-4.625 c -0.09375,0 -0.09375,0.078125 -0.09375,0.1875 v 2.046875 c 0,0.125 0,0.203125 0.109375,0.203125 0.0625,0 0.078125,0 0.140625,-0.09375 0.296875,-0.375 0.734375,-0.4375 0.96875,-0.4375 0.421875,0 0.609375,0.328125 0.640625,0.390625 0.125,0.234375 0.171875,0.5 0.171875,0.90625 0,0.203125 0,0.609375 -0.21875,0.921875 -0.171875,0.25 -0.46875,0.421875 -0.8125,0.421875 -0.453125,0 -0.921875,-0.25 -1.09375,-0.71875 0.265625,0.015625 0.40625,-0.15625 0.40625,-0.34375 0,-0.296875 -0.265625,-0.34375 -0.359375,-0.34375 0,0 -0.34375,0 -0.34375,0.375 0,0.625 0.578125,1.25 1.40625,1.25 0.890625,0 1.671875,-0.65625 1.671875,-1.546875 0,-0.78125 -0.59375,-1.5 -1.453125,-1.5 -0.3125,0 -0.671875,0.0625 -0.984375,0.328125 z m 0,0"
                 id="id-a01f561c-f43f-4ebf-9e64-b6c7ced99994" />
            </g>
          </g>
        </g>
        <g
           id="g3292"
           transform="translate(11.709478,19.959647)">
          <g
             style="fill:#000000;fill-opacity:1"
             id="id-6db3c31b-e515-4570-b0a5-03829ddcca23"
             transform="matrix(0.375579,0,0,0.375579,15.977549,97.274897)">
            <g
               transform="translate(195.205,134.765)"
               id="g3034">
              <path
                 style="stroke:none;stroke-width:0"
                 d="m 4.671875,-3.703125 c 0,-0.546875 -0.265625,-0.703125 -0.4375,-0.703125 -0.25,0 -0.5,0.265625 -0.5,0.484375 0,0.125 0.046875,0.1875 0.15625,0.296875 0.21875,0.203125 0.34375,0.453125 0.34375,0.8125 0,0.421875 -0.609375,2.703125 -1.765625,2.703125 -0.515625,0 -0.75,-0.34375 -0.75,-0.875 0,-0.546875 0.28125,-1.28125 0.578125,-2.109375 0.078125,-0.171875 0.125,-0.3125 0.125,-0.5 0,-0.4375 -0.3125,-0.8125 -0.8125,-0.8125 -0.9375,0 -1.3125,1.453125 -1.3125,1.53125 0,0.109375 0.09375,0.109375 0.109375,0.109375 0.109375,0 0.109375,-0.03125 0.15625,-0.1875 0.296875,-1 0.71875,-1.234375 1.015625,-1.234375 0.078125,0 0.25,0 0.25,0.3125 0,0.25 -0.109375,0.53125 -0.171875,0.703125 -0.4375,1.15625 -0.5625,1.609375 -0.5625,2.046875 0,1.078125 0.875,1.234375 1.328125,1.234375 1.671875,0 2.25,-3.296875 2.25,-3.8125 z m 0,0"
                 id="id-316fb6cb-27f3-4e18-85fa-388ed77217f5" />
            </g>
          </g>
          <g
             style="fill:#000000;fill-opacity:1"
             id="id-65a603db-c8f6-4fc9-87b5-41d6e0f7e3a3"
             transform="matrix(0.375579,0,0,0.375579,15.977549,97.274897)">
            <g
               transform="translate(200.034,136.259)"
               id="g3038">
              <path
                 style="stroke:none;stroke-width:0"
                 d="m 1.046875,-2.28125 c 0,-0.5625 0.046875,-1.078125 0.3125,-1.515625 0.234375,-0.375 0.609375,-0.625 1.0625,-0.625 0.203125,0 0.484375,0.046875 0.625,0.234375 C 2.875,-4.171875 2.71875,-4.046875 2.71875,-3.84375 c 0,0.171875 0.125,0.328125 0.328125,0.328125 0.21875,0 0.34375,-0.140625 0.34375,-0.34375 0,-0.40625 -0.296875,-0.765625 -0.984375,-0.765625 -1,0 -2.03125,0.921875 -2.03125,2.421875 0,1.796875 0.84375,2.34375 1.625,2.34375 0.84375,0 1.578125,-0.65625 1.578125,-1.5625 0,-0.890625 -0.703125,-1.546875 -1.515625,-1.546875 -0.5625,0 -0.859375,0.375 -1.015625,0.6875 z M 2,-0.078125 c -0.359375,0 -0.625,-0.203125 -0.78125,-0.515625 C 1.125,-0.796875 1.0625,-1.15625 1.0625,-1.5625 c 0,-0.6875 0.40625,-1.203125 0.96875,-1.203125 0.3125,0 0.53125,0.125 0.703125,0.375 0.171875,0.265625 0.171875,0.5625 0.171875,0.96875 0,0.390625 0,0.6875 -0.1875,0.96875 -0.15625,0.234375 -0.390625,0.375 -0.71875,0.375 z m 0,0"
                 id="id-4026dcec-c66d-4233-b8e2-e26665c621a3" />
            </g>
          </g>
        </g>
      </g>
    </g>
  </g>
</svg>
