<?xml version="1.0" encoding="UTF-8" standalone="no"?>
<!-- Created with Inkscape (http://www.inkscape.org/) -->

<svg
   width="63.369919mm"
   height="63.746861mm"
   viewBox="0 0 63.369919 63.746861"
   version="1.1"
   id="svg5"
   xmlns="http://www.w3.org/2000/svg"
   xmlns:svg="http://www.w3.org/2000/svg">
  <defs
     id="defs2">
    <marker
       style="overflow:visible"
       id="TriangleOutL"
       refX="0"
       refY="0"
       orient="auto">
      <path
         transform="scale(0.8)"
         style="fill:context-stroke;fill-rule:evenodd;stroke:context-stroke;stroke-width:1pt"
         d="M 5.77,0 -2.88,5 V -5 Z"
         id="path2745" />
    </marker>
    <defs
       id="id-5fbd1227-a670-4f69-8d4c-4b8ead5261f2">
      <g
         id="id-4a82f340-2bf2-44d2-a07e-64ec1c58767d">
        <symbol
           overflow="visible"
           id="id-8ed8792e-7060-4e39-af14-1a0ac76b6c5b">
          <path
             style="stroke:none;stroke-width:0"
             d=""
             id="id-b8308985-8aab-4434-ac83-4266d19ad331" />
        </symbol>
        <symbol
           overflow="visible"
           id="id-772e1195-9d56-4178-9193-4c6814db12ea">
          <path
             style="stroke:none;stroke-width:0"
             d="m 2.21875,-3.6875 h 1.625 c 0.15625,0 0.40625,0 0.40625,-0.296875 0,-0.3125 -0.25,-0.3125 -0.40625,-0.3125 h -1.625 v -0.8125 c 0,-0.1875 0,-0.40625 -0.34375,-0.40625 -0.34375,0 -0.34375,0.203125 -0.34375,0.40625 v 0.8125 h -0.875 c -0.15625,0 -0.40625,0 -0.40625,0.3125 0,0.296875 0.25,0.296875 0.390625,0.296875 H 1.53125 V -1.25 c 0,0.953125 0.671875,1.3125 1.40625,1.3125 0.734375,0 1.53125,-0.4375 1.53125,-1.3125 0,-0.1875 0,-0.390625 -0.34375,-0.390625 -0.328125,0 -0.34375,0.203125 -0.34375,0.375 0,0.625 -0.578125,0.71875 -0.796875,0.71875 -0.765625,0 -0.765625,-0.515625 -0.765625,-0.765625 z m 0,0"
             id="id-3426c79a-77de-4344-ba2f-aaad516ab17e" />
        </symbol>
        <symbol
           overflow="visible"
           id="id-e9e56b4e-bdb4-4dcb-8f89-0e8e31fe8b02">
          <path
             style="stroke:none;stroke-width:0"
             d="M 3.65625,-0.3125 C 3.875,-0.015625 4.34375,0 4.71875,0 c 0.28125,0 0.5,0 0.5,-0.3125 0,-0.296875 -0.25,-0.296875 -0.390625,-0.296875 -0.421875,0 -0.515625,-0.046875 -0.59375,-0.078125 v -2.15625 c 0,-0.703125 -0.546875,-1.546875 -1.984375,-1.546875 -0.421875,0 -1.4375,0 -1.4375,0.734375 0,0.296875 0.203125,0.453125 0.4375,0.453125 0.15625,0 0.4375,-0.09375 0.4375,-0.453125 0,-0.078125 0.015625,-0.09375 0.21875,-0.109375 0.140625,-0.015625 0.265625,-0.015625 0.359375,-0.015625 0.75,0 1.265625,0.3125 1.265625,1.015625 -1.75,0.03125 -2.984375,0.53125 -2.984375,1.484375 0,0.6875 0.625,1.34375 1.640625,1.34375 0.375,0 1,-0.078125 1.46875,-0.375 z m -0.125,-1.859375 v 0.84375 c 0,0.21875 0,0.4375 -0.375,0.609375 -0.359375,0.171875 -0.8125,0.171875 -0.890625,0.171875 -0.625,0 -1.03125,-0.34375 -1.03125,-0.734375 0,-0.484375 0.859375,-0.859375 2.296875,-0.890625 z m 0,0"
             id="id-275c327d-8298-4e4e-acb8-cd7d3b988f9c" />
        </symbol>
        <symbol
           overflow="visible"
           id="id-154e01b6-c35a-4046-a344-3893adfb555f">
          <path
             style="stroke:none;stroke-width:0"
             d="M 2.859375,-2.21875 4,-3.6875 h 0.390625 c 0.140625,0 0.421875,0 0.421875,-0.296875 0,-0.3125 -0.265625,-0.3125 -0.421875,-0.3125 h -1.15625 c -0.15625,0 -0.40625,0 -0.40625,0.296875 0,0.3125 0.21875,0.3125 0.484375,0.3125 l -0.734375,1 -0.75,-1 c 0.25,0 0.46875,0 0.46875,-0.3125 0,-0.296875 -0.25,-0.296875 -0.390625,-0.296875 H 0.734375 c -0.140625,0 -0.40625,0 -0.40625,0.3125 0,0.296875 0.265625,0.296875 0.40625,0.296875 h 0.40625 L 2.3125,-2.21875 1.078125,-0.609375 h -0.40625 c -0.140625,0 -0.40625,0 -0.40625,0.3125 C 0.265625,0 0.53125,0 0.671875,0 H 1.84375 C 2,0 2.25,0 2.25,-0.296875 c 0,-0.3125 -0.21875,-0.3125 -0.53125,-0.3125 l 0.859375,-1.21875 0.890625,1.21875 c -0.28125,0 -0.5,0 -0.5,0.3125 C 2.96875,0 3.21875,0 3.375,0 h 1.15625 c 0.140625,0 0.40625,0 0.40625,-0.296875 0,-0.3125 -0.25,-0.3125 -0.40625,-0.3125 H 4.140625 Z m 0,0"
             id="id-bf8522bb-d234-456a-9953-04ba3daa1f52" />
        </symbol>
        <symbol
           overflow="visible"
           id="id-662b4ea7-c4a8-407c-92a9-afaeb891d4c9">
          <path
             style="stroke:none;stroke-width:0"
             d="m 1.65625,-2.625 c 0,-0.59375 0.578125,-1.125 1.203125,-1.125 0.734375,0 1.3125,0.734375 1.3125,1.59375 0,0.953125 -0.6875,1.609375 -1.390625,1.609375 -0.78125,0 -1.125,-0.875 -1.125,-1.359375 z m 0,2.171875 C 2.0625,-0.03125 2.5,0.0625 2.8125,0.0625 c 1.078125,0 2.046875,-0.953125 2.046875,-2.21875 0,-1.21875 -0.875,-2.203125 -1.9375,-2.203125 C 2.4375,-4.359375 2,-4.171875 1.65625,-3.875 1.65625,-4.15625 1.640625,-4.296875 1.25,-4.296875 H 0.53125 c -0.15625,0 -0.40625,0 -0.40625,0.3125 0,0.296875 0.25,0.296875 0.390625,0.296875 H 0.96875 v 5.296875 h -0.4375 c -0.15625,0 -0.40625,0 -0.40625,0.296875 0,0.3125 0.25,0.3125 0.390625,0.3125 h 1.59375 C 2.25,2.21875 2.5,2.21875 2.5,1.90625 2.5,1.609375 2.25,1.609375 2.09375,1.609375 h -0.4375 z m 0,0"
             id="id-4e7b74fb-9542-4988-9db7-0d6f43bd8165" />
        </symbol>
        <symbol
           overflow="visible"
           id="id-c691f3c2-24cd-4ae4-9b66-86b4a6bdc0b0">
          <path
             style="stroke:none;stroke-width:0"
             d="m 4.28125,-3.6875 h 0.296875 c 0.15625,0 0.40625,0 0.40625,-0.296875 0,-0.3125 -0.234375,-0.3125 -0.40625,-0.3125 h -1.15625 c -0.15625,0 -0.40625,0 -0.40625,0.296875 0,0.3125 0.25,0.3125 0.40625,0.3125 h 0.28125 l -0.71875,2.125 C 2.84375,-1.203125 2.796875,-1.015625 2.71875,-0.703125 2.65625,-0.890625 2.578125,-1.109375 2.5,-1.296875 L 1.578125,-3.6875 h 0.25 c 0.140625,0 0.390625,0 0.390625,-0.296875 0,-0.3125 -0.234375,-0.3125 -0.390625,-0.3125 H 0.65625 c -0.15625,0 -0.390625,0 -0.390625,0.3125 0,0.296875 0.25,0.296875 0.390625,0.296875 h 0.3125 L 2.375,-0.125 c 0.046875,0.09375 0.046875,0.109375 0.046875,0.125 0,0.015625 -0.25,0.84375 -0.375,1.09375 C 1.75,1.640625 1.390625,1.65625 1.25,1.671875 c 0,-0.015625 0.046875,-0.09375 0.046875,-0.21875 0,-0.25 -0.1875,-0.4375 -0.421875,-0.4375 -0.28125,0 -0.453125,0.1875 -0.453125,0.4375 0,0.421875 0.34375,0.8125 0.828125,0.8125 1,0 1.453125,-1.3125 1.484375,-1.421875 z m 0,0"
             id="id-6911baff-13ab-4d85-80af-26bcc529efaa" />
        </symbol>
        <symbol
           overflow="visible"
           id="id-350a7694-9777-4f7f-a203-1bbd435e86d0">
          <path
             style="stroke:none;stroke-width:0"
             d="m 4.234375,-1.90625 c 0.203125,0 0.390625,0 0.390625,-0.359375 0,-1.140625 -0.640625,-2.125 -1.9375,-2.125 -1.1875,0 -2.140625,1 -2.140625,2.234375 0,1.203125 1.015625,2.21875 2.296875,2.21875 1.3125,0 1.78125,-0.90625 1.78125,-1.15625 0,-0.265625 -0.28125,-0.265625 -0.34375,-0.265625 -0.1875,0 -0.265625,0.03125 -0.328125,0.21875 -0.21875,0.5 -0.765625,0.59375 -1.046875,0.59375 -0.75,0 -1.484375,-0.5 -1.65625,-1.359375 z M 1.265625,-2.5 C 1.40625,-3.234375 2,-3.78125 2.6875,-3.78125 c 0.515625,0 1.140625,0.25 1.234375,1.28125 z m 0,0"
             id="id-7f593223-7c16-4619-8d3d-c3438d3a6d2b" />
        </symbol>
        <symbol
           overflow="visible"
           id="id-5bea752e-d28d-434d-bb56-79db776e6017">
          <path
             style="stroke:none;stroke-width:0"
             d="M 2.21875,-1.859375 C 2.21875,-2.796875 2.796875,-3.75 4,-3.75 c 0.015625,0.234375 0.1875,0.4375 0.4375,0.4375 0.21875,0 0.421875,-0.15625 0.421875,-0.421875 0,-0.203125 -0.125,-0.625 -0.953125,-0.625 -0.5,0 -1.140625,0.1875 -1.6875,0.8125 v -0.34375 c 0,-0.3125 -0.0625,-0.40625 -0.40625,-0.40625 H 0.71875 c -0.15625,0 -0.40625,0 -0.40625,0.296875 0,0.3125 0.25,0.3125 0.40625,0.3125 h 0.8125 v 3.078125 h -0.8125 c -0.15625,0 -0.40625,0 -0.40625,0.296875 C 0.3125,0 0.5625,0 0.71875,0 H 3.3125 c 0.15625,0 0.421875,0 0.421875,-0.296875 0,-0.3125 -0.265625,-0.3125 -0.421875,-0.3125 H 2.21875 Z m 0,0"
             id="id-1a1693d9-401b-4ef5-a4c6-4dce04de72c1" />
        </symbol>
        <symbol
           overflow="visible"
           id="id-974f042d-fde3-4337-bf3f-89f79f909b10">
          <path
             style="stroke:none;stroke-width:0"
             d="m 3.09375,-5.796875 c 0,-0.15625 0,-0.40625 -0.296875,-0.40625 -0.1875,0 -0.25,0.125 -0.296875,0.234375 C 2.125,-5.109375 1.609375,-5 1.421875,-4.984375 c -0.171875,0.015625 -0.375,0.03125 -0.375,0.3125 0,0.25 0.171875,0.296875 0.328125,0.296875 0.1875,0 0.59375,-0.0625 1.03125,-0.4375 v 4.203125 H 1.5 c -0.15625,0 -0.390625,0 -0.390625,0.3125 C 1.109375,0 1.359375,0 1.5,0 H 4 c 0.15625,0 0.40625,0 0.40625,-0.296875 0,-0.3125 -0.234375,-0.3125 -0.40625,-0.3125 H 3.09375 Z m 0,0"
             id="id-de04e9ca-7e93-4f69-a2b9-ce670ccfc7a2" />
        </symbol>
        <symbol
           overflow="visible"
           id="id-81d4a588-86b7-49a6-811f-dd5b33ab22e1">
          <path
             style="stroke:none;stroke-width:0"
             d="m 1.65625,-3.828125 c 0,-0.3125 0,-0.46875 -0.40625,-0.46875 H 0.53125 c -0.15625,0 -0.40625,0 -0.40625,0.3125 0,0.296875 0.25,0.296875 0.390625,0.296875 H 0.96875 v 3.078125 h -0.4375 c -0.15625,0 -0.40625,0 -0.40625,0.3125 C 0.125,0 0.375,0 0.515625,0 h 1.59375 C 2.25,0 2.5,0 2.5,-0.296875 c 0,-0.3125 -0.25,-0.3125 -0.40625,-0.3125 H 1.65625 V -2.375 c 0,-1 0.734375,-1.375 1.25,-1.375 0.515625,0 0.65625,0.28125 0.65625,0.875 v 2.265625 h -0.375 c -0.171875,0 -0.421875,0 -0.421875,0.3125 C 2.765625,0 3.046875,0 3.1875,0 h 1.515625 c 0.140625,0 0.40625,0 0.40625,-0.296875 0,-0.3125 -0.25,-0.3125 -0.421875,-0.3125 H 4.25 v -2.3125 c 0,-1 -0.5,-1.4375 -1.296875,-1.4375 -0.65625,0 -1.109375,0.34375 -1.296875,0.53125 z m 0,0"
             id="id-bf6e0f18-c81e-424d-9263-3c356ad5049c" />
        </symbol>
        <symbol
           overflow="visible"
           id="id-094b9780-c915-44ab-ab1c-62b85898c2ec">
          <path
             style="stroke:none;stroke-width:0"
             d="M 1.09375,-4 C 1.0625,-4.296875 0.875,-4.296875 0.6875,-4.296875 H 0.375 c -0.15625,0 -0.421875,0 -0.421875,0.296875 0,0.3125 0.21875,0.3125 0.578125,0.3125 v 3.078125 c -0.359375,0 -0.578125,0 -0.578125,0.3125 C -0.046875,0 0.234375,0 0.375,0 H 1.25 c 0.140625,0 0.40625,0 0.40625,-0.296875 0,-0.3125 -0.203125,-0.3125 -0.5625,-0.3125 v -1.78125 C 1.09375,-3.28125 1.5,-3.75 1.90625,-3.75 c 0.234375,0 0.359375,0.171875 0.359375,0.8125 v 2.328125 c -0.1875,0 -0.4375,0 -0.4375,0.3125 C 1.828125,0 2.109375,0 2.25,0 h 0.734375 c 0.15625,0 0.421875,0 0.421875,-0.296875 0,-0.3125 -0.21875,-0.3125 -0.578125,-0.3125 v -1.78125 c 0,-0.890625 0.40625,-1.359375 0.828125,-1.359375 0.21875,0 0.359375,0.171875 0.359375,0.8125 v 2.328125 c -0.1875,0 -0.4375,0 -0.4375,0.3125 C 3.578125,0 3.84375,0 3.984375,0 h 0.75 c 0.15625,0 0.40625,0 0.40625,-0.296875 0,-0.3125 -0.203125,-0.3125 -0.5625,-0.3125 v -2.40625 c 0,-0.203125 0,-1.34375 -0.890625,-1.34375 -0.296875,0 -0.703125,0.125 -0.984375,0.515625 C 2.546875,-4.171875 2.265625,-4.359375 1.9375,-4.359375 1.625,-4.359375 1.328125,-4.21875 1.09375,-4 Z m 0,0"
             id="id-e651f638-de22-4030-8fd0-e4861ec933a3" />
        </symbol>
        <symbol
           overflow="visible"
           id="id-e7537307-1674-4b84-b7c8-c31525110e00">
          <path
             style="stroke:none;stroke-width:0"
             d="m 2.328125,-1.75 c -0.546875,0 -0.96875,-0.46875 -0.96875,-1 0,-0.5625 0.4375,-1.015625 0.96875,-1.015625 0.53125,0 0.953125,0.46875 0.953125,1 0,0.578125 -0.4375,1.015625 -0.953125,1.015625 z m -0.90625,0.34375 c 0.03125,0.015625 0.40625,0.25 0.90625,0.25 0.90625,0 1.640625,-0.71875 1.640625,-1.609375 C 3.96875,-3.0625 3.875,-3.34375 3.703125,-3.625 3.921875,-3.75 4.15625,-3.78125 4.28125,-3.796875 c 0.0625,0.265625 0.296875,0.34375 0.390625,0.34375 0.171875,0 0.40625,-0.125 0.40625,-0.421875 0,-0.21875 -0.1875,-0.53125 -0.734375,-0.53125 -0.109375,0 -0.59375,0.015625 -1.046875,0.34375 C 3.125,-4.171875 2.78125,-4.359375 2.328125,-4.359375 c -0.9375,0 -1.65625,0.75 -1.65625,1.59375 C 0.671875,-2.328125 0.84375,-2 1,-1.8125 c -0.109375,0.15625 -0.203125,0.375 -0.203125,0.671875 0,0.359375 0.140625,0.609375 0.234375,0.71875 -0.734375,0.453125 -0.734375,1.125 -0.734375,1.234375 0,0.859375 1.03125,1.46875 2.3125,1.46875 C 3.890625,2.28125 4.9375,1.671875 4.9375,0.8125 4.9375,0.453125 4.75,-0.046875 4.25,-0.3125 4.109375,-0.390625 3.703125,-0.609375 2.796875,-0.609375 h -0.6875 c -0.078125,0 -0.21875,0 -0.296875,-0.015625 -0.140625,0 -0.203125,0 -0.328125,-0.140625 -0.109375,-0.140625 -0.125,-0.34375 -0.125,-0.359375 0,-0.046875 0.03125,-0.1875 0.0625,-0.28125 z m 1.1875,3.09375 c -1,0 -1.734375,-0.4375 -1.734375,-0.875 0,-0.171875 0.078125,-0.5 0.40625,-0.6875 0.25,-0.171875 0.328125,-0.171875 1.0625,-0.171875 0.890625,0 2.015625,0 2.015625,0.859375 0,0.4375 -0.75,0.875 -1.75,0.875 z m 0,0"
             id="id-c6e618cd-f43a-4437-8ebb-51ffb5760cb0" />
        </symbol>
        <symbol
           overflow="visible"
           id="id-c1c18b4e-593a-41ea-ac5c-43c2f790c6cf">
          <path
             style="stroke:none;stroke-width:0"
             d="m 3.078125,-3.890625 c 0,-0.3125 -0.0625,-0.40625 -0.390625,-0.40625 H 1.265625 c -0.15625,0 -0.40625,0 -0.40625,0.296875 0,0.3125 0.25,0.3125 0.40625,0.3125 h 1.125 v 3.078125 H 1.1875 c -0.15625,0 -0.40625,0 -0.40625,0.3125 C 0.78125,0 1.03125,0 1.1875,0 H 4.125 c 0.15625,0 0.40625,0 0.40625,-0.296875 0,-0.3125 -0.25,-0.3125 -0.40625,-0.3125 H 3.078125 Z m 0,-1.71875 c 0,-0.265625 -0.21875,-0.484375 -0.5,-0.484375 -0.28125,0 -0.5,0.21875 -0.5,0.484375 0,0.28125 0.21875,0.5 0.5,0.5 0.28125,0 0.5,-0.21875 0.5,-0.5 z m 0,0"
             id="id-f5d384f2-ae68-4338-8627-96708e45b228" />
        </symbol>
        <symbol
           overflow="visible"
           id="id-79e75f6e-1125-4abd-8dea-a0cb3cb392df">
          <path
             style="stroke:none;stroke-width:0"
             d="m 3.5625,-0.5 c 0,0.359375 0,0.5 0.40625,0.5 H 4.6875 c 0.171875,0 0.421875,0 0.421875,-0.3125 0,-0.296875 -0.265625,-0.296875 -0.40625,-0.296875 H 4.25 V -5.6875 c 0,-0.296875 -0.046875,-0.40625 -0.390625,-0.40625 H 3.125 c -0.15625,0 -0.40625,0 -0.40625,0.3125 0,0.296875 0.265625,0.296875 0.40625,0.296875 H 3.5625 V -3.90625 C 3.234375,-4.203125 2.828125,-4.359375 2.40625,-4.359375 c -1.09375,0 -2.046875,0.953125 -2.046875,2.21875 0,1.234375 0.890625,2.203125 1.953125,2.203125 0.5625,0 0.984375,-0.265625 1.25,-0.5625 z m 0,-2.140625 V -1.9375 c 0,0.5625 -0.4375,1.390625 -1.203125,1.390625 -0.71875,0 -1.3125,-0.703125 -1.3125,-1.59375 C 1.046875,-3.09375 1.75,-3.75 2.4375,-3.75 c 0.640625,0 1.125,0.5625 1.125,1.109375 z m 0,0"
             id="id-97c3e0fc-ca06-4e49-8f23-13e5d22a87dc" />
        </symbol>
        <symbol
           overflow="visible"
           id="id-b489bcfd-254d-4246-a03d-973b370d0e1c">
          <path
             style="stroke:none;stroke-width:0"
             d="m 2.171875,-5.65625 c 0.03125,-0.46875 -0.3125,-0.546875 -0.4375,-0.546875 -0.1875,0 -0.484375,0.109375 -0.453125,0.546875 L 1.421875,-3.625 c 0,0.140625 0.03125,0.359375 0.3125,0.359375 0.25,0 0.296875,-0.1875 0.3125,-0.359375 z m 1.765625,0 C 3.96875,-6.125 3.625,-6.203125 3.5,-6.203125 c -0.1875,0 -0.484375,0.109375 -0.453125,0.546875 L 3.1875,-3.625 c 0,0.140625 0.03125,0.359375 0.3125,0.359375 0.25,0 0.296875,-0.1875 0.3125,-0.359375 z m 0,0"
             id="id-5ebc9fb5-ff1d-403e-a8ea-3bb044176f8c" />
        </symbol>
        <symbol
           overflow="visible"
           id="id-0547a60b-d73a-4717-96f5-3529e604a297">
          <path
             style="stroke:none;stroke-width:0"
             d="m 3.15625,-5.828125 c -0.09375,-0.375 -0.234375,-0.375 -0.546875,-0.375 -0.28125,0 -0.453125,0 -0.53125,0.375 L 0.875,-0.609375 c -0.140625,0 -0.375,0 -0.4375,0.015625 -0.109375,0.0625 -0.171875,0.171875 -0.171875,0.296875 C 0.265625,0 0.53125,0 0.703125,0 H 1.71875 c 0.171875,0 0.421875,0 0.421875,-0.296875 0,-0.3125 -0.203125,-0.3125 -0.5625,-0.3125 l 0.21875,-1.03125 h 1.625 l 0.234375,1.03125 c -0.359375,0 -0.5625,0 -0.5625,0.3125 C 3.09375,0 3.328125,0 3.515625,0 H 4.53125 c 0.15625,0 0.421875,0 0.421875,-0.296875 0,-0.125 -0.046875,-0.234375 -0.171875,-0.28125 C 4.71875,-0.609375 4.5,-0.609375 4.359375,-0.609375 Z M 2.609375,-5.40625 H 2.625 L 3.265625,-2.25 h -1.3125 z m 0,0"
             id="id-a1f65d8b-c48d-4aff-99d2-3c3f07e2bb23" />
        </symbol>
        <symbol
           overflow="visible"
           id="id-3bcd41b2-5b0d-4f28-888f-592473dfb965">
          <path
             style="stroke:none;stroke-width:0"
             d="m 2.953125,-5.6875 c 0,-0.296875 -0.046875,-0.40625 -0.390625,-0.40625 H 0.984375 c -0.15625,0 -0.40625,0 -0.40625,0.3125 0,0.296875 0.265625,0.296875 0.40625,0.296875 h 1.28125 v 4.875 h -1.28125 c -0.15625,0 -0.40625,0 -0.40625,0.3125 C 0.578125,0 0.84375,0 0.984375,0 H 4.25 c 0.15625,0 0.40625,0 0.40625,-0.296875 0,-0.3125 -0.234375,-0.3125 -0.40625,-0.3125 H 2.953125 Z m 0,0"
             id="id-87029782-26bb-482e-b3a6-7db9d021e461" />
        </symbol>
        <symbol
           overflow="visible"
           id="id-e67e95f2-ef2f-45eb-8b2c-dd825949338b">
          <path
             style="stroke:none;stroke-width:0"
             d="m 4.828125,-5.796875 c 0,-0.15625 0,-0.40625 -0.296875,-0.40625 -0.1875,0 -0.234375,0.109375 -0.28125,0.171875 -0.015625,0.046875 -0.015625,0.0625 -0.15625,0.3125 C 3.765625,-6 3.3125,-6.203125 2.796875,-6.203125 c -1.28125,0 -2.390625,1.34375 -2.390625,3.15625 0,1.828125 1.109375,3.15625 2.40625,3.15625 1.15625,0 2.015625,-0.890625 2.015625,-1.78125 C 4.828125,-2 4.578125,-2 4.46875,-2 4.390625,-2 4.15625,-2 4.140625,-1.71875 4.0625,-0.734375 3.265625,-0.5 2.84375,-0.5 c -0.90625,0 -1.75,-1.0625 -1.75,-2.546875 0,-1.484375 0.859375,-2.546875 1.75,-2.546875 0.59375,0 1.140625,0.453125 1.28125,1.265625 C 4.15625,-4.15625 4.171875,-4 4.46875,-4 4.828125,-4 4.828125,-4.203125 4.828125,-4.40625 Z m 0,0"
             id="id-83eee478-fc8e-47e8-ba96-16eecc0094ca" />
        </symbol>
        <symbol
           overflow="visible"
           id="id-7a91dd6d-c4e4-45e5-bafe-b83898d0ab6c">
          <path
             style="stroke:none;stroke-width:0"
             d="m 4.65625,-2.15625 c 0,-1.25 -0.921875,-2.234375 -2.046875,-2.234375 -1.109375,0 -2.046875,0.984375 -2.046875,2.234375 0,1.265625 0.953125,2.21875 2.046875,2.21875 1.09375,0 2.046875,-0.953125 2.046875,-2.21875 z M 2.609375,-0.546875 C 1.875,-0.546875 1.25,-1.296875 1.25,-2.21875 c 0,-0.90625 0.65625,-1.5625 1.359375,-1.5625 0.71875,0 1.359375,0.65625 1.359375,1.5625 0,0.921875 -0.625,1.671875 -1.359375,1.671875 z m 0,0"
             id="id-f7a2db7b-b9b9-449c-8e91-0a769a139f64" />
        </symbol>
        <symbol
           overflow="visible"
           id="id-b679b070-80fa-4af6-8b2a-31354b09f449">
          <path
             style="stroke:none;stroke-width:0"
             d="M 0.375,-2.4375 C 0.296875,-2.296875 0.296875,-2.28125 0.296875,-2.078125 0.296875,-1.75 0.375,-1.6875 0.6875,-1.6875 h 2.515625 v 1.078125 h -0.625 c -0.15625,0 -0.390625,0 -0.390625,0.3125 C 2.1875,0 2.4375,0 2.578125,0 H 4.375 c 0.15625,0 0.40625,0 0.40625,-0.296875 0,-0.3125 -0.25,-0.3125 -0.40625,-0.3125 H 3.765625 V -1.6875 H 4.53125 c 0.15625,0 0.40625,0 0.40625,-0.296875 0,-0.3125 -0.25,-0.3125 -0.40625,-0.3125 H 3.765625 v -3.5 c 0,-0.328125 -0.078125,-0.40625 -0.421875,-0.40625 H 3.078125 c -0.25,0 -0.296875,0 -0.421875,0.203125 z m 0.609375,0.140625 2.21875,-3.46875 v 3.46875 z m 0,0"
             id="id-dd2c6bff-4a77-4bcc-96ca-bd1813ea15d5" />
        </symbol>
        <symbol
           overflow="visible"
           id="id-6fd4ce32-d303-44f0-a1fb-6457692dd41e">
          <path
             style="stroke:none;stroke-width:0"
             d="m 2.609375,-3.59375 c -0.71875,0 -1.34375,-0.4375 -1.34375,-1 0,-0.515625 0.5625,-1 1.34375,-1 0.78125,0 1.34375,0.484375 1.34375,1 0,0.5625 -0.609375,1 -1.34375,1 z m 0.796875,0.3125 c 0.796875,-0.265625 1.234375,-0.75 1.234375,-1.328125 0,-0.8125 -0.84375,-1.59375 -2.03125,-1.59375 -1.1875,0 -2.03125,0.796875 -2.03125,1.59375 0,0.578125 0.453125,1.078125 1.25,1.328125 -0.75,0.203125 -1.390625,0.796875 -1.390625,1.546875 0,0.96875 0.921875,1.84375 2.171875,1.84375 1.265625,0 2.171875,-0.875 2.171875,-1.84375 0,-0.75 -0.640625,-1.34375 -1.375,-1.546875 z M 2.609375,-0.5 C 1.78125,-0.5 1.125,-1.0625 1.125,-1.75 c 0,-0.609375 0.578125,-1.234375 1.484375,-1.234375 0.921875,0 1.484375,0.625 1.484375,1.234375 0,0.6875 -0.65625,1.25 -1.484375,1.25 z m 0,0"
             id="id-6384157d-c74c-411b-9b50-044d62d498af" />
        </symbol>
        <symbol
           overflow="visible"
           id="id-b389e367-792f-4b66-b62b-fa9fe9783d52">
          <path
             style="stroke:none;stroke-width:0"
             d="M 3.5625,-0.3125 C 3.578125,0 3.78125,0 3.96875,0 H 4.6875 c 0.171875,0 0.421875,0 0.421875,-0.3125 0,-0.296875 -0.265625,-0.296875 -0.40625,-0.296875 H 4.25 v -3.28125 c 0,-0.3125 -0.046875,-0.40625 -0.390625,-0.40625 H 3.125 c -0.15625,0 -0.40625,0 -0.40625,0.3125 0,0.296875 0.265625,0.296875 0.40625,0.296875 h 0.4375 v 2.125 c 0,0.890625 -0.796875,1.015625 -1.125,1.015625 -0.78125,0 -0.78125,-0.328125 -0.78125,-0.65625 v -2.6875 c 0,-0.3125 -0.0625,-0.40625 -0.40625,-0.40625 H 0.53125 c -0.15625,0 -0.40625,0 -0.40625,0.3125 0,0.296875 0.25,0.296875 0.390625,0.296875 H 0.96875 v 2.546875 c 0,0.96875 0.6875,1.203125 1.40625,1.203125 0.421875,0 0.828125,-0.109375 1.1875,-0.375 z m 0,0"
             id="id-c0f3c152-ff2b-4ffb-a37d-31705ff88a08" />
        </symbol>
        <symbol
           overflow="visible"
           id="id-6ec4bcdb-9d0a-44bd-81f3-c1daa4e34cc0">
          <path
             style="stroke:none;stroke-width:0"
             d="m 2.515625,-3.6875 h 1.21875 c 0.15625,0 0.40625,0 0.40625,-0.296875 0,-0.3125 -0.25,-0.3125 -0.40625,-0.3125 h -1.21875 v -0.46875 c 0,-0.78125 0.671875,-0.78125 0.96875,-0.78125 0,0.046875 0.09375,0.4375 0.4375,0.4375 0.203125,0 0.4375,-0.171875 0.4375,-0.4375 0,-0.609375 -0.796875,-0.609375 -0.953125,-0.609375 -0.796875,0 -1.578125,0.46875 -1.578125,1.328125 v 0.53125 H 0.84375 c -0.171875,0 -0.421875,0 -0.421875,0.3125 0,0.296875 0.25,0.296875 0.40625,0.296875 h 1 v 3.078125 h -1 c -0.15625,0 -0.40625,0 -0.40625,0.296875 C 0.421875,0 0.671875,0 0.828125,0 H 3.53125 c 0.140625,0 0.40625,0 0.40625,-0.296875 0,-0.3125 -0.265625,-0.3125 -0.40625,-0.3125 H 2.515625 Z m 0,0"
             id="id-10c3e5b4-f12a-4808-9ded-7bc759924406" />
        </symbol>
      </g>
    </defs>
  </defs>
  <g
     id="layer1"
     transform="translate(-32.012375,-73.968768)">
    <g
       id="g3382">
      <rect
         style="font-variation-settings:normal;opacity:1;vector-effect:none;fill:#cccccc;fill-opacity:1;fill-rule:evenodd;stroke:#000000;stroke-width:0.264583;stroke-linecap:butt;stroke-linejoin:miter;stroke-miterlimit:4;stroke-dasharray:none;stroke-dashoffset:0;stroke-opacity:1;stop-color:#000000;stop-opacity:1"
         id="rect2080"
         width="21.166666"
         height="5.2916665"
         x="74.083336"
         y="89.958336" />
      <rect
         style="font-variation-settings:normal;opacity:1;vector-effect:none;fill:#cccccc;fill-opacity:1;fill-rule:evenodd;stroke:#000000;stroke-width:0.264583;stroke-linecap:butt;stroke-linejoin:miter;stroke-miterlimit:4;stroke-dasharray:none;stroke-dashoffset:0;stroke-opacity:1;stop-color:#000000;stop-opacity:1"
         id="rect2288"
         width="21.166666"
         height="5.2916665"
         x="74.083336"
         y="111.125" />
      <rect
         style="font-variation-settings:normal;opacity:1;vector-effect:none;fill:#cccccc;fill-opacity:1;fill-rule:evenodd;stroke:#000000;stroke-width:0.264583;stroke-linecap:butt;stroke-linejoin:miter;stroke-miterlimit:4;stroke-dasharray:none;stroke-dashoffset:0;stroke-opacity:1;stop-color:#000000;stop-opacity:1"
         id="rect2390"
         width="21.166666"
         height="5.2916665"
         x="74.083328"
         y="132.29167" />
      <g
         style="fill:#000000;fill-opacity:1"
         id="id-8585fc5f-978c-46cb-a41f-99f05317b482"
         transform="matrix(0.375579,0,0,0.375579,-23.934624,53.957544)">
        <g
           transform="translate(148.712,134.765)"
           id="g1338">
          <path
             style="stroke:none;stroke-width:0"
             d="m 2.21875,-3.6875 h 1.625 c 0.15625,0 0.40625,0 0.40625,-0.296875 0,-0.3125 -0.25,-0.3125 -0.40625,-0.3125 h -1.625 v -0.8125 c 0,-0.1875 0,-0.40625 -0.34375,-0.40625 -0.34375,0 -0.34375,0.203125 -0.34375,0.40625 v 0.8125 h -0.875 c -0.15625,0 -0.40625,0 -0.40625,0.3125 0,0.296875 0.25,0.296875 0.390625,0.296875 H 1.53125 V -1.25 c 0,0.953125 0.671875,1.3125 1.40625,1.3125 0.734375,0 1.53125,-0.4375 1.53125,-1.3125 0,-0.1875 0,-0.390625 -0.34375,-0.390625 -0.328125,0 -0.34375,0.203125 -0.34375,0.375 0,0.625 -0.578125,0.71875 -0.796875,0.71875 -0.765625,0 -0.765625,-0.515625 -0.765625,-0.765625 z m 0,0"
             id="id-0f5a776b-6ffb-41d2-9bed-196b1efcc1f1" />
        </g>
        <g
           transform="translate(153.942,134.765)"
           id="g1341">
          <path
             style="stroke:none;stroke-width:0"
             d="M 3.65625,-0.3125 C 3.875,-0.015625 4.34375,0 4.71875,0 c 0.28125,0 0.5,0 0.5,-0.3125 0,-0.296875 -0.25,-0.296875 -0.390625,-0.296875 -0.421875,0 -0.515625,-0.046875 -0.59375,-0.078125 v -2.15625 c 0,-0.703125 -0.546875,-1.546875 -1.984375,-1.546875 -0.421875,0 -1.4375,0 -1.4375,0.734375 0,0.296875 0.203125,0.453125 0.4375,0.453125 0.15625,0 0.4375,-0.09375 0.4375,-0.453125 0,-0.078125 0.015625,-0.09375 0.21875,-0.109375 0.140625,-0.015625 0.265625,-0.015625 0.359375,-0.015625 0.75,0 1.265625,0.3125 1.265625,1.015625 -1.75,0.03125 -2.984375,0.53125 -2.984375,1.484375 0,0.6875 0.625,1.34375 1.640625,1.34375 0.375,0 1,-0.078125 1.46875,-0.375 z m -0.125,-1.859375 v 0.84375 c 0,0.21875 0,0.4375 -0.375,0.609375 -0.359375,0.171875 -0.8125,0.171875 -0.890625,0.171875 -0.625,0 -1.03125,-0.34375 -1.03125,-0.734375 0,-0.484375 0.859375,-0.859375 2.296875,-0.890625 z m 0,0"
             id="id-5b71e08d-65e1-4491-a5b1-600e3fa503a5" />
        </g>
        <g
           transform="translate(159.173,134.765)"
           id="g1344">
          <path
             style="stroke:none;stroke-width:0"
             d="M 2.859375,-2.21875 4,-3.6875 h 0.390625 c 0.140625,0 0.421875,0 0.421875,-0.296875 0,-0.3125 -0.265625,-0.3125 -0.421875,-0.3125 h -1.15625 c -0.15625,0 -0.40625,0 -0.40625,0.296875 0,0.3125 0.21875,0.3125 0.484375,0.3125 l -0.734375,1 -0.75,-1 c 0.25,0 0.46875,0 0.46875,-0.3125 0,-0.296875 -0.25,-0.296875 -0.390625,-0.296875 H 0.734375 c -0.140625,0 -0.40625,0 -0.40625,0.3125 0,0.296875 0.265625,0.296875 0.40625,0.296875 h 0.40625 L 2.3125,-2.21875 1.078125,-0.609375 h -0.40625 c -0.140625,0 -0.40625,0 -0.40625,0.3125 C 0.265625,0 0.53125,0 0.671875,0 H 1.84375 C 2,0 2.25,0 2.25,-0.296875 c 0,-0.3125 -0.21875,-0.3125 -0.53125,-0.3125 l 0.859375,-1.21875 0.890625,1.21875 c -0.28125,0 -0.5,0 -0.5,0.3125 C 2.96875,0 3.21875,0 3.375,0 h 1.15625 c 0.140625,0 0.40625,0 0.40625,-0.296875 0,-0.3125 -0.25,-0.3125 -0.40625,-0.3125 H 4.140625 Z m 0,0"
             id="id-fa2031b5-e95d-4fc7-b959-ea4e9eff3b61" />
        </g>
        <g
           transform="translate(164.403,134.765)"
           id="g1347">
          <path
             style="stroke:none;stroke-width:0"
             d="m 1.65625,-2.625 c 0,-0.59375 0.578125,-1.125 1.203125,-1.125 0.734375,0 1.3125,0.734375 1.3125,1.59375 0,0.953125 -0.6875,1.609375 -1.390625,1.609375 -0.78125,0 -1.125,-0.875 -1.125,-1.359375 z m 0,2.171875 C 2.0625,-0.03125 2.5,0.0625 2.8125,0.0625 c 1.078125,0 2.046875,-0.953125 2.046875,-2.21875 0,-1.21875 -0.875,-2.203125 -1.9375,-2.203125 C 2.4375,-4.359375 2,-4.171875 1.65625,-3.875 1.65625,-4.15625 1.640625,-4.296875 1.25,-4.296875 H 0.53125 c -0.15625,0 -0.40625,0 -0.40625,0.3125 0,0.296875 0.25,0.296875 0.390625,0.296875 H 0.96875 v 5.296875 h -0.4375 c -0.15625,0 -0.40625,0 -0.40625,0.296875 0,0.3125 0.25,0.3125 0.390625,0.3125 h 1.59375 C 2.25,2.21875 2.5,2.21875 2.5,1.90625 2.5,1.609375 2.25,1.609375 2.09375,1.609375 h -0.4375 z m 0,0"
             id="id-f58f1878-0141-477c-bef3-0de988caba11" />
        </g>
        <g
           transform="translate(169.633,134.765)"
           id="g1350">
          <path
             style="stroke:none;stroke-width:0"
             d="M 3.65625,-0.3125 C 3.875,-0.015625 4.34375,0 4.71875,0 c 0.28125,0 0.5,0 0.5,-0.3125 0,-0.296875 -0.25,-0.296875 -0.390625,-0.296875 -0.421875,0 -0.515625,-0.046875 -0.59375,-0.078125 v -2.15625 c 0,-0.703125 -0.546875,-1.546875 -1.984375,-1.546875 -0.421875,0 -1.4375,0 -1.4375,0.734375 0,0.296875 0.203125,0.453125 0.4375,0.453125 0.15625,0 0.4375,-0.09375 0.4375,-0.453125 0,-0.078125 0.015625,-0.09375 0.21875,-0.109375 0.140625,-0.015625 0.265625,-0.015625 0.359375,-0.015625 0.75,0 1.265625,0.3125 1.265625,1.015625 -1.75,0.03125 -2.984375,0.53125 -2.984375,1.484375 0,0.6875 0.625,1.34375 1.640625,1.34375 0.375,0 1,-0.078125 1.46875,-0.375 z m -0.125,-1.859375 v 0.84375 c 0,0.21875 0,0.4375 -0.375,0.609375 -0.359375,0.171875 -0.8125,0.171875 -0.890625,0.171875 -0.625,0 -1.03125,-0.34375 -1.03125,-0.734375 0,-0.484375 0.859375,-0.859375 2.296875,-0.890625 z m 0,0"
             id="id-122e8805-6e6a-4fc2-ba90-f7df36420426" />
        </g>
        <g
           transform="translate(174.864,134.765)"
           id="g1353">
          <path
             style="stroke:none;stroke-width:0"
             d="m 4.28125,-3.6875 h 0.296875 c 0.15625,0 0.40625,0 0.40625,-0.296875 0,-0.3125 -0.234375,-0.3125 -0.40625,-0.3125 h -1.15625 c -0.15625,0 -0.40625,0 -0.40625,0.296875 0,0.3125 0.25,0.3125 0.40625,0.3125 h 0.28125 l -0.71875,2.125 C 2.84375,-1.203125 2.796875,-1.015625 2.71875,-0.703125 2.65625,-0.890625 2.578125,-1.109375 2.5,-1.296875 L 1.578125,-3.6875 h 0.25 c 0.140625,0 0.390625,0 0.390625,-0.296875 0,-0.3125 -0.234375,-0.3125 -0.390625,-0.3125 H 0.65625 c -0.15625,0 -0.390625,0 -0.390625,0.3125 0,0.296875 0.25,0.296875 0.390625,0.296875 h 0.3125 L 2.375,-0.125 c 0.046875,0.09375 0.046875,0.109375 0.046875,0.125 0,0.015625 -0.25,0.84375 -0.375,1.09375 C 1.75,1.640625 1.390625,1.65625 1.25,1.671875 c 0,-0.015625 0.046875,-0.09375 0.046875,-0.21875 0,-0.25 -0.1875,-0.4375 -0.421875,-0.4375 -0.28125,0 -0.453125,0.1875 -0.453125,0.4375 0,0.421875 0.34375,0.8125 0.828125,0.8125 1,0 1.453125,-1.3125 1.484375,-1.421875 z m 0,0"
             id="id-ec966b74-048a-4fd9-a490-2be3dc64e373" />
        </g>
        <g
           transform="translate(180.094,134.765)"
           id="g1356">
          <path
             style="stroke:none;stroke-width:0"
             d="m 4.234375,-1.90625 c 0.203125,0 0.390625,0 0.390625,-0.359375 0,-1.140625 -0.640625,-2.125 -1.9375,-2.125 -1.1875,0 -2.140625,1 -2.140625,2.234375 0,1.203125 1.015625,2.21875 2.296875,2.21875 1.3125,0 1.78125,-0.90625 1.78125,-1.15625 0,-0.265625 -0.28125,-0.265625 -0.34375,-0.265625 -0.1875,0 -0.265625,0.03125 -0.328125,0.21875 -0.21875,0.5 -0.765625,0.59375 -1.046875,0.59375 -0.75,0 -1.484375,-0.5 -1.65625,-1.359375 z M 1.265625,-2.5 C 1.40625,-3.234375 2,-3.78125 2.6875,-3.78125 c 0.515625,0 1.140625,0.25 1.234375,1.28125 z m 0,0"
             id="id-b97dd5c7-68f4-4dfc-bf7c-9d2500477fef" />
        </g>
        <g
           transform="translate(185.325,134.765)"
           id="g1359">
          <path
             style="stroke:none;stroke-width:0"
             d="M 2.21875,-1.859375 C 2.21875,-2.796875 2.796875,-3.75 4,-3.75 c 0.015625,0.234375 0.1875,0.4375 0.4375,0.4375 0.21875,0 0.421875,-0.15625 0.421875,-0.421875 0,-0.203125 -0.125,-0.625 -0.953125,-0.625 -0.5,0 -1.140625,0.1875 -1.6875,0.8125 v -0.34375 c 0,-0.3125 -0.0625,-0.40625 -0.40625,-0.40625 H 0.71875 c -0.15625,0 -0.40625,0 -0.40625,0.296875 0,0.3125 0.25,0.3125 0.40625,0.3125 h 0.8125 v 3.078125 h -0.8125 c -0.15625,0 -0.40625,0 -0.40625,0.296875 C 0.3125,0 0.5625,0 0.71875,0 H 3.3125 c 0.15625,0 0.421875,0 0.421875,-0.296875 0,-0.3125 -0.265625,-0.3125 -0.421875,-0.3125 H 2.21875 Z m 0,0"
             id="id-1d098f32-497a-4c59-ae07-0f05e1a59294" />
        </g>
        <g
           transform="translate(190.555,134.765)"
           id="g1362">
          <path
             style="stroke:none;stroke-width:0"
             d="m 3.09375,-5.796875 c 0,-0.15625 0,-0.40625 -0.296875,-0.40625 -0.1875,0 -0.25,0.125 -0.296875,0.234375 C 2.125,-5.109375 1.609375,-5 1.421875,-4.984375 c -0.171875,0.015625 -0.375,0.03125 -0.375,0.3125 0,0.25 0.171875,0.296875 0.328125,0.296875 0.1875,0 0.59375,-0.0625 1.03125,-0.4375 v 4.203125 H 1.5 c -0.15625,0 -0.390625,0 -0.390625,0.3125 C 1.109375,0 1.359375,0 1.5,0 H 4 c 0.15625,0 0.40625,0 0.40625,-0.296875 0,-0.3125 -0.234375,-0.3125 -0.40625,-0.3125 H 3.09375 Z m 0,0"
             id="id-91bad501-6711-42d9-ba95-9ed17c84c400" />
        </g>
      </g>
      <g
         style="fill:#000000;fill-opacity:1"
         id="id-9e6cca13-c87d-4e97-b29d-4341d0f8ac85"
         transform="matrix(0.375579,0,0,0.375579,6.0491581,42.802042)">
        <g
           transform="translate(199.103,134.765)"
           id="g1366">
          <path
             style="stroke:none;stroke-width:0"
             d="m 1.65625,-3.828125 c 0,-0.3125 0,-0.46875 -0.40625,-0.46875 H 0.53125 c -0.15625,0 -0.40625,0 -0.40625,0.3125 0,0.296875 0.25,0.296875 0.390625,0.296875 H 0.96875 v 3.078125 h -0.4375 c -0.15625,0 -0.40625,0 -0.40625,0.3125 C 0.125,0 0.375,0 0.515625,0 h 1.59375 C 2.25,0 2.5,0 2.5,-0.296875 c 0,-0.3125 -0.25,-0.3125 -0.40625,-0.3125 H 1.65625 V -2.375 c 0,-1 0.734375,-1.375 1.25,-1.375 0.515625,0 0.65625,0.28125 0.65625,0.875 v 2.265625 h -0.375 c -0.171875,0 -0.421875,0 -0.421875,0.3125 C 2.765625,0 3.046875,0 3.1875,0 h 1.515625 c 0.140625,0 0.40625,0 0.40625,-0.296875 0,-0.3125 -0.25,-0.3125 -0.421875,-0.3125 H 4.25 v -2.3125 c 0,-1 -0.5,-1.4375 -1.296875,-1.4375 -0.65625,0 -1.109375,0.34375 -1.296875,0.53125 z m 0,0"
             id="id-39e38698-7753-4aae-b083-e091f5efa098" />
        </g>
        <g
           transform="translate(204.333,134.765)"
           id="g1369">
          <path
             style="stroke:none;stroke-width:0"
             d="M 3.65625,-0.3125 C 3.875,-0.015625 4.34375,0 4.71875,0 c 0.28125,0 0.5,0 0.5,-0.3125 0,-0.296875 -0.25,-0.296875 -0.390625,-0.296875 -0.421875,0 -0.515625,-0.046875 -0.59375,-0.078125 v -2.15625 c 0,-0.703125 -0.546875,-1.546875 -1.984375,-1.546875 -0.421875,0 -1.4375,0 -1.4375,0.734375 0,0.296875 0.203125,0.453125 0.4375,0.453125 0.15625,0 0.4375,-0.09375 0.4375,-0.453125 0,-0.078125 0.015625,-0.09375 0.21875,-0.109375 0.140625,-0.015625 0.265625,-0.015625 0.359375,-0.015625 0.75,0 1.265625,0.3125 1.265625,1.015625 -1.75,0.03125 -2.984375,0.53125 -2.984375,1.484375 0,0.6875 0.625,1.34375 1.640625,1.34375 0.375,0 1,-0.078125 1.46875,-0.375 z m -0.125,-1.859375 v 0.84375 c 0,0.21875 0,0.4375 -0.375,0.609375 -0.359375,0.171875 -0.8125,0.171875 -0.890625,0.171875 -0.625,0 -1.03125,-0.34375 -1.03125,-0.734375 0,-0.484375 0.859375,-0.859375 2.296875,-0.890625 z m 0,0"
             id="id-2e3e6acf-932b-4701-a4ce-36363f214f24" />
        </g>
        <g
           transform="translate(209.564,134.765)"
           id="g1372">
          <path
             style="stroke:none;stroke-width:0"
             d="M 1.09375,-4 C 1.0625,-4.296875 0.875,-4.296875 0.6875,-4.296875 H 0.375 c -0.15625,0 -0.421875,0 -0.421875,0.296875 0,0.3125 0.21875,0.3125 0.578125,0.3125 v 3.078125 c -0.359375,0 -0.578125,0 -0.578125,0.3125 C -0.046875,0 0.234375,0 0.375,0 H 1.25 c 0.140625,0 0.40625,0 0.40625,-0.296875 0,-0.3125 -0.203125,-0.3125 -0.5625,-0.3125 v -1.78125 C 1.09375,-3.28125 1.5,-3.75 1.90625,-3.75 c 0.234375,0 0.359375,0.171875 0.359375,0.8125 v 2.328125 c -0.1875,0 -0.4375,0 -0.4375,0.3125 C 1.828125,0 2.109375,0 2.25,0 h 0.734375 c 0.15625,0 0.421875,0 0.421875,-0.296875 0,-0.3125 -0.21875,-0.3125 -0.578125,-0.3125 v -1.78125 c 0,-0.890625 0.40625,-1.359375 0.828125,-1.359375 0.21875,0 0.359375,0.171875 0.359375,0.8125 v 2.328125 c -0.1875,0 -0.4375,0 -0.4375,0.3125 C 3.578125,0 3.84375,0 3.984375,0 h 0.75 c 0.15625,0 0.40625,0 0.40625,-0.296875 0,-0.3125 -0.203125,-0.3125 -0.5625,-0.3125 v -2.40625 c 0,-0.203125 0,-1.34375 -0.890625,-1.34375 -0.296875,0 -0.703125,0.125 -0.984375,0.515625 C 2.546875,-4.171875 2.265625,-4.359375 1.9375,-4.359375 1.625,-4.359375 1.328125,-4.21875 1.09375,-4 Z m 0,0"
             id="id-0a72d402-92de-41d7-806e-938a84e32084" />
        </g>
        <g
           transform="translate(214.794,134.765)"
           id="g1375">
          <path
             style="stroke:none;stroke-width:0"
             d="m 4.234375,-1.90625 c 0.203125,0 0.390625,0 0.390625,-0.359375 0,-1.140625 -0.640625,-2.125 -1.9375,-2.125 -1.1875,0 -2.140625,1 -2.140625,2.234375 0,1.203125 1.015625,2.21875 2.296875,2.21875 1.3125,0 1.78125,-0.90625 1.78125,-1.15625 0,-0.265625 -0.28125,-0.265625 -0.34375,-0.265625 -0.1875,0 -0.265625,0.03125 -0.328125,0.21875 -0.21875,0.5 -0.765625,0.59375 -1.046875,0.59375 -0.75,0 -1.484375,-0.5 -1.65625,-1.359375 z M 1.265625,-2.5 C 1.40625,-3.234375 2,-3.78125 2.6875,-3.78125 c 0.515625,0 1.140625,0.25 1.234375,1.28125 z m 0,0"
             id="id-51585293-80d4-48c4-aaa3-e2a569671307" />
        </g>
      </g>
      <g
         style="fill:#000000;fill-opacity:1"
         id="id-513b5b9c-b7d7-4526-bbc3-7feb63a83434"
         transform="matrix(0.375579,0,0,0.375579,-2.1553417,63.554982)">
        <g
           transform="translate(223.352,134.765)"
           id="g1379">
          <path
             style="stroke:none;stroke-width:0"
             d="M 3.65625,-0.3125 C 3.875,-0.015625 4.34375,0 4.71875,0 c 0.28125,0 0.5,0 0.5,-0.3125 0,-0.296875 -0.25,-0.296875 -0.390625,-0.296875 -0.421875,0 -0.515625,-0.046875 -0.59375,-0.078125 v -2.15625 c 0,-0.703125 -0.546875,-1.546875 -1.984375,-1.546875 -0.421875,0 -1.4375,0 -1.4375,0.734375 0,0.296875 0.203125,0.453125 0.4375,0.453125 0.15625,0 0.4375,-0.09375 0.4375,-0.453125 0,-0.078125 0.015625,-0.09375 0.21875,-0.109375 0.140625,-0.015625 0.265625,-0.015625 0.359375,-0.015625 0.75,0 1.265625,0.3125 1.265625,1.015625 -1.75,0.03125 -2.984375,0.53125 -2.984375,1.484375 0,0.6875 0.625,1.34375 1.640625,1.34375 0.375,0 1,-0.078125 1.46875,-0.375 z m -0.125,-1.859375 v 0.84375 c 0,0.21875 0,0.4375 -0.375,0.609375 -0.359375,0.171875 -0.8125,0.171875 -0.890625,0.171875 -0.625,0 -1.03125,-0.34375 -1.03125,-0.734375 0,-0.484375 0.859375,-0.859375 2.296875,-0.890625 z m 0,0"
             id="id-9fcb436a-54b9-40c9-abd4-6ea3c63bf948" />
        </g>
        <g
           transform="translate(228.582,134.765)"
           id="g1382">
          <path
             style="stroke:none;stroke-width:0"
             d="m 2.328125,-1.75 c -0.546875,0 -0.96875,-0.46875 -0.96875,-1 0,-0.5625 0.4375,-1.015625 0.96875,-1.015625 0.53125,0 0.953125,0.46875 0.953125,1 0,0.578125 -0.4375,1.015625 -0.953125,1.015625 z m -0.90625,0.34375 c 0.03125,0.015625 0.40625,0.25 0.90625,0.25 0.90625,0 1.640625,-0.71875 1.640625,-1.609375 C 3.96875,-3.0625 3.875,-3.34375 3.703125,-3.625 3.921875,-3.75 4.15625,-3.78125 4.28125,-3.796875 c 0.0625,0.265625 0.296875,0.34375 0.390625,0.34375 0.171875,0 0.40625,-0.125 0.40625,-0.421875 0,-0.21875 -0.1875,-0.53125 -0.734375,-0.53125 -0.109375,0 -0.59375,0.015625 -1.046875,0.34375 C 3.125,-4.171875 2.78125,-4.359375 2.328125,-4.359375 c -0.9375,0 -1.65625,0.75 -1.65625,1.59375 C 0.671875,-2.328125 0.84375,-2 1,-1.8125 c -0.109375,0.15625 -0.203125,0.375 -0.203125,0.671875 0,0.359375 0.140625,0.609375 0.234375,0.71875 -0.734375,0.453125 -0.734375,1.125 -0.734375,1.234375 0,0.859375 1.03125,1.46875 2.3125,1.46875 C 3.890625,2.28125 4.9375,1.671875 4.9375,0.8125 4.9375,0.453125 4.75,-0.046875 4.25,-0.3125 4.109375,-0.390625 3.703125,-0.609375 2.796875,-0.609375 h -0.6875 c -0.078125,0 -0.21875,0 -0.296875,-0.015625 -0.140625,0 -0.203125,0 -0.328125,-0.140625 -0.109375,-0.140625 -0.125,-0.34375 -0.125,-0.359375 0,-0.046875 0.03125,-0.1875 0.0625,-0.28125 z m 1.1875,3.09375 c -1,0 -1.734375,-0.4375 -1.734375,-0.875 0,-0.171875 0.078125,-0.5 0.40625,-0.6875 0.25,-0.171875 0.328125,-0.171875 1.0625,-0.171875 0.890625,0 2.015625,0 2.015625,0.859375 0,0.4375 -0.75,0.875 -1.75,0.875 z m 0,0"
             id="id-bb7926ef-e0f4-4ed1-a9d2-3a28ece5b2d5" />
        </g>
        <g
           transform="translate(233.813,134.765)"
           id="g1385">
          <path
             style="stroke:none;stroke-width:0"
             d="m 4.234375,-1.90625 c 0.203125,0 0.390625,0 0.390625,-0.359375 0,-1.140625 -0.640625,-2.125 -1.9375,-2.125 -1.1875,0 -2.140625,1 -2.140625,2.234375 0,1.203125 1.015625,2.21875 2.296875,2.21875 1.3125,0 1.78125,-0.90625 1.78125,-1.15625 0,-0.265625 -0.28125,-0.265625 -0.34375,-0.265625 -0.1875,0 -0.265625,0.03125 -0.328125,0.21875 -0.21875,0.5 -0.765625,0.59375 -1.046875,0.59375 -0.75,0 -1.484375,-0.5 -1.65625,-1.359375 z M 1.265625,-2.5 C 1.40625,-3.234375 2,-3.78125 2.6875,-3.78125 c 0.515625,0 1.140625,0.25 1.234375,1.28125 z m 0,0"
             id="id-480a442b-04e7-493d-a1d5-4f1ed4438113" />
        </g>
      </g>
      <g
         style="fill:#000000;fill-opacity:1"
         id="id-e88c2e0c-71ab-4a20-82e4-07089ee58326"
         transform="matrix(0.375579,0,0,0.375579,-13.202747,85.455206)">
        <g
           transform="translate(242.36,134.765)"
           id="g1389">
          <path
             style="stroke:none;stroke-width:0"
             d="M 1.09375,-4 C 1.0625,-4.296875 0.875,-4.296875 0.6875,-4.296875 H 0.375 c -0.15625,0 -0.421875,0 -0.421875,0.296875 0,0.3125 0.21875,0.3125 0.578125,0.3125 v 3.078125 c -0.359375,0 -0.578125,0 -0.578125,0.3125 C -0.046875,0 0.234375,0 0.375,0 H 1.25 c 0.140625,0 0.40625,0 0.40625,-0.296875 0,-0.3125 -0.203125,-0.3125 -0.5625,-0.3125 v -1.78125 C 1.09375,-3.28125 1.5,-3.75 1.90625,-3.75 c 0.234375,0 0.359375,0.171875 0.359375,0.8125 v 2.328125 c -0.1875,0 -0.4375,0 -0.4375,0.3125 C 1.828125,0 2.109375,0 2.25,0 h 0.734375 c 0.15625,0 0.421875,0 0.421875,-0.296875 0,-0.3125 -0.21875,-0.3125 -0.578125,-0.3125 v -1.78125 c 0,-0.890625 0.40625,-1.359375 0.828125,-1.359375 0.21875,0 0.359375,0.171875 0.359375,0.8125 v 2.328125 c -0.1875,0 -0.4375,0 -0.4375,0.3125 C 3.578125,0 3.84375,0 3.984375,0 h 0.75 c 0.15625,0 0.40625,0 0.40625,-0.296875 0,-0.3125 -0.203125,-0.3125 -0.5625,-0.3125 v -2.40625 c 0,-0.203125 0,-1.34375 -0.890625,-1.34375 -0.296875,0 -0.703125,0.125 -0.984375,0.515625 C 2.546875,-4.171875 2.265625,-4.359375 1.9375,-4.359375 1.625,-4.359375 1.328125,-4.21875 1.09375,-4 Z m 0,0"
             id="id-c2f97ede-f924-443b-b9ef-d0684b4b5292" />
        </g>
        <g
           transform="translate(247.591,134.765)"
           id="g1392">
          <path
             style="stroke:none;stroke-width:0"
             d="M 3.65625,-0.3125 C 3.875,-0.015625 4.34375,0 4.71875,0 c 0.28125,0 0.5,0 0.5,-0.3125 0,-0.296875 -0.25,-0.296875 -0.390625,-0.296875 -0.421875,0 -0.515625,-0.046875 -0.59375,-0.078125 v -2.15625 c 0,-0.703125 -0.546875,-1.546875 -1.984375,-1.546875 -0.421875,0 -1.4375,0 -1.4375,0.734375 0,0.296875 0.203125,0.453125 0.4375,0.453125 0.15625,0 0.4375,-0.09375 0.4375,-0.453125 0,-0.078125 0.015625,-0.09375 0.21875,-0.109375 0.140625,-0.015625 0.265625,-0.015625 0.359375,-0.015625 0.75,0 1.265625,0.3125 1.265625,1.015625 -1.75,0.03125 -2.984375,0.53125 -2.984375,1.484375 0,0.6875 0.625,1.34375 1.640625,1.34375 0.375,0 1,-0.078125 1.46875,-0.375 z m -0.125,-1.859375 v 0.84375 c 0,0.21875 0,0.4375 -0.375,0.609375 -0.359375,0.171875 -0.8125,0.171875 -0.890625,0.171875 -0.625,0 -1.03125,-0.34375 -1.03125,-0.734375 0,-0.484375 0.859375,-0.859375 2.296875,-0.890625 z m 0,0"
             id="id-4adca711-d7a7-462b-872f-2a5e918bf852" />
        </g>
        <g
           transform="translate(252.821,134.765)"
           id="g1395">
          <path
             style="stroke:none;stroke-width:0"
             d="M 2.21875,-1.859375 C 2.21875,-2.796875 2.796875,-3.75 4,-3.75 c 0.015625,0.234375 0.1875,0.4375 0.4375,0.4375 0.21875,0 0.421875,-0.15625 0.421875,-0.421875 0,-0.203125 -0.125,-0.625 -0.953125,-0.625 -0.5,0 -1.140625,0.1875 -1.6875,0.8125 v -0.34375 c 0,-0.3125 -0.0625,-0.40625 -0.40625,-0.40625 H 0.71875 c -0.15625,0 -0.40625,0 -0.40625,0.296875 0,0.3125 0.25,0.3125 0.40625,0.3125 h 0.8125 v 3.078125 h -0.8125 c -0.15625,0 -0.40625,0 -0.40625,0.296875 C 0.3125,0 0.5625,0 0.71875,0 H 3.3125 c 0.15625,0 0.421875,0 0.421875,-0.296875 0,-0.3125 -0.265625,-0.3125 -0.421875,-0.3125 H 2.21875 Z m 0,0"
             id="id-e2f953a3-43c3-4f8c-88ad-77579b3fd4f9" />
        </g>
        <g
           transform="translate(258.052,134.765)"
           id="g1398">
          <path
             style="stroke:none;stroke-width:0"
             d="M 2.21875,-1.859375 C 2.21875,-2.796875 2.796875,-3.75 4,-3.75 c 0.015625,0.234375 0.1875,0.4375 0.4375,0.4375 0.21875,0 0.421875,-0.15625 0.421875,-0.421875 0,-0.203125 -0.125,-0.625 -0.953125,-0.625 -0.5,0 -1.140625,0.1875 -1.6875,0.8125 v -0.34375 c 0,-0.3125 -0.0625,-0.40625 -0.40625,-0.40625 H 0.71875 c -0.15625,0 -0.40625,0 -0.40625,0.296875 0,0.3125 0.25,0.3125 0.40625,0.3125 h 0.8125 v 3.078125 h -0.8125 c -0.15625,0 -0.40625,0 -0.40625,0.296875 C 0.3125,0 0.5625,0 0.71875,0 H 3.3125 c 0.15625,0 0.421875,0 0.421875,-0.296875 0,-0.3125 -0.265625,-0.3125 -0.421875,-0.3125 H 2.21875 Z m 0,0"
             id="id-b5ddf8f9-1d23-4da8-a1ea-637df5ea44ee" />
        </g>
        <g
           transform="translate(263.282,134.765)"
           id="g1401">
          <path
             style="stroke:none;stroke-width:0"
             d="m 3.078125,-3.890625 c 0,-0.3125 -0.0625,-0.40625 -0.390625,-0.40625 H 1.265625 c -0.15625,0 -0.40625,0 -0.40625,0.296875 0,0.3125 0.25,0.3125 0.40625,0.3125 h 1.125 v 3.078125 H 1.1875 c -0.15625,0 -0.40625,0 -0.40625,0.3125 C 0.78125,0 1.03125,0 1.1875,0 H 4.125 c 0.15625,0 0.40625,0 0.40625,-0.296875 0,-0.3125 -0.25,-0.3125 -0.40625,-0.3125 H 3.078125 Z m 0,-1.71875 c 0,-0.265625 -0.21875,-0.484375 -0.5,-0.484375 -0.28125,0 -0.5,0.21875 -0.5,0.484375 0,0.28125 0.21875,0.5 0.5,0.5 0.28125,0 0.5,-0.21875 0.5,-0.5 z m 0,0"
             id="id-7b07391d-9db1-4e08-bf5d-eceab311245c" />
        </g>
        <g
           transform="translate(268.512,134.765)"
           id="g1404">
          <path
             style="stroke:none;stroke-width:0"
             d="m 4.234375,-1.90625 c 0.203125,0 0.390625,0 0.390625,-0.359375 0,-1.140625 -0.640625,-2.125 -1.9375,-2.125 -1.1875,0 -2.140625,1 -2.140625,2.234375 0,1.203125 1.015625,2.21875 2.296875,2.21875 1.3125,0 1.78125,-0.90625 1.78125,-1.15625 0,-0.265625 -0.28125,-0.265625 -0.34375,-0.265625 -0.1875,0 -0.265625,0.03125 -0.328125,0.21875 -0.21875,0.5 -0.765625,0.59375 -1.046875,0.59375 -0.75,0 -1.484375,-0.5 -1.65625,-1.359375 z M 1.265625,-2.5 C 1.40625,-3.234375 2,-3.78125 2.6875,-3.78125 c 0.515625,0 1.140625,0.25 1.234375,1.28125 z m 0,0"
             id="id-7c92237a-4dcc-4367-9a58-5acf0f6feda7" />
        </g>
        <g
           transform="translate(273.743,134.765)"
           id="g1407">
          <path
             style="stroke:none;stroke-width:0"
             d="m 3.5625,-0.5 c 0,0.359375 0,0.5 0.40625,0.5 H 4.6875 c 0.171875,0 0.421875,0 0.421875,-0.3125 0,-0.296875 -0.265625,-0.296875 -0.40625,-0.296875 H 4.25 V -5.6875 c 0,-0.296875 -0.046875,-0.40625 -0.390625,-0.40625 H 3.125 c -0.15625,0 -0.40625,0 -0.40625,0.3125 0,0.296875 0.265625,0.296875 0.40625,0.296875 H 3.5625 V -3.90625 C 3.234375,-4.203125 2.828125,-4.359375 2.40625,-4.359375 c -1.09375,0 -2.046875,0.953125 -2.046875,2.21875 0,1.234375 0.890625,2.203125 1.953125,2.203125 0.5625,0 0.984375,-0.265625 1.25,-0.5625 z m 0,-2.140625 V -1.9375 c 0,0.5625 -0.4375,1.390625 -1.203125,1.390625 -0.71875,0 -1.3125,-0.703125 -1.3125,-1.59375 C 1.046875,-3.09375 1.75,-3.75 2.4375,-3.75 c 0.640625,0 1.125,0.5625 1.125,1.109375 z m 0,0"
             id="id-f97bd892-c61d-4f29-8211-d7a924d21971" />
        </g>
      </g>
      <g
         id="g2494"
         transform="matrix(0.83564807,0,0,0.83564807,-13.377325,-81.158094)">
        <g
           style="fill:#000000;fill-opacity:1"
           id="id-f222a780-a801-446b-a9e9-9a846459451f"
           transform="matrix(0.375579,0,0,0.375579,0.50239728,145.40563)">
          <g
             transform="translate(282.291,134.765)"
             id="g1411">
            <path
               style="stroke:none;stroke-width:0"
               d="m 2.171875,-5.65625 c 0.03125,-0.46875 -0.3125,-0.546875 -0.4375,-0.546875 -0.1875,0 -0.484375,0.109375 -0.453125,0.546875 L 1.421875,-3.625 c 0,0.140625 0.03125,0.359375 0.3125,0.359375 0.25,0 0.296875,-0.1875 0.3125,-0.359375 z m 1.765625,0 C 3.96875,-6.125 3.625,-6.203125 3.5,-6.203125 c -0.1875,0 -0.484375,0.109375 -0.453125,0.546875 L 3.1875,-3.625 c 0,0.140625 0.03125,0.359375 0.3125,0.359375 0.25,0 0.296875,-0.1875 0.3125,-0.359375 z m 0,0"
               id="id-a76ee94d-4a4c-4fc4-9d04-6bfe21e27a4b" />
          </g>
          <g
             transform="translate(287.521,134.765)"
             id="g1414">
            <path
               style="stroke:none;stroke-width:0"
               d="m 3.15625,-5.828125 c -0.09375,-0.375 -0.234375,-0.375 -0.546875,-0.375 -0.28125,0 -0.453125,0 -0.53125,0.375 L 0.875,-0.609375 c -0.140625,0 -0.375,0 -0.4375,0.015625 -0.109375,0.0625 -0.171875,0.171875 -0.171875,0.296875 C 0.265625,0 0.53125,0 0.703125,0 H 1.71875 c 0.171875,0 0.421875,0 0.421875,-0.296875 0,-0.3125 -0.203125,-0.3125 -0.5625,-0.3125 l 0.21875,-1.03125 h 1.625 l 0.234375,1.03125 c -0.359375,0 -0.5625,0 -0.5625,0.3125 C 3.09375,0 3.328125,0 3.515625,0 H 4.53125 c 0.15625,0 0.421875,0 0.421875,-0.296875 0,-0.125 -0.046875,-0.234375 -0.171875,-0.28125 C 4.71875,-0.609375 4.5,-0.609375 4.359375,-0.609375 Z M 2.609375,-5.40625 H 2.625 L 3.265625,-2.25 h -1.3125 z m 0,0"
               id="id-514f0b5a-8b2a-48f4-82a0-e9fee47602eb" />
          </g>
          <g
             transform="translate(292.751,134.765)"
             id="g1417">
            <path
               style="stroke:none;stroke-width:0"
               d="m 2.953125,-5.6875 c 0,-0.296875 -0.046875,-0.40625 -0.390625,-0.40625 H 0.984375 c -0.15625,0 -0.40625,0 -0.40625,0.3125 0,0.296875 0.265625,0.296875 0.40625,0.296875 h 1.28125 v 4.875 h -1.28125 c -0.15625,0 -0.40625,0 -0.40625,0.3125 C 0.578125,0 0.84375,0 0.984375,0 H 4.25 c 0.15625,0 0.40625,0 0.40625,-0.296875 0,-0.3125 -0.234375,-0.3125 -0.40625,-0.3125 H 2.953125 Z m 0,0"
               id="id-47c75090-795b-4842-8fed-d61a66a4b035" />
          </g>
        </g>
        <g
           style="fill:#000000;fill-opacity:1"
           id="id-65207ef1-3885-4b90-b391-34f0edd67d6a"
           transform="matrix(0.375579,0,0,0.375579,0.50239728,145.40563)">
          <g
             transform="translate(303.212,134.765)"
             id="g1421">
            <path
               style="stroke:none;stroke-width:0"
               d="m 4.828125,-5.796875 c 0,-0.15625 0,-0.40625 -0.296875,-0.40625 -0.1875,0 -0.234375,0.109375 -0.28125,0.171875 -0.015625,0.046875 -0.015625,0.0625 -0.15625,0.3125 C 3.765625,-6 3.3125,-6.203125 2.796875,-6.203125 c -1.28125,0 -2.390625,1.34375 -2.390625,3.15625 0,1.828125 1.109375,3.15625 2.40625,3.15625 1.15625,0 2.015625,-0.890625 2.015625,-1.78125 C 4.828125,-2 4.578125,-2 4.46875,-2 4.390625,-2 4.15625,-2 4.140625,-1.71875 4.0625,-0.734375 3.265625,-0.5 2.84375,-0.5 c -0.90625,0 -1.75,-1.0625 -1.75,-2.546875 0,-1.484375 0.859375,-2.546875 1.75,-2.546875 0.59375,0 1.140625,0.453125 1.28125,1.265625 C 4.15625,-4.15625 4.171875,-4 4.46875,-4 4.828125,-4 4.828125,-4.203125 4.828125,-4.40625 Z m 0,0"
               id="id-63c4ffc4-259a-4e4f-a737-e5bd0f9baff5" />
          </g>
          <g
             transform="translate(308.442,134.765)"
             id="g1424">
            <path
               style="stroke:none;stroke-width:0"
               d="M 3.65625,-0.3125 C 3.875,-0.015625 4.34375,0 4.71875,0 c 0.28125,0 0.5,0 0.5,-0.3125 0,-0.296875 -0.25,-0.296875 -0.390625,-0.296875 -0.421875,0 -0.515625,-0.046875 -0.59375,-0.078125 v -2.15625 c 0,-0.703125 -0.546875,-1.546875 -1.984375,-1.546875 -0.421875,0 -1.4375,0 -1.4375,0.734375 0,0.296875 0.203125,0.453125 0.4375,0.453125 0.15625,0 0.4375,-0.09375 0.4375,-0.453125 0,-0.078125 0.015625,-0.09375 0.21875,-0.109375 0.140625,-0.015625 0.265625,-0.015625 0.359375,-0.015625 0.75,0 1.265625,0.3125 1.265625,1.015625 -1.75,0.03125 -2.984375,0.53125 -2.984375,1.484375 0,0.6875 0.625,1.34375 1.640625,1.34375 0.375,0 1,-0.078125 1.46875,-0.375 z m -0.125,-1.859375 v 0.84375 c 0,0.21875 0,0.4375 -0.375,0.609375 -0.359375,0.171875 -0.8125,0.171875 -0.890625,0.171875 -0.625,0 -1.03125,-0.34375 -1.03125,-0.734375 0,-0.484375 0.859375,-0.859375 2.296875,-0.890625 z m 0,0"
               id="id-d5849ae5-1306-4c3d-ac4f-c516bc195d92" />
          </g>
          <g
             transform="translate(313.673,134.765)"
             id="g1427">
            <path
               style="stroke:none;stroke-width:0"
               d="m 1.65625,-2.625 c 0,-0.59375 0.578125,-1.125 1.203125,-1.125 0.734375,0 1.3125,0.734375 1.3125,1.59375 0,0.953125 -0.6875,1.609375 -1.390625,1.609375 -0.78125,0 -1.125,-0.875 -1.125,-1.359375 z m 0,2.171875 C 2.0625,-0.03125 2.5,0.0625 2.8125,0.0625 c 1.078125,0 2.046875,-0.953125 2.046875,-2.21875 0,-1.21875 -0.875,-2.203125 -1.9375,-2.203125 C 2.4375,-4.359375 2,-4.171875 1.65625,-3.875 1.65625,-4.15625 1.640625,-4.296875 1.25,-4.296875 H 0.53125 c -0.15625,0 -0.40625,0 -0.40625,0.3125 0,0.296875 0.25,0.296875 0.390625,0.296875 H 0.96875 v 5.296875 h -0.4375 c -0.15625,0 -0.40625,0 -0.40625,0.296875 0,0.3125 0.25,0.3125 0.390625,0.3125 h 1.59375 C 2.25,2.21875 2.5,2.21875 2.5,1.90625 2.5,1.609375 2.25,1.609375 2.09375,1.609375 h -0.4375 z m 0,0"
               id="id-e1f146da-a3d5-406b-8e7b-8ed9578534f4" />
          </g>
          <g
             transform="translate(318.903,134.765)"
             id="g1430">
            <path
               style="stroke:none;stroke-width:0"
               d="m 4.65625,-2.15625 c 0,-1.25 -0.921875,-2.234375 -2.046875,-2.234375 -1.109375,0 -2.046875,0.984375 -2.046875,2.234375 0,1.265625 0.953125,2.21875 2.046875,2.21875 1.09375,0 2.046875,-0.953125 2.046875,-2.21875 z M 2.609375,-0.546875 C 1.875,-0.546875 1.25,-1.296875 1.25,-2.21875 c 0,-0.90625 0.65625,-1.5625 1.359375,-1.5625 0.71875,0 1.359375,0.65625 1.359375,1.5625 0,0.921875 -0.625,1.671875 -1.359375,1.671875 z m 0,0"
               id="id-479a9615-af99-4e8a-80e2-ccfee9c74297" />
          </g>
          <g
             transform="translate(324.133,134.765)"
             id="g1433">
            <path
               style="stroke:none;stroke-width:0"
               d="m 1.65625,-3.828125 c 0,-0.3125 0,-0.46875 -0.40625,-0.46875 H 0.53125 c -0.15625,0 -0.40625,0 -0.40625,0.3125 0,0.296875 0.25,0.296875 0.390625,0.296875 H 0.96875 v 3.078125 h -0.4375 c -0.15625,0 -0.40625,0 -0.40625,0.3125 C 0.125,0 0.375,0 0.515625,0 h 1.59375 C 2.25,0 2.5,0 2.5,-0.296875 c 0,-0.3125 -0.25,-0.3125 -0.40625,-0.3125 H 1.65625 V -2.375 c 0,-1 0.734375,-1.375 1.25,-1.375 0.515625,0 0.65625,0.28125 0.65625,0.875 v 2.265625 h -0.375 c -0.171875,0 -0.421875,0 -0.421875,0.3125 C 2.765625,0 3.046875,0 3.1875,0 h 1.515625 c 0.140625,0 0.40625,0 0.40625,-0.296875 0,-0.3125 -0.25,-0.3125 -0.421875,-0.3125 H 4.25 v -2.3125 c 0,-1 -0.5,-1.4375 -1.296875,-1.4375 -0.65625,0 -1.109375,0.34375 -1.296875,0.53125 z m 0,0"
               id="id-4413b619-324c-45a0-ad1f-4e317ccb190e" />
          </g>
          <g
             transform="translate(329.364,134.765)"
             id="g1436">
            <path
               style="stroke:none;stroke-width:0"
               d="m 4.234375,-1.90625 c 0.203125,0 0.390625,0 0.390625,-0.359375 0,-1.140625 -0.640625,-2.125 -1.9375,-2.125 -1.1875,0 -2.140625,1 -2.140625,2.234375 0,1.203125 1.015625,2.21875 2.296875,2.21875 1.3125,0 1.78125,-0.90625 1.78125,-1.15625 0,-0.265625 -0.28125,-0.265625 -0.34375,-0.265625 -0.1875,0 -0.265625,0.03125 -0.328125,0.21875 -0.21875,0.5 -0.765625,0.59375 -1.046875,0.59375 -0.75,0 -1.484375,-0.5 -1.65625,-1.359375 z M 1.265625,-2.5 C 1.40625,-3.234375 2,-3.78125 2.6875,-3.78125 c 0.515625,0 1.140625,0.25 1.234375,1.28125 z m 0,0"
               id="id-85a998e8-5b27-4222-b1b9-1c912addc4b4" />
          </g>
          <g
             transform="translate(334.594,134.765)"
             id="g1439">
            <path
               style="stroke:none;stroke-width:0"
               d="m 2.171875,-5.65625 c 0.03125,-0.46875 -0.3125,-0.546875 -0.4375,-0.546875 -0.1875,0 -0.484375,0.109375 -0.453125,0.546875 L 1.421875,-3.625 c 0,0.140625 0.03125,0.359375 0.3125,0.359375 0.25,0 0.296875,-0.1875 0.3125,-0.359375 z m 1.765625,0 C 3.96875,-6.125 3.625,-6.203125 3.5,-6.203125 c -0.1875,0 -0.484375,0.109375 -0.453125,0.546875 L 3.1875,-3.625 c 0,0.140625 0.03125,0.359375 0.3125,0.359375 0.25,0 0.296875,-0.1875 0.3125,-0.359375 z m 0,0"
               id="id-9cac7a41-371f-4b43-a420-f62b7f4d8a95" />
          </g>
        </g>
      </g>
      <g
         style="fill:#000000;fill-opacity:1"
         id="id-136a8e4e-b522-4883-806c-bde91c3cc0a5"
         transform="matrix(0.375579,0,0,0.375579,-46.149774,53.716939)">
        <g
           transform="translate(343.152,134.765)"
           id="g1443">
          <path
             style="stroke:none;stroke-width:0"
             d="M 0.375,-2.4375 C 0.296875,-2.296875 0.296875,-2.28125 0.296875,-2.078125 0.296875,-1.75 0.375,-1.6875 0.6875,-1.6875 h 2.515625 v 1.078125 h -0.625 c -0.15625,0 -0.390625,0 -0.390625,0.3125 C 2.1875,0 2.4375,0 2.578125,0 H 4.375 c 0.15625,0 0.40625,0 0.40625,-0.296875 0,-0.3125 -0.25,-0.3125 -0.40625,-0.3125 H 3.765625 V -1.6875 H 4.53125 c 0.15625,0 0.40625,0 0.40625,-0.296875 0,-0.3125 -0.25,-0.3125 -0.40625,-0.3125 H 3.765625 v -3.5 c 0,-0.328125 -0.078125,-0.40625 -0.421875,-0.40625 H 3.078125 c -0.25,0 -0.296875,0 -0.421875,0.203125 z m 0.609375,0.140625 2.21875,-3.46875 v 3.46875 z m 0,0"
             id="id-1514bcba-0af3-4b75-9700-c1f932c8a5ff" />
        </g>
        <g
           transform="translate(348.382,134.765)"
           id="g1446">
          <path
             style="stroke:none;stroke-width:0"
             d="m 2.609375,-3.59375 c -0.71875,0 -1.34375,-0.4375 -1.34375,-1 0,-0.515625 0.5625,-1 1.34375,-1 0.78125,0 1.34375,0.484375 1.34375,1 0,0.5625 -0.609375,1 -1.34375,1 z m 0.796875,0.3125 c 0.796875,-0.265625 1.234375,-0.75 1.234375,-1.328125 0,-0.8125 -0.84375,-1.59375 -2.03125,-1.59375 -1.1875,0 -2.03125,0.796875 -2.03125,1.59375 0,0.578125 0.453125,1.078125 1.25,1.328125 -0.75,0.203125 -1.390625,0.796875 -1.390625,1.546875 0,0.96875 0.921875,1.84375 2.171875,1.84375 1.265625,0 2.171875,-0.875 2.171875,-1.84375 0,-0.75 -0.640625,-1.34375 -1.375,-1.546875 z M 2.609375,-0.5 C 1.78125,-0.5 1.125,-1.0625 1.125,-1.75 c 0,-0.609375 0.578125,-1.234375 1.484375,-1.234375 0.921875,0 1.484375,0.625 1.484375,1.234375 0,0.6875 -0.65625,1.25 -1.484375,1.25 z m 0,0"
             id="id-80e4045a-3ace-4328-a020-ae4e9ffc6289" />
        </g>
      </g>
      <g
         style="fill:#000000;fill-opacity:1"
         id="id-7e6f9a7d-24ae-4b5d-b60a-1e0e28bd3b8b"
         transform="matrix(0.375579,0,0,0.375579,-53.25083,74.763295)">
        <g
           transform="translate(356.93,134.765)"
           id="g1450">
          <path
             style="stroke:none;stroke-width:0"
             d="m 2.21875,-3.6875 h 1.625 c 0.15625,0 0.40625,0 0.40625,-0.296875 0,-0.3125 -0.25,-0.3125 -0.40625,-0.3125 h -1.625 v -0.8125 c 0,-0.1875 0,-0.40625 -0.34375,-0.40625 -0.34375,0 -0.34375,0.203125 -0.34375,0.40625 v 0.8125 h -0.875 c -0.15625,0 -0.40625,0 -0.40625,0.3125 0,0.296875 0.25,0.296875 0.390625,0.296875 H 1.53125 V -1.25 c 0,0.953125 0.671875,1.3125 1.40625,1.3125 0.734375,0 1.53125,-0.4375 1.53125,-1.3125 0,-0.1875 0,-0.390625 -0.34375,-0.390625 -0.328125,0 -0.34375,0.203125 -0.34375,0.375 0,0.625 -0.578125,0.71875 -0.796875,0.71875 -0.765625,0 -0.765625,-0.515625 -0.765625,-0.765625 z m 0,0"
             id="id-140e6be2-bb25-4d29-8117-689ae709f163" />
        </g>
        <g
           transform="translate(362.161,134.765)"
           id="g1453">
          <path
             style="stroke:none;stroke-width:0"
             d="M 2.21875,-1.859375 C 2.21875,-2.796875 2.796875,-3.75 4,-3.75 c 0.015625,0.234375 0.1875,0.4375 0.4375,0.4375 0.21875,0 0.421875,-0.15625 0.421875,-0.421875 0,-0.203125 -0.125,-0.625 -0.953125,-0.625 -0.5,0 -1.140625,0.1875 -1.6875,0.8125 v -0.34375 c 0,-0.3125 -0.0625,-0.40625 -0.40625,-0.40625 H 0.71875 c -0.15625,0 -0.40625,0 -0.40625,0.296875 0,0.3125 0.25,0.3125 0.40625,0.3125 h 0.8125 v 3.078125 h -0.8125 c -0.15625,0 -0.40625,0 -0.40625,0.296875 C 0.3125,0 0.5625,0 0.71875,0 H 3.3125 c 0.15625,0 0.421875,0 0.421875,-0.296875 0,-0.3125 -0.265625,-0.3125 -0.421875,-0.3125 H 2.21875 Z m 0,0"
             id="id-9884e4f5-01c5-4741-b1f9-5353555623d4" />
        </g>
        <g
           transform="translate(367.391,134.765)"
           id="g1456">
          <path
             style="stroke:none;stroke-width:0"
             d="M 3.5625,-0.3125 C 3.578125,0 3.78125,0 3.96875,0 H 4.6875 c 0.171875,0 0.421875,0 0.421875,-0.3125 0,-0.296875 -0.265625,-0.296875 -0.40625,-0.296875 H 4.25 v -3.28125 c 0,-0.3125 -0.046875,-0.40625 -0.390625,-0.40625 H 3.125 c -0.15625,0 -0.40625,0 -0.40625,0.3125 0,0.296875 0.265625,0.296875 0.40625,0.296875 h 0.4375 v 2.125 c 0,0.890625 -0.796875,1.015625 -1.125,1.015625 -0.78125,0 -0.78125,-0.328125 -0.78125,-0.65625 v -2.6875 c 0,-0.3125 -0.0625,-0.40625 -0.40625,-0.40625 H 0.53125 c -0.15625,0 -0.40625,0 -0.40625,0.3125 0,0.296875 0.25,0.296875 0.390625,0.296875 H 0.96875 v 2.546875 c 0,0.96875 0.6875,1.203125 1.40625,1.203125 0.421875,0 0.828125,-0.109375 1.1875,-0.375 z m 0,0"
             id="id-74262018-f2f7-4031-9daa-6b5bb26c0887" />
        </g>
        <g
           transform="translate(372.621,134.765)"
           id="g1459">
          <path
             style="stroke:none;stroke-width:0"
             d="m 4.234375,-1.90625 c 0.203125,0 0.390625,0 0.390625,-0.359375 0,-1.140625 -0.640625,-2.125 -1.9375,-2.125 -1.1875,0 -2.140625,1 -2.140625,2.234375 0,1.203125 1.015625,2.21875 2.296875,2.21875 1.3125,0 1.78125,-0.90625 1.78125,-1.15625 0,-0.265625 -0.28125,-0.265625 -0.34375,-0.265625 -0.1875,0 -0.265625,0.03125 -0.328125,0.21875 -0.21875,0.5 -0.765625,0.59375 -1.046875,0.59375 -0.75,0 -1.484375,-0.5 -1.65625,-1.359375 z M 1.265625,-2.5 C 1.40625,-3.234375 2,-3.78125 2.6875,-3.78125 c 0.515625,0 1.140625,0.25 1.234375,1.28125 z m 0,0"
             id="id-41cee65f-9cbf-4eb0-b39d-ce0e6db2d89d" />
        </g>
      </g>
      <rect
         style="font-variation-settings:normal;opacity:1;vector-effect:none;fill:none;fill-opacity:1;fill-rule:evenodd;stroke:#000000;stroke-width:0.229136;stroke-linecap:butt;stroke-linejoin:miter;stroke-miterlimit:4;stroke-dasharray:none;stroke-dashoffset:0;stroke-opacity:1;stop-color:#000000;stop-opacity:1"
         id="rect1741"
         width="21.166666"
         height="15.874999"
         x="74.083336"
         y="74.083336" />
      <rect
         style="font-variation-settings:normal;opacity:1;vector-effect:none;fill:none;fill-opacity:1;fill-rule:evenodd;stroke:#000000;stroke-width:0.229136;stroke-linecap:butt;stroke-linejoin:miter;stroke-miterlimit:4;stroke-dasharray:none;stroke-dashoffset:0;stroke-opacity:1;stop-color:#000000;stop-opacity:1"
         id="rect2184"
         width="21.166666"
         height="15.875002"
         x="74.083336"
         y="95.25" />
      <rect
         style="font-variation-settings:normal;opacity:1;vector-effect:none;fill:none;fill-opacity:1;fill-rule:evenodd;stroke:#000000;stroke-width:0.229136;stroke-linecap:butt;stroke-linejoin:miter;stroke-miterlimit:4;stroke-dasharray:none;stroke-dashoffset:0;stroke-opacity:1;stop-color:#000000;stop-opacity:1"
         id="rect2388"
         width="21.166666"
         height="15.875006"
         x="74.083328"
         y="116.41666" />
      <path
         style="fill:none;stroke:#000000;stroke-width:0.264583px;stroke-linecap:butt;stroke-linejoin:miter;stroke-opacity:1;marker-end:url(#TriangleOutL)"
         d="M 50.270833,103.1875 72.760417,83.34375"
         id="path2601" />
    </g>
  </g>
</svg>
