<?xml version="1.0" encoding="UTF-8" standalone="no"?>
<!-- Created with Inkscape (http://www.inkscape.org/) -->

<svg
   width="90.222923mm"
   height="147.9529mm"
   viewBox="0 0 90.222923 147.9529"
   version="1.1"
   id="svg5"
   inkscape:version="1.1 (c4e8f9e, 2021-05-24)"
   sodipodi:docname="leaf_v_branch_node.svg"
   xmlns:inkscape="http://www.inkscape.org/namespaces/inkscape"
   xmlns:sodipodi="http://sodipodi.sourceforge.net/DTD/sodipodi-0.dtd"
   xmlns="http://www.w3.org/2000/svg"
   xmlns:svg="http://www.w3.org/2000/svg">
  <sodipodi:namedview
     id="namedview7"
     pagecolor="#ffffff"
     bordercolor="#666666"
     borderopacity="1.0"
     inkscape:pageshadow="2"
     inkscape:pageopacity="0.0"
     inkscape:pagecheckerboard="0"
     inkscape:document-units="mm"
     showgrid="false"
     inkscape:snap-global="true"
     inkscape:zoom="0.78741022"
     inkscape:cx="154.30331"
     inkscape:cy="282.5719"
     inkscape:window-width="1312"
     inkscape:window-height="847"
     inkscape:window-x="1874"
     inkscape:window-y="117"
     inkscape:window-maximized="0"
     inkscape:current-layer="layer1">
    <inkscape:grid
       type="xygrid"
       id="grid824"
       originx="-79.3316"
       originy="-286.07522" />
  </sodipodi:namedview>
  <defs
     id="defs2">
    <marker
       style="overflow:visible"
       id="DotM"
       refX="0"
       refY="0"
       orient="auto"
       inkscape:stockid="DotM"
       inkscape:isstock="true">
      <path
         transform="matrix(0.4,0,0,0.4,2.96,0.4)"
         style="fill:context-stroke;fill-rule:evenodd;stroke:context-stroke;stroke-width:1pt"
         d="m -2.5,-1 c 0,2.76 -2.24,5 -5,5 -2.76,0 -5,-2.24 -5,-5 0,-2.76 2.24,-5 5,-5 2.76,0 5,2.24 5,5 z"
         id="path1029" />
    </marker>
    <defs
       id="id-b6e70917-73bd-4911-abb0-f1d50955bab1">
      <g
         id="id-d0aab0f8-b646-4217-b5cd-6c8778debbd5">
        <symbol
           overflow="visible"
           id="id-f06c2843-c5cb-454c-afdd-f85060728c45">
          <path
             style="stroke:none;stroke-width:0"
             d=""
             id="id-30b8bb7b-2bc9-46ff-bf05-75e4521bb6c3" />
        </symbol>
        <symbol
           overflow="visible"
           id="id-115f0b5d-e0e8-4f6f-88fc-af53e8ef0256">
          <path
             style="stroke:none;stroke-width:0"
             d="m 6.640625,-6.75 h -6.09375 l -0.1875,2.25 h 0.25 C 0.75,-6.109375 0.890625,-6.4375 2.40625,-6.4375 c 0.171875,0 0.4375,0 0.53125,0.015625 0.21875,0.046875 0.21875,0.15625 0.21875,0.375 v 5.265625 c 0,0.328125 0,0.46875 -1.046875,0.46875 H 1.703125 V 0 C 2.109375,-0.03125 3.125,-0.03125 3.59375,-0.03125 c 0.453125,0 1.484375,0 1.890625,0.03125 v -0.3125 h -0.40625 c -1.046875,0 -1.046875,-0.140625 -1.046875,-0.46875 v -5.265625 c 0,-0.1875 0,-0.328125 0.1875,-0.375 0.109375,-0.015625 0.375,-0.015625 0.5625,-0.015625 1.515625,0 1.65625,0.328125 1.796875,1.9375 h 0.25 z m 0,0"
             id="id-fd81a457-ec45-497f-878c-2f0f4f14fb9b" />
        </symbol>
        <symbol
           overflow="visible"
           id="id-97a8bdbd-f6d2-49db-88e2-1016b693984e">
          <path
             style="stroke:none;stroke-width:0"
             d="M 1.671875,-3.3125 V -4.40625 L 0.28125,-4.296875 v 0.3125 c 0.703125,0 0.78125,0.0625 0.78125,0.5625 V -0.75 c 0,0.4375 -0.109375,0.4375 -0.78125,0.4375 V 0 c 0.390625,-0.015625 0.859375,-0.03125 1.140625,-0.03125 0.390625,0 0.859375,0 1.265625,0.03125 V -0.3125 H 2.46875 c -0.734375,0 -0.75,-0.109375 -0.75,-0.46875 V -2.3125 c 0,-0.984375 0.421875,-1.875 1.171875,-1.875 0.0625,0 0.09375,0 0.109375,0.015625 -0.03125,0 -0.234375,0.125 -0.234375,0.390625 0,0.265625 0.21875,0.421875 0.4375,0.421875 0.171875,0 0.421875,-0.125 0.421875,-0.4375 0,-0.3125 -0.3125,-0.609375 -0.734375,-0.609375 -0.734375,0 -1.09375,0.671875 -1.21875,1.09375 z m 0,0"
             id="id-c77042aa-b3e1-47da-bc56-3baeff85f89e" />
        </symbol>
        <symbol
           overflow="visible"
           id="id-d66e61d5-80c8-4088-afc8-0e811dce8718">
          <path
             style="stroke:none;stroke-width:0"
             d="M 1.109375,-2.515625 C 1.171875,-4 2.015625,-4.25 2.359375,-4.25 c 1.015625,0 1.125,1.34375 1.125,1.734375 z m 0,0.21875 h 2.78125 c 0.21875,0 0.25,0 0.25,-0.21875 0,-0.984375 -0.546875,-1.953125 -1.78125,-1.953125 -1.15625,0 -2.078125,1.03125 -2.078125,2.28125 0,1.328125 1.046875,2.296875 2.1875,2.296875 C 3.6875,0.109375 4.140625,-1 4.140625,-1.1875 4.140625,-1.28125 4.0625,-1.3125 4,-1.3125 c -0.078125,0 -0.109375,0.0625 -0.125,0.140625 -0.34375,1.03125 -1.25,1.03125 -1.34375,1.03125 -0.5,0 -0.890625,-0.296875 -1.125,-0.671875 -0.296875,-0.46875 -0.296875,-1.125 -0.296875,-1.484375 z m 0,0"
             id="id-592669f8-e7e2-4d83-a668-817c25e5ae69" />
        </symbol>
        <symbol
           overflow="visible"
           id="id-2672b554-5117-4151-b496-6598500a12e1">
          <path
             style="stroke:none;stroke-width:0"
             d="m 2.9375,-6.375 c 0,-0.25 0,-0.265625 -0.234375,-0.265625 C 2.078125,-6 1.203125,-6 0.890625,-6 v 0.3125 c 0.203125,0 0.78125,0 1.296875,-0.265625 v 5.171875 c 0,0.359375 -0.03125,0.46875 -0.921875,0.46875 h -0.3125 V 0 c 0.34375,-0.03125 1.203125,-0.03125 1.609375,-0.03125 0.390625,0 1.265625,0 1.609375,0.03125 v -0.3125 h -0.3125 c -0.90625,0 -0.921875,-0.109375 -0.921875,-0.46875 z m 0,0"
             id="id-aa015488-602e-47b7-bfe7-cade3c92e565" />
        </symbol>
        <symbol
           overflow="visible"
           id="id-ced77e6f-e176-493f-9ce5-b6d45c878979">
          <path
             style="stroke:none;stroke-width:0"
             d="m 1.265625,-0.765625 1.0625,-1.03125 c 1.546875,-1.375 2.140625,-1.90625 2.140625,-2.90625 0,-1.140625 -0.890625,-1.9375 -2.109375,-1.9375 -1.125,0 -1.859375,0.921875 -1.859375,1.8125 0,0.546875 0.5,0.546875 0.53125,0.546875 0.171875,0 0.515625,-0.109375 0.515625,-0.53125 0,-0.25 -0.1875,-0.515625 -0.53125,-0.515625 -0.078125,0 -0.09375,0 -0.125,0.015625 0.21875,-0.65625 0.765625,-1.015625 1.34375,-1.015625 0.90625,0 1.328125,0.8125 1.328125,1.625 C 3.5625,-3.90625 3.078125,-3.125 2.515625,-2.5 l -1.90625,2.125 C 0.5,-0.265625 0.5,-0.234375 0.5,0 H 4.203125 L 4.46875,-1.734375 H 4.234375 C 4.171875,-1.4375 4.109375,-1 4,-0.84375 3.9375,-0.765625 3.28125,-0.765625 3.0625,-0.765625 Z m 0,0"
             id="id-be9caaa5-a451-4f38-a864-2ffd7d97070d" />
        </symbol>
        <symbol
           overflow="visible"
           id="id-75b41ecc-5e49-4a73-beea-60019661b8c8">
          <path
             style="stroke:none;stroke-width:0"
             d="m 2.890625,-3.515625 c 0.8125,-0.265625 1.390625,-0.953125 1.390625,-1.75 0,-0.8125 -0.875,-1.375 -1.828125,-1.375 -1,0 -1.765625,0.59375 -1.765625,1.359375 0,0.328125 0.21875,0.515625 0.515625,0.515625 0.296875,0 0.5,-0.21875 0.5,-0.515625 0,-0.484375 -0.46875,-0.484375 -0.609375,-0.484375 0.296875,-0.5 0.953125,-0.625 1.3125,-0.625 0.421875,0 0.96875,0.21875 0.96875,1.109375 0,0.125 -0.03125,0.703125 -0.28125,1.140625 C 2.796875,-3.65625 2.453125,-3.625 2.203125,-3.625 2.125,-3.609375 1.890625,-3.59375 1.8125,-3.59375 c -0.078125,0.015625 -0.140625,0.03125 -0.140625,0.125 0,0.109375 0.0625,0.109375 0.234375,0.109375 h 0.4375 c 0.8125,0 1.1875,0.671875 1.1875,1.65625 0,1.359375 -0.6875,1.640625 -1.125,1.640625 -0.4375,0 -1.1875,-0.171875 -1.53125,-0.75 0.34375,0.046875 0.65625,-0.171875 0.65625,-0.546875 0,-0.359375 -0.265625,-0.5625 -0.546875,-0.5625 -0.25,0 -0.5625,0.140625 -0.5625,0.578125 0,0.90625 0.921875,1.5625 2.015625,1.5625 1.21875,0 2.125,-0.90625 2.125,-1.921875 0,-0.8125 -0.640625,-1.59375 -1.671875,-1.8125 z m 0,0"
             id="id-4075a2c6-1659-44eb-8fc6-6711b5fa1b63" />
        </symbol>
        <symbol
           overflow="visible"
           id="id-8394daca-b0d6-4001-948f-9844e20a7444">
          <path
             style="stroke:none;stroke-width:0"
             d="m 2.9375,-1.640625 v 0.859375 c 0,0.359375 -0.03125,0.46875 -0.765625,0.46875 H 1.96875 V 0 C 2.375,-0.03125 2.890625,-0.03125 3.3125,-0.03125 c 0.421875,0 0.9375,0 1.359375,0.03125 v -0.3125 h -0.21875 c -0.734375,0 -0.75,-0.109375 -0.75,-0.46875 V -1.640625 H 4.6875 v -0.3125 H 3.703125 v -4.53125 c 0,-0.203125 0,-0.265625 -0.171875,-0.265625 -0.078125,0 -0.109375,0 -0.1875,0.125 l -3.0625,4.671875 v 0.3125 z m 0.046875,-0.3125 H 0.5625 l 2.421875,-3.71875 z m 0,0"
             id="id-1ee5ad2b-3397-47cb-922c-ea22bce0b09c" />
        </symbol>
        <symbol
           overflow="visible"
           id="id-a5ad2a20-94fa-406b-9c5a-e7c51d188a22">
          <path
             style="stroke:none;stroke-width:0"
             d="m 4.46875,-2 c 0,-1.1875 -0.8125,-2.1875 -1.890625,-2.1875 -0.46875,0 -0.90625,0.15625 -1.265625,0.515625 V -5.625 c 0.203125,0.0625 0.53125,0.125 0.84375,0.125 1.234375,0 1.9375,-0.90625 1.9375,-1.03125 0,-0.0625 -0.03125,-0.109375 -0.109375,-0.109375 0,0 -0.03125,0 -0.078125,0.03125 C 3.703125,-6.515625 3.21875,-6.3125 2.546875,-6.3125 2.15625,-6.3125 1.6875,-6.390625 1.21875,-6.59375 1.140625,-6.625 1.125,-6.625 1.109375,-6.625 1,-6.625 1,-6.546875 1,-6.390625 V -3.4375 c 0,0.171875 0,0.25 0.140625,0.25 0.078125,0 0.09375,-0.015625 0.140625,-0.078125 C 1.390625,-3.421875 1.75,-3.96875 2.5625,-3.96875 c 0.515625,0 0.765625,0.453125 0.84375,0.640625 0.15625,0.375 0.1875,0.75 0.1875,1.25 0,0.359375 0,0.953125 -0.25,1.375 C 3.109375,-0.3125 2.734375,-0.0625 2.28125,-0.0625 c -0.71875,0 -1.296875,-0.53125 -1.46875,-1.109375 0.03125,0 0.0625,0.015625 0.171875,0.015625 0.328125,0 0.5,-0.25 0.5,-0.484375 0,-0.25 -0.171875,-0.5 -0.5,-0.5 C 0.84375,-2.140625 0.5,-2.0625 0.5,-1.609375 0.5,-0.75 1.1875,0.21875 2.296875,0.21875 3.453125,0.21875 4.46875,-0.734375 4.46875,-2 Z m 0,0"
             id="id-28afaf47-a991-43c3-9598-55928d3b79af" />
        </symbol>
        <symbol
           overflow="visible"
           id="id-13860cb8-045c-4980-958b-a80a60dfbb43">
          <path
             style="stroke:none;stroke-width:0"
             d="m 1.3125,-3.265625 v -0.25 c 0,-2.515625 1.234375,-2.875 1.75,-2.875 0.234375,0 0.65625,0.0625 0.875,0.40625 -0.15625,0 -0.546875,0 -0.546875,0.4375 0,0.3125 0.234375,0.46875 0.453125,0.46875 0.15625,0 0.46875,-0.09375 0.46875,-0.484375 0,-0.59375 -0.4375,-1.078125 -1.265625,-1.078125 -1.28125,0 -2.625,1.28125 -2.625,3.484375 0,2.671875 1.15625,3.375 2.078125,3.375 1.109375,0 2.0625,-0.9375 2.0625,-2.25 0,-1.265625 -0.890625,-2.21875 -2,-2.21875 -0.671875,0 -1.046875,0.5 -1.25,0.984375 z M 2.5,-0.0625 c -0.625,0 -0.921875,-0.59375 -0.984375,-0.75 -0.1875,-0.46875 -0.1875,-1.265625 -0.1875,-1.4375 0,-0.78125 0.328125,-1.78125 1.21875,-1.78125 0.171875,0 0.625,0 0.9375,0.625 0.171875,0.359375 0.171875,0.875 0.171875,1.359375 0,0.484375 0,0.984375 -0.171875,1.34375 C 3.1875,-0.109375 2.734375,-0.0625 2.5,-0.0625 Z m 0,0"
             id="id-aa5e04af-8bc0-4f6a-9643-c47f04da492d" />
        </symbol>
      </g>
    </defs>
  </defs>
  <g
     inkscape:label="Layer 1"
     inkscape:groupmode="layer"
     id="layer1"
     transform="translate(-26.443868,-95.358411)">
    <g
       id="g4303">
      <path
         style="color:#000000;fill:#000000;-inkscape-stroke:none"
         d="m 34.513009,113.39584 -5.478516,5.48047 0.375,0.37305 5.105469,-5.10352 5.103515,5.10352 0.373047,-0.37305 z"
         id="path3775" />
      <path
         style="color:#000000;fill:#ccff42;fill-rule:evenodd;stroke-width:0.211667pt;-inkscape-stroke:none"
         d="m 40.538713,119.7959 c -0.413092,0.41309 -1.083617,0.41309 -1.496709,0 -0.413092,-0.41309 -0.413092,-1.08362 0,-1.49671 0.413092,-0.41309 1.083618,-0.41309 1.49671,0 0.413092,0.41309 0.413091,1.08362 -10e-7,1.49671 z"
         id="path3769" />
      <path
         style="color:#000000;fill:#000000;fill-rule:evenodd;-inkscape-stroke:none"
         d="m 39.790352,117.84897 c -0.307296,-10e-6 -0.614115,0.11607 -0.847656,0.3496 -0.46708,0.46708 -0.46708,1.23019 0,1.69727 0.467079,0.46708 1.228233,0.46708 1.695313,0 0.467079,-0.46708 0.467081,-1.23019 0,-1.69727 -0.233539,-0.23353 -0.540359,-0.3496 -0.847657,-0.3496 z m 0,0.28125 c 0.234511,0 0.468886,0.09 0.648438,0.26953 0.359103,0.3591 0.359103,0.93777 0,1.29687 -0.359104,0.3591 -0.937771,0.3591 -1.296875,0 -0.359102,-0.3591 -0.359102,-0.93777 0,-1.29687 0.179552,-0.17955 0.413926,-0.26953 0.648437,-0.26953 z"
         id="path3771" />
      <path
         style="color:#000000;fill:#804d00;fill-rule:evenodd;stroke-width:0.211667pt;-inkscape-stroke:none"
         d="m 35.550826,113.77084 c 0,0.5842 -0.474133,1.05833 -1.058334,1.05833 -0.584199,0 -1.058332,-0.47413 -1.058332,-1.05833 0,-0.5842 0.474133,-1.05833 1.058332,-1.05833 0.584201,0 1.058334,0.47413 1.058334,1.05833 z"
         id="path3759" />
      <path
         style="color:#000000;fill:#000000;fill-rule:evenodd;-inkscape-stroke:none"
         d="m 34.491524,112.57162 c -0.660549,0 -1.199219,0.53867 -1.199219,1.19922 0,0.66055 0.538671,1.19922 1.199219,1.19922 0.660549,0 1.201172,-0.53867 1.201172,-1.19922 0,-0.66055 -0.540623,-1.19922 -1.201172,-1.19922 z m 0,0.28125 c 0.507851,0 0.917969,0.41012 0.917969,0.91797 0,0.50785 -0.410118,0.91797 -0.917969,0.91797 -0.507849,0 -0.916015,-0.41012 -0.916015,-0.91797 0,-0.50785 0.408165,-0.91797 0.916015,-0.91797 z"
         id="path3761" />
      <path
         style="color:#000000;fill:#ccff42;fill-rule:evenodd;stroke-width:0.211667pt;-inkscape-stroke:none"
         d="m 29.95538,118.32912 c 0.413092,0.41309 0.413094,1.08362 10e-7,1.49671 -0.413092,0.41309 -1.083618,0.41309 -1.49671,0 -0.413091,-0.41309 -0.413092,-1.08362 0,-1.49671 0.413092,-0.41309 1.083617,-0.41309 1.496709,0 z"
         id="path3749" />
      <path
         style="color:#000000;fill:#000000;fill-rule:evenodd;-inkscape-stroke:none"
         d="m 29.206368,117.87826 c -0.307296,0 -0.614117,0.11803 -0.847656,0.35156 -0.46708,0.46708 -0.467079,1.22824 0,1.69532 0.467079,0.46707 1.230187,0.46707 1.697265,0 0.467081,-0.46708 0.467081,-1.22824 0,-1.69532 -0.233539,-0.23353 -0.542312,-0.35156 -0.849609,-0.35156 z m 0,0.28125 c 0.234511,0 0.468886,0.09 0.648437,0.26953 0.359105,0.3591 0.359105,0.93778 0,1.29688 -0.359102,0.3591 -0.937771,0.3591 -1.296875,0 -0.359102,-0.3591 -0.359103,-0.93778 0,-1.29688 0.179553,-0.17955 0.413928,-0.26953 0.648438,-0.26953 z"
         id="path3751" />
      <rect
         style="font-variation-settings:normal;vector-effect:none;fill:none;fill-opacity:1;fill-rule:evenodd;stroke:#000000;stroke-width:0.264583;stroke-linecap:butt;stroke-linejoin:miter;stroke-miterlimit:4;stroke-dasharray:none;stroke-dashoffset:0;stroke-opacity:1;stop-color:#000000"
         id="rect4826"
         width="15.874997"
         height="10.583333"
         x="26.57616"
         y="111.125"
         ry="0.13229166" />
      <path
         style="fill:#000000;fill-opacity:1;stroke:none;stroke-width:0"
         d="m 30.983317,106.22015 h -3.073535 l -0.09457,1.13484 h 0.126093 c 0.07093,-0.81173 0.141856,-0.97722 0.906299,-0.97722 0.08669,0 0.220664,0 0.267949,0.008 0.110332,0.0236 0.110332,0.0788 0.110332,0.18914 v 2.65585 c 0,0.1655 0,0.23642 -0.528017,0.23642 h -0.204902 v 0.15762 c 0.204902,-0.0158 0.717158,-0.0158 0.953584,-0.0158 0.228544,0 0.748681,0 0.953583,0.0158 v -0.15762 h -0.204902 c -0.528017,0 -0.528017,-0.0709 -0.528017,-0.23642 v -2.65585 c 0,-0.0946 0,-0.1655 0.09457,-0.18914 0.05517,-0.008 0.189141,-0.008 0.283711,-0.008 0.764443,0 0.835371,0.16549 0.906299,0.97722 h 0.126093 z m 0,0"
         id="id-63de67ab-0d49-4819-8333-8415be3e433a" />
      <path
         style="fill:#000000;fill-opacity:1;stroke:none;stroke-width:0"
         d="m 31.689064,107.95394 v -0.55166 l -0.701397,0.0552 v 0.15762 c 0.354639,0 0.394043,0.0315 0.394043,0.28371 v 1.34763 c 0,0.22066 -0.05517,0.22066 -0.394043,0.22066 v 0.15762 c 0.197022,-0.008 0.433448,-0.0158 0.575303,-0.0158 0.197022,0 0.433447,0 0.63835,0.0158 v -0.15762 h -0.110332 c -0.370401,0 -0.378282,-0.0552 -0.378282,-0.23642 v -0.77233 c 0,-0.49649 0.212784,-0.9457 0.591065,-0.9457 0.03152,0 0.04728,0 0.05517,0.008 -0.01576,0 -0.118213,0.0631 -0.118213,0.19702 0,0.13398 0.110332,0.21279 0.220664,0.21279 0.08669,0 0.212783,-0.0631 0.212783,-0.22067 0,-0.15762 -0.157617,-0.30735 -0.3704,-0.30735 -0.3704,0 -0.55166,0.33887 -0.614707,0.55166 z m 0,0"
         id="id-b472653d-45f1-4faf-aedc-2b4f1bb7f582" />
      <path
         style="fill:#000000;fill-opacity:1;stroke:none;stroke-width:0"
         d="m 33.373424,108.35586 c 0.03152,-0.74868 0.45709,-0.87477 0.630469,-0.87477 0.512256,0 0.567422,0.67775 0.567422,0.87477 z m 0,0.11033 h 1.402793 c 0.110332,0 0.126094,0 0.126094,-0.11033 0,-0.49649 -0.27583,-0.98511 -0.898418,-0.98511 -0.583184,0 -1.048155,0.52014 -1.048155,1.15061 0,0.66987 0.528018,1.15849 1.103321,1.15849 0.614707,0 0.843252,-0.55954 0.843252,-0.65412 0,-0.0473 -0.03941,-0.063 -0.07093,-0.063 -0.0394,0 -0.05517,0.0315 -0.06305,0.0709 -0.173379,0.52013 -0.630469,0.52013 -0.677754,0.52013 -0.252187,0 -0.449209,-0.14973 -0.567422,-0.33887 -0.149736,-0.23643 -0.149736,-0.56743 -0.149736,-0.74869 z m 0,0"
         id="id-3768a1d7-4533-42dc-af11-c958bc81b473" />
      <path
         style="fill:#000000;fill-opacity:1;stroke:none;stroke-width:0"
         d="m 35.606292,108.35586 c 0.03152,-0.74868 0.45709,-0.87477 0.630469,-0.87477 0.512256,0 0.567422,0.67775 0.567422,0.87477 z m 0,0.11033 h 1.402793 c 0.110332,0 0.126094,0 0.126094,-0.11033 0,-0.49649 -0.27583,-0.98511 -0.898418,-0.98511 -0.583184,0 -1.048155,0.52014 -1.048155,1.15061 0,0.66987 0.528018,1.15849 1.103321,1.15849 0.614707,0 0.843252,-0.55954 0.843252,-0.65412 0,-0.0473 -0.03941,-0.063 -0.07093,-0.063 -0.0394,0 -0.05517,0.0315 -0.06305,0.0709 -0.173379,0.52013 -0.630469,0.52013 -0.677754,0.52013 -0.252187,0 -0.449209,-0.14973 -0.567422,-0.33887 -0.149736,-0.23643 -0.149736,-0.56743 -0.149736,-0.74869 z m 0,0"
         id="id-b354ba0c-69ee-4f2d-a2e6-40e1fda785ef" />
      <path
         style="fill:#000000;fill-opacity:1;stroke:none;stroke-width:0"
         d="m 39.596529,109.23852 0.535898,-0.52014 c 0.780205,-0.69351 1.079678,-0.96146 1.079678,-1.46584 0,-0.5753 -0.449209,-0.97723 -1.063916,-0.97723 -0.567422,0 -0.937823,0.46498 -0.937823,0.91418 0,0.27583 0.252188,0.27583 0.26795,0.27583 0.08669,0 0.260068,-0.0552 0.260068,-0.26794 0,-0.1261 -0.09457,-0.26007 -0.267949,-0.26007 -0.0394,0 -0.04729,0 -0.06305,0.008 0.110332,-0.331 0.386162,-0.51226 0.677754,-0.51226 0.45709,0 0.669873,0.40981 0.669873,0.81961 0,0.40193 -0.244307,0.79597 -0.528018,1.1112 l -0.961465,1.0718 c -0.05517,0.0552 -0.05517,0.0709 -0.05517,0.18914 h 1.867764 l 0.133975,-0.87478 h -0.118213 c -0.03152,0.14974 -0.06305,0.37041 -0.118213,0.44921 -0.03152,0.0394 -0.36252,0.0394 -0.472852,0.0394 z m 0,0"
         id="id-d46364f6-0ebd-400f-b9c8-0c3589c13560" />
      <path
         style="color:#000000;fill:#000000;-inkscape-stroke:none"
         d="m 105.95051,105.73739 -10.76953,10.77149 -5.291015,5.29101 0.373047,0.37305 5.291015,-5.29101 10.396483,-10.39649 5.10547,5.10547 0.37305,-0.375 z"
         id="path2164" />
      <path
         style="color:#000000;fill:#000000;fill-rule:evenodd;stroke-width:0.211667pt;-inkscape-stroke:none"
         d="m 89.342775,122.72013 c -0.413092,-0.41309 -0.413092,-1.08362 0,-1.49671 0.413091,-0.41309 1.083618,-0.41309 1.49671,0 0.413092,0.41309 0.413092,1.08362 10e-7,1.49671 -0.413092,0.41309 -1.083618,0.41309 -1.496711,0 z"
         id="path2158" />
      <path
         style="color:#000000;fill:#000000;fill-rule:evenodd;-inkscape-stroke:none"
         d="m 90.091137,120.77255 c -0.307298,0 -0.614117,0.11802 -0.847657,0.35156 -0.46708,0.46708 -0.46708,1.22824 0,1.69532 0.467081,0.46707 1.228234,0.46707 1.695313,0 0.467079,-0.46708 0.46708,-1.22824 0,-1.69532 -0.23354,-0.23354 -0.540359,-0.35156 -0.847656,-0.35156 z m 0,0.28125 c 0.234511,0 0.468885,0.09 0.648437,0.26953 0.359103,0.3591 0.359102,0.93778 0,1.29688 -0.359104,0.3591 -0.93777,0.3591 -1.296875,0 -0.359103,-0.3591 -0.359103,-0.93778 0,-1.29688 0.179551,-0.17955 0.413927,-0.26953 0.648438,-0.26953 z"
         id="path2160" />
      <path
         style="color:#000000;fill:#ffc022;fill-rule:evenodd;stroke-width:0.211667pt;-inkscape-stroke:none"
         d="m 94.63444,117.42846 c -0.413092,-0.41309 -0.413092,-1.08362 0,-1.49671 0.413092,-0.41309 1.083618,-0.41309 1.49671,0 0.413092,0.41309 0.413092,1.08362 0,1.49671 -0.413092,0.41309 -1.083618,0.41309 -1.49671,0 z"
         id="path2148" />
      <path
         style="color:#000000;fill:#000000;fill-rule:evenodd;-inkscape-stroke:none"
         d="m 95.382152,115.48153 c -0.307297,0 -0.614116,0.11608 -0.847656,0.34961 -0.46708,0.46708 -0.46708,1.23019 0,1.69727 0.467079,0.46708 1.230186,0.46708 1.697266,0 0.46708,-0.46708 0.46708,-1.23019 0,-1.69727 -0.23354,-0.23353 -0.542312,-0.34961 -0.84961,-0.34961 z m 0,0.28125 c 0.234511,0 0.468886,0.09 0.648438,0.26954 0.359103,0.3591 0.359103,0.93777 0,1.29687 -0.359104,0.3591 -0.937771,0.3591 -1.296875,0 -0.359104,-0.3591 -0.359104,-0.93777 0,-1.29687 0.179552,-0.17955 0.413926,-0.26954 0.648437,-0.26954 z"
         id="path2150" />
      <path
         style="color:#000000;fill:#804d00;fill-rule:evenodd;stroke-width:0.211667pt;-inkscape-stroke:none"
         d="m 104.914,106.11174 c 0,-0.5842 0.47413,-1.05833 1.05833,-1.05833 0.5842,0 1.05833,0.47413 1.05833,1.05833 0,0.5842 -0.47413,1.05833 -1.05833,1.05833 -0.5842,0 -1.05833,-0.47413 -1.05833,-1.05833 z"
         id="path2138" />
      <path
         style="color:#000000;fill:#000000;fill-rule:evenodd;-inkscape-stroke:none"
         d="m 105.972,104.91318 c -0.66055,0 -1.19922,0.53866 -1.19922,1.19921 0,0.66055 0.53867,1.19922 1.19922,1.19922 0.66055,0 1.19922,-0.53867 1.19922,-1.19922 0,-0.66055 -0.53867,-1.19921 -1.19922,-1.19921 z m 0,0.28125 c 0.50785,0 0.91797,0.41012 0.91797,0.91796 0,0.50785 -0.41012,0.91602 -0.91797,0.91602 -0.50785,0 -0.91602,-0.40817 -0.91602,-0.91602 0,-0.50785 0.40817,-0.91796 0.91602,-0.91796 z"
         id="path2140" />
      <path
         style="color:#000000;fill:#9ade00;fill-rule:evenodd;stroke-width:0.211667pt;-inkscape-stroke:none"
         d="m 110.50944,110.67002 c 0.41309,-0.41309 1.08362,-0.41309 1.49671,0 0.41309,0.41309 0.41309,1.08362 0,1.49671 -0.41309,0.41309 -1.08362,0.41309 -1.49671,0 -0.41309,-0.41309 -0.41309,-1.08362 0,-1.49671 z"
         id="path2128" />
      <path
         style="color:#000000;fill:#000000;fill-rule:evenodd;-inkscape-stroke:none"
         d="m 111.25715,110.21982 c -0.30729,0 -0.61411,0.11607 -0.84765,0.34961 -0.46708,0.46707 -0.46708,1.23018 0,1.69726 0.46708,0.46708 1.23018,0.46708 1.69726,0 0.46708,-0.46708 0.46708,-1.23019 0,-1.69726 -0.23354,-0.23354 -0.54231,-0.34961 -0.84961,-0.34961 z m 0,0.28125 c 0.23451,0 0.46889,0.09 0.64844,0.26953 0.3591,0.3591 0.3591,0.93777 0,1.29687 -0.3591,0.3591 -0.93777,0.3591 -1.29687,0 -0.35911,-0.3591 -0.35911,-0.93777 0,-1.29687 0.17955,-0.17955 0.41392,-0.26953 0.64843,-0.26953 z"
         id="path2130" />
      <path
         style="color:#000000;fill:#000000;-inkscape-stroke:none"
         d="m 100.847,111.21591 -0.375,0.375 5.29297,5.29102 0.37304,-0.37305 z"
         id="path2192" />
      <path
         style="color:#000000;fill:#9ade00;fill-rule:evenodd;stroke-width:0.211667pt;-inkscape-stroke:none"
         d="m 106.68455,117.42847 c -0.41309,0.41309 -1.08362,0.41309 -1.49671,0 -0.41309,-0.41309 -0.41309,-1.08362 0,-1.49671 0.41309,-0.41309 1.08362,-0.41309 1.49671,0 0.41309,0.41309 0.41309,1.08362 0,1.49671 z"
         id="path2186" />
      <path
         style="color:#000000;fill:#000000;fill-rule:evenodd;-inkscape-stroke:none"
         d="m 105.93684,115.48153 c -0.3073,0 -0.61607,0.11608 -0.84961,0.34961 -0.46708,0.46708 -0.46708,1.23019 0,1.69727 0.46708,0.46708 1.23019,0.46708 1.69727,0 0.46708,-0.46708 0.46708,-1.23019 0,-1.69727 -0.23354,-0.23353 -0.54036,-0.34961 -0.84766,-0.34961 z m 0,0.28125 c 0.23451,0 0.46889,0.09 0.64844,0.26954 0.3591,0.3591 0.3591,0.93777 0,1.29687 -0.35911,0.3591 -0.93777,0.3591 -1.29688,0 -0.3591,-0.3591 -0.3591,-0.93777 0,-1.29687 0.17955,-0.17955 0.41393,-0.26954 0.64844,-0.26954 z"
         id="path2188" />
      <path
         style="color:#000000;fill:#804d00;fill-rule:evenodd;stroke-width:0.211667pt;-inkscape-stroke:none"
         d="m 101.39288,112.1368 c -0.41309,0.41309 -1.08361,0.41309 -1.496706,0 -0.413092,-0.41309 -0.413092,-1.08362 0,-1.49671 0.413096,-0.41309 1.083616,-0.41309 1.496706,0 0.4131,0.41309 0.4131,1.08362 0,1.49671 z"
         id="path2176" />
      <path
         style="color:#000000;fill:#000000;fill-rule:evenodd;-inkscape-stroke:none"
         d="m 100.64387,110.19052 c -0.3073,0 -0.61412,0.11607 -0.847655,0.34961 -0.46708,0.46708 -0.46708,1.23019 0,1.69726 0.467075,0.46708 1.230185,0.46708 1.697265,0 0.46708,-0.46707 0.46708,-1.23018 0,-1.69726 -0.23354,-0.23354 -0.54231,-0.34961 -0.84961,-0.34961 z m 0,0.2793 c 0.23451,0 0.46889,0.09 0.64844,0.26953 0.3591,0.3591 0.3591,0.93777 0,1.29687 -0.3591,0.3591 -0.93777,0.3591 -1.296877,0 -0.359103,-0.3591 -0.359103,-0.93777 0,-1.29687 0.179557,-0.17955 0.413927,-0.26953 0.648437,-0.26953 z"
         id="path2178" />
      <path
         style="color:#000000;fill:#000000;-inkscape-stroke:none"
         d="m 89.889965,121.79989 -5.292969,5.29102 0.375,0.375 5.291016,-5.29297 z"
         id="path2220" />
      <path
         style="color:#000000;fill:#9ade00;fill-rule:evenodd;stroke-width:0.211667pt;-inkscape-stroke:none"
         d="m 84.051108,128.0118 c -0.413092,-0.41309 -0.413092,-1.08362 0,-1.49671 0.413092,-0.41309 1.083618,-0.41309 1.49671,0 0.413092,0.41309 0.413092,1.08362 0,1.49671 -0.413091,0.41309 -1.083618,0.41309 -1.49671,0 z"
         id="path2214" />
      <path
         style="color:#000000;fill:#000000;fill-rule:evenodd;-inkscape-stroke:none"
         d="m 84.800121,126.06552 c -0.307298,0 -0.61607,0.11607 -0.849609,0.34961 -0.46708,0.46708 -0.46708,1.23019 0,1.69726 0.467079,0.46708 1.230187,0.46708 1.697265,0 0.46708,-0.46707 0.46708,-1.23018 0,-1.69726 -0.233539,-0.23354 -0.540358,-0.34961 -0.847656,-0.34961 z m 0,0.2793 c 0.234511,0 0.468886,0.09 0.648437,0.26953 0.359104,0.3591 0.359104,0.93777 0,1.29687 -0.359102,0.3591 -0.937771,0.3591 -1.296875,0 -0.359103,-0.3591 -0.359103,-0.93777 0,-1.29687 0.179552,-0.17955 0.413927,-0.26953 0.648438,-0.26953 z"
         id="path2216" />
      <path
         style="color:#000000;fill:#ffc022;fill-rule:evenodd;stroke-width:0.211667pt;-inkscape-stroke:none"
         d="m 89.342775,122.72013 c -0.413092,-0.41309 -0.413092,-1.08362 0,-1.49671 0.413092,-0.41309 1.083618,-0.41309 1.49671,0 0.413092,0.41309 0.413092,1.08362 0,1.49671 -0.413091,0.41309 -1.083618,0.41309 -1.49671,0 z"
         id="path2204" />
      <path
         style="color:#000000;fill:#000000;fill-rule:evenodd;-inkscape-stroke:none"
         d="m 90.091137,120.77255 c -0.307298,0 -0.614117,0.11802 -0.847657,0.35156 -0.46708,0.46708 -0.46708,1.22824 0,1.69532 0.46708,0.46707 1.228234,0.46707 1.695313,0 0.46708,-0.46708 0.46708,-1.22824 0,-1.69532 -0.23354,-0.23354 -0.540359,-0.35156 -0.847656,-0.35156 z m 0,0.28125 c 0.234511,0 0.468885,0.09 0.648437,0.26953 0.359103,0.3591 0.359103,0.93778 0,1.29688 -0.359103,0.3591 -0.937771,0.3591 -1.296875,0 -0.359103,-0.3591 -0.359103,-0.93778 0,-1.29688 0.179552,-0.17955 0.413927,-0.26953 0.648438,-0.26953 z"
         id="path2206" />
      <rect
         style="font-variation-settings:normal;vector-effect:none;fill:none;fill-opacity:1;fill-rule:evenodd;stroke:#000000;stroke-width:0.264583;stroke-linecap:butt;stroke-linejoin:miter;stroke-miterlimit:4;stroke-dasharray:none;stroke-dashoffset:0;stroke-opacity:1;stop-color:#000000"
         id="rect1998"
         width="37.041668"
         height="31.75"
         x="79.492828"
         y="100.82007"
         ry="0.13229166" />
      <path
         style="fill:#000000;fill-opacity:1;stroke:none;stroke-width:0"
         d="m 94.461949,95.35841 h -3.073535 l -0.09457,1.13484 h 0.126093 c 0.07093,-0.81173 0.141856,-0.97722 0.906299,-0.97722 0.08669,0 0.220664,0 0.267949,0.008 0.110332,0.0236 0.110332,0.0788 0.110332,0.18914 v 2.65585 c 0,0.1655 0,0.23642 -0.528017,0.23642 h -0.204902 v 0.15762 c 0.204902,-0.0158 0.717158,-0.0158 0.953584,-0.0158 0.228544,0 0.748681,0 0.953583,0.0158 v -0.15762 h -0.204902 c -0.528017,0 -0.528017,-0.0709 -0.528017,-0.23642 v -2.65585 c 0,-0.0946 0,-0.1655 0.09457,-0.18914 0.05517,-0.008 0.189141,-0.008 0.283711,-0.008 0.764443,0 0.835371,0.16549 0.906299,0.97722 h 0.126093 z m 0,0"
         id="id-cc852dce-ea93-42d7-9279-3fcf1ac9de1a" />
      <path
         style="fill:#000000;fill-opacity:1;stroke:none;stroke-width:0"
         d="m 95.167695,97.0922 v -0.55166 l -0.701397,0.0552 v 0.15762 c 0.354639,0 0.394043,0.0315 0.394043,0.28371 v 1.34763 c 0,0.22066 -0.05517,0.22066 -0.394043,0.22066 v 0.15762 c 0.197022,-0.008 0.433448,-0.0158 0.575303,-0.0158 0.197022,0 0.433447,0 0.63835,0.0158 v -0.15762 h -0.110332 c -0.370401,0 -0.378282,-0.0552 -0.378282,-0.23642 v -0.77233 c 0,-0.49649 0.212784,-0.9457 0.591065,-0.9457 0.03152,0 0.04729,0 0.05517,0.008 -0.01576,0 -0.118213,0.0631 -0.118213,0.19702 0,0.13398 0.110332,0.21279 0.220664,0.21279 0.08669,0 0.212783,-0.0631 0.212783,-0.22067 0,-0.15762 -0.157617,-0.30735 -0.3704,-0.30735 -0.3704,0 -0.55166,0.33887 -0.614707,0.55166 z m 0,0"
         id="id-1823a561-7d43-44bc-81ec-ddbc56b3e495" />
      <path
         style="fill:#000000;fill-opacity:1;stroke:none;stroke-width:0"
         d="m 96.85256,97.49412 c 0.03152,-0.74868 0.45709,-0.87477 0.630469,-0.87477 0.512256,0 0.567422,0.67775 0.567422,0.87477 z m 0,0.11033 h 1.402793 c 0.110332,0 0.126094,0 0.126094,-0.11033 0,-0.49649 -0.27583,-0.98511 -0.898418,-0.98511 -0.583184,0 -1.048155,0.52014 -1.048155,1.15061 0,0.66987 0.528018,1.15849 1.103321,1.15849 0.614707,0 0.843252,-0.55954 0.843252,-0.65412 0,-0.0473 -0.03941,-0.063 -0.07093,-0.063 -0.0394,0 -0.05517,0.0315 -0.06305,0.0709 -0.173379,0.52013 -0.630469,0.52013 -0.677754,0.52013 -0.252187,0 -0.449209,-0.14973 -0.567422,-0.33887 -0.149736,-0.23643 -0.149736,-0.56743 -0.149736,-0.74869 z m 0,0"
         id="id-a0b228cb-437e-4521-93b6-8738fd9cb127" />
      <path
         style="fill:#000000;fill-opacity:1;stroke:none;stroke-width:0"
         d="m 99.085428,97.49412 c 0.03152,-0.74868 0.45709,-0.87477 0.630469,-0.87477 0.512253,0 0.567423,0.67775 0.567423,0.87477 z m 0,0.11033 h 1.402792 c 0.11033,0 0.12609,0 0.12609,-0.11033 0,-0.49649 -0.27583,-0.98511 -0.898413,-0.98511 -0.583184,0 -1.048155,0.52014 -1.048155,1.15061 0,0.66987 0.528018,1.15849 1.103321,1.15849 0.614707,0 0.843247,-0.55954 0.843247,-0.65412 0,-0.0473 -0.0394,-0.063 -0.0709,-0.063 -0.0394,0 -0.0552,0.0315 -0.0631,0.0709 -0.17337,0.52013 -0.630464,0.52013 -0.677749,0.52013 -0.252187,0 -0.449209,-0.14973 -0.567422,-0.33887 -0.149736,-0.23643 -0.149736,-0.56743 -0.149736,-0.74869 z m 0,0"
         id="id-20adc500-5497-4fd1-99c5-5ef569daf196" />
      <path
         style="fill:#000000;fill-opacity:1;stroke:none;stroke-width:0"
         d="m 103.89023,96.98975 c 0.40981,-0.13398 0.7014,-0.48074 0.7014,-0.88266 0,-0.4098 -0.44133,-0.69352 -0.92206,-0.69352 -0.50438,0 -0.89054,0.29948 -0.89054,0.68564 0,0.1655 0.11033,0.26007 0.26007,0.26007 0.14973,0 0.25219,-0.11033 0.25219,-0.26007 0,-0.24431 -0.23643,-0.24431 -0.30736,-0.24431 0.14974,-0.25218 0.48073,-0.31523 0.66199,-0.31523 0.21279,0 0.48862,0.11033 0.48862,0.55954 0,0.0631 -0.0158,0.35464 -0.14186,0.5753 -0.14973,0.24431 -0.32311,0.26007 -0.44921,0.26007 -0.0394,0.008 -0.15761,0.0158 -0.19702,0.0158 -0.0394,0.008 -0.0709,0.0158 -0.0709,0.0631 0,0.0552 0.0315,0.0552 0.11821,0.0552 h 0.22067 c 0.4098,0 0.59894,0.33887 0.59894,0.83537 0,0.68563 -0.34675,0.82749 -0.56742,0.82749 -0.22066,0 -0.59894,-0.0867 -0.77232,-0.37828 0.17338,0.0236 0.33099,-0.0867 0.33099,-0.27583 0,-0.18126 -0.13397,-0.28372 -0.27583,-0.28372 -0.12609,0 -0.28371,0.0709 -0.28371,0.2916 0,0.45709 0.46497,0.78808 1.01663,0.78808 0.61471,0 1.0718,-0.45709 1.0718,-0.96934 0,-0.40981 -0.32311,-0.80385 -0.84325,-0.91418 z m 0,0"
         id="id-4a154d60-4e08-443f-b889-40bbdc35927e" />
      <path
         style="color:#000000;fill:#000000;-inkscape-stroke:none"
         d="m 79.493483,205.85872 -15.97656,5.32617 -10.60156,5.29883 0.23828,0.47461 10.56641,-5.28516 15.77343,-5.25781 15.79102,5.26562 0.16797,-0.5039 z"
         id="path2268" />
      <path
         style="color:#000000;fill:#000000;fill-rule:evenodd;stroke-width:0.211667pt;-inkscape-stroke:none"
         d="m 52.106833,217.18454 c -0.26126,-0.52253 -0.0492,-1.15865 0.4733,-1.41991 0.52252,-0.26126 1.15864,-0.0492 1.4199,0.4733 0.26127,0.52253 0.0492,1.15864 -0.4733,1.41991 -0.52252,0.26126 -1.15864,0.0492 -1.4199,-0.4733 z"
         id="path2262" />
      <path
         style="color:#000000;fill:#000000;fill-rule:evenodd;-inkscape-stroke:none"
         d="m 53.432943,215.57356 c -0.29153,-0.0972 -0.62061,-0.0832 -0.91602,0.0644 -0.59079,0.29541 -0.83251,1.01856 -0.53711,1.60938 0.29541,0.59079 1.01856,0.83252 1.60938,0.53711 0.59078,-0.29542 0.83252,-1.01855 0.53711,-1.60938 -0.14771,-0.29539 -0.40184,-0.50438 -0.69336,-0.60156 z m -0.0898,0.26758 c 0.22248,0.0742 0.4177,0.23188 0.53125,0.45898 0.22713,0.45424 0.0441,1.0053 -0.41015,1.23243 -0.45423,0.22711 -1.00336,0.044 -1.23047,-0.41016 -0.22712,-0.45424 -0.044,-1.00531 0.41015,-1.23242 0.22712,-0.11356 0.47675,-0.12299 0.69922,-0.0488 z"
         id="path2264" />
      <path
         style="color:#000000;fill:#000000;fill-rule:evenodd;stroke-width:0.211667pt;-inkscape-stroke:none"
         d="m 62.659613,211.82594 c -0.22356,-0.53973 0.033,-1.15922 0.57277,-1.38278 0.53973,-0.22357 1.15921,0.033 1.38278,0.57276 0.22356,0.53973 -0.033,1.15922 -0.57277,1.38278 -0.53973,0.22357 -1.15921,-0.033 -1.38278,-0.57276 z"
         id="path2252" />
      <path
         style="color:#000000;fill:#000000;fill-rule:evenodd;-inkscape-stroke:none"
         d="m 63.179033,210.31184 c -0.61031,0.25278 -0.90316,0.9581 -0.65039,1.56836 0.25279,0.6103 0.9581,0.90123 1.56836,0.64844 0.61031,-0.25278 0.90121,-0.95614 0.64844,-1.56641 -0.25279,-0.61029 -0.95615,-0.90317 -1.56641,-0.65039 z m 0.10742,0.26172 c 0.4692,-0.19435 1.00487,0.0269 1.19922,0.4961 0.19435,0.46919 -0.0288,1.00487 -0.49805,1.19921 -0.46919,0.19436 -1.00291,-0.0269 -1.19726,-0.49609 -0.19435,-0.4692 0.0269,-1.00487 0.49609,-1.19922 z"
         id="path2254" />
      <path
         style="color:#000000;fill:#804d00;fill-rule:evenodd;stroke-width:0.211667pt;-inkscape-stroke:none"
         d="m 78.455663,206.13736 c 0,-0.5842 0.47414,-1.05833 1.05834,-1.05833 0.5842,0 1.05833,0.47413 1.05833,1.05833 0,0.5842 -0.47413,1.05833 -1.05833,1.05833 -0.5842,0 -1.05834,-0.47413 -1.05834,-1.05833 z"
         id="path2242" />
      <path
         style="color:#000000;fill:#000000;fill-rule:evenodd;-inkscape-stroke:none"
         d="m 79.514973,204.9388 c -0.66055,0 -1.20117,0.53866 -1.20117,1.19921 0,0.66055 0.54062,1.19922 1.20117,1.19922 0.66055,0 1.19922,-0.53867 1.19922,-1.19922 0,-0.66054 -0.53867,-1.19921 -1.19922,-1.19921 z m 0,0.28125 c 0.50785,0 0.91601,0.41011 0.91601,0.91796 0,0.50785 -0.40816,0.91602 -0.91601,0.91602 -0.50785,0 -0.91797,-0.40817 -0.91797,-0.91602 0,-0.50784 0.41012,-0.91796 0.91797,-0.91796 z"
         id="path2244" />
      <path
         style="color:#000000;fill:#000000;fill-rule:evenodd;stroke-width:0.211667pt;-inkscape-stroke:none"
         d="m 94.383893,211.10105 c 0.18474,-0.55422 0.78447,-0.85409 1.3387,-0.66935 0.55422,0.18474 0.85408,0.78448 0.66934,1.3387 -0.18474,0.55422 -0.78447,0.85409 -1.33869,0.66935 -0.55423,-0.18474 -0.85409,-0.78448 -0.66935,-1.3387 z"
         id="path2232" />
      <path
         style="color:#000000;fill:#000000;fill-rule:evenodd;-inkscape-stroke:none"
         d="m 95.766923,210.29817 c -0.62666,-0.20888 -1.30869,0.13116 -1.51758,0.75781 -0.20888,0.62665 0.13311,1.3087 0.75977,1.51758 0.62665,0.20889 1.30869,-0.13116 1.51758,-0.75781 0.20888,-0.62665 -0.13312,-1.3087 -0.75977,-1.51758 z m -0.0898,0.26758 c 0.48178,0.16059 0.74067,0.67837 0.58008,1.16016 -0.1606,0.48178 -0.67837,0.74067 -1.16016,0.58007 -0.4818,-0.16059 -0.74067,-0.67836 -0.58008,-1.16015 0.1606,-0.48179 0.67836,-0.74068 1.16016,-0.58008 z"
         id="path2234" />
      <path
         style="color:#000000;fill:#000000;-inkscape-stroke:none"
         d="m 63.735673,211.1927 -0.23633,0.47266 10.58399,5.29297 0.23633,-0.47461 z"
         id="path2296" />
      <path
         style="color:#000000;fill:#000000;fill-rule:evenodd;stroke-width:0.211667pt;-inkscape-stroke:none"
         d="m 75.128843,217.18454 c -0.26126,0.52252 -0.89738,0.73456 -1.4199,0.4733 -0.52253,-0.26127 -0.73457,-0.89738 -0.4733,-1.41991 0.26126,-0.52252 0.89737,-0.73456 1.4199,-0.4733 0.52252,0.26126 0.73456,0.89738 0.4733,1.41991 z"
         id="path2290" />
      <path
         style="color:#000000;fill:#000000;fill-rule:evenodd;-inkscape-stroke:none"
         d="m 73.804033,215.57356 c -0.29153,0.0972 -0.54761,0.30616 -0.69531,0.60156 -0.29542,0.59082 -0.0537,1.31396 0.53711,1.60938 0.59081,0.2954 1.31397,0.0537 1.60937,-0.53711 0.29541,-0.59082 0.0537,-1.31397 -0.53711,-1.60938 -0.29541,-0.1477 -0.62253,-0.16162 -0.91406,-0.0644 z m 0.0879,0.26758 c 0.22248,-0.0742 0.47405,-0.0647 0.70117,0.0488 0.45423,0.22711 0.63728,0.77818 0.41016,1.23242 -0.22711,0.45423 -0.77624,0.63727 -1.23047,0.41016 -0.45424,-0.22713 -0.63728,-0.77819 -0.41016,-1.23243 0.11356,-0.22711 0.30683,-0.38482 0.5293,-0.45898 z"
         id="path2292" />
      <path
         style="color:#000000;fill:#804d00;fill-rule:evenodd;stroke-width:0.211667pt;-inkscape-stroke:none"
         d="m 64.545503,211.89287 c -0.26126,0.52252 -0.89738,0.73456 -1.4199,0.4733 -0.52253,-0.26127 -0.73457,-0.89738 -0.4733,-1.41991 0.26126,-0.52252 0.89737,-0.73456 1.4199,-0.4733 0.52252,0.26126 0.73456,0.89738 0.4733,1.41991 z"
         id="path2280" />
      <path
         style="color:#000000;fill:#000000;fill-rule:evenodd;-inkscape-stroke:none"
         d="m 63.220053,210.28255 c -0.29153,0.0972 -0.54566,0.30615 -0.69336,0.60156 -0.29542,0.59082 -0.0557,1.31201 0.53515,1.60742 0.59081,0.2954 1.31397,0.0557 1.60938,-0.53516 0.2954,-0.59081 0.0557,-1.31397 -0.53516,-1.60937 -0.29541,-0.1477 -0.62449,-0.16163 -0.91601,-0.0644 z m 0.0879,0.26562 c 0.22247,-0.0742 0.47405,-0.0628 0.70117,0.0508 0.45423,0.22712 0.63727,0.77623 0.41016,1.23047 -0.22712,0.45423 -0.77624,0.63727 -1.23047,0.41016 -0.45425,-0.22713 -0.63728,-0.77623 -0.41016,-1.23047 0.11356,-0.22712 0.30682,-0.38678 0.5293,-0.46094 z"
         id="path2282" />
      <path
         style="color:#000000;fill:#000000;-inkscape-stroke:none"
         d="m 95.368483,211.13411 -10.70312,5.34961 0.23828,0.47265 10.46484,-5.23242 10.464847,5.23438 0.23633,-0.47461 z"
         id="path2334" />
      <path
         style="color:#000000;fill:#000000;fill-rule:evenodd;stroke-width:0.211667pt;-inkscape-stroke:none"
         d="m 106.87884,217.18454 c -0.26126,0.52252 -0.89738,0.73456 -1.4199,0.4733 -0.52253,-0.26127 -0.73457,-0.89738 -0.4733,-1.41991 0.26126,-0.52252 0.89737,-0.73456 1.4199,-0.4733 0.52252,0.26126 0.73456,0.89738 0.4733,1.41991 z"
         id="path2328" />
      <path
         style="color:#000000;fill:#000000;fill-rule:evenodd;-inkscape-stroke:none"
         d="m 105.55403,215.57356 c -0.29153,0.0972 -0.54761,0.30616 -0.69531,0.60156 -0.29542,0.59082 -0.0537,1.31396 0.53711,1.60938 0.59081,0.2954 1.31397,0.0537 1.60937,-0.53711 0.29541,-0.59082 0.0537,-1.31397 -0.53711,-1.60938 -0.29541,-0.1477 -0.62253,-0.16162 -0.91406,-0.0644 z m 0.0879,0.26758 c 0.22248,-0.0742 0.47405,-0.0647 0.70117,0.0488 0.45423,0.22711 0.63728,0.77818 0.41016,1.23242 -0.22711,0.45423 -0.77624,0.63727 -1.23047,0.41016 -0.45424,-0.22713 -0.63728,-0.77819 -0.41016,-1.23243 0.11356,-0.22711 0.30683,-0.38482 0.5293,-0.45898 z"
         id="path2330" />
      <path
         style="color:#000000;fill:#804d00;fill-rule:evenodd;stroke-width:0.211667pt;-inkscape-stroke:none"
         d="m 96.405003,211.42903 c 0,0.5842 -0.47414,1.05833 -1.05834,1.05833 -0.5842,0 -1.05833,-0.47413 -1.05833,-1.05833 0,-0.5842 0.47413,-1.05833 1.05833,-1.05833 0.5842,0 1.05834,0.47413 1.05834,1.05833 z"
         id="path2318" />
      <path
         style="color:#000000;fill:#000000;fill-rule:evenodd;-inkscape-stroke:none"
         d="m 95.347003,210.22981 c -0.66055,0 -1.19922,0.53867 -1.19922,1.19922 0,0.66055 0.53867,1.19922 1.19922,1.19922 0.66055,0 1.19922,-0.53867 1.19922,-1.19922 0,-0.66055 -0.53867,-1.19922 -1.19922,-1.19922 z m 0,0.28125 c 0.50785,0 0.91602,0.41012 0.91602,0.91797 0,0.50785 -0.40817,0.91797 -0.91602,0.91797 -0.50785,0 -0.91797,-0.41012 -0.91797,-0.91797 0,-0.50785 0.41012,-0.91797 0.91797,-0.91797 z"
         id="path2320" />
      <path
         style="color:#000000;fill:#000000;fill-rule:evenodd;stroke-width:0.211667pt;-inkscape-stroke:none"
         d="m 85.712173,216.25686 c 0.26126,0.52252 0.0492,1.15864 -0.4733,1.4199 -0.52253,0.26126 -1.15864,0.0492 -1.4199,-0.4733 -0.26127,-0.52253 -0.0492,-1.15864 0.4733,-1.41991 0.52252,-0.26126 1.15864,-0.0492 1.4199,0.47331 z"
         id="path2308" />
      <path
         style="color:#000000;fill:#000000;fill-rule:evenodd;-inkscape-stroke:none"
         d="m 85.143873,215.59309 c -0.29152,-0.0972 -0.61865,-0.0832 -0.91406,0.0645 -0.59078,0.29541 -0.83252,1.01855 -0.53711,1.60937 0.29541,0.59079 1.01856,0.83056 1.60938,0.53516 0.59079,-0.29541 0.83251,-1.01661 0.53711,-1.60743 -0.14771,-0.29539 -0.40379,-0.50438 -0.69532,-0.60156 z m -0.0879,0.26563 c 0.22248,0.0742 0.41574,0.23382 0.5293,0.46093 0.22711,0.45423 0.044,1.00336 -0.41016,1.23047 -0.45423,0.22712 -1.00335,0.0441 -1.23046,-0.41015 -0.22713,-0.45424 -0.0441,-1.00335 0.41015,-1.23047 0.22712,-0.11356 0.4787,-0.12495 0.70117,-0.0508 z"
         id="path2310" />
      <path
         style="color:#000000;fill:#000000;-inkscape-stroke:none"
         d="m 84.972003,216.5345 -0.375,0.37305 5.29297,5.29101 0.37305,-0.37305 z"
         id="path2362" />
      <path
         style="color:#000000;fill:#9ade00;fill-rule:evenodd;stroke-width:0.211667pt;-inkscape-stroke:none"
         d="m 90.809553,222.74575 c -0.4131,0.41309 -1.08362,0.41309 -1.49671,0 -0.41309,-0.4131 -0.41309,-1.08362 0,-1.49671 0.41309,-0.41309 1.08362,-0.41309 1.49671,0 0.41309,0.41309 0.41309,1.08362 0,1.49671 z"
         id="path2356" />
      <path
         style="color:#000000;fill:#000000;fill-rule:evenodd;-inkscape-stroke:none"
         d="m 90.061843,220.79817 c -0.30729,0 -0.61607,0.11802 -0.84961,0.35156 -0.46707,0.46708 -0.46707,1.22823 0,1.69532 0.46708,0.46707 1.23018,0.46707 1.69727,0 0.46708,-0.46708 0.46708,-1.22824 0,-1.69532 -0.23354,-0.23354 -0.54036,-0.35156 -0.84766,-0.35156 z m 0,0.28125 c 0.23452,0 0.46889,0.09 0.64844,0.26953 0.3591,0.3591 0.3591,0.93778 0,1.29688 -0.35911,0.3591 -0.93777,0.3591 -1.29687,0 -0.35911,-0.35912 -0.35911,-0.93778 0,-1.29688 0.17955,-0.17955 0.41392,-0.26953 0.64843,-0.26953 z"
         id="path2358" />
      <path
         style="color:#000000;fill:#ffc022;fill-rule:evenodd;stroke-width:0.211667pt;-inkscape-stroke:none"
         d="m 85.517893,217.45408 c -0.4131,0.41309 -1.08362,0.41309 -1.49671,0 -0.41309,-0.4131 -0.41309,-1.08362 0,-1.49671 0.41309,-0.41309 1.08362,-0.41309 1.49671,0 0.41309,0.41309 0.41309,1.08362 0,1.49671 z"
         id="path2346" />
      <path
         style="color:#000000;fill:#000000;fill-rule:evenodd;-inkscape-stroke:none"
         d="m 84.768873,215.50715 c -0.30729,0 -0.61411,0.11608 -0.84765,0.34961 -0.46708,0.46708 -0.46708,1.23018 0,1.69727 0.46708,0.46708 1.23018,0.46708 1.69726,0 0.46708,-0.46708 0.46708,-1.23019 0,-1.69727 -0.23353,-0.23353 -0.54231,-0.34961 -0.84961,-0.34961 z m 0,0.28125 c 0.23452,0 0.46889,0.09 0.64844,0.26954 0.3591,0.3591 0.3591,0.93777 0,1.29687 -0.35911,0.35911 -0.93777,0.3591 -1.29687,0 -0.35911,-0.35911 -0.3591,-0.93777 0,-1.29687 0.17955,-0.17955 0.41392,-0.26954 0.64843,-0.26954 z"
         id="path2348" />
      <path
         style="color:#000000;fill:#000000;-inkscape-stroke:none"
         d="m 106.13802,216.5345 -0.37305,0.37305 5.29101,5.29101 0.37305,-0.37305 z"
         id="path2390" />
      <path
         style="color:#000000;fill:#9ade00;fill-rule:evenodd;stroke-width:0.211667pt;-inkscape-stroke:none"
         d="m 111.97622,222.74575 c -0.41309,0.41309 -1.08362,0.41309 -1.49671,0 -0.41309,-0.41309 -0.41309,-1.08362 0,-1.49671 0.41309,-0.41309 1.08362,-0.41309 1.49671,0 0.41309,0.41309 0.41309,1.08362 0,1.49671 z"
         id="path2384" />
      <path
         style="color:#000000;fill:#000000;fill-rule:evenodd;-inkscape-stroke:none"
         d="m 111.22786,220.79817 c -0.3073,0 -0.61412,0.11802 -0.84766,0.35156 -0.46707,0.46708 -0.46707,1.22824 0,1.69532 0.46708,0.46707 1.22824,0.46707 1.69532,0 0.46707,-0.46708 0.46707,-1.22824 0,-1.69532 -0.23354,-0.23354 -0.54036,-0.35156 -0.84766,-0.35156 z m 0,0.28125 c 0.23451,0 0.46889,0.09 0.64844,0.26953 0.3591,0.3591 0.3591,0.93778 0,1.29688 -0.3591,0.3591 -0.93778,0.3591 -1.29688,0 -0.3591,-0.3591 -0.3591,-0.93778 0,-1.29688 0.17955,-0.17955 0.41393,-0.26953 0.64844,-0.26953 z"
         id="path2386" />
      <path
         style="color:#000000;fill:#ffc022;fill-rule:evenodd;stroke-width:0.211667pt;-inkscape-stroke:none"
         d="m 106.68455,217.45408 c -0.41309,0.41309 -1.08362,0.41309 -1.49671,0 -0.41309,-0.41309 -0.41309,-1.08362 0,-1.49671 0.41309,-0.41309 1.08362,-0.41309 1.49671,0 0.41309,0.41309 0.41309,1.08362 0,1.49671 z"
         id="path2374" />
      <path
         style="color:#000000;fill:#000000;fill-rule:evenodd;-inkscape-stroke:none"
         d="m 105.93684,215.50715 c -0.30729,0 -0.61607,0.11608 -0.84961,0.34961 -0.46707,0.46708 -0.46707,1.23019 0,1.69727 0.46708,0.46708 1.23019,0.46708 1.69727,0 0.46708,-0.46708 0.46708,-1.23019 0,-1.69727 -0.23354,-0.23353 -0.54036,-0.34961 -0.84766,-0.34961 z m 0,0.28125 c 0.23452,0 0.46889,0.09 0.64844,0.26954 0.3591,0.3591 0.3591,0.93777 0,1.29687 -0.3591,0.3591 -0.93777,0.3591 -1.29687,0 -0.35911,-0.3591 -0.35911,-0.93777 0,-1.29687 0.17955,-0.17955 0.41392,-0.26954 0.64843,-0.26954 z"
         id="path2376" />
      <path
         style="color:#000000;fill:#000000;-inkscape-stroke:none"
         d="m 74.388023,216.5345 -0.37305,0.37305 5.29101,5.29101 0.37305,-0.37305 z"
         id="path2418" />
      <path
         style="color:#000000;fill:#9ade00;fill-rule:evenodd;stroke-width:0.211667pt;-inkscape-stroke:none"
         d="m 80.226223,222.74575 c -0.41309,0.41309 -1.08362,0.41309 -1.49671,0 -0.41309,-0.41309 -0.41309,-1.08362 0,-1.49671 0.41309,-0.41309 1.08362,-0.41309 1.49671,0 0.41309,0.41309 0.41309,1.08362 0,1.49671 z"
         id="path2412" />
      <path
         style="color:#000000;fill:#000000;fill-rule:evenodd;-inkscape-stroke:none"
         d="m 79.477863,220.79817 c -0.3073,0 -0.61412,0.11802 -0.84766,0.35156 -0.46707,0.46708 -0.46707,1.22824 0,1.69532 0.46708,0.46707 1.22824,0.46707 1.69532,0 0.46707,-0.46708 0.46707,-1.22824 0,-1.69532 -0.23354,-0.23354 -0.54036,-0.35156 -0.84766,-0.35156 z m 0,0.28125 c 0.23451,0 0.46889,0.09 0.64844,0.26953 0.3591,0.3591 0.3591,0.93778 0,1.29688 -0.3591,0.3591 -0.93778,0.3591 -1.29688,0 -0.3591,-0.3591 -0.3591,-0.93778 0,-1.29688 0.17955,-0.17955 0.41393,-0.26953 0.64844,-0.26953 z"
         id="path2414" />
      <path
         style="color:#000000;fill:#ffc022;fill-rule:evenodd;stroke-width:0.211667pt;-inkscape-stroke:none"
         d="m 74.934553,217.45408 c -0.41309,0.41309 -1.08362,0.41309 -1.49671,0 -0.41309,-0.41309 -0.41309,-1.08362 0,-1.49671 0.41309,-0.41309 1.08362,-0.41309 1.49671,0 0.41309,0.41309 0.41309,1.08362 0,1.49671 z"
         id="path2402" />
      <path
         style="color:#000000;fill:#000000;fill-rule:evenodd;-inkscape-stroke:none"
         d="m 74.186843,215.50715 c -0.30729,0 -0.61607,0.11608 -0.84961,0.34961 -0.46707,0.46708 -0.46707,1.23019 0,1.69727 0.46708,0.46708 1.23019,0.46708 1.69727,0 0.46708,-0.46708 0.46708,-1.23019 0,-1.69727 -0.23354,-0.23353 -0.54036,-0.34961 -0.84766,-0.34961 z m 0,0.28125 c 0.23452,0 0.46889,0.09 0.64844,0.26954 0.3591,0.3591 0.3591,0.93777 0,1.29687 -0.3591,0.3591 -0.93777,0.3591 -1.29687,0 -0.35911,-0.3591 -0.35911,-0.93777 0,-1.29687 0.17955,-0.17955 0.41392,-0.26954 0.64843,-0.26954 z"
         id="path2404" />
      <path
         style="color:#000000;fill:#000000;-inkscape-stroke:none"
         d="m 53.034503,216.347 -5.47852,5.47851 -5.29101,5.29102 -5.29297,5.29297 -5.29102,5.29101 0.37305,0.37305 5.29297,-5.29101 5.29102,-5.29102 5.29101,-5.29297 5.10547,-5.10351 5.10547,5.10351 0.37305,-0.37305 z"
         id="path2486" />
      <path
         style="color:#000000;fill:#9ade00;fill-rule:evenodd;stroke-width:0.211667pt;-inkscape-stroke:none"
         d="m 31.134443,238.62075 c -0.41309,-0.4131 -0.41309,-1.08362 0,-1.49671 0.4131,-0.41309 1.08362,-0.41309 1.49671,0 0.41309,0.41309 0.41309,1.08362 0,1.49671 -0.41309,0.41309 -1.08362,0.41309 -1.49671,0 z"
         id="path2480" />
      <path
         style="color:#000000;fill:#000000;fill-rule:evenodd;-inkscape-stroke:none"
         d="m 31.882163,236.67317 c -0.3073,0 -0.61412,0.11803 -0.84766,0.35156 -0.46708,0.46708 -0.46708,1.22823 0,1.69532 0.46708,0.46707 1.23019,0.46707 1.69727,0 0.46707,-0.46708 0.46707,-1.22824 0,-1.69532 -0.23354,-0.23354 -0.54232,-0.35156 -0.84961,-0.35156 z m 0,0.28125 c 0.23451,0 0.46888,0.09 0.64843,0.26953 0.35911,0.3591 0.35911,0.93778 0,1.29688 -0.3591,0.3591 -0.93777,0.3591 -1.29687,0 -0.35911,-0.35912 -0.3591,-0.93778 0,-1.29688 0.17956,-0.17955 0.41393,-0.26953 0.64844,-0.26953 z"
         id="path2482" />
      <path
         style="color:#000000;fill:#ffc022;fill-rule:evenodd;stroke-width:0.211667pt;-inkscape-stroke:none"
         d="m 36.426113,233.32909 c -0.41309,-0.41309 -0.41309,-1.08362 0,-1.49671 0.41309,-0.41309 1.08362,-0.41309 1.49671,0 0.41309,0.41309 0.41309,1.08362 0,1.49671 -0.41309,0.41309 -1.08362,0.41309 -1.49671,0 z"
         id="path2470" />
      <path
         style="color:#000000;fill:#000000;fill-rule:evenodd;-inkscape-stroke:none"
         d="m 37.175133,231.38215 c -0.3073,0 -0.61608,0.11608 -0.84961,0.34961 -0.46708,0.46708 -0.46708,1.23019 0,1.69727 0.46707,0.46708 1.23018,0.46708 1.69726,0 0.46708,-0.46708 0.46708,-1.23019 0,-1.69727 -0.23354,-0.23353 -0.54036,-0.34961 -0.84765,-0.34961 z m 0,0.28125 c 0.23451,0 0.46888,0.09 0.64843,0.26954 0.3591,0.3591 0.3591,0.93777 0,1.29687 -0.3591,0.3591 -0.93777,0.3591 -1.29687,0 -0.3591,-0.3591 -0.3591,-0.93777 0,-1.29687 0.17955,-0.17955 0.41392,-0.26954 0.64844,-0.26954 z"
         id="path2472" />
      <path
         style="color:#000000;fill:#ffc022;fill-rule:evenodd;stroke-width:0.211667pt;-inkscape-stroke:none"
         d="m 41.717783,228.03742 c -0.41309,-0.41309 -0.41309,-1.08362 0,-1.49671 0.41309,-0.41309 1.08362,-0.41309 1.49671,0 0.41309,0.41309 0.41309,1.08362 0,1.49671 -0.41309,0.41309 -1.08362,0.41309 -1.49671,0 z"
         id="path2460" />
      <path
         style="color:#000000;fill:#000000;fill-rule:evenodd;-inkscape-stroke:none"
         d="m 42.466143,226.09114 c -0.3073,0 -0.61412,0.11607 -0.84766,0.34961 -0.46707,0.46708 -0.46707,1.23019 0,1.69726 0.46708,0.46708 1.22824,0.46708 1.69532,0 0.46707,-0.46707 0.46707,-1.23018 0,-1.69726 -0.23354,-0.23354 -0.54036,-0.34961 -0.84766,-0.34961 z m 0,0.2793 c 0.23451,0 0.46889,0.09 0.64844,0.26953 0.3591,0.3591 0.3591,0.93777 0,1.29687 -0.3591,0.3591 -0.93778,0.3591 -1.29688,0 -0.3591,-0.3591 -0.3591,-0.93777 0,-1.29687 0.17955,-0.17955 0.41393,-0.26953 0.64844,-0.26953 z"
         id="path2462" />
      <path
         style="color:#000000;fill:#ffc022;fill-rule:evenodd;stroke-width:0.211667pt;-inkscape-stroke:none"
         d="m 47.009443,222.74575 c -0.41309,-0.41309 -0.41309,-1.08362 0,-1.49671 0.41309,-0.41309 1.08362,-0.41309 1.49671,0 0.41309,0.41309 0.41309,1.08362 0,1.49671 -0.41309,0.41309 -1.08362,0.41309 -1.49671,0 z"
         id="path2450" />
      <path
         style="color:#000000;fill:#000000;fill-rule:evenodd;-inkscape-stroke:none"
         d="m 47.757163,220.79817 c -0.3073,0 -0.61412,0.11802 -0.84766,0.35156 -0.46708,0.46708 -0.46708,1.22824 0,1.69532 0.46708,0.46707 1.23019,0.46707 1.69727,0 0.46707,-0.46708 0.46707,-1.22824 0,-1.69532 -0.23354,-0.23354 -0.54232,-0.35156 -0.84961,-0.35156 z m 0,0.28125 c 0.23451,0 0.46888,0.09 0.64843,0.26953 0.35911,0.3591 0.35911,0.93778 0,1.29688 -0.3591,0.3591 -0.93777,0.3591 -1.29687,0 -0.3591,-0.3591 -0.3591,-0.93778 0,-1.29688 0.17955,-0.17955 0.41392,-0.26953 0.64844,-0.26953 z"
         id="path2452" />
      <path
         style="color:#000000;fill:#804d00;fill-rule:evenodd;stroke-width:0.211667pt;-inkscape-stroke:none"
         d="m 51.997333,216.72069 c 0,-0.5842 0.47414,-1.05833 1.05834,-1.05833 0.5842,0 1.05833,0.47413 1.05833,1.05833 0,0.5842 -0.47413,1.05833 -1.05833,1.05833 -0.5842,0 -1.05834,-0.47413 -1.05834,-1.05833 z"
         id="path2440" />
      <path
         style="color:#000000;fill:#000000;fill-rule:evenodd;-inkscape-stroke:none"
         d="m 53.055983,215.52083 c -0.66054,0 -1.19921,0.53867 -1.19921,1.19922 0,0.66055 0.53867,1.19921 1.19921,1.19921 0.66055,0 1.19922,-0.53867 1.19922,-1.19921 0,-0.66055 -0.53867,-1.19922 -1.19922,-1.19922 z m 0,0.2832 c 0.50785,0 0.91602,0.40817 0.91602,0.91602 0,0.50785 -0.40817,0.91796 -0.91602,0.91796 -0.50785,0 -0.91796,-0.41012 -0.91796,-0.91796 0,-0.50785 0.41011,-0.91602 0.91796,-0.91602 z"
         id="path2442" />
      <path
         style="color:#000000;fill:#9ade00;fill-rule:evenodd;stroke-width:0.211667pt;-inkscape-stroke:none"
         d="m 57.592773,221.27897 c 0.4131,-0.41309 1.08362,-0.41309 1.49671,0 0.41309,0.4131 0.41309,1.08362 0,1.49671 -0.41309,0.41309 -1.08362,0.41309 -1.49671,0 -0.41309,-0.41309 -0.41309,-1.08362 0,-1.49671 z"
         id="path2430" />
      <path
         style="color:#000000;fill:#000000;fill-rule:evenodd;-inkscape-stroke:none"
         d="m 58.341143,220.82942 c -0.3073,0 -0.61411,0.11607 -0.84766,0.34961 -0.46707,0.46708 -0.46707,1.23019 0,1.69727 0.46708,0.46707 1.22824,0.46707 1.69532,0 0.46707,-0.46708 0.46707,-1.23018 0,-1.69727 -0.23354,-0.23354 -0.54036,-0.34961 -0.84766,-0.34961 z m 0,0.2793 c 0.23451,0 0.46889,0.09 0.64844,0.26953 0.3591,0.35911 0.3591,0.93777 0,1.29687 -0.3591,0.35911 -0.93778,0.35911 -1.29688,0 -0.3591,-0.3591 -0.3591,-0.93777 0,-1.29687 0.17956,-0.17955 0.41393,-0.26953 0.64844,-0.26953 z"
         id="path2432" />
      <rect
         style="font-variation-settings:normal;vector-effect:none;fill:none;fill-opacity:1;fill-rule:evenodd;stroke:#000000;stroke-width:0.264583;stroke-linecap:butt;stroke-linejoin:miter;stroke-miterlimit:4;stroke-dasharray:none;stroke-dashoffset:0;stroke-opacity:1;stop-color:#000000"
         id="rect2000"
         width="89.958336"
         height="42.333332"
         x="26.57616"
         y="200.84569"
         ry="0.13229166" />
      <path
         style="fill:#000000;fill-opacity:1;stroke:none;stroke-width:0"
         d="m 67.972342,195.94084 h -3.073535 l -0.09457,1.13484 h 0.126093 c 0.07093,-0.81173 0.141856,-0.97722 0.906299,-0.97722 0.08669,0 0.220664,0 0.267949,0.008 0.110332,0.0236 0.110332,0.0788 0.110332,0.18914 v 2.65585 c 0,0.1655 0,0.23642 -0.528017,0.23642 h -0.204902 v 0.15762 c 0.204902,-0.0158 0.717158,-0.0158 0.953584,-0.0158 0.228544,0 0.748681,0 0.953583,0.0158 v -0.15762 h -0.204902 c -0.528017,0 -0.528017,-0.0709 -0.528017,-0.23642 v -2.65585 c 0,-0.0946 0,-0.1655 0.09457,-0.18914 0.05517,-0.008 0.189141,-0.008 0.283711,-0.008 0.764443,0 0.835371,0.16549 0.906299,0.97722 h 0.126093 z m 0,0"
         id="id-e9432834-a21f-4c6f-872c-fd3aa5bf9dc2" />
      <path
         style="fill:#000000;fill-opacity:1;stroke:none;stroke-width:0"
         d="m 68.678089,197.67463 v -0.55166 l -0.701397,0.0552 v 0.15762 c 0.354639,0 0.394043,0.0315 0.394043,0.28371 v 1.34763 c 0,0.22066 -0.05517,0.22066 -0.394043,0.22066 v 0.15762 c 0.197022,-0.008 0.433448,-0.0158 0.575303,-0.0158 0.197022,0 0.433447,0 0.63835,0.0158 v -0.15762 h -0.110332 c -0.370401,0 -0.378282,-0.0552 -0.378282,-0.23642 v -0.77233 c 0,-0.49649 0.212784,-0.9457 0.591065,-0.9457 0.03152,0 0.04729,0 0.05517,0.008 -0.01576,0 -0.118213,0.0631 -0.118213,0.19702 0,0.13398 0.110332,0.21279 0.220664,0.21279 0.08669,0 0.212783,-0.0631 0.212783,-0.22067 0,-0.15762 -0.157617,-0.30735 -0.3704,-0.30735 -0.3704,0 -0.55166,0.33887 -0.614707,0.55166 z m 0,0"
         id="id-d2598da2-0fcc-4747-9155-1d417310876f" />
      <path
         style="fill:#000000;fill-opacity:1;stroke:none;stroke-width:0"
         d="m 70.362449,198.07655 c 0.03152,-0.74868 0.45709,-0.87477 0.630469,-0.87477 0.512256,0 0.567422,0.67775 0.567422,0.87477 z m 0,0.11033 h 1.402793 c 0.110332,0 0.126094,0 0.126094,-0.11033 0,-0.49649 -0.27583,-0.98511 -0.898418,-0.98511 -0.583184,0 -1.048155,0.52014 -1.048155,1.15061 0,0.66987 0.528018,1.15849 1.103321,1.15849 0.614707,0 0.843252,-0.55954 0.843252,-0.65412 0,-0.0473 -0.03941,-0.063 -0.07093,-0.063 -0.0394,0 -0.05517,0.0315 -0.06305,0.0709 -0.173379,0.52013 -0.630469,0.52013 -0.677754,0.52013 -0.252187,0 -0.449209,-0.14973 -0.567422,-0.33887 -0.149736,-0.23643 -0.149736,-0.56743 -0.149736,-0.74869 z m 0,0"
         id="id-5c8875f4-cfcc-401b-9ea2-a0b5605c4aa9" />
      <path
         style="fill:#000000;fill-opacity:1;stroke:none;stroke-width:0"
         d="m 72.595821,198.07655 c 0.03152,-0.74868 0.45709,-0.87477 0.630469,-0.87477 0.512256,0 0.567422,0.67775 0.567422,0.87477 z m 0,0.11033 h 1.402793 c 0.110332,0 0.126094,0 0.126094,-0.11033 0,-0.49649 -0.27583,-0.98511 -0.898418,-0.98511 -0.583184,0 -1.048155,0.52014 -1.048155,1.15061 0,0.66987 0.528018,1.15849 1.103321,1.15849 0.614707,0 0.843252,-0.55954 0.843252,-0.65412 0,-0.0473 -0.03941,-0.063 -0.07093,-0.063 -0.0394,0 -0.05517,0.0315 -0.06305,0.0709 -0.173379,0.52013 -0.630469,0.52013 -0.677754,0.52013 -0.252187,0 -0.449209,-0.14973 -0.567422,-0.33887 -0.149736,-0.23643 -0.149736,-0.56743 -0.149736,-0.74869 z m 0,0"
         id="id-47f0bbc7-471d-4372-aa29-a84f45df42a0" />
      <path
         style="fill:#000000;fill-opacity:1;stroke:none;stroke-width:0"
         d="m 77.423761,198.51788 v 0.43345 c 0,0.18126 -0.01576,0.23642 -0.386162,0.23642 h -0.102451 v 0.15762 c 0.204903,-0.0158 0.464971,-0.0158 0.677754,-0.0158 0.212783,0 0.472852,0 0.685635,0.0158 v -0.15762 h -0.110332 c -0.370401,0 -0.378281,-0.0552 -0.378281,-0.23642 v -0.43345 h 0.496494 v -0.15762 h -0.496494 v -2.28545 c 0,-0.10245 0,-0.13397 -0.08669,-0.13397 -0.0394,0 -0.05517,0 -0.09457,0.0631 l -1.544649,2.35637 v 0.15762 z m 0.02364,-0.15762 h -1.22153 l 1.221533,-1.87564 z m 0,0"
         id="id-523093ea-069e-41db-b8c8-0d134f7a0be1" />
      <path
         style="color:#000000;fill:#000000;-inkscape-stroke:none"
         d="m 32.800202,166.17873 v 5.29102 h 0.529297 v -5.29102 z"
         id="path4515" />
      <path
         style="color:#000000;fill:#ccff42;fill-rule:evenodd;stroke-width:0.211667pt;-inkscape-stroke:none"
         d="m 33.065176,172.50756 c -0.5842,0 -1.058333,-0.47413 -1.058333,-1.05833 0,-0.5842 0.474133,-1.05833 1.058333,-1.05833 0.5842,0 1.058334,0.47413 1.058334,1.05833 0,0.5842 -0.474134,1.05833 -1.058334,1.05833 z"
         id="path4509" />
      <path
         style="color:#000000;fill:#000000;fill-rule:evenodd;-inkscape-stroke:none"
         d="m 33.065827,170.24904 c -0.660549,0 -1.199218,0.53867 -1.199218,1.19922 0,0.66055 0.538669,1.20117 1.199218,1.20117 0.660549,0 1.199219,-0.54062 1.199219,-1.20117 0,-0.66055 -0.53867,-1.19922 -1.199219,-1.19922 z m 0,0.28321 c 0.50785,0 0.916016,0.40816 0.916016,0.91601 0,0.50785 -0.408166,0.91797 -0.916016,0.91797 -0.50785,0 -0.917968,-0.41012 -0.917968,-0.91797 0,-0.50785 0.410118,-0.91601 0.917968,-0.91601 z"
         id="path4511" />
      <path
         style="color:#000000;fill:#ffc022;fill-rule:evenodd;stroke-width:0.211667pt;-inkscape-stroke:none"
         d="m 33.065176,167.2159 c -0.5842,0 -1.058333,-0.47414 -1.058333,-1.05834 0,-0.5842 0.474133,-1.05833 1.058333,-1.05833 0.5842,0 1.058333,0.47413 1.058333,1.05833 0,0.5842 -0.474133,1.05834 -1.058333,1.05834 z"
         id="path4499" />
      <path
         style="color:#000000;fill:#000000;fill-rule:evenodd;-inkscape-stroke:none"
         d="m 33.065827,164.95803 c -0.660549,0 -1.199218,0.53867 -1.199218,1.19922 0,0.66055 0.538668,1.19921 1.199218,1.19921 0.660551,0 1.199219,-0.53866 1.199219,-1.19921 0,-0.66055 -0.53867,-1.19922 -1.199219,-1.19922 z m 0,0.2832 c 0.50785,0 0.916016,0.40817 0.916016,0.91602 0,0.50785 -0.408167,0.91796 -0.916016,0.91796 -0.507848,0 -0.917968,-0.41011 -0.917968,-0.91796 0,-0.50785 0.410118,-0.91602 0.917968,-0.91602 z"
         id="path4501" />
      <rect
         style="font-variation-settings:normal;vector-effect:none;fill:none;fill-opacity:1;fill-rule:evenodd;stroke:#000000;stroke-width:0.264583;stroke-linecap:butt;stroke-linejoin:miter;stroke-miterlimit:4;stroke-dasharray:none;stroke-dashoffset:0;stroke-opacity:1;stop-color:#000000"
         id="rect4949"
         width="10.583333"
         height="10.583333"
         x="27.77351"
         y="163.5329"
         ry="0.13229166" />
      <path
         style="fill:#000000;fill-opacity:1;stroke:none;stroke-width:0"
         d="m 29.611973,159.1572 h -3.073535 l -0.09457,1.13484 h 0.126093 c 0.07093,-0.81173 0.141856,-0.97721 0.906299,-0.97721 0.08669,0 0.220664,0 0.267949,0.008 0.110332,0.0236 0.110332,0.0788 0.110332,0.18914 v 2.65585 c 0,0.1655 0,0.23642 -0.528017,0.23642 h -0.204902 v 0.15762 c 0.204902,-0.0158 0.717158,-0.0158 0.953584,-0.0158 0.228544,0 0.748681,0 0.953583,0.0158 v -0.15762 h -0.204902 c -0.528017,0 -0.528017,-0.0709 -0.528017,-0.23642 v -2.65585 c 0,-0.0946 0,-0.1655 0.09457,-0.18914 0.05517,-0.008 0.189141,-0.008 0.283711,-0.008 0.764443,0 0.835371,0.16549 0.906299,0.97721 h 0.126093 z m 0,0"
         id="id-b8ba7f32-4345-4e4f-85d8-4f6c2fe7d87a" />
      <path
         style="fill:#000000;fill-opacity:1;stroke:none;stroke-width:0"
         d="m 30.317719,160.89099 v -0.55166 l -0.701397,0.0552 v 0.15762 c 0.354639,0 0.394043,0.0315 0.394043,0.28371 v 1.34763 c 0,0.22066 -0.05517,0.22066 -0.394043,0.22066 v 0.15762 c 0.197022,-0.008 0.433448,-0.0158 0.575303,-0.0158 0.197022,0 0.433447,0 0.63835,0.0158 v -0.15762 h -0.110332 c -0.370401,0 -0.378282,-0.0552 -0.378282,-0.23642 v -0.77233 c 0,-0.49649 0.212784,-0.9457 0.591065,-0.9457 0.03152,0 0.04728,0 0.05517,0.008 -0.01576,0 -0.118213,0.0631 -0.118213,0.19702 0,0.13398 0.110332,0.21279 0.220664,0.21279 0.08669,0 0.212783,-0.0631 0.212783,-0.22067 0,-0.15762 -0.157617,-0.30735 -0.3704,-0.30735 -0.3704,0 -0.55166,0.33887 -0.614707,0.55166 z m 0,0"
         id="id-2e0c0300-d0de-481c-90aa-6cfc905099ec" />
      <path
         style="fill:#000000;fill-opacity:1;stroke:none;stroke-width:0"
         d="m 32.002079,161.29291 c 0.03152,-0.74868 0.45709,-0.87477 0.630469,-0.87477 0.512256,0 0.567422,0.67775 0.567422,0.87477 z m 0,0.11033 h 1.402793 c 0.110332,0 0.126094,0 0.126094,-0.11033 0,-0.49649 -0.27583,-0.98511 -0.898418,-0.98511 -0.583184,0 -1.048155,0.52014 -1.048155,1.15061 0,0.66987 0.528018,1.15849 1.103321,1.15849 0.614707,0 0.843252,-0.55954 0.843252,-0.65412 0,-0.0473 -0.03941,-0.063 -0.07093,-0.063 -0.0394,0 -0.05517,0.0315 -0.06305,0.0709 -0.173379,0.52013 -0.630469,0.52013 -0.677754,0.52013 -0.252187,0 -0.449209,-0.14973 -0.567422,-0.33887 -0.149736,-0.23643 -0.149736,-0.56743 -0.149736,-0.74869 z m 0,0"
         id="id-36c7880c-81a7-4922-8ea3-33038f9b3e0b" />
      <path
         style="fill:#000000;fill-opacity:1;stroke:none;stroke-width:0"
         d="m 34.235452,161.29291 c 0.03152,-0.74868 0.45709,-0.87477 0.630469,-0.87477 0.512256,0 0.567422,0.67775 0.567422,0.87477 z m 0,0.11033 h 1.402793 c 0.110332,0 0.126094,0 0.126094,-0.11033 0,-0.49649 -0.27583,-0.98511 -0.898418,-0.98511 -0.583184,0 -1.048155,0.52014 -1.048155,1.15061 0,0.66987 0.528018,1.15849 1.103321,1.15849 0.614707,0 0.843252,-0.55954 0.843252,-0.65412 0,-0.0473 -0.03941,-0.063 -0.07093,-0.063 -0.0394,0 -0.05517,0.0315 -0.06305,0.0709 -0.173379,0.52013 -0.630469,0.52013 -0.677754,0.52013 -0.252187,0 -0.449209,-0.14973 -0.567422,-0.33887 -0.149736,-0.23643 -0.149736,-0.56743 -0.149736,-0.74869 z m 0,0"
         id="id-f493b257-7287-4bd7-8208-a0daab7ad516" />
      <path
         style="fill:#000000;fill-opacity:1;stroke:none;stroke-width:0"
         d="m 39.063896,159.34635 c 0,-0.1261 0,-0.13399 -0.118212,-0.13399 -0.315235,0.32312 -0.756563,0.32312 -0.91418,0.32312 v 0.15762 c 0.102451,0 0.394043,0 0.654111,-0.13398 v 2.60857 c 0,0.18126 -0.01576,0.23642 -0.46497,0.23642 h -0.157618 v 0.15762 c 0.173379,-0.0158 0.606827,-0.0158 0.811729,-0.0158 0.197021,0 0.638349,0 0.811728,0.0158 v -0.15762 h -0.157617 c -0.45709,0 -0.464971,-0.0552 -0.464971,-0.23642 z m 0,0"
         id="id-27ba581d-0b41-4aba-a52d-c4f78fc674fe" />
      <path
         style="color:#000000;fill:#000000;-inkscape-stroke:none"
         d="m 105.95053,155.50011 -5.47852,5.47851 -5.291023,5.29102 -5.29101,5.29297 -5.29297,5.29101 -5.29102,5.29102 0.37305,0.375 5.29297,-5.29297 5.29102,-5.29101 5.29101,-5.29102 5.292973,-5.29297 5.10547,-5.10547 5.10351,5.10547 0.37305,-0.37305 z"
         id="path2564" />
      <path
         style="color:#000000;fill:#9ade00;fill-rule:evenodd;stroke-width:0.211667pt;-inkscape-stroke:none"
         d="m 78.759447,183.06553 c -0.41309,-0.41309 -0.41309,-1.08362 0,-1.49671 0.41309,-0.41309 1.08362,-0.41309 1.49671,0 0.41309,0.41309 0.41309,1.08362 0,1.49671 -0.41309,0.41309 -1.08362,0.41309 -1.49671,0 z"
         id="path2558" />
      <path
         style="color:#000000;fill:#000000;fill-rule:evenodd;-inkscape-stroke:none"
         d="m 79.507167,181.11925 c -0.3073,0 -0.61412,0.11607 -0.84766,0.34961 -0.46708,0.46708 -0.46708,1.23019 0,1.69726 0.46708,0.46708 1.23019,0.46708 1.69727,0 0.46707,-0.46707 0.46707,-1.23018 0,-1.69726 -0.23354,-0.23354 -0.54232,-0.34961 -0.84961,-0.34961 z m 0,0.2793 c 0.23451,0 0.46888,0.09 0.64843,0.26953 0.35911,0.3591 0.35911,0.93777 0,1.29687 -0.3591,0.3591 -0.93777,0.3591 -1.29687,0 -0.3591,-0.3591 -0.3591,-0.93777 0,-1.29687 0.17955,-0.17955 0.41392,-0.26953 0.64844,-0.26953 z"
         id="path2560" />
      <path
         style="color:#000000;fill:#ffc022;fill-rule:evenodd;stroke-width:0.211667pt;-inkscape-stroke:none"
         d="m 84.051117,177.77386 c -0.41309,-0.41309 -0.41309,-1.08362 0,-1.49671 0.41309,-0.41309 1.08362,-0.41309 1.49671,0 0.41309,0.41309 0.41309,1.08362 0,1.49671 -0.41309,0.41309 -1.08362,0.41309 -1.49671,0 z"
         id="path2548" />
      <path
         style="color:#000000;fill:#000000;fill-rule:evenodd;-inkscape-stroke:none"
         d="m 84.800137,175.82628 c -0.3073,0 -0.61608,0.11802 -0.84961,0.35156 -0.46708,0.46708 -0.46708,1.22824 0,1.69532 0.46707,0.46707 1.23018,0.46707 1.69726,0 0.46708,-0.46708 0.46708,-1.22824 0,-1.69532 -0.23354,-0.23354 -0.54036,-0.35156 -0.84765,-0.35156 z m 0,0.28125 c 0.23451,0 0.46888,0.09 0.64843,0.26953 0.3591,0.3591 0.3591,0.93778 0,1.29688 -0.3591,0.3591 -0.93777,0.3591 -1.29687,0 -0.3591,-0.3591 -0.3591,-0.93778 0,-1.29688 0.17955,-0.17955 0.41392,-0.26953 0.64844,-0.26953 z"
         id="path2550" />
      <path
         style="color:#000000;fill:#ffc022;fill-rule:evenodd;stroke-width:0.211667pt;-inkscape-stroke:none"
         d="m 89.342787,172.4822 c -0.41309,-0.41309 -0.41309,-1.08362 0,-1.49671 0.41309,-0.41309 1.08362,-0.41309 1.49671,0 0.41309,0.41309 0.41309,1.08362 0,1.49671 -0.41309,0.41309 -1.08362,0.41309 -1.49671,0 z"
         id="path2538" />
      <path
         style="color:#000000;fill:#000000;fill-rule:evenodd;-inkscape-stroke:none"
         d="m 90.091147,170.53526 c -0.3073,0 -0.61412,0.11608 -0.84766,0.34961 -0.46707,0.46708 -0.46707,1.23019 0,1.69727 0.46708,0.46708 1.22824,0.46708 1.69532,0 0.46707,-0.46708 0.46707,-1.23019 0,-1.69727 -0.23354,-0.23353 -0.54036,-0.34961 -0.84766,-0.34961 z m 0,0.28125 c 0.23451,1e-5 0.46889,0.09 0.64844,0.26954 0.3591,0.3591 0.3591,0.93777 0,1.29687 -0.3591,0.3591 -0.93778,0.3591 -1.29688,0 -0.3591,-0.3591 -0.3591,-0.93777 0,-1.29687 0.17955,-0.17955 0.41393,-0.26954 0.64844,-0.26954 z"
         id="path2540" />
      <path
         style="color:#000000;fill:#ffc022;fill-rule:evenodd;stroke-width:0.211667pt;-inkscape-stroke:none"
         d="m 94.634447,167.19053 c -0.41309,-0.41309 -0.41309,-1.08362 0,-1.49671 0.41309,-0.41309 1.08362,-0.41309 1.49671,0 0.41309,0.41309 0.41309,1.08362 0,1.49671 -0.41309,0.41309 -1.08362,0.41309 -1.49671,0 z"
         id="path2528" />
      <path
         style="color:#000000;fill:#000000;fill-rule:evenodd;-inkscape-stroke:none"
         d="m 95.382167,165.24425 c -0.3073,0 -0.61412,0.11607 -0.84766,0.34961 -0.46708,0.46708 -0.46708,1.23019 0,1.69726 0.46708,0.46708 1.23019,0.46708 1.69727,0 0.46707,-0.46707 0.46707,-1.23018 0,-1.69726 -0.23354,-0.23354 -0.54232,-0.34961 -0.84961,-0.34961 z m 0,0.2793 c 0.23451,0 0.46888,0.09 0.64843,0.26953 0.35911,0.3591 0.35911,0.93777 0,1.29687 -0.3591,0.3591 -0.93777,0.3591 -1.29687,0 -0.3591,-0.3591 -0.3591,-0.93777 0,-1.29687 0.17955,-0.17955 0.41392,-0.26953 0.64844,-0.26953 z"
         id="path2530" />
      <path
         style="color:#000000;fill:#ffc022;fill-rule:evenodd;stroke-width:0.211667pt;-inkscape-stroke:none"
         d="m 99.926117,161.89886 c -0.41309,-0.41309 -0.41309,-1.08362 0,-1.49671 0.413093,-0.41309 1.083623,-0.41309 1.496713,0 0.41309,0.41309 0.41309,1.08362 0,1.49671 -0.41309,0.41309 -1.08362,0.41309 -1.496713,0 z"
         id="path2518" />
      <path
         style="color:#000000;fill:#000000;fill-rule:evenodd;-inkscape-stroke:none"
         d="m 100.67514,159.95128 c -0.3073,0 -0.61608,0.11802 -0.849613,0.35156 -0.46708,0.46708 -0.46708,1.22824 0,1.69532 0.467073,0.46707 1.230183,0.46707 1.697263,0 0.46708,-0.46708 0.46708,-1.22824 0,-1.69532 -0.23354,-0.23354 -0.54036,-0.35156 -0.84765,-0.35156 z m 0,0.28125 c 0.23451,0 0.46888,0.09 0.64843,0.26953 0.3591,0.3591 0.3591,0.93778 0,1.29688 -0.3591,0.3591 -0.93777,0.3591 -1.29687,0 -0.359103,-0.3591 -0.359103,-0.93778 0,-1.29688 0.17955,-0.17955 0.41392,-0.26953 0.64844,-0.26953 z"
         id="path2520" />
      <path
         style="color:#000000;fill:#804d00;fill-rule:evenodd;stroke-width:0.211667pt;-inkscape-stroke:none"
         d="m 104.914,155.8738 c 0,-0.5842 0.47414,-1.05833 1.05834,-1.05833 0.5842,0 1.05833,0.47413 1.05833,1.05833 0,0.5842 -0.47413,1.05833 -1.05833,1.05833 -0.5842,0 -1.05834,-0.47413 -1.05834,-1.05833 z"
         id="path2508" />
      <path
         style="color:#000000;fill:#000000;fill-rule:evenodd;-inkscape-stroke:none"
         d="m 105.97201,154.67394 c -0.66055,0 -1.19922,0.53867 -1.19922,1.19922 0,0.66055 0.53867,1.19921 1.19922,1.19921 0.66055,0 1.19922,-0.53867 1.19922,-1.19921 0,-0.66055 -0.53867,-1.19922 -1.19922,-1.19922 z m 0,0.2832 c 0.50785,0 0.91797,0.40817 0.91797,0.91602 0,0.50785 -0.41012,0.91796 -0.91797,0.91796 -0.50785,0 -0.91602,-0.41012 -0.91602,-0.91796 0,-0.50785 0.40817,-0.91602 0.91602,-0.91602 z"
         id="path2510" />
      <path
         style="color:#000000;fill:#9ade00;fill-rule:evenodd;stroke-width:0.211667pt;-inkscape-stroke:none"
         d="m 110.50945,160.43208 c 0.41309,-0.41309 1.08362,-0.41309 1.49671,0 0.41309,0.41309 0.41309,1.08362 0,1.49671 -0.41309,0.41309 -1.08362,0.41309 -1.49671,0 -0.41309,-0.41309 -0.41309,-1.08362 0,-1.49671 z"
         id="path2498" />
      <path
         style="color:#000000;fill:#000000;fill-rule:evenodd;-inkscape-stroke:none"
         d="m 111.25717,159.98253 c -0.3073,0 -0.61412,0.11607 -0.84766,0.34961 -0.46708,0.46708 -0.46708,1.23019 0,1.69727 0.46708,0.46707 1.23019,0.46707 1.69727,0 0.46707,-0.46708 0.46707,-1.23019 0,-1.69727 -0.23354,-0.23354 -0.54232,-0.34961 -0.84961,-0.34961 z m 0,0.2793 c 0.23451,0 0.46888,0.09 0.64843,0.26953 0.35911,0.3591 0.35911,0.93777 0,1.29687 -0.3591,0.35911 -0.93777,0.35911 -1.29687,0 -0.3591,-0.3591 -0.3591,-0.93777 0,-1.29687 0.17955,-0.17955 0.41392,-0.26953 0.64844,-0.26953 z"
         id="path2500" />
      <rect
         style="font-variation-settings:normal;vector-effect:none;fill:none;fill-opacity:1;fill-rule:evenodd;stroke:#000000;stroke-width:0.264583;stroke-linecap:butt;stroke-linejoin:miter;stroke-miterlimit:4;stroke-dasharray:none;stroke-dashoffset:0;stroke-opacity:1;stop-color:#000000"
         id="rect2002"
         width="42.333332"
         height="37.041668"
         x="74.201164"
         y="150.58214"
         ry="0.13229166" />
      <path
         style="fill:#000000;fill-opacity:1;stroke:none;stroke-width:0"
         d="m 91.839775,145.64963 h -3.07354 l -0.0946,1.13484 h 0.12609 c 0.0709,-0.81173 0.14186,-0.97722 0.9063,-0.97722 0.0867,0 0.22067,0 0.26795,0.008 0.11033,0.0236 0.11033,0.0788 0.11033,0.18914 v 2.65585 c 0,0.1655 0,0.23642 -0.52801,0.23642 h -0.20491 v 0.15762 c 0.20491,-0.0158 0.71716,-0.0158 0.95359,-0.0158 0.22854,0 0.74868,0 0.95358,0.0158 v -0.15762 h -0.2049 c -0.52802,0 -0.52802,-0.0709 -0.52802,-0.23642 v -2.65585 c 0,-0.0946 0,-0.1655 0.0946,-0.18914 0.0552,-0.008 0.18914,-0.008 0.28371,-0.008 0.76445,0 0.83537,0.16549 0.9063,0.97722 h 0.1261 z m 0,0"
         id="id-f69d1b45-b439-4f48-9579-8ad10857869e" />
      <path
         style="fill:#000000;fill-opacity:1;stroke:none;stroke-width:0"
         d="m 92.540475,147.38342 v -0.55166 l -0.70139,0.0552 v 0.15762 c 0.35463,0 0.39404,0.0315 0.39404,0.28371 v 1.34763 c 0,0.22066 -0.0552,0.22066 -0.39404,0.22066 v 0.15762 c 0.19702,-0.008 0.43344,-0.0158 0.5753,-0.0158 0.19702,0 0.43345,0 0.63835,0.0158 v -0.15762 h -0.11033 c -0.3704,0 -0.37829,-0.0552 -0.37829,-0.23642 v -0.77233 c 0,-0.49649 0.21279,-0.9457 0.59107,-0.9457 0.0315,0 0.0473,0 0.0552,0.008 -0.0158,0 -0.11821,0.0631 -0.11821,0.19702 0,0.13398 0.11033,0.21279 0.22067,0.21279 0.0867,0 0.21278,-0.0631 0.21278,-0.22067 0,-0.15762 -0.15762,-0.30735 -0.3704,-0.30735 -0.3704,0 -0.55166,0.33887 -0.61471,0.55166 z m 0,0"
         id="id-81a97f60-5e5b-4d49-867d-da6d4441d400" />
      <path
         style="fill:#000000;fill-opacity:1;stroke:none;stroke-width:0"
         d="m 94.225335,147.78534 c 0.0315,-0.74868 0.45709,-0.87477 0.63047,-0.87477 0.51226,0 0.56742,0.67775 0.56742,0.87477 z m 0,0.11033 h 1.40279 c 0.11034,0 0.1261,0 0.1261,-0.11033 0,-0.49649 -0.27583,-0.98511 -0.89842,-0.98511 -0.58318,0 -1.04815,0.52014 -1.04815,1.15061 0,0.66987 0.52801,1.15849 1.10332,1.15849 0.6147,0 0.84325,-0.55954 0.84325,-0.65412 0,-0.0473 -0.0394,-0.063 -0.0709,-0.063 -0.0394,0 -0.0552,0.0315 -0.0631,0.0709 -0.17338,0.52013 -0.63047,0.52013 -0.67775,0.52013 -0.25219,0 -0.44921,-0.14973 -0.56742,-0.33887 -0.14974,-0.23643 -0.14974,-0.56743 -0.14974,-0.74869 z m 0,0"
         id="id-9abbd12b-7e69-4be0-ba73-990a5ba1db64" />
      <path
         style="fill:#000000;fill-opacity:1;stroke:none;stroke-width:0"
         d="m 96.458205,147.78534 c 0.0315,-0.74868 0.45709,-0.87477 0.63047,-0.87477 0.51226,0 0.56742,0.67775 0.56742,0.87477 z m 0,0.11033 h 1.40279 c 0.11034,0 0.1261,0 0.1261,-0.11033 0,-0.49649 -0.27583,-0.98511 -0.89842,-0.98511 -0.58318,0 -1.04815,0.52014 -1.04815,1.15061 0,0.66987 0.52801,1.15849 1.10332,1.15849 0.6147,0 0.84325,-0.55954 0.84325,-0.65412 0,-0.0473 -0.0394,-0.063 -0.0709,-0.063 -0.0394,0 -0.0552,0.0315 -0.0631,0.0709 -0.17338,0.52013 -0.63047,0.52013 -0.67775,0.52013 -0.25219,0 -0.44921,-0.14973 -0.56742,-0.33887 -0.14974,-0.23643 -0.14974,-0.56743 -0.14974,-0.74869 z m 0,0"
         id="id-f186266a-70cd-4376-865a-9c7e820f0f99" />
      <path
         style="fill:#000000;fill-opacity:1;stroke:none;stroke-width:0"
         d="m 102.06403,148.04541 c 0,-0.59895 -0.40981,-1.10332 -0.9536,-1.10332 -0.23641,0 -0.45708,0.0788 -0.63835,0.26007 v -0.98511 c 0.10245,0.0315 0.26795,0.0631 0.42557,0.0631 0.62259,0 0.97723,-0.45709 0.97723,-0.52014 0,-0.0315 -0.0158,-0.0552 -0.0552,-0.0552 0,0 -0.0158,0 -0.0394,0.0158 -0.10245,0.0473 -0.34675,0.14973 -0.68563,0.14973 -0.19702,0 -0.43345,-0.0394 -0.66987,-0.14185 -0.0394,-0.0158 -0.0473,-0.0158 -0.0552,-0.0158 -0.0552,0 -0.0552,0.0394 -0.0552,0.11821 v 1.48948 c 0,0.0867 0,0.12609 0.0709,0.12609 0.0394,0 0.0473,-0.008 0.0709,-0.0394 0.0552,-0.0788 0.23643,-0.35464 0.64623,-0.35464 0.26007,0 0.38616,0.22855 0.42557,0.32312 0.0788,0.18914 0.0946,0.37828 0.0946,0.63047 0,0.18126 0,0.48073 -0.1261,0.69351 -0.11821,0.19702 -0.30735,0.32312 -0.53589,0.32312 -0.36252,0 -0.65412,-0.26795 -0.74081,-0.55954 0.0158,0 0.0315,0.008 0.0867,0.008 0.1655,0 0.25219,-0.1261 0.25219,-0.24431 0,-0.12609 -0.0867,-0.25219 -0.25219,-0.25219 -0.0709,0 -0.2443,0.0394 -0.2443,0.26795 0,0.43345 0.34676,0.92206 0.9063,0.92206 0.58318,0 1.09544,-0.48073 1.09544,-1.11908 z m 0,0"
         id="id-2759698d-aa9b-453e-b42a-565e68ecb2f4" />
    </g>
  </g>
</svg>
