<?xml version="1.0" encoding="UTF-8" standalone="no"?>
<!-- Created with Inkscape (http://www.inkscape.org/) -->

<svg
   width="140.36212mm"
   height="20.668201mm"
   viewBox="0 0 140.36213 20.668202"
   version="1.1"
   id="svg5"
   sodipodi:docname="left_and_right_limits.svg"
   inkscape:version="1.1 (c4e8f9e, 2021-05-24)"
   xmlns:inkscape="http://www.inkscape.org/namespaces/inkscape"
   xmlns:sodipodi="http://sodipodi.sourceforge.net/DTD/sodipodi-0.dtd"
   xmlns="http://www.w3.org/2000/svg"
   xmlns:svg="http://www.w3.org/2000/svg">
  <sodipodi:namedview
     id="namedview7"
     pagecolor="#ffffff"
     bordercolor="#666666"
     borderopacity="1.0"
     inkscape:pageshadow="2"
     inkscape:pageopacity="0.0"
     inkscape:pagecheckerboard="0"
     inkscape:document-units="mm"
     showgrid="false"
     inkscape:zoom="1.1135662"
     inkscape:cx="240.21922"
     inkscape:cy="45.349796"
     inkscape:window-width="1312"
     inkscape:window-height="847"
     inkscape:window-x="2111"
     inkscape:window-y="25"
     inkscape:window-maximized="0"
     inkscape:current-layer="layer1">
    <inkscape:grid
       type="xygrid"
       id="grid824"
       originx="-0.58380298"
       originy="-122.09723" />
  </sodipodi:namedview>
  <defs
     id="defs2">
    <marker
       style="overflow:visible"
       id="Arrow2Send"
       refX="0"
       refY="0"
       orient="auto"
       inkscape:stockid="Arrow2Send"
       inkscape:isstock="true">
      <path
         transform="matrix(-0.3,0,0,-0.3,0.69,0)"
         d="M 8.7185878,4.0337352 -2.2072895,0.01601326 8.7185884,-4.0017078 c -1.7454984,2.3720609 -1.7354408,5.6174519 -6e-7,8.035443 z"
         style="fill:context-stroke;fill-rule:evenodd;stroke-width:0.625;stroke-linejoin:round"
         id="path1537" />
    </marker>
    <marker
       style="overflow:visible"
       id="DotM"
       refX="0"
       refY="0"
       orient="auto"
       inkscape:stockid="DotM"
       inkscape:isstock="true">
      <path
         transform="matrix(0.4,0,0,0.4,2.96,0.4)"
         style="fill:context-stroke;fill-rule:evenodd;stroke:context-stroke;stroke-width:1pt"
         d="m -2.5,-1 c 0,2.76 -2.24,5 -5,5 -2.76,0 -5,-2.24 -5,-5 0,-2.76 2.24,-5 5,-5 2.76,0 5,2.24 5,5 z"
         id="path1005" />
    </marker>
    <marker
       style="overflow:visible"
       id="DotL"
       refX="0"
       refY="0"
       orient="auto"
       inkscape:stockid="DotL"
       inkscape:isstock="true">
      <path
         transform="matrix(0.8,0,0,0.8,5.92,0.8)"
         style="fill:context-stroke;fill-rule:evenodd;stroke:context-stroke;stroke-width:1pt"
         d="m -2.5,-1 c 0,2.76 -2.24,5 -5,5 -2.76,0 -5,-2.24 -5,-5 0,-2.76 2.24,-5 5,-5 2.76,0 5,2.24 5,5 z"
         id="path1002" />
    </marker>
    <marker
       style="overflow:visible"
       id="Arrow2Mend"
       refX="0"
       refY="0"
       orient="auto"
       inkscape:stockid="Arrow2Mend"
       inkscape:isstock="true">
      <path
         transform="scale(-0.6)"
         d="M 8.7185878,4.0337352 -2.2072895,0.01601326 8.7185884,-4.0017078 c -1.7454984,2.3720609 -1.7354408,5.6174519 -6e-7,8.035443 z"
         style="fill:context-stroke;fill-rule:evenodd;stroke-width:0.625;stroke-linejoin:round"
         id="path968" />
    </marker>
    <marker
       style="overflow:visible"
       id="TriangleOutM"
       refX="0"
       refY="0"
       orient="auto"
       inkscape:stockid="TriangleOutM"
       inkscape:isstock="true">
      <path
         transform="scale(0.4)"
         style="fill:context-stroke;fill-rule:evenodd;stroke:context-stroke;stroke-width:1pt"
         d="M 5.77,0 -2.88,5 V -5 Z"
         id="path1086" />
    </marker>
    <defs
       id="id-c1a66c14-db35-4e06-afd3-3d6a909112cb">
      <g
         id="id-7284f687-e450-43b5-8cca-c0ada2b0bd9f">
        <symbol
           overflow="visible"
           id="id-c4d5a088-6afe-423c-b95d-a9e1d882cab0">
          <path
             style="stroke:none;stroke-width:0"
             d=""
             id="id-ecb1daa3-8951-4af9-824d-9724eb010136" />
        </symbol>
        <symbol
           overflow="visible"
           id="id-75daec88-1e36-46c9-84c2-c495698ce395">
          <path
             style="stroke:none;stroke-width:0"
             d="M 3.328125,-3.015625 C 3.390625,-3.265625 3.625,-4.1875 4.3125,-4.1875 c 0.046875,0 0.296875,0 0.5,0.125 C 4.53125,-4 4.34375,-3.765625 4.34375,-3.515625 c 0,0.15625 0.109375,0.34375 0.375,0.34375 0.21875,0 0.53125,-0.171875 0.53125,-0.578125 0,-0.515625 -0.578125,-0.65625 -0.921875,-0.65625 -0.578125,0 -0.921875,0.53125 -1.046875,0.75 -0.25,-0.65625 -0.78125,-0.75 -1.078125,-0.75 -1.03125,0 -1.609375,1.28125 -1.609375,1.53125 0,0.109375 0.109375,0.109375 0.125,0.109375 0.078125,0 0.109375,-0.03125 0.125,-0.109375 0.34375,-1.0625 1,-1.3125 1.34375,-1.3125 0.1875,0 0.53125,0.09375 0.53125,0.671875 0,0.3125 -0.171875,0.96875 -0.53125,2.375 -0.15625,0.609375 -0.515625,1.03125 -0.953125,1.03125 -0.0625,0 -0.28125,0 -0.5,-0.125 0.25,-0.0625 0.46875,-0.265625 0.46875,-0.546875 0,-0.265625 -0.21875,-0.34375 -0.359375,-0.34375 -0.3125,0 -0.546875,0.25 -0.546875,0.578125 0,0.453125 0.484375,0.65625 0.921875,0.65625 0.671875,0 1.03125,-0.703125 1.046875,-0.75 0.125,0.359375 0.484375,0.75 1.078125,0.75 1.03125,0 1.59375,-1.28125 1.59375,-1.53125 0,-0.109375 -0.078125,-0.109375 -0.109375,-0.109375 -0.09375,0 -0.109375,0.046875 -0.140625,0.109375 -0.328125,1.078125 -1,1.3125 -1.3125,1.3125 -0.390625,0 -0.546875,-0.3125 -0.546875,-0.65625 0,-0.21875 0.046875,-0.4375 0.15625,-0.875 z m 0,0"
             id="id-a4953336-b990-4d90-b28c-9318f84d479a" />
        </symbol>
        <symbol
           overflow="visible"
           id="id-eae5346f-d8f5-431c-87a3-877a29251911">
          <path
             style="stroke:none;stroke-width:0"
             d=""
             id="id-df2fcee9-0dff-4b05-af32-ae460fb92ae6" />
        </symbol>
        <symbol
           overflow="visible"
           id="id-865b1535-affb-43b1-bf3a-5d3028032a33">
          <path
             style="stroke:none;stroke-width:0"
             d="M 3.59375,-2.21875 C 3.59375,-2.984375 3.5,-3.546875 3.1875,-4.03125 2.96875,-4.34375 2.53125,-4.625 1.984375,-4.625 c -1.625,0 -1.625,1.90625 -1.625,2.40625 0,0.5 0,2.359375 1.625,2.359375 1.609375,0 1.609375,-1.859375 1.609375,-2.359375 z M 1.984375,-0.0625 c -0.328125,0 -0.75,-0.1875 -0.890625,-0.75 C 1,-1.21875 1,-1.796875 1,-2.3125 1,-2.828125 1,-3.359375 1.09375,-3.734375 1.25,-4.28125 1.6875,-4.4375 1.984375,-4.4375 c 0.375,0 0.734375,0.234375 0.859375,0.640625 0.109375,0.375 0.125,0.875 0.125,1.484375 0,0.515625 0,1.03125 -0.09375,1.46875 -0.140625,0.640625 -0.609375,0.78125 -0.890625,0.78125 z m 0,0"
             id="id-89f434ca-8e48-40ec-820a-952c2479e4ec" />
        </symbol>
      </g>
    </defs>
  </defs>
  <g
     inkscape:label="Layer 1"
     inkscape:groupmode="layer"
     id="layer1"
     transform="translate(-0.58380322,-122.09719)">
    <g
       id="g3904">
      <g
         id="g1067">
        <path
           style="fill:none;stroke:#000000;stroke-width:0.46861;stroke-linecap:butt;stroke-linejoin:miter;stroke-miterlimit:4;stroke-dasharray:none;stroke-opacity:1;marker-mid:url(#DotM)"
           d="M 0.58380322,126.77592 H 33.334963 66.065726 98.733006 140.94592"
           id="path859"
           sodipodi:nodetypes="ccccc" />
        <path
           style="fill:none;stroke:#000000;stroke-width:0.467873px;stroke-linecap:butt;stroke-linejoin:miter;stroke-opacity:1"
           d="m 66.086118,122.09719 v 9.35746"
           id="path1250" />
        <path
           style="fill:none;stroke:#000000;stroke-width:0.467873px;stroke-linecap:butt;stroke-linejoin:miter;stroke-opacity:1"
           d="m 98.837278,122.09719 v 9.35746"
           id="path1252" />
        <g
           id="id-44e7faa9-f18d-497c-bb39-3b6298e10172"
           transform="matrix(1.1143613,0,0,1.1143613,-130.37237,44.980995)">
          <g
             style="fill:#000000;fill-opacity:1"
             id="id-007b8218-ff30-49c4-8b2f-5648686c99bc">
            <g
               transform="translate(148.712,134.765)"
               id="g1359">
              <path
                 style="fill:#0084c8;stroke:none;stroke-width:0"
                 d="m 57.192685,-51.666672 c 0.0625,-0.25 0.296875,-1.171875 0.984375,-1.171875 0.04687,0 0.296875,0 0.5,0.125 -0.28125,0.0625 -0.46875,0.296875 -0.46875,0.546875 0,0.15625 0.109375,0.34375 0.375,0.34375 0.21875,0 0.53125,-0.171875 0.53125,-0.578125 0,-0.515625 -0.578125,-0.65625 -0.921875,-0.65625 -0.578125,0 -0.921875,0.53125 -1.046875,0.75 -0.25,-0.65625 -0.78125,-0.75 -1.078125,-0.75 -1.03125,0 -1.609375,1.28125 -1.609375,1.53125 0,0.109375 0.109375,0.109375 0.125,0.109375 0.07813,0 0.109375,-0.03125 0.125,-0.109375 0.34375,-1.0625 1,-1.3125 1.34375,-1.3125 0.1875,0 0.53125,0.09375 0.53125,0.671875 0,0.3125 -0.171875,0.96875 -0.53125,2.375 -0.15625,0.609375 -0.515625,1.03125 -0.953125,1.03125 -0.0625,0 -0.28125,0 -0.5,-0.125 0.25,-0.0625 0.46875,-0.265625 0.46875,-0.546875 0,-0.265625 -0.21875,-0.34375 -0.359375,-0.34375 -0.3125,0 -0.546875,0.25 -0.546875,0.578125 0,0.453125 0.484375,0.65625 0.921875,0.65625 0.671875,0 1.03125,-0.703125 1.046875,-0.75 0.125,0.359375 0.484375,0.75 1.078125,0.75 1.03125,0 1.59375,-1.28125 1.59375,-1.53125 0,-0.109375 -0.07813,-0.109375 -0.109375,-0.109375 -0.09375,0 -0.109375,0.04687 -0.140625,0.109375 -0.328125,1.078125 -1,1.3125 -1.3125,1.3125 -0.390625,0 -0.546875,-0.3125 -0.546875,-0.65625 0,-0.21875 0.04687,-0.4375 0.15625,-0.875 z m 0,0"
                 id="id-b47fdbcb-fb7d-4e00-8339-ae3bbe128aa2" />
              <path
                 style="fill:#b50000;stroke:none;stroke-width:0"
                 d="m -2.2125039,-50.885422 c 0.0625,-0.25 0.296875,-1.171875 0.984375,-1.171875 0.04687,0 0.29687493,0 0.49999993,0.125 -0.28125003,0.0625 -0.46874993,0.296875 -0.46874993,0.546875 0,0.15625 0.109375,0.34375 0.37499993,0.34375 0.21875,0 0.53125,-0.171875 0.53125,-0.578125 0,-0.515625 -0.578125,-0.65625 -0.92187493,-0.65625 -0.578125,0 -0.921875,0.53125 -1.046875,0.75 -0.25,-0.65625 -0.78125,-0.75 -1.078125,-0.75 -1.03125,0 -1.609375,1.28125 -1.609375,1.53125 0,0.109375 0.109375,0.109375 0.125,0.109375 0.07813,0 0.109375,-0.03125 0.125,-0.109375 0.34375,-1.0625 1,-1.3125 1.34375,-1.3125 0.1875,0 0.53125,0.09375 0.53125,0.671875 0,0.3125 -0.171875,0.96875 -0.53125,2.375 -0.15625,0.609375 -0.515625,1.03125 -0.953125,1.03125 -0.0625,0 -0.28125,0 -0.5,-0.125 0.25,-0.0625 0.46875,-0.265625 0.46875,-0.546875 0,-0.265625 -0.21875,-0.34375 -0.359375,-0.34375 -0.3125,0 -0.546875,0.25 -0.546875,0.578125 0,0.453125 0.484375,0.65625 0.921875,0.65625 0.671875,0 1.03125,-0.703125 1.046875,-0.75 0.125,0.359375 0.484375,0.75 1.078125,0.75 1.03125,0 1.59374993,-1.28125 1.59374993,-1.53125 0,-0.109375 -0.07813,-0.109375 -0.109375,-0.109375 -0.09375,0 -0.109375,0.04687 -0.140625,0.109375 -0.32812493,1.078125 -0.99999993,1.3125 -1.31249993,1.3125 -0.390625,0 -0.546875,-0.3125 -0.546875,-0.65625 0,-0.21875 0.04687,-0.4375 0.15625,-0.875 z m 0,0"
                 id="path1839" />
            </g>
          </g>
          <g
             style="fill:#000000;fill-opacity:1"
             id="id-27ef2c29-1efd-4ade-b566-56c4957407a7">
            <g
               transform="translate(157.723,134.765)"
               id="g1363" />
          </g>
          <g
             style="fill:#000000;fill-opacity:1"
             id="id-c897014b-2e5c-4f73-a176-e7773bab7854">
            <g
               transform="translate(163.421,136.259)"
               id="g1367">
              <g
                 id="g1437"
                 transform="translate(0,-44.999973)">
                <path
                   style="fill:#000000;fill-opacity:1;stroke:none;stroke-width:0"
                   d="m 12.929528,-8.160004 c 0.0625,-0.25 0.296875,-1.171875 0.984375,-1.171875 0.04687,0 0.296875,0 0.5,0.125 -0.28125,0.0625 -0.46875,0.296875 -0.46875,0.546875 0,0.15625 0.109375,0.34375 0.375,0.34375 0.21875,0 0.53125,-0.171875 0.53125,-0.578125 0,-0.515625 -0.578125,-0.65625 -0.921875,-0.65625 -0.578125,0 -0.921875,0.53125 -1.046875,0.75 -0.25,-0.65625 -0.78125,-0.75 -1.078125,-0.75 -1.03125,0 -1.609375,1.28125 -1.609375,1.53125 0,0.109375 0.109375,0.109375 0.125,0.109375 0.07813,0 0.109375,-0.03125 0.125,-0.109375 0.34375,-1.0625 1,-1.3125 1.34375,-1.3125 0.1875,0 0.53125,0.09375 0.53125,0.671875 0,0.3125 -0.171875,0.96875 -0.53125,2.375 -0.15625,0.609375 -0.515625,1.03125 -0.953125,1.03125 -0.0625,0 -0.28125,0 -0.5,-0.125 0.25,-0.0625 0.46875,-0.265625 0.46875,-0.546875 0,-0.265625 -0.21875,-0.34375 -0.359375,-0.34375 -0.3125,0 -0.5468749,0.25 -0.5468749,0.578125 0,0.453125 0.4843749,0.65625 0.9218749,0.65625 0.671875,0 1.03125,-0.703125 1.046875,-0.75 0.125,0.359375 0.484375,0.75 1.078125,0.75 1.03125,0 1.59375,-1.28125 1.59375,-1.53125 0,-0.109375 -0.07813,-0.109375 -0.109375,-0.109375 -0.09375,0 -0.109375,0.046875 -0.140625,0.109375 -0.328125,1.078125 -1,1.3125 -1.3125,1.3125 -0.390625,0 -0.546875,-0.3125 -0.546875,-0.65625 0,-0.21875 0.04687,-0.4375 0.15625,-0.875 z m 0,0"
                   id="id-6b81a3e2-9c5a-48a6-b29a-a2ccf2a9ee37" />
                <path
                   style="stroke:none;stroke-width:0"
                   d="m 18.893151,-5.8691273 c 0,-0.765625 -0.09375,-1.328125 -0.40625,-1.8125 -0.21875,-0.3125 -0.65625,-0.59375 -1.203125,-0.59375 -1.625,0 -1.625,1.90625 -1.625,2.40625 0,0.5 0,2.359375 1.625,2.359375 1.609375,0 1.609375,-1.859375 1.609375,-2.359375 z m -1.609375,2.15625 c -0.328125,0 -0.75,-0.1875 -0.890625,-0.75 -0.09375,-0.40625 -0.09375,-0.984375 -0.09375,-1.5 0,-0.515625 0,-1.046875 0.09375,-1.421875 0.15625,-0.546875 0.59375,-0.703125 0.890625,-0.703125 0.375,0 0.734375,0.234375 0.859375,0.640625 0.109375,0.375 0.125,0.875 0.125,1.484375 0,0.515625 0,1.03125 -0.09375,1.46875 -0.140625,0.640625 -0.609375,0.78125 -0.890625,0.78125 z m 0,0"
                   id="id-076e287b-c659-4004-b631-4d45fe3332e0" />
              </g>
            </g>
          </g>
        </g>
        <path
           style="fill:none;stroke:#000000;stroke-width:0.467873px;stroke-linecap:butt;stroke-linejoin:miter;stroke-opacity:1"
           d="m 33.334963,122.09719 v 9.35746"
           id="path1738" />
      </g>
      <path
         style="fill:none;stroke:#005c94;stroke-width:0.465;stroke-linecap:butt;stroke-linejoin:miter;stroke-miterlimit:4;stroke-dasharray:none;stroke-opacity:1;marker-mid:url(#TriangleOutM)"
         d="m 33.072917,126.99997 h 4.101287 4.0392 2.1384 2.6136 2.2572 2.6136 2.8512 2.8512 1.6632 1.782 3.2076 2.95443"
         id="path1502"
         sodipodi:nodetypes="ccccccccccccc" />
      <path
         style="fill:none;stroke:#b50000;stroke-width:0.465;stroke-linecap:butt;stroke-linejoin:miter;stroke-miterlimit:4;stroke-dasharray:none;stroke-opacity:1;marker-mid:url(#TriangleOutM)"
         d="m 99.218749,126.99997 h -2.882144 -1.782 -2.0196 -1.9008 -2.6136 -2.376 -2.376 -1.782 -2.0196 -1.544401 -1.9008 -1.6632 -2.2572 -2.0196 -2.1384 -1.797571"
         id="path2203"
         sodipodi:nodetypes="ccccccccccccccccc" />
    </g>
  </g>
</svg>
