<?xml version="1.0" encoding="UTF-8" standalone="no"?>
<!-- Created with Inkscape (http://www.inkscape.org/) -->

<svg
   width="154.03784mm"
   height="59.931343mm"
   viewBox="0 0 154.03784 59.931343"
   version="1.1"
   id="svg5"
   sodipodi:docname="linked_list_compare.svg"
   inkscape:version="1.1 (c4e8f9e, 2021-05-24)"
   xmlns:inkscape="http://www.inkscape.org/namespaces/inkscape"
   xmlns:sodipodi="http://sodipodi.sourceforge.net/DTD/sodipodi-0.dtd"
   xmlns="http://www.w3.org/2000/svg"
   xmlns:svg="http://www.w3.org/2000/svg">
  <sodipodi:namedview
     id="namedview7"
     pagecolor="#ffffff"
     bordercolor="#666666"
     borderopacity="1.0"
     inkscape:pageshadow="2"
     inkscape:pageopacity="0.0"
     inkscape:pagecheckerboard="0"
     inkscape:document-units="mm"
     showgrid="false"
     inkscape:zoom="0.53958806"
     inkscape:cx="295.59587"
     inkscape:cy="-8.3396953"
     inkscape:window-width="1440"
     inkscape:window-height="847"
     inkscape:window-x="0"
     inkscape:window-y="25"
     inkscape:window-maximized="0"
     inkscape:current-layer="layer1">
    <inkscape:grid
       type="xygrid"
       id="grid910"
       originx="-31.492854"
       originy="-36.753348" />
  </sodipodi:namedview>
  <defs
     id="defs2">
    <marker
       style="overflow:visible"
       id="marker3614"
       refX="0"
       refY="0"
       orient="auto"
       inkscape:stockid="Arrow2Mend"
       inkscape:isstock="true">
      <path
         transform="scale(-0.6)"
         d="M 8.7185878,4.0337352 -2.2072895,0.01601326 8.7185884,-4.0017078 c -1.7454984,2.3720609 -1.7354408,5.6174519 -6e-7,8.035443 z"
         style="fill:context-stroke;fill-rule:evenodd;stroke-width:0.625;stroke-linejoin:round"
         id="path3612" />
    </marker>
    <marker
       style="overflow:visible"
       id="DotM"
       refX="0"
       refY="0"
       orient="auto"
       inkscape:stockid="DotM"
       inkscape:isstock="true">
      <path
         transform="matrix(0.4,0,0,0.4,2.96,0.4)"
         style="fill:context-stroke;fill-rule:evenodd;stroke:context-stroke;stroke-width:1pt"
         d="m -2.5,-1 c 0,2.76 -2.24,5 -5,5 -2.76,0 -5,-2.24 -5,-5 0,-2.76 2.24,-5 5,-5 2.76,0 5,2.24 5,5 z"
         id="path2913" />
    </marker>
    <marker
       style="overflow:visible"
       id="DotL"
       refX="0"
       refY="0"
       orient="auto"
       inkscape:stockid="DotL"
       inkscape:isstock="true">
      <path
         transform="matrix(0.8,0,0,0.8,5.92,0.8)"
         style="fill:context-stroke;fill-rule:evenodd;stroke:context-stroke;stroke-width:1pt"
         d="m -2.5,-1 c 0,2.76 -2.24,5 -5,5 -2.76,0 -5,-2.24 -5,-5 0,-2.76 2.24,-5 5,-5 2.76,0 5,2.24 5,5 z"
         id="path2910" />
    </marker>
    <marker
       style="overflow:visible"
       id="Arrow2Mend"
       refX="0"
       refY="0"
       orient="auto"
       inkscape:stockid="Arrow2Mend"
       inkscape:isstock="true">
      <path
         transform="scale(-0.6)"
         d="M 8.7185878,4.0337352 -2.2072895,0.01601326 8.7185884,-4.0017078 c -1.7454984,2.3720609 -1.7354408,5.6174519 -6e-7,8.035443 z"
         style="fill:context-stroke;fill-rule:evenodd;stroke-width:0.625;stroke-linejoin:round"
         id="path2876" />
    </marker>
    <marker
       style="overflow:visible"
       id="TriangleOutM"
       refX="0"
       refY="0"
       orient="auto"
       inkscape:stockid="TriangleOutM"
       inkscape:isstock="true">
      <path
         transform="scale(0.4)"
         style="fill:context-stroke;fill-rule:evenodd;stroke:context-stroke;stroke-width:1pt"
         d="M 5.77,0 -2.88,5 V -5 Z"
         id="path2994" />
    </marker>
    <marker
       style="overflow:visible"
       id="TriangleOutL"
       refX="0"
       refY="0"
       orient="auto"
       inkscape:stockid="TriangleOutL"
       inkscape:isstock="true">
      <path
         transform="scale(0.8)"
         style="fill:context-stroke;fill-rule:evenodd;stroke:context-stroke;stroke-width:1pt"
         d="M 5.77,0 -2.88,5 V -5 Z"
         id="path2991" />
    </marker>
    <defs
       id="defs1134">
      <g
         id="g1132">
        <symbol
           overflow="visible"
           id="symbol1110">
          <path
             style="stroke:none;stroke-width:0"
             d=""
             id="path1108" />
        </symbol>
        <symbol
           overflow="visible"
           id="symbol1114">
          <path
             style="stroke:none;stroke-width:0"
             d="M 3.65625,-3.328125 C 4.21875,-3.6875 4.5,-4.25 4.5,-4.796875 c 0,-0.734375 -0.734375,-1.40625 -1.875,-1.40625 -1.203125,0 -1.890625,0.484375 -1.890625,1.171875 0,0.328125 0.25,0.46875 0.4375,0.46875 0.21875,0 0.4375,-0.171875 0.4375,-0.453125 0,-0.140625 -0.046875,-0.234375 -0.078125,-0.265625 0.296875,-0.3125 1.015625,-0.3125 1.09375,-0.3125 0.6875,0 1.1875,0.359375 1.1875,0.8125 0,0.296875 -0.15625,0.640625 -0.421875,0.859375 C 3.078125,-3.65625 2.828125,-3.640625 2.46875,-3.625 1.890625,-3.578125 1.75,-3.578125 1.75,-3.296875 c 0,0.3125 0.234375,0.3125 0.390625,0.3125 h 0.46875 c 0.984375,0 1.484375,0.671875 1.484375,1.25 C 4.09375,-1.125 3.53125,-0.5 2.625,-0.5 2.234375,-0.5 1.46875,-0.609375 1.203125,-1.078125 1.25,-1.125 1.328125,-1.1875 1.328125,-1.390625 c 0,-0.234375 -0.1875,-0.4375 -0.4375,-0.4375 -0.234375,0 -0.453125,0.15625 -0.453125,0.46875 0,0.890625 0.96875,1.46875 2.1875,1.46875 1.3125,0 2.15625,-0.921875 2.15625,-1.84375 0,-0.703125 -0.46875,-1.296875 -1.125,-1.59375 z m 0,0"
             id="path1112" />
        </symbol>
        <symbol
           overflow="visible"
           id="symbol1118">
          <path
             style="stroke:none;stroke-width:0"
             d="m 3.765625,-5.484375 c -1.734375,1.828125 -2.078125,4.03125 -2.078125,5.125 0,0.140625 0,0.46875 0.359375,0.46875 C 2.21875,0.109375 2.375,0 2.375,-0.296875 2.4375,-3.125 3.953125,-4.859375 4.5625,-5.4375 4.765625,-5.625 4.78125,-5.640625 4.78125,-5.78125 c 0,-0.3125 -0.234375,-0.3125 -0.390625,-0.3125 H 1.09375 C 1.03125,-6.25 0.859375,-6.25 0.78125,-6.25 0.4375,-6.25 0.4375,-6.03125 0.4375,-5.84375 v 0.421875 c 0,0.1875 0,0.40625 0.34375,0.40625 0.34375,0 0.34375,-0.1875 0.34375,-0.46875 z m 0,0"
             id="path1116" />
        </symbol>
        <symbol
           overflow="visible"
           id="symbol1122">
          <path
             style="stroke:none;stroke-width:0"
             d="M 0.671875,-0.578125 C 0.578125,-0.5 0.515625,-0.453125 0.515625,-0.3125 0.515625,0 0.765625,0 0.921875,0 H 4.3125 c 0.328125,0 0.390625,-0.09375 0.390625,-0.40625 v -0.265625 c 0,-0.1875 0,-0.40625 -0.34375,-0.40625 -0.34375,0 -0.34375,0.1875 -0.34375,0.46875 h -2.375 c 0.59375,-0.5 1.546875,-1.25 1.984375,-1.65625 0.625,-0.5625 1.078125,-1.1875 1.078125,-1.984375 0,-1.203125 -1,-1.953125 -2.21875,-1.953125 -1.171875,0 -1.96875,0.8125 -1.96875,1.671875 0,0.359375 0.28125,0.46875 0.453125,0.46875 0.203125,0 0.4375,-0.171875 0.4375,-0.4375 0,-0.125 -0.046875,-0.25 -0.140625,-0.328125 0.15625,-0.453125 0.625,-0.765625 1.171875,-0.765625 0.8125,0 1.578125,0.453125 1.578125,1.34375 0,0.6875 -0.484375,1.265625 -1.140625,1.8125 z m 0,0"
             id="path1120" />
        </symbol>
        <symbol
           overflow="visible"
           id="symbol1126">
          <path
             style="stroke:none;stroke-width:0"
             d="M 3.984375,-2.71875 C 3.890625,-1.484375 3.109375,-0.5 2.15625,-0.5 2.0625,-0.5 1.703125,-0.515625 1.5,-0.671875 1.53125,-0.71875 1.578125,-0.78125 1.578125,-0.953125 c 0,-0.234375 -0.171875,-0.4375 -0.4375,-0.4375 -0.25,0 -0.4375,0.171875 -0.4375,0.46875 0,0.328125 0.171875,1.03125 1.453125,1.03125 1.3125,0 2.53125,-1.25 2.53125,-3.21875 0,-2.40625 -1.09375,-3.09375 -2.046875,-3.09375 -1.109375,0 -2.109375,0.828125 -2.109375,2.03125 0,1.140625 0.875,2.03125 1.96875,2.03125 0.515625,0 1.03125,-0.171875 1.484375,-0.578125 z m -1.4375,-0.046875 c -0.796875,0 -1.328125,-0.65625 -1.328125,-1.40625 0,-0.859375 0.703125,-1.421875 1.421875,-1.421875 0.4375,0 0.703125,0.234375 0.875,0.4375 0.25,0.328125 0.375,0.828125 0.375,0.890625 0,0.015625 -0.015625,0.03125 -0.015625,0.09375 0,0.046875 0.046875,0.203125 0.046875,0.296875 0,0.546875 -0.546875,1.109375 -1.375,1.109375 z m 0,0"
             id="path1124" />
        </symbol>
        <symbol
           overflow="visible"
           id="symbol1130">
          <path
             style="stroke:none;stroke-width:0"
             d="m 3.09375,-5.796875 c 0,-0.15625 0,-0.40625 -0.296875,-0.40625 -0.1875,0 -0.25,0.125 -0.296875,0.234375 C 2.125,-5.109375 1.609375,-5 1.421875,-4.984375 c -0.171875,0.015625 -0.375,0.03125 -0.375,0.3125 0,0.25 0.171875,0.296875 0.328125,0.296875 0.1875,0 0.59375,-0.0625 1.03125,-0.4375 v 4.203125 H 1.5 c -0.15625,0 -0.390625,0 -0.390625,0.3125 C 1.109375,0 1.359375,0 1.5,0 H 4 c 0.15625,0 0.40625,0 0.40625,-0.296875 0,-0.3125 -0.234375,-0.3125 -0.40625,-0.3125 H 3.09375 Z m 0,0"
             id="path1128" />
        </symbol>
      </g>
    </defs>
    <defs
       id="defs1974">
      <g
         id="g1972">
        <symbol
           overflow="visible"
           id="symbol1950">
          <path
             style="stroke:none;stroke-width:0"
             d=""
             id="path1948" />
        </symbol>
        <symbol
           overflow="visible"
           id="symbol1954">
          <path
             style="stroke:none;stroke-width:0"
             d="M 3.65625,-3.328125 C 4.21875,-3.6875 4.5,-4.25 4.5,-4.796875 c 0,-0.734375 -0.734375,-1.40625 -1.875,-1.40625 -1.203125,0 -1.890625,0.484375 -1.890625,1.171875 0,0.328125 0.25,0.46875 0.4375,0.46875 0.21875,0 0.4375,-0.171875 0.4375,-0.453125 0,-0.140625 -0.046875,-0.234375 -0.078125,-0.265625 0.296875,-0.3125 1.015625,-0.3125 1.09375,-0.3125 0.6875,0 1.1875,0.359375 1.1875,0.8125 0,0.296875 -0.15625,0.640625 -0.421875,0.859375 C 3.078125,-3.65625 2.828125,-3.640625 2.46875,-3.625 1.890625,-3.578125 1.75,-3.578125 1.75,-3.296875 c 0,0.3125 0.234375,0.3125 0.390625,0.3125 h 0.46875 c 0.984375,0 1.484375,0.671875 1.484375,1.25 C 4.09375,-1.125 3.53125,-0.5 2.625,-0.5 2.234375,-0.5 1.46875,-0.609375 1.203125,-1.078125 1.25,-1.125 1.328125,-1.1875 1.328125,-1.390625 c 0,-0.234375 -0.1875,-0.4375 -0.4375,-0.4375 -0.234375,0 -0.453125,0.15625 -0.453125,0.46875 0,0.890625 0.96875,1.46875 2.1875,1.46875 1.3125,0 2.15625,-0.921875 2.15625,-1.84375 0,-0.703125 -0.46875,-1.296875 -1.125,-1.59375 z m 0,0"
             id="path1952" />
        </symbol>
        <symbol
           overflow="visible"
           id="symbol1958">
          <path
             style="stroke:none;stroke-width:0"
             d="m 3.765625,-5.484375 c -1.734375,1.828125 -2.078125,4.03125 -2.078125,5.125 0,0.140625 0,0.46875 0.359375,0.46875 C 2.21875,0.109375 2.375,0 2.375,-0.296875 2.4375,-3.125 3.953125,-4.859375 4.5625,-5.4375 4.765625,-5.625 4.78125,-5.640625 4.78125,-5.78125 c 0,-0.3125 -0.234375,-0.3125 -0.390625,-0.3125 H 1.09375 C 1.03125,-6.25 0.859375,-6.25 0.78125,-6.25 0.4375,-6.25 0.4375,-6.03125 0.4375,-5.84375 v 0.421875 c 0,0.1875 0,0.40625 0.34375,0.40625 0.34375,0 0.34375,-0.1875 0.34375,-0.46875 z m 0,0"
             id="path1956" />
        </symbol>
        <symbol
           overflow="visible"
           id="symbol1962">
          <path
             style="stroke:none;stroke-width:0"
             d="M 0.671875,-0.578125 C 0.578125,-0.5 0.515625,-0.453125 0.515625,-0.3125 0.515625,0 0.765625,0 0.921875,0 H 4.3125 c 0.328125,0 0.390625,-0.09375 0.390625,-0.40625 v -0.265625 c 0,-0.1875 0,-0.40625 -0.34375,-0.40625 -0.34375,0 -0.34375,0.1875 -0.34375,0.46875 h -2.375 c 0.59375,-0.5 1.546875,-1.25 1.984375,-1.65625 0.625,-0.5625 1.078125,-1.1875 1.078125,-1.984375 0,-1.203125 -1,-1.953125 -2.21875,-1.953125 -1.171875,0 -1.96875,0.8125 -1.96875,1.671875 0,0.359375 0.28125,0.46875 0.453125,0.46875 0.203125,0 0.4375,-0.171875 0.4375,-0.4375 0,-0.125 -0.046875,-0.25 -0.140625,-0.328125 0.15625,-0.453125 0.625,-0.765625 1.171875,-0.765625 0.8125,0 1.578125,0.453125 1.578125,1.34375 0,0.6875 -0.484375,1.265625 -1.140625,1.8125 z m 0,0"
             id="path1960" />
        </symbol>
        <symbol
           overflow="visible"
           id="symbol1966">
          <path
             style="stroke:none;stroke-width:0"
             d="M 3.984375,-2.71875 C 3.890625,-1.484375 3.109375,-0.5 2.15625,-0.5 2.0625,-0.5 1.703125,-0.515625 1.5,-0.671875 1.53125,-0.71875 1.578125,-0.78125 1.578125,-0.953125 c 0,-0.234375 -0.171875,-0.4375 -0.4375,-0.4375 -0.25,0 -0.4375,0.171875 -0.4375,0.46875 0,0.328125 0.171875,1.03125 1.453125,1.03125 1.3125,0 2.53125,-1.25 2.53125,-3.21875 0,-2.40625 -1.09375,-3.09375 -2.046875,-3.09375 -1.109375,0 -2.109375,0.828125 -2.109375,2.03125 0,1.140625 0.875,2.03125 1.96875,2.03125 0.515625,0 1.03125,-0.171875 1.484375,-0.578125 z m -1.4375,-0.046875 c -0.796875,0 -1.328125,-0.65625 -1.328125,-1.40625 0,-0.859375 0.703125,-1.421875 1.421875,-1.421875 0.4375,0 0.703125,0.234375 0.875,0.4375 0.25,0.328125 0.375,0.828125 0.375,0.890625 0,0.015625 -0.015625,0.03125 -0.015625,0.09375 0,0.046875 0.046875,0.203125 0.046875,0.296875 0,0.546875 -0.546875,1.109375 -1.375,1.109375 z m 0,0"
             id="path1964" />
        </symbol>
        <symbol
           overflow="visible"
           id="symbol1970">
          <path
             style="stroke:none;stroke-width:0"
             d="m 3.09375,-5.796875 c 0,-0.15625 0,-0.40625 -0.296875,-0.40625 -0.1875,0 -0.25,0.125 -0.296875,0.234375 C 2.125,-5.109375 1.609375,-5 1.421875,-4.984375 c -0.171875,0.015625 -0.375,0.03125 -0.375,0.3125 0,0.25 0.171875,0.296875 0.328125,0.296875 0.1875,0 0.59375,-0.0625 1.03125,-0.4375 v 4.203125 H 1.5 c -0.15625,0 -0.390625,0 -0.390625,0.3125 C 1.109375,0 1.359375,0 1.5,0 H 4 c 0.15625,0 0.40625,0 0.40625,-0.296875 0,-0.3125 -0.234375,-0.3125 -0.40625,-0.3125 H 3.09375 Z m 0,0"
             id="path1968" />
        </symbol>
      </g>
    </defs>
    <defs
       id="id-54d576c3-302a-405d-9b2b-3edff6944b72">
      <g
         id="id-aa43d2cf-f91b-4af5-892c-df1d83c7bbbd">
        <symbol
           overflow="visible"
           id="id-09bc94d4-9da6-454f-b505-ebfb89ca24b4">
          <path
             style="stroke:none;stroke-width:0"
             d=""
             id="id-fa85707a-46cd-46ea-b4f6-230459442018" />
        </symbol>
        <symbol
           overflow="visible"
           id="id-34ef0088-ab42-43c8-a1cb-0d05eee15527">
          <path
             style="stroke:none;stroke-width:0"
             d="M 3.65625,-3.328125 C 4.21875,-3.6875 4.5,-4.25 4.5,-4.796875 c 0,-0.734375 -0.734375,-1.40625 -1.875,-1.40625 -1.203125,0 -1.890625,0.484375 -1.890625,1.171875 0,0.328125 0.25,0.46875 0.4375,0.46875 0.21875,0 0.4375,-0.171875 0.4375,-0.453125 0,-0.140625 -0.046875,-0.234375 -0.078125,-0.265625 0.296875,-0.3125 1.015625,-0.3125 1.09375,-0.3125 0.6875,0 1.1875,0.359375 1.1875,0.8125 0,0.296875 -0.15625,0.640625 -0.421875,0.859375 C 3.078125,-3.65625 2.828125,-3.640625 2.46875,-3.625 1.890625,-3.578125 1.75,-3.578125 1.75,-3.296875 c 0,0.3125 0.234375,0.3125 0.390625,0.3125 h 0.46875 c 0.984375,0 1.484375,0.671875 1.484375,1.25 C 4.09375,-1.125 3.53125,-0.5 2.625,-0.5 2.234375,-0.5 1.46875,-0.609375 1.203125,-1.078125 1.25,-1.125 1.328125,-1.1875 1.328125,-1.390625 c 0,-0.234375 -0.1875,-0.4375 -0.4375,-0.4375 -0.234375,0 -0.453125,0.15625 -0.453125,0.46875 0,0.890625 0.96875,1.46875 2.1875,1.46875 1.3125,0 2.15625,-0.921875 2.15625,-1.84375 0,-0.703125 -0.46875,-1.296875 -1.125,-1.59375 z m 0,0"
             id="id-853cc278-a3f6-4f6e-8b96-296dfb2c2a41" />
        </symbol>
        <symbol
           overflow="visible"
           id="id-13dde740-2c55-4bab-a4d3-6597cb9a2747">
          <path
             style="stroke:none;stroke-width:0"
             d="m 3.765625,-5.484375 c -1.734375,1.828125 -2.078125,4.03125 -2.078125,5.125 0,0.140625 0,0.46875 0.359375,0.46875 C 2.21875,0.109375 2.375,0 2.375,-0.296875 2.4375,-3.125 3.953125,-4.859375 4.5625,-5.4375 4.765625,-5.625 4.78125,-5.640625 4.78125,-5.78125 c 0,-0.3125 -0.234375,-0.3125 -0.390625,-0.3125 H 1.09375 C 1.03125,-6.25 0.859375,-6.25 0.78125,-6.25 0.4375,-6.25 0.4375,-6.03125 0.4375,-5.84375 v 0.421875 c 0,0.1875 0,0.40625 0.34375,0.40625 0.34375,0 0.34375,-0.1875 0.34375,-0.46875 z m 0,0"
             id="id-2347de8c-e32c-4bcb-ae71-5618b89075fb" />
        </symbol>
        <symbol
           overflow="visible"
           id="id-59cf0f6f-f7c9-4d4a-a99e-937b053c2f5c">
          <path
             style="stroke:none;stroke-width:0"
             d="M 0.671875,-0.578125 C 0.578125,-0.5 0.515625,-0.453125 0.515625,-0.3125 0.515625,0 0.765625,0 0.921875,0 H 4.3125 c 0.328125,0 0.390625,-0.09375 0.390625,-0.40625 v -0.265625 c 0,-0.1875 0,-0.40625 -0.34375,-0.40625 -0.34375,0 -0.34375,0.1875 -0.34375,0.46875 h -2.375 c 0.59375,-0.5 1.546875,-1.25 1.984375,-1.65625 0.625,-0.5625 1.078125,-1.1875 1.078125,-1.984375 0,-1.203125 -1,-1.953125 -2.21875,-1.953125 -1.171875,0 -1.96875,0.8125 -1.96875,1.671875 0,0.359375 0.28125,0.46875 0.453125,0.46875 0.203125,0 0.4375,-0.171875 0.4375,-0.4375 0,-0.125 -0.046875,-0.25 -0.140625,-0.328125 0.15625,-0.453125 0.625,-0.765625 1.171875,-0.765625 0.8125,0 1.578125,0.453125 1.578125,1.34375 0,0.6875 -0.484375,1.265625 -1.140625,1.8125 z m 0,0"
             id="id-5583d5fc-7dd4-4862-88c4-e90876462d6b" />
        </symbol>
        <symbol
           overflow="visible"
           id="id-da086ef6-1448-4774-9607-97b7879dd0e6">
          <path
             style="stroke:none;stroke-width:0"
             d="M 3.984375,-2.71875 C 3.890625,-1.484375 3.109375,-0.5 2.15625,-0.5 2.0625,-0.5 1.703125,-0.515625 1.5,-0.671875 1.53125,-0.71875 1.578125,-0.78125 1.578125,-0.953125 c 0,-0.234375 -0.171875,-0.4375 -0.4375,-0.4375 -0.25,0 -0.4375,0.171875 -0.4375,0.46875 0,0.328125 0.171875,1.03125 1.453125,1.03125 1.3125,0 2.53125,-1.25 2.53125,-3.21875 0,-2.40625 -1.09375,-3.09375 -2.046875,-3.09375 -1.109375,0 -2.109375,0.828125 -2.109375,2.03125 0,1.140625 0.875,2.03125 1.96875,2.03125 0.515625,0 1.03125,-0.171875 1.484375,-0.578125 z m -1.4375,-0.046875 c -0.796875,0 -1.328125,-0.65625 -1.328125,-1.40625 0,-0.859375 0.703125,-1.421875 1.421875,-1.421875 0.4375,0 0.703125,0.234375 0.875,0.4375 0.25,0.328125 0.375,0.828125 0.375,0.890625 0,0.015625 -0.015625,0.03125 -0.015625,0.09375 0,0.046875 0.046875,0.203125 0.046875,0.296875 0,0.546875 -0.546875,1.109375 -1.375,1.109375 z m 0,0"
             id="id-878f2497-dd6e-43fd-a4f6-be5aedb1b14b" />
        </symbol>
        <symbol
           overflow="visible"
           id="id-89c3bd7a-52ab-4695-8c38-8a7e69328abe">
          <path
             style="stroke:none;stroke-width:0"
             d="m 3.09375,-5.796875 c 0,-0.15625 0,-0.40625 -0.296875,-0.40625 -0.1875,0 -0.25,0.125 -0.296875,0.234375 C 2.125,-5.109375 1.609375,-5 1.421875,-4.984375 c -0.171875,0.015625 -0.375,0.03125 -0.375,0.3125 0,0.25 0.171875,0.296875 0.328125,0.296875 0.1875,0 0.59375,-0.0625 1.03125,-0.4375 v 4.203125 H 1.5 c -0.15625,0 -0.390625,0 -0.390625,0.3125 C 1.109375,0 1.359375,0 1.5,0 H 4 c 0.15625,0 0.40625,0 0.40625,-0.296875 0,-0.3125 -0.234375,-0.3125 -0.40625,-0.3125 H 3.09375 Z m 0,0"
             id="id-b7082a60-4c07-4e22-8518-a62d1ab26563" />
        </symbol>
      </g>
    </defs>
    <defs
       id="id-3e58e50f-73ab-41d9-9f0e-880b3fbf193e">
      <g
         id="id-a626c7be-d2f3-4df3-a5ed-2940eabe70a3">
        <symbol
           overflow="visible"
           id="id-6c5d8d44-792e-44b0-aa9f-9b23920224da">
          <path
             style="stroke:none;stroke-width:0"
             d=""
             id="id-daaf5714-dc12-461a-9ab2-fd49f9f8ee6d" />
        </symbol>
        <symbol
           overflow="visible"
           id="id-01c1fae9-3da6-4ecf-9a6b-c8d4c8bb111f">
          <path
             style="stroke:none;stroke-width:0"
             d="m 2.078125,-1.9375 c 0.21875,0.046875 1.03125,0.203125 1.03125,0.921875 0,0.5 -0.34375,0.90625 -1.125,0.90625 -0.84375,0 -1.203125,-0.5625 -1.390625,-1.421875 C 0.5625,-1.65625 0.5625,-1.6875 0.453125,-1.6875 c -0.125,0 -0.125,0.0625 -0.125,0.234375 V -0.125 c 0,0.171875 0,0.234375 0.109375,0.234375 0.046875,0 0.0625,-0.015625 0.25,-0.203125 0.015625,-0.015625 0.015625,-0.03125 0.203125,-0.21875 0.4375,0.40625 0.890625,0.421875 1.09375,0.421875 1.140625,0 1.609375,-0.671875 1.609375,-1.390625 0,-0.515625 -0.296875,-0.828125 -0.421875,-0.9375 C 2.84375,-2.546875 2.453125,-2.625 2.03125,-2.703125 1.46875,-2.8125 0.8125,-2.9375 0.8125,-3.515625 c 0,-0.359375 0.25,-0.765625 1.109375,-0.765625 1.09375,0 1.15625,0.90625 1.171875,1.203125 0,0.09375 0.09375,0.09375 0.109375,0.09375 0.140625,0 0.140625,-0.046875 0.140625,-0.234375 v -1.015625 c 0,-0.15625 0,-0.234375 -0.109375,-0.234375 -0.046875,0 -0.078125,0 -0.203125,0.125 -0.03125,0.03125 -0.125,0.125 -0.171875,0.15625 -0.375,-0.28125 -0.78125,-0.28125 -0.9375,-0.28125 -1.21875,0 -1.59375,0.671875 -1.59375,1.234375 0,0.34375 0.15625,0.625 0.421875,0.84375 0.328125,0.25 0.609375,0.3125 1.328125,0.453125 z m 0,0"
             id="id-0420ea80-03ca-40b2-8982-70099dbcc9c7" />
        </symbol>
        <symbol
           overflow="visible"
           id="id-882d4a86-ad69-4d8f-8528-01426f4019ca">
          <path
             style="stroke:none;stroke-width:0"
             d="m 1.71875,-3.984375 h 1.4375 v -0.3125 H 1.71875 V -6.125 h -0.25 c 0,0.8125 -0.296875,1.875 -1.28125,1.921875 v 0.21875 h 0.84375 v 2.75 c 0,1.21875 0.9375,1.34375 1.296875,1.34375 0.703125,0 0.984375,-0.703125 0.984375,-1.34375 v -0.5625 h -0.25 V -1.25 c 0,0.734375 -0.296875,1.109375 -0.671875,1.109375 -0.671875,0 -0.671875,-0.90625 -0.671875,-1.078125 z m 0,0"
             id="id-969b4471-2674-47ed-a96e-2ce17abadb4a" />
        </symbol>
        <symbol
           overflow="visible"
           id="id-3260949a-4b4e-41f5-b638-5fa55606c673">
          <path
             style="stroke:none;stroke-width:0"
             d="m 3.3125,-0.75 c 0.046875,0.390625 0.3125,0.8125 0.78125,0.8125 0.21875,0 0.828125,-0.140625 0.828125,-0.953125 v -0.5625 h -0.25 v 0.5625 c 0,0.578125 -0.25,0.640625 -0.359375,0.640625 -0.328125,0 -0.375,-0.453125 -0.375,-0.5 v -1.984375 c 0,-0.421875 0,-0.8125 -0.359375,-1.1875 C 3.1875,-4.3125 2.6875,-4.46875 2.21875,-4.46875 c -0.828125,0 -1.515625,0.46875 -1.515625,1.125 0,0.296875 0.203125,0.46875 0.46875,0.46875 0.28125,0 0.453125,-0.203125 0.453125,-0.453125 0,-0.125 -0.046875,-0.453125 -0.515625,-0.453125 C 1.390625,-4.140625 1.875,-4.25 2.1875,-4.25 c 0.5,0 1.0625,0.390625 1.0625,1.28125 v 0.359375 c -0.515625,0.03125 -1.203125,0.0625 -1.828125,0.359375 -0.75,0.34375 -1,0.859375 -1,1.296875 0,0.8125 0.96875,1.0625 1.59375,1.0625 0.65625,0 1.109375,-0.40625 1.296875,-0.859375 z M 3.25,-2.390625 v 1 c 0,0.9375 -0.71875,1.28125 -1.171875,1.28125 -0.484375,0 -0.890625,-0.34375 -0.890625,-0.84375 0,-0.546875 0.421875,-1.375 2.0625,-1.4375 z m 0,0"
             id="id-5022d62b-e585-4989-80f1-2328dbf81538" />
        </symbol>
        <symbol
           overflow="visible"
           id="id-003ede34-bd8c-4af3-8df9-e87003f18dd6">
          <path
             style="stroke:none;stroke-width:0"
             d="M 1.765625,-4.40625 0.375,-4.296875 v 0.3125 c 0.640625,0 0.734375,0.0625 0.734375,0.546875 V -0.75 c 0,0.4375 -0.109375,0.4375 -0.78125,0.4375 V 0 C 0.640625,-0.015625 1.1875,-0.03125 1.421875,-0.03125 1.78125,-0.03125 2.125,-0.015625 2.46875,0 v -0.3125 c -0.671875,0 -0.703125,-0.046875 -0.703125,-0.4375 z m 0.03125,-1.734375 c 0,-0.3125 -0.234375,-0.53125 -0.515625,-0.53125 -0.3125,0 -0.53125,0.265625 -0.53125,0.53125 0,0.265625 0.21875,0.53125 0.53125,0.53125 0.28125,0 0.515625,-0.21875 0.515625,-0.53125 z m 0,0"
             id="id-56bdd7ca-b8c6-4a3b-8285-c8347b088ee7" />
        </symbol>
        <symbol
           overflow="visible"
           id="id-bc394572-c3c5-460f-919b-f3d1d82f07f9">
          <path
             style="stroke:none;stroke-width:0"
             d="m 1.171875,-2.171875 c 0,-1.625 0.8125,-2.046875 1.34375,-2.046875 0.09375,0 0.71875,0.015625 1.0625,0.375 -0.40625,0.03125 -0.46875,0.328125 -0.46875,0.453125 0,0.265625 0.1875,0.453125 0.453125,0.453125 0.265625,0 0.46875,-0.15625 0.46875,-0.46875 0,-0.671875 -0.765625,-1.0625 -1.53125,-1.0625 -1.25,0 -2.15625,1.078125 -2.15625,2.3125 0,1.28125 0.984375,2.265625 2.140625,2.265625 1.328125,0 1.65625,-1.203125 1.65625,-1.296875 0,-0.09375 -0.109375,-0.09375 -0.140625,-0.09375 -0.078125,0 -0.109375,0.03125 -0.125,0.09375 -0.28125,0.921875 -0.9375,1.046875 -1.296875,1.046875 -0.53125,0 -1.40625,-0.421875 -1.40625,-2.03125 z m 0,0"
             id="id-4983335d-464d-4541-a1ea-9e94be485f35" />
        </symbol>
        <symbol
           overflow="visible"
           id="id-ccc9591e-4272-4932-b4ee-a1a6b70ba1ca">
          <path
             style="stroke:none;stroke-width:0"
             d="M 1.671875,-3.3125 V -4.40625 L 0.28125,-4.296875 v 0.3125 c 0.703125,0 0.78125,0.0625 0.78125,0.5625 V -0.75 c 0,0.4375 -0.109375,0.4375 -0.78125,0.4375 V 0 c 0.390625,-0.015625 0.859375,-0.03125 1.140625,-0.03125 0.390625,0 0.859375,0 1.265625,0.03125 V -0.3125 H 2.46875 c -0.734375,0 -0.75,-0.109375 -0.75,-0.46875 V -2.3125 c 0,-0.984375 0.421875,-1.875 1.171875,-1.875 0.0625,0 0.09375,0 0.109375,0.015625 -0.03125,0 -0.234375,0.125 -0.234375,0.390625 0,0.265625 0.21875,0.421875 0.4375,0.421875 0.171875,0 0.421875,-0.125 0.421875,-0.4375 0,-0.3125 -0.3125,-0.609375 -0.734375,-0.609375 -0.734375,0 -1.09375,0.671875 -1.21875,1.09375 z m 0,0"
             id="id-d2e08811-2229-4592-9a87-e6b0b50703cc" />
        </symbol>
        <symbol
           overflow="visible"
           id="id-9b5acd39-5874-4110-ba28-007ebfc0f4b8">
          <path
             style="stroke:none;stroke-width:0"
             d="m 4.140625,-3.34375 c 0.25,-0.640625 0.765625,-0.640625 0.921875,-0.640625 v -0.3125 c -0.234375,0.015625 -0.515625,0.03125 -0.75,0.03125 -0.171875,0 -0.640625,-0.015625 -0.859375,-0.03125 v 0.3125 c 0.3125,0 0.46875,0.171875 0.46875,0.421875 0,0.109375 -0.015625,0.125 -0.0625,0.25 L 2.84375,-0.875 1.75,-3.546875 C 1.703125,-3.65625 1.6875,-3.6875 1.6875,-3.734375 c 0,-0.25 0.359375,-0.25 0.5625,-0.25 v -0.3125 c -0.265625,0.015625 -0.921875,0.03125 -1.09375,0.03125 -0.265625,0 -0.671875,-0.015625 -0.96875,-0.03125 v 0.3125 c 0.484375,0 0.671875,0 0.8125,0.34375 L 2.5,0 C 2.4375,0.125 2.296875,0.453125 2.25,0.59375 2.03125,1.140625 1.75,1.828125 1.109375,1.828125 c -0.046875,0 -0.28125,0 -0.46875,-0.1875 0.3125,-0.03125 0.390625,-0.25 0.390625,-0.421875 0,-0.25 -0.1875,-0.40625 -0.421875,-0.40625 -0.203125,0 -0.421875,0.125 -0.421875,0.421875 0,0.453125 0.421875,0.8125 0.921875,0.8125 0.625,0 1.03125,-0.578125 1.265625,-1.140625 z m 0,0"
             id="id-0493ac83-56f7-4e2c-a997-45adec3c6f21" />
        </symbol>
        <symbol
           overflow="visible"
           id="id-cea2a95d-d751-44c9-9b52-2bb1a81483e3">
          <path
             style="stroke:none;stroke-width:0"
             d="m 3.78125,-0.546875 v 0.65625 L 5.25,0 v -0.3125 c -0.6875,0 -0.78125,-0.0625 -0.78125,-0.5625 V -6.921875 L 3.046875,-6.8125 V -6.5 c 0.6875,0 0.765625,0.0625 0.765625,0.5625 v 2.15625 c -0.28125,-0.359375 -0.71875,-0.625 -1.25,-0.625 -1.171875,0 -2.21875,0.984375 -2.21875,2.265625 0,1.265625 0.96875,2.25 2.109375,2.25 0.640625,0 1.078125,-0.34375 1.328125,-0.65625 z m 0,-2.671875 v 2.046875 c 0,0.171875 0,0.1875 -0.109375,0.359375 C 3.375,-0.328125 2.9375,-0.109375 2.5,-0.109375 2.046875,-0.109375 1.6875,-0.375 1.453125,-0.75 1.203125,-1.15625 1.171875,-1.71875 1.171875,-2.140625 1.171875,-2.5 1.1875,-3.09375 1.46875,-3.546875 1.6875,-3.859375 2.0625,-4.1875 2.609375,-4.1875 c 0.34375,0 0.765625,0.15625 1.0625,0.59375 0.109375,0.171875 0.109375,0.1875 0.109375,0.375 z m 0,0"
             id="id-9a6205ba-7e3b-42b6-81dd-f1ee025a861a" />
        </symbol>
        <symbol
           overflow="visible"
           id="id-57f3432c-c7a6-4dfc-a7b3-c9c63698a82a">
          <path
             style="stroke:none;stroke-width:0"
             d="M 1.09375,-3.421875 V -0.75 c 0,0.4375 -0.109375,0.4375 -0.78125,0.4375 V 0 c 0.359375,-0.015625 0.859375,-0.03125 1.140625,-0.03125 0.25,0 0.765625,0.015625 1.109375,0.03125 v -0.3125 c -0.671875,0 -0.78125,0 -0.78125,-0.4375 V -2.59375 C 1.78125,-3.625 2.5,-4.1875 3.125,-4.1875 c 0.640625,0 0.75,0.53125 0.75,1.109375 V -0.75 c 0,0.4375 -0.109375,0.4375 -0.78125,0.4375 V 0 c 0.34375,-0.015625 0.859375,-0.03125 1.125,-0.03125 0.25,0 0.78125,0.015625 1.109375,0.03125 v -0.3125 c -0.515625,0 -0.765625,0 -0.765625,-0.296875 v -1.90625 c 0,-0.859375 0,-1.15625 -0.3125,-1.515625 -0.140625,-0.171875 -0.46875,-0.375 -1.046875,-0.375 C 2.46875,-4.40625 2,-3.984375 1.71875,-3.359375 V -4.40625 L 0.3125,-4.296875 v 0.3125 c 0.703125,0 0.78125,0.0625 0.78125,0.5625 z m 0,0"
             id="id-03580ea3-9015-47f7-b5eb-f14f3e7fb07e" />
        </symbol>
        <symbol
           overflow="visible"
           id="id-8d14f181-bd34-4ed3-82a7-1134008d3dca">
          <path
             style="stroke:none;stroke-width:0"
             d="M 1.09375,-3.421875 V -0.75 c 0,0.4375 -0.109375,0.4375 -0.78125,0.4375 V 0 c 0.359375,-0.015625 0.859375,-0.03125 1.140625,-0.03125 0.25,0 0.765625,0.015625 1.109375,0.03125 v -0.3125 c -0.671875,0 -0.78125,0 -0.78125,-0.4375 V -2.59375 C 1.78125,-3.625 2.5,-4.1875 3.125,-4.1875 c 0.640625,0 0.75,0.53125 0.75,1.109375 V -0.75 c 0,0.4375 -0.109375,0.4375 -0.78125,0.4375 V 0 c 0.34375,-0.015625 0.859375,-0.03125 1.125,-0.03125 0.25,0 0.78125,0.015625 1.109375,0.03125 v -0.3125 c -0.65625,0 -0.765625,0 -0.765625,-0.4375 v -1.84375 c 0,-1.03125 0.703125,-1.59375 1.34375,-1.59375 0.625,0 0.734375,0.53125 0.734375,1.109375 V -0.75 c 0,0.4375 -0.109375,0.4375 -0.78125,0.4375 V 0 c 0.34375,-0.015625 0.859375,-0.03125 1.125,-0.03125 0.265625,0 0.78125,0.015625 1.125,0.03125 v -0.3125 c -0.515625,0 -0.765625,0 -0.78125,-0.296875 v -1.90625 c 0,-0.859375 0,-1.15625 -0.3125,-1.515625 -0.140625,-0.171875 -0.46875,-0.375 -1.046875,-0.375 -0.828125,0 -1.28125,0.59375 -1.4375,0.984375 C 4.390625,-4.296875 3.65625,-4.40625 3.203125,-4.40625 2.46875,-4.40625 2,-3.984375 1.71875,-3.359375 V -4.40625 L 0.3125,-4.296875 v 0.3125 c 0.703125,0 0.78125,0.0625 0.78125,0.5625 z m 0,0"
             id="id-392b5731-61ec-42b5-bff9-919e515de524" />
        </symbol>
        <symbol
           overflow="visible"
           id="id-217660b5-d0f9-4dd7-8ba3-548064b7baf9">
          <path
             style="stroke:none;stroke-width:0"
             d="M 1.765625,-6.921875 0.328125,-6.8125 V -6.5 c 0.703125,0 0.78125,0.0625 0.78125,0.5625 V -0.75 c 0,0.4375 -0.109375,0.4375 -0.78125,0.4375 V 0 C 0.65625,-0.015625 1.1875,-0.03125 1.4375,-0.03125 c 0.25,0 0.734375,0.015625 1.109375,0.03125 v -0.3125 c -0.671875,0 -0.78125,0 -0.78125,-0.4375 z m 0,0"
             id="id-4897e989-e079-49c3-b7c0-00493430c787" />
        </symbol>
        <symbol
           overflow="visible"
           id="id-2ee8f911-6340-4bd5-9d7d-425610e5fb00">
          <path
             style="stroke:none;stroke-width:0"
             d="m 1.0625,-0.75 c 0,0.4375 -0.109375,0.4375 -0.78125,0.4375 V 0 c 0.328125,-0.015625 0.796875,-0.03125 1.078125,-0.03125 0.3125,0 0.703125,0.015625 1.109375,0.03125 v -0.3125 c -0.671875,0 -0.78125,0 -0.78125,-0.4375 v -1.03125 l 0.640625,-0.546875 c 0.765625,1.046875 1.1875,1.609375 1.1875,1.796875 0,0.1875 -0.171875,0.21875 -0.359375,0.21875 V 0 c 0.265625,-0.015625 0.859375,-0.03125 1.078125,-0.03125 0.28125,0 0.578125,0.015625 0.859375,0.03125 v -0.3125 c -0.375,0 -0.59375,0 -0.96875,-0.53125 L 2.859375,-2.625 c -0.015625,-0.015625 -0.0625,-0.078125 -0.0625,-0.109375 0,-0.03125 0.71875,-0.640625 0.8125,-0.71875 0.625,-0.5 1.046875,-0.53125 1.25,-0.53125 v -0.3125 c -0.28125,0.03125 -0.40625,0.03125 -0.6875,0.03125 -0.359375,0 -0.984375,-0.015625 -1.125,-0.03125 v 0.3125 c 0.1875,0 0.296875,0.109375 0.296875,0.25 0,0.203125 -0.140625,0.3125 -0.21875,0.390625 l -1.40625,1.203125 v -4.78125 L 0.28125,-6.8125 V -6.5 c 0.703125,0 0.78125,0.0625 0.78125,0.5625 z m 0,0"
             id="id-9c276ae2-2e75-4206-8ef3-240714c2f40e" />
        </symbol>
        <symbol
           overflow="visible"
           id="id-8c8a22d1-eba1-4d36-b8d4-0b2aa6a320be">
          <path
             style="stroke:none;stroke-width:0"
             d="M 1.109375,-2.515625 C 1.171875,-4 2.015625,-4.25 2.359375,-4.25 c 1.015625,0 1.125,1.34375 1.125,1.734375 z m 0,0.21875 h 2.78125 c 0.21875,0 0.25,0 0.25,-0.21875 0,-0.984375 -0.546875,-1.953125 -1.78125,-1.953125 -1.15625,0 -2.078125,1.03125 -2.078125,2.28125 0,1.328125 1.046875,2.296875 2.1875,2.296875 C 3.6875,0.109375 4.140625,-1 4.140625,-1.1875 4.140625,-1.28125 4.0625,-1.3125 4,-1.3125 c -0.078125,0 -0.109375,0.0625 -0.125,0.140625 -0.34375,1.03125 -1.25,1.03125 -1.34375,1.03125 -0.5,0 -0.890625,-0.296875 -1.125,-0.671875 -0.296875,-0.46875 -0.296875,-1.125 -0.296875,-1.484375 z m 0,0"
             id="id-12efd151-e737-4164-8706-a115d4d4dd47" />
        </symbol>
      </g>
    </defs>
    <defs
       id="defs2654">
      <g
         id="g2652">
        <symbol
           overflow="visible"
           id="symbol2646">
          <path
             style="stroke:none;stroke-width:0"
             d=""
             id="path2644" />
        </symbol>
        <symbol
           overflow="visible"
           id="symbol2650">
          <path
             style="stroke:none;stroke-width:0"
             d="m 1.65625,-2.625 c 0,-0.59375 0.578125,-1.125 1.203125,-1.125 0.734375,0 1.3125,0.734375 1.3125,1.59375 0,0.953125 -0.6875,1.609375 -1.390625,1.609375 -0.78125,0 -1.125,-0.875 -1.125,-1.359375 z m 0,2.171875 C 2.0625,-0.03125 2.5,0.0625 2.8125,0.0625 c 1.078125,0 2.046875,-0.953125 2.046875,-2.21875 0,-1.21875 -0.875,-2.203125 -1.9375,-2.203125 C 2.4375,-4.359375 2,-4.171875 1.65625,-3.875 1.65625,-4.15625 1.640625,-4.296875 1.25,-4.296875 H 0.53125 c -0.15625,0 -0.40625,0 -0.40625,0.3125 0,0.296875 0.25,0.296875 0.390625,0.296875 H 0.96875 v 5.296875 h -0.4375 c -0.15625,0 -0.40625,0 -0.40625,0.296875 0,0.3125 0.25,0.3125 0.390625,0.3125 h 1.59375 C 2.25,2.21875 2.5,2.21875 2.5,1.90625 2.5,1.609375 2.25,1.609375 2.09375,1.609375 h -0.4375 z m 0,0"
             id="path2648" />
        </symbol>
      </g>
    </defs>
    <defs
       id="id-2abe7ead-f8cd-4e26-9f9d-da1d586577a6">
      <g
         id="id-a0e583eb-a5c1-43da-9352-0ff30fa3493a">
        <symbol
           overflow="visible"
           id="id-c4208987-5c89-4e4f-ae2c-cc731acaf6a1">
          <path
             style="stroke:none;stroke-width:0"
             d=""
             id="id-37db70d3-e68f-496d-a34a-90fbbb6945ae" />
        </symbol>
        <symbol
           overflow="visible"
           id="id-f4d3ec30-aace-4321-9f55-38e4356cf23a">
          <path
             style="stroke:none;stroke-width:0"
             d="m 1.65625,-2.625 c 0,-0.59375 0.578125,-1.125 1.203125,-1.125 0.734375,0 1.3125,0.734375 1.3125,1.59375 0,0.953125 -0.6875,1.609375 -1.390625,1.609375 -0.78125,0 -1.125,-0.875 -1.125,-1.359375 z m 0,2.171875 C 2.0625,-0.03125 2.5,0.0625 2.8125,0.0625 c 1.078125,0 2.046875,-0.953125 2.046875,-2.21875 0,-1.21875 -0.875,-2.203125 -1.9375,-2.203125 C 2.4375,-4.359375 2,-4.171875 1.65625,-3.875 1.65625,-4.15625 1.640625,-4.296875 1.25,-4.296875 H 0.53125 c -0.15625,0 -0.40625,0 -0.40625,0.3125 0,0.296875 0.25,0.296875 0.390625,0.296875 H 0.96875 v 5.296875 h -0.4375 c -0.15625,0 -0.40625,0 -0.40625,0.296875 0,0.3125 0.25,0.3125 0.390625,0.3125 h 1.59375 C 2.25,2.21875 2.5,2.21875 2.5,1.90625 2.5,1.609375 2.25,1.609375 2.09375,1.609375 h -0.4375 z m 0,0"
             id="id-284538a9-e96f-4b84-8717-5c1216cc0649" />
        </symbol>
      </g>
    </defs>
  </defs>
  <g
     inkscape:label="Layer 1"
     inkscape:groupmode="layer"
     id="layer1"
     transform="translate(-31.492852,-36.753348)">
    <g
       id="g2189">
      <rect
         style="font-variation-settings:normal;vector-effect:none;fill:#99c1f1;fill-opacity:1;fill-rule:evenodd;stroke:#000000;stroke-width:0.264583;stroke-linecap:butt;stroke-linejoin:miter;stroke-miterlimit:4;stroke-dasharray:none;stroke-dashoffset:0;stroke-opacity:1;stop-color:#000000"
         id="rect1190"
         width="5.2916665"
         height="5.2916665"
         x="34.395828"
         y="71.4375" />
      <rect
         style="font-variation-settings:normal;vector-effect:none;fill:#99c1f1;fill-opacity:1;fill-rule:evenodd;stroke:#000000;stroke-width:0.264583;stroke-linecap:butt;stroke-linejoin:miter;stroke-miterlimit:4;stroke-dasharray:none;stroke-dashoffset:0;stroke-opacity:1;stop-color:#000000"
         id="rect1272"
         width="5.2916665"
         height="5.2916665"
         x="39.687496"
         y="71.4375" />
      <rect
         style="font-variation-settings:normal;vector-effect:none;fill:#99c1f1;fill-opacity:1;fill-rule:evenodd;stroke:#000000;stroke-width:0.264583;stroke-linecap:butt;stroke-linejoin:miter;stroke-miterlimit:4;stroke-dasharray:none;stroke-dashoffset:0;stroke-opacity:1;stop-color:#000000"
         id="rect1274"
         width="5.2916665"
         height="5.2916665"
         x="44.979164"
         y="71.4375" />
      <rect
         style="font-variation-settings:normal;vector-effect:none;fill:#99c1f1;fill-opacity:1;fill-rule:evenodd;stroke:#000000;stroke-width:0.264583;stroke-linecap:butt;stroke-linejoin:miter;stroke-miterlimit:4;stroke-dasharray:none;stroke-dashoffset:0;stroke-opacity:1;stop-color:#000000"
         id="rect1276"
         width="5.2916665"
         height="5.2916665"
         x="50.270832"
         y="71.4375" />
      <rect
         style="font-variation-settings:normal;vector-effect:none;fill:#99c1f1;fill-opacity:1;fill-rule:evenodd;stroke:#000000;stroke-width:0.264583;stroke-linecap:butt;stroke-linejoin:miter;stroke-miterlimit:4;stroke-dasharray:none;stroke-dashoffset:0;stroke-opacity:1;stop-color:#000000"
         id="rect1278"
         width="5.2916665"
         height="5.2916665"
         x="55.5625"
         y="71.4375" />
      <rect
         style="font-variation-settings:normal;fill:#deddda;fill-opacity:1;fill-rule:evenodd;stroke:#000000;stroke-width:0.46;stroke-linecap:butt;stroke-linejoin:miter;stroke-miterlimit:4;stroke-dasharray:none;stroke-dashoffset:0;stroke-opacity:1;stop-color:#000000"
         id="rect934"
         width="37.041668"
         height="21.166666"
         x="31.749998"
         y="37.041668" />
      <rect
         style="font-variation-settings:normal;fill:none;fill-opacity:1;fill-rule:evenodd;stroke:#000000;stroke-width:0.514296;stroke-linecap:butt;stroke-linejoin:miter;stroke-miterlimit:4;stroke-dasharray:none;stroke-dashoffset:0;stroke-opacity:1;stop-color:#000000"
         id="rect1098"
         width="37.041668"
         height="26.458332"
         x="31.75"
         y="58.208332" />
      <path
         style="fill:#000000;fill-opacity:1;stroke:none;stroke-width:0"
         d="m 37.434846,73.977702 c 0.211263,-0.134974 0.316895,-0.346237 0.316895,-0.551632 0,-0.275815 -0.275816,-0.528157 -0.704211,-0.528157 -0.451869,0 -0.710079,0.181921 -0.710079,0.440131 0,0.123237 0.09389,0.176053 0.164316,0.176053 0.08216,0 0.164315,-0.06455 0.164315,-0.170184 0,-0.05282 -0.01761,-0.08803 -0.02934,-0.09976 0.1115,-0.117368 0.381448,-0.117368 0.41079,-0.117368 0.25821,0 0.446,0.134974 0.446,0.305158 0,0.1115 -0.05868,0.240605 -0.158447,0.322763 -0.117369,0.09976 -0.211264,0.105632 -0.346237,0.1115 -0.217132,0.01761 -0.269948,0.01761 -0.269948,0.123237 0,0.117368 0.08803,0.117368 0.146711,0.117368 h 0.176052 c 0.369711,0 0.557501,0.252343 0.557501,0.469474 0,0.228869 -0.211264,0.463606 -0.551632,0.463606 -0.146711,0 -0.434263,-0.04108 -0.534027,-0.217132 0.01761,-0.01761 0.04695,-0.04108 0.04695,-0.117369 0,-0.08803 -0.07042,-0.164315 -0.164316,-0.164315 -0.08803,0 -0.170184,0.05868 -0.170184,0.176052 0,0.3345 0.363842,0.551632 0.821579,0.551632 0.492947,0 0.809842,-0.346237 0.809842,-0.692474 0,-0.264079 -0.176053,-0.487079 -0.422526,-0.598579 z m 0,0"
         id="path1136" />
      <path
         style="fill:#000000;fill-opacity:1;stroke:none;stroke-width:0"
         d="m 42.767593,73.176662 c -0.651395,0.686605 -0.7805,1.514053 -0.7805,1.924842 0,0.05282 0,0.176053 0.134973,0.176053 0.06455,0 0.123237,-0.04108 0.123237,-0.152579 0.02347,-1.062184 0.592711,-1.713579 0.821579,-1.930711 0.07629,-0.07042 0.08216,-0.07629 0.08216,-0.129105 0,-0.117369 -0.08803,-0.117369 -0.14671,-0.117369 h -1.238237 c -0.02347,-0.05868 -0.08803,-0.05868 -0.117369,-0.05868 -0.129105,0 -0.129105,0.08216 -0.129105,0.152579 v 0.158448 c 0,0.07042 0,0.152579 0.129105,0.152579 0.129105,0 0.129105,-0.07042 0.129105,-0.176053 z m 0,0"
         id="path1140" />
      <path
         style="fill:#000000;fill-opacity:1;stroke:none;stroke-width:0"
         d="m 46.897313,75.031083 c -0.03521,0.02934 -0.05868,0.04695 -0.05868,0.09976 0,0.117368 0.0939,0.117368 0.152579,0.117368 h 1.273447 c 0.123237,0 0.146711,-0.03521 0.146711,-0.152579 v -0.09976 c 0,-0.07042 0,-0.152579 -0.129105,-0.152579 -0.129106,0 -0.129106,0.07042 -0.129106,0.176053 h -0.892 c 0.223,-0.18779 0.580974,-0.469474 0.74529,-0.622053 0.234737,-0.211263 0.404921,-0.446 0.404921,-0.74529 0,-0.451868 -0.375579,-0.733552 -0.833316,-0.733552 -0.440132,0 -0.739421,0.305157 -0.739421,0.627921 0,0.134973 0.105632,0.176052 0.170184,0.176052 0.07629,0 0.164316,-0.06455 0.164316,-0.164316 0,-0.04695 -0.01761,-0.09389 -0.05282,-0.123236 0.05868,-0.170185 0.234737,-0.287553 0.440132,-0.287553 0.305158,0 0.59271,0.170184 0.59271,0.504684 0,0.258211 -0.181921,0.475342 -0.428394,0.680737 z m 0,0"
         id="path1144" />
      <path
         style="fill:#000000;fill-opacity:1;stroke:none;stroke-width:0"
         d="m 53.433087,74.206571 c -0.03521,0.463605 -0.328632,0.833316 -0.686606,0.833316 -0.03521,0 -0.170184,-0.0059 -0.246473,-0.06455 0.01174,-0.01761 0.02934,-0.04108 0.02934,-0.105632 0,-0.08803 -0.06455,-0.164316 -0.164316,-0.164316 -0.0939,0 -0.164316,0.06455 -0.164316,0.176053 0,0.123237 0.06455,0.387316 0.545763,0.387316 0.492948,0 0.950685,-0.469474 0.950685,-1.208895 0,-0.903737 -0.41079,-1.161947 -0.768764,-1.161947 -0.416658,0 -0.792237,0.311026 -0.792237,0.762894 0,0.428395 0.328632,0.762895 0.739421,0.762895 0.193658,0 0.387316,-0.06455 0.557501,-0.217131 z m -0.539895,-0.01761 c -0.29929,0 -0.498816,-0.246473 -0.498816,-0.528158 0,-0.322763 0.264079,-0.534026 0.534026,-0.534026 0.164316,0 0.264079,0.08803 0.328632,0.164316 0.0939,0.123237 0.140842,0.311026 0.140842,0.3345 0,0.0059 -0.0059,0.01174 -0.0059,0.03521 0,0.01761 0.01761,0.07629 0.01761,0.1115 0,0.205395 -0.205395,0.416658 -0.516421,0.416658 z m 0,0"
         id="path1148" />
      <path
         style="fill:#000000;fill-opacity:1;stroke:none;stroke-width:0"
         d="m 58.346242,73.07103 c 0,-0.05868 0,-0.152578 -0.1115,-0.152578 -0.07042,0 -0.09389,0.04695 -0.111501,0.08803 -0.140842,0.322763 -0.3345,0.363842 -0.404921,0.36971 -0.06455,0.0059 -0.140842,0.01174 -0.140842,0.117369 0,0.0939 0.06455,0.1115 0.123237,0.1115 0.07042,0 0.223,-0.02347 0.387316,-0.164316 v 1.578606 h -0.340368 c -0.05869,0 -0.146711,0 -0.146711,0.117368 0,0.1115 0.0939,0.1115 0.146711,0.1115 h 0.938947 c 0.05868,0 0.152579,0 0.152579,-0.1115 0,-0.117368 -0.08803,-0.117368 -0.152579,-0.117368 h -0.340368 z m 0,0"
         id="path1152" />
      <rect
         style="font-variation-settings:normal;fill:#deddda;fill-opacity:1;fill-rule:evenodd;stroke:#000000;stroke-width:0.46;stroke-linecap:butt;stroke-linejoin:miter;stroke-miterlimit:4;stroke-dasharray:none;stroke-dashoffset:0;stroke-opacity:1;stop-color:#000000"
         id="rect1102"
         width="37.041668"
         height="21.166666"
         x="79.375"
         y="37.041668" />
      <rect
         style="font-variation-settings:normal;fill:none;fill-opacity:1;fill-rule:evenodd;stroke:#000000;stroke-width:0.514296;stroke-linecap:butt;stroke-linejoin:miter;stroke-miterlimit:4;stroke-dasharray:none;stroke-dashoffset:0;stroke-opacity:1;stop-color:#000000"
         id="rect1104"
         width="37.041668"
         height="26.458332"
         x="79.375"
         y="58.208332" />
      <rect
         style="font-variation-settings:normal;vector-effect:none;fill:#f9f06b;fill-opacity:1;fill-rule:evenodd;stroke:#000000;stroke-width:0.264583;stroke-linecap:butt;stroke-linejoin:miter;stroke-miterlimit:4;stroke-dasharray:none;stroke-dashoffset:0;stroke-opacity:1;stop-color:#000000"
         id="rect1282"
         width="5.2916665"
         height="5.2916665"
         x="82.020836"
         y="42.333332" />
      <path
         style="fill:#000000;fill-opacity:1;stroke:none;stroke-width:0"
         d="m 85.059856,44.873551 c 0.21126,-0.13498 0.3169,-0.34624 0.3169,-0.55164 0,-0.27581 -0.27582,-0.52815 -0.70422,-0.52815 -0.45186,0 -0.71007,0.18192 -0.71007,0.44013 0,0.12324 0.0939,0.17605 0.16431,0.17605 0.0822,0 0.16432,-0.0645 0.16432,-0.17018 0,-0.0528 -0.0176,-0.088 -0.0293,-0.0998 0.1115,-0.11737 0.38144,-0.11737 0.41078,-0.11737 0.25822,0 0.446,0.13498 0.446,0.30516 0,0.1115 -0.0587,0.24061 -0.15844,0.32277 -0.11737,0.0998 -0.21127,0.10563 -0.34624,0.1115 -0.21713,0.0176 -0.26995,0.0176 -0.26995,0.12323 0,0.11737 0.088,0.11737 0.14671,0.11737 h 0.17606 c 0.36971,0 0.5575,0.25234 0.5575,0.46948 0,0.22886 -0.21127,0.4636 -0.55164,0.4636 -0.14671,0 -0.43426,-0.0411 -0.53402,-0.21713 0.0176,-0.0176 0.0469,-0.0411 0.0469,-0.11737 0,-0.088 -0.0704,-0.16432 -0.16432,-0.16432 -0.088,0 -0.17018,0.0587 -0.17018,0.17606 0,0.3345 0.36384,0.55163 0.82157,0.55163 0.49295,0 0.80985,-0.34624 0.80985,-0.69247 0,-0.26408 -0.17606,-0.48708 -0.42253,-0.59858 z m 0,0"
         id="path1976" />
      <rect
         style="font-variation-settings:normal;vector-effect:none;fill:#f9f06b;fill-opacity:1;fill-rule:evenodd;stroke:#000000;stroke-width:0.264583;stroke-linecap:butt;stroke-linejoin:miter;stroke-miterlimit:4;stroke-dasharray:none;stroke-dashoffset:0;stroke-opacity:1;stop-color:#000000"
         id="rect1284"
         width="5.2916665"
         height="5.2916665"
         x="87.3125"
         y="42.333332" />
      <path
         style="fill:#000000;fill-opacity:1;stroke:none;stroke-width:0"
         d="m 90.39255,44.072496 c -0.6514,0.68661 -0.7805,1.51406 -0.7805,1.92485 0,0.0528 0,0.17605 0.13497,0.17605 0.0646,0 0.12324,-0.0411 0.12324,-0.15258 0.0235,-1.06218 0.59271,-1.71358 0.82158,-1.93071 0.0763,-0.0704 0.0822,-0.0763 0.0822,-0.12911 0,-0.11736 -0.088,-0.11736 -0.14671,-0.11736 h -1.23824 c -0.0235,-0.0587 -0.088,-0.0587 -0.11737,-0.0587 -0.1291,0 -0.1291,0.0822 -0.1291,0.15258 v 0.15845 c 0,0.0704 0,0.15258 0.1291,0.15258 0.12911,0 0.12911,-0.0704 0.12911,-0.17606 z m 0,0"
         id="path1980" />
      <rect
         style="font-variation-settings:normal;vector-effect:none;fill:#f9f06b;fill-opacity:1;fill-rule:evenodd;stroke:#000000;stroke-width:0.264583;stroke-linecap:butt;stroke-linejoin:miter;stroke-miterlimit:4;stroke-dasharray:none;stroke-dashoffset:0;stroke-opacity:1;stop-color:#000000"
         id="rect1286"
         width="5.2916665"
         height="5.2916665"
         x="92.604164"
         y="42.333332" />
      <path
         style="fill:#000000;fill-opacity:1;stroke:none;stroke-width:0"
         d="m 94.522329,45.926896 c -0.0352,0.0293 -0.0587,0.047 -0.0587,0.0998 0,0.11737 0.0939,0.11737 0.15258,0.11737 h 1.27344 c 0.12324,0 0.14671,-0.0352 0.14671,-0.15258 v -0.0998 c 0,-0.0704 0,-0.15258 -0.1291,-0.15258 -0.12911,0 -0.12911,0.0704 -0.12911,0.17605 h -0.892 c 0.223,-0.18779 0.58098,-0.46947 0.74529,-0.62205 0.23474,-0.21126 0.40492,-0.446 0.40492,-0.74529 0,-0.45187 -0.37557,-0.73355 -0.83331,-0.73355 -0.44013,0 -0.73942,0.30515 -0.73942,0.62792 0,0.13497 0.10563,0.17605 0.17018,0.17605 0.0763,0 0.16432,-0.0646 0.16432,-0.16432 0,-0.0469 -0.0176,-0.0939 -0.0528,-0.12323 0.0587,-0.17019 0.23474,-0.28756 0.44013,-0.28756 0.30516,0 0.59271,0.17019 0.59271,0.50469 0,0.25821 -0.18192,0.47534 -0.42839,0.68074 z m 0,0"
         id="path1984" />
      <rect
         style="font-variation-settings:normal;vector-effect:none;fill:#f9f06b;fill-opacity:1;fill-rule:evenodd;stroke:#000000;stroke-width:0.264583;stroke-linecap:butt;stroke-linejoin:miter;stroke-miterlimit:4;stroke-dasharray:none;stroke-dashoffset:0;stroke-opacity:1;stop-color:#000000"
         id="rect1288"
         width="5.2916665"
         height="5.2916665"
         x="97.895828"
         y="42.333332" />
      <path
         style="fill:#000000;fill-opacity:1;stroke:none;stroke-width:0"
         d="m 101.05812,45.102346 c -0.0352,0.46361 -0.32863,0.83332 -0.68661,0.83332 -0.0352,0 -0.17018,-0.006 -0.24647,-0.0645 0.0117,-0.0176 0.0293,-0.0411 0.0293,-0.10563 0,-0.088 -0.0646,-0.16432 -0.164321,-0.16432 -0.0939,0 -0.16431,0.0646 -0.16431,0.17605 0,0.12324 0.0645,0.38732 0.545761,0.38732 0.49295,0 0.95069,-0.46947 0.95069,-1.2089 0,-0.90373 -0.41079,-1.16194 -0.76877,-1.16194 -0.41665,0 -0.792231,0.31102 -0.792231,0.76289 0,0.4284 0.328631,0.7629 0.739421,0.7629 0.19366,0 0.38731,-0.0646 0.5575,-0.21714 z m -0.5399,-0.0176 c -0.29929,0 -0.49881,-0.24647 -0.49881,-0.52816 0,-0.32276 0.26408,-0.53403 0.53402,-0.53403 0.16432,0 0.26408,0.088 0.32863,0.16432 0.0939,0.12324 0.14085,0.31103 0.14085,0.3345 0,0.006 -0.006,0.0117 -0.006,0.0352 0,0.0176 0.0176,0.0763 0.0176,0.1115 0,0.2054 -0.20539,0.41666 -0.51642,0.41666 z m 0,0"
         id="path1988" />
      <rect
         style="font-variation-settings:normal;vector-effect:none;fill:#f9f06b;fill-opacity:1;fill-rule:evenodd;stroke:#000000;stroke-width:0.264583;stroke-linecap:butt;stroke-linejoin:miter;stroke-miterlimit:4;stroke-dasharray:none;stroke-dashoffset:0;stroke-opacity:1;stop-color:#000000"
         id="rect1290"
         width="5.2916665"
         height="5.2916665"
         x="103.18749"
         y="42.333332" />
      <path
         style="fill:#000000;fill-opacity:1;stroke:none;stroke-width:0"
         d="m 105.97124,43.966876 c 0,-0.0587 0,-0.15258 -0.1115,-0.15258 -0.0704,0 -0.0939,0.0469 -0.1115,0.088 -0.14084,0.32277 -0.3345,0.36385 -0.40492,0.36971 -0.0646,0.006 -0.14085,0.0117 -0.14085,0.11737 0,0.0939 0.0646,0.1115 0.12324,0.1115 0.0704,0 0.223,-0.0235 0.38732,-0.16431 v 1.5786 h -0.34037 c -0.0587,0 -0.14671,0 -0.14671,0.11737 0,0.1115 0.0939,0.1115 0.14671,0.1115 h 0.93895 c 0.0587,0 0.15257,0 0.15257,-0.1115 0,-0.11737 -0.088,-0.11737 -0.15257,-0.11737 h -0.34037 z m 0,0"
         id="path1992" />
      <rect
         style="font-variation-settings:normal;vector-effect:none;fill:#99c1f1;fill-opacity:1;fill-rule:evenodd;stroke:#000000;stroke-width:0.264583;stroke-linecap:butt;stroke-linejoin:miter;stroke-miterlimit:4;stroke-dasharray:none;stroke-dashoffset:0;stroke-opacity:1;stop-color:#000000"
         id="rect1280"
         width="5.2916665"
         height="5.2916665"
         x="82.020836"
         y="71.4375" />
      <g
         id="g2662"
         transform="matrix(0.375579,0,0,0.375579,27.877551,29.162086)">
        <g
           style="fill:#000000;fill-opacity:1"
           id="g2660">
          <g
             transform="translate(148.712,134.765)"
             id="g2658">
            <path
               style="stroke:none;stroke-width:0"
               d="m 1.65625,-2.625 c 0,-0.59375 0.578125,-1.125 1.203125,-1.125 0.734375,0 1.3125,0.734375 1.3125,1.59375 0,0.953125 -0.6875,1.609375 -1.390625,1.609375 -0.78125,0 -1.125,-0.875 -1.125,-1.359375 z m 0,2.171875 C 2.0625,-0.03125 2.5,0.0625 2.8125,0.0625 c 1.078125,0 2.046875,-0.953125 2.046875,-2.21875 0,-1.21875 -0.875,-2.203125 -1.9375,-2.203125 C 2.4375,-4.359375 2,-4.171875 1.65625,-3.875 1.65625,-4.15625 1.640625,-4.296875 1.25,-4.296875 H 0.53125 c -0.15625,0 -0.40625,0 -0.40625,0.3125 0,0.296875 0.25,0.296875 0.390625,0.296875 H 0.96875 v 5.296875 h -0.4375 c -0.15625,0 -0.40625,0 -0.40625,0.296875 0,0.3125 0.25,0.3125 0.390625,0.3125 h 1.59375 C 2.25,2.21875 2.5,2.21875 2.5,1.90625 2.5,1.609375 2.25,1.609375 2.09375,1.609375 h -0.4375 z m 0,0"
               id="path2656" />
          </g>
        </g>
      </g>
      <path
         style="fill:none;stroke:#000000;stroke-width:0.264583px;stroke-linecap:butt;stroke-linejoin:miter;stroke-opacity:1;marker-start:url(#DotM);marker-end:url(#Arrow2Mend)"
         d="M 84.666666,74.083332 84.666667,47.625"
         id="path2847"
         sodipodi:nodetypes="cc" />
      <rect
         style="font-variation-settings:normal;fill:#deddda;fill-opacity:1;fill-rule:evenodd;stroke:#000000;stroke-width:0.57664;stroke-linecap:butt;stroke-linejoin:miter;stroke-miterlimit:4;stroke-dasharray:none;stroke-dashoffset:0;stroke-opacity:1;stop-color:#000000"
         id="rect1162"
         width="58.208355"
         height="21.166666"
         x="126.99998"
         y="37.041668" />
      <rect
         style="font-variation-settings:normal;fill:#f66151;fill-opacity:1;fill-rule:evenodd;stroke:#000000;stroke-width:0.165;stroke-linecap:butt;stroke-linejoin:miter;stroke-miterlimit:4;stroke-dasharray:none;stroke-dashoffset:0;stroke-opacity:1;stop-color:#000000"
         id="rect1610"
         width="2.6458333"
         height="5.2916665"
         x="134.9375"
         y="42.333332" />
      <rect
         style="font-variation-settings:normal;vector-effect:none;fill:#f9f06b;fill-opacity:1;fill-rule:evenodd;stroke:#000000;stroke-width:0.176389;stroke-linecap:butt;stroke-linejoin:miter;stroke-miterlimit:4;stroke-dasharray:none;stroke-dashoffset:0;stroke-opacity:1;stop-color:#000000"
         id="rect1338"
         width="5.2916718"
         height="5.2916679"
         x="129.64583"
         y="42.333332"
         ry="0" />
      <rect
         style="font-variation-settings:normal;fill:#f66151;fill-opacity:1;fill-rule:evenodd;stroke:#000000;stroke-width:0.165;stroke-linecap:butt;stroke-linejoin:miter;stroke-miterlimit:4;stroke-dasharray:none;stroke-dashoffset:0;stroke-opacity:1;stop-color:#000000"
         id="rect1694"
         width="2.6458333"
         height="5.2916665"
         x="145.52083"
         y="42.333332" />
      <path
         style="fill:#000000;fill-opacity:1;stroke:none;stroke-width:0"
         d="m 132.68485,44.873534 c 0.21126,-0.134974 0.3169,-0.346237 0.3169,-0.551632 0,-0.275815 -0.27582,-0.528157 -0.70422,-0.528157 -0.45186,0 -0.71007,0.181921 -0.71007,0.440131 0,0.123237 0.0939,0.176053 0.16431,0.176053 0.0822,0 0.16432,-0.06455 0.16432,-0.170184 0,-0.05282 -0.0176,-0.08803 -0.0293,-0.09976 0.1115,-0.117368 0.38144,-0.117368 0.41078,-0.117368 0.25822,0 0.446,0.134974 0.446,0.305158 0,0.1115 -0.0587,0.240605 -0.15844,0.322763 -0.11737,0.09976 -0.21127,0.105632 -0.34624,0.1115 -0.21713,0.01761 -0.26995,0.01761 -0.26995,0.123237 0,0.117368 0.088,0.117368 0.14671,0.117368 h 0.17606 c 0.36971,0 0.5575,0.252343 0.5575,0.469474 0,0.228869 -0.21127,0.463605 -0.55164,0.463605 -0.14671,0 -0.43426,-0.04108 -0.53402,-0.217131 0.0176,-0.0176 0.047,-0.04108 0.047,-0.117369 0,-0.08803 -0.0704,-0.164315 -0.16432,-0.164315 -0.088,0 -0.17018,0.05868 -0.17018,0.176052 0,0.3345 0.36384,0.551632 0.82157,0.551632 0.49295,0 0.80985,-0.346237 0.80985,-0.692474 0,-0.264079 -0.17606,-0.487079 -0.42253,-0.598579 z m 0,0"
         id="id-3a723e40-e7d0-4f0e-97ec-1c727ff54ecd" />
      <rect
         style="font-variation-settings:normal;vector-effect:none;fill:#f9f06b;fill-opacity:1;fill-rule:evenodd;stroke:#000000;stroke-width:0.176389;stroke-linecap:butt;stroke-linejoin:miter;stroke-miterlimit:4;stroke-dasharray:none;stroke-dashoffset:0;stroke-opacity:1;stop-color:#000000"
         id="rect1692"
         width="5.291677"
         height="5.2916679"
         x="140.22916"
         y="42.333332"
         ry="0" />
      <rect
         style="font-variation-settings:normal;fill:#f66151;fill-opacity:1;fill-rule:evenodd;stroke:#000000;stroke-width:0.165;stroke-linecap:butt;stroke-linejoin:miter;stroke-miterlimit:4;stroke-dasharray:none;stroke-dashoffset:0;stroke-opacity:1;stop-color:#000000"
         id="rect1698"
         width="2.6458333"
         height="5.2916665"
         x="156.10417"
         y="42.333332" />
      <path
         style="fill:#000000;fill-opacity:1;stroke:none;stroke-width:0"
         d="m 143.30926,44.072495 c -0.6514,0.686605 -0.7805,1.514053 -0.7805,1.924842 0,0.05282 0,0.176053 0.13497,0.176053 0.0646,0 0.12324,-0.04108 0.12324,-0.152579 0.0235,-1.062184 0.59271,-1.713579 0.82158,-1.930711 0.0763,-0.07042 0.0822,-0.07629 0.0822,-0.129105 0,-0.117369 -0.088,-0.117369 -0.14671,-0.117369 h -1.23824 c -0.0235,-0.05868 -0.088,-0.05868 -0.11737,-0.05868 -0.1291,0 -0.1291,0.08216 -0.1291,0.152579 v 0.158448 c 0,0.07042 0,0.152579 0.1291,0.152579 0.12911,0 0.12911,-0.07042 0.12911,-0.176053 z m 0,0"
         id="id-9bf699af-8e7e-4d70-a8e6-376f5fb9a0ab" />
      <rect
         style="font-variation-settings:normal;fill:#f66151;fill-opacity:1;fill-rule:evenodd;stroke:#000000;stroke-width:0.165;stroke-linecap:butt;stroke-linejoin:miter;stroke-miterlimit:4;stroke-dasharray:none;stroke-dashoffset:0;stroke-opacity:1;stop-color:#000000"
         id="rect1702"
         width="2.6458333"
         height="5.2916665"
         x="166.6875"
         y="42.333332" />
      <rect
         style="font-variation-settings:normal;vector-effect:none;fill:#f9f06b;fill-opacity:1;fill-rule:evenodd;stroke:#000000;stroke-width:0.176389;stroke-linecap:butt;stroke-linejoin:miter;stroke-miterlimit:4;stroke-dasharray:none;stroke-dashoffset:0;stroke-opacity:1;stop-color:#000000"
         id="rect1696"
         width="5.2916665"
         height="5.2916679"
         x="150.8125"
         y="42.333332"
         ry="0" />
      <rect
         style="font-variation-settings:normal;fill:#f66151;fill-opacity:1;fill-rule:evenodd;stroke:#000000;stroke-width:0.165;stroke-linecap:butt;stroke-linejoin:miter;stroke-miterlimit:4;stroke-dasharray:none;stroke-dashoffset:0;stroke-opacity:1;stop-color:#000000"
         id="rect1706"
         width="2.6458333"
         height="5.2916665"
         x="177.27084"
         y="42.333332" />
      <path
         style="fill:#000000;fill-opacity:1;stroke:none;stroke-width:0"
         d="m 152.73065,45.926916 c -0.0352,0.02934 -0.0587,0.04695 -0.0587,0.09976 0,0.117368 0.0939,0.117368 0.15258,0.117368 h 1.27344 c 0.12324,0 0.14671,-0.03521 0.14671,-0.152579 v -0.09976 c 0,-0.07042 0,-0.152579 -0.1291,-0.152579 -0.12911,0 -0.12911,0.07042 -0.12911,0.176053 h -0.892 c 0.223,-0.18779 0.58098,-0.469474 0.74529,-0.622053 0.23474,-0.211263 0.40492,-0.446 0.40492,-0.74529 0,-0.451868 -0.37557,-0.733552 -0.83331,-0.733552 -0.44013,0 -0.73942,0.305157 -0.73942,0.627921 0,0.134973 0.10563,0.176052 0.17018,0.176052 0.0763,0 0.16432,-0.06455 0.16432,-0.164316 0,-0.04695 -0.0176,-0.09389 -0.0528,-0.123236 0.0587,-0.170185 0.23474,-0.287553 0.44013,-0.287553 0.30516,0 0.59271,0.170184 0.59271,0.504684 0,0.258211 -0.18192,0.475342 -0.42839,0.680737 z m 0,0"
         id="id-8a3eab07-c91b-4477-953b-3a3fa7cdd2e7" />
      <rect
         style="font-variation-settings:normal;vector-effect:none;fill:#f9f06b;fill-opacity:1;fill-rule:evenodd;stroke:#000000;stroke-width:0.176721;stroke-linecap:butt;stroke-linejoin:miter;stroke-miterlimit:4;stroke-dasharray:none;stroke-dashoffset:0;stroke-opacity:1;stop-color:#000000"
         id="rect1700"
         width="5.2724733"
         height="5.3309779"
         x="161.37617"
         y="42.313679"
         ry="0" />
      <path
         style="fill:#000000;fill-opacity:1;stroke:none;stroke-width:0"
         d="m 164.52884,45.102405 c -0.0352,0.463605 -0.32863,0.833316 -0.68661,0.833316 -0.0352,0 -0.17018,-0.0059 -0.24647,-0.06455 0.0117,-0.0176 0.0293,-0.04108 0.0293,-0.105632 0,-0.08803 -0.0645,-0.164316 -0.16432,-0.164316 -0.0939,0 -0.16431,0.06455 -0.16431,0.176053 0,0.123237 0.0645,0.387316 0.54576,0.387316 0.49295,0 0.95069,-0.469474 0.95069,-1.208895 0,-0.903737 -0.41079,-1.161947 -0.76877,-1.161947 -0.41665,0 -0.79223,0.311026 -0.79223,0.762894 0,0.428395 0.32863,0.762895 0.73942,0.762895 0.19366,0 0.38731,-0.06455 0.5575,-0.217131 z m -0.5399,-0.01761 c -0.29929,0 -0.49881,-0.246473 -0.49881,-0.528158 0,-0.322763 0.26408,-0.534026 0.53402,-0.534026 0.16432,0 0.26408,0.08803 0.32863,0.164316 0.0939,0.123237 0.14085,0.311026 0.14085,0.3345 0,0.0059 -0.006,0.01174 -0.006,0.03521 0,0.01761 0.0176,0.07629 0.0176,0.1115 0,0.205395 -0.20539,0.416658 -0.51642,0.416658 z m 0,0"
         id="id-b19419c5-831c-4b1c-836f-530f58b973a9" />
      <rect
         style="font-variation-settings:normal;vector-effect:none;fill:#f9f06b;fill-opacity:1;fill-rule:evenodd;stroke:#000000;stroke-width:0.176388;stroke-linecap:butt;stroke-linejoin:miter;stroke-miterlimit:4;stroke-dasharray:none;stroke-dashoffset:0;stroke-opacity:1;stop-color:#000000"
         id="rect1704"
         width="5.2916617"
         height="5.2916679"
         x="171.97917"
         y="42.333332"
         ry="0" />
      <path
         style="fill:#000000;fill-opacity:1;stroke:none;stroke-width:0"
         d="m 174.76291,43.966863 c 0,-0.05868 0,-0.152578 -0.1115,-0.152578 -0.0704,0 -0.0939,0.04695 -0.1115,0.08803 -0.14084,0.322763 -0.3345,0.363842 -0.40492,0.36971 -0.0646,0.0059 -0.14085,0.01174 -0.14085,0.117369 0,0.0939 0.0646,0.1115 0.12324,0.1115 0.0704,0 0.223,-0.02347 0.38732,-0.164316 v 1.578606 h -0.34037 c -0.0587,0 -0.14671,0 -0.14671,0.117368 0,0.1115 0.0939,0.1115 0.14671,0.1115 h 0.93895 c 0.0587,0 0.15257,0 0.15257,-0.1115 0,-0.117368 -0.088,-0.117368 -0.15257,-0.117368 h -0.34037 z m 0,0"
         id="id-cd75aadf-8ad0-40ac-8cf2-6cc602af53ab" />
      <rect
         style="font-variation-settings:normal;fill:none;fill-opacity:1;fill-rule:evenodd;stroke:#000000;stroke-width:0.644704;stroke-linecap:butt;stroke-linejoin:miter;stroke-miterlimit:4;stroke-dasharray:none;stroke-dashoffset:0;stroke-opacity:1;stop-color:#000000"
         id="rect1164"
         width="58.208363"
         height="26.458332"
         x="126.99998"
         y="58.208332" />
      <rect
         style="font-variation-settings:normal;vector-effect:none;fill:#99c1f1;fill-opacity:1;fill-rule:evenodd;stroke:#000000;stroke-width:0.264583;stroke-linecap:butt;stroke-linejoin:miter;stroke-miterlimit:4;stroke-dasharray:none;stroke-dashoffset:0;stroke-opacity:1;stop-color:#000000"
         id="rect2148"
         width="5.2916665"
         height="5.2916665"
         x="129.64583"
         y="71.4375" />
      <g
         id="id-ceec0705-b26b-4340-876d-8e2e6615e658"
         transform="matrix(0.375579,0,0,0.375579,75.502548,29.162086)">
        <g
           style="fill:#000000;fill-opacity:1"
           id="id-71199a1f-a87c-440a-9f79-ab3912717266">
          <g
             transform="translate(148.712,134.765)"
             id="g2606">
            <path
               style="stroke:none;stroke-width:0"
               d="m 1.65625,-2.625 c 0,-0.59375 0.578125,-1.125 1.203125,-1.125 0.734375,0 1.3125,0.734375 1.3125,1.59375 0,0.953125 -0.6875,1.609375 -1.390625,1.609375 -0.78125,0 -1.125,-0.875 -1.125,-1.359375 z m 0,2.171875 C 2.0625,-0.03125 2.5,0.0625 2.8125,0.0625 c 1.078125,0 2.046875,-0.953125 2.046875,-2.21875 0,-1.21875 -0.875,-2.203125 -1.9375,-2.203125 C 2.4375,-4.359375 2,-4.171875 1.65625,-3.875 1.65625,-4.15625 1.640625,-4.296875 1.25,-4.296875 H 0.53125 c -0.15625,0 -0.40625,0 -0.40625,0.3125 0,0.296875 0.25,0.296875 0.390625,0.296875 H 0.96875 v 5.296875 h -0.4375 c -0.15625,0 -0.40625,0 -0.40625,0.296875 0,0.3125 0.25,0.3125 0.390625,0.3125 h 1.59375 C 2.25,2.21875 2.5,2.21875 2.5,1.90625 2.5,1.609375 2.25,1.609375 2.09375,1.609375 h -0.4375 z m 0,0"
               id="id-a3eabc74-3af6-4d5b-9af0-aa82f85f9efb" />
          </g>
        </g>
      </g>
      <path
         style="fill:none;stroke:#000000;stroke-width:0.264583px;stroke-linecap:butt;stroke-linejoin:miter;stroke-opacity:1;marker-start:url(#DotM);marker-end:url(#Arrow2Mend)"
         d="M 132.29167,74.083333 V 47.625001"
         id="path3575"
         sodipodi:nodetypes="cc" />
      <path
         style="fill:none;stroke:#000000;stroke-width:0.2;stroke-linecap:butt;stroke-linejoin:miter;stroke-miterlimit:4;stroke-dasharray:none;stroke-opacity:1;marker-start:url(#DotM);marker-end:url(#marker3614)"
         d="m 136.26041,44.979166 h 3.96875"
         id="path3610" />
      <path
         style="fill:none;stroke:#000000;stroke-width:0.2;stroke-linecap:butt;stroke-linejoin:miter;stroke-miterlimit:4;stroke-dasharray:none;stroke-opacity:1;marker-start:url(#DotM);marker-end:url(#marker3614)"
         d="m 146.84375,44.979166 h 3.96875"
         id="path3702" />
      <path
         style="fill:none;stroke:#000000;stroke-width:0.2;stroke-linecap:butt;stroke-linejoin:miter;stroke-miterlimit:4;stroke-dasharray:none;stroke-opacity:1;marker-start:url(#DotM);marker-end:url(#marker3614)"
         d="m 157.42709,44.979166 h 3.96875"
         id="path3704" />
      <path
         style="fill:none;stroke:#000000;stroke-width:0.2;stroke-linecap:butt;stroke-linejoin:miter;stroke-miterlimit:4;stroke-dasharray:none;stroke-opacity:1;marker-start:url(#DotM);marker-end:url(#marker3614)"
         d="m 168.01043,44.979166 h 3.96875"
         id="path3706" />
      <g
         id="path3708">
        <g
           id="g1419">
          <g
             id="path1421">
            <path
               style="color:#000000;fill:#000000;fill-rule:evenodd;stroke-width:0.08pt;-inkscape-stroke:none"
               d="m 178.98577,44.979166 c 0,0.2208 -0.1792,0.4 -0.4,0.4 -0.2208,0 -0.4,-0.1792 -0.4,-0.4 0,-0.2208 0.1792,-0.4 0.4,-0.4 0.2208,0 0.4,0.1792 0.4,0.4 z"
               id="path1425" />
            <path
               style="color:#000000;fill:#000000;fill-rule:evenodd;-inkscape-stroke:none"
               d="m 178.58594,44.525391 c -0.24966,0 -0.45313,0.203468 -0.45313,0.453125 0,0.249656 0.20347,0.453125 0.45313,0.453125 0.24965,0 0.45312,-0.203469 0.45312,-0.453125 0,-0.249657 -0.20347,-0.453125 -0.45312,-0.453125 z m 0,0.107421 c 0.19194,0 0.3457,0.15376 0.3457,0.345704 0,0.191943 -0.15376,0.347656 -0.3457,0.347656 -0.19195,0 -0.34766,-0.155713 -0.34766,-0.347656 0,-0.191944 0.15571,-0.345703 0.34766,-0.345704 z"
               id="path1427" />
          </g>
        </g>
      </g>
      <path
         style="fill:#000000;fill-opacity:1;stroke:none;stroke-width:0"
         d="m 36.314074,94.18586 c 0.133017,0.0285 0.627082,0.123516 0.627082,0.560573 0,0.30404 -0.209028,0.551072 -0.68409,0.551072 -0.513067,0 -0.731596,-0.342045 -0.845611,-0.864613 -0.019,-0.07601 -0.019,-0.09501 -0.08551,-0.09501 -0.07601,0 -0.07601,0.038 -0.07601,0.142518 v 0.807606 c 0,0.104514 0,0.142519 0.06651,0.142519 0.0285,0 0.038,-0.0095 0.15202,-0.123516 0.0095,-0.0095 0.0095,-0.019 0.123516,-0.133018 0.266035,0.247032 0.541571,0.256534 0.665087,0.256534 0.693591,0 0.978628,-0.408554 0.978628,-0.845612 0,-0.313541 -0.180523,-0.503566 -0.256533,-0.570075 -0.199526,-0.199526 -0.437057,-0.247032 -0.693591,-0.294538 -0.342045,-0.06651 -0.741097,-0.142519 -0.741097,-0.494065 0,-0.218529 0.15202,-0.465561 0.674588,-0.465561 0.665087,0 0.703092,0.551072 0.712594,0.731596 0,0.05701 0.05701,0.05701 0.06651,0.05701 0.08551,0 0.08551,-0.0285 0.08551,-0.142518 v -0.617581 c 0,-0.09501 0,-0.142518 -0.06651,-0.142518 -0.0285,0 -0.04751,0 -0.123516,0.07601 -0.019,0.019 -0.07601,0.07601 -0.104514,0.09501 -0.22803,-0.171022 -0.475062,-0.171022 -0.570075,-0.171022 -0.741097,0 -0.969127,0.408553 -0.969127,0.750598 0,0.209028 0.09501,0.38005 0.256534,0.513067 0.199526,0.15202 0.370548,0.190025 0.807606,0.275537 z m 0,0"
         id="id-68b9795d-3b4e-40ce-bf0e-85c0469e5204" />
      <path
         style="fill:#000000;fill-opacity:1;stroke:none;stroke-width:0"
         d="m 38.48469,92.941196 h 0.874115 V 92.751172 H 38.48469 v -1.111646 h -0.15202 c 0,0.494065 -0.180524,1.140149 -0.779102,1.168653 v 0.133017 h 0.513067 v 1.67222 c 0,0.741097 0.570075,0.817107 0.788604,0.817107 0.427556,0 0.598578,-0.427556 0.598578,-0.817107 v -0.342045 h -0.15202 v 0.332543 c 0,0.446559 -0.180524,0.674589 -0.408553,0.674589 -0.408554,0 -0.408554,-0.551072 -0.408554,-0.655586 z m 0,0"
         id="id-6eb50e5c-524d-4bbe-ab7a-0c1547b5c767" />
      <path
         style="fill:#000000;fill-opacity:1;stroke:none;stroke-width:0"
         d="m 41.810126,94.907954 c 0.0285,0.237531 0.190025,0.494065 0.475062,0.494065 0.133018,0 0.503566,-0.08551 0.503566,-0.579576 v -0.342045 h -0.15202 v 0.342045 c 0,0.351546 -0.15202,0.389551 -0.218528,0.389551 -0.199526,0 -0.22803,-0.275536 -0.22803,-0.30404 v -1.206659 c 0,-0.256534 0,-0.494065 -0.218529,-0.722094 -0.237531,-0.237532 -0.541571,-0.332543 -0.826608,-0.332543 -0.503566,0 -0.921621,0.285037 -0.921621,0.684089 0,0.180523 0.123516,0.285038 0.285037,0.285038 0.171023,0 0.275537,-0.123516 0.275537,-0.275536 0,-0.07601 -0.0285,-0.275537 -0.313542,-0.275537 0.171023,-0.218529 0.465561,-0.285038 0.655586,-0.285038 0.30404,0 0.646085,0.237532 0.646085,0.779102 v 0.218529 c -0.313541,0.019 -0.731596,0.038 -1.111646,0.218529 -0.456059,0.209028 -0.608079,0.522569 -0.608079,0.788603 0,0.494066 0.589077,0.646085 0.969127,0.646085 0.399052,0 0.674588,-0.247033 0.788603,-0.522568 z m -0.038,-0.997631 v 0.60808 c 0,0.570075 -0.437057,0.779102 -0.712593,0.779102 -0.294539,0 -0.541571,-0.209028 -0.541571,-0.513068 0,-0.332544 0.256533,-0.83611 1.254164,-0.874114 z m 0,0"
         id="id-dfbbfc91-b4c6-4096-96ed-247d50fa033f" />
      <path
         style="fill:#000000;fill-opacity:1;stroke:none;stroke-width:0"
         d="m 43.869844,92.941196 h 0.874115 v -0.190024 h -0.874115 v -1.111646 h -0.15202 c 0,0.494065 -0.180524,1.140149 -0.779102,1.168653 v 0.133017 h 0.513067 v 1.67222 c 0,0.741097 0.570075,0.817107 0.788604,0.817107 0.427556,0 0.598578,-0.427556 0.598578,-0.817107 v -0.342045 h -0.15202 v 0.332543 c 0,0.446559 -0.180524,0.674589 -0.408553,0.674589 -0.408554,0 -0.408554,-0.551072 -0.408554,-0.655586 z m 0,0"
         id="id-b3cb3d52-4701-40ee-b6e7-c9b58258598e" />
      <path
         style="fill:#000000;fill-opacity:1;stroke:none;stroke-width:0"
         d="m 46.254049,92.684663 -0.845611,0.06651 v 0.190024 c 0.389551,0 0.446558,0.038 0.446558,0.332544 v 1.634214 c 0,0.266035 -0.06651,0.266035 -0.475062,0.266035 v 0.190025 c 0.190025,-0.0095 0.522569,-0.019 0.665087,-0.019 0.218529,0 0.427556,0.0095 0.636584,0.019 V 95.17399 c -0.408554,0 -0.427556,-0.0285 -0.427556,-0.266035 z m 0.019,-1.054638 c 0,-0.190026 -0.142518,-0.323043 -0.313541,-0.323043 -0.190025,0 -0.323042,0.16152 -0.323042,0.323043 0,0.16152 0.133017,0.323042 0.323042,0.323042 0.171023,0 0.313541,-0.133019 0.313541,-0.323042 z m 0,0"
         id="id-9dc12767-0398-4cec-89e0-cddd9be5007d" />
      <path
         style="fill:#000000;fill-opacity:1;stroke:none;stroke-width:0"
         d="m 47.576166,94.04334 c 0,-0.98813 0.494065,-1.244663 0.817107,-1.244663 0.05701,0 0.437058,0.0095 0.646085,0.22803 -0.247032,0.019 -0.285037,0.199527 -0.285037,0.275537 0,0.16152 0.114015,0.275536 0.275536,0.275536 0.161521,0 0.285037,-0.09501 0.285037,-0.285037 0,-0.408554 -0.465561,-0.646085 -0.931122,-0.646085 -0.760099,0 -1.311172,0.655586 -1.311172,1.406183 0,0.779102 0.598579,1.377681 1.301671,1.377681 0.807606,0 1.007132,-0.731596 1.007132,-0.788604 0,-0.05701 -0.06651,-0.05701 -0.08551,-0.05701 -0.04751,0 -0.06651,0.019 -0.07601,0.05701 -0.171023,0.560574 -0.570075,0.636584 -0.788604,0.636584 -0.323042,0 -0.855112,-0.256534 -0.855113,-1.235162 z m 0,0"
         id="id-32c796a7-b673-47a2-b4ba-a94bb9f028a8" />
      <path
         style="fill:#000000;fill-opacity:1;stroke:none;stroke-width:0"
         d="m 53.587414,94.907954 c 0.0285,0.237531 0.190025,0.494065 0.475062,0.494065 0.133018,0 0.503566,-0.08551 0.503566,-0.579576 v -0.342045 h -0.15202 v 0.342045 c 0,0.351546 -0.15202,0.389551 -0.218528,0.389551 -0.199526,0 -0.22803,-0.275536 -0.22803,-0.30404 v -1.206659 c 0,-0.256534 0,-0.494065 -0.218529,-0.722094 -0.237531,-0.237532 -0.541571,-0.332543 -0.826608,-0.332543 -0.503566,0 -0.921621,0.285037 -0.921621,0.684089 0,0.180523 0.123516,0.285038 0.285037,0.285038 0.171023,0 0.275537,-0.123516 0.275537,-0.275536 0,-0.07601 -0.0285,-0.275537 -0.313542,-0.275537 0.171023,-0.218529 0.465561,-0.285038 0.655586,-0.285038 0.30404,0 0.646085,0.237532 0.646085,0.779102 v 0.218529 c -0.313541,0.019 -0.731596,0.038 -1.111646,0.218529 -0.456059,0.209028 -0.608079,0.522569 -0.608079,0.788603 0,0.494066 0.589077,0.646085 0.969127,0.646085 0.399052,0 0.674588,-0.247033 0.788603,-0.522568 z m -0.038,-0.997631 v 0.60808 c 0,0.570075 -0.437057,0.779102 -0.712593,0.779102 -0.294539,0 -0.541571,-0.209028 -0.541571,-0.513068 0,-0.332544 0.256533,-0.83611 1.254164,-0.874114 z m 0,0"
         id="id-34aa250f-9d24-4a7c-adab-798d5feddec1" />
      <path
         style="fill:#000000;fill-opacity:1;stroke:none;stroke-width:0"
         d="m 55.618628,93.34975 v -0.665087 l -0.845611,0.06651 v 0.190024 c 0.427556,0 0.475063,0.038 0.475063,0.342045 v 1.624713 c 0,0.266035 -0.06651,0.266035 -0.475063,0.266035 v 0.190025 c 0.237532,-0.0095 0.522569,-0.019 0.693591,-0.019 0.237531,0 0.522569,0 0.769601,0.019 V 95.17399 h -0.133017 c -0.446559,0 -0.45606,-0.06651 -0.45606,-0.285037 V 93.95783 c 0,-0.598579 0.256534,-1.140151 0.712593,-1.140151 0.038,0 0.05701,0 0.06651,0.0095 -0.019,0 -0.142519,0.07601 -0.142519,0.237532 0,0.16152 0.133018,0.256533 0.266035,0.256533 0.104514,0 0.256534,-0.07601 0.256534,-0.266035 0,-0.190026 -0.190025,-0.370548 -0.446559,-0.370548 -0.446558,0 -0.665087,0.408553 -0.741097,0.665087 z m 0,0"
         id="id-163322f2-eb25-440e-8b0c-c310653bea02" />
      <path
         style="fill:#000000;fill-opacity:1;stroke:none;stroke-width:0"
         d="m 57.991963,93.34975 v -0.665087 l -0.845611,0.06651 v 0.190024 c 0.427556,0 0.475063,0.038 0.475063,0.342045 v 1.624713 c 0,0.266035 -0.06651,0.266035 -0.475063,0.266035 v 0.190025 c 0.237532,-0.0095 0.522569,-0.019 0.693591,-0.019 0.237531,0 0.522569,0 0.769601,0.019 V 95.17399 h -0.133017 c -0.446559,0 -0.45606,-0.06651 -0.45606,-0.285037 V 93.95783 c 0,-0.598579 0.256534,-1.140151 0.712593,-1.140151 0.03801,0 0.05701,0 0.06651,0.0095 -0.019,0 -0.142519,0.07601 -0.142519,0.237532 0,0.16152 0.133018,0.256533 0.266035,0.256533 0.104514,0 0.256534,-0.07601 0.256534,-0.266035 0,-0.190026 -0.190025,-0.370548 -0.446559,-0.370548 -0.446558,0 -0.665087,0.408553 -0.741097,0.665087 z m 0,0"
         id="id-f7da62ea-75da-40dd-bee7-ecbfe3fbeb56" />
      <path
         style="fill:#000000;fill-opacity:1;stroke:none;stroke-width:0"
         d="m 61.362321,94.907954 c 0.0285,0.237531 0.190025,0.494065 0.475062,0.494065 0.133018,0 0.503566,-0.08551 0.503566,-0.579576 v -0.342045 h -0.15202 v 0.342045 c 0,0.351546 -0.15202,0.389551 -0.218528,0.389551 -0.199526,0 -0.22803,-0.275536 -0.22803,-0.30404 v -1.206659 c 0,-0.256534 0,-0.494065 -0.218529,-0.722094 -0.237531,-0.237532 -0.541571,-0.332543 -0.826608,-0.332543 -0.503566,0 -0.921621,0.285037 -0.921621,0.684089 0,0.180523 0.123516,0.285038 0.285037,0.285038 0.171023,0 0.275537,-0.123516 0.275537,-0.275536 0,-0.07601 -0.0285,-0.275537 -0.313542,-0.275537 0.171023,-0.218529 0.465561,-0.285038 0.655586,-0.285038 0.30404,0 0.646085,0.237532 0.646085,0.779102 v 0.218529 c -0.313541,0.019 -0.731596,0.038 -1.111646,0.218529 -0.456059,0.209028 -0.608079,0.522569 -0.608079,0.788603 0,0.494066 0.589077,0.646085 0.969127,0.646085 0.399052,0 0.674588,-0.247033 0.788603,-0.522568 z m -0.03801,-0.997631 v 0.60808 c 0,0.570075 -0.437057,0.779102 -0.712593,0.779102 -0.294539,0 -0.541571,-0.209028 -0.541571,-0.513068 0,-0.332544 0.256533,-0.83611 1.254164,-0.874114 z m 0,0"
         id="id-22d2c515-de6d-41fe-9136-1cac1676a352" />
      <path
         style="fill:#000000;fill-opacity:1;stroke:none;stroke-width:0"
         d="m 64.731162,93.330747 c 0.15202,-0.389551 0.46556,-0.389551 0.56057,-0.389551 v -0.190024 c -0.14252,0.0095 -0.31354,0.019 -0.45606,0.019 -0.10451,0 -0.38955,-0.0095 -0.52257,-0.019 v 0.190024 c 0.19003,0 0.28504,0.104513 0.28504,0.256534 0,0.06651 -0.009,0.07601 -0.038,0.15202 l -0.61758,1.482194 -0.66508,-1.624713 c -0.0285,-0.06651 -0.038,-0.08551 -0.038,-0.114015 0,-0.15202 0.21853,-0.15202 0.34205,-0.15202 v -0.190024 c -0.16152,0.0095 -0.56058,0.019 -0.66509,0.019 -0.16152,0 -0.40855,-0.0095 -0.589078,-0.019 v 0.190024 c 0.294538,0 0.408558,0 0.494068,0.209028 l 0.91212,2.21379 c -0.038,0.07601 -0.12352,0.275536 -0.15202,0.361047 -0.13302,0.332539 -0.30404,0.750599 -0.69359,0.750599 -0.0285,0 -0.17103,0 -0.28504,-0.11402 0.19002,-0.019 0.23753,-0.15202 0.23753,-0.25653 0,-0.15202 -0.11402,-0.247031 -0.25653,-0.247031 -0.12352,0 -0.256538,0.07601 -0.256538,0.256531 0,0.27554 0.256538,0.49407 0.560578,0.49407 0.38005,0 0.62708,-0.35155 0.7696,-0.69359 z m 0,0"
         id="id-52007501-27b8-49f1-bc6a-ed04e0f81cd0" />
      <path
         style="fill:#000000;fill-opacity:1;stroke:none;stroke-width:0"
         d="m 81.034774,95.10748 v 0.399053 l 0.89312,-0.06651 v -0.190025 c -0.41806,0 -0.47506,-0.038 -0.47506,-0.342045 v -3.676982 l -0.86462,0.06651 v 0.190025 c 0.41806,0 0.46556,0.038 0.46556,0.342045 v 1.311172 c -0.17102,-0.218529 -0.43705,-0.38005 -0.7601,-0.38005 -0.71259,0 -1.34917,0.598578 -1.34917,1.37768 0,0.769601 0.58907,1.36818 1.28267,1.36818 0.38955,0 0.65558,-0.209028 0.8076,-0.399053 z m 0,-1.624713 v 1.244664 c 0,0.104513 0,0.114015 -0.0665,0.218528 -0.18052,0.294539 -0.44656,0.427556 -0.71259,0.427556 -0.27554,0 -0.49407,-0.161521 -0.63658,-0.389551 -0.15202,-0.247032 -0.17103,-0.589077 -0.17103,-0.845611 0,-0.218528 0.01,-0.579576 0.18053,-0.855112 0.13301,-0.190025 0.36104,-0.389551 0.69359,-0.389551 0.20903,0 0.46556,0.09501 0.64608,0.361048 0.0665,0.104513 0.0665,0.114015 0.0665,0.228029 z m 0,0"
         id="id-ba26ffe3-0e74-4ebc-93cd-cd760283b9f1" />
      <path
         style="fill:#000000;fill-opacity:1;stroke:none;stroke-width:0"
         d="m 84.619024,93.406758 c 0.15202,-0.389552 0.46556,-0.389552 0.56057,-0.389552 v -0.190024 c -0.14252,0.0095 -0.31354,0.019 -0.45606,0.019 -0.10451,0 -0.38955,-0.0095 -0.52256,-0.019 v 0.190024 c 0.19002,0 0.28503,0.104514 0.28503,0.256534 0,0.06651 -0.01,0.07601 -0.038,0.15202 l -0.61758,1.482194 -0.66509,-1.624713 c -0.0285,-0.06651 -0.038,-0.08551 -0.038,-0.114015 0,-0.15202 0.21853,-0.15202 0.34205,-0.15202 v -0.190024 c -0.16152,0.0095 -0.56057,0.019 -0.66509,0.019 -0.16152,0 -0.40855,-0.0095 -0.58908,-0.019 v 0.190024 c 0.29454,0 0.40856,0 0.49407,0.209028 l 0.91212,2.21379 c -0.038,0.07601 -0.12352,0.275536 -0.15202,0.361047 -0.13302,0.332539 -0.30404,0.750599 -0.69359,0.750599 -0.0285,0 -0.17102,0 -0.28504,-0.11402 0.19003,-0.019 0.23753,-0.15202 0.23753,-0.25653 0,-0.15202 -0.11401,-0.247031 -0.25653,-0.247031 -0.12352,0 -0.25654,0.07601 -0.25654,0.256531 0,0.27554 0.25654,0.49407 0.56058,0.49407 0.38005,0 0.62708,-0.35155 0.7696,-0.69359 z m 0,0"
         id="id-df876532-f1ad-4d5d-b4cf-e94f84b7facc" />
      <path
         style="fill:#000000;fill-opacity:1;stroke:none;stroke-width:0"
         d="m 85.964174,93.359251 v 1.624713 c 0,0.266035 -0.0665,0.266035 -0.47507,0.266035 v 0.190025 c 0.21853,-0.0095 0.52257,-0.019 0.6936,-0.019 0.15202,0 0.46556,0.0095 0.67458,0.019 v -0.190025 c -0.40855,0 -0.47506,0 -0.47506,-0.266035 v -1.121147 c 0,-0.627082 0.43706,-0.969127 0.81711,-0.969127 0.38955,0 0.45606,0.323043 0.45606,0.674589 v 1.415685 c 0,0.266035 -0.0665,0.266035 -0.47506,0.266035 v 0.190025 c 0.20902,-0.0095 0.52257,-0.019 0.68409,-0.019 0.15202,0 0.47506,0.0095 0.67458,0.019 v -0.190025 c -0.31354,0 -0.46556,0 -0.46556,-0.180524 v -1.159151 c 0,-0.522569 0,-0.703093 -0.19002,-0.921621 -0.0855,-0.104514 -0.28504,-0.22803 -0.63658,-0.22803 -0.44656,0 -0.7316,0.256533 -0.90262,0.636583 v -0.636583 l -0.85512,0.06651 v 0.190024 c 0.42756,0 0.47507,0.038 0.47507,0.342044 z m 0,0"
         id="id-a48160f1-2729-461d-aed4-956dc1ca2edd" />
      <path
         style="fill:#000000;fill-opacity:1;stroke:none;stroke-width:0"
         d="m 90.679064,94.983964 c 0.0285,0.237531 0.19003,0.494065 0.47507,0.494065 0.13301,0 0.50356,-0.08551 0.50356,-0.579576 v -0.342045 h -0.15202 v 0.342045 c 0,0.351546 -0.15202,0.389551 -0.21853,0.389551 -0.19952,0 -0.22803,-0.275536 -0.22803,-0.30404 v -1.206658 c 0,-0.256534 0,-0.494065 -0.21852,-0.722095 -0.23754,-0.237531 -0.54158,-0.332543 -0.82661,-0.332543 -0.50357,0 -0.92162,0.285037 -0.92162,0.68409 0,0.180523 0.12351,0.285037 0.28503,0.285037 0.17103,0 0.27554,-0.123516 0.27554,-0.275536 0,-0.07601 -0.0285,-0.275536 -0.31354,-0.275536 0.17102,-0.218529 0.46556,-0.285038 0.65558,-0.285038 0.30404,0 0.64609,0.237531 0.64609,0.779102 v 0.218529 c -0.31354,0.019 -0.7316,0.038 -1.11165,0.218529 -0.45606,0.209027 -0.60808,0.522568 -0.60808,0.788603 0,0.494065 0.58908,0.646085 0.96913,0.646085 0.39905,0 0.67459,-0.247033 0.7886,-0.522569 z m -0.038,-0.997631 v 0.60808 c 0,0.570075 -0.43706,0.779102 -0.71259,0.779102 -0.29454,0 -0.54158,-0.209027 -0.54158,-0.513067 0,-0.332544 0.25654,-0.83611 1.25417,-0.874115 z m 0,0"
         id="id-83ca0565-1400-4200-b9be-9ffa1429d64c" />
      <path
         style="fill:#000000;fill-opacity:1;stroke:none;stroke-width:0"
         d="m 92.358744,93.359251 v 1.624713 c 0,0.266035 -0.0665,0.266035 -0.47507,0.266035 v 0.190025 c 0.21853,-0.0095 0.52257,-0.019 0.6936,-0.019 0.15202,0 0.46556,0.0095 0.67458,0.019 v -0.190025 c -0.40855,0 -0.47506,0 -0.47506,-0.266035 v -1.121147 c 0,-0.627082 0.43706,-0.969127 0.81711,-0.969127 0.38955,0 0.45606,0.323043 0.45606,0.674589 v 1.415685 c 0,0.266035 -0.0665,0.266035 -0.47506,0.266035 v 0.190025 c 0.20902,-0.0095 0.52257,-0.019 0.68409,-0.019 0.15202,0 0.47506,0.0095 0.67458,0.019 v -0.190025 c -0.39905,0 -0.46556,0 -0.46556,-0.266035 v -1.121147 c 0,-0.627082 0.42756,-0.969127 0.81711,-0.969127 0.38005,0 0.44656,0.323043 0.44656,0.674589 v 1.415685 c 0,0.266035 -0.0665,0.266035 -0.47506,0.266035 v 0.190025 c 0.20902,-0.0095 0.52257,-0.019 0.68409,-0.019 0.16152,0 0.47506,0.0095 0.68409,0.019 v -0.190025 c -0.31354,0 -0.46556,0 -0.47507,-0.180524 v -1.159151 c 0,-0.522569 0,-0.703093 -0.19002,-0.921621 -0.0855,-0.104514 -0.28504,-0.22803 -0.63658,-0.22803 -0.50357,0 -0.77911,0.361047 -0.87412,0.598578 -0.0855,-0.532069 -0.53207,-0.598578 -0.8076,-0.598578 -0.44656,0 -0.7316,0.256533 -0.90262,0.636583 v -0.636583 l -0.85512,0.06651 v 0.190024 c 0.42756,0 0.47507,0.038 0.47507,0.342044 z m 0,0"
         id="id-2c677e89-3812-45f2-af84-76d60ed82962" />
      <path
         style="fill:#000000;fill-opacity:1;stroke:none;stroke-width:0"
         d="m 97.815564,92.760673 -0.84561,0.06651 v 0.190024 c 0.38955,0 0.44656,0.038 0.44656,0.332544 v 1.634214 c 0,0.266035 -0.0665,0.266035 -0.47506,0.266035 v 0.190025 c 0.19002,-0.0095 0.52256,-0.019 0.66508,-0.019 0.21853,0 0.42756,0.0095 0.63659,0.019 V 95.25 c -0.40856,0 -0.42756,-0.0285 -0.42756,-0.266035 z m 0.019,-1.054638 c 0,-0.190025 -0.14252,-0.323043 -0.31354,-0.323043 -0.19002,0 -0.32304,0.161521 -0.32304,0.323043 0,0.161521 0.13302,0.323042 0.32304,0.323042 0.17102,0 0.31354,-0.133018 0.31354,-0.323042 z m 0,0"
         id="id-46183e32-e7c7-4082-b483-2006d8cafa1f" />
      <path
         style="fill:#000000;fill-opacity:1;stroke:none;stroke-width:0"
         d="m 99.137684,94.119351 c 0,-0.98813 0.49407,-1.244663 0.81711,-1.244663 0.057,0 0.437056,0.0095 0.646086,0.22803 -0.24704,0.019 -0.28504,0.199526 -0.28504,0.275536 0,0.161521 0.11401,0.275536 0.27553,0.275536 0.16153,0 0.28504,-0.09501 0.28504,-0.285037 0,-0.408554 -0.46556,-0.646085 -0.931116,-0.646085 -0.7601,0 -1.31117,0.655586 -1.31117,1.406184 0,0.779102 0.59858,1.377681 1.30167,1.377681 0.807596,0 1.007126,-0.731596 1.007126,-0.788604 0,-0.05701 -0.0665,-0.05701 -0.0855,-0.05701 -0.0475,0 -0.0665,0.019 -0.076,0.05701 -0.17102,0.560574 -0.57008,0.636584 -0.788596,0.636584 -0.32305,0 -0.85512,-0.256534 -0.85512,-1.235162 z m 0,0"
         id="id-ae26000a-f5a2-47a6-82cf-5861e860e504" />
      <path
         style="fill:#000000;fill-opacity:1;stroke:none;stroke-width:0"
         d="m 105.14832,94.983964 c 0.0285,0.237531 0.19003,0.494065 0.47507,0.494065 0.13301,0 0.50356,-0.08551 0.50356,-0.579576 v -0.342045 h -0.15202 v 0.342045 c 0,0.351546 -0.15202,0.389551 -0.21853,0.389551 -0.19952,0 -0.22803,-0.275536 -0.22803,-0.30404 v -1.206658 c 0,-0.256534 0,-0.494065 -0.21852,-0.722095 -0.23754,-0.237531 -0.54158,-0.332543 -0.82661,-0.332543 -0.50357,0 -0.92162,0.285037 -0.92162,0.68409 0,0.180523 0.12351,0.285037 0.28503,0.285037 0.17103,0 0.27554,-0.123516 0.27554,-0.275536 0,-0.07601 -0.0285,-0.275536 -0.31354,-0.275536 0.17102,-0.218529 0.46556,-0.285038 0.65558,-0.285038 0.30404,0 0.64609,0.237531 0.64609,0.779102 v 0.218529 c -0.31354,0.019 -0.7316,0.038 -1.11165,0.218529 -0.45606,0.209027 -0.60808,0.522568 -0.60808,0.788603 0,0.494065 0.58908,0.646085 0.96913,0.646085 0.39905,0 0.67459,-0.247033 0.7886,-0.522569 z m -0.038,-0.997631 v 0.60808 c 0,0.570075 -0.43706,0.779102 -0.71259,0.779102 -0.29454,0 -0.54158,-0.209027 -0.54158,-0.513067 0,-0.332544 0.25654,-0.83611 1.25417,-0.874115 z m 0,0"
         id="id-ffdb33e8-fb42-482a-a7d9-653e43da264a" />
      <path
         style="fill:#000000;fill-opacity:1;stroke:none;stroke-width:0"
         d="m 107.18014,93.42576 v -0.665087 l -0.84561,0.06651 v 0.190024 c 0.42756,0 0.47506,0.038 0.47506,0.342045 v 1.624713 c 0,0.266035 -0.0665,0.266035 -0.47506,0.266035 v 0.190025 c 0.23753,-0.0095 0.52257,-0.019 0.69359,-0.019 0.23753,0 0.52257,0 0.7696,0.019 V 95.25 h -0.13301 c -0.44656,0 -0.45606,-0.06651 -0.45606,-0.285037 V 94.03384 c 0,-0.598579 0.25653,-1.14015 0.71259,-1.14015 0.038,0 0.057,0 0.0665,0.0095 -0.019,0 -0.14252,0.07601 -0.14252,0.237531 0,0.161521 0.13302,0.256533 0.26604,0.256533 0.10451,0 0.25653,-0.07601 0.25653,-0.266035 0,-0.190025 -0.19003,-0.370548 -0.44656,-0.370548 -0.44656,0 -0.66509,0.408553 -0.7411,0.665087 z m 0,0"
         id="id-a6879e54-750d-4a3a-858c-daf4db270d63" />
      <path
         style="fill:#000000;fill-opacity:1;stroke:none;stroke-width:0"
         d="m 109.55287,93.42576 v -0.665087 l -0.84561,0.06651 v 0.190024 c 0.42756,0 0.47506,0.038 0.47506,0.342045 v 1.624713 c 0,0.266035 -0.0665,0.266035 -0.47506,0.266035 v 0.190025 c 0.23753,-0.0095 0.52257,-0.019 0.69359,-0.019 0.23753,0 0.52257,0 0.7696,0.019 V 95.25 h -0.13301 c -0.44656,0 -0.45606,-0.06651 -0.45606,-0.285037 V 94.03384 c 0,-0.598579 0.25653,-1.14015 0.71259,-1.14015 0.038,0 0.057,0 0.0665,0.0095 -0.019,0 -0.14252,0.07601 -0.14252,0.237531 0,0.161521 0.13302,0.256533 0.26604,0.256533 0.10451,0 0.25653,-0.07601 0.25653,-0.266035 0,-0.190025 -0.19003,-0.370548 -0.44656,-0.370548 -0.44656,0 -0.66509,0.408553 -0.7411,0.665087 z m 0,0"
         id="id-06d55546-5043-44fd-bf69-ef5bcee6715b" />
      <path
         style="fill:#000000;fill-opacity:1;stroke:none;stroke-width:0"
         d="m 112.92322,94.983964 c 0.0285,0.237531 0.19003,0.494065 0.47507,0.494065 0.13301,0 0.50356,-0.08551 0.50356,-0.579576 v -0.342045 h -0.15202 v 0.342045 c 0,0.351546 -0.15202,0.389551 -0.21853,0.389551 -0.19952,0 -0.22803,-0.275536 -0.22803,-0.30404 v -1.206658 c 0,-0.256534 0,-0.494065 -0.21852,-0.722095 -0.23754,-0.237531 -0.54158,-0.332543 -0.82661,-0.332543 -0.50357,0 -0.92162,0.285037 -0.92162,0.68409 0,0.180523 0.12351,0.285037 0.28503,0.285037 0.17103,0 0.27554,-0.123516 0.27554,-0.275536 0,-0.07601 -0.0285,-0.275536 -0.31354,-0.275536 0.17102,-0.218529 0.46556,-0.285038 0.65558,-0.285038 0.30404,0 0.64609,0.237531 0.64609,0.779102 v 0.218529 c -0.31354,0.019 -0.7316,0.038 -1.11165,0.218529 -0.45606,0.209027 -0.60808,0.522568 -0.60808,0.788603 0,0.494065 0.58908,0.646085 0.96913,0.646085 0.39905,0 0.67459,-0.247033 0.7886,-0.522569 z m -0.038,-0.997631 v 0.60808 c 0,0.570075 -0.43706,0.779102 -0.71259,0.779102 -0.29454,0 -0.54158,-0.209027 -0.54158,-0.513067 0,-0.332544 0.25654,-0.83611 1.25417,-0.874115 z m 0,0"
         id="id-2c1b49c6-0c39-4ac0-b764-1ea505ebf772" />
      <path
         style="fill:#000000;fill-opacity:1;stroke:none;stroke-width:0"
         d="m 116.28659,93.406758 c 0.15202,-0.389552 0.46556,-0.389552 0.56057,-0.389552 v -0.190024 c -0.14252,0.0095 -0.31354,0.019 -0.45606,0.019 -0.10451,0 -0.38955,-0.0095 -0.52256,-0.019 v 0.190024 c 0.19002,0 0.28503,0.104514 0.28503,0.256534 0,0.06651 -0.01,0.07601 -0.038,0.15202 l -0.61758,1.482194 -0.66509,-1.624713 c -0.0285,-0.06651 -0.038,-0.08551 -0.038,-0.114015 0,-0.15202 0.21853,-0.15202 0.34205,-0.15202 v -0.190024 c -0.16152,0.0095 -0.56057,0.019 -0.66509,0.019 -0.16152,0 -0.40855,-0.0095 -0.58908,-0.019 v 0.190024 c 0.29454,0 0.40856,0 0.49407,0.209028 l 0.91212,2.21379 c -0.038,0.07601 -0.12352,0.275536 -0.15202,0.361047 -0.13302,0.332539 -0.30404,0.750599 -0.69359,0.750599 -0.0285,0 -0.17102,0 -0.28504,-0.11402 0.19003,-0.019 0.23753,-0.15202 0.23753,-0.25653 0,-0.15202 -0.11401,-0.247031 -0.25653,-0.247031 -0.12352,0 -0.25654,0.07601 -0.25654,0.256531 0,0.27554 0.25654,0.49407 0.56058,0.49407 0.38005,0 0.62708,-0.35155 0.7696,-0.69359 z m 0,0"
         id="id-a519a8f1-05d7-44cd-8120-9ea7c1994658" />
      <path
         style="fill:#000000;fill-opacity:1;stroke:none;stroke-width:0"
         d="m 144.27598,91.820049 -0.87411,0.06651 v 0.190025 c 0.42755,0 0.47506,0.038 0.47506,0.342045 v 3.154413 c 0,0.266036 -0.0665,0.266036 -0.47506,0.266036 v 0.190025 c 0.19952,-0.0095 0.52256,-0.019 0.67458,-0.019 0.15202,0 0.44656,0.0095 0.67459,0.019 v -0.190025 c -0.40855,0 -0.47506,0 -0.47506,-0.266036 z m 0,0"
         id="id-7f79a73d-df65-49d8-8aee-a6f6d1f4ce46" />
      <path
         style="fill:#000000;fill-opacity:1;stroke:none;stroke-width:0"
         d="m 145.95853,93.34975 -0.84561,0.06651 v 0.190024 c 0.38955,0 0.44656,0.038 0.44656,0.332544 v 1.634214 c 0,0.266035 -0.0665,0.266035 -0.47506,0.266035 v 0.190025 c 0.19002,-0.0095 0.52256,-0.019 0.66508,-0.019 0.21853,0 0.42756,0.0095 0.63659,0.019 v -0.190024 c -0.40856,0 -0.42756,-0.0285 -0.42756,-0.266036 z m 0.019,-1.054637 c 0,-0.190026 -0.14252,-0.323043 -0.31354,-0.323043 -0.19002,0 -0.32304,0.16152 -0.32304,0.323043 0,0.16152 0.13302,0.323042 0.32304,0.323042 0.17102,0 0.31354,-0.133019 0.31354,-0.323042 z m 0,0"
         id="id-f1d3a974-753f-49c9-8f18-19c0455bbf02" />
      <path
         style="fill:#000000;fill-opacity:1;stroke:none;stroke-width:0"
         d="m 147.23315,93.948329 v 1.624713 c 0,0.266035 -0.0665,0.266035 -0.47507,0.266035 v 0.190025 c 0.21853,-0.0095 0.52257,-0.019 0.6936,-0.019 0.15202,0 0.46556,0.0095 0.67458,0.019 v -0.190025 c -0.40855,0 -0.47506,0 -0.47506,-0.266035 v -1.121147 c 0,-0.627082 0.43706,-0.969127 0.81711,-0.969127 0.38955,0 0.45606,0.323043 0.45606,0.674589 v 1.415685 c 0,0.266035 -0.0665,0.266035 -0.47506,0.266035 v 0.190025 c 0.20902,-0.0095 0.52257,-0.019 0.68409,-0.019 0.15202,0 0.47506,0.0095 0.67458,0.019 v -0.190025 c -0.31354,0 -0.46556,0 -0.46556,-0.180525 v -1.15915 c 0,-0.52257 0,-0.703093 -0.19002,-0.921621 -0.0855,-0.104514 -0.28504,-0.228031 -0.63658,-0.228031 -0.44656,0 -0.7316,0.256534 -0.90262,0.636583 V 93.34975 l -0.85512,0.06651 v 0.190024 c 0.42756,0 0.47507,0.038 0.47507,0.342045 z m 0,0"
         id="id-bad5f9cb-74e4-44fb-9ef4-51c37ba51f3c" />
      <path
         style="fill:#000000;fill-opacity:1;stroke:none;stroke-width:0"
         d="m 150.57986,95.573042 c 0,0.266035 -0.0665,0.266035 -0.47506,0.266035 v 0.190025 c 0.19953,-0.0095 0.48457,-0.019 0.65559,-0.019 0.19002,0 0.42755,0.0095 0.67459,0.019 v -0.190025 c -0.40856,0 -0.47507,0 -0.47507,-0.266035 v -0.627083 l 0.38956,-0.332543 c 0.46556,0.636584 0.72209,0.978628 0.72209,1.092643 0,0.114015 -0.10451,0.133017 -0.21853,0.133017 v 0.190025 c 0.16152,-0.0095 0.52257,-0.019 0.65559,-0.019 0.17102,0 0.35154,0.0095 0.52257,0.019 v -0.190025 c -0.22803,0 -0.36105,0 -0.58908,-0.323042 l -0.7696,-1.083142 c -0.01,-0.0095 -0.038,-0.04751 -0.038,-0.06651 0,-0.019 0.43706,-0.38955 0.49407,-0.437056 0.38005,-0.30404 0.63658,-0.323043 0.7601,-0.323043 v -0.190024 c -0.17103,0.019 -0.24704,0.019 -0.41806,0.019 -0.21853,0 -0.59858,-0.0095 -0.68409,-0.019 v 0.190024 c 0.11402,0 0.18053,0.06651 0.18053,0.152019 0,0.123518 -0.0855,0.190026 -0.13302,0.237532 l -0.85511,0.731595 v -2.907381 l -0.87412,0.06651 v 0.190025 c 0.42756,0 0.47506,0.038 0.47506,0.342045 z m 0,0"
         id="id-cf3bd143-1ff6-4a05-804e-71ac4f7f895b" />
      <path
         style="fill:#000000;fill-opacity:1;stroke:none;stroke-width:0"
         d="m 153.636,94.499402 c 0.038,-0.902619 0.55107,-1.054639 0.7601,-1.054639 0.61758,0 0.68409,0.817107 0.68409,1.054639 z m 0,0.133016 h 1.69122 c 0.13302,0 0.15202,0 0.15202,-0.133016 0,-0.598579 -0.33254,-1.187657 -1.08314,-1.187657 -0.70309,0 -1.26367,0.627083 -1.26367,1.387182 0,0.807607 0.63659,1.396683 1.33018,1.396683 0.74109,0 1.01663,-0.674589 1.01663,-0.788604 0,-0.05701 -0.0475,-0.07601 -0.0855,-0.07601 -0.0475,0 -0.0665,0.038 -0.076,0.08551 -0.20903,0.627082 -0.7601,0.627082 -0.81711,0.627082 -0.30404,0 -0.54157,-0.180524 -0.68409,-0.408554 -0.18052,-0.285037 -0.18052,-0.684089 -0.18052,-0.902618 z m 0,0"
         id="id-0f029aa7-77bc-4498-9bae-dd32e1502526" />
      <path
         style="fill:#000000;fill-opacity:1;stroke:none;stroke-width:0"
         d="m 157.95328,95.696557 v 0.399053 l 0.89312,-0.06651 v -0.190025 c -0.41806,0 -0.47506,-0.038 -0.47506,-0.342045 v -3.676982 l -0.86462,0.06651 v 0.190025 c 0.41806,0 0.46556,0.038 0.46556,0.342045 V 93.7298 c -0.17102,-0.218529 -0.43705,-0.38005 -0.7601,-0.38005 -0.71259,0 -1.34917,0.598579 -1.34917,1.37768 0,0.769601 0.58907,1.36818 1.28267,1.36818 0.38955,0 0.65558,-0.209028 0.8076,-0.399053 z m 0,-1.624713 v 1.244664 c 0,0.104513 0,0.114015 -0.0665,0.218529 -0.18052,0.294539 -0.44656,0.427555 -0.71259,0.427555 -0.27554,0 -0.49407,-0.16152 -0.63658,-0.38955 -0.15202,-0.247033 -0.17103,-0.589078 -0.17103,-0.845612 0,-0.218528 0.01,-0.579576 0.18053,-0.855112 0.13301,-0.190025 0.36104,-0.389551 0.69359,-0.389551 0.20903,0 0.46556,0.09501 0.64608,0.361048 0.0665,0.104513 0.0665,0.114015 0.0665,0.228029 z m 0,0"
         id="id-8f37c9c9-6e04-4e26-9168-a6b3b5e33703" />
      <path
         style="fill:#000000;fill-opacity:1;stroke:none;stroke-width:0"
         d="m 162.11035,91.820049 -0.87411,0.06651 v 0.190025 c 0.42755,0 0.47506,0.038 0.47506,0.342045 v 3.154413 c 0,0.266036 -0.0665,0.266036 -0.47506,0.266036 v 0.190025 c 0.19952,-0.0095 0.52256,-0.019 0.67458,-0.019 0.15202,0 0.44656,0.0095 0.67459,0.019 v -0.190025 c -0.40855,0 -0.47506,0 -0.47506,-0.266036 z m 0,0"
         id="id-63f9fc30-dfb8-4f44-b7b7-2cac20ddbe32" />
      <path
         style="fill:#000000;fill-opacity:1;stroke:none;stroke-width:0"
         d="m 163.79351,93.34975 -0.84561,0.06651 v 0.190024 c 0.38955,0 0.44656,0.038 0.44656,0.332544 v 1.634214 c 0,0.266035 -0.0665,0.266035 -0.47506,0.266035 v 0.190025 c 0.19002,-0.0095 0.52256,-0.019 0.66508,-0.019 0.21853,0 0.42756,0.0095 0.63659,0.019 v -0.190024 c -0.40856,0 -0.42756,-0.0285 -0.42756,-0.266036 z m 0.019,-1.054637 c 0,-0.190026 -0.14252,-0.323043 -0.31354,-0.323043 -0.19002,0 -0.32304,0.16152 -0.32304,0.323043 0,0.16152 0.13302,0.323042 0.32304,0.323042 0.17102,0 0.31354,-0.133019 0.31354,-0.323042 z m 0,0"
         id="id-756705ab-8c6a-4ce5-8217-b3979a5cbb62" />
      <path
         style="fill:#000000;fill-opacity:1;stroke:none;stroke-width:0"
         d="m 165.6667,94.850948 c 0.13301,0.0285 0.62708,0.123515 0.62708,0.560573 0,0.30404 -0.20903,0.551072 -0.68409,0.551072 -0.51307,0 -0.7316,-0.342045 -0.84561,-0.864613 -0.019,-0.07601 -0.019,-0.09501 -0.0855,-0.09501 -0.076,0 -0.076,0.038 -0.076,0.142518 v 0.807606 c 0,0.104514 0,0.142519 0.0665,0.142519 0.0285,0 0.038,-0.0095 0.15202,-0.123516 0.01,-0.0095 0.01,-0.019 0.12352,-0.133019 0.26604,0.247033 0.54157,0.256535 0.66509,0.256535 0.69359,0 0.97863,-0.408554 0.97863,-0.845612 0,-0.313541 -0.18053,-0.503566 -0.25654,-0.570075 -0.19952,-0.199526 -0.43705,-0.247032 -0.69359,-0.294538 -0.34204,-0.06651 -0.7411,-0.142519 -0.7411,-0.494065 0,-0.218529 0.15202,-0.465561 0.67459,-0.465561 0.66509,0 0.7031,0.551072 0.7126,0.731596 0,0.05701 0.057,0.05701 0.0665,0.05701 0.0855,0 0.0855,-0.0285 0.0855,-0.142519 v -0.61758 c 0,-0.09501 0,-0.142518 -0.0665,-0.142518 -0.0285,0 -0.0475,0 -0.12352,0.07601 -0.019,0.019 -0.076,0.07601 -0.10451,0.09501 -0.22803,-0.171021 -0.47506,-0.171021 -0.57008,-0.171021 -0.74109,0 -0.96912,0.408553 -0.96912,0.750598 0,0.209028 0.095,0.380049 0.25653,0.513067 0.19953,0.15202 0.37055,0.190025 0.80761,0.275537 z m 0,0"
         id="id-9d8dcc92-35c7-4b25-bb5b-31b3812f6c7e" />
      <path
         style="fill:#000000;fill-opacity:1;stroke:none;stroke-width:0"
         d="m 167.83732,93.606284 h 0.87411 V 93.41626 h -0.87411 v -1.111646 h -0.15202 c 0,0.494065 -0.18053,1.140149 -0.77911,1.168653 v 0.133017 h 0.51307 v 1.67222 c 0,0.741097 0.57008,0.817107 0.78861,0.817107 0.42755,0 0.59857,-0.427556 0.59857,-0.817107 v -0.342045 h -0.15202 v 0.332543 c 0,0.446559 -0.18052,0.674589 -0.40855,0.674589 -0.40855,0 -0.40855,-0.551072 -0.40855,-0.655586 z m 0,0"
         id="id-b134b65a-f37d-438f-b4d5-2425c67efa62" />
    </g>
  </g>
</svg>
