<?xml version="1.0" encoding="UTF-8" standalone="no"?>
<!-- Created with Inkscape (http://www.inkscape.org/) -->

<svg
   width="92.955193mm"
   height="54.375576mm"
   viewBox="0 0 92.955191 54.375575"
   version="1.1"
   id="svg5"
   sodipodi:docname="linkedNode.svg"
   inkscape:version="1.1 (c4e8f9e, 2021-05-24)"
   xmlns:inkscape="http://www.inkscape.org/namespaces/inkscape"
   xmlns:sodipodi="http://sodipodi.sourceforge.net/DTD/sodipodi-0.dtd"
   xmlns="http://www.w3.org/2000/svg"
   xmlns:svg="http://www.w3.org/2000/svg">
  <sodipodi:namedview
     id="namedview7"
     pagecolor="#ffffff"
     bordercolor="#666666"
     borderopacity="1.0"
     inkscape:pageshadow="2"
     inkscape:pageopacity="0.0"
     inkscape:pagecheckerboard="0"
     inkscape:document-units="mm"
     showgrid="false"
     inkscape:zoom="1.0791761"
     inkscape:cx="163.55069"
     inkscape:cy="104.24619"
     inkscape:window-width="1440"
     inkscape:window-height="847"
     inkscape:window-x="1673"
     inkscape:window-y="25"
     inkscape:window-maximized="0"
     inkscape:current-layer="layer1">
    <inkscape:grid
       type="xygrid"
       id="grid910"
       originx="-84.323936"
       originy="-137.45099" />
  </sodipodi:namedview>
  <defs
     id="defs2">
    <marker
       style="overflow:visible"
       id="marker3614"
       refX="0"
       refY="0"
       orient="auto"
       inkscape:stockid="Arrow2Mend"
       inkscape:isstock="true">
      <path
         transform="scale(-0.6)"
         d="M 8.7185878,4.0337352 -2.2072895,0.01601326 8.7185884,-4.0017078 c -1.7454984,2.3720609 -1.7354408,5.6174519 -6e-7,8.035443 z"
         style="fill:context-stroke;fill-rule:evenodd;stroke-width:0.625;stroke-linejoin:round"
         id="path3612" />
    </marker>
    <marker
       style="overflow:visible"
       id="DotM"
       refX="0"
       refY="0"
       orient="auto"
       inkscape:stockid="DotM"
       inkscape:isstock="true">
      <path
         transform="matrix(0.4,0,0,0.4,2.96,0.4)"
         style="fill:context-stroke;fill-rule:evenodd;stroke:context-stroke;stroke-width:1pt"
         d="m -2.5,-1 c 0,2.76 -2.24,5 -5,5 -2.76,0 -5,-2.24 -5,-5 0,-2.76 2.24,-5 5,-5 2.76,0 5,2.24 5,5 z"
         id="path2913" />
    </marker>
    <marker
       style="overflow:visible"
       id="DotL"
       refX="0"
       refY="0"
       orient="auto"
       inkscape:stockid="DotL"
       inkscape:isstock="true">
      <path
         transform="matrix(0.8,0,0,0.8,5.92,0.8)"
         style="fill:context-stroke;fill-rule:evenodd;stroke:context-stroke;stroke-width:1pt"
         d="m -2.5,-1 c 0,2.76 -2.24,5 -5,5 -2.76,0 -5,-2.24 -5,-5 0,-2.76 2.24,-5 5,-5 2.76,0 5,2.24 5,5 z"
         id="path2910" />
    </marker>
    <marker
       style="overflow:visible"
       id="Arrow2Mend"
       refX="0"
       refY="0"
       orient="auto"
       inkscape:stockid="Arrow2Mend"
       inkscape:isstock="true">
      <path
         transform="scale(-0.6)"
         d="M 8.7185878,4.0337352 -2.2072895,0.01601326 8.7185884,-4.0017078 c -1.7454984,2.3720609 -1.7354408,5.6174519 -6e-7,8.035443 z"
         style="fill:context-stroke;fill-rule:evenodd;stroke-width:0.625;stroke-linejoin:round"
         id="path2876" />
    </marker>
    <marker
       style="overflow:visible"
       id="TriangleOutM"
       refX="0"
       refY="0"
       orient="auto"
       inkscape:stockid="TriangleOutM"
       inkscape:isstock="true">
      <path
         transform="scale(0.4)"
         style="fill:context-stroke;fill-rule:evenodd;stroke:context-stroke;stroke-width:1pt"
         d="M 5.77,0 -2.88,5 V -5 Z"
         id="path2994" />
    </marker>
    <marker
       style="overflow:visible"
       id="TriangleOutL"
       refX="0"
       refY="0"
       orient="auto"
       inkscape:stockid="TriangleOutL"
       inkscape:isstock="true">
      <path
         transform="scale(0.8)"
         style="fill:context-stroke;fill-rule:evenodd;stroke:context-stroke;stroke-width:1pt"
         d="M 5.77,0 -2.88,5 V -5 Z"
         id="path2991" />
    </marker>
    <defs
       id="defs1134">
      <g
         id="g1132">
        <symbol
           overflow="visible"
           id="symbol1110">
          <path
             style="stroke:none;stroke-width:0"
             d=""
             id="path1108" />
        </symbol>
        <symbol
           overflow="visible"
           id="symbol1114">
          <path
             style="stroke:none;stroke-width:0"
             d="M 3.65625,-3.328125 C 4.21875,-3.6875 4.5,-4.25 4.5,-4.796875 c 0,-0.734375 -0.734375,-1.40625 -1.875,-1.40625 -1.203125,0 -1.890625,0.484375 -1.890625,1.171875 0,0.328125 0.25,0.46875 0.4375,0.46875 0.21875,0 0.4375,-0.171875 0.4375,-0.453125 0,-0.140625 -0.046875,-0.234375 -0.078125,-0.265625 0.296875,-0.3125 1.015625,-0.3125 1.09375,-0.3125 0.6875,0 1.1875,0.359375 1.1875,0.8125 0,0.296875 -0.15625,0.640625 -0.421875,0.859375 C 3.078125,-3.65625 2.828125,-3.640625 2.46875,-3.625 1.890625,-3.578125 1.75,-3.578125 1.75,-3.296875 c 0,0.3125 0.234375,0.3125 0.390625,0.3125 h 0.46875 c 0.984375,0 1.484375,0.671875 1.484375,1.25 C 4.09375,-1.125 3.53125,-0.5 2.625,-0.5 2.234375,-0.5 1.46875,-0.609375 1.203125,-1.078125 1.25,-1.125 1.328125,-1.1875 1.328125,-1.390625 c 0,-0.234375 -0.1875,-0.4375 -0.4375,-0.4375 -0.234375,0 -0.453125,0.15625 -0.453125,0.46875 0,0.890625 0.96875,1.46875 2.1875,1.46875 1.3125,0 2.15625,-0.921875 2.15625,-1.84375 0,-0.703125 -0.46875,-1.296875 -1.125,-1.59375 z m 0,0"
             id="path1112" />
        </symbol>
        <symbol
           overflow="visible"
           id="symbol1118">
          <path
             style="stroke:none;stroke-width:0"
             d="m 3.765625,-5.484375 c -1.734375,1.828125 -2.078125,4.03125 -2.078125,5.125 0,0.140625 0,0.46875 0.359375,0.46875 C 2.21875,0.109375 2.375,0 2.375,-0.296875 2.4375,-3.125 3.953125,-4.859375 4.5625,-5.4375 4.765625,-5.625 4.78125,-5.640625 4.78125,-5.78125 c 0,-0.3125 -0.234375,-0.3125 -0.390625,-0.3125 H 1.09375 C 1.03125,-6.25 0.859375,-6.25 0.78125,-6.25 0.4375,-6.25 0.4375,-6.03125 0.4375,-5.84375 v 0.421875 c 0,0.1875 0,0.40625 0.34375,0.40625 0.34375,0 0.34375,-0.1875 0.34375,-0.46875 z m 0,0"
             id="path1116" />
        </symbol>
        <symbol
           overflow="visible"
           id="symbol1122">
          <path
             style="stroke:none;stroke-width:0"
             d="M 0.671875,-0.578125 C 0.578125,-0.5 0.515625,-0.453125 0.515625,-0.3125 0.515625,0 0.765625,0 0.921875,0 H 4.3125 c 0.328125,0 0.390625,-0.09375 0.390625,-0.40625 v -0.265625 c 0,-0.1875 0,-0.40625 -0.34375,-0.40625 -0.34375,0 -0.34375,0.1875 -0.34375,0.46875 h -2.375 c 0.59375,-0.5 1.546875,-1.25 1.984375,-1.65625 0.625,-0.5625 1.078125,-1.1875 1.078125,-1.984375 0,-1.203125 -1,-1.953125 -2.21875,-1.953125 -1.171875,0 -1.96875,0.8125 -1.96875,1.671875 0,0.359375 0.28125,0.46875 0.453125,0.46875 0.203125,0 0.4375,-0.171875 0.4375,-0.4375 0,-0.125 -0.046875,-0.25 -0.140625,-0.328125 0.15625,-0.453125 0.625,-0.765625 1.171875,-0.765625 0.8125,0 1.578125,0.453125 1.578125,1.34375 0,0.6875 -0.484375,1.265625 -1.140625,1.8125 z m 0,0"
             id="path1120" />
        </symbol>
        <symbol
           overflow="visible"
           id="symbol1126">
          <path
             style="stroke:none;stroke-width:0"
             d="M 3.984375,-2.71875 C 3.890625,-1.484375 3.109375,-0.5 2.15625,-0.5 2.0625,-0.5 1.703125,-0.515625 1.5,-0.671875 1.53125,-0.71875 1.578125,-0.78125 1.578125,-0.953125 c 0,-0.234375 -0.171875,-0.4375 -0.4375,-0.4375 -0.25,0 -0.4375,0.171875 -0.4375,0.46875 0,0.328125 0.171875,1.03125 1.453125,1.03125 1.3125,0 2.53125,-1.25 2.53125,-3.21875 0,-2.40625 -1.09375,-3.09375 -2.046875,-3.09375 -1.109375,0 -2.109375,0.828125 -2.109375,2.03125 0,1.140625 0.875,2.03125 1.96875,2.03125 0.515625,0 1.03125,-0.171875 1.484375,-0.578125 z m -1.4375,-0.046875 c -0.796875,0 -1.328125,-0.65625 -1.328125,-1.40625 0,-0.859375 0.703125,-1.421875 1.421875,-1.421875 0.4375,0 0.703125,0.234375 0.875,0.4375 0.25,0.328125 0.375,0.828125 0.375,0.890625 0,0.015625 -0.015625,0.03125 -0.015625,0.09375 0,0.046875 0.046875,0.203125 0.046875,0.296875 0,0.546875 -0.546875,1.109375 -1.375,1.109375 z m 0,0"
             id="path1124" />
        </symbol>
        <symbol
           overflow="visible"
           id="symbol1130">
          <path
             style="stroke:none;stroke-width:0"
             d="m 3.09375,-5.796875 c 0,-0.15625 0,-0.40625 -0.296875,-0.40625 -0.1875,0 -0.25,0.125 -0.296875,0.234375 C 2.125,-5.109375 1.609375,-5 1.421875,-4.984375 c -0.171875,0.015625 -0.375,0.03125 -0.375,0.3125 0,0.25 0.171875,0.296875 0.328125,0.296875 0.1875,0 0.59375,-0.0625 1.03125,-0.4375 v 4.203125 H 1.5 c -0.15625,0 -0.390625,0 -0.390625,0.3125 C 1.109375,0 1.359375,0 1.5,0 H 4 c 0.15625,0 0.40625,0 0.40625,-0.296875 0,-0.3125 -0.234375,-0.3125 -0.40625,-0.3125 H 3.09375 Z m 0,0"
             id="path1128" />
        </symbol>
      </g>
    </defs>
    <defs
       id="defs1974">
      <g
         id="g1972">
        <symbol
           overflow="visible"
           id="symbol1950">
          <path
             style="stroke:none;stroke-width:0"
             d=""
             id="path1948" />
        </symbol>
        <symbol
           overflow="visible"
           id="symbol1954">
          <path
             style="stroke:none;stroke-width:0"
             d="M 3.65625,-3.328125 C 4.21875,-3.6875 4.5,-4.25 4.5,-4.796875 c 0,-0.734375 -0.734375,-1.40625 -1.875,-1.40625 -1.203125,0 -1.890625,0.484375 -1.890625,1.171875 0,0.328125 0.25,0.46875 0.4375,0.46875 0.21875,0 0.4375,-0.171875 0.4375,-0.453125 0,-0.140625 -0.046875,-0.234375 -0.078125,-0.265625 0.296875,-0.3125 1.015625,-0.3125 1.09375,-0.3125 0.6875,0 1.1875,0.359375 1.1875,0.8125 0,0.296875 -0.15625,0.640625 -0.421875,0.859375 C 3.078125,-3.65625 2.828125,-3.640625 2.46875,-3.625 1.890625,-3.578125 1.75,-3.578125 1.75,-3.296875 c 0,0.3125 0.234375,0.3125 0.390625,0.3125 h 0.46875 c 0.984375,0 1.484375,0.671875 1.484375,1.25 C 4.09375,-1.125 3.53125,-0.5 2.625,-0.5 2.234375,-0.5 1.46875,-0.609375 1.203125,-1.078125 1.25,-1.125 1.328125,-1.1875 1.328125,-1.390625 c 0,-0.234375 -0.1875,-0.4375 -0.4375,-0.4375 -0.234375,0 -0.453125,0.15625 -0.453125,0.46875 0,0.890625 0.96875,1.46875 2.1875,1.46875 1.3125,0 2.15625,-0.921875 2.15625,-1.84375 0,-0.703125 -0.46875,-1.296875 -1.125,-1.59375 z m 0,0"
             id="path1952" />
        </symbol>
        <symbol
           overflow="visible"
           id="symbol1958">
          <path
             style="stroke:none;stroke-width:0"
             d="m 3.765625,-5.484375 c -1.734375,1.828125 -2.078125,4.03125 -2.078125,5.125 0,0.140625 0,0.46875 0.359375,0.46875 C 2.21875,0.109375 2.375,0 2.375,-0.296875 2.4375,-3.125 3.953125,-4.859375 4.5625,-5.4375 4.765625,-5.625 4.78125,-5.640625 4.78125,-5.78125 c 0,-0.3125 -0.234375,-0.3125 -0.390625,-0.3125 H 1.09375 C 1.03125,-6.25 0.859375,-6.25 0.78125,-6.25 0.4375,-6.25 0.4375,-6.03125 0.4375,-5.84375 v 0.421875 c 0,0.1875 0,0.40625 0.34375,0.40625 0.34375,0 0.34375,-0.1875 0.34375,-0.46875 z m 0,0"
             id="path1956" />
        </symbol>
        <symbol
           overflow="visible"
           id="symbol1962">
          <path
             style="stroke:none;stroke-width:0"
             d="M 0.671875,-0.578125 C 0.578125,-0.5 0.515625,-0.453125 0.515625,-0.3125 0.515625,0 0.765625,0 0.921875,0 H 4.3125 c 0.328125,0 0.390625,-0.09375 0.390625,-0.40625 v -0.265625 c 0,-0.1875 0,-0.40625 -0.34375,-0.40625 -0.34375,0 -0.34375,0.1875 -0.34375,0.46875 h -2.375 c 0.59375,-0.5 1.546875,-1.25 1.984375,-1.65625 0.625,-0.5625 1.078125,-1.1875 1.078125,-1.984375 0,-1.203125 -1,-1.953125 -2.21875,-1.953125 -1.171875,0 -1.96875,0.8125 -1.96875,1.671875 0,0.359375 0.28125,0.46875 0.453125,0.46875 0.203125,0 0.4375,-0.171875 0.4375,-0.4375 0,-0.125 -0.046875,-0.25 -0.140625,-0.328125 0.15625,-0.453125 0.625,-0.765625 1.171875,-0.765625 0.8125,0 1.578125,0.453125 1.578125,1.34375 0,0.6875 -0.484375,1.265625 -1.140625,1.8125 z m 0,0"
             id="path1960" />
        </symbol>
        <symbol
           overflow="visible"
           id="symbol1966">
          <path
             style="stroke:none;stroke-width:0"
             d="M 3.984375,-2.71875 C 3.890625,-1.484375 3.109375,-0.5 2.15625,-0.5 2.0625,-0.5 1.703125,-0.515625 1.5,-0.671875 1.53125,-0.71875 1.578125,-0.78125 1.578125,-0.953125 c 0,-0.234375 -0.171875,-0.4375 -0.4375,-0.4375 -0.25,0 -0.4375,0.171875 -0.4375,0.46875 0,0.328125 0.171875,1.03125 1.453125,1.03125 1.3125,0 2.53125,-1.25 2.53125,-3.21875 0,-2.40625 -1.09375,-3.09375 -2.046875,-3.09375 -1.109375,0 -2.109375,0.828125 -2.109375,2.03125 0,1.140625 0.875,2.03125 1.96875,2.03125 0.515625,0 1.03125,-0.171875 1.484375,-0.578125 z m -1.4375,-0.046875 c -0.796875,0 -1.328125,-0.65625 -1.328125,-1.40625 0,-0.859375 0.703125,-1.421875 1.421875,-1.421875 0.4375,0 0.703125,0.234375 0.875,0.4375 0.25,0.328125 0.375,0.828125 0.375,0.890625 0,0.015625 -0.015625,0.03125 -0.015625,0.09375 0,0.046875 0.046875,0.203125 0.046875,0.296875 0,0.546875 -0.546875,1.109375 -1.375,1.109375 z m 0,0"
             id="path1964" />
        </symbol>
        <symbol
           overflow="visible"
           id="symbol1970">
          <path
             style="stroke:none;stroke-width:0"
             d="m 3.09375,-5.796875 c 0,-0.15625 0,-0.40625 -0.296875,-0.40625 -0.1875,0 -0.25,0.125 -0.296875,0.234375 C 2.125,-5.109375 1.609375,-5 1.421875,-4.984375 c -0.171875,0.015625 -0.375,0.03125 -0.375,0.3125 0,0.25 0.171875,0.296875 0.328125,0.296875 0.1875,0 0.59375,-0.0625 1.03125,-0.4375 v 4.203125 H 1.5 c -0.15625,0 -0.390625,0 -0.390625,0.3125 C 1.109375,0 1.359375,0 1.5,0 H 4 c 0.15625,0 0.40625,0 0.40625,-0.296875 0,-0.3125 -0.234375,-0.3125 -0.40625,-0.3125 H 3.09375 Z m 0,0"
             id="path1968" />
        </symbol>
      </g>
    </defs>
    <defs
       id="id-54d576c3-302a-405d-9b2b-3edff6944b72">
      <g
         id="id-aa43d2cf-f91b-4af5-892c-df1d83c7bbbd">
        <symbol
           overflow="visible"
           id="id-09bc94d4-9da6-454f-b505-ebfb89ca24b4">
          <path
             style="stroke:none;stroke-width:0"
             d=""
             id="id-fa85707a-46cd-46ea-b4f6-230459442018" />
        </symbol>
        <symbol
           overflow="visible"
           id="id-34ef0088-ab42-43c8-a1cb-0d05eee15527">
          <path
             style="stroke:none;stroke-width:0"
             d="M 3.65625,-3.328125 C 4.21875,-3.6875 4.5,-4.25 4.5,-4.796875 c 0,-0.734375 -0.734375,-1.40625 -1.875,-1.40625 -1.203125,0 -1.890625,0.484375 -1.890625,1.171875 0,0.328125 0.25,0.46875 0.4375,0.46875 0.21875,0 0.4375,-0.171875 0.4375,-0.453125 0,-0.140625 -0.046875,-0.234375 -0.078125,-0.265625 0.296875,-0.3125 1.015625,-0.3125 1.09375,-0.3125 0.6875,0 1.1875,0.359375 1.1875,0.8125 0,0.296875 -0.15625,0.640625 -0.421875,0.859375 C 3.078125,-3.65625 2.828125,-3.640625 2.46875,-3.625 1.890625,-3.578125 1.75,-3.578125 1.75,-3.296875 c 0,0.3125 0.234375,0.3125 0.390625,0.3125 h 0.46875 c 0.984375,0 1.484375,0.671875 1.484375,1.25 C 4.09375,-1.125 3.53125,-0.5 2.625,-0.5 2.234375,-0.5 1.46875,-0.609375 1.203125,-1.078125 1.25,-1.125 1.328125,-1.1875 1.328125,-1.390625 c 0,-0.234375 -0.1875,-0.4375 -0.4375,-0.4375 -0.234375,0 -0.453125,0.15625 -0.453125,0.46875 0,0.890625 0.96875,1.46875 2.1875,1.46875 1.3125,0 2.15625,-0.921875 2.15625,-1.84375 0,-0.703125 -0.46875,-1.296875 -1.125,-1.59375 z m 0,0"
             id="id-853cc278-a3f6-4f6e-8b96-296dfb2c2a41" />
        </symbol>
        <symbol
           overflow="visible"
           id="id-13dde740-2c55-4bab-a4d3-6597cb9a2747">
          <path
             style="stroke:none;stroke-width:0"
             d="m 3.765625,-5.484375 c -1.734375,1.828125 -2.078125,4.03125 -2.078125,5.125 0,0.140625 0,0.46875 0.359375,0.46875 C 2.21875,0.109375 2.375,0 2.375,-0.296875 2.4375,-3.125 3.953125,-4.859375 4.5625,-5.4375 4.765625,-5.625 4.78125,-5.640625 4.78125,-5.78125 c 0,-0.3125 -0.234375,-0.3125 -0.390625,-0.3125 H 1.09375 C 1.03125,-6.25 0.859375,-6.25 0.78125,-6.25 0.4375,-6.25 0.4375,-6.03125 0.4375,-5.84375 v 0.421875 c 0,0.1875 0,0.40625 0.34375,0.40625 0.34375,0 0.34375,-0.1875 0.34375,-0.46875 z m 0,0"
             id="id-2347de8c-e32c-4bcb-ae71-5618b89075fb" />
        </symbol>
        <symbol
           overflow="visible"
           id="id-59cf0f6f-f7c9-4d4a-a99e-937b053c2f5c">
          <path
             style="stroke:none;stroke-width:0"
             d="M 0.671875,-0.578125 C 0.578125,-0.5 0.515625,-0.453125 0.515625,-0.3125 0.515625,0 0.765625,0 0.921875,0 H 4.3125 c 0.328125,0 0.390625,-0.09375 0.390625,-0.40625 v -0.265625 c 0,-0.1875 0,-0.40625 -0.34375,-0.40625 -0.34375,0 -0.34375,0.1875 -0.34375,0.46875 h -2.375 c 0.59375,-0.5 1.546875,-1.25 1.984375,-1.65625 0.625,-0.5625 1.078125,-1.1875 1.078125,-1.984375 0,-1.203125 -1,-1.953125 -2.21875,-1.953125 -1.171875,0 -1.96875,0.8125 -1.96875,1.671875 0,0.359375 0.28125,0.46875 0.453125,0.46875 0.203125,0 0.4375,-0.171875 0.4375,-0.4375 0,-0.125 -0.046875,-0.25 -0.140625,-0.328125 0.15625,-0.453125 0.625,-0.765625 1.171875,-0.765625 0.8125,0 1.578125,0.453125 1.578125,1.34375 0,0.6875 -0.484375,1.265625 -1.140625,1.8125 z m 0,0"
             id="id-5583d5fc-7dd4-4862-88c4-e90876462d6b" />
        </symbol>
        <symbol
           overflow="visible"
           id="id-da086ef6-1448-4774-9607-97b7879dd0e6">
          <path
             style="stroke:none;stroke-width:0"
             d="M 3.984375,-2.71875 C 3.890625,-1.484375 3.109375,-0.5 2.15625,-0.5 2.0625,-0.5 1.703125,-0.515625 1.5,-0.671875 1.53125,-0.71875 1.578125,-0.78125 1.578125,-0.953125 c 0,-0.234375 -0.171875,-0.4375 -0.4375,-0.4375 -0.25,0 -0.4375,0.171875 -0.4375,0.46875 0,0.328125 0.171875,1.03125 1.453125,1.03125 1.3125,0 2.53125,-1.25 2.53125,-3.21875 0,-2.40625 -1.09375,-3.09375 -2.046875,-3.09375 -1.109375,0 -2.109375,0.828125 -2.109375,2.03125 0,1.140625 0.875,2.03125 1.96875,2.03125 0.515625,0 1.03125,-0.171875 1.484375,-0.578125 z m -1.4375,-0.046875 c -0.796875,0 -1.328125,-0.65625 -1.328125,-1.40625 0,-0.859375 0.703125,-1.421875 1.421875,-1.421875 0.4375,0 0.703125,0.234375 0.875,0.4375 0.25,0.328125 0.375,0.828125 0.375,0.890625 0,0.015625 -0.015625,0.03125 -0.015625,0.09375 0,0.046875 0.046875,0.203125 0.046875,0.296875 0,0.546875 -0.546875,1.109375 -1.375,1.109375 z m 0,0"
             id="id-878f2497-dd6e-43fd-a4f6-be5aedb1b14b" />
        </symbol>
        <symbol
           overflow="visible"
           id="id-89c3bd7a-52ab-4695-8c38-8a7e69328abe">
          <path
             style="stroke:none;stroke-width:0"
             d="m 3.09375,-5.796875 c 0,-0.15625 0,-0.40625 -0.296875,-0.40625 -0.1875,0 -0.25,0.125 -0.296875,0.234375 C 2.125,-5.109375 1.609375,-5 1.421875,-4.984375 c -0.171875,0.015625 -0.375,0.03125 -0.375,0.3125 0,0.25 0.171875,0.296875 0.328125,0.296875 0.1875,0 0.59375,-0.0625 1.03125,-0.4375 v 4.203125 H 1.5 c -0.15625,0 -0.390625,0 -0.390625,0.3125 C 1.109375,0 1.359375,0 1.5,0 H 4 c 0.15625,0 0.40625,0 0.40625,-0.296875 0,-0.3125 -0.234375,-0.3125 -0.40625,-0.3125 H 3.09375 Z m 0,0"
             id="id-b7082a60-4c07-4e22-8518-a62d1ab26563" />
        </symbol>
      </g>
    </defs>
    <defs
       id="id-3e58e50f-73ab-41d9-9f0e-880b3fbf193e">
      <g
         id="id-a626c7be-d2f3-4df3-a5ed-2940eabe70a3">
        <symbol
           overflow="visible"
           id="id-6c5d8d44-792e-44b0-aa9f-9b23920224da">
          <path
             style="stroke:none;stroke-width:0"
             d=""
             id="id-daaf5714-dc12-461a-9ab2-fd49f9f8ee6d" />
        </symbol>
        <symbol
           overflow="visible"
           id="id-01c1fae9-3da6-4ecf-9a6b-c8d4c8bb111f">
          <path
             style="stroke:none;stroke-width:0"
             d="m 2.078125,-1.9375 c 0.21875,0.046875 1.03125,0.203125 1.03125,0.921875 0,0.5 -0.34375,0.90625 -1.125,0.90625 -0.84375,0 -1.203125,-0.5625 -1.390625,-1.421875 C 0.5625,-1.65625 0.5625,-1.6875 0.453125,-1.6875 c -0.125,0 -0.125,0.0625 -0.125,0.234375 V -0.125 c 0,0.171875 0,0.234375 0.109375,0.234375 0.046875,0 0.0625,-0.015625 0.25,-0.203125 0.015625,-0.015625 0.015625,-0.03125 0.203125,-0.21875 0.4375,0.40625 0.890625,0.421875 1.09375,0.421875 1.140625,0 1.609375,-0.671875 1.609375,-1.390625 0,-0.515625 -0.296875,-0.828125 -0.421875,-0.9375 C 2.84375,-2.546875 2.453125,-2.625 2.03125,-2.703125 1.46875,-2.8125 0.8125,-2.9375 0.8125,-3.515625 c 0,-0.359375 0.25,-0.765625 1.109375,-0.765625 1.09375,0 1.15625,0.90625 1.171875,1.203125 0,0.09375 0.09375,0.09375 0.109375,0.09375 0.140625,0 0.140625,-0.046875 0.140625,-0.234375 v -1.015625 c 0,-0.15625 0,-0.234375 -0.109375,-0.234375 -0.046875,0 -0.078125,0 -0.203125,0.125 -0.03125,0.03125 -0.125,0.125 -0.171875,0.15625 -0.375,-0.28125 -0.78125,-0.28125 -0.9375,-0.28125 -1.21875,0 -1.59375,0.671875 -1.59375,1.234375 0,0.34375 0.15625,0.625 0.421875,0.84375 0.328125,0.25 0.609375,0.3125 1.328125,0.453125 z m 0,0"
             id="id-0420ea80-03ca-40b2-8982-70099dbcc9c7" />
        </symbol>
        <symbol
           overflow="visible"
           id="id-882d4a86-ad69-4d8f-8528-01426f4019ca">
          <path
             style="stroke:none;stroke-width:0"
             d="m 1.71875,-3.984375 h 1.4375 v -0.3125 H 1.71875 V -6.125 h -0.25 c 0,0.8125 -0.296875,1.875 -1.28125,1.921875 v 0.21875 h 0.84375 v 2.75 c 0,1.21875 0.9375,1.34375 1.296875,1.34375 0.703125,0 0.984375,-0.703125 0.984375,-1.34375 v -0.5625 h -0.25 V -1.25 c 0,0.734375 -0.296875,1.109375 -0.671875,1.109375 -0.671875,0 -0.671875,-0.90625 -0.671875,-1.078125 z m 0,0"
             id="id-969b4471-2674-47ed-a96e-2ce17abadb4a" />
        </symbol>
        <symbol
           overflow="visible"
           id="id-3260949a-4b4e-41f5-b638-5fa55606c673">
          <path
             style="stroke:none;stroke-width:0"
             d="m 3.3125,-0.75 c 0.046875,0.390625 0.3125,0.8125 0.78125,0.8125 0.21875,0 0.828125,-0.140625 0.828125,-0.953125 v -0.5625 h -0.25 v 0.5625 c 0,0.578125 -0.25,0.640625 -0.359375,0.640625 -0.328125,0 -0.375,-0.453125 -0.375,-0.5 v -1.984375 c 0,-0.421875 0,-0.8125 -0.359375,-1.1875 C 3.1875,-4.3125 2.6875,-4.46875 2.21875,-4.46875 c -0.828125,0 -1.515625,0.46875 -1.515625,1.125 0,0.296875 0.203125,0.46875 0.46875,0.46875 0.28125,0 0.453125,-0.203125 0.453125,-0.453125 0,-0.125 -0.046875,-0.453125 -0.515625,-0.453125 C 1.390625,-4.140625 1.875,-4.25 2.1875,-4.25 c 0.5,0 1.0625,0.390625 1.0625,1.28125 v 0.359375 c -0.515625,0.03125 -1.203125,0.0625 -1.828125,0.359375 -0.75,0.34375 -1,0.859375 -1,1.296875 0,0.8125 0.96875,1.0625 1.59375,1.0625 0.65625,0 1.109375,-0.40625 1.296875,-0.859375 z M 3.25,-2.390625 v 1 c 0,0.9375 -0.71875,1.28125 -1.171875,1.28125 -0.484375,0 -0.890625,-0.34375 -0.890625,-0.84375 0,-0.546875 0.421875,-1.375 2.0625,-1.4375 z m 0,0"
             id="id-5022d62b-e585-4989-80f1-2328dbf81538" />
        </symbol>
        <symbol
           overflow="visible"
           id="id-003ede34-bd8c-4af3-8df9-e87003f18dd6">
          <path
             style="stroke:none;stroke-width:0"
             d="M 1.765625,-4.40625 0.375,-4.296875 v 0.3125 c 0.640625,0 0.734375,0.0625 0.734375,0.546875 V -0.75 c 0,0.4375 -0.109375,0.4375 -0.78125,0.4375 V 0 C 0.640625,-0.015625 1.1875,-0.03125 1.421875,-0.03125 1.78125,-0.03125 2.125,-0.015625 2.46875,0 v -0.3125 c -0.671875,0 -0.703125,-0.046875 -0.703125,-0.4375 z m 0.03125,-1.734375 c 0,-0.3125 -0.234375,-0.53125 -0.515625,-0.53125 -0.3125,0 -0.53125,0.265625 -0.53125,0.53125 0,0.265625 0.21875,0.53125 0.53125,0.53125 0.28125,0 0.515625,-0.21875 0.515625,-0.53125 z m 0,0"
             id="id-56bdd7ca-b8c6-4a3b-8285-c8347b088ee7" />
        </symbol>
        <symbol
           overflow="visible"
           id="id-bc394572-c3c5-460f-919b-f3d1d82f07f9">
          <path
             style="stroke:none;stroke-width:0"
             d="m 1.171875,-2.171875 c 0,-1.625 0.8125,-2.046875 1.34375,-2.046875 0.09375,0 0.71875,0.015625 1.0625,0.375 -0.40625,0.03125 -0.46875,0.328125 -0.46875,0.453125 0,0.265625 0.1875,0.453125 0.453125,0.453125 0.265625,0 0.46875,-0.15625 0.46875,-0.46875 0,-0.671875 -0.765625,-1.0625 -1.53125,-1.0625 -1.25,0 -2.15625,1.078125 -2.15625,2.3125 0,1.28125 0.984375,2.265625 2.140625,2.265625 1.328125,0 1.65625,-1.203125 1.65625,-1.296875 0,-0.09375 -0.109375,-0.09375 -0.140625,-0.09375 -0.078125,0 -0.109375,0.03125 -0.125,0.09375 -0.28125,0.921875 -0.9375,1.046875 -1.296875,1.046875 -0.53125,0 -1.40625,-0.421875 -1.40625,-2.03125 z m 0,0"
             id="id-4983335d-464d-4541-a1ea-9e94be485f35" />
        </symbol>
        <symbol
           overflow="visible"
           id="id-ccc9591e-4272-4932-b4ee-a1a6b70ba1ca">
          <path
             style="stroke:none;stroke-width:0"
             d="M 1.671875,-3.3125 V -4.40625 L 0.28125,-4.296875 v 0.3125 c 0.703125,0 0.78125,0.0625 0.78125,0.5625 V -0.75 c 0,0.4375 -0.109375,0.4375 -0.78125,0.4375 V 0 c 0.390625,-0.015625 0.859375,-0.03125 1.140625,-0.03125 0.390625,0 0.859375,0 1.265625,0.03125 V -0.3125 H 2.46875 c -0.734375,0 -0.75,-0.109375 -0.75,-0.46875 V -2.3125 c 0,-0.984375 0.421875,-1.875 1.171875,-1.875 0.0625,0 0.09375,0 0.109375,0.015625 -0.03125,0 -0.234375,0.125 -0.234375,0.390625 0,0.265625 0.21875,0.421875 0.4375,0.421875 0.171875,0 0.421875,-0.125 0.421875,-0.4375 0,-0.3125 -0.3125,-0.609375 -0.734375,-0.609375 -0.734375,0 -1.09375,0.671875 -1.21875,1.09375 z m 0,0"
             id="id-d2e08811-2229-4592-9a87-e6b0b50703cc" />
        </symbol>
        <symbol
           overflow="visible"
           id="id-9b5acd39-5874-4110-ba28-007ebfc0f4b8">
          <path
             style="stroke:none;stroke-width:0"
             d="m 4.140625,-3.34375 c 0.25,-0.640625 0.765625,-0.640625 0.921875,-0.640625 v -0.3125 c -0.234375,0.015625 -0.515625,0.03125 -0.75,0.03125 -0.171875,0 -0.640625,-0.015625 -0.859375,-0.03125 v 0.3125 c 0.3125,0 0.46875,0.171875 0.46875,0.421875 0,0.109375 -0.015625,0.125 -0.0625,0.25 L 2.84375,-0.875 1.75,-3.546875 C 1.703125,-3.65625 1.6875,-3.6875 1.6875,-3.734375 c 0,-0.25 0.359375,-0.25 0.5625,-0.25 v -0.3125 c -0.265625,0.015625 -0.921875,0.03125 -1.09375,0.03125 -0.265625,0 -0.671875,-0.015625 -0.96875,-0.03125 v 0.3125 c 0.484375,0 0.671875,0 0.8125,0.34375 L 2.5,0 C 2.4375,0.125 2.296875,0.453125 2.25,0.59375 2.03125,1.140625 1.75,1.828125 1.109375,1.828125 c -0.046875,0 -0.28125,0 -0.46875,-0.1875 0.3125,-0.03125 0.390625,-0.25 0.390625,-0.421875 0,-0.25 -0.1875,-0.40625 -0.421875,-0.40625 -0.203125,0 -0.421875,0.125 -0.421875,0.421875 0,0.453125 0.421875,0.8125 0.921875,0.8125 0.625,0 1.03125,-0.578125 1.265625,-1.140625 z m 0,0"
             id="id-0493ac83-56f7-4e2c-a997-45adec3c6f21" />
        </symbol>
        <symbol
           overflow="visible"
           id="id-cea2a95d-d751-44c9-9b52-2bb1a81483e3">
          <path
             style="stroke:none;stroke-width:0"
             d="m 3.78125,-0.546875 v 0.65625 L 5.25,0 v -0.3125 c -0.6875,0 -0.78125,-0.0625 -0.78125,-0.5625 V -6.921875 L 3.046875,-6.8125 V -6.5 c 0.6875,0 0.765625,0.0625 0.765625,0.5625 v 2.15625 c -0.28125,-0.359375 -0.71875,-0.625 -1.25,-0.625 -1.171875,0 -2.21875,0.984375 -2.21875,2.265625 0,1.265625 0.96875,2.25 2.109375,2.25 0.640625,0 1.078125,-0.34375 1.328125,-0.65625 z m 0,-2.671875 v 2.046875 c 0,0.171875 0,0.1875 -0.109375,0.359375 C 3.375,-0.328125 2.9375,-0.109375 2.5,-0.109375 2.046875,-0.109375 1.6875,-0.375 1.453125,-0.75 1.203125,-1.15625 1.171875,-1.71875 1.171875,-2.140625 1.171875,-2.5 1.1875,-3.09375 1.46875,-3.546875 1.6875,-3.859375 2.0625,-4.1875 2.609375,-4.1875 c 0.34375,0 0.765625,0.15625 1.0625,0.59375 0.109375,0.171875 0.109375,0.1875 0.109375,0.375 z m 0,0"
             id="id-9a6205ba-7e3b-42b6-81dd-f1ee025a861a" />
        </symbol>
        <symbol
           overflow="visible"
           id="id-57f3432c-c7a6-4dfc-a7b3-c9c63698a82a">
          <path
             style="stroke:none;stroke-width:0"
             d="M 1.09375,-3.421875 V -0.75 c 0,0.4375 -0.109375,0.4375 -0.78125,0.4375 V 0 c 0.359375,-0.015625 0.859375,-0.03125 1.140625,-0.03125 0.25,0 0.765625,0.015625 1.109375,0.03125 v -0.3125 c -0.671875,0 -0.78125,0 -0.78125,-0.4375 V -2.59375 C 1.78125,-3.625 2.5,-4.1875 3.125,-4.1875 c 0.640625,0 0.75,0.53125 0.75,1.109375 V -0.75 c 0,0.4375 -0.109375,0.4375 -0.78125,0.4375 V 0 c 0.34375,-0.015625 0.859375,-0.03125 1.125,-0.03125 0.25,0 0.78125,0.015625 1.109375,0.03125 v -0.3125 c -0.515625,0 -0.765625,0 -0.765625,-0.296875 v -1.90625 c 0,-0.859375 0,-1.15625 -0.3125,-1.515625 -0.140625,-0.171875 -0.46875,-0.375 -1.046875,-0.375 C 2.46875,-4.40625 2,-3.984375 1.71875,-3.359375 V -4.40625 L 0.3125,-4.296875 v 0.3125 c 0.703125,0 0.78125,0.0625 0.78125,0.5625 z m 0,0"
             id="id-03580ea3-9015-47f7-b5eb-f14f3e7fb07e" />
        </symbol>
        <symbol
           overflow="visible"
           id="id-8d14f181-bd34-4ed3-82a7-1134008d3dca">
          <path
             style="stroke:none;stroke-width:0"
             d="M 1.09375,-3.421875 V -0.75 c 0,0.4375 -0.109375,0.4375 -0.78125,0.4375 V 0 c 0.359375,-0.015625 0.859375,-0.03125 1.140625,-0.03125 0.25,0 0.765625,0.015625 1.109375,0.03125 v -0.3125 c -0.671875,0 -0.78125,0 -0.78125,-0.4375 V -2.59375 C 1.78125,-3.625 2.5,-4.1875 3.125,-4.1875 c 0.640625,0 0.75,0.53125 0.75,1.109375 V -0.75 c 0,0.4375 -0.109375,0.4375 -0.78125,0.4375 V 0 c 0.34375,-0.015625 0.859375,-0.03125 1.125,-0.03125 0.25,0 0.78125,0.015625 1.109375,0.03125 v -0.3125 c -0.65625,0 -0.765625,0 -0.765625,-0.4375 v -1.84375 c 0,-1.03125 0.703125,-1.59375 1.34375,-1.59375 0.625,0 0.734375,0.53125 0.734375,1.109375 V -0.75 c 0,0.4375 -0.109375,0.4375 -0.78125,0.4375 V 0 c 0.34375,-0.015625 0.859375,-0.03125 1.125,-0.03125 0.265625,0 0.78125,0.015625 1.125,0.03125 v -0.3125 c -0.515625,0 -0.765625,0 -0.78125,-0.296875 v -1.90625 c 0,-0.859375 0,-1.15625 -0.3125,-1.515625 -0.140625,-0.171875 -0.46875,-0.375 -1.046875,-0.375 -0.828125,0 -1.28125,0.59375 -1.4375,0.984375 C 4.390625,-4.296875 3.65625,-4.40625 3.203125,-4.40625 2.46875,-4.40625 2,-3.984375 1.71875,-3.359375 V -4.40625 L 0.3125,-4.296875 v 0.3125 c 0.703125,0 0.78125,0.0625 0.78125,0.5625 z m 0,0"
             id="id-392b5731-61ec-42b5-bff9-919e515de524" />
        </symbol>
        <symbol
           overflow="visible"
           id="id-217660b5-d0f9-4dd7-8ba3-548064b7baf9">
          <path
             style="stroke:none;stroke-width:0"
             d="M 1.765625,-6.921875 0.328125,-6.8125 V -6.5 c 0.703125,0 0.78125,0.0625 0.78125,0.5625 V -0.75 c 0,0.4375 -0.109375,0.4375 -0.78125,0.4375 V 0 C 0.65625,-0.015625 1.1875,-0.03125 1.4375,-0.03125 c 0.25,0 0.734375,0.015625 1.109375,0.03125 v -0.3125 c -0.671875,0 -0.78125,0 -0.78125,-0.4375 z m 0,0"
             id="id-4897e989-e079-49c3-b7c0-00493430c787" />
        </symbol>
        <symbol
           overflow="visible"
           id="id-2ee8f911-6340-4bd5-9d7d-425610e5fb00">
          <path
             style="stroke:none;stroke-width:0"
             d="m 1.0625,-0.75 c 0,0.4375 -0.109375,0.4375 -0.78125,0.4375 V 0 c 0.328125,-0.015625 0.796875,-0.03125 1.078125,-0.03125 0.3125,0 0.703125,0.015625 1.109375,0.03125 v -0.3125 c -0.671875,0 -0.78125,0 -0.78125,-0.4375 v -1.03125 l 0.640625,-0.546875 c 0.765625,1.046875 1.1875,1.609375 1.1875,1.796875 0,0.1875 -0.171875,0.21875 -0.359375,0.21875 V 0 c 0.265625,-0.015625 0.859375,-0.03125 1.078125,-0.03125 0.28125,0 0.578125,0.015625 0.859375,0.03125 v -0.3125 c -0.375,0 -0.59375,0 -0.96875,-0.53125 L 2.859375,-2.625 c -0.015625,-0.015625 -0.0625,-0.078125 -0.0625,-0.109375 0,-0.03125 0.71875,-0.640625 0.8125,-0.71875 0.625,-0.5 1.046875,-0.53125 1.25,-0.53125 v -0.3125 c -0.28125,0.03125 -0.40625,0.03125 -0.6875,0.03125 -0.359375,0 -0.984375,-0.015625 -1.125,-0.03125 v 0.3125 c 0.1875,0 0.296875,0.109375 0.296875,0.25 0,0.203125 -0.140625,0.3125 -0.21875,0.390625 l -1.40625,1.203125 v -4.78125 L 0.28125,-6.8125 V -6.5 c 0.703125,0 0.78125,0.0625 0.78125,0.5625 z m 0,0"
             id="id-9c276ae2-2e75-4206-8ef3-240714c2f40e" />
        </symbol>
        <symbol
           overflow="visible"
           id="id-8c8a22d1-eba1-4d36-b8d4-0b2aa6a320be">
          <path
             style="stroke:none;stroke-width:0"
             d="M 1.109375,-2.515625 C 1.171875,-4 2.015625,-4.25 2.359375,-4.25 c 1.015625,0 1.125,1.34375 1.125,1.734375 z m 0,0.21875 h 2.78125 c 0.21875,0 0.25,0 0.25,-0.21875 0,-0.984375 -0.546875,-1.953125 -1.78125,-1.953125 -1.15625,0 -2.078125,1.03125 -2.078125,2.28125 0,1.328125 1.046875,2.296875 2.1875,2.296875 C 3.6875,0.109375 4.140625,-1 4.140625,-1.1875 4.140625,-1.28125 4.0625,-1.3125 4,-1.3125 c -0.078125,0 -0.109375,0.0625 -0.125,0.140625 -0.34375,1.03125 -1.25,1.03125 -1.34375,1.03125 -0.5,0 -0.890625,-0.296875 -1.125,-0.671875 -0.296875,-0.46875 -0.296875,-1.125 -0.296875,-1.484375 z m 0,0"
             id="id-12efd151-e737-4164-8706-a115d4d4dd47" />
        </symbol>
      </g>
    </defs>
    <defs
       id="defs2654">
      <g
         id="g2652">
        <symbol
           overflow="visible"
           id="symbol2646">
          <path
             style="stroke:none;stroke-width:0"
             d=""
             id="path2644" />
        </symbol>
        <symbol
           overflow="visible"
           id="symbol2650">
          <path
             style="stroke:none;stroke-width:0"
             d="m 1.65625,-2.625 c 0,-0.59375 0.578125,-1.125 1.203125,-1.125 0.734375,0 1.3125,0.734375 1.3125,1.59375 0,0.953125 -0.6875,1.609375 -1.390625,1.609375 -0.78125,0 -1.125,-0.875 -1.125,-1.359375 z m 0,2.171875 C 2.0625,-0.03125 2.5,0.0625 2.8125,0.0625 c 1.078125,0 2.046875,-0.953125 2.046875,-2.21875 0,-1.21875 -0.875,-2.203125 -1.9375,-2.203125 C 2.4375,-4.359375 2,-4.171875 1.65625,-3.875 1.65625,-4.15625 1.640625,-4.296875 1.25,-4.296875 H 0.53125 c -0.15625,0 -0.40625,0 -0.40625,0.3125 0,0.296875 0.25,0.296875 0.390625,0.296875 H 0.96875 v 5.296875 h -0.4375 c -0.15625,0 -0.40625,0 -0.40625,0.296875 0,0.3125 0.25,0.3125 0.390625,0.3125 h 1.59375 C 2.25,2.21875 2.5,2.21875 2.5,1.90625 2.5,1.609375 2.25,1.609375 2.09375,1.609375 h -0.4375 z m 0,0"
             id="path2648" />
        </symbol>
      </g>
    </defs>
    <defs
       id="id-2abe7ead-f8cd-4e26-9f9d-da1d586577a6">
      <g
         id="id-a0e583eb-a5c1-43da-9352-0ff30fa3493a">
        <symbol
           overflow="visible"
           id="id-c4208987-5c89-4e4f-ae2c-cc731acaf6a1">
          <path
             style="stroke:none;stroke-width:0"
             d=""
             id="id-37db70d3-e68f-496d-a34a-90fbbb6945ae" />
        </symbol>
        <symbol
           overflow="visible"
           id="id-f4d3ec30-aace-4321-9f55-38e4356cf23a">
          <path
             style="stroke:none;stroke-width:0"
             d="m 1.65625,-2.625 c 0,-0.59375 0.578125,-1.125 1.203125,-1.125 0.734375,0 1.3125,0.734375 1.3125,1.59375 0,0.953125 -0.6875,1.609375 -1.390625,1.609375 -0.78125,0 -1.125,-0.875 -1.125,-1.359375 z m 0,2.171875 C 2.0625,-0.03125 2.5,0.0625 2.8125,0.0625 c 1.078125,0 2.046875,-0.953125 2.046875,-2.21875 0,-1.21875 -0.875,-2.203125 -1.9375,-2.203125 C 2.4375,-4.359375 2,-4.171875 1.65625,-3.875 1.65625,-4.15625 1.640625,-4.296875 1.25,-4.296875 H 0.53125 c -0.15625,0 -0.40625,0 -0.40625,0.3125 0,0.296875 0.25,0.296875 0.390625,0.296875 H 0.96875 v 5.296875 h -0.4375 c -0.15625,0 -0.40625,0 -0.40625,0.296875 0,0.3125 0.25,0.3125 0.390625,0.3125 h 1.59375 C 2.25,2.21875 2.5,2.21875 2.5,1.90625 2.5,1.609375 2.25,1.609375 2.09375,1.609375 h -0.4375 z m 0,0"
             id="id-284538a9-e96f-4b84-8717-5c1216cc0649" />
        </symbol>
      </g>
    </defs>
    <defs
       id="id-123fddc9-2dca-4cac-9779-d2344e581c8d">
      <g
         id="id-a6ff2add-477a-4809-8fea-3f6006078bd5">
        <symbol
           overflow="visible"
           id="id-dec23284-14ea-4603-aa5b-688421c9e8e5">
          <path
             style="stroke:none;stroke-width:0"
             d=""
             id="id-4316bddb-3228-47e4-b48c-2c77db1eb441" />
        </symbol>
        <symbol
           overflow="visible"
           id="id-6022bae1-460b-4691-a4c1-4ae5ab8c3e86">
          <path
             style="stroke:none;stroke-width:0"
             d="m 1.65625,-2.625 c 0,-0.59375 0.578125,-1.125 1.203125,-1.125 0.734375,0 1.3125,0.734375 1.3125,1.59375 0,0.953125 -0.6875,1.609375 -1.390625,1.609375 -0.78125,0 -1.125,-0.875 -1.125,-1.359375 z m 0,2.171875 C 2.0625,-0.03125 2.5,0.0625 2.8125,0.0625 c 1.078125,0 2.046875,-0.953125 2.046875,-2.21875 0,-1.21875 -0.875,-2.203125 -1.9375,-2.203125 C 2.4375,-4.359375 2,-4.171875 1.65625,-3.875 1.65625,-4.15625 1.640625,-4.296875 1.25,-4.296875 H 0.53125 c -0.15625,0 -0.40625,0 -0.40625,0.3125 0,0.296875 0.25,0.296875 0.390625,0.296875 H 0.96875 v 5.296875 h -0.4375 c -0.15625,0 -0.40625,0 -0.40625,0.296875 0,0.3125 0.25,0.3125 0.390625,0.3125 h 1.59375 C 2.25,2.21875 2.5,2.21875 2.5,1.90625 2.5,1.609375 2.25,1.609375 2.09375,1.609375 h -0.4375 z m 0,0"
             id="id-a07ef994-0375-4d32-9185-8c07d46953d7" />
        </symbol>
        <symbol
           overflow="visible"
           id="id-0b1876a2-766e-4283-a0d9-f87b7f57a3f1">
          <path
             style="stroke:none;stroke-width:0"
             d="m 3.09375,-5.796875 c 0,-0.15625 0,-0.40625 -0.296875,-0.40625 -0.1875,0 -0.25,0.125 -0.296875,0.234375 C 2.125,-5.109375 1.609375,-5 1.421875,-4.984375 c -0.171875,0.015625 -0.375,0.03125 -0.375,0.3125 0,0.25 0.171875,0.296875 0.328125,0.296875 0.1875,0 0.59375,-0.0625 1.03125,-0.4375 v 4.203125 H 1.5 c -0.15625,0 -0.390625,0 -0.390625,0.3125 C 1.109375,0 1.359375,0 1.5,0 H 4 c 0.15625,0 0.40625,0 0.40625,-0.296875 0,-0.3125 -0.234375,-0.3125 -0.40625,-0.3125 H 3.09375 Z m 0,0"
             id="id-2eb9501e-04ab-447d-90e4-4acebe3648ab" />
        </symbol>
        <symbol
           overflow="visible"
           id="id-88e09401-e4c7-4275-bab6-e61296d41511">
          <path
             style="stroke:none;stroke-width:0"
             d="m 4.71875,-3.046875 c 0,-1.84375 -1.015625,-3.15625 -2.109375,-3.15625 C 1.5,-6.203125 0.5,-4.859375 0.5,-3.046875 c 0,1.84375 1.015625,3.15625 2.109375,3.15625 1.125,0 2.109375,-1.328125 2.109375,-3.15625 z M 2.609375,-0.5 C 1.828125,-0.5 1.1875,-1.671875 1.1875,-3.15625 c 0,-1.453125 0.6875,-2.4375 1.421875,-2.4375 0.734375,0 1.421875,0.984375 1.421875,2.4375 0,1.484375 -0.640625,2.65625 -1.421875,2.65625 z m 0,0"
             id="id-dbabe3de-5864-497f-9c1d-470b3eef6ff3" />
        </symbol>
        <symbol
           overflow="visible"
           id="id-8ccbafd3-c329-4fc1-8b64-dd69ecee1892">
          <path
             style="stroke:none;stroke-width:0"
             d="M 0.671875,-0.578125 C 0.578125,-0.5 0.515625,-0.453125 0.515625,-0.3125 0.515625,0 0.765625,0 0.921875,0 H 4.3125 c 0.328125,0 0.390625,-0.09375 0.390625,-0.40625 v -0.265625 c 0,-0.1875 0,-0.40625 -0.34375,-0.40625 -0.34375,0 -0.34375,0.1875 -0.34375,0.46875 h -2.375 c 0.59375,-0.5 1.546875,-1.25 1.984375,-1.65625 0.625,-0.5625 1.078125,-1.1875 1.078125,-1.984375 0,-1.203125 -1,-1.953125 -2.21875,-1.953125 -1.171875,0 -1.96875,0.8125 -1.96875,1.671875 0,0.359375 0.28125,0.46875 0.453125,0.46875 0.203125,0 0.4375,-0.171875 0.4375,-0.4375 0,-0.125 -0.046875,-0.25 -0.140625,-0.328125 0.15625,-0.453125 0.625,-0.765625 1.171875,-0.765625 0.8125,0 1.578125,0.453125 1.578125,1.34375 0,0.6875 -0.484375,1.265625 -1.140625,1.8125 z m 0,0"
             id="id-e967b931-2480-4a3b-9b23-00e08bc641d5" />
        </symbol>
        <symbol
           overflow="visible"
           id="id-47c5b852-6875-4528-96f1-3aed12e8733d">
          <path
             style="stroke:none;stroke-width:0"
             d="m 2.609375,-3.59375 c -0.71875,0 -1.34375,-0.4375 -1.34375,-1 0,-0.515625 0.5625,-1 1.34375,-1 0.78125,0 1.34375,0.484375 1.34375,1 0,0.5625 -0.609375,1 -1.34375,1 z m 0.796875,0.3125 c 0.796875,-0.265625 1.234375,-0.75 1.234375,-1.328125 0,-0.8125 -0.84375,-1.59375 -2.03125,-1.59375 -1.1875,0 -2.03125,0.796875 -2.03125,1.59375 0,0.578125 0.453125,1.078125 1.25,1.328125 -0.75,0.203125 -1.390625,0.796875 -1.390625,1.546875 0,0.96875 0.921875,1.84375 2.171875,1.84375 1.265625,0 2.171875,-0.875 2.171875,-1.84375 0,-0.75 -0.640625,-1.34375 -1.375,-1.546875 z M 2.609375,-0.5 C 1.78125,-0.5 1.125,-1.0625 1.125,-1.75 c 0,-0.609375 0.578125,-1.234375 1.484375,-1.234375 0.921875,0 1.484375,0.625 1.484375,1.234375 0,0.6875 -0.65625,1.25 -1.484375,1.25 z m 0,0"
             id="id-bb6219f4-211d-4d3d-bb0c-7d9ea46c8438" />
        </symbol>
        <symbol
           overflow="visible"
           id="id-7974ce92-2b1e-4ebd-bdec-0fc80c5503f9">
          <path
             style="stroke:none;stroke-width:0"
             d="M 3.65625,-3.328125 C 4.21875,-3.6875 4.5,-4.25 4.5,-4.796875 c 0,-0.734375 -0.734375,-1.40625 -1.875,-1.40625 -1.203125,0 -1.890625,0.484375 -1.890625,1.171875 0,0.328125 0.25,0.46875 0.4375,0.46875 0.21875,0 0.4375,-0.171875 0.4375,-0.453125 0,-0.140625 -0.046875,-0.234375 -0.078125,-0.265625 0.296875,-0.3125 1.015625,-0.3125 1.09375,-0.3125 0.6875,0 1.1875,0.359375 1.1875,0.8125 0,0.296875 -0.15625,0.640625 -0.421875,0.859375 C 3.078125,-3.65625 2.828125,-3.640625 2.46875,-3.625 1.890625,-3.578125 1.75,-3.578125 1.75,-3.296875 c 0,0.3125 0.234375,0.3125 0.390625,0.3125 h 0.46875 c 0.984375,0 1.484375,0.671875 1.484375,1.25 C 4.09375,-1.125 3.53125,-0.5 2.625,-0.5 2.234375,-0.5 1.46875,-0.609375 1.203125,-1.078125 1.25,-1.125 1.328125,-1.1875 1.328125,-1.390625 c 0,-0.234375 -0.1875,-0.4375 -0.4375,-0.4375 -0.234375,0 -0.453125,0.15625 -0.453125,0.46875 0,0.890625 0.96875,1.46875 2.1875,1.46875 1.3125,0 2.15625,-0.921875 2.15625,-1.84375 0,-0.703125 -0.46875,-1.296875 -1.125,-1.59375 z m 0,0"
             id="id-f23de050-ce24-4e19-a1fa-e6af8ce39ddd" />
        </symbol>
        <symbol
           overflow="visible"
           id="id-49f533cd-ba10-4c53-93c0-2eb43a12e18f">
          <path
             style="stroke:none;stroke-width:0"
             d="m 3.765625,-5.484375 c -1.734375,1.828125 -2.078125,4.03125 -2.078125,5.125 0,0.140625 0,0.46875 0.359375,0.46875 C 2.21875,0.109375 2.375,0 2.375,-0.296875 2.4375,-3.125 3.953125,-4.859375 4.5625,-5.4375 4.765625,-5.625 4.78125,-5.640625 4.78125,-5.78125 c 0,-0.3125 -0.234375,-0.3125 -0.390625,-0.3125 H 1.09375 C 1.03125,-6.25 0.859375,-6.25 0.78125,-6.25 0.4375,-6.25 0.4375,-6.03125 0.4375,-5.84375 v 0.421875 c 0,0.1875 0,0.40625 0.34375,0.40625 0.34375,0 0.34375,-0.1875 0.34375,-0.46875 z m 0,0"
             id="id-766ad398-68d7-4531-9be6-9953e66df470" />
        </symbol>
      </g>
    </defs>
    <defs
       id="id-d8ee66da-b8a9-4445-8a03-a5471303c754">
      <g
         id="id-664c0d55-2e98-45b8-965a-8cb1df78cd25">
        <symbol
           overflow="visible"
           id="id-bd3815ec-674d-4d63-b9e0-2a904269ccbc">
          <path
             style="stroke:none;stroke-width:0"
             d=""
             id="id-d45cd962-b813-48b1-a83e-fb248045d4a2" />
        </symbol>
        <symbol
           overflow="visible"
           id="id-9a223dc6-378c-4696-a2e1-4ff3a5fe70e6">
          <path
             style="stroke:none;stroke-width:0"
             d="m 4.25,-2.921875 c 0,-1 -0.5,-1.4375 -1.296875,-1.4375 -0.65625,0 -1.109375,0.34375 -1.296875,0.53125 V -5.6875 c 0,-0.296875 -0.0625,-0.40625 -0.40625,-0.40625 H 0.53125 c -0.15625,0 -0.40625,0 -0.40625,0.3125 0,0.296875 0.25,0.296875 0.390625,0.296875 H 0.96875 v 4.875 h -0.4375 c -0.15625,0 -0.40625,0 -0.40625,0.3125 C 0.125,0 0.375,0 0.515625,0 h 1.59375 C 2.25,0 2.5,0 2.5,-0.296875 c 0,-0.3125 -0.25,-0.3125 -0.40625,-0.3125 H 1.65625 V -2.375 c 0,-1 0.734375,-1.375 1.25,-1.375 0.515625,0 0.65625,0.28125 0.65625,0.875 v 2.265625 h -0.375 c -0.171875,0 -0.421875,0 -0.421875,0.3125 C 2.765625,0 3.046875,0 3.1875,0 h 1.515625 c 0.140625,0 0.40625,0 0.40625,-0.296875 0,-0.3125 -0.25,-0.3125 -0.421875,-0.3125 H 4.25 Z m 0,0"
             id="id-e0a74c9b-d338-4204-83d2-4fede8835909" />
        </symbol>
        <symbol
           overflow="visible"
           id="id-5b05668e-297b-4f1e-a417-25a5798eb712">
          <path
             style="stroke:none;stroke-width:0"
             d="m 2.21875,-3.6875 h 1.625 c 0.15625,0 0.40625,0 0.40625,-0.296875 0,-0.3125 -0.25,-0.3125 -0.40625,-0.3125 h -1.625 v -0.8125 c 0,-0.1875 0,-0.40625 -0.34375,-0.40625 -0.34375,0 -0.34375,0.203125 -0.34375,0.40625 v 0.8125 h -0.875 c -0.15625,0 -0.40625,0 -0.40625,0.3125 0,0.296875 0.25,0.296875 0.390625,0.296875 H 1.53125 V -1.25 c 0,0.953125 0.671875,1.3125 1.40625,1.3125 0.734375,0 1.53125,-0.4375 1.53125,-1.3125 0,-0.1875 0,-0.390625 -0.34375,-0.390625 -0.328125,0 -0.34375,0.203125 -0.34375,0.375 0,0.625 -0.578125,0.71875 -0.796875,0.71875 -0.765625,0 -0.765625,-0.515625 -0.765625,-0.765625 z m 0,0"
             id="id-02810792-f951-4e5e-b9eb-bc82f5cb64ef" />
        </symbol>
        <symbol
           overflow="visible"
           id="id-77bea205-d9e7-4474-a807-5f6a5465e78f">
          <path
             style="stroke:none;stroke-width:0"
             d="m 4.234375,-1.90625 c 0.203125,0 0.390625,0 0.390625,-0.359375 0,-1.140625 -0.640625,-2.125 -1.9375,-2.125 -1.1875,0 -2.140625,1 -2.140625,2.234375 0,1.203125 1.015625,2.21875 2.296875,2.21875 1.3125,0 1.78125,-0.90625 1.78125,-1.15625 0,-0.265625 -0.28125,-0.265625 -0.34375,-0.265625 -0.1875,0 -0.265625,0.03125 -0.328125,0.21875 -0.21875,0.5 -0.765625,0.59375 -1.046875,0.59375 -0.75,0 -1.484375,-0.5 -1.65625,-1.359375 z M 1.265625,-2.5 C 1.40625,-3.234375 2,-3.78125 2.6875,-3.78125 c 0.515625,0 1.140625,0.25 1.234375,1.28125 z m 0,0"
             id="id-605ca7e2-8414-4091-a46f-82358aa7c82a" />
        </symbol>
        <symbol
           overflow="visible"
           id="id-0418473d-d071-42ca-bbb3-361f7561c6c0">
          <path
             style="stroke:none;stroke-width:0"
             d="M 1.09375,-4 C 1.0625,-4.296875 0.875,-4.296875 0.6875,-4.296875 H 0.375 c -0.15625,0 -0.421875,0 -0.421875,0.296875 0,0.3125 0.21875,0.3125 0.578125,0.3125 v 3.078125 c -0.359375,0 -0.578125,0 -0.578125,0.3125 C -0.046875,0 0.234375,0 0.375,0 H 1.25 c 0.140625,0 0.40625,0 0.40625,-0.296875 0,-0.3125 -0.203125,-0.3125 -0.5625,-0.3125 v -1.78125 C 1.09375,-3.28125 1.5,-3.75 1.90625,-3.75 c 0.234375,0 0.359375,0.171875 0.359375,0.8125 v 2.328125 c -0.1875,0 -0.4375,0 -0.4375,0.3125 C 1.828125,0 2.109375,0 2.25,0 h 0.734375 c 0.15625,0 0.421875,0 0.421875,-0.296875 0,-0.3125 -0.21875,-0.3125 -0.578125,-0.3125 v -1.78125 c 0,-0.890625 0.40625,-1.359375 0.828125,-1.359375 0.21875,0 0.359375,0.171875 0.359375,0.8125 v 2.328125 c -0.1875,0 -0.4375,0 -0.4375,0.3125 C 3.578125,0 3.84375,0 3.984375,0 h 0.75 c 0.15625,0 0.40625,0 0.40625,-0.296875 0,-0.3125 -0.203125,-0.3125 -0.5625,-0.3125 v -2.40625 c 0,-0.203125 0,-1.34375 -0.890625,-1.34375 -0.296875,0 -0.703125,0.125 -0.984375,0.515625 C 2.546875,-4.171875 2.265625,-4.359375 1.9375,-4.359375 1.625,-4.359375 1.328125,-4.21875 1.09375,-4 Z m 0,0"
             id="id-cd00f71f-1a7d-4447-9453-795b58915d24" />
        </symbol>
        <symbol
           overflow="visible"
           id="id-cc9b213d-dcb0-4a30-947e-5698a900272e">
          <path
             style="stroke:none;stroke-width:0"
             d="m 1.65625,-2.625 c 0,-0.59375 0.578125,-1.125 1.203125,-1.125 0.734375,0 1.3125,0.734375 1.3125,1.59375 0,0.953125 -0.6875,1.609375 -1.390625,1.609375 -0.78125,0 -1.125,-0.875 -1.125,-1.359375 z m 0,2.171875 C 2.0625,-0.03125 2.5,0.0625 2.8125,0.0625 c 1.078125,0 2.046875,-0.953125 2.046875,-2.21875 0,-1.21875 -0.875,-2.203125 -1.9375,-2.203125 C 2.4375,-4.359375 2,-4.171875 1.65625,-3.875 1.65625,-4.15625 1.640625,-4.296875 1.25,-4.296875 H 0.53125 c -0.15625,0 -0.40625,0 -0.40625,0.3125 0,0.296875 0.25,0.296875 0.390625,0.296875 H 0.96875 v 5.296875 h -0.4375 c -0.15625,0 -0.40625,0 -0.40625,0.296875 0,0.3125 0.25,0.3125 0.390625,0.3125 h 1.59375 C 2.25,2.21875 2.5,2.21875 2.5,1.90625 2.5,1.609375 2.25,1.609375 2.09375,1.609375 h -0.4375 z m 0,0"
             id="id-3e129d7a-5c0f-4f06-8916-b245da6ae1c0" />
        </symbol>
      </g>
    </defs>
    <defs
       id="id-403612f8-bc7b-4177-8a00-11a15f6c94e3">
      <g
         id="id-94a262f9-996e-445c-bc07-2f34736dd230">
        <symbol
           overflow="visible"
           id="id-e4c9371d-c814-4398-baea-d13ec77ae27a">
          <path
             style="stroke:none;stroke-width:0"
             d=""
             id="id-339bb3f2-a3ad-40b1-ba27-b349694339e6" />
        </symbol>
        <symbol
           overflow="visible"
           id="id-6e164321-45b6-45ec-bdb4-21cd0e2d8021">
          <path
             style="stroke:none;stroke-width:0"
             d="m 3.09375,-5.796875 c 0,-0.15625 0,-0.40625 -0.296875,-0.40625 -0.1875,0 -0.25,0.125 -0.296875,0.234375 C 2.125,-5.109375 1.609375,-5 1.421875,-4.984375 c -0.171875,0.015625 -0.375,0.03125 -0.375,0.3125 0,0.25 0.171875,0.296875 0.328125,0.296875 0.1875,0 0.59375,-0.0625 1.03125,-0.4375 v 4.203125 H 1.5 c -0.15625,0 -0.390625,0 -0.390625,0.3125 C 1.109375,0 1.359375,0 1.5,0 H 4 c 0.15625,0 0.40625,0 0.40625,-0.296875 0,-0.3125 -0.234375,-0.3125 -0.40625,-0.3125 H 3.09375 Z m 0,0"
             id="id-f37c9c31-980b-49ab-87f2-b0978a80d8c3" />
        </symbol>
        <symbol
           overflow="visible"
           id="id-1bfd000e-765a-465b-a575-bbe01996e3de">
          <path
             style="stroke:none;stroke-width:0"
             d="M 1.890625,-5.734375 C 1.78125,-6.0625 1.625,-6.09375 1.359375,-6.09375 h -0.6875 c -0.140625,0 -0.390625,0 -0.390625,0.296875 0,0.3125 0.234375,0.3125 0.390625,0.3125 h 0.25 v 4.875 h -0.25 c -0.140625,0 -0.390625,0 -0.390625,0.296875 C 0.28125,0 0.515625,0 0.671875,0 h 1.0625 c 0.15625,0 0.40625,0 0.40625,-0.296875 0,-0.3125 -0.25,-0.3125 -0.40625,-0.3125 h -0.25 V -5.34375 H 1.5 l 1.828125,4.984375 C 3.453125,-0.015625 3.625,0 3.875,0 4.171875,0 4.296875,-0.03125 4.296875,-0.40625 v -5.078125 h 0.25 c 0.140625,0 0.390625,0 0.390625,-0.296875 0,-0.3125 -0.234375,-0.3125 -0.390625,-0.3125 h -1.0625 c -0.15625,0 -0.390625,0 -0.390625,0.3125 0,0.296875 0.25,0.296875 0.390625,0.296875 h 0.25 V -0.75 Z m 0,0"
             id="id-20ca0c35-0487-4b66-89e4-b6557a386dbf" />
        </symbol>
        <symbol
           overflow="visible"
           id="id-603907a2-dc62-4f20-8492-9d4baeb1c2e3">
          <path
             style="stroke:none;stroke-width:0"
             d="m 4.46875,-5.484375 h 0.3125 c 0.15625,0 0.40625,0 0.40625,-0.3125 0,-0.296875 -0.265625,-0.296875 -0.40625,-0.296875 H 3.484375 c -0.140625,0 -0.40625,0 -0.40625,0.296875 0,0.3125 0.265625,0.3125 0.40625,0.3125 H 3.78125 v 3.40625 C 3.78125,-1.015625 3.125,-0.5 2.609375,-0.5 2.078125,-0.5 1.4375,-1.015625 1.4375,-2.078125 v -3.40625 h 0.296875 c 0.15625,0 0.40625,0 0.40625,-0.3125 0,-0.296875 -0.25,-0.296875 -0.40625,-0.296875 h -1.28125 c -0.15625,0 -0.40625,0 -0.40625,0.296875 0,0.3125 0.25,0.3125 0.40625,0.3125 H 0.75 v 3.453125 c 0,1.21875 0.859375,2.140625 1.859375,2.140625 1,0 1.859375,-0.921875 1.859375,-2.140625 z m 0,0"
             id="id-a364dad4-e9c3-4cef-9514-53b6af7f71e3" />
        </symbol>
        <symbol
           overflow="visible"
           id="id-23ef31e1-e465-46d3-8520-a30dc96ce54f">
          <path
             style="stroke:none;stroke-width:0"
             d="m 1.78125,-5.484375 h 0.546875 c 0.140625,0 0.40625,0 0.40625,-0.296875 0,-0.3125 -0.25,-0.3125 -0.40625,-0.3125 H 0.71875 c -0.15625,0 -0.40625,0 -0.40625,0.3125 0,0.296875 0.25,0.296875 0.40625,0.296875 h 0.375 v 4.875 h -0.375 c -0.15625,0 -0.40625,0 -0.40625,0.3125 C 0.3125,0 0.5625,0 0.71875,0 h 3.75 c 0.328125,0 0.390625,-0.09375 0.390625,-0.40625 v -0.890625 c 0,-0.203125 0,-0.40625 -0.328125,-0.40625 -0.359375,0 -0.359375,0.203125 -0.359375,0.40625 v 0.6875 H 1.78125 Z m 0,0"
             id="id-be23c49d-1e07-4a35-a271-c63a934dcabe" />
        </symbol>
      </g>
    </defs>
  </defs>
  <g
     inkscape:label="Layer 1"
     inkscape:groupmode="layer"
     id="layer1"
     transform="translate(-84.323954,-137.45104)">
    <g
       id="g1767">
      <rect
         style="font-variation-settings:normal;vector-effect:none;fill:#deddda;fill-opacity:1;fill-rule:evenodd;stroke:#000000;stroke-width:0.264583;stroke-linecap:butt;stroke-linejoin:miter;stroke-miterlimit:4;stroke-dasharray:none;stroke-dashoffset:0;stroke-opacity:1;stop-color:#000000"
         id="rect1754"
         width="18.520834"
         height="13.229166"
         x="119.0625"
         y="137.58333" />
      <rect
         style="font-variation-settings:normal;vector-effect:none;fill:#9a9996;fill-opacity:1;fill-rule:evenodd;stroke:#000000;stroke-width:0.264583;stroke-linecap:butt;stroke-linejoin:miter;stroke-miterlimit:4;stroke-dasharray:none;stroke-dashoffset:0;stroke-opacity:1;stop-color:#000000"
         id="rect1858"
         width="13.229166"
         height="13.229166"
         x="137.58333"
         y="137.58333" />
      <rect
         style="font-variation-settings:normal;vector-effect:none;fill:#99c1f1;fill-opacity:1;fill-rule:evenodd;stroke:#000000;stroke-width:0.264583;stroke-linecap:butt;stroke-linejoin:miter;stroke-miterlimit:4;stroke-dasharray:none;stroke-dashoffset:0;stroke-opacity:1;stop-color:#000000"
         id="rect1952"
         width="18.520834"
         height="13.229166"
         x="84.456245"
         y="171.67334" />
      <g
         style="fill:#000000;fill-opacity:1"
         id="id-bc5d6718-c40d-4ea3-b4c5-3cd16740c7f4"
         transform="matrix(0.79628537,0,0,0.79628537,-26.784556,84.515214)">
        <g
           transform="translate(148.712,134.765)"
           id="g2083">
          <path
             style="stroke:none;stroke-width:0"
             d="m 4.25,-2.921875 c 0,-1 -0.5,-1.4375 -1.296875,-1.4375 -0.65625,0 -1.109375,0.34375 -1.296875,0.53125 V -5.6875 c 0,-0.296875 -0.0625,-0.40625 -0.40625,-0.40625 H 0.53125 c -0.15625,0 -0.40625,0 -0.40625,0.3125 0,0.296875 0.25,0.296875 0.390625,0.296875 H 0.96875 v 4.875 h -0.4375 c -0.15625,0 -0.40625,0 -0.40625,0.3125 C 0.125,0 0.375,0 0.515625,0 h 1.59375 C 2.25,0 2.5,0 2.5,-0.296875 c 0,-0.3125 -0.25,-0.3125 -0.40625,-0.3125 H 1.65625 V -2.375 c 0,-1 0.734375,-1.375 1.25,-1.375 0.515625,0 0.65625,0.28125 0.65625,0.875 v 2.265625 h -0.375 c -0.171875,0 -0.421875,0 -0.421875,0.3125 C 2.765625,0 3.046875,0 3.1875,0 h 1.515625 c 0.140625,0 0.40625,0 0.40625,-0.296875 0,-0.3125 -0.25,-0.3125 -0.421875,-0.3125 H 4.25 Z m 0,0"
             id="id-0aee0d35-ed94-4c2d-9002-fc1c50aeb467" />
        </g>
      </g>
      <g
         id="g2527"
         transform="translate(-86.987804,-35.693957)">
        <g
           transform="matrix(0.57099498,0,0,0.57099498,176.22347,215.72163)"
           id="g2205"
           style="fill:#000000;fill-opacity:1">
          <path
             style="stroke:none;stroke-width:0"
             d="M 0.671875,-0.578125 C 0.578125,-0.5 0.515625,-0.453125 0.515625,-0.3125 0.515625,0 0.765625,0 0.921875,0 H 4.3125 c 0.328125,0 0.390625,-0.09375 0.390625,-0.40625 v -0.265625 c 0,-0.1875 0,-0.40625 -0.34375,-0.40625 -0.34375,0 -0.34375,0.1875 -0.34375,0.46875 h -2.375 c 0.59375,-0.5 1.546875,-1.25 1.984375,-1.65625 0.625,-0.5625 1.078125,-1.1875 1.078125,-1.984375 0,-1.203125 -1,-1.953125 -2.21875,-1.953125 -1.171875,0 -1.96875,0.8125 -1.96875,1.671875 0,0.359375 0.28125,0.46875 0.453125,0.46875 0.203125,0 0.4375,-0.171875 0.4375,-0.4375 0,-0.125 -0.046875,-0.25 -0.140625,-0.328125 0.15625,-0.453125 0.625,-0.765625 1.171875,-0.765625 0.8125,0 1.578125,0.453125 1.578125,1.34375 0,0.6875 -0.484375,1.265625 -1.140625,1.8125 z m 0,0"
             id="id-ae4f4795-9bec-437e-b768-103fc3468742" />
        </g>
        <g
           transform="matrix(0.57099498,0,0,0.57099498,179.21035,215.72163)"
           id="g2208"
           style="fill:#000000;fill-opacity:1">
          <path
             style="stroke:none;stroke-width:0"
             d="m 4.71875,-3.046875 c 0,-1.84375 -1.015625,-3.15625 -2.109375,-3.15625 C 1.5,-6.203125 0.5,-4.859375 0.5,-3.046875 c 0,1.84375 1.015625,3.15625 2.109375,3.15625 1.125,0 2.109375,-1.328125 2.109375,-3.15625 z M 2.609375,-0.5 C 1.828125,-0.5 1.1875,-1.671875 1.1875,-3.15625 c 0,-1.453125 0.6875,-2.4375 1.421875,-2.4375 0.734375,0 1.421875,0.984375 1.421875,2.4375 0,1.484375 -0.640625,2.65625 -1.421875,2.65625 z m 0,0"
             id="id-afac88c3-f10f-4f84-aef1-d32a4f528cd9" />
        </g>
        <g
           transform="matrix(0.57099498,0,0,0.57099498,182.19666,215.72163)"
           id="g2211"
           style="fill:#000000;fill-opacity:1">
          <path
             style="stroke:none;stroke-width:0"
             d="m 4.71875,-3.046875 c 0,-1.84375 -1.015625,-3.15625 -2.109375,-3.15625 C 1.5,-6.203125 0.5,-4.859375 0.5,-3.046875 c 0,1.84375 1.015625,3.15625 2.109375,3.15625 1.125,0 2.109375,-1.328125 2.109375,-3.15625 z M 2.609375,-0.5 C 1.828125,-0.5 1.1875,-1.671875 1.1875,-3.15625 c 0,-1.453125 0.6875,-2.4375 1.421875,-2.4375 0.734375,0 1.421875,0.984375 1.421875,2.4375 0,1.484375 -0.640625,2.65625 -1.421875,2.65625 z m 0,0"
             id="id-057fe695-c0e0-4c8b-a8bf-ef3c1067d8d9" />
        </g>
      </g>
      <path
         style="fill:none;stroke:#000000;stroke-width:0.264583px;stroke-linecap:butt;stroke-linejoin:miter;stroke-opacity:1;marker-start:url(#DotM);marker-end:url(#marker3614)"
         d="M 93.927097,171.97921 119.06251,144.19796"
         id="path2856"
         sodipodi:nodetypes="cc" />
      <g
         id="g3790"
         transform="translate(-52.381549,-59.798647)">
        <g
           transform="matrix(0.57099498,0,0,0.57099498,176.22347,215.72163)"
           id="g3780"
           style="fill:#000000;fill-opacity:1">
          <path
             style="stroke:none;stroke-width:0"
             d="M 0.671875,-0.578125 C 0.578125,-0.5 0.515625,-0.453125 0.515625,-0.3125 0.515625,0 0.765625,0 0.921875,0 H 4.3125 c 0.328125,0 0.390625,-0.09375 0.390625,-0.40625 v -0.265625 c 0,-0.1875 0,-0.40625 -0.34375,-0.40625 -0.34375,0 -0.34375,0.1875 -0.34375,0.46875 h -2.375 c 0.59375,-0.5 1.546875,-1.25 1.984375,-1.65625 0.625,-0.5625 1.078125,-1.1875 1.078125,-1.984375 0,-1.203125 -1,-1.953125 -2.21875,-1.953125 -1.171875,0 -1.96875,0.8125 -1.96875,1.671875 0,0.359375 0.28125,0.46875 0.453125,0.46875 0.203125,0 0.4375,-0.171875 0.4375,-0.4375 0,-0.125 -0.046875,-0.25 -0.140625,-0.328125 0.15625,-0.453125 0.625,-0.765625 1.171875,-0.765625 0.8125,0 1.578125,0.453125 1.578125,1.34375 0,0.6875 -0.484375,1.265625 -1.140625,1.8125 z m 0,0"
             id="path3778" />
        </g>
        <g
           transform="matrix(0.57099498,0,0,0.57099498,179.21035,215.72163)"
           id="g3784"
           style="fill:#000000;fill-opacity:1">
          <path
             style="stroke:none;stroke-width:0"
             d="m 4.71875,-3.046875 c 0,-1.84375 -1.015625,-3.15625 -2.109375,-3.15625 C 1.5,-6.203125 0.5,-4.859375 0.5,-3.046875 c 0,1.84375 1.015625,3.15625 2.109375,3.15625 1.125,0 2.109375,-1.328125 2.109375,-3.15625 z M 2.609375,-0.5 C 1.828125,-0.5 1.1875,-1.671875 1.1875,-3.15625 c 0,-1.453125 0.6875,-2.4375 1.421875,-2.4375 0.734375,0 1.421875,0.984375 1.421875,2.4375 0,1.484375 -0.640625,2.65625 -1.421875,2.65625 z m 0,0"
             id="path3782" />
        </g>
        <g
           transform="matrix(0.57099498,0,0,0.57099498,182.19666,215.72163)"
           id="g3788"
           style="fill:#000000;fill-opacity:1">
          <path
             style="stroke:none;stroke-width:0"
             d="m 4.71875,-3.046875 c 0,-1.84375 -1.015625,-3.15625 -2.109375,-3.15625 C 1.5,-6.203125 0.5,-4.859375 0.5,-3.046875 c 0,1.84375 1.015625,3.15625 2.109375,3.15625 1.125,0 2.109375,-1.328125 2.109375,-3.15625 z M 2.609375,-0.5 C 1.828125,-0.5 1.1875,-1.671875 1.1875,-3.15625 c 0,-1.453125 0.6875,-2.4375 1.421875,-2.4375 0.734375,0 1.421875,0.984375 1.421875,2.4375 0,1.484375 -0.640625,2.65625 -1.421875,2.65625 z m 0,0"
             id="path3786" />
        </g>
      </g>
      <g
         transform="matrix(0.60700285,0,0,0.60700285,126.66789,146.08057)"
         id="g1446"
         style="fill:#000000;fill-opacity:1">
        <path
           style="stroke:none;stroke-width:0"
           d="m 3.09375,-5.796875 c 0,-0.15625 0,-0.40625 -0.296875,-0.40625 -0.1875,0 -0.25,0.125 -0.296875,0.234375 C 2.125,-5.109375 1.609375,-5 1.421875,-4.984375 c -0.171875,0.015625 -0.375,0.03125 -0.375,0.3125 0,0.25 0.171875,0.296875 0.328125,0.296875 0.1875,0 0.59375,-0.0625 1.03125,-0.4375 v 4.203125 H 1.5 c -0.15625,0 -0.390625,0 -0.390625,0.3125 C 1.109375,0 1.359375,0 1.5,0 H 4 c 0.15625,0 0.40625,0 0.40625,-0.296875 0,-0.3125 -0.234375,-0.3125 -0.40625,-0.3125 H 3.09375 Z m 0,0"
           id="id-e13266ed-6cfa-4320-a0dd-cd738df2b8a1" />
      </g>
      <g
         style="fill:#000000;fill-opacity:1"
         id="id-46fee729-ee1c-4619-8da0-77a9157232b0"
         transform="matrix(0.60700285,0,0,0.60700285,68.186548,64.208945)">
        <g
           transform="translate(159.173,134.765)"
           id="g1450">
          <path
             style="stroke:none;stroke-width:0"
             d="M 1.890625,-5.734375 C 1.78125,-6.0625 1.625,-6.09375 1.359375,-6.09375 h -0.6875 c -0.140625,0 -0.390625,0 -0.390625,0.296875 0,0.3125 0.234375,0.3125 0.390625,0.3125 h 0.25 v 4.875 h -0.25 c -0.140625,0 -0.390625,0 -0.390625,0.296875 C 0.28125,0 0.515625,0 0.671875,0 h 1.0625 c 0.15625,0 0.40625,0 0.40625,-0.296875 0,-0.3125 -0.25,-0.3125 -0.40625,-0.3125 h -0.25 V -5.34375 H 1.5 l 1.828125,4.984375 C 3.453125,-0.015625 3.625,0 3.875,0 4.171875,0 4.296875,-0.03125 4.296875,-0.40625 v -5.078125 h 0.25 c 0.140625,0 0.390625,0 0.390625,-0.296875 0,-0.3125 -0.234375,-0.3125 -0.390625,-0.3125 h -1.0625 c -0.15625,0 -0.390625,0 -0.390625,0.3125 0,0.296875 0.25,0.296875 0.390625,0.296875 h 0.25 V -0.75 Z m 0,0"
             id="id-a028d490-19a9-4fcd-80e4-696c88fd1442" />
        </g>
        <g
           transform="translate(164.403,134.765)"
           id="g1453">
          <path
             style="stroke:none;stroke-width:0"
             d="m 4.46875,-5.484375 h 0.3125 c 0.15625,0 0.40625,0 0.40625,-0.3125 0,-0.296875 -0.265625,-0.296875 -0.40625,-0.296875 H 3.484375 c -0.140625,0 -0.40625,0 -0.40625,0.296875 0,0.3125 0.265625,0.3125 0.40625,0.3125 H 3.78125 v 3.40625 C 3.78125,-1.015625 3.125,-0.5 2.609375,-0.5 2.078125,-0.5 1.4375,-1.015625 1.4375,-2.078125 v -3.40625 h 0.296875 c 0.15625,0 0.40625,0 0.40625,-0.3125 0,-0.296875 -0.25,-0.296875 -0.40625,-0.296875 h -1.28125 c -0.15625,0 -0.40625,0 -0.40625,0.296875 0,0.3125 0.25,0.3125 0.40625,0.3125 H 0.75 v 3.453125 c 0,1.21875 0.859375,2.140625 1.859375,2.140625 1,0 1.859375,-0.921875 1.859375,-2.140625 z m 0,0"
             id="id-00f1f8f9-4808-47c3-8860-41a9e7071c92" />
        </g>
        <g
           transform="translate(169.633,134.765)"
           id="g1456">
          <path
             style="stroke:none;stroke-width:0"
             d="m 1.78125,-5.484375 h 0.546875 c 0.140625,0 0.40625,0 0.40625,-0.296875 0,-0.3125 -0.25,-0.3125 -0.40625,-0.3125 H 0.71875 c -0.15625,0 -0.40625,0 -0.40625,0.3125 0,0.296875 0.25,0.296875 0.40625,0.296875 h 0.375 v 4.875 h -0.375 c -0.15625,0 -0.40625,0 -0.40625,0.3125 C 0.3125,0 0.5625,0 0.71875,0 h 3.75 c 0.328125,0 0.390625,-0.09375 0.390625,-0.40625 v -0.890625 c 0,-0.203125 0,-0.40625 -0.328125,-0.40625 -0.359375,0 -0.359375,0.203125 -0.359375,0.40625 v 0.6875 H 1.78125 Z m 0,0"
             id="id-5b1e2d92-062c-4dd4-8a3d-5dbf5d741ab0" />
        </g>
        <g
           transform="translate(174.864,134.765)"
           id="g1459">
          <path
             style="stroke:none;stroke-width:0"
             d="m 1.78125,-5.484375 h 0.546875 c 0.140625,0 0.40625,0 0.40625,-0.296875 0,-0.3125 -0.25,-0.3125 -0.40625,-0.3125 H 0.71875 c -0.15625,0 -0.40625,0 -0.40625,0.3125 0,0.296875 0.25,0.296875 0.40625,0.296875 h 0.375 v 4.875 h -0.375 c -0.15625,0 -0.40625,0 -0.40625,0.3125 C 0.3125,0 0.5625,0 0.71875,0 h 3.75 c 0.328125,0 0.390625,-0.09375 0.390625,-0.40625 v -0.890625 c 0,-0.203125 0,-0.40625 -0.328125,-0.40625 -0.359375,0 -0.359375,0.203125 -0.359375,0.40625 v 0.6875 H 1.78125 Z m 0,0"
             id="id-7eecf685-c107-426f-ba46-86c647908751" />
        </g>
      </g>
      <path
         style="fill:none;stroke:#000000;stroke-width:0.264583px;stroke-linecap:butt;stroke-linejoin:miter;stroke-opacity:1;marker-start:url(#DotM);marker-end:url(#marker3614)"
         d="m 150.81251,144.19796 h 11.90625"
         id="path1615" />
    </g>
  </g>
</svg>
