<?xml version="1.0" encoding="UTF-8" standalone="no"?>
<svg
   version="1.1"
   id="svg903"
   sodipodi:docname="hsrLatch.svg"
   inkscape:version="1.1 (c4e8f9e, 2021-05-24)"
   width="55.736237"
   height="29.792789"
   viewBox="0 0 68.010017 21.401643"
   xmlns:inkscape="http://www.inkscape.org/namespaces/inkscape"
   xmlns:sodipodi="http://sodipodi.sourceforge.net/DTD/sodipodi-0.dtd"
   xmlns="http://www.w3.org/2000/svg"
   xmlns:svg="http://www.w3.org/2000/svg">
  <sodipodi:namedview
     id="namedview905"
     pagecolor="#ffffff"
     bordercolor="#666666"
     borderopacity="1.0"
     inkscape:pageshadow="2"
     inkscape:pageopacity="0.0"
     inkscape:pagecheckerboard="0"
     showgrid="false"
     inkscape:zoom="10.02069"
     inkscape:cx="33.281142"
     inkscape:cy="12.02512"
     inkscape:window-width="1440"
     inkscape:window-height="847"
     inkscape:window-x="103"
     inkscape:window-y="25"
     inkscape:window-maximized="0"
     inkscape:current-layer="svg903"
     inkscape:snap-global="true"
     lock-margins="true"
     fit-margin-top="0"
     fit-margin-left="0"
     fit-margin-right="0"
     fit-margin-bottom="0"
     viewbox-height="100"
     width="65.16291px">
    <inkscape:grid
       type="xygrid"
       id="grid1463"
       originx="-364.04082"
       originy="-303.96234" />
  </sodipodi:namedview>
  <defs
     id="defs831">
    <clipPath
       id="page">
      <rect
         x="0"
         y="0"
         width="760"
         height="620"
         id="rect824" />
    </clipPath>
    <clipPath
       id="clipPath829">
      <rect
         x="0"
         y="0"
         width="760"
         height="620"
         id="rect827" />
    </clipPath>
    <defs
       id="id-6218469a-638a-438a-8285-87af46e395b2">
      <g
         id="id-41f024df-1921-46fd-b358-2bb13516e3a0">
        <symbol
           overflow="visible"
           id="id-751024ce-17db-425f-8adf-8e5129a58830">
          <path
             style="stroke:none;stroke-width:0"
             d=""
             id="id-f6b93899-9967-45d1-bf36-847d7d2c198e" />
        </symbol>
        <symbol
           overflow="visible"
           id="id-ccd68d53-c78f-4352-a28f-35fa76bbcac7">
          <path
             style="stroke:none;stroke-width:0"
             d="M 3.65625,-0.3125 C 3.875,-0.015625 4.34375,0 4.71875,0 c 0.28125,0 0.5,0 0.5,-0.3125 0,-0.296875 -0.25,-0.296875 -0.390625,-0.296875 -0.421875,0 -0.515625,-0.046875 -0.59375,-0.078125 v -2.15625 c 0,-0.703125 -0.546875,-1.546875 -1.984375,-1.546875 -0.421875,0 -1.4375,0 -1.4375,0.734375 0,0.296875 0.203125,0.453125 0.4375,0.453125 0.15625,0 0.4375,-0.09375 0.4375,-0.453125 0,-0.078125 0.015625,-0.09375 0.21875,-0.109375 0.140625,-0.015625 0.265625,-0.015625 0.359375,-0.015625 0.75,0 1.265625,0.3125 1.265625,1.015625 -1.75,0.03125 -2.984375,0.53125 -2.984375,1.484375 0,0.6875 0.625,1.34375 1.640625,1.34375 0.375,0 1,-0.078125 1.46875,-0.375 z m -0.125,-1.859375 v 0.84375 c 0,0.21875 0,0.4375 -0.375,0.609375 -0.359375,0.171875 -0.8125,0.171875 -0.890625,0.171875 -0.625,0 -1.03125,-0.34375 -1.03125,-0.734375 0,-0.484375 0.859375,-0.859375 2.296875,-0.890625 z m 0,0"
             id="id-b9f47a47-f328-4fbb-9ab9-075c127460cc" />
        </symbol>
        <symbol
           overflow="visible"
           id="id-401b8321-aa4e-4d98-9505-d73242a42246">
          <path
             style="stroke:none;stroke-width:0"
             d="m 3.078125,-3.890625 c 0,-0.3125 -0.0625,-0.40625 -0.390625,-0.40625 H 1.265625 c -0.15625,0 -0.40625,0 -0.40625,0.296875 0,0.3125 0.25,0.3125 0.40625,0.3125 h 1.125 v 3.078125 H 1.1875 c -0.15625,0 -0.40625,0 -0.40625,0.3125 C 0.78125,0 1.03125,0 1.1875,0 H 4.125 c 0.15625,0 0.40625,0 0.40625,-0.296875 0,-0.3125 -0.25,-0.3125 -0.40625,-0.3125 H 3.078125 Z m 0,-1.71875 c 0,-0.265625 -0.21875,-0.484375 -0.5,-0.484375 -0.28125,0 -0.5,0.21875 -0.5,0.484375 0,0.28125 0.21875,0.5 0.5,0.5 0.28125,0 0.5,-0.21875 0.5,-0.5 z m 0,0"
             id="id-0fd42125-ad84-4701-a8ce-45308056cf4b" />
        </symbol>
        <symbol
           overflow="visible"
           id="id-05c21c86-3cfb-4459-8d0c-c82f21629225">
          <path
             style="stroke:none;stroke-width:0"
             d="m 1.65625,-3.828125 c 0,-0.3125 0,-0.46875 -0.40625,-0.46875 H 0.53125 c -0.15625,0 -0.40625,0 -0.40625,0.3125 0,0.296875 0.25,0.296875 0.390625,0.296875 H 0.96875 v 3.078125 h -0.4375 c -0.15625,0 -0.40625,0 -0.40625,0.3125 C 0.125,0 0.375,0 0.515625,0 h 1.59375 C 2.25,0 2.5,0 2.5,-0.296875 c 0,-0.3125 -0.25,-0.3125 -0.40625,-0.3125 H 1.65625 V -2.375 c 0,-1 0.734375,-1.375 1.25,-1.375 0.515625,0 0.65625,0.28125 0.65625,0.875 v 2.265625 h -0.375 c -0.171875,0 -0.421875,0 -0.421875,0.3125 C 2.765625,0 3.046875,0 3.1875,0 h 1.515625 c 0.140625,0 0.40625,0 0.40625,-0.296875 0,-0.3125 -0.25,-0.3125 -0.421875,-0.3125 H 4.25 v -2.3125 c 0,-1 -0.5,-1.4375 -1.296875,-1.4375 -0.65625,0 -1.109375,0.34375 -1.296875,0.53125 z m 0,0"
             id="id-cd1dcb34-b685-4e9c-bcc9-a4dde7921945" />
        </symbol>
        <symbol
           overflow="visible"
           id="id-5f56a1bd-723a-449b-a3b1-7588ebe3e409">
          <path
             style="stroke:none;stroke-width:0"
             d="m 1.65625,-3.875 v -1.8125 c 0,-0.296875 -0.0625,-0.40625 -0.40625,-0.40625 H 0.53125 c -0.15625,0 -0.40625,0 -0.40625,0.3125 0,0.296875 0.25,0.296875 0.390625,0.296875 H 0.96875 V -0.40625 C 0.96875,-0.203125 0.96875,0 1.3125,0 1.65625,0 1.65625,-0.203125 1.65625,-0.453125 2.0625,-0.03125 2.5,0.0625 2.8125,0.0625 c 1.078125,0 2.046875,-0.953125 2.046875,-2.21875 0,-1.21875 -0.875,-2.203125 -1.9375,-2.203125 C 2.4375,-4.359375 2,-4.171875 1.65625,-3.875 Z m 0,1.96875 V -2.625 c 0,-0.59375 0.578125,-1.125 1.203125,-1.125 0.734375,0 1.3125,0.734375 1.3125,1.59375 0,0.953125 -0.6875,1.609375 -1.390625,1.609375 -0.78125,0 -1.125,-0.875 -1.125,-1.359375 z m 0,0"
             id="id-b698f2b2-49e2-41f4-acf3-55dfbbc509bb" />
        </symbol>
        <symbol
           overflow="visible"
           id="id-1f3dfe3a-af28-4378-9c76-aa66616c3dcc">
          <path
             style="stroke:none;stroke-width:0"
             d="m 4.65625,-2.15625 c 0,-1.25 -0.921875,-2.234375 -2.046875,-2.234375 -1.109375,0 -2.046875,0.984375 -2.046875,2.234375 0,1.265625 0.953125,2.21875 2.046875,2.21875 1.09375,0 2.046875,-0.953125 2.046875,-2.21875 z M 2.609375,-0.546875 C 1.875,-0.546875 1.25,-1.296875 1.25,-2.21875 c 0,-0.90625 0.65625,-1.5625 1.359375,-1.5625 0.71875,0 1.359375,0.65625 1.359375,1.5625 0,0.921875 -0.625,1.671875 -1.359375,1.671875 z m 0,0"
             id="id-c1270fac-d09c-4689-bd6d-b0156142bddb" />
        </symbol>
        <symbol
           overflow="visible"
           id="id-e6207ffc-747b-45f3-992f-2730cf031a66">
          <path
             style="stroke:none;stroke-width:0"
             d="M 3.5625,-0.3125 C 3.578125,0 3.78125,0 3.96875,0 H 4.6875 c 0.171875,0 0.421875,0 0.421875,-0.3125 0,-0.296875 -0.265625,-0.296875 -0.40625,-0.296875 H 4.25 v -3.28125 c 0,-0.3125 -0.046875,-0.40625 -0.390625,-0.40625 H 3.125 c -0.15625,0 -0.40625,0 -0.40625,0.3125 0,0.296875 0.265625,0.296875 0.40625,0.296875 h 0.4375 v 2.125 c 0,0.890625 -0.796875,1.015625 -1.125,1.015625 -0.78125,0 -0.78125,-0.328125 -0.78125,-0.65625 v -2.6875 c 0,-0.3125 -0.0625,-0.40625 -0.40625,-0.40625 H 0.53125 c -0.15625,0 -0.40625,0 -0.40625,0.3125 0,0.296875 0.25,0.296875 0.390625,0.296875 H 0.96875 v 2.546875 c 0,0.96875 0.6875,1.203125 1.40625,1.203125 0.421875,0 0.828125,-0.109375 1.1875,-0.375 z m 0,0"
             id="id-9d42f572-479c-4864-bc3d-5b49699842bf" />
        </symbol>
        <symbol
           overflow="visible"
           id="id-51bfbd88-b321-441a-bddf-ba7a11db208a">
          <path
             style="stroke:none;stroke-width:0"
             d="m 2.21875,-3.6875 h 1.625 c 0.15625,0 0.40625,0 0.40625,-0.296875 0,-0.3125 -0.25,-0.3125 -0.40625,-0.3125 h -1.625 v -0.8125 c 0,-0.1875 0,-0.40625 -0.34375,-0.40625 -0.34375,0 -0.34375,0.203125 -0.34375,0.40625 v 0.8125 h -0.875 c -0.15625,0 -0.40625,0 -0.40625,0.3125 0,0.296875 0.25,0.296875 0.390625,0.296875 H 1.53125 V -1.25 c 0,0.953125 0.671875,1.3125 1.40625,1.3125 0.734375,0 1.53125,-0.4375 1.53125,-1.3125 0,-0.1875 0,-0.390625 -0.34375,-0.390625 -0.328125,0 -0.34375,0.203125 -0.34375,0.375 0,0.625 -0.578125,0.71875 -0.796875,0.71875 -0.765625,0 -0.765625,-0.515625 -0.765625,-0.765625 z m 0,0"
             id="id-f74c9a73-0850-47af-9843-d8aaf2169dcb" />
        </symbol>
        <symbol
           overflow="visible"
           id="id-200c1419-b8e5-405f-be97-acac90bf23be">
          <path
             style="stroke:none;stroke-width:0"
             d="m 3.15625,-5.828125 c -0.09375,-0.375 -0.234375,-0.375 -0.546875,-0.375 -0.28125,0 -0.453125,0 -0.53125,0.375 L 0.875,-0.609375 c -0.140625,0 -0.375,0 -0.4375,0.015625 -0.109375,0.0625 -0.171875,0.171875 -0.171875,0.296875 C 0.265625,0 0.53125,0 0.703125,0 H 1.71875 c 0.171875,0 0.421875,0 0.421875,-0.296875 0,-0.3125 -0.203125,-0.3125 -0.5625,-0.3125 l 0.21875,-1.03125 h 1.625 l 0.234375,1.03125 c -0.359375,0 -0.5625,0 -0.5625,0.3125 C 3.09375,0 3.328125,0 3.515625,0 H 4.53125 c 0.15625,0 0.421875,0 0.421875,-0.296875 0,-0.125 -0.046875,-0.234375 -0.171875,-0.28125 C 4.71875,-0.609375 4.5,-0.609375 4.359375,-0.609375 Z M 2.609375,-5.40625 H 2.625 L 3.265625,-2.25 h -1.3125 z m 0,0"
             id="id-f8319bc5-2d07-4ba8-be76-a87f43cbb9b1" />
        </symbol>
        <symbol
           overflow="visible"
           id="id-b25f727e-99ff-45b9-ba92-abffca11b1ab">
          <path
             style="stroke:none;stroke-width:0"
             d="M 1.890625,-5.734375 C 1.78125,-6.0625 1.625,-6.09375 1.359375,-6.09375 h -0.6875 c -0.140625,0 -0.390625,0 -0.390625,0.296875 0,0.3125 0.234375,0.3125 0.390625,0.3125 h 0.25 v 4.875 h -0.25 c -0.140625,0 -0.390625,0 -0.390625,0.296875 C 0.28125,0 0.515625,0 0.671875,0 h 1.0625 c 0.15625,0 0.40625,0 0.40625,-0.296875 0,-0.3125 -0.25,-0.3125 -0.40625,-0.3125 h -0.25 V -5.34375 H 1.5 l 1.828125,4.984375 C 3.453125,-0.015625 3.625,0 3.875,0 4.171875,0 4.296875,-0.03125 4.296875,-0.40625 v -5.078125 h 0.25 c 0.140625,0 0.390625,0 0.390625,-0.296875 0,-0.3125 -0.234375,-0.3125 -0.390625,-0.3125 h -1.0625 c -0.15625,0 -0.390625,0 -0.390625,0.3125 0,0.296875 0.25,0.296875 0.390625,0.296875 h 0.25 V -0.75 Z m 0,0"
             id="id-93fd820e-48ab-4e59-b856-fa13db5d1be0" />
        </symbol>
        <symbol
           overflow="visible"
           id="id-a982602c-b3a5-4545-892b-4b3eff224e27">
          <path
             style="stroke:none;stroke-width:0"
             d="m 0.59375,-6.09375 c -0.15625,0 -0.40625,0 -0.40625,0.3125 0,0.296875 0.265625,0.296875 0.40625,0.296875 H 0.8125 v 4.875 H 0.59375 c -0.15625,0 -0.40625,0 -0.40625,0.3125 C 0.1875,0 0.453125,0 0.59375,0 h 2.0625 c 1.296875,0 2.171875,-1.390625 2.171875,-3 0,-1.59375 -0.84375,-3.09375 -2.171875,-3.09375 z M 1.5,-0.609375 v -4.875 h 0.96875 c 1.125,0 1.671875,1.328125 1.671875,2.484375 0,1.171875 -0.578125,2.390625 -1.671875,2.390625 z m 0,0"
             id="id-224038d9-4e7c-47de-b24d-f48c3630ffbd" />
        </symbol>
        <symbol
           overflow="visible"
           id="id-3794078e-7ca2-48ba-bf3e-babf57e7553f">
          <path
             style="stroke:none;stroke-width:0"
             d="m 4.671875,-3.046875 c 0,-2.875 -0.21875,-3.15625 -2.0625,-3.15625 -1.84375,0 -2.046875,0.265625 -2.046875,3.15625 0,2.890625 0.203125,3.15625 2.046875,3.15625 1.84375,0 2.0625,-0.265625 2.0625,-3.15625 z M 2.609375,-0.5 c -0.875,0 -1.125,-0.203125 -1.25,-0.703125 C 1.25,-1.71875 1.25,-2.578125 1.25,-3.125 c 0,-0.625 0,-1.296875 0.109375,-1.765625 0.125,-0.578125 0.4375,-0.703125 1.25,-0.703125 0.75,0 1.09375,0.09375 1.25,0.640625 0.125,0.46875 0.125,1.21875 0.125,1.828125 0,0.609375 0,1.328125 -0.109375,1.859375 C 3.765625,-0.703125 3.5,-0.5 2.609375,-0.5 Z m 0,0"
             id="id-7b7e6dbc-b182-430a-a3ef-a5094e130594" />
        </symbol>
        <symbol
           overflow="visible"
           id="id-fa0f2f5b-0e23-4716-b0b0-67dce32f3ce1">
          <path
             style="stroke:none;stroke-width:0"
             d="m 1.5625,-5.484375 h 0.703125 c 0.921875,0 1.359375,0.59375 1.359375,1.0625 0,0.5 -0.4375,1.078125 -1.359375,1.078125 H 1.5625 Z M 3.46875,-3.03125 C 4.125,-3.40625 4.3125,-4 4.3125,-4.421875 4.3125,-5.28125 3.5625,-6.09375 2.375,-6.09375 h -1.75 c -0.171875,0 -0.40625,0 -0.40625,0.3125 0,0.296875 0.25,0.296875 0.40625,0.296875 h 0.25 v 4.875 h -0.25 c -0.171875,0 -0.40625,0 -0.40625,0.3125 C 0.21875,0 0.46875,0 0.625,0 h 1.171875 c 0.15625,0 0.40625,0 0.40625,-0.296875 0,-0.3125 -0.234375,-0.3125 -0.40625,-0.3125 H 1.5625 v -2.125 h 0.765625 c 0.1875,0 0.5,0 0.8125,0.265625 0.21875,0.21875 0.21875,0.4375 0.21875,0.859375 0,0.640625 0,0.9375 0.1875,1.265625 C 3.71875,-0.046875 4,0.109375 4.34375,0.109375 c 0.625,0 0.859375,-0.65625 0.859375,-1.03125 C 5.203125,-1.25 4.96875,-1.25 4.859375,-1.25 4.75,-1.25 4.53125,-1.25 4.515625,-0.953125 4.515625,-0.875 4.5,-0.5 4.328125,-0.5 c -0.28125,0 -0.28125,-0.453125 -0.28125,-0.984375 0,-0.625 0,-0.703125 -0.09375,-0.9375 -0.109375,-0.296875 -0.34375,-0.5 -0.484375,-0.609375 z m 0,0"
             id="id-db8e951c-11f6-411a-91d4-f855b18c2f52" />
        </symbol>
        <symbol
           overflow="visible"
           id="id-577334e6-4aef-4721-88a3-b043c304ac55">
          <path
             style="stroke:none;stroke-width:0"
             d="M 2.953125,-5.484375 H 4.28125 v 0.53125 c 0,0.1875 0,0.40625 0.328125,0.40625 0.359375,0 0.359375,-0.203125 0.359375,-0.40625 V -5.6875 c 0,-0.296875 -0.0625,-0.40625 -0.40625,-0.40625 H 0.671875 c -0.328125,0 -0.40625,0.078125 -0.40625,0.40625 v 0.734375 c 0,0.1875 0,0.40625 0.328125,0.40625 0.359375,0 0.359375,-0.203125 0.359375,-0.40625 v -0.53125 h 1.3125 v 4.875 H 1.75 c -0.140625,0 -0.390625,0 -0.390625,0.296875 C 1.359375,0 1.59375,0 1.75,0 H 3.484375 C 3.625,0 3.875,0 3.875,-0.296875 c 0,-0.3125 -0.234375,-0.3125 -0.390625,-0.3125 h -0.53125 z m 0,0"
             id="id-32bac1b0-5a52-4f06-b328-242c1b243ff5" />
        </symbol>
      </g>
    </defs>
    <defs
       id="id-ccd20762-9fd6-4169-8907-958e37e124f2">
      <g
         id="id-8830223c-efc5-40ef-bfa1-7b67fee26303">
        <symbol
           overflow="visible"
           id="id-ac362f0a-a24d-44c1-b447-b051a3191062">
          <path
             style="stroke:none;stroke-width:0"
             d=""
             id="id-d78edad5-cff1-415e-9eed-66f3631e4bb2" />
        </symbol>
        <symbol
           overflow="visible"
           id="id-e880b00e-e04b-45bd-b5bb-ba4685e85900">
          <path
             style="stroke:none;stroke-width:0"
             d="M 1.890625,-5.734375 C 1.78125,-6.0625 1.625,-6.09375 1.359375,-6.09375 h -0.6875 c -0.140625,0 -0.390625,0 -0.390625,0.296875 0,0.3125 0.234375,0.3125 0.390625,0.3125 h 0.25 v 4.875 h -0.25 c -0.140625,0 -0.390625,0 -0.390625,0.296875 C 0.28125,0 0.515625,0 0.671875,0 h 1.0625 c 0.15625,0 0.40625,0 0.40625,-0.296875 0,-0.3125 -0.25,-0.3125 -0.40625,-0.3125 h -0.25 V -5.34375 H 1.5 l 1.828125,4.984375 C 3.453125,-0.015625 3.625,0 3.875,0 4.171875,0 4.296875,-0.03125 4.296875,-0.40625 v -5.078125 h 0.25 c 0.140625,0 0.390625,0 0.390625,-0.296875 0,-0.3125 -0.234375,-0.3125 -0.390625,-0.3125 h -1.0625 c -0.15625,0 -0.390625,0 -0.390625,0.3125 0,0.296875 0.25,0.296875 0.390625,0.296875 h 0.25 V -0.75 Z m 0,0"
             id="id-8da7dc86-3a06-4269-9abb-3529ef3d4c3b" />
        </symbol>
        <symbol
           overflow="visible"
           id="id-26536d89-769d-412d-8fc1-3c923dec9b5b">
          <path
             style="stroke:none;stroke-width:0"
             d="m 3.15625,-5.828125 c -0.09375,-0.375 -0.234375,-0.375 -0.546875,-0.375 -0.28125,0 -0.453125,0 -0.53125,0.375 L 0.875,-0.609375 c -0.140625,0 -0.375,0 -0.4375,0.015625 -0.109375,0.0625 -0.171875,0.171875 -0.171875,0.296875 C 0.265625,0 0.53125,0 0.703125,0 H 1.71875 c 0.171875,0 0.421875,0 0.421875,-0.296875 0,-0.3125 -0.203125,-0.3125 -0.5625,-0.3125 l 0.21875,-1.03125 h 1.625 l 0.234375,1.03125 c -0.359375,0 -0.5625,0 -0.5625,0.3125 C 3.09375,0 3.328125,0 3.515625,0 H 4.53125 c 0.15625,0 0.421875,0 0.421875,-0.296875 0,-0.125 -0.046875,-0.234375 -0.171875,-0.28125 C 4.71875,-0.609375 4.5,-0.609375 4.359375,-0.609375 Z M 2.609375,-5.40625 H 2.625 L 3.265625,-2.25 h -1.3125 z m 0,0"
             id="id-112deef3-7cfd-47f6-ad7a-c7c772b9f383" />
        </symbol>
        <symbol
           overflow="visible"
           id="id-f355b326-2bca-4af3-a672-615147d406ba">
          <path
             style="stroke:none;stroke-width:0"
             d="m 0.59375,-6.09375 c -0.15625,0 -0.40625,0 -0.40625,0.3125 0,0.296875 0.265625,0.296875 0.40625,0.296875 H 0.8125 v 4.875 H 0.59375 c -0.15625,0 -0.40625,0 -0.40625,0.3125 C 0.1875,0 0.453125,0 0.59375,0 h 2.0625 c 1.296875,0 2.171875,-1.390625 2.171875,-3 0,-1.59375 -0.84375,-3.09375 -2.171875,-3.09375 z M 1.5,-0.609375 v -4.875 h 0.96875 c 1.125,0 1.671875,1.328125 1.671875,2.484375 0,1.171875 -0.578125,2.390625 -1.671875,2.390625 z m 0,0"
             id="id-910aa90b-ae7f-4661-aa27-ee832c233114" />
        </symbol>
      </g>
    </defs>
    <defs
       id="id-eed44bfd-ae0b-4d33-9d40-ba5f7b1a1726">
      <g
         id="id-da8ea488-762e-42e4-ac55-74aa9f3cdbf3">
        <symbol
           overflow="visible"
           id="id-0e2daf2f-e345-496b-994e-cd184c409612">
          <path
             style="stroke:none;stroke-width:0"
             d=""
             id="id-a2c38629-c56f-4e18-acaf-6a8632a94295" />
        </symbol>
        <symbol
           overflow="visible"
           id="id-c22c6bcc-cdd5-45ac-83fa-1a96deed6ee7">
          <path
             style="stroke:none;stroke-width:0"
             d="M 2.96875,-2.546875 C 2.734375,-2.578125 2.546875,-2.609375 2.296875,-2.65625 2,-2.703125 1.328125,-2.828125 1.328125,-3.203125 c 0,-0.265625 0.3125,-0.578125 1.265625,-0.578125 0.828125,0 0.96875,0.296875 1,0.5625 0,0.171875 0.03125,0.34375 0.328125,0.34375 0.359375,0 0.359375,-0.21875 0.359375,-0.421875 v -0.6875 c 0,-0.15625 0,-0.40625 -0.296875,-0.40625 -0.25,0 -0.28125,0.140625 -0.3125,0.21875 -0.4375,-0.21875 -0.875,-0.21875 -1.0625,-0.21875 -1.65625,0 -1.890625,0.828125 -1.890625,1.1875 0,0.90625 1.046875,1.078125 1.96875,1.21875 0.484375,0.078125 1.28125,0.203125 1.28125,0.734375 0,0.375 -0.375,0.703125 -1.28125,0.703125 -0.46875,0 -1.015625,-0.109375 -1.265625,-0.890625 -0.0625,-0.171875 -0.09375,-0.28125 -0.359375,-0.28125 -0.34375,0 -0.34375,0.203125 -0.34375,0.40625 v 0.96875 c 0,0.15625 0,0.40625 0.296875,0.40625 0.09375,0 0.25,-0.015625 0.375,-0.375 0.484375,0.359375 1.015625,0.375 1.296875,0.375 1.5625,0 1.890625,-0.828125 1.890625,-1.3125 0,-1.03125 -1.28125,-1.25 -1.609375,-1.296875 z m 0,0"
             id="id-4a5487c8-0137-4a88-9574-bfb20d466aec" />
        </symbol>
        <symbol
           overflow="visible"
           id="id-3fecf408-301e-498f-bf44-31ea18fdb00b">
          <path
             style="stroke:none;stroke-width:0"
             d="m 4.234375,-1.90625 c 0.203125,0 0.390625,0 0.390625,-0.359375 0,-1.140625 -0.640625,-2.125 -1.9375,-2.125 -1.1875,0 -2.140625,1 -2.140625,2.234375 0,1.203125 1.015625,2.21875 2.296875,2.21875 1.3125,0 1.78125,-0.90625 1.78125,-1.15625 0,-0.265625 -0.28125,-0.265625 -0.34375,-0.265625 -0.1875,0 -0.265625,0.03125 -0.328125,0.21875 -0.21875,0.5 -0.765625,0.59375 -1.046875,0.59375 -0.75,0 -1.484375,-0.5 -1.65625,-1.359375 z M 1.265625,-2.5 C 1.40625,-3.234375 2,-3.78125 2.6875,-3.78125 c 0.515625,0 1.140625,0.25 1.234375,1.28125 z m 0,0"
             id="id-7191e435-b382-41ff-9b05-6a2b57b9170f" />
        </symbol>
        <symbol
           overflow="visible"
           id="id-b9f41aa3-283b-4676-8401-077ea8cd4364">
          <path
             style="stroke:none;stroke-width:0"
             d="m 2.21875,-3.6875 h 1.625 c 0.15625,0 0.40625,0 0.40625,-0.296875 0,-0.3125 -0.25,-0.3125 -0.40625,-0.3125 h -1.625 v -0.8125 c 0,-0.1875 0,-0.40625 -0.34375,-0.40625 -0.34375,0 -0.34375,0.203125 -0.34375,0.40625 v 0.8125 h -0.875 c -0.15625,0 -0.40625,0 -0.40625,0.3125 0,0.296875 0.25,0.296875 0.390625,0.296875 H 1.53125 V -1.25 c 0,0.953125 0.671875,1.3125 1.40625,1.3125 0.734375,0 1.53125,-0.4375 1.53125,-1.3125 0,-0.1875 0,-0.390625 -0.34375,-0.390625 -0.328125,0 -0.34375,0.203125 -0.34375,0.375 0,0.625 -0.578125,0.71875 -0.796875,0.71875 -0.765625,0 -0.765625,-0.515625 -0.765625,-0.765625 z m 0,0"
             id="id-20a9475c-0615-4d8e-86f6-bb49169bf3d4" />
        </symbol>
        <symbol
           overflow="visible"
           id="id-c6c5a4f4-ded1-4f78-85a1-4e64a98ed484">
          <path
             style="stroke:none;stroke-width:0"
             d="M 2.21875,-1.859375 C 2.21875,-2.796875 2.796875,-3.75 4,-3.75 c 0.015625,0.234375 0.1875,0.4375 0.4375,0.4375 0.21875,0 0.421875,-0.15625 0.421875,-0.421875 0,-0.203125 -0.125,-0.625 -0.953125,-0.625 -0.5,0 -1.140625,0.1875 -1.6875,0.8125 v -0.34375 c 0,-0.3125 -0.0625,-0.40625 -0.40625,-0.40625 H 0.71875 c -0.15625,0 -0.40625,0 -0.40625,0.296875 0,0.3125 0.25,0.3125 0.40625,0.3125 h 0.8125 v 3.078125 h -0.8125 c -0.15625,0 -0.40625,0 -0.40625,0.296875 C 0.3125,0 0.5625,0 0.71875,0 H 3.3125 c 0.15625,0 0.421875,0 0.421875,-0.296875 0,-0.3125 -0.265625,-0.3125 -0.421875,-0.3125 H 2.21875 Z m 0,0"
             id="id-50d90742-bdad-4d8f-a1f2-01244a10f8c0" />
        </symbol>
        <symbol
           overflow="visible"
           id="id-146c9500-bf3c-416a-8655-05f9d8f8d3af">
          <path
             style="stroke:none;stroke-width:0"
             d="m 4.21875,1.390625 c 0.140625,0 0.3125,0 0.3125,-0.1875 0,-0.0625 -0.1875,-0.421875 -0.296875,-0.640625 C 4.140625,0.421875 3.96875,0.09375 3.890625,-0.046875 4.34375,-0.21875 4.515625,-0.5625 4.609375,-1.375 c 0.0625,-0.53125 0.0625,-1.203125 0.0625,-1.671875 0,-2.875 -0.21875,-3.15625 -2.0625,-3.15625 -1.84375,0 -2.046875,0.265625 -2.046875,3.15625 0,2.890625 0.203125,3.15625 2.046875,3.15625 0.125,0 0.453125,0 0.5625,-0.015625 0.0625,0.140625 0.59375,1.125 0.609375,1.171875 0.078125,0.125 0.1875,0.125 0.34375,0.125 z M 2.84375,-0.5 H 2.53125 C 1.640625,-0.5 1.4375,-0.78125 1.328125,-1.3125 1.25,-1.828125 1.25,-2.5 1.25,-3.046875 c 0,-0.546875 0,-1.3125 0.09375,-1.796875 0.125,-0.546875 0.34375,-0.75 1.265625,-0.75 0.890625,0 1.171875,0.171875 1.28125,0.8125 0.09375,0.515625 0.09375,1.1875 0.09375,1.734375 0,2.078125 -0.203125,2.21875 -0.421875,2.375 l -0.484375,-0.875 C 2.984375,-1.6875 2.984375,-1.703125 2.78125,-1.703125 H 2.671875 c -0.140625,0 -0.3125,0 -0.3125,0.1875 0,0.046875 0,0.078125 0.03125,0.125 z m 0,0"
             id="id-d925ff38-b053-4295-967d-904d6382f0c7" />
        </symbol>
      </g>
    </defs>
  </defs>
  <g
     id="g9710"
     transform="translate(37.812344,-29.649764)">
    <path
       d="m -6.485255,25.304308 h 5.69004"
       fill="none"
       stroke="#000000"
       stroke-width="0.569003"
       id="path1085" />
    <path
       d="m -6.485255,30.994348 h 5.69004"
       fill="none"
       stroke="#000000"
       stroke-width="0.569003"
       id="path1087" />
    <path
       d="m 13.429885,28.149328 h 5.69004"
       fill="none"
       stroke="#000000"
       stroke-width="0.569003"
       id="path1089" />
    <path
       id="path1095"
       style="color:#000000;fill:#000000;-inkscape-stroke:none"
       d="m 10.300781,28.148437 c 0,1.327675 -0.6731359,2.688762 -1.6953122,3.710938 -1.0221764,1.022176 -2.3832627,1.695312 -3.7109376,1.695312 v 0.56836 c 1.5173424,0 3.0016948,-0.749742 4.1132813,-1.861328 1.1115865,-1.111587 1.8613285,-2.595939 1.8613285,-4.113282 z M 4.8945312,22.173828 v 0.570313 c 1.3276749,0 2.6887612,0.673136 3.7109376,1.695312 1.0221763,1.022177 1.6953122,2.38131 1.6953122,3.708984 h 0.56836 c 0,-1.517342 -0.749742,-2.999741 -1.8613285,-4.111328 C 7.896226,22.925523 6.4118736,22.173828 4.8945312,22.173828 Z m -5.9746093,0 v 11.949219 h 5.9746093 v -0.56836 H -0.50976562 V 22.744141 H 4.8945312 v -0.570313 z" />
    <circle
       cx="12.007376"
       cy="28.149315"
       r="1.42251"
       fill="none"
       stroke="#000000"
       stroke-width="0.569003"
       id="circle1097" />
    <circle
       cx="-6.4852576"
       cy="25.304306"
       r="1.138008"
       stroke="none"
       fill="#ffffff"
       id="circle1099"
       style="stroke-width:0.284502" />
    <circle
       cx="-6.4852576"
       cy="25.304306"
       r="1.138008"
       fill="none"
       stroke="#000000"
       stroke-width="0.569003"
       id="circle1101" />
    <circle
       cx="-6.4852576"
       cy="30.994347"
       r="1.138008"
       stroke="none"
       fill="#ffffff"
       id="circle1103"
       style="stroke-width:0.284502" />
    <circle
       cx="-6.4852576"
       cy="30.994347"
       r="1.138008"
       fill="none"
       stroke="#000000"
       stroke-width="0.569003"
       id="circle1105" />
    <circle
       cx="19.119925"
       cy="28.149315"
       r="1.138008"
       stroke="none"
       fill="#ffffff"
       id="circle1107"
       style="stroke-width:0.284502" />
    <path
       d="m -6.485255,49.708545 h 5.69004"
       fill="none"
       stroke="#000000"
       stroke-width="0.569003"
       id="path1383" />
    <path
       d="m -6.485255,55.398585 h 5.69004"
       fill="none"
       stroke="#000000"
       stroke-width="0.569003"
       id="path1385" />
    <path
       d="m 13.429885,52.553565 h 5.69004"
       fill="none"
       stroke="#000000"
       stroke-width="0.569003"
       id="path1387" />
    <path
       id="path1393"
       style="color:#000000;fill:#000000;-inkscape-stroke:none"
       d="m 10.300781,52.552734 c 0,1.327675 -0.6731359,2.688761 -1.6953122,3.710938 -1.0221764,1.022176 -2.3832627,1.695312 -3.7109376,1.695312 v 0.56836 c 1.5173424,0 3.0016948,-0.749742 4.1132813,-1.861328 1.1115865,-1.111587 1.8613285,-2.595939 1.8613285,-4.113282 z M 4.8945312,46.578125 v 0.570312 c 1.3276749,10e-7 2.6887612,0.673137 3.7109376,1.695313 1.0221763,1.022176 1.6953122,2.38131 1.6953122,3.708984 h 0.56836 c 0,-1.517342 -0.749742,-2.999741 -1.8613285,-4.111328 C 7.896226,47.32982 6.4118736,46.578125 4.8945312,46.578125 Z m -5.9746093,0 v 11.949219 h 5.9746093 v -0.56836 H -0.50976562 V 47.148437 H 4.8945312 v -0.570312 z" />
    <circle
       cx="12.007376"
       cy="52.553551"
       r="1.42251"
       fill="none"
       stroke="#000000"
       stroke-width="0.569003"
       id="circle1395" />
    <circle
       cx="-6.4852576"
       cy="49.708542"
       r="1.138008"
       stroke="none"
       fill="#ffffff"
       id="circle1397"
       style="stroke-width:0.284502" />
    <circle
       cx="-6.4852576"
       cy="49.708542"
       r="1.138008"
       fill="none"
       stroke="#000000"
       stroke-width="0.569003"
       id="circle1399" />
    <circle
       cx="-6.4852576"
       cy="55.398582"
       r="1.138008"
       stroke="none"
       fill="#ffffff"
       id="circle1401"
       style="stroke-width:0.284502" />
    <circle
       cx="-6.4852576"
       cy="55.398582"
       r="1.138008"
       fill="none"
       stroke="#000000"
       stroke-width="0.569003"
       id="circle1403" />
    <circle
       cx="19.119925"
       cy="52.553551"
       r="1.138008"
       stroke="none"
       fill="#ffffff"
       id="circle1405"
       style="stroke-width:0.284502" />
    <g
       id="g1455"
       transform="translate(11.125414,-0.81561661)">
      <path
         d="m -29.27753,56.214201 h 10.570887"
         fill="none"
         stroke="#000000"
         stroke-width="0.569003"
         id="path1432"
         sodipodi:nodetypes="cc" />
      <circle
         cx="-30.659035"
         cy="56.214199"
         r="1.138008"
         fill="none"
         stroke="#000000"
         stroke-width="0.569003"
         id="circle1434" />
    </g>
    <g
       id="g1461"
       transform="matrix(-1,0,0,1,-30.236072,2.8450196)">
      <path
         d="m -53.912227,25.304308 h 5.69004"
         fill="none"
         stroke="#000000"
         stroke-width="0.569003"
         id="path1457" />
      <circle
         cx="-55.293732"
         cy="25.304306"
         r="1.138008"
         fill="none"
         stroke="#000000"
         stroke-width="0.569003"
         id="circle1459" />
    </g>
    <g
       id="g1467"
       transform="matrix(-1,0,0,1,-30.236072,27.249257)">
      <path
         d="m -53.912227,25.304308 h 5.69004"
         fill="none"
         stroke="#000000"
         stroke-width="0.569003"
         id="path1463" />
      <circle
         cx="-55.293732"
         cy="25.304306"
         r="1.138008"
         fill="none"
         stroke="#000000"
         stroke-width="0.569003"
         id="circle1465" />
    </g>
    <g
       id="g1738"
       transform="translate(11.125414,-30.909891)">
      <path
         d="m -29.27753,56.214201 h 10.570887"
         fill="none"
         stroke="#000000"
         stroke-width="0.569003"
         id="path1734"
         sodipodi:nodetypes="cc" />
      <circle
         cx="-30.659035"
         cy="56.214199"
         r="1.138008"
         fill="none"
         stroke="#000000"
         stroke-width="0.569003"
         id="circle1736" />
    </g>
    <path
       d="m -12.605584,44.012082 0.0015,5.640962 4.7916811,0.0016"
       fill="none"
       stroke="#000000"
       stroke-width="0.499995"
       id="path3258"
       sodipodi:nodetypes="ccc"
       style="stroke-linecap:round;stroke-linejoin:round" />
    <path
       d="M -6.5045242,44.012082 H -12.605584"
       fill="none"
       stroke="#000000"
       stroke-width="0.499995"
       id="path3260"
       sodipodi:nodetypes="cc"
       style="stroke-linecap:round;stroke-linejoin:round" />
    <path
       d="M 19.119925,28.149328 -6.5045247,44.012082"
       fill="none"
       stroke="#000000"
       stroke-width="0.499995"
       id="path3262"
       sodipodi:nodetypes="cc"
       style="stroke-linecap:round;stroke-linejoin:round" />
    <path
       d="M 19.119925,52.553565 -6.5045242,36.690811"
       fill="none"
       stroke="#000000"
       stroke-width="0.499995"
       id="path3363"
       sodipodi:nodetypes="cc"
       style="stroke-linecap:round;stroke-linejoin:round" />
    <path
       d="M -6.5045242,36.690811 H -12.604116 V 30.93826 l 4.7917168,0.0022"
       fill="none"
       stroke="#000000"
       stroke-width="0.499995"
       id="path3466"
       sodipodi:nodetypes="cccc"
       style="stroke-linecap:round;stroke-linejoin:round" />
    <g
       style="fill:#000000;fill-opacity:1"
       id="id-1c21c543-1a64-4087-aa61-6f3fc62ea72f"
       transform="matrix(0.59946556,0,0,0.59946556,-120.87699,-53.848188)">
      <g
         transform="translate(148.712,134.765)"
         id="g5617">
        <path
           style="stroke:none;stroke-width:0"
           d="M 2.96875,-2.546875 C 2.734375,-2.578125 2.546875,-2.609375 2.296875,-2.65625 2,-2.703125 1.328125,-2.828125 1.328125,-3.203125 c 0,-0.265625 0.3125,-0.578125 1.265625,-0.578125 0.828125,0 0.96875,0.296875 1,0.5625 0,0.171875 0.03125,0.34375 0.328125,0.34375 0.359375,0 0.359375,-0.21875 0.359375,-0.421875 v -0.6875 c 0,-0.15625 0,-0.40625 -0.296875,-0.40625 -0.25,0 -0.28125,0.140625 -0.3125,0.21875 -0.4375,-0.21875 -0.875,-0.21875 -1.0625,-0.21875 -1.65625,0 -1.890625,0.828125 -1.890625,1.1875 0,0.90625 1.046875,1.078125 1.96875,1.21875 0.484375,0.078125 1.28125,0.203125 1.28125,0.734375 0,0.375 -0.375,0.703125 -1.28125,0.703125 -0.46875,0 -1.015625,-0.109375 -1.265625,-0.890625 -0.0625,-0.171875 -0.09375,-0.28125 -0.359375,-0.28125 -0.34375,0 -0.34375,0.203125 -0.34375,0.40625 v 0.96875 c 0,0.15625 0,0.40625 0.296875,0.40625 0.09375,0 0.25,-0.015625 0.375,-0.375 0.484375,0.359375 1.015625,0.375 1.296875,0.375 1.5625,0 1.890625,-0.828125 1.890625,-1.3125 0,-1.03125 -1.28125,-1.25 -1.609375,-1.296875 z m 0,0"
           id="id-51c8eebb-343f-4aaa-be69-786b3b1ff5de" />
      </g>
      <g
         transform="translate(153.942,134.765)"
         id="g5620">
        <path
           style="stroke:none;stroke-width:0"
           d="m 4.234375,-1.90625 c 0.203125,0 0.390625,0 0.390625,-0.359375 0,-1.140625 -0.640625,-2.125 -1.9375,-2.125 -1.1875,0 -2.140625,1 -2.140625,2.234375 0,1.203125 1.015625,2.21875 2.296875,2.21875 1.3125,0 1.78125,-0.90625 1.78125,-1.15625 0,-0.265625 -0.28125,-0.265625 -0.34375,-0.265625 -0.1875,0 -0.265625,0.03125 -0.328125,0.21875 -0.21875,0.5 -0.765625,0.59375 -1.046875,0.59375 -0.75,0 -1.484375,-0.5 -1.65625,-1.359375 z M 1.265625,-2.5 C 1.40625,-3.234375 2,-3.78125 2.6875,-3.78125 c 0.515625,0 1.140625,0.25 1.234375,1.28125 z m 0,0"
           id="id-de3792e2-3d0b-4842-935f-8c62928cf052" />
      </g>
      <g
         transform="translate(159.173,134.765)"
         id="g5623">
        <path
           style="stroke:none;stroke-width:0"
           d="m 2.21875,-3.6875 h 1.625 c 0.15625,0 0.40625,0 0.40625,-0.296875 0,-0.3125 -0.25,-0.3125 -0.40625,-0.3125 h -1.625 v -0.8125 c 0,-0.1875 0,-0.40625 -0.34375,-0.40625 -0.34375,0 -0.34375,0.203125 -0.34375,0.40625 v 0.8125 h -0.875 c -0.15625,0 -0.40625,0 -0.40625,0.3125 0,0.296875 0.25,0.296875 0.390625,0.296875 H 1.53125 V -1.25 c 0,0.953125 0.671875,1.3125 1.40625,1.3125 0.734375,0 1.53125,-0.4375 1.53125,-1.3125 0,-0.1875 0,-0.390625 -0.34375,-0.390625 -0.328125,0 -0.34375,0.203125 -0.34375,0.375 0,0.625 -0.578125,0.71875 -0.796875,0.71875 -0.765625,0 -0.765625,-0.515625 -0.765625,-0.765625 z m 0,0"
           id="id-986b6e07-dcd5-4103-8748-5abed590ef7e" />
      </g>
    </g>
    <g
       style="fill:#000000;fill-opacity:1"
       id="id-1c280d42-1171-4241-9c5e-0e41893033af"
       transform="matrix(0.59946556,0,0,0.59946556,-138.54264,-23.753913)">
      <g
         transform="translate(167.721,134.765)"
         id="g5627">
        <path
           style="stroke:none;stroke-width:0"
           d="M 2.21875,-1.859375 C 2.21875,-2.796875 2.796875,-3.75 4,-3.75 c 0.015625,0.234375 0.1875,0.4375 0.4375,0.4375 0.21875,0 0.421875,-0.15625 0.421875,-0.421875 0,-0.203125 -0.125,-0.625 -0.953125,-0.625 -0.5,0 -1.140625,0.1875 -1.6875,0.8125 v -0.34375 c 0,-0.3125 -0.0625,-0.40625 -0.40625,-0.40625 H 0.71875 c -0.15625,0 -0.40625,0 -0.40625,0.296875 0,0.3125 0.25,0.3125 0.40625,0.3125 h 0.8125 v 3.078125 h -0.8125 c -0.15625,0 -0.40625,0 -0.40625,0.296875 C 0.3125,0 0.5625,0 0.71875,0 H 3.3125 c 0.15625,0 0.421875,0 0.421875,-0.296875 0,-0.3125 -0.265625,-0.3125 -0.421875,-0.3125 H 2.21875 Z m 0,0"
           id="id-c7ae765d-6ca5-41c7-9007-0768e5994281" />
      </g>
      <g
         transform="translate(172.951,134.765)"
         id="g5630">
        <path
           style="stroke:none;stroke-width:0"
           d="m 4.234375,-1.90625 c 0.203125,0 0.390625,0 0.390625,-0.359375 0,-1.140625 -0.640625,-2.125 -1.9375,-2.125 -1.1875,0 -2.140625,1 -2.140625,2.234375 0,1.203125 1.015625,2.21875 2.296875,2.21875 1.3125,0 1.78125,-0.90625 1.78125,-1.15625 0,-0.265625 -0.28125,-0.265625 -0.34375,-0.265625 -0.1875,0 -0.265625,0.03125 -0.328125,0.21875 -0.21875,0.5 -0.765625,0.59375 -1.046875,0.59375 -0.75,0 -1.484375,-0.5 -1.65625,-1.359375 z M 1.265625,-2.5 C 1.40625,-3.234375 2,-3.78125 2.6875,-3.78125 c 0.515625,0 1.140625,0.25 1.234375,1.28125 z m 0,0"
           id="id-f3fe4934-c7be-42b1-9845-79e341b50310" />
      </g>
      <g
         transform="translate(178.181,134.765)"
         id="g5633">
        <path
           style="stroke:none;stroke-width:0"
           d="M 2.96875,-2.546875 C 2.734375,-2.578125 2.546875,-2.609375 2.296875,-2.65625 2,-2.703125 1.328125,-2.828125 1.328125,-3.203125 c 0,-0.265625 0.3125,-0.578125 1.265625,-0.578125 0.828125,0 0.96875,0.296875 1,0.5625 0,0.171875 0.03125,0.34375 0.328125,0.34375 0.359375,0 0.359375,-0.21875 0.359375,-0.421875 v -0.6875 c 0,-0.15625 0,-0.40625 -0.296875,-0.40625 -0.25,0 -0.28125,0.140625 -0.3125,0.21875 -0.4375,-0.21875 -0.875,-0.21875 -1.0625,-0.21875 -1.65625,0 -1.890625,0.828125 -1.890625,1.1875 0,0.90625 1.046875,1.078125 1.96875,1.21875 0.484375,0.078125 1.28125,0.203125 1.28125,0.734375 0,0.375 -0.375,0.703125 -1.28125,0.703125 -0.46875,0 -1.015625,-0.109375 -1.265625,-0.890625 -0.0625,-0.171875 -0.09375,-0.28125 -0.359375,-0.28125 -0.34375,0 -0.34375,0.203125 -0.34375,0.40625 v 0.96875 c 0,0.15625 0,0.40625 0.296875,0.40625 0.09375,0 0.25,-0.015625 0.375,-0.375 0.484375,0.359375 1.015625,0.375 1.296875,0.375 1.5625,0 1.890625,-0.828125 1.890625,-1.3125 0,-1.03125 -1.28125,-1.25 -1.609375,-1.296875 z m 0,0"
           id="id-734f6705-6d12-4556-a007-5503c265c32e" />
      </g>
      <g
         transform="translate(183.412,134.765)"
         id="g5636">
        <path
           style="stroke:none;stroke-width:0"
           d="m 4.234375,-1.90625 c 0.203125,0 0.390625,0 0.390625,-0.359375 0,-1.140625 -0.640625,-2.125 -1.9375,-2.125 -1.1875,0 -2.140625,1 -2.140625,2.234375 0,1.203125 1.015625,2.21875 2.296875,2.21875 1.3125,0 1.78125,-0.90625 1.78125,-1.15625 0,-0.265625 -0.28125,-0.265625 -0.34375,-0.265625 -0.1875,0 -0.265625,0.03125 -0.328125,0.21875 -0.21875,0.5 -0.765625,0.59375 -1.046875,0.59375 -0.75,0 -1.484375,-0.5 -1.65625,-1.359375 z M 1.265625,-2.5 C 1.40625,-3.234375 2,-3.78125 2.6875,-3.78125 c 0.515625,0 1.140625,0.25 1.234375,1.28125 z m 0,0"
           id="id-9a509123-ebb9-4ddf-ace5-bb8054371b40" />
      </g>
      <g
         transform="translate(188.642,134.765)"
         id="g5639">
        <path
           style="stroke:none;stroke-width:0"
           d="m 2.21875,-3.6875 h 1.625 c 0.15625,0 0.40625,0 0.40625,-0.296875 0,-0.3125 -0.25,-0.3125 -0.40625,-0.3125 h -1.625 v -0.8125 c 0,-0.1875 0,-0.40625 -0.34375,-0.40625 -0.34375,0 -0.34375,0.203125 -0.34375,0.40625 v 0.8125 h -0.875 c -0.15625,0 -0.40625,0 -0.40625,0.3125 0,0.296875 0.25,0.296875 0.390625,0.296875 H 1.53125 V -1.25 c 0,0.953125 0.671875,1.3125 1.40625,1.3125 0.734375,0 1.53125,-0.4375 1.53125,-1.3125 0,-0.1875 0,-0.390625 -0.34375,-0.390625 -0.328125,0 -0.34375,0.203125 -0.34375,0.375 0,0.625 -0.578125,0.71875 -0.796875,0.71875 -0.765625,0 -0.765625,-0.515625 -0.765625,-0.765625 z m 0,0"
           id="id-082e7e39-cbfc-4b49-abfc-a958b473cc69" />
      </g>
    </g>
    <g
       style="fill:#000000;fill-opacity:1"
       id="id-5c882626-79fc-4645-bc29-186f54177838"
       transform="matrix(0.59946556,0,0,0.59946556,-91.153592,-51.195187)">
      <g
         transform="translate(197.2,134.765)"
         id="g5643">
        <path
           style="stroke:none;stroke-width:0"
           d="m 4.21875,1.390625 c 0.140625,0 0.3125,0 0.3125,-0.1875 0,-0.0625 -0.1875,-0.421875 -0.296875,-0.640625 C 4.140625,0.421875 3.96875,0.09375 3.890625,-0.046875 4.34375,-0.21875 4.515625,-0.5625 4.609375,-1.375 c 0.0625,-0.53125 0.0625,-1.203125 0.0625,-1.671875 0,-2.875 -0.21875,-3.15625 -2.0625,-3.15625 -1.84375,0 -2.046875,0.265625 -2.046875,3.15625 0,2.890625 0.203125,3.15625 2.046875,3.15625 0.125,0 0.453125,0 0.5625,-0.015625 0.0625,0.140625 0.59375,1.125 0.609375,1.171875 0.078125,0.125 0.1875,0.125 0.34375,0.125 z M 2.84375,-0.5 H 2.53125 C 1.640625,-0.5 1.4375,-0.78125 1.328125,-1.3125 1.25,-1.828125 1.25,-2.5 1.25,-3.046875 c 0,-0.546875 0,-1.3125 0.09375,-1.796875 0.125,-0.546875 0.34375,-0.75 1.265625,-0.75 0.890625,0 1.171875,0.171875 1.28125,0.8125 0.09375,0.515625 0.09375,1.1875 0.09375,1.734375 0,2.078125 -0.203125,2.21875 -0.421875,2.375 l -0.484375,-0.875 C 2.984375,-1.6875 2.984375,-1.703125 2.78125,-1.703125 H 2.671875 c -0.140625,0 -0.3125,0 -0.3125,0.1875 0,0.046875 0,0.078125 0.03125,0.125 z m 0,0"
           id="id-857e3bcb-8ef1-40c1-b46f-e0af6ed62b51" />
      </g>
    </g>
    <g
       id="g6024"
       transform="translate(10.821659,-22.462084)">
      <path
         style="fill:none;stroke:#000000;stroke-width:0.238587;stroke-linecap:butt;stroke-linejoin:miter;stroke-miterlimit:10;stroke-opacity:1"
         d="m 16.240527,72.415352 h 3.135486"
         id="id-c586138d-3651-4d5d-a6a6-3ae29bb527a4" />
      <g
         style="fill:#000000;fill-opacity:1"
         id="id-852487be-2a92-4289-91c9-2300608ceae3"
         transform="matrix(0.59946556,0,0,0.59946556,-107.09717,-3.8853733)">
        <g
           transform="translate(205.748,134.765)"
           id="g5648">
          <path
             style="stroke:none;stroke-width:0"
             d="m 4.21875,1.390625 c 0.140625,0 0.3125,0 0.3125,-0.1875 0,-0.0625 -0.1875,-0.421875 -0.296875,-0.640625 C 4.140625,0.421875 3.96875,0.09375 3.890625,-0.046875 4.34375,-0.21875 4.515625,-0.5625 4.609375,-1.375 c 0.0625,-0.53125 0.0625,-1.203125 0.0625,-1.671875 0,-2.875 -0.21875,-3.15625 -2.0625,-3.15625 -1.84375,0 -2.046875,0.265625 -2.046875,3.15625 0,2.890625 0.203125,3.15625 2.046875,3.15625 0.125,0 0.453125,0 0.5625,-0.015625 0.0625,0.140625 0.59375,1.125 0.609375,1.171875 0.078125,0.125 0.1875,0.125 0.34375,0.125 z M 2.84375,-0.5 H 2.53125 C 1.640625,-0.5 1.4375,-0.78125 1.328125,-1.3125 1.25,-1.828125 1.25,-2.5 1.25,-3.046875 c 0,-0.546875 0,-1.3125 0.09375,-1.796875 0.125,-0.546875 0.34375,-0.75 1.265625,-0.75 0.890625,0 1.171875,0.171875 1.28125,0.8125 0.09375,0.515625 0.09375,1.1875 0.09375,1.734375 0,2.078125 -0.203125,2.21875 -0.421875,2.375 l -0.484375,-0.875 C 2.984375,-1.6875 2.984375,-1.703125 2.78125,-1.703125 H 2.671875 c -0.140625,0 -0.3125,0 -0.3125,0.1875 0,0.046875 0,0.078125 0.03125,0.125 z m 0,0"
             id="id-d9a279be-a6e3-413e-8799-cd75d2529b58" />
        </g>
      </g>
    </g>
    <circle
       cx="19.328648"
       cy="28.149315"
       r="1.42251"
       fill="none"
       stroke="#000000"
       stroke-width="0.569003"
       id="circle9496"
       style="fill:#ffffff" />
    <circle
       cx="19.328648"
       cy="52.553539"
       r="1.42251"
       fill="none"
       stroke="#000000"
       stroke-width="0.569003"
       id="circle9516"
       style="fill:#ffffff" />
  </g>
</svg>
