<?xml version="1.0" encoding="UTF-8" standalone="no"?>
<!-- Created with Inkscape (http://www.inkscape.org/) -->

<svg
   width="73.68763mm"
   height="44.570564mm"
   viewBox="0 0 73.68763 44.570564"
   version="1.1"
   id="svg5"
   inkscape:version="1.1 (c4e8f9e, 2021-05-24)"
   sodipodi:docname="matching1.svg"
   xmlns:inkscape="http://www.inkscape.org/namespaces/inkscape"
   xmlns:sodipodi="http://sodipodi.sourceforge.net/DTD/sodipodi-0.dtd"
   xmlns="http://www.w3.org/2000/svg"
   xmlns:svg="http://www.w3.org/2000/svg">
  <sodipodi:namedview
     id="namedview7"
     pagecolor="#ffffff"
     bordercolor="#666666"
     borderopacity="1.0"
     inkscape:pageshadow="2"
     inkscape:pageopacity="0.0"
     inkscape:pagecheckerboard="0"
     inkscape:document-units="mm"
     showgrid="false"
     inkscape:zoom="1.0560707"
     inkscape:cx="131.14652"
     inkscape:cy="175.65111"
     inkscape:window-width="848"
     inkscape:window-height="847"
     inkscape:window-x="0"
     inkscape:window-y="25"
     inkscape:window-maximized="0"
     inkscape:current-layer="layer1">
    <inkscape:grid
       type="xygrid"
       id="grid824"
       originx="-67.034488"
       originy="-99.845579" />
  </sodipodi:namedview>
  <defs
     id="defs2">
    <marker
       style="overflow:visible"
       id="DotL"
       refX="0"
       refY="0"
       orient="auto"
       inkscape:stockid="DotL"
       inkscape:isstock="true">
      <path
         transform="matrix(0.8,0,0,0.8,5.92,0.8)"
         style="fill:context-stroke;fill-rule:evenodd;stroke:context-stroke;stroke-width:1pt"
         d="m -2.5,-1 c 0,2.76 -2.24,5 -5,5 -2.76,0 -5,-2.24 -5,-5 0,-2.76 2.24,-5 5,-5 2.76,0 5,2.24 5,5 z"
         id="path1178" />
    </marker>
    <defs
       id="id-5c4f566d-648e-4f96-b0a9-4ecb2c539d81">
      <g
         id="id-af28f325-27d6-45d4-bf30-b17c5a5be37e">
        <symbol
           overflow="visible"
           id="id-a51e85b8-e8ae-4224-8827-565729470add">
          <path
             style="stroke:none;stroke-width:0"
             d=""
             id="id-4042aaf5-c588-4a61-98e3-a2880fb390d3" />
        </symbol>
        <symbol
           overflow="visible"
           id="id-220540fc-4413-458b-b447-aff0338b0c3c">
          <path
             style="stroke:none;stroke-width:0"
             d="m 0.875,-0.59375 c -0.03125,0.15625 -0.09375,0.390625 -0.09375,0.4375 0,0.171875 0.140625,0.265625 0.296875,0.265625 0.125,0 0.296875,-0.078125 0.375,-0.28125 0,-0.015625 0.125,-0.484375 0.1875,-0.734375 l 0.21875,-0.890625 C 1.90625,-2.03125 1.96875,-2.25 2.03125,-2.46875 c 0.03125,-0.171875 0.109375,-0.46875 0.125,-0.5 0.140625,-0.3125 0.671875,-1.21875 1.625,-1.21875 0.453125,0 0.53125,0.375 0.53125,0.703125 0,0.609375 -0.484375,1.890625 -0.640625,2.3125 C 3.578125,-0.9375 3.5625,-0.8125 3.5625,-0.703125 c 0,0.46875 0.359375,0.8125 0.828125,0.8125 0.9375,0 1.296875,-1.453125 1.296875,-1.53125 0,-0.109375 -0.078125,-0.109375 -0.109375,-0.109375 -0.109375,0 -0.109375,0.03125 -0.15625,0.1875 -0.203125,0.671875 -0.53125,1.234375 -1.015625,1.234375 -0.171875,0 -0.234375,-0.09375 -0.234375,-0.328125 0,-0.25 0.078125,-0.484375 0.171875,-0.703125 0.1875,-0.53125 0.609375,-1.625 0.609375,-2.203125 0,-0.65625 -0.421875,-1.0625 -1.140625,-1.0625 -0.90625,0 -1.390625,0.640625 -1.5625,0.875 -0.046875,-0.5625 -0.453125,-0.875 -0.921875,-0.875 -0.453125,0 -0.640625,0.390625 -0.734375,0.5625 C 0.421875,-3.5 0.296875,-2.90625 0.296875,-2.875 c 0,0.109375 0.09375,0.109375 0.109375,0.109375 0.109375,0 0.109375,-0.015625 0.171875,-0.234375 0.171875,-0.703125 0.375,-1.1875 0.734375,-1.1875 0.1875,0 0.296875,0.125 0.296875,0.453125 0,0.21875 -0.03125,0.328125 -0.15625,0.84375 z m 0,0"
             id="id-6ed98b52-9a84-466e-8c98-82eb99a6459f" />
        </symbol>
        <symbol
           overflow="visible"
           id="id-a17d2568-7d7a-48b9-9876-13a5491f1097">
          <path
             style="stroke:none;stroke-width:0"
             d=""
             id="id-f0ededda-e693-4bd0-b45b-7e17d037a751" />
        </symbol>
        <symbol
           overflow="visible"
           id="id-98b17200-27e4-4801-8c70-6b4b99920cca">
          <path
             style="stroke:none;stroke-width:0"
             d="m 2.328125,-4.4375 c 0,-0.1875 0,-0.1875 -0.203125,-0.1875 -0.453125,0.4375 -1.078125,0.4375 -1.359375,0.4375 v 0.25 c 0.15625,0 0.625,0 1,-0.1875 v 3.546875 c 0,0.234375 0,0.328125 -0.6875,0.328125 H 0.8125 V 0 c 0.125,0 0.984375,-0.03125 1.234375,-0.03125 0.21875,0 1.09375,0.03125 1.25,0.03125 V -0.25 H 3.03125 c -0.703125,0 -0.703125,-0.09375 -0.703125,-0.328125 z m 0,0"
             id="id-52e9f5b2-1177-4f6f-9caa-6061e3f0dd83" />
        </symbol>
        <symbol
           overflow="visible"
           id="id-b18e6eae-dbdd-45cd-8925-7bed948b1115">
          <path
             style="stroke:none;stroke-width:0"
             d="M 3.515625,-1.265625 H 3.28125 c -0.015625,0.15625 -0.09375,0.5625 -0.1875,0.625 C 3.046875,-0.59375 2.515625,-0.59375 2.40625,-0.59375 H 1.125 c 0.734375,-0.640625 0.984375,-0.84375 1.390625,-1.171875 0.515625,-0.40625 1,-0.84375 1,-1.5 0,-0.84375 -0.734375,-1.359375 -1.625,-1.359375 -0.859375,0 -1.453125,0.609375 -1.453125,1.25 0,0.34375 0.296875,0.390625 0.375,0.390625 0.15625,0 0.359375,-0.125 0.359375,-0.375 0,-0.125 -0.046875,-0.375 -0.40625,-0.375 C 0.984375,-4.21875 1.453125,-4.375 1.78125,-4.375 c 0.703125,0 1.0625,0.546875 1.0625,1.109375 0,0.609375 -0.4375,1.078125 -0.65625,1.328125 L 0.515625,-0.265625 C 0.4375,-0.203125 0.4375,-0.1875 0.4375,0 h 2.875 z m 0,0"
             id="id-adc28468-71a4-4204-b29e-991784394ad4" />
        </symbol>
        <symbol
           overflow="visible"
           id="id-b2a5c826-46dd-4c0f-9890-4bc92f6f4061">
          <path
             style="stroke:none;stroke-width:0"
             d="m 1.90625,-2.328125 c 0.546875,0 0.9375,0.375 0.9375,1.125 0,0.859375 -0.515625,1.125 -0.90625,1.125 -0.28125,0 -0.90625,-0.078125 -1.1875,-0.5 0.328125,0 0.40625,-0.234375 0.40625,-0.390625 0,-0.21875 -0.171875,-0.375 -0.390625,-0.375 -0.1875,0 -0.390625,0.125 -0.390625,0.40625 0,0.65625 0.71875,1.078125 1.5625,1.078125 0.96875,0 1.640625,-0.65625 1.640625,-1.34375 0,-0.546875 -0.4375,-1.09375 -1.203125,-1.25 0.71875,-0.265625 0.984375,-0.78125 0.984375,-1.21875 0,-0.546875 -0.625,-0.953125 -1.40625,-0.953125 -0.765625,0 -1.359375,0.375 -1.359375,0.9375 0,0.234375 0.15625,0.359375 0.359375,0.359375 0.21875,0 0.359375,-0.15625 0.359375,-0.34375 0,-0.203125 -0.140625,-0.359375 -0.359375,-0.375 0.25,-0.296875 0.71875,-0.375 0.984375,-0.375 0.3125,0 0.75,0.15625 0.75,0.75 0,0.296875 -0.09375,0.625 -0.28125,0.828125 -0.21875,0.265625 -0.421875,0.28125 -0.765625,0.3125 -0.171875,0.015625 -0.1875,0.015625 -0.21875,0.015625 -0.015625,0 -0.078125,0.015625 -0.078125,0.09375 0,0.09375 0.0625,0.09375 0.1875,0.09375 z m 0,0"
             id="id-f66fdb8e-52eb-48e2-be92-73aadccc82fc" />
        </symbol>
        <symbol
           overflow="visible"
           id="id-cb8458e7-f80b-4e94-a4b9-7932a1a6c6d5">
          <path
             style="stroke:none;stroke-width:0"
             d="m 3.6875,-1.140625 v -0.25 H 2.90625 V -4.5 c 0,-0.140625 0,-0.203125 -0.140625,-0.203125 -0.09375,0 -0.125,0 -0.1875,0.109375 l -2.3125,3.203125 v 0.25 h 2.0625 v 0.5625 c 0,0.25 0,0.328125 -0.578125,0.328125 H 1.5625 V 0 C 1.921875,-0.015625 2.359375,-0.03125 2.609375,-0.03125 2.875,-0.03125 3.3125,-0.015625 3.671875,0 v -0.25 h -0.1875 C 2.90625,-0.25 2.90625,-0.328125 2.90625,-0.578125 v -0.5625 z M 2.375,-3.9375 v 2.546875 H 0.53125 Z m 0,0"
             id="id-f7341df0-41a5-4018-b78e-8ff4c5bd38b9" />
        </symbol>
        <symbol
           overflow="visible"
           id="id-d5756e2d-7071-42b9-acae-0c2c9af54735">
          <path
             style="stroke:none;stroke-width:0"
             d="m 1.078125,-3.890625 c 0.359375,0.09375 0.5625,0.09375 0.671875,0.09375 0.921875,0 1.46875,-0.625 1.46875,-0.734375 0,-0.078125 -0.046875,-0.09375 -0.078125,-0.09375 -0.015625,0 -0.03125,0 -0.0625,0.015625 -0.171875,0.0625 -0.53125,0.203125 -1.046875,0.203125 -0.203125,0 -0.5625,-0.015625 -1.015625,-0.1875 C 0.9375,-4.625 0.921875,-4.625 0.921875,-4.625 c -0.09375,0 -0.09375,0.078125 -0.09375,0.1875 v 2.046875 c 0,0.125 0,0.203125 0.109375,0.203125 0.0625,0 0.078125,0 0.140625,-0.09375 0.296875,-0.375 0.734375,-0.4375 0.96875,-0.4375 0.421875,0 0.609375,0.328125 0.640625,0.390625 0.125,0.234375 0.171875,0.5 0.171875,0.90625 0,0.203125 0,0.609375 -0.21875,0.921875 -0.171875,0.25 -0.46875,0.421875 -0.8125,0.421875 -0.453125,0 -0.921875,-0.25 -1.09375,-0.71875 0.265625,0.015625 0.40625,-0.15625 0.40625,-0.34375 0,-0.296875 -0.265625,-0.34375 -0.359375,-0.34375 0,0 -0.34375,0 -0.34375,0.375 0,0.625 0.578125,1.25 1.40625,1.25 0.890625,0 1.671875,-0.65625 1.671875,-1.546875 0,-0.78125 -0.59375,-1.5 -1.453125,-1.5 -0.3125,0 -0.671875,0.0625 -0.984375,0.328125 z m 0,0"
             id="id-661cc963-bc83-4aec-93db-9656f2d90301" />
        </symbol>
        <symbol
           overflow="visible"
           id="id-ab2bd5d7-a3b0-4129-b28c-d678dbd3f53b">
          <path
             style="stroke:none;stroke-width:0"
             d="m 1.046875,-2.28125 c 0,-0.5625 0.046875,-1.078125 0.3125,-1.515625 0.234375,-0.375 0.609375,-0.625 1.0625,-0.625 0.203125,0 0.484375,0.046875 0.625,0.234375 C 2.875,-4.171875 2.71875,-4.046875 2.71875,-3.84375 c 0,0.171875 0.125,0.328125 0.328125,0.328125 0.21875,0 0.34375,-0.140625 0.34375,-0.34375 0,-0.40625 -0.296875,-0.765625 -0.984375,-0.765625 -1,0 -2.03125,0.921875 -2.03125,2.421875 0,1.796875 0.84375,2.34375 1.625,2.34375 0.84375,0 1.578125,-0.65625 1.578125,-1.5625 0,-0.890625 -0.703125,-1.546875 -1.515625,-1.546875 -0.5625,0 -0.859375,0.375 -1.015625,0.6875 z M 2,-0.078125 c -0.359375,0 -0.625,-0.203125 -0.78125,-0.515625 C 1.125,-0.796875 1.0625,-1.15625 1.0625,-1.5625 c 0,-0.6875 0.40625,-1.203125 0.96875,-1.203125 0.3125,0 0.53125,0.125 0.703125,0.375 0.171875,0.265625 0.171875,0.5625 0.171875,0.96875 0,0.390625 0,0.6875 -0.1875,0.96875 -0.15625,0.234375 -0.390625,0.375 -0.71875,0.375 z m 0,0"
             id="id-49b2647f-0c2a-49f8-af2e-a5d6b8f93e6b" />
        </symbol>
        <symbol
           overflow="visible"
           id="id-d722d6c0-615d-4dac-a68a-a2b24096f57c">
          <path
             style="stroke:none;stroke-width:0"
             d="m 3.734375,-4.203125 c 0.0625,-0.09375 0.0625,-0.109375 0.0625,-0.28125 H 1.96875 C 1.6875,-4.484375 1.609375,-4.5 1.359375,-4.515625 1,-4.546875 0.984375,-4.59375 0.96875,-4.703125 H 0.734375 l -0.25,1.484375 H 0.71875 c 0.015625,-0.109375 0.09375,-0.5625 0.203125,-0.640625 0.046875,-0.03125 0.625,-0.03125 0.71875,-0.03125 H 3.15625 c -0.21875,0.28125 -0.578125,0.71875 -0.71875,0.921875 -0.90625,1.1875 -1,2.296875 -1,2.703125 0,0.078125 0,0.40625 0.328125,0.40625 0.34375,0 0.34375,-0.3125 0.34375,-0.40625 v -0.28125 c 0,-1.34375 0.28125,-1.96875 0.578125,-2.34375 z m 0,0"
             id="id-70c446fa-3210-4ea6-8e2e-8630d0570aab" />
        </symbol>
        <symbol
           overflow="visible"
           id="id-95939f7b-6f83-4d9d-9104-66370316c9fd">
          <path
             style="stroke:none;stroke-width:0"
             d="m 2.46875,-2.515625 c 0.546875,-0.265625 0.890625,-0.59375 0.890625,-1.078125 0,-0.671875 -0.703125,-1.03125 -1.375,-1.03125 -0.765625,0 -1.390625,0.5 -1.390625,1.15625 0,0.328125 0.15625,0.5625 0.28125,0.703125 0.125,0.15625 0.171875,0.1875 0.578125,0.421875 C 1.0625,-2.171875 0.375,-1.796875 0.375,-1.0625 c 0,0.765625 0.796875,1.203125 1.59375,1.203125 0.890625,0 1.609375,-0.5625 1.609375,-1.3125 0,-0.46875 -0.265625,-0.859375 -0.671875,-1.09375 -0.09375,-0.0625 -0.328125,-0.1875 -0.4375,-0.25 z m -1.125,-0.65625 c -0.1875,-0.109375 -0.375,-0.296875 -0.375,-0.5625 0,-0.4375 0.5,-0.6875 1,-0.6875 0.546875,0 1.03125,0.34375 1.03125,0.828125 0,0.625 -0.734375,0.9375 -0.734375,0.9375 -0.015625,0 -0.03125,0 -0.078125,-0.03125 z m 0.328125,0.96875 0.96875,0.546875 c 0.171875,0.109375 0.515625,0.3125 0.515625,0.71875 0,0.53125 -0.578125,0.859375 -1.171875,0.859375 -0.640625,0 -1.1875,-0.421875 -1.1875,-0.984375 0,-0.515625 0.375,-0.921875 0.875,-1.140625 z m 0,0"
             id="id-8275ef58-9ce2-47a3-b2eb-b7e8eb39ff67" />
        </symbol>
        <symbol
           overflow="visible"
           id="id-19512958-431e-4ce5-8a77-23cb09788620">
          <path
             style="stroke:none;stroke-width:0"
             d="m 2.90625,-2.078125 c 0,1.734375 -0.84375,2 -1.265625,2 -0.15625,0 -0.53125,-0.015625 -0.71875,-0.234375 0.296875,-0.03125 0.3125,-0.265625 0.3125,-0.328125 0,-0.171875 -0.125,-0.328125 -0.328125,-0.328125 -0.203125,0 -0.328125,0.140625 -0.328125,0.34375 0,0.46875 0.390625,0.765625 1.0625,0.765625 1,0 1.9375,-0.9375 1.9375,-2.4375 C 3.578125,-4.015625 2.8125,-4.625 2,-4.625 c -0.234375,0 -0.703125,0.03125 -1.109375,0.421875 -0.234375,0.234375 -0.515625,0.5 -0.515625,1.125 0,0.890625 0.703125,1.546875 1.515625,1.546875 0.5625,0 0.859375,-0.375 1.015625,-0.6875 z m -0.96875,0.34375 c -0.28125,0 -0.53125,-0.078125 -0.734375,-0.40625 -0.15625,-0.25 -0.15625,-0.546875 -0.15625,-0.9375 0,-0.40625 0,-0.671875 0.203125,-0.953125 0.171875,-0.25 0.390625,-0.390625 0.75,-0.390625 0.359375,0 0.578125,0.21875 0.6875,0.40625 0.1875,0.28125 0.203125,0.78125 0.203125,1.015625 0,0.90625 -0.515625,1.265625 -0.953125,1.265625 z m 0,0"
             id="id-8790585c-bc0e-43bc-aed6-cfc62bc2c562" />
        </symbol>
        <symbol
           overflow="visible"
           id="id-b6982000-3901-4c42-9a32-eee62c5d9fda">
          <path
             style="stroke:none;stroke-width:0"
             d="M 3.59375,-2.21875 C 3.59375,-2.984375 3.5,-3.546875 3.1875,-4.03125 2.96875,-4.34375 2.53125,-4.625 1.984375,-4.625 c -1.625,0 -1.625,1.90625 -1.625,2.40625 0,0.5 0,2.359375 1.625,2.359375 1.609375,0 1.609375,-1.859375 1.609375,-2.359375 z M 1.984375,-0.0625 c -0.328125,0 -0.75,-0.1875 -0.890625,-0.75 C 1,-1.21875 1,-1.796875 1,-2.3125 1,-2.828125 1,-3.359375 1.09375,-3.734375 1.25,-4.28125 1.6875,-4.4375 1.984375,-4.4375 c 0.375,0 0.734375,0.234375 0.859375,0.640625 0.109375,0.375 0.125,0.875 0.125,1.484375 0,0.515625 0,1.03125 -0.09375,1.46875 -0.140625,0.640625 -0.609375,0.78125 -0.890625,0.78125 z m 0,0"
             id="id-63ee9a02-a055-4f8e-828c-342652b311c4" />
        </symbol>
      </g>
    </defs>
  </defs>
  <g
     inkscape:label="Layer 1"
     inkscape:groupmode="layer"
     id="layer1"
     transform="translate(-67.034487,-99.845578)">
    <g
       id="g1365">
      <g
         id="path859">
        <path
           style="color:#000000;fill:#2d2d2d;-inkscape-stroke:none"
           d="m 84.34375,105.60156 10.90625,32.7168 0.220703,-0.66211 10.685547,-32.05469 z m 0.644531,0.46485 H 105.51172 L 95.25,136.84766 Z"
           id="path1537" />
        <g
           id="g1495">
          <g
             id="path1527">
            <path
               style="color:#000000;fill:#ff9900;fill-rule:evenodd;stroke-width:0.372pt;-inkscape-stroke:none"
               d="m 94.67358,139.31259 c -0.974032,-0.32468 -1.501045,-1.3787 -1.176367,-2.35273 0.324677,-0.97404 1.378702,-1.50105 2.352734,-1.17637 0.974032,0.32468 1.501045,1.3787 1.176368,2.35273 -0.324678,0.97403 -1.378703,1.50105 -2.352735,1.17637 z"
               id="path1531" />
          </g>
          <g
             id="path1517">
            <path
               style="color:#000000;fill:#ff9900;fill-rule:evenodd;stroke-width:0.372pt;-inkscape-stroke:none"
               d="m 106.89914,107.31206 c -0.83292,0.60034 -1.99614,0.41157 -2.59647,-0.42135 -0.60034,-0.83292 -0.41157,-1.99613 0.42135,-2.59647 0.83292,-0.60033 1.99614,-0.41157 2.59647,0.42135 0.60033,0.83292 0.41157,1.99614 -0.42135,2.59647 z"
               id="path1521" />
          </g>
          <g
             id="path1507">
            <path
               style="color:#000000;fill:#ff9900;fill-rule:evenodd;stroke-width:0.372pt;-inkscape-stroke:none"
               d="m 85.732476,104.3546 c 0.832918,0.60033 1.021683,1.76355 0.421349,2.59647 -0.600333,0.83292 -1.763553,1.02168 -2.596471,0.42135 -0.832919,-0.60034 -1.021683,-1.76355 -0.42135,-2.59647 0.600334,-0.83292 1.763553,-1.02169 2.596472,-0.42135 z"
               id="path1511" />
          </g>
          <g
             id="path1497">
            <path
               style="color:#000000;fill:#ff9900;fill-rule:evenodd;stroke-width:0.372pt;-inkscape-stroke:none"
               d="m 94.67358,135.85407 c 0.974032,-0.32468 2.028057,0.20234 2.352735,1.17637 0.324677,0.97403 -0.202336,2.02805 -1.176368,2.35273 -0.974032,0.32468 -2.028057,-0.20233 -2.352734,-1.17637 -0.324678,-0.97403 0.202335,-2.02805 1.176367,-2.35273 z"
               id="path1501" />
            <path
               style="color:#000000;fill:#2d2d2d;fill-rule:evenodd;-inkscape-stroke:none"
               d="m 94.595703,135.61914 c -1.101327,0.36711 -1.701095,1.56469 -1.333984,2.66602 0.367108,1.10133 1.564687,1.70109 2.666015,1.33398 1.101328,-0.36711 1.701094,-1.56664 1.333985,-2.66797 -0.367111,-1.10132 -1.564686,-1.69914 -2.666016,-1.33203 z m 0.15625,0.4707 c 0.846732,-0.28224 1.756818,0.1728 2.039063,1.01953 0.282244,0.84674 -0.172797,1.75682 -1.019532,2.03907 -0.846733,0.28224 -1.756817,-0.17279 -2.039062,-1.01953 -0.282245,-0.84674 0.172796,-1.75682 1.019531,-2.03907 z"
               id="path1503" />
          </g>
        </g>
      </g>
      <g
         id="path1031">
        <path
           style="color:#000000;fill:#2d2d2d;-inkscape-stroke:none"
           d="m 106.05469,105.75977 -0.44141,0.14648 10.58203,31.75 0.44141,-0.14648 z"
           id="path1565" />
        <g
           id="g1543">
          <g
             id="path1555">
            <path
               style="color:#000000;fill:#ff9900;fill-rule:evenodd;stroke-width:0.372pt;-inkscape-stroke:none"
               d="m 116.99309,139.31259 c -0.97403,0.32468 -2.02806,-0.20233 -2.35273,-1.17637 -0.32468,-0.97403 0.20233,-2.02805 1.17636,-2.35273 0.97403,-0.32468 2.02806,0.20233 2.35274,1.17637 0.32467,0.97403 -0.20234,2.02805 -1.17637,2.35273 z"
               id="path1559" />
          </g>
          <g
             id="path1545">
            <path
               style="color:#000000;fill:#ff9900;fill-rule:evenodd;stroke-width:0.372pt;-inkscape-stroke:none"
               d="m 106.40975,107.56259 c -0.97403,0.32468 -2.02806,-0.20233 -2.35273,-1.17637 -0.32468,-0.97403 0.20233,-2.02805 1.17636,-2.35273 0.97403,-0.32468 2.02806,0.20233 2.35274,1.17637 0.32467,0.97403 -0.20234,2.02805 -1.17637,2.35273 z"
               id="path1549" />
            <path
               style="color:#000000;fill:#2d2d2d;fill-rule:evenodd;-inkscape-stroke:none"
               d="m 105.1543,103.79883 c -1.10133,0.36711 -1.69915,1.56469 -1.33203,2.66601 0.3671,1.10134 1.56468,1.7011 2.66601,1.33399 1.10133,-0.36711 1.70109,-1.56664 1.33399,-2.66797 -0.36712,-1.10134 -1.56665,-1.69914 -2.66797,-1.33203 z m 0.1582,0.4707 c 0.84673,-0.28225 1.75682,0.17279 2.03906,1.01953 0.28224,0.84673 -0.1728,1.75682 -1.01953,2.03907 -0.84673,0.28224 -1.75682,-0.1728 -2.03906,-1.01954 -0.28225,-0.84673 0.1728,-1.75681 1.01953,-2.03906 z"
               id="path1551" />
          </g>
        </g>
      </g>
      <path
         style="color:#000000;fill:#2d2d2d;-inkscape-stroke:none"
         d="m 126.7793,105.75977 -10.58399,31.75 0.40235,0.21875 21.16796,-26.45899 -0.36328,-0.28906 -20.35351,25.43945 10.17187,-30.51367 z"
         id="path1603" />
      <path
         style="color:#000000;fill:#ff9900;fill-rule:evenodd;stroke-width:0.372pt;-inkscape-stroke:none"
         d="m 138.72202,109.70163 c 0.80174,0.64139 0.93187,1.81262 0.29049,2.61435 -0.64139,0.80173 -1.81262,0.93187 -2.61435,0.29048 -0.80174,-0.64138 -0.93187,-1.81261 -0.29048,-2.61434 0.64138,-0.80174 1.81261,-0.93187 2.61434,-0.29049 z"
         id="path1597" />
      <path
         style="color:#000000;fill:#2d2d2d;fill-rule:evenodd;-inkscape-stroke:none"
         d="m 137.32812,109.06055 c -0.53676,0.0596 -1.05146,0.32408 -1.41406,0.77734 -0.72521,0.90651 -0.57644,2.23769 0.33008,2.96289 0.90651,0.72522 2.23768,0.57643 2.96289,-0.33008 0.7252,-0.90651 0.57644,-2.23767 -0.33008,-2.96289 -0.45325,-0.3626 -1.01206,-0.5069 -1.54883,-0.44726 z m 0.0547,0.49023 c 0.40963,-0.0455 0.83512,0.065 1.1836,0.34375 0.69696,0.55757 0.80951,1.56868 0.25195,2.26563 -0.55757,0.69695 -1.56868,0.80951 -2.26563,0.25195 -0.69695,-0.55756 -0.80951,-1.56868 -0.25195,-2.26563 0.27878,-0.34847 0.67241,-0.55018 1.08203,-0.5957 z"
         id="path1599" />
      <path
         style="color:#000000;fill:#ff9900;fill-rule:evenodd;stroke-width:0.372pt;-inkscape-stroke:none"
         d="m 118.01786,138.45442 c -0.49066,0.90189 -1.62084,1.23565 -2.52273,0.745 -0.9019,-0.49066 -1.23566,-1.62084 -0.745,-2.52273 0.49065,-0.9019 1.62084,-1.23566 2.52273,-0.745 0.90189,0.49065 1.23565,1.62084 0.745,2.52273 z"
         id="path1587" />
      <path
         style="color:#000000;fill:#2d2d2d;fill-rule:evenodd;-inkscape-stroke:none"
         d="m 115.78711,135.54492 c -0.51796,0.15296 -0.97652,0.50379 -1.25391,1.01367 -0.55478,1.01976 -0.17601,2.3046 0.84375,2.85938 1.01976,0.55477 2.30459,0.17405 2.85938,-0.8457 0.55477,-1.01976 0.17406,-2.3046 -0.8457,-2.85938 -0.50988,-0.27739 -1.08556,-0.32093 -1.60352,-0.16797 z m 0.14062,0.47266 c 0.39528,-0.11673 0.83456,-0.0805 1.22657,0.13281 0.78401,0.42653 1.07301,1.40153 0.64648,2.18555 -0.42653,0.78402 -1.40348,1.07301 -2.1875,0.64648 -0.78403,-0.42653 -1.07106,-1.40348 -0.64453,-2.1875 0.21326,-0.39201 0.56371,-0.66061 0.95898,-0.77734 z"
         id="path1589" />
      <path
         style="color:#000000;fill:#ff9900;fill-rule:evenodd;stroke-width:0.372pt;-inkscape-stroke:none"
         d="m 126.42358,107.56259 c -0.97403,-0.32468 -1.50104,-1.3787 -1.17637,-2.35273 0.32468,-0.97404 1.3787,-1.50105 2.35274,-1.17637 0.97403,0.32468 1.50104,1.3787 1.17636,2.35273 -0.32467,0.97403 -1.3787,1.50105 -2.35273,1.17637 z"
         id="path1577" />
      <path
         style="color:#000000;fill:#2d2d2d;fill-rule:evenodd;-inkscape-stroke:none"
         d="m 127.67773,103.79883 c -1.10133,-0.36711 -2.2989,0.23069 -2.66601,1.33203 -0.3671,1.10133 0.23266,2.30086 1.33398,2.66797 1.10133,0.36711 2.29892,-0.23266 2.66602,-1.33399 0.36711,-1.10132 -0.23266,-2.2989 -1.33399,-2.66601 z m -0.15625,0.4707 c 0.84674,0.28225 1.30178,1.19233 1.01954,2.03906 -0.28224,0.84673 -1.19234,1.30178 -2.03907,1.01954 -0.84673,-0.28225 -1.30177,-1.19234 -1.01953,-2.03907 0.28225,-0.84674 1.19232,-1.30178 2.03906,-1.01953 z"
         id="path1579" />
      <g
         id="path1035">
        <path
           style="color:#000000;fill:#2d2d2d;-inkscape-stroke:none"
           d="m 84.445312,105.75977 -10.582031,31.75 0.441406,0.14648 10.128907,-30.39062 v 30.31835 h 0.464843 v -31.75 z"
           id="path1641" />
        <g
           id="g1609">
          <g
             id="path1631">
            <path
               style="color:#000000;fill:#ff9900;fill-rule:evenodd;stroke-width:0.372pt;-inkscape-stroke:none"
               d="m 84.666667,139.40613 c -1.02672,0 -1.86,-0.83328 -1.86,-1.86 0,-1.02672 0.83328,-1.86 1.86,-1.86 1.02672,0 1.86,0.83328 1.86,1.86 0,1.02672 -0.83328,1.86 -1.86,1.86 z"
               id="path1635" />
            <path
               style="color:#000000;fill:#2d2d2d;fill-rule:evenodd;-inkscape-stroke:none"
               d="m 84.666016,135.4375 c -1.160903,0 -2.107422,0.94847 -2.107422,2.10937 0,1.16091 0.946519,2.10743 2.107422,2.10743 1.160902,0 2.109375,-0.94652 2.109375,-2.10743 0,-1.1609 -0.948473,-2.10937 -2.109375,-2.10937 z m 0,0.49609 c 0.892535,0 1.613281,0.72075 1.613281,1.61328 0,0.89254 -0.720746,1.61133 -1.613281,1.61133 -0.892536,0 -1.611329,-0.71879 -1.611329,-1.61133 0,-0.89253 0.718793,-1.61328 1.611329,-1.61328 z"
               id="path1637" />
          </g>
          <g
             id="path1621">
            <path
               style="color:#000000;fill:#ff9900;fill-rule:evenodd;stroke-width:0.372pt;-inkscape-stroke:none"
               d="m 86.465929,106.12531 c -0.164462,1.01346 -1.120459,1.70251 -2.133922,1.53804 -1.013462,-0.16446 -1.702506,-1.12046 -1.538043,-2.13392 0.164462,-1.01346 1.120459,-1.7025 2.133921,-1.53804 1.013463,0.16446 1.702506,1.12046 1.538044,2.13392 z"
               id="path1625" />
            <path
               style="color:#000000;fill:#2d2d2d;fill-rule:evenodd;-inkscape-stroke:none"
               d="m 84.966797,103.74609 c -1.145911,-0.18595 -2.232013,0.59823 -2.417969,1.74414 -0.185957,1.14591 0.598228,2.23202 1.744141,2.41797 1.145914,0.18597 2.232013,-0.59823 2.417968,-1.74414 0.185956,-1.14591 -0.598227,-2.23201 -1.74414,-2.41797 z m -0.07813,0.49024 c 0.88101,0.14296 1.474999,0.9686 1.332031,1.84961 -0.142968,0.88101 -0.9686,1.475 -1.849609,1.33203 -0.88101,-0.14297 -1.475,-0.9686 -1.332032,-1.84961 0.142968,-0.88101 0.968599,-1.475 1.84961,-1.33203 z"
               id="path1627" />
          </g>
          <g
             id="path1611">
            <path
               style="color:#000000;fill:#ff9900;fill-rule:evenodd;stroke-width:0.372pt;-inkscape-stroke:none"
               d="m 74.659752,135.85407 c 0.974032,0.32468 1.501045,1.3787 1.176367,2.35273 -0.324677,0.97404 -1.378702,1.50105 -2.352734,1.17637 -0.974032,-0.32468 -1.501045,-1.3787 -1.176368,-2.35273 0.324678,-0.97403 1.378703,-1.50105 2.352735,-1.17637 z"
               id="path1615" />
            <path
               style="color:#000000;fill:#2d2d2d;fill-rule:evenodd;-inkscape-stroke:none"
               d="m 74.738281,135.61914 c -1.10133,-0.36711 -2.298905,0.23071 -2.666015,1.33203 -0.36711,1.10133 0.230704,2.30086 1.332031,2.66797 1.101328,0.36711 2.30086,-0.23265 2.667969,-1.33398 0.36711,-1.10133 -0.232657,-2.29891 -1.333985,-2.66602 z m -0.15625,0.4707 c 0.846735,0.28225 1.301776,1.19233 1.019531,2.03907 -0.282244,0.84674 -1.192328,1.30177 -2.039062,1.01953 -0.846735,-0.28225 -1.301775,-1.19233 -1.019531,-2.03907 0.282245,-0.84673 1.19233,-1.30177 2.039062,-1.01953 z"
               id="path1617" />
          </g>
        </g>
      </g>
      <g
         id="g4018"
         transform="translate(4.167109,-53.675124)">
        <g
           style="fill:#000000;fill-opacity:1"
           id="id-45a23791-0800-4d38-b8dc-dcaa54bd757f"
           transform="matrix(0.375579,0,0,0.375579,22.478484,104.92815)">
          <g
             transform="translate(148.712,134.765)"
             id="g3562">
            <path
               style="stroke:none;stroke-width:0"
               d="m 0.875,-0.59375 c -0.03125,0.15625 -0.09375,0.390625 -0.09375,0.4375 0,0.171875 0.140625,0.265625 0.296875,0.265625 0.125,0 0.296875,-0.078125 0.375,-0.28125 0,-0.015625 0.125,-0.484375 0.1875,-0.734375 l 0.21875,-0.890625 C 1.90625,-2.03125 1.96875,-2.25 2.03125,-2.46875 c 0.03125,-0.171875 0.109375,-0.46875 0.125,-0.5 0.140625,-0.3125 0.671875,-1.21875 1.625,-1.21875 0.453125,0 0.53125,0.375 0.53125,0.703125 0,0.609375 -0.484375,1.890625 -0.640625,2.3125 C 3.578125,-0.9375 3.5625,-0.8125 3.5625,-0.703125 c 0,0.46875 0.359375,0.8125 0.828125,0.8125 0.9375,0 1.296875,-1.453125 1.296875,-1.53125 0,-0.109375 -0.078125,-0.109375 -0.109375,-0.109375 -0.109375,0 -0.109375,0.03125 -0.15625,0.1875 -0.203125,0.671875 -0.53125,1.234375 -1.015625,1.234375 -0.171875,0 -0.234375,-0.09375 -0.234375,-0.328125 0,-0.25 0.078125,-0.484375 0.171875,-0.703125 0.1875,-0.53125 0.609375,-1.625 0.609375,-2.203125 0,-0.65625 -0.421875,-1.0625 -1.140625,-1.0625 -0.90625,0 -1.390625,0.640625 -1.5625,0.875 -0.046875,-0.5625 -0.453125,-0.875 -0.921875,-0.875 -0.453125,0 -0.640625,0.390625 -0.734375,0.5625 C 0.421875,-3.5 0.296875,-2.90625 0.296875,-2.875 c 0,0.109375 0.09375,0.109375 0.109375,0.109375 0.109375,0 0.109375,-0.015625 0.171875,-0.234375 0.171875,-0.703125 0.375,-1.1875 0.734375,-1.1875 0.1875,0 0.296875,0.125 0.296875,0.453125 0,0.21875 -0.03125,0.328125 -0.15625,0.84375 z m 0,0"
               id="id-5f553e1d-2f29-48e1-b783-a31a945783b2" />
          </g>
        </g>
        <g
           style="fill:#000000;fill-opacity:1"
           id="id-67431f70-fa05-4509-b8a2-5881771c883e"
           transform="matrix(0.375579,0,0,0.375579,22.478484,104.92815)">
          <g
             transform="translate(154.692,136.259)"
             id="g3566">
            <path
               style="stroke:none;stroke-width:0"
               d="m 2.328125,-4.4375 c 0,-0.1875 0,-0.1875 -0.203125,-0.1875 -0.453125,0.4375 -1.078125,0.4375 -1.359375,0.4375 v 0.25 c 0.15625,0 0.625,0 1,-0.1875 v 3.546875 c 0,0.234375 0,0.328125 -0.6875,0.328125 H 0.8125 V 0 c 0.125,0 0.984375,-0.03125 1.234375,-0.03125 0.21875,0 1.09375,0.03125 1.25,0.03125 V -0.25 H 3.03125 c -0.703125,0 -0.703125,-0.09375 -0.703125,-0.328125 z m 0,0"
               id="id-fdd5bfe1-ef54-467a-8b46-a2be49cf4613" />
          </g>
        </g>
      </g>
      <g
         id="g4026"
         transform="translate(22.731892,-53.675124)">
        <g
           style="fill:#000000;fill-opacity:1"
           id="id-e2c673a7-dcc7-4614-ada1-6e4b3d8d153d"
           transform="matrix(0.375579,0,0,0.375579,22.478484,104.92815)">
          <g
             transform="translate(159.162,134.765)"
             id="g3570">
            <path
               style="stroke:none;stroke-width:0"
               d="m 0.875,-0.59375 c -0.03125,0.15625 -0.09375,0.390625 -0.09375,0.4375 0,0.171875 0.140625,0.265625 0.296875,0.265625 0.125,0 0.296875,-0.078125 0.375,-0.28125 0,-0.015625 0.125,-0.484375 0.1875,-0.734375 l 0.21875,-0.890625 C 1.90625,-2.03125 1.96875,-2.25 2.03125,-2.46875 c 0.03125,-0.171875 0.109375,-0.46875 0.125,-0.5 0.140625,-0.3125 0.671875,-1.21875 1.625,-1.21875 0.453125,0 0.53125,0.375 0.53125,0.703125 0,0.609375 -0.484375,1.890625 -0.640625,2.3125 C 3.578125,-0.9375 3.5625,-0.8125 3.5625,-0.703125 c 0,0.46875 0.359375,0.8125 0.828125,0.8125 0.9375,0 1.296875,-1.453125 1.296875,-1.53125 0,-0.109375 -0.078125,-0.109375 -0.109375,-0.109375 -0.109375,0 -0.109375,0.03125 -0.15625,0.1875 -0.203125,0.671875 -0.53125,1.234375 -1.015625,1.234375 -0.171875,0 -0.234375,-0.09375 -0.234375,-0.328125 0,-0.25 0.078125,-0.484375 0.171875,-0.703125 0.1875,-0.53125 0.609375,-1.625 0.609375,-2.203125 0,-0.65625 -0.421875,-1.0625 -1.140625,-1.0625 -0.90625,0 -1.390625,0.640625 -1.5625,0.875 -0.046875,-0.5625 -0.453125,-0.875 -0.921875,-0.875 -0.453125,0 -0.640625,0.390625 -0.734375,0.5625 C 0.421875,-3.5 0.296875,-2.90625 0.296875,-2.875 c 0,0.109375 0.09375,0.109375 0.109375,0.109375 0.109375,0 0.109375,-0.015625 0.171875,-0.234375 0.171875,-0.703125 0.375,-1.1875 0.734375,-1.1875 0.1875,0 0.296875,0.125 0.296875,0.453125 0,0.21875 -0.03125,0.328125 -0.15625,0.84375 z m 0,0"
               id="id-d212fdcb-ad55-444c-8c2f-d98c1d9fcca6" />
          </g>
        </g>
        <g
           style="fill:#000000;fill-opacity:1"
           id="id-f17b3513-7b58-4b09-8cb8-3321686a6ebe"
           transform="matrix(0.375579,0,0,0.375579,22.478484,104.92815)">
          <g
             transform="translate(165.142,136.259)"
             id="g3574">
            <path
               style="stroke:none;stroke-width:0"
               d="M 3.515625,-1.265625 H 3.28125 c -0.015625,0.15625 -0.09375,0.5625 -0.1875,0.625 C 3.046875,-0.59375 2.515625,-0.59375 2.40625,-0.59375 H 1.125 c 0.734375,-0.640625 0.984375,-0.84375 1.390625,-1.171875 0.515625,-0.40625 1,-0.84375 1,-1.5 0,-0.84375 -0.734375,-1.359375 -1.625,-1.359375 -0.859375,0 -1.453125,0.609375 -1.453125,1.25 0,0.34375 0.296875,0.390625 0.375,0.390625 0.15625,0 0.359375,-0.125 0.359375,-0.375 0,-0.125 -0.046875,-0.375 -0.40625,-0.375 C 0.984375,-4.21875 1.453125,-4.375 1.78125,-4.375 c 0.703125,0 1.0625,0.546875 1.0625,1.109375 0,0.609375 -0.4375,1.078125 -0.65625,1.328125 L 0.515625,-0.265625 C 0.4375,-0.203125 0.4375,-0.1875 0.4375,0 h 2.875 z m 0,0"
               id="id-5e4bb684-088a-409b-abff-0bec3136456b" />
          </g>
        </g>
      </g>
      <g
         id="g4034"
         transform="translate(39.538167,-54.042581)">
        <g
           style="fill:#000000;fill-opacity:1"
           id="id-8b6fe4f7-0290-4248-90a7-f728cc3b0f1f"
           transform="matrix(0.375579,0,0,0.375579,22.478484,104.92815)">
          <g
             transform="translate(169.611,134.765)"
             id="g3578">
            <path
               style="stroke:none;stroke-width:0"
               d="m 0.875,-0.59375 c -0.03125,0.15625 -0.09375,0.390625 -0.09375,0.4375 0,0.171875 0.140625,0.265625 0.296875,0.265625 0.125,0 0.296875,-0.078125 0.375,-0.28125 0,-0.015625 0.125,-0.484375 0.1875,-0.734375 l 0.21875,-0.890625 C 1.90625,-2.03125 1.96875,-2.25 2.03125,-2.46875 c 0.03125,-0.171875 0.109375,-0.46875 0.125,-0.5 0.140625,-0.3125 0.671875,-1.21875 1.625,-1.21875 0.453125,0 0.53125,0.375 0.53125,0.703125 0,0.609375 -0.484375,1.890625 -0.640625,2.3125 C 3.578125,-0.9375 3.5625,-0.8125 3.5625,-0.703125 c 0,0.46875 0.359375,0.8125 0.828125,0.8125 0.9375,0 1.296875,-1.453125 1.296875,-1.53125 0,-0.109375 -0.078125,-0.109375 -0.109375,-0.109375 -0.109375,0 -0.109375,0.03125 -0.15625,0.1875 -0.203125,0.671875 -0.53125,1.234375 -1.015625,1.234375 -0.171875,0 -0.234375,-0.09375 -0.234375,-0.328125 0,-0.25 0.078125,-0.484375 0.171875,-0.703125 0.1875,-0.53125 0.609375,-1.625 0.609375,-2.203125 0,-0.65625 -0.421875,-1.0625 -1.140625,-1.0625 -0.90625,0 -1.390625,0.640625 -1.5625,0.875 -0.046875,-0.5625 -0.453125,-0.875 -0.921875,-0.875 -0.453125,0 -0.640625,0.390625 -0.734375,0.5625 C 0.421875,-3.5 0.296875,-2.90625 0.296875,-2.875 c 0,0.109375 0.09375,0.109375 0.109375,0.109375 0.109375,0 0.109375,-0.015625 0.171875,-0.234375 0.171875,-0.703125 0.375,-1.1875 0.734375,-1.1875 0.1875,0 0.296875,0.125 0.296875,0.453125 0,0.21875 -0.03125,0.328125 -0.15625,0.84375 z m 0,0"
               id="id-329bbc70-dae6-4cde-9132-86b2841cfd49" />
          </g>
        </g>
        <g
           style="fill:#000000;fill-opacity:1"
           id="id-cf3edf8b-024d-49b8-9851-acbe284011ec"
           transform="matrix(0.375579,0,0,0.375579,22.478484,104.92815)">
          <g
             transform="translate(175.591,136.259)"
             id="g3582">
            <path
               style="stroke:none;stroke-width:0"
               d="m 1.90625,-2.328125 c 0.546875,0 0.9375,0.375 0.9375,1.125 0,0.859375 -0.515625,1.125 -0.90625,1.125 -0.28125,0 -0.90625,-0.078125 -1.1875,-0.5 0.328125,0 0.40625,-0.234375 0.40625,-0.390625 0,-0.21875 -0.171875,-0.375 -0.390625,-0.375 -0.1875,0 -0.390625,0.125 -0.390625,0.40625 0,0.65625 0.71875,1.078125 1.5625,1.078125 0.96875,0 1.640625,-0.65625 1.640625,-1.34375 0,-0.546875 -0.4375,-1.09375 -1.203125,-1.25 0.71875,-0.265625 0.984375,-0.78125 0.984375,-1.21875 0,-0.546875 -0.625,-0.953125 -1.40625,-0.953125 -0.765625,0 -1.359375,0.375 -1.359375,0.9375 0,0.234375 0.15625,0.359375 0.359375,0.359375 0.21875,0 0.359375,-0.15625 0.359375,-0.34375 0,-0.203125 -0.140625,-0.359375 -0.359375,-0.375 0.25,-0.296875 0.71875,-0.375 0.984375,-0.375 0.3125,0 0.75,0.15625 0.75,0.75 0,0.296875 -0.09375,0.625 -0.28125,0.828125 -0.21875,0.265625 -0.421875,0.28125 -0.765625,0.3125 -0.171875,0.015625 -0.1875,0.015625 -0.21875,0.015625 -0.015625,0 -0.078125,0.015625 -0.078125,0.09375 0,0.09375 0.0625,0.09375 0.1875,0.09375 z m 0,0"
               id="id-88110ae5-4f1e-44c8-9ed3-1273afc54457" />
          </g>
        </g>
      </g>
      <g
         id="g4042"
         transform="translate(46.985965,-47.469077)">
        <g
           style="fill:#000000;fill-opacity:1"
           id="id-84d37462-2a2f-4bbb-8add-9ea1d435103d"
           transform="matrix(0.375579,0,0,0.375579,22.478484,104.92815)">
          <g
             transform="translate(180.06,134.765)"
             id="g3586">
            <path
               style="stroke:none;stroke-width:0"
               d="m 0.875,-0.59375 c -0.03125,0.15625 -0.09375,0.390625 -0.09375,0.4375 0,0.171875 0.140625,0.265625 0.296875,0.265625 0.125,0 0.296875,-0.078125 0.375,-0.28125 0,-0.015625 0.125,-0.484375 0.1875,-0.734375 l 0.21875,-0.890625 C 1.90625,-2.03125 1.96875,-2.25 2.03125,-2.46875 c 0.03125,-0.171875 0.109375,-0.46875 0.125,-0.5 0.140625,-0.3125 0.671875,-1.21875 1.625,-1.21875 0.453125,0 0.53125,0.375 0.53125,0.703125 0,0.609375 -0.484375,1.890625 -0.640625,2.3125 C 3.578125,-0.9375 3.5625,-0.8125 3.5625,-0.703125 c 0,0.46875 0.359375,0.8125 0.828125,0.8125 0.9375,0 1.296875,-1.453125 1.296875,-1.53125 0,-0.109375 -0.078125,-0.109375 -0.109375,-0.109375 -0.109375,0 -0.109375,0.03125 -0.15625,0.1875 -0.203125,0.671875 -0.53125,1.234375 -1.015625,1.234375 -0.171875,0 -0.234375,-0.09375 -0.234375,-0.328125 0,-0.25 0.078125,-0.484375 0.171875,-0.703125 0.1875,-0.53125 0.609375,-1.625 0.609375,-2.203125 0,-0.65625 -0.421875,-1.0625 -1.140625,-1.0625 -0.90625,0 -1.390625,0.640625 -1.5625,0.875 -0.046875,-0.5625 -0.453125,-0.875 -0.921875,-0.875 -0.453125,0 -0.640625,0.390625 -0.734375,0.5625 C 0.421875,-3.5 0.296875,-2.90625 0.296875,-2.875 c 0,0.109375 0.09375,0.109375 0.109375,0.109375 0.109375,0 0.109375,-0.015625 0.171875,-0.234375 0.171875,-0.703125 0.375,-1.1875 0.734375,-1.1875 0.1875,0 0.296875,0.125 0.296875,0.453125 0,0.21875 -0.03125,0.328125 -0.15625,0.84375 z m 0,0"
               id="id-64ff6ef2-38bf-4401-a5f9-c307c347f578" />
          </g>
        </g>
        <g
           style="fill:#000000;fill-opacity:1"
           id="id-79e77e12-94ac-4e68-badd-585bf39a7d41"
           transform="matrix(0.375579,0,0,0.375579,22.478484,104.92815)">
          <g
             transform="translate(186.04,136.259)"
             id="g3590">
            <path
               style="stroke:none;stroke-width:0"
               d="m 3.6875,-1.140625 v -0.25 H 2.90625 V -4.5 c 0,-0.140625 0,-0.203125 -0.140625,-0.203125 -0.09375,0 -0.125,0 -0.1875,0.109375 l -2.3125,3.203125 v 0.25 h 2.0625 v 0.5625 c 0,0.25 0,0.328125 -0.578125,0.328125 H 1.5625 V 0 C 1.921875,-0.015625 2.359375,-0.03125 2.609375,-0.03125 2.875,-0.03125 3.3125,-0.015625 3.671875,0 v -0.25 h -0.1875 C 2.90625,-0.25 2.90625,-0.328125 2.90625,-0.578125 v -0.5625 z M 2.375,-3.9375 v 2.546875 H 0.53125 Z m 0,0"
               id="id-5c2f63b7-89e5-47f2-8d2b-9d675b34a1f7" />
          </g>
        </g>
      </g>
      <g
         id="g4050"
         transform="translate(20.218658,-12.664707)">
        <g
           style="fill:#000000;fill-opacity:1"
           id="id-306ec45a-09f7-4f86-9021-8c9f45e46727"
           transform="matrix(0.375579,0,0,0.375579,22.478484,104.92815)">
          <g
             transform="translate(190.51,134.765)"
             id="g3594">
            <path
               style="stroke:none;stroke-width:0"
               d="m 0.875,-0.59375 c -0.03125,0.15625 -0.09375,0.390625 -0.09375,0.4375 0,0.171875 0.140625,0.265625 0.296875,0.265625 0.125,0 0.296875,-0.078125 0.375,-0.28125 0,-0.015625 0.125,-0.484375 0.1875,-0.734375 l 0.21875,-0.890625 C 1.90625,-2.03125 1.96875,-2.25 2.03125,-2.46875 c 0.03125,-0.171875 0.109375,-0.46875 0.125,-0.5 0.140625,-0.3125 0.671875,-1.21875 1.625,-1.21875 0.453125,0 0.53125,0.375 0.53125,0.703125 0,0.609375 -0.484375,1.890625 -0.640625,2.3125 C 3.578125,-0.9375 3.5625,-0.8125 3.5625,-0.703125 c 0,0.46875 0.359375,0.8125 0.828125,0.8125 0.9375,0 1.296875,-1.453125 1.296875,-1.53125 0,-0.109375 -0.078125,-0.109375 -0.109375,-0.109375 -0.109375,0 -0.109375,0.03125 -0.15625,0.1875 -0.203125,0.671875 -0.53125,1.234375 -1.015625,1.234375 -0.171875,0 -0.234375,-0.09375 -0.234375,-0.328125 0,-0.25 0.078125,-0.484375 0.171875,-0.703125 0.1875,-0.53125 0.609375,-1.625 0.609375,-2.203125 0,-0.65625 -0.421875,-1.0625 -1.140625,-1.0625 -0.90625,0 -1.390625,0.640625 -1.5625,0.875 -0.046875,-0.5625 -0.453125,-0.875 -0.921875,-0.875 -0.453125,0 -0.640625,0.390625 -0.734375,0.5625 C 0.421875,-3.5 0.296875,-2.90625 0.296875,-2.875 c 0,0.109375 0.09375,0.109375 0.109375,0.109375 0.109375,0 0.109375,-0.015625 0.171875,-0.234375 0.171875,-0.703125 0.375,-1.1875 0.734375,-1.1875 0.1875,0 0.296875,0.125 0.296875,0.453125 0,0.21875 -0.03125,0.328125 -0.15625,0.84375 z m 0,0"
               id="id-6f946ee6-15f1-49fa-a64d-3b6db6a099a1" />
          </g>
        </g>
        <g
           style="fill:#000000;fill-opacity:1"
           id="id-e79bdde4-d0fe-4e9c-a729-52445a9bf7a2"
           transform="matrix(0.375579,0,0,0.375579,22.478484,104.92815)">
          <g
             transform="translate(196.489,136.259)"
             id="g3598">
            <path
               style="stroke:none;stroke-width:0"
               d="m 1.078125,-3.890625 c 0.359375,0.09375 0.5625,0.09375 0.671875,0.09375 0.921875,0 1.46875,-0.625 1.46875,-0.734375 0,-0.078125 -0.046875,-0.09375 -0.078125,-0.09375 -0.015625,0 -0.03125,0 -0.0625,0.015625 -0.171875,0.0625 -0.53125,0.203125 -1.046875,0.203125 -0.203125,0 -0.5625,-0.015625 -1.015625,-0.1875 C 0.9375,-4.625 0.921875,-4.625 0.921875,-4.625 c -0.09375,0 -0.09375,0.078125 -0.09375,0.1875 v 2.046875 c 0,0.125 0,0.203125 0.109375,0.203125 0.0625,0 0.078125,0 0.140625,-0.09375 0.296875,-0.375 0.734375,-0.4375 0.96875,-0.4375 0.421875,0 0.609375,0.328125 0.640625,0.390625 0.125,0.234375 0.171875,0.5 0.171875,0.90625 0,0.203125 0,0.609375 -0.21875,0.921875 -0.171875,0.25 -0.46875,0.421875 -0.8125,0.421875 -0.453125,0 -0.921875,-0.25 -1.09375,-0.71875 0.265625,0.015625 0.40625,-0.15625 0.40625,-0.34375 0,-0.296875 -0.265625,-0.34375 -0.359375,-0.34375 0,0 -0.34375,0 -0.34375,0.375 0,0.625 0.578125,1.25 1.40625,1.25 0.890625,0 1.671875,-0.65625 1.671875,-1.546875 0,-0.78125 -0.59375,-1.5 -1.453125,-1.5 -0.3125,0 -0.671875,0.0625 -0.984375,0.328125 z m 0,0"
               id="id-f0b838e0-d615-400a-bf91-2b478ea12128" />
          </g>
        </g>
      </g>
      <g
         id="g4058"
         transform="translate(-4.7902758,-11.740843)">
        <g
           style="fill:#000000;fill-opacity:1"
           id="id-ed245894-a6f7-4193-a8db-9ff895e8eda0"
           transform="matrix(0.375579,0,0,0.375579,22.478484,104.92815)">
          <g
             transform="translate(200.959,134.765)"
             id="g3602">
            <path
               style="stroke:none;stroke-width:0"
               d="m 0.875,-0.59375 c -0.03125,0.15625 -0.09375,0.390625 -0.09375,0.4375 0,0.171875 0.140625,0.265625 0.296875,0.265625 0.125,0 0.296875,-0.078125 0.375,-0.28125 0,-0.015625 0.125,-0.484375 0.1875,-0.734375 l 0.21875,-0.890625 C 1.90625,-2.03125 1.96875,-2.25 2.03125,-2.46875 c 0.03125,-0.171875 0.109375,-0.46875 0.125,-0.5 0.140625,-0.3125 0.671875,-1.21875 1.625,-1.21875 0.453125,0 0.53125,0.375 0.53125,0.703125 0,0.609375 -0.484375,1.890625 -0.640625,2.3125 C 3.578125,-0.9375 3.5625,-0.8125 3.5625,-0.703125 c 0,0.46875 0.359375,0.8125 0.828125,0.8125 0.9375,0 1.296875,-1.453125 1.296875,-1.53125 0,-0.109375 -0.078125,-0.109375 -0.109375,-0.109375 -0.109375,0 -0.109375,0.03125 -0.15625,0.1875 -0.203125,0.671875 -0.53125,1.234375 -1.015625,1.234375 -0.171875,0 -0.234375,-0.09375 -0.234375,-0.328125 0,-0.25 0.078125,-0.484375 0.171875,-0.703125 0.1875,-0.53125 0.609375,-1.625 0.609375,-2.203125 0,-0.65625 -0.421875,-1.0625 -1.140625,-1.0625 -0.90625,0 -1.390625,0.640625 -1.5625,0.875 -0.046875,-0.5625 -0.453125,-0.875 -0.921875,-0.875 -0.453125,0 -0.640625,0.390625 -0.734375,0.5625 C 0.421875,-3.5 0.296875,-2.90625 0.296875,-2.875 c 0,0.109375 0.09375,0.109375 0.109375,0.109375 0.109375,0 0.109375,-0.015625 0.171875,-0.234375 0.171875,-0.703125 0.375,-1.1875 0.734375,-1.1875 0.1875,0 0.296875,0.125 0.296875,0.453125 0,0.21875 -0.03125,0.328125 -0.15625,0.84375 z m 0,0"
               id="id-8c47ab8a-2bee-498c-9be7-4a0e7646a70f" />
          </g>
        </g>
        <g
           style="fill:#000000;fill-opacity:1"
           id="id-b539bfcd-46d7-4d34-8210-497a1d3ccc61"
           transform="matrix(0.375579,0,0,0.375579,22.478484,104.92815)">
          <g
             transform="translate(206.939,136.259)"
             id="g3606">
            <path
               style="stroke:none;stroke-width:0"
               d="m 1.046875,-2.28125 c 0,-0.5625 0.046875,-1.078125 0.3125,-1.515625 0.234375,-0.375 0.609375,-0.625 1.0625,-0.625 0.203125,0 0.484375,0.046875 0.625,0.234375 C 2.875,-4.171875 2.71875,-4.046875 2.71875,-3.84375 c 0,0.171875 0.125,0.328125 0.328125,0.328125 0.21875,0 0.34375,-0.140625 0.34375,-0.34375 0,-0.40625 -0.296875,-0.765625 -0.984375,-0.765625 -1,0 -2.03125,0.921875 -2.03125,2.421875 0,1.796875 0.84375,2.34375 1.625,2.34375 0.84375,0 1.578125,-0.65625 1.578125,-1.5625 0,-0.890625 -0.703125,-1.546875 -1.515625,-1.546875 -0.5625,0 -0.859375,0.375 -1.015625,0.6875 z M 2,-0.078125 c -0.359375,0 -0.625,-0.203125 -0.78125,-0.515625 C 1.125,-0.796875 1.0625,-1.15625 1.0625,-1.5625 c 0,-0.6875 0.40625,-1.203125 0.96875,-1.203125 0.3125,0 0.53125,0.125 0.703125,0.375 0.171875,0.265625 0.171875,0.5625 0.171875,0.96875 0,0.390625 0,0.6875 -0.1875,0.96875 -0.15625,0.234375 -0.390625,0.375 -0.71875,0.375 z m 0,0"
               id="id-2f9bf71e-bff9-413f-8449-2beef2c7e29e" />
          </g>
        </g>
      </g>
      <g
         id="g4066"
         transform="translate(-18.057275,-12.664707)">
        <g
           style="fill:#000000;fill-opacity:1"
           id="id-802a06f6-5e40-42d6-95db-6e87b251a2f6"
           transform="matrix(0.375579,0,0,0.375579,22.478484,104.92815)">
          <g
             transform="translate(211.408,134.765)"
             id="g3610">
            <path
               style="stroke:none;stroke-width:0"
               d="m 0.875,-0.59375 c -0.03125,0.15625 -0.09375,0.390625 -0.09375,0.4375 0,0.171875 0.140625,0.265625 0.296875,0.265625 0.125,0 0.296875,-0.078125 0.375,-0.28125 0,-0.015625 0.125,-0.484375 0.1875,-0.734375 l 0.21875,-0.890625 C 1.90625,-2.03125 1.96875,-2.25 2.03125,-2.46875 c 0.03125,-0.171875 0.109375,-0.46875 0.125,-0.5 0.140625,-0.3125 0.671875,-1.21875 1.625,-1.21875 0.453125,0 0.53125,0.375 0.53125,0.703125 0,0.609375 -0.484375,1.890625 -0.640625,2.3125 C 3.578125,-0.9375 3.5625,-0.8125 3.5625,-0.703125 c 0,0.46875 0.359375,0.8125 0.828125,0.8125 0.9375,0 1.296875,-1.453125 1.296875,-1.53125 0,-0.109375 -0.078125,-0.109375 -0.109375,-0.109375 -0.109375,0 -0.109375,0.03125 -0.15625,0.1875 -0.203125,0.671875 -0.53125,1.234375 -1.015625,1.234375 -0.171875,0 -0.234375,-0.09375 -0.234375,-0.328125 0,-0.25 0.078125,-0.484375 0.171875,-0.703125 0.1875,-0.53125 0.609375,-1.625 0.609375,-2.203125 0,-0.65625 -0.421875,-1.0625 -1.140625,-1.0625 -0.90625,0 -1.390625,0.640625 -1.5625,0.875 -0.046875,-0.5625 -0.453125,-0.875 -0.921875,-0.875 -0.453125,0 -0.640625,0.390625 -0.734375,0.5625 C 0.421875,-3.5 0.296875,-2.90625 0.296875,-2.875 c 0,0.109375 0.09375,0.109375 0.109375,0.109375 0.109375,0 0.109375,-0.015625 0.171875,-0.234375 0.171875,-0.703125 0.375,-1.1875 0.734375,-1.1875 0.1875,0 0.296875,0.125 0.296875,0.453125 0,0.21875 -0.03125,0.328125 -0.15625,0.84375 z m 0,0"
               id="id-de15258c-9c09-4dad-947a-2c3a9ceaa5cb" />
          </g>
        </g>
        <g
           style="fill:#000000;fill-opacity:1"
           id="id-6ff4d39a-a1d4-4721-8cb1-ec06e5972345"
           transform="matrix(0.375579,0,0,0.375579,22.478484,104.92815)">
          <g
             transform="translate(217.388,136.259)"
             id="g3614">
            <path
               style="stroke:none;stroke-width:0"
               d="m 3.734375,-4.203125 c 0.0625,-0.09375 0.0625,-0.109375 0.0625,-0.28125 H 1.96875 C 1.6875,-4.484375 1.609375,-4.5 1.359375,-4.515625 1,-4.546875 0.984375,-4.59375 0.96875,-4.703125 H 0.734375 l -0.25,1.484375 H 0.71875 c 0.015625,-0.109375 0.09375,-0.5625 0.203125,-0.640625 0.046875,-0.03125 0.625,-0.03125 0.71875,-0.03125 H 3.15625 c -0.21875,0.28125 -0.578125,0.71875 -0.71875,0.921875 -0.90625,1.1875 -1,2.296875 -1,2.703125 0,0.078125 0,0.40625 0.328125,0.40625 0.34375,0 0.34375,-0.3125 0.34375,-0.40625 v -0.28125 c 0,-1.34375 0.28125,-1.96875 0.578125,-2.34375 z m 0,0"
               id="id-c2751495-d9ff-4c05-915e-86c3ad771ca1" />
          </g>
        </g>
      </g>
      <g
         id="g4074"
         transform="translate(-38.880327,-16.572251)">
        <g
           style="fill:#000000;fill-opacity:1"
           id="id-77e615b8-7ddf-4582-bc6f-e78d766aba76"
           transform="matrix(0.375579,0,0,0.375579,22.478484,104.92815)">
          <g
             transform="translate(221.857,134.765)"
             id="g3618">
            <path
               style="stroke:none;stroke-width:0"
               d="m 0.875,-0.59375 c -0.03125,0.15625 -0.09375,0.390625 -0.09375,0.4375 0,0.171875 0.140625,0.265625 0.296875,0.265625 0.125,0 0.296875,-0.078125 0.375,-0.28125 0,-0.015625 0.125,-0.484375 0.1875,-0.734375 l 0.21875,-0.890625 C 1.90625,-2.03125 1.96875,-2.25 2.03125,-2.46875 c 0.03125,-0.171875 0.109375,-0.46875 0.125,-0.5 0.140625,-0.3125 0.671875,-1.21875 1.625,-1.21875 0.453125,0 0.53125,0.375 0.53125,0.703125 0,0.609375 -0.484375,1.890625 -0.640625,2.3125 C 3.578125,-0.9375 3.5625,-0.8125 3.5625,-0.703125 c 0,0.46875 0.359375,0.8125 0.828125,0.8125 0.9375,0 1.296875,-1.453125 1.296875,-1.53125 0,-0.109375 -0.078125,-0.109375 -0.109375,-0.109375 -0.109375,0 -0.109375,0.03125 -0.15625,0.1875 -0.203125,0.671875 -0.53125,1.234375 -1.015625,1.234375 -0.171875,0 -0.234375,-0.09375 -0.234375,-0.328125 0,-0.25 0.078125,-0.484375 0.171875,-0.703125 0.1875,-0.53125 0.609375,-1.625 0.609375,-2.203125 0,-0.65625 -0.421875,-1.0625 -1.140625,-1.0625 -0.90625,0 -1.390625,0.640625 -1.5625,0.875 -0.046875,-0.5625 -0.453125,-0.875 -0.921875,-0.875 -0.453125,0 -0.640625,0.390625 -0.734375,0.5625 C 0.421875,-3.5 0.296875,-2.90625 0.296875,-2.875 c 0,0.109375 0.09375,0.109375 0.109375,0.109375 0.109375,0 0.109375,-0.015625 0.171875,-0.234375 0.171875,-0.703125 0.375,-1.1875 0.734375,-1.1875 0.1875,0 0.296875,0.125 0.296875,0.453125 0,0.21875 -0.03125,0.328125 -0.15625,0.84375 z m 0,0"
               id="id-08144aa4-1ea6-4ec7-bf6f-3f0d350faf40" />
          </g>
        </g>
        <g
           style="fill:#000000;fill-opacity:1"
           id="id-93c3ed3a-2d60-40e9-abd7-a8f055d6f37d"
           transform="matrix(0.375579,0,0,0.375579,22.478484,104.92815)">
          <g
             transform="translate(227.837,136.259)"
             id="g3622">
            <path
               style="stroke:none;stroke-width:0"
               d="m 2.46875,-2.515625 c 0.546875,-0.265625 0.890625,-0.59375 0.890625,-1.078125 0,-0.671875 -0.703125,-1.03125 -1.375,-1.03125 -0.765625,0 -1.390625,0.5 -1.390625,1.15625 0,0.328125 0.15625,0.5625 0.28125,0.703125 0.125,0.15625 0.171875,0.1875 0.578125,0.421875 C 1.0625,-2.171875 0.375,-1.796875 0.375,-1.0625 c 0,0.765625 0.796875,1.203125 1.59375,1.203125 0.890625,0 1.609375,-0.5625 1.609375,-1.3125 0,-0.46875 -0.265625,-0.859375 -0.671875,-1.09375 -0.09375,-0.0625 -0.328125,-0.1875 -0.4375,-0.25 z m -1.125,-0.65625 c -0.1875,-0.109375 -0.375,-0.296875 -0.375,-0.5625 0,-0.4375 0.5,-0.6875 1,-0.6875 0.546875,0 1.03125,0.34375 1.03125,0.828125 0,0.625 -0.734375,0.9375 -0.734375,0.9375 -0.015625,0 -0.03125,0 -0.078125,-0.03125 z m 0.328125,0.96875 0.96875,0.546875 c 0.171875,0.109375 0.515625,0.3125 0.515625,0.71875 0,0.53125 -0.578125,0.859375 -1.171875,0.859375 -0.640625,0 -1.1875,-0.421875 -1.1875,-0.984375 0,-0.515625 0.375,-0.921875 0.875,-1.140625 z m 0,0"
               id="id-9614c85a-e787-47be-b4dd-59b16988087d" />
          </g>
        </g>
      </g>
      <path
         style="fill:none;stroke:#2d2d2d;stroke-width:0.4;stroke-linecap:butt;stroke-linejoin:miter;stroke-opacity:1;stroke-miterlimit:4;stroke-dasharray:none"
         d="M 97.102083,137.58333 H 114.56458"
         id="path1074" />
    </g>
  </g>
</svg>
