<?xml version="1.0" encoding="UTF-8" standalone="no"?>
<!-- Created with Inkscape (http://www.inkscape.org/) -->

<svg
   width="67.970238mm"
   height="79.826683mm"
   viewBox="0 0 67.970238 79.826683"
   version="1.1"
   id="svg5"
   xmlns="http://www.w3.org/2000/svg"
   xmlns:svg="http://www.w3.org/2000/svg">
  <defs
     id="defs2">
    <defs
       id="id-d008d9d5-633a-4223-a64e-208602f35435">
      <g
         id="id-8aabf446-64a0-4209-9ac6-36fa01464d9f">
        <symbol
           overflow="visible"
           id="id-295a82d8-1a0a-4eb2-ba27-e2b4c9135349">
          <path
             style="stroke:none;stroke-width:0"
             d=""
             id="id-24ec40f7-99f8-4a75-9d46-d5504677c1f0" />
        </symbol>
        <symbol
           overflow="visible"
           id="id-f5b46e43-1448-4503-b456-419cc4e0d3bb">
          <path
             style="stroke:none;stroke-width:0"
             d="m 4.5625,-6.390625 c 0.015625,-0.03125 0.03125,-0.109375 0.03125,-0.125 0,-0.078125 -0.0625,-0.125 -0.125,-0.125 -0.046875,0 -0.0625,0.015625 -0.1875,0.15625 -0.765625,1.03125 -1.453125,1.09375 -1.75,1.125 C 2.484375,-5.34375 2.375,-5.328125 2.375,-5.15625 c 0,0.109375 0.125,0.109375 0.15625,0.109375 0.15625,0 0.640625,-0.0625 1.109375,-0.40625 L 2.46875,-0.734375 C 2.375,-0.40625 2.296875,-0.3125 1.53125,-0.3125 H 1.453125 c -0.171875,0 -0.28125,0 -0.28125,0.1875 C 1.171875,0 1.28125,0 1.3125,0 1.75,0 2.1875,-0.03125 2.625,-0.03125 3.0625,-0.03125 3.515625,0 3.953125,0 4.03125,0 4.15625,0 4.15625,-0.1875 c 0,-0.125 -0.09375,-0.125 -0.265625,-0.125 H 3.8125 c -0.125,0 -0.296875,0 -0.421875,-0.015625 -0.21875,-0.03125 -0.28125,-0.046875 -0.28125,-0.1875 0,-0.046875 0.015625,-0.140625 0.03125,-0.1875 z m 0,0"
             id="id-a4525fbc-41d5-4ebb-91c4-4a2c6656e321" />
        </symbol>
        <symbol
           overflow="visible"
           id="id-5e002a49-88fa-4908-9bd2-7fef24c98247">
          <path
             style="stroke:none;stroke-width:0"
             d="M 1.71875,-0.734375 C 1.640625,-0.390625 1.578125,-0.3125 0.890625,-0.3125 0.734375,-0.3125 0.625,-0.3125 0.625,-0.125 0.625,0 0.71875,0 0.875,0 H 3.9375 C 5.828125,0 7.71875,-2.125 7.71875,-4.359375 7.71875,-5.796875 6.921875,-6.8125 5.625,-6.8125 H 2.515625 c -0.15625,0 -0.265625,0 -0.265625,0.1875 0,0.125 0.078125,0.125 0.265625,0.125 0.3125,0 0.578125,0 0.578125,0.171875 0,0.03125 0,0.046875 -0.03125,0.1875 z m 2.125,-5.40625 C 3.9375,-6.484375 4,-6.5 4.34375,-6.5 h 0.953125 c 0.8125,0 1.59375,0.453125 1.59375,1.75 0,0.59375 -0.28125,2.453125 -1.125,3.453125 -0.484375,0.5625 -1.203125,0.984375 -2,0.984375 H 2.734375 C 2.4375,-0.3125 2.4375,-0.34375 2.4375,-0.40625 c 0,-0.0625 0.03125,-0.15625 0.03125,-0.21875 z m 0,0"
             id="id-de8a66a7-e6c9-4ff9-b20d-5ac3db67e958" />
        </symbol>
        <symbol
           overflow="visible"
           id="id-6513bc50-7ede-45bf-8277-4b989f4134a1">
          <path
             style="stroke:none;stroke-width:0"
             d="m 3.484375,-0.59375 c 0.109375,0.5 0.46875,0.703125 0.828125,0.703125 0.359375,0 0.578125,-0.25 0.71875,-0.5625 0.1875,-0.375 0.296875,-0.953125 0.296875,-0.96875 0,-0.109375 -0.078125,-0.109375 -0.140625,-0.109375 -0.125,0 -0.140625,0.015625 -0.1875,0.234375 -0.140625,0.5625 -0.328125,1.1875 -0.671875,1.1875 -0.265625,0 -0.265625,-0.265625 -0.265625,-0.40625 0,-0.078125 0,-0.234375 0.078125,-0.515625 L 4.8125,-3.734375 c 0.046875,-0.140625 0.046875,-0.15625 0.046875,-0.21875 0,-0.203125 -0.171875,-0.25 -0.28125,-0.25 -0.3125,0 -0.375,0.328125 -0.390625,0.390625 C 4,-4.25 3.671875,-4.40625 3.359375,-4.40625 c -1.109375,0 -2.28125,1.515625 -2.28125,2.96875 0,0.84375 0.453125,1.546875 1.203125,1.546875 0.359375,0 0.796875,-0.203125 1.203125,-0.703125 z m 0.53125,-2.53125 -0.46875,1.890625 c -0.078125,0.3125 -0.703125,1.125 -1.25,1.125 C 1.828125,-0.109375 1.75,-0.703125 1.75,-1 1.75,-1.5 2.0625,-2.65625 2.25,-3.078125 2.5,-3.6875 2.953125,-4.1875 3.359375,-4.1875 c 0.4375,0 0.6875,0.515625 0.6875,0.9375 0,0.015625 -0.015625,0.0625 -0.03125,0.125 z m 0,0"
             id="id-850d8085-5af1-4623-bf0b-20094702cb4b" />
        </symbol>
        <symbol
           overflow="visible"
           id="id-7d77d9ea-ae9b-4359-b39b-5b2931f55e85">
          <path
             style="stroke:none;stroke-width:0"
             d="m 2.578125,-2.875 c 0,-0.03125 0.453125,-1.3125 1.3125,-1.3125 0.046875,0 0.328125,0 0.53125,0.140625 C 4.0625,-3.9375 4.03125,-3.625 4.03125,-3.5625 c 0,0.125 0.09375,0.3125 0.359375,0.3125 0.171875,0 0.484375,-0.140625 0.484375,-0.53125 0,-0.515625 -0.640625,-0.625 -0.984375,-0.625 -0.6875,0 -1.046875,0.5 -1.203125,0.71875 -0.109375,-0.53125 -0.5,-0.71875 -0.828125,-0.71875 -0.359375,0 -0.546875,0.234375 -0.71875,0.53125 -0.1875,0.390625 -0.3125,0.984375 -0.3125,1 0,0.109375 0.09375,0.109375 0.15625,0.109375 0.125,0 0.125,-0.015625 0.1875,-0.234375 0.171875,-0.703125 0.359375,-1.1875 0.671875,-1.1875 0.265625,0 0.265625,0.296875 0.265625,0.40625 0,0.15625 -0.03125,0.34375 -0.078125,0.5 l -0.75,2.984375 c -0.015625,0.0625 -0.03125,0.125 -0.03125,0.140625 0,0.109375 0.078125,0.265625 0.28125,0.265625 0.296875,0 0.375,-0.28125 0.390625,-0.375 z m 0,0"
             id="id-2267e0bc-43c9-46aa-831e-8e4588d7258e" />
        </symbol>
        <symbol
           overflow="visible"
           id="id-9b8f99e1-1cd3-4b98-9490-8793e4d26549">
          <path
             style="stroke:none;stroke-width:0"
             d="m 3.5625,-0.265625 c -0.375,1.65625 -1.125,2.09375 -1.625,2.09375 -0.46875,0 -0.609375,-0.375 -0.609375,-0.4375 0,0 0,-0.015625 0.078125,-0.03125 C 1.71875,1.3125 1.828125,1.046875 1.828125,0.890625 1.828125,0.671875 1.671875,0.5625 1.5,0.5625 c -0.125,0 -0.515625,0.0625 -0.515625,0.625 0,0.515625 0.40625,0.859375 0.953125,0.859375 1.046875,0 1.953125,-1.03125 2.203125,-2.015625 l 0.96875,-3.921875 C 5.125,-3.953125 5.140625,-4 5.140625,-4.03125 5.140625,-4.140625 5.0625,-4.296875 4.859375,-4.296875 4.5625,-4.296875 4.5,-4 4.46875,-3.921875 L 3.75,-1 c -0.078125,0.296875 -0.46875,0.890625 -1.0625,0.890625 -0.4375,0 -0.53125,-0.4375 -0.53125,-0.765625 0,-0.609375 0.328125,-1.5 0.578125,-2.1875 0.078125,-0.203125 0.125,-0.34375 0.125,-0.53125 0,-0.5 -0.328125,-0.8125 -0.75,-0.8125 -0.9375,0 -1.28125,1.46875 -1.28125,1.53125 0,0.109375 0.09375,0.109375 0.15625,0.109375 0.125,0 0.125,-0.03125 0.171875,-0.171875 0.078125,-0.296875 0.34375,-1.25 0.921875,-1.25 0.109375,0 0.21875,0.03125 0.21875,0.296875 0,0.234375 -0.09375,0.5 -0.234375,0.890625 -0.265625,0.703125 -0.515625,1.4375 -0.515625,1.953125 0,0.875 0.578125,1.15625 1.109375,1.15625 0.46875,0 0.765625,-0.234375 0.90625,-0.375 z m 0,0"
             id="id-99718ecb-0933-40c5-8e87-0480e4b0cbdc" />
        </symbol>
        <symbol
           overflow="visible"
           id="id-16a50f93-981d-43c9-8586-8972e8bb8bfd">
          <path
             style="stroke:none;stroke-width:0"
             d="M 1.515625,-0.734375 C 2.015625,-1.59375 2.734375,-2 3.046875,-2.1875 4.578125,-3.046875 5.5,-3.671875 5.5,-4.953125 c 0,-1.140625 -0.78125,-1.6875 -1.5625,-1.6875 -1.46875,0 -2.296875,2.015625 -2.296875,2.65625 0,0.203125 0.0625,0.640625 0.515625,0.640625 0.78125,0 1.203125,-1.203125 1.203125,-1.578125 0,-0.1875 -0.09375,-0.53125 -0.21875,-0.53125 -0.0625,0 -0.109375,0.046875 -0.109375,0.109375 0,0.015625 0,0.046875 0.015625,0.0625 0.046875,0.125 0.09375,0.25 0.09375,0.359375 0,0.296875 -0.375,1.359375 -0.984375,1.359375 -0.109375,0 -0.21875,-0.0625 -0.21875,-0.328125 0,-0.65625 0.75,-2.53125 1.96875,-2.53125 0.40625,0 0.875,0.265625 0.875,1.09375 0,1.453125 -0.859375,2.28125 -1.84375,2.875 C 2.484375,-2.1875 2.0625,-1.9375 1.640625,-1.421875 0.953125,-0.59375 0.84375,0.109375 0.84375,0.125 c 0,0.09375 0.09375,0.09375 0.140625,0.09375 0.125,0 0.140625,-0.015625 0.171875,-0.125 0.078125,-0.28125 0.265625,-0.640625 0.5625,-0.640625 0.3125,0 0.59375,0.203125 0.84375,0.375 C 2.828125,0 3.125,0.21875 3.53125,0.21875 c 1.140625,0 1.609375,-1.734375 1.609375,-1.84375 0,-0.09375 -0.09375,-0.09375 -0.15625,-0.09375 -0.125,0 -0.125,0 -0.171875,0.15625 -0.140625,0.421875 -0.53125,1.078125 -1.1875,1.078125 -0.28125,0 -0.671875,-0.078125 -0.828125,-0.109375 -0.359375,-0.078125 -0.75,-0.171875 -1.0625,-0.171875 -0.109375,0 -0.203125,0.015625 -0.21875,0.03125 z m 0,0"
             id="id-f9f85639-f5d6-4d7a-9644-e3550a62e6c1" />
        </symbol>
        <symbol
           overflow="visible"
           id="id-15756a28-eb7f-4ca2-b0df-4feb70416090">
          <path
             style="stroke:none;stroke-width:0"
             d="m 3.03125,-3.484375 c -0.171875,0 -0.265625,0 -0.265625,0.203125 0,0.09375 0.078125,0.09375 0.25,0.09375 h 0.28125 c 0.1875,0 0.765625,0.03125 0.765625,0.828125 0,0.1875 -0.078125,1.171875 -0.609375,1.765625 C 3.1875,-0.25 2.71875,0 2.265625,0 1.78125,0 1.28125,-0.296875 1.25,-1.03125 1.6875,-1 1.8125,-1.359375 1.8125,-1.515625 c 0,-0.15625 -0.109375,-0.3125 -0.34375,-0.3125 -0.5,0 -0.515625,0.59375 -0.515625,0.765625 0,0.6875 0.46875,1.28125 1.3125,1.28125 1.265625,0 2.515625,-1.046875 2.515625,-2.25 0,-0.1875 -0.03125,-0.90625 -0.796875,-1.265625 1.046875,-0.34375 1.625,-1.25 1.625,-2 0,-0.859375 -0.65625,-1.34375 -1.4375,-1.34375 -1.1875,0 -2.1875,1.046875 -2.1875,1.890625 0,0.359375 0.1875,0.640625 0.5625,0.640625 0.359375,0 0.828125,-0.34375 0.828125,-0.84375 0,-0.1875 -0.109375,-0.5 -0.234375,-0.5 -0.0625,0 -0.109375,0.046875 -0.109375,0.109375 0,0.03125 0.015625,0.046875 0.046875,0.109375 0,0.015625 0.078125,0.140625 0.078125,0.296875 0,0.328125 -0.328125,0.609375 -0.609375,0.609375 -0.203125,0 -0.265625,-0.1875 -0.265625,-0.359375 0,-0.796875 0.90625,-1.734375 1.875,-1.734375 0.375,0 0.84375,0.1875 0.84375,0.90625 0,0.15625 -0.09375,2.03125 -1.734375,2.03125 z m 0,0"
             id="id-0de2e706-1841-42cf-a1f3-ebb5ab884c57" />
        </symbol>
      </g>
    </defs>
  </defs>
  <g
     id="layer1"
     transform="translate(-31.617706,-47.492709)">
    <g
       id="g3309">
      <g
         id="g2665"
         transform="translate(-74.083323,-5.2916679)">
        <rect
           style="font-variation-settings:normal;opacity:1;vector-effect:none;fill:none;fill-opacity:1;fill-rule:evenodd;stroke:#000000;stroke-width:0.264583;stroke-linecap:butt;stroke-linejoin:miter;stroke-miterlimit:4;stroke-dasharray:none;stroke-dashoffset:0;stroke-opacity:1;stop-color:#000000;stop-opacity:1"
           id="rect848"
           width="5.2916665"
           height="5.2916665"
           x="105.83333"
           y="52.916668" />
        <rect
           style="font-variation-settings:normal;opacity:1;vector-effect:none;fill:none;fill-opacity:1;fill-rule:evenodd;stroke:#000000;stroke-width:0.264583;stroke-linecap:butt;stroke-linejoin:miter;stroke-miterlimit:4;stroke-dasharray:none;stroke-dashoffset:0;stroke-opacity:1;stop-color:#000000;stop-opacity:1"
           id="rect930"
           width="5.2916665"
           height="5.2916665"
           x="111.125"
           y="52.916668" />
        <rect
           style="font-variation-settings:normal;opacity:1;vector-effect:none;fill:none;fill-opacity:1;fill-rule:evenodd;stroke:#000000;stroke-width:0.264583;stroke-linecap:butt;stroke-linejoin:miter;stroke-miterlimit:4;stroke-dasharray:none;stroke-dashoffset:0;stroke-opacity:1;stop-color:#000000;stop-opacity:1"
           id="rect932"
           width="5.2916665"
           height="5.2916665"
           x="116.41666"
           y="52.916668" />
        <rect
           style="font-variation-settings:normal;opacity:1;vector-effect:none;fill:none;fill-opacity:1;fill-rule:evenodd;stroke:#000000;stroke-width:0.264583;stroke-linecap:butt;stroke-linejoin:miter;stroke-miterlimit:4;stroke-dasharray:none;stroke-dashoffset:0;stroke-opacity:1;stop-color:#000000;stop-opacity:1"
           id="rect934"
           width="5.2916665"
           height="5.2916665"
           x="121.70834"
           y="52.916668" />
        <rect
           style="font-variation-settings:normal;opacity:1;vector-effect:none;fill:none;fill-opacity:1;fill-rule:evenodd;stroke:#000000;stroke-width:0.264583;stroke-linecap:butt;stroke-linejoin:miter;stroke-miterlimit:4;stroke-dasharray:none;stroke-dashoffset:0;stroke-opacity:1;stop-color:#000000;stop-opacity:1"
           id="rect936"
           width="5.2916665"
           height="5.2916665"
           x="127"
           y="52.916668" />
      </g>
      <g
         id="g2692"
         transform="translate(-10.583335,-37.041651)">
        <rect
           style="font-variation-settings:normal;opacity:1;vector-effect:none;fill:none;fill-opacity:1;fill-rule:evenodd;stroke:#000000;stroke-width:0.264583;stroke-linecap:butt;stroke-linejoin:miter;stroke-miterlimit:4;stroke-dasharray:none;stroke-dashoffset:0;stroke-opacity:1;stop-color:#000000;stop-opacity:1"
           id="rect938"
           width="5.2916665"
           height="5.2916665"
           x="42.333332"
           y="95.249992" />
        <rect
           style="font-variation-settings:normal;opacity:1;vector-effect:none;fill:none;fill-opacity:1;fill-rule:evenodd;stroke:#000000;stroke-width:0.264583;stroke-linecap:butt;stroke-linejoin:miter;stroke-miterlimit:4;stroke-dasharray:none;stroke-dashoffset:0;stroke-opacity:1;stop-color:#000000;stop-opacity:1"
           id="rect940"
           width="5.2916665"
           height="5.2916665"
           x="47.625"
           y="95.249992" />
        <rect
           style="font-variation-settings:normal;opacity:1;vector-effect:none;fill:none;fill-opacity:1;fill-rule:evenodd;stroke:#000000;stroke-width:0.264583;stroke-linecap:butt;stroke-linejoin:miter;stroke-miterlimit:4;stroke-dasharray:none;stroke-dashoffset:0;stroke-opacity:1;stop-color:#000000;stop-opacity:1"
           id="rect942"
           width="5.2916665"
           height="5.2916665"
           x="52.916668"
           y="95.249992" />
        <rect
           style="font-variation-settings:normal;opacity:1;vector-effect:none;fill:none;fill-opacity:1;fill-rule:evenodd;stroke:#000000;stroke-width:0.264583;stroke-linecap:butt;stroke-linejoin:miter;stroke-miterlimit:4;stroke-dasharray:none;stroke-dashoffset:0;stroke-opacity:1;stop-color:#000000;stop-opacity:1"
           id="rect944"
           width="5.2916665"
           height="5.2916665"
           x="58.208336"
           y="95.249992" />
        <rect
           style="font-variation-settings:normal;opacity:1;vector-effect:none;fill:none;fill-opacity:1;fill-rule:evenodd;stroke:#000000;stroke-width:0.264583;stroke-linecap:butt;stroke-linejoin:miter;stroke-miterlimit:4;stroke-dasharray:none;stroke-dashoffset:0;stroke-opacity:1;stop-color:#000000;stop-opacity:1"
           id="rect946"
           width="5.2916665"
           height="5.2916665"
           x="63.500004"
           y="95.249992" />
        <rect
           style="font-variation-settings:normal;opacity:1;vector-effect:none;fill:none;fill-opacity:1;fill-rule:evenodd;stroke:#000000;stroke-width:0.264583;stroke-linecap:butt;stroke-linejoin:miter;stroke-miterlimit:4;stroke-dasharray:none;stroke-dashoffset:0;stroke-opacity:1;stop-color:#000000;stop-opacity:1"
           id="rect948"
           width="5.2916665"
           height="5.2916665"
           x="42.333332"
           y="100.54166" />
        <rect
           style="font-variation-settings:normal;opacity:1;vector-effect:none;fill:none;fill-opacity:1;fill-rule:evenodd;stroke:#000000;stroke-width:0.264583;stroke-linecap:butt;stroke-linejoin:miter;stroke-miterlimit:4;stroke-dasharray:none;stroke-dashoffset:0;stroke-opacity:1;stop-color:#000000;stop-opacity:1"
           id="rect950"
           width="5.2916665"
           height="5.2916665"
           x="47.625"
           y="100.54166" />
        <rect
           style="font-variation-settings:normal;opacity:1;vector-effect:none;fill:none;fill-opacity:1;fill-rule:evenodd;stroke:#000000;stroke-width:0.264583;stroke-linecap:butt;stroke-linejoin:miter;stroke-miterlimit:4;stroke-dasharray:none;stroke-dashoffset:0;stroke-opacity:1;stop-color:#000000;stop-opacity:1"
           id="rect952"
           width="5.2916665"
           height="5.2916665"
           x="52.916668"
           y="100.54166" />
        <rect
           style="font-variation-settings:normal;opacity:1;vector-effect:none;fill:none;fill-opacity:1;fill-rule:evenodd;stroke:#000000;stroke-width:0.264583;stroke-linecap:butt;stroke-linejoin:miter;stroke-miterlimit:4;stroke-dasharray:none;stroke-dashoffset:0;stroke-opacity:1;stop-color:#000000;stop-opacity:1"
           id="rect954"
           width="5.2916665"
           height="5.2916665"
           x="58.208336"
           y="100.54166" />
        <rect
           style="font-variation-settings:normal;opacity:1;vector-effect:none;fill:none;fill-opacity:1;fill-rule:evenodd;stroke:#000000;stroke-width:0.264583;stroke-linecap:butt;stroke-linejoin:miter;stroke-miterlimit:4;stroke-dasharray:none;stroke-dashoffset:0;stroke-opacity:1;stop-color:#000000;stop-opacity:1"
           id="rect956"
           width="5.2916665"
           height="5.2916665"
           x="63.500004"
           y="100.54166" />
        <rect
           style="font-variation-settings:normal;opacity:1;vector-effect:none;fill:none;fill-opacity:1;fill-rule:evenodd;stroke:#000000;stroke-width:0.264583;stroke-linecap:butt;stroke-linejoin:miter;stroke-miterlimit:4;stroke-dasharray:none;stroke-dashoffset:0;stroke-opacity:1;stop-color:#000000;stop-opacity:1"
           id="rect958"
           width="5.2916665"
           height="5.2916665"
           x="42.333332"
           y="105.83332" />
        <rect
           style="font-variation-settings:normal;opacity:1;vector-effect:none;fill:none;fill-opacity:1;fill-rule:evenodd;stroke:#000000;stroke-width:0.264583;stroke-linecap:butt;stroke-linejoin:miter;stroke-miterlimit:4;stroke-dasharray:none;stroke-dashoffset:0;stroke-opacity:1;stop-color:#000000;stop-opacity:1"
           id="rect960"
           width="5.2916665"
           height="5.2916665"
           x="47.625"
           y="105.83332" />
        <rect
           style="font-variation-settings:normal;opacity:1;vector-effect:none;fill:none;fill-opacity:1;fill-rule:evenodd;stroke:#000000;stroke-width:0.264583;stroke-linecap:butt;stroke-linejoin:miter;stroke-miterlimit:4;stroke-dasharray:none;stroke-dashoffset:0;stroke-opacity:1;stop-color:#000000;stop-opacity:1"
           id="rect962"
           width="5.2916665"
           height="5.2916665"
           x="52.916668"
           y="105.83332" />
        <rect
           style="font-variation-settings:normal;opacity:1;vector-effect:none;fill:none;fill-opacity:1;fill-rule:evenodd;stroke:#000000;stroke-width:0.264583;stroke-linecap:butt;stroke-linejoin:miter;stroke-miterlimit:4;stroke-dasharray:none;stroke-dashoffset:0;stroke-opacity:1;stop-color:#000000;stop-opacity:1"
           id="rect964"
           width="5.2916665"
           height="5.2916665"
           x="58.208336"
           y="105.83332" />
        <rect
           style="font-variation-settings:normal;opacity:1;vector-effect:none;fill:none;fill-opacity:1;fill-rule:evenodd;stroke:#000000;stroke-width:0.264583;stroke-linecap:butt;stroke-linejoin:miter;stroke-miterlimit:4;stroke-dasharray:none;stroke-dashoffset:0;stroke-opacity:1;stop-color:#000000;stop-opacity:1"
           id="rect966"
           width="5.2916665"
           height="5.2916665"
           x="63.500004"
           y="105.83332" />
        <rect
           style="font-variation-settings:normal;opacity:1;vector-effect:none;fill:none;fill-opacity:1;fill-rule:evenodd;stroke:#000000;stroke-width:0.264583;stroke-linecap:butt;stroke-linejoin:miter;stroke-miterlimit:4;stroke-dasharray:none;stroke-dashoffset:0;stroke-opacity:1;stop-color:#000000;stop-opacity:1"
           id="rect968"
           width="5.2916665"
           height="5.2916665"
           x="42.333332"
           y="111.12498" />
        <rect
           style="font-variation-settings:normal;opacity:1;vector-effect:none;fill:none;fill-opacity:1;fill-rule:evenodd;stroke:#000000;stroke-width:0.264583;stroke-linecap:butt;stroke-linejoin:miter;stroke-miterlimit:4;stroke-dasharray:none;stroke-dashoffset:0;stroke-opacity:1;stop-color:#000000;stop-opacity:1"
           id="rect970"
           width="5.2916665"
           height="5.2916665"
           x="47.625"
           y="111.12498" />
        <rect
           style="font-variation-settings:normal;opacity:1;vector-effect:none;fill:none;fill-opacity:1;fill-rule:evenodd;stroke:#000000;stroke-width:0.264583;stroke-linecap:butt;stroke-linejoin:miter;stroke-miterlimit:4;stroke-dasharray:none;stroke-dashoffset:0;stroke-opacity:1;stop-color:#000000;stop-opacity:1"
           id="rect972"
           width="5.2916665"
           height="5.2916665"
           x="52.916668"
           y="111.12498" />
        <rect
           style="font-variation-settings:normal;opacity:1;vector-effect:none;fill:none;fill-opacity:1;fill-rule:evenodd;stroke:#000000;stroke-width:0.264583;stroke-linecap:butt;stroke-linejoin:miter;stroke-miterlimit:4;stroke-dasharray:none;stroke-dashoffset:0;stroke-opacity:1;stop-color:#000000;stop-opacity:1"
           id="rect974"
           width="5.2916665"
           height="5.2916665"
           x="58.208336"
           y="111.12498" />
        <rect
           style="font-variation-settings:normal;opacity:1;vector-effect:none;fill:none;fill-opacity:1;fill-rule:evenodd;stroke:#000000;stroke-width:0.264583;stroke-linecap:butt;stroke-linejoin:miter;stroke-miterlimit:4;stroke-dasharray:none;stroke-dashoffset:0;stroke-opacity:1;stop-color:#000000;stop-opacity:1"
           id="rect976"
           width="5.2916665"
           height="5.2916665"
           x="63.500004"
           y="111.12498" />
        <rect
           style="font-variation-settings:normal;opacity:1;vector-effect:none;fill:none;fill-opacity:1;fill-rule:evenodd;stroke:#000000;stroke-width:0.264583;stroke-linecap:butt;stroke-linejoin:miter;stroke-miterlimit:4;stroke-dasharray:none;stroke-dashoffset:0;stroke-opacity:1;stop-color:#000000;stop-opacity:1"
           id="rect978"
           width="5.2916665"
           height="5.2916665"
           x="42.333332"
           y="116.41664" />
        <rect
           style="font-variation-settings:normal;opacity:1;vector-effect:none;fill:none;fill-opacity:1;fill-rule:evenodd;stroke:#000000;stroke-width:0.264583;stroke-linecap:butt;stroke-linejoin:miter;stroke-miterlimit:4;stroke-dasharray:none;stroke-dashoffset:0;stroke-opacity:1;stop-color:#000000;stop-opacity:1"
           id="rect980"
           width="5.2916665"
           height="5.2916665"
           x="47.625"
           y="116.41664" />
        <rect
           style="font-variation-settings:normal;opacity:1;vector-effect:none;fill:none;fill-opacity:1;fill-rule:evenodd;stroke:#000000;stroke-width:0.264583;stroke-linecap:butt;stroke-linejoin:miter;stroke-miterlimit:4;stroke-dasharray:none;stroke-dashoffset:0;stroke-opacity:1;stop-color:#000000;stop-opacity:1"
           id="rect982"
           width="5.2916665"
           height="5.2916665"
           x="52.916668"
           y="116.41664" />
        <rect
           style="font-variation-settings:normal;opacity:1;vector-effect:none;fill:none;fill-opacity:1;fill-rule:evenodd;stroke:#000000;stroke-width:0.264583;stroke-linecap:butt;stroke-linejoin:miter;stroke-miterlimit:4;stroke-dasharray:none;stroke-dashoffset:0;stroke-opacity:1;stop-color:#000000;stop-opacity:1"
           id="rect984"
           width="5.2916665"
           height="5.2916665"
           x="58.208336"
           y="116.41664" />
        <rect
           style="font-variation-settings:normal;opacity:1;vector-effect:none;fill:none;fill-opacity:1;fill-rule:evenodd;stroke:#000000;stroke-width:0.264583;stroke-linecap:butt;stroke-linejoin:miter;stroke-miterlimit:4;stroke-dasharray:none;stroke-dashoffset:0;stroke-opacity:1;stop-color:#000000;stop-opacity:1"
           id="rect986"
           width="5.2916665"
           height="5.2916665"
           x="63.500004"
           y="116.41664" />
      </g>
      <g
         id="g2832"
         transform="matrix(2.0255815,0,0,2.0255815,-111.58025,-224.74213)">
        <g
           style="fill:#000000;fill-opacity:1"
           id="id-869bc711-0c2a-4153-a3f5-88b9d2a4346b"
           transform="matrix(0.279061,0,0,0.279061,51.710527,98.827178)">
          <g
             transform="translate(148.712,134.765)"
             id="g1243">
            <path
               style="stroke:none;stroke-width:0"
               d="m 4.5625,-6.390625 c 0.015625,-0.03125 0.03125,-0.109375 0.03125,-0.125 0,-0.078125 -0.0625,-0.125 -0.125,-0.125 -0.046875,0 -0.0625,0.015625 -0.1875,0.15625 -0.765625,1.03125 -1.453125,1.09375 -1.75,1.125 C 2.484375,-5.34375 2.375,-5.328125 2.375,-5.15625 c 0,0.109375 0.125,0.109375 0.15625,0.109375 0.15625,0 0.640625,-0.0625 1.109375,-0.40625 L 2.46875,-0.734375 C 2.375,-0.40625 2.296875,-0.3125 1.53125,-0.3125 H 1.453125 c -0.171875,0 -0.28125,0 -0.28125,0.1875 C 1.171875,0 1.28125,0 1.3125,0 1.75,0 2.1875,-0.03125 2.625,-0.03125 3.0625,-0.03125 3.515625,0 3.953125,0 4.03125,0 4.15625,0 4.15625,-0.1875 c 0,-0.125 -0.09375,-0.125 -0.265625,-0.125 H 3.8125 c -0.125,0 -0.296875,0 -0.421875,-0.015625 -0.21875,-0.03125 -0.28125,-0.046875 -0.28125,-0.1875 0,-0.046875 0.015625,-0.140625 0.03125,-0.1875 z m 0,0"
               id="id-7d8bc1b9-a581-4632-8b8b-f469594d169c" />
          </g>
          <g
             transform="translate(153.804,134.765)"
             id="g1246">
            <path
               style="stroke:none;stroke-width:0"
               d="M 1.71875,-0.734375 C 1.640625,-0.390625 1.578125,-0.3125 0.890625,-0.3125 0.734375,-0.3125 0.625,-0.3125 0.625,-0.125 0.625,0 0.71875,0 0.875,0 H 3.9375 C 5.828125,0 7.71875,-2.125 7.71875,-4.359375 7.71875,-5.796875 6.921875,-6.8125 5.625,-6.8125 H 2.515625 c -0.15625,0 -0.265625,0 -0.265625,0.1875 0,0.125 0.078125,0.125 0.265625,0.125 0.3125,0 0.578125,0 0.578125,0.171875 0,0.03125 0,0.046875 -0.03125,0.1875 z m 2.125,-5.40625 C 3.9375,-6.484375 4,-6.5 4.34375,-6.5 h 0.953125 c 0.8125,0 1.59375,0.453125 1.59375,1.75 0,0.59375 -0.28125,2.453125 -1.125,3.453125 -0.484375,0.5625 -1.203125,0.984375 -2,0.984375 H 2.734375 C 2.4375,-0.3125 2.4375,-0.34375 2.4375,-0.40625 c 0,-0.0625 0.03125,-0.15625 0.03125,-0.21875 z m 0,0"
               id="id-eaef0d63-de6e-4955-8083-d03beb50a4e3" />
          </g>
        </g>
        <g
           style="fill:#000000;fill-opacity:1"
           id="id-7f7a6272-b470-4d31-8b00-1769c38ef396"
           transform="matrix(0.279061,0,0,0.279061,51.710527,98.827178)">
          <g
             transform="translate(164.892,134.765)"
             id="g1250">
            <path
               style="stroke:none;stroke-width:0"
               d="m 3.484375,-0.59375 c 0.109375,0.5 0.46875,0.703125 0.828125,0.703125 0.359375,0 0.578125,-0.25 0.71875,-0.5625 0.1875,-0.375 0.296875,-0.953125 0.296875,-0.96875 0,-0.109375 -0.078125,-0.109375 -0.140625,-0.109375 -0.125,0 -0.140625,0.015625 -0.1875,0.234375 -0.140625,0.5625 -0.328125,1.1875 -0.671875,1.1875 -0.265625,0 -0.265625,-0.265625 -0.265625,-0.40625 0,-0.078125 0,-0.234375 0.078125,-0.515625 L 4.8125,-3.734375 c 0.046875,-0.140625 0.046875,-0.15625 0.046875,-0.21875 0,-0.203125 -0.171875,-0.25 -0.28125,-0.25 -0.3125,0 -0.375,0.328125 -0.390625,0.390625 C 4,-4.25 3.671875,-4.40625 3.359375,-4.40625 c -1.109375,0 -2.28125,1.515625 -2.28125,2.96875 0,0.84375 0.453125,1.546875 1.203125,1.546875 0.359375,0 0.796875,-0.203125 1.203125,-0.703125 z m 0.53125,-2.53125 -0.46875,1.890625 c -0.078125,0.3125 -0.703125,1.125 -1.25,1.125 C 1.828125,-0.109375 1.75,-0.703125 1.75,-1 1.75,-1.5 2.0625,-2.65625 2.25,-3.078125 2.5,-3.6875 2.953125,-4.1875 3.359375,-4.1875 c 0.4375,0 0.6875,0.515625 0.6875,0.9375 0,0.015625 -0.015625,0.0625 -0.03125,0.125 z m 0,0"
               id="id-acd77f3c-9dbe-473f-8fc2-4177c055997e" />
          </g>
          <g
             transform="translate(169.984,134.765)"
             id="g1253">
            <path
               style="stroke:none;stroke-width:0"
               d="m 2.578125,-2.875 c 0,-0.03125 0.453125,-1.3125 1.3125,-1.3125 0.046875,0 0.328125,0 0.53125,0.140625 C 4.0625,-3.9375 4.03125,-3.625 4.03125,-3.5625 c 0,0.125 0.09375,0.3125 0.359375,0.3125 0.171875,0 0.484375,-0.140625 0.484375,-0.53125 0,-0.515625 -0.640625,-0.625 -0.984375,-0.625 -0.6875,0 -1.046875,0.5 -1.203125,0.71875 -0.109375,-0.53125 -0.5,-0.71875 -0.828125,-0.71875 -0.359375,0 -0.546875,0.234375 -0.71875,0.53125 -0.1875,0.390625 -0.3125,0.984375 -0.3125,1 0,0.109375 0.09375,0.109375 0.15625,0.109375 0.125,0 0.125,-0.015625 0.1875,-0.234375 0.171875,-0.703125 0.359375,-1.1875 0.671875,-1.1875 0.265625,0 0.265625,0.296875 0.265625,0.40625 0,0.15625 -0.03125,0.34375 -0.078125,0.5 l -0.75,2.984375 c -0.015625,0.0625 -0.03125,0.125 -0.03125,0.140625 0,0.109375 0.078125,0.265625 0.28125,0.265625 0.296875,0 0.375,-0.28125 0.390625,-0.375 z m 0,0"
               id="id-d72bd600-f008-48ec-8096-b63eda8daf14" />
          </g>
          <g
             transform="translate(174.185,134.765)"
             id="g1256">
            <path
               style="stroke:none;stroke-width:0"
               d="m 2.578125,-2.875 c 0,-0.03125 0.453125,-1.3125 1.3125,-1.3125 0.046875,0 0.328125,0 0.53125,0.140625 C 4.0625,-3.9375 4.03125,-3.625 4.03125,-3.5625 c 0,0.125 0.09375,0.3125 0.359375,0.3125 0.171875,0 0.484375,-0.140625 0.484375,-0.53125 0,-0.515625 -0.640625,-0.625 -0.984375,-0.625 -0.6875,0 -1.046875,0.5 -1.203125,0.71875 -0.109375,-0.53125 -0.5,-0.71875 -0.828125,-0.71875 -0.359375,0 -0.546875,0.234375 -0.71875,0.53125 -0.1875,0.390625 -0.3125,0.984375 -0.3125,1 0,0.109375 0.09375,0.109375 0.15625,0.109375 0.125,0 0.125,-0.015625 0.1875,-0.234375 0.171875,-0.703125 0.359375,-1.1875 0.671875,-1.1875 0.265625,0 0.265625,0.296875 0.265625,0.40625 0,0.15625 -0.03125,0.34375 -0.078125,0.5 l -0.75,2.984375 c -0.015625,0.0625 -0.03125,0.125 -0.03125,0.140625 0,0.109375 0.078125,0.265625 0.28125,0.265625 0.296875,0 0.375,-0.28125 0.390625,-0.375 z m 0,0"
               id="id-2c5e140a-727f-4c41-bf19-50623df6d162" />
          </g>
        </g>
        <g
           style="fill:#000000;fill-opacity:1"
           id="id-705869af-6876-4e9c-b602-22806e4a368c"
           transform="matrix(0.279061,0,0,0.279061,51.710527,98.827178)">
          <g
             transform="translate(177.879,134.765)"
             id="g1260">
            <path
               style="stroke:none;stroke-width:0"
               d="m 3.484375,-0.59375 c 0.109375,0.5 0.46875,0.703125 0.828125,0.703125 0.359375,0 0.578125,-0.25 0.71875,-0.5625 0.1875,-0.375 0.296875,-0.953125 0.296875,-0.96875 0,-0.109375 -0.078125,-0.109375 -0.140625,-0.109375 -0.125,0 -0.140625,0.015625 -0.1875,0.234375 -0.140625,0.5625 -0.328125,1.1875 -0.671875,1.1875 -0.265625,0 -0.265625,-0.265625 -0.265625,-0.40625 0,-0.078125 0,-0.234375 0.078125,-0.515625 L 4.8125,-3.734375 c 0.046875,-0.140625 0.046875,-0.15625 0.046875,-0.21875 0,-0.203125 -0.171875,-0.25 -0.28125,-0.25 -0.3125,0 -0.375,0.328125 -0.390625,0.390625 C 4,-4.25 3.671875,-4.40625 3.359375,-4.40625 c -1.109375,0 -2.28125,1.515625 -2.28125,2.96875 0,0.84375 0.453125,1.546875 1.203125,1.546875 0.359375,0 0.796875,-0.203125 1.203125,-0.703125 z m 0.53125,-2.53125 -0.46875,1.890625 c -0.078125,0.3125 -0.703125,1.125 -1.25,1.125 C 1.828125,-0.109375 1.75,-0.703125 1.75,-1 1.75,-1.5 2.0625,-2.65625 2.25,-3.078125 2.5,-3.6875 2.953125,-4.1875 3.359375,-4.1875 c 0.4375,0 0.6875,0.515625 0.6875,0.9375 0,0.015625 -0.015625,0.0625 -0.03125,0.125 z m 0,0"
               id="id-ce84767a-654c-41fb-a8a9-066514b8823f" />
          </g>
          <g
             transform="translate(182.97,134.765)"
             id="g1263">
            <path
               style="stroke:none;stroke-width:0"
               d="m 3.5625,-0.265625 c -0.375,1.65625 -1.125,2.09375 -1.625,2.09375 -0.46875,0 -0.609375,-0.375 -0.609375,-0.4375 0,0 0,-0.015625 0.078125,-0.03125 C 1.71875,1.3125 1.828125,1.046875 1.828125,0.890625 1.828125,0.671875 1.671875,0.5625 1.5,0.5625 c -0.125,0 -0.515625,0.0625 -0.515625,0.625 0,0.515625 0.40625,0.859375 0.953125,0.859375 1.046875,0 1.953125,-1.03125 2.203125,-2.015625 l 0.96875,-3.921875 C 5.125,-3.953125 5.140625,-4 5.140625,-4.03125 5.140625,-4.140625 5.0625,-4.296875 4.859375,-4.296875 4.5625,-4.296875 4.5,-4 4.46875,-3.921875 L 3.75,-1 c -0.078125,0.296875 -0.46875,0.890625 -1.0625,0.890625 -0.4375,0 -0.53125,-0.4375 -0.53125,-0.765625 0,-0.609375 0.328125,-1.5 0.578125,-2.1875 0.078125,-0.203125 0.125,-0.34375 0.125,-0.53125 0,-0.5 -0.328125,-0.8125 -0.75,-0.8125 -0.9375,0 -1.28125,1.46875 -1.28125,1.53125 0,0.109375 0.09375,0.109375 0.15625,0.109375 0.125,0 0.125,-0.03125 0.171875,-0.171875 0.078125,-0.296875 0.34375,-1.25 0.921875,-1.25 0.109375,0 0.21875,0.03125 0.21875,0.296875 0,0.234375 -0.09375,0.5 -0.234375,0.890625 -0.265625,0.703125 -0.515625,1.4375 -0.515625,1.953125 0,0.875 0.578125,1.15625 1.109375,1.15625 0.46875,0 0.765625,-0.234375 0.90625,-0.375 z m 0,0"
               id="id-3684a585-9b5b-4f47-8f52-51a1cc028e77" />
          </g>
        </g>
      </g>
      <g
         id="g2851"
         transform="matrix(2.0255815,0,0,2.0255815,-135.46248,-203.57547)">
        <g
           style="fill:#000000;fill-opacity:1"
           id="id-e739ec8a-59cb-431c-a298-5767d7433618"
           transform="matrix(0.279061,0,0,0.279061,51.710527,98.827178)">
          <g
             transform="translate(191.126,134.765)"
             id="g1267">
            <path
               style="stroke:none;stroke-width:0"
               d="M 1.515625,-0.734375 C 2.015625,-1.59375 2.734375,-2 3.046875,-2.1875 4.578125,-3.046875 5.5,-3.671875 5.5,-4.953125 c 0,-1.140625 -0.78125,-1.6875 -1.5625,-1.6875 -1.46875,0 -2.296875,2.015625 -2.296875,2.65625 0,0.203125 0.0625,0.640625 0.515625,0.640625 0.78125,0 1.203125,-1.203125 1.203125,-1.578125 0,-0.1875 -0.09375,-0.53125 -0.21875,-0.53125 -0.0625,0 -0.109375,0.046875 -0.109375,0.109375 0,0.015625 0,0.046875 0.015625,0.0625 0.046875,0.125 0.09375,0.25 0.09375,0.359375 0,0.296875 -0.375,1.359375 -0.984375,1.359375 -0.109375,0 -0.21875,-0.0625 -0.21875,-0.328125 0,-0.65625 0.75,-2.53125 1.96875,-2.53125 0.40625,0 0.875,0.265625 0.875,1.09375 0,1.453125 -0.859375,2.28125 -1.84375,2.875 C 2.484375,-2.1875 2.0625,-1.9375 1.640625,-1.421875 0.953125,-0.59375 0.84375,0.109375 0.84375,0.125 c 0,0.09375 0.09375,0.09375 0.140625,0.09375 0.125,0 0.140625,-0.015625 0.171875,-0.125 0.078125,-0.28125 0.265625,-0.640625 0.5625,-0.640625 0.3125,0 0.59375,0.203125 0.84375,0.375 C 2.828125,0 3.125,0.21875 3.53125,0.21875 c 1.140625,0 1.609375,-1.734375 1.609375,-1.84375 0,-0.09375 -0.09375,-0.09375 -0.15625,-0.09375 -0.125,0 -0.125,0 -0.171875,0.15625 -0.140625,0.421875 -0.53125,1.078125 -1.1875,1.078125 -0.28125,0 -0.671875,-0.078125 -0.828125,-0.109375 -0.359375,-0.078125 -0.75,-0.171875 -1.0625,-0.171875 -0.109375,0 -0.203125,0.015625 -0.21875,0.03125 z m 0,0"
               id="id-a3fe2a86-5254-43df-acdc-79044a5060e1" />
          </g>
          <g
             transform="translate(196.218,134.765)"
             id="g1270">
            <path
               style="stroke:none;stroke-width:0"
               d="M 1.71875,-0.734375 C 1.640625,-0.390625 1.578125,-0.3125 0.890625,-0.3125 0.734375,-0.3125 0.625,-0.3125 0.625,-0.125 0.625,0 0.71875,0 0.875,0 H 3.9375 C 5.828125,0 7.71875,-2.125 7.71875,-4.359375 7.71875,-5.796875 6.921875,-6.8125 5.625,-6.8125 H 2.515625 c -0.15625,0 -0.265625,0 -0.265625,0.1875 0,0.125 0.078125,0.125 0.265625,0.125 0.3125,0 0.578125,0 0.578125,0.171875 0,0.03125 0,0.046875 -0.03125,0.1875 z m 2.125,-5.40625 C 3.9375,-6.484375 4,-6.5 4.34375,-6.5 h 0.953125 c 0.8125,0 1.59375,0.453125 1.59375,1.75 0,0.59375 -0.28125,2.453125 -1.125,3.453125 -0.484375,0.5625 -1.203125,0.984375 -2,0.984375 H 2.734375 C 2.4375,-0.3125 2.4375,-0.34375 2.4375,-0.40625 c 0,-0.0625 0.03125,-0.15625 0.03125,-0.21875 z m 0,0"
               id="id-96396a9a-a0b7-40e9-9a53-22f30d3f0e84" />
          </g>
        </g>
        <g
           style="fill:#000000;fill-opacity:1"
           id="id-c861bbe5-70e6-445c-bff4-a01e1b16fd72"
           transform="matrix(0.279061,0,0,0.279061,51.710527,98.827178)">
          <g
             transform="translate(207.306,134.765)"
             id="g1274">
            <path
               style="stroke:none;stroke-width:0"
               d="m 3.484375,-0.59375 c 0.109375,0.5 0.46875,0.703125 0.828125,0.703125 0.359375,0 0.578125,-0.25 0.71875,-0.5625 0.1875,-0.375 0.296875,-0.953125 0.296875,-0.96875 0,-0.109375 -0.078125,-0.109375 -0.140625,-0.109375 -0.125,0 -0.140625,0.015625 -0.1875,0.234375 -0.140625,0.5625 -0.328125,1.1875 -0.671875,1.1875 -0.265625,0 -0.265625,-0.265625 -0.265625,-0.40625 0,-0.078125 0,-0.234375 0.078125,-0.515625 L 4.8125,-3.734375 c 0.046875,-0.140625 0.046875,-0.15625 0.046875,-0.21875 0,-0.203125 -0.171875,-0.25 -0.28125,-0.25 -0.3125,0 -0.375,0.328125 -0.390625,0.390625 C 4,-4.25 3.671875,-4.40625 3.359375,-4.40625 c -1.109375,0 -2.28125,1.515625 -2.28125,2.96875 0,0.84375 0.453125,1.546875 1.203125,1.546875 0.359375,0 0.796875,-0.203125 1.203125,-0.703125 z m 0.53125,-2.53125 -0.46875,1.890625 c -0.078125,0.3125 -0.703125,1.125 -1.25,1.125 C 1.828125,-0.109375 1.75,-0.703125 1.75,-1 1.75,-1.5 2.0625,-2.65625 2.25,-3.078125 2.5,-3.6875 2.953125,-4.1875 3.359375,-4.1875 c 0.4375,0 0.6875,0.515625 0.6875,0.9375 0,0.015625 -0.015625,0.0625 -0.03125,0.125 z m 0,0"
               id="id-b9a6be90-a7e8-4d3b-8dba-25728b8cdadc" />
          </g>
          <g
             transform="translate(212.398,134.765)"
             id="g1277">
            <path
               style="stroke:none;stroke-width:0"
               d="m 2.578125,-2.875 c 0,-0.03125 0.453125,-1.3125 1.3125,-1.3125 0.046875,0 0.328125,0 0.53125,0.140625 C 4.0625,-3.9375 4.03125,-3.625 4.03125,-3.5625 c 0,0.125 0.09375,0.3125 0.359375,0.3125 0.171875,0 0.484375,-0.140625 0.484375,-0.53125 0,-0.515625 -0.640625,-0.625 -0.984375,-0.625 -0.6875,0 -1.046875,0.5 -1.203125,0.71875 -0.109375,-0.53125 -0.5,-0.71875 -0.828125,-0.71875 -0.359375,0 -0.546875,0.234375 -0.71875,0.53125 -0.1875,0.390625 -0.3125,0.984375 -0.3125,1 0,0.109375 0.09375,0.109375 0.15625,0.109375 0.125,0 0.125,-0.015625 0.1875,-0.234375 0.171875,-0.703125 0.359375,-1.1875 0.671875,-1.1875 0.265625,0 0.265625,0.296875 0.265625,0.40625 0,0.15625 -0.03125,0.34375 -0.078125,0.5 l -0.75,2.984375 c -0.015625,0.0625 -0.03125,0.125 -0.03125,0.140625 0,0.109375 0.078125,0.265625 0.28125,0.265625 0.296875,0 0.375,-0.28125 0.390625,-0.375 z m 0,0"
               id="id-13ad0ddc-d3d0-4146-8b92-cb0130dc2e3c" />
          </g>
          <g
             transform="translate(216.599,134.765)"
             id="g1280">
            <path
               style="stroke:none;stroke-width:0"
               d="m 2.578125,-2.875 c 0,-0.03125 0.453125,-1.3125 1.3125,-1.3125 0.046875,0 0.328125,0 0.53125,0.140625 C 4.0625,-3.9375 4.03125,-3.625 4.03125,-3.5625 c 0,0.125 0.09375,0.3125 0.359375,0.3125 0.171875,0 0.484375,-0.140625 0.484375,-0.53125 0,-0.515625 -0.640625,-0.625 -0.984375,-0.625 -0.6875,0 -1.046875,0.5 -1.203125,0.71875 -0.109375,-0.53125 -0.5,-0.71875 -0.828125,-0.71875 -0.359375,0 -0.546875,0.234375 -0.71875,0.53125 -0.1875,0.390625 -0.3125,0.984375 -0.3125,1 0,0.109375 0.09375,0.109375 0.15625,0.109375 0.125,0 0.125,-0.015625 0.1875,-0.234375 0.171875,-0.703125 0.359375,-1.1875 0.671875,-1.1875 0.265625,0 0.265625,0.296875 0.265625,0.40625 0,0.15625 -0.03125,0.34375 -0.078125,0.5 l -0.75,2.984375 c -0.015625,0.0625 -0.03125,0.125 -0.03125,0.140625 0,0.109375 0.078125,0.265625 0.28125,0.265625 0.296875,0 0.375,-0.28125 0.390625,-0.375 z m 0,0"
               id="id-5ff251d3-0b6b-4096-9dc7-3c8a232fa04a" />
          </g>
        </g>
        <g
           style="fill:#000000;fill-opacity:1"
           id="id-caa222f6-18cc-4417-afd0-d78e105a58b3"
           transform="matrix(0.279061,0,0,0.279061,51.710527,98.827178)">
          <g
             transform="translate(220.292,134.765)"
             id="g1284">
            <path
               style="stroke:none;stroke-width:0"
               d="m 3.484375,-0.59375 c 0.109375,0.5 0.46875,0.703125 0.828125,0.703125 0.359375,0 0.578125,-0.25 0.71875,-0.5625 0.1875,-0.375 0.296875,-0.953125 0.296875,-0.96875 0,-0.109375 -0.078125,-0.109375 -0.140625,-0.109375 -0.125,0 -0.140625,0.015625 -0.1875,0.234375 -0.140625,0.5625 -0.328125,1.1875 -0.671875,1.1875 -0.265625,0 -0.265625,-0.265625 -0.265625,-0.40625 0,-0.078125 0,-0.234375 0.078125,-0.515625 L 4.8125,-3.734375 c 0.046875,-0.140625 0.046875,-0.15625 0.046875,-0.21875 0,-0.203125 -0.171875,-0.25 -0.28125,-0.25 -0.3125,0 -0.375,0.328125 -0.390625,0.390625 C 4,-4.25 3.671875,-4.40625 3.359375,-4.40625 c -1.109375,0 -2.28125,1.515625 -2.28125,2.96875 0,0.84375 0.453125,1.546875 1.203125,1.546875 0.359375,0 0.796875,-0.203125 1.203125,-0.703125 z m 0.53125,-2.53125 -0.46875,1.890625 c -0.078125,0.3125 -0.703125,1.125 -1.25,1.125 C 1.828125,-0.109375 1.75,-0.703125 1.75,-1 1.75,-1.5 2.0625,-2.65625 2.25,-3.078125 2.5,-3.6875 2.953125,-4.1875 3.359375,-4.1875 c 0.4375,0 0.6875,0.515625 0.6875,0.9375 0,0.015625 -0.015625,0.0625 -0.03125,0.125 z m 0,0"
               id="id-f080d7cd-4766-4a3d-9811-9303d36179de" />
          </g>
          <g
             transform="translate(225.384,134.765)"
             id="g1287">
            <path
               style="stroke:none;stroke-width:0"
               d="m 3.5625,-0.265625 c -0.375,1.65625 -1.125,2.09375 -1.625,2.09375 -0.46875,0 -0.609375,-0.375 -0.609375,-0.4375 0,0 0,-0.015625 0.078125,-0.03125 C 1.71875,1.3125 1.828125,1.046875 1.828125,0.890625 1.828125,0.671875 1.671875,0.5625 1.5,0.5625 c -0.125,0 -0.515625,0.0625 -0.515625,0.625 0,0.515625 0.40625,0.859375 0.953125,0.859375 1.046875,0 1.953125,-1.03125 2.203125,-2.015625 l 0.96875,-3.921875 C 5.125,-3.953125 5.140625,-4 5.140625,-4.03125 5.140625,-4.140625 5.0625,-4.296875 4.859375,-4.296875 4.5625,-4.296875 4.5,-4 4.46875,-3.921875 L 3.75,-1 c -0.078125,0.296875 -0.46875,0.890625 -1.0625,0.890625 -0.4375,0 -0.53125,-0.4375 -0.53125,-0.765625 0,-0.609375 0.328125,-1.5 0.578125,-2.1875 0.078125,-0.203125 0.125,-0.34375 0.125,-0.53125 0,-0.5 -0.328125,-0.8125 -0.75,-0.8125 -0.9375,0 -1.28125,1.46875 -1.28125,1.53125 0,0.109375 0.09375,0.109375 0.15625,0.109375 0.125,0 0.125,-0.03125 0.171875,-0.171875 0.078125,-0.296875 0.34375,-1.25 0.921875,-1.25 0.109375,0 0.21875,0.03125 0.21875,0.296875 0,0.234375 -0.09375,0.5 -0.234375,0.890625 -0.265625,0.703125 -0.515625,1.4375 -0.515625,1.953125 0,0.875 0.578125,1.15625 1.109375,1.15625 0.46875,0 0.765625,-0.234375 0.90625,-0.375 z m 0,0"
               id="id-a148f3db-da3f-4f35-8380-27e46becc0af" />
          </g>
        </g>
      </g>
      <g
         id="g2870"
         transform="matrix(2.0255815,0,0,2.0255815,-159.46554,-165.21088)">
        <g
           style="fill:#000000;fill-opacity:1"
           id="id-8335ecf8-8068-46fa-982a-17aabf4d04ca"
           transform="matrix(0.279061,0,0,0.279061,51.710527,98.827178)">
          <g
             transform="translate(233.54,134.765)"
             id="g1291">
            <path
               style="stroke:none;stroke-width:0"
               d="m 3.03125,-3.484375 c -0.171875,0 -0.265625,0 -0.265625,0.203125 0,0.09375 0.078125,0.09375 0.25,0.09375 h 0.28125 c 0.1875,0 0.765625,0.03125 0.765625,0.828125 0,0.1875 -0.078125,1.171875 -0.609375,1.765625 C 3.1875,-0.25 2.71875,0 2.265625,0 1.78125,0 1.28125,-0.296875 1.25,-1.03125 1.6875,-1 1.8125,-1.359375 1.8125,-1.515625 c 0,-0.15625 -0.109375,-0.3125 -0.34375,-0.3125 -0.5,0 -0.515625,0.59375 -0.515625,0.765625 0,0.6875 0.46875,1.28125 1.3125,1.28125 1.265625,0 2.515625,-1.046875 2.515625,-2.25 0,-0.1875 -0.03125,-0.90625 -0.796875,-1.265625 1.046875,-0.34375 1.625,-1.25 1.625,-2 0,-0.859375 -0.65625,-1.34375 -1.4375,-1.34375 -1.1875,0 -2.1875,1.046875 -2.1875,1.890625 0,0.359375 0.1875,0.640625 0.5625,0.640625 0.359375,0 0.828125,-0.34375 0.828125,-0.84375 0,-0.1875 -0.109375,-0.5 -0.234375,-0.5 -0.0625,0 -0.109375,0.046875 -0.109375,0.109375 0,0.03125 0.015625,0.046875 0.046875,0.109375 0,0.015625 0.078125,0.140625 0.078125,0.296875 0,0.328125 -0.328125,0.609375 -0.609375,0.609375 -0.203125,0 -0.265625,-0.1875 -0.265625,-0.359375 0,-0.796875 0.90625,-1.734375 1.875,-1.734375 0.375,0 0.84375,0.1875 0.84375,0.90625 0,0.15625 -0.09375,2.03125 -1.734375,2.03125 z m 0,0"
               id="id-965595ea-b7d1-42e5-8117-7d65f2da770a" />
          </g>
          <g
             transform="translate(238.631,134.765)"
             id="g1294">
            <path
               style="stroke:none;stroke-width:0"
               d="M 1.71875,-0.734375 C 1.640625,-0.390625 1.578125,-0.3125 0.890625,-0.3125 0.734375,-0.3125 0.625,-0.3125 0.625,-0.125 0.625,0 0.71875,0 0.875,0 H 3.9375 C 5.828125,0 7.71875,-2.125 7.71875,-4.359375 7.71875,-5.796875 6.921875,-6.8125 5.625,-6.8125 H 2.515625 c -0.15625,0 -0.265625,0 -0.265625,0.1875 0,0.125 0.078125,0.125 0.265625,0.125 0.3125,0 0.578125,0 0.578125,0.171875 0,0.03125 0,0.046875 -0.03125,0.1875 z m 2.125,-5.40625 C 3.9375,-6.484375 4,-6.5 4.34375,-6.5 h 0.953125 c 0.8125,0 1.59375,0.453125 1.59375,1.75 0,0.59375 -0.28125,2.453125 -1.125,3.453125 -0.484375,0.5625 -1.203125,0.984375 -2,0.984375 H 2.734375 C 2.4375,-0.3125 2.4375,-0.34375 2.4375,-0.40625 c 0,-0.0625 0.03125,-0.15625 0.03125,-0.21875 z m 0,0"
               id="id-6bfcca82-a291-4107-bd45-a2659174a909" />
          </g>
        </g>
        <g
           style="fill:#000000;fill-opacity:1"
           id="id-da672978-daa9-44d1-9047-09d02a5c6028"
           transform="matrix(0.279061,0,0,0.279061,51.710527,98.827178)">
          <g
             transform="translate(249.72,134.765)"
             id="g1298">
            <path
               style="stroke:none;stroke-width:0"
               d="m 3.484375,-0.59375 c 0.109375,0.5 0.46875,0.703125 0.828125,0.703125 0.359375,0 0.578125,-0.25 0.71875,-0.5625 0.1875,-0.375 0.296875,-0.953125 0.296875,-0.96875 0,-0.109375 -0.078125,-0.109375 -0.140625,-0.109375 -0.125,0 -0.140625,0.015625 -0.1875,0.234375 -0.140625,0.5625 -0.328125,1.1875 -0.671875,1.1875 -0.265625,0 -0.265625,-0.265625 -0.265625,-0.40625 0,-0.078125 0,-0.234375 0.078125,-0.515625 L 4.8125,-3.734375 c 0.046875,-0.140625 0.046875,-0.15625 0.046875,-0.21875 0,-0.203125 -0.171875,-0.25 -0.28125,-0.25 -0.3125,0 -0.375,0.328125 -0.390625,0.390625 C 4,-4.25 3.671875,-4.40625 3.359375,-4.40625 c -1.109375,0 -2.28125,1.515625 -2.28125,2.96875 0,0.84375 0.453125,1.546875 1.203125,1.546875 0.359375,0 0.796875,-0.203125 1.203125,-0.703125 z m 0.53125,-2.53125 -0.46875,1.890625 c -0.078125,0.3125 -0.703125,1.125 -1.25,1.125 C 1.828125,-0.109375 1.75,-0.703125 1.75,-1 1.75,-1.5 2.0625,-2.65625 2.25,-3.078125 2.5,-3.6875 2.953125,-4.1875 3.359375,-4.1875 c 0.4375,0 0.6875,0.515625 0.6875,0.9375 0,0.015625 -0.015625,0.0625 -0.03125,0.125 z m 0,0"
               id="id-8c42093b-5e81-4c29-9f7d-939ee1436691" />
          </g>
          <g
             transform="translate(254.812,134.765)"
             id="g1301">
            <path
               style="stroke:none;stroke-width:0"
               d="m 2.578125,-2.875 c 0,-0.03125 0.453125,-1.3125 1.3125,-1.3125 0.046875,0 0.328125,0 0.53125,0.140625 C 4.0625,-3.9375 4.03125,-3.625 4.03125,-3.5625 c 0,0.125 0.09375,0.3125 0.359375,0.3125 0.171875,0 0.484375,-0.140625 0.484375,-0.53125 0,-0.515625 -0.640625,-0.625 -0.984375,-0.625 -0.6875,0 -1.046875,0.5 -1.203125,0.71875 -0.109375,-0.53125 -0.5,-0.71875 -0.828125,-0.71875 -0.359375,0 -0.546875,0.234375 -0.71875,0.53125 -0.1875,0.390625 -0.3125,0.984375 -0.3125,1 0,0.109375 0.09375,0.109375 0.15625,0.109375 0.125,0 0.125,-0.015625 0.1875,-0.234375 0.171875,-0.703125 0.359375,-1.1875 0.671875,-1.1875 0.265625,0 0.265625,0.296875 0.265625,0.40625 0,0.15625 -0.03125,0.34375 -0.078125,0.5 l -0.75,2.984375 c -0.015625,0.0625 -0.03125,0.125 -0.03125,0.140625 0,0.109375 0.078125,0.265625 0.28125,0.265625 0.296875,0 0.375,-0.28125 0.390625,-0.375 z m 0,0"
               id="id-f8ebb1fa-d356-4300-8e4d-c2c4a4a415a0" />
          </g>
          <g
             transform="translate(259.013,134.765)"
             id="g1304">
            <path
               style="stroke:none;stroke-width:0"
               d="m 2.578125,-2.875 c 0,-0.03125 0.453125,-1.3125 1.3125,-1.3125 0.046875,0 0.328125,0 0.53125,0.140625 C 4.0625,-3.9375 4.03125,-3.625 4.03125,-3.5625 c 0,0.125 0.09375,0.3125 0.359375,0.3125 0.171875,0 0.484375,-0.140625 0.484375,-0.53125 0,-0.515625 -0.640625,-0.625 -0.984375,-0.625 -0.6875,0 -1.046875,0.5 -1.203125,0.71875 -0.109375,-0.53125 -0.5,-0.71875 -0.828125,-0.71875 -0.359375,0 -0.546875,0.234375 -0.71875,0.53125 -0.1875,0.390625 -0.3125,0.984375 -0.3125,1 0,0.109375 0.09375,0.109375 0.15625,0.109375 0.125,0 0.125,-0.015625 0.1875,-0.234375 0.171875,-0.703125 0.359375,-1.1875 0.671875,-1.1875 0.265625,0 0.265625,0.296875 0.265625,0.40625 0,0.15625 -0.03125,0.34375 -0.078125,0.5 l -0.75,2.984375 c -0.015625,0.0625 -0.03125,0.125 -0.03125,0.140625 0,0.109375 0.078125,0.265625 0.28125,0.265625 0.296875,0 0.375,-0.28125 0.390625,-0.375 z m 0,0"
               id="id-36a44a7d-5455-457f-914e-019a492b138c" />
          </g>
        </g>
        <g
           style="fill:#000000;fill-opacity:1"
           id="id-0c31b35f-7bad-47c7-a840-f2e3c02c98a0"
           transform="matrix(0.279061,0,0,0.279061,51.710527,98.827178)">
          <g
             transform="translate(262.696,134.765)"
             id="g1308">
            <path
               style="stroke:none;stroke-width:0"
               d="m 3.484375,-0.59375 c 0.109375,0.5 0.46875,0.703125 0.828125,0.703125 0.359375,0 0.578125,-0.25 0.71875,-0.5625 0.1875,-0.375 0.296875,-0.953125 0.296875,-0.96875 0,-0.109375 -0.078125,-0.109375 -0.140625,-0.109375 -0.125,0 -0.140625,0.015625 -0.1875,0.234375 -0.140625,0.5625 -0.328125,1.1875 -0.671875,1.1875 -0.265625,0 -0.265625,-0.265625 -0.265625,-0.40625 0,-0.078125 0,-0.234375 0.078125,-0.515625 L 4.8125,-3.734375 c 0.046875,-0.140625 0.046875,-0.15625 0.046875,-0.21875 0,-0.203125 -0.171875,-0.25 -0.28125,-0.25 -0.3125,0 -0.375,0.328125 -0.390625,0.390625 C 4,-4.25 3.671875,-4.40625 3.359375,-4.40625 c -1.109375,0 -2.28125,1.515625 -2.28125,2.96875 0,0.84375 0.453125,1.546875 1.203125,1.546875 0.359375,0 0.796875,-0.203125 1.203125,-0.703125 z m 0.53125,-2.53125 -0.46875,1.890625 c -0.078125,0.3125 -0.703125,1.125 -1.25,1.125 C 1.828125,-0.109375 1.75,-0.703125 1.75,-1 1.75,-1.5 2.0625,-2.65625 2.25,-3.078125 2.5,-3.6875 2.953125,-4.1875 3.359375,-4.1875 c 0.4375,0 0.6875,0.515625 0.6875,0.9375 0,0.015625 -0.015625,0.0625 -0.03125,0.125 z m 0,0"
               id="id-93a21ad7-8054-4f86-a73a-a4af7d211b98" />
          </g>
          <g
             transform="translate(267.788,134.765)"
             id="g1311">
            <path
               style="stroke:none;stroke-width:0"
               d="m 3.5625,-0.265625 c -0.375,1.65625 -1.125,2.09375 -1.625,2.09375 -0.46875,0 -0.609375,-0.375 -0.609375,-0.4375 0,0 0,-0.015625 0.078125,-0.03125 C 1.71875,1.3125 1.828125,1.046875 1.828125,0.890625 1.828125,0.671875 1.671875,0.5625 1.5,0.5625 c -0.125,0 -0.515625,0.0625 -0.515625,0.625 0,0.515625 0.40625,0.859375 0.953125,0.859375 1.046875,0 1.953125,-1.03125 2.203125,-2.015625 l 0.96875,-3.921875 C 5.125,-3.953125 5.140625,-4 5.140625,-4.03125 5.140625,-4.140625 5.0625,-4.296875 4.859375,-4.296875 4.5625,-4.296875 4.5,-4 4.46875,-3.921875 L 3.75,-1 c -0.078125,0.296875 -0.46875,0.890625 -1.0625,0.890625 -0.4375,0 -0.53125,-0.4375 -0.53125,-0.765625 0,-0.609375 0.328125,-1.5 0.578125,-2.1875 0.078125,-0.203125 0.125,-0.34375 0.125,-0.53125 0,-0.5 -0.328125,-0.8125 -0.75,-0.8125 -0.9375,0 -1.28125,1.46875 -1.28125,1.53125 0,0.109375 0.09375,0.109375 0.15625,0.109375 0.125,0 0.125,-0.03125 0.171875,-0.171875 0.078125,-0.296875 0.34375,-1.25 0.921875,-1.25 0.109375,0 0.21875,0.03125 0.21875,0.296875 0,0.234375 -0.09375,0.5 -0.234375,0.890625 -0.265625,0.703125 -0.515625,1.4375 -0.515625,1.953125 0,0.875 0.578125,1.15625 1.109375,1.15625 0.46875,0 0.765625,-0.234375 0.90625,-0.375 z m 0,0"
               id="id-b65c6b0a-d4fe-4cf6-b51e-50fccf9e2073" />
          </g>
        </g>
      </g>
      <g
         id="g3164"
         transform="translate(-2.6458206,-5.2916692)">
        <rect
           style="font-variation-settings:normal;vector-effect:none;fill:none;fill-opacity:1;fill-rule:evenodd;stroke:#000000;stroke-width:0.264583;stroke-linecap:butt;stroke-linejoin:miter;stroke-miterlimit:4;stroke-dasharray:none;stroke-dashoffset:0;stroke-opacity:1;stop-color:#000000"
           id="rect988"
           width="5.2916665"
           height="5.2916665"
           x="42.333336"
           y="105.83334" />
        <rect
           style="font-variation-settings:normal;vector-effect:none;fill:none;fill-opacity:1;fill-rule:evenodd;stroke:#000000;stroke-width:0.264583;stroke-linecap:butt;stroke-linejoin:miter;stroke-miterlimit:4;stroke-dasharray:none;stroke-dashoffset:0;stroke-opacity:1;stop-color:#000000"
           id="rect990"
           width="5.2916665"
           height="5.2916665"
           x="47.624992"
           y="105.83334" />
        <rect
           style="font-variation-settings:normal;vector-effect:none;fill:none;fill-opacity:1;fill-rule:evenodd;stroke:#000000;stroke-width:0.264583;stroke-linecap:butt;stroke-linejoin:miter;stroke-miterlimit:4;stroke-dasharray:none;stroke-dashoffset:0;stroke-opacity:1;stop-color:#000000"
           id="rect992"
           width="5.2916665"
           height="5.2916665"
           x="52.916664"
           y="105.83334" />
        <rect
           style="font-variation-settings:normal;vector-effect:none;fill:none;fill-opacity:1;fill-rule:evenodd;stroke:#000000;stroke-width:0.264583;stroke-linecap:butt;stroke-linejoin:miter;stroke-miterlimit:4;stroke-dasharray:none;stroke-dashoffset:0;stroke-opacity:1;stop-color:#000000"
           id="rect994"
           width="5.2916665"
           height="5.2916665"
           x="58.208321"
           y="105.83334" />
        <rect
           style="font-variation-settings:normal;vector-effect:none;fill:none;fill-opacity:1;fill-rule:evenodd;stroke:#000000;stroke-width:0.264583;stroke-linecap:butt;stroke-linejoin:miter;stroke-miterlimit:4;stroke-dasharray:none;stroke-dashoffset:0;stroke-opacity:1;stop-color:#000000"
           id="rect996"
           width="5.2916665"
           height="5.2916665"
           x="63.499977"
           y="105.83334" />
        <rect
           style="font-variation-settings:normal;vector-effect:none;fill:none;fill-opacity:1;fill-rule:evenodd;stroke:#000000;stroke-width:0.264583;stroke-linecap:butt;stroke-linejoin:miter;stroke-miterlimit:4;stroke-dasharray:none;stroke-dashoffset:0;stroke-opacity:1;stop-color:#000000"
           id="rect998"
           width="5.2916665"
           height="5.2916665"
           x="42.333336"
           y="111.125" />
        <rect
           style="font-variation-settings:normal;vector-effect:none;fill:none;fill-opacity:1;fill-rule:evenodd;stroke:#000000;stroke-width:0.264583;stroke-linecap:butt;stroke-linejoin:miter;stroke-miterlimit:4;stroke-dasharray:none;stroke-dashoffset:0;stroke-opacity:1;stop-color:#000000"
           id="rect1000"
           width="5.2916665"
           height="5.2916665"
           x="47.624992"
           y="111.125" />
        <rect
           style="font-variation-settings:normal;vector-effect:none;fill:none;fill-opacity:1;fill-rule:evenodd;stroke:#000000;stroke-width:0.264583;stroke-linecap:butt;stroke-linejoin:miter;stroke-miterlimit:4;stroke-dasharray:none;stroke-dashoffset:0;stroke-opacity:1;stop-color:#000000"
           id="rect1002"
           width="5.2916665"
           height="5.2916665"
           x="52.916664"
           y="111.125" />
        <rect
           style="font-variation-settings:normal;vector-effect:none;fill:none;fill-opacity:1;fill-rule:evenodd;stroke:#000000;stroke-width:0.264583;stroke-linecap:butt;stroke-linejoin:miter;stroke-miterlimit:4;stroke-dasharray:none;stroke-dashoffset:0;stroke-opacity:1;stop-color:#000000"
           id="rect1004"
           width="5.2916665"
           height="5.2916665"
           x="58.208321"
           y="111.125" />
        <rect
           style="font-variation-settings:normal;vector-effect:none;fill:none;fill-opacity:1;fill-rule:evenodd;stroke:#000000;stroke-width:0.264583;stroke-linecap:butt;stroke-linejoin:miter;stroke-miterlimit:4;stroke-dasharray:none;stroke-dashoffset:0;stroke-opacity:1;stop-color:#000000"
           id="rect1006"
           width="5.2916665"
           height="5.2916665"
           x="63.499977"
           y="111.125" />
        <rect
           style="font-variation-settings:normal;vector-effect:none;fill:none;fill-opacity:1;fill-rule:evenodd;stroke:#000000;stroke-width:0.264583;stroke-linecap:butt;stroke-linejoin:miter;stroke-miterlimit:4;stroke-dasharray:none;stroke-dashoffset:0;stroke-opacity:1;stop-color:#000000"
           id="rect1008"
           width="5.2916665"
           height="5.2916665"
           x="42.333336"
           y="116.41667" />
        <rect
           style="font-variation-settings:normal;vector-effect:none;fill:none;fill-opacity:1;fill-rule:evenodd;stroke:#000000;stroke-width:0.264583;stroke-linecap:butt;stroke-linejoin:miter;stroke-miterlimit:4;stroke-dasharray:none;stroke-dashoffset:0;stroke-opacity:1;stop-color:#000000"
           id="rect1010"
           width="5.2916665"
           height="5.2916665"
           x="47.624992"
           y="116.41667" />
        <rect
           style="font-variation-settings:normal;vector-effect:none;fill:none;fill-opacity:1;fill-rule:evenodd;stroke:#000000;stroke-width:0.264583;stroke-linecap:butt;stroke-linejoin:miter;stroke-miterlimit:4;stroke-dasharray:none;stroke-dashoffset:0;stroke-opacity:1;stop-color:#000000"
           id="rect1012"
           width="5.2916665"
           height="5.2916665"
           x="52.916664"
           y="116.41667" />
        <rect
           style="font-variation-settings:normal;vector-effect:none;fill:none;fill-opacity:1;fill-rule:evenodd;stroke:#000000;stroke-width:0.264583;stroke-linecap:butt;stroke-linejoin:miter;stroke-miterlimit:4;stroke-dasharray:none;stroke-dashoffset:0;stroke-opacity:1;stop-color:#000000"
           id="rect1014"
           width="5.2916665"
           height="5.2916665"
           x="58.208321"
           y="116.41667" />
        <rect
           style="font-variation-settings:normal;vector-effect:none;fill:none;fill-opacity:1;fill-rule:evenodd;stroke:#000000;stroke-width:0.264583;stroke-linecap:butt;stroke-linejoin:miter;stroke-miterlimit:4;stroke-dasharray:none;stroke-dashoffset:0;stroke-opacity:1;stop-color:#000000"
           id="rect1016"
           width="5.2916665"
           height="5.2916665"
           x="63.499977"
           y="116.41667" />
        <rect
           style="font-variation-settings:normal;vector-effect:none;fill:none;fill-opacity:1;fill-rule:evenodd;stroke:#000000;stroke-width:0.264583;stroke-linecap:butt;stroke-linejoin:miter;stroke-miterlimit:4;stroke-dasharray:none;stroke-dashoffset:0;stroke-opacity:1;stop-color:#000000"
           id="rect1018"
           width="5.2916665"
           height="5.2916665"
           x="42.333336"
           y="121.70832" />
        <rect
           style="font-variation-settings:normal;vector-effect:none;fill:none;fill-opacity:1;fill-rule:evenodd;stroke:#000000;stroke-width:0.264583;stroke-linecap:butt;stroke-linejoin:miter;stroke-miterlimit:4;stroke-dasharray:none;stroke-dashoffset:0;stroke-opacity:1;stop-color:#000000"
           id="rect1020"
           width="5.2916665"
           height="5.2916665"
           x="47.624992"
           y="121.70832" />
        <rect
           style="font-variation-settings:normal;vector-effect:none;fill:none;fill-opacity:1;fill-rule:evenodd;stroke:#000000;stroke-width:0.264583;stroke-linecap:butt;stroke-linejoin:miter;stroke-miterlimit:4;stroke-dasharray:none;stroke-dashoffset:0;stroke-opacity:1;stop-color:#000000"
           id="rect1022"
           width="5.2916665"
           height="5.2916665"
           x="52.916664"
           y="121.70832" />
        <rect
           style="font-variation-settings:normal;vector-effect:none;fill:none;fill-opacity:1;fill-rule:evenodd;stroke:#000000;stroke-width:0.264583;stroke-linecap:butt;stroke-linejoin:miter;stroke-miterlimit:4;stroke-dasharray:none;stroke-dashoffset:0;stroke-opacity:1;stop-color:#000000"
           id="rect1024"
           width="5.2916665"
           height="5.2916665"
           x="58.208321"
           y="121.70832" />
        <rect
           style="font-variation-settings:normal;vector-effect:none;fill:none;fill-opacity:1;fill-rule:evenodd;stroke:#000000;stroke-width:0.264583;stroke-linecap:butt;stroke-linejoin:miter;stroke-miterlimit:4;stroke-dasharray:none;stroke-dashoffset:0;stroke-opacity:1;stop-color:#000000"
           id="rect1026"
           width="5.2916665"
           height="5.2916665"
           x="63.499977"
           y="121.70832" />
        <rect
           style="font-variation-settings:normal;vector-effect:none;fill:none;fill-opacity:1;fill-rule:evenodd;stroke:#000000;stroke-width:0.264583;stroke-linecap:butt;stroke-linejoin:miter;stroke-miterlimit:4;stroke-dasharray:none;stroke-dashoffset:0;stroke-opacity:1;stop-color:#000000"
           id="rect1028"
           width="5.2916665"
           height="5.2916665"
           x="42.333336"
           y="126.99998" />
        <rect
           style="font-variation-settings:normal;vector-effect:none;fill:none;fill-opacity:1;fill-rule:evenodd;stroke:#000000;stroke-width:0.264583;stroke-linecap:butt;stroke-linejoin:miter;stroke-miterlimit:4;stroke-dasharray:none;stroke-dashoffset:0;stroke-opacity:1;stop-color:#000000"
           id="rect1030"
           width="5.2916665"
           height="5.2916665"
           x="47.624992"
           y="126.99998" />
        <rect
           style="font-variation-settings:normal;vector-effect:none;fill:none;fill-opacity:1;fill-rule:evenodd;stroke:#000000;stroke-width:0.264583;stroke-linecap:butt;stroke-linejoin:miter;stroke-miterlimit:4;stroke-dasharray:none;stroke-dashoffset:0;stroke-opacity:1;stop-color:#000000"
           id="rect1032"
           width="5.2916665"
           height="5.2916665"
           x="52.916664"
           y="126.99998" />
        <rect
           style="font-variation-settings:normal;vector-effect:none;fill:none;fill-opacity:1;fill-rule:evenodd;stroke:#000000;stroke-width:0.264583;stroke-linecap:butt;stroke-linejoin:miter;stroke-miterlimit:4;stroke-dasharray:none;stroke-dashoffset:0;stroke-opacity:1;stop-color:#000000"
           id="rect1034"
           width="5.2916665"
           height="5.2916665"
           x="58.208321"
           y="126.99998" />
        <rect
           style="font-variation-settings:normal;vector-effect:none;fill:none;fill-opacity:1;fill-rule:evenodd;stroke:#000000;stroke-width:0.264583;stroke-linecap:butt;stroke-linejoin:miter;stroke-miterlimit:4;stroke-dasharray:none;stroke-dashoffset:0;stroke-opacity:1;stop-color:#000000"
           id="rect1036"
           width="5.2916665"
           height="5.2916665"
           x="63.499977"
           y="126.99998" />
        <path
           id="rect1504"
           style="vector-effect:none;fill:none;fill-rule:evenodd;stroke:#000000;stroke-width:0.264583;stop-color:#000000"
           d="m 39.687492,103.1875 2.64583,2.64583 v 5.29167 l -2.64583,-2.64584 z" />
        <path
           id="path2365"
           style="vector-effect:none;fill:none;fill-rule:evenodd;stroke:#000000;stroke-width:0.264583;stop-color:#000000"
           d="m 39.687492,108.47916 2.64583,2.64584 v 5.29167 l -2.64583,-2.64584 z" />
        <path
           id="path2367"
           style="vector-effect:none;fill:none;fill-rule:evenodd;stroke:#000000;stroke-width:0.264583;stop-color:#000000"
           d="m 39.687492,113.77083 2.64583,2.64584 v 5.29167 l -2.64583,-2.64584 z" />
        <path
           id="path2369"
           style="vector-effect:none;fill:none;fill-rule:evenodd;stroke:#000000;stroke-width:0.264583;stop-color:#000000"
           d="m 39.687492,124.35417 2.64583,2.64584 v 5.29167 l -2.64583,-2.64584 z" />
        <path
           id="path2371"
           style="vector-effect:none;fill:none;fill-rule:evenodd;stroke:#000000;stroke-width:0.264583;stop-color:#000000"
           d="m 39.687492,119.0625 2.64583,2.64584 v 5.29167 l -2.64583,-2.64584 z" />
        <path
           style="fill:none;stroke:#000000;stroke-width:0.264583px;stroke-linecap:butt;stroke-linejoin:miter;stroke-opacity:1"
           d="m 39.687492,103.18749 h 5.29167 l 2.64583,2.64584"
           id="path2406" />
        <path
           style="fill:none;stroke:#000000;stroke-width:0.264583px;stroke-linecap:butt;stroke-linejoin:miter;stroke-opacity:1"
           d="m 44.979162,103.18749 h 5.29167 l 2.64583,2.64584"
           id="path2488" />
        <path
           style="fill:none;stroke:#000000;stroke-width:0.264583px;stroke-linecap:butt;stroke-linejoin:miter;stroke-opacity:1"
           d="m 50.270832,103.18749 h 5.29167 l 2.64583,2.64584"
           id="path2490" />
        <path
           style="fill:none;stroke:#000000;stroke-width:0.264583px;stroke-linecap:butt;stroke-linejoin:miter;stroke-opacity:1"
           d="m 55.562502,103.18749 h 5.29167 l 2.64583,2.64584"
           id="path2492" />
        <path
           style="fill:none;stroke:#000000;stroke-width:0.264583px;stroke-linecap:butt;stroke-linejoin:miter;stroke-opacity:1"
           d="m 60.854172,103.18749 h 5.29167 l 2.64583,2.64584"
           id="path2494" />
        <path
           id="path2496"
           style="vector-effect:none;fill:none;fill-rule:evenodd;stroke:#000000;stroke-width:0.264583;stop-color:#000000"
           d="m 37.041662,100.54166 2.64583,2.64583 v 5.29167 l -2.64583,-2.64583 z" />
        <path
           id="path2498"
           style="vector-effect:none;fill:none;fill-rule:evenodd;stroke:#000000;stroke-width:0.264583;stop-color:#000000"
           d="m 37.041662,105.83333 2.64583,2.64583 v 5.29167 l -2.64583,-2.64583 z" />
        <path
           id="path2500"
           style="vector-effect:none;fill:none;fill-rule:evenodd;stroke:#000000;stroke-width:0.264583;stop-color:#000000"
           d="m 37.041662,111.125 2.64583,2.64583 v 5.29167 l -2.64583,-2.64583 z" />
        <path
           id="path2502"
           style="vector-effect:none;fill:none;fill-rule:evenodd;stroke:#000000;stroke-width:0.264583;stop-color:#000000"
           d="m 37.041662,111.125 2.64583,2.64583 v 5.29167 l -2.64583,-2.64583 z" />
        <path
           id="path2506"
           style="vector-effect:none;fill:none;fill-rule:evenodd;stroke:#000000;stroke-width:0.264583;stop-color:#000000"
           d="m 37.041662,116.41667 2.64583,2.64583 v 5.29167 l -2.64583,-2.64583 z" />
        <path
           id="path2508"
           style="vector-effect:none;fill:none;fill-rule:evenodd;stroke:#000000;stroke-width:0.264583;stop-color:#000000"
           d="m 37.041662,121.70834 2.64583,2.64583 v 5.29167 l -2.64583,-2.64583 z" />
        <path
           style="fill:none;stroke:#000000;stroke-width:0.264583px;stroke-linecap:butt;stroke-linejoin:miter;stroke-opacity:1"
           d="m 37.041662,100.54166 h 5.29167 l 2.64583,2.64583"
           id="path2510" />
        <path
           style="fill:none;stroke:#000000;stroke-width:0.264583px;stroke-linecap:butt;stroke-linejoin:miter;stroke-opacity:1"
           d="m 42.333332,100.54166 h 5.29167 l 2.64583,2.64583"
           id="path2512" />
        <path
           style="fill:none;stroke:#000000;stroke-width:0.264583px;stroke-linecap:butt;stroke-linejoin:miter;stroke-opacity:1"
           d="m 47.625002,100.54166 h 5.29167 l 2.64583,2.64583"
           id="path2514" />
        <path
           style="fill:none;stroke:#000000;stroke-width:0.264583px;stroke-linecap:butt;stroke-linejoin:miter;stroke-opacity:1"
           d="m 52.916672,100.54166 h 5.29167 l 2.64583,2.64583"
           id="path2516" />
        <path
           style="fill:none;stroke:#000000;stroke-width:0.264583px;stroke-linecap:butt;stroke-linejoin:miter;stroke-opacity:1"
           d="m 58.208342,100.54166 h 5.29167 l 2.64583,2.64583"
           id="path2518" />
        <path
           id="path2520"
           style="vector-effect:none;fill:none;fill-rule:evenodd;stroke:#000000;stroke-width:0.264583;stop-color:#000000"
           d="m 34.395822,97.895829 2.64583,2.645831 v 5.29167 l -2.64583,-2.64584 z" />
        <path
           id="path2522"
           style="vector-effect:none;fill:none;fill-rule:evenodd;stroke:#000000;stroke-width:0.264583;stop-color:#000000"
           d="m 34.395822,103.1875 2.64583,2.64583 v 5.29167 l -2.64583,-2.64584 z" />
        <path
           id="path2524"
           style="vector-effect:none;fill:none;fill-rule:evenodd;stroke:#000000;stroke-width:0.264583;stop-color:#000000"
           d="m 34.395822,108.47916 2.64583,2.64584 v 5.29167 l -2.64583,-2.64584 z" />
        <path
           id="path2526"
           style="vector-effect:none;fill:none;fill-rule:evenodd;stroke:#000000;stroke-width:0.264583;stop-color:#000000"
           d="m 34.395822,113.77083 2.64583,2.64584 v 5.29167 l -2.64583,-2.64584 z" />
        <path
           id="path2528"
           style="vector-effect:none;fill:none;fill-rule:evenodd;stroke:#000000;stroke-width:0.264583;stop-color:#000000"
           d="m 34.395822,119.0625 2.64583,2.64584 v 5.29167 l -2.64583,-2.64584 z" />
        <path
           style="fill:none;stroke:#000000;stroke-width:0.264583px;stroke-linecap:butt;stroke-linejoin:miter;stroke-opacity:1"
           d="m 34.395822,97.895828 h 5.29167 l 2.64583,2.645832"
           id="path2532" />
        <path
           style="fill:none;stroke:#000000;stroke-width:0.264583px;stroke-linecap:butt;stroke-linejoin:miter;stroke-opacity:1"
           d="m 39.687492,97.895828 h 5.29167 l 2.64583,2.645832"
           id="path2534" />
        <path
           style="fill:none;stroke:#000000;stroke-width:0.264583px;stroke-linecap:butt;stroke-linejoin:miter;stroke-opacity:1"
           d="m 44.979162,97.895828 h 5.29167 l 2.64583,2.645832"
           id="path2536" />
        <path
           style="fill:none;stroke:#000000;stroke-width:0.264583px;stroke-linecap:butt;stroke-linejoin:miter;stroke-opacity:1"
           d="m 50.270832,97.895828 h 5.29167 l 2.64583,2.645832"
           id="path2538" />
        <path
           style="fill:none;stroke:#000000;stroke-width:0.264583px;stroke-linecap:butt;stroke-linejoin:miter;stroke-opacity:1"
           d="m 55.562502,97.895828 h 5.29167 l 2.64583,2.645832"
           id="path2540" />
      </g>
    </g>
  </g>
</svg>
