<?xml version="1.0" encoding="UTF-8" standalone="no"?>
<!-- Created with Inkscape (http://www.inkscape.org/) -->

<svg
   width="27.529779mm"
   height="14.307915mm"
   viewBox="0 0 27.529779 14.307915"
   version="1.1"
   id="svg1001"
   inkscape:version="1.1 (c4e8f9e, 2021-05-24)"
   sodipodi:docname="mux_demux_stream.svg"
   xmlns:inkscape="http://www.inkscape.org/namespaces/inkscape"
   xmlns:sodipodi="http://sodipodi.sourceforge.net/DTD/sodipodi-0.dtd"
   xmlns="http://www.w3.org/2000/svg"
   xmlns:svg="http://www.w3.org/2000/svg">
  <sodipodi:namedview
     id="namedview1003"
     pagecolor="#ffffff"
     bordercolor="#666666"
     borderopacity="1.0"
     inkscape:pageshadow="2"
     inkscape:pageopacity="0.0"
     inkscape:pagecheckerboard="0"
     inkscape:document-units="mm"
     showgrid="false"
     inkscape:zoom="4.6395623"
     inkscape:cx="78.778983"
     inkscape:cy="36.533619"
     inkscape:window-width="1312"
     inkscape:window-height="847"
     inkscape:window-x="2002"
     inkscape:window-y="109"
     inkscape:window-maximized="0"
     inkscape:current-layer="layer1">
    <inkscape:grid
       type="xygrid"
       id="grid1266"
       originx="-81.316387"
       originy="-177.657" />
  </sodipodi:namedview>
  <defs
     id="defs998">
    <defs
       id="id-19fb1d4b-48a9-4903-bdb8-f550f58ce04a">
      <g
         id="id-10c68636-aa94-42c3-ad36-3fb113d11baa">
        <symbol
           overflow="visible"
           id="id-a2eda781-e4dc-492c-ad24-7b1fb2afc54d">
          <path
             style="stroke:none;stroke-width:0"
             d=""
             id="id-eb2a899b-4e54-4d68-8122-0ea9aceb3d4c" />
        </symbol>
        <symbol
           overflow="visible"
           id="id-1ef4511c-143a-44ef-8790-292b429dd1eb">
          <path
             style="stroke:none;stroke-width:0"
             d="m 1.90625,-0.53125 c 0,-0.28125 -0.234375,-0.53125 -0.515625,-0.53125 -0.296875,0 -0.53125,0.25 -0.53125,0.53125 C 0.859375,-0.234375 1.09375,0 1.390625,0 1.671875,0 1.90625,-0.234375 1.90625,-0.53125 Z m 0,0"
             id="id-0ca77c5a-0549-4aac-84c2-fdc8af7ffbaa" />
        </symbol>
        <symbol
           overflow="visible"
           id="id-ce840ddd-e26a-4b05-9303-564078097939">
          <path
             style="stroke:none;stroke-width:0"
             d=""
             id="id-56f197a2-cd7d-4720-9b26-589df0e634f4" />
        </symbol>
        <symbol
           overflow="visible"
           id="id-b393dddc-7fcc-426a-a714-88aaa4a4f898">
          <path
             style="stroke:none;stroke-width:0"
             d="m 3.09375,-5.796875 c 0,-0.15625 0,-0.40625 -0.296875,-0.40625 -0.1875,0 -0.25,0.125 -0.296875,0.234375 C 2.125,-5.109375 1.609375,-5 1.421875,-4.984375 c -0.171875,0.015625 -0.375,0.03125 -0.375,0.3125 0,0.25 0.171875,0.296875 0.328125,0.296875 0.1875,0 0.59375,-0.0625 1.03125,-0.4375 v 4.203125 H 1.5 c -0.15625,0 -0.390625,0 -0.390625,0.3125 C 1.109375,0 1.359375,0 1.5,0 H 4 c 0.15625,0 0.40625,0 0.40625,-0.296875 0,-0.3125 -0.234375,-0.3125 -0.40625,-0.3125 H 3.09375 Z m 0,0"
             id="id-932a0bde-a1a0-4fcb-b2b4-ffb631acf764" />
        </symbol>
        <symbol
           overflow="visible"
           id="id-2db29e7c-ede4-4aa3-8a1e-f04aab9f479b">
          <path
             style="stroke:none;stroke-width:0"
             d="m 4.71875,-3.046875 c 0,-1.84375 -1.015625,-3.15625 -2.109375,-3.15625 C 1.5,-6.203125 0.5,-4.859375 0.5,-3.046875 c 0,1.84375 1.015625,3.15625 2.109375,3.15625 1.125,0 2.109375,-1.328125 2.109375,-3.15625 z M 2.609375,-0.5 C 1.828125,-0.5 1.1875,-1.671875 1.1875,-3.15625 c 0,-1.453125 0.6875,-2.4375 1.421875,-2.4375 0.734375,0 1.421875,0.984375 1.421875,2.4375 0,1.484375 -0.640625,2.65625 -1.421875,2.65625 z m 0,0"
             id="id-9d67b609-39ab-4a4c-923d-94c504e39e23" />
        </symbol>
        <symbol
           overflow="visible"
           id="id-e8d708f3-57ad-4c53-a7de-4287cb248165">
          <path
             style="stroke:none;stroke-width:0"
             d=""
             id="id-2e0ea716-dd9f-4188-bc77-408dd121aaca" />
        </symbol>
        <symbol
           overflow="visible"
           id="id-ae7d8949-cacc-4c86-b982-11fce2dddb83">
          <path
             style="stroke:none;stroke-width:0"
             d="m 1.90625,-0.53125 c 0,-0.28125 -0.234375,-0.53125 -0.515625,-0.53125 -0.296875,0 -0.53125,0.25 -0.53125,0.53125 C 0.859375,-0.234375 1.09375,0 1.390625,0 1.671875,0 1.90625,-0.234375 1.90625,-0.53125 Z m 0,0"
             id="id-451d8931-cfdd-4f20-a763-ef4803c5618d" />
        </symbol>
      </g>
    </defs>
    <defs
       id="id-54aa282d-aa4b-46c7-af1f-0b9f07c1f0f5">
      <g
         id="id-e7a77dcd-71f0-472a-bc54-d2f989dd3734">
        <symbol
           overflow="visible"
           id="id-ab874b5f-42ca-411d-b2c9-d360fc303ae1">
          <path
             style="stroke:none;stroke-width:0"
             d=""
             id="id-2d44de23-20be-4fa2-a2d3-fa982fda56bd" />
        </symbol>
        <symbol
           overflow="visible"
           id="id-4eac1cba-1415-46ac-bfcb-cac5448e13ba">
          <path
             style="stroke:none;stroke-width:0"
             d="M 2.890625,-3.671875 C 2.765625,-3.3125 2.6875,-3.03125 2.625,-2.734375 H 2.609375 c -0.09375,-0.46875 -0.96875,-3.0625 -1,-3.125 C 1.515625,-6.09375 1.265625,-6.09375 1.125,-6.09375 H 0.5625 c -0.140625,0 -0.390625,0 -0.390625,0.296875 0,0.3125 0.203125,0.3125 0.53125,0.3125 v 4.875 c -0.328125,0 -0.53125,0 -0.53125,0.3125 C 0.171875,0 0.421875,0 0.5625,0 H 1.390625 C 1.53125,0 1.78125,0 1.78125,-0.296875 c 0,-0.3125 -0.203125,-0.3125 -0.53125,-0.3125 v -4.75 h 0.015625 c 0.109375,0.453125 0.75,2.375 0.78125,2.5 C 2.140625,-2.625 2.265625,-2.25 2.3125,-2.1875 2.375,-2.109375 2.5,-2.03125 2.609375,-2.03125 c 0.125,0 0.265625,-0.078125 0.34375,-0.21875 0.03125,-0.0625 0.890625,-2.578125 1,-3.109375 H 3.96875 v 4.75 c -0.3125,0 -0.53125,0 -0.53125,0.3125 C 3.4375,0 3.6875,0 3.84375,0 h 0.8125 c 0.15625,0 0.390625,0 0.390625,-0.296875 0,-0.3125 -0.203125,-0.3125 -0.515625,-0.3125 v -4.875 c 0.3125,0 0.515625,0 0.515625,-0.3125 0,-0.296875 -0.234375,-0.296875 -0.390625,-0.296875 h -0.5625 c -0.40625,0 -0.4375,0.140625 -0.53125,0.40625 z m 0,0"
             id="id-74612f84-0329-40d4-9ff1-bc575565354f" />
        </symbol>
        <symbol
           overflow="visible"
           id="id-eb0dc236-6620-45b2-8cb4-d2d8a4c4a670">
          <path
             style="stroke:none;stroke-width:0"
             d="M 3.5625,-0.3125 C 3.578125,0 3.78125,0 3.96875,0 H 4.6875 c 0.171875,0 0.421875,0 0.421875,-0.3125 0,-0.296875 -0.265625,-0.296875 -0.40625,-0.296875 H 4.25 v -3.28125 c 0,-0.3125 -0.046875,-0.40625 -0.390625,-0.40625 H 3.125 c -0.15625,0 -0.40625,0 -0.40625,0.3125 0,0.296875 0.265625,0.296875 0.40625,0.296875 h 0.4375 v 2.125 c 0,0.890625 -0.796875,1.015625 -1.125,1.015625 -0.78125,0 -0.78125,-0.328125 -0.78125,-0.65625 v -2.6875 c 0,-0.3125 -0.0625,-0.40625 -0.40625,-0.40625 H 0.53125 c -0.15625,0 -0.40625,0 -0.40625,0.3125 0,0.296875 0.25,0.296875 0.390625,0.296875 H 0.96875 v 2.546875 c 0,0.96875 0.6875,1.203125 1.40625,1.203125 0.421875,0 0.828125,-0.109375 1.1875,-0.375 z m 0,0"
             id="id-be8419aa-2a86-4729-a245-bebc9bcbcc21" />
        </symbol>
        <symbol
           overflow="visible"
           id="id-ff9f13f3-1e54-43e2-af77-bc3519eb5874">
          <path
             style="stroke:none;stroke-width:0"
             d="M 2.859375,-2.21875 4,-3.6875 h 0.390625 c 0.140625,0 0.421875,0 0.421875,-0.296875 0,-0.3125 -0.265625,-0.3125 -0.421875,-0.3125 h -1.15625 c -0.15625,0 -0.40625,0 -0.40625,0.296875 0,0.3125 0.21875,0.3125 0.484375,0.3125 l -0.734375,1 -0.75,-1 c 0.25,0 0.46875,0 0.46875,-0.3125 0,-0.296875 -0.25,-0.296875 -0.390625,-0.296875 H 0.734375 c -0.140625,0 -0.40625,0 -0.40625,0.3125 0,0.296875 0.265625,0.296875 0.40625,0.296875 h 0.40625 L 2.3125,-2.21875 1.078125,-0.609375 h -0.40625 c -0.140625,0 -0.40625,0 -0.40625,0.3125 C 0.265625,0 0.53125,0 0.671875,0 H 1.84375 C 2,0 2.25,0 2.25,-0.296875 c 0,-0.3125 -0.21875,-0.3125 -0.53125,-0.3125 l 0.859375,-1.21875 0.890625,1.21875 c -0.28125,0 -0.5,0 -0.5,0.3125 C 2.96875,0 3.21875,0 3.375,0 h 1.15625 c 0.140625,0 0.40625,0 0.40625,-0.296875 0,-0.3125 -0.25,-0.3125 -0.40625,-0.3125 H 4.140625 Z m 0,0"
             id="id-9f490eae-05e3-4a09-9cd1-4e4a2c478aff" />
        </symbol>
        <symbol
           overflow="visible"
           id="id-c9573304-7325-42db-b6d6-3c6fa7f7a576">
          <path
             style="stroke:none;stroke-width:0"
             d="m 0.59375,-6.09375 c -0.15625,0 -0.40625,0 -0.40625,0.3125 0,0.296875 0.265625,0.296875 0.40625,0.296875 H 0.8125 v 4.875 H 0.59375 c -0.15625,0 -0.40625,0 -0.40625,0.3125 C 0.1875,0 0.453125,0 0.59375,0 h 2.0625 c 1.296875,0 2.171875,-1.390625 2.171875,-3 0,-1.59375 -0.84375,-3.09375 -2.171875,-3.09375 z M 1.5,-0.609375 v -4.875 h 0.96875 c 1.125,0 1.671875,1.328125 1.671875,2.484375 0,1.171875 -0.578125,2.390625 -1.671875,2.390625 z m 0,0"
             id="id-b2622114-a9ab-4c0f-8a97-0d5224e4c3f0" />
        </symbol>
      </g>
    </defs>
  </defs>
  <g
     inkscape:label="Layer 1"
     inkscape:groupmode="layer"
     id="layer1"
     transform="translate(-81.316393,-177.65702)">
    <g
       id="g3708">
      <path
         style="fill:none;stroke:#000000;stroke-width:0.129117;stroke-linecap:round;stroke-linejoin:round;stroke-miterlimit:4;stroke-dasharray:none;stroke-opacity:1"
         d="m 101.31081,181.23852 2.64584,-1.98437 v 3.96875 z"
         id="path1003" />
      <path
         style="fill:none;stroke:#000000;stroke-width:0.129117;stroke-linecap:butt;stroke-linejoin:miter;stroke-miterlimit:4;stroke-dasharray:none;stroke-opacity:1"
         d="m 105.27956,180.0479 h -1.32291"
         id="path1271" />
      <path
         style="fill:none;stroke:#000000;stroke-width:0.129117;stroke-linecap:butt;stroke-linejoin:miter;stroke-miterlimit:4;stroke-dasharray:none;stroke-opacity:1"
         d="m 105.27956,182.42915 h -1.32291"
         id="path1273" />
      <path
         style="fill:none;stroke:#000000;stroke-width:0.129117;stroke-linecap:butt;stroke-linejoin:miter;stroke-miterlimit:4;stroke-dasharray:none;stroke-opacity:1"
         d="m 102.89831,182.42915 v 1.85208"
         id="path1388" />
      <path
         style="fill:none;stroke:#000000;stroke-width:0.129117;stroke-linecap:butt;stroke-linejoin:miter;stroke-miterlimit:4;stroke-dasharray:none;stroke-opacity:1"
         d="M 101.33542,181.23958 H 99.21875"
         id="path1538" />
      <g
         id="g2062"
         transform="matrix(-0.21683393,0,0,0.21683393,100.47164,178.91392)">
        <circle
           cx="5.8221483"
           cy="10.718307"
           r="1.1902974"
           stroke="none"
           fill="#ffffff"
           id="circle2058"
           style="stroke-width:0.297574" />
        <circle
           cx="5.8221483"
           cy="10.718307"
           r="1.1902974"
           fill="none"
           stroke="#000000"
           stroke-width="0.595149"
           id="circle2060" />
      </g>
      <path
         style="fill:none;stroke:#000000;stroke-width:0.129117;stroke-linecap:round;stroke-linejoin:round;stroke-miterlimit:4;stroke-dasharray:none;stroke-opacity:1"
         d="m 89.189186,181.23852 -2.645836,-1.98437 v 3.96875 z"
         id="path1701" />
      <path
         style="fill:none;stroke:#000000;stroke-width:0.129117;stroke-linecap:butt;stroke-linejoin:miter;stroke-miterlimit:4;stroke-dasharray:none;stroke-opacity:1"
         d="m 85.22044,180.0479 h 1.32291"
         id="path1703" />
      <path
         style="fill:none;stroke:#000000;stroke-width:0.129117;stroke-linecap:butt;stroke-linejoin:miter;stroke-miterlimit:4;stroke-dasharray:none;stroke-opacity:1"
         d="m 85.22044,182.42915 h 1.32291"
         id="path1705" />
      <path
         style="fill:none;stroke:#000000;stroke-width:0.129117;stroke-linecap:butt;stroke-linejoin:miter;stroke-miterlimit:4;stroke-dasharray:none;stroke-opacity:1"
         d="m 87.60169,182.42915 v 1.85208"
         id="path1707" />
      <path
         style="fill:none;stroke:#000000;stroke-width:0.129117;stroke-linecap:butt;stroke-linejoin:miter;stroke-miterlimit:4;stroke-dasharray:none;stroke-opacity:1"
         d="m 89.164579,181.23958 h 2.116667"
         id="path1709" />
      <g
         id="g1715"
         transform="matrix(0.21683393,0,0,0.21683393,90.028361,178.91392)">
        <circle
           cx="5.8221483"
           cy="10.718307"
           r="1.1902974"
           stroke="none"
           fill="#ffffff"
           id="circle1711"
           style="stroke-width:0.297574" />
        <circle
           cx="5.8221483"
           cy="10.718307"
           r="1.1902974"
           fill="none"
           stroke="#000000"
           stroke-width="0.595149"
           id="circle1713" />
      </g>
      <g
         id="g2524"
         transform="translate(-3.2662163,-8.958175)">
        <path
           style="fill:#000000;fill-opacity:1;stroke:none;stroke-width:0"
           d="m 84.656059,189.18257 c 0,-0.0197 -0.01644,-0.0373 -0.03618,-0.0373 -0.02083,0 -0.03727,0.0175 -0.03727,0.0373 0,0.0208 0.01644,0.0373 0.03727,0.0373 0.01973,0 0.03618,-0.0164 0.03618,-0.0373 z m 0,0"
           id="id-c65346e7-17b6-4305-8f96-8009ee15855a" />
        <path
           style="fill:#000000;fill-opacity:1;stroke:none;stroke-width:0"
           d="m 84.96693,189.18257 c 0,-0.0197 -0.01644,-0.0373 -0.03618,-0.0373 -0.02083,0 -0.03727,0.0175 -0.03727,0.0373 0,0.0208 0.01644,0.0373 0.03727,0.0373 0.01973,0 0.03618,-0.0164 0.03618,-0.0373 z m 0,0"
           id="id-9d50dfb2-5834-4c60-99db-4cfe61289825" />
        <path
           style="fill:#000000;fill-opacity:1;stroke:none;stroke-width:0"
           d="m 85.277169,189.18257 c 0,-0.0197 -0.01644,-0.0373 -0.03618,-0.0373 -0.02083,0 -0.03727,0.0175 -0.03727,0.0373 0,0.0208 0.01644,0.0373 0.03727,0.0373 0.01973,0 0.03618,-0.0164 0.03618,-0.0373 z m 0,0"
           id="id-cd96d55b-1805-476c-ae45-be8afab0f718" />
        <path
           style="fill:#000000;fill-opacity:1;stroke:none;stroke-width:0"
           d="m 85.671353,188.81314 c 0,-0.011 0,-0.0285 -0.02083,-0.0285 -0.01315,0 -0.01754,0.009 -0.02083,0.0164 -0.02631,0.0603 -0.06248,0.068 -0.07564,0.0691 -0.01206,0.001 -0.02631,0.002 -0.02631,0.0219 0,0.0175 0.01206,0.0208 0.02302,0.0208 0.01315,0 0.04166,-0.004 0.07235,-0.0307 v 0.29489 h -0.06358 c -0.01096,0 -0.02741,0 -0.02741,0.0219 0,0.0208 0.01754,0.0208 0.02741,0.0208 h 0.175396 c 0.01096,0 0.0285,0 0.0285,-0.0208 0,-0.0219 -0.01644,-0.0219 -0.0285,-0.0219 h -0.06358 z m 0,0"
           id="id-dbab81fd-b6ab-4fa4-a16e-1efbaeea8a20" />
        <path
           style="fill:#000000;fill-opacity:1;stroke:none;stroke-width:0"
           d="m 86.519285,189.00608 c 0,-0.12936 -0.07125,-0.22144 -0.14799,-0.22144 -0.07783,0 -0.14799,0.0943 -0.14799,0.22144 0,0.12935 0.07126,0.22143 0.14799,0.22143 0.07893,0 0.14799,-0.0932 0.14799,-0.22143 z m -0.14799,0.17868 c -0.05481,0 -0.09976,-0.0822 -0.09976,-0.18636 0,-0.10195 0.04823,-0.17101 0.09976,-0.17101 0.05152,0 0.09976,0.0691 0.09976,0.17101 0,0.10414 -0.04494,0.18636 -0.09976,0.18636 z m 0,0"
           id="id-e2bd1cad-12f9-47ae-b952-976d9b6f1205" />
        <path
           style="fill:#000000;fill-opacity:1;stroke:none;stroke-width:0"
           d="m 87.139133,188.81314 c 0,-0.011 0,-0.0285 -0.02083,-0.0285 -0.01316,0 -0.01754,0.009 -0.02083,0.0164 -0.02631,0.0603 -0.06248,0.068 -0.07564,0.0691 -0.01206,0.001 -0.02631,0.002 -0.02631,0.0219 0,0.0175 0.01206,0.0208 0.02302,0.0208 0.01315,0 0.04166,-0.004 0.07235,-0.0307 v 0.29489 h -0.06358 c -0.01096,0 -0.0274,0 -0.0274,0.0219 0,0.0208 0.01754,0.0208 0.0274,0.0208 h 0.175396 c 0.01096,0 0.0285,0 0.0285,-0.0208 0,-0.0219 -0.01644,-0.0219 -0.0285,-0.0219 h -0.06358 z m 0,0"
           id="id-a6feaa81-5d2e-4b43-b5c3-e79dc3dedb1f" />
        <path
           style="fill:#000000;fill-opacity:1;stroke:none;stroke-width:0"
           d="m 87.873058,188.81314 c 0,-0.011 0,-0.0285 -0.02083,-0.0285 -0.01316,0 -0.01754,0.009 -0.02083,0.0164 -0.02631,0.0603 -0.06248,0.068 -0.07564,0.0691 -0.01206,0.001 -0.02631,0.002 -0.02631,0.0219 0,0.0175 0.01206,0.0208 0.02302,0.0208 0.01315,0 0.04166,-0.004 0.07235,-0.0307 v 0.29489 h -0.06358 c -0.01096,0 -0.0274,0 -0.0274,0.0219 0,0.0208 0.01754,0.0208 0.0274,0.0208 h 0.175396 c 0.01096,0 0.0285,0 0.0285,-0.0208 0,-0.0219 -0.01644,-0.0219 -0.0285,-0.0219 h -0.06358 z m 0,0"
           id="id-c5b13491-758e-4668-8d4f-dee7836d3d96" />
      </g>
      <g
         id="g2533"
         transform="translate(-6.9515163,-6.576925)">
        <path
           style="fill:#000000;fill-opacity:1;stroke:none;stroke-width:0"
           d="m 88.389668,189.18257 c 0,-0.0197 -0.01644,-0.0373 -0.03618,-0.0373 -0.02083,0 -0.03727,0.0175 -0.03727,0.0373 0,0.0208 0.01644,0.0373 0.03727,0.0373 0.01973,0 0.03618,-0.0164 0.03618,-0.0373 z m 0,0"
           id="id-a8a40311-5d1b-4900-90c4-fd4c350f7608" />
        <path
           style="fill:#000000;fill-opacity:1;stroke:none;stroke-width:0"
           d="m 88.700539,189.18257 c 0,-0.0197 -0.01644,-0.0373 -0.03618,-0.0373 -0.02083,0 -0.03727,0.0175 -0.03727,0.0373 0,0.0208 0.01644,0.0373 0.03727,0.0373 0.01973,0 0.03618,-0.0164 0.03618,-0.0373 z m 0,0"
           id="id-5d6b15d1-e3a1-4f47-a4b7-8b7725a22172" />
        <path
           style="fill:#000000;fill-opacity:1;stroke:none;stroke-width:0"
           d="m 89.010779,189.18257 c 0,-0.0197 -0.01644,-0.0373 -0.03618,-0.0373 -0.02083,0 -0.03727,0.0175 -0.03727,0.0373 0,0.0208 0.01644,0.0373 0.03727,0.0373 0.01973,0 0.03618,-0.0164 0.03618,-0.0373 z m 0,0"
           id="id-906fc29b-2387-4012-b2d0-4c5572236089" />
        <path
           style="fill:#000000;fill-opacity:1;stroke:none;stroke-width:0"
           d="m 89.5189,189.00608 c 0,-0.12936 -0.07125,-0.22144 -0.14799,-0.22144 -0.07783,0 -0.14799,0.0943 -0.14799,0.22144 0,0.12935 0.07125,0.22143 0.14799,0.22143 0.07893,0 0.14799,-0.0932 0.14799,-0.22143 z m -0.14799,0.17868 c -0.05481,0 -0.09976,-0.0822 -0.09976,-0.18636 0,-0.10195 0.04823,-0.17101 0.09976,-0.17101 0.05152,0 0.09976,0.0691 0.09976,0.17101 0,0.10414 -0.04494,0.18636 -0.09976,0.18636 z m 0,0"
           id="id-3c15d090-c1b6-4dd6-b250-022405e7559d" />
        <path
           style="fill:#000000;fill-opacity:1;stroke:none;stroke-width:0"
           d="m 90.138818,188.81314 c 0,-0.011 0,-0.0285 -0.02083,-0.0285 -0.01316,0 -0.01754,0.009 -0.02083,0.0164 -0.02631,0.0603 -0.06248,0.068 -0.07564,0.0691 -0.01206,0.001 -0.02631,0.002 -0.02631,0.0219 0,0.0175 0.01206,0.0208 0.02302,0.0208 0.01315,0 0.04166,-0.004 0.07235,-0.0307 v 0.29489 h -0.06358 c -0.01096,0 -0.0274,0 -0.0274,0.0219 0,0.0208 0.01754,0.0208 0.0274,0.0208 h 0.175396 c 0.01096,0 0.0285,0 0.0285,-0.0208 0,-0.0219 -0.01644,-0.0219 -0.0285,-0.0219 h -0.06358 z m 0,0"
           id="id-433d4e5d-ad32-487d-843f-5312a9673825" />
        <path
           style="fill:#000000;fill-opacity:1;stroke:none;stroke-width:0"
           d="m 90.872673,188.81314 c 0,-0.011 0,-0.0285 -0.02083,-0.0285 -0.01315,0 -0.01754,0.009 -0.02083,0.0164 -0.02631,0.0603 -0.06249,0.068 -0.07564,0.0691 -0.01206,0.001 -0.02631,0.002 -0.02631,0.0219 0,0.0175 0.01206,0.0208 0.02302,0.0208 0.01315,0 0.04166,-0.004 0.07235,-0.0307 v 0.29489 h -0.06358 c -0.01096,0 -0.02741,0 -0.02741,0.0219 0,0.0208 0.01754,0.0208 0.02741,0.0208 h 0.175396 c 0.01096,0 0.0285,0 0.0285,-0.0208 0,-0.0219 -0.01644,-0.0219 -0.0285,-0.0219 h -0.06358 z m 0,0"
           id="id-c16c930e-e483-487d-847b-f879700d63d0" />
        <path
           style="fill:#000000;fill-opacity:1;stroke:none;stroke-width:0"
           d="m 91.720605,189.00608 c 0,-0.12936 -0.07125,-0.22144 -0.14799,-0.22144 -0.07783,0 -0.14799,0.0943 -0.14799,0.22144 0,0.12935 0.07125,0.22143 0.14799,0.22143 0.07893,0 0.14799,-0.0932 0.14799,-0.22143 z m -0.14799,0.17868 c -0.05481,0 -0.09976,-0.0822 -0.09976,-0.18636 0,-0.10195 0.04823,-0.17101 0.09976,-0.17101 0.05152,0 0.09976,0.0691 0.09976,0.17101 0,0.10414 -0.04494,0.18636 -0.09976,0.18636 z m 0,0"
           id="id-385090a7-11a4-437c-aa9c-ba3b23f6dae0" />
      </g>
      <g
         id="g2542"
         transform="translate(13.402923,-8.958175)">
        <path
           style="fill:#000000;fill-opacity:1;stroke:none;stroke-width:0"
           d="m 92.123278,189.18257 c 0,-0.0197 -0.01644,-0.0373 -0.03618,-0.0373 -0.02083,0 -0.03727,0.0175 -0.03727,0.0373 0,0.0208 0.01644,0.0373 0.03727,0.0373 0.01973,0 0.03618,-0.0164 0.03618,-0.0373 z m 0,0"
           id="id-e963b80f-b4c9-4ad2-8d40-1b7487a67e76" />
        <path
           style="fill:#000000;fill-opacity:1;stroke:none;stroke-width:0"
           d="m 92.434149,189.18257 c 0,-0.0197 -0.01644,-0.0373 -0.03618,-0.0373 -0.02083,0 -0.03727,0.0175 -0.03727,0.0373 0,0.0208 0.01644,0.0373 0.03727,0.0373 0.01973,0 0.03618,-0.0164 0.03618,-0.0373 z m 0,0"
           id="id-9c32b249-309e-419e-a7ef-d6ffe078adad" />
        <path
           style="fill:#000000;fill-opacity:1;stroke:none;stroke-width:0"
           d="m 92.744388,189.18257 c 0,-0.0197 -0.01644,-0.0373 -0.03618,-0.0373 -0.02083,0 -0.03727,0.0175 -0.03727,0.0373 0,0.0208 0.01644,0.0373 0.03727,0.0373 0.01973,0 0.03618,-0.0164 0.03618,-0.0373 z m 0,0"
           id="id-50dde030-b522-4a32-a241-ea833125a401" />
        <path
           style="fill:#000000;fill-opacity:1;stroke:none;stroke-width:0"
           d="m 93.138502,188.81314 c 0,-0.011 0,-0.0285 -0.02083,-0.0285 -0.01315,0 -0.01754,0.009 -0.02083,0.0164 -0.02631,0.0603 -0.06248,0.068 -0.07564,0.0691 -0.01206,0.001 -0.02631,0.002 -0.02631,0.0219 0,0.0175 0.01206,0.0208 0.02302,0.0208 0.01315,0 0.04166,-0.004 0.07235,-0.0307 v 0.29489 h -0.06358 c -0.01096,0 -0.02741,0 -0.02741,0.0219 0,0.0208 0.01754,0.0208 0.02741,0.0208 h 0.175396 c 0.01096,0 0.0285,0 0.0285,-0.0208 0,-0.0219 -0.01644,-0.0219 -0.0285,-0.0219 h -0.06358 z m 0,0"
           id="id-be04d7f7-56a3-4221-ac0c-c6c9c7e52fdf" />
        <path
           style="fill:#000000;fill-opacity:1;stroke:none;stroke-width:0"
           d="m 93.986434,189.00608 c 0,-0.12936 -0.07125,-0.22144 -0.14799,-0.22144 -0.07783,0 -0.14799,0.0943 -0.14799,0.22144 0,0.12935 0.07125,0.22143 0.14799,0.22143 0.07893,0 0.14799,-0.0932 0.14799,-0.22143 z m -0.14799,0.17868 c -0.05481,0 -0.09976,-0.0822 -0.09976,-0.18636 0,-0.10195 0.04823,-0.17101 0.09976,-0.17101 0.05152,0 0.09976,0.0691 0.09976,0.17101 0,0.10414 -0.04494,0.18636 -0.09976,0.18636 z m 0,0"
           id="id-f5902c52-8b4a-4714-9cf7-652818fba2a5" />
        <path
           style="fill:#000000;fill-opacity:1;stroke:none;stroke-width:0"
           d="m 94.606282,188.81314 c 0,-0.011 0,-0.0285 -0.02083,-0.0285 -0.01315,0 -0.01754,0.009 -0.02083,0.0164 -0.02631,0.0603 -0.06249,0.068 -0.07564,0.0691 -0.01206,0.001 -0.02631,0.002 -0.02631,0.0219 0,0.0175 0.01206,0.0208 0.02302,0.0208 0.01315,0 0.04166,-0.004 0.07235,-0.0307 v 0.29489 h -0.06358 c -0.01096,0 -0.02741,0 -0.02741,0.0219 0,0.0208 0.01754,0.0208 0.02741,0.0208 h 0.175396 c 0.01096,0 0.0285,0 0.0285,-0.0208 0,-0.0219 -0.01644,-0.0219 -0.0285,-0.0219 h -0.06358 z m 0,0"
           id="id-5e0e411b-dd01-4b7f-bf6e-3afb2bce2a40" />
        <path
           style="fill:#000000;fill-opacity:1;stroke:none;stroke-width:0"
           d="m 95.340207,188.81314 c 0,-0.011 0,-0.0285 -0.02083,-0.0285 -0.01315,0 -0.01754,0.009 -0.02083,0.0164 -0.02631,0.0603 -0.06249,0.068 -0.07564,0.0691 -0.01206,0.001 -0.02631,0.002 -0.02631,0.0219 0,0.0175 0.01206,0.0208 0.02302,0.0208 0.01315,0 0.04166,-0.004 0.07235,-0.0307 v 0.29489 h -0.06358 c -0.01096,0 -0.02741,0 -0.02741,0.0219 0,0.0208 0.01754,0.0208 0.02741,0.0208 h 0.175396 c 0.01096,0 0.0285,0 0.0285,-0.0208 0,-0.0219 -0.01644,-0.0219 -0.0285,-0.0219 h -0.06358 z m 0,0"
           id="id-9ddb44f4-61a6-4341-a457-0fbf08cb62b9" />
      </g>
      <g
         id="g2571"
         transform="translate(-3.9206433,-7.7680625)">
        <path
           style="fill:#000000;fill-opacity:1;stroke:none;stroke-width:0"
           d="m 95.856817,189.18257 c 0,-0.0197 -0.01644,-0.0373 -0.03618,-0.0373 -0.02083,0 -0.03727,0.0175 -0.03727,0.0373 0,0.0208 0.01644,0.0373 0.03727,0.0373 0.01973,0 0.03618,-0.0164 0.03618,-0.0373 z m 0,0"
           id="id-8f26e677-9c8c-4ae5-a8ec-b9b17b6f83be" />
        <path
           style="fill:#000000;fill-opacity:1;stroke:none;stroke-width:0"
           d="m 96.167688,189.18257 c 0,-0.0197 -0.01644,-0.0373 -0.03618,-0.0373 -0.02083,0 -0.03727,0.0175 -0.03727,0.0373 0,0.0208 0.01644,0.0373 0.03727,0.0373 0.01973,0 0.03618,-0.0164 0.03618,-0.0373 z m 0,0"
           id="id-647214d2-1f2e-43ef-8666-96fdfd1bc2b1" />
        <path
           style="fill:#000000;fill-opacity:1;stroke:none;stroke-width:0"
           d="m 96.477928,189.18257 c 0,-0.0197 -0.01644,-0.0373 -0.03618,-0.0373 -0.02083,0 -0.03727,0.0175 -0.03727,0.0373 0,0.0208 0.01644,0.0373 0.03727,0.0373 0.01973,0 0.03618,-0.0164 0.03618,-0.0373 z m 0,0"
           id="id-55223e20-3299-43f4-aab4-5bafb79eb222" />
        <path
           style="fill:#000000;fill-opacity:1;stroke:none;stroke-width:0"
           d="m 96.986119,189.00608 c 0,-0.12936 -0.07125,-0.22144 -0.14799,-0.22144 -0.07783,0 -0.14799,0.0943 -0.14799,0.22144 0,0.12935 0.07125,0.22143 0.14799,0.22143 0.07893,0 0.14799,-0.0932 0.14799,-0.22143 z m -0.14799,0.17868 c -0.05481,0 -0.09976,-0.0822 -0.09976,-0.18636 0,-0.10195 0.04823,-0.17101 0.09976,-0.17101 0.05152,0 0.09976,0.0691 0.09976,0.17101 0,0.10414 -0.04494,0.18636 -0.09976,0.18636 z m 0,0"
           id="id-6ba7ce8c-a72b-4dbe-891f-0c055118dffc" />
        <path
           style="fill:#000000;fill-opacity:1;stroke:none;stroke-width:0"
           d="m 97.606037,188.81314 c 0,-0.011 0,-0.0285 -0.02083,-0.0285 -0.01316,0 -0.01754,0.009 -0.02083,0.0164 -0.02631,0.0603 -0.06248,0.068 -0.07564,0.0691 -0.01206,0.001 -0.02631,0.002 -0.02631,0.0219 0,0.0175 0.01206,0.0208 0.02302,0.0208 0.01315,0 0.04166,-0.004 0.07235,-0.0307 v 0.29489 h -0.06358 c -0.01096,0 -0.0274,0 -0.0274,0.0219 0,0.0208 0.01754,0.0208 0.0274,0.0208 h 0.175396 c 0.01096,0 0.0285,0 0.0285,-0.0208 0,-0.0219 -0.01644,-0.0219 -0.0285,-0.0219 h -0.06358 z m 0,0"
           id="id-6ef811cc-6d32-4f5a-b963-e98b77b4e6bf" />
        <path
           style="fill:#000000;fill-opacity:1;stroke:none;stroke-width:0"
           d="m 98.339892,188.81314 c 0,-0.011 0,-0.0285 -0.02083,-0.0285 -0.01315,0 -0.01754,0.009 -0.02083,0.0164 -0.02631,0.0603 -0.06249,0.068 -0.07564,0.0691 -0.01206,0.001 -0.02631,0.002 -0.02631,0.0219 0,0.0175 0.01206,0.0208 0.02302,0.0208 0.01315,0 0.04166,-0.004 0.07235,-0.0307 v 0.29489 h -0.06358 c -0.01096,0 -0.02741,0 -0.02741,0.0219 0,0.0208 0.01754,0.0208 0.02741,0.0208 h 0.175396 c 0.01096,0 0.0285,0 0.0285,-0.0208 0,-0.0219 -0.01644,-0.0219 -0.0285,-0.0219 h -0.06358 z m 0,0"
           id="id-e5a58017-7db1-4a56-b4e0-5420e26f92e6" />
        <path
           style="fill:#000000;fill-opacity:1;stroke:none;stroke-width:0"
           d="m 99.187824,189.00608 c 0,-0.12936 -0.07125,-0.22144 -0.14799,-0.22144 -0.07783,0 -0.14799,0.0943 -0.14799,0.22144 0,0.12935 0.07125,0.22143 0.14799,0.22143 0.07893,0 0.14799,-0.0932 0.14799,-0.22143 z m -0.14799,0.17868 c -0.05481,0 -0.09976,-0.0822 -0.09976,-0.18636 0,-0.10195 0.04823,-0.17101 0.09976,-0.17101 0.05152,0 0.09976,0.0691 0.09976,0.17101 0,0.10414 -0.04494,0.18636 -0.09976,0.18636 z m 0,0"
           id="id-0dcb7088-5349-490e-8e19-693e70f41e6f" />
        <path
           style="fill:#000000;fill-opacity:1;stroke:none;stroke-width:0"
           d="m 99.807742,188.81314 c 0,-0.011 0,-0.0285 -0.02083,-0.0285 -0.01315,0 -0.01754,0.009 -0.02083,0.0164 -0.02631,0.0603 -0.06248,0.068 -0.07564,0.0691 -0.01206,0.001 -0.02631,0.002 -0.02631,0.0219 0,0.0175 0.01206,0.0208 0.02302,0.0208 0.01315,0 0.04166,-0.004 0.07235,-0.0307 v 0.29489 h -0.06358 c -0.01096,0 -0.02741,0 -0.02741,0.0219 0,0.0208 0.01754,0.0208 0.02741,0.0208 h 0.175396 c 0.01096,0 0.0285,0 0.0285,-0.0208 0,-0.0219 -0.01644,-0.0219 -0.0285,-0.0219 h -0.06358 z m 0,0"
           id="id-3c691e71-45f2-4a87-9461-62bded9a1963" />
        <path
           style="fill:#000000;fill-opacity:1;stroke:none;stroke-width:0"
           d="m 100.54166,188.81314 c 0,-0.011 0,-0.0285 -0.0208,-0.0285 -0.0132,0 -0.0175,0.009 -0.0208,0.0164 -0.0263,0.0603 -0.0625,0.068 -0.0756,0.0691 -0.0121,0.001 -0.0263,0.002 -0.0263,0.0219 0,0.0175 0.0121,0.0208 0.023,0.0208 0.0131,0 0.0416,-0.004 0.0724,-0.0307 v 0.29489 h -0.0636 c -0.011,0 -0.0274,0 -0.0274,0.0219 0,0.0208 0.0175,0.0208 0.0274,0.0208 h 0.17539 c 0.011,0 0.0285,0 0.0285,-0.0208 0,-0.0219 -0.0164,-0.0219 -0.0285,-0.0219 h -0.0636 z m 0,0"
           id="id-8e0a8a1f-c103-48c4-8625-b240257bd926" />
        <path
           style="fill:#000000;fill-opacity:1;stroke:none;stroke-width:0"
           d="m 101.38953,189.00608 c 0,-0.12936 -0.0713,-0.22144 -0.14799,-0.22144 -0.0778,0 -0.14799,0.0943 -0.14799,0.22144 0,0.12935 0.0713,0.22143 0.14799,0.22143 0.0789,0 0.14799,-0.0932 0.14799,-0.22143 z m -0.14799,0.17868 c -0.0548,0 -0.0998,-0.0822 -0.0998,-0.18636 0,-0.10195 0.0482,-0.17101 0.0998,-0.17101 0.0515,0 0.0998,0.0691 0.0998,0.17101 0,0.10414 -0.045,0.18636 -0.0998,0.18636 z m 0,0"
           id="id-39210ce4-21aa-42ad-b507-57a7a2c6a9a2" />
        <path
           style="fill:#000000;fill-opacity:1;stroke:none;stroke-width:0"
           d="m 102.00944,188.81314 c 0,-0.011 0,-0.0285 -0.0208,-0.0285 -0.0131,0 -0.0175,0.009 -0.0208,0.0164 -0.0263,0.0603 -0.0625,0.068 -0.0756,0.0691 -0.0121,0.001 -0.0263,0.002 -0.0263,0.0219 0,0.0175 0.0121,0.0208 0.023,0.0208 0.0132,0 0.0417,-0.004 0.0724,-0.0307 v 0.29489 h -0.0636 c -0.011,0 -0.0274,0 -0.0274,0.0219 0,0.0208 0.0175,0.0208 0.0274,0.0208 h 0.17539 c 0.011,0 0.0285,0 0.0285,-0.0208 0,-0.0219 -0.0164,-0.0219 -0.0285,-0.0219 h -0.0636 z m 0,0"
           id="id-080e08ae-df76-4475-82bc-281e26b13071" />
      </g>
      <g
         id="g2608"
         transform="translate(-15.71574,-3.7041668)">
        <path
           style="fill:#000000;fill-opacity:1;stroke:none;stroke-width:0"
           d="m 103.46542,189.00219 c 0,-0.12936 -0.0713,-0.22144 -0.14799,-0.22144 -0.0778,0 -0.14799,0.0943 -0.14799,0.22144 0,0.12935 0.0713,0.22143 0.14799,0.22143 0.0789,0 0.14799,-0.0932 0.14799,-0.22143 z m -0.14799,0.17868 c -0.0548,0 -0.0998,-0.0822 -0.0998,-0.18636 0,-0.10195 0.0482,-0.17101 0.0998,-0.17101 0.0515,0 0.0998,0.0691 0.0998,0.17101 0,0.10414 -0.045,0.18636 -0.0998,0.18636 z m 0,0"
           id="id-6375a324-3a68-40a9-8548-e732ca06611d" />
        <path
           style="fill:#000000;fill-opacity:1;stroke:none;stroke-width:0"
           d="m 103.34308,189.87148 c 0,-0.011 0,-0.0285 -0.0208,-0.0285 -0.0131,0 -0.0175,0.009 -0.0208,0.0164 -0.0263,0.0603 -0.0625,0.068 -0.0756,0.0691 -0.0121,0.001 -0.0263,0.002 -0.0263,0.0219 0,0.0175 0.0121,0.0208 0.023,0.0208 0.0132,0 0.0417,-0.004 0.0724,-0.0307 v 0.29489 h -0.0636 c -0.011,0 -0.0274,0 -0.0274,0.0219 0,0.0208 0.0175,0.0208 0.0274,0.0208 h 0.17539 c 0.011,0 0.0285,0 0.0285,-0.0208 0,-0.0219 -0.0164,-0.0219 -0.0285,-0.0219 h -0.0636 z m 0,0"
           id="id-0d59cae9-0f60-43a0-ba0f-241a9c96bb09" />
        <path
           style="fill:#000000;fill-opacity:1;stroke:none;stroke-width:0"
           d="m 103.46541,191.11887 c 0,-0.12936 -0.0713,-0.22144 -0.14798,-0.22144 -0.0778,0 -0.14799,0.0943 -0.14799,0.22144 0,0.12935 0.0713,0.22143 0.14799,0.22143 0.0789,0 0.14798,-0.0932 0.14798,-0.22143 z m -0.14798,0.17868 c -0.0548,0 -0.0998,-0.0822 -0.0998,-0.18636 0,-0.10195 0.0482,-0.17101 0.0998,-0.17101 0.0515,0 0.0998,0.0691 0.0998,0.17101 0,0.10414 -0.045,0.18636 -0.0998,0.18636 z m 0,0"
           id="id-c365c7af-3baa-4a05-bcb4-dcc7b081c2e0" />
        <path
           style="fill:#000000;fill-opacity:1;stroke:none;stroke-width:0"
           d="m 103.34308,191.98816 c 0,-0.011 0,-0.0285 -0.0208,-0.0285 -0.0131,0 -0.0175,0.009 -0.0208,0.0164 -0.0263,0.0603 -0.0625,0.068 -0.0756,0.0691 -0.0121,10e-4 -0.0263,0.002 -0.0263,0.0219 0,0.0175 0.0121,0.0208 0.023,0.0208 0.0131,0 0.0417,-0.004 0.0724,-0.0307 v 0.29489 h -0.0636 c -0.011,0 -0.0274,0 -0.0274,0.0219 0,0.0208 0.0175,0.0208 0.0274,0.0208 h 0.17539 c 0.011,0 0.0285,0 0.0285,-0.0208 0,-0.0219 -0.0164,-0.0219 -0.0285,-0.0219 h -0.0636 z m 0,0"
           id="id-71b0498a-9696-49e1-bb15-982b5164d9ca" />
        <path
           style="fill:#000000;fill-opacity:1;stroke:none;stroke-width:0"
           d="m 103.46541,193.23555 c 0,-0.12936 -0.0713,-0.22144 -0.14798,-0.22144 -0.0778,0 -0.14799,0.0943 -0.14799,0.22144 0,0.12935 0.0713,0.22143 0.14799,0.22143 0.0789,0 0.14798,-0.0932 0.14798,-0.22143 z m -0.14798,0.17868 c -0.0548,0 -0.0998,-0.0822 -0.0998,-0.18636 0,-0.10195 0.0482,-0.17101 0.0998,-0.17101 0.0515,0 0.0998,0.0691 0.0998,0.17101 0,0.10414 -0.045,0.18636 -0.0998,0.18636 z m 0,0"
           id="id-c300f04c-44a0-4724-84ee-2cf929edf056" />
        <path
           style="fill:#000000;fill-opacity:1;stroke:none;stroke-width:0"
           d="m 103.34308,194.10484 c 0,-0.011 0,-0.0285 -0.0208,-0.0285 -0.0131,0 -0.0175,0.009 -0.0208,0.0164 -0.0263,0.0603 -0.0625,0.068 -0.0756,0.0691 -0.0121,10e-4 -0.0263,0.002 -0.0263,0.0219 0,0.0175 0.0121,0.0208 0.023,0.0208 0.0131,0 0.0417,-0.004 0.0724,-0.0307 v 0.29489 h -0.0636 c -0.011,0 -0.0274,0 -0.0274,0.0219 0,0.0208 0.0175,0.0208 0.0274,0.0208 h 0.17539 c 0.011,0 0.0285,0 0.0285,-0.0208 0,-0.0219 -0.0164,-0.0219 -0.0285,-0.0219 h -0.0636 z m 0,0"
           id="id-5a5d6225-99e9-4992-a3d0-52ad688c4b31" />
        <g
           id="g2576"
           transform="translate(-3.208295,6.4492284)">
          <path
             style="fill:#000000;fill-opacity:1;stroke:none;stroke-width:0"
             d="m 106.56247,188.62341 c 0,-0.0197 -0.0164,-0.0373 -0.0362,-0.0373 -0.0208,0 -0.0373,0.0175 -0.0373,0.0373 0,0.0208 0.0165,0.0373 0.0373,0.0373 0.0197,0 0.0362,-0.0164 0.0362,-0.0373 z m 0,0"
             id="id-ed52af20-2acf-42bf-8ba1-6aeb3dffd710" />
          <path
             style="fill:#000000;fill-opacity:1;stroke:none;stroke-width:0"
             d="m 106.56247,188.90299 c 0,-0.0197 -0.0164,-0.0373 -0.0362,-0.0373 -0.0208,0 -0.0373,0.0175 -0.0373,0.0373 0,0.0208 0.0165,0.0373 0.0373,0.0373 0.0197,0 0.0362,-0.0164 0.0362,-0.0373 z m 0,0"
             id="id-e0157e6c-ea22-410f-b003-a3a49f787b33" />
          <path
             style="fill:#000000;fill-opacity:1;stroke:none;stroke-width:0"
             d="m 106.56247,189.18257 c 0,-0.0197 -0.0164,-0.0373 -0.0362,-0.0373 -0.0208,0 -0.0373,0.0175 -0.0373,0.0373 0,0.0208 0.0165,0.0373 0.0373,0.0373 0.0197,0 0.0362,-0.0164 0.0362,-0.0373 z m 0,0"
             id="id-aac4d8e3-220e-4a73-ab4c-c69d4db5671d" />
        </g>
      </g>
      <g
         id="g2558"
         transform="translate(17.125567,-6.576925)">
        <path
           style="fill:#000000;fill-opacity:1;stroke:none;stroke-width:0"
           d="m 88.389668,189.18257 c 0,-0.0197 -0.01644,-0.0373 -0.03618,-0.0373 -0.02083,0 -0.03727,0.0175 -0.03727,0.0373 0,0.0208 0.01644,0.0373 0.03727,0.0373 0.01973,0 0.03618,-0.0164 0.03618,-0.0373 z m 0,0"
           id="path2544" />
        <path
           style="fill:#000000;fill-opacity:1;stroke:none;stroke-width:0"
           d="m 88.700539,189.18257 c 0,-0.0197 -0.01644,-0.0373 -0.03618,-0.0373 -0.02083,0 -0.03727,0.0175 -0.03727,0.0373 0,0.0208 0.01644,0.0373 0.03727,0.0373 0.01973,0 0.03618,-0.0164 0.03618,-0.0373 z m 0,0"
           id="path2546" />
        <path
           style="fill:#000000;fill-opacity:1;stroke:none;stroke-width:0"
           d="m 89.010779,189.18257 c 0,-0.0197 -0.01644,-0.0373 -0.03618,-0.0373 -0.02083,0 -0.03727,0.0175 -0.03727,0.0373 0,0.0208 0.01644,0.0373 0.03727,0.0373 0.01973,0 0.03618,-0.0164 0.03618,-0.0373 z m 0,0"
           id="path2548" />
        <path
           style="fill:#000000;fill-opacity:1;stroke:none;stroke-width:0"
           d="m 89.5189,189.00608 c 0,-0.12936 -0.07125,-0.22144 -0.14799,-0.22144 -0.07783,0 -0.14799,0.0943 -0.14799,0.22144 0,0.12935 0.07125,0.22143 0.14799,0.22143 0.07893,0 0.14799,-0.0932 0.14799,-0.22143 z m -0.14799,0.17868 c -0.05481,0 -0.09976,-0.0822 -0.09976,-0.18636 0,-0.10195 0.04823,-0.17101 0.09976,-0.17101 0.05152,0 0.09976,0.0691 0.09976,0.17101 0,0.10414 -0.04494,0.18636 -0.09976,0.18636 z m 0,0"
           id="path2550" />
        <path
           style="fill:#000000;fill-opacity:1;stroke:none;stroke-width:0"
           d="m 90.138818,188.81314 c 0,-0.011 0,-0.0285 -0.02083,-0.0285 -0.01316,0 -0.01754,0.009 -0.02083,0.0164 -0.02631,0.0603 -0.06248,0.068 -0.07564,0.0691 -0.01206,0.001 -0.02631,0.002 -0.02631,0.0219 0,0.0175 0.01206,0.0208 0.02302,0.0208 0.01315,0 0.04166,-0.004 0.07235,-0.0307 v 0.29489 h -0.06358 c -0.01096,0 -0.0274,0 -0.0274,0.0219 0,0.0208 0.01754,0.0208 0.0274,0.0208 h 0.175396 c 0.01096,0 0.0285,0 0.0285,-0.0208 0,-0.0219 -0.01644,-0.0219 -0.0285,-0.0219 h -0.06358 z m 0,0"
           id="path2552" />
        <path
           style="fill:#000000;fill-opacity:1;stroke:none;stroke-width:0"
           d="m 90.872673,188.81314 c 0,-0.011 0,-0.0285 -0.02083,-0.0285 -0.01315,0 -0.01754,0.009 -0.02083,0.0164 -0.02631,0.0603 -0.06249,0.068 -0.07564,0.0691 -0.01206,0.001 -0.02631,0.002 -0.02631,0.0219 0,0.0175 0.01206,0.0208 0.02302,0.0208 0.01315,0 0.04166,-0.004 0.07235,-0.0307 v 0.29489 h -0.06358 c -0.01096,0 -0.02741,0 -0.02741,0.0219 0,0.0208 0.01754,0.0208 0.02741,0.0208 h 0.175396 c 0.01096,0 0.0285,0 0.0285,-0.0208 0,-0.0219 -0.01644,-0.0219 -0.0285,-0.0219 h -0.06358 z m 0,0"
           id="path2554" />
        <path
           style="fill:#000000;fill-opacity:1;stroke:none;stroke-width:0"
           d="m 91.720605,189.00608 c 0,-0.12936 -0.07125,-0.22144 -0.14799,-0.22144 -0.07783,0 -0.14799,0.0943 -0.14799,0.22144 0,0.12935 0.07125,0.22143 0.14799,0.22143 0.07893,0 0.14799,-0.0932 0.14799,-0.22143 z m -0.14799,0.17868 c -0.05481,0 -0.09976,-0.0822 -0.09976,-0.18636 0,-0.10195 0.04823,-0.17101 0.09976,-0.17101 0.05152,0 0.09976,0.0691 0.09976,0.17101 0,0.10414 -0.04494,0.18636 -0.09976,0.18636 z m 0,0"
           id="path2556" />
      </g>
      <g
         id="g2620"
         transform="translate(-5.71079,-3.7041668)">
        <path
           style="fill:#000000;fill-opacity:1;stroke:none;stroke-width:0"
           d="m 108.75709,189.00219 c 0,-0.12936 -0.0713,-0.22144 -0.14799,-0.22144 -0.0778,0 -0.14799,0.0943 -0.14799,0.22144 0,0.12935 0.0713,0.22143 0.14799,0.22143 0.0789,0 0.14799,-0.0932 0.14799,-0.22143 z m -0.14799,0.17868 c -0.0548,0 -0.0998,-0.0822 -0.0998,-0.18636 0,-0.10195 0.0482,-0.17101 0.0998,-0.17101 0.0515,0 0.0998,0.0691 0.0998,0.17101 0,0.10414 -0.045,0.18636 -0.0998,0.18636 z m 0,0"
           id="path2578" />
        <path
           style="fill:#000000;fill-opacity:1;stroke:none;stroke-width:0"
           d="m 108.63475,189.87148 c 0,-0.011 0,-0.0285 -0.0208,-0.0285 -0.0131,0 -0.0175,0.009 -0.0208,0.0164 -0.0263,0.0603 -0.0625,0.068 -0.0756,0.0691 -0.0121,0.001 -0.0263,0.002 -0.0263,0.0219 0,0.0175 0.0121,0.0208 0.023,0.0208 0.0132,0 0.0417,-0.004 0.0724,-0.0307 v 0.29489 h -0.0636 c -0.011,0 -0.0274,0 -0.0274,0.0219 0,0.0208 0.0175,0.0208 0.0274,0.0208 h 0.17539 c 0.011,0 0.0285,0 0.0285,-0.0208 0,-0.0219 -0.0164,-0.0219 -0.0285,-0.0219 h -0.0636 z m 0,0"
           id="path2580" />
        <path
           style="fill:#000000;fill-opacity:1;stroke:none;stroke-width:0"
           d="m 108.75708,191.11887 c 0,-0.12936 -0.0713,-0.22144 -0.14798,-0.22144 -0.0778,0 -0.14799,0.0943 -0.14799,0.22144 0,0.12935 0.0713,0.22143 0.14799,0.22143 0.0789,0 0.14798,-0.0932 0.14798,-0.22143 z m -0.14798,0.17868 c -0.0548,0 -0.0998,-0.0822 -0.0998,-0.18636 0,-0.10195 0.0482,-0.17101 0.0998,-0.17101 0.0515,0 0.0998,0.0691 0.0998,0.17101 0,0.10414 -0.045,0.18636 -0.0998,0.18636 z m 0,0"
           id="path2582" />
        <path
           style="fill:#000000;fill-opacity:1;stroke:none;stroke-width:0"
           d="m 108.63475,191.98816 c 0,-0.011 0,-0.0285 -0.0208,-0.0285 -0.0131,0 -0.0175,0.009 -0.0208,0.0164 -0.0263,0.0603 -0.0625,0.068 -0.0756,0.0691 -0.0121,10e-4 -0.0263,0.002 -0.0263,0.0219 0,0.0175 0.0121,0.0208 0.023,0.0208 0.0131,0 0.0417,-0.004 0.0724,-0.0307 v 0.29489 h -0.0636 c -0.011,0 -0.0274,0 -0.0274,0.0219 0,0.0208 0.0175,0.0208 0.0274,0.0208 h 0.17539 c 0.011,0 0.0285,0 0.0285,-0.0208 0,-0.0219 -0.0164,-0.0219 -0.0285,-0.0219 h -0.0636 z m 0,0"
           id="path2584" />
        <path
           style="fill:#000000;fill-opacity:1;stroke:none;stroke-width:0"
           d="m 108.75708,193.23555 c 0,-0.12936 -0.0713,-0.22144 -0.14798,-0.22144 -0.0778,0 -0.14799,0.0943 -0.14799,0.22144 0,0.12935 0.0713,0.22143 0.14799,0.22143 0.0789,0 0.14798,-0.0932 0.14798,-0.22143 z m -0.14798,0.17868 c -0.0548,0 -0.0998,-0.0822 -0.0998,-0.18636 0,-0.10195 0.0482,-0.17101 0.0998,-0.17101 0.0515,0 0.0998,0.0691 0.0998,0.17101 0,0.10414 -0.045,0.18636 -0.0998,0.18636 z m 0,0"
           id="path2586" />
        <path
           style="fill:#000000;fill-opacity:1;stroke:none;stroke-width:0"
           d="m 108.63475,194.10484 c 0,-0.011 0,-0.0285 -0.0208,-0.0285 -0.0131,0 -0.0175,0.009 -0.0208,0.0164 -0.0263,0.0603 -0.0625,0.068 -0.0756,0.0691 -0.0121,10e-4 -0.0263,0.002 -0.0263,0.0219 0,0.0175 0.0121,0.0208 0.023,0.0208 0.0131,0 0.0417,-0.004 0.0724,-0.0307 v 0.29489 h -0.0636 c -0.011,0 -0.0274,0 -0.0274,0.0219 0,0.0208 0.0175,0.0208 0.0274,0.0208 h 0.17539 c 0.011,0 0.0285,0 0.0285,-0.0208 0,-0.0219 -0.0164,-0.0219 -0.0285,-0.0219 h -0.0636 z m 0,0"
           id="path2588" />
        <g
           id="g2596"
           transform="translate(2.0833717,6.4492284)">
          <path
             style="fill:#000000;fill-opacity:1;stroke:none;stroke-width:0"
             d="m 106.56247,188.62341 c 0,-0.0197 -0.0164,-0.0373 -0.0362,-0.0373 -0.0208,0 -0.0373,0.0175 -0.0373,0.0373 0,0.0208 0.0165,0.0373 0.0373,0.0373 0.0197,0 0.0362,-0.0164 0.0362,-0.0373 z m 0,0"
             id="path2590" />
          <path
             style="fill:#000000;fill-opacity:1;stroke:none;stroke-width:0"
             d="m 106.56247,188.90299 c 0,-0.0197 -0.0164,-0.0373 -0.0362,-0.0373 -0.0208,0 -0.0373,0.0175 -0.0373,0.0373 0,0.0208 0.0165,0.0373 0.0373,0.0373 0.0197,0 0.0362,-0.0164 0.0362,-0.0373 z m 0,0"
             id="path2592" />
          <path
             style="fill:#000000;fill-opacity:1;stroke:none;stroke-width:0"
             d="m 106.56247,189.18257 c 0,-0.0197 -0.0164,-0.0373 -0.0362,-0.0373 -0.0208,0 -0.0373,0.0175 -0.0373,0.0373 0,0.0208 0.0165,0.0373 0.0373,0.0373 0.0197,0 0.0362,-0.0164 0.0362,-0.0373 z m 0,0"
             id="path2594" />
        </g>
      </g>
      <g
         id="g3268"
         transform="matrix(0.72082444,0,0,0.72082444,28.770517,38.44508)">
        <g
           transform="matrix(0.18321076,0,0,0.18321076,80.557224,194.24521)"
           id="g3045"
           style="fill:#000000;fill-opacity:1">
          <path
             style="stroke:none;stroke-width:0"
             d="M 2.890625,-3.671875 C 2.765625,-3.3125 2.6875,-3.03125 2.625,-2.734375 H 2.609375 c -0.09375,-0.46875 -0.96875,-3.0625 -1,-3.125 C 1.515625,-6.09375 1.265625,-6.09375 1.125,-6.09375 H 0.5625 c -0.140625,0 -0.390625,0 -0.390625,0.296875 0,0.3125 0.203125,0.3125 0.53125,0.3125 v 4.875 c -0.328125,0 -0.53125,0 -0.53125,0.3125 C 0.171875,0 0.421875,0 0.5625,0 H 1.390625 C 1.53125,0 1.78125,0 1.78125,-0.296875 c 0,-0.3125 -0.203125,-0.3125 -0.53125,-0.3125 v -4.75 h 0.015625 c 0.109375,0.453125 0.75,2.375 0.78125,2.5 C 2.140625,-2.625 2.265625,-2.25 2.3125,-2.1875 2.375,-2.109375 2.5,-2.03125 2.609375,-2.03125 c 0.125,0 0.265625,-0.078125 0.34375,-0.21875 0.03125,-0.0625 0.890625,-2.578125 1,-3.109375 H 3.96875 v 4.75 c -0.3125,0 -0.53125,0 -0.53125,0.3125 C 3.4375,0 3.6875,0 3.84375,0 h 0.8125 c 0.15625,0 0.390625,0 0.390625,-0.296875 0,-0.3125 -0.203125,-0.3125 -0.515625,-0.3125 v -4.875 c 0.3125,0 0.515625,0 0.515625,-0.3125 0,-0.296875 -0.234375,-0.296875 -0.390625,-0.296875 h -0.5625 c -0.40625,0 -0.4375,0.140625 -0.53125,0.40625 z m 0,0"
             id="id-65318d3c-7fc2-4027-a2b3-d899f1658bca" />
        </g>
        <g
           transform="matrix(0.18321076,0,0,0.18321076,81.515416,194.24521)"
           id="g3048"
           style="fill:#000000;fill-opacity:1">
          <path
             style="stroke:none;stroke-width:0"
             d="M 3.5625,-0.3125 C 3.578125,0 3.78125,0 3.96875,0 H 4.6875 c 0.171875,0 0.421875,0 0.421875,-0.3125 0,-0.296875 -0.265625,-0.296875 -0.40625,-0.296875 H 4.25 v -3.28125 c 0,-0.3125 -0.046875,-0.40625 -0.390625,-0.40625 H 3.125 c -0.15625,0 -0.40625,0 -0.40625,0.3125 0,0.296875 0.265625,0.296875 0.40625,0.296875 h 0.4375 v 2.125 c 0,0.890625 -0.796875,1.015625 -1.125,1.015625 -0.78125,0 -0.78125,-0.328125 -0.78125,-0.65625 v -2.6875 c 0,-0.3125 -0.0625,-0.40625 -0.40625,-0.40625 H 0.53125 c -0.15625,0 -0.40625,0 -0.40625,0.3125 0,0.296875 0.25,0.296875 0.390625,0.296875 H 0.96875 v 2.546875 c 0,0.96875 0.6875,1.203125 1.40625,1.203125 0.421875,0 0.828125,-0.109375 1.1875,-0.375 z m 0,0"
             id="id-e5c7cc00-7eb6-4e2c-9e32-f74fb482e185" />
        </g>
        <g
           transform="matrix(0.18321076,0,0,0.18321076,82.473791,194.24521)"
           id="g3051"
           style="fill:#000000;fill-opacity:1">
          <path
             style="stroke:none;stroke-width:0"
             d="M 2.859375,-2.21875 4,-3.6875 h 0.390625 c 0.140625,0 0.421875,0 0.421875,-0.296875 0,-0.3125 -0.265625,-0.3125 -0.421875,-0.3125 h -1.15625 c -0.15625,0 -0.40625,0 -0.40625,0.296875 0,0.3125 0.21875,0.3125 0.484375,0.3125 l -0.734375,1 -0.75,-1 c 0.25,0 0.46875,0 0.46875,-0.3125 0,-0.296875 -0.25,-0.296875 -0.390625,-0.296875 H 0.734375 c -0.140625,0 -0.40625,0 -0.40625,0.3125 0,0.296875 0.265625,0.296875 0.40625,0.296875 h 0.40625 L 2.3125,-2.21875 1.078125,-0.609375 h -0.40625 c -0.140625,0 -0.40625,0 -0.40625,0.3125 C 0.265625,0 0.53125,0 0.671875,0 H 1.84375 C 2,0 2.25,0 2.25,-0.296875 c 0,-0.3125 -0.21875,-0.3125 -0.53125,-0.3125 l 0.859375,-1.21875 0.890625,1.21875 c -0.28125,0 -0.5,0 -0.5,0.3125 C 2.96875,0 3.21875,0 3.375,0 h 1.15625 c 0.140625,0 0.40625,0 0.40625,-0.296875 0,-0.3125 -0.25,-0.3125 -0.40625,-0.3125 H 4.140625 Z m 0,0"
             id="id-2ddd6996-78c5-4c8e-98f4-d6143b3bd7a1" />
        </g>
      </g>
      <g
         id="g3278"
         transform="matrix(0.72082444,0,0,0.72082444,40.428655,38.44508)">
        <g
           transform="matrix(0.18321076,0,0,0.18321076,84.390176,194.24521)"
           id="g3055"
           style="fill:#000000;fill-opacity:1">
          <path
             style="stroke:none;stroke-width:0"
             d="m 0.59375,-6.09375 c -0.15625,0 -0.40625,0 -0.40625,0.3125 0,0.296875 0.265625,0.296875 0.40625,0.296875 H 0.8125 v 4.875 H 0.59375 c -0.15625,0 -0.40625,0 -0.40625,0.3125 C 0.1875,0 0.453125,0 0.59375,0 h 2.0625 c 1.296875,0 2.171875,-1.390625 2.171875,-3 0,-1.59375 -0.84375,-3.09375 -2.171875,-3.09375 z M 1.5,-0.609375 v -4.875 h 0.96875 c 1.125,0 1.671875,1.328125 1.671875,2.484375 0,1.171875 -0.578125,2.390625 -1.671875,2.390625 z m 0,0"
             id="id-065f59ea-dfef-4cec-a232-4ba084cb5cd6" />
        </g>
        <g
           transform="matrix(0.18321076,0,0,0.18321076,85.348551,194.24521)"
           id="g3058"
           style="fill:#000000;fill-opacity:1">
          <path
             style="stroke:none;stroke-width:0"
             d="M 2.890625,-3.671875 C 2.765625,-3.3125 2.6875,-3.03125 2.625,-2.734375 H 2.609375 c -0.09375,-0.46875 -0.96875,-3.0625 -1,-3.125 C 1.515625,-6.09375 1.265625,-6.09375 1.125,-6.09375 H 0.5625 c -0.140625,0 -0.390625,0 -0.390625,0.296875 0,0.3125 0.203125,0.3125 0.53125,0.3125 v 4.875 c -0.328125,0 -0.53125,0 -0.53125,0.3125 C 0.171875,0 0.421875,0 0.5625,0 H 1.390625 C 1.53125,0 1.78125,0 1.78125,-0.296875 c 0,-0.3125 -0.203125,-0.3125 -0.53125,-0.3125 v -4.75 h 0.015625 c 0.109375,0.453125 0.75,2.375 0.78125,2.5 C 2.140625,-2.625 2.265625,-2.25 2.3125,-2.1875 2.375,-2.109375 2.5,-2.03125 2.609375,-2.03125 c 0.125,0 0.265625,-0.078125 0.34375,-0.21875 0.03125,-0.0625 0.890625,-2.578125 1,-3.109375 H 3.96875 v 4.75 c -0.3125,0 -0.53125,0 -0.53125,0.3125 C 3.4375,0 3.6875,0 3.84375,0 h 0.8125 c 0.15625,0 0.390625,0 0.390625,-0.296875 0,-0.3125 -0.203125,-0.3125 -0.515625,-0.3125 v -4.875 c 0.3125,0 0.515625,0 0.515625,-0.3125 0,-0.296875 -0.234375,-0.296875 -0.390625,-0.296875 h -0.5625 c -0.40625,0 -0.4375,0.140625 -0.53125,0.40625 z m 0,0"
             id="id-9f383a05-396d-4e07-9678-992aa40d18c5" />
        </g>
        <g
           transform="matrix(0.18321076,0,0,0.18321076,86.306744,194.24521)"
           id="g3061"
           style="fill:#000000;fill-opacity:1">
          <path
             style="stroke:none;stroke-width:0"
             d="M 3.5625,-0.3125 C 3.578125,0 3.78125,0 3.96875,0 H 4.6875 c 0.171875,0 0.421875,0 0.421875,-0.3125 0,-0.296875 -0.265625,-0.296875 -0.40625,-0.296875 H 4.25 v -3.28125 c 0,-0.3125 -0.046875,-0.40625 -0.390625,-0.40625 H 3.125 c -0.15625,0 -0.40625,0 -0.40625,0.3125 0,0.296875 0.265625,0.296875 0.40625,0.296875 h 0.4375 v 2.125 c 0,0.890625 -0.796875,1.015625 -1.125,1.015625 -0.78125,0 -0.78125,-0.328125 -0.78125,-0.65625 v -2.6875 c 0,-0.3125 -0.0625,-0.40625 -0.40625,-0.40625 H 0.53125 c -0.15625,0 -0.40625,0 -0.40625,0.3125 0,0.296875 0.25,0.296875 0.390625,0.296875 H 0.96875 v 2.546875 c 0,0.96875 0.6875,1.203125 1.40625,1.203125 0.421875,0 0.828125,-0.109375 1.1875,-0.375 z m 0,0"
             id="id-ae53d45a-551f-4531-a493-8057f84761b9" />
        </g>
        <g
           transform="matrix(0.18321076,0,0,0.18321076,87.265119,194.24521)"
           id="g3064"
           style="fill:#000000;fill-opacity:1">
          <path
             style="stroke:none;stroke-width:0"
             d="M 2.859375,-2.21875 4,-3.6875 h 0.390625 c 0.140625,0 0.421875,0 0.421875,-0.296875 0,-0.3125 -0.265625,-0.3125 -0.421875,-0.3125 h -1.15625 c -0.15625,0 -0.40625,0 -0.40625,0.296875 0,0.3125 0.21875,0.3125 0.484375,0.3125 l -0.734375,1 -0.75,-1 c 0.25,0 0.46875,0 0.46875,-0.3125 0,-0.296875 -0.25,-0.296875 -0.390625,-0.296875 H 0.734375 c -0.140625,0 -0.40625,0 -0.40625,0.3125 0,0.296875 0.265625,0.296875 0.40625,0.296875 h 0.40625 L 2.3125,-2.21875 1.078125,-0.609375 h -0.40625 c -0.140625,0 -0.40625,0 -0.40625,0.3125 C 0.265625,0 0.53125,0 0.671875,0 H 1.84375 C 2,0 2.25,0 2.25,-0.296875 c 0,-0.3125 -0.21875,-0.3125 -0.53125,-0.3125 l 0.859375,-1.21875 0.890625,1.21875 c -0.28125,0 -0.5,0 -0.5,0.3125 C 2.96875,0 3.21875,0 3.375,0 h 1.15625 c 0.140625,0 0.40625,0 0.40625,-0.296875 0,-0.3125 -0.25,-0.3125 -0.40625,-0.3125 H 4.140625 Z m 0,0"
             id="id-3aed4b39-c546-48a5-a7ae-8305543eca0d" />
        </g>
      </g>
    </g>
  </g>
</svg>
