<?xml version="1.0" encoding="UTF-8" standalone="no"?>
<svg
   version="1.1"
   id="svg903"
   sodipodi:docname="mux_gate.svg"
   inkscape:version="1.1 (c4e8f9e, 2021-05-24)"
   width="35.904167"
   height="26.601242"
   viewBox="0 0 43.81069 19.108997"
   xmlns:inkscape="http://www.inkscape.org/namespaces/inkscape"
   xmlns:sodipodi="http://sodipodi.sourceforge.net/DTD/sodipodi-0.dtd"
   xmlns="http://www.w3.org/2000/svg"
   xmlns:svg="http://www.w3.org/2000/svg">
  <sodipodi:namedview
     id="namedview905"
     pagecolor="#ffffff"
     bordercolor="#666666"
     borderopacity="1.0"
     inkscape:pageshadow="2"
     inkscape:pageopacity="0.0"
     inkscape:pagecheckerboard="0"
     showgrid="false"
     inkscape:zoom="8.064516"
     inkscape:cx="12.958"
     inkscape:cy="3.2860001"
     inkscape:window-width="1440"
     inkscape:window-height="847"
     inkscape:window-x="2158"
     inkscape:window-y="28"
     inkscape:window-maximized="0"
     inkscape:current-layer="svg903"
     inkscape:snap-global="true"
     lock-margins="true"
     fit-margin-top="0"
     fit-margin-left="0"
     fit-margin-right="0"
     fit-margin-bottom="0"
     viewbox-height="100"
     width="65.16291px"
     inkscape:snap-center="true">
    <inkscape:grid
       type="xygrid"
       id="grid1463"
       originx="-413.06547"
       originy="-218.03779" />
  </sodipodi:namedview>
  <defs
     id="defs831">
    <clipPath
       id="page">
      <rect
         x="0"
         y="0"
         width="760"
         height="620"
         id="rect824" />
    </clipPath>
    <clipPath
       id="clipPath829">
      <rect
         x="0"
         y="0"
         width="760"
         height="620"
         id="rect827" />
    </clipPath>
    <defs
       id="id-6218469a-638a-438a-8285-87af46e395b2">
      <g
         id="id-41f024df-1921-46fd-b358-2bb13516e3a0">
        <symbol
           overflow="visible"
           id="id-751024ce-17db-425f-8adf-8e5129a58830">
          <path
             style="stroke:none;stroke-width:0"
             d=""
             id="id-f6b93899-9967-45d1-bf36-847d7d2c198e" />
        </symbol>
        <symbol
           overflow="visible"
           id="id-ccd68d53-c78f-4352-a28f-35fa76bbcac7">
          <path
             style="stroke:none;stroke-width:0"
             d="M 3.65625,-0.3125 C 3.875,-0.015625 4.34375,0 4.71875,0 c 0.28125,0 0.5,0 0.5,-0.3125 0,-0.296875 -0.25,-0.296875 -0.390625,-0.296875 -0.421875,0 -0.515625,-0.046875 -0.59375,-0.078125 v -2.15625 c 0,-0.703125 -0.546875,-1.546875 -1.984375,-1.546875 -0.421875,0 -1.4375,0 -1.4375,0.734375 0,0.296875 0.203125,0.453125 0.4375,0.453125 0.15625,0 0.4375,-0.09375 0.4375,-0.453125 0,-0.078125 0.015625,-0.09375 0.21875,-0.109375 0.140625,-0.015625 0.265625,-0.015625 0.359375,-0.015625 0.75,0 1.265625,0.3125 1.265625,1.015625 -1.75,0.03125 -2.984375,0.53125 -2.984375,1.484375 0,0.6875 0.625,1.34375 1.640625,1.34375 0.375,0 1,-0.078125 1.46875,-0.375 z m -0.125,-1.859375 v 0.84375 c 0,0.21875 0,0.4375 -0.375,0.609375 -0.359375,0.171875 -0.8125,0.171875 -0.890625,0.171875 -0.625,0 -1.03125,-0.34375 -1.03125,-0.734375 0,-0.484375 0.859375,-0.859375 2.296875,-0.890625 z m 0,0"
             id="id-b9f47a47-f328-4fbb-9ab9-075c127460cc" />
        </symbol>
        <symbol
           overflow="visible"
           id="id-401b8321-aa4e-4d98-9505-d73242a42246">
          <path
             style="stroke:none;stroke-width:0"
             d="m 3.078125,-3.890625 c 0,-0.3125 -0.0625,-0.40625 -0.390625,-0.40625 H 1.265625 c -0.15625,0 -0.40625,0 -0.40625,0.296875 0,0.3125 0.25,0.3125 0.40625,0.3125 h 1.125 v 3.078125 H 1.1875 c -0.15625,0 -0.40625,0 -0.40625,0.3125 C 0.78125,0 1.03125,0 1.1875,0 H 4.125 c 0.15625,0 0.40625,0 0.40625,-0.296875 0,-0.3125 -0.25,-0.3125 -0.40625,-0.3125 H 3.078125 Z m 0,-1.71875 c 0,-0.265625 -0.21875,-0.484375 -0.5,-0.484375 -0.28125,0 -0.5,0.21875 -0.5,0.484375 0,0.28125 0.21875,0.5 0.5,0.5 0.28125,0 0.5,-0.21875 0.5,-0.5 z m 0,0"
             id="id-0fd42125-ad84-4701-a8ce-45308056cf4b" />
        </symbol>
        <symbol
           overflow="visible"
           id="id-05c21c86-3cfb-4459-8d0c-c82f21629225">
          <path
             style="stroke:none;stroke-width:0"
             d="m 1.65625,-3.828125 c 0,-0.3125 0,-0.46875 -0.40625,-0.46875 H 0.53125 c -0.15625,0 -0.40625,0 -0.40625,0.3125 0,0.296875 0.25,0.296875 0.390625,0.296875 H 0.96875 v 3.078125 h -0.4375 c -0.15625,0 -0.40625,0 -0.40625,0.3125 C 0.125,0 0.375,0 0.515625,0 h 1.59375 C 2.25,0 2.5,0 2.5,-0.296875 c 0,-0.3125 -0.25,-0.3125 -0.40625,-0.3125 H 1.65625 V -2.375 c 0,-1 0.734375,-1.375 1.25,-1.375 0.515625,0 0.65625,0.28125 0.65625,0.875 v 2.265625 h -0.375 c -0.171875,0 -0.421875,0 -0.421875,0.3125 C 2.765625,0 3.046875,0 3.1875,0 h 1.515625 c 0.140625,0 0.40625,0 0.40625,-0.296875 0,-0.3125 -0.25,-0.3125 -0.421875,-0.3125 H 4.25 v -2.3125 c 0,-1 -0.5,-1.4375 -1.296875,-1.4375 -0.65625,0 -1.109375,0.34375 -1.296875,0.53125 z m 0,0"
             id="id-cd1dcb34-b685-4e9c-bcc9-a4dde7921945" />
        </symbol>
        <symbol
           overflow="visible"
           id="id-5f56a1bd-723a-449b-a3b1-7588ebe3e409">
          <path
             style="stroke:none;stroke-width:0"
             d="m 1.65625,-3.875 v -1.8125 c 0,-0.296875 -0.0625,-0.40625 -0.40625,-0.40625 H 0.53125 c -0.15625,0 -0.40625,0 -0.40625,0.3125 0,0.296875 0.25,0.296875 0.390625,0.296875 H 0.96875 V -0.40625 C 0.96875,-0.203125 0.96875,0 1.3125,0 1.65625,0 1.65625,-0.203125 1.65625,-0.453125 2.0625,-0.03125 2.5,0.0625 2.8125,0.0625 c 1.078125,0 2.046875,-0.953125 2.046875,-2.21875 0,-1.21875 -0.875,-2.203125 -1.9375,-2.203125 C 2.4375,-4.359375 2,-4.171875 1.65625,-3.875 Z m 0,1.96875 V -2.625 c 0,-0.59375 0.578125,-1.125 1.203125,-1.125 0.734375,0 1.3125,0.734375 1.3125,1.59375 0,0.953125 -0.6875,1.609375 -1.390625,1.609375 -0.78125,0 -1.125,-0.875 -1.125,-1.359375 z m 0,0"
             id="id-b698f2b2-49e2-41f4-acf3-55dfbbc509bb" />
        </symbol>
        <symbol
           overflow="visible"
           id="id-1f3dfe3a-af28-4378-9c76-aa66616c3dcc">
          <path
             style="stroke:none;stroke-width:0"
             d="m 4.65625,-2.15625 c 0,-1.25 -0.921875,-2.234375 -2.046875,-2.234375 -1.109375,0 -2.046875,0.984375 -2.046875,2.234375 0,1.265625 0.953125,2.21875 2.046875,2.21875 1.09375,0 2.046875,-0.953125 2.046875,-2.21875 z M 2.609375,-0.546875 C 1.875,-0.546875 1.25,-1.296875 1.25,-2.21875 c 0,-0.90625 0.65625,-1.5625 1.359375,-1.5625 0.71875,0 1.359375,0.65625 1.359375,1.5625 0,0.921875 -0.625,1.671875 -1.359375,1.671875 z m 0,0"
             id="id-c1270fac-d09c-4689-bd6d-b0156142bddb" />
        </symbol>
        <symbol
           overflow="visible"
           id="id-e6207ffc-747b-45f3-992f-2730cf031a66">
          <path
             style="stroke:none;stroke-width:0"
             d="M 3.5625,-0.3125 C 3.578125,0 3.78125,0 3.96875,0 H 4.6875 c 0.171875,0 0.421875,0 0.421875,-0.3125 0,-0.296875 -0.265625,-0.296875 -0.40625,-0.296875 H 4.25 v -3.28125 c 0,-0.3125 -0.046875,-0.40625 -0.390625,-0.40625 H 3.125 c -0.15625,0 -0.40625,0 -0.40625,0.3125 0,0.296875 0.265625,0.296875 0.40625,0.296875 h 0.4375 v 2.125 c 0,0.890625 -0.796875,1.015625 -1.125,1.015625 -0.78125,0 -0.78125,-0.328125 -0.78125,-0.65625 v -2.6875 c 0,-0.3125 -0.0625,-0.40625 -0.40625,-0.40625 H 0.53125 c -0.15625,0 -0.40625,0 -0.40625,0.3125 0,0.296875 0.25,0.296875 0.390625,0.296875 H 0.96875 v 2.546875 c 0,0.96875 0.6875,1.203125 1.40625,1.203125 0.421875,0 0.828125,-0.109375 1.1875,-0.375 z m 0,0"
             id="id-9d42f572-479c-4864-bc3d-5b49699842bf" />
        </symbol>
        <symbol
           overflow="visible"
           id="id-51bfbd88-b321-441a-bddf-ba7a11db208a">
          <path
             style="stroke:none;stroke-width:0"
             d="m 2.21875,-3.6875 h 1.625 c 0.15625,0 0.40625,0 0.40625,-0.296875 0,-0.3125 -0.25,-0.3125 -0.40625,-0.3125 h -1.625 v -0.8125 c 0,-0.1875 0,-0.40625 -0.34375,-0.40625 -0.34375,0 -0.34375,0.203125 -0.34375,0.40625 v 0.8125 h -0.875 c -0.15625,0 -0.40625,0 -0.40625,0.3125 0,0.296875 0.25,0.296875 0.390625,0.296875 H 1.53125 V -1.25 c 0,0.953125 0.671875,1.3125 1.40625,1.3125 0.734375,0 1.53125,-0.4375 1.53125,-1.3125 0,-0.1875 0,-0.390625 -0.34375,-0.390625 -0.328125,0 -0.34375,0.203125 -0.34375,0.375 0,0.625 -0.578125,0.71875 -0.796875,0.71875 -0.765625,0 -0.765625,-0.515625 -0.765625,-0.765625 z m 0,0"
             id="id-f74c9a73-0850-47af-9843-d8aaf2169dcb" />
        </symbol>
        <symbol
           overflow="visible"
           id="id-200c1419-b8e5-405f-be97-acac90bf23be">
          <path
             style="stroke:none;stroke-width:0"
             d="m 3.15625,-5.828125 c -0.09375,-0.375 -0.234375,-0.375 -0.546875,-0.375 -0.28125,0 -0.453125,0 -0.53125,0.375 L 0.875,-0.609375 c -0.140625,0 -0.375,0 -0.4375,0.015625 -0.109375,0.0625 -0.171875,0.171875 -0.171875,0.296875 C 0.265625,0 0.53125,0 0.703125,0 H 1.71875 c 0.171875,0 0.421875,0 0.421875,-0.296875 0,-0.3125 -0.203125,-0.3125 -0.5625,-0.3125 l 0.21875,-1.03125 h 1.625 l 0.234375,1.03125 c -0.359375,0 -0.5625,0 -0.5625,0.3125 C 3.09375,0 3.328125,0 3.515625,0 H 4.53125 c 0.15625,0 0.421875,0 0.421875,-0.296875 0,-0.125 -0.046875,-0.234375 -0.171875,-0.28125 C 4.71875,-0.609375 4.5,-0.609375 4.359375,-0.609375 Z M 2.609375,-5.40625 H 2.625 L 3.265625,-2.25 h -1.3125 z m 0,0"
             id="id-f8319bc5-2d07-4ba8-be76-a87f43cbb9b1" />
        </symbol>
        <symbol
           overflow="visible"
           id="id-b25f727e-99ff-45b9-ba92-abffca11b1ab">
          <path
             style="stroke:none;stroke-width:0"
             d="M 1.890625,-5.734375 C 1.78125,-6.0625 1.625,-6.09375 1.359375,-6.09375 h -0.6875 c -0.140625,0 -0.390625,0 -0.390625,0.296875 0,0.3125 0.234375,0.3125 0.390625,0.3125 h 0.25 v 4.875 h -0.25 c -0.140625,0 -0.390625,0 -0.390625,0.296875 C 0.28125,0 0.515625,0 0.671875,0 h 1.0625 c 0.15625,0 0.40625,0 0.40625,-0.296875 0,-0.3125 -0.25,-0.3125 -0.40625,-0.3125 h -0.25 V -5.34375 H 1.5 l 1.828125,4.984375 C 3.453125,-0.015625 3.625,0 3.875,0 4.171875,0 4.296875,-0.03125 4.296875,-0.40625 v -5.078125 h 0.25 c 0.140625,0 0.390625,0 0.390625,-0.296875 0,-0.3125 -0.234375,-0.3125 -0.390625,-0.3125 h -1.0625 c -0.15625,0 -0.390625,0 -0.390625,0.3125 0,0.296875 0.25,0.296875 0.390625,0.296875 h 0.25 V -0.75 Z m 0,0"
             id="id-93fd820e-48ab-4e59-b856-fa13db5d1be0" />
        </symbol>
        <symbol
           overflow="visible"
           id="id-a982602c-b3a5-4545-892b-4b3eff224e27">
          <path
             style="stroke:none;stroke-width:0"
             d="m 0.59375,-6.09375 c -0.15625,0 -0.40625,0 -0.40625,0.3125 0,0.296875 0.265625,0.296875 0.40625,0.296875 H 0.8125 v 4.875 H 0.59375 c -0.15625,0 -0.40625,0 -0.40625,0.3125 C 0.1875,0 0.453125,0 0.59375,0 h 2.0625 c 1.296875,0 2.171875,-1.390625 2.171875,-3 0,-1.59375 -0.84375,-3.09375 -2.171875,-3.09375 z M 1.5,-0.609375 v -4.875 h 0.96875 c 1.125,0 1.671875,1.328125 1.671875,2.484375 0,1.171875 -0.578125,2.390625 -1.671875,2.390625 z m 0,0"
             id="id-224038d9-4e7c-47de-b24d-f48c3630ffbd" />
        </symbol>
        <symbol
           overflow="visible"
           id="id-3794078e-7ca2-48ba-bf3e-babf57e7553f">
          <path
             style="stroke:none;stroke-width:0"
             d="m 4.671875,-3.046875 c 0,-2.875 -0.21875,-3.15625 -2.0625,-3.15625 -1.84375,0 -2.046875,0.265625 -2.046875,3.15625 0,2.890625 0.203125,3.15625 2.046875,3.15625 1.84375,0 2.0625,-0.265625 2.0625,-3.15625 z M 2.609375,-0.5 c -0.875,0 -1.125,-0.203125 -1.25,-0.703125 C 1.25,-1.71875 1.25,-2.578125 1.25,-3.125 c 0,-0.625 0,-1.296875 0.109375,-1.765625 0.125,-0.578125 0.4375,-0.703125 1.25,-0.703125 0.75,0 1.09375,0.09375 1.25,0.640625 0.125,0.46875 0.125,1.21875 0.125,1.828125 0,0.609375 0,1.328125 -0.109375,1.859375 C 3.765625,-0.703125 3.5,-0.5 2.609375,-0.5 Z m 0,0"
             id="id-7b7e6dbc-b182-430a-a3ef-a5094e130594" />
        </symbol>
        <symbol
           overflow="visible"
           id="id-fa0f2f5b-0e23-4716-b0b0-67dce32f3ce1">
          <path
             style="stroke:none;stroke-width:0"
             d="m 1.5625,-5.484375 h 0.703125 c 0.921875,0 1.359375,0.59375 1.359375,1.0625 0,0.5 -0.4375,1.078125 -1.359375,1.078125 H 1.5625 Z M 3.46875,-3.03125 C 4.125,-3.40625 4.3125,-4 4.3125,-4.421875 4.3125,-5.28125 3.5625,-6.09375 2.375,-6.09375 h -1.75 c -0.171875,0 -0.40625,0 -0.40625,0.3125 0,0.296875 0.25,0.296875 0.40625,0.296875 h 0.25 v 4.875 h -0.25 c -0.171875,0 -0.40625,0 -0.40625,0.3125 C 0.21875,0 0.46875,0 0.625,0 h 1.171875 c 0.15625,0 0.40625,0 0.40625,-0.296875 0,-0.3125 -0.234375,-0.3125 -0.40625,-0.3125 H 1.5625 v -2.125 h 0.765625 c 0.1875,0 0.5,0 0.8125,0.265625 0.21875,0.21875 0.21875,0.4375 0.21875,0.859375 0,0.640625 0,0.9375 0.1875,1.265625 C 3.71875,-0.046875 4,0.109375 4.34375,0.109375 c 0.625,0 0.859375,-0.65625 0.859375,-1.03125 C 5.203125,-1.25 4.96875,-1.25 4.859375,-1.25 4.75,-1.25 4.53125,-1.25 4.515625,-0.953125 4.515625,-0.875 4.5,-0.5 4.328125,-0.5 c -0.28125,0 -0.28125,-0.453125 -0.28125,-0.984375 0,-0.625 0,-0.703125 -0.09375,-0.9375 -0.109375,-0.296875 -0.34375,-0.5 -0.484375,-0.609375 z m 0,0"
             id="id-db8e951c-11f6-411a-91d4-f855b18c2f52" />
        </symbol>
        <symbol
           overflow="visible"
           id="id-577334e6-4aef-4721-88a3-b043c304ac55">
          <path
             style="stroke:none;stroke-width:0"
             d="M 2.953125,-5.484375 H 4.28125 v 0.53125 c 0,0.1875 0,0.40625 0.328125,0.40625 0.359375,0 0.359375,-0.203125 0.359375,-0.40625 V -5.6875 c 0,-0.296875 -0.0625,-0.40625 -0.40625,-0.40625 H 0.671875 c -0.328125,0 -0.40625,0.078125 -0.40625,0.40625 v 0.734375 c 0,0.1875 0,0.40625 0.328125,0.40625 0.359375,0 0.359375,-0.203125 0.359375,-0.40625 v -0.53125 h 1.3125 v 4.875 H 1.75 c -0.140625,0 -0.390625,0 -0.390625,0.296875 C 1.359375,0 1.59375,0 1.75,0 H 3.484375 C 3.625,0 3.875,0 3.875,-0.296875 c 0,-0.3125 -0.234375,-0.3125 -0.390625,-0.3125 h -0.53125 z m 0,0"
             id="id-32bac1b0-5a52-4f06-b328-242c1b243ff5" />
        </symbol>
      </g>
    </defs>
    <defs
       id="id-ec203785-2bbc-436f-ab49-697b9375c35a">
      <g
         id="id-0a56ea66-8b53-475a-bdab-711ee7a37cb4">
        <symbol
           overflow="visible"
           id="id-7d28ac79-f4b8-4a73-9436-d34e1a59e0f1">
          <path
             style="stroke:none;stroke-width:0"
             d=""
             id="id-6266ddca-c1e0-43f8-9cc1-02fb7146f3ae" />
        </symbol>
        <symbol
           overflow="visible"
           id="id-09547277-9aa9-4b7b-bb1b-6ce8eb4ba293">
          <path
             style="stroke:none;stroke-width:0"
             d="M 2.890625,-3.671875 C 2.765625,-3.3125 2.6875,-3.03125 2.625,-2.734375 H 2.609375 c -0.09375,-0.46875 -0.96875,-3.0625 -1,-3.125 C 1.515625,-6.09375 1.265625,-6.09375 1.125,-6.09375 H 0.5625 c -0.140625,0 -0.390625,0 -0.390625,0.296875 0,0.3125 0.203125,0.3125 0.53125,0.3125 v 4.875 c -0.328125,0 -0.53125,0 -0.53125,0.3125 C 0.171875,0 0.421875,0 0.5625,0 H 1.390625 C 1.53125,0 1.78125,0 1.78125,-0.296875 c 0,-0.3125 -0.203125,-0.3125 -0.53125,-0.3125 v -4.75 h 0.015625 c 0.109375,0.453125 0.75,2.375 0.78125,2.5 C 2.140625,-2.625 2.265625,-2.25 2.3125,-2.1875 2.375,-2.109375 2.5,-2.03125 2.609375,-2.03125 c 0.125,0 0.265625,-0.078125 0.34375,-0.21875 0.03125,-0.0625 0.890625,-2.578125 1,-3.109375 H 3.96875 v 4.75 c -0.3125,0 -0.53125,0 -0.53125,0.3125 C 3.4375,0 3.6875,0 3.84375,0 h 0.8125 c 0.15625,0 0.390625,0 0.390625,-0.296875 0,-0.3125 -0.203125,-0.3125 -0.515625,-0.3125 v -4.875 c 0.3125,0 0.515625,0 0.515625,-0.3125 0,-0.296875 -0.234375,-0.296875 -0.390625,-0.296875 h -0.5625 c -0.40625,0 -0.4375,0.140625 -0.53125,0.40625 z m 0,0"
             id="id-6a9db49b-6918-4b89-9ce8-ea7cb336ac92" />
        </symbol>
        <symbol
           overflow="visible"
           id="id-d8fdee6a-80d8-4571-9f57-5c27179a6511">
          <path
             style="stroke:none;stroke-width:0"
             d="M 3.5625,-0.3125 C 3.578125,0 3.78125,0 3.96875,0 H 4.6875 c 0.171875,0 0.421875,0 0.421875,-0.3125 0,-0.296875 -0.265625,-0.296875 -0.40625,-0.296875 H 4.25 v -3.28125 c 0,-0.3125 -0.046875,-0.40625 -0.390625,-0.40625 H 3.125 c -0.15625,0 -0.40625,0 -0.40625,0.3125 0,0.296875 0.265625,0.296875 0.40625,0.296875 h 0.4375 v 2.125 c 0,0.890625 -0.796875,1.015625 -1.125,1.015625 -0.78125,0 -0.78125,-0.328125 -0.78125,-0.65625 v -2.6875 c 0,-0.3125 -0.0625,-0.40625 -0.40625,-0.40625 H 0.53125 c -0.15625,0 -0.40625,0 -0.40625,0.3125 0,0.296875 0.25,0.296875 0.390625,0.296875 H 0.96875 v 2.546875 c 0,0.96875 0.6875,1.203125 1.40625,1.203125 0.421875,0 0.828125,-0.109375 1.1875,-0.375 z m 0,0"
             id="id-721ccac4-ddaa-4d71-b924-d32166297769" />
        </symbol>
        <symbol
           overflow="visible"
           id="id-376f8408-37f1-4ab4-bec2-d812fe40da5b">
          <path
             style="stroke:none;stroke-width:0"
             d="M 2.859375,-2.21875 4,-3.6875 h 0.390625 c 0.140625,0 0.421875,0 0.421875,-0.296875 0,-0.3125 -0.265625,-0.3125 -0.421875,-0.3125 h -1.15625 c -0.15625,0 -0.40625,0 -0.40625,0.296875 0,0.3125 0.21875,0.3125 0.484375,0.3125 l -0.734375,1 -0.75,-1 c 0.25,0 0.46875,0 0.46875,-0.3125 0,-0.296875 -0.25,-0.296875 -0.390625,-0.296875 H 0.734375 c -0.140625,0 -0.40625,0 -0.40625,0.3125 0,0.296875 0.265625,0.296875 0.40625,0.296875 h 0.40625 L 2.3125,-2.21875 1.078125,-0.609375 h -0.40625 c -0.140625,0 -0.40625,0 -0.40625,0.3125 C 0.265625,0 0.53125,0 0.671875,0 H 1.84375 C 2,0 2.25,0 2.25,-0.296875 c 0,-0.3125 -0.21875,-0.3125 -0.53125,-0.3125 l 0.859375,-1.21875 0.890625,1.21875 c -0.28125,0 -0.5,0 -0.5,0.3125 C 2.96875,0 3.21875,0 3.375,0 h 1.15625 c 0.140625,0 0.40625,0 0.40625,-0.296875 0,-0.3125 -0.25,-0.3125 -0.40625,-0.3125 H 4.140625 Z m 0,0"
             id="id-304c2cee-c999-486d-a018-557eaa0b4b44" />
        </symbol>
        <symbol
           overflow="visible"
           id="id-6c1f408a-72e1-455e-95cc-9b5bf2e23285">
          <path
             style="stroke:none;stroke-width:0"
             d="M 2.96875,-2.546875 C 2.734375,-2.578125 2.546875,-2.609375 2.296875,-2.65625 2,-2.703125 1.328125,-2.828125 1.328125,-3.203125 c 0,-0.265625 0.3125,-0.578125 1.265625,-0.578125 0.828125,0 0.96875,0.296875 1,0.5625 0,0.171875 0.03125,0.34375 0.328125,0.34375 0.359375,0 0.359375,-0.21875 0.359375,-0.421875 v -0.6875 c 0,-0.15625 0,-0.40625 -0.296875,-0.40625 -0.25,0 -0.28125,0.140625 -0.3125,0.21875 -0.4375,-0.21875 -0.875,-0.21875 -1.0625,-0.21875 -1.65625,0 -1.890625,0.828125 -1.890625,1.1875 0,0.90625 1.046875,1.078125 1.96875,1.21875 0.484375,0.078125 1.28125,0.203125 1.28125,0.734375 0,0.375 -0.375,0.703125 -1.28125,0.703125 -0.46875,0 -1.015625,-0.109375 -1.265625,-0.890625 -0.0625,-0.171875 -0.09375,-0.28125 -0.359375,-0.28125 -0.34375,0 -0.34375,0.203125 -0.34375,0.40625 v 0.96875 c 0,0.15625 0,0.40625 0.296875,0.40625 0.09375,0 0.25,-0.015625 0.375,-0.375 0.484375,0.359375 1.015625,0.375 1.296875,0.375 1.5625,0 1.890625,-0.828125 1.890625,-1.3125 0,-1.03125 -1.28125,-1.25 -1.609375,-1.296875 z m 0,0"
             id="id-5296f883-5d75-4a84-8d11-71e3fdee1e70" />
        </symbol>
        <symbol
           overflow="visible"
           id="id-b458080b-926b-4abf-b1b9-1aae41e81946">
          <path
             style="stroke:none;stroke-width:0"
             d="m 4.234375,-1.90625 c 0.203125,0 0.390625,0 0.390625,-0.359375 0,-1.140625 -0.640625,-2.125 -1.9375,-2.125 -1.1875,0 -2.140625,1 -2.140625,2.234375 0,1.203125 1.015625,2.21875 2.296875,2.21875 1.3125,0 1.78125,-0.90625 1.78125,-1.15625 0,-0.265625 -0.28125,-0.265625 -0.34375,-0.265625 -0.1875,0 -0.265625,0.03125 -0.328125,0.21875 -0.21875,0.5 -0.765625,0.59375 -1.046875,0.59375 -0.75,0 -1.484375,-0.5 -1.65625,-1.359375 z M 1.265625,-2.5 C 1.40625,-3.234375 2,-3.78125 2.6875,-3.78125 c 0.515625,0 1.140625,0.25 1.234375,1.28125 z m 0,0"
             id="id-5bbac773-800c-44c6-8395-e0b614c22e7d" />
        </symbol>
        <symbol
           overflow="visible"
           id="id-e67d6124-f67c-45e4-9dbe-7c405a0c149e">
          <path
             style="stroke:none;stroke-width:0"
             d="m 2.953125,-5.6875 c 0,-0.296875 -0.046875,-0.40625 -0.390625,-0.40625 H 0.984375 c -0.15625,0 -0.40625,0 -0.40625,0.3125 0,0.296875 0.265625,0.296875 0.40625,0.296875 h 1.28125 v 4.875 h -1.28125 c -0.15625,0 -0.40625,0 -0.40625,0.3125 C 0.578125,0 0.84375,0 0.984375,0 H 4.25 c 0.15625,0 0.40625,0 0.40625,-0.296875 0,-0.3125 -0.234375,-0.3125 -0.40625,-0.3125 H 2.953125 Z m 0,0"
             id="id-2b3e2151-d5a6-43c1-87ef-1f148afcc75a" />
        </symbol>
      </g>
    </defs>
  </defs>
  <g
     id="g2199"
     transform="translate(-0.46294122,-28.529452)">
    <path
       style="fill:none;stroke:#000000;stroke-width:0.595463;stroke-linecap:round;stroke-linejoin:round;stroke-miterlimit:4;stroke-dasharray:none;stroke-opacity:1"
       d="M 26.673738,35.857505 14.471619,26.705915 V 45.009093 Z"
       id="path1003" />
    <path
       style="fill:none;stroke:#000000;stroke-width:0.595463;stroke-linecap:butt;stroke-linejoin:miter;stroke-miterlimit:4;stroke-dasharray:none;stroke-opacity:1"
       d="M 8.3705587,30.366551 H 14.471618"
       id="path1271" />
    <path
       style="fill:none;stroke:#000000;stroke-width:0.595463;stroke-linecap:butt;stroke-linejoin:miter;stroke-miterlimit:4;stroke-dasharray:none;stroke-opacity:1"
       d="m 8.370559,41.348457 h 6.10106"
       id="path1273" />
    <path
       style="fill:none;stroke:#000000;stroke-width:0.595463;stroke-linecap:butt;stroke-linejoin:miter;stroke-miterlimit:4;stroke-dasharray:none;stroke-opacity:1"
       d="M 19.352466,41.348457 V 49.88994"
       id="path1388" />
    <path
       style="fill:none;stroke:#000000;stroke-width:0.595463;stroke-linecap:butt;stroke-linejoin:miter;stroke-miterlimit:4;stroke-dasharray:none;stroke-opacity:1"
       d="m 26.560257,35.862385 h 9.761695"
       id="path1538" />
    <g
       id="g1918"
       transform="translate(3.6121287,2.3841802)">
      <path
         style="fill:#000000;fill-opacity:1;stroke:none;stroke-width:0"
         d="m 13.185748,20.845143 c -0.07097,0.204025 -0.115318,0.363696 -0.150801,0.532238 h -0.0089 c -0.05322,-0.266119 -0.54998,-1.738644 -0.567721,-1.774126 -0.05322,-0.13306 -0.195154,-0.13306 -0.274989,-0.13306 h -0.319343 c -0.07984,0 -0.221766,0 -0.221766,0.168542 0,0.177413 0.115318,0.177413 0.301601,0.177413 v 2.767637 c -0.186283,0 -0.301601,0 -0.301601,0.177413 0,0.168542 0.14193,0.168542 0.221766,0.168542 h 0.470143 c 0.07984,0 0.221766,0 0.221766,-0.168542 0,-0.177413 -0.115318,-0.177413 -0.301601,-0.177413 v -2.696672 h 0.0089 c 0.0621,0.257248 0.425791,1.348336 0.443532,1.419301 0.05322,0.13306 0.124189,0.345955 0.150801,0.381437 0.03548,0.04435 0.106447,0.08871 0.168542,0.08871 0.07096,0 0.1508,-0.04435 0.195154,-0.124189 0.01774,-0.03548 0.505626,-1.463655 0.56772,-1.765256 h 0.0089 v 2.696672 c -0.177413,0 -0.301602,0 -0.301602,0.177413 0,0.168542 0.14193,0.168542 0.230637,0.168542 h 0.461273 c 0.08871,0 0.221765,0 0.221765,-0.168542 0,-0.177413 -0.115318,-0.177413 -0.29273,-0.177413 v -2.76764 c 0.177412,0 0.29273,0 0.29273,-0.177413 0,-0.168542 -0.133059,-0.168542 -0.221765,-0.168542 h -0.319343 c -0.230637,0 -0.248378,0.07984 -0.301602,0.230637 z m 0,0"
         id="id-73622176-ea1d-41d3-8241-400d190e216b" />
      <path
         style="fill:#000000;fill-opacity:1;stroke:none;stroke-width:0"
         d="m 16.536364,22.752329 c 0.0089,0.177413 0.124189,0.177413 0.230637,0.177413 h 0.408049 c 0.09758,0 0.239507,0 0.239507,-0.177413 0,-0.168542 -0.150801,-0.168542 -0.230636,-0.168542 h -0.257249 v -1.862833 c 0,-0.177412 -0.02661,-0.230636 -0.221766,-0.230636 h -0.416919 c -0.08871,0 -0.230637,0 -0.230637,0.177413 0,0.168542 0.150801,0.168542 0.230637,0.168542 h 0.248377 v 1.206406 c 0,0.505626 -0.452402,0.576591 -0.638685,0.576591 -0.443532,0 -0.443532,-0.186283 -0.443532,-0.372567 v -1.525749 c 0,-0.177412 -0.03548,-0.230636 -0.230636,-0.230636 h -0.408049 c -0.08871,0 -0.230637,0 -0.230637,0.177413 0,0.168542 0.14193,0.168542 0.221766,0.168542 h 0.257248 v 1.445913 c 0,0.549979 0.390308,0.683039 0.798357,0.683039 0.239507,0 0.470144,-0.06209 0.674168,-0.212896 z m 0,0"
         id="id-e530c433-01e7-43d8-b874-4209e6fc43d2" />
      <path
         style="fill:#000000;fill-opacity:1;stroke:none;stroke-width:0"
         d="m 19.106932,21.670112 0.647556,-0.833839 h 0.221766 c 0.07984,0 0.239507,0 0.239507,-0.168542 0,-0.177413 -0.150801,-0.177413 -0.239507,-0.177413 h -0.656427 c -0.08871,0 -0.230636,0 -0.230636,0.168542 0,0.177413 0.124188,0.177413 0.274989,0.177413 l -0.41692,0.56772 -0.42579,-0.56772 c 0.14193,0 0.266119,0 0.266119,-0.177413 0,-0.168542 -0.14193,-0.168542 -0.221766,-0.168542 h -0.665297 c -0.07984,0 -0.230637,0 -0.230637,0.177413 0,0.168542 0.150801,0.168542 0.230637,0.168542 h 0.230636 l 0.665298,0.833839 -0.70078,0.913675 h -0.230637 c -0.07983,0 -0.230636,0 -0.230636,0.177413 0,0.168542 0.150801,0.168542 0.230636,0.168542 h 0.665298 c 0.08871,0 0.230636,0 0.230636,-0.168542 0,-0.177413 -0.124189,-0.177413 -0.301601,-0.177413 l 0.487884,-0.691909 0.505627,0.691909 c -0.159672,0 -0.283861,0 -0.283861,0.177413 0,0.168542 0.14193,0.168542 0.230637,0.168542 h 0.656427 c 0.07983,0 0.230636,0 0.230636,-0.168542 0,-0.177413 -0.14193,-0.177413 -0.230636,-0.177413 h -0.221766 z m 0,0"
         id="id-2524a5d0-2b23-4060-9249-0ea2e5d9cf3c" />
    </g>
    <g
       id="g1923"
       transform="translate(-7.3679275,9.3084146)">
      <path
         style="fill:#000000;fill-opacity:1;stroke:none;stroke-width:0"
         d="m 24.512694,43.841145 c -0.104547,-0.01394 -0.188185,-0.02788 -0.299702,-0.04878 -0.132426,-0.02091 -0.432127,-0.07667 -0.432127,-0.243943 0,-0.118487 0.139395,-0.257883 0.564554,-0.257883 0.369399,0 0.432127,0.132426 0.446067,0.250913 0,0.07667 0.01394,0.153336 0.146366,0.153336 0.160305,0 0.160305,-0.09758 0.160305,-0.188185 v -0.306671 c 0,-0.0697 0,-0.181215 -0.132426,-0.181215 -0.111517,0 -0.125456,0.06273 -0.139396,0.09758 -0.195154,-0.09758 -0.390309,-0.09758 -0.473946,-0.09758 -0.7388,0 -0.843347,0.3694 -0.843347,0.529705 0,0.404248 0.466977,0.480916 0.878195,0.543645 0.216064,0.03485 0.571524,0.09061 0.571524,0.32758 0,0.167276 -0.167275,0.313642 -0.571524,0.313642 -0.209094,0 -0.453037,-0.04879 -0.564553,-0.397279 -0.02788,-0.07667 -0.04182,-0.125457 -0.160306,-0.125457 -0.153336,0 -0.153336,0.09061 -0.153336,0.181215 v 0.432128 c 0,0.0697 0,0.181215 0.132426,0.181215 0.04182,0 0.111517,-0.007 0.167275,-0.167276 0.216065,0.160306 0.453038,0.167276 0.578494,0.167276 0.696981,0 0.843346,-0.3694 0.843346,-0.585464 0,-0.460006 -0.571523,-0.557584 -0.717889,-0.578493 z m 0,0"
         id="id-86c4e5e9-d55a-4968-b4ef-1bca70d9aef9" />
      <path
         style="fill:#000000;fill-opacity:1;stroke:none;stroke-width:0"
         d="m 27.410627,44.126907 c 0.09061,0 0.174245,0 0.174245,-0.160306 0,-0.508796 -0.285762,-0.947893 -0.864256,-0.947893 -0.529705,0 -0.954863,0.446067 -0.954863,0.996682 0,0.536674 0.453037,0.989712 1.024561,0.989712 0.585464,0 0.794558,-0.404249 0.794558,-0.515765 0,-0.118487 -0.125457,-0.118487 -0.153336,-0.118487 -0.08364,0 -0.118486,0.01394 -0.146366,0.09758 -0.09758,0.223034 -0.34152,0.264853 -0.466976,0.264853 -0.334551,0 -0.662132,-0.223034 -0.738799,-0.606373 z m -1.324263,-0.264853 c 0.06273,-0.327581 0.327581,-0.571524 0.634252,-0.571524 0.230004,0 0.508796,0.111517 0.550615,0.571524 z m 0,0"
         id="id-a270df5d-1294-44e6-95bd-c550721bffcf" />
      <path
         style="fill:#000000;fill-opacity:1;stroke:none;stroke-width:0"
         d="m 29.172037,42.440214 c 0,-0.132426 -0.02091,-0.181215 -0.174246,-0.181215 h -0.70395 c -0.0697,0 -0.181215,0 -0.181215,0.139396 0,0.132427 0.118487,0.132427 0.181215,0.132427 h 0.571524 V 44.7054 h -0.571524 c -0.0697,0 -0.181215,0 -0.181215,0.139396 0,0.132427 0.118487,0.132427 0.181215,0.132427 h 1.456689 c 0.0697,0 0.181215,0 0.181215,-0.132427 0,-0.139396 -0.104547,-0.139396 -0.181215,-0.139396 h -0.578493 z m 0,0"
         id="id-29fa28c8-c4be-4ae9-a2cf-5563fd419bb3" />
    </g>
    <g
       id="g2062"
       transform="translate(1.3281988,19.648244)">
      <circle
         cx="5.8221483"
         cy="10.718307"
         r="1.1902974"
         stroke="none"
         fill="#ffffff"
         id="circle2058"
         style="stroke-width:0.297574" />
      <circle
         cx="5.8221483"
         cy="10.718307"
         r="1.1902974"
         fill="none"
         stroke="#000000"
         stroke-width="0.595149"
         id="circle2060" />
    </g>
    <g
       id="g2068"
       transform="translate(1.3281988,30.630151)">
      <circle
         cx="5.8221483"
         cy="10.718307"
         r="1.1902974"
         stroke="none"
         fill="#ffffff"
         id="circle2064"
         style="stroke-width:0.297574" />
      <circle
         cx="5.8221483"
         cy="10.718307"
         r="1.1902974"
         fill="none"
         stroke="#000000"
         stroke-width="0.595149"
         id="circle2066" />
    </g>
    <path
       style="fill:#000000;fill-opacity:1;stroke:none;stroke-width:0"
       d="m 2.0503152,31.302385 c 0.110561,0.150049 0.347484,0.157947 0.537021,0.157947 0.1421507,0 0.2527147,0 0.2527147,-0.157947 0,-0.150052 -0.126356,-0.150052 -0.1974347,-0.150052 -0.213227,0 -0.260612,-0.02369 -0.300098,-0.03948 v -1.089839 c 0,-0.355381 -0.27641,-0.781841 -1.002968,-0.781841 -0.21323,0 -0.726558,0 -0.726558,0.371176 0,0.150052 0.102667,0.229025 0.221125,0.229025 0.07898,0 0.221128,-0.04739 0.221128,-0.229025 0,-0.03948 0.0079,-0.04738 0.110563,-0.05528 0.07108,-0.0079 0.134254,-0.0079 0.18164,-0.0079 0.379074,0 0.639686,0.157947 0.639686,0.513331 -0.884504,0.0158 -1.508398,0.268514 -1.508398,0.750254 0,0.347484 0.315896,0.679175 0.829224,0.679175 0.189537,0 0.505433,-0.03949 0.742355,-0.189537 z m -0.06318,-0.939787 v 0.426457 c 0,0.110563 0,0.221127 -0.189537,0.307998 -0.181639,0.08687 -0.410661,0.08687 -0.450149,0.08687 -0.315896,0 -0.521229,-0.173742 -0.521229,-0.371176 0,-0.244821 0.434358,-0.434358 1.160915,-0.450149 z m 0,0"
       id="path2070" />
    <g
       transform="matrix(0.50543212,0,0,0.50543212,0.3997622,42.872651)"
       id="g2074"
       style="fill:#000000;fill-opacity:1">
      <path
         style="stroke:none;stroke-width:0"
         d="m 1.65625,-3.875 v -1.8125 c 0,-0.296875 -0.0625,-0.40625 -0.40625,-0.40625 H 0.53125 c -0.15625,0 -0.40625,0 -0.40625,0.3125 0,0.296875 0.25,0.296875 0.390625,0.296875 H 0.96875 V -0.40625 C 0.96875,-0.203125 0.96875,0 1.3125,0 1.65625,0 1.65625,-0.203125 1.65625,-0.453125 2.0625,-0.03125 2.5,0.0625 2.8125,0.0625 c 1.078125,0 2.046875,-0.953125 2.046875,-2.21875 0,-1.21875 -0.875,-2.203125 -1.9375,-2.203125 C 2.4375,-4.359375 2,-4.171875 1.65625,-3.875 Z m 0,1.96875 V -2.625 c 0,-0.59375 0.578125,-1.125 1.203125,-1.125 0.734375,0 1.3125,0.734375 1.3125,1.59375 0,0.953125 -0.6875,1.609375 -1.390625,1.609375 -0.78125,0 -1.125,-0.875 -1.125,-1.359375 z m 0,0"
         id="path2072" />
    </g>
    <g
       id="g2088"
       transform="matrix(0.15942293,0,0,0.15942293,-17.243608,6.8635588)">
      <g
         transform="matrix(2.6814,0,0,2.6814,345.84185,189.20972)"
         id="g2078"
         style="fill:#000000;fill-opacity:1">
        <path
           style="stroke:none;stroke-width:0"
           d="m 4.65625,-2.15625 c 0,-1.25 -0.921875,-2.234375 -2.046875,-2.234375 -1.109375,0 -2.046875,0.984375 -2.046875,2.234375 0,1.265625 0.953125,2.21875 2.046875,2.21875 1.09375,0 2.046875,-0.953125 2.046875,-2.21875 z M 2.609375,-0.546875 C 1.875,-0.546875 1.25,-1.296875 1.25,-2.21875 c 0,-0.90625 0.65625,-1.5625 1.359375,-1.5625 0.71875,0 1.359375,0.65625 1.359375,1.5625 0,0.921875 -0.625,1.671875 -1.359375,1.671875 z m 0,0"
           id="path2076" />
      </g>
      <g
         transform="matrix(2.6814,0,0,2.6814,359.86825,189.20972)"
         id="g2082"
         style="fill:#000000;fill-opacity:1">
        <path
           style="stroke:none;stroke-width:0"
           d="M 3.5625,-0.3125 C 3.578125,0 3.78125,0 3.96875,0 H 4.6875 c 0.171875,0 0.421875,0 0.421875,-0.3125 0,-0.296875 -0.265625,-0.296875 -0.40625,-0.296875 H 4.25 v -3.28125 c 0,-0.3125 -0.046875,-0.40625 -0.390625,-0.40625 H 3.125 c -0.15625,0 -0.40625,0 -0.40625,0.3125 0,0.296875 0.265625,0.296875 0.40625,0.296875 h 0.4375 v 2.125 c 0,0.890625 -0.796875,1.015625 -1.125,1.015625 -0.78125,0 -0.78125,-0.328125 -0.78125,-0.65625 v -2.6875 c 0,-0.3125 -0.0625,-0.40625 -0.40625,-0.40625 H 0.53125 c -0.15625,0 -0.40625,0 -0.40625,0.3125 0,0.296875 0.25,0.296875 0.390625,0.296875 H 0.96875 v 2.546875 c 0,0.96875 0.6875,1.203125 1.40625,1.203125 0.421875,0 0.828125,-0.109375 1.1875,-0.375 z m 0,0"
           id="path2080" />
      </g>
      <g
         transform="matrix(2.6814,0,0,2.6814,373.89197,189.20972)"
         id="g2086"
         style="fill:#000000;fill-opacity:1">
        <path
           style="stroke:none;stroke-width:0"
           d="m 2.21875,-3.6875 h 1.625 c 0.15625,0 0.40625,0 0.40625,-0.296875 0,-0.3125 -0.25,-0.3125 -0.40625,-0.3125 h -1.625 v -0.8125 c 0,-0.1875 0,-0.40625 -0.34375,-0.40625 -0.34375,0 -0.34375,0.203125 -0.34375,0.40625 v 0.8125 h -0.875 c -0.15625,0 -0.40625,0 -0.40625,0.3125 0,0.296875 0.25,0.296875 0.390625,0.296875 H 1.53125 V -1.25 c 0,0.953125 0.671875,1.3125 1.40625,1.3125 0.734375,0 1.53125,-0.4375 1.53125,-1.3125 0,-0.1875 0,-0.390625 -0.34375,-0.390625 -0.328125,0 -0.34375,0.203125 -0.34375,0.375 0,0.625 -0.578125,0.71875 -0.796875,0.71875 -0.765625,0 -0.765625,-0.515625 -0.765625,-0.765625 z m 0,0"
           id="path2084" />
      </g>
    </g>
  </g>
</svg>
