<?xml version="1.0" encoding="UTF-8" standalone="no"?>
<svg
   version="1.1"
   id="svg903"
   sodipodi:docname="not_gate.svg"
   inkscape:version="1.1 (c4e8f9e, 2021-05-24)"
   width="33.279221"
   height="15.080409"
   viewBox="0 0 40.6077 10.833009"
   xmlns:inkscape="http://www.inkscape.org/namespaces/inkscape"
   xmlns:sodipodi="http://sodipodi.sourceforge.net/DTD/sodipodi-0.dtd"
   xmlns="http://www.w3.org/2000/svg"
   xmlns:svg="http://www.w3.org/2000/svg">
  <sodipodi:namedview
     id="namedview905"
     pagecolor="#ffffff"
     bordercolor="#666666"
     borderopacity="1.0"
     inkscape:pageshadow="2"
     inkscape:pageopacity="0.0"
     inkscape:pagecheckerboard="0"
     showgrid="false"
     inkscape:zoom="4.032258"
     inkscape:cx="44.268001"
     inkscape:cy="5.3320001"
     inkscape:window-width="1440"
     inkscape:window-height="847"
     inkscape:window-x="2158"
     inkscape:window-y="56"
     inkscape:window-maximized="0"
     inkscape:current-layer="svg903"
     inkscape:snap-global="false"
     lock-margins="true"
     fit-margin-top="0"
     fit-margin-left="0"
     fit-margin-right="0"
     fit-margin-bottom="0"
     viewbox-height="100"
     width="65.16291px">
    <inkscape:grid
       type="xygrid"
       id="grid1463"
       originx="-410.87547"
       originy="-186.04467" />
  </sodipodi:namedview>
  <defs
     id="defs831">
    <clipPath
       id="page">
      <rect
         x="0"
         y="0"
         width="760"
         height="620"
         id="rect824" />
    </clipPath>
    <clipPath
       id="clipPath829">
      <rect
         x="0"
         y="0"
         width="760"
         height="620"
         id="rect827" />
    </clipPath>
    <defs
       id="id-6218469a-638a-438a-8285-87af46e395b2">
      <g
         id="id-41f024df-1921-46fd-b358-2bb13516e3a0">
        <symbol
           overflow="visible"
           id="id-751024ce-17db-425f-8adf-8e5129a58830">
          <path
             style="stroke:none;stroke-width:0"
             d=""
             id="id-f6b93899-9967-45d1-bf36-847d7d2c198e" />
        </symbol>
        <symbol
           overflow="visible"
           id="id-ccd68d53-c78f-4352-a28f-35fa76bbcac7">
          <path
             style="stroke:none;stroke-width:0"
             d="M 3.65625,-0.3125 C 3.875,-0.015625 4.34375,0 4.71875,0 c 0.28125,0 0.5,0 0.5,-0.3125 0,-0.296875 -0.25,-0.296875 -0.390625,-0.296875 -0.421875,0 -0.515625,-0.046875 -0.59375,-0.078125 v -2.15625 c 0,-0.703125 -0.546875,-1.546875 -1.984375,-1.546875 -0.421875,0 -1.4375,0 -1.4375,0.734375 0,0.296875 0.203125,0.453125 0.4375,0.453125 0.15625,0 0.4375,-0.09375 0.4375,-0.453125 0,-0.078125 0.015625,-0.09375 0.21875,-0.109375 0.140625,-0.015625 0.265625,-0.015625 0.359375,-0.015625 0.75,0 1.265625,0.3125 1.265625,1.015625 -1.75,0.03125 -2.984375,0.53125 -2.984375,1.484375 0,0.6875 0.625,1.34375 1.640625,1.34375 0.375,0 1,-0.078125 1.46875,-0.375 z m -0.125,-1.859375 v 0.84375 c 0,0.21875 0,0.4375 -0.375,0.609375 -0.359375,0.171875 -0.8125,0.171875 -0.890625,0.171875 -0.625,0 -1.03125,-0.34375 -1.03125,-0.734375 0,-0.484375 0.859375,-0.859375 2.296875,-0.890625 z m 0,0"
             id="id-b9f47a47-f328-4fbb-9ab9-075c127460cc" />
        </symbol>
        <symbol
           overflow="visible"
           id="id-401b8321-aa4e-4d98-9505-d73242a42246">
          <path
             style="stroke:none;stroke-width:0"
             d="m 3.078125,-3.890625 c 0,-0.3125 -0.0625,-0.40625 -0.390625,-0.40625 H 1.265625 c -0.15625,0 -0.40625,0 -0.40625,0.296875 0,0.3125 0.25,0.3125 0.40625,0.3125 h 1.125 v 3.078125 H 1.1875 c -0.15625,0 -0.40625,0 -0.40625,0.3125 C 0.78125,0 1.03125,0 1.1875,0 H 4.125 c 0.15625,0 0.40625,0 0.40625,-0.296875 0,-0.3125 -0.25,-0.3125 -0.40625,-0.3125 H 3.078125 Z m 0,-1.71875 c 0,-0.265625 -0.21875,-0.484375 -0.5,-0.484375 -0.28125,0 -0.5,0.21875 -0.5,0.484375 0,0.28125 0.21875,0.5 0.5,0.5 0.28125,0 0.5,-0.21875 0.5,-0.5 z m 0,0"
             id="id-0fd42125-ad84-4701-a8ce-45308056cf4b" />
        </symbol>
        <symbol
           overflow="visible"
           id="id-05c21c86-3cfb-4459-8d0c-c82f21629225">
          <path
             style="stroke:none;stroke-width:0"
             d="m 1.65625,-3.828125 c 0,-0.3125 0,-0.46875 -0.40625,-0.46875 H 0.53125 c -0.15625,0 -0.40625,0 -0.40625,0.3125 0,0.296875 0.25,0.296875 0.390625,0.296875 H 0.96875 v 3.078125 h -0.4375 c -0.15625,0 -0.40625,0 -0.40625,0.3125 C 0.125,0 0.375,0 0.515625,0 h 1.59375 C 2.25,0 2.5,0 2.5,-0.296875 c 0,-0.3125 -0.25,-0.3125 -0.40625,-0.3125 H 1.65625 V -2.375 c 0,-1 0.734375,-1.375 1.25,-1.375 0.515625,0 0.65625,0.28125 0.65625,0.875 v 2.265625 h -0.375 c -0.171875,0 -0.421875,0 -0.421875,0.3125 C 2.765625,0 3.046875,0 3.1875,0 h 1.515625 c 0.140625,0 0.40625,0 0.40625,-0.296875 0,-0.3125 -0.25,-0.3125 -0.421875,-0.3125 H 4.25 v -2.3125 c 0,-1 -0.5,-1.4375 -1.296875,-1.4375 -0.65625,0 -1.109375,0.34375 -1.296875,0.53125 z m 0,0"
             id="id-cd1dcb34-b685-4e9c-bcc9-a4dde7921945" />
        </symbol>
        <symbol
           overflow="visible"
           id="id-5f56a1bd-723a-449b-a3b1-7588ebe3e409">
          <path
             style="stroke:none;stroke-width:0"
             d="m 1.65625,-3.875 v -1.8125 c 0,-0.296875 -0.0625,-0.40625 -0.40625,-0.40625 H 0.53125 c -0.15625,0 -0.40625,0 -0.40625,0.3125 0,0.296875 0.25,0.296875 0.390625,0.296875 H 0.96875 V -0.40625 C 0.96875,-0.203125 0.96875,0 1.3125,0 1.65625,0 1.65625,-0.203125 1.65625,-0.453125 2.0625,-0.03125 2.5,0.0625 2.8125,0.0625 c 1.078125,0 2.046875,-0.953125 2.046875,-2.21875 0,-1.21875 -0.875,-2.203125 -1.9375,-2.203125 C 2.4375,-4.359375 2,-4.171875 1.65625,-3.875 Z m 0,1.96875 V -2.625 c 0,-0.59375 0.578125,-1.125 1.203125,-1.125 0.734375,0 1.3125,0.734375 1.3125,1.59375 0,0.953125 -0.6875,1.609375 -1.390625,1.609375 -0.78125,0 -1.125,-0.875 -1.125,-1.359375 z m 0,0"
             id="id-b698f2b2-49e2-41f4-acf3-55dfbbc509bb" />
        </symbol>
        <symbol
           overflow="visible"
           id="id-1f3dfe3a-af28-4378-9c76-aa66616c3dcc">
          <path
             style="stroke:none;stroke-width:0"
             d="m 4.65625,-2.15625 c 0,-1.25 -0.921875,-2.234375 -2.046875,-2.234375 -1.109375,0 -2.046875,0.984375 -2.046875,2.234375 0,1.265625 0.953125,2.21875 2.046875,2.21875 1.09375,0 2.046875,-0.953125 2.046875,-2.21875 z M 2.609375,-0.546875 C 1.875,-0.546875 1.25,-1.296875 1.25,-2.21875 c 0,-0.90625 0.65625,-1.5625 1.359375,-1.5625 0.71875,0 1.359375,0.65625 1.359375,1.5625 0,0.921875 -0.625,1.671875 -1.359375,1.671875 z m 0,0"
             id="id-c1270fac-d09c-4689-bd6d-b0156142bddb" />
        </symbol>
        <symbol
           overflow="visible"
           id="id-e6207ffc-747b-45f3-992f-2730cf031a66">
          <path
             style="stroke:none;stroke-width:0"
             d="M 3.5625,-0.3125 C 3.578125,0 3.78125,0 3.96875,0 H 4.6875 c 0.171875,0 0.421875,0 0.421875,-0.3125 0,-0.296875 -0.265625,-0.296875 -0.40625,-0.296875 H 4.25 v -3.28125 c 0,-0.3125 -0.046875,-0.40625 -0.390625,-0.40625 H 3.125 c -0.15625,0 -0.40625,0 -0.40625,0.3125 0,0.296875 0.265625,0.296875 0.40625,0.296875 h 0.4375 v 2.125 c 0,0.890625 -0.796875,1.015625 -1.125,1.015625 -0.78125,0 -0.78125,-0.328125 -0.78125,-0.65625 v -2.6875 c 0,-0.3125 -0.0625,-0.40625 -0.40625,-0.40625 H 0.53125 c -0.15625,0 -0.40625,0 -0.40625,0.3125 0,0.296875 0.25,0.296875 0.390625,0.296875 H 0.96875 v 2.546875 c 0,0.96875 0.6875,1.203125 1.40625,1.203125 0.421875,0 0.828125,-0.109375 1.1875,-0.375 z m 0,0"
             id="id-9d42f572-479c-4864-bc3d-5b49699842bf" />
        </symbol>
        <symbol
           overflow="visible"
           id="id-51bfbd88-b321-441a-bddf-ba7a11db208a">
          <path
             style="stroke:none;stroke-width:0"
             d="m 2.21875,-3.6875 h 1.625 c 0.15625,0 0.40625,0 0.40625,-0.296875 0,-0.3125 -0.25,-0.3125 -0.40625,-0.3125 h -1.625 v -0.8125 c 0,-0.1875 0,-0.40625 -0.34375,-0.40625 -0.34375,0 -0.34375,0.203125 -0.34375,0.40625 v 0.8125 h -0.875 c -0.15625,0 -0.40625,0 -0.40625,0.3125 0,0.296875 0.25,0.296875 0.390625,0.296875 H 1.53125 V -1.25 c 0,0.953125 0.671875,1.3125 1.40625,1.3125 0.734375,0 1.53125,-0.4375 1.53125,-1.3125 0,-0.1875 0,-0.390625 -0.34375,-0.390625 -0.328125,0 -0.34375,0.203125 -0.34375,0.375 0,0.625 -0.578125,0.71875 -0.796875,0.71875 -0.765625,0 -0.765625,-0.515625 -0.765625,-0.765625 z m 0,0"
             id="id-f74c9a73-0850-47af-9843-d8aaf2169dcb" />
        </symbol>
        <symbol
           overflow="visible"
           id="id-200c1419-b8e5-405f-be97-acac90bf23be">
          <path
             style="stroke:none;stroke-width:0"
             d="m 3.15625,-5.828125 c -0.09375,-0.375 -0.234375,-0.375 -0.546875,-0.375 -0.28125,0 -0.453125,0 -0.53125,0.375 L 0.875,-0.609375 c -0.140625,0 -0.375,0 -0.4375,0.015625 -0.109375,0.0625 -0.171875,0.171875 -0.171875,0.296875 C 0.265625,0 0.53125,0 0.703125,0 H 1.71875 c 0.171875,0 0.421875,0 0.421875,-0.296875 0,-0.3125 -0.203125,-0.3125 -0.5625,-0.3125 l 0.21875,-1.03125 h 1.625 l 0.234375,1.03125 c -0.359375,0 -0.5625,0 -0.5625,0.3125 C 3.09375,0 3.328125,0 3.515625,0 H 4.53125 c 0.15625,0 0.421875,0 0.421875,-0.296875 0,-0.125 -0.046875,-0.234375 -0.171875,-0.28125 C 4.71875,-0.609375 4.5,-0.609375 4.359375,-0.609375 Z M 2.609375,-5.40625 H 2.625 L 3.265625,-2.25 h -1.3125 z m 0,0"
             id="id-f8319bc5-2d07-4ba8-be76-a87f43cbb9b1" />
        </symbol>
        <symbol
           overflow="visible"
           id="id-b25f727e-99ff-45b9-ba92-abffca11b1ab">
          <path
             style="stroke:none;stroke-width:0"
             d="M 1.890625,-5.734375 C 1.78125,-6.0625 1.625,-6.09375 1.359375,-6.09375 h -0.6875 c -0.140625,0 -0.390625,0 -0.390625,0.296875 0,0.3125 0.234375,0.3125 0.390625,0.3125 h 0.25 v 4.875 h -0.25 c -0.140625,0 -0.390625,0 -0.390625,0.296875 C 0.28125,0 0.515625,0 0.671875,0 h 1.0625 c 0.15625,0 0.40625,0 0.40625,-0.296875 0,-0.3125 -0.25,-0.3125 -0.40625,-0.3125 h -0.25 V -5.34375 H 1.5 l 1.828125,4.984375 C 3.453125,-0.015625 3.625,0 3.875,0 4.171875,0 4.296875,-0.03125 4.296875,-0.40625 v -5.078125 h 0.25 c 0.140625,0 0.390625,0 0.390625,-0.296875 0,-0.3125 -0.234375,-0.3125 -0.390625,-0.3125 h -1.0625 c -0.15625,0 -0.390625,0 -0.390625,0.3125 0,0.296875 0.25,0.296875 0.390625,0.296875 h 0.25 V -0.75 Z m 0,0"
             id="id-93fd820e-48ab-4e59-b856-fa13db5d1be0" />
        </symbol>
        <symbol
           overflow="visible"
           id="id-a982602c-b3a5-4545-892b-4b3eff224e27">
          <path
             style="stroke:none;stroke-width:0"
             d="m 0.59375,-6.09375 c -0.15625,0 -0.40625,0 -0.40625,0.3125 0,0.296875 0.265625,0.296875 0.40625,0.296875 H 0.8125 v 4.875 H 0.59375 c -0.15625,0 -0.40625,0 -0.40625,0.3125 C 0.1875,0 0.453125,0 0.59375,0 h 2.0625 c 1.296875,0 2.171875,-1.390625 2.171875,-3 0,-1.59375 -0.84375,-3.09375 -2.171875,-3.09375 z M 1.5,-0.609375 v -4.875 h 0.96875 c 1.125,0 1.671875,1.328125 1.671875,2.484375 0,1.171875 -0.578125,2.390625 -1.671875,2.390625 z m 0,0"
             id="id-224038d9-4e7c-47de-b24d-f48c3630ffbd" />
        </symbol>
        <symbol
           overflow="visible"
           id="id-3794078e-7ca2-48ba-bf3e-babf57e7553f">
          <path
             style="stroke:none;stroke-width:0"
             d="m 4.671875,-3.046875 c 0,-2.875 -0.21875,-3.15625 -2.0625,-3.15625 -1.84375,0 -2.046875,0.265625 -2.046875,3.15625 0,2.890625 0.203125,3.15625 2.046875,3.15625 1.84375,0 2.0625,-0.265625 2.0625,-3.15625 z M 2.609375,-0.5 c -0.875,0 -1.125,-0.203125 -1.25,-0.703125 C 1.25,-1.71875 1.25,-2.578125 1.25,-3.125 c 0,-0.625 0,-1.296875 0.109375,-1.765625 0.125,-0.578125 0.4375,-0.703125 1.25,-0.703125 0.75,0 1.09375,0.09375 1.25,0.640625 0.125,0.46875 0.125,1.21875 0.125,1.828125 0,0.609375 0,1.328125 -0.109375,1.859375 C 3.765625,-0.703125 3.5,-0.5 2.609375,-0.5 Z m 0,0"
             id="id-7b7e6dbc-b182-430a-a3ef-a5094e130594" />
        </symbol>
        <symbol
           overflow="visible"
           id="id-fa0f2f5b-0e23-4716-b0b0-67dce32f3ce1">
          <path
             style="stroke:none;stroke-width:0"
             d="m 1.5625,-5.484375 h 0.703125 c 0.921875,0 1.359375,0.59375 1.359375,1.0625 0,0.5 -0.4375,1.078125 -1.359375,1.078125 H 1.5625 Z M 3.46875,-3.03125 C 4.125,-3.40625 4.3125,-4 4.3125,-4.421875 4.3125,-5.28125 3.5625,-6.09375 2.375,-6.09375 h -1.75 c -0.171875,0 -0.40625,0 -0.40625,0.3125 0,0.296875 0.25,0.296875 0.40625,0.296875 h 0.25 v 4.875 h -0.25 c -0.171875,0 -0.40625,0 -0.40625,0.3125 C 0.21875,0 0.46875,0 0.625,0 h 1.171875 c 0.15625,0 0.40625,0 0.40625,-0.296875 0,-0.3125 -0.234375,-0.3125 -0.40625,-0.3125 H 1.5625 v -2.125 h 0.765625 c 0.1875,0 0.5,0 0.8125,0.265625 0.21875,0.21875 0.21875,0.4375 0.21875,0.859375 0,0.640625 0,0.9375 0.1875,1.265625 C 3.71875,-0.046875 4,0.109375 4.34375,0.109375 c 0.625,0 0.859375,-0.65625 0.859375,-1.03125 C 5.203125,-1.25 4.96875,-1.25 4.859375,-1.25 4.75,-1.25 4.53125,-1.25 4.515625,-0.953125 4.515625,-0.875 4.5,-0.5 4.328125,-0.5 c -0.28125,0 -0.28125,-0.453125 -0.28125,-0.984375 0,-0.625 0,-0.703125 -0.09375,-0.9375 -0.109375,-0.296875 -0.34375,-0.5 -0.484375,-0.609375 z m 0,0"
             id="id-db8e951c-11f6-411a-91d4-f855b18c2f52" />
        </symbol>
        <symbol
           overflow="visible"
           id="id-577334e6-4aef-4721-88a3-b043c304ac55">
          <path
             style="stroke:none;stroke-width:0"
             d="M 2.953125,-5.484375 H 4.28125 v 0.53125 c 0,0.1875 0,0.40625 0.328125,0.40625 0.359375,0 0.359375,-0.203125 0.359375,-0.40625 V -5.6875 c 0,-0.296875 -0.0625,-0.40625 -0.40625,-0.40625 H 0.671875 c -0.328125,0 -0.40625,0.078125 -0.40625,0.40625 v 0.734375 c 0,0.1875 0,0.40625 0.328125,0.40625 0.359375,0 0.359375,-0.203125 0.359375,-0.40625 v -0.53125 h 1.3125 v 4.875 H 1.75 c -0.140625,0 -0.390625,0 -0.390625,0.296875 C 1.359375,0 1.59375,0 1.75,0 H 3.484375 C 3.625,0 3.875,0 3.875,-0.296875 c 0,-0.3125 -0.234375,-0.3125 -0.390625,-0.3125 h -0.53125 z m 0,0"
             id="id-32bac1b0-5a52-4f06-b328-242c1b243ff5" />
        </symbol>
      </g>
    </defs>
  </defs>
  <g
     id="g1790"
     transform="matrix(0.29757435,0,0,0.29757435,-95.159173,-90.561781)">
    <path
       d="m 345.152,331.58578 h 20"
       fill="none"
       stroke="#000000"
       stroke-width="2"
       id="path861" />
    <path
       d="m 405.152,331.58578 h 20"
       fill="none"
       stroke="#000000"
       stroke-width="2"
       id="path863" />
    <path
       d="m 365.152,311.58578 v 40 l 30,-20 -30,-20"
       fill="none"
       stroke="#000000"
       stroke-width="2"
       id="path865" />
    <circle
       cx="400.15201"
       cy="331.58578"
       r="5"
       fill="none"
       stroke="#000000"
       stroke-width="2"
       id="circle867" />
    <circle
       cx="345.15201"
       cy="331.58578"
       r="4"
       stroke="none"
       fill="#ffffff"
       id="circle869" />
    <circle
       cx="345.15201"
       cy="331.58578"
       r="4"
       fill="none"
       stroke="#000000"
       stroke-width="2"
       id="circle871" />
    <circle
       cx="425.15201"
       cy="331.58578"
       r="4"
       stroke="none"
       fill="#ffffff"
       id="circle873" />
    <circle
       cx="425.15201"
       cy="331.58578"
       r="4"
       fill="none"
       stroke="#000000"
       stroke-width="2"
       id="circle875" />
    <g
       id="g1626"
       transform="translate(4,2.7379556)">
      <g
         transform="matrix(1.5418718,0,0,1.5418718,314.57826,333.54572)"
         id="g1336"
         style="fill:#000000;fill-opacity:1">
        <path
           style="stroke:none;stroke-width:0"
           d="m 3.078125,-3.890625 c 0,-0.3125 -0.0625,-0.40625 -0.390625,-0.40625 H 1.265625 c -0.15625,0 -0.40625,0 -0.40625,0.296875 0,0.3125 0.25,0.3125 0.40625,0.3125 h 1.125 v 3.078125 H 1.1875 c -0.15625,0 -0.40625,0 -0.40625,0.3125 C 0.78125,0 1.03125,0 1.1875,0 H 4.125 c 0.15625,0 0.40625,0 0.40625,-0.296875 0,-0.3125 -0.25,-0.3125 -0.40625,-0.3125 H 3.078125 Z m 0,-1.71875 c 0,-0.265625 -0.21875,-0.484375 -0.5,-0.484375 -0.28125,0 -0.5,0.21875 -0.5,0.484375 0,0.28125 0.21875,0.5 0.5,0.5 0.28125,0 0.5,-0.21875 0.5,-0.5 z m 0,0"
           id="id-abd35a0e-f332-4ea9-9914-842160e1d164" />
      </g>
      <g
         transform="matrix(1.5418718,0,0,1.5418718,322.64379,333.54572)"
         id="g1339"
         style="fill:#000000;fill-opacity:1">
        <path
           style="stroke:none;stroke-width:0"
           d="m 1.65625,-3.828125 c 0,-0.3125 0,-0.46875 -0.40625,-0.46875 H 0.53125 c -0.15625,0 -0.40625,0 -0.40625,0.3125 0,0.296875 0.25,0.296875 0.390625,0.296875 H 0.96875 v 3.078125 h -0.4375 c -0.15625,0 -0.40625,0 -0.40625,0.3125 C 0.125,0 0.375,0 0.515625,0 h 1.59375 C 2.25,0 2.5,0 2.5,-0.296875 c 0,-0.3125 -0.25,-0.3125 -0.40625,-0.3125 H 1.65625 V -2.375 c 0,-1 0.734375,-1.375 1.25,-1.375 0.515625,0 0.65625,0.28125 0.65625,0.875 v 2.265625 h -0.375 c -0.171875,0 -0.421875,0 -0.421875,0.3125 C 2.765625,0 3.046875,0 3.1875,0 h 1.515625 c 0.140625,0 0.40625,0 0.40625,-0.296875 0,-0.3125 -0.25,-0.3125 -0.421875,-0.3125 H 4.25 v -2.3125 c 0,-1 -0.5,-1.4375 -1.296875,-1.4375 -0.65625,0 -1.109375,0.34375 -1.296875,0.53125 z m 0,0"
           id="id-9abf22ba-2e82-4183-8cfc-7072acfa0177" />
      </g>
    </g>
    <g
       id="g1634"
       transform="matrix(0.5357415,0,0,0.5357415,249.51625,234.13509)">
      <g
         transform="matrix(2.6814,0,0,2.6814,345.84185,189.20972)"
         id="g1345"
         style="fill:#000000;fill-opacity:1">
        <path
           style="stroke:none;stroke-width:0"
           d="m 4.65625,-2.15625 c 0,-1.25 -0.921875,-2.234375 -2.046875,-2.234375 -1.109375,0 -2.046875,0.984375 -2.046875,2.234375 0,1.265625 0.953125,2.21875 2.046875,2.21875 1.09375,0 2.046875,-0.953125 2.046875,-2.21875 z M 2.609375,-0.546875 C 1.875,-0.546875 1.25,-1.296875 1.25,-2.21875 c 0,-0.90625 0.65625,-1.5625 1.359375,-1.5625 0.71875,0 1.359375,0.65625 1.359375,1.5625 0,0.921875 -0.625,1.671875 -1.359375,1.671875 z m 0,0"
           id="id-598569fe-88bf-443d-847c-3c1cc1e7b2c9" />
      </g>
      <g
         transform="matrix(2.6814,0,0,2.6814,359.86825,189.20972)"
         id="g1348"
         style="fill:#000000;fill-opacity:1">
        <path
           style="stroke:none;stroke-width:0"
           d="M 3.5625,-0.3125 C 3.578125,0 3.78125,0 3.96875,0 H 4.6875 c 0.171875,0 0.421875,0 0.421875,-0.3125 0,-0.296875 -0.265625,-0.296875 -0.40625,-0.296875 H 4.25 v -3.28125 c 0,-0.3125 -0.046875,-0.40625 -0.390625,-0.40625 H 3.125 c -0.15625,0 -0.40625,0 -0.40625,0.3125 0,0.296875 0.265625,0.296875 0.40625,0.296875 h 0.4375 v 2.125 c 0,0.890625 -0.796875,1.015625 -1.125,1.015625 -0.78125,0 -0.78125,-0.328125 -0.78125,-0.65625 v -2.6875 c 0,-0.3125 -0.0625,-0.40625 -0.40625,-0.40625 H 0.53125 c -0.15625,0 -0.40625,0 -0.40625,0.3125 0,0.296875 0.25,0.296875 0.390625,0.296875 H 0.96875 v 2.546875 c 0,0.96875 0.6875,1.203125 1.40625,1.203125 0.421875,0 0.828125,-0.109375 1.1875,-0.375 z m 0,0"
           id="id-09a872c7-d514-4add-8b36-40d1213365ab" />
      </g>
      <g
         transform="matrix(2.6814,0,0,2.6814,373.89197,189.20972)"
         id="g1351"
         style="fill:#000000;fill-opacity:1">
        <path
           style="stroke:none;stroke-width:0"
           d="m 2.21875,-3.6875 h 1.625 c 0.15625,0 0.40625,0 0.40625,-0.296875 0,-0.3125 -0.25,-0.3125 -0.40625,-0.3125 h -1.625 v -0.8125 c 0,-0.1875 0,-0.40625 -0.34375,-0.40625 -0.34375,0 -0.34375,0.203125 -0.34375,0.40625 v 0.8125 h -0.875 c -0.15625,0 -0.40625,0 -0.40625,0.3125 0,0.296875 0.25,0.296875 0.390625,0.296875 H 1.53125 V -1.25 c 0,0.953125 0.671875,1.3125 1.40625,1.3125 0.734375,0 1.53125,-0.4375 1.53125,-1.3125 0,-0.1875 0,-0.390625 -0.34375,-0.390625 -0.328125,0 -0.34375,0.203125 -0.34375,0.375 0,0.625 -0.578125,0.71875 -0.796875,0.71875 -0.765625,0 -0.765625,-0.515625 -0.765625,-0.765625 z m 0,0"
           id="id-f226e265-7920-4725-97a1-4d9c36898539" />
      </g>
    </g>
    <g
       id="g1732"
       transform="translate(-66.992547,119.04)">
      <g
         transform="matrix(1.8956574,0,0,1.8956574,437.70043,184.33566)"
         id="g1369"
         style="fill:#000000;fill-opacity:1">
        <path
           style="stroke:none;stroke-width:0"
           d="M 1.890625,-5.734375 C 1.78125,-6.0625 1.625,-6.09375 1.359375,-6.09375 h -0.6875 c -0.140625,0 -0.390625,0 -0.390625,0.296875 0,0.3125 0.234375,0.3125 0.390625,0.3125 h 0.25 v 4.875 h -0.25 c -0.140625,0 -0.390625,0 -0.390625,0.296875 C 0.28125,0 0.515625,0 0.671875,0 h 1.0625 c 0.15625,0 0.40625,0 0.40625,-0.296875 0,-0.3125 -0.25,-0.3125 -0.40625,-0.3125 h -0.25 V -5.34375 H 1.5 l 1.828125,4.984375 C 3.453125,-0.015625 3.625,0 3.875,0 4.171875,0 4.296875,-0.03125 4.296875,-0.40625 v -5.078125 h 0.25 c 0.140625,0 0.390625,0 0.390625,-0.296875 0,-0.3125 -0.234375,-0.3125 -0.390625,-0.3125 h -1.0625 c -0.15625,0 -0.390625,0 -0.390625,0.3125 0,0.296875 0.25,0.296875 0.390625,0.296875 h 0.25 V -0.75 Z m 0,0"
           id="id-552af81c-eb26-47af-9114-b8972d5b7e13" />
      </g>
      <g
         transform="matrix(1.8956574,0,0,1.8956574,447.61661,184.33566)"
         id="g1372"
         style="fill:#000000;fill-opacity:1">
        <path
           style="stroke:none;stroke-width:0"
           d="m 4.671875,-3.046875 c 0,-2.875 -0.21875,-3.15625 -2.0625,-3.15625 -1.84375,0 -2.046875,0.265625 -2.046875,3.15625 0,2.890625 0.203125,3.15625 2.046875,3.15625 1.84375,0 2.0625,-0.265625 2.0625,-3.15625 z M 2.609375,-0.5 c -0.875,0 -1.125,-0.203125 -1.25,-0.703125 C 1.25,-1.71875 1.25,-2.578125 1.25,-3.125 c 0,-0.625 0,-1.296875 0.109375,-1.765625 0.125,-0.578125 0.4375,-0.703125 1.25,-0.703125 0.75,0 1.09375,0.09375 1.25,0.640625 0.125,0.46875 0.125,1.21875 0.125,1.828125 0,0.609375 0,1.328125 -0.109375,1.859375 C 3.765625,-0.703125 3.5,-0.5 2.609375,-0.5 Z m 0,0"
           id="id-eca000cc-04ad-49bc-8f02-44b87c2d50d3" />
      </g>
      <g
         transform="matrix(1.8956574,0,0,1.8956574,457.53089,184.33566)"
         id="g1375"
         style="fill:#000000;fill-opacity:1">
        <path
           style="stroke:none;stroke-width:0"
           d="M 2.953125,-5.484375 H 4.28125 v 0.53125 c 0,0.1875 0,0.40625 0.328125,0.40625 0.359375,0 0.359375,-0.203125 0.359375,-0.40625 V -5.6875 c 0,-0.296875 -0.0625,-0.40625 -0.40625,-0.40625 H 0.671875 c -0.328125,0 -0.40625,0.078125 -0.40625,0.40625 v 0.734375 c 0,0.1875 0,0.40625 0.328125,0.40625 0.359375,0 0.359375,-0.203125 0.359375,-0.40625 v -0.53125 h 1.3125 v 4.875 H 1.75 c -0.140625,0 -0.390625,0 -0.390625,0.296875 C 1.359375,0 1.59375,0 1.75,0 H 3.484375 C 3.625,0 3.875,0 3.875,-0.296875 c 0,-0.3125 -0.234375,-0.3125 -0.390625,-0.3125 h -0.53125 z m 0,0"
           id="id-5f89fc03-774e-45b3-b4c7-95c3bf69c801" />
      </g>
    </g>
  </g>
</svg>
