<?xml version="1.0" encoding="UTF-8" standalone="no"?>
<!-- Created with Inkscape (http://www.inkscape.org/) -->

<svg
   width="36.187344mm"
   height="33.55402mm"
   viewBox="0 0 36.187344 33.55402"
   version="1.1"
   id="svg1675"
   sodipodi:docname="or_circuit.svg"
   inkscape:version="1.1 (c4e8f9e, 2021-05-24)"
   xmlns:inkscape="http://www.inkscape.org/namespaces/inkscape"
   xmlns:sodipodi="http://sodipodi.sourceforge.net/DTD/sodipodi-0.dtd"
   xmlns="http://www.w3.org/2000/svg"
   xmlns:svg="http://www.w3.org/2000/svg">
  <sodipodi:namedview
     id="namedview965"
     pagecolor="#ffffff"
     bordercolor="#666666"
     borderopacity="1.0"
     inkscape:pageshadow="2"
     inkscape:pageopacity="0.0"
     inkscape:pagecheckerboard="0"
     inkscape:document-units="mm"
     showgrid="false"
     inkscape:zoom="2.5758677"
     inkscape:cx="60.756227"
     inkscape:cy="39.792417"
     inkscape:window-width="1440"
     inkscape:window-height="847"
     inkscape:window-x="2141"
     inkscape:window-y="107"
     inkscape:window-maximized="0"
     inkscape:current-layer="svg1675">
    <inkscape:grid
       type="xygrid"
       id="grid1318"
       originx="-8.3343757"
       originy="1.4552102" />
  </sodipodi:namedview>
  <defs
     id="defs1672">
    <marker
       style="overflow:visible"
       id="marker2556"
       refX="0"
       refY="0"
       orient="auto">
      <path
         transform="matrix(0.4,0,0,0.4,2.96,0.4)"
         style="fill:context-stroke;fill-rule:evenodd;stroke:context-stroke;stroke-width:1pt"
         d="m -2.5,-1 c 0,2.76 -2.24,5 -5,5 -2.76,0 -5,-2.24 -5,-5 0,-2.76 2.24,-5 5,-5 2.76,0 5,2.24 5,5 z"
         id="path2554" />
    </marker>
    <marker
       style="overflow:visible"
       id="DotM"
       refX="0"
       refY="0"
       orient="auto">
      <path
         transform="matrix(0.4,0,0,0.4,2.96,0.4)"
         style="fill:context-stroke;fill-rule:evenodd;stroke:context-stroke;stroke-width:1pt"
         d="m -2.5,-1 c 0,2.76 -2.24,5 -5,5 -2.76,0 -5,-2.24 -5,-5 0,-2.76 2.24,-5 5,-5 2.76,0 5,2.24 5,5 z"
         id="path2329" />
    </marker>
    <defs
       id="id-279e0c0e-7937-4d65-a803-f028ac61c731">
      <g
         id="id-24e59d36-96b6-435f-953d-64edbbcd698a">
        <symbol
           overflow="visible"
           id="id-74a183d9-8170-458d-862d-eeaeb75e8023">
          <path
             style="stroke:none"
             d=""
             id="id-6cd3d4c9-86ac-4e76-83fa-d64c8994d5c8" />
        </symbol>
        <symbol
           overflow="visible"
           id="id-64d96743-7dd6-4903-ae0d-f17abc7f35a1">
          <path
             style="stroke:none"
             d="m 1.65625,-2.625 c 0,-0.59375 0.578125,-1.125 1.203125,-1.125 0.734375,0 1.3125,0.734375 1.3125,1.59375 0,0.953125 -0.6875,1.609375 -1.390625,1.609375 -0.78125,0 -1.125,-0.875 -1.125,-1.359375 z m 0,2.171875 C 2.0625,-0.03125 2.5,0.0625 2.8125,0.0625 c 1.078125,0 2.046875,-0.953125 2.046875,-2.21875 0,-1.21875 -0.875,-2.203125 -1.9375,-2.203125 C 2.4375,-4.359375 2,-4.171875 1.65625,-3.875 1.65625,-4.15625 1.640625,-4.296875 1.25,-4.296875 H 0.53125 c -0.15625,0 -0.40625,0 -0.40625,0.3125 0,0.296875 0.25,0.296875 0.390625,0.296875 H 0.96875 v 5.296875 h -0.4375 c -0.15625,0 -0.40625,0 -0.40625,0.296875 0,0.3125 0.25,0.3125 0.390625,0.3125 h 1.59375 C 2.25,2.21875 2.5,2.21875 2.5,1.90625 2.5,1.609375 2.25,1.609375 2.09375,1.609375 h -0.4375 z m 0,0"
             id="id-9a2acddf-20a0-486d-b1e2-9e7de66ebe03" />
        </symbol>
        <symbol
           overflow="visible"
           id="id-6402a837-b270-4329-af27-1febbf962da6">
          <path
             style="stroke:none"
             d="m 4.65625,-2.15625 c 0,-1.25 -0.921875,-2.234375 -2.046875,-2.234375 -1.109375,0 -2.046875,0.984375 -2.046875,2.234375 0,1.265625 0.953125,2.21875 2.046875,2.21875 1.09375,0 2.046875,-0.953125 2.046875,-2.21875 z M 2.609375,-0.546875 C 1.875,-0.546875 1.25,-1.296875 1.25,-2.21875 c 0,-0.90625 0.65625,-1.5625 1.359375,-1.5625 0.71875,0 1.359375,0.65625 1.359375,1.5625 0,0.921875 -0.625,1.671875 -1.359375,1.671875 z m 0,0"
             id="id-12556d45-e5e7-41dd-b06e-69f938b6f71a" />
        </symbol>
        <symbol
           overflow="visible"
           id="id-5e11f916-21de-425e-8de7-784e92116807">
          <path
             style="stroke:none"
             d="m 4.5625,-3.6875 c 0.296875,0 0.5,0 0.5,-0.3125 0,-0.296875 -0.234375,-0.296875 -0.421875,-0.296875 H 3.5 c -0.1875,0 -0.421875,0 -0.421875,0.296875 0,0.3125 0.234375,0.3125 0.421875,0.3125 h 0.484375 l -0.5,2.96875 C 3.4375,-0.984375 3.3125,-1.4375 3.1875,-1.84375 3.015625,-2.46875 2.984375,-2.578125 2.625,-2.578125 c -0.09375,0 -0.28125,0 -0.390625,0.21875 -0.03125,0.0625 -0.4375,1.4375 -0.46875,1.640625 H 1.75 L 1.234375,-3.6875 H 1.71875 c 0.1875,0 0.421875,0 0.421875,-0.296875 0,-0.3125 -0.234375,-0.3125 -0.421875,-0.3125 H 0.578125 c -0.171875,0 -0.421875,0 -0.421875,0.296875 0,0.3125 0.21875,0.3125 0.515625,0.3125 l 0.59375,3.34375 c 0.046875,0.234375 0.0625,0.390625 0.46875,0.390625 0.40625,0 0.421875,-0.09375 0.609375,-0.703125 0.25,-0.875 0.265625,-1.015625 0.28125,-1.234375 H 2.640625 C 2.6875,-1.375 3.0625,-0.203125 3.09375,-0.125 c 0.125,0.171875 0.3125,0.171875 0.421875,0.171875 0.375,0 0.40625,-0.171875 0.4375,-0.390625 z m 0,0"
             id="id-a259e45b-6d20-48c4-bfac-cd4e2f3ac794" />
        </symbol>
        <symbol
           overflow="visible"
           id="id-ef82f2b0-2d9d-4136-bab6-1fe38aeb0464">
          <path
             style="stroke:none"
             d="m 4.234375,-1.90625 c 0.203125,0 0.390625,0 0.390625,-0.359375 0,-1.140625 -0.640625,-2.125 -1.9375,-2.125 -1.1875,0 -2.140625,1 -2.140625,2.234375 0,1.203125 1.015625,2.21875 2.296875,2.21875 1.3125,0 1.78125,-0.90625 1.78125,-1.15625 0,-0.265625 -0.28125,-0.265625 -0.34375,-0.265625 -0.1875,0 -0.265625,0.03125 -0.328125,0.21875 -0.21875,0.5 -0.765625,0.59375 -1.046875,0.59375 -0.75,0 -1.484375,-0.5 -1.65625,-1.359375 z M 1.265625,-2.5 C 1.40625,-3.234375 2,-3.78125 2.6875,-3.78125 c 0.515625,0 1.140625,0.25 1.234375,1.28125 z m 0,0"
             id="id-98e0f908-466c-45e9-8922-0ea84cbe6915" />
        </symbol>
        <symbol
           overflow="visible"
           id="id-19052ee9-23c9-49fd-93fb-9e0c944f91df">
          <path
             style="stroke:none"
             d="M 2.21875,-1.859375 C 2.21875,-2.796875 2.796875,-3.75 4,-3.75 c 0.015625,0.234375 0.1875,0.4375 0.4375,0.4375 0.21875,0 0.421875,-0.15625 0.421875,-0.421875 0,-0.203125 -0.125,-0.625 -0.953125,-0.625 -0.5,0 -1.140625,0.1875 -1.6875,0.8125 v -0.34375 c 0,-0.3125 -0.0625,-0.40625 -0.40625,-0.40625 H 0.71875 c -0.15625,0 -0.40625,0 -0.40625,0.296875 0,0.3125 0.25,0.3125 0.40625,0.3125 h 0.8125 v 3.078125 h -0.8125 c -0.15625,0 -0.40625,0 -0.40625,0.296875 C 0.3125,0 0.5625,0 0.71875,0 H 3.3125 c 0.15625,0 0.421875,0 0.421875,-0.296875 0,-0.3125 -0.265625,-0.3125 -0.421875,-0.3125 H 2.21875 Z m 0,0"
             id="id-8dc05400-81fd-40f6-8cc2-67a49e9ad43d" />
        </symbol>
        <symbol
           overflow="visible"
           id="id-6704985e-0156-4b68-9668-b91dd8b11bac">
          <path
             style="stroke:none"
             d="M 2.96875,-2.546875 C 2.734375,-2.578125 2.546875,-2.609375 2.296875,-2.65625 2,-2.703125 1.328125,-2.828125 1.328125,-3.203125 c 0,-0.265625 0.3125,-0.578125 1.265625,-0.578125 0.828125,0 0.96875,0.296875 1,0.5625 0,0.171875 0.03125,0.34375 0.328125,0.34375 0.359375,0 0.359375,-0.21875 0.359375,-0.421875 v -0.6875 c 0,-0.15625 0,-0.40625 -0.296875,-0.40625 -0.25,0 -0.28125,0.140625 -0.3125,0.21875 -0.4375,-0.21875 -0.875,-0.21875 -1.0625,-0.21875 -1.65625,0 -1.890625,0.828125 -1.890625,1.1875 0,0.90625 1.046875,1.078125 1.96875,1.21875 0.484375,0.078125 1.28125,0.203125 1.28125,0.734375 0,0.375 -0.375,0.703125 -1.28125,0.703125 -0.46875,0 -1.015625,-0.109375 -1.265625,-0.890625 -0.0625,-0.171875 -0.09375,-0.28125 -0.359375,-0.28125 -0.34375,0 -0.34375,0.203125 -0.34375,0.40625 v 0.96875 c 0,0.15625 0,0.40625 0.296875,0.40625 0.09375,0 0.25,-0.015625 0.375,-0.375 0.484375,0.359375 1.015625,0.375 1.296875,0.375 1.5625,0 1.890625,-0.828125 1.890625,-1.3125 0,-1.03125 -1.28125,-1.25 -1.609375,-1.296875 z m 0,0"
             id="id-045514f9-f820-47f1-a55e-7a8f44960e52" />
        </symbol>
        <symbol
           overflow="visible"
           id="id-cfb4154d-aa2b-4bac-ac9c-a0054df456ee">
          <path
             style="stroke:none"
             d="M 3.5625,-0.3125 C 3.578125,0 3.78125,0 3.96875,0 H 4.6875 c 0.171875,0 0.421875,0 0.421875,-0.3125 0,-0.296875 -0.265625,-0.296875 -0.40625,-0.296875 H 4.25 v -3.28125 c 0,-0.3125 -0.046875,-0.40625 -0.390625,-0.40625 H 3.125 c -0.15625,0 -0.40625,0 -0.40625,0.3125 0,0.296875 0.265625,0.296875 0.40625,0.296875 h 0.4375 v 2.125 c 0,0.890625 -0.796875,1.015625 -1.125,1.015625 -0.78125,0 -0.78125,-0.328125 -0.78125,-0.65625 v -2.6875 c 0,-0.3125 -0.0625,-0.40625 -0.40625,-0.40625 H 0.53125 c -0.15625,0 -0.40625,0 -0.40625,0.3125 0,0.296875 0.25,0.296875 0.390625,0.296875 H 0.96875 v 2.546875 c 0,0.96875 0.6875,1.203125 1.40625,1.203125 0.421875,0 0.828125,-0.109375 1.1875,-0.375 z m 0,0"
             id="id-9d84f62a-3876-42ff-9aed-fd166a02234d" />
        </symbol>
        <symbol
           overflow="visible"
           id="id-048a2e76-11ce-4a89-b254-4073f078e011">
          <path
             style="stroke:none"
             d="m 2.953125,-5.6875 c 0,-0.296875 -0.046875,-0.40625 -0.390625,-0.40625 H 0.984375 c -0.15625,0 -0.40625,0 -0.40625,0.3125 0,0.296875 0.265625,0.296875 0.40625,0.296875 h 1.28125 v 4.875 h -1.28125 c -0.15625,0 -0.40625,0 -0.40625,0.3125 C 0.578125,0 0.84375,0 0.984375,0 H 4.25 c 0.15625,0 0.40625,0 0.40625,-0.296875 0,-0.3125 -0.234375,-0.3125 -0.40625,-0.3125 H 2.953125 Z m 0,0"
             id="id-48fb980e-6980-4b43-a4b1-df2a2881b68b" />
        </symbol>
        <symbol
           overflow="visible"
           id="id-ad92c338-4f3f-45da-9ead-608afeb1fdf6">
          <path
             style="stroke:none"
             d="m 4.28125,-3.6875 h 0.296875 c 0.15625,0 0.40625,0 0.40625,-0.296875 0,-0.3125 -0.234375,-0.3125 -0.40625,-0.3125 h -1.15625 c -0.15625,0 -0.40625,0 -0.40625,0.296875 0,0.3125 0.25,0.3125 0.40625,0.3125 h 0.28125 l -0.71875,2.125 C 2.84375,-1.203125 2.796875,-1.015625 2.71875,-0.703125 2.65625,-0.890625 2.578125,-1.109375 2.5,-1.296875 L 1.578125,-3.6875 h 0.25 c 0.140625,0 0.390625,0 0.390625,-0.296875 0,-0.3125 -0.234375,-0.3125 -0.390625,-0.3125 H 0.65625 c -0.15625,0 -0.390625,0 -0.390625,0.3125 0,0.296875 0.25,0.296875 0.390625,0.296875 h 0.3125 L 2.375,-0.125 c 0.046875,0.09375 0.046875,0.109375 0.046875,0.125 0,0.015625 -0.25,0.84375 -0.375,1.09375 C 1.75,1.640625 1.390625,1.65625 1.25,1.671875 c 0,-0.015625 0.046875,-0.09375 0.046875,-0.21875 0,-0.25 -0.1875,-0.4375 -0.421875,-0.4375 -0.28125,0 -0.453125,0.1875 -0.453125,0.4375 0,0.421875 0.34375,0.8125 0.828125,0.8125 1,0 1.453125,-1.3125 1.484375,-1.421875 z m 0,0"
             id="id-cc5c09e8-fc6f-4768-b3bb-5eaceb64492b" />
        </symbol>
        <symbol
           overflow="visible"
           id="id-0e201827-19ca-4efe-8327-1a743656e89c">
          <path
             style="stroke:none"
             d="m 3.078125,-3.890625 c 0,-0.3125 -0.0625,-0.40625 -0.390625,-0.40625 H 1.265625 c -0.15625,0 -0.40625,0 -0.40625,0.296875 0,0.3125 0.25,0.3125 0.40625,0.3125 h 1.125 v 3.078125 H 1.1875 c -0.15625,0 -0.40625,0 -0.40625,0.3125 C 0.78125,0 1.03125,0 1.1875,0 H 4.125 c 0.15625,0 0.40625,0 0.40625,-0.296875 0,-0.3125 -0.25,-0.3125 -0.40625,-0.3125 H 3.078125 Z m 0,-1.71875 c 0,-0.265625 -0.21875,-0.484375 -0.5,-0.484375 -0.28125,0 -0.5,0.21875 -0.5,0.484375 0,0.28125 0.21875,0.5 0.5,0.5 0.28125,0 0.5,-0.21875 0.5,-0.5 z m 0,0"
             id="id-b337191b-ec02-4a30-9b92-30e3f01639b2" />
        </symbol>
        <symbol
           overflow="visible"
           id="id-0d8f00e9-9d87-4b53-9e03-aa391bdb888a">
          <path
             style="stroke:none"
             d="m 2.328125,-1.75 c -0.546875,0 -0.96875,-0.46875 -0.96875,-1 0,-0.5625 0.4375,-1.015625 0.96875,-1.015625 0.53125,0 0.953125,0.46875 0.953125,1 0,0.578125 -0.4375,1.015625 -0.953125,1.015625 z m -0.90625,0.34375 c 0.03125,0.015625 0.40625,0.25 0.90625,0.25 0.90625,0 1.640625,-0.71875 1.640625,-1.609375 C 3.96875,-3.0625 3.875,-3.34375 3.703125,-3.625 3.921875,-3.75 4.15625,-3.78125 4.28125,-3.796875 c 0.0625,0.265625 0.296875,0.34375 0.390625,0.34375 0.171875,0 0.40625,-0.125 0.40625,-0.421875 0,-0.21875 -0.1875,-0.53125 -0.734375,-0.53125 -0.109375,0 -0.59375,0.015625 -1.046875,0.34375 C 3.125,-4.171875 2.78125,-4.359375 2.328125,-4.359375 c -0.9375,0 -1.65625,0.75 -1.65625,1.59375 C 0.671875,-2.328125 0.84375,-2 1,-1.8125 c -0.109375,0.15625 -0.203125,0.375 -0.203125,0.671875 0,0.359375 0.140625,0.609375 0.234375,0.71875 -0.734375,0.453125 -0.734375,1.125 -0.734375,1.234375 0,0.859375 1.03125,1.46875 2.3125,1.46875 C 3.890625,2.28125 4.9375,1.671875 4.9375,0.8125 4.9375,0.453125 4.75,-0.046875 4.25,-0.3125 4.109375,-0.390625 3.703125,-0.609375 2.796875,-0.609375 h -0.6875 c -0.078125,0 -0.21875,0 -0.296875,-0.015625 -0.140625,0 -0.203125,0 -0.328125,-0.140625 -0.109375,-0.140625 -0.125,-0.34375 -0.125,-0.359375 0,-0.046875 0.03125,-0.1875 0.0625,-0.28125 z m 1.1875,3.09375 c -1,0 -1.734375,-0.4375 -1.734375,-0.875 0,-0.171875 0.078125,-0.5 0.40625,-0.6875 0.25,-0.171875 0.328125,-0.171875 1.0625,-0.171875 0.890625,0 2.015625,0 2.015625,0.859375 0,0.4375 -0.75,0.875 -1.75,0.875 z m 0,0"
             id="id-6c81c8da-c84d-40b0-b3e5-e62d1482e19a" />
        </symbol>
        <symbol
           overflow="visible"
           id="id-ecc75823-e6aa-429c-abf0-658a8661a0c0">
          <path
             style="stroke:none"
             d="m 4.25,-2.921875 c 0,-1 -0.5,-1.4375 -1.296875,-1.4375 -0.65625,0 -1.109375,0.34375 -1.296875,0.53125 V -5.6875 c 0,-0.296875 -0.0625,-0.40625 -0.40625,-0.40625 H 0.53125 c -0.15625,0 -0.40625,0 -0.40625,0.3125 0,0.296875 0.25,0.296875 0.390625,0.296875 H 0.96875 v 4.875 h -0.4375 c -0.15625,0 -0.40625,0 -0.40625,0.3125 C 0.125,0 0.375,0 0.515625,0 h 1.59375 C 2.25,0 2.5,0 2.5,-0.296875 c 0,-0.3125 -0.25,-0.3125 -0.40625,-0.3125 H 1.65625 V -2.375 c 0,-1 0.734375,-1.375 1.25,-1.375 0.515625,0 0.65625,0.28125 0.65625,0.875 v 2.265625 h -0.375 c -0.171875,0 -0.421875,0 -0.421875,0.3125 C 2.765625,0 3.046875,0 3.1875,0 h 1.515625 c 0.140625,0 0.40625,0 0.40625,-0.296875 0,-0.3125 -0.25,-0.3125 -0.421875,-0.3125 H 4.25 Z m 0,0"
             id="id-48c92e77-a79a-49ca-947a-16ab044a1c46" />
        </symbol>
        <symbol
           overflow="visible"
           id="id-d961606b-5e16-4395-8a51-e905a431d631">
          <path
             style="stroke:none"
             d="m 2.21875,-3.6875 h 1.625 c 0.15625,0 0.40625,0 0.40625,-0.296875 0,-0.3125 -0.25,-0.3125 -0.40625,-0.3125 h -1.625 v -0.8125 c 0,-0.1875 0,-0.40625 -0.34375,-0.40625 -0.34375,0 -0.34375,0.203125 -0.34375,0.40625 v 0.8125 h -0.875 c -0.15625,0 -0.40625,0 -0.40625,0.3125 0,0.296875 0.25,0.296875 0.390625,0.296875 H 1.53125 V -1.25 c 0,0.953125 0.671875,1.3125 1.40625,1.3125 0.734375,0 1.53125,-0.4375 1.53125,-1.3125 0,-0.1875 0,-0.390625 -0.34375,-0.390625 -0.328125,0 -0.34375,0.203125 -0.34375,0.375 0,0.625 -0.578125,0.71875 -0.796875,0.71875 -0.765625,0 -0.765625,-0.515625 -0.765625,-0.765625 z m 0,0"
             id="id-51ba2d49-0d89-4c6c-ad84-d47488f9dc98" />
        </symbol>
        <symbol
           overflow="visible"
           id="id-e87a9f1f-9e0b-481f-95bf-4a654d175484">
          <path
             style="stroke:none"
             d="M 3.65625,-0.3125 C 3.875,-0.015625 4.34375,0 4.71875,0 c 0.28125,0 0.5,0 0.5,-0.3125 0,-0.296875 -0.25,-0.296875 -0.390625,-0.296875 -0.421875,0 -0.515625,-0.046875 -0.59375,-0.078125 v -2.15625 c 0,-0.703125 -0.546875,-1.546875 -1.984375,-1.546875 -0.421875,0 -1.4375,0 -1.4375,0.734375 0,0.296875 0.203125,0.453125 0.4375,0.453125 0.15625,0 0.4375,-0.09375 0.4375,-0.453125 0,-0.078125 0.015625,-0.09375 0.21875,-0.109375 0.140625,-0.015625 0.265625,-0.015625 0.359375,-0.015625 0.75,0 1.265625,0.3125 1.265625,1.015625 -1.75,0.03125 -2.984375,0.53125 -2.984375,1.484375 0,0.6875 0.625,1.34375 1.640625,1.34375 0.375,0 1,-0.078125 1.46875,-0.375 z m -0.125,-1.859375 v 0.84375 c 0,0.21875 0,0.4375 -0.375,0.609375 -0.359375,0.171875 -0.8125,0.171875 -0.890625,0.171875 -0.625,0 -1.03125,-0.34375 -1.03125,-0.734375 0,-0.484375 0.859375,-0.859375 2.296875,-0.890625 z m 0,0"
             id="id-425f2017-091d-4bbf-b6a9-1bfb25fd8e94" />
        </symbol>
        <symbol
           overflow="visible"
           id="id-c8534269-d34f-4133-96ca-2de439427340">
          <path
             style="stroke:none"
             d="m 1.65625,-3.875 v -1.8125 c 0,-0.296875 -0.0625,-0.40625 -0.40625,-0.40625 H 0.53125 c -0.15625,0 -0.40625,0 -0.40625,0.3125 0,0.296875 0.25,0.296875 0.390625,0.296875 H 0.96875 V -0.40625 C 0.96875,-0.203125 0.96875,0 1.3125,0 1.65625,0 1.65625,-0.203125 1.65625,-0.453125 2.0625,-0.03125 2.5,0.0625 2.8125,0.0625 c 1.078125,0 2.046875,-0.953125 2.046875,-2.21875 0,-1.21875 -0.875,-2.203125 -1.9375,-2.203125 C 2.4375,-4.359375 2,-4.171875 1.65625,-3.875 Z m 0,1.96875 V -2.625 c 0,-0.59375 0.578125,-1.125 1.203125,-1.125 0.734375,0 1.3125,0.734375 1.3125,1.59375 0,0.953125 -0.6875,1.609375 -1.390625,1.609375 -0.78125,0 -1.125,-0.875 -1.125,-1.359375 z m 0,0"
             id="id-16a58506-d266-4293-807e-97df66d395a7" />
        </symbol>
        <symbol
           overflow="visible"
           id="id-c089dc2b-4d2f-4257-bf12-6e13029ef44a">
          <path
             style="stroke:none"
             d="m 3.15625,-5.828125 c -0.09375,-0.375 -0.234375,-0.375 -0.546875,-0.375 -0.28125,0 -0.453125,0 -0.53125,0.375 L 0.875,-0.609375 c -0.140625,0 -0.375,0 -0.4375,0.015625 -0.109375,0.0625 -0.171875,0.171875 -0.171875,0.296875 C 0.265625,0 0.53125,0 0.703125,0 H 1.71875 c 0.171875,0 0.421875,0 0.421875,-0.296875 0,-0.3125 -0.203125,-0.3125 -0.5625,-0.3125 l 0.21875,-1.03125 h 1.625 l 0.234375,1.03125 c -0.359375,0 -0.5625,0 -0.5625,0.3125 C 3.09375,0 3.328125,0 3.515625,0 H 4.53125 c 0.15625,0 0.421875,0 0.421875,-0.296875 0,-0.125 -0.046875,-0.234375 -0.171875,-0.28125 C 4.71875,-0.609375 4.5,-0.609375 4.359375,-0.609375 Z M 2.609375,-5.40625 H 2.625 L 3.265625,-2.25 h -1.3125 z m 0,0"
             id="id-c66a3a83-e646-4b55-9ea5-44cf7b79a2ae" />
        </symbol>
        <symbol
           overflow="visible"
           id="id-ad8ba05a-fd34-4e15-84e9-35aae89a3fbf">
          <path
             style="stroke:none"
             d="M 1.890625,-5.734375 C 1.78125,-6.0625 1.625,-6.09375 1.359375,-6.09375 h -0.6875 c -0.140625,0 -0.390625,0 -0.390625,0.296875 0,0.3125 0.234375,0.3125 0.390625,0.3125 h 0.25 v 4.875 h -0.25 c -0.140625,0 -0.390625,0 -0.390625,0.296875 C 0.28125,0 0.515625,0 0.671875,0 h 1.0625 c 0.15625,0 0.40625,0 0.40625,-0.296875 0,-0.3125 -0.25,-0.3125 -0.40625,-0.3125 h -0.25 V -5.34375 H 1.5 l 1.828125,4.984375 C 3.453125,-0.015625 3.625,0 3.875,0 4.171875,0 4.296875,-0.03125 4.296875,-0.40625 v -5.078125 h 0.25 c 0.140625,0 0.390625,0 0.390625,-0.296875 0,-0.3125 -0.234375,-0.3125 -0.390625,-0.3125 h -1.0625 c -0.15625,0 -0.390625,0 -0.390625,0.3125 0,0.296875 0.25,0.296875 0.390625,0.296875 h 0.25 V -0.75 Z m 0,0"
             id="id-188b58ff-0ff2-406a-808a-fb1d61304580" />
        </symbol>
        <symbol
           overflow="visible"
           id="id-cd149c63-68df-42c4-aa0c-5860b29c416f">
          <path
             style="stroke:none"
             d="m 0.59375,-6.09375 c -0.15625,0 -0.40625,0 -0.40625,0.3125 0,0.296875 0.265625,0.296875 0.40625,0.296875 H 0.8125 v 4.875 H 0.59375 c -0.15625,0 -0.40625,0 -0.40625,0.3125 C 0.1875,0 0.453125,0 0.59375,0 h 2.0625 c 1.296875,0 2.171875,-1.390625 2.171875,-3 0,-1.59375 -0.84375,-3.09375 -2.171875,-3.09375 z M 1.5,-0.609375 v -4.875 h 0.96875 c 1.125,0 1.671875,1.328125 1.671875,2.484375 0,1.171875 -0.578125,2.390625 -1.671875,2.390625 z m 0,0"
             id="id-51675dd1-a83f-4153-8927-b16dbe61fad1" />
        </symbol>
        <symbol
           overflow="visible"
           id="id-1b9e531a-c8a9-4e48-9541-dd991a9b83d8">
          <path
             style="stroke:none"
             d="m 4.828125,-5.796875 c 0,-0.15625 0,-0.40625 -0.296875,-0.40625 -0.1875,0 -0.234375,0.109375 -0.28125,0.171875 -0.015625,0.046875 -0.015625,0.0625 -0.15625,0.3125 C 3.765625,-6 3.3125,-6.203125 2.796875,-6.203125 c -1.28125,0 -2.390625,1.34375 -2.390625,3.15625 0,1.828125 1.109375,3.15625 2.40625,3.15625 1.15625,0 2.015625,-0.890625 2.015625,-1.78125 C 4.828125,-2 4.578125,-2 4.46875,-2 4.390625,-2 4.15625,-2 4.140625,-1.71875 4.0625,-0.734375 3.265625,-0.5 2.84375,-0.5 c -0.90625,0 -1.75,-1.0625 -1.75,-2.546875 0,-1.484375 0.859375,-2.546875 1.75,-2.546875 0.59375,0 1.140625,0.453125 1.28125,1.265625 C 4.15625,-4.15625 4.171875,-4 4.46875,-4 4.828125,-4 4.828125,-4.203125 4.828125,-4.40625 Z m 0,0"
             id="id-62fa8ac2-9220-4292-98ef-9f1d209d3dc2" />
        </symbol>
        <symbol
           overflow="visible"
           id="id-b205ffa8-b7e4-4c20-9db0-8b5e220de977">
          <path
             style="stroke:none"
             d="m 4.640625,-1.09375 c 0,-0.265625 -0.28125,-0.265625 -0.34375,-0.265625 -0.15625,0 -0.265625,0.015625 -0.328125,0.21875 -0.0625,0.125 -0.25,0.59375 -0.984375,0.59375 -0.84375,0 -1.5625,-0.703125 -1.5625,-1.609375 0,-0.46875 0.265625,-1.625 1.625,-1.625 0.203125,0 0.59375,0 0.59375,0.09375 0.015625,0.34375 0.203125,0.484375 0.4375,0.484375 0.234375,0 0.453125,-0.171875 0.453125,-0.453125 0,-0.734375 -1.046875,-0.734375 -1.484375,-0.734375 -1.71875,0 -2.3125,1.359375 -2.3125,2.234375 0,1.203125 0.9375,2.21875 2.1875,2.21875 1.390625,0 1.71875,-0.984375 1.71875,-1.15625 z m 0,0"
             id="id-dff1f2fc-0b9f-4882-ad39-3ab1497ca904" />
        </symbol>
      </g>
    </defs>
  </defs>
  <g
     id="g2472"
     transform="translate(-8.3343749,1.4552103)">
    <g
       id="g7943"
       transform="matrix(0.26458333,0,0,0.26458333,-95.839739,-101.87456)">
      <path
         id="path1450-1-5-3-4-1-6-1-6-1-5-3-8"
         style="fill:#ffffff;fill-rule:evenodd;stroke:#000000;stroke-linecap:round;stroke-linejoin:round;stroke-miterlimit:9.425"
         d="M 530,485 H 500" />
      <ellipse
         id="path5396-0-3"
         style="fill:none;stroke:#000000;stroke-linecap:round;stroke-linejoin:round;stroke-miterlimit:9.425"
         rx="9.9949999"
         ry="9.9989996"
         transform="rotate(90)"
         cy="-490"
         cx="485" />
      <path
         id="path1450-1-5-3-4-1-6-1-6-1-5-3-8-0"
         style="fill:#ffffff;fill-rule:evenodd;stroke:#000000;stroke-linecap:round;stroke-linejoin:round;stroke-miterlimit:9.425"
         d="M 480,485 H 445" />
      <path
         id="path1450-1-5-3-4-1-6-1-6-1-5-3-8-3"
         style="fill:#ffffff;fill-rule:evenodd;stroke:#000000;stroke-linecap:round;stroke-linejoin:round;stroke-miterlimit:9.425"
         d="M 497,492 483,478" />
      <path
         id="path1450-1-5-3-4-1-6-1-6-1-5-3-8-3-5"
         style="fill:#ffffff;fill-rule:evenodd;stroke:#000000;stroke-linecap:round;stroke-linejoin:round;stroke-miterlimit:9.425"
         d="m 483,492 14,-14" />
    </g>
    <g
       id="g8056"
       transform="matrix(0.26458333,0,0,0.26458333,-15.141823,-140.23914)">
      <path
         id="path5094-5-86-76-0-2"
         style="fill:none;stroke:#000000;stroke-width:1px;stroke-linecap:round"
         d="M 89.228938,630.0377 110,630"
         sodipodi:nodetypes="cc" />
      <path
         id="path5104-8-6-7-5-7"
         style="fill:none;stroke:#000000;stroke-linecap:round"
         d="m 110,620 v 20" />
      <path
         id="path5104-8-8-9-3-7-5"
         style="fill:none;stroke:#000000;stroke-width:2;stroke-linecap:round"
         d="m 115,625 v 10" />
      <path
         id="path5094-5-8-2-8-5-0"
         style="fill:none;stroke:#000000;stroke-width:1px;stroke-linecap:round"
         d="m 135,630 h 5" />
      <path
         id="path5094-5-86-76-2-9-6"
         style="fill:none;stroke:#000000;stroke-linecap:round;stroke-dasharray:1, 2"
         d="m 115,630 h 5" />
      <path
         id="path5104-8-6-7-5-7-0"
         style="fill:none;stroke:#000000;stroke-linecap:round"
         d="m 120,620 v 20" />
      <path
         id="path5104-8-8-9-3-7-5-2"
         style="fill:none;stroke:#000000;stroke-width:2;stroke-linecap:round"
         d="m 125,625 v 10" />
      <path
         id="path5094-5-86-76-2-9-6-7"
         style="fill:none;stroke:#000000;stroke-linecap:round;stroke-dasharray:1, 2"
         d="m 125,630 h 5" />
      <path
         id="path5104-8-6-7-5-7-08"
         style="fill:none;stroke:#000000;stroke-linecap:round"
         d="m 130,620 v 20" />
      <path
         id="path5104-8-8-9-3-7-5-6"
         style="fill:none;stroke:#000000;stroke-width:2;stroke-linecap:round"
         d="m 135,625 v 10" />
      <path
         id="path7431-0"
         style="fill:none;stroke:#000000;stroke-width:1px;stroke-linecap:round"
         d="m 103,620 v 6" />
      <path
         id="path7431-9-3"
         style="fill:none;stroke:#000000;stroke-width:1px;stroke-linecap:round"
         d="m 106,623 h -6" />
    </g>
    <g
       id="g7414"
       transform="matrix(-0.26458333,0,0,0.26458333,216.95833,-154.78125)">
      <path
         id="path5309-6"
         style="fill:none;stroke:#000000;stroke-width:1px;stroke-linecap:round;marker-mid:url(#marker2556)"
         d="m 695,580 30,10 h 30.00001" />
    </g>
    <path
       style="fill:none;stroke:#000000;stroke-width:0.264583px;stroke-linecap:butt;stroke-linejoin:miter;stroke-opacity:1"
       d="M 44.389423,1.3229167 V 26.44835"
       id="path2072"
       sodipodi:nodetypes="cc" />
    <path
       style="fill:none;stroke:#000000;stroke-width:0.264583px;stroke-linecap:butt;stroke-linejoin:miter;stroke-opacity:1"
       d="M 8.4666667,26.458333 V 1.3229167"
       id="path2126"
       sodipodi:nodetypes="cc" />
    <g
       id="g4326"
       transform="matrix(0.65633825,0,0,0.65633825,-46.560507,-115.21931)">
      <g
         transform="matrix(0.28821213,0,0,0.28821213,88.26461,222.87596)"
         id="g3784"
         style="fill:#000000;fill-opacity:1">
        <path
           style="stroke:none"
           d="m 1.65625,-2.625 c 0,-0.59375 0.578125,-1.125 1.203125,-1.125 0.734375,0 1.3125,0.734375 1.3125,1.59375 0,0.953125 -0.6875,1.609375 -1.390625,1.609375 -0.78125,0 -1.125,-0.875 -1.125,-1.359375 z m 0,2.171875 C 2.0625,-0.03125 2.5,0.0625 2.8125,0.0625 c 1.078125,0 2.046875,-0.953125 2.046875,-2.21875 0,-1.21875 -0.875,-2.203125 -1.9375,-2.203125 C 2.4375,-4.359375 2,-4.171875 1.65625,-3.875 1.65625,-4.15625 1.640625,-4.296875 1.25,-4.296875 H 0.53125 c -0.15625,0 -0.40625,0 -0.40625,0.3125 0,0.296875 0.25,0.296875 0.390625,0.296875 H 0.96875 v 5.296875 h -0.4375 c -0.15625,0 -0.40625,0 -0.40625,0.296875 0,0.3125 0.25,0.3125 0.390625,0.3125 h 1.59375 C 2.25,2.21875 2.5,2.21875 2.5,1.90625 2.5,1.609375 2.25,1.609375 2.09375,1.609375 h -0.4375 z m 0,0"
           id="id-cecceb73-5f1b-43a1-8691-2b7041577247" />
      </g>
      <g
         transform="matrix(0.28821213,0,0,0.28821213,89.77196,222.87596)"
         id="g3787"
         style="fill:#000000;fill-opacity:1">
        <path
           style="stroke:none"
           d="m 4.65625,-2.15625 c 0,-1.25 -0.921875,-2.234375 -2.046875,-2.234375 -1.109375,0 -2.046875,0.984375 -2.046875,2.234375 0,1.265625 0.953125,2.21875 2.046875,2.21875 1.09375,0 2.046875,-0.953125 2.046875,-2.21875 z M 2.609375,-0.546875 C 1.875,-0.546875 1.25,-1.296875 1.25,-2.21875 c 0,-0.90625 0.65625,-1.5625 1.359375,-1.5625 0.71875,0 1.359375,0.65625 1.359375,1.5625 0,0.921875 -0.625,1.671875 -1.359375,1.671875 z m 0,0"
           id="id-89b4d9c4-bc16-4aaf-bb01-410781a417da" />
      </g>
      <g
         transform="matrix(0.28821213,0,0,0.28821213,91.279597,222.87596)"
         id="g3790"
         style="fill:#000000;fill-opacity:1">
        <path
           style="stroke:none"
           d="m 4.5625,-3.6875 c 0.296875,0 0.5,0 0.5,-0.3125 0,-0.296875 -0.234375,-0.296875 -0.421875,-0.296875 H 3.5 c -0.1875,0 -0.421875,0 -0.421875,0.296875 0,0.3125 0.234375,0.3125 0.421875,0.3125 h 0.484375 l -0.5,2.96875 C 3.4375,-0.984375 3.3125,-1.4375 3.1875,-1.84375 3.015625,-2.46875 2.984375,-2.578125 2.625,-2.578125 c -0.09375,0 -0.28125,0 -0.390625,0.21875 -0.03125,0.0625 -0.4375,1.4375 -0.46875,1.640625 H 1.75 L 1.234375,-3.6875 H 1.71875 c 0.1875,0 0.421875,0 0.421875,-0.296875 0,-0.3125 -0.234375,-0.3125 -0.421875,-0.3125 H 0.578125 c -0.171875,0 -0.421875,0 -0.421875,0.296875 0,0.3125 0.21875,0.3125 0.515625,0.3125 l 0.59375,3.34375 c 0.046875,0.234375 0.0625,0.390625 0.46875,0.390625 0.40625,0 0.421875,-0.09375 0.609375,-0.703125 0.25,-0.875 0.265625,-1.015625 0.28125,-1.234375 H 2.640625 C 2.6875,-1.375 3.0625,-0.203125 3.09375,-0.125 c 0.125,0.171875 0.3125,0.171875 0.421875,0.171875 0.375,0 0.40625,-0.171875 0.4375,-0.390625 z m 0,0"
           id="id-a419ab50-4014-43b2-ac2e-b673d0a18d9b" />
      </g>
      <g
         transform="matrix(0.28821213,0,0,0.28821213,92.786947,222.87596)"
         id="g3793"
         style="fill:#000000;fill-opacity:1">
        <path
           style="stroke:none"
           d="m 4.234375,-1.90625 c 0.203125,0 0.390625,0 0.390625,-0.359375 0,-1.140625 -0.640625,-2.125 -1.9375,-2.125 -1.1875,0 -2.140625,1 -2.140625,2.234375 0,1.203125 1.015625,2.21875 2.296875,2.21875 1.3125,0 1.78125,-0.90625 1.78125,-1.15625 0,-0.265625 -0.28125,-0.265625 -0.34375,-0.265625 -0.1875,0 -0.265625,0.03125 -0.328125,0.21875 -0.21875,0.5 -0.765625,0.59375 -1.046875,0.59375 -0.75,0 -1.484375,-0.5 -1.65625,-1.359375 z M 1.265625,-2.5 C 1.40625,-3.234375 2,-3.78125 2.6875,-3.78125 c 0.515625,0 1.140625,0.25 1.234375,1.28125 z m 0,0"
           id="id-82f3557f-0397-4a66-a90c-5234f745b16b" />
      </g>
      <g
         transform="matrix(0.28821213,0,0,0.28821213,94.294296,222.87596)"
         id="g3796"
         style="fill:#000000;fill-opacity:1">
        <path
           style="stroke:none"
           d="M 2.21875,-1.859375 C 2.21875,-2.796875 2.796875,-3.75 4,-3.75 c 0.015625,0.234375 0.1875,0.4375 0.4375,0.4375 0.21875,0 0.421875,-0.15625 0.421875,-0.421875 0,-0.203125 -0.125,-0.625 -0.953125,-0.625 -0.5,0 -1.140625,0.1875 -1.6875,0.8125 v -0.34375 c 0,-0.3125 -0.0625,-0.40625 -0.40625,-0.40625 H 0.71875 c -0.15625,0 -0.40625,0 -0.40625,0.296875 0,0.3125 0.25,0.3125 0.40625,0.3125 h 0.8125 v 3.078125 h -0.8125 c -0.15625,0 -0.40625,0 -0.40625,0.296875 C 0.3125,0 0.5625,0 0.71875,0 H 3.3125 c 0.15625,0 0.421875,0 0.421875,-0.296875 0,-0.3125 -0.265625,-0.3125 -0.421875,-0.3125 H 2.21875 Z m 0,0"
           id="id-30066fb9-5017-4c8d-bc29-8d78f2343559" />
      </g>
      <g
         transform="matrix(0.28821213,0,0,0.28821213,97.309283,222.87596)"
         id="g3800"
         style="fill:#000000;fill-opacity:1">
        <path
           style="stroke:none"
           d="M 2.96875,-2.546875 C 2.734375,-2.578125 2.546875,-2.609375 2.296875,-2.65625 2,-2.703125 1.328125,-2.828125 1.328125,-3.203125 c 0,-0.265625 0.3125,-0.578125 1.265625,-0.578125 0.828125,0 0.96875,0.296875 1,0.5625 0,0.171875 0.03125,0.34375 0.328125,0.34375 0.359375,0 0.359375,-0.21875 0.359375,-0.421875 v -0.6875 c 0,-0.15625 0,-0.40625 -0.296875,-0.40625 -0.25,0 -0.28125,0.140625 -0.3125,0.21875 -0.4375,-0.21875 -0.875,-0.21875 -1.0625,-0.21875 -1.65625,0 -1.890625,0.828125 -1.890625,1.1875 0,0.90625 1.046875,1.078125 1.96875,1.21875 0.484375,0.078125 1.28125,0.203125 1.28125,0.734375 0,0.375 -0.375,0.703125 -1.28125,0.703125 -0.46875,0 -1.015625,-0.109375 -1.265625,-0.890625 -0.0625,-0.171875 -0.09375,-0.28125 -0.359375,-0.28125 -0.34375,0 -0.34375,0.203125 -0.34375,0.40625 v 0.96875 c 0,0.15625 0,0.40625 0.296875,0.40625 0.09375,0 0.25,-0.015625 0.375,-0.375 0.484375,0.359375 1.015625,0.375 1.296875,0.375 1.5625,0 1.890625,-0.828125 1.890625,-1.3125 0,-1.03125 -1.28125,-1.25 -1.609375,-1.296875 z m 0,0"
           id="id-6684e501-60cd-42f0-9397-90459db97764" />
      </g>
      <g
         transform="matrix(0.28821213,0,0,0.28821213,98.816921,222.87596)"
         id="g3803"
         style="fill:#000000;fill-opacity:1">
        <path
           style="stroke:none"
           d="M 3.5625,-0.3125 C 3.578125,0 3.78125,0 3.96875,0 H 4.6875 c 0.171875,0 0.421875,0 0.421875,-0.3125 0,-0.296875 -0.265625,-0.296875 -0.40625,-0.296875 H 4.25 v -3.28125 c 0,-0.3125 -0.046875,-0.40625 -0.390625,-0.40625 H 3.125 c -0.15625,0 -0.40625,0 -0.40625,0.3125 0,0.296875 0.265625,0.296875 0.40625,0.296875 h 0.4375 v 2.125 c 0,0.890625 -0.796875,1.015625 -1.125,1.015625 -0.78125,0 -0.78125,-0.328125 -0.78125,-0.65625 v -2.6875 c 0,-0.3125 -0.0625,-0.40625 -0.40625,-0.40625 H 0.53125 c -0.15625,0 -0.40625,0 -0.40625,0.3125 0,0.296875 0.25,0.296875 0.390625,0.296875 H 0.96875 v 2.546875 c 0,0.96875 0.6875,1.203125 1.40625,1.203125 0.421875,0 0.828125,-0.109375 1.1875,-0.375 z m 0,0"
           id="id-e02f07dd-9b3a-40a2-9025-e51a712c2366" />
      </g>
      <g
         transform="matrix(0.28821213,0,0,0.28821213,100.32427,222.87596)"
         id="g3806"
         style="fill:#000000;fill-opacity:1">
        <path
           style="stroke:none"
           d="m 1.65625,-2.625 c 0,-0.59375 0.578125,-1.125 1.203125,-1.125 0.734375,0 1.3125,0.734375 1.3125,1.59375 0,0.953125 -0.6875,1.609375 -1.390625,1.609375 -0.78125,0 -1.125,-0.875 -1.125,-1.359375 z m 0,2.171875 C 2.0625,-0.03125 2.5,0.0625 2.8125,0.0625 c 1.078125,0 2.046875,-0.953125 2.046875,-2.21875 0,-1.21875 -0.875,-2.203125 -1.9375,-2.203125 C 2.4375,-4.359375 2,-4.171875 1.65625,-3.875 1.65625,-4.15625 1.640625,-4.296875 1.25,-4.296875 H 0.53125 c -0.15625,0 -0.40625,0 -0.40625,0.3125 0,0.296875 0.25,0.296875 0.390625,0.296875 H 0.96875 v 5.296875 h -0.4375 c -0.15625,0 -0.40625,0 -0.40625,0.296875 0,0.3125 0.25,0.3125 0.390625,0.3125 h 1.59375 C 2.25,2.21875 2.5,2.21875 2.5,1.90625 2.5,1.609375 2.25,1.609375 2.09375,1.609375 h -0.4375 z m 0,0"
           id="id-9c2625c1-9027-42a5-adfa-37004e350aaf" />
      </g>
      <g
         transform="matrix(0.28821213,0,0,0.28821213,101.83162,222.87596)"
         id="g3809"
         style="fill:#000000;fill-opacity:1">
        <path
           style="stroke:none"
           d="m 1.65625,-2.625 c 0,-0.59375 0.578125,-1.125 1.203125,-1.125 0.734375,0 1.3125,0.734375 1.3125,1.59375 0,0.953125 -0.6875,1.609375 -1.390625,1.609375 -0.78125,0 -1.125,-0.875 -1.125,-1.359375 z m 0,2.171875 C 2.0625,-0.03125 2.5,0.0625 2.8125,0.0625 c 1.078125,0 2.046875,-0.953125 2.046875,-2.21875 0,-1.21875 -0.875,-2.203125 -1.9375,-2.203125 C 2.4375,-4.359375 2,-4.171875 1.65625,-3.875 1.65625,-4.15625 1.640625,-4.296875 1.25,-4.296875 H 0.53125 c -0.15625,0 -0.40625,0 -0.40625,0.3125 0,0.296875 0.25,0.296875 0.390625,0.296875 H 0.96875 v 5.296875 h -0.4375 c -0.15625,0 -0.40625,0 -0.40625,0.296875 0,0.3125 0.25,0.3125 0.390625,0.3125 h 1.59375 C 2.25,2.21875 2.5,2.21875 2.5,1.90625 2.5,1.609375 2.25,1.609375 2.09375,1.609375 h -0.4375 z m 0,0"
           id="id-b2ccbed2-ef1e-4ffb-afcb-d0488fcdb0ed" />
      </g>
      <g
         transform="matrix(0.28821213,0,0,0.28821213,103.33926,222.87596)"
         id="g3812"
         style="fill:#000000;fill-opacity:1">
        <path
           style="stroke:none"
           d="m 2.953125,-5.6875 c 0,-0.296875 -0.046875,-0.40625 -0.390625,-0.40625 H 0.984375 c -0.15625,0 -0.40625,0 -0.40625,0.3125 0,0.296875 0.265625,0.296875 0.40625,0.296875 h 1.28125 v 4.875 h -1.28125 c -0.15625,0 -0.40625,0 -0.40625,0.3125 C 0.578125,0 0.84375,0 0.984375,0 H 4.25 c 0.15625,0 0.40625,0 0.40625,-0.296875 0,-0.3125 -0.234375,-0.3125 -0.40625,-0.3125 H 2.953125 Z m 0,0"
           id="id-af8ff72f-8e58-49c8-b3e8-82ecea2f85c0" />
      </g>
      <g
         transform="matrix(0.28821213,0,0,0.28821213,104.84661,222.87596)"
         id="g3815"
         style="fill:#000000;fill-opacity:1">
        <path
           style="stroke:none"
           d="m 4.28125,-3.6875 h 0.296875 c 0.15625,0 0.40625,0 0.40625,-0.296875 0,-0.3125 -0.234375,-0.3125 -0.40625,-0.3125 h -1.15625 c -0.15625,0 -0.40625,0 -0.40625,0.296875 0,0.3125 0.25,0.3125 0.40625,0.3125 h 0.28125 l -0.71875,2.125 C 2.84375,-1.203125 2.796875,-1.015625 2.71875,-0.703125 2.65625,-0.890625 2.578125,-1.109375 2.5,-1.296875 L 1.578125,-3.6875 h 0.25 c 0.140625,0 0.390625,0 0.390625,-0.296875 0,-0.3125 -0.234375,-0.3125 -0.390625,-0.3125 H 0.65625 c -0.15625,0 -0.390625,0 -0.390625,0.3125 0,0.296875 0.25,0.296875 0.390625,0.296875 h 0.3125 L 2.375,-0.125 c 0.046875,0.09375 0.046875,0.109375 0.046875,0.125 0,0.015625 -0.25,0.84375 -0.375,1.09375 C 1.75,1.640625 1.390625,1.65625 1.25,1.671875 c 0,-0.015625 0.046875,-0.09375 0.046875,-0.21875 0,-0.25 -0.1875,-0.4375 -0.421875,-0.4375 -0.28125,0 -0.453125,0.1875 -0.453125,0.4375 0,0.421875 0.34375,0.8125 0.828125,0.8125 1,0 1.453125,-1.3125 1.484375,-1.421875 z m 0,0"
           id="id-bf374a9b-c9aa-4fac-9ed5-cb4c6a9580ca" />
      </g>
    </g>
    <g
       id="g4338"
       transform="translate(-75.386808,-190.8466)">
      <g
         transform="matrix(0.21799959,0,0,0.21799959,106.39455,222.4481)"
         id="g3818"
         style="fill:#000000;fill-opacity:1">
        <path
           style="stroke:none"
           d="m 2.953125,-5.6875 c 0,-0.296875 -0.046875,-0.40625 -0.390625,-0.40625 H 0.984375 c -0.15625,0 -0.40625,0 -0.40625,0.3125 0,0.296875 0.265625,0.296875 0.40625,0.296875 h 1.28125 v 4.875 h -1.28125 c -0.15625,0 -0.40625,0 -0.40625,0.3125 C 0.578125,0 0.84375,0 0.984375,0 H 4.25 c 0.15625,0 0.40625,0 0.40625,-0.296875 0,-0.3125 -0.234375,-0.3125 -0.40625,-0.3125 H 2.953125 Z m 0,0"
           id="id-fdf20e87-30eb-43f7-953d-589e93cfe043" />
      </g>
      <g
         transform="matrix(0.21799959,0,0,0.21799959,107.5349,222.4481)"
         id="g3821"
         style="fill:#000000;fill-opacity:1">
        <path
           style="stroke:none"
           d="m 3.078125,-3.890625 c 0,-0.3125 -0.0625,-0.40625 -0.390625,-0.40625 H 1.265625 c -0.15625,0 -0.40625,0 -0.40625,0.296875 0,0.3125 0.25,0.3125 0.40625,0.3125 h 1.125 v 3.078125 H 1.1875 c -0.15625,0 -0.40625,0 -0.40625,0.3125 C 0.78125,0 1.03125,0 1.1875,0 H 4.125 c 0.15625,0 0.40625,0 0.40625,-0.296875 0,-0.3125 -0.25,-0.3125 -0.40625,-0.3125 H 3.078125 Z m 0,-1.71875 c 0,-0.265625 -0.21875,-0.484375 -0.5,-0.484375 -0.28125,0 -0.5,0.21875 -0.5,0.484375 0,0.28125 0.21875,0.5 0.5,0.5 0.28125,0 0.5,-0.21875 0.5,-0.5 z m 0,0"
           id="id-b4282882-2ce0-4e26-95f9-e12bac89ea80" />
      </g>
      <g
         transform="matrix(0.21799959,0,0,0.21799959,108.67504,222.4481)"
         id="g3824"
         style="fill:#000000;fill-opacity:1">
        <path
           style="stroke:none"
           d="m 2.328125,-1.75 c -0.546875,0 -0.96875,-0.46875 -0.96875,-1 0,-0.5625 0.4375,-1.015625 0.96875,-1.015625 0.53125,0 0.953125,0.46875 0.953125,1 0,0.578125 -0.4375,1.015625 -0.953125,1.015625 z m -0.90625,0.34375 c 0.03125,0.015625 0.40625,0.25 0.90625,0.25 0.90625,0 1.640625,-0.71875 1.640625,-1.609375 C 3.96875,-3.0625 3.875,-3.34375 3.703125,-3.625 3.921875,-3.75 4.15625,-3.78125 4.28125,-3.796875 c 0.0625,0.265625 0.296875,0.34375 0.390625,0.34375 0.171875,0 0.40625,-0.125 0.40625,-0.421875 0,-0.21875 -0.1875,-0.53125 -0.734375,-0.53125 -0.109375,0 -0.59375,0.015625 -1.046875,0.34375 C 3.125,-4.171875 2.78125,-4.359375 2.328125,-4.359375 c -0.9375,0 -1.65625,0.75 -1.65625,1.59375 C 0.671875,-2.328125 0.84375,-2 1,-1.8125 c -0.109375,0.15625 -0.203125,0.375 -0.203125,0.671875 0,0.359375 0.140625,0.609375 0.234375,0.71875 -0.734375,0.453125 -0.734375,1.125 -0.734375,1.234375 0,0.859375 1.03125,1.46875 2.3125,1.46875 C 3.890625,2.28125 4.9375,1.671875 4.9375,0.8125 4.9375,0.453125 4.75,-0.046875 4.25,-0.3125 4.109375,-0.390625 3.703125,-0.609375 2.796875,-0.609375 h -0.6875 c -0.078125,0 -0.21875,0 -0.296875,-0.015625 -0.140625,0 -0.203125,0 -0.328125,-0.140625 -0.109375,-0.140625 -0.125,-0.34375 -0.125,-0.359375 0,-0.046875 0.03125,-0.1875 0.0625,-0.28125 z m 1.1875,3.09375 c -1,0 -1.734375,-0.4375 -1.734375,-0.875 0,-0.171875 0.078125,-0.5 0.40625,-0.6875 0.25,-0.171875 0.328125,-0.171875 1.0625,-0.171875 0.890625,0 2.015625,0 2.015625,0.859375 0,0.4375 -0.75,0.875 -1.75,0.875 z m 0,0"
           id="id-13e6b488-16e3-46df-ac00-708536eb6fff" />
      </g>
      <g
         transform="matrix(0.21799959,0,0,0.21799959,109.81518,222.4481)"
         id="g3827"
         style="fill:#000000;fill-opacity:1">
        <path
           style="stroke:none"
           d="m 4.25,-2.921875 c 0,-1 -0.5,-1.4375 -1.296875,-1.4375 -0.65625,0 -1.109375,0.34375 -1.296875,0.53125 V -5.6875 c 0,-0.296875 -0.0625,-0.40625 -0.40625,-0.40625 H 0.53125 c -0.15625,0 -0.40625,0 -0.40625,0.3125 0,0.296875 0.25,0.296875 0.390625,0.296875 H 0.96875 v 4.875 h -0.4375 c -0.15625,0 -0.40625,0 -0.40625,0.3125 C 0.125,0 0.375,0 0.515625,0 h 1.59375 C 2.25,0 2.5,0 2.5,-0.296875 c 0,-0.3125 -0.25,-0.3125 -0.40625,-0.3125 H 1.65625 V -2.375 c 0,-1 0.734375,-1.375 1.25,-1.375 0.515625,0 0.65625,0.28125 0.65625,0.875 v 2.265625 h -0.375 c -0.171875,0 -0.421875,0 -0.421875,0.3125 C 2.765625,0 3.046875,0 3.1875,0 h 1.515625 c 0.140625,0 0.40625,0 0.40625,-0.296875 0,-0.3125 -0.25,-0.3125 -0.421875,-0.3125 H 4.25 Z m 0,0"
           id="id-f5159bf4-8641-495c-9afb-f7cb81008da9" />
      </g>
      <g
         transform="matrix(0.21799959,0,0,0.21799959,110.95554,222.4481)"
         id="g3830"
         style="fill:#000000;fill-opacity:1">
        <path
           style="stroke:none"
           d="m 2.21875,-3.6875 h 1.625 c 0.15625,0 0.40625,0 0.40625,-0.296875 0,-0.3125 -0.25,-0.3125 -0.40625,-0.3125 h -1.625 v -0.8125 c 0,-0.1875 0,-0.40625 -0.34375,-0.40625 -0.34375,0 -0.34375,0.203125 -0.34375,0.40625 v 0.8125 h -0.875 c -0.15625,0 -0.40625,0 -0.40625,0.3125 0,0.296875 0.25,0.296875 0.390625,0.296875 H 1.53125 V -1.25 c 0,0.953125 0.671875,1.3125 1.40625,1.3125 0.734375,0 1.53125,-0.4375 1.53125,-1.3125 0,-0.1875 0,-0.390625 -0.34375,-0.390625 -0.328125,0 -0.34375,0.203125 -0.34375,0.375 0,0.625 -0.578125,0.71875 -0.796875,0.71875 -0.765625,0 -0.765625,-0.515625 -0.765625,-0.765625 z m 0,0"
           id="id-c5bd6ebc-f575-41e3-9c03-780311aea973" />
      </g>
    </g>
    <g
       style="fill:#000000;fill-opacity:1"
       id="id-affcfea7-f8e8-4ce7-a775-25efb146a548"
       transform="matrix(0.28821213,0,0,0.28821213,-41.643909,-35.397988)">
      <g
         transform="translate(242.859,134.765)"
         id="g3834">
        <path
           style="stroke:none"
           d="M 3.65625,-0.3125 C 3.875,-0.015625 4.34375,0 4.71875,0 c 0.28125,0 0.5,0 0.5,-0.3125 0,-0.296875 -0.25,-0.296875 -0.390625,-0.296875 -0.421875,0 -0.515625,-0.046875 -0.59375,-0.078125 v -2.15625 c 0,-0.703125 -0.546875,-1.546875 -1.984375,-1.546875 -0.421875,0 -1.4375,0 -1.4375,0.734375 0,0.296875 0.203125,0.453125 0.4375,0.453125 0.15625,0 0.4375,-0.09375 0.4375,-0.453125 0,-0.078125 0.015625,-0.09375 0.21875,-0.109375 0.140625,-0.015625 0.265625,-0.015625 0.359375,-0.015625 0.75,0 1.265625,0.3125 1.265625,1.015625 -1.75,0.03125 -2.984375,0.53125 -2.984375,1.484375 0,0.6875 0.625,1.34375 1.640625,1.34375 0.375,0 1,-0.078125 1.46875,-0.375 z m -0.125,-1.859375 v 0.84375 c 0,0.21875 0,0.4375 -0.375,0.609375 -0.359375,0.171875 -0.8125,0.171875 -0.890625,0.171875 -0.625,0 -1.03125,-0.34375 -1.03125,-0.734375 0,-0.484375 0.859375,-0.859375 2.296875,-0.890625 z m 0,0"
           id="id-d92d0d50-6d1a-487d-a9a9-7b7530c3cd0f" />
      </g>
    </g>
    <g
       style="fill:#000000;fill-opacity:1"
       id="id-abafc47d-4fda-424e-8158-952e9aba959c"
       transform="matrix(0.28821213,0,0,0.28821213,-43.920065,-25.353994)">
      <g
         transform="translate(253.319,134.765)"
         id="g3838">
        <path
           style="stroke:none"
           d="m 1.65625,-3.875 v -1.8125 c 0,-0.296875 -0.0625,-0.40625 -0.40625,-0.40625 H 0.53125 c -0.15625,0 -0.40625,0 -0.40625,0.3125 0,0.296875 0.25,0.296875 0.390625,0.296875 H 0.96875 V -0.40625 C 0.96875,-0.203125 0.96875,0 1.3125,0 1.65625,0 1.65625,-0.203125 1.65625,-0.453125 2.0625,-0.03125 2.5,0.0625 2.8125,0.0625 c 1.078125,0 2.046875,-0.953125 2.046875,-2.21875 0,-1.21875 -0.875,-2.203125 -1.9375,-2.203125 C 2.4375,-4.359375 2,-4.171875 1.65625,-3.875 Z m 0,1.96875 V -2.625 c 0,-0.59375 0.578125,-1.125 1.203125,-1.125 0.734375,0 1.3125,0.734375 1.3125,1.59375 0,0.953125 -0.6875,1.609375 -1.390625,1.609375 -0.78125,0 -1.125,-0.875 -1.125,-1.359375 z m 0,0"
           id="id-8acca392-41ae-40b7-bc50-18cebb58166f" />
      </g>
    </g>
    <g
       id="g1402"
       transform="matrix(-0.26458333,0,0,0.26458333,216.95833,-150.8125)">
      <path
         id="path1400"
         style="fill:none;stroke:#000000;stroke-width:1px;stroke-linecap:round;marker-mid:url(#marker2556)"
         d="m 695,600 30,10 h 30.00001" />
    </g>
    <path
       style="fill:none;stroke:#000000;stroke-width:0.264583px;stroke-linecap:butt;stroke-linejoin:miter;stroke-opacity:1;marker-start:url(#marker2556)"
       d="M 33.072916,1.3229166 H 44.449999"
       id="path1608" />
    <path
       style="fill:none;stroke:#000000;stroke-width:0.264583px;stroke-linecap:butt;stroke-linejoin:miter;stroke-opacity:1"
       d="m 8.4666667,1.3229167 8.7312493,-10e-8"
       id="path1610"
       sodipodi:nodetypes="cc" />
    <path
       style="fill:none;stroke:#000000;stroke-width:0.264583px;stroke-linecap:butt;stroke-linejoin:miter;stroke-opacity:1"
       d="M 8.4666667,10.583334 H 17.197916"
       id="path1612"
       sodipodi:nodetypes="cc" />
    <path
       style="fill:none;stroke:#000000;stroke-width:0.264583px;stroke-linecap:butt;stroke-linejoin:miter;stroke-opacity:1;marker-start:url(#marker2556)"
       d="M 33.072916,10.583334 H 44.449999"
       id="path1614" />
  </g>
</svg>
