<?xml version="1.0" encoding="UTF-8" standalone="no"?>
<!-- Created with Inkscape (http://www.inkscape.org/) -->

<svg
   width="28.907076mm"
   height="18.386688mm"
   viewBox="0 0 28.907076 18.386688"
   version="1.1"
   id="svg5"
   sodipodi:docname="perfect_match1.svg"
   inkscape:version="1.1 (c4e8f9e, 2021-05-24)"
   xmlns:inkscape="http://www.inkscape.org/namespaces/inkscape"
   xmlns:sodipodi="http://sodipodi.sourceforge.net/DTD/sodipodi-0.dtd"
   xmlns="http://www.w3.org/2000/svg"
   xmlns:svg="http://www.w3.org/2000/svg">
  <sodipodi:namedview
     id="namedview7"
     pagecolor="#ffffff"
     bordercolor="#666666"
     borderopacity="1.0"
     inkscape:pageshadow="2"
     inkscape:pageopacity="0.0"
     inkscape:pagecheckerboard="0"
     inkscape:document-units="mm"
     showgrid="false"
     inkscape:zoom="2.965802"
     inkscape:cx="30.514512"
     inkscape:cy="38.606758"
     inkscape:window-width="1312"
     inkscape:window-height="847"
     inkscape:window-x="84"
     inkscape:window-y="25"
     inkscape:window-maximized="0"
     inkscape:current-layer="layer1">
    <inkscape:grid
       type="xygrid"
       id="grid824"
       originx="-70.172858"
       originy="-9.0198119" />
  </sodipodi:namedview>
  <defs
     id="defs2">
    <marker
       style="overflow:visible"
       id="DotM"
       refX="0"
       refY="0"
       orient="auto"
       inkscape:stockid="DotM"
       inkscape:isstock="true">
      <path
         transform="matrix(0.4,0,0,0.4,2.96,0.4)"
         style="fill:context-stroke;fill-rule:evenodd;stroke:context-stroke;stroke-width:1pt"
         d="m -2.5,-1 c 0,2.76 -2.24,5 -5,5 -2.76,0 -5,-2.24 -5,-5 0,-2.76 2.24,-5 5,-5 2.76,0 5,2.24 5,5 z"
         id="path1179" />
    </marker>
    <marker
       style="overflow:visible"
       id="DotL"
       refX="0"
       refY="0"
       orient="auto"
       inkscape:stockid="DotL"
       inkscape:isstock="true">
      <path
         transform="matrix(0.8,0,0,0.8,5.92,0.8)"
         style="fill:context-stroke;fill-rule:evenodd;stroke:context-stroke;stroke-width:1pt"
         d="m -2.5,-1 c 0,2.76 -2.24,5 -5,5 -2.76,0 -5,-2.24 -5,-5 0,-2.76 2.24,-5 5,-5 2.76,0 5,2.24 5,5 z"
         id="path1176" />
    </marker>
    <defs
       id="id-28aaa322-77c9-4a25-b573-f0648b5e0bb2">
      <g
         id="id-8c891ea7-797b-40b6-b9c5-2392b12de525">
        <symbol
           overflow="visible"
           id="id-dad54acf-2847-4239-ad3e-46adf49534a7">
          <path
             style="stroke:none;stroke-width:0"
             d=""
             id="id-c985f1d2-265a-4163-a9e7-d091711ddba1" />
        </symbol>
        <symbol
           overflow="visible"
           id="id-08dc93cf-3412-4f93-95b1-10fc30457883">
          <path
             style="stroke:none;stroke-width:0"
             d="M 3.71875,-3.765625 C 3.53125,-4.140625 3.25,-4.40625 2.796875,-4.40625 c -1.15625,0 -2.390625,1.46875 -2.390625,2.921875 0,0.9375 0.546875,1.59375 1.3125,1.59375 0.203125,0 0.703125,-0.046875 1.296875,-0.75 0.078125,0.421875 0.4375,0.75 0.90625,0.75 0.359375,0 0.578125,-0.234375 0.75,-0.546875 0.15625,-0.359375 0.296875,-0.96875 0.296875,-0.984375 0,-0.109375 -0.09375,-0.109375 -0.125,-0.109375 -0.09375,0 -0.109375,0.046875 -0.140625,0.1875 -0.171875,0.640625 -0.34375,1.234375 -0.75,1.234375 -0.28125,0 -0.296875,-0.265625 -0.296875,-0.453125 0,-0.21875 0.015625,-0.3125 0.125,-0.75 C 3.890625,-1.71875 3.90625,-1.828125 4,-2.203125 L 4.359375,-3.59375 c 0.0625,-0.28125 0.0625,-0.296875 0.0625,-0.34375 0,-0.171875 -0.109375,-0.265625 -0.28125,-0.265625 -0.25,0 -0.390625,0.21875 -0.421875,0.4375 z M 3.078125,-1.1875 C 3.015625,-1 3.015625,-0.984375 2.875,-0.8125 2.4375,-0.265625 2.03125,-0.109375 1.75,-0.109375 c -0.5,0 -0.640625,-0.546875 -0.640625,-0.9375 0,-0.5 0.3125,-1.71875 0.546875,-2.1875 0.3125,-0.578125 0.75,-0.953125 1.15625,-0.953125 0.640625,0 0.78125,0.8125 0.78125,0.875 0,0.0625 -0.015625,0.125 -0.03125,0.171875 z m 0,0"
             id="id-c2fe0767-23a1-4f62-a6dc-4dc2d6fa12c5" />
        </symbol>
        <symbol
           overflow="visible"
           id="id-48c3214e-9dfe-44c8-8b91-e348481a4c9c">
          <path
             style="stroke:none;stroke-width:0"
             d="m 2.375,-6.8125 c 0,0 0,-0.109375 -0.125,-0.109375 -0.21875,0 -0.953125,0.078125 -1.21875,0.109375 -0.078125,0 -0.1875,0.015625 -0.1875,0.1875 0,0.125 0.09375,0.125 0.25,0.125 0.46875,0 0.484375,0.0625 0.484375,0.171875 0,0.0625 -0.078125,0.40625 -0.125,0.609375 l -0.828125,3.25 c -0.109375,0.5 -0.15625,0.671875 -0.15625,1.015625 0,0.9375 0.53125,1.5625 1.265625,1.5625 1.171875,0 2.40625,-1.484375 2.40625,-2.921875 0,-0.90625 -0.53125,-1.59375 -1.328125,-1.59375 -0.453125,0 -0.875,0.296875 -1.171875,0.59375 z M 1.453125,-3.046875 C 1.5,-3.265625 1.5,-3.28125 1.59375,-3.390625 2.078125,-4.03125 2.53125,-4.1875 2.796875,-4.1875 c 0.359375,0 0.625,0.296875 0.625,0.9375 0,0.59375 -0.328125,1.734375 -0.515625,2.109375 -0.328125,0.671875 -0.78125,1.03125 -1.171875,1.03125 -0.34375,0 -0.671875,-0.265625 -0.671875,-1 0,-0.203125 0,-0.390625 0.15625,-1.015625 z m 0,0"
             id="id-d259cad1-58ff-4890-9383-3275498d07ab" />
        </symbol>
        <symbol
           overflow="visible"
           id="id-3b47a4ed-d664-4647-8012-30952c7648f0">
          <path
             style="stroke:none;stroke-width:0"
             d=""
             id="id-b824047b-5680-464a-9a33-fe0ddc6f4a22" />
        </symbol>
        <symbol
           overflow="visible"
           id="id-53270885-a416-4840-a083-aa8ac64cef21">
          <path
             style="stroke:none;stroke-width:0"
             d="m 2.328125,-4.4375 c 0,-0.1875 0,-0.1875 -0.203125,-0.1875 -0.453125,0.4375 -1.078125,0.4375 -1.359375,0.4375 v 0.25 c 0.15625,0 0.625,0 1,-0.1875 v 3.546875 c 0,0.234375 0,0.328125 -0.6875,0.328125 H 0.8125 V 0 c 0.125,0 0.984375,-0.03125 1.234375,-0.03125 0.21875,0 1.09375,0.03125 1.25,0.03125 V -0.25 H 3.03125 c -0.703125,0 -0.703125,-0.09375 -0.703125,-0.328125 z m 0,0"
             id="id-36aaaba8-8afa-4dad-8458-783d5a2bbfa3" />
        </symbol>
        <symbol
           overflow="visible"
           id="id-9bffa29c-8652-4113-afe8-b584e0061f80">
          <path
             style="stroke:none;stroke-width:0"
             d="M 3.515625,-1.265625 H 3.28125 c -0.015625,0.15625 -0.09375,0.5625 -0.1875,0.625 C 3.046875,-0.59375 2.515625,-0.59375 2.40625,-0.59375 H 1.125 c 0.734375,-0.640625 0.984375,-0.84375 1.390625,-1.171875 0.515625,-0.40625 1,-0.84375 1,-1.5 0,-0.84375 -0.734375,-1.359375 -1.625,-1.359375 -0.859375,0 -1.453125,0.609375 -1.453125,1.25 0,0.34375 0.296875,0.390625 0.375,0.390625 0.15625,0 0.359375,-0.125 0.359375,-0.375 0,-0.125 -0.046875,-0.375 -0.40625,-0.375 C 0.984375,-4.21875 1.453125,-4.375 1.78125,-4.375 c 0.703125,0 1.0625,0.546875 1.0625,1.109375 0,0.609375 -0.4375,1.078125 -0.65625,1.328125 L 0.515625,-0.265625 C 0.4375,-0.203125 0.4375,-0.1875 0.4375,0 h 2.875 z m 0,0"
             id="id-c32ff8c9-f060-4398-ac88-38e68401bc3e" />
        </symbol>
        <symbol
           overflow="visible"
           id="id-444417b3-e693-4ee3-b764-6aaa0fe92b92">
          <path
             style="stroke:none;stroke-width:0"
             d="m 1.90625,-2.328125 c 0.546875,0 0.9375,0.375 0.9375,1.125 0,0.859375 -0.515625,1.125 -0.90625,1.125 -0.28125,0 -0.90625,-0.078125 -1.1875,-0.5 0.328125,0 0.40625,-0.234375 0.40625,-0.390625 0,-0.21875 -0.171875,-0.375 -0.390625,-0.375 -0.1875,0 -0.390625,0.125 -0.390625,0.40625 0,0.65625 0.71875,1.078125 1.5625,1.078125 0.96875,0 1.640625,-0.65625 1.640625,-1.34375 0,-0.546875 -0.4375,-1.09375 -1.203125,-1.25 0.71875,-0.265625 0.984375,-0.78125 0.984375,-1.21875 0,-0.546875 -0.625,-0.953125 -1.40625,-0.953125 -0.765625,0 -1.359375,0.375 -1.359375,0.9375 0,0.234375 0.15625,0.359375 0.359375,0.359375 0.21875,0 0.359375,-0.15625 0.359375,-0.34375 0,-0.203125 -0.140625,-0.359375 -0.359375,-0.375 0.25,-0.296875 0.71875,-0.375 0.984375,-0.375 0.3125,0 0.75,0.15625 0.75,0.75 0,0.296875 -0.09375,0.625 -0.28125,0.828125 -0.21875,0.265625 -0.421875,0.28125 -0.765625,0.3125 -0.171875,0.015625 -0.1875,0.015625 -0.21875,0.015625 -0.015625,0 -0.078125,0.015625 -0.078125,0.09375 0,0.09375 0.0625,0.09375 0.1875,0.09375 z m 0,0"
             id="id-d6f12241-11d5-428c-88d8-3d9398c216c7" />
        </symbol>
        <symbol
           overflow="visible"
           id="id-a108fc7a-2b31-42df-bb8d-1714f3743fd2">
          <path
             style="stroke:none;stroke-width:0"
             d="m 3.6875,-1.140625 v -0.25 H 2.90625 V -4.5 c 0,-0.140625 0,-0.203125 -0.140625,-0.203125 -0.09375,0 -0.125,0 -0.1875,0.109375 l -2.3125,3.203125 v 0.25 h 2.0625 v 0.5625 c 0,0.25 0,0.328125 -0.578125,0.328125 H 1.5625 V 0 C 1.921875,-0.015625 2.359375,-0.03125 2.609375,-0.03125 2.875,-0.03125 3.3125,-0.015625 3.671875,0 v -0.25 h -0.1875 C 2.90625,-0.25 2.90625,-0.328125 2.90625,-0.578125 v -0.5625 z M 2.375,-3.9375 v 2.546875 H 0.53125 Z m 0,0"
             id="id-141ce605-8e2c-40d1-840f-c7d99a673d6e" />
        </symbol>
      </g>
    </defs>
  </defs>
  <g
     inkscape:label="Layer 1"
     inkscape:groupmode="layer"
     id="layer1"
     transform="translate(-70.172856,-9.0198119)">
    <g
       id="g1292">
      <g
         id="path859">
        <path
           style="color:#000000;fill:#2d2d2d;-inkscape-stroke:none"
           d="m 74.083984,10.408203 v 0.34961 H 95.25 v -0.34961 z"
           id="path1912" />
        <g
           id="g1890">
          <g
             id="path1902">
            <path
               style="color:#000000;fill:#0084c8;fill-rule:evenodd;stroke-width:0.14pt;-inkscape-stroke:none"
               d="m 95.935999,10.583333 c 0,0.3864 -0.3136,0.7 -0.7,0.7 -0.3864,0 -0.7,-0.3136 -0.7,-0.7 0,-0.3864 0.3136,-0.7 0.7,-0.7 0.3864,0 0.7,0.3136 0.7,0.7 z"
               id="path1906" />
            <path
               style="color:#000000;fill:#0084c8;fill-rule:evenodd;-inkscape-stroke:none"
               d="m 95.236328,9.7890625 c -0.436899,0 -0.792969,0.3580235 -0.792969,0.7949215 0,0.436899 0.35607,0.792969 0.792969,0.792969 0.436899,0 0.792969,-0.35607 0.792969,-0.792969 0,-0.436898 -0.35607,-0.7949215 -0.792969,-0.7949215 z m 0,0.1875 c 0.335901,0 0.605469,0.2715215 0.605469,0.6074215 0,0.335901 -0.269568,0.605469 -0.605469,0.605469 -0.3359,0 -0.607422,-0.269568 -0.607422,-0.605469 0,-0.3359 0.271522,-0.6074215 0.607422,-0.6074215 z"
               id="path1908" />
          </g>
          <g
             id="path1892">
            <path
               style="color:#000000;fill:#0084c8;fill-rule:evenodd;stroke-width:0.14pt;-inkscape-stroke:none"
               d="m 74.769332,10.583333 c 0,0.3864 -0.3136,0.7 -0.7,0.7 -0.3864,0 -0.7,-0.3136 -0.7,-0.7 0,-0.3864 0.3136,-0.7 0.7,-0.7 0.3864,0 0.7,0.3136 0.7,0.7 z"
               id="path1896" />
            <path
               style="color:#000000;fill:#0084c8;fill-rule:evenodd;-inkscape-stroke:none"
               d="m 74.068359,9.7890625 c -0.436898,0 -0.792968,0.3580235 -0.792968,0.7949215 0,0.436899 0.35607,0.792969 0.792968,0.792969 0.436899,0 0.794922,-0.35607 0.794922,-0.792969 0,-0.436898 -0.358023,-0.7949215 -0.794922,-0.7949215 z m 0,0.1875 c 0.335901,0 0.607422,0.2715215 0.607422,0.6074215 0,0.335901 -0.271521,0.605469 -0.607422,0.605469 -0.3359,0 -0.605468,-0.269568 -0.605468,-0.605469 0,-0.3359 0.269568,-0.6074215 0.605468,-0.6074215 z"
               id="path1898" />
          </g>
        </g>
      </g>
      <g
         id="path865">
        <path
           style="color:#000000;fill:#2d2d2d;-inkscape-stroke:none"
           d="m 74.083984,26.283203 v 0.349609 H 95.25 v -0.349609 z"
           id="path1940" />
        <g
           id="g1918">
          <g
             id="path1930">
            <path
               style="color:#000000;fill:#0084c8;fill-rule:evenodd;stroke-width:0.14pt;-inkscape-stroke:none"
               d="m 95.935999,26.458333 c 0,0.3864 -0.3136,0.7 -0.7,0.7 -0.3864,0 -0.7,-0.3136 -0.7,-0.7 0,-0.3864 0.3136,-0.7 0.7,-0.7 0.3864,0 0.7,0.3136 0.7,0.7 z"
               id="path1934" />
            <path
               style="color:#000000;fill:#0084c8;fill-rule:evenodd;-inkscape-stroke:none"
               d="m 95.236328,25.664062 c -0.436899,0 -0.792969,0.358024 -0.792969,0.794922 0,0.436899 0.35607,0.792969 0.792969,0.792969 0.436899,0 0.792969,-0.35607 0.792969,-0.792969 0,-0.436898 -0.35607,-0.794922 -0.792969,-0.794922 z m 0,0.1875 c 0.335901,0 0.605469,0.271522 0.605469,0.607422 0,0.335901 -0.269568,0.605469 -0.605469,0.605469 -0.3359,0 -0.607422,-0.269568 -0.607422,-0.605469 0,-0.3359 0.271522,-0.607421 0.607422,-0.607422 z"
               id="path1936" />
          </g>
          <g
             id="path1920">
            <path
               style="color:#000000;fill:#0084c8;fill-rule:evenodd;stroke-width:0.14pt;-inkscape-stroke:none"
               d="m 74.769332,26.458333 c 0,0.3864 -0.3136,0.7 -0.7,0.7 -0.3864,0 -0.7,-0.3136 -0.7,-0.7 0,-0.3864 0.3136,-0.7 0.7,-0.7 0.3864,0 0.7,0.3136 0.7,0.7 z"
               id="path1924" />
            <path
               style="color:#000000;fill:#0084c8;fill-rule:evenodd;-inkscape-stroke:none"
               d="m 74.068359,25.664062 c -0.436898,0 -0.792968,0.358024 -0.792968,0.794922 0,0.436899 0.35607,0.792969 0.792968,0.792969 0.436899,0 0.794922,-0.35607 0.794922,-0.792969 0,-0.436898 -0.358023,-0.794922 -0.794922,-0.794922 z m 0,0.1875 c 0.335901,0 0.607422,0.271522 0.607422,0.607422 0,0.335901 -0.271521,0.605469 -0.607422,0.605469 -0.3359,0 -0.605468,-0.269568 -0.605468,-0.605469 0,-0.3359 0.269568,-0.607422 0.605468,-0.607422 z"
               id="path1926" />
          </g>
        </g>
      </g>
      <g
         id="path867">
        <path
           style="color:#000000;fill:#2d2d2d;-inkscape-stroke:none"
           d="m 74.125,10.414063 -0.08398,0.339843 21.166015,5.291016 0.08594,-0.339844 z"
           id="path1968" />
        <g
           id="g1946">
          <g
             id="path1958">
            <path
               style="color:#000000;fill:#0084c8;fill-rule:evenodd;stroke-width:0.14pt;-inkscape-stroke:none"
               d="m 95.915517,16.041379 c -0.09372,0.374863 -0.474012,0.603041 -0.848875,0.509325 -0.374863,-0.09372 -0.60304,-0.474011 -0.509325,-0.848874 0.09372,-0.374863 0.474012,-0.603041 0.848875,-0.509325 0.374863,0.09372 0.603041,0.474011 0.509325,0.848874 z"
               id="path1962" />
            <path
               style="color:#000000;fill:#0084c8;fill-rule:evenodd;-inkscape-stroke:none"
               d="m 95.429687,15.101563 c -0.423853,-0.105964 -0.856922,0.154272 -0.96289,0.578125 -0.105963,0.423853 0.154272,0.854969 0.578125,0.960937 0.423854,0.105964 0.854969,-0.152319 0.960937,-0.576172 0.105964,-0.423854 -0.152319,-0.856923 -0.576172,-0.96289 z m -0.04687,0.18164 c 0.325873,0.08147 0.522875,0.410457 0.441407,0.736328 -0.08147,0.325873 -0.408504,0.522875 -0.734375,0.441406 -0.325873,-0.08147 -0.522874,-0.410456 -0.441407,-0.736328 0.08147,-0.325872 0.408504,-0.522874 0.734375,-0.441406 z"
               id="path1964" />
          </g>
          <g
             id="path1948">
            <path
               style="color:#000000;fill:#0084c8;fill-rule:evenodd;stroke-width:0.14pt;-inkscape-stroke:none"
               d="m 74.74885,10.749712 c -0.09372,0.374863 -0.474012,0.603041 -0.848875,0.509325 -0.374863,-0.09372 -0.60304,-0.474011 -0.509325,-0.848874 0.09372,-0.374863 0.474012,-0.603041 0.848875,-0.5093252 0.374863,0.093716 0.603041,0.4740112 0.509325,0.8488742 z"
               id="path1952" />
            <path
               style="color:#000000;fill:#2d2d2d;fill-rule:evenodd;-inkscape-stroke:none"
               d="m 74.261719,9.8105469 c -0.423854,-0.1059636 -0.85497,0.1523192 -0.960938,0.5761721 -0.105962,0.423853 0.15232,0.856922 0.576172,0.96289 0.423854,0.105964 0.856923,-0.154272 0.962891,-0.578125 0.105964,-0.423854 -0.154271,-0.8549734 -0.578125,-0.9609371 z m -0.04492,0.1816406 c 0.325871,0.081468 0.522874,0.4085035 0.441406,0.7343755 -0.08147,0.325872 -0.410457,0.522874 -0.736328,0.441406 -0.325873,-0.08147 -0.522873,-0.408504 -0.441406,-0.734375 0.08147,-0.325873 0.410457,-0.5228744 0.736328,-0.4414065 z"
               id="path1954" />
          </g>
        </g>
      </g>
      <g
         id="path869">
        <path
           style="color:#000000;fill:#2d2d2d;-inkscape-stroke:none"
           d="m 74.125,15.705078 -0.119141,0.326172 21.166016,10.583984 0.15625,-0.3125 -19.740234,-9.871093 19.61914,4.904296 0.08594,-0.339843 z"
           id="path2006" />
        <g
           id="g1974">
          <g
             id="path1996">
            <path
               style="color:#000000;fill:#0084c8;fill-rule:evenodd;stroke-width:0.14pt;-inkscape-stroke:none"
               d="m 95.863577,26.765121 c -0.172803,0.345607 -0.593542,0.485853 -0.939148,0.31305 -0.345607,-0.172803 -0.485853,-0.593542 -0.31305,-0.939148 0.172803,-0.345607 0.593542,-0.485853 0.939149,-0.31305 0.345606,0.172803 0.485852,0.593542 0.313049,0.939148 z"
               id="path2000" />
            <path
               style="color:#000000;fill:#2d2d2d;fill-rule:evenodd;-inkscape-stroke:none"
               d="m 95.591797,25.742187 c -0.390775,-0.195386 -0.869067,-0.03531 -1.064453,0.355469 -0.195387,0.390774 -0.03531,0.869067 0.355468,1.064453 0.390774,0.195387 0.869067,0.03531 1.064454,-0.355468 0.195386,-0.390774 0.0353,-0.869067 -0.355469,-1.064454 z m -0.08398,0.167969 c 0.300438,0.150219 0.421704,0.512062 0.271485,0.8125 -0.150219,0.300439 -0.512062,0.421704 -0.8125,0.271485 -0.300439,-0.150219 -0.421703,-0.512063 -0.271485,-0.8125 0.150219,-0.300439 0.512062,-0.421704 0.8125,-0.271485 z"
               id="path2002" />
          </g>
          <g
             id="path1986">
            <path
               style="color:#000000;fill:#0084c8;fill-rule:evenodd;stroke-width:0.14pt;-inkscape-stroke:none"
               d="m 73.845327,16.518389 c -0.362399,-0.13406 -0.547717,-0.536983 -0.413657,-0.899382 0.13406,-0.362399 0.536983,-0.547717 0.899382,-0.413657 0.362398,0.13406 0.547717,0.536983 0.413657,0.899382 -0.13406,0.362399 -0.536983,0.547717 -0.899382,0.413657 z"
               id="path1990" />
            <path
               style="color:#000000;fill:#2d2d2d;fill-rule:evenodd;-inkscape-stroke:none"
               d="m 74.363281,15.117188 c -0.409761,-0.151581 -0.867951,0.05899 -1.019531,0.46875 -0.15158,0.40976 0.05899,0.86795 0.46875,1.019531 0.409761,0.15158 0.867951,-0.05899 1.019531,-0.46875 0.151581,-0.409761 -0.05899,-0.867951 -0.46875,-1.019531 z m -0.06445,0.175781 c 0.315035,0.116539 0.473961,0.46426 0.357422,0.779297 -0.116539,0.315036 -0.464261,0.475914 -0.779297,0.359375 -0.315036,-0.11654 -0.473961,-0.464261 -0.357422,-0.779297 0.11654,-0.315036 0.464261,-0.475915 0.779297,-0.359375 z"
               id="path1992" />
          </g>
          <g
             id="path1976">
            <path
               style="color:#000000;fill:#0084c8;fill-rule:evenodd;stroke-width:0.14pt;-inkscape-stroke:none"
               d="m 94.584481,21.000287 c 0.09372,-0.374863 0.474012,-0.603041 0.848875,-0.509325 0.374863,0.09372 0.60304,0.474011 0.509325,0.848874 -0.09372,0.374863 -0.474012,0.603041 -0.848875,0.509325 -0.374863,-0.09372 -0.603041,-0.474011 -0.509325,-0.848874 z"
               id="path1980" />
            <path
               style="color:#000000;fill:#2d2d2d;fill-rule:evenodd;-inkscape-stroke:none"
               d="m 95.455078,20.400391 c -0.423854,-0.105964 -0.854969,0.154272 -0.960937,0.578125 -0.105964,0.423854 0.152319,0.854969 0.576171,0.960937 0.423854,0.105964 0.856923,-0.152319 0.962891,-0.576172 0.105963,-0.423853 -0.154272,-0.856922 -0.578125,-0.96289 z m -0.04492,0.18164 c 0.325873,0.08147 0.522874,0.408504 0.441406,0.734375 -0.08147,0.325873 -0.408503,0.522875 -0.734375,0.441406 -0.325872,-0.08147 -0.522874,-0.408503 -0.441406,-0.734375 0.08147,-0.325872 0.408504,-0.522874 0.734375,-0.441406 z"
               id="path1982" />
          </g>
        </g>
      </g>
      <g
         id="path871">
        <path
           style="color:#000000;fill:#2d2d2d;-inkscape-stroke:none"
           d="M 95.171875,10.427734 74.005859,21.009766 74.125,21.335937 95.292969,16.044922 95.207031,15.705078 75.587891,20.609375 95.328125,10.740234 Z"
           id="path2044" />
        <g
           id="g2012">
          <g
             id="path2034">
            <path
               style="color:#000000;fill:#0084c8;fill-rule:evenodd;stroke-width:0.14pt;-inkscape-stroke:none"
               d="m 95.915518,15.708621 c 0.09371,0.374863 -0.134462,0.755158 -0.509325,0.848874 -0.374863,0.09372 -0.755159,-0.134462 -0.848875,-0.509325 -0.09371,-0.374863 0.134462,-0.755159 0.509325,-0.848874 0.374863,-0.09372 0.755159,0.134462 0.848875,0.509325 z"
               id="path2038" />
            <path
               style="color:#000000;fill:#2d2d2d;fill-rule:evenodd;-inkscape-stroke:none"
               d="m 95.044922,15.109375 c -0.423854,0.105963 -0.684082,0.537085 -0.578125,0.960937 0.105964,0.423854 0.539036,0.684094 0.96289,0.578125 0.423855,-0.105963 0.682129,-0.539037 0.576172,-0.96289 -0.105963,-0.423854 -0.537082,-0.682141 -0.960937,-0.576172 z m 0.04492,0.179688 c 0.32587,-0.08147 0.652907,0.115534 0.734375,0.441406 0.08146,0.325872 -0.115535,0.65486 -0.441407,0.736328 -0.32587,0.08147 -0.652906,-0.115535 -0.734375,-0.441406 -0.08146,-0.325873 0.115536,-0.654861 0.441407,-0.736328 z"
               id="path2040" />
          </g>
          <g
             id="path2024">
            <path
               style="color:#000000;fill:#0084c8;fill-rule:evenodd;stroke-width:0.14pt;-inkscape-stroke:none"
               d="m 74.321337,21.810055 c -0.362399,0.13406 -0.765322,-0.05126 -0.899382,-0.413657 -0.13406,-0.362399 0.05126,-0.765322 0.413657,-0.899382 0.362399,-0.13406 0.765322,0.05126 0.899382,0.413657 0.13406,0.362399 -0.05126,0.765322 -0.413657,0.899382 z"
               id="path2028" />
            <path
               style="color:#000000;fill:#2d2d2d;fill-rule:evenodd;-inkscape-stroke:none"
               d="m 73.802734,20.410156 c -0.409759,0.151581 -0.62033,0.60977 -0.46875,1.019531 0.151581,0.40976 0.60977,0.620331 1.019532,0.46875 0.409759,-0.15158 0.62033,-0.60977 0.46875,-1.019531 -0.151581,-0.409759 -0.60977,-0.62033 -1.019532,-0.46875 z m 0.06445,0.173828 c 0.315037,-0.116539 0.662758,0.04434 0.779297,0.359375 0.11654,0.315036 -0.04239,0.662758 -0.357422,0.779297 -0.315036,0.11654 -0.662757,-0.04434 -0.779296,-0.359375 -0.11654,-0.315036 0.04239,-0.662757 0.357421,-0.779297 z"
               id="path2030" />
          </g>
          <g
             id="path2014">
            <path
               style="color:#000000;fill:#0084c8;fill-rule:evenodd;stroke-width:0.14pt;-inkscape-stroke:none"
               d="m 94.636422,10.890122 c -0.172803,-0.345607 -0.03256,-0.766346 0.313049,-0.939149 0.345607,-0.1728033 0.766346,-0.032557 0.939149,0.31305 0.172803,0.345606 0.03256,0.766345 -0.31305,0.939148 -0.345606,0.172803 -0.766345,0.03256 -0.939148,-0.313049 z"
               id="path2018" />
            <path
               style="color:#000000;fill:#0084c8;fill-rule:evenodd;-inkscape-stroke:none"
               d="m 94.908203,9.8671875 c -0.390777,0.1953865 -0.550855,0.6736795 -0.355469,1.0644535 0.195387,0.390776 0.67368,0.550855 1.064453,0.355468 0.390778,-0.195386 0.550856,-0.67368 0.355469,-1.064453 C 95.77727,9.8318817 95.298978,9.6718005 94.908203,9.8671875 Z m 0.08203,0.1679685 c 0.300439,-0.150219 0.664235,-0.02895 0.814453,0.271485 0.15022,0.300438 0.02896,0.662281 -0.271484,0.8125 -0.300438,0.150219 -0.662281,0.02896 -0.8125,-0.271485 -0.150219,-0.300439 -0.03091,-0.662281 0.269531,-0.8125 z"
               id="path2020" />
          </g>
        </g>
      </g>
      <g
         id="path873">
        <path
           style="color:#000000;fill:#2d2d2d;-inkscape-stroke:none"
           d="m 95.144531,10.443359 -21.166015,15.875 0.208984,0.279297 21.167969,-15.875 z"
           id="path2072" />
        <g
           id="g2050">
          <g
             id="path2062">
            <path
               style="color:#000000;fill:#0084c8;fill-rule:evenodd;stroke-width:0.14pt;-inkscape-stroke:none"
               d="m 95.798799,10.171733 c 0.23184,0.30912 0.16912,0.74816 -0.14,0.98 -0.30912,0.23184 -0.74816,0.16912 -0.98,-0.14 -0.23184,-0.30912 -0.16912,-0.74816 0.14,-0.98 0.30912,-0.23184 0.74816,-0.16912 0.98,0.14 z"
               id="path2066" />
            <path
               style="color:#000000;fill:#2d2d2d;fill-rule:evenodd;-inkscape-stroke:none"
               d="m 94.763672,9.9570313 c -0.349519,0.2621397 -0.422296,0.7618087 -0.160156,1.1113277 0.262139,0.349519 0.761809,0.420343 1.111328,0.158204 0.349519,-0.26214 0.420342,-0.76181 0.158203,-1.111329 C 95.610908,9.7657154 95.113191,9.694892 94.763672,9.9570313 Z M 94.875,10.105469 c 0.26872,-0.2015405 0.648069,-0.1456738 0.849609,0.123047 0.201541,0.26872 0.147627,0.646116 -0.121093,0.847656 -0.268721,0.20154 -0.648069,0.147627 -0.84961,-0.121094 -0.20154,-0.26872 -0.147626,-0.648069 0.121094,-0.849609 z"
               id="path2068" />
          </g>
          <g
             id="path2052">
            <path
               style="color:#000000;fill:#0084c8;fill-rule:evenodd;stroke-width:0.14pt;-inkscape-stroke:none"
               d="m 74.632132,26.046733 c 0.23184,0.30912 0.16912,0.74816 -0.14,0.98 -0.30912,0.23184 -0.74816,0.16912 -0.98,-0.14 -0.23184,-0.30912 -0.16912,-0.74816 0.14,-0.98 0.30912,-0.23184 0.74816,-0.16912 0.98,0.14 z"
               id="path2056" />
            <path
               style="color:#000000;fill:#2d2d2d;fill-rule:evenodd;-inkscape-stroke:none"
               d="m 73.595703,25.832031 c -0.349519,0.26214 -0.420342,0.761809 -0.158203,1.111328 0.262139,0.349519 0.761809,0.420343 1.111328,0.158203 0.349519,-0.262139 0.420343,-0.761809 0.158203,-1.111328 -0.262139,-0.349519 -0.761809,-0.420342 -1.111328,-0.158203 z m 0.113281,0.148438 c 0.268721,-0.201541 0.646116,-0.145674 0.847657,0.123047 0.20154,0.26872 0.147626,0.646116 -0.121094,0.847656 -0.268721,0.20154 -0.648069,0.147627 -0.84961,-0.121094 -0.20154,-0.26872 -0.145673,-0.648069 0.123047,-0.849609 z"
               id="path2058" />
          </g>
        </g>
      </g>
      <g
         id="g1714"
         transform="matrix(0.74606112,0,0,0.74606112,18.623734,-26.804374)">
        <g
           style="fill:#000000;fill-opacity:1"
           id="id-85af8788-d72e-4381-abb8-41c8ff021706"
           transform="matrix(0.375579,0,0,0.375579,13.162711,-0.9422461)">
          <g
             transform="translate(148.712,134.765)"
             id="g1438">
            <path
               style="stroke:none;stroke-width:0"
               d="M 3.71875,-3.765625 C 3.53125,-4.140625 3.25,-4.40625 2.796875,-4.40625 c -1.15625,0 -2.390625,1.46875 -2.390625,2.921875 0,0.9375 0.546875,1.59375 1.3125,1.59375 0.203125,0 0.703125,-0.046875 1.296875,-0.75 0.078125,0.421875 0.4375,0.75 0.90625,0.75 0.359375,0 0.578125,-0.234375 0.75,-0.546875 0.15625,-0.359375 0.296875,-0.96875 0.296875,-0.984375 0,-0.109375 -0.09375,-0.109375 -0.125,-0.109375 -0.09375,0 -0.109375,0.046875 -0.140625,0.1875 -0.171875,0.640625 -0.34375,1.234375 -0.75,1.234375 -0.28125,0 -0.296875,-0.265625 -0.296875,-0.453125 0,-0.21875 0.015625,-0.3125 0.125,-0.75 C 3.890625,-1.71875 3.90625,-1.828125 4,-2.203125 L 4.359375,-3.59375 c 0.0625,-0.28125 0.0625,-0.296875 0.0625,-0.34375 0,-0.171875 -0.109375,-0.265625 -0.28125,-0.265625 -0.25,0 -0.390625,0.21875 -0.421875,0.4375 z M 3.078125,-1.1875 C 3.015625,-1 3.015625,-0.984375 2.875,-0.8125 2.4375,-0.265625 2.03125,-0.109375 1.75,-0.109375 c -0.5,0 -0.640625,-0.546875 -0.640625,-0.9375 0,-0.5 0.3125,-1.71875 0.546875,-2.1875 0.3125,-0.578125 0.75,-0.953125 1.15625,-0.953125 0.640625,0 0.78125,0.8125 0.78125,0.875 0,0.0625 -0.015625,0.125 -0.03125,0.171875 z m 0,0"
               id="id-972866d4-c83d-4aaa-ac6a-bb360767e6b6" />
          </g>
        </g>
        <g
           style="fill:#000000;fill-opacity:1"
           id="id-f178141a-bd0b-4f14-a7af-f26c842a80a6"
           transform="matrix(0.375579,0,0,0.375579,13.162711,-0.9422461)">
          <g
             transform="translate(153.978,136.259)"
             id="g1442">
            <path
               style="stroke:none;stroke-width:0"
               d="m 2.328125,-4.4375 c 0,-0.1875 0,-0.1875 -0.203125,-0.1875 -0.453125,0.4375 -1.078125,0.4375 -1.359375,0.4375 v 0.25 c 0.15625,0 0.625,0 1,-0.1875 v 3.546875 c 0,0.234375 0,0.328125 -0.6875,0.328125 H 0.8125 V 0 c 0.125,0 0.984375,-0.03125 1.234375,-0.03125 0.21875,0 1.09375,0.03125 1.25,0.03125 V -0.25 H 3.03125 c -0.703125,0 -0.703125,-0.09375 -0.703125,-0.328125 z m 0,0"
               id="id-16878cdc-ff4c-4f48-a670-fca12eddbfb5" />
          </g>
        </g>
      </g>
      <g
         id="g1722"
         transform="matrix(0.74606112,0,0,0.74606112,15.865012,-21.798134)">
        <g
           style="fill:#000000;fill-opacity:1"
           id="id-cfaf151b-d211-423e-a873-202e4592b69f"
           transform="matrix(0.375579,0,0,0.375579,13.162711,-0.9422461)">
          <g
             transform="translate(158.448,134.765)"
             id="g1446">
            <path
               style="stroke:none;stroke-width:0"
               d="M 3.71875,-3.765625 C 3.53125,-4.140625 3.25,-4.40625 2.796875,-4.40625 c -1.15625,0 -2.390625,1.46875 -2.390625,2.921875 0,0.9375 0.546875,1.59375 1.3125,1.59375 0.203125,0 0.703125,-0.046875 1.296875,-0.75 0.078125,0.421875 0.4375,0.75 0.90625,0.75 0.359375,0 0.578125,-0.234375 0.75,-0.546875 0.15625,-0.359375 0.296875,-0.96875 0.296875,-0.984375 0,-0.109375 -0.09375,-0.109375 -0.125,-0.109375 -0.09375,0 -0.109375,0.046875 -0.140625,0.1875 -0.171875,0.640625 -0.34375,1.234375 -0.75,1.234375 -0.28125,0 -0.296875,-0.265625 -0.296875,-0.453125 0,-0.21875 0.015625,-0.3125 0.125,-0.75 C 3.890625,-1.71875 3.90625,-1.828125 4,-2.203125 L 4.359375,-3.59375 c 0.0625,-0.28125 0.0625,-0.296875 0.0625,-0.34375 0,-0.171875 -0.109375,-0.265625 -0.28125,-0.265625 -0.25,0 -0.390625,0.21875 -0.421875,0.4375 z M 3.078125,-1.1875 C 3.015625,-1 3.015625,-0.984375 2.875,-0.8125 2.4375,-0.265625 2.03125,-0.109375 1.75,-0.109375 c -0.5,0 -0.640625,-0.546875 -0.640625,-0.9375 0,-0.5 0.3125,-1.71875 0.546875,-2.1875 0.3125,-0.578125 0.75,-0.953125 1.15625,-0.953125 0.640625,0 0.78125,0.8125 0.78125,0.875 0,0.0625 -0.015625,0.125 -0.03125,0.171875 z m 0,0"
               id="id-1de40bb1-79db-4b94-a6ea-0fe83212d75a" />
          </g>
        </g>
        <g
           style="fill:#000000;fill-opacity:1"
           id="id-95e9e024-f45b-4e95-99ca-9c937e6743c1"
           transform="matrix(0.375579,0,0,0.375579,13.162711,-0.9422461)">
          <g
             transform="translate(163.714,136.259)"
             id="g1450">
            <path
               style="stroke:none;stroke-width:0"
               d="M 3.515625,-1.265625 H 3.28125 c -0.015625,0.15625 -0.09375,0.5625 -0.1875,0.625 C 3.046875,-0.59375 2.515625,-0.59375 2.40625,-0.59375 H 1.125 c 0.734375,-0.640625 0.984375,-0.84375 1.390625,-1.171875 0.515625,-0.40625 1,-0.84375 1,-1.5 0,-0.84375 -0.734375,-1.359375 -1.625,-1.359375 -0.859375,0 -1.453125,0.609375 -1.453125,1.25 0,0.34375 0.296875,0.390625 0.375,0.390625 0.15625,0 0.359375,-0.125 0.359375,-0.375 0,-0.125 -0.046875,-0.375 -0.40625,-0.375 C 0.984375,-4.21875 1.453125,-4.375 1.78125,-4.375 c 0.703125,0 1.0625,0.546875 1.0625,1.109375 0,0.609375 -0.4375,1.078125 -0.65625,1.328125 L 0.515625,-0.265625 C 0.4375,-0.203125 0.4375,-0.1875 0.4375,0 h 2.875 z m 0,0"
               id="id-31fe2b91-1705-4eb5-ba85-94c8a5855c9c" />
          </g>
        </g>
      </g>
      <g
         id="g1730"
         transform="matrix(0.74606112,0,0,0.74606112,13.128461,-16.262726)">
        <g
           style="fill:#000000;fill-opacity:1"
           id="id-73c42a20-336d-4f9e-a2fe-6b7397216da6"
           transform="matrix(0.375579,0,0,0.375579,13.162711,-0.9422461)">
          <g
             transform="translate(168.183,134.765)"
             id="g1454">
            <path
               style="stroke:none;stroke-width:0"
               d="M 3.71875,-3.765625 C 3.53125,-4.140625 3.25,-4.40625 2.796875,-4.40625 c -1.15625,0 -2.390625,1.46875 -2.390625,2.921875 0,0.9375 0.546875,1.59375 1.3125,1.59375 0.203125,0 0.703125,-0.046875 1.296875,-0.75 0.078125,0.421875 0.4375,0.75 0.90625,0.75 0.359375,0 0.578125,-0.234375 0.75,-0.546875 0.15625,-0.359375 0.296875,-0.96875 0.296875,-0.984375 0,-0.109375 -0.09375,-0.109375 -0.125,-0.109375 -0.09375,0 -0.109375,0.046875 -0.140625,0.1875 -0.171875,0.640625 -0.34375,1.234375 -0.75,1.234375 -0.28125,0 -0.296875,-0.265625 -0.296875,-0.453125 0,-0.21875 0.015625,-0.3125 0.125,-0.75 C 3.890625,-1.71875 3.90625,-1.828125 4,-2.203125 L 4.359375,-3.59375 c 0.0625,-0.28125 0.0625,-0.296875 0.0625,-0.34375 0,-0.171875 -0.109375,-0.265625 -0.28125,-0.265625 -0.25,0 -0.390625,0.21875 -0.421875,0.4375 z M 3.078125,-1.1875 C 3.015625,-1 3.015625,-0.984375 2.875,-0.8125 2.4375,-0.265625 2.03125,-0.109375 1.75,-0.109375 c -0.5,0 -0.640625,-0.546875 -0.640625,-0.9375 0,-0.5 0.3125,-1.71875 0.546875,-2.1875 0.3125,-0.578125 0.75,-0.953125 1.15625,-0.953125 0.640625,0 0.78125,0.8125 0.78125,0.875 0,0.0625 -0.015625,0.125 -0.03125,0.171875 z m 0,0"
               id="id-150c33b2-874c-449a-90e5-9b161763c1f5" />
          </g>
        </g>
        <g
           style="fill:#000000;fill-opacity:1"
           id="id-4e98e3f9-738f-459d-ae0c-a3e51001aa0a"
           transform="matrix(0.375579,0,0,0.375579,13.162711,-0.9422461)">
          <g
             transform="translate(173.449,136.259)"
             id="g1458">
            <path
               style="stroke:none;stroke-width:0"
               d="m 1.90625,-2.328125 c 0.546875,0 0.9375,0.375 0.9375,1.125 0,0.859375 -0.515625,1.125 -0.90625,1.125 -0.28125,0 -0.90625,-0.078125 -1.1875,-0.5 0.328125,0 0.40625,-0.234375 0.40625,-0.390625 0,-0.21875 -0.171875,-0.375 -0.390625,-0.375 -0.1875,0 -0.390625,0.125 -0.390625,0.40625 0,0.65625 0.71875,1.078125 1.5625,1.078125 0.96875,0 1.640625,-0.65625 1.640625,-1.34375 0,-0.546875 -0.4375,-1.09375 -1.203125,-1.25 0.71875,-0.265625 0.984375,-0.78125 0.984375,-1.21875 0,-0.546875 -0.625,-0.953125 -1.40625,-0.953125 -0.765625,0 -1.359375,0.375 -1.359375,0.9375 0,0.234375 0.15625,0.359375 0.359375,0.359375 0.21875,0 0.359375,-0.15625 0.359375,-0.34375 0,-0.203125 -0.140625,-0.359375 -0.359375,-0.375 0.25,-0.296875 0.71875,-0.375 0.984375,-0.375 0.3125,0 0.75,0.15625 0.75,0.75 0,0.296875 -0.09375,0.625 -0.28125,0.828125 -0.21875,0.265625 -0.421875,0.28125 -0.765625,0.3125 -0.171875,0.015625 -0.1875,0.015625 -0.21875,0.015625 -0.015625,0 -0.078125,0.015625 -0.078125,0.09375 0,0.09375 0.0625,0.09375 0.1875,0.09375 z m 0,0"
               id="id-f2542168-918f-4028-89ac-3eb64209206a" />
          </g>
        </g>
      </g>
      <g
         id="g1738"
         transform="matrix(0.74606112,0,0,0.74606112,10.385062,-11.05909)">
        <g
           style="fill:#000000;fill-opacity:1"
           id="id-3da44566-1bcd-4126-bdba-7afc60708cf3"
           transform="matrix(0.375579,0,0,0.375579,13.162711,-0.9422461)">
          <g
             transform="translate(177.919,134.765)"
             id="g1462">
            <path
               style="stroke:none;stroke-width:0"
               d="M 3.71875,-3.765625 C 3.53125,-4.140625 3.25,-4.40625 2.796875,-4.40625 c -1.15625,0 -2.390625,1.46875 -2.390625,2.921875 0,0.9375 0.546875,1.59375 1.3125,1.59375 0.203125,0 0.703125,-0.046875 1.296875,-0.75 0.078125,0.421875 0.4375,0.75 0.90625,0.75 0.359375,0 0.578125,-0.234375 0.75,-0.546875 0.15625,-0.359375 0.296875,-0.96875 0.296875,-0.984375 0,-0.109375 -0.09375,-0.109375 -0.125,-0.109375 -0.09375,0 -0.109375,0.046875 -0.140625,0.1875 -0.171875,0.640625 -0.34375,1.234375 -0.75,1.234375 -0.28125,0 -0.296875,-0.265625 -0.296875,-0.453125 0,-0.21875 0.015625,-0.3125 0.125,-0.75 C 3.890625,-1.71875 3.90625,-1.828125 4,-2.203125 L 4.359375,-3.59375 c 0.0625,-0.28125 0.0625,-0.296875 0.0625,-0.34375 0,-0.171875 -0.109375,-0.265625 -0.28125,-0.265625 -0.25,0 -0.390625,0.21875 -0.421875,0.4375 z M 3.078125,-1.1875 C 3.015625,-1 3.015625,-0.984375 2.875,-0.8125 2.4375,-0.265625 2.03125,-0.109375 1.75,-0.109375 c -0.5,0 -0.640625,-0.546875 -0.640625,-0.9375 0,-0.5 0.3125,-1.71875 0.546875,-2.1875 0.3125,-0.578125 0.75,-0.953125 1.15625,-0.953125 0.640625,0 0.78125,0.8125 0.78125,0.875 0,0.0625 -0.015625,0.125 -0.03125,0.171875 z m 0,0"
               id="id-0988b6df-3d17-42e1-8bf9-f6f8ac8f0472" />
          </g>
        </g>
        <g
           style="fill:#000000;fill-opacity:1"
           id="id-3ec6424b-22d6-4d8a-b595-8aac62f70d0c"
           transform="matrix(0.375579,0,0,0.375579,13.162711,-0.9422461)">
          <g
             transform="translate(183.185,136.259)"
             id="g1466">
            <path
               style="stroke:none;stroke-width:0"
               d="m 3.6875,-1.140625 v -0.25 H 2.90625 V -4.5 c 0,-0.140625 0,-0.203125 -0.140625,-0.203125 -0.09375,0 -0.125,0 -0.1875,0.109375 l -2.3125,3.203125 v 0.25 h 2.0625 v 0.5625 c 0,0.25 0,0.328125 -0.578125,0.328125 H 1.5625 V 0 C 1.921875,-0.015625 2.359375,-0.03125 2.609375,-0.03125 2.875,-0.03125 3.3125,-0.015625 3.671875,0 v -0.25 h -0.1875 C 2.90625,-0.25 2.90625,-0.328125 2.90625,-0.578125 v -0.5625 z M 2.375,-3.9375 v 2.546875 H 0.53125 Z m 0,0"
               id="id-efce942e-b450-4882-9797-aca7af20ae68" />
          </g>
        </g>
      </g>
      <g
         id="g1746"
         transform="matrix(0.74606112,0,0,0.74606112,34.501491,-25.995223)">
        <g
           style="fill:#000000;fill-opacity:1"
           id="id-2e61138d-68d3-44d0-8959-ae937f03175d"
           transform="matrix(0.375579,0,0,0.375579,13.162711,-0.9422461)">
          <g
             transform="translate(187.654,134.765)"
             id="g1470">
            <path
               style="stroke:none;stroke-width:0"
               d="m 2.375,-6.8125 c 0,0 0,-0.109375 -0.125,-0.109375 -0.21875,0 -0.953125,0.078125 -1.21875,0.109375 -0.078125,0 -0.1875,0.015625 -0.1875,0.1875 0,0.125 0.09375,0.125 0.25,0.125 0.46875,0 0.484375,0.0625 0.484375,0.171875 0,0.0625 -0.078125,0.40625 -0.125,0.609375 l -0.828125,3.25 c -0.109375,0.5 -0.15625,0.671875 -0.15625,1.015625 0,0.9375 0.53125,1.5625 1.265625,1.5625 1.171875,0 2.40625,-1.484375 2.40625,-2.921875 0,-0.90625 -0.53125,-1.59375 -1.328125,-1.59375 -0.453125,0 -0.875,0.296875 -1.171875,0.59375 z M 1.453125,-3.046875 C 1.5,-3.265625 1.5,-3.28125 1.59375,-3.390625 2.078125,-4.03125 2.53125,-4.1875 2.796875,-4.1875 c 0.359375,0 0.625,0.296875 0.625,0.9375 0,0.59375 -0.328125,1.734375 -0.515625,2.109375 -0.328125,0.671875 -0.78125,1.03125 -1.171875,1.03125 -0.34375,0 -0.671875,-0.265625 -0.671875,-1 0,-0.203125 0,-0.390625 0.15625,-1.015625 z m 0,0"
               id="id-809f4614-fb41-4d7c-87a0-4e7b54eaae11" />
          </g>
        </g>
        <g
           style="fill:#000000;fill-opacity:1"
           id="id-eeee5e5d-655b-425f-b82f-7645b1891c50"
           transform="matrix(0.375579,0,0,0.375579,13.162711,-0.9422461)">
          <g
             transform="translate(191.93,136.259)"
             id="g1474">
            <path
               style="stroke:none;stroke-width:0"
               d="m 2.328125,-4.4375 c 0,-0.1875 0,-0.1875 -0.203125,-0.1875 -0.453125,0.4375 -1.078125,0.4375 -1.359375,0.4375 v 0.25 c 0.15625,0 0.625,0 1,-0.1875 v 3.546875 c 0,0.234375 0,0.328125 -0.6875,0.328125 H 0.8125 V 0 c 0.125,0 0.984375,-0.03125 1.234375,-0.03125 0.21875,0 1.09375,0.03125 1.25,0.03125 V -0.25 H 3.03125 c -0.703125,0 -0.703125,-0.09375 -0.703125,-0.328125 z m 0,0"
               id="id-03c2e32f-3509-41c1-994a-ff4b5adfa53d" />
          </g>
        </g>
      </g>
      <g
         id="g1754"
         transform="matrix(0.74606112,0,0,0.74606112,32.020452,-20.995418)">
        <g
           style="fill:#000000;fill-opacity:1"
           id="id-805623b7-f825-40e3-b3e8-9386d29dbaa5"
           transform="matrix(0.375579,0,0,0.375579,13.162711,-0.9422461)">
          <g
             transform="translate(196.399,134.765)"
             id="g1478">
            <path
               style="stroke:none;stroke-width:0"
               d="m 2.375,-6.8125 c 0,0 0,-0.109375 -0.125,-0.109375 -0.21875,0 -0.953125,0.078125 -1.21875,0.109375 -0.078125,0 -0.1875,0.015625 -0.1875,0.1875 0,0.125 0.09375,0.125 0.25,0.125 0.46875,0 0.484375,0.0625 0.484375,0.171875 0,0.0625 -0.078125,0.40625 -0.125,0.609375 l -0.828125,3.25 c -0.109375,0.5 -0.15625,0.671875 -0.15625,1.015625 0,0.9375 0.53125,1.5625 1.265625,1.5625 1.171875,0 2.40625,-1.484375 2.40625,-2.921875 0,-0.90625 -0.53125,-1.59375 -1.328125,-1.59375 -0.453125,0 -0.875,0.296875 -1.171875,0.59375 z M 1.453125,-3.046875 C 1.5,-3.265625 1.5,-3.28125 1.59375,-3.390625 2.078125,-4.03125 2.53125,-4.1875 2.796875,-4.1875 c 0.359375,0 0.625,0.296875 0.625,0.9375 0,0.59375 -0.328125,1.734375 -0.515625,2.109375 -0.328125,0.671875 -0.78125,1.03125 -1.171875,1.03125 -0.34375,0 -0.671875,-0.265625 -0.671875,-1 0,-0.203125 0,-0.390625 0.15625,-1.015625 z m 0,0"
               id="id-b20567e8-808f-4e49-8f8f-25edc8ff423e" />
          </g>
        </g>
        <g
           style="fill:#000000;fill-opacity:1"
           id="id-d78d75a0-74c5-4b0e-8258-cb78b083661f"
           transform="matrix(0.375579,0,0,0.375579,13.162711,-0.9422461)">
          <g
             transform="translate(200.675,136.259)"
             id="g1482">
            <path
               style="stroke:none;stroke-width:0"
               d="M 3.515625,-1.265625 H 3.28125 c -0.015625,0.15625 -0.09375,0.5625 -0.1875,0.625 C 3.046875,-0.59375 2.515625,-0.59375 2.40625,-0.59375 H 1.125 c 0.734375,-0.640625 0.984375,-0.84375 1.390625,-1.171875 0.515625,-0.40625 1,-0.84375 1,-1.5 0,-0.84375 -0.734375,-1.359375 -1.625,-1.359375 -0.859375,0 -1.453125,0.609375 -1.453125,1.25 0,0.34375 0.296875,0.390625 0.375,0.390625 0.15625,0 0.359375,-0.125 0.359375,-0.375 0,-0.125 -0.046875,-0.375 -0.40625,-0.375 C 0.984375,-4.21875 1.453125,-4.375 1.78125,-4.375 c 0.703125,0 1.0625,0.546875 1.0625,1.109375 0,0.609375 -0.4375,1.078125 -0.65625,1.328125 L 0.515625,-0.265625 C 0.4375,-0.203125 0.4375,-0.1875 0.4375,0 h 2.875 z m 0,0"
               id="id-00e7df82-dcc1-4925-be2c-586dacaa35a6" />
          </g>
        </g>
      </g>
      <g
         id="g1762"
         transform="matrix(0.74606112,0,0,0.74606112,29.561305,-15.606373)">
        <g
           style="fill:#000000;fill-opacity:1"
           id="id-da76f74e-bd29-4803-89f9-1f8b8daccac5"
           transform="matrix(0.375579,0,0,0.375579,13.162711,-0.9422461)">
          <g
             transform="translate(205.144,134.765)"
             id="g1486">
            <path
               style="stroke:none;stroke-width:0"
               d="m 2.375,-6.8125 c 0,0 0,-0.109375 -0.125,-0.109375 -0.21875,0 -0.953125,0.078125 -1.21875,0.109375 -0.078125,0 -0.1875,0.015625 -0.1875,0.1875 0,0.125 0.09375,0.125 0.25,0.125 0.46875,0 0.484375,0.0625 0.484375,0.171875 0,0.0625 -0.078125,0.40625 -0.125,0.609375 l -0.828125,3.25 c -0.109375,0.5 -0.15625,0.671875 -0.15625,1.015625 0,0.9375 0.53125,1.5625 1.265625,1.5625 1.171875,0 2.40625,-1.484375 2.40625,-2.921875 0,-0.90625 -0.53125,-1.59375 -1.328125,-1.59375 -0.453125,0 -0.875,0.296875 -1.171875,0.59375 z M 1.453125,-3.046875 C 1.5,-3.265625 1.5,-3.28125 1.59375,-3.390625 2.078125,-4.03125 2.53125,-4.1875 2.796875,-4.1875 c 0.359375,0 0.625,0.296875 0.625,0.9375 0,0.59375 -0.328125,1.734375 -0.515625,2.109375 -0.328125,0.671875 -0.78125,1.03125 -1.171875,1.03125 -0.34375,0 -0.671875,-0.265625 -0.671875,-1 0,-0.203125 0,-0.390625 0.15625,-1.015625 z m 0,0"
               id="id-70a6fe15-b3f0-4f96-8d81-f07654b1ca6e" />
          </g>
        </g>
        <g
           style="fill:#000000;fill-opacity:1"
           id="id-c78198d0-22ec-438f-8a6b-b9f7800b1425"
           transform="matrix(0.375579,0,0,0.375579,13.162711,-0.9422461)">
          <g
             transform="translate(209.42,136.259)"
             id="g1490">
            <path
               style="stroke:none;stroke-width:0"
               d="m 1.90625,-2.328125 c 0.546875,0 0.9375,0.375 0.9375,1.125 0,0.859375 -0.515625,1.125 -0.90625,1.125 -0.28125,0 -0.90625,-0.078125 -1.1875,-0.5 0.328125,0 0.40625,-0.234375 0.40625,-0.390625 0,-0.21875 -0.171875,-0.375 -0.390625,-0.375 -0.1875,0 -0.390625,0.125 -0.390625,0.40625 0,0.65625 0.71875,1.078125 1.5625,1.078125 0.96875,0 1.640625,-0.65625 1.640625,-1.34375 0,-0.546875 -0.4375,-1.09375 -1.203125,-1.25 0.71875,-0.265625 0.984375,-0.78125 0.984375,-1.21875 0,-0.546875 -0.625,-0.953125 -1.40625,-0.953125 -0.765625,0 -1.359375,0.375 -1.359375,0.9375 0,0.234375 0.15625,0.359375 0.359375,0.359375 0.21875,0 0.359375,-0.15625 0.359375,-0.34375 0,-0.203125 -0.140625,-0.359375 -0.359375,-0.375 0.25,-0.296875 0.71875,-0.375 0.984375,-0.375 0.3125,0 0.75,0.15625 0.75,0.75 0,0.296875 -0.09375,0.625 -0.28125,0.828125 -0.21875,0.265625 -0.421875,0.28125 -0.765625,0.3125 -0.171875,0.015625 -0.1875,0.015625 -0.21875,0.015625 -0.015625,0 -0.078125,0.015625 -0.078125,0.09375 0,0.09375 0.0625,0.09375 0.1875,0.09375 z m 0,0"
               id="id-00548504-adbe-46f6-87c6-0db810acda37" />
          </g>
        </g>
      </g>
      <g
         id="g1770"
         transform="matrix(0.74606112,0,0,0.74606112,27.095589,-10.070965)">
        <g
           style="fill:#000000;fill-opacity:1"
           id="id-a297875e-48af-402e-9896-1b7502e75f75"
           transform="matrix(0.375579,0,0,0.375579,13.162711,-0.9422461)">
          <g
             transform="translate(213.889,134.765)"
             id="g1494">
            <path
               style="stroke:none;stroke-width:0"
               d="m 2.375,-6.8125 c 0,0 0,-0.109375 -0.125,-0.109375 -0.21875,0 -0.953125,0.078125 -1.21875,0.109375 -0.078125,0 -0.1875,0.015625 -0.1875,0.1875 0,0.125 0.09375,0.125 0.25,0.125 0.46875,0 0.484375,0.0625 0.484375,0.171875 0,0.0625 -0.078125,0.40625 -0.125,0.609375 l -0.828125,3.25 c -0.109375,0.5 -0.15625,0.671875 -0.15625,1.015625 0,0.9375 0.53125,1.5625 1.265625,1.5625 1.171875,0 2.40625,-1.484375 2.40625,-2.921875 0,-0.90625 -0.53125,-1.59375 -1.328125,-1.59375 -0.453125,0 -0.875,0.296875 -1.171875,0.59375 z M 1.453125,-3.046875 C 1.5,-3.265625 1.5,-3.28125 1.59375,-3.390625 2.078125,-4.03125 2.53125,-4.1875 2.796875,-4.1875 c 0.359375,0 0.625,0.296875 0.625,0.9375 0,0.59375 -0.328125,1.734375 -0.515625,2.109375 -0.328125,0.671875 -0.78125,1.03125 -1.171875,1.03125 -0.34375,0 -0.671875,-0.265625 -0.671875,-1 0,-0.203125 0,-0.390625 0.15625,-1.015625 z m 0,0"
               id="id-36d581e2-b19b-4e80-8df7-96d857850d55" />
          </g>
        </g>
        <g
           style="fill:#000000;fill-opacity:1"
           id="id-ea5762d9-8e15-4dfb-bc27-e064380528aa"
           transform="matrix(0.375579,0,0,0.375579,13.162711,-0.9422461)">
          <g
             transform="translate(218.165,136.259)"
             id="g1498">
            <path
               style="stroke:none;stroke-width:0"
               d="m 3.6875,-1.140625 v -0.25 H 2.90625 V -4.5 c 0,-0.140625 0,-0.203125 -0.140625,-0.203125 -0.09375,0 -0.125,0 -0.1875,0.109375 l -2.3125,3.203125 v 0.25 h 2.0625 v 0.5625 c 0,0.25 0,0.328125 -0.578125,0.328125 H 1.5625 V 0 C 1.921875,-0.015625 2.359375,-0.03125 2.609375,-0.03125 2.875,-0.03125 3.3125,-0.015625 3.671875,0 v -0.25 h -0.1875 C 2.90625,-0.25 2.90625,-0.328125 2.90625,-0.578125 v -0.5625 z M 2.375,-3.9375 v 2.546875 H 0.53125 Z m 0,0"
               id="id-636bb830-29d9-4b8b-b25b-90dd73d039e5" />
          </g>
        </g>
      </g>
    </g>
  </g>
</svg>
