<?xml version="1.0" encoding="UTF-8" standalone="no"?>
<!-- Created with Inkscape (http://www.inkscape.org/) -->

<svg
   width="161.11858mm"
   height="47.397316mm"
   viewBox="0 0 161.11858 47.397316"
   version="1.1"
   id="svg5"
   sodipodi:docname="perfect_binary_trees.svg"
   inkscape:version="1.1 (c4e8f9e, 2021-05-24)"
   xmlns:inkscape="http://www.inkscape.org/namespaces/inkscape"
   xmlns:sodipodi="http://sodipodi.sourceforge.net/DTD/sodipodi-0.dtd"
   xmlns="http://www.w3.org/2000/svg"
   xmlns:svg="http://www.w3.org/2000/svg">
  <sodipodi:namedview
     id="namedview843"
     pagecolor="#ffffff"
     bordercolor="#666666"
     borderopacity="1.0"
     inkscape:pageshadow="2"
     inkscape:pageopacity="0.0"
     inkscape:pagecheckerboard="0"
     inkscape:document-units="mm"
     showgrid="false"
     inkscape:zoom="0.83436549"
     inkscape:cx="447.64555"
     inkscape:cy="40.150271"
     inkscape:window-width="1440"
     inkscape:window-height="847"
     inkscape:window-x="0"
     inkscape:window-y="25"
     inkscape:window-maximized="1"
     inkscape:current-layer="svg5">
    <inkscape:grid
       type="xygrid"
       id="grid931"
       originx="5.1530432"
       originy="-0.11900941" />
  </sodipodi:namedview>
  <defs
     id="defs2">
    <marker
       style="overflow:visible"
       id="DotL"
       refX="0"
       refY="0"
       orient="auto">
      <path
         transform="matrix(0.8,0,0,0.8,5.92,0.8)"
         style="fill:context-stroke;fill-rule:evenodd;stroke:context-stroke;stroke-width:1pt"
         d="m -2.5,-1 c 0,2.76 -2.24,5 -5,5 -2.76,0 -5,-2.24 -5,-5 0,-2.76 2.24,-5 5,-5 2.76,0 5,2.24 5,5 z"
         id="path1426" />
    </marker>
  </defs>
  <g
     id="path859"
     transform="translate(5.153043,-0.11900941)">
    <path
       style="color:#000000;fill:#009100;-inkscape-stroke:none"
       d="M 6.6152344,6.4277344 1.2285156,11.8125 1.4160156,12 6.6152344,6.8027344 11.8125,12 12,11.8125 Z"
       id="path1497" />
    <g
       id="g1465">
      <g
         id="path1487">
        <path
           style="color:#000000;fill:#009100;fill-rule:evenodd;stroke-width:0.211666pt;-inkscape-stroke:none"
           d="m 12.639637,12.63964 c -0.413091,0.413091 -1.083616,0.413091 -1.496707,-10e-7 -0.413091,-0.413091 -0.413091,-1.083616 0,-1.496707 0.413092,-0.413091 1.083617,-0.413091 1.496708,0 0.413091,0.413092 0.413091,1.083617 -10e-7,1.496708 z"
           id="path1491" />
        <path
           style="color:#000000;fill:#009100;fill-rule:evenodd;-inkscape-stroke:none"
           d="m 11.890625,10.693359 c -0.307297,0 -0.614117,0.116071 -0.847656,0.34961 -0.467078,0.467078 -0.467078,1.230187 0,1.697265 0.467078,0.467079 1.230187,0.467078 1.697265,0 0.467079,-0.467078 0.467078,-1.230186 0,-1.697265 -0.233539,-0.233539 -0.542312,-0.34961 -0.849609,-0.34961 z m 0,0.279297 c 0.234511,0 0.468886,0.08998 0.648438,0.269532 0.359103,0.359104 0.359104,0.937771 0,1.296875 -0.359104,0.359103 -0.937772,0.359104 -1.296875,0 -0.359104,-0.359104 -0.359104,-0.937772 0,-1.296875 0.179552,-0.179552 0.413926,-0.269532 0.648437,-0.269532 z"
           id="path1493" />
      </g>
      <g
         id="path1477">
        <path
           style="color:#000000;fill:#009100;fill-rule:evenodd;stroke-width:0.211666pt;-inkscape-stroke:none"
           d="m 7.6517486,6.6145833 c 0,0.5841992 -0.4741327,1.058332 -1.0583319,1.058332 -0.5841993,0 -1.058332,-0.4741328 -1.058332,-1.058332 0,-0.5841992 0.4741327,-1.058332 1.058332,-1.058332 0.5841992,0 1.0583319,0.4741328 1.0583319,1.058332 z"
           id="path1481" />
        <path
           style="color:#000000;fill:#009100;fill-rule:evenodd;-inkscape-stroke:none"
           d="m 6.59375,5.4160156 c -0.6605484,0 -1.1992188,0.5386705 -1.1992188,1.1992188 0,0.6605483 0.5386704,1.1992187 1.1992188,1.1992187 0.6605483,0 1.1992187,-0.5386704 1.1992187,-1.1992187 C 7.7929688,5.9546861 7.2542983,5.4160156 6.59375,5.4160156 Z m 0,0.28125 c 0.5078489,0 0.9160156,0.4101198 0.9160156,0.9179688 0,0.5078489 -0.4081667,0.9160156 -0.9160156,0.9160156 -0.5078491,0 -0.9179688,-0.4081667 -0.9179688,-0.9160156 0,-0.507849 0.4101197,-0.9179688 0.9179688,-0.9179688 z"
           id="path1483" />
      </g>
      <g
         id="path1467">
        <path
           style="color:#000000;fill:#009100;fill-rule:evenodd;stroke-width:0.211666pt;-inkscape-stroke:none"
           d="m 2.0563037,11.172866 c 0.4130914,0.413091 0.4130916,1.083616 5e-7,1.496708 -0.4130911,0.413091 -1.08361603,0.413091 -1.49670742,0 -0.41309139,-0.413091 -0.41309162,-1.083616 -5.2e-7,-1.496707 0.4130911,-0.413092 1.08361604,-0.413092 1.49670744,-10e-7 z"
           id="path1471" />
        <path
           style="color:#000000;fill:#009100;fill-rule:evenodd;-inkscape-stroke:none"
           d="m 1.3085937,10.722656 c -0.307297,0 -0.61607032,0.11607 -0.84960932,0.34961 -0.46707812,0.467078 -0.46707839,1.230187 0,1.697265 0.46707834,0.467078 1.23018752,0.467078 1.69726562,0 0.4670779,-0.467079 0.4670784,-1.230187 0,-1.697265 -0.2335392,-0.233539 -0.5403592,-0.34961 -0.8476563,-0.34961 z m 0,0.28125 c 0.2345105,0 0.4688857,0.08998 0.6484375,0.269532 0.3591036,0.359103 0.3591035,0.93777 0,1.296875 -0.3591032,0.359103 -0.9377713,0.359103 -1.29687495,0 -0.35910357,-0.359104 -0.35910326,-0.937772 0,-1.296875 0.17955168,-0.179553 0.41392705,-0.269532 0.64843745,-0.269532 z"
           id="path1473" />
      </g>
    </g>
  </g>
  <g
     id="g1654"
     transform="translate(-38.5032,-107.27526)"
     style="stroke:#009100">
    <g
       id="path861">
      <path
         style="color:#000000;fill:#009100;stroke:none;-inkscape-stroke:none"
         d="m 89.958984,110.97656 -10.642578,5.32227 0.117188,0.23633 10.52539,-5.26172 10.523436,5.26172 0.11914,-0.23633 z"
         id="path1535" />
      <g
         id="g1503">
        <g
           id="path1525">
          <path
             style="color:#000000;fill:#009100;fill-rule:evenodd;stroke:none;stroke-width:0.211666pt;-inkscape-stroke:none"
             d="m 101.46932,116.8805 c -0.26126,0.52253 -0.89738,0.73457 -1.4199,0.4733 -0.522527,-0.26126 -0.734565,-0.89737 -0.473303,-1.4199 0.261263,-0.52252 0.897383,-0.73456 1.419903,-0.4733 0.52252,0.26127 0.73456,0.89738 0.4733,1.4199 z"
             id="path1529" />
          <path
             style="color:#000000;fill:#009100;fill-rule:evenodd;stroke:none;-inkscape-stroke:none"
             d="m 100.14453,115.26953 c -0.291527,0.0972 -0.547607,0.30616 -0.695311,0.60156 -0.295406,0.59082 -0.05371,1.31398 0.537109,1.60938 0.590812,0.29541 1.313972,0.0537 1.609372,-0.53711 0.29541,-0.59081 0.0537,-1.31396 -0.53711,-1.60938 -0.2954,-0.1477 -0.62253,-0.16162 -0.91406,-0.0644 z m 0.0879,0.26758 c 0.22248,-0.0742 0.47406,-0.0647 0.70117,0.0488 0.45424,0.22712 0.63727,0.77819 0.41016,1.23242 -0.22712,0.45424 -0.77624,0.63728 -1.23047,0.41016 -0.454236,-0.22712 -0.637273,-0.77818 -0.410155,-1.23243 0.113559,-0.22711 0.306815,-0.38482 0.529295,-0.45898 z"
             id="path1531" />
        </g>
        <g
           id="path1515">
          <path
             style="color:#000000;fill:#009100;fill-rule:evenodd;stroke:none;stroke-width:0.211666pt;-inkscape-stroke:none"
             d="m 90.995491,111.125 c 0,0.5842 -0.474132,1.05833 -1.058332,1.05833 -0.584199,0 -1.058332,-0.47413 -1.058332,-1.05833 0,-0.5842 0.474133,-1.05833 1.058332,-1.05833 0.5842,0 1.058332,0.47413 1.058332,1.05833 z"
             id="path1519" />
          <path
             style="color:#000000;fill:#009100;fill-rule:evenodd;stroke:none;-inkscape-stroke:none"
             d="m 89.9375,109.92578 c -0.660548,0 -1.199219,0.53867 -1.199219,1.19922 0,0.66055 0.538671,1.19922 1.199219,1.19922 0.660549,0 1.199219,-0.53867 1.199219,-1.19922 0,-0.66055 -0.53867,-1.19922 -1.199219,-1.19922 z m 0,0.28125 c 0.50785,0 0.916016,0.41012 0.916016,0.91797 0,0.50785 -0.408166,0.91797 -0.916016,0.91797 -0.507849,0 -0.917969,-0.41012 -0.917969,-0.91797 0,-0.50785 0.41012,-0.91797 0.917969,-0.91797 z"
             id="path1521" />
        </g>
        <g
           id="path1505">
          <path
             style="color:#000000;fill:#009100;fill-rule:evenodd;stroke:none;stroke-width:0.211666pt;-inkscape-stroke:none"
             d="m 80.302671,115.95284 c 0.261262,0.52252 0.04922,1.15863 -0.4733,1.4199 -0.522524,0.26126 -1.158639,0.0492 -1.419902,-0.4733 -0.261262,-0.52253 -0.04922,-1.15864 0.4733,-1.4199 0.522524,-0.26127 1.158639,-0.0492 1.419902,0.4733 z"
             id="path1509" />
          <path
             style="color:#000000;fill:#009100;fill-rule:evenodd;stroke:none;-inkscape-stroke:none"
             d="m 79.734375,115.28906 c -0.291527,-0.0972 -0.618654,-0.0833 -0.914063,0.0645 -0.590808,0.2954 -0.832514,1.01855 -0.537109,1.60937 0.295409,0.59079 1.01856,0.83056 1.609375,0.53516 0.590806,-0.29542 0.832516,-1.01662 0.537109,-1.60742 -0.147704,-0.2954 -0.403785,-0.50439 -0.695312,-0.60157 z m -0.08789,0.26563 c 0.222477,0.0742 0.415739,0.23383 0.529297,0.46094 0.227117,0.45422 0.04408,1.00334 -0.410156,1.23046 -0.454232,0.22712 -1.003352,0.0441 -1.230469,-0.41015 -0.227118,-0.45424 -0.04407,-1.00336 0.410156,-1.23047 0.227116,-0.11356 0.478696,-0.12495 0.701172,-0.0508 z"
             id="path1511" />
        </g>
      </g>
    </g>
    <g
       id="path943">
      <path
         style="color:#000000;fill:#009100;stroke:none;-inkscape-stroke:none"
         d="m 79.375,116.23047 -5.384766,5.38476 0.1875,0.1875 5.197266,-5.19921 5.197266,5.19921 0.1875,-0.1875 z"
         id="path1573" />
      <g
         id="g1541">
        <g
           id="path1563">
          <path
             style="color:#000000;fill:#009100;fill-rule:evenodd;stroke:none;stroke-width:0.211666pt;-inkscape-stroke:none"
             d="m 85.400045,122.44173 c -0.413092,0.41309 -1.083617,0.41309 -1.496708,0 -0.41309,-0.4131 -0.41309,-1.08362 2e-6,-1.49671 0.413092,-0.41309 1.083617,-0.41309 1.496708,0 0.41309,0.41309 0.413089,1.08362 -2e-6,1.49671 z"
             id="path1567" />
          <path
             style="color:#000000;fill:#009100;fill-rule:evenodd;stroke:none;-inkscape-stroke:none"
             d="m 84.652344,120.49414 c -0.307297,0 -0.61607,0.11802 -0.84961,0.35156 -0.467078,0.46708 -0.467074,1.22823 0,1.69532 0.467078,0.46707 1.230187,0.46707 1.697266,0 0.467079,-0.46708 0.467078,-1.22824 0,-1.69532 -0.233539,-0.23354 -0.540359,-0.35156 -0.847656,-0.35156 z m 0,0.28125 c 0.23451,0 0.468886,0.09 0.648437,0.26953 0.359102,0.3591 0.359103,0.93778 0,1.29688 -0.359104,0.3591 -0.937772,0.3591 -1.296875,0 -0.359104,-0.35912 -0.359104,-0.93778 0,-1.29688 0.179552,-0.17955 0.413927,-0.26953 0.648438,-0.26953 z"
             id="path1569" />
        </g>
        <g
           id="path1553">
          <path
             style="color:#000000;fill:#009100;fill-rule:evenodd;stroke:none;stroke-width:0.211666pt;-inkscape-stroke:none"
             d="m 80.412167,116.41667 c 0,0.5842 -0.474132,1.05833 -1.058332,1.05833 -0.584199,0 -1.058332,-0.47413 -1.058332,-1.05833 0,-0.5842 0.474133,-1.05833 1.058332,-1.05833 0.5842,0 1.058332,0.47413 1.058332,1.05833 z"
             id="path1557" />
          <path
             style="color:#000000;fill:#009100;fill-rule:evenodd;stroke:none;-inkscape-stroke:none"
             d="m 79.353516,115.2168 c -0.660548,0 -1.199219,0.53867 -1.199219,1.19922 0,0.66054 0.538671,1.19921 1.199219,1.19921 0.660548,0 1.199218,-0.53867 1.199218,-1.19921 0,-0.66055 -0.53867,-1.19922 -1.199218,-1.19922 z m 0,0.2832 c 0.50785,0 0.917968,0.40817 0.917968,0.91602 0,0.50785 -0.410118,0.91796 -0.917968,0.91796 -0.50785,0 -0.916016,-0.41011 -0.916016,-0.91796 0,-0.50785 0.408166,-0.91602 0.916016,-0.91602 z"
             id="path1559" />
        </g>
        <g
           id="path1543">
          <path
             style="color:#000000;fill:#009100;fill-rule:evenodd;stroke:none;stroke-width:0.211666pt;-inkscape-stroke:none"
             d="m 74.81672,120.97495 c 0.413091,0.41309 0.413091,1.08362 0,1.49671 -0.413092,0.41309 -1.083616,0.41309 -1.496708,0 -0.413091,-0.41309 -0.413091,-1.08362 0,-1.49671 0.413091,-0.41309 1.083616,-0.41309 1.496708,0 z"
             id="path1547" />
          <path
             style="color:#000000;fill:#009100;fill-rule:evenodd;stroke:none;-inkscape-stroke:none"
             d="m 74.068359,120.52539 c -0.307297,0 -0.614117,0.11607 -0.847656,0.34961 -0.467078,0.46708 -0.467078,1.23019 0,1.69727 0.467079,0.46707 1.228234,0.46707 1.695313,0 0.467078,-0.46708 0.467078,-1.23019 0,-1.69727 -0.23354,-0.23354 -0.54036,-0.34961 -0.847657,-0.34961 z m 0,0.2793 c 0.234511,0 0.468886,0.09 0.648438,0.26953 0.359102,0.3591 0.359102,0.93777 0,1.29687 -0.359104,0.35911 -0.937771,0.35911 -1.296875,0 -0.359103,-0.3591 -0.359103,-0.93777 0,-1.29687 0.179551,-0.17955 0.413927,-0.26953 0.648437,-0.26953 z"
             id="path1549" />
        </g>
      </g>
    </g>
    <g
       id="path945">
      <path
         style="color:#000000;fill:#009100;stroke:none;-inkscape-stroke:none"
         d="m 100.54102,116.23047 -5.38477,5.38476 0.1875,0.1875 5.19727,-5.19921 5.19921,5.19921 0.1875,-0.1875 z"
         id="path1611" />
      <g
         id="g1579">
        <g
           id="path1601">
          <path
             style="color:#000000;fill:#009100;fill-rule:evenodd;stroke:none;stroke-width:0.211666pt;-inkscape-stroke:none"
             d="m 106.56671,122.44172 c -0.4131,0.41309 -1.08362,0.41309 -1.49671,0 -0.41309,-0.4131 -0.41309,-1.08362 0,-1.49671 0.41309,-0.41309 1.08362,-0.41309 1.49671,0 0.41309,0.41309 0.41309,1.08362 0,1.49671 z"
             id="path1605" />
          <path
             style="color:#000000;fill:#009100;fill-rule:evenodd;stroke:none;-inkscape-stroke:none"
             d="m 105.81836,120.49414 c -0.3073,0 -0.61412,0.11802 -0.84766,0.35156 -0.46707,0.46708 -0.46707,1.22823 0,1.69532 0.46708,0.46707 1.22823,0.46707 1.69532,0 0.46707,-0.46708 0.46707,-1.22824 0,-1.69532 -0.23354,-0.23354 -0.54036,-0.35156 -0.84766,-0.35156 z m 0,0.28125 c 0.23451,0 0.46889,0.09 0.64844,0.26953 0.3591,0.3591 0.3591,0.93778 0,1.29688 -0.35912,0.3591 -0.93778,0.3591 -1.29688,0 -0.3591,-0.35912 -0.3591,-0.93778 0,-1.29688 0.17955,-0.17955 0.41393,-0.26953 0.64844,-0.26953 z"
             id="path1607" />
        </g>
        <g
           id="path1591">
          <path
             style="color:#000000;fill:#009100;fill-rule:evenodd;stroke:none;stroke-width:0.211666pt;-inkscape-stroke:none"
             d="m 101.57883,116.41666 c 0,0.5842 -0.47414,1.05833 -1.05834,1.05833 -0.584196,0 -1.058329,-0.47413 -1.058329,-1.05833 0,-0.5842 0.474133,-1.05833 1.058329,-1.05833 0.5842,0 1.05834,0.47413 1.05834,1.05833 z"
             id="path1595" />
          <path
             style="color:#000000;fill:#009100;fill-rule:evenodd;stroke:none;-inkscape-stroke:none"
             d="m 100.51953,115.2168 c -0.660544,0 -1.199218,0.53867 -1.199218,1.19922 0,0.66054 0.538674,1.19921 1.199218,1.19921 0.66055,0 1.20117,-0.53866 1.20117,-1.19921 0,-0.66055 -0.54062,-1.19922 -1.20117,-1.19922 z m 0,0.2832 c 0.50785,0 0.91797,0.40817 0.91797,0.91602 0,0.50784 -0.41012,0.91796 -0.91797,0.91796 -0.50784,0 -0.916014,-0.41011 -0.916014,-0.91796 0,-0.50785 0.408174,-0.91602 0.916014,-0.91602 z"
             id="path1597" />
        </g>
        <g
           id="path1581">
          <path
             style="color:#000000;fill:#009100;fill-rule:evenodd;stroke:none;stroke-width:0.211666pt;-inkscape-stroke:none"
             d="m 95.983379,120.97494 c 0.413092,0.41309 0.413092,1.08362 10e-7,1.49671 -0.413091,0.41309 -1.083616,0.41309 -1.496708,0 -0.413091,-0.41309 -0.413091,-1.08362 0,-1.49671 0.413091,-0.41309 1.083616,-0.41309 1.496707,0 z"
             id="path1585" />
          <path
             style="color:#000000;fill:#009100;fill-rule:evenodd;stroke:none;-inkscape-stroke:none"
             d="m 95.234375,120.52539 c -0.307297,0 -0.614117,0.11607 -0.847656,0.34961 -0.467079,0.46708 -0.467079,1.23019 0,1.69727 0.467079,0.46707 1.230187,0.46707 1.697265,0 0.467079,-0.46708 0.46708,-1.23019 0,-1.69727 -0.233539,-0.23354 -0.542312,-0.34961 -0.849609,-0.34961 z m 0,0.2793 c 0.234511,0 0.468886,0.09 0.648437,0.26953 0.359104,0.3591 0.359103,0.93777 0,1.29687 -0.359103,0.35911 -0.93777,0.35911 -1.296875,0 -0.359102,-0.3591 -0.359102,-0.93777 0,-1.29687 0.179552,-0.17955 0.413927,-0.26953 0.648438,-0.26953 z"
             id="path1587" />
        </g>
      </g>
    </g>
  </g>
  <g
     id="g1664"
     transform="translate(-41.149044,-109.92109)"
     style="stroke:#009100">
    <g
       id="path980">
      <path
         style="color:#000000;fill:#009100;stroke:none;-inkscape-stroke:none"
         d="m 164.00977,110.99609 -21.16602,5.29297 0.0625,0.25586 21.16797,-5.29101 z"
         id="path1639" />
      <g
         id="g1617">
        <g
           id="path1629">
          <path
             style="color:#000000;fill:#009100;fill-rule:evenodd;stroke:none;stroke-width:0.211666pt;-inkscape-stroke:none"
             d="m 141.8688,116.66822 c -0.14169,-0.56676 0.20329,-1.14173 0.77005,-1.28342 0.56676,-0.14169 1.14173,0.2033 1.28342,0.77005 0.14169,0.56676 -0.2033,1.14173 -0.77005,1.28342 -0.56676,0.14169 -1.14173,-0.20329 -1.28342,-0.77005 z"
             id="path1633" />
          <path
             style="color:#000000;fill:#009100;fill-rule:evenodd;stroke:none;-inkscape-stroke:none"
             d="m 142.60547,115.24805 c -0.64083,0.1602 -1.03326,0.81425 -0.87305,1.45508 0.16021,0.64082 0.8123,1.0313 1.45313,0.87109 0.64082,-0.16021 1.03325,-0.8123 0.87304,-1.45313 -0.1602,-0.64082 -0.81229,-1.03325 -1.45312,-0.87304 z m 0.0684,0.27343 c 0.49269,-0.12317 0.98815,0.17529 1.11133,0.66797 0.12317,0.49269 -0.17529,0.98816 -0.66797,1.11133 -0.49269,0.12317 -0.98816,-0.17332 -1.11133,-0.66601 -0.12317,-0.49269 0.17528,-0.99011 0.66797,-1.11329 z"
             id="path1635" />
        </g>
        <g
           id="path1619">
          <path
             style="color:#000000;fill:#009100;fill-rule:evenodd;stroke:none;stroke-width:0.211666pt;-inkscape-stroke:none"
             d="m 163.03547,111.37655 c -0.14169,-0.56676 0.20329,-1.14173 0.77005,-1.28342 0.56676,-0.14169 1.14173,0.2033 1.28342,0.77005 0.14169,0.56676 -0.2033,1.14173 -0.77005,1.28342 -0.56676,0.14169 -1.14173,-0.20329 -1.28342,-0.77005 z"
             id="path1623" />
          <path
             style="color:#000000;fill:#009100;fill-rule:evenodd;stroke:none;-inkscape-stroke:none"
             d="m 163.77148,109.95703 c -0.64082,0.16021 -1.03325,0.8123 -0.87304,1.45313 0.1602,0.64083 0.81425,1.03325 1.45508,0.87304 0.64082,-0.1602 1.03325,-0.81424 0.87304,-1.45507 -0.16021,-0.64082 -0.81425,-1.03131 -1.45508,-0.8711 z m 0.0684,0.27344 c 0.49269,-0.12317 0.98816,0.17334 1.11133,0.66601 0.12317,0.49269 -0.17333,0.99011 -0.66601,1.11329 -0.49269,0.12317 -0.99011,-0.17528 -1.11329,-0.66797 -0.12317,-0.49269 0.17528,-0.98816 0.66797,-1.11133 z"
             id="path1625" />
        </g>
      </g>
    </g>
    <g
       id="path982">
      <path
         style="color:#000000;fill:#009100;stroke:none;-inkscape-stroke:none"
         d="m 164.07422,110.99609 -0.0644,0.25782 21.16601,5.29101 0.0644,-0.25586 z"
         id="path1667" />
      <g
         id="g1645">
        <g
           id="path1657">
          <path
             style="color:#000000;fill:#009100;fill-rule:evenodd;stroke:none;stroke-width:0.211666pt;-inkscape-stroke:none"
             d="m 186.21453,116.66822 c -0.14169,0.56676 -0.71666,0.91174 -1.28342,0.77005 -0.56675,-0.14169 -0.91174,-0.71666 -0.77005,-1.28342 0.14169,-0.56675 0.71666,-0.91174 1.28342,-0.77005 0.56676,0.14169 0.91174,0.71666 0.77005,1.28342 z"
             id="path1661" />
          <path
             style="color:#000000;fill:#009100;fill-rule:evenodd;stroke:none;-inkscape-stroke:none"
             d="m 185.47852,115.24805 c -0.64083,-0.16021 -1.29487,0.23222 -1.45508,0.87304 -0.16021,0.64083 0.23222,1.29292 0.87304,1.45313 0.64083,0.16021 1.29488,-0.23027 1.45508,-0.87109 0.16021,-0.64083 -0.23222,-1.29488 -0.87304,-1.45508 z m -0.0684,0.27343 c 0.49269,0.12318 0.79114,0.6206 0.66796,1.11329 -0.12317,0.49269 -0.62059,0.78918 -1.11328,0.66601 -0.49268,-0.12317 -0.78918,-0.61864 -0.66601,-1.11133 0.12317,-0.49268 0.61864,-0.79114 1.11133,-0.66797 z"
             id="path1663" />
        </g>
        <g
           id="path1647">
          <path
             style="color:#000000;fill:#009100;fill-rule:evenodd;stroke:none;stroke-width:0.211666pt;-inkscape-stroke:none"
             d="m 165.04787,111.37655 c -0.14169,0.56676 -0.71666,0.91174 -1.28342,0.77005 -0.56675,-0.14169 -0.91174,-0.71666 -0.77005,-1.28342 0.14169,-0.56675 0.71666,-0.91174 1.28342,-0.77005 0.56676,0.14169 0.91174,0.71666 0.77005,1.28342 z"
             id="path1651" />
          <path
             style="color:#000000;fill:#009100;fill-rule:evenodd;stroke:none;-inkscape-stroke:none"
             d="m 164.3125,109.95703 c -0.64083,-0.16021 -1.29487,0.23028 -1.45508,0.8711 -0.16021,0.64083 0.23223,1.29487 0.87305,1.45507 0.64083,0.16021 1.29487,-0.23221 1.45508,-0.87304 0.1602,-0.64083 -0.23222,-1.29292 -0.87305,-1.45313 z m -0.0684,0.27344 c 0.49269,0.12317 0.78919,0.61864 0.66602,1.11133 -0.12318,0.49269 -0.61864,0.79114 -1.11133,0.66797 -0.49268,-0.12318 -0.79114,-0.6206 -0.66797,-1.11329 0.12317,-0.49267 0.62059,-0.78918 1.11328,-0.66601 z"
             id="path1653" />
        </g>
      </g>
    </g>
    <g
       id="path1064">
      <path
         style="color:#000000;fill:#009100;stroke:none;-inkscape-stroke:none"
         d="m 142.875,116.26953 -10.64258,5.32031 0.11914,0.23633 10.52344,-5.26172 10.52344,5.26172 0.11914,-0.23633 z"
         id="path1705" />
      <g
         id="g1673">
        <g
           id="path1695">
          <path
             style="color:#000000;fill:#009100;fill-rule:evenodd;stroke:none;stroke-width:0.211666pt;-inkscape-stroke:none"
             d="m 154.386,122.17217 c -0.26126,0.52253 -0.89738,0.73457 -1.4199,0.4733 -0.52253,-0.26126 -0.73456,-0.89737 -0.4733,-1.4199 0.26126,-0.52252 0.89738,-0.73456 1.4199,-0.4733 0.52252,0.26127 0.73456,0.89738 0.4733,1.4199 z"
             id="path1699" />
          <path
             style="color:#000000;fill:#009100;fill-rule:evenodd;stroke:none;-inkscape-stroke:none"
             d="m 153.06055,120.5625 c -0.29153,0.0972 -0.54566,0.3042 -0.69336,0.59961 -0.29541,0.59082 -0.0557,1.31397 0.53515,1.60937 0.59081,0.29542 1.31397,0.0537 1.60938,-0.5371 0.2954,-0.59081 0.0557,-1.31201 -0.53516,-1.60743 -0.2954,-0.1477 -0.62449,-0.16163 -0.91601,-0.0644 z m 0.0879,0.26563 c 0.22247,-0.0742 0.47405,-0.0628 0.70117,0.0508 0.45423,0.22712 0.63727,0.77624 0.41016,1.23047 -0.22712,0.45423 -0.77624,0.63727 -1.23047,0.41015 -0.45424,-0.22711 -0.63728,-0.77622 -0.41016,-1.23047 0.11356,-0.22711 0.30682,-0.38678 0.5293,-0.46093 z"
             id="path1701" />
        </g>
        <g
           id="path1685">
          <path
             style="color:#000000;fill:#009100;fill-rule:evenodd;stroke:none;stroke-width:0.211666pt;-inkscape-stroke:none"
             d="m 143.91217,116.41667 c 0,0.5842 -0.47414,1.05833 -1.05834,1.05833 -0.5842,0 -1.05833,-0.47413 -1.05833,-1.05833 0,-0.5842 0.47413,-1.05833 1.05833,-1.05833 0.5842,0 1.05834,0.47413 1.05834,1.05833 z"
             id="path1689" />
          <path
             style="color:#000000;fill:#009100;fill-rule:evenodd;stroke:none;-inkscape-stroke:none"
             d="m 142.85352,115.2168 c -0.66055,0 -1.19922,0.53867 -1.19922,1.19922 0,0.66054 0.53867,1.19921 1.19922,1.19921 0.66054,0 1.19921,-0.53866 1.19921,-1.19921 0,-0.66055 -0.53867,-1.19922 -1.19921,-1.19922 z m 0,0.2832 c 0.50785,0 0.91796,0.40817 0.91796,0.91602 0,0.50784 -0.41011,0.91796 -0.91796,0.91796 -0.50785,0 -0.91602,-0.41011 -0.91602,-0.91796 0,-0.50785 0.40817,-0.91602 0.91602,-0.91602 z"
             id="path1691" />
        </g>
        <g
           id="path1675">
          <path
             style="color:#000000;fill:#009100;fill-rule:evenodd;stroke:none;stroke-width:0.211666pt;-inkscape-stroke:none"
             d="m 133.21934,121.24451 c 0.26126,0.52252 0.0492,1.15863 -0.4733,1.4199 -0.52252,0.26126 -1.15864,0.0492 -1.4199,-0.4733 -0.26126,-0.52253 -0.0492,-1.15864 0.4733,-1.4199 0.52252,-0.26127 1.15864,-0.0492 1.4199,0.4733 z"
             id="path1679" />
          <path
             style="color:#000000;fill:#009100;fill-rule:evenodd;stroke:none;-inkscape-stroke:none"
             d="m 132.65234,120.58008 c -0.29152,-0.0972 -0.62061,-0.0833 -0.91601,0.0645 -0.59079,0.29541 -0.83252,1.01856 -0.53711,1.60938 0.2954,0.59079 1.01856,0.83251 1.60937,0.53711 0.59079,-0.29542 0.83252,-1.01857 0.53711,-1.60938 -0.1477,-0.29539 -0.40183,-0.50438 -0.69336,-0.60156 z m -0.0898,0.26758 c 0.22248,0.0742 0.41769,0.23188 0.53125,0.45898 0.22711,0.45423 0.0441,1.0053 -0.41016,1.23242 -0.45422,0.22712 -1.00335,0.0441 -1.23047,-0.41015 -0.22711,-0.45424 -0.044,-1.00531 0.41016,-1.23243 0.22711,-0.11356 0.47674,-0.12299 0.69922,-0.0488 z"
             id="path1681" />
        </g>
      </g>
    </g>
    <g
       id="path1066">
      <path
         style="color:#000000;fill:#009100;stroke:none;-inkscape-stroke:none"
         d="m 132.29102,121.52148 -5.38477,5.38477 0.1875,0.1875 5.19727,-5.19727 5.19921,5.19727 0.1875,-0.1875 z"
         id="path1743" />
      <g
         id="g1711">
        <g
           id="path1733">
          <path
             style="color:#000000;fill:#009100;fill-rule:evenodd;stroke:none;stroke-width:0.211666pt;-inkscape-stroke:none"
             d="m 138.31672,127.7334 c -0.4131,0.41309 -1.08362,0.41309 -1.49671,0 -0.41309,-0.4131 -0.41309,-1.08362 0,-1.49671 0.41309,-0.41309 1.08362,-0.41309 1.49671,0 0.41309,0.41309 0.41309,1.08362 0,1.49671 z"
             id="path1737" />
          <path
             style="color:#000000;fill:#009100;fill-rule:evenodd;stroke:none;-inkscape-stroke:none"
             d="m 137.56836,125.78711 c -0.3073,0 -0.61412,0.11607 -0.84766,0.34961 -0.46707,0.46708 -0.46707,1.23018 0,1.69726 0.46708,0.46708 1.22823,0.46708 1.69532,0 0.46707,-0.46707 0.46707,-1.23018 0,-1.69726 -0.23354,-0.23354 -0.54036,-0.34961 -0.84766,-0.34961 z m 0,0.2793 c 0.23451,0 0.46889,0.09 0.64844,0.26953 0.3591,0.3591 0.3591,0.93777 0,1.29687 -0.35912,0.35911 -0.93778,0.3591 -1.29688,0 -0.3591,-0.35911 -0.3591,-0.93777 0,-1.29687 0.17955,-0.17955 0.41393,-0.26953 0.64844,-0.26953 z"
             id="path1739" />
        </g>
        <g
           id="path1723">
          <path
             style="color:#000000;fill:#009100;fill-rule:evenodd;stroke:none;stroke-width:0.211666pt;-inkscape-stroke:none"
             d="m 133.32884,121.70834 c 0,0.5842 -0.47414,1.05833 -1.05834,1.05833 -0.5842,0 -1.05833,-0.47413 -1.05833,-1.05833 0,-0.5842 0.47413,-1.05833 1.05833,-1.05833 0.5842,0 1.05834,0.47413 1.05834,1.05833 z"
             id="path1727" />
          <path
             style="color:#000000;fill:#009100;fill-rule:evenodd;stroke:none;-inkscape-stroke:none"
             d="m 132.26953,120.50977 c -0.66055,0 -1.19922,0.53867 -1.19922,1.19921 0,0.66055 0.53867,1.19922 1.19922,1.19922 0.66055,0 1.20117,-0.53867 1.20117,-1.19922 0,-0.66055 -0.54062,-1.19921 -1.20117,-1.19921 z m 0,0.28125 c 0.50785,0 0.91797,0.41012 0.91797,0.91796 0,0.50785 -0.41012,0.91602 -0.91797,0.91602 -0.50785,0 -0.91601,-0.40817 -0.91601,-0.91602 0,-0.50785 0.40816,-0.91796 0.91601,-0.91796 z"
             id="path1729" />
        </g>
        <g
           id="path1713">
          <path
             style="color:#000000;fill:#009100;fill-rule:evenodd;stroke:none;stroke-width:0.211666pt;-inkscape-stroke:none"
             d="m 127.73339,126.26662 c 0.41309,0.41309 0.41309,1.08362 0,1.49671 -0.41309,0.41309 -1.08362,0.41309 -1.49671,0 -0.41309,-0.41309 -0.41309,-1.08362 0,-1.49671 0.41309,-0.41309 1.08362,-0.41309 1.49671,0 z"
             id="path1717" />
          <path
             style="color:#000000;fill:#009100;fill-rule:evenodd;stroke:none;-inkscape-stroke:none"
             d="m 126.98438,125.81641 c -0.3073,0 -0.61412,0.11607 -0.84766,0.34961 -0.46708,0.46707 -0.46708,1.23018 0,1.69726 0.46708,0.46708 1.23019,0.46708 1.69726,0 0.46708,-0.46708 0.46708,-1.23019 0,-1.69726 -0.23353,-0.23354 -0.54231,-0.34961 -0.8496,-0.34961 z m 0,0.28125 c 0.23451,0 0.46888,0.09 0.64843,0.26953 0.3591,0.3591 0.3591,0.93777 0,1.29687 -0.3591,0.3591 -0.93777,0.3591 -1.29687,0 -0.3591,-0.3591 -0.3591,-0.93777 0,-1.29687 0.17955,-0.17955 0.41392,-0.26953 0.64844,-0.26953 z"
             id="path1719" />
        </g>
      </g>
    </g>
    <g
       id="path1068">
      <path
         style="color:#000000;fill:#009100;stroke:none;-inkscape-stroke:none"
         d="m 153.45898,121.52148 -5.38671,5.38477 0.1875,0.1875 5.19921,-5.19727 5.19727,5.19727 0.1875,-0.1875 z"
         id="path1781" />
      <g
         id="g1749">
        <g
           id="path1771">
          <path
             style="color:#000000;fill:#009100;fill-rule:evenodd;stroke:none;stroke-width:0.211666pt;-inkscape-stroke:none"
             d="m 159.48339,127.73339 c -0.4131,0.41309 -1.08362,0.41309 -1.49671,0 -0.41309,-0.4131 -0.41309,-1.08362 0,-1.49671 0.41309,-0.41309 1.08362,-0.41309 1.49671,0 0.41309,0.41309 0.41309,1.08362 0,1.49671 z"
             id="path1775" />
          <path
             style="color:#000000;fill:#009100;fill-rule:evenodd;stroke:none;-inkscape-stroke:none"
             d="m 158.73437,125.78711 c -0.30729,0 -0.61411,0.11607 -0.84765,0.34961 -0.46708,0.46708 -0.46708,1.23018 0,1.69726 0.46708,0.46708 1.23018,0.46708 1.69726,0 0.46708,-0.46707 0.46708,-1.23018 0,-1.69726 -0.23353,-0.23354 -0.54231,-0.34961 -0.84961,-0.34961 z m 0,0.2793 c 0.23452,0 0.46889,0.09 0.64844,0.26953 0.3591,0.3591 0.3591,0.93777 0,1.29687 -0.35911,0.35911 -0.93777,0.3591 -1.29687,0 -0.35911,-0.35911 -0.3591,-0.93777 0,-1.29687 0.17955,-0.17955 0.41392,-0.26953 0.64843,-0.26953 z"
             id="path1777" />
        </g>
        <g
           id="path1761">
          <path
             style="color:#000000;fill:#009100;fill-rule:evenodd;stroke:none;stroke-width:0.211666pt;-inkscape-stroke:none"
             d="m 154.49551,121.70833 c 0,0.5842 -0.47414,1.05833 -1.05834,1.05833 -0.5842,0 -1.05833,-0.47413 -1.05833,-1.05833 0,-0.5842 0.47413,-1.05833 1.05833,-1.05833 0.5842,0 1.05834,0.47413 1.05834,1.05833 z"
             id="path1765" />
          <path
             style="color:#000000;fill:#009100;fill-rule:evenodd;stroke:none;-inkscape-stroke:none"
             d="m 153.4375,120.50977 c -0.66055,0 -1.19922,0.53867 -1.19922,1.19921 0,0.66055 0.53867,1.19922 1.19922,1.19922 0.66055,0 1.19922,-0.53867 1.19922,-1.19922 0,-0.66055 -0.53867,-1.19921 -1.19922,-1.19921 z m 0,0.28125 c 0.50785,0 0.91602,0.41012 0.91602,0.91796 0,0.50785 -0.40817,0.91602 -0.91602,0.91602 -0.50785,0 -0.91797,-0.40817 -0.91797,-0.91602 0,-0.50785 0.41012,-0.91796 0.91797,-0.91796 z"
             id="path1767" />
        </g>
        <g
           id="path1751">
          <path
             style="color:#000000;fill:#009100;fill-rule:evenodd;stroke:none;stroke-width:0.211666pt;-inkscape-stroke:none"
             d="m 148.90006,126.26661 c 0.41309,0.41309 0.41309,1.08362 0,1.49671 -0.41309,0.41309 -1.08362,0.41309 -1.49671,0 -0.41309,-0.41309 -0.41309,-1.08362 0,-1.49671 0.41309,-0.41309 1.08362,-0.41309 1.49671,0 z"
             id="path1755" />
          <path
             style="color:#000000;fill:#009100;fill-rule:evenodd;stroke:none;-inkscape-stroke:none"
             d="m 148.15234,125.81641 c -0.30729,0 -0.61607,0.11607 -0.84961,0.34961 -0.46707,0.46707 -0.46707,1.23018 0,1.69726 0.46708,0.46708 1.23019,0.46708 1.69727,0 0.46708,-0.46708 0.46708,-1.23019 0,-1.69726 -0.23354,-0.23354 -0.54036,-0.34961 -0.84766,-0.34961 z m 0,0.28125 c 0.23452,0 0.46889,0.09 0.64844,0.26953 0.3591,0.3591 0.3591,0.93777 0,1.29687 -0.3591,0.3591 -0.93777,0.3591 -1.29687,0 -0.35911,-0.3591 -0.35911,-0.93777 0,-1.29687 0.17955,-0.17955 0.41392,-0.26953 0.64843,-0.26953 z"
             id="path1757" />
        </g>
      </g>
    </g>
    <g
       id="path1070">
      <path
         style="color:#000000;fill:#009100;stroke:none;-inkscape-stroke:none"
         d="m 185.20898,116.26953 -10.64257,5.32031 0.11718,0.23633 10.52539,-5.26172 10.52344,5.26172 0.11914,-0.23633 z"
         id="path1819" />
      <g
         id="g1787">
        <g
           id="path1809">
          <path
             style="color:#000000;fill:#009100;fill-rule:evenodd;stroke:none;stroke-width:0.211666pt;-inkscape-stroke:none"
             d="m 196.71932,122.17218 c -0.26126,0.52252 -0.89738,0.73456 -1.4199,0.47329 -0.52253,-0.26126 -0.73456,-0.89737 -0.4733,-1.4199 0.26126,-0.52252 0.89738,-0.73456 1.4199,-0.4733 0.52252,0.26127 0.73456,0.89738 0.4733,1.41991 z"
             id="path1813" />
          <path
             style="color:#000000;fill:#009100;fill-rule:evenodd;stroke:none;-inkscape-stroke:none"
             d="m 195.39453,120.5625 c -0.29153,0.0972 -0.54761,0.3042 -0.69531,0.59961 -0.2954,0.59082 -0.0537,1.31397 0.53711,1.60937 0.59081,0.29542 1.31397,0.0537 1.60937,-0.5371 0.29541,-0.59082 0.0537,-1.31201 -0.53711,-1.60743 -0.2954,-0.1477 -0.62253,-0.16163 -0.91406,-0.0644 z m 0.0879,0.26563 c 0.22248,-0.0742 0.47406,-0.0628 0.70117,0.0508 0.45424,0.22712 0.63728,0.77622 0.41016,1.23047 -0.22711,0.45422 -0.77624,0.63727 -1.23047,0.41015 -0.45424,-0.22711 -0.63727,-0.77622 -0.41016,-1.23047 0.11356,-0.22711 0.30683,-0.38678 0.5293,-0.46093 z"
             id="path1815" />
        </g>
        <g
           id="path1799">
          <path
             style="color:#000000;fill:#009100;fill-rule:evenodd;stroke:none;stroke-width:0.211666pt;-inkscape-stroke:none"
             d="m 186.2455,116.41667 c 0,0.5842 -0.47414,1.05833 -1.05834,1.05833 -0.5842,0 -1.05833,-0.47413 -1.05833,-1.05833 0,-0.5842 0.47413,-1.05833 1.05833,-1.05833 0.5842,0 1.05834,0.47413 1.05834,1.05833 z"
             id="path1803" />
          <path
             style="color:#000000;fill:#009100;fill-rule:evenodd;stroke:none;-inkscape-stroke:none"
             d="m 185.1875,115.2168 c -0.66055,0 -1.19922,0.53867 -1.19922,1.19922 0,0.66054 0.53867,1.19921 1.19922,1.19921 0.66055,0 1.19922,-0.53866 1.19922,-1.19921 0,-0.66055 -0.53867,-1.19922 -1.19922,-1.19922 z m 0,0.2832 c 0.50785,0 0.91602,0.40817 0.91602,0.91602 0,0.50784 -0.40817,0.91796 -0.91602,0.91796 -0.50785,0 -0.91797,-0.41011 -0.91797,-0.91796 0,-0.50785 0.41012,-0.91602 0.91797,-0.91602 z"
             id="path1805" />
        </g>
        <g
           id="path1789">
          <path
             style="color:#000000;fill:#009100;fill-rule:evenodd;stroke:none;stroke-width:0.211666pt;-inkscape-stroke:none"
             d="m 175.55267,121.24451 c 0.26126,0.52252 0.0492,1.15863 -0.4733,1.4199 -0.52252,0.26126 -1.15864,0.0492 -1.4199,-0.4733 -0.26126,-0.52253 -0.0492,-1.15864 0.4733,-1.4199 0.52252,-0.26127 1.15864,-0.0492 1.4199,0.4733 z"
             id="path1793" />
          <path
             style="color:#000000;fill:#009100;fill-rule:evenodd;stroke:none;-inkscape-stroke:none"
             d="m 174.98437,120.58008 c -0.29152,-0.0972 -0.61865,-0.0833 -0.91406,0.0645 -0.59079,0.29541 -0.83251,1.01856 -0.53711,1.60938 0.29541,0.59079 1.01857,0.83251 1.60938,0.53711 0.59078,-0.29542 0.83251,-1.01857 0.53711,-1.60938 -0.14771,-0.29539 -0.40379,-0.50438 -0.69532,-0.60156 z m -0.0879,0.26758 c 0.22248,0.0742 0.41574,0.23188 0.5293,0.45898 0.22711,0.45423 0.0441,1.0053 -0.41016,1.23242 -0.45422,0.22712 -1.00335,0.0441 -1.23046,-0.41015 -0.22712,-0.45424 -0.0441,-1.00531 0.41015,-1.23243 0.22712,-0.11356 0.4787,-0.12299 0.70117,-0.0488 z"
             id="path1795" />
        </g>
      </g>
    </g>
    <g
       id="path1072">
      <path
         style="color:#000000;fill:#009100;stroke:none;-inkscape-stroke:none"
         d="m 174.625,121.52148 -5.38477,5.38477 0.1875,0.1875 5.19727,-5.19727 5.19727,5.19727 0.1875,-0.1875 z"
         id="path1857" />
      <g
         id="g1825">
        <g
           id="path1847">
          <path
             style="color:#000000;fill:#009100;fill-rule:evenodd;stroke:none;stroke-width:0.211666pt;-inkscape-stroke:none"
             d="m 180.65005,127.7334 c -0.4131,0.41309 -1.08362,0.41309 -1.49671,0 -0.41309,-0.4131 -0.41309,-1.08362 0,-1.49671 0.41309,-0.41309 1.08362,-0.41309 1.49671,0 0.41309,0.41309 0.41309,1.08362 0,1.49671 z"
             id="path1851" />
          <path
             style="color:#000000;fill:#009100;fill-rule:evenodd;stroke:none;-inkscape-stroke:none"
             d="m 179.90234,125.78711 c -0.30729,0 -0.61607,0.11607 -0.84961,0.34961 -0.46707,0.46708 -0.46707,1.23018 0,1.69726 0.46708,0.46708 1.23018,0.46708 1.69727,0 0.46708,-0.46707 0.46708,-1.23018 0,-1.69726 -0.23354,-0.23354 -0.54036,-0.34961 -0.84766,-0.34961 z m 0,0.2793 c 0.23452,0 0.46889,0.09 0.64844,0.26953 0.3591,0.3591 0.3591,0.93777 0,1.29687 -0.35911,0.35911 -0.93777,0.3591 -1.29687,0 -0.35911,-0.35911 -0.35911,-0.93777 0,-1.29687 0.17955,-0.17955 0.41392,-0.26953 0.64843,-0.26953 z"
             id="path1853" />
        </g>
        <g
           id="path1837">
          <path
             style="color:#000000;fill:#009100;fill-rule:evenodd;stroke:none;stroke-width:0.211666pt;-inkscape-stroke:none"
             d="m 175.66217,121.70834 c 0,0.5842 -0.47414,1.05833 -1.05834,1.05833 -0.5842,0 -1.05833,-0.47413 -1.05833,-1.05833 0,-0.5842 0.47413,-1.05833 1.05833,-1.05833 0.5842,0 1.05834,0.47413 1.05834,1.05833 z"
             id="path1841" />
          <path
             style="color:#000000;fill:#009100;fill-rule:evenodd;stroke:none;-inkscape-stroke:none"
             d="m 174.60352,120.50977 c -0.66055,0 -1.19922,0.53867 -1.19922,1.19921 0,0.66055 0.53867,1.19922 1.19922,1.19922 0.66054,0 1.19921,-0.53867 1.19921,-1.19922 0,-0.66055 -0.53867,-1.19921 -1.19921,-1.19921 z m 0,0.28125 c 0.50785,0 0.91796,0.41012 0.91796,0.91796 0,0.50785 -0.41011,0.91602 -0.91796,0.91602 -0.50785,0 -0.91602,-0.40817 -0.91602,-0.91602 0,-0.50785 0.40817,-0.91796 0.91602,-0.91796 z"
             id="path1843" />
        </g>
        <g
           id="path1827">
          <path
             style="color:#000000;fill:#009100;fill-rule:evenodd;stroke:none;stroke-width:0.211666pt;-inkscape-stroke:none"
             d="m 170.06672,126.26662 c 0.41309,0.41309 0.41309,1.08362 0,1.49671 -0.41309,0.41309 -1.08362,0.41309 -1.49671,0 -0.41309,-0.41309 -0.41309,-1.08362 0,-1.49671 0.41309,-0.41309 1.08362,-0.41309 1.49671,0 z"
             id="path1831" />
          <path
             style="color:#000000;fill:#009100;fill-rule:evenodd;stroke:none;-inkscape-stroke:none"
             d="m 169.31836,125.81641 c -0.3073,0 -0.61412,0.11607 -0.84766,0.34961 -0.46707,0.46707 -0.46707,1.23018 0,1.69726 0.46708,0.46708 1.22824,0.46708 1.69532,0 0.46707,-0.46708 0.46707,-1.23019 0,-1.69726 -0.23354,-0.23354 -0.54036,-0.34961 -0.84766,-0.34961 z m 0,0.28125 c 0.23451,0 0.46889,0.09 0.64844,0.26953 0.3591,0.3591 0.3591,0.93777 0,1.29687 -0.3591,0.3591 -0.93778,0.3591 -1.29688,0 -0.3591,-0.3591 -0.3591,-0.93777 0,-1.29687 0.17955,-0.17955 0.41393,-0.26953 0.64844,-0.26953 z"
             id="path1833" />
        </g>
      </g>
    </g>
    <g
       id="path1074">
      <path
         style="color:#000000;fill:#009100;stroke:none;-inkscape-stroke:none"
         d="m 195.79102,121.52148 -5.38477,5.38477 0.1875,0.1875 5.19727,-5.19727 5.19921,5.19727 0.1875,-0.1875 z"
         id="path1895" />
      <g
         id="g1863">
        <g
           id="path1885">
          <path
             style="color:#000000;fill:#009100;fill-rule:evenodd;stroke:none;stroke-width:0.211666pt;-inkscape-stroke:none"
             d="m 201.81671,127.73339 c -0.4131,0.41309 -1.08362,0.41309 -1.49671,0 -0.41309,-0.4131 -0.41309,-1.08362 0,-1.49671 0.41309,-0.41309 1.08362,-0.41309 1.49671,0 0.41309,0.41309 0.41309,1.08362 0,1.49671 z"
             id="path1889" />
          <path
             style="color:#000000;fill:#009100;fill-rule:evenodd;stroke:none;-inkscape-stroke:none"
             d="m 201.06836,125.78711 c -0.3073,0 -0.61412,0.11607 -0.84766,0.34961 -0.46707,0.46708 -0.46707,1.23018 0,1.69726 0.46708,0.46708 1.22823,0.46708 1.69532,0 0.46707,-0.46707 0.46707,-1.23018 0,-1.69726 -0.23354,-0.23354 -0.54036,-0.34961 -0.84766,-0.34961 z m 0,0.2793 c 0.23451,0 0.46889,0.09 0.64844,0.26953 0.3591,0.3591 0.3591,0.93777 0,1.29687 -0.35912,0.35911 -0.93778,0.3591 -1.29688,0 -0.3591,-0.35911 -0.3591,-0.93777 0,-1.29687 0.17955,-0.17955 0.41393,-0.26953 0.64844,-0.26953 z"
             id="path1891" />
        </g>
        <g
           id="path1875">
          <path
             style="color:#000000;fill:#009100;fill-rule:evenodd;stroke:none;stroke-width:0.211666pt;-inkscape-stroke:none"
             d="m 196.82883,121.70833 c 0,0.5842 -0.47414,1.05833 -1.05834,1.05833 -0.5842,0 -1.05833,-0.47413 -1.05833,-1.05833 0,-0.5842 0.47413,-1.05833 1.05833,-1.05833 0.5842,0 1.05834,0.47413 1.05834,1.05833 z"
             id="path1879" />
          <path
             style="color:#000000;fill:#009100;fill-rule:evenodd;stroke:none;-inkscape-stroke:none"
             d="m 195.76953,120.50977 c -0.66055,0 -1.19922,0.53867 -1.19922,1.19921 0,0.66055 0.53867,1.19922 1.19922,1.19922 0.66055,0 1.20117,-0.53867 1.20117,-1.19922 0,-0.66055 -0.54062,-1.19921 -1.20117,-1.19921 z m 0,0.28125 c 0.50785,0 0.91797,0.41012 0.91797,0.91796 0,0.50785 -0.41012,0.91602 -0.91797,0.91602 -0.50785,0 -0.91601,-0.40817 -0.91601,-0.91602 0,-0.50785 0.40816,-0.91796 0.91601,-0.91796 z"
             id="path1881" />
        </g>
        <g
           id="path1865">
          <path
             style="color:#000000;fill:#009100;fill-rule:evenodd;stroke:none;stroke-width:0.211666pt;-inkscape-stroke:none"
             d="m 191.23338,126.26661 c 0.41309,0.41309 0.41309,1.08362 0,1.49671 -0.41309,0.41309 -1.08362,0.41309 -1.49671,0 -0.41309,-0.41309 -0.41309,-1.08362 0,-1.49671 0.41309,-0.41309 1.08362,-0.41309 1.49671,0 z"
             id="path1869" />
          <path
             style="color:#000000;fill:#009100;fill-rule:evenodd;stroke:none;-inkscape-stroke:none"
             d="m 190.48437,125.81641 c -0.30729,0 -0.61411,0.11607 -0.84765,0.34961 -0.46708,0.46707 -0.46708,1.23018 0,1.69726 0.46708,0.46708 1.23019,0.46708 1.69726,0 0.46708,-0.46708 0.46708,-1.23019 0,-1.69726 -0.23353,-0.23354 -0.54231,-0.34961 -0.84961,-0.34961 z m 0,0.28125 c 0.23452,0 0.46889,0.09 0.64844,0.26953 0.3591,0.3591 0.3591,0.93777 0,1.29687 -0.3591,0.3591 -0.93777,0.3591 -1.29687,0 -0.3591,-0.3591 -0.3591,-0.93777 0,-1.29687 0.17955,-0.17955 0.41392,-0.26953 0.64843,-0.26953 z"
             id="path1871" />
        </g>
      </g>
    </g>
  </g>
  <g
     id="path933"
     transform="translate(5.153043,-0.11900941)">
    <path
       style="color:#000000;fill:#ba00ff;-inkscape-stroke:none"
       d="m 6.6152344,32.886719 -5.3867188,5.384765 0.1875,0.1875 L 6.6152344,33.259766 11.8125,38.458984 12,38.271484 Z"
       id="path1933" />
    <g
       id="g1901">
      <g
         id="path1923">
        <path
           style="color:#000000;fill:#ba00ff;fill-rule:evenodd;stroke-width:0.211666pt;-inkscape-stroke:none"
           d="m 12.639637,39.097974 c -0.413091,0.413091 -1.083616,0.413091 -1.496707,-10e-7 -0.413091,-0.413091 -0.413091,-1.083616 0,-1.496707 0.413092,-0.413091 1.083617,-0.413091 1.496708,0 0.413091,0.413092 0.413091,1.083617 -10e-7,1.496708 z"
           id="path1927" />
        <path
           style="color:#000000;fill:#ba00ff;fill-rule:evenodd;-inkscape-stroke:none"
           d="m 11.890625,37.150391 c -0.307297,0 -0.614117,0.118023 -0.847656,0.351562 -0.467078,0.467078 -0.467078,1.228235 0,1.695313 0.467078,0.467079 1.230187,0.467078 1.697265,0 0.467079,-0.467078 0.467078,-1.228234 0,-1.695313 -0.233539,-0.233539 -0.542312,-0.351562 -0.849609,-0.351562 z m 0,0.28125 c 0.234511,0 0.468886,0.08998 0.648438,0.269531 0.359103,0.359104 0.359104,0.937772 0,1.296875 -0.359104,0.359103 -0.937772,0.359104 -1.296875,0 -0.359104,-0.359103 -0.359104,-0.937772 0,-1.296875 0.179552,-0.179552 0.413926,-0.269531 0.648437,-0.269531 z"
           id="path1929" />
      </g>
      <g
         id="path1913">
        <path
           style="color:#000000;fill:#ba00ff;fill-rule:evenodd;stroke-width:0.211666pt;-inkscape-stroke:none"
           d="m 7.6517486,33.072917 c 0,0.584199 -0.4741327,1.058332 -1.0583319,1.058332 -0.5841993,0 -1.058332,-0.474133 -1.058332,-1.058332 0,-0.584199 0.4741327,-1.058332 1.058332,-1.058332 0.5841992,0 1.0583319,0.474133 1.0583319,1.058332 z"
           id="path1917" />
        <path
           style="color:#000000;fill:#ba00ff;fill-rule:evenodd;-inkscape-stroke:none"
           d="m 6.59375,31.873047 c -0.6605484,0 -1.1992188,0.538671 -1.1992188,1.199219 0,0.660548 0.5386704,1.199218 1.1992188,1.199218 0.6605483,0 1.1992188,-0.53867 1.1992187,-1.199218 10e-8,-0.660548 -0.5386704,-1.199219 -1.1992187,-1.199219 z m 0,0.283203 c 0.5078489,0 0.9160156,0.408167 0.9160156,0.916016 0,0.507848 -0.4081667,0.917968 -0.9160156,0.917968 -0.507849,0 -0.9179688,-0.41012 -0.9179688,-0.917968 0,-0.507849 0.4101198,-0.916016 0.9179688,-0.916016 z"
           id="path1919" />
      </g>
      <g
         id="path1903">
        <path
           style="color:#000000;fill:#ba00ff;fill-rule:evenodd;stroke-width:0.211666pt;-inkscape-stroke:none"
           d="m 2.0563037,37.6312 c 0.4130914,0.413091 0.4130916,1.083616 5e-7,1.496708 -0.4130911,0.413091 -1.08361599,0.413091 -1.4967074,0 -0.4130914,-0.413091 -0.41309165,-1.083616 -5.6e-7,-1.496707 0.41309109,-0.413092 1.08361606,-0.413092 1.49670746,-10e-7 z"
           id="path1907" />
        <path
           style="color:#000000;fill:#ba00ff;fill-rule:evenodd;-inkscape-stroke:none"
           d="m 1.3085937,37.181641 c -0.307297,0 -0.61607032,0.116069 -0.84960932,0.349609 -0.46707811,0.467078 -0.4670784,1.230188 0,1.697266 0.46707836,0.467078 1.23018752,0.467078 1.69726562,0 0.4670779,-0.467079 0.4670784,-1.230188 0,-1.697266 C 1.9227108,37.297711 1.6158908,37.18164 1.3085937,37.181641 Z m 0,0.279296 c 0.2345105,0 0.4688857,0.08998 0.6484375,0.269532 0.3591036,0.359103 0.3591035,0.937771 0,1.296875 -0.3591033,0.359103 -0.9377713,0.359103 -1.29687495,0 -0.35910358,-0.359103 -0.35910325,-0.937772 0,-1.296875 0.17955167,-0.179552 0.41392705,-0.269531 0.64843745,-0.269532 z"
           id="path1909" />
      </g>
    </g>
  </g>
  <g
     id="g941"
     transform="translate(-38.5032,-80.816926)"
     style="stroke:#ff4141">
    <g
       id="path935">
      <path
         style="color:#000000;fill:#ff4141;stroke:none;-inkscape-stroke:none"
         d="m 89.958984,110.97656 -10.642578,5.32227 0.117188,0.23633 10.52539,-5.26172 10.523436,5.26172 0.11914,-0.23633 z"
         id="path1971" />
      <g
         id="g1939">
        <g
           id="path1961">
          <path
             style="color:#000000;fill:#ff4141;fill-rule:evenodd;stroke:none;stroke-width:0.211666pt;-inkscape-stroke:none"
             d="m 101.46932,116.8805 c -0.26126,0.52253 -0.89738,0.73457 -1.4199,0.4733 -0.522527,-0.26126 -0.734565,-0.89737 -0.473303,-1.4199 0.261263,-0.52252 0.897383,-0.73456 1.419903,-0.4733 0.52252,0.26127 0.73456,0.89738 0.4733,1.4199 z"
             id="path1965" />
          <path
             style="color:#000000;fill:#ff4141;fill-rule:evenodd;stroke:none;-inkscape-stroke:none"
             d="m 100.14453,115.26953 c -0.291527,0.0972 -0.547607,0.30616 -0.695311,0.60156 -0.295406,0.59082 -0.05371,1.31398 0.537109,1.60938 0.590812,0.29541 1.313972,0.0537 1.609372,-0.53711 0.29541,-0.59081 0.0537,-1.31396 -0.53711,-1.60938 -0.2954,-0.1477 -0.62253,-0.16162 -0.91406,-0.0644 z m 0.0879,0.26758 c 0.22248,-0.0742 0.47406,-0.0647 0.70117,0.0488 0.45424,0.22712 0.63727,0.77819 0.41016,1.23242 -0.22712,0.45424 -0.77624,0.63728 -1.23047,0.41016 -0.454236,-0.22712 -0.637273,-0.77818 -0.410155,-1.23243 0.113559,-0.22711 0.306815,-0.38482 0.529295,-0.45898 z"
             id="path1967" />
        </g>
        <g
           id="path1951">
          <path
             style="color:#000000;fill:#ff4141;fill-rule:evenodd;stroke:none;stroke-width:0.211666pt;-inkscape-stroke:none"
             d="m 90.995491,111.125 c 0,0.5842 -0.474132,1.05833 -1.058332,1.05833 -0.584199,0 -1.058332,-0.47413 -1.058332,-1.05833 0,-0.5842 0.474133,-1.05833 1.058332,-1.05833 0.5842,0 1.058332,0.47413 1.058332,1.05833 z"
             id="path1955" />
          <path
             style="color:#000000;fill:#ff4141;fill-rule:evenodd;stroke:none;-inkscape-stroke:none"
             d="m 89.9375,109.92578 c -0.660548,0 -1.199219,0.53867 -1.199219,1.19922 0,0.66055 0.538671,1.19922 1.199219,1.19922 0.660549,0 1.199219,-0.53867 1.199219,-1.19922 0,-0.66055 -0.53867,-1.19922 -1.199219,-1.19922 z m 0,0.28125 c 0.50785,0 0.916016,0.41012 0.916016,0.91797 0,0.50785 -0.408166,0.91797 -0.916016,0.91797 -0.507849,0 -0.917969,-0.41012 -0.917969,-0.91797 0,-0.50785 0.41012,-0.91797 0.917969,-0.91797 z"
             id="path1957" />
        </g>
        <g
           id="path1941">
          <path
             style="color:#000000;fill:#ff4141;fill-rule:evenodd;stroke:none;stroke-width:0.211666pt;-inkscape-stroke:none"
             d="m 80.302671,115.95284 c 0.261262,0.52252 0.04922,1.15863 -0.4733,1.4199 -0.522524,0.26126 -1.158639,0.0492 -1.419902,-0.4733 -0.261262,-0.52253 -0.04922,-1.15864 0.4733,-1.4199 0.522524,-0.26127 1.158639,-0.0492 1.419902,0.4733 z"
             id="path1945" />
          <path
             style="color:#000000;fill:#ff4141;fill-rule:evenodd;stroke:none;-inkscape-stroke:none"
             d="m 79.734375,115.28906 c -0.291527,-0.0972 -0.618654,-0.0833 -0.914063,0.0645 -0.590808,0.2954 -0.832514,1.01855 -0.537109,1.60937 0.295409,0.59079 1.01856,0.83056 1.609375,0.53516 0.590806,-0.29542 0.832516,-1.01662 0.537109,-1.60742 -0.147704,-0.2954 -0.403785,-0.50439 -0.695312,-0.60157 z m -0.08789,0.26563 c 0.222477,0.0742 0.415739,0.23383 0.529297,0.46094 0.227117,0.45422 0.04408,1.00334 -0.410156,1.23046 -0.454232,0.22712 -1.003352,0.0441 -1.230469,-0.41015 -0.227118,-0.45424 -0.04407,-1.00336 0.410156,-1.23047 0.227116,-0.11356 0.478696,-0.12495 0.701172,-0.0508 z"
             id="path1947" />
        </g>
      </g>
    </g>
    <g
       id="path937">
      <path
         style="color:#000000;fill:#ff4141;stroke:none;-inkscape-stroke:none"
         d="m 79.375,116.23047 -5.384766,5.38476 0.1875,0.1875 5.197266,-5.19921 5.197266,5.19921 0.1875,-0.1875 z"
         id="path2009" />
      <g
         id="g1977">
        <g
           id="path1999">
          <path
             style="color:#000000;fill:#ff4141;fill-rule:evenodd;stroke:none;stroke-width:0.211666pt;-inkscape-stroke:none"
             d="m 85.400045,122.44173 c -0.413092,0.41309 -1.083617,0.41309 -1.496708,0 -0.41309,-0.4131 -0.41309,-1.08362 2e-6,-1.49671 0.413092,-0.41309 1.083617,-0.41309 1.496708,0 0.41309,0.41309 0.413089,1.08362 -2e-6,1.49671 z"
             id="path2003" />
          <path
             style="color:#000000;fill:#ff4141;fill-rule:evenodd;stroke:none;-inkscape-stroke:none"
             d="m 84.652344,120.49414 c -0.307297,0 -0.61607,0.11802 -0.84961,0.35156 -0.467078,0.46708 -0.467074,1.22823 0,1.69532 0.467078,0.46707 1.230187,0.46707 1.697266,0 0.467079,-0.46708 0.467078,-1.22824 0,-1.69532 -0.233539,-0.23354 -0.540359,-0.35156 -0.847656,-0.35156 z m 0,0.28125 c 0.23451,0 0.468886,0.09 0.648437,0.26953 0.359102,0.3591 0.359103,0.93778 0,1.29688 -0.359104,0.3591 -0.937772,0.3591 -1.296875,0 -0.359104,-0.35912 -0.359104,-0.93778 0,-1.29688 0.179552,-0.17955 0.413927,-0.26953 0.648438,-0.26953 z"
             id="path2005" />
        </g>
        <g
           id="path1989">
          <path
             style="color:#000000;fill:#ff4141;fill-rule:evenodd;stroke:none;stroke-width:0.211666pt;-inkscape-stroke:none"
             d="m 80.412167,116.41667 c 0,0.5842 -0.474132,1.05833 -1.058332,1.05833 -0.584199,0 -1.058332,-0.47413 -1.058332,-1.05833 0,-0.5842 0.474133,-1.05833 1.058332,-1.05833 0.5842,0 1.058332,0.47413 1.058332,1.05833 z"
             id="path1993" />
          <path
             style="color:#000000;fill:#ff4141;fill-rule:evenodd;stroke:none;-inkscape-stroke:none"
             d="m 79.353516,115.2168 c -0.660548,0 -1.199219,0.53867 -1.199219,1.19922 0,0.66054 0.538671,1.19921 1.199219,1.19921 0.660548,0 1.199218,-0.53867 1.199218,-1.19921 0,-0.66055 -0.53867,-1.19922 -1.199218,-1.19922 z m 0,0.2832 c 0.50785,0 0.917968,0.40817 0.917968,0.91602 0,0.50785 -0.410118,0.91796 -0.917968,0.91796 -0.50785,0 -0.916016,-0.41011 -0.916016,-0.91796 0,-0.50785 0.408166,-0.91602 0.916016,-0.91602 z"
             id="path1995" />
        </g>
        <g
           id="path1979">
          <path
             style="color:#000000;fill:#ff4141;fill-rule:evenodd;stroke:none;stroke-width:0.211666pt;-inkscape-stroke:none"
             d="m 74.81672,120.97495 c 0.413091,0.41309 0.413091,1.08362 0,1.49671 -0.413092,0.41309 -1.083616,0.41309 -1.496708,0 -0.413091,-0.41309 -0.413091,-1.08362 0,-1.49671 0.413091,-0.41309 1.083616,-0.41309 1.496708,0 z"
             id="path1983" />
          <path
             style="color:#000000;fill:#ff4141;fill-rule:evenodd;stroke:none;-inkscape-stroke:none"
             d="m 74.068359,120.52539 c -0.307297,0 -0.614117,0.11607 -0.847656,0.34961 -0.467078,0.46708 -0.467078,1.23019 0,1.69727 0.467079,0.46707 1.228234,0.46707 1.695313,0 0.467078,-0.46708 0.467078,-1.23019 0,-1.69727 -0.23354,-0.23354 -0.54036,-0.34961 -0.847657,-0.34961 z m 0,0.2793 c 0.234511,0 0.468886,0.09 0.648438,0.26953 0.359102,0.3591 0.359102,0.93777 0,1.29687 -0.359104,0.35911 -0.937771,0.35911 -1.296875,0 -0.359103,-0.3591 -0.359103,-0.93777 0,-1.29687 0.179551,-0.17955 0.413927,-0.26953 0.648437,-0.26953 z"
             id="path1985" />
        </g>
      </g>
    </g>
    <g
       id="path939">
      <path
         style="color:#000000;fill:#ff4141;stroke:none;-inkscape-stroke:none"
         d="m 100.54102,116.23047 -5.38477,5.38476 0.1875,0.1875 5.19727,-5.19921 5.19921,5.19921 0.1875,-0.1875 z"
         id="path2047" />
      <g
         id="g2015">
        <g
           id="path2037">
          <path
             style="color:#000000;fill:#ff4141;fill-rule:evenodd;stroke:none;stroke-width:0.211666pt;-inkscape-stroke:none"
             d="m 106.56671,122.44172 c -0.4131,0.41309 -1.08362,0.41309 -1.49671,0 -0.41309,-0.4131 -0.41309,-1.08362 0,-1.49671 0.41309,-0.41309 1.08362,-0.41309 1.49671,0 0.41309,0.41309 0.41309,1.08362 0,1.49671 z"
             id="path2041" />
          <path
             style="color:#000000;fill:#ff4141;fill-rule:evenodd;stroke:none;-inkscape-stroke:none"
             d="m 105.81836,120.49414 c -0.3073,0 -0.61412,0.11802 -0.84766,0.35156 -0.46707,0.46708 -0.46707,1.22823 0,1.69532 0.46708,0.46707 1.22823,0.46707 1.69532,0 0.46707,-0.46708 0.46707,-1.22824 0,-1.69532 -0.23354,-0.23354 -0.54036,-0.35156 -0.84766,-0.35156 z m 0,0.28125 c 0.23451,0 0.46889,0.09 0.64844,0.26953 0.3591,0.3591 0.3591,0.93778 0,1.29688 -0.35912,0.3591 -0.93778,0.3591 -1.29688,0 -0.3591,-0.35912 -0.3591,-0.93778 0,-1.29688 0.17955,-0.17955 0.41393,-0.26953 0.64844,-0.26953 z"
             id="path2043" />
        </g>
        <g
           id="path2027">
          <path
             style="color:#000000;fill:#ff4141;fill-rule:evenodd;stroke:none;stroke-width:0.211666pt;-inkscape-stroke:none"
             d="m 101.57883,116.41666 c 0,0.5842 -0.47414,1.05833 -1.05834,1.05833 -0.584196,0 -1.058329,-0.47413 -1.058329,-1.05833 0,-0.5842 0.474133,-1.05833 1.058329,-1.05833 0.5842,0 1.05834,0.47413 1.05834,1.05833 z"
             id="path2031" />
          <path
             style="color:#000000;fill:#ff4141;fill-rule:evenodd;stroke:none;-inkscape-stroke:none"
             d="m 100.51953,115.2168 c -0.660544,0 -1.199218,0.53867 -1.199218,1.19922 0,0.66054 0.538674,1.19921 1.199218,1.19921 0.66055,0 1.20117,-0.53866 1.20117,-1.19921 0,-0.66055 -0.54062,-1.19922 -1.20117,-1.19922 z m 0,0.2832 c 0.50785,0 0.91797,0.40817 0.91797,0.91602 0,0.50784 -0.41012,0.91796 -0.91797,0.91796 -0.50784,0 -0.916014,-0.41011 -0.916014,-0.91796 0,-0.50785 0.408174,-0.91602 0.916014,-0.91602 z"
             id="path2033" />
        </g>
        <g
           id="path2017">
          <path
             style="color:#000000;fill:#ff4141;fill-rule:evenodd;stroke:none;stroke-width:0.211666pt;-inkscape-stroke:none"
             d="m 95.983379,120.97494 c 0.413092,0.41309 0.413092,1.08362 10e-7,1.49671 -0.413091,0.41309 -1.083616,0.41309 -1.496708,0 -0.413091,-0.41309 -0.413091,-1.08362 0,-1.49671 0.413091,-0.41309 1.083616,-0.41309 1.496707,0 z"
             id="path2021" />
          <path
             style="color:#000000;fill:#ff4141;fill-rule:evenodd;stroke:none;-inkscape-stroke:none"
             d="m 95.234375,120.52539 c -0.307297,0 -0.614117,0.11607 -0.847656,0.34961 -0.467079,0.46708 -0.467079,1.23019 0,1.69727 0.467079,0.46707 1.230187,0.46707 1.697265,0 0.467079,-0.46708 0.46708,-1.23019 0,-1.69727 -0.233539,-0.23354 -0.542312,-0.34961 -0.849609,-0.34961 z m 0,0.2793 c 0.234511,0 0.468886,0.09 0.648437,0.26953 0.359104,0.3591 0.359103,0.93777 0,1.29687 -0.359103,0.35911 -0.93777,0.35911 -1.296875,0 -0.359102,-0.3591 -0.359102,-0.93777 0,-1.29687 0.179552,-0.17955 0.413927,-0.26953 0.648438,-0.26953 z"
             id="path2023" />
        </g>
      </g>
    </g>
  </g>
  <g
     id="path944"
     transform="translate(5.153043,-0.11900941)">
    <path
       style="color:#000000;fill:#0084c8;-inkscape-stroke:none"
       d="m 117.70703,27.652344 -21.166014,5.292968 0.06445,0.25586 21.166014,-5.291016 z"
       id="path2075" />
    <g
       id="g2053">
      <g
         id="path2065">
        <path
           style="color:#000000;fill:#0084c8;fill-rule:evenodd;stroke-width:0.211666pt;-inkscape-stroke:none"
           d="m 95.566715,33.32447 c -0.141689,-0.566757 0.203293,-1.141727 0.770049,-1.283416 0.566757,-0.14169 1.141727,0.203292 1.283416,0.770049 0.14169,0.566756 -0.203292,1.141727 -0.770049,1.283416 -0.566756,0.141689 -1.141727,-0.203293 -1.283416,-0.770049 z"
           id="path2069" />
        <path
           style="color:#000000;fill:#0084c8;fill-rule:evenodd;-inkscape-stroke:none"
           d="m 96.302734,31.904297 c -0.640825,0.160206 -1.033253,0.814252 -0.873047,1.455078 0.160207,0.640826 0.814253,1.0313 1.455079,0.871094 0.640826,-0.160207 1.033254,-0.8123 0.873046,-1.453125 -0.160206,-0.640827 -0.814251,-1.033255 -1.455078,-0.873047 z m 0.06836,0.273437 c 0.492686,-0.123172 0.988156,0.175283 1.111328,0.667969 0.123172,0.492685 -0.173329,0.988157 -0.666016,1.111328 -0.492685,0.123172 -0.99011,-0.17333 -1.113281,-0.666015 -0.123171,-0.492687 0.175283,-0.99011 0.667969,-1.113282 z"
           id="path2071" />
      </g>
      <g
         id="path2055">
        <path
           style="color:#000000;fill:#0084c8;fill-rule:evenodd;stroke-width:0.211666pt;-inkscape-stroke:none"
           d="m 116.73338,28.0328 c -0.14169,-0.566757 0.20329,-1.141727 0.77005,-1.283416 0.56676,-0.14169 1.14173,0.203292 1.28342,0.770049 0.14169,0.566756 -0.2033,1.141727 -0.77005,1.283416 -0.56676,0.141689 -1.14173,-0.203293 -1.28342,-0.770049 z"
           id="path2059" />
        <path
           style="color:#000000;fill:#0084c8;fill-rule:evenodd;-inkscape-stroke:none"
           d="m 117.46875,26.613281 c -0.64083,0.160206 -1.03325,0.812299 -0.87305,1.453125 0.16021,0.640826 0.81425,1.033253 1.45508,0.873047 0.64082,-0.160207 1.03326,-0.814251 0.87305,-1.455078 -0.16021,-0.640826 -0.81425,-1.031301 -1.45508,-0.871094 z m 0.0684,0.273438 c 0.49269,-0.123173 0.99011,0.173329 1.11328,0.666015 0.12317,0.492684 -0.17529,0.990111 -0.66797,1.113282 -0.49269,0.123171 -0.98815,-0.175284 -1.11133,-0.667969 -0.12317,-0.492687 0.17333,-0.988157 0.66602,-1.111328 z"
           id="path2061" />
      </g>
    </g>
  </g>
  <g
     id="path946"
     transform="translate(5.153043,-0.11900941)">
    <path
       style="color:#000000;fill:#0084c8;-inkscape-stroke:none"
       d="m 117.77148,27.652344 -0.0644,0.257812 21.16797,5.291016 0.0625,-0.25586 z"
       id="path2103" />
    <g
       id="g2081">
      <g
         id="path2093">
        <path
           style="color:#000000;fill:#0084c8;fill-rule:evenodd;stroke-width:0.211666pt;-inkscape-stroke:none"
           d="m 139.91244,33.32447 c -0.14169,0.566756 -0.71666,0.911738 -1.28342,0.770049 -0.56675,-0.141689 -0.91174,-0.71666 -0.77005,-1.283416 0.14169,-0.566757 0.71666,-0.911739 1.28342,-0.770049 0.56676,0.141689 0.91174,0.716659 0.77005,1.283416 z"
           id="path2097" />
        <path
           style="color:#000000;fill:#0084c8;fill-rule:evenodd;-inkscape-stroke:none"
           d="m 139.17578,31.904297 c -0.64083,-0.160207 -1.29292,0.232221 -1.45312,0.873047 -0.16021,0.640827 0.23222,1.292918 0.87304,1.453125 0.64083,0.160206 1.29292,-0.230269 1.45313,-0.871094 0.16021,-0.640826 -0.23222,-1.294872 -0.87305,-1.455078 z m -0.0684,0.273437 c 0.49269,0.123172 0.79114,0.620595 0.66797,1.113282 -0.12317,0.492685 -0.61864,0.789187 -1.11133,0.666015 -0.49268,-0.123171 -0.79114,-0.618644 -0.66797,-1.111328 0.12318,-0.492687 0.61864,-0.791141 1.11133,-0.667969 z"
           id="path2099" />
      </g>
      <g
         id="path2083">
        <path
           style="color:#000000;fill:#0084c8;fill-rule:evenodd;stroke-width:0.211666pt;-inkscape-stroke:none"
           d="m 118.74578,28.0328 c -0.14169,0.566756 -0.71666,0.911738 -1.28342,0.770049 -0.56675,-0.141689 -0.91174,-0.71666 -0.77005,-1.283416 0.14169,-0.566757 0.71666,-0.911739 1.28342,-0.770049 0.56676,0.141689 0.91174,0.716659 0.77005,1.283416 z"
           id="path2087" />
        <path
           style="color:#000000;fill:#0084c8;fill-rule:evenodd;-inkscape-stroke:none"
           d="m 118.00977,26.613281 c -0.64083,-0.160207 -1.29488,0.230268 -1.45508,0.871094 -0.16021,0.640827 0.23222,1.294871 0.87304,1.455078 0.64083,0.160206 1.29488,-0.232221 1.45508,-0.873047 0.16021,-0.640826 -0.23222,-1.292919 -0.87304,-1.453125 z m -0.0684,0.273438 c 0.49269,0.123171 0.79114,0.618641 0.66797,1.111328 -0.12318,0.492685 -0.6206,0.79114 -1.11329,0.667969 -0.49268,-0.123171 -0.78918,-0.620598 -0.66601,-1.113282 0.12317,-0.492686 0.61864,-0.789188 1.11133,-0.666015 z"
           id="path2089" />
      </g>
    </g>
  </g>
  <g
     id="path948"
     transform="translate(5.153043,-0.11900941)">
    <path
       style="color:#000000;fill:#0084c8;-inkscape-stroke:none"
       d="m 96.572266,32.925781 -10.642579,5.320313 0.119141,0.236328 10.523438,-5.261719 10.525394,5.261719 0.11718,-0.236328 z"
       id="path2141" />
    <g
       id="g2109">
      <g
         id="path2131">
        <path
           style="color:#000000;fill:#0084c8;fill-rule:evenodd;stroke-width:0.211666pt;-inkscape-stroke:none"
           d="m 108.08391,38.828425 c -0.26126,0.522523 -0.89738,0.734562 -1.4199,0.4733 -0.52253,-0.261262 -0.73456,-0.897378 -0.4733,-1.419902 0.26126,-0.522523 0.89738,-0.734562 1.4199,-0.4733 0.52252,0.261262 0.73456,0.897378 0.4733,1.419902 z"
           id="path2135" />
        <path
           style="color:#000000;fill:#0084c8;fill-rule:evenodd;-inkscape-stroke:none"
           d="m 106.75781,37.21875 c -0.29153,0.09718 -0.54565,0.304203 -0.69336,0.599609 -0.2954,0.590812 -0.0537,1.313969 0.53711,1.609375 0.59081,0.295407 1.31397,0.0537 1.60938,-0.537109 0.2954,-0.590813 0.0537,-1.312015 -0.53711,-1.607422 -0.29541,-0.147703 -0.62449,-0.161629 -0.91602,-0.06445 z m 0.0898,0.265625 c 0.22247,-0.07416 0.4721,-0.06278 0.69922,0.05078 0.45423,0.227117 0.63727,0.776235 0.41015,1.230469 -0.22711,0.454232 -0.77624,0.637273 -1.23047,0.410156 -0.45424,-0.227117 -0.63727,-0.776233 -0.41015,-1.230469 0.11355,-0.227116 0.30877,-0.386778 0.53125,-0.460936 z"
           id="path2137" />
      </g>
      <g
         id="path2121">
        <path
           style="color:#000000;fill:#0084c8;fill-rule:evenodd;stroke-width:0.211666pt;-inkscape-stroke:none"
           d="m 97.610078,33.07292 c 0,0.584199 -0.474132,1.058332 -1.058332,1.058332 -0.584199,0 -1.058332,-0.474133 -1.058332,-1.058332 0,-0.584199 0.474133,-1.058332 1.058332,-1.058332 0.5842,0 1.058332,0.474133 1.058332,1.058332 z"
           id="path2125" />
        <path
           style="color:#000000;fill:#0084c8;fill-rule:evenodd;-inkscape-stroke:none"
           d="m 96.550781,31.873047 c -0.660548,0 -1.199219,0.53867 -1.199219,1.199219 0,0.660548 0.538671,1.199218 1.199219,1.199218 0.660549,0 1.201172,-0.53867 1.201172,-1.199218 0,-0.660548 -0.540623,-1.199219 -1.201172,-1.199219 z m 0,0.283203 c 0.50785,0 0.917969,0.408167 0.917969,0.916016 0,0.507848 -0.410119,0.917968 -0.917969,0.917968 -0.507848,0 -0.916015,-0.41012 -0.916015,-0.917968 0,-0.507849 0.408167,-0.916016 0.916015,-0.916016 z"
           id="path2127" />
      </g>
      <g
         id="path2111">
        <path
           style="color:#000000;fill:#0084c8;fill-rule:evenodd;stroke-width:0.211666pt;-inkscape-stroke:none"
           d="m 86.917252,37.900755 c 0.261262,0.522524 0.04922,1.15864 -0.4733,1.419902 -0.522524,0.261262 -1.15864,0.04922 -1.419902,-0.4733 -0.261262,-0.522524 -0.04922,-1.15864 0.4733,-1.419902 0.522524,-0.261262 1.15864,-0.04922 1.419902,0.4733 z"
           id="path2115" />
        <path
           style="color:#000000;fill:#0084c8;fill-rule:evenodd;-inkscape-stroke:none"
           d="m 86.349609,37.236328 c -0.291527,-0.09718 -0.620609,-0.08325 -0.916015,0.06445 -0.590809,0.295407 -0.830563,1.018562 -0.535157,1.609375 0.295407,0.590809 1.018562,0.832516 1.609375,0.53711 0.590809,-0.295407 0.830563,-1.018562 0.535157,-1.609375 -0.147704,-0.295405 -0.401832,-0.504387 -0.69336,-0.601563 z m -0.08789,0.267578 c 0.222476,0.07416 0.415738,0.231869 0.529297,0.458985 0.227117,0.454233 0.04407,1.005305 -0.410157,1.232421 -0.454233,0.227117 -1.003351,0.04407 -1.230468,-0.410156 -0.227117,-0.454234 -0.04407,-1.005305 0.410156,-1.232422 0.227117,-0.113558 0.478695,-0.122987 0.701172,-0.04883 z"
           id="path2117" />
      </g>
    </g>
  </g>
  <g
     id="path950"
     transform="translate(5.153043,-0.11900941)">
    <path
       style="color:#000000;fill:#0084c8;-inkscape-stroke:none"
       d="M 85.990234,38.177734 80.603516,43.5625 80.791016,43.75 85.990234,38.552734 91.1875,43.75 91.375,43.5625 Z"
       id="path2179" />
    <g
       id="g2147">
      <g
         id="path2169">
        <path
           style="color:#000000;fill:#0084c8;fill-rule:evenodd;stroke-width:0.211666pt;-inkscape-stroke:none"
           d="m 92.014629,44.389647 c -0.413092,0.413091 -1.083617,0.413091 -1.496707,-10e-7 -0.413091,-0.413092 -0.413091,-1.083617 10e-7,-1.496708 0.413092,-0.41309 1.083616,-0.41309 1.496707,2e-6 0.413091,0.413092 0.413091,1.083616 -10e-7,1.496707 z"
           id="path2173" />
        <path
           style="color:#000000;fill:#0084c8;fill-rule:evenodd;-inkscape-stroke:none"
           d="m 91.265625,42.443359 c -0.307297,0 -0.614117,0.116071 -0.847656,0.34961 -0.467079,0.467078 -0.467078,1.230186 0,1.697265 0.467077,0.46708 1.230186,0.467078 1.697265,0 0.467079,-0.467077 0.467078,-1.230186 0,-1.697265 -0.233539,-0.23354 -0.542312,-0.349609 -0.849609,-0.34961 z m 0,0.279297 c 0.23451,0 0.468886,0.08998 0.648437,0.269531 0.359104,0.359105 0.359105,0.937772 0,1.296875 -0.359104,0.359104 -0.937772,0.359104 -1.296875,0 -0.359103,-0.359104 -0.359104,-0.937771 0,-1.296875 0.179553,-0.179551 0.413928,-0.269531 0.648438,-0.269531 z"
           id="path2175" />
      </g>
      <g
         id="path2159">
        <path
           style="color:#000000;fill:#0084c8;fill-rule:evenodd;stroke-width:0.211666pt;-inkscape-stroke:none"
           d="m 87.026748,38.36459 c 0,0.584199 -0.474132,1.058332 -1.058332,1.058332 -0.584199,0 -1.058332,-0.474133 -1.058332,-1.058332 0,-0.584199 0.474133,-1.058332 1.058332,-1.058332 0.5842,0 1.058332,0.474133 1.058332,1.058332 z"
           id="path2163" />
        <path
           style="color:#000000;fill:#0084c8;fill-rule:evenodd;-inkscape-stroke:none"
           d="m 85.96875,37.166016 c -0.660548,0 -1.199219,0.53867 -1.199219,1.199218 0,0.660549 0.538671,1.199219 1.199219,1.199219 0.660549,0 1.199219,-0.538671 1.199219,-1.199219 0,-0.660548 -0.53867,-1.199218 -1.199219,-1.199218 z m 0,0.28125 c 0.50785,0 0.916016,0.41012 0.916016,0.917968 0,0.507849 -0.408166,0.916016 -0.916016,0.916016 -0.507849,0 -0.917969,-0.408167 -0.917969,-0.916016 0,-0.507848 0.41012,-0.917968 0.917969,-0.917968 z"
           id="path2165" />
      </g>
      <g
         id="path2149">
        <path
           style="color:#000000;fill:#0084c8;fill-rule:evenodd;stroke-width:0.211666pt;-inkscape-stroke:none"
           d="m 81.4313,42.922873 c 0.413091,0.413092 0.413091,1.083617 0,1.496708 -0.413092,0.413091 -1.083617,0.413091 -1.496708,0 -0.413091,-0.413091 -0.413091,-1.083616 0,-1.496708 0.413091,-0.413091 1.083616,-0.413091 1.496708,0 z"
           id="path2153" />
        <path
           style="color:#000000;fill:#0084c8;fill-rule:evenodd;-inkscape-stroke:none"
           d="m 80.683594,42.472656 c -0.307297,0 -0.616071,0.116071 -0.84961,0.34961 -0.467077,0.467079 -0.467078,1.230187 0,1.697265 0.467078,0.467078 1.230187,0.467078 1.697266,0 0.467078,-0.467078 0.467078,-1.230186 0,-1.697265 -0.233539,-0.233539 -0.540359,-0.34961 -0.847656,-0.34961 z m 0,0.28125 c 0.23451,0 0.468885,0.08998 0.648437,0.269531 0.359104,0.359105 0.359103,0.937772 0,1.296875 -0.359104,0.359104 -0.937772,0.359104 -1.296875,0 -0.359103,-0.359103 -0.359103,-0.93777 0,-1.296875 0.179552,-0.179551 0.413927,-0.269531 0.648438,-0.269531 z"
           id="path2155" />
      </g>
    </g>
  </g>
  <g
     id="path954"
     transform="translate(5.153043,-0.11900941)">
    <path
       style="color:#000000;fill:#0084c8;-inkscape-stroke:none"
       d="m 138.90625,32.925781 -10.64258,5.320313 0.11914,0.236328 10.52344,-5.261719 10.52344,5.261719 0.11914,-0.236328 z"
       id="path2217" />
    <g
       id="g2185">
      <g
         id="path2207">
        <path
           style="color:#000000;fill:#0084c8;fill-rule:evenodd;stroke-width:0.211666pt;-inkscape-stroke:none"
           d="m 150.41723,38.828425 c -0.26126,0.522524 -0.89738,0.734562 -1.4199,0.4733 -0.52253,-0.261263 -0.73456,-0.897379 -0.4733,-1.419902 0.26126,-0.522524 0.89738,-0.734562 1.4199,-0.4733 0.52252,0.261263 0.73456,0.897379 0.4733,1.419902 z"
           id="path2211" />
        <path
           style="color:#000000;fill:#0084c8;fill-rule:evenodd;-inkscape-stroke:none"
           d="m 149.0918,37.21875 c -0.29153,0.09718 -0.54566,0.304203 -0.69336,0.599609 -0.29541,0.590811 -0.0557,1.313968 0.53515,1.609375 0.59081,0.295407 1.31397,0.05371 1.60938,-0.537109 0.2954,-0.590812 0.0557,-1.312014 -0.53516,-1.607422 -0.2954,-0.147703 -0.62449,-0.161629 -0.91601,-0.06445 z m 0.0879,0.265625 c 0.22247,-0.07416 0.47405,-0.06278 0.70117,0.05078 0.45423,0.227118 0.63727,0.776236 0.41016,1.230469 -0.22712,0.454233 -0.77624,0.637273 -1.23047,0.410156 -0.45424,-0.227118 -0.63728,-0.776234 -0.41016,-1.230469 0.11356,-0.227116 0.30682,-0.386778 0.5293,-0.460936 z"
           id="path2213" />
      </g>
      <g
         id="path2197">
        <path
           style="color:#000000;fill:#0084c8;fill-rule:evenodd;stroke-width:0.211666pt;-inkscape-stroke:none"
           d="m 139.94341,33.07292 c 0,0.584199 -0.47414,1.058332 -1.05834,1.058332 -0.5842,0 -1.05833,-0.474133 -1.05833,-1.058332 0,-0.584199 0.47413,-1.058332 1.05833,-1.058332 0.5842,0 1.05834,0.474133 1.05834,1.058332 z"
           id="path2201" />
        <path
           style="color:#000000;fill:#0084c8;fill-rule:evenodd;-inkscape-stroke:none"
           d="m 138.88477,31.873047 c -0.66055,0 -1.19922,0.538671 -1.19922,1.199219 0,0.660547 0.53867,1.199218 1.19922,1.199218 0.66054,0 1.19921,-0.538669 1.19921,-1.199218 0,-0.66055 -0.53867,-1.199219 -1.19921,-1.199219 z m 0,0.283203 c 0.50785,0 0.91796,0.408168 0.91796,0.916016 0,0.507847 -0.41011,0.917968 -0.91796,0.917968 -0.50785,0 -0.91602,-0.410119 -0.91602,-0.917968 0,-0.50785 0.40817,-0.916016 0.91602,-0.916016 z"
           id="path2203" />
      </g>
      <g
         id="path2187">
        <path
           style="color:#000000;fill:#0084c8;fill-rule:evenodd;stroke-width:0.211666pt;-inkscape-stroke:none"
           d="m 129.25058,37.900755 c 0.26126,0.522524 0.0492,1.15864 -0.4733,1.419902 -0.52252,0.261262 -1.15864,0.04922 -1.4199,-0.4733 -0.26126,-0.522524 -0.0492,-1.15864 0.4733,-1.419902 0.52252,-0.261262 1.15864,-0.04922 1.4199,0.4733 z"
           id="path2191" />
        <path
           style="color:#000000;fill:#0084c8;fill-rule:evenodd;-inkscape-stroke:none"
           d="m 128.68359,37.236328 c -0.29152,-0.09718 -0.62061,-0.08325 -0.91601,0.06445 -0.59079,0.295408 -0.83252,1.01856 -0.53711,1.609375 0.2954,0.59081 1.01856,0.832517 1.60937,0.53711 0.59079,-0.295408 0.83252,-1.01856 0.53711,-1.609375 -0.1477,-0.295405 -0.40183,-0.504387 -0.69336,-0.601563 z m -0.0898,0.267578 c 0.22248,0.07416 0.41769,0.23187 0.53125,0.458985 0.22711,0.454231 0.044,1.005306 -0.41016,1.232421 -0.45423,0.227117 -1.00335,0.04407 -1.23046,-0.410156 -0.22712,-0.454231 -0.0441,-1.005306 0.41015,-1.232422 0.22712,-0.113558 0.47674,-0.122987 0.69922,-0.04883 z"
           id="path2193" />
      </g>
    </g>
  </g>
  <g
     id="path958"
     transform="translate(5.153043,-0.11900941)">
    <path
       style="color:#000000;fill:#0084c8;-inkscape-stroke:none"
       d="m 149.49023,38.177734 -5.38671,5.384766 0.1875,0.1875 5.19921,-5.197266 5.19727,5.197266 0.1875,-0.1875 z"
       id="path2255" />
    <g
       id="g2223">
      <g
         id="path2245">
        <path
           style="color:#000000;fill:#0084c8;fill-rule:evenodd;stroke-width:0.211666pt;-inkscape-stroke:none"
           d="m 155.51462,44.389637 c -0.4131,0.413091 -1.08362,0.413091 -1.49671,-10e-7 -0.41309,-0.413092 -0.41309,-1.083617 0,-1.496708 0.41309,-0.41309 1.08362,-0.41309 1.49671,2e-6 0.41309,0.413092 0.41309,1.083616 0,1.496707 z"
           id="path2249" />
        <path
           style="color:#000000;fill:#0084c8;fill-rule:evenodd;-inkscape-stroke:none"
           d="m 154.76562,42.443359 c -0.30729,0 -0.61411,0.116071 -0.84765,0.34961 -0.46708,0.467078 -0.46708,1.230186 0,1.697265 0.46708,0.467079 1.23018,0.467076 1.69726,0 0.46708,-0.467078 0.46708,-1.230186 0,-1.697265 -0.23353,-0.23354 -0.54231,-0.349609 -0.84961,-0.34961 z m 0,0.279297 c 0.23452,0 0.46889,0.08998 0.64844,0.269531 0.35911,0.359105 0.3591,0.937772 0,1.296875 -0.35911,0.359106 -0.93777,0.359105 -1.29687,0 -0.3591,-0.359104 -0.3591,-0.937771 0,-1.296875 0.17955,-0.17955 0.41392,-0.269531 0.64843,-0.269531 z"
           id="path2251" />
      </g>
      <g
         id="path2235">
        <path
           style="color:#000000;fill:#0084c8;fill-rule:evenodd;stroke-width:0.211666pt;-inkscape-stroke:none"
           d="m 150.52674,38.36458 c 0,0.584199 -0.47414,1.058332 -1.05834,1.058332 -0.5842,0 -1.05833,-0.474133 -1.05833,-1.058332 0,-0.584199 0.47413,-1.058332 1.05833,-1.058332 0.5842,0 1.05834,0.474133 1.05834,1.058332 z"
           id="path2239" />
        <path
           style="color:#000000;fill:#0084c8;fill-rule:evenodd;-inkscape-stroke:none"
           d="m 149.46875,37.166016 c -0.66055,0 -1.19922,0.538671 -1.19922,1.199218 0,0.660548 0.53867,1.199219 1.19922,1.199219 0.66055,0 1.19922,-0.538669 1.19922,-1.199219 0,-0.660549 -0.53867,-1.199218 -1.19922,-1.199218 z m 0,0.28125 c 0.50785,0 0.91602,0.410121 0.91602,0.917968 0,0.507848 -0.40817,0.916016 -0.91602,0.916016 -0.50785,0 -0.91797,-0.408166 -0.91797,-0.916016 0,-0.507849 0.41012,-0.917968 0.91797,-0.917968 z"
           id="path2241" />
      </g>
      <g
         id="path2225">
        <path
           style="color:#000000;fill:#0084c8;fill-rule:evenodd;stroke-width:0.211666pt;-inkscape-stroke:none"
           d="m 144.93129,42.922863 c 0.41309,0.413092 0.41309,1.083617 0,1.496708 -0.41309,0.413091 -1.08362,0.413091 -1.49671,0 -0.41309,-0.413091 -0.41309,-1.083616 0,-1.496708 0.41309,-0.413091 1.08362,-0.413091 1.49671,0 z"
           id="path2229" />
        <path
           style="color:#000000;fill:#0084c8;fill-rule:evenodd;-inkscape-stroke:none"
           d="m 144.18359,42.472656 c -0.30729,0 -0.61607,0.11607 -0.84961,0.34961 -0.46707,0.467079 -0.46707,1.230187 0,1.697265 0.46708,0.467079 1.23019,0.467079 1.69727,0 0.46708,-0.467078 0.46708,-1.230186 0,-1.697265 -0.23354,-0.23354 -0.54036,-0.34961 -0.84766,-0.34961 z m 0,0.28125 c 0.23452,0 0.46889,0.08998 0.64844,0.269531 0.3591,0.359105 0.3591,0.937772 0,1.296875 -0.3591,0.359103 -0.93777,0.359103 -1.29687,0 -0.35911,-0.359103 -0.35911,-0.93777 0,-1.296875 0.17955,-0.179551 0.41392,-0.269531 0.64843,-0.269531 z"
           id="path2231" />
      </g>
    </g>
  </g>
  <g
     id="path1307"
     transform="translate(5.153043,-0.11900941)">
    <path
       style="color:#000000;fill:#ba00ff;-inkscape-stroke:none"
       d="M 1.2285156,38.271484 -4.0625,43.5625 -3.875,43.75 1.4160156,38.458984 Z"
       id="path2273" />
    <g
       id="g2261">
      <g
         id="path2263">
        <path
           style="color:#000000;fill:#ba00ff;fill-rule:evenodd;stroke-width:0.211666pt;-inkscape-stroke:none"
           d="m -4.7021367,44.389637 c -0.4130912,-0.413092 -0.4130912,-1.083617 10e-8,-1.496708 0.4130913,-0.413091 1.0836162,-0.413091 1.4967075,0 0.4130912,0.413092 0.4130911,1.083616 -2e-7,1.496708 -0.4130913,0.413091 -1.0836162,0.413091 -1.4967074,0 z"
           id="path2267" />
        <path
           style="color:#000000;fill:#ba00ff;fill-rule:evenodd;-inkscape-stroke:none"
           d="m -3.953125,42.443359 c -0.307297,0 -0.6160702,0.116071 -0.8496094,0.34961 -0.4670783,0.467078 -0.467078,1.230186 0,1.697265 0.4670782,0.467078 1.2301874,0.467078 1.6972656,0 0.4670781,-0.467078 0.467078,-1.230186 0,-1.697265 -0.2335391,-0.233539 -0.5403592,-0.34961 -0.8476562,-0.34961 z m 0,0.279297 c 0.2345105,0 0.4688857,0.08998 0.6484375,0.269531 0.3591036,0.359105 0.3591038,0.937771 0,1.296875 -0.3591035,0.359104 -0.9377716,0.359104 -1.296875,0 -0.3591036,-0.359104 -0.3591035,-0.937771 0,-1.296875 0.1795518,-0.179551 0.413927,-0.269531 0.6484375,-0.269531 z"
           id="path2269" />
      </g>
    </g>
  </g>
  <g
     id="path1389"
     transform="translate(5.153043,-0.11900941)">
    <path
       style="color:#000000;fill:#ff4141;-inkscape-stroke:none"
       d="m 30.427734,40.824219 -5.386718,5.384765 0.1875,0.1875 5.199218,-5.199218 5.197266,5.199218 0.1875,-0.1875 z"
       id="path2311" />
    <g
       id="g2279">
      <g
         id="path2301">
        <path
           style="color:#000000;fill:#ff4141;fill-rule:evenodd;stroke-width:0.211666pt;-inkscape-stroke:none"
           d="m 36.452137,47.035474 c -0.413091,0.413091 -1.083616,0.413091 -1.496707,-10e-7 -0.413091,-0.413091 -0.413091,-1.083616 0,-1.496707 0.413092,-0.413091 1.083617,-0.413091 1.496708,0 0.413091,0.413092 0.413091,1.083617 -10e-7,1.496708 z"
           id="path2305" />
        <path
           style="color:#000000;fill:#ff4141;fill-rule:evenodd;-inkscape-stroke:none"
           d="m 35.703125,45.087891 c -0.307297,0 -0.614117,0.118023 -0.847656,0.351562 -0.467078,0.467078 -0.467078,1.228235 0,1.695313 0.467078,0.467079 1.230187,0.467078 1.697265,0 0.467079,-0.467078 0.467078,-1.228234 0,-1.695313 -0.233539,-0.233539 -0.542312,-0.351562 -0.849609,-0.351562 z m 0,0.28125 c 0.234511,0 0.468886,0.08998 0.648437,0.269531 0.359104,0.359104 0.359105,0.937772 0,1.296875 -0.359103,0.359103 -0.937771,0.359104 -1.296875,0 -0.359103,-0.359103 -0.359103,-0.937772 0,-1.296875 0.179553,-0.179552 0.413927,-0.269531 0.648438,-0.269531 z"
           id="path2307" />
      </g>
      <g
         id="path2291">
        <path
           style="color:#000000;fill:#ff4141;fill-rule:evenodd;stroke-width:0.211666pt;-inkscape-stroke:none"
           d="m 31.464248,41.010417 c 0,0.584199 -0.474132,1.058332 -1.058332,1.058332 -0.584199,0 -1.058332,-0.474133 -1.058332,-1.058332 0,-0.584199 0.474133,-1.058332 1.058332,-1.058332 0.5842,0 1.058332,0.474133 1.058332,1.058332 z"
           id="path2295" />
        <path
           style="color:#000000;fill:#ff4141;fill-rule:evenodd;-inkscape-stroke:none"
           d="m 30.40625,39.810547 c -0.660548,0 -1.199219,0.53867 -1.199219,1.199219 0,0.660548 0.538671,1.199218 1.199219,1.199218 0.660549,0 1.199219,-0.53867 1.199219,-1.199218 0,-0.660548 -0.53867,-1.199219 -1.199219,-1.199219 z m 0,0.283203 c 0.50785,0 0.916016,0.408167 0.916016,0.916016 0,0.507848 -0.408166,0.917968 -0.916016,0.917968 -0.507849,0 -0.917969,-0.41012 -0.917969,-0.917968 0,-0.507849 0.41012,-0.916016 0.917969,-0.916016 z"
           id="path2297" />
      </g>
      <g
         id="path2281">
        <path
           style="color:#000000;fill:#ff4141;fill-rule:evenodd;stroke-width:0.211666pt;-inkscape-stroke:none"
           d="m 25.868803,45.5687 c 0.413092,0.413091 0.413092,1.083616 1e-6,1.496708 -0.413091,0.413091 -1.083616,0.413091 -1.496707,0 -0.413092,-0.413091 -0.413092,-1.083616 -1e-6,-1.496707 0.413091,-0.413092 1.083616,-0.413092 1.496707,-10e-7 z"
           id="path2285" />
        <path
           style="color:#000000;fill:#ff4141;fill-rule:evenodd;-inkscape-stroke:none"
           d="m 25.121094,45.119141 c -0.307297,0 -0.616071,0.116069 -0.84961,0.349609 -0.467078,0.467078 -0.467079,1.230188 0,1.697266 0.467078,0.467078 1.230188,0.467078 1.697266,0 0.467078,-0.467079 0.467079,-1.230188 0,-1.697266 -0.233539,-0.233539 -0.540359,-0.34961 -0.847656,-0.349609 z m 0,0.279296 c 0.23451,0 0.468886,0.08998 0.648437,0.269532 0.359104,0.359103 0.359104,0.93777 0,1.296875 -0.359103,0.359103 -0.937772,0.359103 -1.296875,0 -0.359104,-0.359104 -0.359103,-0.937772 0,-1.296875 0.179552,-0.179552 0.413927,-0.269531 0.648438,-0.269532 z"
           id="path2287" />
      </g>
    </g>
  </g>
  <g
     id="g1211"
     transform="translate(10.444059,4.9858079)">
    <path
       style="color:#000000;fill:#ba00ff;-inkscape-stroke:none"
       d="m 6.6152344,32.886719 -5.3867188,5.384765 0.1875,0.1875 L 6.6152344,33.259766 11.8125,38.458984 12,38.271484 Z"
       id="path1189" />
    <g
       id="g1209">
      <g
         id="g1195">
        <path
           style="color:#000000;fill:#ba00ff;fill-rule:evenodd;stroke-width:0.211666pt;-inkscape-stroke:none"
           d="m 12.639637,39.097974 c -0.413091,0.413091 -1.083616,0.413091 -1.496707,-10e-7 -0.413091,-0.413091 -0.413091,-1.083616 0,-1.496707 0.413092,-0.413091 1.083617,-0.413091 1.496708,0 0.413091,0.413092 0.413091,1.083617 -10e-7,1.496708 z"
           id="path1191" />
        <path
           style="color:#000000;fill:#ba00ff;fill-rule:evenodd;-inkscape-stroke:none"
           d="m 11.890625,37.150391 c -0.307297,0 -0.614117,0.118023 -0.847656,0.351562 -0.467078,0.467078 -0.467078,1.228235 0,1.695313 0.467078,0.467079 1.230187,0.467078 1.697265,0 0.467079,-0.467078 0.467078,-1.228234 0,-1.695313 -0.233539,-0.233539 -0.542312,-0.351562 -0.849609,-0.351562 z m 0,0.28125 c 0.234511,0 0.468886,0.08998 0.648438,0.269531 0.359103,0.359104 0.359104,0.937772 0,1.296875 -0.359104,0.359103 -0.937772,0.359104 -1.296875,0 -0.359104,-0.359103 -0.359104,-0.937772 0,-1.296875 0.179552,-0.179552 0.413926,-0.269531 0.648437,-0.269531 z"
           id="path1193" />
      </g>
      <g
         id="g1201">
        <path
           style="color:#000000;fill:#ba00ff;fill-rule:evenodd;stroke-width:0.211666pt;-inkscape-stroke:none"
           d="m 7.6517486,33.072917 c 0,0.584199 -0.4741327,1.058332 -1.0583319,1.058332 -0.5841993,0 -1.058332,-0.474133 -1.058332,-1.058332 0,-0.584199 0.4741327,-1.058332 1.058332,-1.058332 0.5841992,0 1.0583319,0.474133 1.0583319,1.058332 z"
           id="path1197" />
        <path
           style="color:#000000;fill:#ba00ff;fill-rule:evenodd;-inkscape-stroke:none"
           d="m 6.59375,31.873047 c -0.6605484,0 -1.1992188,0.538671 -1.1992188,1.199219 0,0.660548 0.5386704,1.199218 1.1992188,1.199218 0.6605483,0 1.1992188,-0.53867 1.1992187,-1.199218 10e-8,-0.660548 -0.5386704,-1.199219 -1.1992187,-1.199219 z m 0,0.283203 c 0.5078489,0 0.9160156,0.408167 0.9160156,0.916016 0,0.507848 -0.4081667,0.917968 -0.9160156,0.917968 -0.507849,0 -0.9179688,-0.41012 -0.9179688,-0.917968 0,-0.507849 0.4101198,-0.916016 0.9179688,-0.916016 z"
           id="path1199" />
      </g>
      <g
         id="g1207">
        <path
           style="color:#000000;fill:#ba00ff;fill-rule:evenodd;stroke-width:0.211666pt;-inkscape-stroke:none"
           d="m 2.0563037,37.6312 c 0.4130914,0.413091 0.4130916,1.083616 5e-7,1.496708 -0.4130911,0.413091 -1.08361599,0.413091 -1.4967074,0 -0.4130914,-0.413091 -0.41309165,-1.083616 -5.6e-7,-1.496707 0.41309109,-0.413092 1.08361606,-0.413092 1.49670746,-10e-7 z"
           id="path1203" />
        <path
           style="color:#000000;fill:#ba00ff;fill-rule:evenodd;-inkscape-stroke:none"
           d="m 1.3085937,37.181641 c -0.307297,0 -0.61607032,0.116069 -0.84960932,0.349609 -0.46707811,0.467078 -0.4670784,1.230188 0,1.697266 0.46707836,0.467078 1.23018752,0.467078 1.69726562,0 0.4670779,-0.467079 0.4670784,-1.230188 0,-1.697266 C 1.9227108,37.297711 1.6158908,37.18164 1.3085937,37.181641 Z m 0,0.279296 c 0.2345105,0 0.4688857,0.08998 0.6484375,0.269532 0.3591036,0.359103 0.3591035,0.937771 0,1.296875 -0.3591033,0.359103 -0.9377713,0.359103 -1.29687495,0 -0.35910358,-0.359103 -0.35910325,-0.937772 0,-1.296875 0.17955167,-0.179552 0.41392705,-0.269531 0.64843745,-0.269532 z"
           id="path1205" />
      </g>
    </g>
  </g>
</svg>
