<?xml version="1.0" encoding="UTF-8" standalone="no"?>
<!-- Created with Inkscape (http://www.inkscape.org/) -->

<svg
   width="127.31939mm"
   height="35.340359mm"
   viewBox="0 0 127.31939 35.340359"
   version="1.1"
   id="svg5"
   sodipodi:docname="pointer_address_C.svg"
   inkscape:version="1.1 (c4e8f9e, 2021-05-24)"
   xmlns:inkscape="http://www.inkscape.org/namespaces/inkscape"
   xmlns:sodipodi="http://sodipodi.sourceforge.net/DTD/sodipodi-0.dtd"
   xmlns="http://www.w3.org/2000/svg"
   xmlns:svg="http://www.w3.org/2000/svg"
   xmlns:ns30="http://www.iki.fi/pav/software/textext/">
  <sodipodi:namedview
     id="namedview990"
     pagecolor="#ffffff"
     bordercolor="#666666"
     borderopacity="1.0"
     inkscape:pageshadow="2"
     inkscape:pageopacity="0.0"
     inkscape:pagecheckerboard="0"
     inkscape:document-units="mm"
     showgrid="false"
     inkscape:snap-global="true"
     inkscape:zoom="1.3425636"
     inkscape:cx="275.21973"
     inkscape:cy="96.457253"
     inkscape:window-width="1440"
     inkscape:window-height="847"
     inkscape:window-x="2430"
     inkscape:window-y="25"
     inkscape:window-maximized="0"
     inkscape:current-layer="svg5">
    <inkscape:grid
       type="xygrid"
       id="grid1078"
       originx="31.882291"
       originy="-1.0904167" />
  </sodipodi:namedview>
  <defs
     id="defs2">
    <marker
       style="overflow:visible"
       id="TriangleOutM"
       refX="0"
       refY="0"
       orient="auto"
       inkscape:stockid="TriangleOutM"
       inkscape:isstock="true">
      <path
         transform="scale(0.4)"
         style="fill:context-stroke;fill-rule:evenodd;stroke:context-stroke;stroke-width:1pt"
         d="M 5.77,0 -2.88,5 V -5 Z"
         id="path2144" />
    </marker>
    <marker
       style="overflow:visible"
       id="Arrow2Mend"
       refX="0"
       refY="0"
       orient="auto">
      <path
         transform="scale(-0.6)"
         d="M 8.7185878,4.0337352 -2.2072895,0.01601326 8.7185884,-4.0017078 c -1.7454984,2.3720609 -1.7354408,5.6174519 -6e-7,8.035443 z"
         style="fill:context-stroke;fill-rule:evenodd;stroke-width:0.625;stroke-linejoin:round"
         id="path2876" />
    </marker>
    <defs
       id="id-66e91c71-fbd2-443d-b89f-98f7f56304fc">
      <g
         id="id-3e43c9f3-d2f1-4448-97c4-24caab45b7e5">
        <symbol
           overflow="visible"
           id="id-8ca26b10-0f2e-4a9f-82d0-aebfc318aad7">
          <path
             style="stroke:none;stroke-width:0"
             d=""
             id="id-43f35af7-0418-4a96-acbf-015f588e8113" />
        </symbol>
        <symbol
           overflow="visible"
           id="id-4e51cae1-b71f-40e6-8e97-04aae7b96124">
          <path
             style="stroke:none;stroke-width:0"
             d="m 4.71875,-3.046875 c 0,-1.84375 -1.015625,-3.15625 -2.109375,-3.15625 C 1.5,-6.203125 0.5,-4.859375 0.5,-3.046875 c 0,1.84375 1.015625,3.15625 2.109375,3.15625 1.125,0 2.109375,-1.328125 2.109375,-3.15625 z M 2.609375,-0.5 C 1.828125,-0.5 1.1875,-1.671875 1.1875,-3.15625 c 0,-1.453125 0.6875,-2.4375 1.421875,-2.4375 0.734375,0 1.421875,0.984375 1.421875,2.4375 0,1.484375 -0.640625,2.65625 -1.421875,2.65625 z m 0,0"
             id="id-07d3a38a-2eed-4768-990b-08b16fa479d8" />
        </symbol>
        <symbol
           overflow="visible"
           id="id-db396990-0825-4b4a-a570-ecbd1ef4cb51">
          <path
             style="stroke:none;stroke-width:0"
             d="M 2.859375,-2.21875 4,-3.6875 h 0.390625 c 0.140625,0 0.421875,0 0.421875,-0.296875 0,-0.3125 -0.265625,-0.3125 -0.421875,-0.3125 h -1.15625 c -0.15625,0 -0.40625,0 -0.40625,0.296875 0,0.3125 0.21875,0.3125 0.484375,0.3125 l -0.734375,1 -0.75,-1 c 0.25,0 0.46875,0 0.46875,-0.3125 0,-0.296875 -0.25,-0.296875 -0.390625,-0.296875 H 0.734375 c -0.140625,0 -0.40625,0 -0.40625,0.3125 0,0.296875 0.265625,0.296875 0.40625,0.296875 h 0.40625 L 2.3125,-2.21875 1.078125,-0.609375 h -0.40625 c -0.140625,0 -0.40625,0 -0.40625,0.3125 C 0.265625,0 0.53125,0 0.671875,0 H 1.84375 C 2,0 2.25,0 2.25,-0.296875 c 0,-0.3125 -0.21875,-0.3125 -0.53125,-0.3125 l 0.859375,-1.21875 0.890625,1.21875 c -0.28125,0 -0.5,0 -0.5,0.3125 C 2.96875,0 3.21875,0 3.375,0 h 1.15625 c 0.140625,0 0.40625,0 0.40625,-0.296875 0,-0.3125 -0.25,-0.3125 -0.40625,-0.3125 H 4.140625 Z m 0,0"
             id="id-0f37a8fa-142e-4dc1-b8f7-70ed2ed93f7b" />
        </symbol>
        <symbol
           overflow="visible"
           id="id-f7bec28d-47c2-4a83-ac5f-de3230808b8f">
          <path
             style="stroke:none;stroke-width:0"
             d="m 3.09375,-5.796875 c 0,-0.15625 0,-0.40625 -0.296875,-0.40625 -0.1875,0 -0.25,0.125 -0.296875,0.234375 C 2.125,-5.109375 1.609375,-5 1.421875,-4.984375 c -0.171875,0.015625 -0.375,0.03125 -0.375,0.3125 0,0.25 0.171875,0.296875 0.328125,0.296875 0.1875,0 0.59375,-0.0625 1.03125,-0.4375 v 4.203125 H 1.5 c -0.15625,0 -0.390625,0 -0.390625,0.3125 C 1.109375,0 1.359375,0 1.5,0 H 4 c 0.15625,0 0.40625,0 0.40625,-0.296875 0,-0.3125 -0.234375,-0.3125 -0.40625,-0.3125 H 3.09375 Z m 0,0"
             id="id-82657010-7907-4a7f-9dcb-fe34446eb6d7" />
        </symbol>
        <symbol
           overflow="visible"
           id="id-bd77fb0d-9c04-4911-9685-d232f498804d">
          <path
             style="stroke:none;stroke-width:0"
             d="M 0.671875,-0.578125 C 0.578125,-0.5 0.515625,-0.453125 0.515625,-0.3125 0.515625,0 0.765625,0 0.921875,0 H 4.3125 c 0.328125,0 0.390625,-0.09375 0.390625,-0.40625 v -0.265625 c 0,-0.1875 0,-0.40625 -0.34375,-0.40625 -0.34375,0 -0.34375,0.1875 -0.34375,0.46875 h -2.375 c 0.59375,-0.5 1.546875,-1.25 1.984375,-1.65625 0.625,-0.5625 1.078125,-1.1875 1.078125,-1.984375 0,-1.203125 -1,-1.953125 -2.21875,-1.953125 -1.171875,0 -1.96875,0.8125 -1.96875,1.671875 0,0.359375 0.28125,0.46875 0.453125,0.46875 0.203125,0 0.4375,-0.171875 0.4375,-0.4375 0,-0.125 -0.046875,-0.25 -0.140625,-0.328125 0.15625,-0.453125 0.625,-0.765625 1.171875,-0.765625 0.8125,0 1.578125,0.453125 1.578125,1.34375 0,0.6875 -0.484375,1.265625 -1.140625,1.8125 z m 0,0"
             id="id-067610e0-6ffd-4ccd-b22c-14200f3da5f4" />
        </symbol>
        <symbol
           overflow="visible"
           id="id-b627a2aa-56e2-496c-bee2-34823e395399">
          <path
             style="stroke:none;stroke-width:0"
             d="M 3.65625,-3.328125 C 4.21875,-3.6875 4.5,-4.25 4.5,-4.796875 c 0,-0.734375 -0.734375,-1.40625 -1.875,-1.40625 -1.203125,0 -1.890625,0.484375 -1.890625,1.171875 0,0.328125 0.25,0.46875 0.4375,0.46875 0.21875,0 0.4375,-0.171875 0.4375,-0.453125 0,-0.140625 -0.046875,-0.234375 -0.078125,-0.265625 0.296875,-0.3125 1.015625,-0.3125 1.09375,-0.3125 0.6875,0 1.1875,0.359375 1.1875,0.8125 0,0.296875 -0.15625,0.640625 -0.421875,0.859375 C 3.078125,-3.65625 2.828125,-3.640625 2.46875,-3.625 1.890625,-3.578125 1.75,-3.578125 1.75,-3.296875 c 0,0.3125 0.234375,0.3125 0.390625,0.3125 h 0.46875 c 0.984375,0 1.484375,0.671875 1.484375,1.25 C 4.09375,-1.125 3.53125,-0.5 2.625,-0.5 2.234375,-0.5 1.46875,-0.609375 1.203125,-1.078125 1.25,-1.125 1.328125,-1.1875 1.328125,-1.390625 c 0,-0.234375 -0.1875,-0.4375 -0.4375,-0.4375 -0.234375,0 -0.453125,0.15625 -0.453125,0.46875 0,0.890625 0.96875,1.46875 2.1875,1.46875 1.3125,0 2.15625,-0.921875 2.15625,-1.84375 0,-0.703125 -0.46875,-1.296875 -1.125,-1.59375 z m 0,0"
             id="id-703377a4-fc30-4de2-9a23-bd5dc09cf8ec" />
        </symbol>
        <symbol
           overflow="visible"
           id="id-5736ac5c-d96a-43f8-b06b-f3d70ae77b9f">
          <path
             style="stroke:none;stroke-width:0"
             d="M 0.375,-2.4375 C 0.296875,-2.296875 0.296875,-2.28125 0.296875,-2.078125 0.296875,-1.75 0.375,-1.6875 0.6875,-1.6875 h 2.515625 v 1.078125 h -0.625 c -0.15625,0 -0.390625,0 -0.390625,0.3125 C 2.1875,0 2.4375,0 2.578125,0 H 4.375 c 0.15625,0 0.40625,0 0.40625,-0.296875 0,-0.3125 -0.25,-0.3125 -0.40625,-0.3125 H 3.765625 V -1.6875 H 4.53125 c 0.15625,0 0.40625,0 0.40625,-0.296875 0,-0.3125 -0.25,-0.3125 -0.40625,-0.3125 H 3.765625 v -3.5 c 0,-0.328125 -0.078125,-0.40625 -0.421875,-0.40625 H 3.078125 c -0.25,0 -0.296875,0 -0.421875,0.203125 z m 0.609375,0.140625 2.21875,-3.46875 v 3.46875 z m 0,0"
             id="id-f4e320aa-3fb8-4ad7-ba9d-0d0854697f11" />
        </symbol>
      </g>
    </defs>
    <defs
       id="id-336fd9cc-2ab7-4da7-b5d7-c22de7fce35b">
      <g
         id="id-3fdf8032-a15e-4313-962b-f515bbfb2bcb">
        <symbol
           overflow="visible"
           id="id-5b2f7f8a-0794-44e2-9967-e3a612aa0d5e">
          <path
             style="stroke:none;stroke-width:0"
             d=""
             id="id-f3c1bf64-f935-4c25-8349-af0313c10c5a" />
        </symbol>
        <symbol
           overflow="visible"
           id="id-42e90823-1442-416f-ab1c-a90a1212ddec">
          <path
             style="stroke:none;stroke-width:0"
             d="m 3.078125,-3.890625 c 0,-0.3125 -0.0625,-0.40625 -0.390625,-0.40625 H 1.265625 c -0.15625,0 -0.40625,0 -0.40625,0.296875 0,0.3125 0.25,0.3125 0.40625,0.3125 h 1.125 v 3.078125 H 1.1875 c -0.15625,0 -0.40625,0 -0.40625,0.3125 C 0.78125,0 1.03125,0 1.1875,0 H 4.125 c 0.15625,0 0.40625,0 0.40625,-0.296875 0,-0.3125 -0.25,-0.3125 -0.40625,-0.3125 H 3.078125 Z m 0,-1.71875 c 0,-0.265625 -0.21875,-0.484375 -0.5,-0.484375 -0.28125,0 -0.5,0.21875 -0.5,0.484375 0,0.28125 0.21875,0.5 0.5,0.5 0.28125,0 0.5,-0.21875 0.5,-0.5 z m 0,0"
             id="id-25a8ed5b-4417-4730-ab5a-5de7c7ab537e" />
        </symbol>
        <symbol
           overflow="visible"
           id="id-ee3a2017-bca7-46da-a6e9-36cb6e802daf">
          <path
             style="stroke:none;stroke-width:0"
             d="m 3.671875,-3.890625 c 0,-0.3125 -0.0625,-0.40625 -0.40625,-0.40625 H 1.6875 c -0.15625,0 -0.40625,0 -0.40625,0.3125 0,0.296875 0.25,0.296875 0.40625,0.296875 h 1.296875 v 4.078125 c 0,0.171875 0,0.546875 -0.265625,0.890625 C 2.453125,1.671875 2.140625,1.671875 1.90625,1.671875 1.625,1.671875 1.5,1.640625 1.359375,1.625 c 0,-0.03125 0,-0.046875 0,-0.125 0,-0.28125 -0.21875,-0.4375 -0.4375,-0.4375 -0.21875,0 -0.4375,0.15625 -0.4375,0.453125 0,0.75 0.96875,0.75 1.375,0.75 1.453125,0 1.8125,-1.1875 1.8125,-1.828125 z m 0,-1.71875 c 0,-0.265625 -0.21875,-0.484375 -0.5,-0.484375 -0.28125,0 -0.5,0.21875 -0.5,0.484375 0,0.28125 0.21875,0.5 0.5,0.5 0.28125,0 0.5,-0.21875 0.5,-0.5 z m 0,0"
             id="id-ddee100d-29f9-4fb7-b0c9-878a4baf18a2" />
        </symbol>
        <symbol
           overflow="visible"
           id="id-1f913c11-244e-4c8c-91e4-e1fc059497cb">
          <path
             style="stroke:none;stroke-width:0"
             d="m 1.65625,-2.625 c 0,-0.59375 0.578125,-1.125 1.203125,-1.125 0.734375,0 1.3125,0.734375 1.3125,1.59375 0,0.953125 -0.6875,1.609375 -1.390625,1.609375 -0.78125,0 -1.125,-0.875 -1.125,-1.359375 z m 0,2.171875 C 2.0625,-0.03125 2.5,0.0625 2.8125,0.0625 c 1.078125,0 2.046875,-0.953125 2.046875,-2.21875 0,-1.21875 -0.875,-2.203125 -1.9375,-2.203125 C 2.4375,-4.359375 2,-4.171875 1.65625,-3.875 1.65625,-4.15625 1.640625,-4.296875 1.25,-4.296875 H 0.53125 c -0.15625,0 -0.40625,0 -0.40625,0.3125 0,0.296875 0.25,0.296875 0.390625,0.296875 H 0.96875 v 5.296875 h -0.4375 c -0.15625,0 -0.40625,0 -0.40625,0.296875 0,0.3125 0.25,0.3125 0.390625,0.3125 h 1.59375 C 2.25,2.21875 2.5,2.21875 2.5,1.90625 2.5,1.609375 2.25,1.609375 2.09375,1.609375 h -0.4375 z m 0,0"
             id="id-70b5d282-bb0a-4151-8bda-e29535cf3150" />
        </symbol>
        <symbol
           overflow="visible"
           id="id-2268bc31-0957-40de-b2b0-bdf43723cb32">
          <path
             style="stroke:none;stroke-width:0"
             d="m 4.46875,-3.953125 c 0,-0.1875 0,-0.40625 -0.34375,-0.40625 -0.34375,0 -0.34375,0.171875 -0.34375,0.546875 -0.265625,-0.28125 -0.6875,-0.546875 -1.25,-0.546875 -1.109375,0 -2.125,0.953125 -2.125,2.21875 0,1.234375 0.921875,2.203125 2.03125,2.203125 0.671875,0 1.125,-0.375 1.34375,-0.59375 V 1.609375 H 3.296875 c -0.15625,0 -0.40625,0 -0.40625,0.296875 0,0.3125 0.234375,0.3125 0.40625,0.3125 h 1.65625 c 0.15625,0 0.40625,0 0.40625,-0.3125 0,-0.296875 -0.25,-0.296875 -0.40625,-0.296875 H 4.46875 Z M 3.78125,-1.9375 c 0,0.578125 -0.484375,1.390625 -1.3125,1.390625 -0.734375,0 -1.375,-0.703125 -1.375,-1.59375 0,-0.921875 0.6875,-1.609375 1.484375,-1.609375 0.75,0 1.203125,0.765625 1.203125,1.421875 z m 0,0"
             id="id-6e6e3df2-3452-45a0-9073-aa88cac62de2" />
        </symbol>
      </g>
    </defs>
    <defs
       id="id-f24aff7d-9830-4361-8cc4-e0200943f938">
      <g
         id="id-9ce6878e-6b5c-4fe6-9157-917d1e02a88f">
        <symbol
           overflow="visible"
           id="id-6c469c96-6098-423e-9d32-ac8b390b0bc3">
          <path
             style="stroke:none;stroke-width:0"
             d=""
             id="id-f986600d-6aef-4de1-b559-94303e0e9fbe" />
        </symbol>
        <symbol
           overflow="visible"
           id="id-edbbd07d-992f-4544-a955-936c34a8ad0d">
          <path
             style="stroke:none;stroke-width:0"
             d="m 3.09375,-5.796875 c 0,-0.15625 0,-0.40625 -0.296875,-0.40625 -0.1875,0 -0.25,0.125 -0.296875,0.234375 C 2.125,-5.109375 1.609375,-5 1.421875,-4.984375 c -0.171875,0.015625 -0.375,0.03125 -0.375,0.3125 0,0.25 0.171875,0.296875 0.328125,0.296875 0.1875,0 0.59375,-0.0625 1.03125,-0.4375 v 4.203125 H 1.5 c -0.15625,0 -0.390625,0 -0.390625,0.3125 C 1.109375,0 1.359375,0 1.5,0 H 4 c 0.15625,0 0.40625,0 0.40625,-0.296875 0,-0.3125 -0.234375,-0.3125 -0.40625,-0.3125 H 3.09375 Z m 0,0"
             id="id-1a59ad45-0bb1-47bb-8ddf-b460bcd777c7" />
        </symbol>
        <symbol
           overflow="visible"
           id="id-f114b0ff-6c10-4884-a796-0c6e3a004bc4">
          <path
             style="stroke:none;stroke-width:0"
             d="m 3.765625,-5.484375 c -1.734375,1.828125 -2.078125,4.03125 -2.078125,5.125 0,0.140625 0,0.46875 0.359375,0.46875 C 2.21875,0.109375 2.375,0 2.375,-0.296875 2.4375,-3.125 3.953125,-4.859375 4.5625,-5.4375 4.765625,-5.625 4.78125,-5.640625 4.78125,-5.78125 c 0,-0.3125 -0.234375,-0.3125 -0.390625,-0.3125 H 1.09375 C 1.03125,-6.25 0.859375,-6.25 0.78125,-6.25 0.4375,-6.25 0.4375,-6.03125 0.4375,-5.84375 v 0.421875 c 0,0.1875 0,0.40625 0.34375,0.40625 0.34375,0 0.34375,-0.1875 0.34375,-0.46875 z m 0,0"
             id="id-97847da4-e1e8-4d03-abf8-e32cc703acd0" />
        </symbol>
        <symbol
           overflow="visible"
           id="id-4702cfc9-6a4c-4413-881d-ecd138ca4d28">
          <path
             style="stroke:none;stroke-width:0"
             d="M 3.65625,-3.328125 C 4.21875,-3.6875 4.5,-4.25 4.5,-4.796875 c 0,-0.734375 -0.734375,-1.40625 -1.875,-1.40625 -1.203125,0 -1.890625,0.484375 -1.890625,1.171875 0,0.328125 0.25,0.46875 0.4375,0.46875 0.21875,0 0.4375,-0.171875 0.4375,-0.453125 0,-0.140625 -0.046875,-0.234375 -0.078125,-0.265625 0.296875,-0.3125 1.015625,-0.3125 1.09375,-0.3125 0.6875,0 1.1875,0.359375 1.1875,0.8125 0,0.296875 -0.15625,0.640625 -0.421875,0.859375 C 3.078125,-3.65625 2.828125,-3.640625 2.46875,-3.625 1.890625,-3.578125 1.75,-3.578125 1.75,-3.296875 c 0,0.3125 0.234375,0.3125 0.390625,0.3125 h 0.46875 c 0.984375,0 1.484375,0.671875 1.484375,1.25 C 4.09375,-1.125 3.53125,-0.5 2.625,-0.5 2.234375,-0.5 1.46875,-0.609375 1.203125,-1.078125 1.25,-1.125 1.328125,-1.1875 1.328125,-1.390625 c 0,-0.234375 -0.1875,-0.4375 -0.4375,-0.4375 -0.234375,0 -0.453125,0.15625 -0.453125,0.46875 0,0.890625 0.96875,1.46875 2.1875,1.46875 1.3125,0 2.15625,-0.921875 2.15625,-1.84375 0,-0.703125 -0.46875,-1.296875 -1.125,-1.59375 z m 0,0"
             id="id-0898d7bf-8b45-4ceb-8cb4-cb2592239abf" />
        </symbol>
        <symbol
           overflow="visible"
           id="id-d2ecf4fb-9f8d-4efa-a99b-159cd6bd168c">
          <path
             style="stroke:none;stroke-width:0"
             d="M 0.671875,-0.578125 C 0.578125,-0.5 0.515625,-0.453125 0.515625,-0.3125 0.515625,0 0.765625,0 0.921875,0 H 4.3125 c 0.328125,0 0.390625,-0.09375 0.390625,-0.40625 v -0.265625 c 0,-0.1875 0,-0.40625 -0.34375,-0.40625 -0.34375,0 -0.34375,0.1875 -0.34375,0.46875 h -2.375 c 0.59375,-0.5 1.546875,-1.25 1.984375,-1.65625 0.625,-0.5625 1.078125,-1.1875 1.078125,-1.984375 0,-1.203125 -1,-1.953125 -2.21875,-1.953125 -1.171875,0 -1.96875,0.8125 -1.96875,1.671875 0,0.359375 0.28125,0.46875 0.453125,0.46875 0.203125,0 0.4375,-0.171875 0.4375,-0.4375 0,-0.125 -0.046875,-0.25 -0.140625,-0.328125 0.15625,-0.453125 0.625,-0.765625 1.171875,-0.765625 0.8125,0 1.578125,0.453125 1.578125,1.34375 0,0.6875 -0.484375,1.265625 -1.140625,1.8125 z m 0,0"
             id="id-9fe19ca6-dda2-4b63-b193-52976d34ef5b" />
        </symbol>
      </g>
    </defs>
    <defs
       id="id-01a6af13-03f2-4cfc-b863-bbae5c20f066">
      <g
         id="id-c5d09caf-41d8-4121-8de1-e0104f240998">
        <symbol
           overflow="visible"
           id="id-b7dcb15d-ef0c-4138-8c45-7a5977483752">
          <path
             style="stroke:none"
             d=""
             id="id-79b30b8d-d623-4f40-a336-d89f0f34c5f6" />
        </symbol>
        <symbol
           overflow="visible"
           id="id-29a104de-8cb3-4463-b714-e5b3a5dbe8b8">
          <path
             style="stroke:none"
             d="m 4.71875,-3.046875 c 0,-1.84375 -1.015625,-3.15625 -2.109375,-3.15625 C 1.5,-6.203125 0.5,-4.859375 0.5,-3.046875 c 0,1.84375 1.015625,3.15625 2.109375,3.15625 1.125,0 2.109375,-1.328125 2.109375,-3.15625 z M 2.609375,-0.5 C 1.828125,-0.5 1.1875,-1.671875 1.1875,-3.15625 c 0,-1.453125 0.6875,-2.4375 1.421875,-2.4375 0.734375,0 1.421875,0.984375 1.421875,2.4375 0,1.484375 -0.640625,2.65625 -1.421875,2.65625 z m 0,0"
             id="id-3c82cf3e-5ac0-424e-9dbb-c3e25c9182ba" />
        </symbol>
        <symbol
           overflow="visible"
           id="id-3190cda0-63e1-41b8-98e9-70e2ff9af4c6">
          <path
             style="stroke:none"
             d="M 2.859375,-2.21875 4,-3.6875 h 0.390625 c 0.140625,0 0.421875,0 0.421875,-0.296875 0,-0.3125 -0.265625,-0.3125 -0.421875,-0.3125 h -1.15625 c -0.15625,0 -0.40625,0 -0.40625,0.296875 0,0.3125 0.21875,0.3125 0.484375,0.3125 l -0.734375,1 -0.75,-1 c 0.25,0 0.46875,0 0.46875,-0.3125 0,-0.296875 -0.25,-0.296875 -0.390625,-0.296875 H 0.734375 c -0.140625,0 -0.40625,0 -0.40625,0.3125 0,0.296875 0.265625,0.296875 0.40625,0.296875 h 0.40625 L 2.3125,-2.21875 1.078125,-0.609375 h -0.40625 c -0.140625,0 -0.40625,0 -0.40625,0.3125 C 0.265625,0 0.53125,0 0.671875,0 H 1.84375 C 2,0 2.25,0 2.25,-0.296875 c 0,-0.3125 -0.21875,-0.3125 -0.53125,-0.3125 l 0.859375,-1.21875 0.890625,1.21875 c -0.28125,0 -0.5,0 -0.5,0.3125 C 2.96875,0 3.21875,0 3.375,0 h 1.15625 c 0.140625,0 0.40625,0 0.40625,-0.296875 0,-0.3125 -0.25,-0.3125 -0.40625,-0.3125 H 4.140625 Z m 0,0"
             id="id-60676959-c47e-4453-8df9-c2ee3a969979" />
        </symbol>
        <symbol
           overflow="visible"
           id="id-6a5f6076-1125-4b0c-b1ad-659450866552">
          <path
             style="stroke:none"
             d="m 3.09375,-5.796875 c 0,-0.15625 0,-0.40625 -0.296875,-0.40625 -0.1875,0 -0.25,0.125 -0.296875,0.234375 C 2.125,-5.109375 1.609375,-5 1.421875,-4.984375 c -0.171875,0.015625 -0.375,0.03125 -0.375,0.3125 0,0.25 0.171875,0.296875 0.328125,0.296875 0.1875,0 0.59375,-0.0625 1.03125,-0.4375 v 4.203125 H 1.5 c -0.15625,0 -0.390625,0 -0.390625,0.3125 C 1.109375,0 1.359375,0 1.5,0 H 4 c 0.15625,0 0.40625,0 0.40625,-0.296875 0,-0.3125 -0.234375,-0.3125 -0.40625,-0.3125 H 3.09375 Z m 0,0"
             id="id-bb552c90-f881-4156-b07e-e669df5df515" />
        </symbol>
        <symbol
           overflow="visible"
           id="id-d0cd5886-e071-4d52-91d8-19940d7659b1">
          <path
             style="stroke:none"
             d="M 0.375,-2.4375 C 0.296875,-2.296875 0.296875,-2.28125 0.296875,-2.078125 0.296875,-1.75 0.375,-1.6875 0.6875,-1.6875 h 2.515625 v 1.078125 h -0.625 c -0.15625,0 -0.390625,0 -0.390625,0.3125 C 2.1875,0 2.4375,0 2.578125,0 H 4.375 c 0.15625,0 0.40625,0 0.40625,-0.296875 0,-0.3125 -0.25,-0.3125 -0.40625,-0.3125 H 3.765625 V -1.6875 H 4.53125 c 0.15625,0 0.40625,0 0.40625,-0.296875 0,-0.3125 -0.25,-0.3125 -0.40625,-0.3125 H 3.765625 v -3.5 c 0,-0.328125 -0.078125,-0.40625 -0.421875,-0.40625 H 3.078125 c -0.25,0 -0.296875,0 -0.421875,0.203125 z m 0.609375,0.140625 2.21875,-3.46875 v 3.46875 z m 0,0"
             id="id-086a437e-c30e-4a36-a9bf-59d9424a7875" />
        </symbol>
        <symbol
           overflow="visible"
           id="id-e581777f-a1ba-4306-8164-4e6cbaff288f">
          <path
             style="stroke:none"
             d="m 2.609375,-3.59375 c -0.71875,0 -1.34375,-0.4375 -1.34375,-1 0,-0.515625 0.5625,-1 1.34375,-1 0.78125,0 1.34375,0.484375 1.34375,1 0,0.5625 -0.609375,1 -1.34375,1 z m 0.796875,0.3125 c 0.796875,-0.265625 1.234375,-0.75 1.234375,-1.328125 0,-0.8125 -0.84375,-1.59375 -2.03125,-1.59375 -1.1875,0 -2.03125,0.796875 -2.03125,1.59375 0,0.578125 0.453125,1.078125 1.25,1.328125 -0.75,0.203125 -1.390625,0.796875 -1.390625,1.546875 0,0.96875 0.921875,1.84375 2.171875,1.84375 1.265625,0 2.171875,-0.875 2.171875,-1.84375 0,-0.75 -0.640625,-1.34375 -1.375,-1.546875 z M 2.609375,-0.5 C 1.78125,-0.5 1.125,-1.0625 1.125,-1.75 c 0,-0.609375 0.578125,-1.234375 1.484375,-1.234375 0.921875,0 1.484375,0.625 1.484375,1.234375 0,0.6875 -0.65625,1.25 -1.484375,1.25 z m 0,0"
             id="id-10723d14-7c15-411b-b6cd-633bad76e66f" />
        </symbol>
        <symbol
           overflow="visible"
           id="id-b3a20e80-13f6-4ebf-ab2b-c01abc453acd">
          <path
             style="stroke:none"
             d="M 1.234375,-3.375 C 1.375,-4.78125 2.3125,-5.59375 3.1875,-5.59375 c 0.34375,0 0.5,0.109375 0.546875,0.15625 -0.046875,0.046875 -0.09375,0.109375 -0.09375,0.296875 0,0.234375 0.171875,0.4375 0.4375,0.4375 0.25,0 0.453125,-0.171875 0.453125,-0.46875 0,-0.484375 -0.359375,-1.03125 -1.328125,-1.03125 -1.34375,0 -2.671875,1.203125 -2.671875,3.21875 0,2.359375 1.109375,3.09375 2.09375,3.09375 1.09375,0 2.0625,-0.84375 2.0625,-2.03125 0,-1.140625 -0.875,-2.03125 -1.96875,-2.03125 -0.515625,0 -1.03125,0.171875 -1.484375,0.578125 z M 2.625,-0.5 c -0.640625,0 -1.03125,-0.484375 -1.234375,-1.09375 -0.015625,-0.0625 -0.03125,-0.125 -0.046875,-0.1875 0,0 -0.015625,-0.03125 -0.015625,-0.03125 0,0 0.015625,-0.09375 0.015625,-0.09375 -0.015625,-0.0625 -0.03125,-0.234375 -0.03125,-0.3125 0,-0.609375 0.59375,-1.109375 1.359375,-1.109375 C 3.484375,-3.328125 4,-2.65625 4,-1.921875 4,-1.0625 3.34375,-0.5 2.625,-0.5 Z m 0,0"
             id="id-82aa5795-b53b-4b30-974c-cd9bcd1968e4" />
        </symbol>
        <symbol
           overflow="visible"
           id="id-76da4457-95d1-48a0-b62e-0c8e5c4cd1a2">
          <path
             style="stroke:none"
             d="M 0.671875,-0.578125 C 0.578125,-0.5 0.515625,-0.453125 0.515625,-0.3125 0.515625,0 0.765625,0 0.921875,0 H 4.3125 c 0.328125,0 0.390625,-0.09375 0.390625,-0.40625 v -0.265625 c 0,-0.1875 0,-0.40625 -0.34375,-0.40625 -0.34375,0 -0.34375,0.1875 -0.34375,0.46875 h -2.375 c 0.59375,-0.5 1.546875,-1.25 1.984375,-1.65625 0.625,-0.5625 1.078125,-1.1875 1.078125,-1.984375 0,-1.203125 -1,-1.953125 -2.21875,-1.953125 -1.171875,0 -1.96875,0.8125 -1.96875,1.671875 0,0.359375 0.28125,0.46875 0.453125,0.46875 0.203125,0 0.4375,-0.171875 0.4375,-0.4375 0,-0.125 -0.046875,-0.25 -0.140625,-0.328125 0.15625,-0.453125 0.625,-0.765625 1.171875,-0.765625 0.8125,0 1.578125,0.453125 1.578125,1.34375 0,0.6875 -0.484375,1.265625 -1.140625,1.8125 z m 0,0"
             id="id-adcb8bc1-cbd2-4e86-b103-0c7721bde6b9" />
        </symbol>
      </g>
    </defs>
    <defs
       id="id-0f4ba65d-fa7e-4bf4-b05a-47c3f70b8013">
      <g
         id="id-be6f577e-78e9-4be5-9832-68bcebe0273e">
        <symbol
           overflow="visible"
           id="id-61ca14d9-1437-4306-b431-ddee6b5b1fd6">
          <path
             style="stroke:none;stroke-width:0"
             d=""
             id="id-c08188a3-4d5d-48d0-959d-ee8d0a85046a" />
        </symbol>
        <symbol
           overflow="visible"
           id="id-c5293499-6275-455d-8446-300a6eba988b">
          <path
             style="stroke:none;stroke-width:0"
             d="m 4.71875,-3.046875 c 0,-1.84375 -1.015625,-3.15625 -2.109375,-3.15625 C 1.5,-6.203125 0.5,-4.859375 0.5,-3.046875 c 0,1.84375 1.015625,3.15625 2.109375,3.15625 1.125,0 2.109375,-1.328125 2.109375,-3.15625 z M 2.609375,-0.5 C 1.828125,-0.5 1.1875,-1.671875 1.1875,-3.15625 c 0,-1.453125 0.6875,-2.4375 1.421875,-2.4375 0.734375,0 1.421875,0.984375 1.421875,2.4375 0,1.484375 -0.640625,2.65625 -1.421875,2.65625 z m 0,0"
             id="id-1a031ca5-a52f-4923-9e95-27d596b2b36e" />
        </symbol>
        <symbol
           overflow="visible"
           id="id-3e0ebabb-5f9e-409e-b405-9cbd922fd343">
          <path
             style="stroke:none;stroke-width:0"
             d="M 2.859375,-2.21875 4,-3.6875 h 0.390625 c 0.140625,0 0.421875,0 0.421875,-0.296875 0,-0.3125 -0.265625,-0.3125 -0.421875,-0.3125 h -1.15625 c -0.15625,0 -0.40625,0 -0.40625,0.296875 0,0.3125 0.21875,0.3125 0.484375,0.3125 l -0.734375,1 -0.75,-1 c 0.25,0 0.46875,0 0.46875,-0.3125 0,-0.296875 -0.25,-0.296875 -0.390625,-0.296875 H 0.734375 c -0.140625,0 -0.40625,0 -0.40625,0.3125 0,0.296875 0.265625,0.296875 0.40625,0.296875 h 0.40625 L 2.3125,-2.21875 1.078125,-0.609375 h -0.40625 c -0.140625,0 -0.40625,0 -0.40625,0.3125 C 0.265625,0 0.53125,0 0.671875,0 H 1.84375 C 2,0 2.25,0 2.25,-0.296875 c 0,-0.3125 -0.21875,-0.3125 -0.53125,-0.3125 l 0.859375,-1.21875 0.890625,1.21875 c -0.28125,0 -0.5,0 -0.5,0.3125 C 2.96875,0 3.21875,0 3.375,0 h 1.15625 c 0.140625,0 0.40625,0 0.40625,-0.296875 0,-0.3125 -0.25,-0.3125 -0.40625,-0.3125 H 4.140625 Z m 0,0"
             id="id-3e0a3e35-cd98-49e3-83c6-47887ef93756" />
        </symbol>
        <symbol
           overflow="visible"
           id="id-aeacfd14-4cb1-4c00-8aa1-deda16aaa3fe">
          <path
             style="stroke:none;stroke-width:0"
             d="m 3.09375,-5.796875 c 0,-0.15625 0,-0.40625 -0.296875,-0.40625 -0.1875,0 -0.25,0.125 -0.296875,0.234375 C 2.125,-5.109375 1.609375,-5 1.421875,-4.984375 c -0.171875,0.015625 -0.375,0.03125 -0.375,0.3125 0,0.25 0.171875,0.296875 0.328125,0.296875 0.1875,0 0.59375,-0.0625 1.03125,-0.4375 v 4.203125 H 1.5 c -0.15625,0 -0.390625,0 -0.390625,0.3125 C 1.109375,0 1.359375,0 1.5,0 H 4 c 0.15625,0 0.40625,0 0.40625,-0.296875 0,-0.3125 -0.234375,-0.3125 -0.40625,-0.3125 H 3.09375 Z m 0,0"
             id="id-08cd63b7-be5b-4553-9f10-49826e32fa82" />
        </symbol>
        <symbol
           overflow="visible"
           id="id-53f9822e-9198-400d-8ebd-14c5c23a494b">
          <path
             style="stroke:none;stroke-width:0"
             d="M 0.375,-2.4375 C 0.296875,-2.296875 0.296875,-2.28125 0.296875,-2.078125 0.296875,-1.75 0.375,-1.6875 0.6875,-1.6875 h 2.515625 v 1.078125 h -0.625 c -0.15625,0 -0.390625,0 -0.390625,0.3125 C 2.1875,0 2.4375,0 2.578125,0 H 4.375 c 0.15625,0 0.40625,0 0.40625,-0.296875 0,-0.3125 -0.25,-0.3125 -0.40625,-0.3125 H 3.765625 V -1.6875 H 4.53125 c 0.15625,0 0.40625,0 0.40625,-0.296875 0,-0.3125 -0.25,-0.3125 -0.40625,-0.3125 H 3.765625 v -3.5 c 0,-0.328125 -0.078125,-0.40625 -0.421875,-0.40625 H 3.078125 c -0.25,0 -0.296875,0 -0.421875,0.203125 z m 0.609375,0.140625 2.21875,-3.46875 v 3.46875 z m 0,0"
             id="id-d8756c6c-f502-4afd-bc6b-9a597a31b583" />
        </symbol>
        <symbol
           overflow="visible"
           id="id-f1f34b5f-51e4-4c19-a4ea-c5d3012e4ed2">
          <path
             style="stroke:none;stroke-width:0"
             d="m 2.609375,-3.59375 c -0.71875,0 -1.34375,-0.4375 -1.34375,-1 0,-0.515625 0.5625,-1 1.34375,-1 0.78125,0 1.34375,0.484375 1.34375,1 0,0.5625 -0.609375,1 -1.34375,1 z m 0.796875,0.3125 c 0.796875,-0.265625 1.234375,-0.75 1.234375,-1.328125 0,-0.8125 -0.84375,-1.59375 -2.03125,-1.59375 -1.1875,0 -2.03125,0.796875 -2.03125,1.59375 0,0.578125 0.453125,1.078125 1.25,1.328125 -0.75,0.203125 -1.390625,0.796875 -1.390625,1.546875 0,0.96875 0.921875,1.84375 2.171875,1.84375 1.265625,0 2.171875,-0.875 2.171875,-1.84375 0,-0.75 -0.640625,-1.34375 -1.375,-1.546875 z M 2.609375,-0.5 C 1.78125,-0.5 1.125,-1.0625 1.125,-1.75 c 0,-0.609375 0.578125,-1.234375 1.484375,-1.234375 0.921875,0 1.484375,0.625 1.484375,1.234375 0,0.6875 -0.65625,1.25 -1.484375,1.25 z m 0,0"
             id="id-8caf1d0c-ee5f-4e9b-afcd-877133e6e448" />
        </symbol>
        <symbol
           overflow="visible"
           id="id-4349bfad-007e-4d42-8bdc-98190fb863f1">
          <path
             style="stroke:none;stroke-width:0"
             d="M 1.234375,-3.375 C 1.375,-4.78125 2.3125,-5.59375 3.1875,-5.59375 c 0.34375,0 0.5,0.109375 0.546875,0.15625 -0.046875,0.046875 -0.09375,0.109375 -0.09375,0.296875 0,0.234375 0.171875,0.4375 0.4375,0.4375 0.25,0 0.453125,-0.171875 0.453125,-0.46875 0,-0.484375 -0.359375,-1.03125 -1.328125,-1.03125 -1.34375,0 -2.671875,1.203125 -2.671875,3.21875 0,2.359375 1.109375,3.09375 2.09375,3.09375 1.09375,0 2.0625,-0.84375 2.0625,-2.03125 0,-1.140625 -0.875,-2.03125 -1.96875,-2.03125 -0.515625,0 -1.03125,0.171875 -1.484375,0.578125 z M 2.625,-0.5 c -0.640625,0 -1.03125,-0.484375 -1.234375,-1.09375 -0.015625,-0.0625 -0.03125,-0.125 -0.046875,-0.1875 0,0 -0.015625,-0.03125 -0.015625,-0.03125 0,0 0.015625,-0.09375 0.015625,-0.09375 -0.015625,-0.0625 -0.03125,-0.234375 -0.03125,-0.3125 0,-0.609375 0.59375,-1.109375 1.359375,-1.109375 C 3.484375,-3.328125 4,-2.65625 4,-1.921875 4,-1.0625 3.34375,-0.5 2.625,-0.5 Z m 0,0"
             id="id-f97a9794-0597-4753-a2f0-4b3ef8dd5b05" />
        </symbol>
      </g>
    </defs>
  </defs>
  <g
     id="g4042"
     transform="translate(15.875001,2.7460417)">
    <rect
       style="font-variation-settings:normal;vector-effect:none;fill:none;fill-opacity:1;fill-rule:evenodd;stroke:#000000;stroke-width:0.264583;stroke-linecap:butt;stroke-linejoin:miter;stroke-miterlimit:4;stroke-dasharray:none;stroke-dashoffset:0;stroke-opacity:1;stop-color:#000000"
       id="rect960"
       width="15.875"
       height="15.875"
       x="0.1322915"
       y="12.038542" />
    <rect
       style="font-variation-settings:normal;vector-effect:none;fill:none;fill-opacity:1;fill-rule:evenodd;stroke:#000000;stroke-width:0.264583;stroke-linecap:butt;stroke-linejoin:miter;stroke-miterlimit:4;stroke-dasharray:none;stroke-dashoffset:0;stroke-opacity:1;stop-color:#000000"
       id="rect958"
       width="15.875"
       height="15.875"
       x="31.882292"
       y="12.038542" />
    <g
       style="fill:#000000;fill-opacity:1"
       id="id-70c0d6c8-0a07-4a0f-83dd-c21fec79e99b"
       transform="matrix(0.49910108,0,0,0.49910108,-51.603266,-57.625156)">
      <g
         transform="translate(148.712,134.765)"
         id="g1668">
        <path
           style="stroke:none;stroke-width:0"
           d="m 3.078125,-3.890625 c 0,-0.3125 -0.0625,-0.40625 -0.390625,-0.40625 H 1.265625 c -0.15625,0 -0.40625,0 -0.40625,0.296875 0,0.3125 0.25,0.3125 0.40625,0.3125 h 1.125 v 3.078125 H 1.1875 c -0.15625,0 -0.40625,0 -0.40625,0.3125 C 0.78125,0 1.03125,0 1.1875,0 H 4.125 c 0.15625,0 0.40625,0 0.40625,-0.296875 0,-0.3125 -0.25,-0.3125 -0.40625,-0.3125 H 3.078125 Z m 0,-1.71875 c 0,-0.265625 -0.21875,-0.484375 -0.5,-0.484375 -0.28125,0 -0.5,0.21875 -0.5,0.484375 0,0.28125 0.21875,0.5 0.5,0.5 0.28125,0 0.5,-0.21875 0.5,-0.5 z m 0,0"
           id="id-9a3fc71d-a883-4f02-8345-e0bef70507f0" />
      </g>
    </g>
    <g
       id="g2117"
       transform="matrix(1.2328174,0,0,1.2328174,-93.378209,-191.1726)"
       style="fill:#000000">
      <g
         transform="matrix(0.279061,0,0,0.279061,93.623619,172.13005)"
         id="g2011"
         style="fill:#000000;fill-opacity:1">
        <path
           style="fill:#000000;stroke:none;stroke-width:0"
           d="m 3.09375,-5.796875 c 0,-0.15625 0,-0.40625 -0.296875,-0.40625 -0.1875,0 -0.25,0.125 -0.296875,0.234375 C 2.125,-5.109375 1.609375,-5 1.421875,-4.984375 c -0.171875,0.015625 -0.375,0.03125 -0.375,0.3125 0,0.25 0.171875,0.296875 0.328125,0.296875 0.1875,0 0.59375,-0.0625 1.03125,-0.4375 v 4.203125 H 1.5 c -0.15625,0 -0.390625,0 -0.390625,0.3125 C 1.109375,0 1.359375,0 1.5,0 H 4 c 0.15625,0 0.40625,0 0.40625,-0.296875 0,-0.3125 -0.234375,-0.3125 -0.40625,-0.3125 H 3.09375 Z m 0,0"
           id="id-e4773cd8-24c3-4ad0-b2d4-e1c7f81de85a" />
      </g>
      <g
         transform="matrix(0.279061,0,0,0.279061,95.083108,172.13005)"
         id="g2014"
         style="fill:#000000;fill-opacity:1">
        <path
           style="fill:#000000;stroke:none;stroke-width:0"
           d="m 3.765625,-5.484375 c -1.734375,1.828125 -2.078125,4.03125 -2.078125,5.125 0,0.140625 0,0.46875 0.359375,0.46875 C 2.21875,0.109375 2.375,0 2.375,-0.296875 2.4375,-3.125 3.953125,-4.859375 4.5625,-5.4375 4.765625,-5.625 4.78125,-5.640625 4.78125,-5.78125 c 0,-0.3125 -0.234375,-0.3125 -0.390625,-0.3125 H 1.09375 C 1.03125,-6.25 0.859375,-6.25 0.78125,-6.25 0.4375,-6.25 0.4375,-6.03125 0.4375,-5.84375 v 0.421875 c 0,0.1875 0,0.40625 0.34375,0.40625 0.34375,0 0.34375,-0.1875 0.34375,-0.46875 z m 0,0"
           id="id-28b87dfb-1055-4ad7-999d-5e46a7157b11" />
      </g>
    </g>
    <rect
       style="font-variation-settings:normal;vector-effect:none;fill:none;fill-opacity:1;fill-rule:evenodd;stroke:#000000;stroke-width:0.264583;stroke-linecap:butt;stroke-linejoin:miter;stroke-miterlimit:4;stroke-dasharray:none;stroke-dashoffset:0;stroke-opacity:1;stop-color:#000000"
       id="rect956"
       width="15.875"
       height="15.875"
       x="16.007292"
       y="12.038542" />
    <g
       style="fill:#000000;fill-opacity:1"
       id="id-4ee996a7-b07d-4a9a-898c-cc014abc517c"
       transform="matrix(0.49910108,0,0,0.49910108,-39.706039,-58.190543)">
      <g
         transform="translate(157.26,134.765)"
         id="g1672">
        <path
           style="stroke:none;stroke-width:0"
           d="m 3.671875,-3.890625 c 0,-0.3125 -0.0625,-0.40625 -0.40625,-0.40625 H 1.6875 c -0.15625,0 -0.40625,0 -0.40625,0.3125 0,0.296875 0.25,0.296875 0.40625,0.296875 h 1.296875 v 4.078125 c 0,0.171875 0,0.546875 -0.265625,0.890625 C 2.453125,1.671875 2.140625,1.671875 1.90625,1.671875 1.625,1.671875 1.5,1.640625 1.359375,1.625 c 0,-0.03125 0,-0.046875 0,-0.125 0,-0.28125 -0.21875,-0.4375 -0.4375,-0.4375 -0.21875,0 -0.4375,0.15625 -0.4375,0.453125 0,0.75 0.96875,0.75 1.375,0.75 1.453125,0 1.8125,-1.1875 1.8125,-1.828125 z m 0,-1.71875 c 0,-0.265625 -0.21875,-0.484375 -0.5,-0.484375 -0.28125,0 -0.5,0.21875 -0.5,0.484375 0,0.28125 0.21875,0.5 0.5,0.5 0.28125,0 0.5,-0.21875 0.5,-0.5 z m 0,0"
           id="id-799b734e-46b1-4270-861f-c565f89c975d" />
      </g>
    </g>
    <g
       id="g2123"
       transform="matrix(1.2328174,0,0,1.2328174,-82.12518,-191.18066)"
       style="fill:#000000">
      <g
         transform="matrix(0.279061,0,0,0.279061,97.468522,172.13005)"
         id="g2018"
         style="fill:#000000;fill-opacity:1">
        <path
           style="fill:#000000;stroke:none;stroke-width:0"
           d="M 3.65625,-3.328125 C 4.21875,-3.6875 4.5,-4.25 4.5,-4.796875 c 0,-0.734375 -0.734375,-1.40625 -1.875,-1.40625 -1.203125,0 -1.890625,0.484375 -1.890625,1.171875 0,0.328125 0.25,0.46875 0.4375,0.46875 0.21875,0 0.4375,-0.171875 0.4375,-0.453125 0,-0.140625 -0.046875,-0.234375 -0.078125,-0.265625 0.296875,-0.3125 1.015625,-0.3125 1.09375,-0.3125 0.6875,0 1.1875,0.359375 1.1875,0.8125 0,0.296875 -0.15625,0.640625 -0.421875,0.859375 C 3.078125,-3.65625 2.828125,-3.640625 2.46875,-3.625 1.890625,-3.578125 1.75,-3.578125 1.75,-3.296875 c 0,0.3125 0.234375,0.3125 0.390625,0.3125 h 0.46875 c 0.984375,0 1.484375,0.671875 1.484375,1.25 C 4.09375,-1.125 3.53125,-0.5 2.625,-0.5 2.234375,-0.5 1.46875,-0.609375 1.203125,-1.078125 1.25,-1.125 1.328125,-1.1875 1.328125,-1.390625 c 0,-0.234375 -0.1875,-0.4375 -0.4375,-0.4375 -0.234375,0 -0.453125,0.15625 -0.453125,0.46875 0,0.890625 0.96875,1.46875 2.1875,1.46875 1.3125,0 2.15625,-0.921875 2.15625,-1.84375 0,-0.703125 -0.46875,-1.296875 -1.125,-1.59375 z m 0,0"
           id="id-5a18f264-072b-44ce-be81-e184420e7aac" />
      </g>
      <g
         transform="matrix(0.279061,0,0,0.279061,98.92829,172.13005)"
         id="g2021"
         style="fill:#000000;fill-opacity:1">
        <path
           style="fill:#000000;stroke:none;stroke-width:0"
           d="M 0.671875,-0.578125 C 0.578125,-0.5 0.515625,-0.453125 0.515625,-0.3125 0.515625,0 0.765625,0 0.921875,0 H 4.3125 c 0.328125,0 0.390625,-0.09375 0.390625,-0.40625 v -0.265625 c 0,-0.1875 0,-0.40625 -0.34375,-0.40625 -0.34375,0 -0.34375,0.1875 -0.34375,0.46875 h -2.375 c 0.59375,-0.5 1.546875,-1.25 1.984375,-1.65625 0.625,-0.5625 1.078125,-1.1875 1.078125,-1.984375 0,-1.203125 -1,-1.953125 -2.21875,-1.953125 -1.171875,0 -1.96875,0.8125 -1.96875,1.671875 0,0.359375 0.28125,0.46875 0.453125,0.46875 0.203125,0 0.4375,-0.171875 0.4375,-0.4375 0,-0.125 -0.046875,-0.25 -0.140625,-0.328125 0.15625,-0.453125 0.625,-0.765625 1.171875,-0.765625 0.8125,0 1.578125,0.453125 1.578125,1.34375 0,0.6875 -0.484375,1.265625 -1.140625,1.8125 z m 0,0"
           id="id-14549b0d-6987-4ff4-b6e6-1234eae06c9b" />
      </g>
    </g>
    <g
       style="fill:#000000;fill-opacity:1"
       id="id-02993245-6dd5-4c37-9810-b1952436b5df"
       transform="matrix(0.49910108,0,0,0.49910108,-20.371505,-58.61166)">
      <g
         transform="translate(165.818,134.765)"
         id="g1676">
        <path
           style="stroke:none;stroke-width:0"
           d="m 1.65625,-2.625 c 0,-0.59375 0.578125,-1.125 1.203125,-1.125 0.734375,0 1.3125,0.734375 1.3125,1.59375 0,0.953125 -0.6875,1.609375 -1.390625,1.609375 -0.78125,0 -1.125,-0.875 -1.125,-1.359375 z m 0,2.171875 C 2.0625,-0.03125 2.5,0.0625 2.8125,0.0625 c 1.078125,0 2.046875,-0.953125 2.046875,-2.21875 0,-1.21875 -0.875,-2.203125 -1.9375,-2.203125 C 2.4375,-4.359375 2,-4.171875 1.65625,-3.875 1.65625,-4.15625 1.640625,-4.296875 1.25,-4.296875 H 0.53125 c -0.15625,0 -0.40625,0 -0.40625,0.3125 0,0.296875 0.25,0.296875 0.390625,0.296875 H 0.96875 v 5.296875 h -0.4375 c -0.15625,0 -0.40625,0 -0.40625,0.296875 0,0.3125 0.25,0.3125 0.390625,0.3125 h 1.59375 C 2.25,2.21875 2.5,2.21875 2.5,1.90625 2.5,1.609375 2.25,1.609375 2.09375,1.609375 h -0.4375 z m 0,0"
           id="id-c5177fb3-540a-439e-a8a1-61ef6dca1a96" />
      </g>
    </g>
    <rect
       style="font-variation-settings:normal;vector-effect:none;fill:none;fill-opacity:1;fill-rule:evenodd;stroke:#000000;stroke-width:0.374177;stroke-linecap:butt;stroke-linejoin:miter;stroke-miterlimit:4;stroke-dasharray:none;stroke-dashoffset:0;stroke-opacity:1;stop-color:#000000"
       id="rect872"
       width="31.750004"
       height="15.875"
       x="47.75729"
       y="12.038542" />
    <g
       style="fill:#000000;fill-opacity:1"
       id="id-9d3dcd4b-4fd0-4ef9-88c5-fe36d9ee08e7"
       transform="matrix(0.49910108,0,0,0.49910108,6.9172219,-58.61166)">
      <g
         transform="translate(174.366,134.765)"
         id="g1680">
        <path
           style="stroke:none;stroke-width:0"
           d="m 4.46875,-3.953125 c 0,-0.1875 0,-0.40625 -0.34375,-0.40625 -0.34375,0 -0.34375,0.171875 -0.34375,0.546875 -0.265625,-0.28125 -0.6875,-0.546875 -1.25,-0.546875 -1.109375,0 -2.125,0.953125 -2.125,2.21875 0,1.234375 0.921875,2.203125 2.03125,2.203125 0.671875,0 1.125,-0.375 1.34375,-0.59375 V 1.609375 H 3.296875 c -0.15625,0 -0.40625,0 -0.40625,0.296875 0,0.3125 0.234375,0.3125 0.40625,0.3125 h 1.65625 c 0.15625,0 0.40625,0 0.40625,-0.3125 0,-0.296875 -0.25,-0.296875 -0.40625,-0.296875 H 4.46875 Z M 3.78125,-1.9375 c 0,0.578125 -0.484375,1.390625 -1.3125,1.390625 -0.734375,0 -1.375,-0.703125 -1.375,-1.59375 0,-0.921875 0.6875,-1.609375 1.484375,-1.609375 0.75,0 1.203125,0.765625 1.203125,1.421875 z m 0,0"
           id="id-37106c71-cfc9-4b87-82b1-7bc2b08fb694" />
      </g>
    </g>
    <g
       style="fill:#000000;fill-opacity:1"
       id="id-5ccd6229-c1cf-410a-8102-f238dd1b04bb"
       transform="matrix(0.34454019,0,0,0.34454019,-64.272504,-13.875327)">
      <g
         transform="translate(148.712,134.765)"
         id="g1609">
        <path
           style="stroke:none;stroke-width:0"
           d="m 4.71875,-3.046875 c 0,-1.84375 -1.015625,-3.15625 -2.109375,-3.15625 C 1.5,-6.203125 0.5,-4.859375 0.5,-3.046875 c 0,1.84375 1.015625,3.15625 2.109375,3.15625 1.125,0 2.109375,-1.328125 2.109375,-3.15625 z M 2.609375,-0.5 C 1.828125,-0.5 1.1875,-1.671875 1.1875,-3.15625 c 0,-1.453125 0.6875,-2.4375 1.421875,-2.4375 0.734375,0 1.421875,0.984375 1.421875,2.4375 0,1.484375 -0.640625,2.65625 -1.421875,2.65625 z m 0,0"
           id="id-99242860-91a7-4553-93c3-b4a3e9d3e681" />
      </g>
      <g
         transform="translate(153.942,134.765)"
         id="g1612">
        <path
           style="stroke:none;stroke-width:0"
           d="M 2.859375,-2.21875 4,-3.6875 h 0.390625 c 0.140625,0 0.421875,0 0.421875,-0.296875 0,-0.3125 -0.265625,-0.3125 -0.421875,-0.3125 h -1.15625 c -0.15625,0 -0.40625,0 -0.40625,0.296875 0,0.3125 0.21875,0.3125 0.484375,0.3125 l -0.734375,1 -0.75,-1 c 0.25,0 0.46875,0 0.46875,-0.3125 0,-0.296875 -0.25,-0.296875 -0.390625,-0.296875 H 0.734375 c -0.140625,0 -0.40625,0 -0.40625,0.3125 0,0.296875 0.265625,0.296875 0.40625,0.296875 h 0.40625 L 2.3125,-2.21875 1.078125,-0.609375 h -0.40625 c -0.140625,0 -0.40625,0 -0.40625,0.3125 C 0.265625,0 0.53125,0 0.671875,0 H 1.84375 C 2,0 2.25,0 2.25,-0.296875 c 0,-0.3125 -0.21875,-0.3125 -0.53125,-0.3125 l 0.859375,-1.21875 0.890625,1.21875 c -0.28125,0 -0.5,0 -0.5,0.3125 C 2.96875,0 3.21875,0 3.375,0 h 1.15625 c 0.140625,0 0.40625,0 0.40625,-0.296875 0,-0.3125 -0.25,-0.3125 -0.40625,-0.3125 H 4.140625 Z m 0,0"
           id="id-643ef369-621b-4cfb-8359-32c5890393fb" />
      </g>
      <g
         transform="translate(159.173,134.765)"
         id="g1615">
        <path
           style="stroke:none;stroke-width:0"
           d="m 4.71875,-3.046875 c 0,-1.84375 -1.015625,-3.15625 -2.109375,-3.15625 C 1.5,-6.203125 0.5,-4.859375 0.5,-3.046875 c 0,1.84375 1.015625,3.15625 2.109375,3.15625 1.125,0 2.109375,-1.328125 2.109375,-3.15625 z M 2.609375,-0.5 C 1.828125,-0.5 1.1875,-1.671875 1.1875,-3.15625 c 0,-1.453125 0.6875,-2.4375 1.421875,-2.4375 0.734375,0 1.421875,0.984375 1.421875,2.4375 0,1.484375 -0.640625,2.65625 -1.421875,2.65625 z m 0,0"
           id="id-315ce026-2f55-4b0a-9bee-ce98df58de68" />
      </g>
      <g
         transform="translate(164.403,134.765)"
         id="g1618">
        <path
           style="stroke:none;stroke-width:0"
           d="m 4.71875,-3.046875 c 0,-1.84375 -1.015625,-3.15625 -2.109375,-3.15625 C 1.5,-6.203125 0.5,-4.859375 0.5,-3.046875 c 0,1.84375 1.015625,3.15625 2.109375,3.15625 1.125,0 2.109375,-1.328125 2.109375,-3.15625 z M 2.609375,-0.5 C 1.828125,-0.5 1.1875,-1.671875 1.1875,-3.15625 c 0,-1.453125 0.6875,-2.4375 1.421875,-2.4375 0.734375,0 1.421875,0.984375 1.421875,2.4375 0,1.484375 -0.640625,2.65625 -1.421875,2.65625 z m 0,0"
           id="id-f74b546a-66a6-4575-a9b1-77dc2e7b3252" />
      </g>
      <g
         transform="translate(169.633,134.765)"
         id="g1621">
        <path
           style="stroke:none;stroke-width:0"
           d="m 4.71875,-3.046875 c 0,-1.84375 -1.015625,-3.15625 -2.109375,-3.15625 C 1.5,-6.203125 0.5,-4.859375 0.5,-3.046875 c 0,1.84375 1.015625,3.15625 2.109375,3.15625 1.125,0 2.109375,-1.328125 2.109375,-3.15625 z M 2.609375,-0.5 C 1.828125,-0.5 1.1875,-1.671875 1.1875,-3.15625 c 0,-1.453125 0.6875,-2.4375 1.421875,-2.4375 0.734375,0 1.421875,0.984375 1.421875,2.4375 0,1.484375 -0.640625,2.65625 -1.421875,2.65625 z m 0,0"
           id="id-d38f4a0b-7681-425c-979a-602fad49ca71" />
      </g>
      <g
         transform="translate(174.864,134.765)"
         id="g1624">
        <path
           style="stroke:none;stroke-width:0"
           d="m 4.71875,-3.046875 c 0,-1.84375 -1.015625,-3.15625 -2.109375,-3.15625 C 1.5,-6.203125 0.5,-4.859375 0.5,-3.046875 c 0,1.84375 1.015625,3.15625 2.109375,3.15625 1.125,0 2.109375,-1.328125 2.109375,-3.15625 z M 2.609375,-0.5 C 1.828125,-0.5 1.1875,-1.671875 1.1875,-3.15625 c 0,-1.453125 0.6875,-2.4375 1.421875,-2.4375 0.734375,0 1.421875,0.984375 1.421875,2.4375 0,1.484375 -0.640625,2.65625 -1.421875,2.65625 z m 0,0"
           id="id-34700bca-65bc-46d1-9d54-1eaf2ce10221" />
      </g>
    </g>
    <g
       style="fill:#1a5fb4;fill-opacity:1"
       id="id-8d947939-d963-4b12-8e48-844add426dac"
       transform="matrix(0.34454019,0,0,0.34454019,-44.957077,-13.875327)">
      <g
         transform="translate(183.412,134.765)"
         id="g1628"
         style="fill:#1a5fb4">
        <path
           style="fill:#1a5fb4;stroke:none;stroke-width:0"
           d="m 4.71875,-3.046875 c 0,-1.84375 -1.015625,-3.15625 -2.109375,-3.15625 C 1.5,-6.203125 0.5,-4.859375 0.5,-3.046875 c 0,1.84375 1.015625,3.15625 2.109375,3.15625 1.125,0 2.109375,-1.328125 2.109375,-3.15625 z M 2.609375,-0.5 C 1.828125,-0.5 1.1875,-1.671875 1.1875,-3.15625 c 0,-1.453125 0.6875,-2.4375 1.421875,-2.4375 0.734375,0 1.421875,0.984375 1.421875,2.4375 0,1.484375 -0.640625,2.65625 -1.421875,2.65625 z m 0,0"
           id="id-83197a21-1384-456d-9dfb-3a81e9e065ec" />
      </g>
      <g
         transform="translate(188.642,134.765)"
         id="g1631"
         style="fill:#1a5fb4">
        <path
           style="fill:#1a5fb4;stroke:none;stroke-width:0"
           d="M 2.859375,-2.21875 4,-3.6875 h 0.390625 c 0.140625,0 0.421875,0 0.421875,-0.296875 0,-0.3125 -0.265625,-0.3125 -0.421875,-0.3125 h -1.15625 c -0.15625,0 -0.40625,0 -0.40625,0.296875 0,0.3125 0.21875,0.3125 0.484375,0.3125 l -0.734375,1 -0.75,-1 c 0.25,0 0.46875,0 0.46875,-0.3125 0,-0.296875 -0.25,-0.296875 -0.390625,-0.296875 H 0.734375 c -0.140625,0 -0.40625,0 -0.40625,0.3125 0,0.296875 0.265625,0.296875 0.40625,0.296875 h 0.40625 L 2.3125,-2.21875 1.078125,-0.609375 h -0.40625 c -0.140625,0 -0.40625,0 -0.40625,0.3125 C 0.265625,0 0.53125,0 0.671875,0 H 1.84375 C 2,0 2.25,0 2.25,-0.296875 c 0,-0.3125 -0.21875,-0.3125 -0.53125,-0.3125 l 0.859375,-1.21875 0.890625,1.21875 c -0.28125,0 -0.5,0 -0.5,0.3125 C 2.96875,0 3.21875,0 3.375,0 h 1.15625 c 0.140625,0 0.40625,0 0.40625,-0.296875 0,-0.3125 -0.25,-0.3125 -0.40625,-0.3125 H 4.140625 Z m 0,0"
           id="id-0916ef1a-8a33-488f-aeaf-cc009271b6ec" />
      </g>
      <g
         transform="translate(193.872,134.765)"
         id="g1634"
         style="fill:#1a5fb4">
        <path
           style="fill:#1a5fb4;stroke:none;stroke-width:0"
           d="m 3.09375,-5.796875 c 0,-0.15625 0,-0.40625 -0.296875,-0.40625 -0.1875,0 -0.25,0.125 -0.296875,0.234375 C 2.125,-5.109375 1.609375,-5 1.421875,-4.984375 c -0.171875,0.015625 -0.375,0.03125 -0.375,0.3125 0,0.25 0.171875,0.296875 0.328125,0.296875 0.1875,0 0.59375,-0.0625 1.03125,-0.4375 v 4.203125 H 1.5 c -0.15625,0 -0.390625,0 -0.390625,0.3125 C 1.109375,0 1.359375,0 1.5,0 H 4 c 0.15625,0 0.40625,0 0.40625,-0.296875 0,-0.3125 -0.234375,-0.3125 -0.40625,-0.3125 H 3.09375 Z m 0,0"
           id="id-f021e4cf-6729-4fb0-982f-9256b611c0e8" />
      </g>
      <g
         transform="translate(199.103,134.765)"
         id="g1637"
         style="fill:#1a5fb4">
        <path
           style="fill:#1a5fb4;stroke:none;stroke-width:0"
           d="m 4.71875,-3.046875 c 0,-1.84375 -1.015625,-3.15625 -2.109375,-3.15625 C 1.5,-6.203125 0.5,-4.859375 0.5,-3.046875 c 0,1.84375 1.015625,3.15625 2.109375,3.15625 1.125,0 2.109375,-1.328125 2.109375,-3.15625 z M 2.609375,-0.5 C 1.828125,-0.5 1.1875,-1.671875 1.1875,-3.15625 c 0,-1.453125 0.6875,-2.4375 1.421875,-2.4375 0.734375,0 1.421875,0.984375 1.421875,2.4375 0,1.484375 -0.640625,2.65625 -1.421875,2.65625 z m 0,0"
           id="id-3ff57d3d-1ff2-472b-ba9f-633a6f4e605e" />
      </g>
      <g
         transform="translate(204.333,134.765)"
         id="g1640"
         style="fill:#1a5fb4">
        <path
           style="fill:#1a5fb4;stroke:none;stroke-width:0"
           d="m 4.71875,-3.046875 c 0,-1.84375 -1.015625,-3.15625 -2.109375,-3.15625 C 1.5,-6.203125 0.5,-4.859375 0.5,-3.046875 c 0,1.84375 1.015625,3.15625 2.109375,3.15625 1.125,0 2.109375,-1.328125 2.109375,-3.15625 z M 2.609375,-0.5 C 1.828125,-0.5 1.1875,-1.671875 1.1875,-3.15625 c 0,-1.453125 0.6875,-2.4375 1.421875,-2.4375 0.734375,0 1.421875,0.984375 1.421875,2.4375 0,1.484375 -0.640625,2.65625 -1.421875,2.65625 z m 0,0"
           id="id-a0bd70c7-3480-4f30-98c4-5bad890ffb3b" />
      </g>
      <g
         transform="translate(209.564,134.765)"
         id="g1643"
         style="fill:#1a5fb4">
        <path
           style="fill:#1a5fb4;stroke:none;stroke-width:0"
           d="m 4.71875,-3.046875 c 0,-1.84375 -1.015625,-3.15625 -2.109375,-3.15625 C 1.5,-6.203125 0.5,-4.859375 0.5,-3.046875 c 0,1.84375 1.015625,3.15625 2.109375,3.15625 1.125,0 2.109375,-1.328125 2.109375,-3.15625 z M 2.609375,-0.5 C 1.828125,-0.5 1.1875,-1.671875 1.1875,-3.15625 c 0,-1.453125 0.6875,-2.4375 1.421875,-2.4375 0.734375,0 1.421875,0.984375 1.421875,2.4375 0,1.484375 -0.640625,2.65625 -1.421875,2.65625 z m 0,0"
           id="id-8cc12649-3869-4520-8ce6-e77ea5bbd45f" />
      </g>
    </g>
    <g
       style="fill:#e01b24;fill-opacity:1"
       id="id-539138ea-8ae0-479a-90f7-0e89bfae2917"
       transform="matrix(0.34454019,0,0,0.34454019,-41.087861,-13.875327)">
      <g
         transform="translate(218.121,134.765)"
         id="g1647"
         style="fill:#e01b24">
        <path
           style="fill:#e01b24;stroke:none;stroke-width:0"
           d="m 4.71875,-3.046875 c 0,-1.84375 -1.015625,-3.15625 -2.109375,-3.15625 C 1.5,-6.203125 0.5,-4.859375 0.5,-3.046875 c 0,1.84375 1.015625,3.15625 2.109375,3.15625 1.125,0 2.109375,-1.328125 2.109375,-3.15625 z M 2.609375,-0.5 C 1.828125,-0.5 1.1875,-1.671875 1.1875,-3.15625 c 0,-1.453125 0.6875,-2.4375 1.421875,-2.4375 0.734375,0 1.421875,0.984375 1.421875,2.4375 0,1.484375 -0.640625,2.65625 -1.421875,2.65625 z m 0,0"
           id="id-6e9035b3-304d-4269-8460-745c10a35baf" />
      </g>
      <g
         transform="translate(223.352,134.765)"
         id="g1650"
         style="fill:#e01b24">
        <path
           style="fill:#e01b24;stroke:none;stroke-width:0"
           d="M 2.859375,-2.21875 4,-3.6875 h 0.390625 c 0.140625,0 0.421875,0 0.421875,-0.296875 0,-0.3125 -0.265625,-0.3125 -0.421875,-0.3125 h -1.15625 c -0.15625,0 -0.40625,0 -0.40625,0.296875 0,0.3125 0.21875,0.3125 0.484375,0.3125 l -0.734375,1 -0.75,-1 c 0.25,0 0.46875,0 0.46875,-0.3125 0,-0.296875 -0.25,-0.296875 -0.390625,-0.296875 H 0.734375 c -0.140625,0 -0.40625,0 -0.40625,0.3125 0,0.296875 0.265625,0.296875 0.40625,0.296875 h 0.40625 L 2.3125,-2.21875 1.078125,-0.609375 h -0.40625 c -0.140625,0 -0.40625,0 -0.40625,0.3125 C 0.265625,0 0.53125,0 0.671875,0 H 1.84375 C 2,0 2.25,0 2.25,-0.296875 c 0,-0.3125 -0.21875,-0.3125 -0.53125,-0.3125 l 0.859375,-1.21875 0.890625,1.21875 c -0.28125,0 -0.5,0 -0.5,0.3125 C 2.96875,0 3.21875,0 3.375,0 h 1.15625 c 0.140625,0 0.40625,0 0.40625,-0.296875 0,-0.3125 -0.25,-0.3125 -0.40625,-0.3125 H 4.140625 Z m 0,0"
           id="id-76186308-eed5-412f-8b76-21cfc2736754" />
      </g>
      <g
         transform="translate(228.582,134.765)"
         id="g1653"
         style="fill:#e01b24">
        <path
           style="fill:#e01b24;stroke:none;stroke-width:0"
           d="m 3.09375,-5.796875 c 0,-0.15625 0,-0.40625 -0.296875,-0.40625 -0.1875,0 -0.25,0.125 -0.296875,0.234375 C 2.125,-5.109375 1.609375,-5 1.421875,-4.984375 c -0.171875,0.015625 -0.375,0.03125 -0.375,0.3125 0,0.25 0.171875,0.296875 0.328125,0.296875 0.1875,0 0.59375,-0.0625 1.03125,-0.4375 v 4.203125 H 1.5 c -0.15625,0 -0.390625,0 -0.390625,0.3125 C 1.109375,0 1.359375,0 1.5,0 H 4 c 0.15625,0 0.40625,0 0.40625,-0.296875 0,-0.3125 -0.234375,-0.3125 -0.40625,-0.3125 H 3.09375 Z m 0,0"
           id="id-4e50126b-02bf-465e-bf26-fb6eb8bf3789" />
      </g>
      <g
         transform="translate(233.813,134.765)"
         id="g1656"
         style="fill:#e01b24">
        <path
           style="fill:#e01b24;stroke:none;stroke-width:0"
           d="m 4.71875,-3.046875 c 0,-1.84375 -1.015625,-3.15625 -2.109375,-3.15625 C 1.5,-6.203125 0.5,-4.859375 0.5,-3.046875 c 0,1.84375 1.015625,3.15625 2.109375,3.15625 1.125,0 2.109375,-1.328125 2.109375,-3.15625 z M 2.609375,-0.5 C 1.828125,-0.5 1.1875,-1.671875 1.1875,-3.15625 c 0,-1.453125 0.6875,-2.4375 1.421875,-2.4375 0.734375,0 1.421875,0.984375 1.421875,2.4375 0,1.484375 -0.640625,2.65625 -1.421875,2.65625 z m 0,0"
           id="id-a7196bf7-8f33-479f-8052-5727b4d5ab2b" />
      </g>
      <g
         transform="translate(239.043,134.765)"
         id="g1659"
         style="fill:#e01b24">
        <path
           style="fill:#e01b24;stroke:none;stroke-width:0"
           d="m 4.71875,-3.046875 c 0,-1.84375 -1.015625,-3.15625 -2.109375,-3.15625 C 1.5,-6.203125 0.5,-4.859375 0.5,-3.046875 c 0,1.84375 1.015625,3.15625 2.109375,3.15625 1.125,0 2.109375,-1.328125 2.109375,-3.15625 z M 2.609375,-0.5 C 1.828125,-0.5 1.1875,-1.671875 1.1875,-3.15625 c 0,-1.453125 0.6875,-2.4375 1.421875,-2.4375 0.734375,0 1.421875,0.984375 1.421875,2.4375 0,1.484375 -0.640625,2.65625 -1.421875,2.65625 z m 0,0"
           id="id-2225c90c-d8ac-49b2-aa45-d72682a2f9a8" />
      </g>
      <g
         transform="translate(244.273,134.765)"
         id="g1662"
         style="fill:#e01b24">
        <path
           style="fill:#e01b24;stroke:none;stroke-width:0"
           d="M 0.375,-2.4375 C 0.296875,-2.296875 0.296875,-2.28125 0.296875,-2.078125 0.296875,-1.75 0.375,-1.6875 0.6875,-1.6875 h 2.515625 v 1.078125 h -0.625 c -0.15625,0 -0.390625,0 -0.390625,0.3125 C 2.1875,0 2.4375,0 2.578125,0 H 4.375 c 0.15625,0 0.40625,0 0.40625,-0.296875 0,-0.3125 -0.25,-0.3125 -0.40625,-0.3125 H 3.765625 V -1.6875 H 4.53125 c 0.15625,0 0.40625,0 0.40625,-0.296875 0,-0.3125 -0.25,-0.3125 -0.40625,-0.3125 H 3.765625 v -3.5 c 0,-0.328125 -0.078125,-0.40625 -0.421875,-0.40625 H 3.078125 c -0.25,0 -0.296875,0 -0.421875,0.203125 z m 0.609375,0.140625 2.21875,-3.46875 v 3.46875 z m 0,0"
           id="id-eb29f572-e4af-4534-812e-7909b6e000a9" />
      </g>
    </g>
    <g
       style="fill:#000000;fill-opacity:1"
       id="id-6f7f92f7-12d3-4a22-abd7-b6f3b95d0aa0"
       transform="matrix(0.34454019,0,0,0.34454019,-28.889713,-13.875327)">
      <g
         transform="translate(252.821,134.765)"
         id="g1666">
        <path
           style="stroke:none;stroke-width:0"
           d="m 4.71875,-3.046875 c 0,-1.84375 -1.015625,-3.15625 -2.109375,-3.15625 C 1.5,-6.203125 0.5,-4.859375 0.5,-3.046875 c 0,1.84375 1.015625,3.15625 2.109375,3.15625 1.125,0 2.109375,-1.328125 2.109375,-3.15625 z M 2.609375,-0.5 C 1.828125,-0.5 1.1875,-1.671875 1.1875,-3.15625 c 0,-1.453125 0.6875,-2.4375 1.421875,-2.4375 0.734375,0 1.421875,0.984375 1.421875,2.4375 0,1.484375 -0.640625,2.65625 -1.421875,2.65625 z m 0,0"
           id="id-50a05e29-08f3-4eca-a241-38fd0f840105" />
      </g>
      <g
         transform="translate(258.052,134.765)"
         id="g1669">
        <path
           style="stroke:none;stroke-width:0"
           d="M 2.859375,-2.21875 4,-3.6875 h 0.390625 c 0.140625,0 0.421875,0 0.421875,-0.296875 0,-0.3125 -0.265625,-0.3125 -0.421875,-0.3125 h -1.15625 c -0.15625,0 -0.40625,0 -0.40625,0.296875 0,0.3125 0.21875,0.3125 0.484375,0.3125 l -0.734375,1 -0.75,-1 c 0.25,0 0.46875,0 0.46875,-0.3125 0,-0.296875 -0.25,-0.296875 -0.390625,-0.296875 H 0.734375 c -0.140625,0 -0.40625,0 -0.40625,0.3125 0,0.296875 0.265625,0.296875 0.40625,0.296875 h 0.40625 L 2.3125,-2.21875 1.078125,-0.609375 h -0.40625 c -0.140625,0 -0.40625,0 -0.40625,0.3125 C 0.265625,0 0.53125,0 0.671875,0 H 1.84375 C 2,0 2.25,0 2.25,-0.296875 c 0,-0.3125 -0.21875,-0.3125 -0.53125,-0.3125 l 0.859375,-1.21875 0.890625,1.21875 c -0.28125,0 -0.5,0 -0.5,0.3125 C 2.96875,0 3.21875,0 3.375,0 h 1.15625 c 0.140625,0 0.40625,0 0.40625,-0.296875 0,-0.3125 -0.25,-0.3125 -0.40625,-0.3125 H 4.140625 Z m 0,0"
           id="id-57074ecd-77df-4b59-81b7-a15274c982d1" />
      </g>
      <g
         transform="translate(263.282,134.765)"
         id="g1673">
        <path
           style="stroke:none;stroke-width:0"
           d="m 3.09375,-5.796875 c 0,-0.15625 0,-0.40625 -0.296875,-0.40625 -0.1875,0 -0.25,0.125 -0.296875,0.234375 C 2.125,-5.109375 1.609375,-5 1.421875,-4.984375 c -0.171875,0.015625 -0.375,0.03125 -0.375,0.3125 0,0.25 0.171875,0.296875 0.328125,0.296875 0.1875,0 0.59375,-0.0625 1.03125,-0.4375 v 4.203125 H 1.5 c -0.15625,0 -0.390625,0 -0.390625,0.3125 C 1.109375,0 1.359375,0 1.5,0 H 4 c 0.15625,0 0.40625,0 0.40625,-0.296875 0,-0.3125 -0.234375,-0.3125 -0.40625,-0.3125 H 3.09375 Z m 0,0"
           id="id-dfd57dfe-b388-4312-9ce7-b89620867bf3" />
      </g>
      <g
         transform="translate(268.512,134.765)"
         id="g1677">
        <path
           style="stroke:none;stroke-width:0"
           d="m 4.71875,-3.046875 c 0,-1.84375 -1.015625,-3.15625 -2.109375,-3.15625 C 1.5,-6.203125 0.5,-4.859375 0.5,-3.046875 c 0,1.84375 1.015625,3.15625 2.109375,3.15625 1.125,0 2.109375,-1.328125 2.109375,-3.15625 z M 2.609375,-0.5 C 1.828125,-0.5 1.1875,-1.671875 1.1875,-3.15625 c 0,-1.453125 0.6875,-2.4375 1.421875,-2.4375 0.734375,0 1.421875,0.984375 1.421875,2.4375 0,1.484375 -0.640625,2.65625 -1.421875,2.65625 z m 0,0"
           id="id-8c6fab49-1ceb-4497-8200-e30b24ec2c9e" />
      </g>
      <g
         transform="translate(273.743,134.765)"
         id="g1681">
        <path
           style="stroke:none;stroke-width:0"
           d="m 4.71875,-3.046875 c 0,-1.84375 -1.015625,-3.15625 -2.109375,-3.15625 C 1.5,-6.203125 0.5,-4.859375 0.5,-3.046875 c 0,1.84375 1.015625,3.15625 2.109375,3.15625 1.125,0 2.109375,-1.328125 2.109375,-3.15625 z M 2.609375,-0.5 C 1.828125,-0.5 1.1875,-1.671875 1.1875,-3.15625 c 0,-1.453125 0.6875,-2.4375 1.421875,-2.4375 0.734375,0 1.421875,0.984375 1.421875,2.4375 0,1.484375 -0.640625,2.65625 -1.421875,2.65625 z m 0,0"
           id="id-541dddd7-2ca7-4e7b-b8c7-9b65cd8a45ec" />
      </g>
      <g
         transform="translate(278.973,134.765)"
         id="g1684">
        <path
           style="stroke:none;stroke-width:0"
           d="m 2.609375,-3.59375 c -0.71875,0 -1.34375,-0.4375 -1.34375,-1 0,-0.515625 0.5625,-1 1.34375,-1 0.78125,0 1.34375,0.484375 1.34375,1 0,0.5625 -0.609375,1 -1.34375,1 z m 0.796875,0.3125 c 0.796875,-0.265625 1.234375,-0.75 1.234375,-1.328125 0,-0.8125 -0.84375,-1.59375 -2.03125,-1.59375 -1.1875,0 -2.03125,0.796875 -2.03125,1.59375 0,0.578125 0.453125,1.078125 1.25,1.328125 -0.75,0.203125 -1.390625,0.796875 -1.390625,1.546875 0,0.96875 0.921875,1.84375 2.171875,1.84375 1.265625,0 2.171875,-0.875 2.171875,-1.84375 0,-0.75 -0.640625,-1.34375 -1.375,-1.546875 z M 2.609375,-0.5 C 1.78125,-0.5 1.125,-1.0625 1.125,-1.75 c 0,-0.609375 0.578125,-1.234375 1.484375,-1.234375 0.921875,0 1.484375,0.625 1.484375,1.234375 0,0.6875 -0.65625,1.25 -1.484375,1.25 z m 0,0"
           id="id-32aa1562-36f6-49b7-a64b-cbe7e9e3c81a" />
      </g>
    </g>
    <g
       style="fill:#000000;fill-opacity:1"
       id="id-505d92d1-e19c-4fd5-8f52-040a23aaccab"
       transform="matrix(0.34454019,0,0,0.34454019,-9.079103,-13.875327)">
      <g
         transform="translate(287.521,134.765)"
         id="g1688">
        <path
           style="stroke:none;stroke-width:0"
           d="m 4.71875,-3.046875 c 0,-1.84375 -1.015625,-3.15625 -2.109375,-3.15625 C 1.5,-6.203125 0.5,-4.859375 0.5,-3.046875 c 0,1.84375 1.015625,3.15625 2.109375,3.15625 1.125,0 2.109375,-1.328125 2.109375,-3.15625 z M 2.609375,-0.5 C 1.828125,-0.5 1.1875,-1.671875 1.1875,-3.15625 c 0,-1.453125 0.6875,-2.4375 1.421875,-2.4375 0.734375,0 1.421875,0.984375 1.421875,2.4375 0,1.484375 -0.640625,2.65625 -1.421875,2.65625 z m 0,0"
           id="id-aad046c6-9ccb-405b-b59f-3fca7815ec59" />
      </g>
      <g
         transform="translate(292.751,134.765)"
         id="g1691">
        <path
           style="stroke:none;stroke-width:0"
           d="M 2.859375,-2.21875 4,-3.6875 h 0.390625 c 0.140625,0 0.421875,0 0.421875,-0.296875 0,-0.3125 -0.265625,-0.3125 -0.421875,-0.3125 h -1.15625 c -0.15625,0 -0.40625,0 -0.40625,0.296875 0,0.3125 0.21875,0.3125 0.484375,0.3125 l -0.734375,1 -0.75,-1 c 0.25,0 0.46875,0 0.46875,-0.3125 0,-0.296875 -0.25,-0.296875 -0.390625,-0.296875 H 0.734375 c -0.140625,0 -0.40625,0 -0.40625,0.3125 0,0.296875 0.265625,0.296875 0.40625,0.296875 h 0.40625 L 2.3125,-2.21875 1.078125,-0.609375 h -0.40625 c -0.140625,0 -0.40625,0 -0.40625,0.3125 C 0.265625,0 0.53125,0 0.671875,0 H 1.84375 C 2,0 2.25,0 2.25,-0.296875 c 0,-0.3125 -0.21875,-0.3125 -0.53125,-0.3125 l 0.859375,-1.21875 0.890625,1.21875 c -0.28125,0 -0.5,0 -0.5,0.3125 C 2.96875,0 3.21875,0 3.375,0 h 1.15625 c 0.140625,0 0.40625,0 0.40625,-0.296875 0,-0.3125 -0.25,-0.3125 -0.40625,-0.3125 H 4.140625 Z m 0,0"
           id="id-e55a5b70-bc24-44ce-b4ad-784d78e635c3" />
      </g>
      <g
         transform="translate(297.982,134.765)"
         id="g1694">
        <path
           style="stroke:none;stroke-width:0"
           d="m 3.09375,-5.796875 c 0,-0.15625 0,-0.40625 -0.296875,-0.40625 -0.1875,0 -0.25,0.125 -0.296875,0.234375 C 2.125,-5.109375 1.609375,-5 1.421875,-4.984375 c -0.171875,0.015625 -0.375,0.03125 -0.375,0.3125 0,0.25 0.171875,0.296875 0.328125,0.296875 0.1875,0 0.59375,-0.0625 1.03125,-0.4375 v 4.203125 H 1.5 c -0.15625,0 -0.390625,0 -0.390625,0.3125 C 1.109375,0 1.359375,0 1.5,0 H 4 c 0.15625,0 0.40625,0 0.40625,-0.296875 0,-0.3125 -0.234375,-0.3125 -0.40625,-0.3125 H 3.09375 Z m 0,0"
           id="id-3d5da19e-c249-497f-91a5-fee8b0521c6c" />
      </g>
      <g
         transform="translate(303.212,134.765)"
         id="g1697">
        <path
           style="stroke:none;stroke-width:0"
           d="m 4.71875,-3.046875 c 0,-1.84375 -1.015625,-3.15625 -2.109375,-3.15625 C 1.5,-6.203125 0.5,-4.859375 0.5,-3.046875 c 0,1.84375 1.015625,3.15625 2.109375,3.15625 1.125,0 2.109375,-1.328125 2.109375,-3.15625 z M 2.609375,-0.5 C 1.828125,-0.5 1.1875,-1.671875 1.1875,-3.15625 c 0,-1.453125 0.6875,-2.4375 1.421875,-2.4375 0.734375,0 1.421875,0.984375 1.421875,2.4375 0,1.484375 -0.640625,2.65625 -1.421875,2.65625 z m 0,0"
           id="id-f22e1335-91fe-412c-a142-14833701912a" />
      </g>
      <g
         transform="translate(308.442,134.765)"
         id="g1700">
        <path
           style="stroke:none;stroke-width:0"
           d="m 3.09375,-5.796875 c 0,-0.15625 0,-0.40625 -0.296875,-0.40625 -0.1875,0 -0.25,0.125 -0.296875,0.234375 C 2.125,-5.109375 1.609375,-5 1.421875,-4.984375 c -0.171875,0.015625 -0.375,0.03125 -0.375,0.3125 0,0.25 0.171875,0.296875 0.328125,0.296875 0.1875,0 0.59375,-0.0625 1.03125,-0.4375 v 4.203125 H 1.5 c -0.15625,0 -0.390625,0 -0.390625,0.3125 C 1.109375,0 1.359375,0 1.5,0 H 4 c 0.15625,0 0.40625,0 0.40625,-0.296875 0,-0.3125 -0.234375,-0.3125 -0.40625,-0.3125 H 3.09375 Z m 0,0"
           id="id-9f3871f8-b100-4923-ae62-4714af661ae9" />
      </g>
      <g
         transform="translate(313.673,134.765)"
         id="g1703">
        <path
           style="stroke:none;stroke-width:0"
           d="M 1.234375,-3.375 C 1.375,-4.78125 2.3125,-5.59375 3.1875,-5.59375 c 0.34375,0 0.5,0.109375 0.546875,0.15625 -0.046875,0.046875 -0.09375,0.109375 -0.09375,0.296875 0,0.234375 0.171875,0.4375 0.4375,0.4375 0.25,0 0.453125,-0.171875 0.453125,-0.46875 0,-0.484375 -0.359375,-1.03125 -1.328125,-1.03125 -1.34375,0 -2.671875,1.203125 -2.671875,3.21875 0,2.359375 1.109375,3.09375 2.09375,3.09375 1.09375,0 2.0625,-0.84375 2.0625,-2.03125 0,-1.140625 -0.875,-2.03125 -1.96875,-2.03125 -0.515625,0 -1.03125,0.171875 -1.484375,0.578125 z M 2.625,-0.5 c -0.640625,0 -1.03125,-0.484375 -1.234375,-1.09375 -0.015625,-0.0625 -0.03125,-0.125 -0.046875,-0.1875 0,0 -0.015625,-0.03125 -0.015625,-0.03125 0,0 0.015625,-0.09375 0.015625,-0.09375 -0.015625,-0.0625 -0.03125,-0.234375 -0.03125,-0.3125 0,-0.609375 0.59375,-1.109375 1.359375,-1.109375 C 3.484375,-3.328125 4,-2.65625 4,-1.921875 4,-1.0625 3.34375,-0.5 2.625,-0.5 Z m 0,0"
           id="id-84180931-80f1-4fb8-89bc-1e02ab447b51" />
      </g>
    </g>
    <rect
       style="font-variation-settings:normal;vector-effect:none;fill:none;fill-opacity:1;fill-rule:evenodd;stroke:#000000;stroke-width:0.264583;stroke-linecap:butt;stroke-linejoin:miter;stroke-miterlimit:4;stroke-dasharray:none;stroke-dashoffset:0;stroke-opacity:1;stop-color:#000000"
       id="rect1812"
       width="15.875"
       height="15.875"
       x="-15.742709"
       y="12.038542" />
    <rect
       style="font-variation-settings:normal;vector-effect:none;fill:none;fill-opacity:1;fill-rule:evenodd;stroke:#000000;stroke-width:0.374177;stroke-linecap:butt;stroke-linejoin:miter;stroke-miterlimit:4;stroke-dasharray:none;stroke-dashoffset:0;stroke-opacity:1;stop-color:#000000"
       id="rect2059"
       width="31.750004"
       height="15.875"
       x="79.507294"
       y="12.038542" />
    <g
       transform="matrix(1.0229976,0,0,1.0229976,3.0056337,19.432063)"
       ns30:version="1.3.1"
       ns30:texconverter="pdflatex"
       ns30:pdfconverter="inkscape"
       ns30:text="$\\ldots$\n"
       ns30:preamble="/Users/ketiboldiais/Library/Application Support/org.inkscape.Inkscape/config/inkscape/extensions/circuitSymbols/circuitSymbolsPreamble.tex"
       ns30:scale="0.7910384785605061"
       ns30:alignment="middle center"
       ns30:inkscapeversion="1.1"
       ns30:jacobian_sqrt="0.279061"
       id="g2589">
      <defs
         id="id-6bd99374-1c71-4ddb-87a8-9618bd12d63f">
        <g
           id="id-6e2285e5-2d2b-4423-813a-bc2cecf09a45">
          <symbol
             overflow="visible"
             id="id-ede768e7-8443-482b-a108-045b4018f725">
            <path
               style="stroke:none;stroke-width:0"
               d=""
               id="id-5f7e1380-9c4f-456b-9491-fd9fc5677c16" />
          </symbol>
          <symbol
             overflow="visible"
             id="id-73505853-a067-47c5-bba2-ed01dd7455bb">
            <path
               style="stroke:none;stroke-width:0"
               d="m 1.90625,-0.53125 c 0,-0.28125 -0.234375,-0.53125 -0.515625,-0.53125 -0.296875,0 -0.53125,0.25 -0.53125,0.53125 C 0.859375,-0.234375 1.09375,0 1.390625,0 1.671875,0 1.90625,-0.234375 1.90625,-0.53125 Z m 0,0"
               id="id-70258378-e3e5-4a79-95af-0674171bb319" />
          </symbol>
        </g>
      </defs>
      <g
         id="id-566d6e7a-8002-4326-97a1-45f5bb3403e7"
         transform="translate(-149.571,-133.702)">
        <g
           style="fill:#000000;fill-opacity:1"
           id="id-50ae0830-5787-4993-be34-3cfd1fd197c7">
          <g
             transform="translate(148.712,134.765)"
             id="g2577">
            <path
               style="stroke:none;stroke-width:0"
               d="m 1.90625,-0.53125 c 0,-0.28125 -0.234375,-0.53125 -0.515625,-0.53125 -0.296875,0 -0.53125,0.25 -0.53125,0.53125 C 0.859375,-0.234375 1.09375,0 1.390625,0 1.671875,0 1.90625,-0.234375 1.90625,-0.53125 Z m 0,0"
               id="id-04d2ba6e-6990-493e-8bdf-0393464b0991" />
          </g>
        </g>
        <g
           style="fill:#000000;fill-opacity:1"
           id="id-6d844eb3-4525-4be9-8f74-27b4cb3970af">
          <g
             transform="translate(153.143,134.765)"
             id="g2581">
            <path
               style="stroke:none;stroke-width:0"
               d="m 1.90625,-0.53125 c 0,-0.28125 -0.234375,-0.53125 -0.515625,-0.53125 -0.296875,0 -0.53125,0.25 -0.53125,0.53125 C 0.859375,-0.234375 1.09375,0 1.390625,0 1.671875,0 1.90625,-0.234375 1.90625,-0.53125 Z m 0,0"
               id="id-4686cb0d-19b4-4a43-b5f7-9456236a392a" />
          </g>
        </g>
        <g
           style="fill:#000000;fill-opacity:1"
           id="id-5604c99f-93e8-4eea-abbf-a5cc069c0900">
          <g
             transform="translate(157.565,134.765)"
             id="g2585">
            <path
               style="stroke:none;stroke-width:0"
               d="m 1.90625,-0.53125 c 0,-0.28125 -0.234375,-0.53125 -0.515625,-0.53125 -0.296875,0 -0.53125,0.25 -0.53125,0.53125 C 0.859375,-0.234375 1.09375,0 1.390625,0 1.671875,0 1.90625,-0.234375 1.90625,-0.53125 Z m 0,0"
               id="id-69cc7819-05e7-4777-b7b5-7e1e3e6b8834" />
          </g>
        </g>
      </g>
    </g>
    <g
       style="fill:#1a5fb4;fill-opacity:1"
       id="g2670"
       transform="matrix(0.34454019,0,0,0.34454019,-4.9647556,-25.406146)">
      <g
         transform="translate(183.412,134.765)"
         id="g2648"
         style="fill:#1a5fb4">
        <path
           style="fill:#1a5fb4;stroke:none;stroke-width:0"
           d="m 4.71875,-3.046875 c 0,-1.84375 -1.015625,-3.15625 -2.109375,-3.15625 C 1.5,-6.203125 0.5,-4.859375 0.5,-3.046875 c 0,1.84375 1.015625,3.15625 2.109375,3.15625 1.125,0 2.109375,-1.328125 2.109375,-3.15625 z M 2.609375,-0.5 C 1.828125,-0.5 1.1875,-1.671875 1.1875,-3.15625 c 0,-1.453125 0.6875,-2.4375 1.421875,-2.4375 0.734375,0 1.421875,0.984375 1.421875,2.4375 0,1.484375 -0.640625,2.65625 -1.421875,2.65625 z m 0,0"
           id="path2646" />
      </g>
      <g
         transform="translate(188.642,134.765)"
         id="g2652"
         style="fill:#1a5fb4">
        <path
           style="fill:#1a5fb4;stroke:none;stroke-width:0"
           d="M 2.859375,-2.21875 4,-3.6875 h 0.390625 c 0.140625,0 0.421875,0 0.421875,-0.296875 0,-0.3125 -0.265625,-0.3125 -0.421875,-0.3125 h -1.15625 c -0.15625,0 -0.40625,0 -0.40625,0.296875 0,0.3125 0.21875,0.3125 0.484375,0.3125 l -0.734375,1 -0.75,-1 c 0.25,0 0.46875,0 0.46875,-0.3125 0,-0.296875 -0.25,-0.296875 -0.390625,-0.296875 H 0.734375 c -0.140625,0 -0.40625,0 -0.40625,0.3125 0,0.296875 0.265625,0.296875 0.40625,0.296875 h 0.40625 L 2.3125,-2.21875 1.078125,-0.609375 h -0.40625 c -0.140625,0 -0.40625,0 -0.40625,0.3125 C 0.265625,0 0.53125,0 0.671875,0 H 1.84375 C 2,0 2.25,0 2.25,-0.296875 c 0,-0.3125 -0.21875,-0.3125 -0.53125,-0.3125 l 0.859375,-1.21875 0.890625,1.21875 c -0.28125,0 -0.5,0 -0.5,0.3125 C 2.96875,0 3.21875,0 3.375,0 h 1.15625 c 0.140625,0 0.40625,0 0.40625,-0.296875 0,-0.3125 -0.25,-0.3125 -0.40625,-0.3125 H 4.140625 Z m 0,0"
           id="path2650" />
      </g>
      <g
         transform="translate(193.872,134.765)"
         id="g2656"
         style="fill:#1a5fb4">
        <path
           style="fill:#1a5fb4;stroke:none;stroke-width:0"
           d="m 3.09375,-5.796875 c 0,-0.15625 0,-0.40625 -0.296875,-0.40625 -0.1875,0 -0.25,0.125 -0.296875,0.234375 C 2.125,-5.109375 1.609375,-5 1.421875,-4.984375 c -0.171875,0.015625 -0.375,0.03125 -0.375,0.3125 0,0.25 0.171875,0.296875 0.328125,0.296875 0.1875,0 0.59375,-0.0625 1.03125,-0.4375 v 4.203125 H 1.5 c -0.15625,0 -0.390625,0 -0.390625,0.3125 C 1.109375,0 1.359375,0 1.5,0 H 4 c 0.15625,0 0.40625,0 0.40625,-0.296875 0,-0.3125 -0.234375,-0.3125 -0.40625,-0.3125 H 3.09375 Z m 0,0"
           id="path2654" />
      </g>
      <g
         transform="translate(199.103,134.765)"
         id="g2660"
         style="fill:#1a5fb4">
        <path
           style="fill:#1a5fb4;stroke:none;stroke-width:0"
           d="m 4.71875,-3.046875 c 0,-1.84375 -1.015625,-3.15625 -2.109375,-3.15625 C 1.5,-6.203125 0.5,-4.859375 0.5,-3.046875 c 0,1.84375 1.015625,3.15625 2.109375,3.15625 1.125,0 2.109375,-1.328125 2.109375,-3.15625 z M 2.609375,-0.5 C 1.828125,-0.5 1.1875,-1.671875 1.1875,-3.15625 c 0,-1.453125 0.6875,-2.4375 1.421875,-2.4375 0.734375,0 1.421875,0.984375 1.421875,2.4375 0,1.484375 -0.640625,2.65625 -1.421875,2.65625 z m 0,0"
           id="path2658" />
      </g>
      <g
         transform="translate(204.333,134.765)"
         id="g2664"
         style="fill:#1a5fb4">
        <path
           style="fill:#1a5fb4;stroke:none;stroke-width:0"
           d="m 4.71875,-3.046875 c 0,-1.84375 -1.015625,-3.15625 -2.109375,-3.15625 C 1.5,-6.203125 0.5,-4.859375 0.5,-3.046875 c 0,1.84375 1.015625,3.15625 2.109375,3.15625 1.125,0 2.109375,-1.328125 2.109375,-3.15625 z M 2.609375,-0.5 C 1.828125,-0.5 1.1875,-1.671875 1.1875,-3.15625 c 0,-1.453125 0.6875,-2.4375 1.421875,-2.4375 0.734375,0 1.421875,0.984375 1.421875,2.4375 0,1.484375 -0.640625,2.65625 -1.421875,2.65625 z m 0,0"
           id="path2662" />
      </g>
      <g
         transform="translate(209.564,134.765)"
         id="g2668"
         style="fill:#1a5fb4">
        <path
           style="fill:#1a5fb4;stroke:none;stroke-width:0"
           d="m 4.71875,-3.046875 c 0,-1.84375 -1.015625,-3.15625 -2.109375,-3.15625 C 1.5,-6.203125 0.5,-4.859375 0.5,-3.046875 c 0,1.84375 1.015625,3.15625 2.109375,3.15625 1.125,0 2.109375,-1.328125 2.109375,-3.15625 z M 2.609375,-0.5 C 1.828125,-0.5 1.1875,-1.671875 1.1875,-3.15625 c 0,-1.453125 0.6875,-2.4375 1.421875,-2.4375 0.734375,0 1.421875,0.984375 1.421875,2.4375 0,1.484375 -0.640625,2.65625 -1.421875,2.65625 z m 0,0"
           id="path2666" />
      </g>
    </g>
    <g
       style="fill:#c01c28;fill-opacity:1"
       id="g2696"
       transform="matrix(0.34454019,0,0,0.34454019,14.788919,-25.406146)">
      <g
         transform="translate(218.121,134.765)"
         id="g2674"
         style="fill:#c01c28">
        <path
           style="fill:#c01c28;stroke:none;stroke-width:0"
           d="m 4.71875,-3.046875 c 0,-1.84375 -1.015625,-3.15625 -2.109375,-3.15625 C 1.5,-6.203125 0.5,-4.859375 0.5,-3.046875 c 0,1.84375 1.015625,3.15625 2.109375,3.15625 1.125,0 2.109375,-1.328125 2.109375,-3.15625 z M 2.609375,-0.5 C 1.828125,-0.5 1.1875,-1.671875 1.1875,-3.15625 c 0,-1.453125 0.6875,-2.4375 1.421875,-2.4375 0.734375,0 1.421875,0.984375 1.421875,2.4375 0,1.484375 -0.640625,2.65625 -1.421875,2.65625 z m 0,0"
           id="path2672" />
      </g>
      <g
         transform="translate(223.352,134.765)"
         id="g2678"
         style="fill:#c01c28">
        <path
           style="fill:#c01c28;stroke:none;stroke-width:0"
           d="M 2.859375,-2.21875 4,-3.6875 h 0.390625 c 0.140625,0 0.421875,0 0.421875,-0.296875 0,-0.3125 -0.265625,-0.3125 -0.421875,-0.3125 h -1.15625 c -0.15625,0 -0.40625,0 -0.40625,0.296875 0,0.3125 0.21875,0.3125 0.484375,0.3125 l -0.734375,1 -0.75,-1 c 0.25,0 0.46875,0 0.46875,-0.3125 0,-0.296875 -0.25,-0.296875 -0.390625,-0.296875 H 0.734375 c -0.140625,0 -0.40625,0 -0.40625,0.3125 0,0.296875 0.265625,0.296875 0.40625,0.296875 h 0.40625 L 2.3125,-2.21875 1.078125,-0.609375 h -0.40625 c -0.140625,0 -0.40625,0 -0.40625,0.3125 C 0.265625,0 0.53125,0 0.671875,0 H 1.84375 C 2,0 2.25,0 2.25,-0.296875 c 0,-0.3125 -0.21875,-0.3125 -0.53125,-0.3125 l 0.859375,-1.21875 0.890625,1.21875 c -0.28125,0 -0.5,0 -0.5,0.3125 C 2.96875,0 3.21875,0 3.375,0 h 1.15625 c 0.140625,0 0.40625,0 0.40625,-0.296875 0,-0.3125 -0.25,-0.3125 -0.40625,-0.3125 H 4.140625 Z m 0,0"
           id="path2676" />
      </g>
      <g
         transform="translate(228.582,134.765)"
         id="g2682"
         style="fill:#c01c28">
        <path
           style="fill:#c01c28;stroke:none;stroke-width:0"
           d="m 3.09375,-5.796875 c 0,-0.15625 0,-0.40625 -0.296875,-0.40625 -0.1875,0 -0.25,0.125 -0.296875,0.234375 C 2.125,-5.109375 1.609375,-5 1.421875,-4.984375 c -0.171875,0.015625 -0.375,0.03125 -0.375,0.3125 0,0.25 0.171875,0.296875 0.328125,0.296875 0.1875,0 0.59375,-0.0625 1.03125,-0.4375 v 4.203125 H 1.5 c -0.15625,0 -0.390625,0 -0.390625,0.3125 C 1.109375,0 1.359375,0 1.5,0 H 4 c 0.15625,0 0.40625,0 0.40625,-0.296875 0,-0.3125 -0.234375,-0.3125 -0.40625,-0.3125 H 3.09375 Z m 0,0"
           id="path2680" />
      </g>
      <g
         transform="translate(233.813,134.765)"
         id="g2686"
         style="fill:#c01c28">
        <path
           style="fill:#c01c28;stroke:none;stroke-width:0"
           d="m 4.71875,-3.046875 c 0,-1.84375 -1.015625,-3.15625 -2.109375,-3.15625 C 1.5,-6.203125 0.5,-4.859375 0.5,-3.046875 c 0,1.84375 1.015625,3.15625 2.109375,3.15625 1.125,0 2.109375,-1.328125 2.109375,-3.15625 z M 2.609375,-0.5 C 1.828125,-0.5 1.1875,-1.671875 1.1875,-3.15625 c 0,-1.453125 0.6875,-2.4375 1.421875,-2.4375 0.734375,0 1.421875,0.984375 1.421875,2.4375 0,1.484375 -0.640625,2.65625 -1.421875,2.65625 z m 0,0"
           id="path2684" />
      </g>
      <g
         transform="translate(239.043,134.765)"
         id="g2690"
         style="fill:#c01c28">
        <path
           style="fill:#c01c28;stroke:none;stroke-width:0"
           d="m 4.71875,-3.046875 c 0,-1.84375 -1.015625,-3.15625 -2.109375,-3.15625 C 1.5,-6.203125 0.5,-4.859375 0.5,-3.046875 c 0,1.84375 1.015625,3.15625 2.109375,3.15625 1.125,0 2.109375,-1.328125 2.109375,-3.15625 z M 2.609375,-0.5 C 1.828125,-0.5 1.1875,-1.671875 1.1875,-3.15625 c 0,-1.453125 0.6875,-2.4375 1.421875,-2.4375 0.734375,0 1.421875,0.984375 1.421875,2.4375 0,1.484375 -0.640625,2.65625 -1.421875,2.65625 z m 0,0"
           id="path2688" />
      </g>
      <g
         transform="translate(244.273,134.765)"
         id="g2694"
         style="fill:#c01c28">
        <path
           style="fill:#c01c28;stroke:none;stroke-width:0"
           d="M 0.375,-2.4375 C 0.296875,-2.296875 0.296875,-2.28125 0.296875,-2.078125 0.296875,-1.75 0.375,-1.6875 0.6875,-1.6875 h 2.515625 v 1.078125 h -0.625 c -0.15625,0 -0.390625,0 -0.390625,0.3125 C 2.1875,0 2.4375,0 2.578125,0 H 4.375 c 0.15625,0 0.40625,0 0.40625,-0.296875 0,-0.3125 -0.25,-0.3125 -0.40625,-0.3125 H 3.765625 V -1.6875 H 4.53125 c 0.15625,0 0.40625,0 0.40625,-0.296875 0,-0.3125 -0.25,-0.3125 -0.40625,-0.3125 H 3.765625 v -3.5 c 0,-0.328125 -0.078125,-0.40625 -0.421875,-0.40625 H 3.078125 c -0.25,0 -0.296875,0 -0.421875,0.203125 z m 0.609375,0.140625 2.21875,-3.46875 v 3.46875 z m 0,0"
           id="path2692" />
      </g>
    </g>
    <path
       style="fill:none;stroke:#000000;stroke-width:0.465;stroke-linecap:butt;stroke-linejoin:miter;stroke-miterlimit:4;stroke-dasharray:none;stroke-opacity:1;marker-end:url(#TriangleOutM)"
       d="m 63.632291,17.330208 c 0,0 -6.614583,-19.8437497 -19.84375,-19.8437497 -9.260417,0 -15.875,14.5520837 -15.875,14.5520837"
       id="path2731"
       sodipodi:nodetypes="ccc" />
    <path
       style="fill:none;stroke:#000000;stroke-width:0.465;stroke-linecap:butt;stroke-linejoin:miter;stroke-miterlimit:4;stroke-dasharray:none;stroke-opacity:1;marker-end:url(#TriangleOutM)"
       d="m 95.38229,17.330208 c 0,0 -14.552082,-19.8437497 -29.104166,-19.8437497 -10.583333,0 -21.166666,14.5520837 -21.166666,14.5520837"
       id="path3172"
       sodipodi:nodetypes="ccc" />
  </g>
</svg>
