<?xml version="1.0" encoding="UTF-8" standalone="no"?>
<!-- Created with Inkscape (http://www.inkscape.org/) -->

<svg
   width="88.812546mm"
   height="68.627327mm"
   viewBox="0 0 88.812545 68.627327"
   version="1.1"
   id="svg5"
   inkscape:version="1.1 (c4e8f9e, 2021-05-24)"
   sodipodi:docname="postorder_contour.svg"
   xmlns:inkscape="http://www.inkscape.org/namespaces/inkscape"
   xmlns:sodipodi="http://sodipodi.sourceforge.net/DTD/sodipodi-0.dtd"
   xmlns="http://www.w3.org/2000/svg"
   xmlns:svg="http://www.w3.org/2000/svg">
  <sodipodi:namedview
     id="namedview7"
     pagecolor="#ffffff"
     bordercolor="#666666"
     borderopacity="1.0"
     inkscape:pageshadow="2"
     inkscape:pageopacity="0.0"
     inkscape:pagecheckerboard="0"
     inkscape:document-units="mm"
     showgrid="false"
     inkscape:zoom="1.5748204"
     inkscape:cx="275.26948"
     inkscape:cy="169.86064"
     inkscape:window-width="1312"
     inkscape:window-height="847"
     inkscape:window-x="2311"
     inkscape:window-y="25"
     inkscape:window-maximized="0"
     inkscape:current-layer="layer1"
     inkscape:snap-center="true"
     inkscape:snap-global="true">
    <inkscape:grid
       type="xygrid"
       id="grid824"
       originx="-49.597575"
       originy="-97.667858" />
  </sodipodi:namedview>
  <defs
     id="defs2">
    <marker
       style="overflow:visible"
       id="TriangleOutM"
       refX="0"
       refY="0"
       orient="auto"
       inkscape:stockid="TriangleOutM"
       inkscape:isstock="true">
      <path
         transform="scale(0.4)"
         style="fill:context-stroke;fill-rule:evenodd;stroke:context-stroke;stroke-width:1pt"
         d="M 5.77,0 -2.88,5 V -5 Z"
         id="path2392" />
    </marker>
    <marker
       style="overflow:visible"
       id="Arrow2Lend"
       refX="0"
       refY="0"
       orient="auto"
       inkscape:stockid="Arrow2Lend"
       inkscape:isstock="true">
      <path
         transform="matrix(-1.1,0,0,-1.1,-1.1,0)"
         d="M 8.7185878,4.0337352 -2.2072895,0.01601326 8.7185884,-4.0017078 c -1.7454984,2.3720609 -1.7354408,5.6174519 -6e-7,8.035443 z"
         style="fill:context-stroke;fill-rule:evenodd;stroke-width:0.625;stroke-linejoin:round"
         id="path2267" />
    </marker>
    <marker
       style="overflow:visible"
       id="Arrow2Mend"
       refX="0"
       refY="0"
       orient="auto"
       inkscape:stockid="Arrow2Mend"
       inkscape:isstock="true">
      <path
         transform="scale(-0.6)"
         d="M 8.7185878,4.0337352 -2.2072895,0.01601326 8.7185884,-4.0017078 c -1.7454984,2.3720609 -1.7354408,5.6174519 -6e-7,8.035443 z"
         style="fill:context-stroke;fill-rule:evenodd;stroke-width:0.625;stroke-linejoin:round"
         id="path2273" />
    </marker>
    <marker
       style="overflow:visible"
       id="DotM"
       refX="0"
       refY="0"
       orient="auto"
       inkscape:stockid="DotM"
       inkscape:isstock="true">
      <path
         transform="matrix(0.4,0,0,0.4,2.96,0.4)"
         style="fill:context-stroke;fill-rule:evenodd;stroke:context-stroke;stroke-width:1pt"
         d="m -2.5,-1 c 0,2.76 -2.24,5 -5,5 -2.76,0 -5,-2.24 -5,-5 0,-2.76 2.24,-5 5,-5 2.76,0 5,2.24 5,5 z"
         id="path3345" />
    </marker>
    <defs
       id="id-d8a74863-b37c-4228-8b40-3a0baeb861a6">
      <g
         id="id-ec72314c-eecb-4713-b01c-f74c57247809">
        <symbol
           overflow="visible"
           id="id-76b0a945-6dc7-46dc-8501-df334fb85880">
          <path
             style="stroke:none;stroke-width:0"
             d=""
             id="id-61be25f8-befe-4fe4-8b9d-bb6032bf71da" />
        </symbol>
        <symbol
           overflow="visible"
           id="id-0a0a72ee-0ca6-42cc-b48f-45fe6b6a0a5a">
          <path
             style="stroke:none;stroke-width:0"
             d="M 3.65625,-0.3125 C 3.875,-0.015625 4.34375,0 4.71875,0 c 0.28125,0 0.5,0 0.5,-0.3125 0,-0.296875 -0.25,-0.296875 -0.390625,-0.296875 -0.421875,0 -0.515625,-0.046875 -0.59375,-0.078125 v -2.15625 c 0,-0.703125 -0.546875,-1.546875 -1.984375,-1.546875 -0.421875,0 -1.4375,0 -1.4375,0.734375 0,0.296875 0.203125,0.453125 0.4375,0.453125 0.15625,0 0.4375,-0.09375 0.4375,-0.453125 0,-0.078125 0.015625,-0.09375 0.21875,-0.109375 0.140625,-0.015625 0.265625,-0.015625 0.359375,-0.015625 0.75,0 1.265625,0.3125 1.265625,1.015625 -1.75,0.03125 -2.984375,0.53125 -2.984375,1.484375 0,0.6875 0.625,1.34375 1.640625,1.34375 0.375,0 1,-0.078125 1.46875,-0.375 z m -0.125,-1.859375 v 0.84375 c 0,0.21875 0,0.4375 -0.375,0.609375 -0.359375,0.171875 -0.8125,0.171875 -0.890625,0.171875 -0.625,0 -1.03125,-0.34375 -1.03125,-0.734375 0,-0.484375 0.859375,-0.859375 2.296875,-0.890625 z m 0,0"
             id="id-111849e6-6100-45d3-aad2-50c0e10e9d3b" />
        </symbol>
        <symbol
           overflow="visible"
           id="id-643a7278-ac3d-4a9b-bbe5-bfab97d1f5ab">
          <path
             style="stroke:none;stroke-width:0"
             d="m 1.65625,-3.875 v -1.8125 c 0,-0.296875 -0.0625,-0.40625 -0.40625,-0.40625 H 0.53125 c -0.15625,0 -0.40625,0 -0.40625,0.3125 0,0.296875 0.25,0.296875 0.390625,0.296875 H 0.96875 V -0.40625 C 0.96875,-0.203125 0.96875,0 1.3125,0 1.65625,0 1.65625,-0.203125 1.65625,-0.453125 2.0625,-0.03125 2.5,0.0625 2.8125,0.0625 c 1.078125,0 2.046875,-0.953125 2.046875,-2.21875 0,-1.21875 -0.875,-2.203125 -1.9375,-2.203125 C 2.4375,-4.359375 2,-4.171875 1.65625,-3.875 Z m 0,1.96875 V -2.625 c 0,-0.59375 0.578125,-1.125 1.203125,-1.125 0.734375,0 1.3125,0.734375 1.3125,1.59375 0,0.953125 -0.6875,1.609375 -1.390625,1.609375 -0.78125,0 -1.125,-0.875 -1.125,-1.359375 z m 0,0"
             id="id-7c945266-284a-494b-bca3-2dfd1ee47959" />
        </symbol>
        <symbol
           overflow="visible"
           id="id-3e5ab015-b22f-4d76-818d-6c3b07a5ce9f">
          <path
             style="stroke:none;stroke-width:0"
             d="m 4.640625,-1.09375 c 0,-0.265625 -0.28125,-0.265625 -0.34375,-0.265625 -0.15625,0 -0.265625,0.015625 -0.328125,0.21875 -0.0625,0.125 -0.25,0.59375 -0.984375,0.59375 -0.84375,0 -1.5625,-0.703125 -1.5625,-1.609375 0,-0.46875 0.265625,-1.625 1.625,-1.625 0.203125,0 0.59375,0 0.59375,0.09375 0.015625,0.34375 0.203125,0.484375 0.4375,0.484375 0.234375,0 0.453125,-0.171875 0.453125,-0.453125 0,-0.734375 -1.046875,-0.734375 -1.484375,-0.734375 -1.71875,0 -2.3125,1.359375 -2.3125,2.234375 0,1.203125 0.9375,2.21875 2.1875,2.21875 1.390625,0 1.71875,-0.984375 1.71875,-1.15625 z m 0,0"
             id="id-924abb80-87ef-4763-87a4-910cf065217d" />
        </symbol>
        <symbol
           overflow="visible"
           id="id-cf92c55c-1474-4d93-8e7e-76a6bca07bb5">
          <path
             style="stroke:none;stroke-width:0"
             d="m 3.5625,-0.5 c 0,0.359375 0,0.5 0.40625,0.5 H 4.6875 c 0.171875,0 0.421875,0 0.421875,-0.3125 0,-0.296875 -0.265625,-0.296875 -0.40625,-0.296875 H 4.25 V -5.6875 c 0,-0.296875 -0.046875,-0.40625 -0.390625,-0.40625 H 3.125 c -0.15625,0 -0.40625,0 -0.40625,0.3125 0,0.296875 0.265625,0.296875 0.40625,0.296875 H 3.5625 V -3.90625 C 3.234375,-4.203125 2.828125,-4.359375 2.40625,-4.359375 c -1.09375,0 -2.046875,0.953125 -2.046875,2.21875 0,1.234375 0.890625,2.203125 1.953125,2.203125 0.5625,0 0.984375,-0.265625 1.25,-0.5625 z m 0,-2.140625 V -1.9375 c 0,0.5625 -0.4375,1.390625 -1.203125,1.390625 -0.71875,0 -1.3125,-0.703125 -1.3125,-1.59375 C 1.046875,-3.09375 1.75,-3.75 2.4375,-3.75 c 0.640625,0 1.125,0.5625 1.125,1.109375 z m 0,0"
             id="id-309e3426-5370-4df4-baf8-111021634b43" />
        </symbol>
        <symbol
           overflow="visible"
           id="id-5870ed63-0c71-46b9-8f6c-40924fc9db9b">
          <path
             style="stroke:none;stroke-width:0"
             d="m 4.234375,-1.90625 c 0.203125,0 0.390625,0 0.390625,-0.359375 0,-1.140625 -0.640625,-2.125 -1.9375,-2.125 -1.1875,0 -2.140625,1 -2.140625,2.234375 0,1.203125 1.015625,2.21875 2.296875,2.21875 1.3125,0 1.78125,-0.90625 1.78125,-1.15625 0,-0.265625 -0.28125,-0.265625 -0.34375,-0.265625 -0.1875,0 -0.265625,0.03125 -0.328125,0.21875 -0.21875,0.5 -0.765625,0.59375 -1.046875,0.59375 -0.75,0 -1.484375,-0.5 -1.65625,-1.359375 z M 1.265625,-2.5 C 1.40625,-3.234375 2,-3.78125 2.6875,-3.78125 c 0.515625,0 1.140625,0.25 1.234375,1.28125 z m 0,0"
             id="id-f7bb4ad5-3816-4340-900b-d180377d974b" />
        </symbol>
        <symbol
           overflow="visible"
           id="id-445e7318-0619-4f99-9560-e8e2e3d4ba56">
          <path
             style="stroke:none;stroke-width:0"
             d="m 2.515625,-3.6875 h 1.21875 c 0.15625,0 0.40625,0 0.40625,-0.296875 0,-0.3125 -0.25,-0.3125 -0.40625,-0.3125 h -1.21875 v -0.46875 c 0,-0.78125 0.671875,-0.78125 0.96875,-0.78125 0,0.046875 0.09375,0.4375 0.4375,0.4375 0.203125,0 0.4375,-0.171875 0.4375,-0.4375 0,-0.609375 -0.796875,-0.609375 -0.953125,-0.609375 -0.796875,0 -1.578125,0.46875 -1.578125,1.328125 v 0.53125 H 0.84375 c -0.171875,0 -0.421875,0 -0.421875,0.3125 0,0.296875 0.25,0.296875 0.40625,0.296875 h 1 v 3.078125 h -1 c -0.15625,0 -0.40625,0 -0.40625,0.296875 C 0.421875,0 0.671875,0 0.828125,0 H 3.53125 c 0.140625,0 0.40625,0 0.40625,-0.296875 0,-0.3125 -0.265625,-0.3125 -0.40625,-0.3125 H 2.515625 Z m 0,0"
             id="id-fdca8f3f-490b-4054-a3e9-ff43f40aa005" />
        </symbol>
        <symbol
           overflow="visible"
           id="id-819cf903-7a74-4f30-b100-76b9c4ceb2cb">
          <path
             style="stroke:none;stroke-width:0"
             d="m 2.328125,-1.75 c -0.546875,0 -0.96875,-0.46875 -0.96875,-1 0,-0.5625 0.4375,-1.015625 0.96875,-1.015625 0.53125,0 0.953125,0.46875 0.953125,1 0,0.578125 -0.4375,1.015625 -0.953125,1.015625 z m -0.90625,0.34375 c 0.03125,0.015625 0.40625,0.25 0.90625,0.25 0.90625,0 1.640625,-0.71875 1.640625,-1.609375 C 3.96875,-3.0625 3.875,-3.34375 3.703125,-3.625 3.921875,-3.75 4.15625,-3.78125 4.28125,-3.796875 c 0.0625,0.265625 0.296875,0.34375 0.390625,0.34375 0.171875,0 0.40625,-0.125 0.40625,-0.421875 0,-0.21875 -0.1875,-0.53125 -0.734375,-0.53125 -0.109375,0 -0.59375,0.015625 -1.046875,0.34375 C 3.125,-4.171875 2.78125,-4.359375 2.328125,-4.359375 c -0.9375,0 -1.65625,0.75 -1.65625,1.59375 C 0.671875,-2.328125 0.84375,-2 1,-1.8125 c -0.109375,0.15625 -0.203125,0.375 -0.203125,0.671875 0,0.359375 0.140625,0.609375 0.234375,0.71875 -0.734375,0.453125 -0.734375,1.125 -0.734375,1.234375 0,0.859375 1.03125,1.46875 2.3125,1.46875 C 3.890625,2.28125 4.9375,1.671875 4.9375,0.8125 4.9375,0.453125 4.75,-0.046875 4.25,-0.3125 4.109375,-0.390625 3.703125,-0.609375 2.796875,-0.609375 h -0.6875 c -0.078125,0 -0.21875,0 -0.296875,-0.015625 -0.140625,0 -0.203125,0 -0.328125,-0.140625 -0.109375,-0.140625 -0.125,-0.34375 -0.125,-0.359375 0,-0.046875 0.03125,-0.1875 0.0625,-0.28125 z m 1.1875,3.09375 c -1,0 -1.734375,-0.4375 -1.734375,-0.875 0,-0.171875 0.078125,-0.5 0.40625,-0.6875 0.25,-0.171875 0.328125,-0.171875 1.0625,-0.171875 0.890625,0 2.015625,0 2.015625,0.859375 0,0.4375 -0.75,0.875 -1.75,0.875 z m 0,0"
             id="id-1bcc9573-97cb-46f3-b4fd-7c021a853454" />
        </symbol>
      </g>
    </defs>
  </defs>
  <g
     inkscape:label="Layer 1"
     inkscape:groupmode="layer"
     id="layer1"
     transform="translate(-49.59758,-97.667853)">
    <g
       transform="matrix(0.709456,0,0,0.709456,134.70765,166.25084)"
       id="g2643"
       style="fill:#009100;fill-opacity:1">
      <path
         style="fill:#009100;stroke:none;stroke-width:0"
         d="M 3.65625,-0.3125 C 3.875,-0.015625 4.34375,0 4.71875,0 c 0.28125,0 0.5,0 0.5,-0.3125 0,-0.296875 -0.25,-0.296875 -0.390625,-0.296875 -0.421875,0 -0.515625,-0.046875 -0.59375,-0.078125 v -2.15625 c 0,-0.703125 -0.546875,-1.546875 -1.984375,-1.546875 -0.421875,0 -1.4375,0 -1.4375,0.734375 0,0.296875 0.203125,0.453125 0.4375,0.453125 0.15625,0 0.4375,-0.09375 0.4375,-0.453125 0,-0.078125 0.015625,-0.09375 0.21875,-0.109375 0.140625,-0.015625 0.265625,-0.015625 0.359375,-0.015625 0.75,0 1.265625,0.3125 1.265625,1.015625 -1.75,0.03125 -2.984375,0.53125 -2.984375,1.484375 0,0.6875 0.625,1.34375 1.640625,1.34375 0.375,0 1,-0.078125 1.46875,-0.375 z m -0.125,-1.859375 v 0.84375 c 0,0.21875 0,0.4375 -0.375,0.609375 -0.359375,0.171875 -0.8125,0.171875 -0.890625,0.171875 -0.625,0 -1.03125,-0.34375 -1.03125,-0.734375 0,-0.484375 0.859375,-0.859375 2.296875,-0.890625 z m 0,0"
         id="path2641" />
    </g>
    <g
       transform="matrix(0.709456,0,0,0.709456,78.004553,166.25084)"
       id="g2649"
       style="fill:#009100;fill-opacity:1">
      <path
         style="fill:#009100;stroke:none;stroke-width:0"
         d="m 1.65625,-3.875 v -1.8125 c 0,-0.296875 -0.0625,-0.40625 -0.40625,-0.40625 H 0.53125 c -0.15625,0 -0.40625,0 -0.40625,0.3125 0,0.296875 0.25,0.296875 0.390625,0.296875 H 0.96875 V -0.40625 C 0.96875,-0.203125 0.96875,0 1.3125,0 1.65625,0 1.65625,-0.203125 1.65625,-0.453125 2.0625,-0.03125 2.5,0.0625 2.8125,0.0625 c 1.078125,0 2.046875,-0.953125 2.046875,-2.21875 0,-1.21875 -0.875,-2.203125 -1.9375,-2.203125 C 2.4375,-4.359375 2,-4.171875 1.65625,-3.875 Z m 0,1.96875 V -2.625 c 0,-0.59375 0.578125,-1.125 1.203125,-1.125 0.734375,0 1.3125,0.734375 1.3125,1.59375 0,0.953125 -0.6875,1.609375 -1.390625,1.609375 -0.78125,0 -1.125,-0.875 -1.125,-1.359375 z m 0,0"
         id="path2647" />
    </g>
    <g
       transform="matrix(0.709456,0,0,0.709456,49.342619,166.25084)"
       id="g2655"
       style="fill:#0084c8;fill-opacity:1">
      <path
         style="fill:#0084c8;stroke:none;stroke-width:0"
         d="m 3.5625,-0.5 c 0,0.359375 0,0.5 0.40625,0.5 H 4.6875 c 0.171875,0 0.421875,0 0.421875,-0.3125 0,-0.296875 -0.265625,-0.296875 -0.40625,-0.296875 H 4.25 V -5.6875 c 0,-0.296875 -0.046875,-0.40625 -0.390625,-0.40625 H 3.125 c -0.15625,0 -0.40625,0 -0.40625,0.3125 0,0.296875 0.265625,0.296875 0.40625,0.296875 H 3.5625 V -3.90625 C 3.234375,-4.203125 2.828125,-4.359375 2.40625,-4.359375 c -1.09375,0 -2.046875,0.953125 -2.046875,2.21875 0,1.234375 0.890625,2.203125 1.953125,2.203125 0.5625,0 0.984375,-0.265625 1.25,-0.5625 z m 0,-2.140625 V -1.9375 c 0,0.5625 -0.4375,1.390625 -1.203125,1.390625 -0.71875,0 -1.3125,-0.703125 -1.3125,-1.59375 C 1.046875,-3.09375 1.75,-3.75 2.4375,-3.75 c 0.640625,0 1.125,0.5625 1.125,1.109375 z m 0,0"
         id="path2653" />
    </g>
    <g
       transform="matrix(0.709456,0,0,0.709456,63.692986,166.25084)"
       id="g2661"
       style="fill:#dc0000;fill-opacity:1">
      <path
         style="fill:#dc0000;stroke:none;stroke-width:0"
         d="m 4.234375,-1.90625 c 0.203125,0 0.390625,0 0.390625,-0.359375 0,-1.140625 -0.640625,-2.125 -1.9375,-2.125 -1.1875,0 -2.140625,1 -2.140625,2.234375 0,1.203125 1.015625,2.21875 2.296875,2.21875 1.3125,0 1.78125,-0.90625 1.78125,-1.15625 0,-0.265625 -0.28125,-0.265625 -0.34375,-0.265625 -0.1875,0 -0.265625,0.03125 -0.328125,0.21875 -0.21875,0.5 -0.765625,0.59375 -1.046875,0.59375 -0.75,0 -1.484375,-0.5 -1.65625,-1.359375 z M 1.265625,-2.5 C 1.40625,-3.234375 2,-3.78125 2.6875,-3.78125 c 0.515625,0 1.140625,0.25 1.234375,1.28125 z m 0,0"
         id="path2659" />
    </g>
    <g
       transform="matrix(0.709456,0,0,0.709456,120.60116,166.25084)"
       id="g2667"
       style="fill:#dc0000;fill-opacity:1">
      <path
         style="fill:#dc0000;stroke:none;stroke-width:0"
         d="m 4.640625,-1.09375 c 0,-0.265625 -0.28125,-0.265625 -0.34375,-0.265625 -0.15625,0 -0.265625,0.015625 -0.328125,0.21875 -0.0625,0.125 -0.25,0.59375 -0.984375,0.59375 -0.84375,0 -1.5625,-0.703125 -1.5625,-1.609375 0,-0.46875 0.265625,-1.625 1.625,-1.625 0.203125,0 0.59375,0 0.59375,0.09375 0.015625,0.34375 0.203125,0.484375 0.4375,0.484375 0.234375,0 0.453125,-0.171875 0.453125,-0.453125 0,-0.734375 -1.046875,-0.734375 -1.484375,-0.734375 -1.71875,0 -2.3125,1.359375 -2.3125,2.234375 0,1.203125 0.9375,2.21875 2.1875,2.21875 1.390625,0 1.71875,-0.984375 1.71875,-1.15625 z m 0,0"
         id="path2665" />
    </g>
    <g
       transform="matrix(0.709456,0,0,0.709456,92.321669,166.29518)"
       id="g2673"
       style="fill:#ba00ff;fill-opacity:1">
      <path
         style="fill:#ba00ff;stroke:none;stroke-width:0"
         d="m 2.515625,-3.6875 h 1.21875 c 0.15625,0 0.40625,0 0.40625,-0.296875 0,-0.3125 -0.25,-0.3125 -0.40625,-0.3125 h -1.21875 v -0.46875 c 0,-0.78125 0.671875,-0.78125 0.96875,-0.78125 0,0.046875 0.09375,0.4375 0.4375,0.4375 0.203125,0 0.4375,-0.171875 0.4375,-0.4375 0,-0.609375 -0.796875,-0.609375 -0.953125,-0.609375 -0.796875,0 -1.578125,0.46875 -1.578125,1.328125 v 0.53125 H 0.84375 c -0.171875,0 -0.421875,0 -0.421875,0.3125 0,0.296875 0.25,0.296875 0.40625,0.296875 h 1 v 3.078125 h -1 c -0.15625,0 -0.40625,0 -0.40625,0.296875 C 0.421875,0 0.671875,0 0.828125,0 H 3.53125 c 0.140625,0 0.40625,0 0.40625,-0.296875 0,-0.3125 -0.265625,-0.3125 -0.40625,-0.3125 H 2.515625 Z m 0,0"
         id="path2671" />
    </g>
    <g
       transform="matrix(0.709456,0,0,0.709456,106.35611,164.67673)"
       id="g2679"
       style="fill:#0084c8;fill-opacity:1">
      <path
         style="fill:#0084c8;stroke:none;stroke-width:0"
         d="m 2.328125,-1.75 c -0.546875,0 -0.96875,-0.46875 -0.96875,-1 0,-0.5625 0.4375,-1.015625 0.96875,-1.015625 0.53125,0 0.953125,0.46875 0.953125,1 0,0.578125 -0.4375,1.015625 -0.953125,1.015625 z m -0.90625,0.34375 c 0.03125,0.015625 0.40625,0.25 0.90625,0.25 0.90625,0 1.640625,-0.71875 1.640625,-1.609375 C 3.96875,-3.0625 3.875,-3.34375 3.703125,-3.625 3.921875,-3.75 4.15625,-3.78125 4.28125,-3.796875 c 0.0625,0.265625 0.296875,0.34375 0.390625,0.34375 0.171875,0 0.40625,-0.125 0.40625,-0.421875 0,-0.21875 -0.1875,-0.53125 -0.734375,-0.53125 -0.109375,0 -0.59375,0.015625 -1.046875,0.34375 C 3.125,-4.171875 2.78125,-4.359375 2.328125,-4.359375 c -0.9375,0 -1.65625,0.75 -1.65625,1.59375 C 0.671875,-2.328125 0.84375,-2 1,-1.8125 c -0.109375,0.15625 -0.203125,0.375 -0.203125,0.671875 0,0.359375 0.140625,0.609375 0.234375,0.71875 -0.734375,0.453125 -0.734375,1.125 -0.734375,1.234375 0,0.859375 1.03125,1.46875 2.3125,1.46875 C 3.890625,2.28125 4.9375,1.671875 4.9375,0.8125 4.9375,0.453125 4.75,-0.046875 4.25,-0.3125 4.109375,-0.390625 3.703125,-0.609375 2.796875,-0.609375 h -0.6875 c -0.078125,0 -0.21875,0 -0.296875,-0.015625 -0.140625,0 -0.203125,0 -0.328125,-0.140625 -0.109375,-0.140625 -0.125,-0.34375 -0.125,-0.359375 0,-0.046875 0.03125,-0.1875 0.0625,-0.28125 z m 1.1875,3.09375 c -1,0 -1.734375,-0.4375 -1.734375,-0.875 0,-0.171875 0.078125,-0.5 0.40625,-0.6875 0.25,-0.171875 0.328125,-0.171875 1.0625,-0.171875 0.890625,0 2.015625,0 2.015625,0.859375 0,0.4375 -0.75,0.875 -1.75,0.875 z m 0,0"
         id="path2677" />
    </g>
    <path
       style="font-variation-settings:normal;fill:none;fill-opacity:1;stroke:#9eabb0;stroke-width:0.529167;stroke-linecap:butt;stroke-linejoin:miter;stroke-miterlimit:4;stroke-dasharray:none;stroke-dashoffset:0;stroke-opacity:1;marker-mid:;marker-end:url(#TriangleOutM);stop-color:#000000"
       d="m 93.073129,97.92497 c -4.731774,1.148565 -4.590213,6.60363 -5.377524,10.68981 -1.216832,4.2734 -6.041951,7.16221 -9.395485,9.7827 -4.090756,1.10347 -8.026025,1.85703 -10.343624,5.87784 -2.355662,8.1375 -5.638543,13.78004 -10.704615,20.56217 -1.625245,4.52245 1.022168,10.82219 6.079374,10.53311 4.69808,0.26171 7.968897,-3.77703 6.631982,-8.62099 -0.313437,-3.16076 0.280387,-9.59516 2.804368,-12.18574 4.545606,-2.6556 5.970337,8.15001 4.317571,11.5724 -2.263153,4.87566 2.479903,8.68232 7.479911,9.41371 4.957043,1.07134 7.627102,-3.44714 7.245519,-8.22567 0.08257,-3.79086 -1.268093,-5.53759 -4.297984,-7.58141 -3.452378,-2.74507 -7.309101,-6.51097 -6.481286,-11.36565 0.867477,-6.409 5.055096,-11.61888 10.11882,-14.94111 4.08417,-2.23199 10.892004,0.25714 13.159564,4.3025 4.70709,6.42603 5.79105,16.50456 -0.0762,22.58591 -2.35357,2.42263 -4.893425,3.60061 -5.694737,7.22591 -1.428977,3.66607 0.835599,6.50842 4.696887,7.65297 5.05912,1.90903 9.82344,-1.36013 9.26267,-7.2056 -0.0998,-3.6378 -1.4347,-11.39565 2.9655,-13.64252 4.27027,-1.12493 6.67966,8.10607 4.03497,11.62379 -1.70821,5.05304 2.11352,8.77836 7.61161,9.08648 4.45522,0.71033 6.49456,-0.81268 6.89309,-5.20826 1.12959,-4.31675 -1.67644,-7.22074 -6.13481,-9.45716 -3.78312,-1.5159 -4.05756,-4.03431 -4.137,-9.01383 -0.39338,-3.55945 -1.04025,-8.80375 -4.60884,-10.89143 -4.87615,-3.05348 -11.53247,-4.231 -14.62678,-9.7165 -2.96951,-5.22199 0.86122,-9.98289 -4.19848,-12.181406"
       id="path3460"
       sodipodi:nodetypes="cccccccccccccccccccccccccccc" />
    <circle
       style="font-variation-settings:normal;fill:#fff5d0;fill-opacity:1;fill-rule:evenodd;stroke:#000000;stroke-width:0.529167;stroke-linecap:butt;stroke-linejoin:miter;stroke-miterlimit:4;stroke-dasharray:none;stroke-dashoffset:0;stroke-opacity:1;stop-color:#000000"
       id="path869"
       cx="95.25"
       cy="105.83334"
       r="5.2916665" />
    <circle
       style="font-variation-settings:normal;fill:#c7ecff;fill-opacity:1;fill-rule:evenodd;stroke:#000000;stroke-width:0.529167;stroke-linecap:butt;stroke-linejoin:miter;stroke-miterlimit:4;stroke-dasharray:none;stroke-dashoffset:0;stroke-opacity:1;stop-color:#000000"
       id="circle951"
       cx="74.083336"
       cy="127"
       r="5.2916665" />
    <circle
       style="font-variation-settings:normal;fill:#f8e5ff;fill-opacity:1;fill-rule:evenodd;stroke:#000000;stroke-width:0.529167;stroke-linecap:butt;stroke-linejoin:miter;stroke-miterlimit:4;stroke-dasharray:none;stroke-dashoffset:0;stroke-opacity:1;stop-color:#000000"
       id="circle953"
       cx="116.41666"
       cy="127"
       r="5.2916665" />
    <circle
       style="font-variation-settings:normal;fill:#c7ecff;fill-opacity:1;fill-rule:evenodd;stroke:#000000;stroke-width:0.529167;stroke-linecap:butt;stroke-linejoin:miter;stroke-miterlimit:4;stroke-dasharray:none;stroke-dashoffset:0;stroke-opacity:1;stop-color:#000000"
       id="circle955"
       cx="63.5"
       cy="148.16667"
       r="5.2916665" />
    <circle
       style="font-variation-settings:normal;fill:#c7ecff;fill-opacity:1;fill-rule:evenodd;stroke:#000000;stroke-width:0.529167;stroke-linecap:butt;stroke-linejoin:miter;stroke-miterlimit:4;stroke-dasharray:none;stroke-dashoffset:0;stroke-opacity:1;stop-color:#000000"
       id="circle957"
       cx="84.666664"
       cy="148.16667"
       r="5.2916665" />
    <circle
       style="font-variation-settings:normal;fill:#f8e5ff;fill-opacity:1;fill-rule:evenodd;stroke:#000000;stroke-width:0.529167;stroke-linecap:butt;stroke-linejoin:miter;stroke-miterlimit:4;stroke-dasharray:none;stroke-dashoffset:0;stroke-opacity:1;stop-color:#000000"
       id="circle959"
       cx="105.83334"
       cy="148.16667"
       r="5.2916665" />
    <circle
       style="font-variation-settings:normal;fill:#f8e5ff;fill-opacity:1;fill-rule:evenodd;stroke:#000000;stroke-width:0.529167;stroke-linecap:butt;stroke-linejoin:miter;stroke-miterlimit:4;stroke-dasharray:none;stroke-dashoffset:0;stroke-opacity:1;stop-color:#000000"
       id="circle961"
       cx="127"
       cy="148.16667"
       r="5.2916665" />
    <path
       style="fill:none;fill-rule:evenodd;stroke:#000000;stroke-width:0.79375;stroke-linecap:butt;stroke-linejoin:miter;stroke-miterlimit:4;stroke-dasharray:none;stroke-opacity:1"
       d="M 91.508226,109.57512 77.82511,123.25823"
       id="path1036"
       inkscape:connector-type="polyline"
       inkscape:connector-curvature="0"
       inkscape:connection-start="#path869"
       inkscape:connection-end="#circle951" />
    <path
       style="fill:none;fill-rule:evenodd;stroke:#000000;stroke-width:0.79375;stroke-linecap:butt;stroke-linejoin:miter;stroke-miterlimit:4;stroke-dasharray:none;stroke-opacity:1"
       d="m 98.991773,109.57512 13.683107,13.68311"
       id="path1038"
       inkscape:connector-type="polyline"
       inkscape:connector-curvature="0"
       inkscape:connection-start="#path869"
       inkscape:connection-end="#circle953" />
    <path
       style="fill:none;fill-rule:evenodd;stroke:#000000;stroke-width:0.79375;stroke-linecap:butt;stroke-linejoin:miter;stroke-miterlimit:4;stroke-dasharray:none;stroke-opacity:1"
       d="m 71.716861,131.73295 -5.850386,11.70077"
       id="path1040"
       inkscape:connector-type="polyline"
       inkscape:connector-curvature="0"
       inkscape:connection-start="#circle951"
       inkscape:connection-end="#circle955" />
    <path
       style="fill:none;fill-rule:evenodd;stroke:#000000;stroke-width:0.79375;stroke-linecap:butt;stroke-linejoin:miter;stroke-miterlimit:4;stroke-dasharray:none;stroke-opacity:1"
       d="m 76.449809,131.73295 5.850382,11.70077"
       id="path1042"
       inkscape:connector-type="polyline"
       inkscape:connector-curvature="0"
       inkscape:connection-start="#circle951"
       inkscape:connection-end="#circle957" />
    <path
       style="fill:none;fill-rule:evenodd;stroke:#000000;stroke-width:0.79375;stroke-linecap:butt;stroke-linejoin:miter;stroke-miterlimit:4;stroke-dasharray:none;stroke-opacity:1"
       d="m 114.05019,131.73295 -5.85038,11.70077"
       id="path1044"
       inkscape:connector-type="polyline"
       inkscape:connector-curvature="0"
       inkscape:connection-start="#circle953"
       inkscape:connection-end="#circle959" />
    <path
       style="fill:none;fill-rule:evenodd;stroke:#000000;stroke-width:0.79375;stroke-linecap:butt;stroke-linejoin:miter;stroke-miterlimit:4;stroke-dasharray:none;stroke-opacity:1"
       d="m 118.78313,131.73295 5.85039,11.70077"
       id="path1046"
       inkscape:connector-type="polyline"
       inkscape:connector-curvature="0"
       inkscape:connection-start="#circle953"
       inkscape:connection-end="#circle961" />
    <g
       transform="matrix(0.709456,0,0,0.709456,93.204772,107.36865)"
       id="g1199"
       style="fill:#000000;fill-opacity:1">
      <path
         style="stroke:none;stroke-width:0"
         d="M 3.65625,-0.3125 C 3.875,-0.015625 4.34375,0 4.71875,0 c 0.28125,0 0.5,0 0.5,-0.3125 0,-0.296875 -0.25,-0.296875 -0.390625,-0.296875 -0.421875,0 -0.515625,-0.046875 -0.59375,-0.078125 v -2.15625 c 0,-0.703125 -0.546875,-1.546875 -1.984375,-1.546875 -0.421875,0 -1.4375,0 -1.4375,0.734375 0,0.296875 0.203125,0.453125 0.4375,0.453125 0.15625,0 0.4375,-0.09375 0.4375,-0.453125 0,-0.078125 0.015625,-0.09375 0.21875,-0.109375 0.140625,-0.015625 0.265625,-0.015625 0.359375,-0.015625 0.75,0 1.265625,0.3125 1.265625,1.015625 -1.75,0.03125 -2.984375,0.53125 -2.984375,1.484375 0,0.6875 0.625,1.34375 1.640625,1.34375 0.375,0 1,-0.078125 1.46875,-0.375 z m -0.125,-1.859375 v 0.84375 c 0,0.21875 0,0.4375 -0.375,0.609375 -0.359375,0.171875 -0.8125,0.171875 -0.890625,0.171875 -0.625,0 -1.03125,-0.34375 -1.03125,-0.734375 0,-0.484375 0.859375,-0.859375 2.296875,-0.890625 z m 0,0"
         id="id-ef8fc3c1-17b1-4e20-b03a-b58dca4e6e71" />
    </g>
    <g
       transform="matrix(0.709456,0,0,0.709456,72.315239,129.13945)"
       id="g1203"
       style="fill:#000000;fill-opacity:1">
      <path
         style="stroke:none;stroke-width:0"
         d="m 1.65625,-3.875 v -1.8125 c 0,-0.296875 -0.0625,-0.40625 -0.40625,-0.40625 H 0.53125 c -0.15625,0 -0.40625,0 -0.40625,0.3125 0,0.296875 0.25,0.296875 0.390625,0.296875 H 0.96875 V -0.40625 C 0.96875,-0.203125 0.96875,0 1.3125,0 1.65625,0 1.65625,-0.203125 1.65625,-0.453125 2.0625,-0.03125 2.5,0.0625 2.8125,0.0625 c 1.078125,0 2.046875,-0.953125 2.046875,-2.21875 0,-1.21875 -0.875,-2.203125 -1.9375,-2.203125 C 2.4375,-4.359375 2,-4.171875 1.65625,-3.875 Z m 0,1.96875 V -2.625 c 0,-0.59375 0.578125,-1.125 1.203125,-1.125 0.734375,0 1.3125,0.734375 1.3125,1.59375 0,0.953125 -0.6875,1.609375 -1.390625,1.609375 -0.78125,0 -1.125,-0.875 -1.125,-1.359375 z m 0,0"
         id="id-b1e21adf-0c7b-4723-acc9-2f746a5b5e2e" />
    </g>
    <g
       transform="matrix(0.709456,0,0,0.709456,114.50999,128.53531)"
       id="g1207"
       style="fill:#000000;fill-opacity:1">
      <path
         style="stroke:none;stroke-width:0"
         d="m 4.640625,-1.09375 c 0,-0.265625 -0.28125,-0.265625 -0.34375,-0.265625 -0.15625,0 -0.265625,0.015625 -0.328125,0.21875 -0.0625,0.125 -0.25,0.59375 -0.984375,0.59375 -0.84375,0 -1.5625,-0.703125 -1.5625,-1.609375 0,-0.46875 0.265625,-1.625 1.625,-1.625 0.203125,0 0.59375,0 0.59375,0.09375 0.015625,0.34375 0.203125,0.484375 0.4375,0.484375 0.234375,0 0.453125,-0.171875 0.453125,-0.453125 0,-0.734375 -1.046875,-0.734375 -1.484375,-0.734375 -1.71875,0 -2.3125,1.359375 -2.3125,2.234375 0,1.203125 0.9375,2.21875 2.1875,2.21875 1.390625,0 1.71875,-0.984375 1.71875,-1.15625 z m 0,0"
         id="id-55c33b98-52cc-4b3d-852a-b524f9780006" />
    </g>
    <g
       transform="matrix(0.709456,0,0,0.709456,61.560081,150.30612)"
       id="g1211"
       style="fill:#000000;fill-opacity:1">
      <path
         style="stroke:none;stroke-width:0"
         d="m 3.5625,-0.5 c 0,0.359375 0,0.5 0.40625,0.5 H 4.6875 c 0.171875,0 0.421875,0 0.421875,-0.3125 0,-0.296875 -0.265625,-0.296875 -0.40625,-0.296875 H 4.25 V -5.6875 c 0,-0.296875 -0.046875,-0.40625 -0.390625,-0.40625 H 3.125 c -0.15625,0 -0.40625,0 -0.40625,0.3125 0,0.296875 0.265625,0.296875 0.40625,0.296875 H 3.5625 V -3.90625 C 3.234375,-4.203125 2.828125,-4.359375 2.40625,-4.359375 c -1.09375,0 -2.046875,0.953125 -2.046875,2.21875 0,1.234375 0.890625,2.203125 1.953125,2.203125 0.5625,0 0.984375,-0.265625 1.25,-0.5625 z m 0,-2.140625 V -1.9375 c 0,0.5625 -0.4375,1.390625 -1.203125,1.390625 -0.71875,0 -1.3125,-0.703125 -1.3125,-1.59375 C 1.046875,-3.09375 1.75,-3.75 2.4375,-3.75 c 0.640625,0 1.125,0.5625 1.125,1.109375 z m 0,0"
         id="id-8e3dcb69-d56a-484a-9d12-50ba61079a9b" />
    </g>
    <g
       transform="matrix(0.709456,0,0,0.709456,82.832055,149.70198)"
       id="g1215"
       style="fill:#000000;fill-opacity:1">
      <path
         style="stroke:none;stroke-width:0"
         d="m 4.234375,-1.90625 c 0.203125,0 0.390625,0 0.390625,-0.359375 0,-1.140625 -0.640625,-2.125 -1.9375,-2.125 -1.1875,0 -2.140625,1 -2.140625,2.234375 0,1.203125 1.015625,2.21875 2.296875,2.21875 1.3125,0 1.78125,-0.90625 1.78125,-1.15625 0,-0.265625 -0.28125,-0.265625 -0.34375,-0.265625 -0.1875,0 -0.265625,0.03125 -0.328125,0.21875 -0.21875,0.5 -0.765625,0.59375 -1.046875,0.59375 -0.75,0 -1.484375,-0.5 -1.65625,-1.359375 z M 1.265625,-2.5 C 1.40625,-3.234375 2,-3.78125 2.6875,-3.78125 c 0.515625,0 1.140625,0.25 1.234375,1.28125 z m 0,0"
         id="id-06111da5-6300-45f6-a6c4-a3c943401116" />
    </g>
    <g
       transform="matrix(0.709456,0,0,0.709456,104.1373,150.35047)"
       id="g1219"
       style="fill:#000000;fill-opacity:1">
      <path
         style="stroke:none;stroke-width:0"
         d="m 2.515625,-3.6875 h 1.21875 c 0.15625,0 0.40625,0 0.40625,-0.296875 0,-0.3125 -0.25,-0.3125 -0.40625,-0.3125 h -1.21875 v -0.46875 c 0,-0.78125 0.671875,-0.78125 0.96875,-0.78125 0,0.046875 0.09375,0.4375 0.4375,0.4375 0.203125,0 0.4375,-0.171875 0.4375,-0.4375 0,-0.609375 -0.796875,-0.609375 -0.953125,-0.609375 -0.796875,0 -1.578125,0.46875 -1.578125,1.328125 v 0.53125 H 0.84375 c -0.171875,0 -0.421875,0 -0.421875,0.3125 0,0.296875 0.25,0.296875 0.40625,0.296875 h 1 v 3.078125 h -1 c -0.15625,0 -0.40625,0 -0.40625,0.296875 C 0.421875,0 0.671875,0 0.828125,0 H 3.53125 c 0.140625,0 0.40625,0 0.40625,-0.296875 0,-0.3125 -0.265625,-0.3125 -0.40625,-0.3125 H 2.515625 Z m 0,0"
         id="id-44fda651-e33e-416e-9287-769588811d7a" />
    </g>
    <g
       transform="matrix(0.709456,0,0,0.709456,125.09334,148.92047)"
       id="g1223"
       style="fill:#000000;fill-opacity:1">
      <path
         style="stroke:none;stroke-width:0"
         d="m 2.328125,-1.75 c -0.546875,0 -0.96875,-0.46875 -0.96875,-1 0,-0.5625 0.4375,-1.015625 0.96875,-1.015625 0.53125,0 0.953125,0.46875 0.953125,1 0,0.578125 -0.4375,1.015625 -0.953125,1.015625 z m -0.90625,0.34375 c 0.03125,0.015625 0.40625,0.25 0.90625,0.25 0.90625,0 1.640625,-0.71875 1.640625,-1.609375 C 3.96875,-3.0625 3.875,-3.34375 3.703125,-3.625 3.921875,-3.75 4.15625,-3.78125 4.28125,-3.796875 c 0.0625,0.265625 0.296875,0.34375 0.390625,0.34375 0.171875,0 0.40625,-0.125 0.40625,-0.421875 0,-0.21875 -0.1875,-0.53125 -0.734375,-0.53125 -0.109375,0 -0.59375,0.015625 -1.046875,0.34375 C 3.125,-4.171875 2.78125,-4.359375 2.328125,-4.359375 c -0.9375,0 -1.65625,0.75 -1.65625,1.59375 C 0.671875,-2.328125 0.84375,-2 1,-1.8125 c -0.109375,0.15625 -0.203125,0.375 -0.203125,0.671875 0,0.359375 0.140625,0.609375 0.234375,0.71875 -0.734375,0.453125 -0.734375,1.125 -0.734375,1.234375 0,0.859375 1.03125,1.46875 2.3125,1.46875 C 3.890625,2.28125 4.9375,1.671875 4.9375,0.8125 4.9375,0.453125 4.75,-0.046875 4.25,-0.3125 4.109375,-0.390625 3.703125,-0.609375 2.796875,-0.609375 h -0.6875 c -0.078125,0 -0.21875,0 -0.296875,-0.015625 -0.140625,0 -0.203125,0 -0.328125,-0.140625 -0.109375,-0.140625 -0.125,-0.34375 -0.125,-0.359375 0,-0.046875 0.03125,-0.1875 0.0625,-0.28125 z m 1.1875,3.09375 c -1,0 -1.734375,-0.4375 -1.734375,-0.875 0,-0.171875 0.078125,-0.5 0.40625,-0.6875 0.25,-0.171875 0.328125,-0.171875 1.0625,-0.171875 0.890625,0 2.015625,0 2.015625,0.859375 0,0.4375 -0.75,0.875 -1.75,0.875 z m 0,0"
         id="id-794b1774-4334-4e66-851f-42ad581dffa2" />
    </g>
    <path
       style="fill:none;stroke:#000000;stroke-width:0.529167;stroke-linecap:butt;stroke-linejoin:miter;stroke-miterlimit:4;stroke-dasharray:none;stroke-opacity:1"
       d="m 72.760416,148.16666 h -3.96875"
       id="path2092" />
    <circle
       style="font-variation-settings:normal;vector-effect:none;fill:#0084c8;fill-opacity:1;fill-rule:evenodd;stroke:#000000;stroke-width:0.264583;stroke-linecap:butt;stroke-linejoin:miter;stroke-miterlimit:4;stroke-dasharray:none;stroke-dashoffset:0;stroke-opacity:1;stop-color:#000000"
       id="path4980"
       cx="148.16666"
       cy="-70.379181"
       r="0.66145831"
       transform="rotate(90)" />
    <path
       style="fill:none;stroke:#000000;stroke-width:0.529167;stroke-linecap:butt;stroke-linejoin:miter;stroke-miterlimit:4;stroke-dasharray:none;stroke-opacity:1"
       d="m 83.343754,126.99999 h -3.96875"
       id="path1270" />
    <circle
       style="font-variation-settings:normal;vector-effect:none;fill:#9ade00;fill-opacity:1;fill-rule:evenodd;stroke:#000000;stroke-width:0.264583;stroke-linecap:butt;stroke-linejoin:miter;stroke-miterlimit:4;stroke-dasharray:none;stroke-dashoffset:0;stroke-opacity:1;stop-color:#000000"
       id="circle1272"
       cx="126.99999"
       cy="-80.962517"
       r="0.66145831"
       transform="rotate(90)" />
    <path
       style="fill:none;stroke:#000000;stroke-width:0.529167;stroke-linecap:butt;stroke-linejoin:miter;stroke-miterlimit:4;stroke-dasharray:none;stroke-opacity:1"
       d="m 93.927087,148.16666 h -3.96875"
       id="path1276" />
    <circle
       style="font-variation-settings:normal;vector-effect:none;fill:#ff4141;fill-opacity:1;fill-rule:evenodd;stroke:#000000;stroke-width:0.264583;stroke-linecap:butt;stroke-linejoin:miter;stroke-miterlimit:4;stroke-dasharray:none;stroke-dashoffset:0;stroke-opacity:1;stop-color:#000000"
       id="circle1278"
       cx="148.16666"
       cy="-91.545853"
       r="0.66145831"
       transform="rotate(90)" />
    <path
       style="fill:none;stroke:#000000;stroke-width:0.529167;stroke-linecap:butt;stroke-linejoin:miter;stroke-miterlimit:4;stroke-dasharray:none;stroke-opacity:1"
       d="m 104.51042,105.83333 h -3.96875"
       id="path1282" />
    <circle
       style="font-variation-settings:normal;vector-effect:none;fill:#9ade00;fill-opacity:1;fill-rule:evenodd;stroke:#000000;stroke-width:0.264583;stroke-linecap:butt;stroke-linejoin:miter;stroke-miterlimit:4;stroke-dasharray:none;stroke-dashoffset:0;stroke-opacity:1;stop-color:#000000"
       id="circle1284"
       cx="105.83332"
       cy="-103.18753"
       r="0.66145831"
       transform="rotate(90)" />
    <path
       style="fill:none;stroke:#000000;stroke-width:0.529167;stroke-linecap:butt;stroke-linejoin:miter;stroke-miterlimit:4;stroke-dasharray:none;stroke-opacity:1"
       d="M 115.09375,148.16666 H 111.125"
       id="path1288" />
    <circle
       style="font-variation-settings:normal;vector-effect:none;fill:#d76cff;fill-opacity:1;fill-rule:evenodd;stroke:#000000;stroke-width:0.264583;stroke-linecap:butt;stroke-linejoin:miter;stroke-miterlimit:4;stroke-dasharray:none;stroke-dashoffset:0;stroke-opacity:1;stop-color:#000000"
       id="circle1290"
       cx="148.16666"
       cy="-112.71252"
       r="0.66145831"
       transform="rotate(90)" />
    <path
       style="fill:none;stroke:#000000;stroke-width:0.529167;stroke-linecap:butt;stroke-linejoin:miter;stroke-miterlimit:4;stroke-dasharray:none;stroke-opacity:1"
       d="m 125.67709,126.99999 h -3.96875"
       id="path1294" />
    <circle
       style="font-variation-settings:normal;vector-effect:none;fill:#ff4141;fill-opacity:1;fill-rule:evenodd;stroke:#000000;stroke-width:0.264583;stroke-linecap:butt;stroke-linejoin:miter;stroke-miterlimit:4;stroke-dasharray:none;stroke-dashoffset:0;stroke-opacity:1;stop-color:#000000"
       id="circle1296"
       cx="126.99999"
       cy="-123.29586"
       r="0.66145831"
       transform="rotate(90)" />
    <path
       style="fill:none;stroke:#000000;stroke-width:0.529167;stroke-linecap:butt;stroke-linejoin:miter;stroke-miterlimit:4;stroke-dasharray:none;stroke-opacity:1"
       d="m 136.26042,148.16666 h -3.96875"
       id="path1300" />
    <circle
       style="font-variation-settings:normal;vector-effect:none;fill:#0084c8;fill-opacity:1;fill-rule:evenodd;stroke:#000000;stroke-width:0.264583;stroke-linecap:butt;stroke-linejoin:miter;stroke-miterlimit:4;stroke-dasharray:none;stroke-dashoffset:0;stroke-opacity:1;stop-color:#000000"
       id="circle1302"
       cx="148.16666"
       cy="-133.87918"
       r="0.66145831"
       transform="rotate(90)" />
  </g>
</svg>
