<?xml version="1.0" encoding="UTF-8" standalone="no"?>
<!-- Created with Inkscape (http://www.inkscape.org/) -->

<svg
   width="31.321217mm"
   height="23.230618mm"
   viewBox="0 0 31.321217 23.230618"
   version="1.1"
   id="svg5"
   sodipodi:docname="multiGraph.svg"
   inkscape:version="1.1 (c4e8f9e, 2021-05-24)"
   xmlns:inkscape="http://www.inkscape.org/namespaces/inkscape"
   xmlns:sodipodi="http://sodipodi.sourceforge.net/DTD/sodipodi-0.dtd"
   xmlns="http://www.w3.org/2000/svg"
   xmlns:svg="http://www.w3.org/2000/svg">
  <sodipodi:namedview
     id="namedview7"
     pagecolor="#ffffff"
     bordercolor="#666666"
     borderopacity="1.0"
     inkscape:pageshadow="2"
     inkscape:pageopacity="0.0"
     inkscape:pagecheckerboard="0"
     inkscape:document-units="mm"
     showgrid="false"
     inkscape:zoom="2.2271324"
     inkscape:cx="68.473701"
     inkscape:cy="28.062992"
     inkscape:window-width="1312"
     inkscape:window-height="847"
     inkscape:window-x="1970"
     inkscape:window-y="101"
     inkscape:window-maximized="0"
     inkscape:current-layer="layer1"
     inkscape:snap-global="false">
    <inkscape:grid
       type="xygrid"
       id="grid824"
       originx="-74.352611"
       originy="-86.499456" />
  </sodipodi:namedview>
  <defs
     id="defs2">
    <marker
       style="overflow:visible"
       id="DotM"
       refX="0"
       refY="0"
       orient="auto"
       inkscape:stockid="DotM"
       inkscape:isstock="true">
      <path
         transform="matrix(0.4,0,0,0.4,2.96,0.4)"
         style="fill:context-stroke;fill-rule:evenodd;stroke:context-stroke;stroke-width:1pt"
         d="m -2.5,-1 c 0,2.76 -2.24,5 -5,5 -2.76,0 -5,-2.24 -5,-5 0,-2.76 2.24,-5 5,-5 2.76,0 5,2.24 5,5 z"
         id="path1005" />
    </marker>
    <marker
       style="overflow:visible"
       id="DotL"
       refX="0"
       refY="0"
       orient="auto"
       inkscape:stockid="DotL"
       inkscape:isstock="true">
      <path
         transform="matrix(0.8,0,0,0.8,5.92,0.8)"
         style="fill:context-stroke;fill-rule:evenodd;stroke:context-stroke;stroke-width:1pt"
         d="m -2.5,-1 c 0,2.76 -2.24,5 -5,5 -2.76,0 -5,-2.24 -5,-5 0,-2.76 2.24,-5 5,-5 2.76,0 5,2.24 5,5 z"
         id="path1002" />
    </marker>
    <defs
       id="id-d92651ad-9d31-40bf-929b-b1940ed76397">
      <g
         id="id-ca085b71-b96d-4c0e-b1f6-21eb8aebbc25">
        <symbol
           overflow="visible"
           id="id-a12e5c74-33a3-483f-aa16-4d5f766ce6ca">
          <path
             style="stroke:none;stroke-width:0"
             d=""
             id="id-d110c95d-311d-4ba9-96da-1a5519ad7112" />
        </symbol>
        <symbol
           overflow="visible"
           id="id-54e75922-4f3e-4894-bffb-92553bfa5e06">
          <path
             style="stroke:none;stroke-width:0"
             d="m 4.671875,-3.703125 c 0,-0.546875 -0.265625,-0.703125 -0.4375,-0.703125 -0.25,0 -0.5,0.265625 -0.5,0.484375 0,0.125 0.046875,0.1875 0.15625,0.296875 0.21875,0.203125 0.34375,0.453125 0.34375,0.8125 0,0.421875 -0.609375,2.703125 -1.765625,2.703125 -0.515625,0 -0.75,-0.34375 -0.75,-0.875 0,-0.546875 0.28125,-1.28125 0.578125,-2.109375 0.078125,-0.171875 0.125,-0.3125 0.125,-0.5 0,-0.4375 -0.3125,-0.8125 -0.8125,-0.8125 -0.9375,0 -1.3125,1.453125 -1.3125,1.53125 0,0.109375 0.09375,0.109375 0.109375,0.109375 0.109375,0 0.109375,-0.03125 0.15625,-0.1875 0.296875,-1 0.71875,-1.234375 1.015625,-1.234375 0.078125,0 0.25,0 0.25,0.3125 0,0.25 -0.109375,0.53125 -0.171875,0.703125 -0.4375,1.15625 -0.5625,1.609375 -0.5625,2.046875 0,1.078125 0.875,1.234375 1.328125,1.234375 1.671875,0 2.25,-3.296875 2.25,-3.8125 z m 0,0"
             id="id-051ed119-3242-4c19-a0cd-74e25ecd4ab0" />
        </symbol>
        <symbol
           overflow="visible"
           id="id-c9a09a22-396b-4e16-aa60-f289295e6487">
          <path
             style="stroke:none;stroke-width:0"
             d="m 0.875,-0.59375 c -0.03125,0.15625 -0.09375,0.390625 -0.09375,0.4375 0,0.171875 0.140625,0.265625 0.296875,0.265625 0.125,0 0.296875,-0.078125 0.375,-0.28125 0,-0.015625 0.125,-0.484375 0.1875,-0.734375 l 0.21875,-0.890625 C 1.90625,-2.03125 1.96875,-2.25 2.03125,-2.46875 c 0.03125,-0.171875 0.109375,-0.46875 0.125,-0.5 0.140625,-0.3125 0.671875,-1.21875 1.625,-1.21875 0.453125,0 0.53125,0.375 0.53125,0.703125 0,0.609375 -0.484375,1.890625 -0.640625,2.3125 C 3.578125,-0.9375 3.5625,-0.8125 3.5625,-0.703125 c 0,0.46875 0.359375,0.8125 0.828125,0.8125 0.9375,0 1.296875,-1.453125 1.296875,-1.53125 0,-0.109375 -0.078125,-0.109375 -0.109375,-0.109375 -0.109375,0 -0.109375,0.03125 -0.15625,0.1875 -0.203125,0.671875 -0.53125,1.234375 -1.015625,1.234375 -0.171875,0 -0.234375,-0.09375 -0.234375,-0.328125 0,-0.25 0.078125,-0.484375 0.171875,-0.703125 0.1875,-0.53125 0.609375,-1.625 0.609375,-2.203125 0,-0.65625 -0.421875,-1.0625 -1.140625,-1.0625 -0.90625,0 -1.390625,0.640625 -1.5625,0.875 -0.046875,-0.5625 -0.453125,-0.875 -0.921875,-0.875 -0.453125,0 -0.640625,0.390625 -0.734375,0.5625 C 0.421875,-3.5 0.296875,-2.90625 0.296875,-2.875 c 0,0.109375 0.09375,0.109375 0.109375,0.109375 0.109375,0 0.109375,-0.015625 0.171875,-0.234375 0.171875,-0.703125 0.375,-1.1875 0.734375,-1.1875 0.1875,0 0.296875,0.125 0.296875,0.453125 0,0.21875 -0.03125,0.328125 -0.15625,0.84375 z m 0,0"
             id="id-971ba0fa-8739-4a05-b457-a7a434745f2f" />
        </symbol>
        <symbol
           overflow="visible"
           id="id-0994a061-adb1-4743-8023-843025098876">
          <path
             style="stroke:none;stroke-width:0"
             d=""
             id="id-086a306d-c3be-4d08-8436-8d75a79101be" />
        </symbol>
        <symbol
           overflow="visible"
           id="id-e608bd52-1134-4f89-8030-3469b4bf7400">
          <path
             style="stroke:none;stroke-width:0"
             d="m 2.328125,-4.4375 c 0,-0.1875 0,-0.1875 -0.203125,-0.1875 -0.453125,0.4375 -1.078125,0.4375 -1.359375,0.4375 v 0.25 c 0.15625,0 0.625,0 1,-0.1875 v 3.546875 c 0,0.234375 0,0.328125 -0.6875,0.328125 H 0.8125 V 0 c 0.125,0 0.984375,-0.03125 1.234375,-0.03125 0.21875,0 1.09375,0.03125 1.25,0.03125 V -0.25 H 3.03125 c -0.703125,0 -0.703125,-0.09375 -0.703125,-0.328125 z m 0,0"
             id="id-c99879cd-a2d9-43b1-89bc-1eec53c9055d" />
        </symbol>
        <symbol
           overflow="visible"
           id="id-ce70c04f-69c5-4e6b-8cc4-979896bcaeaa">
          <path
             style="stroke:none;stroke-width:0"
             d="M 3.515625,-1.265625 H 3.28125 c -0.015625,0.15625 -0.09375,0.5625 -0.1875,0.625 C 3.046875,-0.59375 2.515625,-0.59375 2.40625,-0.59375 H 1.125 c 0.734375,-0.640625 0.984375,-0.84375 1.390625,-1.171875 0.515625,-0.40625 1,-0.84375 1,-1.5 0,-0.84375 -0.734375,-1.359375 -1.625,-1.359375 -0.859375,0 -1.453125,0.609375 -1.453125,1.25 0,0.34375 0.296875,0.390625 0.375,0.390625 0.15625,0 0.359375,-0.125 0.359375,-0.375 0,-0.125 -0.046875,-0.375 -0.40625,-0.375 C 0.984375,-4.21875 1.453125,-4.375 1.78125,-4.375 c 0.703125,0 1.0625,0.546875 1.0625,1.109375 0,0.609375 -0.4375,1.078125 -0.65625,1.328125 L 0.515625,-0.265625 C 0.4375,-0.203125 0.4375,-0.1875 0.4375,0 h 2.875 z m 0,0"
             id="id-f272602b-04d3-45b9-b0f8-97d12bc37011" />
        </symbol>
        <symbol
           overflow="visible"
           id="id-edae3367-8e0b-442b-8767-ffbea7ea4022">
          <path
             style="stroke:none;stroke-width:0"
             d="m 1.90625,-2.328125 c 0.546875,0 0.9375,0.375 0.9375,1.125 0,0.859375 -0.515625,1.125 -0.90625,1.125 -0.28125,0 -0.90625,-0.078125 -1.1875,-0.5 0.328125,0 0.40625,-0.234375 0.40625,-0.390625 0,-0.21875 -0.171875,-0.375 -0.390625,-0.375 -0.1875,0 -0.390625,0.125 -0.390625,0.40625 0,0.65625 0.71875,1.078125 1.5625,1.078125 0.96875,0 1.640625,-0.65625 1.640625,-1.34375 0,-0.546875 -0.4375,-1.09375 -1.203125,-1.25 0.71875,-0.265625 0.984375,-0.78125 0.984375,-1.21875 0,-0.546875 -0.625,-0.953125 -1.40625,-0.953125 -0.765625,0 -1.359375,0.375 -1.359375,0.9375 0,0.234375 0.15625,0.359375 0.359375,0.359375 0.21875,0 0.359375,-0.15625 0.359375,-0.34375 0,-0.203125 -0.140625,-0.359375 -0.359375,-0.375 0.25,-0.296875 0.71875,-0.375 0.984375,-0.375 0.3125,0 0.75,0.15625 0.75,0.75 0,0.296875 -0.09375,0.625 -0.28125,0.828125 -0.21875,0.265625 -0.421875,0.28125 -0.765625,0.3125 -0.171875,0.015625 -0.1875,0.015625 -0.21875,0.015625 -0.015625,0 -0.078125,0.015625 -0.078125,0.09375 0,0.09375 0.0625,0.09375 0.1875,0.09375 z m 0,0"
             id="id-a6ee7c08-4999-4fab-bf59-d64c725fa706" />
        </symbol>
        <symbol
           overflow="visible"
           id="id-3db1ceb0-2142-4f6a-b4a8-a983b12500a7">
          <path
             style="stroke:none;stroke-width:0"
             d="m 3.6875,-1.140625 v -0.25 H 2.90625 V -4.5 c 0,-0.140625 0,-0.203125 -0.140625,-0.203125 -0.09375,0 -0.125,0 -0.1875,0.109375 l -2.3125,3.203125 v 0.25 h 2.0625 v 0.5625 c 0,0.25 0,0.328125 -0.578125,0.328125 H 1.5625 V 0 C 1.921875,-0.015625 2.359375,-0.03125 2.609375,-0.03125 2.875,-0.03125 3.3125,-0.015625 3.671875,0 v -0.25 h -0.1875 C 2.90625,-0.25 2.90625,-0.328125 2.90625,-0.578125 v -0.5625 z M 2.375,-3.9375 v 2.546875 H 0.53125 Z m 0,0"
             id="id-33321693-7ecc-4a80-9b71-35b30541c3dd" />
        </symbol>
        <symbol
           overflow="visible"
           id="id-de50b24a-3b89-41b7-8e7d-bb12f94559a6">
          <path
             style="stroke:none;stroke-width:0"
             d="m 1.078125,-3.890625 c 0.359375,0.09375 0.5625,0.09375 0.671875,0.09375 0.921875,0 1.46875,-0.625 1.46875,-0.734375 0,-0.078125 -0.046875,-0.09375 -0.078125,-0.09375 -0.015625,0 -0.03125,0 -0.0625,0.015625 -0.171875,0.0625 -0.53125,0.203125 -1.046875,0.203125 -0.203125,0 -0.5625,-0.015625 -1.015625,-0.1875 C 0.9375,-4.625 0.921875,-4.625 0.921875,-4.625 c -0.09375,0 -0.09375,0.078125 -0.09375,0.1875 v 2.046875 c 0,0.125 0,0.203125 0.109375,0.203125 0.0625,0 0.078125,0 0.140625,-0.09375 0.296875,-0.375 0.734375,-0.4375 0.96875,-0.4375 0.421875,0 0.609375,0.328125 0.640625,0.390625 0.125,0.234375 0.171875,0.5 0.171875,0.90625 0,0.203125 0,0.609375 -0.21875,0.921875 -0.171875,0.25 -0.46875,0.421875 -0.8125,0.421875 -0.453125,0 -0.921875,-0.25 -1.09375,-0.71875 0.265625,0.015625 0.40625,-0.15625 0.40625,-0.34375 0,-0.296875 -0.265625,-0.34375 -0.359375,-0.34375 0,0 -0.34375,0 -0.34375,0.375 0,0.625 0.578125,1.25 1.40625,1.25 0.890625,0 1.671875,-0.65625 1.671875,-1.546875 0,-0.78125 -0.59375,-1.5 -1.453125,-1.5 -0.3125,0 -0.671875,0.0625 -0.984375,0.328125 z m 0,0"
             id="id-e3dc6215-da90-49bf-b30c-e1078fcae5b8" />
        </symbol>
      </g>
    </defs>
    <defs
       id="id-cc6d8b16-67ff-4123-b1bc-271452628526">
      <g
         id="id-b6c0ca65-bc95-4e76-ad63-32b69f0d5b52">
        <symbol
           overflow="visible"
           id="id-445ec449-aad5-4e15-a1cc-46d69b189e3b">
          <path
             style="stroke:none;stroke-width:0"
             d=""
             id="id-19c1e8ff-c850-4ed2-a512-3fa06e5b127a" />
        </symbol>
        <symbol
           overflow="visible"
           id="id-cb8aa09b-1c8f-4e4e-a566-e1f0df0d460a">
          <path
             style="stroke:none;stroke-width:0"
             d="m 4.671875,-3.703125 c 0,-0.546875 -0.265625,-0.703125 -0.4375,-0.703125 -0.25,0 -0.5,0.265625 -0.5,0.484375 0,0.125 0.046875,0.1875 0.15625,0.296875 0.21875,0.203125 0.34375,0.453125 0.34375,0.8125 0,0.421875 -0.609375,2.703125 -1.765625,2.703125 -0.515625,0 -0.75,-0.34375 -0.75,-0.875 0,-0.546875 0.28125,-1.28125 0.578125,-2.109375 0.078125,-0.171875 0.125,-0.3125 0.125,-0.5 0,-0.4375 -0.3125,-0.8125 -0.8125,-0.8125 -0.9375,0 -1.3125,1.453125 -1.3125,1.53125 0,0.109375 0.09375,0.109375 0.109375,0.109375 0.109375,0 0.109375,-0.03125 0.15625,-0.1875 0.296875,-1 0.71875,-1.234375 1.015625,-1.234375 0.078125,0 0.25,0 0.25,0.3125 0,0.25 -0.109375,0.53125 -0.171875,0.703125 -0.4375,1.15625 -0.5625,1.609375 -0.5625,2.046875 0,1.078125 0.875,1.234375 1.328125,1.234375 1.671875,0 2.25,-3.296875 2.25,-3.8125 z m 0,0"
             id="id-53752380-729a-40e1-99ec-bc62d7c7bb07" />
        </symbol>
        <symbol
           overflow="visible"
           id="id-8f5820b2-0adf-4c23-ad99-56c9ce6a2951">
          <path
             style="stroke:none;stroke-width:0"
             d=""
             id="id-61a5dd35-a615-4e98-a51d-c174e1827712" />
        </symbol>
        <symbol
           overflow="visible"
           id="id-b32620b2-fdf8-47e6-b4c5-893c4a519a9f">
          <path
             style="stroke:none;stroke-width:0"
             d="m 1.046875,-2.28125 c 0,-0.5625 0.046875,-1.078125 0.3125,-1.515625 0.234375,-0.375 0.609375,-0.625 1.0625,-0.625 0.203125,0 0.484375,0.046875 0.625,0.234375 C 2.875,-4.171875 2.71875,-4.046875 2.71875,-3.84375 c 0,0.171875 0.125,0.328125 0.328125,0.328125 0.21875,0 0.34375,-0.140625 0.34375,-0.34375 0,-0.40625 -0.296875,-0.765625 -0.984375,-0.765625 -1,0 -2.03125,0.921875 -2.03125,2.421875 0,1.796875 0.84375,2.34375 1.625,2.34375 0.84375,0 1.578125,-0.65625 1.578125,-1.5625 0,-0.890625 -0.703125,-1.546875 -1.515625,-1.546875 -0.5625,0 -0.859375,0.375 -1.015625,0.6875 z M 2,-0.078125 c -0.359375,0 -0.625,-0.203125 -0.78125,-0.515625 C 1.125,-0.796875 1.0625,-1.15625 1.0625,-1.5625 c 0,-0.6875 0.40625,-1.203125 0.96875,-1.203125 0.3125,0 0.53125,0.125 0.703125,0.375 0.171875,0.265625 0.171875,0.5625 0.171875,0.96875 0,0.390625 0,0.6875 -0.1875,0.96875 -0.15625,0.234375 -0.390625,0.375 -0.71875,0.375 z m 0,0"
             id="id-b29d2d87-45bd-4e2c-8ea7-5cd110e174a2" />
        </symbol>
        <symbol
           overflow="visible"
           id="id-d7a8a662-4899-447d-a7ce-518bfa515a16">
          <path
             style="stroke:none;stroke-width:0"
             d="m 3.734375,-4.203125 c 0.0625,-0.09375 0.0625,-0.109375 0.0625,-0.28125 H 1.96875 C 1.6875,-4.484375 1.609375,-4.5 1.359375,-4.515625 1,-4.546875 0.984375,-4.59375 0.96875,-4.703125 H 0.734375 l -0.25,1.484375 H 0.71875 c 0.015625,-0.109375 0.09375,-0.5625 0.203125,-0.640625 0.046875,-0.03125 0.625,-0.03125 0.71875,-0.03125 H 3.15625 c -0.21875,0.28125 -0.578125,0.71875 -0.71875,0.921875 -0.90625,1.1875 -1,2.296875 -1,2.703125 0,0.078125 0,0.40625 0.328125,0.40625 0.34375,0 0.34375,-0.3125 0.34375,-0.40625 v -0.28125 c 0,-1.34375 0.28125,-1.96875 0.578125,-2.34375 z m 0,0"
             id="id-b8835deb-8a50-473c-9940-e48e40831cfb" />
        </symbol>
      </g>
    </defs>
  </defs>
  <g
     inkscape:label="Layer 1"
     inkscape:groupmode="layer"
     id="layer1"
     transform="translate(-74.352611,-86.499453)">
    <g
       id="g3969">
      <g
         id="g2609">
        <path
           style="color:#000000;fill:#000000;fill-rule:evenodd;-inkscape-stroke:none"
           d="m 78.052734,105.60156 c -0.857678,0 -1.55664,0.69701 -1.55664,1.55469 0,0.85768 0.698962,1.55469 1.55664,1.55469 0.857679,0 1.554688,-0.69701 1.554688,-1.55469 0,-0.85768 -0.697009,-1.55469 -1.554688,-1.55469 z m 0,0.46485 c 0.608112,0 1.089844,0.48173 1.089844,1.08984 0,0.60811 -0.481732,1.08984 -1.089844,1.08984 -0.608111,0 -1.091797,-0.48173 -1.091797,-1.08984 0,-0.60811 0.483686,-1.08984 1.091797,-1.08984 z"
           id="rect1678" />
        <path
           style="color:#000000;fill:#000000;fill-rule:evenodd;-inkscape-stroke:none"
           d="m 101.86523,105.60156 c -0.85767,0 -1.55664,0.69701 -1.55664,1.55469 0,0.85768 0.69897,1.55469 1.55664,1.55469 0.85768,0 1.55469,-0.69701 1.55469,-1.55469 0,-0.85768 -0.69701,-1.55469 -1.55469,-1.55469 z m 0,0.46485 c 0.60812,0 1.08985,0.48173 1.08985,1.08984 0,0.60811 -0.48173,1.08984 -1.08985,1.08984 -0.60811,0 -1.09179,-0.48173 -1.09179,-1.08984 0,-0.60811 0.48368,-1.08984 1.09179,-1.08984 z"
           id="rect1680" />
        <path
           style="color:#000000;fill:#000000;-inkscape-stroke:none"
           d="m 89.830078,89.765625 c 0,0 -8.011742,5.339945 -10.679687,16.011715 l 0.449218,0.11329 C 82.223327,95.39576 90.087891,90.152344 90.087891,90.152344 Z"
           id="path1250" />
        <path
           style="color:#000000;fill:#000000;-inkscape-stroke:none"
           d="m 90.087891,89.765625 -0.257813,0.386719 c 0,0 7.862607,5.243416 10.486332,15.738286 l 0.45117,-0.11329 C 98.09963,95.10557 90.087891,89.765625 90.087891,89.765625 Z"
           id="path1384" />
        <g
           id="path859">
          <path
             style="color:#000000;fill:#000000;-inkscape-stroke:none"
             d="M 89.732422,89.902344 C 87.108706,100.39722 79.246094,105.64063 79.246094,105.64063 l -0.638672,0.42578 h 22.701168 l -0.63867,-0.42578 C 92.831633,100.41511 90.183594,89.902344 90.183594,89.902344 Z m 0.21875,0.824218 c 0.494769,1.750002 3.128326,9.976448 9.93164,14.874998 H 80.052734 c 1.349267,-0.98655 7.36314,-5.808773 9.898438,-14.874998 z"
             id="path2655" />
          <g
             id="g2613">
            <g
               id="path2645">
              <path
                 style="color:#000000;fill:#000000;fill-rule:evenodd;stroke-width:0.186pt;-inkscape-stroke:none"
                 d="m 89.737285,89.074144 c 0.498032,-0.124508 1.003283,0.178642 1.127791,0.676674 0.124508,0.498033 -0.178642,1.003283 -0.676675,1.127791 -0.498032,0.124508 -1.003282,-0.178642 -1.12779,-0.676674 -0.124508,-0.498033 0.178642,-1.003283 0.676674,-1.127791 z"
                 id="path2649" />
              <path
                 style="color:#000000;fill:#000000;fill-rule:evenodd;-inkscape-stroke:none"
                 d="m 89.707031,88.953125 c -0.56312,0.14078 -0.908358,0.716176 -0.767578,1.279297 0.14078,0.56312 0.716177,0.906405 1.279297,0.765625 0.563121,-0.14078 0.908358,-0.714223 0.767578,-1.277344 -0.14078,-0.56312 -0.716177,-0.908358 -1.279297,-0.767578 z m 0.06055,0.242187 c 0.432943,-0.108235 0.868327,0.152995 0.976563,0.585938 0.108235,0.432944 -0.152994,0.868327 -0.585938,0.976562 -0.432943,0.108236 -0.868327,-0.152994 -0.976562,-0.585937 -0.108236,-0.432944 0.152994,-0.868327 0.585937,-0.976563 z"
                 id="path2651" />
            </g>
            <g
               id="path2635">
              <path
                 style="color:#000000;fill:#000000;fill-rule:evenodd;-inkscape-stroke:none"
                 d="m 100.8418,104.8418 c -0.55555,-0.16822 -1.14625,0.14758 -1.314456,0.70312 -0.168204,0.55555 0.147583,1.14624 0.703126,1.31446 0.55554,0.1682 1.14624,-0.14759 1.31445,-0.70313 0.1682,-0.55554 -0.14758,-1.14625 -0.70312,-1.31445 z m -0.0723,0.23828 c 0.42712,0.12932 0.66838,0.57679 0.53906,1.0039 -0.12932,0.42712 -0.57874,0.66838 -1.00586,0.53907 -0.427117,-0.12933 -0.666427,-0.57873 -0.537105,-1.00586 0.129321,-0.42712 0.576795,-0.66644 1.003905,-0.53711 z"
                 id="path2641" />
              <path
                 style="color:#000000;fill:#ed333b;fill-rule:evenodd;stroke-width:0.186pt;-inkscape-stroke:none"
                 d="m 100.80578,104.96104 c 0.49133,0.14876 0.76936,0.66826 0.6206,1.15959 -0.14877,0.49133 -0.66827,0.76936 -1.1596,0.6206 -0.491332,-0.14877 -0.769359,-0.66826 -0.620596,-1.1596 0.148764,-0.49133 0.668266,-0.76936 1.159596,-0.62059 z"
                 id="path2639" />
            </g>
            <g
               id="path2625">
              <path
                 style="color:#000000;fill:#000000;fill-rule:evenodd;-inkscape-stroke:none"
                 d="m 79.064453,104.80664 c -0.555543,0.16821 -0.871329,0.7589 -0.703125,1.31445 0.168206,0.55555 0.758907,0.87134 1.314453,0.70313 0.555547,-0.1682 0.87133,-0.75891 0.703125,-1.31445 -0.168206,-0.55555 -0.758907,-0.87133 -1.314453,-0.70313 z m 0.07227,0.23828 c 0.427119,-0.12932 0.874584,0.10999 1.003906,0.53711 0.129321,0.42712 -0.109991,0.87654 -0.537109,1.00586 -0.427119,0.12933 -0.876538,-0.11195 -1.00586,-0.53906 -0.129321,-0.42713 0.111941,-0.87458 0.539063,-1.00391 z"
                 id="path2631" />
              <path
                 style="color:#000000;fill:#ed333b;fill-rule:evenodd;stroke-width:0.186pt;-inkscape-stroke:none"
                 d="m 79.639108,106.70562 c -0.491333,0.14877 -1.010831,-0.12926 -1.159595,-0.62059 -0.148763,-0.49134 0.129264,-1.01083 0.620597,-1.1596 0.491333,-0.14876 1.010831,0.12927 1.159595,0.6206 0.148763,0.49133 -0.129264,1.01083 -0.620597,1.15959 z"
                 id="path2629" />
            </g>
            <g
               id="path2615">
              <path
                 style="color:#000000;fill:#000000;fill-rule:evenodd;-inkscape-stroke:none"
                 d="m 90.21875,88.917969 c -0.56312,-0.14078 -1.138517,0.204458 -1.279297,0.767578 -0.14078,0.563121 0.204458,1.136564 0.767578,1.277344 0.563121,0.14078 1.138517,-0.204458 1.279297,-0.767579 0.14078,-0.56312 -0.204458,-1.136563 -0.767578,-1.277343 z m -0.06055,0.240234 c 0.432943,0.108236 0.694173,0.545573 0.585938,0.978516 -0.108236,0.432944 -0.543619,0.694173 -0.976563,0.585937 -0.432943,-0.108235 -0.694173,-0.545571 -0.585937,-0.978515 0.108235,-0.432943 0.543619,-0.694174 0.976562,-0.585938 z"
                 id="path2621" />
              <path
                 style="color:#000000;fill:#ed333b;fill-rule:evenodd;stroke-width:0.186pt;-inkscape-stroke:none"
                 d="m 89.737285,90.84252 c -0.498032,-0.124508 -0.801182,-0.629758 -0.676674,-1.127791 0.124508,-0.498032 0.629758,-0.801182 1.12779,-0.676674 0.498032,0.124508 0.801183,0.629758 0.676675,1.12779 -0.124508,0.498033 -0.629758,0.801183 -1.127791,0.676675 z"
                 id="path2619" />
            </g>
          </g>
        </g>
      </g>
      <g
         id="g2108"
         transform="translate(31.599224,-21.278462)">
        <g
           style="fill:#000000;fill-opacity:1"
           id="id-61cedcda-4ae5-42ae-98a8-08ced0542c98"
           transform="matrix(0.30614212,0,0,0.30614212,20.225588,76.291149)">
          <g
             transform="translate(148.712,134.765)"
             id="g1828">
            <path
               style="stroke:none;stroke-width:0"
               d="m 4.671875,-3.703125 c 0,-0.546875 -0.265625,-0.703125 -0.4375,-0.703125 -0.25,0 -0.5,0.265625 -0.5,0.484375 0,0.125 0.046875,0.1875 0.15625,0.296875 0.21875,0.203125 0.34375,0.453125 0.34375,0.8125 0,0.421875 -0.609375,2.703125 -1.765625,2.703125 -0.515625,0 -0.75,-0.34375 -0.75,-0.875 0,-0.546875 0.28125,-1.28125 0.578125,-2.109375 0.078125,-0.171875 0.125,-0.3125 0.125,-0.5 0,-0.4375 -0.3125,-0.8125 -0.8125,-0.8125 -0.9375,0 -1.3125,1.453125 -1.3125,1.53125 0,0.109375 0.09375,0.109375 0.109375,0.109375 0.109375,0 0.109375,-0.03125 0.15625,-0.1875 0.296875,-1 0.71875,-1.234375 1.015625,-1.234375 0.078125,0 0.25,0 0.25,0.3125 0,0.25 -0.109375,0.53125 -0.171875,0.703125 -0.4375,1.15625 -0.5625,1.609375 -0.5625,2.046875 0,1.078125 0.875,1.234375 1.328125,1.234375 1.671875,0 2.25,-3.296875 2.25,-3.8125 z m 0,0"
               id="id-38a1902c-86dc-40c8-a96b-2561821c6f79" />
          </g>
        </g>
        <g
           style="fill:#000000;fill-opacity:1"
           id="id-c64efc52-fa9a-4b3f-9b69-1a56a4c1929c"
           transform="matrix(0.30614212,0,0,0.30614212,20.225588,76.291149)">
          <g
             transform="translate(153.541,136.259)"
             id="g1832">
            <path
               style="stroke:none;stroke-width:0"
               d="m 2.328125,-4.4375 c 0,-0.1875 0,-0.1875 -0.203125,-0.1875 -0.453125,0.4375 -1.078125,0.4375 -1.359375,0.4375 v 0.25 c 0.15625,0 0.625,0 1,-0.1875 v 3.546875 c 0,0.234375 0,0.328125 -0.6875,0.328125 H 0.8125 V 0 c 0.125,0 0.984375,-0.03125 1.234375,-0.03125 0.21875,0 1.09375,0.03125 1.25,0.03125 V -0.25 H 3.03125 c -0.703125,0 -0.703125,-0.09375 -0.703125,-0.328125 z m 0,0"
               id="id-cc1caaf9-3757-4256-a557-9e04dff5ff56" />
          </g>
        </g>
      </g>
      <g
         id="g2116"
         transform="translate(22.3344,-16.9884)">
        <g
           style="fill:#000000;fill-opacity:1"
           id="id-9f52dcf9-9077-4b4d-a21d-f3e0144fcda3"
           transform="matrix(0.30614212,0,0,0.30614212,20.225588,76.291149)">
          <g
             transform="translate(158.011,134.765)"
             id="g1836">
            <path
               style="stroke:none;stroke-width:0"
               d="m 4.671875,-3.703125 c 0,-0.546875 -0.265625,-0.703125 -0.4375,-0.703125 -0.25,0 -0.5,0.265625 -0.5,0.484375 0,0.125 0.046875,0.1875 0.15625,0.296875 0.21875,0.203125 0.34375,0.453125 0.34375,0.8125 0,0.421875 -0.609375,2.703125 -1.765625,2.703125 -0.515625,0 -0.75,-0.34375 -0.75,-0.875 0,-0.546875 0.28125,-1.28125 0.578125,-2.109375 0.078125,-0.171875 0.125,-0.3125 0.125,-0.5 0,-0.4375 -0.3125,-0.8125 -0.8125,-0.8125 -0.9375,0 -1.3125,1.453125 -1.3125,1.53125 0,0.109375 0.09375,0.109375 0.109375,0.109375 0.109375,0 0.109375,-0.03125 0.15625,-0.1875 0.296875,-1 0.71875,-1.234375 1.015625,-1.234375 0.078125,0 0.25,0 0.25,0.3125 0,0.25 -0.109375,0.53125 -0.171875,0.703125 -0.4375,1.15625 -0.5625,1.609375 -0.5625,2.046875 0,1.078125 0.875,1.234375 1.328125,1.234375 1.671875,0 2.25,-3.296875 2.25,-3.8125 z m 0,0"
               id="id-26372f4c-1712-4a9a-bc0e-85bc09d9d3b7" />
          </g>
        </g>
        <g
           style="fill:#000000;fill-opacity:1"
           id="id-b29fd166-0c3b-4384-a048-551ca197b916"
           transform="matrix(0.30614212,0,0,0.30614212,20.225588,76.291149)">
          <g
             transform="translate(162.84,136.259)"
             id="g1840">
            <path
               style="stroke:none;stroke-width:0"
               d="M 3.515625,-1.265625 H 3.28125 c -0.015625,0.15625 -0.09375,0.5625 -0.1875,0.625 C 3.046875,-0.59375 2.515625,-0.59375 2.40625,-0.59375 H 1.125 c 0.734375,-0.640625 0.984375,-0.84375 1.390625,-1.171875 0.515625,-0.40625 1,-0.84375 1,-1.5 0,-0.84375 -0.734375,-1.359375 -1.625,-1.359375 -0.859375,0 -1.453125,0.609375 -1.453125,1.25 0,0.34375 0.296875,0.390625 0.375,0.390625 0.15625,0 0.359375,-0.125 0.359375,-0.375 0,-0.125 -0.046875,-0.375 -0.40625,-0.375 C 0.984375,-4.21875 1.453125,-4.375 1.78125,-4.375 c 0.703125,0 1.0625,0.546875 1.0625,1.109375 0,0.609375 -0.4375,1.078125 -0.65625,1.328125 L 0.515625,-0.265625 C 0.4375,-0.203125 0.4375,-0.1875 0.4375,0 h 2.875 z m 0,0"
               id="id-d2700004-4a8b-4181-8bf6-956320f70d13" />
          </g>
        </g>
      </g>
      <g
         id="g2124"
         transform="translate(14.6124,-16.5132)">
        <g
           style="fill:#000000;fill-opacity:1"
           id="id-6b4fda5f-a356-4296-8c1f-809fbb34b974"
           transform="matrix(0.30614212,0,0,0.30614212,20.225588,76.291149)">
          <g
             transform="translate(167.309,134.765)"
             id="g1844">
            <path
               style="stroke:none;stroke-width:0"
               d="m 4.671875,-3.703125 c 0,-0.546875 -0.265625,-0.703125 -0.4375,-0.703125 -0.25,0 -0.5,0.265625 -0.5,0.484375 0,0.125 0.046875,0.1875 0.15625,0.296875 0.21875,0.203125 0.34375,0.453125 0.34375,0.8125 0,0.421875 -0.609375,2.703125 -1.765625,2.703125 -0.515625,0 -0.75,-0.34375 -0.75,-0.875 0,-0.546875 0.28125,-1.28125 0.578125,-2.109375 0.078125,-0.171875 0.125,-0.3125 0.125,-0.5 0,-0.4375 -0.3125,-0.8125 -0.8125,-0.8125 -0.9375,0 -1.3125,1.453125 -1.3125,1.53125 0,0.109375 0.09375,0.109375 0.109375,0.109375 0.109375,0 0.109375,-0.03125 0.15625,-0.1875 0.296875,-1 0.71875,-1.234375 1.015625,-1.234375 0.078125,0 0.25,0 0.25,0.3125 0,0.25 -0.109375,0.53125 -0.171875,0.703125 -0.4375,1.15625 -0.5625,1.609375 -0.5625,2.046875 0,1.078125 0.875,1.234375 1.328125,1.234375 1.671875,0 2.25,-3.296875 2.25,-3.8125 z m 0,0"
               id="id-7be12e4a-cea6-4da3-b6e9-fd99c77a42c0" />
          </g>
        </g>
        <g
           style="fill:#000000;fill-opacity:1"
           id="id-fd856b2a-997d-40db-9498-2c0f0dc9fb6e"
           transform="matrix(0.30614212,0,0,0.30614212,20.225588,76.291149)">
          <g
             transform="translate(172.138,136.259)"
             id="g1848">
            <path
               style="stroke:none;stroke-width:0"
               d="m 1.90625,-2.328125 c 0.546875,0 0.9375,0.375 0.9375,1.125 0,0.859375 -0.515625,1.125 -0.90625,1.125 -0.28125,0 -0.90625,-0.078125 -1.1875,-0.5 0.328125,0 0.40625,-0.234375 0.40625,-0.390625 0,-0.21875 -0.171875,-0.375 -0.390625,-0.375 -0.1875,0 -0.390625,0.125 -0.390625,0.40625 0,0.65625 0.71875,1.078125 1.5625,1.078125 0.96875,0 1.640625,-0.65625 1.640625,-1.34375 0,-0.546875 -0.4375,-1.09375 -1.203125,-1.25 0.71875,-0.265625 0.984375,-0.78125 0.984375,-1.21875 0,-0.546875 -0.625,-0.953125 -1.40625,-0.953125 -0.765625,0 -1.359375,0.375 -1.359375,0.9375 0,0.234375 0.15625,0.359375 0.359375,0.359375 0.21875,0 0.359375,-0.15625 0.359375,-0.34375 0,-0.203125 -0.140625,-0.359375 -0.359375,-0.375 0.25,-0.296875 0.71875,-0.375 0.984375,-0.375 0.3125,0 0.75,0.15625 0.75,0.75 0,0.296875 -0.09375,0.625 -0.28125,0.828125 -0.21875,0.265625 -0.421875,0.28125 -0.765625,0.3125 -0.171875,0.015625 -0.1875,0.015625 -0.21875,0.015625 -0.015625,0 -0.078125,0.015625 -0.078125,0.09375 0,0.09375 0.0625,0.09375 0.1875,0.09375 z m 0,0"
               id="id-1121a406-dddf-43ed-9257-9241e52e0fb0" />
          </g>
        </g>
      </g>
      <g
         id="g2132"
         transform="translate(6.0588,-21.8592)">
        <g
           style="fill:#000000;fill-opacity:1"
           id="id-756da38a-a809-4569-b96b-c284290edfd5"
           transform="matrix(0.30614212,0,0,0.30614212,20.225588,76.291149)">
          <g
             transform="translate(176.608,134.765)"
             id="g1852">
            <path
               style="stroke:none;stroke-width:0"
               d="m 4.671875,-3.703125 c 0,-0.546875 -0.265625,-0.703125 -0.4375,-0.703125 -0.25,0 -0.5,0.265625 -0.5,0.484375 0,0.125 0.046875,0.1875 0.15625,0.296875 0.21875,0.203125 0.34375,0.453125 0.34375,0.8125 0,0.421875 -0.609375,2.703125 -1.765625,2.703125 -0.515625,0 -0.75,-0.34375 -0.75,-0.875 0,-0.546875 0.28125,-1.28125 0.578125,-2.109375 0.078125,-0.171875 0.125,-0.3125 0.125,-0.5 0,-0.4375 -0.3125,-0.8125 -0.8125,-0.8125 -0.9375,0 -1.3125,1.453125 -1.3125,1.53125 0,0.109375 0.09375,0.109375 0.109375,0.109375 0.109375,0 0.109375,-0.03125 0.15625,-0.1875 0.296875,-1 0.71875,-1.234375 1.015625,-1.234375 0.078125,0 0.25,0 0.25,0.3125 0,0.25 -0.109375,0.53125 -0.171875,0.703125 -0.4375,1.15625 -0.5625,1.609375 -0.5625,2.046875 0,1.078125 0.875,1.234375 1.328125,1.234375 1.671875,0 2.25,-3.296875 2.25,-3.8125 z m 0,0"
               id="id-816fca84-11c9-4d43-a6b1-a2383d35c5c1" />
          </g>
        </g>
        <g
           style="fill:#000000;fill-opacity:1"
           id="id-9a3ae577-e747-4da2-bb22-b91ae9a659fb"
           transform="matrix(0.30614212,0,0,0.30614212,20.225588,76.291149)">
          <g
             transform="translate(181.437,136.259)"
             id="g1856">
            <path
               style="stroke:none;stroke-width:0"
               d="m 3.6875,-1.140625 v -0.25 H 2.90625 V -4.5 c 0,-0.140625 0,-0.203125 -0.140625,-0.203125 -0.09375,0 -0.125,0 -0.1875,0.109375 l -2.3125,3.203125 v 0.25 h 2.0625 v 0.5625 c 0,0.25 0,0.328125 -0.578125,0.328125 H 1.5625 V 0 C 1.921875,-0.015625 2.359375,-0.03125 2.609375,-0.03125 2.875,-0.03125 3.3125,-0.015625 3.671875,0 v -0.25 h -0.1875 C 2.90625,-0.25 2.90625,-0.328125 2.90625,-0.578125 v -0.5625 z M 2.375,-3.9375 v 2.546875 H 0.53125 Z m 0,0"
               id="id-680e4c19-db05-41ca-b55d-1aa4788ba9cf" />
          </g>
        </g>
      </g>
      <g
         id="g2140"
         transform="translate(11.7612,-9.3852)">
        <g
           style="fill:#000000;fill-opacity:1"
           id="id-5f4e8d4a-1130-4adc-950c-1d095103f8af"
           transform="matrix(0.30614212,0,0,0.30614212,20.225588,76.291149)">
          <g
             transform="translate(185.906,134.765)"
             id="g1860">
            <path
               style="stroke:none;stroke-width:0"
               d="m 4.671875,-3.703125 c 0,-0.546875 -0.265625,-0.703125 -0.4375,-0.703125 -0.25,0 -0.5,0.265625 -0.5,0.484375 0,0.125 0.046875,0.1875 0.15625,0.296875 0.21875,0.203125 0.34375,0.453125 0.34375,0.8125 0,0.421875 -0.609375,2.703125 -1.765625,2.703125 -0.515625,0 -0.75,-0.34375 -0.75,-0.875 0,-0.546875 0.28125,-1.28125 0.578125,-2.109375 0.078125,-0.171875 0.125,-0.3125 0.125,-0.5 0,-0.4375 -0.3125,-0.8125 -0.8125,-0.8125 -0.9375,0 -1.3125,1.453125 -1.3125,1.53125 0,0.109375 0.09375,0.109375 0.109375,0.109375 0.109375,0 0.109375,-0.03125 0.15625,-0.1875 0.296875,-1 0.71875,-1.234375 1.015625,-1.234375 0.078125,0 0.25,0 0.25,0.3125 0,0.25 -0.109375,0.53125 -0.171875,0.703125 -0.4375,1.15625 -0.5625,1.609375 -0.5625,2.046875 0,1.078125 0.875,1.234375 1.328125,1.234375 1.671875,0 2.25,-3.296875 2.25,-3.8125 z m 0,0"
               id="id-6b84c90a-e49c-4d18-9dfa-e89907dbf56f" />
          </g>
        </g>
        <g
           style="fill:#000000;fill-opacity:1"
           id="id-2985b1a3-cdd8-4acb-bbfd-9ffce5fdce4f"
           transform="matrix(0.30614212,0,0,0.30614212,20.225588,76.291149)">
          <g
             transform="translate(190.735,136.259)"
             id="g1864">
            <path
               style="stroke:none;stroke-width:0"
               d="m 1.078125,-3.890625 c 0.359375,0.09375 0.5625,0.09375 0.671875,0.09375 0.921875,0 1.46875,-0.625 1.46875,-0.734375 0,-0.078125 -0.046875,-0.09375 -0.078125,-0.09375 -0.015625,0 -0.03125,0 -0.0625,0.015625 -0.171875,0.0625 -0.53125,0.203125 -1.046875,0.203125 -0.203125,0 -0.5625,-0.015625 -1.015625,-0.1875 C 0.9375,-4.625 0.921875,-4.625 0.921875,-4.625 c -0.09375,0 -0.09375,0.078125 -0.09375,0.1875 v 2.046875 c 0,0.125 0,0.203125 0.109375,0.203125 0.0625,0 0.078125,0 0.140625,-0.09375 0.296875,-0.375 0.734375,-0.4375 0.96875,-0.4375 0.421875,0 0.609375,0.328125 0.640625,0.390625 0.125,0.234375 0.171875,0.5 0.171875,0.90625 0,0.203125 0,0.609375 -0.21875,0.921875 -0.171875,0.25 -0.46875,0.421875 -0.8125,0.421875 -0.453125,0 -0.921875,-0.25 -1.09375,-0.71875 0.265625,0.015625 0.40625,-0.15625 0.40625,-0.34375 0,-0.296875 -0.265625,-0.34375 -0.359375,-0.34375 0,0 -0.34375,0 -0.34375,0.375 0,0.625 0.578125,1.25 1.40625,1.25 0.890625,0 1.671875,-0.65625 1.671875,-1.546875 0,-0.78125 -0.59375,-1.5 -1.453125,-1.5 -0.3125,0 -0.671875,0.0625 -0.984375,0.328125 z m 0,0"
               id="id-041be34a-671f-4d42-98fe-2098d33aaef3" />
          </g>
        </g>
      </g>
      <g
         id="g2451"
         transform="translate(-5.346,-13.4244)">
        <g
           style="fill:#000000;fill-opacity:1"
           id="id-306718b5-0f3c-458d-95bb-149d7b8eda83"
           transform="matrix(0.30614212,0,0,0.30614212,20.225588,76.291149)">
          <g
             transform="translate(198.526,134.765)"
             id="g1868">
            <path
               style="stroke:none;stroke-width:0"
               d="m 0.875,-0.59375 c -0.03125,0.15625 -0.09375,0.390625 -0.09375,0.4375 0,0.171875 0.140625,0.265625 0.296875,0.265625 0.125,0 0.296875,-0.078125 0.375,-0.28125 0,-0.015625 0.125,-0.484375 0.1875,-0.734375 l 0.21875,-0.890625 C 1.90625,-2.03125 1.96875,-2.25 2.03125,-2.46875 c 0.03125,-0.171875 0.109375,-0.46875 0.125,-0.5 0.140625,-0.3125 0.671875,-1.21875 1.625,-1.21875 0.453125,0 0.53125,0.375 0.53125,0.703125 0,0.609375 -0.484375,1.890625 -0.640625,2.3125 C 3.578125,-0.9375 3.5625,-0.8125 3.5625,-0.703125 c 0,0.46875 0.359375,0.8125 0.828125,0.8125 0.9375,0 1.296875,-1.453125 1.296875,-1.53125 0,-0.109375 -0.078125,-0.109375 -0.109375,-0.109375 -0.109375,0 -0.109375,0.03125 -0.15625,0.1875 -0.203125,0.671875 -0.53125,1.234375 -1.015625,1.234375 -0.171875,0 -0.234375,-0.09375 -0.234375,-0.328125 0,-0.25 0.078125,-0.484375 0.171875,-0.703125 0.1875,-0.53125 0.609375,-1.625 0.609375,-2.203125 0,-0.65625 -0.421875,-1.0625 -1.140625,-1.0625 -0.90625,0 -1.390625,0.640625 -1.5625,0.875 -0.046875,-0.5625 -0.453125,-0.875 -0.921875,-0.875 -0.453125,0 -0.640625,0.390625 -0.734375,0.5625 C 0.421875,-3.5 0.296875,-2.90625 0.296875,-2.875 c 0,0.109375 0.09375,0.109375 0.109375,0.109375 0.109375,0 0.109375,-0.015625 0.171875,-0.234375 0.171875,-0.703125 0.375,-1.1875 0.734375,-1.1875 0.1875,0 0.296875,0.125 0.296875,0.453125 0,0.21875 -0.03125,0.328125 -0.15625,0.84375 z m 0,0"
               id="id-2e184388-6709-43ba-ae98-e6158d4dea06" />
          </g>
        </g>
        <g
           style="fill:#000000;fill-opacity:1"
           id="id-b395174d-fb5e-43fc-9144-12a7d6499b72"
           transform="matrix(0.30614212,0,0,0.30614212,20.225588,76.291149)">
          <g
             transform="translate(204.506,136.259)"
             id="g1872">
            <path
               style="stroke:none;stroke-width:0"
               d="m 2.328125,-4.4375 c 0,-0.1875 0,-0.1875 -0.203125,-0.1875 -0.453125,0.4375 -1.078125,0.4375 -1.359375,0.4375 v 0.25 c 0.15625,0 0.625,0 1,-0.1875 v 3.546875 c 0,0.234375 0,0.328125 -0.6875,0.328125 H 0.8125 V 0 c 0.125,0 0.984375,-0.03125 1.234375,-0.03125 0.21875,0 1.09375,0.03125 1.25,0.03125 V -0.25 H 3.03125 c -0.703125,0 -0.703125,-0.09375 -0.703125,-0.328125 z m 0,0"
               id="id-22dd2bff-401b-430c-87e6-2f17e9eb4b48" />
          </g>
        </g>
      </g>
      <g
         id="g2459"
         transform="translate(17.1072,-13.1868)">
        <g
           style="fill:#000000;fill-opacity:1"
           id="id-4787c591-2398-42c4-bac8-16b7e0800021"
           transform="matrix(0.30614212,0,0,0.30614212,20.225588,76.291149)">
          <g
             transform="translate(208.975,134.765)"
             id="g1876">
            <path
               style="stroke:none;stroke-width:0"
               d="m 0.875,-0.59375 c -0.03125,0.15625 -0.09375,0.390625 -0.09375,0.4375 0,0.171875 0.140625,0.265625 0.296875,0.265625 0.125,0 0.296875,-0.078125 0.375,-0.28125 0,-0.015625 0.125,-0.484375 0.1875,-0.734375 l 0.21875,-0.890625 C 1.90625,-2.03125 1.96875,-2.25 2.03125,-2.46875 c 0.03125,-0.171875 0.109375,-0.46875 0.125,-0.5 0.140625,-0.3125 0.671875,-1.21875 1.625,-1.21875 0.453125,0 0.53125,0.375 0.53125,0.703125 0,0.609375 -0.484375,1.890625 -0.640625,2.3125 C 3.578125,-0.9375 3.5625,-0.8125 3.5625,-0.703125 c 0,0.46875 0.359375,0.8125 0.828125,0.8125 0.9375,0 1.296875,-1.453125 1.296875,-1.53125 0,-0.109375 -0.078125,-0.109375 -0.109375,-0.109375 -0.109375,0 -0.109375,0.03125 -0.15625,0.1875 -0.203125,0.671875 -0.53125,1.234375 -1.015625,1.234375 -0.171875,0 -0.234375,-0.09375 -0.234375,-0.328125 0,-0.25 0.078125,-0.484375 0.171875,-0.703125 0.1875,-0.53125 0.609375,-1.625 0.609375,-2.203125 0,-0.65625 -0.421875,-1.0625 -1.140625,-1.0625 -0.90625,0 -1.390625,0.640625 -1.5625,0.875 -0.046875,-0.5625 -0.453125,-0.875 -0.921875,-0.875 -0.453125,0 -0.640625,0.390625 -0.734375,0.5625 C 0.421875,-3.5 0.296875,-2.90625 0.296875,-2.875 c 0,0.109375 0.09375,0.109375 0.109375,0.109375 0.109375,0 0.109375,-0.015625 0.171875,-0.234375 0.171875,-0.703125 0.375,-1.1875 0.734375,-1.1875 0.1875,0 0.296875,0.125 0.296875,0.453125 0,0.21875 -0.03125,0.328125 -0.15625,0.84375 z m 0,0"
               id="id-5a20de08-339b-4149-aeeb-0dcf9867dd48" />
          </g>
        </g>
        <g
           style="fill:#000000;fill-opacity:1"
           id="id-8d62f71e-a755-441d-b6f1-cd33f6f828c6"
           transform="matrix(0.30614212,0,0,0.30614212,20.225588,76.291149)">
          <g
             transform="translate(214.955,136.259)"
             id="g1880">
            <path
               style="stroke:none;stroke-width:0"
               d="M 3.515625,-1.265625 H 3.28125 c -0.015625,0.15625 -0.09375,0.5625 -0.1875,0.625 C 3.046875,-0.59375 2.515625,-0.59375 2.40625,-0.59375 H 1.125 c 0.734375,-0.640625 0.984375,-0.84375 1.390625,-1.171875 0.515625,-0.40625 1,-0.84375 1,-1.5 0,-0.84375 -0.734375,-1.359375 -1.625,-1.359375 -0.859375,0 -1.453125,0.609375 -1.453125,1.25 0,0.34375 0.296875,0.390625 0.375,0.390625 0.15625,0 0.359375,-0.125 0.359375,-0.375 0,-0.125 -0.046875,-0.375 -0.40625,-0.375 C 0.984375,-4.21875 1.453125,-4.375 1.78125,-4.375 c 0.703125,0 1.0625,0.546875 1.0625,1.109375 0,0.609375 -0.4375,1.078125 -0.65625,1.328125 L 0.515625,-0.265625 C 0.4375,-0.203125 0.4375,-0.1875 0.4375,0 h 2.875 z m 0,0"
               id="id-95e9e98d-4f45-40ea-b6de-362abea6c8cd" />
          </g>
        </g>
      </g>
      <g
         id="g2467"
         transform="translate(1.188,-29.7)">
        <g
           style="fill:#000000;fill-opacity:1"
           id="id-f4b84a89-c080-4420-9a6c-7147e07bc7a2"
           transform="matrix(0.30614212,0,0,0.30614212,20.225588,76.291149)">
          <g
             transform="translate(219.424,134.765)"
             id="g1884">
            <path
               style="stroke:none;stroke-width:0"
               d="m 0.875,-0.59375 c -0.03125,0.15625 -0.09375,0.390625 -0.09375,0.4375 0,0.171875 0.140625,0.265625 0.296875,0.265625 0.125,0 0.296875,-0.078125 0.375,-0.28125 0,-0.015625 0.125,-0.484375 0.1875,-0.734375 l 0.21875,-0.890625 C 1.90625,-2.03125 1.96875,-2.25 2.03125,-2.46875 c 0.03125,-0.171875 0.109375,-0.46875 0.125,-0.5 0.140625,-0.3125 0.671875,-1.21875 1.625,-1.21875 0.453125,0 0.53125,0.375 0.53125,0.703125 0,0.609375 -0.484375,1.890625 -0.640625,2.3125 C 3.578125,-0.9375 3.5625,-0.8125 3.5625,-0.703125 c 0,0.46875 0.359375,0.8125 0.828125,0.8125 0.9375,0 1.296875,-1.453125 1.296875,-1.53125 0,-0.109375 -0.078125,-0.109375 -0.109375,-0.109375 -0.109375,0 -0.109375,0.03125 -0.15625,0.1875 -0.203125,0.671875 -0.53125,1.234375 -1.015625,1.234375 -0.171875,0 -0.234375,-0.09375 -0.234375,-0.328125 0,-0.25 0.078125,-0.484375 0.171875,-0.703125 0.1875,-0.53125 0.609375,-1.625 0.609375,-2.203125 0,-0.65625 -0.421875,-1.0625 -1.140625,-1.0625 -0.90625,0 -1.390625,0.640625 -1.5625,0.875 -0.046875,-0.5625 -0.453125,-0.875 -0.921875,-0.875 -0.453125,0 -0.640625,0.390625 -0.734375,0.5625 C 0.421875,-3.5 0.296875,-2.90625 0.296875,-2.875 c 0,0.109375 0.09375,0.109375 0.109375,0.109375 0.109375,0 0.109375,-0.015625 0.171875,-0.234375 0.171875,-0.703125 0.375,-1.1875 0.734375,-1.1875 0.1875,0 0.296875,0.125 0.296875,0.453125 0,0.21875 -0.03125,0.328125 -0.15625,0.84375 z m 0,0"
               id="id-4e384b79-3fd9-443d-ad18-0c405f226785" />
          </g>
        </g>
        <g
           style="fill:#000000;fill-opacity:1"
           id="id-5f22150f-9a86-4a75-8387-a7c7f505bc88"
           transform="matrix(0.30614212,0,0,0.30614212,20.225588,76.291149)">
          <g
             transform="translate(225.404,136.259)"
             id="g1888">
            <path
               style="stroke:none;stroke-width:0"
               d="m 1.90625,-2.328125 c 0.546875,0 0.9375,0.375 0.9375,1.125 0,0.859375 -0.515625,1.125 -0.90625,1.125 -0.28125,0 -0.90625,-0.078125 -1.1875,-0.5 0.328125,0 0.40625,-0.234375 0.40625,-0.390625 0,-0.21875 -0.171875,-0.375 -0.390625,-0.375 -0.1875,0 -0.390625,0.125 -0.390625,0.40625 0,0.65625 0.71875,1.078125 1.5625,1.078125 0.96875,0 1.640625,-0.65625 1.640625,-1.34375 0,-0.546875 -0.4375,-1.09375 -1.203125,-1.25 0.71875,-0.265625 0.984375,-0.78125 0.984375,-1.21875 0,-0.546875 -0.625,-0.953125 -1.40625,-0.953125 -0.765625,0 -1.359375,0.375 -1.359375,0.9375 0,0.234375 0.15625,0.359375 0.359375,0.359375 0.21875,0 0.359375,-0.15625 0.359375,-0.34375 0,-0.203125 -0.140625,-0.359375 -0.359375,-0.375 0.25,-0.296875 0.71875,-0.375 0.984375,-0.375 0.3125,0 0.75,0.15625 0.75,0.75 0,0.296875 -0.09375,0.625 -0.28125,0.828125 -0.21875,0.265625 -0.421875,0.28125 -0.765625,0.3125 -0.171875,0.015625 -0.1875,0.015625 -0.21875,0.015625 -0.015625,0 -0.078125,0.015625 -0.078125,0.09375 0,0.09375 0.0625,0.09375 0.1875,0.09375 z m 0,0"
               id="id-a0304939-2e51-48c5-866e-1998421da12b" />
          </g>
        </g>
      </g>
      <g
         id="g2435"
         transform="matrix(0.88287114,0,0,0.88287114,-10.17048,7.9352441)">
        <g
           style="fill:#000000;fill-opacity:1"
           id="id-e10b4450-4d1a-4af5-8b53-a51e55d0268c"
           transform="matrix(0.3161355,0,0,0.3161355,48.629616,72.178992)">
          <g
             transform="translate(148.712,134.765)"
             id="g2327">
            <path
               style="stroke:none;stroke-width:0"
               d="m 4.671875,-3.703125 c 0,-0.546875 -0.265625,-0.703125 -0.4375,-0.703125 -0.25,0 -0.5,0.265625 -0.5,0.484375 0,0.125 0.046875,0.1875 0.15625,0.296875 0.21875,0.203125 0.34375,0.453125 0.34375,0.8125 0,0.421875 -0.609375,2.703125 -1.765625,2.703125 -0.515625,0 -0.75,-0.34375 -0.75,-0.875 0,-0.546875 0.28125,-1.28125 0.578125,-2.109375 0.078125,-0.171875 0.125,-0.3125 0.125,-0.5 0,-0.4375 -0.3125,-0.8125 -0.8125,-0.8125 -0.9375,0 -1.3125,1.453125 -1.3125,1.53125 0,0.109375 0.09375,0.109375 0.109375,0.109375 0.109375,0 0.109375,-0.03125 0.15625,-0.1875 0.296875,-1 0.71875,-1.234375 1.015625,-1.234375 0.078125,0 0.25,0 0.25,0.3125 0,0.25 -0.109375,0.53125 -0.171875,0.703125 -0.4375,1.15625 -0.5625,1.609375 -0.5625,2.046875 0,1.078125 0.875,1.234375 1.328125,1.234375 1.671875,0 2.25,-3.296875 2.25,-3.8125 z m 0,0"
               id="id-95a21e8c-30cb-4121-8d0c-362506c06148" />
          </g>
        </g>
        <g
           style="fill:#000000;fill-opacity:1"
           id="id-c34b7cce-d6cb-48a5-b5c7-c9d376ab64b3"
           transform="matrix(0.3161355,0,0,0.3161355,48.629616,72.178992)">
          <g
             transform="translate(153.541,136.259)"
             id="g2331">
            <path
               style="stroke:none;stroke-width:0"
               d="m 1.046875,-2.28125 c 0,-0.5625 0.046875,-1.078125 0.3125,-1.515625 0.234375,-0.375 0.609375,-0.625 1.0625,-0.625 0.203125,0 0.484375,0.046875 0.625,0.234375 C 2.875,-4.171875 2.71875,-4.046875 2.71875,-3.84375 c 0,0.171875 0.125,0.328125 0.328125,0.328125 0.21875,0 0.34375,-0.140625 0.34375,-0.34375 0,-0.40625 -0.296875,-0.765625 -0.984375,-0.765625 -1,0 -2.03125,0.921875 -2.03125,2.421875 0,1.796875 0.84375,2.34375 1.625,2.34375 0.84375,0 1.578125,-0.65625 1.578125,-1.5625 0,-0.890625 -0.703125,-1.546875 -1.515625,-1.546875 -0.5625,0 -0.859375,0.375 -1.015625,0.6875 z M 2,-0.078125 c -0.359375,0 -0.625,-0.203125 -0.78125,-0.515625 C 1.125,-0.796875 1.0625,-1.15625 1.0625,-1.5625 c 0,-0.6875 0.40625,-1.203125 0.96875,-1.203125 0.3125,0 0.53125,0.125 0.703125,0.375 0.171875,0.265625 0.171875,0.5625 0.171875,0.96875 0,0.390625 0,0.6875 -0.1875,0.96875 -0.15625,0.234375 -0.390625,0.375 -0.71875,0.375 z m 0,0"
               id="id-063654e6-66b0-4eb1-b681-49bb5a23a5f3" />
          </g>
        </g>
      </g>
      <g
         id="g2443"
         transform="matrix(0.88287114,0,0,0.88287114,16.23064,7.9213291)">
        <g
           style="fill:#000000;fill-opacity:1"
           id="id-019dcda3-a6fb-4aae-b006-29ac4ace3275"
           transform="matrix(0.3161355,0,0,0.3161355,48.629616,72.178992)">
          <g
             transform="translate(158.011,134.765)"
             id="g2335">
            <path
               style="stroke:none;stroke-width:0"
               d="m 4.671875,-3.703125 c 0,-0.546875 -0.265625,-0.703125 -0.4375,-0.703125 -0.25,0 -0.5,0.265625 -0.5,0.484375 0,0.125 0.046875,0.1875 0.15625,0.296875 0.21875,0.203125 0.34375,0.453125 0.34375,0.8125 0,0.421875 -0.609375,2.703125 -1.765625,2.703125 -0.515625,0 -0.75,-0.34375 -0.75,-0.875 0,-0.546875 0.28125,-1.28125 0.578125,-2.109375 0.078125,-0.171875 0.125,-0.3125 0.125,-0.5 0,-0.4375 -0.3125,-0.8125 -0.8125,-0.8125 -0.9375,0 -1.3125,1.453125 -1.3125,1.53125 0,0.109375 0.09375,0.109375 0.109375,0.109375 0.109375,0 0.109375,-0.03125 0.15625,-0.1875 0.296875,-1 0.71875,-1.234375 1.015625,-1.234375 0.078125,0 0.25,0 0.25,0.3125 0,0.25 -0.109375,0.53125 -0.171875,0.703125 -0.4375,1.15625 -0.5625,1.609375 -0.5625,2.046875 0,1.078125 0.875,1.234375 1.328125,1.234375 1.671875,0 2.25,-3.296875 2.25,-3.8125 z m 0,0"
               id="id-1ffd776c-d331-4c15-8672-3a8213287942" />
          </g>
        </g>
        <g
           style="fill:#000000;fill-opacity:1"
           id="id-23829ca0-1d38-4ada-acfb-823ddc31d6ba"
           transform="matrix(0.3161355,0,0,0.3161355,48.629616,72.178992)">
          <g
             transform="translate(162.84,136.259)"
             id="g2339">
            <path
               style="stroke:none;stroke-width:0"
               d="m 3.734375,-4.203125 c 0.0625,-0.09375 0.0625,-0.109375 0.0625,-0.28125 H 1.96875 C 1.6875,-4.484375 1.609375,-4.5 1.359375,-4.515625 1,-4.546875 0.984375,-4.59375 0.96875,-4.703125 H 0.734375 l -0.25,1.484375 H 0.71875 c 0.015625,-0.109375 0.09375,-0.5625 0.203125,-0.640625 0.046875,-0.03125 0.625,-0.03125 0.71875,-0.03125 H 3.15625 c -0.21875,0.28125 -0.578125,0.71875 -0.71875,0.921875 -0.90625,1.1875 -1,2.296875 -1,2.703125 0,0.078125 0,0.40625 0.328125,0.40625 0.34375,0 0.34375,-0.3125 0.34375,-0.40625 v -0.28125 c 0,-1.34375 0.28125,-1.96875 0.578125,-2.34375 z m 0,0"
               id="id-55794d30-2961-4445-946e-35430eaab16a" />
          </g>
        </g>
      </g>
    </g>
  </g>
</svg>
