<?xml version="1.0" encoding="UTF-8" standalone="no"?>
<!-- Created with Inkscape (http://www.inkscape.org/) -->

<svg
   width="45.678535mm"
   height="57.473228mm"
   viewBox="0 0 45.678535 57.473228"
   version="1.1"
   id="svg5"
   inkscape:version="1.1 (c4e8f9e, 2021-05-24)"
   sodipodi:docname="relation_types.svg"
   xmlns:inkscape="http://www.inkscape.org/namespaces/inkscape"
   xmlns:sodipodi="http://sodipodi.sourceforge.net/DTD/sodipodi-0.dtd"
   xmlns="http://www.w3.org/2000/svg"
   xmlns:svg="http://www.w3.org/2000/svg">
  <sodipodi:namedview
     id="namedview7"
     pagecolor="#ffffff"
     bordercolor="#666666"
     borderopacity="1.0"
     inkscape:pageshadow="2"
     inkscape:pageopacity="0.0"
     inkscape:pagecheckerboard="0"
     inkscape:document-units="mm"
     showgrid="false"
     inkscape:zoom="1.5748204"
     inkscape:cx="24.447231"
     inkscape:cy="115.88623"
     inkscape:window-width="1608"
     inkscape:window-height="847"
     inkscape:window-x="2191"
     inkscape:window-y="70"
     inkscape:window-maximized="0"
     inkscape:current-layer="layer1"
     inkscape:snap-center="true">
    <inkscape:grid
       type="xygrid"
       id="grid824"
       originx="-72.860069"
       originy="-97.763544" />
  </sodipodi:namedview>
  <defs
     id="defs2">
    <marker
       style="overflow:visible"
       id="TriangleOutM"
       refX="0"
       refY="0"
       orient="auto"
       inkscape:stockid="TriangleOutM"
       inkscape:isstock="true">
      <path
         transform="scale(0.4)"
         style="fill:context-stroke;fill-rule:evenodd;stroke:context-stroke;stroke-width:1pt"
         d="M 5.77,0 -2.88,5 V -5 Z"
         id="path1796" />
    </marker>
    <defs
       id="id-1cc147b0-ad6b-4460-901b-4b60a486cd00">
      <g
         id="id-13bf7628-c7eb-453f-b95e-92872fed21c3">
        <symbol
           overflow="visible"
           id="id-d94ee0ee-4e3c-4930-b269-af43fd4bd52d">
          <path
             style="stroke:none;stroke-width:0"
             d=""
             id="id-26adc5e4-3f16-4066-868b-c5990f3ef413" />
        </symbol>
        <symbol
           overflow="visible"
           id="id-1ef2edac-c68b-47ad-83a8-8538e6df5902">
          <path
             style="stroke:none;stroke-width:0"
             d="m 4.65625,-2.15625 c 0,-1.25 -0.921875,-2.234375 -2.046875,-2.234375 -1.109375,0 -2.046875,0.984375 -2.046875,2.234375 0,1.265625 0.953125,2.21875 2.046875,2.21875 1.09375,0 2.046875,-0.953125 2.046875,-2.21875 z M 2.609375,-0.546875 C 1.875,-0.546875 1.25,-1.296875 1.25,-2.21875 c 0,-0.90625 0.65625,-1.5625 1.359375,-1.5625 0.71875,0 1.359375,0.65625 1.359375,1.5625 0,0.921875 -0.625,1.671875 -1.359375,1.671875 z m 0,0"
             id="id-bc002d45-3f8d-42d2-8a61-39391a711459" />
        </symbol>
        <symbol
           overflow="visible"
           id="id-8a6de171-e4f9-4986-9430-8e4f93bdc3e4">
          <path
             style="stroke:none;stroke-width:0"
             d="m 1.65625,-3.828125 c 0,-0.3125 0,-0.46875 -0.40625,-0.46875 H 0.53125 c -0.15625,0 -0.40625,0 -0.40625,0.3125 0,0.296875 0.25,0.296875 0.390625,0.296875 H 0.96875 v 3.078125 h -0.4375 c -0.15625,0 -0.40625,0 -0.40625,0.3125 C 0.125,0 0.375,0 0.515625,0 h 1.59375 C 2.25,0 2.5,0 2.5,-0.296875 c 0,-0.3125 -0.25,-0.3125 -0.40625,-0.3125 H 1.65625 V -2.375 c 0,-1 0.734375,-1.375 1.25,-1.375 0.515625,0 0.65625,0.28125 0.65625,0.875 v 2.265625 h -0.375 c -0.171875,0 -0.421875,0 -0.421875,0.3125 C 2.765625,0 3.046875,0 3.1875,0 h 1.515625 c 0.140625,0 0.40625,0 0.40625,-0.296875 0,-0.3125 -0.25,-0.3125 -0.421875,-0.3125 H 4.25 v -2.3125 c 0,-1 -0.5,-1.4375 -1.296875,-1.4375 -0.65625,0 -1.109375,0.34375 -1.296875,0.53125 z m 0,0"
             id="id-277c6c41-0d75-4199-b92c-7fb020d51efc" />
        </symbol>
        <symbol
           overflow="visible"
           id="id-e93902cd-eb4b-44cb-9dc5-7086714ec929">
          <path
             style="stroke:none;stroke-width:0"
             d="m 4.234375,-1.90625 c 0.203125,0 0.390625,0 0.390625,-0.359375 0,-1.140625 -0.640625,-2.125 -1.9375,-2.125 -1.1875,0 -2.140625,1 -2.140625,2.234375 0,1.203125 1.015625,2.21875 2.296875,2.21875 1.3125,0 1.78125,-0.90625 1.78125,-1.15625 0,-0.265625 -0.28125,-0.265625 -0.34375,-0.265625 -0.1875,0 -0.265625,0.03125 -0.328125,0.21875 -0.21875,0.5 -0.765625,0.59375 -1.046875,0.59375 -0.75,0 -1.484375,-0.5 -1.65625,-1.359375 z M 1.265625,-2.5 C 1.40625,-3.234375 2,-3.78125 2.6875,-3.78125 c 0.515625,0 1.140625,0.25 1.234375,1.28125 z m 0,0"
             id="id-beea7490-0b13-4e62-9efe-bb30f067d169" />
        </symbol>
        <symbol
           overflow="visible"
           id="id-e582b205-becc-4a4c-ada6-51ea7da263fc">
          <path
             style="stroke:none;stroke-width:0"
             d="m 4.203125,-2.703125 c 0.109375,0 0.46875,0 0.46875,-0.34375 0,-0.359375 -0.359375,-0.359375 -0.46875,-0.359375 H 1.03125 c -0.125,0 -0.46875,0 -0.46875,0.359375 0,0.34375 0.34375,0.34375 0.46875,0.34375 z m 0,0"
             id="id-31b8c9a3-03d5-40f3-8fb3-4c8c9627ceaa" />
        </symbol>
        <symbol
           overflow="visible"
           id="id-0a5737aa-49db-4bc8-ad58-d0132a901be5">
          <path
             style="stroke:none;stroke-width:0"
             d="m 2.21875,-3.6875 h 1.625 c 0.15625,0 0.40625,0 0.40625,-0.296875 0,-0.3125 -0.25,-0.3125 -0.40625,-0.3125 h -1.625 v -0.8125 c 0,-0.1875 0,-0.40625 -0.34375,-0.40625 -0.34375,0 -0.34375,0.203125 -0.34375,0.40625 v 0.8125 h -0.875 c -0.15625,0 -0.40625,0 -0.40625,0.3125 0,0.296875 0.25,0.296875 0.390625,0.296875 H 1.53125 V -1.25 c 0,0.953125 0.671875,1.3125 1.40625,1.3125 0.734375,0 1.53125,-0.4375 1.53125,-1.3125 0,-0.1875 0,-0.390625 -0.34375,-0.390625 -0.328125,0 -0.34375,0.203125 -0.34375,0.375 0,0.625 -0.578125,0.71875 -0.796875,0.71875 -0.765625,0 -0.765625,-0.515625 -0.765625,-0.765625 z m 0,0"
             id="id-47e20be8-ec33-4240-ae9d-ad8f502cd945" />
        </symbol>
        <symbol
           overflow="visible"
           id="id-341049d1-189f-4605-8070-5babc6ed055c">
          <path
             style="stroke:none;stroke-width:0"
             d="M 1.09375,-4 C 1.0625,-4.296875 0.875,-4.296875 0.6875,-4.296875 H 0.375 c -0.15625,0 -0.421875,0 -0.421875,0.296875 0,0.3125 0.21875,0.3125 0.578125,0.3125 v 3.078125 c -0.359375,0 -0.578125,0 -0.578125,0.3125 C -0.046875,0 0.234375,0 0.375,0 H 1.25 c 0.140625,0 0.40625,0 0.40625,-0.296875 0,-0.3125 -0.203125,-0.3125 -0.5625,-0.3125 v -1.78125 C 1.09375,-3.28125 1.5,-3.75 1.90625,-3.75 c 0.234375,0 0.359375,0.171875 0.359375,0.8125 v 2.328125 c -0.1875,0 -0.4375,0 -0.4375,0.3125 C 1.828125,0 2.109375,0 2.25,0 h 0.734375 c 0.15625,0 0.421875,0 0.421875,-0.296875 0,-0.3125 -0.21875,-0.3125 -0.578125,-0.3125 v -1.78125 c 0,-0.890625 0.40625,-1.359375 0.828125,-1.359375 0.21875,0 0.359375,0.171875 0.359375,0.8125 v 2.328125 c -0.1875,0 -0.4375,0 -0.4375,0.3125 C 3.578125,0 3.84375,0 3.984375,0 h 0.75 c 0.15625,0 0.40625,0 0.40625,-0.296875 0,-0.3125 -0.203125,-0.3125 -0.5625,-0.3125 v -2.40625 c 0,-0.203125 0,-1.34375 -0.890625,-1.34375 -0.296875,0 -0.703125,0.125 -0.984375,0.515625 C 2.546875,-4.171875 2.265625,-4.359375 1.9375,-4.359375 1.625,-4.359375 1.328125,-4.21875 1.09375,-4 Z m 0,0"
             id="id-5b37534c-09d2-4697-aebb-c65f2869abb9" />
        </symbol>
        <symbol
           overflow="visible"
           id="id-8dfabaec-4cf8-4033-bb2a-86c9ccbdffa5">
          <path
             style="stroke:none;stroke-width:0"
             d="M 3.65625,-0.3125 C 3.875,-0.015625 4.34375,0 4.71875,0 c 0.28125,0 0.5,0 0.5,-0.3125 0,-0.296875 -0.25,-0.296875 -0.390625,-0.296875 -0.421875,0 -0.515625,-0.046875 -0.59375,-0.078125 v -2.15625 c 0,-0.703125 -0.546875,-1.546875 -1.984375,-1.546875 -0.421875,0 -1.4375,0 -1.4375,0.734375 0,0.296875 0.203125,0.453125 0.4375,0.453125 0.15625,0 0.4375,-0.09375 0.4375,-0.453125 0,-0.078125 0.015625,-0.09375 0.21875,-0.109375 0.140625,-0.015625 0.265625,-0.015625 0.359375,-0.015625 0.75,0 1.265625,0.3125 1.265625,1.015625 -1.75,0.03125 -2.984375,0.53125 -2.984375,1.484375 0,0.6875 0.625,1.34375 1.640625,1.34375 0.375,0 1,-0.078125 1.46875,-0.375 z m -0.125,-1.859375 v 0.84375 c 0,0.21875 0,0.4375 -0.375,0.609375 -0.359375,0.171875 -0.8125,0.171875 -0.890625,0.171875 -0.625,0 -1.03125,-0.34375 -1.03125,-0.734375 0,-0.484375 0.859375,-0.859375 2.296875,-0.890625 z m 0,0"
             id="id-2d5ce0df-1e76-42b3-b22b-3569cfe662b8" />
        </symbol>
        <symbol
           overflow="visible"
           id="id-71de13f3-2415-4bac-9ce4-39f7258cd374">
          <path
             style="stroke:none;stroke-width:0"
             d="m 4.28125,-3.6875 h 0.296875 c 0.15625,0 0.40625,0 0.40625,-0.296875 0,-0.3125 -0.234375,-0.3125 -0.40625,-0.3125 h -1.15625 c -0.15625,0 -0.40625,0 -0.40625,0.296875 0,0.3125 0.25,0.3125 0.40625,0.3125 h 0.28125 l -0.71875,2.125 C 2.84375,-1.203125 2.796875,-1.015625 2.71875,-0.703125 2.65625,-0.890625 2.578125,-1.109375 2.5,-1.296875 L 1.578125,-3.6875 h 0.25 c 0.140625,0 0.390625,0 0.390625,-0.296875 0,-0.3125 -0.234375,-0.3125 -0.390625,-0.3125 H 0.65625 c -0.15625,0 -0.390625,0 -0.390625,0.3125 0,0.296875 0.25,0.296875 0.390625,0.296875 h 0.3125 L 2.375,-0.125 c 0.046875,0.09375 0.046875,0.109375 0.046875,0.125 0,0.015625 -0.25,0.84375 -0.375,1.09375 C 1.75,1.640625 1.390625,1.65625 1.25,1.671875 c 0,-0.015625 0.046875,-0.09375 0.046875,-0.21875 0,-0.25 -0.1875,-0.4375 -0.421875,-0.4375 -0.28125,0 -0.453125,0.1875 -0.453125,0.4375 0,0.421875 0.34375,0.8125 0.828125,0.8125 1,0 1.453125,-1.3125 1.484375,-1.421875 z m 0,0"
             id="id-cc69c9da-e50a-4358-9c63-cd39eb589397" />
        </symbol>
      </g>
    </defs>
  </defs>
  <g
     inkscape:label="Layer 1"
     inkscape:groupmode="layer"
     id="layer1"
     transform="translate(-72.860068,-97.763544)">
    <g
       id="g8014">
      <g
         id="g7786">
        <rect
           style="font-variation-settings:normal;vector-effect:none;fill:#4a6b7a;fill-opacity:1;fill-rule:evenodd;stroke:#2d2d2d;stroke-width:0.264583;stroke-linecap:butt;stroke-linejoin:miter;stroke-miterlimit:4;stroke-dasharray:none;stroke-dashoffset:0;stroke-opacity:1;stop-color:#000000"
           id="rect1233"
           width="5.2916665"
           height="5.2916665"
           x="74.083336"
           y="97.895836"
           ry="0.13229166" />
        <rect
           style="font-variation-settings:normal;vector-effect:none;fill:#4a6b7a;fill-opacity:1;fill-rule:evenodd;stroke:#2d2d2d;stroke-width:0.264583;stroke-linecap:butt;stroke-linejoin:miter;stroke-miterlimit:4;stroke-dasharray:none;stroke-dashoffset:0;stroke-opacity:1;stop-color:#000000"
           id="rect3552"
           width="5.2916665"
           height="5.2916665"
           x="74.083336"
           y="103.1875"
           ry="0.13229166" />
        <rect
           style="font-variation-settings:normal;vector-effect:none;fill:#4a6b7a;fill-opacity:1;fill-rule:evenodd;stroke:#2d2d2d;stroke-width:0.264583;stroke-linecap:butt;stroke-linejoin:miter;stroke-miterlimit:4;stroke-dasharray:none;stroke-dashoffset:0;stroke-opacity:1;stop-color:#000000"
           id="rect3558"
           width="5.2916665"
           height="5.2916665"
           x="74.083336"
           y="108.47917"
           ry="0.13229166" />
        <rect
           style="font-variation-settings:normal;vector-effect:none;fill:#4a6b7a;fill-opacity:1;fill-rule:evenodd;stroke:#2d2d2d;stroke-width:0.264583;stroke-linecap:butt;stroke-linejoin:miter;stroke-miterlimit:4;stroke-dasharray:none;stroke-dashoffset:0;stroke-opacity:1;stop-color:#000000"
           id="rect3564"
           width="5.2916665"
           height="5.2916665"
           x="74.083336"
           y="113.77084"
           ry="0.13229166" />
        <rect
           style="font-variation-settings:normal;vector-effect:none;fill:#bdcdd4;fill-opacity:1;fill-rule:evenodd;stroke:#364e59;stroke-width:0.264583;stroke-linecap:butt;stroke-linejoin:miter;stroke-miterlimit:4;stroke-dasharray:none;stroke-dashoffset:0;stroke-opacity:1;stop-color:#000000"
           id="rect1323"
           width="5.2916665"
           height="5.2916665"
           x="84.666664"
           y="97.895836"
           ry="0.13229166" />
        <circle
           style="font-variation-settings:normal;vector-effect:none;fill:#999999;fill-opacity:1;fill-rule:evenodd;stroke:#0e232e;stroke-width:0.264583;stroke-linecap:butt;stroke-linejoin:miter;stroke-miterlimit:4;stroke-dasharray:none;stroke-dashoffset:0;stroke-opacity:1;stop-color:#000000"
           id="circle2934"
           cx="87.312492"
           cy="100.54166"
           r="0.66145831" />
        <rect
           style="font-variation-settings:normal;vector-effect:none;fill:#bdcdd4;fill-opacity:1;fill-rule:evenodd;stroke:#364e59;stroke-width:0.264583;stroke-linecap:butt;stroke-linejoin:miter;stroke-miterlimit:4;stroke-dasharray:none;stroke-dashoffset:0;stroke-opacity:1;stop-color:#000000"
           id="rect3588"
           width="5.2916665"
           height="5.2916665"
           x="84.666664"
           y="103.1875"
           ry="0.13229166" />
        <circle
           style="font-variation-settings:normal;vector-effect:none;fill:#999999;fill-opacity:1;fill-rule:evenodd;stroke:#0e232e;stroke-width:0.264583;stroke-linecap:butt;stroke-linejoin:miter;stroke-miterlimit:4;stroke-dasharray:none;stroke-dashoffset:0;stroke-opacity:1;stop-color:#000000"
           id="circle3590"
           cx="87.312492"
           cy="105.83332"
           r="0.66145831" />
        <rect
           style="font-variation-settings:normal;vector-effect:none;fill:#bdcdd4;fill-opacity:1;fill-rule:evenodd;stroke:#364e59;stroke-width:0.264583;stroke-linecap:butt;stroke-linejoin:miter;stroke-miterlimit:4;stroke-dasharray:none;stroke-dashoffset:0;stroke-opacity:1;stop-color:#000000"
           id="rect3592"
           width="5.2916665"
           height="5.2916665"
           x="84.666664"
           y="108.47916"
           ry="0.13229166" />
        <circle
           style="font-variation-settings:normal;vector-effect:none;fill:#999999;fill-opacity:1;fill-rule:evenodd;stroke:#0e232e;stroke-width:0.264583;stroke-linecap:butt;stroke-linejoin:miter;stroke-miterlimit:4;stroke-dasharray:none;stroke-dashoffset:0;stroke-opacity:1;stop-color:#000000"
           id="circle3594"
           cx="87.312492"
           cy="111.12498"
           r="0.66145831" />
        <rect
           style="font-variation-settings:normal;vector-effect:none;fill:#bdcdd4;fill-opacity:1;fill-rule:evenodd;stroke:#364e59;stroke-width:0.264583;stroke-linecap:butt;stroke-linejoin:miter;stroke-miterlimit:4;stroke-dasharray:none;stroke-dashoffset:0;stroke-opacity:1;stop-color:#000000"
           id="rect3596"
           width="5.2916665"
           height="5.2916665"
           x="84.666664"
           y="113.77082"
           ry="0.13229166" />
        <circle
           style="font-variation-settings:normal;vector-effect:none;fill:#999999;fill-opacity:1;fill-rule:evenodd;stroke:#0e232e;stroke-width:0.264583;stroke-linecap:butt;stroke-linejoin:miter;stroke-miterlimit:4;stroke-dasharray:none;stroke-dashoffset:0;stroke-opacity:1;stop-color:#000000"
           id="circle3598"
           cx="87.312492"
           cy="116.41664"
           r="0.66145831" />
        <path
           style="fill:none;stroke:#000000;stroke-width:0.264583px;stroke-linecap:butt;stroke-linejoin:miter;stroke-opacity:1;marker-end:url(#TriangleOutM)"
           d="m 76.729166,100.54167 h 9.260416"
           id="path3643" />
        <circle
           style="font-variation-settings:normal;vector-effect:none;fill:#ffc022;fill-opacity:1;fill-rule:evenodd;stroke:#2d2d2d;stroke-width:0.264583;stroke-linecap:butt;stroke-linejoin:miter;stroke-miterlimit:4;stroke-dasharray:none;stroke-dashoffset:0;stroke-opacity:1;stop-color:#000000"
           id="path2440"
           cx="76.729164"
           cy="100.54166"
           r="0.66145831" />
        <path
           style="fill:none;stroke:#000000;stroke-width:0.264583px;stroke-linecap:butt;stroke-linejoin:miter;stroke-opacity:1;marker-end:url(#TriangleOutM)"
           d="m 76.729166,105.83334 h 9.260416"
           id="path3756" />
        <path
           style="fill:none;stroke:#000000;stroke-width:0.264583px;stroke-linecap:butt;stroke-linejoin:miter;stroke-opacity:1;marker-end:url(#TriangleOutM)"
           d="m 76.729166,111.12501 h 9.260416"
           id="path3758" />
        <path
           style="fill:none;stroke:#000000;stroke-width:0.264583px;stroke-linecap:butt;stroke-linejoin:miter;stroke-opacity:1;marker-end:url(#TriangleOutM)"
           d="m 76.729166,116.41668 h 9.260416"
           id="path3760" />
        <circle
           style="font-variation-settings:normal;vector-effect:none;fill:#ffc022;fill-opacity:1;fill-rule:evenodd;stroke:#2d2d2d;stroke-width:0.264583;stroke-linecap:butt;stroke-linejoin:miter;stroke-miterlimit:4;stroke-dasharray:none;stroke-dashoffset:0;stroke-opacity:1;stop-color:#000000"
           id="circle3554"
           cx="76.729164"
           cy="105.83332"
           r="0.66145831" />
        <circle
           style="font-variation-settings:normal;vector-effect:none;fill:#ffc022;fill-opacity:1;fill-rule:evenodd;stroke:#2d2d2d;stroke-width:0.264583;stroke-linecap:butt;stroke-linejoin:miter;stroke-miterlimit:4;stroke-dasharray:none;stroke-dashoffset:0;stroke-opacity:1;stop-color:#000000"
           id="circle3560"
           cx="76.729164"
           cy="111.12499"
           r="0.66145831" />
        <circle
           style="font-variation-settings:normal;vector-effect:none;fill:#ffc022;fill-opacity:1;fill-rule:evenodd;stroke:#2d2d2d;stroke-width:0.264583;stroke-linecap:butt;stroke-linejoin:miter;stroke-miterlimit:4;stroke-dasharray:none;stroke-dashoffset:0;stroke-opacity:1;stop-color:#000000"
           id="circle3566"
           cx="76.729164"
           cy="116.41666"
           r="0.66145831" />
      </g>
      <g
         id="g7806">
        <rect
           style="font-variation-settings:normal;vector-effect:none;fill:#f1caff;fill-opacity:1;fill-rule:evenodd;stroke:#2d2d2d;stroke-width:0.264583;stroke-linecap:butt;stroke-linejoin:miter;stroke-miterlimit:4;stroke-dasharray:none;stroke-dashoffset:0;stroke-opacity:1;stop-color:#000000"
           id="rect3796"
           width="5.2916665"
           height="5.2916665"
           x="100.54166"
           y="97.895836"
           ry="0.13229166" />
        <rect
           style="font-variation-settings:normal;vector-effect:none;fill:#f1caff;fill-opacity:1;fill-rule:evenodd;stroke:#2d2d2d;stroke-width:0.264583;stroke-linecap:butt;stroke-linejoin:miter;stroke-miterlimit:4;stroke-dasharray:none;stroke-dashoffset:0;stroke-opacity:1;stop-color:#000000"
           id="rect3798"
           width="5.2916665"
           height="5.2916665"
           x="100.54166"
           y="103.1875"
           ry="0.13229166" />
        <rect
           style="font-variation-settings:normal;vector-effect:none;fill:#f1caff;fill-opacity:1;fill-rule:evenodd;stroke:#2d2d2d;stroke-width:0.264583;stroke-linecap:butt;stroke-linejoin:miter;stroke-miterlimit:4;stroke-dasharray:none;stroke-dashoffset:0;stroke-opacity:1;stop-color:#000000"
           id="rect3800"
           width="5.2916665"
           height="5.2916665"
           x="100.54166"
           y="108.47917"
           ry="0.13229166" />
        <rect
           style="font-variation-settings:normal;vector-effect:none;fill:#d1efff;fill-opacity:1;fill-rule:evenodd;stroke:#364e59;stroke-width:0.264583;stroke-linecap:butt;stroke-linejoin:miter;stroke-miterlimit:4;stroke-dasharray:none;stroke-dashoffset:0;stroke-opacity:1;stop-color:#000000"
           id="rect3804"
           width="5.2916665"
           height="5.2916665"
           x="111.125"
           y="97.895836"
           ry="0.13229166" />
        <circle
           style="font-variation-settings:normal;vector-effect:none;fill:#5e99bd;fill-opacity:1;fill-rule:evenodd;stroke:#0e232e;stroke-width:0.264583;stroke-linecap:butt;stroke-linejoin:miter;stroke-miterlimit:4;stroke-dasharray:none;stroke-dashoffset:0;stroke-opacity:1;stop-color:#000000"
           id="circle3806"
           cx="113.77083"
           cy="100.54166"
           r="0.66145831" />
        <rect
           style="font-variation-settings:normal;vector-effect:none;fill:#d1efff;fill-opacity:1;fill-rule:evenodd;stroke:#364e59;stroke-width:0.264583;stroke-linecap:butt;stroke-linejoin:miter;stroke-miterlimit:4;stroke-dasharray:none;stroke-dashoffset:0;stroke-opacity:1;stop-color:#000000"
           id="rect3808"
           width="5.2916665"
           height="5.2916665"
           x="111.125"
           y="103.1875"
           ry="0.13229166" />
        <circle
           style="font-variation-settings:normal;vector-effect:none;fill:#5e99bd;fill-opacity:1;fill-rule:evenodd;stroke:#0e232e;stroke-width:0.264583;stroke-linecap:butt;stroke-linejoin:miter;stroke-miterlimit:4;stroke-dasharray:none;stroke-dashoffset:0;stroke-opacity:1;stop-color:#000000"
           id="circle3810"
           cx="113.77083"
           cy="105.83332"
           r="0.66145831" />
        <rect
           style="font-variation-settings:normal;vector-effect:none;fill:#d1efff;fill-opacity:1;fill-rule:evenodd;stroke:#364e59;stroke-width:0.264583;stroke-linecap:butt;stroke-linejoin:miter;stroke-miterlimit:4;stroke-dasharray:none;stroke-dashoffset:0;stroke-opacity:1;stop-color:#000000"
           id="rect3812"
           width="5.2916665"
           height="5.2916665"
           x="111.125"
           y="108.47916"
           ry="0.13229166" />
        <circle
           style="font-variation-settings:normal;vector-effect:none;fill:#5e99bd;fill-opacity:1;fill-rule:evenodd;stroke:#0e232e;stroke-width:0.264583;stroke-linecap:butt;stroke-linejoin:miter;stroke-miterlimit:4;stroke-dasharray:none;stroke-dashoffset:0;stroke-opacity:1;stop-color:#000000"
           id="circle3814"
           cx="113.77083"
           cy="111.12498"
           r="0.66145831" />
        <rect
           style="font-variation-settings:normal;vector-effect:none;fill:#d1efff;fill-opacity:1;fill-rule:evenodd;stroke:#364e59;stroke-width:0.264583;stroke-linecap:butt;stroke-linejoin:miter;stroke-miterlimit:4;stroke-dasharray:none;stroke-dashoffset:0;stroke-opacity:1;stop-color:#000000"
           id="rect3816"
           width="5.2916665"
           height="5.2916665"
           x="111.125"
           y="113.77082"
           ry="0.13229166" />
        <circle
           style="font-variation-settings:normal;vector-effect:none;fill:#5e99bd;fill-opacity:1;fill-rule:evenodd;stroke:#0e232e;stroke-width:0.264583;stroke-linecap:butt;stroke-linejoin:miter;stroke-miterlimit:4;stroke-dasharray:none;stroke-dashoffset:0;stroke-opacity:1;stop-color:#000000"
           id="circle3818"
           cx="113.77083"
           cy="116.41664"
           r="0.66145831" />
        <path
           style="fill:none;stroke:#000000;stroke-width:0.264583px;stroke-linecap:butt;stroke-linejoin:miter;stroke-opacity:1;marker-end:url(#TriangleOutM)"
           d="m 103.1875,100.54167 h 9.26042"
           id="path3822" />
        <path
           style="fill:none;stroke:#000000;stroke-width:0.264583px;stroke-linecap:butt;stroke-linejoin:miter;stroke-opacity:1;marker-end:url(#TriangleOutM)"
           d="m 103.1875,105.83334 8.99583,4.23333"
           id="path3826"
           sodipodi:nodetypes="cc" />
        <path
           style="fill:none;stroke:#000000;stroke-width:0.264583px;stroke-linecap:butt;stroke-linejoin:miter;stroke-opacity:1;marker-end:url(#TriangleOutM)"
           d="m 103.1875,111.12501 8.99583,4.23332"
           id="path3828"
           sodipodi:nodetypes="cc" />
        <circle
           style="font-variation-settings:normal;vector-effect:none;fill:#ac61c8;fill-opacity:1;fill-rule:evenodd;stroke:#2d2d2d;stroke-width:0.264583;stroke-linecap:butt;stroke-linejoin:miter;stroke-miterlimit:4;stroke-dasharray:none;stroke-dashoffset:0;stroke-opacity:1;stop-color:#000000"
           id="circle3832"
           cx="103.18748"
           cy="105.83332"
           r="0.66145831" />
        <circle
           style="font-variation-settings:normal;vector-effect:none;fill:#ac61c8;fill-opacity:1;fill-rule:evenodd;stroke:#2d2d2d;stroke-width:0.264583;stroke-linecap:butt;stroke-linejoin:miter;stroke-miterlimit:4;stroke-dasharray:none;stroke-dashoffset:0;stroke-opacity:1;stop-color:#000000"
           id="circle3834"
           cx="103.18748"
           cy="111.12499"
           r="0.66145831" />
        <path
           style="fill:none;stroke:#000000;stroke-width:0.264583px;stroke-linecap:butt;stroke-linejoin:miter;stroke-opacity:1;marker-end:url(#TriangleOutM)"
           d="m 103.1875,100.54167 9.26042,4.23333"
           id="path3951"
           sodipodi:nodetypes="cc" />
        <circle
           style="font-variation-settings:normal;vector-effect:none;fill:#ac61c8;fill-opacity:1;fill-rule:evenodd;stroke:#2d2d2d;stroke-width:0.264583;stroke-linecap:butt;stroke-linejoin:miter;stroke-miterlimit:4;stroke-dasharray:none;stroke-dashoffset:0;stroke-opacity:1;stop-color:#000000"
           id="circle3824"
           cx="103.18748"
           cy="100.54166"
           r="0.66145831" />
      </g>
      <g
         id="g7826">
        <rect
           style="font-variation-settings:normal;vector-effect:none;fill:#fff5da;fill-opacity:1;fill-rule:evenodd;stroke:#2d2d2d;stroke-width:0.264583;stroke-linecap:butt;stroke-linejoin:miter;stroke-miterlimit:4;stroke-dasharray:none;stroke-dashoffset:0;stroke-opacity:1;stop-color:#000000"
           id="rect4151"
           width="5.2916665"
           height="5.2916665"
           x="74.083336"
           y="129.64581"
           ry="0.13229166" />
        <rect
           style="font-variation-settings:normal;vector-effect:none;fill:#fff5da;fill-opacity:1;fill-rule:evenodd;stroke:#2d2d2d;stroke-width:0.264583;stroke-linecap:butt;stroke-linejoin:miter;stroke-miterlimit:4;stroke-dasharray:none;stroke-dashoffset:0;stroke-opacity:1;stop-color:#000000"
           id="rect4153"
           width="5.2916665"
           height="5.2916665"
           x="74.083336"
           y="134.93748"
           ry="0.13229166" />
        <rect
           style="font-variation-settings:normal;vector-effect:none;fill:#fff5da;fill-opacity:1;fill-rule:evenodd;stroke:#2d2d2d;stroke-width:0.264583;stroke-linecap:butt;stroke-linejoin:miter;stroke-miterlimit:4;stroke-dasharray:none;stroke-dashoffset:0;stroke-opacity:1;stop-color:#000000"
           id="rect4155"
           width="5.2916665"
           height="5.2916665"
           x="74.083336"
           y="140.22919"
           ry="0.13229166" />
        <rect
           style="font-variation-settings:normal;vector-effect:none;fill:#fff5da;fill-opacity:1;fill-rule:evenodd;stroke:#2d2d2d;stroke-width:0.264583;stroke-linecap:butt;stroke-linejoin:miter;stroke-miterlimit:4;stroke-dasharray:none;stroke-dashoffset:0;stroke-opacity:1;stop-color:#000000"
           id="rect4157"
           width="5.2916665"
           height="5.2916665"
           x="74.083336"
           y="145.52086"
           ry="0.13229166" />
        <rect
           style="font-variation-settings:normal;vector-effect:none;fill:#dfffc4;fill-opacity:1;fill-rule:evenodd;stroke:#364e59;stroke-width:0.264583;stroke-linecap:butt;stroke-linejoin:miter;stroke-miterlimit:4;stroke-dasharray:none;stroke-dashoffset:0;stroke-opacity:1;stop-color:#000000"
           id="rect4159"
           width="5.2916665"
           height="5.2916665"
           x="84.666664"
           y="129.64584"
           ry="0.13229166" />
        <circle
           style="font-variation-settings:normal;vector-effect:none;fill:#70a670;fill-opacity:1;fill-rule:evenodd;stroke:#0e232e;stroke-width:0.264583;stroke-linecap:butt;stroke-linejoin:miter;stroke-miterlimit:4;stroke-dasharray:none;stroke-dashoffset:0;stroke-opacity:1;stop-color:#000000"
           id="circle4161"
           cx="87.312492"
           cy="132.29166"
           r="0.66145831" />
        <rect
           style="font-variation-settings:normal;vector-effect:none;fill:#dfffc4;fill-opacity:1;fill-rule:evenodd;stroke:#364e59;stroke-width:0.264583;stroke-linecap:butt;stroke-linejoin:miter;stroke-miterlimit:4;stroke-dasharray:none;stroke-dashoffset:0;stroke-opacity:1;stop-color:#000000"
           id="rect4163"
           width="5.2916665"
           height="5.2916665"
           x="84.666664"
           y="134.9375"
           ry="0.13229166" />
        <circle
           style="font-variation-settings:normal;vector-effect:none;fill:#70a670;fill-opacity:1;fill-rule:evenodd;stroke:#0e232e;stroke-width:0.264583;stroke-linecap:butt;stroke-linejoin:miter;stroke-miterlimit:4;stroke-dasharray:none;stroke-dashoffset:0;stroke-opacity:1;stop-color:#000000"
           id="circle4165"
           cx="87.312492"
           cy="137.58333"
           r="0.66145831" />
        <rect
           style="font-variation-settings:normal;vector-effect:none;fill:#dfffc4;fill-opacity:1;fill-rule:evenodd;stroke:#364e59;stroke-width:0.264583;stroke-linecap:butt;stroke-linejoin:miter;stroke-miterlimit:4;stroke-dasharray:none;stroke-dashoffset:0;stroke-opacity:1;stop-color:#000000"
           id="rect4167"
           width="5.2916665"
           height="5.2916665"
           x="84.666664"
           y="140.22916"
           ry="0.13229166" />
        <circle
           style="font-variation-settings:normal;vector-effect:none;fill:#70a670;fill-opacity:1;fill-rule:evenodd;stroke:#0e232e;stroke-width:0.264583;stroke-linecap:butt;stroke-linejoin:miter;stroke-miterlimit:4;stroke-dasharray:none;stroke-dashoffset:0;stroke-opacity:1;stop-color:#000000"
           id="circle4169"
           cx="87.312492"
           cy="142.87498"
           r="0.66145831" />
        <path
           style="fill:none;stroke:#000000;stroke-width:0.264583px;stroke-linecap:butt;stroke-linejoin:miter;stroke-opacity:1;marker-end:url(#TriangleOutM)"
           d="m 76.729166,132.29169 h 9.260416"
           id="path4177" />
        <circle
           style="font-variation-settings:normal;vector-effect:none;fill:#ffc022;fill-opacity:1;fill-rule:evenodd;stroke:#2d2d2d;stroke-width:0.264583;stroke-linecap:butt;stroke-linejoin:miter;stroke-miterlimit:4;stroke-dasharray:none;stroke-dashoffset:0;stroke-opacity:1;stop-color:#000000"
           id="circle4179"
           cx="76.729164"
           cy="132.29164"
           r="0.66145831" />
        <path
           style="fill:none;stroke:#000000;stroke-width:0.264583px;stroke-linecap:butt;stroke-linejoin:miter;stroke-opacity:1;marker-end:url(#TriangleOutM)"
           d="m 76.729166,137.58336 h 9.260416"
           id="path4181" />
        <path
           style="fill:none;stroke:#000000;stroke-width:0.264583px;stroke-linecap:butt;stroke-linejoin:miter;stroke-opacity:1;marker-end:url(#TriangleOutM)"
           d="m 76.729166,142.87503 h 9.260416"
           id="path4183" />
        <path
           style="fill:none;stroke:#000000;stroke-width:0.264583px;stroke-linecap:butt;stroke-linejoin:miter;stroke-opacity:1;marker-end:url(#TriangleOutM)"
           d="m 76.729166,148.1667 9.260417,-4.23337"
           id="path4185"
           sodipodi:nodetypes="cc" />
        <circle
           style="font-variation-settings:normal;vector-effect:none;fill:#ffc022;fill-opacity:1;fill-rule:evenodd;stroke:#2d2d2d;stroke-width:0.264583;stroke-linecap:butt;stroke-linejoin:miter;stroke-miterlimit:4;stroke-dasharray:none;stroke-dashoffset:0;stroke-opacity:1;stop-color:#000000"
           id="circle4187"
           cx="76.729164"
           cy="137.58331"
           r="0.66145831" />
        <circle
           style="font-variation-settings:normal;vector-effect:none;fill:#ffc022;fill-opacity:1;fill-rule:evenodd;stroke:#2d2d2d;stroke-width:0.264583;stroke-linecap:butt;stroke-linejoin:miter;stroke-miterlimit:4;stroke-dasharray:none;stroke-dashoffset:0;stroke-opacity:1;stop-color:#000000"
           id="circle4189"
           cx="76.729164"
           cy="142.87498"
           r="0.66145831" />
        <circle
           style="font-variation-settings:normal;vector-effect:none;fill:#ffc022;fill-opacity:1;fill-rule:evenodd;stroke:#2d2d2d;stroke-width:0.264583;stroke-linecap:butt;stroke-linejoin:miter;stroke-miterlimit:4;stroke-dasharray:none;stroke-dashoffset:0;stroke-opacity:1;stop-color:#000000"
           id="circle4191"
           cx="76.729164"
           cy="148.16666"
           r="0.66145831" />
      </g>
      <g
         id="g7844">
        <rect
           style="font-variation-settings:normal;vector-effect:none;fill:#ffcdcd;fill-opacity:1;fill-rule:evenodd;stroke:#2d2d2d;stroke-width:0.264583;stroke-linecap:butt;stroke-linejoin:miter;stroke-miterlimit:4;stroke-dasharray:none;stroke-dashoffset:0;stroke-opacity:1;stop-color:#000000"
           id="rect4826"
           width="5.2916665"
           height="5.2916665"
           x="100.54166"
           y="129.64581"
           ry="0.13229166" />
        <rect
           style="font-variation-settings:normal;vector-effect:none;fill:#ffcdcd;fill-opacity:1;fill-rule:evenodd;stroke:#2d2d2d;stroke-width:0.264583;stroke-linecap:butt;stroke-linejoin:miter;stroke-miterlimit:4;stroke-dasharray:none;stroke-dashoffset:0;stroke-opacity:1;stop-color:#000000"
           id="rect4828"
           width="5.2916665"
           height="5.2916665"
           x="100.54166"
           y="134.93748"
           ry="0.13229166" />
        <rect
           style="font-variation-settings:normal;vector-effect:none;fill:#ffcdcd;fill-opacity:1;fill-rule:evenodd;stroke:#2d2d2d;stroke-width:0.264583;stroke-linecap:butt;stroke-linejoin:miter;stroke-miterlimit:4;stroke-dasharray:none;stroke-dashoffset:0;stroke-opacity:1;stop-color:#000000"
           id="rect4830"
           width="5.2916665"
           height="5.2916665"
           x="100.54166"
           y="140.22919"
           ry="0.13229166" />
        <rect
           style="font-variation-settings:normal;vector-effect:none;fill:#ffd99b;fill-opacity:1;fill-rule:evenodd;stroke:#364e59;stroke-width:0.264583;stroke-linecap:butt;stroke-linejoin:miter;stroke-miterlimit:4;stroke-dasharray:none;stroke-dashoffset:0;stroke-opacity:1;stop-color:#000000"
           id="rect4834"
           width="5.2916665"
           height="5.2916665"
           x="111.125"
           y="129.64584"
           ry="0.13229166" />
        <circle
           style="font-variation-settings:normal;vector-effect:none;fill:#ff9900;fill-opacity:1;fill-rule:evenodd;stroke:#0e232e;stroke-width:0.264583;stroke-linecap:butt;stroke-linejoin:miter;stroke-miterlimit:4;stroke-dasharray:none;stroke-dashoffset:0;stroke-opacity:1;stop-color:#000000"
           id="circle4836"
           cx="113.77083"
           cy="132.29166"
           r="0.66145831" />
        <rect
           style="font-variation-settings:normal;vector-effect:none;fill:#ffd99b;fill-opacity:1;fill-rule:evenodd;stroke:#364e59;stroke-width:0.264583;stroke-linecap:butt;stroke-linejoin:miter;stroke-miterlimit:4;stroke-dasharray:none;stroke-dashoffset:0;stroke-opacity:1;stop-color:#000000"
           id="rect4838"
           width="5.2916665"
           height="5.2916665"
           x="111.125"
           y="134.9375"
           ry="0.13229166" />
        <circle
           style="font-variation-settings:normal;vector-effect:none;fill:#ff9900;fill-opacity:1;fill-rule:evenodd;stroke:#0e232e;stroke-width:0.264583;stroke-linecap:butt;stroke-linejoin:miter;stroke-miterlimit:4;stroke-dasharray:none;stroke-dashoffset:0;stroke-opacity:1;stop-color:#000000"
           id="circle4840"
           cx="113.77083"
           cy="137.58333"
           r="0.66145831" />
        <rect
           style="font-variation-settings:normal;vector-effect:none;fill:#ffd99b;fill-opacity:1;fill-rule:evenodd;stroke:#364e59;stroke-width:0.264583;stroke-linecap:butt;stroke-linejoin:miter;stroke-miterlimit:4;stroke-dasharray:none;stroke-dashoffset:0;stroke-opacity:1;stop-color:#000000"
           id="rect4842"
           width="5.2916665"
           height="5.2916665"
           x="111.125"
           y="140.22916"
           ry="0.13229166" />
        <circle
           style="font-variation-settings:normal;vector-effect:none;fill:#ff9900;fill-opacity:1;fill-rule:evenodd;stroke:#0e232e;stroke-width:0.264583;stroke-linecap:butt;stroke-linejoin:miter;stroke-miterlimit:4;stroke-dasharray:none;stroke-dashoffset:0;stroke-opacity:1;stop-color:#000000"
           id="circle4844"
           cx="113.77083"
           cy="142.87498"
           r="0.66145831" />
        <path
           style="fill:none;stroke:#000000;stroke-width:0.264583px;stroke-linecap:butt;stroke-linejoin:miter;stroke-opacity:1;marker-end:url(#TriangleOutM)"
           d="m 103.1875,132.29169 h 9.26042"
           id="path4852" />
        <circle
           style="font-variation-settings:normal;vector-effect:none;fill:#ff6e6e;fill-opacity:1;fill-rule:evenodd;stroke:#2d2d2d;stroke-width:0.264583;stroke-linecap:butt;stroke-linejoin:miter;stroke-miterlimit:4;stroke-dasharray:none;stroke-dashoffset:0;stroke-opacity:1;stop-color:#000000"
           id="circle4854"
           cx="103.18748"
           cy="132.29164"
           r="0.66145831" />
        <path
           style="fill:none;stroke:#000000;stroke-width:0.264583px;stroke-linecap:butt;stroke-linejoin:miter;stroke-opacity:1;marker-end:url(#TriangleOutM)"
           d="M 103.1875,137.58336 112.44792,133.35"
           id="path4856"
           sodipodi:nodetypes="cc" />
        <path
           style="fill:none;stroke:#000000;stroke-width:0.264583px;stroke-linecap:butt;stroke-linejoin:miter;stroke-opacity:1;marker-end:url(#TriangleOutM)"
           d="m 103.1875,142.87503 h 9.26042"
           id="path4858" />
        <circle
           style="font-variation-settings:normal;vector-effect:none;fill:#ff6e6e;fill-opacity:1;fill-rule:evenodd;stroke:#2d2d2d;stroke-width:0.264583;stroke-linecap:butt;stroke-linejoin:miter;stroke-miterlimit:4;stroke-dasharray:none;stroke-dashoffset:0;stroke-opacity:1;stop-color:#000000"
           id="circle4862"
           cx="103.18748"
           cy="137.58331"
           r="0.66145831" />
        <path
           style="fill:none;stroke:#000000;stroke-width:0.264583px;stroke-linecap:butt;stroke-linejoin:miter;stroke-opacity:1;marker-end:url(#TriangleOutM)"
           d="m 103.1875,142.87503 9.26042,-4.49795"
           id="path5135"
           sodipodi:nodetypes="cc" />
        <circle
           style="font-variation-settings:normal;vector-effect:none;fill:#ff6e6e;fill-opacity:1;fill-rule:evenodd;stroke:#2d2d2d;stroke-width:0.264583;stroke-linecap:butt;stroke-linejoin:miter;stroke-miterlimit:4;stroke-dasharray:none;stroke-dashoffset:0;stroke-opacity:1;stop-color:#000000"
           id="circle4864"
           cx="103.18748"
           cy="142.87498"
           r="0.66145831" />
      </g>
      <g
         style="fill:#000000;fill-opacity:1"
         id="id-9f2992e6-18c8-466f-8dc3-b93f223fd98d"
         transform="matrix(0.32156646,0,0,0.32156646,25.79743,79.770831)">
        <g
           transform="translate(148.712,134.765)"
           id="g7216">
          <path
             style="stroke:none;stroke-width:0"
             d="m 4.65625,-2.15625 c 0,-1.25 -0.921875,-2.234375 -2.046875,-2.234375 -1.109375,0 -2.046875,0.984375 -2.046875,2.234375 0,1.265625 0.953125,2.21875 2.046875,2.21875 1.09375,0 2.046875,-0.953125 2.046875,-2.21875 z M 2.609375,-0.546875 C 1.875,-0.546875 1.25,-1.296875 1.25,-2.21875 c 0,-0.90625 0.65625,-1.5625 1.359375,-1.5625 0.71875,0 1.359375,0.65625 1.359375,1.5625 0,0.921875 -0.625,1.671875 -1.359375,1.671875 z m 0,0"
             id="id-4dd0f9c1-c5c2-48cf-a7cf-1146a41f93fc" />
        </g>
        <g
           transform="translate(153.942,134.765)"
           id="g7219">
          <path
             style="stroke:none;stroke-width:0"
             d="m 1.65625,-3.828125 c 0,-0.3125 0,-0.46875 -0.40625,-0.46875 H 0.53125 c -0.15625,0 -0.40625,0 -0.40625,0.3125 0,0.296875 0.25,0.296875 0.390625,0.296875 H 0.96875 v 3.078125 h -0.4375 c -0.15625,0 -0.40625,0 -0.40625,0.3125 C 0.125,0 0.375,0 0.515625,0 h 1.59375 C 2.25,0 2.5,0 2.5,-0.296875 c 0,-0.3125 -0.25,-0.3125 -0.40625,-0.3125 H 1.65625 V -2.375 c 0,-1 0.734375,-1.375 1.25,-1.375 0.515625,0 0.65625,0.28125 0.65625,0.875 v 2.265625 h -0.375 c -0.171875,0 -0.421875,0 -0.421875,0.3125 C 2.765625,0 3.046875,0 3.1875,0 h 1.515625 c 0.140625,0 0.40625,0 0.40625,-0.296875 0,-0.3125 -0.25,-0.3125 -0.421875,-0.3125 H 4.25 v -2.3125 c 0,-1 -0.5,-1.4375 -1.296875,-1.4375 -0.65625,0 -1.109375,0.34375 -1.296875,0.53125 z m 0,0"
             id="id-14777775-c867-44e1-a9bf-99c827121862" />
        </g>
        <g
           transform="translate(159.173,134.765)"
           id="g7222">
          <path
             style="stroke:none;stroke-width:0"
             d="m 4.234375,-1.90625 c 0.203125,0 0.390625,0 0.390625,-0.359375 0,-1.140625 -0.640625,-2.125 -1.9375,-2.125 -1.1875,0 -2.140625,1 -2.140625,2.234375 0,1.203125 1.015625,2.21875 2.296875,2.21875 1.3125,0 1.78125,-0.90625 1.78125,-1.15625 0,-0.265625 -0.28125,-0.265625 -0.34375,-0.265625 -0.1875,0 -0.265625,0.03125 -0.328125,0.21875 -0.21875,0.5 -0.765625,0.59375 -1.046875,0.59375 -0.75,0 -1.484375,-0.5 -1.65625,-1.359375 z M 1.265625,-2.5 C 1.40625,-3.234375 2,-3.78125 2.6875,-3.78125 c 0.515625,0 1.140625,0.25 1.234375,1.28125 z m 0,0"
             id="id-b8ff524d-a159-48b6-9ba2-d016627ff1fe" />
        </g>
        <g
           transform="translate(164.403,134.765)"
           id="g7225">
          <path
             style="stroke:none;stroke-width:0"
             d="m 4.203125,-2.703125 c 0.109375,0 0.46875,0 0.46875,-0.34375 0,-0.359375 -0.359375,-0.359375 -0.46875,-0.359375 H 1.03125 c -0.125,0 -0.46875,0 -0.46875,0.359375 0,0.34375 0.34375,0.34375 0.46875,0.34375 z m 0,0"
             id="id-ea0c4d6c-69fa-41b0-9053-9a8dc5e09f38" />
        </g>
        <g
           transform="translate(169.633,134.765)"
           id="g7228">
          <path
             style="stroke:none;stroke-width:0"
             d="m 2.21875,-3.6875 h 1.625 c 0.15625,0 0.40625,0 0.40625,-0.296875 0,-0.3125 -0.25,-0.3125 -0.40625,-0.3125 h -1.625 v -0.8125 c 0,-0.1875 0,-0.40625 -0.34375,-0.40625 -0.34375,0 -0.34375,0.203125 -0.34375,0.40625 v 0.8125 h -0.875 c -0.15625,0 -0.40625,0 -0.40625,0.3125 0,0.296875 0.25,0.296875 0.390625,0.296875 H 1.53125 V -1.25 c 0,0.953125 0.671875,1.3125 1.40625,1.3125 0.734375,0 1.53125,-0.4375 1.53125,-1.3125 0,-0.1875 0,-0.390625 -0.34375,-0.390625 -0.328125,0 -0.34375,0.203125 -0.34375,0.375 0,0.625 -0.578125,0.71875 -0.796875,0.71875 -0.765625,0 -0.765625,-0.515625 -0.765625,-0.765625 z m 0,0"
             id="id-b2a02834-e4ea-4a8a-9ab8-f8afa5868e8f" />
        </g>
        <g
           transform="translate(174.864,134.765)"
           id="g7231">
          <path
             style="stroke:none;stroke-width:0"
             d="m 4.65625,-2.15625 c 0,-1.25 -0.921875,-2.234375 -2.046875,-2.234375 -1.109375,0 -2.046875,0.984375 -2.046875,2.234375 0,1.265625 0.953125,2.21875 2.046875,2.21875 1.09375,0 2.046875,-0.953125 2.046875,-2.21875 z M 2.609375,-0.546875 C 1.875,-0.546875 1.25,-1.296875 1.25,-2.21875 c 0,-0.90625 0.65625,-1.5625 1.359375,-1.5625 0.71875,0 1.359375,0.65625 1.359375,1.5625 0,0.921875 -0.625,1.671875 -1.359375,1.671875 z m 0,0"
             id="id-ffb1bb92-371c-4884-be97-e388dec868e7" />
        </g>
        <g
           transform="translate(180.094,134.765)"
           id="g7234">
          <path
             style="stroke:none;stroke-width:0"
             d="m 4.203125,-2.703125 c 0.109375,0 0.46875,0 0.46875,-0.34375 0,-0.359375 -0.359375,-0.359375 -0.46875,-0.359375 H 1.03125 c -0.125,0 -0.46875,0 -0.46875,0.359375 0,0.34375 0.34375,0.34375 0.46875,0.34375 z m 0,0"
             id="id-1e3fa902-635a-4943-9a03-0fe9efa96bcb" />
        </g>
        <g
           transform="translate(185.325,134.765)"
           id="g7237">
          <path
             style="stroke:none;stroke-width:0"
             d="m 4.65625,-2.15625 c 0,-1.25 -0.921875,-2.234375 -2.046875,-2.234375 -1.109375,0 -2.046875,0.984375 -2.046875,2.234375 0,1.265625 0.953125,2.21875 2.046875,2.21875 1.09375,0 2.046875,-0.953125 2.046875,-2.21875 z M 2.609375,-0.546875 C 1.875,-0.546875 1.25,-1.296875 1.25,-2.21875 c 0,-0.90625 0.65625,-1.5625 1.359375,-1.5625 0.71875,0 1.359375,0.65625 1.359375,1.5625 0,0.921875 -0.625,1.671875 -1.359375,1.671875 z m 0,0"
             id="id-3351998e-acde-4a7d-8fca-63ca643ade41" />
        </g>
        <g
           transform="translate(190.555,134.765)"
           id="g7240">
          <path
             style="stroke:none;stroke-width:0"
             d="m 1.65625,-3.828125 c 0,-0.3125 0,-0.46875 -0.40625,-0.46875 H 0.53125 c -0.15625,0 -0.40625,0 -0.40625,0.3125 0,0.296875 0.25,0.296875 0.390625,0.296875 H 0.96875 v 3.078125 h -0.4375 c -0.15625,0 -0.40625,0 -0.40625,0.3125 C 0.125,0 0.375,0 0.515625,0 h 1.59375 C 2.25,0 2.5,0 2.5,-0.296875 c 0,-0.3125 -0.25,-0.3125 -0.40625,-0.3125 H 1.65625 V -2.375 c 0,-1 0.734375,-1.375 1.25,-1.375 0.515625,0 0.65625,0.28125 0.65625,0.875 v 2.265625 h -0.375 c -0.171875,0 -0.421875,0 -0.421875,0.3125 C 2.765625,0 3.046875,0 3.1875,0 h 1.515625 c 0.140625,0 0.40625,0 0.40625,-0.296875 0,-0.3125 -0.25,-0.3125 -0.421875,-0.3125 H 4.25 v -2.3125 c 0,-1 -0.5,-1.4375 -1.296875,-1.4375 -0.65625,0 -1.109375,0.34375 -1.296875,0.53125 z m 0,0"
             id="id-aa873655-e115-4a10-b98b-9c90a501f519" />
        </g>
        <g
           transform="translate(195.785,134.765)"
           id="g7243">
          <path
             style="stroke:none;stroke-width:0"
             d="m 4.234375,-1.90625 c 0.203125,0 0.390625,0 0.390625,-0.359375 0,-1.140625 -0.640625,-2.125 -1.9375,-2.125 -1.1875,0 -2.140625,1 -2.140625,2.234375 0,1.203125 1.015625,2.21875 2.296875,2.21875 1.3125,0 1.78125,-0.90625 1.78125,-1.15625 0,-0.265625 -0.28125,-0.265625 -0.34375,-0.265625 -0.1875,0 -0.265625,0.03125 -0.328125,0.21875 -0.21875,0.5 -0.765625,0.59375 -1.046875,0.59375 -0.75,0 -1.484375,-0.5 -1.65625,-1.359375 z M 1.265625,-2.5 C 1.40625,-3.234375 2,-3.78125 2.6875,-3.78125 c 0.515625,0 1.140625,0.25 1.234375,1.28125 z m 0,0"
             id="id-210aa7ca-a6a0-4163-8270-64a177dfc546" />
        </g>
      </g>
      <g
         style="fill:#000000;fill-opacity:1"
         id="id-b4c0ab63-7142-48fe-8440-10b77d45ac71"
         transform="matrix(0.32156646,0,0,0.32156646,32.855915,79.416605)">
        <g
           transform="translate(206.246,134.765)"
           id="g7247">
          <path
             style="stroke:none;stroke-width:0"
             d="m 4.65625,-2.15625 c 0,-1.25 -0.921875,-2.234375 -2.046875,-2.234375 -1.109375,0 -2.046875,0.984375 -2.046875,2.234375 0,1.265625 0.953125,2.21875 2.046875,2.21875 1.09375,0 2.046875,-0.953125 2.046875,-2.21875 z M 2.609375,-0.546875 C 1.875,-0.546875 1.25,-1.296875 1.25,-2.21875 c 0,-0.90625 0.65625,-1.5625 1.359375,-1.5625 0.71875,0 1.359375,0.65625 1.359375,1.5625 0,0.921875 -0.625,1.671875 -1.359375,1.671875 z m 0,0"
             id="id-920a076c-29aa-4677-95cd-b2203de69816" />
        </g>
        <g
           transform="translate(211.476,134.765)"
           id="g7250">
          <path
             style="stroke:none;stroke-width:0"
             d="m 1.65625,-3.828125 c 0,-0.3125 0,-0.46875 -0.40625,-0.46875 H 0.53125 c -0.15625,0 -0.40625,0 -0.40625,0.3125 0,0.296875 0.25,0.296875 0.390625,0.296875 H 0.96875 v 3.078125 h -0.4375 c -0.15625,0 -0.40625,0 -0.40625,0.3125 C 0.125,0 0.375,0 0.515625,0 h 1.59375 C 2.25,0 2.5,0 2.5,-0.296875 c 0,-0.3125 -0.25,-0.3125 -0.40625,-0.3125 H 1.65625 V -2.375 c 0,-1 0.734375,-1.375 1.25,-1.375 0.515625,0 0.65625,0.28125 0.65625,0.875 v 2.265625 h -0.375 c -0.171875,0 -0.421875,0 -0.421875,0.3125 C 2.765625,0 3.046875,0 3.1875,0 h 1.515625 c 0.140625,0 0.40625,0 0.40625,-0.296875 0,-0.3125 -0.25,-0.3125 -0.421875,-0.3125 H 4.25 v -2.3125 c 0,-1 -0.5,-1.4375 -1.296875,-1.4375 -0.65625,0 -1.109375,0.34375 -1.296875,0.53125 z m 0,0"
             id="id-7362f906-6230-43bf-a272-736d99c0ebf1" />
        </g>
        <g
           transform="translate(216.707,134.765)"
           id="g7253">
          <path
             style="stroke:none;stroke-width:0"
             d="m 4.234375,-1.90625 c 0.203125,0 0.390625,0 0.390625,-0.359375 0,-1.140625 -0.640625,-2.125 -1.9375,-2.125 -1.1875,0 -2.140625,1 -2.140625,2.234375 0,1.203125 1.015625,2.21875 2.296875,2.21875 1.3125,0 1.78125,-0.90625 1.78125,-1.15625 0,-0.265625 -0.28125,-0.265625 -0.34375,-0.265625 -0.1875,0 -0.265625,0.03125 -0.328125,0.21875 -0.21875,0.5 -0.765625,0.59375 -1.046875,0.59375 -0.75,0 -1.484375,-0.5 -1.65625,-1.359375 z M 1.265625,-2.5 C 1.40625,-3.234375 2,-3.78125 2.6875,-3.78125 c 0.515625,0 1.140625,0.25 1.234375,1.28125 z m 0,0"
             id="id-47ec6a89-0342-4bbb-bd81-a57c742e4e4d" />
        </g>
        <g
           transform="translate(221.937,134.765)"
           id="g7256">
          <path
             style="stroke:none;stroke-width:0"
             d="m 4.203125,-2.703125 c 0.109375,0 0.46875,0 0.46875,-0.34375 0,-0.359375 -0.359375,-0.359375 -0.46875,-0.359375 H 1.03125 c -0.125,0 -0.46875,0 -0.46875,0.359375 0,0.34375 0.34375,0.34375 0.46875,0.34375 z m 0,0"
             id="id-d3ce8e8c-5428-4fc0-a881-df11f8bc5c01" />
        </g>
        <g
           transform="translate(227.167,134.765)"
           id="g7259">
          <path
             style="stroke:none;stroke-width:0"
             d="m 2.21875,-3.6875 h 1.625 c 0.15625,0 0.40625,0 0.40625,-0.296875 0,-0.3125 -0.25,-0.3125 -0.40625,-0.3125 h -1.625 v -0.8125 c 0,-0.1875 0,-0.40625 -0.34375,-0.40625 -0.34375,0 -0.34375,0.203125 -0.34375,0.40625 v 0.8125 h -0.875 c -0.15625,0 -0.40625,0 -0.40625,0.3125 0,0.296875 0.25,0.296875 0.390625,0.296875 H 1.53125 V -1.25 c 0,0.953125 0.671875,1.3125 1.40625,1.3125 0.734375,0 1.53125,-0.4375 1.53125,-1.3125 0,-0.1875 0,-0.390625 -0.34375,-0.390625 -0.328125,0 -0.34375,0.203125 -0.34375,0.375 0,0.625 -0.578125,0.71875 -0.796875,0.71875 -0.765625,0 -0.765625,-0.515625 -0.765625,-0.765625 z m 0,0"
             id="id-749457f1-a6f4-49e2-9b81-cf5e87547960" />
        </g>
        <g
           transform="translate(232.398,134.765)"
           id="g7262">
          <path
             style="stroke:none;stroke-width:0"
             d="m 4.65625,-2.15625 c 0,-1.25 -0.921875,-2.234375 -2.046875,-2.234375 -1.109375,0 -2.046875,0.984375 -2.046875,2.234375 0,1.265625 0.953125,2.21875 2.046875,2.21875 1.09375,0 2.046875,-0.953125 2.046875,-2.21875 z M 2.609375,-0.546875 C 1.875,-0.546875 1.25,-1.296875 1.25,-2.21875 c 0,-0.90625 0.65625,-1.5625 1.359375,-1.5625 0.71875,0 1.359375,0.65625 1.359375,1.5625 0,0.921875 -0.625,1.671875 -1.359375,1.671875 z m 0,0"
             id="id-9f5aadfd-2ea0-478f-ba49-a5af3841f452" />
        </g>
        <g
           transform="translate(237.628,134.765)"
           id="g7265">
          <path
             style="stroke:none;stroke-width:0"
             d="m 4.203125,-2.703125 c 0.109375,0 0.46875,0 0.46875,-0.34375 0,-0.359375 -0.359375,-0.359375 -0.46875,-0.359375 H 1.03125 c -0.125,0 -0.46875,0 -0.46875,0.359375 0,0.34375 0.34375,0.34375 0.46875,0.34375 z m 0,0"
             id="id-47027dfc-fa72-49b7-abfe-5b5fbb67509d" />
        </g>
        <g
           transform="translate(242.859,134.765)"
           id="g7268">
          <path
             style="stroke:none;stroke-width:0"
             d="M 1.09375,-4 C 1.0625,-4.296875 0.875,-4.296875 0.6875,-4.296875 H 0.375 c -0.15625,0 -0.421875,0 -0.421875,0.296875 0,0.3125 0.21875,0.3125 0.578125,0.3125 v 3.078125 c -0.359375,0 -0.578125,0 -0.578125,0.3125 C -0.046875,0 0.234375,0 0.375,0 H 1.25 c 0.140625,0 0.40625,0 0.40625,-0.296875 0,-0.3125 -0.203125,-0.3125 -0.5625,-0.3125 v -1.78125 C 1.09375,-3.28125 1.5,-3.75 1.90625,-3.75 c 0.234375,0 0.359375,0.171875 0.359375,0.8125 v 2.328125 c -0.1875,0 -0.4375,0 -0.4375,0.3125 C 1.828125,0 2.109375,0 2.25,0 h 0.734375 c 0.15625,0 0.421875,0 0.421875,-0.296875 0,-0.3125 -0.21875,-0.3125 -0.578125,-0.3125 v -1.78125 c 0,-0.890625 0.40625,-1.359375 0.828125,-1.359375 0.21875,0 0.359375,0.171875 0.359375,0.8125 v 2.328125 c -0.1875,0 -0.4375,0 -0.4375,0.3125 C 3.578125,0 3.84375,0 3.984375,0 h 0.75 c 0.15625,0 0.40625,0 0.40625,-0.296875 0,-0.3125 -0.203125,-0.3125 -0.5625,-0.3125 v -2.40625 c 0,-0.203125 0,-1.34375 -0.890625,-1.34375 -0.296875,0 -0.703125,0.125 -0.984375,0.515625 C 2.546875,-4.171875 2.265625,-4.359375 1.9375,-4.359375 1.625,-4.359375 1.328125,-4.21875 1.09375,-4 Z m 0,0"
             id="id-ec6c9ea5-f00f-4075-a5a7-840d728a508d" />
        </g>
        <g
           transform="translate(248.089,134.765)"
           id="g7271">
          <path
             style="stroke:none;stroke-width:0"
             d="M 3.65625,-0.3125 C 3.875,-0.015625 4.34375,0 4.71875,0 c 0.28125,0 0.5,0 0.5,-0.3125 0,-0.296875 -0.25,-0.296875 -0.390625,-0.296875 -0.421875,0 -0.515625,-0.046875 -0.59375,-0.078125 v -2.15625 c 0,-0.703125 -0.546875,-1.546875 -1.984375,-1.546875 -0.421875,0 -1.4375,0 -1.4375,0.734375 0,0.296875 0.203125,0.453125 0.4375,0.453125 0.15625,0 0.4375,-0.09375 0.4375,-0.453125 0,-0.078125 0.015625,-0.09375 0.21875,-0.109375 0.140625,-0.015625 0.265625,-0.015625 0.359375,-0.015625 0.75,0 1.265625,0.3125 1.265625,1.015625 -1.75,0.03125 -2.984375,0.53125 -2.984375,1.484375 0,0.6875 0.625,1.34375 1.640625,1.34375 0.375,0 1,-0.078125 1.46875,-0.375 z m -0.125,-1.859375 v 0.84375 c 0,0.21875 0,0.4375 -0.375,0.609375 -0.359375,0.171875 -0.8125,0.171875 -0.890625,0.171875 -0.625,0 -1.03125,-0.34375 -1.03125,-0.734375 0,-0.484375 0.859375,-0.859375 2.296875,-0.890625 z m 0,0"
             id="id-f2918dbc-8204-43aa-b58e-cc76ee734976" />
        </g>
        <g
           transform="translate(253.319,134.765)"
           id="g7274">
          <path
             style="stroke:none;stroke-width:0"
             d="m 1.65625,-3.828125 c 0,-0.3125 0,-0.46875 -0.40625,-0.46875 H 0.53125 c -0.15625,0 -0.40625,0 -0.40625,0.3125 0,0.296875 0.25,0.296875 0.390625,0.296875 H 0.96875 v 3.078125 h -0.4375 c -0.15625,0 -0.40625,0 -0.40625,0.3125 C 0.125,0 0.375,0 0.515625,0 h 1.59375 C 2.25,0 2.5,0 2.5,-0.296875 c 0,-0.3125 -0.25,-0.3125 -0.40625,-0.3125 H 1.65625 V -2.375 c 0,-1 0.734375,-1.375 1.25,-1.375 0.515625,0 0.65625,0.28125 0.65625,0.875 v 2.265625 h -0.375 c -0.171875,0 -0.421875,0 -0.421875,0.3125 C 2.765625,0 3.046875,0 3.1875,0 h 1.515625 c 0.140625,0 0.40625,0 0.40625,-0.296875 0,-0.3125 -0.25,-0.3125 -0.421875,-0.3125 H 4.25 v -2.3125 c 0,-1 -0.5,-1.4375 -1.296875,-1.4375 -0.65625,0 -1.109375,0.34375 -1.296875,0.53125 z m 0,0"
             id="id-e93dc177-3b07-456a-a43b-627e9ee2256f" />
        </g>
        <g
           transform="translate(258.55,134.765)"
           id="g7277">
          <path
             style="stroke:none;stroke-width:0"
             d="m 4.28125,-3.6875 h 0.296875 c 0.15625,0 0.40625,0 0.40625,-0.296875 0,-0.3125 -0.234375,-0.3125 -0.40625,-0.3125 h -1.15625 c -0.15625,0 -0.40625,0 -0.40625,0.296875 0,0.3125 0.25,0.3125 0.40625,0.3125 h 0.28125 l -0.71875,2.125 C 2.84375,-1.203125 2.796875,-1.015625 2.71875,-0.703125 2.65625,-0.890625 2.578125,-1.109375 2.5,-1.296875 L 1.578125,-3.6875 h 0.25 c 0.140625,0 0.390625,0 0.390625,-0.296875 0,-0.3125 -0.234375,-0.3125 -0.390625,-0.3125 H 0.65625 c -0.15625,0 -0.390625,0 -0.390625,0.3125 0,0.296875 0.25,0.296875 0.390625,0.296875 h 0.3125 L 2.375,-0.125 c 0.046875,0.09375 0.046875,0.109375 0.046875,0.125 0,0.015625 -0.25,0.84375 -0.375,1.09375 C 1.75,1.640625 1.390625,1.65625 1.25,1.671875 c 0,-0.015625 0.046875,-0.09375 0.046875,-0.21875 0,-0.25 -0.1875,-0.4375 -0.421875,-0.4375 -0.28125,0 -0.453125,0.1875 -0.453125,0.4375 0,0.421875 0.34375,0.8125 0.828125,0.8125 1,0 1.453125,-1.3125 1.484375,-1.421875 z m 0,0"
             id="id-b1f5c31b-4678-46ad-8672-218297ee8909" />
        </g>
      </g>
      <g
         style="fill:#000000;fill-opacity:1"
         id="id-470828ad-91c5-4c15-8911-8bf06f621d50"
         transform="matrix(0.32156646,0,0,0.32156646,-13.629452,111.17232)">
        <g
           transform="translate(269.01,134.765)"
           id="g7281">
          <path
             style="stroke:none;stroke-width:0"
             d="M 1.09375,-4 C 1.0625,-4.296875 0.875,-4.296875 0.6875,-4.296875 H 0.375 c -0.15625,0 -0.421875,0 -0.421875,0.296875 0,0.3125 0.21875,0.3125 0.578125,0.3125 v 3.078125 c -0.359375,0 -0.578125,0 -0.578125,0.3125 C -0.046875,0 0.234375,0 0.375,0 H 1.25 c 0.140625,0 0.40625,0 0.40625,-0.296875 0,-0.3125 -0.203125,-0.3125 -0.5625,-0.3125 v -1.78125 C 1.09375,-3.28125 1.5,-3.75 1.90625,-3.75 c 0.234375,0 0.359375,0.171875 0.359375,0.8125 v 2.328125 c -0.1875,0 -0.4375,0 -0.4375,0.3125 C 1.828125,0 2.109375,0 2.25,0 h 0.734375 c 0.15625,0 0.421875,0 0.421875,-0.296875 0,-0.3125 -0.21875,-0.3125 -0.578125,-0.3125 v -1.78125 c 0,-0.890625 0.40625,-1.359375 0.828125,-1.359375 0.21875,0 0.359375,0.171875 0.359375,0.8125 v 2.328125 c -0.1875,0 -0.4375,0 -0.4375,0.3125 C 3.578125,0 3.84375,0 3.984375,0 h 0.75 c 0.15625,0 0.40625,0 0.40625,-0.296875 0,-0.3125 -0.203125,-0.3125 -0.5625,-0.3125 v -2.40625 c 0,-0.203125 0,-1.34375 -0.890625,-1.34375 -0.296875,0 -0.703125,0.125 -0.984375,0.515625 C 2.546875,-4.171875 2.265625,-4.359375 1.9375,-4.359375 1.625,-4.359375 1.328125,-4.21875 1.09375,-4 Z m 0,0"
             id="id-99bcc0c8-1c67-4bf6-9798-1861c0019a14" />
        </g>
        <g
           transform="translate(274.241,134.765)"
           id="g7284">
          <path
             style="stroke:none;stroke-width:0"
             d="M 3.65625,-0.3125 C 3.875,-0.015625 4.34375,0 4.71875,0 c 0.28125,0 0.5,0 0.5,-0.3125 0,-0.296875 -0.25,-0.296875 -0.390625,-0.296875 -0.421875,0 -0.515625,-0.046875 -0.59375,-0.078125 v -2.15625 c 0,-0.703125 -0.546875,-1.546875 -1.984375,-1.546875 -0.421875,0 -1.4375,0 -1.4375,0.734375 0,0.296875 0.203125,0.453125 0.4375,0.453125 0.15625,0 0.4375,-0.09375 0.4375,-0.453125 0,-0.078125 0.015625,-0.09375 0.21875,-0.109375 0.140625,-0.015625 0.265625,-0.015625 0.359375,-0.015625 0.75,0 1.265625,0.3125 1.265625,1.015625 -1.75,0.03125 -2.984375,0.53125 -2.984375,1.484375 0,0.6875 0.625,1.34375 1.640625,1.34375 0.375,0 1,-0.078125 1.46875,-0.375 z m -0.125,-1.859375 v 0.84375 c 0,0.21875 0,0.4375 -0.375,0.609375 -0.359375,0.171875 -0.8125,0.171875 -0.890625,0.171875 -0.625,0 -1.03125,-0.34375 -1.03125,-0.734375 0,-0.484375 0.859375,-0.859375 2.296875,-0.890625 z m 0,0"
             id="id-ec1bb271-f29b-4358-8f8b-edfcc7bff5b4" />
        </g>
        <g
           transform="translate(279.471,134.765)"
           id="g7287">
          <path
             style="stroke:none;stroke-width:0"
             d="m 1.65625,-3.828125 c 0,-0.3125 0,-0.46875 -0.40625,-0.46875 H 0.53125 c -0.15625,0 -0.40625,0 -0.40625,0.3125 0,0.296875 0.25,0.296875 0.390625,0.296875 H 0.96875 v 3.078125 h -0.4375 c -0.15625,0 -0.40625,0 -0.40625,0.3125 C 0.125,0 0.375,0 0.515625,0 h 1.59375 C 2.25,0 2.5,0 2.5,-0.296875 c 0,-0.3125 -0.25,-0.3125 -0.40625,-0.3125 H 1.65625 V -2.375 c 0,-1 0.734375,-1.375 1.25,-1.375 0.515625,0 0.65625,0.28125 0.65625,0.875 v 2.265625 h -0.375 c -0.171875,0 -0.421875,0 -0.421875,0.3125 C 2.765625,0 3.046875,0 3.1875,0 h 1.515625 c 0.140625,0 0.40625,0 0.40625,-0.296875 0,-0.3125 -0.25,-0.3125 -0.421875,-0.3125 H 4.25 v -2.3125 c 0,-1 -0.5,-1.4375 -1.296875,-1.4375 -0.65625,0 -1.109375,0.34375 -1.296875,0.53125 z m 0,0"
             id="id-cf3679b7-8fa7-4992-b8f1-5115a1503009" />
        </g>
        <g
           transform="translate(284.701,134.765)"
           id="g7290">
          <path
             style="stroke:none;stroke-width:0"
             d="m 4.28125,-3.6875 h 0.296875 c 0.15625,0 0.40625,0 0.40625,-0.296875 0,-0.3125 -0.234375,-0.3125 -0.40625,-0.3125 h -1.15625 c -0.15625,0 -0.40625,0 -0.40625,0.296875 0,0.3125 0.25,0.3125 0.40625,0.3125 h 0.28125 l -0.71875,2.125 C 2.84375,-1.203125 2.796875,-1.015625 2.71875,-0.703125 2.65625,-0.890625 2.578125,-1.109375 2.5,-1.296875 L 1.578125,-3.6875 h 0.25 c 0.140625,0 0.390625,0 0.390625,-0.296875 0,-0.3125 -0.234375,-0.3125 -0.390625,-0.3125 H 0.65625 c -0.15625,0 -0.390625,0 -0.390625,0.3125 0,0.296875 0.25,0.296875 0.390625,0.296875 h 0.3125 L 2.375,-0.125 c 0.046875,0.09375 0.046875,0.109375 0.046875,0.125 0,0.015625 -0.25,0.84375 -0.375,1.09375 C 1.75,1.640625 1.390625,1.65625 1.25,1.671875 c 0,-0.015625 0.046875,-0.09375 0.046875,-0.21875 0,-0.25 -0.1875,-0.4375 -0.421875,-0.4375 -0.28125,0 -0.453125,0.1875 -0.453125,0.4375 0,0.421875 0.34375,0.8125 0.828125,0.8125 1,0 1.453125,-1.3125 1.484375,-1.421875 z m 0,0"
             id="id-3e6a8950-d304-4c1c-a074-4098761a7b08" />
        </g>
        <g
           transform="translate(289.932,134.765)"
           id="g7293">
          <path
             style="stroke:none;stroke-width:0"
             d="m 4.203125,-2.703125 c 0.109375,0 0.46875,0 0.46875,-0.34375 0,-0.359375 -0.359375,-0.359375 -0.46875,-0.359375 H 1.03125 c -0.125,0 -0.46875,0 -0.46875,0.359375 0,0.34375 0.34375,0.34375 0.46875,0.34375 z m 0,0"
             id="id-bc3ae824-b4d6-4fab-b270-972be7b3d1a6" />
        </g>
        <g
           transform="translate(295.162,134.765)"
           id="g7296">
          <path
             style="stroke:none;stroke-width:0"
             d="m 2.21875,-3.6875 h 1.625 c 0.15625,0 0.40625,0 0.40625,-0.296875 0,-0.3125 -0.25,-0.3125 -0.40625,-0.3125 h -1.625 v -0.8125 c 0,-0.1875 0,-0.40625 -0.34375,-0.40625 -0.34375,0 -0.34375,0.203125 -0.34375,0.40625 v 0.8125 h -0.875 c -0.15625,0 -0.40625,0 -0.40625,0.3125 0,0.296875 0.25,0.296875 0.390625,0.296875 H 1.53125 V -1.25 c 0,0.953125 0.671875,1.3125 1.40625,1.3125 0.734375,0 1.53125,-0.4375 1.53125,-1.3125 0,-0.1875 0,-0.390625 -0.34375,-0.390625 -0.328125,0 -0.34375,0.203125 -0.34375,0.375 0,0.625 -0.578125,0.71875 -0.796875,0.71875 -0.765625,0 -0.765625,-0.515625 -0.765625,-0.765625 z m 0,0"
             id="id-cd9b8a68-7e62-4ee2-a648-c42ab0b8b511" />
        </g>
        <g
           transform="translate(300.393,134.765)"
           id="g7299">
          <path
             style="stroke:none;stroke-width:0"
             d="m 4.65625,-2.15625 c 0,-1.25 -0.921875,-2.234375 -2.046875,-2.234375 -1.109375,0 -2.046875,0.984375 -2.046875,2.234375 0,1.265625 0.953125,2.21875 2.046875,2.21875 1.09375,0 2.046875,-0.953125 2.046875,-2.21875 z M 2.609375,-0.546875 C 1.875,-0.546875 1.25,-1.296875 1.25,-2.21875 c 0,-0.90625 0.65625,-1.5625 1.359375,-1.5625 0.71875,0 1.359375,0.65625 1.359375,1.5625 0,0.921875 -0.625,1.671875 -1.359375,1.671875 z m 0,0"
             id="id-07fae9d9-d55a-4a19-9377-f71e80b66302" />
        </g>
        <g
           transform="translate(305.623,134.765)"
           id="g7302">
          <path
             style="stroke:none;stroke-width:0"
             d="m 4.203125,-2.703125 c 0.109375,0 0.46875,0 0.46875,-0.34375 0,-0.359375 -0.359375,-0.359375 -0.46875,-0.359375 H 1.03125 c -0.125,0 -0.46875,0 -0.46875,0.359375 0,0.34375 0.34375,0.34375 0.46875,0.34375 z m 0,0"
             id="id-e34d6ef7-7d43-4301-bd10-193a02636802" />
        </g>
        <g
           transform="translate(310.853,134.765)"
           id="g7305">
          <path
             style="stroke:none;stroke-width:0"
             d="m 4.65625,-2.15625 c 0,-1.25 -0.921875,-2.234375 -2.046875,-2.234375 -1.109375,0 -2.046875,0.984375 -2.046875,2.234375 0,1.265625 0.953125,2.21875 2.046875,2.21875 1.09375,0 2.046875,-0.953125 2.046875,-2.21875 z M 2.609375,-0.546875 C 1.875,-0.546875 1.25,-1.296875 1.25,-2.21875 c 0,-0.90625 0.65625,-1.5625 1.359375,-1.5625 0.71875,0 1.359375,0.65625 1.359375,1.5625 0,0.921875 -0.625,1.671875 -1.359375,1.671875 z m 0,0"
             id="id-c53ab344-267f-408f-b0de-5d6841502be9" />
        </g>
        <g
           transform="translate(316.084,134.765)"
           id="g7308">
          <path
             style="stroke:none;stroke-width:0"
             d="m 1.65625,-3.828125 c 0,-0.3125 0,-0.46875 -0.40625,-0.46875 H 0.53125 c -0.15625,0 -0.40625,0 -0.40625,0.3125 0,0.296875 0.25,0.296875 0.390625,0.296875 H 0.96875 v 3.078125 h -0.4375 c -0.15625,0 -0.40625,0 -0.40625,0.3125 C 0.125,0 0.375,0 0.515625,0 h 1.59375 C 2.25,0 2.5,0 2.5,-0.296875 c 0,-0.3125 -0.25,-0.3125 -0.40625,-0.3125 H 1.65625 V -2.375 c 0,-1 0.734375,-1.375 1.25,-1.375 0.515625,0 0.65625,0.28125 0.65625,0.875 v 2.265625 h -0.375 c -0.171875,0 -0.421875,0 -0.421875,0.3125 C 2.765625,0 3.046875,0 3.1875,0 h 1.515625 c 0.140625,0 0.40625,0 0.40625,-0.296875 0,-0.3125 -0.25,-0.3125 -0.421875,-0.3125 H 4.25 v -2.3125 c 0,-1 -0.5,-1.4375 -1.296875,-1.4375 -0.65625,0 -1.109375,0.34375 -1.296875,0.53125 z m 0,0"
             id="id-3d4357cc-de90-451c-bfaa-8a5688babc09" />
        </g>
        <g
           transform="translate(321.314,134.765)"
           id="g7311">
          <path
             style="stroke:none;stroke-width:0"
             d="m 4.234375,-1.90625 c 0.203125,0 0.390625,0 0.390625,-0.359375 0,-1.140625 -0.640625,-2.125 -1.9375,-2.125 -1.1875,0 -2.140625,1 -2.140625,2.234375 0,1.203125 1.015625,2.21875 2.296875,2.21875 1.3125,0 1.78125,-0.90625 1.78125,-1.15625 0,-0.265625 -0.28125,-0.265625 -0.34375,-0.265625 -0.1875,0 -0.265625,0.03125 -0.328125,0.21875 -0.21875,0.5 -0.765625,0.59375 -1.046875,0.59375 -0.75,0 -1.484375,-0.5 -1.65625,-1.359375 z M 1.265625,-2.5 C 1.40625,-3.234375 2,-3.78125 2.6875,-3.78125 c 0.515625,0 1.140625,0.25 1.234375,1.28125 z m 0,0"
             id="id-852a1040-862a-451e-b208-9934b7d85af1" />
        </g>
      </g>
      <g
         style="fill:#000000;fill-opacity:1"
         id="id-6f3e3d63-5795-422c-8666-f924ada51358"
         transform="matrix(0.32156646,0,0,0.32156646,-8.2529203,111.17232)">
        <g
           transform="translate(331.775,134.765)"
           id="g7315">
          <path
             style="stroke:none;stroke-width:0"
             d="M 1.09375,-4 C 1.0625,-4.296875 0.875,-4.296875 0.6875,-4.296875 H 0.375 c -0.15625,0 -0.421875,0 -0.421875,0.296875 0,0.3125 0.21875,0.3125 0.578125,0.3125 v 3.078125 c -0.359375,0 -0.578125,0 -0.578125,0.3125 C -0.046875,0 0.234375,0 0.375,0 H 1.25 c 0.140625,0 0.40625,0 0.40625,-0.296875 0,-0.3125 -0.203125,-0.3125 -0.5625,-0.3125 v -1.78125 C 1.09375,-3.28125 1.5,-3.75 1.90625,-3.75 c 0.234375,0 0.359375,0.171875 0.359375,0.8125 v 2.328125 c -0.1875,0 -0.4375,0 -0.4375,0.3125 C 1.828125,0 2.109375,0 2.25,0 h 0.734375 c 0.15625,0 0.421875,0 0.421875,-0.296875 0,-0.3125 -0.21875,-0.3125 -0.578125,-0.3125 v -1.78125 c 0,-0.890625 0.40625,-1.359375 0.828125,-1.359375 0.21875,0 0.359375,0.171875 0.359375,0.8125 v 2.328125 c -0.1875,0 -0.4375,0 -0.4375,0.3125 C 3.578125,0 3.84375,0 3.984375,0 h 0.75 c 0.15625,0 0.40625,0 0.40625,-0.296875 0,-0.3125 -0.203125,-0.3125 -0.5625,-0.3125 v -2.40625 c 0,-0.203125 0,-1.34375 -0.890625,-1.34375 -0.296875,0 -0.703125,0.125 -0.984375,0.515625 C 2.546875,-4.171875 2.265625,-4.359375 1.9375,-4.359375 1.625,-4.359375 1.328125,-4.21875 1.09375,-4 Z m 0,0"
             id="id-f72bbed3-1d99-45da-8042-a875b0443491" />
        </g>
        <g
           transform="translate(337.005,134.765)"
           id="g7318">
          <path
             style="stroke:none;stroke-width:0"
             d="M 3.65625,-0.3125 C 3.875,-0.015625 4.34375,0 4.71875,0 c 0.28125,0 0.5,0 0.5,-0.3125 0,-0.296875 -0.25,-0.296875 -0.390625,-0.296875 -0.421875,0 -0.515625,-0.046875 -0.59375,-0.078125 v -2.15625 c 0,-0.703125 -0.546875,-1.546875 -1.984375,-1.546875 -0.421875,0 -1.4375,0 -1.4375,0.734375 0,0.296875 0.203125,0.453125 0.4375,0.453125 0.15625,0 0.4375,-0.09375 0.4375,-0.453125 0,-0.078125 0.015625,-0.09375 0.21875,-0.109375 0.140625,-0.015625 0.265625,-0.015625 0.359375,-0.015625 0.75,0 1.265625,0.3125 1.265625,1.015625 -1.75,0.03125 -2.984375,0.53125 -2.984375,1.484375 0,0.6875 0.625,1.34375 1.640625,1.34375 0.375,0 1,-0.078125 1.46875,-0.375 z m -0.125,-1.859375 v 0.84375 c 0,0.21875 0,0.4375 -0.375,0.609375 -0.359375,0.171875 -0.8125,0.171875 -0.890625,0.171875 -0.625,0 -1.03125,-0.34375 -1.03125,-0.734375 0,-0.484375 0.859375,-0.859375 2.296875,-0.890625 z m 0,0"
             id="id-107ce8e4-f2da-4b27-ab3a-d63aec94a829" />
        </g>
        <g
           transform="translate(342.236,134.765)"
           id="g7321">
          <path
             style="stroke:none;stroke-width:0"
             d="m 1.65625,-3.828125 c 0,-0.3125 0,-0.46875 -0.40625,-0.46875 H 0.53125 c -0.15625,0 -0.40625,0 -0.40625,0.3125 0,0.296875 0.25,0.296875 0.390625,0.296875 H 0.96875 v 3.078125 h -0.4375 c -0.15625,0 -0.40625,0 -0.40625,0.3125 C 0.125,0 0.375,0 0.515625,0 h 1.59375 C 2.25,0 2.5,0 2.5,-0.296875 c 0,-0.3125 -0.25,-0.3125 -0.40625,-0.3125 H 1.65625 V -2.375 c 0,-1 0.734375,-1.375 1.25,-1.375 0.515625,0 0.65625,0.28125 0.65625,0.875 v 2.265625 h -0.375 c -0.171875,0 -0.421875,0 -0.421875,0.3125 C 2.765625,0 3.046875,0 3.1875,0 h 1.515625 c 0.140625,0 0.40625,0 0.40625,-0.296875 0,-0.3125 -0.25,-0.3125 -0.421875,-0.3125 H 4.25 v -2.3125 c 0,-1 -0.5,-1.4375 -1.296875,-1.4375 -0.65625,0 -1.109375,0.34375 -1.296875,0.53125 z m 0,0"
             id="id-09d654a7-f3e4-496b-8e72-7587480fba15" />
        </g>
        <g
           transform="translate(347.466,134.765)"
           id="g7324">
          <path
             style="stroke:none;stroke-width:0"
             d="m 4.28125,-3.6875 h 0.296875 c 0.15625,0 0.40625,0 0.40625,-0.296875 0,-0.3125 -0.234375,-0.3125 -0.40625,-0.3125 h -1.15625 c -0.15625,0 -0.40625,0 -0.40625,0.296875 0,0.3125 0.25,0.3125 0.40625,0.3125 h 0.28125 l -0.71875,2.125 C 2.84375,-1.203125 2.796875,-1.015625 2.71875,-0.703125 2.65625,-0.890625 2.578125,-1.109375 2.5,-1.296875 L 1.578125,-3.6875 h 0.25 c 0.140625,0 0.390625,0 0.390625,-0.296875 0,-0.3125 -0.234375,-0.3125 -0.390625,-0.3125 H 0.65625 c -0.15625,0 -0.390625,0 -0.390625,0.3125 0,0.296875 0.25,0.296875 0.390625,0.296875 h 0.3125 L 2.375,-0.125 c 0.046875,0.09375 0.046875,0.109375 0.046875,0.125 0,0.015625 -0.25,0.84375 -0.375,1.09375 C 1.75,1.640625 1.390625,1.65625 1.25,1.671875 c 0,-0.015625 0.046875,-0.09375 0.046875,-0.21875 0,-0.25 -0.1875,-0.4375 -0.421875,-0.4375 -0.28125,0 -0.453125,0.1875 -0.453125,0.4375 0,0.421875 0.34375,0.8125 0.828125,0.8125 1,0 1.453125,-1.3125 1.484375,-1.421875 z m 0,0"
             id="id-5b99680f-e8a6-4306-ac27-197f0631ced7" />
        </g>
        <g
           transform="translate(352.696,134.765)"
           id="g7327">
          <path
             style="stroke:none;stroke-width:0"
             d="m 4.203125,-2.703125 c 0.109375,0 0.46875,0 0.46875,-0.34375 0,-0.359375 -0.359375,-0.359375 -0.46875,-0.359375 H 1.03125 c -0.125,0 -0.46875,0 -0.46875,0.359375 0,0.34375 0.34375,0.34375 0.46875,0.34375 z m 0,0"
             id="id-d2095b6d-6275-4dfa-a769-0bcc09cc2d28" />
        </g>
        <g
           transform="translate(357.927,134.765)"
           id="g7330">
          <path
             style="stroke:none;stroke-width:0"
             d="m 2.21875,-3.6875 h 1.625 c 0.15625,0 0.40625,0 0.40625,-0.296875 0,-0.3125 -0.25,-0.3125 -0.40625,-0.3125 h -1.625 v -0.8125 c 0,-0.1875 0,-0.40625 -0.34375,-0.40625 -0.34375,0 -0.34375,0.203125 -0.34375,0.40625 v 0.8125 h -0.875 c -0.15625,0 -0.40625,0 -0.40625,0.3125 0,0.296875 0.25,0.296875 0.390625,0.296875 H 1.53125 V -1.25 c 0,0.953125 0.671875,1.3125 1.40625,1.3125 0.734375,0 1.53125,-0.4375 1.53125,-1.3125 0,-0.1875 0,-0.390625 -0.34375,-0.390625 -0.328125,0 -0.34375,0.203125 -0.34375,0.375 0,0.625 -0.578125,0.71875 -0.796875,0.71875 -0.765625,0 -0.765625,-0.515625 -0.765625,-0.765625 z m 0,0"
             id="id-72b0844a-2768-4be4-a45f-920da855c531" />
        </g>
        <g
           transform="translate(363.157,134.765)"
           id="g7333">
          <path
             style="stroke:none;stroke-width:0"
             d="m 4.65625,-2.15625 c 0,-1.25 -0.921875,-2.234375 -2.046875,-2.234375 -1.109375,0 -2.046875,0.984375 -2.046875,2.234375 0,1.265625 0.953125,2.21875 2.046875,2.21875 1.09375,0 2.046875,-0.953125 2.046875,-2.21875 z M 2.609375,-0.546875 C 1.875,-0.546875 1.25,-1.296875 1.25,-2.21875 c 0,-0.90625 0.65625,-1.5625 1.359375,-1.5625 0.71875,0 1.359375,0.65625 1.359375,1.5625 0,0.921875 -0.625,1.671875 -1.359375,1.671875 z m 0,0"
             id="id-2770194d-46db-4062-903e-739c0e34e43f" />
        </g>
        <g
           transform="translate(368.387,134.765)"
           id="g7336">
          <path
             style="stroke:none;stroke-width:0"
             d="m 4.203125,-2.703125 c 0.109375,0 0.46875,0 0.46875,-0.34375 0,-0.359375 -0.359375,-0.359375 -0.46875,-0.359375 H 1.03125 c -0.125,0 -0.46875,0 -0.46875,0.359375 0,0.34375 0.34375,0.34375 0.46875,0.34375 z m 0,0"
             id="id-1287eaa5-ca0c-42f4-bc66-6e00f339d05e" />
        </g>
        <g
           transform="translate(373.618,134.765)"
           id="g7339">
          <path
             style="stroke:none;stroke-width:0"
             d="M 1.09375,-4 C 1.0625,-4.296875 0.875,-4.296875 0.6875,-4.296875 H 0.375 c -0.15625,0 -0.421875,0 -0.421875,0.296875 0,0.3125 0.21875,0.3125 0.578125,0.3125 v 3.078125 c -0.359375,0 -0.578125,0 -0.578125,0.3125 C -0.046875,0 0.234375,0 0.375,0 H 1.25 c 0.140625,0 0.40625,0 0.40625,-0.296875 0,-0.3125 -0.203125,-0.3125 -0.5625,-0.3125 v -1.78125 C 1.09375,-3.28125 1.5,-3.75 1.90625,-3.75 c 0.234375,0 0.359375,0.171875 0.359375,0.8125 v 2.328125 c -0.1875,0 -0.4375,0 -0.4375,0.3125 C 1.828125,0 2.109375,0 2.25,0 h 0.734375 c 0.15625,0 0.421875,0 0.421875,-0.296875 0,-0.3125 -0.21875,-0.3125 -0.578125,-0.3125 v -1.78125 c 0,-0.890625 0.40625,-1.359375 0.828125,-1.359375 0.21875,0 0.359375,0.171875 0.359375,0.8125 v 2.328125 c -0.1875,0 -0.4375,0 -0.4375,0.3125 C 3.578125,0 3.84375,0 3.984375,0 h 0.75 c 0.15625,0 0.40625,0 0.40625,-0.296875 0,-0.3125 -0.203125,-0.3125 -0.5625,-0.3125 v -2.40625 c 0,-0.203125 0,-1.34375 -0.890625,-1.34375 -0.296875,0 -0.703125,0.125 -0.984375,0.515625 C 2.546875,-4.171875 2.265625,-4.359375 1.9375,-4.359375 1.625,-4.359375 1.328125,-4.21875 1.09375,-4 Z m 0,0"
             id="id-49e5db3b-409f-455a-b3df-1ad5137547a6" />
        </g>
        <g
           transform="translate(378.848,134.765)"
           id="g7342">
          <path
             style="stroke:none;stroke-width:0"
             d="M 3.65625,-0.3125 C 3.875,-0.015625 4.34375,0 4.71875,0 c 0.28125,0 0.5,0 0.5,-0.3125 0,-0.296875 -0.25,-0.296875 -0.390625,-0.296875 -0.421875,0 -0.515625,-0.046875 -0.59375,-0.078125 v -2.15625 c 0,-0.703125 -0.546875,-1.546875 -1.984375,-1.546875 -0.421875,0 -1.4375,0 -1.4375,0.734375 0,0.296875 0.203125,0.453125 0.4375,0.453125 0.15625,0 0.4375,-0.09375 0.4375,-0.453125 0,-0.078125 0.015625,-0.09375 0.21875,-0.109375 0.140625,-0.015625 0.265625,-0.015625 0.359375,-0.015625 0.75,0 1.265625,0.3125 1.265625,1.015625 -1.75,0.03125 -2.984375,0.53125 -2.984375,1.484375 0,0.6875 0.625,1.34375 1.640625,1.34375 0.375,0 1,-0.078125 1.46875,-0.375 z m -0.125,-1.859375 v 0.84375 c 0,0.21875 0,0.4375 -0.375,0.609375 -0.359375,0.171875 -0.8125,0.171875 -0.890625,0.171875 -0.625,0 -1.03125,-0.34375 -1.03125,-0.734375 0,-0.484375 0.859375,-0.859375 2.296875,-0.890625 z m 0,0"
             id="id-a31af9ee-9404-47b5-b7ab-a3d73a5f94fc" />
        </g>
        <g
           transform="translate(384.078,134.765)"
           id="g7345">
          <path
             style="stroke:none;stroke-width:0"
             d="m 1.65625,-3.828125 c 0,-0.3125 0,-0.46875 -0.40625,-0.46875 H 0.53125 c -0.15625,0 -0.40625,0 -0.40625,0.3125 0,0.296875 0.25,0.296875 0.390625,0.296875 H 0.96875 v 3.078125 h -0.4375 c -0.15625,0 -0.40625,0 -0.40625,0.3125 C 0.125,0 0.375,0 0.515625,0 h 1.59375 C 2.25,0 2.5,0 2.5,-0.296875 c 0,-0.3125 -0.25,-0.3125 -0.40625,-0.3125 H 1.65625 V -2.375 c 0,-1 0.734375,-1.375 1.25,-1.375 0.515625,0 0.65625,0.28125 0.65625,0.875 v 2.265625 h -0.375 c -0.171875,0 -0.421875,0 -0.421875,0.3125 C 2.765625,0 3.046875,0 3.1875,0 h 1.515625 c 0.140625,0 0.40625,0 0.40625,-0.296875 0,-0.3125 -0.25,-0.3125 -0.421875,-0.3125 H 4.25 v -2.3125 c 0,-1 -0.5,-1.4375 -1.296875,-1.4375 -0.65625,0 -1.109375,0.34375 -1.296875,0.53125 z m 0,0"
             id="id-57ef8a74-9968-41f1-a685-146a9115df7f" />
        </g>
        <g
           transform="translate(389.309,134.765)"
           id="g7348">
          <path
             style="stroke:none;stroke-width:0"
             d="m 4.28125,-3.6875 h 0.296875 c 0.15625,0 0.40625,0 0.40625,-0.296875 0,-0.3125 -0.234375,-0.3125 -0.40625,-0.3125 h -1.15625 c -0.15625,0 -0.40625,0 -0.40625,0.296875 0,0.3125 0.25,0.3125 0.40625,0.3125 h 0.28125 l -0.71875,2.125 C 2.84375,-1.203125 2.796875,-1.015625 2.71875,-0.703125 2.65625,-0.890625 2.578125,-1.109375 2.5,-1.296875 L 1.578125,-3.6875 h 0.25 c 0.140625,0 0.390625,0 0.390625,-0.296875 0,-0.3125 -0.234375,-0.3125 -0.390625,-0.3125 H 0.65625 c -0.15625,0 -0.390625,0 -0.390625,0.3125 0,0.296875 0.25,0.296875 0.390625,0.296875 h 0.3125 L 2.375,-0.125 c 0.046875,0.09375 0.046875,0.109375 0.046875,0.125 0,0.015625 -0.25,0.84375 -0.375,1.09375 C 1.75,1.640625 1.390625,1.65625 1.25,1.671875 c 0,-0.015625 0.046875,-0.09375 0.046875,-0.21875 0,-0.25 -0.1875,-0.4375 -0.421875,-0.4375 -0.28125,0 -0.453125,0.1875 -0.453125,0.4375 0,0.421875 0.34375,0.8125 0.828125,0.8125 1,0 1.453125,-1.3125 1.484375,-1.421875 z m 0,0"
             id="id-976ea528-2d69-4c55-8284-189d51452979" />
        </g>
      </g>
    </g>
  </g>
</svg>
