<?xml version="1.0" encoding="UTF-8" standalone="no"?>
<!-- Created with Inkscape (http://www.inkscape.org/) -->

<svg
   width="87.673233mm"
   height="87.673233mm"
   viewBox="0 0 87.673233 87.673233"
   version="1.1"
   id="svg5"
   xmlns="http://www.w3.org/2000/svg"
   xmlns:svg="http://www.w3.org/2000/svg">
  <defs
     id="defs2">
    <marker
       style="overflow:visible"
       id="TriangleOutL"
       refX="0"
       refY="0"
       orient="auto">
      <path
         transform="scale(0.8)"
         style="fill:context-stroke;fill-rule:evenodd;stroke:context-stroke;stroke-width:1pt"
         d="M 5.77,0 -2.88,5 V -5 Z"
         id="path2172" />
    </marker>
    <marker
       style="overflow:visible"
       id="TriangleInL"
       refX="0"
       refY="0"
       orient="auto">
      <path
         transform="scale(-0.8)"
         style="fill:context-stroke;fill-rule:evenodd;stroke:context-stroke;stroke-width:1pt"
         d="M 5.77,0 -2.88,5 V -5 Z"
         id="path2163" />
    </marker>
    <marker
       style="overflow:visible"
       id="StopL"
       refX="0"
       refY="0"
       orient="auto">
      <path
         transform="scale(0.8)"
         style="fill:none;fill-opacity:0.75;fill-rule:evenodd;stroke:context-stroke;stroke-width:1pt"
         d="M 0,5.65 V -5.65"
         id="path2199" />
    </marker>
    <defs
       id="id-4b875660-63ed-4192-9237-68ed9c971361">
      <g
         id="id-47137ebb-4893-4cbf-98fd-7fd54364383b">
        <symbol
           overflow="visible"
           id="id-cb23d20f-7d95-4356-95ac-f237d7680502">
          <path
             style="stroke:none;stroke-width:0"
             d=""
             id="id-11792926-127b-401b-997c-5a56c04aee33" />
        </symbol>
        <symbol
           overflow="visible"
           id="id-03843196-0d39-4e37-98c2-d3308f1e4772">
          <path
             style="stroke:none;stroke-width:0"
             d="m 2.9375,-6.375 c 0,-0.25 0,-0.265625 -0.234375,-0.265625 C 2.078125,-6 1.203125,-6 0.890625,-6 v 0.3125 c 0.203125,0 0.78125,0 1.296875,-0.265625 v 5.171875 c 0,0.359375 -0.03125,0.46875 -0.921875,0.46875 h -0.3125 V 0 c 0.34375,-0.03125 1.203125,-0.03125 1.609375,-0.03125 0.390625,0 1.265625,0 1.609375,0.03125 v -0.3125 h -0.3125 c -0.90625,0 -0.921875,-0.109375 -0.921875,-0.46875 z m 0,0"
             id="id-7486c22d-240d-441d-85ee-47e198a3f597" />
        </symbol>
        <symbol
           overflow="visible"
           id="id-193ccae5-7654-442c-a772-c5575ac4a6a4">
          <path
             style="stroke:none;stroke-width:0"
             d="m 1.265625,-0.765625 1.0625,-1.03125 c 1.546875,-1.375 2.140625,-1.90625 2.140625,-2.90625 0,-1.140625 -0.890625,-1.9375 -2.109375,-1.9375 -1.125,0 -1.859375,0.921875 -1.859375,1.8125 0,0.546875 0.5,0.546875 0.53125,0.546875 0.171875,0 0.515625,-0.109375 0.515625,-0.53125 0,-0.25 -0.1875,-0.515625 -0.53125,-0.515625 -0.078125,0 -0.09375,0 -0.125,0.015625 0.21875,-0.65625 0.765625,-1.015625 1.34375,-1.015625 0.90625,0 1.328125,0.8125 1.328125,1.625 C 3.5625,-3.90625 3.078125,-3.125 2.515625,-2.5 l -1.90625,2.125 C 0.5,-0.265625 0.5,-0.234375 0.5,0 H 4.203125 L 4.46875,-1.734375 H 4.234375 C 4.171875,-1.4375 4.109375,-1 4,-0.84375 3.9375,-0.765625 3.28125,-0.765625 3.0625,-0.765625 Z m 0,0"
             id="id-335b06b0-3418-4660-b7a5-60e7c9c92969" />
        </symbol>
        <symbol
           overflow="visible"
           id="id-199b83a5-fbf2-4ef5-a3aa-49bde62be912">
          <path
             style="stroke:none;stroke-width:0"
             d="m 2.890625,-3.515625 c 0.8125,-0.265625 1.390625,-0.953125 1.390625,-1.75 0,-0.8125 -0.875,-1.375 -1.828125,-1.375 -1,0 -1.765625,0.59375 -1.765625,1.359375 0,0.328125 0.21875,0.515625 0.515625,0.515625 0.296875,0 0.5,-0.21875 0.5,-0.515625 0,-0.484375 -0.46875,-0.484375 -0.609375,-0.484375 0.296875,-0.5 0.953125,-0.625 1.3125,-0.625 0.421875,0 0.96875,0.21875 0.96875,1.109375 0,0.125 -0.03125,0.703125 -0.28125,1.140625 C 2.796875,-3.65625 2.453125,-3.625 2.203125,-3.625 2.125,-3.609375 1.890625,-3.59375 1.8125,-3.59375 c -0.078125,0.015625 -0.140625,0.03125 -0.140625,0.125 0,0.109375 0.0625,0.109375 0.234375,0.109375 h 0.4375 c 0.8125,0 1.1875,0.671875 1.1875,1.65625 0,1.359375 -0.6875,1.640625 -1.125,1.640625 -0.4375,0 -1.1875,-0.171875 -1.53125,-0.75 0.34375,0.046875 0.65625,-0.171875 0.65625,-0.546875 0,-0.359375 -0.265625,-0.5625 -0.546875,-0.5625 -0.25,0 -0.5625,0.140625 -0.5625,0.578125 0,0.90625 0.921875,1.5625 2.015625,1.5625 1.21875,0 2.125,-0.90625 2.125,-1.921875 0,-0.8125 -0.640625,-1.59375 -1.671875,-1.8125 z m 0,0"
             id="id-df8be9b0-20c9-46e3-8d78-6b6c0d26bd5e" />
        </symbol>
        <symbol
           overflow="visible"
           id="id-897551b9-7809-4b24-af6c-80769028ee19">
          <path
             style="stroke:none;stroke-width:0"
             d=""
             id="id-780e443b-33ff-4bdb-a4d0-ef68f537ac79" />
        </symbol>
        <symbol
           overflow="visible"
           id="id-6f737f02-973f-4844-99e9-b3a6585dc4ce">
          <path
             style="stroke:none;stroke-width:0"
             d="m 6.5625,-2.296875 c 0.171875,0 0.359375,0 0.359375,-0.203125 0,-0.1875 -0.1875,-0.1875 -0.359375,-0.1875 H 1.171875 c -0.171875,0 -0.34375,0 -0.34375,0.1875 0,0.203125 0.171875,0.203125 0.34375,0.203125 z m 0,0"
             id="id-7960aeb5-006a-4278-9d49-a248c395db28" />
        </symbol>
      </g>
    </defs>
  </defs>
  <g
     id="layer1"
     transform="translate(-40.83005,-99.038384)">
    <g
       id="g3074">
      <path
         style="fill:none;stroke:#000000;stroke-width:0.264583px;stroke-linecap:butt;stroke-linejoin:miter;stroke-opacity:1;marker-start:url(#TriangleInL);marker-mid:url(#StopL);marker-end:url(#TriangleOutL)"
         d="m 84.666666,100.54167 10e-7,10.58333 v 10.58333 10.58334 21.16666 10.58334 10.58333 l -10e-7,10.58333"
         id="path859" />
      <path
         style="fill:none;stroke:#000000;stroke-width:0.264583px;stroke-linecap:butt;stroke-linejoin:miter;stroke-opacity:1;marker-start:url(#TriangleInL);marker-mid:url(#StopL);marker-end:url(#TriangleOutL)"
         d="M 127,142.875 H 116.41667 105.83333 95.25 74.083333 63.5 52.916667 42.333336"
         id="path941" />
      <path
         style="fill:none;stroke:#cccccc;stroke-width:0.365;stroke-linecap:butt;stroke-linejoin:miter;stroke-miterlimit:4;stroke-dasharray:0.365, 1.46;stroke-dashoffset:0;stroke-opacity:1"
         d="m 95.249999,100.54167 v 84.66666"
         id="path2347" />
      <path
         style="fill:none;stroke:#cccccc;stroke-width:0.365;stroke-linecap:butt;stroke-linejoin:miter;stroke-miterlimit:4;stroke-dasharray:0.365, 1.46;stroke-dashoffset:0;stroke-opacity:1"
         d="m 105.83334,100.54167 v 84.66666"
         id="path2465" />
      <path
         style="fill:none;stroke:#cccccc;stroke-width:0.365;stroke-linecap:butt;stroke-linejoin:miter;stroke-miterlimit:4;stroke-dasharray:0.365, 1.46;stroke-dashoffset:0;stroke-opacity:1"
         d="m 116.41668,100.54167 v 84.66666"
         id="path2467" />
      <path
         style="fill:none;stroke:#cccccc;stroke-width:0.365;stroke-linecap:butt;stroke-linejoin:miter;stroke-miterlimit:4;stroke-dasharray:0.365, 1.46;stroke-dashoffset:0;stroke-opacity:1"
         d="m 74.083335,100.54167 v 84.66666"
         id="path2469" />
      <path
         style="fill:none;stroke:#cccccc;stroke-width:0.365;stroke-linecap:butt;stroke-linejoin:miter;stroke-miterlimit:4;stroke-dasharray:0.365, 1.46;stroke-dashoffset:0;stroke-opacity:1"
         d="m 63.500001,100.54167 v 84.66666"
         id="path2471" />
      <path
         style="fill:none;stroke:#cccccc;stroke-width:0.365;stroke-linecap:butt;stroke-linejoin:miter;stroke-miterlimit:4;stroke-dasharray:0.365, 1.46;stroke-dashoffset:0;stroke-opacity:1"
         d="m 52.916667,100.54167 v 84.66666"
         id="path2473" />
      <path
         style="fill:none;stroke:#cccccc;stroke-width:0.365;stroke-linecap:butt;stroke-linejoin:miter;stroke-miterlimit:4;stroke-dasharray:0.365, 1.46;stroke-dashoffset:0;stroke-opacity:1"
         d="M 127.00001,132.29166 H 42.333339"
         id="path2475" />
      <path
         style="fill:none;stroke:#cccccc;stroke-width:0.365;stroke-linecap:butt;stroke-linejoin:miter;stroke-miterlimit:4;stroke-dasharray:0.365, 1.46;stroke-dashoffset:0;stroke-opacity:1"
         d="M 127.00001,121.70832 H 42.333339"
         id="path2477" />
      <path
         style="fill:none;stroke:#cccccc;stroke-width:0.365;stroke-linecap:butt;stroke-linejoin:miter;stroke-miterlimit:4;stroke-dasharray:0.365, 1.46;stroke-dashoffset:0;stroke-opacity:1"
         d="M 127.00001,111.12498 H 42.333339"
         id="path2479" />
      <path
         style="fill:none;stroke:#cccccc;stroke-width:0.365;stroke-linecap:butt;stroke-linejoin:miter;stroke-miterlimit:4;stroke-dasharray:0.365, 1.46;stroke-dashoffset:0;stroke-opacity:1"
         d="M 127.00001,153.45834 H 42.333339"
         id="path2481" />
      <path
         style="fill:none;stroke:#cccccc;stroke-width:0.365;stroke-linecap:butt;stroke-linejoin:miter;stroke-miterlimit:4;stroke-dasharray:0.365, 1.46;stroke-dashoffset:0;stroke-opacity:1"
         d="M 127.00001,164.04168 H 42.333339"
         id="path2483" />
      <path
         style="fill:none;stroke:#cccccc;stroke-width:0.365;stroke-linecap:butt;stroke-linejoin:miter;stroke-miterlimit:4;stroke-dasharray:0.365, 1.46;stroke-dashoffset:0;stroke-opacity:1"
         d="M 127.00001,174.62502 H 42.333339"
         id="path2485" />
      <path
         style="fill:#0084c8;fill-opacity:1;stroke:none;stroke-width:0"
         d="m 95.402582,145.8898 c 0,-0.0939 0,-0.0998 -0.08803,-0.0998 -0.234737,0.24061 -0.563369,0.24061 -0.680737,0.24061 v 0.11736 c 0.07629,0 0.293421,0 0.487079,-0.0998 v 1.94245 c 0,0.13497 -0.01174,0.17605 -0.346237,0.17605 h -0.117368 v 0.11737 c 0.129105,-0.0117 0.451868,-0.0117 0.604446,-0.0117 0.146711,0 0.475342,0 0.604449,0.0117 v -0.11737 h -0.117369 c -0.340368,0 -0.346237,-0.0411 -0.346237,-0.17605 z m 0,0"
         id="id-ff7583f8-5590-440e-af92-277f6b20efec" />
      <path
         style="fill:#0084c8;fill-opacity:1;stroke:none;stroke-width:0"
         d="m 105.37557,147.99645 0.39905,-0.38732 c 0.58098,-0.51642 0.80398,-0.71595 0.80398,-1.09152 0,-0.4284 -0.3345,-0.72769 -0.79224,-0.72769 -0.42253,0 -0.69834,0.34624 -0.69834,0.68074 0,0.20539 0.18779,0.20539 0.19952,0.20539 0.0645,0 0.19366,-0.0411 0.19366,-0.19953 0,-0.0939 -0.0704,-0.19365 -0.19952,-0.19365 -0.0293,0 -0.0352,0 -0.0469,0.006 0.0822,-0.24648 0.28755,-0.38145 0.50468,-0.38145 0.34037,0 0.49882,0.30516 0.49882,0.61032 0,0.29928 -0.18193,0.59271 -0.39319,0.82743 l -0.71595,0.79812 c -0.0411,0.0411 -0.0411,0.0528 -0.0411,0.14084 h 1.39082 l 0.0998,-0.65139 h -0.088 c -0.0235,0.1115 -0.0469,0.27581 -0.088,0.3345 -0.0235,0.0293 -0.26995,0.0293 -0.35211,0.0293 z m 0,0"
         id="id-48ed4525-0312-4955-a930-7b1e71cf21c1" />
      <path
         style="fill:#0084c8;fill-opacity:1;stroke:none;stroke-width:0"
         d="m 116.56634,146.92262 c 0.30516,-0.0998 0.52229,-0.35798 0.52229,-0.65727 0,-0.30516 -0.32863,-0.51642 -0.6866,-0.51642 -0.37558,0 -0.66313,0.223 -0.66313,0.51055 0,0.12324 0.0822,0.19366 0.19365,0.19366 0.1115,0 0.18779,-0.0822 0.18779,-0.19366 0,-0.18192 -0.17605,-0.18192 -0.22887,-0.18192 0.1115,-0.18779 0.35798,-0.23473 0.49295,-0.23473 0.15845,0 0.36384,0.0822 0.36384,0.41665 0,0.047 -0.0117,0.26408 -0.10563,0.4284 -0.1115,0.18192 -0.2406,0.19366 -0.3345,0.19366 -0.0293,0.006 -0.11737,0.0117 -0.14671,0.0117 -0.0293,0.006 -0.0528,0.0117 -0.0528,0.0469 0,0.0411 0.0235,0.0411 0.088,0.0411 h 0.16432 c 0.30517,0 0.446,0.25234 0.446,0.62205 0,0.51055 -0.25821,0.61619 -0.42252,0.61619 -0.16431,0 -0.446,-0.0646 -0.57511,-0.28169 0.1291,0.0176 0.24647,-0.0645 0.24647,-0.20539 0,-0.13498 -0.0998,-0.21127 -0.20538,-0.21127 -0.0939,0 -0.21127,0.0528 -0.21127,0.21714 0,0.34036 0.34624,0.58684 0.75703,0.58684 0.45774,0 0.7981,-0.34037 0.7981,-0.72182 0,-0.30516 -0.2406,-0.59858 -0.62792,-0.68073 z m 0,0"
         id="id-114c35ff-eea3-4d8b-b333-742e77f2fb29" />
      <g
         id="g2960"
         transform="translate(-3.331785,-58.95354)"
         style="fill:#0084c8">
        <path
           style="fill:#0084c8;fill-opacity:1;stroke:none;stroke-width:0"
           d="m 77.069965,206.375 c 0.06455,0 0.134974,0 0.134974,-0.0763 0,-0.0704 -0.07042,-0.0704 -0.134974,-0.0704 H 75.04536 c -0.06455,0 -0.129106,0 -0.129106,0.0704 0,0.0763 0.06455,0.0763 0.129106,0.0763 z m 0,0"
           id="id-9ccd1932-6173-4afa-b13f-e8666fc0f0f1" />
        <path
           style="fill:#0084c8;fill-opacity:1;stroke:none;stroke-width:0"
           d="m 79.450384,204.84334 c 0,-0.0939 0,-0.0998 -0.08803,-0.0998 -0.234737,0.24061 -0.563369,0.24061 -0.680737,0.24061 v 0.11736 c 0.07629,0 0.293421,0 0.487079,-0.0998 v 1.94245 c 0,0.13497 -0.01174,0.17605 -0.346237,0.17605 h -0.117368 v 0.11737 c 0.129105,-0.0117 0.451868,-0.0117 0.604447,-0.0117 0.146711,0 0.475342,0 0.604448,0.0117 v -0.11737 h -0.117369 c -0.340368,0 -0.346237,-0.0411 -0.346237,-0.17605 z m 0,0"
           id="id-884af913-965a-485e-a39b-25cc1fabc954" />
      </g>
      <g
         id="g2964"
         transform="translate(-20.415056,-58.953665)"
         style="fill:#0084c8">
        <path
           style="fill:#0084c8;fill-opacity:1;stroke:none;stroke-width:0"
           d="m 83.514149,206.375 c 0.06455,0 0.134974,0 0.134974,-0.0763 0,-0.0704 -0.07042,-0.0704 -0.134974,-0.0704 h -2.024605 c -0.06455,0 -0.129106,0 -0.129106,0.0704 0,0.0763 0.06455,0.0763 0.129106,0.0763 z m 0,0"
           id="id-aae51394-b678-4ba8-b8be-585fed847bec" />
        <path
           style="fill:#0084c8;fill-opacity:1;stroke:none;stroke-width:0"
           d="m 85.266648,206.95011 0.399053,-0.38732 c 0.580974,-0.51642 0.803974,-0.71595 0.803974,-1.09152 0,-0.4284 -0.3345,-0.72769 -0.792237,-0.72769 -0.422527,0 -0.698343,0.34624 -0.698343,0.68074 0,0.20539 0.18779,0.20539 0.199527,0.20539 0.06455,0 0.193658,-0.0411 0.193658,-0.19952 0,-0.0939 -0.07042,-0.19366 -0.199527,-0.19366 -0.02934,0 -0.03521,0 -0.04695,0.006 0.08216,-0.24648 0.287553,-0.38145 0.504684,-0.38145 0.340369,0 0.498816,0.30516 0.498816,0.61032 0,0.29928 -0.181921,0.59271 -0.393184,0.82744 l -0.715948,0.79811 c -0.04108,0.0411 -0.04108,0.0528 -0.04108,0.14084 h 1.390816 l 0.09976,-0.65139 h -0.08803 c -0.02347,0.1115 -0.04695,0.27581 -0.08803,0.3345 -0.02347,0.0293 -0.269947,0.0293 -0.352105,0.0293 z m 0,0"
           id="id-2b8edd51-8e04-425b-bccf-36575e7da694" />
      </g>
      <g
         id="g2968"
         transform="translate(-37.459991,-58.99465)"
         style="fill:#0084c8">
        <path
           style="fill:#0084c8;fill-opacity:1;stroke:none;stroke-width:0"
           d="m 89.958334,206.375 c 0.06455,0 0.134974,0 0.134974,-0.0763 0,-0.0704 -0.07042,-0.0704 -0.134974,-0.0704 h -2.024605 c -0.06455,0 -0.129106,0 -0.129106,0.0704 0,0.0763 0.06455,0.0763 0.129106,0.0763 z m 0,0"
           id="id-8ea9a100-e28a-4bd9-bd90-c1447680b3af" />
        <path
           style="fill:#0084c8;fill-opacity:1;stroke:none;stroke-width:0"
           d="m 92.320773,205.91727 c 0.305158,-0.0998 0.52229,-0.35798 0.52229,-0.65727 0,-0.30516 -0.328632,-0.51642 -0.686606,-0.51642 -0.375579,0 -0.663131,0.223 -0.663131,0.51055 0,0.12324 0.08216,0.19366 0.193657,0.19366 0.1115,0 0.18779,-0.0822 0.18779,-0.19366 0,-0.18192 -0.176053,-0.18192 -0.228868,-0.18192 0.1115,-0.18779 0.357973,-0.23473 0.492947,-0.23473 0.158447,0 0.363842,0.0822 0.363842,0.41665 0,0.047 -0.01174,0.26408 -0.105631,0.4284 -0.1115,0.18192 -0.240606,0.19366 -0.334501,0.19366 -0.02934,0.006 -0.117368,0.0117 -0.14671,0.0117 -0.02934,0.006 -0.05282,0.0117 -0.05282,0.0469 0,0.0411 0.02347,0.0411 0.08803,0.0411 h 0.164316 c 0.305158,0 0.446,0.25234 0.446,0.62205 0,0.51055 -0.25821,0.61619 -0.422526,0.61619 -0.164316,0 -0.446,-0.0646 -0.575105,-0.28169 0.129105,0.0176 0.246473,-0.0645 0.246473,-0.20539 0,-0.13498 -0.09976,-0.21127 -0.205394,-0.21127 -0.0939,0 -0.211264,0.0528 -0.211264,0.21714 0,0.34036 0.346237,0.58684 0.757027,0.58684 0.457737,0 0.798105,-0.34037 0.798105,-0.72182 0,-0.30516 -0.240605,-0.59858 -0.627921,-0.68073 z m 0,0"
           id="id-cdc0dd9b-88e4-4877-b665-0472ac5472ac" />
      </g>
      <path
         style="fill:#0084c8;fill-opacity:1;stroke:none;stroke-width:0"
         d="m 88.844596,131.14444 c 0,-0.0939 0,-0.0998 -0.08803,-0.0998 -0.234737,0.24061 -0.563369,0.24061 -0.680737,0.24061 v 0.11736 c 0.07629,0 0.293421,0 0.487079,-0.0998 v 1.94245 c 0,0.13497 -0.01174,0.17605 -0.346237,0.17605 h -0.117368 v 0.11737 c 0.129105,-0.0117 0.451868,-0.0117 0.604447,-0.0117 0.146711,0 0.475342,0 0.604448,0.0117 v -0.11737 h -0.117369 c -0.340368,0 -0.346237,-0.0411 -0.346237,-0.17605 z m 0,0"
         id="id-e5341a23-ddce-4ad5-a5eb-d63d1fc9406a" />
      <path
         style="fill:#0084c8;fill-opacity:1;stroke:none;stroke-width:0"
         d="m 88.234278,122.66774 0.399053,-0.38732 c 0.580974,-0.51642 0.803974,-0.71595 0.803974,-1.09152 0,-0.4284 -0.3345,-0.72769 -0.792237,-0.72769 -0.422527,0 -0.698343,0.34624 -0.698343,0.68074 0,0.20539 0.18779,0.20539 0.199527,0.20539 0.06455,0 0.193658,-0.0411 0.193658,-0.19952 0,-0.0939 -0.07042,-0.19366 -0.199527,-0.19366 -0.02934,0 -0.03521,0 -0.04695,0.006 0.08216,-0.24648 0.287553,-0.38145 0.504684,-0.38145 0.340369,0 0.498816,0.30516 0.498816,0.61032 0,0.29928 -0.181921,0.59271 -0.393184,0.82744 l -0.715948,0.79811 c -0.04108,0.0411 -0.04108,0.0528 -0.04108,0.14084 h 1.390816 l 0.09976,-0.65139 h -0.08803 c -0.02347,0.1115 -0.04695,0.27581 -0.08803,0.3345 -0.02347,0.0293 -0.269947,0.0293 -0.352105,0.0293 z m 0,0"
         id="id-8f30bc21-80e5-4bde-9b08-bd2071f33806" />
      <path
         style="fill:#0084c8;fill-opacity:1;stroke:none;stroke-width:0"
         d="m 88.841658,111.01058 c 0.305158,-0.0998 0.52229,-0.35798 0.52229,-0.65727 0,-0.30516 -0.328632,-0.51642 -0.686606,-0.51642 -0.375579,0 -0.663131,0.223 -0.663131,0.51055 0,0.12324 0.08216,0.19366 0.193657,0.19366 0.1115,0 0.18779,-0.0822 0.18779,-0.19366 0,-0.18192 -0.176053,-0.18192 -0.228868,-0.18192 0.1115,-0.18779 0.357973,-0.23473 0.492947,-0.23473 0.158447,0 0.363842,0.0822 0.363842,0.41665 0,0.047 -0.01174,0.26408 -0.105631,0.4284 -0.1115,0.18192 -0.240606,0.19366 -0.334501,0.19366 -0.02934,0.006 -0.117368,0.0117 -0.14671,0.0117 -0.02934,0.006 -0.05282,0.0117 -0.05282,0.0469 0,0.0411 0.02347,0.0411 0.08803,0.0411 h 0.164316 c 0.305158,0 0.446,0.25234 0.446,0.62205 0,0.51055 -0.25821,0.61619 -0.422526,0.61619 -0.164316,0 -0.446,-0.0646 -0.575105,-0.28169 0.129105,0.0176 0.246473,-0.0645 0.246473,-0.20539 0,-0.13498 -0.09976,-0.21127 -0.205394,-0.21127 -0.0939,0 -0.211264,0.0528 -0.211264,0.21714 0,0.34036 0.346237,0.58684 0.757027,0.58684 0.457737,0 0.798105,-0.34037 0.798105,-0.72182 0,-0.30516 -0.240605,-0.59858 -0.627921,-0.68073 z m 0,0"
         id="id-dfce0080-c6ba-45ab-968f-095a50e1fd97" />
      <g
         id="g2972"
         transform="translate(-14.915437,-52.53222)"
         style="fill:#0084c8">
        <path
           style="fill:#0084c8;fill-opacity:1;stroke:none;stroke-width:0"
           d="m 103.26247,206.375 c 0.0646,0 0.13497,0 0.13497,-0.0763 0,-0.0704 -0.0704,-0.0704 -0.13497,-0.0704 h -2.02461 c -0.0645,0 -0.1291,0 -0.1291,0.0704 0,0.0763 0.0645,0.0763 0.1291,0.0763 z m 0,0"
           id="id-b0613141-c38b-4ecd-84b6-dfc847316bb5" />
        <path
           style="fill:#0084c8;fill-opacity:1;stroke:none;stroke-width:0"
           d="m 105.64251,204.84334 c 0,-0.0939 0,-0.0998 -0.088,-0.0998 -0.23474,0.24061 -0.56337,0.24061 -0.68074,0.24061 v 0.11736 c 0.0763,0 0.29342,0 0.48708,-0.0998 v 1.94245 c 0,0.13497 -0.0117,0.17605 -0.34624,0.17605 h -0.11737 v 0.11737 c 0.12911,-0.0117 0.45187,-0.0117 0.60445,-0.0117 0.14671,0 0.47534,0 0.60445,0.0117 v -0.11737 h -0.11737 c -0.34037,0 -0.34624,-0.0411 -0.34624,-0.17605 z m 0,0"
           id="id-c79078a6-5db2-4899-9957-371efda38736" />
      </g>
      <g
         id="g2976"
         transform="translate(-21.415207,-41.949005)"
         style="fill:#0084c8">
        <path
           style="fill:#0084c8;fill-opacity:1;stroke:none;stroke-width:0"
           d="m 109.70628,206.375 c 0.0645,0 0.13497,0 0.13497,-0.0763 0,-0.0704 -0.0704,-0.0704 -0.13497,-0.0704 h -2.02461 c -0.0645,0 -0.1291,0 -0.1291,0.0704 0,0.0763 0.0645,0.0763 0.1291,0.0763 z m 0,0"
           id="id-8de329c9-d191-4df0-96da-895cee59f449" />
        <path
           style="fill:#0084c8;fill-opacity:1;stroke:none;stroke-width:0"
           d="m 111.45877,206.95011 0.39905,-0.38732 c 0.58098,-0.51642 0.80398,-0.71595 0.80398,-1.09152 0,-0.4284 -0.3345,-0.72769 -0.79224,-0.72769 -0.42252,0 -0.69834,0.34624 -0.69834,0.68074 0,0.20539 0.18779,0.20539 0.19953,0.20539 0.0645,0 0.19365,-0.0411 0.19365,-0.19952 0,-0.0939 -0.0704,-0.19366 -0.19952,-0.19366 -0.0293,0 -0.0352,0 -0.0469,0.006 0.0822,-0.24648 0.28755,-0.38145 0.50468,-0.38145 0.34037,0 0.49882,0.30516 0.49882,0.61032 0,0.29928 -0.18192,0.59271 -0.39318,0.82744 l -0.71595,0.79811 c -0.0411,0.0411 -0.0411,0.0528 -0.0411,0.14084 h 1.39082 l 0.0998,-0.65139 h -0.088 c -0.0235,0.1115 -0.0469,0.27581 -0.088,0.3345 -0.0235,0.0293 -0.26995,0.0293 -0.35211,0.0293 z m 0,0"
           id="id-c179ce29-4722-47e5-b3a5-361eada08a3f" />
      </g>
      <g
         id="g2980"
         transform="translate(-27.876957,-31.40665)"
         style="fill:#0084c8">
        <path
           style="fill:#0084c8;fill-opacity:1;stroke:none;stroke-width:0"
           d="m 116.15046,206.375 c 0.0646,0 0.13497,0 0.13497,-0.0763 0,-0.0704 -0.0704,-0.0704 -0.13497,-0.0704 h -2.02461 c -0.0645,0 -0.1291,0 -0.1291,0.0704 0,0.0763 0.0645,0.0763 0.1291,0.0763 z m 0,0"
           id="id-efbb1954-0bfa-4c85-9f51-0ea9fd3f7b41" />
        <path
           style="fill:#0084c8;fill-opacity:1;stroke:none;stroke-width:0"
           d="m 118.51328,205.91727 c 0.30516,-0.0998 0.52229,-0.35798 0.52229,-0.65727 0,-0.30516 -0.32863,-0.51642 -0.68661,-0.51642 -0.37558,0 -0.66313,0.223 -0.66313,0.51055 0,0.12324 0.0822,0.19366 0.19366,0.19366 0.1115,0 0.18779,-0.0822 0.18779,-0.19366 0,-0.18192 -0.17605,-0.18192 -0.22887,-0.18192 0.1115,-0.18779 0.35797,-0.23473 0.49295,-0.23473 0.15844,0 0.36384,0.0822 0.36384,0.41665 0,0.047 -0.0117,0.26408 -0.10563,0.4284 -0.1115,0.18192 -0.24061,0.19366 -0.3345,0.19366 -0.0293,0.006 -0.11737,0.0117 -0.14671,0.0117 -0.0294,0.006 -0.0528,0.0117 -0.0528,0.0469 0,0.0411 0.0235,0.0411 0.088,0.0411 h 0.16431 c 0.30516,0 0.446,0.25234 0.446,0.62205 0,0.51055 -0.25821,0.61619 -0.42252,0.61619 -0.16432,0 -0.446,-0.0646 -0.57511,-0.28169 0.12911,0.0176 0.24648,-0.0645 0.24648,-0.20539 0,-0.13498 -0.0998,-0.21127 -0.2054,-0.21127 -0.0939,0 -0.21126,0.0528 -0.21126,0.21714 0,0.34036 0.34623,0.58684 0.75702,0.58684 0.45774,0 0.79811,-0.34037 0.79811,-0.72182 0,-0.30516 -0.24061,-0.59858 -0.62792,-0.68073 z m 0,0"
           id="id-48d5f569-c26e-4481-bbd7-2235dbd38007" />
      </g>
    </g>
  </g>
</svg>
