<?xml version="1.0" encoding="UTF-8" standalone="no"?>
<!-- Created with Inkscape (http://www.inkscape.org/) -->

<svg
   width="158.3891mm"
   height="48.021896mm"
   viewBox="0 0 158.3891 48.021896"
   version="1.1"
   id="svg5"
   inkscape:version="1.1 (c4e8f9e, 2021-05-24)"
   sodipodi:docname="sequential_functions.svg"
   xmlns:inkscape="http://www.inkscape.org/namespaces/inkscape"
   xmlns:sodipodi="http://sodipodi.sourceforge.net/DTD/sodipodi-0.dtd"
   xmlns="http://www.w3.org/2000/svg"
   xmlns:svg="http://www.w3.org/2000/svg">
  <sodipodi:namedview
     id="namedview7"
     pagecolor="#ffffff"
     bordercolor="#666666"
     borderopacity="1.0"
     inkscape:pageshadow="2"
     inkscape:pageopacity="0.0"
     inkscape:pagecheckerboard="0"
     inkscape:document-units="mm"
     showgrid="false"
     inkscape:zoom="0.82016651"
     inkscape:cx="209.10388"
     inkscape:cy="57.915069"
     inkscape:window-width="1312"
     inkscape:window-height="847"
     inkscape:window-x="2059"
     inkscape:window-y="45"
     inkscape:window-maximized="0"
     inkscape:current-layer="layer1">
    <inkscape:grid
       type="xygrid"
       id="grid824"
       originx="-17.432651"
       originy="-127" />
  </sodipodi:namedview>
  <defs
     id="defs2">
    <marker
       style="overflow:visible"
       id="Arrow1Lstart"
       refX="0"
       refY="0"
       orient="auto"
       inkscape:stockid="Arrow1Lstart"
       inkscape:isstock="true">
      <path
         transform="matrix(0.8,0,0,0.8,10,0)"
         style="fill:context-stroke;fill-rule:evenodd;stroke:context-stroke;stroke-width:1pt"
         d="M 0,0 5,-5 -12.5,0 5,5 Z"
         id="path981" />
    </marker>
    <defs
       id="id-c22b11a5-c1f7-4641-8e76-6192a15b5ef5">
      <g
         id="id-9be74896-2a9f-47f9-ba7b-dbe027348f00">
        <symbol
           overflow="visible"
           id="id-f0f9d9b9-d6d7-4ffd-8678-be4c945709c2">
          <path
             style="stroke:none;stroke-width:0"
             d=""
             id="id-82f4be1b-006b-4d98-827d-4d4b76de2628" />
        </symbol>
        <symbol
           overflow="visible"
           id="id-dbf2efd0-766e-4702-a6b6-2740aa2d9e39">
          <path
             style="stroke:none;stroke-width:0"
             d="M 1.671875,-3.3125 V -4.40625 L 0.28125,-4.296875 v 0.3125 c 0.703125,0 0.78125,0.0625 0.78125,0.5625 V -0.75 c 0,0.4375 -0.109375,0.4375 -0.78125,0.4375 V 0 c 0.390625,-0.015625 0.859375,-0.03125 1.140625,-0.03125 0.390625,0 0.859375,0 1.265625,0.03125 V -0.3125 H 2.46875 c -0.734375,0 -0.75,-0.109375 -0.75,-0.46875 V -2.3125 c 0,-0.984375 0.421875,-1.875 1.171875,-1.875 0.0625,0 0.09375,0 0.109375,0.015625 -0.03125,0 -0.234375,0.125 -0.234375,0.390625 0,0.265625 0.21875,0.421875 0.4375,0.421875 0.171875,0 0.421875,-0.125 0.421875,-0.4375 0,-0.3125 -0.3125,-0.609375 -0.734375,-0.609375 -0.734375,0 -1.09375,0.671875 -1.21875,1.09375 z m 0,0"
             id="id-906b0b98-ff90-48c5-a229-26571e6d2a45" />
        </symbol>
        <symbol
           overflow="visible"
           id="id-5228e313-bc6e-40a4-95ed-ae5f3a3e8db0">
          <path
             style="stroke:none;stroke-width:0"
             d="M 1.109375,-2.515625 C 1.171875,-4 2.015625,-4.25 2.359375,-4.25 c 1.015625,0 1.125,1.34375 1.125,1.734375 z m 0,0.21875 h 2.78125 c 0.21875,0 0.25,0 0.25,-0.21875 0,-0.984375 -0.546875,-1.953125 -1.78125,-1.953125 -1.15625,0 -2.078125,1.03125 -2.078125,2.28125 0,1.328125 1.046875,2.296875 2.1875,2.296875 C 3.6875,0.109375 4.140625,-1 4.140625,-1.1875 4.140625,-1.28125 4.0625,-1.3125 4,-1.3125 c -0.078125,0 -0.109375,0.0625 -0.125,0.140625 -0.34375,1.03125 -1.25,1.03125 -1.34375,1.03125 -0.5,0 -0.890625,-0.296875 -1.125,-0.671875 -0.296875,-0.46875 -0.296875,-1.125 -0.296875,-1.484375 z m 0,0"
             id="id-0ab744d8-c993-425e-85de-f22068684302" />
        </symbol>
        <symbol
           overflow="visible"
           id="id-10093c81-a50a-488d-a951-388c9a4ae594">
          <path
             style="stroke:none;stroke-width:0"
             d="m 3.3125,-0.75 c 0.046875,0.390625 0.3125,0.8125 0.78125,0.8125 0.21875,0 0.828125,-0.140625 0.828125,-0.953125 v -0.5625 h -0.25 v 0.5625 c 0,0.578125 -0.25,0.640625 -0.359375,0.640625 -0.328125,0 -0.375,-0.453125 -0.375,-0.5 v -1.984375 c 0,-0.421875 0,-0.8125 -0.359375,-1.1875 C 3.1875,-4.3125 2.6875,-4.46875 2.21875,-4.46875 c -0.828125,0 -1.515625,0.46875 -1.515625,1.125 0,0.296875 0.203125,0.46875 0.46875,0.46875 0.28125,0 0.453125,-0.203125 0.453125,-0.453125 0,-0.125 -0.046875,-0.453125 -0.515625,-0.453125 C 1.390625,-4.140625 1.875,-4.25 2.1875,-4.25 c 0.5,0 1.0625,0.390625 1.0625,1.28125 v 0.359375 c -0.515625,0.03125 -1.203125,0.0625 -1.828125,0.359375 -0.75,0.34375 -1,0.859375 -1,1.296875 0,0.8125 0.96875,1.0625 1.59375,1.0625 0.65625,0 1.109375,-0.40625 1.296875,-0.859375 z M 3.25,-2.390625 v 1 c 0,0.9375 -0.71875,1.28125 -1.171875,1.28125 -0.484375,0 -0.890625,-0.34375 -0.890625,-0.84375 0,-0.546875 0.421875,-1.375 2.0625,-1.4375 z m 0,0"
             id="id-bd066adf-15b0-4989-ad32-31ac7610b772" />
        </symbol>
        <symbol
           overflow="visible"
           id="id-6df4be3b-6d55-4df3-a0b4-08d17af561fc">
          <path
             style="stroke:none;stroke-width:0"
             d="M 1.765625,-6.921875 0.328125,-6.8125 V -6.5 c 0.703125,0 0.78125,0.0625 0.78125,0.5625 V -0.75 c 0,0.4375 -0.109375,0.4375 -0.78125,0.4375 V 0 C 0.65625,-0.015625 1.1875,-0.03125 1.4375,-0.03125 c 0.25,0 0.734375,0.015625 1.109375,0.03125 v -0.3125 c -0.671875,0 -0.78125,0 -0.78125,-0.4375 z m 0,0"
             id="id-8c24edf5-fe1f-4532-aa6d-f536debefa33" />
        </symbol>
        <symbol
           overflow="visible"
           id="id-4a421122-990f-4bc8-9b5f-9beed8ec7a19">
          <path
             style="stroke:none;stroke-width:0"
             d="m 1.71875,-3.984375 h 1.4375 v -0.3125 H 1.71875 V -6.125 h -0.25 c 0,0.8125 -0.296875,1.875 -1.28125,1.921875 v 0.21875 h 0.84375 v 2.75 c 0,1.21875 0.9375,1.34375 1.296875,1.34375 0.703125,0 0.984375,-0.703125 0.984375,-1.34375 v -0.5625 h -0.25 V -1.25 c 0,0.734375 -0.296875,1.109375 -0.671875,1.109375 -0.671875,0 -0.671875,-0.90625 -0.671875,-1.078125 z m 0,0"
             id="id-6a1d974c-9289-44d7-a355-90f8f7afea95" />
        </symbol>
        <symbol
           overflow="visible"
           id="id-c0c03a00-226e-4f36-a111-d95bf2d63075">
          <path
             style="stroke:none;stroke-width:0"
             d="M 1.765625,-4.40625 0.375,-4.296875 v 0.3125 c 0.640625,0 0.734375,0.0625 0.734375,0.546875 V -0.75 c 0,0.4375 -0.109375,0.4375 -0.78125,0.4375 V 0 C 0.640625,-0.015625 1.1875,-0.03125 1.421875,-0.03125 1.78125,-0.03125 2.125,-0.015625 2.46875,0 v -0.3125 c -0.671875,0 -0.703125,-0.046875 -0.703125,-0.4375 z m 0.03125,-1.734375 c 0,-0.3125 -0.234375,-0.53125 -0.515625,-0.53125 -0.3125,0 -0.53125,0.265625 -0.53125,0.53125 0,0.265625 0.21875,0.53125 0.53125,0.53125 0.28125,0 0.515625,-0.21875 0.515625,-0.53125 z m 0,0"
             id="id-141adcd0-0581-4512-8c33-ed5165c3d643" />
        </symbol>
        <symbol
           overflow="visible"
           id="id-dde7337c-e950-4b34-915b-0768bbc90587">
          <path
             style="stroke:none;stroke-width:0"
             d="M 1.09375,-3.421875 V -0.75 c 0,0.4375 -0.109375,0.4375 -0.78125,0.4375 V 0 c 0.359375,-0.015625 0.859375,-0.03125 1.140625,-0.03125 0.25,0 0.765625,0.015625 1.109375,0.03125 v -0.3125 c -0.671875,0 -0.78125,0 -0.78125,-0.4375 V -2.59375 C 1.78125,-3.625 2.5,-4.1875 3.125,-4.1875 c 0.640625,0 0.75,0.53125 0.75,1.109375 V -0.75 c 0,0.4375 -0.109375,0.4375 -0.78125,0.4375 V 0 c 0.34375,-0.015625 0.859375,-0.03125 1.125,-0.03125 0.25,0 0.78125,0.015625 1.109375,0.03125 v -0.3125 c -0.65625,0 -0.765625,0 -0.765625,-0.4375 v -1.84375 c 0,-1.03125 0.703125,-1.59375 1.34375,-1.59375 0.625,0 0.734375,0.53125 0.734375,1.109375 V -0.75 c 0,0.4375 -0.109375,0.4375 -0.78125,0.4375 V 0 c 0.34375,-0.015625 0.859375,-0.03125 1.125,-0.03125 0.265625,0 0.78125,0.015625 1.125,0.03125 v -0.3125 c -0.515625,0 -0.765625,0 -0.78125,-0.296875 v -1.90625 c 0,-0.859375 0,-1.15625 -0.3125,-1.515625 -0.140625,-0.171875 -0.46875,-0.375 -1.046875,-0.375 -0.828125,0 -1.28125,0.59375 -1.4375,0.984375 C 4.390625,-4.296875 3.65625,-4.40625 3.203125,-4.40625 2.46875,-4.40625 2,-3.984375 1.71875,-3.359375 V -4.40625 L 0.3125,-4.296875 v 0.3125 c 0.703125,0 0.78125,0.0625 0.78125,0.5625 z m 0,0"
             id="id-84ec481a-e359-4fef-b4eb-7534b447321c" />
        </symbol>
        <symbol
           overflow="visible"
           id="id-1fa10001-5f91-4a03-a6d2-7ce7c1051442">
          <path
             style="stroke:none;stroke-width:0"
             d="m 1.171875,-2.171875 c 0,-1.625 0.8125,-2.046875 1.34375,-2.046875 0.09375,0 0.71875,0.015625 1.0625,0.375 -0.40625,0.03125 -0.46875,0.328125 -0.46875,0.453125 0,0.265625 0.1875,0.453125 0.453125,0.453125 0.265625,0 0.46875,-0.15625 0.46875,-0.46875 0,-0.671875 -0.765625,-1.0625 -1.53125,-1.0625 -1.25,0 -2.15625,1.078125 -2.15625,2.3125 0,1.28125 0.984375,2.265625 2.140625,2.265625 1.328125,0 1.65625,-1.203125 1.65625,-1.296875 0,-0.09375 -0.109375,-0.09375 -0.140625,-0.09375 -0.078125,0 -0.109375,0.03125 -0.125,0.09375 -0.28125,0.921875 -0.9375,1.046875 -1.296875,1.046875 -0.53125,0 -1.40625,-0.421875 -1.40625,-2.03125 z m 0,0"
             id="id-f1c4d3b4-8394-4fa5-9bba-a420e870dd66" />
        </symbol>
        <symbol
           overflow="visible"
           id="id-a15f912d-782e-48b8-91c3-eca7612958af">
          <path
             style="stroke:none;stroke-width:0"
             d="M 4.6875,-2.140625 C 4.6875,-3.40625 3.703125,-4.46875 2.5,-4.46875 c -1.25,0 -2.21875,1.09375 -2.21875,2.328125 0,1.296875 1.03125,2.25 2.203125,2.25 1.203125,0 2.203125,-0.984375 2.203125,-2.25 z m -2.1875,2 c -0.4375,0 -0.875,-0.203125 -1.140625,-0.671875 -0.25,-0.4375 -0.25,-1.046875 -0.25,-1.40625 0,-0.390625 0,-0.921875 0.234375,-1.359375 C 1.609375,-4.03125 2.078125,-4.25 2.484375,-4.25 c 0.4375,0 0.859375,0.21875 1.125,0.65625 0.265625,0.421875 0.265625,1 0.265625,1.375 0,0.359375 0,0.90625 -0.21875,1.34375 C 3.421875,-0.421875 2.984375,-0.140625 2.5,-0.140625 Z m 0,0"
             id="id-61adbe79-2b69-4454-9286-45966d05aa5d" />
        </symbol>
        <symbol
           overflow="visible"
           id="id-6ca7bc10-2318-49bc-a055-bd081a34d789">
          <path
             style="stroke:none;stroke-width:0"
             d="m 1.71875,-3.75 v -0.65625 l -1.4375,0.109375 v 0.3125 c 0.703125,0 0.78125,0.0625 0.78125,0.5 v 4.65625 C 1.0625,1.625 0.953125,1.625 0.28125,1.625 V 1.9375 C 0.625,1.921875 1.140625,1.90625 1.390625,1.90625 c 0.28125,0 0.78125,0.015625 1.125,0.03125 V 1.625 C 1.859375,1.625 1.75,1.625 1.75,1.171875 V -0.59375 c 0.046875,0.171875 0.46875,0.703125 1.21875,0.703125 1.1875,0 2.21875,-0.984375 2.21875,-2.265625 0,-1.265625 -0.953125,-2.25 -2.078125,-2.25 -0.78125,0 -1.203125,0.4375 -1.390625,0.65625 z M 1.75,-1.140625 v -2.21875 C 2.03125,-3.875 2.515625,-4.15625 3.03125,-4.15625 c 0.734375,0 1.328125,0.875 1.328125,2 0,1.203125 -0.6875,2.046875 -1.421875,2.046875 -0.40625,0 -0.78125,-0.203125 -1.046875,-0.609375 C 1.75,-0.921875 1.75,-0.9375 1.75,-1.140625 Z m 0,0"
             id="id-d5548648-a4c8-4a52-a36b-a37e76f2b1bc" />
        </symbol>
        <symbol
           overflow="visible"
           id="id-5c2aea02-235b-432b-b2ad-c8ac1b226e3b">
          <path
             style="stroke:none;stroke-width:0"
             d="M 3.890625,-0.78125 V 0.109375 L 5.328125,0 V -0.3125 C 4.640625,-0.3125 4.5625,-0.375 4.5625,-0.875 v -3.53125 l -1.46875,0.109375 v 0.3125 c 0.6875,0 0.78125,0.0625 0.78125,0.5625 v 1.765625 c 0,0.875 -0.484375,1.546875 -1.21875,1.546875 -0.828125,0 -0.875,-0.46875 -0.875,-0.984375 v -3.3125 L 0.3125,-4.296875 v 0.3125 c 0.78125,0 0.78125,0.03125 0.78125,0.90625 v 1.5 c 0,0.78125 0,1.6875 1.515625,1.6875 0.5625,0 1,-0.28125 1.28125,-0.890625 z m 0,0"
             id="id-40b48c19-7cce-4f91-bc12-4153b12e56db" />
        </symbol>
      </g>
    </defs>
    <defs
       id="id-15fdee0a-7b53-40b1-ac30-033810f270b0">
      <g
         id="id-6c3e7765-c8f6-4423-a434-1638f01d0d70">
        <symbol
           overflow="visible"
           id="id-a018464c-1778-4479-8e4e-e46e2118c8c1">
          <path
             style="stroke:none"
             d=""
             id="id-1130ca8d-2284-4872-959a-c7426ca59363" />
        </symbol>
        <symbol
           overflow="visible"
           id="id-2b40e63e-056c-4691-afee-761d95b8d621">
          <path
             style="stroke:none"
             d="m 3.09375,-5.796875 c 0,-0.15625 0,-0.40625 -0.296875,-0.40625 -0.1875,0 -0.25,0.125 -0.296875,0.234375 C 2.125,-5.109375 1.609375,-5 1.421875,-4.984375 c -0.171875,0.015625 -0.375,0.03125 -0.375,0.3125 0,0.25 0.171875,0.296875 0.328125,0.296875 0.1875,0 0.59375,-0.0625 1.03125,-0.4375 v 4.203125 H 1.5 c -0.15625,0 -0.390625,0 -0.390625,0.3125 C 1.109375,0 1.359375,0 1.5,0 H 4 c 0.15625,0 0.40625,0 0.40625,-0.296875 0,-0.3125 -0.234375,-0.3125 -0.40625,-0.3125 H 3.09375 Z m 0,0"
             id="id-1182d7fc-c9f4-4721-9914-bd55535ffe8a" />
        </symbol>
        <symbol
           overflow="visible"
           id="id-4be9d72f-0b27-404e-bdbe-7e733b762780">
          <path
             style="stroke:none"
             d="M 0.671875,-0.578125 C 0.578125,-0.5 0.515625,-0.453125 0.515625,-0.3125 0.515625,0 0.765625,0 0.921875,0 H 4.3125 c 0.328125,0 0.390625,-0.09375 0.390625,-0.40625 v -0.265625 c 0,-0.1875 0,-0.40625 -0.34375,-0.40625 -0.34375,0 -0.34375,0.1875 -0.34375,0.46875 h -2.375 c 0.59375,-0.5 1.546875,-1.25 1.984375,-1.65625 0.625,-0.5625 1.078125,-1.1875 1.078125,-1.984375 0,-1.203125 -1,-1.953125 -2.21875,-1.953125 -1.171875,0 -1.96875,0.8125 -1.96875,1.671875 0,0.359375 0.28125,0.46875 0.453125,0.46875 0.203125,0 0.4375,-0.171875 0.4375,-0.4375 0,-0.125 -0.046875,-0.25 -0.140625,-0.328125 0.15625,-0.453125 0.625,-0.765625 1.171875,-0.765625 0.8125,0 1.578125,0.453125 1.578125,1.34375 0,0.6875 -0.484375,1.265625 -1.140625,1.8125 z m 0,0"
             id="id-aae9ffd1-3923-4577-bdf1-4b0582ebb330" />
        </symbol>
        <symbol
           overflow="visible"
           id="id-12c50917-8d23-47d2-a122-0d7603704a00">
          <path
             style="stroke:none"
             d="M 3.65625,-3.328125 C 4.21875,-3.6875 4.5,-4.25 4.5,-4.796875 c 0,-0.734375 -0.734375,-1.40625 -1.875,-1.40625 -1.203125,0 -1.890625,0.484375 -1.890625,1.171875 0,0.328125 0.25,0.46875 0.4375,0.46875 0.21875,0 0.4375,-0.171875 0.4375,-0.453125 0,-0.140625 -0.046875,-0.234375 -0.078125,-0.265625 0.296875,-0.3125 1.015625,-0.3125 1.09375,-0.3125 0.6875,0 1.1875,0.359375 1.1875,0.8125 0,0.296875 -0.15625,0.640625 -0.421875,0.859375 C 3.078125,-3.65625 2.828125,-3.640625 2.46875,-3.625 1.890625,-3.578125 1.75,-3.578125 1.75,-3.296875 c 0,0.3125 0.234375,0.3125 0.390625,0.3125 h 0.46875 c 0.984375,0 1.484375,0.671875 1.484375,1.25 C 4.09375,-1.125 3.53125,-0.5 2.625,-0.5 2.234375,-0.5 1.46875,-0.609375 1.203125,-1.078125 1.25,-1.125 1.328125,-1.1875 1.328125,-1.390625 c 0,-0.234375 -0.1875,-0.4375 -0.4375,-0.4375 -0.234375,0 -0.453125,0.15625 -0.453125,0.46875 0,0.890625 0.96875,1.46875 2.1875,1.46875 1.3125,0 2.15625,-0.921875 2.15625,-1.84375 0,-0.703125 -0.46875,-1.296875 -1.125,-1.59375 z m 0,0"
             id="id-3b21d533-94a0-4bb4-95bd-6564b8c63770" />
        </symbol>
        <symbol
           overflow="visible"
           id="id-469085ad-df95-4f2a-87be-c3cb71d29cfc">
          <path
             style="stroke:none"
             d="M 0.375,-2.4375 C 0.296875,-2.296875 0.296875,-2.28125 0.296875,-2.078125 0.296875,-1.75 0.375,-1.6875 0.6875,-1.6875 h 2.515625 v 1.078125 h -0.625 c -0.15625,0 -0.390625,0 -0.390625,0.3125 C 2.1875,0 2.4375,0 2.578125,0 H 4.375 c 0.15625,0 0.40625,0 0.40625,-0.296875 0,-0.3125 -0.25,-0.3125 -0.40625,-0.3125 H 3.765625 V -1.6875 H 4.53125 c 0.15625,0 0.40625,0 0.40625,-0.296875 0,-0.3125 -0.25,-0.3125 -0.40625,-0.3125 H 3.765625 v -3.5 c 0,-0.328125 -0.078125,-0.40625 -0.421875,-0.40625 H 3.078125 c -0.25,0 -0.296875,0 -0.421875,0.203125 z m 0.609375,0.140625 2.21875,-3.46875 v 3.46875 z m 0,0"
             id="id-ea26e664-5b97-458c-8fb7-7b43c39a8021" />
        </symbol>
        <symbol
           overflow="visible"
           id="id-2119570a-c397-4749-9cfa-ac81392cfd34">
          <path
             style="stroke:none"
             d="m 2.765625,-3.875 c -0.359375,0 -0.796875,0.0625 -1.203125,0.28125 v -1.890625 h 2.390625 c 0.15625,0 0.40625,0 0.40625,-0.296875 0,-0.3125 -0.25,-0.3125 -0.40625,-0.3125 H 1.28125 C 0.953125,-6.09375 0.875,-6 0.875,-5.6875 v 2.65625 c 0,0.1875 0,0.40625 0.328125,0.40625 0.171875,0 0.21875,-0.046875 0.296875,-0.140625 0.265625,-0.328125 0.671875,-0.5 1.25,-0.5 0.8125,0 1.265625,0.71875 1.265625,1.375 C 4.015625,-1.09375 3.3125,-0.5 2.46875,-0.5 2.1875,-0.5 1.5625,-0.578125 1.28125,-1.125 c 0.046875,-0.046875 0.125,-0.125 0.125,-0.328125 0,-0.28125 -0.234375,-0.4375 -0.4375,-0.4375 -0.15625,0 -0.453125,0.09375 -0.453125,0.46875 0,0.828125 0.84375,1.53125 1.953125,1.53125 1.25,0 2.234375,-0.890625 2.234375,-2 0,-1.015625 -0.765625,-1.984375 -1.9375,-1.984375 z m 0,0"
             id="id-3cb9a829-0958-4aef-aff2-1a57dccaca4c" />
        </symbol>
        <symbol
           overflow="visible"
           id="id-2501ceb1-664d-4cbe-a696-0c0bc38d0b58">
          <path
             style="stroke:none"
             d="M 1.234375,-3.375 C 1.375,-4.78125 2.3125,-5.59375 3.1875,-5.59375 c 0.34375,0 0.5,0.109375 0.546875,0.15625 -0.046875,0.046875 -0.09375,0.109375 -0.09375,0.296875 0,0.234375 0.171875,0.4375 0.4375,0.4375 0.25,0 0.453125,-0.171875 0.453125,-0.46875 0,-0.484375 -0.359375,-1.03125 -1.328125,-1.03125 -1.34375,0 -2.671875,1.203125 -2.671875,3.21875 0,2.359375 1.109375,3.09375 2.09375,3.09375 1.09375,0 2.0625,-0.84375 2.0625,-2.03125 0,-1.140625 -0.875,-2.03125 -1.96875,-2.03125 -0.515625,0 -1.03125,0.171875 -1.484375,0.578125 z M 2.625,-0.5 c -0.640625,0 -1.03125,-0.484375 -1.234375,-1.09375 -0.015625,-0.0625 -0.03125,-0.125 -0.046875,-0.1875 0,0 -0.015625,-0.03125 -0.015625,-0.03125 0,0 0.015625,-0.09375 0.015625,-0.09375 -0.015625,-0.0625 -0.03125,-0.234375 -0.03125,-0.3125 0,-0.609375 0.59375,-1.109375 1.359375,-1.109375 C 3.484375,-3.328125 4,-2.65625 4,-1.921875 4,-1.0625 3.34375,-0.5 2.625,-0.5 Z m 0,0"
             id="id-b10ec08a-489c-41c3-8320-557142c7c46f" />
        </symbol>
        <symbol
           overflow="visible"
           id="id-d2e1f31f-94f9-4b9d-917b-c85b20bcf3dd">
          <path
             style="stroke:none"
             d="m 3.765625,-5.484375 c -1.734375,1.828125 -2.078125,4.03125 -2.078125,5.125 0,0.140625 0,0.46875 0.359375,0.46875 C 2.21875,0.109375 2.375,0 2.375,-0.296875 2.4375,-3.125 3.953125,-4.859375 4.5625,-5.4375 4.765625,-5.625 4.78125,-5.640625 4.78125,-5.78125 c 0,-0.3125 -0.234375,-0.3125 -0.390625,-0.3125 H 1.09375 C 1.03125,-6.25 0.859375,-6.25 0.78125,-6.25 0.4375,-6.25 0.4375,-6.03125 0.4375,-5.84375 v 0.421875 c 0,0.1875 0,0.40625 0.34375,0.40625 0.34375,0 0.34375,-0.1875 0.34375,-0.46875 z m 0,0"
             id="id-7adb1b60-6105-4313-b4de-bcc6e3fdee53" />
        </symbol>
        <symbol
           overflow="visible"
           id="id-ce241be6-7659-4702-840b-178548fed8de">
          <path
             style="stroke:none"
             d=""
             id="id-ad736820-6c7a-4e9c-8b99-a1192722d9eb" />
        </symbol>
        <symbol
           overflow="visible"
           id="id-8199336f-4900-49e5-845a-c07d7451d16b">
          <path
             style="stroke:none"
             d="m 1.90625,-0.53125 c 0,-0.28125 -0.234375,-0.53125 -0.515625,-0.53125 -0.296875,0 -0.53125,0.25 -0.53125,0.53125 C 0.859375,-0.234375 1.09375,0 1.390625,0 1.671875,0 1.90625,-0.234375 1.90625,-0.53125 Z m 0,0"
             id="id-0b234007-3a72-4953-a401-5741008c04f7" />
        </symbol>
      </g>
    </defs>
    <defs
       id="id-0c528df6-df69-4d7e-a8b6-8a01e7164db8">
      <g
         id="id-f3a87759-3f20-4641-a30b-0a6ae5c189f9">
        <symbol
           overflow="visible"
           id="id-46fa3275-02d6-4547-917e-f2efa8c26047">
          <path
             style="stroke:none;stroke-width:0"
             d=""
             id="id-4d6cbc47-1f17-444a-913e-bc144602ad38" />
        </symbol>
        <symbol
           overflow="visible"
           id="id-85d3ddfa-fa29-4c68-a3e4-a0a0cef2249e">
          <path
             style="stroke:none;stroke-width:0"
             d="m 3.09375,-5.796875 c 0,-0.15625 0,-0.40625 -0.296875,-0.40625 -0.1875,0 -0.25,0.125 -0.296875,0.234375 C 2.125,-5.109375 1.609375,-5 1.421875,-4.984375 c -0.171875,0.015625 -0.375,0.03125 -0.375,0.3125 0,0.25 0.171875,0.296875 0.328125,0.296875 0.1875,0 0.59375,-0.0625 1.03125,-0.4375 v 4.203125 H 1.5 c -0.15625,0 -0.390625,0 -0.390625,0.3125 C 1.109375,0 1.359375,0 1.5,0 H 4 c 0.15625,0 0.40625,0 0.40625,-0.296875 0,-0.3125 -0.234375,-0.3125 -0.40625,-0.3125 H 3.09375 Z m 0,0"
             id="id-cc5f50cd-ed4f-4c0e-9b79-c8c446b9ec7b" />
        </symbol>
        <symbol
           overflow="visible"
           id="id-57d98260-a72d-459f-bc51-d7173ff4caa2">
          <path
             style="stroke:none;stroke-width:0"
             d="m 4.71875,-3.046875 c 0,-1.84375 -1.015625,-3.15625 -2.109375,-3.15625 C 1.5,-6.203125 0.5,-4.859375 0.5,-3.046875 c 0,1.84375 1.015625,3.15625 2.109375,3.15625 1.125,0 2.109375,-1.328125 2.109375,-3.15625 z M 2.609375,-0.5 C 1.828125,-0.5 1.1875,-1.671875 1.1875,-3.15625 c 0,-1.453125 0.6875,-2.4375 1.421875,-2.4375 0.734375,0 1.421875,0.984375 1.421875,2.4375 0,1.484375 -0.640625,2.65625 -1.421875,2.65625 z m 0,0"
             id="id-f379346e-6898-41bc-b9ff-2619c90470a0" />
        </symbol>
      </g>
    </defs>
    <defs
       id="id-c3f427a1-6225-4c47-b007-4bd89c616b27">
      <g
         id="id-83ad4d6c-19e6-498d-9958-ca972a4f74b1">
        <symbol
           overflow="visible"
           id="id-87748508-ffda-468d-af51-1c10d9171d7f">
          <path
             style="stroke:none;stroke-width:0"
             d=""
             id="id-3a432ddf-0246-4175-ba65-2989348b01b4" />
        </symbol>
        <symbol
           overflow="visible"
           id="id-a3e95164-95fd-440c-9a45-6236d1274523">
          <path
             style="stroke:none;stroke-width:0"
             d="m 3.15625,-5.828125 c -0.09375,-0.375 -0.234375,-0.375 -0.546875,-0.375 -0.28125,0 -0.453125,0 -0.53125,0.375 L 0.875,-0.609375 c -0.140625,0 -0.375,0 -0.4375,0.015625 -0.109375,0.0625 -0.171875,0.171875 -0.171875,0.296875 C 0.265625,0 0.53125,0 0.703125,0 H 1.71875 c 0.171875,0 0.421875,0 0.421875,-0.296875 0,-0.3125 -0.203125,-0.3125 -0.5625,-0.3125 l 0.21875,-1.03125 h 1.625 l 0.234375,1.03125 c -0.359375,0 -0.5625,0 -0.5625,0.3125 C 3.09375,0 3.328125,0 3.515625,0 H 4.53125 c 0.15625,0 0.421875,0 0.421875,-0.296875 0,-0.125 -0.046875,-0.234375 -0.171875,-0.28125 C 4.71875,-0.609375 4.5,-0.609375 4.359375,-0.609375 Z M 2.609375,-5.40625 H 2.625 L 3.265625,-2.25 h -1.3125 z m 0,0"
             id="id-4e99e208-3344-45c6-a0c6-bec414d9950e" />
        </symbol>
        <symbol
           overflow="visible"
           id="id-a7beb0cf-7198-4716-ab58-1ce02ff4ed71">
          <path
             style="stroke:none;stroke-width:0"
             d="M 1.890625,-5.734375 C 1.78125,-6.0625 1.625,-6.09375 1.359375,-6.09375 h -0.6875 c -0.140625,0 -0.390625,0 -0.390625,0.296875 0,0.3125 0.234375,0.3125 0.390625,0.3125 h 0.25 v 4.875 h -0.25 c -0.140625,0 -0.390625,0 -0.390625,0.296875 C 0.28125,0 0.515625,0 0.671875,0 h 1.0625 c 0.15625,0 0.40625,0 0.40625,-0.296875 0,-0.3125 -0.25,-0.3125 -0.40625,-0.3125 h -0.25 V -5.34375 H 1.5 l 1.828125,4.984375 C 3.453125,-0.015625 3.625,0 3.875,0 4.171875,0 4.296875,-0.03125 4.296875,-0.40625 v -5.078125 h 0.25 c 0.140625,0 0.390625,0 0.390625,-0.296875 0,-0.3125 -0.234375,-0.3125 -0.390625,-0.3125 h -1.0625 c -0.15625,0 -0.390625,0 -0.390625,0.3125 0,0.296875 0.25,0.296875 0.390625,0.296875 h 0.25 V -0.75 Z m 0,0"
             id="id-2d1e815c-1aae-48d4-956b-fa45b6dc1a58" />
        </symbol>
        <symbol
           overflow="visible"
           id="id-e177d838-7b8e-4628-aa3a-f12f1558df1d">
          <path
             style="stroke:none;stroke-width:0"
             d="m 0.59375,-6.09375 c -0.15625,0 -0.40625,0 -0.40625,0.3125 0,0.296875 0.265625,0.296875 0.40625,0.296875 H 0.8125 v 4.875 H 0.59375 c -0.15625,0 -0.40625,0 -0.40625,0.3125 C 0.1875,0 0.453125,0 0.59375,0 h 2.0625 c 1.296875,0 2.171875,-1.390625 2.171875,-3 0,-1.59375 -0.84375,-3.09375 -2.171875,-3.09375 z M 1.5,-0.609375 v -4.875 h 0.96875 c 1.125,0 1.671875,1.328125 1.671875,2.484375 0,1.171875 -0.578125,2.390625 -1.671875,2.390625 z m 0,0"
             id="id-05977083-6e0f-4ade-873d-d0c195784905" />
        </symbol>
        <symbol
           overflow="visible"
           id="id-4353a647-0936-466f-953f-954b3916d599">
          <path
             style="stroke:none;stroke-width:0"
             d="m 4.359375,0.53125 c 0,-0.140625 -0.078125,-0.1875 -0.25,-0.296875 C 2.875,-0.609375 2.40625,-1.9375 2.40625,-3.046875 c 0,-1 0.390625,-2.390625 1.71875,-3.296875 0.15625,-0.109375 0.234375,-0.140625 0.234375,-0.296875 0,-0.078125 -0.046875,-0.28125 -0.3125,-0.28125 -0.28125,0 -2.328125,1.3125 -2.328125,3.875 0,1.1875 0.46875,2.078125 0.8125,2.578125 0.53125,0.734375 1.28125,1.28125 1.515625,1.28125 0.265625,0 0.3125,-0.1875 0.3125,-0.28125 z m 0,0"
             id="id-8c809b1f-570f-46f4-883e-905fd2b6e210" />
        </symbol>
        <symbol
           overflow="visible"
           id="id-924cbfd0-12a4-4158-b10e-9ea451aeb73e">
          <path
             style="stroke:none;stroke-width:0"
             d="M 3.65625,-0.3125 C 3.875,-0.015625 4.34375,0 4.71875,0 c 0.28125,0 0.5,0 0.5,-0.3125 0,-0.296875 -0.25,-0.296875 -0.390625,-0.296875 -0.421875,0 -0.515625,-0.046875 -0.59375,-0.078125 v -2.15625 c 0,-0.703125 -0.546875,-1.546875 -1.984375,-1.546875 -0.421875,0 -1.4375,0 -1.4375,0.734375 0,0.296875 0.203125,0.453125 0.4375,0.453125 0.15625,0 0.4375,-0.09375 0.4375,-0.453125 0,-0.078125 0.015625,-0.09375 0.21875,-0.109375 0.140625,-0.015625 0.265625,-0.015625 0.359375,-0.015625 0.75,0 1.265625,0.3125 1.265625,1.015625 -1.75,0.03125 -2.984375,0.53125 -2.984375,1.484375 0,0.6875 0.625,1.34375 1.640625,1.34375 0.375,0 1,-0.078125 1.46875,-0.375 z m -0.125,-1.859375 v 0.84375 c 0,0.21875 0,0.4375 -0.375,0.609375 -0.359375,0.171875 -0.8125,0.171875 -0.890625,0.171875 -0.625,0 -1.03125,-0.34375 -1.03125,-0.734375 0,-0.484375 0.859375,-0.859375 2.296875,-0.890625 z m 0,0"
             id="id-2c87a6d1-d8ac-4503-8103-6585c1b9a397" />
        </symbol>
        <symbol
           overflow="visible"
           id="id-6b010224-ec51-40e0-87ce-62cf33357c7e">
          <path
             style="stroke:none;stroke-width:0"
             d="M 2.8125,-0.03125 C 2.65625,0.59375 2.1875,0.75 2.078125,0.78125 1.96875,0.8125 1.796875,0.875 1.796875,1.0625 c 0,0.15625 0.140625,0.328125 0.3125,0.328125 0.328125,0 1.34375,-0.546875 1.34375,-1.640625 0,-0.609375 -0.390625,-1 -0.828125,-1 C 2.21875,-1.25 2,-0.953125 2,-0.625 2,-0.25 2.28125,0 2.609375,0 c 0.0625,0 0.125,-0.015625 0.203125,-0.03125 z m 0,0"
             id="id-9c1a22f6-a869-4492-8a19-3e52eb11c743" />
        </symbol>
        <symbol
           overflow="visible"
           id="id-58ad05e5-8ea9-4183-a034-664187bce01f">
          <path
             style="stroke:none;stroke-width:0"
             d="m 1.65625,-3.875 v -1.8125 c 0,-0.296875 -0.0625,-0.40625 -0.40625,-0.40625 H 0.53125 c -0.15625,0 -0.40625,0 -0.40625,0.3125 0,0.296875 0.25,0.296875 0.390625,0.296875 H 0.96875 V -0.40625 C 0.96875,-0.203125 0.96875,0 1.3125,0 1.65625,0 1.65625,-0.203125 1.65625,-0.453125 2.0625,-0.03125 2.5,0.0625 2.8125,0.0625 c 1.078125,0 2.046875,-0.953125 2.046875,-2.21875 0,-1.21875 -0.875,-2.203125 -1.9375,-2.203125 C 2.4375,-4.359375 2,-4.171875 1.65625,-3.875 Z m 0,1.96875 V -2.625 c 0,-0.59375 0.578125,-1.125 1.203125,-1.125 0.734375,0 1.3125,0.734375 1.3125,1.59375 0,0.953125 -0.6875,1.609375 -1.390625,1.609375 -0.78125,0 -1.125,-0.875 -1.125,-1.359375 z m 0,0"
             id="id-bdff8f57-de40-447a-be2e-559880db648e" />
        </symbol>
        <symbol
           overflow="visible"
           id="id-cc9375b7-6524-4cb2-884a-7fc7b1e78e7e">
          <path
             style="stroke:none;stroke-width:0"
             d="m 3.515625,-3.046875 c 0,-1.1875 -0.46875,-2.09375 -0.8125,-2.578125 -0.53125,-0.734375 -1.28125,-1.296875 -1.515625,-1.296875 -0.25,0 -0.3125,0.203125 -0.3125,0.28125 0,0.15625 0.109375,0.21875 0.15625,0.25 1.640625,1.09375 1.796875,2.6875 1.796875,3.34375 0,1 -0.375,2.375 -1.71875,3.28125 C 0.953125,0.34375 0.875,0.390625 0.875,0.53125 c 0,0.09375 0.0625,0.28125 0.3125,0.28125 0.28125,0 2.328125,-1.3125 2.328125,-3.859375 z m 0,0"
             id="id-7f3bf3ce-21ac-483e-8e81-d291fd74f7fe" />
        </symbol>
        <symbol
           overflow="visible"
           id="id-b759cf60-06f0-4246-852e-97a9274580b1">
          <path
             style="stroke:none;stroke-width:0"
             d="m 4.671875,-3.046875 c 0,-2.875 -0.21875,-3.15625 -2.0625,-3.15625 -1.84375,0 -2.046875,0.265625 -2.046875,3.15625 0,2.890625 0.203125,3.15625 2.046875,3.15625 1.84375,0 2.0625,-0.265625 2.0625,-3.15625 z M 2.609375,-0.5 c -0.875,0 -1.125,-0.203125 -1.25,-0.703125 C 1.25,-1.71875 1.25,-2.578125 1.25,-3.125 c 0,-0.625 0,-1.296875 0.109375,-1.765625 0.125,-0.578125 0.4375,-0.703125 1.25,-0.703125 0.75,0 1.09375,0.09375 1.25,0.640625 0.125,0.46875 0.125,1.21875 0.125,1.828125 0,0.609375 0,1.328125 -0.109375,1.859375 C 3.765625,-0.703125 3.5,-0.5 2.609375,-0.5 Z m 0,0"
             id="id-bd50ab83-e9f3-4e97-b9cb-927e0e81a841" />
        </symbol>
        <symbol
           overflow="visible"
           id="id-214cfb92-e008-4489-a8db-a7046a0f68b0">
          <path
             style="stroke:none;stroke-width:0"
             d="M 2.953125,-5.484375 H 4.28125 v 0.53125 c 0,0.1875 0,0.40625 0.328125,0.40625 0.359375,0 0.359375,-0.203125 0.359375,-0.40625 V -5.6875 c 0,-0.296875 -0.0625,-0.40625 -0.40625,-0.40625 H 0.671875 c -0.328125,0 -0.40625,0.078125 -0.40625,0.40625 v 0.734375 c 0,0.1875 0,0.40625 0.328125,0.40625 0.359375,0 0.359375,-0.203125 0.359375,-0.40625 v -0.53125 h 1.3125 v 4.875 H 1.75 c -0.140625,0 -0.390625,0 -0.390625,0.296875 C 1.359375,0 1.59375,0 1.75,0 H 3.484375 C 3.625,0 3.875,0 3.875,-0.296875 c 0,-0.3125 -0.234375,-0.3125 -0.390625,-0.3125 h -0.53125 z m 0,0"
             id="id-5b7b4116-8194-43df-b5e1-f3ed889cf0e4" />
        </symbol>
        <symbol
           overflow="visible"
           id="id-838939cf-06bd-4e56-8776-b5d42858172d">
          <path
             style="stroke:none;stroke-width:0"
             d="m 4.640625,-1.09375 c 0,-0.265625 -0.28125,-0.265625 -0.34375,-0.265625 -0.15625,0 -0.265625,0.015625 -0.328125,0.21875 -0.0625,0.125 -0.25,0.59375 -0.984375,0.59375 -0.84375,0 -1.5625,-0.703125 -1.5625,-1.609375 0,-0.46875 0.265625,-1.625 1.625,-1.625 0.203125,0 0.59375,0 0.59375,0.09375 0.015625,0.34375 0.203125,0.484375 0.4375,0.484375 0.234375,0 0.453125,-0.171875 0.453125,-0.453125 0,-0.734375 -1.046875,-0.734375 -1.484375,-0.734375 -1.71875,0 -2.3125,1.359375 -2.3125,2.234375 0,1.203125 0.9375,2.21875 2.1875,2.21875 1.390625,0 1.71875,-0.984375 1.71875,-1.15625 z m 0,0"
             id="id-acaab724-1271-446e-a7f7-4ca45fa5237c" />
        </symbol>
        <symbol
           overflow="visible"
           id="id-71b78c9c-1124-445f-b016-d952d1101d20">
          <path
             style="stroke:none;stroke-width:0"
             d="m 1.5625,-5.484375 h 0.703125 c 0.921875,0 1.359375,0.59375 1.359375,1.0625 0,0.5 -0.4375,1.078125 -1.359375,1.078125 H 1.5625 Z M 3.46875,-3.03125 C 4.125,-3.40625 4.3125,-4 4.3125,-4.421875 4.3125,-5.28125 3.5625,-6.09375 2.375,-6.09375 h -1.75 c -0.171875,0 -0.40625,0 -0.40625,0.3125 0,0.296875 0.25,0.296875 0.40625,0.296875 h 0.25 v 4.875 h -0.25 c -0.171875,0 -0.40625,0 -0.40625,0.3125 C 0.21875,0 0.46875,0 0.625,0 h 1.171875 c 0.15625,0 0.40625,0 0.40625,-0.296875 0,-0.3125 -0.234375,-0.3125 -0.40625,-0.3125 H 1.5625 v -2.125 h 0.765625 c 0.1875,0 0.5,0 0.8125,0.265625 0.21875,0.21875 0.21875,0.4375 0.21875,0.859375 0,0.640625 0,0.9375 0.1875,1.265625 C 3.71875,-0.046875 4,0.109375 4.34375,0.109375 c 0.625,0 0.859375,-0.65625 0.859375,-1.03125 C 5.203125,-1.25 4.96875,-1.25 4.859375,-1.25 4.75,-1.25 4.53125,-1.25 4.515625,-0.953125 4.515625,-0.875 4.5,-0.5 4.328125,-0.5 c -0.28125,0 -0.28125,-0.453125 -0.28125,-0.984375 0,-0.625 0,-0.703125 -0.09375,-0.9375 -0.109375,-0.296875 -0.34375,-0.5 -0.484375,-0.609375 z m 0,0"
             id="id-bf2fe648-0d02-44fc-9d8d-d43201df1d76" />
        </symbol>
        <symbol
           overflow="visible"
           id="id-dcde33ab-eddb-4ff2-8846-b86c0dd47868">
          <path
             style="stroke:none;stroke-width:0"
             d="m 3.5625,-0.5 c 0,0.359375 0,0.5 0.40625,0.5 H 4.6875 c 0.171875,0 0.421875,0 0.421875,-0.3125 0,-0.296875 -0.265625,-0.296875 -0.40625,-0.296875 H 4.25 V -5.6875 c 0,-0.296875 -0.046875,-0.40625 -0.390625,-0.40625 H 3.125 c -0.15625,0 -0.40625,0 -0.40625,0.3125 0,0.296875 0.265625,0.296875 0.40625,0.296875 H 3.5625 V -3.90625 C 3.234375,-4.203125 2.828125,-4.359375 2.40625,-4.359375 c -1.09375,0 -2.046875,0.953125 -2.046875,2.21875 0,1.234375 0.890625,2.203125 1.953125,2.203125 0.5625,0 0.984375,-0.265625 1.25,-0.5625 z m 0,-2.140625 V -1.9375 c 0,0.5625 -0.4375,1.390625 -1.203125,1.390625 -0.71875,0 -1.3125,-0.703125 -1.3125,-1.59375 C 1.046875,-3.09375 1.75,-3.75 2.4375,-3.75 c 0.640625,0 1.125,0.5625 1.125,1.109375 z m 0,0"
             id="id-e3fea128-7a01-4cf5-9134-4554e5807b01" />
        </symbol>
        <symbol
           overflow="visible"
           id="id-f11da272-3680-4988-ad56-71546b1c08c9">
          <path
             style="stroke:none;stroke-width:0"
             d="m 4.234375,-1.90625 c 0.203125,0 0.390625,0 0.390625,-0.359375 0,-1.140625 -0.640625,-2.125 -1.9375,-2.125 -1.1875,0 -2.140625,1 -2.140625,2.234375 0,1.203125 1.015625,2.21875 2.296875,2.21875 1.3125,0 1.78125,-0.90625 1.78125,-1.15625 0,-0.265625 -0.28125,-0.265625 -0.34375,-0.265625 -0.1875,0 -0.265625,0.03125 -0.328125,0.21875 -0.21875,0.5 -0.765625,0.59375 -1.046875,0.59375 -0.75,0 -1.484375,-0.5 -1.65625,-1.359375 z M 1.265625,-2.5 C 1.40625,-3.234375 2,-3.78125 2.6875,-3.78125 c 0.515625,0 1.140625,0.25 1.234375,1.28125 z m 0,0"
             id="id-6b55b348-4eed-4192-b7ab-0b75294e9d8b" />
        </symbol>
        <symbol
           overflow="visible"
           id="id-96dd786d-03de-4532-af5e-253b1cfc395e">
          <path
             style="stroke:none;stroke-width:0"
             d="m 3.09375,-5.796875 c 0,-0.15625 0,-0.40625 -0.296875,-0.40625 -0.1875,0 -0.25,0.125 -0.296875,0.234375 C 2.125,-5.109375 1.609375,-5 1.421875,-4.984375 c -0.171875,0.015625 -0.375,0.03125 -0.375,0.3125 0,0.25 0.171875,0.296875 0.328125,0.296875 0.1875,0 0.59375,-0.0625 1.03125,-0.4375 v 4.203125 H 1.5 c -0.15625,0 -0.390625,0 -0.390625,0.3125 C 1.109375,0 1.359375,0 1.5,0 H 4 c 0.15625,0 0.40625,0 0.40625,-0.296875 0,-0.3125 -0.234375,-0.3125 -0.40625,-0.3125 H 3.09375 Z m 0,0"
             id="id-b7b08c92-80e6-4622-92b9-ffcaa25fcd73" />
        </symbol>
        <symbol
           overflow="visible"
           id="id-6c9dbd2a-bf9d-4524-9d39-f65195959b93">
          <path
             style="stroke:none;stroke-width:0"
             d="M 1.234375,-3.375 C 1.375,-4.78125 2.3125,-5.59375 3.1875,-5.59375 c 0.34375,0 0.5,0.109375 0.546875,0.15625 -0.046875,0.046875 -0.09375,0.109375 -0.09375,0.296875 0,0.234375 0.171875,0.4375 0.4375,0.4375 0.25,0 0.453125,-0.171875 0.453125,-0.46875 0,-0.484375 -0.359375,-1.03125 -1.328125,-1.03125 -1.34375,0 -2.671875,1.203125 -2.671875,3.21875 0,2.359375 1.109375,3.09375 2.09375,3.09375 1.09375,0 2.0625,-0.84375 2.0625,-2.03125 0,-1.140625 -0.875,-2.03125 -1.96875,-2.03125 -0.515625,0 -1.03125,0.171875 -1.484375,0.578125 z M 2.625,-0.5 c -0.640625,0 -1.03125,-0.484375 -1.234375,-1.09375 -0.015625,-0.0625 -0.03125,-0.125 -0.046875,-0.1875 0,0 -0.015625,-0.03125 -0.015625,-0.03125 0,0 0.015625,-0.09375 0.015625,-0.09375 -0.015625,-0.0625 -0.03125,-0.234375 -0.03125,-0.3125 0,-0.609375 0.59375,-1.109375 1.359375,-1.109375 C 3.484375,-3.328125 4,-2.65625 4,-1.921875 4,-1.0625 3.34375,-0.5 2.625,-0.5 Z m 0,0"
             id="id-baf86a45-0f8e-4132-9199-443ad0f622c1" />
        </symbol>
        <symbol
           overflow="visible"
           id="id-56c673e6-0340-4d3a-9f90-9b81d96a4be4">
          <path
             style="stroke:none;stroke-width:0"
             d="m 2.515625,-3.6875 h 1.21875 c 0.15625,0 0.40625,0 0.40625,-0.296875 0,-0.3125 -0.25,-0.3125 -0.40625,-0.3125 h -1.21875 v -0.46875 c 0,-0.78125 0.671875,-0.78125 0.96875,-0.78125 0,0.046875 0.09375,0.4375 0.4375,0.4375 0.203125,0 0.4375,-0.171875 0.4375,-0.4375 0,-0.609375 -0.796875,-0.609375 -0.953125,-0.609375 -0.796875,0 -1.578125,0.46875 -1.578125,1.328125 v 0.53125 H 0.84375 c -0.171875,0 -0.421875,0 -0.421875,0.3125 0,0.296875 0.25,0.296875 0.40625,0.296875 h 1 v 3.078125 h -1 c -0.15625,0 -0.40625,0 -0.40625,0.296875 C 0.421875,0 0.671875,0 0.828125,0 H 3.53125 c 0.140625,0 0.40625,0 0.40625,-0.296875 0,-0.3125 -0.265625,-0.3125 -0.40625,-0.3125 H 2.515625 Z m 0,0"
             id="id-ac68822c-35ca-41e7-aff5-1c32ccb2e055" />
        </symbol>
        <symbol
           overflow="visible"
           id="id-2e5be2d6-41ef-4f5d-b01d-c875135b9acd">
          <path
             style="stroke:none;stroke-width:0"
             d="m 2.328125,-1.75 c -0.546875,0 -0.96875,-0.46875 -0.96875,-1 0,-0.5625 0.4375,-1.015625 0.96875,-1.015625 0.53125,0 0.953125,0.46875 0.953125,1 0,0.578125 -0.4375,1.015625 -0.953125,1.015625 z m -0.90625,0.34375 c 0.03125,0.015625 0.40625,0.25 0.90625,0.25 0.90625,0 1.640625,-0.71875 1.640625,-1.609375 C 3.96875,-3.0625 3.875,-3.34375 3.703125,-3.625 3.921875,-3.75 4.15625,-3.78125 4.28125,-3.796875 c 0.0625,0.265625 0.296875,0.34375 0.390625,0.34375 0.171875,0 0.40625,-0.125 0.40625,-0.421875 0,-0.21875 -0.1875,-0.53125 -0.734375,-0.53125 -0.109375,0 -0.59375,0.015625 -1.046875,0.34375 C 3.125,-4.171875 2.78125,-4.359375 2.328125,-4.359375 c -0.9375,0 -1.65625,0.75 -1.65625,1.59375 C 0.671875,-2.328125 0.84375,-2 1,-1.8125 c -0.109375,0.15625 -0.203125,0.375 -0.203125,0.671875 0,0.359375 0.140625,0.609375 0.234375,0.71875 -0.734375,0.453125 -0.734375,1.125 -0.734375,1.234375 0,0.859375 1.03125,1.46875 2.3125,1.46875 C 3.890625,2.28125 4.9375,1.671875 4.9375,0.8125 4.9375,0.453125 4.75,-0.046875 4.25,-0.3125 4.109375,-0.390625 3.703125,-0.609375 2.796875,-0.609375 h -0.6875 c -0.078125,0 -0.21875,0 -0.296875,-0.015625 -0.140625,0 -0.203125,0 -0.328125,-0.140625 -0.109375,-0.140625 -0.125,-0.34375 -0.125,-0.359375 0,-0.046875 0.03125,-0.1875 0.0625,-0.28125 z m 1.1875,3.09375 c -1,0 -1.734375,-0.4375 -1.734375,-0.875 0,-0.171875 0.078125,-0.5 0.40625,-0.6875 0.25,-0.171875 0.328125,-0.171875 1.0625,-0.171875 0.890625,0 2.015625,0 2.015625,0.859375 0,0.4375 -0.75,0.875 -1.75,0.875 z m 0,0"
             id="id-699a3f0f-a596-4367-b608-6257ebb2e02a" />
        </symbol>
      </g>
    </defs>
  </defs>
  <g
     inkscape:label="Layer 1"
     inkscape:groupmode="layer"
     id="layer1"
     transform="translate(-17.432653,-127)">
    <g
       id="g2596">
      <path
         style="fill:none;stroke:#dc0000;stroke-width:0.79375;stroke-linecap:butt;stroke-linejoin:miter;stroke-miterlimit:4;stroke-dasharray:none;stroke-opacity:1"
         d="M 42.333333,169.33333 V 127"
         id="path1339" />
      <path
         style="fill:none;stroke:#dc0000;stroke-width:0.79375;stroke-linecap:butt;stroke-linejoin:miter;stroke-miterlimit:4;stroke-dasharray:none;stroke-opacity:1"
         d="M 63.5,169.33333 V 127"
         id="path1341" />
      <path
         style="fill:none;stroke:#dc0000;stroke-width:0.79375;stroke-linecap:butt;stroke-linejoin:miter;stroke-miterlimit:4;stroke-dasharray:none;stroke-opacity:1"
         d="M 84.666667,169.33333 V 127"
         id="path1423" />
      <path
         style="fill:none;stroke:#dc0000;stroke-width:0.79375;stroke-linecap:butt;stroke-linejoin:miter;stroke-miterlimit:4;stroke-dasharray:none;stroke-opacity:1"
         d="M 105.83333,169.33333 V 127"
         id="path1425" />
      <rect
         style="font-variation-settings:normal;fill:#0e232e;fill-opacity:1;fill-rule:evenodd;stroke:#364e59;stroke-width:0.79375;stroke-linecap:butt;stroke-linejoin:miter;stroke-miterlimit:4;stroke-dasharray:none;stroke-dashoffset:0;stroke-opacity:1;stop-color:#000000"
         id="rect1574"
         width="21.166662"
         height="7.9375052"
         x="63.500004"
         y="166.68752"
         ry="5.0862632e-06" />
      <rect
         style="font-variation-settings:normal;fill:#0e232e;fill-opacity:1;fill-rule:evenodd;stroke:#364e59;stroke-width:0.79375;stroke-linecap:butt;stroke-linejoin:miter;stroke-miterlimit:4;stroke-dasharray:none;stroke-dashoffset:0;stroke-opacity:1;stop-color:#000000"
         id="rect1576"
         width="21.16667"
         height="7.9375052"
         x="84.666664"
         y="166.68752"
         ry="5.0862632e-06" />
      <rect
         style="font-variation-settings:normal;fill:#0e232e;fill-opacity:1;fill-rule:evenodd;stroke:#364e59;stroke-width:0.79375;stroke-linecap:butt;stroke-linejoin:miter;stroke-miterlimit:4;stroke-dasharray:none;stroke-dashoffset:0;stroke-opacity:1;stop-color:#000000"
         id="rect1473"
         width="21.166668"
         height="7.9375052"
         x="42.333332"
         y="166.6875"
         ry="5.0862632e-06" />
      <g
         style="fill:#ff9900;fill-opacity:1"
         id="id-c641d789-78e2-460d-9e23-dec4669db330"
         transform="matrix(0.42903204,0,0,0.42903204,-19.55076,114.02429)">
        <g
           transform="translate(148.712,134.765)"
           id="g1642"
           style="fill:#ff9900;fill-opacity:1">
          <path
             style="fill:#ff9900;fill-opacity:1;stroke:none;stroke-width:0"
             d="m 3.15625,-5.828125 c -0.09375,-0.375 -0.234375,-0.375 -0.546875,-0.375 -0.28125,0 -0.453125,0 -0.53125,0.375 L 0.875,-0.609375 c -0.140625,0 -0.375,0 -0.4375,0.015625 -0.109375,0.0625 -0.171875,0.171875 -0.171875,0.296875 C 0.265625,0 0.53125,0 0.703125,0 H 1.71875 c 0.171875,0 0.421875,0 0.421875,-0.296875 0,-0.3125 -0.203125,-0.3125 -0.5625,-0.3125 l 0.21875,-1.03125 h 1.625 l 0.234375,1.03125 c -0.359375,0 -0.5625,0 -0.5625,0.3125 C 3.09375,0 3.328125,0 3.515625,0 H 4.53125 c 0.15625,0 0.421875,0 0.421875,-0.296875 0,-0.125 -0.046875,-0.234375 -0.171875,-0.28125 C 4.71875,-0.609375 4.5,-0.609375 4.359375,-0.609375 Z M 2.609375,-5.40625 H 2.625 L 3.265625,-2.25 h -1.3125 z m 0,0"
             id="id-7f5ac1d3-3a6a-4eaf-99dc-04947237a477" />
        </g>
        <g
           transform="translate(153.942,134.765)"
           id="g1645"
           style="fill:#ff9900;fill-opacity:1">
          <path
             style="fill:#ff9900;fill-opacity:1;stroke:none;stroke-width:0"
             d="M 1.890625,-5.734375 C 1.78125,-6.0625 1.625,-6.09375 1.359375,-6.09375 h -0.6875 c -0.140625,0 -0.390625,0 -0.390625,0.296875 0,0.3125 0.234375,0.3125 0.390625,0.3125 h 0.25 v 4.875 h -0.25 c -0.140625,0 -0.390625,0 -0.390625,0.296875 C 0.28125,0 0.515625,0 0.671875,0 h 1.0625 c 0.15625,0 0.40625,0 0.40625,-0.296875 0,-0.3125 -0.25,-0.3125 -0.40625,-0.3125 h -0.25 V -5.34375 H 1.5 l 1.828125,4.984375 C 3.453125,-0.015625 3.625,0 3.875,0 4.171875,0 4.296875,-0.03125 4.296875,-0.40625 v -5.078125 h 0.25 c 0.140625,0 0.390625,0 0.390625,-0.296875 0,-0.3125 -0.234375,-0.3125 -0.390625,-0.3125 h -1.0625 c -0.15625,0 -0.390625,0 -0.390625,0.3125 0,0.296875 0.25,0.296875 0.390625,0.296875 h 0.25 V -0.75 Z m 0,0"
             id="id-6d7c212a-ba62-446b-8eb1-119311e65c92" />
        </g>
        <g
           transform="translate(159.173,134.765)"
           id="g1648"
           style="fill:#ff9900;fill-opacity:1">
          <path
             style="fill:#ff9900;fill-opacity:1;stroke:none;stroke-width:0"
             d="m 0.59375,-6.09375 c -0.15625,0 -0.40625,0 -0.40625,0.3125 0,0.296875 0.265625,0.296875 0.40625,0.296875 H 0.8125 v 4.875 H 0.59375 c -0.15625,0 -0.40625,0 -0.40625,0.3125 C 0.1875,0 0.453125,0 0.59375,0 h 2.0625 c 1.296875,0 2.171875,-1.390625 2.171875,-3 0,-1.59375 -0.84375,-3.09375 -2.171875,-3.09375 z M 1.5,-0.609375 v -4.875 h 0.96875 c 1.125,0 1.671875,1.328125 1.671875,2.484375 0,1.171875 -0.578125,2.390625 -1.671875,2.390625 z m 0,0"
             id="id-4d50525f-c517-45a5-9a15-f59eeb2ac986" />
        </g>
        <g
           transform="translate(164.403,134.765)"
           id="g1651"
           style="fill:#ff9900;fill-opacity:1">
          <path
             style="fill:#ff9900;fill-opacity:1;stroke:none;stroke-width:0"
             d="m 4.359375,0.53125 c 0,-0.140625 -0.078125,-0.1875 -0.25,-0.296875 C 2.875,-0.609375 2.40625,-1.9375 2.40625,-3.046875 c 0,-1 0.390625,-2.390625 1.71875,-3.296875 0.15625,-0.109375 0.234375,-0.140625 0.234375,-0.296875 0,-0.078125 -0.046875,-0.28125 -0.3125,-0.28125 -0.28125,0 -2.328125,1.3125 -2.328125,3.875 0,1.1875 0.46875,2.078125 0.8125,2.578125 0.53125,0.734375 1.28125,1.28125 1.515625,1.28125 0.265625,0 0.3125,-0.1875 0.3125,-0.28125 z m 0,0"
             id="id-e42d6462-ffa0-43c5-84e3-a948633be29c" />
        </g>
        <g
           transform="translate(169.633,134.765)"
           id="g1654"
           style="fill:#ff9900;fill-opacity:1">
          <path
             style="fill:#ff9900;fill-opacity:1;stroke:none;stroke-width:0"
             d="M 3.65625,-0.3125 C 3.875,-0.015625 4.34375,0 4.71875,0 c 0.28125,0 0.5,0 0.5,-0.3125 0,-0.296875 -0.25,-0.296875 -0.390625,-0.296875 -0.421875,0 -0.515625,-0.046875 -0.59375,-0.078125 v -2.15625 c 0,-0.703125 -0.546875,-1.546875 -1.984375,-1.546875 -0.421875,0 -1.4375,0 -1.4375,0.734375 0,0.296875 0.203125,0.453125 0.4375,0.453125 0.15625,0 0.4375,-0.09375 0.4375,-0.453125 0,-0.078125 0.015625,-0.09375 0.21875,-0.109375 0.140625,-0.015625 0.265625,-0.015625 0.359375,-0.015625 0.75,0 1.265625,0.3125 1.265625,1.015625 -1.75,0.03125 -2.984375,0.53125 -2.984375,1.484375 0,0.6875 0.625,1.34375 1.640625,1.34375 0.375,0 1,-0.078125 1.46875,-0.375 z m -0.125,-1.859375 v 0.84375 c 0,0.21875 0,0.4375 -0.375,0.609375 -0.359375,0.171875 -0.8125,0.171875 -0.890625,0.171875 -0.625,0 -1.03125,-0.34375 -1.03125,-0.734375 0,-0.484375 0.859375,-0.859375 2.296875,-0.890625 z m 0,0"
             id="id-143b8550-cd32-4c04-86a3-0916dd80ab4e" />
        </g>
        <g
           transform="translate(174.864,134.765)"
           id="g1657"
           style="fill:#ff9900;fill-opacity:1">
          <path
             style="fill:#ff9900;fill-opacity:1;stroke:none;stroke-width:0"
             d="M 2.8125,-0.03125 C 2.65625,0.59375 2.1875,0.75 2.078125,0.78125 1.96875,0.8125 1.796875,0.875 1.796875,1.0625 c 0,0.15625 0.140625,0.328125 0.3125,0.328125 0.328125,0 1.34375,-0.546875 1.34375,-1.640625 0,-0.609375 -0.390625,-1 -0.828125,-1 C 2.21875,-1.25 2,-0.953125 2,-0.625 2,-0.25 2.28125,0 2.609375,0 c 0.0625,0 0.125,-0.015625 0.203125,-0.03125 z m 0,0"
             id="id-e28a236a-d38e-430a-afaf-d8b38e8b5936" />
        </g>
        <g
           transform="translate(180.094,134.765)"
           id="g1660"
           style="fill:#ff9900;fill-opacity:1">
          <path
             style="fill:#ff9900;fill-opacity:1;stroke:none;stroke-width:0"
             d="m 1.65625,-3.875 v -1.8125 c 0,-0.296875 -0.0625,-0.40625 -0.40625,-0.40625 H 0.53125 c -0.15625,0 -0.40625,0 -0.40625,0.3125 0,0.296875 0.25,0.296875 0.390625,0.296875 H 0.96875 V -0.40625 C 0.96875,-0.203125 0.96875,0 1.3125,0 1.65625,0 1.65625,-0.203125 1.65625,-0.453125 2.0625,-0.03125 2.5,0.0625 2.8125,0.0625 c 1.078125,0 2.046875,-0.953125 2.046875,-2.21875 0,-1.21875 -0.875,-2.203125 -1.9375,-2.203125 C 2.4375,-4.359375 2,-4.171875 1.65625,-3.875 Z m 0,1.96875 V -2.625 c 0,-0.59375 0.578125,-1.125 1.203125,-1.125 0.734375,0 1.3125,0.734375 1.3125,1.59375 0,0.953125 -0.6875,1.609375 -1.390625,1.609375 -0.78125,0 -1.125,-0.875 -1.125,-1.359375 z m 0,0"
             id="id-70b954b8-dd28-4d2d-873a-14e6f72e3d34" />
        </g>
        <g
           transform="translate(185.325,134.765)"
           id="g1663"
           style="fill:#ff9900;fill-opacity:1">
          <path
             style="fill:#ff9900;fill-opacity:1;stroke:none;stroke-width:0"
             d="m 3.515625,-3.046875 c 0,-1.1875 -0.46875,-2.09375 -0.8125,-2.578125 -0.53125,-0.734375 -1.28125,-1.296875 -1.515625,-1.296875 -0.25,0 -0.3125,0.203125 -0.3125,0.28125 0,0.15625 0.109375,0.21875 0.15625,0.25 1.640625,1.09375 1.796875,2.6875 1.796875,3.34375 0,1 -0.375,2.375 -1.71875,3.28125 C 0.953125,0.34375 0.875,0.390625 0.875,0.53125 c 0,0.09375 0.0625,0.28125 0.3125,0.28125 0.28125,0 2.328125,-1.3125 2.328125,-3.859375 z m 0,0"
             id="id-66489ca9-62db-41ef-a8df-1e7d02674855" />
        </g>
      </g>
      <g
         id="g2183"
         transform="translate(74.178827,-45.13082)">
        <g
           style="fill:#000000;fill-opacity:1"
           id="id-d80d7c22-6ff8-41c9-b73e-741484319769"
           transform="matrix(0.709456,0,0,0.709456,-48.788079,89.520897)">
          <g
             transform="translate(148.712,134.765)"
             id="g1891">
            <path
               style="stroke:none;stroke-width:0"
               d="M 1.671875,-3.3125 V -4.40625 L 0.28125,-4.296875 v 0.3125 c 0.703125,0 0.78125,0.0625 0.78125,0.5625 V -0.75 c 0,0.4375 -0.109375,0.4375 -0.78125,0.4375 V 0 c 0.390625,-0.015625 0.859375,-0.03125 1.140625,-0.03125 0.390625,0 0.859375,0 1.265625,0.03125 V -0.3125 H 2.46875 c -0.734375,0 -0.75,-0.109375 -0.75,-0.46875 V -2.3125 c 0,-0.984375 0.421875,-1.875 1.171875,-1.875 0.0625,0 0.09375,0 0.109375,0.015625 -0.03125,0 -0.234375,0.125 -0.234375,0.390625 0,0.265625 0.21875,0.421875 0.4375,0.421875 0.171875,0 0.421875,-0.125 0.421875,-0.4375 0,-0.3125 -0.3125,-0.609375 -0.734375,-0.609375 -0.734375,0 -1.09375,0.671875 -1.21875,1.09375 z m 0,0"
               id="id-4024d53c-8af4-47ee-9ba1-b7e8a33098f7" />
          </g>
          <g
             transform="translate(152.614,134.765)"
             id="g1894">
            <path
               style="stroke:none;stroke-width:0"
               d="M 1.109375,-2.515625 C 1.171875,-4 2.015625,-4.25 2.359375,-4.25 c 1.015625,0 1.125,1.34375 1.125,1.734375 z m 0,0.21875 h 2.78125 c 0.21875,0 0.25,0 0.25,-0.21875 0,-0.984375 -0.546875,-1.953125 -1.78125,-1.953125 -1.15625,0 -2.078125,1.03125 -2.078125,2.28125 0,1.328125 1.046875,2.296875 2.1875,2.296875 C 3.6875,0.109375 4.140625,-1 4.140625,-1.1875 4.140625,-1.28125 4.0625,-1.3125 4,-1.3125 c -0.078125,0 -0.109375,0.0625 -0.125,0.140625 -0.34375,1.03125 -1.25,1.03125 -1.34375,1.03125 -0.5,0 -0.890625,-0.296875 -1.125,-0.671875 -0.296875,-0.46875 -0.296875,-1.125 -0.296875,-1.484375 z m 0,0"
               id="id-5892600e-dcf6-4ff9-8185-b2b1f6b0e3bb" />
          </g>
          <g
             transform="translate(157.042,134.765)"
             id="g1897">
            <path
               style="stroke:none;stroke-width:0"
               d="m 3.3125,-0.75 c 0.046875,0.390625 0.3125,0.8125 0.78125,0.8125 0.21875,0 0.828125,-0.140625 0.828125,-0.953125 v -0.5625 h -0.25 v 0.5625 c 0,0.578125 -0.25,0.640625 -0.359375,0.640625 -0.328125,0 -0.375,-0.453125 -0.375,-0.5 v -1.984375 c 0,-0.421875 0,-0.8125 -0.359375,-1.1875 C 3.1875,-4.3125 2.6875,-4.46875 2.21875,-4.46875 c -0.828125,0 -1.515625,0.46875 -1.515625,1.125 0,0.296875 0.203125,0.46875 0.46875,0.46875 0.28125,0 0.453125,-0.203125 0.453125,-0.453125 0,-0.125 -0.046875,-0.453125 -0.515625,-0.453125 C 1.390625,-4.140625 1.875,-4.25 2.1875,-4.25 c 0.5,0 1.0625,0.390625 1.0625,1.28125 v 0.359375 c -0.515625,0.03125 -1.203125,0.0625 -1.828125,0.359375 -0.75,0.34375 -1,0.859375 -1,1.296875 0,0.8125 0.96875,1.0625 1.59375,1.0625 0.65625,0 1.109375,-0.40625 1.296875,-0.859375 z M 3.25,-2.390625 v 1 c 0,0.9375 -0.71875,1.28125 -1.171875,1.28125 -0.484375,0 -0.890625,-0.34375 -0.890625,-0.84375 0,-0.546875 0.421875,-1.375 2.0625,-1.4375 z m 0,0"
               id="id-c2c1c516-8a78-48bc-8307-350bb21ca062" />
          </g>
          <g
             transform="translate(162.023,134.765)"
             id="g1900">
            <path
               style="stroke:none;stroke-width:0"
               d="M 1.765625,-6.921875 0.328125,-6.8125 V -6.5 c 0.703125,0 0.78125,0.0625 0.78125,0.5625 V -0.75 c 0,0.4375 -0.109375,0.4375 -0.78125,0.4375 V 0 C 0.65625,-0.015625 1.1875,-0.03125 1.4375,-0.03125 c 0.25,0 0.734375,0.015625 1.109375,0.03125 v -0.3125 c -0.671875,0 -0.78125,0 -0.78125,-0.4375 z m 0,0"
               id="id-6cd54003-0fac-4e59-b59b-9c06b1022975" />
          </g>
        </g>
        <g
           style="fill:#000000;fill-opacity:1"
           id="id-33cdee4e-c3ea-4fca-a0bc-b244fc4cbf45"
           transform="matrix(0.709456,0,0,0.709456,-48.788079,89.520897)">
          <g
             transform="translate(168.108,134.765)"
             id="g1904">
            <path
               style="stroke:none;stroke-width:0"
               d="m 1.71875,-3.984375 h 1.4375 v -0.3125 H 1.71875 V -6.125 h -0.25 c 0,0.8125 -0.296875,1.875 -1.28125,1.921875 v 0.21875 h 0.84375 v 2.75 c 0,1.21875 0.9375,1.34375 1.296875,1.34375 0.703125,0 0.984375,-0.703125 0.984375,-1.34375 v -0.5625 h -0.25 V -1.25 c 0,0.734375 -0.296875,1.109375 -0.671875,1.109375 -0.671875,0 -0.671875,-0.90625 -0.671875,-1.078125 z m 0,0"
               id="id-a12e37b5-28ad-4804-953f-b3b477f4dc05" />
          </g>
          <g
             transform="translate(171.983,134.765)"
             id="g1907">
            <path
               style="stroke:none;stroke-width:0"
               d="M 1.765625,-4.40625 0.375,-4.296875 v 0.3125 c 0.640625,0 0.734375,0.0625 0.734375,0.546875 V -0.75 c 0,0.4375 -0.109375,0.4375 -0.78125,0.4375 V 0 C 0.640625,-0.015625 1.1875,-0.03125 1.421875,-0.03125 1.78125,-0.03125 2.125,-0.015625 2.46875,0 v -0.3125 c -0.671875,0 -0.703125,-0.046875 -0.703125,-0.4375 z m 0.03125,-1.734375 c 0,-0.3125 -0.234375,-0.53125 -0.515625,-0.53125 -0.3125,0 -0.53125,0.265625 -0.53125,0.53125 0,0.265625 0.21875,0.53125 0.53125,0.53125 0.28125,0 0.515625,-0.21875 0.515625,-0.53125 z m 0,0"
               id="id-91008c96-1aea-4996-b305-e3ee174947d2" />
          </g>
          <g
             transform="translate(174.75,134.765)"
             id="g1910">
            <path
               style="stroke:none;stroke-width:0"
               d="M 1.09375,-3.421875 V -0.75 c 0,0.4375 -0.109375,0.4375 -0.78125,0.4375 V 0 c 0.359375,-0.015625 0.859375,-0.03125 1.140625,-0.03125 0.25,0 0.765625,0.015625 1.109375,0.03125 v -0.3125 c -0.671875,0 -0.78125,0 -0.78125,-0.4375 V -2.59375 C 1.78125,-3.625 2.5,-4.1875 3.125,-4.1875 c 0.640625,0 0.75,0.53125 0.75,1.109375 V -0.75 c 0,0.4375 -0.109375,0.4375 -0.78125,0.4375 V 0 c 0.34375,-0.015625 0.859375,-0.03125 1.125,-0.03125 0.25,0 0.78125,0.015625 1.109375,0.03125 v -0.3125 c -0.65625,0 -0.765625,0 -0.765625,-0.4375 v -1.84375 c 0,-1.03125 0.703125,-1.59375 1.34375,-1.59375 0.625,0 0.734375,0.53125 0.734375,1.109375 V -0.75 c 0,0.4375 -0.109375,0.4375 -0.78125,0.4375 V 0 c 0.34375,-0.015625 0.859375,-0.03125 1.125,-0.03125 0.265625,0 0.78125,0.015625 1.125,0.03125 v -0.3125 c -0.515625,0 -0.765625,0 -0.78125,-0.296875 v -1.90625 c 0,-0.859375 0,-1.15625 -0.3125,-1.515625 -0.140625,-0.171875 -0.46875,-0.375 -1.046875,-0.375 -0.828125,0 -1.28125,0.59375 -1.4375,0.984375 C 4.390625,-4.296875 3.65625,-4.40625 3.203125,-4.40625 2.46875,-4.40625 2,-3.984375 1.71875,-3.359375 V -4.40625 L 0.3125,-4.296875 v 0.3125 c 0.703125,0 0.78125,0.0625 0.78125,0.5625 z m 0,0"
               id="id-7c068bcf-332b-4a24-b978-1b0ed159fbeb" />
          </g>
          <g
             transform="translate(183.052,134.765)"
             id="g1913">
            <path
               style="stroke:none;stroke-width:0"
               d="M 1.109375,-2.515625 C 1.171875,-4 2.015625,-4.25 2.359375,-4.25 c 1.015625,0 1.125,1.34375 1.125,1.734375 z m 0,0.21875 h 2.78125 c 0.21875,0 0.25,0 0.25,-0.21875 0,-0.984375 -0.546875,-1.953125 -1.78125,-1.953125 -1.15625,0 -2.078125,1.03125 -2.078125,2.28125 0,1.328125 1.046875,2.296875 2.1875,2.296875 C 3.6875,0.109375 4.140625,-1 4.140625,-1.1875 4.140625,-1.28125 4.0625,-1.3125 4,-1.3125 c -0.078125,0 -0.109375,0.0625 -0.125,0.140625 -0.34375,1.03125 -1.25,1.03125 -1.34375,1.03125 -0.5,0 -0.890625,-0.296875 -1.125,-0.671875 -0.296875,-0.46875 -0.296875,-1.125 -0.296875,-1.484375 z m 0,0"
               id="id-fedbf2ac-f34a-4e18-b467-78b6c232ee07" />
          </g>
        </g>
      </g>
      <g
         id="g2211"
         transform="translate(44.269936,-33.961739)">
        <g
           style="fill:#000000;fill-opacity:1"
           id="id-90caff77-ad63-4a7d-8542-9171d961179e"
           transform="matrix(0.709456,0,0,0.709456,-48.788079,89.520897)">
          <g
             transform="translate(190.807,134.765)"
             id="g1917">
            <path
               style="stroke:none;stroke-width:0"
               d="m 1.171875,-2.171875 c 0,-1.625 0.8125,-2.046875 1.34375,-2.046875 0.09375,0 0.71875,0.015625 1.0625,0.375 -0.40625,0.03125 -0.46875,0.328125 -0.46875,0.453125 0,0.265625 0.1875,0.453125 0.453125,0.453125 0.265625,0 0.46875,-0.15625 0.46875,-0.46875 0,-0.671875 -0.765625,-1.0625 -1.53125,-1.0625 -1.25,0 -2.15625,1.078125 -2.15625,2.3125 0,1.28125 0.984375,2.265625 2.140625,2.265625 1.328125,0 1.65625,-1.203125 1.65625,-1.296875 0,-0.09375 -0.109375,-0.09375 -0.140625,-0.09375 -0.078125,0 -0.109375,0.03125 -0.125,0.09375 -0.28125,0.921875 -0.9375,1.046875 -1.296875,1.046875 -0.53125,0 -1.40625,-0.421875 -1.40625,-2.03125 z m 0,0"
               id="id-9b38d4f3-d2e8-4b69-9911-e6d62e8856e9" />
          </g>
          <g
             transform="translate(195.234,134.765)"
             id="g1920">
            <path
               style="stroke:none;stroke-width:0"
               d="M 4.6875,-2.140625 C 4.6875,-3.40625 3.703125,-4.46875 2.5,-4.46875 c -1.25,0 -2.21875,1.09375 -2.21875,2.328125 0,1.296875 1.03125,2.25 2.203125,2.25 1.203125,0 2.203125,-0.984375 2.203125,-2.25 z m -2.1875,2 c -0.4375,0 -0.875,-0.203125 -1.140625,-0.671875 -0.25,-0.4375 -0.25,-1.046875 -0.25,-1.40625 0,-0.390625 0,-0.921875 0.234375,-1.359375 C 1.609375,-4.03125 2.078125,-4.25 2.484375,-4.25 c 0.4375,0 0.859375,0.21875 1.125,0.65625 0.265625,0.421875 0.265625,1 0.265625,1.375 0,0.359375 0,0.90625 -0.21875,1.34375 C 3.421875,-0.421875 2.984375,-0.140625 2.5,-0.140625 Z m 0,0"
               id="id-6e7f8edc-9b4e-4c3d-bd26-0acdd4952980" />
          </g>
          <g
             transform="translate(200.216,134.765)"
             id="g1923">
            <path
               style="stroke:none;stroke-width:0"
               d="M 1.09375,-3.421875 V -0.75 c 0,0.4375 -0.109375,0.4375 -0.78125,0.4375 V 0 c 0.359375,-0.015625 0.859375,-0.03125 1.140625,-0.03125 0.25,0 0.765625,0.015625 1.109375,0.03125 v -0.3125 c -0.671875,0 -0.78125,0 -0.78125,-0.4375 V -2.59375 C 1.78125,-3.625 2.5,-4.1875 3.125,-4.1875 c 0.640625,0 0.75,0.53125 0.75,1.109375 V -0.75 c 0,0.4375 -0.109375,0.4375 -0.78125,0.4375 V 0 c 0.34375,-0.015625 0.859375,-0.03125 1.125,-0.03125 0.25,0 0.78125,0.015625 1.109375,0.03125 v -0.3125 c -0.65625,0 -0.765625,0 -0.765625,-0.4375 v -1.84375 c 0,-1.03125 0.703125,-1.59375 1.34375,-1.59375 0.625,0 0.734375,0.53125 0.734375,1.109375 V -0.75 c 0,0.4375 -0.109375,0.4375 -0.78125,0.4375 V 0 c 0.34375,-0.015625 0.859375,-0.03125 1.125,-0.03125 0.265625,0 0.78125,0.015625 1.125,0.03125 v -0.3125 c -0.515625,0 -0.765625,0 -0.78125,-0.296875 v -1.90625 c 0,-0.859375 0,-1.15625 -0.3125,-1.515625 -0.140625,-0.171875 -0.46875,-0.375 -1.046875,-0.375 -0.828125,0 -1.28125,0.59375 -1.4375,0.984375 C 4.390625,-4.296875 3.65625,-4.40625 3.203125,-4.40625 2.46875,-4.40625 2,-3.984375 1.71875,-3.359375 V -4.40625 L 0.3125,-4.296875 v 0.3125 c 0.703125,0 0.78125,0.0625 0.78125,0.5625 z m 0,0"
               id="id-d7ec9a12-71d0-4e9d-b773-60a5cc0a5f00" />
          </g>
          <g
             transform="translate(208.517,134.765)"
             id="g1926">
            <path
               style="stroke:none;stroke-width:0"
               d="m 1.71875,-3.75 v -0.65625 l -1.4375,0.109375 v 0.3125 c 0.703125,0 0.78125,0.0625 0.78125,0.5 v 4.65625 C 1.0625,1.625 0.953125,1.625 0.28125,1.625 V 1.9375 C 0.625,1.921875 1.140625,1.90625 1.390625,1.90625 c 0.28125,0 0.78125,0.015625 1.125,0.03125 V 1.625 C 1.859375,1.625 1.75,1.625 1.75,1.171875 V -0.59375 c 0.046875,0.171875 0.46875,0.703125 1.21875,0.703125 1.1875,0 2.21875,-0.984375 2.21875,-2.265625 0,-1.265625 -0.953125,-2.25 -2.078125,-2.25 -0.78125,0 -1.203125,0.4375 -1.390625,0.65625 z M 1.75,-1.140625 v -2.21875 C 2.03125,-3.875 2.515625,-4.15625 3.03125,-4.15625 c 0.734375,0 1.328125,0.875 1.328125,2 0,1.203125 -0.6875,2.046875 -1.421875,2.046875 -0.40625,0 -0.78125,-0.203125 -1.046875,-0.609375 C 1.75,-0.921875 1.75,-0.9375 1.75,-1.140625 Z m 0,0"
               id="id-959bede8-78c9-4c48-a347-d5659887ff3d" />
          </g>
          <g
             transform="translate(214.053,134.765)"
             id="g1929">
            <path
               style="stroke:none;stroke-width:0"
               d="M 3.890625,-0.78125 V 0.109375 L 5.328125,0 V -0.3125 C 4.640625,-0.3125 4.5625,-0.375 4.5625,-0.875 v -3.53125 l -1.46875,0.109375 v 0.3125 c 0.6875,0 0.78125,0.0625 0.78125,0.5625 v 1.765625 c 0,0.875 -0.484375,1.546875 -1.21875,1.546875 -0.828125,0 -0.875,-0.46875 -0.875,-0.984375 v -3.3125 L 0.3125,-4.296875 v 0.3125 c 0.78125,0 0.78125,0.03125 0.78125,0.90625 v 1.5 c 0,0.78125 0,1.6875 1.515625,1.6875 0.5625,0 1,-0.28125 1.28125,-0.890625 z m 0,0"
               id="id-743ff7e9-d3ac-40c3-aae0-618ce838f862" />
          </g>
          <g
             transform="translate(219.588,134.765)"
             id="g1932">
            <path
               style="stroke:none;stroke-width:0"
               d="m 1.71875,-3.984375 h 1.4375 v -0.3125 H 1.71875 V -6.125 h -0.25 c 0,0.8125 -0.296875,1.875 -1.28125,1.921875 v 0.21875 h 0.84375 v 2.75 c 0,1.21875 0.9375,1.34375 1.296875,1.34375 0.703125,0 0.984375,-0.703125 0.984375,-1.34375 v -0.5625 h -0.25 V -1.25 c 0,0.734375 -0.296875,1.109375 -0.671875,1.109375 -0.671875,0 -0.671875,-0.90625 -0.671875,-1.078125 z m 0,0"
               id="id-1d7c55ff-917e-4410-9acc-3feb272bb02a" />
          </g>
          <g
             transform="translate(223.462,134.765)"
             id="g1935">
            <path
               style="stroke:none;stroke-width:0"
               d="M 1.109375,-2.515625 C 1.171875,-4 2.015625,-4.25 2.359375,-4.25 c 1.015625,0 1.125,1.34375 1.125,1.734375 z m 0,0.21875 h 2.78125 c 0.21875,0 0.25,0 0.25,-0.21875 0,-0.984375 -0.546875,-1.953125 -1.78125,-1.953125 -1.15625,0 -2.078125,1.03125 -2.078125,2.28125 0,1.328125 1.046875,2.296875 2.1875,2.296875 C 3.6875,0.109375 4.140625,-1 4.140625,-1.1875 4.140625,-1.28125 4.0625,-1.3125 4,-1.3125 c -0.078125,0 -0.109375,0.0625 -0.125,0.140625 -0.34375,1.03125 -1.25,1.03125 -1.34375,1.03125 -0.5,0 -0.890625,-0.296875 -1.125,-0.671875 -0.296875,-0.46875 -0.296875,-1.125 -0.296875,-1.484375 z m 0,0"
               id="id-d35e174f-1438-49c7-85a6-828a846f456e" />
          </g>
          <g
             transform="translate(227.89,134.765)"
             id="g1938">
            <path
               style="stroke:none;stroke-width:0"
               d="M 1.671875,-3.3125 V -4.40625 L 0.28125,-4.296875 v 0.3125 c 0.703125,0 0.78125,0.0625 0.78125,0.5625 V -0.75 c 0,0.4375 -0.109375,0.4375 -0.78125,0.4375 V 0 c 0.390625,-0.015625 0.859375,-0.03125 1.140625,-0.03125 0.390625,0 0.859375,0 1.265625,0.03125 V -0.3125 H 2.46875 c -0.734375,0 -0.75,-0.109375 -0.75,-0.46875 V -2.3125 c 0,-0.984375 0.421875,-1.875 1.171875,-1.875 0.0625,0 0.09375,0 0.109375,0.015625 -0.03125,0 -0.234375,0.125 -0.234375,0.390625 0,0.265625 0.21875,0.421875 0.4375,0.421875 0.171875,0 0.421875,-0.125 0.421875,-0.4375 0,-0.3125 -0.3125,-0.609375 -0.734375,-0.609375 -0.734375,0 -1.09375,0.671875 -1.21875,1.09375 z m 0,0"
               id="id-885645dd-bbd0-46ce-8518-3284d051e074" />
          </g>
        </g>
        <g
           style="fill:#000000;fill-opacity:1"
           id="id-4a6bbedf-44a4-441a-99a7-fbc1c2c3634f"
           transform="matrix(0.709456,0,0,0.709456,-48.788079,89.520897)">
          <g
             transform="translate(235.11,134.765)"
             id="g1942">
            <path
               style="stroke:none;stroke-width:0"
               d="m 1.71875,-3.984375 h 1.4375 v -0.3125 H 1.71875 V -6.125 h -0.25 c 0,0.8125 -0.296875,1.875 -1.28125,1.921875 v 0.21875 h 0.84375 v 2.75 c 0,1.21875 0.9375,1.34375 1.296875,1.34375 0.703125,0 0.984375,-0.703125 0.984375,-1.34375 v -0.5625 h -0.25 V -1.25 c 0,0.734375 -0.296875,1.109375 -0.671875,1.109375 -0.671875,0 -0.671875,-0.90625 -0.671875,-1.078125 z m 0,0"
               id="id-ed7bf085-fa74-4e23-ad03-1d06e409c8a0" />
          </g>
          <g
             transform="translate(238.984,134.765)"
             id="g1945">
            <path
               style="stroke:none;stroke-width:0"
               d="M 1.765625,-4.40625 0.375,-4.296875 v 0.3125 c 0.640625,0 0.734375,0.0625 0.734375,0.546875 V -0.75 c 0,0.4375 -0.109375,0.4375 -0.78125,0.4375 V 0 C 0.640625,-0.015625 1.1875,-0.03125 1.421875,-0.03125 1.78125,-0.03125 2.125,-0.015625 2.46875,0 v -0.3125 c -0.671875,0 -0.703125,-0.046875 -0.703125,-0.4375 z m 0.03125,-1.734375 c 0,-0.3125 -0.234375,-0.53125 -0.515625,-0.53125 -0.3125,0 -0.53125,0.265625 -0.53125,0.53125 0,0.265625 0.21875,0.53125 0.53125,0.53125 0.28125,0 0.515625,-0.21875 0.515625,-0.53125 z m 0,0"
               id="id-68aa335f-c420-4b1d-8068-ea3fb35ab12f" />
          </g>
          <g
             transform="translate(241.752,134.765)"
             id="g1948">
            <path
               style="stroke:none;stroke-width:0"
               d="M 1.09375,-3.421875 V -0.75 c 0,0.4375 -0.109375,0.4375 -0.78125,0.4375 V 0 c 0.359375,-0.015625 0.859375,-0.03125 1.140625,-0.03125 0.25,0 0.765625,0.015625 1.109375,0.03125 v -0.3125 c -0.671875,0 -0.78125,0 -0.78125,-0.4375 V -2.59375 C 1.78125,-3.625 2.5,-4.1875 3.125,-4.1875 c 0.640625,0 0.75,0.53125 0.75,1.109375 V -0.75 c 0,0.4375 -0.109375,0.4375 -0.78125,0.4375 V 0 c 0.34375,-0.015625 0.859375,-0.03125 1.125,-0.03125 0.25,0 0.78125,0.015625 1.109375,0.03125 v -0.3125 c -0.65625,0 -0.765625,0 -0.765625,-0.4375 v -1.84375 c 0,-1.03125 0.703125,-1.59375 1.34375,-1.59375 0.625,0 0.734375,0.53125 0.734375,1.109375 V -0.75 c 0,0.4375 -0.109375,0.4375 -0.78125,0.4375 V 0 c 0.34375,-0.015625 0.859375,-0.03125 1.125,-0.03125 0.265625,0 0.78125,0.015625 1.125,0.03125 v -0.3125 c -0.515625,0 -0.765625,0 -0.78125,-0.296875 v -1.90625 c 0,-0.859375 0,-1.15625 -0.3125,-1.515625 -0.140625,-0.171875 -0.46875,-0.375 -1.046875,-0.375 -0.828125,0 -1.28125,0.59375 -1.4375,0.984375 C 4.390625,-4.296875 3.65625,-4.40625 3.203125,-4.40625 2.46875,-4.40625 2,-3.984375 1.71875,-3.359375 V -4.40625 L 0.3125,-4.296875 v 0.3125 c 0.703125,0 0.78125,0.0625 0.78125,0.5625 z m 0,0"
               id="id-f8a8725c-598c-4eda-a5d6-0e63e6d58db9" />
          </g>
          <g
             transform="translate(250.054,134.765)"
             id="g1951">
            <path
               style="stroke:none;stroke-width:0"
               d="M 1.109375,-2.515625 C 1.171875,-4 2.015625,-4.25 2.359375,-4.25 c 1.015625,0 1.125,1.34375 1.125,1.734375 z m 0,0.21875 h 2.78125 c 0.21875,0 0.25,0 0.25,-0.21875 0,-0.984375 -0.546875,-1.953125 -1.78125,-1.953125 -1.15625,0 -2.078125,1.03125 -2.078125,2.28125 0,1.328125 1.046875,2.296875 2.1875,2.296875 C 3.6875,0.109375 4.140625,-1 4.140625,-1.1875 4.140625,-1.28125 4.0625,-1.3125 4,-1.3125 c -0.078125,0 -0.109375,0.0625 -0.125,0.140625 -0.34375,1.03125 -1.25,1.03125 -1.34375,1.03125 -0.5,0 -0.890625,-0.296875 -1.125,-0.671875 -0.296875,-0.46875 -0.296875,-1.125 -0.296875,-1.484375 z m 0,0"
               id="id-2b269e03-db04-4881-83b6-c3cd4debb5c4" />
          </g>
        </g>
      </g>
      <path
         style="fill:none;stroke:#0084c8;stroke-width:0.79375;stroke-linecap:butt;stroke-linejoin:miter;stroke-miterlimit:4;stroke-dasharray:none;stroke-opacity:1"
         d="M 21.166667,137.58333 H 127"
         id="path859"
         sodipodi:nodetypes="cc" />
      <path
         style="fill:none;stroke:#0084c8;stroke-width:1.05833;stroke-linecap:round;stroke-linejoin:round;stroke-miterlimit:4;stroke-dasharray:none;stroke-opacity:1"
         d="m 42.333333,153.45833 h 10.583333 v -7.9375 h 10.583333"
         id="path1031" />
      <path
         style="fill:none;stroke:#0084c8;stroke-width:1.05833;stroke-linecap:round;stroke-linejoin:round;stroke-miterlimit:4;stroke-dasharray:none;stroke-opacity:1"
         d="m 63.500001,153.45833 h 10.583333 v -7.9375 h 10.583333"
         id="path1167" />
      <path
         style="fill:none;stroke:#0084c8;stroke-width:1.05833;stroke-linecap:round;stroke-linejoin:round;stroke-miterlimit:4;stroke-dasharray:none;stroke-opacity:1"
         d="m 84.666669,153.45833 h 10.583333 v -7.9375 h 10.583338"
         id="path1169" />
      <path
         style="fill:none;stroke:#0084c8;stroke-width:1.05833;stroke-linecap:round;stroke-linejoin:round;stroke-miterlimit:4;stroke-dasharray:none;stroke-opacity:1"
         d="m 21.166665,153.45833 h 10.583333 v -7.9375 h 10.583333"
         id="path1225" />
      <path
         style="fill:none;stroke:#0084c8;stroke-width:1.05833;stroke-linecap:round;stroke-linejoin:round;stroke-miterlimit:4;stroke-dasharray:none;stroke-opacity:1"
         d="m 42.333333,145.52083 v 7.9375"
         id="path1340" />
      <path
         style="fill:none;stroke:#0084c8;stroke-width:1.05833;stroke-linecap:round;stroke-linejoin:round;stroke-miterlimit:4;stroke-dasharray:none;stroke-opacity:1"
         d="m 63.500001,145.52083 v 7.9375"
         id="path1440" />
      <path
         style="fill:none;stroke:#0084c8;stroke-width:1.05833;stroke-linecap:round;stroke-linejoin:round;stroke-miterlimit:4;stroke-dasharray:none;stroke-opacity:1"
         d="m 105.83334,145.52083 v 7.9375"
         id="path1442" />
      <path
         style="fill:none;stroke:#0084c8;stroke-width:1.05833;stroke-linecap:round;stroke-linejoin:round;stroke-miterlimit:4;stroke-dasharray:none;stroke-opacity:1"
         d="m 84.666669,145.52083 v 7.9375"
         id="path1444" />
      <path
         style="fill:none;stroke:#0084c8;stroke-width:1.05833;stroke-linecap:round;stroke-linejoin:round;stroke-miterlimit:4;stroke-dasharray:none;stroke-opacity:1"
         d="m 105.83334,153.45833 h 10.58334 v -7.9375 h 10.58334"
         id="path1582" />
      <g
         style="fill:#000000;fill-opacity:1"
         id="id-841c7072-a4cb-46d3-94f1-1d23b16e0537"
         transform="matrix(0.709456,0,0,0.709456,-54.522331,66.663498)">
        <g
           transform="translate(148.712,134.765)"
           id="g2559">
          <path
             style="stroke:none"
             d="m 3.09375,-5.796875 c 0,-0.15625 0,-0.40625 -0.296875,-0.40625 -0.1875,0 -0.25,0.125 -0.296875,0.234375 C 2.125,-5.109375 1.609375,-5 1.421875,-4.984375 c -0.171875,0.015625 -0.375,0.03125 -0.375,0.3125 0,0.25 0.171875,0.296875 0.328125,0.296875 0.1875,0 0.59375,-0.0625 1.03125,-0.4375 v 4.203125 H 1.5 c -0.15625,0 -0.390625,0 -0.390625,0.3125 C 1.109375,0 1.359375,0 1.5,0 H 4 c 0.15625,0 0.40625,0 0.40625,-0.296875 0,-0.3125 -0.234375,-0.3125 -0.40625,-0.3125 H 3.09375 Z m 0,0"
             id="id-25602825-24db-4e8b-a63f-8f892fae7284" />
        </g>
      </g>
      <g
         style="fill:#000000;fill-opacity:1"
         id="id-fb96eeb9-d6a9-4f81-bf25-2770c0616910"
         transform="matrix(0.709456,0,0,0.709456,-40.694143,66.663498)">
        <g
           transform="translate(159.173,134.765)"
           id="g2563">
          <path
             style="stroke:none"
             d="M 0.671875,-0.578125 C 0.578125,-0.5 0.515625,-0.453125 0.515625,-0.3125 0.515625,0 0.765625,0 0.921875,0 H 4.3125 c 0.328125,0 0.390625,-0.09375 0.390625,-0.40625 v -0.265625 c 0,-0.1875 0,-0.40625 -0.34375,-0.40625 -0.34375,0 -0.34375,0.1875 -0.34375,0.46875 h -2.375 c 0.59375,-0.5 1.546875,-1.25 1.984375,-1.65625 0.625,-0.5625 1.078125,-1.1875 1.078125,-1.984375 0,-1.203125 -1,-1.953125 -2.21875,-1.953125 -1.171875,0 -1.96875,0.8125 -1.96875,1.671875 0,0.359375 0.28125,0.46875 0.453125,0.46875 0.203125,0 0.4375,-0.171875 0.4375,-0.4375 0,-0.125 -0.046875,-0.25 -0.140625,-0.328125 0.15625,-0.453125 0.625,-0.765625 1.171875,-0.765625 0.8125,0 1.578125,0.453125 1.578125,1.34375 0,0.6875 -0.484375,1.265625 -1.140625,1.8125 z m 0,0"
             id="id-b9666572-06cf-4085-a1cf-dad577619d44" />
        </g>
      </g>
      <g
         style="fill:#000000;fill-opacity:1"
         id="id-056999f3-00b3-47bc-a57e-454d56f18603"
         transform="matrix(0.709456,0,0,0.709456,-26.948382,66.6247)">
        <g
           transform="translate(169.633,134.765)"
           id="g2567">
          <path
             style="stroke:none"
             d="M 3.65625,-3.328125 C 4.21875,-3.6875 4.5,-4.25 4.5,-4.796875 c 0,-0.734375 -0.734375,-1.40625 -1.875,-1.40625 -1.203125,0 -1.890625,0.484375 -1.890625,1.171875 0,0.328125 0.25,0.46875 0.4375,0.46875 0.21875,0 0.4375,-0.171875 0.4375,-0.453125 0,-0.140625 -0.046875,-0.234375 -0.078125,-0.265625 0.296875,-0.3125 1.015625,-0.3125 1.09375,-0.3125 0.6875,0 1.1875,0.359375 1.1875,0.8125 0,0.296875 -0.15625,0.640625 -0.421875,0.859375 C 3.078125,-3.65625 2.828125,-3.640625 2.46875,-3.625 1.890625,-3.578125 1.75,-3.578125 1.75,-3.296875 c 0,0.3125 0.234375,0.3125 0.390625,0.3125 h 0.46875 c 0.984375,0 1.484375,0.671875 1.484375,1.25 C 4.09375,-1.125 3.53125,-0.5 2.625,-0.5 2.234375,-0.5 1.46875,-0.609375 1.203125,-1.078125 1.25,-1.125 1.328125,-1.1875 1.328125,-1.390625 c 0,-0.234375 -0.1875,-0.4375 -0.4375,-0.4375 -0.234375,0 -0.453125,0.15625 -0.453125,0.46875 0,0.890625 0.96875,1.46875 2.1875,1.46875 1.3125,0 2.15625,-0.921875 2.15625,-1.84375 0,-0.703125 -0.46875,-1.296875 -1.125,-1.59375 z m 0,0"
             id="id-3db9db21-3138-40f7-9459-ac3fde3d2995" />
        </g>
      </g>
      <g
         id="g2785"
         transform="translate(22.472779,-19.821577)">
        <g
           style="fill:#000000;fill-opacity:1"
           id="id-e7e183e2-ca02-4a17-ad7b-cf8f41d6e9e9"
           transform="matrix(0.709456,0,0,0.709456,-65.099329,84.661552)">
          <g
             transform="translate(218.367,134.765)"
             id="g2587">
            <path
               style="stroke:none"
               d="m 1.90625,-0.53125 c 0,-0.28125 -0.234375,-0.53125 -0.515625,-0.53125 -0.296875,0 -0.53125,0.25 -0.53125,0.53125 C 0.859375,-0.234375 1.09375,0 1.390625,0 1.671875,0 1.90625,-0.234375 1.90625,-0.53125 Z m 0,0"
               id="id-fe5db39e-4bc6-45c1-9a47-fb4add179104" />
          </g>
        </g>
        <g
           style="fill:#000000;fill-opacity:1"
           id="id-900df4f0-8dae-4a8c-ae9a-b1e18117d3bd"
           transform="matrix(0.709456,0,0,0.709456,-65.099329,84.661552)">
          <g
             transform="translate(222.798,134.765)"
             id="g2591">
            <path
               style="stroke:none"
               d="m 1.90625,-0.53125 c 0,-0.28125 -0.234375,-0.53125 -0.515625,-0.53125 -0.296875,0 -0.53125,0.25 -0.53125,0.53125 C 0.859375,-0.234375 1.09375,0 1.390625,0 1.671875,0 1.90625,-0.234375 1.90625,-0.53125 Z m 0,0"
               id="id-4fd26116-0643-4241-b042-02879dc90aa3" />
          </g>
        </g>
        <g
           style="fill:#000000;fill-opacity:1"
           id="id-04d42799-4539-4f2e-b864-fe2fcec60927"
           transform="matrix(0.709456,0,0,0.709456,-65.099329,84.661552)">
          <g
             transform="translate(227.22,134.765)"
             id="g2595">
            <path
               style="stroke:none"
               d="m 1.90625,-0.53125 c 0,-0.28125 -0.234375,-0.53125 -0.515625,-0.53125 -0.296875,0 -0.53125,0.25 -0.53125,0.53125 C 0.859375,-0.234375 1.09375,0 1.390625,0 1.671875,0 1.90625,-0.234375 1.90625,-0.53125 Z m 0,0"
               id="id-8574e9cc-e766-4e22-960a-fbdb50188b1e" />
          </g>
        </g>
      </g>
      <g
         style="fill:#0084c8;fill-opacity:1"
         id="id-acac6c7a-b46e-4913-bee3-f02588f2cda2"
         transform="matrix(0.51587866,0,0,0.51587866,-62.301649,77.598472)">
        <g
           transform="translate(153.943,134.765)"
           id="g3092"
           style="fill:#0084c8">
          <path
             style="fill:#0084c8;stroke:none;stroke-width:0"
             d="m 3.09375,-5.796875 c 0,-0.15625 0,-0.40625 -0.296875,-0.40625 -0.1875,0 -0.25,0.125 -0.296875,0.234375 C 2.125,-5.109375 1.609375,-5 1.421875,-4.984375 c -0.171875,0.015625 -0.375,0.03125 -0.375,0.3125 0,0.25 0.171875,0.296875 0.328125,0.296875 0.1875,0 0.59375,-0.0625 1.03125,-0.4375 v 4.203125 H 1.5 c -0.15625,0 -0.390625,0 -0.390625,0.3125 C 1.109375,0 1.359375,0 1.5,0 H 4 c 0.15625,0 0.40625,0 0.40625,-0.296875 0,-0.3125 -0.234375,-0.3125 -0.40625,-0.3125 H 3.09375 Z m 0,0"
             id="id-bc79930b-f912-4d40-95be-04f1238216f5" />
        </g>
      </g>
      <g
         style="fill:#0084c8;fill-opacity:1"
         id="id-2a674ca6-ead3-4f6b-97fe-ae9dd0603500"
         transform="matrix(0.51587866,0,0,0.51587866,-67.637802,85.50776)">
        <g
           transform="translate(164.404,134.765)"
           id="g3096"
           style="fill:#0084c8">
          <path
             style="fill:#0084c8;stroke:none;stroke-width:0"
             d="m 4.71875,-3.046875 c 0,-1.84375 -1.015625,-3.15625 -2.109375,-3.15625 C 1.5,-6.203125 0.5,-4.859375 0.5,-3.046875 c 0,1.84375 1.015625,3.15625 2.109375,3.15625 1.125,0 2.109375,-1.328125 2.109375,-3.15625 z M 2.609375,-0.5 C 1.828125,-0.5 1.1875,-1.671875 1.1875,-3.15625 c 0,-1.453125 0.6875,-2.4375 1.421875,-2.4375 0.734375,0 1.421875,0.984375 1.421875,2.4375 0,1.484375 -0.640625,2.65625 -1.421875,2.65625 z m 0,0"
             id="id-0f5c618a-df60-4cb4-ba0d-a69d640105bc" />
        </g>
      </g>
      <g
         style="fill:#ff9900;fill-opacity:1"
         id="id-79b28da1-cde7-448a-95bf-b027657ac0a8"
         transform="matrix(0.42903204,0,0,0.42903204,-16.339216,114.14831)">
        <g
           transform="translate(195.785,134.765)"
           id="g1667"
           style="fill:#ff9900">
          <path
             style="fill:#ff9900;stroke:none;stroke-width:0"
             d="M 1.890625,-5.734375 C 1.78125,-6.0625 1.625,-6.09375 1.359375,-6.09375 h -0.6875 c -0.140625,0 -0.390625,0 -0.390625,0.296875 0,0.3125 0.234375,0.3125 0.390625,0.3125 h 0.25 v 4.875 h -0.25 c -0.140625,0 -0.390625,0 -0.390625,0.296875 C 0.28125,0 0.515625,0 0.671875,0 h 1.0625 c 0.15625,0 0.40625,0 0.40625,-0.296875 0,-0.3125 -0.25,-0.3125 -0.40625,-0.3125 h -0.25 V -5.34375 H 1.5 l 1.828125,4.984375 C 3.453125,-0.015625 3.625,0 3.875,0 4.171875,0 4.296875,-0.03125 4.296875,-0.40625 v -5.078125 h 0.25 c 0.140625,0 0.390625,0 0.390625,-0.296875 0,-0.3125 -0.234375,-0.3125 -0.390625,-0.3125 h -1.0625 c -0.15625,0 -0.390625,0 -0.390625,0.3125 0,0.296875 0.25,0.296875 0.390625,0.296875 h 0.25 V -0.75 Z m 0,0"
             id="id-5d65a242-ef91-4fb8-be48-9440035de83c" />
        </g>
        <g
           transform="translate(201.016,134.765)"
           id="g1670"
           style="fill:#ff9900">
          <path
             style="fill:#ff9900;stroke:none;stroke-width:0"
             d="m 4.671875,-3.046875 c 0,-2.875 -0.21875,-3.15625 -2.0625,-3.15625 -1.84375,0 -2.046875,0.265625 -2.046875,3.15625 0,2.890625 0.203125,3.15625 2.046875,3.15625 1.84375,0 2.0625,-0.265625 2.0625,-3.15625 z M 2.609375,-0.5 c -0.875,0 -1.125,-0.203125 -1.25,-0.703125 C 1.25,-1.71875 1.25,-2.578125 1.25,-3.125 c 0,-0.625 0,-1.296875 0.109375,-1.765625 0.125,-0.578125 0.4375,-0.703125 1.25,-0.703125 0.75,0 1.09375,0.09375 1.25,0.640625 0.125,0.46875 0.125,1.21875 0.125,1.828125 0,0.609375 0,1.328125 -0.109375,1.859375 C 3.765625,-0.703125 3.5,-0.5 2.609375,-0.5 Z m 0,0"
             id="id-369d8847-b93b-4af2-afd9-3add726cce6b" />
        </g>
        <g
           transform="translate(206.246,134.765)"
           id="g1673"
           style="fill:#ff9900">
          <path
             style="fill:#ff9900;stroke:none;stroke-width:0"
             d="M 2.953125,-5.484375 H 4.28125 v 0.53125 c 0,0.1875 0,0.40625 0.328125,0.40625 0.359375,0 0.359375,-0.203125 0.359375,-0.40625 V -5.6875 c 0,-0.296875 -0.0625,-0.40625 -0.40625,-0.40625 H 0.671875 c -0.328125,0 -0.40625,0.078125 -0.40625,0.40625 v 0.734375 c 0,0.1875 0,0.40625 0.328125,0.40625 0.359375,0 0.359375,-0.203125 0.359375,-0.40625 v -0.53125 h 1.3125 v 4.875 H 1.75 c -0.140625,0 -0.390625,0 -0.390625,0.296875 C 1.359375,0 1.59375,0 1.75,0 H 3.484375 C 3.625,0 3.875,0 3.875,-0.296875 c 0,-0.3125 -0.234375,-0.3125 -0.390625,-0.3125 h -0.53125 z m 0,0"
             id="id-ff5ff906-c8a5-4140-902c-3289817de410" />
        </g>
        <g
           transform="translate(211.476,134.765)"
           id="g1676"
           style="fill:#ff9900">
          <path
             style="fill:#ff9900;stroke:none;stroke-width:0"
             d="m 4.359375,0.53125 c 0,-0.140625 -0.078125,-0.1875 -0.25,-0.296875 C 2.875,-0.609375 2.40625,-1.9375 2.40625,-3.046875 c 0,-1 0.390625,-2.390625 1.71875,-3.296875 0.15625,-0.109375 0.234375,-0.140625 0.234375,-0.296875 0,-0.078125 -0.046875,-0.28125 -0.3125,-0.28125 -0.28125,0 -2.328125,1.3125 -2.328125,3.875 0,1.1875 0.46875,2.078125 0.8125,2.578125 0.53125,0.734375 1.28125,1.28125 1.515625,1.28125 0.265625,0 0.3125,-0.1875 0.3125,-0.28125 z m 0,0"
             id="id-381d2cb8-68ea-4f50-865d-f366f50a2f43" />
        </g>
        <g
           transform="translate(216.707,134.765)"
           id="g1679"
           style="fill:#ff9900">
          <path
             style="fill:#ff9900;stroke:none;stroke-width:0"
             d="m 4.640625,-1.09375 c 0,-0.265625 -0.28125,-0.265625 -0.34375,-0.265625 -0.15625,0 -0.265625,0.015625 -0.328125,0.21875 -0.0625,0.125 -0.25,0.59375 -0.984375,0.59375 -0.84375,0 -1.5625,-0.703125 -1.5625,-1.609375 0,-0.46875 0.265625,-1.625 1.625,-1.625 0.203125,0 0.59375,0 0.59375,0.09375 0.015625,0.34375 0.203125,0.484375 0.4375,0.484375 0.234375,0 0.453125,-0.171875 0.453125,-0.453125 0,-0.734375 -1.046875,-0.734375 -1.484375,-0.734375 -1.71875,0 -2.3125,1.359375 -2.3125,2.234375 0,1.203125 0.9375,2.21875 2.1875,2.21875 1.390625,0 1.71875,-0.984375 1.71875,-1.15625 z m 0,0"
             id="id-f89793aa-ee94-4708-b6ac-4b4e2dc6f142" />
        </g>
        <g
           transform="translate(221.937,134.765)"
           id="g1682"
           style="fill:#ff9900">
          <path
             style="fill:#ff9900;stroke:none;stroke-width:0"
             d="m 3.515625,-3.046875 c 0,-1.1875 -0.46875,-2.09375 -0.8125,-2.578125 -0.53125,-0.734375 -1.28125,-1.296875 -1.515625,-1.296875 -0.25,0 -0.3125,0.203125 -0.3125,0.28125 0,0.15625 0.109375,0.21875 0.15625,0.25 1.640625,1.09375 1.796875,2.6875 1.796875,3.34375 0,1 -0.375,2.375 -1.71875,3.28125 C 0.953125,0.34375 0.875,0.390625 0.875,0.53125 c 0,0.09375 0.0625,0.28125 0.3125,0.28125 0.28125,0 2.328125,-1.3125 2.328125,-3.859375 z m 0,0"
             id="id-ca22553a-df2e-49fb-967b-f17d462623e5" />
        </g>
      </g>
      <g
         style="fill:#ff9900;fill-opacity:1"
         id="id-8123eff5-6abc-49ab-8190-359233dd8ac5"
         transform="matrix(0.36943973,0,0,0.36943973,-15.459312,121.72594)">
        <g
           transform="translate(274.241,134.765)"
           id="g1708"
           style="fill:#ff9900">
          <path
             style="fill:#ff9900;stroke:none;stroke-width:0"
             d="m 3.15625,-5.828125 c -0.09375,-0.375 -0.234375,-0.375 -0.546875,-0.375 -0.28125,0 -0.453125,0 -0.53125,0.375 L 0.875,-0.609375 c -0.140625,0 -0.375,0 -0.4375,0.015625 -0.109375,0.0625 -0.171875,0.171875 -0.171875,0.296875 C 0.265625,0 0.53125,0 0.703125,0 H 1.71875 c 0.171875,0 0.421875,0 0.421875,-0.296875 0,-0.3125 -0.203125,-0.3125 -0.5625,-0.3125 l 0.21875,-1.03125 h 1.625 l 0.234375,1.03125 c -0.359375,0 -0.5625,0 -0.5625,0.3125 C 3.09375,0 3.328125,0 3.515625,0 H 4.53125 c 0.15625,0 0.421875,0 0.421875,-0.296875 0,-0.125 -0.046875,-0.234375 -0.171875,-0.28125 C 4.71875,-0.609375 4.5,-0.609375 4.359375,-0.609375 Z M 2.609375,-5.40625 H 2.625 L 3.265625,-2.25 h -1.3125 z m 0,0"
             id="id-f9a60e01-b508-409f-89e1-0c0b5081982b" />
        </g>
        <g
           transform="translate(279.471,134.765)"
           id="g1711"
           style="fill:#ff9900">
          <path
             style="fill:#ff9900;stroke:none;stroke-width:0"
             d="m 0.59375,-6.09375 c -0.15625,0 -0.40625,0 -0.40625,0.3125 0,0.296875 0.265625,0.296875 0.40625,0.296875 H 0.8125 v 4.875 H 0.59375 c -0.15625,0 -0.40625,0 -0.40625,0.3125 C 0.1875,0 0.453125,0 0.59375,0 h 2.0625 c 1.296875,0 2.171875,-1.390625 2.171875,-3 0,-1.59375 -0.84375,-3.09375 -2.171875,-3.09375 z M 1.5,-0.609375 v -4.875 h 0.96875 c 1.125,0 1.671875,1.328125 1.671875,2.484375 0,1.171875 -0.578125,2.390625 -1.671875,2.390625 z m 0,0"
             id="id-0aa338b7-38d6-4571-8011-51851b301924" />
        </g>
        <g
           transform="translate(284.701,134.765)"
           id="g1714"
           style="fill:#ff9900">
          <path
             style="fill:#ff9900;stroke:none;stroke-width:0"
             d="m 0.59375,-6.09375 c -0.15625,0 -0.40625,0 -0.40625,0.3125 0,0.296875 0.265625,0.296875 0.40625,0.296875 H 0.8125 v 4.875 H 0.59375 c -0.15625,0 -0.40625,0 -0.40625,0.3125 C 0.1875,0 0.453125,0 0.59375,0 h 2.0625 c 1.296875,0 2.171875,-1.390625 2.171875,-3 0,-1.59375 -0.84375,-3.09375 -2.171875,-3.09375 z M 1.5,-0.609375 v -4.875 h 0.96875 c 1.125,0 1.671875,1.328125 1.671875,2.484375 0,1.171875 -0.578125,2.390625 -1.671875,2.390625 z m 0,0"
             id="id-7e1e70a2-5ed9-499c-98fe-f31d266187bc" />
        </g>
        <g
           transform="translate(289.932,134.765)"
           id="g1717"
           style="fill:#ff9900">
          <path
             style="fill:#ff9900;stroke:none;stroke-width:0"
             d="m 3.09375,-5.796875 c 0,-0.15625 0,-0.40625 -0.296875,-0.40625 -0.1875,0 -0.25,0.125 -0.296875,0.234375 C 2.125,-5.109375 1.609375,-5 1.421875,-4.984375 c -0.171875,0.015625 -0.375,0.03125 -0.375,0.3125 0,0.25 0.171875,0.296875 0.328125,0.296875 0.1875,0 0.59375,-0.0625 1.03125,-0.4375 v 4.203125 H 1.5 c -0.15625,0 -0.390625,0 -0.390625,0.3125 C 1.109375,0 1.359375,0 1.5,0 H 4 c 0.15625,0 0.40625,0 0.40625,-0.296875 0,-0.3125 -0.234375,-0.3125 -0.40625,-0.3125 H 3.09375 Z m 0,0"
             id="id-e55c9775-be05-47aa-82e2-0f29e1a6ecc5" />
        </g>
        <g
           transform="translate(295.162,134.765)"
           id="g1720"
           style="fill:#ff9900">
          <path
             style="fill:#ff9900;stroke:none;stroke-width:0"
             d="M 1.234375,-3.375 C 1.375,-4.78125 2.3125,-5.59375 3.1875,-5.59375 c 0.34375,0 0.5,0.109375 0.546875,0.15625 -0.046875,0.046875 -0.09375,0.109375 -0.09375,0.296875 0,0.234375 0.171875,0.4375 0.4375,0.4375 0.25,0 0.453125,-0.171875 0.453125,-0.46875 0,-0.484375 -0.359375,-1.03125 -1.328125,-1.03125 -1.34375,0 -2.671875,1.203125 -2.671875,3.21875 0,2.359375 1.109375,3.09375 2.09375,3.09375 1.09375,0 2.0625,-0.84375 2.0625,-2.03125 0,-1.140625 -0.875,-2.03125 -1.96875,-2.03125 -0.515625,0 -1.03125,0.171875 -1.484375,0.578125 z M 2.625,-0.5 c -0.640625,0 -1.03125,-0.484375 -1.234375,-1.09375 -0.015625,-0.0625 -0.03125,-0.125 -0.046875,-0.1875 0,0 -0.015625,-0.03125 -0.015625,-0.03125 0,0 0.015625,-0.09375 0.015625,-0.09375 -0.015625,-0.0625 -0.03125,-0.234375 -0.03125,-0.3125 0,-0.609375 0.59375,-1.109375 1.359375,-1.109375 C 3.484375,-3.328125 4,-2.65625 4,-1.921875 4,-1.0625 3.34375,-0.5 2.625,-0.5 Z m 0,0"
             id="id-24253d60-3b44-4dc8-8ea4-08c6a82eb498" />
        </g>
        <g
           transform="translate(300.393,134.765)"
           id="g1723"
           style="fill:#ff9900">
          <path
             style="fill:#ff9900;stroke:none;stroke-width:0"
             d="m 4.359375,0.53125 c 0,-0.140625 -0.078125,-0.1875 -0.25,-0.296875 C 2.875,-0.609375 2.40625,-1.9375 2.40625,-3.046875 c 0,-1 0.390625,-2.390625 1.71875,-3.296875 0.15625,-0.109375 0.234375,-0.140625 0.234375,-0.296875 0,-0.078125 -0.046875,-0.28125 -0.3125,-0.28125 -0.28125,0 -2.328125,1.3125 -2.328125,3.875 0,1.1875 0.46875,2.078125 0.8125,2.578125 0.53125,0.734375 1.28125,1.28125 1.515625,1.28125 0.265625,0 0.3125,-0.1875 0.3125,-0.28125 z m 0,0"
             id="id-27d4dd6d-8ce6-45b3-a49e-7594f6b185ea" />
        </g>
        <g
           transform="translate(305.623,134.765)"
           id="g1726"
           style="fill:#ff9900">
          <path
             style="fill:#ff9900;stroke:none;stroke-width:0"
             d="m 2.515625,-3.6875 h 1.21875 c 0.15625,0 0.40625,0 0.40625,-0.296875 0,-0.3125 -0.25,-0.3125 -0.40625,-0.3125 h -1.21875 v -0.46875 c 0,-0.78125 0.671875,-0.78125 0.96875,-0.78125 0,0.046875 0.09375,0.4375 0.4375,0.4375 0.203125,0 0.4375,-0.171875 0.4375,-0.4375 0,-0.609375 -0.796875,-0.609375 -0.953125,-0.609375 -0.796875,0 -1.578125,0.46875 -1.578125,1.328125 v 0.53125 H 0.84375 c -0.171875,0 -0.421875,0 -0.421875,0.3125 0,0.296875 0.25,0.296875 0.40625,0.296875 h 1 v 3.078125 h -1 c -0.15625,0 -0.40625,0 -0.40625,0.296875 C 0.421875,0 0.671875,0 0.828125,0 H 3.53125 c 0.140625,0 0.40625,0 0.40625,-0.296875 0,-0.3125 -0.265625,-0.3125 -0.40625,-0.3125 H 2.515625 Z m 0,0"
             id="id-aa14dd1b-c7dd-4099-a852-5cd8dfdd0499" />
        </g>
        <g
           transform="translate(310.853,134.765)"
           id="g1729"
           style="fill:#ff9900">
          <path
             style="fill:#ff9900;stroke:none;stroke-width:0"
             d="M 2.8125,-0.03125 C 2.65625,0.59375 2.1875,0.75 2.078125,0.78125 1.96875,0.8125 1.796875,0.875 1.796875,1.0625 c 0,0.15625 0.140625,0.328125 0.3125,0.328125 0.328125,0 1.34375,-0.546875 1.34375,-1.640625 0,-0.609375 -0.390625,-1 -0.828125,-1 C 2.21875,-1.25 2,-0.953125 2,-0.625 2,-0.25 2.28125,0 2.609375,0 c 0.0625,0 0.125,-0.015625 0.203125,-0.03125 z m 0,0"
             id="id-efa4e71d-a13b-4655-806f-a46176da6817" />
        </g>
        <g
           transform="translate(316.084,134.765)"
           id="g1732"
           style="fill:#ff9900">
          <path
             style="fill:#ff9900;stroke:none;stroke-width:0"
             d="m 2.328125,-1.75 c -0.546875,0 -0.96875,-0.46875 -0.96875,-1 0,-0.5625 0.4375,-1.015625 0.96875,-1.015625 0.53125,0 0.953125,0.46875 0.953125,1 0,0.578125 -0.4375,1.015625 -0.953125,1.015625 z m -0.90625,0.34375 c 0.03125,0.015625 0.40625,0.25 0.90625,0.25 0.90625,0 1.640625,-0.71875 1.640625,-1.609375 C 3.96875,-3.0625 3.875,-3.34375 3.703125,-3.625 3.921875,-3.75 4.15625,-3.78125 4.28125,-3.796875 c 0.0625,0.265625 0.296875,0.34375 0.390625,0.34375 0.171875,0 0.40625,-0.125 0.40625,-0.421875 0,-0.21875 -0.1875,-0.53125 -0.734375,-0.53125 -0.109375,0 -0.59375,0.015625 -1.046875,0.34375 C 3.125,-4.171875 2.78125,-4.359375 2.328125,-4.359375 c -0.9375,0 -1.65625,0.75 -1.65625,1.59375 C 0.671875,-2.328125 0.84375,-2 1,-1.8125 c -0.109375,0.15625 -0.203125,0.375 -0.203125,0.671875 0,0.359375 0.140625,0.609375 0.234375,0.71875 -0.734375,0.453125 -0.734375,1.125 -0.734375,1.234375 0,0.859375 1.03125,1.46875 2.3125,1.46875 C 3.890625,2.28125 4.9375,1.671875 4.9375,0.8125 4.9375,0.453125 4.75,-0.046875 4.25,-0.3125 4.109375,-0.390625 3.703125,-0.609375 2.796875,-0.609375 h -0.6875 c -0.078125,0 -0.21875,0 -0.296875,-0.015625 -0.140625,0 -0.203125,0 -0.328125,-0.140625 -0.109375,-0.140625 -0.125,-0.34375 -0.125,-0.359375 0,-0.046875 0.03125,-0.1875 0.0625,-0.28125 z m 1.1875,3.09375 c -1,0 -1.734375,-0.4375 -1.734375,-0.875 0,-0.171875 0.078125,-0.5 0.40625,-0.6875 0.25,-0.171875 0.328125,-0.171875 1.0625,-0.171875 0.890625,0 2.015625,0 2.015625,0.859375 0,0.4375 -0.75,0.875 -1.75,0.875 z m 0,0"
             id="id-151dd113-a91e-459e-b91d-f0228556ec3a" />
        </g>
        <g
           transform="translate(321.314,134.765)"
           id="g1735"
           style="fill:#ff9900">
          <path
             style="fill:#ff9900;stroke:none;stroke-width:0"
             d="m 3.515625,-3.046875 c 0,-1.1875 -0.46875,-2.09375 -0.8125,-2.578125 -0.53125,-0.734375 -1.28125,-1.296875 -1.515625,-1.296875 -0.25,0 -0.3125,0.203125 -0.3125,0.28125 0,0.15625 0.109375,0.21875 0.15625,0.25 1.640625,1.09375 1.796875,2.6875 1.796875,3.34375 0,1 -0.375,2.375 -1.71875,3.28125 C 0.953125,0.34375 0.875,0.390625 0.875,0.53125 c 0,0.09375 0.0625,0.28125 0.3125,0.28125 0.28125,0 2.328125,-1.3125 2.328125,-3.859375 z m 0,0"
             id="id-3a29cca9-fc80-45c4-8c42-d83dcb39f36a" />
        </g>
      </g>
    </g>
  </g>
</svg>
