<?xml version="1.0" encoding="UTF-8" standalone="no"?>
<!-- Created with Inkscape (http://www.inkscape.org/) -->

<svg
   width="210mm"
   height="297mm"
   viewBox="0 0 210 297"
   version="1.1"
   id="svg5"
   inkscape:version="1.1 (c4e8f9e, 2021-05-24)"
   sodipodi:docname="sets.svg"
   xmlns:inkscape="http://www.inkscape.org/namespaces/inkscape"
   xmlns:sodipodi="http://sodipodi.sourceforge.net/DTD/sodipodi-0.dtd"
   xmlns="http://www.w3.org/2000/svg"
   xmlns:svg="http://www.w3.org/2000/svg">
  <sodipodi:namedview
     id="namedview7"
     pagecolor="#ffffff"
     bordercolor="#666666"
     borderopacity="1.0"
     inkscape:pageshadow="2"
     inkscape:pageopacity="0.0"
     inkscape:pagecheckerboard="0"
     inkscape:document-units="mm"
     showgrid="true"
     inkscape:zoom="0.93146581"
     inkscape:cx="74.613581"
     inkscape:cy="312.94761"
     inkscape:window-width="1312"
     inkscape:window-height="847"
     inkscape:window-x="0"
     inkscape:window-y="25"
     inkscape:window-maximized="0"
     inkscape:current-layer="layer1"
     inkscape:snap-center="true"
     inkscape:snap-global="true"
     inkscape:object-paths="true"
     inkscape:snap-others="false"
     inkscape:snap-nodes="true">
    <inkscape:grid
       type="xygrid"
       id="grid824" />
  </sodipodi:namedview>
  <defs
     id="defs2">
    <defs
       id="id-28f1cfb6-a9ed-4fa8-af79-3be3c6138382">
      <g
         id="id-f6aef062-fd45-4cb3-934c-72b4caa6091a">
        <symbol
           overflow="visible"
           id="id-15d208e6-1786-43d3-bccc-82e4d4e09d69">
          <path
             style="stroke:none;stroke-width:0"
             d=""
             id="id-bce92297-3bfa-4e40-b835-4fc7879ef3b9" />
        </symbol>
        <symbol
           overflow="visible"
           id="id-ee65aaf6-ac99-4e45-8d5f-4a05186d35b3">
          <path
             style="stroke:none;stroke-width:0"
             d="m 3.15625,-5.828125 c -0.09375,-0.375 -0.234375,-0.375 -0.546875,-0.375 -0.28125,0 -0.453125,0 -0.53125,0.375 L 0.875,-0.609375 c -0.140625,0 -0.375,0 -0.4375,0.015625 -0.109375,0.0625 -0.171875,0.171875 -0.171875,0.296875 C 0.265625,0 0.53125,0 0.703125,0 H 1.71875 c 0.171875,0 0.421875,0 0.421875,-0.296875 0,-0.3125 -0.203125,-0.3125 -0.5625,-0.3125 l 0.21875,-1.03125 h 1.625 l 0.234375,1.03125 c -0.359375,0 -0.5625,0 -0.5625,0.3125 C 3.09375,0 3.328125,0 3.515625,0 H 4.53125 c 0.15625,0 0.421875,0 0.421875,-0.296875 0,-0.125 -0.046875,-0.234375 -0.171875,-0.28125 C 4.71875,-0.609375 4.5,-0.609375 4.359375,-0.609375 Z M 2.609375,-5.40625 H 2.625 L 3.265625,-2.25 h -1.3125 z m 0,0"
             id="id-747c04c3-8372-4470-8aba-3383cee97942" />
        </symbol>
        <symbol
           overflow="visible"
           id="id-73178546-5035-4d6d-897b-8d03447642a7">
          <path
             style="stroke:none;stroke-width:0"
             d="m 1.59375,-5.484375 h 1.25 c 0.84375,0 1.0625,0.625 1.0625,0.953125 0,0.40625 -0.3125,1.0625 -1.28125,1.0625 H 1.59375 Z M 3.515625,-3.1875 C 4.15625,-3.40625 4.59375,-3.921875 4.59375,-4.546875 4.59375,-5.28125 3.984375,-6.09375 2.875,-6.09375 h -2.25 c -0.140625,0 -0.390625,0 -0.390625,0.296875 0,0.3125 0.25,0.3125 0.40625,0.3125 H 0.90625 v 4.875 H 0.640625 c -0.15625,0 -0.40625,0 -0.40625,0.3125 C 0.234375,0 0.484375,0 0.625,0 H 3.078125 C 4.203125,0 4.8125,-0.890625 4.8125,-1.671875 4.8125,-2.359375 4.328125,-3 3.515625,-3.1875 Z m -0.65625,2.578125 H 1.59375 v -2.25 h 1.375 c 0.84375,0 1.140625,0.71875 1.140625,1.171875 0,0.484375 -0.375,1.078125 -1.25,1.078125 z m 0,0"
             id="id-00afc36a-bbeb-435c-82fb-c23402d35516" />
        </symbol>
      </g>
    </defs>
  </defs>
  <g
     inkscape:label="Layer 1"
     inkscape:groupmode="layer"
     id="layer1">
    <rect
       style="font-variation-settings:normal;vector-effect:none;fill:#9eabb0;fill-opacity:1;fill-rule:evenodd;stroke:#364e59;stroke-width:0.264583;stroke-linecap:butt;stroke-linejoin:miter;stroke-miterlimit:4;stroke-dasharray:none;stroke-dashoffset:0;stroke-opacity:1;stop-color:#000000"
       id="rect13211"
       width="21.166666"
       height="15.875"
       x="34.395836"
       y="47.625"
       ry="0.13229166" />
    <circle
       style="font-variation-settings:normal;vector-effect:none;fill:#ffffff;fill-opacity:1;fill-rule:evenodd;stroke:#364e59;stroke-width:0.264583;stroke-linecap:butt;stroke-linejoin:miter;stroke-miterlimit:4;stroke-dasharray:none;stroke-dashoffset:0;stroke-opacity:1;stop-color:#000000"
       id="circle13213"
       cx="42.33334"
       cy="55.5625"
       r="5.2916665" />
    <circle
       style="font-variation-settings:normal;vector-effect:none;fill:#ffffff;fill-opacity:0.378319;fill-rule:evenodd;stroke:#364e59;stroke-width:0.264583;stroke-linecap:butt;stroke-linejoin:miter;stroke-miterlimit:4;stroke-dasharray:none;stroke-dashoffset:0;stroke-opacity:1;stop-color:#000000"
       id="circle13215"
       cx="47.625"
       cy="55.5625"
       r="5.2916665" />
    <path
       id="path13556"
       style="font-variation-settings:normal;vector-effect:none;fill:#ffffff;fill-opacity:1;fill-rule:evenodd;stroke:#364e59;stroke-width:0.264583;stroke-linecap:butt;stroke-linejoin:miter;stroke-miterlimit:4;stroke-dasharray:none;stroke-dashoffset:0;stroke-opacity:1;stop-color:#000000"
       d="m 47.588632,50.29197 a 5.2916663,5.2916663 0 0 1 5.29167,5.291666 5.2916663,5.2916663 0 0 1 -5.29167,5.291668 5.2916663,5.2916663 0 0 1 -2.64583,-0.709 5.2916663,5.2916663 0 0 0 2.64583,-4.582668 5.2916663,5.2916663 0 0 0 -2.64583,-4.582665 5.2916663,5.2916663 0 0 1 2.64583,-0.709001 z" />
    <path
       id="path8839"
       style="font-variation-settings:normal;vector-effect:none;fill:#9eabb0;fill-opacity:1;fill-rule:evenodd;stroke:#364e59;stroke-width:0.264583;stroke-linecap:butt;stroke-linejoin:miter;stroke-miterlimit:4;stroke-dasharray:none;stroke-dashoffset:0;stroke-opacity:1;stop-color:#000000"
       d="m 44.942802,51.000971 a 5.2916663,5.2916663 0 0 0 -2.645833,4.582665 5.2916663,5.2916663 0 0 0 2.645833,4.582667 5.2916663,5.2916663 0 0 0 2.645833,-4.582667 5.2916663,5.2916663 0 0 0 -2.645833,-4.582665 z" />
    <rect
       style="font-variation-settings:normal;vector-effect:none;fill:#ffffff;fill-opacity:1;fill-rule:evenodd;stroke:#364e59;stroke-width:0.264583;stroke-linecap:butt;stroke-linejoin:miter;stroke-miterlimit:4;stroke-dasharray:none;stroke-dashoffset:0;stroke-opacity:1;stop-color:#000000"
       id="rect13808"
       width="21.166666"
       height="15.875"
       x="87.3125"
       y="26.458332"
       ry="0.13229166" />
    <circle
       style="font-variation-settings:normal;vector-effect:none;fill:#9eabb0;fill-opacity:1;fill-rule:evenodd;stroke:#364e59;stroke-width:0.264583;stroke-linecap:butt;stroke-linejoin:miter;stroke-miterlimit:4;stroke-dasharray:none;stroke-dashoffset:0;stroke-opacity:1;stop-color:#000000"
       id="circle13810"
       cx="95.25"
       cy="34.395828"
       r="5.2916665" />
    <circle
       style="font-variation-settings:normal;vector-effect:none;fill:#ffffff;fill-opacity:0.378319;fill-rule:evenodd;stroke:#364e59;stroke-width:0.264583;stroke-linecap:butt;stroke-linejoin:miter;stroke-miterlimit:4;stroke-dasharray:none;stroke-dashoffset:0;stroke-opacity:1;stop-color:#000000"
       id="circle13812"
       cx="100.54166"
       cy="34.395828"
       r="5.2916665" />
    <path
       id="path13814"
       style="font-variation-settings:normal;vector-effect:none;fill:#9eabb0;fill-opacity:1;fill-rule:evenodd;stroke:#364e59;stroke-width:0.264583;stroke-linecap:butt;stroke-linejoin:miter;stroke-miterlimit:4;stroke-dasharray:none;stroke-dashoffset:0;stroke-opacity:1;stop-color:#000000"
       d="m 100.5053,29.125302 a 5.2916663,5.2916663 0 0 1 5.29167,5.291666 5.2916663,5.2916663 0 0 1 -5.29167,5.291668 5.2916663,5.2916663 0 0 1 -2.645828,-0.709 5.2916663,5.2916663 0 0 0 2.645828,-4.582668 5.2916663,5.2916663 0 0 0 -2.645828,-4.582665 5.2916663,5.2916663 0 0 1 2.645828,-0.709001 z" />
    <path
       id="path13896"
       style="font-variation-settings:normal;vector-effect:none;fill:#9eabb0;fill-opacity:0.993363;fill-rule:evenodd;stroke:#364e59;stroke-width:0.264583;stroke-linecap:butt;stroke-linejoin:miter;stroke-miterlimit:4;stroke-dasharray:none;stroke-dashoffset:0;stroke-opacity:1;stop-color:#000000"
       d="m 97.859472,29.834303 a 5.2916663,5.2916663 0 0 0 -2.645833,4.582665 5.2916663,5.2916663 0 0 0 2.645833,4.582667 5.2916663,5.2916663 0 0 0 2.645828,-4.582667 5.2916663,5.2916663 0 0 0 -2.645828,-4.582665 z" />
    <rect
       style="font-variation-settings:normal;vector-effect:none;fill:#ffffff;fill-opacity:1;fill-rule:evenodd;stroke:#364e59;stroke-width:0.264583;stroke-linecap:butt;stroke-linejoin:miter;stroke-miterlimit:4;stroke-dasharray:none;stroke-dashoffset:0;stroke-opacity:1;stop-color:#000000"
       id="rect15202"
       width="21.166666"
       height="15.875"
       x="60.854176"
       y="26.458332"
       ry="0.13229166" />
    <circle
       style="font-variation-settings:normal;vector-effect:none;fill:#9eabb0;fill-opacity:1;fill-rule:evenodd;stroke:#364e59;stroke-width:0.264583;stroke-linecap:butt;stroke-linejoin:miter;stroke-miterlimit:4;stroke-dasharray:none;stroke-dashoffset:0;stroke-opacity:1;stop-color:#000000"
       id="circle15204"
       cx="68.791679"
       cy="34.395828"
       r="5.2916665" />
    <circle
       style="font-variation-settings:normal;vector-effect:none;fill:#ffffff;fill-opacity:0.378319;fill-rule:evenodd;stroke:#364e59;stroke-width:0.264583;stroke-linecap:butt;stroke-linejoin:miter;stroke-miterlimit:4;stroke-dasharray:none;stroke-dashoffset:0;stroke-opacity:1;stop-color:#000000"
       id="circle15206"
       cx="74.083336"
       cy="34.395828"
       r="5.2916665" />
    <path
       id="path15208"
       style="font-variation-settings:normal;vector-effect:none;fill:#9eabb0;fill-opacity:1;fill-rule:evenodd;stroke:#364e59;stroke-width:0.264583;stroke-linecap:butt;stroke-linejoin:miter;stroke-miterlimit:4;stroke-dasharray:none;stroke-dashoffset:0;stroke-opacity:1;stop-color:#000000"
       d="m 74.046965,29.125302 a 5.2916663,5.2916663 0 0 1 5.291667,5.291666 5.2916663,5.2916663 0 0 1 -5.291667,5.291668 5.2916663,5.2916663 0 0 1 -2.645828,-0.709 5.2916663,5.2916663 0 0 0 2.645828,-4.582668 5.2916663,5.2916663 0 0 0 -2.645828,-4.582665 5.2916663,5.2916663 0 0 1 2.645828,-0.709001 z" />
    <path
       id="path15210"
       style="font-variation-settings:normal;vector-effect:none;fill:#9eabb0;fill-opacity:0.993363;fill-rule:evenodd;stroke:#364e59;stroke-width:0.264583;stroke-linecap:butt;stroke-linejoin:miter;stroke-miterlimit:4;stroke-dasharray:none;stroke-dashoffset:0;stroke-opacity:1;stop-color:#000000"
       d="m 71.401137,29.834303 a 5.2916663,5.2916663 0 0 0 -2.645833,4.582665 5.2916663,5.2916663 0 0 0 2.645833,4.582667 5.2916663,5.2916663 0 0 0 2.645828,-4.582667 5.2916663,5.2916663 0 0 0 -2.645828,-4.582665 z" />
    <path
       id="path15212"
       style="font-variation-settings:normal;vector-effect:none;fill:#ffffff;fill-opacity:1;fill-rule:evenodd;stroke:#364e59;stroke-width:0.264583;stroke-linecap:butt;stroke-linejoin:miter;stroke-miterlimit:4;stroke-dasharray:none;stroke-dashoffset:0;stroke-opacity:1;stop-color:#000000"
       d="m 71.401137,29.834303 a 5.2916663,5.2916663 0 0 0 -2.645833,4.582665 5.2916663,5.2916663 0 0 0 2.645833,4.582667 5.2916663,5.2916663 0 0 0 2.645833,-4.582667 5.2916663,5.2916663 0 0 0 -2.645833,-4.582665 z" />
    <rect
       style="font-variation-settings:normal;vector-effect:none;fill:#ffffff;fill-opacity:1;fill-rule:evenodd;stroke:#364e59;stroke-width:0.264583;stroke-linecap:butt;stroke-linejoin:miter;stroke-miterlimit:4;stroke-dasharray:none;stroke-dashoffset:0;stroke-opacity:1;stop-color:#000000"
       id="rect15336"
       width="21.166666"
       height="15.875"
       x="34.395836"
       y="26.458332"
       ry="0.13229166" />
    <circle
       style="font-variation-settings:normal;vector-effect:none;fill:#ffffff;fill-opacity:1;fill-rule:evenodd;stroke:#364e59;stroke-width:0.264583;stroke-linecap:butt;stroke-linejoin:miter;stroke-miterlimit:4;stroke-dasharray:none;stroke-dashoffset:0;stroke-opacity:1;stop-color:#000000"
       id="circle15338"
       cx="42.33334"
       cy="34.395828"
       r="5.2916665" />
    <circle
       style="font-variation-settings:normal;vector-effect:none;fill:#ffffff;fill-opacity:0.378319;fill-rule:evenodd;stroke:#364e59;stroke-width:0.264583;stroke-linecap:butt;stroke-linejoin:miter;stroke-miterlimit:4;stroke-dasharray:none;stroke-dashoffset:0;stroke-opacity:1;stop-color:#000000"
       id="circle15340"
       cx="47.625"
       cy="34.395828"
       r="5.2916665" />
    <path
       id="path15342"
       style="font-variation-settings:normal;vector-effect:none;fill:#ffffff;fill-opacity:1;fill-rule:evenodd;stroke:#364e59;stroke-width:0.264583;stroke-linecap:butt;stroke-linejoin:miter;stroke-miterlimit:4;stroke-dasharray:none;stroke-dashoffset:0;stroke-opacity:1;stop-color:#000000"
       d="m 47.588632,29.125302 a 5.2916663,5.2916663 0 0 1 5.29167,5.291666 5.2916663,5.2916663 0 0 1 -5.29167,5.291668 5.2916663,5.2916663 0 0 1 -2.64583,-0.709 5.2916663,5.2916663 0 0 0 2.64583,-4.582668 5.2916663,5.2916663 0 0 0 -2.64583,-4.582665 5.2916663,5.2916663 0 0 1 2.64583,-0.709001 z" />
    <path
       id="path15344"
       style="font-variation-settings:normal;vector-effect:none;fill:#9eabb0;fill-opacity:1;fill-rule:evenodd;stroke:#364e59;stroke-width:0.264583;stroke-linecap:butt;stroke-linejoin:miter;stroke-miterlimit:4;stroke-dasharray:none;stroke-dashoffset:0;stroke-opacity:1;stop-color:#000000"
       d="m 42.296968,29.125302 a 5.2916663,5.2916663 0 0 0 -5.291666,5.291666 5.2916663,5.2916663 0 0 0 5.291666,5.291667 5.2916663,5.2916663 0 0 0 2.645834,-0.709001 5.2916663,5.2916663 0 0 1 -2.645834,-4.582666 5.2916663,5.2916663 0 0 1 2.645834,-4.582665 5.2916663,5.2916663 0 0 0 -2.645834,-0.709001 z" />
    <path
       id="path15346"
       style="font-variation-settings:normal;vector-effect:none;fill:#9eabb0;fill-opacity:1;fill-rule:evenodd;stroke:#364e59;stroke-width:0.264583;stroke-linecap:butt;stroke-linejoin:miter;stroke-miterlimit:4;stroke-dasharray:none;stroke-dashoffset:0;stroke-opacity:1;stop-color:#000000"
       d="m 44.942802,29.834303 a 5.2916663,5.2916663 0 0 0 -2.645833,4.582665 5.2916663,5.2916663 0 0 0 2.645833,4.582667 5.2916663,5.2916663 0 0 0 2.645833,-4.582667 5.2916663,5.2916663 0 0 0 -2.645833,-4.582665 z" />
    <rect
       style="font-variation-settings:normal;vector-effect:none;fill:#ffffff;fill-opacity:1;fill-rule:evenodd;stroke:#364e59;stroke-width:0.264583;stroke-linecap:butt;stroke-linejoin:miter;stroke-miterlimit:4;stroke-dasharray:none;stroke-dashoffset:0;stroke-opacity:1;stop-color:#000000"
       id="rect15548"
       width="21.166666"
       height="15.875"
       x="7.9375043"
       y="26.458332"
       ry="0.13229166" />
    <circle
       style="font-variation-settings:normal;vector-effect:none;fill:#ffffff;fill-opacity:1;fill-rule:evenodd;stroke:#364e59;stroke-width:0.264583;stroke-linecap:butt;stroke-linejoin:miter;stroke-miterlimit:4;stroke-dasharray:none;stroke-dashoffset:0;stroke-opacity:1;stop-color:#000000"
       id="circle15550"
       cx="15.875007"
       cy="34.395828"
       r="5.2916665" />
    <circle
       style="font-variation-settings:normal;vector-effect:none;fill:#ffffff;fill-opacity:0.378319;fill-rule:evenodd;stroke:#364e59;stroke-width:0.264583;stroke-linecap:butt;stroke-linejoin:miter;stroke-miterlimit:4;stroke-dasharray:none;stroke-dashoffset:0;stroke-opacity:1;stop-color:#000000"
       id="circle15552"
       cx="21.166666"
       cy="34.395828"
       r="5.2916665" />
    <path
       id="path15554"
       style="font-variation-settings:normal;vector-effect:none;fill:#ffffff;fill-opacity:1;fill-rule:evenodd;stroke:#364e59;stroke-width:0.264583;stroke-linecap:butt;stroke-linejoin:miter;stroke-miterlimit:4;stroke-dasharray:none;stroke-dashoffset:0;stroke-opacity:1;stop-color:#000000"
       d="m 21.130297,29.125302 a 5.2916663,5.2916663 0 0 1 5.29167,5.291666 5.2916663,5.2916663 0 0 1 -5.29167,5.291668 5.2916663,5.2916663 0 0 1 -2.64583,-0.709 5.2916663,5.2916663 0 0 0 2.64583,-4.582668 5.2916663,5.2916663 0 0 0 -2.64583,-4.582665 5.2916663,5.2916663 0 0 1 2.64583,-0.709001 z" />
    <path
       id="path15556"
       style="font-variation-settings:normal;vector-effect:none;fill:#9eabb0;fill-opacity:1;fill-rule:evenodd;stroke:#364e59;stroke-width:0.264583;stroke-linecap:butt;stroke-linejoin:miter;stroke-miterlimit:4;stroke-dasharray:none;stroke-dashoffset:0;stroke-opacity:1;stop-color:#000000"
       d="m 15.838633,29.125302 a 5.2916663,5.2916663 0 0 0 -5.291666,5.291666 5.2916663,5.2916663 0 0 0 5.291666,5.291667 5.2916663,5.2916663 0 0 0 2.645834,-0.709001 5.2916663,5.2916663 0 0 1 -2.645834,-4.582666 5.2916663,5.2916663 0 0 1 2.645834,-4.582665 5.2916663,5.2916663 0 0 0 -2.645834,-0.709001 z" />
    <path
       id="path15763"
       style="font-variation-settings:normal;vector-effect:none;fill:#9eabb0;fill-opacity:1;fill-rule:evenodd;stroke:#364e59;stroke-width:0.264583;stroke-linecap:butt;stroke-linejoin:miter;stroke-miterlimit:4;stroke-dasharray:none;stroke-dashoffset:0;stroke-opacity:1;stop-color:#000000"
       d="m 87.444791,5.2916643 c -0.07329,0 -0.132292,0.059 -0.132292,0.132291 V 21.034372 c 0,0.07329 0.059,0.132292 0.132292,0.132292 h 20.902079 c 0.0733,0 0.1323,-0.059 0.1323,-0.132292 V 5.4239553 c 0,-0.07329 -0.059,-0.132291 -0.1323,-0.132291 z m 7.805208,2.645833 a 5.2916663,5.2916663 0 0 1 2.645833,0.709001 5.2916663,5.2916663 0 0 1 2.645838,-0.709001 5.2916663,5.2916663 0 0 1 5.29166,5.2916667 5.2916663,5.2916663 0 0 1 -5.29166,5.291666 5.2916663,5.2916663 0 0 1 -2.645838,-0.709001 5.2916663,5.2916663 0 0 1 -2.645833,0.709001 5.2916663,5.2916663 0 0 1 -5.291667,-5.291666 5.2916663,5.2916663 0 0 1 5.291667,-5.2916667 z m 2.645833,9.8743317 a 5.2916663,5.2916663 0 0 0 2.645838,-4.582665 5.2916663,5.2916663 0 0 0 -2.645838,-4.5826657 5.2916663,5.2916663 0 0 0 -2.645833,4.5826657 5.2916663,5.2916663 0 0 0 2.645833,4.582665 z" />
    <path
       id="path15765"
       style="font-variation-settings:normal;vector-effect:none;fill:#ffffff;fill-opacity:1;fill-rule:evenodd;stroke:#364e59;stroke-width:0.264583;stroke-linecap:butt;stroke-linejoin:miter;stroke-miterlimit:4;stroke-dasharray:none;stroke-dashoffset:0;stroke-opacity:1;stop-color:#000000"
       d="m 97.895831,8.6464983 a 5.2916663,5.2916663 0 0 0 -2.645833,4.5826647 5.2916663,5.2916663 0 0 0 2.645833,4.582667 5.2916663,5.2916663 0 0 0 2.645839,-4.582667 5.2916663,5.2916663 0 0 0 -2.645839,-4.5826647 z" />
    <path
       id="path15830"
       style="font-variation-settings:normal;vector-effect:none;fill:#9eabb0;fill-opacity:0.993363;fill-rule:evenodd;stroke:#364e59;stroke-width:0.264583;stroke-linecap:butt;stroke-linejoin:miter;stroke-miterlimit:4;stroke-dasharray:none;stroke-dashoffset:0;stroke-opacity:1;stop-color:#000000"
       d="M 97.859472,8.6676353 A 5.2916663,5.2916663 0 0 0 95.213639,13.2503 5.2916663,5.2916663 0 0 0 97.859472,17.832967 5.2916663,5.2916663 0 0 0 100.5053,13.2503 5.2916663,5.2916663 0 0 0 97.859472,8.6676353 Z" />
    <path
       id="path15832"
       style="font-variation-settings:normal;vector-effect:none;fill:#9eabb0;fill-opacity:1;fill-rule:evenodd;stroke:#364e59;stroke-width:0.264583;stroke-linecap:butt;stroke-linejoin:miter;stroke-miterlimit:4;stroke-dasharray:none;stroke-dashoffset:0;stroke-opacity:1;stop-color:#000000"
       d="m 100.54166,7.9374973 a 5.2916663,5.2916663 0 0 1 5.29167,5.2916657 5.2916663,5.2916663 0 0 1 -5.29167,5.291668 5.2916663,5.2916663 0 0 1 -2.645828,-0.709 5.2916663,5.2916663 0 0 0 2.645828,-4.582668 5.2916663,5.2916663 0 0 0 -2.645828,-4.5826647 5.2916663,5.2916663 0 0 1 2.645828,-0.709001 z" />
    <path
       id="path15890"
       style="font-variation-settings:normal;vector-effect:none;fill:#9eabb0;fill-opacity:0.993363;fill-rule:evenodd;stroke:#364e59;stroke-width:0.264583;stroke-linecap:butt;stroke-linejoin:miter;stroke-miterlimit:4;stroke-dasharray:none;stroke-dashoffset:0;stroke-opacity:1;stop-color:#000000"
       d="M 97.859472,8.6676353 A 5.2916663,5.2916663 0 0 0 95.213639,13.2503 5.2916663,5.2916663 0 0 0 97.859472,17.832967 5.2916663,5.2916663 0 0 0 100.5053,13.2503 5.2916663,5.2916663 0 0 0 97.859472,8.6676353 Z" />
    <path
       id="path15892"
       style="font-variation-settings:normal;vector-effect:none;fill:#9eabb0;fill-opacity:0.98893809;fill-rule:evenodd;stroke:#364e59;stroke-width:0.264583;stroke-linecap:butt;stroke-linejoin:miter;stroke-miterlimit:4;stroke-dasharray:none;stroke-dashoffset:0;stroke-opacity:1;stop-color:#000000"
       d="M 95.213655,7.9586343 A 5.2916663,5.2916663 0 0 0 89.92198,13.2503 a 5.2916663,5.2916663 0 0 0 5.291675,5.291668 5.2916663,5.2916663 0 0 0 2.645817,-0.709 5.2916663,5.2916663 0 0 1 -2.645817,-4.582668 5.2916663,5.2916663 0 0 1 2.645817,-4.5826647 5.2916663,5.2916663 0 0 0 -2.645817,-0.709001 z" />
    <path
       id="path16429"
       style="font-variation-settings:normal;vector-effect:none;fill:#9eabb0;fill-opacity:1;fill-rule:evenodd;stroke:#364e59;stroke-width:0.264583;stroke-linecap:butt;stroke-linejoin:miter;stroke-miterlimit:4;stroke-dasharray:none;stroke-dashoffset:0;stroke-opacity:1;stop-color:#000000"
       d="m 60.986456,5.2916643 c -0.07329,0 -0.132292,0.059 -0.132292,0.132291 V 21.034372 c 0,0.07329 0.059,0.132292 0.132292,0.132292 h 20.902076 c 0.0733,0 0.1323,-0.059 0.1323,-0.132292 V 5.4239553 c 0,-0.07329 -0.059,-0.132291 -0.1323,-0.132291 z m 7.805208,2.645833 a 5.2916663,5.2916663 0 0 1 2.645833,0.709001 5.2916663,5.2916663 0 0 1 2.645838,-0.709001 5.2916663,5.2916663 0 0 1 5.291657,5.2916667 5.2916663,5.2916663 0 0 1 -5.291657,5.291666 5.2916663,5.2916663 0 0 1 -2.645838,-0.709001 5.2916663,5.2916663 0 0 1 -2.645833,0.709001 5.2916663,5.2916663 0 0 1 -5.291667,-5.291666 5.2916663,5.2916663 0 0 1 5.291667,-5.2916667 z m 2.645833,9.8743317 a 5.2916663,5.2916663 0 0 0 2.645838,-4.582665 5.2916663,5.2916663 0 0 0 -2.645838,-4.5826657 5.2916663,5.2916663 0 0 0 -2.645833,4.5826657 5.2916663,5.2916663 0 0 0 2.645833,4.582665 z" />
    <path
       id="path16431"
       style="font-variation-settings:normal;vector-effect:none;fill:#ffffff;fill-opacity:1;fill-rule:evenodd;stroke:#364e59;stroke-width:0.264583;stroke-linecap:butt;stroke-linejoin:miter;stroke-miterlimit:4;stroke-dasharray:none;stroke-dashoffset:0;stroke-opacity:1;stop-color:#000000"
       d="m 71.437496,8.6464983 a 5.2916663,5.2916663 0 0 0 -2.645833,4.5826647 5.2916663,5.2916663 0 0 0 2.645833,4.582667 5.2916663,5.2916663 0 0 0 2.645839,-4.582667 5.2916663,5.2916663 0 0 0 -2.645839,-4.5826647 z" />
    <path
       id="path16433"
       style="font-variation-settings:normal;vector-effect:none;fill:#9eabb0;fill-opacity:0.993363;fill-rule:evenodd;stroke:#364e59;stroke-width:0.264583;stroke-linecap:butt;stroke-linejoin:miter;stroke-miterlimit:4;stroke-dasharray:none;stroke-dashoffset:0;stroke-opacity:1;stop-color:#000000"
       d="M 71.401137,8.6676353 A 5.2916663,5.2916663 0 0 0 68.755304,13.2503 5.2916663,5.2916663 0 0 0 71.401137,17.832967 5.2916663,5.2916663 0 0 0 74.046965,13.2503 5.2916663,5.2916663 0 0 0 71.401137,8.6676353 Z" />
    <path
       id="path16435"
       style="font-variation-settings:normal;vector-effect:none;fill:#9eabb0;fill-opacity:1;fill-rule:evenodd;stroke:#364e59;stroke-width:0.264583;stroke-linecap:butt;stroke-linejoin:miter;stroke-miterlimit:4;stroke-dasharray:none;stroke-dashoffset:0;stroke-opacity:1;stop-color:#000000"
       d="m 74.083325,7.9374973 a 5.2916663,5.2916663 0 0 1 5.291667,5.2916657 5.2916663,5.2916663 0 0 1 -5.291667,5.291668 5.2916663,5.2916663 0 0 1 -2.645828,-0.709 5.2916663,5.2916663 0 0 0 2.645828,-4.582668 5.2916663,5.2916663 0 0 0 -2.645828,-4.5826647 5.2916663,5.2916663 0 0 1 2.645828,-0.709001 z" />
    <path
       id="path16437"
       style="font-variation-settings:normal;vector-effect:none;fill:#ffffff;fill-opacity:0.993363;fill-rule:evenodd;stroke:#364e59;stroke-width:0.264583;stroke-linecap:butt;stroke-linejoin:miter;stroke-miterlimit:4;stroke-dasharray:none;stroke-dashoffset:0;stroke-opacity:1;stop-color:#000000"
       d="M 71.401137,8.6676353 A 5.2916663,5.2916663 0 0 0 68.755304,13.2503 5.2916663,5.2916663 0 0 0 71.401137,17.832967 5.2916663,5.2916663 0 0 0 74.046965,13.2503 5.2916663,5.2916663 0 0 0 71.401137,8.6676353 Z" />
    <path
       id="path16439"
       style="font-variation-settings:normal;vector-effect:none;fill:#9eabb0;fill-opacity:0.988938;fill-rule:evenodd;stroke:#364e59;stroke-width:0.264583;stroke-linecap:butt;stroke-linejoin:miter;stroke-miterlimit:4;stroke-dasharray:none;stroke-dashoffset:0;stroke-opacity:1;stop-color:#000000"
       d="m 68.75532,7.9586343 a 5.2916663,5.2916663 0 0 0 -5.291675,5.2916657 5.2916663,5.2916663 0 0 0 5.291675,5.291668 5.2916663,5.2916663 0 0 0 2.645817,-0.709 A 5.2916663,5.2916663 0 0 1 68.75532,13.2503 5.2916663,5.2916663 0 0 1 71.401137,8.6676353 5.2916663,5.2916663 0 0 0 68.75532,7.9586343 Z" />
    <path
       id="path16459"
       style="font-variation-settings:normal;vector-effect:none;fill:#9eabb0;fill-opacity:1;fill-rule:evenodd;stroke:#364e59;stroke-width:0.264583;stroke-linecap:butt;stroke-linejoin:miter;stroke-miterlimit:4;stroke-dasharray:none;stroke-dashoffset:0;stroke-opacity:1;stop-color:#000000"
       d="m 34.528121,5.2916643 c -0.07329,0 -0.132292,0.059 -0.132292,0.132291 V 21.034372 c 0,0.07329 0.059,0.132292 0.132292,0.132292 h 20.902076 c 0.0733,0 0.1323,-0.059 0.1323,-0.132292 V 5.4239553 c 0,-0.07329 -0.059,-0.132291 -0.1323,-0.132291 z m 7.805208,2.645833 A 5.2916663,5.2916663 0 0 1 44.979162,8.6464983 5.2916663,5.2916663 0 0 1 47.625,7.9374973 5.2916663,5.2916663 0 0 1 52.916657,13.229164 5.2916663,5.2916663 0 0 1 47.625,18.52083 5.2916663,5.2916663 0 0 1 44.979162,17.811829 5.2916663,5.2916663 0 0 1 42.333329,18.52083 5.2916663,5.2916663 0 0 1 37.041662,13.229164 5.2916663,5.2916663 0 0 1 42.333329,7.9374973 Z m 2.645833,9.8743317 A 5.2916663,5.2916663 0 0 0 47.625,13.229164 5.2916663,5.2916663 0 0 0 44.979162,8.6464983 a 5.2916663,5.2916663 0 0 0 -2.645833,4.5826657 5.2916663,5.2916663 0 0 0 2.645833,4.582665 z" />
    <path
       id="path16461"
       style="font-variation-settings:normal;vector-effect:none;fill:#ffffff;fill-opacity:1;fill-rule:evenodd;stroke:#364e59;stroke-width:0.264583;stroke-linecap:butt;stroke-linejoin:miter;stroke-miterlimit:4;stroke-dasharray:none;stroke-dashoffset:0;stroke-opacity:1;stop-color:#000000"
       d="M 44.979161,8.6464983 A 5.2916663,5.2916663 0 0 0 42.333328,13.229163 5.2916663,5.2916663 0 0 0 44.979161,17.81183 5.2916663,5.2916663 0 0 0 47.625,13.229163 5.2916663,5.2916663 0 0 0 44.979161,8.6464983 Z" />
    <path
       id="path16463"
       style="font-variation-settings:normal;vector-effect:none;fill:#9eabb0;fill-opacity:0.993363;fill-rule:evenodd;stroke:#364e59;stroke-width:0.264583;stroke-linecap:butt;stroke-linejoin:miter;stroke-miterlimit:4;stroke-dasharray:none;stroke-dashoffset:0;stroke-opacity:1;stop-color:#000000"
       d="M 44.942802,8.6676353 A 5.2916663,5.2916663 0 0 0 42.296969,13.2503 5.2916663,5.2916663 0 0 0 44.942802,17.832967 5.2916663,5.2916663 0 0 0 47.58863,13.2503 5.2916663,5.2916663 0 0 0 44.942802,8.6676353 Z" />
    <path
       id="path16465"
       style="font-variation-settings:normal;vector-effect:none;fill:#ffffff;fill-opacity:1;fill-rule:evenodd;stroke:#364e59;stroke-width:0.264583;stroke-linecap:butt;stroke-linejoin:miter;stroke-miterlimit:4;stroke-dasharray:none;stroke-dashoffset:0;stroke-opacity:1;stop-color:#000000"
       d="m 47.62499,7.9374973 a 5.2916663,5.2916663 0 0 1 5.291667,5.2916657 5.2916663,5.2916663 0 0 1 -5.291667,5.291668 5.2916663,5.2916663 0 0 1 -2.645828,-0.709 5.2916663,5.2916663 0 0 0 2.645828,-4.582668 5.2916663,5.2916663 0 0 0 -2.645828,-4.5826647 5.2916663,5.2916663 0 0 1 2.645828,-0.709001 z" />
    <path
       id="path16467"
       style="font-variation-settings:normal;vector-effect:none;fill:#9eabb0;fill-opacity:0.993363;fill-rule:evenodd;stroke:#364e59;stroke-width:0.264583;stroke-linecap:butt;stroke-linejoin:miter;stroke-miterlimit:4;stroke-dasharray:none;stroke-dashoffset:0;stroke-opacity:1;stop-color:#000000"
       d="M 44.942802,8.6676353 A 5.2916663,5.2916663 0 0 0 42.296969,13.2503 5.2916663,5.2916663 0 0 0 44.942802,17.832967 5.2916663,5.2916663 0 0 0 47.58863,13.2503 5.2916663,5.2916663 0 0 0 44.942802,8.6676353 Z" />
    <path
       id="path16469"
       style="font-variation-settings:normal;vector-effect:none;fill:#9eabb0;fill-opacity:0.988938;fill-rule:evenodd;stroke:#364e59;stroke-width:0.264583;stroke-linecap:butt;stroke-linejoin:miter;stroke-miterlimit:4;stroke-dasharray:none;stroke-dashoffset:0;stroke-opacity:1;stop-color:#000000"
       d="M 42.296985,7.9586343 A 5.2916663,5.2916663 0 0 0 37.00531,13.2503 a 5.2916663,5.2916663 0 0 0 5.291675,5.291668 5.2916663,5.2916663 0 0 0 2.645817,-0.709 5.2916663,5.2916663 0 0 1 -2.645817,-4.582668 5.2916663,5.2916663 0 0 1 2.645817,-4.5826647 5.2916663,5.2916663 0 0 0 -2.645817,-0.709001 z" />
    <path
       id="path16507"
       style="font-variation-settings:normal;vector-effect:none;fill:#9eabb0;fill-opacity:1;fill-rule:evenodd;stroke:#364e59;stroke-width:0.264583;stroke-linecap:butt;stroke-linejoin:miter;stroke-miterlimit:4;stroke-dasharray:none;stroke-dashoffset:0;stroke-opacity:1;stop-color:#000000"
       d="m 8.0697863,5.2916643 c -0.07329,0 -0.132292,0.059 -0.132292,0.132291 V 21.034372 c 0,0.07329 0.059,0.132292 0.132292,0.132292 H 28.971862 c 0.0733,0 0.1323,-0.059 0.1323,-0.132292 V 5.4239553 c 0,-0.07329 -0.059,-0.132291 -0.1323,-0.132291 z m 7.8052077,2.645833 a 5.2916663,5.2916663 0 0 1 2.645833,0.709001 5.2916663,5.2916663 0 0 1 2.645838,-0.709001 5.2916663,5.2916663 0 0 1 5.291657,5.2916667 5.2916663,5.2916663 0 0 1 -5.291657,5.291666 5.2916663,5.2916663 0 0 1 -2.645838,-0.709001 5.2916663,5.2916663 0 0 1 -2.645833,0.709001 5.2916663,5.2916663 0 0 1 -5.291667,-5.291666 5.2916663,5.2916663 0 0 1 5.291667,-5.2916667 z m 2.645833,9.8743317 a 5.2916663,5.2916663 0 0 0 2.645838,-4.582665 5.2916663,5.2916663 0 0 0 -2.645838,-4.5826657 5.2916663,5.2916663 0 0 0 -2.645833,4.5826657 5.2916663,5.2916663 0 0 0 2.645833,4.582665 z" />
    <path
       id="path16509"
       style="font-variation-settings:normal;vector-effect:none;fill:#ffffff;fill-opacity:1;fill-rule:evenodd;stroke:#364e59;stroke-width:0.264583;stroke-linecap:butt;stroke-linejoin:miter;stroke-miterlimit:4;stroke-dasharray:none;stroke-dashoffset:0;stroke-opacity:1;stop-color:#000000"
       d="m 18.520826,8.6464983 a 5.2916663,5.2916663 0 0 0 -2.645833,4.5826647 5.2916663,5.2916663 0 0 0 2.645833,4.582667 5.2916663,5.2916663 0 0 0 2.645839,-4.582667 5.2916663,5.2916663 0 0 0 -2.645839,-4.5826647 z" />
    <path
       id="path16511"
       style="font-variation-settings:normal;vector-effect:none;fill:#9eabb0;fill-opacity:0.993363;fill-rule:evenodd;stroke:#364e59;stroke-width:0.264583;stroke-linecap:butt;stroke-linejoin:miter;stroke-miterlimit:4;stroke-dasharray:none;stroke-dashoffset:0;stroke-opacity:1;stop-color:#000000"
       d="M 18.484467,8.6676353 A 5.2916663,5.2916663 0 0 0 15.838634,13.2503 5.2916663,5.2916663 0 0 0 18.484467,17.832967 5.2916663,5.2916663 0 0 0 21.130295,13.2503 5.2916663,5.2916663 0 0 0 18.484467,8.6676353 Z" />
    <path
       id="path16513"
       style="font-variation-settings:normal;vector-effect:none;fill:#ffffff;fill-opacity:1;fill-rule:evenodd;stroke:#364e59;stroke-width:0.264583;stroke-linecap:butt;stroke-linejoin:miter;stroke-miterlimit:4;stroke-dasharray:none;stroke-dashoffset:0;stroke-opacity:1;stop-color:#000000"
       d="m 21.166655,7.9374973 a 5.2916663,5.2916663 0 0 1 5.291667,5.2916657 5.2916663,5.2916663 0 0 1 -5.291667,5.291668 5.2916663,5.2916663 0 0 1 -2.645828,-0.709 5.2916663,5.2916663 0 0 0 2.645828,-4.582668 5.2916663,5.2916663 0 0 0 -2.645828,-4.5826647 5.2916663,5.2916663 0 0 1 2.645828,-0.709001 z" />
    <path
       id="path16515"
       style="font-variation-settings:normal;vector-effect:none;fill:#ffffff;fill-opacity:0.993363;fill-rule:evenodd;stroke:#364e59;stroke-width:0.264583;stroke-linecap:butt;stroke-linejoin:miter;stroke-miterlimit:4;stroke-dasharray:none;stroke-dashoffset:0;stroke-opacity:1;stop-color:#000000"
       d="M 18.484467,8.6676353 A 5.2916663,5.2916663 0 0 0 15.838634,13.2503 5.2916663,5.2916663 0 0 0 18.484467,17.832967 5.2916663,5.2916663 0 0 0 21.130295,13.2503 5.2916663,5.2916663 0 0 0 18.484467,8.6676353 Z" />
    <path
       id="path16517"
       style="font-variation-settings:normal;vector-effect:none;fill:#9eabb0;fill-opacity:0.988938;fill-rule:evenodd;stroke:#364e59;stroke-width:0.264583;stroke-linecap:butt;stroke-linejoin:miter;stroke-miterlimit:4;stroke-dasharray:none;stroke-dashoffset:0;stroke-opacity:1;stop-color:#000000"
       d="m 15.83865,7.9586343 a 5.2916663,5.2916663 0 0 0 -5.291675,5.2916657 5.2916663,5.2916663 0 0 0 5.291675,5.291668 5.2916663,5.2916663 0 0 0 2.645817,-0.709 A 5.2916663,5.2916663 0 0 1 15.83865,13.2503 5.2916663,5.2916663 0 0 1 18.484467,8.6676353 5.2916663,5.2916663 0 0 0 15.83865,7.9586343 Z" />
    <path
       id="path17208"
       style="font-variation-settings:normal;vector-effect:none;fill:#ffffff;fill-opacity:1;fill-rule:evenodd;stroke:#364e59;stroke-width:0.264583;stroke-linecap:butt;stroke-linejoin:miter;stroke-miterlimit:4;stroke-dasharray:none;stroke-dashoffset:0;stroke-opacity:1;stop-color:#000000"
       d="m 8.0697863,68.791668 c -0.07329,0 -0.132292,0.059 -0.132292,0.132291 v 15.610417 c 0,0.07329 0.059,0.132292 0.132292,0.132292 H 28.971862 c 0.0733,0 0.1323,-0.059 0.1323,-0.132292 V 68.923959 c 0,-0.07329 -0.059,-0.132291 -0.1323,-0.132291 z m 7.8052077,2.645833 a 5.2916663,5.2916663 0 0 1 2.645833,0.709001 5.2916663,5.2916663 0 0 1 2.645838,-0.709001 5.2916663,5.2916663 0 0 1 5.291657,5.291667 5.2916663,5.2916663 0 0 1 -5.291657,5.291666 5.2916663,5.2916663 0 0 1 -2.645838,-0.709001 5.2916663,5.2916663 0 0 1 -2.645833,0.709001 5.2916663,5.2916663 0 0 1 -5.291667,-5.291666 5.2916663,5.2916663 0 0 1 5.291667,-5.291667 z m 2.645833,9.874332 a 5.2916663,5.2916663 0 0 0 2.645838,-4.582665 5.2916663,5.2916663 0 0 0 -2.645838,-4.582666 5.2916663,5.2916663 0 0 0 -2.645833,4.582666 5.2916663,5.2916663 0 0 0 2.645833,4.582665 z" />
    <path
       id="path17210"
       style="font-variation-settings:normal;vector-effect:none;fill:#ffffff;fill-opacity:1;fill-rule:evenodd;stroke:#364e59;stroke-width:0.264583;stroke-linecap:butt;stroke-linejoin:miter;stroke-miterlimit:4;stroke-dasharray:none;stroke-dashoffset:0;stroke-opacity:1;stop-color:#000000"
       d="m 18.520826,72.146502 a 5.2916663,5.2916663 0 0 0 -2.645833,4.582665 5.2916663,5.2916663 0 0 0 2.645833,4.582667 5.2916663,5.2916663 0 0 0 2.645839,-4.582667 5.2916663,5.2916663 0 0 0 -2.645839,-4.582665 z" />
    <path
       id="path17212"
       style="font-variation-settings:normal;vector-effect:none;fill:#9eabb0;fill-opacity:0.993363;fill-rule:evenodd;stroke:#364e59;stroke-width:0.264583;stroke-linecap:butt;stroke-linejoin:miter;stroke-miterlimit:4;stroke-dasharray:none;stroke-dashoffset:0;stroke-opacity:1;stop-color:#000000"
       d="m 18.484467,72.167639 a 5.2916663,5.2916663 0 0 0 -2.645833,4.582665 5.2916663,5.2916663 0 0 0 2.645833,4.582667 5.2916663,5.2916663 0 0 0 2.645828,-4.582667 5.2916663,5.2916663 0 0 0 -2.645828,-4.582665 z" />
    <path
       id="path17214"
       style="font-variation-settings:normal;vector-effect:none;fill:#ffffff;fill-opacity:1;fill-rule:evenodd;stroke:#364e59;stroke-width:0.264583;stroke-linecap:butt;stroke-linejoin:miter;stroke-miterlimit:4;stroke-dasharray:none;stroke-dashoffset:0;stroke-opacity:1;stop-color:#000000"
       d="m 21.166655,71.437501 a 5.2916663,5.2916663 0 0 1 5.291667,5.291666 5.2916663,5.2916663 0 0 1 -5.291667,5.291668 5.2916663,5.2916663 0 0 1 -2.645828,-0.709 5.2916663,5.2916663 0 0 0 2.645828,-4.582668 5.2916663,5.2916663 0 0 0 -2.645828,-4.582665 5.2916663,5.2916663 0 0 1 2.645828,-0.709001 z" />
    <path
       id="path17216"
       style="font-variation-settings:normal;vector-effect:none;fill:#ffffff;fill-opacity:0.993363;fill-rule:evenodd;stroke:#364e59;stroke-width:0.264583;stroke-linecap:butt;stroke-linejoin:miter;stroke-miterlimit:4;stroke-dasharray:none;stroke-dashoffset:0;stroke-opacity:1;stop-color:#000000"
       d="m 18.484467,72.167639 a 5.2916663,5.2916663 0 0 0 -2.645833,4.582665 5.2916663,5.2916663 0 0 0 2.645833,4.582667 5.2916663,5.2916663 0 0 0 2.645828,-4.582667 5.2916663,5.2916663 0 0 0 -2.645828,-4.582665 z" />
    <path
       id="path17218"
       style="font-variation-settings:normal;vector-effect:none;fill:#ffffff;fill-opacity:0.988938;fill-rule:evenodd;stroke:#364e59;stroke-width:0.264583;stroke-linecap:butt;stroke-linejoin:miter;stroke-miterlimit:4;stroke-dasharray:none;stroke-dashoffset:0;stroke-opacity:1;stop-color:#000000"
       d="m 15.83865,71.458638 a 5.2916663,5.2916663 0 0 0 -5.291675,5.291666 5.2916663,5.2916663 0 0 0 5.291675,5.291668 5.2916663,5.2916663 0 0 0 2.645817,-0.709 5.2916663,5.2916663 0 0 1 -2.645817,-4.582668 5.2916663,5.2916663 0 0 1 2.645817,-4.582665 5.2916663,5.2916663 0 0 0 -2.645817,-0.709001 z" />
    <path
       id="path17453"
       style="font-variation-settings:normal;vector-effect:none;fill:#ffffff;fill-opacity:1;fill-rule:evenodd;stroke:#364e59;stroke-width:0.264583;stroke-linecap:butt;stroke-linejoin:miter;stroke-miterlimit:4;stroke-dasharray:none;stroke-dashoffset:0;stroke-opacity:1;stop-color:#000000"
       d="m 60.986456,68.791668 c -0.07329,0 -0.132292,0.059 -0.132292,0.132291 v 15.61042 c 0,0.0733 0.059,0.13229 0.132292,0.13229 h 20.902076 c 0.0733,0 0.1323,-0.059 0.1323,-0.13229 v -15.61042 c 0,-0.07329 -0.059,-0.132291 -0.1323,-0.132291 z m 7.805208,2.645833 a 5.2916663,5.2916663 0 0 1 2.645833,0.709001 5.2916663,5.2916663 0 0 1 2.645838,-0.709001 5.2916663,5.2916663 0 0 1 5.291657,5.291667 5.2916663,5.2916663 0 0 1 -5.291657,5.291664 5.2916663,5.2916663 0 0 1 -2.645838,-0.709 5.2916663,5.2916663 0 0 1 -2.645833,0.709 5.2916663,5.2916663 0 0 1 -5.291667,-5.291664 5.2916663,5.2916663 0 0 1 5.291667,-5.291667 z m 2.645833,9.874331 a 5.2916663,5.2916663 0 0 0 2.645838,-4.582664 5.2916663,5.2916663 0 0 0 -2.645838,-4.582666 5.2916663,5.2916663 0 0 0 -2.645833,4.582666 5.2916663,5.2916663 0 0 0 2.645833,4.582664 z" />
    <path
       id="path17455"
       style="font-variation-settings:normal;vector-effect:none;fill:#ffffff;fill-opacity:1;fill-rule:evenodd;stroke:#364e59;stroke-width:0.264583;stroke-linecap:butt;stroke-linejoin:miter;stroke-miterlimit:4;stroke-dasharray:none;stroke-dashoffset:0;stroke-opacity:1;stop-color:#000000"
       d="m 71.437496,72.146502 a 5.2916663,5.2916663 0 0 0 -2.645833,4.582665 5.2916663,5.2916663 0 0 0 2.645833,4.582665 5.2916663,5.2916663 0 0 0 2.645839,-4.582665 5.2916663,5.2916663 0 0 0 -2.645839,-4.582665 z" />
    <path
       id="path17457"
       style="font-variation-settings:normal;vector-effect:none;fill:#9eabb0;fill-opacity:0.993363;fill-rule:evenodd;stroke:#364e59;stroke-width:0.264583;stroke-linecap:butt;stroke-linejoin:miter;stroke-miterlimit:4;stroke-dasharray:none;stroke-dashoffset:0;stroke-opacity:1;stop-color:#000000"
       d="m 71.401137,72.167639 a 5.2916663,5.2916663 0 0 0 -2.645833,4.582665 5.2916663,5.2916663 0 0 0 2.645833,4.582668 5.2916663,5.2916663 0 0 0 2.645828,-4.582668 5.2916663,5.2916663 0 0 0 -2.645828,-4.582665 z" />
    <path
       id="path17459"
       style="font-variation-settings:normal;vector-effect:none;fill:#9eabb0;fill-opacity:1;fill-rule:evenodd;stroke:#364e59;stroke-width:0.264583;stroke-linecap:butt;stroke-linejoin:miter;stroke-miterlimit:4;stroke-dasharray:none;stroke-dashoffset:0;stroke-opacity:1;stop-color:#000000"
       d="m 74.083325,71.437501 a 5.2916663,5.2916663 0 0 1 5.291667,5.291666 5.2916663,5.2916663 0 0 1 -5.291667,5.291665 5.2916663,5.2916663 0 0 1 -2.645828,-0.709 5.2916663,5.2916663 0 0 0 2.645828,-4.582665 5.2916663,5.2916663 0 0 0 -2.645828,-4.582665 5.2916663,5.2916663 0 0 1 2.645828,-0.709001 z" />
    <path
       id="path17461"
       style="font-variation-settings:normal;vector-effect:none;fill:#ffffff;fill-opacity:0.993363;fill-rule:evenodd;stroke:#364e59;stroke-width:0.264583;stroke-linecap:butt;stroke-linejoin:miter;stroke-miterlimit:4;stroke-dasharray:none;stroke-dashoffset:0;stroke-opacity:1;stop-color:#000000"
       d="m 71.401137,72.167639 a 5.2916663,5.2916663 0 0 0 -2.645833,4.582665 5.2916663,5.2916663 0 0 0 2.645833,4.582668 5.2916663,5.2916663 0 0 0 2.645828,-4.582668 5.2916663,5.2916663 0 0 0 -2.645828,-4.582665 z" />
    <path
       id="path17463"
       style="font-variation-settings:normal;vector-effect:none;fill:#ffffff;fill-opacity:0.988938;fill-rule:evenodd;stroke:#364e59;stroke-width:0.264583;stroke-linecap:butt;stroke-linejoin:miter;stroke-miterlimit:4;stroke-dasharray:none;stroke-dashoffset:0;stroke-opacity:1;stop-color:#000000"
       d="m 68.75532,71.458638 a 5.2916663,5.2916663 0 0 0 -5.291675,5.291666 5.2916663,5.2916663 0 0 0 5.291675,5.291668 5.2916663,5.2916663 0 0 0 2.645817,-0.709 5.2916663,5.2916663 0 0 1 -2.645817,-4.582668 5.2916663,5.2916663 0 0 1 2.645817,-4.582665 5.2916663,5.2916663 0 0 0 -2.645817,-0.709001 z" />
    <path
       id="path17643"
       style="font-variation-settings:normal;vector-effect:none;fill:#ffffff;fill-opacity:1;fill-rule:evenodd;stroke:#364e59;stroke-width:0.264583;stroke-linecap:butt;stroke-linejoin:miter;stroke-miterlimit:4;stroke-dasharray:none;stroke-dashoffset:0;stroke-opacity:1;stop-color:#000000"
       d="m 34.528121,68.791668 c -0.07329,0 -0.132292,0.059 -0.132292,0.13229 v 15.610421 c 0,0.0733 0.059,0.13229 0.132292,0.13229 h 20.902076 c 0.0733,0 0.1323,-0.059 0.1323,-0.13229 V 68.923958 c 0,-0.0733 -0.059,-0.13229 -0.1323,-0.13229 z m 7.805208,2.64583 a 5.2916663,5.2916663 0 0 1 2.645833,0.709 5.2916663,5.2916663 0 0 1 2.645838,-0.709 5.2916663,5.2916663 0 0 1 5.291657,5.291667 5.2916663,5.2916663 0 0 1 -5.291657,5.291667 5.2916663,5.2916663 0 0 1 -2.645838,-0.709 5.2916663,5.2916663 0 0 1 -2.645833,0.709 5.2916663,5.2916663 0 0 1 -5.291667,-5.291667 5.2916663,5.2916663 0 0 1 5.291667,-5.291667 z m 2.645833,9.874334 a 5.2916663,5.2916663 0 0 0 2.645838,-4.582667 5.2916663,5.2916663 0 0 0 -2.645838,-4.582667 5.2916663,5.2916663 0 0 0 -2.645833,4.582667 5.2916663,5.2916663 0 0 0 2.645833,4.582667 z" />
    <path
       id="path17645"
       style="font-variation-settings:normal;vector-effect:none;fill:#ffffff;fill-opacity:1;fill-rule:evenodd;stroke:#364e59;stroke-width:0.264583;stroke-linecap:butt;stroke-linejoin:miter;stroke-miterlimit:4;stroke-dasharray:none;stroke-dashoffset:0;stroke-opacity:1;stop-color:#000000"
       d="m 44.979161,72.146498 a 5.2916663,5.2916663 0 0 0 -2.645833,4.582667 5.2916663,5.2916663 0 0 0 2.645833,4.582667 5.2916663,5.2916663 0 0 0 2.645839,-4.582667 5.2916663,5.2916663 0 0 0 -2.645839,-4.582667 z" />
    <path
       id="path17647"
       style="font-variation-settings:normal;vector-effect:none;fill:#9eabb0;fill-opacity:0.993363;fill-rule:evenodd;stroke:#364e59;stroke-width:0.264583;stroke-linecap:butt;stroke-linejoin:miter;stroke-miterlimit:4;stroke-dasharray:none;stroke-dashoffset:0;stroke-opacity:1;stop-color:#000000"
       d="m 44.942802,72.167638 a 5.2916663,5.2916663 0 0 0 -2.645833,4.582667 5.2916663,5.2916663 0 0 0 2.645833,4.582667 5.2916663,5.2916663 0 0 0 2.645828,-4.582667 5.2916663,5.2916663 0 0 0 -2.645828,-4.582667 z" />
    <path
       id="path17649"
       style="font-variation-settings:normal;vector-effect:none;fill:#ffffff;fill-opacity:1;fill-rule:evenodd;stroke:#364e59;stroke-width:0.264583;stroke-linecap:butt;stroke-linejoin:miter;stroke-miterlimit:4;stroke-dasharray:none;stroke-dashoffset:0;stroke-opacity:1;stop-color:#000000"
       d="m 47.62499,71.437498 a 5.2916663,5.2916663 0 0 1 5.291667,5.291667 5.2916663,5.2916663 0 0 1 -5.291667,5.291667 5.2916663,5.2916663 0 0 1 -2.645828,-0.709 5.2916663,5.2916663 0 0 0 2.645828,-4.582667 5.2916663,5.2916663 0 0 0 -2.645828,-4.582667 5.2916663,5.2916663 0 0 1 2.645828,-0.709 z" />
    <path
       id="path17651"
       style="font-variation-settings:normal;vector-effect:none;fill:#9eabb0;fill-opacity:0.993363;fill-rule:evenodd;stroke:#364e59;stroke-width:0.264583;stroke-linecap:butt;stroke-linejoin:miter;stroke-miterlimit:4;stroke-dasharray:none;stroke-dashoffset:0;stroke-opacity:1;stop-color:#000000"
       d="m 44.942802,72.167638 a 5.2916663,5.2916663 0 0 0 -2.645833,4.582667 5.2916663,5.2916663 0 0 0 2.645833,4.582667 5.2916663,5.2916663 0 0 0 2.645828,-4.582667 5.2916663,5.2916663 0 0 0 -2.645828,-4.582667 z" />
    <path
       id="path17653"
       style="font-variation-settings:normal;vector-effect:none;fill:#ffffff;fill-opacity:0.988938;fill-rule:evenodd;stroke:#364e59;stroke-width:0.264583;stroke-linecap:butt;stroke-linejoin:miter;stroke-miterlimit:4;stroke-dasharray:none;stroke-dashoffset:0;stroke-opacity:1;stop-color:#000000"
       d="m 42.296985,71.458638 a 5.2916663,5.2916663 0 0 0 -5.291675,5.291667 5.2916663,5.2916663 0 0 0 5.291675,5.291667 5.2916663,5.2916663 0 0 0 2.645817,-0.709 5.2916663,5.2916663 0 0 1 -2.645817,-4.582667 5.2916663,5.2916663 0 0 1 2.645817,-4.582667 5.2916663,5.2916663 0 0 0 -2.645817,-0.709 z" />
    <path
       id="path17861"
       style="font-variation-settings:normal;vector-effect:none;fill:#ffffff;fill-opacity:1;fill-rule:evenodd;stroke:#364e59;stroke-width:0.264583;stroke-linecap:butt;stroke-linejoin:miter;stroke-miterlimit:4;stroke-dasharray:none;stroke-dashoffset:0;stroke-opacity:1;stop-color:#000000"
       d="m 87.444791,68.791668 c -0.07329,0 -0.132292,0.059 -0.132292,0.132291 v 15.61042 c 0,0.0733 0.059,0.13229 0.132292,0.13229 h 20.902079 c 0.0733,0 0.1323,-0.059 0.1323,-0.13229 v -15.61042 c 0,-0.07329 -0.059,-0.132291 -0.1323,-0.132291 z m 7.805208,2.645833 a 5.2916663,5.2916663 0 0 1 2.645833,0.709001 5.2916663,5.2916663 0 0 1 2.645838,-0.709001 5.2916663,5.2916663 0 0 1 5.29166,5.291667 5.2916663,5.2916663 0 0 1 -5.29166,5.291664 5.2916663,5.2916663 0 0 1 -2.645838,-0.709 5.2916663,5.2916663 0 0 1 -2.645833,0.709 5.2916663,5.2916663 0 0 1 -5.291667,-5.291664 5.2916663,5.2916663 0 0 1 5.291667,-5.291667 z m 2.645833,9.874331 a 5.2916663,5.2916663 0 0 0 2.645838,-4.582664 5.2916663,5.2916663 0 0 0 -2.645838,-4.582666 5.2916663,5.2916663 0 0 0 -2.645833,4.582666 5.2916663,5.2916663 0 0 0 2.645833,4.582664 z" />
    <path
       id="path17863"
       style="font-variation-settings:normal;vector-effect:none;fill:#ffffff;fill-opacity:1;fill-rule:evenodd;stroke:#364e59;stroke-width:0.264583;stroke-linecap:butt;stroke-linejoin:miter;stroke-miterlimit:4;stroke-dasharray:none;stroke-dashoffset:0;stroke-opacity:1;stop-color:#000000"
       d="m 97.895831,72.146502 a 5.2916663,5.2916663 0 0 0 -2.645833,4.582665 5.2916663,5.2916663 0 0 0 2.645833,4.582665 5.2916663,5.2916663 0 0 0 2.645839,-4.582665 5.2916663,5.2916663 0 0 0 -2.645839,-4.582665 z" />
    <path
       id="path17865"
       style="font-variation-settings:normal;vector-effect:none;fill:#9eabb0;fill-opacity:0.993363;fill-rule:evenodd;stroke:#364e59;stroke-width:0.264583;stroke-linecap:butt;stroke-linejoin:miter;stroke-miterlimit:4;stroke-dasharray:none;stroke-dashoffset:0;stroke-opacity:1;stop-color:#000000"
       d="m 97.859472,72.167639 a 5.2916663,5.2916663 0 0 0 -2.645833,4.582665 5.2916663,5.2916663 0 0 0 2.645833,4.582668 5.2916663,5.2916663 0 0 0 2.645828,-4.582668 5.2916663,5.2916663 0 0 0 -2.645828,-4.582665 z" />
    <path
       id="path17867"
       style="font-variation-settings:normal;vector-effect:none;fill:#9eabb0;fill-opacity:1;fill-rule:evenodd;stroke:#364e59;stroke-width:0.264583;stroke-linecap:butt;stroke-linejoin:miter;stroke-miterlimit:4;stroke-dasharray:none;stroke-dashoffset:0;stroke-opacity:1;stop-color:#000000"
       d="m 100.54166,71.437501 a 5.2916663,5.2916663 0 0 1 5.29167,5.291666 5.2916663,5.2916663 0 0 1 -5.29167,5.291665 5.2916663,5.2916663 0 0 1 -2.645828,-0.709 5.2916663,5.2916663 0 0 0 2.645828,-4.582665 5.2916663,5.2916663 0 0 0 -2.645828,-4.582665 5.2916663,5.2916663 0 0 1 2.645828,-0.709001 z" />
    <path
       id="path17869"
       style="font-variation-settings:normal;vector-effect:none;fill:#9eabb0;fill-opacity:0.993363;fill-rule:evenodd;stroke:#364e59;stroke-width:0.264583;stroke-linecap:butt;stroke-linejoin:miter;stroke-miterlimit:4;stroke-dasharray:none;stroke-dashoffset:0;stroke-opacity:1;stop-color:#000000"
       d="m 97.859472,72.167639 a 5.2916663,5.2916663 0 0 0 -2.645833,4.582665 5.2916663,5.2916663 0 0 0 2.645833,4.582668 5.2916663,5.2916663 0 0 0 2.645828,-4.582668 5.2916663,5.2916663 0 0 0 -2.645828,-4.582665 z" />
    <path
       id="path17871"
       style="font-variation-settings:normal;vector-effect:none;fill:#ffffff;fill-opacity:0.988938;fill-rule:evenodd;stroke:#364e59;stroke-width:0.264583;stroke-linecap:butt;stroke-linejoin:miter;stroke-miterlimit:4;stroke-dasharray:none;stroke-dashoffset:0;stroke-opacity:1;stop-color:#000000"
       d="m 95.213655,71.458638 a 5.2916663,5.2916663 0 0 0 -5.291675,5.291666 5.2916663,5.2916663 0 0 0 5.291675,5.291668 5.2916663,5.2916663 0 0 0 2.645817,-0.709 5.2916663,5.2916663 0 0 1 -2.645817,-4.582668 5.2916663,5.2916663 0 0 1 2.645817,-4.582665 5.2916663,5.2916663 0 0 0 -2.645817,-0.709001 z" />
    <path
       id="path18062"
       style="font-variation-settings:normal;vector-effect:none;fill:#9eabb0;fill-opacity:1;fill-rule:evenodd;stroke:#364e59;stroke-width:0.264583;stroke-linecap:butt;stroke-linejoin:miter;stroke-miterlimit:4;stroke-dasharray:none;stroke-dashoffset:0;stroke-opacity:1;stop-color:#000000"
       d="m 87.444791,47.625 c -0.07329,0 -0.132292,0.059 -0.132292,0.132291 v 15.61042 c 0,0.0733 0.059,0.13229 0.132292,0.13229 h 20.902079 c 0.0733,0 0.1323,-0.059 0.1323,-0.13229 v -15.61042 c 0,-0.07329 -0.059,-0.132291 -0.1323,-0.132291 z m 7.805208,2.645833 a 5.2916663,5.2916663 0 0 1 2.645833,0.709001 5.2916663,5.2916663 0 0 1 2.645838,-0.709001 5.2916663,5.2916663 0 0 1 5.29166,5.291667 5.2916663,5.2916663 0 0 1 -5.29166,5.291664 5.2916663,5.2916663 0 0 1 -2.645838,-0.709 5.2916663,5.2916663 0 0 1 -2.645833,0.709 5.2916663,5.2916663 0 0 1 -5.291667,-5.291664 5.2916663,5.2916663 0 0 1 5.291667,-5.291667 z m 2.645833,9.874331 a 5.2916663,5.2916663 0 0 0 2.645838,-4.582664 5.2916663,5.2916663 0 0 0 -2.645838,-4.582666 5.2916663,5.2916663 0 0 0 -2.645833,4.582666 5.2916663,5.2916663 0 0 0 2.645833,4.582664 z" />
    <path
       id="path18064"
       style="font-variation-settings:normal;vector-effect:none;fill:#ffffff;fill-opacity:1;fill-rule:evenodd;stroke:#364e59;stroke-width:0.264583;stroke-linecap:butt;stroke-linejoin:miter;stroke-miterlimit:4;stroke-dasharray:none;stroke-dashoffset:0;stroke-opacity:1;stop-color:#000000"
       d="m 97.895831,50.979834 a 5.2916663,5.2916663 0 0 0 -2.645833,4.582665 5.2916663,5.2916663 0 0 0 2.645833,4.582665 5.2916663,5.2916663 0 0 0 2.645839,-4.582665 5.2916663,5.2916663 0 0 0 -2.645839,-4.582665 z" />
    <path
       id="path18066"
       style="font-variation-settings:normal;vector-effect:none;fill:#9eabb0;fill-opacity:0.993363;fill-rule:evenodd;stroke:#364e59;stroke-width:0.264583;stroke-linecap:butt;stroke-linejoin:miter;stroke-miterlimit:4;stroke-dasharray:none;stroke-dashoffset:0;stroke-opacity:1;stop-color:#000000"
       d="m 97.859472,51.000971 a 5.2916663,5.2916663 0 0 0 -2.645833,4.582665 5.2916663,5.2916663 0 0 0 2.645833,4.582668 5.2916663,5.2916663 0 0 0 2.645828,-4.582668 5.2916663,5.2916663 0 0 0 -2.645828,-4.582665 z" />
    <path
       id="path18068"
       style="font-variation-settings:normal;vector-effect:none;fill:#9eabb0;fill-opacity:1;fill-rule:evenodd;stroke:#364e59;stroke-width:0.264583;stroke-linecap:butt;stroke-linejoin:miter;stroke-miterlimit:4;stroke-dasharray:none;stroke-dashoffset:0;stroke-opacity:1;stop-color:#000000"
       d="m 100.54166,50.270833 a 5.2916663,5.2916663 0 0 1 5.29167,5.291666 5.2916663,5.2916663 0 0 1 -5.29167,5.291665 5.2916663,5.2916663 0 0 1 -2.645828,-0.709 5.2916663,5.2916663 0 0 0 2.645828,-4.582665 5.2916663,5.2916663 0 0 0 -2.645828,-4.582665 5.2916663,5.2916663 0 0 1 2.645828,-0.709001 z" />
    <path
       id="path18070"
       style="font-variation-settings:normal;vector-effect:none;fill:#9eabb0;fill-opacity:0.993363;fill-rule:evenodd;stroke:#364e59;stroke-width:0.264583;stroke-linecap:butt;stroke-linejoin:miter;stroke-miterlimit:4;stroke-dasharray:none;stroke-dashoffset:0;stroke-opacity:1;stop-color:#000000"
       d="m 97.859472,51.000971 a 5.2916663,5.2916663 0 0 0 -2.645833,4.582665 5.2916663,5.2916663 0 0 0 2.645833,4.582668 5.2916663,5.2916663 0 0 0 2.645828,-4.582668 5.2916663,5.2916663 0 0 0 -2.645828,-4.582665 z" />
    <path
       id="path18072"
       style="font-variation-settings:normal;vector-effect:none;fill:#ffffff;fill-opacity:0.988938;fill-rule:evenodd;stroke:#364e59;stroke-width:0.264583;stroke-linecap:butt;stroke-linejoin:miter;stroke-miterlimit:4;stroke-dasharray:none;stroke-dashoffset:0;stroke-opacity:1;stop-color:#000000"
       d="m 95.213655,50.29197 a 5.2916663,5.2916663 0 0 0 -5.291675,5.291666 5.2916663,5.2916663 0 0 0 5.291675,5.291668 5.2916663,5.2916663 0 0 0 2.645817,-0.709 5.2916663,5.2916663 0 0 1 -2.645817,-4.582668 5.2916663,5.2916663 0 0 1 2.645817,-4.582665 5.2916663,5.2916663 0 0 0 -2.645817,-0.709001 z" />
    <path
       id="path18172"
       style="font-variation-settings:normal;vector-effect:none;fill:#9eabb0;fill-opacity:1;fill-rule:evenodd;stroke:#364e59;stroke-width:0.264583;stroke-linecap:butt;stroke-linejoin:miter;stroke-miterlimit:4;stroke-dasharray:none;stroke-dashoffset:0;stroke-opacity:1;stop-color:#000000"
       d="m 60.986456,47.625 c -0.07329,0 -0.132292,0.059 -0.132292,0.132291 v 15.61042 c 0,0.0733 0.059,0.13229 0.132292,0.13229 h 20.902076 c 0.0733,0 0.1323,-0.059 0.1323,-0.13229 v -15.61042 c 0,-0.07329 -0.059,-0.132291 -0.1323,-0.132291 z m 7.805208,2.645833 a 5.2916663,5.2916663 0 0 1 2.645833,0.709001 5.2916663,5.2916663 0 0 1 2.645838,-0.709001 5.2916663,5.2916663 0 0 1 5.291657,5.291667 5.2916663,5.2916663 0 0 1 -5.291657,5.291664 5.2916663,5.2916663 0 0 1 -2.645838,-0.709 5.2916663,5.2916663 0 0 1 -2.645833,0.709 5.2916663,5.2916663 0 0 1 -5.291667,-5.291664 5.2916663,5.2916663 0 0 1 5.291667,-5.291667 z m 2.645833,9.874331 a 5.2916663,5.2916663 0 0 0 2.645838,-4.582664 5.2916663,5.2916663 0 0 0 -2.645838,-4.582666 5.2916663,5.2916663 0 0 0 -2.645833,4.582666 5.2916663,5.2916663 0 0 0 2.645833,4.582664 z" />
    <path
       id="path18174"
       style="font-variation-settings:normal;vector-effect:none;fill:#ffffff;fill-opacity:1;fill-rule:evenodd;stroke:#364e59;stroke-width:0.264583;stroke-linecap:butt;stroke-linejoin:miter;stroke-miterlimit:4;stroke-dasharray:none;stroke-dashoffset:0;stroke-opacity:1;stop-color:#000000"
       d="m 71.437496,50.979834 a 5.2916663,5.2916663 0 0 0 -2.645833,4.582665 5.2916663,5.2916663 0 0 0 2.645833,4.582665 5.2916663,5.2916663 0 0 0 2.645839,-4.582665 5.2916663,5.2916663 0 0 0 -2.645839,-4.582665 z" />
    <path
       id="path18176"
       style="font-variation-settings:normal;vector-effect:none;fill:#9eabb0;fill-opacity:0.993363;fill-rule:evenodd;stroke:#364e59;stroke-width:0.264583;stroke-linecap:butt;stroke-linejoin:miter;stroke-miterlimit:4;stroke-dasharray:none;stroke-dashoffset:0;stroke-opacity:1;stop-color:#000000"
       d="m 71.401137,51.000971 a 5.2916663,5.2916663 0 0 0 -2.645833,4.582665 5.2916663,5.2916663 0 0 0 2.645833,4.582668 5.2916663,5.2916663 0 0 0 2.645828,-4.582668 5.2916663,5.2916663 0 0 0 -2.645828,-4.582665 z" />
    <path
       id="path18178"
       style="font-variation-settings:normal;vector-effect:none;fill:#9eabb0;fill-opacity:1;fill-rule:evenodd;stroke:#364e59;stroke-width:0.264583;stroke-linecap:butt;stroke-linejoin:miter;stroke-miterlimit:4;stroke-dasharray:none;stroke-dashoffset:0;stroke-opacity:1;stop-color:#000000"
       d="m 74.083325,50.270833 a 5.2916663,5.2916663 0 0 1 5.291667,5.291666 5.2916663,5.2916663 0 0 1 -5.291667,5.291665 5.2916663,5.2916663 0 0 1 -2.645828,-0.709 5.2916663,5.2916663 0 0 0 2.645828,-4.582665 5.2916663,5.2916663 0 0 0 -2.645828,-4.582665 5.2916663,5.2916663 0 0 1 2.645828,-0.709001 z" />
    <path
       id="path18180"
       style="font-variation-settings:normal;vector-effect:none;fill:#ffffff;fill-opacity:0.993363;fill-rule:evenodd;stroke:#364e59;stroke-width:0.264583;stroke-linecap:butt;stroke-linejoin:miter;stroke-miterlimit:4;stroke-dasharray:none;stroke-dashoffset:0;stroke-opacity:1;stop-color:#000000"
       d="m 71.401137,51.000971 a 5.2916663,5.2916663 0 0 0 -2.645833,4.582665 5.2916663,5.2916663 0 0 0 2.645833,4.582668 5.2916663,5.2916663 0 0 0 2.645828,-4.582668 5.2916663,5.2916663 0 0 0 -2.645828,-4.582665 z" />
    <path
       id="path18182"
       style="font-variation-settings:normal;vector-effect:none;fill:#ffffff;fill-opacity:0.988938;fill-rule:evenodd;stroke:#364e59;stroke-width:0.264583;stroke-linecap:butt;stroke-linejoin:miter;stroke-miterlimit:4;stroke-dasharray:none;stroke-dashoffset:0;stroke-opacity:1;stop-color:#000000"
       d="m 68.75532,50.29197 a 5.2916663,5.2916663 0 0 0 -5.291675,5.291666 5.2916663,5.2916663 0 0 0 5.291675,5.291668 5.2916663,5.2916663 0 0 0 2.645817,-0.709 5.2916663,5.2916663 0 0 1 -2.645817,-4.582668 5.2916663,5.2916663 0 0 1 2.645817,-4.582665 5.2916663,5.2916663 0 0 0 -2.645817,-0.709001 z" />
    <path
       id="path18362"
       style="font-variation-settings:normal;vector-effect:none;fill:#9eabb0;fill-opacity:1;fill-rule:evenodd;stroke:#364e59;stroke-width:0.264583;stroke-linecap:butt;stroke-linejoin:miter;stroke-miterlimit:4;stroke-dasharray:none;stroke-dashoffset:0;stroke-opacity:1;stop-color:#000000"
       d="m 8.0697863,47.625 c -0.07329,0 -0.132292,0.059 -0.132292,0.132291 v 15.610417 c 0,0.07329 0.059,0.132292 0.132292,0.132292 H 28.971862 c 0.0733,0 0.1323,-0.059 0.1323,-0.132292 V 47.757291 c 0,-0.07329 -0.059,-0.132291 -0.1323,-0.132291 z m 7.8052077,2.645833 a 5.2916663,5.2916663 0 0 1 2.645833,0.709001 5.2916663,5.2916663 0 0 1 2.645838,-0.709001 5.2916663,5.2916663 0 0 1 5.291657,5.291667 5.2916663,5.2916663 0 0 1 -5.291657,5.291666 5.2916663,5.2916663 0 0 1 -2.645838,-0.709001 5.2916663,5.2916663 0 0 1 -2.645833,0.709001 5.2916663,5.2916663 0 0 1 -5.291667,-5.291666 5.2916663,5.2916663 0 0 1 5.291667,-5.291667 z m 2.645833,9.874332 a 5.2916663,5.2916663 0 0 0 2.645838,-4.582665 5.2916663,5.2916663 0 0 0 -2.645838,-4.582666 5.2916663,5.2916663 0 0 0 -2.645833,4.582666 5.2916663,5.2916663 0 0 0 2.645833,4.582665 z" />
    <path
       id="path18364"
       style="font-variation-settings:normal;vector-effect:none;fill:#ffffff;fill-opacity:1;fill-rule:evenodd;stroke:#364e59;stroke-width:0.264583;stroke-linecap:butt;stroke-linejoin:miter;stroke-miterlimit:4;stroke-dasharray:none;stroke-dashoffset:0;stroke-opacity:1;stop-color:#000000"
       d="m 18.520826,50.979834 a 5.2916663,5.2916663 0 0 0 -2.645833,4.582665 5.2916663,5.2916663 0 0 0 2.645833,4.582667 5.2916663,5.2916663 0 0 0 2.645839,-4.582667 5.2916663,5.2916663 0 0 0 -2.645839,-4.582665 z" />
    <path
       id="path18366"
       style="font-variation-settings:normal;vector-effect:none;fill:#9eabb0;fill-opacity:0.993363;fill-rule:evenodd;stroke:#364e59;stroke-width:0.264583;stroke-linecap:butt;stroke-linejoin:miter;stroke-miterlimit:4;stroke-dasharray:none;stroke-dashoffset:0;stroke-opacity:1;stop-color:#000000"
       d="m 18.484467,51.000971 a 5.2916663,5.2916663 0 0 0 -2.645833,4.582665 5.2916663,5.2916663 0 0 0 2.645833,4.582667 5.2916663,5.2916663 0 0 0 2.645828,-4.582667 5.2916663,5.2916663 0 0 0 -2.645828,-4.582665 z" />
    <path
       id="path18368"
       style="font-variation-settings:normal;vector-effect:none;fill:#ffffff;fill-opacity:1;fill-rule:evenodd;stroke:#364e59;stroke-width:0.264583;stroke-linecap:butt;stroke-linejoin:miter;stroke-miterlimit:4;stroke-dasharray:none;stroke-dashoffset:0;stroke-opacity:1;stop-color:#000000"
       d="m 21.166655,50.270833 a 5.2916663,5.2916663 0 0 1 5.291667,5.291666 5.2916663,5.2916663 0 0 1 -5.291667,5.291668 5.2916663,5.2916663 0 0 1 -2.645828,-0.709 5.2916663,5.2916663 0 0 0 2.645828,-4.582668 5.2916663,5.2916663 0 0 0 -2.645828,-4.582665 5.2916663,5.2916663 0 0 1 2.645828,-0.709001 z" />
    <path
       id="path18370"
       style="font-variation-settings:normal;vector-effect:none;fill:#ffffff;fill-opacity:0.993363;fill-rule:evenodd;stroke:#364e59;stroke-width:0.264583;stroke-linecap:butt;stroke-linejoin:miter;stroke-miterlimit:4;stroke-dasharray:none;stroke-dashoffset:0;stroke-opacity:1;stop-color:#000000"
       d="m 18.484467,51.000971 a 5.2916663,5.2916663 0 0 0 -2.645833,4.582665 5.2916663,5.2916663 0 0 0 2.645833,4.582667 5.2916663,5.2916663 0 0 0 2.645828,-4.582667 5.2916663,5.2916663 0 0 0 -2.645828,-4.582665 z" />
    <path
       id="path18372"
       style="font-variation-settings:normal;vector-effect:none;fill:#ffffff;fill-opacity:0.988938;fill-rule:evenodd;stroke:#364e59;stroke-width:0.264583;stroke-linecap:butt;stroke-linejoin:miter;stroke-miterlimit:4;stroke-dasharray:none;stroke-dashoffset:0;stroke-opacity:1;stop-color:#000000"
       d="m 15.83865,50.29197 a 5.2916663,5.2916663 0 0 0 -5.291675,5.291666 5.2916663,5.2916663 0 0 0 5.291675,5.291668 5.2916663,5.2916663 0 0 0 2.645817,-0.709 5.2916663,5.2916663 0 0 1 -2.645817,-4.582668 5.2916663,5.2916663 0 0 1 2.645817,-4.582665 5.2916663,5.2916663 0 0 0 -2.645817,-0.709001 z" />
    <path
       style="fill:#000000;fill-opacity:1;stroke:none;stroke-width:0"
       d="m 10.829534,69.802852 c -0.03801,-0.152043 -0.09503,-0.152043 -0.22173,-0.152043 -0.114032,0 -0.183718,0 -0.215394,0.152043 l -0.4878037,2.115931 c -0.05702,0 -0.152043,0 -0.177384,0.0063 -0.04434,0.02534 -0.06969,0.06969 -0.06969,0.120368 0,0.120367 0.107697,0.120367 0.177384,0.120367 h 0.4117817 c 0.06969,0 0.171049,0 0.171049,-0.120367 0,-0.126703 -0.08236,-0.126703 -0.228065,-0.126703 l 0.08869,-0.418118 h 0.658853 l 0.09503,0.418118 c -0.145708,0 -0.228065,0 -0.228065,0.126703 0,0.120367 0.09503,0.120367 0.171049,0.120367 h 0.411783 c 0.06335,0 0.171048,0 0.171048,-0.120367 0,-0.05068 -0.019,-0.09503 -0.06969,-0.114033 -0.02534,-0.01267 -0.114033,-0.01267 -0.171049,-0.01267 z m -0.22173,0.171049 h 0.0063 l 0.25974,1.279694 h -0.532151 z m 0,0"
       id="id-1e18ced8-ee70-4e55-a897-c1a5bc7d5a3c" />
    <path
       style="fill:#000000;fill-opacity:1;stroke:none;stroke-width:0"
       d="m 26.079086,69.942225 h 0.506809 c 0.342097,0 0.430789,0.253405 0.430789,0.386442 0,0.164714 -0.126703,0.430789 -0.51948,0.430789 h -0.418118 z m 0.77922,0.931263 c 0.25974,-0.08869 0.437123,-0.297751 0.437123,-0.551156 0,-0.29775 -0.24707,-0.627177 -0.696863,-0.627177 h -0.912258 c -0.05702,0 -0.158378,0 -0.158378,0.120367 0,0.126703 0.101362,0.126703 0.164713,0.126703 h 0.107697 v 1.976558 h -0.107697 c -0.06335,0 -0.164713,0 -0.164713,0.126703 0,0.120367 0.101362,0.120367 0.158378,0.120367 h 0.994614 c 0.456129,0 0.703199,-0.361102 0.703199,-0.677858 0,-0.278746 -0.196389,-0.538486 -0.525815,-0.614507 z m -0.266076,1.045295 h -0.513144 v -0.912257 h 0.55749 c 0.342097,0 0.462464,0.291415 0.462464,0.475134 0,0.196389 -0.152043,0.437123 -0.50681,0.437123 z m 0,0"
       id="id-2d3f05b9-7b01-4f09-aecc-8d61d60085c8" />
    <path
       style="fill:#000000;fill-opacity:1;stroke:none;stroke-width:0"
       d="m 37.287869,69.802853 c -0.03801,-0.152043 -0.09503,-0.152043 -0.22173,-0.152043 -0.114032,0 -0.183718,0 -0.215394,0.152043 l -0.487804,2.115931 c -0.05702,0 -0.152043,0 -0.177384,0.0063 -0.04434,0.02534 -0.06969,0.06969 -0.06969,0.120368 0,0.120367 0.107697,0.120367 0.177384,0.120367 h 0.411782 c 0.06969,0 0.171049,0 0.171049,-0.120367 0,-0.126703 -0.08236,-0.126703 -0.228065,-0.126703 l 0.08869,-0.418118 h 0.658853 l 0.09503,0.418118 c -0.145708,0 -0.228065,0 -0.228065,0.126703 0,0.120367 0.09503,0.120367 0.171049,0.120367 h 0.411783 c 0.06335,0 0.171048,0 0.171048,-0.120367 0,-0.05068 -0.019,-0.09503 -0.06969,-0.114033 -0.02534,-0.01267 -0.114033,-0.01267 -0.171049,-0.01267 z m -0.22173,0.171049 h 0.0063 l 0.25974,1.279694 h -0.532151 z m 0,0"
       id="path18767" />
    <path
       style="fill:#000000;fill-opacity:1;stroke:none;stroke-width:0"
       d="m 52.537421,69.942226 h 0.506809 c 0.342097,0 0.430789,0.253405 0.430789,0.386442 0,0.164714 -0.126703,0.430789 -0.51948,0.430789 h -0.418118 z m 0.77922,0.931263 c 0.25974,-0.08869 0.437123,-0.297751 0.437123,-0.551156 0,-0.29775 -0.24707,-0.627177 -0.696863,-0.627177 h -0.912258 c -0.05702,0 -0.158378,0 -0.158378,0.120367 0,0.126703 0.101362,0.126703 0.164713,0.126703 h 0.107697 v 1.976558 h -0.107697 c -0.06335,0 -0.164713,0 -0.164713,0.126703 0,0.120367 0.101362,0.120367 0.158378,0.120367 h 0.994614 c 0.456129,0 0.703199,-0.361102 0.703199,-0.677858 0,-0.278746 -0.196389,-0.538486 -0.525815,-0.614507 z m -0.266076,1.045295 h -0.513144 v -0.912257 h 0.55749 c 0.342097,0 0.462464,0.291415 0.462464,0.475134 0,0.196389 -0.152043,0.437123 -0.50681,0.437123 z m 0,0"
       id="path18773" />
    <path
       style="fill:#000000;fill-opacity:1;stroke:none;stroke-width:0"
       d="m 63.746204,69.802853 c -0.03801,-0.152043 -0.09503,-0.152043 -0.22173,-0.152043 -0.114032,0 -0.183718,0 -0.215394,0.152043 l -0.487804,2.115931 c -0.05702,0 -0.152043,0 -0.177384,0.0063 -0.04435,0.02534 -0.06969,0.06969 -0.06969,0.120368 0,0.120367 0.107697,0.120367 0.177384,0.120367 h 0.411782 c 0.06969,0 0.171049,0 0.171049,-0.120367 0,-0.126703 -0.08236,-0.126703 -0.228065,-0.126703 l 0.08869,-0.418118 h 0.658853 l 0.09503,0.418118 c -0.145708,0 -0.228065,0 -0.228065,0.126703 0,0.120367 0.09503,0.120367 0.171049,0.120367 h 0.411783 c 0.06335,0 0.171048,0 0.171048,-0.120367 0,-0.05068 -0.01901,-0.09503 -0.06969,-0.114033 -0.02534,-0.01267 -0.114033,-0.01267 -0.171049,-0.01267 z m -0.22173,0.171049 h 0.0063 l 0.25974,1.279694 h -0.532151 z m 0,0"
       id="path18781" />
    <path
       style="fill:#000000;fill-opacity:1;stroke:none;stroke-width:0"
       d="m 78.995756,69.942226 h 0.506809 c 0.342097,0 0.430789,0.253405 0.430789,0.386442 0,0.164714 -0.126703,0.430789 -0.51948,0.430789 h -0.418118 z m 0.77922,0.931263 c 0.25974,-0.08869 0.437123,-0.297751 0.437123,-0.551156 0,-0.29775 -0.24707,-0.627177 -0.696863,-0.627177 h -0.912258 c -0.05702,0 -0.158378,0 -0.158378,0.120367 0,0.126703 0.101362,0.126703 0.164713,0.126703 h 0.107697 v 1.976558 h -0.107697 c -0.06335,0 -0.164713,0 -0.164713,0.126703 0,0.120367 0.101362,0.120367 0.158378,0.120367 h 0.994614 c 0.456129,0 0.703199,-0.361102 0.703199,-0.677858 0,-0.278746 -0.196389,-0.538486 -0.525815,-0.614507 z M 79.5089,71.918784 h -0.513144 v -0.912257 h 0.55749 c 0.342097,0 0.462464,0.291415 0.462464,0.475134 0,0.196389 -0.152043,0.437123 -0.50681,0.437123 z m 0,0"
       id="path18787" />
    <path
       style="fill:#000000;fill-opacity:1;stroke:none;stroke-width:0"
       d="M 90.20454,69.802853 C 90.16653,69.65081 90.10951,69.65081 89.98281,69.65081 c -0.114032,0 -0.183718,0 -0.215394,0.152043 l -0.487804,2.115931 c -0.05702,0 -0.152043,0 -0.177384,0.0063 -0.04434,0.02534 -0.06969,0.06969 -0.06969,0.120368 0,0.120367 0.107697,0.120367 0.177384,0.120367 h 0.411782 c 0.06969,0 0.171049,0 0.171049,-0.120367 0,-0.126703 -0.08236,-0.126703 -0.228065,-0.126703 l 0.08869,-0.418118 h 0.658853 l 0.09503,0.418118 c -0.145708,0 -0.228065,0 -0.228065,0.126703 0,0.120367 0.09503,0.120367 0.171049,0.120367 h 0.411783 c 0.06335,0 0.171048,0 0.171048,-0.120367 0,-0.05068 -0.01901,-0.09503 -0.06969,-0.114033 -0.02534,-0.01267 -0.114033,-0.01267 -0.171049,-0.01267 z m -0.22173,0.171049 h 0.0063 l 0.25974,1.279694 h -0.532151 z m 0,0"
       id="path18795" />
    <path
       style="fill:#000000;fill-opacity:1;stroke:none;stroke-width:0"
       d="m 105.45412,69.942226 h 0.50681 c 0.3421,0 0.43079,0.253405 0.43079,0.386442 0,0.164714 -0.1267,0.430789 -0.51948,0.430789 h -0.41812 z m 0.77922,0.931263 c 0.25974,-0.08869 0.43713,-0.297751 0.43713,-0.551156 0,-0.29775 -0.24707,-0.627177 -0.69687,-0.627177 h -0.91226 c -0.057,0 -0.15838,0 -0.15838,0.120367 0,0.126703 0.10136,0.126703 0.16472,0.126703 h 0.10769 v 1.976558 h -0.10769 c -0.0633,0 -0.16472,0 -0.16472,0.126703 0,0.120367 0.10136,0.120367 0.15838,0.120367 h 0.99462 c 0.45613,0 0.7032,-0.361102 0.7032,-0.677858 0,-0.278746 -0.19639,-0.538486 -0.52582,-0.614507 z m -0.26607,1.045295 h -0.51315 v -0.912257 h 0.5575 c 0.34209,0 0.46246,0.291415 0.46246,0.475134 0,0.196389 -0.15204,0.437123 -0.50681,0.437123 z m 0,0"
       id="path18801" />
    <path
       style="fill:#000000;fill-opacity:1;stroke:none;stroke-width:0"
       d="m 90.20454,48.636184 c -0.03801,-0.152043 -0.09503,-0.152043 -0.22173,-0.152043 -0.114032,0 -0.183718,0 -0.215394,0.152043 l -0.487804,2.115931 c -0.05702,0 -0.152043,0 -0.177384,0.0063 -0.04434,0.02534 -0.06969,0.06969 -0.06969,0.120368 0,0.120367 0.107697,0.120367 0.177384,0.120367 h 0.411782 c 0.06969,0 0.171049,0 0.171049,-0.120367 0,-0.126703 -0.08236,-0.126703 -0.228065,-0.126703 l 0.08869,-0.418118 h 0.658853 l 0.09503,0.418118 c -0.145708,0 -0.228065,0 -0.228065,0.126703 0,0.120367 0.09503,0.120367 0.171049,0.120367 h 0.411783 c 0.06335,0 0.171048,0 0.171048,-0.120367 0,-0.05068 -0.01901,-0.09503 -0.06969,-0.114033 -0.02534,-0.01267 -0.114033,-0.01267 -0.171049,-0.01267 z m -0.22173,0.171049 h 0.0063 l 0.25974,1.279694 h -0.532151 z m 0,0"
       id="path18809" />
    <path
       style="fill:#000000;fill-opacity:1;stroke:none;stroke-width:0"
       d="m 105.45412,48.775557 h 0.50681 c 0.3421,0 0.43079,0.253405 0.43079,0.386442 0,0.164714 -0.1267,0.430789 -0.51948,0.430789 h -0.41812 z m 0.77922,0.931263 c 0.25974,-0.08869 0.43713,-0.297751 0.43713,-0.551156 0,-0.29775 -0.24707,-0.627177 -0.69687,-0.627177 h -0.91226 c -0.057,0 -0.15838,0 -0.15838,0.120367 0,0.126703 0.10136,0.126703 0.16472,0.126703 h 0.10769 v 1.976558 h -0.10769 c -0.0633,0 -0.16472,0 -0.16472,0.126703 0,0.120367 0.10136,0.120367 0.15838,0.120367 h 0.99462 c 0.45613,0 0.7032,-0.361102 0.7032,-0.677858 0,-0.278746 -0.19639,-0.538486 -0.52582,-0.614507 z m -0.26607,1.045295 h -0.51315 v -0.912257 h 0.5575 c 0.34209,0 0.46246,0.291415 0.46246,0.475134 0,0.196389 -0.15204,0.437123 -0.50681,0.437123 z m 0,0"
       id="path18815" />
    <path
       style="fill:#000000;fill-opacity:1;stroke:none;stroke-width:0"
       d="m 63.746204,48.636184 c -0.03801,-0.152043 -0.09503,-0.152043 -0.22173,-0.152043 -0.114032,0 -0.183718,0 -0.215394,0.152043 l -0.487804,2.115931 c -0.05702,0 -0.152043,0 -0.177384,0.0063 -0.04435,0.02534 -0.06969,0.06969 -0.06969,0.120368 0,0.120367 0.107697,0.120367 0.177384,0.120367 h 0.411782 c 0.06969,0 0.171049,0 0.171049,-0.120367 0,-0.126703 -0.08236,-0.126703 -0.228065,-0.126703 l 0.08869,-0.418118 h 0.658853 l 0.09503,0.418118 c -0.145708,0 -0.228065,0 -0.228065,0.126703 0,0.120367 0.09503,0.120367 0.171049,0.120367 h 0.411783 c 0.06335,0 0.171048,0 0.171048,-0.120367 0,-0.05068 -0.01901,-0.09503 -0.06969,-0.114033 -0.02534,-0.01267 -0.114033,-0.01267 -0.171049,-0.01267 z m -0.22173,0.171049 h 0.0063 l 0.25974,1.279694 h -0.532151 z m 0,0"
       id="path18823" />
    <path
       style="fill:#000000;fill-opacity:1;stroke:none;stroke-width:0"
       d="m 78.995756,48.775557 h 0.506809 c 0.342097,0 0.430789,0.253405 0.430789,0.386442 0,0.164714 -0.126703,0.430789 -0.51948,0.430789 h -0.418118 z m 0.77922,0.931263 c 0.25974,-0.08869 0.437123,-0.297751 0.437123,-0.551156 0,-0.29775 -0.24707,-0.627177 -0.696863,-0.627177 h -0.912258 c -0.05702,0 -0.158378,0 -0.158378,0.120367 0,0.126703 0.101362,0.126703 0.164713,0.126703 h 0.107697 v 1.976558 h -0.107697 c -0.06335,0 -0.164713,0 -0.164713,0.126703 0,0.120367 0.101362,0.120367 0.158378,0.120367 h 0.994614 c 0.456129,0 0.703199,-0.361102 0.703199,-0.677858 0,-0.278746 -0.196389,-0.538486 -0.525815,-0.614507 z M 79.5089,50.752115 h -0.513144 v -0.912257 h 0.55749 c 0.342097,0 0.462464,0.291415 0.462464,0.475134 0,0.196389 -0.152043,0.437123 -0.50681,0.437123 z m 0,0"
       id="path18829" />
    <path
       style="fill:#000000;fill-opacity:1;stroke:none;stroke-width:0"
       d="m 37.287875,48.636184 c -0.03801,-0.152043 -0.09503,-0.152043 -0.22173,-0.152043 -0.114032,0 -0.183718,0 -0.215394,0.152043 l -0.487804,2.115931 c -0.05702,0 -0.152043,0 -0.177384,0.0063 -0.04434,0.02534 -0.06969,0.06969 -0.06969,0.120368 0,0.120367 0.107697,0.120367 0.177384,0.120367 h 0.411782 c 0.06969,0 0.171049,0 0.171049,-0.120367 0,-0.126703 -0.08236,-0.126703 -0.228065,-0.126703 l 0.08869,-0.418118 h 0.658853 l 0.09503,0.418118 c -0.145708,0 -0.228065,0 -0.228065,0.126703 0,0.120367 0.09503,0.120367 0.171049,0.120367 h 0.411783 c 0.06335,0 0.171048,0 0.171048,-0.120367 0,-0.05068 -0.019,-0.09503 -0.06969,-0.114033 -0.02534,-0.01267 -0.114033,-0.01267 -0.171049,-0.01267 z m -0.22173,0.171049 h 0.0063 l 0.25974,1.279694 h -0.532151 z m 0,0"
       id="path18837" />
    <path
       style="fill:#000000;fill-opacity:1;stroke:none;stroke-width:0"
       d="m 52.537427,48.775557 h 0.506809 c 0.342097,0 0.430789,0.253405 0.430789,0.386442 0,0.164714 -0.126703,0.430789 -0.51948,0.430789 h -0.418118 z m 0.77922,0.931263 c 0.25974,-0.08869 0.437123,-0.297751 0.437123,-0.551156 0,-0.29775 -0.24707,-0.627177 -0.696863,-0.627177 h -0.912258 c -0.05702,0 -0.158378,0 -0.158378,0.120367 0,0.126703 0.101362,0.126703 0.164713,0.126703 h 0.107697 v 1.976558 h -0.107697 c -0.06335,0 -0.164713,0 -0.164713,0.126703 0,0.120367 0.101362,0.120367 0.158378,0.120367 h 0.994614 c 0.456129,0 0.703199,-0.361102 0.703199,-0.677858 0,-0.278746 -0.196389,-0.538486 -0.525815,-0.614507 z m -0.266076,1.045295 h -0.513144 v -0.912257 h 0.55749 c 0.342097,0 0.462464,0.291415 0.462464,0.475134 0,0.196389 -0.152043,0.437123 -0.50681,0.437123 z m 0,0"
       id="path18843" />
    <path
       style="fill:#000000;fill-opacity:1;stroke:none;stroke-width:0"
       d="m 10.829534,48.636184 c -0.03801,-0.152043 -0.09503,-0.152043 -0.22173,-0.152043 -0.114032,0 -0.183718,0 -0.215394,0.152043 l -0.4878037,2.115931 c -0.05702,0 -0.152043,0 -0.177384,0.0063 -0.04434,0.02534 -0.06969,0.06969 -0.06969,0.120368 0,0.120367 0.107697,0.120367 0.177384,0.120367 h 0.4117817 c 0.06969,0 0.171049,0 0.171049,-0.120367 0,-0.126703 -0.08236,-0.126703 -0.228065,-0.126703 l 0.08869,-0.418118 h 0.658853 l 0.09503,0.418118 c -0.145708,0 -0.228065,0 -0.228065,0.126703 0,0.120367 0.09503,0.120367 0.171049,0.120367 h 0.411783 c 0.06335,0 0.171048,0 0.171048,-0.120367 0,-0.05068 -0.019,-0.09503 -0.06969,-0.114033 -0.02534,-0.01267 -0.114033,-0.01267 -0.171049,-0.01267 z m -0.22173,0.171049 h 0.0063 l 0.25974,1.279694 h -0.532151 z m 0,0"
       id="path18851" />
    <path
       style="fill:#000000;fill-opacity:1;stroke:none;stroke-width:0"
       d="m 26.079086,48.775557 h 0.506809 c 0.342097,0 0.430789,0.253405 0.430789,0.386442 0,0.164714 -0.126703,0.430789 -0.51948,0.430789 h -0.418118 z m 0.77922,0.931263 c 0.25974,-0.08869 0.437123,-0.297751 0.437123,-0.551156 0,-0.29775 -0.24707,-0.627177 -0.696863,-0.627177 h -0.912258 c -0.05702,0 -0.158378,0 -0.158378,0.120367 0,0.126703 0.101362,0.126703 0.164713,0.126703 h 0.107697 v 1.976558 h -0.107697 c -0.06335,0 -0.164713,0 -0.164713,0.126703 0,0.120367 0.101362,0.120367 0.158378,0.120367 h 0.994614 c 0.456129,0 0.703199,-0.361102 0.703199,-0.677858 0,-0.278746 -0.196389,-0.538486 -0.525815,-0.614507 z m -0.266076,1.045295 h -0.513144 v -0.912257 h 0.55749 c 0.342097,0 0.462464,0.291415 0.462464,0.475134 0,0.196389 -0.152043,0.437123 -0.50681,0.437123 z m 0,0"
       id="path18857" />
    <path
       style="fill:#000000;fill-opacity:1;stroke:none;stroke-width:0"
       d="m 10.829543,27.469516 c -0.03801,-0.152043 -0.09503,-0.152043 -0.22173,-0.152043 -0.114032,0 -0.183718,0 -0.215394,0.152043 l -0.4878037,2.115931 c -0.05702,0 -0.152043,0 -0.177384,0.0063 -0.04434,0.02534 -0.06969,0.06969 -0.06969,0.120368 0,0.120367 0.107697,0.120367 0.177384,0.120367 h 0.4117817 c 0.06969,0 0.171049,0 0.171049,-0.120367 0,-0.126703 -0.08236,-0.126703 -0.228065,-0.126703 l 0.08869,-0.418118 h 0.658853 l 0.09503,0.418118 c -0.145708,0 -0.228065,0 -0.228065,0.126703 0,0.120367 0.09503,0.120367 0.171049,0.120367 h 0.411783 c 0.06335,0 0.171048,0 0.171048,-0.120367 0,-0.05068 -0.019,-0.09503 -0.06969,-0.114033 -0.02534,-0.01267 -0.114033,-0.01267 -0.171049,-0.01267 z m -0.22173,0.171049 h 0.0063 l 0.25974,1.279694 h -0.532151 z m 0,0"
       id="path18865" />
    <path
       style="fill:#000000;fill-opacity:1;stroke:none;stroke-width:0"
       d="m 26.079095,27.608889 h 0.506809 c 0.342097,0 0.430789,0.253405 0.430789,0.386442 0,0.164714 -0.126703,0.430789 -0.51948,0.430789 h -0.418118 z m 0.77922,0.931263 c 0.25974,-0.08869 0.437123,-0.297751 0.437123,-0.551156 0,-0.29775 -0.24707,-0.627177 -0.696863,-0.627177 h -0.912258 c -0.05702,0 -0.158378,0 -0.158378,0.120367 0,0.126703 0.101362,0.126703 0.164713,0.126703 h 0.107697 v 1.976558 h -0.107697 c -0.06335,0 -0.164713,0 -0.164713,0.126703 0,0.120367 0.101362,0.120367 0.158378,0.120367 h 0.994614 c 0.456129,0 0.703199,-0.361102 0.703199,-0.677858 0,-0.278746 -0.196389,-0.538486 -0.525815,-0.614507 z m -0.266076,1.045295 H 26.079095 V 28.67319 h 0.55749 c 0.342097,0 0.462464,0.291415 0.462464,0.475134 0,0.196389 -0.152043,0.437123 -0.50681,0.437123 z m 0,0"
       id="path18871" />
    <path
       style="fill:#000000;fill-opacity:1;stroke:none;stroke-width:0"
       d="m 90.204539,27.469516 c -0.03801,-0.152043 -0.09503,-0.152043 -0.22173,-0.152043 -0.114032,0 -0.183718,0 -0.215394,0.152043 l -0.487804,2.115931 c -0.05702,0 -0.152043,0 -0.177384,0.0063 -0.04434,0.02534 -0.06969,0.06969 -0.06969,0.120368 0,0.120367 0.107697,0.120367 0.177384,0.120367 h 0.411782 c 0.06969,0 0.171049,0 0.171049,-0.120367 0,-0.126703 -0.08236,-0.126703 -0.228065,-0.126703 l 0.08869,-0.418118 h 0.658853 l 0.09503,0.418118 c -0.145708,0 -0.228065,0 -0.228065,0.126703 0,0.120367 0.09503,0.120367 0.171049,0.120367 h 0.411783 c 0.06335,0 0.171048,0 0.171048,-0.120367 0,-0.05068 -0.01901,-0.09503 -0.06969,-0.114033 -0.02534,-0.01267 -0.114033,-0.01267 -0.171049,-0.01267 z m -0.22173,0.171049 h 0.0063 l 0.25974,1.279694 h -0.532151 z m 0,0"
       id="path18895" />
    <path
       style="fill:#000000;fill-opacity:1;stroke:none;stroke-width:0"
       d="m 105.45412,27.608889 h 0.50681 c 0.3421,0 0.43079,0.253405 0.43079,0.386442 0,0.164714 -0.1267,0.430789 -0.51948,0.430789 h -0.41812 z m 0.77922,0.931263 c 0.25974,-0.08869 0.43713,-0.297751 0.43713,-0.551156 0,-0.29775 -0.24707,-0.627177 -0.69687,-0.627177 h -0.91226 c -0.057,0 -0.15838,0 -0.15838,0.120367 0,0.126703 0.10136,0.126703 0.16471,0.126703 h 0.1077 v 1.976558 h -0.1077 c -0.0633,0 -0.16471,0 -0.16471,0.126703 0,0.120367 0.10136,0.120367 0.15838,0.120367 h 0.99462 c 0.45613,0 0.7032,-0.361102 0.7032,-0.677858 0,-0.278746 -0.19639,-0.538486 -0.52582,-0.614507 z m -0.26607,1.045295 h -0.51315 V 28.67319 h 0.55749 c 0.3421,0 0.46247,0.291415 0.46247,0.475134 0,0.196389 -0.15204,0.437123 -0.50681,0.437123 z m 0,0"
       id="path18901" />
    <path
       style="fill:#000000;fill-opacity:1;stroke:none;stroke-width:0"
       d="m 63.746214,27.469516 c -0.03801,-0.152043 -0.09503,-0.152043 -0.22173,-0.152043 -0.114032,0 -0.183718,0 -0.215394,0.152043 l -0.487804,2.115931 c -0.05702,0 -0.152043,0 -0.177384,0.0063 -0.04434,0.02534 -0.06969,0.06969 -0.06969,0.120368 0,0.120367 0.107697,0.120367 0.177384,0.120367 h 0.411782 c 0.06969,0 0.171049,0 0.171049,-0.120367 0,-0.126703 -0.08236,-0.126703 -0.228065,-0.126703 l 0.08869,-0.418118 h 0.658853 l 0.09503,0.418118 c -0.145708,0 -0.228065,0 -0.228065,0.126703 0,0.120367 0.09503,0.120367 0.171049,0.120367 h 0.411783 c 0.06335,0 0.171048,0 0.171048,-0.120367 0,-0.05068 -0.01901,-0.09503 -0.06969,-0.114033 -0.02534,-0.01267 -0.114033,-0.01267 -0.171049,-0.01267 z m -0.22173,0.171049 h 0.0063 l 0.25974,1.279694 h -0.532151 z m 0,0"
       id="path18909" />
    <path
       style="fill:#000000;fill-opacity:1;stroke:none;stroke-width:0"
       d="m 78.995766,27.608889 h 0.506809 c 0.342097,0 0.430789,0.253405 0.430789,0.386442 0,0.164714 -0.126703,0.430789 -0.51948,0.430789 h -0.418118 z m 0.77922,0.931263 c 0.25974,-0.08869 0.437123,-0.297751 0.437123,-0.551156 0,-0.29775 -0.24707,-0.627177 -0.696863,-0.627177 h -0.912258 c -0.05702,0 -0.158378,0 -0.158378,0.120367 0,0.126703 0.101362,0.126703 0.164713,0.126703 h 0.107697 v 1.976558 h -0.107697 c -0.06335,0 -0.164713,0 -0.164713,0.126703 0,0.120367 0.101362,0.120367 0.158378,0.120367 h 0.994614 c 0.456129,0 0.703199,-0.361102 0.703199,-0.677858 0,-0.278746 -0.196389,-0.538486 -0.525815,-0.614507 z M 79.50891,29.585447 H 78.995766 V 28.67319 h 0.55749 c 0.342097,0 0.462464,0.291415 0.462464,0.475134 0,0.196389 -0.152043,0.437123 -0.50681,0.437123 z m 0,0"
       id="path18915" />
    <path
       style="fill:#000000;fill-opacity:1;stroke:none;stroke-width:0"
       d="m 37.287875,27.469516 c -0.03801,-0.152043 -0.09503,-0.152043 -0.22173,-0.152043 -0.114032,0 -0.183718,0 -0.215394,0.152043 l -0.487804,2.115931 c -0.05702,0 -0.152043,0 -0.177384,0.0063 -0.04434,0.02534 -0.06969,0.06969 -0.06969,0.120368 0,0.120367 0.107697,0.120367 0.177384,0.120367 h 0.411782 c 0.06969,0 0.171049,0 0.171049,-0.120367 0,-0.126703 -0.08236,-0.126703 -0.228065,-0.126703 l 0.08869,-0.418118 h 0.658853 l 0.09503,0.418118 c -0.145708,0 -0.228065,0 -0.228065,0.126703 0,0.120367 0.09503,0.120367 0.171049,0.120367 h 0.411783 c 0.06335,0 0.171048,0 0.171048,-0.120367 0,-0.05068 -0.019,-0.09503 -0.06969,-0.114033 -0.02534,-0.01267 -0.114033,-0.01267 -0.171049,-0.01267 z m -0.22173,0.171049 h 0.0063 l 0.25974,1.279694 h -0.532151 z m 0,0"
       id="path18925" />
    <path
       style="fill:#000000;fill-opacity:1;stroke:none;stroke-width:0"
       d="m 52.537427,27.608889 h 0.506809 c 0.342097,0 0.430789,0.253405 0.430789,0.386442 0,0.164714 -0.126703,0.430789 -0.51948,0.430789 h -0.418118 z m 0.77922,0.931263 c 0.25974,-0.08869 0.437123,-0.297751 0.437123,-0.551156 0,-0.29775 -0.24707,-0.627177 -0.696863,-0.627177 h -0.912258 c -0.05702,0 -0.158378,0 -0.158378,0.120367 0,0.126703 0.101362,0.126703 0.164713,0.126703 h 0.107697 v 1.976558 h -0.107697 c -0.06335,0 -0.164713,0 -0.164713,0.126703 0,0.120367 0.101362,0.120367 0.158378,0.120367 h 0.994614 c 0.456129,0 0.703199,-0.361102 0.703199,-0.677858 0,-0.278746 -0.196389,-0.538486 -0.525815,-0.614507 z m -0.266076,1.045295 H 52.537427 V 28.67319 h 0.55749 c 0.342097,0 0.462464,0.291415 0.462464,0.475134 0,0.196389 -0.152043,0.437123 -0.50681,0.437123 z m 0,0"
       id="path18931" />
    <path
       style="fill:#000000;fill-opacity:1;stroke:none;stroke-width:0"
       d="m 37.287869,6.3028501 c -0.03801,-0.1520427 -0.09503,-0.1520427 -0.22173,-0.1520427 -0.114032,0 -0.183718,0 -0.215394,0.1520427 l -0.487804,2.1159298 c -0.05702,0 -0.152043,0 -0.177384,0.0063 -0.04434,0.02534 -0.06969,0.06969 -0.06969,0.120368 0,0.120367 0.107697,0.120367 0.177384,0.120367 h 0.411782 c 0.06969,0 0.171049,0 0.171049,-0.120367 0,-0.126703 -0.08236,-0.126703 -0.228065,-0.126703 l 0.08869,-0.4181177 h 0.658853 l 0.09503,0.4181177 c -0.145708,0 -0.228065,0 -0.228065,0.126703 0,0.120367 0.09503,0.120367 0.171049,0.120367 h 0.411783 c 0.06335,0 0.171048,0 0.171048,-0.120367 0,-0.05068 -0.019,-0.09503 -0.06969,-0.114033 -0.02534,-0.01267 -0.114033,-0.01267 -0.171049,-0.01267 z m -0.22173,0.171049 h 0.0063 l 0.25974,1.2796934 h -0.532151 z m 0,0"
       id="path18939" />
    <path
       style="fill:#000000;fill-opacity:1;stroke:none;stroke-width:0"
       d="m 52.537421,6.4422231 h 0.506809 c 0.342097,0 0.430789,0.253405 0.430789,0.3864417 0,0.164714 -0.126703,0.430789 -0.51948,0.430789 h -0.418118 z m 0.77922,0.9312624 c 0.25974,-0.08869 0.437123,-0.2977507 0.437123,-0.5511554 0,-0.29775 -0.24707,-0.6271767 -0.696863,-0.6271767 h -0.912258 c -0.05702,0 -0.158378,0 -0.158378,0.1203667 0,0.126703 0.101362,0.126703 0.164713,0.126703 h 0.107697 v 1.9765568 h -0.107697 c -0.06335,0 -0.164713,0 -0.164713,0.126703 0,0.120367 0.101362,0.120367 0.158378,0.120367 h 0.994614 c 0.456129,0 0.703199,-0.3611017 0.703199,-0.6778577 0,-0.2787457 -0.196389,-0.5384857 -0.525815,-0.6145067 z M 53.050565,8.4187799 H 52.537421 V 7.5065235 h 0.55749 c 0.342097,0 0.462464,0.291415 0.462464,0.4751337 0,0.196389 -0.152043,0.4371227 -0.50681,0.4371227 z m 0,0"
       id="path18945" />
    <path
       style="fill:#000000;fill-opacity:1;stroke:none;stroke-width:0"
       d="m 10.829534,6.3028501 c -0.03801,-0.1520427 -0.09503,-0.1520427 -0.22173,-0.1520427 -0.114032,0 -0.183718,0 -0.215394,0.1520427 L 9.9046063,8.4187799 c -0.05702,0 -0.152043,0 -0.177384,0.0063 -0.04434,0.02534 -0.06969,0.06969 -0.06969,0.120368 0,0.120367 0.107697,0.120367 0.177384,0.120367 h 0.4117817 c 0.06969,0 0.171049,0 0.171049,-0.120367 0,-0.126703 -0.08236,-0.126703 -0.228065,-0.126703 l 0.08869,-0.4181177 h 0.658853 l 0.09503,0.4181177 c -0.145708,0 -0.228065,0 -0.228065,0.126703 0,0.120367 0.09503,0.120367 0.171049,0.120367 h 0.411783 c 0.06335,0 0.171048,0 0.171048,-0.120367 0,-0.05068 -0.019,-0.09503 -0.06969,-0.114033 -0.02534,-0.01267 -0.114033,-0.01267 -0.171049,-0.01267 z m -0.22173,0.171049 h 0.0063 l 0.25974,1.2796934 h -0.532151 z m 0,0"
       id="path18953" />
    <path
       style="fill:#000000;fill-opacity:1;stroke:none;stroke-width:0"
       d="m 26.079086,6.4422231 h 0.506809 c 0.342097,0 0.430789,0.253405 0.430789,0.3864417 0,0.164714 -0.126703,0.430789 -0.51948,0.430789 h -0.418118 z m 0.77922,0.9312624 c 0.25974,-0.08869 0.437123,-0.2977507 0.437123,-0.5511554 0,-0.29775 -0.24707,-0.6271767 -0.696863,-0.6271767 h -0.912258 c -0.05702,0 -0.158378,0 -0.158378,0.1203667 0,0.126703 0.101362,0.126703 0.164713,0.126703 h 0.107697 v 1.9765568 h -0.107697 c -0.06335,0 -0.164713,0 -0.164713,0.126703 0,0.120367 0.101362,0.120367 0.158378,0.120367 h 0.994614 c 0.456129,0 0.703199,-0.3611017 0.703199,-0.6778577 0,-0.2787457 -0.196389,-0.5384857 -0.525815,-0.6145067 z M 26.59223,8.4187799 H 26.079086 V 7.5065235 h 0.55749 c 0.342097,0 0.462464,0.291415 0.462464,0.4751337 0,0.196389 -0.152043,0.4371227 -0.50681,0.4371227 z m 0,0"
       id="path18959" />
    <path
       style="fill:#000000;fill-opacity:1;stroke:none;stroke-width:0"
       d="m 63.746204,6.3028501 c -0.03801,-0.1520427 -0.09503,-0.1520427 -0.22173,-0.1520427 -0.114032,0 -0.183718,0 -0.215394,0.1520427 l -0.487804,2.1159298 c -0.05702,0 -0.152043,0 -0.177384,0.0063 -0.04435,0.02534 -0.06969,0.06969 -0.06969,0.120368 0,0.120367 0.107697,0.120367 0.177384,0.120367 h 0.411782 c 0.06969,0 0.171049,0 0.171049,-0.120367 0,-0.126703 -0.08236,-0.126703 -0.228065,-0.126703 l 0.08869,-0.4181177 h 0.658853 l 0.09503,0.4181177 c -0.145708,0 -0.228065,0 -0.228065,0.126703 0,0.120367 0.09503,0.120367 0.171049,0.120367 h 0.411783 c 0.06335,0 0.171048,0 0.171048,-0.120367 0,-0.05068 -0.01901,-0.09503 -0.06969,-0.114033 -0.02534,-0.01267 -0.114033,-0.01267 -0.171049,-0.01267 z m -0.22173,0.171049 h 0.0063 l 0.25974,1.2796934 h -0.532151 z m 0,0"
       id="path18967" />
    <path
       style="fill:#000000;fill-opacity:1;stroke:none;stroke-width:0"
       d="m 78.995756,6.4422231 h 0.506809 c 0.342097,0 0.430789,0.253405 0.430789,0.3864417 0,0.164714 -0.126703,0.430789 -0.51948,0.430789 h -0.418118 z m 0.77922,0.9312624 c 0.25974,-0.08869 0.437123,-0.2977507 0.437123,-0.5511554 0,-0.29775 -0.24707,-0.6271767 -0.696863,-0.6271767 h -0.912258 c -0.05702,0 -0.158378,0 -0.158378,0.1203667 0,0.126703 0.101362,0.126703 0.164713,0.126703 h 0.107697 v 1.9765568 h -0.107697 c -0.06335,0 -0.164713,0 -0.164713,0.126703 0,0.120367 0.101362,0.120367 0.158378,0.120367 h 0.994614 c 0.456129,0 0.703199,-0.3611017 0.703199,-0.6778577 0,-0.2787457 -0.196389,-0.5384857 -0.525815,-0.6145067 z M 79.5089,8.4187799 H 78.995756 V 7.5065235 h 0.55749 c 0.342097,0 0.462464,0.291415 0.462464,0.4751337 0,0.196389 -0.152043,0.4371227 -0.50681,0.4371227 z m 0,0"
       id="path18973" />
    <path
       style="fill:#000000;fill-opacity:1;stroke:none;stroke-width:0"
       d="M 90.20454,6.3028501 C 90.16653,6.1508074 90.10951,6.1508074 89.98281,6.1508074 c -0.114032,0 -0.183718,0 -0.215394,0.1520427 l -0.487804,2.1159298 c -0.05702,0 -0.152043,0 -0.177384,0.0063 -0.04434,0.02534 -0.06969,0.06969 -0.06969,0.120368 0,0.120367 0.107697,0.120367 0.177384,0.120367 h 0.411782 c 0.06969,0 0.171049,0 0.171049,-0.120367 0,-0.126703 -0.08236,-0.126703 -0.228065,-0.126703 l 0.08869,-0.4181177 h 0.658853 l 0.09503,0.4181177 c -0.145708,0 -0.228065,0 -0.228065,0.126703 0,0.120367 0.09503,0.120367 0.171049,0.120367 h 0.411783 c 0.06335,0 0.171048,0 0.171048,-0.120367 0,-0.05068 -0.01901,-0.09503 -0.06969,-0.114033 -0.02534,-0.01267 -0.114033,-0.01267 -0.171049,-0.01267 z m -0.22173,0.171049 h 0.0063 l 0.25974,1.2796934 h -0.532151 z m 0,0"
       id="path18981" />
    <path
       style="fill:#000000;fill-opacity:1;stroke:none;stroke-width:0"
       d="m 105.45412,6.4422231 h 0.50681 c 0.3421,0 0.43079,0.253405 0.43079,0.3864417 0,0.164714 -0.1267,0.430789 -0.51948,0.430789 h -0.41812 z m 0.77922,0.9312624 c 0.25974,-0.08869 0.43713,-0.2977507 0.43713,-0.5511554 0,-0.29775 -0.24707,-0.6271767 -0.69687,-0.6271767 h -0.91226 c -0.057,0 -0.15838,0 -0.15838,0.1203667 0,0.126703 0.10136,0.126703 0.16472,0.126703 h 0.10769 v 1.9765568 h -0.10769 c -0.0633,0 -0.16472,0 -0.16472,0.126703 0,0.120367 0.10136,0.120367 0.15838,0.120367 h 0.99462 c 0.45613,0 0.7032,-0.3611017 0.7032,-0.6778577 0,-0.2787457 -0.19639,-0.5384857 -0.52582,-0.6145067 z m -0.26607,1.0452944 h -0.51315 V 7.5065235 h 0.5575 c 0.34209,0 0.46246,0.291415 0.46246,0.4751337 0,0.196389 -0.15204,0.4371227 -0.50681,0.4371227 z m 0,0"
       id="path18987" />
  </g>
</svg>
