<?xml version="1.0" encoding="UTF-8" standalone="no"?>
<svg
   width="53.194096mm"
   height="30.6031mm"
   version="1.1"
   viewBox="0 0 53.194096 30.6031"
   id="svg2059"
   sodipodi:docname="speed_trap_related_rates1.svg"
   inkscape:version="1.1 (c4e8f9e, 2021-05-24)"
   xmlns:inkscape="http://www.inkscape.org/namespaces/inkscape"
   xmlns:sodipodi="http://sodipodi.sourceforge.net/DTD/sodipodi-0.dtd"
   xmlns="http://www.w3.org/2000/svg"
   xmlns:svg="http://www.w3.org/2000/svg"
   xmlns:ns4="http://www.iki.fi/pav/software/textext/">
  <defs
     id="defs2063">
    <marker
       style="overflow:visible"
       id="TriangleOutM"
       refX="0.0"
       refY="0.0"
       orient="auto"
       inkscape:stockid="TriangleOutM"
       inkscape:isstock="true">
      <path
         transform="scale(0.4)"
         style="fill-rule:evenodd;fill:context-stroke;stroke:context-stroke;stroke-width:1.0pt"
         d="M 5.77,0.0 L -2.88,5.0 L -2.88,-5.0 L 5.77,0.0 z "
         id="path1309" />
    </marker>
    <defs
       id="id-7df1e2c7-c55a-4224-b128-9dc3c22335be">
      <g
         id="id-6dc1263a-69bf-49cc-b84f-30c05b2da8ec">
        <symbol
           overflow="visible"
           id="id-2e436519-eb35-4ad6-99e2-fb9102454410">
          <path
             style="stroke:none"
             d=""
             id="id-bd95b2e6-cdb5-4586-a624-3345205aac81" />
        </symbol>
        <symbol
           overflow="visible"
           id="id-36ca5774-3672-44ab-bbd7-b93559327c81">
          <path
             style="stroke:none"
             d="M 3.328125,-3.015625 C 3.390625,-3.265625 3.625,-4.1875 4.3125,-4.1875 c 0.046875,0 0.296875,0 0.5,0.125 C 4.53125,-4 4.34375,-3.765625 4.34375,-3.515625 c 0,0.15625 0.109375,0.34375 0.375,0.34375 0.21875,0 0.53125,-0.171875 0.53125,-0.578125 0,-0.515625 -0.578125,-0.65625 -0.921875,-0.65625 -0.578125,0 -0.921875,0.53125 -1.046875,0.75 -0.25,-0.65625 -0.78125,-0.75 -1.078125,-0.75 -1.03125,0 -1.609375,1.28125 -1.609375,1.53125 0,0.109375 0.109375,0.109375 0.125,0.109375 0.078125,0 0.109375,-0.03125 0.125,-0.109375 0.34375,-1.0625 1,-1.3125 1.34375,-1.3125 0.1875,0 0.53125,0.09375 0.53125,0.671875 0,0.3125 -0.171875,0.96875 -0.53125,2.375 -0.15625,0.609375 -0.515625,1.03125 -0.953125,1.03125 -0.0625,0 -0.28125,0 -0.5,-0.125 0.25,-0.0625 0.46875,-0.265625 0.46875,-0.546875 0,-0.265625 -0.21875,-0.34375 -0.359375,-0.34375 -0.3125,0 -0.546875,0.25 -0.546875,0.578125 0,0.453125 0.484375,0.65625 0.921875,0.65625 0.671875,0 1.03125,-0.703125 1.046875,-0.75 0.125,0.359375 0.484375,0.75 1.078125,0.75 1.03125,0 1.59375,-1.28125 1.59375,-1.53125 0,-0.109375 -0.078125,-0.109375 -0.109375,-0.109375 -0.09375,0 -0.109375,0.046875 -0.140625,0.109375 -0.328125,1.078125 -1,1.3125 -1.3125,1.3125 -0.390625,0 -0.546875,-0.3125 -0.546875,-0.65625 0,-0.21875 0.046875,-0.4375 0.15625,-0.875 z m 0,0"
             id="id-5945420a-0dd0-4da8-9022-c1ebc731b3d7" />
        </symbol>
        <symbol
           overflow="visible"
           id="id-b3b4ff0a-22b6-4bcf-931f-b02b6995f1c3">
          <path
             style="stroke:none"
             d=""
             id="id-181b1fa6-18b7-47e3-90c0-64c24747433b" />
        </symbol>
        <symbol
           overflow="visible"
           id="id-bf586248-c82e-41f0-9505-9aa1c95ca0de">
          <path
             style="stroke:none"
             d="m 6.84375,-3.265625 c 0.15625,0 0.34375,0 0.34375,-0.1875 C 7.1875,-3.65625 7,-3.65625 6.859375,-3.65625 h -5.96875 c -0.140625,0 -0.328125,0 -0.328125,0.203125 0,0.1875 0.1875,0.1875 0.328125,0.1875 z m 0.015625,1.9375 c 0.140625,0 0.328125,0 0.328125,-0.203125 0,-0.1875 -0.1875,-0.1875 -0.34375,-0.1875 H 0.890625 c -0.140625,0 -0.328125,0 -0.328125,0.1875 0,0.203125 0.1875,0.203125 0.328125,0.203125 z m 0,0"
             id="id-beffb546-b1a5-4411-8bda-65d45bc0ad76" />
        </symbol>
        <symbol
           overflow="visible"
           id="id-4a42e20b-19b8-48bf-a080-74ce9a2411b8">
          <path
             style="stroke:none"
             d="m 2.9375,-1.640625 v 0.859375 c 0,0.359375 -0.03125,0.46875 -0.765625,0.46875 H 1.96875 V 0 C 2.375,-0.03125 2.890625,-0.03125 3.3125,-0.03125 c 0.421875,0 0.9375,0 1.359375,0.03125 v -0.3125 h -0.21875 c -0.734375,0 -0.75,-0.109375 -0.75,-0.46875 V -1.640625 H 4.6875 v -0.3125 H 3.703125 v -4.53125 c 0,-0.203125 0,-0.265625 -0.171875,-0.265625 -0.078125,0 -0.109375,0 -0.1875,0.125 l -3.0625,4.671875 v 0.3125 z m 0.046875,-0.3125 H 0.5625 l 2.421875,-3.71875 z m 0,0"
             id="id-e220c151-2f29-4d4a-b3b2-a13e3c8cd0aa" />
        </symbol>
        <symbol
           overflow="visible"
           id="id-20520b0b-a46d-42e5-a5e1-d3d3f5753e4c">
          <path
             style="stroke:none"
             d="m 4.578125,-3.1875 c 0,-0.796875 -0.046875,-1.59375 -0.390625,-2.328125 -0.453125,-0.96875 -1.28125,-1.125 -1.6875,-1.125 -0.609375,0 -1.328125,0.265625 -1.75,1.1875 -0.3125,0.6875 -0.359375,1.46875 -0.359375,2.265625 0,0.75 0.03125,1.640625 0.453125,2.40625 0.421875,0.796875 1.15625,1 1.640625,1 0.53125,0 1.296875,-0.203125 1.734375,-1.15625 0.3125,-0.6875 0.359375,-1.46875 0.359375,-2.25 z M 2.484375,0 C 2.09375,0 1.5,-0.25 1.328125,-1.203125 1.21875,-1.796875 1.21875,-2.71875 1.21875,-3.3125 c 0,-0.640625 0,-1.296875 0.078125,-1.828125 0.1875,-1.1875 0.9375,-1.28125 1.1875,-1.28125 0.328125,0 0.984375,0.1875 1.171875,1.171875 0.109375,0.5625 0.109375,1.3125 0.109375,1.9375 0,0.75 0,1.421875 -0.109375,2.0625 C 3.5,-0.296875 2.9375,0 2.484375,0 Z m 0,0"
             id="id-e0d28ebb-129c-4497-86ba-5c9a89e9431d" />
        </symbol>
        <symbol
           overflow="visible"
           id="id-098dce8b-095e-4433-bf9e-af3c4982fd0a">
          <path
             style="stroke:none"
             d="m 3.3125,-0.75 c 0.046875,0.390625 0.3125,0.8125 0.78125,0.8125 0.21875,0 0.828125,-0.140625 0.828125,-0.953125 v -0.5625 h -0.25 v 0.5625 c 0,0.578125 -0.25,0.640625 -0.359375,0.640625 -0.328125,0 -0.375,-0.453125 -0.375,-0.5 v -1.984375 c 0,-0.421875 0,-0.8125 -0.359375,-1.1875 C 3.1875,-4.3125 2.6875,-4.46875 2.21875,-4.46875 c -0.828125,0 -1.515625,0.46875 -1.515625,1.125 0,0.296875 0.203125,0.46875 0.46875,0.46875 0.28125,0 0.453125,-0.203125 0.453125,-0.453125 0,-0.125 -0.046875,-0.453125 -0.515625,-0.453125 C 1.390625,-4.140625 1.875,-4.25 2.1875,-4.25 c 0.5,0 1.0625,0.390625 1.0625,1.28125 v 0.359375 c -0.515625,0.03125 -1.203125,0.0625 -1.828125,0.359375 -0.75,0.34375 -1,0.859375 -1,1.296875 0,0.8125 0.96875,1.0625 1.59375,1.0625 0.65625,0 1.109375,-0.40625 1.296875,-0.859375 z M 3.25,-2.390625 v 1 c 0,0.9375 -0.71875,1.28125 -1.171875,1.28125 -0.484375,0 -0.890625,-0.34375 -0.890625,-0.84375 0,-0.546875 0.421875,-1.375 2.0625,-1.4375 z m 0,0"
             id="id-445c8faf-5972-4ff0-a94c-638667beae17" />
        </symbol>
        <symbol
           overflow="visible"
           id="id-dcfc4900-13d1-476b-b21b-ea842f5b7347">
          <path
             style="stroke:none"
             d="m 1.625,-4.5625 c -0.453125,-0.296875 -0.5,-0.625 -0.5,-0.796875 0,-0.609375 0.65625,-1.03125 1.359375,-1.03125 0.71875,0 1.359375,0.515625 1.359375,1.234375 0,0.578125 -0.390625,1.046875 -0.984375,1.390625 z m 1.453125,0.953125 C 3.796875,-3.984375 4.28125,-4.5 4.28125,-5.15625 c 0,-0.921875 -0.875,-1.484375 -1.78125,-1.484375 -1,0 -1.8125,0.734375 -1.8125,1.671875 0,0.171875 0.015625,0.625 0.4375,1.09375 0.109375,0.109375 0.484375,0.359375 0.734375,0.53125 C 1.28125,-3.046875 0.421875,-2.5 0.421875,-1.5 c 0,1.046875 1.015625,1.71875 2.0625,1.71875 1.125,0 2.078125,-0.828125 2.078125,-1.890625 0,-0.359375 -0.109375,-0.8125 -0.5,-1.234375 C 3.875,-3.109375 3.71875,-3.203125 3.078125,-3.609375 Z m -1,0.421875 1.234375,0.78125 c 0.28125,0.1875 0.75,0.484375 0.75,1.09375 0,0.734375 -0.75,1.25 -1.5625,1.25 -0.859375,0 -1.578125,-0.609375 -1.578125,-1.4375 0,-0.578125 0.3125,-1.21875 1.15625,-1.6875 z m 0,0"
             id="id-052b88fa-376c-4b72-b5d4-5d90025b973c" />
        </symbol>
        <symbol
           overflow="visible"
           id="id-b0548dfc-ac6b-46d7-961a-962dfa064d2f">
          <path
             style="stroke:none"
             d="m 3.484375,-3.875 -1.28125,-0.296875 c -0.625,-0.15625 -1,-0.6875 -1,-1.265625 0,-0.703125 0.53125,-1.3125 1.3125,-1.3125 1.65625,0 1.875,1.640625 1.9375,2.078125 0.015625,0.0625 0.015625,0.125 0.125,0.125 0.125,0 0.125,-0.046875 0.125,-0.234375 v -2 c 0,-0.171875 0,-0.25 -0.109375,-0.25 -0.0625,0 -0.078125,0.015625 -0.140625,0.140625 l -0.359375,0.5625 C 3.796875,-6.625 3.390625,-7.03125 2.5,-7.03125 c -1.109375,0 -1.9375,0.875 -1.9375,1.9375 0,0.828125 0.53125,1.5625 1.296875,1.828125 0.109375,0.03125 0.625,0.15625 1.328125,0.328125 0.265625,0.0625 0.5625,0.140625 0.84375,0.5 0.203125,0.265625 0.3125,0.59375 0.3125,0.921875 0,0.703125 -0.5,1.421875 -1.34375,1.421875 -0.28125,0 -1.046875,-0.046875 -1.578125,-0.53125 C 0.84375,-1.171875 0.8125,-1.796875 0.8125,-2.15625 0.796875,-2.265625 0.71875,-2.265625 0.6875,-2.265625 c -0.125,0 -0.125,0.078125 -0.125,0.25 v 2 c 0,0.171875 0,0.234375 0.109375,0.234375 0.0625,0 0.078125,-0.015625 0.140625,-0.125 0,-0.015625 0.03125,-0.046875 0.359375,-0.578125 0.3125,0.34375 0.953125,0.703125 1.84375,0.703125 1.15625,0 1.953125,-0.96875 1.953125,-2.078125 0,-0.984375 -0.65625,-1.8125 -1.484375,-2.015625 z m 0,0"
             id="id-02985ce4-dbde-4fff-8572-9a46667d177f" />
        </symbol>
        <symbol
           overflow="visible"
           id="id-2a56400f-16e5-4b8f-b41f-2788d5fc94a9">
          <path
             style="stroke:none"
             d="m 5.796875,-2.578125 h -0.25 c -0.109375,1.015625 -0.25,2.265625 -2,2.265625 h -0.8125 C 2.265625,-0.3125 2.25,-0.375 2.25,-0.703125 v -5.3125 C 2.25,-6.359375 2.25,-6.5 3.1875,-6.5 H 3.515625 V -6.8125 C 3.15625,-6.78125 2.25,-6.78125 1.84375,-6.78125 c -0.390625,0 -1.171875,0 -1.515625,-0.03125 V -6.5 H 0.5625 c 0.765625,0 0.796875,0.109375 0.796875,0.46875 v 5.25 c 0,0.359375 -0.03125,0.46875 -0.796875,0.46875 H 0.328125 V 0 h 5.1875 z m 0,0"
             id="id-4fa51d69-e4ab-4601-a075-8d65a0085eff" />
        </symbol>
        <symbol
           overflow="visible"
           id="id-bf3ca572-43f9-4469-b9ab-c9244bbeb332">
          <path
             style="stroke:none"
             d="m 3.65625,-3.171875 v 0.328125 c 0,2.328125 -1.03125,2.78125 -1.609375,2.78125 -0.171875,0 -0.71875,-0.015625 -0.984375,-0.359375 0.4375,0 0.515625,-0.28125 0.515625,-0.453125 0,-0.3125 -0.234375,-0.453125 -0.453125,-0.453125 -0.15625,0 -0.453125,0.078125 -0.453125,0.46875 0,0.671875 0.53125,1.078125 1.375,1.078125 1.296875,0 2.515625,-1.359375 2.515625,-3.5 0,-2.6875 -1.15625,-3.359375 -2.046875,-3.359375 -0.546875,0 -1.03125,0.1875 -1.453125,0.625 -0.421875,0.453125 -0.640625,0.875 -0.640625,1.625 0,1.234375 0.875,2.21875 1.984375,2.21875 0.609375,0 1.015625,-0.421875 1.25,-1 z M 2.421875,-2.40625 c -0.15625,0 -0.625,0 -0.921875,-0.625 -0.1875,-0.375 -0.1875,-0.859375 -0.1875,-1.359375 0,-0.53125 0,-1 0.21875,-1.375 0.265625,-0.5 0.640625,-0.625 0.984375,-0.625 0.46875,0 0.796875,0.34375 0.96875,0.78125 0.109375,0.328125 0.15625,0.953125 0.15625,1.40625 0,0.828125 -0.34375,1.796875 -1.21875,1.796875 z m 0,0"
             id="id-de5f3495-934f-4c72-b589-89c81670d297" />
        </symbol>
        <symbol
           overflow="visible"
           id="id-9f628afd-b9be-4d9f-85c4-9f3c2e906be2">
          <path
             style="stroke:none"
             d=""
             id="id-eedba790-d2d0-4f75-839a-6fdf5173fea4" />
        </symbol>
        <symbol
           overflow="visible"
           id="id-a2e67229-7c8f-4dee-86f2-d3455d4da2a3">
          <path
             style="stroke:none"
             d="m 1.4375,-2.75 h 0.875 V -3 H 1.40625 v -0.78125 c 0,-0.640625 0.375,-0.921875 0.671875,-0.921875 0.0625,0 0.140625,0 0.203125,0.03125 C 2.1875,-4.625 2.125,-4.515625 2.125,-4.390625 c 0,0.1875 0.140625,0.3125 0.328125,0.3125 0.1875,0 0.328125,-0.125 0.328125,-0.3125 0,-0.3125 -0.3125,-0.515625 -0.6875,-0.515625 -0.546875,0 -1.1875,0.390625 -1.1875,1.125 V -3 H 0.3125 v 0.25 h 0.59375 v 2.203125 C 0.90625,-0.25 0.84375,-0.25 0.390625,-0.25 V 0 C 0.421875,0 0.90625,-0.03125 1.1875,-0.03125 1.484375,-0.03125 1.796875,-0.015625 2.09375,0 V -0.25 H 1.953125 C 1.4375,-0.25 1.4375,-0.328125 1.4375,-0.5625 Z m 0,0"
             id="id-0be85ff9-40ba-4ee7-99dd-c3f9a4b8751b" />
        </symbol>
        <symbol
           overflow="visible"
           id="id-4648bd59-ef25-4026-bb4e-f5872ae7015b">
          <path
             style="stroke:none"
             d="M 1.40625,-2.75 H 2.484375 V -3 H 1.40625 v -1.28125 h -0.25 c 0,0.625 -0.28125,1.3125 -0.953125,1.328125 V -2.75 H 0.84375 v 1.875 c 0,0.78125 0.59375,0.9375 0.984375,0.9375 0.46875,0 0.78125,-0.390625 0.78125,-0.9375 V -1.265625 H 2.375 v 0.375 c 0,0.484375 -0.21875,0.734375 -0.5,0.734375 -0.46875,0 -0.46875,-0.578125 -0.46875,-0.703125 z m 0,0"
             id="id-366299ce-5b61-4230-819e-640d2b35c56f" />
        </symbol>
        <symbol
           overflow="visible"
           id="id-bb564f69-61a0-4c5a-8336-305ecb7be15f">
          <path
             style="stroke:none"
             d="m 2.640625,-2.921875 c 0,-0.125 0,-0.1875 -0.09375,-0.1875 -0.03125,0 -0.046875,0 -0.140625,0.078125 -0.015625,0.015625 -0.078125,0.078125 -0.125,0.109375 -0.21875,-0.140625 -0.46875,-0.1875 -0.734375,-0.1875 -1,0 -1.234375,0.53125 -1.234375,0.875 0,0.21875 0.09375,0.40625 0.265625,0.546875 0.265625,0.21875 0.53125,0.265625 0.96875,0.34375 0.34375,0.0625 0.90625,0.15625 0.90625,0.625 0,0.265625 -0.1875,0.59375 -0.859375,0.59375 -0.671875,0 -0.90625,-0.4375 -1.03125,-0.90625 -0.03125,-0.09375 -0.03125,-0.125 -0.125,-0.125 -0.125,0 -0.125,0.046875 -0.125,0.1875 v 0.859375 C 0.3125,0 0.3125,0.0625 0.40625,0.0625 0.46875,0.0625 0.609375,-0.078125 0.75,-0.234375 1.046875,0.0625 1.421875,0.0625 1.59375,0.0625 c 0.90625,0 1.25,-0.484375 1.25,-0.96875 0,-0.265625 -0.125,-0.484375 -0.3125,-0.640625 -0.265625,-0.25 -0.578125,-0.3125 -0.828125,-0.34375 -0.546875,-0.109375 -1,-0.1875 -1,-0.5625 0,-0.21875 0.1875,-0.484375 0.84375,-0.484375 0.8125,0 0.84375,0.5625 0.859375,0.765625 0,0.078125 0.09375,0.078125 0.109375,0.078125 0.125,0 0.125,-0.046875 0.125,-0.1875 z m 0,0"
             id="id-e5045d48-48d5-4ffa-a9f1-0b7abe554cc2" />
        </symbol>
      </g>
    </defs>
  </defs>
  <sodipodi:namedview
     id="namedview2061"
     pagecolor="#ffffff"
     bordercolor="#666666"
     borderopacity="1.0"
     inkscape:pageshadow="2"
     inkscape:pageopacity="0.0"
     inkscape:pagecheckerboard="0"
     inkscape:document-units="mm"
     showgrid="false"
     inkscape:zoom="1.8704079"
     inkscape:cx="51.058381"
     inkscape:cy="98.106942"
     inkscape:window-width="1296"
     inkscape:window-height="847"
     inkscape:window-x="2111"
     inkscape:window-y="25"
     inkscape:window-maximized="0"
     inkscape:current-layer="svg2059"
     inkscape:snap-global="true">
    <inkscape:grid
       type="xygrid"
       id="grid1047" />
  </sodipodi:namedview>
  <g
     id="g1541">
    <g
       id="g1995">
      <g
         fill="none"
         id="g2020"
         transform="translate(-59.140765,-114.74743)">
        <rect
           x="63.5"
           y="140.23"
           width="2.6458001"
           height="2.6458001"
           ry="0"
           stop-color="#000000"
           stroke="#ff4141"
           stroke-width="0.165"
           style="font-variation-settings:normal"
           id="rect2014" />
        <path
           d="m 63.5,116.42 -10e-7,26.458 H 107.156"
           stroke="#9eabb0"
           stroke-width="0.26458px"
           id="path2016" />
        <path
           d="m 63.5,116.42 41.01,23.812"
           stroke="#ffc022"
           stroke-dasharray="0.529166, 0.529166"
           stroke-width="0.26458"
           id="path2018" />
      </g>
      <rect
         transform="rotate(30)"
         x="3.8188832"
         y="-2.1088078"
         width="5.2916999"
         height="2.6458001"
         ry="0.13229001"
         fill="#364e59"
         fill-rule="evenodd"
         stop-color="#000000"
         stroke="#000000"
         stroke-width="0.26458"
         style="font-variation-settings:normal"
         id="rect2022" />
      <rect
         x="42.719238"
         y="25.482567"
         width="5.2916999"
         height="2.6458001"
         ry="0.13229001"
         fill="#9eabb0"
         fill-rule="evenodd"
         stop-color="#000000"
         stroke="#000000"
         stroke-width="0.26458"
         style="font-variation-settings:normal"
         id="rect2024" />
      <g
         transform="matrix(0.72847,0,0,0.72847,-47.872765,-94.963428)"
         id="g2033">
        <g
           transform="matrix(0.33386,0,0,0.33386,65.576,150.81)"
           id="g2027">
          <path
             id="id-f6f92c5e-1dad-41b3-83b3-46259ecf233c"
             d="m 2.8906,-3.5156 c 0.8125,-0.26562 1.3906,-0.95312 1.3906,-1.75 0,-0.8125 -0.875,-1.375 -1.8281,-1.375 -1,0 -1.7656,0.59375 -1.7656,1.3594 0,0.32812 0.21875,0.51562 0.51562,0.51562 0.29687,0 0.5,-0.21875 0.5,-0.51562 0,-0.48438 -0.46875,-0.48438 -0.60938,-0.48438 0.29688,-0.5 0.95312,-0.625 1.3125,-0.625 0.42188,0 0.96875,0.21875 0.96875,1.1094 0,0.125 -0.03125,0.70312 -0.28125,1.1406 -0.29688,0.48438 -0.64062,0.51562 -0.89062,0.51562 -0.078125,0.015625 -0.3125,0.03125 -0.39062,0.03125 -0.078125,0.015625 -0.14062,0.03125 -0.14062,0.125 0,0.10938 0.0625,0.10938 0.23438,0.10938 h 0.4375 c 0.8125,0 1.1875,0.67188 1.1875,1.6562 0,1.3594 -0.6875,1.6406 -1.125,1.6406 -0.4375,0 -1.1875,-0.17188 -1.5312,-0.75 0.34375,0.046875 0.65625,-0.17188 0.65625,-0.54688 0,-0.35938 -0.26562,-0.5625 -0.54688,-0.5625 -0.25,0 -0.5625,0.14062 -0.5625,0.57812 0,0.90625 0.92188,1.5625 2.0156,1.5625 1.2188,0 2.125,-0.90625 2.125,-1.9219 0,-0.8125 -0.64062,-1.5938 -1.6719,-1.8125 z" />
        </g>
        <g
           transform="matrix(0.33386,0,0,0.33386,67.239,150.81)"
           id="g2031">
          <path
             d="m 4.5781,-3.1875 c 0,-0.79688 -0.046875,-1.5938 -0.39062,-2.3281 -0.45312,-0.96875 -1.2812,-1.125 -1.6875,-1.125 -0.60938,0 -1.3281,0.26562 -1.75,1.1875 -0.3125,0.6875 -0.35938,1.4688 -0.35938,2.2656 0,0.75 0.03125,1.6406 0.45312,2.4062 0.42188,0.79688 1.1562,1 1.6406,1 0.53125,0 1.2969,-0.20312 1.7344,-1.1562 0.3125,-0.6875 0.35938,-1.4688 0.35938,-2.25 z M 2.4843,0 C 2.09368,0 1.49992,-0.25 1.3281,-1.2031 1.21872,-1.79685 1.21872,-2.7187 1.21872,-3.3125 c 0,-0.64062 0,-1.2969 0.078125,-1.8281 0.1875,-1.1875 0.9375,-1.2812 1.1875,-1.2812 0.32812,0 0.98438,0.1875 1.1719,1.1719 0.10938,0.5625 0.10938,1.3125 0.10938,1.9375 0,0.75 0,1.4219 -0.10938,2.0625 -0.15625,0.95312 -0.71875,1.25 -1.1719,1.25 z"
             id="path2029" />
        </g>
      </g>
      <g
         id="g3120"
         transform="translate(11.203102,-5.998964)">
        <path
           style="fill:#000000;fill-opacity:1;stroke:none;stroke-width:0.271272"
           d="m 11.381065,35.724668 c 0.01695,-0.06782 0.08053,-0.317897 0.267033,-0.317897 0.01272,0 0.08053,0 0.135636,0.03391 -0.0763,0.01695 -0.127158,0.08053 -0.127158,0.148352 0,0.04239 0.02967,0.09325 0.101727,0.09325 0.05934,0 0.144113,-0.04662 0.144113,-0.15683 0,-0.139874 -0.156829,-0.178022 -0.250079,-0.178022 -0.156829,0 -0.250079,0.144113 -0.283988,0.203454 -0.06782,-0.178022 -0.211932,-0.203454 -0.292465,-0.203454 -0.27975,0 -0.436579,0.347567 -0.436579,0.415385 0,0.02967 0.02967,0.02967 0.03391,0.02967 0.02119,0 0.02967,-0.0085 0.03391,-0.02967 0.09325,-0.288226 0.271272,-0.356044 0.364522,-0.356044 0.05086,0 0.144113,0.02543 0.144113,0.182261 0,0.08477 -0.04662,0.262795 -0.144113,0.644271 -0.04239,0.165307 -0.139875,0.27975 -0.258556,0.27975 -0.01695,0 -0.0763,0 -0.135636,-0.03391 0.06782,-0.01695 0.127158,-0.07206 0.127158,-0.148352 0,-0.07206 -0.05934,-0.09325 -0.09749,-0.09325 -0.08477,0 -0.148352,0.06782 -0.148352,0.156829 0,0.12292 0.131397,0.178022 0.250079,0.178022 0.182261,0 0.279749,-0.190738 0.283988,-0.203454 0.03391,0.09749 0.131398,0.203454 0.292465,0.203454 0.27975,0 0.43234,-0.347567 0.43234,-0.415385 0,-0.02967 -0.02119,-0.02967 -0.02967,-0.02967 -0.02543,0 -0.02967,0.01272 -0.03815,0.02967 -0.08901,0.292465 -0.271272,0.356045 -0.356044,0.356045 -0.105966,0 -0.148352,-0.08477 -0.148352,-0.178023 0,-0.05934 0.01272,-0.118681 0.04239,-0.237363 z m 0,0"
           id="id-d86053e3-a045-4af9-abe9-4d8307bc8073" />
        <path
           style="fill:#000000;fill-opacity:1;stroke:none;stroke-width:0.271272"
           d="m 14.630261,35.65685 c 0.04239,0 0.09325,0 0.09325,-0.05086 0,-0.0551 -0.05086,-0.0551 -0.08901,-0.0551 h -1.619156 c -0.03815,0 -0.08901,0 -0.08901,0.0551 0,0.05086 0.05086,0.05086 0.08901,0.05086 z m 0.0042,0.52559 c 0.03815,0 0.08901,0 0.08901,-0.0551 0,-0.05086 -0.05086,-0.05086 -0.09325,-0.05086 h -1.614917 c -0.03815,0 -0.08901,0 -0.08901,0.05086 0,0.0551 0.05086,0.0551 0.08901,0.0551 z m 0,0"
           id="id-730de865-3a56-4acc-9c54-528c50649fc7" />
        <path
           style="fill:#000000;fill-opacity:1;stroke:none;stroke-width:0.271272"
           d="m 16.424116,36.097667 v 0.233125 c 0,0.09749 -0.0085,0.127158 -0.207693,0.127158 h -0.0551 v 0.08477 c 0.110204,-0.0085 0.250079,-0.0085 0.364522,-0.0085 0.114443,0 0.254318,0 0.368761,0.0085 v -0.08477 h -0.05934 c -0.199216,0 -0.203454,-0.02967 -0.203454,-0.127158 v -0.233125 h 0.267033 v -0.08477 h -0.267033 v -1.229203 c 0,-0.0551 0,-0.07206 -0.04662,-0.07206 -0.02119,0 -0.02967,0 -0.05086,0.03391 l -0.830771,1.26735 v 0.08477 z m 0.01272,-0.08477 h -0.656987 l 0.656987,-1.008794 z m 0,0"
           id="id-52fc77d7-25af-44be-afaa-ff90634c91f7" />
        <path
           style="fill:#000000;fill-opacity:1;stroke:none;stroke-width:0.271272"
           d="m 18.220379,35.678043 c 0,-0.21617 -0.01272,-0.43234 -0.105966,-0.631556 -0.12292,-0.262795 -0.347567,-0.305181 -0.457772,-0.305181 -0.165306,0 -0.360283,0.07206 -0.474726,0.322136 -0.08477,0.186499 -0.09749,0.398431 -0.09749,0.614601 0,0.203454 0.0085,0.445056 0.12292,0.652749 0.114443,0.21617 0.313658,0.271272 0.445056,0.271272 0.144113,0 0.351806,-0.0551 0.470488,-0.313659 0.08477,-0.186499 0.09749,-0.398431 0.09749,-0.610362 z m -0.567976,0.86468 c -0.105966,0 -0.267034,-0.06782 -0.313659,-0.326374 -0.02967,-0.161068 -0.02967,-0.411147 -0.02967,-0.572215 0,-0.173784 0,-0.351806 0.02119,-0.49592 0.05086,-0.322135 0.254318,-0.347567 0.322136,-0.347567 0.08901,0 0.267033,0.05086 0.317897,0.317897 0.02967,0.152591 0.02967,0.356045 0.02967,0.52559 0,0.203454 0,0.385715 -0.02967,0.559499 -0.04239,0.258556 -0.194977,0.33909 -0.317897,0.33909 z m 0,0"
           id="id-eea9f63f-d2bf-48ac-ae6e-c29f78f28de0" />
      </g>
      <g
         id="g3245"
         transform="translate(7.8022317,-32.90585)">
        <path
           style="fill:#000000;fill-opacity:1;stroke:none;stroke-width:0.271272"
           d="m 29.094664,35.491543 -0.347567,-0.08053 c -0.169546,-0.04239 -0.271273,-0.186499 -0.271273,-0.343329 0,-0.190738 0.144114,-0.356044 0.356045,-0.356044 0.449295,0 0.508635,0.445056 0.52559,0.563737 0.0042,0.01695 0.0042,0.03391 0.03391,0.03391 0.03391,0 0.03391,-0.01272 0.03391,-0.06358 v -0.542545 c 0,-0.04662 0,-0.06782 -0.02967,-0.06782 -0.01695,0 -0.02119,0.0042 -0.03815,0.03815 l -0.09749,0.152591 c -0.08053,-0.08053 -0.190739,-0.190739 -0.432341,-0.190739 -0.300942,0 -0.525589,0.237364 -0.525589,0.52559 0,0.224648 0.144113,0.423863 0.351806,0.49592 0.02967,0.0085 0.169545,0.04239 0.360283,0.08901 0.07206,0.01695 0.152591,0.03815 0.228886,0.135636 0.0551,0.07206 0.08477,0.161068 0.08477,0.250079 0,0.190738 -0.135637,0.385715 -0.364522,0.385715 -0.0763,0 -0.283989,-0.01272 -0.428102,-0.144113 -0.156829,-0.148352 -0.165306,-0.317897 -0.165306,-0.415386 -0.0042,-0.02967 -0.02543,-0.02967 -0.03391,-0.02967 -0.03391,0 -0.03391,0.02119 -0.03391,0.06782 v 0.542544 c 0,0.04663 0,0.06358 0.02967,0.06358 0.01696,0 0.02119,-0.0042 0.03815,-0.03391 0,-0.0042 0.0085,-0.01272 0.09749,-0.156829 0.08477,0.09325 0.258556,0.190738 0.500158,0.190738 0.313659,0 0.529829,-0.262795 0.529829,-0.563738 0,-0.267033 -0.178023,-0.491681 -0.40267,-0.546783 z m 0,0"
           id="id-f10695a9-8603-4ed5-ba56-b3edba826ae7" />
        <path
           style="fill:#000000;fill-opacity:1;stroke:none;stroke-width:0.271272"
           d="m 31.223472,35.843349 h -0.06782 c -0.02967,0.275511 -0.06782,0.614601 -0.542544,0.614601 h -0.220409 c -0.127159,0 -0.131398,-0.01695 -0.131398,-0.105965 v -1.441134 c 0,-0.09325 0,-0.131397 0.254318,-0.131397 h 0.08901 v -0.08477 c -0.09749,0.0085 -0.343329,0.0085 -0.453533,0.0085 -0.105966,0 -0.317897,0 -0.411147,-0.0085 v 0.08477 h 0.06358 c 0.207692,0 0.21617,0.02967 0.21617,0.127159 v 1.424179 c 0,0.09749 -0.0085,0.127158 -0.21617,0.127158 h -0.06358 v 0.08477 h 1.407225 z m 0,0"
           id="id-cbc0a276-23f7-4acf-b340-f064589c7c42" />
        <path
           style="fill:#000000;fill-opacity:1;stroke:none;stroke-width:0.271272"
           d="m 33.947825,35.65685 c 0.04239,0 0.09325,0 0.09325,-0.05086 0,-0.0551 -0.05086,-0.0551 -0.08901,-0.0551 h -1.619156 c -0.03815,0 -0.08901,0 -0.08901,0.0551 0,0.05086 0.05086,0.05086 0.08901,0.05086 z m 0.0042,0.52559 c 0.03815,0 0.08901,0 0.08901,-0.0551 0,-0.05086 -0.05086,-0.05086 -0.09325,-0.05086 h -1.614917 c -0.03815,0 -0.08901,0 -0.08901,0.05086 0,0.0551 0.05086,0.0551 0.08901,0.0551 z m 0,0"
           id="id-1042f093-2dd4-495f-bfa8-2f3b61c8f722" />
        <path
           style="fill:#000000;fill-opacity:1;stroke:none;stroke-width:0.271272"
           d="m 35.933945,35.682282 v 0.08901 c 0,0.631555 -0.27975,0.754475 -0.436579,0.754475 -0.04662,0 -0.194977,-0.0042 -0.267033,-0.09749 0.118681,0 0.139874,-0.0763 0.139874,-0.12292 0,-0.08477 -0.06358,-0.12292 -0.12292,-0.12292 -0.04239,0 -0.12292,0.02119 -0.12292,0.127158 0,0.182261 0.144113,0.292466 0.372999,0.292466 0.351806,0 0.682419,-0.368761 0.682419,-0.949453 0,-0.729044 -0.313658,-0.911305 -0.55526,-0.911305 -0.148352,0 -0.279749,0.05086 -0.394192,0.169545 -0.114443,0.12292 -0.173784,0.237363 -0.173784,0.440818 0,0.334851 0.237363,0.601885 0.538306,0.601885 0.165306,0 0.275511,-0.114443 0.33909,-0.271272 z m -0.334852,0.207692 c -0.04239,0 -0.169545,0 -0.250079,-0.169545 -0.05086,-0.101727 -0.05086,-0.233124 -0.05086,-0.36876 0,-0.144114 0,-0.271273 0.05934,-0.373 0.07206,-0.135636 0.173783,-0.169545 0.267033,-0.169545 0.127159,0 0.21617,0.09325 0.262795,0.211932 0.02967,0.08901 0.04239,0.258556 0.04239,0.381476 0,0.224647 -0.09325,0.487442 -0.330613,0.487442 z m 0,0"
           id="id-62b58070-6637-4c32-ba11-cca7c876ceb2" />
        <path
           style="fill:#000000;fill-opacity:1;stroke:none;stroke-width:0.271272"
           d="m 37.53523,35.678043 c 0,-0.21617 -0.01272,-0.43234 -0.105966,-0.631556 -0.12292,-0.262795 -0.347567,-0.305181 -0.457772,-0.305181 -0.165306,0 -0.360283,0.07206 -0.474726,0.322136 -0.08477,0.186499 -0.09749,0.398431 -0.09749,0.614601 0,0.203454 0.0085,0.445056 0.12292,0.652749 0.114443,0.21617 0.313658,0.271272 0.445056,0.271272 0.144113,0 0.351806,-0.0551 0.470488,-0.313659 0.08477,-0.186499 0.09749,-0.398431 0.09749,-0.610362 z m -0.567976,0.86468 c -0.105966,0 -0.267034,-0.06782 -0.313659,-0.326374 -0.02967,-0.161068 -0.02967,-0.411147 -0.02967,-0.572215 0,-0.173784 0,-0.351806 0.02119,-0.49592 0.05086,-0.322135 0.254318,-0.347567 0.322136,-0.347567 0.08901,0 0.267033,0.05086 0.317897,0.317897 0.02967,0.152591 0.02967,0.356045 0.02967,0.52559 0,0.203454 0,0.385715 -0.02967,0.559499 -0.04239,0.258556 -0.194977,0.33909 -0.317897,0.33909 z m 0,0"
           id="id-9b20be73-7069-463b-89e0-69b383bef678" />
        <path
           style="fill:#000000;fill-opacity:1;stroke:none;stroke-width:0.271272"
           d="m 38.360271,34.732524 h 0.237363 v -0.06782 h -0.24584 v -0.211931 c 0,-0.173784 0.101727,-0.250079 0.182261,-0.250079 0.01695,0 0.03815,0 0.0551,0.0085 -0.02543,0.01272 -0.04239,0.04239 -0.04239,0.0763 0,0.05086 0.03815,0.08477 0.08901,0.08477 0.05086,0 0.08901,-0.03391 0.08901,-0.08477 0,-0.08477 -0.08477,-0.139875 -0.1865,-0.139875 -0.148352,0 -0.322136,0.105966 -0.322136,0.305181 v 0.211931 H 38.05509 v 0.06782 h 0.161067 v 0.597647 c 0,0.08053 -0.01695,0.08053 -0.139874,0.08053 v 0.06782 c 0.0085,0 0.139874,-0.0085 0.21617,-0.0085 0.08053,0 0.165306,0.0042 0.24584,0.0085 v -0.06782 h -0.03815 c -0.139874,0 -0.139874,-0.02119 -0.139874,-0.08477 z m 0,0"
           id="id-9a95f8da-b7bc-46ae-b075-701c39397d78" />
        <path
           style="fill:#000000;fill-opacity:1;stroke:none;stroke-width:0.271272"
           d="m 39.021836,34.732524 h 0.292465 v -0.06782 h -0.292465 v -0.347567 h -0.06782 c 0,0.169545 -0.0763,0.356045 -0.258556,0.360283 v 0.0551 h 0.173784 v 0.508636 c 0,0.211931 0.161068,0.254318 0.267033,0.254318 0.127159,0 0.211932,-0.105966 0.211932,-0.254318 V 35.13519 h -0.06358 v 0.101727 c 0,0.131398 -0.05934,0.199216 -0.135636,0.199216 -0.127158,0 -0.127158,-0.15683 -0.127158,-0.190739 z m 0,0"
           id="id-02a4cb70-38a9-46f0-9c16-856183cf1c5c" />
        <path
           style="fill:none;stroke:#000000;stroke-width:0.107967;stroke-linecap:butt;stroke-linejoin:miter;stroke-miterlimit:10;stroke-opacity:1"
           d="m 37.970749,35.866832 h 1.51425"
           id="id-708f60fc-fdcf-41ac-9700-9b2532141841" />
        <path
           style="fill:#000000;fill-opacity:1;stroke:none;stroke-width:0.271272"
           d="m 39.015969,36.68192 c 0,-0.03391 0,-0.05086 -0.02543,-0.05086 -0.0085,0 -0.01272,0 -0.03815,0.02119 -0.0042,0.0042 -0.02119,0.02119 -0.03391,0.02967 -0.05934,-0.03815 -0.127159,-0.05086 -0.199216,-0.05086 -0.271272,0 -0.334851,0.144113 -0.334851,0.237363 0,0.05934 0.02543,0.110205 0.07206,0.148352 0.07206,0.05934 0.144114,0.07206 0.262795,0.09325 0.09325,0.01695 0.245841,0.04239 0.245841,0.169545 0,0.07206 -0.05086,0.161068 -0.233125,0.161068 -0.182261,0 -0.24584,-0.118682 -0.279749,-0.24584 -0.0085,-0.02543 -0.0085,-0.03391 -0.03391,-0.03391 -0.03391,0 -0.03391,0.01272 -0.03391,0.05086 v 0.233125 c 0,0.02967 0,0.04662 0.02543,0.04662 0.01696,0 0.0551,-0.03815 0.09325,-0.08053 0.08053,0.08053 0.182261,0.08053 0.228886,0.08053 0.24584,0 0.33909,-0.131398 0.33909,-0.262795 0,-0.07206 -0.03391,-0.131398 -0.08477,-0.173784 -0.07206,-0.06782 -0.15683,-0.08477 -0.224648,-0.09325 -0.148352,-0.02967 -0.271272,-0.05086 -0.271272,-0.152591 0,-0.05934 0.05086,-0.131397 0.228886,-0.131397 0.220409,0 0.228886,0.152591 0.233125,0.207693 0,0.02119 0.02543,0.02119 0.02967,0.02119 0.03391,0 0.03391,-0.01272 0.03391,-0.05086 z m 0,0"
           id="id-f11decfe-2d8b-4b93-9542-8319f5275007" />
      </g>
      <g
         transform="matrix(0.24000252,0,0,0.24000252,24.725342,10.609047)"
         ns4:version="1.3.1"
         ns4:texconverter="pdflatex"
         ns4:pdfconverter="inkscape"
         ns4:text="${D = 50}$\n\n"
         ns4:preamble="/Users/ketiboldiais/Library/Application Support/org.inkscape.Inkscape/config/inkscape/extensions/circuitSymbols/circuitSymbolsPreamble.tex"
         ns4:scale="2.0110554948965156"
         ns4:alignment="middle center"
         ns4:inkscapeversion="1.1"
         ns4:jacobian_sqrt="0.709456"
         id="g1161">
        <defs
           id="id-7d28e45c-f418-4bf5-b813-84cd3aab13d8">
          <g
             id="id-13d86ec8-64e5-4e74-94da-e687f4ba315d">
            <symbol
               overflow="visible"
               id="id-568c8265-a4f3-4669-b6a1-c87e1ad58067">
              <path
                 style="stroke:none"
                 d=""
                 id="id-f85e7931-33c2-40c7-aa6c-4278363918b0" />
            </symbol>
            <symbol
               overflow="visible"
               id="id-ae4c02a5-3fea-43e2-9009-f9350aa73c72">
              <path
                 style="stroke:none"
                 d="m 1.578125,-0.78125 c -0.09375,0.390625 -0.109375,0.46875 -0.90625,0.46875 -0.15625,0 -0.265625,0 -0.265625,0.1875 C 0.40625,0 0.484375,0 0.671875,0 h 3.3125 c 2.0625,0 4.03125,-2.109375 4.03125,-4.28125 0,-1.40625 -0.84375,-2.53125 -2.34375,-2.53125 h -3.34375 c -0.1875,0 -0.296875,0 -0.296875,0.1875 0,0.125 0.078125,0.125 0.28125,0.125 0.125,0 0.3125,0.015625 0.421875,0.015625 0.171875,0.03125 0.21875,0.046875 0.21875,0.171875 0,0.03125 0,0.0625 -0.03125,0.1875 z M 3.734375,-6.125 C 3.828125,-6.46875 3.84375,-6.5 4.28125,-6.5 h 1.0625 c 0.96875,0 1.796875,0.53125 1.796875,1.84375 0,0.484375 -0.1875,2.125 -1.046875,3.21875 -0.28125,0.375 -1.0625,1.125 -2.296875,1.125 h -1.125 c -0.140625,0 -0.15625,0 -0.21875,0 -0.09375,-0.015625 -0.125,-0.03125 -0.125,-0.109375 0,-0.03125 0,-0.046875 0.046875,-0.21875 z m 0,0"
                 id="id-c501f30b-a98b-40fa-a73e-b6a22b964aa4" />
            </symbol>
            <symbol
               overflow="visible"
               id="id-ceb51a01-00c2-4008-8ea4-8abad15d0ee8">
              <path
                 style="stroke:none"
                 d=""
                 id="id-5a704885-c155-4be3-bb72-a9cf948522ac" />
            </symbol>
            <symbol
               overflow="visible"
               id="id-b38c58f8-d3db-47c1-90cb-2ce1e67737bb">
              <path
                 style="stroke:none"
                 d="m 6.84375,-3.265625 c 0.15625,0 0.34375,0 0.34375,-0.1875 C 7.1875,-3.65625 7,-3.65625 6.859375,-3.65625 h -5.96875 c -0.140625,0 -0.328125,0 -0.328125,0.203125 0,0.1875 0.1875,0.1875 0.328125,0.1875 z m 0.015625,1.9375 c 0.140625,0 0.328125,0 0.328125,-0.203125 0,-0.1875 -0.1875,-0.1875 -0.34375,-0.1875 H 0.890625 c -0.140625,0 -0.328125,0 -0.328125,0.1875 0,0.203125 0.1875,0.203125 0.328125,0.203125 z m 0,0"
                 id="id-c8bc60c7-9911-412c-8cdc-92d7fa3829a4" />
            </symbol>
            <symbol
               overflow="visible"
               id="id-be700766-41ae-4fa2-b21b-9ebf240a5815">
              <path
                 style="stroke:none"
                 d="m 4.46875,-2 c 0,-1.1875 -0.8125,-2.1875 -1.890625,-2.1875 -0.46875,0 -0.90625,0.15625 -1.265625,0.515625 V -5.625 c 0.203125,0.0625 0.53125,0.125 0.84375,0.125 1.234375,0 1.9375,-0.90625 1.9375,-1.03125 0,-0.0625 -0.03125,-0.109375 -0.109375,-0.109375 0,0 -0.03125,0 -0.078125,0.03125 C 3.703125,-6.515625 3.21875,-6.3125 2.546875,-6.3125 2.15625,-6.3125 1.6875,-6.390625 1.21875,-6.59375 1.140625,-6.625 1.125,-6.625 1.109375,-6.625 1,-6.625 1,-6.546875 1,-6.390625 V -3.4375 c 0,0.171875 0,0.25 0.140625,0.25 0.078125,0 0.09375,-0.015625 0.140625,-0.078125 C 1.390625,-3.421875 1.75,-3.96875 2.5625,-3.96875 c 0.515625,0 0.765625,0.453125 0.84375,0.640625 0.15625,0.375 0.1875,0.75 0.1875,1.25 0,0.359375 0,0.953125 -0.25,1.375 C 3.109375,-0.3125 2.734375,-0.0625 2.28125,-0.0625 c -0.71875,0 -1.296875,-0.53125 -1.46875,-1.109375 0.03125,0 0.0625,0.015625 0.171875,0.015625 0.328125,0 0.5,-0.25 0.5,-0.484375 0,-0.25 -0.171875,-0.5 -0.5,-0.5 C 0.84375,-2.140625 0.5,-2.0625 0.5,-1.609375 0.5,-0.75 1.1875,0.21875 2.296875,0.21875 3.453125,0.21875 4.46875,-0.734375 4.46875,-2 Z m 0,0"
                 id="id-7bcad569-afaf-4185-94f6-aee31d8cac66" />
            </symbol>
            <symbol
               overflow="visible"
               id="id-18d961c7-46c2-4a06-889e-867b1140879a">
              <path
                 style="stroke:none"
                 d="m 4.578125,-3.1875 c 0,-0.796875 -0.046875,-1.59375 -0.390625,-2.328125 -0.453125,-0.96875 -1.28125,-1.125 -1.6875,-1.125 -0.609375,0 -1.328125,0.265625 -1.75,1.1875 -0.3125,0.6875 -0.359375,1.46875 -0.359375,2.265625 0,0.75 0.03125,1.640625 0.453125,2.40625 0.421875,0.796875 1.15625,1 1.640625,1 0.53125,0 1.296875,-0.203125 1.734375,-1.15625 0.3125,-0.6875 0.359375,-1.46875 0.359375,-2.25 z M 2.484375,0 C 2.09375,0 1.5,-0.25 1.328125,-1.203125 1.21875,-1.796875 1.21875,-2.71875 1.21875,-3.3125 c 0,-0.640625 0,-1.296875 0.078125,-1.828125 0.1875,-1.1875 0.9375,-1.28125 1.1875,-1.28125 0.328125,0 0.984375,0.1875 1.171875,1.171875 0.109375,0.5625 0.109375,1.3125 0.109375,1.9375 0,0.75 0,1.421875 -0.109375,2.0625 C 3.5,-0.296875 2.9375,0 2.484375,0 Z m 0,0"
                 id="id-bae17109-ee50-4f79-aa34-f38d7c98dafe" />
            </symbol>
          </g>
        </defs>
        <g
           id="id-bb14a4cf-dec8-4275-b1f2-1754f9debe9c"
           transform="translate(-149.118,-127.953)">
          <g
             style="fill:#000000;fill-opacity:1"
             id="id-90cb8c69-744a-449b-bf1b-3394bdc3a4aa">
            <g
               transform="translate(148.712,134.765)"
               id="g1549">
              <path
                 style="stroke:none"
                 d="m 1.578125,-0.78125 c -0.09375,0.390625 -0.109375,0.46875 -0.90625,0.46875 -0.15625,0 -0.265625,0 -0.265625,0.1875 C 0.40625,0 0.484375,0 0.671875,0 h 3.3125 c 2.0625,0 4.03125,-2.109375 4.03125,-4.28125 0,-1.40625 -0.84375,-2.53125 -2.34375,-2.53125 h -3.34375 c -0.1875,0 -0.296875,0 -0.296875,0.1875 0,0.125 0.078125,0.125 0.28125,0.125 0.125,0 0.3125,0.015625 0.421875,0.015625 0.171875,0.03125 0.21875,0.046875 0.21875,0.171875 0,0.03125 0,0.0625 -0.03125,0.1875 z M 3.734375,-6.125 C 3.828125,-6.46875 3.84375,-6.5 4.28125,-6.5 h 1.0625 c 0.96875,0 1.796875,0.53125 1.796875,1.84375 0,0.484375 -0.1875,2.125 -1.046875,3.21875 -0.28125,0.375 -1.0625,1.125 -2.296875,1.125 h -1.125 c -0.140625,0 -0.15625,0 -0.21875,0 -0.09375,-0.015625 -0.125,-0.03125 -0.125,-0.109375 0,-0.03125 0,-0.046875 0.046875,-0.21875 z m 0,0"
                 id="id-28d3d3d2-3b1d-461e-88d1-c7b77a1265e7" />
            </g>
          </g>
          <g
             style="fill:#000000;fill-opacity:1"
             id="id-72438390-a355-4867-87ad-e4694e0a2a33">
            <g
               transform="translate(160.005,134.765)"
               id="g1553">
              <path
                 style="stroke:none"
                 d="m 6.84375,-3.265625 c 0.15625,0 0.34375,0 0.34375,-0.1875 C 7.1875,-3.65625 7,-3.65625 6.859375,-3.65625 h -5.96875 c -0.140625,0 -0.328125,0 -0.328125,0.203125 0,0.1875 0.1875,0.1875 0.328125,0.1875 z m 0.015625,1.9375 c 0.140625,0 0.328125,0 0.328125,-0.203125 0,-0.1875 -0.1875,-0.1875 -0.34375,-0.1875 H 0.890625 c -0.140625,0 -0.328125,0 -0.328125,0.1875 0,0.203125 0.1875,0.203125 0.328125,0.203125 z m 0,0"
                 id="id-188e12f7-fabf-4a59-8ad8-37ea7b39a7ad" />
            </g>
          </g>
          <g
             style="fill:#000000;fill-opacity:1"
             id="id-6a39ddfd-3346-4a6a-a174-737f59df9501">
            <g
               transform="translate(170.524,134.765)"
               id="g1557">
              <path
                 style="stroke:none"
                 d="m 4.46875,-2 c 0,-1.1875 -0.8125,-2.1875 -1.890625,-2.1875 -0.46875,0 -0.90625,0.15625 -1.265625,0.515625 V -5.625 c 0.203125,0.0625 0.53125,0.125 0.84375,0.125 1.234375,0 1.9375,-0.90625 1.9375,-1.03125 0,-0.0625 -0.03125,-0.109375 -0.109375,-0.109375 0,0 -0.03125,0 -0.078125,0.03125 C 3.703125,-6.515625 3.21875,-6.3125 2.546875,-6.3125 2.15625,-6.3125 1.6875,-6.390625 1.21875,-6.59375 1.140625,-6.625 1.125,-6.625 1.109375,-6.625 1,-6.625 1,-6.546875 1,-6.390625 V -3.4375 c 0,0.171875 0,0.25 0.140625,0.25 0.078125,0 0.09375,-0.015625 0.140625,-0.078125 C 1.390625,-3.421875 1.75,-3.96875 2.5625,-3.96875 c 0.515625,0 0.765625,0.453125 0.84375,0.640625 0.15625,0.375 0.1875,0.75 0.1875,1.25 0,0.359375 0,0.953125 -0.25,1.375 C 3.109375,-0.3125 2.734375,-0.0625 2.28125,-0.0625 c -0.71875,0 -1.296875,-0.53125 -1.46875,-1.109375 0.03125,0 0.0625,0.015625 0.171875,0.015625 0.328125,0 0.5,-0.25 0.5,-0.484375 0,-0.25 -0.171875,-0.5 -0.5,-0.5 C 0.84375,-2.140625 0.5,-2.0625 0.5,-1.609375 0.5,-0.75 1.1875,0.21875 2.296875,0.21875 3.453125,0.21875 4.46875,-0.734375 4.46875,-2 Z m 0,0"
                 id="id-489b2b1f-1e45-4b47-968b-7e1356522314" />
            </g>
            <g
               transform="translate(175.505,134.765)"
               id="g1560">
              <path
                 style="stroke:none"
                 d="m 4.578125,-3.1875 c 0,-0.796875 -0.046875,-1.59375 -0.390625,-2.328125 -0.453125,-0.96875 -1.28125,-1.125 -1.6875,-1.125 -0.609375,0 -1.328125,0.265625 -1.75,1.1875 -0.3125,0.6875 -0.359375,1.46875 -0.359375,2.265625 0,0.75 0.03125,1.640625 0.453125,2.40625 0.421875,0.796875 1.15625,1 1.640625,1 0.53125,0 1.296875,-0.203125 1.734375,-1.15625 0.3125,-0.6875 0.359375,-1.46875 0.359375,-2.25 z M 2.484375,0 C 2.09375,0 1.5,-0.25 1.328125,-1.203125 1.21875,-1.796875 1.21875,-2.71875 1.21875,-3.3125 c 0,-0.640625 0,-1.296875 0.078125,-1.828125 0.1875,-1.1875 0.9375,-1.28125 1.1875,-1.28125 0.328125,0 0.984375,0.1875 1.171875,1.171875 0.109375,0.5625 0.109375,1.3125 0.109375,1.9375 0,0.75 0,1.421875 -0.109375,2.0625 C 3.5,-0.296875 2.9375,0 2.484375,0 Z m 0,0"
                 id="id-f2ffa057-0a47-47a0-a53f-6d34734aee38" />
            </g>
          </g>
        </g>
      </g>
      <g
         transform="matrix(0.2343599,0,0,0.2343599,42.350314,17.567864)"
         ns4:version="1.3.1"
         ns4:texconverter="pdflatex"
         ns4:pdfconverter="inkscape"
         ns4:text="$\\dfrac{dD}{dt} = 80 \\dfrac{\\text{ft}}{\\text{s}}$\n\n"
         ns4:preamble="/Users/ketiboldiais/Library/Application Support/org.inkscape.Inkscape/config/inkscape/extensions/circuitSymbols/circuitSymbolsPreamble.tex"
         ns4:scale="2.0110554948965156"
         ns4:alignment="middle center"
         ns4:inkscapeversion="1.1"
         ns4:jacobian_sqrt="0.709456"
         id="g1407">
        <defs
           id="id-f4705969-0ef4-4c88-a6b6-07722e0983f1">
          <g
             id="id-b4cdc5aa-1c15-491e-bae9-beeb15ecab52">
            <symbol
               overflow="visible"
               id="id-25914d28-ef1c-48aa-8c28-8245270b7ba1">
              <path
                 style="stroke:none"
                 d=""
                 id="id-48bfacf9-af43-4e6c-b79b-fa8eaf380749" />
            </symbol>
            <symbol
               overflow="visible"
               id="id-42e77aa7-aa31-468f-89ea-385d7cf9b5c4">
              <path
                 style="stroke:none"
                 d="m 5.140625,-6.8125 c 0,0 0,-0.109375 -0.125,-0.109375 -0.15625,0 -1.09375,0.09375 -1.265625,0.109375 -0.078125,0.015625 -0.140625,0.0625 -0.140625,0.1875 0,0.125 0.09375,0.125 0.234375,0.125 0.484375,0 0.5,0.0625 0.5,0.171875 L 4.3125,-6.125 3.71875,-3.765625 C 3.53125,-4.140625 3.25,-4.40625 2.796875,-4.40625 c -1.15625,0 -2.390625,1.46875 -2.390625,2.921875 0,0.9375 0.546875,1.59375 1.3125,1.59375 0.203125,0 0.703125,-0.046875 1.296875,-0.75 0.078125,0.421875 0.4375,0.75 0.90625,0.75 0.359375,0 0.578125,-0.234375 0.75,-0.546875 0.15625,-0.359375 0.296875,-0.96875 0.296875,-0.984375 0,-0.109375 -0.09375,-0.109375 -0.125,-0.109375 -0.09375,0 -0.109375,0.046875 -0.140625,0.1875 -0.171875,0.640625 -0.34375,1.234375 -0.75,1.234375 -0.28125,0 -0.296875,-0.265625 -0.296875,-0.453125 0,-0.25 0.015625,-0.3125 0.046875,-0.484375 z m -2.0625,5.625 C 3.015625,-1 3.015625,-0.984375 2.875,-0.8125 2.4375,-0.265625 2.03125,-0.109375 1.75,-0.109375 c -0.5,0 -0.640625,-0.546875 -0.640625,-0.9375 0,-0.5 0.3125,-1.71875 0.546875,-2.1875 0.3125,-0.578125 0.75,-0.953125 1.15625,-0.953125 0.640625,0 0.78125,0.8125 0.78125,0.875 0,0.0625 -0.015625,0.125 -0.03125,0.171875 z m 0,0"
                 id="id-5b089be2-df74-43bb-a445-97d5f68a8732" />
            </symbol>
            <symbol
               overflow="visible"
               id="id-05255172-e014-4861-9cb0-f2d2a8900c09">
              <path
                 style="stroke:none"
                 d="m 1.578125,-0.78125 c -0.09375,0.390625 -0.109375,0.46875 -0.90625,0.46875 -0.15625,0 -0.265625,0 -0.265625,0.1875 C 0.40625,0 0.484375,0 0.671875,0 h 3.3125 c 2.0625,0 4.03125,-2.109375 4.03125,-4.28125 0,-1.40625 -0.84375,-2.53125 -2.34375,-2.53125 h -3.34375 c -0.1875,0 -0.296875,0 -0.296875,0.1875 0,0.125 0.078125,0.125 0.28125,0.125 0.125,0 0.3125,0.015625 0.421875,0.015625 0.171875,0.03125 0.21875,0.046875 0.21875,0.171875 0,0.03125 0,0.0625 -0.03125,0.1875 z M 3.734375,-6.125 C 3.828125,-6.46875 3.84375,-6.5 4.28125,-6.5 h 1.0625 c 0.96875,0 1.796875,0.53125 1.796875,1.84375 0,0.484375 -0.1875,2.125 -1.046875,3.21875 -0.28125,0.375 -1.0625,1.125 -2.296875,1.125 h -1.125 c -0.140625,0 -0.15625,0 -0.21875,0 -0.09375,-0.015625 -0.125,-0.03125 -0.125,-0.109375 0,-0.03125 0,-0.046875 0.046875,-0.21875 z m 0,0"
                 id="id-663d6958-3570-4212-bee4-e3f9b44a7969" />
            </symbol>
            <symbol
               overflow="visible"
               id="id-824732a2-ddd6-4081-81fe-2c2966983e9a">
              <path
                 style="stroke:none"
                 d="m 2.046875,-3.984375 h 0.9375 c 0.203125,0 0.3125,0 0.3125,-0.203125 0,-0.109375 -0.109375,-0.109375 -0.28125,-0.109375 h -0.875 C 2.5,-5.71875 2.546875,-5.90625 2.546875,-5.96875 c 0,-0.171875 -0.125,-0.265625 -0.296875,-0.265625 -0.03125,0 -0.3125,0 -0.390625,0.359375 L 1.46875,-4.296875 h -0.9375 c -0.203125,0 -0.296875,0 -0.296875,0.1875 0,0.125 0.078125,0.125 0.28125,0.125 h 0.875 C 0.671875,-1.15625 0.625,-0.984375 0.625,-0.8125 0.625,-0.265625 1,0.109375 1.546875,0.109375 2.5625,0.109375 3.125,-1.34375 3.125,-1.421875 3.125,-1.53125 3.046875,-1.53125 3.015625,-1.53125 2.921875,-1.53125 2.90625,-1.5 2.859375,-1.390625 2.4375,-0.34375 1.90625,-0.109375 1.5625,-0.109375 c -0.203125,0 -0.3125,-0.125 -0.3125,-0.453125 0,-0.25 0.03125,-0.3125 0.0625,-0.484375 z m 0,0"
                 id="id-c1cef0c4-8e7c-452b-8252-53b8d5317d2b" />
            </symbol>
            <symbol
               overflow="visible"
               id="id-921462fb-9af5-4f3d-9739-d2fbf11d176b">
              <path
                 style="stroke:none"
                 d=""
                 id="id-2184ecc2-140b-417c-9f31-d16adf20e9fa" />
            </symbol>
            <symbol
               overflow="visible"
               id="id-b7835a96-6e3c-4498-a793-3954b5c3ca2a">
              <path
                 style="stroke:none"
                 d="m 6.84375,-3.265625 c 0.15625,0 0.34375,0 0.34375,-0.1875 C 7.1875,-3.65625 7,-3.65625 6.859375,-3.65625 h -5.96875 c -0.140625,0 -0.328125,0 -0.328125,0.203125 0,0.1875 0.1875,0.1875 0.328125,0.1875 z m 0.015625,1.9375 c 0.140625,0 0.328125,0 0.328125,-0.203125 0,-0.1875 -0.1875,-0.1875 -0.34375,-0.1875 H 0.890625 c -0.140625,0 -0.328125,0 -0.328125,0.1875 0,0.203125 0.1875,0.203125 0.328125,0.203125 z m 0,0"
                 id="id-254ac1e9-002b-4812-a3a7-b36300e539a0" />
            </symbol>
            <symbol
               overflow="visible"
               id="id-adb0186a-66f0-40e0-85b8-0e1d8ed273da">
              <path
                 style="stroke:none"
                 d="m 1.625,-4.5625 c -0.453125,-0.296875 -0.5,-0.625 -0.5,-0.796875 0,-0.609375 0.65625,-1.03125 1.359375,-1.03125 0.71875,0 1.359375,0.515625 1.359375,1.234375 0,0.578125 -0.390625,1.046875 -0.984375,1.390625 z m 1.453125,0.953125 C 3.796875,-3.984375 4.28125,-4.5 4.28125,-5.15625 c 0,-0.921875 -0.875,-1.484375 -1.78125,-1.484375 -1,0 -1.8125,0.734375 -1.8125,1.671875 0,0.171875 0.015625,0.625 0.4375,1.09375 0.109375,0.109375 0.484375,0.359375 0.734375,0.53125 C 1.28125,-3.046875 0.421875,-2.5 0.421875,-1.5 c 0,1.046875 1.015625,1.71875 2.0625,1.71875 1.125,0 2.078125,-0.828125 2.078125,-1.890625 0,-0.359375 -0.109375,-0.8125 -0.5,-1.234375 C 3.875,-3.109375 3.71875,-3.203125 3.078125,-3.609375 Z m -1,0.421875 1.234375,0.78125 c 0.28125,0.1875 0.75,0.484375 0.75,1.09375 0,0.734375 -0.75,1.25 -1.5625,1.25 -0.859375,0 -1.578125,-0.609375 -1.578125,-1.4375 0,-0.578125 0.3125,-1.21875 1.15625,-1.6875 z m 0,0"
                 id="id-5170ce77-63cb-445f-b434-cd717a2c0ea7" />
            </symbol>
            <symbol
               overflow="visible"
               id="id-48894879-6cf0-4ea1-8763-763c1f102128">
              <path
                 style="stroke:none"
                 d="m 4.578125,-3.1875 c 0,-0.796875 -0.046875,-1.59375 -0.390625,-2.328125 -0.453125,-0.96875 -1.28125,-1.125 -1.6875,-1.125 -0.609375,0 -1.328125,0.265625 -1.75,1.1875 -0.3125,0.6875 -0.359375,1.46875 -0.359375,2.265625 0,0.75 0.03125,1.640625 0.453125,2.40625 0.421875,0.796875 1.15625,1 1.640625,1 0.53125,0 1.296875,-0.203125 1.734375,-1.15625 0.3125,-0.6875 0.359375,-1.46875 0.359375,-2.25 z M 2.484375,0 C 2.09375,0 1.5,-0.25 1.328125,-1.203125 1.21875,-1.796875 1.21875,-2.71875 1.21875,-3.3125 c 0,-0.640625 0,-1.296875 0.078125,-1.828125 0.1875,-1.1875 0.9375,-1.28125 1.1875,-1.28125 0.328125,0 0.984375,0.1875 1.171875,1.171875 0.109375,0.5625 0.109375,1.3125 0.109375,1.9375 0,0.75 0,1.421875 -0.109375,2.0625 C 3.5,-0.296875 2.9375,0 2.484375,0 Z m 0,0"
                 id="id-678f7daf-bf85-4dab-91e3-a9d9112f0d43" />
            </symbol>
            <symbol
               overflow="visible"
               id="id-be6e6e77-8b7a-4ff7-9126-211895156761">
              <path
                 style="stroke:none"
                 d="m 1.75,-4.296875 v -1.15625 c 0,-0.875 0.46875,-1.359375 0.90625,-1.359375 0.03125,0 0.1875,0 0.328125,0.078125 C 2.875,-6.703125 2.6875,-6.5625 2.6875,-6.3125 c 0,0.21875 0.15625,0.421875 0.4375,0.421875 0.28125,0 0.4375,-0.203125 0.4375,-0.4375 0,-0.375 -0.375,-0.703125 -0.90625,-0.703125 -0.6875,0 -1.546875,0.53125 -1.546875,1.59375 v 1.140625 h -0.78125 v 0.3125 h 0.78125 V -0.75 C 1.109375,-0.3125 1,-0.3125 0.34375,-0.3125 V 0 c 0.390625,-0.015625 0.859375,-0.03125 1.125,-0.03125 0.40625,0 0.875,0 1.265625,0.03125 V -0.3125 H 2.53125 c -0.734375,0 -0.75,-0.109375 -0.75,-0.46875 v -3.203125 h 1.125 v -0.3125 z m 0,0"
                 id="id-9a25725f-39d9-42e6-8194-e67f33ebda48" />
            </symbol>
            <symbol
               overflow="visible"
               id="id-f25270ca-8b51-4565-a19f-4a3269452f62">
              <path
                 style="stroke:none"
                 d="m 1.71875,-3.984375 h 1.4375 v -0.3125 H 1.71875 V -6.125 h -0.25 c 0,0.8125 -0.296875,1.875 -1.28125,1.921875 v 0.21875 h 0.84375 v 2.75 c 0,1.21875 0.9375,1.34375 1.296875,1.34375 0.703125,0 0.984375,-0.703125 0.984375,-1.34375 v -0.5625 h -0.25 V -1.25 c 0,0.734375 -0.296875,1.109375 -0.671875,1.109375 -0.671875,0 -0.671875,-0.90625 -0.671875,-1.078125 z m 0,0"
                 id="id-c92a19e2-c610-4cb5-bad4-f7ce43696659" />
            </symbol>
            <symbol
               overflow="visible"
               id="id-db9a4ddc-e41d-48e1-84a9-7eaa8646010f">
              <path
                 style="stroke:none"
                 d="m 2.078125,-1.9375 c 0.21875,0.046875 1.03125,0.203125 1.03125,0.921875 0,0.5 -0.34375,0.90625 -1.125,0.90625 -0.84375,0 -1.203125,-0.5625 -1.390625,-1.421875 C 0.5625,-1.65625 0.5625,-1.6875 0.453125,-1.6875 c -0.125,0 -0.125,0.0625 -0.125,0.234375 V -0.125 c 0,0.171875 0,0.234375 0.109375,0.234375 0.046875,0 0.0625,-0.015625 0.25,-0.203125 0.015625,-0.015625 0.015625,-0.03125 0.203125,-0.21875 0.4375,0.40625 0.890625,0.421875 1.09375,0.421875 1.140625,0 1.609375,-0.671875 1.609375,-1.390625 0,-0.515625 -0.296875,-0.828125 -0.421875,-0.9375 C 2.84375,-2.546875 2.453125,-2.625 2.03125,-2.703125 1.46875,-2.8125 0.8125,-2.9375 0.8125,-3.515625 c 0,-0.359375 0.25,-0.765625 1.109375,-0.765625 1.09375,0 1.15625,0.90625 1.171875,1.203125 0,0.09375 0.09375,0.09375 0.109375,0.09375 0.140625,0 0.140625,-0.046875 0.140625,-0.234375 v -1.015625 c 0,-0.15625 0,-0.234375 -0.109375,-0.234375 -0.046875,0 -0.078125,0 -0.203125,0.125 -0.03125,0.03125 -0.125,0.125 -0.171875,0.15625 -0.375,-0.28125 -0.78125,-0.28125 -0.9375,-0.28125 -1.21875,0 -1.59375,0.671875 -1.59375,1.234375 0,0.34375 0.15625,0.625 0.421875,0.84375 0.328125,0.25 0.609375,0.3125 1.328125,0.453125 z m 0,0"
                 id="id-95161c87-881d-4c49-b2b0-93956495c5ec" />
            </symbol>
          </g>
        </defs>
        <g
           id="id-3a44e2c1-e932-4157-b7a7-fce8799c5233"
           transform="translate(-149.906,-124.689)">
          <g
             style="fill:#000000;fill-opacity:1"
             id="id-8ff71814-8581-47ac-a431-47bba13dbf18">
            <g
               transform="translate(149.908,131.72)"
               id="g1776">
              <path
                 style="stroke:none"
                 d="m 5.140625,-6.8125 c 0,0 0,-0.109375 -0.125,-0.109375 -0.15625,0 -1.09375,0.09375 -1.265625,0.109375 -0.078125,0.015625 -0.140625,0.0625 -0.140625,0.1875 0,0.125 0.09375,0.125 0.234375,0.125 0.484375,0 0.5,0.0625 0.5,0.171875 L 4.3125,-6.125 3.71875,-3.765625 C 3.53125,-4.140625 3.25,-4.40625 2.796875,-4.40625 c -1.15625,0 -2.390625,1.46875 -2.390625,2.921875 0,0.9375 0.546875,1.59375 1.3125,1.59375 0.203125,0 0.703125,-0.046875 1.296875,-0.75 0.078125,0.421875 0.4375,0.75 0.90625,0.75 0.359375,0 0.578125,-0.234375 0.75,-0.546875 0.15625,-0.359375 0.296875,-0.96875 0.296875,-0.984375 0,-0.109375 -0.09375,-0.109375 -0.125,-0.109375 -0.09375,0 -0.109375,0.046875 -0.140625,0.1875 -0.171875,0.640625 -0.34375,1.234375 -0.75,1.234375 -0.28125,0 -0.296875,-0.265625 -0.296875,-0.453125 0,-0.25 0.015625,-0.3125 0.046875,-0.484375 z m -2.0625,5.625 C 3.015625,-1 3.015625,-0.984375 2.875,-0.8125 2.4375,-0.265625 2.03125,-0.109375 1.75,-0.109375 c -0.5,0 -0.640625,-0.546875 -0.640625,-0.9375 0,-0.5 0.3125,-1.71875 0.546875,-2.1875 0.3125,-0.578125 0.75,-0.953125 1.15625,-0.953125 0.640625,0 0.78125,0.8125 0.78125,0.875 0,0.0625 -0.015625,0.125 -0.03125,0.171875 z m 0,0"
                 id="id-b65a24fd-b485-4295-ade6-87e7bd22b8ce" />
            </g>
            <g
               transform="translate(155.094,131.72)"
               id="g1779">
              <path
                 style="stroke:none"
                 d="m 1.578125,-0.78125 c -0.09375,0.390625 -0.109375,0.46875 -0.90625,0.46875 -0.15625,0 -0.265625,0 -0.265625,0.1875 C 0.40625,0 0.484375,0 0.671875,0 h 3.3125 c 2.0625,0 4.03125,-2.109375 4.03125,-4.28125 0,-1.40625 -0.84375,-2.53125 -2.34375,-2.53125 h -3.34375 c -0.1875,0 -0.296875,0 -0.296875,0.1875 0,0.125 0.078125,0.125 0.28125,0.125 0.125,0 0.3125,0.015625 0.421875,0.015625 0.171875,0.03125 0.21875,0.046875 0.21875,0.171875 0,0.03125 0,0.0625 -0.03125,0.1875 z M 3.734375,-6.125 C 3.828125,-6.46875 3.84375,-6.5 4.28125,-6.5 h 1.0625 c 0.96875,0 1.796875,0.53125 1.796875,1.84375 0,0.484375 -0.1875,2.125 -1.046875,3.21875 -0.28125,0.375 -1.0625,1.125 -2.296875,1.125 h -1.125 c -0.140625,0 -0.15625,0 -0.21875,0 -0.09375,-0.015625 -0.125,-0.03125 -0.125,-0.109375 0,-0.03125 0,-0.046875 0.046875,-0.21875 z m 0,0"
                 id="id-bf4e78c1-2630-40be-a1da-2411742077a6" />
            </g>
          </g>
          <path
             style="fill:none;stroke:#000000;stroke-width:0.398;stroke-linecap:butt;stroke-linejoin:miter;stroke-miterlimit:10;stroke-opacity:1"
             d="M -0.00175,0.00125 H 13.709187"
             transform="matrix(1,0,0,-1,149.908,135.97)"
             id="id-4fedc000-b192-49d7-9143-b5e080947280" />
          <g
             style="fill:#000000;fill-opacity:1"
             id="id-519c2efe-3427-417b-bdf2-68e84f536bcb">
            <g
               transform="translate(152.372,145.294)"
               id="g1784">
              <path
                 style="stroke:none"
                 d="m 5.140625,-6.8125 c 0,0 0,-0.109375 -0.125,-0.109375 -0.15625,0 -1.09375,0.09375 -1.265625,0.109375 -0.078125,0.015625 -0.140625,0.0625 -0.140625,0.1875 0,0.125 0.09375,0.125 0.234375,0.125 0.484375,0 0.5,0.0625 0.5,0.171875 L 4.3125,-6.125 3.71875,-3.765625 C 3.53125,-4.140625 3.25,-4.40625 2.796875,-4.40625 c -1.15625,0 -2.390625,1.46875 -2.390625,2.921875 0,0.9375 0.546875,1.59375 1.3125,1.59375 0.203125,0 0.703125,-0.046875 1.296875,-0.75 0.078125,0.421875 0.4375,0.75 0.90625,0.75 0.359375,0 0.578125,-0.234375 0.75,-0.546875 0.15625,-0.359375 0.296875,-0.96875 0.296875,-0.984375 0,-0.109375 -0.09375,-0.109375 -0.125,-0.109375 -0.09375,0 -0.109375,0.046875 -0.140625,0.1875 -0.171875,0.640625 -0.34375,1.234375 -0.75,1.234375 -0.28125,0 -0.296875,-0.265625 -0.296875,-0.453125 0,-0.25 0.015625,-0.3125 0.046875,-0.484375 z m -2.0625,5.625 C 3.015625,-1 3.015625,-0.984375 2.875,-0.8125 2.4375,-0.265625 2.03125,-0.109375 1.75,-0.109375 c -0.5,0 -0.640625,-0.546875 -0.640625,-0.9375 0,-0.5 0.3125,-1.71875 0.546875,-2.1875 0.3125,-0.578125 0.75,-0.953125 1.15625,-0.953125 0.640625,0 0.78125,0.8125 0.78125,0.875 0,0.0625 -0.015625,0.125 -0.03125,0.171875 z m 0,0"
                 id="id-1c6e443b-576e-4e14-a9bd-3cd1657da673" />
            </g>
            <g
               transform="translate(157.558,145.294)"
               id="g1787">
              <path
                 style="stroke:none"
                 d="m 2.046875,-3.984375 h 0.9375 c 0.203125,0 0.3125,0 0.3125,-0.203125 0,-0.109375 -0.109375,-0.109375 -0.28125,-0.109375 h -0.875 C 2.5,-5.71875 2.546875,-5.90625 2.546875,-5.96875 c 0,-0.171875 -0.125,-0.265625 -0.296875,-0.265625 -0.03125,0 -0.3125,0 -0.390625,0.359375 L 1.46875,-4.296875 h -0.9375 c -0.203125,0 -0.296875,0 -0.296875,0.1875 0,0.125 0.078125,0.125 0.28125,0.125 h 0.875 C 0.671875,-1.15625 0.625,-0.984375 0.625,-0.8125 0.625,-0.265625 1,0.109375 1.546875,0.109375 2.5625,0.109375 3.125,-1.34375 3.125,-1.421875 3.125,-1.53125 3.046875,-1.53125 3.015625,-1.53125 2.921875,-1.53125 2.90625,-1.5 2.859375,-1.390625 2.4375,-0.34375 1.90625,-0.109375 1.5625,-0.109375 c -0.203125,0 -0.3125,-0.125 -0.3125,-0.453125 0,-0.25 0.03125,-0.3125 0.0625,-0.484375 z m 0,0"
                 id="id-97765824-73e6-4a99-bce2-b06474dfc82f" />
            </g>
          </g>
          <g
             style="fill:#000000;fill-opacity:1"
             id="id-6c8aea35-cccb-46f8-a7f9-0b365e697769">
            <g
               transform="translate(167.581,138.46)"
               id="g1791">
              <path
                 style="stroke:none"
                 d="m 6.84375,-3.265625 c 0.15625,0 0.34375,0 0.34375,-0.1875 C 7.1875,-3.65625 7,-3.65625 6.859375,-3.65625 h -5.96875 c -0.140625,0 -0.328125,0 -0.328125,0.203125 0,0.1875 0.1875,0.1875 0.328125,0.1875 z m 0.015625,1.9375 c 0.140625,0 0.328125,0 0.328125,-0.203125 0,-0.1875 -0.1875,-0.1875 -0.34375,-0.1875 H 0.890625 c -0.140625,0 -0.328125,0 -0.328125,0.1875 0,0.203125 0.1875,0.203125 0.328125,0.203125 z m 0,0"
                 id="id-d1214616-c80e-42cf-b9bb-7fb16523d1d6" />
            </g>
          </g>
          <g
             style="fill:#000000;fill-opacity:1"
             id="id-843475d9-d738-4b53-b18b-02c78bf51ce8">
            <g
               transform="translate(178.1,138.46)"
               id="g1795">
              <path
                 style="stroke:none"
                 d="m 1.625,-4.5625 c -0.453125,-0.296875 -0.5,-0.625 -0.5,-0.796875 0,-0.609375 0.65625,-1.03125 1.359375,-1.03125 0.71875,0 1.359375,0.515625 1.359375,1.234375 0,0.578125 -0.390625,1.046875 -0.984375,1.390625 z m 1.453125,0.953125 C 3.796875,-3.984375 4.28125,-4.5 4.28125,-5.15625 c 0,-0.921875 -0.875,-1.484375 -1.78125,-1.484375 -1,0 -1.8125,0.734375 -1.8125,1.671875 0,0.171875 0.015625,0.625 0.4375,1.09375 0.109375,0.109375 0.484375,0.359375 0.734375,0.53125 C 1.28125,-3.046875 0.421875,-2.5 0.421875,-1.5 c 0,1.046875 1.015625,1.71875 2.0625,1.71875 1.125,0 2.078125,-0.828125 2.078125,-1.890625 0,-0.359375 -0.109375,-0.8125 -0.5,-1.234375 C 3.875,-3.109375 3.71875,-3.203125 3.078125,-3.609375 Z m -1,0.421875 1.234375,0.78125 c 0.28125,0.1875 0.75,0.484375 0.75,1.09375 0,0.734375 -0.75,1.25 -1.5625,1.25 -0.859375,0 -1.578125,-0.609375 -1.578125,-1.4375 0,-0.578125 0.3125,-1.21875 1.15625,-1.6875 z m 0,0"
                 id="id-be2ce43a-7e31-4c9f-88fc-0a01f76c5a83" />
            </g>
            <g
               transform="translate(183.081,138.46)"
               id="g1798">
              <path
                 style="stroke:none"
                 d="m 4.578125,-3.1875 c 0,-0.796875 -0.046875,-1.59375 -0.390625,-2.328125 -0.453125,-0.96875 -1.28125,-1.125 -1.6875,-1.125 -0.609375,0 -1.328125,0.265625 -1.75,1.1875 -0.3125,0.6875 -0.359375,1.46875 -0.359375,2.265625 0,0.75 0.03125,1.640625 0.453125,2.40625 0.421875,0.796875 1.15625,1 1.640625,1 0.53125,0 1.296875,-0.203125 1.734375,-1.15625 0.3125,-0.6875 0.359375,-1.46875 0.359375,-2.25 z M 2.484375,0 C 2.09375,0 1.5,-0.25 1.328125,-1.203125 1.21875,-1.796875 1.21875,-2.71875 1.21875,-3.3125 c 0,-0.640625 0,-1.296875 0.078125,-1.828125 0.1875,-1.1875 0.9375,-1.28125 1.1875,-1.28125 0.328125,0 0.984375,0.1875 1.171875,1.171875 0.109375,0.5625 0.109375,1.3125 0.109375,1.9375 0,0.75 0,1.421875 -0.109375,2.0625 C 3.5,-0.296875 2.9375,0 2.484375,0 Z m 0,0"
                 id="id-94054843-58b0-4eda-a980-87b432d2577d" />
            </g>
          </g>
          <g
             style="fill:#000000;fill-opacity:1"
             id="id-4ddb0f61-53c6-49d6-93bb-dde00b2224b3">
            <g
               transform="translate(189.255,131.72)"
               id="g1802">
              <path
                 style="stroke:none"
                 d="m 1.75,-4.296875 v -1.15625 c 0,-0.875 0.46875,-1.359375 0.90625,-1.359375 0.03125,0 0.1875,0 0.328125,0.078125 C 2.875,-6.703125 2.6875,-6.5625 2.6875,-6.3125 c 0,0.21875 0.15625,0.421875 0.4375,0.421875 0.28125,0 0.4375,-0.203125 0.4375,-0.4375 0,-0.375 -0.375,-0.703125 -0.90625,-0.703125 -0.6875,0 -1.546875,0.53125 -1.546875,1.59375 v 1.140625 h -0.78125 v 0.3125 h 0.78125 V -0.75 C 1.109375,-0.3125 1,-0.3125 0.34375,-0.3125 V 0 c 0.390625,-0.015625 0.859375,-0.03125 1.125,-0.03125 0.40625,0 0.875,0 1.265625,0.03125 V -0.3125 H 2.53125 c -0.734375,0 -0.75,-0.109375 -0.75,-0.46875 v -3.203125 h 1.125 v -0.3125 z m 0,0"
                 id="id-a519f15c-07ae-41b9-aebc-679b308f755e" />
            </g>
            <g
               transform="translate(192.3,131.72)"
               id="g1805">
              <path
                 style="stroke:none"
                 d="m 1.71875,-3.984375 h 1.4375 v -0.3125 H 1.71875 V -6.125 h -0.25 c 0,0.8125 -0.296875,1.875 -1.28125,1.921875 v 0.21875 h 0.84375 v 2.75 c 0,1.21875 0.9375,1.34375 1.296875,1.34375 0.703125,0 0.984375,-0.703125 0.984375,-1.34375 v -0.5625 h -0.25 V -1.25 c 0,0.734375 -0.296875,1.109375 -0.671875,1.109375 -0.671875,0 -0.671875,-0.90625 -0.671875,-1.078125 z m 0,0"
                 id="id-f4660b1d-bf91-4d5e-9b64-2aa2c7cb57a1" />
            </g>
          </g>
          <path
             style="fill:none;stroke:#000000;stroke-width:0.398;stroke-linecap:butt;stroke-linejoin:miter;stroke-miterlimit:10;stroke-opacity:1"
             d="M -0.00109375,0.00125 H 6.920781"
             transform="matrix(1,0,0,-1,189.255,135.97)"
             id="id-6833f3ef-abed-464d-81f1-e91f805bcf6e" />
          <g
             style="fill:#000000;fill-opacity:1"
             id="id-5ba6ebec-a4a6-4dbc-af8c-94292fed29e8">
            <g
               transform="translate(190.75,145.294)"
               id="g1810">
              <path
                 style="stroke:none"
                 d="m 2.078125,-1.9375 c 0.21875,0.046875 1.03125,0.203125 1.03125,0.921875 0,0.5 -0.34375,0.90625 -1.125,0.90625 -0.84375,0 -1.203125,-0.5625 -1.390625,-1.421875 C 0.5625,-1.65625 0.5625,-1.6875 0.453125,-1.6875 c -0.125,0 -0.125,0.0625 -0.125,0.234375 V -0.125 c 0,0.171875 0,0.234375 0.109375,0.234375 0.046875,0 0.0625,-0.015625 0.25,-0.203125 0.015625,-0.015625 0.015625,-0.03125 0.203125,-0.21875 0.4375,0.40625 0.890625,0.421875 1.09375,0.421875 1.140625,0 1.609375,-0.671875 1.609375,-1.390625 0,-0.515625 -0.296875,-0.828125 -0.421875,-0.9375 C 2.84375,-2.546875 2.453125,-2.625 2.03125,-2.703125 1.46875,-2.8125 0.8125,-2.9375 0.8125,-3.515625 c 0,-0.359375 0.25,-0.765625 1.109375,-0.765625 1.09375,0 1.15625,0.90625 1.171875,1.203125 0,0.09375 0.09375,0.09375 0.109375,0.09375 0.140625,0 0.140625,-0.046875 0.140625,-0.234375 v -1.015625 c 0,-0.15625 0,-0.234375 -0.109375,-0.234375 -0.046875,0 -0.078125,0 -0.203125,0.125 -0.03125,0.03125 -0.125,0.125 -0.171875,0.15625 -0.375,-0.28125 -0.78125,-0.28125 -0.9375,-0.28125 -1.21875,0 -1.59375,0.671875 -1.59375,1.234375 0,0.34375 0.15625,0.625 0.421875,0.84375 0.328125,0.25 0.609375,0.3125 1.328125,0.453125 z m 0,0"
                 id="id-3c344030-ddcc-4212-bb0d-c7fc3ac1d892" />
            </g>
          </g>
        </g>
      </g>
    </g>
    <path
       style="fill:none;stroke:#000000;stroke-width:0.264583px;stroke-linecap:butt;stroke-linejoin:miter;stroke-opacity:1;marker-end:url(#TriangleOutM)"
       d="m 42.597917,26.722917 h -5.55625"
       id="path1082" />
  </g>
</svg>
