<?xml version="1.0" encoding="UTF-8" standalone="no"?>
<!-- Created with Inkscape (http://www.inkscape.org/) -->

<svg
   width="99.532867mm"
   height="23.020851mm"
   viewBox="0 0 99.532865 23.020851"
   version="1.1"
   id="svg5"
   inkscape:version="1.1 (c4e8f9e, 2021-05-24)"
   sodipodi:docname="state_sequential.svg"
   xmlns:inkscape="http://www.inkscape.org/namespaces/inkscape"
   xmlns:sodipodi="http://sodipodi.sourceforge.net/DTD/sodipodi-0.dtd"
   xmlns="http://www.w3.org/2000/svg"
   xmlns:svg="http://www.w3.org/2000/svg">
  <sodipodi:namedview
     id="namedview7"
     pagecolor="#ffffff"
     bordercolor="#666666"
     borderopacity="1.0"
     inkscape:pageshadow="2"
     inkscape:pageopacity="0.0"
     inkscape:pagecheckerboard="0"
     inkscape:document-units="mm"
     showgrid="false"
     inkscape:zoom="1.640333"
     inkscape:cx="249.64443"
     inkscape:cy="55.171724"
     inkscape:window-width="1312"
     inkscape:window-height="847"
     inkscape:window-x="1948"
     inkscape:window-y="25"
     inkscape:window-maximized="0"
     inkscape:current-layer="layer1">
    <inkscape:grid
       type="xygrid"
       id="grid824"
       originx="-13.047338"
       originy="-168.93436" />
  </sodipodi:namedview>
  <defs
     id="defs2">
    <marker
       style="overflow:visible"
       id="TriangleOutL"
       refX="0"
       refY="0"
       orient="auto"
       inkscape:stockid="TriangleOutL"
       inkscape:isstock="true">
      <path
         transform="scale(0.8)"
         style="fill:context-stroke;fill-rule:evenodd;stroke:context-stroke;stroke-width:1pt"
         d="M 5.77,0 -2.88,5 V -5 Z"
         id="path5370" />
    </marker>
    <marker
       style="overflow:visible"
       id="Arrow1Lstart"
       refX="0"
       refY="0"
       orient="auto"
       inkscape:stockid="Arrow1Lstart"
       inkscape:isstock="true">
      <path
         transform="matrix(0.8,0,0,0.8,10,0)"
         style="fill:context-stroke;fill-rule:evenodd;stroke:context-stroke;stroke-width:1pt"
         d="M 0,0 5,-5 -12.5,0 5,5 Z"
         id="path981" />
    </marker>
    <defs
       id="id-c22b11a5-c1f7-4641-8e76-6192a15b5ef5">
      <g
         id="id-9be74896-2a9f-47f9-ba7b-dbe027348f00">
        <symbol
           overflow="visible"
           id="id-f0f9d9b9-d6d7-4ffd-8678-be4c945709c2">
          <path
             style="stroke:none;stroke-width:0"
             d=""
             id="id-82f4be1b-006b-4d98-827d-4d4b76de2628" />
        </symbol>
        <symbol
           overflow="visible"
           id="id-dbf2efd0-766e-4702-a6b6-2740aa2d9e39">
          <path
             style="stroke:none;stroke-width:0"
             d="M 1.671875,-3.3125 V -4.40625 L 0.28125,-4.296875 v 0.3125 c 0.703125,0 0.78125,0.0625 0.78125,0.5625 V -0.75 c 0,0.4375 -0.109375,0.4375 -0.78125,0.4375 V 0 c 0.390625,-0.015625 0.859375,-0.03125 1.140625,-0.03125 0.390625,0 0.859375,0 1.265625,0.03125 V -0.3125 H 2.46875 c -0.734375,0 -0.75,-0.109375 -0.75,-0.46875 V -2.3125 c 0,-0.984375 0.421875,-1.875 1.171875,-1.875 0.0625,0 0.09375,0 0.109375,0.015625 -0.03125,0 -0.234375,0.125 -0.234375,0.390625 0,0.265625 0.21875,0.421875 0.4375,0.421875 0.171875,0 0.421875,-0.125 0.421875,-0.4375 0,-0.3125 -0.3125,-0.609375 -0.734375,-0.609375 -0.734375,0 -1.09375,0.671875 -1.21875,1.09375 z m 0,0"
             id="id-906b0b98-ff90-48c5-a229-26571e6d2a45" />
        </symbol>
        <symbol
           overflow="visible"
           id="id-5228e313-bc6e-40a4-95ed-ae5f3a3e8db0">
          <path
             style="stroke:none;stroke-width:0"
             d="M 1.109375,-2.515625 C 1.171875,-4 2.015625,-4.25 2.359375,-4.25 c 1.015625,0 1.125,1.34375 1.125,1.734375 z m 0,0.21875 h 2.78125 c 0.21875,0 0.25,0 0.25,-0.21875 0,-0.984375 -0.546875,-1.953125 -1.78125,-1.953125 -1.15625,0 -2.078125,1.03125 -2.078125,2.28125 0,1.328125 1.046875,2.296875 2.1875,2.296875 C 3.6875,0.109375 4.140625,-1 4.140625,-1.1875 4.140625,-1.28125 4.0625,-1.3125 4,-1.3125 c -0.078125,0 -0.109375,0.0625 -0.125,0.140625 -0.34375,1.03125 -1.25,1.03125 -1.34375,1.03125 -0.5,0 -0.890625,-0.296875 -1.125,-0.671875 -0.296875,-0.46875 -0.296875,-1.125 -0.296875,-1.484375 z m 0,0"
             id="id-0ab744d8-c993-425e-85de-f22068684302" />
        </symbol>
        <symbol
           overflow="visible"
           id="id-10093c81-a50a-488d-a951-388c9a4ae594">
          <path
             style="stroke:none;stroke-width:0"
             d="m 3.3125,-0.75 c 0.046875,0.390625 0.3125,0.8125 0.78125,0.8125 0.21875,0 0.828125,-0.140625 0.828125,-0.953125 v -0.5625 h -0.25 v 0.5625 c 0,0.578125 -0.25,0.640625 -0.359375,0.640625 -0.328125,0 -0.375,-0.453125 -0.375,-0.5 v -1.984375 c 0,-0.421875 0,-0.8125 -0.359375,-1.1875 C 3.1875,-4.3125 2.6875,-4.46875 2.21875,-4.46875 c -0.828125,0 -1.515625,0.46875 -1.515625,1.125 0,0.296875 0.203125,0.46875 0.46875,0.46875 0.28125,0 0.453125,-0.203125 0.453125,-0.453125 0,-0.125 -0.046875,-0.453125 -0.515625,-0.453125 C 1.390625,-4.140625 1.875,-4.25 2.1875,-4.25 c 0.5,0 1.0625,0.390625 1.0625,1.28125 v 0.359375 c -0.515625,0.03125 -1.203125,0.0625 -1.828125,0.359375 -0.75,0.34375 -1,0.859375 -1,1.296875 0,0.8125 0.96875,1.0625 1.59375,1.0625 0.65625,0 1.109375,-0.40625 1.296875,-0.859375 z M 3.25,-2.390625 v 1 c 0,0.9375 -0.71875,1.28125 -1.171875,1.28125 -0.484375,0 -0.890625,-0.34375 -0.890625,-0.84375 0,-0.546875 0.421875,-1.375 2.0625,-1.4375 z m 0,0"
             id="id-bd066adf-15b0-4989-ad32-31ac7610b772" />
        </symbol>
        <symbol
           overflow="visible"
           id="id-6df4be3b-6d55-4df3-a0b4-08d17af561fc">
          <path
             style="stroke:none;stroke-width:0"
             d="M 1.765625,-6.921875 0.328125,-6.8125 V -6.5 c 0.703125,0 0.78125,0.0625 0.78125,0.5625 V -0.75 c 0,0.4375 -0.109375,0.4375 -0.78125,0.4375 V 0 C 0.65625,-0.015625 1.1875,-0.03125 1.4375,-0.03125 c 0.25,0 0.734375,0.015625 1.109375,0.03125 v -0.3125 c -0.671875,0 -0.78125,0 -0.78125,-0.4375 z m 0,0"
             id="id-8c24edf5-fe1f-4532-aa6d-f536debefa33" />
        </symbol>
        <symbol
           overflow="visible"
           id="id-4a421122-990f-4bc8-9b5f-9beed8ec7a19">
          <path
             style="stroke:none;stroke-width:0"
             d="m 1.71875,-3.984375 h 1.4375 v -0.3125 H 1.71875 V -6.125 h -0.25 c 0,0.8125 -0.296875,1.875 -1.28125,1.921875 v 0.21875 h 0.84375 v 2.75 c 0,1.21875 0.9375,1.34375 1.296875,1.34375 0.703125,0 0.984375,-0.703125 0.984375,-1.34375 v -0.5625 h -0.25 V -1.25 c 0,0.734375 -0.296875,1.109375 -0.671875,1.109375 -0.671875,0 -0.671875,-0.90625 -0.671875,-1.078125 z m 0,0"
             id="id-6a1d974c-9289-44d7-a355-90f8f7afea95" />
        </symbol>
        <symbol
           overflow="visible"
           id="id-c0c03a00-226e-4f36-a111-d95bf2d63075">
          <path
             style="stroke:none;stroke-width:0"
             d="M 1.765625,-4.40625 0.375,-4.296875 v 0.3125 c 0.640625,0 0.734375,0.0625 0.734375,0.546875 V -0.75 c 0,0.4375 -0.109375,0.4375 -0.78125,0.4375 V 0 C 0.640625,-0.015625 1.1875,-0.03125 1.421875,-0.03125 1.78125,-0.03125 2.125,-0.015625 2.46875,0 v -0.3125 c -0.671875,0 -0.703125,-0.046875 -0.703125,-0.4375 z m 0.03125,-1.734375 c 0,-0.3125 -0.234375,-0.53125 -0.515625,-0.53125 -0.3125,0 -0.53125,0.265625 -0.53125,0.53125 0,0.265625 0.21875,0.53125 0.53125,0.53125 0.28125,0 0.515625,-0.21875 0.515625,-0.53125 z m 0,0"
             id="id-141adcd0-0581-4512-8c33-ed5165c3d643" />
        </symbol>
        <symbol
           overflow="visible"
           id="id-dde7337c-e950-4b34-915b-0768bbc90587">
          <path
             style="stroke:none;stroke-width:0"
             d="M 1.09375,-3.421875 V -0.75 c 0,0.4375 -0.109375,0.4375 -0.78125,0.4375 V 0 c 0.359375,-0.015625 0.859375,-0.03125 1.140625,-0.03125 0.25,0 0.765625,0.015625 1.109375,0.03125 v -0.3125 c -0.671875,0 -0.78125,0 -0.78125,-0.4375 V -2.59375 C 1.78125,-3.625 2.5,-4.1875 3.125,-4.1875 c 0.640625,0 0.75,0.53125 0.75,1.109375 V -0.75 c 0,0.4375 -0.109375,0.4375 -0.78125,0.4375 V 0 c 0.34375,-0.015625 0.859375,-0.03125 1.125,-0.03125 0.25,0 0.78125,0.015625 1.109375,0.03125 v -0.3125 c -0.65625,0 -0.765625,0 -0.765625,-0.4375 v -1.84375 c 0,-1.03125 0.703125,-1.59375 1.34375,-1.59375 0.625,0 0.734375,0.53125 0.734375,1.109375 V -0.75 c 0,0.4375 -0.109375,0.4375 -0.78125,0.4375 V 0 c 0.34375,-0.015625 0.859375,-0.03125 1.125,-0.03125 0.265625,0 0.78125,0.015625 1.125,0.03125 v -0.3125 c -0.515625,0 -0.765625,0 -0.78125,-0.296875 v -1.90625 c 0,-0.859375 0,-1.15625 -0.3125,-1.515625 -0.140625,-0.171875 -0.46875,-0.375 -1.046875,-0.375 -0.828125,0 -1.28125,0.59375 -1.4375,0.984375 C 4.390625,-4.296875 3.65625,-4.40625 3.203125,-4.40625 2.46875,-4.40625 2,-3.984375 1.71875,-3.359375 V -4.40625 L 0.3125,-4.296875 v 0.3125 c 0.703125,0 0.78125,0.0625 0.78125,0.5625 z m 0,0"
             id="id-84ec481a-e359-4fef-b4eb-7534b447321c" />
        </symbol>
        <symbol
           overflow="visible"
           id="id-1fa10001-5f91-4a03-a6d2-7ce7c1051442">
          <path
             style="stroke:none;stroke-width:0"
             d="m 1.171875,-2.171875 c 0,-1.625 0.8125,-2.046875 1.34375,-2.046875 0.09375,0 0.71875,0.015625 1.0625,0.375 -0.40625,0.03125 -0.46875,0.328125 -0.46875,0.453125 0,0.265625 0.1875,0.453125 0.453125,0.453125 0.265625,0 0.46875,-0.15625 0.46875,-0.46875 0,-0.671875 -0.765625,-1.0625 -1.53125,-1.0625 -1.25,0 -2.15625,1.078125 -2.15625,2.3125 0,1.28125 0.984375,2.265625 2.140625,2.265625 1.328125,0 1.65625,-1.203125 1.65625,-1.296875 0,-0.09375 -0.109375,-0.09375 -0.140625,-0.09375 -0.078125,0 -0.109375,0.03125 -0.125,0.09375 -0.28125,0.921875 -0.9375,1.046875 -1.296875,1.046875 -0.53125,0 -1.40625,-0.421875 -1.40625,-2.03125 z m 0,0"
             id="id-f1c4d3b4-8394-4fa5-9bba-a420e870dd66" />
        </symbol>
        <symbol
           overflow="visible"
           id="id-a15f912d-782e-48b8-91c3-eca7612958af">
          <path
             style="stroke:none;stroke-width:0"
             d="M 4.6875,-2.140625 C 4.6875,-3.40625 3.703125,-4.46875 2.5,-4.46875 c -1.25,0 -2.21875,1.09375 -2.21875,2.328125 0,1.296875 1.03125,2.25 2.203125,2.25 1.203125,0 2.203125,-0.984375 2.203125,-2.25 z m -2.1875,2 c -0.4375,0 -0.875,-0.203125 -1.140625,-0.671875 -0.25,-0.4375 -0.25,-1.046875 -0.25,-1.40625 0,-0.390625 0,-0.921875 0.234375,-1.359375 C 1.609375,-4.03125 2.078125,-4.25 2.484375,-4.25 c 0.4375,0 0.859375,0.21875 1.125,0.65625 0.265625,0.421875 0.265625,1 0.265625,1.375 0,0.359375 0,0.90625 -0.21875,1.34375 C 3.421875,-0.421875 2.984375,-0.140625 2.5,-0.140625 Z m 0,0"
             id="id-61adbe79-2b69-4454-9286-45966d05aa5d" />
        </symbol>
        <symbol
           overflow="visible"
           id="id-6ca7bc10-2318-49bc-a055-bd081a34d789">
          <path
             style="stroke:none;stroke-width:0"
             d="m 1.71875,-3.75 v -0.65625 l -1.4375,0.109375 v 0.3125 c 0.703125,0 0.78125,0.0625 0.78125,0.5 v 4.65625 C 1.0625,1.625 0.953125,1.625 0.28125,1.625 V 1.9375 C 0.625,1.921875 1.140625,1.90625 1.390625,1.90625 c 0.28125,0 0.78125,0.015625 1.125,0.03125 V 1.625 C 1.859375,1.625 1.75,1.625 1.75,1.171875 V -0.59375 c 0.046875,0.171875 0.46875,0.703125 1.21875,0.703125 1.1875,0 2.21875,-0.984375 2.21875,-2.265625 0,-1.265625 -0.953125,-2.25 -2.078125,-2.25 -0.78125,0 -1.203125,0.4375 -1.390625,0.65625 z M 1.75,-1.140625 v -2.21875 C 2.03125,-3.875 2.515625,-4.15625 3.03125,-4.15625 c 0.734375,0 1.328125,0.875 1.328125,2 0,1.203125 -0.6875,2.046875 -1.421875,2.046875 -0.40625,0 -0.78125,-0.203125 -1.046875,-0.609375 C 1.75,-0.921875 1.75,-0.9375 1.75,-1.140625 Z m 0,0"
             id="id-d5548648-a4c8-4a52-a36b-a37e76f2b1bc" />
        </symbol>
        <symbol
           overflow="visible"
           id="id-5c2aea02-235b-432b-b2ad-c8ac1b226e3b">
          <path
             style="stroke:none;stroke-width:0"
             d="M 3.890625,-0.78125 V 0.109375 L 5.328125,0 V -0.3125 C 4.640625,-0.3125 4.5625,-0.375 4.5625,-0.875 v -3.53125 l -1.46875,0.109375 v 0.3125 c 0.6875,0 0.78125,0.0625 0.78125,0.5625 v 1.765625 c 0,0.875 -0.484375,1.546875 -1.21875,1.546875 -0.828125,0 -0.875,-0.46875 -0.875,-0.984375 v -3.3125 L 0.3125,-4.296875 v 0.3125 c 0.78125,0 0.78125,0.03125 0.78125,0.90625 v 1.5 c 0,0.78125 0,1.6875 1.515625,1.6875 0.5625,0 1,-0.28125 1.28125,-0.890625 z m 0,0"
             id="id-40b48c19-7cce-4f91-bc12-4153b12e56db" />
        </symbol>
      </g>
    </defs>
    <defs
       id="id-319ccefa-548f-43f3-aa06-c35d2814b384">
      <g
         id="id-3401afd1-7311-4ff7-a0e2-137db38c7df3">
        <symbol
           overflow="visible"
           id="id-485d1723-2e46-4ec6-bf3f-35885de463c6">
          <path
             style="stroke:none;stroke-width:0"
             d=""
             id="id-639c4fb5-365b-44d2-80ff-77bd36069bc2" />
        </symbol>
        <symbol
           overflow="visible"
           id="id-2626bec6-5699-4815-9e82-83c838c4751a">
          <path
             style="stroke:none;stroke-width:0"
             d="m 2.21875,-3.6875 h 1.625 c 0.15625,0 0.40625,0 0.40625,-0.296875 0,-0.3125 -0.25,-0.3125 -0.40625,-0.3125 h -1.625 v -0.8125 c 0,-0.1875 0,-0.40625 -0.34375,-0.40625 -0.34375,0 -0.34375,0.203125 -0.34375,0.40625 v 0.8125 h -0.875 c -0.15625,0 -0.40625,0 -0.40625,0.3125 0,0.296875 0.25,0.296875 0.390625,0.296875 H 1.53125 V -1.25 c 0,0.953125 0.671875,1.3125 1.40625,1.3125 0.734375,0 1.53125,-0.4375 1.53125,-1.3125 0,-0.1875 0,-0.390625 -0.34375,-0.390625 -0.328125,0 -0.34375,0.203125 -0.34375,0.375 0,0.625 -0.578125,0.71875 -0.796875,0.71875 -0.765625,0 -0.765625,-0.515625 -0.765625,-0.765625 z m 0,0"
             id="id-04af01e7-7ecf-4f8d-83be-32f0b7b4384b" />
        </symbol>
        <symbol
           overflow="visible"
           id="id-b8a0340d-49dc-48f6-bfc2-cbdab46a64ae">
          <path
             style="stroke:none;stroke-width:0"
             d="m 3.078125,-3.890625 c 0,-0.3125 -0.0625,-0.40625 -0.390625,-0.40625 H 1.265625 c -0.15625,0 -0.40625,0 -0.40625,0.296875 0,0.3125 0.25,0.3125 0.40625,0.3125 h 1.125 v 3.078125 H 1.1875 c -0.15625,0 -0.40625,0 -0.40625,0.3125 C 0.78125,0 1.03125,0 1.1875,0 H 4.125 c 0.15625,0 0.40625,0 0.40625,-0.296875 0,-0.3125 -0.25,-0.3125 -0.40625,-0.3125 H 3.078125 Z m 0,-1.71875 c 0,-0.265625 -0.21875,-0.484375 -0.5,-0.484375 -0.28125,0 -0.5,0.21875 -0.5,0.484375 0,0.28125 0.21875,0.5 0.5,0.5 0.28125,0 0.5,-0.21875 0.5,-0.5 z m 0,0"
             id="id-43720871-e724-4d60-8fcf-72852a45268f" />
        </symbol>
        <symbol
           overflow="visible"
           id="id-cc95f27c-07f9-462a-bef2-bd12fd3ad2c2">
          <path
             style="stroke:none;stroke-width:0"
             d="M 1.09375,-4 C 1.0625,-4.296875 0.875,-4.296875 0.6875,-4.296875 H 0.375 c -0.15625,0 -0.421875,0 -0.421875,0.296875 0,0.3125 0.21875,0.3125 0.578125,0.3125 v 3.078125 c -0.359375,0 -0.578125,0 -0.578125,0.3125 C -0.046875,0 0.234375,0 0.375,0 H 1.25 c 0.140625,0 0.40625,0 0.40625,-0.296875 0,-0.3125 -0.203125,-0.3125 -0.5625,-0.3125 v -1.78125 C 1.09375,-3.28125 1.5,-3.75 1.90625,-3.75 c 0.234375,0 0.359375,0.171875 0.359375,0.8125 v 2.328125 c -0.1875,0 -0.4375,0 -0.4375,0.3125 C 1.828125,0 2.109375,0 2.25,0 h 0.734375 c 0.15625,0 0.421875,0 0.421875,-0.296875 0,-0.3125 -0.21875,-0.3125 -0.578125,-0.3125 v -1.78125 c 0,-0.890625 0.40625,-1.359375 0.828125,-1.359375 0.21875,0 0.359375,0.171875 0.359375,0.8125 v 2.328125 c -0.1875,0 -0.4375,0 -0.4375,0.3125 C 3.578125,0 3.84375,0 3.984375,0 h 0.75 c 0.15625,0 0.40625,0 0.40625,-0.296875 0,-0.3125 -0.203125,-0.3125 -0.5625,-0.3125 v -2.40625 c 0,-0.203125 0,-1.34375 -0.890625,-1.34375 -0.296875,0 -0.703125,0.125 -0.984375,0.515625 C 2.546875,-4.171875 2.265625,-4.359375 1.9375,-4.359375 1.625,-4.359375 1.328125,-4.21875 1.09375,-4 Z m 0,0"
             id="id-82dfbd32-027c-4fd7-9e8e-fcab1a3edf43" />
        </symbol>
        <symbol
           overflow="visible"
           id="id-83e239d9-45a8-41ef-95bf-b97dc53b2b53">
          <path
             style="stroke:none;stroke-width:0"
             d="m 4.234375,-1.90625 c 0.203125,0 0.390625,0 0.390625,-0.359375 0,-1.140625 -0.640625,-2.125 -1.9375,-2.125 -1.1875,0 -2.140625,1 -2.140625,2.234375 0,1.203125 1.015625,2.21875 2.296875,2.21875 1.3125,0 1.78125,-0.90625 1.78125,-1.15625 0,-0.265625 -0.28125,-0.265625 -0.34375,-0.265625 -0.1875,0 -0.265625,0.03125 -0.328125,0.21875 -0.21875,0.5 -0.765625,0.59375 -1.046875,0.59375 -0.75,0 -1.484375,-0.5 -1.65625,-1.359375 z M 1.265625,-2.5 C 1.40625,-3.234375 2,-3.78125 2.6875,-3.78125 c 0.515625,0 1.140625,0.25 1.234375,1.28125 z m 0,0"
             id="id-582f33e8-cc5d-44ca-8ac8-af07e915a0ab" />
        </symbol>
        <symbol
           overflow="visible"
           id="id-60f1b8e8-9162-4acc-ab51-e05c4be69a8b">
          <path
             style="stroke:none;stroke-width:0"
             d="m 3.09375,-5.796875 c 0,-0.15625 0,-0.40625 -0.296875,-0.40625 -0.1875,0 -0.25,0.125 -0.296875,0.234375 C 2.125,-5.109375 1.609375,-5 1.421875,-4.984375 c -0.171875,0.015625 -0.375,0.03125 -0.375,0.3125 0,0.25 0.171875,0.296875 0.328125,0.296875 0.1875,0 0.59375,-0.0625 1.03125,-0.4375 v 4.203125 H 1.5 c -0.15625,0 -0.390625,0 -0.390625,0.3125 C 1.109375,0 1.359375,0 1.5,0 H 4 c 0.15625,0 0.40625,0 0.40625,-0.296875 0,-0.3125 -0.234375,-0.3125 -0.40625,-0.3125 H 3.09375 Z m 0,0"
             id="id-fa2a2365-29ce-4860-a1c5-7004968ad128" />
        </symbol>
        <symbol
           overflow="visible"
           id="id-cb56f65f-9e2c-4e15-bb33-e368a8371163">
          <path
             style="stroke:none;stroke-width:0"
             d="M 0.671875,-0.578125 C 0.578125,-0.5 0.515625,-0.453125 0.515625,-0.3125 0.515625,0 0.765625,0 0.921875,0 H 4.3125 c 0.328125,0 0.390625,-0.09375 0.390625,-0.40625 v -0.265625 c 0,-0.1875 0,-0.40625 -0.34375,-0.40625 -0.34375,0 -0.34375,0.1875 -0.34375,0.46875 h -2.375 c 0.59375,-0.5 1.546875,-1.25 1.984375,-1.65625 0.625,-0.5625 1.078125,-1.1875 1.078125,-1.984375 0,-1.203125 -1,-1.953125 -2.21875,-1.953125 -1.171875,0 -1.96875,0.8125 -1.96875,1.671875 0,0.359375 0.28125,0.46875 0.453125,0.46875 0.203125,0 0.4375,-0.171875 0.4375,-0.4375 0,-0.125 -0.046875,-0.25 -0.140625,-0.328125 0.15625,-0.453125 0.625,-0.765625 1.171875,-0.765625 0.8125,0 1.578125,0.453125 1.578125,1.34375 0,0.6875 -0.484375,1.265625 -1.140625,1.8125 z m 0,0"
             id="id-6396aaa0-e813-4f4a-b56b-58c6fd15c522" />
        </symbol>
        <symbol
           overflow="visible"
           id="id-35b794de-655f-454e-9141-a7db9ac42b57">
          <path
             style="stroke:none;stroke-width:0"
             d="M 3.65625,-3.328125 C 4.21875,-3.6875 4.5,-4.25 4.5,-4.796875 c 0,-0.734375 -0.734375,-1.40625 -1.875,-1.40625 -1.203125,0 -1.890625,0.484375 -1.890625,1.171875 0,0.328125 0.25,0.46875 0.4375,0.46875 0.21875,0 0.4375,-0.171875 0.4375,-0.453125 0,-0.140625 -0.046875,-0.234375 -0.078125,-0.265625 0.296875,-0.3125 1.015625,-0.3125 1.09375,-0.3125 0.6875,0 1.1875,0.359375 1.1875,0.8125 0,0.296875 -0.15625,0.640625 -0.421875,0.859375 C 3.078125,-3.65625 2.828125,-3.640625 2.46875,-3.625 1.890625,-3.578125 1.75,-3.578125 1.75,-3.296875 c 0,0.3125 0.234375,0.3125 0.390625,0.3125 h 0.46875 c 0.984375,0 1.484375,0.671875 1.484375,1.25 C 4.09375,-1.125 3.53125,-0.5 2.625,-0.5 2.234375,-0.5 1.46875,-0.609375 1.203125,-1.078125 1.25,-1.125 1.328125,-1.1875 1.328125,-1.390625 c 0,-0.234375 -0.1875,-0.4375 -0.4375,-0.4375 -0.234375,0 -0.453125,0.15625 -0.453125,0.46875 0,0.890625 0.96875,1.46875 2.1875,1.46875 1.3125,0 2.15625,-0.921875 2.15625,-1.84375 0,-0.703125 -0.46875,-1.296875 -1.125,-1.59375 z m 0,0"
             id="id-dc78790c-e78a-4c92-8ee0-65c5eb980318" />
        </symbol>
        <symbol
           overflow="visible"
           id="id-4ef848a8-b76a-4012-8445-48da321810e6">
          <path
             style="stroke:none;stroke-width:0"
             d="M 0.375,-2.4375 C 0.296875,-2.296875 0.296875,-2.28125 0.296875,-2.078125 0.296875,-1.75 0.375,-1.6875 0.6875,-1.6875 h 2.515625 v 1.078125 h -0.625 c -0.15625,0 -0.390625,0 -0.390625,0.3125 C 2.1875,0 2.4375,0 2.578125,0 H 4.375 c 0.15625,0 0.40625,0 0.40625,-0.296875 0,-0.3125 -0.25,-0.3125 -0.40625,-0.3125 H 3.765625 V -1.6875 H 4.53125 c 0.15625,0 0.40625,0 0.40625,-0.296875 0,-0.3125 -0.25,-0.3125 -0.40625,-0.3125 H 3.765625 v -3.5 c 0,-0.328125 -0.078125,-0.40625 -0.421875,-0.40625 H 3.078125 c -0.25,0 -0.296875,0 -0.421875,0.203125 z m 0.609375,0.140625 2.21875,-3.46875 v 3.46875 z m 0,0"
             id="id-80cc0c9b-84cb-42d4-ac50-cdfa953cca2f" />
        </symbol>
        <symbol
           overflow="visible"
           id="id-808a2488-5464-481c-8069-4224365c9f4d">
          <path
             style="stroke:none;stroke-width:0"
             d="m 2.765625,-3.875 c -0.359375,0 -0.796875,0.0625 -1.203125,0.28125 v -1.890625 h 2.390625 c 0.15625,0 0.40625,0 0.40625,-0.296875 0,-0.3125 -0.25,-0.3125 -0.40625,-0.3125 H 1.28125 C 0.953125,-6.09375 0.875,-6 0.875,-5.6875 v 2.65625 c 0,0.1875 0,0.40625 0.328125,0.40625 0.171875,0 0.21875,-0.046875 0.296875,-0.140625 0.265625,-0.328125 0.671875,-0.5 1.25,-0.5 0.8125,0 1.265625,0.71875 1.265625,1.375 C 4.015625,-1.09375 3.3125,-0.5 2.46875,-0.5 2.1875,-0.5 1.5625,-0.578125 1.28125,-1.125 c 0.046875,-0.046875 0.125,-0.125 0.125,-0.328125 0,-0.28125 -0.234375,-0.4375 -0.4375,-0.4375 -0.15625,0 -0.453125,0.09375 -0.453125,0.46875 0,0.828125 0.84375,1.53125 1.953125,1.53125 1.25,0 2.234375,-0.890625 2.234375,-2 0,-1.015625 -0.765625,-1.984375 -1.9375,-1.984375 z m 0,0"
             id="id-7de61093-9963-4862-b920-873d1686d7c7" />
        </symbol>
      </g>
    </defs>
    <defs
       id="id-f89b53c9-ff49-4e15-b99b-d38faa71ccea">
      <g
         id="id-1019a2cc-0890-4a1d-b0c8-691fac3c6f76">
        <symbol
           overflow="visible"
           id="id-b54fb0ec-2061-46db-8693-a0cfa2bf7970">
          <path
             style="stroke:none;stroke-width:0"
             d=""
             id="id-6c1833f8-1766-4241-bfb5-78371d70fd27" />
        </symbol>
        <symbol
           overflow="visible"
           id="id-ecdc5df0-38e0-492a-a95b-c810368f1c86">
          <path
             style="stroke:none;stroke-width:0"
             d="m 3.078125,-3.890625 c 0,-0.3125 -0.0625,-0.40625 -0.390625,-0.40625 H 1.265625 c -0.15625,0 -0.40625,0 -0.40625,0.296875 0,0.3125 0.25,0.3125 0.40625,0.3125 h 1.125 v 3.078125 H 1.1875 c -0.15625,0 -0.40625,0 -0.40625,0.3125 C 0.78125,0 1.03125,0 1.1875,0 H 4.125 c 0.15625,0 0.40625,0 0.40625,-0.296875 0,-0.3125 -0.25,-0.3125 -0.40625,-0.3125 H 3.078125 Z m 0,-1.71875 c 0,-0.265625 -0.21875,-0.484375 -0.5,-0.484375 -0.28125,0 -0.5,0.21875 -0.5,0.484375 0,0.28125 0.21875,0.5 0.5,0.5 0.28125,0 0.5,-0.21875 0.5,-0.5 z m 0,0"
             id="id-94ef0d18-5ba9-4565-a1cf-228d9fcaaa44" />
        </symbol>
        <symbol
           overflow="visible"
           id="id-646390b4-46b5-4be6-a1bb-c013396cbc85">
          <path
             style="stroke:none;stroke-width:0"
             d="m 1.65625,-3.828125 c 0,-0.3125 0,-0.46875 -0.40625,-0.46875 H 0.53125 c -0.15625,0 -0.40625,0 -0.40625,0.3125 0,0.296875 0.25,0.296875 0.390625,0.296875 H 0.96875 v 3.078125 h -0.4375 c -0.15625,0 -0.40625,0 -0.40625,0.3125 C 0.125,0 0.375,0 0.515625,0 h 1.59375 C 2.25,0 2.5,0 2.5,-0.296875 c 0,-0.3125 -0.25,-0.3125 -0.40625,-0.3125 H 1.65625 V -2.375 c 0,-1 0.734375,-1.375 1.25,-1.375 0.515625,0 0.65625,0.28125 0.65625,0.875 v 2.265625 h -0.375 c -0.171875,0 -0.421875,0 -0.421875,0.3125 C 2.765625,0 3.046875,0 3.1875,0 h 1.515625 c 0.140625,0 0.40625,0 0.40625,-0.296875 0,-0.3125 -0.25,-0.3125 -0.421875,-0.3125 H 4.25 v -2.3125 c 0,-1 -0.5,-1.4375 -1.296875,-1.4375 -0.65625,0 -1.109375,0.34375 -1.296875,0.53125 z m 0,0"
             id="id-2f6f0d7b-b34c-4d6c-ad6f-f0cfd2be5712" />
        </symbol>
        <symbol
           overflow="visible"
           id="id-483e59b0-462e-4d37-91b1-d97ecac0793a">
          <path
             style="stroke:none;stroke-width:0"
             d="m 4.65625,-2.15625 c 0,-1.25 -0.921875,-2.234375 -2.046875,-2.234375 -1.109375,0 -2.046875,0.984375 -2.046875,2.234375 0,1.265625 0.953125,2.21875 2.046875,2.21875 1.09375,0 2.046875,-0.953125 2.046875,-2.21875 z M 2.609375,-0.546875 C 1.875,-0.546875 1.25,-1.296875 1.25,-2.21875 c 0,-0.90625 0.65625,-1.5625 1.359375,-1.5625 0.71875,0 1.359375,0.65625 1.359375,1.5625 0,0.921875 -0.625,1.671875 -1.359375,1.671875 z m 0,0"
             id="id-f1e51e10-2320-4357-83ae-fe3575f0e944" />
        </symbol>
        <symbol
           overflow="visible"
           id="id-a6cf35ed-439a-43f9-9483-c893fa2c8dd0">
          <path
             style="stroke:none;stroke-width:0"
             d="M 3.5625,-0.3125 C 3.578125,0 3.78125,0 3.96875,0 H 4.6875 c 0.171875,0 0.421875,0 0.421875,-0.3125 0,-0.296875 -0.265625,-0.296875 -0.40625,-0.296875 H 4.25 v -3.28125 c 0,-0.3125 -0.046875,-0.40625 -0.390625,-0.40625 H 3.125 c -0.15625,0 -0.40625,0 -0.40625,0.3125 0,0.296875 0.265625,0.296875 0.40625,0.296875 h 0.4375 v 2.125 c 0,0.890625 -0.796875,1.015625 -1.125,1.015625 -0.78125,0 -0.78125,-0.328125 -0.78125,-0.65625 v -2.6875 c 0,-0.3125 -0.0625,-0.40625 -0.40625,-0.40625 H 0.53125 c -0.15625,0 -0.40625,0 -0.40625,0.3125 0,0.296875 0.25,0.296875 0.390625,0.296875 H 0.96875 v 2.546875 c 0,0.96875 0.6875,1.203125 1.40625,1.203125 0.421875,0 0.828125,-0.109375 1.1875,-0.375 z m 0,0"
             id="id-39d768d0-50bd-4701-ab21-b1664fd5e608" />
        </symbol>
        <symbol
           overflow="visible"
           id="id-9cd9a648-8c12-43ed-b08a-c74a00e20133">
          <path
             style="stroke:none;stroke-width:0"
             d="m 2.21875,-3.6875 h 1.625 c 0.15625,0 0.40625,0 0.40625,-0.296875 0,-0.3125 -0.25,-0.3125 -0.40625,-0.3125 h -1.625 v -0.8125 c 0,-0.1875 0,-0.40625 -0.34375,-0.40625 -0.34375,0 -0.34375,0.203125 -0.34375,0.40625 v 0.8125 h -0.875 c -0.15625,0 -0.40625,0 -0.40625,0.3125 0,0.296875 0.25,0.296875 0.390625,0.296875 H 1.53125 V -1.25 c 0,0.953125 0.671875,1.3125 1.40625,1.3125 0.734375,0 1.53125,-0.4375 1.53125,-1.3125 0,-0.1875 0,-0.390625 -0.34375,-0.390625 -0.328125,0 -0.34375,0.203125 -0.34375,0.375 0,0.625 -0.578125,0.71875 -0.796875,0.71875 -0.765625,0 -0.765625,-0.515625 -0.765625,-0.765625 z m 0,0"
             id="id-27976ff2-fcb6-470a-8b9d-8ac63b0821c1" />
        </symbol>
        <symbol
           overflow="visible"
           id="id-497048fe-702d-4dd0-9165-d9b5f29297e2">
          <path
             style="stroke:none;stroke-width:0"
             d=""
             id="id-6aad24a2-eaa4-4277-b927-348b88808a90" />
        </symbol>
        <symbol
           overflow="visible"
           id="id-0c77a631-18fe-456a-a8aa-94cab55202ea">
          <path
             style="stroke:none;stroke-width:0"
             d="M 3.71875,-3.765625 C 3.53125,-4.140625 3.25,-4.40625 2.796875,-4.40625 c -1.15625,0 -2.390625,1.46875 -2.390625,2.921875 0,0.9375 0.546875,1.59375 1.3125,1.59375 0.203125,0 0.703125,-0.046875 1.296875,-0.75 0.078125,0.421875 0.4375,0.75 0.90625,0.75 0.359375,0 0.578125,-0.234375 0.75,-0.546875 0.15625,-0.359375 0.296875,-0.96875 0.296875,-0.984375 0,-0.109375 -0.09375,-0.109375 -0.125,-0.109375 -0.09375,0 -0.109375,0.046875 -0.140625,0.1875 -0.171875,0.640625 -0.34375,1.234375 -0.75,1.234375 -0.28125,0 -0.296875,-0.265625 -0.296875,-0.453125 0,-0.21875 0.015625,-0.3125 0.125,-0.75 C 3.890625,-1.71875 3.90625,-1.828125 4,-2.203125 L 4.359375,-3.59375 c 0.0625,-0.28125 0.0625,-0.296875 0.0625,-0.34375 0,-0.171875 -0.109375,-0.265625 -0.28125,-0.265625 -0.25,0 -0.390625,0.21875 -0.421875,0.4375 z M 3.078125,-1.1875 C 3.015625,-1 3.015625,-0.984375 2.875,-0.8125 2.4375,-0.265625 2.03125,-0.109375 1.75,-0.109375 c -0.5,0 -0.640625,-0.546875 -0.640625,-0.9375 0,-0.5 0.3125,-1.71875 0.546875,-2.1875 0.3125,-0.578125 0.75,-0.953125 1.15625,-0.953125 0.640625,0 0.78125,0.8125 0.78125,0.875 0,0.0625 -0.015625,0.125 -0.03125,0.171875 z m 0,0"
             id="id-e95f34a2-1025-4f6b-bfd0-907c20025146" />
        </symbol>
        <symbol
           overflow="visible"
           id="id-05db9f90-04b4-4bf9-9949-b21fe36a7eb0">
          <path
             style="stroke:none;stroke-width:0"
             d="m 2.375,-6.8125 c 0,0 0,-0.109375 -0.125,-0.109375 -0.21875,0 -0.953125,0.078125 -1.21875,0.109375 -0.078125,0 -0.1875,0.015625 -0.1875,0.1875 0,0.125 0.09375,0.125 0.25,0.125 0.46875,0 0.484375,0.0625 0.484375,0.171875 0,0.0625 -0.078125,0.40625 -0.125,0.609375 l -0.828125,3.25 c -0.109375,0.5 -0.15625,0.671875 -0.15625,1.015625 0,0.9375 0.53125,1.5625 1.265625,1.5625 1.171875,0 2.40625,-1.484375 2.40625,-2.921875 0,-0.90625 -0.53125,-1.59375 -1.328125,-1.59375 -0.453125,0 -0.875,0.296875 -1.171875,0.59375 z M 1.453125,-3.046875 C 1.5,-3.265625 1.5,-3.28125 1.59375,-3.390625 2.078125,-4.03125 2.53125,-4.1875 2.796875,-4.1875 c 0.359375,0 0.625,0.296875 0.625,0.9375 0,0.59375 -0.328125,1.734375 -0.515625,2.109375 -0.328125,0.671875 -0.78125,1.03125 -1.171875,1.03125 -0.34375,0 -0.671875,-0.265625 -0.671875,-1 0,-0.203125 0,-0.390625 0.15625,-1.015625 z m 0,0"
             id="id-1192fe12-148f-4fee-9db7-11bc2c8d0ff8" />
        </symbol>
        <symbol
           overflow="visible"
           id="id-111a0b10-6d32-49a0-b0a5-5939c0c92a6e">
          <path
             style="stroke:none;stroke-width:0"
             d="m 3.953125,-3.78125 c -0.171875,0 -0.296875,0 -0.4375,0.125 -0.171875,0.15625 -0.1875,0.328125 -0.1875,0.390625 0,0.25 0.1875,0.359375 0.375,0.359375 0.28125,0 0.546875,-0.25 0.546875,-0.640625 0,-0.484375 -0.46875,-0.859375 -1.171875,-0.859375 -1.34375,0 -2.671875,1.421875 -2.671875,2.828125 0,0.90625 0.578125,1.6875 1.625,1.6875 1.421875,0 2.25,-1.0625 2.25,-1.171875 0,-0.0625 -0.046875,-0.140625 -0.109375,-0.140625 -0.0625,0 -0.078125,0.03125 -0.140625,0.109375 -0.78125,0.984375 -1.875,0.984375 -1.984375,0.984375 -0.625,0 -0.90625,-0.484375 -0.90625,-1.09375 0,-0.40625 0.203125,-1.375 0.546875,-1.984375 0.3125,-0.578125 0.859375,-1 1.40625,-1 0.328125,0 0.71875,0.125 0.859375,0.40625 z m 0,0"
             id="id-3d51aae6-1fc1-4dba-a30c-1b7b3c233452" />
        </symbol>
        <symbol
           overflow="visible"
           id="id-a99e0bc3-076c-44f9-a0d2-f72276fd2881">
          <path
             style="stroke:none;stroke-width:0"
             d="m 5.140625,-6.8125 c 0,0 0,-0.109375 -0.125,-0.109375 -0.15625,0 -1.09375,0.09375 -1.265625,0.109375 -0.078125,0.015625 -0.140625,0.0625 -0.140625,0.1875 0,0.125 0.09375,0.125 0.234375,0.125 0.484375,0 0.5,0.0625 0.5,0.171875 L 4.3125,-6.125 3.71875,-3.765625 C 3.53125,-4.140625 3.25,-4.40625 2.796875,-4.40625 c -1.15625,0 -2.390625,1.46875 -2.390625,2.921875 0,0.9375 0.546875,1.59375 1.3125,1.59375 0.203125,0 0.703125,-0.046875 1.296875,-0.75 0.078125,0.421875 0.4375,0.75 0.90625,0.75 0.359375,0 0.578125,-0.234375 0.75,-0.546875 0.15625,-0.359375 0.296875,-0.96875 0.296875,-0.984375 0,-0.109375 -0.09375,-0.109375 -0.125,-0.109375 -0.09375,0 -0.109375,0.046875 -0.140625,0.1875 -0.171875,0.640625 -0.34375,1.234375 -0.75,1.234375 -0.28125,0 -0.296875,-0.265625 -0.296875,-0.453125 0,-0.25 0.015625,-0.3125 0.046875,-0.484375 z m -2.0625,5.625 C 3.015625,-1 3.015625,-0.984375 2.875,-0.8125 2.4375,-0.265625 2.03125,-0.109375 1.75,-0.109375 c -0.5,0 -0.640625,-0.546875 -0.640625,-0.9375 0,-0.5 0.3125,-1.71875 0.546875,-2.1875 0.3125,-0.578125 0.75,-0.953125 1.15625,-0.953125 0.640625,0 0.78125,0.8125 0.78125,0.875 0,0.0625 -0.015625,0.125 -0.03125,0.171875 z m 0,0"
             id="id-1e28812d-02d4-4010-bb12-5aa12507fa46" />
        </symbol>
        <symbol
           overflow="visible"
           id="id-fef42866-6bad-4326-8362-1bb880795c2d">
          <path
             style="stroke:none;stroke-width:0"
             d="m 3.65625,-3.984375 h 0.859375 c 0.203125,0 0.296875,0 0.296875,-0.203125 0,-0.109375 -0.09375,-0.109375 -0.265625,-0.109375 H 3.71875 L 3.921875,-5.4375 c 0.046875,-0.203125 0.1875,-0.90625 0.25,-1.03125 0.078125,-0.1875 0.25,-0.34375 0.46875,-0.34375 0.03125,0 0.296875,0 0.484375,0.1875 -0.4375,0.03125 -0.546875,0.390625 -0.546875,0.53125 0,0.234375 0.1875,0.359375 0.375,0.359375 C 5.21875,-5.734375 5.5,-5.96875 5.5,-6.34375 c 0,-0.453125 -0.453125,-0.6875 -0.859375,-0.6875 -0.34375,0 -0.96875,0.1875 -1.265625,1.171875 -0.0625,0.203125 -0.09375,0.3125 -0.328125,1.5625 h -0.6875 c -0.203125,0 -0.3125,0 -0.3125,0.1875 0,0.125 0.09375,0.125 0.28125,0.125 h 0.65625 L 2.25,-0.046875 c -0.1875,0.96875 -0.359375,1.875 -0.875,1.875 -0.046875,0 -0.28125,0 -0.484375,-0.1875 C 1.359375,1.609375 1.453125,1.25 1.453125,1.109375 1.453125,0.875 1.265625,0.75 1.078125,0.75 0.8125,0.75 0.53125,0.984375 0.53125,1.359375 c 0,0.4375 0.4375,0.6875 0.84375,0.6875 0.546875,0 0.953125,-0.59375 1.125,-0.96875 0.328125,-0.625 0.546875,-1.828125 0.5625,-1.90625 z m 0,0"
             id="id-1fce45e4-daf7-4fd0-949c-e502cfeb78e8" />
        </symbol>
        <symbol
           overflow="visible"
           id="id-17666129-bd56-45d5-acc9-6bfd1f6752fb">
          <path
             style="stroke:none;stroke-width:0"
             d=""
             id="id-e510c2c9-5c8b-4363-800b-3d1c5eafda7e" />
        </symbol>
        <symbol
           overflow="visible"
           id="id-a0d90d90-d24b-463e-9dee-f8dd268d9c56">
          <path
             style="stroke:none;stroke-width:0"
             d="m 3.296875,2.390625 c 0,-0.03125 0,-0.046875 -0.171875,-0.21875 C 1.890625,0.921875 1.5625,-0.96875 1.5625,-2.5 c 0,-1.734375 0.375,-3.46875 1.609375,-4.703125 0.125,-0.125 0.125,-0.140625 0.125,-0.171875 0,-0.078125 -0.03125,-0.109375 -0.09375,-0.109375 -0.109375,0 -1,0.6875 -1.59375,1.953125 -0.5,1.09375 -0.625,2.203125 -0.625,3.03125 0,0.78125 0.109375,1.984375 0.65625,3.125 C 2.25,1.84375 3.09375,2.5 3.203125,2.5 c 0.0625,0 0.09375,-0.03125 0.09375,-0.109375 z m 0,0"
             id="id-202f905d-7f4e-4fcf-a0fd-fa727c2170f5" />
        </symbol>
        <symbol
           overflow="visible"
           id="id-3d55bf92-c219-4ec7-b926-1ce439ef46a0">
          <path
             style="stroke:none;stroke-width:0"
             d="m 2.875,-2.5 c 0,-0.765625 -0.109375,-1.96875 -0.65625,-3.109375 -0.59375,-1.21875 -1.453125,-1.875 -1.546875,-1.875 -0.0625,0 -0.109375,0.046875 -0.109375,0.109375 0,0.03125 0,0.046875 0.1875,0.234375 0.984375,0.984375 1.546875,2.5625 1.546875,4.640625 0,1.71875 -0.359375,3.46875 -1.59375,4.71875 C 0.5625,2.34375 0.5625,2.359375 0.5625,2.390625 0.5625,2.453125 0.609375,2.5 0.671875,2.5 0.765625,2.5 1.671875,1.8125 2.25,0.546875 2.765625,-0.546875 2.875,-1.65625 2.875,-2.5 Z m 0,0"
             id="id-f028807c-442a-457b-a4cf-8e1c94bd8639" />
        </symbol>
      </g>
    </defs>
    <defs
       id="id-bc759ec4-a5f1-4d3a-b13e-7da2d16fd546">
      <g
         id="id-8ed5c8c4-7e7d-4118-a5f1-2d226e2cfb5b">
        <symbol
           overflow="visible"
           id="id-e7ded544-eccc-4b10-8ead-05e38e4d4d68">
          <path
             style="stroke:none;stroke-width:0"
             d=""
             id="id-b50183f1-908f-4412-8334-476971824ba6" />
        </symbol>
        <symbol
           overflow="visible"
           id="id-08eae85d-b2ad-4fb3-bed5-7d8461ffc546">
          <path
             style="stroke:none;stroke-width:0"
             d="M 3.71875,-3.765625 C 3.53125,-4.140625 3.25,-4.40625 2.796875,-4.40625 c -1.15625,0 -2.390625,1.46875 -2.390625,2.921875 0,0.9375 0.546875,1.59375 1.3125,1.59375 0.203125,0 0.703125,-0.046875 1.296875,-0.75 0.078125,0.421875 0.4375,0.75 0.90625,0.75 0.359375,0 0.578125,-0.234375 0.75,-0.546875 0.15625,-0.359375 0.296875,-0.96875 0.296875,-0.984375 0,-0.109375 -0.09375,-0.109375 -0.125,-0.109375 -0.09375,0 -0.109375,0.046875 -0.140625,0.1875 -0.171875,0.640625 -0.34375,1.234375 -0.75,1.234375 -0.28125,0 -0.296875,-0.265625 -0.296875,-0.453125 0,-0.21875 0.015625,-0.3125 0.125,-0.75 C 3.890625,-1.71875 3.90625,-1.828125 4,-2.203125 L 4.359375,-3.59375 c 0.0625,-0.28125 0.0625,-0.296875 0.0625,-0.34375 0,-0.171875 -0.109375,-0.265625 -0.28125,-0.265625 -0.25,0 -0.390625,0.21875 -0.421875,0.4375 z M 3.078125,-1.1875 C 3.015625,-1 3.015625,-0.984375 2.875,-0.8125 2.4375,-0.265625 2.03125,-0.109375 1.75,-0.109375 c -0.5,0 -0.640625,-0.546875 -0.640625,-0.9375 0,-0.5 0.3125,-1.71875 0.546875,-2.1875 0.3125,-0.578125 0.75,-0.953125 1.15625,-0.953125 0.640625,0 0.78125,0.8125 0.78125,0.875 0,0.0625 -0.015625,0.125 -0.03125,0.171875 z m 0,0"
             id="id-7c7625b5-639a-4659-bb32-a752c5c16431" />
        </symbol>
        <symbol
           overflow="visible"
           id="id-4494b055-d318-4d74-942e-1f6d5d82fd68">
          <path
             style="stroke:none;stroke-width:0"
             d="m 2.375,-6.8125 c 0,0 0,-0.109375 -0.125,-0.109375 -0.21875,0 -0.953125,0.078125 -1.21875,0.109375 -0.078125,0 -0.1875,0.015625 -0.1875,0.1875 0,0.125 0.09375,0.125 0.25,0.125 0.46875,0 0.484375,0.0625 0.484375,0.171875 0,0.0625 -0.078125,0.40625 -0.125,0.609375 l -0.828125,3.25 c -0.109375,0.5 -0.15625,0.671875 -0.15625,1.015625 0,0.9375 0.53125,1.5625 1.265625,1.5625 1.171875,0 2.40625,-1.484375 2.40625,-2.921875 0,-0.90625 -0.53125,-1.59375 -1.328125,-1.59375 -0.453125,0 -0.875,0.296875 -1.171875,0.59375 z M 1.453125,-3.046875 C 1.5,-3.265625 1.5,-3.28125 1.59375,-3.390625 2.078125,-4.03125 2.53125,-4.1875 2.796875,-4.1875 c 0.359375,0 0.625,0.296875 0.625,0.9375 0,0.59375 -0.328125,1.734375 -0.515625,2.109375 -0.328125,0.671875 -0.78125,1.03125 -1.171875,1.03125 -0.34375,0 -0.671875,-0.265625 -0.671875,-1 0,-0.203125 0,-0.390625 0.15625,-1.015625 z m 0,0"
             id="id-919bdf0b-b827-4d76-b918-c2ac46192649" />
        </symbol>
        <symbol
           overflow="visible"
           id="id-d61cfff8-38d1-4e24-8622-b2204a1fdefd">
          <path
             style="stroke:none;stroke-width:0"
             d="m 3.65625,-3.984375 h 0.859375 c 0.203125,0 0.296875,0 0.296875,-0.203125 0,-0.109375 -0.09375,-0.109375 -0.265625,-0.109375 H 3.71875 L 3.921875,-5.4375 c 0.046875,-0.203125 0.1875,-0.90625 0.25,-1.03125 0.078125,-0.1875 0.25,-0.34375 0.46875,-0.34375 0.03125,0 0.296875,0 0.484375,0.1875 -0.4375,0.03125 -0.546875,0.390625 -0.546875,0.53125 0,0.234375 0.1875,0.359375 0.375,0.359375 C 5.21875,-5.734375 5.5,-5.96875 5.5,-6.34375 c 0,-0.453125 -0.453125,-0.6875 -0.859375,-0.6875 -0.34375,0 -0.96875,0.1875 -1.265625,1.171875 -0.0625,0.203125 -0.09375,0.3125 -0.328125,1.5625 h -0.6875 c -0.203125,0 -0.3125,0 -0.3125,0.1875 0,0.125 0.09375,0.125 0.28125,0.125 h 0.65625 L 2.25,-0.046875 c -0.1875,0.96875 -0.359375,1.875 -0.875,1.875 -0.046875,0 -0.28125,0 -0.484375,-0.1875 C 1.359375,1.609375 1.453125,1.25 1.453125,1.109375 1.453125,0.875 1.265625,0.75 1.078125,0.75 0.8125,0.75 0.53125,0.984375 0.53125,1.359375 c 0,0.4375 0.4375,0.6875 0.84375,0.6875 0.546875,0 0.953125,-0.59375 1.125,-0.96875 0.328125,-0.625 0.546875,-1.828125 0.5625,-1.90625 z m 0,0"
             id="id-76bb6b68-7bf6-4af7-9279-a31f478528ae" />
        </symbol>
        <symbol
           overflow="visible"
           id="id-7d7a5798-93b2-4776-9dd6-610af268892c">
          <path
             style="stroke:none;stroke-width:0"
             d="m 3.953125,-3.78125 c -0.171875,0 -0.296875,0 -0.4375,0.125 -0.171875,0.15625 -0.1875,0.328125 -0.1875,0.390625 0,0.25 0.1875,0.359375 0.375,0.359375 0.28125,0 0.546875,-0.25 0.546875,-0.640625 0,-0.484375 -0.46875,-0.859375 -1.171875,-0.859375 -1.34375,0 -2.671875,1.421875 -2.671875,2.828125 0,0.90625 0.578125,1.6875 1.625,1.6875 1.421875,0 2.25,-1.0625 2.25,-1.171875 0,-0.0625 -0.046875,-0.140625 -0.109375,-0.140625 -0.0625,0 -0.078125,0.03125 -0.140625,0.109375 -0.78125,0.984375 -1.875,0.984375 -1.984375,0.984375 -0.625,0 -0.90625,-0.484375 -0.90625,-1.09375 0,-0.40625 0.203125,-1.375 0.546875,-1.984375 0.3125,-0.578125 0.859375,-1 1.40625,-1 0.328125,0 0.71875,0.125 0.859375,0.40625 z m 0,0"
             id="id-cf94c282-b982-4418-b17d-aeb93471f02f" />
        </symbol>
        <symbol
           overflow="visible"
           id="id-c2b3e1b0-ec23-47b6-8348-3ad0bb89767e">
          <path
             style="stroke:none;stroke-width:0"
             d="m 5.140625,-6.8125 c 0,0 0,-0.109375 -0.125,-0.109375 -0.15625,0 -1.09375,0.09375 -1.265625,0.109375 -0.078125,0.015625 -0.140625,0.0625 -0.140625,0.1875 0,0.125 0.09375,0.125 0.234375,0.125 0.484375,0 0.5,0.0625 0.5,0.171875 L 4.3125,-6.125 3.71875,-3.765625 C 3.53125,-4.140625 3.25,-4.40625 2.796875,-4.40625 c -1.15625,0 -2.390625,1.46875 -2.390625,2.921875 0,0.9375 0.546875,1.59375 1.3125,1.59375 0.203125,0 0.703125,-0.046875 1.296875,-0.75 0.078125,0.421875 0.4375,0.75 0.90625,0.75 0.359375,0 0.578125,-0.234375 0.75,-0.546875 0.15625,-0.359375 0.296875,-0.96875 0.296875,-0.984375 0,-0.109375 -0.09375,-0.109375 -0.125,-0.109375 -0.09375,0 -0.109375,0.046875 -0.140625,0.1875 -0.171875,0.640625 -0.34375,1.234375 -0.75,1.234375 -0.28125,0 -0.296875,-0.265625 -0.296875,-0.453125 0,-0.25 0.015625,-0.3125 0.046875,-0.484375 z m -2.0625,5.625 C 3.015625,-1 3.015625,-0.984375 2.875,-0.8125 2.4375,-0.265625 2.03125,-0.109375 1.75,-0.109375 c -0.5,0 -0.640625,-0.546875 -0.640625,-0.9375 0,-0.5 0.3125,-1.71875 0.546875,-2.1875 0.3125,-0.578125 0.75,-0.953125 1.15625,-0.953125 0.640625,0 0.78125,0.8125 0.78125,0.875 0,0.0625 -0.015625,0.125 -0.03125,0.171875 z m 0,0"
             id="id-6fb6f41f-ecab-46b6-893c-cb7096e319a6" />
        </symbol>
        <symbol
           overflow="visible"
           id="id-ec5b3ab5-1c76-44ec-bc27-5a5911dbefb4">
          <path
             style="stroke:none;stroke-width:0"
             d=""
             id="id-1a1ed5f0-4a64-4690-a2fc-1d0140083ac1" />
        </symbol>
        <symbol
           overflow="visible"
           id="id-e487efee-872f-4700-aaf3-09dd5706fd84">
          <path
             style="stroke:none;stroke-width:0"
             d="m 6.84375,-3.265625 c 0.15625,0 0.34375,0 0.34375,-0.1875 C 7.1875,-3.65625 7,-3.65625 6.859375,-3.65625 h -5.96875 c -0.140625,0 -0.328125,0 -0.328125,0.203125 0,0.1875 0.1875,0.1875 0.328125,0.1875 z m 0.015625,1.9375 c 0.140625,0 0.328125,0 0.328125,-0.203125 0,-0.1875 -0.1875,-0.1875 -0.34375,-0.1875 H 0.890625 c -0.140625,0 -0.328125,0 -0.328125,0.1875 0,0.203125 0.1875,0.203125 0.328125,0.203125 z m 0,0"
             id="id-7d4306c2-30a8-4064-a03b-e8b8307ff817" />
        </symbol>
        <symbol
           overflow="visible"
           id="id-888c499f-aa9c-43d5-bfa9-f2566bbc77f1">
          <path
             style="stroke:none;stroke-width:0"
             d="m 3.296875,2.390625 c 0,-0.03125 0,-0.046875 -0.171875,-0.21875 C 1.890625,0.921875 1.5625,-0.96875 1.5625,-2.5 c 0,-1.734375 0.375,-3.46875 1.609375,-4.703125 0.125,-0.125 0.125,-0.140625 0.125,-0.171875 0,-0.078125 -0.03125,-0.109375 -0.09375,-0.109375 -0.109375,0 -1,0.6875 -1.59375,1.953125 -0.5,1.09375 -0.625,2.203125 -0.625,3.03125 0,0.78125 0.109375,1.984375 0.65625,3.125 C 2.25,1.84375 3.09375,2.5 3.203125,2.5 c 0.0625,0 0.09375,-0.03125 0.09375,-0.109375 z m 0,0"
             id="id-3a8428f8-5beb-4803-907b-934a6777a4e8" />
        </symbol>
        <symbol
           overflow="visible"
           id="id-d4286635-a0fa-4317-beb6-23529c0a6731">
          <path
             style="stroke:none;stroke-width:0"
             d="m 2.875,-2.5 c 0,-0.765625 -0.109375,-1.96875 -0.65625,-3.109375 -0.59375,-1.21875 -1.453125,-1.875 -1.546875,-1.875 -0.0625,0 -0.109375,0.046875 -0.109375,0.109375 0,0.03125 0,0.046875 0.1875,0.234375 0.984375,0.984375 1.546875,2.5625 1.546875,4.640625 0,1.71875 -0.359375,3.46875 -1.59375,4.71875 C 0.5625,2.34375 0.5625,2.359375 0.5625,2.390625 0.5625,2.453125 0.609375,2.5 0.671875,2.5 0.765625,2.5 1.671875,1.8125 2.25,0.546875 2.765625,-0.546875 2.875,-1.65625 2.875,-2.5 Z m 0,0"
             id="id-4af7cb9b-309f-49af-ba3a-3c66ecd3309a" />
        </symbol>
      </g>
    </defs>
  </defs>
  <g
     inkscape:label="Layer 1"
     inkscape:groupmode="layer"
     id="layer1"
     transform="translate(-13.047339,-168.93435)">
    <g
       id="g3693">
      <rect
         style="font-variation-settings:normal;vector-effect:none;fill:#bdcdd4;fill-opacity:1;fill-rule:evenodd;stroke:#000000;stroke-width:0.264583;stroke-linecap:butt;stroke-linejoin:miter;stroke-miterlimit:4;stroke-dasharray:none;stroke-dashoffset:0;stroke-opacity:1;stop-color:#000000"
         id="rect2453"
         width="18.52084"
         height="13.229172"
         x="93.927078"
         y="174.62498"
         ry="0" />
      <rect
         style="font-variation-settings:normal;vector-effect:none;fill:#bdcdd4;fill-opacity:1;fill-rule:evenodd;stroke:#000000;stroke-width:0.264583;stroke-linecap:butt;stroke-linejoin:miter;stroke-miterlimit:4;stroke-dasharray:none;stroke-dashoffset:0;stroke-opacity:1;stop-color:#000000"
         id="rect2451"
         width="18.52083"
         height="13.229172"
         x="72.760422"
         y="174.62498"
         ry="0" />
      <rect
         style="font-variation-settings:normal;vector-effect:none;fill:#bdcdd4;fill-opacity:1;fill-rule:evenodd;stroke:#000000;stroke-width:0.264583;stroke-linecap:butt;stroke-linejoin:miter;stroke-miterlimit:4;stroke-dasharray:none;stroke-dashoffset:0;stroke-opacity:1;stop-color:#000000"
         id="rect2449"
         width="18.52083"
         height="13.229172"
         x="51.593754"
         y="174.62498"
         ry="0" />
      <rect
         style="font-variation-settings:normal;vector-effect:none;fill:#bdcdd4;fill-opacity:1;fill-rule:evenodd;stroke:#000000;stroke-width:0.264583;stroke-linecap:butt;stroke-linejoin:miter;stroke-miterlimit:4;stroke-dasharray:none;stroke-dashoffset:0;stroke-opacity:1;stop-color:#000000"
         id="rect4681"
         width="18.520834"
         height="13.229172"
         x="30.427084"
         y="174.62498"
         ry="0" />
      <rect
         style="font-variation-settings:normal;vector-effect:none;fill:#364e59;fill-opacity:1;fill-rule:evenodd;stroke:#000000;stroke-width:0.264583;stroke-linecap:butt;stroke-linejoin:miter;stroke-miterlimit:4;stroke-dasharray:none;stroke-dashoffset:0;stroke-opacity:1;stop-color:#000000"
         id="rect2348"
         width="18.520834"
         height="7.9374952"
         x="30.42708"
         y="177.27083"
         ry="5.0862632e-06" />
      <rect
         style="font-variation-settings:normal;vector-effect:none;fill:#364e59;fill-opacity:1;fill-rule:evenodd;stroke:#000000;stroke-width:0.264583;stroke-linecap:butt;stroke-linejoin:miter;stroke-miterlimit:4;stroke-dasharray:none;stroke-dashoffset:0;stroke-opacity:1;stop-color:#000000"
         id="rect2332"
         width="18.520834"
         height="7.9374952"
         x="93.927071"
         y="177.27083"
         ry="5.0862632e-06" />
      <rect
         style="font-variation-settings:normal;vector-effect:none;fill:#364e59;fill-opacity:1;fill-rule:evenodd;stroke:#000000;stroke-width:0.264583;stroke-linecap:butt;stroke-linejoin:miter;stroke-miterlimit:4;stroke-dasharray:none;stroke-dashoffset:0;stroke-opacity:1;stop-color:#000000"
         id="rect2316"
         width="18.520834"
         height="7.9374952"
         x="72.760414"
         y="177.27083"
         ry="5.0862632e-06" />
      <g
         id="g2642"
         transform="translate(-15.643446,31.749996)">
        <g
           transform="matrix(0.54554891,0,0,0.54554891,28.554398,140.55141)"
           id="g1948"
           style="fill:#000000;fill-opacity:1">
          <path
             style="stroke:none;stroke-width:0"
             d="m 2.21875,-3.6875 h 1.625 c 0.15625,0 0.40625,0 0.40625,-0.296875 0,-0.3125 -0.25,-0.3125 -0.40625,-0.3125 h -1.625 v -0.8125 c 0,-0.1875 0,-0.40625 -0.34375,-0.40625 -0.34375,0 -0.34375,0.203125 -0.34375,0.40625 v 0.8125 h -0.875 c -0.15625,0 -0.40625,0 -0.40625,0.3125 0,0.296875 0.25,0.296875 0.390625,0.296875 H 1.53125 V -1.25 c 0,0.953125 0.671875,1.3125 1.40625,1.3125 0.734375,0 1.53125,-0.4375 1.53125,-1.3125 0,-0.1875 0,-0.390625 -0.34375,-0.390625 -0.328125,0 -0.34375,0.203125 -0.34375,0.375 0,0.625 -0.578125,0.71875 -0.796875,0.71875 -0.765625,0 -0.765625,-0.515625 -0.765625,-0.765625 z m 0,0"
             id="id-e14946c6-452f-489e-bc9d-88d4af525f08" />
        </g>
        <g
           transform="matrix(0.54554891,0,0,0.54554891,31.407618,140.55141)"
           id="g1951"
           style="fill:#000000;fill-opacity:1">
          <path
             style="stroke:none;stroke-width:0"
             d="m 3.078125,-3.890625 c 0,-0.3125 -0.0625,-0.40625 -0.390625,-0.40625 H 1.265625 c -0.15625,0 -0.40625,0 -0.40625,0.296875 0,0.3125 0.25,0.3125 0.40625,0.3125 h 1.125 v 3.078125 H 1.1875 c -0.15625,0 -0.40625,0 -0.40625,0.3125 C 0.78125,0 1.03125,0 1.1875,0 H 4.125 c 0.15625,0 0.40625,0 0.40625,-0.296875 0,-0.3125 -0.25,-0.3125 -0.40625,-0.3125 H 3.078125 Z m 0,-1.71875 c 0,-0.265625 -0.21875,-0.484375 -0.5,-0.484375 -0.28125,0 -0.5,0.21875 -0.5,0.484375 0,0.28125 0.21875,0.5 0.5,0.5 0.28125,0 0.5,-0.21875 0.5,-0.5 z m 0,0"
             id="id-ea058029-542f-467c-bbac-408faeb10f6a" />
        </g>
        <g
           transform="matrix(0.54554891,0,0,0.54554891,34.261385,140.55141)"
           id="g1954"
           style="fill:#000000;fill-opacity:1">
          <path
             style="stroke:none;stroke-width:0"
             d="M 1.09375,-4 C 1.0625,-4.296875 0.875,-4.296875 0.6875,-4.296875 H 0.375 c -0.15625,0 -0.421875,0 -0.421875,0.296875 0,0.3125 0.21875,0.3125 0.578125,0.3125 v 3.078125 c -0.359375,0 -0.578125,0 -0.578125,0.3125 C -0.046875,0 0.234375,0 0.375,0 H 1.25 c 0.140625,0 0.40625,0 0.40625,-0.296875 0,-0.3125 -0.203125,-0.3125 -0.5625,-0.3125 v -1.78125 C 1.09375,-3.28125 1.5,-3.75 1.90625,-3.75 c 0.234375,0 0.359375,0.171875 0.359375,0.8125 v 2.328125 c -0.1875,0 -0.4375,0 -0.4375,0.3125 C 1.828125,0 2.109375,0 2.25,0 h 0.734375 c 0.15625,0 0.421875,0 0.421875,-0.296875 0,-0.3125 -0.21875,-0.3125 -0.578125,-0.3125 v -1.78125 c 0,-0.890625 0.40625,-1.359375 0.828125,-1.359375 0.21875,0 0.359375,0.171875 0.359375,0.8125 v 2.328125 c -0.1875,0 -0.4375,0 -0.4375,0.3125 C 3.578125,0 3.84375,0 3.984375,0 h 0.75 c 0.15625,0 0.40625,0 0.40625,-0.296875 0,-0.3125 -0.203125,-0.3125 -0.5625,-0.3125 v -2.40625 c 0,-0.203125 0,-1.34375 -0.890625,-1.34375 -0.296875,0 -0.703125,0.125 -0.984375,0.515625 C 2.546875,-4.171875 2.265625,-4.359375 1.9375,-4.359375 1.625,-4.359375 1.328125,-4.21875 1.09375,-4 Z m 0,0"
             id="id-621a14f7-06ea-45a5-b782-4f5d59f3e02a" />
        </g>
        <g
           transform="matrix(0.54554891,0,0,0.54554891,37.114605,140.55141)"
           id="g1957"
           style="fill:#000000;fill-opacity:1">
          <path
             style="stroke:none;stroke-width:0"
             d="m 4.234375,-1.90625 c 0.203125,0 0.390625,0 0.390625,-0.359375 0,-1.140625 -0.640625,-2.125 -1.9375,-2.125 -1.1875,0 -2.140625,1 -2.140625,2.234375 0,1.203125 1.015625,2.21875 2.296875,2.21875 1.3125,0 1.78125,-0.90625 1.78125,-1.15625 0,-0.265625 -0.28125,-0.265625 -0.34375,-0.265625 -0.1875,0 -0.265625,0.03125 -0.328125,0.21875 -0.21875,0.5 -0.765625,0.59375 -1.046875,0.59375 -0.75,0 -1.484375,-0.5 -1.65625,-1.359375 z M 1.265625,-2.5 C 1.40625,-3.234375 2,-3.78125 2.6875,-3.78125 c 0.515625,0 1.140625,0.25 1.234375,1.28125 z m 0,0"
             id="id-32063d5d-1c27-451a-964c-fd6331c445e6" />
        </g>
      </g>
      <g
         transform="matrix(0.44471029,0,0,0.44471029,38.492338,182.19501)"
         id="g1411"
         style="fill:#ff9900;fill-opacity:1">
        <path
           style="fill:#ff9900;stroke:none;stroke-width:0"
           d="M 3.71875,-3.765625 C 3.53125,-4.140625 3.25,-4.40625 2.796875,-4.40625 c -1.15625,0 -2.390625,1.46875 -2.390625,2.921875 0,0.9375 0.546875,1.59375 1.3125,1.59375 0.203125,0 0.703125,-0.046875 1.296875,-0.75 0.078125,0.421875 0.4375,0.75 0.90625,0.75 0.359375,0 0.578125,-0.234375 0.75,-0.546875 0.15625,-0.359375 0.296875,-0.96875 0.296875,-0.984375 0,-0.109375 -0.09375,-0.109375 -0.125,-0.109375 -0.09375,0 -0.109375,0.046875 -0.140625,0.1875 -0.171875,0.640625 -0.34375,1.234375 -0.75,1.234375 -0.28125,0 -0.296875,-0.265625 -0.296875,-0.453125 0,-0.21875 0.015625,-0.3125 0.125,-0.75 C 3.890625,-1.71875 3.90625,-1.828125 4,-2.203125 L 4.359375,-3.59375 c 0.0625,-0.28125 0.0625,-0.296875 0.0625,-0.34375 0,-0.171875 -0.109375,-0.265625 -0.28125,-0.265625 -0.25,0 -0.390625,0.21875 -0.421875,0.4375 z M 3.078125,-1.1875 C 3.015625,-1 3.015625,-0.984375 2.875,-0.8125 2.4375,-0.265625 2.03125,-0.109375 1.75,-0.109375 c -0.5,0 -0.640625,-0.546875 -0.640625,-0.9375 0,-0.5 0.3125,-1.71875 0.546875,-2.1875 0.3125,-0.578125 0.75,-0.953125 1.15625,-0.953125 0.640625,0 0.78125,0.8125 0.78125,0.875 0,0.0625 -0.015625,0.125 -0.03125,0.171875 z m 0,0"
           id="id-364d544a-091a-4cf6-9a8a-fc8817acfdc2" />
      </g>
      <rect
         style="font-variation-settings:normal;vector-effect:none;fill:#364e59;fill-opacity:1;fill-rule:evenodd;stroke:#000000;stroke-width:0.264583;stroke-linecap:butt;stroke-linejoin:miter;stroke-miterlimit:4;stroke-dasharray:none;stroke-dashoffset:0;stroke-opacity:1;stop-color:#000000"
         id="rect2102"
         width="18.520834"
         height="7.9374952"
         x="51.59375"
         y="177.27083"
         ry="5.0862632e-06" />
      <g
         id="g2215"
         transform="translate(30.636403,-6.7132127)">
        <g
           transform="matrix(0.44471029,0,0,0.44471029,22.214368,189.06109)"
           id="g1414"
           style="fill:#ff9900;fill-opacity:1">
          <path
             style="fill:#ff9900;stroke:none;stroke-width:0"
             d="m 2.375,-6.8125 c 0,0 0,-0.109375 -0.125,-0.109375 -0.21875,0 -0.953125,0.078125 -1.21875,0.109375 -0.078125,0 -0.1875,0.015625 -0.1875,0.1875 0,0.125 0.09375,0.125 0.25,0.125 0.46875,0 0.484375,0.0625 0.484375,0.171875 0,0.0625 -0.078125,0.40625 -0.125,0.609375 l -0.828125,3.25 c -0.109375,0.5 -0.15625,0.671875 -0.15625,1.015625 0,0.9375 0.53125,1.5625 1.265625,1.5625 1.171875,0 2.40625,-1.484375 2.40625,-2.921875 0,-0.90625 -0.53125,-1.59375 -1.328125,-1.59375 -0.453125,0 -0.875,0.296875 -1.171875,0.59375 z M 1.453125,-3.046875 C 1.5,-3.265625 1.5,-3.28125 1.59375,-3.390625 2.078125,-4.03125 2.53125,-4.1875 2.796875,-4.1875 c 0.359375,0 0.625,0.296875 0.625,0.9375 0,0.59375 -0.328125,1.734375 -0.515625,2.109375 -0.328125,0.671875 -0.78125,1.03125 -1.171875,1.03125 -0.34375,0 -0.671875,-0.265625 -0.671875,-1 0,-0.203125 0,-0.390625 0.15625,-1.015625 z m 0,0"
             id="id-6cd2491a-8cef-4147-a707-db2104eecc4f" />
        </g>
        <g
           transform="matrix(0.44471029,0,0,0.44471029,25.346463,189.06109)"
           id="g1418"
           style="fill:#ff9900;fill-opacity:1">
          <path
             style="fill:#ff9900;stroke:none;stroke-width:0"
             d="m 6.84375,-3.265625 c 0.15625,0 0.34375,0 0.34375,-0.1875 C 7.1875,-3.65625 7,-3.65625 6.859375,-3.65625 h -5.96875 c -0.140625,0 -0.328125,0 -0.328125,0.203125 0,0.1875 0.1875,0.1875 0.328125,0.1875 z m 0.015625,1.9375 c 0.140625,0 0.328125,0 0.328125,-0.203125 0,-0.1875 -0.1875,-0.1875 -0.34375,-0.1875 H 0.890625 c -0.140625,0 -0.328125,0 -0.328125,0.1875 0,0.203125 0.1875,0.203125 0.328125,0.203125 z m 0,0"
             id="id-2d018727-c3af-4b8e-8117-45b8d1f11f90" />
        </g>
        <g
           transform="matrix(0.44471029,0,0,0.44471029,30.023036,189.06109)"
           id="g1422"
           style="fill:#ff9900;fill-opacity:1">
          <path
             style="fill:#ff9900;stroke:none;stroke-width:0"
             d="m 3.65625,-3.984375 h 0.859375 c 0.203125,0 0.296875,0 0.296875,-0.203125 0,-0.109375 -0.09375,-0.109375 -0.265625,-0.109375 H 3.71875 L 3.921875,-5.4375 c 0.046875,-0.203125 0.1875,-0.90625 0.25,-1.03125 0.078125,-0.1875 0.25,-0.34375 0.46875,-0.34375 0.03125,0 0.296875,0 0.484375,0.1875 -0.4375,0.03125 -0.546875,0.390625 -0.546875,0.53125 0,0.234375 0.1875,0.359375 0.375,0.359375 C 5.21875,-5.734375 5.5,-5.96875 5.5,-6.34375 c 0,-0.453125 -0.453125,-0.6875 -0.859375,-0.6875 -0.34375,0 -0.96875,0.1875 -1.265625,1.171875 -0.0625,0.203125 -0.09375,0.3125 -0.328125,1.5625 h -0.6875 c -0.203125,0 -0.3125,0 -0.3125,0.1875 0,0.125 0.09375,0.125 0.28125,0.125 h 0.65625 L 2.25,-0.046875 c -0.1875,0.96875 -0.359375,1.875 -0.875,1.875 -0.046875,0 -0.28125,0 -0.484375,-0.1875 C 1.359375,1.609375 1.453125,1.25 1.453125,1.109375 1.453125,0.875 1.265625,0.75 1.078125,0.75 0.8125,0.75 0.53125,0.984375 0.53125,1.359375 c 0,0.4375 0.4375,0.6875 0.84375,0.6875 0.546875,0 0.953125,-0.59375 1.125,-0.96875 0.328125,-0.625 0.546875,-1.828125 0.5625,-1.90625 z m 0,0"
             id="id-3cfdb4bb-64ae-4fbf-b88d-5ba2757b32b0" />
        </g>
        <g
           transform="matrix(0.44471029,0,0,0.44471029,32.669062,189.06109)"
           id="g1426"
           style="fill:#ff9900;fill-opacity:1">
          <path
             style="fill:#ff9900;stroke:none;stroke-width:0"
             d="m 3.296875,2.390625 c 0,-0.03125 0,-0.046875 -0.171875,-0.21875 C 1.890625,0.921875 1.5625,-0.96875 1.5625,-2.5 c 0,-1.734375 0.375,-3.46875 1.609375,-4.703125 0.125,-0.125 0.125,-0.140625 0.125,-0.171875 0,-0.078125 -0.03125,-0.109375 -0.09375,-0.109375 -0.109375,0 -1,0.6875 -1.59375,1.953125 -0.5,1.09375 -0.625,2.203125 -0.625,3.03125 0,0.78125 0.109375,1.984375 0.65625,3.125 C 2.25,1.84375 3.09375,2.5 3.203125,2.5 c 0.0625,0 0.09375,-0.03125 0.09375,-0.109375 z m 0,0"
             id="id-cfd51e74-f84b-4d94-aabb-8f2076dd9559" />
        </g>
        <g
           transform="matrix(0.44471029,0,0,0.44471029,34.392315,189.06109)"
           id="g1430"
           style="fill:#ff9900;fill-opacity:1">
          <path
             style="fill:#ff9900;stroke:none;stroke-width:0"
             d="M 3.71875,-3.765625 C 3.53125,-4.140625 3.25,-4.40625 2.796875,-4.40625 c -1.15625,0 -2.390625,1.46875 -2.390625,2.921875 0,0.9375 0.546875,1.59375 1.3125,1.59375 0.203125,0 0.703125,-0.046875 1.296875,-0.75 0.078125,0.421875 0.4375,0.75 0.90625,0.75 0.359375,0 0.578125,-0.234375 0.75,-0.546875 0.15625,-0.359375 0.296875,-0.96875 0.296875,-0.984375 0,-0.109375 -0.09375,-0.109375 -0.125,-0.109375 -0.09375,0 -0.109375,0.046875 -0.140625,0.1875 -0.171875,0.640625 -0.34375,1.234375 -0.75,1.234375 -0.28125,0 -0.296875,-0.265625 -0.296875,-0.453125 0,-0.21875 0.015625,-0.3125 0.125,-0.75 C 3.890625,-1.71875 3.90625,-1.828125 4,-2.203125 L 4.359375,-3.59375 c 0.0625,-0.28125 0.0625,-0.296875 0.0625,-0.34375 0,-0.171875 -0.109375,-0.265625 -0.28125,-0.265625 -0.25,0 -0.390625,0.21875 -0.421875,0.4375 z M 3.078125,-1.1875 C 3.015625,-1 3.015625,-0.984375 2.875,-0.8125 2.4375,-0.265625 2.03125,-0.109375 1.75,-0.109375 c -0.5,0 -0.640625,-0.546875 -0.640625,-0.9375 0,-0.5 0.3125,-1.71875 0.546875,-2.1875 0.3125,-0.578125 0.75,-0.953125 1.15625,-0.953125 0.640625,0 0.78125,0.8125 0.78125,0.875 0,0.0625 -0.015625,0.125 -0.03125,0.171875 z m 0,0"
             id="id-62728047-8f50-4a3b-8fa5-dfcb662a37e6" />
        </g>
        <g
           transform="matrix(0.44471029,0,0,0.44471029,36.734159,189.06109)"
           id="g1434"
           style="fill:#ff9900;fill-opacity:1">
          <path
             style="fill:#ff9900;stroke:none;stroke-width:0"
             d="m 2.875,-2.5 c 0,-0.765625 -0.109375,-1.96875 -0.65625,-3.109375 -0.59375,-1.21875 -1.453125,-1.875 -1.546875,-1.875 -0.0625,0 -0.109375,0.046875 -0.109375,0.109375 0,0.03125 0,0.046875 0.1875,0.234375 0.984375,0.984375 1.546875,2.5625 1.546875,4.640625 0,1.71875 -0.359375,3.46875 -1.59375,4.71875 C 0.5625,2.34375 0.5625,2.359375 0.5625,2.390625 0.5625,2.453125 0.609375,2.5 0.671875,2.5 0.765625,2.5 1.671875,1.8125 2.25,0.546875 2.765625,-0.546875 2.875,-1.65625 2.875,-2.5 Z m 0,0"
             id="id-989ac8bd-804c-4b8c-9026-52f970bce25a" />
        </g>
      </g>
      <g
         id="g2330"
         transform="translate(35.786715,-6.7132127)">
        <g
           transform="matrix(0.44471029,0,0,0.44471029,38.456967,189.06109)"
           id="g1438"
           style="fill:#ff9900;fill-opacity:1">
          <path
             style="fill:#ff9900;stroke:none;stroke-width:0"
             d="m 3.953125,-3.78125 c -0.171875,0 -0.296875,0 -0.4375,0.125 -0.171875,0.15625 -0.1875,0.328125 -0.1875,0.390625 0,0.25 0.1875,0.359375 0.375,0.359375 0.28125,0 0.546875,-0.25 0.546875,-0.640625 0,-0.484375 -0.46875,-0.859375 -1.171875,-0.859375 -1.34375,0 -2.671875,1.421875 -2.671875,2.828125 0,0.90625 0.578125,1.6875 1.625,1.6875 1.421875,0 2.25,-1.0625 2.25,-1.171875 0,-0.0625 -0.046875,-0.140625 -0.109375,-0.140625 -0.0625,0 -0.078125,0.03125 -0.140625,0.109375 -0.78125,0.984375 -1.875,0.984375 -1.984375,0.984375 -0.625,0 -0.90625,-0.484375 -0.90625,-1.09375 0,-0.40625 0.203125,-1.375 0.546875,-1.984375 0.3125,-0.578125 0.859375,-1 1.40625,-1 0.328125,0 0.71875,0.125 0.859375,0.40625 z m 0,0"
             id="id-04f069ae-33bb-4237-bbfa-6d3cc6381f0a" />
        </g>
        <g
           transform="matrix(0.44471029,0,0,0.44471029,41.605071,189.06109)"
           id="g1442"
           style="fill:#ff9900;fill-opacity:1">
          <path
             style="fill:#ff9900;stroke:none;stroke-width:0"
             d="m 6.84375,-3.265625 c 0.15625,0 0.34375,0 0.34375,-0.1875 C 7.1875,-3.65625 7,-3.65625 6.859375,-3.65625 h -5.96875 c -0.140625,0 -0.328125,0 -0.328125,0.203125 0,0.1875 0.1875,0.1875 0.328125,0.1875 z m 0.015625,1.9375 c 0.140625,0 0.328125,0 0.328125,-0.203125 0,-0.1875 -0.1875,-0.1875 -0.34375,-0.1875 H 0.890625 c -0.140625,0 -0.328125,0 -0.328125,0.1875 0,0.203125 0.1875,0.203125 0.328125,0.203125 z m 0,0"
             id="id-cb8268da-208f-4f52-83f6-ad9e8207ca1b" />
        </g>
        <g
           transform="matrix(0.44471029,0,0,0.44471029,46.281644,189.06109)"
           id="g1446"
           style="fill:#ff9900;fill-opacity:1">
          <path
             style="fill:#ff9900;stroke:none;stroke-width:0"
             d="m 3.65625,-3.984375 h 0.859375 c 0.203125,0 0.296875,0 0.296875,-0.203125 0,-0.109375 -0.09375,-0.109375 -0.265625,-0.109375 H 3.71875 L 3.921875,-5.4375 c 0.046875,-0.203125 0.1875,-0.90625 0.25,-1.03125 0.078125,-0.1875 0.25,-0.34375 0.46875,-0.34375 0.03125,0 0.296875,0 0.484375,0.1875 -0.4375,0.03125 -0.546875,0.390625 -0.546875,0.53125 0,0.234375 0.1875,0.359375 0.375,0.359375 C 5.21875,-5.734375 5.5,-5.96875 5.5,-6.34375 c 0,-0.453125 -0.453125,-0.6875 -0.859375,-0.6875 -0.34375,0 -0.96875,0.1875 -1.265625,1.171875 -0.0625,0.203125 -0.09375,0.3125 -0.328125,1.5625 h -0.6875 c -0.203125,0 -0.3125,0 -0.3125,0.1875 0,0.125 0.09375,0.125 0.28125,0.125 h 0.65625 L 2.25,-0.046875 c -0.1875,0.96875 -0.359375,1.875 -0.875,1.875 -0.046875,0 -0.28125,0 -0.484375,-0.1875 C 1.359375,1.609375 1.453125,1.25 1.453125,1.109375 1.453125,0.875 1.265625,0.75 1.078125,0.75 0.8125,0.75 0.53125,0.984375 0.53125,1.359375 c 0,0.4375 0.4375,0.6875 0.84375,0.6875 0.546875,0 0.953125,-0.59375 1.125,-0.96875 0.328125,-0.625 0.546875,-1.828125 0.5625,-1.90625 z m 0,0"
             id="id-7366f006-fdb8-4e64-a85f-b796b8c09300" />
        </g>
        <g
           transform="matrix(0.44471029,0,0,0.44471029,48.92767,189.06109)"
           id="g1450"
           style="fill:#ff9900;fill-opacity:1">
          <path
             style="fill:#ff9900;stroke:none;stroke-width:0"
             d="m 3.296875,2.390625 c 0,-0.03125 0,-0.046875 -0.171875,-0.21875 C 1.890625,0.921875 1.5625,-0.96875 1.5625,-2.5 c 0,-1.734375 0.375,-3.46875 1.609375,-4.703125 0.125,-0.125 0.125,-0.140625 0.125,-0.171875 0,-0.078125 -0.03125,-0.109375 -0.09375,-0.109375 -0.109375,0 -1,0.6875 -1.59375,1.953125 -0.5,1.09375 -0.625,2.203125 -0.625,3.03125 0,0.78125 0.109375,1.984375 0.65625,3.125 C 2.25,1.84375 3.09375,2.5 3.203125,2.5 c 0.0625,0 0.09375,-0.03125 0.09375,-0.109375 z m 0,0"
             id="id-ebaa9b76-238c-4ffb-9264-040c16e90b0c" />
        </g>
        <g
           transform="matrix(0.44471029,0,0,0.44471029,50.650478,189.06109)"
           id="g1454"
           style="fill:#ff9900;fill-opacity:1">
          <path
             style="fill:#ff9900;stroke:none;stroke-width:0"
             d="m 2.375,-6.8125 c 0,0 0,-0.109375 -0.125,-0.109375 -0.21875,0 -0.953125,0.078125 -1.21875,0.109375 -0.078125,0 -0.1875,0.015625 -0.1875,0.1875 0,0.125 0.09375,0.125 0.25,0.125 0.46875,0 0.484375,0.0625 0.484375,0.171875 0,0.0625 -0.078125,0.40625 -0.125,0.609375 l -0.828125,3.25 c -0.109375,0.5 -0.15625,0.671875 -0.15625,1.015625 0,0.9375 0.53125,1.5625 1.265625,1.5625 1.171875,0 2.40625,-1.484375 2.40625,-2.921875 0,-0.90625 -0.53125,-1.59375 -1.328125,-1.59375 -0.453125,0 -0.875,0.296875 -1.171875,0.59375 z M 1.453125,-3.046875 C 1.5,-3.265625 1.5,-3.28125 1.59375,-3.390625 2.078125,-4.03125 2.53125,-4.1875 2.796875,-4.1875 c 0.359375,0 0.625,0.296875 0.625,0.9375 0,0.59375 -0.328125,1.734375 -0.515625,2.109375 -0.328125,0.671875 -0.78125,1.03125 -1.171875,1.03125 -0.34375,0 -0.671875,-0.265625 -0.671875,-1 0,-0.203125 0,-0.390625 0.15625,-1.015625 z m 0,0"
             id="id-fef70370-b01a-4075-922e-cbd2cc02a138" />
        </g>
        <g
           transform="matrix(0.44471029,0,0,0.44471029,52.552059,189.06109)"
           id="g1458"
           style="fill:#ff9900;fill-opacity:1">
          <path
             style="fill:#ff9900;stroke:none;stroke-width:0"
             d="m 2.875,-2.5 c 0,-0.765625 -0.109375,-1.96875 -0.65625,-3.109375 -0.59375,-1.21875 -1.453125,-1.875 -1.546875,-1.875 -0.0625,0 -0.109375,0.046875 -0.109375,0.109375 0,0.03125 0,0.046875 0.1875,0.234375 0.984375,0.984375 1.546875,2.5625 1.546875,4.640625 0,1.71875 -0.359375,3.46875 -1.59375,4.71875 C 0.5625,2.34375 0.5625,2.359375 0.5625,2.390625 0.5625,2.453125 0.609375,2.5 0.671875,2.5 0.765625,2.5 1.671875,1.8125 2.25,0.546875 2.765625,-0.546875 2.875,-1.65625 2.875,-2.5 Z m 0,0"
             id="id-c5991710-8158-46db-9472-4f8aff391240" />
        </g>
      </g>
      <g
         id="g2346"
         transform="translate(40.933129,-6.7132127)">
        <g
           transform="matrix(0.44471029,0,0,0.44471029,54.274866,189.06109)"
           id="g1462"
           style="fill:#ff9900;fill-opacity:1">
          <path
             style="fill:#ff9900;stroke:none;stroke-width:0"
             d="m 5.140625,-6.8125 c 0,0 0,-0.109375 -0.125,-0.109375 -0.15625,0 -1.09375,0.09375 -1.265625,0.109375 -0.078125,0.015625 -0.140625,0.0625 -0.140625,0.1875 0,0.125 0.09375,0.125 0.234375,0.125 0.484375,0 0.5,0.0625 0.5,0.171875 L 4.3125,-6.125 3.71875,-3.765625 C 3.53125,-4.140625 3.25,-4.40625 2.796875,-4.40625 c -1.15625,0 -2.390625,1.46875 -2.390625,2.921875 0,0.9375 0.546875,1.59375 1.3125,1.59375 0.203125,0 0.703125,-0.046875 1.296875,-0.75 0.078125,0.421875 0.4375,0.75 0.90625,0.75 0.359375,0 0.578125,-0.234375 0.75,-0.546875 0.15625,-0.359375 0.296875,-0.96875 0.296875,-0.984375 0,-0.109375 -0.09375,-0.109375 -0.125,-0.109375 -0.09375,0 -0.109375,0.046875 -0.140625,0.1875 -0.171875,0.640625 -0.34375,1.234375 -0.75,1.234375 -0.28125,0 -0.296875,-0.265625 -0.296875,-0.453125 0,-0.25 0.015625,-0.3125 0.046875,-0.484375 z m -2.0625,5.625 C 3.015625,-1 3.015625,-0.984375 2.875,-0.8125 2.4375,-0.265625 2.03125,-0.109375 1.75,-0.109375 c -0.5,0 -0.640625,-0.546875 -0.640625,-0.9375 0,-0.5 0.3125,-1.71875 0.546875,-2.1875 0.3125,-0.578125 0.75,-0.953125 1.15625,-0.953125 0.640625,0 0.78125,0.8125 0.78125,0.875 0,0.0625 -0.015625,0.125 -0.03125,0.171875 z m 0,0"
             id="id-b9dc3ea4-63ba-4fee-885f-0071b330c8cf" />
        </g>
        <g
           transform="matrix(0.44471029,0,0,0.44471029,57.811648,189.06109)"
           id="g1466"
           style="fill:#ff9900;fill-opacity:1">
          <path
             style="fill:#ff9900;stroke:none;stroke-width:0"
             d="m 6.84375,-3.265625 c 0.15625,0 0.34375,0 0.34375,-0.1875 C 7.1875,-3.65625 7,-3.65625 6.859375,-3.65625 h -5.96875 c -0.140625,0 -0.328125,0 -0.328125,0.203125 0,0.1875 0.1875,0.1875 0.328125,0.1875 z m 0.015625,1.9375 c 0.140625,0 0.328125,0 0.328125,-0.203125 0,-0.1875 -0.1875,-0.1875 -0.34375,-0.1875 H 0.890625 c -0.140625,0 -0.328125,0 -0.328125,0.1875 0,0.203125 0.1875,0.203125 0.328125,0.203125 z m 0,0"
             id="id-b3dfe77e-1d64-437e-b28f-e8793e39a439" />
        </g>
        <g
           transform="matrix(0.44471029,0,0,0.44471029,62.488221,189.06109)"
           id="g1470"
           style="fill:#ff9900;fill-opacity:1">
          <path
             style="fill:#ff9900;stroke:none;stroke-width:0"
             d="m 3.65625,-3.984375 h 0.859375 c 0.203125,0 0.296875,0 0.296875,-0.203125 0,-0.109375 -0.09375,-0.109375 -0.265625,-0.109375 H 3.71875 L 3.921875,-5.4375 c 0.046875,-0.203125 0.1875,-0.90625 0.25,-1.03125 0.078125,-0.1875 0.25,-0.34375 0.46875,-0.34375 0.03125,0 0.296875,0 0.484375,0.1875 -0.4375,0.03125 -0.546875,0.390625 -0.546875,0.53125 0,0.234375 0.1875,0.359375 0.375,0.359375 C 5.21875,-5.734375 5.5,-5.96875 5.5,-6.34375 c 0,-0.453125 -0.453125,-0.6875 -0.859375,-0.6875 -0.34375,0 -0.96875,0.1875 -1.265625,1.171875 -0.0625,0.203125 -0.09375,0.3125 -0.328125,1.5625 h -0.6875 c -0.203125,0 -0.3125,0 -0.3125,0.1875 0,0.125 0.09375,0.125 0.28125,0.125 h 0.65625 L 2.25,-0.046875 c -0.1875,0.96875 -0.359375,1.875 -0.875,1.875 -0.046875,0 -0.28125,0 -0.484375,-0.1875 C 1.359375,1.609375 1.453125,1.25 1.453125,1.109375 1.453125,0.875 1.265625,0.75 1.078125,0.75 0.8125,0.75 0.53125,0.984375 0.53125,1.359375 c 0,0.4375 0.4375,0.6875 0.84375,0.6875 0.546875,0 0.953125,-0.59375 1.125,-0.96875 0.328125,-0.625 0.546875,-1.828125 0.5625,-1.90625 z m 0,0"
             id="id-823831e1-a6a3-4433-a56b-9298efd378f3" />
        </g>
        <g
           transform="matrix(0.44471029,0,0,0.44471029,65.134247,189.06109)"
           id="g1474"
           style="fill:#ff9900;fill-opacity:1">
          <path
             style="fill:#ff9900;stroke:none;stroke-width:0"
             d="m 3.296875,2.390625 c 0,-0.03125 0,-0.046875 -0.171875,-0.21875 C 1.890625,0.921875 1.5625,-0.96875 1.5625,-2.5 c 0,-1.734375 0.375,-3.46875 1.609375,-4.703125 0.125,-0.125 0.125,-0.140625 0.125,-0.171875 0,-0.078125 -0.03125,-0.109375 -0.09375,-0.109375 -0.109375,0 -1,0.6875 -1.59375,1.953125 -0.5,1.09375 -0.625,2.203125 -0.625,3.03125 0,0.78125 0.109375,1.984375 0.65625,3.125 C 2.25,1.84375 3.09375,2.5 3.203125,2.5 c 0.0625,0 0.09375,-0.03125 0.09375,-0.109375 z m 0,0"
             id="id-37881198-4101-414a-b50c-6cc6efe3a1dc" />
        </g>
        <g
           transform="matrix(0.44471029,0,0,0.44471029,66.857499,189.06109)"
           id="g1478"
           style="fill:#ff9900;fill-opacity:1">
          <path
             style="fill:#ff9900;stroke:none;stroke-width:0"
             d="m 3.953125,-3.78125 c -0.171875,0 -0.296875,0 -0.4375,0.125 -0.171875,0.15625 -0.1875,0.328125 -0.1875,0.390625 0,0.25 0.1875,0.359375 0.375,0.359375 0.28125,0 0.546875,-0.25 0.546875,-0.640625 0,-0.484375 -0.46875,-0.859375 -1.171875,-0.859375 -1.34375,0 -2.671875,1.421875 -2.671875,2.828125 0,0.90625 0.578125,1.6875 1.625,1.6875 1.421875,0 2.25,-1.0625 2.25,-1.171875 0,-0.0625 -0.046875,-0.140625 -0.109375,-0.140625 -0.0625,0 -0.078125,0.03125 -0.140625,0.109375 -0.78125,0.984375 -1.875,0.984375 -1.984375,0.984375 -0.625,0 -0.90625,-0.484375 -0.90625,-1.09375 0,-0.40625 0.203125,-1.375 0.546875,-1.984375 0.3125,-0.578125 0.859375,-1 1.40625,-1 0.328125,0 0.71875,0.125 0.859375,0.40625 z m 0,0"
             id="id-6c269c8d-d6e0-4655-92f2-c72d42dde8d7" />
        </g>
        <g
           transform="matrix(0.44471029,0,0,0.44471029,68.774645,189.06109)"
           id="g1482"
           style="fill:#ff9900;fill-opacity:1">
          <path
             style="fill:#ff9900;stroke:none;stroke-width:0"
             d="m 2.875,-2.5 c 0,-0.765625 -0.109375,-1.96875 -0.65625,-3.109375 -0.59375,-1.21875 -1.453125,-1.875 -1.546875,-1.875 -0.0625,0 -0.109375,0.046875 -0.109375,0.109375 0,0.03125 0,0.046875 0.1875,0.234375 0.984375,0.984375 1.546875,2.5625 1.546875,4.640625 0,1.71875 -0.359375,3.46875 -1.59375,4.71875 C 0.5625,2.34375 0.5625,2.359375 0.5625,2.390625 0.5625,2.453125 0.609375,2.5 0.671875,2.5 0.765625,2.5 1.671875,1.8125 2.25,0.546875 2.765625,-0.546875 2.875,-1.65625 2.875,-2.5 Z m 0,0"
             id="id-b239bcb5-f810-4c46-810b-3ae46efcc5be" />
        </g>
      </g>
      <path
         style="fill:#000000;fill-opacity:1;stroke:none;stroke-width:0"
         d="m 39.887816,169.18581 c 0,-0.0852 0,-0.22163 -0.16196,-0.22163 -0.10229,0 -0.136387,0.0682 -0.16196,0.12786 -0.204581,0.46884 -0.485879,0.52851 -0.58817,0.53703 -0.09377,0.009 -0.20458,0.017 -0.20458,0.17048 0,0.13639 0.09377,0.16196 0.179008,0.16196 0.10229,0 0.323919,-0.0341 0.562597,-0.23867 v 2.29301 h -0.494404 c -0.08524,0 -0.213105,0 -0.213105,0.17048 0,0.16196 0.136388,0.16196 0.213105,0.16196 h 1.363873 c 0.08524,0 0.221629,0 0.221629,-0.16196 0,-0.17048 -0.127863,-0.17048 -0.221629,-0.17048 h -0.494404 z m 0,0"
         id="id-c8c7af64-96be-4661-85b7-72976410ca2e" />
      <path
         style="fill:#000000;fill-opacity:1;stroke:none;stroke-width:0"
         d="m 59.797164,172.03289 c -0.05115,0.0426 -0.08524,0.0682 -0.08524,0.14492 0,0.17048 0.136387,0.17048 0.221629,0.17048 h 1.849752 c 0.179008,0 0.213105,-0.0511 0.213105,-0.22163 v -0.14491 c 0,-0.10229 0,-0.22163 -0.187533,-0.22163 -0.187532,0 -0.187532,0.10229 -0.187532,0.25573 h -1.295679 c 0.32392,-0.27278 0.843896,-0.68194 1.082574,-0.90357 0.340968,-0.30687 0.58817,-0.64784 0.58817,-1.08257 0,-0.65637 -0.545549,-1.06553 -1.210437,-1.06553 -0.639315,0 -1.074049,0.44326 -1.074049,0.91209 0,0.19606 0.153435,0.25573 0.247202,0.25573 0.110814,0 0.238677,-0.0938 0.238677,-0.23868 0,-0.0682 -0.02557,-0.13639 -0.07672,-0.17901 0.08524,-0.2472 0.340968,-0.41768 0.639315,-0.41768 0.443259,0 0.860945,0.2472 0.860945,0.73308 0,0.37506 -0.26425,0.69046 -0.622267,0.9888 z m 0,0"
         id="id-7656f903-f895-4a43-bf56-df5f2efc031f" />
      <path
         style="fill:#000000;fill-opacity:1;stroke:none;stroke-width:0"
         d="m 82.591954,170.50281 c 0.306871,-0.19606 0.460307,-0.50293 0.460307,-0.80128 0,-0.40064 -0.400637,-0.76718 -1.022904,-0.76718 -0.656364,0 -1.031429,0.26425 -1.031429,0.63932 0,0.17901 0.136388,0.25572 0.238678,0.25572 0.119339,0 0.238678,-0.0938 0.238678,-0.2472 0,-0.0767 -0.02557,-0.12786 -0.04262,-0.14491 0.16196,-0.17048 0.554073,-0.17048 0.596694,-0.17048 0.375065,0 0.647839,0.19605 0.647839,0.44325 0,0.16196 -0.08524,0.3495 -0.230153,0.46884 -0.170484,0.14491 -0.306871,0.15343 -0.502928,0.16196 -0.315396,0.0256 -0.392113,0.0256 -0.392113,0.179 0,0.17049 0.127863,0.17049 0.213105,0.17049 h 0.255726 c 0.537024,0 0.809799,0.36654 0.809799,0.68193 0,0.33245 -0.306871,0.67342 -0.801275,0.67342 -0.213105,0 -0.630791,-0.0597 -0.775702,-0.3154 0.02557,-0.0256 0.06819,-0.0597 0.06819,-0.17048 0,-0.12787 -0.10229,-0.23868 -0.238678,-0.23868 -0.127863,0 -0.247201,0.0852 -0.247201,0.25572 0,0.48588 0.5285,0.80128 1.193388,0.80128 0.716033,0 1.17634,-0.50293 1.17634,-1.00586 0,-0.38359 -0.255726,-0.70751 -0.613743,-0.86946 z m 0,0"
         id="id-8c02eeb8-0875-48df-96f2-8eeede868307" />
      <path
         style="fill:#000000;fill-opacity:1;stroke:none;stroke-width:0"
         d="m 101.96426,171.01851 c -0.0426,0.0767 -0.0426,0.0853 -0.0426,0.19606 0,0.17901 0.0426,0.21311 0.21311,0.21311 h 1.37239 v 0.58817 h -0.34096 c -0.0852,0 -0.21311,0 -0.21311,0.17048 0,0.16196 0.13639,0.16196 0.21311,0.16196 h 0.98028 c 0.0852,0 0.22163,0 0.22163,-0.16196 0,-0.17048 -0.13639,-0.17048 -0.22163,-0.17048 h -0.33244 v -0.58817 h 0.41768 c 0.0852,0 0.22163,0 0.22163,-0.16196 0,-0.17049 -0.13639,-0.17049 -0.22163,-0.17049 h -0.41768 v -1.90942 c 0,-0.17901 -0.0426,-0.22163 -0.23016,-0.22163 h -0.14491 c -0.13639,0 -0.16196,0 -0.23015,0.11082 z m 0.33245,0.0767 1.21043,-1.89237 v 1.89237 z m 0,0"
         id="id-7f9ba147-e94a-4b9d-b042-01350d13d81b" />
      <path
         style="fill:none;stroke:#000000;stroke-width:0.264583px;stroke-linecap:butt;stroke-linejoin:miter;stroke-opacity:1;marker-end:url(#TriangleOutL)"
         d="m 39.687501,185.20832 c 0,6.61459 7.9375,6.61459 10.583333,6.61459 2.645834,0 9.260417,0 9.260417,-5.29167"
         id="path2850"
         sodipodi:nodetypes="ccc" />
      <path
         style="fill:none;stroke:#000000;stroke-width:0.264583px;stroke-linecap:butt;stroke-linejoin:miter;stroke-opacity:1;marker-end:url(#TriangleOutL)"
         d="m 60.854169,185.20832 c 0,6.61459 7.9375,6.61459 10.583333,6.61459 2.645834,0 9.260416,0 9.260416,-5.29167"
         id="path3411"
         sodipodi:nodetypes="ccc" />
      <path
         style="fill:none;stroke:#000000;stroke-width:0.264583px;stroke-linecap:butt;stroke-linejoin:miter;stroke-opacity:1;marker-end:url(#TriangleOutL)"
         d="m 82.020837,185.20832 c 0,6.61459 7.9375,6.61459 10.583333,6.61459 2.645834,0 10.58333,0 10.58333,-5.29167"
         id="path3413"
         sodipodi:nodetypes="ccc" />
    </g>
  </g>
</svg>
