<?xml version="1.0" encoding="UTF-8" standalone="no"?>
<!-- Created with Inkscape (http://www.inkscape.org/) -->

<svg
   width="102.86329mm"
   height="30.352312mm"
   viewBox="0 0 102.86329 30.352312"
   version="1.1"
   id="svg5"
   xmlns="http://www.w3.org/2000/svg"
   xmlns:svg="http://www.w3.org/2000/svg">
  <defs
     id="defs2">
    <marker
       style="overflow:visible"
       id="DotM"
       refX="0"
       refY="0"
       orient="auto">
      <path
         transform="matrix(0.4,0,0,0.4,2.96,0.4)"
         style="fill:context-stroke;fill-rule:evenodd;stroke:context-stroke;stroke-width:1pt"
         d="m -2.5,-1 c 0,2.76 -2.24,5 -5,5 -2.76,0 -5,-2.24 -5,-5 0,-2.76 2.24,-5 5,-5 2.76,0 5,2.24 5,5 z"
         id="path1637" />
    </marker>
    <marker
       style="overflow:visible"
       id="DotL"
       refX="0"
       refY="0"
       orient="auto">
      <path
         transform="matrix(0.8,0,0,0.8,5.92,0.8)"
         style="fill:context-stroke;fill-rule:evenodd;stroke:context-stroke;stroke-width:1pt"
         d="m -2.5,-1 c 0,2.76 -2.24,5 -5,5 -2.76,0 -5,-2.24 -5,-5 0,-2.76 2.24,-5 5,-5 2.76,0 5,2.24 5,5 z"
         id="path1634" />
    </marker>
  </defs>
  <g
     id="layer1"
     transform="translate(-25.404297,-105.63988)">
    <g
       id="g8595">
      <path
         style="fill:none;stroke:#000000;stroke-width:0;stroke-linecap:butt;stroke-linejoin:miter;stroke-miterlimit:4;stroke-dasharray:none;stroke-opacity:1"
         d="m 111.1263,129.64583 5.29168,5.29167"
         id="path6777" />
      <rect
         style="font-variation-settings:normal;opacity:1;vector-effect:none;fill:#ffd6d6;fill-opacity:1;fill-rule:evenodd;stroke:none;stroke-width:0.264583;stroke-linecap:butt;stroke-linejoin:miter;stroke-miterlimit:4;stroke-dasharray:none;stroke-dashoffset:0;stroke-opacity:1;stop-color:#000000;stop-opacity:1"
         id="rect6318"
         width="5.2916665"
         height="5.2916665"
         x="100.54168"
         y="129.64583" />
      <rect
         style="font-variation-settings:normal;opacity:1;vector-effect:none;fill:#ffd6d6;fill-opacity:1;fill-rule:evenodd;stroke:none;stroke-width:0.264583;stroke-linecap:butt;stroke-linejoin:miter;stroke-miterlimit:4;stroke-dasharray:none;stroke-dashoffset:0;stroke-opacity:1;stop-color:#000000;stop-opacity:1"
         id="rect6178"
         width="5.2916665"
         height="5.2916665"
         x="89.958351"
         y="129.64583" />
      <rect
         style="font-variation-settings:normal;opacity:1;vector-effect:none;fill:#ffd6d6;fill-opacity:1;fill-rule:evenodd;stroke:none;stroke-width:0.264583;stroke-linecap:butt;stroke-linejoin:miter;stroke-miterlimit:4;stroke-dasharray:none;stroke-dashoffset:0;stroke-opacity:1;stop-color:#000000;stop-opacity:1"
         id="rect5859"
         width="5.2916665"
         height="5.2916665"
         x="79.375015"
         y="129.64583" />
      <rect
         style="font-variation-settings:normal;opacity:1;vector-effect:none;fill:#ffd6d6;fill-opacity:1;fill-rule:evenodd;stroke:none;stroke-width:0.264583;stroke-linecap:butt;stroke-linejoin:miter;stroke-miterlimit:4;stroke-dasharray:none;stroke-dashoffset:0;stroke-opacity:1;stop-color:#000000;stop-opacity:1"
         id="rect5441"
         width="5.2916665"
         height="5.2916665"
         x="68.791672"
         y="129.64583" />
      <rect
         style="font-variation-settings:normal;opacity:1;vector-effect:none;fill:#ffd6d6;fill-opacity:1;fill-rule:evenodd;stroke:none;stroke-width:0.264583;stroke-linecap:butt;stroke-linejoin:miter;stroke-miterlimit:4;stroke-dasharray:none;stroke-dashoffset:0;stroke-opacity:1;stop-color:#000000;stop-opacity:1"
         id="rect3988"
         width="5.2916665"
         height="5.2916665"
         x="58.208344"
         y="129.64583" />
      <rect
         style="font-variation-settings:normal;opacity:1;vector-effect:none;fill:#ffd6d6;fill-opacity:1;fill-rule:evenodd;stroke:none;stroke-width:0.264583;stroke-linecap:butt;stroke-linejoin:miter;stroke-miterlimit:4;stroke-dasharray:none;stroke-dashoffset:0;stroke-opacity:1;stop-color:#000000;stop-opacity:1"
         id="rect3382"
         width="5.2916665"
         height="5.2916665"
         x="47.625011"
         y="129.64583" />
      <rect
         style="font-variation-settings:normal;opacity:1;vector-effect:none;fill:#ffd6d6;fill-opacity:1;fill-rule:evenodd;stroke:none;stroke-width:0.264583;stroke-linecap:butt;stroke-linejoin:miter;stroke-miterlimit:4;stroke-dasharray:none;stroke-dashoffset:0;stroke-opacity:1;stop-color:#000000;stop-opacity:1"
         id="rect4128"
         width="5.2916665"
         height="5.2916665"
         x="26.458342"
         y="129.64583" />
      <path
         style="fill:none;stroke:#000000;stroke-width:0.465;stroke-linecap:butt;stroke-linejoin:miter;stroke-miterlimit:4;stroke-dasharray:none;stroke-opacity:1"
         d="M 26.458333,105.83333 V 111.125"
         id="path859" />
      <path
         style="fill:none;stroke:#000000;stroke-width:0.465;stroke-linecap:butt;stroke-linejoin:miter;stroke-miterlimit:4;stroke-dasharray:none;stroke-opacity:1"
         d="M 31.75,105.83333 V 111.125"
         id="path941" />
      <path
         style="fill:none;stroke:#000000;stroke-width:0.465;stroke-linecap:butt;stroke-linejoin:miter;stroke-miterlimit:4;stroke-dasharray:none;stroke-opacity:1"
         d="M 34.395835,105.83333 V 111.125"
         id="path943" />
      <path
         style="fill:none;stroke:#000000;stroke-width:0.465;stroke-linecap:butt;stroke-linejoin:miter;stroke-miterlimit:4;stroke-dasharray:none;stroke-opacity:1"
         d="M 39.687505,105.83333 V 111.125"
         id="path945" />
      <path
         style="fill:none;stroke:#000000;stroke-width:0.465;stroke-linecap:butt;stroke-linejoin:miter;stroke-miterlimit:4;stroke-dasharray:none;stroke-opacity:1"
         d="M 42.33334,105.83333 V 111.125"
         id="path947" />
      <path
         style="fill:none;stroke:#000000;stroke-width:0.465;stroke-linecap:butt;stroke-linejoin:miter;stroke-miterlimit:4;stroke-dasharray:none;stroke-opacity:1"
         d="M 44.979175,105.83333 V 111.125"
         id="path949" />
      <path
         style="fill:none;stroke:#000000;stroke-width:0.465;stroke-linecap:butt;stroke-linejoin:miter;stroke-miterlimit:4;stroke-dasharray:none;stroke-opacity:1"
         d="M 50.270845,105.83333 V 111.125"
         id="path951" />
      <path
         style="fill:none;stroke:#000000;stroke-width:0.465;stroke-linecap:butt;stroke-linejoin:miter;stroke-miterlimit:4;stroke-dasharray:none;stroke-opacity:1"
         d="M 52.91668,105.83333 V 111.125"
         id="path953" />
      <path
         style="fill:none;stroke:#000000;stroke-width:0.465;stroke-linecap:butt;stroke-linejoin:miter;stroke-miterlimit:4;stroke-dasharray:none;stroke-opacity:1"
         d="M 55.562515,105.83333 V 111.125"
         id="path955" />
      <path
         style="fill:none;stroke:#000000;stroke-width:0.465;stroke-linecap:butt;stroke-linejoin:miter;stroke-miterlimit:4;stroke-dasharray:none;stroke-opacity:1"
         d="M 58.20835,105.83333 V 111.125"
         id="path957" />
      <path
         style="fill:none;stroke:#000000;stroke-width:0.465;stroke-linecap:butt;stroke-linejoin:miter;stroke-miterlimit:4;stroke-dasharray:none;stroke-opacity:1"
         d="M 63.499998,105.83333 V 111.125"
         id="path1060" />
      <path
         style="fill:none;stroke:#000000;stroke-width:0.465;stroke-linecap:butt;stroke-linejoin:miter;stroke-miterlimit:4;stroke-dasharray:none;stroke-opacity:1"
         d="M 66.145833,105.83333 V 111.125"
         id="path1062" />
      <path
         style="fill:none;stroke:#000000;stroke-width:0.465;stroke-linecap:butt;stroke-linejoin:miter;stroke-miterlimit:4;stroke-dasharray:none;stroke-opacity:1"
         d="M 68.791668,105.83333 V 111.125"
         id="path1064" />
      <path
         style="fill:none;stroke:#000000;stroke-width:0.465;stroke-linecap:butt;stroke-linejoin:miter;stroke-miterlimit:4;stroke-dasharray:none;stroke-opacity:1"
         d="M 71.437503,105.83333 V 111.125"
         id="path1066" />
      <path
         style="fill:none;stroke:#000000;stroke-width:0.465;stroke-linecap:butt;stroke-linejoin:miter;stroke-miterlimit:4;stroke-dasharray:none;stroke-opacity:1"
         d="m 63.499986,105.83333 7.9375,5.29167"
         id="path1068" />
      <path
         style="fill:none;stroke:#000000;stroke-width:0.465;stroke-linecap:butt;stroke-linejoin:miter;stroke-miterlimit:4;stroke-dasharray:none;stroke-opacity:1"
         d="M 76.729162,105.83333 V 111.125"
         id="path1230" />
      <path
         style="fill:none;stroke:#000000;stroke-width:0.465;stroke-linecap:butt;stroke-linejoin:miter;stroke-miterlimit:4;stroke-dasharray:none;stroke-opacity:1"
         d="M 79.374997,105.83333 V 111.125"
         id="path1232" />
      <path
         style="fill:none;stroke:#000000;stroke-width:0.465;stroke-linecap:butt;stroke-linejoin:miter;stroke-miterlimit:4;stroke-dasharray:none;stroke-opacity:1"
         d="M 82.020832,105.83333 V 111.125"
         id="path1234" />
      <path
         style="fill:none;stroke:#000000;stroke-width:0.465;stroke-linecap:butt;stroke-linejoin:miter;stroke-miterlimit:4;stroke-dasharray:none;stroke-opacity:1"
         d="M 84.666667,105.83333 V 111.125"
         id="path1236" />
      <path
         style="fill:none;stroke:#000000;stroke-width:0.465;stroke-linecap:butt;stroke-linejoin:miter;stroke-miterlimit:4;stroke-dasharray:none;stroke-opacity:1"
         d="m 76.72915,105.83333 7.9375,5.29167"
         id="path1238" />
      <path
         style="fill:none;stroke:#000000;stroke-width:0.465;stroke-linecap:butt;stroke-linejoin:miter;stroke-miterlimit:4;stroke-dasharray:none;stroke-opacity:1"
         d="m 26.458333,119.0625 v 5.29167"
         id="path1414" />
      <path
         style="fill:none;stroke:#000000;stroke-width:0.465;stroke-linecap:butt;stroke-linejoin:miter;stroke-miterlimit:4;stroke-dasharray:none;stroke-opacity:1"
         d="m 31.75,119.0625 v 5.29167"
         id="path1416" />
      <path
         style="fill:none;stroke:#000000;stroke-width:0.465;stroke-linecap:butt;stroke-linejoin:miter;stroke-miterlimit:4;stroke-dasharray:none;stroke-opacity:1"
         d="m 31.749997,119.0625 h 5.29167"
         id="path1418" />
      <path
         style="fill:none;stroke:#000000;stroke-width:0.465;stroke-linecap:butt;stroke-linejoin:miter;stroke-miterlimit:4;stroke-dasharray:none;stroke-opacity:1"
         d="m 39.6875,119.0625 v 5.29167"
         id="path1420" />
      <path
         style="fill:none;stroke:#000000;stroke-width:0.465;stroke-linecap:butt;stroke-linejoin:miter;stroke-miterlimit:4;stroke-dasharray:none;stroke-opacity:1"
         d="m 39.687497,119.0625 h 5.29167"
         id="path1422" />
      <path
         style="fill:none;stroke:#000000;stroke-width:0.465;stroke-linecap:butt;stroke-linejoin:miter;stroke-miterlimit:4;stroke-dasharray:none;stroke-opacity:1"
         d="m 44.979167,119.0625 v 5.29167"
         id="path1424" />
      <path
         style="fill:none;stroke:#000000;stroke-width:0.465;stroke-linecap:butt;stroke-linejoin:miter;stroke-miterlimit:4;stroke-dasharray:none;stroke-opacity:1"
         d="m 50.270833,119.0625 v 5.29167"
         id="path1426" />
      <path
         style="fill:none;stroke:#000000;stroke-width:0.465;stroke-linecap:butt;stroke-linejoin:miter;stroke-miterlimit:4;stroke-dasharray:none;stroke-opacity:1"
         d="M 50.27083,119.0625 H 55.5625"
         id="path1428" />
      <path
         style="fill:none;stroke:#000000;stroke-width:0.465;stroke-linecap:butt;stroke-linejoin:miter;stroke-miterlimit:4;stroke-dasharray:none;stroke-opacity:1"
         d="m 55.5625,119.0625 v 5.29167"
         id="path1430" />
      <path
         style="fill:none;stroke:#000000;stroke-width:0.465;stroke-linecap:butt;stroke-linejoin:miter;stroke-miterlimit:4;stroke-dasharray:none;stroke-opacity:1"
         d="m 60.854173,124.35417 h 5.29167"
         id="path1432" />
      <path
         style="fill:none;stroke:#000000;stroke-width:0.465;stroke-linecap:butt;stroke-linejoin:miter;stroke-miterlimit:4;stroke-dasharray:none;stroke-opacity:1"
         d="m 60.854166,119.0625 v 5.29167"
         id="path1434" />
      <path
         style="fill:none;stroke:#000000;stroke-width:0.465;stroke-linecap:butt;stroke-linejoin:miter;stroke-miterlimit:4;stroke-dasharray:none;stroke-opacity:1"
         d="m 60.854163,119.0625 h 5.29167"
         id="path1436" />
      <path
         style="fill:none;stroke:#000000;stroke-width:0.465;stroke-linecap:butt;stroke-linejoin:miter;stroke-miterlimit:4;stroke-dasharray:none;stroke-opacity:1"
         d="m 66.145833,119.0625 v 5.29167"
         id="path1438" />
      <path
         style="fill:none;stroke:#000000;stroke-width:0.465;stroke-linecap:butt;stroke-linejoin:miter;stroke-miterlimit:4;stroke-dasharray:none;stroke-opacity:1"
         d="m 71.437506,124.35417 h 5.29167"
         id="path1440" />
      <path
         style="fill:none;stroke:#000000;stroke-width:0.465;stroke-linecap:butt;stroke-linejoin:miter;stroke-miterlimit:4;stroke-dasharray:none;stroke-opacity:1"
         d="m 60.854167,119.0625 5.291669,5.29167"
         id="path1442" />
      <g
         id="path1543">
        <g
           id="g1851">
          <g
             id="path1853">
            <path
               style="color:#000000;fill:#000000;fill-rule:evenodd;stroke-width:0.186pt;-inkscape-stroke:none"
               d="m 26.458333,130.55723 c -0.51336,0 -0.93,-0.41664 -0.93,-0.93 0,-0.51336 0.41664,-0.93 0.93,-0.93 0.51336,0 0.93,0.41664 0.93,0.93 0,0.51336 -0.41664,0.93 -0.93,0.93 z"
               id="path1857" />
            <path
               style="color:#000000;fill:#000000;fill-rule:evenodd;-inkscape-stroke:none"
               d="m 26.458984,128.57227 c -0.580451,0 -1.054687,0.47423 -1.054687,1.05468 0,0.58045 0.474236,1.05469 1.054687,1.05469 0.580452,0 1.052735,-0.47424 1.052735,-1.05469 0,-0.58045 -0.472283,-1.05468 -1.052735,-1.05468 z m 0,0.24804 c 0.446268,0 0.804688,0.36038 0.804688,0.80664 0,0.44627 -0.35842,0.80664 -0.804688,0.80664 -0.446267,0 -0.80664,-0.36037 -0.80664,-0.80664 0,-0.44626 0.360373,-0.80664 0.80664,-0.80664 z"
               id="path1859" />
          </g>
        </g>
      </g>
      <g
         id="g7220"
         transform="translate(5.2916669)">
        <rect
           style="font-variation-settings:normal;opacity:1;vector-effect:none;fill:#ffd6d6;fill-opacity:1;fill-rule:evenodd;stroke:none;stroke-width:0.264583;stroke-linecap:butt;stroke-linejoin:miter;stroke-miterlimit:4;stroke-dasharray:none;stroke-dashoffset:0;stroke-opacity:1;stop-color:#000000;stop-opacity:1"
           id="rect3165"
           width="5.2916665"
           height="5.2916665"
           x="31.75"
           y="129.64583" />
        <g
           id="path1547">
          <g
             id="g2416">
            <g
               id="path2428">
              <path
                 style="color:#000000;fill:#000000;fill-rule:evenodd;stroke-width:0.186pt;-inkscape-stroke:none"
                 d="m 37.953067,129.64583 c 0,0.51336 -0.41664,0.93 -0.93,0.93 -0.51336,0 -0.93,-0.41664 -0.93,-0.93 0,-0.51336 0.41664,-0.93 0.93,-0.93 0.51336,0 0.93,0.41664 0.93,0.93 z"
                 id="path2432" />
              <path
                 style="color:#000000;fill:#000000;fill-rule:evenodd;-inkscape-stroke:none"
                 d="m 37.023437,128.5918 c -0.580451,0 -1.054687,0.47423 -1.054687,1.05468 0,0.58046 0.474236,1.05274 1.054687,1.05274 0.580452,0 1.052735,-0.47228 1.052735,-1.05274 0,-0.58045 -0.472283,-1.05468 -1.052735,-1.05468 z m 0,0.24804 c 0.446268,0 0.804688,0.36038 0.804688,0.80664 0,0.44627 -0.35842,0.80469 -0.804688,0.80469 -0.446267,0 -0.80664,-0.35842 -0.80664,-0.80469 0,-0.44626 0.360373,-0.80664 0.80664,-0.80664 z"
                 id="path2434" />
            </g>
            <g
               id="path2418">
              <path
                 style="color:#000000;fill:#000000;fill-rule:evenodd;stroke-width:0.186pt;-inkscape-stroke:none"
                 d="m 32.661397,129.64583 c 0,0.51336 -0.41664,0.93 -0.93,0.93 -0.51336,0 -0.93,-0.41664 -0.93,-0.93 0,-0.51336 0.41664,-0.93 0.93,-0.93 0.51336,0 0.93,0.41664 0.93,0.93 z"
                 id="path2422" />
              <path
                 style="color:#000000;fill:#000000;fill-rule:evenodd;-inkscape-stroke:none"
                 d="m 31.730469,128.5918 c -0.580451,0 -1.052735,0.47423 -1.052735,1.05468 0,0.58046 0.472284,1.05274 1.052735,1.05274 0.580451,0 1.054687,-0.47228 1.054687,-1.05274 0,-0.58045 -0.474236,-1.05468 -1.054687,-1.05468 z m 0,0.24804 c 0.446268,0 0.80664,0.36038 0.80664,0.80664 0,0.44627 -0.360372,0.80469 -0.80664,0.80469 -0.446268,0 -0.804688,-0.35842 -0.804688,-0.80469 0,-0.44626 0.35842,-0.80664 0.804688,-0.80664 z"
                 id="path2424" />
            </g>
          </g>
        </g>
      </g>
      <g
         id="path1551"
         transform="translate(7.9375004)">
        <g
           id="g2703">
          <g
             id="path2715">
            <path
               style="color:#000000;fill:#000000;fill-rule:evenodd;stroke-width:0.186pt;-inkscape-stroke:none"
               d="m 45.890567,129.64583 c 0,0.51336 -0.41664,0.93 -0.93,0.93 -0.51336,0 -0.93,-0.41664 -0.93,-0.93 0,-0.51336 0.41664,-0.93 0.93,-0.93 0.51336,0 0.93,0.41664 0.93,0.93 z"
               id="path2719" />
            <path
               style="color:#000000;fill:#000000;fill-rule:evenodd;-inkscape-stroke:none"
               d="m 44.960937,128.5918 c -0.580451,0 -1.054687,0.47423 -1.054687,1.05468 0,0.58046 0.474236,1.05274 1.054687,1.05274 0.580452,0 1.052735,-0.47228 1.052735,-1.05274 0,-0.58045 -0.472283,-1.05468 -1.052735,-1.05468 z m 0,0.24804 c 0.446268,0 0.804688,0.36038 0.804688,0.80664 0,0.44627 -0.35842,0.80469 -0.804688,0.80469 -0.446267,0 -0.80664,-0.35842 -0.80664,-0.80469 0,-0.44626 0.360373,-0.80664 0.80664,-0.80664 z"
               id="path2721" />
          </g>
          <g
             id="path2705">
            <path
               style="color:#000000;fill:#000000;fill-rule:evenodd;stroke-width:0.186pt;-inkscape-stroke:none"
               d="m 40.598897,129.64583 c 0,0.51336 -0.41664,0.93 -0.93,0.93 -0.51336,0 -0.93,-0.41664 -0.93,-0.93 0,-0.51336 0.41664,-0.93 0.93,-0.93 0.51336,0 0.93,0.41664 0.93,0.93 z"
               id="path2709" />
            <path
               style="color:#000000;fill:#000000;fill-rule:evenodd;-inkscape-stroke:none"
               d="m 39.667969,128.5918 c -0.580451,0 -1.052735,0.47423 -1.052735,1.05468 0,0.58046 0.472284,1.05274 1.052735,1.05274 0.580451,0 1.054687,-0.47228 1.054687,-1.05274 0,-0.58045 -0.474236,-1.05468 -1.054687,-1.05468 z m 0,0.24804 c 0.446268,0 0.80664,0.36038 0.80664,0.80664 0,0.44627 -0.360372,0.80469 -0.80664,0.80469 -0.446268,0 -0.804688,-0.35842 -0.804688,-0.80469 0,-0.44626 0.35842,-0.80664 0.804688,-0.80664 z"
               id="path2711" />
          </g>
        </g>
      </g>
      <g
         id="path1553"
         transform="translate(7.9375004)">
        <g
           id="g2731">
          <g
             id="path2733">
            <path
               style="color:#000000;fill:#000000;fill-rule:evenodd;stroke-width:0.186pt;-inkscape-stroke:none"
               d="m 44.979167,135.8489 c -0.51336,0 -0.93,-0.41664 -0.93,-0.93 0,-0.51336 0.41664,-0.93 0.93,-0.93 0.51336,0 0.93,0.41664 0.93,0.93 0,0.51336 -0.41664,0.93 -0.93,0.93 z"
               id="path2737" />
            <path
               style="color:#000000;fill:#000000;fill-rule:evenodd;-inkscape-stroke:none"
               d="m 44.978516,133.86523 c -0.580452,0 -1.052735,0.47229 -1.052735,1.05274 0,0.58045 0.472283,1.05469 1.052735,1.05469 0.580451,0 1.054687,-0.47424 1.054687,-1.05469 0,-0.58045 -0.474236,-1.05274 -1.054687,-1.05274 z m 0,0.24805 c 0.446267,0 0.80664,0.35842 0.80664,0.80469 0,0.44627 -0.360373,0.80664 -0.80664,0.80664 -0.446268,0 -0.804688,-0.36037 -0.804688,-0.80664 0,-0.44627 0.35842,-0.80469 0.804688,-0.80469 z"
               id="path2739" />
          </g>
        </g>
      </g>
      <g
         id="path1557"
         transform="translate(7.9375004)">
        <g
           id="g3472">
          <g
             id="path3484">
            <path
               style="color:#000000;fill:#000000;fill-rule:evenodd;stroke-width:0.186pt;-inkscape-stroke:none"
               d="m 56.4739,129.64583 c 0,0.51336 -0.41664,0.93 -0.93,0.93 -0.51336,0 -0.93,-0.41664 -0.93,-0.93 0,-0.51336 0.41664,-0.93 0.93,-0.93 0.51336,0 0.93,0.41664 0.93,0.93 z"
               id="path3488" />
            <path
               style="color:#000000;fill:#000000;fill-rule:evenodd;-inkscape-stroke:none"
               d="m 55.542969,128.5918 c -0.580451,0 -1.052735,0.47423 -1.052735,1.05468 0,0.58046 0.472284,1.05274 1.052735,1.05274 0.580451,0 1.054687,-0.47228 1.054687,-1.05274 0,-0.58045 -0.474236,-1.05468 -1.054687,-1.05468 z m 0,0.24804 c 0.446268,0 0.80664,0.36038 0.80664,0.80664 0,0.44627 -0.360372,0.80469 -0.80664,0.80469 -0.446268,0 -0.804688,-0.35842 -0.804688,-0.80469 0,-0.44626 0.35842,-0.80664 0.804688,-0.80664 z"
               id="path3490" />
          </g>
          <g
             id="path3474">
            <path
               style="color:#000000;fill:#000000;fill-rule:evenodd;stroke-width:0.186pt;-inkscape-stroke:none"
               d="m 51.18223,129.64583 c 0,0.51336 -0.41664,0.93 -0.93,0.93 -0.51336,0 -0.93,-0.41664 -0.93,-0.93 0,-0.51336 0.41664,-0.93 0.93,-0.93 0.51336,0 0.93,0.41664 0.93,0.93 z"
               id="path3478" />
            <path
               style="color:#000000;fill:#000000;fill-rule:evenodd;-inkscape-stroke:none"
               d="m 50.251953,128.5918 c -0.580451,0 -1.054687,0.47423 -1.054687,1.05468 0,0.58046 0.474236,1.05274 1.054687,1.05274 0.580451,0 1.054688,-0.47228 1.054688,-1.05274 0,-0.58045 -0.474237,-1.05468 -1.054688,-1.05468 z m 0,0.24804 c 0.446268,0 0.806641,0.36038 0.806641,0.80664 0,0.44627 -0.360373,0.80469 -0.806641,0.80469 -0.446268,0 -0.806641,-0.35842 -0.806641,-0.80469 0,-0.44626 0.360373,-0.80664 0.806641,-0.80664 z"
               id="path3480" />
          </g>
        </g>
      </g>
      <g
         id="path1561"
         transform="translate(7.9375004)">
        <g
           id="g3506">
          <g
             id="path3518">
            <path
               style="color:#000000;fill:#000000;fill-rule:evenodd;stroke-width:0.186pt;-inkscape-stroke:none"
               d="m 56.473903,134.9375 c 0,0.51336 -0.41664,0.93 -0.93,0.93 -0.51336,0 -0.93,-0.41664 -0.93,-0.93 0,-0.51336 0.41664,-0.93 0.93,-0.93 0.51336,0 0.93,0.41664 0.93,0.93 z"
               id="path3522" />
            <path
               style="color:#000000;fill:#000000;fill-rule:evenodd;-inkscape-stroke:none"
               d="m 55.542969,133.88281 c -0.580451,0 -1.052735,0.47424 -1.052735,1.05469 0,0.58045 0.472284,1.05469 1.052735,1.05469 0.580451,0 1.054687,-0.47424 1.054687,-1.05469 0,-0.58045 -0.474236,-1.05469 -1.054687,-1.05469 z m 0,0.24805 c 0.446268,0 0.80664,0.36037 0.80664,0.80664 0,0.44627 -0.360372,0.80664 -0.80664,0.80664 -0.446268,0 -0.804688,-0.36037 -0.804688,-0.80664 0,-0.44627 0.35842,-0.80664 0.804688,-0.80664 z"
               id="path3524" />
          </g>
          <g
             id="path3508">
            <path
               style="color:#000000;fill:#000000;fill-rule:evenodd;stroke-width:0.186pt;-inkscape-stroke:none"
               d="m 51.182233,134.9375 c 0,0.51336 -0.41664,0.93 -0.93,0.93 -0.51336,0 -0.93,-0.41664 -0.93,-0.93 0,-0.51336 0.41664,-0.93 0.93,-0.93 0.51336,0 0.93,0.41664 0.93,0.93 z"
               id="path3512" />
            <path
               style="color:#000000;fill:#000000;fill-rule:evenodd;-inkscape-stroke:none"
               d="m 50.251953,133.88281 c -0.580451,0 -1.054687,0.47424 -1.054687,1.05469 0,0.58045 0.474236,1.05469 1.054687,1.05469 0.580451,0 1.054688,-0.47424 1.054688,-1.05469 0,-0.58045 -0.474237,-1.05469 -1.054688,-1.05469 z m 0,0.24805 c 0.446268,0 0.806641,0.36037 0.806641,0.80664 0,0.44627 -0.360373,0.80664 -0.806641,0.80664 -0.446268,0 -0.806641,-0.36037 -0.806641,-0.80664 0,-0.44627 0.360373,-0.80664 0.806641,-0.80664 z"
               id="path3514" />
          </g>
        </g>
      </g>
      <g
         id="path2288"
         transform="translate(7.9375004)">
        <path
           style="color:#000000;fill:#000000;-inkscape-stroke:none"
           d="m 60.853516,129.41406 v 0.46485 h 5.292968 v -0.46485 z"
           id="path4402" />
        <g
           id="g4380">
          <g
             id="path4392">
            <path
               style="color:#000000;fill:#000000;fill-rule:evenodd;stroke-width:0.186pt;-inkscape-stroke:none"
               d="m 67.057233,129.64583 c 0,0.51336 -0.41664,0.93 -0.93,0.93 -0.51336,0 -0.93,-0.41664 -0.93,-0.93 0,-0.51336 0.41664,-0.93 0.93,-0.93 0.51336,0 0.93,0.41664 0.93,0.93 z"
               id="path4396" />
            <path
               style="color:#000000;fill:#000000;fill-rule:evenodd;-inkscape-stroke:none"
               d="m 66.126953,128.5918 c -0.580451,0 -1.054687,0.47423 -1.054687,1.05468 0,0.58046 0.474236,1.05274 1.054687,1.05274 0.580451,0 1.054688,-0.47228 1.054688,-1.05274 0,-0.58045 -0.474237,-1.05468 -1.054688,-1.05468 z m 0,0.24804 c 0.446268,0 0.806641,0.36038 0.806641,0.80664 0,0.44627 -0.360373,0.80469 -0.806641,0.80469 -0.446268,0 -0.806641,-0.35842 -0.806641,-0.80469 0,-0.44626 0.360373,-0.80664 0.806641,-0.80664 z"
               id="path4398" />
          </g>
          <g
             id="path4382">
            <path
               style="color:#000000;fill:#000000;fill-rule:evenodd;stroke-width:0.186pt;-inkscape-stroke:none"
               d="m 61.765563,129.64583 c 0,0.51336 -0.41664,0.93 -0.93,0.93 -0.51336,0 -0.93,-0.41664 -0.93,-0.93 0,-0.51336 0.41664,-0.93 0.93,-0.93 0.51336,0 0.93,0.41664 0.93,0.93 z"
               id="path4386" />
            <path
               style="color:#000000;fill:#000000;fill-rule:evenodd;-inkscape-stroke:none"
               d="m 60.835937,128.5918 c -0.580451,0 -1.054687,0.47423 -1.054687,1.05468 0,0.58046 0.474236,1.05274 1.054687,1.05274 0.580452,0 1.052735,-0.47228 1.052735,-1.05274 0,-0.58045 -0.472283,-1.05468 -1.052735,-1.05468 z m 0,0.24804 c 0.446268,0 0.804688,0.36038 0.804688,0.80664 0,0.44627 -0.35842,0.80469 -0.804688,0.80469 -0.446267,0 -0.80664,-0.35842 -0.80664,-0.80469 0,-0.44626 0.360373,-0.80664 0.80664,-0.80664 z"
               id="path4388" />
          </g>
        </g>
      </g>
      <g
         id="path2292"
         transform="translate(7.9375004)">
        <g
           id="g4414">
          <g
             id="path4426">
            <path
               style="color:#000000;fill:#000000;fill-rule:evenodd;stroke-width:0.186pt;-inkscape-stroke:none"
               d="m 67.057236,134.9375 c 0,0.51336 -0.41664,0.93 -0.93,0.93 -0.51336,0 -0.93,-0.41664 -0.93,-0.93 0,-0.51336 0.41664,-0.93 0.93,-0.93 0.51336,0 0.93,0.41664 0.93,0.93 z"
               id="path4430" />
            <path
               style="color:#000000;fill:#000000;fill-rule:evenodd;-inkscape-stroke:none"
               d="m 66.126953,133.88281 c -0.580451,0 -1.054687,0.47424 -1.054687,1.05469 0,0.58045 0.474236,1.05469 1.054687,1.05469 0.580451,0 1.054688,-0.47424 1.054688,-1.05469 0,-0.58045 -0.474237,-1.05469 -1.054688,-1.05469 z m 0,0.24805 c 0.446268,0 0.806641,0.36037 0.806641,0.80664 0,0.44627 -0.360373,0.80664 -0.806641,0.80664 -0.446268,0 -0.806641,-0.36037 -0.806641,-0.80664 0,-0.44627 0.360373,-0.80664 0.806641,-0.80664 z"
               id="path4432" />
          </g>
          <g
             id="path4416">
            <path
               style="color:#000000;fill:#000000;fill-rule:evenodd;stroke-width:0.186pt;-inkscape-stroke:none"
               d="m 61.765566,134.9375 c 0,0.51336 -0.41664,0.93 -0.93,0.93 -0.51336,0 -0.93,-0.41664 -0.93,-0.93 0,-0.51336 0.41664,-0.93 0.93,-0.93 0.51336,0 0.93,0.41664 0.93,0.93 z"
               id="path4420" />
            <path
               style="color:#000000;fill:#000000;fill-rule:evenodd;-inkscape-stroke:none"
               d="m 60.835937,133.88281 c -0.580451,0 -1.054687,0.47424 -1.054687,1.05469 0,0.58045 0.474236,1.05469 1.054687,1.05469 0.580452,0 1.052735,-0.47424 1.052735,-1.05469 0,-0.58045 -0.472283,-1.05469 -1.052735,-1.05469 z m 0,0.24805 c 0.446268,0 0.804688,0.36037 0.804688,0.80664 0,0.44627 -0.35842,0.80664 -0.804688,0.80664 -0.446267,0 -0.80664,-0.36037 -0.80664,-0.80664 0,-0.44627 0.360373,-0.80664 0.80664,-0.80664 z"
               id="path4422" />
          </g>
        </g>
      </g>
      <g
         id="path2376"
         transform="translate(7.9375004)">
        <path
           style="color:#000000;fill:#000000;-inkscape-stroke:none"
           d="m 71.4375,129.41406 v 0.46485 h 5.291016 v -0.46485 z"
           id="path4690" />
        <g
           id="g4668">
          <g
             id="path4680">
            <path
               style="color:#000000;fill:#000000;fill-rule:evenodd;stroke-width:0.186pt;-inkscape-stroke:none"
               d="m 77.640567,129.64583 c 0,0.51336 -0.41664,0.93 -0.93,0.93 -0.51336,0 -0.93,-0.41664 -0.93,-0.93 0,-0.51336 0.41664,-0.93 0.93,-0.93 0.51336,0 0.93,0.41664 0.93,0.93 z"
               id="path4684" />
            <path
               style="color:#000000;fill:#000000;fill-rule:evenodd;-inkscape-stroke:none"
               d="m 76.710937,128.5918 c -0.580451,0 -1.054687,0.47423 -1.054687,1.05468 0,0.58046 0.474236,1.05274 1.054687,1.05274 0.580452,0 1.052735,-0.47228 1.052735,-1.05274 0,-0.58045 -0.472283,-1.05468 -1.052735,-1.05468 z m 0,0.24804 c 0.446268,0 0.804688,0.36038 0.804688,0.80664 0,0.44627 -0.35842,0.80469 -0.804688,0.80469 -0.446267,0 -0.80664,-0.35842 -0.80664,-0.80469 0,-0.44626 0.360373,-0.80664 0.80664,-0.80664 z"
               id="path4686" />
          </g>
          <g
             id="path4670">
            <path
               style="color:#000000;fill:#000000;fill-rule:evenodd;stroke-width:0.186pt;-inkscape-stroke:none"
               d="m 72.348897,129.64583 c 0,0.51336 -0.41664,0.93 -0.93,0.93 -0.51336,0 -0.93,-0.41664 -0.93,-0.93 0,-0.51336 0.41664,-0.93 0.93,-0.93 0.51336,0 0.93,0.41664 0.93,0.93 z"
               id="path4674" />
            <path
               style="color:#000000;fill:#000000;fill-rule:evenodd;-inkscape-stroke:none"
               d="m 71.417969,128.5918 c -0.580451,0 -1.052735,0.47423 -1.052735,1.05468 0,0.58046 0.472284,1.05274 1.052735,1.05274 0.580451,0 1.054687,-0.47228 1.054687,-1.05274 0,-0.58045 -0.474236,-1.05468 -1.054687,-1.05468 z m 0,0.24804 c 0.446268,0 0.80664,0.36038 0.80664,0.80664 0,0.44627 -0.360372,0.80469 -0.80664,0.80469 -0.446268,0 -0.804688,-0.35842 -0.804688,-0.80469 0,-0.44626 0.35842,-0.80664 0.804688,-0.80664 z"
               id="path4676" />
          </g>
        </g>
      </g>
      <path
         style="color:#000000;fill:#000000;-inkscape-stroke:none"
         d="m 84.433602,129.64648 v 5.29102 h 0.464843 v -5.29102 z"
         id="path2378" />
      <g
         id="path2380"
         transform="translate(7.9375004)">
        <g
           id="g4702">
          <g
             id="path4714">
            <path
               style="color:#000000;fill:#000000;fill-rule:evenodd;stroke-width:0.186pt;-inkscape-stroke:none"
               d="m 77.64057,134.9375 c 0,0.51336 -0.41664,0.93 -0.93,0.93 -0.51336,0 -0.93,-0.41664 -0.93,-0.93 0,-0.51336 0.41664,-0.93 0.93,-0.93 0.51336,0 0.93,0.41664 0.93,0.93 z"
               id="path4718" />
            <path
               style="color:#000000;fill:#000000;fill-rule:evenodd;-inkscape-stroke:none"
               d="m 76.710937,133.88281 c -0.580451,0 -1.054687,0.47424 -1.054687,1.05469 0,0.58045 0.474236,1.05469 1.054687,1.05469 0.580452,0 1.052735,-0.47424 1.052735,-1.05469 0,-0.58045 -0.472283,-1.05469 -1.052735,-1.05469 z m 0,0.24805 c 0.446268,0 0.804688,0.36037 0.804688,0.80664 0,0.44627 -0.35842,0.80664 -0.804688,0.80664 -0.446267,0 -0.80664,-0.36037 -0.80664,-0.80664 0,-0.44627 0.360373,-0.80664 0.80664,-0.80664 z"
               id="path4720" />
          </g>
          <g
             id="path4704">
            <path
               style="color:#000000;fill:#000000;fill-rule:evenodd;stroke-width:0.186pt;-inkscape-stroke:none"
               d="m 72.3489,134.9375 c 0,0.51336 -0.41664,0.93 -0.93,0.93 -0.51336,0 -0.93,-0.41664 -0.93,-0.93 0,-0.51336 0.41664,-0.93 0.93,-0.93 0.51336,0 0.93,0.41664 0.93,0.93 z"
               id="path4708" />
            <path
               style="color:#000000;fill:#000000;fill-rule:evenodd;-inkscape-stroke:none"
               d="m 71.417969,133.88281 c -0.580451,0 -1.052735,0.47424 -1.052735,1.05469 0,0.58045 0.472284,1.05469 1.052735,1.05469 0.580451,0 1.054687,-0.47424 1.054687,-1.05469 0,-0.58045 -0.474236,-1.05469 -1.054687,-1.05469 z m 0,0.24805 c 0.446268,0 0.80664,0.36037 0.80664,0.80664 0,0.44627 -0.360372,0.80664 -0.80664,0.80664 -0.446268,0 -0.804688,-0.36037 -0.804688,-0.80664 0,-0.44627 0.35842,-0.80664 0.804688,-0.80664 z"
               id="path4710" />
          </g>
        </g>
      </g>
      <g
         id="path2384"
         transform="translate(7.9375004)">
        <path
           style="color:#000000;fill:#000000;-inkscape-stroke:none"
           d="m 82.021484,129.41406 v 0.46485 H 87.3125 v -0.46485 z"
           id="path4758" />
        <g
           id="g4736">
          <g
             id="path4748">
            <path
               style="color:#000000;fill:#000000;fill-rule:evenodd;stroke-width:0.186pt;-inkscape-stroke:none"
               d="m 88.2239,129.64583 c 0,0.51336 -0.41664,0.93 -0.93,0.93 -0.51336,0 -0.93,-0.41664 -0.93,-0.93 0,-0.51336 0.41664,-0.93 0.93,-0.93 0.51336,0 0.93,0.41664 0.93,0.93 z"
               id="path4752" />
            <path
               style="color:#000000;fill:#000000;fill-rule:evenodd;-inkscape-stroke:none"
               d="m 87.292969,128.5918 c -0.580451,0 -1.052735,0.47423 -1.052735,1.05468 0,0.58046 0.472284,1.05274 1.052735,1.05274 0.580451,0 1.054687,-0.47228 1.054687,-1.05274 0,-0.58045 -0.474236,-1.05468 -1.054687,-1.05468 z m 0,0.24804 c 0.446268,0 0.80664,0.36038 0.80664,0.80664 0,0.44627 -0.360372,0.80469 -0.80664,0.80469 -0.446268,0 -0.804688,-0.35842 -0.804688,-0.80469 0,-0.44626 0.35842,-0.80664 0.804688,-0.80664 z"
               id="path4754" />
          </g>
          <g
             id="path4738">
            <path
               style="color:#000000;fill:#000000;fill-rule:evenodd;stroke-width:0.186pt;-inkscape-stroke:none"
               d="m 82.93223,129.64583 c 0,0.51336 -0.41664,0.93 -0.93,0.93 -0.51336,0 -0.93,-0.41664 -0.93,-0.93 0,-0.51336 0.41664,-0.93 0.93,-0.93 0.51336,0 0.93,0.41664 0.93,0.93 z"
               id="path4742" />
            <path
               style="color:#000000;fill:#000000;fill-rule:evenodd;-inkscape-stroke:none"
               d="m 82.001953,128.5918 c -0.580451,0 -1.054687,0.47423 -1.054687,1.05468 0,0.58046 0.474236,1.05274 1.054687,1.05274 0.580451,0 1.054688,-0.47228 1.054688,-1.05274 0,-0.58045 -0.474237,-1.05468 -1.054688,-1.05468 z m 0,0.24804 c 0.446268,0 0.806641,0.36038 0.806641,0.80664 0,0.44627 -0.360373,0.80469 -0.806641,0.80469 -0.446268,0 -0.806641,-0.35842 -0.806641,-0.80469 0,-0.44626 0.360373,-0.80664 0.806641,-0.80664 z"
               id="path4744" />
          </g>
        </g>
      </g>
      <path
         style="color:#000000;fill:#000000;-inkscape-stroke:none"
         d="m 95.017586,129.64648 v 5.29102 h 0.464844 v -5.29102 z"
         id="path2386" />
      <g
         id="path2388"
         transform="translate(7.9375004)">
        <path
           style="color:#000000;fill:#000000;-inkscape-stroke:none"
           d="m 82.021484,134.70508 v 0.46484 H 87.3125 v -0.46484 z"
           id="path4792" />
        <g
           id="g4770">
          <g
             id="path4782">
            <path
               style="color:#000000;fill:#000000;fill-rule:evenodd;stroke-width:0.186pt;-inkscape-stroke:none"
               d="m 88.223903,134.9375 c 0,0.51336 -0.41664,0.93 -0.93,0.93 -0.51336,0 -0.93,-0.41664 -0.93,-0.93 0,-0.51336 0.41664,-0.93 0.93,-0.93 0.51336,0 0.93,0.41664 0.93,0.93 z"
               id="path4786" />
            <path
               style="color:#000000;fill:#000000;fill-rule:evenodd;-inkscape-stroke:none"
               d="m 87.292969,133.88281 c -0.580451,0 -1.052735,0.47424 -1.052735,1.05469 0,0.58045 0.472284,1.05469 1.052735,1.05469 0.580451,0 1.054687,-0.47424 1.054687,-1.05469 0,-0.58045 -0.474236,-1.05469 -1.054687,-1.05469 z m 0,0.24805 c 0.446268,0 0.80664,0.36037 0.80664,0.80664 0,0.44627 -0.360372,0.80664 -0.80664,0.80664 -0.446268,0 -0.804688,-0.36037 -0.804688,-0.80664 0,-0.44627 0.35842,-0.80664 0.804688,-0.80664 z"
               id="path4788" />
          </g>
          <g
             id="path4772">
            <path
               style="color:#000000;fill:#000000;fill-rule:evenodd;stroke-width:0.186pt;-inkscape-stroke:none"
               d="m 82.932233,134.9375 c 0,0.51336 -0.41664,0.93 -0.93,0.93 -0.51336,0 -0.93,-0.41664 -0.93,-0.93 0,-0.51336 0.41664,-0.93 0.93,-0.93 0.51336,0 0.93,0.41664 0.93,0.93 z"
               id="path4776" />
            <path
               style="color:#000000;fill:#000000;fill-rule:evenodd;-inkscape-stroke:none"
               d="m 82.001953,133.88281 c -0.580451,0 -1.054687,0.47424 -1.054687,1.05469 0,0.58045 0.474236,1.05469 1.054687,1.05469 0.580451,0 1.054688,-0.47424 1.054688,-1.05469 0,-0.58045 -0.474237,-1.05469 -1.054688,-1.05469 z m 0,0.24805 c 0.446268,0 0.806641,0.36037 0.806641,0.80664 0,0.44627 -0.360373,0.80664 -0.806641,0.80664 -0.446268,0 -0.806641,-0.36037 -0.806641,-0.80664 0,-0.44627 0.360373,-0.80664 0.806641,-0.80664 z"
               id="path4778" />
          </g>
        </g>
      </g>
      <path
         style="color:#000000;fill:#000000;-inkscape-stroke:none"
         d="m 100.3086,129.64648 v 5.29102 h 0.46485 v -5.29102 z"
         id="path2390" />
      <g
         id="path2392"
         transform="translate(7.9375004)">
        <path
           style="color:#000000;fill:#000000;-inkscape-stroke:none"
           d="m 92.603516,129.41406 v 0.46485 h 5.292968 v -0.46485 z"
           id="path4826" />
        <g
           id="g4804">
          <g
             id="path4816">
            <path
               style="color:#000000;fill:#000000;fill-rule:evenodd;stroke-width:0.186pt;-inkscape-stroke:none"
               d="m 98.807237,129.64583 c 0,0.51336 -0.41664,0.93 -0.93,0.93 -0.51336,0 -0.93,-0.41664 -0.93,-0.93 0,-0.51336 0.41664,-0.93 0.93,-0.93 0.51336,0 0.93,0.41664 0.93,0.93 z"
               id="path4820" />
            <path
               style="color:#000000;fill:#000000;fill-rule:evenodd;-inkscape-stroke:none"
               d="m 97.876953,128.5918 c -0.580451,0 -1.054687,0.47423 -1.054687,1.05468 0,0.58046 0.474236,1.05274 1.054687,1.05274 0.580451,0 1.054688,-0.47228 1.054688,-1.05274 0,-0.58045 -0.474237,-1.05468 -1.054688,-1.05468 z m 0,0.24804 c 0.446268,0 0.806641,0.36038 0.806641,0.80664 0,0.44627 -0.360373,0.80469 -0.806641,0.80469 -0.446268,0 -0.806641,-0.35842 -0.806641,-0.80469 0,-0.44626 0.360373,-0.80664 0.806641,-0.80664 z"
               id="path4822" />
          </g>
          <g
             id="path4806">
            <path
               style="color:#000000;fill:#000000;fill-rule:evenodd;stroke-width:0.186pt;-inkscape-stroke:none"
               d="m 93.515567,129.64583 c 0,0.51336 -0.41664,0.93 -0.93,0.93 -0.51336,0 -0.93,-0.41664 -0.93,-0.93 0,-0.51336 0.41664,-0.93 0.93,-0.93 0.51336,0 0.93,0.41664 0.93,0.93 z"
               id="path4810" />
            <path
               style="color:#000000;fill:#000000;fill-rule:evenodd;-inkscape-stroke:none"
               d="m 92.585937,128.5918 c -0.580451,0 -1.054687,0.47423 -1.054687,1.05468 0,0.58046 0.474236,1.05274 1.054687,1.05274 0.580452,0 1.052735,-0.47228 1.052735,-1.05274 0,-0.58045 -0.472283,-1.05468 -1.052735,-1.05468 z m 0,0.24804 c 0.446268,0 0.804688,0.36038 0.804688,0.80664 0,0.44627 -0.35842,0.80469 -0.804688,0.80469 -0.446267,0 -0.80664,-0.35842 -0.80664,-0.80469 0,-0.44626 0.360373,-0.80664 0.80664,-0.80664 z"
               id="path4812" />
          </g>
        </g>
      </g>
      <path
         style="color:#000000;fill:#000000;-inkscape-stroke:none"
         d="m 105.6016,129.64648 v 5.29102 h 0.46485 v -5.29102 z"
         id="path2394" />
      <g
         id="path2396"
         transform="translate(7.9375004)">
        <path
           style="color:#000000;fill:#000000;-inkscape-stroke:none"
           d="m 92.603516,134.70508 v 0.46484 h 5.292968 v -0.46484 z"
           id="path4860" />
        <g
           id="g4838">
          <g
             id="path4850">
            <path
               style="color:#000000;fill:#000000;fill-rule:evenodd;stroke-width:0.186pt;-inkscape-stroke:none"
               d="m 98.80724,134.9375 c 0,0.51336 -0.41664,0.93 -0.93,0.93 -0.51336,0 -0.93,-0.41664 -0.93,-0.93 0,-0.51336 0.41664,-0.93 0.93,-0.93 0.51336,0 0.93,0.41664 0.93,0.93 z"
               id="path4854" />
            <path
               style="color:#000000;fill:#000000;fill-rule:evenodd;-inkscape-stroke:none"
               d="m 97.876953,133.88281 c -0.580451,0 -1.054687,0.47424 -1.054687,1.05469 0,0.58045 0.474236,1.05469 1.054687,1.05469 0.580451,0 1.054688,-0.47424 1.054688,-1.05469 0,-0.58045 -0.474237,-1.05469 -1.054688,-1.05469 z m 0,0.24805 c 0.446268,0 0.806641,0.36037 0.806641,0.80664 0,0.44627 -0.360373,0.80664 -0.806641,0.80664 -0.446268,0 -0.806641,-0.36037 -0.806641,-0.80664 0,-0.44627 0.360373,-0.80664 0.806641,-0.80664 z"
               id="path4856" />
          </g>
          <g
             id="path4840">
            <path
               style="color:#000000;fill:#000000;fill-rule:evenodd;stroke-width:0.186pt;-inkscape-stroke:none"
               d="m 93.51557,134.9375 c 0,0.51336 -0.41664,0.93 -0.93,0.93 -0.51336,0 -0.93,-0.41664 -0.93,-0.93 0,-0.51336 0.41664,-0.93 0.93,-0.93 0.51336,0 0.93,0.41664 0.93,0.93 z"
               id="path4844" />
            <path
               style="color:#000000;fill:#000000;fill-rule:evenodd;-inkscape-stroke:none"
               d="m 92.585937,133.88281 c -0.580451,0 -1.054687,0.47424 -1.054687,1.05469 0,0.58045 0.474236,1.05469 1.054687,1.05469 0.580452,0 1.052735,-0.47424 1.052735,-1.05469 0,-0.58045 -0.472283,-1.05469 -1.052735,-1.05469 z m 0,0.24805 c 0.446268,0 0.804688,0.36037 0.804688,0.80664 0,0.44627 -0.35842,0.80664 -0.804688,0.80664 -0.446267,0 -0.80664,-0.36037 -0.80664,-0.80664 0,-0.44627 0.360373,-0.80664 0.80664,-0.80664 z"
               id="path4846" />
          </g>
        </g>
      </g>
      <rect
         style="font-variation-settings:normal;opacity:1;vector-effect:none;fill:#ffd6d6;fill-opacity:1;fill-rule:evenodd;stroke:none;stroke-width:0.264583;stroke-linecap:butt;stroke-linejoin:miter;stroke-miterlimit:4;stroke-dasharray:none;stroke-dashoffset:0;stroke-opacity:1;stop-color:#000000;stop-opacity:1"
         id="rect6516"
         width="5.2916665"
         height="5.2916665"
         x="111.35799"
         y="129.64519" />
      <path
         style="color:#000000;fill:#000000;-inkscape-stroke:none"
         d="m 111.125,129.64583 v 5.29102 h 0.46484 v -5.29102 z"
         id="path6518" />
      <g
         id="g6536"
         transform="translate(18.753841,-6.4333334e-4)">
        <path
           style="color:#000000;fill:#000000;-inkscape-stroke:none"
           d="m 92.603516,129.41406 v 0.46485 h 5.292968 v -0.46485 z"
           id="path6520" />
        <g
           id="g6534">
          <g
             id="g6526">
            <path
               style="color:#000000;fill:#000000;fill-rule:evenodd;stroke-width:0.186pt;-inkscape-stroke:none"
               d="m 98.807237,129.64583 c 0,0.51336 -0.41664,0.93 -0.93,0.93 -0.51336,0 -0.93,-0.41664 -0.93,-0.93 0,-0.51336 0.41664,-0.93 0.93,-0.93 0.51336,0 0.93,0.41664 0.93,0.93 z"
               id="path6522" />
            <path
               style="color:#000000;fill:#000000;fill-rule:evenodd;-inkscape-stroke:none"
               d="m 97.876953,128.5918 c -0.580451,0 -1.054687,0.47423 -1.054687,1.05468 0,0.58046 0.474236,1.05274 1.054687,1.05274 0.580451,0 1.054688,-0.47228 1.054688,-1.05274 0,-0.58045 -0.474237,-1.05468 -1.054688,-1.05468 z m 0,0.24804 c 0.446268,0 0.806641,0.36038 0.806641,0.80664 0,0.44627 -0.360373,0.80469 -0.806641,0.80469 -0.446268,0 -0.806641,-0.35842 -0.806641,-0.80469 0,-0.44626 0.360373,-0.80664 0.806641,-0.80664 z"
               id="path6524" />
          </g>
          <g
             id="g6532">
            <path
               style="color:#000000;fill:#000000;fill-rule:evenodd;stroke-width:0.186pt;-inkscape-stroke:none"
               d="m 93.515567,129.64583 c 0,0.51336 -0.41664,0.93 -0.93,0.93 -0.51336,0 -0.93,-0.41664 -0.93,-0.93 0,-0.51336 0.41664,-0.93 0.93,-0.93 0.51336,0 0.93,0.41664 0.93,0.93 z"
               id="path6528" />
            <path
               style="color:#000000;fill:#000000;fill-rule:evenodd;-inkscape-stroke:none"
               d="m 92.585937,128.5918 c -0.580451,0 -1.054687,0.47423 -1.054687,1.05468 0,0.58046 0.474236,1.05274 1.054687,1.05274 0.580452,0 1.052735,-0.47228 1.052735,-1.05274 0,-0.58045 -0.472283,-1.05468 -1.052735,-1.05468 z m 0,0.24804 c 0.446268,0 0.804688,0.36038 0.804688,0.80664 0,0.44627 -0.35842,0.80469 -0.804688,0.80469 -0.446267,0 -0.80664,-0.35842 -0.80664,-0.80469 0,-0.44626 0.360373,-0.80664 0.80664,-0.80664 z"
               id="path6530" />
          </g>
        </g>
      </g>
      <path
         style="color:#000000;fill:#000000;-inkscape-stroke:none"
         d="m 116.41798,129.64583 v 5.29102 h 0.46484 v -5.29102 z"
         id="path6538" />
      <g
         id="g6556"
         transform="translate(18.753841,-6.4333334e-4)">
        <path
           style="color:#000000;fill:#000000;-inkscape-stroke:none"
           d="m 92.603516,134.70508 v 0.46484 h 5.292968 v -0.46484 z"
           id="path6540" />
        <g
           id="g6554">
          <g
             id="g6546">
            <path
               style="color:#000000;fill:#000000;fill-rule:evenodd;stroke-width:0.186pt;-inkscape-stroke:none"
               d="m 98.80724,134.9375 c 0,0.51336 -0.41664,0.93 -0.93,0.93 -0.51336,0 -0.93,-0.41664 -0.93,-0.93 0,-0.51336 0.41664,-0.93 0.93,-0.93 0.51336,0 0.93,0.41664 0.93,0.93 z"
               id="path6542" />
            <path
               style="color:#000000;fill:#000000;fill-rule:evenodd;-inkscape-stroke:none"
               d="m 97.876953,133.88281 c -0.580451,0 -1.054687,0.47424 -1.054687,1.05469 0,0.58045 0.474236,1.05469 1.054687,1.05469 0.580451,0 1.054688,-0.47424 1.054688,-1.05469 0,-0.58045 -0.474237,-1.05469 -1.054688,-1.05469 z m 0,0.24805 c 0.446268,0 0.806641,0.36037 0.806641,0.80664 0,0.44627 -0.360373,0.80664 -0.806641,0.80664 -0.446268,0 -0.806641,-0.36037 -0.806641,-0.80664 0,-0.44627 0.360373,-0.80664 0.806641,-0.80664 z"
               id="path6544" />
          </g>
          <g
             id="g6552">
            <path
               style="color:#000000;fill:#000000;fill-rule:evenodd;stroke-width:0.186pt;-inkscape-stroke:none"
               d="m 93.51557,134.9375 c 0,0.51336 -0.41664,0.93 -0.93,0.93 -0.51336,0 -0.93,-0.41664 -0.93,-0.93 0,-0.51336 0.41664,-0.93 0.93,-0.93 0.51336,0 0.93,0.41664 0.93,0.93 z"
               id="path6548" />
            <path
               style="color:#000000;fill:#000000;fill-rule:evenodd;-inkscape-stroke:none"
               d="m 92.585937,133.88281 c -0.580451,0 -1.054687,0.47424 -1.054687,1.05469 0,0.58045 0.474236,1.05469 1.054687,1.05469 0.580452,0 1.052735,-0.47424 1.052735,-1.05469 0,-0.58045 -0.472283,-1.05469 -1.052735,-1.05469 z m 0,0.24805 c 0.446268,0 0.804688,0.36037 0.804688,0.80664 0,0.44627 -0.35842,0.80664 -0.804688,0.80664 -0.446267,0 -0.80664,-0.36037 -0.80664,-0.80664 0,-0.44627 0.360373,-0.80664 0.80664,-0.80664 z"
               id="path6550" />
          </g>
        </g>
      </g>
      <rect
         style="font-variation-settings:normal;opacity:1;vector-effect:none;fill:#ffd6d6;fill-opacity:1;fill-rule:evenodd;stroke:none;stroke-width:0.264583;stroke-linecap:butt;stroke-linejoin:miter;stroke-miterlimit:4;stroke-dasharray:none;stroke-dashoffset:0;stroke-opacity:1;stop-color:#000000;stop-opacity:1"
         id="rect6680"
         width="5.2916665"
         height="5.2916665"
         x="121.94009"
         y="129.64519" />
      <path
         style="color:#000000;fill:#000000;-inkscape-stroke:none"
         d="m 121.70712,129.64583 v 5.29102 h 0.46484 v -5.29102 z"
         id="path6682" />
      <g
         id="g6700"
         transform="translate(29.335947,-6.4666667e-4)">
        <path
           style="color:#000000;fill:#000000;-inkscape-stroke:none"
           d="m 92.603516,129.41406 v 0.46485 h 5.292968 v -0.46485 z"
           id="path6684" />
        <g
           id="g6698">
          <g
             id="g6690">
            <path
               style="color:#000000;fill:#000000;fill-rule:evenodd;stroke-width:0.186pt;-inkscape-stroke:none"
               d="m 98.807237,129.64583 c 0,0.51336 -0.41664,0.93 -0.93,0.93 -0.51336,0 -0.93,-0.41664 -0.93,-0.93 0,-0.51336 0.41664,-0.93 0.93,-0.93 0.51336,0 0.93,0.41664 0.93,0.93 z"
               id="path6686" />
            <path
               style="color:#000000;fill:#000000;fill-rule:evenodd;-inkscape-stroke:none"
               d="m 97.876953,128.5918 c -0.580451,0 -1.054687,0.47423 -1.054687,1.05468 0,0.58046 0.474236,1.05274 1.054687,1.05274 0.580451,0 1.054688,-0.47228 1.054688,-1.05274 0,-0.58045 -0.474237,-1.05468 -1.054688,-1.05468 z m 0,0.24804 c 0.446268,0 0.806641,0.36038 0.806641,0.80664 0,0.44627 -0.360373,0.80469 -0.806641,0.80469 -0.446268,0 -0.806641,-0.35842 -0.806641,-0.80469 0,-0.44626 0.360373,-0.80664 0.806641,-0.80664 z"
               id="path6688" />
          </g>
          <g
             id="g6696">
            <path
               style="color:#000000;fill:#000000;fill-rule:evenodd;stroke-width:0.186pt;-inkscape-stroke:none"
               d="m 93.515567,129.64583 c 0,0.51336 -0.41664,0.93 -0.93,0.93 -0.51336,0 -0.93,-0.41664 -0.93,-0.93 0,-0.51336 0.41664,-0.93 0.93,-0.93 0.51336,0 0.93,0.41664 0.93,0.93 z"
               id="path6692" />
            <path
               style="color:#000000;fill:#000000;fill-rule:evenodd;-inkscape-stroke:none"
               d="m 92.585937,128.5918 c -0.580451,0 -1.054687,0.47423 -1.054687,1.05468 0,0.58046 0.474236,1.05274 1.054687,1.05274 0.580452,0 1.052735,-0.47228 1.052735,-1.05274 0,-0.58045 -0.472283,-1.05468 -1.052735,-1.05468 z m 0,0.24804 c 0.446268,0 0.804688,0.36038 0.804688,0.80664 0,0.44627 -0.35842,0.80469 -0.804688,0.80469 -0.446267,0 -0.80664,-0.35842 -0.80664,-0.80469 0,-0.44626 0.360373,-0.80664 0.80664,-0.80664 z"
               id="path6694" />
          </g>
        </g>
      </g>
      <path
         style="color:#000000;fill:#000000;-inkscape-stroke:none"
         d="m 127.00009,129.64583 v 5.29102 h 0.46484 v -5.29102 z"
         id="path6702" />
      <g
         id="g6720"
         transform="translate(29.335947,-6.4666667e-4)">
        <path
           style="color:#000000;fill:#000000;-inkscape-stroke:none"
           d="m 92.603516,134.70508 v 0.46484 h 5.292968 v -0.46484 z"
           id="path6704" />
        <g
           id="g6718">
          <g
             id="g6710">
            <path
               style="color:#000000;fill:#000000;fill-rule:evenodd;stroke-width:0.186pt;-inkscape-stroke:none"
               d="m 98.80724,134.9375 c 0,0.51336 -0.41664,0.93 -0.93,0.93 -0.51336,0 -0.93,-0.41664 -0.93,-0.93 0,-0.51336 0.41664,-0.93 0.93,-0.93 0.51336,0 0.93,0.41664 0.93,0.93 z"
               id="path6706" />
            <path
               style="color:#000000;fill:#000000;fill-rule:evenodd;-inkscape-stroke:none"
               d="m 97.876953,133.88281 c -0.580451,0 -1.054687,0.47424 -1.054687,1.05469 0,0.58045 0.474236,1.05469 1.054687,1.05469 0.580451,0 1.054688,-0.47424 1.054688,-1.05469 0,-0.58045 -0.474237,-1.05469 -1.054688,-1.05469 z m 0,0.24805 c 0.446268,0 0.806641,0.36037 0.806641,0.80664 0,0.44627 -0.360373,0.80664 -0.806641,0.80664 -0.446268,0 -0.806641,-0.36037 -0.806641,-0.80664 0,-0.44627 0.360373,-0.80664 0.806641,-0.80664 z"
               id="path6708" />
          </g>
          <g
             id="g6716">
            <path
               style="color:#000000;fill:#000000;fill-rule:evenodd;stroke-width:0.186pt;-inkscape-stroke:none"
               d="m 93.51557,134.9375 c 0,0.51336 -0.41664,0.93 -0.93,0.93 -0.51336,0 -0.93,-0.41664 -0.93,-0.93 0,-0.51336 0.41664,-0.93 0.93,-0.93 0.51336,0 0.93,0.41664 0.93,0.93 z"
               id="path6712" />
            <path
               style="color:#000000;fill:#000000;fill-rule:evenodd;-inkscape-stroke:none"
               d="m 92.585937,133.88281 c -0.580451,0 -1.054687,0.47424 -1.054687,1.05469 0,0.58045 0.474236,1.05469 1.054687,1.05469 0.580452,0 1.052735,-0.47424 1.052735,-1.05469 0,-0.58045 -0.472283,-1.05469 -1.052735,-1.05469 z m 0,0.24805 c 0.446268,0 0.804688,0.36037 0.804688,0.80664 0,0.44627 -0.35842,0.80664 -0.804688,0.80664 -0.446267,0 -0.80664,-0.36037 -0.80664,-0.80664 0,-0.44627 0.360373,-0.80664 0.80664,-0.80664 z"
               id="path6714" />
          </g>
        </g>
      </g>
      <path
         style="fill:none;stroke:#000000;stroke-width:0.465;stroke-linecap:butt;stroke-linejoin:miter;stroke-miterlimit:4;stroke-dasharray:none;stroke-opacity:1"
         d="m 121.92151,129.64518 5.29168,5.29167"
         id="path8110" />
      <path
         style="fill:none;stroke:#000000;stroke-width:0.465;stroke-linecap:butt;stroke-linejoin:miter;stroke-miterlimit:4;stroke-dasharray:none;stroke-opacity:1"
         d="m 127.2129,129.64486 -5.29139,5.29199"
         id="path8112" />
      <path
         style="fill:none;stroke:#000000;stroke-width:0.465;stroke-linecap:butt;stroke-linejoin:miter;stroke-miterlimit:4;stroke-dasharray:none;stroke-opacity:1"
         d="m 111.3388,129.64487 5.29199,5.29199"
         id="path8307" />
    </g>
  </g>
</svg>
