<?xml version="1.0" encoding="UTF-8" standalone="no"?>
<!-- Created with Inkscape (http://www.inkscape.org/) -->

<svg
   width="46.122547mm"
   height="26.081596mm"
   viewBox="0 0 46.122547 26.081597"
   version="1.1"
   id="svg5"
   sodipodi:docname="undirected_graph.svg"
   inkscape:version="1.1 (c4e8f9e, 2021-05-24)"
   xmlns:inkscape="http://www.inkscape.org/namespaces/inkscape"
   xmlns:sodipodi="http://sodipodi.sourceforge.net/DTD/sodipodi-0.dtd"
   xmlns="http://www.w3.org/2000/svg"
   xmlns:svg="http://www.w3.org/2000/svg"
   xmlns:ns1="http://www.iki.fi/pav/software/textext/">
  <sodipodi:namedview
     id="namedview926"
     pagecolor="#ffffff"
     bordercolor="#666666"
     borderopacity="1.0"
     inkscape:pageshadow="2"
     inkscape:pageopacity="0.0"
     inkscape:pagecheckerboard="0"
     inkscape:document-units="mm"
     showgrid="false"
     inkscape:snap-global="true"
     inkscape:snap-center="true"
     inkscape:snap-nodes="false"
     inkscape:zoom="2.2416273"
     inkscape:cx="80.967966"
     inkscape:cy="49.294547"
     inkscape:window-width="1440"
     inkscape:window-height="847"
     inkscape:window-x="1933"
     inkscape:window-y="94"
     inkscape:window-maximized="0"
     inkscape:current-layer="svg5">
    <inkscape:grid
       type="xygrid"
       id="grid1014"
       originx="15.235199"
       originy="2.4218751e-07" />
  </sodipodi:namedview>
  <defs
     id="defs2">
    <marker
       style="overflow:visible"
       id="DotM"
       refX="0"
       refY="0"
       orient="auto">
      <path
         transform="matrix(0.4,0,0,0.4,2.96,0.4)"
         style="fill:context-stroke;fill-rule:evenodd;stroke:context-stroke;stroke-width:1pt"
         d="m -2.5,-1 c 0,2.76 -2.24,5 -5,5 -2.76,0 -5,-2.24 -5,-5 0,-2.76 2.24,-5 5,-5 2.76,0 5,2.24 5,5 z"
         id="path1007" />
    </marker>
    <defs
       id="id-6e46cf0e-a3c8-4abf-aaaf-ffbbe5d47bf9">
      <g
         id="id-ceda5dba-d285-4f3f-bfa4-26766de31b55">
        <symbol
           overflow="visible"
           id="id-97e537c4-473a-4fa4-b54d-2fd0536b3e93">
          <path
             style="stroke:none;stroke-width:0"
             d=""
             id="id-1ec65920-dcc3-492e-ac0d-b09bd18535fc" />
        </symbol>
        <symbol
           overflow="visible"
           id="id-f704f934-514f-4785-ae2c-2db9365cf451">
          <path
             style="stroke:none;stroke-width:0"
             d="M 3.71875,-3.765625 C 3.53125,-4.140625 3.25,-4.40625 2.796875,-4.40625 c -1.15625,0 -2.390625,1.46875 -2.390625,2.921875 0,0.9375 0.546875,1.59375 1.3125,1.59375 0.203125,0 0.703125,-0.046875 1.296875,-0.75 0.078125,0.421875 0.4375,0.75 0.90625,0.75 0.359375,0 0.578125,-0.234375 0.75,-0.546875 0.15625,-0.359375 0.296875,-0.96875 0.296875,-0.984375 0,-0.109375 -0.09375,-0.109375 -0.125,-0.109375 -0.09375,0 -0.109375,0.046875 -0.140625,0.1875 -0.171875,0.640625 -0.34375,1.234375 -0.75,1.234375 -0.28125,0 -0.296875,-0.265625 -0.296875,-0.453125 0,-0.21875 0.015625,-0.3125 0.125,-0.75 C 3.890625,-1.71875 3.90625,-1.828125 4,-2.203125 L 4.359375,-3.59375 c 0.0625,-0.28125 0.0625,-0.296875 0.0625,-0.34375 0,-0.171875 -0.109375,-0.265625 -0.28125,-0.265625 -0.25,0 -0.390625,0.21875 -0.421875,0.4375 z M 3.078125,-1.1875 C 3.015625,-1 3.015625,-0.984375 2.875,-0.8125 2.4375,-0.265625 2.03125,-0.109375 1.75,-0.109375 c -0.5,0 -0.640625,-0.546875 -0.640625,-0.9375 0,-0.5 0.3125,-1.71875 0.546875,-2.1875 0.3125,-0.578125 0.75,-0.953125 1.15625,-0.953125 0.640625,0 0.78125,0.8125 0.78125,0.875 0,0.0625 -0.015625,0.125 -0.03125,0.171875 z m 0,0"
             id="id-f7abe851-0009-496e-a5c8-03d69c93a142" />
        </symbol>
        <symbol
           overflow="visible"
           id="id-96bb1ad3-372d-4806-9f3d-ae6619871931">
          <path
             style="stroke:none;stroke-width:0"
             d="m 2.375,-6.8125 c 0,0 0,-0.109375 -0.125,-0.109375 -0.21875,0 -0.953125,0.078125 -1.21875,0.109375 -0.078125,0 -0.1875,0.015625 -0.1875,0.1875 0,0.125 0.09375,0.125 0.25,0.125 0.46875,0 0.484375,0.0625 0.484375,0.171875 0,0.0625 -0.078125,0.40625 -0.125,0.609375 l -0.828125,3.25 c -0.109375,0.5 -0.15625,0.671875 -0.15625,1.015625 0,0.9375 0.53125,1.5625 1.265625,1.5625 1.171875,0 2.40625,-1.484375 2.40625,-2.921875 0,-0.90625 -0.53125,-1.59375 -1.328125,-1.59375 -0.453125,0 -0.875,0.296875 -1.171875,0.59375 z M 1.453125,-3.046875 C 1.5,-3.265625 1.5,-3.28125 1.59375,-3.390625 2.078125,-4.03125 2.53125,-4.1875 2.796875,-4.1875 c 0.359375,0 0.625,0.296875 0.625,0.9375 0,0.59375 -0.328125,1.734375 -0.515625,2.109375 -0.328125,0.671875 -0.78125,1.03125 -1.171875,1.03125 -0.34375,0 -0.671875,-0.265625 -0.671875,-1 0,-0.203125 0,-0.390625 0.15625,-1.015625 z m 0,0"
             id="id-e809281e-a81a-45e3-b860-0342e7e6bb5e" />
        </symbol>
        <symbol
           overflow="visible"
           id="id-f0e398b9-20ba-494d-a2df-b79e68ec78ce">
          <path
             style="stroke:none;stroke-width:0"
             d="m 3.953125,-3.78125 c -0.171875,0 -0.296875,0 -0.4375,0.125 -0.171875,0.15625 -0.1875,0.328125 -0.1875,0.390625 0,0.25 0.1875,0.359375 0.375,0.359375 0.28125,0 0.546875,-0.25 0.546875,-0.640625 0,-0.484375 -0.46875,-0.859375 -1.171875,-0.859375 -1.34375,0 -2.671875,1.421875 -2.671875,2.828125 0,0.90625 0.578125,1.6875 1.625,1.6875 1.421875,0 2.25,-1.0625 2.25,-1.171875 0,-0.0625 -0.046875,-0.140625 -0.109375,-0.140625 -0.0625,0 -0.078125,0.03125 -0.140625,0.109375 -0.78125,0.984375 -1.875,0.984375 -1.984375,0.984375 -0.625,0 -0.90625,-0.484375 -0.90625,-1.09375 0,-0.40625 0.203125,-1.375 0.546875,-1.984375 0.3125,-0.578125 0.859375,-1 1.40625,-1 0.328125,0 0.71875,0.125 0.859375,0.40625 z m 0,0"
             id="id-bccd395d-dc1e-4f26-a605-c07b630c955e" />
        </symbol>
        <symbol
           overflow="visible"
           id="id-b2aa17dc-f0e0-4056-84de-e33d07644c1f">
          <path
             style="stroke:none;stroke-width:0"
             d="m 5.140625,-6.8125 c 0,0 0,-0.109375 -0.125,-0.109375 -0.15625,0 -1.09375,0.09375 -1.265625,0.109375 -0.078125,0.015625 -0.140625,0.0625 -0.140625,0.1875 0,0.125 0.09375,0.125 0.234375,0.125 0.484375,0 0.5,0.0625 0.5,0.171875 L 4.3125,-6.125 3.71875,-3.765625 C 3.53125,-4.140625 3.25,-4.40625 2.796875,-4.40625 c -1.15625,0 -2.390625,1.46875 -2.390625,2.921875 0,0.9375 0.546875,1.59375 1.3125,1.59375 0.203125,0 0.703125,-0.046875 1.296875,-0.75 0.078125,0.421875 0.4375,0.75 0.90625,0.75 0.359375,0 0.578125,-0.234375 0.75,-0.546875 0.15625,-0.359375 0.296875,-0.96875 0.296875,-0.984375 0,-0.109375 -0.09375,-0.109375 -0.125,-0.109375 -0.09375,0 -0.109375,0.046875 -0.140625,0.1875 -0.171875,0.640625 -0.34375,1.234375 -0.75,1.234375 -0.28125,0 -0.296875,-0.265625 -0.296875,-0.453125 0,-0.25 0.015625,-0.3125 0.046875,-0.484375 z m -2.0625,5.625 C 3.015625,-1 3.015625,-0.984375 2.875,-0.8125 2.4375,-0.265625 2.03125,-0.109375 1.75,-0.109375 c -0.5,0 -0.640625,-0.546875 -0.640625,-0.9375 0,-0.5 0.3125,-1.71875 0.546875,-2.1875 0.3125,-0.578125 0.75,-0.953125 1.15625,-0.953125 0.640625,0 0.78125,0.8125 0.78125,0.875 0,0.0625 -0.015625,0.125 -0.03125,0.171875 z m 0,0"
             id="id-ae5c0070-f611-43c2-b986-9d2690853318" />
        </symbol>
        <symbol
           overflow="visible"
           id="id-566aafb2-e8ae-42b3-8a6b-a53a92b3aac9">
          <path
             style="stroke:none;stroke-width:0"
             d="m 1.859375,-2.296875 c 0.296875,0 1.03125,-0.03125 1.53125,-0.234375 0.703125,-0.296875 0.75,-0.890625 0.75,-1.03125 0,-0.4375 -0.375,-0.84375 -1.0625,-0.84375 -1.109375,0 -2.625,0.96875 -2.625,2.71875 0,1.015625 0.59375,1.796875 1.578125,1.796875 1.421875,0 2.25,-1.0625 2.25,-1.171875 0,-0.0625 -0.046875,-0.140625 -0.109375,-0.140625 -0.0625,0 -0.078125,0.03125 -0.140625,0.109375 -0.78125,0.984375 -1.875,0.984375 -1.984375,0.984375 -0.78125,0 -0.875,-0.84375 -0.875,-1.15625 0,-0.125 0.015625,-0.421875 0.15625,-1.03125 z m -0.46875,-0.21875 C 1.78125,-4.03125 2.8125,-4.1875 3.078125,-4.1875 c 0.453125,0 0.734375,0.296875 0.734375,0.625 0,1.046875 -1.59375,1.046875 -2.015625,1.046875 z m 0,0"
             id="id-3f6d6305-08e9-415d-ad18-4c3939dd0a67" />
        </symbol>
        <symbol
           overflow="visible"
           id="id-9a900d6e-4dd9-4086-a0ee-2ca584358eaa">
          <path
             style="stroke:none;stroke-width:0"
             d=""
             id="id-d177a036-439c-40dc-b247-9674bfc660d7" />
        </symbol>
        <symbol
           overflow="visible"
           id="id-3a4f3aed-0aae-469b-9c5a-e96b989a5637">
          <path
             style="stroke:none;stroke-width:0"
             d="m 2.328125,-4.4375 c 0,-0.1875 0,-0.1875 -0.203125,-0.1875 -0.453125,0.4375 -1.078125,0.4375 -1.359375,0.4375 v 0.25 c 0.15625,0 0.625,0 1,-0.1875 v 3.546875 c 0,0.234375 0,0.328125 -0.6875,0.328125 H 0.8125 V 0 c 0.125,0 0.984375,-0.03125 1.234375,-0.03125 0.21875,0 1.09375,0.03125 1.25,0.03125 V -0.25 H 3.03125 c -0.703125,0 -0.703125,-0.09375 -0.703125,-0.328125 z m 0,0"
             id="id-5183a575-2fdd-4230-ae0f-df1b2bf6d96e" />
        </symbol>
        <symbol
           overflow="visible"
           id="id-728d91fe-bbe9-4c39-beec-75f7ea98e0e1">
          <path
             style="stroke:none;stroke-width:0"
             d="M 3.515625,-1.265625 H 3.28125 c -0.015625,0.15625 -0.09375,0.5625 -0.1875,0.625 C 3.046875,-0.59375 2.515625,-0.59375 2.40625,-0.59375 H 1.125 c 0.734375,-0.640625 0.984375,-0.84375 1.390625,-1.171875 0.515625,-0.40625 1,-0.84375 1,-1.5 0,-0.84375 -0.734375,-1.359375 -1.625,-1.359375 -0.859375,0 -1.453125,0.609375 -1.453125,1.25 0,0.34375 0.296875,0.390625 0.375,0.390625 0.15625,0 0.359375,-0.125 0.359375,-0.375 0,-0.125 -0.046875,-0.375 -0.40625,-0.375 C 0.984375,-4.21875 1.453125,-4.375 1.78125,-4.375 c 0.703125,0 1.0625,0.546875 1.0625,1.109375 0,0.609375 -0.4375,1.078125 -0.65625,1.328125 L 0.515625,-0.265625 C 0.4375,-0.203125 0.4375,-0.1875 0.4375,0 h 2.875 z m 0,0"
             id="id-36f3b3ed-2bf8-49d8-8323-4df9b9d191ab" />
        </symbol>
        <symbol
           overflow="visible"
           id="id-db7a9bac-b49f-4935-aa0f-9ec13c58d19a">
          <path
             style="stroke:none;stroke-width:0"
             d="m 1.90625,-2.328125 c 0.546875,0 0.9375,0.375 0.9375,1.125 0,0.859375 -0.515625,1.125 -0.90625,1.125 -0.28125,0 -0.90625,-0.078125 -1.1875,-0.5 0.328125,0 0.40625,-0.234375 0.40625,-0.390625 0,-0.21875 -0.171875,-0.375 -0.390625,-0.375 -0.1875,0 -0.390625,0.125 -0.390625,0.40625 0,0.65625 0.71875,1.078125 1.5625,1.078125 0.96875,0 1.640625,-0.65625 1.640625,-1.34375 0,-0.546875 -0.4375,-1.09375 -1.203125,-1.25 0.71875,-0.265625 0.984375,-0.78125 0.984375,-1.21875 0,-0.546875 -0.625,-0.953125 -1.40625,-0.953125 -0.765625,0 -1.359375,0.375 -1.359375,0.9375 0,0.234375 0.15625,0.359375 0.359375,0.359375 0.21875,0 0.359375,-0.15625 0.359375,-0.34375 0,-0.203125 -0.140625,-0.359375 -0.359375,-0.375 0.25,-0.296875 0.71875,-0.375 0.984375,-0.375 0.3125,0 0.75,0.15625 0.75,0.75 0,0.296875 -0.09375,0.625 -0.28125,0.828125 -0.21875,0.265625 -0.421875,0.28125 -0.765625,0.3125 -0.171875,0.015625 -0.1875,0.015625 -0.21875,0.015625 -0.015625,0 -0.078125,0.015625 -0.078125,0.09375 0,0.09375 0.0625,0.09375 0.1875,0.09375 z m 0,0"
             id="id-78f50536-800f-402e-8bd2-a07188f725be" />
        </symbol>
        <symbol
           overflow="visible"
           id="id-5d80205b-31f0-40e8-9acc-6608e1e3a6a9">
          <path
             style="stroke:none;stroke-width:0"
             d="m 3.6875,-1.140625 v -0.25 H 2.90625 V -4.5 c 0,-0.140625 0,-0.203125 -0.140625,-0.203125 -0.09375,0 -0.125,0 -0.1875,0.109375 l -2.3125,3.203125 v 0.25 h 2.0625 v 0.5625 c 0,0.25 0,0.328125 -0.578125,0.328125 H 1.5625 V 0 C 1.921875,-0.015625 2.359375,-0.03125 2.609375,-0.03125 2.875,-0.03125 3.3125,-0.015625 3.671875,0 v -0.25 h -0.1875 C 2.90625,-0.25 2.90625,-0.328125 2.90625,-0.578125 v -0.5625 z M 2.375,-3.9375 v 2.546875 H 0.53125 Z m 0,0"
             id="id-377ff4a9-eda7-4d0d-bbd4-2160391ea144" />
        </symbol>
        <symbol
           overflow="visible"
           id="id-a1ee148d-8cbe-4d27-8840-4725b608fd36">
          <path
             style="stroke:none;stroke-width:0"
             d="m 1.078125,-3.890625 c 0.359375,0.09375 0.5625,0.09375 0.671875,0.09375 0.921875,0 1.46875,-0.625 1.46875,-0.734375 0,-0.078125 -0.046875,-0.09375 -0.078125,-0.09375 -0.015625,0 -0.03125,0 -0.0625,0.015625 -0.171875,0.0625 -0.53125,0.203125 -1.046875,0.203125 -0.203125,0 -0.5625,-0.015625 -1.015625,-0.1875 C 0.9375,-4.625 0.921875,-4.625 0.921875,-4.625 c -0.09375,0 -0.09375,0.078125 -0.09375,0.1875 v 2.046875 c 0,0.125 0,0.203125 0.109375,0.203125 0.0625,0 0.078125,0 0.140625,-0.09375 0.296875,-0.375 0.734375,-0.4375 0.96875,-0.4375 0.421875,0 0.609375,0.328125 0.640625,0.390625 0.125,0.234375 0.171875,0.5 0.171875,0.90625 0,0.203125 0,0.609375 -0.21875,0.921875 -0.171875,0.25 -0.46875,0.421875 -0.8125,0.421875 -0.453125,0 -0.921875,-0.25 -1.09375,-0.71875 0.265625,0.015625 0.40625,-0.15625 0.40625,-0.34375 0,-0.296875 -0.265625,-0.34375 -0.359375,-0.34375 0,0 -0.34375,0 -0.34375,0.375 0,0.625 0.578125,1.25 1.40625,1.25 0.890625,0 1.671875,-0.65625 1.671875,-1.546875 0,-0.78125 -0.59375,-1.5 -1.453125,-1.5 -0.3125,0 -0.671875,0.0625 -0.984375,0.328125 z m 0,0"
             id="id-63d8fa1c-b6b0-4c56-856c-dd6f30f294dd" />
        </symbol>
        <symbol
           overflow="visible"
           id="id-ec9432bd-1d79-4a0d-8e4b-f57a9b41fe9d">
          <path
             style="stroke:none;stroke-width:0"
             d="m 1.046875,-2.28125 c 0,-0.5625 0.046875,-1.078125 0.3125,-1.515625 0.234375,-0.375 0.609375,-0.625 1.0625,-0.625 0.203125,0 0.484375,0.046875 0.625,0.234375 C 2.875,-4.171875 2.71875,-4.046875 2.71875,-3.84375 c 0,0.171875 0.125,0.328125 0.328125,0.328125 0.21875,0 0.34375,-0.140625 0.34375,-0.34375 0,-0.40625 -0.296875,-0.765625 -0.984375,-0.765625 -1,0 -2.03125,0.921875 -2.03125,2.421875 0,1.796875 0.84375,2.34375 1.625,2.34375 0.84375,0 1.578125,-0.65625 1.578125,-1.5625 0,-0.890625 -0.703125,-1.546875 -1.515625,-1.546875 -0.5625,0 -0.859375,0.375 -1.015625,0.6875 z M 2,-0.078125 c -0.359375,0 -0.625,-0.203125 -0.78125,-0.515625 C 1.125,-0.796875 1.0625,-1.15625 1.0625,-1.5625 c 0,-0.6875 0.40625,-1.203125 0.96875,-1.203125 0.3125,0 0.53125,0.125 0.703125,0.375 0.171875,0.265625 0.171875,0.5625 0.171875,0.96875 0,0.390625 0,0.6875 -0.1875,0.96875 -0.15625,0.234375 -0.390625,0.375 -0.71875,0.375 z m 0,0"
             id="id-a820db52-1109-4ffe-9671-7f65b6e12a1e" />
        </symbol>
        <symbol
           overflow="visible"
           id="id-de4ceb74-0de0-4ef2-a9f5-40f70c19dbf9">
          <path
             style="stroke:none;stroke-width:0"
             d="m 3.734375,-4.203125 c 0.0625,-0.09375 0.0625,-0.109375 0.0625,-0.28125 H 1.96875 C 1.6875,-4.484375 1.609375,-4.5 1.359375,-4.515625 1,-4.546875 0.984375,-4.59375 0.96875,-4.703125 H 0.734375 l -0.25,1.484375 H 0.71875 c 0.015625,-0.109375 0.09375,-0.5625 0.203125,-0.640625 0.046875,-0.03125 0.625,-0.03125 0.71875,-0.03125 H 3.15625 c -0.21875,0.28125 -0.578125,0.71875 -0.71875,0.921875 -0.90625,1.1875 -1,2.296875 -1,2.703125 0,0.078125 0,0.40625 0.328125,0.40625 0.34375,0 0.34375,-0.3125 0.34375,-0.40625 v -0.28125 c 0,-1.34375 0.28125,-1.96875 0.578125,-2.34375 z m 0,0"
             id="id-cc423a20-ac97-4f17-9be1-f15fbc5c5556" />
        </symbol>
        <symbol
           overflow="visible"
           id="id-476faca5-3afa-40ed-8c98-f61ba824ab96">
          <path
             style="stroke:none;stroke-width:0"
             d="m 2.46875,-2.515625 c 0.546875,-0.265625 0.890625,-0.59375 0.890625,-1.078125 0,-0.671875 -0.703125,-1.03125 -1.375,-1.03125 -0.765625,0 -1.390625,0.5 -1.390625,1.15625 0,0.328125 0.15625,0.5625 0.28125,0.703125 0.125,0.15625 0.171875,0.1875 0.578125,0.421875 C 1.0625,-2.171875 0.375,-1.796875 0.375,-1.0625 c 0,0.765625 0.796875,1.203125 1.59375,1.203125 0.890625,0 1.609375,-0.5625 1.609375,-1.3125 0,-0.46875 -0.265625,-0.859375 -0.671875,-1.09375 -0.09375,-0.0625 -0.328125,-0.1875 -0.4375,-0.25 z m -1.125,-0.65625 c -0.1875,-0.109375 -0.375,-0.296875 -0.375,-0.5625 0,-0.4375 0.5,-0.6875 1,-0.6875 0.546875,0 1.03125,0.34375 1.03125,0.828125 0,0.625 -0.734375,0.9375 -0.734375,0.9375 -0.015625,0 -0.03125,0 -0.078125,-0.03125 z m 0.328125,0.96875 0.96875,0.546875 c 0.171875,0.109375 0.515625,0.3125 0.515625,0.71875 0,0.53125 -0.578125,0.859375 -1.171875,0.859375 -0.640625,0 -1.1875,-0.421875 -1.1875,-0.984375 0,-0.515625 0.375,-0.921875 0.875,-1.140625 z m 0,0"
             id="id-a93df098-b04d-4320-813a-2298e01c90a2" />
        </symbol>
      </g>
    </defs>
    <defs
       id="id-267d0cbf-5bab-43a2-b95e-29c40de89406">
      <g
         id="id-bd1c66e2-9a00-414d-ae70-f04276ba16b3">
        <symbol
           overflow="visible"
           id="id-ec198eeb-80fd-4925-b938-59e8d2cfb391">
          <path
             style="stroke:none;stroke-width:0"
             d=""
             id="id-dfa4f2b7-31e6-486d-bdf3-19e57431a96d" />
        </symbol>
        <symbol
           overflow="visible"
           id="id-43617d50-efe2-4e8c-88a9-267e450b2693">
          <path
             style="stroke:none;stroke-width:0"
             d="m 3.65625,-3.984375 h 0.859375 c 0.203125,0 0.296875,0 0.296875,-0.203125 0,-0.109375 -0.09375,-0.109375 -0.265625,-0.109375 H 3.71875 L 3.921875,-5.4375 c 0.046875,-0.203125 0.1875,-0.90625 0.25,-1.03125 0.078125,-0.1875 0.25,-0.34375 0.46875,-0.34375 0.03125,0 0.296875,0 0.484375,0.1875 -0.4375,0.03125 -0.546875,0.390625 -0.546875,0.53125 0,0.234375 0.1875,0.359375 0.375,0.359375 C 5.21875,-5.734375 5.5,-5.96875 5.5,-6.34375 c 0,-0.453125 -0.453125,-0.6875 -0.859375,-0.6875 -0.34375,0 -0.96875,0.1875 -1.265625,1.171875 -0.0625,0.203125 -0.09375,0.3125 -0.328125,1.5625 h -0.6875 c -0.203125,0 -0.3125,0 -0.3125,0.1875 0,0.125 0.09375,0.125 0.28125,0.125 h 0.65625 L 2.25,-0.046875 c -0.1875,0.96875 -0.359375,1.875 -0.875,1.875 -0.046875,0 -0.28125,0 -0.484375,-0.1875 C 1.359375,1.609375 1.453125,1.25 1.453125,1.109375 1.453125,0.875 1.265625,0.75 1.078125,0.75 0.8125,0.75 0.53125,0.984375 0.53125,1.359375 c 0,0.4375 0.4375,0.6875 0.84375,0.6875 0.546875,0 0.953125,-0.59375 1.125,-0.96875 0.328125,-0.625 0.546875,-1.828125 0.5625,-1.90625 z m 0,0"
             id="id-b598a7a2-42e3-4f5a-90c6-5db53acaa4d3" />
        </symbol>
      </g>
    </defs>
  </defs>
  <g
     id="g1620"
     transform="translate(15.235199)">
    <path
       style="color:#000000;fill:#000000;-inkscape-stroke:none"
       d="m -12.122224,20.875226 v 0.46485 l 16.0906489,0.05902 v -0.46485 z"
       id="path1116"
       sodipodi:nodetypes="ccccc" />
    <path
       style="color:#000000;fill:#000000;fill-rule:evenodd;-inkscape-stroke:none"
       d="m 27.104972,21.03523 c -0.857679,0 -1.554688,0.69897 -1.554688,1.55664 0,0.85768 0.697009,1.55469 1.554688,1.55469 0.857678,0 1.55664,-0.69701 1.55664,-1.55469 0,-0.85767 -0.698962,-1.55664 -1.55664,-1.55664 z m 0,0.46485 c 0.608111,0 1.091796,0.48368 1.091796,1.09179 0,0.60812 -0.483685,1.08985 -1.091796,1.08985 -0.608112,0 -1.089844,-0.48173 -1.089844,-1.08985 0,-0.60811 0.481732,-1.09179 1.089844,-1.09179 z"
       id="rect1259" />
    <path
       style="color:#000000;fill:#000000;fill-rule:evenodd;-inkscape-stroke:none"
       d="m 3.292472,2.515702 c -0.857679,0 -1.554688,0.69701 -1.554688,1.554688 0,0.85768 0.697009,1.55469 1.554688,1.55469 0.857678,0 1.55664,-0.69701 1.55664,-1.55469 0,-0.857678 -0.698962,-1.554688 -1.55664,-1.554688 z m 0,0.464844 c 0.608111,0 1.091796,0.481732 1.091796,1.089844 0,0.608112 -0.483685,1.08984 -1.091796,1.08984 -0.608112,0 -1.089844,-0.481728 -1.089844,-1.08984 0,-0.608112 0.481732,-1.089844 1.089844,-1.089844 z"
       id="rect1257" />
    <path
       style="color:#000000;fill:#000000;-inkscape-stroke:none"
       d="M 4.384268,5.16023 V 21.7325 L 26.479972,5.16023 H 25.782706 Z M 4.849112,5.62508 H 25.087393 L 4.849112,20.80281 Z"
       id="path1541" />
    <path
       style="color:#000000;fill:#000000;fill-rule:evenodd;stroke-width:0.186pt;-inkscape-stroke:none"
       d="m 26.511825,4.84647 c 0.308016,0.41069 0.224688,0.99398 -0.186,1.302 -0.410688,0.30802 -0.993984,0.22469 -1.302,-0.186 -0.308016,-0.41069 -0.224688,-0.99398 0.186,-1.302 0.410688,-0.308016 0.993984,-0.224688 1.302,0.186 z"
       id="path1535" />
    <path
       style="color:#000000;fill:#000000;fill-rule:evenodd;-inkscape-stroke:none"
       d="m 25.917472,4.361406 c -0.267321,-0.03819 -0.54907,0.02508 -0.78125,0.199218 -0.46436,0.348276 -0.559208,1.012196 -0.210938,1.476566 0.348271,0.46436 1.010248,0.55921 1.474609,0.21093 0.46436,-0.34827 0.559208,-1.0122 0.210938,-1.476558 C 26.436696,4.539381 26.184792,4.399594 25.917472,4.361406 Z M 25.284659,4.759843 C 25.641673,4.492082 26.145805,4.562985 26.413565,4.92 26.681327,5.27702 26.608472,5.78114 26.251456,6.04891 25.894442,6.31667 25.390311,6.24577 25.12255,5.88875 24.854788,5.53173 24.927643,5.02761 25.284659,4.759843 Z"
       id="path1537" />
    <path
       style="color:#000000;fill:#000000;fill-rule:evenodd;stroke-width:0.186pt;-inkscape-stroke:none"
       d="M 5.43122,21.6759 C 5.201638,22.13506 4.642657,22.32139 4.183494,22.09181 3.724331,21.86223 3.538004,21.30325 3.767585,20.84408 3.997167,20.38492 4.556148,20.19859 5.015311,20.42817 5.474474,20.65776 5.660802,21.21674 5.43122,21.6759 Z"
       id="path1525" />
    <path
       style="color:#000000;fill:#000000;fill-rule:evenodd;-inkscape-stroke:none"
       d="m 4.267081,20.2618 c -0.256177,0.0854 -0.481535,0.26776 -0.611328,0.52734 -0.259584,0.51918 -0.04651,1.15448 0.472656,1.41406 0.519172,0.25959 1.154476,0.0465 1.414063,-0.47265 C 5.802058,21.21138 5.588982,20.57608 5.069815,20.31648 4.81023,20.18669 4.523258,20.1764 4.267081,20.26178 Z m 0.693359,0.27734 c 0.399156,0.19959 0.558952,0.68288 0.359375,1.08203 C 5.120238,22.02032 4.638891,22.18012 4.239737,21.98055 3.840584,21.78097 3.678832,21.29963 3.878409,20.90047 4.077986,20.50132 4.561287,20.33956 4.96044,20.53914 Z"
       id="path1527" />
    <path
       style="color:#000000;fill:#dc8add;fill-rule:evenodd;stroke-width:0.186pt;-inkscape-stroke:none"
       d="m 3.971581,6.03777 c -0.363,-0.363 -0.363,-0.95222 0,-1.315221 0.363,-0.363001 0.952218,-0.363001 1.315218,-1e-6 C 5.6498,5.08555 5.6498,5.67477 5.2868,6.03777 c -0.363001,0.363 -0.952219,0.363 -1.315219,0 z"
       id="path1515" />
    <path
       style="color:#000000;fill:#000000;fill-rule:evenodd;-inkscape-stroke:none"
       d="m 4.628409,4.326249 c -0.270034,1e-6 -0.53892,0.103373 -0.744141,0.308594 -0.41044,0.410437 -0.41044,1.079797 0,1.490237 0.410441,0.41044 1.079793,0.41044 1.490235,0 0.410441,-0.41044 0.410441,-1.07979 0,-1.490237 C 5.169283,4.429623 4.898444,4.326249 4.628409,4.326249 Z M 4.06005,4.810624 c 0.315558,-0.315559 0.823113,-0.315558 1.138672,0 0.315559,0.315556 0.315558,0.823116 0,1.138676 -0.31556,0.31556 -0.823114,0.31555 -1.138672,0 -0.315559,-0.31556 -0.315559,-0.82312 0,-1.138676 z"
       id="path1517" />
    <path
       style="color:#000000;fill:#dc8add;fill-rule:evenodd;stroke-width:0.186pt;-inkscape-stroke:none"
       d="m 24.871305,5.39331 c 0,-0.51336 0.41664,-0.93 0.93,-0.93 0.51336,0 0.93,0.41664 0.93,0.93 0,0.51336 -0.41664,0.93 -0.93,0.93 -0.51336,0 -0.93,-0.41664 -0.93,-0.93 z"
       id="path1505" />
    <path
       style="color:#000000;fill:#000000;fill-rule:evenodd;-inkscape-stroke:none"
       d="m 25.802237,4.339921 c -0.580451,0 -1.054687,0.472283 -1.054687,1.052739 0,0.58045 0.474236,1.05468 1.054687,1.05468 0.580451,0 1.052735,-0.47423 1.052735,-1.05468 0,-0.580456 -0.472284,-1.052739 -1.052735,-1.052739 z m 0,0.248047 c 0.446268,0 0.804688,0.358422 0.804688,0.804692 0,0.44626 -0.35842,0.80664 -0.804688,0.80664 -0.446268,0 -0.80664,-0.36038 -0.80664,-0.80664 0,-0.44627 0.360372,-0.804692 0.80664,-0.804692 z"
       id="path1507" />
    <path
       style="color:#000000;fill:#000000;-inkscape-stroke:none"
       d="m 4.61669,21.03523 v 0.46485 h 21.166016 v -0.46485 z"
       id="path1569" />
    <path
       style="color:#000000;fill:#dc8add;fill-rule:evenodd;stroke-width:0.186pt;-inkscape-stroke:none"
       d="m 26.694105,21.26831 c 0,0.51336 -0.41664,0.93 -0.93,0.93 -0.51336,0 -0.93,-0.41664 -0.93,-0.93 0,-0.51336 0.41664,-0.93 0.93,-0.93 0.51336,0 0.93,0.41664 0.93,0.93 z"
       id="path1563" />
    <path
       style="color:#000000;fill:#000000;fill-rule:evenodd;-inkscape-stroke:none"
       d="m 25.763175,20.21492 c -0.580451,0 -1.052735,0.47228 -1.052735,1.05274 0,0.58045 0.472284,1.05468 1.052735,1.05468 0.580451,0 1.054687,-0.47423 1.054687,-1.05468 0,-0.58046 -0.474236,-1.05274 -1.054687,-1.05274 z m 0,0.24805 c 0.446268,0 0.80664,0.35842 0.80664,0.80469 0,0.44626 -0.360372,0.80664 -0.80664,0.80664 -0.446268,0 -0.804688,-0.36038 -0.804688,-0.80664 0,-0.44627 0.35842,-0.80469 0.804688,-0.80469 z"
       id="path1565" />
    <path
       style="color:#000000;fill:#dc8add;fill-rule:evenodd;stroke-width:0.186pt;-inkscape-stroke:none"
       d="m 5.527438,21.26831 c 0,0.51336 -0.41664,0.93 -0.93,0.93 -0.51336,0 -0.93,-0.41664 -0.93,-0.93 0,-0.51336 0.41664,-0.93 0.93,-0.93 0.51336,0 0.93,0.41664 0.93,0.93 z"
       id="path1553" />
    <path
       style="color:#000000;fill:#000000;fill-rule:evenodd;-inkscape-stroke:none"
       d="m 4.597159,20.21492 c -0.580451,0 -1.054687,0.47228 -1.054687,1.05274 0,0.58045 0.474236,1.05468 1.054687,1.05468 0.580451,0 1.054688,-0.47423 1.054688,-1.05468 0,-0.58046 -0.474237,-1.05274 -1.054688,-1.05274 z m 0,0.24805 c 0.446268,0 0.806641,0.35842 0.806641,0.80469 0,0.44626 -0.360373,0.80664 -0.806641,0.80664 -0.446268,0 -0.806641,-0.36038 -0.806641,-0.80664 0,-0.44627 0.360373,-0.80469 0.806641,-0.80469 z"
       id="path1555" />
    <path
       style="fill:#000000;fill-opacity:1;stroke:none;stroke-width:0"
       d="M 6.8350226,2.9367233 C 6.7703383,2.8073548 6.6733119,2.7157188 6.5169916,2.7157188 c -0.3988863,0 -0.8247244,0.5066934 -0.8247244,1.0079964 0,0.3234214 0.1886625,0.5498163 0.4527899,0.5498163 0.070075,0 0.242566,-0.016171 0.4473995,-0.2587371 0.026952,0.1455396 0.15093,0.2587371 0.3126406,0.2587371 0.1239782,0 0.1994432,-0.080855 0.2587371,-0.1886625 0.053903,-0.1239781 0.1024167,-0.334202 0.1024167,-0.3395923 0,-0.037732 -0.032342,-0.037732 -0.043123,-0.037732 -0.032342,0 -0.037732,0.016171 -0.048513,0.064684 -0.059294,0.2210046 -0.1185878,0.4258381 -0.2587371,0.4258381 -0.097026,0 -0.1024167,-0.091636 -0.1024167,-0.1563203 0,-0.075465 0.00539,-0.1078071 0.043123,-0.2587371 0.037733,-0.1401492 0.043123,-0.1778817 0.075465,-0.3072502 l 0.123978,-0.479742 c 0.021561,-0.097026 0.021561,-0.1024167 0.021561,-0.1185878 0,-0.059294 -0.037733,-0.091636 -0.097026,-0.091636 -0.086246,0 -0.1347589,0.075465 -0.1455396,0.1509299 z M 6.614018,3.826132 C 6.592457,3.890816 6.592457,3.896207 6.543943,3.9555005 6.3930131,4.144163 6.2528638,4.1980665 6.1558374,4.1980665 c -0.1724914,0 -0.2210046,-0.1886624 -0.2210046,-0.3234213 0,-0.1724914 0.1078071,-0.5929391 0.1886625,-0.7546498 0.1078071,-0.1994431 0.258737,-0.3288117 0.3988863,-0.3288117 0.2210046,0 0.2695178,0.2802985 0.2695178,0.3018599 0,0.021561 -0.00539,0.043123 -0.010781,0.059294 z m 0,0"
       id="id-8446c3a1-1ee9-4800-b506-30f3152ebbec" />
    <path
       style="fill:#000000;fill-opacity:1;stroke:none;stroke-width:0"
       d="m 28.172723,3.209085 c 0,0 0,-0.037733 -0.04312,-0.037733 -0.07547,0 -0.328811,0.026952 -0.420448,0.037733 -0.02695,0 -0.06468,0.00539 -0.06468,0.064684 0,0.043123 0.03234,0.043123 0.08625,0.043123 0.161711,0 0.167101,0.021561 0.167101,0.059294 0,0.021561 -0.02695,0.1401493 -0.04312,0.2102239 l -0.285689,1.1211939 c -0.03773,0.1724914 -0.0539,0.2317853 -0.0539,0.3503731 0,0.3234214 0.183272,0.5390356 0.436618,0.5390356 0.404277,0 0.830115,-0.5120838 0.830115,-1.0079965 0,-0.3126406 -0.183272,-0.5498162 -0.45818,-0.5498162 -0.15632,0 -0.30186,0.1024167 -0.404277,0.2048335 z m -0.318031,1.2990757 c 0.01617,-0.075465 0.01617,-0.080855 0.04851,-0.1185878 0.167101,-0.2210046 0.323422,-0.2749082 0.415058,-0.2749082 0.123978,0 0.215614,0.1024168 0.215614,0.3234214 0,0.2048335 -0.113198,0.5983294 -0.177882,0.727698 -0.113197,0.2317852 -0.269518,0.3557634 -0.404277,0.3557634 -0.118587,0 -0.231785,-0.091636 -0.231785,-0.3449827 0,-0.070075 0,-0.1347589 0.0539,-0.3503731 z m 0,0"
       id="id-9a0b2ac4-23f7-467b-98b0-b8a935710cb2" />
    <path
       style="fill:#000000;fill-opacity:1;stroke:none;stroke-width:0"
       d="m 4.8740686,23.487355 c -0.059294,0 -0.1024167,0 -0.1509299,0.04312 -0.059294,0.0539 -0.064684,0.113197 -0.064684,0.134759 0,0.08625 0.064684,0.123978 0.1293685,0.123978 0.097026,0 0.1886625,-0.08625 0.1886625,-0.221005 0,-0.167101 -0.1617107,-0.296469 -0.4042767,-0.296469 -0.4635705,0 -0.9217508,0.490522 -0.9217508,0.975654 0,0.312641 0.1994432,0.582158 0.560597,0.582158 0.4905224,0 0.7762112,-0.366544 0.7762112,-0.404276 0,-0.02156 -0.016171,-0.04851 -0.037732,-0.04851 -0.021561,0 -0.026952,0.01078 -0.048513,0.03773 -0.2695178,0.339593 -0.6468426,0.339593 -0.6845751,0.339593 -0.2156143,0 -0.3126407,-0.167102 -0.3126407,-0.377325 0,-0.14015 0.070075,-0.474352 0.1886625,-0.684576 0.1078071,-0.199443 0.2964695,-0.344982 0.485132,-0.344982 0.1131974,0 0.2479563,0.04312 0.2964695,0.140149 z m 0,0"
       id="id-ea7d1bed-c0c8-4577-a30b-8ddea58b6bc1" />
    <path
       style="fill:#000000;fill-opacity:1;stroke:none;stroke-width:0"
       d="m 28.287928,17.940285 c 0,0 0,-0.03773 -0.04312,-0.03773 -0.0539,0 -0.377325,0.03234 -0.436619,0.03773 -0.02695,0.0054 -0.04851,0.02156 -0.04851,0.06468 0,0.04312 0.03234,0.04312 0.08085,0.04312 0.167101,0 0.172492,0.02156 0.172492,0.05929 l -0.01078,0.07007 -0.204833,0.813943 C 27.732721,18.862036 27.635695,18.7704 27.479375,18.7704 c -0.398887,0 -0.824725,0.506693 -0.824725,1.007996 0,0.323422 0.188663,0.549816 0.45279,0.549816 0.07007,0 0.242566,-0.01617 0.4474,-0.258737 0.02695,0.14554 0.15093,0.258737 0.31264,0.258737 0.123978,0 0.199443,-0.08085 0.258737,-0.188662 0.0539,-0.123978 0.102417,-0.334202 0.102417,-0.339592 0,-0.03773 -0.03234,-0.03773 -0.04312,-0.03773 -0.03234,0 -0.03773,0.01617 -0.04851,0.06468 -0.05929,0.221005 -0.118588,0.425839 -0.258737,0.425839 -0.09703,0 -0.102417,-0.09164 -0.102417,-0.156321 0,-0.08624 0.0054,-0.107807 0.01617,-0.167101 z m -0.711527,1.940528 c -0.02156,0.06468 -0.02156,0.07007 -0.07007,0.129369 -0.15093,0.188662 -0.291079,0.242566 -0.388105,0.242566 -0.172492,0 -0.221005,-0.188663 -0.221005,-0.323422 0,-0.172491 0.107807,-0.592939 0.188663,-0.75465 0.107807,-0.199443 0.258737,-0.328811 0.398886,-0.328811 0.221005,0 0.269518,0.280298 0.269518,0.30186 0,0.02156 -0.0054,0.04312 -0.01078,0.05929 z m 0,0"
       id="id-d883c8f7-e3a5-4243-8e44-9e778fe38d84" />
    <path
       style="fill:#000000;fill-opacity:1;stroke:none;stroke-width:0"
       d="m 14.526541,3.4600977 c 0.102417,0 0.355764,-0.010781 0.528255,-0.080855 0.242566,-0.1024167 0.258737,-0.3072502 0.258737,-0.3557634 0,-0.15093 -0.129368,-0.2910792 -0.366544,-0.2910792 -0.382715,0 -0.90558,0.334202 -0.90558,0.9379218 0,0.3503731 0.204834,0.6198909 0.544426,0.6198909 0.490523,0 0.776211,-0.3665442 0.776211,-0.4042767 0,-0.021561 -0.01617,-0.048513 -0.03773,-0.048513 -0.02156,0 -0.02695,0.010781 -0.04851,0.037733 -0.269518,0.3395924 -0.646843,0.3395924 -0.684575,0.3395924 -0.269518,0 -0.30186,-0.2910792 -0.30186,-0.3988863 0,-0.043123 0.0054,-0.1455396 0.0539,-0.3557635 z m -0.16171,-0.075465 c 0.134759,-0.5228645 0.490522,-0.5767681 0.582158,-0.5767681 0.15632,0 0.253347,0.1024168 0.253347,0.2156143 0,0.3611538 -0.549817,0.3611538 -0.695356,0.3611538 z m 0,0"
       id="id-f6b79174-7678-40ec-8491-8f4f5325a00b" />
    <path
       style="fill:#000000;fill-opacity:1;stroke:none;stroke-width:0"
       d="m 16.289662,3.237019 c 0,-0.064684 0,-0.064684 -0.07007,-0.064684 -0.15632,0.1509299 -0.371934,0.1509299 -0.468961,0.1509299 v 0.086246 c 0.0539,0 0.215615,0 0.344983,-0.064684 v 1.2236106 c 0,0.080855 0,0.1131975 -0.237175,0.1131975 h -0.09164 V 4.76788 c 0.04312,0 0.339593,-0.010781 0.425839,-0.010781 0.07547,0 0.377324,0.010781 0.431228,0.010781 V 4.681634 h -0.09164 c -0.242566,0 -0.242566,-0.032342 -0.242566,-0.1131975 z m 0,0"
       id="id-2f4941c3-6fcc-4c5a-8e01-44d54e5c567b" />
    <path
       style="fill:#000000;fill-opacity:1;stroke:none;stroke-width:0"
       d="m 1.5128793,12.370098 c 0.1024168,0 0.3557635,-0.01078 0.5282548,-0.08086 0.242566,-0.102416 0.2587371,-0.30725 0.2587371,-0.355763 0,-0.15093 -0.1293685,-0.291079 -0.3665442,-0.291079 -0.3827152,0 -0.9055797,0.334202 -0.9055797,0.937922 0,0.350373 0.2048335,0.61989 0.5444259,0.61989 0.4905224,0 0.7762112,-0.366544 0.7762112,-0.404276 0,-0.02156 -0.016171,-0.04851 -0.037733,-0.04851 -0.021561,0 -0.026952,0.01078 -0.048513,0.03773 -0.2695178,0.339593 -0.6468426,0.339593 -0.6845751,0.339593 -0.2695178,0 -0.3018599,-0.29108 -0.3018599,-0.398887 0,-0.04312 0.00539,-0.145539 0.053904,-0.355763 z M 1.3511686,12.294628 C 1.4859275,11.771763 1.841691,11.71786 1.933327,11.71786 c 0.1563203,0 0.2533467,0.102416 0.2533467,0.215614 0,0.361154 -0.5498162,0.361154 -0.6953558,0.361154 z m 0,0"
       id="id-be73bfb6-5038-4076-a4e1-8e1bc8c2cf37" />
    <path
       style="fill:#000000;fill-opacity:1;stroke:none;stroke-width:0"
       d="M 3.684632,13.241261 H 3.603777 c -0.00539,0.0539 -0.032342,0.194053 -0.064684,0.215614 -0.016171,0.01617 -0.1994432,0.01617 -0.2371757,0.01617 H 2.8599076 C 3.1132543,13.252042 3.1995,13.181967 3.3396492,13.06877 3.517531,12.928621 3.684632,12.777691 3.684632,12.551296 c 0,-0.291079 -0.2533467,-0.468961 -0.560597,-0.468961 -0.2964695,0 -0.501303,0.210224 -0.501303,0.431228 0,0.118588 0.1024167,0.134759 0.1293685,0.134759 0.053904,0 0.1239782,-0.04312 0.1239782,-0.129368 0,-0.04312 -0.016171,-0.129369 -0.1401493,-0.129369 0.075465,-0.167101 0.2371757,-0.221005 0.3503731,-0.221005 0.242566,0 0.3665442,0.188663 0.3665442,0.382716 0,0.210224 -0.15093,0.371934 -0.2263949,0.45818 l -0.5767681,0.576768 c -0.026952,0.02156 -0.026952,0.02695 -0.026952,0.09164 h 0.9918254 z m 0,0"
       id="id-d79bc014-6ba8-4d97-ad56-5ec14f091d74" />
    <path
       style="fill:#000000;fill-opacity:1;stroke:none;stroke-width:0"
       d="m 14.990582,22.943298 c 0.102417,0 0.355764,-0.01078 0.528255,-0.08086 0.242566,-0.102416 0.258737,-0.30725 0.258737,-0.355763 0,-0.15093 -0.129368,-0.291079 -0.366544,-0.291079 -0.382715,0 -0.90558,0.334202 -0.90558,0.937922 0,0.350373 0.204834,0.61989 0.544426,0.61989 0.490523,0 0.776211,-0.366544 0.776211,-0.404276 0,-0.02156 -0.01617,-0.04851 -0.03773,-0.04851 -0.02156,0 -0.02695,0.01078 -0.04851,0.03773 -0.269518,0.339593 -0.646843,0.339593 -0.684575,0.339593 -0.269518,0 -0.30186,-0.29108 -0.30186,-0.398887 0,-0.04312 0.0054,-0.145539 0.0539,-0.355763 z m -0.16171,-0.07546 c 0.134759,-0.522865 0.490522,-0.576768 0.582158,-0.576768 0.15632,0 0.253347,0.102416 0.253347,0.215614 0,0.361154 -0.549817,0.361154 -0.695356,0.361154 z m 0,0"
       id="id-7da100b1-77cc-4196-aa12-15342e4a8b6e" />
    <path
       style="fill:#000000;fill-opacity:1;stroke:none;stroke-width:0"
       d="m 16.607128,23.447917 c 0.188663,0 0.323422,0.129369 0.323422,0.388106 0,0.296469 -0.177882,0.388105 -0.312641,0.388105 -0.09703,0 -0.312641,-0.02695 -0.409667,-0.172491 0.113198,0 0.140149,-0.08085 0.140149,-0.134759 0,-0.07547 -0.05929,-0.129369 -0.134759,-0.129369 -0.06468,0 -0.134758,0.04312 -0.134758,0.14015 0,0.226395 0.247956,0.371934 0.539035,0.371934 0.334202,0 0.565987,-0.226395 0.565987,-0.46357 0,-0.188663 -0.15093,-0.377325 -0.415057,-0.431229 0.247956,-0.09164 0.339592,-0.269518 0.339592,-0.420448 0,-0.188662 -0.215614,-0.328811 -0.485132,-0.328811 -0.264127,0 -0.46896,0.129368 -0.46896,0.323421 0,0.08085 0.0539,0.123978 0.123978,0.123978 0.07546,0 0.123978,-0.0539 0.123978,-0.118588 0,-0.07007 -0.04851,-0.123978 -0.123978,-0.129368 0.08624,-0.102417 0.247956,-0.129369 0.339592,-0.129369 0.107807,0 0.258737,0.0539 0.258737,0.258737 0,0.102417 -0.03234,0.215615 -0.09703,0.285689 -0.07547,0.09164 -0.14554,0.09703 -0.264128,0.107807 -0.05929,0.0054 -0.06468,0.0054 -0.07546,0.0054 -0.0054,0 -0.02695,0.0054 -0.02695,0.03234 0,0.03234 0.02156,0.03234 0.06468,0.03234 z m 0,0"
       id="id-99b99852-2a41-4eb8-8907-e44bd9e925d5" />
    <path
       style="fill:#000000;fill-opacity:1;stroke:none;stroke-width:0"
       d="m 17.895085,12.845298 c 0.102417,0 0.355764,-0.01078 0.528255,-0.08086 0.242566,-0.102416 0.258737,-0.30725 0.258737,-0.355763 0,-0.15093 -0.129368,-0.291079 -0.366544,-0.291079 -0.382715,0 -0.90558,0.334202 -0.90558,0.937922 0,0.350373 0.204834,0.61989 0.544426,0.61989 0.490523,0 0.776211,-0.366544 0.776211,-0.404276 0,-0.02156 -0.01617,-0.04851 -0.03773,-0.04851 -0.02156,0 -0.02695,0.01078 -0.04851,0.03773 -0.269518,0.339593 -0.646843,0.339593 -0.684575,0.339593 -0.269518,0 -0.30186,-0.29108 -0.30186,-0.398887 0,-0.04312 0.0054,-0.145539 0.0539,-0.355763 z m -0.16171,-0.07546 c 0.134759,-0.522865 0.490522,-0.576768 0.582158,-0.576768 0.15632,0 0.253347,0.102416 0.253347,0.215614 0,0.361154 -0.549817,0.361154 -0.695356,0.361154 z m 0,0"
       id="id-850b3190-3249-4061-8ee3-aae84528d438" />
    <path
       style="fill:#000000;fill-opacity:1;stroke:none;stroke-width:0"
       d="m 20.126131,13.759584 v -0.08625 h -0.269518 v -1.07268 c 0,-0.04851 0,-0.07007 -0.04851,-0.07007 -0.03234,0 -0.04312,0 -0.06468,0.03773 l -0.797773,1.105023 v 0.08625 h 0.711527 v 0.194053 c 0,0.08625 0,0.113197 -0.199443,0.113197 h -0.06468 v 0.08625 c 0.123978,-0.0054 0.274908,-0.01078 0.361153,-0.01078 0.09164,0 0.242566,0.0054 0.366545,0.01078 v -0.08625 h -0.06468 c -0.199443,0 -0.199443,-0.02695 -0.199443,-0.113197 v -0.194053 z m -0.45279,-0.964874 v 0.878628 h -0.636062 z m 0,0"
       id="id-448b1e16-6e78-46ae-9368-aa383f148b72" />
    <path
       style="fill:#000000;fill-opacity:1;stroke:none;stroke-width:0"
       d="m 0.4851323,0.72769775 c 0.10241675,0 0.35576346,-0.0107807 0.5282548,-0.0808553 C 1.2559531,0.54442566 1.2721242,0.33959215 1.2721242,0.29107895 1.2721242,0.140149 1.1427557,-2.421875e-7 0.90558003,-2.421875e-7 0.52286479,-2.421875e-7 3.0859375e-7,0.3342018 3.0859375e-7,0.93792161 3.0859375e-7,1.2882947 0.20483382,1.5578125 0.54442621,1.5578125 c 0.49052239,0 0.77621119,-0.3665442 0.77621119,-0.4042767 0,-0.021561 -0.016171,-0.048513 -0.037733,-0.048513 -0.021561,0 -0.026952,0.010781 -0.048513,0.037732 -0.26951776,0.3395924 -0.64684265,0.3395924 -0.68457513,0.3395924 -0.26951778,0 -0.30185991,-0.2910792 -0.30185991,-0.3988863 0,-0.043123 0.00539,-0.14553959 0.0539036,-0.35576345 z M 0.32342164,0.65223277 C 0.45818052,0.12936829 0.81394398,0.07546473 0.90558003,0.07546473 c 0.15632027,0 0.25334667,0.10241676 0.25334667,0.21561422 0,0.36115382 -0.54981622,0.36115382 -0.69535582,0.36115382 z m 0,0"
       id="id-94933279-9af1-47ec-9bc0-aa88366ee9c3" />
    <path
       style="fill:#000000;fill-opacity:1;stroke:none;stroke-width:0"
       d="m 1.8159895,0.69328149 c 0.1239782,0.0323421 0.1940528,0.0323421 0.2317853,0.0323421 0.318031,0 0.5066934,-0.21561422 0.5066934,-0.25334671 0,-0.0269518 -0.016171,-0.0323421 -0.026952,-0.0323421 -0.00539,0 -0.010781,0 -0.021561,0.00539 -0.059294,0.0215614 -0.1832721,0.0700746 -0.3611538,0.0700746 -0.070075,0 -0.1940528,-0.00539 -0.3503731,-0.0646843 -0.026952,-0.0107807 -0.032342,-0.0107807 -0.032342,-0.0107807 -0.032342,0 -0.032342,0.0269518 -0.032342,0.0646843 V 1.2107556 c 0,0.043123 0,0.070075 0.037732,0.070075 0.021562,0 0.026952,0 0.048513,-0.032342 0.1024168,-0.1293685 0.2533467,-0.15093 0.3342021,-0.15093 0.1455396,0 0.2102238,0.1131975 0.2210045,0.1347589 0.043123,0.080855 0.059294,0.1724914 0.059294,0.3126407 0,0.070075 0,0.2102238 -0.075465,0.3180309 -0.059294,0.086246 -0.1617107,0.1455396 -0.2802985,0.1455396 -0.1563203,0 -0.318031,-0.086246 -0.3773249,-0.2479563 0.091636,0.00539 0.1401492,-0.053904 0.1401492,-0.1185878 0,-0.1024168 -0.091636,-0.1185879 -0.1239781,-0.1185879 0,0 -0.1185878,0 -0.1185878,0.1293686 0,0.2156142 0.1994431,0.4312284 0.4851319,0.4312284 0.3072503,0 0.5767681,-0.2263949 0.5767681,-0.5336452 0,-0.2695178 -0.2048335,-0.5174741 -0.5013031,-0.5174741 -0.1078071,0 -0.2317853,0.021561 -0.3395924,0.1131974 z m 0,0"
       id="id-f7633af1-eec4-40af-a513-26b272993385" />
    <path
       style="fill:#000000;fill-opacity:1;stroke:none;stroke-width:0"
       d="m 28.694036,24.725298 c 0.102417,0 0.355764,-0.01078 0.528255,-0.08086 0.242566,-0.102416 0.258737,-0.30725 0.258737,-0.355763 0,-0.15093 -0.129368,-0.291079 -0.366544,-0.291079 -0.382715,0 -0.90558,0.334202 -0.90558,0.937922 0,0.350373 0.204834,0.61989 0.544426,0.61989 0.490523,0 0.776211,-0.366544 0.776211,-0.404276 0,-0.02156 -0.01617,-0.04851 -0.03773,-0.04851 -0.02156,0 -0.02695,0.01078 -0.04851,0.03773 -0.269518,0.339593 -0.646843,0.339593 -0.684575,0.339593 -0.269518,0 -0.30186,-0.29108 -0.30186,-0.398887 0,-0.04312 0.0054,-0.145539 0.0539,-0.355763 z m -0.16171,-0.07546 c 0.134759,-0.522865 0.490522,-0.576768 0.582158,-0.576768 0.15632,0 0.253347,0.102416 0.253347,0.215614 0,0.361154 -0.549817,0.361154 -0.695356,0.361154 z m 0,0"
       id="id-0f3d0dfe-ceec-4187-a180-228776578974" />
    <path
       style="fill:#000000;fill-opacity:1;stroke:none;stroke-width:0"
       d="m 30.01411,25.246088 c 0,-0.194053 0.01617,-0.371934 0.107807,-0.522864 0.08085,-0.129369 0.210224,-0.215615 0.366544,-0.215615 0.07007,0 0.167101,0.01617 0.215614,0.08086 -0.05929,0.0054 -0.113197,0.04851 -0.113197,0.118588 0,0.05929 0.04312,0.113197 0.113197,0.113197 0.07547,0 0.118588,-0.04851 0.118588,-0.118588 0,-0.140149 -0.102417,-0.264127 -0.339592,-0.264127 -0.344983,0 -0.700746,0.318031 -0.700746,0.835505 0,0.619891 0.291079,0.808553 0.560596,0.808553 0.29108,0 0.544426,-0.226395 0.544426,-0.539035 0,-0.307251 -0.242566,-0.533646 -0.522864,-0.533646 -0.194053,0 -0.29647,0.129369 -0.350373,0.237176 z m 0.328811,0.76004 c -0.123978,0 -0.215614,-0.07007 -0.269517,-0.177882 -0.03234,-0.07007 -0.0539,-0.194052 -0.0539,-0.334202 0,-0.237175 0.140149,-0.415057 0.334202,-0.415057 0.107807,0 0.183272,0.04312 0.242566,0.129369 0.05929,0.09164 0.05929,0.194052 0.05929,0.334202 0,0.134759 0,0.237175 -0.06468,0.334202 -0.0539,0.08085 -0.134759,0.129368 -0.247957,0.129368 z m 0,0"
       id="id-71028b3f-5c69-4121-9f0d-f94097a68c7c" />
    <g
       transform="matrix(0.26848395,0,0,0.26848395,28.359533,11.247505)"
       id="g1415"
       style="fill:#000000;fill-opacity:1">
      <path
         style="stroke:none;stroke-width:0"
         d="m 3.65625,-3.984375 h 0.859375 c 0.203125,0 0.296875,0 0.296875,-0.203125 0,-0.109375 -0.09375,-0.109375 -0.265625,-0.109375 H 3.71875 L 3.921875,-5.4375 c 0.046875,-0.203125 0.1875,-0.90625 0.25,-1.03125 0.078125,-0.1875 0.25,-0.34375 0.46875,-0.34375 0.03125,0 0.296875,0 0.484375,0.1875 -0.4375,0.03125 -0.546875,0.390625 -0.546875,0.53125 0,0.234375 0.1875,0.359375 0.375,0.359375 C 5.21875,-5.734375 5.5,-5.96875 5.5,-6.34375 c 0,-0.453125 -0.453125,-0.6875 -0.859375,-0.6875 -0.34375,0 -0.96875,0.1875 -1.265625,1.171875 -0.0625,0.203125 -0.09375,0.3125 -0.328125,1.5625 h -0.6875 c -0.203125,0 -0.3125,0 -0.3125,0.1875 0,0.125 0.09375,0.125 0.28125,0.125 h 0.65625 L 2.25,-0.046875 c -0.1875,0.96875 -0.359375,1.875 -0.875,1.875 -0.046875,0 -0.28125,0 -0.484375,-0.1875 C 1.359375,1.609375 1.453125,1.25 1.453125,1.109375 1.453125,0.875 1.265625,0.75 1.078125,0.75 0.8125,0.75 0.53125,0.984375 0.53125,1.359375 c 0,0.4375 0.4375,0.6875 0.84375,0.6875 0.546875,0 0.953125,-0.59375 1.125,-0.96875 0.328125,-0.625 0.546875,-1.828125 0.5625,-1.90625 z m 0,0"
         id="id-fba8ea5e-5c5a-422f-bb96-53d3c15c2790" />
    </g>
    <g
       transform="matrix(0.299448,0,0,0.299448,-15.235274,20.200554)"
       ns1:version="1.3.1"
       ns1:texconverter="pdflatex"
       ns1:pdfconverter="inkscape"
       ns1:text="${g}$\n"
       ns1:preamble="/Users/ketiboldiais/Library/Application Support/org.inkscape.Inkscape/config/inkscape/extensions/circuitSymbols/circuitSymbolsPreamble.tex"
       ns1:scale="2.0110554948965156"
       ns1:alignment="middle center"
       ns1:inkscapeversion="1.1"
       ns1:jacobian_sqrt="0.709456"
       id="g1294">
      <defs
         id="id-27eb7370-d0f4-4004-a022-e8b956d3d497">
        <g
           id="id-8e179801-af81-42fd-a5cb-a04bf5414e90">
          <symbol
             overflow="visible"
             id="id-05c8ed19-e7ed-484d-b04f-0325474aef44">
            <path
               style="stroke:none;stroke-width:0"
               d=""
               id="id-ecfb35f5-d724-458b-b582-a07514d3f66f" />
          </symbol>
          <symbol
             overflow="visible"
             id="id-1c92e005-3e53-4483-b655-b3930c270074">
            <path
               style="stroke:none;stroke-width:0"
               d="M 4.6875,-3.765625 C 4.703125,-3.8125 4.71875,-3.875 4.71875,-3.9375 c 0,-0.171875 -0.109375,-0.265625 -0.28125,-0.265625 -0.09375,0 -0.375,0.0625 -0.40625,0.421875 -0.1875,-0.359375 -0.53125,-0.625 -0.9375,-0.625 -1.125,0 -2.359375,1.390625 -2.359375,2.828125 0,0.984375 0.59375,1.578125 1.3125,1.578125 0.59375,0 1.0625,-0.46875 1.15625,-0.578125 L 3.21875,-0.5625 C 3.015625,0.3125 2.890625,0.734375 2.890625,0.75 2.84375,0.84375 2.515625,1.828125 1.453125,1.828125 1.265625,1.828125 0.9375,1.8125 0.65625,1.71875 0.953125,1.640625 1.0625,1.375 1.0625,1.203125 c 0,-0.15625 -0.109375,-0.34375 -0.375,-0.34375 -0.21875,0 -0.53125,0.171875 -0.53125,0.578125 0,0.40625 0.359375,0.609375 1.3125,0.609375 1.25,0 1.96875,-0.78125 2.125,-1.375 z M 3.40625,-1.28125 C 3.34375,-1.015625 3.109375,-0.765625 2.890625,-0.578125 2.6875,-0.40625 2.375,-0.21875 2.078125,-0.21875 c -0.5,0 -0.640625,-0.515625 -0.640625,-0.921875 0,-0.46875 0.28125,-1.65625 0.5625,-2.15625 C 2.265625,-3.78125 2.6875,-4.1875 3.109375,-4.1875 c 0.65625,0 0.796875,0.8125 0.796875,0.859375 0,0.046875 -0.015625,0.109375 -0.03125,0.140625 z m 0,0"
               id="id-dd7bc05d-cb21-4436-b54f-cbbc3bd2a8ed" />
          </symbol>
        </g>
      </defs>
      <g
         id="id-6194d873-3fa7-45fd-973c-d6de7de334a9"
         transform="translate(-148.868,-130.359)">
        <g
           style="fill:#000000;fill-opacity:1"
           id="id-c3a4bce8-a22f-4553-84ee-ecffecc35cc1">
          <g
             transform="translate(148.712,134.765)"
             id="g1290">
            <path
               style="stroke:none;stroke-width:0"
               d="M 4.6875,-3.765625 C 4.703125,-3.8125 4.71875,-3.875 4.71875,-3.9375 c 0,-0.171875 -0.109375,-0.265625 -0.28125,-0.265625 -0.09375,0 -0.375,0.0625 -0.40625,0.421875 -0.1875,-0.359375 -0.53125,-0.625 -0.9375,-0.625 -1.125,0 -2.359375,1.390625 -2.359375,2.828125 0,0.984375 0.59375,1.578125 1.3125,1.578125 0.59375,0 1.0625,-0.46875 1.15625,-0.578125 L 3.21875,-0.5625 C 3.015625,0.3125 2.890625,0.734375 2.890625,0.75 2.84375,0.84375 2.515625,1.828125 1.453125,1.828125 1.265625,1.828125 0.9375,1.8125 0.65625,1.71875 0.953125,1.640625 1.0625,1.375 1.0625,1.203125 c 0,-0.15625 -0.109375,-0.34375 -0.375,-0.34375 -0.21875,0 -0.53125,0.171875 -0.53125,0.578125 0,0.40625 0.359375,0.609375 1.3125,0.609375 1.25,0 1.96875,-0.78125 2.125,-1.375 z M 3.40625,-1.28125 C 3.34375,-1.015625 3.109375,-0.765625 2.890625,-0.578125 2.6875,-0.40625 2.375,-0.21875 2.078125,-0.21875 c -0.5,0 -0.640625,-0.515625 -0.640625,-0.921875 0,-0.46875 0.28125,-1.65625 0.5625,-2.15625 C 2.265625,-3.78125 2.6875,-4.1875 3.109375,-4.1875 c 0.65625,0 0.796875,0.8125 0.796875,0.859375 0,0.046875 -0.015625,0.109375 -0.03125,0.140625 z m 0,0"
               id="id-32742140-4a17-4f40-9c8f-4a0f1280f269" />
          </g>
        </g>
      </g>
    </g>
    <g
       id="g1547">
      <path
         style="color:#000000;fill:#000000;fill-rule:evenodd;stroke-width:0.186pt;-inkscape-stroke:none"
         d="m 29.830861,12.676616 c 0.308016,0.41069 0.224688,0.99398 -0.186,1.302 -0.410688,0.30802 -0.993984,0.22469 -1.302,-0.186 -0.308016,-0.41069 -0.224688,-0.99398 0.186,-1.302 0.410688,-0.308016 0.993984,-0.224688 1.302,0.186 z"
         id="path1215" />
      <path
         style="color:#000000;fill:#000000;fill-rule:evenodd;-inkscape-stroke:none"
         d="m 29.236508,12.191552 c -0.267321,-0.03819 -0.54907,0.02508 -0.78125,0.199218 -0.46436,0.348276 -0.559208,1.012196 -0.210938,1.476566 0.348271,0.46436 1.010248,0.55921 1.474609,0.21093 0.46436,-0.34827 0.559208,-1.0122 0.210938,-1.476558 -0.174135,-0.232181 -0.426039,-0.371968 -0.693359,-0.410156 z m -0.632813,0.398437 c 0.357014,-0.267761 0.861146,-0.196858 1.128906,0.160157 0.267762,0.35702 0.194907,0.86114 -0.162109,1.12891 -0.357014,0.26776 -0.861145,0.19686 -1.128906,-0.16016 -0.267762,-0.35702 -0.194907,-0.86114 0.162109,-1.128907 z"
         id="path1217" />
      <path
         style="color:#000000;fill:#dc8add;fill-rule:evenodd;stroke-width:0.186pt;-inkscape-stroke:none"
         d="m 28.190341,13.223456 c 0,-0.51336 0.41664,-0.93 0.93,-0.93 0.51336,0 0.93,0.41664 0.93,0.93 0,0.51336 -0.41664,0.93 -0.93,0.93 -0.51336,0 -0.93,-0.41664 -0.93,-0.93 z"
         id="path1219" />
      <path
         style="color:#000000;fill:#000000;fill-rule:evenodd;-inkscape-stroke:none"
         d="m 29.121273,12.170067 c -0.580451,0 -1.054687,0.472283 -1.054687,1.052739 0,0.58045 0.474236,1.05468 1.054687,1.05468 0.580451,0 1.052735,-0.47423 1.052735,-1.05468 0,-0.580456 -0.472284,-1.052739 -1.052735,-1.052739 z m 0,0.248047 c 0.446268,0 0.804688,0.358422 0.804688,0.804692 0,0.44626 -0.35842,0.80664 -0.804688,0.80664 -0.446268,0 -0.80664,-0.36038 -0.80664,-0.80664 0,-0.44627 0.360372,-0.804692 0.80664,-0.804692 z"
         id="path1221" />
      <path
         style="color:#000000;fill:#000000;fill-rule:evenodd;-inkscape-stroke:none"
         d="m 29.121273,12.170067 c -0.580451,0 -1.054687,0.472283 -1.054687,1.052739 0,0.58045 0.474236,1.05468 1.054687,1.05468 0.580451,0 1.052735,-0.47423 1.052735,-1.05468 0,-0.580456 -0.472284,-1.052739 -1.052735,-1.052739 z m 0,0.248047 c 0.446268,0 0.804688,0.358422 0.804688,0.804692 0,0.44626 -0.35842,0.80664 -0.804688,0.80664 -0.446268,0 -0.80664,-0.36038 -0.80664,-0.80664 0,-0.44627 0.360372,-0.804692 0.80664,-0.804692 z"
         id="path1540" />
    </g>
    <g
       id="g1560"
       transform="translate(-41.010417,7.9374995)">
      <path
         style="color:#000000;fill:#000000;fill-rule:evenodd;stroke-width:0.186pt;-inkscape-stroke:none"
         d="m 29.830861,12.676616 c 0.308016,0.41069 0.224688,0.99398 -0.186,1.302 -0.410688,0.30802 -0.993984,0.22469 -1.302,-0.186 -0.308016,-0.41069 -0.224688,-0.99398 0.186,-1.302 0.410688,-0.308016 0.993984,-0.224688 1.302,0.186 z"
         id="path1549" />
      <path
         style="color:#000000;fill:#000000;fill-rule:evenodd;-inkscape-stroke:none"
         d="m 29.236508,12.191552 c -0.267321,-0.03819 -0.54907,0.02508 -0.78125,0.199218 -0.46436,0.348276 -0.559208,1.012196 -0.210938,1.476566 0.348271,0.46436 1.010248,0.55921 1.474609,0.21093 0.46436,-0.34827 0.559208,-1.0122 0.210938,-1.476558 -0.174135,-0.232181 -0.426039,-0.371968 -0.693359,-0.410156 z m -0.632813,0.398437 c 0.357014,-0.267761 0.861146,-0.196858 1.128906,0.160157 0.267762,0.35702 0.194907,0.86114 -0.162109,1.12891 -0.357014,0.26776 -0.861145,0.19686 -1.128906,-0.16016 -0.267762,-0.35702 -0.194907,-0.86114 0.162109,-1.128907 z"
         id="path1551" />
      <path
         style="color:#000000;fill:#dc8add;fill-rule:evenodd;stroke-width:0.186pt;-inkscape-stroke:none"
         d="m 28.190341,13.223456 c 0,-0.51336 0.41664,-0.93 0.93,-0.93 0.51336,0 0.93,0.41664 0.93,0.93 0,0.51336 -0.41664,0.93 -0.93,0.93 -0.51336,0 -0.93,-0.41664 -0.93,-0.93 z"
         id="path1554" />
      <path
         style="color:#000000;fill:#000000;fill-rule:evenodd;-inkscape-stroke:none"
         d="m 29.121273,12.170067 c -0.580451,0 -1.054687,0.472283 -1.054687,1.052739 0,0.58045 0.474236,1.05468 1.054687,1.05468 0.580451,0 1.052735,-0.47423 1.052735,-1.05468 0,-0.580456 -0.472284,-1.052739 -1.052735,-1.052739 z m 0,0.248047 c 0.446268,0 0.804688,0.358422 0.804688,0.804692 0,0.44626 -0.35842,0.80664 -0.804688,0.80664 -0.446268,0 -0.80664,-0.36038 -0.80664,-0.80664 0,-0.44627 0.360372,-0.804692 0.80664,-0.804692 z"
         id="path1556" />
      <path
         style="color:#000000;fill:#000000;fill-rule:evenodd;-inkscape-stroke:none"
         d="m 29.121273,12.170067 c -0.580451,0 -1.054687,0.472283 -1.054687,1.052739 0,0.58045 0.474236,1.05468 1.054687,1.05468 0.580451,0 1.052735,-0.47423 1.052735,-1.05468 0,-0.580456 -0.472284,-1.052739 -1.052735,-1.052739 z m 0,0.248047 c 0.446268,0 0.804688,0.358422 0.804688,0.804692 0,0.44626 -0.35842,0.80664 -0.804688,0.80664 -0.446268,0 -0.80664,-0.36038 -0.80664,-0.80664 0,-0.44627 0.360372,-0.804692 0.80664,-0.804692 z"
         id="path1558" />
    </g>
  </g>
</svg>
