<?xml version="1.0" encoding="UTF-8" standalone="no"?>
<!-- Created with Inkscape (http://www.inkscape.org/) -->

<svg
   width="106.92303mm"
   height="12.960022mm"
   viewBox="0 0 106.92303 12.960022"
   version="1.1"
   id="svg1276"
   inkscape:version="1.1 (c4e8f9e, 2021-05-24)"
   sodipodi:docname="unlabeled_three_node_forest.svg"
   xmlns:inkscape="http://www.inkscape.org/namespaces/inkscape"
   xmlns:sodipodi="http://sodipodi.sourceforge.net/DTD/sodipodi-0.dtd"
   xmlns="http://www.w3.org/2000/svg"
   xmlns:svg="http://www.w3.org/2000/svg">
  <sodipodi:namedview
     id="namedview1278"
     pagecolor="#ffffff"
     bordercolor="#666666"
     borderopacity="1.0"
     inkscape:pageshadow="2"
     inkscape:pageopacity="0.0"
     inkscape:pagecheckerboard="0"
     inkscape:document-units="mm"
     showgrid="false"
     inkscape:zoom="0.78741023"
     inkscape:cx="141.60344"
     inkscape:cy="-22.224756"
     inkscape:window-width="1312"
     inkscape:window-height="847"
     inkscape:window-x="1615"
     inkscape:window-y="73"
     inkscape:window-maximized="0"
     inkscape:current-layer="layer1">
    <inkscape:grid
       type="xygrid"
       id="grid2025"
       originx="-28.796169"
       originy="1e-06" />
  </sodipodi:namedview>
  <defs
     id="defs1273" />
  <g
     inkscape:label="Layer 1"
     inkscape:groupmode="layer"
     id="layer1"
     transform="translate(-52.650171,-154.61279)">
    <g
       id="g1208">
      <g
         id="path859"
         style="fill:#1c71d8"
         transform="translate(4.9021673,81.718264)">
        <path
           style="color:#000000;fill:#1c71d8;-inkscape-stroke:none"
           d="m 59.427734,74.013672 -5.296875,5.267578 -5.294922,5.267578 0.185547,0.1875 5.296875,-5.267578 5.294922,-5.269531 z"
           id="path1145" />
        <g
           id="g1113"
           style="fill:#1c71d8">
          <g
             id="path1135"
             style="fill:#1c71d8">
            <path
               style="color:#000000;fill:#1c71d8;fill-rule:evenodd;stroke-width:0.21128pt;-inkscape-stroke:none"
               d="m 48.195073,85.373369 c -0.411275,-0.413396 -0.409552,-1.082695 0.0038,-1.49397 0.413397,-0.411274 1.082696,-0.409552 1.493971,0.0038 0.411274,0.413397 0.409552,1.082696 -0.0038,1.49397 -0.413397,0.411275 -1.082696,0.409552 -1.49397,-0.0038 z"
               id="path1139" />
            <path
               style="color:#000000;fill:#1c71d8;fill-rule:evenodd;-inkscape-stroke:none"
               d="m 48.947266,83.431641 c -0.306734,-7.83e-4 -0.613945,0.115144 -0.847657,0.347656 -0.467376,0.465027 -0.468931,1.225936 -0.0039,1.693359 0.465027,0.467377 1.225935,0.468931 1.693359,0.0039 0.467377,-0.465026 0.46893,-1.225935 0.0039,-1.693359 -0.232514,-0.233688 -0.53897,-0.35078 -0.845703,-0.351562 z m 0,0.28125 c 0.234083,5.97e-4 0.467723,0.08987 0.646484,0.269531 0.357524,0.359369 0.355421,0.937401 -0.0039,1.294922 -0.359369,0.357524 -0.937402,0.35542 -1.294922,-0.0039 -0.357524,-0.359368 -0.355421,-0.9374 0.0039,-1.294921 0.179685,-0.178762 0.414354,-0.266223 0.648438,-0.265625 z"
               id="path1141" />
          </g>
          <g
             id="path1125"
             style="fill:#1c71d8">
            <path
               style="color:#000000;fill:#1c71d8;fill-rule:evenodd;stroke-width:0.21128pt;-inkscape-stroke:none"
               d="m 53.49068,80.104949 c -0.411275,-0.413396 -0.409552,-1.082695 0.0038,-1.49397 0.413397,-0.411274 1.082696,-0.409552 1.493971,0.0038 0.411274,0.413397 0.409552,1.082696 -0.0038,1.49397 -0.413397,0.411275 -1.082696,0.409552 -1.49397,-0.0038 z"
               id="path1129" />
            <path
               style="color:#000000;fill:#1c71d8;fill-rule:evenodd;-inkscape-stroke:none"
               d="m 54.242187,78.164062 c -0.306733,-7.82e-4 -0.613944,0.115145 -0.847656,0.347657 -0.467376,0.465027 -0.468931,1.225936 -0.0039,1.693359 0.465027,0.467376 1.225935,0.468931 1.693359,0.0039 0.467377,-0.465026 0.46893,-1.225935 0.0039,-1.693359 -0.232514,-0.233688 -0.53897,-0.35078 -0.845704,-0.351563 z m 0,0.279297 c 0.234084,5.98e-4 0.467724,0.09182 0.646485,0.271485 0.357523,0.359369 0.355421,0.937401 -0.0039,1.294922 -0.35937,0.357524 -0.937402,0.35542 -1.294922,-0.0039 -0.357525,-0.359368 -0.355421,-0.9374 0.0039,-1.294922 0.179685,-0.178761 0.414354,-0.268175 0.648437,-0.267578 z"
               id="path1131" />
          </g>
          <g
             id="path1115"
             style="fill:#1c71d8">
            <path
               style="color:#000000;fill:#1c71d8;fill-rule:evenodd;stroke-width:0.21128pt;-inkscape-stroke:none"
               d="m 58.786287,74.836529 c -0.411275,-0.413396 -0.409552,-1.082695 0.0038,-1.49397 0.413397,-0.411274 1.082696,-0.409552 1.493971,0.0038 0.411274,0.413397 0.409552,1.082696 -0.0038,1.49397 -0.413397,0.411275 -1.082696,0.409552 -1.49397,-0.0038 z"
               id="path1119" />
            <path
               style="color:#000000;fill:#1c71d8;fill-rule:evenodd;-inkscape-stroke:none"
               d="m 59.539062,72.894531 c -0.306733,-7.82e-4 -0.613944,0.115145 -0.847656,0.347656 -0.467376,0.465028 -0.470884,1.225937 -0.0059,1.69336 0.465027,0.467376 1.225935,0.468931 1.693359,0.0039 0.467377,-0.465027 0.470883,-1.225935 0.0059,-1.693359 -0.232514,-0.233688 -0.53897,-0.35078 -0.845704,-0.351563 z m -0.002,0.28125 c 0.234084,5.98e-4 0.467724,0.08987 0.646485,0.269531 0.357523,0.35937 0.357374,0.937402 -0.002,1.294922 -0.35937,0.357525 -0.937402,0.355421 -1.294922,-0.0039 -0.357525,-0.359368 -0.357374,-0.935447 0.002,-1.292969 0.179684,-0.178761 0.414354,-0.268176 0.648437,-0.267578 z"
               id="path1121" />
          </g>
        </g>
      </g>
      <g
         id="path861"
         style="fill:#1c71d8"
         transform="translate(4.9021673,81.718264)">
        <path
           style="color:#000000;fill:#1c71d8;-inkscape-stroke:none"
           d="m 80.271484,74.013672 -5.388672,5.361328 5.388672,5.361328 0.1875,-0.1875 -5.203125,-5.173828 5.203125,-5.175781 z"
           id="path1183" />
        <g
           id="g1151"
           style="fill:#1c71d8">
          <g
             id="path1173"
             style="fill:#1c71d8">
            <path
               style="color:#000000;fill:#1c71d8;fill-rule:evenodd;stroke-width:0.21128pt;-inkscape-stroke:none"
               d="m 81.099255,85.373369 c -0.411274,0.413397 -1.080573,0.41512 -1.49397,0.0038 -0.413397,-0.411274 -0.415119,-1.080573 -0.0038,-1.49397 0.411275,-0.413397 1.080573,-0.415119 1.49397,-0.0038 0.413397,0.411275 0.41512,1.080573 0.0038,1.49397 z"
               id="path1177" />
            <path
               style="color:#000000;fill:#1c71d8;fill-rule:evenodd;-inkscape-stroke:none"
               d="m 80.347656,83.431641 c -0.306736,7.82e-4 -0.613191,0.11785 -0.845703,0.351562 -0.465071,0.467421 -0.463518,1.228336 0.0039,1.693359 0.467421,0.465073 1.228336,0.463518 1.69336,-0.0039 0.465072,-0.467421 0.463517,-1.228335 -0.0039,-1.693359 -0.23371,-0.232536 -0.540919,-0.348439 -0.847656,-0.347656 z m 0,0.28125 c 0.23408,-5.98e-4 0.468752,0.08684 0.648438,0.265625 0.359369,0.357524 0.361473,0.935549 0.0039,1.294921 -0.357524,0.35937 -0.93555,0.361473 -1.294922,0.0039 -0.359369,-0.357524 -0.361472,-0.93555 -0.0039,-1.294922 0.178762,-0.179685 0.412405,-0.268934 0.646484,-0.269531 z"
               id="path1179" />
          </g>
          <g
             id="path1163"
             style="fill:#1c71d8">
            <path
               style="color:#000000;fill:#1c71d8;fill-rule:evenodd;stroke-width:0.21128pt;-inkscape-stroke:none"
               d="m 75.069718,80.41006 c -0.583133,0 -1.0564,-0.473267 -1.0564,-1.0564 0,-0.583133 0.473267,-1.0564 1.0564,-1.0564 0.583133,0 1.0564,0.473267 1.0564,1.0564 0,0.583133 -0.473267,1.0564 -1.0564,1.0564 z"
               id="path1167" />
            <path
               style="color:#000000;fill:#1c71d8;fill-rule:evenodd;-inkscape-stroke:none"
               d="m 75.070312,78.15625 c -0.659342,0 -1.197265,0.537923 -1.197265,1.197266 0,0.659342 0.537923,1.197265 1.197265,1.197265 0.659343,0 1.197266,-0.537923 1.197266,-1.197265 0,-0.659343 -0.537923,-1.197266 -1.197266,-1.197266 z m 0,0.28125 c 0.506923,0 0.914063,0.409094 0.914063,0.916016 0,0.506922 -0.40714,0.916015 -0.914063,0.916015 -0.506922,0 -0.916015,-0.409093 -0.916015,-0.916015 0,-0.506922 0.409093,-0.916016 0.916015,-0.916016 z"
               id="path1169" />
          </g>
          <g
             id="path1153"
             style="fill:#1c71d8">
            <path
               style="color:#000000;fill:#1c71d8;fill-rule:evenodd;stroke-width:0.21128pt;-inkscape-stroke:none"
               d="m 79.631397,74.836529 c -0.411275,-0.413397 -0.409552,-1.082695 0.0038,-1.49397 0.413397,-0.411274 1.082695,-0.409552 1.49397,0.0038 0.411274,0.413397 0.409552,1.082696 -0.0038,1.49397 -0.413397,0.411275 -1.082696,0.409552 -1.49397,-0.0038 z"
               id="path1157" />
            <path
               style="color:#000000;fill:#1c71d8;fill-rule:evenodd;-inkscape-stroke:none"
               d="m 80.382812,72.894531 c -0.306733,-7.82e-4 -0.613944,0.115145 -0.847656,0.347656 -0.467376,0.465028 -0.468931,1.225936 -0.0039,1.69336 0.465027,0.467376 1.225935,0.468931 1.693359,0.0039 0.467377,-0.465027 0.46893,-1.225935 0.0039,-1.693359 -0.232514,-0.233688 -0.53897,-0.35078 -0.845704,-0.351563 z m 0,0.28125 c 0.234084,5.98e-4 0.467724,0.08987 0.646485,0.269531 0.357523,0.35937 0.355421,0.937402 -0.0039,1.294922 -0.35937,0.357525 -0.937402,0.355421 -1.294922,-0.0039 -0.357525,-0.359369 -0.355421,-0.935447 0.0039,-1.292969 0.179685,-0.178761 0.414354,-0.268176 0.648437,-0.267578 z"
               id="path1159" />
          </g>
        </g>
      </g>
      <g
         id="path863"
         style="fill:#1c71d8"
         transform="translate(4.9021673,81.718264)">
        <path
           style="color:#000000;fill:#1c71d8;-inkscape-stroke:none"
           d="m 101.22461,79.189453 -5.388673,5.359375 0.185547,0.1875 5.203126,-5.175781 5.20312,5.175781 0.18555,-0.1875 z"
           id="path1221" />
        <g
           id="g1189"
           style="fill:#1c71d8">
          <g
             id="path1211"
             style="fill:#1c71d8">
            <path
               style="color:#000000;fill:#1c71d8;fill-rule:evenodd;stroke-width:0.21128pt;-inkscape-stroke:none"
               d="m 107.25396,85.373369 c -0.41127,0.413397 -1.08057,0.41512 -1.49397,0.0038 -0.4134,-0.411274 -0.41512,-1.080573 -0.004,-1.49397 0.41128,-0.413397 1.08058,-0.415119 1.49397,-0.0038 0.4134,0.411275 0.41512,1.080573 0.004,1.49397 z"
               id="path1215" />
            <path
               style="color:#000000;fill:#1c71d8;fill-rule:evenodd;-inkscape-stroke:none"
               d="m 106.50195,83.431641 c -0.30673,7.82e-4 -0.61319,0.117851 -0.8457,0.351562 -0.46486,0.467434 -0.46352,1.228336 0.004,1.693359 0.46742,0.465073 1.22834,0.463519 1.69336,-0.0039 0.46485,-0.467434 0.46352,-1.228335 -0.004,-1.693359 -0.23371,-0.232537 -0.54092,-0.348439 -0.84766,-0.347656 z m 0,0.28125 c 0.23408,-5.98e-4 0.46876,0.08684 0.64844,0.265625 0.35937,0.357524 0.36129,0.935562 0.004,1.294921 -0.35752,0.359369 -0.93555,0.361474 -1.29492,0.0039 -0.35938,-0.357524 -0.36129,-0.935563 -0.004,-1.294922 0.17876,-0.179685 0.4124,-0.268934 0.64648,-0.269531 z"
               id="path1217" />
          </g>
          <g
             id="path1201"
             style="fill:#1c71d8">
            <path
               style="color:#000000;fill:#1c71d8;fill-rule:evenodd;stroke-width:0.21128pt;-inkscape-stroke:none"
               d="m 102.25969,79.374788 c 0,0.583133 -0.47327,1.0564 -1.0564,1.0564 -0.58313,0 -1.0564,-0.473267 -1.0564,-1.0564 0,-0.583133 0.47327,-1.0564 1.0564,-1.0564 0.58313,0 1.0564,0.473267 1.0564,1.0564 z"
               id="path1205" />
            <path
               style="color:#000000;fill:#1c71d8;fill-rule:evenodd;-inkscape-stroke:none"
               d="m 101.20313,78.177734 c -0.65935,0 -1.19727,0.537923 -1.19727,1.197266 0,0.659343 0.53792,1.197266 1.19727,1.197266 0.65934,0 1.19726,-0.537923 1.19726,-1.197266 0,-0.659343 -0.53792,-1.197266 -1.19726,-1.197266 z m 0,0.28125 c 0.50691,0 0.91601,0.409094 0.91601,0.916016 0,0.506922 -0.4091,0.916016 -0.91601,0.916016 -0.50692,0 -0.91602,-0.409094 -0.91602,-0.916016 0,-0.506922 0.4091,-0.916016 0.91602,-0.916016 z"
               id="path1207" />
          </g>
          <g
             id="path1191"
             style="fill:#1c71d8">
            <path
               style="color:#000000;fill:#1c71d8;fill-rule:evenodd;stroke-width:0.21128pt;-inkscape-stroke:none"
               d="m 96.662741,83.913047 c 0.411275,0.413397 0.409552,1.082695 -0.0038,1.49397 -0.413397,0.411274 -1.082695,0.409552 -1.49397,-0.0038 -0.411274,-0.413397 -0.409552,-1.082696 0.0038,-1.49397 0.413397,-0.411275 1.082696,-0.409552 1.49397,0.0038 z"
               id="path1195" />
            <path
               style="color:#000000;fill:#1c71d8;fill-rule:evenodd;-inkscape-stroke:none"
               d="m 95.916016,83.460937 c -0.306734,-7.82e-4 -0.611991,0.115144 -0.845704,0.347657 -0.467376,0.465026 -0.470882,1.225935 -0.0059,1.693359 0.465028,0.467376 1.225936,0.470883 1.693359,0.0059 0.467376,-0.465027 0.468931,-1.225935 0.0039,-1.693359 -0.232514,-0.233688 -0.53897,-0.352733 -0.845703,-0.353516 z m 0,0.28125 c 0.234083,5.98e-4 0.467724,0.08987 0.646484,0.269532 0.357525,0.359369 0.357374,0.9374 -0.002,1.294922 -0.359369,0.357523 -0.9374,0.357374 -1.294922,-0.002 -0.357524,-0.359369 -0.357374,-0.937401 0.002,-1.294921 0.179685,-0.178763 0.414354,-0.268176 0.648438,-0.267579 z"
               id="path1197" />
          </g>
        </g>
      </g>
      <g
         id="path865"
         style="fill:#1c71d8"
         transform="translate(4.9021673,81.718264)">
        <path
           style="color:#000000;fill:#1c71d8;-inkscape-stroke:none"
           d="m 122.14648,74.013672 -0.18554,0.185547 5.20117,5.175781 -5.20117,5.173828 0.18554,0.1875 5.39063,-5.361328 z"
           id="path1259" />
        <g
           id="g1227"
           style="fill:#1c71d8">
          <g
             id="path1249"
             style="fill:#1c71d8">
            <path
               style="color:#000000;fill:#1c71d8;fill-rule:evenodd;stroke-width:0.21128pt;-inkscape-stroke:none"
               d="m 121.31961,85.373369 c -0.41127,-0.413397 -0.40955,-1.082695 0.004,-1.49397 0.41339,-0.411274 1.08269,-0.409552 1.49397,0.0038 0.41127,0.413397 0.40955,1.082696 -0.004,1.49397 -0.4134,0.411275 -1.0827,0.409552 -1.49397,-0.0038 z"
               id="path1253" />
            <path
               style="color:#000000;fill:#1c71d8;fill-rule:evenodd;-inkscape-stroke:none"
               d="m 122.07227,83.431641 c -0.30674,-7.83e-4 -0.61395,0.115143 -0.84766,0.347656 -0.46759,0.465015 -0.46893,1.225935 -0.004,1.693359 0.46503,0.467377 1.22398,0.468931 1.69141,0.0039 0.46759,-0.465013 0.47088,-1.225935 0.006,-1.693359 -0.23252,-0.233687 -0.53897,-0.35078 -0.8457,-0.351562 z m -0.002,0.28125 c 0.23409,5.97e-4 0.46772,0.08987 0.64649,0.269531 0.35752,0.359369 0.35756,0.937388 -0.002,1.294922 -0.35937,0.357525 -0.9374,0.35542 -1.29492,-0.0039 -0.35752,-0.359369 -0.3556,-0.937387 0.004,-1.294921 0.17968,-0.178761 0.4124,-0.266223 0.64648,-0.265625 z"
               id="path1255" />
          </g>
          <g
             id="path1239"
             style="fill:#1c71d8">
            <path
               style="color:#000000;fill:#1c71d8;fill-rule:evenodd;stroke-width:0.21128pt;-inkscape-stroke:none"
               d="m 127.34915,80.41006 c -0.58313,0 -1.0564,-0.473267 -1.0564,-1.0564 0,-0.583133 0.47327,-1.0564 1.0564,-1.0564 0.58313,0 1.0564,0.473267 1.0564,1.0564 0,0.583133 -0.47327,1.0564 -1.0564,1.0564 z"
               id="path1243" />
            <path
               style="color:#000000;fill:#1c71d8;fill-rule:evenodd;-inkscape-stroke:none"
               d="m 127.34961,78.15625 c -0.65934,0 -1.19727,0.537922 -1.19727,1.197266 0,0.659343 0.53793,1.197265 1.19727,1.197265 0.65934,0 1.19726,-0.537922 1.19726,-1.197265 0,-0.659344 -0.53792,-1.197266 -1.19726,-1.197266 z m 0,0.28125 c 0.50692,0 0.91601,0.409094 0.91601,0.916016 0,0.506921 -0.40909,0.916015 -0.91601,0.916015 -0.50692,0 -0.91602,-0.409094 -0.91602,-0.916015 0,-0.506922 0.4091,-0.916016 0.91602,-0.916016 z"
               id="path1245" />
          </g>
          <g
             id="path1229"
             style="fill:#1c71d8">
            <path
               style="color:#000000;fill:#1c71d8;fill-rule:evenodd;stroke-width:0.21128pt;-inkscape-stroke:none"
               d="m 122.78747,74.836529 c -0.41127,0.413397 -1.08057,0.41512 -1.49397,0.0038 -0.4134,-0.411274 -0.41512,-1.080573 -0.004,-1.49397 0.41128,-0.413397 1.08058,-0.415119 1.49397,-0.0038 0.4134,0.411275 0.41512,1.080573 0.004,1.49397 z"
               id="path1233" />
            <path
               style="color:#000000;fill:#1c71d8;fill-rule:evenodd;-inkscape-stroke:none"
               d="m 122.03516,72.894531 c -0.30674,7.83e-4 -0.61319,0.117851 -0.84571,0.351563 -0.46486,0.467434 -0.46352,1.228335 0.004,1.693359 0.46742,0.465072 1.22834,0.463519 1.69336,-0.0039 0.46486,-0.467434 0.46352,-1.228335 -0.004,-1.69336 -0.2337,-0.232536 -0.54092,-0.348438 -0.84765,-0.347656 z m 0,0.28125 c 0.23408,-5.98e-4 0.46875,0.0888 0.64843,0.267578 0.35938,0.357525 0.36129,0.93361 0.004,1.292969 -0.35752,0.359368 -0.93555,0.361473 -1.29492,0.0039 -0.35937,-0.357523 -0.36129,-0.935562 -0.004,-1.294922 0.17877,-0.179685 0.41241,-0.268933 0.64649,-0.269531 z"
               id="path1235" />
          </g>
        </g>
      </g>
      <g
         id="path867"
         style="fill:#1c71d8"
         transform="translate(4.9021673,81.718264)">
        <path
           style="color:#000000;fill:#1c71d8;-inkscape-stroke:none"
           d="m 142.99219,74.013672 -0.1875,0.185547 5.29687,5.269531 5.29492,5.267578 0.18555,-0.1875 -5.29492,-5.267578 z"
           id="path1297" />
        <g
           id="g1265"
           style="fill:#1c71d8">
          <g
             id="path1287"
             style="fill:#1c71d8">
            <path
               style="color:#000000;fill:#1c71d8;fill-rule:evenodd;stroke-width:0.21128pt;-inkscape-stroke:none"
               d="m 154.2238,85.373369 c -0.41127,0.413397 -1.08057,0.41512 -1.49397,0.0038 -0.4134,-0.411274 -0.41512,-1.080573 -0.004,-1.49397 0.41128,-0.413397 1.08058,-0.415119 1.49397,-0.0038 0.4134,0.411275 0.41512,1.080573 0.004,1.49397 z"
               id="path1291" />
            <path
               style="color:#000000;fill:#1c71d8;fill-rule:evenodd;-inkscape-stroke:none"
               d="m 153.4707,83.431641 c -0.30673,7.82e-4 -0.61319,0.117851 -0.8457,0.351562 -0.46486,0.467434 -0.46157,1.228336 0.006,1.693359 0.46742,0.465073 1.22834,0.463519 1.69336,-0.0039 0.46486,-0.467434 0.46157,-1.228335 -0.006,-1.693359 -0.23371,-0.232537 -0.54092,-0.348439 -0.84766,-0.347656 z m 0.002,0.28125 c 0.23408,-5.98e-4 0.46875,0.08684 0.64843,0.265625 0.35938,0.357524 0.35934,0.935562 0.002,1.294921 -0.35752,0.359369 -0.9336,0.361474 -1.29297,0.0039 -0.35937,-0.357524 -0.36129,-0.935563 -0.004,-1.294922 0.17877,-0.179685 0.41241,-0.268934 0.64649,-0.269531 z"
               id="path1293" />
          </g>
          <g
             id="path1277"
             style="fill:#1c71d8">
            <path
               style="color:#000000;fill:#1c71d8;fill-rule:evenodd;stroke-width:0.21128pt;-inkscape-stroke:none"
               d="m 148.92819,80.104949 c -0.41127,0.413397 -1.08057,0.41512 -1.49397,0.0038 -0.4134,-0.411274 -0.41512,-1.080573 -0.004,-1.49397 0.41128,-0.413397 1.08058,-0.415119 1.49397,-0.0038 0.4134,0.411275 0.41512,1.080573 0.004,1.49397 z"
               id="path1281" />
            <path
               style="color:#000000;fill:#1c71d8;fill-rule:evenodd;-inkscape-stroke:none"
               d="m 148.17578,78.164062 c -0.30674,7.83e-4 -0.61319,0.117851 -0.8457,0.351563 -0.46486,0.467434 -0.46352,1.228336 0.004,1.693359 0.46743,0.465073 1.22834,0.463519 1.69336,-0.0039 0.46486,-0.467434 0.46352,-1.228335 -0.004,-1.693359 -0.23371,-0.232537 -0.54092,-0.348439 -0.84766,-0.347657 z m 0.002,0.279297 c 0.23408,-5.97e-4 0.46681,0.0888 0.64649,0.267578 0.35937,0.357525 0.36129,0.935563 0.004,1.294922 -0.35751,0.359369 -0.93554,0.361474 -1.29492,0.0039 -0.35937,-0.357524 -0.36128,-0.935563 -0.004,-1.294922 0.17876,-0.179685 0.41435,-0.270887 0.64843,-0.271485 z"
               id="path1283" />
          </g>
          <g
             id="path1267"
             style="fill:#1c71d8">
            <path
               style="color:#000000;fill:#1c71d8;fill-rule:evenodd;stroke-width:0.21128pt;-inkscape-stroke:none"
               d="m 143.63258,74.836529 c -0.41127,0.413397 -1.08057,0.41512 -1.49397,0.0038 -0.4134,-0.411274 -0.41512,-1.080573 -0.004,-1.49397 0.41128,-0.413397 1.08058,-0.415119 1.49397,-0.0038 0.4134,0.411275 0.41512,1.080573 0.004,1.49397 z"
               id="path1271" />
            <path
               style="color:#000000;fill:#1c71d8;fill-rule:evenodd;-inkscape-stroke:none"
               d="m 142.88086,72.894531 c -0.30674,7.83e-4 -0.61319,0.117851 -0.8457,0.351563 -0.46486,0.467434 -0.46353,1.228335 0.004,1.693359 0.46743,0.465072 1.22834,0.463519 1.69336,-0.0039 0.46486,-0.467434 0.46352,-1.228335 -0.004,-1.69336 -0.23371,-0.232536 -0.54092,-0.348438 -0.84766,-0.347656 z m 0,0.28125 c 0.23408,-5.98e-4 0.46875,0.0888 0.64844,0.267578 0.35937,0.357525 0.36128,0.93361 0.004,1.292969 -0.35752,0.359368 -0.93554,0.361473 -1.29492,0.0039 -0.35937,-0.357523 -0.36128,-0.935562 -0.004,-1.294922 0.17877,-0.179685 0.41241,-0.268933 0.64649,-0.269531 z"
               id="path1273" />
          </g>
        </g>
      </g>
    </g>
  </g>
</svg>
