<?xml version="1.0" encoding="UTF-8" standalone="no"?>
<!-- Created with Inkscape (http://www.inkscape.org/) -->

<svg
   width="84.727509mm"
   height="68.56694mm"
   viewBox="0 0 84.727509 68.56694"
   version="1.1"
   id="svg5"
   sodipodi:docname="unlabelled_node_count_example.svg"
   inkscape:version="1.1 (c4e8f9e, 2021-05-24)"
   xmlns:inkscape="http://www.inkscape.org/namespaces/inkscape"
   xmlns:sodipodi="http://sodipodi.sourceforge.net/DTD/sodipodi-0.dtd"
   xmlns="http://www.w3.org/2000/svg"
   xmlns:svg="http://www.w3.org/2000/svg">
  <sodipodi:namedview
     id="namedview7"
     pagecolor="#ffffff"
     bordercolor="#666666"
     borderopacity="1.0"
     inkscape:pageshadow="2"
     inkscape:pageopacity="0.0"
     inkscape:pagecheckerboard="0"
     inkscape:document-units="mm"
     showgrid="false"
     inkscape:zoom="0.78741022"
     inkscape:cx="187.32294"
     inkscape:cy="170.81312"
     inkscape:window-width="1312"
     inkscape:window-height="847"
     inkscape:window-x="1886"
     inkscape:window-y="97"
     inkscape:window-maximized="0"
     inkscape:current-layer="layer1"
     inkscape:snap-global="false">
    <inkscape:grid
       type="xygrid"
       id="grid824"
       originx="-55.281712"
       originy="-50.353458" />
  </sodipodi:namedview>
  <defs
     id="defs2">
    <marker
       style="overflow:visible"
       id="DotL"
       refX="0"
       refY="0"
       orient="auto"
       inkscape:stockid="DotL"
       inkscape:isstock="true">
      <path
         transform="matrix(0.8,0,0,0.8,5.92,0.8)"
         style="fill:context-stroke;fill-rule:evenodd;stroke:context-stroke;stroke-width:1pt"
         d="m -2.5,-1 c 0,2.76 -2.24,5 -5,5 -2.76,0 -5,-2.24 -5,-5 0,-2.76 2.24,-5 5,-5 2.76,0 5,2.24 5,5 z"
         id="path1192" />
    </marker>
    <marker
       style="overflow:visible"
       id="DotM"
       refX="0"
       refY="0"
       orient="auto"
       inkscape:stockid="DotM"
       inkscape:isstock="true">
      <path
         transform="matrix(0.4,0,0,0.4,2.96,0.4)"
         style="fill:context-stroke;fill-rule:evenodd;stroke:context-stroke;stroke-width:1pt"
         d="m -2.5,-1 c 0,2.76 -2.24,5 -5,5 -2.76,0 -5,-2.24 -5,-5 0,-2.76 2.24,-5 5,-5 2.76,0 5,2.24 5,5 z"
         id="path1195" />
    </marker>
    <defs
       id="id-021e84ad-5f83-4dfe-b5d4-6fff5cf381fe">
      <g
         id="id-cf07c23a-cc7a-4175-9c50-b9a2790926c8">
        <symbol
           overflow="visible"
           id="id-4b28a353-a6f6-44ad-a0a7-6b6af11a263e">
          <path
             style="stroke:none;stroke-width:0"
             d=""
             id="id-3a93435f-66ac-4c36-8fad-2eb6f87ec424" />
        </symbol>
        <symbol
           overflow="visible"
           id="id-e673851b-239d-4bba-bd35-2e675a49eaea">
          <path
             style="stroke:none;stroke-width:0"
             d="M 1.78125,-1.140625 C 1.390625,-0.484375 1,-0.34375 0.5625,-0.3125 0.4375,-0.296875 0.34375,-0.296875 0.34375,-0.109375 0.34375,-0.046875 0.40625,0 0.484375,0 0.75,0 1.0625,-0.03125 1.328125,-0.03125 c 0.34375,0 0.6875,0.03125 1,0.03125 0.0625,0 0.1875,0 0.1875,-0.1875 0,-0.109375 -0.078125,-0.125 -0.15625,-0.125 -0.21875,-0.015625 -0.46875,-0.09375 -0.46875,-0.34375 0,-0.125 0.0625,-0.234375 0.140625,-0.375 l 0.765625,-1.265625 h 2.5 c 0.015625,0.203125 0.15625,1.5625 0.15625,1.65625 0,0.296875 -0.515625,0.328125 -0.71875,0.328125 C 4.59375,-0.3125 4.5,-0.3125 4.5,-0.109375 4.5,0 4.609375,0 4.640625,0 5.046875,0 5.46875,-0.03125 5.875,-0.03125 6.125,-0.03125 6.765625,0 7.015625,0 7.0625,0 7.1875,0 7.1875,-0.203125 7.1875,-0.3125 7.09375,-0.3125 6.953125,-0.3125 6.34375,-0.3125 6.34375,-0.375 6.3125,-0.671875 l -0.609375,-6.21875 c -0.015625,-0.203125 -0.015625,-0.25 -0.1875,-0.25 -0.15625,0 -0.203125,0.078125 -0.265625,0.171875 z M 2.984375,-2.609375 4.9375,-5.90625 5.265625,-2.609375 Z m 0,0"
             id="id-c573793d-e46f-4e86-a29b-c001021e56ba" />
        </symbol>
        <symbol
           overflow="visible"
           id="id-72930001-4a47-4dbc-9240-d99c00cb02f5">
          <path
             style="stroke:none;stroke-width:0"
             d="M 1.59375,-0.78125 C 1.5,-0.390625 1.46875,-0.3125 0.6875,-0.3125 c -0.171875,0 -0.265625,0 -0.265625,0.203125 C 0.421875,0 0.515625,0 0.6875,0 H 4.25 C 5.828125,0 7,-1.171875 7,-2.15625 7,-2.875 6.421875,-3.453125 5.453125,-3.5625 6.484375,-3.75 7.53125,-4.484375 7.53125,-5.4375 c 0,-0.734375 -0.65625,-1.375 -1.84375,-1.375 H 2.328125 c -0.1875,0 -0.28125,0 -0.28125,0.203125 0,0.109375 0.09375,0.109375 0.28125,0.109375 0.015625,0 0.203125,0 0.375,0.015625 0.171875,0.03125 0.265625,0.03125 0.265625,0.171875 0,0.03125 -0.015625,0.0625 -0.03125,0.1875 z m 1.5,-2.875 0.625,-2.46875 C 3.8125,-6.46875 3.828125,-6.5 4.25,-6.5 h 1.296875 c 0.875,0 1.078125,0.59375 1.078125,1.03125 0,0.875 -0.859375,1.8125 -2.0625,1.8125 z m -0.4375,3.34375 c -0.140625,0 -0.15625,0 -0.21875,0 -0.109375,-0.015625 -0.140625,-0.03125 -0.140625,-0.109375 0,-0.03125 0,-0.046875 0.0625,-0.21875 l 0.6875,-2.78125 h 1.875 c 0.953125,0 1.15625,0.734375 1.15625,1.15625 C 6.078125,-1.28125 5.1875,-0.3125 4,-0.3125 Z m 0,0"
             id="id-0d7de158-1017-49f1-bda6-554906f852fe" />
        </symbol>
        <symbol
           overflow="visible"
           id="id-ecaf4bc9-39ec-42ab-bebc-bba3682de5bf">
          <path
             style="stroke:none;stroke-width:0"
             d="m 7.578125,-6.921875 c 0,-0.03125 -0.015625,-0.109375 -0.109375,-0.109375 -0.03125,0 -0.046875,0.015625 -0.15625,0.125 L 6.625,-6.140625 C 6.53125,-6.28125 6.078125,-7.03125 4.96875,-7.03125 2.734375,-7.03125 0.5,-4.828125 0.5,-2.515625 0.5,-0.875 1.671875,0.21875 3.203125,0.21875 c 0.859375,0 1.625,-0.390625 2.15625,-0.859375 0.921875,-0.8125 1.09375,-1.71875 1.09375,-1.75 C 6.453125,-2.5 6.34375,-2.5 6.328125,-2.5 c -0.0625,0 -0.109375,0.03125 -0.125,0.109375 -0.09375,0.28125 -0.328125,1 -1.015625,1.578125 -0.6875,0.546875 -1.3125,0.71875 -1.828125,0.71875 -0.890625,0 -1.953125,-0.515625 -1.953125,-2.0625 0,-0.578125 0.203125,-2.1875 1.203125,-3.359375 0.609375,-0.703125 1.546875,-1.203125 2.4375,-1.203125 1.015625,0 1.609375,0.765625 1.609375,1.921875 0,0.40625 -0.03125,0.40625 -0.03125,0.515625 0,0.09375 0.109375,0.09375 0.140625,0.09375 0.125,0 0.125,-0.015625 0.1875,-0.203125 z m 0,0"
             id="id-c36b22ce-7544-4368-9dfe-70600ef98cea" />
        </symbol>
      </g>
    </defs>
  </defs>
  <g
     inkscape:label="Layer 1"
     inkscape:groupmode="layer"
     id="layer1"
     transform="translate(-55.281711,-50.353457)">
    <g
       id="g5086">
      <g
         id="path1031">
        <path
           style="color:#000000;fill:#0b5cd5;-inkscape-stroke:none"
           d="M 84.480469,95.0625 73.896484,105.64648 63.3125,116.23047 63.6875,116.60352 74.269531,106.01953 84.853516,95.4375 Z"
           id="path1995" />
        <g
           id="g1963">
          <g
             id="path1985">
            <path
               style="color:#000000;fill:#0b5cd5;fill-rule:evenodd;stroke-width:0.423334pt;-inkscape-stroke:none"
               d="m 62.033223,117.88345 c -0.826184,-0.82619 -0.826184,-2.16724 0,-2.99342 0.826184,-0.82619 2.167237,-0.82619 2.993421,0 0.826184,0.82618 0.826183,2.16723 -10e-7,2.99342 -0.826184,0.82618 -2.167236,0.82618 -2.99342,0 z"
               id="path1989" />
            <path
               style="color:#000000;fill:#0b5cd5;fill-rule:evenodd;-inkscape-stroke:none"
               d="m 63.529297,113.99023 c -0.614596,0 -1.228234,0.23409 -1.695313,0.70118 -0.934159,0.93415 -0.934157,2.45841 0,3.39257 0.934159,0.93416 2.45842,0.93416 3.392578,0 0.934157,-0.93416 0.93416,-2.45842 0,-3.39257 -0.467079,-0.46709 -1.082669,-0.70118 -1.697265,-0.70118 z m 0,0.56055 c 0.469021,0 0.937771,0.17996 1.296875,0.53906 0.718207,0.71821 0.718209,1.87554 0,2.59375 -0.718208,0.71821 -1.875542,0.71821 -2.59375,0 -0.718209,-0.71821 -0.718207,-1.87554 0,-2.59375 0.359104,-0.3591 0.827853,-0.53906 1.296875,-0.53906 z"
               id="path1991" />
          </g>
          <g
             id="path1975">
            <path
               style="color:#000000;fill:#0b5cd5;fill-rule:evenodd;stroke-width:0.423334pt;-inkscape-stroke:none"
               d="m 72.616556,107.30012 c -0.826184,-0.82619 -0.826184,-2.16724 0,-2.99342 0.826184,-0.82619 2.167236,-0.82619 2.99342,0 0.826185,0.82618 0.826185,2.16723 10e-7,2.99342 -0.826184,0.82618 -2.167237,0.82618 -2.993421,0 z"
               id="path1979" />
            <path
               style="color:#000000;fill:#0b5cd5;fill-rule:evenodd;-inkscape-stroke:none"
               d="m 74.113281,103.40625 c -0.614596,0 -1.228233,0.23409 -1.695312,0.70117 -0.934159,0.93416 -0.934157,2.45842 0,3.39258 0.934158,0.93415 2.456466,0.93415 3.390625,0 0.934157,-0.93416 0.93416,-2.45842 0,-3.39258 -0.467079,-0.46708 -1.080717,-0.70117 -1.695313,-0.70117 z m 0,0.56055 c 0.469021,0 0.937771,0.17995 1.296875,0.53906 0.718209,0.7182 0.71821,1.87553 0,2.59375 -0.718207,0.7182 -1.875542,0.7182 -2.59375,0 -0.718209,-0.71822 -0.718207,-1.87555 0,-2.59375 0.359104,-0.35911 0.827854,-0.53906 1.296875,-0.53906 z"
               id="path1981" />
          </g>
          <g
             id="path1965">
            <path
               style="color:#000000;fill:#0b5cd5;fill-rule:evenodd;stroke-width:0.423334pt;-inkscape-stroke:none"
               d="m 83.19989,96.716776 c -0.826184,-0.826183 -0.826184,-2.167236 -10e-7,-2.99342 0.826184,-0.826184 2.167237,-0.826185 2.993421,-10e-7 0.826184,0.826184 0.826185,2.167236 10e-7,2.993421 -0.826184,0.826184 -2.167236,0.826184 -2.993421,0 z"
               id="path1969" />
            <path
               style="color:#000000;fill:#0b5cd5;fill-rule:evenodd;-inkscape-stroke:none"
               d="m 84.697266,92.822266 c -0.614596,0 -1.230187,0.234092 -1.697266,0.701171 -0.934157,0.934159 -0.934159,2.458421 0,3.392579 0.934159,0.934158 2.45842,0.934158 3.392578,0 0.934158,-0.93416 0.934158,-2.45842 0,-3.392579 -0.467079,-0.467079 -1.080717,-0.701172 -1.695312,-0.701171 z m 0,0.5625 c 0.469021,-10e-7 0.937771,0.179958 1.296875,0.539062 0.718208,0.718208 0.718208,1.875541 0,2.59375 -0.718208,0.718208 -1.875541,0.718208 -2.59375,0 -0.718208,-0.718207 -0.718207,-1.875542 0,-2.59375 0.359104,-0.359104 0.827853,-0.539062 1.296875,-0.539062 z"
               id="path1971" />
          </g>
        </g>
      </g>
      <g
         id="path1643">
        <path
           style="color:#000000;fill:#0b5cd5;-inkscape-stroke:none"
           d="M 105.64648,95.0625 95.0625,105.64648 84.480469,116.23047 84.853516,116.60352 95.4375,106.01953 106.01953,95.4375 Z"
           id="path2033" />
        <g
           id="g2001">
          <g
             id="path2023">
            <path
               style="color:#000000;fill:#0b5cd5;fill-rule:evenodd;stroke-width:0.423334pt;-inkscape-stroke:none"
               d="m 83.199891,117.88345 c -0.826184,-0.82619 -0.826184,-2.16724 0,-2.99342 0.826184,-0.82619 2.167237,-0.82619 2.993421,0 0.826184,0.82618 0.826183,2.16723 -1e-6,2.99342 -0.826184,0.82618 -2.167236,0.82618 -2.99342,0 z"
               id="path2027" />
            <path
               style="color:#000000;fill:#0b5cd5;fill-rule:evenodd;-inkscape-stroke:none"
               d="m 84.697266,113.99023 c -0.614596,0 -1.230187,0.23409 -1.697266,0.70118 -0.934159,0.93415 -0.934157,2.45841 0,3.39257 0.934159,0.93416 2.458419,0.93416 3.392578,0 0.934157,-0.93416 0.934159,-2.45842 0,-3.39257 -0.467079,-0.46709 -1.080716,-0.70118 -1.695312,-0.70118 z m 0,0.56055 c 0.469021,0 0.93777,0.17996 1.296875,0.53906 0.718207,0.71821 0.718209,1.87554 0,2.59375 -0.718208,0.71821 -1.875543,0.71821 -2.59375,0 -0.71821,-0.71821 -0.718208,-1.87554 0,-2.59375 0.359104,-0.3591 0.827853,-0.53906 1.296875,-0.53906 z"
               id="path2029" />
          </g>
          <g
             id="path2013">
            <path
               style="color:#000000;fill:#0b5cd5;fill-rule:evenodd;stroke-width:0.423334pt;-inkscape-stroke:none"
               d="m 93.783224,107.30012 c -0.826184,-0.82619 -0.826184,-2.16724 0,-2.99342 0.826184,-0.82619 2.167237,-0.82619 2.993421,0 0.826184,0.82618 0.826184,2.16723 -10e-7,2.99342 -0.826184,0.82618 -2.167236,0.82618 -2.99342,0 z"
               id="path2017" />
            <path
               style="color:#000000;fill:#0b5cd5;fill-rule:evenodd;-inkscape-stroke:none"
               d="m 95.279297,103.40625 c -0.614596,0 -1.228234,0.23409 -1.695313,0.70117 -0.934159,0.93416 -0.934157,2.45842 0,3.39258 0.934159,0.93415 2.45842,0.93415 3.392578,0 0.934159,-0.93416 0.93416,-2.45842 0,-3.39258 -0.467079,-0.46708 -1.082669,-0.70117 -1.697265,-0.70117 z m 0,0.56055 c 0.469021,0 0.937771,0.17995 1.296875,0.53906 0.718207,0.7182 0.71821,1.87553 0,2.59375 -0.718208,0.7182 -1.875542,0.7182 -2.59375,0 -0.718209,-0.71822 -0.718207,-1.87555 0,-2.59375 0.359104,-0.35911 0.827853,-0.53906 1.296875,-0.53906 z"
               id="path2019" />
          </g>
          <g
             id="path2003">
            <path
               style="color:#000000;fill:#0b5cd5;fill-rule:evenodd;stroke-width:0.423334pt;-inkscape-stroke:none"
               d="m 104.36656,96.716776 c -0.82618,-0.826184 -0.82618,-2.167236 0,-2.99342 0.82619,-0.826185 2.16724,-0.826185 2.99342,0 0.82619,0.826184 0.82619,2.167236 0,2.99342 -0.82618,0.826184 -2.16723,0.826184 -2.99342,0 z"
               id="path2007" />
            <path
               style="color:#000000;fill:#0b5cd5;fill-rule:evenodd;-inkscape-stroke:none"
               d="m 105.86328,92.822266 c -0.61459,0 -1.22823,0.234092 -1.69531,0.701171 -0.93416,0.934159 -0.93416,2.45842 0,3.392579 0.93416,0.934157 2.45647,0.934159 3.39062,0 0.93417,-0.934158 0.93417,-2.458421 0,-3.392579 -0.46707,-0.46708 -1.08071,-0.701171 -1.69531,-0.701171 z m 0,0.5625 c 0.46902,0 0.93777,0.179958 1.29688,0.539062 0.71821,0.718208 0.71821,1.875542 0,2.59375 -0.71821,0.718207 -1.87554,0.718209 -2.59375,0 -0.71821,-0.718208 -0.71821,-1.875542 0,-2.59375 0.3591,-0.359105 0.82785,-0.539062 1.29687,-0.539062 z"
               id="path2009" />
          </g>
        </g>
      </g>
      <g
         id="path1645">
        <path
           style="color:#000000;fill:#0b5cd5;-inkscape-stroke:none"
           d="m 126.8125,95.0625 -10.58203,10.58398 -10.58399,10.58399 0.37305,0.37305 10.58399,-10.58399 10.58398,-10.58203 z"
           id="path2071" />
        <g
           id="g2039">
          <g
             id="path2061">
            <path
               style="color:#000000;fill:#0b5cd5;fill-rule:evenodd;stroke-width:0.423334pt;-inkscape-stroke:none"
               d="m 104.36656,117.88345 c -0.82618,-0.82619 -0.82618,-2.16724 0,-2.99343 0.82619,-0.82618 2.16724,-0.82618 2.99343,10e-6 0.82618,0.82618 0.82618,2.16723 -1e-5,2.99342 -0.82618,0.82618 -2.16723,0.82618 -2.99342,0 z"
               id="path2065" />
            <path
               style="color:#000000;fill:#0b5cd5;fill-rule:evenodd;-inkscape-stroke:none"
               d="m 105.86328,113.99023 c -0.61459,0 -1.22823,0.2341 -1.69531,0.70118 -0.93415,0.93416 -0.93415,2.45841 0,3.39257 0.93416,0.93416 2.45647,0.93416 3.39062,0 0.93417,-0.93416 0.93416,-2.45842 0,-3.39257 -0.46708,-0.46709 -1.08071,-0.70117 -1.69531,-0.70118 z m 0,0.56055 c 0.46902,0 0.93777,0.17996 1.29688,0.53906 0.7182,0.71821 0.71821,1.87554 0,2.59375 -0.71821,0.71821 -1.87554,0.71821 -2.59375,0 -0.71821,-0.71821 -0.71821,-1.87553 0,-2.59375 0.3591,-0.3591 0.82785,-0.53906 1.29687,-0.53906 z"
               id="path2067" />
          </g>
          <g
             id="path2051">
            <path
               style="color:#000000;fill:#0b5cd5;fill-rule:evenodd;stroke-width:0.423334pt;-inkscape-stroke:none"
               d="m 114.9499,107.30012 c -0.82618,-0.82619 -0.82618,-2.16724 0,-2.99342 0.82619,-0.82619 2.16724,-0.82619 2.99342,0 0.82619,0.82618 0.82619,2.16723 0,2.99342 -0.82618,0.82618 -2.16723,0.82618 -2.99342,0 z"
               id="path2055" />
            <path
               style="color:#000000;fill:#0b5cd5;fill-rule:evenodd;-inkscape-stroke:none"
               d="m 116.44727,103.40625 c -0.6146,0 -1.23019,0.23409 -1.69727,0.70117 -0.93415,0.93416 -0.93415,2.45842 0,3.39258 0.93416,0.93415 2.45842,0.93415 3.39258,0 0.93416,-0.93416 0.93416,-2.45842 0,-3.39258 -0.46708,-0.46708 -1.08072,-0.70117 -1.69531,-0.70117 z m 0,0.56055 c 0.46902,0 0.93777,0.17995 1.29687,0.53906 0.71821,0.7182 0.71822,1.87553 0,2.59375 -0.7182,0.7182 -1.87554,0.7182 -2.59375,0 -0.7182,-0.71821 -0.7182,-1.87555 0,-2.59375 0.35911,-0.35911 0.82785,-0.53906 1.29688,-0.53906 z"
               id="path2057" />
          </g>
          <g
             id="path2041">
            <path
               style="color:#000000;fill:#0b5cd5;fill-rule:evenodd;stroke-width:0.423334pt;-inkscape-stroke:none"
               d="m 125.53324,96.716776 c -0.82618,-0.826184 -0.82618,-2.167236 0,-2.99342 0.82619,-0.826185 2.16724,-0.826185 2.99342,0 0.82619,0.826184 0.82619,2.167236 0,2.99342 -0.82618,0.826184 -2.16723,0.826184 -2.99342,0 z"
               id="path2045" />
            <path
               style="color:#000000;fill:#0b5cd5;fill-rule:evenodd;-inkscape-stroke:none"
               d="m 127.0293,92.822266 c -0.6146,0 -1.22823,0.234092 -1.69532,0.701171 -0.93415,0.934159 -0.93415,2.45842 0,3.392579 0.93417,0.934157 2.45843,0.934159 3.39258,0 0.93417,-0.934158 0.93417,-2.458421 0,-3.392579 -0.46707,-0.46708 -1.08267,-0.701171 -1.69726,-0.701171 z m 0,0.5625 c 0.46902,0 0.93777,0.179958 1.29687,0.539062 0.71822,0.718208 0.71822,1.875542 0,2.59375 -0.7182,0.718207 -1.87553,0.718209 -2.59375,0 -0.7182,-0.718208 -0.7182,-1.875542 0,-2.59375 0.35911,-0.359105 0.82786,-0.539062 1.29688,-0.539062 z"
               id="path2047" />
          </g>
        </g>
      </g>
      <g
         id="path1647">
        <path
           style="color:#000000;fill:#0b5cd5;-inkscape-stroke:none"
           d="M 95.0625,52.730469 84.480469,63.3125 73.896484,73.896484 74.269531,74.269531 84.853516,63.6875 95.4375,53.103516 Z"
           id="path2109" />
        <g
           id="g2077">
          <g
             id="path2099">
            <path
               style="color:#000000;fill:#0b5cd5;fill-rule:evenodd;stroke-width:0.423334pt;-inkscape-stroke:none"
               d="m 72.616557,75.550101 c -0.826184,-0.826185 -0.826184,-2.167237 0,-2.993421 0.826185,-0.826184 2.167237,-0.826183 2.993421,10e-7 0.826184,0.826184 0.826183,2.167237 -10e-7,2.99342 -0.826184,0.826184 -2.167237,0.826184 -2.99342,0 z"
               id="path2103" />
            <path
               style="color:#000000;fill:#0b5cd5;fill-rule:evenodd;-inkscape-stroke:none"
               d="m 74.113281,71.65625 c -0.614595,0 -1.228233,0.234093 -1.695312,0.701172 -0.934159,0.934158 -0.934158,2.458419 0,3.392578 0.934157,0.934159 2.456466,0.934158 3.390625,0 0.934158,-0.934157 0.934158,-2.45842 0,-3.392578 -0.467079,-0.467079 -1.080717,-0.701172 -1.695313,-0.701172 z m 0,0.560547 c 0.469022,0 0.937771,0.179958 1.296875,0.539062 0.718208,0.718208 0.718208,1.875543 0,2.59375 -0.718208,0.718208 -1.875543,0.718208 -2.59375,0 -0.718208,-0.718209 -0.718208,-1.875542 0,-2.59375 0.359105,-0.359104 0.827854,-0.539062 1.296875,-0.539062 z"
               id="path2105" />
          </g>
          <g
             id="path2089">
            <path
               style="color:#000000;fill:#0b5cd5;fill-rule:evenodd;stroke-width:0.423334pt;-inkscape-stroke:none"
               d="m 83.19989,64.966773 c -0.826184,-0.826184 -0.826184,-2.167237 0,-2.993421 0.826184,-0.826184 2.167237,-0.826183 2.993421,1e-6 0.826184,0.826184 0.826183,2.167236 -10e-7,2.99342 -0.826184,0.826184 -2.167236,0.826184 -2.99342,0 z"
               id="path2093" />
            <path
               style="color:#000000;fill:#0b5cd5;fill-rule:evenodd;-inkscape-stroke:none"
               d="M 84.697266,61.072266 C 84.08267,61.072265 83.467079,61.306358 83,61.773437 c -0.934158,0.934159 -0.934158,2.45842 0,3.392579 0.934158,0.934158 2.45842,0.934158 3.392578,0 0.934158,-0.934159 0.934159,-2.45842 0,-3.392579 -0.467079,-0.467079 -1.080717,-0.701171 -1.695312,-0.701171 z m 0,0.5625 c 0.469021,0 0.937771,0.179958 1.296875,0.539062 0.718208,0.718208 0.718208,1.875542 0,2.59375 -0.718208,0.718208 -1.875542,0.718208 -2.59375,0 -0.718208,-0.718208 -0.718208,-1.875542 0,-2.59375 0.359104,-0.359104 0.827853,-0.539063 1.296875,-0.539062 z"
               id="path2095" />
          </g>
          <g
             id="path2079">
            <path
               style="color:#000000;fill:#0b5cd5;fill-rule:evenodd;stroke-width:0.423334pt;-inkscape-stroke:none"
               d="m 93.783224,54.38344 c -0.826184,-0.826184 -0.826184,-2.167237 0,-2.993421 0.826184,-0.826184 2.167237,-0.826184 2.993421,10e-7 0.826184,0.826184 0.826184,2.167236 -10e-7,2.99342 -0.826184,0.826184 -2.167236,0.826184 -2.99342,0 z"
               id="path2083" />
            <path
               style="color:#000000;fill:#0b5cd5;fill-rule:evenodd;-inkscape-stroke:none"
               d="m 95.279297,50.490234 c -0.614596,0 -1.228233,0.234093 -1.695313,0.701172 -0.934158,0.934159 -0.934158,2.456467 0,3.390625 0.934159,0.934159 2.45842,0.934159 3.392578,0 0.93416,-0.934158 0.934159,-2.456466 0,-3.390625 -0.467079,-0.46708 -1.08267,-0.701171 -1.697265,-0.701172 z m 0,0.560547 c 0.469022,0 0.937771,0.179958 1.296875,0.539063 0.718208,0.718208 0.718209,1.875542 0,2.59375 -0.718208,0.718208 -1.875542,0.718208 -2.59375,0 -0.718208,-0.718208 -0.718208,-1.875542 0,-2.59375 0.359104,-0.359104 0.827853,-0.539063 1.296875,-0.539063 z"
               id="path2085" />
          </g>
        </g>
      </g>
      <g
         id="path1649">
        <path
           style="color:#000000;fill:#0b5cd5;-inkscape-stroke:none"
           d="M 116.23047,52.730469 105.64648,63.3125 95.0625,73.896484 95.4375,74.269531 106.01953,63.6875 116.60352,53.103516 Z"
           id="path2147" />
        <g
           id="g2115">
          <g
             id="path2137">
            <path
               style="color:#000000;fill:#0b5cd5;fill-rule:evenodd;stroke-width:0.423334pt;-inkscape-stroke:none"
               d="m 93.783224,75.5501 c -0.826183,-0.826184 -0.826183,-2.167237 2e-6,-2.99342 0.826184,-0.826184 2.167237,-0.826183 2.99342,10e-7 0.826184,0.826185 0.826183,2.167237 -10e-7,2.993421 -0.826185,0.826184 -2.167237,0.826183 -2.993421,-2e-6 z"
               id="path2141" />
            <path
               style="color:#000000;fill:#0b5cd5;fill-rule:evenodd;-inkscape-stroke:none"
               d="m 95.279297,71.65625 c -0.614596,0 -1.228233,0.234093 -1.695313,0.701172 -0.934159,0.934157 -0.934157,2.458419 0,3.392578 0.934159,0.934159 2.458419,0.934158 3.392578,0 0.934159,-0.934158 0.934159,-2.458419 0,-3.392578 -0.467078,-0.467079 -1.08267,-0.701172 -1.697265,-0.701172 z m 0,0.560547 c 0.469022,0 0.937771,0.179958 1.296875,0.539062 0.718208,0.718209 0.718208,1.875542 0,2.59375 -0.718209,0.718208 -1.875542,0.718209 -2.59375,0 -0.718207,-0.718207 -0.718209,-1.875543 0,-2.59375 0.359104,-0.359104 0.827853,-0.539062 1.296875,-0.539062 z"
               id="path2143" />
          </g>
          <g
             id="path2127">
            <path
               style="color:#000000;fill:#0b5cd5;fill-rule:evenodd;stroke-width:0.423334pt;-inkscape-stroke:none"
               d="m 104.36656,64.966772 c -0.82618,-0.826184 -0.82618,-2.167236 0,-2.99342 0.82619,-0.826184 2.16724,-0.826183 2.99343,1e-6 0.82618,0.826185 0.82618,2.167237 -1e-5,2.993421 -0.82618,0.826183 -2.16723,0.826183 -2.99342,-2e-6 z"
               id="path2131" />
            <path
               style="color:#000000;fill:#0b5cd5;fill-rule:evenodd;-inkscape-stroke:none"
               d="m 105.86328,61.072266 c -0.61459,-10e-7 -1.22823,0.234093 -1.69531,0.701171 -0.93416,0.934159 -0.93416,2.45842 0,3.392579 0.93416,0.934158 2.45647,0.934158 3.39062,0 0.93417,-0.934158 0.93416,-2.458419 0,-3.392579 -0.46708,-0.467078 -1.08071,-0.701171 -1.69531,-0.701171 z m 0,0.5625 c 0.46902,0 0.93777,0.179957 1.29688,0.539062 0.7182,0.718209 0.71821,1.875542 0,2.59375 -0.71821,0.718207 -1.87554,0.71821 -2.59375,0 -0.71821,-0.718208 -0.71821,-1.875542 0,-2.59375 0.3591,-0.359104 0.82785,-0.539063 1.29687,-0.539062 z"
               id="path2133" />
          </g>
          <g
             id="path2117">
            <path
               style="color:#000000;fill:#0b5cd5;fill-rule:evenodd;stroke-width:0.423334pt;-inkscape-stroke:none"
               d="m 114.9499,54.38344 c -0.82618,-0.826185 -0.82618,-2.167237 0,-2.993421 0.82619,-0.826184 2.16724,-0.826183 2.99342,10e-7 0.82619,0.826184 0.82619,2.167237 0,2.993421 -0.82618,0.826183 -2.16723,0.826183 -2.99342,-10e-7 z"
               id="path2121" />
            <path
               style="color:#000000;fill:#0b5cd5;fill-rule:evenodd;-inkscape-stroke:none"
               d="m 116.44727,50.490234 c -0.6146,0 -1.23019,0.234094 -1.69727,0.701172 -0.93415,0.934159 -0.93415,2.456466 0,3.390625 0.93416,0.934157 2.45842,0.934158 3.39258,0 0.93416,-0.934158 0.93416,-2.456467 0,-3.390625 -0.46708,-0.467079 -1.08072,-0.701171 -1.69531,-0.701172 z m 0,0.560547 c 0.46902,0 0.93777,0.179959 1.29687,0.539063 0.71821,0.718208 0.71821,1.875541 0,2.59375 -0.7182,0.718206 -1.87553,0.718209 -2.59375,0 -0.7182,-0.718209 -0.7182,-1.875543 0,-2.59375 0.35911,-0.359105 0.82785,-0.539063 1.29688,-0.539063 z"
               id="path2123" />
          </g>
        </g>
      </g>
      <g
         id="path1651">
        <path
           style="color:#000000;fill:#0b5cd5;-inkscape-stroke:none"
           d="M 137.39648,52.730469 126.8125,63.3125 116.23047,73.896484 116.60352,74.269531 127.1875,63.6875 137.76953,53.103516 Z"
           id="path2185" />
        <g
           id="g2153">
          <g
             id="path2175">
            <path
               style="color:#000000;fill:#0b5cd5;fill-rule:evenodd;stroke-width:0.423334pt;-inkscape-stroke:none"
               d="m 114.9499,75.5501 c -0.82618,-0.826184 -0.82618,-2.167237 0,-2.99342 0.82619,-0.826184 2.16724,-0.826183 2.99343,10e-7 0.82618,0.826185 0.82618,2.167237 -1e-5,2.993421 -0.82618,0.826184 -2.16723,0.826183 -2.99342,-2e-6 z"
               id="path2179" />
            <path
               style="color:#000000;fill:#0b5cd5;fill-rule:evenodd;-inkscape-stroke:none"
               d="m 116.44727,71.65625 c -0.6146,0 -1.23019,0.234093 -1.69727,0.701172 -0.93415,0.934158 -0.93415,2.458419 0,3.392578 0.93416,0.934158 2.45842,0.934159 3.39258,0 0.93416,-0.934158 0.93415,-2.458419 0,-3.392578 -0.46708,-0.467079 -1.08072,-0.701172 -1.69531,-0.701172 z m 0,0.560547 c 0.46902,0 0.93776,0.179958 1.29687,0.539062 0.71821,0.718209 0.71821,1.875542 0,2.59375 -0.7182,0.718208 -1.87553,0.718211 -2.59375,0 -0.7182,-0.718207 -0.7182,-1.875543 0,-2.59375 0.35911,-0.359104 0.82785,-0.539062 1.29688,-0.539062 z"
               id="path2181" />
          </g>
          <g
             id="path2165">
            <path
               style="color:#000000;fill:#0b5cd5;fill-rule:evenodd;stroke-width:0.423334pt;-inkscape-stroke:none"
               d="m 125.53324,64.966772 c -0.82618,-0.826184 -0.82618,-2.167236 0,-2.99342 0.82619,-0.826184 2.16724,-0.826183 2.99343,1e-6 0.82618,0.826185 0.82618,2.167237 -1e-5,2.993421 -0.82618,0.826183 -2.16723,0.826183 -2.99342,-2e-6 z"
               id="path2169" />
            <path
               style="color:#000000;fill:#0b5cd5;fill-rule:evenodd;-inkscape-stroke:none"
               d="m 127.0293,61.072266 c -0.6146,-10e-7 -1.22823,0.234093 -1.69532,0.701171 -0.93415,0.934159 -0.93415,2.45842 0,3.392579 0.93417,0.934158 2.45843,0.934158 3.39258,0 0.93417,-0.934158 0.93416,-2.458419 0,-3.392579 -0.46708,-0.467078 -1.08267,-0.701171 -1.69726,-0.701171 z m 0,0.5625 c 0.46902,0 0.93776,0.179957 1.29687,0.539062 0.71821,0.718209 0.71822,1.875542 0,2.59375 -0.7182,0.718207 -1.87553,0.71821 -2.59375,0 -0.7182,-0.718208 -0.7182,-1.875542 0,-2.59375 0.35911,-0.359104 0.82785,-0.539063 1.29688,-0.539062 z"
               id="path2171" />
          </g>
          <g
             id="path2155">
            <path
               style="color:#000000;fill:#0b5cd5;fill-rule:evenodd;stroke-width:0.423334pt;-inkscape-stroke:none"
               d="m 136.11658,54.38344 c -0.82618,-0.826185 -0.82618,-2.167237 0,-2.993421 0.82619,-0.826184 2.16724,-0.826183 2.99342,10e-7 0.82619,0.826184 0.82619,2.167237 0,2.993421 -0.82618,0.826183 -2.16723,0.826183 -2.99342,-10e-7 z"
               id="path2159" />
            <path
               style="color:#000000;fill:#0b5cd5;fill-rule:evenodd;-inkscape-stroke:none"
               d="m 137.61328,50.490234 c -0.61459,0 -1.22823,0.234094 -1.69531,0.701172 -0.93416,0.934159 -0.93416,2.456466 0,3.390625 0.93416,0.934157 2.45647,0.934158 3.39062,0 0.93417,-0.934158 0.93417,-2.456467 0,-3.390625 -0.46707,-0.467079 -1.08071,-0.701171 -1.69531,-0.701172 z m 0,0.560547 c 0.46902,0 0.93777,0.179959 1.29688,0.539063 0.71821,0.718208 0.71821,1.875541 0,2.59375 -0.71821,0.718206 -1.87554,0.718209 -2.59375,0 -0.71821,-0.718209 -0.71821,-1.875543 0,-2.59375 0.3591,-0.359105 0.82785,-0.539063 1.29687,-0.539063 z"
               id="path2161" />
          </g>
        </g>
      </g>
      <path
         style="fill:#000000;fill-opacity:1;stroke:none;stroke-width:0"
         d="m 87.522439,54.610207 c -0.277131,0.46558 -0.554262,0.56534 -0.864649,0.58751 -0.08868,0.0111 -0.155194,0.0111 -0.155194,0.14411 0,0.0443 0.04434,0.0776 0.09977,0.0776 0.188449,0 0.410154,-0.0222 0.598603,-0.0222 0.243876,0 0.487751,0.0222 0.709456,0.0222 0.04434,0 0.133023,0 0.133023,-0.13302 0,-0.0776 -0.05543,-0.0887 -0.110852,-0.0887 -0.155194,-0.0111 -0.332558,-0.0665 -0.332558,-0.24387 0,-0.0887 0.04434,-0.16628 0.09977,-0.26605 l 0.543178,-0.8979 h 1.77364 c 0.01109,0.14411 0.110852,1.10852 0.110852,1.17503 0,0.21062 -0.365813,0.23279 -0.509921,0.23279 -0.09977,0 -0.166279,0 -0.166279,0.14411 0,0.0776 0.0776,0.0776 0.09977,0.0776 0.288217,0 0.587518,-0.0222 0.875735,-0.0222 0.177364,0 0.631859,0.0222 0.809223,0.0222 0.03326,0 0.121938,0 0.121938,-0.14411 0,-0.0776 -0.06651,-0.0776 -0.166279,-0.0776 -0.432325,0 -0.432325,-0.0443 -0.454495,-0.25496 l -0.432325,-4.41193 c -0.01109,-0.1441 -0.01109,-0.17736 -0.133023,-0.17736 -0.110852,0 -0.144108,0.0554 -0.188449,0.12194 z m 0.853565,-1.04202 1.385656,-2.33898 0.23279,2.33898 z m 0,0"
         id="id-a27cc0a3-21f9-47fc-b253-0cf21f5f9168" />
      <path
         style="fill:#000000;fill-opacity:1;stroke:none;stroke-width:0"
         d="m 76.655785,65.331775 c -0.06651,0.27713 -0.08868,0.33255 -0.642945,0.33255 -0.121938,0 -0.188449,0 -0.188449,0.14411 0,0.0776 0.06651,0.0776 0.188449,0.0776 h 2.527437 c 1.11961,0 1.951004,-0.83139 1.951004,-1.52976 0,-0.50993 -0.410154,-0.92008 -1.09744,-0.99768 0.731627,-0.13302 1.474339,-0.65403 1.474339,-1.33023 0,-0.521 -0.465581,-0.9755 -1.30806,-0.9755 h -2.383329 c -0.133023,0 -0.199534,0 -0.199534,0.14411 0,0.0776 0.06651,0.0776 0.199534,0.0776 0.01109,0 0.144109,0 0.266046,0.0111 0.121938,0.0222 0.18845,0.0222 0.18845,0.12194 0,0.0222 -0.01109,0.0443 -0.02217,0.13302 z m 1.064184,-2.03969 0.44341,-1.75147 c 0.06651,-0.24387 0.0776,-0.26604 0.376898,-0.26604 h 0.920076 c 0.620774,0 0.764882,0.42124 0.764882,0.73162 0,0.62078 -0.609689,1.28589 -1.463253,1.28589 z m -0.310387,2.37224 c -0.09977,0 -0.110853,0 -0.155194,0 -0.0776,-0.0111 -0.09977,-0.0222 -0.09977,-0.0776 0,-0.0222 0,-0.0333 0.04434,-0.1552 l 0.487751,-1.97317 h 1.33023 c 0.6762,0 0.820308,0.52101 0.820308,0.82031 0,0.69837 -0.631859,1.38565 -1.474338,1.38565 z m 0,0"
         id="id-372d753b-b88c-4a12-af71-75a303cdc1cf" />
      <path
         style="fill:#000000;fill-opacity:1;stroke:none;stroke-width:0"
         d="m 70.803255,71.559249 c 0,-0.0222 -0.01109,-0.0776 -0.0776,-0.0776 -0.02217,0 -0.03326,0.0111 -0.110852,0.0887 l -0.487751,0.54318 c -0.06651,-0.0998 -0.387984,-0.63186 -1.175037,-0.63186 -1.58519,0 -3.170381,1.56302 -3.170381,3.20363 0,1.16396 0.831394,1.93992 1.917748,1.93992 0.609689,0 1.152866,-0.27713 1.529765,-0.60969 0.654029,-0.57643 0.775967,-1.21937 0.775967,-1.24154 0,-0.0776 -0.0776,-0.0776 -0.08868,-0.0776 -0.04434,0 -0.0776,0.0222 -0.08868,0.0776 -0.06651,0.19953 -0.23279,0.70945 -0.720541,1.11961 -0.487751,0.38798 -0.931161,0.50992 -1.296974,0.50992 -0.63186,0 -1.385657,-0.36581 -1.385657,-1.46325 0,-0.41016 0.144109,-1.55194 0.853565,-2.38333 0.432324,-0.49884 1.097439,-0.85357 1.729299,-0.85357 0.720541,0 1.14178,0.54318 1.14178,1.36349 0,0.28821 -0.02217,0.28821 -0.02217,0.36581 0,0.0665 0.0776,0.0665 0.09977,0.0665 0.08868,0 0.08868,-0.0111 0.133023,-0.14411 z m 0,0"
         id="id-396a465d-8874-443c-845b-9fea729b7f4c" />
      <path
         style="fill:#000000;fill-opacity:1;stroke:none;stroke-width:0"
         d="m 109.21759,54.610207 c -0.27713,0.46558 -0.55426,0.56534 -0.86465,0.58751 -0.0887,0.0111 -0.15519,0.0111 -0.15519,0.14411 0,0.0443 0.0443,0.0776 0.0998,0.0776 0.18845,0 0.41015,-0.0222 0.5986,-0.0222 0.24388,0 0.48775,0.0222 0.70946,0.0222 0.0443,0 0.13302,0 0.13302,-0.13302 0,-0.0776 -0.0554,-0.0887 -0.11085,-0.0887 -0.15519,-0.0111 -0.33256,-0.0665 -0.33256,-0.24387 0,-0.0887 0.0443,-0.16628 0.0998,-0.26605 l 0.54318,-0.8979 h 1.77364 c 0.0111,0.14411 0.11085,1.10852 0.11085,1.17503 0,0.21062 -0.36581,0.23279 -0.50992,0.23279 -0.0998,0 -0.16628,0 -0.16628,0.14411 0,0.0776 0.0776,0.0776 0.0998,0.0776 0.28822,0 0.58752,-0.0222 0.87574,-0.0222 0.17736,0 0.63186,0.0222 0.80922,0.0222 0.0333,0 0.12194,0 0.12194,-0.14411 0,-0.0776 -0.0665,-0.0776 -0.16628,-0.0776 -0.43233,0 -0.43233,-0.0443 -0.4545,-0.25496 l -0.43232,-4.41193 c -0.0111,-0.1441 -0.0111,-0.17736 -0.13302,-0.17736 -0.11086,0 -0.14411,0.0554 -0.18845,0.12194 z m 0.85357,-1.04202 1.38565,-2.33898 0.23279,2.33898 z m 0,0"
         id="id-ea9854f6-7a7c-45b3-8728-88fb0ab501aa" />
      <path
         style="fill:#000000;fill-opacity:1;stroke:none;stroke-width:0"
         d="m 103.61156,60.975265 c 0,-0.0222 -0.0111,-0.0776 -0.0776,-0.0776 -0.0222,0 -0.0333,0.0111 -0.11085,0.0887 l -0.48775,0.54318 c -0.0665,-0.0998 -0.38798,-0.63186 -1.17504,-0.63186 -1.58519,0 -3.170371,1.56302 -3.170371,3.20363 0,1.16396 0.831397,1.93992 1.917741,1.93992 0.60969,0 1.15287,-0.27713 1.52976,-0.60969 0.65403,-0.57643 0.77597,-1.21937 0.77597,-1.24154 0,-0.0776 -0.0776,-0.0776 -0.0887,-0.0776 -0.0443,0 -0.0776,0.0222 -0.0887,0.0776 -0.0665,0.19953 -0.23279,0.70945 -0.72054,1.11961 -0.48775,0.38798 -0.93116,0.50992 -1.29697,0.50992 -0.631857,0 -1.385654,-0.36581 -1.385654,-1.46325 0,-0.41016 0.14411,-1.55194 0.853554,-2.38333 0.43233,-0.49884 1.09744,-0.85357 1.7293,-0.85357 0.72054,0 1.14178,0.54318 1.14178,1.36349 0,0.28821 -0.0222,0.28821 -0.0222,0.36581 0,0.0665 0.0776,0.0665 0.0998,0.0665 0.0887,0 0.0887,-0.0111 0.13303,-0.14411 z m 0,0"
         id="id-a4ce4bb8-235c-47b5-b7ba-832bc984bbbf" />
      <path
         style="fill:#000000;fill-opacity:1;stroke:none;stroke-width:0"
         d="m 87.768936,75.915759 c -0.06651,0.27713 -0.08868,0.33255 -0.642945,0.33255 -0.121938,0 -0.188449,0 -0.188449,0.14411 0,0.0776 0.06651,0.0776 0.188449,0.0776 h 2.527437 c 1.11961,0 1.951004,-0.83139 1.951004,-1.52976 0,-0.50993 -0.410154,-0.92008 -1.09744,-0.99768 0.731627,-0.13302 1.474339,-0.65403 1.474339,-1.33023 0,-0.521 -0.465581,-0.9755 -1.30806,-0.9755 h -2.383329 c -0.133023,0 -0.199534,0 -0.199534,0.14411 0,0.0776 0.06651,0.0776 0.199534,0.0776 0.01108,0 0.144109,0 0.266046,0.0111 0.121938,0.0222 0.188449,0.0222 0.188449,0.12194 0,0.0222 -0.01108,0.0443 -0.02217,0.13302 z m 1.064183,-2.03969 0.44341,-1.75147 c 0.06651,-0.24387 0.0776,-0.26604 0.376899,-0.26604 h 0.920076 c 0.620774,0 0.764882,0.42124 0.764882,0.73162 0,0.62078 -0.609689,1.28589 -1.463253,1.28589 z m -0.310387,2.37224 c -0.09977,0 -0.110852,0 -0.155193,0 -0.0776,-0.0111 -0.09977,-0.0222 -0.09977,-0.0776 0,-0.0222 0,-0.0333 0.04434,-0.1552 l 0.487751,-1.97317 h 1.33023 c 0.6762,0 0.820308,0.52101 0.820308,0.82031 0,0.69837 -0.631859,1.38565 -1.474338,1.38565 z m 0,0"
         id="id-7540cf8e-b05f-4459-8780-9c4b3c6a5805" />
      <path
         style="fill:#000000;fill-opacity:1;stroke:none;stroke-width:0"
         d="m 130.63108,54.748767 c -0.0665,0.27713 -0.0887,0.33255 -0.64294,0.33255 -0.12194,0 -0.18845,0 -0.18845,0.14411 0,0.0776 0.0665,0.0776 0.18845,0.0776 h 2.52744 c 1.11961,0 1.951,-0.83139 1.951,-1.52976 0,-0.50993 -0.41015,-0.92008 -1.09744,-0.99768 0.73163,-0.13302 1.47434,-0.65403 1.47434,-1.33023 0,-0.521 -0.46558,-0.9755 -1.30806,-0.9755 h -2.38333 c -0.13302,0 -0.19953,0 -0.19953,0.14411 0,0.0776 0.0665,0.0776 0.19953,0.0776 0.0111,0 0.14411,0 0.26605,0.0111 0.12193,0.0222 0.18844,0.0222 0.18844,0.12194 0,0.0222 -0.0111,0.0443 -0.0222,0.13302 z m 1.06419,-2.03969 0.44341,-1.75147 c 0.0665,-0.24387 0.0776,-0.26604 0.3769,-0.26604 h 0.92007 c 0.62078,0 0.76488,0.42124 0.76488,0.73162 0,0.62078 -0.60969,1.28589 -1.46325,1.28589 z m -0.31039,2.37224 c -0.0998,0 -0.11085,0 -0.15519,0 -0.0776,-0.0111 -0.0998,-0.0222 -0.0998,-0.0776 0,-0.0222 0,-0.0333 0.0443,-0.1552 l 0.48775,-1.97317 h 1.33023 c 0.6762,0 0.82031,0.52101 0.82031,0.82031 0,0.69837 -0.63186,1.38565 -1.47434,1.38565 z m 0,0"
         id="id-9a62efed-d1a1-4f35-bd1c-e78326f42323" />
      <path
         style="fill:#000000;fill-opacity:1;stroke:none;stroke-width:0"
         d="m 119.80157,65.193215 c -0.27713,0.46558 -0.55426,0.56534 -0.86465,0.58751 -0.0887,0.0111 -0.15519,0.0111 -0.15519,0.14411 0,0.0443 0.0443,0.0776 0.0998,0.0776 0.18845,0 0.41016,-0.0222 0.5986,-0.0222 0.24388,0 0.48776,0.0222 0.70946,0.0222 0.0443,0 0.13302,0 0.13302,-0.13302 0,-0.0776 -0.0554,-0.0887 -0.11085,-0.0887 -0.15519,-0.0111 -0.33256,-0.0665 -0.33256,-0.24387 0,-0.0887 0.0443,-0.16628 0.0998,-0.26605 l 0.54318,-0.8979 h 1.77364 c 0.0111,0.14411 0.11085,1.10852 0.11085,1.17503 0,0.21062 -0.36581,0.23279 -0.50992,0.23279 -0.0998,0 -0.16628,0 -0.16628,0.14411 0,0.0776 0.0776,0.0776 0.0998,0.0776 0.28822,0 0.58752,-0.0222 0.87574,-0.0222 0.17736,0 0.63186,0.0222 0.80922,0.0222 0.0333,0 0.12194,0 0.12194,-0.14411 0,-0.0776 -0.0665,-0.0776 -0.16628,-0.0776 -0.43232,0 -0.43232,-0.0443 -0.45449,-0.25496 l -0.43233,-4.41193 c -0.0111,-0.1441 -0.0111,-0.17736 -0.13302,-0.17736 -0.11085,0 -0.14411,0.0554 -0.18845,0.12194 z m 0.85357,-1.04202 1.38565,-2.33898 0.23279,2.33898 z m 0,0"
         id="id-b1362fe9-f35d-489e-bf1d-78a1420d2d7f" />
      <path
         style="fill:#000000;fill-opacity:1;stroke:none;stroke-width:0"
         d="m 113.13623,71.559249 c 0,-0.0222 -0.0111,-0.0776 -0.0776,-0.0776 -0.0222,0 -0.0333,0.0111 -0.11085,0.0887 l -0.48775,0.54318 c -0.0665,-0.0998 -0.38799,-0.63186 -1.17504,-0.63186 -1.58519,0 -3.17038,1.56302 -3.17038,3.20363 0,1.16396 0.8314,1.93992 1.91775,1.93992 0.60969,0 1.15286,-0.27713 1.52976,-0.60969 0.65403,-0.57643 0.77597,-1.21937 0.77597,-1.24154 0,-0.0776 -0.0776,-0.0776 -0.0887,-0.0776 -0.0443,0 -0.0776,0.0222 -0.0887,0.0776 -0.0665,0.19953 -0.23279,0.70945 -0.72055,1.11961 -0.48775,0.38798 -0.93116,0.50992 -1.29697,0.50992 -0.63186,0 -1.38565,-0.36581 -1.38565,-1.46325 0,-0.41016 0.1441,-1.55194 0.85356,-2.38333 0.43232,-0.49884 1.09744,-0.85357 1.7293,-0.85357 0.72054,0 1.14178,0.54318 1.14178,1.36349 0,0.28821 -0.0222,0.28821 -0.0222,0.36581 0,0.0665 0.0776,0.0665 0.0998,0.0665 0.0887,0 0.0887,-0.0111 0.13303,-0.14411 z m 0,0"
         id="id-73cd9489-62e7-4e7d-b687-cbe2029542af" />
      <path
         style="fill:#000000;fill-opacity:1;stroke:none;stroke-width:0"
         d="m 77.184957,97.081775 c -0.0665,0.27713 -0.0887,0.33255 -0.64295,0.33255 -0.12194,0 -0.18845,0 -0.18845,0.14411 0,0.0776 0.0665,0.0776 0.18845,0.0776 h 2.52744 c 1.11961,0 1.951,-0.83139 1.951,-1.52976 0,-0.50993 -0.41015,-0.92008 -1.09744,-0.99768 0.73163,-0.13302 1.47434,-0.65403 1.47434,-1.33023 0,-0.521 -0.46558,-0.9755 -1.30806,-0.9755 h -2.38333 c -0.13302,0 -0.19953,0 -0.19953,0.14411 0,0.0776 0.0665,0.0776 0.19953,0.0776 0.0111,0 0.14411,0 0.26605,0.0111 0.12194,0.0222 0.18845,0.0222 0.18845,0.12194 0,0.0222 -0.0111,0.0443 -0.0222,0.13302 z m 1.06418,-2.03969 0.44341,-1.75147 c 0.0665,-0.24387 0.0776,-0.26604 0.3769,-0.26604 h 0.92007 c 0.62078,0 0.76489,0.42124 0.76489,0.73162 0,0.62078 -0.60969,1.28589 -1.46326,1.28589 z m -0.31039,2.37224 c -0.0998,0 -0.11085,0 -0.15519,0 -0.0776,-0.0111 -0.0998,-0.0222 -0.0998,-0.0776 0,-0.0222 0,-0.0333 0.0443,-0.1552 l 0.48775,-1.97317 h 1.33023 c 0.6762,0 0.82031,0.52101 0.82031,0.82031 0,0.69837 -0.63186,1.38565 -1.47434,1.38565 z m 0,0"
         id="id-db14bcb9-397c-4764-93e8-2c1945946eaf" />
      <path
         style="fill:#000000;fill-opacity:1;stroke:none;stroke-width:0"
         d="m 70.803255,103.30925 c 0,-0.0222 -0.0111,-0.0776 -0.0776,-0.0776 -0.0222,0 -0.0333,0.0111 -0.11085,0.0887 l -0.48775,0.54318 c -0.0665,-0.0998 -0.38799,-0.63186 -1.17504,-0.63186 -1.58519,0 -3.17038,1.56302 -3.17038,3.20363 0,1.16396 0.83139,1.93992 1.91775,1.93992 0.60969,0 1.15286,-0.27713 1.52976,-0.60969 0.65403,-0.57643 0.77597,-1.21937 0.77597,-1.24154 0,-0.0776 -0.0776,-0.0776 -0.0887,-0.0776 -0.0443,0 -0.0776,0.0222 -0.0887,0.0776 -0.0665,0.19953 -0.23279,0.70945 -0.72054,1.11961 -0.48775,0.38798 -0.93116,0.50992 -1.29697,0.50992 -0.63186,0 -1.38566,-0.36581 -1.38566,-1.46325 0,-0.41016 0.14411,-1.55194 0.85357,-2.38333 0.43232,-0.49884 1.09744,-0.85357 1.7293,-0.85357 0.72054,0 1.14178,0.54318 1.14178,1.36349 0,0.28821 -0.0222,0.28821 -0.0222,0.36581 0,0.0665 0.0776,0.0665 0.0998,0.0665 0.0887,0 0.0887,-0.0111 0.13303,-0.14411 z m 0,0"
         id="id-5eda16cb-5a87-4a5c-b6e5-8f548a1862c6" />
      <path
         style="fill:#000000;fill-opacity:1;stroke:none;stroke-width:0"
         d="m 56.301551,118.11118 c -0.27713,0.46558 -0.55426,0.56534 -0.86465,0.58751 -0.0887,0.0111 -0.15519,0.0111 -0.15519,0.14411 0,0.0443 0.0443,0.0776 0.0998,0.0776 0.18845,0 0.41016,-0.0222 0.59861,-0.0222 0.24387,0 0.48775,0.0222 0.70945,0.0222 0.0443,0 0.13303,0 0.13303,-0.13302 0,-0.0776 -0.0554,-0.0887 -0.11086,-0.0887 -0.15519,-0.0111 -0.33255,-0.0665 -0.33255,-0.24387 0,-0.0887 0.0443,-0.16628 0.0998,-0.26605 l 0.54318,-0.8979 h 1.77364 c 0.0111,0.14411 0.11085,1.10852 0.11085,1.17503 0,0.21062 -0.36581,0.23279 -0.50992,0.23279 -0.0998,0 -0.16628,0 -0.16628,0.14411 0,0.0776 0.0776,0.0776 0.0998,0.0776 0.28822,0 0.58752,-0.0222 0.87573,-0.0222 0.17737,0 0.63186,0.0222 0.80923,0.0222 0.0333,0 0.12194,0 0.12194,-0.14411 0,-0.0776 -0.0665,-0.0776 -0.16628,-0.0776 -0.43233,0 -0.43233,-0.0443 -0.4545,-0.25496 l -0.43232,-4.41193 c -0.0111,-0.1441 -0.0111,-0.17736 -0.13303,-0.17736 -0.11085,0 -0.1441,0.0554 -0.18845,0.12194 z m 0.85356,-1.04202 1.38566,-2.33898 0.23279,2.33898 z m 0,0"
         id="id-618ea9f0-d6e2-4dd4-bd21-aa66cd04c2e9" />
      <path
         style="fill:#000000;fill-opacity:1;stroke:none;stroke-width:0"
         d="m 102.55322,92.725265 c 0,-0.0222 -0.0111,-0.0776 -0.0776,-0.0776 -0.0222,0 -0.0333,0.0111 -0.11085,0.0887 l -0.48775,0.54318 c -0.0665,-0.0998 -0.38799,-0.63186 -1.17504,-0.63186 -1.585184,0 -3.170365,1.56302 -3.170365,3.20363 0,1.16396 0.831387,1.93992 1.917741,1.93992 0.609684,0 1.152854,-0.27713 1.529754,-0.60969 0.65403,-0.57643 0.77597,-1.21937 0.77597,-1.24154 0,-0.0776 -0.0776,-0.0776 -0.0887,-0.0776 -0.0443,0 -0.0776,0.0222 -0.0887,0.0776 -0.0665,0.19953 -0.23279,0.70945 -0.72054,1.11961 -0.48775,0.38798 -0.931157,0.50992 -1.296967,0.50992 -0.631854,0 -1.385651,-0.36581 -1.385651,-1.46325 0,-0.41016 0.14411,-1.55194 0.853564,-2.38333 0.43232,-0.49884 1.097434,-0.85357 1.729294,-0.85357 0.72054,0 1.14178,0.54318 1.14178,1.36349 0,0.28821 -0.0222,0.28821 -0.0222,0.36581 0,0.0665 0.0776,0.0665 0.0998,0.0665 0.0887,0 0.0887,-0.0111 0.13303,-0.14411 z m 0,0"
         id="id-a82f49ac-25e6-4ac7-8cb6-54a994c23633" />
      <path
         style="fill:#000000;fill-opacity:1;stroke:none;stroke-width:0"
         d="m 88.051557,107.5272 c -0.27713,0.46558 -0.55426,0.56534 -0.86465,0.58751 -0.0887,0.0111 -0.15519,0.0111 -0.15519,0.14411 0,0.0443 0.0443,0.0776 0.0998,0.0776 0.18845,0 0.41016,-0.0222 0.59861,-0.0222 0.24387,0 0.48775,0.0222 0.70945,0.0222 0.0443,0 0.13303,0 0.13303,-0.13302 0,-0.0776 -0.0554,-0.0887 -0.11086,-0.0887 -0.15519,-0.0111 -0.33255,-0.0665 -0.33255,-0.24387 0,-0.0887 0.0443,-0.16628 0.0998,-0.26605 l 0.54318,-0.8979 h 1.77364 c 0.0111,0.14411 0.11085,1.10852 0.11085,1.17503 0,0.21062 -0.36581,0.23279 -0.50992,0.23279 -0.0998,0 -0.16628,0 -0.16628,0.14411 0,0.0776 0.0776,0.0776 0.0998,0.0776 0.28822,0 0.58752,-0.0222 0.87573,-0.0222 0.17737,0 0.63186,0.0222 0.80923,0.0222 0.0333,0 0.12193,0 0.12193,-0.14411 0,-0.0776 -0.0665,-0.0776 -0.16627,-0.0776 -0.43233,0 -0.43233,-0.0443 -0.4545,-0.25496 l -0.43232,-4.41193 c -0.0111,-0.1441 -0.0111,-0.17736 -0.13303,-0.17736 -0.11085,0 -0.14411,0.0554 -0.18845,0.12194 z m 0.85356,-1.04202 1.38566,-2.33898 0.23279,2.33898 z m 0,0"
         id="id-cd56767f-2b67-4b30-9e61-ccaabb173d25" />
      <path
         style="fill:#000000;fill-opacity:1;stroke:none;stroke-width:0"
         d="m 77.184957,118.24974 c -0.0665,0.27713 -0.0887,0.33255 -0.64295,0.33255 -0.12194,0 -0.18845,0 -0.18845,0.14411 0,0.0776 0.0665,0.0776 0.18845,0.0776 h 2.52744 c 1.11961,0 1.951,-0.83139 1.951,-1.52976 0,-0.50993 -0.41015,-0.92008 -1.09744,-0.99768 0.73163,-0.13302 1.47434,-0.65403 1.47434,-1.33023 0,-0.521 -0.46558,-0.9755 -1.30806,-0.9755 h -2.38333 c -0.13302,0 -0.19953,0 -0.19953,0.14411 0,0.0776 0.0665,0.0776 0.19953,0.0776 0.0111,0 0.14411,0 0.26605,0.0111 0.12194,0.0222 0.18845,0.0222 0.18845,0.12194 0,0.0222 -0.0111,0.0443 -0.0222,0.13302 z m 1.06418,-2.03969 0.44341,-1.75147 c 0.0665,-0.24387 0.0776,-0.26604 0.3769,-0.26604 h 0.92007 c 0.62078,0 0.76489,0.42124 0.76489,0.73162 0,0.62078 -0.60969,1.28589 -1.46326,1.28589 z m -0.31039,2.37224 c -0.0998,0 -0.11085,0 -0.15519,0 -0.0776,-0.0111 -0.0998,-0.0222 -0.0998,-0.0776 0,-0.0222 0,-0.0333 0.0443,-0.1552 l 0.48775,-1.97317 h 1.33023 c 0.6762,0 0.82031,0.52101 0.82031,0.82031 0,0.69837 -0.63186,1.38565 -1.47434,1.38565 z m 0,0"
         id="id-4d86d850-de95-4956-ac99-a0fa68073e4f" />
      <path
         style="fill:#000000;fill-opacity:1;stroke:none;stroke-width:0"
         d="m 123.72022,92.725265 c 0,-0.0222 -0.0111,-0.0776 -0.0776,-0.0776 -0.0222,0 -0.0333,0.0111 -0.11085,0.0887 l -0.48775,0.54318 c -0.0665,-0.0998 -0.38799,-0.63186 -1.17504,-0.63186 -1.58519,0 -3.17038,1.56302 -3.17038,3.20363 0,1.16396 0.83139,1.93992 1.91775,1.93992 0.60968,0 1.15286,-0.27713 1.52976,-0.60969 0.65403,-0.57643 0.77597,-1.21937 0.77597,-1.24154 0,-0.0776 -0.0776,-0.0776 -0.0887,-0.0776 -0.0443,0 -0.0776,0.0222 -0.0887,0.0776 -0.0665,0.19953 -0.23279,0.70945 -0.72054,1.11961 -0.48775,0.38798 -0.93116,0.50992 -1.29697,0.50992 -0.63186,0 -1.38566,-0.36581 -1.38566,-1.46325 0,-0.41016 0.14411,-1.55194 0.85357,-2.38333 0.43232,-0.49884 1.09744,-0.85357 1.7293,-0.85357 0.72054,0 1.14178,0.54318 1.14178,1.36349 0,0.28821 -0.0222,0.28821 -0.0222,0.36581 0,0.0665 0.0776,0.0665 0.0998,0.0665 0.0887,0 0.0887,-0.0111 0.13303,-0.14411 z m 0,0"
         id="id-5266911f-5402-41d8-a128-4b2e7808722d" />
      <path
         style="fill:#000000;fill-opacity:1;stroke:none;stroke-width:0"
         d="m 108.93493,107.66576 c -0.0665,0.27713 -0.0887,0.33255 -0.64295,0.33255 -0.12194,0 -0.18845,0 -0.18845,0.14411 0,0.0776 0.0665,0.0776 0.18845,0.0776 h 2.52744 c 1.11961,0 1.951,-0.83139 1.951,-1.52976 0,-0.50993 -0.41015,-0.92008 -1.09744,-0.99768 0.73163,-0.13302 1.47434,-0.65403 1.47434,-1.33023 0,-0.521 -0.46558,-0.9755 -1.30806,-0.9755 h -2.38333 c -0.13302,0 -0.19953,0 -0.19953,0.14411 0,0.0776 0.0665,0.0776 0.19953,0.0776 0.0111,0 0.14411,0 0.26605,0.0111 0.12194,0.0222 0.18845,0.0222 0.18845,0.12194 0,0.0222 -0.0111,0.0443 -0.0222,0.13302 z m 1.06418,-2.03969 0.44341,-1.75147 c 0.0665,-0.24387 0.0776,-0.26604 0.3769,-0.26604 h 0.92007 c 0.62078,0 0.76489,0.42124 0.76489,0.73162 0,0.62078 -0.60969,1.28589 -1.46326,1.28589 z m -0.31039,2.37224 c -0.0998,0 -0.11085,0 -0.15519,0 -0.0776,-0.0111 -0.0998,-0.0222 -0.0998,-0.0776 0,-0.0222 0,-0.0333 0.0443,-0.1552 l 0.48775,-1.97317 h 1.33023 c 0.6762,0 0.82031,0.52101 0.82031,0.82031 0,0.69837 -0.63186,1.38565 -1.47434,1.38565 z m 0,0"
         id="id-8771a016-8202-48d4-ad41-82e8b10f1717" />
      <path
         style="fill:#000000;fill-opacity:1;stroke:none;stroke-width:0"
         d="m 98.634549,118.11118 c -0.277127,0.46558 -0.554257,0.56534 -0.864644,0.58751 -0.0887,0.0111 -0.15519,0.0111 -0.15519,0.14411 0,0.0443 0.0443,0.0776 0.0998,0.0776 0.188447,0 0.410157,-0.0222 0.598607,-0.0222 0.243867,0 0.487747,0.0222 0.709444,0.0222 0.0443,0 0.13303,0 0.13303,-0.13302 0,-0.0776 -0.0554,-0.0887 -0.11086,-0.0887 -0.155187,-0.0111 -0.332547,-0.0665 -0.332547,-0.24387 0,-0.0887 0.0443,-0.16628 0.0998,-0.26605 l 0.543177,-0.8979 h 1.773634 c 0.0111,0.14411 0.11085,1.10852 0.11085,1.17503 0,0.21062 -0.36581,0.23279 -0.50992,0.23279 -0.0998,0 -0.16628,0 -0.16628,0.14411 0,0.0776 0.0776,0.0776 0.0998,0.0776 0.28822,0 0.58752,-0.0222 0.87573,-0.0222 0.17737,0 0.63186,0.0222 0.80923,0.0222 0.0332,0 0.12193,0 0.12193,-0.14411 0,-0.0776 -0.0665,-0.0776 -0.16627,-0.0776 -0.43233,0 -0.43233,-0.0443 -0.4545,-0.25496 l -0.43232,-4.41193 c -0.0111,-0.1441 -0.0111,-0.17736 -0.13303,-0.17736 -0.11085,0 -0.14411,0.0554 -0.18845,0.12194 z m 0.853554,-1.04202 1.385657,-2.33898 0.23279,2.33898 z m 0,0"
         id="id-86815679-572f-4fe4-be59-f73f2283ac42" />
    </g>
  </g>
</svg>
