<?xml version="1.0" encoding="UTF-8" standalone="no"?>
<svg
   version="1.1"
   width="31.171795"
   height="10.142863"
   id="svg1011"
   sodipodi:docname="xor_gate.svg"
   inkscape:version="1.1 (c4e8f9e, 2021-05-24)"
   xmlns:inkscape="http://www.inkscape.org/namespaces/inkscape"
   xmlns:sodipodi="http://sodipodi.sourceforge.net/DTD/sodipodi-0.dtd"
   xmlns="http://www.w3.org/2000/svg"
   xmlns:svg="http://www.w3.org/2000/svg">
  <sodipodi:namedview
     id="namedview1013"
     pagecolor="#ffffff"
     bordercolor="#666666"
     borderopacity="1.0"
     inkscape:pageshadow="2"
     inkscape:pageopacity="0.0"
     inkscape:pagecheckerboard="0"
     showgrid="false"
     inkscape:zoom="8.0645161"
     inkscape:cx="12.462"
     inkscape:cy="-5.518"
     inkscape:window-width="1296"
     inkscape:window-height="847"
     inkscape:window-x="1685"
     inkscape:window-y="111"
     inkscape:window-maximized="0"
     inkscape:current-layer="svg1011">
    <inkscape:grid
       type="xygrid"
       id="grid1404"
       originx="-481.80925"
       originy="-251.92857" />
  </sodipodi:namedview>
  <defs
     id="defs977">
    <clipPath
       id="page">
      <rect
         x="0"
         y="0"
         width="770"
         height="620"
         id="rect970" />
    </clipPath>
    <clipPath
       id="clipPath975">
      <rect
         x="0"
         y="0"
         width="770"
         height="620"
         id="rect973" />
    </clipPath>
  </defs>
  <g
     id="g1743"
     transform="translate(-481.80925,-251.92857)">
    <path
       d="m 486.5102,254.58504 h 6.03742"
       fill="none"
       stroke="#000000"
       stroke-width="0.482993"
       id="path983" />
    <path
       d="m 486.5102,259.41497 h 6.03742"
       fill="none"
       stroke="#000000"
       stroke-width="0.482993"
       id="path985" />
    <path
       d="m 501,257 h 4.82993"
       fill="none"
       stroke="#000000"
       stroke-width="0.482993"
       id="path987" />
    <path
       d="m 489.52891,252.17007 c 2.17347,2.17347 2.17347,7.4864 0,9.65987"
       fill="none"
       stroke="#000000"
       stroke-width="0.482993"
       id="path989" />
    <path
       d="m 491.34013,252.17007 c 2.17347,2.17347 2.17347,7.4864 0,9.65987"
       fill="none"
       stroke="#000000"
       stroke-width="0.482993"
       id="path991" />
    <path
       d="m 491.34013,252.17007 c 4.82993,0 8.45238,2.41497 9.65987,4.82993"
       fill="none"
       stroke="#000000"
       stroke-width="0.482993"
       id="path993" />
    <path
       d="m 491.34013,261.82994 c 4.82993,0 8.45238,-2.41497 9.65987,-4.82994"
       fill="none"
       stroke="#000000"
       stroke-width="0.482993"
       id="path995" />
    <circle
       cx="486.51019"
       cy="254.58504"
       r="0.96598649"
       stroke="none"
       fill="#ffffff"
       id="circle997"
       style="stroke-width:0.241497" />
    <circle
       cx="486.51019"
       cy="254.58504"
       r="0.96598649"
       fill="none"
       stroke="#000000"
       stroke-width="0.482993"
       id="circle999" />
    <circle
       cx="486.51019"
       cy="259.41498"
       r="0.96598649"
       stroke="none"
       fill="#ffffff"
       id="circle1001"
       style="stroke-width:0.241497" />
    <circle
       cx="486.51019"
       cy="259.41498"
       r="0.96598649"
       fill="none"
       stroke="#000000"
       stroke-width="0.482993"
       id="circle1003" />
    <circle
       cx="505.82993"
       cy="257"
       r="0.96598649"
       stroke="none"
       fill="#ffffff"
       id="circle1005"
       style="stroke-width:0.241497" />
    <circle
       cx="505.82993"
       cy="257"
       r="0.96598649"
       fill="none"
       stroke="#000000"
       stroke-width="0.482993"
       id="circle1007" />
    <path
       style="fill:#000000;fill-opacity:1;stroke:none;stroke-width:0"
       d="m 483.0494,255.31605 c 0.0864,0.11723 0.27148,0.1234 0.41956,0.1234 0.11106,0 0.19744,0 0.19744,-0.1234 0,-0.11723 -0.0987,-0.11723 -0.15425,-0.11723 -0.16659,0 -0.20361,-0.0185 -0.23446,-0.0308 v -0.85145 c 0,-0.27765 -0.21595,-0.61083 -0.78358,-0.61083 -0.16659,0 -0.56764,0 -0.56764,0.28999 0,0.11723 0.0802,0.17893 0.17276,0.17893 0.0617,0 0.17276,-0.037 0.17276,-0.17893 0,-0.0308 0.006,-0.037 0.0864,-0.0432 0.0555,-0.006 0.10489,-0.006 0.14191,-0.006 0.29616,0 0.49976,0.1234 0.49976,0.40105 -0.69103,0.0123 -1.17846,0.20977 -1.17846,0.58614 0,0.27148 0.2468,0.53062 0.64785,0.53062 0.14808,0 0.39487,-0.0308 0.57997,-0.14808 z M 483,254.58183 v 0.33317 c 0,0.0864 0,0.17276 -0.14808,0.24063 -0.1419,0.0679 -0.32083,0.0679 -0.35168,0.0679 -0.2468,0 -0.40722,-0.13574 -0.40722,-0.28999 0,-0.19127 0.33935,-0.33935 0.90698,-0.35168 z m 0,0"
       id="path1636" />
    <path
       style="fill:#000000;fill-opacity:1;stroke:none;stroke-width:0"
       d="m 482.4139,259.07563 v -0.71571 c 0,-0.11723 -0.0247,-0.16042 -0.16041,-0.16042 h -0.28382 c -0.0617,0 -0.16042,0 -0.16042,0.1234 0,0.11723 0.0987,0.11723 0.15425,0.11723 h 0.17893 v 2.00523 c 0,0.0802 0,0.16042 0.13574,0.16042 0.13573,0 0.13573,-0.0802 0.13573,-0.17893 0.16042,0.16659 0.33318,0.20361 0.45658,0.20361 0.42573,0 0.80826,-0.37637 0.80826,-0.87613 0,-0.48126 -0.34551,-0.86996 -0.76507,-0.86996 -0.19127,0 -0.36403,0.074 -0.49977,0.19126 z m 0,0.77742 v -0.28382 c 0,-0.23446 0.22829,-0.44424 0.47509,-0.44424 0.28999,0 0.51827,0.28999 0.51827,0.62934 0,0.37636 -0.27147,0.6355 -0.54912,0.6355 -0.3085,0 -0.44424,-0.34551 -0.44424,-0.53678 z m 0,0"
       id="path1640" />
    <g
       id="g1626"
       transform="translate(-1.8973353,-31.000003)">
      <g
         transform="matrix(0.33397245,0,0,0.33397245,509.89226,288.9106)"
         id="g1673"
         style="fill:#000000;fill-opacity:1">
        <path
           style="stroke:none;stroke-width:0"
           d="m 4.65625,-2.15625 c 0,-1.25 -0.921875,-2.234375 -2.046875,-2.234375 -1.109375,0 -2.046875,0.984375 -2.046875,2.234375 0,1.265625 0.953125,2.21875 2.046875,2.21875 1.09375,0 2.046875,-0.953125 2.046875,-2.21875 z M 2.609375,-0.546875 C 1.875,-0.546875 1.25,-1.296875 1.25,-2.21875 c 0,-0.90625 0.65625,-1.5625 1.359375,-1.5625 0.71875,0 1.359375,0.65625 1.359375,1.5625 0,0.921875 -0.625,1.671875 -1.359375,1.671875 z m 0,0"
           id="path1671" />
      </g>
      <g
         transform="matrix(0.33397245,0,0,0.33397245,511.63927,288.9106)"
         id="g1677"
         style="fill:#000000;fill-opacity:1">
        <path
           style="stroke:none;stroke-width:0"
           d="M 3.5625,-0.3125 C 3.578125,0 3.78125,0 3.96875,0 H 4.6875 c 0.171875,0 0.421875,0 0.421875,-0.3125 0,-0.296875 -0.265625,-0.296875 -0.40625,-0.296875 H 4.25 v -3.28125 c 0,-0.3125 -0.046875,-0.40625 -0.390625,-0.40625 H 3.125 c -0.15625,0 -0.40625,0 -0.40625,0.3125 0,0.296875 0.265625,0.296875 0.40625,0.296875 h 0.4375 v 2.125 c 0,0.890625 -0.796875,1.015625 -1.125,1.015625 -0.78125,0 -0.78125,-0.328125 -0.78125,-0.65625 v -2.6875 c 0,-0.3125 -0.0625,-0.40625 -0.40625,-0.40625 H 0.53125 c -0.15625,0 -0.40625,0 -0.40625,0.3125 0,0.296875 0.25,0.296875 0.390625,0.296875 H 0.96875 v 2.546875 c 0,0.96875 0.6875,1.203125 1.40625,1.203125 0.421875,0 0.828125,-0.109375 1.1875,-0.375 z m 0,0"
           id="path1675" />
      </g>
      <g
         transform="matrix(0.33397245,0,0,0.33397245,513.38594,288.9106)"
         id="g1681"
         style="fill:#000000;fill-opacity:1">
        <path
           style="stroke:none;stroke-width:0"
           d="m 2.21875,-3.6875 h 1.625 c 0.15625,0 0.40625,0 0.40625,-0.296875 0,-0.3125 -0.25,-0.3125 -0.40625,-0.3125 h -1.625 v -0.8125 c 0,-0.1875 0,-0.40625 -0.34375,-0.40625 -0.34375,0 -0.34375,0.203125 -0.34375,0.40625 v 0.8125 h -0.875 c -0.15625,0 -0.40625,0 -0.40625,0.3125 0,0.296875 0.25,0.296875 0.390625,0.296875 H 1.53125 V -1.25 c 0,0.953125 0.671875,1.3125 1.40625,1.3125 0.734375,0 1.53125,-0.4375 1.53125,-1.3125 0,-0.1875 0,-0.390625 -0.34375,-0.390625 -0.328125,0 -0.34375,0.203125 -0.34375,0.375 0,0.625 -0.578125,0.71875 -0.796875,0.71875 -0.765625,0 -0.765625,-0.515625 -0.765625,-0.765625 z m 0,0"
           id="path1679" />
      </g>
    </g>
  </g>
</svg>
